<?xml version="1.0" standalone="no"?>
<!DOCTYPE svg PUBLIC "-//W3C//DTD SVG 20010904//EN"
 "http://www.w3.org/TR/2001/REC-SVG-20010904/DTD/svg10.dtd">
<svg version="1.0" xmlns="http://www.w3.org/2000/svg"
 width="1280.000000pt" height="1189.000000pt" viewBox="0 0 1280.000000 1189.000000"
 preserveAspectRatio="xMidYMid meet">
<metadata>
Created by potrace 1.15, written by Peter Selinger 2001-2017
</metadata>
<g transform="translate(0.000000,1189.000000) scale(0.100000,-0.100000)"
fill="#000000" stroke="none">
<path d="M5390 11884 c-25 -2 -106 -8 -180 -14 -169 -14 -364 -43 -543 -81
-208 -43 -298 -74 -675 -228 -727 -298 -1216 -576 -1845 -1049 -347 -260 -529
-413 -717 -601 -170 -171 -254 -272 -435 -521 -65 -91 -167 -230 -225 -310
-111 -151 -186 -273 -271 -443 -28 -54 -87 -161 -132 -236 -116 -195 -170
-309 -227 -479 -84 -252 -81 -232 -90 -607 -5 -187 -13 -412 -19 -500 -16
-250 -33 -843 -26 -889 4 -23 20 -88 36 -146 15 -58 35 -147 44 -198 9 -51 54
-224 101 -385 79 -270 91 -304 168 -457 96 -190 110 -229 170 -480 85 -350
108 -402 355 -798 181 -290 215 -338 345 -486 167 -191 336 -444 386 -576 18
-47 57 -123 88 -170 73 -114 279 -317 497 -491 367 -293 460 -351 628 -388
293 -66 512 -111 587 -121 226 -31 486 41 619 172 95 94 136 170 229 433 71
201 70 193 75 393 5 185 -2 248 -29 259 -34 13 -41 -13 -47 -190 -7 -194 -16
-238 -97 -467 -69 -195 -104 -264 -172 -333 -63 -64 -153 -111 -273 -143 -110
-30 -267 -25 -435 14 -74 17 -216 42 -315 57 -288 42 -306 51 -585 286 -493
414 -587 520 -850 949 -102 168 -152 236 -280 381 -107 121 -156 189 -255 358
-34 58 -91 151 -126 206 -143 221 -171 286 -235 555 -82 343 -122 462 -223
668 -86 173 -153 389 -206 662 -15 74 -40 194 -56 267 -52 236 -61 322 -61
548 0 116 9 342 21 503 12 162 21 389 21 505 0 279 11 370 56 472 19 44 49
116 65 160 48 130 131 289 235 455 53 85 129 211 167 280 90 161 82 149 215
314 62 78 168 222 235 321 114 169 121 183 119 225 -1 30 5 55 17 73 30 46
369 383 451 450 41 33 109 84 150 113 41 29 102 76 135 104 33 29 75 59 93 68
32 16 35 15 47 -1 11 -16 13 -16 19 -1 3 8 6 26 6 38 0 13 9 35 20 49 26 33
304 229 512 361 583 370 1338 726 1833 864 309 87 707 132 1162 132 282 0 389
-14 598 -80 72 -23 195 -57 275 -76 384 -93 726 -214 1002 -356 110 -56 190
-113 333 -238 209 -182 402 -320 589 -421 68 -37 147 -94 250 -180 270 -225
433 -413 694 -797 176 -260 210 -299 412 -493 94 -90 186 -186 204 -214 48
-72 193 -417 211 -503 8 -40 15 -117 15 -170 1 -323 66 -607 205 -898 99 -208
184 -313 378 -468 204 -162 297 -267 377 -426 109 -217 122 -368 45 -525 -24
-49 -69 -109 -150 -200 -65 -73 -127 -153 -142 -183 -50 -102 -27 -183 74
-266 32 -26 86 -75 121 -109 79 -77 79 -95 2 -115 -63 -16 -95 -39 -80 -57 8
-9 24 -10 62 -3 125 23 172 -19 290 -258 79 -160 83 -171 83 -235 0 -123 -48
-149 -212 -115 -41 9 -107 16 -147 16 -90 0 -142 14 -162 45 -9 14 -29 62 -44
107 -39 116 -85 229 -131 322 -21 44 -39 85 -39 92 0 19 25 24 95 17 65 -6 65
-6 65 19 0 31 -15 38 -83 38 -70 0 -124 -17 -154 -46 -32 -32 -28 -57 26 -148
45 -77 129 -282 161 -393 11 -40 31 -85 44 -100 l23 -27 164 2 c159 2 213 -6
181 -27 -8 -4 -75 -14 -150 -20 -649 -57 -1181 -171 -1677 -361 -311 -119
-508 -216 -640 -315 -84 -63 -315 -264 -443 -386 -51 -49 -105 -95 -120 -103
-15 -8 -93 -22 -172 -30 -172 -19 -193 -23 -185 -36 4 -6 76 -10 172 -10 157
0 168 1 207 24 23 13 51 37 63 54 27 37 364 338 498 445 135 108 229 169 360
232 210 101 566 224 740 254 166 30 204 38 335 77 161 46 193 53 338 65 70 5
224 25 342 44 118 18 250 36 293 39 57 4 86 11 104 26 29 22 73 26 91 8 63
-63 -134 -361 -321 -484 -38 -25 -140 -79 -225 -120 -389 -186 -482 -264 -482
-406 0 -57 16 -90 43 -86 20 3 22 9 25 75 3 64 6 75 32 101 54 55 416 272 453
272 22 0 22 -29 0 -101 -22 -74 -22 -175 0 -217 16 -29 69 -72 90 -72 14 0 7
47 -19 121 -35 100 -32 198 10 282 25 53 37 64 127 123 95 63 102 69 173 177
98 150 114 183 137 290 11 52 33 114 50 143 21 37 29 65 29 98 0 66 -41 183
-105 296 -29 52 -60 118 -69 145 -23 70 -122 192 -252 310 -133 120 -157 150
-156 204 1 61 25 100 134 223 183 207 237 313 238 464 0 150 -68 333 -181 484
-64 85 -203 223 -362 359 -183 158 -289 312 -377 552 -69 185 -94 325 -115
629 -11 171 -19 233 -40 302 -35 120 -160 453 -186 494 -11 18 -105 112 -209
208 -206 192 -268 264 -401 463 -143 213 -356 487 -484 622 -72 76 -360 329
-475 417 -36 28 -101 72 -145 99 -106 65 -194 131 -345 261 -264 227 -403 311
-735 444 -227 90 -421 150 -800 244 -99 25 -218 57 -265 71 -185 57 -255 66
-545 69 -148 2 -290 2 -315 0z"/>
<path d="M2118 10260 c-17 -58 -9 -91 32 -136 22 -24 40 -53 40 -64 0 -23 18
-62 54 -115 14 -20 27 -49 31 -65 4 -17 24 -43 49 -64 40 -32 43 -39 49 -96 8
-70 23 -103 66 -145 17 -16 36 -46 41 -66 6 -21 26 -56 44 -78 18 -22 37 -57
41 -78 5 -28 25 -56 83 -115 70 -72 78 -78 117 -78 59 0 81 -20 96 -86 16 -71
30 -88 104 -127 52 -28 63 -40 93 -97 18 -36 49 -88 67 -116 18 -28 51 -87 73
-130 65 -127 88 -144 203 -144 79 0 95 -6 159 -63 62 -54 154 -97 210 -97 25
0 75 8 112 17 64 17 70 16 121 -1 48 -16 58 -17 103 -3 44 12 64 12 181 -3 82
-11 169 -30 230 -51 119 -40 185 -42 258 -9 84 38 112 41 177 19 73 -26 103
-23 103 11 0 21 -9 28 -55 47 -75 30 -119 29 -227 -9 l-91 -32 -144 32 c-78
17 -177 37 -218 43 -41 6 -97 15 -125 19 -33 5 -68 3 -102 -6 -37 -10 -60 -11
-78 -4 -37 14 -91 12 -155 -5 -30 -8 -68 -15 -85 -15 -42 0 -110 33 -177 86
-76 59 -114 74 -192 74 -36 0 -77 5 -91 12 -25 11 -70 76 -115 168 -12 25 -41
69 -64 99 -22 30 -52 75 -66 100 -17 31 -45 59 -85 86 -64 44 -95 89 -95 141
0 40 -27 64 -72 64 -55 0 -96 19 -118 55 -13 21 -34 38 -56 45 -38 13 -64 55
-64 105 0 24 -12 40 -58 77 -13 10 -24 35 -28 59 -5 29 -20 56 -49 89 -39 44
-42 53 -49 121 -6 71 -8 76 -51 118 -27 26 -45 52 -45 66 0 12 -10 30 -21 41
-26 23 -58 90 -59 121 0 12 -20 45 -44 73 -35 41 -46 62 -48 94 -3 35 -4 38
-10 16z"/>
<path d="M3910 10140 c-10 -6 -5 -18 18 -47 50 -64 98 -91 202 -113 72 -15
127 -37 235 -91 121 -61 151 -72 208 -76 70 -6 107 1 91 17 -5 5 -56 24 -113
41 -67 20 -133 49 -193 84 -56 34 -113 59 -147 66 -119 24 -160 40 -206 78
-52 43 -76 53 -95 41z"/>
<path d="M8870 9968 c0 -7 23 -33 52 -58 120 -106 164 -157 232 -273 74 -128
141 -209 213 -256 50 -33 93 -41 93 -16 0 8 -38 52 -85 97 -58 56 -112 121
-169 207 -97 146 -143 196 -245 262 -77 51 -91 57 -91 37z"/>
<path d="M7140 9744 c-316 -14 -509 -62 -751 -185 -64 -33 -136 -75 -161 -93
-50 -39 -81 -97 -76 -147 5 -53 31 -50 97 14 124 122 359 235 584 281 66 14
294 42 499 61 75 7 123 34 101 56 -13 13 -154 19 -293 13z"/>
<path d="M6850 9455 c-172 -38 -335 -116 -576 -277 -113 -75 -173 -122 -198
-153 -32 -43 -54 -100 -43 -111 2 -3 27 24 54 59 52 65 84 89 318 236 168 106
252 146 372 177 114 30 313 43 378 25 91 -24 322 -200 420 -318 110 -134 202
-348 282 -663 80 -310 93 -385 99 -560 7 -175 -6 -264 -53 -360 -68 -140 -328
-326 -526 -375 -36 -9 -36 7 2 93 62 142 81 262 81 507 -1 273 -17 487 -51
665 -17 91 -41 219 -54 286 -30 158 -60 221 -149 309 -81 81 -173 134 -286
164 -164 44 -281 37 -409 -24 -79 -38 -314 -200 -390 -270 -94 -86 -190 -213
-253 -338 -34 -67 -80 -157 -102 -200 -37 -72 -41 -87 -44 -171 -7 -162 30
-367 90 -501 68 -148 141 -242 253 -318 33 -23 109 -88 170 -146 121 -116 203
-173 279 -197 69 -21 278 -29 405 -15 57 6 141 23 186 36 67 21 100 25 176 23
92 -2 97 -1 202 44 132 57 285 157 376 247 197 194 223 486 91 1000 -41 155
-53 267 -37 323 5 19 21 35 50 49 23 12 57 35 75 50 18 16 50 38 70 48 21 11
65 47 98 81 61 64 168 132 238 151 67 18 118 -3 198 -83 38 -38 77 -68 88 -68
37 0 21 37 -40 93 -125 113 -216 137 -307 80 -26 -16 -69 -42 -95 -57 -27 -15
-66 -51 -93 -86 -34 -44 -77 -80 -176 -147 -127 -85 -131 -87 -146 -68 -8 11
-49 88 -90 170 -81 160 -143 252 -220 326 -106 101 -235 192 -341 242 -62 30
-76 32 -187 34 -76 2 -144 -3 -185 -12z m24 -380 c172 -50 264 -103 314 -183
41 -65 59 -127 77 -264 8 -65 26 -168 39 -230 40 -186 46 -258 47 -593 1 -261
-2 -334 -15 -395 -54 -245 -162 -315 -521 -335 -131 -7 -233 4 -300 34 -61 27
-316 242 -475 401 -117 117 -182 250 -215 439 -27 153 -15 249 43 353 16 29
44 96 61 148 39 119 71 174 158 275 84 96 207 198 358 296 145 94 247 107 429
54z"/>
<path d="M5116 9361 c-8 -13 6 -48 42 -105 36 -57 60 -151 68 -274 8 -102 -4
-165 -46 -261 -48 -110 -53 -147 -34 -264 19 -118 15 -162 -21 -243 -66 -148
-128 -358 -144 -491 -11 -90 4 -226 35 -326 14 -45 60 -145 101 -222 76 -144
123 -262 123 -312 0 -49 -21 -106 -65 -178 -30 -49 -47 -90 -55 -134 -25 -137
-105 -304 -192 -396 -46 -50 -81 -74 -190 -130 -167 -88 -218 -136 -307 -296
-80 -142 -113 -191 -170 -252 -75 -81 -101 -90 -286 -97 -217 -9 -234 -17
-329 -163 -64 -99 -274 -308 -453 -451 -68 -54 -123 -104 -123 -111 0 -14 31
-25 70 -24 41 0 81 27 231 159 201 176 260 238 338 354 38 56 76 108 86 116
14 11 60 16 194 21 147 5 184 9 222 26 96 43 176 138 278 332 38 70 79 142 91
159 30 40 112 97 218 152 152 78 227 167 317 375 26 61 79 171 116 247 134
267 133 308 -21 628 -134 278 -145 313 -145 470 0 119 2 132 43 265 24 77 64
192 89 255 45 114 45 116 37 190 -5 41 -9 116 -9 166 0 84 3 96 38 171 36 78
38 84 38 189 -1 157 -21 255 -74 359 -43 86 -92 128 -111 96z"/>
<path d="M9213 9175 c-127 -28 -216 -88 -263 -178 -18 -34 -46 -81 -62 -105
-96 -141 -89 -236 25 -359 103 -110 222 -184 344 -212 28 -7 59 -18 69 -25 16
-12 14 -17 -28 -62 -55 -59 -79 -105 -109 -207 -29 -100 -53 -127 -114 -127
-25 0 -58 6 -73 14 -33 17 -149 140 -177 187 -11 18 -39 44 -63 57 -26 15 -50
38 -62 61 -12 25 -31 43 -52 51 -45 18 -67 39 -83 77 -7 17 -27 39 -44 48 -34
17 -56 55 -91 158 -31 87 -49 107 -102 107 -36 0 -46 6 -82 45 -50 54 -66 57
-66 11 0 -50 30 -80 93 -95 30 -6 62 -20 71 -29 22 -25 72 -140 80 -184 5 -26
17 -46 42 -65 19 -16 46 -45 59 -65 18 -27 36 -40 64 -48 30 -8 48 -22 71 -54
17 -23 46 -50 65 -59 23 -11 40 -30 53 -60 11 -25 38 -58 63 -78 24 -18 60
-50 79 -70 23 -24 51 -41 80 -48 65 -16 95 -34 98 -59 2 -12 -11 -84 -28 -159
-57 -246 -72 -350 -77 -528 -8 -293 19 -371 190 -540 104 -102 115 -116 146
-193 38 -93 76 -136 186 -214 91 -64 199 -119 305 -153 72 -24 103 -28 200
-29 105 -1 120 1 165 24 75 38 98 88 92 200 -6 99 -79 415 -130 565 -46 133
-71 253 -97 465 -24 196 -60 358 -124 553 -149 456 -280 607 -561 652 -123 19
-211 59 -316 142 -129 103 -152 158 -105 251 17 34 26 67 26 100 0 58 18 78
100 116 161 74 325 73 461 -1 68 -36 188 -150 259 -245 133 -176 157 -260 195
-683 36 -394 79 -524 235 -705 45 -52 93 -114 107 -138 24 -40 25 -49 19 -124
-9 -112 13 -135 73 -79 26 24 31 37 31 74 0 66 -36 170 -77 224 -20 26 -70 86
-111 133 -132 150 -147 201 -167 526 -28 476 -87 658 -284 881 -123 139 -261
231 -390 259 -80 17 -127 17 -208 -1z m355 -990 c59 -51 109 -159 191 -410 82
-247 102 -341 136 -634 24 -204 28 -222 85 -390 56 -167 130 -482 130 -557 0
-52 -20 -68 -83 -66 -162 4 -411 121 -521 243 -25 28 -46 55 -46 61 0 5 -15
42 -34 82 -29 64 -45 83 -123 150 -115 97 -147 153 -163 281 -25 195 4 423
115 894 60 256 76 292 159 352 56 41 101 39 154 -6z"/>
<path d="M5370 8630 c-6 -12 -8 -29 -5 -40 8 -27 97 -67 178 -81 78 -13 92
-24 41 -33 -68 -13 -4 -63 66 -51 54 9 78 29 64 52 -19 32 -109 78 -179 92
-52 11 -77 22 -105 47 -44 40 -46 40 -60 14z"/>
<path d="M3053 7928 c-11 -13 -33 -44 -47 -70 -49 -85 -86 -105 -273 -148
-103 -24 -178 -64 -272 -147 -79 -70 -116 -91 -181 -102 l-55 -9 50 -1 c63 -1
108 20 210 98 118 90 170 113 397 175 67 19 111 53 140 110 28 55 47 76 72 76
12 0 28 5 36 10 13 9 13 11 0 20 -25 16 -55 11 -77 -12z"/>
<path d="M2554 7250 c-75 -37 -108 -71 -99 -99 11 -35 47 -36 113 -2 78 39
119 40 272 1 65 -16 144 -30 174 -30 68 0 97 -11 149 -55 36 -31 47 -35 97
-35 44 0 65 -6 101 -28 56 -36 144 -134 171 -191 19 -39 30 -48 117 -90 53
-26 117 -63 144 -83 26 -21 64 -40 85 -44 145 -24 172 -61 172 -230 0 -110 20
-174 69 -216 58 -50 72 -87 82 -212 16 -190 45 -287 92 -302 31 -10 32 3 8 78
-14 44 -27 117 -32 187 -13 157 -28 203 -88 275 -59 69 -67 92 -75 203 -12
176 -48 234 -173 271 -40 13 -79 32 -92 46 -13 14 -54 37 -90 51 -82 32 -155
84 -177 127 -24 47 -171 191 -221 217 -27 14 -61 21 -95 21 -47 0 -59 4 -101
39 -55 46 -86 57 -177 65 -36 3 -112 19 -170 35 -134 39 -180 40 -256 1z"/>
<path d="M6904 6173 c-43 -101 -39 -172 19 -335 25 -69 53 -163 62 -209 20
-109 54 -161 70 -109 11 35 -6 111 -66 290 -71 214 -76 241 -55 313 18 60 21
117 7 117 -5 0 -22 -30 -37 -67z"/>
<path d="M8707 6028 c-9 -25 24 -67 101 -131 126 -104 260 -236 307 -302 24
-33 86 -132 138 -220 146 -245 237 -340 237 -246 0 27 -176 347 -261 474 -52
77 -337 364 -403 406 -51 32 -111 41 -119 19z"/>
<path d="M7148 5505 c-14 -14 6 -36 68 -75 77 -49 130 -116 204 -262 69 -134
86 -158 115 -158 118 0 -75 364 -245 462 -45 26 -129 46 -142 33z"/>
<path d="M6825 5398 c-58 -23 -350 -88 -394 -88 -16 0 -58 6 -93 14 -108 24
-941 41 -1298 27 -380 -15 -514 -38 -678 -119 -147 -73 -249 -173 -419 -410
-129 -180 -183 -294 -183 -383 0 -58 15 -54 35 9 38 122 77 185 253 410 213
272 390 367 733 392 185 14 862 14 1089 0 459 -27 600 -25 841 16 102 17 141
29 191 61 49 30 63 56 42 77 -20 21 -57 19 -119 -6z"/>
<path d="M4813 5084 c-94 -159 -116 -175 -323 -235 -248 -71 -275 -94 -382
-316 -93 -191 -101 -256 -29 -219 45 24 80 73 133 186 75 161 115 193 325 269
60 21 131 50 158 64 97 49 166 147 169 239 1 68 -16 72 -51 12z"/>
<path d="M6240 5100 c-6 -10 -15 -91 -22 -180 -15 -226 -13 -235 119 -444 133
-211 205 -350 278 -536 99 -253 207 -444 297 -527 37 -33 58 -44 107 -54 43
-8 65 -18 72 -32 6 -10 19 -66 30 -123 10 -57 23 -114 30 -125 27 -51 181 -82
291 -60 39 9 71 23 99 47 22 19 43 34 45 34 3 0 21 -7 42 -15 44 -19 71 -14
126 24 23 16 66 41 96 56 30 15 98 56 150 90 52 34 117 75 143 90 35 19 66 50
108 108 68 93 104 125 241 208 96 60 121 85 93 95 -25 10 -66 -5 -170 -64 -93
-52 -161 -110 -236 -200 -15 -18 -32 -32 -38 -32 -13 0 -32 65 -72 250 -39
184 -46 245 -28 266 37 45 189 97 284 98 116 1 171 -43 246 -198 41 -84 77
-122 131 -136 91 -25 190 19 239 106 17 29 36 57 42 61 7 4 44 8 82 8 83 1 95
7 262 118 88 60 126 91 138 116 14 29 19 32 43 26 101 -26 172 -36 282 -42
106 -5 131 -3 157 11 71 36 69 107 -6 260 -114 233 -254 428 -295 413 -29 -11
-13 -50 80 -188 77 -116 151 -255 185 -351 20 -58 8 -64 -119 -60 -200 6 -233
21 -273 121 -12 31 -41 94 -65 141 -46 94 -74 178 -74 224 0 44 38 115 74 137
17 10 47 19 66 19 19 0 45 3 58 6 34 10 25 45 -18 68 -30 15 -41 17 -76 7 -87
-23 -161 -101 -185 -193 -12 -43 -10 -53 14 -126 15 -44 27 -85 27 -92 0 -21
-56 22 -89 67 -17 24 -42 46 -57 49 -53 14 -194 -49 -258 -115 -21 -21 -52
-67 -69 -102 l-32 -64 -120 -6 c-177 -8 -220 -33 -234 -134 -4 -31 -14 -61
-22 -66 -8 -5 -59 -9 -114 -9 -207 0 -381 -80 -400 -183 -4 -21 9 -126 34
-277 50 -295 51 -327 14 -362 -39 -37 -296 -160 -317 -152 -17 6 -36 63 -57
169 -6 33 -22 102 -35 154 -28 111 -31 199 -7 248 26 55 130 116 219 128 73
10 84 15 84 35 0 32 -44 53 -96 47 -99 -11 -270 -129 -295 -204 -9 -28 -9 -58
1 -140 7 -57 10 -106 7 -110 -4 -3 -16 2 -27 12 -19 18 -20 17 -20 -5 0 -13
18 -79 40 -146 37 -115 49 -190 34 -229 -13 -32 -59 -45 -163 -45 -162 0 -174
11 -196 181 -9 63 -18 135 -21 162 -9 64 8 81 115 113 93 28 161 66 161 89 0
25 -53 18 -148 -19 -48 -18 -103 -39 -123 -45 -41 -13 -63 -34 -78 -74 -6 -15
-17 -27 -25 -27 -19 0 -63 47 -130 140 -81 112 -115 178 -185 355 -86 218
-166 372 -269 518 -172 241 -172 242 -172 438 0 167 -19 237 -50 179z m2987
-562 c43 -26 87 -82 133 -173 71 -136 65 -179 -35 -250 -114 -82 -177 -115
-216 -115 -44 0 -50 7 -79 90 -13 36 -40 104 -61 151 -48 106 -50 148 -10 211
35 55 80 88 140 104 52 14 82 10 128 -18z m-383 -250 c13 -18 36 -69 51 -112
15 -44 35 -101 46 -128 30 -78 26 -99 -30 -146 -79 -67 -116 -85 -158 -79 -67
11 -105 63 -169 227 -49 128 -48 182 4 216 36 24 137 52 189 53 36 1 45 -4 67
-31z"/>
<path d="M10405 5113 c-11 -3 -65 -26 -120 -52 l-100 -46 -120 0 c-131 0 -164
-10 -204 -61 -32 -41 -26 -88 34 -272 30 -92 65 -208 79 -258 51 -194 76 -220
205 -212 48 3 119 18 191 41 121 37 247 57 367 57 39 0 84 5 99 10 l28 11 -23
22 c-21 21 -29 22 -156 19 -81 -2 -142 1 -154 7 -22 12 -35 48 -51 141 -17 94
-103 256 -185 349 -79 88 -81 106 -13 139 72 36 148 40 209 12 45 -22 51 -22
65 -8 14 14 14 18 0 45 -24 48 -88 71 -151 56z m-287 -199 c83 -57 149 -128
214 -232 61 -96 92 -174 103 -259 6 -44 4 -54 -14 -72 -11 -11 -37 -23 -58
-26 -21 -4 -64 -13 -96 -21 -32 -8 -78 -14 -102 -14 -58 0 -74 23 -119 176
-32 110 -99 311 -125 377 -18 46 -13 74 17 97 41 33 107 24 180 -26z"/>
<path d="M5588 4918 c-49 -31 -75 -67 -87 -119 -11 -50 -4 -92 33 -191 52
-139 74 -285 56 -375 -7 -32 -27 -87 -45 -123 -18 -36 -54 -123 -80 -195 -64
-176 -108 -256 -167 -310 -66 -59 -143 -88 -238 -89 -96 -1 -148 23 -285 135
-55 45 -145 115 -200 157 -55 41 -136 112 -180 158 -90 93 -77 87 -337 149
-193 45 -269 53 -303 31 -14 -9 -25 -22 -25 -29 0 -23 43 -54 95 -70 73 -22
87 -25 235 -42 210 -24 236 -36 336 -157 89 -108 197 -211 321 -308 115 -92
185 -127 279 -142 135 -23 296 34 408 145 76 75 112 146 157 312 17 66 43 142
57 170 53 108 72 172 72 253 0 130 -34 282 -79 356 -48 77 -45 170 5 202 36
24 127 15 197 -20 125 -61 200 -156 350 -446 l85 -165 11 -120 c16 -169 86
-399 211 -691 29 -65 77 -180 107 -254 73 -179 87 -201 209 -331 57 -61 151
-173 209 -249 57 -76 123 -152 146 -169 62 -45 168 -86 341 -131 231 -60 296
-70 498 -80 126 -6 199 -14 230 -25 77 -27 210 -46 275 -39 79 9 127 27 200
74 52 34 72 41 146 49 73 8 103 18 201 65 100 49 134 60 288 92 96 19 189 42
207 50 44 21 63 74 63 174 0 163 -32 229 -121 250 -94 23 -274 -13 -425 -84
-65 -31 -161 -103 -150 -113 2 -2 41 16 87 40 126 67 308 117 426 117 88 0
119 -65 111 -235 -4 -85 2 -81 -186 -124 -74 -17 -170 -46 -215 -65 -123 -52
-190 -76 -214 -76 -25 0 -29 15 -38 135 -9 124 -13 138 -37 131 -12 -2 -38 4
-59 15 -76 38 -213 18 -375 -55 -110 -50 -141 -55 -200 -30 -22 9 -91 32 -154
51 -141 42 -242 47 -305 15 -57 -28 -122 -89 -180 -166 -28 -38 -60 -69 -74
-73 -34 -8 -121 14 -193 50 -74 36 -214 172 -378 366 -187 219 -204 248 -348
581 -108 252 -124 299 -191 565 -32 127 -75 273 -96 325 -54 136 -200 425
-250 496 -80 112 -214 193 -335 201 -55 4 -71 1 -102 -19z m2383 -2399 c137
-42 188 -63 201 -83 4 -6 8 -48 8 -93 0 -102 -8 -108 -114 -99 -39 3 -136 10
-216 15 -149 10 -216 26 -234 53 -14 23 17 88 77 163 53 66 78 84 118 85 15 0
87 -18 160 -41z m753 30 c31 -14 53 -68 65 -159 10 -73 0 -94 -49 -105 -15 -3
-63 -27 -106 -53 l-79 -47 -118 -4 c-143 -4 -160 3 -176 79 -15 68 -14 132 2
153 6 9 44 28 82 42 267 101 329 116 379 94z"/>
<path d="M1387 3753 c-37 -36 96 -152 509 -446 67 -47 136 -104 153 -126 17
-22 52 -83 76 -136 52 -111 139 -243 221 -333 44 -49 62 -62 85 -62 53 0 42
28 -76 185 -57 75 -104 153 -148 246 -79 163 -107 192 -326 336 -80 52 -199
138 -263 189 -110 88 -204 154 -218 154 -4 0 -10 -3 -13 -7z"/>
<path d="M11968 3499 c-27 -15 -22 -28 17 -45 19 -8 41 -24 49 -37 8 -12 24
-87 36 -167 12 -80 26 -164 32 -187 12 -50 47 -86 80 -81 36 5 36 76 -1 207
-32 111 -38 151 -22 151 12 0 48 -86 66 -157 24 -96 38 -272 23 -290 -27 -33
-196 13 -255 69 -20 19 -23 32 -23 96 0 114 -62 331 -100 352 -13 7 -40 5 -89
-7 -66 -16 -74 -16 -122 0 -47 14 -55 15 -91 0 -36 -15 -42 -14 -94 6 -103 39
-216 19 -262 -47 -34 -47 -27 -52 39 -26 186 72 216 35 199 -243 -13 -217 -44
-267 -166 -265 -73 1 -126 21 -148 54 -9 14 -20 66 -26 121 -11 104 -26 152
-56 179 -29 24 -98 40 -182 39 -67 0 -85 -5 -158 -40 -77 -38 -86 -40 -146
-35 -50 5 -91 0 -197 -25 -74 -17 -153 -40 -175 -51 -40 -20 -83 -66 -73 -77
3 -3 34 4 69 15 69 23 306 82 326 82 6 0 21 -9 32 -20 18 -18 20 -33 20 -152
0 -171 -7 -194 -77 -258 -69 -63 -111 -85 -190 -99 -77 -14 -140 -5 -158 23
-7 11 -21 86 -29 166 -19 174 -42 233 -105 268 -71 40 -219 25 -316 -33 -74
-43 -86 -77 -71 -195 5 -30 3 -88 -3 -130 -12 -91 -3 -117 54 -144 36 -18 64
-20 335 -20 327 -1 377 6 442 63 92 80 96 81 263 81 170 0 191 5 350 81 86 41
95 43 185 44 90 1 98 3 161 38 36 20 73 37 81 37 8 0 50 18 93 40 70 35 85 39
125 34 37 -5 56 -1 90 16 58 30 96 23 240 -40 205 -90 203 -88 220 -186 6 -32
26 -93 45 -134 32 -70 37 -91 55 -270 30 -293 48 -424 75 -540 36 -156 146
-496 209 -650 52 -127 66 -189 48 -216 -35 -54 -434 -128 -765 -143 l-168 -8
-127 -64 -126 -64 -695 -6 -696 -6 -140 -30 c-77 -17 -192 -36 -255 -43 -141
-14 -642 -14 -1178 0 -632 17 -787 2 -1168 -110 -72 -21 -214 -55 -315 -75
-101 -20 -256 -55 -344 -77 -149 -37 -175 -41 -365 -49 -113 -5 -217 -6 -232
-3 -28 6 -157 -10 -219 -26 -20 -6 -63 -28 -95 -50 -33 -22 -65 -40 -73 -40
-45 0 -482 293 -560 375 -29 30 -63 79 -76 107 -46 101 -78 354 -94 733 -10
216 -12 238 -46 365 -75 281 -121 400 -273 700 -79 157 -160 311 -178 342 -45
74 -131 152 -190 172 -58 20 -143 21 -187 2 -66 -27 -135 -138 -107 -171 21
-25 44 -17 95 35 82 84 130 86 222 13 86 -69 190 -248 352 -605 196 -434 213
-497 251 -933 21 -242 79 -635 106 -720 38 -120 99 -183 270 -284 60 -35 143
-88 185 -117 97 -68 194 -114 239 -114 40 0 66 15 125 71 58 55 104 71 220 77
84 4 114 1 180 -18 128 -36 199 -31 495 34 366 81 493 112 683 162 345 93 401
96 1357 88 831 -7 946 -3 1201 42 139 25 164 26 709 34 331 5 597 13 642 19
74 11 226 47 388 91 41 11 152 30 245 41 94 11 211 31 260 44 50 13 146 31
215 40 260 34 350 92 337 219 -3 29 -49 173 -102 321 -194 542 -199 561 -275
1150 -90 702 -118 837 -201 967 -25 38 -41 51 -84 67 -29 11 -68 29 -86 40
-38 23 -56 25 -81 10z m-331 -171 c33 -37 46 -96 47 -215 1 -127 -10 -153 -79
-187 -38 -19 -38 -19 -55 2 -14 17 -18 51 -22 189 -7 201 1 233 55 233 22 0
40 -8 54 -22z m180 -1 c10 -14 31 -81 47 -156 33 -151 29 -181 -23 -181 -39 0
-49 15 -66 101 -8 41 -19 92 -25 114 -14 57 -13 132 3 138 26 11 46 6 64 -16z
m-852 -181 c58 -25 65 -47 68 -204 2 -135 1 -141 -21 -165 -36 -39 -110 -65
-215 -78 -105 -12 -133 -5 -141 34 -3 12 -7 99 -10 193 -6 194 -5 197 64 219
60 18 211 19 255 1z m-973 -196 c17 -18 28 -44 32 -72 3 -24 10 -81 15 -128
25 -198 24 -200 -164 -200 -153 0 -171 4 -189 39 -19 37 -49 227 -43 268 11
65 58 98 171 119 96 18 144 11 178 -26z"/>
<path d="M1838 2694 c-16 -25 32 -116 146 -277 134 -188 148 -193 579 -182
245 6 304 4 365 -9 79 -16 194 -69 372 -171 141 -81 199 -99 294 -93 99 7 172
44 261 134 51 51 82 93 113 155 68 136 86 235 56 307 -14 34 -16 36 -29 19 -7
-10 -16 -47 -20 -84 -21 -193 -121 -355 -263 -425 -57 -28 -75 -32 -140 -32
-72 1 -79 3 -191 63 -383 203 -424 217 -641 207 -385 -17 -486 -18 -527 -7
-68 19 -121 68 -210 196 -96 139 -157 213 -165 199z"/>
</g>
</svg>
