<?xml version="1.0" standalone="no"?>
<!DOCTYPE svg PUBLIC "-//W3C//DTD SVG 20010904//EN"
 "http://www.w3.org/TR/2001/REC-SVG-20010904/DTD/svg10.dtd">
<svg version="1.0" xmlns="http://www.w3.org/2000/svg"
 width="1280.000000pt" height="1210.000000pt" viewBox="0 0 1280.000000 1210.000000"
 preserveAspectRatio="xMidYMid meet">
<metadata>
Created by potrace 1.15, written by Peter Selinger 2001-2017
</metadata>
<g transform="translate(0.000000,1210.000000) scale(0.100000,-0.100000)"
fill="#000000" stroke="none">
<path d="M765 12094 c-221 -32 -337 -64 -450 -122 -80 -42 -151 -108 -161
-149 -11 -45 -34 -86 -68 -119 -80 -78 -109 -332 -61 -534 14 -58 30 -151 35
-208 6 -56 20 -128 32 -159 11 -31 74 -137 140 -235 129 -193 259 -338 373
-415 33 -23 76 -58 96 -80 30 -32 196 -234 317 -386 51 -64 130 -195 226 -376
95 -179 143 -259 187 -309 27 -31 28 -34 13 -57 -8 -13 -20 -57 -26 -97 -5
-40 -25 -118 -45 -173 -66 -192 -77 -243 -64 -306 6 -30 11 -132 11 -227 0
-119 5 -188 15 -228 8 -32 19 -141 24 -244 14 -253 11 -246 189 -523 125 -196
211 -351 212 -380 0 -37 68 -115 355 -411 347 -358 389 -397 497 -469 206
-136 383 -191 613 -190 161 0 247 22 383 93 163 86 260 162 607 475 423 382
567 496 1035 821 118 83 328 229 465 325 300 210 285 201 262 166 -9 -15 -20
-47 -23 -71 -8 -52 13 -95 94 -192 27 -33 64 -81 82 -108 19 -28 35 -45 38
-38 4 13 -40 77 -115 169 -63 78 -87 132 -79 175 8 41 27 61 81 84 l40 16 -21
-23 c-54 -60 -57 -105 -11 -176 45 -73 169 -234 175 -228 6 6 -38 73 -98 150
-126 160 -122 189 39 292 92 59 169 118 321 248 113 95 136 114 127 99 -4 -6
-18 -58 -33 -115 -41 -159 -38 -244 13 -389 52 -150 70 -181 147 -265 79 -85
98 -82 24 4 -83 97 -94 115 -128 209 -79 217 -79 308 -3 522 33 95 53 123 109
156 65 38 128 31 209 -22 53 -35 65 -48 103 -124 77 -155 96 -227 97 -372 0
-71 3 -128 7 -128 13 0 21 93 15 169 -9 103 -33 184 -97 323 l-54 117 -81 45
c-45 25 -89 46 -98 46 -22 0 -22 1 11 60 l27 50 100 0 c132 0 262 -16 292 -35
34 -23 43 -54 54 -190 30 -380 49 -519 76 -552 13 -17 14 -16 8 7 -19 77 -35
192 -45 325 -27 377 -34 405 -102 435 -37 16 -236 40 -335 40 -13 0 -23 6 -23
13 0 23 31 43 115 77 44 18 85 34 91 37 6 2 14 -7 18 -21 9 -36 62 -94 107
-117 64 -32 124 -24 176 23 l21 20 41 -128 c22 -71 78 -255 126 -408 47 -154
93 -295 102 -315 28 -66 25 -13 -5 76 -17 48 -65 201 -107 338 -42 138 -92
298 -111 357 -33 101 -34 108 -20 137 33 63 8 165 -64 261 -26 35 -40 64 -40
84 0 39 37 119 82 178 l35 46 -4 138 c-5 150 -19 198 -68 230 -14 9 -25 26
-25 38 0 32 101 231 169 333 205 306 476 471 1000 609 358 94 521 147 521 170
0 21 -12 18 -190 -40 -91 -30 -259 -84 -375 -121 -447 -143 -624 -235 -811
-423 -134 -136 -222 -273 -328 -514 -31 -73 -55 -81 -120 -43 -25 15 -46 33
-46 41 0 8 21 71 46 141 166 457 405 876 644 1127 168 177 386 323 628 421 68
28 92 42 90 54 -6 29 -58 14 -193 -54 -504 -254 -879 -742 -1176 -1530 -33
-88 -67 -166 -74 -174 -16 -17 -113 -58 -180 -77 -59 -17 -77 -14 -211 31 -86
29 -114 34 -190 34 -96 -1 -186 21 -277 67 -26 14 -87 64 -135 112 -170 171
-724 594 -1092 834 -280 183 -427 256 -535 269 -39 4 -97 17 -129 29 -65 25
-123 70 -112 88 9 15 63 15 105 1 18 -6 34 -9 37 -6 7 6 -266 183 -476 309
-550 329 -951 509 -1655 743 -289 96 -403 129 -490 140 -43 6 -57 3 -100 -20
-60 -33 -101 -46 -121 -38 -23 9 -16 21 15 28 16 3 35 13 41 21 43 51 -86 97
-420 149 -155 24 -412 40 -485 29z m6440 -3392 c152 -53 273 -197 247 -294
l-9 -33 -15 30 c-9 17 -28 41 -42 54 -14 14 -26 31 -26 39 0 27 -57 72 -92 72
-58 0 -128 -61 -128 -112 0 -8 -34 -25 -82 -42 -46 -15 -89 -30 -96 -33 -11
-4 -12 -1 -3 15 6 11 17 59 26 107 16 95 42 162 74 194 26 26 77 27 146 3z
m109 -173 c35 -28 33 -42 -6 -37 -19 3 -49 -3 -75 -14 -63 -28 -78 -22 -53 20
33 53 89 66 134 31z m26 -67 c0 -5 -9 -17 -21 -28 -22 -19 -48 -12 -58 17 -3
12 -1 12 14 -1 16 -13 19 -13 29 3 11 17 36 24 36 9z m-85 -38 c30 -30 69 -27
96 8 16 21 17 21 48 -22 17 -24 31 -49 31 -56 0 -7 -14 -24 -31 -38 -75 -64
-221 -5 -231 93 -2 19 3 26 22 32 38 11 37 11 65 -17z"/>
<path d="M8001 6783 c-6 -21 -29 -114 -51 -208 -96 -398 -172 -612 -304 -844
-113 -200 -292 -404 -365 -417 -20 -4 -52 -15 -71 -24 -20 -10 -57 -21 -82
-25 -36 -5 -56 -16 -87 -47 -26 -25 -47 -38 -58 -35 -10 3 -45 8 -78 12 -129
15 -399 107 -635 218 -52 24 -189 94 -303 156 -114 61 -212 111 -217 111 -66
0 215 -153 560 -305 157 -70 293 -119 519 -186 43 -13 88 -35 106 -51 28 -24
33 -36 39 -92 10 -96 29 -149 75 -203 52 -63 59 -97 31 -153 -30 -59 -96 -128
-130 -135 -71 -16 -363 -251 -612 -493 -98 -96 -229 -239 -341 -375 -100 -120
-184 -223 -185 -228 -2 -5 3 -6 12 -3 12 5 16 0 16 -20 0 -35 -31 -93 -70
-133 -27 -27 -34 -30 -50 -21 -26 16 -42 0 -139 -136 -43 -61 -105 -145 -139
-186 -156 -195 -435 -726 -539 -1025 -19 -55 -68 -179 -109 -276 -41 -97 -74
-183 -74 -190 0 -7 -20 -96 -44 -198 -67 -278 -80 -383 -81 -616 0 -179 2
-207 22 -270 42 -134 111 -214 259 -301 51 -30 94 -61 98 -69 10 -28 44 -19
149 42 11 6 35 9 54 6 27 -5 38 -1 54 16 14 15 27 20 38 15 32 -13 121 -16
150 -5 15 7 38 25 50 42 20 26 26 28 61 23 36 -6 40 -4 49 19 13 33 48 57 86
57 46 0 90 29 143 95 32 40 59 64 82 71 25 8 42 23 58 53 22 39 26 41 72 41
42 0 56 6 110 48 118 90 155 113 224 133 50 15 80 31 109 60 47 44 74 49 123
19 29 -19 37 -19 81 -9 26 7 80 28 118 47 92 47 155 49 235 8 79 -41 119 -74
140 -116 19 -36 82 -100 100 -100 5 0 13 7 18 16 15 27 161 15 232 -18 39 -18
80 -27 137 -31 91 -7 167 -34 204 -73 12 -13 28 -24 34 -24 6 0 42 19 81 42
74 45 167 78 218 78 17 0 49 10 71 22 36 20 54 23 180 23 132 0 140 1 143 20
10 50 93 95 177 95 l55 0 0 34 c0 40 12 52 68 65 28 6 55 22 77 44 47 49 89
57 120 23 28 -30 55 -25 55 9 0 26 14 40 52 49 35 8 101 85 139 162 32 64 39
118 24 184 -7 31 -9 33 -17 15 -6 -16 -7 -14 -3 8 7 35 -49 163 -136 314 -94
161 -155 282 -172 341 -9 28 -14 52 -12 52 3 0 23 -26 47 -57 84 -115 329
-393 373 -423 66 -45 124 -69 211 -85 106 -21 149 -19 172 5 23 25 120 60 165
60 21 0 51 12 82 32 108 73 119 78 165 75 42 -2 46 0 59 31 14 31 17 33 63 31
26 -2 49 -1 50 2 2 2 8 13 14 24 14 25 88 62 142 71 37 6 44 10 49 35 7 38 81
105 131 118 58 16 94 67 105 149 4 34 16 54 54 95 30 32 56 72 67 102 35 98
46 114 90 125 59 15 133 50 153 73 15 15 18 38 18 121 0 94 3 106 34 170 26
54 36 89 42 155 5 47 20 124 34 171 35 114 44 209 22 225 -38 27 -59 173 -36
241 8 23 14 89 14 164 3 231 74 430 154 430 24 0 64 46 96 110 43 86 86 140
130 162 21 11 65 46 95 78 43 42 68 60 102 68 46 12 61 26 162 147 39 46 39
47 94 43 54 -3 54 -3 66 32 10 31 16 36 66 47 56 12 69 22 113 93 15 23 32 36
49 38 32 4 39 13 62 75 12 32 26 51 42 57 26 10 43 40 69 118 9 30 31 69 47
88 17 20 28 40 24 49 -9 23 3 43 40 66 56 34 79 96 50 128 -8 9 -29 68 -46
131 -17 63 -43 136 -58 163 -76 141 -250 229 -662 335 -258 67 -257 67 -765
67 -475 -1 -563 -6 -835 -51 -142 -24 -368 -77 -515 -122 -760 -233 -876 -274
-1140 -401 -231 -111 -804 -438 -985 -562 -47 -32 -97 -61 -113 -65 -59 -14
-180 73 -230 165 -9 18 -31 38 -47 44 -51 19 -40 48 57 150 108 114 186 231
273 412 132 272 218 531 289 870 24 114 24 115 11 115 -5 0 -14 -17 -19 -37z"/>
</g>
</svg>
