<?xml version="1.0" standalone="no"?>
<!DOCTYPE svg PUBLIC "-//W3C//DTD SVG 20010904//EN"
 "http://www.w3.org/TR/2001/REC-SVG-20010904/DTD/svg10.dtd">
<svg version="1.0" xmlns="http://www.w3.org/2000/svg"
 width="1280.000000pt" height="1280.000000pt" viewBox="0 0 1280.000000 1280.000000"
 preserveAspectRatio="xMidYMid meet">
<metadata>
Created by potrace 1.15, written by Peter Selinger 2001-2017
</metadata>
<g transform="translate(0.000000,1280.000000) scale(0.100000,-0.100000)"
fill="#000000" stroke="none">
<path d="M6280 12794 c-702 -48 -1325 -212 -1921 -505 -253 -125 -325 -166
-549 -315 -519 -344 -930 -759 -1245 -1254 -149 -235 -299 -554 -369 -782 -50
-165 -81 -358 -58 -358 10 0 13 6 109 225 382 875 984 1564 1793 2053 603 365
1273 592 2005 679 215 25 798 25 1005 0 443 -55 807 -146 1185 -294 1189 -467
2008 -1373 2294 -2538 50 -203 60 -230 75 -215 19 19 10 269 -13 404 -108 617
-420 1195 -906 1681 -410 411 -925 728 -1537 949 -331 119 -687 201 -1078 247
-168 19 -640 33 -790 23z"/>
<path d="M4390 9970 c-360 -50 -665 -190 -894 -410 -241 -230 -366 -506 -366
-805 0 -201 72 -408 175 -505 l25 -24 203 12 c401 24 685 15 1042 -35 239 -34
537 -39 647 -10 469 119 754 512 674 929 -77 403 -444 719 -961 828 -114 24
-432 36 -545 20z m432 -240 c352 -60 622 -239 751 -496 56 -112 74 -285 42
-409 -53 -201 -241 -375 -472 -436 -95 -26 -294 -29 -503 -8 -196 19 -623 17
-785 -4 -211 -28 -395 -69 -483 -107 -31 -14 -44 -16 -46 -7 -12 40 -38 184
-46 257 -13 108 2 259 36 378 124 432 512 749 1024 837 119 21 349 18 482 -5z"/>
<path d="M4493 9270 c-241 -34 -426 -130 -487 -252 -85 -170 60 -336 360 -414
192 -50 473 -42 647 17 89 31 186 82 234 123 51 45 93 126 93 181 0 143 -171
274 -435 331 -83 18 -324 26 -412 14z"/>
<path d="M8026 9970 c-461 -58 -848 -301 -1010 -635 -65 -134 -80 -198 -80
-345 -1 -151 14 -216 81 -350 40 -80 63 -110 143 -191 145 -146 304 -229 514
-265 116 -21 361 -14 561 16 340 50 677 62 1074 38 l204 -12 39 44 c46 52 112
182 133 265 23 87 30 266 15 366 -79 520 -541 940 -1158 1055 -101 18 -412 27
-516 14z m534 -245 c273 -60 506 -182 680 -355 188 -188 296 -410 319 -662 13
-133 3 -233 -44 -435 l-5 -22 -43 19 c-87 38 -272 79 -482 106 -163 22 -591
24 -785 5 -208 -21 -408 -18 -503 8 -226 60 -406 222 -468 421 -39 125 -23
302 37 423 138 274 423 452 819 511 71 10 402 -3 475 -19z"/>
<path d="M7985 9273 c-253 -30 -457 -130 -519 -254 -120 -242 228 -463 704
-446 361 13 629 163 630 353 0 54 -42 135 -93 180 -52 46 -201 117 -288 138
-126 31 -314 44 -434 29z"/>
<path d="M857 8924 c-406 -73 -718 -361 -823 -759 -24 -89 -27 -120 -28 -275
-2 -342 58 -545 362 -1230 372 -837 841 -1721 1173 -2210 90 -133 151 -210
166 -210 25 0 -34 145 -217 535 -702 1493 -1098 2438 -1182 2815 -19 89 -23
132 -22 280 0 161 2 182 27 263 72 235 213 406 410 501 118 57 184 71 332 70
120 0 137 -3 227 -33 283 -97 494 -323 598 -641 55 -167 79 -327 105 -675 32
-445 70 -658 166 -931 69 -197 199 -425 199 -349 0 9 -18 89 -39 178 -96 396
-110 513 -121 1027 -11 505 -28 658 -100 871 -95 285 -294 526 -543 659 -208
111 -469 154 -690 114z"/>
<path d="M11585 8925 c-233 -44 -421 -142 -585 -305 -211 -210 -328 -477 -370
-845 -6 -55 -15 -275 -20 -490 -11 -501 -29 -653 -121 -1032 -21 -89 -39 -169
-39 -178 0 -78 124 140 200 353 99 277 129 457 176 1047 26 328 66 516 149
692 119 252 302 422 543 504 90 30 107 33 227 33 148 1 214 -13 332 -70 198
-95 340 -269 409 -501 21 -70 27 -117 31 -225 11 -271 -49 -488 -296 -1092
-243 -592 -462 -1085 -876 -1966 -86 -184 -177 -382 -202 -440 -42 -98 -63
-170 -50 -170 28 0 246 319 414 605 312 529 641 1175 925 1815 304 685 364
888 362 1230 -1 155 -4 186 -28 275 -60 228 -192 427 -376 567 -90 69 -246
143 -365 174 -127 33 -320 41 -440 19z"/>
<path d="M5830 7954 c-370 -46 -692 -197 -931 -435 -152 -153 -273 -358 -325
-554 -23 -86 -27 -121 -28 -255 -1 -163 7 -217 50 -355 182 -573 820 -969
1514 -941 299 12 580 99 813 253 114 76 237 200 237 240 0 21 -14 16 -107 -38
-196 -117 -398 -198 -597 -241 -86 -19 -132 -22 -311 -22 -180 0 -225 3 -312
22 -513 112 -873 424 -985 855 -18 67 -22 110 -22 232 1 134 3 160 28 240 56
186 138 320 285 466 338 334 830 463 1409 369 74 -12 136 -19 139 -16 19 18
-82 77 -199 115 -141 47 -244 62 -438 66 -102 2 -201 1 -220 -1z"/>
<path d="M1065 7736 c-131 -42 -222 -120 -281 -241 -62 -127 -65 -282 -7 -452
104 -310 452 -934 625 -1118 58 -62 80 -76 92 -56 14 22 -47 196 -223 639
-246 620 -270 693 -258 794 7 57 39 133 70 166 83 89 232 80 321 -19 74 -81
93 -143 145 -481 12 -75 33 -159 51 -206 37 -96 98 -187 125 -187 18 0 20 6
18 50 -2 28 -4 187 -6 355 -2 193 -8 327 -16 365 -42 197 -197 362 -381 404
-78 18 -198 13 -275 -13z"/>
<path d="M11461 7744 c-171 -46 -306 -188 -357 -375 -15 -53 -18 -118 -21
-374 -2 -170 -5 -335 -6 -365 -2 -48 0 -55 17 -55 13 0 35 22 62 62 60 88 99
218 129 427 37 258 63 328 152 405 55 49 100 65 169 59 77 -7 130 -45 169
-123 26 -53 30 -70 29 -140 -2 -107 -26 -178 -244 -726 -98 -245 -193 -491
-210 -547 -48 -150 -29 -171 64 -72 117 127 280 387 436 695 194 385 235 509
228 690 -4 98 -8 118 -36 178 -57 124 -173 220 -311 261 -67 20 -197 20 -270
0z"/>
<path d="M9528 5363 c-14 -21 -73 -110 -131 -198 -472 -715 -1129 -1180 -1987
-1404 -295 -78 -588 -114 -925 -114 -341 -1 -619 33 -930 113 -617 160 -1119
438 -1549 859 -160 157 -224 232 -396 459 -69 91 -129 164 -135 163 -24 -5 5
-110 65 -236 92 -192 246 -408 423 -591 507 -528 1211 -864 2047 -980 155 -21
620 -30 787 -15 1084 98 1997 593 2516 1364 123 183 242 445 261 575 8 55 -12
57 -46 5z"/>
<path d="M2114 4378 c-57 -62 -141 -281 -187 -488 -140 -626 -48 -1310 259
-1922 96 -191 242 -417 390 -603 121 -152 402 -430 564 -559 411 -327 899
-580 1392 -722 282 -81 572 -113 450 -50 -15 8 -102 44 -192 81 -758 308
-1244 610 -1685 1050 -483 481 -812 1062 -950 1680 -59 266 -69 363 -69 710
-1 314 3 372 40 640 9 61 14 132 12 158 l-3 49 -21 -24z"/>
<path d="M10624 4386 c-3 -8 1 -73 11 -143 37 -288 45 -377 51 -573 13 -397
-41 -773 -161 -1135 -268 -804 -856 -1506 -1675 -1997 -248 -149 -506 -275
-860 -418 -183 -74 -230 -96 -230 -112 0 -25 239 11 445 69 392 109 772 283
1130 518 798 524 1351 1311 1515 2155 62 321 68 704 15 1015 -43 250 -151 562
-216 621 -17 15 -19 15 -25 0z"/>
<path d="M7512 1238 c-5 -7 -30 -53 -55 -103 -200 -400 -505 -635 -947 -731
-133 -29 -430 -27 -569 4 -269 60 -473 166 -652 339 -107 103 -166 180 -258
339 -77 133 -99 148 -113 79 -19 -92 37 -283 124 -426 66 -107 234 -278 343
-349 547 -355 1299 -325 1798 72 47 37 110 96 140 130 179 204 277 476 231
641 -6 20 -27 22 -42 5z"/>
</g>
</svg>
