<?xml version="1.0" standalone="no"?>
<!DOCTYPE svg PUBLIC "-//W3C//DTD SVG 20010904//EN"
 "http://www.w3.org/TR/2001/REC-SVG-20010904/DTD/svg10.dtd">
<svg version="1.0" xmlns="http://www.w3.org/2000/svg"
 width="1280.000000pt" height="1276.000000pt" viewBox="0 0 1280.000000 1276.000000"
 preserveAspectRatio="xMidYMid meet">
<metadata>
Created by potrace 1.15, written by Peter Selinger 2001-2017
</metadata>
<g transform="translate(0.000000,1276.000000) scale(0.100000,-0.100000)"
fill="#000000" stroke="none">
<path d="M5350 12750 c-676 -70 -1268 -385 -1612 -858 -42 -57 -66 -81 -77
-78 -86 25 -317 38 -459 26 -599 -49 -1143 -382 -1495 -915 -127 -193 -252
-484 -296 -689 l-18 -81 -114 -23 c-722 -146 -1240 -735 -1276 -1452 -29 -599
308 -1168 852 -1435 190 -93 361 -144 537 -161 62 -6 68 -9 79 -37 28 -68 116
-187 198 -267 450 -446 1323 -576 2094 -314 128 44 292 118 408 185 l57 33 73
-56 c277 -208 633 -347 1059 -413 142 -22 522 -31 687 -16 576 53 1093 242
1521 557 22 16 27 16 110 -9 188 -57 337 -87 567 -118 221 -29 656 -32 892 -6
1082 120 1984 594 2349 1234 105 185 148 355 142 564 l-4 136 95 31 c206 68
439 193 594 320 249 204 399 435 469 722 8 34 13 111 12 205 -1 187 -27 295
-109 460 -144 289 -407 529 -760 691 l-105 48 0 38 c0 69 -21 142 -70 243
-166 343 -660 636 -1365 810 -616 152 -1367 196 -2044 120 -392 -45 -791 -132
-1069 -233 l-82 -31 -42 62 c-22 34 -95 116 -162 183 -270 268 -599 428 -1041
504 -137 24 -455 34 -595 20z"/>
<path d="M5568 5467 c-593 -298 -1077 -544 -1077 -547 0 -3 125 -85 277 -183
796 -511 1595 -1033 1595 -1042 0 -5 -135 -85 -299 -178 -165 -92 -305 -172
-312 -176 -9 -5 284 -197 878 -576 490 -312 888 -571 883 -575 -4 -4 -126 -68
-270 -142 l-263 -135 1506 -952 c829 -523 1508 -950 1509 -949 1 2 -391 552
-871 1223 -700 978 -871 1222 -859 1231 7 5 108 59 224 120 116 60 209 112
208 116 -1 3 -258 271 -572 595 -313 323 -621 640 -683 704 l-112 116 217 96
c124 54 217 100 215 107 -3 15 -1106 1690 -1112 1689 -3 0 -490 -244 -1082
-542z"/>
</g>
</svg>
