<?xml version="1.0" standalone="no"?>
<!DOCTYPE svg PUBLIC "-//W3C//DTD SVG 20010904//EN"
 "http://www.w3.org/TR/2001/REC-SVG-20010904/DTD/svg10.dtd">
<svg version="1.0" xmlns="http://www.w3.org/2000/svg"
 width="898.000000pt" height="1280.000000pt" viewBox="0 0 898.000000 1280.000000"
 preserveAspectRatio="xMidYMid meet">
<metadata>
Created by potrace 1.15, written by Peter Selinger 2001-2017
</metadata>
<g transform="translate(0.000000,1280.000000) scale(0.100000,-0.100000)"
fill="#000000" stroke="none">
<path d="M4465 12790 c-370 -43 -821 -202 -1400 -495 -425 -215 -699 -379
-896 -536 -126 -100 -267 -251 -312 -334 -21 -39 -69 -115 -107 -170 -119
-171 -231 -415 -294 -643 -67 -241 -87 -431 -85 -805 2 -388 -8 -424 -164
-595 -44 -48 -97 -110 -118 -138 -153 -201 -192 -598 -124 -1231 41 -372 141
-595 375 -840 143 -148 455 -420 604 -527 139 -99 364 -195 460 -196 16 0 29
-17 56 -72 93 -191 264 -448 434 -655 115 -138 336 -358 497 -495 l127 -107 6
-103 c9 -122 -8 -434 -29 -568 -27 -166 -74 -318 -136 -443 -130 -260 -428
-546 -722 -694 -257 -129 -490 -203 -1247 -398 -481 -124 -657 -185 -844 -293
-218 -125 -373 -306 -430 -502 -48 -162 -107 -1034 -110 -1605 l-1 -340 4465
0 4465 0 7 185 c4 102 11 239 17 305 19 212 25 578 12 775 -26 404 -83 643
-199 830 -57 93 -256 294 -364 368 -146 100 -214 124 -523 191 -811 176 -1525
395 -1779 548 -391 235 -701 684 -756 1095 -6 46 -21 243 -34 438 l-22 354 61
55 c299 270 579 610 746 903 24 43 48 78 53 78 5 0 34 24 65 53 255 239 342
324 347 339 3 10 10 18 15 18 10 0 31 16 52 38 7 7 20 21 30 30 9 9 17 22 17
30 0 7 4 10 10 7 10 -6 69 53 70 71 0 14 63 74 78 74 7 0 13 5 13 10 1 6 2 15
3 20 0 6 12 16 26 23 14 7 32 26 40 44 8 17 23 34 33 36 12 4 15 11 10 23 -4
12 -3 15 5 10 7 -4 15 0 19 11 4 10 16 28 27 40 48 52 62 69 73 93 6 14 23 37
37 52 14 15 26 30 26 33 0 3 15 26 34 52 95 134 223 371 270 501 70 195 95
362 103 672 7 304 -14 528 -73 765 -42 168 -46 179 -71 154 -9 -9 -14 0 -22
32 -47 187 -183 455 -341 669 -113 153 -191 338 -245 580 -55 245 -120 440
-147 440 -7 0 -29 37 -48 81 -24 56 -63 117 -123 193 -100 127 -148 218 -172
329 -9 42 -19 77 -22 77 -4 0 -15 -7 -25 -16 -23 -22 -21 -28 -53 191 -32 215
-45 268 -93 359 -76 144 -216 249 -375 282 -56 12 -80 23 -126 61 -31 25 -87
61 -126 79 -97 46 -257 87 -309 80 -23 -3 -90 1 -151 9 -135 19 -462 27 -570
15z"/>
</g>
</svg>
