<?xml version="1.0" standalone="no"?>
<!DOCTYPE svg PUBLIC "-//W3C//DTD SVG 20010904//EN"
 "http://www.w3.org/TR/2001/REC-SVG-20010904/DTD/svg10.dtd">
<svg version="1.0" xmlns="http://www.w3.org/2000/svg"
 width="1280.000000pt" height="1206.000000pt" viewBox="0 0 1280.000000 1206.000000"
 preserveAspectRatio="xMidYMid meet">
<metadata>
Created by potrace 1.15, written by Peter Selinger 2001-2017
</metadata>
<g transform="translate(0.000000,1206.000000) scale(0.100000,-0.100000)"
fill="#000000" stroke="none">
<path d="M9587 12002 c-11 -99 -28 -162 -53 -192 -26 -30 -94 -57 -219 -86
-38 -8 -77 -21 -85 -28 -8 -7 -76 -34 -150 -60 -164 -59 -354 -148 -441 -206
-142 -96 -438 -330 -520 -410 -98 -96 -186 -212 -314 -415 -49 -77 -139 -219
-200 -315 -112 -175 -333 -547 -375 -631 -12 -24 -24 -45 -25 -47 -2 -2 -17 4
-34 12 -69 36 -91 23 -228 -143 -54 -64 -139 -159 -191 -211 -113 -115 -128
-135 -232 -325 -95 -174 -107 -191 -206 -292 -42 -43 -84 -98 -98 -127 -32
-68 -56 -188 -56 -283 0 -67 3 -80 24 -102 l24 -26 -35 -90 c-141 -365 -252
-971 -253 -1378 0 -83 -3 -103 -20 -127 -11 -16 -38 -89 -60 -162 -38 -131
-77 -242 -120 -345 -19 -44 -26 -52 -49 -52 -91 0 -261 -21 -289 -35 -18 -9
-61 -42 -96 -74 -37 -34 -84 -65 -115 -77 -65 -25 -126 -74 -357 -292 l-181
-171 -44 9 c-24 5 -165 34 -314 65 -576 118 -745 157 -905 209 -91 30 -192 61
-225 69 -87 22 -263 46 -332 46 -33 0 -73 6 -89 14 -16 8 -74 27 -129 42 -94
25 -119 27 -390 34 -159 5 -301 11 -315 15 -28 7 -269 -60 -1255 -350 -330
-97 -608 -178 -617 -181 -17 -5 -18 -140 -18 -2645 l0 -2639 5014 0 5014 0 -8
33 c-16 62 -101 383 -141 532 -81 299 -108 376 -183 520 -116 222 -224 458
-257 558 -38 117 -196 758 -349 1417 -40 174 -38 168 -58 173 -13 3 -10 7 11
15 20 9 27 17 23 30 -3 9 54 254 127 545 l132 527 89 125 c136 192 239 295
784 783 155 140 193 170 198 155 21 -66 51 -134 73 -167 42 -64 72 -80 155
-84 141 -7 264 48 390 173 109 110 172 197 327 457 73 123 175 288 228 368
168 257 201 318 201 369 -1 91 -67 178 -155 203 -22 6 -42 13 -44 14 -2 2 109
119 246 261 539 557 578 610 714 950 27 70 88 207 135 303 121 254 128 285
128 555 -1 323 -57 798 -124 1067 -17 65 -30 131 -30 147 0 16 -11 59 -25 95
-14 37 -25 81 -25 99 0 25 -13 46 -60 99 -55 61 -60 70 -60 112 0 42 -5 52
-64 119 -35 41 -72 89 -81 108 -10 19 -35 55 -57 80 -28 33 -38 55 -38 80 0
31 -12 44 -141 159 -186 165 -190 170 -183 224 6 39 4 46 -17 59 -13 9 -42 19
-64 23 -71 12 -109 39 -174 123 -83 107 -88 112 -124 109 -25 -1 -56 14 -137
69 -179 120 -207 133 -283 133 -61 0 -67 2 -90 31 -24 31 -25 31 -213 55 -104
13 -192 24 -197 24 -4 0 -12 12 -18 26 l-10 27 -142 -7 c-78 -4 -183 -9 -233
-13 -85 -5 -91 -5 -96 14 -5 19 -15 21 -137 25 -95 3 -134 7 -140 17 -7 11
-15 11 -44 1 -19 -7 -42 -10 -51 -7 -9 4 -39 38 -67 77 -28 38 -57 70 -64 70
-7 0 -14 -22 -18 -58z"/>
</g>
</svg>
