<?xml version="1.0" standalone="no"?>
<!DOCTYPE svg PUBLIC "-//W3C//DTD SVG 20010904//EN"
 "http://www.w3.org/TR/2001/REC-SVG-20010904/DTD/svg10.dtd">
<svg version="1.0" xmlns="http://www.w3.org/2000/svg"
 width="676.000000pt" height="1280.000000pt" viewBox="0 0 676.000000 1280.000000"
 preserveAspectRatio="xMidYMid meet">
<metadata>
Created by potrace 1.15, written by Peter Selinger 2001-2017
</metadata>
<g transform="translate(0.000000,1280.000000) scale(0.100000,-0.100000)"
fill="#000000" stroke="none">
<path d="M1995 12759 c-55 -22 -130 -48 -167 -58 -37 -11 -87 -31 -111 -45
-25 -15 -72 -38 -106 -51 -34 -14 -87 -36 -120 -49 -32 -13 -83 -42 -112 -64
-30 -22 -70 -47 -89 -57 -68 -33 -219 -158 -290 -238 -58 -65 -87 -110 -146
-230 -41 -82 -74 -156 -74 -163 0 -8 -8 -27 -17 -41 -18 -27 -62 -189 -63
-228 0 -11 -12 -58 -25 -104 -14 -47 -25 -103 -25 -124 0 -22 -13 -100 -30
-174 -16 -73 -30 -153 -30 -177 0 -24 -7 -63 -15 -86 -8 -23 -15 -59 -15 -79
0 -20 -12 -86 -26 -146 -14 -61 -30 -148 -35 -195 -5 -47 -20 -123 -33 -170
-13 -47 -27 -117 -30 -157 -3 -39 -21 -124 -40 -190 -19 -65 -41 -155 -50
-199 -21 -111 -81 -294 -122 -372 -19 -35 -46 -102 -60 -150 -15 -48 -40 -105
-56 -126 -15 -22 -28 -44 -28 -50 0 -5 -18 -40 -41 -77 -22 -38 -38 -73 -34
-79 11 -17 93 -50 124 -50 14 0 60 -16 101 -36 82 -39 126 -51 245 -64 44 -5
109 -16 145 -25 167 -41 268 -39 369 6 35 16 65 29 67 29 11 0 0 -24 -30 -64
-33 -42 -75 -141 -99 -231 -5 -22 -25 -77 -44 -122 -19 -46 -49 -142 -68 -215
-18 -73 -38 -145 -44 -160 -5 -15 -13 -73 -16 -130 -4 -57 -11 -116 -17 -133
-6 -16 -16 -142 -22 -280 l-12 -250 40 -130 c24 -79 47 -135 58 -143 10 -7 31
-39 47 -70 40 -80 59 -100 121 -130 60 -30 59 -27 43 -123 -5 -31 -8 -125 -6
-210 7 -329 13 -546 15 -591 3 -58 -17 -86 -50 -69 -11 6 -40 11 -64 11 -81 0
-158 -94 -158 -192 0 -39 4 -50 27 -66 24 -17 25 -21 15 -52 -17 -48 -15 -116
4 -134 22 -23 59 -30 94 -17 27 9 36 6 88 -29 86 -59 82 -53 82 -138 0 -42 5
-95 10 -116 6 -26 4 -75 -6 -150 -13 -104 -28 -450 -54 -1276 -6 -195 -17
-535 -24 -755 -8 -220 -10 -410 -6 -421 10 -25 29 -34 72 -34 16 0 50 -12 76
-27 41 -25 60 -28 159 -33 61 -3 115 -9 119 -13 4 -4 0 -278 -9 -610 -13 -497
-18 -608 -31 -639 -10 -22 -16 -67 -16 -110 0 -58 -5 -80 -22 -108 -18 -29
-22 -50 -23 -120 0 -47 3 -97 8 -112 7 -28 7 -28 -42 -28 -43 0 -60 -7 -125
-51 -70 -47 -172 -154 -204 -216 -16 -29 -15 -156 0 -171 8 -8 55 -12 143 -12
71 0 159 -5 195 -11 36 -6 117 -14 181 -18 63 -4 121 -11 128 -16 40 -24 159
15 234 77 39 32 44 84 22 214 -17 96 -17 124 -7 302 7 108 12 232 12 274 0 43
6 94 14 115 10 25 16 92 19 193 2 86 9 168 16 184 7 16 14 66 17 110 4 45 12
103 20 130 8 27 14 80 14 117 0 37 5 80 11 96 6 15 15 62 20 103 4 41 14 103
20 138 l13 62 77 0 c42 0 95 -7 119 -15 23 -8 71 -15 106 -15 l64 0 0 -84 c0
-49 -6 -101 -15 -126 -8 -23 -15 -58 -15 -77 0 -19 -7 -62 -15 -96 -28 -114
-35 -1242 -9 -1415 7 -46 60 -96 175 -164 52 -31 124 -78 158 -104 l63 -47
196 7 c174 6 308 17 380 32 31 6 62 61 62 110 0 23 -10 59 -22 82 -23 42 -132
142 -154 142 -23 0 -255 121 -289 151 l-34 30 16 52 c8 29 26 78 39 109 15 37
24 77 24 111 0 30 7 74 15 97 12 35 15 117 15 480 0 240 3 498 6 572 l7 136
31 10 c123 43 154 54 174 64 51 26 52 36 53 490 2 630 19 1037 47 1113 6 18
13 149 16 320 3 160 10 315 16 345 5 30 12 137 16 238 6 146 10 182 21 182 8
0 28 7 45 16 28 15 33 14 63 -2 28 -15 40 -16 90 -6 71 15 85 25 85 67 0 18
12 56 26 83 39 76 29 117 -45 181 -33 29 -69 51 -86 53 -28 3 -30 7 -55 109
l-27 107 6 633 6 634 55 8 c30 4 100 12 155 17 190 18 213 28 257 114 18 35
20 54 16 155 -4 97 -2 123 13 156 15 31 19 66 19 157 l0 116 48 11 c38 8 61 7
108 -6 76 -19 152 -12 177 18 23 29 22 50 -9 94 -25 37 -25 40 -10 72 18 38
21 89 6 98 -5 3 -32 8 -58 12 l-49 5 10 35 c13 42 0 58 -59 71 -47 11 -61 5
-119 -47 l-40 -36 -5 95 c-4 65 -14 120 -33 175 -14 44 -33 116 -41 160 -17
96 -63 199 -111 245 -19 19 -35 40 -35 47 0 7 -14 28 -31 48 -33 37 -25 45 28
24 15 -6 52 -12 80 -14 29 -3 72 -14 95 -26 108 -55 408 -58 643 -8 66 15 75
22 75 60 0 37 -34 168 -53 206 -12 22 -17 58 -17 120 -1 48 -7 105 -14 126 -8
20 -10 37 -7 37 4 0 40 -11 79 -24 97 -33 222 -100 276 -147 l44 -39 31 65
c47 102 95 167 217 296 136 144 174 210 174 304 0 73 -26 157 -70 220 -104
151 -309 167 -437 33 -34 -35 -83 -125 -83 -152 0 -23 -4 -21 -67 30 -31 25
-75 54 -99 64 l-42 18 14 74 c8 40 17 80 20 88 3 8 10 83 14 165 5 83 18 197
30 255 20 96 21 122 15 295 -6 161 -11 201 -31 260 -15 44 -24 93 -24 132 0
117 -46 268 -124 413 -35 63 -89 165 -121 227 -32 62 -80 140 -108 174 -27 34
-54 77 -58 94 -7 25 -53 71 -186 189 -198 175 -263 221 -508 360 -181 103
-314 159 -490 208 -60 17 -122 37 -137 44 -15 8 -53 14 -85 14 -32 0 -74 4
-93 10 -93 25 -254 40 -429 40 l-186 -1 -100 -40z m-295 -3784 c-19 -62 -23
-65 -86 -50 -31 7 -60 17 -65 22 -12 12 21 42 96 88 l60 36 3 -28 c2 -15 -2
-46 -8 -68z m1680 -230 c41 -9 38 -21 -7 -30 -20 -4 -66 -20 -101 -36 -64 -28
-64 -29 -57 -6 4 12 9 59 12 104 l5 83 59 -54 c32 -30 72 -57 89 -61z"/>
<path d="M5249 11716 c-163 -46 -310 -192 -388 -388 -82 -204 -62 -389 62
-575 26 -38 102 -135 170 -214 192 -223 291 -384 339 -554 12 -44 23 -82 25
-84 1 -2 23 15 48 38 58 54 157 117 270 173 116 58 194 87 385 143 303 90 449
186 525 347 53 113 69 186 70 323 0 126 -11 176 -61 275 -110 221 -390 303
-627 184 -57 -29 -166 -112 -195 -149 l-19 -24 -21 87 c-56 226 -191 379 -373
421 -59 14 -153 12 -210 -3z"/>
</g>
</svg>
