<?xml version="1.0" standalone="no"?>
<!DOCTYPE svg PUBLIC "-//W3C//DTD SVG 20010904//EN"
 "http://www.w3.org/TR/2001/REC-SVG-20010904/DTD/svg10.dtd">
<svg version="1.0" xmlns="http://www.w3.org/2000/svg"
 width="963.000000pt" height="1280.000000pt" viewBox="0 0 963.000000 1280.000000"
 preserveAspectRatio="xMidYMid meet">
<metadata>
Created by potrace 1.15, written by Peter Selinger 2001-2017
</metadata>
<g transform="translate(0.000000,1280.000000) scale(0.100000,-0.100000)"
fill="#000000" stroke="none">
<path d="M7070 12790 c-129 -33 -545 -205 -572 -237 -6 -7 -18 -13 -28 -13
-18 0 -278 -124 -670 -320 -124 -61 -257 -123 -297 -136 -178 -60 -363 -78
-719 -71 -298 5 -345 14 -605 109 -140 51 -147 52 -244 51 -154 -2 -561 -69
-832 -138 l-96 -25 -29 21 c-34 25 -47 20 -18 -6 27 -24 25 -31 -7 -38 -16 -3
-36 -9 -45 -12 -15 -6 -18 -1 -19 26 l-2 34 -10 -37 c-12 -42 -18 -46 -37 -23
-17 21 -29 19 -23 -4 4 -17 -11 -28 -88 -67 -52 -25 -186 -99 -299 -164 -338
-193 -332 -190 -410 -190 -79 0 -116 -17 -300 -137 -192 -126 -724 -531 -903
-687 -102 -90 -194 -197 -237 -278 -32 -59 -29 -75 6 -37 44 49 194 180 194
170 0 -20 -153 -167 -195 -189 -22 -11 -49 -35 -59 -53 -11 -19 -97 -113 -191
-209 -94 -96 -191 -204 -215 -239 -80 -119 -106 -268 -76 -436 24 -136 34
-163 76 -203 l38 -37 -14 -70 c-30 -155 -11 -344 46 -461 28 -58 103 -154 120
-154 11 0 -5 64 -35 137 -54 134 -19 352 75 463 l22 25 -6 -40 c-45 -328 -48
-535 -11 -820 38 -299 38 -299 -39 -449 -73 -142 -83 -187 -70 -317 l9 -83 19
29 c14 22 19 44 17 92 -2 65 22 137 63 188 14 18 15 9 16 -125 0 -139 -1 -146
-25 -175 -24 -30 -24 -30 -25 -6 0 24 0 24 -20 6 -13 -12 -20 -29 -18 -49 1
-21 -12 -53 -41 -101 -98 -161 -173 -347 -213 -526 -18 -84 -22 -134 -22 -259
0 -139 3 -165 28 -255 58 -208 117 -350 187 -452 36 -51 169 -210 424 -503
250 -289 439 -526 549 -692 144 -216 435 -628 536 -759 49 -64 137 -166 196
-228 l106 -111 2 -74 c3 -90 20 -120 84 -148 26 -11 48 -21 49 -22 1 -1 -12
-29 -28 -61 -28 -54 -30 -66 -25 -125 8 -87 8 -84 0 -176 -4 -55 -3 -93 6
-119 24 -72 113 -148 195 -164 30 -7 40 -26 59 -113 6 -25 11 -28 49 -28 54 1
120 31 143 66 l18 27 7 -25 c3 -13 9 -49 13 -79 l7 -55 -64 -11 c-77 -13 -159
-50 -215 -98 -42 -36 -42 -37 -42 -106 0 -82 13 -113 71 -162 75 -64 300 -171
519 -245 184 -63 270 -98 575 -234 50 -22 131 -64 180 -93 50 -28 126 -71 170
-93 44 -23 93 -53 109 -65 l30 -24 -220 -6 c-189 -4 -236 -9 -339 -32 -160
-36 -350 -87 -459 -125 -50 -16 -98 -30 -108 -30 -41 0 -336 218 -472 349
l-89 86 6 -54 c4 -29 17 -72 31 -95 26 -43 152 -171 274 -277 70 -61 75 -69
116 -171 35 -86 50 -143 76 -300 31 -177 34 -211 34 -413 l1 -220 65 31 c36
17 76 35 89 39 13 4 50 24 83 45 64 42 129 66 283 104 216 53 459 95 740 126
226 25 368 52 450 86 33 14 87 35 120 48 55 20 62 26 108 99 27 43 48 80 45
82 -2 3 -42 0 -89 -5 -142 -17 -222 -12 -366 20 -161 36 -249 39 -328 9 -57
-21 -125 -78 -125 -104 0 -8 -7 -15 -15 -15 -24 0 -17 18 25 64 63 68 122 89
261 94 69 2 131 -1 155 -7 56 -17 279 -25 344 -13 30 6 78 17 105 25 l50 14
-2 67 c-3 76 11 81 21 8 13 -103 -31 -223 -130 -355 -30 -40 -54 -74 -54 -77
0 -9 310 0 400 11 47 5 115 19 152 30 77 22 90 36 144 155 l35 77 82 -7 c115
-10 188 -23 287 -52 107 -32 526 -238 609 -299 48 -36 70 -45 93 -43 29 3 33
8 54 69 43 124 57 237 58 479 1 194 -2 246 -23 376 l-25 152 -291 7 c-281 7
-572 -3 -750 -25 -124 -16 -235 -8 -268 20 -13 11 67 74 141 113 79 41 173 70
296 92 82 14 114 30 116 57 0 14 -74 21 -154 15 -153 -11 -288 -77 -408 -199
-74 -75 -80 -78 -155 -98 -66 -17 -260 -50 -293 -50 -5 0 -10 7 -10 15 0 40
-145 433 -156 422 -2 -2 15 -53 37 -113 46 -121 94 -298 86 -318 -3 -7 -24
-23 -47 -35 -40 -21 -45 -21 -89 -7 -86 28 -206 47 -336 55 -143 8 -143 7
-310 111 -161 100 -455 241 -675 324 -427 162 -505 193 -505 202 1 5 5 53 9
107 18 212 -47 654 -165 1116 -27 107 -47 197 -43 200 13 13 63 -64 99 -150
37 -90 62 -120 43 -52 -5 20 -25 71 -44 114 -36 81 -40 99 -25 99 24 0 44 -16
58 -44 l14 -31 -5 40 -5 40 76 34 c59 27 96 54 164 119 49 46 89 82 89 80 0
-3 -11 -32 -25 -67 -41 -100 -57 -194 -59 -336 -1 -136 10 -265 23 -265 13 0
31 48 46 122 18 82 41 131 106 219 72 97 84 102 33 12 -85 -148 -110 -252 -99
-402 4 -55 12 -103 21 -115 13 -19 14 -18 14 22 0 61 31 134 91 213 29 38 56
69 60 69 4 0 2 -19 -3 -43 -25 -107 -9 -295 32 -376 l17 -33 12 88 c15 104 47
188 98 255 47 62 60 63 29 2 -37 -76 -75 -187 -86 -261 -10 -62 -5 -170 8
-158 3 3 16 46 28 96 13 50 35 112 49 139 27 49 135 163 120 126 -42 -102 -94
-421 -83 -510 3 -28 6 -24 36 40 18 39 45 94 60 122 29 57 163 255 169 250 1
-2 -18 -54 -43 -115 -56 -139 -74 -220 -74 -341 0 -101 6 -106 35 -26 10 28
40 95 68 150 76 153 179 302 133 192 -8 -19 -22 -70 -31 -112 -20 -90 -16
-265 7 -329 l14 -39 22 59 c29 79 100 202 169 291 30 41 57 72 59 71 1 -2 -4
-28 -12 -58 -22 -81 -28 -232 -15 -333 7 -48 14 -94 18 -103 3 -9 18 15 38 64
33 81 132 272 141 272 3 0 2 -58 -2 -129 -8 -150 0 -226 26 -261 l18 -24 11
44 c7 25 21 68 32 95 21 52 129 248 135 243 1 -2 -6 -35 -17 -73 -26 -91 -36
-255 -19 -326 20 -85 25 -88 49 -34 21 48 150 285 155 285 1 0 -2 -30 -7 -67
-14 -101 -3 -296 20 -368 l20 -60 7 60 c8 60 29 138 45 164 6 9 15 -10 31 -60
29 -97 90 -209 113 -209 2 0 7 21 11 48 3 26 18 83 33 127 l27 80 11 -80 c12
-79 54 -225 64 -225 4 0 7 28 9 63 2 34 7 82 13 107 17 77 82 269 90 264 4 -2
2 -19 -6 -38 -36 -85 -38 -319 -4 -402 12 -28 12 -27 20 30 9 63 61 256 65
240 2 -5 7 -55 13 -111 6 -56 21 -128 33 -160 l21 -58 32 155 c34 163 82 350
93 362 4 4 5 -49 3 -117 -3 -133 10 -236 38 -300 l18 -40 7 55 c7 63 64 297
77 320 5 9 9 -16 9 -65 0 -98 20 -196 56 -275 15 -33 28 -59 30 -57 2 1 7 62
12 134 8 105 14 141 33 180 l23 48 13 -73 c16 -97 37 -160 85 -257 22 -44 42
-82 44 -84 10 -11 16 17 34 154 10 80 21 149 24 152 3 4 6 -2 6 -13 -1 -24 83
-294 91 -294 3 0 13 72 23 161 17 155 49 314 67 333 5 6 9 -60 9 -160 0 -186
10 -244 58 -318 l26 -41 7 50 c4 28 12 94 18 148 6 53 17 112 25 130 l13 32
12 -45 c7 -25 33 -108 58 -185 37 -113 48 -135 53 -115 4 14 24 88 45 165 21
77 42 144 46 149 4 5 5 -25 2 -65 -6 -79 8 -216 28 -265 11 -29 12 -28 29 41
20 75 96 300 111 325 5 9 9 -33 9 -110 0 -130 15 -289 29 -303 4 -4 18 25 30
65 71 239 119 389 124 394 4 4 12 -6 18 -22 11 -28 10 -47 -7 -293 -7 -97 0
-140 17 -109 5 9 34 77 64 150 30 72 60 137 66 143 15 13 4 -135 -16 -220 -7
-33 -12 -61 -10 -63 7 -7 68 93 110 180 42 89 85 226 85 274 0 13 4 25 9 28
12 8 5 -163 -9 -198 -11 -30 -32 -247 -25 -255 12 -11 107 141 136 218 12 31
30 101 41 156 11 55 24 104 28 108 12 14 23 -127 16 -216 -3 -45 -2 -109 2
-142 l8 -60 33 105 c49 159 70 207 92 213 18 5 19 -1 19 -119 0 -121 11 -162
23 -87 51 313 54 327 59 293 4 -19 11 -53 17 -75 6 -22 8 -65 5 -96 -4 -37 -2
-59 5 -63 7 -5 11 2 11 16 0 13 9 57 20 98 11 41 23 112 26 157 4 46 11 83 15
83 16 0 37 -55 49 -129 8 -47 15 -69 20 -60 14 25 30 194 23 244 -4 35 -3 46
5 41 18 -11 42 -105 42 -165 0 -44 2 -52 13 -42 8 8 12 50 12 139 -1 107 -4
136 -23 182 -27 67 -27 68 -1 44 39 -35 67 -99 85 -191 9 -51 21 -90 26 -87
11 7 10 163 -2 243 -9 64 -26 104 -89 213 -18 32 -31 58 -29 58 3 0 31 -20 64
-44 32 -25 60 -43 62 -41 9 9 -29 58 -106 138 -84 85 -91 103 -31 71 17 -8 33
-13 36 -11 9 9 -140 149 -173 163 -18 8 -56 14 -83 14 -42 0 -51 3 -56 21 -17
54 -86 151 -163 231 l-84 87 34 5 c18 3 68 10 110 16 147 19 228 60 293 148
46 62 112 196 124 251 10 44 9 45 -41 102 -28 32 -55 56 -59 53 -5 -3 -9 15
-9 39 0 25 -10 68 -24 98 -13 30 -27 66 -30 81 l-6 27 72 -27 c104 -38 230
-38 308 -1 81 39 144 99 181 175 31 63 33 70 37 223 7 233 -29 492 -99 710
-48 152 -49 169 -1 232 54 73 87 142 117 244 37 128 50 246 36 333 -9 58 -51
209 -78 278 -2 6 19 21 48 33 51 23 52 23 123 4 45 -11 105 -17 166 -17 88 1
108 5 260 56 210 71 277 101 392 180 168 114 282 251 381 456 49 101 52 112
51 182 0 64 -5 84 -32 136 -29 58 -119 161 -129 150 -3 -3 6 -24 20 -48 13
-24 33 -69 42 -100 33 -105 -4 -234 -94 -325 -27 -27 -68 -65 -92 -84 l-44
-34 23 35 c99 149 140 332 108 483 -21 102 -49 167 -92 208 -35 33 -46 30 -18
-6 26 -35 54 -144 54 -215 0 -40 -8 -95 -20 -133 -20 -64 -74 -157 -96 -164
-7 -2 -15 13 -19 34 -11 59 -44 128 -75 158 l-29 28 15 -48 c8 -27 14 -71 13
-99 0 -49 -1 -50 -16 -28 -9 12 -26 22 -40 22 -31 0 -74 22 -143 74 -30 23
-73 53 -95 67 -137 88 -259 293 -330 554 -30 110 -41 171 -55 315 -15 147 -66
493 -90 607 -27 132 -81 285 -150 429 l-58 122 42 23 c80 44 292 187 386 260
309 240 647 655 698 859 46 183 78 771 52 955 -23 157 -77 313 -185 533 -70
143 -75 150 -166 237 -212 202 -419 323 -646 376 -48 12 -104 30 -125 40 -20
10 -89 30 -155 44 -65 14 -156 36 -203 50 -47 13 -123 29 -170 35 -47 6 -128
21 -180 32 -105 23 -397 34 -460 18z m-1310 -1500 c369 -56 572 -115 919 -269
280 -124 447 -258 550 -443 40 -71 93 -272 94 -358 1 -53 -5 -81 -36 -157 -36
-89 -37 -93 -21 -118 9 -14 20 -25 25 -25 12 0 65 94 90 160 12 30 34 105 49
165 29 116 31 117 55 15 20 -89 19 -122 -9 -234 -37 -145 -83 -224 -196 -336
l-95 -95 57 -3 c70 -4 132 25 317 147 68 45 125 80 127 78 10 -10 -172 -170
-284 -251 -105 -76 -122 -92 -116 -110 3 -11 9 -24 13 -28 9 -10 192 71 291
130 92 54 181 117 275 194 36 30 16 7 -50 -57 -135 -132 -189 -173 -333 -260
l-114 -68 29 -18 c29 -19 31 -18 107 7 83 28 233 102 318 157 29 19 97 71 151
116 54 44 101 81 104 81 13 0 -70 -90 -133 -143 -83 -71 -200 -141 -311 -188
-45 -19 -83 -37 -83 -40 0 -4 18 -19 39 -33 69 -48 96 -45 276 28 l160 66 26
-30 c71 -84 218 -429 244 -576 11 -60 19 -193 25 -409 10 -402 30 -506 135
-703 l34 -64 -32 7 c-191 41 -377 53 -553 36 -114 -11 -167 -23 -469 -101
-144 -37 -178 -33 -300 35 -236 133 -329 168 -607 226 -151 32 -156 32 -443
33 -242 0 -303 -3 -366 -17 -42 -10 -84 -24 -94 -31 -12 -9 9 -7 71 6 115 25
412 34 594 19 150 -12 382 -56 511 -97 97 -31 180 -70 263 -127 129 -87 268
-106 421 -55 335 113 674 129 949 48 l74 -22 75 -112 c105 -154 217 -276 321
-352 l29 -21 -157 -80 c-86 -44 -156 -76 -156 -72 0 6 41 63 84 118 6 7 -18
-1 -52 -18 -49 -25 -67 -29 -77 -21 -30 25 -67 7 -99 -47 -40 -67 -43 -69 -38
-27 l4 36 -29 -15 c-35 -18 -115 -34 -243 -46 -66 -6 -132 -22 -213 -49 -126
-43 -140 -34 -33 20 l60 30 -28 15 c-26 14 -33 12 -111 -25 -46 -22 -108 -56
-139 -76 -31 -20 -57 -36 -59 -36 -1 0 -2 37 -2 83 0 71 -5 91 -31 148 -17 36
-56 95 -87 131 -30 36 -62 79 -71 96 -23 44 -30 111 -17 157 12 46 8 56 -10
23 -42 -79 -27 -157 58 -285 37 -56 66 -112 73 -144 16 -64 8 -149 -20 -220
-23 -57 -71 -139 -81 -139 -4 0 -32 16 -64 35 -68 41 -149 60 -219 51 -118
-15 -212 -40 -241 -64 l-30 -25 45 7 c99 15 246 18 302 7 89 -19 171 -65 229
-129 125 -140 218 -311 331 -607 83 -215 105 -292 227 -780 105 -422 125 -529
125 -665 0 -99 -3 -123 -23 -168 -42 -93 -133 -151 -251 -160 -95 -6 -177 25
-346 135 -194 125 -439 268 -526 305 -221 94 -354 122 -451 94 -64 -19 -67
-21 -60 -59 5 -26 8 -27 67 -27 41 0 74 6 99 19 l37 19 78 -27 c43 -15 117
-48 164 -74 l85 -46 7 -94 c3 -51 13 -120 21 -152 15 -56 62 -155 74 -155 3 0
5 77 3 171 l-3 171 58 -32 c32 -18 86 -52 119 -76 67 -47 73 -61 75 -158 0
-28 4 -71 8 -96 7 -35 9 -20 10 73 0 64 3 117 6 117 11 0 110 -67 124 -84 8
-9 24 -45 36 -79 12 -34 25 -69 29 -78 6 -13 -1 -16 -38 -16 -47 -1 -133 -35
-187 -74 l-30 -21 -28 26 c-15 14 -34 26 -43 26 -9 0 -62 9 -118 20 -164 32
-263 26 -603 -41 -302 -58 -893 -92 -1062 -60 -101 19 -205 50 -241 72 -44 27
-80 86 -104 171 -34 122 -36 118 73 118 72 1 88 3 73 12 -31 17 -150 22 -203
8 -72 -19 -183 -80 -225 -123 -46 -48 -78 -130 -78 -203 0 -72 15 -68 57 16
41 80 70 110 159 166 75 47 94 53 94 29 0 -37 45 -129 85 -173 77 -85 205
-120 478 -129 177 -6 575 15 747 38 112 16 386 22 460 11 36 -5 119 -18 186
-28 116 -17 125 -17 240 0 65 9 155 22 199 28 44 6 82 14 85 18 3 4 19 11 36
14 31 7 33 5 68 -59 20 -36 36 -78 36 -94 0 -35 -135 -201 -207 -254 -101 -74
-88 -72 -478 -71 -254 1 -394 5 -510 18 -88 9 -243 21 -345 26 -102 6 -201 14
-220 19 -19 4 -143 58 -275 119 -279 129 -291 132 -555 131 -243 -2 -273 -13
-54 -22 99 -4 218 -14 265 -23 132 -25 311 -117 434 -224 27 -23 80 -63 117
-88 38 -25 68 -48 68 -51 0 -3 -33 -18 -73 -33 -107 -40 -238 -123 -328 -206
-44 -41 -78 -77 -75 -79 2 -3 46 27 96 66 105 81 192 132 265 154 50 15 135
30 135 24 0 -2 -40 -27 -89 -56 -49 -29 -121 -82 -160 -118 -68 -62 -169 -188
-159 -199 3 -2 18 14 33 36 101 146 302 262 575 332 151 39 227 43 455 25 153
-12 220 -13 336 -5 l146 11 38 -29 c47 -36 129 -133 174 -208 36 -60 85 -195
96 -263 l7 -43 -43 0 -43 0 39 -40 c21 -22 36 -40 33 -40 -3 0 -38 19 -78 41
-39 23 -73 39 -76 36 -9 -9 22 -59 75 -122 28 -32 51 -63 51 -68 0 -10 4 -13
-95 65 -77 61 -179 122 -195 116 -6 -2 10 -31 35 -65 25 -35 45 -65 45 -67 0
-3 -30 17 -66 44 -66 51 -124 85 -124 75 0 -4 14 -27 32 -53 34 -51 26 -47
-49 22 -18 16 -35 27 -38 25 -3 -3 12 -41 34 -85 64 -133 83 -215 28 -121 -36
61 -110 150 -143 172 -19 12 -25 13 -21 4 68 -156 75 -213 15 -114 -35 57
-107 140 -114 132 -2 -2 0 -28 6 -57 15 -79 12 -91 -9 -31 -10 29 -31 65 -45
80 l-26 26 2 -127 c3 -145 -10 -170 -29 -56 -7 40 -17 84 -22 98 -6 14 -15 38
-21 54 -6 16 -12 27 -15 25 -2 -3 -13 -46 -24 -96 -22 -100 -47 -161 -62 -146
-5 5 -23 63 -39 128 -17 66 -32 121 -34 122 -5 6 -63 -130 -97 -226 -17 -50
-33 -90 -36 -88 -6 7 18 200 33 258 8 31 14 61 14 65 0 15 -91 -80 -142 -149
-28 -37 -53 -65 -55 -63 -2 2 21 54 51 115 31 61 53 111 50 111 -4 0 -29 -17
-56 -37 -50 -39 -111 -110 -168 -198 l-32 -50 7 40 c9 54 46 129 95 194 23 29
39 55 37 57 -9 9 -64 -19 -112 -56 -27 -22 -81 -75 -120 -120 -38 -44 -73 -80
-78 -80 -10 0 14 45 69 131 25 39 43 73 40 76 -10 10 -59 -28 -148 -115 -49
-47 -91 -83 -94 -80 -10 11 31 90 79 153 25 33 44 62 41 64 -7 7 -88 -53 -158
-119 -38 -36 -67 -60 -65 -55 3 6 12 26 21 46 9 19 20 48 24 63 7 28 6 28 -50
-18 -86 -69 -86 -60 -3 36 27 32 44 58 37 58 -26 0 -150 -73 -215 -128 l-69
-57 72 104 c40 57 70 106 68 109 -6 6 -206 -100 -264 -140 l-45 -31 19 33 c10
17 47 62 81 98 34 36 61 67 60 69 -7 7 -131 -33 -196 -63 -41 -19 -75 -33 -77
-31 -1 1 24 37 57 80 33 42 58 77 54 77 -14 0 -148 -83 -209 -129 -88 -67 -91
-68 -75 -40 7 13 52 63 101 112 49 48 87 87 84 87 -3 0 -69 -20 -146 -45 -77
-25 -144 -45 -148 -45 -4 0 25 30 63 66 l70 65 -60 -4 c-73 -6 -130 -25 -254
-83 -52 -24 -96 -42 -98 -40 -3 2 4 21 15 43 20 38 84 104 155 157 20 16 37
32 37 37 0 27 -153 0 -264 -47 -34 -14 -70 -28 -80 -31 -37 -12 28 59 113 122
44 33 81 64 81 68 0 10 -65 1 -190 -25 -166 -35 -163 -36 -95 12 33 23 68 49
78 58 18 16 18 17 0 23 -10 4 -56 8 -101 8 l-84 1 41 34 40 34 -67 7 c-74 8
-75 5 18 43 l25 11 -30 0 c-38 1 -233 -27 -246 -34 -5 -4 -9 -3 -9 0 0 3 32
21 71 39 l72 33 -29 14 c-29 14 -29 14 -32 119 -8 281 43 459 214 736 101 165
150 274 187 412 27 105 30 131 30 262 0 123 -4 160 -26 241 -28 108 -75 210
-115 253 -30 31 -141 110 -148 104 -2 -2 14 -22 36 -43 43 -42 48 -56 27 -74
-11 -8 -24 0 -61 35 l-47 45 -20 -23 -19 -23 -87 90 -86 90 7 -45 7 -45 -38
37 c-23 22 -57 42 -87 51 l-50 14 1 54 c0 38 -1 43 -4 16 -6 -50 -24 -44 -43
15 l-16 45 -18 -24 c-13 -18 -18 -46 -20 -106 -3 -84 6 -120 39 -147 12 -10
11 -4 -5 22 -18 31 -19 40 -8 57 18 30 25 27 49 -21 48 -95 236 -364 247 -353
2 2 -17 34 -42 70 -54 75 -106 170 -106 193 0 19 53 -29 78 -71 12 -20 23 -27
37 -23 28 8 65 -31 65 -68 0 -17 3 -41 6 -53 11 -41 24 -24 24 31 0 49 -4 59
-40 101 -36 41 -82 105 -105 145 -22 37 108 -85 194 -182 52 -59 96 -106 99
-104 2 2 -9 27 -23 56 -14 29 -25 53 -23 55 2 2 27 -26 57 -61 29 -36 52 -67
50 -68 -2 -2 -16 -10 -31 -17 l-26 -14 23 -28 24 -27 17 26 c15 22 19 23 26 9
7 -11 18 -14 41 -10 l32 6 24 -88 c26 -94 27 -116 11 -234 -14 -99 -34 -177
-66 -253 -14 -34 -37 -90 -51 -126 -15 -36 -52 -117 -83 -180 -133 -266 -191
-487 -194 -739 l-1 -114 -55 -14 c-30 -7 -86 -29 -123 -48 l-68 -35 33 47 c18
26 60 75 94 109 58 60 59 63 36 69 -13 3 -51 3 -85 -1 -65 -6 -95 -21 -200
-101 -33 -24 -61 -43 -63 -40 -7 7 102 132 170 194 l68 62 -37 7 c-56 10 -134
-3 -215 -36 -78 -32 -118 -59 -189 -124 -25 -23 -38 -32 -31 -21 39 53 165
202 262 308 251 275 396 531 418 740 5 51 14 123 18 160 7 54 6 70 -5 74 -32
12 -40 -5 -45 -94 -11 -182 -122 -377 -297 -518 -104 -84 -392 -273 -356 -233
17 18 80 85 140 148 61 63 132 144 160 180 27 36 71 91 97 123 27 32 59 80 72
105 43 84 117 350 116 415 -1 21 -2 21 -24 -5 -14 -15 -31 -52 -40 -82 -16
-53 -63 -145 -108 -209 -36 -52 -149 -166 -218 -221 -77 -61 -196 -146 -205
-146 -3 0 17 26 44 58 84 95 139 172 185 262 40 78 81 188 72 197 -2 2 -32
-36 -67 -84 -69 -95 -179 -212 -219 -233 -21 -11 -23 -11 -14 1 163 215 208
274 243 327 24 35 41 65 39 68 -8 7 -122 -27 -155 -46 -52 -30 -41 -3 37 93
39 48 65 87 58 87 -7 0 -39 -16 -71 -35 -33 -20 -56 -30 -54 -23 46 110 87
288 67 288 -6 0 -30 -18 -54 -40 l-43 -40 13 57 c8 32 17 110 20 173 l6 115
-45 -76 c-39 -65 -77 -113 -77 -96 0 2 11 29 25 59 32 71 62 186 71 279 l7 74
-57 -68 c-32 -37 -59 -67 -61 -67 -2 0 7 19 20 43 26 46 69 167 62 174 -3 2
-16 -2 -31 -8 -14 -7 -28 -10 -31 -7 -6 6 33 78 41 78 3 0 15 -12 28 -27 l24
-27 7 64 c4 36 20 97 36 137 16 39 29 77 29 84 0 8 -37 -22 -81 -66 -87 -85
-92 -84 -23 5 24 30 50 73 59 94 l17 39 -24 -15 c-12 -8 -35 -23 -50 -33 -16
-9 -28 -15 -28 -12 0 3 25 56 55 118 30 63 55 121 55 130 0 13 -9 13 -67 -6
-38 -13 -88 -26 -113 -29 l-45 -8 80 52 c93 61 233 194 313 298 l56 73 -27 26
-26 27 -10 -25 c-8 -23 -74 -89 -87 -89 -3 0 15 24 42 53 26 28 57 74 69 101
l21 48 28 -32 c15 -18 28 -31 30 -29 2 2 10 18 18 35 15 31 14 33 -9 57 l-25
24 20 39 c38 75 34 89 -8 29 -75 -107 -187 -211 -292 -273 -21 -12 -38 -19
-38 -16 0 3 62 67 138 142 83 83 151 159 171 194 36 63 114 238 108 244 -2 2
-25 -28 -52 -67 -51 -75 -147 -178 -202 -217 -18 -13 -33 -21 -33 -19 0 3 32
42 71 88 109 129 175 249 239 434 22 64 40 120 40 122 0 3 -23 -30 -51 -73
-55 -84 -221 -256 -304 -314 -57 -39 -56 -37 47 93 151 190 248 363 288 510
12 43 20 81 17 83 -2 3 -19 -21 -37 -53 -33 -58 -156 -191 -166 -180 -4 3 14
32 38 64 119 155 200 297 237 417 24 76 41 243 24 233 -6 -4 -13 -25 -17 -47
-10 -62 -68 -170 -127 -234 -28 -31 -53 -55 -56 -53 -2 2 15 35 38 73 108 177
204 428 234 610 25 150 17 168 -24 54 -19 -52 -45 -117 -59 -145 -41 -83 -167
-267 -212 -310 l-42 -40 54 81 c117 171 210 374 272 592 46 157 59 258 48 347
-7 53 -10 60 -11 30 -4 -110 -60 -276 -131 -389 -23 -36 -43 -66 -45 -66 -2 0
19 66 46 147 66 199 91 317 87 423 l-3 85 -39 -105 c-48 -130 -156 -355 -190
-395 -23 -27 -20 -16 24 113 48 136 80 278 80 346 0 25 -9 13 -49 -69 -138
-285 -349 -462 -513 -431 -91 17 -190 137 -228 277 -36 134 -38 243 -6 372 40
157 105 313 184 437 68 107 231 316 317 405 47 50 85 86 83 80 -2 -5 -27 -57
-56 -115 -73 -148 -105 -275 -100 -400 3 -67 10 -108 24 -140 21 -45 73 -114
80 -107 3 2 -10 35 -28 73 -29 61 -33 79 -32 149 1 153 86 340 244 538 116
146 318 286 635 442 324 160 472 203 920 269 64 9 316 -4 445 -24z m-5084
-1074 c-97 -215 -139 -296 -234 -446 -47 -74 -105 -168 -129 -207 -26 -43 -51
-73 -61 -73 -15 -1 -15 -2 1 -14 17 -13 15 -20 -33 -116 -29 -56 -54 -100 -56
-97 -14 14 -34 121 -34 184 0 126 82 320 218 513 63 90 377 419 388 407 3 -3
-24 -71 -60 -151z m624 -2530 c230 -59 326 -107 550 -276 41 -31 84 -62 95
-68 17 -10 11 -11 -35 -12 -74 0 -218 18 -244 32 -12 6 -47 30 -78 55 -70 54
-75 40 -11 -28 52 -56 143 -104 260 -138 92 -28 101 -41 26 -41 -40 0 -89 11
-158 35 -118 41 -119 41 -105 14 15 -27 88 -73 148 -93 50 -16 236 -50 332
-61 30 -3 69 -9 85 -12 l30 -6 -25 -9 c-62 -23 -165 -41 -275 -47 l-120 -7 66
-21 c101 -33 213 -45 365 -41 138 3 140 3 212 41 39 20 74 37 76 37 10 0 -28
-108 -57 -163 -46 -88 -119 -149 -222 -186 -82 -29 -88 -30 -116 -15 -49 25
-55 11 -7 -16 56 -31 197 -39 303 -16 39 8 73 12 76 8 4 -4 17 -38 29 -76 30
-92 25 -169 -14 -203 -36 -31 -73 -29 -153 7 -36 17 -68 28 -71 25 -10 -10 30
-56 73 -80 36 -22 45 -32 45 -55 0 -34 35 -64 165 -141 82 -48 88 -54 65 -60
-14 -4 -37 -7 -52 -8 -16 -1 -28 -6 -28 -12 0 -7 14 -9 43 -5 127 17 163 18
197 3 35 -15 35 -15 -52 -16 -48 -1 -89 -5 -92 -9 -13 -22 37 -52 88 -52 20 0
36 -5 36 -11 0 -12 -103 -7 -169 7 -46 10 44 -62 131 -104 69 -33 99 -62 66
-62 -17 0 -116 17 -153 25 l-30 8 33 -35 c19 -20 63 -52 98 -73 36 -21 67 -43
71 -48 4 -7 -29 -8 -96 -4 -114 6 -118 0 -34 -46 49 -26 139 -51 228 -63 l50
-6 -35 -18 c-60 -31 -153 -50 -241 -50 l-83 0 39 -41 c48 -48 131 -105 168
-114 15 -4 24 -11 21 -16 -9 -15 -86 -9 -144 11 -30 10 -56 17 -58 16 -7 -8
84 -130 120 -161 48 -40 83 -49 173 -43 36 2 65 2 65 0 0 -2 -26 -15 -57 -29
-76 -35 -193 -37 -266 -4 -27 11 -50 21 -52 21 -13 0 26 -80 56 -114 99 -112
285 -156 434 -102 36 13 65 20 65 16 0 -3 -33 -39 -74 -78 -95 -93 -156 -122
-253 -122 -64 0 -73 -2 -73 -18 0 -11 8 -26 18 -34 29 -26 149 -58 219 -58
l64 0 -19 -27 c-34 -48 -74 -134 -120 -258 -39 -106 -45 -132 -49 -226 -6
-103 -5 -107 17 -119 21 -11 22 -15 15 -98 -11 -136 -36 -202 -98 -263 -142
-141 -360 -164 -568 -59 -44 23 -81 56 -164 149 -141 157 -256 306 -347 448
-110 174 -204 295 -336 435 -66 70 -168 184 -226 254 -58 69 -195 224 -303
343 -395 431 -538 614 -638 812 -144 285 -175 630 -81 905 76 226 232 483 366
608 85 78 158 110 340 150 200 44 320 47 460 12z m7290 -1301 c-8 -9 -30 -15
-58 -15 -25 0 -43 3 -39 6 7 7 63 21 91 23 15 1 16 -2 6 -14z m-813 -76 c40
-13 73 -26 73 -29 0 -3 -19 -13 -41 -23 -55 -24 -46 -29 21 -11 72 19 231 35
268 28 27 -6 32 -12 45 -68 36 -142 30 -293 -14 -411 -22 -58 -96 -176 -115
-182 -6 -2 -48 92 -94 209 -46 117 -118 282 -161 366 -43 84 -72 151 -66 149
7 -3 45 -16 84 -28z m-4459 -81 c-5 -16 -48 -24 -48 -9 0 8 17 16 43 20 5 0 7
-5 5 -11z m-60 -50 c-6 -18 -55 -44 -65 -34 -10 9 33 46 54 46 8 0 13 -6 11
-12z m453 -541 c31 -39 41 -64 29 -72 -9 -5 -80 80 -80 96 0 20 27 7 51 -24z
m459 -249 c24 -40 25 -49 5 -41 -14 5 -45 52 -45 68 0 16 23 1 40 -27z m90
-20 c22 -36 25 -48 12 -48 -5 0 -18 18 -31 40 -27 48 -9 54 19 8z m-4 -99 c8
-17 10 -29 4 -29 -15 0 -50 38 -50 55 0 23 29 6 46 -26z m2388 -628 c3 -5 -1
-11 -9 -15 -18 -6 -45 2 -45 15 0 12 47 12 54 0z m-1564 -440 c0 -15 -28 -33
-40 -26 -8 5 -8 11 1 21 13 15 39 19 39 5z m-2892 -785 c45 -28 60 -42 50 -47
-23 -13 -138 -37 -143 -29 -4 6 -25 126 -25 144 0 4 12 0 28 -10 15 -10 55
-36 90 -58z m240 -167 c2 -73 -1 -91 -21 -129 -29 -56 -57 -71 -127 -68 -49 3
-56 6 -77 37 -31 46 -29 67 13 128 l36 53 57 0 56 1 -45 23 -45 24 50 7 c28 3
57 8 65 9 31 7 35 -3 38 -85z m1692 -8 c0 -12 -20 -25 -27 -18 -7 7 6 27 18
27 5 0 9 -4 9 -9z m-1886 -327 c46 -21 68 -25 119 -22 34 2 70 8 80 12 17 8
18 5 12 -30 -11 -63 -36 -97 -83 -114 -38 -13 -45 -12 -89 6 -54 22 -78 56
-92 127 -5 26 -7 47 -6 47 1 0 28 -12 59 -26z m261 -311 c-8 -26 -23 -55 -33
-66 -19 -18 -20 -18 -61 30 l-43 48 63 12 c34 7 65 15 67 18 17 16 19 -1 7
-42z m4262 -65 c-3 -8 -6 -5 -6 6 -1 11 2 17 5 13 3 -3 4 -12 1 -19z m-4132
-290 c19 -85 41 -285 32 -294 -3 -3 -53 17 -111 44 -75 36 -120 65 -155 100
-61 62 -69 86 -43 144 19 43 22 45 78 56 57 12 99 17 156 20 25 2 27 -2 43
-70z m3055 -1282 c25 -9 34 -13 20 -10 -14 3 -86 8 -160 11 -88 4 -128 9 -115
14 30 13 204 3 255 -15z m90 -26 c8 -5 11 -10 5 -10 -5 0 -17 5 -25 10 -8 5
-10 10 -5 10 6 0 17 -5 25 -10z m-1792 -377 c-10 -2 -26 -2 -35 0 -10 3 -2 5
17 5 19 0 27 -2 18 -5z"/>
<path d="M5570 9149 c-30 -4 -82 -17 -115 -28 -33 -11 -46 -18 -30 -15 17 2
96 7 176 11 127 5 158 3 247 -16 129 -29 171 -25 87 8 -114 44 -244 59 -365
40z"/>
<path d="M5573 8695 c-112 -18 -250 -58 -336 -99 -92 -44 -61 -46 76 -6 182
55 302 72 533 77 343 9 485 -13 1232 -190 66 -16 102 -21 99 -14 -7 23 -67 48
-221 91 -266 76 -503 123 -735 146 -142 14 -547 11 -648 -5z"/>
<path d="M5810 8191 c-63 -6 -61 -6 55 -13 192 -11 317 -38 725 -158 306 -89
301 -88 411 -100 100 -10 244 0 334 24 48 12 41 13 -140 19 -254 8 -386 36
-740 157 -66 22 -158 48 -205 56 -95 17 -340 25 -440 15z"/>
<path d="M4136 8007 c-8 -72 -7 -80 13 -101 15 -16 21 -35 21 -68 0 -29 6 -50
16 -58 13 -11 14 -32 9 -134 -3 -67 -8 -132 -11 -145 l-5 -24 -16 22 c-14 21
-16 21 -34 5 -19 -17 -19 -18 12 -50 l32 -33 -18 -64 c-17 -63 -17 -133 0
-171 7 -16 5 -18 -25 -11 -31 7 -33 6 -27 -16 4 -13 7 -34 7 -46 0 -17 4 -20
21 -16 19 5 20 3 14 -18 -16 -50 -45 -109 -53 -109 -13 0 -32 -47 -32 -80 0
-17 -4 -30 -10 -30 -5 0 -10 -7 -10 -16 0 -8 -18 -69 -40 -134 -22 -65 -40
-137 -40 -160 0 -74 103 -247 197 -330 78 -69 136 -90 251 -90 115 0 157 16
231 85 49 45 157 192 149 201 -3 2 -42 -34 -88 -80 -45 -46 -105 -96 -132
-111 -89 -49 -242 -44 -349 10 -84 43 -173 148 -224 263 -17 41 -17 45 -1 105
9 34 44 130 78 212 121 301 230 728 252 990 10 114 -9 46 -43 -154 -17 -100
-45 -235 -61 -299 -16 -64 -30 -127 -30 -139 0 -30 -13 -29 -29 1 -11 20 -9
40 13 132 14 60 31 155 37 212 10 97 9 119 -13 272 -2 8 4 47 11 86 8 42 11
83 6 100 l-8 29 -7 -35 c-4 -19 -11 -52 -15 -74 -11 -62 -29 -27 -35 67 l-6
82 -8 -78z m15 -860 c-1 -12 -15 -9 -19 4 -3 6 1 10 8 8 6 -3 11 -8 11 -12z"/>
<path d="M5035 7802 c-39 -29 -77 -79 -91 -120 0 -1 -15 3 -33 9 -30 10 -35 9
-62 -17 -59 -57 -119 -226 -119 -336 0 -46 -23 -20 -45 48 -40 127 0 270 90
321 50 28 28 30 -26 2 -93 -47 -181 -174 -195 -281 -4 -31 -11 -48 -20 -48
-10 0 -14 16 -14 60 0 57 -10 75 -27 48 -4 -7 -12 -47 -18 -88 l-11 -75 -21
34 c-12 19 -25 56 -28 82 -4 27 -10 47 -15 44 -8 -5 -29 -102 -32 -155 -3 -28
-8 -36 -27 -38 -21 -3 -23 -1 -19 27 2 17 1 31 -2 31 -14 0 -90 -179 -106
-247 -8 -37 -29 -99 -46 -137 -37 -84 -44 -157 -25 -253 l14 -73 -29 0 c-15 0
-28 -2 -28 -3 0 -12 41 -119 58 -152 26 -51 91 -125 131 -148 35 -20 41 -10
11 18 -26 23 -26 39 0 25 28 -15 170 -26 170 -13 0 6 -16 14 -35 17 -43 8
-130 45 -123 51 3 3 24 -1 47 -10 62 -22 158 -29 225 -16 115 21 231 94 238
148 l3 26 90 -2 c49 -1 91 -3 92 -5 1 -1 -15 -24 -37 -50 -22 -27 -40 -50 -40
-52 0 -2 37 16 83 40 122 64 170 72 325 56 70 -7 258 -16 417 -20 160 -3 249
-7 198 -8 -57 -1 -95 -6 -99 -14 -4 -7 8 -23 30 -41 l38 -30 -54 -48 c-40 -36
-48 -48 -34 -49 11 0 38 20 60 44 l41 43 140 6 c77 3 164 12 193 20 29 8 54
11 56 8 8 -13 -27 -119 -56 -171 -40 -71 -145 -206 -232 -298 -73 -77 -204
-171 -284 -203 l-47 -20 43 5 c101 10 221 99 390 286 120 134 212 266 242 347
l21 58 93 23 c68 17 118 23 181 21 86 -2 88 -1 102 25 7 14 36 37 63 51 32 16
56 37 66 58 9 17 42 59 73 93 70 75 125 168 154 259 18 57 22 91 20 180 -1 61
-6 124 -12 140 -9 24 -10 9 -5 -66 10 -181 -22 -284 -118 -380 l-53 -53 -9 54
-8 55 -66 -70 c-36 -38 -62 -60 -58 -50 27 70 14 191 -29 260 l-24 40 -15 -35
c-8 -19 -24 -78 -36 -130 -13 -52 -30 -108 -39 -125 -16 -30 -16 -29 -22 70
-7 116 -31 183 -85 236 -19 18 -34 30 -34 27 0 -3 9 -36 20 -72 l21 -66 -20
-46 c-23 -51 -59 -104 -70 -104 -5 0 -11 28 -14 63 -7 71 -30 142 -55 170 -19
21 -71 51 -78 44 -2 -2 1 -27 7 -55 22 -103 9 -105 -56 -7 -50 74 -65 91 -89
93 -43 5 -51 -11 -23 -44 13 -16 30 -40 37 -53 12 -23 17 -88 7 -98 -3 -3 -54
36 -114 87 -130 111 -318 239 -431 293 -78 37 -89 40 -198 45 l-116 5 4 93 3
93 -29 -22 c-15 -13 -38 -39 -49 -59 -20 -34 -21 -41 -9 -119 14 -101 60 -202
123 -274 39 -44 41 -48 14 -31 -109 68 -194 180 -235 306 -22 68 -23 78 -11
148 16 93 4 112 -32 50 -41 -70 -61 -153 -61 -255 0 -51 -3 -90 -6 -88 -4 2
-21 33 -38 68 -55 112 -77 259 -50 338 10 32 38 75 89 142 29 37 13 34 -46
-11z m-135 -157 c16 -15 16 -19 2 -58 -25 -67 -20 -204 11 -307 14 -47 24 -86
22 -88 -9 -10 -68 89 -96 162 -25 65 -30 91 -26 131 5 46 53 175 65 175 3 0
13 -7 22 -15z m620 -317 c63 -31 200 -151 200 -177 0 -13 -77 24 -160 76 -63
40 -130 101 -130 119 0 7 -6 15 -12 18 -7 3 -2 3 12 0 14 -3 54 -19 90 -36z
m-1156 -85 c3 -10 8 -36 12 -58 7 -40 7 -40 -14 -22 -21 19 -34 61 -25 84 7
18 21 16 27 -4z m1873 -315 c-3 -8 -6 -5 -6 6 -1 11 2 17 5 13 3 -3 4 -12 1
-19z"/>
<path d="M4930 6414 c0 -69 70 -146 179 -197 65 -31 69 -31 211 -30 113 0 162
5 221 21 83 22 179 67 219 102 32 28 21 24 -81 -28 -115 -58 -193 -76 -294
-69 -133 10 -236 54 -337 145 -57 52 -98 82 -110 82 -5 0 -8 -12 -8 -26z"/>
<path d="M4840 6328 c0 -20 9 -46 19 -60 39 -48 181 -109 256 -107 25 0 22 2
-17 13 -60 16 -117 54 -195 129 l-63 60 0 -35z"/>
<path d="M4375 6049 c-43 -15 -77 -20 -118 -17 -61 5 -64 -2 -8 -21 80 -26
187 -7 211 39 14 26 -5 26 -85 -1z"/>
<path d="M6339 5345 c-92 -34 -227 -131 -398 -286 -144 -130 -294 -221 -418
-253 -75 -20 -123 -20 -191 -2 -48 12 -52 12 -46 -3 22 -51 27 -105 16 -159
-6 -30 -10 -57 -8 -60 7 -6 46 127 46 155 0 16 5 23 13 21 90 -34 125 -40 186
-35 129 11 256 73 403 197 l82 68 18 -70 c23 -93 72 -182 133 -243 59 -58 182
-123 295 -155 87 -25 288 -40 276 -22 -4 7 -29 12 -55 12 -85 0 -164 20 -260
66 -212 103 -334 302 -301 493 21 120 73 175 205 220 87 29 154 35 231 22 78
-14 121 -34 192 -91 63 -49 70 -36 9 14 -54 44 -138 83 -231 107 -82 22 -146
23 -197 4z"/>
<path d="M4875 4891 c-135 -48 -255 -133 -314 -222 -51 -76 -64 -122 -62 -228
1 -102 27 -166 97 -241 59 -64 74 -64 29 -1 -31 43 -35 55 -35 113 0 126 32
235 91 309 34 43 49 49 49 19 0 -36 48 -117 91 -154 44 -37 103 -61 181 -72
69 -9 137 17 201 78 28 27 48 48 42 46 -5 -2 -37 -17 -70 -33 -50 -25 -71 -29
-128 -28 -132 4 -216 66 -239 176 -16 75 7 134 79 205 60 58 59 58 -12 33z
m-196 -213 c-73 -87 -90 -131 -103 -267 l-12 -116 -17 43 c-37 91 -12 213 60
304 36 44 114 111 121 103 2 -2 -20 -32 -49 -67z"/>
<path d="M915 7528 c-180 -24 -386 -215 -505 -471 -81 -173 -106 -312 -89
-483 14 -135 105 -353 195 -467 54 -70 70 -70 21 0 -152 212 -226 557 -167
773 35 128 99 244 192 352 93 108 144 152 191 167 52 17 157 31 229 31 l66 0
72 -77 c40 -43 120 -150 178 -238 58 -88 200 -304 317 -480 227 -343 245 -371
245 -380 0 -3 -15 -5 -33 -5 -77 0 -215 -108 -266 -208 -50 -97 -66 -283 -36
-410 31 -132 139 -287 267 -385 116 -87 215 -127 319 -127 l47 0 -30 70 c-70
169 -76 405 -14 555 13 31 86 156 102 174 6 7 33 -21 64 -67 33 -50 39 -39 11
23 -25 55 -161 268 -291 455 -59 85 -149 223 -200 305 -271 436 -415 632 -562
769 -122 114 -194 141 -323 124z m888 -1360 c-108 -110 -148 -214 -181 -480
-9 -76 -20 -138 -23 -138 -4 0 -17 31 -29 69 -43 133 -23 354 39 444 64 94
176 172 251 176 8 1 -18 -32 -57 -71z m117 24 c0 -4 36 -52 79 -107 44 -55 92
-124 107 -154 l26 -54 -20 -51 c-59 -147 -77 -247 -69 -401 3 -74 12 -131 27
-174 12 -35 19 -65 16 -68 -7 -7 -157 59 -224 99 -53 31 -130 102 -212 194
-35 39 -35 41 -23 82 6 24 17 92 22 152 20 208 111 408 216 472 31 19 55 23
55 10z"/>
</g>
</svg>
