<?xml version="1.0" standalone="no"?>
<!DOCTYPE svg PUBLIC "-//W3C//DTD SVG 20010904//EN"
 "http://www.w3.org/TR/2001/REC-SVG-20010904/DTD/svg10.dtd">
<svg version="1.0" xmlns="http://www.w3.org/2000/svg"
 width="1083.000000pt" height="1280.000000pt" viewBox="0 0 1083.000000 1280.000000"
 preserveAspectRatio="xMidYMid meet">
<metadata>
Created by potrace 1.15, written by Peter Selinger 2001-2017
</metadata>
<g transform="translate(0.000000,1280.000000) scale(0.100000,-0.100000)"
fill="#000000" stroke="none">
<path d="M4470 12736 c-398 -184 -624 -372 -905 -750 -138 -186 -287 -440
-524 -893 -152 -290 -221 -445 -262 -592 -39 -140 -159 -654 -155 -659 3 -2
23 -6 46 -9 26 -4 37 -9 29 -14 -7 -4 -16 -6 -20 -3 -4 2 -90 7 -191 10 l-183
7 20 -23 c28 -31 207 -136 415 -243 96 -50 169 -92 162 -95 -7 -2 -82 33 -168
77 -86 45 -159 80 -161 77 -2 -2 -29 -100 -59 -217 -57 -224 -100 -379 -258
-944 -129 -461 -164 -606 -241 -985 -120 -594 -166 -778 -274 -1100 -166 -493
-361 -871 -881 -1710 -74 -118 -153 -253 -176 -300 -40 -80 -174 -395 -174
-408 0 -4 50 43 110 103 61 60 110 106 110 101 0 -5 -48 -59 -108 -120 -138
-143 -365 -394 -509 -565 l-113 -134 0 -1674 0 -1673 5415 0 5415 0 0 2009 0
2009 -72 58 c-40 32 -103 89 -141 127 l-67 69 6 -719 c8 -941 -6 -1321 -76
-1993 -33 -319 -43 -390 -53 -390 -6 0 -7 19 -3 48 27 207 62 564 92 947 19
248 29 1392 17 1885 l-9 335 -43 125 c-52 155 -157 369 -211 432 -53 61 -127
109 -400 260 -396 219 -541 318 -706 482 -150 149 -233 277 -314 482 -83 208
-137 440 -234 1009 -74 430 -90 513 -175 886 -34 147 -106 493 -162 770 -153
769 -178 877 -326 1414 -246 898 -381 1256 -623 1649 -267 436 -466 639 -731
745 -181 72 -320 101 -494 100 -231 0 -1461 43 -1477 52 -22 11 0 19 -158 -55z"/>
<path d="M451 4120 c-74 -18 -109 -60 -137 -163 -15 -56 -19 -217 -6 -217 4 0
43 39 86 88 66 73 84 102 117 182 21 52 38 101 38 108 1 14 -44 15 -98 2z"/>
</g>
</svg>
