<?xml version="1.0" standalone="no"?>
<!DOCTYPE svg PUBLIC "-//W3C//DTD SVG 20010904//EN"
 "http://www.w3.org/TR/2001/REC-SVG-20010904/DTD/svg10.dtd">
<svg version="1.0" xmlns="http://www.w3.org/2000/svg"
 width="1280.000000pt" height="1273.000000pt" viewBox="0 0 1280.000000 1273.000000"
 preserveAspectRatio="xMidYMid meet">
<metadata>
Created by potrace 1.15, written by Peter Selinger 2001-2017
</metadata>
<g transform="translate(0.000000,1273.000000) scale(0.100000,-0.100000)"
fill="#000000" stroke="none">
<path d="M6185 12724 c-22 -2 -105 -9 -185 -14 -441 -33 -951 -128 -1337 -251
-661 -210 -1062 -382 -1533 -657 -907 -529 -1684 -1299 -2232 -2212 -713
-1187 -1013 -2575 -857 -3965 186 -1662 1024 -3179 2339 -4234 947 -759 2086
-1229 3290 -1355 1462 -154 2914 197 4140 1002 301 197 473 331 913 710 128
109 453 446 592 613 773 926 1246 1978 1419 3154 49 333 60 502 60 905 0 405
-12 590 -60 915 -174 1185 -669 2274 -1450 3190 -163 192 -496 525 -689 690
-627 534 -1329 933 -2096 1189 -475 159 -906 249 -1444 302 -140 14 -777 27
-870 18z"/>
</g>
</svg>
