<?xml version="1.0" standalone="no"?>
<!DOCTYPE svg PUBLIC "-//W3C//DTD SVG 20010904//EN"
 "http://www.w3.org/TR/2001/REC-SVG-20010904/DTD/svg10.dtd">
<svg version="1.0" xmlns="http://www.w3.org/2000/svg"
 width="732.000000pt" height="1280.000000pt" viewBox="0 0 732.000000 1280.000000"
 preserveAspectRatio="xMidYMid meet">
<metadata>
Created by potrace 1.15, written by Peter Selinger 2001-2017
</metadata>
<g transform="translate(0.000000,1280.000000) scale(0.100000,-0.100000)"
fill="#000000" stroke="none">
<path d="M6795 12793 c-16 -1 -53 -6 -81 -9 l-51 -5 -31 -97 c-16 -53 -147
-459 -290 -902 -314 -971 -516 -1599 -2005 -6230 -201 -624 -470 -1459 -597
-1855 -127 -396 -353 -1096 -500 -1556 l-269 -836 -6 -409 c-6 -402 -7 -411
-37 -559 -16 -82 -28 -165 -26 -184 6 -46 -19 -56 -115 -46 -55 5 -80 12 -93
26 -18 20 -49 25 -58 10 -3 -4 -29 -12 -58 -15 -124 -17 -129 -18 -145 -43
-15 -23 -21 -24 -92 -21 -67 3 -76 1 -75 -14 2 -24 -47 -24 -154 2 -46 11
-112 20 -146 20 -35 0 -91 3 -124 6 -59 6 -61 8 -56 30 6 24 5 24 -72 24 -44
0 -155 -9 -249 -20 -223 -26 -242 -26 -333 10 -84 33 -105 48 -141 98 -22 31
-23 41 -18 110 l6 76 -33 31 c-60 56 -221 74 -326 37 -111 -40 -205 -83 -227
-104 -20 -19 -23 -31 -23 -103 0 -108 -7 -139 -39 -171 -42 -43 -108 -66 -226
-79 l-110 -13 87 -1 c107 -1 199 26 257 75 46 40 56 79 52 190 -3 89 4 97 127
147 170 69 177 70 256 64 87 -8 122 -19 158 -54 25 -24 26 -29 21 -98 -5 -64
-3 -78 17 -109 27 -44 85 -85 163 -114 70 -26 158 -28 327 -8 172 21 310 30
310 19 0 -5 -5 -14 -12 -21 -20 -20 36 -32 148 -32 71 0 131 -6 182 -19 115
-29 170 -35 186 -21 8 6 13 17 10 23 -3 9 17 11 76 9 77 -3 80 -3 91 22 9 20
20 26 43 27 40 0 137 21 155 33 9 6 17 4 23 -7 14 -26 92 -41 193 -38 40 1 95
71 163 208 39 78 113 184 313 448 l261 346 30 97 c32 102 1387 4282 2468 7612
353 1086 654 2016 670 2065 37 119 438 1358 500 1548 l48 148 -42 62 -42 61
-179 58 c-99 32 -191 57 -205 56 -14 0 -38 -3 -55 -5z"/>
</g>
</svg>
