<?xml version="1.0" standalone="no"?>
<!DOCTYPE svg PUBLIC "-//W3C//DTD SVG 20010904//EN"
 "http://www.w3.org/TR/2001/REC-SVG-20010904/DTD/svg10.dtd">
<svg version="1.0" xmlns="http://www.w3.org/2000/svg"
 width="1196.000000pt" height="1280.000000pt" viewBox="0 0 1196.000000 1280.000000"
 preserveAspectRatio="xMidYMid meet">
<metadata>
Created by potrace 1.15, written by Peter Selinger 2001-2017
</metadata>
<g transform="translate(0.000000,1280.000000) scale(0.100000,-0.100000)"
fill="#000000" stroke="none">
<path d="M11910 12793 c-1133 -188 -2447 -731 -3585 -1482 -1384 -912 -2556
-2154 -3465 -3671 -343 -572 -697 -1281 -929 -1863 -13 -31 -24 -57 -26 -57
-1 0 -40 18 -86 39 -146 69 -309 88 -466 55 -255 -52 -432 -208 -521 -457 -23
-65 -26 -87 -26 -227 -1 -159 2 -177 59 -321 5 -13 -13 -27 -81 -63 -249 -132
-429 -297 -586 -536 -86 -130 -165 -292 -211 -430 -96 -288 -100 -524 -16
-930 82 -394 82 -394 83 -590 1 -121 -4 -209 -13 -255 -65 -327 -297 -715
-607 -1015 -174 -168 -310 -260 -477 -324 -116 -44 -150 -53 -267 -67 -204
-24 -458 43 -632 167 -27 19 -48 31 -48 28 0 -13 110 -141 185 -217 331 -329
746 -521 1230 -568 542 -53 1329 148 1960 500 779 435 1379 1085 1793 1941 47
96 85 176 86 177 1 0 35 -11 76 -25 69 -25 88 -27 230 -27 141 1 162 3 235 28
354 119 545 481 450 853 -20 76 -83 207 -125 259 l-32 40 34 27 c597 473 968
795 1417 1233 1676 1634 2888 3367 3676 5260 289 695 534 1500 681 2243 30
150 54 275 54 278 0 4 -10 4 -50 -3z"/>
</g>
</svg>
