<?xml version="1.0" standalone="no"?>
<!DOCTYPE svg PUBLIC "-//W3C//DTD SVG 20010904//EN"
 "http://www.w3.org/TR/2001/REC-SVG-20010904/DTD/svg10.dtd">
<svg version="1.0" xmlns="http://www.w3.org/2000/svg"
 width="1280.000000pt" height="970.000000pt" viewBox="0 0 1280.000000 970.000000"
 preserveAspectRatio="xMidYMid meet">
<metadata>
Created by potrace 1.15, written by Peter Selinger 2001-2017
</metadata>
<g transform="translate(0.000000,970.000000) scale(0.100000,-0.100000)"
fill="#000000" stroke="none">
<path d="M9701 9653 c2 -30 3 -32 6 -10 5 32 10 33 42 10 14 -9 21 -11 17 -5
-4 7 -20 19 -37 27 l-29 16 1 -38z"/>
<path d="M9772 9610 c0 -14 2 -19 5 -12 2 6 2 18 0 25 -3 6 -5 1 -5 -13z"/>
<path d="M9711 9594 c0 -11 3 -14 6 -6 3 7 2 16 -1 19 -3 4 -6 -2 -5 -13z"/>
<path d="M9890 9591 c0 -25 6 -27 13 -6 4 8 2 17 -3 20 -6 4 -10 -3 -10 -14z"/>
<path d="M9721 9544 c0 -11 3 -14 6 -6 3 7 2 16 -1 19 -3 4 -6 -2 -5 -13z"/>
<path d="M9855 9547 c-93 -23 -175 -46 -245 -71 -41 -14 -104 -30 -140 -35
-36 -6 -43 -8 -16 -5 27 2 47 2 44 -1 -6 -6 -240 -95 -248 -94 -3 0 13 9 35
20 l40 19 -40 -6 c-22 -3 -48 -8 -57 -11 -10 -2 -18 -2 -18 1 0 3 25 13 55 22
30 10 53 19 51 22 -6 6 -94 -24 -196 -65 -84 -34 -280 -139 -280 -150 0 -2 20
7 45 22 25 14 50 23 57 19 6 -4 8 -3 5 2 -3 6 9 10 28 10 19 0 33 -1 32 -2
-10 -10 -689 -275 -4122 -1609 -2398 -932 -2597 -1009 -2735 -1057 -156 -54
-372 -133 -770 -283 -184 -69 -340 -123 -348 -120 -7 2 -11 1 -8 -4 7 -11 -22
-23 -35 -15 -5 3 -9 0 -9 -5 0 -6 -6 -11 -12 -11 -23 0 -323 -132 -344 -151
-11 -11 -24 -19 -29 -19 -5 0 0 7 11 15 18 14 17 15 -11 9 -38 -9 -90 -36 -92
-49 -1 -5 -57 -32 -125 -58 -68 -27 -126 -52 -131 -56 -4 -4 13 -62 38 -130
25 -67 45 -125 45 -129 0 -4 -33 -27 -73 -52 -39 -24 -102 -74 -138 -111 -108
-109 -135 -190 -105 -310 20 -75 37 -95 90 -105 l39 -7 -6 34 c-6 31 -5 32 8
14 41 -58 32 -57 130 -14 91 39 144 81 111 87 -9 2 -52 -6 -96 -17 -44 -12
-100 -21 -125 -21 -40 0 -47 3 -55 26 -16 42 -11 102 11 147 36 69 225 244
244 225 8 -7 135 -361 135 -374 0 -13 -53 -38 -79 -37 -9 0 -25 -7 -36 -17
-11 -10 -56 -36 -100 -58 -95 -49 -169 -117 -198 -181 -16 -35 -21 -67 -22
-136 0 -100 14 -151 51 -188 19 -20 23 -30 16 -44 -12 -23 -1 -63 21 -77 29
-18 111 18 257 115 75 49 139 89 143 89 4 0 -11 -23 -33 -51 -22 -28 -58 -88
-81 -134 -69 -139 -64 -240 19 -399 20 -38 44 -71 55 -74 12 -3 16 -10 11 -21
-4 -9 -14 -42 -22 -74 -14 -54 -14 -61 7 -123 31 -94 122 -224 121 -171 -1 6
-7 39 -15 72 -23 93 -19 147 16 230 43 103 95 186 158 250 30 30 57 55 61 55
13 0 163 -431 154 -440 -15 -15 -124 -38 -214 -45 -46 -4 -93 -11 -103 -17
-14 -7 -22 -5 -33 9 -16 21 -18 4 -3 -29 10 -22 13 -23 92 -16 45 3 102 7 126
7 l44 1 -75 -78 c-84 -88 -125 -162 -141 -257 -9 -52 -7 -70 11 -130 25 -83
76 -168 98 -163 8 2 25 32 39 72 13 37 31 76 39 85 9 10 16 24 17 32 1 26 176
362 181 348 3 -8 34 -92 68 -187 l62 -173 -23 -16 c-43 -28 -242 -237 -254
-268 -13 -31 -19 -87 -16 -164 1 -36 7 -50 39 -81 54 -54 84 -57 219 -22 l112
29 -48 -71 c-113 -166 -144 -290 -98 -395 25 -57 63 -103 104 -128 33 -19 42
-30 37 -42 -23 -55 -8 -215 30 -306 25 -60 36 -42 35 59 l-1 95 72 138 c78
148 131 233 137 217 2 -5 32 -87 67 -183 l62 -175 -116 -115 c-205 -204 -225
-301 -110 -531 15 -30 37 -63 48 -73 18 -17 21 -17 36 -2 9 9 20 24 25 34 13
23 74 217 101 316 25 94 60 194 70 200 7 4 130 -321 130 -341 -1 -5 -21 -25
-46 -44 -73 -56 -194 -188 -215 -233 -10 -23 -19 -61 -19 -85 0 -54 75 -320
97 -345 27 -29 17 -50 173 358 34 88 65 163 69 168 4 4 28 -49 53 -118 l45
-126 -71 -53 c-107 -80 -189 -167 -227 -243 -45 -89 -51 -189 -17 -273 34 -80
50 -73 65 29 19 133 71 267 150 382 42 62 102 133 108 127 8 -8 115 -312 113
-320 -2 -5 -62 -33 -133 -63 -110 -46 -137 -61 -172 -100 -47 -51 -76 -127
-88 -230 -9 -84 4 -115 49 -115 19 0 62 -7 97 -16 45 -12 95 -15 179 -13 112
4 121 6 187 40 l69 35 124 -23 c71 -14 141 -22 162 -18 28 4 39 1 47 -12 8
-15 176 37 1638 506 3459 1113 4057 1304 5269 1691 688 220 1255 400 1260 400
5 0 209 -514 453 -1142 244 -629 455 -1158 468 -1175 23 -32 26 -33 97 -33 40
0 92 7 117 15 24 8 86 21 138 30 94 16 175 48 202 81 7 9 14 39 15 66 1 38 6
54 28 77 19 20 28 42 31 73 4 41 -39 157 -420 1138 -234 601 -424 1094 -422
1096 3 3 947 302 1102 349 110 34 106 31 96 58 -8 20 7 78 39 152 5 11 11 29
14 40 6 22 40 -55 -1216 2770 -888 1996 -1005 2262 -1210 2755 -17 41 -52 120
-78 175 -26 55 -66 146 -90 203 -24 56 -47 102 -52 102 -5 0 -51 25 -103 55
-97 57 -115 61 -190 42z m-865 -287 c-8 -5 -19 -10 -25 -10 -5 0 -3 5 5 10 8
5 20 10 25 10 6 0 3 -5 -5 -10z m-8391 -4426 l64 -176 -45 -44 -44 -45 -39 29
c-36 25 -42 27 -65 15 -14 -7 -77 -37 -142 -67 l-116 -54 -11 62 c-6 35 -11
76 -11 92 0 38 22 69 43 61 13 -5 22 10 44 70 29 78 57 113 128 163 41 28 116
70 125 70 3 0 34 -79 69 -176z m171 -474 l53 -150 -111 -108 c-60 -59 -124
-127 -141 -151 l-31 -44 0 129 c0 125 13 210 29 199 5 -2 11 18 15 45 9 67 98
230 126 230 4 0 31 -68 60 -150z m540 -1492 l57 -155 -26 -32 c-22 -27 -37
-34 -92 -43 -64 -11 -66 -11 -102 16 -45 34 -77 84 -77 119 0 49 49 140 108
200 31 31 61 56 66 54 5 -2 34 -73 66 -159z m159 -436 c22 -63 41 -118 41
-124 0 -5 -29 -42 -66 -81 -36 -40 -77 -91 -92 -114 -15 -24 -30 -43 -33 -43
-4 0 -12 20 -19 45 -15 52 -8 126 21 233 22 84 87 219 99 206 4 -5 26 -60 49
-122z m730 -2019 c30 -76 101 -278 101 -287 0 -11 -365 -76 -426 -76 -26 0
-33 6 -52 45 -55 113 -18 170 171 266 172 88 189 92 206 52z"/>
<path d="M9345 9420 c-25 -11 1 -11 35 0 20 6 21 8 5 8 -11 0 -29 -3 -40 -8z"/>
<path d="M2370 6689 c-30 -10 -62 -22 -70 -25 -8 -4 -26 -8 -39 -10 -13 -1
-26 -6 -29 -9 -13 -13 67 5 133 30 102 39 106 50 5 14z"/>
<path d="M2175 6630 c-13 -5 -14 -9 -5 -9 8 0 24 4 35 9 13 5 14 9 5 9 -8 0
-24 -4 -35 -9z"/>
<path d="M2128 6613 c7 -3 16 -2 19 1 4 3 -2 6 -13 5 -11 0 -14 -3 -6 -6z"/>
<path d="M2048 6593 c7 -3 16 -2 19 1 4 3 -2 6 -13 5 -11 0 -14 -3 -6 -6z"/>
<path d="M1910 6550 c-8 -5 -10 -10 -5 -10 6 0 17 5 25 10 8 5 11 10 5 10 -5
0 -17 -5 -25 -10z"/>
<path d="M1780 6490 c-30 -16 -50 -29 -45 -29 6 0 35 13 65 29 30 16 51 29 45
29 -5 0 -35 -13 -65 -29z"/>
<path d="M1650 6430 c-8 -5 -10 -10 -5 -10 6 0 17 5 25 10 8 5 11 10 5 10 -5
0 -17 -5 -25 -10z"/>
<path d="M1560 6390 c-8 -5 -10 -10 -5 -10 6 0 17 5 25 10 8 5 11 10 5 10 -5
0 -17 -5 -25 -10z"/>
<path d="M1510 6370 c-8 -5 -10 -10 -5 -10 6 0 17 5 25 10 8 5 11 10 5 10 -5
0 -17 -5 -25 -10z"/>
<path d="M1340 6310 c-8 -5 -10 -10 -5 -10 6 0 17 5 25 10 8 5 11 10 5 10 -5
0 -17 -5 -25 -10z"/>
<path d="M1230 6270 c-8 -5 -10 -10 -5 -10 6 0 17 5 25 10 8 5 11 10 5 10 -5
0 -17 -5 -25 -10z"/>
<path d="M1180 6250 c-8 -5 -10 -10 -5 -10 6 0 17 5 25 10 8 5 11 10 5 10 -5
0 -17 -5 -25 -10z"/>
<path d="M1090 6210 c-8 -5 -10 -10 -5 -10 6 0 17 5 25 10 8 5 11 10 5 10 -5
0 -17 -5 -25 -10z"/>
<path d="M430 5930 c-8 -5 -10 -10 -5 -10 6 0 17 5 25 10 8 5 11 10 5 10 -5 0
-17 -5 -25 -10z"/>
<path d="M270 5870 c-8 -5 -10 -10 -5 -10 6 0 17 5 25 10 8 5 11 10 5 10 -5 0
-17 -5 -25 -10z"/>
</g>
</svg>
