<?xml version="1.0" standalone="no"?>
<!DOCTYPE svg PUBLIC "-//W3C//DTD SVG 20010904//EN"
 "http://www.w3.org/TR/2001/REC-SVG-20010904/DTD/svg10.dtd">
<svg version="1.0" xmlns="http://www.w3.org/2000/svg"
 width="640.000000pt" height="1280.000000pt" viewBox="0 0 640.000000 1280.000000"
 preserveAspectRatio="xMidYMid meet">
<metadata>
Created by potrace 1.15, written by Peter Selinger 2001-2017
</metadata>
<g transform="translate(0.000000,1280.000000) scale(0.100000,-0.100000)"
fill="#000000" stroke="none">
<path d="M2942 12780 c-21 -13 -42 -40 -57 -73 l-25 -52 0 -5464 0 -5464 91
-461 c49 -254 117 -598 150 -766 33 -168 68 -344 77 -392 9 -49 19 -88 22 -88
3 0 32 136 64 303 73 377 140 714 216 1104 l60 302 0 5463 0 5463 -25 52 c-41
90 -51 93 -315 93 -208 0 -228 -2 -258 -20z"/>
</g>
</svg>
