<?xml version="1.0" standalone="no"?>
<!DOCTYPE svg PUBLIC "-//W3C//DTD SVG 20010904//EN"
 "http://www.w3.org/TR/2001/REC-SVG-20010904/DTD/svg10.dtd">
<svg version="1.0" xmlns="http://www.w3.org/2000/svg"
 width="640.000000pt" height="1280.000000pt" viewBox="0 0 640.000000 1280.000000"
 preserveAspectRatio="xMidYMid meet">
<metadata>
Created by potrace 1.15, written by Peter Selinger 2001-2017
</metadata>
<g transform="translate(0.000000,1280.000000) scale(0.100000,-0.100000)"
fill="#000000" stroke="none">
<path d="M4148 12790 c-60 -11 -142 -37 -190 -61 -21 -11 -53 -19 -72 -19 -53
0 -156 -36 -213 -75 -29 -19 -58 -35 -64 -35 -19 0 -2 -108 27 -167 28 -58 71
-100 112 -109 15 -3 54 -17 86 -31 85 -36 188 -68 318 -97 157 -35 228 -41
252 -23 19 14 19 15 -2 26 -11 6 -96 27 -189 46 -208 43 -406 105 -459 144
-67 48 -87 110 -62 191 13 42 40 59 118 75 l35 7 -34 -35 c-34 -36 -37 -67 -5
-67 8 0 41 20 72 45 64 49 160 96 242 116 88 22 269 17 374 -10 116 -30 259
-89 329 -135 119 -79 206 -207 249 -365 28 -102 30 -335 5 -464 -50 -251 -164
-446 -312 -532 -41 -25 -58 -45 -36 -45 5 0 5 -19 0 -43 -17 -94 -40 -504 -33
-608 l6 -105 -122 -117 -123 -116 -58 5 c-34 2 -68 0 -80 -7 -12 -6 -31 -8
-44 -5 -35 9 -121 77 -160 127 l-35 45 -5 180 c-2 98 -6 190 -7 203 -3 21 7
27 92 61 146 58 184 76 201 96 28 33 115 185 163 283 44 90 61 168 35 159 -6
-2 -41 -62 -78 -133 -37 -72 -88 -164 -113 -205 -40 -67 -52 -78 -104 -104
-155 -76 -462 -170 -533 -164 -34 3 -35 4 -69 98 -39 111 -82 265 -82 298 0
20 5 22 54 22 l54 0 11 -92 c7 -51 18 -118 26 -148 l14 -55 -4 45 c-2 25 -7
90 -11 146 l-6 101 48 -7 c27 -4 79 -13 116 -20 75 -15 95 -8 60 21 -29 23
-78 37 -159 45 -58 6 -61 8 -67 37 -14 71 0 536 16 553 5 4 83 8 175 8 119 1
167 4 170 13 8 23 -78 38 -215 37 l-134 -2 6 32 c17 103 47 340 43 354 -9 41
-58 -177 -72 -325 l-7 -72 -77 -23 c-91 -29 -90 -32 -66 104 20 119 67 280
105 365 52 113 23 82 -34 -38 -58 -120 -96 -248 -117 -389 -6 -47 -17 -88 -23
-92 -7 -5 -8 -11 -1 -15 6 -5 10 -80 11 -188 1 -266 51 -542 136 -755 l34 -84
85 -3 c65 -3 106 2 178 21 l92 24 -2 -147 c-2 -142 -2 -146 -23 -147 -13 -1
-83 -63 -186 -165 l-164 -164 -8 32 c-5 18 -13 35 -18 38 -22 14 -7 22 46 28
54 6 104 28 104 47 0 18 -42 21 -142 9 -201 -23 -604 7 -635 47 -20 27 -57
-10 -133 -132 -72 -118 -81 -141 -55 -150 21 -8 19 -18 -7 -29 -13 -6 -27 -23
-32 -40 -6 -16 -11 -32 -13 -34 -1 -2 -15 6 -31 18 -37 26 -53 26 -100 2 -53
-27 -245 -88 -327 -105 -106 -22 -294 -39 -384 -35 -45 3 -81 1 -81 -3 0 -5 6
-8 13 -8 17 0 77 -91 77 -116 0 -12 14 -54 30 -94 17 -40 28 -75 26 -77 -2 -3
-21 26 -42 64 -21 37 -49 82 -63 99 -14 18 -41 60 -60 93 -21 37 -40 60 -47
57 -8 -3 -20 18 -34 59 -24 71 -76 149 -255 379 -106 136 -116 152 -106 173 9
20 8 23 -7 21 -14 -3 -18 7 -22 55 -5 59 -24 87 -57 87 -7 0 -13 6 -13 14 0
21 -113 293 -165 397 -26 51 -69 125 -94 164 -26 38 -60 92 -76 119 -33 59
-169 204 -240 256 -73 54 -153 97 -206 110 -82 20 -150 -28 -133 -94 5 -23
240 -261 318 -323 l39 -31 -52 -49 c-93 -85 -151 -145 -151 -154 0 -4 -11 -19
-25 -33 -14 -14 -25 -31 -25 -39 0 -29 72 -156 110 -196 45 -47 44 -49 -10
-21 -53 27 -89 77 -96 134 -9 60 -20 67 -27 15 -15 -116 89 -219 223 -219 l57
0 12 -39 c10 -37 60 -91 82 -91 5 0 13 -10 18 -22 9 -25 -22 -78 -45 -78 -19
0 -25 -28 -18 -80 5 -42 3 -52 -23 -88 -39 -53 -55 -112 -51 -187 3 -56 5 -60
28 -63 18 -2 33 -16 52 -51 99 -175 362 -487 591 -700 37 -34 67 -68 68 -74 0
-14 81 -77 129 -102 34 -18 290 -43 465 -45 108 -2 321 14 465 35 58 8 108 15
111 15 4 0 9 -18 13 -41 7 -45 4 -59 -116 -484 -162 -578 -406 -1356 -429
-1370 -5 -4 -7 -10 -4 -15 6 -9 -107 -333 -247 -707 -57 -154 -96 -243 -104
-243 -16 0 -19 -16 -4 -25 6 -4 4 -19 -5 -42 -8 -19 -15 -42 -15 -49 0 -27 30
-13 48 22 l19 36 68 -76 c55 -61 85 -85 143 -114 141 -69 232 -43 380 107 l84
86 141 -3 c152 -4 222 4 385 44 57 14 106 23 109 21 2 -3 -11 -74 -31 -159
-19 -84 -55 -244 -80 -356 -25 -111 -84 -346 -131 -522 -218 -818 -318 -1285
-284 -1326 6 -8 18 -14 26 -14 9 0 13 -6 10 -14 -3 -8 -9 -32 -13 -53 -9 -54
-18 -63 -25 -28 -17 88 -20 -228 -10 -983 6 -460 11 -1036 11 -1279 l-1 -443
-30 15 c-44 23 -35 1 14 -35 l43 -31 -212 -210 c-242 -240 -298 -286 -407
-330 -90 -36 -127 -73 -127 -125 0 -45 19 -125 34 -142 21 -22 314 -92 411
-98 110 -7 251 14 379 57 87 29 261 115 299 147 12 11 36 15 82 13 36 -1 111
6 166 15 121 21 119 18 119 174 0 110 -16 221 -44 297 l-15 42 34 21 c18 11
36 28 40 38 7 18 35 696 55 1322 14 440 10 1283 -7 1320 -12 25 -12 25 -12 -7
-1 -22 -6 -33 -16 -33 -19 0 -19 24 -1 53 27 43 435 1004 499 1177 62 165 148
432 177 548 25 94 28 83 60 -213 35 -329 42 -440 47 -822 4 -313 2 -391 -12
-495 -13 -93 -16 -178 -14 -348 7 -440 -23 -814 -142 -1765 -20 -164 -36 -348
-45 -535 -5 -97 -4 -108 18 -149 15 -27 37 -51 56 -60 l33 -16 -7 -195 c-3
-107 -8 -198 -10 -201 -2 -4 -4 -48 -5 -98 -1 -58 -5 -91 -12 -91 -7 0 -7 -4
1 -12 7 -7 12 -32 12 -57 0 -39 5 -49 42 -84 51 -49 136 -104 190 -123 48 -17
105 -18 179 -4 30 6 98 15 152 20 55 5 117 18 141 29 44 19 126 86 126 102 0
12 -37 11 -45 -1 -3 -5 -26 -22 -51 -36 -37 -22 -68 -29 -162 -39 -64 -7 -156
-19 -203 -26 l-86 -13 -67 32 c-90 42 -165 98 -172 128 -10 39 1 39 58 2 125
-83 127 -83 296 -81 196 3 304 17 365 47 26 13 50 19 53 15 10 -17 22 -9 29
19 4 15 6 80 6 146 -1 104 -4 125 -26 173 -45 100 -226 384 -232 366 -2 -6 12
-44 32 -84 32 -63 35 -73 21 -81 -9 -5 -16 -17 -16 -27 0 -27 -7 -29 -62 -14
-29 7 -71 13 -94 13 -67 0 -124 31 -124 67 0 3 42 2 93 -2 77 -5 95 -4 106 9
10 12 8 18 -15 33 -21 13 -52 19 -121 21 -51 2 -93 7 -93 12 0 4 33 10 74 12
85 6 178 45 207 88 14 19 24 87 44 280 138 1339 383 3092 495 3540 27 107 55
231 64 275 8 44 26 116 40 160 41 129 98 355 106 420 4 33 20 112 35 175 15
66 29 160 32 220 4 87 9 112 30 148 21 38 26 41 45 31 24 -13 38 1 38 39 0 13
6 22 15 22 12 0 15 -14 15 -70 0 -57 3 -72 17 -77 49 -19 183 274 229 499 10
52 19 161 23 293 l6 210 43 97 c45 104 51 151 27 198 -19 37 -29 39 -23 5 3
-14 3 -25 1 -25 -13 0 -103 77 -103 87 0 10 5 11 18 5 23 -13 61 3 70 29 8 21
9 21 26 -6 12 -18 24 -25 39 -23 21 3 22 7 18 71 -3 65 -2 68 33 107 43 48 51
74 51 170 -1 61 -9 99 -43 202 -52 158 -68 254 -87 543 -53 788 -76 1065 -94
1132 -14 51 -23 -79 -16 -231 12 -255 65 -1079 76 -1166 12 -105 38 -216 78
-337 35 -104 40 -183 16 -240 -8 -20 -18 -34 -21 -31 -3 4 -12 32 -20 65 -9
32 -27 77 -40 100 -18 30 -28 73 -39 152 -8 60 -19 138 -25 173 -5 34 -10 104
-11 153 0 50 -5 117 -10 150 -16 109 -30 365 -37 691 -6 297 -8 324 -26 343
-11 12 -26 21 -34 21 -10 0 -12 6 -8 23 12 36 19 153 12 181 -6 26 -51 56 -82
56 -32 0 -139 58 -173 94 l-35 36 90 -37 c114 -47 294 -102 311 -96 7 3 13 15
13 28 0 19 -11 25 -77 44 -143 41 -274 94 -453 181 l-176 87 -74 104 c-70 98
-269 312 -298 321 -12 3 -11 50 1 283 9 154 14 292 11 306 -5 23 0 30 48 57
110 62 206 196 265 374 46 137 64 250 64 410 0 433 -180 659 -616 773 -110 29
-291 41 -377 25z m-484 -217 c-7 -16 -14 -41 -15 -58 0 -30 -1 -30 -15 9 -13
36 -12 39 9 57 31 26 38 23 21 -8z m17 -1100 c-2 -184 -7 -290 -13 -294 -16
-10 -90 -21 -96 -14 -14 13 -32 195 -38 371 -6 155 -4 193 7 199 16 11 73 22
114 24 l30 1 -4 -287z m-3154 127 c163 -74 389 -298 481 -477 61 -119 130
-278 183 -421 26 -67 52 -119 71 -138 29 -31 29 -33 14 -62 -23 -44 -101 -109
-178 -148 -76 -38 -98 -42 -98 -16 0 25 -53 113 -85 141 l-28 24 29 12 c16 6
35 19 43 28 7 10 28 17 47 17 18 0 36 5 39 10 3 6 -3 10 -15 10 -47 0 -79 29
-116 105 -19 42 -45 82 -57 89 -12 8 -55 16 -95 19 -80 5 -112 23 -112 63 0
36 45 53 181 66 l122 12 14 34 c17 41 14 66 -10 70 -13 3 -22 -6 -29 -26 -8
-22 -20 -32 -41 -36 -36 -7 -44 -2 -27 19 7 8 10 22 6 30 -8 21 -36 19 -36 -3
0 -38 -27 -59 -84 -66 -30 -3 -66 -11 -80 -17 -54 -25 -106 18 -92 75 4 15 34
48 75 81 38 30 73 65 77 77 4 13 11 26 16 29 15 10 -59 95 -205 236 -76 73
-137 138 -137 145 0 41 59 49 127 18z m52 -701 c21 -15 31 -31 31 -49 0 -30
22 -65 53 -82 12 -7 58 -15 102 -18 88 -6 76 4 129 -107 24 -51 24 -53 6 -63
-32 -17 -70 -11 -95 15 -25 24 -28 33 -29 90 -1 30 -2 30 -49 27 -85 -5 -160
58 -223 191 -17 35 -17 37 1 57 l19 21 12 -30 c7 -16 26 -39 43 -52z m4189
-371 c16 -16 15 -25 -2 -31 -9 -4 -16 3 -19 19 -5 26 2 31 21 12z m-3832 -114
c8 -20 13 -39 10 -42 -5 -4 -36 58 -36 73 0 16 13 0 26 -31z m3864 -14 c0 -38
-1 -39 -25 -28 l-24 11 22 28 c12 15 23 28 25 28 1 1 2 -17 2 -39z m-3907 7
c3 -7 -3 -18 -12 -24 -16 -10 -17 -8 -13 13 5 26 17 32 25 11z m4026 -98 c-8
-5 -16 -9 -19 -8 -12 0 -50 73 -50 96 0 22 4 19 41 -27 32 -41 38 -54 28 -61z
m-3527 4 c25 -38 91 -131 148 -208 57 -77 113 -162 126 -190 12 -27 41 -124
63 -215 59 -239 60 -240 51 -240 -4 0 -11 21 -15 47 -17 117 -114 335 -187
420 -124 146 -274 303 -303 319 l-33 18 51 58 c28 32 52 58 53 58 0 0 21 -30
46 -67z m2553 6 c-6 -19 -9 -20 -22 -6 -12 12 -13 19 -3 37 11 21 13 21 22 6
5 -9 6 -26 3 -37z m-3095 -14 c0 -8 -4 -15 -10 -15 -5 0 -7 7 -4 15 4 8 8 15
10 15 2 0 4 -7 4 -15z m2174 -44 c15 -6 12 -9 -18 -18 -37 -11 -45 -6 -24 15
13 13 15 14 42 3z m-2154 -39 c0 -15 -2 -15 -10 -2 -13 20 -13 33 0 25 6 -3
10 -14 10 -23z m-65 -32 c3 -5 -1 -10 -10 -10 -9 0 -13 5 -10 10 3 6 8 10 10
10 2 0 7 -4 10 -10z m370 0 c-3 -5 -11 -10 -16 -10 -6 0 -7 5 -4 10 3 6 11 10
16 10 6 0 7 -4 4 -10z m2304 -1 c-15 -6 -46 -6 -80 0 l-54 9 80 0 c61 0 74 -2
54 -9z m-559 -124 c-5 -77 -13 -113 -32 -157 -37 -80 -58 -98 -115 -98 -29 0
-66 -10 -100 -25 -52 -25 -53 -26 -53 -70 l0 -45 -20 20 c-21 21 -46 25 -69
11 -8 -5 -25 -2 -45 8 -26 13 -65 16 -251 14 -213 -2 -221 -3 -238 -24 l-18
-22 -6 21 c-3 12 -11 22 -17 22 -7 0 -26 15 -44 33 l-31 32 187 1 c176 0 194
2 304 31 64 17 155 50 203 72 95 45 116 49 135 26 20 -24 50 -28 69 -11 17 16
19 15 31 -14 8 -19 19 -30 29 -28 21 4 32 94 20 161 -8 45 -7 50 27 98 20 27
37 49 38 47 1 -2 -1 -48 -4 -103z m1570 95 c0 -5 -2 -10 -4 -10 -3 0 -8 5 -11
10 -3 6 -1 10 4 10 6 0 11 -4 11 -10z m-760 -59 c-25 -40 -37 -51 -58 -51 -25
0 -24 3 28 55 29 30 55 53 57 51 3 -2 -10 -27 -27 -55z m723 13 c44 -34 57
-50 52 -62 -4 -9 -14 -44 -21 -77 -28 -119 -95 -188 -174 -183 -34 3 -35 4
-61 83 -14 44 -33 94 -42 112 l-17 32 33 25 c19 15 38 26 44 26 5 0 18 9 28
20 10 11 23 20 30 20 6 0 22 11 35 25 13 14 26 25 29 25 3 0 32 -21 64 -46z
m783 -80 c38 -25 70 -47 71 -48 1 -1 -19 -2 -46 -2 -47 0 -48 1 -73 48 -14 26
-25 48 -23 48 1 0 33 -21 71 -46z m-4416 -33 c0 -17 -18 -21 -24 -6 -3 9 0 15
9 15 8 0 15 -4 15 -9z m2775 -71 c9 -15 -2 -9 -47 24 -29 20 -38 42 -15 33 8
-3 20 -1 28 4 10 6 15 1 20 -20 3 -15 9 -34 14 -41z m315 -27 c-1 -28 -3 -34
-10 -22 -8 14 -3 59 6 59 2 0 4 -17 4 -37z m130 -23 c0 -5 -5 -10 -11 -10 -5
0 -7 5 -4 10 3 6 8 10 11 10 2 0 4 -4 4 -10z m-406 -49 c3 -5 -1 -11 -9 -15
-9 -3 -15 0 -15 9 0 16 16 20 24 6z m321 -68 c-8 -27 -15 -49 -15 -50 0 -2 -5
-3 -11 -3 -14 0 -1 82 15 92 22 15 25 7 11 -39z m292 -14 c12 -12 126 -8 156
5 15 7 17 1 17 -57 0 -150 71 -1242 120 -1857 33 -408 34 -420 22 -420 -19 0
-25 -40 -8 -59 15 -17 12 -23 -51 -97 -37 -43 -114 -126 -171 -183 l-104 -104
-13 30 c-7 16 -72 95 -144 174 l-130 144 0 100 c1 55 5 123 9 150 6 34 7 4 4
-90 -5 -148 3 -188 30 -153 9 12 16 66 20 160 31 625 101 1322 192 1913 23
148 35 252 32 293 -4 63 -1 71 19 51z m881 -3 c15 -8 36 -24 47 -37 18 -20 16
-20 -20 4 -22 15 -45 27 -52 27 -7 0 -13 5 -13 10 0 13 6 13 38 -4z m-1633
-14 c-47 -39 -89 -64 -93 -54 -7 22 -3 26 40 43 47 20 68 24 53 11z m-1635
-145 c0 -10 16 -49 36 -88 19 -39 34 -72 32 -74 -2 -1 -20 0 -41 3 -29 3 -41
10 -47 28 -8 20 -41 232 -40 252 1 14 59 -104 60 -121z m1507 56 c-3 -10 -5
-4 -5 12 0 17 2 24 5 18 2 -7 2 -21 0 -30z m1860 -135 c-3 -8 -6 -5 -6 6 -1
11 2 17 5 13 3 -3 4 -12 1 -19z m-10 -40 c-3 -8 -6 -5 -6 6 -1 11 2 17 5 13 3
-3 4 -12 1 -19z m-3174 -58 c-5 -5 -42 41 -43 53 0 4 11 -5 24 -20 13 -15 22
-30 19 -33z m3157 3 c-11 -17 -11 -17 -6 0 3 10 6 24 7 30 0 9 2 9 5 0 3 -7 0
-20 -6 -30z m-43 -135 c-3 -8 -6 -5 -6 6 -1 11 2 17 5 13 3 -3 4 -12 1 -19z
m-3468 -14 c2 -2 -7 -4 -22 -4 -14 0 -29 5 -32 10 -6 10 42 4 54 -6z m3458
-26 c-3 -8 -6 -5 -6 6 -1 11 2 17 5 13 3 -3 4 -12 1 -19z m-3642 -28 c8 -12
-12 -40 -27 -40 -6 0 -5 6 2 15 6 8 9 19 5 25 -3 5 -2 10 4 10 5 0 13 -5 16
-10z m1181 -17 c-7 -16 -18 -39 -24 -53 l-11 -25 0 27 c-1 14 -3 33 -6 40 -4
9 4 19 17 26 35 16 38 14 24 -15z m1161 -45 c-3 -8 -6 -5 -6 6 -1 11 2 17 5
13 3 -3 4 -12 1 -19z m-26 -130 c-39 -183 -134 -563 -138 -551 -3 7 3 40 12
75 20 73 27 104 91 380 50 214 73 277 35 96z m-1134 80 c-3 -8 -6 -5 -6 6 -1
11 2 17 5 13 3 -3 4 -12 1 -19z m762 -559 c0 -124 -2 -255 -6 -290 -11 -87
-20 308 -13 561 l4 185 7 -115 c3 -63 7 -217 8 -341z m1588 229 c-3 -8 -6 -5
-6 6 -1 11 2 17 5 13 3 -3 4 -12 1 -19z m-10 -55 c-3 -10 -5 -4 -5 12 0 17 2
24 5 18 2 -7 2 -21 0 -30z m-2512 -334 c-54 -229 -73 -297 -126 -444 -21 -60
-50 -148 -63 -195 -22 -81 -65 -194 -72 -188 -1 2 24 89 57 193 57 182 202
682 230 794 7 29 15 49 16 44 2 -5 -17 -97 -42 -204z m2342 -21 c-3 -8 -6 -5
-6 6 -1 11 2 17 5 13 3 -3 4 -12 1 -19z m70 -520 c-3 -7 -5 -2 -5 12 0 14 2
19 5 13 2 -7 2 -19 0 -25z m-2565 -462 l116 -41 -46 -90 c-26 -50 -55 -101
-64 -115 -21 -29 -24 -70 -5 -70 19 0 40 26 72 88 14 30 28 52 30 50 2 -2 -8
-41 -22 -86 -22 -71 -28 -82 -48 -82 -33 0 -55 10 -55 24 0 13 -41 36 -63 36
-7 0 -45 15 -84 34 l-72 35 46 136 c38 114 48 135 62 129 9 -4 69 -25 133 -48z
m3454 -12 c18 -14 41 -24 49 -20 22 8 19 -21 -11 -84 -68 -145 -67 -141 -74
-365 -6 -162 -12 -233 -30 -309 -24 -109 -65 -228 -104 -303 l-25 -48 -1 47
c0 38 4 48 20 53 11 3 23 18 26 32 9 35 -4 242 -20 328 -17 88 -10 144 49 360
24 88 51 199 61 248 9 48 19 87 21 87 2 0 20 -12 39 -26z m-3686 -254 c17 -10
14 -15 -17 -24 -18 -6 -20 -4 -16 14 6 22 11 24 33 10z m2069 -139 c8 -5 9
-11 3 -15 -5 -3 -15 1 -22 9 -14 16 -3 20 19 6z m-1206 -72 c-52 -63 -60 -68
-26 -15 20 32 39 54 41 48 2 -6 -5 -20 -15 -33z m1220 -9 c3 -11 1 -18 -4 -14
-5 3 -9 12 -9 20 0 20 7 17 13 -6z m946 -20 c7 -22 9 -45 6 -50 -3 -5 4 -27
15 -50 l20 -40 -23 0 c-12 0 -65 -11 -117 -24 -111 -28 -370 -69 -379 -60 -3
3 -13 38 -22 77 -9 40 -19 79 -23 87 -5 13 32 22 236 56 134 23 250 42 259 42
10 1 20 -12 28 -38z m308 -52 c-3 -7 -5 -2 -5 12 0 14 2 19 5 13 2 -7 2 -19 0
-25z m-2243 -34 c29 -64 30 -68 15 -58 -20 12 -60 114 -45 114 3 0 16 -25 30
-56z m1378 -51 c2 -49 -1 -91 -6 -95 -6 -4 -5 -17 2 -33 7 -14 12 -28 12 -30
0 -7 -125 -43 -191 -55 -34 -6 -143 -15 -243 -20 -100 -4 -189 -11 -198 -15
-16 -6 -18 -1 -18 36 0 24 -12 76 -25 114 -14 39 -25 73 -25 76 0 4 28 10 63
13 34 4 186 27 337 51 151 23 278 43 282 44 3 1 8 -38 10 -86z m-2628 -20 c-9
-36 -46 -125 -50 -120 -5 4 47 147 53 147 2 0 0 -12 -3 -27z m1908 -76 l14
-73 -235 -19 c-302 -23 -419 -25 -432 -5 -8 13 -3 128 6 138 2 2 14 -2 26 -9
29 -15 248 -5 439 20 74 10 142 19 151 20 12 1 20 -16 31 -72z m1434 16 c-3
-10 1 -30 9 -45 18 -35 3 -36 -24 -2 -27 35 -27 64 0 64 15 0 19 -5 15 -17z
m105 -40 c13 -16 12 -17 -3 -4 -10 7 -18 15 -18 17 0 8 8 3 21 -13z m-2691
-83 c-12 -16 -24 -30 -26 -30 -3 0 4 14 16 30 12 17 24 30 26 30 3 0 -4 -13
-16 -30z m-900 -218 c-16 -50 -30 -104 -30 -119 0 -24 -2 -26 -15 -13 -13 13
-9 28 27 122 23 59 43 106 45 104 2 -1 -10 -44 -27 -94z m660 -92 c0 -5 -5
-10 -11 -10 -5 0 -7 5 -4 10 3 6 8 10 11 10 2 0 4 -4 4 -10z m859 -2957 c-1
-222 -12 -223 -23 -2 -5 105 -3 154 5 173 7 14 14 26 16 26 1 0 3 -89 2 -197z
m-804 -2370 c-20 -26 -46 -52 -56 -57 -41 -20 -27 -26 95 -41 27 -4 55 -9 62
-12 8 -3 14 -1 14 4 0 6 -18 18 -40 28 -46 21 -48 26 -19 66 27 38 52 37 122
-5 53 -32 73 -36 45 -8 -15 15 -15 15 60 -8 35 -11 75 -20 88 -20 13 0 24 -5
24 -12 0 -6 -37 -71 -82 -144 l-82 -133 -66 62 c-77 73 -197 156 -231 159 -49
6 -22 -28 71 -88 140 -91 173 -116 195 -151 11 -18 25 -31 30 -29 22 6 89 107
142 214 l55 112 124 0 c108 0 123 -2 128 -17 24 -81 36 -191 34 -298 l-3 -120
-35 -11 c-19 -7 -57 -15 -85 -18 l-50 -7 3 61 c2 36 -1 66 -8 74 -9 12 3 21
61 50 39 20 78 36 85 36 8 0 14 5 14 11 0 14 -68 3 -131 -21 -70 -26 -136 -76
-185 -140 -52 -66 -102 -96 -220 -133 -124 -39 -236 -58 -385 -64 -120 -5
-359 8 -411 23 -20 6 -42 66 -33 93 5 18 21 27 155 90 90 42 264 204 505 469
50 55 56 47 10 -15z m1634 -43 c98 -5 131 -22 69 -35 -43 -9 -139 -56 -133
-65 2 -4 32 -1 67 6 85 18 118 18 118 -1 0 -10 -10 -15 -30 -15 -48 0 -128
-20 -141 -36 -10 -12 -1 -14 57 -15 l69 0 -47 -19 c-26 -11 -66 -31 -88 -45
-22 -14 -42 -25 -45 -25 -3 0 -5 46 -5 103 0 56 -4 117 -10 135 -8 30 -7 33 8
26 9 -5 59 -11 111 -14z m553 -244 c51 -98 68 -164 68 -257 0 -86 -1 -92 -28
-119 -16 -15 -46 -33 -68 -39 -60 -17 -384 -45 -435 -37 -28 4 -84 28 -140 61
-78 45 -94 58 -93 77 2 28 35 263 37 264 1 0 25 14 52 31 68 43 118 61 195 72
78 11 133 7 214 -15 110 -30 119 -30 135 7 13 31 15 31 28 13 8 -10 24 -37 35
-58z m-1773 -218 c-39 -46 -84 -89 -98 -97 -47 -26 -276 -99 -357 -115 -158
-30 -216 -30 -409 -1 -99 14 -183 31 -187 38 -4 6 -6 12 -5 13 1 1 31 -5 67
-13 95 -21 329 -28 447 -13 205 25 427 106 504 182 34 35 99 88 106 88 3 0
-28 -37 -68 -82z m101 -4 c0 -20 -5 -24 -31 -24 l-30 0 21 30 c24 34 40 31 40
-6z"/>
<path d="M786 11073 c-14 -50 -17 -91 -6 -98 18 -11 28 6 36 63 5 43 4 52 -9
52 -9 0 -18 -8 -21 -17z"/>
<path d="M4575 384 c-96 -19 -297 -28 -372 -16 -35 5 -63 5 -63 1 0 -5 32 -18
71 -30 62 -19 87 -21 183 -16 115 6 255 40 264 65 4 14 9 14 -83 -4z"/>
<path d="M4443 12065 c-29 -82 -93 -282 -93 -293 0 -5 18 -17 40 -27 23 -10
57 -36 76 -58 39 -43 39 -46 13 -159 -10 -46 -10 -59 0 -72 19 -23 40 -20 45
7 2 12 9 46 15 75 25 123 0 177 -106 231 l-42 21 24 69 c51 151 78 342 28 206z"/>
<path d="M4615 11811 c-3 -6 -8 -33 -12 -59 -7 -66 10 -75 33 -17 16 44 18 45
60 45 52 0 56 -8 57 -130 1 -74 -2 -94 -24 -136 -32 -62 -78 -94 -136 -94 -47
0 -65 -19 -43 -45 43 -52 182 30 229 134 17 40 20 222 4 276 -9 30 -11 30 -85
33 -44 2 -79 -1 -83 -7z"/>
</g>
</svg>
