<?xml version="1.0" standalone="no"?>
<!DOCTYPE svg PUBLIC "-//W3C//DTD SVG 20010904//EN"
 "http://www.w3.org/TR/2001/REC-SVG-20010904/DTD/svg10.dtd">
<svg version="1.0" xmlns="http://www.w3.org/2000/svg"
 width="640.000000pt" height="1280.000000pt" viewBox="0 0 640.000000 1280.000000"
 preserveAspectRatio="xMidYMid meet">
<metadata>
Created by potrace 1.15, written by Peter Selinger 2001-2017
</metadata>
<g transform="translate(0.000000,1280.000000) scale(0.100000,-0.100000)"
fill="#000000" stroke="none">
<path d="M3763 12786 c-99 -23 -188 -71 -254 -137 -66 -66 -81 -101 -19 -46
130 118 322 169 505 134 118 -22 220 -65 399 -168 185 -106 186 -106 186 -86
0 34 -190 171 -324 233 -158 72 -357 101 -493 70z"/>
<path d="M3476 12562 c-3 -9 -1 -33 4 -52 6 -19 10 -36 10 -37 0 -2 -14 -3
-30 -3 -70 0 -162 -76 -206 -168 -31 -65 -36 -151 -11 -197 19 -37 24 -26 30
70 5 89 33 152 90 208 56 54 125 88 137 66 40 -71 139 -163 156 -146 4 3 -14
29 -38 56 -37 41 -47 60 -52 101 -6 47 -19 65 -28 38 -2 -6 -12 10 -22 35 -19
50 -31 58 -40 29z"/>
<path d="M3717 12410 c-42 -11 -101 -39 -95 -46 2 -2 20 1 39 6 142 41 321
-28 668 -256 142 -94 143 -95 137 -127 -3 -18 -8 -93 -11 -167 -31 -661 -171
-960 -490 -1042 l-70 -18 76 3 c67 3 86 9 153 45 l76 41 0 -28 c0 -16 -9 -80
-20 -142 -11 -63 -20 -137 -20 -165 0 -61 -22 -95 -126 -195 -60 -58 -75 -67
-114 -71 -25 -3 -52 -7 -60 -11 -10 -4 -23 7 -42 36 -15 23 -76 98 -135 166
-177 202 -162 179 -152 236 4 28 8 119 8 203 l1 154 38 -49 c47 -58 111 -118
175 -161 51 -35 116 -66 124 -59 2 3 -32 33 -76 67 -306 232 -413 473 -427
965 -6 207 -12 261 -26 247 -14 -14 -4 -431 12 -525 7 -38 10 -70 7 -73 -2 -2
-15 5 -29 16 -39 30 -69 104 -75 186 -6 71 -5 73 15 67 12 -3 29 -2 39 1 14 6
12 10 -14 26 -17 10 -34 23 -37 29 -4 6 -16 11 -27 11 -17 0 -19 -7 -19 -75 0
-40 5 -97 11 -125 14 -65 64 -140 111 -165 33 -18 40 -28 63 -102 14 -46 46
-124 70 -175 l45 -92 0 -126 c0 -70 -3 -162 -6 -204 l-7 -77 -22 21 c-31 29
-40 25 -16 -9 27 -38 26 -45 -3 -26 -13 8 -31 13 -40 9 -9 -3 -16 -1 -16 6 0
6 -4 8 -10 5 -5 -3 -10 -18 -10 -32 0 -19 -4 -24 -16 -19 -9 3 -22 6 -31 6 -9
0 -13 6 -9 15 3 8 2 15 -2 15 -14 -1 -50 -34 -204 -186 -193 -192 -116 -162
-803 -318 -43 -10 -50 -15 -57 -41 -4 -17 -51 -282 -103 -590 -126 -736 -208
-1187 -249 -1361 -32 -134 -36 -145 -82 -200 -42 -53 -47 -56 -41 -29 38 186
232 1109 252 1200 59 270 147 698 175 854 39 217 43 240 31 221 -15 -26 -88
-343 -146 -640 -31 -157 -122 -613 -201 -1013 -80 -401 -143 -734 -141 -740 2
-7 7 4 10 23 5 24 22 51 53 80 25 25 43 38 40 30 -13 -38 -67 -288 -90 -415
-53 -296 -81 -575 -96 -957 -6 -150 -15 -277 -20 -282 -13 -13 -13 959 0 1084
11 101 34 216 64 313 8 26 12 47 9 47 -10 0 -64 -131 -82 -201 -33 -128 -41
-283 -41 -764 0 -407 2 -463 16 -483 15 -22 15 -25 -5 -46 -41 -43 -20 -45 57
-3 l77 42 110 0 c101 0 114 -2 160 -27 64 -36 89 -37 81 -4 -4 15 0 28 9 36 8
7 15 20 15 30 0 10 6 32 14 50 l13 32 7 -32 c3 -18 6 -48 6 -66 0 -19 4 -34 9
-34 9 0 22 234 25 460 2 69 10 163 19 210 90 469 223 1104 247 1179 36 111 28
140 -18 67 -38 -59 -59 -140 -118 -448 -43 -222 -49 -244 -60 -222 -14 27 -15
24 29 224 14 63 37 185 53 270 24 137 31 159 58 192 17 20 39 37 49 37 10 1
35 10 57 21 22 11 42 20 45 20 6 0 4 -26 -26 -258 -20 -161 -46 -308 -80 -454
l-20 -86 -32 4 c-27 4 -30 3 -16 -8 15 -12 14 -23 -12 -128 -41 -166 -41 -163
34 -193 99 -39 205 -61 295 -62 63 0 82 -3 82 -14 0 -18 -93 -10 -234 19 -113
23 -139 18 -155 -32 -20 -65 -42 -192 -71 -420 -29 -233 -41 -305 -61 -382
-18 -73 -17 -72 -50 -35 -27 31 -29 32 -23 9 8 -31 87 -190 121 -242 13 -22
23 -47 21 -55 -2 -10 -64 -46 -148 -88 -143 -71 -145 -72 -180 -58 -54 23
-137 89 -167 134 -39 59 -40 40 -2 -32 23 -42 48 -73 77 -93 41 -29 42 -31 20
-39 -59 -23 -204 16 -269 71 -53 45 -50 22 4 -32 50 -49 135 -86 200 -86 38 0
2 -21 -363 -208 -223 -115 -430 -223 -462 -241 -42 -24 -58 -29 -64 -19 -6 9
-11 5 -18 -14 -16 -37 17 -796 40 -929 6 -33 4 -37 -20 -43 -14 -3 -26 -11
-26 -16 0 -6 2 -10 5 -10 14 0 346 118 465 165 74 30 141 55 149 57 9 2 19
-20 32 -72 23 -94 23 -93 -1 -85 -11 3 -20 2 -20 -3 0 -11 38 -46 67 -61 30
-15 109 -14 141 3 57 30 97 97 83 139 -6 15 -12 12 -40 -23 -40 -50 -86 -80
-123 -80 -30 0 -27 -6 -64 143 -9 37 -15 69 -13 71 15 11 182 76 186 72 3 -2
0 -46 -7 -96 -13 -98 -5 -130 22 -88 26 41 38 89 38 155 l0 64 43 18 c108 48
354 169 468 232 70 38 129 69 133 69 3 0 6 -12 7 -27 0 -25 2 -23 15 14 11 28
26 48 50 62 l34 20 0 -32 c0 -18 -9 -160 -20 -317 -28 -396 -36 -640 -22 -640
18 0 32 139 63 645 16 259 26 364 35 376 10 11 11 18 3 26 -9 9 -7 80 5 270
18 287 21 433 7 433 -12 0 -14 -25 -42 -403 l-23 -319 -28 -14 c-33 -17 -33
-15 -19 63 34 175 56 674 32 711 -15 24 -21 -14 -21 -131 -1 -146 -15 -325
-41 -518 l-22 -156 -301 -146 c-166 -80 -313 -151 -327 -157 -23 -11 -29 -8
-57 19 -25 25 -39 31 -74 31 -64 0 -101 -27 -136 -101 l-29 -64 -7 33 c-11 48
-25 39 -28 -19 l-3 -51 -265 -119 c-145 -65 -265 -119 -267 -119 -2 0 -3 56
-3 125 0 133 -26 682 -35 753 -5 35 -3 43 12 49 77 28 1131 532 1298 621 17 8
81 42 144 74 63 32 127 68 143 80 16 11 30 19 31 16 1 -2 18 -20 37 -41 l35
-38 -28 10 c-16 6 -35 11 -44 11 -30 0 7 -29 111 -84 l102 -55 17 -393 c10
-216 23 -488 28 -605 6 -145 6 -227 -1 -259 -8 -33 -7 -63 1 -106 8 -42 10
-122 6 -255 -6 -172 -4 -207 14 -301 l20 -105 -28 -28 c-21 -21 -79 -46 -228
-98 -254 -87 -397 -141 -410 -152 -15 -15 0 -11 164 37 209 62 199 59 184 43
-17 -18 -16 -59 2 -79 13 -14 13 -32 0 -155 -29 -278 -38 -523 -31 -870 3
-187 9 -352 12 -366 5 -23 -3 -33 -63 -83 -37 -31 -99 -78 -138 -103 -167
-109 -170 -140 -50 -391 35 -73 62 -139 59 -146 -5 -14 36 -36 69 -36 13 0 33
7 45 16 21 14 23 14 33 -13 22 -57 22 -135 1 -213 -31 -111 -36 -192 -18 -278
31 -148 128 -275 264 -345 l72 -38 1 -57 c0 -31 4 -77 7 -102 l7 -45 70 -18
c39 -11 113 -20 167 -21 53 -1 103 -7 110 -13 40 -31 215 -116 293 -142 216
-72 360 -76 590 -16 77 20 150 39 162 42 26 6 41 47 50 134 5 51 3 57 -24 85
-16 16 -67 44 -113 63 -69 28 -96 47 -162 109 -43 41 -120 130 -170 196 -102
135 -209 251 -250 272 -58 30 -51 11 28 -77 37 -41 115 -137 174 -214 172
-223 253 -297 381 -345 73 -27 93 -49 85 -92 -3 -18 -10 -38 -14 -44 -9 -15
-208 -34 -353 -34 -209 0 -413 38 -544 101 -52 25 -75 44 -106 86 -70 94 -182
159 -287 166 l-47 3 3 40 c2 21 12 83 24 137 l21 97 41 0 c23 0 81 7 130 15
49 7 92 13 95 12 8 -2 146 51 196 76 22 10 57 35 78 55 30 30 37 43 38 77 l0
40 16 -37 c8 -21 21 -38 29 -38 25 0 15 76 -37 277 -27 108 -48 201 -45 208 2
6 -4 41 -14 76 -32 118 -53 266 -45 334 6 60 12 71 120 227 63 89 150 204 193
253 43 50 91 108 107 130 17 22 59 76 96 120 69 85 173 221 361 475 64 85 150
200 192 255 116 153 146 216 157 333 48 521 64 866 77 1639 4 243 10 444 13
447 3 3 19 0 36 -6 24 -9 41 -9 71 0 48 15 134 89 152 132 7 16 17 30 22 30
21 0 41 79 45 180 6 124 -12 240 -53 330 l-27 61 30 32 c36 38 84 109 78 115
-2 3 -44 -32 -92 -77 -54 -50 -101 -85 -123 -91 -19 -5 -45 -16 -56 -25 -20
-14 -27 -12 -92 20 -51 26 -73 43 -82 65 -7 16 -18 35 -26 41 -21 17 -17 36
13 76 l27 35 -40 -16 c-21 -9 -57 -29 -79 -45 -45 -32 -139 -81 -155 -81 -6 0
15 35 46 78 77 105 266 295 310 311 33 12 37 11 102 -32 83 -56 208 -165 245
-214 25 -34 27 -43 21 -90 -6 -50 -5 -53 16 -53 31 0 49 27 50 76 0 23 20 99
44 170 37 107 51 134 80 159 31 28 35 38 45 110 22 165 33 403 27 558 -4 105
-3 157 4 157 17 0 11 32 -14 85 -25 50 -26 69 -4 47 17 -17 45 -15 52 3 3 9
-7 44 -22 78 -16 34 -32 76 -36 92 -4 16 -18 54 -32 83 -29 64 -29 64 -3 88
59 52 74 158 40 292 -40 156 -52 306 -71 847 -9 244 -26 520 -38 609 -9 63
-32 75 -32 17 0 -23 -5 -41 -11 -41 -6 0 -120 56 -253 124 -133 67 -266 131
-296 141 -30 10 -60 22 -66 27 -17 13 -22 41 -13 66 8 22 14 19 216 -82 169
-84 334 -156 359 -156 2 0 4 6 4 13 0 6 -20 25 -45 40 -25 16 -45 31 -45 33 0
2 31 -12 70 -31 81 -41 90 -43 64 -14 -28 31 -111 70 -158 74 -24 2 -95 29
-171 65 -299 143 -428 200 -451 200 -16 0 -28 9 -39 30 -19 36 -123 146 -131
138 -3 -4 1 -19 10 -36 11 -22 12 -32 3 -41 -18 -18 -23 -14 -37 29 -7 22 -17
40 -21 40 -5 0 -4 -12 1 -26 9 -21 6 -29 -12 -44 -13 -10 -24 -17 -26 -15 -2
2 4 56 13 122 9 65 15 143 13 173 -3 51 0 59 33 100 83 103 132 210 170 377
21 90 27 103 45 103 49 0 103 103 111 213 5 63 3 75 -16 99 -12 15 -31 28 -43
30 -22 3 -22 7 -23 125 0 68 2 123 4 123 3 0 13 -8 23 -17 12 -11 22 -13 29
-6 12 12 -51 94 -107 139 -117 92 -376 239 -494 279 -84 28 -186 39 -243 25z
m831 -732 c26 -56 -17 -201 -68 -228 -19 -10 -21 -9 -16 7 4 15 36 233 36 249
0 16 37 -5 48 -28z m-294 -1177 c-4 -16 -1 -32 5 -35 6 -4 11 -19 10 -34 l-1
-27 -8 29 c-5 16 -14 32 -20 36 -7 5 -8 15 -1 33 14 36 22 34 15 -2z m325
-150 c8 -5 9 -11 3 -15 -5 -3 -15 1 -22 9 -14 16 -3 20 19 6z m-74 -102 c19
-30 24 -44 16 -52 -8 -8 -11 -6 -11 7 0 10 -9 29 -20 43 -18 23 -26 43 -16 43
2 0 16 -19 31 -41z m-1458 -11 c27 -11 25 -12 -32 -18 -33 -4 -61 -5 -63 -4
-2 1 2 12 8 24 12 23 29 23 87 -2z m762 -12 c9 -10 8 -16 -4 -26 -13 -11 -15
-8 -15 14 0 30 3 32 19 12z m200 -30 c32 -17 41 -10 19 13 -11 11 -9 11 9 2
42 -22 53 -50 53 -141 0 -47 -3 -101 -6 -121 l-6 -37 -36 21 c-33 20 -110 28
-150 16 -8 -2 -18 4 -23 14 -17 32 -24 43 -60 98 l-37 54 34 29 c26 21 32 31
24 41 -29 34 116 43 179 11z m-814 -16 c3 -4 -7 -10 -20 -13 -23 -4 -45 14
-45 37 0 7 59 -14 65 -24z m1303 -20 c-7 -10 -14 -17 -17 -15 -4 4 18 35 25
35 2 0 -1 -9 -8 -20z m-1231 -4 c-9 -7 -66 -31 -125 -51 -59 -21 -117 -45
-129 -52 -15 -10 -23 -11 -28 -3 -11 18 7 30 71 43 32 7 66 17 74 22 16 11
130 53 145 54 6 0 2 -6 -8 -13z m863 -50 c-1 -35 -12 -21 -24 28 -6 26 -5 28
8 17 9 -8 16 -28 16 -45z m420 -119 c31 -34 37 -45 22 -40 -22 8 -72 69 -72
87 0 5 1 7 3 5 2 -2 23 -25 47 -52z m-547 -82 c54 -26 68 -42 77 -82 17 -76
102 -580 110 -654 5 -41 13 -93 19 -115 17 -64 48 -268 95 -629 52 -391 62
-486 76 -718 l10 -168 -28 -24 c-21 -18 -181 -220 -209 -264 -1 -2 -51 33
-110 77 -59 44 -139 99 -176 122 -65 41 -94 47 -67 15 11 -13 10 -14 -4 -9
-16 6 -17 23 -12 183 3 97 8 200 12 229 5 42 3 52 -9 52 -11 0 -16 20 -22 86
-7 91 -2 123 10 55 7 -44 34 -58 36 -18 1 12 7 -14 14 -58 l12 -80 2 55 c0 30
-6 219 -15 420 -16 361 -15 428 5 995 6 154 12 335 13 402 l3 123 28 0 c16 0
26 4 22 10 -10 16 73 12 108 -5z m1138 -1 c10 -13 11 -36 0 -127 -15 -143 -45
-270 -125 -543 -150 -511 -189 -743 -187 -1138 0 -109 -2 -197 -4 -194 -11 11
-45 385 -46 503 0 177 21 273 132 613 143 434 189 648 176 811 -2 37 -3 72 0
79 7 17 38 15 54 -4z m-407 -428 c-4 -37 -9 -64 -12 -62 -2 3 -1 35 3 71 4 37
9 65 11 62 3 -2 2 -34 -2 -71z m-17 -108 c-3 -8 -6 -5 -6 6 -1 11 2 17 5 13 3
-3 4 -12 1 -19z m-18 -138 c-7 -51 -15 -87 -17 -81 -5 15 19 184 25 177 3 -2
-1 -46 -8 -96z m-1019 -554 c17 -131 29 -240 27 -243 -11 -10 -66 370 -67 456
0 74 11 14 40 -213z m927 -208 c-3 -7 -5 -2 -5 12 0 14 2 19 5 13 2 -7 2 -19
0 -25z m-849 -234 l-3 -39 -5 47 c-3 26 -1 43 3 39 5 -5 7 -26 5 -47z m-1169
-318 c-9 -8 -10 -2 -5 29 3 22 7 51 8 65 1 14 3 1 5 -29 3 -33 0 -58 -8 -65z
m2325 -271 l5 -90 -14 90 c-7 50 -16 135 -19 190 l-5 100 14 -100 c7 -55 16
-140 19 -190z m-13 -325 c12 -58 19 -123 16 -146 -5 -44 -38 -99 -105 -174
-34 -38 -41 -42 -47 -27 -5 12 3 29 28 56 60 67 72 121 71 321 -1 126 2 161 8
125 4 -27 18 -97 29 -155z m-2396 120 c3 -5 1 -10 -4 -10 -6 0 -11 5 -11 10 0
6 2 10 4 10 3 0 8 -4 11 -10z m-235 -60 c-11 -59 -20 -76 -20 -39 0 29 20 103
26 97 2 -3 0 -29 -6 -58z m343 -29 c73 -27 151 -54 175 -61 24 -6 45 -17 48
-23 4 -10 -31 -165 -39 -173 -1 -1 -53 4 -116 12 -102 13 -265 55 -283 73 -4
4 -1 43 7 86 21 107 24 115 40 108 8 -3 18 2 21 11 3 9 8 16 11 16 2 0 64 -22
136 -49z m2729 -310 c-5 -34 -15 -67 -22 -74 -10 -10 -11 -4 -6 28 8 53 26
118 32 113 2 -3 0 -33 -4 -67z m-1647 8 c39 -10 96 -19 128 -19 l59 0 -6 -47
c-3 -27 -8 -97 -12 -158 -3 -60 -8 -113 -10 -116 -2 -3 -36 0 -76 7 -40 6
-121 20 -181 29 -101 17 -107 19 -101 39 71 232 96 297 112 291 9 -4 49 -16
87 -26z m475 12 c69 -6 164 -13 212 -17 l87 -6 7 -45 c6 -39 0 -184 -11 -258
-1 -11 -3 -34 -4 -50 -1 -20 -18 -55 -47 -95 l-46 -63 -13 29 c-7 16 -23 39
-36 50 -23 21 -29 21 -139 13 -102 -8 -124 -6 -192 12 -76 21 -99 41 -60 51
24 7 32 67 32 254 l0 142 43 -4 c23 -2 98 -8 167 -13z m-240 -76 l-7 -50 -2
46 c0 25 2 49 6 52 10 11 11 5 3 -48z m720 24 c0 -11 -4 -17 -10 -14 -5 3 -10
15 -10 26 0 11 5 17 10 14 6 -3 10 -15 10 -26z m44 -87 l20 -23 -34 -27 c-19
-15 -54 -44 -77 -65 -27 -25 -43 -33 -46 -25 -3 10 -10 8 -26 -6 l-21 -19 0
96 0 97 53 0 c30 0 62 6 73 14 17 13 20 12 28 -2 5 -9 18 -27 30 -40z m151 28
c3 -5 -1 -10 -10 -10 -9 0 -13 5 -10 10 3 6 8 10 10 10 2 0 7 -4 10 -10z
m-335 -240 c0 -5 -5 -10 -11 -10 -5 0 -7 5 -4 10 3 6 8 10 11 10 2 0 4 -4 4
-10z m490 -260 c0 -5 -5 -10 -11 -10 -5 0 -7 5 -4 10 3 6 8 10 11 10 2 0 4 -4
4 -10z m-211 -67 c2 -2 -8 -14 -22 -27 -25 -23 -26 -28 -20 -89 4 -43 2 -67
-6 -71 -8 -5 -11 24 -11 103 l0 111 28 -12 c15 -7 29 -13 31 -15z m-62 -380
c-3 -10 -5 -4 -5 12 0 17 2 24 5 18 2 -7 2 -21 0 -30z m-1572 -13 c-5 -27 -3
-40 4 -40 19 0 -19 -50 -50 -65 l-28 -15 28 63 c16 34 31 70 35 80 10 32 18
17 11 -23z m1562 -72 c-2 -13 -4 -3 -4 22 0 25 2 35 4 23 2 -13 2 -33 0 -45z
m-2323 11 c-12 -20 -34 -8 -34 18 0 25 1 26 20 8 11 -10 17 -22 14 -26z m403
-54 c32 -8 76 -23 99 -32 l40 -17 -13 -55 c-7 -31 -13 -87 -14 -126 -1 -64 -3
-59 -14 52 -15 140 -20 160 -38 146 -8 -7 -31 -1 -72 18 -69 32 -68 35 12 14z
m898 -1135 c4 -25 36 -198 72 -385 73 -384 73 -379 3 -460 -44 -51 -55 -79
-47 -128 3 -23 -1 -38 -14 -53 -11 -11 -30 -47 -43 -80 -14 -38 -28 -58 -37
-57 -9 2 -41 -36 -79 -92 -35 -52 -65 -93 -67 -92 -5 6 53 194 96 310 22 60
46 125 52 145 8 24 14 181 19 437 9 492 21 608 45 455z m-1891 -96 c35 -14 12
-36 -80 -79 -53 -25 -98 -45 -100 -45 -11 0 43 74 72 100 34 29 72 38 108 24z
m806 -2734 c34 -353 114 -852 164 -1027 16 -56 20 -83 12 -86 -12 -4 108 -27
142 -27 27 0 27 3 1 -54 -11 -26 -28 -82 -37 -125 l-17 -79 -55 26 c-68 32
-168 130 -199 195 -57 119 -64 218 -25 370 19 74 25 114 20 151 -6 57 -54 163
-87 192 l-21 19 6 -32 c6 -25 3 -34 -16 -47 -37 -26 -54 -20 -67 27 -7 23 -43
105 -79 181 l-65 139 19 36 c12 23 51 58 113 100 51 36 112 86 135 112 22 26
42 46 43 45 1 -1 7 -53 13 -116z m443 -1473 c33 -17 53 -33 47 -37 -7 -4 -11
-32 -9 -71 2 -50 -1 -64 -12 -62 -8 1 -44 7 -80 13 -66 12 -67 12 -73 48 -11
66 -7 111 12 131 20 23 36 20 115 -22z m187 -136 c86 -79 221 -139 400 -178
114 -24 453 -25 548 -1 34 8 62 11 62 6 0 -13 -38 -25 -110 -33 -36 -4 -105
-14 -155 -22 -149 -25 -318 -3 -530 70 -141 48 -163 62 -240 151 -74 85 -63
88 25 7z m-83 -3 c31 -29 29 -38 -7 -38 -27 0 -30 3 -30 30 0 36 6 37 37 8z"/>
<path d="M2415 1709 c4 -12 15 -49 25 -83 24 -81 37 -113 49 -121 7 -4 11 4
11 20 0 31 -70 205 -82 205 -5 0 -6 -9 -3 -21z"/>
<path d="M2600 982 c0 -38 79 -212 133 -292 52 -77 77 -100 114 -100 44 0 48
35 4 43 -22 5 -42 27 -94 104 -36 54 -84 133 -107 176 -40 73 -50 87 -50 69z"/>
<path d="M4555 12295 c-1 -55 -40 -101 -102 -118 -47 -12 -48 -27 -1 -27 36 0
76 22 103 58 21 29 28 122 10 128 -6 2 -10 -15 -10 -41z"/>
<path d="M3411 12293 c-31 -37 -91 -176 -91 -209 0 -26 10 -11 35 51 13 31 41
84 64 118 23 35 41 66 41 70 0 17 -21 4 -49 -30z"/>
<path d="M3996 12005 l7 -155 -114 0 c-116 0 -334 -32 -354 -52 -7 -7 6 -8 40
-4 180 25 382 34 419 20 14 -5 16 -35 16 -229 0 -122 -3 -242 -6 -267 l-6 -45
-97 -12 c-142 -17 -212 -32 -208 -45 2 -6 15 -10 28 -9 13 1 81 5 151 9 l127
7 -4 -34 c-13 -95 -36 -361 -32 -366 7 -6 44 163 57 257 6 41 13 90 16 109 l5
33 98 -7 c66 -5 101 -3 105 4 10 16 -24 29 -115 42 l-84 11 3 267 c2 146 5
268 7 270 2 2 71 -8 153 -23 160 -28 202 -31 202 -17 0 19 -133 51 -321 76
l-46 6 -7 77 c-11 126 -28 232 -37 232 -5 0 -6 -65 -3 -155z"/>
<path d="M2800 10380 c-198 -80 -352 -124 -545 -155 -31 -5 -36 -9 -23 -16 23
-13 220 6 323 31 190 45 452 169 420 198 -6 6 -72 -16 -175 -58z"/>
<path d="M1751 7754 c0 -11 3 -14 6 -6 3 7 2 16 -1 19 -3 4 -6 -2 -5 -13z"/>
<path d="M2352 7097 c-5 -6 -22 -84 -37 -172 -15 -88 -45 -253 -66 -367 -21
-114 -39 -221 -39 -238 0 -34 19 -40 37 -10 20 31 110 536 129 721 6 66 -3 92
-24 66z"/>
<path d="M1636 6150 c-8 -50 -2 -277 7 -286 20 -20 28 29 25 151 -4 134 -21
205 -32 135z"/>
<path d="M2045 5985 c-15 -14 -25 -36 -25 -53 0 -31 55 -123 78 -130 19 -6 14
16 -13 56 -31 45 -33 94 -4 123 21 21 21 21 41 2 11 -11 22 -39 25 -62 6 -46
19 -54 29 -17 21 84 -71 141 -131 81z"/>
<path d="M1070 4153 c-39 -225 -73 -762 -51 -833 6 -22 16 -40 21 -40 22 0 29
48 35 250 3 118 10 292 15 385 12 217 12 305 1 305 -5 0 -14 -30 -21 -67z"/>
<path d="M2495 3831 c-133 -47 -768 -332 -1042 -469 -135 -68 -195 -92 -247
-101 -70 -12 -187 -59 -200 -80 -10 -15 -1 -14 70 8 60 19 204 39 204 28 0 -3
-20 -18 -45 -34 -82 -51 -70 -77 34 -74 114 3 242 45 225 73 -6 10 -47 7 -144
-8 l-35 -6 38 32 c20 17 37 36 37 41 0 5 -14 15 -31 22 -31 12 -31 13 117 71
150 60 534 224 829 356 177 78 299 146 290 161 -8 12 -7 12 -100 -20z"/>
<path d="M2355 3601 c-60 -16 -173 -52 -250 -81 -152 -56 -525 -234 -525 -250
0 -17 12 -12 143 49 189 90 380 163 605 232 111 34 202 66 202 71 0 15 -64 7
-175 -21z"/>
<path d="M3520 864 c6 -14 10 -27 10 -28 0 -2 -13 -6 -30 -9 -28 -6 -115 -75
-106 -84 2 -2 23 7 46 22 23 15 57 29 75 32 27 4 35 1 54 -25 11 -17 21 -33
21 -36 0 -3 -18 -15 -40 -26 -45 -23 -56 -45 -14 -30 14 6 46 10 70 10 25 0
54 5 65 10 19 11 18 12 -11 41 -42 42 -55 69 -35 69 8 0 15 4 15 8 0 15 -24
32 -45 32 -12 0 -30 9 -40 20 -27 30 -47 26 -35 -6z"/>
<path d="M3200 746 c0 -2 14 -36 31 -76 35 -84 98 -190 140 -240 28 -33 31
-34 42 -16 32 50 63 76 158 135 57 35 112 71 122 79 23 20 22 42 -2 42 -28 0
-161 -92 -232 -160 l-61 -57 -52 81 c-29 44 -70 111 -92 149 -21 37 -42 67
-46 67 -4 0 -8 -2 -8 -4z"/>
</g>
</svg>
