<?xml version="1.0" standalone="no"?>
<!DOCTYPE svg PUBLIC "-//W3C//DTD SVG 20010904//EN"
 "http://www.w3.org/TR/2001/REC-SVG-20010904/DTD/svg10.dtd">
<svg version="1.0" xmlns="http://www.w3.org/2000/svg"
 width="640.000000pt" height="1280.000000pt" viewBox="0 0 640.000000 1280.000000"
 preserveAspectRatio="xMidYMid meet">
<metadata>
Created by potrace 1.15, written by Peter Selinger 2001-2017
</metadata>
<g transform="translate(0.000000,1280.000000) scale(0.100000,-0.100000)"
fill="#000000" stroke="none">
<path d="M2981 12785 c-144 -32 -285 -127 -341 -227 l-24 -43 61 60 c127 127
313 188 505 164 124 -15 234 -52 420 -140 91 -43 171 -79 177 -79 56 0 -122
127 -263 189 -184 79 -392 109 -535 76z"/>
<path d="M2654 12525 c-6 -15 -2 -47 10 -75 5 -11 -7 -20 -46 -34 -109 -38
-188 -159 -188 -287 0 -57 20 -119 39 -119 5 0 8 42 8 93 -1 74 3 101 19 138
27 58 77 115 133 151 l44 28 55 -61 c54 -60 126 -107 137 -90 3 5 -6 18 -20
29 -14 11 -25 22 -25 25 0 2 28 12 62 22 108 30 214 10 407 -75 121 -53 233
-110 334 -169 l85 -50 7 -198 c16 -409 -28 -726 -124 -884 -73 -121 -206 -222
-310 -236 -22 -3 -41 -10 -41 -16 0 -17 108 1 164 28 28 13 71 41 95 62 l44
37 -7 -124 c-8 -157 -29 -205 -128 -300 -37 -36 -74 -81 -82 -101 -18 -44 -34
-57 -66 -57 -14 1 -59 -2 -100 -7 l-75 -7 -81 93 c-44 52 -94 111 -111 133
l-31 39 5 106 c5 96 -9 287 -24 329 -4 10 27 -15 68 -54 92 -89 192 -153 277
-179 40 -12 23 13 -31 43 -81 45 -210 146 -263 205 -69 76 -139 187 -173 275
-54 142 -109 400 -126 597 -9 108 -16 145 -26 145 -28 0 23 -457 67 -603 5
-17 4 -18 -25 -3 -48 25 -91 112 -105 213 -6 41 -5 42 26 45 30 3 54 28 26 28
-8 0 -29 11 -48 25 -18 13 -37 22 -43 18 -14 -9 -1 -158 18 -215 19 -56 83
-132 132 -156 29 -15 40 -32 69 -102 19 -47 56 -119 83 -161 56 -88 65 -133
77 -389 l6 -145 -29 28 c-33 30 -46 27 -36 -11 4 -18 3 -23 -6 -17 -13 7 -11
54 4 88 5 12 3 17 -8 17 -22 0 -37 -23 -44 -67 -3 -21 -12 -47 -19 -58 -8 -11
-14 -30 -14 -42 0 -16 -6 -23 -19 -23 -17 0 -18 4 -11 31 15 53 -11 28 -62
-57 -26 -43 -61 -105 -77 -136 -46 -88 -53 -96 -72 -91 -11 3 -63 -26 -136
-75 -205 -136 -478 -272 -554 -275 -43 -1 -51 -11 -16 -21 44 -12 79 -6 175
30 122 46 288 130 400 203 48 32 93 61 101 66 8 4 2 -12 -13 -36 -15 -24 -37
-61 -49 -82 -16 -27 -32 -40 -59 -47 -20 -6 -40 -14 -43 -19 -3 -5 -51 -39
-107 -77 -127 -83 -241 -193 -236 -227 2 -17 -9 -35 -38 -63 -55 -52 -66 -104
-58 -272 11 -239 -36 -672 -73 -672 -19 0 -26 -24 -59 -193 -16 -82 -30 -144
-32 -139 -2 6 18 268 43 583 l46 572 29 34 c16 18 32 44 35 56 6 21 -17 195
-31 240 -14 46 -20 5 -16 -107 l5 -124 -33 -40 c-39 -49 -32 4 -96 -767 -25
-302 -49 -602 -55 -664 -5 -63 -6 -123 -3 -133 6 -19 -15 -121 -72 -350 -19
-75 -34 -145 -34 -155 1 -36 18 11 52 138 18 68 36 125 40 127 12 5 54 152 88
312 17 80 42 188 55 240 13 52 26 104 28 115 9 40 7 -123 -3 -235 -9 -98 -20
-141 -70 -290 -33 -96 -66 -212 -73 -258 -10 -60 -21 -90 -37 -107 -19 -20
-20 -25 -7 -25 13 0 14 -5 6 -32 -5 -18 -9 -47 -9 -65 0 -17 -8 -45 -17 -62
-23 -39 -8 -54 20 -20 28 33 50 28 36 -8 -5 -14 -14 -64 -19 -112 -5 -47 -16
-122 -24 -166 -7 -44 -19 -128 -26 -188 -7 -59 -15 -106 -17 -103 -2 2 -4 148
-3 325 0 200 -3 321 -9 321 -19 0 -24 -121 -51 -1043 -5 -186 -12 -343 -15
-347 -8 -13 17 -50 33 -50 11 0 13 -15 10 -62 -3 -58 -1 -63 18 -66 19 -3 21
-7 13 -35 -22 -79 -50 -257 -50 -310 0 -41 6 -68 21 -92 24 -39 120 -129 166
-157 26 -15 32 -27 44 -85 18 -92 18 -93 53 -93 24 0 28 -3 19 -12 -17 -17
-15 -53 3 -68 8 -7 26 -10 40 -8 21 4 25 1 25 -18 0 -24 -1 -24 -106 -24 -93
0 -105 -2 -100 -16 3 -8 -5 -35 -19 -59 -15 -25 -22 -46 -16 -49 35 -22 236
-35 313 -21 40 8 70 49 61 84 -6 24 -50 51 -84 51 -16 0 -19 4 -14 18 28 65
47 208 49 369 1 95 5 176 9 180 4 3 36 1 72 -6 35 -7 68 -10 73 -7 5 3 24 1
41 -5 42 -15 65 -6 52 20 -12 21 -67 36 -170 47 l-63 6 6 42 c3 22 9 82 12
133 6 73 4 97 -8 115 -18 27 -14 136 7 183 7 17 22 71 33 120 94 409 96 419
102 389 4 -16 1 -83 -6 -149 -6 -66 -18 -202 -25 -302 -10 -146 -15 -180 -25
-172 -28 23 -35 -2 -12 -42 29 -52 108 -126 181 -169 l57 -35 -2 -75 c-1 -68
-2 -70 -7 -26 -3 27 -11 51 -17 53 -20 7 -27 -126 -18 -370 11 -274 12 -234
-15 -522 -64 -681 -139 -1218 -241 -1733 -32 -159 -47 -191 -99 -206 -33 -9
-185 8 -211 24 -11 7 -12 51 -2 275 23 509 79 1064 166 1660 10 66 -14 -12
-33 -110 -84 -419 -171 -1280 -171 -1691 0 -66 -2 -123 -5 -126 -6 -5 -221 28
-279 43 -21 6 -51 24 -66 41 l-28 30 4 151 c19 688 81 1232 217 1897 64 309
72 359 58 345 -42 -43 -153 -564 -221 -1036 -62 -430 -93 -797 -94 -1144 -1
-287 1 -296 74 -332 59 -28 489 -97 566 -91 114 10 141 57 183 308 85 522 156
1076 197 1555 8 105 17 191 18 192 1 1 10 -105 19 -235 37 -494 139 -1432 223
-2042 52 -383 180 -1179 225 -1398 10 -50 13 -53 35 -48 19 5 24 3 24 -14 0
-11 7 -20 15 -20 8 0 15 5 15 10 0 6 5 10 10 10 6 0 10 -11 10 -25 0 -14 -5
-25 -11 -25 -19 0 -109 -42 -109 -52 0 -5 15 -6 34 -3 l34 7 -30 -99 c-91
-304 -100 -339 -100 -408 0 -81 17 -133 67 -209 96 -145 136 -161 410 -161
131 0 197 4 211 12 25 14 88 138 105 206 9 36 9 50 -1 61 -22 28 -39 4 -76
-109 l-37 -113 -241 -4 c-133 -2 -242 -1 -244 2 -1 3 -29 41 -62 85 -113 151
-116 205 -26 519 62 219 62 219 92 222 16 1 54 5 84 8 30 3 93 1 140 -5 171
-21 200 -22 200 -10 0 22 55 8 58 -14 9 -59 13 -66 35 -63 21 3 22 7 21 93 0
50 -10 162 -22 250 -34 250 -90 872 -129 1415 -14 190 -17 367 -17 790 0 552
9 744 49 1125 37 342 115 842 126 805 4 -14 31 -108 59 -210 60 -215 156 -489
247 -710 126 -304 214 -535 214 -562 0 -15 5 -30 10 -34 11 -7 2 -62 -13 -81
-5 -7 -7 -16 -4 -21 2 -4 -4 -48 -15 -98 -33 -151 -165 -817 -208 -1054 -23
-124 -45 -238 -50 -255 l-9 -30 -1 28 c-1 15 -6 27 -12 27 -19 0 -2 -131 25
-204 48 -128 144 -248 258 -327 31 -21 60 -44 64 -50 17 -28 55 -193 64 -279
15 -135 14 -134 65 -127 111 16 225 86 225 140 0 15 9 32 22 41 20 14 20 17 6
28 -8 7 -19 27 -22 43 -4 17 -17 37 -28 46 -18 14 -26 15 -66 3 -46 -14 -76
-33 -67 -42 3 -3 32 -4 64 -3 51 2 61 -1 70 -18 16 -29 15 -30 -29 -37 -50 -8
-51 -20 -4 -29 l36 -6 -39 -35 c-21 -19 -72 -52 -113 -73 l-75 -38 -2 86 c-1
87 -34 215 -69 268 -16 26 -9 28 33 12 96 -37 210 -29 281 21 23 17 44 30 46
30 2 0 4 -32 5 -72 5 -180 80 -383 211 -578 77 -114 74 -108 80 -165 5 -54 17
-62 39 -24 20 37 1 90 -75 204 -111 168 -162 282 -209 464 -33 125 -45 200
-34 207 13 8 11 64 -2 64 -12 0 -12 -2 27 234 57 348 157 765 309 1291 78 270
125 450 125 475 0 5 -7 7 -15 4 -8 -4 -15 -4 -15 -1 0 3 -11 133 -25 289 -55
606 -119 1078 -207 1503 -44 217 -43 202 -19 210 11 3 50 27 87 52 48 33 64
40 60 26 -20 -64 -35 -157 -30 -178 5 -19 -1 -33 -25 -60 -34 -39 -41 -87 -18
-119 11 -15 21 -17 53 -12 21 4 55 7 75 6 37 0 62 20 94 75 9 15 15 16 31 7
29 -15 59 7 75 56 6 20 27 73 45 117 36 89 62 236 73 416 l6 107 50 34 c28 19
62 54 79 81 l30 48 17 377 c27 564 22 712 -21 720 -8 1 -26 -14 -39 -33 l-24
-36 -17 39 c-23 51 -94 112 -156 132 l-49 17 75 22 c123 36 134 40 168 61 18
11 41 34 52 52 38 62 55 -27 -271 1398 -192 839 -192 840 -211 840 -14 0 -7
-52 41 -273 22 -100 42 -195 45 -212 7 -34 -21 43 -54 150 -12 39 -32 84 -44
100 -13 17 -26 48 -30 70 -11 59 -39 106 -90 153 -34 31 -41 42 -27 42 27 0
46 26 33 43 -7 7 -166 65 -354 128 -189 63 -351 122 -360 132 -10 9 -24 17
-32 17 -8 0 -16 10 -18 23 -2 15 -11 23 -30 25 -31 4 -168 144 -168 173 0 27
-21 35 -36 14 -8 -10 -16 -17 -18 -14 -2 2 -5 51 -7 109 l-4 105 33 48 c70
100 117 238 142 412 11 75 14 81 43 95 50 23 80 95 85 200 4 82 3 87 -23 118
-16 20 -36 32 -51 32 -23 0 -24 2 -24 83 0 45 -5 100 -10 122 -5 22 -7 41 -5
43 2 2 14 -4 28 -13 19 -12 27 -13 33 -4 12 19 -110 128 -203 182 -101 58
-326 158 -424 189 -53 16 -99 22 -164 23 -82 0 -97 -3 -155 -32 -65 -32 -65
-32 -85 -12 -11 11 -24 40 -30 66 -5 25 -15 48 -22 50 -7 3 -10 -4 -7 -19 3
-13 -6 0 -19 28 -28 57 -44 73 -53 49z m1162 -806 c39 -43 13 -216 -38 -248
-21 -13 -21 -13 -15 70 4 46 7 110 7 142 0 63 13 73 46 36z m-94 -1255 c17
-19 17 -22 3 -28 -9 -3 -21 -4 -26 0 -5 3 -9 -5 -9 -17 0 -38 -19 -8 -29 44
-4 26 -13 52 -19 59 -5 7 -13 29 -17 48 -7 33 -5 32 35 -25 23 -33 51 -70 62
-81z m-1082 -101 c0 -20 -3 -24 -11 -16 -7 7 -9 19 -6 27 10 24 17 19 17 -11z
m1433 -88 c114 -40 133 -54 47 -36 -53 12 -83 4 -105 -26 -8 -11 -20 -2 -58
44 -55 68 -61 91 -19 70 15 -8 76 -31 135 -52z m-393 -24 c0 -26 3 -70 6 -97
4 -27 3 -46 -1 -41 -10 8 -35 169 -28 180 12 21 23 2 23 -42z m-397 -164 c2
-51 8 -100 12 -109 6 -16 -1 -18 -81 -18 -49 1 -109 5 -134 10 -29 5 -47 5
-51 -2 -15 -23 -18 13 -7 64 l12 53 6 -38 c9 -68 25 -45 28 42 3 74 5 84 23
88 16 4 19 11 15 29 -6 22 -3 24 31 25 21 1 52 4 68 8 26 6 32 3 51 -26 16
-26 23 -56 27 -126z m17 127 c0 -14 -3 -14 -15 -4 -8 7 -15 14 -15 16 0 2 7 4
15 4 8 0 15 -7 15 -16z m-630 -54 c6 -29 8 -55 6 -57 -2 -2 -11 8 -20 22 -12
18 -15 36 -10 61 8 44 11 40 24 -26z m1057 -262 c-1 -46 -3 -9 -3 82 0 91 2
128 3 83 2 -46 2 -120 0 -165z m-1263 155 c-7 -31 -21 -50 -30 -41 -6 6 23 68
31 68 3 0 2 -12 -1 -27z m1522 -1 c-17 -16 -18 -16 -5 5 7 12 15 20 18 17 3
-2 -3 -12 -13 -22z m-637 -95 c-5 -16 -13 -35 -20 -43 -6 -8 -9 -33 -6 -61 2
-26 2 -39 0 -28 -11 48 -23 37 -18 -15 2 -30 10 -111 15 -180 6 -69 22 -228
35 -355 82 -768 133 -1290 155 -1600 6 -82 15 -172 19 -199 l9 -48 -167 -167
-167 -167 -40 24 c-21 13 -78 54 -125 89 l-87 65 -7 272 c-20 751 26 1375 156
2116 45 258 44 250 25 250 -9 0 -16 4 -16 8 0 5 28 5 61 -1 44 -6 74 -5 105 3
l44 13 0 56 0 56 18 -30 c14 -22 17 -38 11 -58z m510 2 c-10 -10 -19 -23 -19
-29 0 -5 -4 -10 -10 -10 -5 0 -10 13 -10 28 0 25 4 29 29 30 29 1 29 0 10 -19z
m-1440 -36 c2 -2 -3 -3 -11 -3 -9 0 -19 7 -22 16 -6 15 -4 15 11 3 10 -7 20
-15 22 -16z m1471 -13 c0 -5 -7 -7 -15 -4 -8 4 -15 8 -15 10 0 2 7 4 15 4 8 0
15 -4 15 -10z m-14 -37 c87 -47 112 -79 47 -61 -41 11 -103 57 -103 76 0 16 0
16 56 -15z m199 -102 c79 -36 85 -52 55 -150 -11 -39 -22 -71 -24 -71 -1 0 -1
24 2 54 7 88 -16 134 -94 183 -34 21 -5 14 61 -16z m-1778 -132 c8 -8 17 -8
33 1 21 11 21 11 4 -15 l-18 -27 -16 23 c-13 17 -19 19 -23 8 -4 -10 -6 -9 -6
4 -1 19 10 22 26 6z m148 -404 c20 -48 35 -88 33 -91 -7 -7 -108 211 -108 232
1 22 21 -16 75 -141z m532 -127 c-3 -7 -5 -2 -5 12 0 14 2 19 5 13 2 -7 2 -19
0 -25z m-17 -137 c-14 -126 -26 -152 -16 -33 9 99 17 154 23 148 3 -2 -1 -54
-7 -115z m-140 -185 c0 -18 2 -49 5 -67 4 -27 4 -30 -4 -13 -16 37 -25 114
-12 114 6 0 11 -15 11 -34z m-155 -184 c-5 -5 -55 155 -54 171 0 7 14 -28 29
-78 16 -49 27 -91 25 -93z m1236 38 l-9 -45 -1 46 c-1 25 2 49 6 53 12 12 13
-6 4 -54z m1116 -12 c-3 -8 -6 -5 -6 6 -1 11 2 17 5 13 3 -3 4 -12 1 -19z m21
-83 c0 -16 -2 -15 -8 5 -4 14 -8 34 -8 45 0 16 2 15 8 -5 4 -14 8 -34 8 -45z
m-2131 -137 c-3 -7 -5 -2 -5 12 0 14 2 19 5 13 2 -7 2 -19 0 -25z m2266 -475
c2 -81 -23 -101 -198 -158 -44 -14 -87 -28 -96 -31 -20 -7 -36 43 -19 60 6 6
56 16 111 22 68 7 105 16 117 28 15 15 14 17 -15 28 l-31 12 32 16 c20 10 40
34 56 68 23 46 26 49 33 29 5 -12 9 -45 10 -74z m-2284 -78 l-2 -60 -8 45
c-11 66 -11 109 1 90 5 -8 9 -42 9 -75z m2124 -236 c42 -35 68 -78 76 -128 8
-48 25 -49 60 -1 l29 41 7 -31 c4 -16 2 -105 -4 -197 -6 -93 -16 -258 -22
-368 -6 -110 -12 -202 -14 -203 -2 -2 -20 11 -39 29 -36 32 -36 33 -17 50 28
26 35 102 28 303 -8 266 -34 373 -118 483 -45 60 -41 67 14 22z m-2051 -421
c-9 -9 -12 -7 -12 12 0 19 3 21 12 12 9 -9 9 -15 0 -24z m538 -38 c0 -5 -9
-14 -20 -20 -22 -12 -27 -1 -8 18 14 14 28 16 28 2z m48 -206 c120 -6 142 -9
137 -21 -3 -9 -7 -87 -8 -174 -2 -100 -7 -163 -14 -170 -6 -6 -9 -18 -6 -26 5
-13 -3 -14 -53 -9 -41 5 -91 1 -166 -13 -59 -11 -170 -23 -248 -27 -107 -5
-140 -10 -136 -20 6 -15 -33 -6 -81 20 -18 9 -39 13 -48 9 -13 -4 -16 -1 -13
13 3 16 11 18 51 16 31 -3 56 1 71 12 23 14 25 14 39 -7 12 -18 17 -20 29 -9
10 10 14 60 16 202 4 210 -3 191 67 203 43 7 227 8 363 1z m1054 -61 c8 -10
22 -32 30 -50 15 -30 15 -32 -8 -52 -14 -12 -21 -27 -18 -36 7 -17 49 -21 59
-5 9 15 25 12 25 -5 0 -10 -10 -15 -26 -15 -26 0 -94 -59 -94 -81 0 -5 -11 -9
-25 -9 -30 0 -154 -33 -185 -50 -12 -6 -23 -10 -25 -8 -5 6 -25 135 -25 164 0
40 30 71 82 85 23 6 62 21 87 33 53 26 93 44 102 45 3 1 13 -7 21 -16z m-1587
-13 c14 0 35 5 47 11 19 10 20 9 14 -38 -3 -26 -8 -93 -12 -148 l-6 -100 -70
-3 -69 -3 5 43 c3 24 8 85 11 137 8 115 11 124 35 111 10 -6 31 -10 45 -10z
m793 -15 c3 -3 31 -189 47 -305 l6 -45 -15 30 c-8 17 -17 38 -20 48 -4 13 -16
17 -51 17 l-45 0 0 98 c0 53 -3 114 -6 135 l-7 38 44 -7 c24 -4 45 -8 47 -9z
m-1726 -87 c-3 -35 -15 -85 -28 -113 l-22 -50 5 81 c5 74 4 83 -16 103 -27 27
-27 35 2 28 12 -4 29 -2 37 3 26 17 28 11 22 -52z m153 2 c7 -12 -2 -12 -30 0
-19 8 -19 9 2 9 12 1 25 -3 28 -9z m-4 -59 c46 -22 121 -52 165 -67 68 -24 84
-26 97 -15 30 25 10 40 -107 84 l-40 14 78 8 c43 4 79 5 81 3 1 -1 6 -31 10
-66 6 -50 4 -61 -7 -57 -24 9 -40 -12 -64 -81 -13 -39 -29 -70 -38 -72 -8 -2
-49 4 -91 13 -42 8 -81 13 -86 9 -5 -3 -30 6 -54 21 l-45 26 0 103 c0 87 4
116 15 116 1 0 40 -18 86 -39z m2722 -56 c77 -36 90 -64 71 -144 -12 -49 -23
-196 -37 -476 -3 -68 -11 -95 -50 -185 -25 -58 -49 -122 -52 -143 -8 -42 -33
-73 -47 -59 -5 5 9 45 33 96 22 48 39 89 37 92 -3 2 -19 -17 -37 -42 -18 -25
-35 -43 -37 -41 -2 2 9 33 25 68 32 72 79 220 83 264 5 50 -16 43 -30 -10 -75
-281 -88 -312 -168 -409 -54 -66 -109 -109 -129 -103 -19 7 -17 39 6 82 20 38
26 42 46 34 30 -11 78 6 97 35 32 50 163 553 148 568 -15 15 -26 -12 -60 -147
-88 -341 -125 -435 -167 -418 -21 7 -19 43 11 168 30 132 43 330 25 400 -11
44 -10 50 19 109 36 72 38 121 5 121 -13 0 -23 -10 -29 -30 -5 -16 -18 -49
-28 -73 -15 -37 -21 -42 -39 -37 -15 5 -33 -2 -64 -24 -24 -17 -48 -31 -53
-31 -22 0 -23 40 -3 77 12 21 35 81 53 133 22 66 42 105 63 127 l32 32 109 -3
c95 -2 116 -6 167 -31z m-3446 -297 c1 -161 3 -299 2 -305 -3 -74 -5 -83 -18
-83 -12 0 -13 21 -8 122 4 66 7 222 7 346 0 124 3 222 7 219 3 -4 8 -139 10
-299z m3656 198 c-9 -53 -43 -115 -77 -141 -18 -14 -36 -25 -39 -25 -17 0 -5
30 19 49 14 11 39 39 56 62 27 38 29 45 20 81 -10 38 -10 39 8 23 14 -13 18
-26 13 -49z m-2653 -55 c-6 -23 -15 -41 -20 -41 -5 0 -2 20 8 45 20 54 27 52
12 -4z m2560 -26 c-15 -41 -21 -26 -8 21 6 21 13 32 15 23 2 -8 -1 -28 -7 -44z
m-2912 -11 c2 -1 -4 -17 -14 -35 -14 -28 -16 -50 -10 -139 4 -68 1 -148 -8
-226 -14 -117 -10 -254 10 -323 l7 -25 -30 22 c-56 40 -56 41 -49 185 11 214
35 479 47 525 10 37 14 41 28 30 9 -7 17 -13 19 -14z m-228 -414 c0 -77 -1
-80 -19 -70 -11 5 -33 10 -50 10 -39 0 -39 7 3 48 19 18 39 46 46 62 7 17 14
30 16 30 2 0 4 -36 4 -80z m2740 -100 c0 -5 -5 -10 -11 -10 -5 0 -7 5 -4 10 3
6 8 10 11 10 2 0 4 -4 4 -10z m-680 -16 c0 -8 -4 -12 -10 -9 -5 3 -10 10 -10
16 0 5 5 9 10 9 6 0 10 -7 10 -16z m154 -86 c22 -12 68 -29 101 -39 l60 -18
-56 0 c-93 -1 -198 64 -215 134 -6 29 -6 29 31 -13 20 -23 56 -52 79 -64z
m-2601 74 c-20 -21 -33 -19 -33 4 0 8 10 14 25 14 24 0 24 -1 8 -18z m15 -91
c14 -9 13 -10 -10 -11 -24 0 -28 4 -28 28 1 23 2 24 11 10 5 -10 17 -22 27
-27z m307 20 c-3 -6 -11 -11 -17 -11 -6 0 -6 6 2 15 14 17 26 13 15 -4z m2609
-140 c9 -49 16 -95 16 -102 -1 -19 -40 82 -40 103 0 9 -12 26 -27 37 -25 21
-26 22 -7 36 10 8 24 15 30 15 7 0 19 -39 28 -89z m-2603 38 c23 -23 29 -37
25 -57 -7 -39 -26 -322 -29 -427 -2 -71 -5 -90 -17 -90 -11 0 -18 29 -31 125
-9 69 -19 135 -23 147 -8 25 -62 68 -112 89 -51 21 -53 10 -5 -22 50 -33 43
-45 -28 -52 -34 -3 -51 -9 -51 -18 0 -9 11 -14 28 -14 l29 0 -1 -105 c-1 -58
-4 -105 -7 -105 -15 0 -138 123 -149 149 -15 37 -10 98 21 268 l24 132 110 4
c60 1 127 4 148 5 31 2 43 -4 68 -29z m2890 -137 c-12 -22 -41 -48 -41 -36 0
8 40 54 47 54 2 0 -1 -8 -6 -18z m-2384 2 c-3 -3 -12 -4 -19 -1 -8 3 -5 6 6 6
11 1 17 -2 13 -5z m290 -11 c-9 -9 -20 -13 -24 -9 -4 4 -1 11 7 16 25 16 35
11 17 -7z m1830 -35 c-3 -8 -6 -5 -6 6 -1 11 2 17 5 13 3 -3 4 -12 1 -19z
m-2735 -193 c5 -33 12 -100 18 -150 5 -49 13 -111 16 -137 6 -48 6 -48 -24
-48 l-30 0 -12 98 c-6 53 -18 135 -26 181 -13 77 -13 85 3 103 30 33 47 19 55
-47z m1553 -106 c-10 -38 -20 -69 -22 -69 -9 0 4 94 19 142 21 69 23 10 3 -73z
m130 -144 c15 -47 25 -91 23 -97 -3 -9 -58 156 -58 175 0 24 13 -5 35 -78z
m-1585 -17 c0 -25 -3 -29 -10 -18 -13 20 -13 50 0 50 6 0 10 -15 10 -32z m-20
-128 c0 -5 -7 -10 -16 -10 -8 0 -12 5 -9 10 3 6 10 10 16 10 5 0 9 -4 9 -10z
m-63 -165 c103 -15 135 -26 119 -42 -10 -10 -197 -17 -240 -9 l-35 7 16 34 c9
19 20 32 24 29 4 -2 56 -11 116 -19z m1900 -2397 c-3 -8 -6 -5 -6 6 -1 11 2
17 5 13 3 -3 4 -12 1 -19z m-20 -120 c-3 -7 -5 -2 -5 12 0 14 2 19 5 13 2 -7
2 -19 0 -25z m-16 -104 c-6 -23 -11 -55 -11 -71 -1 -22 -2 -25 -10 -12 -6 11
-4 43 8 95 10 47 18 69 20 55 2 -13 -1 -43 -7 -67z m494 -494 c4 -6 -11 -7
-42 -3 -63 8 -67 13 -10 13 25 0 49 -4 52 -10z"/>
<path d="M4950 6006 c0 -13 -3 -33 -7 -43 -3 -10 -3 -15 1 -11 12 10 25 78 15
78 -5 0 -9 -11 -9 -24z"/>
<path d="M3783 12358 c2 -18 -1 -47 -8 -63 -14 -36 -66 -82 -101 -91 -36 -9
-29 -24 13 -24 73 0 141 110 114 183 -14 37 -24 34 -18 -5z"/>
<path d="M2612 12241 c-44 -60 -99 -241 -74 -241 6 0 13 19 17 42 4 23 27 80
51 127 52 100 55 138 6 72z"/>
<path d="M3219 12156 c-3 -3 3 -70 12 -148 10 -79 18 -148 19 -155 0 -13 -13
-16 -158 -32 -103 -11 -322 -68 -322 -83 0 -6 11 -7 28 -3 126 33 443 77 456
64 7 -7 34 -288 42 -430 l6 -126 -43 -7 c-109 -15 -269 -60 -269 -74 0 -11 8
-13 33 -9 17 3 70 13 117 21 47 9 103 16 124 16 l39 0 -7 -207 c-4 -114 -4
-204 0 -200 11 11 33 172 40 300 l7 117 96 0 c164 0 155 35 -11 43 l-83 4 -7
129 c-4 71 -15 193 -24 272 -9 79 -14 146 -11 148 3 3 68 0 144 -7 174 -17
215 -17 220 -2 6 16 -78 32 -237 44 -74 6 -136 12 -137 13 -2 1 -14 63 -28
138 -25 139 -37 183 -46 174z"/>
<path d="M3546 2018 c-21 -30 -21 -131 0 -193 12 -33 38 -71 84 -119 37 -39
71 -82 75 -94 6 -21 11 -23 42 -17 50 9 90 -11 117 -59 34 -59 39 -93 26 -200
-8 -68 -8 -111 -1 -153 24 -128 113 -263 248 -374 111 -92 204 -110 353 -68
86 23 136 51 143 78 4 17 -3 20 -46 26 -38 6 -46 10 -34 17 23 12 21 28 -3 28
-11 0 -55 -10 -97 -21 -141 -39 -248 -9 -314 87 -17 25 -48 82 -70 127 -42 90
-49 86 -20 -11 37 -119 108 -207 197 -242 l49 -19 -50 -1 -50 0 -96 98 c-150
152 -184 241 -173 446 7 120 -1 167 -39 219 -23 30 -91 67 -124 67 -13 0 -24
8 -28 21 -4 11 -32 46 -62 77 -80 81 -97 126 -89 224 5 65 4 78 -8 78 -8 0
-22 -10 -30 -22z"/>
<path d="M4312 969 c9 -26 85 -71 130 -76 58 -7 118 18 118 48 0 18 -4 20 -27
15 -101 -23 -131 -20 -217 22 -5 3 -6 -2 -4 -9z"/>
<path d="M2995 853 c-7 -30 -11 -33 -44 -33 -20 -1 -47 -7 -61 -15 l-25 -14
30 -1 c17 0 47 -5 68 -11 30 -8 37 -15 37 -34 0 -24 -3 -25 -55 -25 -30 0 -55
-4 -55 -9 0 -6 27 -18 60 -27 65 -18 82 -44 30 -44 -68 0 -173 -53 -215 -109
l-19 -26 24 18 c14 10 54 32 90 50 57 27 78 32 168 37 l103 5 46 -47 c46 -47
83 -62 83 -34 0 25 -51 76 -106 108 -30 16 -52 35 -51 41 1 6 -12 18 -30 26
-47 21 -52 44 -8 35 28 -5 35 -3 35 9 0 19 -23 44 -49 52 -10 3 -25 22 -34 43
l-15 37 -7 -32z m85 -203 c12 -8 9 -10 -12 -10 -16 0 -28 5 -28 10 0 13 20 13
40 0z"/>
<path d="M2772 760 c-25 -132 -37 -230 -29 -230 15 0 26 45 42 167 22 173 15
208 -13 63z"/>
<path d="M3230 822 c0 -28 101 -422 122 -474 12 -32 48 -39 48 -10 0 23 -112
412 -135 470 -20 48 -35 55 -35 14z"/>
<path d="M3110 373 c-41 -7 -114 -13 -163 -11 -48 2 -87 0 -87 -3 0 -3 27 -14
59 -24 83 -25 213 -18 264 14 20 12 37 27 37 32 0 11 -15 10 -110 -8z"/>
<path d="M3165 148 c-86 -24 -251 -26 -340 -4 -95 23 -88 6 15 -36 47 -20 73
-23 185 -23 128 0 132 1 198 33 107 53 79 68 -58 30z"/>
</g>
</svg>
