<?xml version="1.0" standalone="no"?>
<!DOCTYPE svg PUBLIC "-//W3C//DTD SVG 20010904//EN"
 "http://www.w3.org/TR/2001/REC-SVG-20010904/DTD/svg10.dtd">
<svg version="1.0" xmlns="http://www.w3.org/2000/svg"
 width="833.000000pt" height="1280.000000pt" viewBox="0 0 833.000000 1280.000000"
 preserveAspectRatio="xMidYMid meet">
<metadata>
Created by potrace 1.15, written by Peter Selinger 2001-2017
</metadata>
<g transform="translate(0.000000,1280.000000) scale(0.100000,-0.100000)"
fill="#000000" stroke="none">
<path d="M4517 12789 c-96 -10 -260 -49 -352 -84 -422 -158 -721 -539 -814
-1035 -58 -314 -63 -347 -58 -417 l5 -63 -35 0 c-89 0 -149 -73 -194 -236 -30
-110 -38 -195 -28 -297 22 -217 113 -438 259 -632 l49 -65 -39 0 c-99 0 -438
-89 -600 -157 -191 -81 -327 -187 -365 -286 -15 -40 -25 -48 -148 -120 -614
-356 -1004 -689 -1033 -882 -6 -42 -6 -42 -50 -43 -123 -1 -406 -147 -596
-306 -81 -67 -176 -180 -217 -257 -17 -30 -40 -93 -52 -140 -20 -75 -28 -91
-78 -145 -113 -124 -178 -273 -168 -385 9 -105 64 -186 174 -255 l53 -35 0
-237 c0 -668 60 -1267 150 -1501 34 -89 87 -157 129 -166 16 -3 39 -18 52 -32
13 -14 49 -42 80 -63 l55 -38 17 -154 c14 -122 17 -251 17 -644 l0 -491 -131
-609 -131 -609 12 -380 c7 -209 15 -750 17 -1202 l5 -823 209 0 209 0 0 167
c0 148 11 254 95 958 l95 792 0 1094 c0 655 4 1244 12 1466 l12 373 55 16
c138 40 303 156 383 268 41 58 49 65 44 41 -57 -296 -69 -653 -28 -855 17 -83
18 -85 57 -106 22 -12 120 -52 218 -90 143 -54 178 -72 182 -88 24 -122 95
-384 127 -471 103 -279 235 -470 366 -527 26 -11 48 -22 50 -23 1 -1 -11 -17
-28 -35 -110 -118 -19 -299 278 -551 l63 -54 4 -75 c1 -41 11 -95 20 -120 35
-90 34 -91 -169 -293 -272 -271 -395 -451 -404 -593 -5 -81 1 -105 40 -149 55
-64 126 -90 284 -105 212 -21 522 22 975 136 584 146 884 292 926 449 6 24 9
12 14 -56 9 -125 33 -163 141 -222 252 -136 784 -291 1173 -341 336 -44 568
-26 740 59 76 37 116 72 123 108 16 86 -9 201 -66 312 -48 92 -196 242 -314
319 -107 69 -299 163 -433 211 -55 20 -117 48 -137 62 -35 24 -38 30 -38 73
l0 47 136 99 c297 215 502 394 566 495 l35 54 -10 140 c-11 143 -2 262 23 316
6 14 32 38 58 54 74 47 212 165 283 243 35 38 82 104 104 145 22 41 64 114 93
161 l53 86 102 49 c119 56 203 116 245 174 32 45 52 94 33 83 -43 -27 -100
312 -151 909 -6 72 -15 170 -20 219 -10 92 -6 129 5 60 15 -89 34 -181 44
-207 22 -57 31 -16 31 138 l0 153 33 7 c94 21 264 105 367 182 126 94 273 271
347 416 188 372 222 906 97 1512 -57 280 -38 238 -258 555 -661 950 -1126
1465 -1476 1634 l-85 41 -212 3 c-117 2 -213 5 -213 7 0 2 24 36 54 76 86 114
161 276 214 464 57 199 64 284 37 440 -46 262 -165 319 -358 171 -26 -20 -47
-32 -47 -28 0 5 7 56 15 113 36 256 36 599 0 769 -8 41 -33 113 -56 159 -192
404 -580 652 -1094 701 -122 11 -145 11 -258 -1z m84 -10284 c11 -82 27 -175
35 -206 7 -31 14 -80 14 -108 0 -53 23 -91 55 -91 8 0 15 -2 15 -4 0 -2 -16
-45 -35 -95 -41 -105 -85 -263 -85 -303 0 -49 -15 -30 -32 42 -41 171 -162
341 -261 365 -29 8 -32 19 -17 62 l10 28 -20 -24 c-12 -13 -25 -31 -30 -40 -5
-9 -12 -12 -16 -8 -8 8 26 170 46 222 l12 30 15 -32 c20 -39 51 -55 80 -39 73
39 146 223 159 400 8 114 16 124 26 31 4 -44 17 -147 29 -230z"/>
</g>
</svg>
