<?xml version="1.0" standalone="no"?>
<!DOCTYPE svg PUBLIC "-//W3C//DTD SVG 20010904//EN"
 "http://www.w3.org/TR/2001/REC-SVG-20010904/DTD/svg10.dtd">
<svg version="1.0" xmlns="http://www.w3.org/2000/svg"
 width="470.000000pt" height="1280.000000pt" viewBox="0 0 470.000000 1280.000000"
 preserveAspectRatio="xMidYMid meet">
<metadata>
Created by potrace 1.15, written by Peter Selinger 2001-2017
</metadata>
<g transform="translate(0.000000,1280.000000) scale(0.100000,-0.100000)"
fill="#000000" stroke="none">
<path d="M2395 12790 c-159 -34 -315 -147 -419 -304 l-55 -81 -113 -22 c-269
-52 -453 -146 -638 -324 -46 -45 -94 -88 -107 -96 -13 -8 -20 -19 -18 -24 26
-41 -275 -71 -336 -34 -5 4 -9 4 -9 0 0 -3 10 -10 23 -16 16 -7 6 -8 -41 -5
-43 3 -77 12 -110 31 -36 20 -41 22 -22 5 70 -59 132 -72 340 -72 213 0 388
33 575 107 11 5 -2 -9 -30 -29 -66 -51 -110 -92 -148 -141 -22 -28 -9 -19 44
31 104 99 214 168 331 210 46 16 51 2 6 -17 -46 -18 -176 -96 -218 -129 -20
-16 -58 -57 -85 -92 -27 -34 -42 -57 -32 -49 14 11 17 11 16 0 -4 -52 -13 -59
-126 -98 -62 -21 -149 -60 -192 -86 -81 -49 -257 -209 -281 -255 -14 -28 -5
-20 28 24 27 36 29 24 3 -18 -33 -54 -62 -155 -63 -223 -1 -91 -41 -151 -152
-232 -45 -32 -147 -123 -228 -202 -220 -216 -322 -385 -333 -552 -4 -63 -3
-67 5 -28 15 71 21 71 14 2 -5 -58 -4 -63 10 -52 9 7 21 32 27 54 21 80 159
324 241 429 50 64 168 178 183 178 7 0 22 11 35 25 13 14 25 23 27 22 1 -2
-14 -44 -36 -93 -43 -100 -85 -223 -79 -230 3 -2 19 35 38 84 38 100 105 238
129 266 14 16 82 56 95 56 2 0 7 -10 9 -22 4 -20 4 -19 6 5 2 41 14 33 34 -24
10 -28 21 -49 24 -46 2 3 0 14 -5 24 -6 10 -12 34 -13 53 -4 32 -1 36 41 57
58 28 60 28 60 -5 0 -37 36 -165 60 -212 l19 -38 -49 -97 c-28 -53 -50 -109
-49 -123 0 -24 2 -22 15 13 19 52 36 69 24 24 -5 -19 -11 -65 -14 -104 -3 -38
-14 -133 -25 -210 -24 -177 -33 -260 -27 -254 3 3 17 86 31 185 45 315 74 459
101 502 13 20 18 21 31 10 14 -11 15 -10 9 8 -4 14 1 27 19 44 29 27 31 21 9
-22 -26 -51 -72 -217 -89 -321 -9 -59 -15 -155 -15 -235 1 -116 -2 -145 -19
-190 -12 -29 -21 -62 -20 -75 0 -14 8 -2 20 31 12 29 23 52 25 49 2 -2 -1 -39
-6 -83 -8 -60 -15 -84 -33 -100 -28 -27 -546 -502 -620 -569 -59 -53 -76 -91
-59 -130 13 -27 163 -150 309 -251 187 -131 458 -285 827 -470 204 -102 377
-192 385 -199 16 -15 2 -42 -83 -160 -46 -65 -53 -81 -83 -210 -18 -77 -35
-174 -37 -215 -2 -41 -9 -129 -15 -195 -8 -101 -23 -514 -25 -704 l-1 -54 47
-16 c26 -9 49 -18 52 -21 3 -3 -4 -55 -14 -115 -29 -160 -75 -480 -104 -725
-14 -118 -55 -466 -91 -774 l-65 -558 -58 -97 c-223 -368 -349 -712 -407
-1103 -45 -312 -40 -643 21 -1228 33 -316 36 -373 38 -685 2 -410 15 -510 113
-913 l37 -152 41 -11 c45 -13 190 -6 247 11 35 10 37 12 48 80 8 46 10 162 7
347 -4 315 -2 304 -114 633 l-55 165 5 215 c6 224 21 357 77 676 126 725 492
2116 692 2629 126 323 215 610 423 1356 l27 97 177 -5 c97 -2 181 -6 187 -8 6
-2 16 -29 23 -61 52 -245 152 -556 301 -934 211 -538 226 -599 340 -1455 57
-429 73 -528 165 -1055 118 -675 142 -872 155 -1295 l8 -270 -30 -105 c-17
-58 -43 -163 -59 -234 l-29 -128 6 -257 c10 -417 40 -497 187 -500 21 -1 52 5
70 13 32 13 33 15 70 172 92 392 112 540 112 839 0 196 -2 235 -16 256 -13 19
-15 42 -12 104 12 242 27 439 54 708 23 232 33 305 46 319 13 14 13 20 3 33
-10 12 -9 46 1 172 21 243 19 793 -4 963 -44 324 -124 610 -250 890 l-65 145
-17 300 c-9 165 -20 442 -25 615 -5 173 -14 362 -20 419 l-11 104 39 41 c32
33 47 63 77 154 20 61 37 112 39 112 1 0 0 -35 -2 -77 -4 -71 -7 -82 -38 -122
-38 -50 -43 -71 -15 -71 29 0 67 36 92 87 l23 47 13 -32 c12 -29 11 -35 -18
-82 -32 -52 -51 -130 -31 -130 6 0 41 34 77 77 l67 76 -6 49 c-12 89 -67 290
-101 367 -50 113 -57 170 -45 362 13 212 13 571 0 724 -6 66 -22 194 -36 285
-25 159 -90 496 -100 511 -5 9 14 1039 22 1157 l6 83 30 -63 c16 -35 46 -110
66 -168 34 -100 36 -113 39 -255 1 -82 6 -211 10 -285 l8 -135 10 125 c12 159
12 206 2 305 -9 90 1 97 13 8 7 -48 8 -38 6 52 -2 189 5 342 14 320 5 -11 7
-58 5 -105 -4 -84 -4 -84 5 -21 5 35 11 65 14 68 2 2 13 -35 24 -84 16 -70 20
-132 22 -303 1 -118 6 -235 10 -260 l9 -45 -2 55 c-1 30 2 112 6 181 10 151
-2 275 -44 438 -16 63 -28 115 -26 117 7 8 51 -148 68 -241 9 -55 18 -86 18
-68 1 44 -24 163 -55 256 -22 66 -24 80 -12 95 11 15 11 16 -3 5 -13 -11 -18
-9 -27 13 -7 14 -12 36 -12 50 0 14 -4 22 -10 19 -11 -6 -26 42 -16 52 3 4 6
-5 7 -18 0 -13 3 -19 5 -12 3 6 -2 39 -11 73 -9 34 -14 64 -13 66 9 8 101
-195 95 -209 -4 -10 -1 -14 7 -11 15 6 47 -71 75 -181 11 -44 27 -99 35 -123
12 -33 16 -94 17 -255 2 -303 13 -360 22 -116 4 108 5 216 2 240 -5 33 -4 40
4 29 6 -8 11 -35 12 -60 2 -42 2 -43 8 -12 l6 33 17 -33 c12 -23 20 -73 26
-163 l9 -130 2 100 c2 120 8 135 42 99 13 -14 61 -56 107 -92 45 -36 82 -69
82 -75 0 -5 7 -7 15 -4 8 4 17 1 21 -5 5 -7 2 -8 -6 -3 -9 5 -11 4 -6 -4 4 -6
12 -9 17 -6 5 4 14 -6 20 -22 l12 -28 7 25 c8 27 -4 60 -22 60 -6 0 -3 -10 8
-22 l19 -23 -22 19 c-13 10 -20 22 -18 26 3 4 -36 41 -85 81 -50 41 -90 78
-90 82 0 4 8 11 17 14 22 9 53 35 53 46 0 4 -6 5 -12 0 -26 -16 -62 -14 -75 3
-17 23 -16 72 2 197 33 215 15 437 -50 628 -43 127 -29 161 23 57 17 -35 33
-70 36 -78 3 -8 3 3 0 25 -5 37 -16 62 -71 170 -12 22 -30 78 -41 125 -11 47
-23 93 -27 103 -28 70 94 -74 141 -167 29 -57 35 -64 30 -36 -11 65 -66 158
-135 232 -37 40 -78 92 -89 115 -12 23 -26 44 -32 48 -5 3 -10 10 -10 16 0 16
93 -57 156 -124 62 -63 84 -96 116 -172 11 -25 17 -33 17 -20 1 32 -43 129
-81 182 -29 39 -36 60 -41 113 -6 65 -61 275 -78 296 -5 6 -7 14 -4 17 3 4 2
5 -2 2 -3 -3 -17 13 -29 35 -13 23 -40 61 -60 85 -36 45 -58 63 -269 230 -60
48 -99 84 -85 80 46 -13 214 -129 290 -200 41 -38 57 -51 35 -27 -21 23 -35
42 -30 42 12 0 72 -46 130 -99 l50 -46 -45 49 c-25 26 -112 93 -195 147 -82
54 -147 99 -143 99 4 0 33 -7 65 -15 117 -31 202 -16 257 45 39 43 44 68 24
135 l-11 40 -12 -60 c-21 -109 -34 -119 -165 -120 -87 0 -137 21 -243 102 -93
71 -303 283 -245 247 10 -6 -88 141 -112 169 -4 5 -11 3 -15 -4 -6 -8 -4 -10
6 -4 8 5 11 5 7 0 -4 -4 14 -35 39 -69 72 -94 71 -93 50 -77 -48 38 -147 201
-106 175 6 -3 -1 12 -16 35 -34 50 -45 55 -15 6 12 -19 20 -35 17 -35 -9 0
-54 66 -62 90 -7 24 -7 25 10 5 9 -11 5 0 -9 25 -15 25 -31 44 -37 42 -6 -1
-8 2 -4 8 7 11 -35 123 -43 115 -3 -3 -23 28 -44 67 -22 40 -58 101 -80 136
-22 34 -39 65 -36 68 7 7 54 -67 110 -171 26 -49 48 -86 48 -81 0 17 -93 185
-130 233 -20 27 -52 77 -70 112 -42 77 -120 151 -161 151 -17 0 -41 -7 -55
-16 -24 -16 -26 -16 -57 13 -88 84 -327 143 -462 113z m-507 -455 c-6 -15 -20
-25 -32 -26 -21 0 -21 -1 -1 -8 16 -7 7 -14 -56 -43 -42 -19 -127 -68 -190
-109 -210 -135 -314 -181 -499 -224 l-65 -14 80 75 c44 42 96 91 115 109 40
37 151 110 226 148 85 43 256 98 318 103 33 2 62 7 65 9 2 3 15 5 27 5 21 0
23 -2 12 -25z m-356 -462 c-17 -21 -63 -69 -102 -108 -60 -59 -69 -65 -60 -40
24 64 66 111 150 167 40 27 44 21 12 -19z m2024 -464 c32 -48 55 -89 53 -92
-2 -3 5 -16 17 -29 30 -34 56 -78 45 -78 -14 0 -81 94 -70 98 5 2 -2 13 -16
24 -14 11 -23 23 -20 27 2 5 -5 17 -17 27 -22 20 -49 60 -92 139 l-28 50 36
-40 c19 -22 61 -79 92 -126z m-2216 121 c-8 -5 -19 -10 -25 -10 -5 0 -3 5 5
10 8 5 20 10 25 10 6 0 3 -5 -5 -10z m-180 -5 c0 -2 -24 -20 -52 -38 -70 -45
-137 -103 -178 -152 -22 -25 -8 -16 36 26 67 64 136 119 149 119 13 0 -63 -89
-127 -149 -37 -34 -100 -101 -139 -149 -40 -48 -77 -91 -82 -97 -18 -21 7 53
44 133 56 117 145 210 259 267 94 49 90 47 90 40z m2917 -434 c92 -79 185
-187 219 -253 25 -49 50 -130 64 -208 13 -70 12 -78 -8 -55 -9 11 -61 55 -115
97 -54 43 -123 109 -156 150 -59 74 -201 215 -279 278 -37 30 -111 130 -96
130 13 0 135 -101 219 -180 49 -47 73 -66 54 -42 -43 51 -127 125 -226 200
-52 39 -87 75 -120 126 -26 39 -55 83 -65 97 -25 37 408 -253 509 -340z
m-2057 286 c-22 -36 -47 -68 -55 -71 -8 -3 -15 -10 -15 -16 0 -6 6 -8 13 -4 7
4 9 3 4 -2 -5 -5 -12 -9 -15 -9 -13 0 -32 -16 -32 -27 0 -6 7 -5 17 3 15 12
16 12 8 -1 -15 -28 -38 -50 -45 -45 -5 3 -33 -30 -64 -72 -53 -74 -136 -172
-136 -160 0 20 82 137 143 204 40 44 103 124 141 177 77 108 99 123 36 23z
m-670 7 c0 -8 -149 -102 -153 -97 -4 3 -24 -10 -46 -30 -43 -38 -81 -62 -81
-50 0 4 -7 -3 -16 -15 -8 -12 -20 -22 -25 -22 -6 0 3 18 21 40 17 22 35 39 40
37 5 -1 21 12 37 30 34 39 166 111 199 109 13 0 24 -2 24 -2z m-470 -8 c0 -2
-8 -10 -17 -17 -16 -13 -17 -12 -4 4 13 16 21 21 21 13z m230 -49 c0 -2 -10
-12 -22 -23 l-23 -19 19 23 c18 21 26 27 26 19z m228 -62 c-36 -46 -60 -63
-152 -110 -60 -31 -116 -54 -125 -53 -9 2 -21 -3 -28 -12 -11 -13 -12 -13 -13
2 0 9 11 23 24 30 13 7 46 29 72 48 50 36 243 148 257 149 4 1 -11 -24 -35
-54z m592 51 c0 -2 -20 -30 -45 -62 -46 -59 -62 -66 -23 -11 33 49 68 86 68
73z m1185 -67 c6 -27 1 -49 -9 -38 -10 11 -17 69 -8 69 6 0 13 -14 17 -31z
m-765 -64 c21 -23 22 -27 10 -50 -8 -15 -19 -24 -28 -20 -7 3 -18 5 -23 5 -10
0 -12 34 -3 68 8 28 15 28 44 -3z m-569 -32 c-5 -10 -26 -34 -47 -53 -36 -33
-35 -32 7 17 47 56 55 63 40 36z m252 -37 c-14 -19 -19 -21 -21 -9 -2 9 2 19
10 24 24 16 29 9 11 -15z m382 5 c5 -10 -59 -161 -69 -161 -3 0 -12 13 -21 29
-15 29 -14 30 28 67 26 23 37 38 29 41 -10 4 -10 8 -1 19 13 16 25 18 34 5z
m-480 -11 c-3 -5 -12 -10 -18 -10 -7 0 -6 4 3 10 19 12 23 12 15 0z m1345 -10
c6 -11 8 -20 6 -20 -3 0 -10 9 -16 20 -6 11 -8 20 -6 20 3 0 10 -9 16 -20z
m-2409 -12 c-4 -12 -23 -33 -42 -47 l-34 -26 20 25 c29 38 58 70 61 70 2 0 0
-10 -5 -22z m2167 -3 c-3 -3 -9 2 -12 12 -6 14 -5 15 5 6 7 -7 10 -15 7 -18z
m-2038 -5 c-24 -15 -36 -11 -14 4 10 8 21 12 24 10 2 -3 -2 -9 -10 -14z m2435
0 c10 -11 16 -20 13 -20 -3 0 -13 9 -23 20 -10 11 -16 20 -13 20 3 0 13 -9 23
-20z m-1548 -22 c-45 -67 -289 -313 -299 -302 -3 3 -20 -13 -38 -36 -17 -22
-35 -38 -40 -35 -11 7 -43 -32 -35 -45 3 -6 2 -9 -3 -8 -5 2 -24 -14 -41 -36
-34 -42 -40 -56 -16 -36 12 10 15 10 15 -1 0 -8 12 0 26 16 l26 30 -22 -33
c-12 -18 -26 -29 -32 -25 -7 4 -9 0 -5 -10 4 -10 2 -16 -6 -14 -6 1 -46 -66
-87 -149 -41 -83 -81 -159 -89 -168 -24 -28 -31 -17 -15 26 8 22 12 43 10 45
-2 2 -13 -22 -23 -53 -11 -32 -24 -59 -31 -62 -7 -2 -4 17 8 53 11 32 17 62
13 68 -4 6 -1 7 7 2 9 -5 10 -2 6 12 -7 21 35 136 88 241 26 51 43 74 66 83
16 8 30 17 30 21 0 4 9 12 20 18 13 7 3 -15 -32 -72 -50 -81 -148 -274 -148
-293 0 -5 31 51 68 125 88 174 149 268 203 311 24 19 46 34 49 34 3 0 23 18
44 40 21 22 33 32 26 22 -7 -9 -11 -20 -8 -23 3 -3 28 23 55 58 70 89 211 234
219 226 4 -4 0 -18 -9 -30z m-583 -40 c-78 -84 -137 -157 -191 -238 -28 -41
-70 -91 -94 -110 l-44 -35 19 30 c30 48 172 245 222 308 29 37 61 66 87 78 23
10 44 19 46 19 2 0 -18 -24 -45 -52z m1179 -21 c-25 -85 -69 -185 -120 -268
-41 -68 -61 -87 -108 -108 -5 -2 11 19 37 47 93 99 152 216 183 360 3 18 10
30 15 27 5 -3 2 -29 -7 -58z m-793 48 c0 -2 -29 -37 -64 -77 -36 -40 -63 -75
-60 -78 3 -3 17 9 31 25 66 77 114 129 107 115 -4 -8 -15 -24 -26 -36 -10 -11
-21 -31 -23 -44 -5 -26 -34 -62 -45 -55 -4 2 -22 -16 -40 -41 -18 -25 -43 -49
-56 -54 -13 -5 -24 -13 -24 -18 0 -5 -19 -24 -42 -43 l-43 -34 35 49 c51 71
97 122 104 115 4 -3 -4 -19 -16 -34 -13 -16 -17 -26 -11 -22 7 4 21 21 33 37
15 20 17 31 9 36 -8 5 -9 3 -4 -6 6 -9 4 -11 -4 -6 -14 9 -19 2 73 109 55 63
66 74 66 62z m235 -55 c-21 -22 -41 -38 -43 -35 -2 2 11 24 29 50 22 31 36 42
43 35 7 -7 -2 -23 -29 -50z m95 48 c0 -7 -4 -19 -9 -27 -11 -17 -23 1 -15 23
7 19 24 21 24 4z m262 -10 c-7 -7 -12 -8 -12 -2 0 14 12 26 19 19 2 -3 -1 -11
-7 -17z m268 -21 c0 -20 -35 -117 -58 -163 -11 -22 -41 -63 -66 -90 l-46 -49
50 84 c28 47 63 117 78 158 25 68 42 92 42 60z m-1393 -69 c-30 -40 -85 -118
-122 -173 -37 -55 -65 -92 -62 -83 53 150 131 286 178 310 59 30 60 20 6 -54z
m794 29 c-25 -41 -26 -47 -6 -47 25 0 5 -27 -117 -161 -160 -174 -213 -228
-196 -199 107 186 182 295 252 368 43 45 81 80 84 78 2 -3 -5 -20 -17 -39z
m984 -12 c9 -22 12 -35 6 -30 -5 6 -17 28 -26 50 -9 22 -12 36 -7 30 6 -5 18
-28 27 -50z m451 -5 l38 -45 -38 35 c-21 19 -42 44 -48 55 -12 23 -5 17 48
-45z m-1522 18 c-24 -40 -83 -128 -104 -156 -14 -19 -25 -37 -25 -40 0 -4 -42
-75 -93 -159 -90 -147 -136 -200 -256 -293 -29 -23 20 69 88 164 31 43 55 80
53 83 -3 2 -18 -15 -35 -37 -16 -23 -32 -38 -34 -33 -3 4 -4 3 -2 -3 1 -6 -15
-38 -37 -70 -21 -33 -39 -54 -39 -49 0 6 12 27 26 48 14 21 27 46 29 57 3 18
34 70 41 70 2 0 1 -8 -3 -17 -3 -10 11 0 31 22 21 22 34 33 30 25 -7 -13 -5
-13 9 -1 20 16 23 36 5 25 -9 -5 -8 -2 1 9 8 10 16 15 19 12 7 -7 92 76 92 89
0 6 17 28 37 51 22 22 12 16 -21 -15 -92 -86 -62 -44 69 99 115 126 135 146
119 119z m2096 -76 c0 -8 -75 61 -84 77 -5 9 12 -4 38 -29 25 -24 46 -46 46
-48z m-2919 -3 c-22 -41 -52 -108 -68 -149 l-27 -75 -9 49 c-4 26 -6 82 -5
124 l3 77 70 26 c39 14 71 25 73 24 1 -1 -15 -36 -37 -76z m259 58 c0 -2 -12
-14 -27 -28 l-28 -24 24 28 c23 25 31 32 31 24z m1019 -49 c-28 -53 -149 -195
-149 -175 0 18 46 97 56 97 6 0 14 22 18 50 l7 50 40 0 c38 0 39 -1 28 -22z
m693 -69 c21 -26 78 -90 128 -142 49 -52 90 -97 90 -101 0 -13 -101 57 -131
92 -40 45 -149 212 -148 227 0 5 6 2 12 -9 7 -10 29 -40 49 -67z m144 54 c-7
-7 -26 7 -26 19 0 6 6 6 15 -2 9 -7 13 -15 11 -17z m-2252 -62 c3 -43 13 -101
21 -127 18 -61 18 -66 0 -32 -20 36 -45 144 -45 196 0 72 17 46 24 -37z m2328
-18 c59 -57 132 -152 123 -162 -8 -7 -50 35 -132 132 -41 48 -69 87 -63 87 6
0 39 -26 72 -57z m555 -55 c118 -137 132 -161 39 -63 -70 73 -144 165 -132
165 2 0 44 -46 93 -102z m-1784 -2 c-74 -115 -243 -282 -243 -240 0 3 52 60
116 127 63 67 127 141 142 163 15 23 28 38 30 33 2 -4 -18 -42 -45 -83z m163
56 c-23 -65 -87 -184 -120 -224 -50 -61 -49 -43 2 25 44 58 69 105 106 200 20
48 29 48 12 -1z m1290 -32 c7 -8 20 -28 29 -45 11 -19 -3 -9 -39 30 -58 63
-76 96 -29 54 15 -13 33 -31 39 -39z m-23 -83 c62 -62 133 -132 160 -155 26
-23 47 -44 47 -46 0 -2 -10 -2 -22 1 -27 6 -118 91 -118 109 0 7 -33 43 -74
80 -70 63 -124 124 -111 124 4 0 57 -51 118 -113z m149 49 l32 -41 -38 35
c-40 37 -76 88 -42 61 9 -8 31 -33 48 -55z m547 -60 c49 -73 43 -72 -28 4 -39
41 -71 79 -71 83 0 16 72 -48 99 -87z m-231 -143 c109 -90 110 -92 141 -172
l21 -51 -25 16 c-14 9 -25 20 -25 25 0 5 -62 71 -138 147 -119 117 -222 236
-222 254 0 3 33 -26 73 -64 39 -39 118 -108 175 -155z m-608 83 c64 -67 79
-87 60 -82 -26 7 -91 71 -170 165 -44 54 -44 54 -10 30 19 -13 73 -64 120
-113z m431 -109 c21 -37 1 -25 -75 45 -69 63 -126 134 -126 155 0 10 189 -178
201 -200z m-1922 111 c-53 -77 -96 -122 -145 -153 -33 -21 -62 -51 -79 -80
-15 -25 -79 -95 -143 -155 -64 -60 -114 -112 -111 -115 3 -3 25 12 49 32 31
27 40 31 31 15 -12 -22 -113 -123 -118 -118 -2 1 6 38 17 82 16 65 25 83 52
104 100 77 217 183 328 294 125 126 161 155 119 94z m400 15 c-33 -44 -54 -63
-68 -63 -10 0 2 16 29 40 50 43 59 49 39 23z m1308 -129 c-13 -13 -60 31 -96
87 l-33 54 68 -67 c37 -37 65 -70 61 -74z m649 60 c70 -53 75 -61 114 -182 34
-106 35 -109 16 -93 -21 18 -203 321 -193 321 3 0 31 -20 63 -46z m-3105 -151
c-12 -20 -14 -14 -5 12 4 9 9 14 11 11 3 -2 0 -13 -6 -23z m2900 -20 c13 -16
12 -17 -3 -4 -10 7 -18 15 -18 17 0 8 8 3 21 -13z m-2611 -93 c-12 -23 -24
-40 -27 -37 -3 3 5 24 18 46 29 53 37 46 9 -9z m2620 15 c14 -19 14 -19 -2 -6
-10 7 -18 18 -18 24 0 6 1 8 3 6 1 -2 9 -13 17 -24z m-2939 -23 c-6 -12 -11
-49 -11 -83 0 -44 -8 -82 -26 -127 -14 -35 -23 -66 -20 -69 2 -3 10 14 17 36
7 23 14 39 17 37 5 -6 -28 -108 -39 -120 -4 -5 -7 29 -5 75 4 81 36 223 59
260 15 24 21 16 8 -9z m3114 -22 c5 -17 4 -22 -3 -15 -5 6 -13 21 -17 35 -5
17 -4 22 3 15 5 -5 13 -21 17 -35z m-4026 -32 c-12 -23 -32 -72 -45 -108 -19
-54 -22 -58 -18 -25 6 43 71 191 80 182 3 -3 -5 -25 -17 -49z m3971 -8 c6 -10
10 -23 10 -29 0 -14 -55 39 -70 68 l-12 24 31 -22 c17 -12 36 -31 41 -41z
m-118 13 c14 -16 47 -66 73 -113 27 -47 58 -101 71 -120 21 -32 45 -155 44
-225 -1 -20 -1 -20 -12 0 -6 10 -15 40 -20 65 -11 59 -49 135 -92 186 -59 69
-133 205 -121 224 11 17 30 11 57 -17z m107 -117 c28 -46 51 -90 51 -97 0 -13
-24 23 -95 145 -16 27 -24 46 -18 43 7 -4 35 -45 62 -91z m-2785 -22 c-26 -98
-39 -120 -31 -54 l6 45 -12 -45 c-14 -54 -25 -72 -38 -65 -5 4 -9 -1 -9 -9 0
-9 -4 -16 -9 -16 -6 0 -5 13 1 32 10 28 12 29 18 13 5 -15 9 -8 14 25 7 47 34
107 36 80 1 -8 8 6 16 33 25 82 32 51 8 -39z m2881 31 c4 -26 3 -35 -3 -25
-13 22 -25 87 -13 75 5 -6 12 -28 16 -50z m-2967 -40 c-6 -14 -13 -23 -16 -21
-7 7 9 46 18 46 5 0 4 -11 -2 -25z m35 10 c-3 -9 -8 -14 -10 -11 -3 3 -2 9 2
15 9 16 15 13 8 -4z m2706 -101 c23 -63 41 -121 41 -127 0 -7 -23 35 -50 92
-47 97 -62 151 -41 151 5 0 27 -52 50 -116z m-2774 54 c-7 -43 -23 -83 -30
-76 -4 3 11 80 20 106 10 28 16 9 10 -30z m3070 -33 c9 -79 -2 -67 -13 14 -5
34 -6 58 -2 54 4 -4 11 -35 15 -68z m-46 -33 c0 -30 -2 -33 -9 -17 -12 28 -12
67 0 60 6 -3 10 -23 9 -43z m110 -201 c-1 -78 -5 -108 -12 -96 -5 9 -11 34
-13 54 -2 20 -8 70 -13 111 -6 41 -10 100 -10 130 l0 55 25 -70 c21 -60 24
-86 23 -184z m-349 89 c59 -117 49 -110 -20 13 -33 60 -60 114 -60 120 0 16
31 -36 80 -133z m105 20 c30 -60 55 -113 55 -117 0 -9 -120 213 -120 222 0 18
16 -8 65 -105z m-94 -94 c53 -102 63 -130 69 -190 3 -39 1 -101 -5 -140 l-11
-71 -13 44 c-7 23 -14 41 -17 39 -2 -3 3 -27 11 -54 8 -27 15 -60 14 -74 0
-14 -13 18 -28 70 -42 145 -42 148 -21 105 44 -88 5 16 -46 124 l-54 113 0
102 0 101 19 -25 c11 -13 47 -78 82 -144z m-2818 134 c-3 -12 -8 -19 -11 -16
-5 6 5 36 12 36 2 0 2 -9 -1 -20z m-160 -114 c-5 -49 -13 -81 -20 -84 -24 -7
-13 121 14 188 11 27 14 -19 6 -104z m3264 48 c8 -51 -7 -37 -17 16 -5 25 -4
38 2 32 5 -5 11 -26 15 -48z m-3297 6 c0 -5 -5 -10 -11 -10 -5 0 -7 5 -4 10 3
6 8 10 11 10 2 0 4 -4 4 -10z m-41 -184 c-9 -8 -10 -7 -5 7 3 10 7 35 8 55 1
35 2 35 5 -7 3 -26 -1 -48 -8 -55z m3355 -61 c9 -81 52 -295 62 -304 4 -3 4 5
1 19 -30 130 -59 306 -48 294 15 -16 31 -76 31 -113 0 -20 7 -49 15 -65 17
-31 20 -131 6 -141 -6 -3 -14 2 -20 12 -16 32 -51 136 -46 142 2 4 -3 52 -11
106 -7 55 -13 114 -13 130 1 50 15 0 23 -80z m-2488 -68 c1 -137 26 -234 89
-356 40 -77 51 -116 126 -453 l83 -370 -44 -36 c-25 -20 -68 -58 -95 -84 l-51
-47 -41 19 c-23 10 -89 55 -146 99 -59 45 -112 79 -124 78 -12 0 -66 39 -141
102 l-121 104 5 241 c6 315 16 368 106 575 l41 93 151 74 c83 41 153 74 156
74 3 0 5 -51 6 -113z m2551 21 c-3 -7 -5 -2 -5 12 0 14 2 19 5 13 2 -7 2 -19
0 -25z m-2964 -173 c-48 -119 -82 -263 -87 -364 -5 -88 -3 -83 15 54 11 89 37
192 69 279 31 81 35 64 5 -23 -60 -178 -70 -248 -68 -497 l1 -231 -77 57 c-42
31 -105 74 -140 95 l-63 39 5 101 c2 55 12 125 22 155 9 30 24 78 32 105 8 28
30 82 48 122 l33 72 119 60 c65 33 118 60 119 60 1 1 -14 -37 -33 -84z m2128
-116 l-20 -154 75 -455 c42 -250 76 -468 76 -485 -1 -16 -9 -93 -19 -170 l-19
-139 -43 79 c-55 102 -136 215 -233 326 l-77 88 137 540 c75 297 138 537 140
532 2 -5 -6 -78 -17 -162z m-2404 -10 l-15 -34 3 40 c4 52 3 51 16 38 7 -7 6
-20 -4 -44z m-59 -110 c-15 -47 -29 -110 -33 -140 -4 -43 -1 -36 14 31 10 47
26 101 35 120 11 23 14 27 10 10 -6 -28 -52 -264 -62 -325 -5 -25 -8 24 -10
125 -2 183 10 272 42 304 l21 21 5 -30 c4 -19 -5 -63 -22 -116z m-60 9 c-10
-52 -19 -145 -21 -211 -1 -74 -6 -116 -12 -113 -102 45 -168 70 -246 92 -52
15 -98 30 -103 35 -29 26 101 128 317 248 49 27 58 30 53 14 -12 -43 -26 -140
-25 -177 1 -31 4 -25 9 25 11 92 30 179 39 179 4 0 -1 -42 -11 -92z m3299 -65
c-2 -16 -4 -3 -4 27 0 30 2 43 4 28 2 -16 2 -40 0 -55z m228 37 c-3 -5 -14
-10 -23 -9 -14 0 -13 2 3 9 27 11 27 11 20 0z m-348 -37 c-3 -10 -5 -4 -5 12
0 17 2 24 5 18 2 -7 2 -21 0 -30z m-3180 -185 c-2 -13 -4 -3 -4 22 0 25 2 35
4 23 2 -13 2 -33 0 -45z m340 -45 c-2 -16 -4 -5 -4 22 0 28 2 40 4 28 2 -13 2
-35 0 -50z m2495 -2416 c19 -35 22 -59 23 -147 0 -89 -3 -110 -20 -135 l-19
-30 -12 65 c-26 140 -26 140 -5 140 18 0 18 3 5 63 -23 109 -14 124 28 44z"/>
<path d="M1735 12290 c-42 -11 -1 -11 50 -1 34 7 35 9 10 9 -16 0 -43 -4 -60
-8z"/>
<path d="M1678 12273 c7 -3 16 -2 19 1 4 3 -2 6 -13 5 -11 0 -14 -3 -6 -6z"/>
<path d="M1638 12263 c7 -3 16 -2 19 1 4 3 -2 6 -13 5 -11 0 -14 -3 -6 -6z"/>
<path d="M1552 12243 c-24 -8 -41 -17 -39 -19 2 -2 28 5 58 15 30 11 47 20 39
19 -8 0 -34 -6 -58 -15z"/>
<path d="M1470 12210 c-8 -5 -10 -10 -5 -10 6 0 17 5 25 10 8 5 11 10 5 10 -5
0 -17 -5 -25 -10z"/>
<path d="M1351 12155 c-46 -24 -89 -49 -95 -55 -9 -9 179 85 193 97 19 15 -28
-5 -98 -42z"/>
<path d="M4341 10644 c0 -11 3 -14 6 -6 3 7 2 16 -1 19 -3 4 -6 -2 -5 -13z"/>
<path d="M1907 11233 c-4 -3 -7 -11 -7 -17 0 -6 5 -5 12 2 6 6 9 14 7 17 -3 3
-9 2 -12 -2z"/>
<path d="M1268 11350 c-25 -17 -52 -38 -60 -47 -7 -10 8 -2 33 17 26 19 55 40
65 47 11 6 16 12 13 12 -3 1 -26 -13 -51 -29z"/>
<path d="M1076 11223 c-6 -14 -5 -15 5 -6 7 7 10 15 7 18 -3 3 -9 -2 -12 -12z"/>
<path d="M1600 10785 c-7 -9 -11 -18 -8 -20 3 -3 11 1 18 10 7 9 11 18 8 20
-3 3 -11 -1 -18 -10z"/>
<path d="M1531 10729 c-13 -17 -21 -33 -18 -35 3 -3 15 9 27 26 29 41 20 49
-9 9z"/>
<path d="M1350 10570 c-6 -11 -8 -20 -6 -20 3 0 10 9 16 20 6 11 8 20 6 20 -3
0 -10 -9 -16 -20z"/>
<path d="M1315 10510 c-9 -16 -13 -30 -11 -30 3 0 12 14 21 30 9 17 13 30 11
30 -3 0 -12 -13 -21 -30z"/>
<path d="M1378 10518 c-22 -34 -42 -74 -31 -63 14 15 55 85 50 85 -3 0 -11
-10 -19 -22z"/>
<path d="M1246 10375 c-9 -26 -7 -32 5 -12 6 10 9 21 6 23 -2 3 -7 -2 -11 -11z"/>
<path d="M1286 10345 c-9 -26 -7 -32 5 -12 6 10 9 21 6 23 -2 3 -7 -2 -11 -11z"/>
<path d="M1266 10295 c-9 -26 -7 -32 5 -12 6 10 9 21 6 23 -2 3 -7 -2 -11 -11z"/>
<path d="M1633 10938 c-20 -26 -26 -41 -15 -34 12 7 36 46 29 46 -3 0 -9 -6
-14 -12z"/>
<path d="M1694 10738 l-29 -33 33 29 c30 28 37 36 29 36 -2 0 -16 -15 -33 -32z"/>
<path d="M838 11833 c28 -2 76 -2 105 0 28 2 5 3 -53 3 -58 0 -81 -1 -52 -3z"/>
<path d="M702 11160 c0 -14 2 -19 5 -12 2 6 2 18 0 25 -3 6 -5 1 -5 -13z"/>
<path d="M693 11055 c0 -27 2 -38 4 -22 2 15 2 37 0 50 -2 12 -4 0 -4 -28z"/>
<path d="M4345 10986 c10 -14 19 -26 22 -26 7 0 -17 39 -28 46 -6 3 -3 -5 6
-20z"/>
<path d="M4101 9364 c0 -11 3 -14 6 -6 3 7 2 16 -1 19 -3 4 -6 -2 -5 -13z"/>
<path d="M4173 9225 c0 -27 2 -38 4 -22 2 15 2 37 0 50 -2 12 -4 0 -4 -28z"/>
<path d="M4021 8744 c0 -11 3 -14 6 -6 3 7 2 16 -1 19 -3 4 -6 -2 -5 -13z"/>
</g>
</svg>
