<?xml version="1.0" standalone="no"?>
<!DOCTYPE svg PUBLIC "-//W3C//DTD SVG 20010904//EN"
 "http://www.w3.org/TR/2001/REC-SVG-20010904/DTD/svg10.dtd">
<svg version="1.0" xmlns="http://www.w3.org/2000/svg"
 width="640.000000pt" height="1280.000000pt" viewBox="0 0 640.000000 1280.000000"
 preserveAspectRatio="xMidYMid meet">
<metadata>
Created by potrace 1.15, written by Peter Selinger 2001-2017
</metadata>
<g transform="translate(0.000000,1280.000000) scale(0.100000,-0.100000)"
fill="#000000" stroke="none">
<path d="M5098 12770 c-51 -51 -80 -146 -80 -270 -1 -111 22 -193 79 -279 l35
-53 -18 -47 c-58 -154 -56 -153 -93 -43 -27 79 -61 134 -120 193 -25 25 -62
66 -82 90 l-37 44 -12 -30 c-39 -94 17 -255 110 -316 46 -30 67 -55 91 -106
l20 -43 -26 -62 c-15 -35 -29 -71 -32 -80 -3 -10 -9 -18 -14 -18 -8 0 -29 62
-29 86 0 18 -146 255 -177 288 l-28 30 -8 -55 c-21 -131 -14 -153 88 -278 86
-106 105 -139 105 -184 0 -36 -61 -212 -81 -232 -14 -14 -29 7 -40 56 -18 80
-82 248 -106 276 -22 27 -23 28 -38 9 -18 -24 -19 -82 -3 -179 12 -76 51 -151
110 -214 28 -29 30 -36 26 -91 -4 -55 -10 -69 -81 -175 -43 -63 -83 -117 -90
-120 -7 -2 -35 -1 -62 3 -28 5 -63 6 -78 3 -39 -8 -147 17 -147 33 0 7 16 28
35 46 46 41 86 127 119 254 14 55 26 104 26 107 0 39 -138 -95 -180 -175 -27
-49 -34 -77 -39 -142 l-6 -81 -31 -3 c-38 -4 -54 14 -89 98 -47 115 -60 110
-40 -14 8 -49 12 -93 9 -97 -3 -5 -85 -9 -183 -9 -171 0 -179 -1 -232 -27 -36
-17 -83 -56 -140 -115 -79 -81 -88 -88 -125 -88 -21 0 -79 -11 -129 -24 -49
-13 -119 -29 -154 -36 -118 -21 -316 -132 -371 -207 -60 -82 -220 -185 -370
-239 -84 -30 -165 -69 -255 -122 -58 -34 -125 -89 -125 -102 0 -4 19 -14 41
-23 47 -19 47 -15 14 -167 -15 -69 -15 -146 1 -171 3 -6 20 -1 38 11 42 25 61
25 79 0 20 -29 118 -101 128 -94 5 3 9 12 9 20 0 16 18 18 39 5 9 -6 12 -19 8
-40 -6 -26 -2 -34 26 -55 18 -13 49 -29 70 -34 26 -7 69 -40 138 -102 84 -79
101 -90 115 -80 10 9 13 22 9 40 -4 18 0 31 13 43 17 16 21 10 82 -115 75
-152 100 -184 181 -234 33 -19 66 -49 74 -65 15 -27 19 -29 76 -29 l61 0 -24
-28 c-13 -16 -38 -40 -57 -53 -56 -40 -80 -70 -87 -106 -8 -42 -38 -64 -113
-78 -46 -9 -57 -16 -59 -33 -3 -21 0 -22 67 -22 38 0 82 4 96 10 14 5 57 40
94 77 151 151 188 183 214 183 24 0 217 -111 274 -158 l28 -23 -66 6 c-67 6
-123 -8 -116 -29 2 -6 58 -29 125 -51 67 -23 134 -50 149 -61 40 -30 71 -80
87 -138 54 -200 69 -257 77 -305 10 -62 -1 -155 -31 -275 -21 -80 -19 -116 5
-116 8 0 24 18 35 40 11 22 22 40 25 40 17 0 30 -64 35 -185 6 -122 11 -148
35 -205 61 -143 74 -193 75 -272 0 -140 -36 -264 -105 -358 -62 -85 -102 -83
-211 8 -61 50 -61 50 -120 45 -55 -5 -64 -2 -145 40 -47 25 -121 60 -164 77
-43 17 -92 41 -109 52 -40 27 -227 218 -324 331 -83 96 -84 96 -103 10 -7 -29
-15 -53 -19 -53 -4 0 -10 30 -13 68 -5 61 -3 69 19 93 l24 25 -26 25 c-14 13
-34 40 -45 60 -20 40 -35 49 -79 49 -45 0 -59 10 -82 54 -31 60 -29 114 5 159
44 58 35 87 -44 138 -51 32 -51 33 -27 41 18 6 41 3 78 -11 58 -22 69 -19 110
24 l25 26 -22 39 c-25 43 -20 50 43 50 33 0 45 12 24 25 -17 10 -11 25 15 37
19 9 29 7 51 -7 24 -15 26 -21 20 -61 -5 -39 -3 -46 19 -60 31 -20 61 -84 74
-159 6 -33 23 -111 38 -173 26 -111 27 -114 72 -150 60 -49 77 -69 92 -114 7
-21 18 -38 25 -38 7 0 43 -17 81 -37 37 -20 109 -57 158 -82 90 -44 90 -44
225 -51 108 -5 145 -10 183 -28 l48 -21 -3 26 c-4 39 -55 69 -141 83 -125 20
-184 61 -208 143 -7 21 -6 96 2 222 12 187 7 284 -12 254 -5 -8 -9 -25 -9 -39
0 -14 -4 -32 -10 -40 -7 -12 -12 -12 -29 4 -12 11 -21 25 -21 31 0 7 -23 48
-52 91 -60 92 -88 172 -88 252 0 102 -20 102 -61 2 -16 -39 -22 -77 -23 -130
-1 -64 3 -84 30 -140 17 -36 52 -91 78 -123 61 -75 67 -92 76 -217 5 -58 18
-136 29 -173 l20 -68 -32 6 c-67 13 -156 65 -194 113 -20 26 -63 75 -95 109
-74 78 -93 122 -113 257 -17 112 -45 202 -91 287 -41 74 -55 83 -148 91 -44 4
-103 10 -131 13 -43 6 -55 3 -87 -18 -20 -14 -56 -34 -80 -45 -53 -23 -69 -43
-93 -107 -12 -35 -37 -69 -81 -112 -35 -35 -64 -68 -64 -73 0 -6 20 -32 44
-58 54 -58 66 -82 66 -124 l-1 -33 -20 28 c-20 27 -22 27 -40 11 -13 -11 -19
-31 -19 -58 0 -56 -19 -79 -87 -107 -32 -13 -69 -29 -83 -36 -25 -13 -80 -18
-80 -7 0 25 57 223 81 277 59 140 70 227 55 443 -10 142 -8 149 97 311 65 100
97 133 127 133 37 0 128 55 192 117 l71 68 -7 -80 c-11 -126 -34 -257 -60
-339 -13 -42 -20 -76 -15 -76 28 0 71 65 115 175 l49 120 -2 186 c-1 208 -7
231 -66 268 -19 12 -37 21 -40 21 -4 0 -11 -19 -18 -42 -11 -42 -34 -78 -50
-78 -8 0 -44 -23 -118 -78 -24 -17 -53 -32 -63 -32 -11 0 -33 -9 -48 -20 -26
-19 -32 -19 -93 -6 -114 23 -161 65 -229 200 -89 176 -95 206 -117 581 -9 139
-7 159 15 278 44 226 94 344 249 581 52 81 95 152 95 159 0 6 21 72 47 146 38
108 54 142 83 170 35 34 35 34 145 38 151 6 155 6 163 -1 3 -4 -3 -30 -14 -59
-15 -42 -19 -76 -18 -177 1 -135 12 -192 45 -234 23 -29 77 -61 87 -51 4 3
-10 37 -31 75 -56 103 -71 260 -36 392 15 59 28 66 97 56 48 -7 68 -6 99 7 44
19 40 23 -54 56 -61 21 -93 44 -93 66 0 7 12 36 26 64 l25 51 87 -4 c126 -5
157 -23 202 -115 19 -40 48 -85 63 -101 38 -40 161 -96 191 -88 23 6 23 8 13
48 -12 53 -106 201 -142 224 -19 12 -37 15 -69 11 -38 -6 -46 -3 -70 22 l-27
29 32 11 c17 6 47 11 66 11 28 0 137 -36 242 -81 13 -5 32 -7 42 -4 17 6 16
11 -15 74 -37 72 -93 130 -129 132 -12 1 -65 1 -117 0 -93 -3 -94 -2 -70 15
44 30 90 77 90 92 0 25 -146 5 -206 -29 -131 -74 -92 -8 125 215 77 79 98 94
201 144 105 52 121 57 180 56 73 -1 133 -24 156 -60 9 -12 22 -73 30 -136 26
-203 48 -227 64 -69 12 110 4 136 -67 218 -29 35 -42 58 -36 64 11 11 165 -34
180 -54 6 -6 26 -99 46 -205 19 -106 41 -200 47 -208 7 -7 23 -14 37 -14 18 0
28 9 40 37 20 50 12 113 -26 198 -29 63 -41 125 -23 125 4 0 37 -23 75 -50 51
-38 67 -56 67 -74 0 -52 123 -151 223 -180 28 -8 67 -29 85 -46 18 -16 35 -30
38 -30 2 0 4 23 4 51 0 105 -46 152 -210 215 -61 23 -116 51 -138 71 -36 32
-36 33 -18 48 15 12 49 15 152 15 109 0 134 3 145 16 11 14 9 20 -18 45 -47
41 -120 59 -237 59 -74 -1 -116 -6 -156 -20 -30 -11 -63 -19 -72 -20 -29 0
-30 20 -1 30 15 5 54 24 86 41 50 27 66 30 105 26 29 -4 59 -1 77 7 l30 13
-58 21 c-32 12 -66 22 -77 22 -11 0 -34 7 -53 16 -32 15 -38 15 -148 -16 -63
-18 -151 -47 -197 -66 -56 -23 -88 -32 -99 -26 -12 7 3 19 62 51 112 60 182
109 207 143 l22 31 -65 -5 c-36 -3 -85 -14 -110 -25 -68 -31 -501 -327 -556
-381 -26 -26 -62 -63 -79 -82 -18 -19 -56 -57 -86 -85 -30 -27 -67 -73 -82
-102 -27 -50 -33 -54 -170 -122 -138 -69 -144 -72 -206 -148 -34 -43 -75 -105
-91 -138 -15 -33 -41 -77 -57 -98 -61 -76 -91 -134 -117 -222 -14 -49 -34
-104 -44 -121 -10 -17 -22 -44 -25 -60 -4 -16 -38 -72 -77 -124 -91 -124 -161
-266 -203 -415 -51 -183 -60 -244 -53 -369 6 -121 -1 -146 -37 -146 -34 0 -82
55 -123 139 -19 41 -46 91 -59 112 -47 76 -64 151 -80 362 -23 297 -7 450 61
594 56 119 146 193 236 193 48 0 100 22 144 60 25 22 66 51 90 66 46 26 56 51
35 84 -8 13 -14 13 -44 -4 -57 -30 -58 -14 -5 47 61 69 73 76 164 97 63 14 70
18 70 40 0 24 -2 25 -64 22 -42 -2 -104 -17 -180 -43 -64 -21 -117 -39 -118
-39 -2 0 -3 13 -3 28 0 38 17 52 63 52 26 0 49 8 74 27 29 22 49 28 115 33 56
4 83 10 91 21 7 9 39 29 72 46 73 37 321 205 352 239 24 26 30 58 14 69 -18
11 -156 -25 -221 -57 -47 -23 -95 -60 -171 -135 -67 -65 -114 -103 -127 -103
-19 0 -15 10 39 96 33 53 80 123 105 155 24 31 44 61 44 64 0 31 -254 -130
-273 -172 -6 -13 -14 -23 -19 -23 -5 0 -31 -21 -58 -46 -54 -51 -58 -49 -35
16 20 56 19 60 -8 60 -26 0 -62 -36 -154 -150 -59 -73 -103 -144 -103 -165 0
-6 -9 -28 -19 -48 -10 -21 -22 -70 -26 -110 -7 -72 -30 -147 -45 -147 -25 0
-27 110 -4 150 17 27 14 60 -5 60 -53 0 -127 -250 -132 -444 -14 -561 3 -844
60 -1001 48 -133 47 -125 11 -125 -25 0 -47 16 -121 87 -98 95 -123 131 -173
250 -49 116 -76 228 -80 334 -2 52 -9 130 -15 174 -7 47 -9 118 -5 173 3 51 7
143 9 205 1 92 8 137 39 254 20 79 50 174 67 213 25 58 29 81 27 137 l-3 68
62 30 c34 17 71 39 83 50 24 21 100 120 100 130 0 3 -20 5 -44 5 -25 0 -47 3
-50 8 -2 4 8 25 23 47 28 43 173 145 205 145 11 0 49 -16 85 -37 55 -30 74
-36 124 -36 57 1 146 34 154 59 2 5 -38 25 -89 43 -151 55 -178 68 -178 89 0
35 38 68 265 238 213 158 246 190 216 208 -15 10 -152 -44 -206 -80 -28 -18
-77 -63 -109 -99 -53 -61 -116 -107 -116 -87 0 5 23 40 50 77 58 79 64 100 23
84 -39 -15 -81 -48 -190 -152 -101 -97 -133 -147 -152 -237 -9 -42 -24 -71
-67 -124 -30 -38 -74 -96 -96 -130 -23 -33 -64 -89 -91 -124 l-50 -63 -2 -87
c-2 -66 -10 -107 -33 -172 -35 -101 -77 -282 -91 -400 -14 -107 -14 -363 -1
-500 15 -161 30 -301 36 -342 6 -37 5 -38 -40 -58 -25 -10 -46 -24 -46 -30 0
-37 -129 20 -196 87 -79 80 -188 336 -229 538 -22 109 -22 193 0 369 l19 149
53 39 52 40 65 -36 c76 -43 112 -45 182 -12 48 22 53 23 68 8 16 -16 18 -16
32 2 21 29 18 42 -15 66 -67 47 -159 81 -235 87 -41 3 -80 9 -87 13 -15 10
132 174 171 190 15 6 44 31 64 56 28 33 59 55 113 80 41 18 93 48 115 66 40
31 138 155 151 191 11 30 -47 22 -85 -12 -28 -24 -30 -31 -19 -44 11 -14 6
-24 -36 -73 -50 -58 -88 -84 -123 -84 -31 0 -24 26 17 57 69 53 108 91 100 99
-23 23 -167 -91 -167 -133 0 -13 -4 -22 -8 -19 -5 3 -25 -6 -45 -19 -20 -14
-38 -25 -41 -25 -3 0 33 78 81 174 67 136 84 180 79 200 -3 14 -10 26 -14 26
-4 0 -56 -45 -115 -101 -81 -76 -109 -110 -118 -140 -7 -21 -10 -42 -7 -45 3
-3 29 19 57 48 l51 53 0 -34 c0 -60 -111 -241 -149 -241 -20 0 -12 62 15 107
14 25 23 47 20 50 -16 16 -41 -34 -82 -166 -25 -80 -52 -164 -60 -186 -14 -40
-68 -115 -83 -115 -4 0 -5 24 0 53 4 28 12 97 18 152 6 55 22 142 37 193 21
72 24 95 14 106 -30 37 -63 -14 -120 -184 -36 -107 -43 -140 -47 -230 -6 -126
7 -186 43 -202 13 -6 24 -16 24 -21 0 -6 -12 -71 -26 -146 -34 -176 -30 -351
10 -501 50 -187 155 -411 229 -488 57 -59 94 -76 244 -113 70 -17 136 -38 145
-46 10 -9 27 -33 38 -55 54 -103 178 -211 329 -288 174 -87 211 -128 211 -232
0 -110 35 -199 144 -367 35 -53 75 -115 89 -138 33 -52 64 -73 108 -75 92 -2
98 -15 42 -86 -39 -49 -52 -76 -122 -239 -32 -76 -38 -101 -33 -138 3 -27 -2
-69 -12 -105 -16 -55 -16 -65 0 -147 18 -99 15 -204 -11 -293 -9 -30 -26 -91
-38 -135 -13 -48 -42 -114 -70 -160 -72 -120 -91 -193 -84 -323 3 -70 12 -129
26 -171 11 -35 21 -85 21 -111 0 -31 6 -55 18 -68 25 -30 92 -62 128 -62 33 0
88 35 138 89 29 30 59 39 84 23 9 -6 15 -55 21 -158 7 -127 5 -167 -11 -269
-13 -79 -17 -139 -13 -178 11 -91 -21 -196 -110 -369 -19 -37 -49 -102 -65
-144 -17 -43 -42 -96 -54 -118 -18 -31 -25 -62 -29 -131 -4 -63 -18 -133 -46
-230 -43 -146 -85 -331 -101 -442 -5 -38 -16 -74 -27 -85 -13 -15 -20 -46 -26
-122 -5 -55 -8 -114 -7 -131 3 -54 2 -108 -5 -285 -8 -219 -7 -263 6 -325 18
-78 82 -209 115 -232 68 -48 141 -76 233 -90 51 -7 107 -21 125 -30 17 -9 66
-51 110 -95 l79 -79 -8 -172 c-8 -178 -8 -242 -5 -474 4 -200 -34 -466 -101
-723 -24 -89 -46 -144 -99 -243 -83 -153 -104 -181 -195 -256 -104 -86 -116
-92 -241 -117 -136 -28 -178 -45 -259 -107 -96 -72 -111 -93 -145 -199 -34
-109 -48 -124 -138 -159 -42 -16 -93 -24 -195 -30 -115 -7 -148 -12 -193 -33
-63 -29 -151 -108 -193 -175 -38 -59 -81 -187 -81 -241 0 -52 9 -70 78 -148
84 -97 111 -111 232 -124 123 -13 153 -6 246 58 97 66 219 119 250 107 23 -9
17 -28 -32 -92 -32 -43 -66 -73 -112 -101 -79 -47 -132 -93 -132 -115 0 -8 11
-21 25 -27 22 -10 40 -5 133 34 61 26 130 48 161 52 69 7 166 53 219 103 36
34 42 46 42 80 0 48 -26 86 -80 113 -56 29 -59 48 -12 91 22 19 58 41 80 47
22 7 78 41 125 76 48 35 144 94 214 131 70 36 142 74 158 85 17 10 99 35 184
55 174 41 203 40 290 -6 30 -16 66 -29 80 -29 13 0 56 22 95 49 156 107 442
248 575 282 91 23 174 24 314 3 102 -16 116 -16 230 0 67 10 143 26 169 38 32
14 52 17 63 10 15 -8 12 -13 -23 -38 -46 -33 -72 -79 -72 -127 1 -54 50 -97
111 -97 62 0 203 66 272 127 108 94 234 142 378 143 186 1 299 -109 299 -291
0 -64 10 -73 62 -58 44 12 45 12 68 -11 l21 -21 -37 -70 c-43 -82 -73 -109
-198 -178 -68 -37 -103 -51 -132 -51 -54 0 -149 25 -206 55 -61 32 -111 32
-193 -1 -65 -26 -66 -27 -63 -62 3 -32 9 -39 53 -61 48 -25 58 -26 220 -26 93
-1 178 -2 188 -3 10 -1 42 -25 71 -52 40 -38 77 -60 151 -90 54 -22 111 -40
127 -40 42 0 114 37 126 65 13 29 11 29 -58 14 -92 -20 -101 -15 -298 147
l-26 22 72 36 c101 49 120 65 171 135 25 34 48 61 53 61 14 0 48 -63 48 -89 0
-17 -18 -41 -57 -77 -55 -51 -65 -73 -26 -60 25 9 79 60 109 103 28 42 31 91
8 154 -9 24 -19 101 -24 170 -9 145 -25 193 -89 261 -22 24 -52 68 -68 98 -24
48 -36 59 -89 85 -34 17 -84 51 -112 76 -27 25 -84 62 -125 83 -68 35 -81 38
-124 32 -120 -17 -183 -19 -198 -6 -23 19 -18 65 16 143 17 39 45 125 60 192
16 66 41 161 54 211 17 60 25 116 25 170 0 43 7 115 14 159 8 44 17 123 21
175 3 52 10 142 16 200 5 58 11 215 14 350 2 135 9 271 15 304 9 44 8 121 -1
315 -7 141 -14 357 -15 481 -1 124 -6 286 -13 360 -6 74 -11 182 -11 240 0 58
-5 134 -11 170 -5 36 -13 148 -18 250 -8 208 -11 219 -88 305 -101 112 -132
215 -136 446 -2 186 6 225 89 411 49 109 108 295 130 406 9 50 14 146 14 300
0 307 23 397 123 489 108 100 169 96 235 -15 25 -43 27 -56 27 -147 0 -93 2
-100 20 -100 25 0 72 82 81 141 3 23 2 75 -4 115 -5 41 -9 75 -8 76 2 2 17 6
35 9 28 6 36 2 74 -38 23 -25 81 -73 129 -107 48 -34 94 -71 101 -82 14 -20
15 -20 25 9 7 21 6 37 -4 60 -16 39 -95 125 -139 152 -48 30 -52 50 -15 82 50
46 63 41 195 -79 156 -141 162 -148 184 -209 58 -158 76 -130 35 53 -25 112
-94 190 -230 260 -41 21 -74 41 -74 45 0 3 13 9 30 13 33 7 122 -15 182 -46
91 -47 84 0 -12 71 -81 60 -134 84 -168 75 -27 -7 -70 -38 -158 -115 -66 -58
-164 -95 -226 -86 -24 4 -52 7 -63 7 -23 1 -156 -17 -199 -27 l-29 -7 6 60 c4
33 15 98 26 144 32 139 50 231 56 289 9 79 38 137 101 201 53 54 56 60 81 160
23 93 26 129 30 350 5 244 5 246 -27 405 -44 219 -67 308 -101 386 -23 53 -68
181 -69 196 0 1 37 21 83 43 75 37 87 40 139 34 31 -3 59 -2 62 3 6 10 -48 64
-81 81 -58 29 -137 6 -207 -62 l-47 -45 -43 67 c-28 42 -91 112 -175 191 -73
69 -139 136 -146 150 -7 14 -50 63 -94 109 -45 46 -81 89 -81 95 0 7 36 59 81
117 44 57 83 110 86 117 7 17 48 15 66 -2 8 -8 20 -52 26 -98 23 -160 44 -199
131 -243 26 -13 55 -32 64 -41 13 -13 19 -14 31 -4 22 18 19 33 -25 158 -22
62 -40 117 -40 123 0 12 36 12 60 -1 12 -6 27 -37 39 -78 23 -76 50 -107 145
-167 53 -34 61 -36 83 -24 14 7 31 26 39 41 19 36 7 65 -51 127 l-45 48 26 11
c35 17 80 15 117 -5 18 -9 68 -20 112 -23 44 -4 88 -11 97 -15 13 -5 19 0 24
21 7 26 1 34 -53 82 l-61 54 49 75 c52 80 65 116 76 202 7 62 4 63 -61 11 -82
-65 -126 -153 -126 -251 l0 -47 -100 -27 c-93 -26 -103 -27 -157 -15 -32 7
-101 29 -153 50 -52 20 -125 47 -163 59 -67 23 -89 42 -79 71 11 33 103 158
138 190 52 46 128 78 219 94 42 7 84 20 92 29 14 14 10 17 -43 33 -54 16 -64
16 -114 2 -30 -8 -63 -18 -72 -23 -22 -9 -24 12 -4 59 10 25 33 44 93 79 44
25 93 49 109 52 16 4 69 25 117 48 79 36 88 43 85 65 -4 36 -34 42 -109 22
-86 -22 -154 -55 -201 -98 -21 -19 -42 -32 -45 -28 -4 4 4 41 18 83 23 72 28
78 69 100 25 13 56 34 70 47 14 12 43 34 65 47 51 30 219 166 263 212 26 26
33 42 30 65 l-3 30 -105 -56 c-86 -47 -123 -75 -207 -158 -58 -56 -101 -91
-97 -80 19 62 85 166 143 226 60 61 74 84 160 266 111 235 142 322 132 360
l-7 27 -42 -48 c-23 -26 -72 -101 -109 -167 -38 -66 -80 -134 -95 -151 l-28
-32 -21 25 c-20 23 -21 32 -15 115 4 50 14 138 22 196 11 74 13 123 7 165 l-9
59 -36 -35z m141 -512 c-7 -13 -14 -18 -16 -11 -3 7 1 22 8 35 7 13 14 18 16
11 3 -7 -1 -22 -8 -35z m-3540 -5 c-24 -42 -80 -105 -87 -99 -11 12 82 136
102 136 4 0 -2 -17 -15 -37z m1961 -72 c0 -11 -31 -24 -39 -16 -3 3 1 10 9 15
19 12 30 12 30 1z m1253 -19 c8 -9 20 -29 26 -45 9 -22 8 -27 -5 -27 -20 0
-64 49 -64 71 0 24 22 24 43 1z m-3132 -58 c30 -9 76 -27 103 -41 57 -29 49
-43 -25 -43 -38 0 -58 8 -108 41 -84 56 -73 73 30 43z m2158 -21 c-26 -33 -44
-42 -84 -43 -64 0 -74 15 -24 33 67 24 72 25 98 26 21 1 22 -1 10 -16z m231
-133 c8 -5 12 -10 9 -10 -3 0 -31 -5 -63 -11 -32 -6 -77 -7 -100 -3 l-41 7 30
13 c35 15 143 18 165 4z m-2758 -202 c-35 -35 -44 -40 -52 -28 -13 21 36 70
69 70 25 0 24 -1 -17 -42z m1103 3 c7 -12 -45 -55 -120 -100 -44 -27 -59 -31
-68 -22 -9 10 -2 21 33 51 45 40 115 80 137 80 6 0 14 -4 18 -9z m-382 -122
c-30 -56 -103 -126 -140 -135 -47 -12 -44 11 11 84 30 40 57 80 60 90 4 10 25
27 49 39 l42 20 3 -23 c2 -13 -9 -47 -25 -75z m2124 59 c15 -12 8 -28 -14 -28
-18 0 -73 38 -73 50 0 10 69 -8 87 -22z m-307 -80 c0 -10 -4 -18 -9 -18 -12 0
-21 26 -21 58 l1 27 14 -25 c8 -14 14 -33 15 -42z m-3318 -34 c-4 -80 -19
-154 -32 -154 -24 0 -26 119 -3 189 24 75 39 60 35 -35z m203 30 c-16 -13 -31
-21 -34 -19 -8 9 42 55 52 48 6 -3 -2 -16 -18 -29z m1020 -132 c-10 -34 -34
-89 -55 -120 -38 -60 -92 -111 -98 -94 -6 18 76 210 120 278 l43 69 3 -35 c2
-19 -4 -63 -13 -98z m2815 75 c0 -26 -15 -12 -25 23 -7 22 -6 23 9 11 9 -7 16
-23 16 -34z m-2750 -22 c-7 -9 -15 -13 -17 -11 -7 7 7 26 19 26 6 0 6 -6 -2
-15z m1125 -4 c8 -13 -33 -34 -52 -27 -12 5 -13 9 -3 21 14 17 46 20 55 6z
m-46 -110 c32 -17 33 -19 15 -28 -10 -6 -35 -13 -54 -17 -39 -7 -150 3 -150
14 0 7 114 47 140 48 8 1 30 -7 49 -17z m216 10 c7 -13 -67 -23 -130 -19 -47
3 -48 4 -25 15 30 14 146 17 155 4z m-573 -63 c-32 -52 -152 -131 -152 -100 0
24 47 75 92 101 71 41 86 40 60 -1z m-1671 -17 l23 -18 -32 -17 c-40 -21 -50
-20 -92 5 -32 20 -33 22 -15 35 27 20 89 17 116 -5z m1008 -63 c-13 -25 -42
-38 -83 -38 -63 0 -38 47 40 74 35 12 40 11 45 -3 4 -9 2 -24 -2 -33z m730 -7
c10 -7 11 -13 2 -30 -14 -25 -13 -24 -46 -9 -29 13 -32 23 -7 37 21 13 33 13
51 2z m534 -83 c42 -59 50 -108 17 -108 -27 0 -100 77 -100 105 0 22 23 55 38
55 4 0 24 -24 45 -52z m1098 5 c-6 -22 -20 -48 -31 -58 -19 -17 -20 -17 -20 0
0 21 49 109 57 102 2 -3 0 -23 -6 -44z m-1698 -5 c12 -6 37 -23 56 -37 34 -26
34 -26 10 -32 -33 -10 -161 -10 -175 -1 -19 12 3 52 38 67 41 18 44 18 71 3z
m-703 -48 c0 -22 -28 -40 -64 -40 -14 0 -59 -13 -101 -30 -42 -16 -78 -30 -80
-30 -3 0 -5 9 -5 19 0 19 5 21 185 85 55 20 65 19 65 -4z m-388 -132 c-4 -90
-9 -109 -22 -88 -21 32 -5 160 19 160 4 0 5 -33 3 -72z m3838 -15 c-1 -25 -26
-56 -39 -48 -7 4 -3 17 11 36 25 34 28 35 28 12z m-1270 -90 c15 -28 46 -63
75 -85 49 -37 105 -117 105 -150 0 -19 -15 -24 -25 -9 -8 14 -162 120 -188
130 -24 9 -57 -2 -57 -19 0 -6 15 -16 33 -24 37 -15 147 -127 147 -150 0 -24
-30 -47 -105 -81 -39 -18 -76 -40 -84 -49 -7 -9 -18 -16 -22 -16 -5 0 -38 27
-73 59 -35 32 -84 68 -108 79 -36 16 -48 27 -57 55 -9 27 -20 39 -45 47 -19 6
-38 10 -42 9 -32 -5 -67 5 -93 27 -30 25 -30 26 -16 62 18 45 89 113 148 141
33 16 64 21 128 22 46 1 111 4 144 8 83 9 105 0 135 -56z m385 15 c9 -9 -67
-136 -110 -184 l-35 -39 -30 35 c-16 19 -34 51 -40 70 -10 35 -14 143 -5 151
6 7 212 -24 220 -33z m-299 -3 c18 -45 18 -57 -3 -53 -17 3 -63 62 -63 79 0 5
11 9 26 9 19 0 28 -8 40 -35z m547 -172 c32 -47 54 -98 59 -138 3 -26 0 -30
-22 -30 -35 0 -80 89 -80 157 0 26 4 48 9 48 4 0 20 -17 34 -37z m589 16 c21
-11 21 -12 3 -25 -10 -8 -27 -14 -37 -14 -22 0 -68 28 -68 41 0 13 77 11 102
-2z m-1922 -88 c0 -15 -37 -23 -62 -15 l-23 8 25 7 c37 10 60 10 60 0z m1637
-27 c17 -13 38 -31 47 -40 18 -17 22 -64 6 -64 -26 0 -111 53 -134 83 -31 40
-31 44 -8 49 27 6 54 -3 89 -28z m-1763 8 c2 -4 -52 -40 -122 -79 -147 -83
-256 -152 -250 -158 3 -3 31 0 62 6 32 6 60 8 62 6 10 -10 -36 -49 -90 -77
-69 -35 -76 -31 -76 42 0 38 6 54 29 80 15 18 35 47 44 63 24 47 50 65 108 74
30 5 77 18 104 30 51 20 120 27 129 13z m261 -48 c18 -8 43 -27 56 -41 l24
-26 -35 8 c-19 5 -58 9 -86 9 -61 1 -89 19 -73 47 12 24 67 25 114 3z m-205
-14 c0 -5 -2 -10 -4 -10 -3 0 -8 5 -11 10 -3 6 -1 10 4 10 6 0 11 -4 11 -10z
m1048 -40 c27 -25 42 -48 42 -63 0 -24 -1 -25 -125 -29 -132 -4 -166 -16 -151
-53 5 -15 16 -16 75 -10 68 7 70 6 122 -30 50 -34 58 -37 106 -32 90 9 117 -4
233 -122 84 -84 115 -123 148 -187 l42 -82 -29 -62 -28 -63 -33 48 c-36 53
-89 170 -90 198 0 9 -4 17 -10 17 -19 0 -31 -42 -36 -132 -9 -132 3 -169 77
-239 88 -83 80 -138 -20 -124 -90 12 -78 -13 54 -113 140 -106 162 -156 165
-387 3 -193 -7 -440 -18 -468 -7 -17 -12 -85 -12 -168 0 -137 -29 -352 -75
-559 -8 -36 -15 -76 -15 -90 -1 -42 -39 -113 -88 -162 -63 -65 -85 -64 -151 8
-28 30 -51 60 -51 66 0 18 -115 131 -172 168 -32 21 -121 64 -199 96 -148 61
-166 76 -153 128 3 12 -1 42 -10 66 -8 25 -22 103 -32 173 -17 127 -18 129
-78 231 -51 85 -81 121 -183 219 -68 64 -127 117 -133 117 -17 0 -33 46 -26
73 8 35 28 39 116 26 l76 -11 135 46 c107 38 141 54 172 84 65 63 86 107 97
213 18 169 13 245 -20 349 -31 99 -37 170 -20 230 6 19 11 87 12 150 1 97 -2
124 -21 175 -57 154 -55 142 -37 170 25 38 249 175 286 175 8 0 34 -18 58 -40z
m-1008 -14 c0 -17 -103 -72 -158 -84 -39 -9 -42 -9 -42 12 0 39 25 60 87 72
82 17 113 17 113 0z m154 -57 c11 -57 6 -96 -19 -150 -13 -30 -28 -83 -32
-119 -7 -57 -11 -65 -31 -68 -47 -7 -55 13 -50 128 6 126 24 177 76 214 20 14
40 26 43 26 4 0 9 -14 13 -31z m118 -6 c24 -22 23 -38 -6 -51 -20 -9 -25 -7
-34 12 -6 14 -6 28 0 39 11 21 17 21 40 0z m174 -98 l6 -40 -41 42 c-31 32
-41 50 -41 75 l0 33 35 -36 c25 -24 37 -47 41 -74z m-476 -79 c0 -63 -4 -117
-9 -120 -21 -13 -41 44 -41 119 0 80 11 115 35 115 12 0 15 -21 15 -114z
m1150 109 c0 -2 -11 -12 -25 -21 -22 -14 -30 -15 -50 -4 -38 20 -30 30 25 30
28 0 50 -2 50 -5z m-831 -48 c13 -16 -4 -37 -31 -37 -21 0 -24 20 -6 38 15 15
23 15 37 -1z m-639 -32 c0 -8 -7 -15 -16 -15 -14 0 -14 3 -4 15 7 8 14 15 16
15 2 0 4 -7 4 -15z m-360 -4 c0 -10 -30 -24 -37 -17 -3 3 -2 9 2 15 8 13 35
15 35 2z m530 -10 c0 -16 -38 -56 -46 -49 -11 12 13 58 31 58 8 0 15 -4 15 -9z
m-247 -8 c-7 -2 -19 -2 -25 0 -7 3 -2 5 12 5 14 0 19 -2 13 -5z m-333 -34 c0
-13 8 -23 20 -26 16 -4 18 -8 9 -19 -7 -8 -21 -11 -35 -8 -13 3 -45 -1 -71
-10 -32 -10 -58 -13 -77 -8 l-30 8 35 26 c31 24 107 55 137 57 6 1 12 -8 12
-20z m480 -15 c0 -8 -4 -14 -10 -14 -5 0 -10 9 -10 21 0 11 5 17 10 14 6 -3
10 -13 10 -21z m510 -81 c19 -62 28 -202 14 -216 -8 -8 -39 8 -65 34 -16 16
-19 34 -19 123 0 57 3 118 7 136 l6 33 18 -22 c11 -13 28 -52 39 -88z m-750
89 c0 -4 -5 -13 -12 -20 -9 -9 -6 -12 15 -12 32 0 33 -8 6 -61 -11 -23 -19
-42 -17 -43 2 -1 15 -7 31 -14 33 -14 34 -32 3 -61 -14 -13 -26 -35 -28 -49
-2 -18 -17 -36 -46 -56 -38 -27 -44 -29 -58 -14 -14 14 -13 20 10 67 15 28 33
51 41 51 15 0 40 48 30 58 -7 8 -45 -29 -45 -45 0 -7 -5 -13 -11 -13 -7 0 -8
16 -4 48 l7 47 -20 -20 c-11 -11 -50 -74 -87 -140 -73 -132 -96 -161 -119
-152 -12 5 -14 16 -9 52 7 53 0 57 -27 13 -13 -22 -20 -51 -20 -85 0 -64 -33
-146 -56 -141 -33 6 -40 34 -21 87 9 27 17 73 17 103 0 47 6 64 39 115 62 96
121 153 160 153 24 0 40 9 66 38 19 20 35 40 35 44 0 4 17 19 37 33 36 24 83
34 83 17z m831 -79 c-9 -16 -10 -14 -11 12 0 21 3 26 11 18 8 -8 8 -16 0 -30z
m-454 -25 c44 -23 68 -44 83 -70 12 -21 32 -51 46 -67 47 -56 55 -80 38 -119
-15 -38 -18 -72 -6 -72 18 0 54 34 78 75 14 25 30 45 35 45 20 0 49 -42 64
-95 12 -40 21 -55 34 -55 25 0 38 18 46 63 6 31 11 38 29 35 29 -4 56 -62 56
-120 l0 -46 -52 -7 c-110 -14 -185 -68 -268 -190 -27 -38 -75 -97 -109 -129
l-60 -60 -74 18 c-82 19 -104 15 -113 -20 -8 -32 10 -52 53 -60 28 -5 38 -14
54 -50 12 -24 29 -46 39 -49 10 -3 38 7 69 26 50 32 51 33 52 83 0 48 3 53 41
81 39 28 75 84 97 146 9 26 14 29 56 29 46 0 46 0 31 -22 -28 -40 -25 -41 95
-8 28 8 40 19 53 49 17 36 17 41 2 70 -20 37 -14 51 19 51 19 0 28 -9 40 -37
20 -48 17 -60 -44 -158 -97 -157 -257 -314 -393 -385 -90 -47 -154 -53 -241
-20 -61 23 -85 45 -201 195 -91 117 -116 171 -116 254 0 45 -7 61 -65 140 -27
36 -33 97 -15 132 10 18 117 79 140 79 23 0 9 -49 -20 -70 -53 -38 -31 -67 28
-36 39 20 57 44 81 109 31 84 44 107 100 173 49 57 126 123 146 124 6 0 38
-14 72 -32z m596 -8 c8 -31 -12 -35 -23 -5 -6 14 -10 31 -10 37 0 17 27 -10
33 -32z m-1393 5 c17 -20 10 -26 -39 -32 -46 -6 -53 6 -18 30 28 20 41 21 57
2z m79 -11 c-6 -8 -21 -14 -33 -14 -21 1 -21 1 3 20 25 22 49 17 30 -6z m952
-46 c-10 -27 -41 -37 -41 -14 0 14 25 35 42 36 4 0 4 -10 -1 -22z m-1276 2
c-3 -5 -13 -10 -21 -10 -8 0 -14 5 -14 10 0 6 9 10 21 10 11 0 17 -4 14 -10z
m1815 -10 c7 -13 7 -32 -2 -64 -9 -35 -9 -64 -1 -123 11 -78 8 -133 -8 -133
-5 0 -16 11 -25 25 -15 23 -15 37 -5 126 6 55 11 120 11 144 0 48 12 58 30 25z
m-1590 -30 c0 -12 -7 -35 -16 -53 -31 -60 -117 -178 -144 -197 -28 -20 -28
-20 -51 -1 l-24 20 33 65 c22 43 56 86 98 126 67 62 104 76 104 40z m1368
-102 c-13 -23 -13 -23 -16 9 -2 18 3 42 10 55 13 23 13 23 16 -9 2 -18 -3 -42
-10 -55z m1222 -225 c36 -86 94 -354 110 -508 17 -166 -11 -505 -51 -609 l-23
-59 -19 24 c-13 16 -17 32 -13 54 14 75 18 264 7 330 -7 39 -16 102 -21 140
-5 39 -18 98 -29 130 -19 57 -76 283 -107 429 l-14 69 37 90 37 89 27 -54 c16
-29 42 -85 59 -125z m-268 123 c17 -32 28 -98 15 -93 -20 6 -48 53 -54 90 -5
32 -3 36 11 31 9 -3 22 -16 28 -28z m-2572 0 c0 -3 -4 -8 -10 -11 -5 -3 -10
-1 -10 4 0 6 5 11 10 11 6 0 10 -2 10 -4z m1726 -102 c-3 -9 -6 -18 -6 -20 0
-2 -4 -4 -9 -4 -5 0 -7 9 -4 20 3 11 10 20 15 20 6 0 7 -7 4 -16z m-1287 -28
c10 -18 10 -29 2 -45 -7 -11 -14 -21 -17 -21 -10 0 -22 49 -17 69 7 27 17 27
32 -3z m1321 -284 c-19 -108 -58 -218 -90 -252 -39 -42 -56 -35 -52 21 2 32
-2 47 -14 56 -17 12 -16 14 3 35 56 63 88 124 94 183 4 33 20 87 35 120 l29
60 3 -80 c2 -44 -2 -109 -8 -143z m-245 152 c0 -20 -26 -30 -53 -19 -15 6 -14
9 7 26 28 23 46 20 46 -7z m324 -168 c0 -28 -4 -60 -8 -71 -7 -16 -11 -9 -20
33 -13 61 -14 83 -4 108 12 31 33 -15 32 -70z m-199 67 c0 -14 -19 -38 -25
-32 -8 8 5 39 16 39 5 0 9 -3 9 -7z m-216 -300 c-36 -26 -49 -14 -18 18 24 26
30 28 33 13 2 -10 -5 -24 -15 -31z m91 7 c-20 -22 -31 -20 -22 5 4 8 14 15 23
15 16 0 16 -2 -1 -20z m35 -63 c0 -25 -25 -46 -62 -52 -47 -9 -49 5 -5 39 35
28 67 34 67 13z m-612 -358 c-2 -6 -8 -10 -13 -10 -5 0 -11 4 -13 10 -2 6 4
11 13 11 9 0 15 -5 13 -11z m-524 -561 c-9 -30 -8 -30 -34 -20 l-23 9 24 16
c32 23 42 21 33 -5z m-42 -89 c37 -28 73 -60 79 -70 9 -19 9 -19 -38 0 -101
40 -163 70 -163 80 0 13 29 41 42 41 6 0 42 -23 80 -51z m-144 -106 c50 -43
18 -80 -76 -91 -52 -6 -52 -1 -2 63 39 49 49 53 78 28z m3172 -83 c-20 -13
-33 -13 -25 0 3 6 14 10 23 10 15 0 15 -2 2 -10z m-1433 -54 c56 -24 118 -56
139 -70 68 -46 194 -167 213 -204 23 -46 67 -222 81 -325 13 -99 13 -232 0
-277 -6 -19 -15 -74 -20 -121 -12 -108 -35 -173 -109 -312 -171 -323 -184
-570 -51 -982 36 -112 52 -192 84 -415 29 -202 51 -405 65 -605 6 -77 16 -162
23 -190 9 -32 11 -75 7 -120 -4 -38 -7 -218 -8 -400 -1 -181 -5 -368 -11 -415
-5 -47 -16 -224 -25 -395 -9 -170 -20 -340 -23 -378 l-7 -67 -32 22 c-19 14
-45 48 -62 85 -57 117 -73 136 -172 195 -153 90 -154 90 -358 82 -98 -4 -194
-4 -214 0 -46 9 -125 68 -174 130 -21 27 -62 78 -91 113 -30 35 -60 80 -68 99
-8 19 -35 60 -59 90 -79 97 -99 151 -86 233 6 37 4 69 -4 102 -7 26 -16 76
-19 111 -4 35 -11 93 -17 129 -9 54 -8 73 5 104 l16 37 109 -4 c110 -3 110 -3
145 -37 55 -53 56 -88 6 -168 -13 -20 -10 -26 34 -77 33 -39 55 -56 71 -56 47
0 136 42 182 85 66 63 128 76 285 60 92 -10 125 3 198 81 115 124 111 112 126
374 10 175 -33 555 -80 700 -13 42 -34 139 -46 215 -11 77 -27 167 -35 200
-33 137 -95 487 -104 586 -9 112 -27 162 -76 222 -39 47 -144 237 -151 274 -9
50 2 70 44 77 20 3 54 19 74 36 45 37 135 170 180 265 30 64 33 78 33 165 0
90 -3 101 -47 210 -30 75 -50 143 -57 195 -6 44 -18 103 -26 130 -22 72 -31
220 -15 240 7 8 15 15 19 15 3 0 52 -20 108 -44z m-1721 2 c24 -11 26 -16 21
-56 -5 -43 -32 -92 -54 -99 -17 -6 -28 134 -13 152 15 18 13 18 46 3z m100
-230 c42 -63 49 -80 49 -123 0 -64 -65 -204 -124 -268 -23 -24 -41 -47 -41
-51 0 -3 -12 -24 -26 -46 -29 -44 -84 -83 -219 -155 -99 -53 -161 -63 -207
-33 -40 26 -80 172 -76 279 l3 84 70 3 c68 3 71 4 82 33 8 21 24 35 55 48 24
10 74 31 112 47 48 20 78 41 100 68 24 30 167 185 172 186 1 0 23 -33 50 -72z
m2864 51 c0 -6 -4 -7 -10 -4 -5 3 -10 11 -10 16 0 6 5 7 10 4 6 -3 10 -11 10
-16z m-234 -33 c3 -14 4 -33 2 -43 -3 -13 -10 -7 -26 24 -28 54 -29 67 -2 53
11 -6 22 -21 26 -34z m-482 -178 c7 -34 20 -381 18 -478 -1 -47 -8 -107 -15
-135 -8 -27 -26 -95 -41 -150 -15 -55 -43 -129 -63 -165 -66 -120 -117 -290
-133 -445 -20 -195 27 -408 121 -545 91 -133 92 -137 94 -365 2 -141 7 -218
18 -260 21 -82 44 -827 27 -899 -6 -26 -8 -56 -6 -65 3 -9 10 -88 16 -176 8
-113 17 -172 30 -202 18 -41 18 -44 -16 -310 -41 -315 -53 -561 -34 -662 11
-61 11 -77 -9 -165 -11 -53 -21 -132 -21 -175 0 -64 -4 -86 -25 -125 -14 -26
-25 -61 -25 -77 0 -17 -9 -75 -20 -129 -45 -221 -145 -459 -220 -523 -24 -20
-48 -37 -52 -37 -16 0 -158 82 -158 91 0 5 12 11 28 15 102 22 95 15 215 244
96 184 129 273 153 411 20 112 12 155 -41 221 -19 24 -44 60 -55 81 -41 75
-257 289 -363 360 -59 39 -97 48 -222 56 -88 5 -110 9 -110 21 0 25 192 46
270 30 120 -24 233 -111 319 -244 71 -109 153 -206 175 -206 22 0 48 28 52 55
1 11 -3 39 -11 62 -11 35 -11 70 -1 190 6 81 16 279 21 438 6 160 15 333 20
385 13 130 13 744 0 811 -6 30 -11 99 -11 153 1 111 -29 431 -59 636 -11 74
-42 230 -70 345 -64 265 -77 333 -90 470 -15 164 -2 250 56 380 26 58 62 122
79 143 23 27 40 68 63 147 65 227 74 341 47 560 -8 65 -15 150 -15 187 l0 68
30 0 c23 0 31 -5 34 -22z m-2034 2 c0 -5 -4 -10 -10 -10 -5 0 -10 5 -10 10 0
6 5 10 10 10 6 0 10 -4 10 -10z m-660 -50 c-12 -23 -30 -27 -30 -7 0 17 10 27
27 27 11 0 11 -5 3 -20z m-40 -44 c0 -3 -4 -8 -10 -11 -5 -3 -10 -1 -10 4 0 6
5 11 10 11 6 0 10 -2 10 -4z m804 -246 c48 -236 60 -344 52 -470 -11 -195 -52
-367 -131 -562 -89 -217 -124 -268 -313 -460 -93 -95 -114 -123 -192 -259 -47
-84 -92 -155 -98 -157 -23 -7 -15 147 12 240 59 204 167 443 235 522 22 25 48
59 58 76 25 43 38 32 38 -31 1 -73 13 -91 33 -50 8 18 28 39 44 47 15 8 28 20
29 27 3 42 -6 109 -31 237 -73 358 -80 421 -59 506 10 38 39 74 60 74 3 0 11
-55 18 -122 7 -68 15 -145 18 -171 19 -155 52 163 35 336 -7 69 -8 127 -3 150
8 32 42 96 128 236 8 13 19 19 23 15 5 -5 25 -88 44 -184z m135 -1 c84 -130
84 -131 98 -105 18 33 27 33 53 -4 12 -16 48 -50 81 -75 32 -26 64 -56 70 -67
6 -12 11 -51 10 -87 -1 -35 4 -80 10 -98 7 -24 8 -52 0 -101 -6 -37 -15 -117
-20 -178 -6 -60 -17 -128 -25 -152 -19 -52 -148 -236 -182 -259 -29 -18 -232
-66 -251 -58 -21 8 -15 50 21 132 48 111 62 157 101 342 38 178 42 234 21 285
-7 18 -17 62 -21 97 -10 91 -43 284 -61 351 -13 53 -11 109 5 108 3 -1 44 -60
90 -131z m-820 -255 c-19 -23 -68 -46 -82 -38 -26 15 -46 37 -41 45 3 5 35 9
71 9 58 0 64 -2 52 -16z m1471 -110 c0 -8 -4 -12 -10 -9 -5 3 -10 10 -10 16 0
5 5 9 10 9 6 0 10 -7 10 -16z m169 -33 c12 -8 13 -14 3 -36 -14 -30 -22 -27
-52 15 l-21 30 28 0 c15 0 34 -4 42 -9z m-354 -220 c-8 -13 -55 -15 -55 -2 0
5 12 11 28 13 32 4 36 3 27 -11z m216 -298 c38 -191 44 -234 43 -348 0 -183
-10 -361 -24 -420 -6 -27 -17 -91 -25 -141 -11 -74 -24 -113 -77 -222 -35 -72
-66 -132 -70 -132 -3 0 -9 17 -12 38 -3 20 -21 134 -41 253 -19 119 -35 233
-35 253 0 20 14 106 32 189 30 143 32 165 33 367 0 173 4 229 19 285 9 38 22
75 28 82 6 7 27 13 48 13 l38 0 43 -217z m-247 201 c14 -5 16 -30 16 -173 -1
-91 -5 -197 -11 -236 -6 -38 -12 -113 -14 -165 -3 -77 -10 -113 -38 -190 -21
-60 -31 -103 -27 -115 4 -11 3 -31 -1 -45 -4 -14 -15 -83 -24 -154 -15 -119
-15 -140 0 -275 12 -105 24 -163 42 -206 42 -99 33 -146 -66 -355 -97 -203
-103 -219 -87 -247 11 -21 12 -21 59 14 37 28 47 41 47 64 0 33 23 95 44 119
8 8 55 95 105 193 69 135 101 210 132 315 23 75 46 145 51 155 9 18 65 57 81
57 9 0 5 -38 -20 -193 -8 -54 -13 -101 -10 -103 13 -13 57 91 81 188 40 164
76 385 76 462 0 51 4 74 17 88 9 10 19 18 23 18 3 0 7 -62 7 -137 1 -160 -21
-291 -87 -511 -42 -141 -71 -204 -126 -285 -19 -27 -34 -55 -34 -61 0 -7 -21
-43 -46 -81 -28 -43 -66 -123 -96 -205 -27 -74 -56 -141 -63 -149 -10 -10 -38
-15 -92 -15 -314 -1 -474 24 -723 110 -167 57 -218 93 -340 239 -72 86 -123
120 -200 130 -96 13 -93 12 -86 56 6 39 23 75 86 184 16 28 34 74 40 102 20
95 161 326 265 433 34 36 122 133 195 215 73 83 139 154 147 158 8 5 37 11 65
14 43 4 176 50 280 96 63 28 236 285 249 370 5 28 20 67 34 88 28 42 26 42 49
33z m386 -50 c56 -51 71 -108 72 -276 2 -131 -16 -273 -59 -478 -33 -156 -77
-269 -99 -247 -3 3 8 94 25 203 29 196 30 203 21 414 -10 242 -12 420 -5 420
3 0 23 -16 45 -36z m260 -274 c5 -19 15 -105 21 -190 15 -229 33 -328 79 -441
49 -122 130 -392 130 -434 0 -17 7 -54 15 -82 8 -28 14 -72 13 -99 -1 -27 -1
-80 1 -119 1 -38 -2 -132 -8 -208 -9 -120 -16 -154 -51 -259 -23 -66 -39 -122
-36 -125 24 -24 85 78 118 195 12 45 27 82 32 82 5 0 7 -50 4 -115 -5 -109 -7
-117 -39 -167 -81 -126 -137 -160 -228 -138 -38 9 -59 7 -126 -9 -43 -11 -80
-19 -82 -18 -8 8 46 67 76 83 44 24 74 72 101 159 65 213 93 497 72 738 -7 78
-17 190 -22 249 -5 58 -17 126 -26 150 -36 98 -45 152 -55 328 -5 102 -17 240
-25 307 -9 67 -13 137 -9 155 7 30 8 31 21 13 8 -11 19 -35 24 -55z m-86 -129
c3 -21 11 -128 16 -237 12 -229 18 -267 65 -436 l35 -123 -10 -260 c-14 -372
-31 -495 -95 -675 -39 -110 -65 -149 -139 -208 -65 -53 -66 -53 -118 -47 l-53
7 -35 65 c-32 59 -35 73 -34 142 0 71 5 89 81 276 107 266 135 354 188 574 64
271 68 312 60 637 -5 204 -4 287 4 303 17 31 28 26 35 -18z m-549 -846 c25
-171 30 -240 19 -269 -9 -24 -18 -20 -36 17 -20 37 -52 294 -43 341 7 37 26
88 31 83 2 -1 15 -79 29 -172z m-1164 -671 c101 -99 140 -159 174 -263 l18
-55 -34 -28 c-18 -15 -37 -28 -41 -28 -13 0 -9 -49 7 -80 8 -16 23 -31 32 -34
29 -9 145 -9 190 -1 38 7 50 3 149 -49 139 -74 224 -130 304 -200 145 -128
149 -133 173 -213 17 -58 32 -88 70 -130 50 -58 87 -121 87 -149 0 -9 39 -53
86 -98 47 -44 95 -98 106 -121 12 -22 54 -75 94 -118 113 -120 161 -179 177
-219 18 -42 46 -63 100 -72 26 -5 44 -2 59 9 46 31 104 12 133 -45 9 -17 15
-56 15 -92 0 -52 -6 -75 -36 -136 -22 -44 -34 -82 -31 -95 2 -12 12 -49 21
-82 12 -45 15 -82 10 -152 -7 -97 8 -165 42 -193 28 -24 16 -40 -31 -40 -25 0
-45 -4 -45 -8 0 -4 11 -23 25 -42 14 -19 25 -45 25 -58 0 -20 -4 -22 -22 -16
-13 4 -39 20 -58 37 -30 27 -35 28 -38 13 -3 -11 13 -35 37 -60 43 -44 50 -70
27 -102 -21 -27 -43 -11 -84 60 -32 54 -51 70 -53 44 -3 -26 3 -42 27 -77 28
-42 33 -111 9 -131 -19 -16 -15 -20 -47 65 -34 88 -48 142 -48 180 l-1 30 -25
-30 c-14 -16 -37 -47 -50 -68 -26 -40 -77 -77 -108 -77 -32 0 -10 51 44 101
l50 46 -10 159 c-15 232 -25 302 -60 406 -35 105 -60 153 -171 323 -122 188
-126 194 -164 209 -20 9 -64 42 -98 74 -34 32 -84 76 -112 98 -55 45 -346 249
-438 307 -71 46 -140 109 -168 154 -21 33 -21 35 -3 48 18 13 17 16 -21 55
-83 86 -171 122 -310 125 -157 4 -263 56 -280 137 -4 18 -16 59 -26 90 -28 84
-27 320 2 398 11 30 27 85 35 122 30 137 56 168 138 168 48 0 50 -1 147 -96z
m612 -438 c53 -24 87 -56 87 -83 0 -23 -33 -14 -115 30 -86 46 -109 77 -57 77
16 0 54 -11 85 -24z m955 -83 c-4 -22 -38 -30 -38 -10 0 14 13 24 33 26 5 1 7
-7 5 -16z m-134 -18 c-21 -16 -54 -20 -54 -7 0 16 13 22 44 22 28 0 29 -1 10
-15z m41 -34 c-3 -6 -11 -11 -17 -11 -6 0 -6 6 2 15 14 17 26 13 15 -4z
m-1032 -797 c34 -36 68 -77 78 -92 22 -36 48 -57 84 -69 54 -17 69 -60 68
-192 0 -95 -6 -137 -30 -231 -54 -207 -123 -418 -164 -502 -35 -72 -40 -89
-35 -130 4 -37 -4 -77 -34 -180 -38 -124 -52 -228 -31 -228 5 0 15 17 22 38
28 89 56 83 125 -28 78 -124 73 -151 -33 -170 -38 -6 -149 -36 -248 -66 -177
-54 -182 -55 -268 -49 l-88 7 -50 -47 c-47 -44 -52 -46 -92 -40 -37 6 -47 3
-81 -24 -62 -49 -206 -85 -206 -51 0 9 80 50 97 50 22 0 133 133 120 146 -2 2
-46 -21 -98 -53 -52 -31 -116 -66 -144 -79 -57 -25 -125 -39 -125 -26 0 16 34
39 128 86 139 70 108 97 -38 35 -89 -37 -115 -38 -92 -2 16 25 147 76 290 112
144 36 150 39 237 102 127 92 160 123 208 198 44 66 126 244 165 356 80 229
141 639 114 765 -4 19 -5 117 -2 218 5 167 7 185 24 198 11 8 24 14 29 14 5 0
36 -30 70 -66z m448 -213 c45 -29 136 -118 128 -124 -2 -2 -24 -18 -49 -34
-46 -32 -157 -143 -221 -223 l-37 -45 9 54 c4 29 15 74 23 100 9 25 29 99 46
165 17 65 33 122 36 127 8 14 17 11 65 -20z m984 -86 c28 -12 100 -65 160
-117 106 -92 153 -146 190 -217 26 -52 75 -259 75 -321 0 -86 -76 -298 -157
-439 -73 -129 -84 -141 -125 -141 -40 0 -54 31 -38 84 19 62 13 172 -16 303
-35 158 -41 297 -19 441 19 133 11 197 -35 260 -23 32 -37 41 -72 47 -102 17
-188 68 -188 111 0 30 150 23 225 -11z m-825 -120 c0 -3 -28 -26 -62 -51 -35
-25 -75 -65 -89 -87 -32 -52 -54 -71 -74 -63 -28 10 -15 33 53 98 69 65 172
127 172 103z m115 -42 c9 -36 39 -84 86 -139 50 -58 102 -147 151 -259 35 -80
40 -103 49 -210 5 -66 14 -154 20 -195 13 -85 7 -105 -55 -192 -19 -26 -37
-66 -41 -88 -8 -46 -40 -76 -92 -86 -19 -4 -93 1 -164 11 -149 21 -218 17
-362 -20 -54 -14 -100 -25 -102 -25 -3 0 -28 46 -56 103 l-52 102 -1 140 c-1
138 -1 141 30 200 18 33 37 85 43 116 14 68 17 72 213 290 154 171 192 207
272 261 45 30 51 29 61 -9z m457 -1203 c15 -30 28 -58 30 -62 2 -5 21 1 43 12
48 23 202 45 253 35 20 -4 58 -16 85 -27 37 -16 47 -25 47 -44 0 -19 -13 -30
-67 -57 -91 -46 -158 -67 -218 -69 -27 -1 -159 4 -293 11 -235 12 -244 11
-280 -8 -20 -11 -60 -21 -88 -24 -34 -2 -91 -22 -175 -61 -167 -76 -191 -89
-286 -158 -102 -74 -134 -80 -217 -44 -33 15 -57 28 -55 31 3 2 33 13 66 23
34 11 122 56 195 99 179 108 258 146 352 172 43 12 133 42 200 67 113 43 185
57 330 64 6 0 -3 14 -20 31 l-29 31 24 19 c42 34 72 22 103 -41z m1077 21 c17
-13 84 -47 149 -76 l117 -54 67 -113 c71 -119 103 -209 86 -241 -7 -14 -19
-17 -46 -15 -37 3 -37 4 -53 68 -20 84 -41 122 -92 174 -61 60 -123 86 -238
98 -174 18 -275 -18 -424 -151 -74 -66 -127 -96 -209 -117 -30 -7 -66 25 -66
60 0 26 18 46 109 124 35 31 87 91 121 142 73 109 90 117 185 85 44 -16 46
-15 113 15 78 36 132 36 181 1z m-1530 -49 c63 -7 63 -7 43 -26 -14 -12 -47
-21 -104 -27 -134 -14 -218 -52 -423 -189 -94 -64 -173 -102 -275 -134 -47
-15 -130 -49 -185 -76 -55 -26 -118 -51 -140 -55 -60 -10 -390 -176 -470 -236
-38 -28 -85 -56 -103 -61 -21 -6 -66 -40 -116 -88 -71 -68 -88 -80 -127 -85
-87 -13 -169 -47 -275 -116 -118 -76 -136 -80 -258 -58 -144 26 -184 50 -204
123 -10 33 -7 47 23 118 19 45 43 91 53 102 10 12 31 42 45 67 29 51 79 99
103 99 8 0 28 14 44 32 29 31 32 32 135 38 61 3 110 11 117 18 7 7 21 12 32
12 38 0 130 51 182 100 29 28 57 50 63 50 6 0 30 -8 53 -17 34 -14 73 -18 183
-18 l140 0 55 33 c103 61 157 82 326 126 93 24 205 59 249 77 71 29 91 33 173
33 50 0 92 3 92 6 0 19 79 94 121 116 105 53 215 62 448 36z m-2514 -664 c-8
-18 -44 -75 -78 -125 -49 -71 -66 -90 -75 -81 -17 17 -15 59 5 88 47 72 101
135 128 152 36 21 42 12 20 -34z m3873 -191 c26 -20 30 -26 17 -31 -40 -15
-178 -1 -172 18 1 6 23 21 46 33 47 24 51 23 109 -20z m-3114 -227 c49 -21 56
-37 34 -85 -6 -15 -19 -25 -31 -25 -12 0 -54 -9 -94 -21 -119 -33 -122 -29
-56 74 62 98 57 96 147 57z"/>
<path d="M2811 10192 c-14 -26 -7 -42 10 -25 6 6 9 19 7 29 -3 17 -5 17 -17
-4z"/>
<path d="M2608 10053 c-20 -23 -31 -60 -20 -67 9 -5 46 74 38 81 -1 2 -10 -5
-18 -14z"/>
<path d="M3085 9940 c-10 -11 -20 -41 -23 -68 -4 -43 -1 -51 26 -79 26 -26 42
-31 117 -42 123 -17 139 2 91 105 -28 60 -38 69 -66 54 -17 -9 -30 -6 -74 19
-53 31 -53 31 -71 11z m135 -126 c0 -2 -13 -10 -29 -19 -34 -17 -56 -1 -27 20
14 11 56 10 56 -1z"/>
<path d="M3241 9456 c-9 -11 -8 -15 6 -18 25 -7 43 1 43 18 0 18 -34 18 -49 0z"/>
<path d="M2345 12526 c-79 -25 -129 -58 -252 -163 -33 -29 -70 -53 -81 -53
-19 0 -94 -49 -107 -70 -7 -12 75 -103 127 -141 14 -10 64 -26 110 -34 45 -8
116 -26 157 -40 85 -29 101 -30 101 -11 0 29 -44 66 -115 95 -41 17 -92 43
-112 57 -21 14 -67 40 -103 56 -64 31 -65 31 -35 38 76 19 111 12 160 -30 63
-55 62 -55 187 2 l89 39 73 -17 c112 -26 142 -2 64 52 -37 26 -50 29 -117 29
-81 -1 -127 -17 -189 -70 -29 -24 -34 -25 -59 -13 -30 14 -58 61 -48 78 14 23
148 80 280 119 77 23 144 46 149 51 5 6 4 15 -4 25 -10 12 -35 15 -124 14 -61
0 -129 -6 -151 -13z m-306 -330 c15 -8 33 -22 40 -30 22 -27 -44 -21 -69 6
-35 38 -22 50 29 24z"/>
</g>
</svg>
