<?xml version="1.0" standalone="no"?>
<!DOCTYPE svg PUBLIC "-//W3C//DTD SVG 20010904//EN"
 "http://www.w3.org/TR/2001/REC-SVG-20010904/DTD/svg10.dtd">
<svg version="1.0" xmlns="http://www.w3.org/2000/svg"
 width="856.000000pt" height="1280.000000pt" viewBox="0 0 856.000000 1280.000000"
 preserveAspectRatio="xMidYMid meet">
<metadata>
Created by potrace 1.15, written by Peter Selinger 2001-2017
</metadata>
<g transform="translate(0.000000,1280.000000) scale(0.100000,-0.100000)"
fill="#000000" stroke="none">
<path d="M3231 12745 c-62 -30 -141 -62 -177 -71 -43 -11 -72 -25 -87 -42 -69
-80 -113 -114 -207 -161 -56 -28 -111 -51 -121 -51 -21 0 -8 21 114 180 26 34
47 66 47 71 0 5 -15 26 -33 45 l-33 36 -84 -98 c-94 -109 -82 -108 -105 -10
l-6 29 -22 -22 c-12 -12 -27 -36 -33 -53 -11 -32 -43 -62 -79 -72 -16 -5 -26
4 -48 39 l-29 44 -38 -44 c-21 -24 -57 -68 -81 -99 l-43 -55 -47 40 -47 39
-19 -32 c-27 -47 -39 -82 -63 -178 -29 -116 -39 -130 -95 -130 l-45 0 0 -54
c0 -29 -7 -70 -15 -89 -9 -22 -15 -68 -15 -115 0 -63 -5 -91 -24 -133 -14 -30
-39 -110 -57 -179 -27 -101 -33 -145 -33 -225 0 -91 3 -107 32 -172 25 -56 32
-85 32 -135 0 -92 -19 -121 -127 -198 -157 -110 -166 -129 -104 -205 52 -62
65 -103 57 -171 -20 -174 -21 -158 14 -231 20 -42 35 -93 40 -135 4 -37 17
-84 28 -105 11 -21 31 -60 46 -87 20 -38 26 -64 26 -112 l0 -63 90 -61 90 -61
67 21 c156 48 364 64 469 36 121 -32 174 -75 396 -321 151 -168 190 -220 243
-330 55 -115 60 -134 44 -194 -11 -45 -10 -60 15 -166 51 -212 119 -340 265
-494 33 -35 66 -80 72 -100 39 -121 124 -248 251 -374 106 -105 149 -165 202
-281 46 -99 102 -181 167 -240 188 -171 214 -207 206 -290 -7 -75 15 -157 81
-303 57 -125 66 -138 169 -251 60 -65 127 -140 149 -166 21 -26 82 -78 134
-114 177 -122 173 -119 167 -171 -4 -25 -40 -149 -82 -276 -85 -257 -97 -336
-77 -489 10 -71 18 -145 39 -328 4 -40 0 -56 -25 -100 -79 -139 -91 -248 -40
-380 33 -88 33 -83 28 -368 -3 -214 71 -519 190 -780 40 -89 56 -148 43 -165
-5 -6 -46 -29 -93 -52 -47 -22 -109 -57 -139 -77 -45 -30 -61 -36 -106 -36
-66 0 -93 -10 -152 -55 -54 -41 -66 -43 -80 -12 -12 27 37 243 68 295 20 34
25 106 10 130 -12 19 -35 -16 -109 -164 -54 -108 -104 -174 -132 -174 -17 0
-17 43 0 83 10 23 21 67 25 97 3 30 11 78 16 106 7 39 7 60 -3 84 l-13 32 -80
-103 c-44 -57 -88 -118 -98 -136 -33 -62 -57 -191 -57 -314 0 -131 -6 -146
-64 -156 l-39 -6 6 89 c4 49 18 139 33 199 14 61 29 140 31 178 l5 67 -31 0
c-41 0 -54 -22 -91 -153 -28 -99 -64 -177 -82 -177 -15 0 -8 79 14 146 12 40
22 96 22 134 1 62 -1 68 -47 134 -27 38 -64 100 -83 137 -33 67 -88 139 -105
139 -4 0 -13 -9 -19 -21 -10 -17 -7 -28 14 -60 24 -36 25 -41 12 -62 -8 -12
-36 -39 -61 -60 -51 -43 -70 -74 -80 -132 -4 -22 -16 -56 -26 -75 l-18 -35 -1
65 c-1 77 -41 255 -63 277 -22 22 -51 2 -67 -47 -11 -32 -11 -51 -2 -91 20
-86 15 -198 -10 -249 -28 -53 -51 -69 -75 -54 -14 8 -19 30 -24 90 -3 52 -12
93 -26 119 -27 52 -50 133 -58 209 -6 48 -13 65 -37 90 l-31 30 -22 -29 c-14
-16 -29 -56 -36 -94 -6 -36 -23 -97 -36 -135 -26 -78 -30 -177 -12 -286 18
-107 14 -217 -9 -280 -11 -30 -35 -115 -52 -187 -45 -187 -59 -180 -85 44 -17
146 -17 155 0 249 16 82 17 101 5 128 -7 17 -17 105 -22 201 -12 215 -12 238
-3 303 7 48 6 52 -13 52 -54 0 -108 -112 -128 -268 -17 -136 -44 -233 -85
-310 -16 -30 -29 -65 -29 -77 0 -12 -22 -109 -49 -216 -27 -107 -52 -217 -56
-245 -7 -58 6 -121 33 -154 18 -22 17 -24 -21 -96 -21 -41 -42 -74 -46 -74
-12 0 -29 48 -36 105 -4 28 -15 65 -26 83 -23 40 -25 106 -4 156 9 20 27 83
40 141 14 57 34 130 47 162 19 51 21 77 21 228 0 224 -12 344 -36 359 -15 9
-23 5 -47 -24 -16 -19 -43 -68 -60 -108 -25 -60 -29 -79 -22 -101 7 -21 5 -41
-8 -77 -9 -27 -20 -67 -24 -89 -10 -53 -48 -124 -85 -159 -17 -16 -33 -28 -35
-25 -2 2 2 29 11 59 18 70 11 186 -17 269 -15 44 -20 88 -21 163 0 57 -4 111
-7 121 -7 16 -11 15 -37 -12 -39 -38 -94 -184 -102 -270 -5 -61 -23 -101 -45
-101 -5 0 -22 10 -39 22 -30 23 -31 23 -45 4 -8 -11 -24 -45 -36 -75 -18 -48
-22 -84 -27 -244 -5 -172 -8 -190 -26 -203 -27 -20 -38 -13 -48 28 -7 28 -3
52 17 109 28 82 28 83 -15 309 -22 116 -32 136 -55 105 -33 -46 -46 -56 -67
-53 -20 3 -23 11 -33 118 -17 173 -96 438 -128 427 -32 -11 -36 -50 -32 -317
3 -216 8 -285 25 -375 11 -60 23 -148 26 -195 3 -47 8 -98 10 -113 4 -27 3
-28 -28 -25 -31 3 -33 6 -55 83 -24 83 -35 158 -51 355 -8 98 -16 130 -50 216
-22 55 -51 141 -64 192 -33 126 -56 158 -96 133 -13 -8 -12 -28 7 -143 27
-161 27 -201 5 -219 -9 -8 -18 -10 -20 -4 -2 6 -12 25 -23 43 -20 33 -63 45
-73 20 -2 -7 8 -56 24 -108 38 -128 53 -225 43 -279 -5 -23 -13 -44 -19 -44
-16 -3 -34 62 -35 123 0 32 -9 73 -21 99 l-20 45 -24 -25 c-24 -24 -26 -32
-41 -269 l-16 -245 -29 -29 c-27 -27 -50 -84 -65 -162 -7 -39 -23 -43 -49 -14
-13 14 -20 44 -25 103 -4 52 -14 97 -27 122 -31 59 -80 205 -88 258 -6 40 -11
47 -29 47 -12 0 -27 -5 -34 -12 -19 -19 -14 -143 9 -221 17 -57 20 -84 14
-137 -10 -101 -9 -161 5 -213 12 -40 11 -58 -3 -125 -9 -42 -17 -111 -17 -152
0 -105 -19 -300 -32 -333 -17 -44 -28 -31 -28 33 0 43 -8 79 -26 123 -22 51
-28 83 -33 188 -5 95 -11 132 -24 152 -10 15 -21 27 -25 27 -14 0 -50 -43 -61
-73 -16 -42 -14 -356 4 -462 8 -49 18 -136 21 -192 l7 -103 -27 0 c-29 0 -39
18 -58 105 -6 27 -23 82 -39 122 -16 40 -33 103 -39 140 -6 37 -26 118 -45
179 -19 61 -41 138 -48 170 -10 46 -20 62 -40 74 -14 8 -29 11 -34 7 -13 -14
-3 -254 18 -415 11 -85 24 -196 28 -247 5 -51 16 -106 25 -123 9 -17 16 -46
16 -64 l-1 -33 -24 30 c-14 17 -43 74 -66 128 -37 86 -66 127 -91 127 -17 0
-8 -169 11 -227 11 -32 22 -83 26 -113 3 -30 13 -80 22 -110 29 -106 60 -149
212 -300 80 -80 160 -162 176 -183 37 -47 63 -52 84 -15 14 25 14 31 -3 75
-23 59 -30 98 -22 118 5 14 9 14 35 0 51 -26 96 -81 114 -139 21 -64 55 -96
103 -96 27 0 35 5 40 25 3 13 1 39 -5 56 -29 83 0 272 54 361 46 73 63 123 80
228 13 80 17 87 54 120 36 32 42 42 54 109 l13 74 48 -83 48 -83 19 29 c10 16
24 41 30 56 6 16 15 28 20 28 5 0 31 -34 59 -75 l51 -75 59 0 c55 0 61 2 74
28 13 24 12 30 -5 51 -22 27 -25 64 -6 78 6 5 38 20 71 33 34 14 75 40 100 65
22 23 58 54 79 71 21 16 54 41 73 56 24 18 53 29 92 33 31 4 76 14 99 22 l42
15 43 -35 c79 -64 131 -76 221 -52 69 18 112 19 156 4 28 -10 37 -9 61 10 16
11 31 21 34 21 9 0 26 -65 26 -102 0 -33 -7 -47 -44 -86 l-44 -46 -69 32 c-80
37 -111 39 -169 13 -56 -25 -76 -58 -116 -186 -33 -103 -34 -112 -22 -158 l13
-49 -74 -35 -74 -35 -73 39 c-42 22 -77 48 -83 61 -9 20 -17 22 -86 22 -108 0
-199 -37 -199 -80 0 -26 9 -30 107 -46 97 -15 119 -29 109 -68 -5 -22 -12 -26
-42 -26 -45 0 -98 -25 -118 -55 -14 -22 -13 -24 32 -52 86 -55 89 -56 186 -49
50 3 102 9 116 12 22 5 30 -2 61 -48 51 -75 53 -78 59 -123 5 -38 7 -40 42
-43 21 -2 53 4 72 13 34 16 124 105 202 199 l40 50 99 -17 c84 -14 102 -20
129 -47 18 -16 37 -30 43 -30 19 0 167 88 211 125 64 55 82 99 82 194 0 99 -9
107 -110 97 -89 -9 -94 -3 -85 108 7 84 8 86 42 106 19 11 46 20 60 20 47 0
93 31 136 91 30 44 47 59 65 59 12 0 61 17 108 37 46 20 87 34 90 30 7 -7 -31
-108 -53 -143 -7 -11 -24 -71 -38 -133 l-25 -113 25 -43 c18 -29 27 -64 32
-111 3 -39 12 -77 21 -86 33 -39 104 -12 163 61 39 49 56 51 139 16 33 -14 69
-25 80 -25 23 0 60 53 60 86 0 29 26 49 92 71 l57 20 69 -71 c76 -77 86 -93
108 -167 11 -37 22 -53 46 -65 46 -24 139 -20 232 10 94 30 109 25 125 -38 18
-75 82 -132 167 -150 17 -4 140 -8 273 -10 271 -5 271 -4 293 -77 23 -78 66
-98 191 -90 75 6 80 8 110 42 18 20 45 55 61 77 27 38 67 57 98 48 7 -3 26 -7
41 -11 16 -3 50 -26 76 -50 26 -25 64 -51 84 -60 41 -17 126 -20 175 -6 43 13
63 4 146 -58 89 -68 120 -83 171 -83 85 -2 188 87 203 174 l7 43 66 3 c59 3
70 0 98 -23 l31 -27 -47 -55 c-30 -35 -68 -65 -105 -84 -58 -29 -102 -77 -136
-148 -16 -32 -16 -34 7 -52 27 -22 71 -25 71 -6 0 8 15 31 33 51 25 30 43 40
82 47 69 13 102 -2 115 -51 7 -25 19 -41 37 -49 26 -12 30 -11 54 18 14 17 35
31 47 31 12 0 48 -25 84 -58 35 -32 80 -70 101 -86 37 -27 39 -28 59 -9 29 26
39 58 31 105 -8 56 -33 78 -86 78 -83 0 -96 32 -56 140 l23 63 -38 33 c-57 49
-47 69 34 69 l65 0 1 -65 c2 -54 15 -127 40 -208 3 -11 22 -12 87 -7 63 5 93
3 127 -9 60 -21 104 -20 173 4 31 11 98 23 149 27 l91 6 38 -44 c32 -37 41
-42 56 -33 12 7 20 28 23 62 3 28 11 57 17 63 17 17 85 2 161 -36 64 -32 72
-33 175 -33 97 1 110 3 123 22 20 29 18 56 -11 142 l-25 75 35 33 c23 22 35
43 35 60 0 14 11 54 24 88 13 35 40 115 60 178 19 64 58 162 86 219 27 56 48
107 44 112 -11 18 -54 8 -86 -20 -39 -34 -71 -51 -93 -51 -14 0 -15 8 -10 48
11 75 53 189 97 266 29 49 42 83 42 111 1 38 -1 40 -30 43 -28 3 -35 -4 -84
-72 -40 -56 -63 -79 -88 -87 -18 -6 -35 -9 -37 -7 -2 2 36 123 85 268 49 146
90 276 89 290 0 14 -6 36 -13 49 -13 24 -15 23 -61 -70 -26 -51 -63 -119 -83
-149 -42 -66 -202 -280 -210 -280 -9 0 7 224 23 310 9 47 27 125 41 174 27 94
26 116 -4 116 -28 0 -43 -22 -122 -178 -40 -78 -81 -147 -92 -153 -18 -10 -18
-6 -12 95 l7 106 -43 0 -43 0 6 72 c3 40 10 112 17 159 7 51 8 105 3 135 -8
46 -10 49 -41 52 -27 3 -34 -1 -43 -25 -6 -15 -24 -56 -40 -91 -16 -34 -29
-77 -29 -95 0 -20 -13 -53 -35 -87 -19 -30 -35 -65 -35 -78 0 -43 -50 -112
-82 -112 -12 0 -10 64 3 97 6 15 30 125 54 243 24 118 56 248 70 289 27 82 29
90 16 109 -7 11 -16 10 -47 -6 -27 -14 -62 -51 -113 -121 -82 -112 -127 -149
-161 -131 -11 6 -20 19 -20 30 0 10 24 74 54 142 29 68 56 140 60 161 l7 39
-48 -27 c-34 -18 -64 -47 -98 -93 -48 -66 -95 -155 -95 -180 0 -16 -95 -112
-111 -112 -18 0 -7 81 34 255 20 83 39 176 42 207 l7 57 -32 -9 c-18 -5 -38
-14 -46 -21 -17 -14 -66 -118 -89 -189 -27 -87 -127 -320 -136 -320 -5 0 -16
11 -25 25 -22 34 -15 82 25 172 30 69 40 139 25 177 -9 23 -17 20 -64 -19 -68
-57 -72 -53 -69 83 2 103 1 117 -14 120 -16 3 -31 -10 -102 -89 l-30 -34 -3
78 -3 78 -33 14 -34 14 38 98 c21 54 51 139 67 188 27 88 27 96 26 304 l-2
215 44 58 c113 151 153 261 166 462 10 162 15 185 57 281 16 39 35 90 42 115
6 25 36 97 66 161 80 172 152 384 164 485 14 115 43 173 133 273 120 133 201
307 195 423 -1 29 4 103 11 165 21 173 1 307 -75 503 -18 47 -49 141 -69 210
-23 80 -56 161 -90 225 -29 55 -69 145 -88 201 -56 161 -248 513 -336 615 -72
84 -111 148 -111 184 0 45 36 129 86 200 63 90 83 137 94 217 6 40 17 108 25
152 16 82 19 147 9 181 -3 11 -36 44 -74 74 l-68 54 -6 64 c-12 119 -77 257
-152 323 -38 33 -52 36 -100 18 -29 -10 -40 -8 -96 15 -81 35 -128 34 -230 -3
-45 -16 -98 -30 -117 -30 -42 -1 -53 -8 -110 -74 -41 -47 -43 -52 -37 -95 l6
-46 -54 -23 -54 -23 -63 32 c-35 17 -100 57 -144 89 -133 95 -223 150 -344
211 -64 31 -157 88 -208 125 -91 68 -376 229 -565 318 -83 39 -105 55 -162
118 -37 40 -112 136 -166 212 -110 153 -118 179 -75 221 26 27 51 30 103 16
100 -29 117 57 47 234 -24 59 -26 69 -12 82 22 23 52 2 82 -58 49 -95 89 -115
100 -49 8 45 -13 127 -51 203 l-25 49 23 -8 c13 -4 49 -25 81 -48 l59 -41 19
24 c10 13 19 32 19 42 0 10 -27 108 -60 216 -33 109 -60 204 -60 212 0 7 17
-2 40 -23 39 -35 82 -47 95 -26 11 17 -16 94 -52 149 -30 46 -33 57 -24 77 6
15 19 24 33 24 90 1 102 60 19 93 -37 15 -40 20 -43 59 -3 42 -3 42 -57 55
-57 15 -104 40 -96 53 2 4 18 10 35 14 17 3 55 13 85 22 50 14 55 18 55 43 0
26 -4 29 -45 34 -26 4 -96 33 -168 70 -67 35 -138 70 -157 77 l-35 14 43 4
c26 2 74 -6 119 -19 75 -22 101 -20 111 9 6 19 -47 60 -101 77 -29 9 -59 19
-67 21 -22 8 16 34 50 34 32 0 70 26 70 48 0 14 -33 26 -165 61 -91 25 -162
47 -159 50 3 3 26 17 52 31 48 26 71 63 59 95 -6 14 -19 16 -82 13 l-76 -3 -7
30 c-12 43 -76 72 -223 100 -68 14 -167 33 -219 45 -155 33 -157 32 -325 -58
-40 -22 -118 -29 -143 -14 -27 18 65 80 161 109 53 15 107 60 107 87 0 16 -37
36 -64 36 -7 0 -64 -25 -125 -55z m324 -175 c-28 -12 -45 -12 -45 0 0 6 15 10
33 9 27 0 29 -2 12 -9z m209 -54 c14 -55 -22 -83 -73 -57 l-33 18 43 31 c52
38 55 39 63 8z m-573 -23 c16 -10 29 -20 29 -24 0 -12 -84 -75 -202 -152 -65
-42 -138 -97 -162 -123 -51 -53 -113 -166 -146 -267 -12 -37 -37 -85 -56 -108
-35 -42 -35 -59 0 -89 11 -9 16 -30 16 -71 0 -68 -1 -68 98 -43 35 9 66 13 69
10 3 -3 -8 -27 -26 -54 -33 -51 -51 -112 -33 -112 15 0 204 67 265 94 58 26
97 66 97 101 0 29 -22 35 -127 35 -100 0 -106 10 -33 60 45 30 60 49 60 76 0
15 -8 24 -26 28 -21 6 -54 -7 -148 -53 -66 -33 -134 -63 -149 -66 l-29 -6 39
46 c48 59 140 128 198 150 56 22 49 41 -25 70 -73 28 -72 32 14 69 22 10 62
37 90 60 28 24 79 62 113 85 61 40 113 96 113 120 0 7 11 23 25 36 24 25 26
25 209 25 181 0 186 -1 222 -25 28 -19 50 -25 90 -25 45 0 54 -3 60 -22 5 -18
-1 -28 -32 -54 -21 -18 -36 -35 -34 -37 3 -2 34 -19 70 -38 l64 -34 -129 -6
c-72 -4 -144 -10 -160 -14 -28 -6 -31 -4 -43 29 -7 19 -29 48 -48 65 -64 57
-146 42 -317 -56 -78 -45 -167 -116 -167 -134 0 -14 109 -49 153 -49 24 0 56
8 74 20 41 25 59 18 67 -26 4 -19 12 -34 19 -34 58 0 253 34 297 51 30 11 98
28 150 36 122 19 133 25 128 69 -2 19 -2 34 0 34 12 0 102 -44 100 -49 -32
-61 -32 -59 -4 -101 33 -51 83 -76 171 -85 72 -7 155 -36 176 -61 10 -12 2
-14 -44 -14 -44 0 -69 -7 -124 -36 -72 -39 -90 -40 -252 -18 -41 6 -46 4 -77
-30 -21 -23 -42 -36 -58 -36 -31 0 -32 6 -6 45 11 17 20 35 20 41 0 6 -36 16
-82 22 -137 20 -141 19 -209 -44 -52 -48 -127 -92 -204 -119 -17 -6 -13 -10
25 -25 58 -24 103 -24 181 -1 112 34 125 35 157 11 26 -19 35 -20 83 -12 30 6
55 9 57 7 2 -2 -2 -22 -8 -45 -6 -23 -9 -44 -7 -46 2 -2 69 -5 148 -6 119 -2
151 1 182 15 35 16 42 16 99 1 34 -8 78 -24 96 -33 l35 -18 -24 -16 c-13 -10
-35 -17 -50 -17 -34 0 -79 -36 -79 -63 0 -12 17 -38 37 -59 l37 -38 -39 -40
c-37 -38 -38 -40 -21 -62 53 -74 51 -68 33 -86 -12 -11 -42 -18 -99 -22 l-83
-5 3 -28 c5 -50 -10 -57 -118 -57 l-98 0 -42 -50 -42 -50 45 0 c66 0 97 -14
97 -44 0 -19 -22 -41 -97 -100 -53 -42 -105 -76 -115 -76 -40 0 -77 28 -80 62
l-3 33 -67 3 c-64 3 -68 4 -68 27 0 17 16 35 60 68 33 25 65 47 72 50 9 3 7
11 -8 27 l-21 22 -75 -26 c-41 -14 -84 -26 -95 -26 -12 0 -40 16 -63 35 -23
19 -48 35 -56 35 -20 0 -94 38 -94 49 0 4 18 21 39 36 28 19 38 32 34 43 -11
32 -25 41 -69 48 -54 8 -57 27 -10 55 29 17 66 58 66 73 0 13 -59 14 -116 1
-76 -17 -74 -17 -74 -7 0 4 33 27 73 51 39 25 74 46 75 47 2 1 -4 16 -14 33
-17 28 -17 31 -1 49 23 25 21 36 -8 52 -22 12 -33 10 -90 -13 -131 -54 -196
-116 -210 -200 -4 -23 -18 -63 -31 -89 -27 -54 -30 -76 -10 -103 13 -17 17
-18 70 -5 31 7 58 11 61 9 2 -3 -14 -32 -35 -64 -43 -64 -47 -85 -27 -125 12
-24 16 -25 146 -30 113 -4 135 -8 146 -23 16 -22 45 -146 45 -191 0 -55 -45
-111 -174 -214 -129 -105 -143 -112 -218 -112 l-67 0 -7 -36 c-3 -19 -3 -39 2
-44 5 -4 53 -22 107 -40 l99 -32 41 18 c31 14 66 19 141 19 56 0 132 5 169 9
46 6 97 5 158 -4 88 -13 92 -14 105 -45 l13 -32 78 13 c43 7 97 13 120 13 38
1 44 -3 59 -31 18 -35 15 -87 -11 -178 -8 -30 -15 -91 -15 -137 0 -74 2 -83
21 -94 31 -16 98 -5 182 32 62 27 87 32 183 36 122 6 193 -8 269 -53 22 -13
70 -32 107 -44 49 -15 74 -30 97 -55 17 -20 31 -40 31 -45 0 -4 3 -15 6 -24
10 -26 -55 -30 -162 -7 -55 11 -146 23 -204 27 -92 6 -108 4 -123 -10 -20 -20
-23 -65 -4 -71 6 -2 68 -9 137 -14 185 -15 303 -63 420 -168 47 -43 84 -65
166 -98 58 -24 108 -45 111 -48 12 -13 -44 -18 -82 -7 -33 9 -48 9 -65 0 l-22
-12 28 -29 c15 -16 35 -29 44 -29 25 0 156 -66 233 -118 40 -26 112 -75 160
-108 49 -32 109 -72 135 -87 65 -40 90 -65 116 -116 l22 -43 28 32 27 32 82
-47 c112 -65 203 -127 255 -172 41 -37 42 -39 31 -70 -12 -28 -10 -34 15 -67
78 -102 108 -254 76 -380 -41 -161 -58 -186 -125 -186 -19 0 -24 7 -29 45 -4
24 -11 47 -15 50 -5 2 -37 -14 -71 -36 -34 -22 -80 -47 -101 -56 -54 -21 -161
-14 -214 13 -22 12 -83 44 -137 72 -53 28 -113 54 -135 57 -113 19 -192 53
-299 127 -60 41 -133 88 -162 104 -61 32 -89 69 -150 196 -40 83 -78 128 -109
128 -12 0 -14 -8 -9 -32 3 -18 8 -63 12 -100 l7 -67 -37 10 c-65 18 -240 105
-301 151 -33 24 -84 57 -113 73 -30 16 -67 46 -83 67 -20 25 -44 41 -69 48
-26 7 -61 32 -104 74 -37 35 -66 68 -66 72 0 5 -7 53 -14 107 -11 75 -12 113
-3 167 13 83 3 103 -36 77 -23 -15 -47 -74 -72 -180 -8 -29 15 -99 42 -129 15
-16 15 -18 -1 -18 -30 0 -72 27 -84 55 -20 44 -33 114 -43 225 -4 58 -9 110
-10 115 -1 6 2 27 6 48 6 33 5 37 -14 37 -11 0 -28 -11 -37 -25 -14 -21 -16
-48 -12 -183 5 -180 22 -246 88 -345 36 -53 37 -58 20 -67 -54 -29 -80 -9
-151 110 l-44 75 -3 -74 c-3 -87 15 -133 71 -171 44 -30 242 -241 374 -399 63
-74 116 -126 153 -150 104 -67 301 -116 518 -128 101 -5 112 -8 112 -25 0 -10
-11 -29 -23 -42 -30 -30 -87 -36 -292 -33 l-150 2 -180 86 c-99 47 -196 92
-215 99 -54 21 -88 48 -105 84 -9 18 -26 38 -39 44 -40 18 -98 74 -133 129
-59 93 -150 324 -158 400 -19 193 -38 331 -52 365 -15 37 -70 78 -105 78 -7 0
-28 9 -46 20 l-34 21 26 44 c38 64 35 76 -32 110 -43 23 -58 36 -60 55 -6 56
-36 102 -99 150 -78 62 -86 87 -50 152 15 27 27 50 27 52 0 2 -35 6 -78 9 -54
3 -120 18 -208 47 -218 71 -351 67 -516 -16 -81 -41 -102 -48 -205 -70 -82
-17 -104 -11 -156 44 -24 25 -26 32 -17 56 27 71 3 133 -79 210 -17 17 -31 33
-31 37 0 4 27 22 60 41 33 18 60 36 60 41 0 18 -89 102 -137 129 l-53 30 0
133 c0 162 -4 185 -42 227 -16 18 -36 45 -44 61 l-15 27 86 0 c110 0 125 8
125 63 0 28 12 68 35 116 39 81 45 142 19 193 -13 24 -14 48 -9 122 3 52 2
114 -4 144 -19 94 23 253 84 325 25 29 38 57 46 100 14 71 43 108 113 145 47
25 61 27 171 27 66 1 135 5 153 9 30 8 32 7 32 -17 0 -46 10 -57 49 -57 34 0
45 8 112 78 92 94 163 187 154 202 -13 22 -56 9 -98 -30 -72 -66 -125 -73
-147 -21 -9 24 -8 35 11 70 13 25 20 53 17 71 l-4 29 28 -17 c27 -16 31 -15
135 27 60 24 123 52 141 62 22 13 53 19 93 19 53 0 63 3 96 33 21 19 47 39 58
45 30 17 83 14 116 -5z m-791 -222 c0 -21 -35 -51 -58 -51 -14 0 -8 34 10 58
16 19 48 15 48 -7z m-161 -182 c-29 -22 -39 -24 -39 -6 0 16 40 37 54 29 5 -3
-2 -13 -15 -23z m1313 13 c4 -4 -22 -19 -58 -33 -35 -15 -64 -24 -64 -20 0 3
9 21 21 40 18 31 23 33 57 26 20 -3 40 -10 44 -13z m645 -418 c19 -3 37 -13
43 -24 10 -19 7 -20 -48 -20 -45 0 -66 5 -86 21 -50 39 -36 42 91 23z m-1117
-391 c-1 -11 -26 -43 -34 -43 -10 0 -7 25 6 38 13 13 28 16 28 5z m1240 -232
c0 -11 -47 -31 -54 -24 -12 12 -6 24 17 32 23 9 37 6 37 -8z m-190 -178 c0
-12 -7 -13 -27 -8 -33 8 -37 11 -29 23 9 14 56 2 56 -15z m141 -33 c10 -6 19
-15 19 -19 0 -15 -51 -23 -67 -9 -13 10 -13 14 3 25 21 16 20 16 45 3z m-132
-83 c8 -11 5 -17 -14 -27 -22 -12 -27 -11 -45 5 -16 14 -17 20 -8 27 20 12 54
9 67 -5z m-499 -140 c0 -15 -45 -59 -77 -76 -24 -12 -123 -15 -123 -3 1 7 78
59 120 79 34 16 80 16 80 0z m196 -95 c6 -4 16 -17 23 -29 l12 -23 -123 0
c-135 1 -138 7 -17 39 85 23 90 23 105 13z m-419 -98 c-3 -3 -12 -4 -19 -1 -8
3 -5 6 6 6 11 1 17 -2 13 -5z m733 -392 c0 -4 -29 -36 -64 -71 l-64 -63 -7 30
c-7 34 14 85 42 101 21 12 93 15 93 3z m-1266 -427 c9 -25 -5 -45 -30 -45 -29
0 -41 24 -24 45 16 19 46 19 54 0z m3461 -327 c4 -16 4 -46 0 -66 l-7 -37 -19
24 c-14 17 -19 39 -19 84 0 59 0 60 19 43 11 -10 23 -31 26 -48z m165 33 c0
-36 -22 -79 -42 -85 -32 -8 -38 1 -38 49 0 46 7 53 53 54 20 1 27 -4 27 -18z
m160 -16 c9 -11 7 -22 -11 -55 -12 -22 -26 -40 -31 -40 -4 0 -15 14 -24 32
-16 32 -16 32 12 55 34 27 38 28 54 8z m-475 -42 c29 -33 32 -53 7 -53 -26 0
-42 20 -42 52 0 35 5 35 35 1z m585 -195 c6 -76 3 -78 -50 -47 -71 42 -76 71
-23 130 l37 40 15 -28 c8 -15 18 -58 21 -95z m-1067 46 c66 -18 144 -62 173
-97 20 -24 24 -39 22 -76 l-3 -46 -42 -3 c-23 -2 -53 3 -66 10 -13 7 -73 64
-132 126 l-108 113 54 -6 c30 -4 76 -13 102 -21z m840 -74 c53 -52 103 -92
119 -96 36 -7 70 -51 62 -78 -13 -44 -50 -69 -108 -74 -31 -2 -56 -8 -56 -13
0 -4 20 -64 44 -133 l44 -126 -34 -101 c-19 -55 -34 -111 -34 -124 0 -32 -19
-73 -38 -80 -28 -10 -37 11 -26 63 10 49 1 112 -16 112 -25 0 -40 -47 -40
-125 0 -103 -13 -147 -57 -196 l-36 -40 -28 27 c-17 16 -30 42 -35 68 -11 69
-52 182 -84 234 -23 39 -30 61 -30 102 0 51 -2 55 -59 115 -33 34 -63 74 -67
89 -4 18 -20 34 -45 47 -31 15 -39 25 -39 47 0 37 23 68 57 77 16 3 70 22 122
42 53 20 102 32 115 29 12 -3 43 -20 69 -37 33 -22 52 -28 58 -22 50 50 -107
151 -213 137 -55 -8 -64 3 -44 49 16 41 61 61 171 77 38 6 71 13 74 16 2 2 17
4 33 4 23 0 48 -19 121 -90z m-3308 -40 c3 -6 -4 -10 -17 -10 -18 0 -20 2 -8
10 19 12 18 12 25 0z m3673 -193 c25 -23 27 -39 11 -69 -11 -20 -11 -19 -40 8
-18 17 -29 38 -29 54 0 46 13 47 58 7z m-139 -103 c13 -17 21 -41 21 -65 0
-36 -2 -39 -28 -39 -24 0 -32 7 -47 40 -15 32 -16 45 -7 65 15 32 35 32 61 -1z
m-1916 -861 c75 -27 59 -55 -43 -79 -56 -13 -63 -13 -85 3 -14 10 -25 21 -25
26 0 7 88 67 99 67 4 0 27 -8 54 -17z m1991 -198 c115 -142 208 -293 230 -372
3 -13 9 -32 12 -43 5 -18 1 -20 -33 -20 -21 0 -48 7 -59 15 -12 8 -46 24 -77
35 -30 11 -73 34 -96 50 -39 28 -141 62 -186 62 -11 0 -37 -8 -59 -17 l-38
-16 22 -24 c12 -12 49 -33 82 -45 94 -34 175 -87 262 -170 45 -42 104 -92 131
-110 109 -72 136 -109 231 -315 65 -143 69 -154 72 -235 2 -58 9 -96 21 -120
21 -40 35 -145 35 -271 1 -83 -1 -89 -46 -182 -27 -52 -62 -107 -78 -121 -52
-43 -138 -59 -177 -31 -12 8 -84 36 -160 61 -133 44 -194 72 -258 118 -16 12
-46 32 -66 44 -32 20 -37 20 -57 6 -22 -15 -22 -16 -5 -46 27 -46 181 -155
343 -243 156 -83 200 -111 200 -125 0 -16 -57 -40 -95 -40 -20 0 -68 14 -107
30 -106 45 -198 53 -198 16 0 -32 148 -109 293 -152 26 -8 47 -18 48 -22 0 -4
2 -56 4 -117 4 -107 3 -113 -36 -229 -75 -227 -188 -434 -263 -486 -42 -28
-186 -182 -186 -198 0 -4 12 -22 28 -40 l27 -32 59 52 c46 41 61 49 75 41 42
-26 21 -127 -66 -321 -35 -79 -71 -175 -80 -213 -18 -80 -44 -125 -93 -156
-19 -12 -50 -34 -67 -48 -20 -17 -49 -29 -75 -32 -63 -6 -81 -11 -102 -28 -18
-14 -18 -15 -2 -41 16 -23 22 -25 54 -19 67 12 172 17 172 8 0 -16 -42 -48
-138 -103 -92 -55 -109 -73 -97 -110 9 -29 35 -25 101 18 95 63 203 121 208
113 3 -4 8 -41 11 -82 6 -69 5 -78 -23 -134 -17 -33 -42 -105 -57 -160 -36
-137 -40 -146 -91 -196 -24 -24 -44 -49 -44 -57 0 -7 11 -30 25 -50 14 -20 25
-41 25 -47 0 -5 -16 -37 -36 -69 l-35 -59 46 -47 46 -47 -67 -7 c-64 -7 -70
-10 -125 -60 -67 -62 -117 -82 -253 -101 l-91 -13 -55 31 c-128 72 -178 108
-191 138 -11 28 -10 33 7 43 37 22 61 23 142 8 79 -15 83 -15 97 4 24 31 14
57 -32 82 -23 13 -52 39 -64 58 -12 19 -45 53 -75 75 -84 62 -99 105 -77 226
7 43 11 98 8 123 -12 92 -55 278 -85 367 -35 108 -36 119 -13 236 13 71 22 94
45 116 l28 27 85 -13 c60 -9 106 -24 151 -48 59 -31 74 -35 144 -35 61 0 83 4
101 19 l23 18 -30 16 c-16 8 -53 18 -83 22 -37 5 -62 15 -84 35 l-32 28 48 51
c76 81 59 98 -53 49 -57 -25 -143 -27 -191 -4 -71 34 -153 133 -218 263 -33
66 -41 93 -41 137 0 69 6 83 42 102 39 20 67 13 143 -36 78 -49 111 -56 152
-30 59 35 58 96 -1 117 -59 20 -99 55 -149 130 -88 132 -96 216 -36 368 29 72
33 95 39 225 6 139 13 171 45 210 7 8 24 53 39 100 30 93 61 142 107 165 25
13 29 21 29 58 0 56 17 86 66 119 22 15 49 42 59 62 18 34 18 35 0 70 -11 19
-17 37 -15 39 3 2 39 29 80 59 41 30 95 72 120 91 47 39 63 43 250 72 158 25
150 22 138 56 -12 35 -44 46 -89 30 -18 -6 -59 -11 -92 -11 l-60 0 22 24 c13
14 68 48 122 77 104 54 116 70 80 103 -19 17 -23 16 -111 -30 -51 -27 -129
-78 -174 -114 -176 -143 -400 -280 -456 -280 -80 0 -313 133 -402 229 -52 55
-164 251 -204 356 -23 62 -16 87 90 315 47 102 86 191 86 198 0 6 -9 12 -20
12 -23 0 -90 -64 -90 -86 0 -14 -57 -74 -71 -74 -7 0 16 137 32 186 5 17 25
57 44 89 19 32 39 72 43 89 7 27 14 32 61 43 30 6 77 27 105 46 95 65 113 71
201 66 44 -2 170 -3 280 -3 174 1 215 4 321 27 121 25 295 86 325 112 8 8 26
38 40 66 l24 52 58 -64 c32 -35 91 -104 131 -154z m-1619 142 l36 -25 -78 -86
c-98 -109 -168 -157 -270 -184 -104 -28 -218 -44 -261 -36 -48 9 -112 68 -112
103 0 26 4 28 68 40 73 13 414 151 447 180 53 48 107 51 170 8z m-665 -7 c0
-29 -2 -30 -44 -30 -25 0 -57 5 -73 11 l-28 11 50 18 c77 28 95 26 95 -10z
m1915 0 c-3 -5 -10 -10 -16 -10 -5 0 -9 5 -9 10 0 6 7 10 16 10 8 0 12 -4 9
-10z m-1105 -59 c0 -3 -16 -19 -35 -34 l-35 -28 0 35 c0 19 5 36 12 38 16 6
58 -2 58 -11z m-150 -3083 c51 -26 48 -10 29 -185 l-12 -113 -43 0 -43 0 -22
73 c-24 80 -40 192 -32 214 6 15 37 31 63 32 9 1 36 -9 60 -21z m121 -864 c7
-141 7 -139 70 -460 27 -139 49 -270 49 -293 0 -35 -3 -41 -21 -41 -12 0 -33
13 -48 29 -39 41 -125 219 -163 334 l-32 98 22 74 c27 93 27 101 -4 205 -36
117 -38 142 -20 177 l15 30 63 -17 63 -17 6 -119z m-1788 -961 c-7 -2 -19 -2
-25 0 -7 3 -2 5 12 5 14 0 19 -2 13 -5z m1906 -47 c25 -26 24 -54 -1 -89 -11
-15 -18 -16 -41 -8 -44 17 -63 94 -31 125 18 18 36 11 73 -28z m-274 28 c21
-8 206 -254 200 -264 -7 -11 -254 -146 -282 -154 -12 -4 -39 -2 -60 4 -34 11
-53 8 -164 -24 -168 -48 -218 -48 -183 2 23 33 74 55 122 53 23 0 55 5 71 13
30 16 57 66 48 91 -16 40 -117 26 -246 -35 -64 -29 -89 -36 -103 -29 -24 13
-23 17 12 63 17 22 30 46 30 53 0 7 26 39 58 71 31 31 62 65 67 75 9 17 14 17
58 5 42 -11 54 -10 95 6 192 74 237 85 277 70z m1312 -26 c-3 -7 -5 -2 -5 12
0 14 2 19 5 13 2 -7 2 -19 0 -25z m-3113 -57 c17 -19 17 -20 -17 -26 -19 -4
-45 -5 -58 -3 -23 3 -22 4 11 25 43 28 43 28 64 4z m-1367 -17 c-3 -3 -12 -4
-19 -1 -8 3 -5 6 6 6 11 1 17 -2 13 -5z m1469 -172 c28 -18 37 -55 26 -106 -6
-28 -16 -93 -21 -144 -7 -63 -17 -105 -32 -132 -13 -22 -26 -40 -29 -40 -11 0
-22 205 -14 268 7 59 40 162 52 162 4 0 12 -4 18 -8z m2071 -277 c91 -91 170
-165 174 -165 5 0 18 18 29 40 25 50 50 66 122 79 31 5 92 29 135 51 57 30 95
43 132 45 43 3 69 14 142 59 84 53 89 55 99 36 12 -23 -8 -115 -33 -154 -9
-13 -51 -50 -94 -82 -43 -32 -104 -80 -136 -106 -73 -61 -96 -72 -191 -98
-102 -27 -154 -52 -205 -100 -42 -40 -57 -45 -97 -34 -19 5 -20 9 -12 56 5 27
7 52 5 55 -13 12 -63 -29 -96 -78 -29 -44 -42 -55 -68 -57 -17 -2 -45 4 -62
12 -34 18 -33 30 6 82 22 29 30 73 17 87 -4 4 -33 -17 -66 -46 -32 -28 -72
-63 -89 -76 l-30 -24 -24 23 c-14 13 -25 27 -25 31 0 6 120 108 154 131 7 5
-1 19 -20 39 l-32 31 -108 -90 c-104 -87 -110 -91 -127 -74 -24 25 -39 78 -24
90 7 5 48 28 92 50 44 22 93 54 110 71 27 29 28 32 12 48 -16 16 -26 15 -166
-10 -137 -25 -153 -26 -185 -13 -42 18 -63 51 -45 72 21 26 80 45 184 59 128
19 142 23 250 78 50 25 93 46 98 46 4 1 82 -73 174 -164z m-1809 103 c19 -19
14 -45 -10 -62 -38 -27 -48 -20 -48 29 0 40 2 45 23 45 13 0 28 -5 35 -12z
m603 -26 l22 -19 -28 -7 c-32 -8 -51 5 -42 28 8 21 20 20 48 -2z m-3021 -27
c-7 -8 -19 -15 -26 -15 -8 0 -14 7 -14 15 0 10 10 15 26 15 22 0 25 -2 14 -15z
m2651 -20 c-36 -19 -66 -33 -68 -32 -1 2 -6 18 -9 35 l-6 32 73 0 74 0 -64
-35z m-2353 -67 c91 -52 158 -111 209 -185 35 -51 38 -53 44 -32 4 13 7 59 8
102 1 43 5 87 11 97 15 28 89 46 168 41 12 0 41 -18 65 -40 23 -21 72 -52 109
-70 69 -33 107 -76 123 -142 l7 -27 -59 14 c-32 8 -61 14 -65 14 -14 0 -50
-133 -50 -187 0 -56 -23 -133 -39 -133 -16 0 -95 67 -106 91 -9 18 -10 48 -3
112 8 83 3 132 -20 167 -8 13 -13 13 -37 0 -23 -13 -29 -25 -34 -66 -7 -55
-15 -73 -67 -151 -33 -50 -37 -53 -76 -53 -63 1 -144 46 -188 105 -21 27 -42
51 -47 53 -5 2 -19 -19 -32 -45 -22 -44 -24 -64 -29 -248 -5 -220 -10 -239
-63 -253 -17 -5 -33 -8 -34 -8 -1 1 5 26 14 55 14 49 14 59 0 105 -71 240
-108 300 -115 190 -5 -76 -12 -78 -100 -28 -82 47 -90 57 -91 119 -1 56 13
100 52 159 19 28 46 72 61 98 31 56 76 92 132 107 23 6 53 20 67 31 34 27 78
50 96 50 8 0 48 -19 89 -42z m1143 -42 c11 -25 16 -52 12 -67 -6 -24 -52 -99
-60 -99 -3 0 -18 8 -34 17 -20 12 -27 23 -23 33 4 8 12 39 20 68 15 62 40 106
56 96 5 -4 19 -25 29 -48z m3779 8 c0 -45 -10 -51 -29 -15 -7 13 -6 24 5 39 8
12 17 22 20 22 2 0 4 -21 4 -46z m-3380 -16 c71 -47 80 -56 80 -84 0 -33 -73
-144 -95 -144 -13 0 -48 36 -62 65 -6 11 -18 54 -28 96 -13 59 -15 81 -6 98 7
11 16 21 21 21 6 0 46 -24 90 -52z m3667 30 c-3 -8 -6 -5 -6 6 -1 11 2 17 5
13 3 -3 4 -12 1 -19z m-2817 -96 c105 -103 105 -112 -5 -112 l-85 0 -69 -50
c-38 -27 -73 -50 -78 -50 -6 0 -18 9 -27 19 -16 18 -16 23 10 95 18 53 35 83
54 96 15 11 33 33 40 50 10 25 18 30 46 30 28 0 46 -12 114 -78z m2419 46 l20
-31 -24 -19 c-13 -10 -25 -18 -28 -18 -4 0 -37 86 -37 97 0 2 11 3 25 3 18 0
31 -10 44 -32z m816 12 c4 -12 1 -28 -6 -36 -11 -13 -14 -12 -25 8 -9 16 -9
27 -2 35 15 19 26 16 33 -7z m-228 -66 c-3 -3 -12 -4 -19 -1 -8 3 -5 6 6 6 11
1 17 -2 13 -5z m-3629 -64 c12 -18 32 -38 45 -45 31 -16 30 -85 -3 -120 -49
-52 -140 -19 -140 50 0 29 16 132 26 164 6 19 42 -6 72 -49z m-488 -35 c7 -9
16 -32 20 -53 4 -20 10 -44 14 -53 13 -30 -37 -41 -125 -27 -72 11 -79 15 -90
42 -12 26 -10 31 14 52 15 13 44 26 65 30 20 4 44 10 52 15 22 12 36 11 50 -6z
m3899 -102 c-20 -37 -29 -27 -29 31 0 44 3 55 18 58 13 3 18 -4 20 -31 2 -19
-2 -45 -9 -58z m-467 -15 c-6 -6 -15 -8 -19 -4 -4 4 -1 11 7 16 19 12 27 3 12
-12z m-2172 -60 c11 -12 20 -27 20 -33 0 -13 -97 -109 -127 -124 -28 -14 -65
-14 -98 1 -32 14 -31 24 4 80 20 32 44 53 82 72 64 32 92 33 119 4z m1745 -39
c18 -34 19 -63 4 -92 -23 -43 -53 -47 -124 -17 -40 17 -46 23 -40 42 16 56 85
111 126 101 11 -3 26 -18 34 -34z m1431 -69 c-10 -62 -24 -90 -44 -90 -35 0
-70 38 -91 100 l-20 61 27 10 c15 5 36 13 47 18 16 8 26 3 54 -26 29 -31 33
-40 27 -73z m-1210 80 c24 0 25 -3 22 -47 -3 -46 -5 -49 -47 -70 -39 -20 -48
-21 -65 -9 -54 35 -8 150 52 130 8 -2 25 -4 38 -4z m-3261 -40 c0 -31 -5 -37
-45 -58 -81 -41 -151 -16 -120 43 20 38 57 55 115 52 l50 -2 0 -35z m331 -25
c45 -80 45 -118 -1 -161 -20 -18 -53 -38 -73 -44 -20 -6 -46 -17 -56 -25 -32
-25 -100 -18 -166 15 -77 39 -87 57 -61 113 48 103 157 169 270 164 l54 -2 33
-60z m4296 9 l27 -27 -20 -28 c-16 -24 -28 -29 -60 -29 l-39 0 0 43 c0 36 4
46 23 55 33 16 38 15 69 -14z m-2154 -71 l-21 -22 -17 22 c-17 20 -17 24 -3
39 14 16 17 16 38 0 l23 -17 -20 -22z m959 -69 c-3 -4 -20 4 -38 17 l-32 22
29 24 29 23 9 -40 c5 -22 6 -43 3 -46z m-1667 22 c70 -46 140 -173 140 -254 0
-69 -59 -101 -185 -102 -33 0 -74 -4 -92 -9 -43 -13 -112 5 -140 36 -19 20
-23 36 -23 87 0 128 44 210 135 252 61 29 111 26 165 -10z m1072 -13 c22 -20
24 -71 2 -101 -21 -30 -104 -32 -134 -2 -24 24 -25 39 -3 85 16 33 19 35 67
35 32 0 56 -6 68 -17z m-3422 -8 c11 -13 8 -15 -19 -15 -30 0 -39 9 -24 23 11
11 30 8 43 -8z m5635 -5 c19 -1 19 -2 -4 -20 -38 -33 -81 -22 -67 17 4 10 13
13 29 9 12 -3 31 -6 42 -6z m-1811 -36 c11 -28 -3 -51 -40 -69 -54 -26 -73
-15 -94 58 l-9 27 69 0 c54 0 69 -3 74 -16z m-197 -22 c9 -6 3 -18 -22 -42
l-35 -34 0 35 c0 20 3 39 7 42 9 9 35 9 50 -1z m-2228 -57 c16 -14 44 -52 61
-83 31 -57 31 -57 14 -94 -21 -47 -48 -49 -111 -13 -43 26 -43 26 -43 83 0
133 18 157 79 107z m-157 -62 c-6 -93 -5 -91 -26 -60 -18 27 -18 29 -1 67 10
22 21 40 24 40 3 0 5 -21 3 -47z m3275 32 c24 -7 75 -73 88 -113 5 -17 0 -34
-18 -60 -14 -20 -29 -54 -32 -74 -4 -21 -11 -38 -16 -38 -5 0 -52 12 -104 27
l-95 27 0 73 c0 105 21 140 99 163 26 8 36 7 78 -5z m-1291 -40 c25 -17 50
-25 79 -25 40 0 115 -23 115 -36 0 -3 -10 -19 -21 -36 -28 -38 -75 -59 -106
-47 -19 7 -114 80 -157 120 -11 10 21 49 40 49 7 0 30 -11 50 -25z m-197 -57
c-4 -29 -8 -64 -8 -77 -1 -23 -2 -24 -21 -6 -16 14 -20 31 -20 77 0 57 0 58
28 58 l28 0 -7 -52z m1108 -38 l-42 -39 -27 32 c-15 17 -28 35 -28 40 0 4 31
7 70 7 l69 0 -42 -40z m-533 21 c3 -4 25 -14 49 -20 36 -11 50 -10 80 3 37 15
37 15 43 -11 6 -22 -1 -33 -42 -71 -57 -53 -98 -72 -152 -72 -50 0 -112 25
-112 46 0 16 107 134 121 134 4 0 10 -4 13 -9z m-791 -80 l68 -48 -34 -26 -33
-25 9 -66 c12 -75 3 -105 -37 -132 -35 -22 -67 -12 -121 39 -40 39 -45 48 -45
89 0 25 5 60 11 79 15 42 85 139 102 139 7 0 43 -22 80 -49z m-4483 -6 c0 -14
-4 -25 -10 -25 -5 0 -10 11 -10 25 0 14 5 25 10 25 6 0 10 -11 10 -25z m1701
-52 c9 -10 30 -30 47 -46 21 -18 32 -36 32 -55 0 -15 9 -40 20 -57 11 -16 20
-33 20 -36 0 -4 -23 -9 -51 -13 -29 -4 -69 -16 -90 -26 l-37 -20 -7 33 c-4 17
-18 55 -32 84 -29 59 -26 91 12 129 28 28 64 31 86 7z m1512 -20 c-11 -72 -14
-74 -51 -44 l-32 28 37 25 c50 35 53 34 46 -9z m4024 21 c-3 -3 -12 -4 -19 -1
-8 3 -5 6 6 6 11 1 17 -2 13 -5z m-3139 -27 c24 -7 43 -16 44 -20 4 -50 -46
-122 -92 -132 -38 -8 -65 7 -79 46 -16 45 -14 63 10 93 23 29 51 33 117 13z
m-1250 -19 c18 -18 15 -26 -17 -42 -26 -14 -30 -14 -46 4 -15 16 -15 22 -5 35
15 18 51 20 68 3z m2195 -4 c-23 -10 -40 -11 -58 -4 -39 15 -30 20 33 19 l57
-1 -32 -14z m-1268 -50 c36 -39 33 -78 -9 -120 -30 -30 -40 -34 -87 -34 -30 1
-77 9 -105 18 -62 22 -156 81 -151 95 2 6 16 20 31 31 21 16 49 22 119 27 177
11 176 11 202 -17z m-1777 -10 c26 -7 28 -21 5 -46 -19 -22 -33 -23 -58 -4
-19 14 -19 15 -1 35 21 23 21 23 54 15z m3384 0 c66 -11 60 -69 -10 -97 -28
-11 -48 -13 -78 -6 -21 5 -51 11 -65 14 -14 2 -30 15 -37 29 -10 22 -8 25 31
39 73 27 100 30 159 21z m1510 -21 c52 -57 75 -131 64 -208 -8 -53 -48 -105
-81 -105 -51 0 -115 86 -115 154 0 18 9 63 20 100 28 90 65 109 112 59z m-692
-30 c0 -45 0 -46 -20 -28 -23 20 -26 45 -8 63 21 21 28 13 28 -35z m430 28
c16 -31 12 -73 -13 -116 -24 -42 -49 -54 -72 -35 -28 23 -7 141 28 158 33 16
45 14 57 -7z m-1855 -81 c33 -63 7 -108 -77 -131 -52 -14 -89 -4 -123 31 l-28
29 36 41 c21 22 37 45 37 50 0 6 30 10 70 10 67 0 70 -1 85 -30z m963 -83 c24
-31 51 -57 61 -57 9 0 30 14 47 31 59 62 88 59 123 -14 30 -63 28 -100 -10
-131 -17 -14 -35 -26 -41 -26 -18 0 -241 147 -272 179 l-29 30 29 25 c16 14
34 24 39 22 6 -1 29 -28 53 -59z m-3605 6 c31 -35 26 -72 -17 -117 -24 -26
-42 -36 -63 -36 -29 0 -30 1 -30 48 0 26 -4 59 -8 74 -6 23 -4 29 16 37 39 16
85 12 102 -6z m1902 -8 c23 -22 34 -57 18 -53 -5 1 -42 -2 -84 -6 -91 -10
-126 2 -108 35 26 50 134 65 174 24z m282 -10 c54 -23 73 -44 73 -81 0 -46
-34 -73 -129 -106 -67 -22 -87 -25 -111 -16 -58 20 -35 84 57 156 28 23 54 46
58 52 8 13 9 13 52 -5z m2055 -6 c21 -11 21 -12 -3 -25 -31 -17 -56 -17 -62 0
-12 30 27 45 65 25z m1229 -114 c-2 -16 -49 -24 -103 -18 -55 7 -53 17 8 38
30 10 45 11 67 2 16 -7 28 -16 28 -22z m-351 18 c-1 -22 -19 -34 -43 -27 -27
6 -33 15 -20 27 9 9 63 9 63 0z m-982 -49 c29 -20 28 -34 -2 -34 -27 0 -59 26
-51 41 9 13 28 11 53 -7z m1069 -66 c-3 -8 -6 -5 -6 6 -1 11 2 17 5 13 3 -3 4
-12 1 -19z m-135 -93 c21 -27 73 -34 110 -14 18 9 27 5 68 -36 l47 -46 31 26
c26 22 35 24 52 15 16 -8 20 -19 18 -42 -3 -31 -4 -31 -93 -50 -67 -14 -97
-16 -119 -8 -16 5 -53 10 -83 10 -47 0 -59 4 -83 28 -16 17 -32 46 -36 67 -6
33 -4 41 16 57 30 24 48 23 72 -7z m-2478 -44 c16 -17 15 -19 -15 -31 -29 -13
-33 -12 -51 10 -15 18 -16 25 -6 31 22 14 54 10 72 -10z m2308 -41 c16 -29 16
-30 -5 -45 -13 -9 -44 -15 -80 -15 l-58 0 3 32 c3 29 8 33 48 44 67 18 73 17
92 -16z m-886 -25 c-5 -14 -9 -15 -21 -5 -12 10 -13 16 -4 27 15 18 34 1 25
-22z m628 14 c5 -4 4 -20 -3 -37 -10 -24 -20 -31 -54 -35 -23 -4 -62 -9 -86
-13 -33 -5 -52 -3 -77 11 -37 20 -42 39 -18 73 15 22 19 22 122 16 59 -4 111
-10 116 -15z m-555 -140 c31 -11 31 -12 15 -30 -21 -23 -47 -24 -64 -4 -10 12
-10 18 0 30 15 18 10 17 49 4z"/>
<path d="M3680 11931 c-30 -9 -64 -22 -74 -28 -18 -10 -17 -12 12 -27 22 -11
38 -14 50 -8 9 5 57 12 106 14 73 4 91 8 103 24 12 16 11 20 -4 31 -24 18
-128 15 -193 -6z"/>
<path d="M3740 11413 c-19 -7 -60 -44 -60 -55 0 -4 32 -8 70 -8 39 0 70 -4 70
-9 0 -9 -61 -35 -145 -61 -22 -7 -57 -25 -77 -41 -20 -16 -74 -52 -120 -80
l-83 -51 125 5 c105 4 244 21 348 43 32 6 27 33 -8 45 -19 7 -30 18 -30 30 0
18 9 19 135 19 74 0 135 4 135 9 0 4 -9 20 -20 34 -18 23 -19 28 -6 58 10 23
11 39 5 51 -9 16 -26 18 -167 17 -86 0 -164 -3 -172 -6z"/>
<path d="M2052 11241 c-11 -6 -10 -15 5 -45 14 -30 15 -40 5 -54 -7 -9 -22
-37 -33 -61 -20 -42 -21 -47 -7 -118 9 -40 13 -85 10 -99 -6 -30 -57 -84 -81
-84 -10 0 -40 -35 -76 -87 -53 -79 -63 -101 -91 -213 -18 -69 -32 -126 -31
-126 1 -1 31 -20 67 -43 59 -37 65 -39 68 -21 2 10 -7 33 -20 50 -20 28 -23
43 -22 112 2 104 24 161 68 182 19 9 41 16 50 16 23 0 87 33 123 64 16 13 55
36 86 50 32 14 60 33 64 42 3 9 0 39 -7 66 -6 27 -10 51 -8 53 2 2 60 6 128 9
69 3 126 5 127 5 1 1 7 10 13 21 15 29 -32 50 -114 50 -109 0 -148 25 -196
125 -46 97 -88 132 -128 106z m75 -223 c-3 -7 -5 -2 -5 12 0 14 2 19 5 13 2
-7 2 -19 0 -25z"/>
<path d="M3000 10811 c-114 -30 -140 -55 -140 -136 0 -48 2 -51 38 -70 35 -20
37 -23 35 -68 -1 -52 3 -54 52 -31 24 11 37 28 50 61 10 25 44 75 76 110 33
36 59 68 59 72 0 3 4 23 9 44 l9 37 -62 -1 c-33 0 -90 -8 -126 -18z m-21 -107
c-15 -18 -82 -19 -77 -1 8 21 50 37 71 26 14 -8 16 -13 6 -25z"/>
<path d="M1823 1937 c-44 -16 -63 -37 -70 -79 -5 -35 -3 -37 35 -57 l41 -21
21 22 c16 17 20 35 20 85 0 35 -3 63 -7 62 -5 0 -22 -6 -40 -12z"/>
</g>
</svg>
