<?xml version="1.0" standalone="no"?>
<!DOCTYPE svg PUBLIC "-//W3C//DTD SVG 20010904//EN"
 "http://www.w3.org/TR/2001/REC-SVG-20010904/DTD/svg10.dtd">
<svg version="1.0" xmlns="http://www.w3.org/2000/svg"
 width="1280.000000pt" height="856.000000pt" viewBox="0 0 1280.000000 856.000000"
 preserveAspectRatio="xMidYMid meet">
<metadata>
Created by potrace 1.15, written by Peter Selinger 2001-2017
</metadata>
<g transform="translate(0.000000,856.000000) scale(0.100000,-0.100000)"
fill="#000000" stroke="none">
<path d="M8785 8549 c-33 -5 -98 -10 -145 -13 -111 -8 -132 -13 -152 -39 l-18
-22 0 23 c0 23 -3 24 -57 20 -61 -4 -147 -24 -173 -39 -8 -5 -22 -12 -30 -15
-8 -3 -29 -12 -47 -20 -17 -8 -35 -14 -40 -14 -36 0 -231 -102 -248 -131 -4
-5 -20 -9 -37 -9 -23 0 -42 -11 -73 -42 -24 -24 -84 -83 -134 -133 -50 -49
-107 -113 -126 -141 -19 -29 -41 -54 -49 -57 -9 -4 -22 -23 -31 -43 -8 -20
-33 -58 -55 -84 -22 -26 -40 -51 -40 -56 0 -4 -9 -18 -21 -30 -25 -27 -67
-172 -80 -274 -5 -41 -16 -124 -24 -184 -9 -60 -14 -120 -10 -135 3 -14 7 -51
10 -81 5 -62 30 -141 68 -215 30 -60 127 -154 182 -177 71 -29 147 -49 163
-43 8 3 30 2 49 -1 34 -6 35 -8 28 -43 -5 -24 -19 -46 -46 -69 -49 -42 -76
-94 -95 -181 -16 -79 -18 -162 -3 -230 6 -31 7 -66 2 -93 l-9 -43 -146 -1
c-81 -1 -182 -6 -225 -12 -43 -7 -153 -16 -246 -22 -92 -6 -191 -15 -219 -21
-34 -8 -92 -9 -163 -4 -60 3 -152 9 -204 11 -90 4 -97 7 -195 58 -173 91 -283
160 -461 293 -227 169 -233 174 -240 210 -3 18 -3 37 0 43 3 5 1 30 -5 55 -13
57 4 206 28 247 14 24 14 29 -1 52 -10 14 -31 33 -47 41 -47 25 -79 4 -108
-69 -13 -33 -26 -75 -29 -95 -8 -63 -10 -65 -42 -44 -96 61 -173 127 -231 198
-64 78 -80 88 -113 76 -30 -12 -43 -63 -24 -96 6 -12 20 -37 30 -55 l19 -33
-29 6 c-15 3 -59 15 -98 26 -79 24 -219 30 -253 12 -12 -6 -26 -20 -31 -30
-17 -30 46 -82 116 -96 31 -6 59 -17 61 -25 4 -10 -3 -11 -24 -6 -137 34 -283
18 -297 -33 -6 -24 12 -33 73 -37 186 -10 300 -30 308 -53 3 -10 -7 -11 -43
-5 -26 3 -104 7 -174 8 -134 1 -171 -8 -171 -44 0 -29 31 -40 158 -56 64 -7
142 -20 172 -29 30 -8 64 -15 75 -15 23 0 191 -71 284 -121 35 -19 83 -44 106
-56 24 -12 62 -45 86 -74 24 -29 58 -67 74 -84 17 -16 80 -82 140 -145 174
-182 296 -281 475 -383 136 -77 480 -172 557 -152 26 6 27 7 9 20 -10 8 -39
17 -65 20 -42 6 -75 14 -221 57 -43 12 -45 15 -42 46 3 27 0 32 -18 32 -14 0
-24 -8 -27 -21 -5 -18 -11 -20 -40 -16 -76 13 -244 107 -368 206 -86 70 -223
205 -255 251 -13 19 -66 80 -119 134 -55 57 -91 101 -84 103 7 3 58 -37 113
-88 54 -50 114 -101 132 -111 18 -11 43 -29 56 -41 20 -19 24 -19 38 -6 8 9
12 22 9 30 -6 14 -88 79 -100 79 -3 0 -30 18 -59 40 -57 43 -103 95 -130 149
l-18 33 33 34 c18 19 41 34 51 34 21 0 94 -43 122 -72 10 -11 44 -36 75 -55
31 -20 72 -50 91 -68 38 -35 244 -177 273 -188 9 -3 43 -24 75 -45 31 -22 94
-58 138 -81 l81 -43 224 1 c134 1 237 5 257 12 19 6 47 9 63 5 16 -3 102 1
191 9 101 10 165 12 171 6 6 -6 2 -22 -12 -44 -25 -41 -27 -57 -6 -57 8 0 15
-7 15 -15 0 -8 -5 -15 -12 -15 -8 0 -9 -3 -2 -10 11 -11 44 -3 44 10 0 5 26
40 57 80 38 47 60 67 66 61 7 -7 5 -17 -8 -31 -20 -22 -24 -30 -69 -115 l-29
-55 22 -24 c12 -13 32 -26 44 -29 12 -2 29 -8 38 -11 13 -6 24 6 50 51 43 77
134 199 154 207 25 9 30 8 61 -19 20 -17 30 -21 36 -12 4 6 7 110 6 232 0 202
1 226 22 295 37 121 73 159 113 122 58 -53 93 -54 183 -6 51 27 83 37 124 39
97 4 94 3 80 20 -7 8 -24 15 -38 15 -13 0 -47 16 -73 35 -27 19 -59 35 -72 35
-33 0 -85 -58 -95 -105 -10 -50 -42 -60 -60 -20 -13 28 -16 144 -4 160 4 6 29
16 56 23 27 7 62 24 78 37 43 36 97 34 160 -7 57 -37 104 -114 94 -154 -5 -19
-2 -24 13 -24 10 0 21 7 25 15 6 17 -8 60 -23 70 -6 3 -11 12 -11 20 0 23 -59
103 -96 132 -34 25 -40 26 -147 25 -62 -1 -125 -7 -140 -13 -17 -7 -32 -8 -37
-3 -5 5 -12 48 -16 96 -8 104 6 169 42 193 13 8 24 24 24 35 0 17 77 90 95 90
5 0 16 6 24 14 22 20 120 51 226 72 68 13 144 17 315 18 224 1 287 -6 365 -39
17 -7 54 -21 83 -30 54 -17 172 -90 172 -106 0 -5 11 -14 24 -21 26 -11 104
-119 144 -198 12 -25 25 -66 29 -93 5 -41 4 -47 -11 -41 -22 9 -20 -12 4 -36
28 -28 28 -135 0 -183 -12 -21 -24 -67 -30 -113 -5 -44 -16 -99 -25 -124 -9
-25 -21 -65 -26 -90 -6 -25 -35 -97 -65 -160 -60 -125 -70 -162 -41 -168 10
-2 19 4 23 15 13 42 78 170 96 190 11 12 18 28 15 36 -6 17 20 60 33 52 4 -3
2 -33 -6 -67 -8 -33 -19 -102 -24 -152 -8 -75 -7 -95 6 -114 22 -34 31 -20 39
58 10 99 25 97 25 -3 0 -70 3 -86 17 -91 9 -4 23 0 32 9 21 21 18 130 -8 250
l-19 90 30 25 c47 39 210 130 233 130 11 0 56 9 100 21 61 15 124 21 265 25
106 3 217 11 260 20 169 35 142 26 440 141 102 39 472 205 525 235 47 27 116
58 129 58 7 0 25 9 39 20 14 11 45 29 68 40 24 12 91 50 149 85 57 35 108 61
113 56 4 -4 -1 -45 -13 -91 -31 -122 -25 -222 17 -285 23 -34 15 -51 -43 -96
-210 -163 -494 -339 -754 -465 -234 -114 -243 -118 -420 -199 -90 -42 -181
-86 -200 -99 -19 -13 -62 -31 -95 -41 -33 -9 -64 -20 -70 -25 -11 -9 -166 -52
-170 -48 -2 2 -11 50 -20 108 -10 58 -30 137 -45 175 -15 39 -40 107 -55 153
-22 69 -33 86 -62 107 -34 23 -37 23 -69 7 -28 -13 -34 -21 -34 -46 0 -37 7
-49 38 -65 16 -9 27 -9 43 -1 11 7 27 9 34 6 14 -5 38 -76 29 -85 -5 -5 -20
14 -27 33 -6 19 -27 -6 -27 -32 0 -15 -9 -97 -21 -183 -27 -187 -19 -231 26
-156 l19 32 4 -29 c4 -33 -41 -160 -68 -191 -26 -30 -64 -104 -58 -111 10 -9
64 23 91 56 14 16 31 46 38 65 7 19 17 35 21 35 12 0 10 -6 -21 -68 -19 -36
-52 -77 -90 -111 -79 -70 -80 -95 -3 -83 41 6 41 -8 -1 -55 -19 -21 -47 -58
-64 -83 -17 -25 -40 -54 -52 -64 -26 -24 -27 -36 -2 -36 12 0 33 18 52 45 18
25 39 45 47 45 17 0 -43 -79 -97 -127 -34 -31 -35 -33 -13 -33 16 0 40 17 71
51 27 29 51 47 54 42 4 -6 -5 -20 -18 -31 -14 -12 -25 -29 -25 -37 0 -8 -5
-15 -12 -15 -6 0 -37 -22 -67 -48 -31 -27 -69 -57 -86 -67 -16 -10 -39 -26
-50 -36 -32 -28 -222 -92 -380 -129 -44 -10 -105 -28 -135 -39 -30 -12 -76
-24 -101 -27 -42 -6 -49 -3 -85 27 -145 122 -280 283 -270 323 5 19 70 108
143 194 15 18 57 58 93 89 63 55 148 152 182 209 9 16 45 67 78 114 73 102
113 177 106 197 -3 8 -10 13 -15 11 -11 -3 -78 -106 -130 -197 -68 -121 -216
-289 -237 -269 -2 3 7 30 20 60 28 63 50 138 42 145 -3 3 -19 -1 -36 -8 -21
-10 -33 -23 -37 -41 -3 -16 -10 -28 -15 -28 -5 0 -7 9 -3 19 3 11 2 22 -4 25
-18 12 -41 -7 -67 -55 -24 -43 -29 -47 -54 -42 -16 3 -43 -2 -65 -12 -32 -16
-38 -16 -52 -3 -16 16 -19 16 -133 -17 -57 -17 -155 -14 -192 6 -26 14 -48 62
-48 107 0 44 45 113 87 134 30 15 35 31 10 36 -51 10 -126 -82 -142 -175 -6
-36 -13 -46 -51 -68 -49 -29 -54 -43 -24 -70 27 -25 25 -37 -5 -29 -36 9 -34
-28 3 -46 53 -27 112 -65 112 -74 0 -11 -51 2 -70 19 -8 7 -31 21 -51 31 -102
53 -192 146 -218 227 -13 40 -42 193 -50 266 -3 30 -11 56 -17 58 -13 4 -34
-40 -34 -73 0 -47 -107 -210 -126 -191 -4 3 5 27 20 53 30 54 30 54 11 54 -13
0 -84 -110 -104 -163 -8 -20 -6 -29 9 -42 11 -10 26 -15 35 -12 18 8 20 44 3
50 -10 3 -10 7 0 20 11 13 17 14 33 4 22 -14 25 -70 8 -161 -14 -76 -6 -109
30 -123 25 -9 30 -17 36 -62 4 -29 5 -55 1 -58 -3 -3 -17 21 -31 52 -22 51
-27 56 -38 42 -11 -16 -15 -16 -62 2 -27 10 -99 26 -160 36 -60 9 -144 28
-185 41 -41 13 -87 24 -103 24 -15 0 -35 4 -45 10 -28 16 -213 80 -232 80 -22
0 -33 -25 -17 -38 7 -6 44 -18 82 -27 38 -8 83 -22 99 -30 16 -8 39 -15 50
-15 12 0 56 -12 99 -25 43 -14 120 -32 170 -41 86 -14 271 -59 288 -70 4 -2
30 -47 58 -100 106 -197 187 -272 433 -399 78 -40 103 -69 297 -344 29 -42 83
-114 120 -161 36 -46 71 -92 76 -101 154 -258 277 -422 303 -405 21 13 13 30
-52 116 -36 47 -88 129 -115 184 -51 99 -81 142 -155 227 -23 26 -57 68 -76
94 -19 26 -42 55 -50 64 -8 9 -28 36 -44 60 -36 52 -28 60 54 61 53 1 102 6
275 31 44 6 101 12 126 14 26 1 51 5 57 9 7 4 44 13 84 21 40 8 91 18 113 24
22 5 60 15 85 21 50 12 184 60 274 97 55 23 79 25 116 9 10 -4 59 37 154 129
77 74 143 135 147 135 8 0 82 103 105 145 52 98 108 185 117 185 38 0 270
-226 425 -412 40 -49 77 -88 81 -88 16 0 225 -262 275 -345 20 -33 54 -88 76
-123 22 -35 70 -120 107 -190 36 -70 75 -138 86 -152 10 -14 32 -54 48 -89 16
-35 42 -85 58 -110 16 -26 32 -58 36 -72 4 -13 33 -76 65 -139 31 -63 65 -140
75 -170 10 -30 28 -75 40 -100 31 -62 87 -241 119 -385 15 -66 34 -142 41
-170 8 -27 19 -68 24 -91 26 -99 37 -482 19 -634 -2 -21 2 -26 24 -28 l27 -3
-5 -167 c-8 -276 -11 -322 -17 -329 -15 -15 -348 -18 -397 -3 -19 5 -53 10
-75 10 -22 0 -89 12 -150 26 -60 15 -139 32 -175 39 -127 26 -292 87 -392 146
-84 49 -86 63 -27 175 23 44 55 106 72 139 43 85 103 158 140 171 37 13 46 38
19 53 -10 5 -46 37 -81 70 -44 43 -88 72 -157 105 -106 51 -110 52 -118 31 -8
-21 41 -75 68 -75 12 0 35 -13 51 -30 15 -16 43 -36 61 -45 25 -12 34 -22 34
-41 0 -29 -37 -127 -86 -228 -19 -39 -34 -75 -34 -81 0 -7 -13 -39 -29 -71
-16 -32 -50 -104 -77 -159 -53 -110 -123 -220 -177 -277 -43 -46 -150 -98
-203 -98 -21 -1 -61 -9 -89 -18 -61 -21 -68 -49 -17 -71 17 -8 32 -20 32 -26
0 -6 -21 -22 -46 -34 -39 -20 -56 -22 -117 -18 -124 9 -162 22 -234 79 -96 77
-113 95 -113 118 0 24 38 87 76 125 26 27 27 28 9 41 -47 34 -145 -6 -241 -97
-71 -69 -83 -99 -65 -167 14 -49 77 -131 123 -160 18 -11 51 -44 72 -72 21
-28 68 -72 102 -96 65 -46 104 -90 104 -116 0 -14 52 -61 109 -100 32 -22 102
-23 142 -3 41 22 203 173 284 267 l68 77 58 0 c52 -1 61 -4 95 -36 32 -30 43
-34 71 -30 26 5 36 1 52 -19 11 -14 41 -31 68 -39 27 -8 60 -26 73 -40 17 -18
34 -25 59 -25 25 0 51 -11 85 -35 28 -20 62 -35 77 -35 15 0 48 -9 74 -20 26
-11 66 -20 90 -20 23 0 59 -7 80 -16 21 -8 57 -14 80 -13 34 2 100 -16 133
-37 7 -4 -64 -127 -93 -161 -18 -21 -39 -51 -48 -68 -9 -16 -26 -41 -37 -54
-19 -22 -23 -23 -64 -12 -25 6 -64 11 -88 11 -42 0 -46 3 -146 107 -57 60
-112 127 -123 150 -43 92 -83 73 -83 -41 -1 -90 30 -162 128 -300 70 -98 107
-132 159 -143 50 -10 30 -26 -25 -19 -29 4 -87 9 -128 12 -41 2 -103 9 -138
15 -34 5 -135 12 -225 14 -89 3 -220 7 -292 10 -71 4 -222 8 -335 10 -396 8
-808 25 -832 34 -13 5 -35 7 -49 5 -13 -3 -94 2 -179 11 -180 19 -260 22 -733
30 -368 7 -417 2 -417 -35 0 -10 5 -22 11 -25 6 -4 90 -8 187 -10 336 -5 647
-15 742 -25 52 -5 205 -12 340 -15 135 -4 272 -11 305 -16 38 -5 83 -5 120 1
33 5 67 8 75 5 35 -10 335 -25 580 -30 604 -11 740 -15 840 -26 216 -22 230
-22 242 12 5 13 22 16 82 17 42 0 118 6 169 12 103 12 529 8 772 -8 333 -22
484 -35 560 -49 44 -8 105 -16 136 -18 30 -1 65 -8 77 -14 13 -7 27 -9 32 -6
5 3 11 1 14 -3 7 -11 117 -3 134 10 16 14 16 63 -1 76 -8 7 -65 11 -148 11
-90 -1 -160 5 -214 16 -46 10 -142 19 -225 21 -80 2 -230 8 -335 14 -104 5
-211 9 -237 10 -44 0 -48 2 -48 25 0 22 -22 51 -108 138 -26 26 -27 31 -29
151 -1 68 -4 129 -5 136 -2 7 19 18 50 26 75 20 92 31 109 72 19 45 52 212 53
268 0 23 4 54 10 70 5 16 11 72 14 124 29 538 30 762 1 985 -8 66 -22 197 -29
290 -13 152 -29 262 -44 305 -3 8 -4 20 -3 27 2 17 -43 170 -73 243 -14 35
-26 69 -26 77 0 7 -14 41 -31 75 -16 35 -46 100 -65 146 -34 83 -89 194 -163
327 -21 39 -68 126 -105 195 -37 69 -80 145 -95 170 -16 25 -57 97 -91 160
-35 63 -83 141 -107 172 -24 32 -50 72 -58 90 -7 18 -25 44 -40 58 -26 23 -60
66 -144 179 -47 62 -213 247 -265 293 -40 37 -40 38 -15 38 14 0 84 -20 156
-44 71 -25 167 -50 214 -56 46 -6 113 -15 149 -20 36 -5 74 -7 85 -5 11 3 88
9 171 14 210 11 239 30 210 134 -6 20 -5 27 6 27 8 0 22 8 32 19 26 29 -1 45
-62 37 -26 -4 -72 -11 -102 -16 -30 -4 -80 -12 -110 -18 -92 -17 -300 -24
-374 -13 -82 12 -100 24 -67 47 12 9 35 36 50 61 30 48 36 52 156 112 118 58
172 79 248 96 74 16 107 30 107 45 0 20 -63 79 -94 90 -44 14 -83 0 -289 -100
-159 -77 -161 -78 -191 -63 -17 9 -32 17 -34 18 -1 1 9 25 23 52 35 66 44 153
21 189 -22 33 -81 57 -122 51 -54 -9 -251 -110 -404 -208 -84 -53 -171 -101
-177 -96 -9 10 8 154 20 171 7 9 66 38 132 65 66 27 145 60 175 74 75 35 197
87 203 87 15 0 650 319 757 380 69 40 166 95 215 122 50 28 115 67 145 88 30
20 83 51 117 69 55 27 69 30 116 25 42 -5 55 -3 66 10 12 14 10 25 -18 79 -30
57 -31 62 -15 74 10 7 34 13 54 13 56 0 176 37 280 86 92 44 220 94 328 129
29 9 56 25 62 35 12 22 2 32 -21 20 -10 -6 -51 -17 -91 -25 -62 -13 -138 -45
-308 -130 -69 -34 -247 -75 -329 -75 -21 0 -41 92 -41 189 0 65 29 213 54 272
8 19 61 82 117 140 56 57 120 128 142 157 47 62 131 132 159 132 13 0 18 -5
15 -13 -10 -26 -83 -122 -118 -157 -20 -19 -39 -45 -43 -56 -4 -12 -36 -46
-71 -75 -66 -55 -77 -72 -50 -83 20 -7 120 19 151 39 13 8 29 15 37 15 14 0
163 58 242 95 113 53 241 105 258 105 9 0 17 -4 17 -9 0 -10 -95 -71 -110 -71
-6 0 -36 -13 -68 -29 -32 -16 -77 -34 -101 -41 -42 -11 -166 -72 -186 -91 -5
-5 -16 -9 -26 -9 -19 0 -69 -37 -69 -51 0 -15 48 -10 88 9 43 22 123 50 242
87 47 14 94 30 105 35 43 19 152 50 198 56 46 7 77 24 77 45 0 5 -8 9 -17 9
-19 0 -107 -27 -136 -41 -9 -5 -39 -12 -65 -15 l-47 -6 85 47 c105 57 139 88
124 113 -6 9 -21 18 -33 20 -29 5 -144 -39 -341 -128 -212 -96 -325 -136 -335
-120 -6 10 64 102 103 135 17 15 32 31 32 36 0 5 25 40 55 76 59 71 67 99 36
127 -33 30 -92 -5 -186 -109 -135 -150 -156 -171 -277 -293 -55 -55 -108 -96
-158 -124 -41 -22 -93 -53 -115 -68 -22 -15 -75 -44 -118 -65 -42 -20 -79 -41
-82 -45 -3 -4 -16 -10 -29 -14 -13 -3 -88 -37 -167 -75 -291 -139 -492 -231
-506 -231 -6 0 -21 -8 -34 -19 -13 -10 -35 -21 -49 -24 -37 -9 -144 -42 -240
-76 -97 -33 -226 -58 -350 -66 -120 -7 -187 -14 -250 -26 -69 -13 -207 -61
-251 -88 -36 -22 -69 -27 -69 -11 0 5 11 35 25 66 l25 57 53 -6 c75 -8 193 11
262 43 46 21 87 55 180 147 144 143 148 150 209 281 81 174 116 317 116 475 0
103 -10 130 -45 121 -20 -5 -25 -1 -31 19 -3 14 -3 30 0 35 8 13 -47 202 -69
235 -9 15 -22 24 -27 21 -10 -7 -6 -86 8 -131 5 -18 -1 -25 -34 -42 -35 -18
-42 -28 -63 -91 -24 -75 -43 -89 -52 -40 -4 17 -12 30 -19 30 -19 0 -78 -38
-78 -50 0 -5 -7 -10 -15 -10 -21 0 -19 8 15 47 33 37 39 77 14 87 -22 8 -19 9
-59 -25 -40 -35 -44 -31 -14 17 30 49 7 74 -34 37 -19 -18 -19 -17 -13 14 8
34 -8 53 -27 34 -18 -18 -27 -13 -27 13 0 33 -34 44 -61 20 -18 -17 -19 -16
-19 19 0 50 -18 56 -52 18 -18 -20 -30 -27 -32 -19 -2 7 -8 31 -12 52 -5 22
-17 44 -29 50 -11 5 -32 18 -47 28 -36 24 -80 23 -103 -2 -20 -22 -35 -18 -35
11 0 17 -11 24 -34 20 -5 -1 -19 8 -32 19 -15 15 -29 20 -43 15 -13 -4 -27 1
-40 14 -11 11 -27 18 -34 15 -7 -2 -22 4 -32 16 -10 11 -28 20 -40 20 -11 0
-27 6 -33 12 -13 13 -81 23 -242 34 -100 6 -150 -4 -150 -30 0 -31 30 -46 90
-46 62 0 93 -7 85 -20 -3 -4 -42 -6 -87 -3 -82 5 -144 -3 -363 -46 -155 -30
-182 -39 -296 -89 -25 -11 -67 -23 -93 -27 -42 -7 -46 -6 -46 14 0 15 6 20 21
18 12 -1 24 4 26 11 3 8 -8 12 -35 12 -29 0 -49 -8 -77 -30 -45 -35 -64 -39
-41 -7 9 12 24 34 33 48 9 14 38 38 65 53 32 18 48 34 48 47 0 22 -15 24 -50
4 -28 -16 -60 -19 -60 -7 0 5 32 26 71 48 66 36 89 57 76 70 -3 3 -32 -8 -66
-25 -33 -17 -65 -31 -71 -31 -29 0 0 21 91 65 55 28 105 58 111 68 31 58 -64
23 -231 -86 -60 -39 -121 -63 -121 -47 0 5 19 19 43 31 23 12 56 31 72 44 38
28 155 87 221 110 61 21 88 40 79 54 -11 19 -38 12 -124 -29 -91 -44 -91 -44
-91 -30 0 11 94 74 155 105 40 20 60 55 32 55 -8 0 -62 -27 -120 -60 -59 -33
-114 -60 -124 -60 -22 0 22 30 131 90 93 51 144 65 166 45 21 -18 90 9 90 35
0 27 19 34 39 16 23 -21 46 -20 100 5 69 31 127 40 236 40 118 -1 165 6 165
24 0 16 102 35 187 35 176 0 530 -69 598 -116 11 -8 25 -14 32 -14 7 0 54 -20
104 -45 120 -59 253 -176 245 -215 -5 -29 36 -130 53 -130 5 0 13 -9 16 -20 5
-14 12 -19 24 -15 23 7 68 -50 86 -109 7 -22 25 -66 39 -96 14 -30 26 -63 26
-73 0 -22 27 -34 42 -19 8 8 8 15 1 24 -6 7 -16 42 -22 78 -7 36 -34 110 -62
167 -27 56 -49 106 -49 112 0 5 -8 12 -19 16 -10 3 -26 23 -36 45 -17 37 -149
180 -166 180 -4 0 -31 22 -61 50 -29 27 -69 55 -88 61 -19 6 -62 24 -95 40
-114 54 -223 92 -250 85 -15 -4 -37 0 -55 9 -17 9 -50 16 -73 16 -73 -1 -166
7 -178 15 -16 10 -201 12 -274 3z m-405 -88 c0 -8 -82 -41 -102 -41 -24 0 -2
19 40 32 58 20 62 20 62 9z m-177 -68 c-7 -2 -19 -2 -25 0 -7 3 -2 5 12 5 14
0 19 -2 13 -5z m-393 -207 c0 -3 -4 -8 -10 -11 -5 -3 -10 -1 -10 4 0 6 5 11
10 11 6 0 10 -2 10 -4z m-40 -26 c0 -5 -5 -10 -11 -10 -5 0 -7 5 -4 10 3 6 8
10 11 10 2 0 4 -4 4 -10z m50 -185 c0 -2 -27 -22 -60 -44 -71 -47 -81 -37 -12
14 42 31 72 44 72 30z m1100 -61 c8 -7 37 -16 64 -21 26 -4 47 -12 45 -18 -5
-14 -53 -7 -106 16 -24 10 -57 20 -74 21 -16 1 -29 8 -29 14 0 16 79 6 100
-12z m-1264 -60 c-22 -16 -36 -18 -36 -6 0 11 43 32 50 25 3 -3 -4 -11 -14
-19z m1217 -6 c37 -12 70 -24 72 -28 3 -5 11 -39 19 -76 12 -55 13 -85 4 -149
-6 -44 -17 -87 -24 -96 -8 -8 -14 -23 -14 -31 0 -25 -86 -133 -116 -147 -15
-6 -45 -10 -68 -7 -22 3 -110 8 -195 11 -85 3 -159 10 -166 15 -30 25 -47 100
-43 188 3 81 7 94 57 200 40 82 60 114 75 117 177 36 285 37 399 3z m-483 -25
c-1 -5 -9 -22 -18 -39 -77 -140 -82 -156 -82 -261 0 -65 6 -116 16 -147 9 -26
15 -49 13 -51 -2 -2 -42 -8 -89 -13 -125 -16 -184 -28 -234 -51 l-45 -20 -33
23 c-18 12 -42 38 -53 58 -18 33 -18 42 -7 108 7 39 22 90 33 113 37 73 215
227 262 227 10 0 28 5 40 12 68 36 198 63 197 41z m803 1 c9 -9 -4 -35 -14
-28 -5 3 -9 12 -9 20 0 14 12 19 23 8z m-48 -74 c17 -10 58 -28 92 -40 35 -12
80 -37 100 -55 l38 -33 -1 -98 c0 -86 -4 -109 -31 -176 -30 -76 -79 -154 -136
-215 l-30 -32 -36 29 c-39 31 -123 82 -208 127 -29 15 -53 31 -53 35 0 4 15
29 34 55 68 96 103 205 121 376 l7 59 36 -7 c21 -4 51 -15 67 -25z m185 -16
c0 -14 -3 -14 -15 -4 -8 7 -15 14 -15 16 0 2 7 4 15 4 8 0 15 -7 15 -16z m90
-46 c0 -22 -23 -23 -40 -3 -11 13 -10 18 6 29 21 16 34 6 34 -26z m-1820 23
c0 -12 -42 -42 -49 -36 -5 6 29 45 41 45 4 0 8 -4 8 -9z m291 -53 c-29 -28
-61 -70 -72 -94 -11 -23 -29 -50 -40 -60 -18 -16 -19 -16 -19 9 0 14 -7 30
-15 35 -13 6 -6 17 34 55 27 26 51 51 53 56 4 11 77 48 97 50 8 1 -9 -22 -38
-51z m1589 -4 c0 -16 -16 -19 -25 -4 -8 13 4 32 16 25 5 -4 9 -13 9 -21z m606
-102 c-20 -20 -22 -1 -4 31 11 20 12 21 16 3 2 -10 -3 -26 -12 -34z m-650 -3
c-4 -34 0 -46 20 -64 26 -24 30 -35 13 -35 -17 0 -39 -27 -39 -49 0 -12 -6
-21 -16 -21 -9 0 -12 5 -8 11 7 12 10 46 13 142 0 31 5 57 11 57 5 0 8 -18 6
-41z m603 -89 c-16 -33 -34 -62 -39 -65 -14 -8 -13 -3 8 41 28 62 42 84 52 84
5 0 -4 -27 -21 -60z m91 7 c0 -2 -10 -12 -21 -23 -22 -19 -22 -19 -10 4 10 18
31 31 31 19z m-610 -78 c11 -21 16 -39 10 -39 -5 0 -16 13 -24 29 -9 16 -23
32 -33 35 -14 6 -15 9 -3 16 19 12 27 5 50 -41z m630 4 c0 -5 -4 -15 -10 -23
-11 -18 -25 -7 -17 15 6 15 27 21 27 8z m-680 -34 c0 -6 -4 -7 -10 -4 -5 3
-10 11 -10 16 0 6 5 7 10 4 6 -3 10 -11 10 -16z m-34 -36 c-8 -9 -46 18 -40
28 4 6 13 4 25 -7 11 -9 17 -19 15 -21z m597 -7 c-18 -26 -33 -33 -33 -17 0 4
10 21 22 36 27 34 37 16 11 -19z m25 -56 c-14 -22 -24 -19 -15 5 4 8 11 15 17
15 6 0 6 -7 -2 -20z m-2778 -70 c0 -5 -4 -10 -10 -10 -5 0 -10 5 -10 10 0 6 5
10 10 10 6 0 10 -4 10 -10z m2100 -89 c16 -30 12 -36 -10 -16 -21 19 -26 35
-10 35 5 0 14 -9 20 -19z m-15 -61 c12 -8 32 -33 45 -55 21 -35 22 -38 5 -25
-23 17 -115 109 -115 115 0 5 40 -16 65 -35z m-4333 -251 c19 -31 137 -129
185 -153 35 -18 79 -21 88 -7 3 6 10 36 16 68 21 117 86 181 83 83 -1 -25 -5
-73 -9 -108 -5 -41 -3 -87 5 -131 16 -88 7 -109 -85 -177 -38 -28 -82 -64 -97
-79 -25 -25 -30 -26 -62 -15 -19 6 -51 22 -71 36 -129 87 -319 147 -539 169
-77 7 -93 19 -35 25 39 5 144 1 312 -12 32 -2 42 1 45 14 7 37 -107 81 -268
102 -62 8 -115 18 -118 21 -14 14 214 2 248 -13 19 -9 60 -21 90 -28 45 -10
58 -10 69 1 22 21 6 43 -41 56 -24 6 -59 19 -78 29 -19 9 -51 20 -71 24 -20 3
-46 17 -59 31 -13 14 -35 25 -48 25 -21 0 -23 2 -11 16 11 14 27 16 94 10 93
-7 186 -38 270 -89 38 -23 63 -33 69 -27 6 6 -10 46 -43 110 -29 55 -49 105
-46 110 8 13 82 -51 107 -91z m4361 24 c38 -44 44 -148 15 -273 -21 -93 -69
-228 -93 -260 -35 -47 -42 -18 -10 44 14 27 25 59 25 70 0 12 9 53 20 91 25
91 25 127 0 143 -17 10 -20 23 -20 89 0 57 4 81 17 95 20 22 26 22 46 1z m475
-1120 c6 -155 -13 -303 -45 -351 -68 -100 -83 -108 -53 -29 11 28 32 99 46
157 14 58 30 122 36 143 9 30 9 43 0 58 -7 10 -12 40 -12 66 -1 27 -7 66 -15
88 -8 22 -14 51 -14 65 1 20 6 13 27 -30 22 -46 26 -73 30 -167z m-2530 95
c-24 -35 -49 -76 -56 -92 -7 -16 -15 -26 -19 -23 -15 16 80 177 105 177 8 0
-3 -24 -30 -62z m2425 -30 c-3 -18 -10 -37 -16 -43 -7 -7 -8 -4 -3 8 3 10 6
30 6 43 0 13 4 24 10 24 5 0 7 -14 3 -32z m758 -131 c50 -33 50 -69 2 -135
-28 -38 -56 -61 -103 -86 -98 -51 -155 -69 -187 -61 -26 6 -26 7 -8 17 70 36
154 92 159 104 21 56 -161 11 -316 -78 -85 -49 -138 -64 -138 -39 0 16 114 93
205 139 17 9 32 18 35 22 9 12 180 110 193 110 7 1 23 7 37 15 37 21 82 18
121 -8z m-2937 -95 c9 -67 67 -183 115 -230 50 -48 164 -125 224 -151 66 -28
233 -71 278 -71 31 0 47 -8 80 -37 22 -20 50 -55 61 -77 11 -23 88 -108 174
-194 85 -84 154 -158 154 -165 0 -17 -149 -40 -285 -45 -55 -2 -113 -4 -130
-5 -98 -4 -295 80 -295 126 0 45 -48 70 -91 46 -15 -8 -25 -7 -38 3 -10 7 -38
28 -63 46 -45 33 -45 34 -56 120 -12 90 -9 159 10 249 9 41 8 56 -2 68 -19 22
-27 19 -36 -17 -7 -30 -8 -28 -12 25 -1 31 -7 57 -13 57 -19 0 -28 -50 -28
-155 0 -103 -3 -126 -18 -111 -11 10 -11 175 -1 226 5 25 12 57 15 72 3 15 2
36 -2 45 -6 17 -7 17 -17 -2 -16 -27 -37 -176 -38 -257 0 -67 15 -114 59 -183
26 -40 26 -52 0 -29 -41 36 -79 133 -79 202 0 63 23 240 39 300 10 35 -3 44
-24 15 -10 -13 -12 -5 -11 48 1 56 -1 64 -16 61 -27 -4 -23 42 5 61 12 8 25
13 28 11 4 -2 9 -25 13 -52z m-77 -54 c-3 -8 -6 -5 -6 6 -1 11 2 17 5 13 3 -3
4 -12 1 -19z m3523 7 c7 -9 11 -17 9 -19 -2 -2 -40 -18 -84 -36 -44 -17 -121
-54 -171 -81 -95 -51 -131 -60 -141 -34 -6 18 23 55 43 55 7 0 35 12 61 26 84
46 217 102 244 103 15 1 32 -6 39 -14z m-760 -52 c-1 -14 -116 -63 -146 -63
-29 1 -29 1 11 22 71 38 135 57 135 41z m270 -58 c63 -32 65 -105 4 -151 -57
-44 -222 -81 -239 -55 -3 6 7 16 21 23 40 19 71 65 56 80 -23 23 -11 43 51 80
72 43 69 43 107 23z m-2370 -65 c0 -5 -7 -10 -16 -10 -8 0 -12 5 -9 10 3 6 10
10 16 10 5 0 9 -4 9 -10z m1863 -7 c4 -3 -3 -13 -14 -21 -18 -12 -23 -12 -29
-1 -5 7 -6 17 -4 21 6 10 38 11 47 1z m263 -8 c28 -11 35 -19 32 -37 -3 -21
-11 -24 -77 -32 -61 -8 -78 -6 -101 7 -16 10 -42 17 -60 17 -45 0 -33 23 16
33 32 6 116 21 147 26 4 0 24 -6 43 -14z m-2311 -26 c5 -6 3 -9 -7 -9 -24 0
-48 11 -48 22 0 10 39 1 55 -13z m624 -5 c-17 -21 -31 -17 -17 5 7 11 16 17
20 14 5 -2 4 -11 -3 -19z m-409 -86 c116 1 145 1 149 -4 11 -11 -15 -15 -115
-17 -118 -2 -187 9 -163 24 8 5 28 7 44 3 17 -3 55 -6 85 -6z m2075 -8 c8 -13
-55 -13 -75 0 -11 7 -4 10 27 10 23 0 45 -4 48 -10z m-1865 -105 c-9 -22 -21
-40 -26 -39 -14 2 -46 62 -39 74 3 5 15 10 25 10 11 0 25 10 32 23 l12 22 6
-25 c4 -15 0 -42 -10 -65z m1845 57 c116 -25 159 -32 206 -32 28 0 58 -4 68
-10 55 -29 340 -50 426 -31 22 5 85 11 140 13 81 2 100 0 100 -11 0 -21 -52
-46 -115 -56 -79 -13 -427 -11 -475 2 -22 6 -71 23 -110 37 -38 14 -83 26
-100 26 -34 1 -187 34 -204 44 -15 10 -14 39 2 33 6 -2 35 -9 62 -15z m14
-3516 c15 -18 73 -45 236 -111 198 -81 338 -112 600 -135 135 -12 372 -14 399
-4 16 6 17 -1 10 -97 -4 -68 -11 -109 -21 -119 -12 -13 -51 -15 -251 -12 -364
4 -600 42 -872 137 -118 42 -155 48 -155 25 0 -10 27 -24 80 -41 44 -15 112
-39 150 -54 175 -67 581 -119 868 -112 l177 4 0 -41 c0 -58 -27 -223 -44 -271
-11 -31 -21 -41 -43 -46 -15 -3 -38 -12 -50 -19 -19 -12 -26 -11 -57 5 -25 14
-38 16 -48 8 -7 -6 -47 -9 -91 -8 -62 2 -84 7 -107 23 -23 18 -37 21 -73 16
-48 -7 -98 12 -116 43 -8 15 -14 16 -43 5 -50 -18 -64 -15 -102 19 -33 29 -37
30 -70 18 -32 -12 -37 -10 -70 14 -27 21 -46 27 -84 27 -46 0 -51 2 -62 30 -9
23 -21 31 -49 36 -20 3 -53 17 -74 30 -21 14 -58 28 -82 33 -54 10 -75 26 -75
56 0 30 -17 36 -59 19 -41 -17 -75 -10 -66 14 15 39 8 42 -58 26 -30 -7 -87
12 -87 30 0 6 14 23 31 37 39 32 32 54 -15 44 -70 -14 -103 -16 -136 -7 l-35
9 69 21 c37 12 77 22 87 22 29 0 100 30 138 58 l34 25 41 -21 c23 -12 49 -22
59 -22 26 0 20 27 -8 34 -26 7 -65 39 -65 55 0 4 16 28 35 52 19 24 35 49 35
56 0 7 12 33 27 58 22 35 34 45 54 45 15 0 32 -6 38 -14z m-1069 -180 c0 -7
-10 -29 -23 -48 -35 -51 -38 -73 -13 -96 11 -11 31 -23 43 -26 23 -7 157 -151
209 -223 17 -24 41 -51 53 -59 11 -8 21 -19 21 -25 0 -5 18 -38 40 -73 41 -65
50 -109 28 -139 -23 -29 -73 6 -135 95 -35 49 -64 80 -79 84 -38 10 -260 254
-273 300 -16 59 -14 71 19 96 22 16 30 30 30 52 0 23 8 37 33 54 37 25 47 27
47 8z m630 -262 c0 -21 59 -73 95 -82 17 -5 30 -12 30 -18 0 -5 -57 -64 -127
-131 -115 -111 -158 -142 -158 -113 0 6 -6 10 -13 10 -20 0 -60 47 -110 130
-25 41 -57 86 -71 99 -14 14 -26 28 -26 33 0 5 41 6 96 2 104 -7 167 5 194 38
32 39 90 60 90 32z m1345 -554 c3 -5 13 -10 22 -10 9 0 30 -17 48 -37 l32 -37
17 32 c10 20 24 32 36 32 18 0 20 -7 20 -75 0 -88 -13 -114 -74 -150 -37 -22
-54 -25 -158 -26 -64 0 -122 2 -127 6 -21 12 -11 47 34 116 25 38 45 73 45 77
0 4 11 24 25 45 25 37 66 50 80 27z m-652 -87 c46 -69 144 -163 193 -184 35
-16 75 -22 152 -26 58 -2 113 -8 121 -12 9 -4 77 -5 151 -1 132 6 155 11 217
50 19 12 24 12 41 -4 29 -26 34 -65 10 -85 -11 -9 -30 -26 -42 -37 -19 -20
-36 -22 -226 -30 -285 -11 -405 -7 -450 16 -42 22 -71 52 -95 100 -10 19 -28
49 -41 65 -49 65 -92 185 -65 185 4 0 20 -17 34 -37z m957 -283 c0 -5 -5 -10
-11 -10 -5 0 -7 5 -4 10 3 6 8 10 11 10 2 0 4 -4 4 -10z"/>
<path d="M8645 7645 c-52 -18 -65 -38 -65 -96 0 -40 5 -53 34 -83 18 -20 37
-36 42 -36 5 0 27 11 49 23 35 20 41 29 49 70 10 56 3 90 -24 117 -23 23 -32
24 -85 5z"/>
<path d="M8105 7581 c-55 -23 -78 -92 -44 -135 29 -37 83 -60 108 -46 23 12
61 71 61 94 0 19 -27 65 -49 84 -17 14 -46 15 -76 3z"/>
<path d="M9155 7473 c-25 -5 -55 -55 -55 -92 0 -16 10 -41 22 -56 18 -23 27
-26 59 -22 91 12 132 95 76 155 -20 21 -49 26 -102 15z"/>
<path d="M7751 4931 c-11 -7 -11 -15 -1 -45 12 -37 40 -50 40 -18 -1 34 -24
72 -39 63z"/>
<path d="M12715 7291 c-17 -15 -236 -101 -258 -101 -50 0 -286 -142 -287 -172
0 -25 27 -23 102 6 89 34 418 126 451 126 33 0 67 16 67 31 0 14 -99 3 -180
-21 -61 -19 -165 -46 -219 -58 -81 -18 81 61 286 138 92 35 124 60 76 60 -16
0 -33 -4 -38 -9z"/>
<path d="M1490 7111 c-8 -5 -35 -12 -60 -16 -25 -4 -63 -19 -85 -34 -22 -16
-45 -26 -52 -24 -35 13 -181 -109 -221 -185 -17 -33 -42 -63 -55 -69 -14 -7
-39 -29 -56 -50 -17 -21 -46 -57 -65 -80 -158 -196 -253 -572 -201 -798 9 -36
13 -70 10 -75 -6 -10 39 -120 71 -170 36 -57 84 -97 169 -137 l80 -38 148 0
148 0 -43 -38 c-41 -36 -68 -56 -148 -111 -19 -13 -67 -57 -106 -98 -109 -112
-122 -189 -38 -224 32 -13 38 -13 60 1 13 8 32 32 43 53 11 20 61 78 111 127
51 50 114 122 141 162 41 60 55 74 88 83 21 5 44 17 51 25 20 24 35 18 75 -27
36 -39 37 -42 19 -55 -10 -7 -35 -18 -54 -23 -48 -13 -81 -49 -79 -86 2 -16
-5 -43 -14 -61 -9 -18 -17 -38 -17 -45 0 -7 -10 -29 -23 -48 -26 -38 -52 -154
-61 -265 -9 -112 -96 -415 -120 -415 -5 0 -35 25 -66 54 -60 57 -93 72 -135
62 -29 -7 -35 -50 -9 -60 26 -10 4 -28 -27 -22 -50 10 -77 -57 -43 -109 9 -13
13 -29 10 -34 -4 -5 -49 -24 -101 -40 -84 -28 -107 -31 -215 -31 -107 0 -125
-3 -151 -21 -16 -11 -29 -28 -29 -37 0 -25 48 -92 72 -101 21 -7 196 19 252
39 17 6 64 18 104 26 40 8 93 24 119 35 25 11 49 18 53 17 3 -2 -44 -73 -106
-158 -62 -85 -122 -172 -134 -193 -11 -20 -38 -61 -60 -90 -22 -28 -48 -72
-57 -97 -9 -25 -24 -54 -34 -65 -19 -23 -63 -107 -74 -145 -4 -14 -16 -36 -25
-50 -10 -14 -21 -48 -25 -75 -4 -28 -18 -71 -31 -97 -13 -26 -30 -71 -38 -100
-8 -29 -22 -80 -31 -113 -21 -72 -28 -140 -28 -300 0 -111 2 -125 26 -170 14
-28 32 -66 40 -85 8 -19 30 -55 48 -79 35 -45 114 -152 170 -230 l31 -43 -4
-142 c-5 -153 -12 -176 -82 -276 -18 -25 -37 -56 -44 -70 -24 -51 -124 -184
-150 -200 -15 -9 -61 -53 -102 -97 -41 -44 -106 -101 -145 -127 -38 -25 -88
-61 -109 -80 -34 -30 -38 -36 -27 -50 8 -9 19 -16 25 -16 16 0 56 -43 56 -60
0 -7 -27 -66 -59 -131 -72 -142 -82 -194 -53 -255 12 -24 34 -50 50 -58 21
-11 41 -40 75 -111 26 -53 47 -103 47 -110 0 -7 7 -18 15 -25 27 -23 16 -27
-65 -26 -88 1 -116 -12 -88 -40 14 -15 82 -17 619 -20 332 -3 615 -4 629 -4
271 7 901 7 950 0 36 -5 94 -10 130 -10 175 1 232 -1 455 -11 132 -7 373 -13
535 -14 260 -2 305 -5 379 -23 48 -12 91 -18 100 -13 9 4 84 6 166 3 270 -7
997 -7 1130 0 72 4 319 9 550 11 272 3 443 8 484 16 74 14 248 17 335 6 50 -7
61 -5 72 10 17 23 8 43 -30 62 -28 15 -110 16 -816 16 -545 -1 -794 -4 -813
-12 -25 -10 -89 -12 -197 -8 -72 2 -198 -6 -275 -19 -58 -10 -91 -11 -120 -3
-42 10 -292 17 -820 21 -170 1 -366 6 -435 11 -122 8 -196 10 -900 21 -184 3
-443 11 -575 17 -232 10 -334 8 -517 -8 -48 -5 -115 -6 -150 -3 -35 3 -92 1
-128 -3 -36 -4 -101 -9 -145 -10 -71 -2 -86 1 -130 25 -72 39 -94 66 -172 208
l-68 125 1 113 c2 133 11 154 54 119 15 -12 35 -27 45 -32 16 -10 16 -14 0
-74 -11 -43 -14 -81 -10 -115 7 -54 61 -207 77 -217 5 -3 17 -21 26 -40 12
-24 25 -35 45 -37 39 -5 40 32 4 83 -49 68 -81 154 -91 249 -5 40 -3 47 9 42
8 -3 21 -9 29 -12 9 -3 31 9 53 29 37 35 38 37 38 104 0 81 12 105 68 139 23
15 62 45 87 69 25 23 79 69 120 101 96 75 274 247 409 395 160 177 182 206
209 278 13 36 30 82 37 101 43 114 52 405 20 600 -27 160 -26 335 1 466 24
117 66 246 113 353 51 114 82 193 118 301 19 58 41 119 49 135 7 17 16 42 19
58 3 15 9 27 13 27 5 0 19 -34 32 -75 13 -41 29 -76 35 -79 21 -8 57 18 77 54
34 63 11 157 -64 253 -30 37 -13 55 30 33 21 -11 51 -15 96 -13 54 2 73 8 108
33 52 36 78 78 61 95 -7 7 -52 15 -100 18 l-88 6 85 57 c47 32 109 77 139 102
l53 44 62 -14 c33 -8 75 -19 91 -24 69 -21 238 -42 350 -42 133 0 235 23 368
84 83 39 90 34 95 -66 4 -69 2 -75 -24 -103 -32 -34 -123 -74 -224 -99 -61
-15 -93 -29 -214 -99 -50 -29 -135 -46 -302 -60 l-81 -7 -78 -70 c-43 -38
-100 -83 -127 -100 -54 -34 -68 -53 -68 -97 0 -35 65 -111 95 -111 10 0 33 -5
51 -12 41 -15 75 5 103 61 24 47 135 149 171 158 14 3 34 11 46 18 47 30 143
48 221 42 91 -7 187 18 358 92 61 27 118 51 127 54 29 10 33 -38 15 -148 -26
-151 -24 -165 26 -221 53 -60 107 -142 107 -163 1 -9 9 -34 20 -56 11 -22 19
-51 20 -63 0 -13 8 -37 17 -53 15 -25 15 -33 4 -65 -11 -30 -11 -38 0 -45 21
-13 32 -6 51 32 17 33 17 37 -3 99 -51 160 -92 237 -175 332 -43 49 -51 93
-29 174 11 43 16 89 14 141 l-4 77 57 40 57 39 58 -13 c32 -7 75 -22 97 -32
35 -18 38 -22 32 -50 -10 -51 -95 -229 -125 -264 -16 -18 -32 -45 -35 -61 -8
-35 15 -113 44 -150 63 -82 171 -296 155 -311 -11 -11 -45 22 -45 43 0 14 -4
25 -9 25 -16 0 -56 -55 -70 -97 -23 -71 4 -99 39 -40 l20 32 0 -30 c0 -16 -7
-43 -15 -59 -8 -15 -15 -37 -15 -48 0 -16 5 -19 23 -14 16 4 26 0 34 -14 21
-32 53 -13 81 48 20 44 23 64 19 106 -6 59 -93 250 -162 357 -24 38 -47 80
-51 93 -6 27 14 81 56 147 17 25 30 55 30 66 0 11 6 26 14 32 8 6 24 38 36 71
17 46 27 60 43 60 19 0 74 -29 250 -134 45 -26 107 -61 137 -77 30 -16 62 -33
70 -38 8 -4 35 -17 60 -28 25 -11 61 -28 80 -36 19 -9 54 -20 78 -23 23 -4 45
-11 48 -15 3 -5 29 -9 58 -9 56 0 245 -26 254 -35 5 -5 -7 -34 -28 -65 -5 -8
-28 -46 -51 -85 -22 -38 -61 -90 -85 -115 -23 -25 -62 -70 -86 -101 -24 -31
-73 -94 -110 -140 -84 -103 -98 -140 -71 -178 12 -15 32 -27 49 -29 16 -2 33
-10 37 -18 14 -25 100 3 157 52 8 7 34 29 57 49 24 21 55 62 70 93 15 32 35
63 45 70 10 7 18 19 19 25 1 15 66 112 144 212 33 42 65 87 72 98 18 31 113
127 126 127 6 0 34 9 62 19 62 23 151 45 275 66 130 22 219 65 306 147 31 29
36 30 172 39 117 7 151 13 209 36 58 24 82 28 158 27 75 0 106 -6 185 -34 52
-18 106 -41 120 -50 14 -9 39 -20 55 -24 17 -4 38 -15 48 -24 16 -14 19 -14
34 1 16 15 15 18 -6 41 -20 22 -21 25 -6 40 9 9 25 16 36 16 13 0 19 7 19 23
1 21 1 22 15 3 8 -11 15 -27 15 -37 0 -9 9 -27 19 -40 l20 -24 20 20 c18 18
19 25 11 57 -6 20 -30 60 -54 89 -38 46 -53 55 -116 76 -49 16 -77 20 -83 14
-12 -12 9 -41 29 -41 8 0 32 -12 54 -26 41 -27 42 -43 6 -73 -8 -7 -12 -19 -9
-27 3 -8 4 -14 2 -14 -2 0 -18 -4 -36 -9 -24 -7 -37 -5 -55 7 -39 28 -178 72
-279 88 l-97 16 -98 -33 c-90 -29 -113 -32 -254 -37 l-155 -4 -50 -38 c-85
-64 -286 -153 -430 -189 -99 -25 -189 -56 -214 -73 -23 -16 -141 -157 -141
-168 0 -4 -35 -53 -77 -108 -43 -55 -105 -140 -138 -187 -86 -125 -76 -119
-142 -89 -32 13 -58 26 -59 27 -1 1 20 29 48 62 69 83 153 195 168 225 26 50
132 205 146 213 8 5 12 16 9 26 -3 9 2 26 10 37 17 23 20 64 3 64 -6 0 -28
-18 -48 -40 -43 -46 -54 -48 -160 -20 -41 11 -91 23 -110 26 -71 10 -177 37
-255 66 -75 27 -294 151 -395 223 -73 53 -150 92 -225 115 -38 11 -80 28 -93
36 l-23 15 30 35 c43 49 59 83 67 145 9 76 113 282 114 226 0 -21 -18 -58 -36
-72 -7 -5 -17 -27 -23 -48 -8 -30 -7 -39 4 -43 23 -9 31 1 83 109 48 96 102
169 102 136 0 -8 -14 -65 -30 -127 -31 -113 -31 -132 -5 -132 14 0 25 31 40
110 9 44 66 170 77 170 15 0 21 -31 9 -43 -6 -6 -11 -21 -11 -34 0 -12 -9 -44
-19 -70 -26 -65 -31 -128 -11 -128 17 0 44 51 64 121 28 96 43 129 63 129 25
0 19 -53 -14 -125 -15 -30 -25 -59 -24 -64 1 -5 -5 -27 -14 -49 -14 -35 -14
-42 -2 -55 19 -18 21 -14 72 123 41 112 49 125 76 125 20 0 24 -10 10 -26 -16
-16 -74 -232 -67 -249 12 -32 31 -8 58 76 36 110 63 158 91 159 10 0 9 -34 -2
-62 -43 -108 -56 -135 -73 -151 -22 -22 -21 -45 4 -61 22 -13 46 8 53 46 7 38
70 172 89 187 8 7 23 10 32 7 14 -5 13 -12 -10 -50 -14 -25 -26 -54 -26 -64 0
-11 -3 -22 -8 -24 -9 -4 -53 -125 -55 -153 -1 -11 5 -21 14 -23 12 -2 22 14
39 60 50 138 117 248 134 220 8 -15 -15 -134 -43 -224 -30 -90 -29 -117 1
-105 8 3 34 64 58 136 24 72 48 131 53 131 5 0 6 -12 1 -27 -4 -16 -9 -48 -10
-73 -7 -114 -12 -158 -24 -200 -11 -41 -10 -45 10 -62 13 -10 20 -21 17 -24
-3 -3 -47 -16 -98 -30 -51 -13 -94 -26 -97 -28 -2 -3 -2 -12 2 -21 4 -12 14
-15 43 -10 l38 6 -27 -25 c-16 -14 -28 -28 -28 -31 0 -13 56 -3 113 20 34 13
96 35 137 49 41 13 90 30 107 37 24 10 36 10 44 2 8 -8 -5 -18 -46 -37 -31
-14 -74 -30 -95 -36 -95 -26 -186 -80 -133 -80 20 0 242 76 281 96 31 16 68
18 76 5 16 -25 124 -73 194 -86 98 -19 152 -19 244 0 139 29 237 91 323 204
l37 48 48 -13 c36 -9 147 -12 402 -12 194 1 391 -2 436 -6 78 -8 84 -7 80 10
-3 20 -39 31 -133 40 -72 7 -342 5 -465 -5 -58 -4 -143 -4 -190 0 -47 4 -100
8 -117 8 -25 1 -33 6 -33 19 0 10 4 22 8 28 5 5 19 37 32 70 19 50 29 63 55
73 17 6 38 11 47 11 9 0 85 20 171 45 85 24 178 47 206 51 53 7 82 27 64 45
-6 6 -21 5 -42 -2 -22 -8 -36 -8 -43 -1 -6 6 1 13 22 20 17 7 29 16 25 22 -9
15 -53 12 -83 -5 -15 -8 -65 -26 -112 -40 -46 -14 -89 -30 -95 -34 -11 -9
-133 -51 -148 -51 -24 0 17 26 129 81 68 34 124 67 124 74 0 21 -31 27 -56 11
-61 -40 -195 -107 -204 -101 -5 3 -10 22 -10 41 0 42 -23 89 -50 104 -17 9
-26 5 -55 -25 -35 -35 -55 -44 -55 -26 0 6 5 13 10 16 6 3 10 26 10 51 l0 45
-31 -18 c-30 -17 -31 -17 -45 1 -8 11 -14 26 -14 34 0 25 -44 8 -59 -23 -7
-16 -20 -43 -29 -60 -8 -16 -17 -69 -21 -118 -5 -71 -3 -93 10 -119 l17 -32
32 34 c17 18 38 47 46 62 20 39 40 30 36 -16 -2 -20 1 -36 6 -36 5 0 27 13 48
28 22 16 44 27 49 25 6 -2 10 11 10 27 0 22 -5 30 -17 30 -10 0 -18 4 -18 8 0
14 23 32 42 32 15 0 18 -9 18 -59 l0 -59 -37 -13 c-21 -6 -49 -18 -63 -25 -54
-28 -150 -61 -156 -53 -10 17 -22 8 -59 -48 l-38 -57 -36 41 c-20 22 -55 53
-78 68 -39 25 -43 26 -65 11 -12 -9 -30 -16 -40 -16 -22 0 -140 -64 -161 -88
-10 -11 -13 -23 -8 -31 7 -11 33 -1 120 44 131 68 132 68 207 -24 27 -33 57
-61 66 -61 12 0 28 21 48 59 34 68 42 76 69 62 14 -8 30 -7 58 3 22 8 62 16
89 17 47 4 49 3 46 -21 -11 -84 -110 -222 -208 -289 -71 -49 -117 -67 -216
-82 -128 -20 -252 6 -327 68 l-24 20 47 23 47 22 23 -21 c20 -19 32 -21 110
-18 53 2 90 8 95 15 4 7 34 17 67 22 213 38 345 111 295 163 -11 11 -117 -37
-124 -57 -4 -9 -18 -16 -34 -16 -15 0 -48 -10 -73 -22 -51 -24 -203 -35 -280
-20 l-45 8 43 22 c42 22 51 35 32 47 -5 3 -44 -3 -87 -14 -231 -58 -214 -61
-253 46 -40 112 -49 214 -34 372 13 125 40 211 68 211 8 0 40 -29 71 -65 64
-72 104 -101 153 -108 22 -4 52 -23 87 -56 58 -55 95 -66 95 -28 -1 20 -44
139 -83 229 -16 36 -9 60 11 35 24 -29 83 -156 94 -202 6 -27 15 -54 20 -59
12 -14 39 15 33 35 -3 10 3 35 13 56 19 38 35 100 47 180 6 36 34 82 36 57 0
-5 0 -57 -1 -116 -1 -70 3 -108 9 -108 6 0 14 -1 17 -2 13 -5 35 88 38 157 4
73 27 137 61 165 15 13 20 11 40 -12 13 -15 35 -64 50 -110 32 -99 49 -128 75
-128 27 0 25 17 -9 108 -16 42 -32 88 -35 102 -6 31 -68 100 -90 100 -8 0 -38
-20 -66 -45 -28 -25 -60 -47 -73 -49 -12 -3 -66 -12 -121 -21 -54 -8 -119 -24
-144 -35 -24 -11 -50 -20 -57 -20 -7 0 -48 -16 -90 -37 -69 -32 -78 -35 -87
-20 -5 9 -29 28 -54 43 -57 33 -85 27 -108 -23 -18 -43 -46 -178 -46 -228 0
-41 -13 -51 -77 -60 -61 -8 -116 11 -298 100 -134 66 -290 119 -409 140 -77
13 -94 20 -130 52 -22 20 -51 51 -63 69 -13 18 -32 36 -44 39 -22 7 -139 100
-176 142 -13 14 -23 37 -23 54 0 17 -4 38 -9 48 -7 12 -5 32 5 62 18 52 13 97
-20 177 -14 33 -28 99 -35 157 -7 55 -16 109 -20 120 -13 30 -51 244 -51 285
0 19 -9 71 -21 115 -11 44 -24 98 -30 120 -5 22 -24 68 -42 102 -18 34 -50 97
-73 140 -73 142 -97 172 -224 279 -97 83 -129 104 -149 102 -20 -2 -28 -11
-35 -38 -7 -31 -3 -45 27 -107 20 -39 76 -124 125 -189 147 -197 195 -343 212
-649 11 -182 14 -202 55 -310 40 -104 40 -110 12 -131 -13 -11 -36 -40 -52
-64 -36 -60 -64 -88 -166 -176 -103 -88 -149 -108 -224 -102 -64 5 -115 38
-196 123 -118 125 -190 158 -378 175 -62 5 -120 15 -128 21 -8 7 -13 25 -11
43 3 29 6 31 55 37 67 9 149 38 170 62 19 20 20 54 5 170 -10 86 -15 94 -52
99 -20 2 -26 9 -28 38 -2 19 2 60 9 90 7 30 12 79 10 109 -3 69 15 89 122 133
95 39 160 99 189 174 10 27 24 101 32 164 12 110 12 118 -8 173 -17 48 -35 71
-102 135 -92 86 -155 142 -161 142 -3 0 -18 9 -34 20 -72 52 -252 109 -407
130 -46 6 -116 22 -155 36 -72 24 -159 31 -187 15z m84 -73 c-10 -15 -60 -34
-159 -58 -49 -12 -124 -39 -164 -61 -41 -21 -77 -36 -80 -33 -4 4 2 11 13 18
10 6 32 22 48 35 39 32 198 100 261 112 28 5 53 11 55 14 9 8 32 -17 26 -27z
m197 -80 c43 -79 53 -277 20 -388 -29 -98 -47 -141 -62 -151 -19 -12 -89 -11
-89 1 0 6 11 43 25 82 17 48 27 104 31 167 5 86 3 105 -20 176 -34 106 -34
111 12 123 57 15 70 14 83 -10z m200 -4 c19 -5 33 -88 23 -131 -19 -75 -125
-265 -140 -250 -3 3 2 45 10 94 13 67 14 113 8 196 l-8 109 46 -7 c25 -3 52
-8 61 -11z m-315 -214 c9 -108 -16 -244 -56 -315 -34 -59 -57 -73 -45 -27 26
100 22 294 -8 348 -6 12 -29 53 -49 90 -22 39 -34 72 -29 77 5 5 33 14 62 21
l54 13 32 -66 c25 -49 34 -85 39 -141z m-264 123 c33 -38 78 -132 98 -207 18
-65 21 -99 18 -190 -4 -134 -13 -155 -41 -100 -45 87 -78 183 -92 262 -16 92
-20 252 -7 252 5 0 16 -8 24 -17z m822 -17 c33 -31 36 -38 36 -92 0 -126 -60
-258 -148 -330 -53 -43 -83 -53 -111 -35 -10 7 1 23 46 68 93 93 108 132 110
288 1 72 2 131 2 133 3 12 36 -4 65 -32z m-917 -77 c-13 -162 28 -310 113
-411 22 -25 40 -51 40 -57 0 -20 -23 -23 -63 -7 -50 19 -104 92 -114 152 -3
21 -9 44 -13 49 -9 11 -30 205 -30 276 0 52 18 79 52 79 20 0 21 -4 15 -81z
m-113 13 c3 -5 10 -60 16 -123 7 -63 20 -146 31 -185 10 -38 19 -80 19 -92 0
-12 14 -37 31 -57 18 -20 29 -38 27 -41 -14 -14 -63 13 -102 57 -96 107 -141
244 -120 369 5 27 15 41 42 57 41 25 49 27 56 15z m1170 -41 c40 -44 -30 -231
-86 -231 -23 0 -23 7 1 67 10 26 26 78 36 116 10 37 21 67 25 67 4 0 15 -9 24
-19z m-286 -29 c6 -37 -26 -124 -61 -172 -24 -32 -53 -55 -101 -78 -37 -19
-70 -31 -73 -28 -6 5 41 74 110 160 23 29 54 74 70 100 28 49 50 56 55 18z
m-1044 -135 c3 -82 7 -102 32 -147 16 -29 46 -67 68 -86 31 -27 36 -34 20 -34
-24 0 -57 21 -111 73 -57 55 -91 149 -72 204 13 41 48 97 56 90 2 -3 6 -48 7
-100z m1392 -1 c9 -36 -13 -127 -37 -152 -29 -31 -204 -108 -226 -100 -16 7
-16 8 4 20 65 34 194 162 218 216 21 46 32 50 41 16z m-156 -82 c0 -11 -53
-69 -79 -86 -45 -31 -44 -20 6 37 42 48 73 69 73 49z m-1365 -54 c-5 -15 -2
-20 12 -20 22 -1 63 -33 63 -50 0 -14 -26 -9 -83 15 -38 16 -48 40 -25 63 20
20 40 15 33 -8z m1565 -28 c0 -4 -5 -13 -12 -20 -6 -6 -26 -38 -42 -69 -36
-66 -72 -91 -144 -100 -43 -5 -51 -3 -65 17 -20 29 -14 40 24 40 39 0 144 58
188 104 34 35 51 44 51 28z m-540 -62 c63 -18 65 -21 36 -83 -15 -30 -33 -60
-41 -67 -11 -9 -52 -3 -194 31 -192 47 -199 52 -117 83 105 40 245 56 316 36z
m-995 -15 c39 -8 89 -21 112 -29 66 -23 228 -56 278 -56 25 0 45 -4 45 -10 0
-6 -38 -10 -92 -11 -51 0 -124 -4 -163 -8 -100 -12 -302 19 -312 47 -9 21 24
82 44 82 10 0 50 -7 88 -15z m1147 -82 c72 -75 93 -123 90 -213 -1 -41 -6 -88
-11 -105 l-8 -30 -11 26 c-6 14 -42 54 -81 89 -85 75 -94 95 -57 127 30 25 46
23 46 -8 0 -25 25 -35 45 -19 22 18 18 57 -7 74 -31 22 -68 20 -95 -6 -13 -12
-26 -19 -29 -15 -7 6 55 127 65 127 4 0 27 -21 53 -47z m-299 -73 c59 -16 121
-30 137 -30 28 0 30 -3 30 -37 0 -32 9 -45 75 -112 78 -78 92 -111 56 -130
-14 -8 -22 -7 -32 5 -17 20 -93 15 -97 -7 -2 -11 13 -20 57 -32 65 -18 102
-12 128 21 11 14 12 6 7 -53 -4 -38 -12 -73 -18 -77 -14 -10 -85 -9 -111 1
-12 5 -20 17 -20 32 0 14 -7 25 -18 27 -21 4 -150 -95 -144 -112 7 -20 33 -17
71 9 37 25 38 25 96 10 71 -18 124 -20 170 -6 19 6 38 11 42 11 15 0 8 -41 -7
-47 -14 -5 -14 -7 -1 -22 8 -9 20 -37 27 -63 10 -37 10 -49 0 -62 -21 -25
-153 -49 -235 -42 -39 3 -84 7 -100 9 -18 1 -32 -4 -40 -16 -15 -24 6 -37 62
-37 l42 0 39 -82 c22 -46 53 -96 70 -112 l31 -30 24 23 c39 37 87 34 176 -10
63 -30 97 -57 181 -141 104 -104 170 -148 222 -148 38 0 129 25 173 49 50 26
82 53 136 117 24 28 77 83 119 122 l77 72 -5 -43 c-4 -29 0 -54 11 -75 15 -28
15 -35 2 -67 -8 -19 -20 -35 -26 -35 -6 0 -14 -9 -18 -19 -4 -11 -21 -30 -39
-43 -18 -13 -80 -65 -138 -116 -58 -51 -115 -96 -127 -101 -35 -13 -118 8
-203 51 -65 33 -100 62 -185 147 -138 140 -174 164 -284 191 -98 24 -204 22
-258 -6 -15 -8 -40 -14 -56 -14 -17 0 -43 -7 -58 -15 -62 -32 -134 -10 -134
42 0 31 27 30 52 -2 28 -36 48 -32 48 8 0 24 -8 41 -31 63 -26 24 -113 130
-166 203 -10 14 -9 27 7 69 11 29 28 116 37 192 l17 140 -23 72 c-35 109 -58
150 -80 143 -35 -11 -35 81 0 146 11 21 83 11 232 -31z m-878 -5 c56 -4 55 -4
55 -15 0 -5 -15 -10 -33 -10 -53 0 -147 22 -141 32 4 6 22 7 43 2 20 -4 54 -8
76 -9z m115 -15 c0 -5 -9 -10 -21 -10 -11 0 -17 5 -14 10 3 6 13 10 21 10 8 0
14 -4 14 -10z m37 -72 c7 -5 16 -7 21 -4 5 3 46 8 90 11 71 6 82 4 82 -10 0
-32 -46 -38 -250 -35 -87 1 -213 20 -227 33 -3 3 -2 11 2 17 9 15 263 3 282
-12z m-195 -63 c61 -14 303 -23 315 -11 3 3 14 1 24 -4 12 -7 20 -7 24 0 8 13
45 13 45 0 0 -16 -41 -32 -66 -26 -17 5 -24 2 -24 -9 0 -8 -8 -15 -17 -15 -10
0 -65 -15 -123 -34 -64 -20 -137 -36 -187 -40 -98 -8 -103 -3 -103 93 0 58 1
61 24 61 14 0 53 -7 88 -15z m276 -142 c-2 -11 -12 -18 -26 -17 -12 0 -22 -3
-22 -7 0 -4 -15 -10 -32 -14 -18 -3 -58 -14 -88 -24 -126 -42 -190 -50 -190
-25 0 20 69 49 83 35 7 -7 18 -6 36 3 14 7 53 19 86 26 33 7 65 17 70 21 9 7
41 14 73 18 8 0 12 -6 10 -16z m-78 -213 c0 -5 -2 -10 -4 -10 -3 0 -8 5 -11
10 -3 6 -1 10 4 10 6 0 11 -4 11 -10z m0 -44 c0 -16 -18 -31 -27 -22 -8 8 5
36 17 36 5 0 10 -6 10 -14z m-85 -6 c3 -5 1 -10 -4 -10 -6 0 -11 5 -11 10 0 6
2 10 4 10 3 0 8 -4 11 -10z m150 -110 c4 -6 10 -8 15 -5 5 3 17 1 27 -4 10 -5
27 -13 38 -18 14 -5 3 -9 -39 -11 -63 -3 -81 5 -70 31 7 19 20 22 29 7z m2295
-249 c0 -63 -20 -84 -53 -52 -13 11 -29 21 -35 21 -7 0 -12 5 -12 10 0 6 9 10
20 10 12 0 20 7 20 16 0 12 -7 15 -25 12 -39 -8 -38 7 0 25 35 17 43 31 25 42
-6 4 -7 11 -4 17 5 7 18 -1 36 -21 23 -25 28 -41 28 -80z m-1767 -1 c-1 -19
-5 -49 -8 -66 -9 -43 8 -72 58 -95 51 -23 85 -24 162 -4 82 22 97 13 55 -30
-46 -47 -172 -123 -178 -107 -2 7 -18 12 -36 12 -18 0 -54 3 -79 6 -40 6 -46
10 -49 33 -3 22 -7 26 -31 23 -22 -2 -30 2 -34 17 -4 17 -11 20 -32 14 -26 -6
-26 -6 -7 16 18 20 18 22 3 39 -16 17 -15 20 13 47 33 32 38 50 15 59 -8 3
-15 10 -15 16 0 17 101 60 135 57 28 -2 30 -5 28 -37z m1697 -80 c0 -5 -18
-10 -41 -10 -24 0 -38 4 -34 10 3 6 22 10 41 10 19 0 34 -4 34 -10z m-1170
-50 c25 -7 71 -45 155 -128 228 -225 314 -282 491 -327 81 -20 201 -16 277 10
27 9 73 20 102 25 30 5 87 23 127 41 40 18 89 32 108 33 l35 1 -2 -85 c-3
-127 -3 -129 -32 -151 -75 -57 -197 -129 -229 -134 -21 -3 -59 -17 -86 -31
-27 -14 -72 -30 -100 -35 -28 -5 -71 -13 -96 -18 -24 -5 -103 -7 -175 -5 -107
4 -159 12 -300 45 -213 51 -217 52 -294 118 -36 30 -79 57 -100 62 -44 11
-173 13 -227 4 -84 -13 -87 -15 -74 -30 9 -11 34 -15 84 -15 39 0 88 -3 109
-6 43 -8 45 -17 21 -101 -9 -30 -13 -57 -11 -60 17 -16 57 54 57 101 0 25 26
43 33 23 4 -12 -23 -89 -49 -140 -17 -35 -18 -57 -1 -57 15 0 77 121 77 151 0
30 30 36 52 10 20 -26 24 -81 8 -112 -17 -31 -97 -100 -183 -158 l-81 -54 -85
28 c-47 15 -124 44 -171 65 -47 20 -119 49 -160 64 -118 44 -180 75 -180 90 0
8 9 35 19 60 32 72 82 289 105 446 21 144 21 145 46 142 14 -2 39 -11 55 -19
17 -9 47 -25 67 -35 33 -17 140 -39 190 -39 22 0 77 39 148 107 99 93 147 124
193 124 23 0 58 -5 77 -10z m1074 -172 c-4 -46 -12 -101 -18 -123 -11 -38 -14
-40 -71 -52 -71 -14 -238 -17 -233 -4 2 6 17 20 35 33 42 31 178 144 228 190
61 57 68 52 59 -44z m424 -152 c30 -22 60 -46 68 -52 24 -19 16 -29 -36 -47
-30 -11 -72 -39 -109 -72 -66 -62 -67 -61 -76 33 -3 32 -8 76 -10 99 -4 40 -2
44 32 68 45 30 60 27 131 -29z m1582 -42 c12 -31 12 -34 2 -34 -8 0 -32 43
-32 55 0 16 22 1 30 -21z m-220 -55 c0 -5 -4 -9 -10 -9 -5 0 -10 7 -10 16 0 8
5 12 10 9 6 -3 10 -10 10 -16z m68 -89 c33 -44 27 -60 -8 -20 -16 19 -29 38
-30 43 0 16 17 5 38 -23z m-1389 -7 c-6 -16 -18 -37 -28 -48 -10 -11 -30 -41
-45 -67 -15 -25 -32 -48 -39 -51 -7 -2 -18 -25 -25 -50 -15 -51 -9 -75 13 -57
8 7 19 9 25 5 21 -13 9 -68 -27 -126 -32 -52 -48 -67 -129 -114 -51 -30 -96
-60 -99 -65 -11 -18 -196 -106 -295 -141 -84 -29 -108 -33 -205 -34 -123 -2
-143 -5 -235 -45 -36 -15 -86 -35 -112 -45 -32 -11 -58 -30 -83 -61 -21 -25
-48 -52 -62 -61 -22 -15 -26 -15 -40 -1 -19 20 -92 12 -110 -11 -11 -14 -12
-13 -12 9 0 27 37 67 124 135 28 22 56 47 63 57 22 30 50 39 152 49 132 12
273 49 340 89 54 32 179 80 208 80 31 0 139 55 175 89 47 44 67 106 60 186 -6
79 2 107 30 103 18 -2 22 -9 19 -36 -3 -46 27 -43 72 10 39 46 62 45 28 -1
-12 -16 -24 -41 -28 -55 -9 -37 22 -35 44 4 9 16 20 30 24 30 4 0 16 17 27 38
10 20 29 46 41 57 12 11 41 47 63 80 22 33 45 63 51 67 21 14 25 8 15 -19z
m78 5 c-3 -8 -6 -5 -6 6 -1 11 2 17 5 13 3 -3 4 -12 1 -19z m1223 12 c0 -5 -5
-10 -11 -10 -5 0 -7 5 -4 10 3 6 8 10 11 10 2 0 4 -4 4 -10z m-1180 -44 c0 -3
-4 -8 -10 -11 -5 -3 -10 -1 -10 4 0 6 5 11 10 11 6 0 10 -2 10 -4z m1702 -61
c12 -27 -2 -55 -28 -55 -7 0 -14 -14 -16 -32 l-4 -33 -9 29 c-6 22 -4 38 8 59
10 16 17 35 17 43 0 23 19 16 32 -11z m-1846 -74 c-17 -32 -36 -41 -36 -17 0
7 7 19 15 26 8 7 15 20 15 28 0 12 3 13 11 5 8 -8 6 -19 -5 -42z m1924 34 c0
-8 -7 -15 -16 -15 -14 0 -14 3 -4 15 7 8 14 15 16 15 2 0 4 -7 4 -15z m-964
-67 c-4 -13 -12 -85 -18 -162 -12 -137 -12 -139 10 -156 12 -10 22 -23 22 -28
0 -15 -64 -52 -89 -52 -23 0 -22 -9 -6 178 3 31 16 95 30 141 13 46 22 87 19
92 -3 5 5 9 17 9 17 0 20 -4 15 -22z m1464 8 c-35 -19 -290 -85 -290 -75 0 12
239 87 280 88 35 0 35 0 10 -13z m-5020 -186 c0 -6 -10 -14 -22 -19 -50 -18
-95 -31 -114 -31 -11 0 -24 -4 -30 -8 -5 -5 -43 -19 -84 -31 -41 -13 -87 -27
-102 -33 -15 -5 -31 -8 -35 -5 -5 3 -36 2 -69 -2 -66 -10 -107 1 -64 17 14 5
57 10 95 11 39 1 88 6 110 12 63 17 212 69 243 85 31 16 72 19 72 4z m90 -30
c0 -5 -21 -33 -46 -62 -25 -29 -55 -64 -67 -78 -11 -14 -28 -37 -37 -52 -8
-14 -38 -59 -66 -100 -69 -100 -67 -96 -43 -108 28 -16 51 6 89 84 18 36 55
86 90 121 40 39 64 71 70 96 11 39 54 99 72 99 5 0 33 -11 62 -25 29 -14 73
-31 97 -39 24 -8 67 -23 94 -35 28 -11 83 -32 123 -46 69 -26 83 -37 63 -50
-5 -3 -17 -29 -27 -58 -9 -28 -27 -68 -40 -87 -36 -55 -40 -85 -13 -104 l23
-16 -33 -72 c-19 -40 -37 -91 -40 -113 -5 -35 -64 -137 -143 -248 -13 -19 -18
-37 -13 -54 5 -20 -3 -35 -40 -76 -50 -58 -71 -80 -98 -105 -10 -9 -32 -45
-48 -79 -16 -34 -50 -86 -74 -114 -25 -29 -45 -58 -45 -63 0 -6 23 -32 50 -57
42 -38 50 -52 50 -81 0 -21 9 -46 21 -62 l21 -27 -21 -49 c-18 -42 -19 -53 -9
-70 7 -11 18 -20 25 -20 16 0 46 45 62 95 8 22 27 55 43 74 20 23 28 40 24 54
-3 12 0 27 5 34 24 28 -47 -17 -81 -52 -35 -36 -50 -43 -50 -24 0 6 9 13 19
16 12 3 21 17 26 40 5 29 13 38 46 52 21 9 39 22 39 29 0 6 2 12 4 12 2 0 11
3 20 6 13 5 16 -2 16 -34 0 -23 -4 -44 -10 -47 -15 -9 -12 -48 6 -73 8 -12 11
-22 5 -22 -33 0 -121 -134 -121 -184 0 -47 52 -41 64 8 8 33 56 116 67 116 29
0 17 -86 -18 -126 -30 -33 -46 -66 -36 -73 14 -9 33 -70 33 -105 0 -18 8 -48
18 -67 16 -31 16 -39 5 -68 -7 -17 -20 -34 -29 -38 -11 -4 -14 -13 -10 -29 5
-18 0 -27 -19 -40 -21 -14 -25 -22 -20 -46 6 -23 0 -37 -29 -72 -19 -24 -38
-55 -42 -70 -3 -14 -24 -53 -45 -87 -44 -68 -46 -74 -21 -84 18 -7 52 27 97
95 12 19 30 41 39 49 9 7 16 21 16 31 0 9 14 38 32 64 25 38 33 45 40 32 9
-16 -2 -43 -33 -81 -9 -11 -25 -45 -34 -75 -10 -30 -29 -66 -43 -80 -13 -14
-61 -64 -107 -112 -45 -49 -87 -88 -92 -88 -14 0 -63 -54 -63 -69 0 -21 -217
-211 -395 -346 -37 -27 -82 -69 -102 -93 -22 -27 -41 -41 -50 -38 -21 8 -204
150 -231 179 l-23 24 43 34 c151 118 265 248 396 449 67 102 77 125 93 200 10
47 21 117 24 157 7 67 5 76 -23 136 -36 77 -85 156 -159 255 -30 39 -72 111
-93 158 l-38 87 4 151 c5 149 24 275 51 326 7 14 13 31 13 38 0 8 11 41 24 75
13 34 34 96 47 137 12 41 26 80 30 85 4 6 26 57 50 115 37 91 89 183 176 312
13 18 40 60 62 93 118 177 203 281 221 270 6 -3 10 -10 10 -15z m546 -105 c32
-14 55 -28 52 -30 -6 -7 -108 32 -122 46 -18 16 11 10 70 -16z m280 -24 c-7
-11 -46 -21 -46 -12 0 13 13 21 32 21 11 0 17 -4 14 -9z m-233 -67 c26 -9 47
-19 47 -22 -1 -45 -84 -242 -102 -242 -16 0 -8 60 17 127 14 37 25 79 23 92
-4 31 -28 41 -28 11 0 -12 -5 -31 -12 -43 -7 -12 -13 -28 -14 -36 -2 -7 -8
-19 -15 -25 -9 -8 -10 -5 -6 14 3 14 11 51 17 83 6 31 15 57 19 57 4 0 28 -7
54 -16z m162 -157 c9 -24 15 -63 13 -88 l-3 -44 -17 32 c-10 17 -17 49 -16 70
0 21 -3 49 -7 62 -14 43 12 14 30 -32z m-231 -169 c-4 -13 -27 -66 -52 -118
-30 -62 -47 -88 -50 -76 -5 23 22 93 62 163 31 54 53 71 40 31z m-124 -294
c-10 -26 -12 -27 -22 -10 -7 13 -5 29 8 59 l19 42 3 -31 c2 -16 -2 -43 -8 -60z
m-44 -111 c-13 -32 -28 -69 -32 -83 -3 -14 -19 -59 -35 -101 -26 -68 -33 -77
-70 -93 -22 -10 -55 -33 -73 -50 -17 -18 -37 -31 -44 -28 -10 3 -10 7 -1 18 6
8 15 11 20 8 5 -3 9 0 9 7 0 20 69 98 111 126 22 15 39 34 39 44 0 23 -23 25
-40 3 -17 -19 -50 -37 -50 -27 0 4 30 44 68 89 69 83 84 103 104 143 24 46 19
1 -6 -56z m3000 -300 c-10 -10 -19 5 -10 18 6 11 8 11 12 0 2 -7 1 -15 -2 -18z
m-3119 -83 c-15 -52 -31 -58 -35 -14 -2 20 5 40 20 59 28 36 34 19 15 -45z
m-182 -45 c-47 -55 -65 -66 -65 -42 0 19 76 97 95 97 12 0 4 -15 -30 -55z
m122 9 c-3 -3 -12 -4 -19 -1 -8 3 -5 6 6 6 11 1 17 -2 13 -5z m-49 -51 c-13
-14 -24 -19 -26 -13 -5 15 28 51 40 44 5 -3 -1 -17 -14 -31z m-63 -53 c-19
-19 -31 -26 -34 -19 -2 7 6 21 19 31 36 29 46 21 15 -12z m-1025 -1657 c14 -9
50 -39 80 -68 30 -28 92 -79 137 -114 78 -61 81 -64 71 -91 -19 -55 -35 -58
-78 -11 -28 30 -40 52 -40 72 0 27 -3 29 -35 29 -20 0 -49 7 -66 15 -24 13
-28 19 -20 34 7 12 6 22 -1 29 -18 18 -33 15 -66 -13 -39 -32 -42 -32 -42 8 0
21 -8 41 -20 52 -54 49 17 101 80 58z m5 -216 c37 -32 38 -34 27 -67 -23 -66
-27 -166 -7 -213 62 -147 143 -294 183 -331 23 -22 42 -43 42 -47 0 -14 -119
5 -160 26 -57 29 -70 45 -104 125 -44 106 -76 162 -117 205 -22 23 -39 49 -39
59 0 11 13 47 29 80 16 34 35 82 42 106 11 42 44 90 59 90 4 0 24 -15 45 -33z"/>
<path d="M1755 6095 c-23 -22 -33 -64 -19 -77 3 -3 17 5 30 19 l25 25 29 -27
c55 -52 107 1 54 56 -36 38 -84 39 -119 4z"/>
<path d="M2232 4836 c-10 -23 -1 -46 20 -46 13 0 28 38 22 54 -9 23 -29 19
-42 -8z"/>
<path d="M2331 4813 c-7 -3 -24 -28 -37 -57 -21 -46 -22 -52 -8 -66 14 -13 17
-13 33 6 24 29 47 103 35 113 -5 5 -15 6 -23 4z"/>
<path d="M2506 4719 c-59 -44 -166 -146 -166 -158 0 -29 29 -14 117 59 102 85
118 103 108 120 -9 14 -15 12 -59 -21z"/>
<path d="M2361 4678 c-58 -48 -72 -70 -53 -82 10 -6 152 112 152 126 0 22 -44
3 -99 -44z"/>
<path d="M2497 4599 c-53 -50 -97 -95 -97 -100 0 -5 7 -9 16 -9 18 0 197 166
202 187 8 32 -32 6 -121 -78z"/>
<path d="M2635 4630 c-25 -10 -105 -113 -105 -135 0 -27 23 -16 83 38 72 65
85 123 22 97z"/>
<path d="M12626 7095 c-11 -8 -27 -15 -36 -15 -15 0 -44 -12 -262 -105 -114
-48 -116 -70 -5 -46 40 9 159 25 255 35 l44 4 -21 -22 c-27 -28 -26 -36 2 -36
37 0 65 26 60 54 -5 25 -7 25 -109 28 l-103 3 82 36 c45 20 95 40 111 45 16 5
31 15 34 22 5 17 -28 15 -52 -3z"/>
<path d="M8304 6863 c-12 -12 -15 -30 -11 -67 2 -28 -3 -84 -11 -125 l-16 -74
29 -25 c24 -20 36 -23 74 -19 43 5 52 11 142 106 52 56 100 101 106 101 23 0
-2 -45 -56 -99 -63 -63 -123 -173 -104 -192 18 -18 101 -23 158 -9 54 13 87 9
192 -25 17 -5 25 -3 30 10 8 23 -25 51 -76 65 -24 6 -43 20 -54 40 -16 26 -24
30 -61 30 -38 0 -47 -5 -70 -35 -15 -19 -32 -35 -37 -35 -16 0 52 120 78 137
32 21 99 10 157 -27 49 -31 71 -37 81 -20 3 6 17 7 31 4 30 -8 33 18 6 59 -23
34 -142 107 -188 114 -19 3 -37 9 -39 14 -6 8 56 29 86 29 9 0 19 6 22 14 7
17 -18 41 -32 32 -6 -4 -34 -9 -63 -12 -49 -4 -57 -9 -103 -58 -27 -29 -70
-79 -95 -111 -25 -33 -60 -68 -78 -78 -30 -18 -34 -18 -57 -3 -24 16 -25 19
-19 89 4 39 13 89 21 111 7 21 13 44 13 51 0 20 -39 25 -56 8z"/>
<path d="M11108 6699 c-22 -13 -24 -62 -2 -80 11 -9 20 -10 32 -3 30 19 37 41
22 68 -14 28 -25 31 -52 15z"/>
<path d="M11394 6699 c-9 -15 12 -33 30 -26 9 4 16 13 16 22 0 17 -35 21 -46
4z"/>
<path d="M8105 6420 c-3 -5 -1 -10 4 -10 6 0 11 5 11 10 0 6 -2 10 -4 10 -3 0
-8 -4 -11 -10z"/>
<path d="M8030 6343 c-62 -70 -73 -97 -74 -181 -1 -65 2 -76 20 -89 20 -13 26
-10 85 42 35 30 69 55 74 55 6 0 15 -15 20 -32 14 -45 54 -47 68 -3 21 64 52
78 108 49 33 -17 45 -14 36 10 -3 8 -31 23 -62 32 -46 15 -60 16 -76 6 -12 -8
-33 -10 -54 -6 -41 7 -62 -4 -132 -71 -26 -25 -49 -43 -51 -40 -3 3 1 23 8 46
11 32 11 45 2 60 -15 24 -5 45 51 106 27 30 37 47 30 54 -7 7 -24 -5 -53 -38z"/>
<path d="M10687 6312 c-21 -23 -22 -46 -3 -62 22 -18 57 -8 79 22 17 22 18 30
7 43 -17 21 -63 19 -83 -3z"/>
<path d="M8435 6300 c-4 -6 5 -24 19 -41 14 -17 26 -35 26 -40 0 -5 5 -9 10
-9 13 0 13 36 0 60 -14 26 -47 43 -55 30z"/>
<path d="M10258 6143 c-28 -7 -25 -89 2 -98 36 -12 76 38 66 81 -6 24 -25 29
-68 17z"/>
<path d="M5641 6021 c-17 -11 -6 -31 18 -31 10 0 26 -9 36 -20 37 -41 49 -11
14 34 -21 27 -43 32 -68 17z"/>
<path d="M8123 6000 c-24 -10 -60 -32 -80 -49 -21 -16 -57 -34 -81 -39 -57
-13 -106 -53 -142 -115 -64 -112 -13 -205 70 -129 17 15 61 72 99 127 102 150
170 192 249 151 30 -16 138 -127 222 -230 76 -93 90 -106 116 -106 30 0 68 47
84 104 12 42 11 48 -6 67 -24 27 -92 62 -104 54 -5 -3 -17 -2 -27 3 -10 5 -34
16 -53 25 -19 8 -64 40 -98 70 -104 91 -163 107 -249 67z"/>
<path d="M10001 5961 c-16 -29 -13 -71 4 -78 25 -9 56 27 53 61 -4 38 -40 49
-57 17z"/>
<path d="M5692 5878 c-7 -7 -12 -15 -12 -19 0 -14 215 -191 261 -214 85 -44
110 -23 37 30 -23 17 -88 72 -146 123 -57 50 -110 92 -116 92 -7 0 -17 -5 -24
-12z"/>
<path d="M9442 5824 c-17 -12 -22 -24 -20 -46 4 -45 36 -53 82 -21 30 19 37
30 34 51 -3 23 -8 27 -38 30 -20 2 -45 -4 -58 -14z"/>
<path d="M6063 5778 c-39 -13 -50 -41 -29 -73 21 -32 37 -31 85 3 47 31 52 58
15 72 -29 11 -28 11 -71 -2z"/>
<path d="M7434 5728 c-27 -29 -58 -73 -68 -98 -11 -25 -30 -69 -43 -99 -44
-102 -19 -93 34 12 19 40 46 85 59 100 13 16 24 33 24 39 0 5 14 27 30 48 17
21 30 41 30 44 0 16 -22 1 -66 -46z"/>
<path d="M6864 5684 c-17 -25 -17 -26 12 -49 37 -31 48 -31 73 1 38 48 24 74
-40 74 -20 0 -34 -8 -45 -26z"/>
<path d="M6406 5671 c-14 -16 -15 -23 -6 -41 15 -28 42 -22 54 13 8 22 7 30
-4 37 -21 13 -25 13 -44 -9z"/>
<path d="M7490 5664 c0 -8 5 -12 10 -9 6 3 10 10 10 16 0 5 -4 9 -10 9 -5 0
-10 -7 -10 -16z"/>
<path d="M9501 5546 c-19 -23 -18 -67 2 -80 15 -9 21 -7 33 9 32 43 -2 111
-35 71z"/>
<path d="M6716 5534 c-21 -21 -20 -30 6 -48 43 -30 88 -7 57 30 -23 28 -46 35
-63 18z"/>
<path d="M7006 5519 c-19 -15 -26 -29 -24 -47 4 -32 32 -51 55 -36 23 15 37
72 22 90 -15 19 -21 18 -53 -7z"/>
<path d="M7237 5364 c-13 -13 -7 -52 9 -58 22 -9 46 13 42 38 -3 21 -37 34
-51 20z"/>
<path d="M8762 5104 c-24 -17 -30 -62 -10 -82 7 -7 22 -12 35 -12 39 0 58 64
27 94 -19 20 -24 20 -52 0z"/>
<path d="M9211 4975 c-27 -73 -27 -79 7 -70 39 9 44 18 50 74 4 46 3 51 -16
51 -16 0 -25 -13 -41 -55z"/>
<path d="M9905 4929 c-13 -23 -14 -34 -5 -44 28 -33 120 -26 120 9 0 22 -51
66 -76 66 -16 0 -29 -10 -39 -31z"/>
<path d="M4806 4631 c-3 -5 25 -27 62 -49 38 -23 75 -48 82 -58 9 -10 15 -42
15 -80 2 -73 -13 -83 -55 -39 -27 29 -58 33 -67 9 -10 -27 10 -47 66 -62 55
-16 62 -31 19 -43 -34 -9 -77 -41 -78 -56 0 -16 52 -17 68 -1 16 16 28 2 13
-16 -34 -40 27 -35 73 6 10 9 31 22 46 28 34 14 30 40 -7 40 -18 0 -24 5 -21
18 3 13 18 19 67 24 36 4 71 14 79 22 13 13 12 18 -11 46 -28 33 -131 120
-142 120 -4 0 -26 14 -51 31 -47 32 -121 68 -141 69 -6 0 -14 -4 -17 -9z"/>
<path d="M10367 4559 c-13 -8 -57 -81 -57 -96 0 -2 23 -3 50 -3 45 0 52 3 62
26 10 21 9 31 -2 52 -18 30 -29 35 -53 21z"/>
<path d="M9856 4545 c-8 -9 -18 -32 -22 -52 -6 -30 -3 -39 17 -54 61 -47 134
5 99 72 -9 16 -58 49 -74 49 -2 0 -11 -7 -20 -15z"/>
<path d="M9330 4487 c-13 -7 -29 -25 -34 -40 -8 -22 -6 -31 14 -52 29 -30 40
-31 74 -4 31 25 34 61 6 89 -23 23 -27 24 -60 7z"/>
<path d="M8903 4179 c-58 -17 -63 -101 -7 -115 17 -5 37 -2 53 8 22 12 25 20
23 49 -4 37 -18 70 -30 68 -4 0 -21 -5 -39 -10z"/>
<path d="M10306 4081 c-28 -30 -25 -70 6 -94 27 -20 29 -20 63 -4 38 18 45 44
23 92 -14 31 -66 35 -92 6z"/>
<path d="M9330 3866 c0 -30 33 -72 48 -62 16 9 15 59 0 74 -21 21 -48 14 -48
-12z"/>
<path d="M9952 3868 c-44 -44 31 -102 83 -64 18 13 18 14 -6 44 -25 32 -57 40
-77 20z"/>
<path d="M6792 3811 c-9 -27 -8 -33 10 -46 33 -23 50 -3 33 38 -17 42 -31 44
-43 8z"/>
<path d="M8730 3570 c0 -10 9 -28 21 -38 11 -11 35 -44 54 -73 42 -68 64 -94
205 -238 63 -65 137 -131 165 -146 28 -16 59 -37 71 -47 11 -10 36 -27 55 -37
19 -10 52 -28 73 -40 22 -11 42 -24 45 -29 13 -18 110 -82 124 -82 9 0 21 -8
26 -19 6 -10 24 -24 40 -31 17 -6 36 -22 44 -34 8 -12 34 -35 58 -51 24 -17
57 -43 73 -58 36 -35 176 -127 194 -127 7 0 41 -22 75 -50 65 -53 97 -63 97
-31 0 12 -16 29 -44 45 -24 14 -46 32 -50 41 -3 8 -16 15 -29 15 -13 0 -34 12
-48 26 -13 15 -42 38 -63 51 -22 14 -67 49 -101 77 -184 152 -287 226 -381
276 -99 51 -327 229 -398 309 -35 40 -75 81 -89 90 -13 9 -55 57 -91 106 -37
50 -74 96 -83 103 -24 18 -43 15 -43 -8z"/>
<path d="M9457 3323 c-4 -3 -7 -26 -7 -49 0 -34 5 -47 27 -64 34 -27 57 -22
61 12 4 36 -33 108 -57 108 -10 0 -21 -3 -24 -7z"/>
<path d="M10360 3161 c-15 -28 -13 -46 9 -72 16 -20 21 -21 35 -10 9 7 16 28
16 45 0 52 -39 76 -60 37z"/>
<path d="M10782 3114 c-17 -12 -22 -24 -20 -47 4 -43 43 -49 77 -13 21 22 23
29 13 51 -13 29 -38 32 -70 9z"/>
<path d="M10078 2952 c-26 -30 -30 -43 -18 -57 19 -22 48 -18 66 10 17 26 13
39 -15 55 -14 7 -22 5 -33 -8z"/>
<path d="M10407 2762 c-20 -22 -22 -43 -5 -60 19 -19 55 -14 72 10 20 28 20
33 0 52 -21 21 -47 20 -67 -2z"/>
<path d="M10804 2098 c-18 -16 -34 -38 -34 -47 0 -22 39 -44 71 -39 31 4 67
71 50 92 -23 27 -51 25 -87 -6z"/>
<path d="M10560 2064 c-11 -12 -10 -18 3 -32 16 -15 18 -15 34 0 13 14 14 20
3 32 -7 9 -16 16 -20 16 -4 0 -13 -7 -20 -16z"/>
<path d="M10684 1985 c-7 -16 1 -29 74 -119 51 -64 60 -69 75 -44 12 19 -20
73 -84 140 -38 41 -56 47 -65 23z"/>
<path d="M10489 1791 c-23 -19 -24 -19 -5 -40 24 -26 62 -27 76 -1 8 15 6 23
-12 40 -27 25 -30 25 -59 1z"/>
<path d="M12745 10 c4 -6 11 -8 16 -5 14 9 11 15 -7 15 -8 0 -12 -5 -9 -10z"/>
</g>
</svg>
