<?xml version="1.0" standalone="no"?>
<!DOCTYPE svg PUBLIC "-//W3C//DTD SVG 20010904//EN"
 "http://www.w3.org/TR/2001/REC-SVG-20010904/DTD/svg10.dtd">
<svg version="1.0" xmlns="http://www.w3.org/2000/svg"
 width="1280.000000pt" height="734.000000pt" viewBox="0 0 1280.000000 734.000000"
 preserveAspectRatio="xMidYMid meet">
<metadata>
Created by potrace 1.15, written by Peter Selinger 2001-2017
</metadata>
<g transform="translate(0.000000,734.000000) scale(0.100000,-0.100000)"
fill="#000000" stroke="none">
<path d="M9267 7330 c-149 -8 -188 -14 -257 -34 -128 -39 -217 -72 -287 -107
-43 -21 -83 -39 -90 -39 -6 0 -51 -35 -100 -77 -48 -43 -106 -92 -128 -110
-22 -17 -60 -57 -85 -87 -25 -31 -60 -73 -78 -94 -17 -20 -35 -45 -38 -54 -3
-10 -9 -18 -13 -18 -13 0 -87 -131 -121 -215 -18 -44 -41 -98 -51 -120 -10
-22 -25 -67 -33 -100 -7 -33 -21 -76 -29 -95 -49 -114 -69 -571 -35 -765 9
-49 19 -117 23 -150 4 -33 13 -91 22 -128 18 -83 9 -127 -45 -215 -24 -39 -36
-73 -40 -108 -4 -51 -4 -52 34 -78 21 -14 44 -26 52 -26 7 0 38 -9 69 -20 32
-11 72 -20 91 -20 31 0 35 -4 62 -62 45 -100 106 -168 188 -211 38 -20 93 -60
122 -88 51 -49 53 -51 96 -44 49 7 52 2 28 -48 -15 -31 -15 -35 6 -70 40 -67
91 -82 191 -56 40 10 80 19 90 19 10 0 19 6 22 13 3 9 9 9 30 -2 40 -21 113
-7 160 30 21 17 41 28 45 25 3 -4 -4 -13 -16 -22 -25 -18 -29 -46 -7 -64 21
-17 19 -83 -2 -109 -20 -24 -120 -87 -198 -124 -54 -26 -163 -94 -272 -169
-52 -37 -85 -51 -141 -63 -40 -8 -82 -21 -95 -29 -32 -21 -230 -45 -404 -48
-145 -3 -153 -2 -183 20 -35 26 -60 23 -60 -7 0 -11 -5 -23 -12 -27 -13 -8
-110 -19 -312 -34 -76 -5 -155 -14 -175 -19 -20 -5 -82 -12 -138 -15 -98 -5
-163 -22 -178 -46 -4 -7 9 -29 35 -55 25 -26 41 -50 38 -61 -2 -10 -32 -35
-67 -55 -52 -30 -71 -36 -100 -32 -20 3 -41 12 -48 20 -22 28 -156 86 -208 90
-60 6 -181 -18 -241 -47 -60 -29 -119 -86 -148 -143 -24 -46 -24 -51 -10 -78
8 -16 38 -44 67 -63 74 -48 178 -56 358 -25 129 22 130 22 152 2 72 -64 135
-85 257 -84 86 1 99 4 142 30 25 16 56 32 69 36 12 4 54 29 93 55 119 80 150
93 200 86 25 -4 70 -16 100 -27 31 -10 71 -19 89 -19 18 0 58 -7 88 -16 46
-14 87 -15 289 -9 l235 7 12 -23 c6 -13 19 -55 28 -94 19 -82 85 -255 117
-305 12 -19 35 -60 51 -90 45 -83 95 -139 150 -167 46 -23 62 -25 225 -29 97
-3 181 -9 186 -13 6 -5 52 -30 103 -57 90 -46 92 -48 86 -78 -6 -32 -58 -133
-99 -196 -12 -19 -30 -57 -39 -85 -10 -27 -24 -57 -32 -66 -19 -22 -53 -135
-53 -179 -1 -64 -34 -132 -121 -250 -23 -30 -87 -125 -144 -210 -119 -179
-164 -233 -249 -297 -33 -26 -83 -69 -111 -95 -27 -27 -92 -88 -143 -136 -98
-91 -124 -123 -103 -130 6 -2 11 -10 11 -18 0 -8 14 -23 31 -33 60 -37 95 -34
313 19 l204 49 49 -49 c49 -49 51 -50 111 -50 33 0 89 7 124 15 106 26 179 48
184 57 3 4 12 8 21 8 13 0 14 -9 8 -55 -8 -64 0 -68 50 -29 30 23 37 24 72 15
67 -19 87 -14 120 27 41 51 49 69 56 124 4 27 9 59 13 73 5 22 3 25 -20 25
-29 0 -30 3 -16 30 8 15 5 22 -12 34 -31 22 -37 20 -49 -11 -9 -24 -12 -26
-20 -12 -5 9 -11 27 -13 40 -3 13 -5 25 -5 27 -1 2 -17 -7 -38 -19 l-36 -22
-23 26 c-13 15 -28 27 -33 27 -18 0 -41 -44 -41 -77 0 -49 -99 -143 -151 -143
-41 0 68 178 174 282 26 26 47 51 47 57 0 5 26 24 58 42 31 17 63 39 70 47 6
9 12 43 12 77 0 34 5 66 11 72 6 6 14 26 18 44 5 23 17 39 39 52 32 19 187 69
267 87 22 5 96 27 164 49 68 23 138 41 155 41 17 1 49 9 71 20 22 11 47 19 56
20 9 0 41 9 73 20 l56 19 27 -39 c14 -22 29 -40 33 -40 4 0 55 -63 114 -140
58 -76 111 -142 116 -145 5 -3 18 -25 29 -48 11 -23 26 -50 33 -60 11 -14 10
-23 -4 -48 -10 -17 -16 -40 -13 -52 14 -58 39 -259 39 -312 1 -83 -20 -236
-37 -278 l-15 -35 -198 -4 c-110 -3 -206 -1 -215 3 -41 20 -1484 29 -2035 13
-286 -9 -324 -14 -324 -44 0 -30 200 -32 1360 -15 250 3 482 3 515 -2 33 -5
76 -6 95 -2 73 15 208 18 219 5 7 -8 67 -12 203 -14 106 -2 208 -8 226 -13 18
-6 36 -8 39 -5 4 3 12 1 20 -5 7 -6 22 -9 33 -6 14 3 27 -5 45 -29 42 -55 77
-55 168 1 42 25 81 43 87 40 6 -4 75 -8 153 -10 78 -2 174 -9 212 -15 39 -6
103 -13 144 -17 72 -6 73 -6 62 15 -16 30 -60 39 -281 61 -132 14 -199 25
-216 36 -27 17 -27 18 22 82 18 24 47 71 64 106 52 105 127 195 219 260 45 33
87 70 94 84 12 26 2 88 -24 151 -13 32 -13 35 11 52 14 10 37 29 52 43 43 40
67 44 92 12 22 -27 56 -27 56 1 0 8 3 14 8 15 68 6 108 26 121 62 25 66 26 64
-33 71 -72 9 -91 30 -82 90 l7 45 -47 7 c-42 6 -50 4 -62 -15 -8 -11 -20 -21
-26 -21 -6 0 -17 -4 -25 -9 -11 -7 -7 -21 23 -69 20 -33 36 -66 36 -75 0 -8
-15 -24 -32 -36 -18 -11 -52 -34 -74 -52 -28 -20 -48 -29 -60 -25 -11 4 -59
57 -108 118 -68 86 -94 127 -113 182 -14 39 -29 77 -35 83 -6 7 -14 50 -18 95
-7 80 -18 149 -42 252 -9 42 -8 51 5 61 8 6 31 38 50 71 19 32 45 68 56 78 12
11 21 23 21 27 0 4 23 50 51 101 29 51 61 111 72 133 20 40 87 247 87 269 0 7
7 35 15 62 l15 50 150 73 c83 41 169 90 191 110 63 56 54 80 -90 242 -64 71
-135 153 -159 182 -68 84 -292 553 -292 613 0 7 -9 30 -19 51 -11 21 -24 70
-30 108 -20 132 -90 386 -125 454 -18 36 -37 80 -40 98 -4 17 -48 96 -98 175
-50 79 -108 172 -129 208 -21 36 -63 95 -94 130 -89 102 -88 99 -65 237 35
203 40 211 141 257 44 21 69 25 127 24 44 0 78 4 84 10 17 17 28 15 28 -7 0
-13 16 -25 53 -41 28 -12 111 -50 182 -85 212 -105 254 -113 655 -135 91 -5
233 -9 315 -9 119 -1 155 -4 173 -17 29 -20 28 -50 -3 -70 -22 -15 -28 -14
-81 5 -41 14 -62 17 -81 10 -35 -13 -100 -11 -186 5 -103 20 -267 31 -267 17
0 -17 43 -41 75 -41 31 0 191 -30 273 -52 33 -8 56 -8 97 2 54 13 54 13 90
-19 39 -34 69 -39 102 -16 16 11 28 13 48 5 39 -15 66 -12 81 8 20 26 17 39
-16 74 -39 41 -40 68 -2 68 16 0 60 11 98 24 132 45 156 65 169 143 6 39 5 43
-23 57 -26 14 -37 14 -93 1 -35 -8 -89 -23 -119 -34 -30 -11 -70 -20 -88 -21
-53 0 -69 -14 -76 -67 l-6 -48 -163 2 c-166 3 -182 4 -301 18 -50 5 -67 5 -62
-4 9 -13 2 -13 -49 0 -22 6 -60 12 -85 14 -172 14 -272 37 -342 80 -164 102
-411 318 -474 416 -16 24 -47 67 -69 94 -22 28 -60 79 -84 115 -24 36 -54 76
-67 90 -32 35 -90 118 -114 163 -11 21 -52 87 -90 147 -39 60 -79 133 -91 162
-26 67 -53 112 -98 164 -20 23 -49 63 -65 89 -16 26 -36 49 -45 53 -17 6 -89
67 -204 173 -97 89 -141 105 -342 124 -88 8 -178 14 -200 13 -22 0 -102 -4
-178 -8z m580 -102 c90 -40 231 -150 275 -215 54 -80 78 -123 78 -142 0 -10 7
-24 15 -31 8 -7 15 -22 15 -34 0 -36 35 -81 79 -100 34 -16 51 -35 100 -115
42 -69 60 -110 65 -145 9 -70 28 -96 71 -96 24 0 37 -6 45 -21 7 -13 17 -18
27 -15 10 4 13 2 10 -8 -3 -8 4 -27 16 -42 12 -15 29 -42 37 -58 18 -37 173
-267 235 -351 60 -79 60 -81 42 -119 -15 -32 -17 -33 -96 -39 -130 -10 -220
-61 -237 -135 -4 -15 -15 -53 -26 -86 -29 -89 -37 -178 -21 -239 l13 -51 -48
-49 c-26 -27 -69 -65 -97 -85 -68 -49 -275 -226 -356 -304 -41 -40 -81 -69
-105 -76 -44 -13 -163 -111 -207 -169 -60 -80 -128 -207 -143 -267 -17 -73
-30 -120 -90 -341 -26 -93 -52 -197 -60 -230 -24 -106 -53 -214 -63 -232 -5
-10 -12 -45 -16 -78 -4 -33 -23 -107 -41 -165 -46 -144 -45 -184 5 -246 22
-26 60 -60 85 -76 40 -24 56 -28 120 -28 42 0 78 -5 81 -11 12 -18 -4 -55 -40
-99 -19 -23 -35 -51 -35 -62 0 -10 -5 -28 -11 -39 -14 -27 -2 -59 22 -59 11 0
54 11 95 25 41 14 77 25 80 25 13 0 -9 -100 -46 -210 -92 -271 -84 -299 58
-221 39 21 84 48 99 59 15 11 51 31 78 45 49 24 137 109 184 174 12 18 28 33
34 33 7 0 68 -23 137 -50 143 -58 187 -62 258 -26 51 26 156 69 267 111 39 14
78 30 87 36 10 5 28 9 41 9 25 0 292 81 325 99 28 15 65 -2 58 -27 -2 -9 -10
-44 -16 -77 -7 -33 -33 -112 -60 -175 -26 -63 -51 -126 -55 -138 -9 -29 -52
-102 -124 -211 -53 -79 -179 -211 -202 -211 -6 0 -31 -16 -56 -35 -25 -19 -51
-35 -58 -35 -7 0 -28 -13 -47 -28 -19 -15 -75 -45 -124 -66 -49 -21 -105 -47
-125 -57 -20 -10 -46 -19 -58 -19 -12 0 -29 -4 -39 -9 -9 -6 -78 -24 -152 -41
-74 -17 -182 -46 -240 -65 -58 -18 -139 -40 -180 -50 -41 -9 -112 -30 -158
-46 -46 -16 -96 -29 -111 -29 -18 0 -68 27 -142 78 -112 76 -176 144 -209 222
-18 41 16 198 52 237 11 12 18 31 17 45 -2 13 6 37 17 53 12 17 32 50 44 74
12 25 38 68 57 97 19 29 33 61 31 71 -3 18 -98 71 -130 72 -24 1 -23 33 2 49
43 27 23 38 -66 37 -70 0 -88 3 -98 18 -16 21 -56 23 -56 2 0 -8 5 -15 12 -15
8 0 9 -3 2 -10 -6 -6 -55 -7 -139 -1 -105 7 -141 13 -187 34 -78 35 -129 89
-157 167 -13 36 -39 94 -58 129 -19 36 -41 97 -50 135 -8 39 -19 91 -24 116
-15 67 -11 216 6 250 8 16 15 34 15 39 0 6 15 43 34 83 18 40 36 80 40 88 31
74 139 199 204 237 26 15 102 64 169 110 67 45 148 96 181 112 70 35 162 106
162 125 0 8 -16 26 -35 40 -54 42 -42 89 15 61 42 -21 94 -23 98 -3 4 21 -41
94 -68 108 -35 19 -36 18 90 135 36 33 108 93 160 133 52 41 133 111 180 156
47 46 128 119 180 163 119 101 240 226 240 247 0 9 21 36 47 60 32 30 44 48
40 60 -8 21 -31 20 -98 -2 -30 -10 -94 -24 -144 -31 -49 -7 -124 -19 -165 -26
-41 -8 -108 -17 -149 -20 -40 -3 -77 -8 -82 -11 -5 -2 -66 -13 -136 -24 -126
-19 -172 -27 -303 -51 -36 -7 -87 -15 -115 -18 -61 -7 -66 -23 -37 -109 28
-80 87 -312 101 -402 7 -41 17 -97 22 -123 5 -26 9 -70 9 -98 0 -45 -3 -51
-32 -69 -17 -10 -53 -24 -79 -30 -40 -10 -54 -9 -79 3 -29 15 -34 14 -93 -14
-73 -34 -96 -36 -129 -9 -33 26 -41 67 -18 92 9 10 23 37 30 59 20 60 7 67
-81 46 -68 -17 -89 -16 -89 3 0 5 31 64 70 131 51 89 73 141 85 194 20 88 17
109 -13 113 -26 4 -38 -20 -48 -100 -8 -59 -37 -126 -92 -207 -35 -51 -38 -53
-75 -48 -39 5 -121 52 -170 96 -36 32 -67 92 -67 127 0 16 -18 50 -44 85 -47
63 -102 183 -115 254 -5 25 -14 51 -20 59 -6 7 -18 42 -26 77 -8 35 -19 82
-25 104 -17 64 -41 224 -45 300 -2 39 -7 106 -10 150 -5 61 0 116 19 230 14
83 28 173 32 200 3 28 10 55 15 60 4 6 21 51 37 100 57 173 174 396 265 505
159 189 284 297 416 358 137 63 214 73 348 47 170 -34 240 -19 373 77 22 16
43 18 165 15 136 -3 143 -4 222 -39z m835 -2205 c96 -153 94 -149 78 -168 -19
-23 -236 -125 -266 -125 -7 0 -59 -25 -114 -55 -55 -30 -102 -55 -105 -55 -11
0 -132 -86 -143 -102 -7 -10 -28 -26 -45 -35 -53 -27 -216 -175 -312 -283
-104 -117 -111 -114 -71 28 15 50 26 99 26 110 0 23 81 132 148 199 29 29 83
66 136 93 60 30 98 57 120 83 17 22 74 75 126 118 52 42 127 105 165 138 116
101 179 148 192 143 7 -2 37 -42 65 -89z m-672 48 c0 -10 -120 -111 -181 -152
-95 -64 -462 -364 -540 -441 -49 -49 -92 -88 -97 -88 -28 0 -42 29 -48 100 -3
41 -12 100 -20 131 -16 66 -18 146 -4 183 5 14 28 46 51 71 45 49 110 78 199
89 128 16 309 48 365 66 52 16 207 45 258 49 9 0 17 -3 17 -8z m30 -61 c0 -5
-16 -20 -36 -34 -20 -14 -82 -67 -138 -119 -91 -86 -225 -199 -280 -237 -42
-28 -212 -180 -276 -244 -35 -36 -68 -66 -72 -66 -17 0 -7 35 19 69 65 87 408
387 529 464 22 13 46 32 53 41 8 10 28 24 45 33 17 9 51 33 76 53 38 32 54 42
78 49 1 1 2 -3 2 -9z m-2004 -127 c9 -21 27 -52 40 -70 13 -17 24 -44 24 -58
l0 -27 -31 26 c-24 21 -41 26 -84 26 -45 0 -55 3 -60 20 -7 22 -4 29 39 83 16
20 36 37 43 37 8 0 21 -17 29 -37z m2845 -146 c19 -34 53 -92 76 -127 24 -36
46 -81 49 -100 3 -19 12 -48 19 -65 7 -16 19 -52 26 -80 6 -27 18 -61 25 -75
7 -14 17 -55 23 -90 13 -78 23 -116 63 -240 17 -52 39 -126 49 -165 37 -146
125 -353 163 -384 9 -8 16 -19 16 -25 0 -23 128 -200 200 -277 148 -157 145
-150 88 -208 -17 -17 -37 -31 -44 -31 -8 0 -56 -21 -107 -46 -97 -49 -175 -76
-422 -144 -82 -23 -184 -52 -225 -66 -42 -13 -83 -24 -93 -24 -10 0 -75 -28
-145 -62 -113 -55 -133 -62 -184 -61 -32 1 -72 9 -89 17 -18 9 -45 16 -60 16
-15 0 -35 8 -45 17 -9 10 -31 25 -48 33 -37 18 -37 28 -6 145 11 44 23 90 25
103 5 19 12 22 53 22 53 0 76 17 104 75 10 23 20 30 38 28 66 -5 87 19 55 63
-14 20 -9 27 95 123 60 56 120 111 134 122 37 29 116 143 133 192 8 23 21 108
28 190 20 216 1 306 -101 479 -22 37 -48 104 -64 163 -18 66 -32 100 -41 100
-20 0 -22 -45 -5 -107 44 -157 79 -261 112 -332 45 -96 52 -151 30 -266 -44
-233 -51 -252 -146 -356 -30 -34 -77 -89 -105 -124 -65 -81 -100 -110 -134
-110 -36 0 -107 46 -240 155 -95 78 -110 94 -110 121 -1 19 30 93 83 200 84
169 118 268 137 399 13 93 -14 265 -42 265 -12 0 -19 -31 -10 -48 4 -9 7 -21
5 -27 -2 -5 -8 -53 -13 -105 -6 -52 -15 -121 -20 -152 -17 -87 -76 -242 -133
-348 -29 -52 -61 -113 -72 -135 -11 -22 -53 -79 -93 -127 l-72 -88 1 -63 c1
-58 -2 -67 -37 -115 -44 -61 -117 -102 -184 -102 -58 0 -150 50 -197 106 -36
44 -36 47 -31 111 6 79 19 95 83 97 36 2 51 8 66 26 25 31 19 68 -14 93 -28
21 -28 21 -43 1 -8 -10 -15 -29 -15 -42 0 -12 -7 -25 -15 -28 -8 -4 -15 -12
-15 -20 0 -8 -4 -14 -10 -14 -5 0 -10 3 -10 7 0 17 33 170 40 183 4 8 18 62
30 120 11 58 35 146 51 195 17 50 33 110 36 135 8 62 17 76 93 147 37 35 105
108 150 162 81 99 222 230 309 287 111 74 173 107 386 205 88 40 192 92 230
115 50 29 75 39 86 33 10 -5 32 -37 50 -72z m-2371 -1213 c0 -9 -20 -60 -44
-113 -42 -92 -76 -197 -76 -237 0 -11 -5 -26 -10 -34 -8 -12 -14 -10 -38 13
l-30 29 -38 -20 c-22 -11 -48 -30 -59 -42 -30 -33 -59 -41 -177 -48 -105 -7
-107 -7 -113 15 -3 13 -12 23 -21 23 -11 0 -13 -6 -9 -20 3 -11 2 -20 -3 -20
-18 0 -157 48 -214 73 -68 31 -73 46 -63 187 l7 99 87 20 86 20 32 -33 c38
-41 63 -118 63 -195 1 -63 21 -113 36 -90 17 26 6 172 -16 230 l-21 53 33 28
c40 33 43 34 293 47 110 6 216 15 235 20 52 13 60 13 60 -5z m-965 -115 c4
-16 4 -69 0 -117 -7 -87 -7 -87 -52 -129 -25 -23 -66 -52 -91 -64 -26 -13 -49
-25 -52 -28 -3 -3 -35 -21 -72 -38 -49 -24 -68 -29 -68 -19 0 28 -64 35 -96
11 -28 -21 -35 -18 -28 11 6 25 5 26 -20 20 -14 -3 -38 -9 -53 -12 l-28 -5 23
19 c48 43 19 62 -49 32 -92 -39 -90 -19 5 55 49 39 112 87 138 108 58 45 60
71 11 102 -18 11 -31 25 -29 30 3 12 72 22 236 35 69 5 141 13 160 18 46 11
57 6 65 -29z m2551 -194 c38 -31 104 -82 146 -115 71 -56 108 -94 108 -112 0
-11 -61 -78 -81 -89 -25 -13 -138 39 -229 104 -36 26 -82 59 -102 74 -26 18
-38 35 -38 51 0 25 95 142 116 142 6 0 42 -25 80 -55z m-3656 -15 c0 -5 -4
-10 -10 -10 -5 0 -10 5 -10 10 0 6 5 10 10 10 6 0 10 -4 10 -10z m268 -32 c-5
-15 -88 -24 -88 -9 0 5 15 12 33 14 17 2 38 5 45 5 8 1 12 -4 10 -10z m113 2
c24 -14 24 -22 -2 -38 -18 -12 -24 -10 -45 12 -23 22 -23 25 -7 29 30 8 33 7
54 -3z m-276 -10 c-7 -12 -155 -14 -155 -1 0 4 36 9 81 10 54 1 79 -2 74 -9z
m45 0 c0 -5 -4 -10 -10 -10 -5 0 -10 5 -10 10 0 6 5 10 10 10 6 0 10 -4 10
-10z m150 -34 c0 -8 -4 -18 -10 -21 -5 -3 -10 -22 -10 -41 l0 -34 -47 1 c-61
1 -106 17 -51 18 90 2 85 31 -5 31 -60 0 -145 29 -130 44 13 13 104 6 119 -9
18 -17 50 -20 59 -5 3 6 -4 11 -17 11 -19 1 -18 3 7 9 51 13 85 11 85 -4z
m3250 -155 c30 -21 83 -54 118 -75 34 -21 66 -45 71 -55 14 -25 -27 -202 -69
-294 -19 -42 -24 -47 -37 -35 -13 11 -18 10 -27 -6 -47 -80 -87 -136 -97 -136
-7 0 -5 8 5 23 9 12 31 50 48 85 28 53 31 64 18 72 -8 5 -19 10 -23 10 -5 0
-26 -38 -47 -84 -40 -84 -82 -139 -65 -86 4 14 11 30 16 36 7 8 59 151 59 162
0 1 -6 2 -13 2 -19 0 -50 -36 -43 -49 4 -5 -11 -48 -33 -95 -40 -86 -146 -215
-163 -198 -5 5 5 35 21 68 17 32 46 104 66 159 35 96 36 101 24 160 -8 44 -9
70 -1 99 20 70 -9 79 -38 12 -20 -49 -108 -126 -141 -126 -28 0 -34 26 -12 54
136 176 173 225 199 267 61 94 68 96 164 30z m1030 -1208 c14 -30 25 -91 39
-214 5 -41 21 -104 35 -140 46 -108 48 -118 41 -156 -11 -61 -183 -213 -241
-213 -13 0 -33 13 -49 33 -50 61 -105 136 -105 143 0 4 -17 30 -38 58 -20 28
-49 69 -64 92 -27 43 -92 124 -129 162 -12 12 -20 24 -18 26 13 11 60 31 151
62 116 40 187 75 273 133 33 23 67 41 76 41 9 0 22 -12 29 -27z m-1814 -241
c25 -35 111 -109 214 -185 66 -48 65 -107 -1 -107 -39 0 -150 71 -190 122 -32
40 -79 152 -79 188 0 32 26 23 56 -18z m1829 -621 c-3 -16 -1 -47 5 -68 11
-36 10 -43 -25 -106 -56 -102 -69 -68 -24 63 11 30 19 65 19 78 0 24 16 62 26
62 3 0 3 -13 -1 -29z m-1704 -194 c-8 -8 -11 -4 -11 14 0 33 14 47 18 19 2
-12 -1 -27 -7 -33z m210 -112 c0 -13 -41 -19 -41 -7 0 11 20 22 33 18 5 -1 8
-6 8 -11z m-271 -34 c0 -5 -7 -12 -16 -15 -22 -9 -24 -8 -24 9 0 8 9 15 20 15
11 0 20 -4 20 -9z m210 -51 c0 -5 -7 -10 -15 -10 -8 0 -15 5 -15 10 0 6 7 10
15 10 8 0 15 -4 15 -10z"/>
<path d="M9512 7033 c-6 -10 -13 -40 -17 -68 -9 -57 -33 -111 -64 -139 -12
-11 -21 -23 -21 -27 0 -16 35 5 81 47 25 23 60 49 77 58 39 20 42 42 5 41 -29
0 -30 1 -21 75 4 30 -26 40 -40 13z"/>
<path d="M9032 7003 c3 -30 29 -40 74 -29 51 13 16 56 -46 56 -28 0 -31 -3
-28 -27z"/>
<path d="M9443 6717 c-45 -17 -50 -25 -25 -43 30 -21 30 -91 -1 -153 -13 -25
-36 -71 -52 -102 -26 -53 -27 -79 -3 -79 15 0 90 80 127 137 17 26 31 60 31
76 l0 30 -23 -34 c-24 -36 -57 -51 -57 -26 0 9 4 17 8 19 24 10 105 155 98
174 -6 17 -59 17 -103 1z"/>
<path d="M9306 6221 c-4 -5 5 -31 19 -57 17 -31 25 -63 25 -94 0 -32 6 -56 19
-71 l19 -24 31 23 c37 27 41 27 41 1 0 -25 18 -60 39 -76 13 -10 14 -15 4 -32
-25 -40 -11 -101 29 -129 18 -13 25 -60 10 -78 -5 -5 -14 -28 -21 -52 -10 -37
-10 -47 3 -67 26 -40 55 -42 84 -5 24 31 26 31 39 14 7 -10 13 -39 13 -64 0
-63 17 -85 53 -71 36 14 37 14 37 -3 0 -20 16 -29 40 -21 41 13 54 146 17 169
-14 9 -20 7 -28 -6 -6 -10 -21 -18 -34 -18 -23 0 -25 4 -25 43 0 23 7 63 14
89 12 38 12 49 2 64 -14 19 -16 18 -101 -83 -25 -31 -55 -44 -55 -25 0 5 5 34
11 65 11 54 11 58 -15 91 -14 19 -26 40 -26 46 0 15 32 62 82 119 65 74 40
120 -33 61 -56 -45 -69 -36 -69 48 0 38 -3 72 -7 75 -3 4 -28 -9 -55 -28 -72
-52 -80 -49 -76 33 l3 67 -42 3 c-22 2 -44 -1 -47 -7z"/>
<path d="M8266 6117 c-21 -16 -25 -76 -7 -120 12 -32 28 -28 70 17 35 37 81
35 103 -4 20 -35 55 -52 81 -38 26 13 21 43 -14 83 -35 39 -68 52 -97 36 -15
-8 -26 -5 -53 14 -37 28 -57 31 -83 12z"/>
<path d="M8258 5715 c-78 -16 -111 -31 -105 -48 2 -7 18 -13 35 -15 28 -3 30
-5 20 -22 -9 -14 -7 -37 10 -107 12 -49 22 -96 22 -104 0 -9 12 -30 28 -46 15
-17 47 -58 71 -92 24 -34 57 -73 74 -87 29 -25 32 -25 44 -8 17 23 16 37 -4
95 -16 46 -16 53 0 130 19 92 41 137 78 158 22 12 34 9 139 -34 173 -70 208
-81 228 -69 27 17 20 38 -15 45 -18 3 -65 31 -105 62 -98 74 -152 100 -213
102 -66 3 -116 14 -136 31 -23 21 -96 24 -171 9z m72 -34 c0 -11 -78 -26 -87
-17 -8 7 36 25 65 25 12 1 22 -3 22 -8z m40 -55 c0 -16 -18 -31 -27 -22 -8 8
5 36 17 36 5 0 10 -6 10 -14z"/>
<path d="M8820 5310 c-6 -10 -30 -28 -55 -39 -26 -11 -45 -27 -45 -35 0 -22
34 -20 55 4 16 17 26 19 74 14 82 -9 123 -7 132 8 13 20 5 32 -27 39 -16 3
-39 11 -51 17 -33 18 -71 15 -83 -8z"/>
<path d="M8490 5199 c-17 -33 -19 -43 -9 -55 25 -30 46 -35 71 -15 22 19 22
20 4 34 -15 11 -17 17 -7 35 14 27 7 42 -19 42 -13 0 -27 -14 -40 -41z"/>
<path d="M8739 3567 c-15 -32 -3 -97 17 -97 23 0 38 45 28 82 -12 40 -31 47
-45 15z"/>
<path d="M8644 3425 c-7 -40 2 -104 19 -123 9 -11 16 -3 34 37 l22 51 -20 35
c-27 45 -46 45 -55 0z"/>
<path d="M8578 3294 c-7 -12 31 -127 45 -136 22 -14 31 11 17 51 -14 44 -54
99 -62 85z"/>
<path d="M8596 3075 c-9 -25 -7 -73 3 -80 13 -7 41 23 41 44 0 10 -8 26 -19
35 -17 15 -19 15 -25 1z"/>
<path d="M8664 2728 c13 -63 52 -102 81 -78 13 10 9 19 -23 61 -44 57 -68 64
-58 17z"/>
<path d="M11056 2445 c-9 -25 -7 -58 5 -93 16 -48 30 -28 23 31 -8 64 -18 87
-28 62z"/>
<path d="M9728 3912 c-9 -4 -37 -26 -63 -50 -34 -31 -45 -48 -43 -65 2 -14 9
-20 18 -18 8 3 34 6 57 7 51 2 57 6 94 57 27 38 28 41 13 59 -17 18 -46 22
-76 10z"/>
<path d="M9613 3658 c-16 -20 -45 -79 -53 -109 -10 -34 9 -63 50 -77 28 -10
31 -9 45 17 13 27 13 29 -20 61 l-35 33 22 34 c13 22 17 38 11 44 -6 6 -14 5
-20 -3z"/>
<path d="M11210 3240 c-11 -11 -20 -27 -20 -35 0 -20 35 -37 73 -33 27 3 33 7
35 33 6 51 -50 73 -88 35z"/>
<path d="M11001 1254 c-27 -34 -14 -53 24 -36 19 9 25 19 23 34 -5 32 -23 33
-47 2z"/>
<path d="M3515 6589 c-77 -15 -104 -25 -210 -74 -27 -13 -99 -46 -159 -74 -61
-27 -117 -56 -125 -63 -9 -7 -30 -22 -46 -32 -17 -11 -38 -30 -48 -43 -10 -13
-24 -23 -32 -23 -7 0 -67 -53 -132 -118 -138 -138 -176 -166 -319 -233 -161
-74 -191 -104 -246 -241 -25 -62 -49 -129 -53 -148 -10 -49 -53 -130 -68 -130
-7 0 -33 21 -57 46 -42 42 -48 45 -85 40 -33 -4 -49 1 -97 30 -47 29 -61 33
-78 24 -46 -25 -112 -112 -171 -226 -85 -166 -109 -238 -119 -364 -5 -65 -17
-129 -31 -169 -21 -59 -22 -68 -10 -140 7 -42 22 -103 32 -136 25 -76 114
-252 144 -285 22 -24 22 -30 17 -162 l-5 -138 26 0 c46 0 67 -79 27 -100 -11
-6 -31 -29 -45 -50 -14 -22 -40 -47 -57 -56 -18 -9 -46 -26 -61 -38 -89 -66
-102 -85 -171 -228 -112 -233 -122 -257 -161 -398 -21 -74 -51 -168 -66 -207
-23 -59 -29 -90 -30 -160 -1 -53 -7 -99 -15 -115 -8 -15 -14 -34 -14 -44 0 -9
-12 -39 -27 -68 -14 -28 -40 -89 -57 -136 -34 -92 -60 -115 -72 -63 -12 55
-33 109 -76 203 -25 52 -48 108 -52 124 -10 42 -55 115 -77 127 -51 27 -48
-26 7 -138 21 -43 33 -80 30 -91 -6 -18 -71 -34 -238 -58 l-47 -6 -48 76 c-26
42 -52 74 -58 73 -5 -2 -10 -31 -10 -64 0 -50 5 -68 33 -112 17 -29 32 -58 32
-65 0 -7 13 -44 28 -82 15 -38 41 -109 56 -159 16 -49 37 -110 46 -135 10 -25
37 -110 60 -190 24 -80 49 -157 56 -172 8 -15 12 -39 8 -52 -6 -26 12 -335 22
-360 3 -8 19 -20 35 -26 55 -23 50 -56 -43 -300 -60 -157 -64 -169 -88 -245
-32 -99 -62 -154 -110 -200 -51 -49 -66 -76 -75 -138 l-7 -47 -45 0 c-25 0
-71 6 -102 14 -31 8 -88 16 -128 19 -61 5 -74 3 -88 -13 -9 -10 -15 -29 -13
-41 2 -20 11 -25 48 -30 113 -16 299 -31 455 -35 94 -3 229 -6 300 -9 157 -4
252 -5 635 -2 162 1 394 -2 515 -6 121 -4 396 -9 610 -12 215 -3 433 -10 485
-15 52 -6 118 -10 145 -9 28 1 138 -4 245 -10 107 -7 402 -13 655 -16 253 -2
501 -8 550 -14 398 -44 690 -58 724 -35 11 8 21 19 21 23 0 15 -47 19 -654 47
-60 2 -113 7 -118 10 -12 8 -87 11 -362 19 -121 3 -222 7 -224 10 -9 8 12 28
44 41 22 9 77 14 166 15 147 1 554 -18 567 -25 5 -3 120 -10 257 -16 370 -16
405 -19 439 -40 94 -59 45 -55 595 -57 310 -2 565 2 660 9 85 7 182 13 215 14
125 4 403 25 485 37 63 9 85 16 85 27 0 12 -21 15 -125 15 -110 0 -125 2 -128
17 -2 10 12 32 30 50 40 41 204 97 318 109 235 25 265 33 244 67 -9 14 -24 16
-90 14 -43 -2 -101 -7 -129 -12 -51 -9 -264 -28 -390 -35 -138 -8 -271 -24
-420 -51 -44 -8 -98 -14 -121 -14 -46 0 -105 -17 -116 -34 -4 -6 -8 -37 -8
-69 l0 -57 -67 5 c-38 4 -153 8 -258 10 -104 2 -237 9 -295 16 -97 10 -177 14
-560 24 -74 2 -164 -1 -200 -7 -65 -10 -277 -1 -480 22 -99 11 -186 20 -250
25 -25 2 -65 9 -90 15 -25 5 -67 14 -93 19 -34 6 -59 18 -85 43 -20 19 -53 44
-72 56 -46 27 -96 80 -109 115 -8 21 -8 33 3 50 8 12 17 42 21 67 3 25 17 106
30 180 38 216 60 419 79 745 3 60 4 60 49 85 25 14 53 32 64 41 10 9 99 60
198 114 99 54 190 104 202 111 12 8 28 14 35 14 7 0 30 11 50 25 20 13 56 32
79 41 24 10 63 30 86 45 43 28 178 97 468 239 83 40 171 88 198 106 55 40 63
41 77 14 12 -22 16 -663 5 -692 -3 -9 -2 -33 4 -53 7 -25 7 -45 0 -63 -6 -15
-13 -117 -16 -227 -3 -110 -7 -202 -10 -205 -18 -19 -818 -19 -853 0 -14 7
-26 8 -33 2 -7 -5 -106 -12 -222 -15 -221 -6 -315 -19 -315 -43 0 -8 1 -14 3
-14 1 0 112 -5 247 -11 368 -15 732 -18 1050 -9 157 5 438 12 625 15 l340 7
84 -31 c100 -37 121 -38 213 -10 57 18 77 20 106 11 81 -23 163 -42 182 -42
10 0 29 13 41 30 12 16 25 28 28 25 4 -2 80 -6 170 -9 165 -6 191 -2 191 30 0
7 -9 18 -19 24 -23 12 -201 35 -255 32 -21 -1 -77 5 -125 14 -87 15 -337 17
-976 9 -257 -3 -300 4 -290 47 36 162 35 155 20 205 -8 26 -15 60 -15 75 0 15
-14 70 -30 122 -17 51 -30 109 -30 127 -1 19 -3 70 -5 114 -3 44 -7 193 -11
330 l-7 250 67 69 c37 38 74 83 83 99 17 34 13 98 -8 123 -12 14 -87 52 -199
100 -25 10 -63 33 -86 50 -56 43 -212 126 -304 162 -41 17 -111 46 -155 65
-44 20 -141 61 -215 92 -74 31 -184 78 -245 105 -194 85 -213 90 -265 74 -25
-8 -76 -24 -115 -36 -38 -11 -104 -37 -145 -56 -173 -81 -222 -102 -238 -102
-16 0 -90 35 -141 67 l-25 16 40 20 c53 27 218 161 255 208 20 26 45 43 78 54
49 16 125 60 276 161 44 29 97 61 118 70 20 10 37 23 37 30 0 7 -26 35 -57 64
l-57 52 25 19 c13 10 28 19 32 19 4 0 27 9 49 20 39 19 43 19 60 3 17 -15 26
-15 131 0 141 22 142 22 116 -4 -13 -13 -19 -30 -17 -47 3 -23 8 -27 41 -30
53 -5 46 -18 -15 -26 -70 -10 -85 -22 -55 -47 l22 -18 -47 -1 c-57 0 -106 -16
-91 -31 5 -5 34 -13 63 -18 64 -10 65 -12 135 -156 61 -126 100 -177 156 -206
37 -19 39 -22 33 -54 -7 -40 -8 -49 -6 -87 2 -24 6 -28 31 -28 16 0 54 -10 85
-21 47 -19 60 -20 85 -9 32 13 51 52 51 101 0 16 4 29 8 29 9 0 51 -18 102
-43 47 -24 171 -180 234 -297 13 -24 68 -60 92 -60 43 0 121 31 148 59 33 34
76 147 76 198 0 45 -56 103 -99 103 -15 0 -61 9 -102 20 -41 11 -99 25 -129
31 -30 6 -73 15 -95 19 -223 46 -294 60 -318 60 -15 0 -64 14 -109 31 -64 25
-91 43 -137 88 -51 52 -131 181 -131 213 0 7 16 26 36 42 l37 29 71 -37 c86
-44 134 -71 206 -117 109 -70 298 -142 405 -155 28 -3 77 -17 110 -30 142 -57
228 -66 321 -34 78 27 117 64 108 104 -9 40 -52 126 -78 154 -52 59 -100 60
-316 9 -120 -28 -137 -30 -240 -30 -76 0 -250 42 -315 76 -17 8 -50 20 -75 27
-61 16 -140 58 -140 73 0 6 21 19 47 27 80 25 65 48 -37 59 -72 8 -73 29 -2
57 66 26 81 39 63 57 -13 13 -156 14 -238 1 -40 -6 -43 -5 -43 18 0 13 9 31
20 41 20 17 25 42 14 71 -6 14 -11 13 -41 -10 -19 -14 -51 -28 -72 -31 -46 -6
-42 -11 -191 217 -67 103 -130 187 -169 225 l-62 60 -87 0 c-70 0 -97 -5 -137
-24 -38 -18 -70 -24 -132 -26 -96 -3 -147 -27 -200 -93 -38 -47 -39 -54 -16
-93 14 -23 25 -29 50 -29 39 0 41 9 9 39 -31 29 -25 43 32 79 38 24 66 32 146
41 55 7 104 15 110 20 6 5 42 16 79 24 64 14 72 14 111 -3 48 -20 69 -44 190
-224 48 -70 107 -153 132 -183 l44 -55 -17 -31 c-24 -40 -170 -124 -232 -133
-25 -3 -71 -13 -101 -21 -30 -8 -80 -21 -110 -28 -30 -8 -145 -36 -255 -64
-225 -58 -279 -64 -426 -50 -57 5 -124 11 -149 13 -25 2 -88 9 -140 15 -52 6
-113 12 -135 14 -36 2 -40 5 -38 27 1 14 4 87 7 162 l4 138 44 52 c97 116 358
479 384 532 13 28 64 124 107 201 9 17 30 64 47 105 59 145 68 166 98 235 133
304 158 399 182 700 12 138 8 210 -16 344 -19 105 -52 174 -111 229 -40 37
-57 45 -127 60 -75 16 -87 16 -161 1z m137 -81 c102 -23 146 -77 166 -205 10
-62 9 -90 -9 -205 -43 -275 -69 -397 -112 -538 -32 -102 -58 -171 -182 -475
-128 -313 -214 -468 -329 -596 -50 -54 -93 -99 -97 -99 -3 0 -9 24 -12 53 -3
28 -10 95 -16 148 -8 65 -8 105 -2 123 11 28 6 51 -17 78 -12 14 -14 39 -10
122 3 64 1 107 -5 109 -5 1 -32 -1 -58 -7 -42 -9 -55 -7 -98 14 -42 19 -53 21
-66 10 -22 -18 -19 -37 11 -57 14 -10 45 -35 69 -56 37 -33 43 -43 47 -89 3
-31 12 -56 21 -63 24 -17 37 -60 37 -122 0 -30 10 -94 21 -142 18 -71 20 -105
16 -196 -4 -60 -14 -148 -23 -195 -12 -64 -17 -158 -20 -375 -2 -159 -3 -296
-4 -302 0 -7 -20 -23 -44 -35 -101 -53 -153 -86 -200 -129 -28 -26 -75 -61
-103 -79 l-53 -31 -147 4 c-146 5 -170 7 -268 22 -61 10 -159 53 -200 88 -30
25 -68 97 -79 148 -3 15 -22 47 -42 70 -63 75 -75 126 -60 259 7 58 4 76 -24
163 l-31 98 16 112 c15 111 64 297 91 349 8 15 14 40 14 56 0 15 7 37 15 48 8
10 14 28 15 39 0 11 20 63 45 115 46 99 86 195 112 267 14 38 30 54 85 88 191
117 284 142 434 119 24 -3 44 -10 44 -15 0 -9 -5 -10 -110 -29 -138 -23 -232
-48 -248 -64 -15 -15 -14 -16 8 -16 14 0 75 9 135 19 92 16 132 17 245 10 74
-4 151 -13 170 -18 49 -15 155 -14 194 3 55 23 87 86 50 100 -10 4 -32 -7 -58
-29 -24 -19 -53 -35 -65 -35 -13 0 -59 18 -104 41 -44 22 -115 49 -157 60 -42
10 -93 26 -113 34 -20 8 -56 15 -79 15 -54 0 -174 -39 -269 -86 -39 -20 -73
-33 -76 -30 -8 7 17 95 29 102 4 3 35 45 68 94 33 49 64 91 70 95 5 3 10 13
10 21 0 7 15 34 33 59 17 24 62 86 100 137 37 51 97 134 132 185 36 50 79 101
95 113 17 12 30 27 30 35 0 7 10 20 23 28 12 8 45 37 73 63 28 27 73 65 99 84
26 19 67 52 92 73 24 20 49 37 55 37 5 0 28 14 50 31 71 57 210 122 328 156
128 35 164 39 242 21z m-1175 -645 c2 -6 -24 -49 -59 -95 -35 -45 -76 -102
-91 -124 -15 -23 -40 -52 -54 -65 -24 -22 -26 -22 -21 -4 3 11 13 52 23 90 24
96 42 130 84 158 20 13 47 31 61 40 28 18 51 18 57 0z m1338 -123 c3 -5 2 -10
-4 -10 -5 0 -13 5 -16 10 -3 6 -2 10 4 10 5 0 13 -4 16 -10z m-11 -52 c-10
-36 -26 -58 -20 -28 3 14 6 31 6 38 0 6 5 12 11 12 6 0 8 -9 3 -22z m-59 -213
c-23 -104 -94 -306 -136 -386 -10 -20 -19 -43 -19 -50 0 -20 -91 -199 -102
-199 -13 0 -2 32 42 125 21 44 41 91 45 105 9 33 71 194 96 248 10 23 19 51
19 62 0 10 11 40 25 66 14 26 25 55 25 64 0 15 10 33 16 28 1 -2 -4 -30 -11
-63z m-1509 28 c-36 -70 -85 -143 -90 -135 -3 4 8 28 25 53 16 24 29 49 29 54
0 15 30 55 41 55 5 0 3 -12 -5 -27z m-399 -35 c10 -13 31 -34 46 -47 21 -19
29 -22 41 -12 23 19 52 5 86 -41 28 -39 40 -88 22 -88 -12 0 -67 -99 -100
-180 -17 -41 -43 -102 -58 -135 -15 -33 -35 -80 -44 -105 -10 -25 -27 -67 -38
-95 -28 -70 -37 -95 -73 -218 -46 -154 -59 -159 -114 -45 -43 87 -51 97 -75
91 -27 -7 -43 62 -38 159 4 71 7 79 37 107 18 17 35 31 37 31 3 0 18 10 34 21
32 25 30 49 -6 49 -13 0 -24 2 -24 5 0 3 15 29 33 58 18 29 39 67 46 85 7 17
17 32 22 32 5 0 9 7 9 16 0 9 7 28 15 42 22 40 75 210 75 242 0 17 7 33 18 39
24 15 28 14 49 -11z m-138 -105 c0 -5 -22 -51 -49 -103 -29 -57 -49 -86 -49
-73 -1 18 46 129 72 171 9 13 27 17 26 5z m391 -124 c-7 -16 -19 -29 -26 -29
-19 0 -17 13 8 57 18 29 24 34 26 20 2 -10 -2 -32 -8 -48z m-68 -127 c-16 -26
-33 -60 -37 -77 -12 -55 -66 -158 -77 -147 -6 6 -3 23 11 48 25 47 54 115 71
167 6 20 15 37 20 37 4 0 14 15 21 33 11 29 13 30 16 9 3 -14 -7 -41 -25 -70z
m-133 -329 c-6 -21 -29 -73 -51 -115 -21 -42 -38 -88 -38 -102 0 -14 -5 -28
-11 -32 -25 -15 42 227 79 284 23 35 37 12 21 -35z m-123 -310 c-10 -10 -19 5
-10 18 6 11 8 11 12 0 2 -7 1 -15 -2 -18z m-12 -66 c-13 -35 -23 -13 -15 33 1
2 6 -1 11 -6 6 -6 8 -18 4 -27z m-114 -129 c0 -16 -3 -19 -11 -11 -6 6 -8 16
-5 22 11 17 16 13 16 -11z m87 16 c-3 -3 -12 -4 -19 -1 -8 3 -5 6 6 6 11 1 17
-2 13 -5z m2993 -278 c0 -13 -34 -36 -53 -36 -20 0 -19 2 8 20 29 19 45 25 45
16z m-258 -187 l43 -41 -38 -33 c-20 -18 -65 -47 -100 -65 -34 -18 -69 -39
-77 -46 -14 -12 -52 -34 -150 -87 -25 -14 -83 -57 -130 -96 -109 -92 -271
-201 -298 -201 -12 0 -31 4 -44 9 -85 33 -255 44 -286 19 -26 -22 -117 -140
-164 -213 -25 -39 -69 -99 -99 -135 -30 -35 -73 -89 -96 -120 -24 -30 -52 -66
-63 -80 -12 -14 -41 -51 -66 -82 -52 -67 -50 -66 -190 -39 -55 11 -132 23
-172 27 -71 6 -75 8 -109 49 -62 74 -100 88 -333 121 -132 18 -180 38 -180 75
0 11 -7 34 -16 50 -24 48 -13 59 55 59 32 0 71 -6 86 -14 16 -9 37 -11 53 -7
15 4 42 3 60 -2 41 -13 59 1 43 31 -12 23 -73 45 -171 63 -53 9 -70 17 -92 43
l-26 31 -26 -24 c-28 -26 -28 -27 -45 7 -7 12 -21 22 -34 22 -27 1 -70 37 -91
78 -8 16 -36 50 -61 75 -25 25 -45 50 -45 56 0 6 -6 11 -13 11 -19 0 -61 48
-87 100 -12 25 -29 58 -37 73 -17 33 -10 45 46 79 20 12 68 51 108 86 40 35
76 61 81 58 5 -3 12 -44 15 -91 6 -89 25 -135 92 -225 14 -19 34 -64 45 -100
24 -79 65 -131 127 -161 27 -12 84 -47 128 -77 80 -54 166 -92 212 -92 13 0
39 -10 58 -23 27 -19 31 -26 23 -41 -13 -22 3 -39 51 -55 57 -19 64 -16 59 27
-3 20 -8 45 -12 54 -6 13 -3 20 10 25 11 3 42 25 69 48 28 23 88 67 135 98 47
31 114 83 149 116 35 32 83 67 106 75 61 24 67 44 70 231 2 109 6 160 14 163
6 2 30 -3 52 -12 21 -9 51 -16 64 -16 24 0 35 -23 16 -34 -4 -3 -11 -27 -15
-54 -3 -26 -15 -72 -26 -102 -12 -32 -18 -66 -15 -82 4 -14 1 -29 -4 -33 -6
-3 -11 -14 -11 -24 0 -9 -9 -36 -20 -59 -23 -47 -25 -63 -9 -79 9 -9 3 -22
-24 -53 -35 -41 -57 -106 -57 -166 0 -22 2 -23 21 -13 11 6 29 29 39 52 11 23
37 66 59 96 23 30 41 58 41 63 0 5 13 36 29 71 32 69 57 176 76 327 6 52 -16
46 215 54 190 7 212 10 360 50 69 19 166 44 215 56 50 12 126 33 170 45 102
29 155 42 177 44 9 0 36 -17 60 -40z m1568 -194 c0 -8 -7 -15 -16 -15 -14 0
-14 3 -4 15 7 8 14 15 16 15 2 0 4 -7 4 -15z m-101 -21 c-6 -8 -18 -14 -27
-14 -13 0 -12 3 3 20 20 22 43 17 24 -6z m161 11 c0 -8 -7 -15 -15 -15 -16 0
-20 12 -8 23 11 12 23 8 23 -8z m-340 -60 c-28 -29 -41 -35 -74 -35 -37 0 -78
14 -66 22 15 10 129 46 149 47 24 1 24 0 -9 -34z m-215 0 c23 -10 25 -13 10
-14 -11 0 -33 6 -50 14 -23 10 -25 13 -10 14 11 0 34 -6 50 -14z m-4121 -230
c33 -22 59 -33 69 -29 13 5 17 0 17 -20 0 -33 37 -73 53 -57 15 15 27 14 27
-3 0 -15 130 -146 159 -159 10 -5 44 -61 75 -125 80 -166 76 -163 177 -172 92
-8 264 -43 313 -64 39 -16 96 -64 96 -80 0 -7 9 -21 20 -31 58 -52 -10 -120
-184 -185 -59 -22 -114 -44 -124 -50 -48 -27 -116 -51 -149 -53 -37 -2 -37 -2
-35 34 3 37 -16 69 -43 69 -7 0 -25 -16 -39 -35 -41 -53 -71 -64 -198 -71
-130 -7 -281 14 -333 46 -38 23 -101 97 -143 165 -39 65 -46 127 -27 245 16
106 30 155 70 250 15 36 49 127 76 204 49 139 56 156 65 156 2 0 28 -16 58
-35z m3840 -34 c16 -18 16 -20 -7 -46 -23 -27 -24 -27 -56 -11 -17 9 -35 24
-38 32 -15 40 68 61 101 25z m-594 -96 c74 -30 203 -84 285 -120 83 -37 178
-77 211 -90 34 -13 71 -28 82 -34 12 -6 29 -11 40 -11 11 0 25 -7 32 -15 7 -8
18 -15 25 -15 7 0 93 -43 191 -97 99 -53 207 -110 242 -127 90 -44 90 -44 -93
-141 -44 -23 -107 -58 -140 -78 -33 -20 -107 -61 -165 -93 -58 -31 -113 -64
-122 -72 -10 -8 -18 -12 -18 -9 0 3 -18 -4 -39 -16 -22 -12 -86 -48 -143 -80
-270 -153 -571 -306 -733 -371 -72 -29 -189 -84 -260 -122 -72 -39 -155 -80
-185 -93 -30 -13 -89 -43 -130 -66 -41 -23 -93 -48 -115 -55 -37 -12 -75 -28
-193 -81 -59 -26 -94 -24 -213 15 -57 18 -131 41 -164 51 -158 45 -239 69
-340 101 -193 60 -319 101 -355 117 -19 8 -80 29 -135 47 -55 18 -114 41 -131
51 -17 11 -41 19 -53 19 -11 0 -69 14 -128 30 -59 17 -157 39 -218 51 -145 27
-144 26 -138 48 7 27 86 99 178 164 44 31 92 65 107 76 14 12 48 25 75 30 26
6 75 15 108 22 64 12 180 57 223 87 23 15 47 18 152 18 117 -1 128 -3 170 -28
25 -14 56 -38 69 -52 l24 -26 -21 -23 c-32 -34 -61 -126 -50 -157 5 -13 79
-93 164 -177 140 -137 165 -157 252 -201 53 -28 117 -55 142 -62 25 -6 65 -19
90 -30 25 -10 92 -25 148 -34 93 -14 113 -14 185 0 45 8 91 18 103 23 19 8
136 165 217 293 20 32 57 82 81 112 24 30 47 69 51 88 4 20 25 50 54 78 65 63
133 162 170 248 28 64 32 83 30 149 l-2 75 41 18 42 19 0 56 c0 43 -6 67 -27
103 -30 51 -192 215 -235 238 -34 18 -36 44 -5 71 12 11 92 44 177 73 85 29
162 56 170 61 24 14 77 0 220 -56z m-1010 -7 c74 -27 185 -74 245 -103 95 -46
122 -65 201 -142 50 -48 108 -111 128 -139 34 -49 46 -96 27 -108 -12 -8 -194
32 -255 55 -27 10 -52 17 -55 15 -3 -3 -40 13 -81 33 -232 115 -363 206 -402
279 -54 98 -54 142 -3 162 25 10 27 10 195 -52z m1993 42 c31 -11 66 -20 77
-20 24 0 38 -26 22 -42 -8 -8 -22 -4 -49 15 -49 33 -92 44 -104 26 -7 -12 -11
-11 -25 3 -17 17 -12 38 9 38 7 0 38 -9 70 -20z m-488 -9 c3 -5 1 -12 -5 -16
-5 -3 -10 1 -10 9 0 18 6 21 15 7z m-1765 -94 c0 -7 13 -39 29 -72 31 -65 116
-154 189 -199 23 -14 61 -38 85 -53 77 -49 393 -148 462 -145 11 1 31 -6 44
-14 22 -15 23 -19 16 -97 -6 -68 -14 -97 -57 -186 -28 -58 -63 -124 -77 -146
-29 -45 -120 -165 -137 -180 -26 -24 -174 -225 -193 -264 -12 -23 -30 -50 -39
-59 -9 -10 -33 -37 -51 -61 -34 -41 -37 -42 -80 -37 -87 9 -271 42 -314 55
-18 5 -54 16 -82 24 -27 9 -70 18 -94 22 -51 7 -155 71 -245 152 -89 80 -186
191 -186 214 0 30 66 106 98 112 15 3 50 -1 77 -8 51 -15 148 -29 290 -45 63
-6 85 -5 103 6 27 17 29 44 4 44 -29 0 -34 12 -12 27 25 17 26 49 3 61 -10 5
-44 15 -76 22 -32 7 -54 16 -50 20 4 3 34 14 66 25 87 28 104 65 35 79 l-33 7
39 32 c35 30 37 34 22 46 -11 9 -52 15 -117 18 -93 3 -169 21 -169 40 1 19 28
54 66 87 26 22 60 69 89 123 63 120 82 149 141 224 28 35 65 85 83 112 28 41
35 46 52 37 10 -6 19 -16 19 -23z m2510 8 c0 -2 -9 -9 -20 -15 -16 -9 -20 -8
-20 5 0 8 9 15 20 15 11 0 20 -2 20 -5z m-139 -52 c-8 -15 -10 -15 -11 -2 0
17 10 32 18 25 2 -3 -1 -13 -7 -23z m201 -15 c-8 -29 -46 -78 -61 -78 -5 0 7
25 26 55 39 59 47 64 35 23z m-3647 12 c3 -5 1 -10 -4 -10 -6 0 -11 5 -11 10
0 6 2 10 4 10 3 0 8 -4 11 -10z m195 1 c0 -5 -9 -11 -20 -14 -22 -6 -28 8 -7
16 19 8 27 8 27 -2z m-145 -11 c3 -5 -1 -10 -9 -10 -9 0 -16 5 -16 10 0 6 4
10 9 10 6 0 13 -4 16 -10z m3529 -478 c10 -17 -82 -101 -149 -136 -38 -20 -77
-40 -85 -46 -28 -17 -129 -60 -197 -81 -37 -12 -92 -37 -123 -55 -30 -19 -59
-34 -64 -34 -5 0 -17 -7 -27 -16 -10 -9 -25 -14 -33 -12 -20 4 142 100 359
214 39 20 84 47 102 60 17 13 36 24 41 24 5 0 27 13 49 29 73 53 116 71 127
53z m-3328 -32 c30 -10 80 -19 267 -45 59 -9 117 -19 129 -24 21 -8 19 -10
-22 -31 -25 -13 -67 -25 -94 -27 -27 -2 -58 -9 -69 -15 -20 -10 -20 -11 -1
-25 15 -11 36 -12 99 -6 130 12 169 10 173 -9 2 -10 -6 -19 -20 -23 -72 -23
-128 -48 -128 -58 0 -13 54 -33 119 -43 48 -8 52 -17 12 -33 -37 -16 -132 -7
-201 18 -30 11 -67 22 -81 25 -15 3 -58 38 -99 80 -86 89 -100 108 -110 150
-4 17 -10 41 -14 54 -8 25 -2 27 40 12z m-1446 -88 c0 -23 84 -135 121 -162
58 -42 156 -69 264 -74 120 -6 245 -18 245 -24 0 -10 -184 -162 -267 -220 -17
-12 -40 -41 -51 -65 -21 -44 -48 -219 -37 -237 6 -10 6 -99 0 -175 -2 -22 -6
-105 -9 -184 -9 -216 -24 -229 -174 -155 -53 26 -114 58 -135 71 -47 29 -70
24 -65 -14 3 -24 15 -34 78 -65 41 -20 103 -46 137 -57 71 -23 125 -49 135
-65 9 -14 10 -88 2 -150 -6 -43 -9 -46 -36 -46 -16 0 -44 6 -62 14 -95 39
-384 68 -393 38 -3 -7 10 -18 29 -26 44 -19 275 -66 324 -67 53 0 109 -21 108
-39 -2 -15 -8 -41 -38 -172 -9 -36 -16 -81 -16 -100 0 -39 -46 -216 -61 -234
-6 -7 -58 -14 -137 -19 -70 -4 -145 -11 -167 -17 -50 -13 -383 -19 -391 -7 -6
11 36 147 78 249 30 75 94 247 105 285 4 11 24 54 46 95 22 41 48 102 59 135
35 104 105 249 137 281 36 37 38 48 11 92 -70 115 -101 381 -65 557 9 40 31
116 51 167 54 145 104 277 126 341 11 33 26 57 34 57 8 0 14 -4 14 -8z m-347
-89 c8 -10 25 -49 37 -88 11 -38 30 -88 40 -110 25 -50 25 -67 1 -135 -21 -58
-43 -257 -34 -301 5 -26 3 -27 -61 -34 -86 -9 -110 -1 -103 33 3 15 -3 41 -14
62 -22 42 -59 167 -57 195 1 17 -64 195 -107 293 -29 64 -24 66 124 81 45 5
85 11 88 15 13 13 71 5 86 -11z m4402 -203 c-10 -11 -26 -20 -36 -20 -10 0
-21 -4 -24 -10 -7 -12 -35 -13 -35 -2 0 9 103 62 109 56 2 -2 -4 -13 -14 -24z
m-105 -50 c0 -5 -7 -10 -16 -10 -8 0 -12 5 -9 10 3 6 10 10 16 10 5 0 9 -4 9
-10z m-42 -37 c-20 -20 -88 -44 -88 -32 0 13 62 49 85 49 18 0 18 -1 3 -17z
m-357 -183 c-25 -21 -46 -27 -36 -9 6 9 41 27 55 28 3 0 -6 -9 -19 -19z
m-3089 -44 c18 -8 83 -29 143 -46 61 -17 144 -42 185 -56 231 -77 389 -127
421 -134 19 -3 89 -27 155 -52 65 -26 153 -57 194 -71 41 -13 95 -32 120 -40
25 -9 63 -20 85 -26 119 -28 316 -85 352 -101 33 -15 41 -24 46 -51 2 -19 3
-36 0 -39 -6 -6 -214 63 -318 105 -44 18 -120 45 -170 60 -49 14 -99 30 -110
36 -11 5 -57 20 -102 33 -45 14 -104 34 -130 46 -26 11 -64 25 -83 30 -94 24
-265 73 -355 101 -55 17 -168 48 -252 69 -189 47 -263 79 -263 113 0 41 24 48
82 23z m2998 0 c0 -2 -7 -6 -15 -10 -8 -3 -15 -1 -15 4 0 6 7 10 15 10 8 0 15
-2 15 -4z m-54 -31 c-11 -8 -27 -15 -35 -15 -13 1 -12 4 3 15 11 8 27 15 35
15 13 -1 12 -4 -3 -15z m-176 -85 c0 -10 -67 -58 -120 -85 -19 -10 -53 -33
-75 -51 -22 -18 -52 -38 -65 -43 -14 -6 -63 -32 -110 -57 -47 -25 -121 -60
-165 -79 -44 -18 -100 -41 -125 -52 -25 -11 -58 -25 -75 -31 -16 -5 -68 -27
-115 -47 -120 -52 -118 -52 -130 -20 -6 15 -9 29 -8 30 2 0 71 30 153 64 172
72 312 138 540 254 222 112 251 125 278 126 9 1 17 -3 17 -9z m-2714 -50 c33
-10 105 -34 160 -53 54 -20 164 -50 244 -66 155 -32 347 -82 368 -94 6 -5 12
-23 12 -41 0 -39 18 -57 83 -85 26 -11 47 -25 47 -30 0 -5 14 -23 31 -40 26
-26 38 -31 80 -31 35 0 49 4 49 14 0 18 -17 31 -63 46 -21 6 -45 23 -54 37
-10 14 -41 37 -70 49 -51 23 -63 36 -44 48 5 3 51 -10 102 -30 152 -58 383
-139 543 -190 l148 -47 -6 -51 c-3 -28 -10 -114 -16 -191 -5 -77 -15 -195 -21
-262 -6 -68 -9 -141 -6 -162 9 -67 -4 -75 -93 -56 -80 18 -251 44 -338 52 -79
7 -86 33 -47 172 8 30 17 56 19 59 3 2 51 21 107 41 103 36 116 45 100 69 -7
12 -53 6 -241 -35 -61 -14 -157 -5 -230 20 -41 14 -93 29 -115 33 -22 4 -52
13 -66 20 -36 18 -103 42 -168 60 -30 8 -86 28 -125 45 -40 17 -114 36 -171
45 -55 9 -127 20 -160 25 -33 6 -86 11 -117 12 -32 1 -63 8 -69 14 -9 9 -13
90 -15 290 -2 153 -4 289 -6 303 -2 20 2 26 27 31 17 4 37 4 45 1 8 -2 42 -13
76 -22z m-840 -68 c14 -9 47 -128 68 -238 13 -72 13 -85 -1 -127 -19 -58 -38
-70 -84 -55 -19 6 -40 12 -46 14 -8 2 -13 19 -13 41 0 48 -18 220 -30 292 -7
38 -6 58 1 68 12 14 86 18 105 5z m4994 -108 c0 -8 -4 -14 -10 -14 -5 0 -10 9
-10 21 0 11 5 17 10 14 6 -3 10 -13 10 -21z m-1675 -71 c-3 -38 -11 -100 -17
-140 -6 -39 -8 -86 -5 -105 2 -18 -1 -80 -9 -138 -7 -58 -18 -150 -24 -205 -6
-55 -16 -122 -21 -148 -5 -26 -9 -66 -9 -87 0 -30 -5 -42 -21 -50 -76 -41
-242 -59 -554 -59 -162 0 -160 -1 -150 144 4 61 9 188 11 283 3 125 8 180 18
201 12 21 38 37 118 71 227 96 364 150 380 150 9 0 47 21 85 47 89 62 164 103
186 103 17 0 18 -6 12 -67z m1680 -153 c3 -5 1 -10 -4 -10 -6 0 -11 5 -11 10
0 6 2 10 4 10 3 0 8 -4 11 -10z m-55 -100 c0 -10 -4 -22 -10 -25 -6 -4 -10 7
-10 25 0 18 4 29 10 25 6 -3 10 -15 10 -25z m-4050 -201 c109 -11 193 -24 250
-38 25 -6 62 -11 84 -11 36 0 38 -1 32 -27 -4 -17 -37 -57 -84 -100 -75 -71
-78 -73 -129 -73 -28 0 -54 4 -57 9 -3 5 -20 11 -38 14 -178 31 -218 37 -247
37 l-34 0 6 89 c9 126 9 125 76 116 31 -3 94 -11 141 -16z m444 -161 c20 -23
45 -64 56 -92 10 -28 37 -95 60 -149 22 -55 40 -106 40 -114 0 -19 -69 -163
-90 -188 -10 -11 -20 -38 -23 -59 -11 -69 -11 -69 -217 -56 -175 11 -219 18
-247 42 -10 8 -5 20 25 53 60 64 73 146 47 301 -10 56 2 73 66 94 46 15 67 32
144 114 50 53 93 96 97 96 3 0 23 -19 42 -42z m250 -33 c57 -25 153 -47 269
-61 49 -5 57 -9 52 -24 -50 -156 -71 -354 -42 -393 11 -16 15 -15 49 8 55 37
62 34 54 -27 -4 -29 -9 -77 -13 -106 l-6 -54 -66 7 c-36 3 -109 6 -161 6 -52
0 -131 5 -176 11 l-80 12 36 90 c37 90 37 91 70 88 30 -2 32 -1 27 25 -5 27
-62 190 -105 300 -11 29 -39 80 -61 113 -23 33 -39 65 -36 69 5 9 91 -20 189
-64z m-719 -74 l50 -17 9 -115 c14 -184 14 -185 -49 -298 -31 -55 -61 -103
-65 -106 -14 -8 -263 -9 -288 -1 -27 9 -25 29 18 181 16 55 32 118 35 140 4
22 16 79 27 127 19 86 20 86 56 96 59 16 153 13 207 -7z m2330 -241 c-3 -5
-11 -10 -16 -10 -6 0 -7 5 -4 10 3 6 11 10 16 10 6 0 7 -4 4 -10z m-1261 -19
c3 -4 -4 -17 -15 -27 -17 -15 -22 -16 -29 -4 -5 9 -5 19 2 27 12 15 34 17 42
4z m137 -39 c-5 -10 -17 -24 -25 -32 -14 -11 -16 -8 -16 19 0 27 4 31 25 31
22 0 24 -3 16 -18z m619 2 c0 -9 -5 -14 -12 -12 -18 6 -21 28 -4 28 9 0 16 -7
16 -16z m110 0 c0 -9 -5 -14 -12 -12 -18 6 -21 28 -4 28 9 0 16 -7 16 -16z
m155 6 c10 -16 -15 -51 -33 -48 -21 4 -28 38 -10 49 18 12 35 11 43 -1z m-742
-51 c-34 -34 -53 -32 -53 7 0 22 4 24 42 24 l43 0 -32 -31z m1054 -25 c21 -20
55 -47 76 -60 58 -38 49 -50 -34 -47 -39 1 -76 6 -82 11 -7 5 -30 12 -52 15
-83 13 -95 19 -95 49 0 40 34 63 94 65 51 3 58 0 93 -33z m-862 16 c3 -6 3
-20 -1 -32 -6 -21 -7 -21 -20 -3 -8 10 -14 25 -14 32 0 15 26 18 35 3z m625
-57 c4 -40 10 -49 40 -66 19 -11 55 -24 80 -28 79 -13 85 -15 87 -35 2 -12
-14 -31 -45 -54 l-47 -34 -110 2 c-60 2 -198 3 -305 2 -145 -1 -200 2 -213 12
-27 20 -33 104 -12 167 13 42 20 51 34 46 39 -17 50 -16 63 4 15 24 38 28 38
6 0 -20 19 -19 42 2 19 17 21 17 50 0 38 -22 47 -22 75 5 l23 22 35 -34 35
-34 35 18 c19 11 42 30 51 44 21 32 36 17 44 -45z m-704 -12 c74 -74 108 -151
79 -180 -11 -12 -19 -10 -52 10 -56 35 -133 109 -133 129 0 17 53 70 70 70 4
0 21 -13 36 -29z m-186 -42 c14 -25 38 -65 53 -88 16 -24 27 -44 25 -46 -2 -2
-45 -1 -95 2 -105 7 -109 10 -97 106 9 77 9 79 51 75 34 -3 41 -8 63 -49z
m4111 -129 c45 0 50 -12 14 -28 -26 -12 -195 -17 -195 -6 0 3 5 15 11 26 10
19 17 20 72 14 33 -3 77 -6 98 -6z"/>
<path d="M2397 4978 c-35 -72 -38 -102 -10 -106 19 -3 23 3 29 45 l7 48 14
-33 c16 -40 34 -37 45 7 7 24 4 39 -9 61 -26 44 -47 38 -76 -22z"/>
<path d="M2724 4819 c-26 -26 -35 -29 -51 -20 -25 13 -33 6 -33 -32 0 -28 13
-60 81 -202 16 -33 29 -67 29 -75 0 -18 -39 -57 -82 -85 -42 -26 -36 -55 18
-89 61 -38 94 -91 104 -163 9 -72 26 -116 43 -110 14 5 14 10 -4 212 -8 83
-12 174 -9 204 5 46 1 66 -28 135 -42 103 -46 116 -35 116 5 0 15 -16 22 -35
15 -42 32 -44 77 -10 41 32 52 74 28 115 -28 47 -54 35 -54 -26 0 -21 -3 -23
-19 -14 -11 5 -27 7 -35 4 -24 -9 -19 11 10 45 50 60 -6 86 -62 30z"/>
<path d="M2307 4780 c-33 -30 -57 -61 -60 -79 -4 -19 -18 -35 -41 -49 -37 -22
-57 -65 -38 -84 10 -10 52 9 52 24 0 4 16 23 35 43 31 30 37 33 42 17 21 -59
34 -83 49 -89 23 -9 55 35 47 65 -4 17 1 28 16 38 21 15 30 64 11 64 -6 0 -8
15 -4 38 5 34 3 39 -21 50 -14 7 -28 12 -30 12 -2 0 -28 -22 -58 -50z"/>
<path d="M2136 4724 c-30 -30 -12 -64 30 -56 27 5 31 27 10 55 -16 21 -20 21
-40 1z"/>
<path d="M2486 4417 c-25 -33 -93 -87 -109 -87 -4 0 -16 20 -27 45 -21 49 -46
59 -56 21 -6 -25 14 -74 40 -95 19 -16 47 -99 55 -165 5 -43 10 -52 28 -54 18
-3 23 3 29 33 3 19 3 68 -1 108 l-6 73 40 27 c49 33 74 68 69 99 -5 35 -33 33
-62 -5z"/>
<path d="M2677 3703 c-3 -5 -8 -23 -12 -41 -5 -24 -13 -33 -33 -38 -15 -3 -37
-10 -50 -15 -34 -13 -98 8 -128 43 -16 20 -31 28 -46 26 -20 -3 -23 -9 -22
-45 0 -23 5 -48 12 -55 6 -8 54 -22 105 -32 87 -17 98 -18 134 -4 36 15 40 15
62 -3 18 -14 27 -17 35 -9 14 14 12 110 -3 138 -13 24 -47 46 -54 35z"/>
<path d="M2546 3434 c-6 -17 9 -54 23 -54 4 0 16 9 26 20 15 16 15 22 5 35
-16 20 -46 19 -54 -1z"/>
<path d="M3397 3403 c-15 -15 -5 -23 27 -23 47 0 72 10 54 21 -16 10 -72 12
-81 2z"/>
<path d="M3590 3385 c0 -17 50 -45 80 -45 30 0 26 38 -6 50 -38 15 -74 12 -74
-5z"/>
<path d="M1850 2510 c-29 -41 -13 -63 39 -54 51 9 71 22 71 44 0 14 -11 22
-37 29 -51 14 -49 15 -73 -19z"/>
<path d="M3206 2928 c-26 -44 -46 -92 -46 -109 0 -5 13 -9 30 -9 36 0 51 -23
39 -64 -9 -31 -4 -66 10 -66 16 0 83 122 88 161 6 40 -9 53 -33 29 -5 -5 -20
-7 -33 -3 -24 6 -24 14 -5 81 11 39 -23 25 -50 -20z"/>
<path d="M3347 2709 c-28 -16 -47 -64 -47 -118 0 -40 4 -52 20 -61 52 -28 164
79 158 149 l-3 36 -55 2 c-30 2 -63 -2 -73 -8z m69 -63 c7 -18 -24 -66 -42
-66 -23 0 -27 26 -9 54 19 29 43 34 51 12z"/>
<path d="M3525 2613 c-10 -16 -35 -51 -56 -79 -22 -28 -39 -56 -39 -62 0 -19
25 -14 45 8 27 30 59 22 63 -15 7 -59 21 -60 71 -4 60 68 65 77 51 94 -11 13
-16 12 -37 -5 -37 -29 -43 -25 -43 29 0 35 -4 51 -16 55 -21 8 -20 9 -39 -21z"/>
<path d="M3638 2416 c-51 -103 -51 -104 -34 -130 22 -35 74 -66 109 -66 38 0
34 12 -18 54 -25 21 -45 42 -45 47 0 14 38 11 72 -7 20 -10 34 -12 40 -6 13
13 -8 52 -27 52 -23 0 -34 30 -23 62 12 33 15 34 48 8 44 -35 80 -19 48 22
-18 21 -90 68 -105 68 -7 0 -36 -47 -65 -104z"/>
<path d="M3847 2423 c-4 -3 -7 -36 -7 -71 0 -36 -5 -80 -12 -98 -9 -25 -9 -39
0 -58 18 -40 43 -26 66 39 16 46 27 60 46 65 36 10 110 58 117 76 3 8 1 20 -6
27 -8 8 -27 3 -75 -20 -67 -33 -76 -33 -76 2 0 33 -34 58 -53 38z"/>
<path d="M4729 3891 c-22 -18 -22 -20 -6 -26 20 -8 71 21 62 35 -10 15 -31 12
-56 -9z"/>
<path d="M12364 219 c-3 -5 -33 -9 -67 -9 -34 0 -80 -5 -102 -11 -22 -6 -53
-11 -70 -10 -16 1 -64 -4 -105 -10 -133 -20 -225 -26 -237 -17 -7 6 -23 4 -41
-6 -16 -8 -32 -13 -35 -10 -2 3 -45 -2 -93 -10 -49 -8 -186 -17 -304 -21 -263
-7 -409 -24 -431 -51 -18 -22 27 -32 108 -23 77 8 213 15 453 24 301 10 388
16 505 30 244 29 412 45 485 45 81 0 166 20 164 39 -1 6 -2 15 -2 21 -3 17
-218 35 -228 19z"/>
<path d="M12644 221 c-8 -8 -4 -40 6 -46 5 -3 18 -1 28 4 13 7 22 7 30 -1 19
-19 40 7 26 30 -10 16 -77 26 -90 13z"/>
</g>
</svg>
