<?xml version="1.0" standalone="no"?>
<!DOCTYPE svg PUBLIC "-//W3C//DTD SVG 20010904//EN"
 "http://www.w3.org/TR/2001/REC-SVG-20010904/DTD/svg10.dtd">
<svg version="1.0" xmlns="http://www.w3.org/2000/svg"
 width="1280.000000pt" height="962.000000pt" viewBox="0 0 1280.000000 962.000000"
 preserveAspectRatio="xMidYMid meet">
<metadata>
Created by potrace 1.15, written by Peter Selinger 2001-2017
</metadata>
<g transform="translate(0.000000,962.000000) scale(0.100000,-0.100000)"
fill="#000000" stroke="none">
<path d="M7620 9610 c-50 -8 -246 -106 -396 -199 -55 -34 -104 -65 -111 -69
-6 -4 -82 -55 -168 -115 -85 -59 -178 -120 -205 -135 -27 -15 -109 -61 -182
-102 -73 -42 -158 -87 -188 -100 -65 -29 -174 -97 -212 -133 -20 -19 -28 -36
-28 -60 0 -19 -7 -53 -15 -76 -27 -79 -35 -188 -19 -271 l15 -75 -36 -32 c-20
-17 -68 -48 -108 -69 -39 -20 -96 -56 -126 -79 -73 -55 -248 -164 -347 -216
-146 -77 -234 -155 -234 -206 0 -24 7 -37 25 -49 23 -15 30 -15 78 -1 28 9
104 30 167 47 115 31 225 72 268 98 20 13 25 13 44 -4 48 -43 108 -107 108
-116 0 -28 -37 -70 -96 -109 -77 -49 -140 -124 -150 -175 -4 -23 -25 -53 -65
-94 -33 -33 -59 -66 -59 -73 1 -24 36 -56 74 -69 35 -12 41 -18 51 -59 7 -25
24 -66 39 -92 30 -51 132 -134 175 -142 14 -3 40 -10 57 -15 17 -6 41 -10 53
-10 12 0 31 -4 41 -10 17 -9 18 -24 17 -160 -1 -140 1 -152 20 -172 12 -11 25
-18 31 -14 5 3 13 65 17 138 9 143 12 182 14 198 0 6 12 10 25 10 19 0 36 16
73 68 26 37 55 73 64 79 37 28 97 242 96 345 0 90 14 120 68 138 47 15 101 5
131 -25 20 -20 24 -34 24 -87 0 -165 115 -409 212 -450 18 -7 57 -26 87 -41
78 -40 123 -47 296 -48 131 0 159 2 196 19 24 11 60 22 81 26 20 4 81 29 135
55 76 38 110 62 148 104 72 79 91 106 120 173 14 32 30 61 36 65 11 6 175 4
662 -7 l268 -7 33 -41 c53 -64 79 -121 71 -155 -9 -44 17 -94 91 -174 37 -40
77 -86 90 -102 l23 -31 -33 -84 c-27 -73 -32 -95 -28 -152 3 -55 8 -71 29 -92
31 -31 43 -32 112 -7 l53 20 -7 -52 c-4 -29 -13 -59 -19 -67 -7 -8 -49 -57
-94 -107 -67 -76 -93 -115 -141 -215 -32 -68 -75 -163 -94 -213 -67 -168 -96
-212 -199 -298 -72 -60 -127 -94 -244 -152 -84 -41 -157 -82 -164 -90 -6 -7
-35 -21 -63 -31 -29 -9 -67 -28 -86 -42 -41 -31 -95 -51 -136 -51 l-30 0 40
32 c22 17 53 45 70 61 16 16 52 36 79 46 37 12 52 23 56 40 4 15 16 27 35 32
17 5 72 30 122 56 71 36 93 52 93 67 0 31 20 45 64 45 46 0 49 2 111 55 36 30
43 41 33 52 -15 19 -1 31 41 35 43 4 49 21 18 52 -36 35 -109 43 -170 17 -56
-24 -61 -41 -11 -41 52 0 33 -16 -27 -23 -64 -8 -164 -53 -215 -99 -22 -18
-66 -54 -99 -78 -33 -24 -66 -52 -73 -62 -7 -10 -23 -18 -36 -18 -34 0 -134
-56 -191 -107 -60 -54 -194 -140 -233 -149 -15 -4 -57 -22 -93 -41 -63 -33
-68 -34 -110 -23 -30 9 -83 10 -165 6 -109 -6 -123 -4 -145 13 -30 23 -91 41
-142 41 -59 0 -112 41 -137 107 -11 29 -20 59 -20 66 0 7 -12 32 -25 56 -15
25 -22 48 -17 53 5 5 47 18 93 29 120 28 339 104 444 153 137 65 206 144 240
276 23 87 16 193 -14 223 l-21 21 -57 -55 c-86 -83 -168 -121 -354 -164 -63
-14 -121 -30 -129 -34 -15 -8 -16 -23 -9 -85 3 -24 -1 -32 -21 -43 -21 -10
-27 -10 -40 2 -12 13 -12 20 -1 51 21 57 5 62 -86 30 -94 -32 -156 -51 -243
-71 -36 -8 -99 -25 -141 -37 -42 -11 -84 -18 -92 -15 -9 3 -21 23 -27 45 -11
35 -10 41 15 77 22 33 80 73 108 75 4 0 40 15 80 34 40 18 92 37 117 41 25 4
67 16 93 26 26 11 71 19 100 19 74 0 118 15 147 50 21 26 35 32 94 41 54 7 82
18 129 49 32 22 63 40 68 40 19 0 79 50 167 138 50 50 96 92 102 92 13 0 60
71 60 92 0 28 -28 22 -94 -21 -34 -21 -83 -47 -111 -57 -27 -9 -55 -21 -61
-26 -34 -25 -215 -71 -294 -75 -161 -7 -228 -5 -261 6 -57 19 -321 83 -364 88
-63 8 -68 18 -41 72 42 82 59 158 52 230 -7 82 -22 100 -58 71 l-26 -20 24
-44 c24 -42 24 -45 10 -100 -8 -30 -19 -64 -25 -73 -18 -33 -24 12 -11 83 14
73 4 102 -22 62 -26 -41 -38 -90 -38 -160 0 -193 -132 -266 -220 -122 -12 19
-27 33 -34 31 -19 -7 -7 -48 30 -98 l36 -49 -53 -60 c-73 -84 -110 -110 -156
-110 -66 1 -207 35 -253 61 -43 25 -240 118 -268 128 -19 6 -47 22 -64 36 -17
14 -53 37 -80 51 -27 14 -51 31 -55 40 -3 8 -33 30 -67 50 -33 20 -71 49 -84
65 -13 16 -28 29 -35 29 -6 0 -42 19 -81 42 -38 23 -115 61 -170 83 -100 40
-136 62 -264 162 -115 90 -439 253 -502 253 -14 0 -51 7 -80 16 -69 20 -165
14 -280 -18 -72 -20 -98 -34 -169 -88 -46 -36 -103 -79 -127 -96 -54 -38 -94
-80 -94 -99 0 -8 -8 -36 -18 -62 -11 -28 -18 -71 -17 -105 1 -52 5 -60 49
-109 93 -104 174 -139 316 -139 100 0 109 -3 190 -65 103 -80 215 -123 388
-151 l102 -17 58 -80 c31 -44 75 -102 97 -130 22 -28 54 -69 72 -93 35 -46
192 -206 293 -298 40 -36 105 -80 170 -113 58 -30 135 -71 172 -90 37 -19 118
-47 181 -62 63 -16 123 -34 135 -40 11 -6 29 -11 40 -11 11 0 25 -6 31 -14 6
-8 26 -16 44 -19 53 -8 177 -36 272 -61 50 -14 124 -32 165 -40 44 -10 86 -26
102 -39 25 -20 28 -31 36 -117 5 -52 5 -113 0 -135 -35 -169 -39 -406 -10
-535 10 -46 17 -123 18 -200 2 -157 0 -143 29 -179 17 -19 44 -35 79 -45 29
-9 58 -21 63 -28 9 -13 57 -125 94 -220 16 -41 16 -48 3 -59 -12 -10 -36 -5
-127 24 -125 39 -178 43 -295 21 -42 -8 -106 -19 -142 -25 -36 -6 -76 -17 -90
-24 -14 -8 -59 -30 -101 -49 -68 -32 -82 -43 -133 -111 -61 -82 -139 -250
-154 -336 -12 -66 11 -348 33 -414 10 -27 26 -73 36 -100 11 -28 19 -62 19
-77 0 -15 5 -30 10 -33 6 -4 9 -12 8 -18 -1 -7 9 -48 24 -92 49 -148 60 -200
65 -286 8 -164 -2 -170 -322 -172 -168 -1 -241 2 -270 12 -85 28 -183 81 -271
146 -22 16 -66 44 -97 60 -81 43 -76 59 16 51 248 -19 854 -40 881 -30 47 18
-28 41 -129 39 -33 -1 -100 2 -150 7 -117 10 -173 15 -390 33 -266 23 -475 10
-548 -32 -32 -19 -32 -20 -29 -90 5 -92 -8 -108 -69 -86 -23 8 -88 17 -143 20
-67 4 -107 11 -118 20 -11 10 -27 13 -46 9 -16 -4 -40 -2 -55 3 -22 9 -125 26
-212 35 -11 2 -27 5 -35 8 -8 4 -44 9 -80 13 -75 7 -126 23 -194 59 -54 29
-89 32 -125 12 -28 -15 -54 -105 -74 -251 l-12 -90 -60 1 c-124 3 -302 14
-365 24 -105 16 -149 20 -265 24 -61 2 -120 8 -130 13 -44 23 -71 33 -90 33
-11 0 -45 2 -76 6 -52 6 -57 5 -77 -21 -14 -18 -22 -42 -22 -69 -1 -22 -5 -61
-11 -86 -5 -25 -15 -79 -22 -120 -8 -41 -22 -91 -32 -110 -11 -19 -24 -60 -30
-90 -11 -52 -13 -55 -41 -53 -16 0 -62 3 -102 4 -41 2 -75 6 -77 9 -2 4 -37 5
-78 4 l-74 -3 13 39 c8 22 23 77 35 122 12 46 24 88 28 93 4 6 5 45 2 88 -5
71 -9 81 -34 101 -15 12 -27 29 -27 38 0 8 -19 31 -42 50 -24 20 -64 55 -89
79 -25 24 -81 71 -125 104 -143 109 -244 233 -244 302 0 16 -3 39 -7 52 -6 22
-9 23 -57 16 -28 -3 -54 -9 -58 -13 -4 -4 0 -38 8 -77 8 -38 17 -104 19 -145
5 -76 18 -196 35 -329 5 -41 19 -89 30 -108 11 -19 20 -40 20 -47 0 -7 23 -55
52 -107 36 -64 72 -113 115 -154 35 -34 63 -66 63 -72 0 -16 -46 -24 -105 -17
-27 3 -165 7 -305 9 -140 2 -262 6 -270 9 -85 27 -104 7 -114 -126 -10 -116
-11 -128 -24 -208 -6 -36 -10 -76 -9 -90 4 -84 -3 -118 -25 -126 -13 -4 -131
-10 -263 -13 -230 -6 -240 -7 -243 -26 -1 -11 4 -29 11 -39 14 -19 27 -20 277
-17 271 2 289 5 309 46 6 11 15 93 21 181 6 89 14 174 19 190 10 39 38 43 51
8 22 -56 212 -348 290 -444 44 -54 120 -165 137 -200 13 -27 127 -188 208
-294 27 -36 60 -71 73 -78 21 -11 26 -10 38 7 21 29 17 48 -16 70 -16 11 -30
24 -30 29 0 10 -74 113 -122 171 -16 18 -28 39 -28 47 0 8 -9 23 -20 33 -11
10 -20 23 -20 30 0 7 -9 20 -21 31 -12 10 -29 35 -38 54 -10 19 -23 34 -29 32
-7 -1 -12 9 -12 24 0 14 -9 38 -21 52 -11 15 -39 56 -62 91 -23 36 -49 74 -57
86 -8 12 -32 48 -54 81 -21 32 -49 70 -61 84 -12 14 -29 37 -36 52 -8 15 -31
57 -52 94 -21 36 -37 76 -35 87 3 19 9 21 88 20 47 -1 190 -7 318 -13 128 -6
236 -9 240 -6 7 4 216 -9 272 -18 14 -2 106 -9 205 -16 170 -12 182 -14 212
-39 57 -45 474 -425 574 -522 53 -52 134 -128 180 -169 45 -41 179 -169 296
-285 202 -198 216 -210 253 -211 50 -2 68 17 50 51 -14 26 -223 231 -357 350
-82 73 -356 325 -623 575 -85 80 -195 180 -243 224 -48 43 -92 87 -98 98 -11
21 17 161 50 246 10 26 21 64 25 84 4 21 11 40 16 43 20 12 110 -65 340 -289
109 -107 246 -226 330 -286 81 -59 152 -119 194 -167 22 -25 63 -64 91 -85 59
-46 297 -270 440 -414 175 -176 355 -365 355 -374 0 -21 27 -29 48 -14 28 19
28 41 0 68 -13 12 -72 78 -133 146 -138 156 -408 425 -457 457 -21 13 -38 30
-38 38 0 8 -6 15 -12 15 -7 0 -44 28 -81 63 -99 91 -157 140 -197 167 -19 13
-53 42 -76 64 -22 23 -64 61 -94 86 -78 66 -159 140 -300 276 -69 66 -158 151
-198 189 -51 49 -72 75 -70 90 3 23 9 23 143 6 187 -24 462 -49 505 -46 71 4
292 -17 320 -31 14 -6 76 -59 138 -116 62 -56 141 -127 175 -157 34 -29 103
-91 152 -136 50 -46 108 -98 130 -115 22 -17 47 -39 55 -49 8 -10 42 -39 75
-64 158 -123 553 -457 703 -594 68 -63 154 -138 190 -167 37 -30 83 -70 101
-90 19 -20 39 -36 43 -36 5 0 43 -30 86 -66 107 -92 175 -122 202 -89 20 24 1
53 -67 105 -37 28 -73 59 -80 70 -8 11 -19 20 -25 20 -10 0 -37 21 -133 105
-27 24 -88 76 -135 116 -47 40 -116 100 -155 135 -160 145 -298 262 -367 311
-40 29 -98 75 -128 103 -60 56 -181 150 -245 191 -22 14 -46 33 -54 43 -8 10
-33 27 -55 38 -21 11 -69 49 -105 84 -36 35 -93 89 -126 120 -33 31 -104 98
-158 150 -54 52 -109 100 -122 107 -29 15 -102 97 -113 126 -8 21 8 235 18
245 10 9 85 -22 139 -58 29 -20 58 -36 64 -36 12 0 51 -25 242 -155 61 -41
148 -101 195 -133 101 -69 256 -178 398 -279 56 -40 104 -73 107 -73 7 0 71
-46 220 -159 75 -57 158 -115 184 -129 69 -39 113 -69 141 -96 14 -13 60 -49
102 -79 42 -30 92 -66 110 -81 18 -15 125 -90 238 -167 288 -196 301 -205 335
-232 17 -14 47 -34 67 -45 21 -12 62 -41 92 -66 31 -25 83 -64 118 -87 35 -23
88 -63 119 -90 71 -61 153 -109 184 -109 21 0 25 5 25 28 0 24 -15 38 -107
105 -109 78 -180 127 -308 213 -38 26 -98 74 -133 106 -34 32 -67 58 -72 58
-5 0 -63 40 -128 89 -65 48 -130 94 -144 102 -15 8 -41 27 -60 42 -40 34 -78
60 -188 128 -47 28 -122 81 -168 116 -45 34 -86 63 -91 63 -5 0 -30 16 -55 35
-26 19 -49 35 -52 35 -3 0 -32 20 -65 45 -59 45 -201 136 -229 147 -8 3 -50
31 -93 62 -43 31 -82 56 -87 56 -5 0 -29 16 -54 35 -26 19 -48 35 -51 35 -3 0
-13 7 -22 15 -10 9 -70 50 -133 92 -156 103 -293 203 -303 219 -4 8 -16 14
-25 14 -9 0 -35 16 -56 35 -22 19 -42 35 -45 35 -3 0 -19 12 -35 26 -23 21
-26 28 -15 35 19 12 59 11 111 -1 24 -5 94 -19 156 -30 157 -28 326 -59 397
-72 65 -12 103 -28 151 -64 17 -13 36 -24 42 -24 6 0 25 -12 42 -26 30 -26 64
-46 160 -95 25 -13 107 -65 183 -116 76 -51 191 -121 255 -155 64 -34 151 -83
192 -108 41 -26 125 -73 185 -105 61 -31 119 -65 130 -75 32 -27 126 -76 207
-108 42 -16 82 -34 89 -40 33 -27 213 -146 314 -208 207 -127 321 -211 470
-346 28 -27 55 -48 58 -48 4 0 27 -16 53 -35 28 -22 57 -35 75 -35 55 0 43 12
-161 163 -47 34 -101 77 -120 94 -53 48 -350 253 -366 253 -4 0 -16 8 -26 17
-20 18 -128 84 -293 179 -55 31 -116 67 -135 79 -19 12 -50 27 -68 33 -29 10
-200 111 -303 179 -19 12 -38 23 -41 23 -3 0 -43 22 -89 48 -46 27 -109 60
-139 75 -63 31 -122 65 -206 122 -32 21 -70 45 -83 52 -13 7 -58 37 -100 67
-42 29 -90 60 -107 69 -17 9 -64 43 -104 75 -40 33 -84 66 -99 73 -61 30 -69
45 -65 117 2 50 7 70 21 80 37 27 61 25 111 -7 27 -17 53 -31 58 -31 10 0 211
-116 252 -145 20 -14 22 -23 17 -58 -9 -67 14 -115 81 -170 32 -26 83 -56 113
-68 62 -23 280 -71 292 -64 11 7 88 -22 117 -45 47 -37 345 -231 387 -252 22
-11 74 -44 115 -73 75 -52 311 -185 328 -185 5 0 59 -33 119 -72 61 -40 132
-85 159 -100 27 -15 108 -62 179 -104 169 -99 443 -254 450 -254 3 0 5 7 5 15
0 8 -6 15 -12 15 -9 0 -9 3 1 9 12 8 11 13 -10 31 -13 11 -37 28 -54 37 -16 8
-74 44 -127 79 -89 58 -143 90 -287 166 -30 16 -70 40 -88 54 -19 14 -71 46
-116 70 -45 25 -93 53 -107 63 -14 10 -70 44 -125 76 -55 31 -129 77 -165 100
-36 24 -89 53 -118 65 -29 13 -50 25 -46 29 3 3 36 6 72 7 37 0 165 3 285 5
l218 5 29 -36 c28 -35 30 -36 152 -54 136 -19 156 -16 199 30 32 35 50 69 59
109 6 29 8 30 95 42 130 17 499 28 805 23 400 -7 568 -5 640 9 58 11 167 20
425 35 44 3 148 10 230 16 183 13 491 26 505 22 6 -2 8 -8 4 -13 -3 -5 -59 -9
-124 -9 -65 0 -121 -4 -125 -10 -19 -31 222 -45 288 -17 46 20 48 42 5 91 -32
36 -36 37 -123 46 -143 15 -664 13 -1112 -4 -18 0 -34 4 -35 9 -1 6 38 44 88
86 l90 76 130 6 c71 4 217 7 324 8 107 1 240 4 295 8 85 6 104 5 125 -10 68
-45 418 -202 437 -195 38 15 -18 58 -120 93 -40 13 -96 37 -124 53 -29 17 -59
30 -67 30 -26 0 -66 23 -66 37 0 8 -9 26 -19 41 -17 24 -20 54 -26 280 -6 249
-6 252 14 252 27 0 291 -55 361 -76 30 -8 78 -20 105 -24 28 -5 102 -20 165
-33 63 -14 160 -32 215 -40 55 -9 134 -23 175 -32 163 -33 227 -45 285 -51 33
-3 83 -12 110 -20 28 -8 94 -19 147 -25 53 -5 175 -26 270 -45 224 -46 350
-71 468 -90 52 -9 111 -19 130 -24 69 -17 85 -19 100 -10 27 17 -14 44 -77 51
-32 3 -112 20 -178 37 -66 17 -140 33 -165 37 -25 3 -92 17 -150 31 -126 29
-428 83 -525 94 -38 4 -112 19 -164 34 -52 14 -98 23 -103 20 -5 -3 -14 -1
-21 5 -13 10 -108 33 -242 57 -142 25 -488 74 -525 74 -19 0 -57 7 -84 15 -27
8 -69 15 -93 15 -37 0 -44 3 -41 18 2 9 11 16 20 16 9 -1 98 4 199 12 101 7
186 11 191 8 4 -2 35 0 70 5 57 9 178 17 378 25 41 2 154 11 250 21 325 32
326 32 419 13 47 -10 115 -18 151 -18 36 0 93 -7 125 -16 33 -8 68 -13 77 -11
15 4 107 -11 198 -33 19 -4 91 -18 160 -30 69 -11 148 -29 175 -40 31 -11 92
-21 162 -25 61 -4 145 -15 185 -26 40 -10 98 -24 128 -30 50 -10 125 -33 174
-54 16 -7 17 -5 12 23 -4 18 -3 33 3 37 27 16 9 27 -33 21 -27 -4 -47 -3 -51
4 -3 5 -23 10 -43 10 -42 0 -337 50 -482 81 -52 11 -108 22 -125 24 -16 3 -43
7 -59 11 -16 3 -40 7 -55 9 -14 1 -60 10 -101 20 -41 10 -97 21 -125 25 -27 5
-70 13 -95 19 -25 6 -67 11 -94 11 -63 0 -214 19 -243 31 -19 7 -23 16 -23 56
-1 27 -7 81 -14 121 -9 55 -10 75 -1 82 8 7 62 5 156 -5 79 -8 223 -22 319
-30 96 -8 211 -19 255 -24 44 -5 120 -12 169 -16 49 -3 93 -8 98 -11 10 -7
228 -34 268 -33 22 0 23 1 9 12 -23 17 -236 50 -689 105 -138 16 -223 31 -220
37 3 6 10 8 15 6 6 -3 107 -3 225 -2 118 2 233 4 255 4 22 0 83 -5 135 -11 52
-6 145 -12 205 -12 61 0 141 -5 180 -10 78 -12 125 -6 125 16 0 8 12 19 28 25
l27 11 -28 14 c-30 16 -53 9 -95 -29 l-23 -21 -23 29 -24 30 -259 -2 c-645 -4
-1064 -3 -1073 2 -15 10 -94 -13 -107 -31 -9 -12 -13 -57 -13 -140 0 -98 -3
-124 -16 -135 -8 -7 -60 -16 -117 -20 -56 -5 -158 -12 -227 -18 -69 -5 -163
-10 -209 -11 -47 0 -88 -3 -93 -6 -15 -10 -472 -36 -738 -43 -314 -8 -337 -14
-289 -76 12 -15 22 -39 22 -53 -1 -15 -4 -125 -8 -245 -7 -177 -11 -222 -24
-238 -15 -18 -36 -20 -286 -26 -312 -8 -374 -7 -383 2 -12 11 39 45 86 58 28
7 47 19 52 32 7 17 104 139 160 201 21 22 130 232 130 249 0 6 21 56 47 112
l48 103 34 -6 34 -7 -5 89 c-5 72 -2 96 12 124 10 19 24 50 31 69 7 18 34 70
61 114 26 44 48 83 48 87 0 4 8 14 18 23 15 13 28 15 79 7 35 -4 77 -5 95 0
18 5 51 13 73 19 53 14 82 42 96 94 6 23 18 58 26 77 20 45 42 245 43 375 0
55 7 152 15 215 8 63 20 169 25 235 6 66 14 149 19 185 12 82 26 230 24 250
-5 42 20 304 37 388 11 54 20 106 20 117 0 24 84 200 136 288 65 109 88 140
151 214 34 39 74 91 90 114 15 23 35 52 43 64 8 12 56 64 107 116 127 131 224
253 256 323 9 21 31 60 48 86 25 39 39 50 73 59 45 11 70 33 120 105 17 25 59
81 94 125 34 44 62 83 62 88 0 4 17 31 38 58 21 28 48 69 61 92 20 34 33 45
81 62 31 12 61 21 66 21 5 0 25 8 44 19 19 10 52 24 73 30 21 7 57 23 80 36
23 13 53 26 66 30 13 4 53 27 89 52 36 24 82 53 102 63 21 11 85 67 143 125
112 113 167 197 167 258 0 19 7 40 16 48 8 7 22 26 30 42 14 26 14 31 0 46
-15 17 -20 17 -99 -4 -46 -13 -117 -28 -158 -35 -41 -6 -121 -20 -179 -30 -58
-11 -141 -24 -185 -31 -44 -6 -114 -22 -155 -35 -103 -33 -110 -32 -110 12 0
36 7 69 36 168 20 70 19 96 -7 96 -12 0 -34 -11 -51 -25 -47 -39 -196 -214
-204 -238 -4 -12 -17 -36 -30 -53 -13 -16 -44 -74 -69 -127 -32 -66 -52 -97
-63 -97 -38 0 -95 -23 -126 -51 -19 -16 -38 -29 -43 -29 -5 0 -24 -16 -43 -35
-19 -19 -40 -35 -47 -35 -7 0 -13 -6 -13 -12 0 -7 -17 -23 -39 -35 -21 -12
-123 -105 -227 -206 -104 -101 -217 -207 -251 -235 -34 -28 -64 -56 -68 -62
-3 -5 -38 -34 -78 -64 -40 -31 -91 -72 -114 -93 -23 -21 -56 -49 -73 -62 l-32
-24 -20 20 c-20 21 -26 45 -69 272 -23 123 -23 123 -3 140 11 9 28 28 36 42
14 22 27 27 76 33 115 13 181 92 201 239 23 165 14 234 -38 316 -18 28 -39 79
-47 113 -10 40 -26 78 -47 103 -29 36 -33 49 -38 125 -5 74 -3 94 18 155 28
79 28 83 18 145 -7 44 -6 45 25 57 29 11 31 15 25 43 -6 29 -6 31 13 19 17
-11 25 -9 56 15 50 38 64 66 40 83 -10 7 -24 13 -31 13 -16 0 -17 12 -1 28 9
9 7 17 -8 33 -22 26 -174 99 -203 99 -12 0 -38 15 -58 33 -45 40 -112 79 -179
105 -27 11 -87 37 -134 59 -47 22 -107 49 -135 60 -186 79 -225 99 -225 115 0
20 16 24 22 7 3 -9 9 -9 26 0 11 6 67 20 124 32 233 46 514 125 557 156 44 34
54 119 21 191 -32 70 -133 177 -183 193 -23 7 -49 14 -57 14 -8 0 -53 12 -100
27 -74 22 -110 27 -272 32 -226 8 -414 -12 -598 -65 -36 -10 -78 -20 -93 -23
-15 -3 -93 -21 -172 -41 l-145 -37 -28 24 c-15 12 -104 89 -197 169 -237 204
-328 250 -455 229z m-110 -170 c0 -5 -5 -10 -11 -10 -5 0 -7 5 -4 10 3 6 8 10
11 10 2 0 4 -4 4 -10z m-308 -133 c-30 -30 -32 -30 -32 -10 0 14 10 28 28 37
39 21 41 10 4 -27z m146 -7 c-47 -45 -50 -51 -35 -63 16 -11 13 -17 -33 -61
-56 -54 -66 -82 -24 -72 22 6 25 4 19 -13 -3 -11 -1 -22 4 -25 5 -4 -1 -22
-15 -44 -18 -28 -47 -49 -107 -80 -45 -23 -89 -44 -97 -47 -8 -2 -22 -9 -30
-14 -23 -14 -475 -191 -487 -191 -13 0 -269 -102 -312 -124 -16 -9 -32 -13
-34 -8 -3 4 2 46 11 94 l16 87 126 64 c330 168 535 291 715 427 37 28 70 48
73 45 3 -3 -2 -19 -12 -35 -36 -62 24 -70 89 -12 58 51 157 122 172 122 7 0
-10 -23 -39 -50z m745 -16 c52 -51 67 -72 67 -95 0 -22 -5 -29 -20 -29 -11 0
-47 -11 -80 -24 -32 -13 -74 -27 -92 -31 -18 -4 -71 -22 -118 -39 -140 -54
-154 -58 -179 -57 -13 0 -40 -8 -60 -18 -20 -11 -63 -26 -96 -35 -34 -9 -125
-45 -204 -81 -79 -36 -151 -65 -161 -65 -10 0 -22 -6 -28 -13 -15 -17 -405
-207 -427 -207 -3 0 -27 -16 -52 -35 -25 -19 -51 -35 -56 -35 -21 0 -214 -94
-279 -137 -67 -43 -101 -53 -114 -32 -3 6 -9 37 -11 70 l-5 58 58 27 c33 14
82 34 109 44 28 10 90 37 140 60 49 24 99 44 110 46 18 2 217 77 290 109 17 7
55 21 85 30 30 9 174 75 320 147 191 94 281 144 322 179 31 27 61 49 66 49 5
0 21 9 34 20 14 10 45 27 69 37 65 27 199 103 199 114 0 5 10 9 23 9 14 0 47
-24 90 -66z m1147 -34 c-14 -4 -38 -8 -55 -8 -29 0 -29 0 -5 8 14 4 39 8 55 8
29 0 29 0 5 -8z m-700 -76 c0 -8 -4 -13 -10 -9 -5 3 -17 2 -27 -3 -10 -5 -47
-17 -83 -26 -36 -10 -78 -21 -95 -26 -115 -34 -183 -45 -163 -25 3 3 76 24
163 46 87 22 165 44 174 49 24 14 41 12 41 -6z m1250 -29 c0 -8 -2 -15 -4 -15
-2 0 -6 7 -10 15 -3 8 -1 15 4 15 6 0 10 -7 10 -15z m-2470 -5 c0 -5 -4 -10
-10 -10 -5 0 -10 5 -10 10 0 6 5 10 10 10 6 0 10 -4 10 -10z m1800 -30 c0 -5
-9 -10 -21 -10 -11 0 -17 5 -14 10 3 6 13 10 21 10 8 0 14 -4 14 -10z m724
-22 c34 -44 21 -58 -15 -16 -15 18 -28 36 -29 41 -1 17 20 5 44 -25z m-276 3
c3 -9 -2 -11 -17 -6 -12 4 -30 0 -43 -9 -12 -9 -33 -16 -45 -16 -13 0 -42 -5
-65 -10 -59 -14 -288 -50 -315 -50 -40 0 -24 18 20 23 74 7 241 37 277 49 54
18 143 36 164 35 11 -1 21 -8 24 -16z m38 -8 c-7 -7 -26 7 -26 19 0 6 6 6 15
-2 9 -7 13 -15 11 -17z m-586 7 c0 -5 -4 -10 -9 -10 -6 0 -13 5 -16 10 -3 6 1
10 9 10 9 0 16 -4 16 -10z m740 -10 c0 -5 -5 -10 -11 -10 -5 0 -7 5 -4 10 3 6
8 10 11 10 2 0 4 -4 4 -10z m-1630 -10 c0 -12 -39 -28 -85 -37 -41 -8 -27 5
31 27 27 10 50 19 52 19 1 1 2 -4 2 -9z m-144 -48 c-7 -11 -116 -36 -123 -28
-6 6 -1 8 62 24 53 13 67 14 61 4z m1309 -22 c-3 -5 -11 -10 -16 -10 -6 0 -7
5 -4 10 3 6 11 10 16 10 6 0 7 -4 4 -10z m285 -14 c0 -3 -4 -8 -10 -11 -5 -3
-10 -1 -10 4 0 6 5 11 10 11 6 0 10 -2 10 -4z m-535 -38 c-44 -10 -105 -23
-135 -29 -30 -6 -80 -18 -111 -25 -63 -15 -109 -18 -109 -6 0 13 53 32 89 32
20 0 65 7 101 16 89 21 223 41 235 35 6 -3 -26 -13 -70 -23z m-115 -78 c0 -5
-5 -10 -11 -10 -5 0 -7 5 -4 10 3 6 8 10 11 10 2 0 4 -4 4 -10z m10 -60 c0 -5
-7 -10 -16 -10 -8 0 -12 5 -9 10 3 6 10 10 16 10 5 0 9 -4 9 -10z m320 -30 c0
-5 -4 -10 -10 -10 -5 0 -10 5 -10 10 0 6 5 10 10 10 6 0 10 -4 10 -10z m-85
-25 c-16 -8 -48 -14 -70 -14 l-40 0 35 13 c19 8 51 14 70 14 l35 0 -30 -13z
m-855 -35 c0 -12 -70 -31 -83 -23 -16 10 23 33 55 33 15 0 28 -4 28 -10z m600
-20 c0 -5 -4 -10 -10 -10 -5 0 -10 5 -10 10 0 6 5 10 10 10 6 0 10 -4 10 -10z
m-470 -20 c8 -5 11 -12 8 -15 -10 -10 -69 5 -62 16 7 12 35 11 54 -1z m-1344
-36 c31 -13 45 -14 77 -4 21 6 40 10 40 8 21 -43 22 -43 118 -42 52 1 126 6
164 12 39 6 140 12 225 14 132 3 155 1 155 -12 0 -12 -16 -16 -70 -17 -170 -6
-240 -14 -255 -29 -40 -40 76 -52 220 -24 74 15 123 16 128 2 5 -15 -38 -32
-82 -32 -39 0 -60 -18 -45 -36 8 -10 35 -12 108 -7 53 3 128 2 166 -2 67 -7
70 -8 124 -65 31 -31 71 -65 90 -75 19 -9 52 -30 75 -46 23 -17 51 -29 66 -28
52 4 58 0 65 -41 4 -22 17 -54 29 -72 25 -38 165 -124 216 -134 45 -8 70 -22
70 -36 0 -22 44 -103 85 -159 42 -55 42 -56 28 -90 -14 -33 -14 -71 3 -185 9
-62 -28 -156 -77 -194 l-37 -30 -231 -1 c-127 0 -236 3 -243 7 -7 5 -85 8
-173 9 l-160 0 -9 93 c-10 109 -2 126 72 172 117 72 116 83 -3 77 -78 -4 -86
-3 -106 19 -12 13 -30 26 -40 29 -10 3 -26 18 -36 34 -10 15 -56 62 -102 103
-96 86 -132 101 -299 119 -92 10 -105 9 -208 -16 -60 -14 -138 -40 -174 -57
-139 -65 -277 -183 -341 -292 -82 -139 -90 -148 -109 -131 -35 32 -161 7 -199
-38 -23 -28 -48 -21 -61 17 -6 19 -38 67 -71 107 -32 41 -59 77 -59 81 0 4 11
24 25 44 14 20 25 43 25 50 0 8 10 20 23 28 12 9 33 37 47 63 13 26 39 66 57
89 18 23 33 44 33 48 0 10 101 170 114 181 7 6 27 31 44 57 47 69 129 160 163
181 15 10 52 43 81 72 41 41 207 193 214 195 1 0 19 -7 40 -16z m1474 -25 l25
-20 -30 3 c-19 2 -31 9 -33 21 -4 22 7 21 38 -4z m-486 -20 c-3 -5 -10 -7 -15
-3 -5 3 -7 10 -3 15 3 5 10 7 15 3 5 -3 7 -10 3 -15z m276 11 c11 -7 7 -10
-18 -10 -20 0 -31 4 -27 10 8 13 26 13 45 0z m644 -36 c16 -40 -3 -47 -28 -9
-16 24 -15 25 3 25 10 0 22 -7 25 -16z m288 -26 c33 -18 56 -34 51 -35 -12 -4
-110 44 -118 57 -10 16 4 12 67 -22z m-467 -18 c3 -5 1 -10 -4 -10 -6 0 -11 5
-11 10 0 6 2 10 4 10 3 0 8 -4 11 -10z m-2148 -53 c-35 -47 -77 -80 -117 -90
-14 -3 -88 -51 -165 -106 -77 -56 -165 -115 -195 -132 -107 -60 -166 -100
-238 -162 -92 -78 -215 -154 -312 -191 -41 -15 -123 -50 -181 -77 -95 -45
-139 -54 -139 -29 0 18 83 67 200 120 25 11 61 31 80 45 19 14 59 42 88 62 28
21 52 41 52 45 0 4 6 8 13 8 6 0 44 25 82 55 39 31 95 72 125 91 30 20 82 55
115 78 57 39 107 68 205 119 25 13 71 40 102 60 31 20 61 37 65 37 5 0 58 25
118 55 61 30 116 55 122 55 7 0 -2 -20 -20 -43z m1663 33 c12 -8 9 -10 -12
-10 -15 0 -30 5 -33 10 -8 13 25 13 45 0z m1078 -22 c24 -20 11 -25 -23 -10
-19 9 -35 20 -35 25 0 10 39 -1 58 -15z m-1150 -47 c3 -8 -1 -12 -9 -9 -7 2
-15 10 -17 17 -3 8 1 12 9 9 7 -2 15 -10 17 -17z m112 -101 c0 -12 -8 -12 -35
0 -18 8 -17 9 8 9 15 1 27 -3 27 -9z m170 -112 c21 -35 25 -48 12 -48 -9 0
-42 54 -42 69 0 19 10 12 30 -21z m1485 -18 c3 -5 -1 -10 -9 -10 -9 0 -16 5
-16 10 0 6 4 10 9 10 6 0 13 -4 16 -10z m-1301 -15 c3 -8 1 -15 -4 -15 -6 0
-10 7 -10 15 0 8 2 15 4 15 2 0 6 -7 10 -15z m492 -26 c10 -17 -13 -36 -27
-22 -12 12 -4 33 11 33 5 0 12 -5 16 -11z m-565 -73 c-2 -16 -61 14 -61 32 0
11 6 10 31 -6 17 -10 30 -22 30 -26z m669 13 c0 -5 -4 -9 -10 -9 -5 0 -10 7
-10 16 0 8 5 12 10 9 6 -3 10 -10 10 -16z m500 1 c0 -5 -4 -10 -10 -10 -5 0
-10 5 -10 10 0 6 5 10 10 10 6 0 10 -4 10 -10z m-420 -5 c0 -3 -4 -13 -9 -23
-5 -9 -15 -32 -21 -49 -15 -41 -40 -44 -40 -4 0 32 34 81 56 81 8 0 14 -2 14
-5z m-621 -21 c10 -9 -14 -24 -40 -24 -36 0 -72 17 -64 30 5 8 93 3 104 -6z
m351 -4 c0 -5 -4 -10 -10 -10 -5 0 -10 5 -10 10 0 6 5 10 10 10 6 0 10 -4 10
-10z m831 -6 c12 -14 11 -16 -5 -13 -11 2 -21 10 -24 17 -5 17 13 15 29 -4z
m-1029 -62 c5 -38 0 -52 -20 -52 -20 0 -52 29 -52 47 0 13 31 31 56 32 7 1 14
-12 16 -27z m118 -8 c0 -31 -2 -35 -15 -24 -8 7 -22 10 -30 6 -10 -3 -15 1
-15 12 0 23 19 42 42 42 14 0 18 -8 18 -36z m180 -25 c0 -11 -4 -17 -10 -14
-5 3 -10 13 -10 21 0 8 5 14 10 14 6 0 10 -9 10 -21z m180 -74 c0 -23 -2 -24
-20 -15 -11 6 -20 17 -20 25 0 8 9 15 20 15 15 0 20 -7 20 -25z m-1958 -11
c26 -4 53 -13 59 -20 6 -8 25 -14 42 -14 38 0 142 -58 186 -104 30 -30 32 -36
17 -42 -9 -4 -31 0 -49 9 -39 18 -120 51 -205 83 -46 18 -83 24 -138 24 -86 0
-136 -20 -196 -78 -34 -32 -38 -42 -38 -84 0 -41 3 -48 20 -48 36 0 69 22 72
49 3 23 9 27 68 39 55 11 73 11 120 -2 132 -36 147 -38 168 -27 25 13 52 14
52 2 0 -5 -8 -12 -19 -16 -10 -3 -26 -23 -36 -44 -15 -33 -24 -41 -62 -50 -40
-10 -154 -58 -268 -111 -67 -31 -93 -34 -135 -15 -45 20 -50 18 -136 -56 -27
-23 -72 -53 -100 -66 -31 -14 -54 -32 -57 -43 -8 -30 26 -26 103 11 62 30 72
32 200 35 139 3 180 -6 180 -40 0 -15 75 -87 109 -106 51 -27 114 -36 174 -24
70 14 87 28 126 106 34 65 41 138 21 209 -13 47 -28 59 -87 69 l-48 8 50 1
c54 1 128 -30 186 -78 28 -23 32 -34 36 -93 5 -58 1 -80 -27 -161 -50 -144
-109 -211 -255 -287 -112 -59 -168 -72 -323 -77 -168 -6 -209 2 -307 59 -139
81 -220 198 -213 308 1 23 -3 44 -9 48 -6 4 -15 36 -21 72 -9 53 -8 79 6 142
15 66 24 85 65 133 27 30 72 70 100 89 29 18 61 43 71 54 10 12 64 44 120 72
106 52 227 83 296 74 19 -2 56 -7 82 -10z m1828 -28 c0 -3 -4 -8 -10 -11 -5
-3 -10 -1 -10 4 0 6 5 11 10 11 6 0 10 -2 10 -4z m-92 -47 c2 -9 -5 -24 -14
-33 -9 -9 -24 -16 -33 -14 -23 5 -26 39 -5 55 23 17 48 13 52 -8z m67 -30 c10
-15 -1 -23 -20 -15 -9 3 -13 10 -10 16 8 13 22 13 30 -1z m5 -90 c0 -11 -11
-11 -29 0 -7 5 -10 14 -6 20 5 9 10 9 21 0 8 -6 14 -15 14 -20z m80 11 c0 -5
-5 -10 -11 -10 -5 0 -7 5 -4 10 3 6 8 10 11 10 2 0 4 -4 4 -10z m153 -5 c-4
-15 -36 -12 -41 3 -3 9 3 13 19 10 13 -1 23 -7 22 -13z m-561 -67 c-6 -6 -15
-9 -18 -5 -4 3 -4 14 0 23 5 13 9 15 18 6 9 -9 9 -15 0 -24z m714 7 c-23 -17
-36 -19 -36 -6 0 11 18 19 40 20 11 0 10 -3 -4 -14z m-156 -15 c0 -5 -4 -10
-10 -10 -5 0 -10 5 -10 10 0 6 5 10 10 10 6 0 10 -4 10 -10z m1925 -53 c-6
-29 -27 -82 -45 -119 -48 -101 -36 -112 90 -82 36 8 94 19 130 24 107 14 256
39 403 67 92 17 144 23 158 17 16 -8 -2 -20 -113 -75 -73 -37 -171 -83 -218
-103 -47 -20 -98 -44 -113 -52 -16 -7 -34 -14 -40 -14 -18 -1 -63 -38 -55 -45
3 -4 54 10 113 30 59 20 109 34 112 31 6 -6 -138 -79 -189 -95 -47 -15 -63
-34 -44 -50 17 -14 30 -9 181 64 50 24 113 51 140 61 28 10 55 21 60 24 19 14
105 39 105 31 0 -4 -26 -20 -57 -34 -32 -15 -69 -33 -83 -41 -39 -22 -228
-110 -294 -137 -59 -24 -77 -42 -58 -61 6 -6 37 2 93 27 82 36 210 85 223 85
3 0 6 -4 6 -8 0 -21 -371 -220 -460 -247 -30 -9 -72 -24 -93 -32 -28 -12 -43
-13 -60 -6 -47 22 -115 94 -166 178 -49 80 -53 91 -47 131 4 32 23 69 66 132
34 48 88 132 120 187 103 173 162 221 135 112z m-2165 38 c10 -12 10 -15 -3
-15 -8 0 -17 7 -21 15 -3 8 -2 15 3 15 5 0 14 -7 21 -15z m-3148 -40 c13 -29
4 -101 -36 -290 -28 -129 -25 -166 15 -206 24 -24 27 -145 4 -189 -17 -33 -27
-33 -130 -4 -72 20 -111 47 -135 94 -35 69 -67 200 -74 304 l-7 99 62 58 c33
33 63 59 65 59 2 0 36 23 76 50 56 39 81 50 110 50 31 0 41 -5 50 -25z m3083
15 c12 -19 -5 -30 -25 -17 -11 6 -20 15 -20 19 0 12 38 10 45 -2z m-2973 -47
c32 -35 70 -117 99 -211 22 -75 21 -121 -6 -247 -21 -95 -123 -209 -149 -167
-3 5 2 82 11 172 l17 162 -28 52 c-22 42 -26 56 -18 77 6 14 14 63 17 107 8
90 16 98 57 55z m1643 -3 c3 -5 -3 -10 -14 -10 -12 0 -21 5 -21 10 0 6 6 10
14 10 8 0 18 -4 21 -10z m-307 -67 c-50 -31 -62 -87 -25 -121 53 -50 122 -35
154 33 16 34 33 46 33 25 0 -29 -32 -80 -59 -94 -41 -21 -76 -20 -128 5 -38
18 -43 25 -43 54 0 67 31 115 74 115 19 -1 18 -2 -6 -17z m2400 -12 c3 -8 -1
-12 -9 -9 -7 2 -15 10 -17 17 -3 8 1 12 9 9 7 -2 15 -10 17 -17z m-758 -16
c17 -21 -13 -25 -37 -5 -12 10 -20 20 -17 23 8 8 42 -4 54 -18z m-140 -5 c0
-5 -2 -10 -4 -10 -3 0 -8 5 -11 10 -3 6 -1 10 4 10 6 0 11 -4 11 -10z m919
-34 c10 -11 8 -16 -8 -21 -25 -8 -41 1 -41 21 0 18 34 18 49 0z m-419 -6 c0
-5 -5 -10 -11 -10 -5 0 -7 5 -4 10 3 6 8 10 11 10 2 0 4 -4 4 -10z m-2120 -43
c0 -25 9 -42 36 -68 35 -34 36 -34 120 -32 46 0 84 -1 84 -3 0 -11 -63 -32
-117 -38 -123 -14 -181 50 -147 162 7 25 24 11 24 -21z m1681 14 c19 -12 26
-21 19 -26 -19 -12 -57 4 -63 25 -6 25 4 25 44 1z m156 -23 c-3 -8 -6 -5 -6 6
-1 11 2 17 5 13 3 -3 4 -12 1 -19z m2843 12 c-20 -13 -53 -13 -45 0 3 6 18 10
33 10 21 0 24 -2 12 -10z m-95 -28 c-13 -11 -111 -52 -124 -52 -28 0 -6 17 47
36 62 23 92 29 77 16z m-2805 -37 c0 -11 -11 -15 -41 -15 -22 0 -49 -5 -60
-10 -15 -9 -21 -7 -26 6 -9 23 14 34 75 34 40 0 52 -4 52 -15z m449 -34 c-15
-5 -22 6 -14 19 6 9 10 9 16 -1 5 -8 4 -15 -2 -18z m-3543 -117 c-3 -8 -10
-14 -16 -14 -14 0 -13 47 3 73 12 21 12 21 15 -11 2 -19 1 -40 -2 -48z m2888
24 c15 -13 18 -20 10 -28 -9 -9 -17 -3 -33 23 -11 19 -21 41 -21 48 0 8 5 6
12 -6 6 -11 20 -28 32 -37z m576 13 c0 -5 -7 -12 -16 -15 -24 -9 -28 -7 -14 9
14 17 30 20 30 6z m2440 -6 c0 -8 -64 -45 -77 -45 -28 0 -11 19 30 33 23 8 43
15 45 16 1 0 2 -1 2 -4z m-2300 -65 c0 -5 -4 -10 -10 -10 -5 0 -10 5 -10 10 0
6 5 10 10 10 6 0 10 -4 10 -10z m1288 -13 c11 -12 33 -48 47 -80 32 -69 28
-95 -18 -141 -18 -17 -61 -67 -97 -111 -36 -44 -99 -115 -141 -159 l-76 -79
-26 19 c-39 29 -97 170 -97 238 0 28 47 79 174 189 50 43 192 147 202 147 6 0
20 -10 32 -23z m-7038 -52 c22 -14 80 -117 80 -143 -1 -96 -87 -170 -325 -283
-76 -37 -88 -44 -93 -58 -4 -11 2 -12 23 -7 58 15 242 91 271 113 36 27 44 28
44 9 0 -28 -104 -80 -335 -167 -83 -31 -125 -21 -183 45 -52 59 -50 115 8 196
11 15 20 34 20 42 0 8 14 27 30 43 17 16 30 33 30 39 0 15 42 56 58 56 8 0 33
15 56 33 36 30 130 74 191 90 23 7 111 1 125 -8z m5100 -39 c0 -17 -4 -37 -9
-45 -12 -19 -31 17 -31 57 0 25 3 29 20 25 15 -4 20 -14 20 -37z m465 5 c3 -5
1 -12 -5 -16 -5 -3 -10 1 -10 9 0 18 6 21 15 7z m-5312 -35 c31 -19 60 -36 64
-38 14 -6 147 -89 238 -149 50 -32 105 -68 123 -80 41 -27 43 -65 6 -100 -14
-13 -50 -55 -79 -94 -84 -110 -222 -258 -261 -279 -35 -19 -37 -19 -132 5
-116 28 -276 101 -295 134 -18 33 45 85 103 85 29 0 100 69 156 150 36 53 48
80 52 119 5 57 15 62 56 30 29 -23 56 -19 56 8 0 18 -95 144 -114 152 -16 7
-86 73 -86 82 0 20 60 7 113 -25z m5287 -3 c0 -13 -43 -53 -57 -53 -10 0 -7 9
9 30 20 27 48 41 48 23z m-270 -24 c0 -5 -4 -9 -10 -9 -5 0 -10 7 -10 16 0 8
5 12 10 9 6 -3 10 -10 10 -16z m775 1 c3 -5 1 -10 -4 -10 -6 0 -11 5 -11 10 0
6 2 10 4 10 3 0 8 -4 11 -10z m-75 -47 c0 -10 -32 -43 -42 -43 -15 0 -8 29 10
39 20 12 32 14 32 4z m-691 -33 c5 -16 15 -30 20 -30 6 0 11 -4 11 -10 0 -5
-9 -10 -19 -10 -22 0 -66 55 -56 70 12 19 33 10 44 -20z m1857 -7 c-10 -10
-19 5 -10 18 6 11 8 11 12 0 2 -7 1 -15 -2 -18z m40 -31 c-20 -20 -22 -1 -4
31 11 20 12 21 16 3 2 -10 -3 -26 -12 -34z m-1576 -12 c0 -5 -5 -10 -11 -10
-5 0 -7 5 -4 10 3 6 8 10 11 10 2 0 4 -4 4 -10z m337 -17 c-9 -9 -20 -13 -24
-9 -4 4 1 14 11 22 25 18 35 8 13 -13z m1278 -3 c-3 -5 -11 -10 -16 -10 -6 0
-7 5 -4 10 3 6 11 10 16 10 6 0 7 -4 4 -10z m-1655 -75 c0 -8 -4 -15 -10 -15
-5 0 -10 7 -10 15 0 8 5 15 10 15 6 0 10 -7 10 -15z m1035 -45 c4 -19 25 -72
46 -117 21 -46 39 -89 39 -96 0 -7 -27 -45 -61 -83 -82 -94 -91 -113 -76 -153
10 -27 9 -34 -3 -41 -66 -37 -130 -102 -130 -131 0 -20 25 -7 54 28 18 20 38
34 45 32 9 -3 -3 -23 -35 -59 -90 -101 -116 -140 -110 -162 3 -15 -4 -32 -24
-55 -23 -26 -28 -39 -24 -63 5 -22 0 -37 -17 -59 -43 -54 -53 -42 -45 53 6 90
2 102 -37 92 -34 -8 -46 -36 -73 -169 -24 -118 -58 -197 -85 -197 -11 0 -7 82
8 184 5 29 3 38 -7 34 -7 -2 -30 -73 -53 -166 -23 -89 -44 -162 -47 -162 -11
0 2 113 15 140 16 30 39 150 31 157 -14 14 -38 -27 -77 -135 -23 -64 -50 -135
-59 -157 -9 -22 -29 -70 -45 -107 -15 -36 -40 -79 -56 -94 -16 -15 -29 -32
-29 -37 0 -5 -6 -23 -14 -40 -8 -18 -17 -50 -20 -72 -6 -45 -45 -126 -64 -133
-6 -2 -16 8 -22 23 -13 35 27 200 69 284 59 116 27 121 -34 6 -52 -98 -57
-116 -85 -283 -11 -68 -16 -81 -63 -154 -44 -69 -55 -63 -44 23 7 46 7 73 0
80 -6 6 -39 -20 -97 -78 -91 -92 -102 -127 -15 -49 50 45 69 55 69 37 0 -31
-42 -166 -57 -183 -10 -11 -55 -45 -100 -75 -83 -55 -99 -73 -65 -73 26 0 135
56 157 80 41 45 46 17 11 -62 -22 -49 -59 -101 -112 -152 -41 -41 -139 -123
-161 -135 -13 -6 -23 -16 -23 -21 0 -24 80 0 123 38 16 14 17 13 17 -9 0 -13
-6 -31 -13 -40 -19 -24 -125 -110 -192 -154 -33 -22 -78 -54 -101 -71 -22 -18
-72 -49 -110 -70 -97 -52 -121 -84 -62 -84 17 0 40 8 50 17 23 20 72 51 148
91 51 27 126 81 208 148 45 38 40 9 -7 -35 -27 -25 -41 -48 -46 -75 -9 -55
-80 -121 -189 -175 -85 -43 -104 -57 -93 -68 9 -8 107 40 166 81 45 30 91 47
91 32 0 -2 -9 -24 -19 -48 -19 -43 -76 -90 -204 -169 -27 -16 -47 -35 -44 -42
6 -18 23 -12 127 43 52 28 98 49 102 48 11 -4 -30 -89 -55 -116 -12 -13 -38
-32 -58 -43 -45 -22 -69 -45 -69 -65 0 -23 18 -16 106 41 47 30 89 55 93 55 5
0 32 21 60 46 47 42 51 44 51 22 0 -12 -13 -48 -28 -78 -22 -45 -39 -63 -92
-98 -84 -55 -102 -70 -95 -82 5 -9 35 4 106 46 11 6 27 18 37 27 26 24 32 21
32 -15 -1 -22 -11 -45 -30 -68 -18 -20 -26 -38 -21 -43 13 -13 107 36 184 95
34 27 88 66 120 88 49 34 57 37 57 20 0 -45 -34 -101 -88 -146 -32 -27 -66
-58 -77 -70 -11 -12 -48 -47 -83 -79 -46 -41 -67 -54 -76 -46 -6 5 -41 17 -76
25 -119 26 -185 44 -245 66 -33 11 -114 34 -180 51 -66 17 -145 41 -175 53
-55 23 -93 37 -223 82 -38 13 -85 33 -105 44 -45 24 -203 92 -295 127 -48 18
-76 36 -94 59 -25 33 -25 35 -13 101 14 72 99 274 129 308 11 11 28 38 40 60
35 64 65 112 84 133 9 10 17 21 17 24 0 18 156 336 173 353 22 23 -4 -121 -37
-199 -19 -45 -48 -117 -66 -161 -19 -49 -47 -96 -70 -120 -38 -40 -60 -75 -60
-94 0 -16 121 -70 173 -77 45 -6 50 -5 83 27 39 37 40 45 18 92 -16 32 -15 37
9 108 21 60 31 76 54 86 50 21 63 17 63 -22 0 -19 4 -35 8 -35 9 0 32 44 32
61 0 6 11 34 24 62 40 85 126 306 153 392 14 44 35 114 48 155 31 98 44 205
24 198 -15 -5 -17 -10 -49 -125 -21 -73 -34 -89 -45 -54 -3 10 -20 22 -38 28
-32 9 -32 9 -31 74 1 119 11 154 47 172 18 9 39 21 47 27 8 6 58 30 110 55
211 100 253 130 351 258 39 51 77 95 84 100 7 4 31 31 52 59 21 29 44 60 51
68 7 8 48 64 90 123 145 204 160 223 252 329 l34 40 8 -31 c5 -17 13 -31 18
-31 24 0 -13 -113 -44 -133 -12 -8 -34 -39 -49 -68 -15 -30 -57 -101 -93 -159
-63 -101 -166 -301 -179 -347 -5 -17 -2 -23 9 -23 18 0 49 38 66 82 8 18 39
71 70 118 65 96 130 205 130 215 0 3 20 31 45 62 25 30 45 59 45 64 0 4 14 24
31 44 21 24 40 35 58 35 22 0 184 87 277 148 6 4 24 16 40 26 16 11 53 35 82
53 28 19 63 51 77 71 15 22 49 49 87 70 59 31 200 158 242 217 10 15 39 40 64
56 51 32 54 30 67 -31z m-925 35 c0 -8 -7 -15 -15 -15 -16 0 -20 12 -8 23 11
12 23 8 23 -8z m-172 -23 c4 -23 3 -23 -22 -7 -32 21 -34 37 -3 33 14 -2 23
-11 25 -26z m1510 -2 c-13 -20 -28 -27 -28 -12 0 10 22 32 32 32 5 0 3 -9 -4
-20z m-1598 -37 c-1 -41 -10 -63 -59 -143 -70 -113 -86 -120 -130 -60 -33 46
-33 76 1 140 10 19 18 42 18 52 0 32 27 47 86 47 31 0 58 2 62 5 15 15 22 2
22 -41z m300 28 c0 -6 -4 -13 -10 -16 -5 -3 -10 1 -10 9 0 9 5 16 10 16 6 0
10 -4 10 -9z m-4884 -46 c20 -8 63 -31 96 -51 54 -33 58 -37 41 -50 -10 -7
-26 -14 -35 -14 -10 0 -35 -27 -58 -60 -22 -33 -45 -60 -50 -60 -5 0 5 27 23
60 l32 61 -29 25 -29 25 -22 -38 c-41 -72 -85 -137 -85 -126 0 6 9 31 21 57
36 83 18 83 -46 0 -52 -66 -106 -133 -171 -207 -12 -14 -19 -16 -27 -8 -15 15
14 73 63 125 22 22 73 84 115 136 95 120 112 140 120 140 3 0 22 -7 41 -15z
m6134 9 c0 -12 -66 -84 -77 -84 -21 0 -15 12 24 52 34 35 53 46 53 32z m-1390
-42 c0 -5 -9 -17 -20 -27 -19 -18 -20 -17 -20 2 0 11 3 23 7 26 9 10 33 9 33
-1z m158 -55 c3 -48 3 -48 -85 -140 -48 -51 -122 -132 -163 -181 -41 -48 -98
-113 -125 -144 -28 -32 -73 -88 -100 -125 -32 -44 -51 -63 -53 -53 -2 9 6 29
18 46 12 17 20 38 18 47 -2 11 -21 -14 -52 -67 -69 -120 -77 -132 -82 -127
-10 10 117 256 163 313 26 34 85 109 130 165 45 57 115 135 157 173 42 39 76
74 76 78 0 15 65 68 80 65 10 -1 16 -17 18 -50z m1232 -6 c-22 -32 -30 -38
-30 -22 0 12 41 63 47 57 3 -3 -5 -19 -17 -35z m139 12 c0 -11 -59 -57 -59
-47 0 4 10 18 22 31 21 23 39 30 37 16z m-7181 -15 c-5 -16 -41 -34 -87 -43
-23 -5 -31 -4 -27 4 4 6 15 11 25 11 11 0 29 9 42 20 27 22 53 26 47 8z m7102
3 c0 -5 -7 -14 -15 -21 -12 -10 -15 -10 -15 2 0 8 3 18 7 21 9 10 23 9 23 -2z
m-7253 -62 c-25 -14 -126 -28 -133 -18 -2 4 10 10 28 13 65 11 83 13 103 14
19 1 19 1 2 -9z m1326 -24 c-1 -17 -13 -39 -25 -51 -24 -21 -32 -34 -95 -149
-51 -93 -55 -59 -4 41 22 43 52 105 67 137 19 39 33 57 43 54 11 -2 15 -12 14
-32z m5722 15 c3 -5 1 -10 -4 -10 -6 0 -11 5 -11 10 0 6 2 10 4 10 3 0 8 -4
11 -10z m205 0 c0 -5 -4 -10 -10 -10 -5 0 -10 5 -10 10 0 6 5 10 10 10 6 0 10
-4 10 -10z m-6043 -22 c-3 -8 -6 -5 -6 6 -1 11 2 17 5 13 3 -3 4 -12 1 -19z
m5909 -5 c-10 -10 -19 5 -10 18 6 11 8 11 12 0 2 -7 1 -15 -2 -18z m-1122 2
c8 -22 -125 -147 -140 -132 -6 5 117 146 127 147 4 0 10 -7 13 -15z m-4853
-28 c-8 -8 -11 -7 -11 4 0 20 13 34 18 19 3 -7 -1 -17 -7 -23z m238 -53 c-24
-56 -27 -59 -34 -52 -3 3 4 31 16 62 13 32 26 53 31 48 5 -5 -1 -30 -13 -58z
m-203 -2 c-11 -10 -15 4 -8 28 l7 25 3 -23 c2 -13 1 -26 -2 -30z m5789 28 c3
-5 1 -10 -4 -10 -6 0 -11 5 -11 10 0 6 2 10 4 10 3 0 8 -4 11 -10z m-5541 -42
c-8 -28 -12 -33 -20 -25 -9 8 6 47 17 47 6 0 7 -10 3 -22z m4576 8 c0 -18
-130 -136 -150 -136 -8 0 19 34 60 75 76 76 90 86 90 61z m1020 -1 c0 -8 -7
-15 -15 -15 -9 0 -12 6 -9 15 4 8 10 15 15 15 5 0 9 -7 9 -15z m-4245 -41 c28
-4 82 -18 120 -31 139 -47 259 -66 375 -58 58 4 143 9 190 11 47 2 107 8 133
14 58 12 57 12 57 2 0 -18 -115 -44 -194 -44 -45 0 -90 -6 -101 -13 -11 -6
-51 -15 -88 -18 -75 -7 -97 -15 -76 -28 28 -17 -2 -21 -40 -5 -37 14 -41 14
-49 -1 -9 -15 -13 -15 -51 0 -29 12 -41 13 -41 5 0 -16 41 -58 57 -58 15 0 18
-16 4 -25 -5 -3 -30 13 -56 35 -48 42 -84 56 -112 46 -14 -6 -11 -12 17 -41
49 -50 31 -53 -36 -6 -70 48 -99 54 -90 16 7 -29 0 -32 -27 -8 -18 17 -19 17
-28 0 -6 -9 -18 -17 -29 -17 -19 0 -80 -68 -81 -91 -1 -27 -75 -142 -106 -167
-33 -24 -33 -24 -33 -3 0 11 4 21 9 21 5 0 16 12 24 28 7 15 24 44 36 65 32
51 11 46 -37 -9 -23 -27 -44 -44 -51 -40 -22 14 -10 36 42 77 57 45 73 69 63
94 -5 14 -16 7 -59 -36 -29 -30 -74 -70 -100 -89 -27 -19 -73 -54 -104 -77
-114 -87 -74 -24 126 195 85 94 84 92 72 111 -7 11 -30 -7 -96 -77 -89 -94
-131 -123 -75 -52 17 21 60 69 95 106 36 37 65 71 65 76 0 5 20 17 44 28 24
10 63 32 87 50 30 22 50 29 68 26 15 -3 49 -8 76 -12z m-1146 -50 c160 -78
360 -164 426 -184 22 -6 54 -18 72 -26 17 -8 42 -14 55 -14 37 0 68 -11 68
-25 0 -22 -70 -101 -110 -124 l-40 -22 -31 22 c-35 24 -37 23 -76 -47 -30 -54
-67 -104 -77 -104 -19 0 0 66 39 139 25 46 43 87 39 90 -9 9 -50 -46 -91 -124
-24 -44 -39 -64 -41 -53 -2 10 22 62 52 116 59 104 67 132 39 132 -12 0 -28
-21 -47 -60 -16 -33 -33 -60 -38 -60 -16 0 -8 66 13 104 25 47 18 58 -17 25
l-27 -24 7 37 c6 33 4 38 -27 57 -19 12 -43 21 -55 21 -11 0 -27 12 -37 26
-13 20 -19 23 -25 14 -6 -10 -14 -8 -35 9 -37 28 -42 27 -62 -14 -18 -39 -39
-48 -28 -12 14 44 11 61 -12 66 -18 5 -73 70 -73 86 0 13 33 0 139 -51z m4373
24 c-7 -7 -12 -8 -12 -2 0 14 12 26 19 19 2 -3 -1 -11 -7 -17z m854 -35 c-10
-10 -19 5 -10 18 6 11 8 11 12 0 2 -7 1 -15 -2 -18z m-6060 -44 c-20 -50 -20
-88 -1 -95 15 -6 63 -72 90 -124 16 -31 70 -60 111 -60 25 0 40 -15 24 -25 -5
-3 -10 -17 -10 -31 0 -29 -25 -33 -39 -6 -7 14 -18 17 -46 14 -34 -4 -40 0
-88 53 -66 74 -102 126 -133 194 -36 79 -32 101 12 60 l22 -21 16 26 c9 14 24
38 33 53 23 38 29 12 9 -38z m5174 42 c-11 -21 -29 -36 -35 -29 -3 2 2 14 11
26 19 28 39 30 24 3z m28 -62 c-16 -11 -48 -12 -48 -1 0 4 12 15 28 24 24 15
27 15 30 1 2 -9 -2 -19 -10 -24z m-4768 6 c0 -8 -4 -15 -10 -15 -5 0 -7 7 -4
15 4 8 8 15 10 15 2 0 4 -7 4 -15z m-357 -53 c-3 -12 -12 -22 -19 -22 -18 0
-18 9 3 32 20 22 24 19 16 -10z m5985 3 c-11 -25 -58 -63 -58 -46 0 11 52 70
62 71 4 0 2 -11 -4 -25z m-5596 -7 c-7 -7 -12 -8 -12 -2 0 14 12 26 19 19 2
-3 -1 -11 -7 -17z m-272 -32 c0 -29 -52 -115 -66 -109 -22 8 -16 33 16 70 17
18 30 38 30 43 0 6 5 10 10 10 6 0 10 -6 10 -14z m319 -38 c-8 -14 -14 -18
-17 -10 -4 13 17 46 25 38 3 -2 -1 -15 -8 -28z m5475 -1 c-4 -13 -44 -41 -44
-32 0 8 34 43 42 44 4 1 5 -5 2 -12z m-5084 -17 c-6 -11 -12 -20 -14 -20 -2 0
-2 9 1 20 3 11 9 20 15 20 5 0 4 -9 -2 -20z m-630 -10 c0 -18 -36 -47 -46 -37
-4 4 36 56 44 57 1 0 2 -9 2 -20z m5880 10 c0 -5 -5 -10 -11 -10 -5 0 -7 5 -4
10 3 6 8 10 11 10 2 0 4 -4 4 -10z m-5490 -12 c0 -19 -18 -43 -25 -36 -4 3 -2
16 5 27 12 24 20 27 20 9z m-205 -68 c-6 -20 -107 -130 -120 -130 -3 0 -5 7
-5 15 0 15 121 148 128 140 2 -2 1 -13 -3 -25z m457 -67 c-16 -32 -44 -94 -62
-138 -18 -44 -37 -85 -42 -91 -5 -7 -24 -49 -42 -94 -18 -45 -37 -82 -42 -83
-4 -1 -12 9 -17 23 -7 20 3 50 57 163 36 76 77 152 91 168 14 17 25 36 25 43
0 7 9 21 19 30 11 10 23 30 27 44 5 19 8 22 11 10 2 -9 -9 -43 -25 -75z m-112
40 c0 -22 -17 -50 -25 -42 -6 7 11 59 20 59 3 0 5 -8 5 -17z m60 10 c0 -11
-88 -184 -106 -207 -7 -11 -16 -17 -20 -14 -5 5 34 86 74 153 7 11 16 32 22
48 8 24 30 38 30 20z m-540 -23 c0 -6 -10 -30 -22 -53 -20 -37 -23 -39 -26
-19 -2 13 4 32 12 41 9 10 16 23 16 29 0 7 5 12 10 12 6 0 10 -5 10 -10z m360
-57 c0 -24 -17 -49 -26 -40 -4 4 -1 18 6 32 16 30 20 31 20 8z m62 -35 c-7 -7
-12 -8 -12 -2 0 14 12 26 19 19 2 -3 -1 -11 -7 -17z m519 9 c-2 -16 -38 -66
-44 -61 -8 8 25 75 36 71 5 -1 8 -6 8 -10z m1647 -13 c-5 -25 -35 -41 -49 -27
-18 18 -3 43 26 43 19 0 26 -5 23 -16z m-1888 -29 c0 -24 -5 -35 -15 -35 -18
0 -18 -1 -4 39 14 40 19 39 19 -4z m1768 -2 c2 -11 -4 -26 -13 -33 -13 -11
-19 -11 -32 3 -15 15 -15 18 2 37 22 24 39 21 43 -7z m3032 17 c0 -5 -2 -10
-4 -10 -3 0 -8 5 -11 10 -3 6 -1 10 4 10 6 0 11 -4 11 -10z m-3150 -49 c15
-30 12 -40 -15 -53 -30 -14 -55 3 -55 37 0 37 52 48 70 16z m-2390 -31 c0 -45
0 -45 40 -25 16 8 31 11 34 6 7 -11 -21 -81 -32 -81 -8 0 -47 48 -69 85 -19
31 -16 55 7 55 17 0 20 -7 20 -40z m2750 34 c0 -3 -5 -14 -10 -25 -13 -23 -30
-25 -30 -4 0 8 -6 15 -12 15 -9 0 -8 4 2 10 16 11 50 13 50 4z m-1200 -23 c0
-5 -5 -22 -10 -36 -12 -31 12 -81 43 -91 16 -5 18 -11 11 -38 -14 -52 -9 -168
9 -202 9 -17 34 -47 57 -68 l42 -38 87 6 c47 3 103 8 124 12 32 5 43 2 65 -18
15 -13 39 -32 54 -41 14 -9 33 -30 41 -46 13 -27 13 -32 0 -42 -27 -23 -42
-65 -57 -162 -9 -53 -16 -99 -16 -101 0 -7 54 -25 95 -32 22 -4 57 -13 78 -20
26 -9 45 -11 57 -4 13 7 24 5 42 -9 25 -20 91 -29 120 -16 10 4 23 5 30 2 7
-2 21 0 31 5 13 7 17 4 17 -12 0 -11 7 -23 15 -26 8 -4 15 -11 15 -17 0 -5
-27 -57 -60 -113 -33 -57 -73 -130 -88 -162 -15 -32 -37 -71 -48 -87 -11 -17
-29 -50 -38 -75 -10 -25 -21 -49 -26 -55 -15 -20 -101 -297 -121 -393 -34
-164 -31 -219 19 -346 24 -60 54 -125 68 -145 13 -20 24 -41 24 -47 0 -15 -23
-24 -60 -24 -29 0 -198 83 -331 162 -59 34 -68 43 -73 76 -4 20 -13 53 -20 72
-21 55 -34 118 -29 144 5 22 8 23 36 15 18 -5 51 -9 73 -9 l42 0 27 68 c45
109 68 356 45 469 -5 26 -12 111 -16 188 -8 186 -8 169 6 260 6 44 18 134 25
200 8 66 17 132 21 148 9 39 -13 35 -30 -5 -24 -59 -35 -101 -50 -203 -29
-193 -37 -345 -24 -435 12 -87 11 -457 -2 -533 -18 -101 -56 -119 -149 -72
-77 38 -91 63 -91 159 -1 84 -6 119 -34 221 -9 33 -19 98 -22 145 -4 47 -11
90 -16 96 -5 7 -8 72 -8 145 1 74 1 145 0 159 0 13 9 78 21 143 21 116 24 275
6 293 -18 19 -30 -19 -28 -90 1 -41 -2 -77 -8 -80 -5 -4 -52 14 -105 38 -59
28 -128 51 -183 62 -48 9 -108 23 -133 31 -25 8 -97 28 -160 44 -63 16 -132
39 -153 49 -21 11 -44 20 -52 20 -35 0 -244 87 -283 118 -42 33 -47 58 -11 49
27 -7 81 59 145 175 48 89 75 115 87 85 6 -15 -26 -94 -62 -152 -24 -40 -50
-84 -78 -138 -8 -16 -12 -31 -8 -35 9 -9 55 49 55 70 0 9 4 19 10 23 5 3 31
46 57 95 48 90 78 123 47 53 -9 -21 -19 -49 -21 -63 -5 -23 -51 -132 -74 -173
-6 -11 -8 -22 -4 -25 9 -9 40 34 61 83 91 214 109 245 142 245 25 0 8 -56 -57
-193 -34 -70 -61 -130 -61 -133 0 -15 19 1 33 29 10 17 35 64 58 102 22 39 53
98 70 133 28 60 53 79 65 49 3 -8 -30 -80 -72 -161 -42 -81 -73 -150 -70 -153
10 -10 21 6 71 102 26 50 53 97 60 105 7 8 15 27 18 41 4 14 17 41 30 60 l23
34 89 -2 c50 -1 114 -7 143 -14 42 -10 61 -11 95 -1 226 67 237 69 237 53z
m-1405 -51 c-12 -13 -22 -17 -28 -11 -13 13 1 31 25 31 21 0 21 -1 3 -20z
m1989 -5 c19 -29 15 -40 -26 -65 -30 -18 -30 -18 -75 12 -49 34 -48 42 13 63
55 20 70 18 88 -10z m497 15 c25 -14 24 -35 -3 -54 -29 -21 -33 -20 -45 7 -7
15 -7 29 -1 40 10 20 22 21 49 7z m-107 -29 c4 -5 9 -29 12 -53 6 -43 5 -45
-26 -58 -39 -16 -50 -5 -50 57 0 30 5 45 18 52 22 13 39 14 46 2z m-1954 -17
c0 -8 -5 -12 -10 -9 -6 4 -8 11 -5 16 9 14 15 11 15 -7z m-367 -40 c-15 -23
-19 -25 -21 -10 -4 19 30 64 36 47 2 -5 -5 -22 -15 -37z m1739 17 c17 -6 30
-25 43 -64 18 -52 18 -57 1 -109 -26 -84 -58 -116 -145 -143 -85 -27 -89 -26
-149 38 -51 57 -61 100 -38 173 14 44 21 54 40 54 12 0 28 6 34 13 13 12 128
44 169 46 12 0 32 -3 45 -8z m471 -5 c8 -19 -20 -56 -42 -56 -19 0 -37 42 -26
60 9 15 62 12 68 -4z m-2263 -19 c0 -7 -6 -22 -14 -33 -22 -28 -41 -6 -20 24
17 24 34 29 34 9z m135 -16 c3 -5 1 -12 -5 -16 -5 -3 -10 1 -10 9 0 18 6 21
15 7z m2015 -7 c9 -9 -17 -39 -37 -42 -21 -3 -38 31 -26 51 5 8 52 1 63 -9z
m-1967 -116 c6 -4 23 -4 38 -1 18 3 28 0 32 -10 10 -27 -56 -31 -103 -7 -22
11 -40 22 -40 24 0 2 12 17 28 34 l27 30 3 -31 c2 -18 9 -35 15 -39z m-103 52
c0 -5 -4 -10 -10 -10 -5 0 -10 5 -10 10 0 6 5 10 10 10 6 0 10 -4 10 -10z
m5080 -9 c0 -5 -7 -12 -16 -15 -14 -5 -15 -4 -4 9 14 17 20 19 20 6z m-1526
-21 c5 -5 -26 -10 -73 -12 -81 -3 -96 2 -63 22 19 12 121 5 136 -10z m1686 -5
c0 -8 -4 -15 -10 -15 -5 0 -10 7 -10 15 0 8 5 15 10 15 6 0 10 -7 10 -15z
m-1867 -62 c-7 -2 -19 -2 -25 0 -7 3 -2 5 12 5 14 0 19 -2 13 -5z m1478 -342
c-11 -16 -25 -40 -31 -55 -5 -14 -14 -26 -19 -26 -10 0 19 97 48 160 l16 35 3
-43 c2 -30 -3 -50 -17 -71z m-1545 -48 c-8 -107 -50 -299 -70 -323 -16 -18
-76 -218 -76 -253 0 -18 -7 -26 -25 -31 -33 -8 -45 -1 -45 29 0 25 55 248 65
265 3 5 8 22 10 37 2 16 13 73 24 128 12 55 21 121 21 146 0 60 32 98 84 99
18 0 18 -6 12 -97z m-126 18 c0 -23 -66 -280 -74 -289 -10 -9 -7 11 14 120 11
57 20 113 20 126 0 28 17 62 30 62 6 0 10 -8 10 -19z m-83 -58 c-19 -104 -41
-193 -48 -193 -12 0 -11 8 5 82 8 35 17 80 20 101 4 20 12 37 18 37 6 0 8 -12
5 -27z m-1855 -10 c11 -22 20 -28 42 -26 27 2 28 0 23 -35 -32 -256 -33 -411
-3 -613 53 -355 54 -373 17 -396 -17 -10 -28 -9 -65 6 l-44 19 -5 119 c-3 65
-13 156 -23 203 -21 102 -24 315 -7 440 12 85 18 159 21 258 2 59 22 71 44 25z
m1764 7 c14 -14 -12 -154 -67 -360 -40 -154 -106 -303 -163 -371 -29 -34 -150
-270 -183 -357 -20 -53 -27 -95 -34 -202 -5 -74 -6 -146 -3 -160 6 -30 86 -88
159 -115 28 -10 113 -49 190 -87 213 -105 391 -175 574 -225 l165 -45 19 26
c10 14 26 26 35 26 8 0 36 -23 62 -52 l46 -51 109 11 c235 25 270 26 284 8 12
-14 11 -19 -2 -34 -9 -10 -30 -48 -47 -85 -32 -72 -43 -83 -38 -39 5 48 -25
33 -41 -20 -15 -49 -38 -69 -27 -23 7 29 0 32 -26 8 -22 -20 -24 -53 -2 -53 9
0 14 -6 11 -12 -3 -10 -47 -13 -180 -12 -169 1 -221 -7 -139 -22 20 -4 42 -9
47 -13 10 -6 20 -7 150 -11 44 -1 83 -4 87 -7 4 -2 1 -14 -7 -27 -17 -25 -11
-36 17 -36 13 0 18 7 18 25 0 24 14 34 23 18 8 -13 -23 -147 -37 -163 -8 -8
-22 -31 -31 -50 -10 -19 -20 -29 -23 -22 -2 7 10 39 27 72 17 32 31 62 31 65
0 3 -10 5 -21 5 -12 0 -27 7 -34 16 -10 14 -13 13 -29 -11 -20 -30 -15 -45 8
-26 17 14 36 7 36 -14 0 -8 -10 -25 -22 -38 -13 -14 -59 -69 -103 -122 -88
-107 -362 -388 -438 -450 -27 -21 -55 -51 -63 -67 -10 -19 -35 -37 -81 -58
-75 -34 -95 -30 -43 9 73 55 299 262 382 350 133 139 278 310 278 327 0 24
-17 9 -147 -131 -124 -134 -279 -283 -393 -377 -35 -30 -84 -79 -108 -109 -69
-84 -131 -110 -285 -116 -93 -4 -142 -1 -207 12 -47 10 -103 20 -125 22 -36 4
-38 3 -25 -10 8 -9 47 -20 85 -26 39 -5 99 -14 135 -20 163 -24 237 -30 273
-22 23 6 39 5 43 -1 7 -12 8 -11 -42 -31 -51 -20 -141 -23 -219 -8 -33 6 -82
11 -108 11 -27 0 -67 4 -90 9 -23 5 -78 17 -122 26 -44 9 -114 27 -156 41 -42
13 -85 24 -96 24 -27 0 -90 27 -128 54 -16 11 -38 26 -49 31 -11 6 -21 16 -24
23 -5 17 23 15 38 -3 22 -27 160 -87 160 -70 0 17 -86 86 -144 115 -73 37 -90
55 -101 107 -9 43 6 49 131 57 92 5 113 3 220 -24 66 -16 142 -33 169 -36 28
-3 82 -12 120 -20 96 -19 392 -34 452 -23 26 5 57 19 68 30 l20 21 -52 -7
c-29 -4 -53 -4 -53 -1 0 3 17 17 38 30 98 62 545 514 558 564 4 13 2 28 -3 33
-13 13 -43 1 -43 -17 0 -8 -8 -14 -18 -14 -10 0 -27 -7 -38 -15 -19 -13 -22
-12 -32 10 -13 27 -30 30 -81 11 -29 -10 -31 -13 -17 -25 29 -25 31 -23 -134
-175 -36 -34 -92 -83 -125 -111 -32 -27 -80 -72 -108 -98 -49 -49 -145 -101
-169 -92 -7 3 -69 9 -138 14 -69 6 -165 19 -215 30 -146 33 -268 49 -283 38
-18 -14 -13 -16 69 -31 41 -7 121 -23 179 -34 307 -59 503 -82 539 -63 37 20
25 -15 -15 -46 -38 -29 -46 -29 -184 -18 -68 5 -295 40 -346 53 -22 6 -67 13
-102 17 -82 8 -92 12 -92 40 0 13 -3 26 -7 28 -5 3 -64 -7 -132 -20 -99 -20
-128 -23 -148 -14 -22 10 -24 16 -19 44 16 75 18 97 9 97 -19 0 -55 -49 -64
-87 -12 -51 -31 -367 -24 -396 14 -56 -101 -90 -225 -67 -30 6 -99 13 -154 16
-56 4 -109 11 -118 16 -42 21 -218 331 -218 383 0 11 -18 59 -41 106 -28 56
-43 103 -46 141 -7 66 6 90 46 87 61 -5 68 -1 76 39 11 63 66 214 98 272 17
30 55 78 85 107 30 29 52 59 50 68 -5 26 -59 -15 -121 -92 -56 -69 -124 -213
-151 -318 -12 -47 -15 -50 -49 -53 l-36 -3 0 66 c1 128 72 335 156 452 46 65
128 133 159 133 9 0 46 12 82 26 133 53 341 70 494 39 165 -33 481 -157 505
-199 10 -18 147 -86 172 -86 11 0 53 -13 94 -30 74 -29 113 -38 103 -22 -4 7
-36 23 -281 143 -123 60 -121 76 3 29 45 -16 118 -43 162 -60 44 -16 91 -30
103 -30 12 0 35 -7 51 -15 15 -8 36 -15 46 -15 10 0 24 -9 31 -20 14 -21 132
-61 279 -95 36 -9 93 -27 127 -41 61 -25 97 -29 96 -9 0 14 -121 75 -148 75
-12 0 -65 16 -116 36 -52 19 -123 43 -159 54 -36 10 -171 55 -300 100 -129 45
-253 88 -275 95 -63 21 -157 54 -195 69 -19 8 -80 22 -135 32 -55 10 -101 19
-103 20 -2 1 1 12 8 23 23 44 -84 152 -110 111 -6 -10 -14 -4 -29 21 -12 19
-21 41 -21 49 0 8 -11 39 -25 68 -20 43 -25 71 -27 145 -1 51 4 112 10 137 6
25 22 90 35 145 14 55 38 129 56 164 17 36 31 73 31 83 0 25 148 325 182 369
15 20 28 42 28 48 0 6 17 30 39 54 21 23 53 66 71 95 25 41 37 52 58 52 15 0
52 16 83 35 32 20 86 41 125 50 38 9 101 26 139 39 59 20 145 39 206 45 8 0
20 -4 25 -9z m1675 -13 c-10 -9 -11 -8 -5 6 3 10 9 15 12 12 3 -3 0 -11 -7
-18z m29 -83 c-7 -19 -12 -51 -12 -70 0 -35 -30 -89 -60 -108 -26 -16 -31 -2
-14 33 9 16 16 42 16 56 0 28 19 71 53 119 25 35 33 20 17 -30z m93 -36 c-8
-43 -42 -125 -57 -138 -10 -8 -11 1 -5 38 4 26 8 54 8 63 1 19 38 69 51 69 5
0 7 -15 3 -32z m-233 -39 c-11 -38 -37 -79 -50 -79 -13 0 -13 12 1 47 11 30
37 63 50 63 4 0 4 -14 -1 -31z m-2246 2 c7 -10 -22 -37 -30 -28 -9 8 3 37 15
37 5 0 12 -4 15 -9z m1088 4 c6 -6 -39 -166 -51 -178 -11 -11 -63 89 -59 115
4 31 92 81 110 63z m-375 -67 c-3 -8 -6 -5 -6 6 -1 11 2 17 5 13 3 -3 4 -12 1
-19z m1433 -53 c-13 -33 -92 -145 -102 -145 -15 0 -21 31 -11 53 16 34 93 117
109 117 10 0 11 -6 4 -25z m107 3 c-2 -7 -10 -39 -17 -70 -18 -78 -90 -166
-90 -108 0 30 40 131 55 136 7 3 16 16 19 30 4 13 14 24 22 24 9 0 14 -6 11
-12z m94 -87 c-6 -11 -11 -35 -11 -53 0 -35 -51 -128 -70 -128 -13 0 -13 54
-1 98 12 39 85 135 89 116 2 -7 -2 -22 -7 -33z m-1341 -88 c-22 -65 -63 -157
-76 -172 -2 -2 -15 4 -29 13 -30 20 -33 61 -9 132 21 63 57 98 104 102 l36 2
-26 -77z m1080 -84 c-18 -83 -80 -157 -80 -95 0 40 29 110 58 137 15 15 29 25
31 23 2 -2 -2 -31 -9 -65z m114 -74 c-6 -45 -14 -65 -38 -91 -17 -19 -34 -34
-38 -34 -12 0 -9 45 5 76 18 41 68 117 73 111 2 -2 1 -30 -2 -62z m136 31 c0
-3 -4 -8 -10 -11 -5 -3 -10 -1 -10 4 0 6 5 11 10 11 6 0 10 -2 10 -4z m-1540
-56 c-8 -5 -28 -10 -45 -9 l-30 0 30 24 c27 22 31 23 45 9 13 -13 13 -16 0
-24z m1159 -27 c-16 -42 -89 -95 -89 -65 0 23 65 91 87 92 9 0 10 -7 2 -27z
m111 -104 c-12 -65 -21 -79 -52 -79 -33 0 -23 61 18 109 20 23 38 40 41 38 2
-3 -1 -33 -7 -68z m-1336 45 c20 -8 20 -44 2 -89 -15 -34 -29 -41 -60 -29 -21
8 -20 22 4 78 21 47 26 51 54 40z m1751 -15 c16 -15 -15 -29 -66 -29 -42 0
-59 10 -59 35 0 16 107 10 125 -6z m-286 -55 c-13 -52 -79 -135 -79 -99 0 33
75 164 87 151 2 -2 -2 -25 -8 -52z m127 -62 c-12 -11 -18 7 -10 30 l8 23 4
-23 c2 -13 1 -26 -2 -30z m-372 -8 c7 -18 -44 -74 -68 -74 -29 0 -26 19 8 54
37 39 51 44 60 20z m-1248 -49 c12 -49 -48 -89 -91 -61 -32 21 -31 35 3 63 38
31 80 30 88 -2z m1354 -30 c0 -40 -55 -97 -74 -78 -14 14 -5 52 14 58 11 3 25
15 31 26 11 21 29 17 29 -6z m93 -37 c-24 -24 -37 -21 -27 6 3 9 16 16 27 16
l21 0 -21 -22z m107 -33 c0 -44 -12 -60 -24 -30 -5 13 11 75 20 75 2 0 4 -20
4 -45z m-470 23 c-1 -7 -12 -26 -25 -43 -25 -30 -25 -30 -25 -6 0 24 25 61 42
61 4 0 8 -6 8 -12z m146 -54 c-8 -35 -21 -52 -65 -83 -37 -26 -51 -18 -51 30
0 38 88 114 109 94 8 -8 11 -23 7 -41z m249 -21 c-6 -50 -12 -63 -43 -91 -35
-32 -37 -33 -40 -12 -4 26 13 71 46 123 35 52 45 47 37 -20z m-139 3 c-6 -26
-52 -86 -66 -86 -4 0 -11 7 -14 15 -3 10 10 33 36 61 44 47 54 50 44 10z m264
-6 c0 -5 -4 -10 -10 -10 -5 0 -10 5 -10 10 0 6 5 10 10 10 6 0 10 -4 10 -10z
m-513 -26 c10 -28 -16 -91 -52 -123 -20 -17 -39 -31 -44 -31 -5 0 -4 24 1 53
7 37 19 62 41 85 35 36 45 39 54 16z m113 -84 c0 -11 -16 -38 -37 -60 -31 -36
-38 -39 -51 -27 -19 20 -3 49 46 82 44 30 42 30 42 5z m140 4 c0 -48 -24 -105
-55 -129 -19 -14 -38 -25 -44 -25 -28 0 1 79 49 133 34 40 50 46 50 21z m195
7 c3 -5 1 -12 -5 -16 -5 -3 -10 1 -10 9 0 18 6 21 15 7z m-65 -71 c0 -39 -29
-90 -62 -109 -24 -15 -34 -17 -40 -8 -4 6 -3 16 2 21 6 6 10 19 10 29 0 18 65
87 82 87 4 0 8 -9 8 -20z m-430 -99 c-16 -30 -79 -76 -90 -65 -6 6 -4 27 4 54
11 37 18 46 39 48 14 2 31 10 39 19 12 15 13 13 16 -10 2 -14 -2 -35 -8 -46z
m156 42 c-22 -91 -29 -104 -68 -138 -23 -19 -45 -32 -49 -28 -15 15 8 78 41
113 18 19 39 45 48 58 20 31 36 28 28 -5z m329 -51 c-6 -16 -7 -16 -16 0 -6
11 -5 26 3 45 l13 28 3 -29 c2 -15 1 -35 -3 -44z m160 48 c3 -5 1 -10 -4 -10
-6 0 -11 5 -11 10 0 6 2 10 4 10 3 0 8 -4 11 -10z m-365 -78 c-9 -50 -31 -82
-84 -120 -36 -26 -45 -29 -50 -17 -13 35 8 77 62 125 68 61 82 63 72 12z m107
-85 c-14 -23 -37 -53 -52 -67 l-27 -25 7 45 c5 34 17 56 48 88 37 38 42 41 45
22 2 -11 -8 -40 -21 -63z m-3293 7 c18 -7 12 -24 -8 -24 -7 0 -21 7 -32 15
-19 14 -19 14 3 15 12 0 28 -3 37 -6z m3394 -72 c-2 -50 -9 -76 -26 -100 -13
-17 -28 -32 -34 -32 -13 0 -1 74 19 118 9 18 17 43 18 55 3 27 3 27 16 27 8 0
10 -22 7 -68z m-3572 40 c-3 -6 -44 -16 -91 -23 -47 -7 -90 -18 -96 -25 -15
-18 5 -26 36 -14 32 12 75 13 75 1 0 -5 -22 -11 -48 -15 -52 -7 -92 -28 -74
-40 6 -3 59 3 119 13 159 29 259 42 343 43 84 1 190 -11 190 -21 0 -4 -105
-12 -232 -19 -269 -13 -418 -41 -418 -78 0 -23 16 -24 73 -4 31 11 65 20 75
20 9 0 27 7 39 15 25 18 253 33 419 29 100 -3 259 -26 272 -39 3 -3 -44 -2
-104 2 -188 13 -473 7 -524 -11 -25 -9 -52 -16 -60 -16 -27 0 -130 -34 -130
-43 0 -5 11 -7 25 -5 33 7 42 -8 10 -16 -43 -11 -29 -28 18 -22 23 3 107 10
187 16 80 5 210 15 289 20 142 10 177 6 148 -19 -10 -7 -101 -15 -268 -21
-309 -12 -404 -22 -447 -44 -26 -14 -31 -20 -22 -31 13 -15 53 -12 137 11 60
16 93 18 93 4 0 -5 -7 -10 -14 -10 -29 0 -176 -51 -176 -61 0 -10 56 -3 98 12
31 12 72 11 72 -1 0 -5 -12 -12 -27 -15 -67 -14 -149 -39 -159 -49 -26 -25
-47 -186 -24 -186 14 0 47 69 55 117 7 43 28 72 39 54 7 -11 -26 -123 -55
-186 -21 -46 -35 -202 -21 -224 21 -30 39 -4 45 66 9 91 51 262 71 281 29 30
29 -12 -3 -140 -17 -68 -35 -153 -41 -190 -6 -37 -15 -79 -20 -93 -12 -33 -12
-56 0 -75 18 -29 30 6 59 167 16 88 34 169 39 180 6 11 16 50 22 86 8 46 18
71 30 77 26 14 28 5 13 -53 -56 -206 -76 -292 -84 -357 -4 -41 -13 -102 -19
-135 -6 -33 -14 -75 -17 -92 -4 -26 -2 -33 10 -33 19 0 29 34 52 175 31 196
75 379 101 424 14 25 14 24 10 -24 -6 -62 -41 -242 -61 -312 -9 -29 -20 -76
-25 -105 -6 -29 -13 -61 -16 -72 -4 -12 -2 -17 7 -14 8 3 17 18 20 34 9 39 42
152 69 239 12 39 26 88 31 110 25 121 63 235 78 235 5 0 16 3 25 6 23 9 20
-18 -9 -75 -66 -131 -155 -429 -204 -686 -11 -55 -22 -107 -26 -116 -6 -15 20
-47 31 -37 2 3 7 29 11 57 6 53 23 81 23 38 0 -13 -5 -61 -11 -106 -10 -72 -9
-85 4 -99 15 -14 17 -13 27 12 5 15 10 35 10 44 1 9 7 31 15 47 14 29 15 27 9
-35 -3 -35 -10 -72 -15 -81 -14 -26 -11 -83 5 -105 12 -16 15 -16 19 -4 9 29
27 136 27 157 0 31 19 75 29 69 5 -4 5 -22 1 -43 -11 -49 -19 -154 -13 -170
18 -47 43 32 43 137 0 74 11 112 27 96 4 -4 13 -66 18 -138 10 -121 9 -133 -8
-148 -29 -28 -83 -38 -252 -49 -258 -16 -375 -6 -375 32 0 7 9 41 20 75 29 92
26 163 -11 274 -18 51 -40 127 -50 168 -9 41 -22 93 -28 115 -11 40 -38 307
-48 480 -12 215 41 385 149 476 85 72 110 86 168 93 30 3 87 12 125 19 74 14
81 14 71 -1z m3182 -30 c-13 -47 -25 -71 -51 -99 -33 -37 -42 -29 -39 32 3 46
7 55 23 55 10 0 28 13 40 30 28 38 40 30 27 -18z m-3120 -4 c-5 -13 -106 -33
-116 -23 -12 11 20 21 111 34 5 0 7 -5 5 -11z m97 2 c-3 -5 -19 -10 -36 -10
-16 0 -29 5 -29 10 0 6 16 10 36 10 21 0 33 -4 29 -10z m3309 -111 c-5 -48
-13 -68 -32 -86 -41 -38 -55 -31 -47 24 5 32 18 60 43 89 20 24 37 42 40 40 2
-2 0 -32 -4 -67z m186 1 l-8 -35 -1 45 c-1 27 3 40 8 35 6 -6 6 -25 1 -45z
m-2555 -30 c3 -5 0 -12 -6 -15 -10 -7 -59 31 -59 46 0 9 57 -18 65 -31z m2246
-83 c-10 -96 -25 -108 -119 -100 -40 3 -71 10 -70 15 6 18 182 168 189 160 4
-4 4 -37 0 -75z m246 51 c-3 -7 -5 -2 -5 12 0 14 2 19 5 13 2 -7 2 -19 0 -25z
m-3013 13 c11 -4 15 -10 10 -13 -11 -8 -497 -7 -490 0 18 18 439 29 480 13z
m-554 -25 c0 -11 -19 -15 -25 -6 -3 5 1 10 9 10 9 0 16 -2 16 -4z m1090 -6 c0
-5 -5 -10 -11 -10 -5 0 -7 5 -4 10 3 6 8 10 11 10 2 0 4 -4 4 -10z m-1143 -6
c-3 -3 -12 -4 -19 -1 -8 3 -5 6 6 6 11 1 17 -2 13 -5z m3577 -12 c2 -4 -4 -13
-14 -20 -20 -12 -36 0 -25 18 7 12 32 13 39 2z m107 -35 c-8 -8 -11 -5 -11 9
0 27 14 41 18 19 2 -9 -1 -22 -7 -28z m-3231 -17 c0 -12 -41 -30 -53 -23 -4 3
-3 11 4 19 13 16 49 19 49 4z m-70 -10 c0 -5 -13 -10 -30 -10 -16 0 -30 5 -30
10 0 6 14 10 30 10 17 0 30 -4 30 -10z m3100 -15 c0 -19 -24 -29 -47 -21 -14
6 -14 8 3 21 25 19 44 19 44 0z m112 -17 c-6 -6 -16 -7 -23 -3 -9 6 -7 12 7
22 21 15 34 -1 16 -19z m-3228 -4 c28 -11 17 -24 -19 -24 -27 0 -35 -4 -35
-18 0 -15 -6 -17 -36 -14 -42 5 -117 -13 -161 -40 -38 -23 -55 -7 -18 18 14 9
25 26 25 38 1 20 2 20 14 4 14 -19 46 -25 46 -9 0 6 -6 13 -12 18 -11 7 50 18
169 32 6 0 18 -2 27 -5z m2521 -74 c3 -5 1 -10 -4 -10 -6 0 -11 5 -11 10 0 6
2 10 4 10 3 0 8 -4 11 -10z m-2585 -30 c0 -5 -4 -10 -9 -10 -5 0 -16 -3 -25
-6 -11 -4 -16 -1 -16 10 0 10 9 16 25 16 14 0 25 -4 25 -10z m5207 -276 c-3
-3 -12 -4 -19 -1 -8 3 -5 6 6 6 11 1 17 -2 13 -5z m-2912 -198 c21 -8 41 -18
42 -23 2 -5 -22 -32 -54 -60 -32 -28 -103 -95 -159 -149 -55 -55 -130 -124
-165 -154 -62 -53 -68 -55 -112 -52 -48 4 -61 16 -28 27 10 3 50 35 87 72 210
202 318 309 331 330 8 13 16 23 17 23 0 0 19 -7 41 -14z m585 -23 c-1 -15 -30
-46 -37 -40 -3 4 2 16 12 27 19 21 25 24 25 13z m-2990 -154 c0 -5 -4 -9 -10
-9 -5 0 -10 7 -10 16 0 8 5 12 10 9 6 -3 10 -10 10 -16z m2820 -9 c0 -5 -7
-10 -15 -10 -8 0 -15 5 -15 10 0 6 7 10 15 10 8 0 15 -4 15 -10z m-2843 -107
c-8 -97 -27 -170 -39 -149 -10 17 6 149 23 193 16 42 22 24 16 -44z m2763 -38
c0 -17 -2 -17 -10 -5 -5 8 -10 24 -10 35 0 17 2 17 10 5 5 -8 10 -24 10 -35z
m76 18 c-10 -10 -19 5 -10 18 6 11 8 11 12 0 2 -7 1 -15 -2 -18z m-2916 -13
c0 -5 -4 -10 -10 -10 -5 0 -10 5 -10 10 0 6 5 10 10 10 6 0 10 -4 10 -10z
m-4935 -99 c44 -57 97 -104 181 -157 84 -53 175 -127 200 -161 40 -54 76 -144
81 -203 9 -94 -3 -146 -43 -185 -31 -31 -40 -35 -88 -35 -100 0 -109 5 -180
96 -36 46 -66 88 -66 93 0 4 -13 25 -29 45 -30 38 -39 68 -61 221 -7 44 -20
107 -30 140 -20 67 -34 177 -24 188 13 13 22 7 59 -42z m7675 -11 c0 -5 -4
-10 -10 -10 -5 0 -10 5 -10 10 0 6 5 10 10 10 6 0 10 -4 10 -10z m-170 -74
c-14 -13 -29 -21 -34 -18 -10 6 30 42 47 42 7 0 0 -11 -13 -24z m71 -13 c-8
-15 -10 -15 -11 -2 0 17 10 32 18 25 2 -3 -1 -13 -7 -23z m-36 -33 c3 -5 1
-10 -4 -10 -6 0 -11 5 -11 10 0 6 2 10 4 10 3 0 8 -4 11 -10z m215 -29 c-6
-12 -17 -21 -25 -21 -21 0 -19 10 7 37 25 26 36 16 18 -16z m-210 -29 c0 -4
-9 -13 -20 -20 -22 -13 -27 -3 -8 16 14 14 28 16 28 4z m-130 -52 c0 -5 -7
-10 -16 -10 -8 0 -12 5 -9 10 3 6 10 10 16 10 5 0 9 -4 9 -10z m80 0 c0 -5 -4
-10 -10 -10 -5 0 -10 5 -10 10 0 6 5 10 10 10 6 0 10 -4 10 -10z m-2255 -62
c17 -23 48 -62 70 -86 l39 -44 -24 -44 c-32 -61 -74 -100 -123 -113 -45 -13
-173 -10 -342 7 -55 6 -200 14 -323 17 -122 4 -235 10 -251 15 -16 4 -32 6
-34 3 -8 -7 -207 16 -277 33 -63 16 -122 51 -193 117 -28 26 -29 30 -14 45 15
15 24 15 89 2 53 -10 137 -13 302 -12 l230 3 20 -25 c18 -22 36 -28 126 -42
132 -20 544 -22 567 -3 20 17 39 57 48 99 9 45 32 81 48 74 6 -2 26 -23 42
-46z m2140 22 c-3 -5 -11 -10 -16 -10 -6 0 -7 5 -4 10 3 6 11 10 16 10 6 0 7
-4 4 -10z m25 -35 c-13 -14 -26 -23 -28 -20 -7 7 29 45 41 45 6 0 0 -11 -13
-25z m-75 -5 c-3 -5 -11 -10 -16 -10 -6 0 -7 5 -4 10 3 6 11 10 16 10 6 0 7
-4 4 -10z m-50 -50 c-10 -11 -28 -20 -40 -20 -12 0 -52 -16 -88 -35 -50 -27
-67 -32 -67 -21 0 15 34 33 150 82 61 25 72 24 45 -6z m-1226 -36 c29 -22 82
-62 118 -91 35 -29 73 -55 84 -58 10 -4 19 -10 19 -14 0 -22 -71 -31 -283 -35
l-228 -4 -10 24 c-14 39 -11 81 8 100 14 13 28 15 74 10 64 -6 77 1 105 57 35
68 34 68 113 11z m-469 -43 l105 -17 -2 -59 c-1 -32 -7 -63 -13 -69 -10 -10
-346 -10 -363 1 -5 3 -2 12 6 21 8 10 24 38 36 63 16 36 29 50 58 62 47 20 45
20 173 -2z m1070 -32 c11 -6 7 -8 -15 -9 -57 0 -135 13 -135 23 0 11 127 0
150 -14z m190 -19 c8 -5 12 -12 8 -15 -9 -9 -59 6 -52 16 7 12 25 11 44 -1z
m-336 -20 c15 -15 -14 -12 -49 6 l-30 14 35 -5 c19 -3 39 -10 44 -15z m436 10
c0 -5 -4 -10 -10 -10 -5 0 -10 5 -10 10 0 6 5 10 10 10 6 0 10 -4 10 -10z
m-360 -26 c0 -2 -9 -4 -21 -4 -11 0 -18 4 -14 10 5 8 35 3 35 -6z m-2680 -4
c0 -5 -2 -10 -4 -10 -3 0 -8 5 -11 10 -3 6 -1 10 4 10 6 0 11 -4 11 -10z m130
-21 c51 -16 92 -19 320 -27 128 -4 204 -11 202 -17 -2 -11 -183 -13 -302 -3
-165 14 -186 17 -213 27 -16 6 -40 11 -53 11 -14 0 -22 4 -19 10 8 13 22 13
65 -1z m2750 7 c0 -11 -19 -15 -25 -6 -3 5 1 10 9 10 9 0 16 -2 16 -4z m-271
-32 c2 -2 2 -7 -1 -10 -8 -8 -88 15 -88 25 0 8 79 -5 89 -15z m48 -20 c-3 -3
-12 -4 -19 -1 -8 3 -5 6 6 6 11 1 17 -2 13 -5z m-1659 -35 c12 -5 193 -9 401
-9 208 0 385 -2 394 -6 24 -9 61 -128 48 -152 -12 -23 -80 -32 -211 -27 -311
12 -446 15 -605 15 -168 0 -299 13 -309 29 -9 14 17 97 38 120 36 41 74 52
151 45 39 -4 80 -10 93 -15z m882 -20 c0 -6 -4 -7 -10 -4 -5 3 -10 11 -10 16
0 6 5 7 10 4 6 -3 10 -11 10 -16z m-1257 0 c31 -13 36 -43 12 -75 -14 -18 -16
-18 -90 20 -41 22 -75 44 -75 50 0 15 119 19 153 5z m1367 -75 c0 -2 -12 -4
-26 -4 -14 0 -23 4 -20 9 6 8 46 4 46 -5z m-206 -182 c21 -11 -26 -22 -100
-22 -56 0 -86 4 -100 15 -17 13 -9 15 86 13 58 -1 109 -4 114 -6z m-67 -868
c-3 -3 -12 -4 -19 -1 -8 3 -5 6 6 6 11 1 17 -2 13 -5z"/>
<path d="M8819 5198 c-3 -69 -24 -182 -62 -329 -44 -171 -69 -245 -162 -479
-45 -115 -53 -150 -36 -150 15 0 36 35 71 118 62 148 82 197 105 247 12 28 30
86 40 130 9 44 21 98 26 120 36 147 37 160 24 174 -11 11 -10 16 6 32 12 12
20 35 21 64 1 25 2 53 2 62 1 10 -7 19 -16 21 -10 2 -18 -2 -19 -10z"/>
<path d="M8916 5162 c-2 -4 -7 -35 -10 -68 -15 -158 -91 -448 -202 -763 -26
-74 -33 -106 -25 -114 19 -19 57 30 92 116 18 45 36 95 40 112 4 16 25 82 47
145 22 63 45 144 52 180 7 36 16 88 22 115 5 28 12 103 15 168 4 101 3 117
-10 117 -9 0 -18 -4 -21 -8z"/>
<path d="M8689 5113 c-6 -16 -17 -55 -24 -88 -27 -115 -35 -142 -56 -191 -28
-65 -79 -214 -79 -232 0 -8 -18 -52 -40 -98 -22 -46 -40 -89 -40 -96 0 -7 -18
-49 -40 -94 -45 -92 -59 -144 -41 -144 21 0 51 20 51 34 0 7 17 51 39 97 106
230 215 535 231 645 5 38 14 92 19 119 6 28 10 56 10 63 2 23 -19 12 -30 -15z"/>
<path d="M8996 4988 c-2 -7 -9 -58 -16 -113 -7 -55 -21 -136 -32 -180 -21 -86
-106 -346 -138 -419 -11 -27 -15 -48 -10 -51 15 -9 30 4 30 24 0 10 8 29 18
42 10 13 31 58 46 99 15 41 43 118 63 170 19 52 41 118 48 145 15 61 26 211
18 259 -6 36 -20 48 -27 24z"/>
<path d="M9216 4938 c-53 -51 -72 -88 -43 -88 18 1 129 108 125 122 -9 25 -27
17 -82 -34z"/>
<path d="M9050 4267 c-19 -11 -53 -35 -75 -52 -22 -17 -62 -46 -90 -65 -55
-36 -105 -80 -105 -91 0 -4 7 -10 16 -13 11 -4 52 17 117 60 111 75 187 142
187 167 0 21 -6 20 -50 -6z"/>
<path d="M7856 3857 c-9 -7 -19 -29 -23 -50 -5 -30 -1 -44 22 -77 16 -22 36
-40 46 -40 11 0 37 16 59 36 32 29 40 43 40 70 0 29 -5 36 -32 47 -53 22 -94
27 -112 14z"/>
<path d="M5801 5552 c-83 -152 -88 -162 -70 -161 8 0 35 44 61 97 26 53 59
116 73 139 14 23 21 44 16 47 -5 4 -41 -51 -80 -122z"/>
<path d="M5908 5606 c-9 -18 -30 -49 -47 -69 -17 -19 -31 -44 -31 -55 0 -11
-7 -36 -15 -56 -21 -50 -1 -46 32 7 44 70 103 189 97 199 -10 15 -20 8 -36
-26z"/>
<path d="M5963 5568 c-13 -17 -63 -168 -63 -191 0 -36 25 -10 48 49 12 32 30
74 39 92 15 29 15 34 1 48 -12 12 -17 13 -25 2z"/>
<path d="M6036 5501 c-4 -7 -5 -15 -2 -18 9 -9 19 4 14 18 -4 11 -6 11 -12 0z"/>
<path d="M7485 4733 c-28 -42 -32 -63 -11 -63 18 0 76 66 76 85 0 29 -39 15
-65 -22z"/>
<path d="M7413 4642 c-29 -19 -44 -106 -19 -115 22 -9 39 19 44 73 4 49 -1 58
-25 42z"/>
<path d="M7350 4630 c0 -5 5 -10 11 -10 5 0 7 5 4 10 -3 6 -8 10 -11 10 -2 0
-4 -4 -4 -10z"/>
<path d="M7305 4497 c-22 -12 -46 -36 -54 -52 -8 -17 -18 -38 -23 -47 -13 -29
-10 -31 44 -24 63 9 75 18 100 73 32 72 6 91 -67 50z"/>
<path d="M7190 4278 c-16 -20 -60 -88 -60 -94 0 -3 15 -4 33 -2 22 2 35 10 42
26 7 15 18 22 36 22 31 0 54 23 45 45 -7 19 -80 21 -96 3z"/>
<path d="M7087 4073 c-2 -5 -7 -24 -11 -45 -5 -29 -2 -41 17 -63 20 -24 26
-26 45 -16 13 7 24 25 28 47 5 28 2 40 -17 60 -22 23 -53 32 -62 17z"/>
<path d="M7046 3862 c-3 -5 -8 -28 -12 -50 -6 -41 -6 -42 29 -57 49 -20 64
-19 77 6 17 31 -4 72 -46 92 -40 20 -41 20 -48 9z"/>
<path d="M7034 3597 c-9 -23 23 -76 50 -83 40 -10 61 -1 64 27 2 19 -4 31 -23
43 -38 25 -83 32 -91 13z"/>
<path d="M6925 3100 c-14 -23 16 -32 161 -50 82 -9 160 -22 174 -28 21 -9 100
-25 134 -27 5 0 11 5 13 11 4 12 -122 49 -227 65 -41 6 -82 15 -90 19 -28 14
-158 22 -165 10z"/>
<path d="M6940 3010 c0 -27 24 -36 173 -60 221 -36 331 -57 376 -74 53 -19 51
-19 51 -3 0 22 -32 45 -75 55 -22 6 -101 26 -175 45 -74 20 -164 38 -200 42
-36 3 -84 8 -107 11 -39 5 -43 3 -43 -16z"/>
<path d="M6687 2940 c-19 -16 -52 -58 -75 -92 -22 -35 -49 -74 -60 -88 -11
-14 -31 -59 -45 -100 -27 -82 -46 -230 -28 -230 16 0 21 14 37 107 22 130 105
283 203 377 58 55 28 79 -32 26z"/>
<path d="M7011 2911 c-16 -10 7 -18 139 -46 41 -8 116 -27 165 -41 50 -14 113
-30 140 -35 28 -5 95 -20 150 -33 61 -14 101 -19 104 -13 7 19 -45 46 -119 62
-41 9 -97 23 -125 31 -196 55 -426 93 -454 75z"/>
<path d="M6774 2791 l-90 -79 -53 -153 c-65 -188 -66 -195 -51 -214 25 -31 22
-39 83 192 30 111 65 168 152 247 58 53 80 86 57 86 -4 0 -48 -35 -98 -79z"/>
<path d="M7006 2843 c-3 -10 -32 -37 -64 -60 -32 -24 -65 -55 -72 -70 -8 -16
-25 -41 -38 -57 -41 -51 -69 -118 -106 -252 -20 -72 -36 -136 -36 -142 0 -6 9
-16 19 -22 18 -9 21 -3 41 88 12 53 35 138 51 188 25 78 37 100 83 150 62 67
64 69 125 119 24 19 51 34 60 31 9 -2 48 -7 86 -11 39 -3 113 -19 165 -35 101
-30 468 -120 488 -120 7 0 12 4 12 10 0 18 -63 42 -179 66 -64 14 -215 50
-337 80 -238 58 -289 65 -298 37z"/>
<path d="M8061 2817 c-32 -32 1 -72 51 -62 53 12 75 37 41 48 -10 3 -32 10
-49 15 -22 7 -35 7 -43 -1z"/>
<path d="M7135 2759 c-8 -12 35 -38 75 -45 19 -4 42 -13 52 -21 23 -21 265
-105 457 -161 122 -35 156 -48 132 -50 -17 -2 -60 6 -94 17 -34 11 -80 23
-102 26 -22 3 -60 14 -85 24 -94 39 -344 111 -382 111 -9 0 -29 -5 -45 -11
-26 -10 -27 -11 -10 -23 11 -9 34 -12 62 -8 34 3 66 -3 133 -26 113 -41 511
-142 557 -142 22 0 38 6 41 15 4 8 9 15 13 15 13 0 71 -56 71 -69 0 -12 -51
-8 -120 10 -19 5 -49 9 -66 9 -16 0 -66 9 -110 19 -43 11 -122 29 -174 41 -52
12 -147 39 -210 60 -116 39 -144 44 -212 42 -62 -3 -43 -18 38 -31 41 -7 114
-26 162 -42 205 -71 459 -126 665 -146 42 -4 57 -2 57 7 0 7 61 73 136 146
l137 134 49 0 c45 0 49 2 46 21 -2 12 -16 31 -31 43 l-29 21 -29 -33 c-16 -18
-29 -39 -29 -47 0 -8 -5 -15 -10 -15 -6 0 -39 -26 -74 -57 -84 -77 -124 -108
-139 -108 -7 0 -14 19 -17 45 -5 41 -8 45 -34 48 -26 3 -28 1 -22 -21 9 -39
-20 -39 -208 -1 -178 37 -298 70 -378 106 -49 22 -67 46 -25 34 12 -4 110 -29
217 -57 107 -27 217 -56 244 -64 58 -18 86 -19 86 -5 0 19 -64 39 -315 100
-137 33 -273 67 -302 76 -58 17 -171 26 -178 13z"/>
<path d="M8431 2658 c-13 -31 -46 -66 -112 -123 -52 -44 -105 -92 -119 -106
-32 -34 -126 -102 -169 -124 -39 -20 -123 -17 -246 9 -183 38 -305 65 -354 80
-30 9 -61 16 -68 16 -24 0 -13 -20 15 -26 34 -8 102 -28 217 -64 125 -40 333
-80 424 -83 61 -2 83 2 106 17 21 14 25 21 15 24 -44 11 -45 14 -13 30 34 18
332 305 358 346 19 29 13 46 -16 46 -14 0 -25 -13 -38 -42z"/>
<path d="M7068 2668 c-9 -13 -45 -58 -81 -101 -57 -66 -70 -90 -93 -162 -23
-73 -26 -98 -22 -180 4 -98 13 -120 42 -109 13 5 15 14 10 42 -4 20 -7 77 -8
127 0 88 1 92 48 188 26 53 51 97 56 97 5 0 27 18 50 40 31 30 40 45 35 60 -8
26 -19 25 -37 -2z"/>
<path d="M8869 2656 c-8 -8 -25 -31 -39 -50 -14 -20 -29 -36 -35 -36 -5 0 -27
-21 -48 -48 -65 -79 -259 -285 -310 -327 -26 -22 -77 -75 -113 -119 -37 -43
-80 -84 -98 -91 -48 -19 -195 -27 -293 -15 -219 27 -265 33 -373 55 -63 13
-119 19 -123 15 -12 -11 -1 -16 88 -39 118 -29 244 -50 385 -62 159 -14 148
-14 198 -5 48 9 59 -8 16 -25 -34 -12 -331 6 -509 31 -108 16 -132 17 -143 6
-12 -11 -4 -15 45 -20 32 -4 94 -13 138 -21 44 -7 136 -16 205 -20 69 -4 162
-13 208 -21 84 -14 115 -12 165 13 37 18 35 36 -3 28 -37 -8 -39 7 -4 30 14 9
133 123 263 253 239 239 423 454 403 474 -6 6 -14 4 -23 -6z"/>
<path d="M6100 1690 c0 -5 5 -10 10 -10 6 0 10 5 10 10 0 6 -4 10 -10 10 -5 0
-10 -4 -10 -10z"/>
<path d="M11842 6384 c-13 -9 -36 -44 -53 -77 -32 -68 -100 -158 -197 -261
-79 -85 -142 -168 -147 -195 -2 -12 -26 -43 -53 -69 -32 -31 -63 -76 -87 -126
-37 -78 -37 -79 -31 -165 7 -89 36 -171 73 -207 31 -31 91 -54 141 -54 51 0
197 44 223 67 9 8 34 48 55 90 30 61 40 93 46 157 4 45 12 113 18 151 5 39 14
112 20 164 5 52 12 102 14 110 3 9 7 63 10 121 9 160 18 243 28 263 6 12 5 23
-3 33 -15 18 -29 18 -57 -2z m-40 -319 c-5 -22 -15 -76 -21 -120 -7 -44 -18
-117 -26 -161 -8 -45 -15 -93 -15 -106 0 -26 -23 -103 -45 -153 -58 -130 -97
-204 -117 -223 -21 -19 -27 -20 -51 -9 -18 8 -31 24 -37 47 -5 19 -21 49 -34
65 l-25 30 -31 -18 c-18 -9 -35 -15 -39 -13 -10 7 -5 108 8 176 13 66 52 142
97 190 18 19 35 46 39 60 3 14 34 58 68 97 34 39 98 112 142 163 l80 91 9 -38
c6 -24 5 -52 -2 -78z"/>
<path d="M3070 6132 c-76 -41 -168 -122 -175 -154 -4 -15 -20 -37 -36 -49 -16
-11 -29 -27 -29 -35 0 -9 -12 -35 -26 -60 -22 -38 -25 -52 -21 -106 6 -92 19
-129 71 -201 30 -43 57 -69 79 -77 17 -6 39 -15 48 -20 9 -5 38 0 74 12 46 15
60 17 66 7 10 -16 55 6 70 33 5 10 16 18 24 18 16 0 88 119 99 161 3 15 22 46
41 69 46 55 47 109 5 218 -34 89 -75 143 -139 183 -56 36 -85 36 -151 1z m160
-92 c11 -11 34 -50 51 -87 l31 -68 -17 -100 c-14 -81 -23 -110 -51 -151 -73
-109 -188 -154 -263 -102 -54 36 -75 88 -79 193 -4 90 -4 92 37 172 25 49 59
97 86 122 43 40 46 41 115 41 56 0 74 -4 90 -20z"/>
<path d="M3028 4944 c-80 -16 -113 -32 -170 -82 -112 -99 -136 -149 -125 -261
7 -70 85 -228 136 -278 110 -107 266 -136 405 -75 82 37 103 58 151 155 l47
92 -4 115 c-3 100 -7 123 -30 172 -30 64 -100 145 -137 160 -40 15 -201 16
-273 2z m268 -97 c72 -38 102 -110 106 -264 2 -78 -1 -94 -22 -132 -14 -24
-51 -65 -84 -90 -58 -46 -59 -46 -145 -49 -119 -5 -189 19 -252 87 -32 34 -50
64 -58 97 -7 27 -17 59 -22 71 -5 14 -5 33 1 49 6 14 10 37 10 52 0 40 66 120
124 150 27 14 72 31 100 39 64 16 202 11 242 -10z"/>
<path d="M3701 4193 c-6 -21 -19 -54 -29 -73 -10 -19 -24 -57 -31 -85 -7 -27
-19 -64 -27 -82 -8 -17 -11 -38 -8 -47 3 -9 1 -22 -5 -29 -6 -8 -22 -47 -35
-88 -63 -190 -89 -352 -64 -399 18 -34 82 -67 143 -75 47 -6 55 -3 119 37 76
47 141 129 156 192 9 42 -4 161 -24 221 -21 62 -43 142 -65 230 -33 139 -77
235 -106 235 -8 0 -19 -16 -24 -37z m72 -195 c9 -48 23 -101 32 -117 8 -17 15
-47 16 -68 0 -36 19 -153 35 -216 5 -22 -1 -38 -27 -77 -19 -28 -37 -50 -40
-50 -4 0 -9 10 -12 21 -5 20 -11 21 -67 16 -45 -4 -68 -11 -86 -28 -29 -27
-30 -23 -38 86 -4 70 -2 82 15 101 11 12 26 43 34 70 8 27 25 79 39 115 13 36
32 102 41 145 27 135 34 135 58 2z"/>
<path d="M12592 2642 c-19 -13 1 -26 70 -46 76 -22 88 -21 88 8 0 20 -6 24
-47 30 -27 3 -59 8 -73 11 -14 3 -31 2 -38 -3z"/>
<path d="M9565 2310 c-3 -5 -1 -10 4 -10 6 0 11 5 11 10 0 6 -2 10 -4 10 -3 0
-8 -4 -11 -10z"/>
<path d="M10076 1558 c-3 -13 -7 -36 -9 -53 -3 -16 -17 -68 -31 -115 -18 -57
-26 -104 -25 -145 1 -33 -2 -87 -6 -120 -6 -53 -4 -66 19 -110 14 -27 26 -55
26 -62 0 -7 13 -27 28 -45 15 -18 36 -45 45 -60 24 -38 85 -55 140 -40 37 10
45 9 69 -9 l28 -19 39 35 c49 44 71 106 71 194 0 86 -9 115 -59 192 -41 64
-40 89 2 52 27 -23 117 -66 175 -84 31 -9 46 -9 54 -1 19 19 0 41 -60 70 -32
16 -78 42 -103 59 -24 16 -83 48 -132 70 -73 34 -92 48 -117 84 -73 111 -143
160 -154 107z m82 -98 c15 -22 51 -73 80 -113 30 -39 65 -94 79 -122 14 -27
37 -66 52 -85 14 -19 27 -48 27 -65 1 -16 5 -55 9 -85 9 -72 -12 -126 -58
-145 -20 -8 -38 -10 -49 -4 -9 5 -36 9 -60 9 -89 0 -136 50 -174 187 -15 54
-15 75 -5 163 6 55 11 120 11 144 0 46 36 156 51 156 5 0 22 -18 37 -40z"/>
<path d="M9406 1259 c-22 -5 -81 -25 -133 -44 -74 -28 -101 -44 -131 -76 -52
-58 -61 -77 -61 -129 -1 -73 27 -117 137 -217 111 -103 119 -106 203 -73 28
12 54 18 58 15 3 -4 -9 -19 -28 -34 -33 -27 -34 -30 -28 -79 6 -49 46 -141 77
-172 8 -9 32 -35 53 -59 53 -58 101 -87 179 -107 67 -18 67 -18 91 4 13 12 30
22 39 22 9 0 23 11 32 25 11 17 26 25 45 25 62 0 108 67 136 201 11 54 12 82
3 131 -12 67 -27 88 -66 88 -13 0 -38 12 -56 27 -17 14 -46 32 -64 40 -37 15
-148 20 -199 9 -40 -9 -43 4 -7 39 19 19 24 32 19 48 -4 12 -9 47 -11 77 -4
51 -11 84 -36 168 -5 17 -16 32 -23 32 -8 0 -29 9 -47 20 -40 23 -128 33 -182
19z m156 -99 c28 -11 54 -24 58 -30 3 -6 1 -53 -6 -104 -9 -76 -17 -101 -39
-130 -15 -20 -32 -36 -37 -36 -6 0 -28 -16 -50 -36 -38 -34 -42 -35 -101 -31
-34 2 -87 14 -117 25 -45 16 -58 27 -74 59 -27 55 -31 121 -12 181 15 46 22
53 62 68 147 56 234 65 316 34z m253 -371 c132 -31 168 -43 173 -56 2 -9 -9
-13 -38 -13 l-41 0 19 -28 c58 -81 44 -172 -36 -239 -66 -55 -83 -63 -146 -63
-74 0 -102 12 -157 70 -64 65 -76 107 -55 192 9 35 16 71 16 78 0 8 14 29 32
47 28 29 38 33 87 33 30 0 96 -9 146 -21z"/>
<path d="M8495 1061 c-22 -4 -56 -18 -75 -31 -105 -74 -130 -95 -136 -112 -3
-10 -12 -18 -19 -18 -21 0 -35 -33 -35 -82 0 -31 8 -55 30 -88 16 -25 30 -51
30 -58 0 -7 19 -32 43 -55 35 -35 61 -49 138 -75 99 -33 142 -39 181 -22 13 5
42 14 65 20 53 13 101 53 120 100 8 19 21 42 28 50 8 8 18 53 24 98 10 79 9
86 -13 130 -30 60 -47 74 -126 110 -70 32 -178 46 -255 33z m186 -62 c115 -38
147 -89 131 -207 -12 -83 -24 -108 -76 -153 l-38 -33 -117 0 c-139 0 -165 9
-213 72 -55 73 -72 111 -60 136 6 11 14 31 17 43 14 51 198 159 276 162 8 1
44 -9 80 -20z"/>
<path d="M2840 698 c0 -18 18 -34 28 -24 3 4 -2 14 -11 23 -16 16 -17 16 -17
1z"/>
</g>
</svg>
