<?xml version="1.0" standalone="no"?>
<!DOCTYPE svg PUBLIC "-//W3C//DTD SVG 20010904//EN"
 "http://www.w3.org/TR/2001/REC-SVG-20010904/DTD/svg10.dtd">
<svg version="1.0" xmlns="http://www.w3.org/2000/svg"
 width="1280.000000pt" height="738.000000pt" viewBox="0 0 1280.000000 738.000000"
 preserveAspectRatio="xMidYMid meet">
<metadata>
Created by potrace 1.15, written by Peter Selinger 2001-2017
</metadata>
<g transform="translate(0.000000,738.000000) scale(0.100000,-0.100000)"
fill="#000000" stroke="none">
<path d="M4880 7367 c-20 -7 -56 -29 -82 -49 -25 -21 -50 -38 -57 -38 -7 0
-42 16 -80 35 -37 19 -77 35 -90 35 -60 0 -180 -99 -223 -185 l-25 -48 -291
-1 c-161 -1 -292 0 -292 0 0 1 7 18 15 37 19 46 19 62 -1 81 -39 40 -117 6
-148 -63 -10 -22 -24 -42 -30 -44 -6 -2 -108 2 -226 10 -201 13 -302 13 -525
-3 l-91 -7 -13 29 c-25 58 -56 94 -79 94 -31 0 -112 -76 -112 -105 0 -22 -5
-24 -72 -27 -40 -2 -100 -1 -133 4 -91 11 -353 2 -400 -13 -79 -27 -29 -64 69
-52 28 3 134 5 236 4 102 -1 218 -2 259 -1 81 0 96 -7 106 -48 11 -47 43 -72
91 -72 24 0 46 5 49 10 9 15 -13 40 -35 40 -24 0 -43 25 -36 48 5 15 20 21 64
27 80 10 628 9 644 -2 7 -4 56 -8 108 -8 l95 0 3 -60 c3 -79 9 -105 26 -105
20 0 41 30 61 85 10 28 25 57 32 66 14 17 11 17 486 10 l107 -1 0 -49 c0 -26
5 -63 12 -82 13 -38 56 -99 69 -99 5 0 29 -14 54 -32 42 -30 44 -33 30 -52
-41 -56 -55 -85 -65 -133 -12 -58 -12 -58 -42 -42 -76 41 -378 75 -858 98
-309 15 -1496 19 -1510 5 -19 -19 11 -30 115 -42 108 -11 167 -13 805 -17 234
-2 466 -6 515 -9 50 -2 185 -8 302 -11 160 -6 217 -11 230 -21 16 -13 3 -14
-102 -9 -66 2 -196 7 -290 10 -93 3 -215 8 -270 12 -55 3 -392 5 -750 5 -679
0 -643 2 -810 -40 -20 -5 -31 -15 -33 -30 -5 -33 18 -36 120 -18 187 35 433
43 938 31 113 -3 294 -7 403 -10 109 -2 201 -6 206 -9 4 -3 93 -6 197 -7 104
-1 252 -6 329 -10 231 -14 377 -21 441 -23 55 -1 65 -4 95 -34 18 -18 51 -37
72 -43 36 -9 44 -7 120 34 45 24 95 47 110 51 36 9 428 9 450 0 20 -7 22 -63
6 -169 -6 -38 -12 -163 -14 -276 -3 -179 0 -221 20 -335 27 -152 33 -167 102
-258 29 -37 53 -69 53 -70 -1 -8 -50 -178 -58 -201 -6 -16 -16 -57 -23 -90 -6
-33 -15 -69 -19 -80 -4 -11 -20 -74 -35 -140 -15 -66 -34 -147 -42 -180 -29
-114 -64 -290 -74 -370 -31 -270 -41 -342 -49 -356 -22 -41 10 -148 44 -149
15 -1 56 -36 56 -49 0 -13 -98 -78 -141 -93 -19 -6 -42 -19 -52 -29 -10 -11
-22 -19 -27 -19 -8 0 -90 -103 -109 -137 -8 -15 -38 -17 -346 -26 -88 -3 -161
-10 -195 -20 -71 -21 -150 -48 -172 -58 -10 -5 -23 -9 -29 -9 -17 0 -275 -116
-368 -167 -47 -25 -111 -58 -142 -73 -30 -16 -61 -36 -69 -45 -7 -9 -44 -34
-81 -56 -37 -21 -71 -48 -74 -59 -3 -11 -15 -20 -26 -20 -17 0 -19 8 -19 100
0 154 -35 217 -151 276 -67 33 -72 34 -126 24 -31 -5 -64 -17 -73 -25 -16 -14
-19 -14 -31 5 -14 21 -15 21 -77 5 -35 -9 -66 -14 -70 -11 -3 4 6 19 20 34 14
15 33 41 43 58 16 27 31 36 112 60 52 16 104 38 116 50 12 11 58 38 102 59 44
21 95 51 113 67 18 15 38 28 46 28 7 0 31 16 55 36 61 53 48 59 -113 58 -75
-1 -138 2 -141 6 -3 4 -34 5 -70 3 -40 -4 -76 -1 -95 7 -50 21 -34 31 40 24
50 -5 74 -3 85 6 23 19 18 40 -9 40 -40 0 -40 18 0 35 26 11 34 19 30 31 -3 8
1 25 9 37 23 32 19 37 -29 37 -55 0 -66 13 -26 30 42 17 39 40 -5 40 -43 0
-45 14 -4 29 39 13 36 44 -5 51 l-29 5 37 17 c22 11 36 25 36 36 0 10 13 31
29 46 24 23 28 32 19 46 -9 14 -5 24 18 54 16 20 34 36 40 36 22 0 45 26 38
43 -6 16 -17 18 -77 16 -47 -2 -72 2 -75 9 -2 7 8 12 25 13 15 1 33 2 38 4 6
1 43 3 82 3 l73 2 21 45 c11 24 17 49 13 56 -4 7 -8 26 -9 43 -1 17 -9 49 -18
71 -29 76 -27 88 18 103 21 7 69 12 105 10 64 -3 65 -4 85 -40 22 -42 40 -44
40 -5 0 14 3 29 8 33 4 4 7 16 7 26 0 22 -34 37 -110 46 -47 6 -55 10 -58 29
-2 13 10 41 26 65 32 47 62 125 62 162 0 33 14 41 96 56 88 16 240 8 306 -15
42 -15 54 -27 104 -101 32 -46 65 -86 73 -88 62 -19 278 -66 301 -66 15 0 32
-6 38 -13 7 -7 37 -14 74 -15 130 -5 168 -38 67 -58 -30 -6 -75 -18 -100 -27
-61 -22 -224 -67 -243 -67 -21 0 -20 12 4 42 14 18 43 31 105 48 47 13 88 27
91 31 11 18 -50 20 -116 4 -39 -10 -73 -15 -76 -12 -8 8 -177 -50 -256 -88
-21 -10 -38 -25 -38 -32 0 -17 4 -17 51 8 51 25 70 20 38 -10 -32 -31 -93 -58
-151 -66 -44 -7 -48 -6 -48 13 0 13 16 31 42 49 42 28 60 53 38 53 -19 0 -212
-100 -249 -128 -18 -15 -45 -34 -60 -43 -14 -8 -45 -39 -68 -68 -50 -60 -58
-114 -23 -146 24 -22 96 -38 172 -39 62 -1 84 -15 133 -86 l26 -37 -41 -139
c-23 -76 -52 -173 -64 -214 -17 -60 -26 -75 -41 -75 -24 0 -98 90 -146 177
-42 77 -58 81 -154 38 -80 -36 -105 -55 -105 -82 0 -23 0 -23 68 11 31 16 71
32 88 35 30 7 33 5 108 -106 42 -62 88 -129 102 -148 22 -30 24 -42 19 -80 -4
-25 -20 -75 -36 -112 -34 -79 -36 -92 -9 -85 33 9 38 -55 14 -180 -5 -27 -3
-33 10 -33 23 0 42 49 56 148 9 61 16 82 26 78 7 -3 29 13 48 35 52 56 50 109
-4 199 l-40 67 21 51 c28 66 37 59 75 -54 17 -51 40 -99 56 -116 15 -17 28
-40 28 -52 0 -27 27 -66 45 -66 7 0 27 11 43 25 34 29 48 81 33 128 -5 18 -12
44 -15 59 -4 15 -19 43 -35 61 -20 22 -36 59 -50 112 -19 77 -30 93 -77 121
-17 10 -18 16 -7 69 7 32 14 60 16 62 10 9 34 -11 60 -50 15 -23 43 -64 62
-92 20 -27 41 -67 47 -89 16 -53 46 -69 137 -73 75 -4 94 -1 256 33 83 17 226
77 279 117 17 13 39 26 48 30 9 3 25 18 34 33 15 22 19 62 25 243 5 119 12
234 17 256 6 22 13 55 17 73 4 18 19 42 34 53 44 35 140 162 151 199 17 61 13
77 -35 117 -68 57 -103 73 -162 73 -54 0 -81 16 -41 24 13 3 35 7 51 11 29 6
36 29 11 39 -8 3 -31 -1 -51 -9 -19 -8 -43 -15 -53 -15 -9 0 -29 -9 -43 -20
-28 -22 -61 -27 -55 -7 6 18 132 83 211 108 50 16 67 26 65 38 -2 9 -12 15
-23 14 -47 -4 -165 -56 -243 -108 -46 -31 -87 -54 -90 -50 -4 4 19 30 51 58
32 29 57 55 57 60 0 4 -10 7 -22 7 -26 0 -93 -50 -149 -111 -38 -41 -56 -48
-265 -98 -73 -17 -123 4 -164 70 -48 79 -102 126 -165 144 -44 13 -55 20 -51
33 11 34 9 228 -3 269 -21 77 -70 108 -87 56 -17 -50 -51 -112 -81 -147 -18
-22 -46 -73 -62 -115 l-29 -75 -67 -13 c-37 -8 -68 -13 -69 -11 -1 2 -13 19
-27 38 -43 58 -79 137 -79 174 0 49 -8 65 -30 59 -39 -10 -93 -134 -116 -263
-20 -113 -42 -156 -111 -212 -32 -26 -87 -81 -123 -123 -35 -41 -70 -77 -77
-79 -7 -3 -29 -31 -50 -63 -33 -53 -218 -313 -285 -402 -78 -104 -128 -248
-143 -416 -5 -47 -35 -223 -50 -295 -33 -147 -47 -259 -43 -326 8 -100 37
-279 58 -354 10 -36 21 -99 25 -140 4 -41 14 -99 22 -128 11 -40 14 -89 11
-190 -3 -125 -6 -142 -30 -187 -72 -137 -250 -211 -420 -176 -50 11 -66 20
-120 74 -62 61 -72 77 -190 306 -21 40 -47 105 -59 145 -11 39 -33 109 -49
156 -63 190 -85 346 -94 655 -13 424 -32 515 -134 652 -28 37 -111 95 -168
118 -41 16 -43 16 -123 -16 -60 -24 -86 -39 -96 -58 -18 -37 -3 -61 38 -61 18
0 52 -9 76 -20 24 -11 47 -20 52 -20 13 0 81 -77 101 -114 17 -34 42 -143 53
-237 4 -32 0 -120 -10 -211 -13 -124 -14 -167 -5 -217 6 -34 12 -94 14 -134 3
-72 33 -213 67 -317 118 -368 252 -617 408 -761 l76 -71 -85 8 c-119 11 -649
9 -661 -3 -6 -6 -4 -16 5 -28 15 -20 4 -19 281 -30 232 -9 455 -23 495 -30 68
-12 446 -30 500 -23 30 4 119 9 197 12 131 5 144 4 153 -13 6 -11 6 -30 1 -49
-5 -17 -12 -62 -16 -99 -8 -80 -25 -145 -53 -199 -27 -52 -111 -109 -176 -118
-27 -4 -56 -12 -65 -17 -23 -12 -113 -26 -326 -49 -129 -14 -1023 -24 -1055
-12 -16 6 -108 4 -245 -4 -200 -12 -230 -16 -335 -47 -148 -44 -378 -141 -409
-172 -20 -20 -22 -26 -12 -39 8 -9 31 -21 51 -27 35 -11 43 -9 82 14 76 44
155 57 373 60 122 2 246 10 319 21 85 12 157 16 255 12 75 -2 269 -8 432 -14
163 -5 301 -12 307 -16 6 -3 82 -2 169 4 223 14 486 14 568 1 39 -6 107 -11
152 -11 45 0 84 -4 88 -10 5 -9 329 -5 345 5 19 12 136 -20 188 -52 l57 -34
205 6 c113 3 223 9 245 13 22 4 60 4 85 -1 25 -5 74 -10 110 -12 69 -3 210
-19 298 -33 57 -10 60 -8 77 43 l10 30 130 0 c72 0 257 -3 413 -8 155 -4 282
-4 282 1 0 4 -5 13 -12 20 -9 9 -9 12 0 12 6 0 17 -9 24 -20 7 -11 22 -20 34
-20 31 0 36 -11 12 -30 -24 -19 -17 -40 13 -40 11 0 65 9 120 21 55 11 106 18
113 16 6 -3 36 -1 66 4 30 5 115 11 189 14 132 5 165 14 155 39 -5 14 -85 22
-339 35 -96 5 -149 12 -170 23 -55 28 -422 62 -650 59 -171 -2 -359 -17 -385
-31 -14 -7 -33 1 -84 34 -75 49 -123 60 -206 47 -274 -42 -297 -44 -392 -37
-106 9 -140 23 -122 53 6 10 22 23 35 30 136 69 236 117 434 208 276 126 433
205 476 240 21 16 65 49 98 72 33 24 93 83 136 135 43 51 81 94 85 96 4 2 12
-28 18 -65 18 -121 18 -121 109 -121 97 0 160 27 217 94 34 40 40 55 49 122 9
72 8 80 -14 127 -22 45 -54 76 -125 122 -18 12 -17 14 16 43 58 52 98 67 195
74 163 12 249 32 375 86 120 51 205 79 259 84 29 3 82 19 117 35 51 24 69 39
93 78 17 26 85 98 152 158 219 198 339 359 461 615 91 191 113 243 150 355 21
66 50 148 64 181 13 34 32 98 43 142 10 44 33 126 49 183 17 57 36 131 42 164
20 108 103 450 111 459 9 10 14 -9 28 -109 13 -88 30 -105 110 -105 74 1 132
14 212 51 l66 31 6 66 c5 51 3 70 -8 82 -10 11 -15 38 -15 76 0 32 -7 136 -16
229 -8 94 -19 222 -24 285 -5 63 -17 178 -26 255 -9 77 -20 201 -24 275 -4 74
-12 158 -19 185 -7 28 -14 69 -17 92 -3 38 -1 42 24 50 15 6 63 7 107 3 44 -4
152 -8 240 -9 88 -1 178 -6 200 -11 22 -5 76 -7 120 -5 44 1 118 -4 165 -11
47 -8 124 -19 173 -26 l87 -12 26 26 26 26 -28 18 c-18 12 -57 21 -108 26 -45
4 -137 14 -206 23 -165 22 -269 33 -570 60 -85 8 -177 19 -205 24 -27 5 -55
10 -61 10 -13 1 -29 39 -40 91 -8 41 -96 210 -122 233 -21 19 -136 57 -173 57
-32 0 -48 17 -24 27 20 7 324 -14 375 -27 19 -4 170 -11 334 -15 165 -3 303
-8 308 -11 4 -3 17 0 28 6 13 7 20 7 20 0 0 -5 15 -9 33 -8 43 2 445 -21 478
-28 17 -3 34 2 50 14 l23 20 -39 12 c-22 6 -128 15 -235 20 -107 5 -226 13
-265 19 -85 13 -451 31 -628 31 -71 0 -147 4 -170 10 -23 5 -104 14 -181 19
-118 8 -142 13 -160 30 -28 26 -72 27 -111 1 -18 -12 -47 -20 -75 -20 -25 0
-64 -5 -88 -10 -29 -7 -56 -7 -82 0 -23 6 -167 11 -352 11 -365 1 -400 4 -408
38 -3 13 -21 32 -41 44 -43 25 -75 19 -122 -23 -33 -28 -39 -30 -158 -35 -68
-3 -236 -6 -374 -6 l-250 -1 3 61 c4 70 -19 159 -46 185 -24 21 -106 29 -152
13z m90 -52 c41 -21 53 -67 44 -167 -13 -155 -83 -310 -207 -464 -45 -56 -95
-113 -112 -126 -69 -57 -136 -98 -160 -98 -29 0 -30 3 -10 33 9 14 11 27 5 37
-8 12 -11 12 -28 -3 -28 -26 -35 -21 -27 21 3 20 9 63 12 95 3 36 10 60 19 64
7 3 42 -9 77 -26 35 -17 68 -31 73 -31 18 0 120 105 162 167 52 77 58 92 71
188 14 95 2 147 -42 188 -24 23 -29 32 -20 45 5 9 22 18 37 20 23 3 29 -2 39
-28 15 -39 41 -36 45 6 3 27 -2 35 -33 54 -27 17 -33 25 -23 31 19 13 46 11
78 -6z m-390 -98 c0 -92 -75 -221 -166 -286 -43 -31 -54 -20 -54 52 0 91 60
198 138 248 66 42 82 39 82 -14z m175 -22 c23 -13 47 -35 54 -48 18 -34 19
-183 1 -222 l-14 -30 -4 28 c-5 37 -15 34 -53 -13 -39 -48 -56 -43 -29 10 13
26 16 41 9 46 -6 3 -16 1 -22 -5 -15 -15 -27 -14 -27 3 0 21 -20 30 -33 17
-17 -17 -29 -13 -22 8 3 11 1 28 -6 38 -9 15 -8 26 3 49 9 16 21 54 27 84 19
84 17 81 48 69 15 -6 46 -21 68 -34z m-2107 -69 c3 -15 1 -16 -17 -6 -12 6
-19 16 -15 21 9 15 28 5 32 -15z m3306 -12 c4 -10 1 -14 -6 -12 -15 5 -23 28
-10 28 5 0 13 -7 16 -16z m-538 -75 c213 0 224 -7 74 -53 -95 -28 -176 -74
-190 -108 -5 -13 -21 -78 -36 -146 -15 -68 -32 -129 -38 -136 -9 -11 -27 -12
-81 -5 -38 4 -120 6 -181 2 -61 -3 -118 -2 -127 3 -14 8 -4 27 68 128 47 66
85 124 85 130 0 6 11 33 25 60 14 27 25 57 25 66 0 45 73 75 157 64 17 -3 116
-5 219 -5z m1532 -29 c55 -28 58 -40 8 -40 -47 0 -165 -34 -221 -63 -103 -52
-207 -190 -258 -339 -7 -20 -40 -23 -120 -12 l-46 7 6 97 c7 115 -6 182 -48
239 -32 45 -101 81 -165 86 -85 7 -114 16 -114 35 0 18 17 19 347 16 191 -2
358 0 372 4 52 15 183 -1 239 -30z m-1092 5 c28 -8 70 -28 94 -43 26 -17 66
-32 93 -36 26 -3 74 -18 105 -33 l57 -28 0 -45 c-1 -31 -13 -69 -37 -120 -56
-117 -196 -433 -244 -555 -24 -60 -51 -123 -59 -140 -8 -16 -21 -70 -30 -119
-24 -134 -3 -183 36 -81 31 81 40 79 37 -5 -2 -41 1 -199 5 -350 4 -151 10
-369 13 -484 2 -114 9 -217 15 -227 5 -11 7 -34 4 -52 -4 -17 -2 -77 4 -133
17 -168 27 -472 23 -713 -2 -82 -4 -92 -17 -81 -8 7 -15 23 -15 35 0 27 -36
75 -56 75 -17 0 -19 -36 -3 -46 6 -3 20 -27 31 -51 28 -64 13 -82 -88 -110
-44 -12 -92 -25 -109 -28 -52 -10 -197 11 -279 40 l-78 28 7 71 c4 39 18 118
32 176 13 58 28 130 33 160 5 30 17 107 28 170 67 385 126 905 127 1130 0 41
4 78 9 81 5 4 5 12 2 18 -8 12 -36 15 -37 4 0 -5 -2 -30 -4 -58 -5 -60 -21
-214 -40 -385 -8 -69 -19 -177 -25 -240 -7 -63 -16 -140 -20 -170 -8 -50 -17
-107 -51 -335 -6 -38 -19 -101 -29 -140 -10 -38 -21 -97 -25 -130 -3 -33 -13
-85 -22 -115 -8 -30 -19 -82 -24 -114 -4 -33 -14 -66 -22 -74 -13 -12 -18 -9
-40 20 -13 18 -32 56 -41 85 -9 28 -24 54 -33 57 -16 7 -16 10 3 -88 l7 -39
-32 19 c-17 10 -43 28 -57 39 l-27 21 16 95 c20 122 37 255 37 297 0 22 5 32
15 32 21 0 49 69 65 160 7 41 16 84 20 95 5 11 14 46 21 77 8 39 18 59 30 63
34 11 69 153 99 410 12 99 33 234 47 300 14 66 27 146 29 178 2 32 8 66 13 75
8 14 11 11 17 -16 8 -41 25 -37 43 12 12 31 12 50 1 119 -13 83 -11 116 11
218 10 49 9 68 -6 135 -10 44 -24 88 -32 99 -12 20 -40 118 -68 240 -19 82
-39 255 -40 345 l0 75 46 23 c25 12 68 26 95 31 32 5 70 21 109 48 50 34 69
41 111 42 28 1 73 -6 100 -14z m1408 -99 l31 -13 -52 -26 c-28 -15 -55 -32
-58 -38 -5 -7 -27 -8 -69 -3 -91 12 -133 7 -216 -25 -77 -30 -230 -81 -243
-81 -22 0 0 35 54 83 70 64 160 105 259 117 83 11 254 3 294 -14z m-2474 -38
c0 -7 -7 -22 -15 -32 -12 -16 -15 -17 -15 -4 0 24 11 48 21 48 5 0 9 -6 9 -12z
m2591 -75 c65 -103 98 -297 159 -933 6 -58 15 -143 20 -190 5 -47 14 -129 19
-183 6 -54 11 -205 10 -334 l-1 -235 -25 -24 c-25 -23 -41 -28 -139 -39 -45
-5 -53 -2 -75 21 l-24 26 1 256 c1 245 14 441 35 507 5 17 11 64 14 105 3 41
10 108 16 147 9 57 9 79 -1 103 -9 21 -10 54 -6 110 6 64 5 80 -6 80 -23 0
-38 -22 -38 -54 0 -17 -8 -94 -19 -171 -27 -196 -41 -346 -41 -450 0 -79 -3
-92 -23 -114 -19 -21 -26 -46 -36 -121 -6 -52 -11 -111 -10 -130 2 -39 -19
-208 -27 -221 -3 -5 -9 -36 -15 -68 -14 -90 -48 -193 -62 -188 -7 2 -13 18
-15 35 -4 37 -53 81 -128 112 -27 12 -54 28 -61 36 -10 14 -13 13 -23 -5 -6
-12 -21 -21 -33 -21 -22 0 -47 -17 -47 -31 0 -4 26 -5 59 -2 54 5 62 3 115
-31 32 -20 56 -43 56 -53 0 -24 -42 -83 -59 -83 -8 0 -25 -9 -37 -21 -27 -25
-46 -17 -38 17 12 46 -14 24 -31 -26 -9 -27 -21 -53 -27 -56 -6 -4 -7 -24 -3
-50 5 -39 3 -47 -20 -68 -20 -18 -24 -30 -20 -49 6 -22 0 -30 -46 -61 -72 -48
-83 -47 -76 7 17 130 51 323 71 402 13 50 29 124 36 165 23 146 41 216 65 259
30 52 31 64 5 56 -16 -5 -20 -2 -20 19 0 15 9 59 20 98 11 40 20 83 20 96 0
13 8 37 17 55 16 30 26 75 40 172 l5 40 -19 -25 c-10 -14 -24 -47 -31 -75 -7
-27 -24 -75 -38 -105 -13 -30 -40 -111 -59 -180 -39 -137 -61 -177 -93 -172
-15 2 -29 -8 -49 -37 -38 -55 -58 -54 -49 2 6 40 18 227 32 497 6 114 9 127
31 151 35 37 36 117 4 182 -23 48 -23 53 -17 220 8 173 0 233 -26 225 -8 -3
-13 -34 -14 -94 -4 -148 -14 -296 -24 -344 -15 -71 -51 -238 -71 -325 -10 -44
-25 -118 -34 -165 -8 -47 -27 -137 -40 -200 -14 -63 -30 -147 -35 -185 -6 -39
-15 -77 -19 -84 -11 -18 -47 -8 -86 23 l-29 24 12 93 c7 52 17 139 22 194 11
113 40 280 76 435 13 58 35 173 49 255 26 155 125 578 144 613 8 14 42 27 133
51 130 33 262 72 315 92 25 10 42 10 86 0 50 -13 57 -12 83 6 67 47 101 63
132 63 28 0 37 -7 63 -47z m-2032 -56 c0 -33 -2 -38 -9 -22 -12 28 -12 78 0
70 6 -3 10 -25 9 -48z m886 -295 c-9 -70 -23 -163 -32 -207 -8 -44 -19 -98
-23 -120 -33 -172 -127 -481 -156 -516 -8 -8 -14 -23 -14 -31 0 -21 -27 -85
-40 -93 -7 -4 -10 58 -11 182 -1 103 -3 222 -4 263 -2 80 1 89 110 340 46 106
52 129 34 142 -10 7 -8 8 7 3 21 -5 36 25 130 250 16 38 16 -83 -1 -213z
m-891 86 c16 -68 32 -139 37 -158 4 -19 26 -96 49 -170 37 -122 41 -142 36
-208 -3 -40 -10 -91 -15 -115 -6 -23 -26 -125 -46 -227 -38 -191 -40 -200 -55
-200 -30 0 -113 246 -118 350 -7 142 0 390 13 475 9 55 18 116 20 135 24 207
29 240 40 240 6 0 23 -54 39 -122z m-334 2 c0 -5 -9 -10 -21 -10 -11 0 -17 5
-14 10 3 6 13 10 21 10 8 0 14 -4 14 -10z m70 -6 c0 -11 -5 -14 -16 -10 -9 3
-18 6 -20 6 -3 0 -2 5 1 10 10 16 35 12 35 -6z m112 -6 c-6 -6 -16 -7 -22 -3
-9 6 -9 9 1 16 17 10 34 0 21 -13z m1188 -28 c0 -5 -4 -10 -9 -10 -6 0 -13 5
-16 10 -3 6 1 10 9 10 9 0 16 -4 16 -10z m57 -84 c6 -6 -25 -184 -58 -326 -12
-52 -25 -115 -29 -140 -4 -25 -20 -108 -35 -185 -14 -77 -35 -189 -46 -250
-11 -60 -21 -117 -24 -125 -11 -36 -35 -251 -35 -317 0 -70 1 -73 33 -96 17
-13 57 -38 88 -55 46 -26 59 -29 72 -19 22 17 60 202 107 522 6 39 14 81 19
95 5 14 12 38 16 54 8 38 20 24 17 -22 -3 -55 -31 -256 -48 -342 -42 -222 -69
-537 -79 -895 -11 -399 -16 -514 -31 -635 -24 -204 -16 -185 -78 -199 -30 -7
-83 -29 -118 -50 -34 -22 -66 -37 -71 -34 -10 6 69 106 137 172 42 42 53 58
45 68 -18 21 -60 -8 -146 -102 -43 -47 -79 -81 -81 -76 -4 11 41 102 69 143
11 14 19 33 19 42 0 21 -27 10 -35 -14 -3 -11 -23 -39 -43 -64 -20 -25 -50
-80 -65 -121 -35 -93 -43 -97 -164 -85 -94 10 -126 16 -273 50 -101 24 -220
41 -232 34 -9 -6 -68 24 -68 34 1 15 36 142 41 147 3 2 37 -2 75 -11 138 -31
160 -35 237 -44 66 -8 87 -6 135 10 92 30 175 67 204 92 l28 23 -1 140 c0 77
-2 196 -5 265 -3 104 -4 247 -3 415 0 49 -7 302 -16 580 l-8 260 57 140 c51
125 73 192 146 435 43 144 63 231 81 349 10 67 24 130 31 138 9 12 26 14 71
10 32 -3 61 -8 64 -11z m923 -565 c0 -17 -4 -33 -10 -36 -6 -4 -10 8 -10 29 0
20 5 36 10 36 6 0 10 -13 10 -29z m-3562 -483 c-2 -51 -7 -99 -11 -105 -5 -8
-32 -13 -73 -13 -75 0 -77 5 -39 81 33 66 86 129 108 129 16 0 18 -9 15 -92z
m-438 -128 c31 -51 41 -79 46 -133 7 -67 6 -69 -42 -163 l-49 -94 -45 6 c-25
4 -49 9 -53 11 -13 7 17 251 51 412 l15 75 19 -24 c11 -13 37 -54 58 -90z
m3189 -184 c-9 -8 -10 -3 -5 23 3 18 7 43 8 55 1 11 3 1 5 -23 3 -26 -1 -48
-8 -55z m136 -191 c-8 -110 -24 -271 -35 -358 -11 -87 -20 -177 -20 -201 0
-24 -4 -56 -10 -72 -9 -27 -18 -87 -40 -278 -10 -84 -12 -92 -30 -81 -12 7 -7
124 10 250 28 199 51 416 45 424 -3 6 4 70 16 143 12 73 25 158 29 188 18 122
35 199 42 192 4 -4 1 -97 -7 -207z m-79 5 c-24 -170 -47 -368 -50 -430 -10
-194 -25 -320 -38 -320 -5 0 -7 8 -4 17 4 9 1 60 -5 114 -10 78 -9 110 1 161
7 35 14 101 16 148 2 83 20 202 50 345 8 39 14 80 14 93 0 13 6 33 13 45 11
21 12 20 15 -18 2 -22 -4 -92 -12 -155z m134 123 c0 -68 -15 -86 -23 -29 -7
47 -1 76 14 76 5 0 9 -21 9 -47z m-1925 -3 c75 -20 115 -53 115 -93 -1 -89
-120 -193 -264 -230 -32 -9 -68 -25 -80 -36 -19 -18 -195 -77 -286 -96 -19 -4
-100 -28 -180 -52 -212 -65 -473 -98 -532 -67 -32 17 -34 24 -14 63 17 33 132
141 149 141 7 0 20 -6 29 -14 14 -10 30 -10 85 0 37 6 80 15 94 19 27 7 56
-14 31 -23 -17 -5 -15 -30 4 -40 14 -8 14 -12 3 -30 -7 -12 -10 -25 -6 -29 5
-4 38 25 74 65 36 40 79 80 95 88 16 8 71 22 121 30 173 28 390 97 445 142 31
25 35 33 26 48 -13 23 -54 34 -125 35 -78 1 -94 14 -44 35 22 9 65 27 95 40
67 28 76 28 165 4z m1735 -1 c0 -5 -4 -9 -10 -9 -5 0 -10 7 -10 16 0 8 5 12
10 9 6 -3 10 -10 10 -16z m-2150 4 c0 -11 -32 -43 -44 -43 -28 0 -87 23 -80
30 5 5 32 11 59 13 28 2 53 4 58 5 4 1 7 -1 7 -5z m2135 -100 c-8 -84 -25
-107 -25 -36 0 51 13 103 26 103 3 0 3 -30 -1 -67z m-1285 -70 c0 -33 -3 -44
-11 -36 -9 9 -3 83 7 83 2 0 4 -21 4 -47z m-2005 -53 c3 -5 -1 -10 -10 -10 -9
0 -13 5 -10 10 3 6 8 10 10 10 2 0 7 -4 10 -10z m3275 -24 c0 -14 -4 -28 -10
-31 -6 -4 -10 7 -10 24 0 17 5 31 10 31 6 0 10 -11 10 -24z m590 -113 c0 -3
-18 -63 -41 -132 -30 -92 -48 -132 -67 -148 -19 -16 -30 -19 -37 -12 -7 7 -1
17 18 33 27 22 36 46 17 46 -5 0 -28 -7 -50 -16 -50 -20 -64 -10 -28 19 14 12
45 37 67 55 23 18 41 42 41 53 0 22 -6 23 -40 4 -61 -35 -53 -6 9 34 26 17 56
40 66 51 17 19 45 27 45 13z m-90 -21 c0 -8 -12 -18 -65 -52 -16 -11 -38 -25
-47 -32 -9 -7 -21 -9 -25 -4 -8 8 2 17 77 66 47 31 60 36 60 22z m-3735 -22
c4 -6 -17 -10 -55 -10 -38 0 -59 4 -55 10 3 6 28 10 55 10 27 0 52 -4 55 -10z
m-25 -76 c0 -2 -16 -4 -35 -4 -19 0 -35 4 -35 8 0 4 16 6 35 4 19 -2 35 -6 35
-8z m1122 -76 c1 -29 1 -62 0 -73 -12 -130 3 -184 69 -258 l52 -58 -22 -23
c-11 -12 -21 -28 -21 -35 0 -18 41 -4 61 22 9 11 21 17 27 13 6 -4 25 0 43 9
31 17 46 15 35 -4 -4 -6 -37 -28 -74 -50 -84 -49 -176 -66 -351 -66 -100 0
-125 3 -131 15 -41 86 -59 117 -115 193 -36 48 -65 90 -65 92 0 3 -20 31 -45
62 -49 63 -47 69 22 77 61 8 217 46 228 57 5 5 20 9 35 10 14 0 66 16 115 34
130 47 135 47 137 -17z m2542 24 c2 -4 -13 -17 -35 -29 -45 -25 -55 -8 -11 19
30 20 39 21 46 10z m-2480 -43 c8 -43 8 -69 -2 -69 -10 0 -32 81 -26 92 10 17
22 7 28 -23z m-1444 -39 c0 -5 -2 -10 -4 -10 -3 0 -8 5 -11 10 -3 6 -1 10 4
10 6 0 11 -4 11 -10z m3865 -39 c3 -6 -4 -15 -15 -21 -22 -12 -23 -10 -14 14
7 18 20 21 29 7z m-3825 -41 c-29 -8 -48 -1 -30 10 7 4 22 5 34 2 20 -6 20 -6
-4 -12z m3731 -24 c-15 -26 -71 -66 -95 -66 -13 0 -17 7 -14 26 2 21 15 33 58
56 57 30 73 25 51 -16z m-2328 -17 c5 -19 13 -38 18 -43 5 -6 9 -19 9 -29 0
-11 12 -33 26 -50 17 -20 22 -33 15 -35 -24 -8 -87 95 -97 157 -6 34 -4 43 7
39 7 -2 17 -20 22 -39z m2557 26 c0 -21 -185 -143 -198 -131 -10 10 27 42 93
80 35 21 70 45 76 52 15 18 29 18 29 -1z m-3960 -55 c0 -5 -10 -10 -22 -10
-19 0 -20 2 -8 10 19 13 30 13 30 0z m-1831 -74 c70 -45 138 -150 160 -247 16
-70 32 -258 41 -479 18 -414 53 -601 164 -860 20 -46 36 -92 36 -101 0 -9 9
-24 20 -34 10 -9 43 -58 72 -108 54 -92 145 -197 170 -197 8 0 29 -11 47 -24
77 -57 227 -53 355 8 43 21 94 54 114 75 39 40 80 66 89 57 7 -7 -67 -80 -97
-96 -12 -6 -28 -27 -36 -46 -9 -22 -21 -34 -34 -34 -10 0 -22 -5 -25 -10 -4
-6 -12 -9 -18 -8 -7 1 -22 -3 -35 -10 -30 -17 -196 -35 -245 -28 -21 4 -66 19
-101 35 -51 23 -76 44 -144 122 -45 52 -92 114 -104 139 -12 25 -27 52 -34 60
-25 30 -200 461 -239 589 -31 101 -57 319 -51 416 25 375 25 366 4 445 -35
134 -110 250 -202 316 -64 44 24 63 93 20z m1756 -6 c7 -12 -22 -12 -50 0 -17
7 -15 9 12 9 17 1 35 -3 38 -9z m3529 -84 c-4 -26 -10 -43 -15 -39 -10 11 2
106 12 96 5 -5 6 -31 3 -57z m476 54 c0 -5 -12 -17 -27 -26 -16 -9 -66 -41
-111 -71 -145 -94 -110 -38 38 62 63 42 100 55 100 35z m-3993 -46 c-9 -9 -28
6 -21 18 4 6 10 6 17 -1 6 -6 8 -13 4 -17z m3736 11 c0 -6 -7 -11 -16 -13 -12
-3 -15 1 -11 13 7 17 25 17 27 0z m-3766 -82 c3 -7 -3 -9 -16 -6 -12 3 -21 10
-21 15 0 13 32 6 37 -9z m13 -43 c11 -7 9 -11 -13 -19 -38 -15 -70 -14 -65 1
3 7 15 15 29 19 34 10 32 10 49 -1z m3556 -67 c-9 -100 -26 -194 -39 -211 -7
-9 -7 -16 1 -24 14 -14 16 -54 3 -63 -13 -7 -25 97 -17 148 10 67 48 227 54
227 2 0 2 -35 -2 -77z m-3691 -23 c-10 -11 -27 -20 -37 -20 -24 0 -14 18 16
30 34 14 40 11 21 -10z m153 8 c-3 -7 -18 -14 -34 -16 -28 -2 -28 -2 -10 13
24 18 49 20 44 3z m3902 -7 c0 -16 -54 -49 -126 -76 -97 -37 -104 -39 -104
-26 0 12 61 45 102 55 15 3 44 17 64 31 38 26 64 32 64 16z m-4011 -85 c-2 -2
-15 -9 -29 -16 -23 -12 -24 -12 -11 3 7 10 20 17 29 17 8 0 13 -2 11 -4z
m3896 -53 c-53 -24 -75 -28 -75 -14 0 11 103 50 115 43 5 -3 -13 -16 -40 -29z
m-3795 -6 c0 -7 -23 -18 -50 -24 -28 -7 -64 -21 -80 -33 -16 -11 -31 -16 -34
-11 -9 15 53 61 82 62 15 0 36 4 47 9 28 12 35 12 35 -3z m2278 -23 l34 -27
-28 -23 c-40 -32 -50 -30 -58 14 -12 73 -4 78 52 36z m1577 6 c6 -9 -123 -80
-147 -80 -20 0 3 17 73 55 75 40 66 37 74 25z m-4085 -10 c0 -5 -12 -17 -27
-27 -16 -10 -32 -23 -36 -30 -5 -8 -12 -11 -18 -8 -12 8 -12 25 1 25 5 0 20
11 34 25 26 26 46 32 46 15z m360 -9 c-8 -5 -35 -11 -60 -14 -41 -5 -43 -4
-26 9 11 8 38 14 60 14 28 -1 36 -3 26 -9z m170 -1 c0 -5 -17 -18 -37 -29 -21
-10 -76 -39 -123 -64 -47 -26 -104 -50 -125 -56 -22 -5 -50 -13 -62 -16 -13
-4 -23 -3 -23 2 0 21 50 50 135 78 49 17 116 45 150 62 62 34 85 40 85 23z
m-310 -26 c0 -8 -4 -12 -10 -9 -5 3 -10 10 -10 16 0 5 5 9 10 9 6 0 10 -7 10
-16z m2194 -36 c9 -45 -26 -144 -74 -209 -22 -29 -40 -57 -40 -62 0 -10 28 -6
113 18 48 14 71 15 135 6 137 -19 206 -31 262 -45 80 -21 223 -36 333 -36 97
0 130 -12 82 -30 -56 -21 -168 -120 -135 -120 10 0 180 107 222 139 31 25 57
27 72 6 9 -13 17 -14 44 -4 18 6 35 9 38 6 5 -5 -89 -98 -138 -137 -15 -11
-51 -29 -80 -39 -29 -10 -80 -35 -113 -55 -33 -19 -84 -47 -113 -62 -29 -15
-55 -30 -58 -35 -3 -5 -14 -9 -26 -9 -23 0 -98 -70 -98 -93 0 -22 18 -33 113
-72 66 -26 118 -38 219 -51 73 -10 137 -21 142 -25 11 -10 -41 -32 -55 -23 -6
3 -25 -1 -43 -10 -18 -8 -52 -18 -77 -22 -24 -4 -94 -28 -155 -54 -128 -55
-227 -80 -313 -80 -87 0 -214 -19 -232 -36 -8 -8 -20 -14 -25 -14 -14 0 -54
-45 -92 -101 l-31 -46 -49 9 c-66 13 -165 -6 -160 -30 3 -14 20 -18 92 -24
137 -10 158 -25 186 -127 10 -37 8 -53 -10 -112 -27 -89 -50 -94 -51 -11 -1
66 -20 127 -40 127 -9 0 -17 -18 -23 -52 -5 -29 -13 -53 -17 -53 -4 0 -10 21
-14 46 -10 67 -14 74 -47 74 -33 0 -63 13 -95 43 -30 27 -57 16 -48 -21 3 -15
14 -35 23 -45 15 -17 14 -20 -18 -45 -131 -104 -418 -297 -555 -374 -94 -53
-113 -62 -145 -68 -19 -4 -44 -11 -55 -16 -12 -4 2 18 35 57 99 115 161 199
154 211 -4 7 -23 -8 -49 -37 -27 -32 -46 -46 -54 -41 -9 6 -5 16 16 40 59 64
66 76 69 121 4 59 -12 59 -62 -2 -68 -84 -128 -143 -147 -143 -15 0 -12 7 15
33 98 96 182 203 174 223 -3 7 -27 25 -53 39 -26 14 -60 35 -75 47 l-28 22
-25 -24 -25 -24 -17 45 c-59 151 -110 195 -218 186 -33 -3 -87 -15 -120 -27
-53 -20 -76 -39 -193 -158 -73 -75 -151 -161 -174 -191 -24 -31 -61 -78 -84
-106 -23 -27 -51 -68 -63 -90 -12 -22 -35 -62 -51 -90 -34 -59 -37 -81 -11
-95 20 -10 31 5 99 135 24 45 176 248 215 286 19 19 46 53 61 76 29 43 117
118 175 148 19 9 61 26 93 36 l59 20 41 -23 c135 -76 157 -410 42 -653 -21
-45 -145 -207 -224 -292 -35 -38 -50 -72 -50 -113 0 -37 23 -53 115 -78 76
-21 121 -19 350 15 180 26 218 27 256 6 l34 -18 -75 -3 c-120 -5 -115 -25 13
-53 40 -8 54 -16 47 -23 -7 -7 -29 -5 -73 8 -79 22 -102 24 -102 8 0 -10 -54
-13 -255 -15 -396 -4 -490 7 -520 64 -9 16 -6 29 15 65 14 24 29 44 33 44 13
0 44 61 38 76 -11 29 -52 14 -112 -41 -32 -30 -66 -57 -74 -60 -68 -21 -510
-44 -510 -26 0 6 9 11 20 11 56 0 190 78 190 111 0 33 -26 33 -118 1 -48 -16
-107 -35 -132 -40 -156 -37 -193 -44 -256 -47 -38 -2 -130 -8 -204 -13 -160
-11 -184 -12 -228 -5 -53 7 -22 33 39 33 26 0 78 7 116 16 37 9 86 17 108 19
55 4 143 21 252 49 75 19 100 31 142 66 80 68 96 105 111 261 15 161 44 279
100 420 35 88 52 116 101 168 32 35 59 72 59 82 0 10 6 19 14 19 7 0 21 12 31
26 9 15 29 40 44 56 14 16 35 44 46 62 48 78 109 166 115 166 4 0 27 30 52 68
40 59 50 68 91 79 34 9 53 22 73 50 16 21 67 76 114 123 81 81 94 89 255 167
240 117 404 175 534 190 40 5 137 9 215 8 l141 0 -3 -38 c-5 -56 18 -77 82
-77 28 0 73 -7 100 -15 91 -28 159 -12 154 34 -2 21 -9 27 -33 29 -61 7 -94
70 -75 141 6 23 14 41 18 41 4 0 39 36 77 80 39 43 75 79 81 80 6 0 14 -14 18
-32z m1636 -3 c-7 -8 -18 -15 -24 -15 -6 0 -2 7 8 15 25 19 32 19 16 0z
m-3845 -4 c-16 -14 -63 -22 -69 -12 -8 12 11 19 49 20 17 1 25 -3 20 -8z
m3635 -1 c0 -5 -5 -10 -11 -10 -5 0 -7 5 -4 10 3 6 8 10 11 10 2 0 4 -4 4 -10z
m60 -20 c0 -11 -4 -20 -9 -20 -5 0 -7 9 -4 20 3 11 7 20 9 20 2 0 4 -9 4 -20z
m-2940 -5 c0 -24 -31 -95 -42 -95 -6 0 -8 6 -5 14 3 8 11 33 17 55 10 40 30
56 30 26z m-984 -20 c-21 -16 -32 -13 -21 4 3 6 14 11 23 11 15 -1 15 -2 -2
-15z m3868 -20 c-22 -16 -44 -19 -44 -6 0 11 18 19 44 20 20 1 20 1 0 -14z
m-3724 0 c0 -8 -82 -47 -87 -41 -7 6 58 46 75 46 6 0 12 -2 12 -5z m3895 -5
c3 -5 1 -10 -4 -10 -6 0 -11 5 -11 10 0 6 2 10 4 10 3 0 8 -4 11 -10z m-225
-70 c0 -5 -5 -10 -11 -10 -5 0 -7 5 -4 10 3 6 8 10 11 10 2 0 4 -4 4 -10z
m190 -20 c0 -10 -41 -30 -61 -30 -17 0 -9 17 14 28 29 14 47 15 47 2z m-351
-29 c-10 -27 -14 -29 -55 -28 -24 1 -44 6 -44 10 0 9 78 46 97 47 9 0 9 -8 2
-29z m101 14 c0 -2 -13 -11 -30 -20 -24 -13 -30 -13 -30 -2 0 8 3 17 7 20 7 8
53 10 53 2z m140 -35 c-20 -13 -57 -13 -44 -1 10 10 46 19 54 14 2 -2 -2 -8
-10 -13z m-4028 -12 c-6 -6 -15 -8 -19 -4 -4 4 -1 11 7 16 19 12 27 3 12 -12z
m157 -29 c-30 -22 -36 -17 -13 10 10 11 22 17 27 14 5 -3 -1 -14 -14 -24z
m3931 -8 c0 -5 -13 -12 -30 -16 -16 -4 -32 -11 -35 -16 -8 -12 -25 -11 -25 1
0 11 55 39 78 40 6 0 12 -4 12 -9z m-4055 -51 c-16 -17 -36 -30 -44 -30 -10 0
-2 13 22 36 46 42 63 37 22 -6z m-130 10 c11 -17 -5 -32 -21 -19 -7 6 -11 15
-8 20 7 12 21 11 29 -1z m4065 3 c-1 -18 -18 -35 -24 -24 -4 6 -4 16 -1 21 7
12 25 13 25 3z m-100 -7 c0 -3 -4 -8 -10 -11 -5 -3 -10 -1 -10 4 0 6 5 11 10
11 6 0 10 -2 10 -4z m150 -45 c0 -12 -30 -22 -43 -14 -7 4 -3 9 9 14 26 10 34
10 34 0z m-306 -20 c8 -12 -31 -44 -43 -36 -8 4 -8 12 -1 26 11 20 35 25 44
10z m-3453 -25 c-7 -8 -34 -29 -61 -46 -27 -17 -56 -43 -65 -57 -13 -19 -20
-22 -28 -14 -9 9 2 24 43 62 51 46 110 83 119 73 2 -2 -2 -10 -8 -18z m149 16
c0 -12 -102 -93 -109 -86 -6 6 88 93 102 94 4 0 7 -4 7 -8z m3535 -2 c-3 -5
-11 -10 -16 -10 -6 0 -7 5 -4 10 3 6 11 10 16 10 6 0 7 -4 4 -10z m-3915 -30
c0 -9 -13 -24 -83 -97 -30 -32 -60 -42 -71 -24 -8 12 18 41 82 90 54 41 72 49
72 31z m-138 -32 c-15 -15 -26 -4 -18 18 5 13 9 15 18 6 9 -9 9 -15 0 -24z
m678 2 c0 -5 -9 -14 -20 -20 -22 -12 -27 -1 -8 18 14 14 28 16 28 2z m3375
-10 c-3 -5 -23 -10 -43 -10 -28 0 -33 3 -22 10 20 13 73 13 65 0z m-3309 -41
c7 -12 -65 -83 -165 -164 -35 -27 -69 -56 -76 -62 -8 -7 -16 -13 -19 -13 -17
0 -2 28 27 47 17 12 72 63 122 113 49 49 93 90 97 90 4 0 10 -5 14 -11z m2914
-24 c0 -37 -8 -42 -42 -24 -20 11 -20 11 3 35 31 33 39 30 39 -11z m74 16 c3
-5 -1 -11 -9 -15 -15 -6 -29 7 -18 18 9 9 21 8 27 -3z m246 -26 c-14 -8 -38
-14 -55 -14 l-30 1 30 13 c17 8 41 14 55 14 l25 0 -25 -14z m-3530 -4 c0 -6
-4 -13 -10 -16 -5 -3 -10 1 -10 9 0 9 5 16 10 16 6 0 10 -4 10 -9z m-255 -11
c-3 -5 -11 -10 -16 -10 -6 0 -7 5 -4 10 3 6 11 10 16 10 6 0 7 -4 4 -10z
m3590 -10 c3 -5 -3 -10 -15 -10 -12 0 -18 5 -15 10 3 6 10 10 15 10 5 0 12 -4
15 -10z m-3405 -45 c-12 -13 -31 -26 -42 -28 -17 -5 -15 1 12 28 18 19 37 32
42 29 5 -4 0 -16 -12 -29z m384 9 c7 -17 -12 -36 -114 -118 -30 -25 -57 -43
-59 -40 -3 2 26 35 64 73 37 37 72 76 77 85 11 20 24 21 32 0z m2776 1 c-7 -8
-16 -12 -21 -9 -13 8 -1 24 18 24 13 0 13 -3 3 -15z m-3480 -15 c0 -5 -9 -14
-20 -20 -16 -8 -20 -8 -20 4 0 13 13 23 33 25 4 1 7 -3 7 -9z m3710 -14 c0 -5
-141 -48 -145 -44 -11 11 18 32 51 38 44 9 94 12 94 6z m-3590 -15 c0 -5 -11
-16 -25 -25 -14 -9 -25 -22 -25 -29 0 -20 -69 -69 -87 -63 -14 6 -11 12 13 38
33 35 103 88 116 88 4 0 8 -4 8 -9z m480 -131 c0 -5 -5 -10 -11 -10 -5 0 -7 5
-4 10 3 6 8 10 11 10 2 0 4 -4 4 -10z m70 -4 c0 -16 -80 -79 -89 -70 -4 4 76
82 87 84 1 0 2 -6 2 -14z m2984 -5 c7 -11 -52 -36 -62 -27 -8 9 26 36 44 36 7
0 15 -4 18 -9z m-3169 -21 c-10 -11 -20 -18 -23 -15 -7 6 18 35 31 35 5 0 2
-9 -8 -20z m-470 -49 c-3 -6 -11 -11 -17 -11 -6 0 -6 6 2 15 14 17 26 13 15
-4z m410 0 c3 -5 1 -12 -5 -16 -5 -3 -10 1 -10 9 0 18 6 21 15 7z m-257 -85
c-85 -83 -125 -112 -136 -101 -4 4 5 17 19 28 115 95 181 147 187 147 4 0 -28
-34 -70 -74z m172 54 c0 -5 -5 -10 -11 -10 -5 0 -7 5 -4 10 3 6 8 10 11 10 2
0 4 -4 4 -10z m200 -15 c0 -8 -7 -15 -15 -15 -26 0 -18 20 13 29 1 1 2 -6 2
-14z m-490 -30 c-13 -14 -26 -23 -28 -20 -3 3 5 16 18 30 13 14 26 23 28 20 3
-3 -5 -16 -18 -30z m442 -7 c-7 -7 -12 -8 -12 -2 0 6 3 14 7 17 3 4 9 5 12 2
2 -3 -1 -11 -7 -17z m-82 -62 c0 -2 -7 -9 -15 -16 -12 -10 -15 -10 -15 4 0 9
7 16 15 16 8 0 15 -2 15 -4z m-70 -46 c0 -5 -5 -10 -11 -10 -5 0 -7 5 -4 10 3
6 8 10 11 10 2 0 4 -4 4 -10z m-250 -58 c0 -14 -24 -32 -43 -32 -17 0 -17 2 4
20 26 21 39 25 39 12z m310 -66 c0 -3 -4 -8 -10 -11 -5 -3 -10 -1 -10 4 0 6 5
11 10 11 6 0 10 -2 10 -4z m-120 -20 c0 -3 -4 -8 -10 -11 -5 -3 -10 -1 -10 4
0 6 5 11 10 11 6 0 10 -2 10 -4z m2346 -187 c8 -16 11 -29 7 -29 -12 0 -53 43
-53 56 0 22 30 4 46 -27z m64 -151 c0 -15 -4 -30 -10 -33 -6 -4 -10 12 -10 42
0 35 3 44 10 33 5 -8 10 -27 10 -42z m-2440 17 c0 -14 -11 -37 -25 -50 -49
-50 -63 -17 -17 41 32 41 42 43 42 9z m-298 -40 c-17 -24 -27 -47 -22 -50 20
-12 9 -36 -22 -49 -18 -8 -55 -13 -83 -11 -27 2 -58 4 -68 4 -32 2 -13 23 38
43 27 10 78 41 114 68 36 27 67 47 70 44 3 -2 -9 -24 -27 -49z m1578 -295 c0
-11 -7 -20 -15 -20 -8 0 -15 -6 -15 -14 0 -13 -48 -51 -55 -44 -6 5 66 98 76
98 5 0 9 -9 9 -20z m-3155 -510 c4 -6 -5 -10 -19 -10 -14 0 -26 5 -26 10 0 6
9 10 19 10 11 0 23 -4 26 -10z m-155 -11 c-149 -16 -180 -17 -180 -9 0 12 41
17 155 17 l100 0 -75 -8z m800 -9 c0 -5 -4 -10 -9 -10 -6 0 -13 5 -16 10 -3 6
1 10 9 10 9 0 16 -4 16 -10z m3304 -86 c24 -9 19 -24 -8 -24 -28 0 -43 16 -24
23 7 3 14 6 15 6 1 1 8 -2 17 -5z m156 -14 c-19 -13 -30 -13 -30 0 0 6 10 10
23 10 18 0 19 -2 7 -10z m398 -27 c13 -3 19 -9 14 -12 -15 -9 -132 -1 -132 10
0 10 83 12 118 2z"/>
<path d="M5570 5970 c-11 -11 -20 -24 -20 -28 0 -16 49 -54 63 -49 20 8 27 66
10 83 -19 19 -29 18 -53 -6z"/>
<path d="M5721 5946 c-7 -9 -9 -33 -5 -70 8 -63 21 -70 59 -31 27 26 34 82 13
103 -16 16 -53 15 -67 -2z"/>
<path d="M5752 5743 c-35 -122 -38 -394 -6 -581 16 -97 36 -365 35 -472 0 -41
-8 -138 -16 -215 -24 -233 -23 -721 3 -747 21 -21 25 20 23 246 -1 127 4 314
11 416 16 233 12 604 -7 725 -20 122 -34 405 -25 485 4 36 13 85 19 109 7 23
10 49 7 57 -10 26 -33 14 -44 -23z"/>
<path d="M5866 5038 c-31 -111 -36 -294 -8 -348 15 -31 16 -54 10 -210 -5 -96
-12 -231 -16 -300 -10 -164 -5 -260 14 -260 11 0 14 15 14 63 1 104 10 258 20
327 11 75 7 646 -5 703 -7 36 -22 49 -29 25z"/>
<path d="M5209 3315 c-14 -8 -43 -40 -65 -71 -40 -58 -48 -102 -31 -164 13
-48 121 -94 142 -60 10 16 -14 40 -41 40 -34 0 -54 26 -54 71 0 58 23 103 64
128 35 22 38 22 62 7 23 -16 24 -18 9 -39 -29 -42 -13 -87 31 -87 28 0 64 44
64 79 0 36 -35 90 -62 95 -67 14 -95 14 -119 1z"/>
<path d="M4785 3151 c-28 -4 -43 -13 -54 -32 -13 -24 -12 -28 14 -63 37 -48
68 -47 73 3 2 19 12 41 23 50 21 17 17 52 -5 50 -6 -1 -29 -5 -51 -8z"/>
<path d="M3282 1448 c-16 -16 -15 -43 2 -57 12 -10 18 -7 31 13 27 41 0 77
-33 44z"/>
<path d="M10386 6151 c-3 -4 -20 -11 -38 -15 -18 -4 -76 -27 -128 -52 -52 -25
-105 -50 -116 -56 -12 -5 -91 -84 -175 -174 -127 -136 -161 -166 -194 -175
-22 -6 -46 -16 -52 -21 -16 -13 -17 -48 -1 -48 6 0 19 -7 29 -16 17 -16 17
-18 -2 -68 -31 -78 -60 -175 -69 -231 -36 -227 -36 -224 -5 -465 35 -269 34
-283 -21 -306 -32 -13 -39 -13 -78 5 -34 15 -46 27 -56 55 -10 30 -8 42 9 82
12 26 19 50 15 53 -12 12 -52 -49 -64 -99 -33 -138 92 -233 265 -201 28 6 58
11 69 13 14 2 28 -15 60 -77 22 -45 62 -108 87 -140 69 -90 102 -144 105 -170
1 -13 14 -44 28 -68 29 -49 32 -67 13 -67 -7 0 -51 -18 -97 -40 -46 -23 -90
-38 -97 -35 -18 6 -8 42 19 72 22 24 20 73 -6 108 -12 16 -17 17 -44 6 -38
-16 -48 -10 -56 34 -8 41 -22 45 -38 10 -13 -28 -43 -33 -52 -9 -6 15 -9 14
-31 -6 -23 -22 -26 -22 -43 -7 -18 16 -20 16 -37 -3 -23 -25 -42 -26 -50 0 -4
12 -15 20 -28 20 -12 0 -31 3 -42 6 -16 4 -28 -5 -53 -40 -36 -49 -66 -59 -75
-25 -7 27 -18 20 -55 -37 -30 -44 -31 -45 -44 -25 -19 31 -34 26 -64 -19 -23
-35 -31 -40 -54 -35 -18 4 -31 1 -40 -10 -7 -8 -21 -15 -31 -15 -21 0 -39 -28
-39 -59 0 -22 -24 -29 -35 -11 -11 18 -35 11 -35 -10 0 -13 -10 -24 -25 -30
-23 -9 -25 -15 -25 -65 0 -43 -3 -55 -15 -55 -9 0 -19 -8 -22 -17 -4 -10 -13
-22 -20 -26 -12 -7 -12 -12 0 -30 14 -22 12 -97 -2 -97 -4 0 -17 7 -29 16 -31
22 -35 14 -16 -31 11 -28 13 -47 6 -74 -10 -43 11 -115 51 -174 14 -21 36 -59
48 -85 26 -52 38 -155 20 -166 -6 -4 -11 -15 -11 -24 0 -12 3 -13 12 -4 21 21
33 13 56 -34 13 -27 27 -42 33 -38 11 7 9 32 -11 129 -7 33 -7 67 0 104 13 69
13 121 0 121 -5 0 -12 -17 -15 -37 -13 -77 -17 -93 -23 -93 -8 0 -52 104 -52
121 0 6 -11 24 -25 41 -32 38 -32 50 -1 38 33 -12 41 10 19 55 -20 42 -10 59
14 24 31 -45 152 -163 159 -156 4 4 -2 17 -14 30 -12 13 -22 26 -22 29 0 3
-31 37 -69 76 -76 78 -117 156 -90 172 18 12 36 -5 127 -123 54 -70 78 -94 86
-87 8 8 5 17 -11 30 -13 10 -23 21 -23 25 0 6 -85 112 -124 155 -7 8 -16 25
-20 37 -7 23 12 113 24 113 5 0 23 -26 40 -57 48 -86 120 -196 125 -191 3 2
-27 65 -65 139 -72 138 -84 179 -52 179 27 -1 97 -102 187 -272 19 -37 35 -49
35 -27 0 15 -16 44 -65 119 -34 52 -115 219 -115 238 0 2 11 1 24 -2 19 -5 25
-1 30 19 10 39 34 30 46 -17 43 -175 77 -265 92 -250 5 5 2 24 -6 44 -43 102
-57 298 -22 298 9 0 15 -24 19 -77 7 -87 50 -188 110 -258 48 -55 59 -37 13
19 -58 72 -80 129 -78 211 2 75 24 156 48 176 20 17 23 11 34 -67 30 -209 50
-297 71 -310 13 -7 8 34 -16 161 -7 39 -16 100 -19 137 -6 64 -5 68 25 102 46
53 56 47 64 -31 4 -38 15 -126 25 -196 l18 -129 -61 -61 c-34 -34 -73 -71 -87
-82 -45 -35 -163 -165 -156 -172 4 -4 42 27 84 69 158 158 226 211 383 299
197 111 289 155 364 174 74 19 93 19 140 -1 29 -12 55 -14 114 -8 80 7 277 66
358 108 79 39 173 75 173 65 0 -5 -7 -17 -15 -27 -9 -9 -46 -52 -83 -96 -144
-169 -387 -398 -526 -496 -23 -16 -36 -33 -36 -48 0 -16 -34 -60 -98 -130
-120 -132 -331 -385 -360 -432 -11 -20 -32 -46 -46 -59 -14 -14 -26 -29 -26
-35 0 -6 -20 -40 -45 -75 -25 -36 -45 -69 -45 -76 0 -6 -16 -35 -36 -65 -111
-168 -224 -490 -260 -743 -21 -140 -24 -147 -76 -147 -269 1 -509 123 -583
296 -27 64 -28 66 -12 117 47 155 121 307 207 427 26 36 55 79 63 95 9 17 45
71 81 120 194 269 236 345 278 511 15 61 27 90 44 103 13 10 56 54 95 97 39
43 85 88 101 101 56 41 131 117 119 121 -18 6 -88 -56 -291 -260 l-188 -188
-7 -88 c-4 -48 -13 -103 -19 -122 -12 -34 -81 -129 -211 -290 -33 -41 -79
-106 -102 -145 -43 -73 -142 -283 -162 -347 -7 -20 -18 -42 -26 -48 -18 -15
-18 -15 -40 99 l-16 85 98 195 c70 140 110 210 143 244 89 94 129 159 117 191
-3 7 1 24 10 35 17 25 11 40 -10 23 -7 -6 -29 -35 -48 -64 -75 -111 -167 -256
-204 -318 -21 -36 -49 -78 -62 -93 -13 -16 -23 -33 -23 -39 0 -29 -131 -288
-152 -302 -13 -8 -41 10 -135 85 -65 52 -140 110 -168 129 -27 19 -65 48 -85
66 -84 75 -109 74 -267 -9 -57 -30 -117 -60 -135 -67 -61 -25 -182 -93 -290
-164 -59 -39 -141 -91 -184 -116 -108 -64 -117 -73 -109 -120 6 -34 2 -46 -34
-97 -22 -32 -60 -91 -85 -131 -26 -40 -53 -75 -61 -78 -8 -4 -36 7 -62 23 -71
42 -103 59 -157 84 -58 27 -76 61 -76 143 0 43 -4 57 -18 65 -11 6 -24 6 -33
0 -7 -5 -27 -9 -42 -9 -43 0 -68 65 -72 192 -3 55 -6 103 -9 105 -11 11 -43
-10 -65 -43 -54 -85 -82 -218 -61 -302 13 -55 33 -79 76 -91 26 -7 29 -12 40
-82 13 -82 23 -105 96 -221 26 -43 48 -84 48 -92 0 -8 9 -30 19 -48 26 -44 64
-175 57 -193 -3 -10 -20 -15 -48 -15 -69 0 -254 -37 -289 -57 -38 -22 -69 -88
-69 -146 0 -23 -5 -59 -11 -80 -15 -54 3 -71 120 -107 53 -17 115 -37 138 -46
l42 -15 -25 -67 c-14 -37 -29 -80 -33 -97 -4 -16 -16 -46 -26 -65 -22 -42
-100 -146 -119 -157 -7 -4 -18 -18 -25 -30 -14 -28 -46 -29 -119 -8 -50 15
-72 14 -72 -5 0 -4 11 -11 25 -14 48 -12 25 -22 -52 -23 -43 -1 -150 -6 -238
-12 -154 -10 -897 -7 -915 4 -4 3 -74 12 -154 20 -81 8 -155 19 -165 25 -11 5
-31 10 -45 10 -21 0 -26 -5 -26 -25 0 -17 7 -26 23 -30 144 -33 216 -45 264
-45 32 0 85 -5 118 -10 66 -11 481 -15 508 -4 10 3 23 1 30 -4 9 -7 26 -8 55
-1 23 5 93 9 154 8 177 -2 720 11 730 17 5 3 75 8 156 11 146 4 148 4 257 -30
147 -46 270 -59 455 -48 79 5 158 7 176 4 18 -3 75 2 127 11 118 20 516 21
543 1 14 -10 3 -13 -67 -20 -46 -5 -123 -9 -171 -9 -84 -1 -110 -8 -94 -23 4
-5 92 -9 194 -9 103 -1 225 -4 272 -7 47 -4 102 -2 122 4 28 7 47 6 80 -6 55
-19 109 -19 134 0 18 13 15 14 -31 15 -59 0 -95 9 -95 22 0 10 84 6 230 -11
47 -6 148 -15 225 -21 77 -6 178 -16 225 -21 47 -5 299 -11 560 -13 261 -2
504 -8 540 -14 36 -6 144 -10 240 -10 139 1 181 4 205 16 24 13 60 16 171 14
121 -2 148 1 185 17 28 13 89 24 169 31 69 6 132 13 142 16 9 3 42 9 73 14 74
12 109 34 95 59 -13 26 -53 31 -114 14 -43 -12 -101 -23 -251 -48 -34 -5 -178
-24 -227 -30 -68 -7 -121 -13 -303 -35 -204 -25 -295 -30 -320 -20 -23 10 -14
13 32 10 17 -1 42 5 55 12 20 11 0 14 -147 18 l-170 5 4 114 c5 155 8 165 57
171 21 3 47 4 58 1 20 -4 20 -21 0 -154 l-7 -47 41 0 c48 0 72 26 77 85 2 19
8 50 13 68 6 17 13 49 17 69 4 26 17 47 44 70 21 18 86 88 144 155 59 67 111
124 117 128 5 3 10 15 10 25 0 12 5 17 14 14 7 -3 16 2 20 11 7 20 163 210
233 285 49 53 52 58 38 78 -14 19 -14 23 3 39 11 10 31 43 45 73 14 30 54 85
89 121 34 37 81 93 103 125 22 32 56 76 76 99 19 22 51 65 71 95 20 30 56 76
80 101 25 25 56 65 69 90 14 24 52 79 84 122 33 44 74 101 90 127 17 27 48 75
70 106 22 32 54 84 70 116 34 66 138 246 228 393 34 55 71 121 84 147 13 26
28 50 34 53 5 4 21 31 34 61 13 29 44 85 69 124 25 38 55 89 67 112 12 24 33
59 48 78 14 19 46 75 71 125 25 49 50 90 55 90 6 0 12 -21 15 -47 7 -57 56
-114 105 -124 34 -6 105 18 105 35 0 6 7 11 16 11 20 0 71 53 107 113 25 41
28 57 29 131 l2 84 -43 57 c-53 69 -125 119 -161 109 -14 -3 -51 -8 -83 -10
-31 -2 -92 -18 -134 -35 -53 -21 -87 -29 -108 -25 -16 3 -64 10 -105 16 -85
12 -216 36 -272 51 -36 9 -38 12 -38 50 0 52 -49 125 -96 145 -61 26 -103 19
-143 -24 -20 -21 -42 -57 -49 -81 -17 -55 -40 -51 -61 9 -16 45 -102 173 -173
256 l-37 44 31 68 c36 76 40 80 88 88 44 7 128 66 140 98 4 12 22 37 40 54 23
23 30 39 28 59 -3 25 -7 28 -38 26 -38 -3 -85 5 -78 13 3 2 29 7 59 10 65 7
74 12 59 29 -14 17 2 51 39 82 14 12 21 22 16 23 -6 0 -15 -4 -20 -9 -17 -15
-107 -41 -143 -41 -45 0 -35 10 31 30 71 23 173 88 158 103 -8 8 -20 8 -44 -1
-18 -7 -44 -12 -58 -12 l-24 1 28 15 c15 8 27 20 27 27 0 7 6 24 13 38 17 32
19 91 4 101 -9 5 -9 12 -1 25 12 20 7 93 -7 93 -5 0 -9 11 -9 25 0 14 5 25 10
25 17 0 43 66 36 93 -4 19 -11 24 -26 20 -26 -7 -38 -66 -19 -90 12 -15 12
-16 -5 -10 -13 5 -27 1 -42 -14 -38 -35 -50 -14 -58 101 -4 65 -14 115 -26
142 -11 24 -20 55 -20 69 0 15 -7 32 -15 39 -8 7 -15 27 -15 46 0 30 -21 64
-40 64 -4 0 -11 15 -14 33 -8 41 -125 180 -205 241 -51 39 -66 46 -105 46 -65
0 -215 26 -321 55 -76 21 -111 25 -232 25 -78 0 -144 -4 -147 -9z m289 -57
c28 -8 64 -23 80 -34 17 -11 44 -20 60 -20 17 -1 41 -7 55 -15 14 -8 34 -14
45 -15 11 0 44 -16 73 -35 29 -20 60 -39 70 -43 31 -12 163 -164 157 -181 -3
-8 8 -34 25 -57 32 -45 60 -113 60 -146 0 -11 -8 -32 -19 -46 -10 -15 -22 -38
-26 -52 -4 -14 -25 -43 -47 -65 -107 -108 -150 -160 -174 -208 -26 -51 -102
-137 -122 -137 -6 0 -19 -11 -30 -25 -11 -14 -27 -25 -36 -25 -26 0 -68 -25
-101 -59 l-29 -32 18 -34 c16 -29 25 -35 52 -35 20 0 44 9 61 24 21 18 31 21
44 13 25 -16 78 20 116 78 42 67 111 144 144 161 23 12 31 11 58 -2 42 -21 39
-34 -6 -34 -21 0 -49 -6 -62 -13 -29 -15 -87 -84 -78 -93 4 -4 16 5 27 19 11
14 36 35 55 47 33 21 37 21 60 6 31 -20 33 -60 6 -146 -22 -69 -79 -170 -97
-170 -19 0 -25 30 -18 87 8 69 -9 70 -33 2 -12 -34 -30 -61 -55 -81 -41 -32
-50 -53 -18 -43 14 4 20 2 20 -9 0 -14 4 -14 36 1 25 13 40 14 51 7 25 -16 27
-34 4 -34 -11 0 -22 -4 -25 -9 -4 -5 -49 -17 -101 -26 -53 -10 -98 -21 -101
-26 -6 -11 27 -11 83 0 31 6 43 5 47 -5 8 -22 -19 -34 -89 -41 -80 -7 -113
-30 -93 -62 10 -16 9 -23 -6 -40 -14 -15 -15 -23 -6 -40 6 -12 21 -22 33 -23
38 -3 51 -5 79 -13 16 -4 50 -2 78 5 28 7 54 9 58 5 11 -10 -27 -34 -67 -41
-20 -4 -51 -18 -68 -32 -18 -13 -63 -36 -100 -52 -39 -15 -69 -34 -71 -43 -3
-13 16 -7 81 23 46 22 126 53 178 70 96 32 132 33 109 5 -10 -12 -9 -15 4 -15
19 0 66 43 66 60 0 6 5 8 10 5 25 -16 3 -49 -92 -137 -115 -106 -118 -108
-207 -138 -112 -38 -117 -23 -16 51 50 36 118 82 153 103 63 38 72 46 49 46
-13 0 -237 -139 -360 -223 -38 -26 -74 -47 -81 -47 -8 0 -19 -7 -26 -15 -7 -9
-16 -12 -20 -8 -13 15 -20 62 -10 68 5 3 10 24 10 45 0 39 0 40 55 55 30 9 57
21 61 26 24 40 -88 -1 -143 -52 -42 -39 -66 -48 -78 -29 -7 12 -65 1 -85 -16
-11 -9 -20 -10 -33 -3 -12 7 -28 6 -50 -2 -35 -12 -142 -5 -152 10 -4 7 133
21 243 25 18 0 32 6 32 14 0 15 -10 15 -125 2 -108 -13 -138 -7 -154 27 -11
24 -10 29 20 52 18 14 43 24 54 23 27 -4 75 14 75 28 0 6 -10 8 -25 4 -15 -4
-32 -1 -41 6 -11 10 -18 10 -26 2 -18 -18 -38 -14 -38 8 0 28 -17 25 -24 -5
-9 -34 -26 -22 -26 18 l-1 32 -14 -32 c-18 -43 -29 -42 -21 2 4 22 3 35 -4 35
-5 0 -10 -9 -10 -20 0 -11 -4 -20 -9 -20 -15 0 -21 15 -11 30 10 16 2 42 -11
34 -5 -3 -9 -14 -9 -25 0 -10 -4 -19 -10 -19 -5 0 -10 14 -10 30 0 34 -17 41
-22 10 -2 -12 -7 -19 -13 -18 -11 3 -11 9 0 51 5 18 3 27 -4 27 -6 0 -17 -12
-23 -27 l-12 -28 -4 38 c-3 37 -22 43 -22 6 0 -10 -5 -19 -10 -19 -6 0 -8 16
-4 42 7 39 6 41 -14 36 -19 -5 -22 -2 -22 24 0 16 -4 27 -9 24 -5 -4 -13 6
-19 21 -9 27 -9 28 -16 6 -15 -46 -22 -20 -20 70 1 51 9 115 18 143 9 27 24
81 34 119 22 82 46 94 66 35 11 -33 92 -150 103 -150 3 0 3 11 1 25 -3 14 -2
28 3 31 11 6 29 -29 29 -57 0 -12 16 -43 35 -69 19 -26 35 -50 35 -54 0 -15
-25 -4 -64 28 -51 42 -141 86 -178 86 -20 0 -28 -7 -37 -31 -13 -38 -15 -99
-3 -99 5 0 14 18 21 40 6 22 14 40 16 40 2 0 29 -11 60 -25 73 -32 191 -131
235 -197 19 -28 63 -80 97 -115 54 -55 67 -63 100 -63 58 0 115 26 141 65 23
36 29 65 12 65 -5 0 -25 -16 -44 -36 -33 -34 -38 -36 -80 -30 -63 10 -76 29
-86 133 -10 107 -24 148 -94 282 -60 113 -103 166 -153 187 -53 23 -63 19 -63
-27 0 -24 -4 -38 -10 -34 -5 3 -10 21 -10 39 0 37 -30 72 -54 63 -9 -4 -23 4
-34 20 l-19 26 -52 -28 c-50 -27 -108 -82 -142 -135 l-17 -25 -5 25 c-38 188
-27 323 45 560 42 139 45 143 107 144 34 1 52 -3 56 -13 3 -8 10 -10 18 -4 20
14 88 35 95 29 3 -4 -42 -55 -101 -114 -166 -169 -196 -273 -74 -256 54 8 111
-12 167 -56 27 -21 50 -30 85 -32 l49 -3 -2 -46 c-2 -26 1 -50 7 -54 6 -3 11
-15 11 -25 0 -24 51 -35 117 -26 35 5 51 2 64 -10 15 -14 21 -14 34 -4 13 11
8 17 -39 46 -30 19 -61 46 -71 60 -16 25 -45 108 -59 165 -6 29 -68 89 -91 89
-22 0 -19 -8 20 -44 46 -44 49 -88 6 -106 -42 -17 -63 -7 -90 45 -27 51 -55
64 -100 46 -42 -18 -79 -5 -86 31 -15 64 0 90 116 204 71 70 119 127 134 159
31 62 57 193 53 260 -3 49 -2 50 29 60 18 5 35 17 38 27 4 10 12 15 22 11 10
-4 22 3 33 17 50 67 263 95 405 54z m-606 -266 c-1 -144 -36 -197 -123 -184
-26 4 -58 17 -72 29 l-25 22 21 42 c11 23 30 47 41 54 12 6 48 35 80 65 32 30
63 54 69 54 6 0 10 -33 9 -82z m1318 -576 c-3 -15 -13 -65 -22 -112 -22 -117
-68 -263 -73 -229 -2 14 9 65 23 113 14 49 28 121 31 160 3 39 10 84 16 99 10
25 12 26 21 12 5 -9 7 -29 4 -43z m-70 -78 c-6 -93 -22 -169 -39 -188 -4 -6
-8 -2 -8 10 0 11 -5 25 -12 32 -9 9 -8 12 4 12 23 0 30 28 28 107 -3 115 -1
123 17 123 14 0 15 -11 10 -96z m299 60 c-3 -9 -6 -18 -6 -20 0 -2 -10 -4 -23
-4 -13 0 -28 -5 -35 -12 -14 -14 -27 -4 -17 12 7 12 61 39 79 40 4 0 5 -7 2
-16z m-356 -82 c0 -13 -12 -22 -22 -16 -10 6 -1 24 13 24 5 0 9 -4 9 -8z m353
-17 c1 -6 -11 -11 -28 -13 -29 -2 -29 -2 -10 13 20 16 35 16 38 0z m-538 -35
c3 -5 -1 -10 -10 -10 -9 0 -13 5 -10 10 3 6 8 10 10 10 2 0 7 -4 10 -10z
m-1175 -104 c0 -15 -18 -31 -26 -23 -7 7 7 37 17 37 5 0 9 -6 9 -14z m1690 -6
c-19 -13 -30 -13 -30 0 0 6 10 10 23 10 18 0 19 -2 7 -10z m-1733 -87 c-13
-49 -32 -58 -25 -13 3 17 1 30 -4 30 -4 0 -8 -7 -8 -15 0 -8 -4 -15 -10 -15
-14 0 -12 17 6 57 16 33 18 34 35 16 16 -16 16 -23 6 -60z m1113 40 c-1 -18
-18 -35 -24 -24 -4 6 -4 16 -1 21 7 12 25 13 25 3z m-981 -33 c5 -16 8 -30 6
-30 -3 0 -11 14 -20 30 -9 17 -11 30 -6 30 5 0 14 -13 20 -30z m71 9 c0 -11
-4 -17 -10 -14 -5 3 -10 13 -10 21 0 8 5 14 10 14 6 0 10 -9 10 -21z m-280
-49 c0 -28 -22 -51 -36 -37 -6 5 23 67 31 67 3 0 5 -14 5 -30z m320 20 c0 -5
-2 -10 -4 -10 -3 0 -8 5 -11 10 -3 6 -1 10 4 10 6 0 11 -4 11 -10z m1440 0 c0
-5 -2 -10 -4 -10 -3 0 -8 5 -11 10 -3 6 -1 10 4 10 6 0 11 -4 11 -10z m-1470
-31 c0 -11 -4 -17 -10 -14 -5 3 -10 13 -10 21 0 8 5 14 10 14 6 0 10 -9 10
-21z m1195 -68 c-14 -28 -29 -51 -34 -51 -13 0 1 45 30 100 19 37 24 41 27 23
2 -12 -8 -44 -23 -72z m-1080 5 c29 -49 32 -64 10 -46 -16 13 -75 97 -75 106
0 17 44 -23 65 -60z m1400 -16 c-3 -5 -15 -10 -26 -10 -10 0 -19 5 -19 10 0 6
12 10 26 10 14 0 23 -4 19 -10z m-108 -102 c-3 -8 -6 -5 -6 6 -1 11 2 17 5 13
3 -3 4 -12 1 -19z m98 12 c-3 -5 -13 -10 -21 -10 -8 0 -12 5 -9 10 3 6 13 10
21 10 8 0 12 -4 9 -10z m-405 -15 c0 -8 -4 -15 -10 -15 -5 0 -10 7 -10 15 0 8
5 15 10 15 6 0 10 -7 10 -15z m-20 -45 c0 -5 -10 -12 -22 -16 -19 -6 -19 -7
-5 -16 10 -5 17 -16 17 -24 0 -12 -4 -12 -20 -4 -11 6 -37 7 -61 4 -31 -5 -40
-4 -35 4 4 7 14 12 22 12 8 0 17 7 21 16 3 9 20 22 37 29 31 13 46 12 46 -5z
m280 1 c0 -10 -89 -25 -98 -16 -11 11 22 25 61 25 20 0 37 -4 37 -9z m40 -61
c0 -11 -48 -25 -56 -17 -4 3 -3 10 1 16 8 14 55 14 55 1z m-290 -26 c0 -8 -4
-12 -10 -9 -5 3 -10 10 -10 16 0 5 5 9 10 9 6 0 10 -7 10 -16z m130 6 c0 -5
-6 -10 -14 -10 -8 0 -18 5 -21 10 -3 6 3 10 14 10 12 0 21 -4 21 -10z m-260
-9 c0 -13 -16 -22 -57 -31 -45 -11 -39 10 8 27 43 15 49 15 49 4z m-104 -36
c-6 -22 -3 -25 20 -25 22 0 25 -2 14 -15 -7 -9 -29 -15 -51 -15 -30 0 -37 3
-33 15 4 8 12 15 20 15 8 0 14 5 14 10 0 6 -14 10 -32 10 -48 0 -14 24 41 29
9 1 11 -6 7 -24z m194 17 c0 -13 -12 -22 -22 -16 -10 6 -1 24 13 24 5 0 9 -4
9 -8z m-40 -22 c0 -5 -5 -10 -11 -10 -5 0 -7 5 -4 10 3 6 8 10 11 10 2 0 4 -4
4 -10z m-190 -80 c50 0 42 -18 -11 -25 -52 -7 -75 0 -48 15 11 6 15 19 13 37
l-4 28 11 -27 c8 -22 17 -28 39 -28z m376 2 c-9 -16 -74 -51 -80 -45 -3 4 -6
15 -6 25 0 14 5 18 18 14 12 -4 26 1 37 14 18 20 44 13 31 -8z m-279 -3 c-14
-8 -22 -8 -30 0 -8 8 -3 11 19 11 25 -1 27 -2 11 -11z m-17 -28 c0 -12 -30
-22 -43 -14 -7 4 -3 9 9 14 26 10 34 10 34 0z m320 -173 c19 -28 47 -66 61
-84 14 -18 58 -97 97 -176 111 -222 147 -395 123 -593 -15 -127 -69 -232 -170
-331 -78 -78 -198 -159 -259 -176 -20 -6 -46 -17 -57 -24 -11 -8 -31 -14 -45
-14 -14 0 -69 -9 -123 -20 -55 -11 -102 -18 -106 -15 -5 2 -45 -5 -90 -15 -45
-11 -88 -20 -94 -20 -17 0 -97 148 -97 180 0 25 4 28 43 33 55 8 105 20 202
47 44 12 118 30 165 40 55 11 119 34 178 64 l92 46 0 44 c0 47 -6 83 -45 256
-14 63 -39 177 -55 253 -15 76 -31 141 -34 144 -13 14 -36 -22 -36 -57 0 -27
-9 -50 -35 -84 -20 -25 -40 -46 -44 -46 -5 0 -38 -28 -74 -62 -36 -35 -104
-97 -153 -138 -139 -119 -160 -139 -144 -140 16 0 109 69 285 212 60 48 112
85 117 82 4 -3 8 -23 8 -45 0 -30 -6 -46 -26 -64 -55 -51 -239 -175 -353 -237
-17 -9 -31 -24 -31 -32 0 -13 7 -12 47 5 49 21 71 34 213 124 85 54 113 64
125 45 13 -21 -124 -136 -238 -200 -44 -25 -82 -50 -84 -56 -2 -7 17 -26 42
-43 43 -29 48 -30 74 -16 16 8 49 30 75 50 50 38 66 38 66 0 0 -34 -37 -58
-111 -73 -35 -7 -93 -20 -129 -28 -36 -8 -85 -19 -110 -24 -71 -14 -171 -58
-225 -101 -27 -21 -79 -61 -115 -89 -36 -27 -74 -57 -84 -67 -64 -56 -184
-135 -268 -177 -54 -27 -98 -54 -98 -61 0 -18 49 -48 90 -55 29 -5 35 -10 32
-29 -1 -13 -13 -36 -26 -51 -43 -51 -146 -346 -146 -417 0 -37 39 -50 102 -33
57 14 155 56 163 70 3 5 18 11 33 15 32 7 124 97 169 165 46 71 111 193 134
254 31 83 62 114 164 162 128 59 358 126 375 108 4 -5 -50 -81 -121 -169 -71
-88 -129 -164 -129 -170 0 -5 -29 -44 -64 -85 -36 -41 -88 -109 -117 -150 -48
-69 -96 -126 -186 -223 -30 -31 -41 -37 -63 -32 -22 5 -29 1 -38 -20 -12 -26
-36 -36 -26 -10 12 32 -23 12 -96 -51 -98 -87 -206 -174 -214 -174 -3 0 -6 7
-6 15 0 25 -17 18 -83 -33 -34 -27 -89 -66 -122 -87 -77 -49 -282 -152 -319
-161 l-29 -7 6 85 c12 158 47 357 83 476 84 278 258 632 408 831 39 51 91 121
117 156 25 34 77 96 116 136 39 41 88 94 110 119 21 25 153 160 293 300 141
140 312 320 381 400 127 148 139 157 294 238 28 15 79 57 114 94 36 37 70 68
75 68 6 0 27 -23 46 -52z m-1181 -24 c10 7 27 -32 17 -41 -3 -3 -17 -3 -31 1
-19 5 -25 13 -25 32 0 22 2 24 15 14 8 -6 18 -9 24 -6z m341 -124 c0 -5 -12
-10 -27 -10 -22 0 -25 2 -13 10 20 13 40 13 40 0z m1266 -12 c44 -34 53 -50
54 -88 0 -34 -2 -36 -47 -49 -27 -8 -71 -27 -99 -43 -28 -15 -54 -25 -57 -21
-24 23 12 139 58 188 38 41 52 43 91 13z m-1376 -48 c12 -8 12 -10 -5 -10 -11
0 -33 -7 -49 -15 -34 -18 -37 -17 -29 13 4 17 13 22 37 22 17 0 38 -5 46 -10z
m-839 -50 c13 -36 21 -38 34 -7 17 38 40 28 39 -18 0 -44 -19 -188 -30 -229
-3 -15 -2 -26 4 -26 11 0 23 46 48 188 11 58 23 101 29 99 10 -4 9 -142 0
-197 -5 -26 9 -59 20 -48 4 4 8 44 10 90 4 125 13 165 39 172 45 12 56 -60 24
-162 -5 -18 -8 -36 -5 -39 11 -10 25 8 31 41 16 82 37 135 57 141 40 13 66
-35 32 -60 -10 -7 -19 -32 -22 -60 -4 -34 -12 -51 -26 -59 -11 -6 -45 -27 -75
-47 -30 -20 -71 -44 -90 -54 -19 -10 -51 -31 -71 -46 -45 -36 -48 -36 -48 -1
1 15 -4 59 -10 97 -11 66 -11 71 9 87 25 20 25 28 1 28 -21 0 -31 26 -31 86 0
36 6 54 17 54 2 0 9 -13 14 -30z m3093 -101 c53 -24 68 -41 90 -97 47 -123 -4
-261 -107 -287 -42 -11 -94 11 -106 45 -11 32 0 114 26 183 21 60 5 63 -49 10
-53 -52 -73 -80 -138 -193 -24 -41 -51 -84 -60 -95 -16 -19 -90 -143 -90 -150
0 -2 -18 -32 -40 -66 -22 -35 -53 -89 -70 -119 -44 -82 -211 -365 -325 -551
-54 -90 -107 -180 -118 -199 -10 -19 -38 -66 -62 -105 -25 -38 -53 -86 -64
-106 -11 -19 -27 -41 -36 -49 -9 -7 -23 -27 -32 -44 -9 -17 -29 -47 -44 -66
-16 -19 -65 -84 -110 -144 -102 -138 -177 -233 -249 -316 -31 -36 -74 -91 -96
-123 -150 -221 -327 -436 -387 -471 -23 -13 -61 -29 -85 -36 -54 -14 -46 -35
10 -26 22 4 63 19 91 34 29 15 55 28 60 30 4 2 7 -3 7 -12 0 -9 -30 -46 -67
-84 -38 -38 -113 -117 -168 -177 -122 -131 -130 -140 -185 -189 l-43 -38 -141
6 c-78 3 -231 9 -341 12 -110 3 -247 9 -305 14 -58 5 -179 10 -270 10 -91 1
-246 6 -345 11 -99 5 -263 11 -365 15 -120 4 -189 10 -196 17 -14 15 -41 98
-50 152 l-6 41 84 -8 c79 -7 317 -3 403 7 214 26 544 31 1047 16 l287 -8 103
52 c121 61 367 201 387 220 7 7 12 18 10 23 -4 9 -89 -35 -219 -113 -30 -18
-109 -61 -174 -95 l-119 -62 -316 7 c-574 11 -714 15 -718 19 -5 5 65 17 124
20 162 11 496 129 597 211 28 22 62 62 76 88 14 25 36 58 49 71 19 20 21 28
12 39 -9 11 -6 20 10 42 18 21 19 29 9 35 -11 7 -11 14 -2 34 13 29 45 45 107
54 22 3 87 25 145 50 58 24 114 46 125 50 34 10 265 132 339 179 148 95 415
353 729 705 71 80 91 99 114 108 18 8 73 94 73 115 0 14 -28 2 -56 -26 l-32
-31 -189 11 c-186 10 -273 25 -280 48 -5 13 107 145 147 174 14 10 67 31 118
45 l94 27 71 -24 c74 -24 122 -53 131 -79 3 -9 19 -21 36 -27 36 -14 37 -13
90 97 41 88 51 103 159 261 60 88 209 286 318 424 26 33 72 94 103 136 125
171 213 259 279 279 53 16 149 11 195 -11z m-754 -14 c0 -8 -6 -15 -13 -15 -7
0 -30 -22 -51 -49 -24 -32 -43 -48 -52 -44 -8 3 -14 7 -14 10 0 2 21 29 48 59
46 52 82 70 82 39z m-110 -14 c0 -17 -46 -58 -55 -49 -4 4 44 68 51 68 2 0 4
-8 4 -19z m215 9 c3 -5 -8 -16 -24 -24 -16 -9 -69 -58 -118 -111 -77 -83 -123
-115 -123 -86 0 14 118 138 178 187 54 44 76 53 87 34z m-306 -19 c12 -8 12
-14 2 -39 -7 -17 -10 -39 -8 -49 3 -10 2 -36 -2 -58 l-8 -40 -17 38 c-9 20
-19 58 -23 83 -5 37 -2 47 13 59 23 17 25 17 43 6z m401 2 c-1 -14 -28 -44
-62 -69 -18 -14 -90 -81 -159 -149 -69 -69 -131 -125 -138 -125 -24 0 -9 39
36 91 64 74 212 217 248 240 30 19 75 26 75 12z m129 -34 c-9 -5 -36 -25 -59
-44 -23 -19 -45 -35 -50 -35 -4 0 -32 -24 -61 -54 -48 -49 -91 -76 -120 -76
-24 0 -3 31 62 90 40 36 90 82 111 102 28 26 50 38 76 40 43 4 65 -9 41 -23z
m38 -21 c-3 -8 -6 -5 -6 6 -1 11 2 17 5 13 3 -3 4 -12 1 -19z m-57 -36 c0 -11
-83 -102 -93 -102 -17 0 -4 20 40 63 50 50 53 52 53 39z m-454 -37 c-7 -18
-26 -20 -26 -2 0 18 24 41 28 27 2 -6 1 -17 -2 -25z m344 -74 c0 -4 -29 -36
-65 -70 -36 -33 -65 -66 -65 -73 0 -9 -3 -9 -12 0 -10 10 3 27 57 82 66 67 85
80 85 61z m-385 -51 c11 -17 -5 -32 -21 -19 -7 6 -11 15 -8 20 7 12 21 11 29
-1z m205 -58 c0 -4 -28 -34 -62 -66 -73 -67 -148 -105 -148 -75 0 14 81 88 96
89 6 0 31 13 55 30 46 31 59 36 59 22z m120 4 c0 -3 -4 -8 -10 -11 -5 -3 -10
-1 -10 4 0 6 5 11 10 11 6 0 10 -2 10 -4z m-880 -21 c0 -8 -4 -15 -9 -15 -13
0 -22 16 -14 24 11 11 23 6 23 -9z m-79 -72 c-9 -17 -10 -17 -17 0 -3 10 -1
30 7 45 l13 27 4 -27 c2 -15 -1 -35 -7 -45z m644 17 c3 -5 -3 -10 -15 -10 -12
0 -18 5 -15 10 3 6 10 10 15 10 5 0 12 -4 15 -10z m205 -12 c-1 -16 -49 -52
-57 -44 -7 7 36 56 49 56 4 0 8 -6 8 -12z m-739 -61 c6 -23 15 -66 19 -96 8
-60 -2 -76 -72 -112 -54 -28 -62 -4 -12 37 38 32 41 60 4 36 -30 -18 -32 -15
-25 31 5 28 17 51 37 69 29 28 30 48 2 48 -19 0 -18 17 3 29 24 13 31 7 44
-42z m555 -110 c-81 -86 -96 -98 -96 -76 0 18 163 180 171 172 5 -5 -29 -47
-75 -96z m-686 74 c0 -5 -18 -22 -41 -38 -23 -15 -55 -40 -73 -54 -37 -32
-156 -93 -164 -85 -7 8 -15 1 119 89 64 41 120 80 123 86 9 13 36 15 36 2z
m860 -3 c0 -7 -11 -21 -23 -33 -13 -11 -57 -57 -97 -102 -76 -86 -96 -100 -86
-58 4 15 2 25 -4 25 -6 0 -8 5 -5 11 4 6 12 8 19 6 6 -3 50 33 96 79 83 83
100 95 100 72z m-190 -4 c0 -3 -13 -19 -29 -35 -23 -23 -30 -25 -35 -14 -6 18
27 55 49 55 8 0 15 -3 15 -6z m-688 -121 c-8 -13 -18 -23 -23 -23 -15 0 -10
43 8 62 17 19 18 19 24 1 3 -10 -1 -28 -9 -40z m-1848 -62 c3 -5 -4 -22 -16
-37 -12 -16 -23 -31 -24 -33 -2 -2 -10 -1 -19 3 -14 5 -12 11 12 41 29 36 38
41 47 26z m2496 -1 c0 -14 -46 -60 -60 -60 -13 0 -5 16 23 48 22 24 37 29 37
12z m-109 -121 c-30 -45 -91 -98 -91 -79 0 11 111 132 117 126 2 -2 -9 -23
-26 -47z m-2431 -11 c0 -29 -13 -59 -24 -55 -17 6 -5 67 14 67 5 0 10 -6 10
-12z m2530 3 c0 -12 -42 -42 -49 -36 -5 6 30 44 42 44 4 1 7 -3 7 -8z m-67
-84 c-17 -29 -67 -87 -75 -87 -4 0 8 25 28 55 20 30 41 52 45 49 5 -3 6 -11 2
-17z m-1059 -62 c15 -38 34 -77 42 -86 19 -22 11 -39 -19 -39 -14 0 -42 -20
-72 -50 -27 -27 -56 -50 -65 -50 -33 0 -118 124 -107 154 3 7 36 31 74 53 37
23 79 53 92 67 14 14 26 25 27 23 1 -1 14 -33 28 -72z m976 -49 c0 -3 -4 -8
-10 -11 -5 -3 -10 -1 -10 4 0 6 5 11 10 11 6 0 10 -2 10 -4z m-1241 -108 c10
-24 34 -63 53 -88 26 -34 33 -51 27 -65 -4 -11 -19 -49 -33 -85 -14 -36 -41
-92 -60 -124 -19 -32 -37 -63 -39 -69 -2 -6 -8 -7 -15 -4 -7 5 0 30 24 79 39
82 41 93 17 102 -23 9 -45 -15 -59 -66 -21 -75 -39 -115 -84 -189 -48 -76
-144 -188 -155 -178 -3 4 22 49 55 100 77 119 118 202 126 258 6 38 5 43 -11
40 -13 -3 -29 -30 -50 -84 -17 -44 -47 -109 -66 -145 -55 -104 -189 -230 -189
-179 0 22 86 146 198 288 35 43 55 88 42 96 -5 3 -37 -29 -71 -72 -54 -69 -79
-94 -79 -81 0 3 7 29 16 59 18 58 31 81 100 161 26 30 44 62 44 76 0 26 4 27
-83 -4 -32 -11 -52 -13 -58 -7 -7 7 16 24 69 52 44 22 115 70 158 106 43 36
84 65 92 65 7 0 21 -19 31 -42z m669 -260 c-6 -18 -28 -21 -28 -4 0 9 7 16 16
16 9 0 14 -5 12 -12z m-2996 -59 c45 -23 356 -323 378 -365 12 -21 11 -32 -3
-72 -9 -26 -22 -83 -27 -127 -6 -43 -14 -83 -19 -88 -17 -17 -134 65 -236 166
-108 107 -194 157 -264 157 -56 -1 -52 3 -323 -258 -99 -94 -188 -177 -199
-182 -16 -9 -21 -7 -30 16 -5 15 -25 44 -43 64 -33 37 -96 183 -96 224 0 28
27 66 47 66 20 0 137 73 186 116 20 19 43 34 51 34 7 0 20 7 27 16 7 9 22 20
34 25 11 5 56 30 100 54 132 74 339 175 358 175 10 0 36 -10 59 -21z m2948 2
c0 -12 -20 -25 -27 -18 -7 7 6 27 18 27 5 0 9 -4 9 -9z m137 -7 c-3 -3 -12 -4
-19 -1 -8 3 -5 6 6 6 11 1 17 -2 13 -5z m133 -34 c0 -5 -9 -10 -21 -10 -11 0
-17 5 -14 10 3 6 13 10 21 10 8 0 14 -4 14 -10z m-321 -26 c-12 -15 -39 -19
-39 -6 0 15 22 30 36 25 11 -4 12 -9 3 -19z m131 7 c0 -5 -7 -11 -15 -15 -9
-3 -15 0 -15 9 0 8 7 15 15 15 8 0 15 -4 15 -9z m130 -39 c0 -21 -74 -67 -91
-56 -14 8 19 44 42 44 10 0 21 5 24 10 8 12 25 13 25 2z m60 -17 c-7 -8 -19
-15 -27 -15 -13 0 -13 3 -3 15 7 8 19 15 27 15 13 0 13 -3 3 -15z m-390 -19
c0 -21 -28 -39 -47 -31 -16 6 -15 8 7 25 30 23 40 25 40 6z m127 -3 c2 -6 -4
-13 -13 -17 -21 -8 -26 -3 -18 18 7 18 25 17 31 -1z m50 -9 c-3 -3 -12 -4 -19
-1 -8 3 -5 6 6 6 11 1 17 -2 13 -5z m-767 -21 c-1 -14 -30 -47 -36 -41 -8 8
14 48 26 48 6 0 10 -3 10 -7z m810 -32 c0 -9 -41 -23 -48 -16 -2 2 -1 8 3 14
8 13 45 15 45 2z m50 -47 c0 -8 -9 -14 -19 -14 -11 0 -28 -3 -38 -6 -11 -3 -7
4 11 20 31 25 46 26 46 0z m-96 1 c6 -18 -38 -39 -62 -30 -11 4 -9 10 9 25 29
24 45 25 53 5z m-182 -27 c-9 -9 -15 -9 -24 0 -9 9 -7 12 12 12 19 0 21 -3 12
-12z m-2299 -64 c5 -21 13 -47 18 -56 5 -10 9 -27 9 -38 0 -40 127 -260 149
-260 5 0 30 -18 57 -40 57 -47 175 -97 264 -110 36 -6 78 -15 93 -20 18 -6 36
-6 47 0 9 5 45 6 80 2 l63 -7 0 -130 c1 -172 -10 -263 -32 -269 -114 -36 -299
-80 -400 -96 -177 -28 -184 -29 -300 -35 -91 -4 -114 -2 -188 21 -126 38 -277
158 -362 287 -20 31 -66 92 -104 137 -61 75 -67 86 -61 116 10 54 -20 42 -126
-46 -90 -76 -279 -204 -375 -254 l-90 -48 -30 35 c-49 58 -97 144 -91 164 3
10 38 40 76 67 73 51 249 220 383 368 88 97 130 118 232 118 77 0 108 -17 224
-124 79 -73 127 -107 242 -171 136 -75 152 -88 286 -219 108 -105 144 -135
149 -123 3 9 -4 34 -16 55 -26 46 -179 198 -265 263 l-60 45 3 75 c5 127 74
346 105 336 7 -2 16 -21 20 -43z m2117 10 c0 -8 -10 -14 -24 -14 -34 0 -42 18
-14 29 27 10 38 6 38 -15z m286 15 c3 -6 0 -15 -7 -20 -18 -11 -59 -12 -59 -1
0 8 36 30 52 31 4 1 10 -4 14 -10z m-376 -94 c-13 -15 -40 -21 -40 -8 0 4 10
18 23 31 18 20 23 21 25 7 2 -9 -2 -22 -8 -30z m70 0 c-7 -8 -17 -12 -22 -9
-5 3 -1 15 9 26 20 22 32 6 13 -17z m238 23 c-6 -16 -47 -45 -77 -53 -34 -10
-23 14 19 43 36 24 64 29 58 10z m92 -2 c0 -18 -38 -46 -62 -46 -25 0 -22 11
10 37 31 26 52 29 52 9z m-190 -6 c0 -5 -5 -10 -11 -10 -5 0 -7 5 -4 10 3 6 8
10 11 10 2 0 4 -4 4 -10z m-65 -10 c-3 -5 -10 -10 -16 -10 -5 0 -9 5 -9 10 0
6 7 10 16 10 8 0 12 -4 9 -10z m-75 -80 c0 -10 -50 -23 -58 -16 -3 3 3 15 13
26 14 15 21 17 32 9 7 -6 13 -15 13 -19z m120 -4 c0 -16 -21 -26 -56 -26 -32
0 -30 16 4 28 39 15 52 14 52 -2z m120 10 c0 -9 -71 -48 -77 -42 -11 11 30 46
54 46 12 0 23 -2 23 -4z m-598 -83 c-42 -59 -128 -152 -227 -248 -111 -107
-165 -147 -165 -122 0 18 29 44 55 49 13 2 20 11 19 26 0 17 25 45 95 107 53
46 125 113 161 149 67 68 96 86 62 39z m398 2 c0 -10 -10 -15 -30 -15 -47 0
-35 27 13 29 9 1 17 -6 17 -14z m-531 -78 c-69 -63 -99 -84 -99 -68 0 17 154
153 159 139 2 -7 -25 -39 -60 -71z m-3009 45 c0 -4 29 -56 65 -116 36 -60 64
-110 62 -110 -1 -1 -20 -15 -42 -32 -22 -16 -57 -40 -78 -53 -24 -15 -44 -37
-53 -62 -9 -21 -23 -40 -32 -43 -47 -13 -142 -17 -161 -6 -51 27 -254 280
-238 297 10 10 85 -26 171 -83 43 -29 84 -50 91 -48 6 3 22 23 35 46 12 22 45
70 72 106 28 36 55 76 61 89 9 21 47 33 47 15z m2780 -180 c0 -23 -180 -164
-285 -224 -87 -50 -243 -123 -249 -117 -2 2 -7 19 -11 37 -6 30 -5 32 23 32
16 0 47 7 68 16 129 53 350 182 398 233 28 29 56 41 56 23z m-2071 -166 c8 -6
59 -65 113 -131 54 -66 117 -142 139 -168 63 -73 59 -81 -33 -85 -70 -3 -77
-5 -80 -25 -3 -25 15 -161 30 -222 6 -22 18 -85 27 -140 10 -55 21 -109 25
-120 5 -13 36 -32 87 -53 55 -22 83 -39 89 -55 14 -35 11 -234 -4 -248 -10
-11 -34 -10 -125 0 -61 7 -170 15 -242 17 -71 3 -197 9 -280 14 -82 5 -159 8
-170 7 -16 -2 -21 5 -23 30 -3 27 -9 34 -47 49 -27 10 -65 38 -98 73 -47 49
-56 66 -75 137 -34 124 -30 136 50 183 89 50 116 87 151 202 8 30 7 42 -9 75
-22 44 -58 66 -146 84 -32 7 -58 16 -58 20 0 10 69 40 94 40 46 0 116 29 162
66 65 54 263 191 299 208 17 8 41 26 54 39 23 25 40 26 70 3z m1962 -7 c-24
-20 -41 -24 -41 -11 0 9 53 40 60 35 3 -3 -6 -13 -19 -24z m-63 -53 c-58 -51
-348 -202 -362 -189 -9 9 25 43 43 43 15 0 247 122 293 155 37 25 57 18 26 -9z
m-2904 -30 c52 -52 95 -64 168 -47 79 18 85 16 107 -34 11 -25 37 -61 58 -80
20 -19 35 -36 33 -37 -3 -2 -38 -19 -79 -38 -40 -19 -87 -45 -104 -57 -17 -13
-38 -23 -47 -23 -11 0 -44 56 -103 174 -107 214 -108 216 -33 142z m2861 -46
c-3 -5 -10 -10 -16 -10 -5 0 -9 5 -9 10 0 6 7 10 16 10 8 0 12 -4 9 -10z m-35
-18 c0 -13 -39 -46 -46 -39 -9 9 16 47 31 47 8 0 15 -4 15 -8z m-90 -62 c0 -5
-5 -10 -11 -10 -5 0 -7 5 -4 10 3 6 8 10 11 10 2 0 4 -4 4 -10z m-36 -19 c5
-8 -67 -59 -117 -82 -20 -9 -31 -9 -39 -1 -7 7 11 22 68 51 93 47 82 43 88 32z
m1376 -90 c0 -6 -13 -25 -30 -43 -37 -40 -39 -29 -4 18 28 36 34 40 34 25z
m-4169 -87 c102 -106 249 -150 249 -74 0 31 18 49 75 78 32 16 50 18 90 12 72
-11 145 -43 167 -74 19 -26 19 -26 -6 -49 -14 -14 -26 -31 -26 -40 0 -16 -13
-21 -120 -47 -90 -22 -343 -22 -500 0 -184 26 -168 22 -290 78 -99 46 -98 45
-67 85 37 49 102 65 359 86 9 0 40 -24 69 -55z m1309 -24 c0 -5 -4 -10 -10
-10 -5 0 -10 5 -10 10 0 6 5 10 10 10 6 0 10 -4 10 -10z m140 6 c0 -3 -4 -8
-10 -11 -5 -3 -10 -1 -10 4 0 6 5 11 10 11 6 0 10 -2 10 -4z m1050 -5 c0 -4
-35 -14 -77 -20 -43 -7 -93 -16 -111 -21 -24 -6 -32 -5 -29 3 2 6 46 19 98 28
117 21 119 21 119 10z m-1115 -41 c4 -6 -10 -10 -35 -10 -25 0 -39 4 -35 10 3
6 19 10 35 10 16 0 32 -4 35 -10z m135 -5 c0 -11 -12 -15 -47 -15 -65 0 -41
20 35 29 6 0 12 -6 12 -14z m2505 -22 c-21 -15 -30 -10 -22 11 4 10 13 13 23
9 15 -6 15 -7 -1 -20z m-1540 8 c-6 -5 -26 -10 -45 -11 -47 -3 -52 -2 -45 10
3 6 27 10 53 10 28 0 42 -4 37 -9z m-1150 -75 c100 -136 123 -179 130 -253 4
-39 4 -76 1 -82 -7 -10 -96 40 -117 65 -6 7 -15 46 -20 86 -5 40 -15 100 -23
133 -8 33 -17 76 -20 95 -6 31 -5 33 6 16 7 -10 27 -37 43 -60z m1030 64 c4
-6 -11 -10 -39 -10 -24 0 -51 -3 -60 -6 -9 -3 -16 -1 -16 4 0 19 104 29 115
12z m-755 -23 c0 -7 -13 -12 -30 -12 -35 0 -39 12 -7 24 25 10 37 6 37 -12z
m-190 4 c0 -11 -30 -19 -47 -14 -24 8 -13 23 17 23 17 0 30 -4 30 -9z m1043
-12 c-7 -7 -76 -18 -155 -26 -79 -7 -170 -18 -203 -23 -33 -5 -87 -12 -120
-15 -55 -6 -58 -5 -41 9 10 8 44 17 75 20 31 4 83 11 116 16 33 6 87 11 120
12 33 0 69 4 80 9 11 4 47 8 80 8 44 1 56 -2 48 -10z m-2843 -24 c27 -14 97
-39 157 -56 227 -65 477 -70 707 -13 32 8 61 13 63 10 16 -15 -55 -63 -132
-88 -61 -21 -316 -29 -475 -16 -115 9 -273 42 -307 64 -12 8 -29 14 -36 14 -8
0 -26 9 -41 21 -19 15 -26 30 -26 55 0 43 20 45 90 9z m2235 5 c-3 -5 -31 -10
-61 -10 -30 0 -54 5 -54 10 0 6 27 10 61 10 37 0 58 -4 54 -10z m70 0 c-3 -5
-13 -10 -21 -10 -8 0 -14 5 -14 10 0 6 9 10 21 10 11 0 17 -4 14 -10z m-485
-16 c-53 -16 -60 -17 -60 -5 0 12 25 19 70 19 l35 1 -45 -15z m180 -9 c0 -13
20 -14 131 -10 96 3 129 1 126 -8 -6 -19 -76 -29 -171 -24 -70 4 -92 8 -102
22 -14 18 -10 35 7 35 5 0 9 -7 9 -15z m784 -7 c14 -23 4 -30 -54 -36 -40 -4
-50 -2 -50 11 0 20 26 41 35 27 3 -5 16 -10 28 -9 12 0 16 3 10 6 -7 2 -13 9
-13 15 0 15 32 5 44 -14z m-164 -7 c0 -11 -69 -20 -76 -10 -2 4 2 10 8 12 22
9 68 7 68 -2z m-689 -27 c104 -20 466 -21 480 0 10 13 96 20 103 7 4 -6 18
-11 32 -11 14 0 22 -4 19 -10 -3 -5 -24 -10 -46 -10 -24 0 -38 4 -34 10 3 6 2
10 -4 10 -5 0 -14 -6 -18 -13 -8 -14 -190 -43 -253 -40 -110 4 -259 23 -418
52 -2 1 0 6 3 11 9 14 40 13 136 -6z m707 -11 c-10 -2 -26 -2 -35 0 -10 3 -2
5 17 5 19 0 27 -2 18 -5z m-671 -37 c12 0 25 -4 29 -8 10 -11 -128 -10 -145 1
-28 18 -2 29 46 19 27 -6 58 -11 70 -12z m673 4 c0 -5 -13 -10 -29 -10 -16 0
-41 -4 -55 -10 -20 -7 -26 -6 -26 5 0 7 12 16 28 18 53 8 82 7 82 -3z m-200
-36 c0 -8 -4 -12 -10 -9 -5 3 -10 10 -10 16 0 5 5 9 10 9 6 0 10 -7 10 -16z
m-515 -14 c-3 -5 -15 -10 -26 -10 -10 0 -19 5 -19 10 0 6 12 10 26 10 14 0 23
-4 19 -10z m-1705 -104 c0 -17 -11 -69 -24 -113 -25 -88 -85 -184 -151 -241
-35 -32 -65 -41 -65 -22 0 6 4 10 9 10 4 0 34 34 66 75 60 79 144 258 145 308
0 16 4 26 10 22 6 -3 10 -21 10 -39z m248 33 c68 -1 72 -3 72 -25 0 -12 -5
-35 -11 -51 -29 -78 1 -236 58 -295 14 -15 24 -31 20 -34 -3 -3 -90 -8 -194
-9 -103 -2 -217 -9 -253 -14 -120 -19 -123 -16 -40 52 44 36 64 64 104 141 48
95 49 98 43 165 -3 38 -3 72 1 76 4 4 34 4 67 1 33 -4 93 -7 133 -7z m148 -56
c-7 -53 -26 -83 -26 -41 0 42 12 88 23 88 6 0 7 -18 3 -47z m105 -30 c11 -116
41 -199 99 -271 40 -50 47 -64 35 -69 -29 -10 -80 11 -83 35 -4 25 -12 28 -30
10 -38 -38 -82 101 -82 261 l0 112 28 -3 c26 -3 27 -6 33 -75z m-110 -100 c1
-21 3 -57 5 -81 2 -27 0 -41 -6 -37 -6 3 -10 21 -11 38 -1 18 -4 43 -8 57 -8
28 -3 60 10 60 5 0 9 -17 10 -37z m1376 -35 c12 -15 26 -119 27 -198 1 -54 1
-55 -30 -58 -26 -3 -33 1 -37 20 -10 39 -20 216 -14 232 8 19 41 21 54 4z
m294 -124 c4 -65 4 -122 0 -126 -3 -3 -44 -9 -91 -13 -106 -9 -109 -6 -121
107 -20 176 -29 160 99 155 l107 -4 6 -119z m91 10 c-2 -54 -6 -107 -8 -116
-11 -39 -21 -14 -27 65 -7 87 6 161 26 154 9 -3 11 -33 9 -103z m648 70 c129
-3 312 -9 405 -13 l170 -6 -1 -30 c-6 -119 -19 -217 -29 -225 -9 -7 -69 -7
-189 0 -96 5 -301 12 -453 15 -295 6 -434 18 -470 41 -21 14 -23 21 -22 117 0
56 3 106 6 110 3 5 81 7 177 3 94 -3 277 -9 406 -12z m666 -91 c-14 -159 -36
-227 -67 -207 -8 4 -10 26 -6 68 4 33 9 90 12 126 9 87 10 90 41 90 l27 0 -7
-77z m230 17 c-3 -16 -9 -43 -12 -60 -8 -45 -28 -38 -20 8 3 20 6 47 6 60 0
13 6 22 16 22 12 0 14 -7 10 -30z m-3260 -156 c14 -18 31 -18 41 0 7 11 68 15
340 18 391 4 451 -10 133 -30 -374 -24 -494 -25 -579 -7 -103 22 -111 25 -111
37 0 16 162 -1 176 -18z m827 11 c-4 -15 -56 -12 -61 3 -3 10 5 13 29 10 19
-2 33 -7 32 -13z m67 -5 c0 -5 -4 -10 -10 -10 -5 0 -10 5 -10 10 0 6 5 10 10
10 6 0 10 -4 10 -10z m270 -20 c-20 -13 -57 -13 -65 0 -4 6 11 10 37 10 31 0
39 -3 28 -10z m193 -17 c4 -2 7 -11 7 -19 0 -10 -13 -14 -50 -14 -51 0 -64 12
-38 38 11 11 58 8 81 -5z m122 -3 c-3 -5 -13 -10 -21 -10 -8 0 -14 5 -14 10 0
6 9 10 21 10 11 0 17 -4 14 -10z m204 6 c-11 -10 -159 -16 -159 -6 0 6 32 10
82 10 45 0 79 -2 77 -4z m529 -45 c6 -1 12 -5 12 -9 0 -4 -19 -7 -42 -6 -24 1
-53 2 -66 3 -13 1 -20 5 -17 11 4 6 27 8 53 6 26 -2 53 -5 60 -5z m337 -11 c4
-6 -46 -10 -144 -10 -89 0 -152 4 -156 10 -4 6 46 10 144 10 89 0 152 -4 156
-10z m45 0 c0 -5 -2 -10 -4 -10 -3 0 -8 5 -11 10 -3 6 -1 10 4 10 6 0 11 -4
11 -10z m165 0 c14 -6 0 -9 -45 -9 -45 0 -59 3 -45 9 11 5 31 9 45 9 14 0 34
-4 45 -9z"/>
<path d="M10663 5828 c-13 -6 -23 -15 -23 -20 0 -5 9 -4 19 2 32 17 46 12 28
-8 -13 -14 -34 -19 -93 -20 -76 -2 -178 -15 -221 -28 -32 -9 -30 19 2 34 16 8
23 17 19 27 -6 14 -10 13 -38 -3 -17 -10 -38 -30 -46 -46 -14 -26 -14 -28 9
-47 27 -23 64 -25 80 -5 7 8 38 17 69 20 150 15 218 29 239 49 17 15 20 24 12
38 -11 21 -24 23 -56 7z"/>
<path d="M10317 5624 c-3 -4 -2 -15 4 -26 15 -28 3 -54 -47 -94 -41 -34 -44
-39 -30 -53 14 -14 21 -13 71 12 57 28 78 19 25 -11 -16 -9 -30 -20 -30 -24 0
-13 38 -28 54 -22 8 3 28 -1 43 -9 15 -9 49 -26 76 -38 26 -12 47 -26 47 -30
0 -8 42 -20 81 -24 26 -2 26 -1 18 29 -11 39 -11 46 0 46 5 0 11 -13 15 -30 4
-25 10 -30 33 -30 16 0 39 9 52 19 21 16 22 20 10 40 -21 33 -68 58 -126 65
-64 8 -131 31 -156 54 -11 9 -28 34 -38 55 -11 21 -30 42 -43 47 -13 5 -27 14
-31 19 -7 12 -19 14 -28 5z m9 -132 c-14 -14 -16 -14 -16 -1 0 20 23 44 29 28
2 -6 -4 -18 -13 -27z m89 28 c3 -5 1 -10 -4 -10 -6 0 -11 5 -11 10 0 6 2 10 4
10 3 0 8 -4 11 -10z m-25 -80 c0 -5 -4 -10 -10 -10 -5 0 -10 5 -10 10 0 6 5
10 10 10 6 0 10 -4 10 -10z"/>
<path d="M11173 4992 c-17 -11 -35 -64 -25 -74 5 -5 16 9 25 33 18 46 18 52 0
41z"/>
<path d="M11035 4939 c-4 -6 -5 -13 -2 -16 7 -7 27 6 27 18 0 12 -17 12 -25
-2z"/>
<path d="M10933 4663 c-35 -5 -46 -23 -14 -23 34 0 81 12 81 21 0 9 -8 9 -67
2z"/>
<path d="M10840 3649 c-36 -33 -109 -96 -162 -141 -54 -45 -95 -85 -92 -90 3
-5 14 -3 24 4 222 166 320 249 320 274 0 26 -25 13 -90 -47z"/>
<path d="M9590 1605 c-30 -19 -106 -59 -167 -89 -106 -52 -136 -76 -97 -76 20
0 240 109 297 147 38 26 50 45 30 49 -4 1 -33 -13 -63 -31z"/>
<path d="M10431 1057 c-35 -23 -111 -67 -170 -97 -65 -34 -107 -62 -109 -73
-3 -14 6 -12 50 14 78 47 261 139 275 139 15 0 44 40 37 52 -8 13 -16 10 -83
-35z"/>
<path d="M10035 695 c-38 -19 -92 -42 -120 -51 -49 -16 -84 -39 -74 -49 6 -6
92 26 184 70 39 18 80 36 93 39 12 4 22 12 22 17 0 16 -34 8 -105 -26z"/>
<path d="M3766 5121 c-10 -11 -43 -25 -75 -31 -102 -21 -201 -111 -201 -184 0
-33 19 -42 109 -49 65 -5 79 -3 121 18 100 51 123 111 81 219 -17 46 -18 46
-35 27z m-184 -187 c-2 -10 -8 -23 -13 -28 -11 -12 -23 19 -15 40 8 22 32 11
28 -12z"/>
<path d="M3403 3883 c-7 -17 23 -78 96 -197 31 -52 36 -68 37 -125 1 -52 4
-67 17 -69 28 -6 43 99 23 156 -16 44 -146 251 -159 252 -4 0 -11 -8 -14 -17z"/>
<path d="M10299 3683 c-16 -4 -32 -50 -22 -65 10 -17 43 -7 59 17 26 40 10 61
-37 48z"/>
<path d="M9938 3590 c-31 -31 -35 -56 -15 -84 21 -28 72 -12 123 40 60 59 57
69 -18 70 -55 2 -64 -1 -90 -26z m52 -44 c-14 -14 -24 0 -16 21 6 15 8 15 16
3 6 -9 5 -19 0 -24z"/>
<path d="M9647 3499 c-43 -32 -50 -53 -32 -95 8 -20 18 -34 22 -32 14 7 87 40
123 55 l35 15 -37 19 c-21 10 -42 28 -48 39 -13 25 -28 25 -63 -1z"/>
<path d="M9110 3370 c0 -5 5 -10 10 -10 6 0 10 5 10 10 0 6 -4 10 -10 10 -5 0
-10 -4 -10 -10z"/>
<path d="M9349 3241 c-45 -45 -35 -111 22 -141 16 -9 27 -3 69 36 56 52 62 79
27 112 -34 32 -82 29 -118 -7z m56 -41 c3 -5 -1 -10 -10 -10 -9 0 -13 5 -10
10 3 6 8 10 10 10 2 0 7 -4 10 -10z"/>
<path d="M8870 2974 c0 -8 5 -12 10 -9 6 3 10 10 10 16 0 5 -4 9 -10 9 -5 0
-10 -7 -10 -16z"/>
<path d="M9234 2932 c-57 -46 -62 -112 -9 -112 25 0 74 41 76 64 3 24 -3 42
-19 54 -20 15 -23 15 -48 -6z"/>
<path d="M8987 2592 c-19 -21 -22 -50 -7 -72 9 -13 14 -11 35 13 30 34 30 39
7 61 -18 15 -20 15 -35 -2z"/>
<path d="M8851 2281 c-34 -32 -39 -49 -15 -58 21 -8 99 67 81 79 -21 13 -34 9
-66 -21z"/>
<path d="M5280 524 c-460 -26 -1118 -45 -1198 -34 -60 7 -72 -2 -52 -40 12
-22 13 -22 243 -17 231 5 474 16 827 39 102 6 237 14 300 17 93 5 115 9 115
21 0 12 -17 15 -90 16 -49 0 -115 -1 -145 -2z"/>
<path d="M11508 423 c-43 -17 -47 -32 -18 -58 15 -14 29 -16 62 -11 51 8 68
21 68 51 0 38 -47 45 -112 18z m66 -24 c-3 -5 -10 -7 -15 -3 -5 3 -7 10 -3 15
3 5 10 7 15 3 5 -3 7 -10 3 -15z"/>
<path d="M5535 403 c-82 -2 -160 -5 -172 -8 -24 -6 -32 -35 -10 -35 6 0 95 -1
197 -2 186 -2 237 6 227 35 -4 13 -26 14 -242 10z"/>
<path d="M12270 306 c-10 -9 -69 -19 -168 -29 -103 -10 -161 -20 -177 -31 -24
-16 -24 -18 -9 -41 22 -34 61 -36 254 -14 58 6 120 18 139 25 18 8 41 14 51
14 41 0 51 63 12 74 -54 14 -89 15 -102 2z"/>
</g>
</svg>
