<?xml version="1.0" standalone="no"?>
<!DOCTYPE svg PUBLIC "-//W3C//DTD SVG 20010904//EN"
 "http://www.w3.org/TR/2001/REC-SVG-20010904/DTD/svg10.dtd">
<svg version="1.0" xmlns="http://www.w3.org/2000/svg"
 width="1280.000000pt" height="648.000000pt" viewBox="0 0 1280.000000 648.000000"
 preserveAspectRatio="xMidYMid meet">
<metadata>
Created by potrace 1.15, written by Peter Selinger 2001-2017
</metadata>
<g transform="translate(0.000000,648.000000) scale(0.100000,-0.100000)"
fill="#000000" stroke="none">
<path d="M9010 6469 c-41 -4 -93 -12 -115 -19 -22 -6 -65 -17 -96 -23 -80 -18
-139 -57 -216 -143 -80 -88 -171 -256 -197 -361 -40 -158 -76 -255 -119 -316
-48 -67 -118 -215 -137 -285 -6 -24 -13 -108 -16 -185 -5 -148 9 -254 41 -317
48 -93 156 -78 276 39 34 34 68 61 75 61 41 0 115 -220 129 -380 5 -60 3 -69
-29 -125 l-33 -60 -44 2 c-261 13 -368 14 -418 3 -122 -26 -378 -104 -419
-127 -24 -13 -70 -33 -103 -44 -53 -17 -219 -94 -259 -119 -89 -57 -263 -130
-309 -130 -14 0 -39 -9 -55 -19 -22 -15 -33 -17 -46 -8 -27 16 -78 -9 -94 -47
-21 -49 -51 -70 -96 -68 -29 2 -42 -2 -53 -18 -8 -11 -36 -31 -63 -44 -28 -13
-69 -41 -94 -61 -38 -32 -48 -36 -79 -30 -20 4 -40 10 -46 15 -16 12 -112 30
-163 30 -56 0 -123 -29 -146 -61 -9 -13 -16 -38 -16 -57 0 -29 5 -35 43 -52
36 -16 52 -17 117 -10 93 12 160 29 181 47 24 20 88 17 95 -4 3 -10 10 -26 15
-36 12 -22 2 -60 -14 -54 -7 2 -11 18 -11 36 2 28 -1 31 -26 31 -54 0 -71 -27
-86 -135 -12 -87 -12 -101 1 -122 22 -32 40 -29 64 13 24 40 41 37 41 -7 0
-45 -156 -261 -223 -309 -12 -9 -49 -42 -82 -74 -68 -66 -164 -125 -286 -177
-103 -44 -148 -59 -180 -59 -14 0 -29 -4 -35 -9 -5 -5 -45 -16 -89 -26 -44 -9
-119 -25 -167 -35 -201 -43 -1004 -53 -1258 -16 -63 9 -146 21 -185 26 -191
24 -536 166 -744 307 -51 34 -98 63 -104 63 -18 0 -131 113 -164 164 -49 74
-43 125 24 212 26 35 143 118 203 145 14 6 36 17 49 23 32 15 61 63 61 102 0
16 4 34 10 40 9 9 303 -14 384 -30 90 -18 522 -37 806 -35 562 4 962 36 1405
114 138 24 245 30 255 14 7 -10 11 -10 23 0 18 14 76 6 120 -16 21 -10 32 -11
48 -2 18 9 25 7 49 -16 24 -23 31 -25 49 -16 12 7 21 15 21 20 0 15 -47 51
-68 51 -12 0 -26 9 -32 20 -6 11 -34 27 -65 36 -58 19 -70 39 -39 65 29 24 54
87 54 137 0 90 -61 135 -207 152 -79 10 -472 36 -678 45 -112 5 -553 5 -595 0
-19 -3 -132 -9 -250 -15 -209 -10 -266 -14 -515 -44 -131 -15 -154 -11 -133
27 7 13 9 59 6 127 -6 129 -1 140 62 133 26 -3 72 2 106 11 34 9 73 16 87 16
34 0 59 41 55 88 l-3 37 -63 -2 c-34 -1 -78 -7 -98 -13 -31 -11 -41 -9 -82 12
-52 26 -96 83 -142 183 -40 87 -47 146 -37 305 6 101 19 136 158 415 120 244
129 268 129 362 0 108 -15 155 -69 215 -48 53 -102 83 -206 113 -48 15 -59 22
-71 51 -11 26 -22 35 -51 42 -21 5 -72 17 -113 27 -47 11 -143 21 -260 26
-102 4 -228 13 -280 20 -146 20 -375 18 -840 -7 -651 -35 -652 -36 -848 -132
-81 -40 -121 -65 -142 -92 -44 -55 -30 -66 115 -96 66 -13 136 -24 155 -24 19
0 71 -11 115 -24 44 -14 105 -29 135 -35 135 -26 287 -80 319 -115 11 -12 28
-50 36 -84 16 -62 16 -65 -8 -125 -13 -34 -27 -75 -31 -92 -4 -16 -33 -88 -65
-160 -74 -167 -101 -233 -111 -270 -4 -16 -19 -50 -32 -75 -47 -87 -131 -293
-135 -334 -4 -30 -1 -45 11 -55 23 -19 20 -31 -7 -31 -22 0 -27 -11 -59 -117
-66 -218 -85 -303 -113 -524 -3 -25 -6 -133 -6 -240 -1 -330 56 -672 137 -829
63 -121 149 -212 263 -277 55 -32 207 -158 228 -189 8 -13 13 -40 11 -66 -3
-39 -7 -45 -48 -68 -42 -23 -55 -25 -213 -27 -124 -2 -176 -6 -198 -17 -21
-11 -38 -12 -62 -5 -43 12 -187 3 -243 -16 -25 -8 -64 -15 -87 -15 -23 0 -71
-7 -107 -16 -36 -8 -85 -19 -110 -24 -72 -16 -130 -41 -205 -89 -88 -55 -125
-89 -125 -115 0 -10 -7 -27 -16 -37 -11 -12 -14 -27 -10 -43 8 -33 54 -86 74
-86 8 0 38 -7 66 -15 28 -8 64 -17 79 -20 l29 -6 -7 -97 c-3 -53 -7 -144 -9
-202 -5 -251 -28 -367 -125 -640 -23 -63 -41 -125 -41 -136 0 -12 -10 -28 -23
-37 -13 -8 -37 -42 -55 -75 -17 -32 -39 -65 -47 -72 -8 -7 -15 -18 -15 -25 0
-7 -14 -25 -31 -39 -25 -21 -39 -26 -81 -24 -53 3 -78 -15 -78 -55 0 -36 52
-109 89 -125 l36 -15 -35 -11 c-81 -27 -426 -5 -537 34 -44 16 -73 -1 -73 -40
l0 -30 73 -2 c39 -1 83 -1 97 -1 14 0 54 -3 90 -7 36 -5 220 -11 410 -14 600
-10 813 -19 896 -36 31 -7 81 -9 112 -6 340 34 744 46 800 25 31 -12 72 -11
72 1 0 6 43 10 108 10 59 0 123 5 142 10 85 25 504 47 745 39 77 -2 341 -1
575 3 36 0 92 -7 125 -17 96 -28 118 -28 201 -5 71 19 112 22 394 27 402 8
360 8 680 0 151 -4 397 -7 545 -6 364 0 351 1 512 -17 105 -11 147 -13 162 -4
11 6 69 11 128 11 60 1 142 2 183 2 41 1 175 -2 297 -7 160 -5 232 -4 257 4
43 14 175 19 199 7 46 -21 151 -29 392 -27 386 3 507 7 535 18 16 6 63 7 125
2 92 -8 765 -25 915 -24 36 1 173 5 305 9 132 5 256 8 275 7 35 -2 242 -7 492
-12 132 -3 137 -4 135 -23 -4 -36 68 -56 208 -57 66 0 233 -7 370 -15 190 -11
280 -12 375 -4 147 13 439 6 595 -14 61 -8 115 -12 121 -10 7 2 15 0 19 -6 3
-6 24 -11 46 -11 29 0 47 7 64 25 32 31 32 59 -1 92 -24 24 -29 25 -102 19
-86 -7 -154 8 -213 46 -58 39 -100 48 -215 47 -106 -1 -194 14 -194 33 0 21
-113 60 -203 71 -106 12 -447 18 -462 7 -9 -6 -68 -11 -295 -24 -19 -1 -40 -5
-47 -9 -6 -4 -31 -3 -55 3 -24 5 -73 10 -110 10 l-67 0 -10 38 c-18 69 -33
156 -42 247 -4 50 -13 135 -19 190 -6 55 -8 115 -5 132 3 19 27 57 56 90 28
32 57 70 64 84 8 14 43 65 79 112 69 92 139 206 151 247 4 14 16 44 27 68 11
23 22 69 25 102 3 34 12 65 20 72 9 7 51 13 108 13 109 1 135 14 166 79 38 82
3 248 -90 426 -126 239 -171 337 -225 490 -35 96 -66 193 -70 214 -4 21 -13
48 -21 60 -7 12 -18 46 -25 76 -25 111 -104 388 -135 470 -8 19 -21 60 -31 90
-9 30 -25 72 -35 92 -11 21 -19 45 -19 54 0 9 -11 32 -26 51 -46 60 -54 93
-58 248 -4 169 -14 153 109 174 99 17 131 51 83 87 l-23 16 25 -7 c14 -4 61
-11 105 -15 131 -11 222 -52 350 -155 39 -31 93 -68 120 -81 28 -14 75 -42
105 -64 86 -62 109 -73 125 -60 11 10 11 18 -1 52 -23 67 -18 94 26 142 22 24
40 50 40 58 0 8 -14 25 -32 38 -28 21 -43 23 -167 27 -158 4 -230 16 -287 49
-22 13 -49 24 -60 24 -19 0 -165 99 -214 144 -14 13 -36 27 -50 31 -51 15
-106 49 -158 96 -30 27 -57 49 -62 49 -11 0 -120 163 -120 179 0 6 -6 24 -14
40 -8 15 -22 83 -30 152 -40 305 -62 413 -100 487 -9 17 -16 40 -16 50 0 11
-8 30 -18 43 -10 13 -26 51 -36 84 -65 214 -222 446 -346 510 -25 12 -54 32
-64 44 -23 25 -237 141 -316 170 -100 37 -203 50 -400 48 -102 0 -219 -4 -260
-8z m470 -88 c103 -9 155 -18 180 -31 19 -10 64 -32 100 -49 36 -16 76 -37 90
-45 14 -8 41 -22 60 -31 62 -27 167 -112 222 -179 77 -93 226 -410 272 -579
37 -135 55 -247 39 -247 -5 0 -24 16 -43 35 -19 19 -44 35 -56 35 -12 0 -27 7
-34 15 -7 9 -18 14 -25 12 -6 -3 -22 1 -36 9 -36 20 -68 16 -124 -15 -43 -24
-52 -34 -63 -74 -18 -63 -37 -63 -27 1 12 69 8 112 -10 132 -9 10 -22 40 -29
67 -12 46 -14 48 -45 45 -29 -3 -31 -1 -27 20 30 152 30 147 8 171 -11 12 -22
36 -24 52 -3 26 -8 30 -35 33 -30 3 -33 6 -33 37 0 34 -17 49 -39 35 -7 -4
-19 -36 -27 -71 -8 -35 -23 -102 -34 -149 -12 -47 -24 -101 -29 -120 -11 -52
-28 -78 -61 -95 -51 -26 -32 -75 46 -116 28 -15 31 -22 42 -100 13 -93 43
-206 92 -343 22 -64 32 -108 32 -153 0 -70 14 -93 53 -93 39 0 75 -57 73 -113
-2 -33 3 -52 16 -66 24 -27 28 -26 66 5 17 15 32 25 34 23 2 -2 15 -31 29 -64
21 -49 29 -60 49 -60 16 0 28 10 40 35 19 37 43 60 65 60 11 0 43 -59 43 -81
0 -5 -26 -39 -59 -76 -54 -63 -63 -70 -132 -90 -41 -13 -90 -25 -109 -29 -19
-3 -48 -12 -65 -19 -16 -7 -57 -16 -90 -20 -33 -4 -70 -13 -81 -20 -31 -20
-46 -94 -42 -210 3 -95 2 -100 -18 -103 -14 -2 -24 5 -33 24 -20 44 -71 103
-103 120 -36 19 -109 13 -220 -18 -109 -30 -134 -32 -188 -14 -27 9 -70 16
-96 16 -35 0 -54 6 -71 22 -13 12 -23 26 -23 31 0 5 -8 21 -18 35 -10 15 -29
53 -42 85 -13 34 -44 82 -72 112 -39 43 -60 57 -105 70 -63 18 -103 53 -103
88 0 38 20 86 40 97 53 29 238 -6 328 -62 39 -24 109 -114 147 -188 15 -30 49
-75 76 -101 40 -39 49 -53 49 -82 0 -19 6 -40 14 -47 12 -9 16 -6 21 22 10 52
-11 152 -48 231 -59 125 -75 179 -82 269 -13 166 -28 239 -54 257 -24 15 -24
15 -17 -19 3 -19 9 -66 13 -104 5 -56 3 -68 -8 -64 -17 5 -81 129 -114 218
-13 36 -35 87 -49 114 -14 27 -26 57 -26 65 0 9 -9 41 -21 71 -16 43 -20 72
-18 140 3 70 1 85 -12 88 -25 5 -37 -18 -46 -93 -7 -57 -6 -83 10 -140 16 -61
113 -283 228 -519 21 -44 36 -83 33 -87 -5 -9 -62 8 -82 24 -47 37 -162 74
-257 84 -62 6 -82 23 -88 76 -12 107 -41 219 -79 299 -47 101 -45 127 16 152
42 17 66 52 73 103 5 44 -15 80 -41 70 -11 -4 -16 -18 -16 -46 0 -37 -4 -42
-42 -65 -24 -14 -92 -75 -153 -136 -159 -162 -194 -173 -234 -79 -39 89 -47
379 -13 484 14 46 91 195 123 240 31 43 109 240 109 274 0 12 4 29 9 39 6 9
24 51 43 92 36 84 122 215 176 273 45 46 124 87 171 87 20 0 58 6 86 13 61 16
344 15 555 -2z m-6162 -128 c254 -10 312 -21 211 -42 -87 -18 -192 -30 -201
-25 -5 3 -48 -1 -96 -10 -220 -38 -778 -55 -1222 -36 -162 6 -315 15 -340 19
l-45 7 30 16 c49 25 452 67 675 69 52 1 122 4 155 8 80 8 530 5 833 -6z m84
-135 c-6 -6 -49 -13 -94 -15 -87 -3 -92 1 -17 16 69 14 125 13 111 -1z m383
-28 c33 -16 65 -30 71 -30 6 0 29 -13 51 -29 59 -42 77 -97 70 -204 -5 -75
-12 -96 -76 -237 -39 -85 -84 -182 -101 -215 -17 -33 -30 -68 -30 -77 0 -9
-11 -59 -25 -110 -17 -62 -25 -119 -25 -173 l0 -80 -23 28 c-25 32 -123 222
-190 367 -24 52 -51 101 -59 108 -9 7 -14 21 -11 32 3 10 -2 42 -10 72 -45
154 -43 268 6 368 25 50 126 164 172 192 45 27 109 23 180 -12z m-2060 -21
c50 -6 113 -20 140 -31 53 -22 78 -24 328 -27 90 0 147 -5 147 -11 0 -5 -22
-10 -50 -10 -64 0 -102 -17 -98 -44 3 -21 7 -21 233 -17 229 4 295 -1 295 -21
0 -7 -26 -9 -77 -5 -43 3 -149 3 -235 -1 -128 -6 -161 -10 -174 -24 -15 -14
-15 -20 -4 -33 11 -13 28 -15 102 -10 117 8 462 6 606 -3 37 -2 42 -17 10 -26
-19 -6 -279 -17 -650 -28 -41 -1 -48 -4 -48 -21 0 -20 5 -20 373 -14 204 4
388 11 407 17 36 10 170 2 170 -10 0 -8 -77 -21 -155 -25 -48 -3 -150 -11
-445 -36 -74 -6 -170 -13 -212 -16 -50 -3 -81 -10 -89 -19 -6 -8 -9 -17 -6
-20 3 -3 48 0 99 6 124 17 733 19 749 3 14 -14 -18 -21 -131 -28 -97 -5 -157
-12 -250 -26 -36 -5 -81 -11 -100 -13 -75 -7 -146 -18 -177 -28 -64 -19 -27
-44 40 -28 39 10 221 31 277 32 126 3 449 -28 466 -45 7 -6 -46 -15 -86 -15
-14 0 -54 -5 -90 -10 -36 -6 -110 -16 -165 -22 -157 -19 -262 -37 -370 -65
-55 -15 -118 -30 -140 -35 -56 -11 -214 -46 -247 -55 -42 -11 -45 16 -13 114
65 198 78 295 49 356 -21 44 -85 101 -133 116 -20 6 -53 21 -75 31 -43 22
-114 42 -221 63 -38 7 -110 25 -160 40 -49 15 -110 29 -135 31 -73 7 -110 16
-110 27 0 12 208 4 355 -14z m1661 -28 c-3 -5 -42 -12 -85 -16 -86 -8 -154 1
-130 16 19 12 222 12 215 0z m-418 -56 c3 -12 -116 -19 -177 -10 -24 4 -40 10
-34 13 18 11 208 8 211 -3z m375 -32 c11 -7 8 -28 -8 -59 -8 -16 -15 -49 -15
-73 l0 -44 -42 7 c-55 9 -84 25 -45 26 33 0 48 27 23 45 -9 7 -43 16 -76 19
-33 4 -60 12 -60 18 0 7 15 9 44 5 36 -5 49 -3 68 14 14 12 18 22 12 25 -6 3
-20 11 -30 20 -17 13 -12 14 51 8 39 -4 73 -8 78 -11z m-294 -49 c12 -11 -26
-24 -59 -19 -19 2 -83 7 -142 11 -64 4 -108 11 -108 17 0 11 298 2 309 -9z
m48 -10 c-3 -3 -12 -4 -19 -1 -8 3 -5 6 6 6 11 1 17 -2 13 -5z m239 -241 c5
-54 9 -102 9 -108 0 -14 -33 -7 -82 18 -52 25 -55 37 -9 37 19 0 39 7 47 16
11 14 10 19 -9 34 -12 10 -41 21 -65 25 -23 4 -46 10 -51 12 -14 9 17 23 49
23 17 0 44 9 60 19 17 11 33 20 37 20 3 1 10 -43 14 -96z m51 -195 c13 -12 23
-33 23 -48 0 -60 131 -345 224 -488 142 -219 216 -383 216 -480 0 -54 -20 -72
-78 -72 -26 0 -76 -7 -112 -16 -36 -8 -153 -31 -260 -50 -107 -19 -256 -48
-330 -65 -74 -17 -173 -39 -220 -49 -47 -10 -116 -30 -155 -45 -67 -26 -93
-33 -180 -53 -22 -6 -60 -17 -85 -26 -53 -20 -87 -21 -237 -11 -123 9 -143 3
-143 -41 0 -24 14 -32 25 -14 3 6 11 10 16 10 15 0 6 -42 -11 -51 -8 -4 -98
-32 -200 -62 l-185 -54 -3 49 c-4 60 32 312 50 358 14 35 41 46 266 106 52 14
101 29 110 33 44 23 141 61 156 61 9 0 25 -6 37 -12 18 -12 23 -9 48 21 l28
34 32 -24 33 -24 16 22 c10 12 25 34 35 48 20 27 37 33 37 11 0 -7 10 -26 22
-41 20 -26 22 -26 34 -10 7 10 11 30 8 44 -7 34 21 64 37 40 5 -8 9 -25 9 -39
0 -14 7 -36 15 -50 27 -47 20 -56 -57 -75 -166 -40 -488 -152 -540 -187 -14
-10 -32 -18 -39 -18 -8 0 -36 -11 -64 -24 -27 -13 -86 -39 -130 -58 -79 -34
-104 -61 -71 -74 24 -9 209 69 285 121 63 43 290 135 333 135 10 0 29 6 41 14
12 8 46 19 75 26 43 10 58 10 78 0 20 -11 27 -11 41 2 26 22 83 48 107 48 12
0 45 11 74 25 30 14 71 25 92 25 22 0 42 5 45 10 3 6 23 10 44 10 21 0 60 10
87 21 41 19 55 20 88 11 35 -9 41 -8 57 11 l18 22 24 -30 24 -29 16 31 c23 43
67 56 67 19 0 -8 6 -18 13 -24 17 -14 149 -25 166 -14 7 5 14 24 16 42 1 18 8
36 16 40 20 13 49 -8 49 -36 0 -17 8 -27 26 -34 37 -15 52 -12 76 12 20 20 20
22 3 35 -11 7 -27 13 -37 13 -10 0 -18 5 -18 10 0 6 13 10 29 10 37 0 42 14
23 63 -14 34 -19 38 -46 35 -28 -3 -31 0 -34 30 -2 21 1 32 10 33 7 1 18 2 23
4 6 1 16 3 23 3 15 2 16 28 2 37 -6 4 -77 2 -158 -4 -81 -6 -223 -15 -317 -21
-199 -12 -286 -25 -337 -51 -48 -25 -57 -24 -98 6 -58 43 -109 27 -146 -47
-13 -26 -28 -48 -33 -48 -14 0 -28 23 -35 56 -4 17 -17 41 -30 53 -22 20 -23
20 -39 4 -8 -10 -24 -40 -34 -67 -10 -27 -23 -51 -29 -53 -6 -2 -21 24 -34 57
-12 33 -26 63 -30 65 -28 17 -60 -37 -60 -101 0 -44 -28 -114 -46 -114 -7 0
-16 12 -19 28 -3 15 -14 54 -26 87 -30 89 -31 88 31 106 149 46 252 73 320 86
41 7 116 23 165 33 50 11 102 20 117 20 15 0 37 4 50 9 51 21 352 71 423 71
l40 0 -60 -55 c-40 -36 -54 -54 -42 -55 9 0 17 5 17 11 0 5 16 17 36 25 91 38
169 118 135 138 -4 3 -61 -4 -126 -15 -110 -19 -165 -21 -120 -4 86 32 162 78
183 109 13 19 21 39 18 45 -9 14 -167 25 -207 14 -18 -6 -40 -8 -46 -6 -17 6
-17 23 -1 23 7 0 59 23 116 51 92 45 102 53 96 72 -3 12 -7 22 -8 22 0 1 -17
6 -37 13 -19 7 -44 12 -55 12 -18 1 -18 1 -1 11 9 5 17 20 17 33 0 18 -8 25
-39 34 -21 7 -46 12 -56 12 -36 0 -5 12 77 29 46 10 85 19 87 20 3 0 15 -9 28
-21z m-264 -65 c37 -3 67 -9 67 -14 0 -5 -7 -9 -16 -9 -9 0 -53 -11 -98 -24
-111 -33 -204 -53 -311 -67 -96 -12 -204 -34 -214 -44 -13 -14 28 -25 74 -19
64 7 85 13 85 24 0 5 7 7 16 3 17 -6 222 14 269 27 46 13 305 23 305 12 0 -13
-126 -78 -197 -103 -31 -10 -60 -24 -63 -29 -3 -6 -44 -15 -91 -20 -46 -6
-115 -19 -154 -30 -38 -11 -117 -30 -174 -43 -60 -13 -106 -28 -109 -36 -5
-15 33 -13 198 13 58 9 139 21 180 25 41 5 154 21 250 35 203 30 220 31 220
12 0 -23 -49 -52 -140 -81 -47 -15 -130 -43 -185 -62 -55 -19 -136 -43 -180
-55 -44 -11 -129 -34 -190 -50 -60 -16 -141 -35 -180 -43 -38 -7 -106 -23
-150 -35 -84 -23 -199 -30 -290 -16 -47 8 -53 6 -104 -28 -29 -20 -57 -36 -62
-36 -5 0 2 24 14 53 13 28 27 65 31 81 4 16 23 61 41 100 19 39 53 118 75 176
23 58 47 111 54 118 11 12 207 73 291 92 22 5 76 18 120 29 192 49 369 62 618
44z m6787 -272 c0 -11 -4 -23 -10 -26 -6 -4 -10 5 -10 19 0 14 5 26 10 26 6 0
10 -9 10 -19z m-6321 -462 c8 -35 10 -64 5 -68 -5 -5 -42 -11 -81 -14 -64 -5
-74 -4 -83 13 -13 24 -13 71 0 104 9 24 14 26 78 26 l68 0 13 -61z m-364 41
c25 -9 25 -13 23 -77 -3 -59 -5 -68 -22 -68 -27 0 -65 117 -46 140 15 18 12
17 45 5z m141 -4 c3 -8 2 -39 -3 -68 -7 -47 -11 -53 -35 -56 -25 -3 -27 -1
-34 54 -6 49 -4 59 12 71 24 17 53 17 60 -1z m-296 -16 c0 -6 -8 -38 -17 -70
-19 -62 -36 -73 -41 -27 -2 14 -10 31 -18 37 -20 17 -18 58 4 63 33 9 72 7 72
-3z m-940 -5 c0 -2 -18 -44 -40 -92 -62 -134 -90 -154 -156 -114 -71 43 -43
183 41 204 27 6 155 8 155 2z m600 -30 c-7 -8 -16 -15 -21 -15 -5 0 -9 7 -9
15 0 9 9 15 21 15 18 0 19 -2 9 -15z m160 -83 c0 -83 -9 -102 -45 -102 -21 0
-22 3 -17 78 5 82 13 102 43 102 17 0 19 -8 19 -78z m-120 27 c7 -13 9 -40 5
-70 -5 -38 -11 -49 -25 -49 -24 0 -40 22 -50 67 -7 29 -5 42 7 55 22 24 50 23
63 -3z m360 -20 c0 -17 -6 -32 -15 -36 -24 -9 -28 2 -15 41 13 42 30 39 30 -5z
m-1274 -100 c43 -48 100 -60 176 -37 30 9 45 22 64 54 14 24 34 46 45 49 47
15 68 -52 26 -80 -62 -40 -307 -113 -384 -115 -30 0 -30 18 3 122 33 105 37
111 45 66 3 -21 14 -47 25 -59z m1633 67 c10 -12 6 -15 -18 -21 -40 -9 -60 3
-36 22 24 17 40 17 54 -1z m-519 -22 c0 -8 -4 -14 -10 -14 -5 0 -10 9 -10 21
0 11 5 17 10 14 6 -3 10 -13 10 -21z m7580 -159 c0 -8 -2 -15 -4 -15 -2 0 -12
-3 -21 -7 -15 -5 -16 -3 -6 15 13 25 31 29 31 7z m297 -1 c-3 -3 -12 -4 -19
-1 -8 3 -5 6 6 6 11 1 17 -2 13 -5z m-7009 -66 c-3 -35 -12 -80 -21 -101 l-16
-38 -37 41 c-62 69 -92 38 -34 -35 44 -56 38 -68 -45 -81 -146 -24 -290 -36
-393 -33 -88 3 -107 1 -107 -10 0 -8 16 -19 35 -24 l35 -10 -35 -14 c-50 -21
-244 -57 -315 -57 l-60 -1 -12 40 c-7 22 -17 58 -22 80 -6 23 -20 51 -31 63
l-20 22 27 6 c16 4 55 15 88 25 60 19 241 59 475 105 69 13 147 29 173 34 27
6 60 10 73 10 23 0 24 -3 18 -35 -5 -29 -3 -35 11 -35 10 0 33 14 52 30 18 17
39 30 46 30 7 0 28 11 47 25 19 14 43 25 53 25 17 0 19 -6 15 -62z m6652 17
c-7 -14 -18 -25 -24 -25 -5 0 -20 -10 -33 -22 -22 -21 -23 -21 -23 -2 0 26 18
48 55 67 37 19 42 15 25 -18z m-2012 7 c77 -12 54 -34 -73 -71 -91 -25 -252
-41 -385 -37 -209 6 -194 4 -180 21 7 8 20 15 29 15 9 0 66 13 126 29 61 17
142 34 180 39 86 11 245 13 303 4z m1917 -83 c-8 -12 -35 -12 -35 0 0 11 22
20 33 14 4 -2 5 -9 2 -14z m-1618 -53 c18 -9 42 -26 54 -39 22 -24 90 -139
130 -222 20 -42 74 -75 121 -75 21 0 57 -9 79 -21 30 -15 60 -20 115 -21 41 0
74 -4 74 -8 0 -10 -46 -44 -72 -53 -10 -4 -18 -14 -18 -24 0 -10 -16 -42 -35
-71 -20 -28 -38 -66 -42 -84 -3 -18 -17 -47 -30 -66 -12 -19 -23 -46 -23 -59
0 -28 -22 -74 -44 -92 -18 -15 -22 -66 -6 -76 15 -9 12 -46 -6 -66 -12 -13
-16 -36 -16 -81 1 -90 18 -206 33 -224 6 -8 10 -15 8 -17 -42 -24 -75 -37 -94
-37 -13 0 -27 -5 -30 -10 -4 -6 -14 -10 -24 -8 -9 2 -35 -5 -56 -14 -28 -12
-86 -20 -192 -26 -168 -10 -299 2 -408 38 -33 10 -78 22 -100 26 -61 10 -316
102 -347 124 -15 11 -32 20 -38 20 -16 0 -85 37 -98 52 -6 8 -13 32 -14 54 -3
37 -5 39 -38 42 -71 5 -78 10 -121 85 -59 103 -109 182 -144 227 -80 103 -111
139 -122 139 -22 1 -25 21 -29 197 l-4 175 132 62 c73 35 163 71 200 81 67 18
68 18 140 -4 40 -12 91 -32 113 -45 34 -19 143 -58 269 -96 79 -23 337 19 430
71 53 30 156 130 156 152 0 6 8 17 18 24 14 10 20 10 32 -1 8 -7 29 -20 47
-29z m1797 -58 c29 -46 38 -108 23 -178 -11 -54 -17 -67 -42 -81 -45 -26 -210
-50 -317 -47 -51 1 -99 -1 -105 -5 -17 -11 -16 -37 2 -80 8 -20 12 -43 8 -52
-7 -20 -121 -105 -140 -105 -17 0 -17 4 7 51 21 40 20 59 -4 59 -8 0 -44 -35
-82 -77 -37 -43 -108 -115 -158 -160 -50 -45 -102 -94 -116 -109 -95 -100
-195 -194 -206 -194 -21 0 -27 20 -11 38 8 9 18 28 22 42 4 14 31 66 60 115
28 50 61 111 73 138 12 26 31 67 43 92 22 49 99 111 124 101 8 -3 15 -23 17
-48 3 -39 5 -43 28 -40 40 4 61 33 67 95 3 31 9 57 13 57 9 0 230 146 255 169
11 10 34 26 50 35 17 9 57 37 90 62 103 77 132 95 192 120 72 29 89 30 107 2z
m-4954 -13 c218 -11 538 -55 551 -76 8 -14 -6 -49 -20 -49 -5 0 -60 -9 -122
-20 -63 -10 -154 -21 -204 -24 -49 -2 -110 -12 -134 -20 -25 -9 -76 -16 -120
-16 -42 0 -109 -5 -150 -10 -41 -6 -185 -12 -320 -15 -135 -3 -313 -10 -395
-16 -150 -10 -558 -12 -1033 -6 -179 2 -256 7 -266 16 -10 8 -16 8 -19 1 -2
-7 -23 -8 -61 -4 -45 5 -57 10 -57 24 0 37 74 65 220 85 170 23 309 43 339 50
21 4 30 2 34 -9 9 -22 35 -20 55 3 12 14 41 22 107 31 50 6 115 15 145 20 30
5 80 9 111 9 31 1 69 6 85 11 64 22 905 32 1254 15z m-2910 3 c0 -2 -11 -54
-24 -117 -29 -145 -39 -155 -142 -149 -39 3 -76 8 -81 11 -19 12 -2 47 26 53
33 9 51 23 51 42 0 11 -9 13 -39 9 -38 -5 -39 -4 -46 30 -3 19 -4 37 -1 40 2
3 22 7 43 10 34 4 41 2 57 -22 14 -21 20 -24 32 -14 8 6 14 24 14 38 0 22 8
31 43 48 37 19 67 28 67 21z m7378 -60 c19 -19 14 -44 -10 -57 -13 -6 -36 -20
-53 -30 -71 -46 -154 -89 -183 -96 l-32 -7 0 56 c0 47 3 56 18 56 10 0 27 -7
38 -15 22 -17 50 -19 59 -5 4 6 -5 26 -20 46 -30 39 -28 40 51 54 74 12 119
11 132 -2z m-7698 -130 c-1 -62 -13 -144 -22 -154 -3 -2 -72 -21 -154 -40 -82
-19 -162 -40 -179 -46 -16 -6 -66 -19 -110 -30 -44 -11 -114 -30 -155 -43 -41
-13 -78 -21 -82 -19 -4 3 -8 40 -8 82 0 97 12 116 88 138 31 9 64 21 72 25 21
12 200 80 228 86 41 10 52 -12 52 -103 0 -45 4 -85 9 -88 5 -3 18 2 30 12 17
14 22 34 28 117 l8 99 32 10 c25 7 38 5 60 -9 26 -18 27 -17 42 3 9 12 26 21
39 22 21 0 22 -4 22 -62z m374 26 c11 -28 6 -54 -8 -54 -21 0 -28 15 -20 45 7
28 19 33 28 9z m301 -65 c-5 -23 -1 -39 19 -69 30 -45 24 -54 -46 -64 -40 -6
-48 -4 -61 14 -13 18 -18 20 -37 10 -12 -6 -27 -9 -35 -7 -15 7 -45 91 -36
104 6 9 135 39 179 42 21 1 23 -2 17 -30z m-278 -49 c17 -34 6 -52 -31 -48
-27 3 -31 6 -28 28 8 52 37 63 59 20z m4387 0 c5 -5 4 -22 -2 -40 -14 -38 0
-207 24 -309 l17 -71 -24 -26 c-40 -43 -258 -134 -291 -122 -16 7 -110 250
-130 335 -21 94 10 85 82 -22 41 -61 56 -76 73 -73 30 4 32 31 8 88 -17 40
-51 181 -51 213 0 16 29 6 35 -12 6 -19 7 -19 40 1 19 11 35 26 35 34 0 17 14
18 58 2 31 -12 36 -11 46 5 8 13 18 16 41 11 17 -3 34 -10 39 -14z m-1919 -26
c-11 -8 -29 -13 -40 -10 -11 3 -29 6 -40 7 -32 2 23 17 65 18 33 0 34 0 15
-15z m125 9 c0 -5 -18 -9 -40 -10 -22 -2 -40 2 -40 7 0 6 18 10 40 10 22 0 40
-3 40 -7z m-310 -13 c11 -7 3 -10 -30 -10 -25 0 -69 -3 -97 -6 -35 -5 -53 -3
-53 4 0 10 37 16 130 20 19 1 42 -3 50 -8z m-2480 -20 c0 -19 47 -34 128 -40
46 -4 88 -12 94 -18 14 -14 28 -10 -222 -67 -113 -26 -234 -55 -270 -66 -36
-10 -85 -23 -110 -29 -25 -6 -63 -17 -85 -25 -22 -7 -114 -37 -205 -65 -91
-28 -178 -55 -194 -60 -16 -5 -33 -7 -37 -4 -14 8 -11 88 4 107 12 16 315 113
487 156 47 12 136 35 199 51 63 17 127 30 143 30 17 0 33 8 40 20 14 21 28 27
28 10z m2008 3 c-10 -2 -28 -2 -40 0 -13 2 -5 4 17 4 22 1 32 -1 23 -4z m195
0 c-29 -2 -77 -2 -105 0 -29 2 -6 3 52 3 58 0 81 -1 53 -3z m5924 -132 c34
-68 63 -130 63 -138 0 -7 4 -21 8 -31 42 -85 54 -119 71 -197 42 -197 94 -394
122 -465 16 -41 29 -82 29 -90 0 -25 36 -131 74 -217 20 -45 36 -85 36 -89 0
-4 13 -35 29 -68 96 -201 141 -300 141 -311 0 -7 6 -25 14 -41 7 -16 16 -54
19 -84 4 -47 2 -59 -17 -83 l-23 -29 -213 11 c-117 6 -217 8 -221 5 -24 -14
-457 -45 -644 -46 -200 0 -216 1 -330 30 -160 40 -295 81 -322 98 -12 8 -57
23 -100 35 -43 12 -85 27 -93 34 -8 7 -25 16 -38 20 -12 3 -44 23 -69 42 -26
20 -72 51 -103 69 -30 18 -68 46 -84 62 l-28 30 58 17 c33 9 86 25 119 36 33
11 79 19 102 19 62 0 93 15 93 44 0 38 -10 55 -39 71 -24 12 -32 11 -72 -6
-83 -38 -164 -66 -224 -78 -33 -7 -80 -18 -105 -24 -26 -6 -131 -10 -245 -10
-189 1 -207 3 -335 33 -74 18 -160 36 -190 40 -30 5 -106 20 -168 35 -62 14
-118 25 -125 24 -19 -4 -85 11 -167 36 -41 13 -117 36 -169 51 -51 15 -125 44
-164 65 -38 22 -87 44 -109 51 -64 19 -66 31 -18 94 54 69 296 294 317 294 9
0 43 -17 77 -39 34 -21 84 -50 112 -64 69 -35 436 -159 499 -168 28 -4 86 -15
130 -24 151 -30 419 3 642 79 281 97 632 256 711 322 20 17 70 43 110 58 61
22 90 26 176 26 57 0 127 5 157 10 29 6 101 13 159 16 58 3 123 9 145 14 80
17 212 23 220 10 11 -17 -43 -58 -85 -65 -19 -3 -48 -9 -65 -14 -67 -19 -279
-50 -495 -71 -47 -5 -86 -9 -87 -9 -2 -1 -3 -10 -3 -22 0 -19 4 -20 48 -15
162 19 390 28 397 16 3 -6 0 -10 -7 -10 -7 0 -26 -7 -43 -16 -16 -8 -38 -13
-49 -10 -23 6 -147 -11 -187 -26 -15 -5 -31 -20 -37 -33 -8 -16 -17 -23 -27
-19 -17 7 -75 -14 -75 -26 0 -24 30 -28 130 -20 58 5 189 11 293 13 169 4 187
3 187 -12 0 -10 -5 -22 -12 -29 -21 -21 1 -26 59 -12 102 22 108 25 111 53 4
36 -16 44 -143 52 -60 4 -118 11 -127 16 -12 7 -20 4 -26 -7 -7 -13 -18 -15
-51 -9 -22 4 -41 10 -41 14 0 4 30 17 68 28 119 38 141 50 149 84 7 25 17 34
58 48 69 25 132 66 140 93 6 17 1 27 -21 46 -27 23 -31 24 -143 18 -106 -6
-114 -5 -96 9 11 8 35 20 55 25 20 5 44 16 55 24 20 14 20 15 -4 40 -22 24
-31 26 -105 26 -71 0 -79 2 -65 15 8 8 39 23 69 33 46 16 55 23 55 43 0 35
-38 49 -132 49 -73 0 -83 2 -98 22 -13 19 -18 21 -33 11 -9 -7 -36 -21 -60
-32 -48 -23 -62 -46 -40 -68 19 -18 47 -19 111 -3 37 9 52 9 60 1 15 -15 2
-24 -75 -52 -57 -21 -78 -43 -58 -63 6 -6 57 -13 113 -16 60 -3 101 -9 100
-15 -1 -5 -10 -12 -19 -14 -10 -2 -36 -15 -58 -29 -23 -14 -59 -29 -81 -34
-109 -22 -159 -29 -260 -34 -60 -2 -117 -7 -126 -10 -9 -2 -30 7 -47 21 -16
14 -39 25 -50 25 -24 0 -69 -19 -92 -38 -65 -54 -89 -72 -97 -72 -5 0 -33 -18
-63 -41 -59 -45 -112 -73 -172 -95 -51 -18 -51 -1 3 60 31 35 50 48 80 52 37
6 58 31 45 52 -3 5 29 39 71 76 64 57 81 67 103 62 25 -5 28 -2 34 32 10 57
29 76 75 74 33 -2 55 8 165 83 70 47 138 93 151 103 31 22 56 72 49 99 -7 27
19 33 173 38 66 3 138 11 163 19 90 30 95 26 167 -113z m-5387 89 c11 -7 5
-10 -23 -10 -23 0 -36 4 -32 10 8 13 35 13 55 0z m-352 -18 c2 -7 -6 -12 -17
-12 -21 0 -27 11 -14 24 9 9 26 2 31 -12z m117 8 c3 -5 -3 -10 -14 -10 -12 0
-21 5 -21 10 0 6 6 10 14 10 8 0 18 -4 21 -10z m125 0 c0 -5 -14 -10 -31 -10
-17 0 -28 4 -24 10 3 6 17 10 31 10 13 0 24 -4 24 -10z m-2047 -15 c94 -39 87
-134 -14 -185 -52 -27 -188 -42 -210 -24 -23 20 -80 17 -194 -10 -55 -13 -131
-29 -170 -36 -80 -15 -250 -56 -280 -69 -11 -5 -98 -28 -193 -51 -166 -41
-175 -42 -241 -31 -115 19 -153 41 -93 56 15 3 90 30 167 59 291 109 734 232
975 271 52 8 109 19 125 24 45 14 89 13 128 -4z m1742 5 c4 -6 -27 -10 -87 -9
-64 1 -84 4 -63 9 45 11 143 11 150 0z m4602 -46 c-3 -3 -12 -4 -19 -1 -8 3
-5 6 6 6 11 1 17 -2 13 -5z m-2836 -61 c6 -16 21 -66 34 -113 12 -47 29 -99
35 -116 12 -28 9 -39 -38 -145 -29 -63 -52 -119 -52 -125 0 -23 36 -90 79
-148 55 -74 228 -248 306 -307 53 -41 289 -169 310 -169 5 0 38 -14 74 -31 36
-17 86 -37 111 -44 25 -7 104 -31 175 -53 72 -22 184 -52 250 -66 66 -15 158
-35 205 -47 199 -47 310 -60 539 -65 l223 -5 84 -76 c75 -68 99 -101 77 -104
-5 -1 -48 -2 -98 -4 -49 -1 -130 -7 -180 -13 -242 -30 -336 -43 -359 -52 -31
-12 -46 -39 -46 -85 0 -34 -2 -36 -32 -35 -50 1 -152 -16 -176 -29 -32 -17
-70 -14 -76 7 -2 9 -10 43 -16 75 -10 49 -20 67 -59 108 -39 40 -54 49 -82 49
-49 0 -57 -9 -75 -76 -11 -43 -14 -91 -11 -177 4 -114 -4 -150 -25 -113 -5 9
-18 16 -28 16 -10 0 -25 8 -32 18 -7 10 -33 29 -57 43 -25 13 -60 40 -78 60
-46 51 -144 78 -157 43 -3 -9 -6 -41 -6 -72 0 -50 10 -95 61 -272 5 -19 14
-65 18 -102 10 -79 45 -144 97 -185 56 -42 85 -37 210 39 182 110 378 198 440
198 8 0 28 7 44 15 43 22 60 11 60 -41 0 -29 6 -49 18 -60 25 -23 225 -147
305 -189 38 -20 94 -57 125 -82 31 -25 81 -57 112 -70 30 -14 108 -50 173 -81
l119 -56 -6 -36 c-4 -19 -15 -84 -25 -145 -23 -135 -65 -300 -85 -331 -22 -32
-79 -49 -117 -34 -23 10 -35 10 -59 0 -31 -13 -81 -15 -259 -11 -115 2 -174
-11 -169 -37 3 -14 22 -18 113 -23 134 -8 127 -7 120 -18 -3 -6 -83 -8 -203
-5 -108 3 -210 5 -227 3 -16 -1 -118 -2 -225 -3 l-195 -1 -8 50 c-4 28 -14 56
-22 64 -16 16 -98 19 -155 7 -33 -7 -39 -5 -93 47 -31 30 -57 58 -57 62 0 3
-11 21 -25 39 -62 81 -155 370 -177 546 -5 41 -16 126 -24 189 -9 63 -18 181
-20 263 l-5 149 36 41 c19 23 35 47 35 54 0 6 7 25 15 40 9 18 15 57 15 103
l0 73 -62 64 c-65 66 -87 78 -258 134 -241 80 -396 120 -461 120 -13 0 -34 7
-46 15 -12 8 -24 11 -27 6 -6 -10 -50 -7 -151 10 -33 5 -87 11 -120 14 -33 2
-103 10 -155 18 -52 9 -152 18 -222 22 -86 4 -144 13 -179 25 -60 22 -51 15
-84 65 -26 37 -26 40 -9 52 10 7 24 13 31 13 15 0 148 49 225 83 99 42 254
164 395 307 153 155 240 309 259 460 10 82 7 122 -17 181 -20 52 -17 58 36 77
46 16 55 14 66 -15z m-377 -12 c18 -7 16 -9 -14 -19 -38 -14 -95 -15 -125 -2
-16 6 -17 9 -5 13 44 17 113 20 144 8z m3056 -91 c0 -5 -5 -10 -11 -10 -5 0
-7 5 -4 10 3 6 8 10 11 10 2 0 4 -4 4 -10z m-6487 -36 c-6 -16 -43 -34 -69
-34 -27 0 -14 30 19 39 48 14 57 13 50 -5z m117 -28 c0 -8 -6 -16 -13 -19 -7
-2 -33 -36 -57 -74 l-45 -69 -100 -12 c-122 -15 -185 -15 -185 -2 0 6 6 10 13
10 6 0 39 14 72 32 138 72 291 147 303 147 6 1 12 -5 12 -13z m-295 -62 c-16
-13 -82 -51 -145 -83 l-115 -58 -155 9 c-85 5 -156 11 -159 14 -3 3 1 9 9 14
17 11 152 48 219 60 25 5 89 18 141 30 89 20 185 36 220 38 9 1 3 -9 -15 -24z
m6745 -14 c0 -5 -7 -10 -15 -10 -8 0 -15 5 -15 10 0 6 7 10 15 10 8 0 15 -4
15 -10z m-2036 -85 c25 -42 46 -79 46 -84 0 -4 14 -27 31 -50 17 -24 29 -52
27 -64 -2 -13 -36 -46 -88 -85 -47 -35 -88 -70 -92 -77 -5 -7 -38 -32 -75 -55
-37 -24 -71 -46 -77 -51 -6 -5 -25 -20 -42 -34 -18 -14 -39 -25 -48 -25 -21 0
-164 131 -198 182 -15 22 -48 64 -73 93 -25 29 -45 60 -45 68 0 19 92 60 210
92 122 34 197 65 290 120 41 24 78 44 81 45 3 0 27 -34 53 -75z m2001 -5 c-3
-5 -11 -10 -16 -10 -6 0 -7 5 -4 10 3 6 11 10 16 10 6 0 7 -4 4 -10z m-7608
-16 c37 -8 126 -24 198 -35 71 -11 157 -24 190 -29 141 -22 457 -18 633 6 37
6 42 4 42 -14 0 -27 -31 -31 -320 -38 -320 -8 -581 16 -779 70 -62 17 -66 20
-58 41 8 19 10 19 94 -1z m128 -140 c55 -9 123 -15 150 -15 28 1 100 -3 160
-10 61 -6 169 -10 240 -9 103 1 127 -1 118 -11 -19 -19 -442 -21 -568 -3 -284
43 -301 47 -289 66 7 11 26 9 189 -18z m785 -34 c-8 -5 -24 -10 -35 -10 -11 0
-27 5 -35 10 -11 7 -1 10 35 10 36 0 46 -3 35 -10z m234 -49 c10 -11 13 -22 8
-25 -26 -16 -294 -28 -632 -29 -327 0 -386 2 -460 18 -47 10 -89 22 -95 26
-12 12 49 11 116 -1 104 -19 343 -28 514 -19 164 8 456 37 464 45 12 12 70 2
85 -15z m60 -70 c12 -11 42 -32 67 -48 131 -81 241 -157 231 -161 -6 -2 -62 2
-124 9 -62 7 -225 14 -363 14 -414 3 -867 17 -915 29 -35 9 -46 16 -48 34 -4
27 -2 27 121 8 229 -36 716 -45 832 -16 22 5 94 10 160 10 122 0 165 10 135
30 -9 7 -61 8 -140 5 -213 -11 -260 -12 -435 -13 -93 -1 -215 3 -270 9 -55 6
-115 10 -132 10 -18 0 -33 3 -33 7 0 4 -39 7 -87 8 -104 1 -191 13 -200 26 -4
7 39 8 123 3 209 -11 671 -9 749 5 39 6 111 15 160 20 50 5 101 13 115 19 34
13 31 14 54 -8z m7239 -26 c1 -6 -10 -11 -25 -13 -31 -4 -39 14 -10 21 23 6
33 4 35 -8z m-2953 -135 c-42 -59 -140 -124 -140 -92 0 15 17 31 75 75 71 54
96 60 65 17z m-5280 -60 c0 -5 -11 -10 -24 -10 -14 0 -28 5 -31 10 -4 6 7 10
24 10 17 0 31 -4 31 -10z m513 -16 c86 -4 137 -10 137 -17 0 -7 -74 -8 -242
-4 -267 7 -351 15 -342 29 4 6 64 8 158 4 83 -4 213 -9 289 -12z m694 -3 c15
-4 57 -6 92 -5 62 3 101 -7 101 -25 0 -27 -379 -11 -515 22 l-60 14 75 5 c97
5 270 -1 307 -11z m-123 -59 c8 -13 -157 -35 -201 -27 -21 3 -59 2 -83 -4
-111 -24 -596 -19 -622 7 -5 5 105 8 254 8 215 0 397 6 625 22 12 1 24 -2 27
-6z m-934 -12 c0 -5 -4 -10 -10 -10 -5 0 -10 5 -10 10 0 6 5 10 10 10 6 0 10
-4 10 -10z m-56 -25 c27 -14 62 -25 78 -25 15 0 28 -4 28 -10 0 -10 -28 -15
-70 -11 -27 3 -90 46 -90 62 0 12 -2 13 54 -16z m1361 14 c9 -13 -23 -67 -46
-79 -16 -9 -26 -8 -44 4 -14 9 -37 16 -52 16 -35 0 -181 28 -196 37 -20 13 92
28 215 30 65 1 120 -3 123 -8z m-1205 -49 c0 -5 -7 -10 -15 -10 -8 0 -15 5
-15 10 0 6 7 10 15 10 8 0 15 -4 15 -10z m1406 -5 c35 -10 73 -34 125 -80 41
-36 95 -76 121 -89 51 -26 52 -36 4 -36 -52 0 -183 -37 -216 -60 -25 -18 -31
-28 -28 -54 3 -27 11 -35 58 -58 61 -30 233 -68 307 -68 46 0 245 -18 478 -42
65 -7 274 -12 510 -12 450 0 516 6 694 71 113 41 151 62 189 108 l27 34 150
-14 c83 -8 196 -21 253 -30 57 -8 165 -22 240 -30 169 -20 284 -44 427 -91
111 -37 313 -130 347 -161 61 -55 -42 -117 -252 -151 -91 -15 -402 -24 -825
-22 -413 1 -1070 1 -1195 -1 -285 -3 -998 11 -1024 21 -16 6 -65 9 -110 8
-162 -5 -419 10 -446 27 -18 11 14 85 65 149 49 62 53 69 43 96 -6 20 -36 48
-86 85 -43 29 -90 65 -106 78 l-29 23 48 80 c57 93 122 192 143 217 18 21 25
21 88 2z m-627 -1 c60 -12 30 -21 -96 -28 -71 -4 -175 -11 -233 -14 -125 -8
-310 -4 -310 7 0 7 55 11 410 31 194 10 196 10 229 4z m344 -61 c25 -6 21 -43
-9 -77 -26 -29 -26 -29 -58 -13 -17 9 -43 19 -59 23 -25 6 -67 46 -67 65 0 16
137 18 193 2z m-999 -19 c86 -7 71 -17 -52 -34 l-93 -13 -29 28 c-16 15 -27
31 -25 35 2 3 32 3 67 -2 35 -4 94 -11 132 -14z m1551 -14 c3 -5 -3 -10 -14
-10 -11 0 -23 5 -26 10 -3 6 3 10 14 10 11 0 23 -4 26 -10z m-1095 -9 c0 -13
-30 -22 -43 -14 -7 4 -2 10 13 14 14 4 26 7 28 8 1 1 2 -3 2 -8z m2790 -45
c16 -25 26 -47 22 -50 -11 -6 -182 -43 -237 -50 -34 -5 -393 -20 -450 -19
-116 1 -317 17 -346 27 -25 9 -41 10 -48 3 -6 -6 -51 -7 -119 -2 -84 5 -118
12 -147 29 -40 22 -64 50 -52 62 4 4 75 1 159 -7 198 -18 702 -19 818 -1 47 7
119 17 160 22 68 9 185 25 202 29 4 0 21 -19 38 -43z m-2630 -15 c25 -5 41 -9
35 -10 -42 -7 -453 -11 -474 -4 -17 5 37 10 154 13 99 3 194 6 210 7 17 1 50
-2 75 -6z m180 -13 c0 -13 -23 -5 -28 10 -2 7 2 10 12 6 9 -3 16 -11 16 -16z
m80 -18 c0 -13 -11 -13 -30 0 -12 8 -11 10 8 10 12 0 22 -4 22 -10z m-940 -10
c10 -5 42 -13 71 -18 67 -9 84 -37 18 -29 -88 11 -124 22 -127 40 -4 19 10 22
38 7z m1681 -44 c19 -8 47 -24 63 -37 40 -32 148 -58 237 -59 42 0 141 -7 220
-16 112 -13 201 -15 399 -11 405 9 607 30 833 84 54 14 70 14 80 4 10 -10 6
-17 -18 -36 -154 -124 -629 -164 -1365 -116 -91 6 -176 13 -189 16 -30 8 -328
36 -363 35 -15 0 -29 4 -33 10 -3 5 -25 14 -48 21 -41 11 -77 34 -77 50 0 13
39 31 105 50 75 22 113 23 156 5z m-1041 -8 c-30 -13 -339 -24 -327 -11 11 10
121 19 252 21 79 1 95 -1 75 -10z m77 6 c-3 -3 -12 -4 -19 -1 -8 3 -5 6 6 6
11 1 17 -2 13 -5z m-659 -30 c33 -9 27 -20 -13 -21 -24 -1 -35 3 -35 13 0 15
12 17 48 8z m852 -18 c-16 -14 -288 -50 -312 -41 -7 3 -36 0 -63 -6 -59 -12
-46 -12 -219 -5 -79 3 -153 11 -170 18 l-31 13 35 5 c19 3 60 2 90 -2 74 -10
362 0 485 16 55 8 122 14 150 15 42 1 47 -1 35 -13z m-842 -66 c49 -10 62 -16
60 -29 -4 -25 11 -41 37 -41 13 0 45 -12 73 -26 47 -24 58 -26 313 -34 145 -5
281 -10 302 -10 l37 0 0 49 c0 55 7 61 71 61 47 0 84 -17 123 -59 46 -48 33
-57 -96 -66 -250 -17 -444 -19 -563 -5 -44 5 -152 14 -240 20 -88 6 -186 16
-218 22 -43 8 -61 8 -70 -1 -15 -15 -43 -14 -75 3 -15 8 -35 17 -45 20 -15 5
-16 9 -7 26 6 11 20 20 31 20 12 0 34 9 49 20 72 51 93 54 218 30z m-468 -39
c0 -6 -4 -13 -10 -16 -14 -9 -12 -41 4 -54 21 -18 246 -77 401 -106 99 -19
212 -30 382 -40 133 -7 247 -16 253 -20 10 -6 54 -8 290 -14 55 -1 67 -4 78
-22 14 -21 13 -21 -50 -15 -152 14 -757 26 -764 14 -3 -4 -18 -5 -34 -2 -16 4
-52 1 -79 -6 -39 -9 -58 -9 -83 0 -45 16 -868 48 -1046 40 -23 -1 -49 3 -57
10 -8 6 -20 8 -26 4 -7 -4 -37 -6 -67 -5 -37 1 -60 -3 -71 -13 -15 -13 -20
-13 -49 6 -42 26 -38 46 14 72 23 12 47 26 55 32 38 30 329 85 604 115 78 9
204 23 243 28 6 0 12 -3 12 -8z m877 -11 c18 0 38 1 44 2 27 6 17 -21 -11 -31
-29 -10 -209 0 -248 14 -35 13 6 21 90 17 51 -1 108 -3 125 -2z m213 0 c0 -15
-48 -32 -97 -34 -35 -1 -43 2 -43 16 0 13 11 18 43 21 84 7 97 7 97 -3z m145
-19 c3 -5 1 -13 -5 -16 -15 -9 -71 5 -64 16 7 12 61 12 69 0z m-2085 -269 c98
-12 464 -36 530 -34 25 1 88 -3 140 -8 52 -6 129 -12 170 -15 41 -3 129 -10
195 -15 224 -17 459 -30 660 -34 251 -6 375 -13 540 -31 72 -8 202 -19 290
-25 88 -6 180 -15 205 -20 69 -13 234 -16 670 -13 124 1 261 0 305 -2 44 -2
427 -4 850 -3 1182 2 1449 0 1453 -12 4 -12 4 -12 -118 -39 -52 -11 -144 -25
-205 -30 -260 -23 -444 -33 -505 -27 -36 3 -73 5 -82 5 -10 0 -35 0 -55 -1
-58 -1 -454 1 -488 2 -67 3 -203 4 -450 1 -143 -2 -341 -1 -440 3 -99 3 -355
8 -570 11 -478 7 -899 20 -1065 33 -152 12 -448 25 -512 23 -25 -1 -76 5 -113
14 -36 8 -81 15 -99 15 -18 0 -36 3 -40 7 -3 4 -57 8 -119 10 -62 1 -222 8
-357 14 -135 7 -270 13 -300 14 -30 1 -62 5 -70 8 -8 3 -60 8 -115 12 -165 11
-191 14 -261 30 -36 8 -94 26 -128 40 -35 14 -69 25 -77 25 -27 0 -53 26 -46
44 8 19 33 19 207 -2z m8112 -88 c1 -68 -12 -92 -30 -57 -16 30 -21 104 -9
130 9 20 12 22 25 10 9 -10 14 -38 14 -83z m-104 74 c7 -7 12 -40 12 -78 0
-65 -10 -90 -37 -90 -21 0 -43 56 -43 108 0 50 12 72 40 72 9 0 21 -5 28 -12z
m200 -19 c21 -33 28 -129 11 -140 -22 -14 -26 -11 -38 22 -17 50 -13 139 8
139 3 0 12 -10 19 -21z m-342 1 c9 0 12 -4 9 -10 -8 -12 -52 -13 -59 -1 -8 12
6 22 22 16 7 -3 20 -5 28 -5z m451 -2 c10 -16 4 -130 -7 -142 -4 -4 -12 0 -18
10 -12 24 -25 122 -17 134 9 14 32 12 42 -2z m97 -24 c22 -8 20 -31 -3 -43
-23 -13 -47 10 -37 34 6 16 16 18 40 9z m-774 -33 c15 -29 12 -49 -9 -61 -30
-16 -51 -2 -51 34 0 18 3 36 7 39 13 14 43 7 53 -12z m-190 -20 c0 -65 -24
-82 -33 -24 -7 41 -3 53 19 53 9 0 14 -10 14 -29z m400 12 c0 -15 2 -16 10 -3
9 13 11 13 20 0 15 -23 8 -43 -20 -57 -23 -12 -26 -10 -39 16 -8 16 -11 36 -8
45 9 22 37 20 37 -1z m-94 -19 c7 -27 -7 -51 -24 -40 -6 3 -15 19 -20 36 -10
28 -9 30 13 30 18 0 26 -7 31 -26z m-249 -6 c-3 -8 -6 -5 -6 6 -1 11 2 17 5
13 3 -3 4 -12 1 -19z m936 -33 c1 -5 -10 -11 -25 -13 -16 -2 -28 1 -28 7 0 20
49 26 53 6z m-1168 -4 c-6 -5 -30 -17 -55 -26 -103 -38 -108 -39 -125 -25 -25
20 -18 27 43 43 65 17 151 22 137 8z m1503 -3 c73 -18 76 -48 5 -48 -32 0 -73
28 -73 50 0 13 11 13 68 -2z m-8508 -28 c134 -17 403 -40 472 -40 65 0 66 0
77 -31 28 -79 -10 -625 -63 -909 -7 -41 -12 -78 -10 -82 6 -10 -56 -217 -77
-260 -19 -38 -62 -68 -97 -68 -10 0 -41 11 -68 25 -27 14 -54 25 -61 25 -25 0
-36 -42 -29 -115 l6 -71 -402 0 c-292 1 -403 4 -403 12 0 6 36 38 80 71 93 70
109 87 156 168 112 192 154 300 164 420 4 50 11 95 15 100 8 10 22 85 40 215
5 36 9 167 9 292 0 151 4 235 12 249 10 19 17 21 58 15 25 -4 80 -11 121 -16z
m7088 -73 c2 -56 0 -67 -16 -76 -10 -5 -87 -33 -171 -61 -84 -29 -186 -67
-226 -85 -80 -37 -95 -34 -95 20 0 44 33 92 72 103 49 14 207 80 249 104 42
24 160 67 174 64 6 -2 11 -32 13 -69z m2002 68 c0 -15 -66 -36 -96 -30 -34 6
-44 19 -21 28 16 7 117 9 117 2z m360 -5 c0 -5 -12 -10 -26 -10 -14 0 -23 4
-19 10 3 6 15 10 26 10 10 0 19 -4 19 -10z m-746 -13 c16 -12 16 -14 -4 -35
-24 -25 -43 -25 -48 2 -8 41 18 58 52 33z m216 -12 c0 -3 -9 -5 -20 -5 -11 0
-20 7 -20 15 0 13 4 14 20 5 11 -6 20 -13 20 -15z m-1294 -2 c19 -25 17 -47
-5 -67 -14 -13 -20 -14 -28 -4 -21 27 -23 51 -7 69 21 23 23 23 40 2z m1714 2
c0 -19 -36 -38 -60 -30 -29 9 -24 21 13 33 45 14 47 14 47 -3z m-2159 -38 c-8
-8 -11 -3 -11 19 1 25 2 27 11 11 8 -14 8 -22 0 -30z m202 23 c3 -13 -2 -25
-16 -35 -26 -18 -37 -11 -37 26 0 24 4 29 24 29 15 0 26 -7 29 -20z m128 4
c22 -27 -17 -67 -47 -46 -6 4 -14 19 -18 35 -6 25 -4 27 23 27 16 0 34 -7 42
-16z m1293 1 c3 -8 1 -15 -4 -15 -6 0 -10 7 -10 15 0 8 2 15 4 15 2 0 6 -7 10
-15z m-1544 -20 c0 -25 -14 -34 -24 -16 -8 12 3 41 15 41 5 0 9 -11 9 -25z
m488 13 c25 -25 2 -78 -33 -78 -15 0 -40 64 -30 80 9 14 48 13 63 -2z m105
-10 c5 -15 -10 -48 -22 -48 -14 0 -20 37 -8 49 14 14 24 14 30 -1z m104 1 c13
-13 6 -39 -11 -39 -22 0 -37 17 -30 33 7 20 25 22 41 6z m223 -10 c16 -29 5
-49 -25 -49 -19 0 -25 5 -25 23 0 23 16 47 32 47 4 0 12 -9 18 -21z m-7270 -5
c52 -2 120 -9 150 -14 67 -12 375 -35 730 -55 146 -8 304 -17 352 -20 49 -2
90 -1 93 5 3 5 19 3 38 -4 29 -12 100 -21 322 -42 102 -10 192 -14 453 -19
134 -3 241 -9 252 -15 14 -8 26 -8 40 0 28 15 328 14 540 -1 97 -7 281 -11
415 -8 132 2 296 3 365 4 l124 0 2 -165 c2 -126 -3 -194 -18 -285 -18 -109
-19 -130 -8 -225 7 -58 17 -113 22 -122 4 -10 13 -41 18 -70 18 -93 76 -196
152 -266 37 -35 68 -68 68 -73 0 -12 -544 -14 -563 -2 -12 7 -1555 4 -1747 -5
-96 -4 -245 -6 -331 -4 -121 2 -165 0 -202 -13 -44 -15 -49 -15 -85 4 -36 19
-44 19 -182 5 -80 -7 -179 -14 -220 -14 -42 0 -112 -5 -156 -10 -45 -6 -141
-12 -213 -14 -108 -3 -135 -6 -151 -21 -17 -15 -22 -16 -36 -4 -14 11 -79 14
-346 13 -180 -1 -328 0 -328 2 0 3 18 40 40 84 61 120 169 453 181 552 15 134
17 172 5 190 -7 12 -6 32 3 69 11 41 12 108 6 307 l-7 255 64 -7 c34 -5 106
-10 158 -12z m7138 -6 c-2 -13 -7 -23 -13 -23 -5 0 -11 10 -13 23 -2 15 2 22
13 22 11 0 15 -7 13 -22z m232 12 c0 -5 -4 -10 -10 -10 -5 0 -10 5 -10 10 0 6
5 10 10 10 6 0 10 -4 10 -10z m187 -6 c-3 -3 -12 -4 -19 -1 -8 3 -5 6 6 6 11
1 17 -2 13 -5z m703 -3 c0 -5 -7 -12 -16 -15 -22 -9 -24 -8 -24 9 0 8 9 15 20
15 11 0 20 -4 20 -9z m-115 -31 c15 -7 10 -9 -23 -9 -26 -1 -41 3 -37 9 7 12
32 12 60 0z m-3171 -33 c3 -13 2 -37 -3 -53 -11 -40 -4 -422 9 -504 6 -36 11
-77 11 -92 0 -15 11 -51 24 -80 14 -29 25 -62 25 -73 0 -11 11 -39 25 -63 13
-24 29 -61 35 -82 11 -42 120 -208 201 -307 28 -36 47 -67 43 -74 -5 -8 -79
-9 -283 -3 -152 4 -343 7 -425 6 -84 -1 -154 2 -161 8 -6 5 -49 18 -96 29
-120 28 -151 44 -212 106 -58 60 -102 153 -131 278 -14 62 -47 350 -45 397 0
14 -1 109 -4 211 l-5 187 31 7 c18 3 133 10 257 15 274 10 416 30 546 74 122
42 150 44 158 13z m2588 -9 c-9 -9 -15 -9 -24 0 -9 9 -7 12 12 12 19 0 21 -3
12 -12z m788 4 c0 -11 -46 -32 -70 -32 -34 0 -23 28 13 33 17 2 38 5 45 5 6 1
12 -2 12 -6z m-2067 -17 c4 -8 2 -17 -4 -21 -15 -9 -39 3 -39 21 0 19 36 20
43 0z m197 5 c0 -5 -7 -10 -15 -10 -8 0 -15 5 -15 10 0 6 7 10 15 10 8 0 15
-4 15 -10z m145 -15 c0 -17 -49 -17 -70 0 -19 14 -17 15 25 13 25 -2 45 -7 45
-13z m99 0 c4 -10 -1 -15 -14 -15 -11 0 -20 7 -20 15 0 8 6 15 14 15 8 0 16
-7 20 -15z m112 -10 c-19 -14 -36 -12 -36 6 0 5 12 9 28 9 26 -1 26 -1 8 -15z
m109 6 c3 -5 1 -13 -5 -16 -15 -9 -43 3 -35 15 8 13 32 13 40 1z m102 -6 c3
-9 3 -19 -1 -22 -8 -9 -37 18 -30 28 8 14 24 11 31 -6z m97 -26 c-11 -18 -24
-8 -24 19 1 26 1 26 15 8 8 -10 12 -23 9 -27z m1001 14 c-22 -16 -45 -17 -45
-3 0 13 41 30 54 22 5 -3 1 -11 -9 -19z m-1795 -9 c0 -2 -7 -4 -15 -4 -8 0
-15 4 -15 10 0 5 7 7 15 4 8 -4 15 -8 15 -10z m924 1 c-7 -16 -14 -18 -38 -9
-22 9 -10 24 19 24 18 0 23 -4 19 -15z m741 -15 c3 -5 -1 -10 -9 -10 -8 0 -18
5 -21 10 -3 6 1 10 9 10 8 0 18 -4 21 -10z m-1535 -10 c0 -5 -4 -10 -10 -10
-5 0 -10 5 -10 10 0 6 5 10 10 10 6 0 10 -4 10 -10z m150 -9 c0 -16 -20 -23
-46 -17 -36 9 -29 26 11 26 19 0 35 -4 35 -9z m1770 -6 c-7 -8 -17 -15 -22
-15 -6 0 -5 7 2 15 7 8 17 15 22 15 6 0 5 -7 -2 -15z m-1670 -10 c0 -8 -7 -15
-15 -15 -16 0 -20 12 -8 23 11 12 23 8 23 -8z m98 -13 c2 -7 -2 -10 -12 -6 -9
3 -16 11 -16 16 0 13 23 5 28 -10z m1892 12 c0 -10 -82 -148 -101 -169 -9 -11
-21 -32 -24 -48 -8 -29 -52 -70 -66 -61 -5 3 -8 8 -6 12 2 4 11 24 21 45 10
21 27 42 38 46 21 8 58 88 58 126 0 11 12 28 28 37 27 17 52 23 52 12z m-1650
-23 c0 -5 -7 -14 -15 -21 -8 -7 -15 -10 -15 -7 0 3 -3 12 -6 21 -4 12 0 16 15
16 12 0 21 -4 21 -9z m1105 -1 c28 -11 26 -30 -3 -30 -25 0 -46 16 -38 29 9
13 8 13 41 1z m-1039 -27 c-10 -10 -19 5 -10 18 6 11 8 11 12 0 2 -7 1 -15 -2
-18z m-764 -13 c-4 -25 -7 -28 -23 -19 -23 12 -24 18 -1 35 25 20 29 17 24
-16z m136 -44 c3 -50 1 -56 -17 -56 -28 0 -51 37 -51 81 0 40 13 51 45 39 16
-6 21 -18 23 -64z m747 54 c0 -9 -7 -14 -20 -12 -26 5 -29 8 -20 22 10 16 40
8 40 -10z m773 2 c2 -7 -6 -12 -17 -12 -21 0 -27 11 -14 24 9 9 26 2 31 -12z
m-448 -13 c0 -11 -28 -24 -36 -17 -2 3 -2 12 2 21 6 16 34 12 34 -4z m-130 -5
c0 -8 -4 -12 -10 -9 -5 3 -10 10 -10 16 0 5 5 9 10 9 6 0 10 -7 10 -16z m360
-3 c0 -20 -32 -34 -56 -24 -23 8 -11 27 22 34 16 4 30 7 32 8 1 0 2 -7 2 -18z
m696 -6 c-9 -13 -16 -33 -16 -44 0 -27 -34 -46 -49 -27 -17 20 38 88 78 95 2
1 -4 -10 -13 -24z m-1892 5 c37 -14 58 -61 54 -123 -4 -62 -21 -70 -65 -33
-25 21 -31 36 -37 86 -9 81 -3 90 48 70z m1288 -12 c-7 -7 -12 -8 -12 -2 0 14
12 26 19 19 2 -3 -1 -11 -7 -17z m481 -20 c8 -30 -17 -56 -60 -64 -42 -8 -65
10 -57 43 6 23 42 41 85 42 19 1 28 -5 32 -21z m-1640 -90 c8 -103 -6 -122
-21 -29 -15 90 -15 111 2 111 9 0 15 -23 19 -82z m1463 56 c8 -30 -2 -42 -42
-50 -22 -4 -34 -1 -48 15 -18 20 -18 20 15 40 46 28 67 27 75 -5z m-1070 -9
c-3 -9 -11 -13 -16 -10 -8 5 -7 11 1 21 14 18 24 11 15 -11z m-282 6 c8 -13
-4 -41 -18 -41 -6 0 -17 4 -25 9 -12 8 -12 12 -2 25 15 18 37 21 45 7z m416
-14 c0 -30 -24 -62 -38 -53 -13 8 -16 58 -5 69 16 17 43 6 43 -16z m770 -2 c0
-15 -18 -30 -27 -22 -2 3 -2 15 2 26 7 23 25 19 25 -4z m-665 -12 c0 -26 -11
-42 -26 -43 -13 0 -17 55 -6 62 22 14 33 8 32 -19z m433 1 c2 -14 -6 -27 -22
-37 -24 -16 -26 -16 -41 6 -15 21 -14 23 6 40 28 22 53 18 57 -9z m120 3 c4
-21 -25 -34 -40 -19 -8 8 -8 16 2 27 16 19 34 15 38 -8z m-462 -32 c-9 -23
-26 -9 -26 23 0 24 1 25 16 10 10 -9 14 -24 10 -33z m114 9 c0 -7 -5 -16 -11
-20 -17 -10 -32 12 -24 36 5 17 10 19 21 9 8 -6 14 -17 14 -25z m80 11 c0 -8
-4 -15 -9 -15 -5 0 -11 7 -15 15 -3 9 0 15 9 15 8 0 15 -7 15 -15z m-705 -15
c0 -24 -32 -24 -38 0 -4 17 -1 21 16 18 12 -2 22 -10 22 -18z m1465 -37 c0 -8
-7 -27 -14 -42 -12 -23 -25 -30 -73 -39 -136 -27 -293 -39 -327 -26 -22 8 -21
61 2 72 9 5 85 17 167 26 83 10 166 21 185 25 42 9 60 4 60 -16z m-1275 -14
c10 -15 -1 -23 -20 -15 -9 3 -13 10 -10 16 8 13 22 13 30 -1z m-294 -9 c35
-19 18 -100 -21 -100 -24 0 -26 4 -34 63 -7 43 -6 47 14 47 12 0 30 -5 41 -10z
m953 -6 c18 -7 21 -41 6 -64 -7 -11 -15 -12 -37 -4 -34 12 -46 59 -16 67 28 7
30 7 47 1z m134 -37 c3 -35 2 -37 -27 -37 -25 0 -31 4 -31 21 0 64 53 79 58
16z m-673 24 c3 -5 -3 -12 -13 -16 -22 -6 -52 3 -52 16 0 12 57 12 65 0z m395
-22 c0 -5 -7 -9 -15 -9 -15 0 -20 12 -9 23 8 8 24 -1 24 -14z m-280 2 c0 -12
-29 -23 -41 -15 -18 10 -9 24 16 24 14 0 25 -4 25 -9z m-422 -55 c4 -63 -3
-83 -23 -66 -10 8 -15 31 -15 67 0 46 3 54 18 51 13 -2 18 -15 20 -52z m612
47 c-8 -3 -18 -10 -21 -15 -3 -5 -9 -3 -12 6 -5 12 0 16 21 15 16 0 21 -3 12
-6z m-533 -63 c-1 -41 -13 -53 -24 -24 -5 14 11 64 21 64 3 0 4 -18 3 -40z
m103 13 c-1 -21 -13 -53 -21 -53 -10 0 -12 43 -2 53 9 9 23 9 23 0z m94 -9
c20 -8 21 -47 2 -63 -21 -18 -46 -2 -46 28 0 39 11 48 44 35z m1191 -14 c11
-17 -38 -69 -58 -63 -10 2 -97 5 -193 6 -126 1 -174 4 -174 13 0 17 32 23 160
30 63 3 123 10 134 14 30 12 124 12 131 0z m-1049 -21 c14 -23 -14 -31 -35
-10 l-21 21 24 0 c14 0 28 -5 32 -11z m99 2 c3 -5 1 -12 -4 -15 -5 -3 -11 1
-15 9 -6 16 9 21 19 6z m100 -11 c3 -5 -1 -10 -9 -10 -9 0 -16 5 -16 10 0 6 4
10 9 10 6 0 13 -4 16 -10z m245 -13 c0 -21 -4 -24 -37 -23 -31 2 -39 6 -41 24
-3 20 1 22 37 22 36 0 41 -3 41 -23z m-8118 -54 c-5 -65 -22 -78 -22 -18 0 32
17 92 24 84 2 -2 1 -32 -2 -66z m8218 57 c0 -5 -4 -10 -10 -10 -5 0 -10 5 -10
10 0 6 5 10 10 10 6 0 10 -4 10 -10z m-595 -10 c3 -5 1 -10 -4 -10 -6 0 -11 5
-11 10 0 6 2 10 4 10 3 0 8 -4 11 -10z m903 -57 c58 -4 82 -10 82 -19 0 -24
-140 -50 -193 -36 -32 9 -36 8 -41 -13 -6 -24 -29 -28 -203 -39 -28 -2 -68 -7
-88 -10 -46 -9 -65 6 -65 50 0 30 3 34 35 40 44 8 65 0 65 -25 0 -22 34 -46
50 -36 6 3 10 15 10 25 0 57 49 71 70 20 7 -16 16 -30 20 -30 12 0 28 23 35
53 7 26 9 27 74 27 36 0 103 -3 149 -7z m-863 -34 c-8 -12 -52 -12 -60 0 -3 6
2 14 12 20 20 11 57 -4 48 -20z m305 -17 c0 -37 -10 -72 -21 -72 -10 0 -24 26
-33 63 -5 23 -3 29 16 36 30 11 38 6 38 -27z m-182 12 c30 -21 28 -34 -7 -34
-31 0 -57 22 -46 40 9 14 27 13 53 -6z m80 -20 c-4 -23 -26 -30 -34 -10 -8 20
15 51 29 37 5 -5 7 -17 5 -27z m-7904 -167 c-10 -29 -17 -63 -16 -77 3 -33
-30 -141 -43 -140 -15 1 -5 84 21 178 14 48 27 101 30 117 12 73 19 81 22 27
2 -33 -4 -74 -14 -105z m8753 -2 c26 -118 44 -267 41 -338 l-3 -72 -42 -3
c-49 -4 -51 1 -58 103 -3 36 -6 69 -9 73 -2 4 -6 64 -7 133 -4 114 -2 129 15
148 31 35 49 22 63 -44z m-9646 3 c-5 -13 -17 -48 -26 -78 -18 -60 -87 -180
-92 -163 -2 6 16 52 41 102 26 50 46 103 46 119 0 32 7 42 26 42 10 0 11 -6 5
-22z m9459 -8 c24 -13 28 -40 35 -222 5 -124 3 -152 -10 -179 -13 -25 -21 -30
-38 -24 -12 3 -184 7 -382 8 l-360 2 -9 27 c-12 34 16 341 32 361 10 11 22 12
74 1 74 -16 225 -17 323 -3 39 5 118 13 177 17 59 5 111 11 115 15 9 10 21 9
43 -3z m-837 -19 c7 -7 -7 -253 -19 -338 -6 -40 -6 -40 -196 -47 -174 -6 -177
-5 -147 80 11 30 19 61 19 70 0 8 14 49 30 91 17 41 30 86 30 99 0 14 5 35 11
46 11 20 16 21 138 14 69 -4 130 -11 134 -15z m-8743 -239 c0 -12 -70 -106
-87 -115 -11 -7 -13 -6 -6 4 4 8 24 38 42 67 31 47 51 65 51 44z m840 -213 c0
-6 -16 -31 -36 -55 -43 -52 -77 -57 -123 -18 -37 31 -42 59 -10 49 24 -8 137
13 145 26 7 13 24 11 24 -2z m9325 1 c-3 -5 -12 -10 -20 -10 -8 0 -17 5 -20
10 -4 6 5 10 20 10 15 0 24 -4 20 -10z m715 0 c-20 -13 -60 -13 -60 0 0 6 17
10 38 10 27 0 33 -3 22 -10z m-2860 -8 l25 -5 -25 -7 c-36 -11 -110 -12 -110
-1 0 16 61 24 110 13z m2268 1 c-10 -2 -26 -2 -35 0 -10 3 -2 5 17 5 19 0 27
-2 18 -5z m-1658 -12 c0 -16 -85 -24 -148 -15 -31 5 -91 7 -132 5 -41 -1 -86
2 -100 8 -18 7 30 10 178 10 119 1 202 -3 202 -8z m150 -1 c12 -8 11 -10 -7
-10 -12 0 -25 5 -28 10 -8 13 15 13 35 0z m310 0 c17 -6 1 -8 -53 -9 -50 -1
-76 3 -72 9 7 12 89 12 125 0z m-170 -10 c-19 -13 -30 -13 -30 0 0 6 10 10 23
10 18 0 19 -2 7 -10z m1977 -83 c18 -9 53 -13 98 -11 50 1 64 -1 51 -8 -41
-23 -954 -3 -931 20 8 8 431 18 622 15 89 -2 142 -7 160 -16z"/>
<path d="M9576 5928 c-3 -13 -6 -48 -6 -79 0 -31 -6 -69 -14 -85 -22 -44 -25
-108 -5 -112 28 -5 72 128 73 218 1 69 -1 75 -20 78 -15 2 -23 -4 -28 -20z"/>
<path d="M9682 5911 c-13 -7 -21 -44 -52 -221 -6 -30 -10 -85 -10 -122 0 -60
2 -68 19 -68 14 0 23 13 35 45 20 60 61 337 53 359 -7 18 -24 20 -45 7z"/>
<path d="M8731 5833 c-7 -15 -6 -25 4 -40 15 -21 92 -53 127 -53 10 0 60 -22
112 -49 114 -59 147 -68 167 -45 12 15 9 20 -21 46 -19 16 -71 53 -115 82 -65
43 -91 55 -135 59 -30 4 -71 9 -92 13 -30 5 -38 3 -47 -13z"/>
<path d="M8790 5685 c-9 -22 -2 -46 40 -148 67 -162 71 -168 120 -196 l42 -24
26 20 c39 29 36 64 -7 84 -34 16 -61 44 -61 62 0 6 8 3 18 -5 9 -8 32 -21 50
-28 40 -16 57 -41 66 -95 10 -61 35 -111 62 -123 32 -15 36 -3 18 58 -8 28
-13 54 -11 56 2 3 16 -14 31 -36 45 -68 99 -45 56 25 -12 20 -19 43 -15 53 10
35 -6 51 -76 72 -38 12 -71 26 -74 31 -4 5 -30 20 -59 34 -53 25 -147 111
-169 155 -18 35 -45 37 -57 5z"/>
<path d="M9333 4393 c7 -74 83 -354 98 -364 8 -5 17 -9 22 -9 15 0 6 103 -17
177 -13 43 -26 89 -29 103 -5 27 -24 82 -40 118 -6 12 -17 22 -25 22 -11 0
-13 -11 -9 -47z"/>
<path d="M9920 3380 c-17 -32 -9 -75 15 -75 24 0 46 42 38 73 -7 28 -39 29
-53 2z"/>
<path d="M10568 2825 c-2 -2 -87 -7 -188 -10 -645 -19 -742 -23 -752 -33 -6
-6 -8 -18 -4 -27 5 -14 14 -16 43 -10 20 3 104 6 187 6 145 -1 628 24 673 34
28 6 37 -9 21 -34 -9 -15 -10 -23 -1 -32 14 -14 193 29 200 49 11 27 -24 45
-92 49 -36 1 -70 5 -74 7 -5 3 -10 4 -13 1z"/>
<path d="M10119 2646 c-6 -7 -139 -15 -289 -18 -126 -3 -135 -4 -135 -22 0
-19 12 -20 440 -22 242 -1 442 -2 444 -3 2 0 -2 -7 -8 -15 -8 -10 -8 -16 3
-25 10 -9 30 -4 86 18 83 34 95 43 87 65 -6 15 -69 23 -142 18 -78 -4 -446 -3
-462 2 -10 3 -21 4 -24 2z"/>
<path d="M10165 2469 c-115 -5 -291 -10 -390 -12 -211 -5 -266 -19 -220 -57
13 -11 21 -10 43 1 21 10 118 14 425 17 351 3 401 2 416 -12 31 -28 76 -30
151 -6 75 24 104 45 80 60 -19 12 -107 23 -119 16 -16 -10 -151 -14 -157 -5
-3 5 -8 8 -12 7 -4 0 -101 -5 -217 -9z"/>
<path d="M9703 2269 c-18 -5 -33 -16 -33 -23 0 -23 55 -29 210 -26 294 7 590
1 590 -12 0 -12 -74 -42 -145 -58 -61 -14 -85 -25 -85 -41 0 -20 74 -6 210 41
79 28 156 50 171 50 15 0 37 8 50 19 21 16 22 21 9 36 -12 14 -31 16 -134 14
-67 -2 -276 0 -466 4 -222 4 -357 3 -377 -4z"/>
<path d="M9484 2170 c-31 -12 -84 -78 -84 -104 0 -27 10 -33 78 -42 54 -7 80
2 125 44 34 32 36 74 5 96 -24 17 -90 20 -124 6z"/>
<path d="M10730 2090 c0 -5 7 -10 15 -10 8 0 15 5 15 10 0 6 -7 10 -15 10 -8
0 -15 -4 -15 -10z"/>
<path d="M9763 2083 c-19 -7 -17 -98 2 -116 30 -31 73 -31 133 0 45 22 57 33
57 51 0 39 -140 86 -192 65z"/>
<path d="M10312 2063 c-12 -2 -27 -13 -32 -23 -33 -62 100 -148 164 -106 53
34 42 82 -27 115 -42 21 -59 23 -105 14z"/>
<path d="M10656 2007 c-14 -14 -26 -30 -26 -36 0 -18 30 -40 70 -52 33 -10 43
-9 72 8 64 37 38 88 -51 100 -33 5 -44 1 -65 -20z"/>
<path d="M6288 3465 c-11 -24 -12 -24 -39 -8 -25 15 -29 15 -53 0 -28 -19 -29
-22 -45 -146 -12 -92 -5 -115 32 -109 13 2 25 17 36 46 8 23 18 42 21 42 3 0
11 -13 17 -30 12 -33 33 -39 53 -15 14 17 40 150 40 208 0 33 -3 37 -25 37
-17 0 -29 -8 -37 -25z"/>
<path d="M3171 3436 c-24 -38 -27 -66 -8 -67 6 -1 29 0 49 1 l38 2 -35 -73
c-39 -81 -43 -107 -19 -116 23 -8 55 27 94 106 19 39 38 70 42 71 3 0 11 -13
17 -30 5 -16 15 -30 22 -30 18 0 99 69 99 85 0 20 -21 29 -130 59 -127 35
-143 34 -169 -8z"/>
<path d="M6073 3434 c-21 -21 -30 -24 -42 -15 -43 31 -67 25 -84 -18 -10 -29
-12 -29 -39 -15 -40 21 -106 8 -141 -27 -22 -22 -34 -27 -56 -23 -16 3 -37 1
-48 -4 -22 -12 -63 -90 -63 -121 0 -39 -22 -111 -34 -111 -6 0 -19 9 -29 20
-22 26 -54 12 -63 -26 -8 -33 23 -78 57 -82 59 -6 129 72 129 144 0 48 15 70
54 80 l28 7 -3 -79 -4 -79 35 -3 c42 -3 112 18 118 36 2 7 -12 19 -32 27 -20
9 -36 21 -36 29 0 7 23 23 50 34 43 18 52 19 55 7 3 -8 7 -22 10 -30 5 -17 40
-20 50 -5 3 5 25 7 50 3 43 -5 45 -5 58 28 18 42 37 142 37 196 0 53 -21 62
-57 27z m-129 -111 c-11 -48 -24 -67 -37 -54 -6 6 -21 11 -34 11 -13 0 -23 5
-23 10 0 6 6 10 13 10 7 0 28 11 47 25 19 13 36 24 38 25 1 0 -1 -12 -4 -27z"/>
<path d="M3478 3343 c-50 -52 -118 -153 -118 -174 0 -46 45 -31 95 33 70 89
105 151 93 165 -17 21 -32 15 -70 -24z"/>
<path d="M3643 3345 c-12 -8 -42 -45 -68 -83 -25 -37 -57 -82 -70 -101 -14
-18 -22 -37 -19 -42 11 -19 53 -9 71 17 10 14 28 37 40 52 l23 27 -2 -57 c-2
-60 15 -95 39 -80 7 4 34 45 61 90 l50 83 4 -67 c4 -60 7 -70 36 -95 43 -38
75 -45 141 -28 46 12 57 19 65 42 17 49 -27 55 -72 10 -25 -24 -59 -15 -82 22
-19 30 -20 38 -8 61 7 15 24 36 38 46 21 16 30 16 57 6 55 -21 86 28 43 67
-31 28 -95 21 -148 -16 -46 -33 -61 -33 -41 -1 15 24 6 52 -18 52 -10 0 -33
-17 -51 -37 -29 -33 -33 -35 -28 -14 6 28 -9 61 -27 61 -7 0 -22 -7 -34 -15z"/>
<path d="M4102 3284 c-16 -11 -22 -25 -22 -51 0 -24 4 -34 13 -30 32 12 57 18
57 14 0 -3 -18 -36 -40 -74 -45 -79 -52 -110 -28 -126 25 -17 69 29 108 114
31 67 52 85 64 53 4 -10 15 -14 33 -12 25 3 29 9 37 52 8 43 6 51 -10 63 -27
19 -183 18 -212 -3z"/>
<path d="M4397 3260 c-32 -25 -67 -116 -67 -174 0 -76 66 -108 143 -71 31 15
90 91 114 145 6 15 16 31 22 34 30 19 -8 83 -38 66 -10 -5 -39 -45 -67 -89
-31 -51 -55 -81 -67 -81 -29 0 -30 25 -3 84 30 65 33 91 10 100 -21 8 -18 9
-47 -14z"/>
<path d="M5358 3259 c-27 -20 -28 -23 -27 -122 2 -162 19 -188 72 -110 28 43
29 63 1 63 -20 0 -20 93 1 110 20 17 19 66 -1 74 -19 7 -14 9 -46 -15z"/>
<path d="M4708 3253 c-9 -10 -30 -53 -47 -96 -43 -109 -40 -163 7 -138 15 8
25 4 47 -19 52 -54 93 -29 61 36 -21 46 -21 46 18 93 40 48 55 97 35 116 -8 8
-34 16 -59 20 -37 5 -49 3 -62 -12z"/>
<path d="M4915 3231 c-12 -5 -26 -15 -31 -22 -12 -15 -27 -115 -28 -189 l-1
-45 78 -3 c77 -3 78 -2 75 20 -2 18 -11 24 -38 28 -46 7 -53 36 -11 45 49 11
84 43 76 72 -4 17 0 32 10 43 9 10 15 27 13 37 -3 15 -14 18 -63 20 -33 1 -69
-2 -80 -6z"/>
<path d="M5231 3112 c-32 -28 -34 -64 -4 -86 24 -17 29 -18 52 -5 28 16 40 61
21 84 -18 21 -49 24 -69 7z"/>
<path d="M5320 2945 c-14 -8 -33 -14 -42 -15 -28 0 -33 -22 -8 -42 46 -37 116
-9 108 44 -4 28 -24 33 -58 13z"/>
</g>
</svg>
