<?xml version="1.0" standalone="no"?>
<!DOCTYPE svg PUBLIC "-//W3C//DTD SVG 20010904//EN"
 "http://www.w3.org/TR/2001/REC-SVG-20010904/DTD/svg10.dtd">
<svg version="1.0" xmlns="http://www.w3.org/2000/svg"
 width="1280.000000pt" height="640.000000pt" viewBox="0 0 1280.000000 640.000000"
 preserveAspectRatio="xMidYMid meet">
<metadata>
Created by potrace 1.15, written by Peter Selinger 2001-2017
</metadata>
<g transform="translate(0.000000,640.000000) scale(0.100000,-0.100000)"
fill="#000000" stroke="none">
<path d="M12054 5911 c-33 -16 -45 -28 -67 -79 -15 -33 -27 -74 -27 -91 0 -40
-16 -40 -25 0 -9 40 -109 146 -152 160 -65 21 -153 -28 -153 -86 0 -18 -6 -38
-14 -44 -7 -6 -16 -25 -20 -41 -11 -56 -80 -143 -142 -182 -33 -20 -76 -50
-98 -67 -54 -43 -90 -41 -171 10 -36 22 -82 43 -103 46 -33 4 -43 1 -69 -26
-18 -17 -51 -64 -76 -104 -24 -39 -70 -106 -101 -147 -32 -41 -82 -107 -111
-147 -57 -76 -85 -98 -113 -89 -9 3 -30 2 -47 -2 -23 -7 -36 -4 -55 10 -19 14
-49 19 -120 23 -52 2 -156 9 -230 16 -244 21 -692 9 -860 -22 -63 -11 -146
-24 -185 -28 -38 -4 -92 -15 -120 -24 -27 -9 -120 -32 -205 -52 -85 -19 -173
-39 -195 -44 -96 -22 -275 -63 -335 -76 -36 -8 -112 -20 -170 -26 -58 -6 -152
-19 -210 -29 -90 -15 -117 -15 -186 -5 -111 16 -185 12 -384 -20 -81 -13 -280
-38 -400 -50 -30 -3 -98 -7 -150 -10 -92 -4 -178 -13 -345 -36 -44 -6 -111
-14 -150 -18 -38 -5 -106 -16 -150 -24 -44 -9 -147 -26 -230 -38 -82 -12 -195
-28 -250 -35 -55 -8 -129 -19 -165 -25 -36 -5 -94 -14 -130 -19 -36 -5 -96
-16 -135 -23 -38 -8 -101 -18 -140 -22 -38 -3 -128 -15 -200 -26 -71 -11 -150
-22 -175 -25 -25 -3 -81 -15 -125 -26 -58 -16 -111 -22 -195 -22 l-115 -1
-140 64 c-77 35 -179 86 -226 113 -48 26 -90 48 -94 48 -4 0 -20 9 -35 20 -16
11 -113 67 -217 124 -103 56 -205 114 -225 128 -20 14 -80 44 -132 67 -144 63
-234 66 -521 15 -149 -26 -349 -42 -554 -44 l-205 -1 -38 -34 c-48 -40 -90
-47 -278 -40 -211 7 -287 20 -450 80 -25 9 -76 25 -115 35 -38 11 -105 31
-148 45 -77 27 -77 27 -110 7 -43 -25 -40 -58 12 -126 36 -49 166 -156 188
-156 25 0 120 -84 138 -123 11 -23 40 -63 65 -88 61 -63 113 -72 191 -32 30
15 61 33 69 40 23 18 159 45 200 38 19 -3 60 2 90 10 30 8 73 15 95 14 34 0
43 -5 60 -32 l21 -32 86 3 c81 4 92 2 165 -31 164 -74 255 -101 307 -92 17 3
63 2 101 -3 42 -6 118 -5 192 1 67 5 133 7 145 4 13 -4 57 -37 98 -75 41 -37
119 -101 174 -141 55 -41 95 -76 90 -81 -5 -5 -56 -21 -114 -35 -116 -28 -163
-41 -230 -61 -25 -7 -65 -16 -89 -19 -23 -4 -55 -11 -70 -16 -48 -19 -185 -43
-258 -45 -39 -1 -116 -7 -170 -13 -54 -6 -237 -13 -408 -15 -209 -2 -326 -7
-358 -16 -36 -9 -61 -10 -101 -2 -40 8 -78 8 -152 -2 -55 -8 -153 -17 -219
-20 -66 -4 -142 -9 -170 -10 -31 -2 -78 -16 -125 -38 -123 -58 -377 -127 -500
-137 -47 -4 -95 -13 -108 -20 -21 -11 -21 -13 -7 -41 20 -38 18 -37 153 -72
199 -50 253 -59 319 -53 39 3 64 1 68 -5 4 -6 24 -18 46 -27 21 -8 39 -19 39
-24 0 -4 15 -11 34 -14 40 -8 88 14 111 49 13 19 27 24 83 29 37 3 96 10 132
16 91 14 132 14 505 7 565 -11 723 -15 940 -23 236 -9 283 -9 720 2 247 6 345
4 480 -8 94 -8 181 -15 196 -16 35 -1 161 -59 154 -71 -9 -15 -132 -13 -138 3
-3 9 -9 8 -23 -4 -17 -15 -70 -18 -439 -23 -550 -8 -742 -19 -1150 -67 -99
-11 -221 -25 -272 -29 -50 -5 -116 -13 -145 -19 -29 -6 -73 -10 -98 -9 -25 1
-112 -4 -194 -11 -127 -10 -159 -16 -222 -43 -94 -39 -136 -83 -132 -136 3
-36 19 -52 108 -115 18 -12 18 -17 6 -78 -8 -35 -17 -90 -21 -122 -4 -31 -11
-60 -16 -63 -5 -3 -9 -22 -9 -42 -1 -101 -61 -317 -132 -472 -37 -81 -87 -227
-80 -234 3 -3 0 -11 -5 -18 -6 -7 -13 -42 -17 -78 -6 -66 -36 -161 -73 -235
-11 -22 -24 -58 -27 -79 -8 -44 -78 -190 -106 -221 -10 -11 -40 -64 -66 -118
-47 -95 -49 -98 -93 -111 -25 -8 -71 -24 -101 -36 -63 -26 -89 -28 -368 -35
-118 -3 -211 -9 -223 -16 -27 -14 -38 -3 -15 14 10 7 16 22 14 34 -3 20 -4 20
-44 3 l-41 -18 -12 -122 c-7 -67 -10 -124 -7 -127 7 -8 94 28 108 44 6 8 14
31 18 51 3 21 11 36 18 34 29 -6 310 21 337 32 16 7 67 14 112 15 45 1 104 6
130 12 77 17 404 14 439 -4 25 -13 31 -13 53 2 17 11 50 16 101 17 262 5 534
22 685 43 42 6 74 6 79 1 13 -13 -38 -161 -72 -208 -15 -22 -34 -58 -42 -81
-12 -37 -11 -43 5 -61 10 -11 14 -21 9 -21 -5 -1 -51 -3 -103 -5 -52 -1 -144
-10 -205 -19 -88 -13 -147 -15 -281 -10 -93 4 -192 11 -220 16 -63 12 -82 14
-240 27 -118 9 -223 6 -385 -12 -216 -24 -235 -30 -213 -64 9 -14 23 -16 79
-14 38 2 96 8 129 13 73 13 461 13 530 0 28 -5 57 -10 65 -10 8 -1 69 -5 135
-10 147 -10 322 -7 367 8 18 6 89 13 158 16 159 6 300 20 368 35 56 13 72 32
72 86 0 22 44 131 110 269 16 33 34 78 41 100 16 56 37 113 59 160 19 43 40
112 47 160 6 39 22 67 33 60 13 -8 1 -95 -17 -123 -8 -13 -12 -31 -8 -41 12
-38 -94 -376 -139 -444 -12 -18 -27 -45 -35 -62 -7 -16 -17 -38 -22 -47 -15
-29 -10 -48 10 -48 23 0 113 154 151 258 38 104 48 112 138 112 88 0 634 57
869 91 40 6 81 8 92 4 11 -3 22 -1 26 5 3 6 12 7 20 3 7 -5 112 -4 232 0 120
4 285 8 367 7 152 0 179 7 154 37 -13 16 -169 18 -185 2 -7 -7 -17 -8 -29 -1
-28 15 -429 7 -619 -12 -88 -9 -207 -19 -265 -21 -234 -11 -396 -27 -415 -39
-18 -12 -25 -11 -48 1 -15 7 -31 12 -35 9 -9 -5 -131 -17 -201 -19 -24 -1 -45
3 -48 9 -2 6 7 57 20 115 14 57 32 151 41 209 14 98 20 156 46 465 15 179 30
313 41 383 5 34 12 106 16 158 9 139 -10 132 403 151 406 18 1749 17 2255 -2
88 -4 268 -10 400 -15 225 -9 1077 -5 1205 5 42 3 61 1 70 -10 25 -30 11 -235
-26 -380 -33 -129 -42 -188 -53 -365 -5 -80 -14 -161 -20 -180 -6 -19 -11 -60
-11 -90 0 -30 -5 -71 -10 -90 -6 -19 -11 -62 -12 -95 -1 -49 -16 -103 -33
-123 -2 -2 -14 4 -28 12 -22 15 -28 15 -68 0 -32 -11 -63 -14 -116 -10 -50 4
-82 1 -106 -9 -30 -12 -171 -21 -391 -24 -48 -1 -49 -2 -32 -20 11 -13 14 -21
7 -26 -10 -6 -162 -24 -204 -25 -13 0 -17 -6 -15 -22 2 -15 9 -22 18 -19 61
16 340 19 400 3 118 -30 185 -42 188 -34 1 5 13 7 25 5 27 -5 80 14 73 26 -11
17 20 30 67 27 26 -2 47 0 47 4 0 17 57 27 100 19 79 -14 141 -28 151 -35 5
-3 32 2 59 12 35 13 50 23 50 36 0 10 -5 18 -12 18 -9 0 -9 3 0 12 10 10 16 7
28 -11 12 -17 19 -20 28 -11 8 8 7 13 -4 20 -26 16 0 24 36 11 23 -8 49 -10
72 -5 21 4 82 8 137 10 114 3 333 20 385 29 19 4 60 9 90 11 30 3 62 8 70 11
22 8 56 10 239 17 152 5 199 14 186 36 -3 4 -89 6 -192 4 -189 -3 -233 -6
-418 -24 -55 -5 -139 -10 -187 -10 -51 0 -106 -6 -132 -15 -25 -9 -76 -17
-113 -18 l-68 -2 -2 229 c-1 125 -4 231 -7 234 -16 16 -20 -26 -18 -195 3
-254 -4 -274 -97 -289 l-41 -7 0 59 c0 33 7 97 16 144 9 47 16 95 15 107 0 13
14 73 33 135 50 170 65 278 72 528 4 124 7 237 7 253 0 16 5 27 13 27 17 0 16
3 3 -280 -17 -366 -18 -416 -9 -430 25 -40 28 -7 51 580 5 123 13 228 19 234
5 5 54 13 110 17 55 4 110 11 123 15 12 4 128 6 257 5 272 -3 222 -3 515 3
127 2 293 8 370 12 77 4 212 8 300 9 88 1 212 3 275 5 63 1 120 0 125 -1 6 -2
30 2 55 8 38 10 264 28 625 49 39 2 86 6 105 9 148 18 152 18 161 4 4 -8 14
-14 20 -14 28 0 69 -282 69 -469 0 -89 4 -156 11 -168 11 -20 9 -60 -16 -393
-3 -33 -10 -103 -17 -157 -11 -87 -15 -98 -38 -111 -37 -22 -241 -35 -645 -43
-270 -5 -236 -3 -405 -20 -74 -8 -187 -19 -250 -24 -63 -5 -158 -14 -210 -19
-97 -11 -495 -32 -675 -37 -55 -1 -128 -9 -162 -18 -34 -9 -69 -13 -78 -10
-10 4 -15 0 -15 -11 0 -16 13 -17 168 -11 92 4 223 9 292 11 69 3 208 11 310
19 229 18 244 19 300 18 25 -1 60 3 78 9 55 18 299 31 325 17 12 -6 23 -5 33
3 9 7 29 9 55 5 23 -4 46 -2 53 3 6 5 199 11 429 15 395 5 421 5 455 -13 86
-44 126 -51 186 -36 30 8 81 28 114 46 l60 31 253 -1 c343 -2 627 -9 638 -15
14 -9 53 -145 45 -158 -5 -8 -54 -9 -178 -2 -179 9 -468 10 -596 4 -41 -3
-199 -3 -350 -1 -360 5 -610 -14 -905 -68 -33 -6 -87 -15 -120 -21 -33 -6
-114 -20 -180 -31 -138 -24 -129 -23 -345 -38 -175 -13 -446 -22 -648 -22 -67
0 -166 -4 -220 -10 -53 -5 -153 -12 -222 -15 -121 -6 -153 -15 -129 -39 14
-14 196 -7 345 14 34 5 154 6 265 4 280 -6 367 -5 489 9 58 7 130 11 160 10
61 -2 330 37 430 63 36 9 115 23 175 31 61 8 121 16 135 19 166 26 560 50 790
49 256 -2 804 -12 970 -19 142 -5 158 -8 198 -31 26 -16 71 -30 112 -35 74
-11 91 -6 152 43 25 19 31 20 68 9 26 -8 127 -14 263 -16 172 -2 236 -7 284
-21 61 -17 62 -17 108 5 53 25 64 44 41 70 -14 16 -23 17 -64 9 -42 -8 -178
-9 -472 -3 -52 1 -129 3 -171 3 l-76 2 -16 58 c-9 31 -19 73 -22 93 -6 35 -5
37 27 48 46 14 188 31 273 31 38 0 90 5 115 11 33 7 57 7 88 -2 56 -16 74 -2
51 39 -12 22 -22 27 -50 26 -99 -3 -370 -26 -409 -34 -25 -5 -61 -9 -81 -10
-34 0 -37 2 -43 37 -3 21 -6 64 -6 95 0 32 -4 77 -10 100 -28 123 -51 279 -61
413 -7 94 -17 157 -25 170 -17 24 -18 82 -2 87 7 3 4 14 -10 34 -13 18 -25 56
-32 102 -5 39 -14 104 -20 142 -5 39 -10 93 -10 120 0 46 3 51 28 61 15 6 41
8 58 6 45 -7 197 17 284 46 118 39 290 114 314 136 12 12 26 21 31 21 4 0 27
17 50 38 23 20 74 63 113 95 53 42 72 63 72 81 0 13 7 30 17 37 23 20 43 72
43 116 0 63 -30 98 -122 144 -241 122 -515 206 -793 246 -48 7 -62 17 -79 57
-17 40 -96 136 -112 136 -6 0 -38 16 -70 35 -54 33 -167 75 -200 75 -28 0 -13
26 49 87 90 90 147 129 214 148 122 34 320 98 358 115 22 10 89 37 148 60 59
24 110 47 113 52 3 4 31 24 62 44 89 57 191 170 241 269 24 46 59 102 77 124
21 24 32 45 28 55 -4 10 0 18 10 22 9 3 16 11 16 17 0 6 10 31 21 55 33 67 22
154 -28 227 -21 30 -44 54 -51 55 -7 0 -34 20 -60 43 -26 24 -68 58 -95 76
-26 18 -54 43 -63 56 -20 31 -21 170 -1 194 10 11 14 38 13 89 -1 68 -3 76
-30 98 -22 19 -37 24 -69 22 -37 -3 -43 -7 -76 -63 -20 -33 -45 -61 -56 -63
-22 -5 -45 23 -45 54 0 28 -37 74 -58 73 -9 0 -35 -9 -58 -18z m-234 -117 c30
-35 61 -80 68 -100 6 -20 19 -45 27 -57 21 -31 19 -51 -12 -88 -15 -17 -37
-54 -50 -81 -13 -27 -31 -62 -41 -76 -21 -30 -60 -105 -121 -235 -45 -94 -73
-127 -106 -127 -12 0 -35 -7 -52 -15 -16 -8 -52 -18 -79 -21 -88 -10 -171 -45
-231 -96 -38 -32 -58 -56 -58 -71 0 -16 -13 -29 -50 -48 -39 -19 -53 -33 -61
-60 -6 -19 -22 -39 -36 -46 -38 -19 -53 -40 -39 -57 13 -15 17 -54 7 -77 -4
-9 -1 -21 7 -27 10 -9 28 -5 73 13 75 31 94 32 69 5 -10 -11 -24 -20 -32 -20
-28 0 -72 -30 -67 -45 7 -17 69 -21 79 -5 9 15 25 12 25 -4 0 -8 -16 -20 -35
-26 -23 -8 -35 -18 -35 -30 0 -26 -15 -33 -42 -19 -39 20 -212 121 -238 139
-14 9 -41 20 -61 24 -33 6 -39 3 -73 -34 -59 -65 -52 -77 77 -138 137 -65 140
-67 202 -81 28 -7 66 -20 86 -31 21 -10 59 -25 85 -34 27 -8 79 -26 116 -40
37 -13 88 -28 113 -31 25 -4 47 -11 50 -15 8 -13 -80 -78 -247 -182 -24 -14
-63 -34 -88 -44 -25 -9 -49 -21 -55 -26 -5 -4 -17 -8 -26 -8 -10 0 -19 -3 -21
-7 -7 -17 -148 -83 -249 -117 -58 -20 -143 -43 -190 -51 -46 -8 -111 -19 -143
-24 -33 -6 -62 -9 -64 -6 -13 13 12 33 55 45 26 7 57 24 68 37 19 22 265 142
293 143 7 0 52 20 100 44 48 24 112 52 142 61 79 25 157 63 164 80 6 18 -29
43 -110 79 -51 23 -64 34 -78 67 -17 39 -18 39 -74 39 -74 0 -129 16 -142 40
-6 11 -18 20 -28 20 -9 0 -39 10 -66 23 l-49 23 2 85 c2 69 -1 88 -14 99 -14
12 -18 11 -26 -1 -5 -8 -9 -27 -9 -44 -1 -62 -35 -80 -102 -52 -52 21 -59 32
-28 42 18 6 29 36 13 34 -5 0 -44 -20 -88 -44 -218 -119 -344 -176 -377 -173
-29 3 -33 6 -33 33 0 24 9 36 55 67 142 99 143 99 132 110 -8 8 -22 4 -49 -14
-21 -14 -52 -31 -70 -38 -32 -12 -58 -6 -47 11 8 13 -6 109 -16 109 -4 0 -38
-20 -74 -45 -65 -43 -86 -53 -86 -38 0 3 7 14 16 24 17 19 12 39 -10 39 -7 0
-25 -18 -42 -39 -80 -108 -129 -161 -146 -161 -22 0 -23 13 -3 30 8 7 15 18
15 24 0 6 21 45 45 86 44 73 54 100 36 100 -14 0 -29 -18 -98 -117 -69 -99
-97 -128 -112 -118 -13 7 28 93 54 115 9 7 25 30 35 51 16 31 17 39 6 48 -11
9 -22 2 -51 -33 -38 -47 -108 -91 -131 -82 -23 9 -16 23 21 46 42 26 50 70 13
70 -23 0 -108 -71 -108 -90 0 -5 -12 -10 -26 -10 -21 0 -25 3 -19 18 24 57 -3
65 -40 12 -29 -42 -45 -49 -63 -27 -7 8 -6 18 4 31 18 25 18 46 0 46 -8 0 -27
-23 -42 -50 l-28 -51 -45 6 c-25 4 -61 13 -79 21 -26 12 -40 13 -66 4 -19 -6
-46 -8 -61 -4 -23 6 -34 -1 -78 -43 -48 -46 -128 -85 -143 -70 -4 3 -2 20 4
36 8 22 8 32 0 37 -11 7 -20 -3 -76 -76 -13 -16 -31 -30 -40 -30 -9 0 -30 -9
-47 -20 -32 -21 -75 -27 -75 -10 0 6 14 35 31 66 25 43 29 58 20 67 -13 13
-30 -4 -95 -93 -28 -39 -40 -47 -93 -61 -93 -26 -489 -27 -563 -3 -13 5 -13 6
0 13 19 10 156 44 270 66 92 18 317 70 365 85 37 11 96 24 205 46 47 9 156 33
242 55 86 21 171 39 187 39 16 0 32 4 35 9 3 5 34 14 68 20 35 6 101 18 148
27 143 26 271 44 310 44 20 0 40 4 46 9 16 15 281 31 434 26 90 -2 164 -10
195 -19 28 -9 62 -16 76 -16 15 0 49 -6 75 -14 182 -53 238 -66 278 -66 41 0
46 3 52 26 4 14 1 37 -5 50 -17 39 -16 210 2 237 22 33 56 67 67 67 5 0 19 21
31 48 13 29 50 76 99 123 61 60 79 84 84 115 6 27 22 53 54 86 26 26 55 57 64
70 l17 23 77 -40 c79 -41 115 -76 115 -111 0 -21 -25 -129 -36 -156 -8 -19
-110 -100 -157 -124 -33 -17 -37 -50 -8 -59 14 -4 31 2 53 20 84 69 191 146
247 177 23 13 60 34 83 48 24 14 58 34 76 45 19 11 45 30 60 41 22 19 23 24
12 38 -21 26 -65 19 -113 -17 -41 -32 -150 -97 -161 -97 -13 0 -16 34 -7 81
12 61 76 141 135 168 22 10 57 35 77 55 20 20 41 36 45 36 20 1 54 38 55 60 0
27 1 29 47 133 26 59 51 85 81 86 3 0 30 -29 60 -65z m284 21 c7 -28 -9 -101
-24 -110 -16 -10 -24 26 -11 47 7 11 10 32 6 49 -11 51 16 65 29 14z m258 -32
c-6 -21 -10 -55 -9 -76 1 -40 -13 -60 -51 -72 -21 -6 -22 -5 -14 12 5 10 7 33
5 51 -4 24 0 42 16 63 12 16 26 41 32 55 7 20 13 24 21 16 8 -8 9 -21 0 -49z
m-144 -111 l3 -42 -40 0 c-39 0 -61 13 -41 25 5 3 10 19 10 34 0 36 6 40 38
32 23 -6 27 -13 30 -49z m-31 -118 c52 -15 99 -15 153 1 21 6 23 5 13 -6 -7
-7 -13 -19 -13 -26 0 -15 43 -45 68 -47 9 -1 45 -20 79 -41 49 -32 63 -45 63
-65 0 -35 26 -128 40 -145 15 -17 -16 -80 -68 -137 l-37 -40 -80 7 c-44 4
-132 8 -195 11 -63 2 -155 6 -205 9 -49 4 -136 7 -192 7 -88 0 -103 3 -103 17
1 25 34 94 78 158 21 32 65 106 96 164 61 113 89 139 124 120 15 -8 23 -7 32
4 10 12 30 18 78 24 8 0 39 -6 69 -15z m-2121 -544 c174 -18 206 -24 255 -53
25 -15 60 -27 78 -27 44 0 174 -21 184 -30 4 -4 10 -37 12 -74 4 -54 2 -68
-11 -73 -9 -3 -59 4 -112 15 -220 48 -282 55 -482 55 -189 0 -424 -19 -540
-43 -30 -7 -75 -14 -100 -15 -25 -2 -65 -10 -90 -18 -25 -8 -90 -22 -145 -31
-212 -36 -812 -158 -940 -192 -69 -19 -110 -28 -215 -49 -41 -8 -106 -23 -145
-34 -38 -11 -85 -21 -103 -21 -33 0 -33 0 -26 38 15 88 46 218 53 225 5 5 39
12 77 17 38 5 119 16 179 25 61 9 146 20 190 26 44 6 103 17 130 25 47 14 255
60 320 70 17 3 66 14 110 24 140 34 268 60 296 60 14 0 46 7 70 16 60 21 294
52 404 54 50 0 114 6 144 13 63 14 254 13 407 -3z m2548 -5 c-4 -8 -10 -15
-15 -15 -5 0 -9 7 -9 15 0 8 7 15 15 15 9 0 12 -6 9 -15z m-174 -33 c0 -11 -9
-27 -19 -36 -19 -17 -20 -17 -31 3 -8 15 -19 21 -38 19 -18 -2 -27 2 -30 15
-3 15 5 17 57 17 53 0 61 -3 61 -18z m71 -56 c-1 -10 -122 -116 -132 -116 -5
0 -9 6 -9 13 0 14 90 87 108 87 5 0 13 7 16 16 6 15 19 15 17 0z m-11446 -66
c33 -16 86 -36 118 -45 32 -9 60 -22 61 -28 2 -7 9 -32 15 -57 7 -25 16 -63
22 -84 5 -22 17 -52 26 -67 22 -36 11 -59 -27 -59 -45 0 -67 15 -91 63 -12 23
-34 57 -49 75 -15 19 -26 41 -23 50 3 13 -9 21 -45 34 -64 23 -178 111 -191
148 -18 52 21 46 184 -30z m2040 34 c33 -8 77 -20 98 -25 20 -5 54 -24 74 -42
20 -18 55 -43 79 -57 24 -14 74 -42 111 -64 37 -21 79 -49 93 -61 14 -13 66
-44 115 -71 50 -26 104 -57 120 -69 17 -12 41 -26 55 -30 14 -4 48 -20 76 -36
28 -16 58 -29 65 -29 8 0 34 -14 58 -30 24 -17 51 -30 60 -30 9 0 34 -9 56
-20 22 -11 47 -20 57 -20 10 0 57 -16 104 -34 47 -19 105 -38 130 -42 39 -6
44 -4 44 13 0 10 -5 24 -10 29 -14 14 35 28 160 49 52 9 142 24 200 35 58 10
128 22 155 25 117 13 196 24 285 38 52 9 133 21 180 27 177 24 359 62 455 96
47 16 98 25 155 27 47 2 119 9 160 15 41 6 134 13 205 17 72 3 146 8 165 10
19 2 80 6 136 9 55 3 157 17 225 30 68 14 176 30 239 36 63 6 144 15 180 20
36 5 104 10 152 10 l87 0 10 -35 c7 -27 4 -49 -15 -110 -16 -50 -24 -99 -24
-146 l0 -71 -82 6 c-237 18 -311 18 -498 2 -107 -9 -234 -23 -281 -31 -47 -8
-99 -15 -115 -15 -17 0 -83 -11 -148 -25 -128 -27 -157 -25 -180 11 -33 50
-49 49 -133 -9 -51 -35 -79 -61 -81 -75 -6 -36 22 -35 93 4 54 30 69 34 76 23
14 -23 6 -31 -62 -60 -68 -30 -108 -35 -140 -19 -35 19 -139 -50 -126 -84 5
-11 15 -14 35 -10 16 3 32 1 36 -4 6 -10 -6 -14 -87 -28 -20 -3 -39 -10 -42
-14 -3 -5 21 -23 54 -41 64 -35 72 -47 96 -139 8 -33 25 -75 36 -94 24 -41 22
-48 -54 -146 -101 -129 -141 -170 -168 -170 -18 0 -48 -22 -108 -80 -46 -45
-91 -80 -101 -80 -30 0 -24 17 15 43 30 20 95 97 95 112 0 16 -32 1 -50 -25
-34 -48 -129 -114 -204 -143 -38 -15 -72 -24 -75 -21 -6 6 -4 9 74 109 141
181 155 205 117 205 -20 0 -20 0 -149 -137 -47 -51 -90 -90 -94 -87 -4 2 3 28
16 57 14 28 25 61 25 73 0 11 9 29 19 38 10 9 40 54 67 99 55 93 134 184 247
281 72 63 94 96 65 96 -22 0 -60 -30 -203 -160 -144 -131 -185 -187 -185 -253
0 -18 -11 -53 -24 -77 -13 -25 -32 -60 -42 -78 l-18 -32 -245 -1 c-135 0 -253
0 -261 -1 -8 0 -94 3 -190 6 -166 7 -227 17 -320 51 -19 7 -60 21 -90 30 -74
23 -251 113 -275 140 -5 6 -71 56 -145 110 -191 140 -263 200 -399 333 -165
162 -256 241 -351 305 -19 14 -41 32 -49 41 -16 19 -4 21 47 7 30 -9 34 -8 45
16 10 22 8 28 -13 45 -23 19 -34 20 -141 14 -63 -3 -149 -12 -190 -19 -85 -15
-235 -15 -325 0 -34 6 -94 25 -134 43 -40 17 -80 30 -91 27 -10 -3 -20 2 -23
10 -10 25 -77 46 -143 44 -61 -1 -63 0 -63 24 0 14 -9 63 -21 109 -32 128 -46
121 233 122 198 1 249 5 338 23 178 37 387 61 475 54 33 -2 87 -11 120 -19z
m9177 -94 c-28 -27 -69 -60 -91 -74 -33 -21 -41 -23 -51 -11 -15 18 -40 8 -40
-15 0 -22 -19 -30 -42 -18 -32 16 3 52 64 67 58 15 114 45 168 90 55 46 48 15
-8 -39z m-58 51 c9 -14 -16 -29 -53 -33 -21 -2 -36 2 -38 10 -3 7 4 12 19 12
13 0 30 5 38 10 19 12 27 12 34 1z m-10609 -97 c69 -3 139 -1 165 5 52 12 73
-1 96 -56 21 -49 17 -69 -13 -82 -35 -14 -310 -16 -421 -3 -16 2 -52 61 -52
85 0 10 8 29 17 43 14 22 21 25 52 20 20 -4 90 -9 156 -12z m10765 -39 c0 -7
-7 -18 -16 -23 -9 -5 -25 -26 -37 -47 -21 -36 -59 -67 -99 -81 -10 -3 -20 -15
-23 -25 -4 -10 -14 -19 -23 -19 -10 0 -28 -7 -40 -16 -12 -8 -22 -10 -22 -5 0
13 24 36 79 75 23 17 41 33 41 38 0 4 7 8 15 8 8 0 19 10 26 23 12 23 78 86
92 87 4 0 7 -7 7 -15z m-236 -106 c-26 -28 -73 -59 -89 -59 -14 0 16 36 51 61
54 38 75 37 38 -2z m-2244 -76 c0 -62 -46 -131 -70 -106 -12 12 19 83 36 83 8
0 14 9 14 20 0 11 5 20 10 20 6 0 10 -8 10 -17z m910 -73 c18 -16 38 -30 46
-30 23 0 85 -33 81 -44 -9 -27 -86 -9 -187 44 -45 23 -51 47 -13 53 15 2 31 5
34 6 4 0 21 -12 39 -29z m-1042 -54 c-2 -1 -20 -14 -40 -29 -20 -15 -46 -27
-57 -27 -23 0 -40 22 -22 28 7 2 21 13 29 23 9 11 22 19 28 19 6 0 20 12 30
27 l18 28 8 -34 c5 -18 8 -34 6 -35z m611 38 c7 -7 -21 -34 -36 -34 -7 0 -44
-20 -81 -45 -56 -38 -75 -45 -114 -45 -80 0 -64 19 75 92 72 37 98 46 122 42
17 -4 32 -8 34 -10z m-1429 -33 c0 -20 -19 -41 -37 -41 -18 0 -16 21 3 48 17
24 34 21 34 -7z m130 5 c0 -28 -33 -56 -67 -56 -31 0 -29 16 6 51 36 36 61 38
61 5z m290 -5 c-12 -24 -55 -51 -80 -51 -33 0 -23 18 26 50 49 31 71 31 54 1z
m1793 -7 c11 -11 -13 -44 -32 -44 -25 0 -49 28 -30 34 8 2 21 7 29 9 22 8 26
8 33 1z m-2356 -30 c3 -10 -45 -34 -68 -34 -14 0 -10 17 7 35 18 18 55 17 61
-1z m1593 8 c0 -13 -76 -83 -83 -76 -4 4 -13 1 -22 -6 -8 -7 -15 -10 -15 -7 0
3 -3 12 -6 20 -3 10 7 19 34 30 22 9 42 23 45 31 6 16 47 23 47 8z m-555 -30
c0 -18 -20 -15 -23 4 -3 10 1 15 10 12 7 -3 13 -10 13 -16z m-1200 -13 c0 -7
-8 -15 -17 -17 -18 -3 -25 18 -11 32 10 10 28 1 28 -15z m1880 -19 c9 -15 -20
-57 -45 -65 -20 -6 -50 9 -50 24 0 7 70 50 82 51 4 0 10 -5 13 -10z m-2975
-20 c156 -17 211 -27 300 -54 84 -25 85 -25 103 -5 21 22 57 26 57 5 0 -14
-96 -102 -157 -145 -39 -26 -41 -20 -11 36 21 39 21 44 7 58 -15 15 -19 14
-55 -5 -21 -11 -49 -28 -61 -36 -31 -22 -39 1 -10 28 14 13 35 30 48 39 13 10
21 20 17 24 -7 8 -149 -13 -168 -25 -19 -12 -4 -40 22 -40 20 -1 18 -3 -12
-20 -19 -10 -52 -39 -73 -64 -21 -25 -51 -53 -67 -61 -17 -9 -30 -22 -30 -30
0 -9 -11 -21 -25 -27 -28 -13 -34 -48 -9 -48 9 0 32 17 50 38 18 20 33 31 34
24 0 -19 -28 -70 -42 -75 -10 -3 -10 -7 -1 -17 9 -10 28 -7 90 12 96 31 111
28 83 -17 -11 -18 -20 -40 -20 -49 0 -16 3 -15 26 3 15 12 35 21 44 21 10 0
34 7 53 15 20 8 43 12 52 9 8 -4 21 -2 28 4 6 6 29 13 50 17 29 6 37 4 37 -8
0 -19 -14 -24 -90 -33 -59 -6 -120 -40 -120 -65 0 -14 62 -11 114 7 38 13 52
14 76 4 26 -11 32 -9 63 14 42 32 47 32 47 1 0 -30 -46 -62 -102 -71 -33 -6
-53 -22 -30 -25 51 -7 135 -3 144 8 14 18 38 16 38 -2 0 -9 9 -15 24 -15 15 0
33 -12 51 -36 27 -35 27 -35 49 -16 42 38 48 37 44 -4 -3 -41 11 -54 32 -29 7
8 18 15 25 15 14 0 29 -45 20 -60 -4 -6 -42 -10 -86 -10 -94 0 -119 -10 -119
-48 -1 -15 -9 -41 -18 -58 -30 -56 -102 -144 -117 -144 -19 0 -19 9 -2 29 7 9
19 36 26 61 7 25 21 62 32 82 10 20 19 47 19 59 0 18 -4 20 -25 15 -18 -5 -39
1 -68 19 -43 24 -44 24 -85 8 -42 -16 -43 -16 -71 11 -40 38 -211 85 -211 57
0 -4 52 -32 115 -60 92 -42 124 -52 158 -49 l42 3 -1 -40 c-1 -33 -8 -45 -40
-72 -20 -18 -42 -33 -49 -33 -6 0 -28 -23 -49 -50 -21 -28 -44 -49 -50 -47
-15 6 -13 13 34 95 37 66 43 92 21 92 -4 0 -20 -21 -34 -47 -30 -54 -119 -153
-137 -153 -9 0 -11 10 -6 31 6 29 15 55 57 147 10 23 19 52 19 64 0 20 -1 20
-20 3 -11 -10 -22 -27 -26 -38 -22 -68 -165 -260 -181 -243 -6 6 15 63 71 189
25 58 3 44 -40 -25 -49 -80 -125 -176 -141 -177 -7 -1 -16 -9 -22 -18 -5 -10
-13 -15 -17 -10 -9 8 10 76 37 131 36 75 12 93 -26 19 -24 -48 -111 -150 -120
-141 -3 3 3 24 13 45 26 51 56 153 47 161 -4 4 -19 -9 -34 -28 -50 -67 -141
-159 -146 -150 -3 5 3 41 15 78 24 82 24 82 6 82 -8 0 -28 -22 -46 -49 -17
-27 -38 -55 -47 -62 -8 -7 -19 -23 -24 -36 -5 -13 -16 -23 -25 -23 -11 0 -14
5 -9 18 4 9 9 34 12 54 4 30 2 39 -12 44 -13 5 -34 -10 -82 -59 -36 -37 -69
-64 -74 -61 -5 3 -8 17 -7 32 4 55 -2 102 -13 102 -6 0 -25 -16 -42 -35 -36
-41 -47 -44 -47 -10 0 14 -2 25 -4 25 -3 0 -25 -21 -50 -47 -40 -43 -45 -46
-51 -28 -4 11 -10 27 -15 36 -7 13 1 21 34 37 96 48 135 57 531 122 99 17 223
37 275 46 132 21 240 47 240 56 0 4 -15 15 -32 24 -18 9 -40 22 -48 29 -24 20
-110 62 -185 91 -69 26 -109 42 -173 70 -18 8 -42 14 -53 14 -11 0 -38 9 -61
21 -24 12 -50 18 -64 15 -27 -7 -41 9 -24 29 8 10 38 15 92 17 63 2 83 7 92
20 13 22 7 28 -45 39 -24 6 -50 20 -60 34 -20 25 -57 39 -126 49 -40 6 -45 4
-95 -44 -76 -73 -85 -63 -24 28 30 45 28 65 -5 44 -10 -7 -29 -10 -42 -7 -16
4 -30 -2 -52 -25 -16 -16 -39 -30 -52 -30 -30 0 -29 18 2 32 27 12 33 36 11
44 -20 8 -73 -22 -81 -45 -3 -10 -14 -26 -23 -35 -17 -14 -20 -14 -38 -1 -19
15 -19 16 4 31 25 18 30 44 7 44 -8 0 -30 -13 -48 -30 -43 -37 -55 -38 -59 -2
l-3 27 -80 -3 c-75 -2 -78 -2 -55 12 14 9 35 15 46 16 32 0 51 27 36 50 -18
30 19 50 93 50 41 0 74 7 100 20 22 11 43 20 48 20 5 0 7 -9 4 -20 -3 -13 0
-20 10 -20 8 0 17 9 20 20 6 22 52 40 115 44 24 2 61 8 83 14 49 13 205 25
205 15 0 -4 -14 -22 -31 -39 -22 -23 -30 -38 -25 -51 7 -16 12 -13 42 19 19
21 34 46 34 57 0 13 8 21 23 24 40 7 360 -2 457 -13z m1704 2 c19 -32 -86
-132 -139 -132 -24 0 -26 3 -21 25 9 37 -2 50 -25 29 -10 -9 -19 -22 -19 -29
0 -27 -37 -46 -74 -40 -31 6 -39 3 -68 -28 -32 -35 -85 -63 -96 -52 -3 3 2 21
11 40 20 43 21 45 5 45 -7 0 -29 -23 -48 -51 -40 -59 -74 -89 -102 -89 -16 0
-17 3 -8 20 6 11 17 20 25 20 8 0 19 19 27 46 15 53 19 56 208 141 84 38 120
49 180 54 119 9 139 9 144 1z m491 -13 c10 -30 -27 -62 -100 -87 -33 -12 -91
-32 -129 -47 l-69 -26 -22 21 c-29 27 -35 26 -68 -15 -25 -32 -57 -47 -57 -27
0 11 71 78 98 92 75 38 278 106 329 109 6 1 15 -9 18 -20z m-1029 -23 c19 -15
19 -15 -1 -35 -35 -36 -265 -111 -265 -87 0 15 39 82 57 98 12 11 48 21 98 26
44 5 83 10 86 11 3 0 14 -5 25 -13z m627 -6 c-5 -20 -48 -60 -64 -60 -17 0 -9
24 18 52 32 33 53 37 46 8z m647 2 c0 -13 -80 -62 -100 -62 -10 0 -32 -8 -49
-17 -21 -13 -33 -15 -41 -7 -14 14 19 56 62 77 34 17 128 23 128 9z m753 -9
c10 -6 -128 -74 -198 -96 -43 -14 -52 -14 -64 -2 -17 17 -7 45 19 52 11 3 46
19 78 34 48 25 65 29 106 24 28 -4 54 -9 59 -12z m-2523 -6 c0 -29 -23 -47
-60 -47 -21 0 -41 -4 -44 -9 -3 -5 -21 -12 -40 -15 -19 -4 -40 -14 -47 -23
-13 -15 -10 -16 36 -10 28 4 60 9 73 13 34 10 28 -14 -22 -83 -42 -57 -49 -63
-113 -81 -151 -45 -233 -65 -239 -59 -10 9 14 35 39 42 125 36 217 70 217 80
0 20 -10 23 -43 15 -78 -20 -87 -20 -87 -7 0 11 126 132 174 166 32 24 156 37
156 18z m1935 -17 c0 -17 -109 -79 -140 -80 -22 0 -103 -29 -150 -54 -16 -9
-47 -16 -67 -16 -20 0 -40 -4 -43 -10 -10 -15 -35 -12 -35 5 0 17 37 34 160
75 47 15 119 44 160 64 77 37 115 43 115 16z m-1735 -6 c0 -22 -90 -136 -103
-131 -7 2 -13 27 -14 56 -1 53 -1 53 40 72 51 23 77 24 77 3z m1912 -9 c0 -5
-15 -14 -35 -20 -19 -5 -44 -18 -54 -27 -11 -10 -24 -18 -30 -18 -5 0 -30 -14
-56 -31 -37 -24 -50 -28 -66 -20 -17 9 -23 6 -41 -20 -17 -22 -29 -29 -48 -27
-14 2 -27 8 -29 13 -4 14 90 65 120 65 14 0 48 16 77 35 29 19 62 35 74 35 12
0 31 7 42 15 21 16 45 16 46 0z m528 -30 c14 -17 5 -36 -15 -28 -8 3 -15 0
-15 -6 0 -6 -11 -18 -25 -27 -23 -15 -27 -15 -50 0 -34 22 -32 32 13 55 45 24
75 26 92 6z m-2615 -65 c-20 -41 -34 -60 -47 -60 -10 0 -18 5 -18 10 0 16 81
122 88 116 3 -4 -7 -33 -23 -66z m1465 55 c0 -21 -76 -55 -125 -55 -34 0 -37
2 -25 14 15 14 112 53 138 55 6 1 12 -6 12 -14z m-3400 -9 c0 -8 -20 -22 -45
-32 -25 -9 -55 -25 -67 -35 -12 -11 -36 -19 -55 -19 -19 0 -44 -5 -55 -11 -16
-9 -19 -8 -16 2 2 7 49 31 104 52 54 21 103 43 109 48 13 13 25 11 25 -5z
m4064 -32 c34 -33 10 -65 -41 -57 -27 4 -33 10 -33 29 0 16 8 28 23 34 31 12
34 12 51 -6z m292 1 c4 -8 3 -27 0 -41 -6 -23 -11 -26 -38 -20 -53 11 -75 46
-29 46 10 0 24 7 31 15 16 19 29 19 36 0z m-1437 -47 c-39 -49 -74 -72 -96
-64 -24 9 82 115 109 109 16 -5 15 -9 -13 -45z m1763 40 c36 -29 28 -44 -35
-73 -34 -15 -95 -42 -135 -61 -40 -19 -79 -34 -87 -34 -8 0 -32 -9 -52 -20
-20 -10 -40 -17 -45 -14 -5 3 -15 1 -23 -6 -7 -6 -49 -28 -93 -49 -68 -34 -80
-37 -88 -23 -12 18 -34 8 -34 -16 0 -9 -17 -28 -36 -40 -31 -20 -41 -22 -62
-13 -22 11 -24 10 -19 -9 4 -16 -3 -24 -31 -37 -21 -9 -50 -27 -65 -40 -16
-13 -34 -23 -41 -23 -18 0 -66 -24 -66 -32 0 -5 -4 -8 -9 -8 -5 0 -7 9 -4 21
5 18 96 69 124 69 13 0 67 61 74 83 4 9 13 17 21 17 8 0 14 5 14 11 0 19 127
69 174 69 37 0 48 5 65 28 12 15 25 32 30 38 5 6 46 25 92 43 46 18 114 46
152 62 37 16 72 29 78 29 6 0 22 9 36 20 30 23 43 25 65 8z m-2362 -12 c0 -22
-37 -44 -115 -67 -38 -12 -89 -27 -112 -34 -68 -21 -68 9 -2 56 16 11 66 28
111 39 103 23 118 24 118 6z m500 -22 c0 -4 -19 -26 -42 -50 -33 -34 -45 -41
-59 -33 -26 13 -7 51 34 72 33 16 67 22 67 11z m-1394 -46 c-3 -17 -14 -40
-23 -50 -17 -19 -89 -45 -99 -35 -7 7 103 117 118 117 7 0 8 -12 4 -32z m2474
-4 c0 -7 -10 -24 -22 -37 -18 -20 -36 -26 -85 -31 -34 -3 -65 -2 -68 3 -7 13
5 41 19 41 6 0 38 13 71 29 60 28 85 27 85 -5z m-1240 7 c0 -4 -19 -29 -43
-55 -31 -33 -51 -46 -70 -46 -15 0 -27 5 -27 11 0 16 53 63 92 82 38 19 48 21
48 8z m448 -3 c-5 -13 -56 -33 -65 -24 -3 3 -3 12 0 21 8 18 71 22 65 3z
m-3022 -13 c9 -22 -14 -45 -46 -45 -34 0 -90 -19 -90 -30 0 -17 20 -20 65 -10
59 13 88 0 83 -38 -3 -24 -8 -28 -57 -35 -30 -4 -59 -11 -65 -16 -6 -5 -44
-25 -83 -45 -70 -35 -74 -36 -98 -20 -24 16 -29 28 -56 137 -15 63 -3 77 66
77 28 0 73 -1 100 -1 28 0 75 9 105 20 68 24 69 24 76 6z m338 -33 c-68 -90
-80 -102 -101 -102 -13 0 -23 3 -23 7 0 4 30 38 67 75 70 70 103 82 57 20z
m1556 19 c0 -13 -24 -31 -42 -31 -22 0 -23 8 -2 31 15 16 44 16 44 0z m-4953
-8 c28 -16 99 -79 300 -267 34 -32 83 -73 108 -90 25 -17 70 -48 100 -69 30
-21 55 -42 55 -48 0 -5 -17 -7 -37 -4 -65 8 -361 16 -513 13 -251 -5 -746 -1
-1315 10 -302 6 -559 11 -570 11 -11 0 -90 -1 -175 -2 l-156 -2 -31 30 c-84
82 -145 158 -133 165 7 4 60 11 119 15 58 3 137 11 174 16 37 5 111 9 165 10
53 0 149 6 212 14 63 8 250 16 415 19 381 7 590 31 840 97 164 43 383 97 395
98 8 1 29 -7 47 -16z m6507 1 c23 -9 20 -34 -4 -34 -13 0 -20 7 -20 20 0 22 1
23 24 14z m-1674 -29 c0 -8 -15 -24 -32 -35 -58 -35 -78 -20 -33 25 27 28 65
33 65 10z m634 3 c-15 -26 -48 -58 -61 -58 -19 0 -16 11 14 42 27 28 61 39 47
16z m2619 -19 c53 -17 120 -45 149 -63 70 -41 128 -118 128 -169 0 -21 -6 -40
-12 -42 -7 -3 -38 2 -68 10 -30 9 -84 23 -119 31 -35 8 -84 23 -109 34 -56 25
-69 25 -77 1 -9 -29 -31 -43 -88 -56 -50 -11 -53 -14 -88 -75 -31 -55 -35 -70
-32 -114 7 -87 14 -84 38 13 23 95 33 111 73 111 16 0 22 -6 22 -21 0 -11 19
-42 41 -67 42 -47 86 -129 75 -140 -3 -3 -46 -6 -94 -6 -63 -1 -94 3 -106 13
-13 11 -22 12 -42 2 -31 -14 -154 -15 -154 -1 0 6 9 10 19 10 38 0 52 111 18
138 -7 5 -27 13 -44 17 -33 7 -55 26 -37 32 27 10 36 22 29 39 -4 11 -9 35
-10 54 -3 55 33 93 144 149 53 26 128 66 166 89 39 22 73 41 76 41 4 1 50 -13
102 -30z m-4483 2 c0 -12 -11 -23 -31 -30 -40 -14 -36 -15 -50 10 -14 27 1 39
49 39 25 0 32 -4 32 -19z m1498 -13 c2 -12 -3 -18 -16 -18 -22 0 -46 23 -35
34 13 13 48 1 51 -16z m1802 -13 c0 -8 -7 -15 -15 -15 -8 0 -15 7 -15 15 0 8
7 15 15 15 8 0 15 -7 15 -15z m-2222 -7 c-6 -18 -28 -21 -28 -4 0 9 7 16 16
16 9 0 14 -5 12 -12z m1057 -24 c-20 -15 -37 -14 -42 2 -5 15 40 34 52 22 7
-6 3 -14 -10 -24z m-2527 14 c-2 -6 -19 -23 -38 -37 -35 -27 -33 -14 3 27 22
24 41 30 35 10z m2748 -9 c3 -5 -6 -9 -20 -9 -16 0 -26 6 -26 14 0 15 36 11
46 -5z m654 -4 c0 -21 -5 -25 -30 -25 -22 0 -30 5 -30 18 0 25 9 32 37 32 18
0 23 -5 23 -25z m-1750 -5 c0 -24 -34 -60 -56 -60 -29 0 -30 10 -3 44 20 26
59 36 59 16z m728 -21 c-12 -16 -24 -25 -26 -19 -4 12 26 50 40 50 5 0 -2 -14
-14 -31z m596 15 c14 -37 -56 -67 -75 -33 -8 16 -6 19 10 19 11 0 26 7 33 15
17 19 24 19 32 -1z m-917 -20 c2 -6 -8 -16 -21 -22 -32 -14 -48 5 -20 25 20
14 36 13 41 -3z m213 -4 c0 -13 -7 -20 -20 -20 -25 0 -26 16 -2 29 23 14 22
14 22 -9z m318 -27 c-11 -12 -25 -20 -29 -17 -16 9 -9 33 13 48 32 22 44 -2
16 -31z m142 37 c0 -5 -4 -10 -10 -10 -5 0 -10 5 -10 10 0 6 5 10 10 10 6 0
10 -4 10 -10z m-808 -25 c-5 -29 -33 -48 -65 -43 -31 4 -27 25 8 48 43 28 63
26 57 -5z m1655 -22 c3 -7 -20 -24 -54 -39 -32 -14 -85 -39 -118 -55 -33 -15
-96 -44 -140 -64 -44 -20 -91 -47 -103 -61 -26 -27 -49 -28 -65 -2 -8 12 -7
21 3 33 22 27 178 97 199 90 14 -4 21 0 26 15 7 23 41 44 60 37 7 -3 17 -1 23
5 5 5 31 10 56 10 42 1 46 3 46 25 0 21 4 24 32 21 17 -2 33 -9 35 -15z
m-3212 -36 c28 -1 55 -7 60 -14 6 -6 38 -17 73 -23 35 -6 89 -22 120 -35 31
-13 118 -41 192 -61 74 -21 139 -41 144 -45 12 -10 -62 -29 -153 -39 -42 -5
-139 -18 -216 -29 -77 -11 -192 -27 -255 -37 -63 -9 -153 -24 -200 -34 -47
-10 -116 -22 -155 -25 -38 -4 -122 -14 -185 -22 -131 -18 -389 -27 -408 -14
-16 9 -8 22 107 174 40 54 90 109 110 122 35 23 230 79 301 88 32 3 348 0 465
-6z m2295 -22 c-13 -16 -50 -21 -50 -6 0 5 10 15 23 24 26 18 46 5 27 -18z
m-690 -16 c0 -5 -4 -9 -10 -9 -5 0 -10 7 -10 16 0 8 5 12 10 9 6 -3 10 -10 10
-16z m925 11 c-3 -6 -19 -17 -36 -25 -23 -12 -29 -13 -29 -2 0 7 5 18 12 25
15 15 62 16 53 2z m-852 -66 c12 -13 -26 -54 -49 -54 -24 0 -30 15 -16 36 12
19 53 30 65 18z m-7777 -46 c41 -44 64 -92 64 -133 0 -67 -10 -73 -72 -46 -88
39 -127 50 -256 72 -93 16 -125 26 -132 39 -8 15 -4 19 28 23 39 5 304 75 311
82 6 7 34 -11 57 -37z m10784 13 c88 -34 87 -32 55 -88 -42 -71 -119 -143
-154 -143 -53 0 -181 117 -181 166 0 7 25 15 61 19 61 7 96 -2 183 -47 21 -11
39 1 28 18 -4 7 -37 25 -74 42 -45 21 -68 36 -68 48 0 14 7 16 48 11 26 -3 72
-15 102 -26z m-1630 -5 c0 -15 -75 -52 -124 -61 -57 -11 -42 8 37 46 73 35 87
37 87 15z m-1500 -10 c0 -23 -58 -86 -79 -86 -16 0 -21 31 -10 53 27 53 89 76
89 33z m2280 -21 c13 -14 28 -25 34 -25 17 0 66 -53 66 -71 0 -32 -46 -58 -93
-52 -23 3 -49 11 -57 18 -8 7 -38 24 -66 38 -66 34 -80 50 -66 82 11 24 31 30
118 33 32 2 46 -3 64 -23z m1245 -10 c90 -19 180 -41 202 -49 21 -7 65 -16 98
-20 36 -4 80 -18 110 -35 27 -15 77 -38 110 -51 33 -13 78 -34 101 -47 40 -23
71 -63 61 -80 -3 -5 -41 -34 -84 -65 -82 -59 -187 -115 -321 -171 -44 -19 -94
-44 -110 -56 -17 -11 -37 -21 -46 -21 -9 0 -42 -9 -74 -20 -141 -50 -276 -69
-537 -76 -138 -3 -288 -8 -335 -10 -257 -12 -300 -15 -355 -24 -33 -5 -181
-14 -329 -20 -148 -6 -272 -13 -276 -15 -4 -2 -103 -7 -221 -11 -118 -3 -241
-7 -274 -9 -33 -1 -197 -8 -365 -15 -307 -12 -378 -22 -368 -52 3 -9 27 -13
79 -12 164 2 424 15 604 29 105 8 251 17 325 19 74 3 190 8 256 12 120 7 122
7 129 -15 10 -31 2 -36 -68 -38 -34 -1 -105 -6 -157 -10 -52 -4 -133 -6 -180
-4 -46 1 -139 -3 -206 -9 -106 -10 -126 -10 -152 4 -28 14 -30 14 -35 -3 -3
-15 -23 -19 -118 -29 -230 -24 -387 -32 -509 -28 -68 3 -145 1 -169 -5 -65
-14 -133 -17 -546 -23 -366 -6 -424 -7 -905 -26 -135 -6 -535 -10 -888 -11
-567 0 -647 2 -667 15 -30 20 -59 20 -75 1 -7 -8 -16 -13 -19 -10 -4 2 -95 6
-202 9 -107 3 -205 9 -219 14 -14 5 -133 7 -265 4 -132 -2 -435 -5 -674 -6
-438 -1 -461 1 -461 33 0 13 94 21 250 21 134 0 146 -1 158 -20 16 -25 32 -26
32 -1 0 19 13 19 558 15 306 -2 568 -4 582 -4 367 -4 846 -3 1265 4 187 3 534
8 770 11 517 6 601 13 567 47 -8 8 -86 8 -304 -2 -207 -9 -488 -11 -958 -6
-366 3 -948 6 -1295 7 -346 1 -710 4 -808 8 -98 3 -262 3 -365 -2 -103 -4
-419 -7 -702 -7 -283 -1 -563 -5 -622 -11 -59 -5 -201 -10 -315 -10 l-208 -2
-101 46 c-56 25 -164 64 -240 85 -137 39 -160 45 -239 61 -66 14 -138 33 -175
47 -19 7 -71 23 -115 35 -70 19 -125 50 -125 68 0 9 143 39 245 51 155 18 249
31 280 37 17 3 62 7 100 10 39 2 102 8 140 13 340 41 750 73 850 65 44 -3 260
-1 480 5 343 10 823 13 1370 9 77 -1 181 2 230 6 77 6 93 4 104 -9 16 -19 44
-21 71 -4 36 23 34 -2 -4 -37 -72 -66 -27 -96 71 -47 60 31 140 52 196 52 44
1 113 33 168 80 l47 39 238 6 c132 3 270 10 308 16 83 11 103 0 44 -26 -24
-11 -63 -33 -88 -49 -25 -17 -117 -67 -205 -111 -127 -64 -161 -85 -163 -102
-4 -30 -2 -30 298 -40 337 -11 606 -8 705 6 103 16 428 41 525 41 41 0 91 5
110 10 19 5 132 14 250 20 118 6 247 14 285 19 39 5 117 14 175 20 58 6 128
16 155 21 96 18 216 20 241 4 21 -14 23 -14 33 4 9 16 25 21 88 26 222 16 328
25 428 36 61 6 126 13 145 15 19 2 62 8 95 14 33 5 105 13 160 17 55 3 116 10
135 15 38 9 219 18 505 24 377 8 634 17 730 25 67 6 118 6 155 -2 38 -7 101
-8 207 -1 149 9 153 10 190 39 50 40 151 159 185 218 21 36 33 46 53 46 15 0
100 -16 190 -35z m-1945 5 c0 -5 -4 -10 -10 -10 -5 0 -10 5 -10 10 0 6 5 10
10 10 6 0 10 -4 10 -10z m-1107 -42 c6 -40 2 -48 -24 -48 -27 0 -34 25 -15 55
22 34 33 31 39 -7z m387 15 c0 -20 -28 -53 -47 -53 -19 0 -16 23 7 48 25 26
40 28 40 5z m-254 -8 c6 -14 -33 -73 -49 -74 -4 -1 -4 11 -1 27 14 57 38 80
50 47z m144 -4 c0 -18 -42 -61 -61 -61 -25 0 -24 12 6 44 23 25 55 35 55 17z
m940 -26 c-14 -16 -60 -21 -60 -6 0 10 22 18 54 20 15 1 16 -2 6 -14z m-92 -7
c-3 -7 -31 -17 -64 -21 -32 -4 -79 -15 -104 -24 -25 -9 -61 -16 -80 -17 -19
-1 -46 -8 -60 -15 -14 -8 -36 -15 -50 -16 -14 -1 -71 -14 -128 -29 -57 -14
-131 -26 -164 -26 -83 0 -240 -20 -256 -33 -9 -7 -16 -7 -25 2 -21 21 6 45 59
54 106 17 152 25 364 67 25 4 95 16 155 24 61 9 153 22 205 30 126 18 153 19
148 4z m-2085 -24 c8 -9 -16 -55 -42 -78 -12 -11 -21 -24 -21 -31 0 -12 -51
-65 -63 -65 -14 0 -7 23 31 101 32 68 40 79 63 79 14 0 28 -3 32 -6z m240 -10
c8 -9 -30 -57 -51 -65 -9 -4 -23 -2 -29 3 -9 7 -13 7 -13 -1 0 -6 -5 -11 -10
-11 -12 0 -3 48 13 68 10 12 79 17 90 6z m77 -15 c0 -6 -14 -31 -31 -56 -22
-31 -34 -42 -42 -34 -13 13 18 87 42 101 17 9 31 4 31 -11z m113 -12 c10 -26
-114 -160 -127 -138 -3 5 5 25 19 45 14 20 25 45 25 56 0 37 12 50 45 50 18 0
35 -6 38 -13z m100 -26 c-7 -29 -89 -105 -98 -91 -4 6 2 21 12 33 11 12 27 34
36 50 20 31 58 38 50 8z m163 -16 c4 -16 -1 -36 -16 -60 -18 -29 -25 -33 -40
-25 -16 8 -18 15 -10 35 6 14 14 36 20 50 12 32 38 32 46 0z m-549 -40 c3 -10
-8 -29 -31 -51 -20 -19 -36 -41 -36 -49 0 -8 -4 -15 -10 -15 -14 0 -13 11 11
74 16 41 27 56 41 56 10 0 21 -7 25 -15z m655 -10 c0 -5 -5 -11 -11 -13 -6 -2
-11 4 -11 13 0 9 5 15 11 13 6 -2 11 -8 11 -13z m-989 -62 c4 -3 3 -11 -2 -17
-5 -6 -14 -28 -20 -48 -7 -21 -16 -38 -21 -38 -5 0 -15 -3 -24 -6 -24 -9 -19
11 17 66 32 50 38 55 50 43z m-1293 -26 c0 -16 -69 -107 -80 -107 -8 0 -20 34
-20 56 0 13 69 64 87 64 7 0 13 -6 13 -13z m660 -1 c0 -2 -7 -17 -15 -32 -8
-16 -15 -37 -15 -47 0 -41 -85 -89 -104 -59 -3 5 19 33 49 62 30 30 55 60 55
67 0 7 7 13 15 13 8 0 15 -2 15 -4z m-296 -85 c-10 -37 -25 -68 -38 -76 -24
-17 -62 -20 -71 -5 -3 6 -2 10 4 10 6 0 20 19 32 43 33 63 71 109 81 99 6 -6
3 -33 -8 -71z m1247 30 c-14 -32 -32 -44 -56 -35 -17 7 -21 34 -5 34 6 0 20
11 32 25 28 33 46 18 29 -24z m-1403 -34 c-4 -47 -9 -64 -27 -78 -22 -18 -81
-26 -94 -13 -9 10 73 124 89 124 8 0 14 9 14 21 0 12 4 17 11 13 7 -4 10 -29
7 -67z m1821 64 c16 -10 6 -31 -14 -31 -17 0 -28 17 -20 30 8 12 16 12 34 1z
m-1523 -27 c-4 -15 -15 -43 -24 -63 -14 -29 -23 -37 -50 -39 -40 -4 -40 6 -1
44 17 16 37 41 45 57 19 35 38 36 30 1z m864 3 c0 -14 -20 -37 -32 -37 -12 0
-10 24 4 38 16 16 28 15 28 -1z m-507 -39 c-10 -11 -19 -15 -21 -8 -5 15 18
41 30 34 5 -3 1 -15 -9 -26z m127 13 c0 -24 -18 -37 -32 -23 -8 8 -7 16 2 27
17 21 30 19 30 -4z m130 4 c0 -8 -7 -15 -15 -15 -16 0 -20 12 -8 23 11 12 23
8 23 -8z m354 0 c-4 -8 -10 -15 -15 -15 -5 0 -9 7 -9 15 0 8 7 15 15 15 9 0
12 -6 9 -15z m-1394 -14 c0 -11 -5 -23 -11 -27 -6 -3 -17 -22 -25 -40 -15 -37
-34 -45 -34 -16 0 20 50 102 62 102 5 0 8 -9 8 -19z m640 -9 c0 -4 -7 -18 -16
-31 -12 -16 -19 -20 -27 -12 -7 7 -5 17 8 31 18 20 35 26 35 12z m-890 -23 c7
-11 9 -31 6 -43 -5 -21 -11 -22 -103 -21 -59 0 -97 4 -97 10 2 12 141 74 166
75 10 0 22 -9 28 -21z m6288 -37 c-62 -80 -94 -111 -169 -162 -86 -59 -174
-103 -239 -120 -19 -5 -74 -20 -122 -34 -77 -21 -89 -23 -107 -9 -23 16 -28
62 -9 81 7 7 24 12 38 12 54 0 280 91 485 195 118 60 149 69 123 37z m-6156
-7 c-5 -28 -17 -39 -32 -30 -6 4 -4 16 6 31 21 31 33 31 26 -1z m-4717 -244
c39 -12 91 -28 116 -36 26 -8 59 -15 73 -15 15 0 52 -9 84 -21 31 -11 86 -28
122 -36 36 -9 77 -22 92 -29 15 -8 31 -15 35 -15 5 0 15 -6 23 -14 8 -7 34
-18 58 -24 23 -7 42 -16 42 -21 0 -6 9 -10 19 -10 27 0 33 -14 20 -44 -18 -38
-49 -33 -149 24 -127 72 -182 96 -414 174 -118 40 -212 77 -214 85 -3 8 1 11
9 8 8 -3 46 -15 84 -26z m10133 -47 c6 -60 15 -59 -497 -61 -256 -1 -506 -5
-556 -8 -160 -12 -180 -12 -192 -2 -9 6 -13 6 -13 -2 0 -15 -103 -14 -118 1
-9 9 -12 8 -12 -5 0 -9 -5 -17 -11 -17 -6 0 -9 12 -7 28 l3 27 150 12 c223 17
343 21 354 10 5 -5 16 -5 27 1 11 5 93 13 184 17 91 4 192 9 225 11 33 2 125
6 205 9 79 3 146 8 148 10 2 2 27 3 55 2 50 -2 52 -3 55 -33z m-10318 -13 c5
-11 10 -44 10 -73 0 -75 -26 -263 -45 -323 -9 -32 -13 -66 -9 -93 5 -35 2 -49
-13 -70 -11 -15 -30 -63 -43 -107 -91 -323 -187 -609 -221 -663 -16 -25 -29
-50 -29 -54 0 -5 -18 -35 -39 -68 -22 -32 -45 -75 -52 -94 -11 -30 -18 -36
-41 -36 -27 0 -29 -2 -23 -34 5 -26 1 -43 -19 -75 -14 -22 -26 -44 -26 -48 0
-3 -7 -14 -16 -24 -9 -10 -13 -23 -9 -29 9 -15 65 39 109 105 45 67 166 303
200 390 16 39 31 75 35 80 3 6 11 28 17 50 6 22 21 63 32 90 27 65 59 170 67
220 4 22 17 63 30 90 19 41 23 46 24 24 1 -14 -6 -48 -14 -75 -8 -27 -23 -94
-34 -149 -11 -55 -26 -116 -34 -135 -8 -19 -27 -80 -42 -135 -16 -55 -33 -120
-40 -145 -11 -39 -44 -108 -182 -385 -44 -87 -44 -88 -153 -80 -52 4 -98 9
-102 11 -4 3 4 21 17 41 14 20 25 41 25 48 0 7 16 32 35 56 19 24 35 51 35 60
0 8 30 71 66 138 38 71 69 142 73 169 4 26 12 56 18 67 16 28 39 100 54 165 7
30 18 69 25 86 7 18 18 56 23 85 18 107 51 209 90 284 23 42 41 83 41 90 0 7
9 35 20 60 11 26 25 89 30 139 20 176 28 228 51 297 23 70 40 85 59 50z m151
-25 c24 -8 91 -29 149 -46 58 -18 132 -45 165 -60 33 -16 80 -38 105 -49 58
-26 227 -123 263 -151 l27 -22 -5 -141 c-9 -290 -47 -567 -90 -672 -23 -56
-35 -101 -35 -137 0 -20 -9 -55 -20 -79 -11 -24 -20 -60 -20 -80 0 -21 -13
-70 -30 -110 -16 -41 -30 -82 -30 -92 0 -26 -44 -108 -72 -134 -21 -20 -39
-22 -253 -33 -126 -6 -246 -10 -265 -10 -70 3 -108 1 -253 -11 -99 -8 -151 -9
-158 -2 -14 14 23 105 67 164 19 26 34 50 34 53 0 4 15 39 34 79 31 67 86 222
116 327 7 25 25 83 40 130 50 155 83 351 73 443 -4 39 -1 70 10 99 23 66 44
206 58 386 14 181 9 174 90 148z m8717 -4 c15 -10 5 -42 -13 -42 -12 0 -25 21
-25 41 0 11 21 12 38 1z m914 -83 c58 1 90 -3 95 -12 8 -11 12 -52 31 -302 5
-60 17 -150 26 -200 10 -49 25 -124 33 -165 8 -41 21 -92 28 -114 8 -21 12
-43 9 -48 -3 -5 1 -20 10 -33 9 -13 16 -41 16 -62 0 -21 12 -85 26 -143 17
-68 27 -135 28 -190 l1 -84 -45 -9 c-25 -4 -112 -5 -195 -2 -246 10 -514 10
-606 1 l-86 -9 -9 49 c-4 27 -9 173 -10 324 -2 295 -10 461 -24 525 -5 22 -10
59 -10 81 0 23 -12 97 -27 165 -33 159 -39 215 -21 217 7 1 80 4 162 7 82 3
151 7 154 9 2 3 77 3 166 0 88 -3 200 -5 248 -5z m343 -10 c9 -14 55 -295 55
-335 0 -17 6 -47 14 -65 7 -19 19 -72 25 -119 7 -47 19 -128 27 -180 19 -125
43 -320 55 -445 12 -129 22 -189 48 -303 23 -99 20 -121 -19 -142 -33 -18
-107 21 -126 65 -22 54 -41 145 -59 280 -9 66 -20 143 -26 170 -15 75 -27 175
-38 317 -5 70 -15 136 -21 148 -6 11 -13 62 -16 113 -3 50 -9 130 -15 177 -33
290 -33 300 4 318 29 14 84 15 92 1z m-1133 -18 c19 -7 25 -20 35 -77 39 -220
63 -632 52 -879 -6 -110 -7 -228 -4 -263 7 -68 4 -73 -56 -76 l-31 -1 -2 140
c-4 205 -18 452 -26 466 -4 6 -13 9 -18 5 -11 -7 -13 -74 -11 -454 0 -188 -5
-211 -45 -190 -11 6 -22 12 -24 13 -1 1 4 17 12 36 11 27 15 103 17 354 2 352
2 330 -3 502 -3 107 2 146 16 132 2 -2 8 -60 13 -128 9 -138 23 -164 43 -80
11 44 10 84 -5 238 -9 102 -21 198 -25 212 -6 19 -4 31 8 43 19 19 23 19 54 7z
m968 -7 c0 -9 -5 -14 -12 -12 -18 6 -21 28 -4 28 9 0 16 -7 16 -16z m-7748
-10 c15 -14 20 -15 34 -4 13 12 17 11 25 -1 12 -19 11 -26 -3 -32 -7 -2 -218
-5 -468 -6 -504 -1 -627 -6 -763 -31 -37 -7 -69 -11 -72 -9 -2 3 -2 15 1 26
10 39 119 50 591 59 147 3 270 7 272 10 2 2 85 4 184 4 153 0 183 -2 199 -16z
m7753 -36 c10 -28 30 -446 21 -437 -11 11 -34 181 -40 302 -4 65 -9 124 -12
132 -4 10 0 15 10 15 9 0 19 -6 21 -12z m-4372 -79 c20 -9 26 -21 31 -60 4
-26 4 -59 1 -71 -3 -13 -9 -125 -15 -250 -10 -234 -45 -493 -76 -567 -16 -38
-48 -205 -60 -309 -8 -75 -32 -113 -61 -96 -21 13 -22 39 -4 224 6 69 16 175
21 235 6 61 14 135 20 165 5 30 14 102 19 160 5 58 16 141 25 185 8 44 23 147
31 230 9 82 19 153 21 157 7 11 19 10 47 -3z m-4519 -38 c4 -5 0 -54 -8 -108
-37 -256 -48 -344 -66 -548 -26 -280 -33 -336 -55 -410 -9 -33 -26 -91 -37
-130 -22 -74 -48 -141 -104 -265 -19 -42 -34 -79 -34 -84 0 -8 -55 -128 -71
-156 -5 -8 -14 -26 -20 -40 -7 -14 -27 -54 -45 -90 -33 -64 -34 -65 -71 -63
-108 7 -111 23 -38 178 18 39 52 117 75 175 23 58 48 116 55 130 30 55 66 150
96 255 17 61 39 137 49 170 10 33 24 87 30 120 6 33 16 78 20 100 5 22 12 60
16 84 4 27 16 54 30 68 28 28 30 43 8 85 -13 25 -14 40 -5 92 13 76 28 230 31
316 1 35 4 68 7 73 7 11 103 57 120 57 6 0 14 -4 17 -9z"/>
<path d="M12065 5511 c-43 -26 -153 -144 -165 -176 -13 -33 -1 -51 37 -58 39
-7 95 49 138 139 19 41 42 77 50 80 23 9 18 34 -7 34 -13 0 -36 -8 -53 -19z"/>
<path d="M7106 4249 c-43 -51 -32 -69 14 -24 22 21 40 43 40 47 0 18 -30 6
-54 -23z"/>
<path d="M6910 4244 c-41 -28 -100 -87 -100 -101 0 -7 9 -17 19 -23 17 -9 26
-2 66 51 51 67 58 102 15 73z"/>
<path d="M7410 4200 c-19 -5 -80 -16 -135 -24 -55 -9 -138 -23 -185 -31 -111
-19 -113 -19 -105 5 10 32 -20 25 -45 -10 -27 -38 -16 -56 41 -65 21 -4 39
-11 39 -16 0 -5 12 -14 26 -19 15 -6 39 -19 54 -30 35 -25 52 -25 75 0 26 28
47 26 39 -4 -3 -13 -1 -27 6 -31 15 -9 60 22 60 42 0 9 12 36 28 60 19 31 32
42 45 39 14 -3 16 0 12 15 -5 13 -2 19 10 19 26 0 28 -27 6 -64 -15 -23 -18
-37 -11 -41 15 -9 19 -4 55 63 18 34 41 62 58 70 57 28 11 42 -73 22z m-120
-95 c-14 -16 -50 -21 -50 -6 0 6 10 17 22 25 27 19 48 5 28 -19z m-80 0 c0
-20 -58 -55 -90 -55 -24 1 -24 1 12 35 39 36 78 46 78 20z"/>
<path d="M6451 4148 c-13 -33 3 -44 33 -24 16 10 23 22 20 31 -9 23 -44 18
-53 -7z"/>
<path d="M6556 4144 c-4 -9 -4 -19 -1 -22 6 -6 35 18 35 29 0 16 -28 10 -34
-7z"/>
<path d="M6680 4124 c0 -17 22 -14 28 4 2 7 -3 12 -12 12 -9 0 -16 -7 -16 -16z"/>
<path d="M7450 4074 c-19 -14 -48 -38 -65 -54 -16 -16 -48 -35 -69 -42 -50
-16 -59 -38 -17 -38 23 0 45 13 87 50 30 28 66 55 80 60 14 6 24 18 24 30 0
11 -1 20 -2 19 -2 0 -19 -12 -38 -25z"/>
<path d="M7227 3894 c-4 -4 -7 -18 -7 -31 0 -20 5 -23 38 -22 20 0 46 4 57 9
l20 8 -20 7 c-18 6 -61 24 -76 32 -3 2 -8 0 -12 -3z"/>
<path d="M8670 2808 c-13 -5 -127 -9 -254 -9 -229 0 -231 -1 -269 -25 -21 -14
-37 -30 -35 -35 4 -12 98 -21 113 -11 6 4 17 7 25 7 8 1 71 5 140 10 69 5 203
8 298 8 165 -1 224 5 245 26 7 7 2 13 -14 19 -34 13 -221 20 -249 10z"/>
<path d="M9469 1246 c-2 -2 -84 -7 -181 -10 -109 -4 -193 -11 -220 -20 -24 -8
-76 -16 -116 -19 -76 -5 -88 -9 -77 -26 8 -14 94 -14 166 -1 30 6 131 15 224
20 94 6 225 14 293 19 68 5 132 7 142 4 22 -6 37 16 19 28 -14 8 -241 13 -250
5z"/>
<path d="M5423 1163 c-27 -5 -45 -26 -38 -44 4 -10 19 -13 53 -10 53 4 72 15
72 42 0 19 -29 23 -87 12z"/>
<path d="M7002 928 c-22 -22 -13 -27 35 -24 55 5 67 21 22 30 -42 8 -43 8 -57
-6z"/>
<path d="M6710 924 c-32 -4 -365 -23 -580 -34 -165 -8 -205 -14 -194 -31 7
-12 403 -2 464 11 25 5 155 12 288 14 233 4 274 9 258 34 -5 9 -176 13 -236 6z"/>
<path d="M5783 880 c-40 -16 -28 -40 20 -40 51 0 74 12 55 27 -21 17 -52 22
-75 13z"/>
<path d="M5150 860 c-30 -5 -85 -8 -121 -9 -76 -1 -111 -19 -93 -48 12 -20 73
-21 214 -2 47 6 108 13 137 16 52 5 78 27 51 45 -15 9 -111 8 -188 -2z"/>
<path d="M4583 853 c-20 -7 -16 -19 12 -37 19 -13 25 -13 25 -3 0 20 -23 45
-37 40z"/>
<path d="M4490 750 c-45 -7 -49 -39 -7 -53 39 -13 77 4 70 32 -6 24 -18 29
-63 21z"/>
<path d="M4200 727 c-29 -14 -32 -35 -9 -50 24 -15 174 22 174 43 0 20 -129
26 -165 7z"/>
<path d="M4605 700 c-18 -19 -18 -20 3 -20 24 0 38 18 25 31 -6 6 -16 2 -28
-11z"/>
<path d="M140 573 c-19 -1 -59 -8 -87 -15 -52 -11 -53 -12 -53 -47 0 -36 0
-37 40 -33 21 2 44 10 51 18 7 9 31 14 61 14 98 0 177 35 137 61 -13 8 -76 9
-149 2z"/>
</g>
</svg>
