<?xml version="1.0" standalone="no"?>
<!DOCTYPE svg PUBLIC "-//W3C//DTD SVG 20010904//EN"
 "http://www.w3.org/TR/2001/REC-SVG-20010904/DTD/svg10.dtd">
<svg version="1.0" xmlns="http://www.w3.org/2000/svg"
 width="1280.000000pt" height="841.000000pt" viewBox="0 0 1280.000000 841.000000"
 preserveAspectRatio="xMidYMid meet">
<metadata>
Created by potrace 1.15, written by Peter Selinger 2001-2017
</metadata>
<g transform="translate(0.000000,841.000000) scale(0.100000,-0.100000)"
fill="#000000" stroke="none">
<path d="M1613 8390 c-56 -34 -67 -61 -60 -148 3 -42 20 -131 37 -197 23 -87
34 -156 39 -250 6 -99 13 -143 30 -185 37 -89 128 -369 144 -445 9 -38 23
-115 33 -170 25 -153 62 -302 90 -369 67 -155 108 -232 187 -352 48 -71 97
-145 109 -164 13 -19 50 -62 83 -95 33 -33 77 -81 98 -107 20 -25 53 -56 72
-68 40 -24 47 -46 13 -36 -74 23 -275 66 -304 66 -19 0 -60 10 -92 21 -31 12
-91 33 -132 46 -41 14 -88 29 -105 34 -108 36 -382 50 -470 24 -132 -37 -196
-68 -221 -104 -29 -43 -30 -61 -4 -103 11 -18 20 -48 20 -66 0 -40 24 -85 90
-172 27 -36 61 -81 74 -102 30 -43 188 -172 267 -216 30 -17 63 -40 73 -51 10
-11 35 -25 55 -32 20 -6 52 -22 71 -35 46 -30 229 -96 248 -89 8 3 30 1 49 -6
19 -6 42 -8 51 -4 26 10 -43 44 -91 45 -21 0 -64 11 -97 25 -33 14 -69 25 -80
25 -11 0 -20 5 -20 10 0 6 34 10 82 10 194 0 525 54 738 121 92 29 338 46 359
25 13 -14 9 -18 -40 -40 -30 -13 -108 -36 -174 -50 -66 -15 -154 -35 -195 -46
-41 -11 -95 -22 -120 -24 -25 -3 -99 -10 -165 -16 -134 -13 -153 -17 -139 -29
15 -14 320 17 434 44 58 14 143 34 190 44 47 11 95 22 108 26 35 11 27 -10
-19 -49 -56 -48 -163 -90 -289 -116 -58 -11 -142 -30 -188 -41 -59 -14 -98
-18 -135 -13 -47 6 -50 5 -37 -9 16 -17 149 -61 217 -72 24 -4 45 -11 48 -15
7 -12 -167 -103 -245 -129 -36 -12 -80 -30 -98 -41 -28 -17 -32 -23 -22 -35 9
-11 17 -12 30 -5 10 6 26 10 35 10 16 0 16 -2 1 -24 -10 -17 -12 -27 -5 -31
11 -7 49 22 49 38 0 27 44 66 98 86 33 11 99 48 148 81 82 56 125 72 138 52
13 -22 -67 -178 -126 -245 -18 -21 -89 -73 -157 -115 -130 -81 -157 -106 -131
-122 10 -6 25 1 53 26 21 19 50 40 65 47 25 11 72 44 149 103 58 44 150 183
173 261 13 41 13 41 69 48 101 11 256 22 264 18 4 -3 -23 -27 -60 -53 -86 -62
-284 -262 -370 -375 -46 -61 -119 -191 -157 -281 -45 -107 -114 -380 -125
-496 -5 -51 -16 -111 -24 -133 -8 -22 -20 -78 -26 -124 -7 -47 -24 -114 -37
-150 -14 -36 -40 -110 -59 -164 -18 -54 -40 -106 -49 -116 -9 -10 -16 -21 -16
-26 0 -17 -94 -172 -127 -208 -18 -21 -41 -54 -50 -73 -15 -31 -16 -36 -1 -50
24 -24 48 -10 101 58 36 47 47 68 42 85 -4 17 -1 23 12 23 11 0 29 20 46 48
15 26 44 70 65 98 52 72 249 257 362 340 87 64 119 84 235 148 22 13 94 54
160 93 66 39 176 96 245 128 108 50 282 158 330 205 9 8 40 34 70 57 92 70
202 183 279 286 40 53 77 97 83 97 5 0 7 -12 4 -27 -3 -16 -8 -47 -11 -70 -10
-64 -62 -122 -264 -291 -28 -24 -49 -48 -46 -53 9 -14 24 -11 42 11 42 49 44
5 3 -69 -32 -58 -36 -71 -20 -71 18 0 60 75 80 140 17 57 29 74 94 139 42 41
78 72 81 70 3 -3 -2 -25 -10 -49 -8 -23 -15 -59 -15 -80 0 -113 -121 -310
-224 -362 -22 -11 -53 -31 -68 -43 -15 -13 -50 -28 -78 -35 -42 -10 -64 -25
-133 -91 -46 -43 -88 -88 -94 -101 -6 -13 -30 -62 -53 -110 -23 -48 -39 -92
-35 -98 10 -16 91 -12 105 5 7 9 10 29 7 48 -2 17 1 58 7 90 10 51 18 64 78
122 52 50 77 67 111 75 53 11 206 117 246 168 66 86 74 94 81 80 10 -17 -4
-138 -24 -215 -44 -170 -67 -369 -55 -467 29 -223 63 -353 129 -486 15 -30 30
-75 34 -100 4 -25 15 -59 26 -75 11 -17 20 -36 20 -42 0 -7 25 -53 56 -103 66
-106 153 -180 244 -206 30 -9 71 -25 91 -35 36 -18 38 -18 80 2 91 43 164 141
191 254 5 22 21 55 35 73 38 50 51 106 45 191 -5 80 7 91 29 23 11 -35 74
-162 102 -207 6 -11 33 -43 58 -71 26 -28 56 -69 68 -92 14 -28 39 -53 74 -75
77 -50 126 -83 187 -128 64 -48 137 -86 235 -123 102 -40 136 -55 264 -118
121 -59 202 -81 281 -74 25 2 90 7 145 11 68 5 176 26 339 66 131 32 258 59
281 59 55 0 290 81 322 112 32 29 53 70 53 101 0 31 -89 212 -125 255 -15 18
-44 41 -64 52 -20 10 -56 40 -80 67 -68 78 -74 83 -88 83 -17 0 -16 -5 3 -35
36 -55 -11 -16 -196 162 -189 184 -305 311 -294 322 3 3 30 -21 59 -55 30 -33
97 -96 149 -138 52 -42 98 -86 101 -97 4 -11 17 -27 31 -35 13 -9 33 -31 45
-50 18 -30 49 -47 49 -26 0 16 -42 75 -71 99 -16 14 -29 29 -29 34 0 11 -42
49 -134 123 -34 27 -81 72 -106 101 -62 73 -127 125 -156 125 -32 0 -31 -6 11
-65 53 -75 176 -204 528 -556 174 -174 317 -324 317 -332 0 -30 -12 -47 -34
-47 -14 0 -45 28 -95 88 -41 48 -141 152 -222 232 -95 94 -177 187 -233 263
-47 64 -118 152 -158 195 -39 42 -105 119 -147 171 -41 52 -76 90 -79 83 -5
-16 87 -138 199 -262 52 -58 134 -159 183 -225 55 -75 141 -172 230 -260 174
-172 306 -312 306 -324 0 -38 -148 -111 -223 -111 -54 0 -251 -40 -387 -79
-129 -37 -207 -50 -345 -57 -139 -6 -141 -6 -235 26 -52 17 -116 44 -142 60
-58 36 -184 95 -222 104 -78 19 -274 128 -361 201 -27 23 -67 48 -87 54 -29 9
-42 22 -58 56 -12 24 -45 74 -74 110 -67 84 -125 189 -158 285 -29 86 -62 258
-53 280 3 9 -4 42 -15 75 -12 33 -34 104 -50 158 -16 54 -33 104 -39 111 -15
18 -60 150 -72 211 -28 137 -39 209 -39 248 0 23 -7 62 -16 86 -8 25 -18 74
-21 110 -3 36 -10 75 -16 86 -6 11 -14 40 -18 65 -10 66 -48 251 -54 260 -3 4
-12 76 -21 159 l-15 151 82 81 c79 78 83 81 91 58 13 -34 29 -257 28 -389 -1
-133 6 -210 26 -298 8 -34 14 -86 14 -115 -2 -59 13 -197 30 -272 11 -54 19
-99 51 -305 12 -74 25 -139 30 -145 12 -12 12 -10 -6 92 -13 75 -40 358 -62
637 -6 73 -5 79 12 73 15 -6 16 -3 10 30 -21 110 -23 148 -9 159 20 16 17 31
-6 44 -11 6 -20 17 -20 25 0 18 12 19 29 3 10 -11 11 -8 7 12 -3 14 -13 81
-22 150 -11 88 -20 129 -32 137 -11 9 -12 13 -3 13 10 0 12 21 10 90 -4 94 8
121 26 59 5 -19 18 -47 28 -62 9 -14 17 -30 17 -34 0 -4 18 -42 40 -84 26 -50
47 -109 59 -169 19 -92 37 -138 25 -63 -7 48 11 68 21 22 4 -17 13 -33 21 -36
8 -3 14 -10 14 -17 0 -13 14 -41 85 -166 88 -156 127 -241 121 -266 -4 -13 2
-49 13 -81 69 -210 101 -334 126 -488 27 -166 30 -178 44 -183 9 -3 11 2 8 14
-3 11 -9 44 -12 74 -8 66 -84 371 -131 529 -37 122 -40 161 -6 95 26 -50 63
-181 97 -339 14 -66 30 -138 35 -160 6 -22 19 -92 30 -155 41 -236 50 -280 71
-335 28 -77 43 -57 20 25 -20 68 -37 143 -71 320 -11 58 -34 168 -51 245 -48
225 -51 237 -45 242 3 3 27 -30 55 -73 27 -44 62 -91 77 -106 16 -16 30 -44
35 -70 22 -118 50 -246 69 -312 11 -41 24 -129 29 -202 7 -103 15 -146 39
-214 16 -47 40 -114 52 -150 12 -36 37 -99 56 -140 19 -41 52 -122 74 -179 23
-57 50 -120 60 -140 17 -33 19 -34 20 -11 0 27 -15 68 -103 275 -128 301 -162
413 -175 585 -7 80 -18 144 -30 176 -11 27 -27 95 -36 149 -9 55 -18 114 -21
130 -6 28 -2 25 53 -33 53 -57 61 -71 80 -145 12 -45 37 -141 56 -213 38 -145
56 -234 47 -234 -9 0 -35 89 -95 318 -51 193 -60 221 -71 211 -16 -17 186
-701 219 -739 12 -14 28 -47 34 -73 17 -66 43 -125 49 -109 3 7 -13 66 -35
130 -22 64 -45 136 -51 160 -7 23 -15 42 -19 42 -4 0 -8 21 -8 48 -1 43 -38
200 -96 405 -23 84 -19 103 14 70 24 -24 37 -57 78 -191 15 -51 37 -117 48
-145 10 -29 24 -74 31 -102 12 -55 101 -337 161 -510 52 -153 106 -277 124
-287 26 -15 20 7 -43 146 -32 72 -69 167 -81 211 -12 44 -45 145 -72 225 -28
80 -63 190 -79 245 -47 167 -78 269 -91 292 -6 13 -8 26 -5 29 14 14 53 -26
65 -67 8 -24 43 -111 79 -194 58 -134 116 -277 168 -417 10 -27 24 -48 31 -48
9 0 3 25 -20 82 -94 236 -119 295 -130 313 -15 24 -60 136 -92 227 -15 46 -19
70 -12 74 15 10 42 -30 74 -106 15 -36 109 -230 210 -432 100 -201 199 -405
219 -452 39 -89 65 -125 65 -89 0 28 -75 191 -320 698 -110 229 -190 402 -190
414 0 6 -4 11 -10 11 -12 0 -13 47 -1 54 10 7 180 -254 321 -494 99 -169 341
-510 362 -510 19 0 3 27 -72 121 -110 136 -191 258 -284 424 -43 77 -130 217
-192 311 -63 95 -114 176 -114 180 0 5 -10 14 -22 19 -13 6 -36 31 -53 56 -16
25 -47 65 -68 88 -34 38 -63 89 -54 97 3 3 152 -164 314 -351 58 -67 300 -421
336 -491 14 -28 42 -70 127 -194 63 -91 171 -262 190 -300 31 -62 102 -159
118 -160 18 0 15 14 -8 35 -11 10 -20 22 -20 27 0 25 -197 343 -308 498 -34
47 -76 112 -93 145 -18 33 -47 78 -64 100 -18 22 -64 90 -103 150 -102 159
-149 217 -320 403 -166 180 -205 233 -287 393 -31 61 -65 113 -80 123 -14 9
-25 21 -25 26 0 8 -63 139 -118 245 -101 194 -188 353 -200 368 -9 9 -12 20
-9 24 11 10 46 -27 100 -107 28 -41 77 -106 110 -145 33 -38 90 -116 128 -172
38 -56 82 -117 98 -135 15 -18 40 -55 54 -83 14 -27 50 -86 81 -130 30 -44 72
-106 93 -138 21 -32 67 -95 103 -138 36 -44 82 -101 102 -127 91 -115 186
-228 227 -268 64 -64 84 -56 25 10 -27 30 -68 80 -92 113 -51 70 -96 128 -163
208 -118 142 -169 206 -169 215 0 6 -15 27 -34 47 -18 21 -36 48 -40 60 -4 12
-21 39 -38 60 -17 21 -38 54 -47 73 -19 42 -44 77 -91 134 -48 57 -73 94 -103
151 -14 28 -58 85 -97 128 -51 55 -92 114 -142 205 -38 70 -83 144 -99 164
-16 20 -29 41 -29 45 0 5 42 19 93 32 189 48 309 131 422 292 l30 42 120 5
c123 4 166 15 146 35 -6 6 -55 10 -116 11 -58 0 -105 1 -105 2 0 2 20 17 45
35 30 22 42 36 35 43 -6 6 -17 5 -33 -3 -44 -24 -143 -127 -176 -184 -62 -108
-186 -194 -355 -246 -95 -29 -118 -28 -152 12 -44 50 -91 154 -78 174 6 9 43
28 82 41 57 19 76 30 87 52 8 16 15 36 15 44 0 33 68 154 100 178 28 20 216
62 325 72 39 4 102 12 142 18 l71 12 47 -38 c25 -21 57 -56 71 -77 33 -53 96
-97 150 -105 47 -7 53 -14 29 -34 -8 -7 -15 -23 -15 -36 0 -14 -14 -37 -35
-56 -23 -21 -37 -44 -39 -65 -3 -17 -9 -39 -14 -50 -16 -30 -3 -43 43 -43 24
0 46 -4 49 -9 3 -5 -10 -28 -29 -51 -19 -23 -35 -52 -35 -65 0 -13 -5 -27 -10
-30 -19 -12 2 -26 29 -20 22 5 29 1 39 -19 9 -19 8 -27 -4 -36 -8 -7 -14 -23
-14 -36 0 -19 5 -24 25 -24 23 0 24 -2 13 -25 -13 -29 3 -77 24 -74 7 1 25 -3
40 -11 23 -11 34 -10 75 3 26 9 49 14 52 12 6 -7 -20 -35 -33 -35 -22 0 -37
-17 -30 -33 3 -9 14 -17 24 -17 9 0 29 -9 43 -20 14 -11 37 -20 51 -20 14 0
29 -6 33 -14 4 -8 19 -16 33 -18 21 -2 29 -14 51 -78 14 -41 36 -97 47 -123
12 -27 22 -63 22 -80 0 -47 39 -114 70 -121 14 -2 37 -8 53 -12 37 -9 35 11
-4 31 -34 18 -72 91 -82 160 -4 23 -22 88 -41 145 -19 58 -39 139 -46 180 -6
41 -15 91 -19 110 -23 97 -4 309 33 364 8 13 31 33 50 45 29 18 43 21 87 15
91 -12 241 -82 256 -120 3 -8 -5 -38 -17 -67 -15 -37 -24 -87 -31 -172 -5 -66
-13 -145 -19 -175 -16 -88 -43 -309 -47 -386 -4 -55 -1 -73 11 -83 13 -11 22
-8 55 18 45 36 51 37 108 15 48 -19 83 -13 64 10 -7 8 -24 17 -39 21 l-27 8
33 9 c34 9 41 28 18 47 -18 15 -71 4 -91 -19 -9 -10 -22 -16 -29 -14 -7 3 -19
-2 -26 -11 -23 -27 -41 -19 -36 18 3 17 12 77 21 132 8 55 20 122 25 148 6 27
10 67 10 90 0 23 7 77 15 120 8 43 15 96 15 117 0 79 89 215 158 241 16 6 51
8 82 4 l55 -7 -28 -22 c-31 -25 -35 -46 -9 -46 39 1 153 50 195 84 24 20 47
36 51 36 3 0 31 16 60 36 50 33 57 35 92 25 60 -17 119 -14 136 7 48 56 50
102 4 102 -29 0 -49 15 -44 31 3 10 21 13 69 11 35 -2 75 1 89 6 17 7 33 6 50
-3 36 -18 94 -28 119 -20 32 10 26 46 -14 89 -39 43 -41 46 -22 46 7 0 18 5
25 12 9 9 -1 19 -41 42 -93 54 -146 91 -147 100 0 4 8 5 18 1 9 -4 38 -10 64
-12 52 -6 81 8 71 34 -4 9 1 21 12 29 25 19 19 22 -48 27 -68 5 -104 30 -92
66 l7 22 28 -25 c25 -21 58 -31 157 -52 26 -5 42 14 22 27 -8 5 -30 9 -49 9
-39 0 -105 21 -121 37 -8 8 8 11 57 10 66 -2 69 -1 72 22 2 13 -2 35 -9 47
-10 20 -10 27 6 44 15 16 16 22 5 35 -10 12 -16 13 -26 4 -11 -9 -14 -7 -14 8
0 16 7 19 53 18 40 0 52 4 52 15 0 10 -11 15 -36 16 -62 2 -86 34 -26 34 17 0
38 4 46 9 22 14 3 31 -35 31 -31 0 -34 2 -34 30 0 17 -8 56 -19 88 -33 102
-34 110 -9 117 40 12 128 57 128 66 0 21 -25 18 -73 -10 -78 -44 -92 -25 -22
29 37 29 53 46 46 53 -7 7 -29 -4 -66 -33 -30 -23 -58 -40 -61 -37 -13 13 59
89 145 154 3 2 0 8 -6 14 -8 8 -31 -9 -84 -60 -40 -40 -79 -70 -88 -69 -18 4
-33 61 -26 104 6 33 37 54 81 54 14 0 40 15 62 35 l37 34 -57 1 c-32 0 -58 2
-58 5 0 17 42 47 85 61 61 21 95 42 95 60 0 19 -7 18 -47 -7 -34 -21 -159 -59
-195 -59 -10 0 -37 -13 -60 -30 -42 -31 -78 -39 -78 -19 0 15 64 96 103 131
17 15 28 31 24 34 -6 7 -27 -6 -79 -48 -30 -24 -49 -18 -27 8 23 28 90 66 106
60 8 -3 24 1 36 9 12 8 28 15 36 15 8 0 38 23 67 50 54 51 68 57 94 40 12 -8
8 -16 -25 -50 -24 -25 -33 -40 -24 -40 8 0 33 18 54 41 38 38 42 40 83 34 36
-5 48 -2 87 24 110 74 129 90 120 100 -3 2 -19 -7 -37 -21 -18 -14 -57 -37
-86 -52 -46 -23 -58 -26 -84 -17 -17 6 -48 11 -69 11 -51 0 -90 16 -96 40 -3
11 -16 23 -30 26 l-24 7 32 33 c39 40 30 44 -18 8 -64 -48 -65 -22 -2 44 l61
64 24 -23 c13 -12 24 -31 24 -41 0 -10 6 -18 13 -18 8 0 24 -11 37 -25 27 -28
75 -33 106 -11 27 20 13 28 -25 15 -30 -11 -35 -9 -57 15 -14 14 -29 26 -34
26 -6 0 -10 11 -10 24 0 20 7 25 48 35 74 19 144 55 206 105 l57 46 28 -19
c36 -26 48 -15 19 16 l-21 23 23 25 c13 14 20 28 17 32 -4 4 -24 -11 -45 -33
-47 -48 -159 -124 -183 -124 -36 0 -27 18 33 74 34 31 59 59 55 62 -3 4 -41
-25 -83 -65 -79 -74 -100 -83 -127 -53 -21 24 -7 46 68 110 114 95 160 141
144 142 -8 0 -26 -12 -40 -26 -36 -39 -166 -143 -196 -157 -22 -10 -28 -8 -44
12 -11 13 -19 29 -19 36 0 7 35 45 77 84 42 39 71 71 63 71 -7 0 -37 -22 -66
-50 -29 -27 -62 -50 -74 -50 -13 0 -24 -9 -30 -25 -10 -25 -79 -75 -104 -75
-17 0 -29 30 -21 51 3 8 38 34 77 59 75 47 148 106 148 121 0 4 -31 -15 -69
-44 -74 -56 -157 -104 -165 -96 -2 2 -6 17 -8 33 -3 31 -2 33 114 97 32 17 55
35 52 40 -3 5 -22 -2 -42 -14 -20 -13 -57 -31 -82 -42 -65 -27 -83 -45 -76
-75 4 -14 9 -53 11 -88 l5 -63 -35 -20 c-41 -25 -45 -39 -10 -39 18 0 25 -5
25 -20 0 -12 12 -26 32 -36 31 -16 31 -18 13 -28 -10 -6 -30 -22 -44 -35 l-24
-23 -18 23 c-21 28 -36 20 -20 -9 9 -18 6 -24 -21 -46 -36 -28 -33 -46 4 -22
23 15 26 14 46 -4 12 -12 22 -24 22 -28 0 -13 -57 -42 -82 -42 -18 0 -29 -9
-41 -36 -16 -33 -37 -39 -37 -10 0 8 -6 19 -13 25 -26 21 0 129 37 161 9 7 16
18 16 25 0 7 7 15 15 19 22 8 18 26 -6 26 -12 0 -34 -13 -49 -30 -29 -31 -53
-40 -44 -16 7 17 -31 40 -52 32 -9 -3 -14 1 -14 13 0 33 -32 61 -62 54 -16 -3
-28 -12 -28 -20 0 -8 -16 -29 -35 -47 -21 -20 -35 -43 -35 -57 0 -21 -1 -22
-16 -7 -14 14 -14 18 0 47 16 31 16 31 -10 42 -19 7 -37 7 -57 0 -38 -14 -53
-4 -31 20 15 17 15 19 1 25 -9 3 -26 -1 -39 -10 -12 -9 -25 -16 -29 -16 -3 0
-9 27 -13 60 -7 62 -21 75 -46 45 -16 -19 -30 -19 -30 -1 0 8 -8 16 -17 18
-10 2 -18 12 -19 23 -3 66 -3 66 -31 63 -21 -2 -28 -8 -28 -25 0 -13 -4 -24
-10 -25 -15 -4 -18 47 -5 105 10 48 9 53 -11 70 -12 9 -30 17 -40 17 -23 0
-24 13 -5 43 8 12 19 57 25 100 9 66 9 81 -5 101 -11 18 -13 33 -7 57 9 34 21
44 66 54 20 4 33 16 43 40 19 47 18 52 -17 70 -37 20 -44 14 -44 -33 0 -33 -3
-37 -37 -47 -67 -19 -93 -90 -58 -159 14 -28 17 -50 13 -99 -3 -34 -11 -69
-18 -77 -29 -36 -24 -90 9 -90 7 0 21 -9 31 -20 15 -17 17 -26 8 -53 -16 -54
22 -126 57 -107 13 7 25 0 55 -30 23 -23 49 -40 61 -40 19 0 25 -9 36 -47 13
-44 17 -48 43 -47 17 0 35 -5 40 -12 6 -7 23 -14 39 -16 25 -2 31 -9 39 -38 5
-19 13 -41 19 -47 16 -20 48 3 65 46 8 20 27 44 44 53 29 17 29 17 44 -12 11
-21 23 -30 40 -30 14 0 29 -8 35 -19 6 -13 17 -17 30 -14 25 7 25 2 0 -39 -21
-35 -27 -93 -10 -103 21 -13 10 -35 -17 -35 -14 0 -41 -11 -59 -25 -31 -24
-35 -25 -57 -10 -50 32 -169 65 -238 65 -37 0 -70 -4 -73 -9 -11 -18 25 -33
85 -36 51 -3 74 -11 137 -48 62 -35 78 -50 80 -71 3 -20 9 -26 26 -26 15 0 37
-16 62 -45 22 -25 58 -66 80 -93 75 -85 155 -205 206 -307 65 -128 85 -188 94
-274 l6 -69 -65 -99 c-55 -83 -73 -121 -103 -220 -6 -20 -18 -15 -54 22 l-34
35 33 40 c59 74 72 119 74 248 2 103 -1 123 -21 165 -13 26 -29 47 -37 47 -19
0 -19 -4 1 -98 13 -65 14 -91 4 -172 -14 -108 -15 -110 -84 -204 -68 -90 -194
-175 -316 -210 -132 -38 -275 -56 -407 -51 -70 2 -144 8 -163 13 -30 7 -34 12
-32 33 2 13 5 58 7 99 l4 75 73 6 c40 3 83 10 95 17 12 7 33 12 46 12 48 0
214 60 258 94 55 41 86 58 124 66 21 4 31 12 33 28 2 15 -2 22 -12 22 -9 0
-19 12 -22 27 -10 39 21 302 48 416 9 36 9 50 0 59 -8 8 -15 9 -22 2 -21 -21
-70 -351 -70 -470 0 -47 -3 -53 -37 -77 -20 -14 -40 -24 -43 -22 -12 7 -28
114 -38 250 -10 137 -3 287 15 320 6 11 13 36 17 56 3 19 17 51 31 69 14 19
25 38 25 42 0 14 -22 9 -42 -9 -10 -9 -21 -14 -24 -11 -8 8 -24 122 -29 203
-4 69 -18 95 -51 95 -8 0 -10 12 -7 40 5 36 3 40 -23 50 -16 6 -37 19 -46 27
-10 9 -18 12 -18 8 0 -4 -9 0 -19 9 -25 23 -43 12 -35 -22 5 -24 4 -25 -9 -10
-13 16 -15 16 -32 0 -17 -16 -17 -16 -11 3 13 36 11 40 -16 38 -22 -1 -28 3
-28 18 0 33 -29 35 -56 3 l-25 -29 6 33 c6 27 4 32 -12 32 -10 0 -28 -7 -40
-15 -21 -15 -53 -11 -53 6 0 15 -64 -4 -78 -23 -17 -23 -38 -23 -69 2 -25 19
-27 19 -45 4 -20 -19 -25 -18 -30 11 -5 33 52 33 91 0 26 -23 32 -24 37 -11
18 48 -112 102 -146 61 -7 -9 -29 -15 -55 -15 -23 0 -48 -6 -54 -13 -6 -8 -30
-19 -53 -26 -60 -18 -138 -78 -155 -118 -18 -43 -11 -53 37 -53 48 0 56 -12
33 -47 -57 -86 -73 -123 -87 -208 -12 -69 -12 -70 -56 -91 -42 -20 -86 -69
-120 -133 -7 -14 -17 -54 -21 -90 -5 -36 -13 -91 -19 -121 -5 -30 -14 -82 -20
-115 -5 -33 -14 -80 -20 -105 -32 -143 -36 -153 -58 -161 -17 -6 -24 -4 -32
12 -6 11 -8 28 -5 38 9 29 -20 51 -56 44 -24 -4 -28 -3 -23 10 3 8 12 18 20
21 18 7 18 30 -1 46 -12 10 -12 17 2 52 15 37 15 41 -4 66 -10 14 -25 28 -31
30 -16 5 -15 -29 3 -52 12 -16 12 -23 -8 -57 -19 -34 -20 -41 -7 -49 12 -8 13
-13 3 -30 -7 -11 -13 -29 -13 -39 0 -11 -5 -31 -11 -45 -9 -20 -8 -32 10 -68
27 -56 56 -88 81 -88 14 0 20 7 20 23 0 29 18 47 46 47 22 0 23 -2 21 -119
l-2 -119 -86 -16 c-48 -9 -107 -16 -132 -16 -47 0 -185 -30 -258 -55 -65 -23
-72 -21 -64 23 11 62 76 215 104 246 14 15 63 60 109 98 96 81 117 108 108
143 -5 18 -13 25 -32 25 -38 0 -64 -18 -64 -43 0 -21 4 -23 38 -19 44 5 47 9
-87 -103 -51 -43 -106 -96 -122 -118 -33 -45 -79 -181 -79 -232 0 -46 -9 -65
-31 -65 -57 0 -198 -111 -185 -145 12 -32 45 -16 71 35 30 59 70 82 105 60 12
-7 12 -12 -4 -28 -9 -11 -28 -51 -40 -88 -25 -72 -25 -72 -108 -88 -42 -8 -51
4 -15 19 12 6 21 15 20 20 -4 17 -41 17 -65 1 -39 -28 -54 -20 -92 49 -20 35
-41 67 -46 70 -22 14 -7 -31 36 -105 30 -53 44 -88 42 -106 -3 -23 -12 -12
-72 82 -58 93 -66 111 -56 127 14 24 6 34 -15 17 -9 -7 -19 -10 -22 -6 -4 4 6
18 22 31 34 27 28 32 -14 11 -45 -24 -55 -41 -35 -61 39 -39 144 -202 144
-224 0 -7 17 -34 38 -60 37 -45 92 -132 92 -147 0 -16 -45 35 -98 111 -31 44
-63 87 -72 95 -22 23 -51 65 -90 133 -45 78 -68 88 -41 18 22 -60 112 -204
196 -316 33 -44 77 -106 99 -137 34 -52 42 -58 72 -58 19 0 34 -5 34 -11 0 -6
-8 -8 -19 -4 -30 9 -33 -9 -8 -46 13 -19 26 -42 30 -52 4 -10 39 -73 77 -139
129 -221 61 -139 -120 145 -109 170 -216 311 -230 302 -6 -4 15 -38 45 -77 30
-38 55 -74 55 -80 0 -5 20 -36 45 -68 25 -32 45 -63 45 -68 0 -24 204 -305
268 -369 38 -38 69 -92 108 -190 15 -38 35 -80 45 -95 11 -14 19 -29 19 -33 0
-18 131 -230 298 -483 82 -125 96 -201 31 -172 -25 12 -206 197 -336 345 -111
127 -234 325 -377 608 -73 144 -178 349 -235 455 -56 106 -113 220 -126 253
-13 33 -38 76 -55 95 -17 20 -44 60 -61 90 -17 30 -35 54 -41 54 -14 0 -1 -34
38 -101 25 -42 33 -65 28 -83 -9 -38 -31 -21 -44 35 -11 46 -25 67 -36 56 -3
-3 5 -34 17 -69 14 -39 20 -73 16 -89 -7 -27 -129 -159 -147 -159 -6 0 -10 42
-10 111 0 86 -3 114 -15 126 -9 8 -19 28 -22 44 -10 49 -26 47 -18 -2 9 -59 9
-167 0 -259 -5 -54 -13 -81 -28 -97 -11 -13 -24 -23 -28 -23 -4 0 -9 49 -11
110 -2 66 -8 114 -15 121 -9 9 -11 -15 -10 -102 2 -144 -2 -161 -55 -192 -24
-14 -52 -35 -63 -47 -22 -25 -20 -25 47 10 26 13 50 21 53 19 7 -8 -19 -206
-57 -427 -6 -34 -8 -76 -4 -93 3 -17 2 -49 -4 -72 -67 -295 -115 -478 -140
-527 -9 -19 -22 -57 -29 -84 -7 -27 -23 -76 -37 -109 -14 -32 -24 -71 -22 -86
l3 -26 18 32 c9 18 22 56 28 85 6 29 22 73 34 98 23 45 48 130 111 375 45 175
45 176 58 172 17 -6 18 -114 2 -192 -8 -38 -24 -117 -35 -175 -12 -58 -30
-134 -41 -170 -39 -129 -77 -520 -51 -520 14 0 10 -25 26 195 10 133 21 219
39 288 14 53 37 155 51 225 53 258 49 247 74 250 22 4 22 2 15 -70 -5 -62 -4
-71 7 -60 9 8 14 36 14 80 0 60 -2 68 -23 77 -13 6 -25 21 -29 35 -3 14 -11
44 -19 67 -18 56 -21 170 -6 273 6 47 16 114 21 150 5 36 15 103 21 150 9 71
15 89 36 108 27 24 49 28 59 12 4 -6 13 -74 21 -153 8 -78 21 -169 29 -202 12
-52 11 -72 -2 -145 -8 -47 -23 -112 -33 -145 -20 -64 -19 -75 4 -56 12 10 18
7 32 -15 21 -32 26 -135 6 -142 -7 -2 -12 -22 -12 -47 0 -54 8 -75 25 -69 10
4 11 -3 4 -34 -9 -41 -6 -100 11 -232 12 -98 25 -464 24 -660 -2 -138 -5 -168
-32 -270 -33 -125 -44 -221 -26 -227 16 -5 24 19 35 112 6 44 19 118 31 165
19 78 20 104 14 305 -3 121 -9 321 -12 445 -4 124 -10 230 -15 235 -4 6 -8 42
-7 80 1 39 -2 147 -6 240 -6 131 -5 167 4 159 8 -8 13 -57 14 -138 1 -81 6
-130 14 -138 7 -7 12 -24 12 -38 0 -14 5 -31 10 -36 7 -7 7 -20 2 -35 -16 -45
15 -618 39 -724 5 -22 12 -130 15 -240 4 -110 8 -202 10 -204 15 -16 19 39 18
235 0 123 -6 255 -12 292 -18 105 -30 267 -23 309 8 48 14 34 35 -87 9 -52 23
-122 32 -155 8 -33 22 -101 29 -152 8 -50 19 -109 24 -132 5 -22 5 -59 0 -83
-11 -60 -11 -188 1 -188 14 0 17 25 29 214 9 151 8 181 -9 265 -10 53 -23 132
-29 176 -10 77 -20 128 -36 187 -4 17 -3 28 3 28 10 0 72 -180 72 -210 0 -9
11 -38 25 -64 17 -32 27 -71 32 -124 7 -79 7 -86 -1 -162 -2 -25 -7 -88 -11
-140 -4 -57 -14 -109 -25 -130 -9 -19 -23 -56 -30 -82 -7 -26 -23 -69 -36 -94
-13 -26 -24 -53 -24 -60 0 -15 -60 -68 -102 -90 -19 -10 -42 -14 -61 -10 -44
9 -211 111 -243 149 -25 30 -124 227 -124 248 0 5 -19 54 -41 110 -23 55 -50
130 -60 167 -10 37 -31 105 -47 152 -28 79 -44 146 -62 260 -8 45 19 270 40
335 5 17 14 68 20 115 25 209 45 341 59 400 6 25 20 97 32 160 12 63 37 186
55 274 35 164 45 308 23 322 -8 5 -10 37 -6 106 5 88 3 99 -13 108 -29 16 -47
-20 -71 -146 -9 -53 -9 -65 5 -86 17 -27 13 -38 -16 -38 -31 0 -20 -16 23 -33
l41 -16 -6 27 c-16 70 -18 93 -10 119 7 25 9 21 16 -32 12 -80 13 -117 5 -139
-7 -16 -12 -15 -62 13 -30 17 -59 31 -65 31 -24 0 -5 -21 56 -61 l66 -42 -7
-45 c-10 -65 -22 -93 -39 -86 -8 3 -21 -5 -30 -18 -16 -22 -16 -21 -10 25 4
26 4 47 1 47 -4 0 -20 -26 -36 -58 -30 -60 -83 -121 -89 -103 -2 5 15 33 37
61 48 60 56 85 42 123 -8 21 -17 27 -40 27 -16 0 -33 5 -37 11 -6 10 -30 7
-69 -7 -13 -5 -15 -2 -9 20 4 18 2 26 -7 27 -31 3 -45 -5 -74 -39 -46 -57 -85
-92 -103 -92 -10 0 7 24 46 63 59 59 76 97 53 112 -13 8 -184 -193 -175 -206
4 -7 23 -9 50 -5 48 6 50 5 32 -24 -23 -36 2 -34 40 3 43 42 62 39 32 -4 -20
-27 -14 -44 12 -33 7 3 33 30 57 60 24 30 50 54 58 54 10 0 3 -14 -21 -41 -37
-41 -59 -84 -53 -102 2 -6 13 -1 26 12 29 29 40 19 19 -17 -21 -35 -10 -59 20
-43 29 15 50 15 34 -1 -19 -19 -14 -25 23 -26 27 -1 39 5 58 30 38 48 53 30
16 -20 -21 -28 -38 -42 -54 -42 -14 0 -34 -13 -50 -32 l-28 -33 8 35 7 35 -25
-23 c-25 -24 -43 -18 -26 8 18 29 10 40 -29 40 -21 0 -43 -5 -50 -12 -9 -9
-15 -9 -23 -1 -7 7 -25 9 -40 6 -22 -4 -29 -2 -29 11 0 25 -13 20 -62 -24 -47
-41 -74 -44 -36 -3 23 25 23 27 -8 37 -17 5 -40 -9 -105 -61 -45 -37 -77 -69
-70 -71 7 -2 22 5 34 15 46 41 50 40 45 -15 -6 -66 2 -80 37 -64 14 7 34 12
44 12 10 0 28 12 42 26 28 30 79 59 79 45 0 -5 -20 -27 -45 -49 -50 -44 -57
-69 -21 -78 20 -5 42 7 111 61 90 69 123 80 66 22 -18 -19 -29 -40 -26 -48 4
-10 -12 -23 -51 -42 -37 -18 -53 -32 -47 -38 6 -6 26 0 57 17 56 31 70 27 24
-8 -51 -39 -75 -49 -110 -46 -18 1 -45 -6 -60 -16 -16 -10 -28 -14 -28 -10 0
5 9 15 20 22 32 20 23 32 -24 32 -33 0 -52 -7 -74 -25 -34 -28 -52 -32 -52
-10 0 8 6 15 14 15 24 0 36 24 27 56 -7 29 -8 29 -19 7 -8 -15 -18 -20 -28
-16 -11 4 -30 -9 -59 -40 -24 -26 -48 -47 -54 -47 -18 0 6 38 62 97 l50 53
-49 -6 c-58 -8 -76 -19 -106 -64 -13 -18 -29 -35 -35 -38 -26 -8 -12 25 32 75
25 28 45 54 45 57 0 13 -23 5 -56 -20 -45 -35 -51 -27 -13 19 48 58 10 45 -48
-16 -66 -69 -80 -95 -56 -103 10 -3 36 -14 58 -25 22 -10 46 -19 53 -19 7 0
25 -11 39 -24 14 -13 32 -22 39 -19 8 3 14 -1 14 -10 0 -8 -6 -17 -13 -20 -9
-3 -9 -7 1 -19 16 -20 -11 -55 -62 -82 -41 -22 -62 -13 -29 12 12 10 33 25 45
34 20 15 21 19 8 28 -8 6 -23 8 -32 5 -62 -18 -63 -18 -50 -4 19 20 15 28 -24
44 -36 15 -38 14 -73 -11 -20 -15 -48 -39 -63 -52 -43 -40 -33 -5 11 39 42 43
38 56 -12 40 -40 -14 -124 -115 -105 -128 7 -4 23 -6 35 -5 11 2 24 -1 27 -7
4 -6 13 -8 20 -5 8 3 16 -4 19 -15 4 -15 10 -19 22 -14 11 4 21 0 27 -11 7
-13 17 -16 35 -11 22 5 24 3 18 -12 -4 -10 -7 -26 -7 -35 1 -22 -26 -24 -34
-3 -9 21 -26 19 -68 -10 -20 -14 -41 -25 -46 -25 -20 0 -9 15 22 33 30 17 31
20 14 29 -10 6 -31 7 -47 4 -30 -6 -41 7 -14 18 29 11 16 28 -15 21 -19 -4
-30 -3 -30 4 0 16 -26 13 -40 -4 -7 -8 -20 -15 -29 -15 -11 1 -8 7 12 21 15
11 27 29 27 40 0 15 -7 19 -34 19 -26 0 -51 -12 -97 -47 -68 -52 -82 -73 -50
-73 12 0 21 5 21 10 0 6 5 10 12 10 9 0 9 -3 0 -12 -17 -17 -15 -41 2 -35 8 3
22 -4 33 -15 10 -12 37 -29 60 -40 23 -10 45 -27 48 -38 5 -15 12 -19 31 -14
13 3 24 4 24 1 0 -6 -124 -77 -134 -77 -16 0 -3 18 17 24 22 6 22 7 3 21 -28
21 -56 19 -83 -7 -18 -16 -23 -18 -23 -6 0 8 9 23 20 33 21 19 27 45 9 45 -6
0 -26 -12 -45 -26 -42 -32 -52 -27 -23 10 18 23 20 30 8 37 -8 5 -22 6 -32 3
-10 -3 -20 1 -23 11 -6 14 -8 14 -25 -1 -18 -16 -19 -16 -19 14 0 25 -4 32
-19 32 -29 0 -45 28 -43 73 4 58 11 77 28 77 14 0 94 115 94 135 0 6 -7 23
-15 39 -8 15 -12 32 -9 38 3 5 -1 17 -10 26 -14 16 -14 24 1 87 14 62 21 74
67 117 28 26 54 48 59 48 9 0 10 30 0 30 -3 0 -15 -7 -25 -17 -35 -32 -29 -4
19 84 45 81 83 118 83 79 0 -24 13 -19 46 15 16 17 44 39 62 51 35 22 43 43
12 33 -23 -7 -28 10 -5 19 8 3 15 12 15 21 0 20 -6 19 -30 -5 -25 -25 -48 -27
-29 -2 66 84 115 133 130 129 22 -6 122 81 115 99 -6 16 10 19 19 4 9 -15 35
8 35 30 0 24 98 86 168 106 63 19 78 12 32 -13 -42 -23 -82 -54 -77 -59 2 -2
55 21 118 52 63 31 125 61 139 67 20 8 21 11 8 14 -9 2 -39 -7 -67 -21 -52
-27 -71 -32 -71 -18 0 4 31 23 70 41 66 32 98 56 88 66 -2 2 -32 -9 -67 -25
-71 -34 -71 -34 -71 -19 0 17 248 132 284 131 17 -1 54 10 81 23 28 13 67 27
87 30 23 4 42 14 48 26 9 16 7 21 -17 30 -39 15 -74 5 -135 -36 -29 -19 -59
-35 -67 -35 -15 0 -135 -50 -181 -75 -14 -8 -46 -26 -72 -40 -26 -14 -62 -37
-80 -53 -71 -60 -181 -88 -392 -99 l-118 -6 15 30 c22 42 116 119 156 128 18
4 48 15 65 25 30 18 225 91 296 111 19 6 77 24 128 41 89 29 111 31 98 10 -7
-11 -156 -98 -253 -146 -115 -57 -231 -102 -338 -131 -55 -15 -104 -31 -110
-37 -11 -10 -12 -11 135 22 89 20 213 69 358 143 101 51 312 181 312 192 0 6
-20 11 -44 11 -50 2 -148 34 -216 70 -25 13 -57 28 -72 33 -16 6 -28 15 -28
20 0 5 17 31 37 58 20 26 42 64 49 83 14 40 3 39 216 21 70 -6 140 -8 156 -5
17 4 68 -5 126 -20 103 -27 170 -33 181 -15 4 6 13 8 20 5 8 -3 16 6 20 22 4
15 13 34 20 42 12 13 6 22 -45 65 -33 28 -60 53 -60 57 0 4 -16 22 -36 40 -20
18 -74 78 -119 134 -46 56 -106 120 -134 143 -66 55 -254 289 -337 418 -19 30
-48 58 -75 73 -81 45 -109 70 -109 96 0 25 -23 55 -140 179 -36 39 -85 99
-110 134 -25 35 -76 101 -115 146 -38 45 -85 101 -103 126 -18 24 -66 87 -108
139 -41 52 -85 111 -98 131 -37 55 -156 124 -156 91 0 -5 22 -23 48 -40 26
-17 69 -57 95 -89 114 -140 162 -202 199 -258 23 -33 68 -89 103 -125 34 -36
68 -75 76 -87 8 -12 47 -62 87 -112 52 -66 67 -91 55 -91 -10 0 -45 33 -78 75
-33 41 -63 75 -68 75 -16 0 -167 168 -213 237 -26 40 -50 70 -52 68 -5 -5 56
-110 95 -162 13 -18 21 -33 17 -33 -3 0 -38 24 -78 54 -111 84 -246 221 -331
336 -42 58 -101 130 -129 160 -48 50 -93 112 -121 165 -6 11 -43 44 -84 72
-124 90 -137 102 -123 124 18 28 -8 36 -42 14 -31 -20 -32 -30 -8 -49 9 -8 37
-31 61 -51 24 -20 63 -47 87 -61 30 -17 60 -51 98 -107 31 -45 79 -104 107
-132 28 -27 64 -69 80 -92 16 -23 35 -46 42 -50 7 -4 32 -35 57 -68 51 -70
218 -236 272 -270 20 -13 67 -56 105 -95 60 -60 75 -70 104 -70 28 0 44 -9 83
-49 32 -33 44 -51 36 -56 -7 -4 -23 5 -40 24 -23 24 -37 31 -68 31 -21 0 -47
-7 -58 -15 -37 -28 -60 -18 -114 48 -67 79 -261 258 -273 250 -5 -3 38 -51 95
-107 217 -212 295 -306 272 -329 -12 -12 -85 34 -170 109 -101 88 -152 122
-291 193 -56 29 -132 74 -168 101 -37 27 -76 52 -87 55 -27 9 -37 -5 -14 -19
10 -6 52 -35 92 -63 41 -29 120 -76 176 -104 132 -66 240 -139 305 -205 28
-29 73 -64 100 -77 54 -28 68 -42 107 -109 18 -32 22 -48 14 -48 -7 0 -49 21
-93 46 -44 26 -153 88 -241 139 -89 51 -225 136 -303 189 -78 53 -143 96 -146
96 -15 0 -2 -31 18 -41 12 -6 56 -37 97 -68 101 -77 260 -175 405 -251 66 -34
145 -79 175 -100 64 -43 94 -55 131 -51 20 2 33 -7 55 -36 33 -44 213 -223
246 -246 13 -8 20 -18 17 -21 -9 -9 -131 49 -167 79 -33 27 -34 28 -297 99
-275 75 -429 129 -509 177 -66 41 -96 34 -35 -8 76 -52 338 -149 554 -203 39
-10 95 -26 125 -35 30 -9 66 -19 80 -22 14 -4 39 -16 55 -29 17 -12 86 -49
154 -83 67 -33 131 -67 141 -76 10 -9 29 -19 43 -23 27 -8 240 -229 232 -242
-3 -5 -44 12 -93 36 -107 54 -310 134 -417 164 -197 55 -319 95 -436 141 -135
53 -139 54 -139 39 0 -26 407 -185 502 -196 31 -4 142 -37 203 -61 22 -8 74
-28 117 -43 42 -16 124 -51 182 -79 59 -28 115 -51 124 -51 19 0 42 -18 42
-33 0 -10 -111 -4 -205 12 -33 6 -103 17 -155 24 -52 8 -106 19 -120 25 -14 5
-90 24 -170 42 -80 17 -196 52 -258 77 -115 46 -164 53 -102 15 75 -46 346
-132 416 -132 12 0 52 -11 88 -25 37 -14 85 -25 109 -25 23 0 62 -5 87 -11 62
-14 201 -39 280 -49 63 -8 172 -43 236 -77 17 -9 37 -14 44 -11 7 2 -37 38
-98 79 -110 74 -119 82 -412 396 -20 21 -67 63 -105 93 -69 53 -395 376 -421
415 -20 31 -54 143 -54 180 0 36 22 61 42 49 7 -5 21 -18 31 -31 12 -15 29
-23 49 -23 23 0 47 -15 101 -62 148 -132 293 -285 332 -353 44 -75 150 -201
261 -310 39 -38 90 -97 114 -130 59 -81 135 -160 188 -196 23 -16 46 -29 50
-29 15 -1 105 -90 98 -97 -7 -8 -13 -5 -70 41 -30 23 -39 26 -51 16 -19 -16
-19 -40 0 -40 9 0 18 -7 22 -16 3 -8 16 -20 29 -25 13 -4 24 -13 24 -19 0 -16
-34 -12 -112 14 -60 20 -108 27 -271 36 -108 6 -204 13 -213 17 -11 4 -14 13
-10 29 8 31 -19 33 -35 3 -11 -21 -16 -22 -108 -15 -53 3 -141 18 -196 32
-187 48 -236 42 -77 -11 97 -32 216 -54 290 -55 48 0 52 -2 52 -23 0 -13 -20
-55 -46 -95 l-45 -71 -44 14 c-44 13 -226 106 -255 129 -8 7 -55 37 -105 66
-49 30 -108 70 -130 90 -22 19 -76 63 -120 97 -87 67 -242 222 -293 293 -28
39 -119 177 -181 275 -75 118 -160 345 -187 500 -3 17 -9 39 -14 50 -4 11 -13
54 -19 95 -25 161 -35 208 -63 290 -16 47 -40 121 -53 165 -12 44 -32 100 -43
125 -14 31 -22 75 -26 145 -6 113 -39 323 -61 386 -16 44 -20 136 -7 155 4 7
24 19 46 28 36 15 41 15 80 -3 l41 -18 -28 -12 c-39 -15 -33 -47 8 -44 48 4
225 -127 283 -210 12 -17 65 -75 117 -129 94 -97 105 -113 84 -120 -33 -11 72
-128 171 -191 30 -19 87 -68 126 -109 70 -72 104 -115 279 -353 88 -120 110
-146 236 -285 37 -41 82 -94 98 -117 17 -23 54 -66 83 -95 29 -29 83 -89 120
-133 67 -81 373 -396 439 -451 20 -17 54 -55 77 -85 23 -31 54 -62 68 -70 35
-18 165 -160 161 -174 -2 -5 -21 -8 -43 -6 -34 3 -37 1 -25 -13 7 -9 18 -16
22 -16 5 0 32 -16 60 -35 57 -39 82 -46 54 -15 -23 25 -1 28 34 4 17 -12 28
-14 45 -6 12 5 35 8 50 5 21 -4 26 -10 23 -24 -6 -22 12 -25 32 -6 11 10 12 7
7 -16 -6 -26 -5 -27 14 -17 16 9 20 8 20 -5 0 -21 3 -20 55 17 33 23 45 38 43
53 -4 26 -34 31 -58 10 -23 -21 -37 -3 -22 28 6 12 23 60 38 107 58 184 155
262 345 280 52 5 96 10 98 10 2 0 1 10 -3 23 -13 53 110 234 186 273 16 8 44
14 61 13 18 -2 38 1 46 5 21 13 -26 35 -75 36 -39 0 -46 -5 -111 -73 -71 -75
-121 -152 -143 -219 -13 -42 -21 -46 -41 -22 -11 14 -10 21 4 46 9 16 17 37
17 45 0 30 -28 -6 -45 -58 -12 -36 -22 -49 -36 -49 -10 0 -19 5 -19 10 0 6 6
10 13 10 15 0 51 85 43 105 -10 27 -35 16 -56 -25 -11 -21 -20 -51 -20 -65 0
-24 -10 -32 -23 -19 -3 3 1 24 9 46 17 50 18 71 2 66 -7 -3 -20 -36 -29 -73
-19 -83 -45 -104 -33 -29 4 27 11 60 16 73 12 34 -6 51 -30 28 -13 -14 -17
-33 -15 -92 2 -112 -21 -92 -29 25 -3 33 -5 35 -38 32 -60 -5 -75 -37 -57
-124 11 -55 -10 -48 -25 7 -7 25 -16 45 -20 45 -12 0 -9 -51 7 -94 8 -22 11
-44 8 -49 -9 -15 -32 34 -39 86 -4 26 -10 47 -15 47 -5 0 -9 -6 -9 -14 0 -8
-12 -28 -26 -45 -31 -38 -27 -66 17 -122 16 -20 29 -42 29 -48 0 -21 -21 -11
-38 19 -9 16 -22 30 -29 30 -6 0 -17 16 -23 36 -8 25 -15 32 -20 24 -5 -7 -2
-31 6 -53 17 -49 17 -52 0 -38 -8 7 -18 26 -21 42 -4 16 -11 29 -16 29 -12 0
-12 -36 0 -58 6 -12 5 -24 -4 -36 -13 -17 -14 -17 -20 10 -12 51 -19 61 -23
31 -2 -15 4 -51 12 -81 23 -78 19 -86 -19 -42 -45 50 -55 40 -21 -19 29 -48
16 -64 -20 -24 -11 12 -26 18 -38 15 -15 -4 -40 15 -100 77 -45 45 -91 90
-103 99 -28 22 -23 66 19 160 25 54 39 73 83 103 58 40 85 83 85 138 0 56 17
89 68 135 45 40 46 43 28 57 -18 14 -18 15 8 26 28 13 36 49 11 49 -43 0 -125
-79 -125 -121 0 -7 -7 -32 -15 -54 -8 -22 -14 -58 -15 -80 0 -47 -14 -69 -91
-147 -46 -46 -61 -70 -79 -125 -13 -37 -25 -72 -27 -76 -5 -8 -70 56 -186 183
-33 36 -71 72 -85 82 -13 9 -57 55 -96 102 -39 47 -107 125 -151 174 -44 49
-114 128 -155 177 -41 48 -103 117 -138 154 -34 37 -81 92 -103 122 -23 29
-58 73 -78 95 -20 23 -56 70 -81 104 -129 180 -169 232 -207 272 -76 79 -128
125 -160 142 -18 9 -33 22 -33 29 0 7 -12 29 -26 48 -14 19 -39 60 -56 92 -18
34 -47 69 -66 82 -19 13 -72 69 -116 123 -45 55 -127 141 -181 192 -55 50
-102 97 -104 103 -6 21 -65 78 -96 95 -46 24 -115 25 -152 2z m6316 -1221 c16
-45 16 -45 -34 -68 -62 -29 -77 -28 -69 5 5 20 3 25 -7 22 -9 -3 -13 -17 -11
-41 2 -22 -1 -37 -7 -37 -12 0 -24 41 -19 66 3 17 102 84 125 84 6 0 16 -14
22 -31z m66 -89 c23 -24 26 -32 15 -45 -7 -8 -26 -15 -42 -15 -26 0 -28 2 -18
20 13 24 -3 26 -40 5 -29 -16 -50 -19 -50 -6 0 8 89 71 101 71 3 0 18 -13 34
-30z m-115 -77 c7 -7 -80 -83 -96 -83 -12 0 -34 29 -34 44 0 3 17 17 38 31 34
24 74 27 92 8z m-142 -75 c16 -16 15 -48 -1 -48 -15 0 -39 44 -30 54 9 9 18 7
31 -6z m-1421 -25 c3 -7 -10 -11 -36 -10 -40 2 -48 7 -34 21 11 11 66 3 70
-11z m331 -39 c-5 -29 -44 -36 -70 -13 -21 18 -21 20 -3 15 11 -3 27 -1 35 4
23 15 42 12 38 -6z m1134 -16 c-6 -6 -15 -9 -18 -5 -4 3 -4 14 0 23 5 13 9 15
18 6 9 -9 9 -15 0 -24z m-1556 8 c31 -23 11 -27 -31 -6 -35 18 -36 20 -14 20
14 0 34 -6 45 -14z m322 -26 c45 -20 55 -44 21 -53 -16 -4 -20 -12 -17 -34 2
-23 8 -28 36 -31 18 -2 32 -9 32 -16 0 -8 7 -19 15 -26 8 -7 15 -23 15 -35 0
-29 27 -95 39 -95 6 0 13 9 16 20 11 33 24 12 15 -22 -8 -25 -6 -34 8 -44 15
-11 16 -16 3 -46 -8 -18 -14 -50 -13 -70 1 -35 -1 -39 -43 -57 -37 -16 -45
-25 -45 -46 0 -21 4 -26 23 -25 46 4 51 1 34 -17 -13 -15 -13 -21 -2 -36 7
-10 11 -27 8 -37 -3 -11 -1 -20 5 -20 6 0 24 -12 41 -26 26 -21 34 -24 46 -14
19 16 53 4 37 -12 -25 -25 -13 -57 29 -84 l41 -26 29 28 c31 30 38 54 15 54
-8 0 -24 12 -35 26 -16 20 -18 31 -10 50 6 17 5 32 -1 45 -13 23 -15 23 -51 2
-40 -24 -46 -11 -14 32 29 37 28 58 -2 34 -15 -12 -16 -12 -10 5 6 14 4 17 -8
12 -50 -20 -50 -20 -38 -5 6 8 13 32 15 54 3 36 6 40 39 50 20 5 43 16 51 23
21 17 29 87 16 145 -11 51 -6 69 14 49 7 -7 20 -12 30 -12 22 0 22 -4 2 -35
-19 -30 -5 -33 33 -8 25 17 26 16 49 -12 14 -17 29 -47 36 -67 9 -31 8 -41 -6
-63 -9 -14 -26 -25 -37 -25 -18 0 -19 -2 -9 -15 7 -8 19 -15 27 -15 11 0 13
-8 9 -27 -19 -95 -27 -182 -25 -294 2 -115 1 -129 -19 -153 -48 -61 -68 -70
-275 -122 -83 -21 -125 -7 -189 61 -37 40 -58 55 -81 57 -28 3 -32 7 -35 34
-3 29 -1 31 52 46 46 13 59 13 86 1 41 -17 50 -16 50 1 0 8 -14 19 -31 25 -53
18 -110 13 -158 -14 -29 -17 -51 -23 -65 -19 -28 9 -112 77 -161 132 l-41 44
-82 -3 c-77 -4 -82 -3 -82 16 0 11 13 33 29 48 40 38 55 85 42 134 -15 53 -13
157 4 227 30 127 143 262 240 286 22 6 60 17 85 25 63 19 118 18 168 -5z
m-361 -26 c-9 -10 -38 16 -31 28 4 6 13 4 22 -6 9 -8 13 -19 9 -22z m1558 25
c4 -5 -1 -19 -11 -30 -26 -29 -3 -23 42 11 21 16 44 30 50 30 5 0 26 -16 45
-36 l34 -35 -25 -19 c-14 -11 -31 -20 -38 -20 -7 0 -52 -20 -100 -45 -71 -36
-103 -47 -171 -55 -47 -5 -86 -8 -89 -6 -10 10 11 25 67 46 67 25 98 50 62 50
-11 0 -21 6 -21 13 0 18 29 57 43 57 7 0 28 11 47 25 39 27 55 30 65 14z
m-1645 -49 c0 -5 -4 -10 -10 -10 -5 0 -10 5 -10 10 0 6 5 10 10 10 6 0 10 -4
10 -10z m640 -9 c0 -11 -58 -61 -71 -61 -16 0 -10 9 24 40 33 30 47 37 47 21z
m-90 -21 c0 -11 -7 -20 -15 -20 -18 0 -19 12 -3 28 16 16 18 15 18 -8z m888
-37 c-2 -10 -24 -29 -50 -43 -53 -28 -75 -20 -64 24 5 19 14 26 39 29 71 9 79
8 75 -10z m-554 -28 c-4 -8 -7 -15 -9 -15 -2 0 -5 7 -9 15 -3 9 0 15 9 15 9 0
12 -6 9 -15z m-189 -74 c3 -5 1 -12 -5 -16 -5 -3 -10 1 -10 9 0 18 6 21 15 7z
m815 -11 c0 -18 -49 -31 -71 -20 -32 18 -21 30 26 30 25 0 45 -5 45 -10z m-24
-76 c-11 -7 -22 -11 -25 -8 -3 3 3 12 13 20 11 7 22 11 25 8 3 -3 -3 -12 -13
-20z m206 -56 c-13 -13 -81 -28 -87 -18 -7 12 17 28 50 32 36 4 50 -1 37 -14z
m-35 -54 c2 -7 -11 -13 -32 -16 -23 -3 -35 0 -35 8 0 22 60 29 67 8z m81 4
c-7 -20 -58 -23 -58 -4 0 11 10 16 31 16 20 0 29 -4 27 -12z m-1833 -67 c15
-25 24 -114 14 -133 -15 -28 -57 -65 -100 -88 -42 -22 -53 -43 -39 -71 15 -28
56 -34 97 -15 19 9 61 19 93 23 l58 6 64 -65 c35 -36 76 -74 92 -85 40 -27 29
-48 -39 -78 -31 -14 -60 -25 -64 -25 -5 0 -12 17 -16 38 -14 84 -41 80 -52 -7
-3 -29 -13 -61 -22 -72 -24 -28 -305 -107 -317 -88 -5 8 48 303 76 424 20 86
48 182 59 203 18 33 82 55 96 33z m1715 -41 c0 -5 -2 -10 -4 -10 -3 0 -8 5
-11 10 -3 6 -1 10 4 10 6 0 11 -4 11 -10z m-930 -108 c0 -15 -24 -32 -44 -32
-20 0 -19 2 4 20 27 21 40 25 40 12z m-2251 -127 c9 -25 10 -40 3 -47 -13 -13
-27 14 -35 65 -7 48 12 37 32 -18z m1401 5 c0 -5 -4 -10 -10 -10 -5 0 -10 5
-10 10 0 6 5 10 10 10 6 0 10 -4 10 -10z m-1530 -107 c0 -25 -26 2 -39 40
l-11 32 25 -28 c14 -15 25 -35 25 -44z m110 34 c0 -8 -9 -22 -20 -32 -20 -18
-20 -17 -20 13 0 25 4 32 20 32 11 0 20 -6 20 -13z m-715 -117 c75 -91 92
-121 55 -98 -21 13 -103 111 -135 161 -38 59 8 23 80 -63z m-2037 64 c29 -8
61 -14 71 -14 28 0 190 -48 236 -70 22 -10 78 -24 125 -30 163 -21 316 -64
342 -95 10 -11 15 -27 12 -37 -3 -12 5 -19 31 -28 19 -6 35 -18 35 -26 0 -8
12 -19 28 -25 l27 -11 -28 -14 c-33 -18 -53 -13 -101 25 -39 31 -49 35 -181
76 -49 15 -119 43 -155 61 -63 33 -201 74 -385 115 -49 11 -112 27 -139 34
-58 17 -69 18 -62 6 7 -11 146 -57 202 -66 120 -21 278 -72 374 -120 58 -29
132 -60 165 -70 33 -9 70 -21 83 -26 25 -10 21 -29 -6 -29 -10 0 -35 -9 -56
-21 l-39 -21 -56 21 c-213 76 -653 164 -935 186 -72 6 -87 4 -84 -7 4 -12 95
-27 263 -42 232 -21 595 -108 764 -182 60 -27 62 -51 2 -34 -45 13 -274 13
-431 0 -69 -5 -184 -14 -257 -19 -129 -9 -178 -20 -154 -35 6 -4 60 -3 119 3
443 43 773 36 806 -17 11 -17 -8 -22 -106 -26 -51 -3 -136 -14 -188 -24 -156
-33 -313 -62 -337 -62 -13 0 -23 -4 -23 -10 0 -21 161 0 420 55 109 23 246 28
282 9 17 -9 26 -19 22 -23 -5 -5 -85 -27 -179 -50 -256 -63 -251 -62 -234 -71
14 -8 174 27 339 74 91 26 151 38 157 32 11 -11 -4 -17 -93 -40 -49 -13 -161
-42 -249 -65 -87 -22 -176 -41 -197 -41 -27 0 -38 -4 -38 -15 0 -19 -2 -19
111 6 52 12 110 24 129 29 19 4 82 21 140 37 212 61 239 66 313 52 37 -7 67
-16 67 -20 0 -5 -19 -13 -42 -19 -24 -6 -74 -19 -113 -30 -116 -33 -212 -50
-390 -70 -188 -21 -350 -26 -360 -10 -3 6 -18 10 -31 10 -15 0 -38 13 -57 32
-18 18 -52 43 -77 56 -25 13 -63 41 -85 61 -22 21 -60 52 -85 69 -30 19 -56
49 -75 84 -16 29 -48 77 -72 106 -52 64 -87 137 -103 219 -10 48 -10 66 -1 77
15 18 100 55 176 76 76 22 286 24 363 4z m2682 -34 c0 -5 -4 -10 -10 -10 -5 0
-10 5 -10 10 0 6 5 10 10 10 6 0 10 -4 10 -10z m-115 -101 c-9 -13 -34 19 -35
45 0 16 3 15 21 -8 11 -14 17 -31 14 -37z m2045 26 c11 -21 48 -34 63 -22 2 1
37 -29 78 -66 41 -37 84 -70 97 -74 12 -3 53 2 90 12 37 9 94 21 126 25 40 6
78 21 118 46 44 27 62 33 68 24 11 -18 21 -113 12 -121 -10 -10 -219 -68 -267
-75 -56 -8 -238 -45 -247 -51 -19 -11 -5 -23 25 -23 18 0 38 -5 45 -12 26 -26
7 -135 -30 -166 -13 -11 -23 -9 -58 9 l-41 22 6 51 c3 28 8 63 11 77 4 21 0
28 -16 32 -35 9 -205 -10 -238 -27 -42 -22 -59 -20 -74 8 -7 13 -21 37 -31 55
-15 27 -16 34 -3 64 7 19 17 53 21 75 6 40 10 44 88 86 45 25 91 52 102 60 28
22 40 20 55 -9z m-1975 -15 c-3 -5 -12 -7 -20 -3 -21 7 -19 13 6 13 11 0 18
-4 14 -10z m-115 -21 c0 -6 -4 -7 -10 -4 -5 3 -10 11 -10 16 0 6 5 7 10 4 6
-3 10 -11 10 -16z m1330 -118 c0 -74 -19 -91 -45 -41 -27 52 -18 77 28 79 13
1 17 -7 17 -38z m450 -27 c-11 -31 -21 -79 -22 -107 -3 -50 -2 -52 25 -52 15
-1 37 -10 48 -22 l21 -21 -26 -54 c-25 -51 -25 -55 -11 -101 8 -26 30 -67 50
-91 19 -24 35 -45 35 -48 0 -16 -135 18 -206 52 -46 22 -87 40 -92 40 -15 0
-92 71 -92 85 0 8 18 19 43 26 59 15 73 31 92 104 23 83 17 99 -33 90 -79 -14
-101 -54 -67 -119 22 -42 20 -46 -35 -46 -45 0 -50 2 -56 25 -10 40 6 194 22
209 7 8 53 23 101 34 49 12 106 28 128 36 22 8 52 15 67 15 l27 1 -19 -56z
m1780 21 c7 -9 10 -18 6 -22 -9 -10 -58 16 -51 27 9 15 31 12 45 -5z m-17 -52
c18 -9 26 -18 20 -20 -19 -7 -84 17 -78 28 9 13 22 11 58 -8z m-5163 -53 c0
-5 -4 -10 -10 -10 -5 0 -10 5 -10 10 0 6 5 10 10 10 6 0 10 -4 10 -10z m-94
-16 c27 -8 72 -19 99 -24 216 -37 281 -54 425 -108 67 -26 71 -29 59 -56 -21
-46 -55 -55 -205 -57 -174 -1 -239 10 -410 70 -107 38 -158 117 -109 171 22
25 72 26 141 4z m3354 -41 c0 -10 -7 -27 -15 -37 -8 -11 -15 -28 -15 -39 0
-27 -20 -11 -37 31 -14 33 -13 37 3 49 26 19 64 17 64 -4z m1705 -81 c3 -8 3
-17 1 -19 -9 -10 -74 18 -95 41 -19 20 -21 28 -11 45 11 21 12 21 55 -16 24
-20 47 -43 50 -51z m-1187 21 c6 -76 -8 -105 -66 -136 -41 -22 -56 -38 -69
-68 -9 -25 -27 -46 -46 -55 -27 -15 -32 -15 -56 3 -32 23 -67 93 -75 150 -11
76 57 129 184 143 36 4 79 7 95 6 28 -1 30 -4 33 -43z m1355 7 c30 -15 37 -40
9 -40 -20 0 -92 46 -92 60 0 9 38 0 83 -20z m-270 -33 c27 -22 20 -37 -16 -37
-22 0 -41 8 -53 21 -18 20 -18 21 0 35 19 13 31 10 69 -19z m-105 -39 c-4 -11
-110 -56 -135 -57 -26 -2 -10 15 40 41 55 28 101 36 95 16z m187 -27 c0 -30
-15 -36 -40 -17 -17 12 -17 16 -6 30 20 24 46 16 46 -13z m-4357 4 c27 -8 29
-25 3 -25 -10 0 -33 -3 -50 -6 -23 -5 -31 -3 -31 8 0 20 21 39 40 34 8 -3 25
-7 38 -11z m4497 -20 c22 -18 30 -33 30 -56 0 -28 -2 -30 -30 -25 -37 8 -75
43 -75 71 0 43 30 47 75 10z m-205 -20 c7 -9 11 -17 9 -19 -2 -1 -33 -19 -69
-38 -78 -43 -160 -108 -160 -126 0 -8 20 4 45 26 25 22 77 56 115 76 39 21 70
41 70 47 0 5 9 9 20 9 26 0 26 -16 0 -30 -11 -6 -27 -26 -35 -45 -7 -19 -18
-35 -24 -35 -5 0 -26 -23 -46 -51 -45 -60 -161 -151 -253 -198 -67 -33 -67
-33 -143 -23 -90 13 -124 6 -176 -37 -21 -17 -44 -31 -51 -31 -8 0 -35 15 -61
34 -70 51 -118 72 -211 91 -92 19 -114 30 -90 45 25 16 59 11 90 -12 34 -25
99 -39 196 -43 79 -4 115 9 160 56 25 26 29 39 32 105 6 107 -2 114 -130 114
-54 0 -98 -4 -98 -9 0 -15 28 -21 94 -21 86 0 101 -13 100 -84 0 -39 -6 -64
-20 -82 -22 -29 -82 -54 -134 -54 -42 0 -171 27 -181 37 -5 5 -11 27 -15 50
-6 41 -5 44 51 103 60 62 68 88 17 52 -60 -43 -102 -100 -102 -138 0 -20 -3
-34 -7 -32 -61 29 -178 60 -240 62 -58 2 -62 12 -20 47 21 17 47 48 57 70 11
21 26 39 33 39 7 0 30 9 51 21 l39 21 36 -20 c27 -15 41 -18 54 -11 12 7 32 6
65 -5 70 -22 322 -29 465 -13 64 7 117 10 117 5 0 -5 -13 -11 -30 -14 -30 -6
-38 -18 -21 -28 5 -3 41 8 81 24 82 34 80 33 80 20 0 -5 -16 -16 -35 -25 -19
-9 -39 -23 -46 -31 -23 -28 13 -14 98 37 93 56 137 62 58 8 -61 -41 -120 -102
-104 -108 6 -2 27 13 47 32 48 46 184 147 198 147 6 0 17 -7 24 -15z m-4159
-26 c16 -9 1 -13 -141 -34 -58 -8 -116 -18 -129 -21 -19 -6 -22 -3 -19 12 6
37 242 72 289 43z m4325 -55 c24 -14 44 -29 44 -33 0 -15 -14 -21 -26 -10 -8
7 -14 7 -19 0 -4 -7 -18 -6 -43 4 -46 20 -46 19 -32 44 14 27 22 26 76 -5z
m-4376 2 c0 -3 -69 -27 -152 -54 -84 -28 -161 -53 -170 -57 -28 -11 -22 18 10
47 18 18 43 27 77 31 28 4 77 13 110 21 59 14 125 20 125 12z m4499 -37 c3
-24 3 -24 -18 -5 -11 10 -18 23 -15 28 10 16 29 2 33 -23z m-179 -19 c8 -5 12
-12 8 -15 -9 -9 -48 4 -48 16 0 12 21 11 40 -1z m-1518 -90 c22 0 24 -16 2
-24 -20 -8 -44 10 -44 32 0 12 3 13 12 4 7 -7 20 -12 30 -12z m93 -21 c-16
-26 -215 -101 -215 -81 0 2 5 22 12 43 11 40 35 56 25 18 -5 -19 -3 -20 31
-14 20 4 61 17 92 29 58 24 67 25 55 5z m1330 7 c17 -12 17 -13 -9 -20 -34 -8
-51 1 -35 20 14 17 20 17 44 0z m-1215 -4 c0 -12 -87 -52 -113 -52 -39 1 40
60 80 60 18 0 33 -4 33 -8z m45 -42 c-13 -22 -160 -80 -214 -86 -31 -3 -75
-10 -99 -16 -23 -6 -45 -8 -48 -5 -12 12 45 32 111 37 49 5 94 17 150 42 83
37 110 45 100 28z m39 -37 c-17 -13 -54 -18 -54 -8 0 3 15 14 33 25 35 22 54
7 21 -17z m1176 22 c-14 -16 -85 -21 -95 -6 -6 10 21 18 74 20 29 1 32 -1 21
-14z m-4930 -51 c-14 -10 -41 -32 -60 -51 l-36 -33 -59 10 c-107 19 -149 49
-72 51 18 0 68 9 112 18 44 10 93 19 110 20 l29 1 -24 -16z m50 -25 c0 -25
-22 -49 -45 -49 -32 0 -32 13 1 39 29 23 44 27 44 10z m3540 -23 c0 -18 -60
-66 -82 -66 -8 0 -22 6 -32 13 -16 12 -16 14 -2 26 13 11 87 38 109 40 4 1 7
-6 7 -13z m-135 -5 c-15 -13 -115 -44 -122 -37 -5 5 22 19 77 39 25 9 55 8 45
-2z m243 -9 c5 -15 -47 -27 -60 -14 -8 8 -5 14 13 21 28 11 41 9 47 -7z m-259
-48 c8 -7 -12 -24 -30 -24 -13 0 -19 7 -19 21 0 16 4 19 23 13 12 -3 24 -8 26
-10z m200 -6 c-8 -5 -31 -18 -51 -29 -33 -17 -38 -17 -38 -4 0 17 78 57 93 48
5 -3 3 -10 -4 -15z m-1729 -61 c0 -20 -25 1 -28 24 -2 23 -2 23 13 5 8 -11 15
-24 15 -29z m1733 11 c-22 -24 -166 -95 -213 -105 -33 -6 -34 -5 -20 12 16 20
145 85 168 85 8 0 25 9 39 20 31 24 51 15 26 -12z m-183 14 c0 -10 -92 -62
-109 -62 -6 0 -11 6 -11 14 0 8 23 23 53 35 59 23 67 24 67 13z m-1592 -82 c1
-23 -3 -38 -9 -35 -5 4 -9 24 -9 46 0 22 4 38 9 35 5 -3 9 -24 9 -46z m1543 0
c-26 -22 -41 -25 -41 -10 0 6 10 15 23 20 36 14 44 11 18 -10z m200 -18 c-16
-29 -41 -48 -49 -35 -9 14 -180 -67 -199 -93 -17 -23 -26 -13 -17 20 8 34 33
50 131 87 59 22 79 26 86 16 6 -9 11 -8 20 6 17 24 41 23 28 -1z m-301 -2 c0
-5 -4 -10 -10 -10 -5 0 -10 5 -10 10 0 6 5 10 10 10 6 0 10 -4 10 -10z m310
-73 c0 -28 -17 -47 -42 -47 -23 0 -23 5 3 41 25 35 39 37 39 6z m-1310 -8 c0
-6 -4 -7 -10 -4 -5 3 -10 11 -10 16 0 6 5 7 10 4 6 -3 10 -11 10 -16z m1240
-3 c0 -19 -35 -45 -98 -75 -41 -19 -55 -22 -64 -13 -16 16 1 32 76 71 64 34
86 38 86 17z m-1210 -26 c0 -5 -4 -10 -10 -10 -5 0 -10 5 -10 10 0 6 5 10 10
10 6 0 10 -4 10 -10z m1230 -49 c0 -9 -116 -91 -130 -91 -33 0 12 55 68 84 44
23 62 25 62 7z m50 -17 c0 -16 -56 -54 -80 -54 -8 0 2 16 25 40 38 38 55 43
55 14z m15 -54 c11 -17 -11 -42 -49 -55 -45 -16 -46 -3 -4 36 35 31 43 34 53
19z m-2643 -32 c-7 -7 -12 -8 -12 -2 0 6 3 14 7 17 3 4 9 5 12 2 2 -3 -1 -11
-7 -17z m161 -82 c-17 -28 -64 -78 -69 -73 -9 9 14 44 42 66 31 24 38 26 27 7z
m757 -12 c0 -8 -5 -12 -10 -9 -6 4 -8 11 -5 16 9 14 15 11 15 -7z m-612 -10
c-4 -19 -68 -72 -68 -56 0 14 49 72 62 72 5 0 8 -7 6 -16z m619 -131 c-3 -10
-5 -2 -5 17 0 19 2 27 5 18 2 -10 2 -26 0 -35z m-946 -51 c-15 -28 -94 -97
-98 -86 -4 13 78 102 95 103 9 1 10 -4 3 -17z m-280 -25 c-8 -8 -11 -7 -11 4
0 20 13 34 18 19 3 -7 -1 -17 -7 -23z m89 -22 c-7 -9 -15 -13 -18 -10 -3 2 1
11 8 20 7 9 15 13 18 10 3 -2 -1 -11 -8 -20z m-140 -283 c0 -4 -5 -13 -11 -19
-22 -22 0 -32 36 -17 30 12 35 12 35 0 0 -14 -57 -46 -82 -46 -7 0 -31 -9 -52
-21 -21 -11 -41 -18 -44 -15 -8 9 30 86 43 86 7 0 20 9 30 20 18 20 45 27 45
12z m-310 -31 c0 -5 -7 -12 -16 -15 -24 -9 -28 -7 -14 9 14 17 30 20 30 6z
m150 -116 c0 -8 -4 -15 -10 -15 -5 0 -10 7 -10 15 0 8 5 15 10 15 6 0 10 -7
10 -15z m-500 -55 c0 -5 -5 -10 -11 -10 -5 0 -7 5 -4 10 3 6 8 10 11 10 2 0 4
-4 4 -10z m165 -130 c-3 -5 -11 -10 -16 -10 -6 0 -7 5 -4 10 3 6 11 10 16 10
6 0 7 -4 4 -10z m-467 -64 c7 -19 22 -38 33 -41 11 -4 24 -17 29 -29 5 -15 20
-25 39 -29 20 -4 31 -13 31 -23 0 -20 -110 -125 -123 -117 -4 3 -2 12 6 21 42
50 24 57 -28 11 -44 -39 -59 -30 -19 12 25 26 27 32 14 42 -17 13 -24 80 -15
145 7 51 17 53 33 8z m2132 -70 c0 -14 5 -37 10 -51 15 -39 80 -376 80 -413 0
-17 -4 -34 -10 -37 -10 -6 -12 2 -30 115 -7 41 -25 132 -41 203 -16 70 -28
145 -27 167 3 43 18 56 18 16z m-20 -168 c0 -16 -3 -19 -11 -11 -6 6 -8 16 -5
22 11 17 16 13 16 -11z m2500 -969 c42 -29 97 -105 85 -118 -6 -6 -122 106
-136 132 -14 25 -1 21 51 -14z"/>
<path d="M6116 6418 c-23 -33 -21 -125 4 -165 24 -40 48 -53 104 -57 41 -3 46
-1 57 26 6 15 9 45 6 65 -7 40 -51 93 -79 93 -25 0 -23 -10 10 -38 28 -25 29
-25 -45 2 -44 17 -47 21 -35 55 13 38 -1 49 -22 19z m103 -130 c14 -13 28 -24
30 -26 3 -1 -2 -10 -11 -18 -14 -15 -18 -13 -39 15 -17 24 -28 29 -46 25 -24
-7 -30 5 -12 23 16 16 47 8 78 -19z"/>
<path d="M6215 6070 c10 -11 47 -26 90 -35 66 -15 79 -15 160 0 48 9 99 15
111 12 27 -5 31 5 9 23 -10 9 -32 10 -68 6 -138 -18 -222 -18 -261 -2 -51 21
-63 20 -41 -4z"/>
<path d="M7794 6766 c-21 -19 -36 -37 -32 -41 3 -4 24 9 45 28 50 46 38 57
-13 13z"/>
<path d="M8937 8352 c-21 -23 -21 -26 -1 -79 21 -54 42 -56 46 -5 3 39 -10
102 -22 102 -4 0 -14 -8 -23 -18z"/>
<path d="M9006 8316 c-7 -39 1 -86 15 -86 14 0 30 50 27 84 -4 45 -34 47 -42
2z"/>
<path d="M9152 8311 c-5 -3 -16 -19 -25 -36 l-16 -30 -1 30 -1 30 -24 -28
c-29 -32 -34 -73 -9 -63 10 4 23 -3 34 -16 l19 -23 15 38 c10 21 24 37 34 38
44 3 68 -4 84 -24 14 -18 21 -20 35 -11 30 18 26 41 -11 70 -33 27 -109 41
-134 25z"/>
<path d="M8478 8288 c-44 -27 -85 -102 -68 -123 18 -21 39 -7 46 31 7 40 19
50 40 33 12 -10 19 -8 38 10 l23 22 15 -23 16 -23 13 28 c10 23 10 30 -2 42
-26 26 -81 27 -121 3z"/>
<path d="M8878 8268 c-3 -36 -7 -43 -28 -48 -19 -4 -26 -13 -28 -38 -2 -23 1
-32 12 -32 8 0 17 9 21 19 3 11 19 24 35 30 33 11 39 37 20 85 -14 39 -28 31
-32 -16z"/>
<path d="M8612 8223 c-11 -36 -9 -53 7 -53 13 0 34 58 27 75 -9 25 -22 17 -34
-22z"/>
<path d="M7627 8219 c-9 -5 -24 -23 -32 -40 -13 -24 -20 -28 -41 -23 -18 5
-32 0 -50 -17 -28 -26 -31 -51 -8 -73 22 -23 32 -20 36 12 3 25 6 27 44 24 44
-4 60 8 66 47 5 36 27 38 34 3 3 -17 19 -42 34 -57 45 -44 70 -8 30 42 -11 14
-20 33 -20 43 0 39 -54 62 -93 39z"/>
<path d="M8670 8211 c-7 -14 -7 -22 1 -27 13 -8 41 24 33 37 -9 15 -23 10 -34
-10z"/>
<path d="M8720 8200 c0 -6 5 -20 10 -31 8 -13 7 -25 0 -39 -8 -15 -6 -21 10
-30 19 -10 19 -13 5 -33 -19 -27 -19 -47 0 -47 9 0 23 16 32 35 16 33 16 38
-3 92 -12 37 -25 59 -37 61 -9 2 -17 -2 -17 -8z"/>
<path d="M8257 8193 c-14 -13 -6 -34 16 -44 13 -6 28 -24 34 -40 9 -23 17 -29
41 -29 37 0 70 33 53 53 -6 8 -21 12 -34 10 -15 -3 -31 5 -51 26 -29 31 -46
37 -59 24z"/>
<path d="M9313 8170 c-13 -5 -23 -11 -23 -14 0 -15 35 -36 60 -36 20 0 29 -6
33 -22 5 -18 8 -19 21 -8 21 17 20 23 -10 59 -27 32 -43 36 -81 21z"/>
<path d="M9236 8144 c-9 -23 -8 -24 14 -24 13 0 20 7 20 20 0 24 -25 27 -34 4z"/>
<path d="M7225 8111 c-93 -48 -132 -77 -150 -111 -10 -20 -25 -30 -52 -35 -50
-9 -73 -22 -73 -42 0 -13 9 -15 53 -10 67 7 107 25 107 49 0 10 8 22 18 25 9
4 25 17 35 30 10 13 28 23 39 23 11 0 38 10 60 22 l40 23 19 -24 c32 -39 36 2
5 49 -14 22 -27 39 -29 39 -1 -1 -34 -18 -72 -38z"/>
<path d="M7835 8119 c-18 -15 -25 -30 -25 -55 0 -41 25 -47 42 -9 9 21 18 25
51 25 25 0 44 -6 51 -16 8 -11 20 -13 38 -9 29 7 41 26 32 50 -7 17 -24 22
-106 29 -47 4 -62 1 -83 -15z"/>
<path d="M8083 8108 c-5 -13 -8 -29 -5 -36 6 -19 42 15 42 40 0 25 -25 23 -37
-4z"/>
<path d="M7392 8108 c-18 -18 -14 -52 9 -82 25 -32 54 -34 70 -4 10 19 8 25
-13 42 -14 12 -28 29 -31 39 -7 20 -18 22 -35 5z"/>
<path d="M9465 8030 c-85 -70 -95 -79 -95 -89 0 -5 17 0 37 10 21 10 49 19 64
19 21 0 28 6 34 27 l7 28 19 -25 c26 -34 24 -54 -10 -93 -33 -37 -30 -53 14
-59 l30 -4 -27 -12 c-29 -12 -37 -35 -16 -48 6 -4 31 -7 54 -5 42 2 61 -10 49
-29 -5 -8 -11 -7 -21 1 -23 19 -40 -4 -19 -25 26 -26 64 -20 76 11 9 25 7 30
-20 53 -23 19 -31 33 -31 58 0 25 -4 32 -19 32 -30 0 -32 12 -10 59 25 58 25
61 -18 103 l-38 36 -60 -48z"/>
<path d="M8133 8055 c-24 -17 -31 -45 -11 -45 6 0 20 8 30 17 17 15 20 15 28
3 15 -23 12 -30 -14 -39 -21 -8 -42 -38 -33 -47 2 -2 20 4 40 14 37 16 38 18
35 62 -3 40 -6 45 -28 48 -14 1 -35 -4 -47 -13z"/>
<path d="M9334 8035 c-7 -19 -14 -43 -14 -54 0 -32 19 -34 26 -4 4 15 13 40
20 55 12 22 11 27 -2 32 -10 4 -19 -5 -30 -29z"/>
<path d="M8222 7918 c-17 -17 -15 -25 8 -31 29 -8 25 -23 -15 -47 -33 -21 -43
-39 -28 -53 3 -4 14 0 24 9 16 14 18 14 24 -5 3 -11 3 -36 -1 -55 -5 -28 -3
-37 10 -42 23 -9 20 -33 -8 -55 -29 -23 -43 -69 -24 -80 9 -6 19 3 33 29 41
76 60 102 78 108 23 7 22 21 -3 29 -11 3 -20 11 -20 16 0 5 -9 9 -20 9 -11 0
-20 4 -20 8 0 14 23 32 42 32 23 0 23 15 -1 32 -13 10 -18 25 -17 58 1 41 -1
45 -24 48 -14 2 -31 -3 -38 -10z"/>
<path d="M8384 7737 c-28 -25 -26 -51 4 -43 67 18 72 17 72 -7 0 -13 11 -34
25 -47 19 -18 22 -27 14 -42 -13 -24 -5 -48 15 -48 8 0 27 10 43 23 19 15 38
21 61 19 29 -3 32 -6 32 -36 0 -24 -10 -44 -40 -76 -22 -24 -40 -47 -40 -51 0
-4 14 -12 30 -18 20 -7 34 -21 41 -41 13 -36 18 -37 53 -9 31 24 33 49 7 73
-26 24 -32 65 -14 99 31 61 -13 111 -95 109 -57 -1 -92 25 -84 63 6 36 -14 55
-59 55 -25 0 -47 -8 -65 -23z m311 -328 c10 -15 -1 -23 -20 -15 -9 3 -13 10
-10 16 8 13 22 13 30 -1z"/>
<path d="M7330 7681 c0 -17 5 -33 10 -36 22 -14 8 -35 -29 -45 -24 -6 -52 -24
-70 -45 -36 -42 -38 -51 -11 -60 24 -8 25 -14 5 -42 -13 -18 -12 -22 5 -38 22
-20 26 -45 9 -62 -30 -30 32 -110 69 -87 9 6 18 19 20 28 3 12 -4 16 -27 16
-16 0 -32 4 -36 9 -6 10 17 36 37 44 10 3 10 9 2 24 -8 12 -9 25 -3 35 10 18
-4 33 -21 23 -13 -8 -13 11 1 36 8 16 7 23 -7 33 -23 17 -11 34 43 58 53 23
72 56 54 94 -6 14 -9 30 -6 35 4 5 -5 9 -19 9 -22 0 -26 -5 -26 -29z"/>
<path d="M9562 7659 c2 -7 10 -15 17 -17 8 -3 12 1 9 9 -2 7 -10 15 -17 17 -8
3 -12 -1 -9 -9z"/>
<path d="M8811 7616 c-15 -31 -24 -72 -28 -129 -5 -75 -2 -94 28 -194 30 -104
60 -165 73 -152 3 3 -4 30 -15 60 -57 148 -74 303 -43 384 24 64 27 75 17 75
-5 0 -19 -20 -32 -44z"/>
<path d="M9517 7563 c-31 -27 -56 -52 -56 -56 -1 -10 76 1 102 15 9 5 24 25
32 45 19 44 19 43 -3 43 -10 0 -44 -21 -75 -47z"/>
<path d="M8993 7478 c-69 -150 -94 -216 -84 -222 12 -8 28 14 36 49 4 17 32
80 61 142 52 107 63 143 46 143 -4 0 -31 -51 -59 -112z"/>
<path d="M1830 7556 c0 -8 22 -28 48 -45 26 -17 57 -43 68 -58 12 -16 45 -41
75 -57 64 -35 174 -114 209 -151 31 -33 87 -68 101 -63 12 4 -162 159 -189
169 -10 4 -24 14 -31 23 -7 9 -36 29 -65 45 -28 16 -64 44 -81 62 -39 41 -104
89 -122 89 -7 0 -13 -6 -13 -14z"/>
<path d="M7811 7466 c-12 -13 -38 -32 -57 -42 -33 -18 -44 -34 -24 -34 12 0
115 74 125 90 12 20 -22 9 -44 -14z"/>
<path d="M9412 7454 c-33 -23 -28 -38 12 -31 42 7 51 -1 30 -25 -14 -14 -14
-20 -4 -33 7 -8 23 -15 36 -15 30 0 30 -4 -1 -44 -28 -37 -31 -46 -12 -46 16
0 98 110 91 122 -3 4 -23 8 -44 8 l-39 0 17 30 c15 27 15 32 2 40 -23 15 -63
12 -88 -6z"/>
<path d="M9613 7320 c-46 -21 -83 -43 -83 -49 0 -19 22 -12 102 30 83 43 99
40 79 -13 -11 -29 5 -43 34 -32 20 8 19 -15 -2 -38 -14 -16 -15 -23 -5 -38 7
-11 12 -27 12 -36 0 -12 6 -15 25 -10 62 15 71 16 84 7 14 -9 12 -17 -9 -53
-5 -10 -14 -26 -18 -35 -5 -10 -21 -24 -36 -31 -42 -21 -30 -48 19 -44 l40 2
-22 -19 c-26 -22 -21 -31 17 -31 37 0 43 -10 20 -35 -15 -16 -18 -29 -13 -57
5 -36 6 -37 54 -40 l50 -3 -31 -38 c-18 -20 -30 -45 -28 -54 4 -20 30 -28 56
-18 15 6 14 8 -6 19 l-22 12 25 34 c33 44 30 74 -8 78 -22 3 -27 7 -22 22 3
11 1 28 -5 39 -8 16 -7 22 6 29 24 14 10 42 -21 42 -30 0 -33 16 -4 25 27 9
21 38 -10 45 -21 5 -22 7 -8 18 8 7 13 21 10 31 -2 9 3 23 11 30 18 15 21 48
7 70 -10 15 -75 41 -105 41 -18 0 -18 1 -2 19 23 26 17 54 -14 61 -15 4 -26
15 -30 30 -9 39 -52 36 -147 -10z"/>
<path d="M9108 7327 c-17 -26 -33 -69 -47 -119 -7 -30 -7 -38 4 -38 8 0 19 18
25 40 6 22 19 60 30 85 20 47 12 70 -12 32z"/>
<path d="M8596 7323 c-19 -10 -43 -13 -68 -10 -46 6 -55 -5 -33 -39 20 -30 12
-46 -21 -38 -27 7 -32 -7 -9 -26 22 -18 63 2 71 35 4 18 21 34 55 51 27 13 49
29 49 34 0 14 -10 12 -44 -7z"/>
<path d="M7356 7264 c-4 -9 -4 -19 -2 -21 8 -8 26 8 26 23 0 19 -16 18 -24 -2z"/>
<path d="M7351 7174 c-18 -20 -30 -41 -28 -47 6 -20 37 -20 43 0 3 10 12 30
20 45 28 51 9 53 -35 2z"/>
<path d="M8390 7200 c0 -15 48 -43 60 -35 7 5 0 14 -19 26 -36 22 -41 23 -41
9z"/>
<path d="M8565 7145 c17 -14 39 -25 50 -25 17 1 16 4 -10 25 -16 14 -39 25
-50 25 -17 -1 -16 -4 10 -25z"/>
<path d="M8246 7012 c-24 -16 -63 -31 -104 -37 -79 -13 -103 -41 -26 -30 64 9
136 40 165 71 29 31 14 30 -35 -4z"/>
<path d="M9932 7023 c3 -15 13 -18 53 -16 52 1 65 -7 65 -43 0 -12 9 -33 20
-47 11 -14 20 -35 20 -48 0 -12 7 -30 15 -39 14 -15 14 -21 0 -53 -28 -67 -16
-86 53 -87 29 0 28 14 -4 39 l-26 20 33 31 33 30 -32 33 c-18 18 -32 40 -32
49 0 8 -9 27 -20 41 -11 14 -20 32 -20 41 0 8 -5 27 -12 41 -10 23 -16 25 -80
25 -61 0 -69 -2 -66 -17z"/>
<path d="M8270 6965 c-25 -20 -71 -49 -102 -67 -52 -27 -73 -48 -50 -48 21 0
210 127 211 143 2 14 -14 6 -59 -28z"/>
<path d="M9128 6973 c-11 -12 -18 -36 -18 -61 0 -22 -4 -52 -9 -65 -5 -13 -19
-77 -31 -142 -22 -126 -42 -185 -61 -185 -15 0 -5 263 11 306 7 19 7 31 1 37
-18 18 -52 -78 -61 -171 -4 -48 -4 -124 0 -169 10 -95 1 -138 -40 -198 -15
-22 -43 -68 -62 -102 l-34 -62 3 237 c3 210 9 294 30 436 5 33 4 38 -13 34
-32 -6 -44 -99 -49 -393 -6 -325 -12 -424 -30 -490 -8 -28 -13 -64 -12 -80 2
-24 -3 -29 -30 -37 -36 -9 -45 -28 -13 -28 15 0 20 -7 20 -28 0 -34 -49 -261
-60 -282 -10 -17 -7 -23 -32 65 -9 31 -20 51 -31 53 -14 3 -15 -1 -8 -25 24
-78 36 -156 35 -235 0 -95 -11 -119 -88 -201 l-35 -37 19 -33 c31 -53 33 -95
7 -177 -21 -68 -27 -77 -65 -98 -41 -23 -42 -24 -27 -51 12 -25 12 -31 -4 -57
-10 -16 -40 -53 -67 -82 -42 -45 -56 -54 -102 -62 -41 -8 -61 -6 -88 5 -19 8
-34 18 -34 24 0 5 -3 16 -6 25 -5 13 2 16 35 16 69 0 117 32 149 98 24 50 27
68 26 152 -1 99 2 90 -66 212 -25 45 -33 51 -48 33 -11 -13 -10 -19 7 -38 48
-52 74 -116 82 -194 7 -71 6 -82 -15 -123 -13 -25 -24 -50 -24 -57 0 -6 -16
-21 -35 -33 -32 -20 -40 -21 -85 -10 -27 6 -54 9 -60 5 -5 -3 -10 -32 -10 -64
0 -47 -4 -61 -22 -79 -42 -38 -118 -56 -118 -27 0 19 -42 105 -51 105 -17 0
-19 -21 -7 -64 10 -37 9 -50 -3 -72 l-14 -27 -6 34 -6 34 -25 -55 c-34 -74
-49 -86 -88 -70 -16 7 -36 23 -45 37 -13 20 -19 22 -31 12 -22 -18 -17 -34 20
-71 25 -25 31 -37 25 -51 -5 -9 -13 -25 -18 -34 -4 -10 -18 -19 -30 -21 -14
-2 -21 -9 -19 -20 2 -13 14 -17 45 -17 48 -1 73 -18 73 -52 0 -26 25 -42 42
-25 13 13 -12 57 -51 89 -23 18 -26 28 -23 58 3 28 10 39 31 46 14 6 36 8 49
6 15 -3 36 6 63 28 40 32 41 32 82 18 38 -13 43 -13 52 3 45 79 94 139 111
137 10 -1 40 -5 65 -9 53 -7 101 5 154 42 37 25 66 24 45 -2 -7 -7 -18 -33
-24 -56 -9 -30 -24 -50 -47 -66 -19 -13 -33 -31 -32 -40 2 -23 -15 -32 -59
-32 -40 0 -48 -10 -24 -29 23 -20 91 4 117 40 39 55 33 21 -16 -88 -54 -120
-70 -143 -96 -143 -13 0 -18 -7 -18 -27 1 -40 -15 -102 -35 -140 -12 -25 -23
-33 -44 -33 -15 0 -37 -3 -50 -6 -29 -8 -56 -58 -43 -81 11 -21 -5 -60 -28
-68 -9 -3 -31 -1 -48 4 -31 9 -33 8 -43 -27 -5 -20 -10 -45 -10 -54 0 -22 -43
-72 -85 -98 -46 -28 -35 -45 13 -21 45 23 63 43 91 99 12 23 26 42 32 42 48 0
119 71 119 118 0 21 19 35 92 67 47 21 108 113 108 163 0 40 46 135 63 129 7
-2 13 -20 15 -40 2 -20 7 -37 12 -37 9 0 20 25 20 48 0 10 12 23 28 29 44 20
103 74 117 107 7 17 27 49 44 70 17 22 34 51 37 65 3 14 10 36 15 49 11 29 4
42 -22 42 -15 0 -20 -6 -19 -22 5 -62 -1 -81 -39 -119 -25 -25 -48 -39 -65
-39 -33 0 -34 -18 -1 -26 28 -7 29 -8 15 -34 -22 -42 -109 -80 -138 -62 -9 6
-2 31 32 103 55 118 157 416 225 657 28 100 56 193 61 208 11 29 23 100 45
266 13 99 47 253 58 265 10 9 56 -52 92 -123 35 -72 47 -84 60 -64 9 15 -48
120 -101 185 l-48 58 16 91 c17 101 101 301 163 392 19 28 35 56 35 63 0 7 8
25 19 39 47 67 151 475 140 551 -4 23 -4 23 -21 4z m-554 -1828 c8 -9 12 -23
9 -32 -5 -13 -9 -12 -24 8 -29 38 -18 56 15 24z m-120 -474 c-9 -22 -20 -38
-25 -35 -13 8 -11 15 12 53 27 44 34 34 13 -18z m-434 -211 c0 -22 -16 -25
-55 -10 -34 13 -23 30 21 30 27 0 34 -4 34 -20z"/>
<path d="M7905 6950 c-3 -5 -2 -10 4 -10 5 0 13 5 16 10 3 6 2 10 -4 10 -5 0
-13 -4 -16 -10z"/>
<path d="M7900 6869 c0 -5 5 -7 10 -4 6 3 10 8 10 11 0 2 -4 4 -10 4 -5 0 -10
-5 -10 -11z"/>
<path d="M10160 6591 c0 -4 -12 -25 -26 -46 -18 -27 -22 -41 -15 -48 18 -18
13 -32 -19 -50 -61 -36 -72 -69 -29 -82 11 -4 19 -14 17 -23 -3 -23 10 -42 29
-42 13 0 15 9 10 59 -6 50 -4 61 13 76 11 10 22 34 26 54 3 20 10 46 16 58 12
23 5 53 -12 53 -5 0 -10 -4 -10 -9z"/>
<path d="M5195 6330 c-69 -27 -179 -111 -212 -161 -15 -23 -32 -48 -38 -55 -7
-9 7 -29 50 -72 60 -59 115 -124 115 -136 0 -3 -6 -6 -14 -6 -18 0 -21 -22
-25 -170 -2 -122 -3 -126 -37 -183 -35 -60 -45 -93 -20 -67 28 29 64 116 71
168 5 40 13 57 31 69 29 19 31 33 4 33 -24 0 -27 28 -4 56 10 13 17 15 20 7
10 -22 45 -63 56 -63 13 0 5 62 -13 110 -22 56 -74 124 -140 184 -69 62 -70
48 4 139 47 57 149 117 198 117 19 0 51 -4 72 -9 31 -7 39 -6 46 8 15 27 0 38
-59 44 -42 5 -67 2 -105 -13z"/>
<path d="M9690 6274 c0 -8 11 -35 25 -58 29 -50 26 -68 -20 -95 -48 -28 -65
-87 -40 -139 l18 -37 13 43 c16 52 75 122 118 139 20 8 58 10 107 7 59 -5 82
-3 108 10 48 25 119 147 79 134 -7 -2 -26 -25 -43 -51 l-30 -47 -89 0 -89 0 6
41 c6 45 0 72 -14 63 -5 -3 -9 -14 -9 -25 0 -29 -28 -79 -44 -79 -8 0 -22 17
-31 38 -29 61 -65 93 -65 56z"/>
<path d="M9577 6226 c-8 -19 1 -26 35 -26 30 0 35 9 16 28 -16 16 -45 15 -51
-2z"/>
<path d="M8247 6114 l-37 -25 -27 20 c-32 26 -73 27 -105 2 -31 -25 -108 -124
-108 -139 0 -25 30 -10 44 21 7 17 30 47 49 66 41 39 76 38 95 -4 16 -34 34
-32 78 10 47 45 83 47 108 5 9 -17 16 -41 14 -54 -3 -26 20 -76 35 -76 6 0 26
6 45 12 32 12 35 11 61 -21 27 -32 51 -36 51 -7 0 19 -64 76 -85 76 -11 0 -29
-7 -39 -15 -32 -24 -37 -18 -30 35 6 47 5 51 -29 85 -42 42 -69 44 -120 9z"/>
<path d="M8960 6082 c0 -12 7 -25 15 -29 27 -10 30 6 7 30 l-22 21 0 -22z"/>
<path d="M9977 6057 c35 -32 36 -35 26 -73 -7 -27 -6 -45 1 -57 9 -13 3 -24
-29 -57 -43 -44 -42 -59 4 -36 16 9 37 16 46 16 24 0 29 28 11 66 -12 26 -13
40 -6 54 17 32 11 63 -17 92 -15 15 -37 28 -50 28 -21 0 -20 -2 14 -33z"/>
<path d="M9158 6042 c-91 -4 -91 -33 0 -36 31 -1 39 -6 51 -31 7 -16 20 -41
29 -55 8 -13 16 -42 16 -65 1 -39 2 -40 39 -43 38 -3 43 -10 28 -40 -22 -42
-52 -174 -46 -202 6 -26 4 -30 -17 -32 -13 0 -32 0 -43 1 -40 3 -46 51 -14
106 19 31 20 42 11 71 -9 30 -8 36 11 49 28 19 14 31 -19 16 -25 -11 -26 -15
-20 -57 5 -37 2 -52 -14 -74 -14 -19 -18 -40 -16 -75 3 -55 17 -69 77 -79 32
-5 55 -19 96 -59 l55 -53 -11 -69 c-6 -39 -18 -108 -27 -155 -9 -47 -16 -127
-16 -179 0 -92 -1 -96 -34 -139 -57 -75 -86 -146 -91 -220 -2 -37 0 -73 5 -81
16 -23 42 -5 42 29 0 112 144 319 293 422 32 22 61 46 64 54 3 8 14 14 24 14
10 0 32 8 49 19 25 15 39 17 76 10 78 -15 154 -6 201 24 24 15 48 27 56 27 28
0 227 235 227 269 0 20 -18 3 -73 -72 -74 -100 -106 -130 -191 -176 -63 -35
-82 -41 -133 -41 -33 0 -63 3 -66 6 -4 4 21 26 54 49 100 69 276 297 304 394
14 48 -20 14 -60 -60 -37 -66 -69 -114 -135 -201 -25 -33 -45 -37 -36 -8 3 11
9 29 12 40 11 36 -14 21 -41 -24 -37 -64 -128 -145 -230 -206 -49 -30 -118
-75 -153 -102 -35 -26 -69 -48 -76 -48 -7 0 -26 -10 -41 -22 l-28 -22 7 30 c4
16 12 67 16 114 5 47 11 96 14 110 3 14 10 61 17 105 7 44 15 87 20 95 10 20
-15 50 -64 79 -46 28 -62 54 -48 80 7 12 7 28 -1 49 -11 27 -8 44 16 119 16
49 37 107 47 129 18 41 18 43 -2 107 -18 58 -43 98 -53 86 -2 -2 3 -33 11 -69
23 -99 22 -103 -10 -104 -31 -2 -51 22 -41 48 3 8 -1 25 -10 38 -9 12 -16 36
-16 53 0 51 -16 60 -92 57z"/>
<path d="M10388 5992 c-21 -23 -38 -55 -42 -78 -4 -21 -14 -51 -22 -66 -17
-33 -18 -61 -2 -56 7 3 17 24 23 49 19 73 52 139 71 139 12 0 15 -6 10 -22 -3
-13 -9 -32 -12 -43 -3 -14 3 -28 20 -44 24 -22 27 -23 43 -8 10 8 30 20 45 26
23 9 29 7 38 -9 12 -23 0 -58 -29 -84 -26 -23 -27 -45 -3 -52 63 -21 70 -26
65 -47 -3 -12 -17 -34 -31 -49 -15 -17 -20 -28 -13 -28 9 0 11 -8 7 -24 -6
-25 8 -44 19 -26 3 5 11 10 16 10 14 0 -1 -50 -29 -92 -22 -33 -23 -66 -2 -53
16 10 40 -7 40 -29 0 -15 -13 -30 -40 -46 -22 -14 -40 -30 -40 -36 0 -16 28
-26 51 -19 24 8 25 -20 4 -71 -18 -44 -64 -65 -123 -57 -44 6 -54 -5 -27 -27
27 -23 18 -70 -20 -106 -44 -41 -87 -50 -151 -31 -46 13 -49 16 -52 51 -3 31
-6 35 -18 25 -16 -13 -18 -56 -5 -78 11 -18 97 -51 131 -51 36 0 125 44 144
71 9 13 21 40 26 61 8 26 18 39 39 46 31 11 94 82 111 127 10 26 8 31 -12 46
l-23 17 23 40 c28 50 28 60 0 90 l-23 24 31 26 c27 24 30 31 23 67 -3 22 -13
44 -21 49 -13 8 -13 15 0 57 15 47 15 48 -13 88 -22 32 -25 44 -16 55 20 24 2
63 -38 84 -27 14 -42 17 -55 10 -27 -15 -47 9 -44 54 1 26 -3 43 -13 49 -21
13 -24 12 -61 -29z"/>
<path d="M4761 5986 c-13 -16 -4 -46 14 -46 19 0 38 28 31 45 -7 19 -30 19
-45 1z"/>
<path d="M10123 5947 c-45 -34 -52 -47 -28 -47 16 0 85 57 85 71 0 15 -14 10
-57 -24z"/>
<path d="M10230 5941 c0 -11 -3 -26 -6 -35 -4 -11 -1 -16 10 -16 9 0 16 6 16
13 0 6 3 22 6 35 5 16 2 22 -10 22 -9 0 -16 -8 -16 -19z"/>
<path d="M10257 5880 c-20 -24 -37 -51 -37 -60 0 -10 -9 -29 -20 -43 -21 -26
-14 -42 14 -31 23 9 20 -13 -4 -26 -23 -12 -27 -40 -5 -40 17 0 65 67 65 92 0
9 -4 20 -10 23 -15 9 -13 18 16 60 40 59 26 77 -19 25z"/>
<path d="M4941 5884 c-29 -21 -27 -44 4 -44 20 0 45 24 45 43 0 13 -30 14 -49
1z"/>
<path d="M5645 5839 c4 -60 15 -67 28 -18 7 26 5 36 -12 52 l-20 21 4 -55z"/>
<path d="M5025 5787 c-8 -20 -15 -54 -15 -75 0 -32 -5 -41 -25 -50 -15 -7 -25
-20 -25 -32 0 -15 7 -20 25 -20 14 0 25 -3 25 -8 0 -4 -20 -40 -46 -81 -51
-82 -55 -121 -5 -48 55 81 73 132 81 241 5 56 6 103 4 105 -2 2 -11 -12 -19
-32z"/>
<path d="M4580 5795 c-15 -18 -6 -45 13 -45 20 0 40 27 33 45 -7 19 -30 19
-46 0z"/>
<path d="M5296 5790 c-28 -11 -57 -26 -65 -35 -14 -13 -13 -15 7 -15 28 0 122
47 122 60 0 13 -7 12 -64 -10z"/>
<path d="M4752 5708 c-18 -18 -14 -28 8 -28 11 0 20 6 20 14 0 21 -15 27 -28
14z"/>
<path d="M5246 5684 c-19 -18 -17 -39 4 -39 20 0 37 32 24 45 -8 8 -16 7 -28
-6z"/>
<path d="M4443 5576 c-62 -32 -67 -39 -44 -67 l19 -24 61 21 c34 12 61 17 61
12 0 -5 -8 -11 -17 -15 -71 -24 -106 -44 -95 -55 8 -8 28 -3 79 23 54 27 67
38 65 54 -6 30 -9 31 -63 11 -28 -9 -53 -15 -56 -12 -9 9 6 24 31 30 14 3 38
11 53 17 l28 12 -25 7 c-37 12 -51 10 -97 -14z"/>
<path d="M4620 5571 c0 -38 36 -55 59 -28 8 10 7 17 -1 25 -14 14 -58 16 -58
3z"/>
<path d="M5133 5568 c-27 -13 -28 -18 -9 -44 15 -19 15 -19 37 3 13 12 19 28
16 37 -7 18 -13 19 -44 4z"/>
<path d="M4832 5548 c-16 -16 -15 -33 2 -47 10 -9 19 -7 37 9 24 20 24 20 5
35 -24 18 -29 18 -44 3z"/>
<path d="M3759 5527 c11 -14 11 -18 -5 -23 -121 -39 -144 -70 -49 -67 l60 3
-52 -25 c-57 -27 -72 -42 -49 -51 25 -9 19 -24 -21 -60 -54 -47 -35 -57 52
-30 111 36 135 51 135 86 0 23 6 33 25 42 14 6 25 19 25 30 0 12 7 18 21 18
12 0 18 4 13 11 -5 8 -32 9 -90 5 -50 -4 -84 -3 -84 2 0 12 69 24 144 26 76 1
85 21 14 30 -29 3 -75 9 -103 13 -46 6 -49 5 -36 -10z m21 -186 c0 -9 -34 -21
-64 -21 -15 0 -16 3 -6 15 13 16 70 21 70 6z"/>
<path d="M4217 5522 c-23 -25 -21 -39 4 -45 24 -6 74 36 64 53 -10 16 -51 11
-68 -8z"/>
<path d="M4559 5472 c-20 -15 -53 -36 -73 -47 -20 -11 -36 -23 -36 -27 0 -15
31 -8 60 14 16 12 33 19 36 15 9 -9 -15 -37 -32 -37 -8 0 -14 -7 -14 -15 0 -8
4 -15 9 -15 5 0 14 7 21 15 16 19 47 19 57 0 8 -13 15 -13 61 2 56 18 64 28
32 38 -11 3 -20 13 -20 21 0 11 -6 13 -19 9 -25 -8 -35 9 -16 25 46 38 -16 40
-66 2z"/>
<path d="M8965 5439 c-20 -44 -58 -79 -85 -79 -10 0 -23 -6 -29 -14 -10 -12
-9 -17 6 -24 20 -10 83 11 83 27 0 5 11 23 25 39 26 31 45 92 28 92 -6 0 -18
-18 -28 -41z"/>
<path d="M3947 5443 c-11 -10 -8 -51 4 -58 12 -8 49 22 49 40 0 19 -39 32 -53
18z"/>
<path d="M4772 5403 c4 -34 32 -42 48 -13 14 26 5 40 -26 40 -22 0 -25 -4 -22
-27z"/>
<path d="M5040 5405 c-13 -16 -7 -45 9 -45 5 0 17 7 26 16 12 12 13 19 4 30
-15 18 -24 18 -39 -1z"/>
<path d="M4335 5371 c-3 -5 -1 -12 5 -16 5 -3 10 1 10 9 0 18 -6 21 -15 7z"/>
<path d="M4102 5348 c-19 -19 -15 -48 8 -48 21 0 45 34 35 50 -8 14 -28 13
-43 -2z"/>
<path d="M4546 5351 c-3 -4 0 -16 7 -25 10 -14 18 -15 40 -7 16 6 36 11 45 11
26 0 -1 -22 -50 -40 -45 -16 -59 -36 -33 -46 28 -11 92 25 109 61 29 60 24 63
-69 39 -20 -5 -26 -4 -21 5 4 6 1 11 -8 11 -8 0 -17 -4 -20 -9z"/>
<path d="M10340 5313 c0 -5 -34 -45 -76 -91 -66 -71 -83 -84 -130 -98 -31 -9
-67 -13 -84 -9 -41 9 -57 -3 -30 -22 28 -20 93 -13 155 17 32 16 67 46 109 97
73 90 79 100 66 108 -5 3 -10 2 -10 -2z"/>
<path d="M8895 5291 c-19 -8 -19 -8 0 -19 20 -11 20 -12 -2 -51 -36 -63 -27
-76 31 -46 15 8 38 15 50 14 20 0 20 -1 2 -12 -10 -7 -46 -34 -80 -62 -75 -61
-55 -75 31 -21 55 34 81 39 66 11 -9 -16 -89 -75 -102 -75 -5 0 -11 -7 -15
-15 -4 -11 1 -15 19 -15 31 0 31 -7 3 -37 l-21 -23 21 0 c11 0 32 10 46 23 34
30 85 147 75 172 -4 11 -5 30 -2 43 8 34 -12 51 -53 45 -37 -6 -40 -2 -22 26
13 21 5 51 -14 50 -7 0 -22 -4 -33 -8z"/>
<path d="M3925 5246 c-21 -15 -15 -46 9 -46 15 0 36 29 36 49 0 15 -23 14 -45
-3z"/>
<path d="M4627 5242 c-10 -10 -14 -21 -11 -25 9 -9 44 16 44 30 0 18 -14 16
-33 -5z"/>
<path d="M4821 5203 c-24 -62 -22 -82 3 -34 27 51 36 80 27 85 -5 3 -18 -20
-30 -51z"/>
<path d="M4370 5225 c-16 -19 -5 -47 16 -43 27 5 42 37 24 48 -20 13 -26 12
-40 -5z"/>
<path d="M4860 5188 c-52 -92 -37 -104 35 -27 46 49 47 53 30 65 -28 21 -32
18 -65 -38z"/>
<path d="M4175 5170 c-17 -19 -17 -22 -3 -36 14 -14 17 -13 36 14 31 43 3 61
-33 22z"/>
<path d="M3729 5161 c-86 -34 -109 -52 -109 -88 0 -39 2 -40 43 -11 18 13 55
35 82 49 32 17 50 32 50 44 0 26 -13 27 -66 6z"/>
<path d="M3743 5090 c-16 -9 -52 -40 -79 -68 -27 -27 -58 -51 -69 -53 -23 -5
-23 -20 -1 -34 13 -8 29 3 79 56 34 37 77 74 95 83 36 18 38 22 18 29 -7 3
-27 -3 -43 -13z"/>
<path d="M3760 5034 c-44 -29 -109 -97 -103 -107 3 -5 23 8 44 29 32 31 39 35
45 21 4 -10 -5 -30 -25 -54 -47 -56 -25 -55 25 2 50 58 57 43 14 -30 -29 -50
-38 -85 -21 -85 5 0 16 19 25 43 10 23 31 62 48 86 29 41 30 44 10 39 -31 -9
-28 16 4 37 21 13 24 19 13 26 -22 13 -52 11 -79 -7z m20 -34 c0 -5 -4 -10
-10 -10 -5 0 -10 5 -10 10 0 6 5 10 10 10 6 0 10 -4 10 -10z"/>
<path d="M3490 4996 c-7 -10 -8 -21 -3 -31 8 -13 12 -13 28 -2 11 9 16 20 12
31 -8 20 -21 21 -37 2z"/>
<path d="M3936 4931 c-36 -69 -66 -152 -66 -178 0 -39 18 -25 25 18 4 22 21
66 37 97 41 78 49 100 38 107 -5 3 -21 -16 -34 -44z"/>
<path d="M4302 4955 c1 -16 9 -30 16 -33 18 -6 15 33 -4 49 -14 11 -15 9 -12
-16z"/>
<path d="M3838 4939 c-35 -45 -70 -129 -63 -147 8 -21 19 -5 33 44 7 23 23 58
37 79 33 48 27 69 -7 24z"/>
<path d="M3891 4938 c-14 -22 -61 -154 -61 -170 0 -24 19 8 39 64 19 54 30 82
49 121 8 17 -14 5 -27 -15z"/>
<path d="M4086 4943 c-20 -71 -16 -231 5 -217 5 3 9 47 9 98 0 51 3 96 8 100
4 4 12 -25 17 -66 11 -84 32 -91 27 -9 -3 37 -1 51 7 47 6 -4 11 -22 11 -41 0
-19 5 -37 10 -40 7 -5 10 16 8 62 -3 62 -5 68 -25 68 -11 0 -25 3 -29 8 -14
13 -43 7 -48 -10z"/>
<path d="M3315 4901 c-85 -40 -149 -87 -139 -102 3 -5 22 4 42 19 20 16 74 48
120 71 45 23 82 43 82 46 0 11 -29 2 -105 -34z"/>
<path d="M4220 4885 c0 -30 5 -55 10 -55 6 0 10 25 10 55 0 30 -4 55 -10 55
-5 0 -10 -25 -10 -55z"/>
<path d="M5018 4933 c7 -3 16 -2 19 1 4 3 -2 6 -13 5 -11 0 -14 -3 -6 -6z"/>
<path d="M8697 4895 c-10 -14 -24 -25 -32 -25 -8 0 -15 -7 -15 -15 0 -8 5 -15
11 -15 14 0 69 55 69 69 0 18 -14 12 -33 -14z"/>
<path d="M3299 4839 c-100 -61 -133 -89 -120 -102 7 -7 34 8 77 41 105 82 112
66 12 -27 -32 -29 -58 -57 -58 -62 0 -23 28 -2 115 85 68 69 90 97 82 105 -16
16 -16 16 -108 -40z"/>
<path d="M8818 4804 c-18 -20 -49 -44 -68 -54 -40 -21 -76 -57 -66 -67 17 -18
134 61 166 112 36 58 17 63 -32 9z"/>
<path d="M3355 4757 c-39 -34 -87 -76 -108 -92 -28 -22 -36 -35 -32 -48 10
-23 15 -22 87 20 99 58 181 143 137 143 -6 0 -8 9 -4 20 10 31 -5 23 -80 -43z
m55 -4 c0 -16 -45 -53 -64 -53 -17 0 -15 4 14 30 35 29 50 36 50 23z m-83 -79
c-3 -3 -12 -4 -19 -1 -8 3 -5 6 6 6 11 1 17 -2 13 -5z"/>
<path d="M3550 4783 c0 -14 19 -38 25 -32 8 8 -5 39 -16 39 -5 0 -9 -3 -9 -7z"/>
<path d="M7086 4752 c-3 -5 2 -22 11 -38 8 -16 15 -48 14 -71 -1 -24 3 -52 10
-65 10 -18 8 -24 -6 -35 -18 -12 -18 -13 0 -33 21 -23 13 -37 -24 -42 -32 -4
-40 -28 -9 -28 46 0 48 -16 4 -28 -56 -15 -67 -39 -31 -68 20 -15 25 -27 21
-41 -9 -28 14 -44 76 -52 39 -4 54 -11 56 -23 4 -22 -28 -23 -73 -4 -25 10
-36 10 -67 -2 -21 -8 -38 -21 -38 -28 0 -8 -11 -16 -25 -20 -26 -6 -32 -18
-14 -29 6 -4 -5 -20 -27 -39 l-37 -32 44 -13 c24 -7 52 -15 62 -17 9 -3 17 -1
17 5 0 5 -13 12 -30 16 -16 4 -30 9 -30 12 0 3 14 23 31 44 33 42 59 51 59 20
0 -28 13 -33 39 -14 17 11 21 21 17 39 -6 23 -4 24 38 24 49 0 71 18 61 49 -4
14 0 23 15 31 29 16 25 35 -17 69 l-38 31 42 0 c54 0 73 8 73 31 0 23 1 23
-39 3 -34 -17 -94 -13 -107 7 -9 15 1 22 33 24 72 5 68 3 49 24 -16 17 -16 19
6 25 13 3 33 6 46 6 46 0 20 19 -35 25 -75 8 -83 11 -83 31 0 13 6 15 28 10
15 -3 43 -9 62 -12 58 -9 11 20 -56 35 -36 8 -52 16 -44 21 7 4 31 2 54 -6 22
-8 46 -12 53 -10 25 10 12 24 -28 30 -64 10 -99 32 -99 62 0 51 -46 106 -64
76z m134 -273 c0 -11 -27 -12 -34 0 -3 4 -3 11 0 14 8 8 34 -3 34 -14z m-1
-150 c35 -33 26 -42 -30 -36 -62 8 -65 10 -51 41 12 28 48 26 81 -5z"/>
<path d="M2980 4719 c-39 -23 -110 -89 -110 -101 0 -16 20 -7 49 21 17 16 50
43 76 61 25 17 45 33 45 35 0 11 -27 3 -60 -16z"/>
<path d="M3416 4680 c-107 -72 -169 -130 -138 -130 4 0 30 19 57 41 28 23 74
55 103 71 28 17 52 36 52 44 0 20 -8 17 -74 -26z"/>
<path d="M2985 4659 c-79 -64 -108 -93 -96 -97 12 -4 161 114 161 129 0 16
-13 9 -65 -32z"/>
<path d="M3437 4629 c-72 -54 -102 -90 -94 -111 3 -8 23 6 53 38 27 28 66 63
87 78 34 25 48 46 30 46 -5 0 -39 -23 -76 -51z"/>
<path d="M3487 4608 c-70 -84 -98 -131 -86 -143 8 -7 16 -3 27 15 10 13 41 56
70 95 28 38 52 73 52 77 0 20 -22 4 -63 -44z"/>
<path d="M2989 4594 c-63 -53 -80 -74 -73 -86 6 -9 24 4 109 80 45 39 54 52
39 52 -11 0 -45 -21 -75 -46z"/>
<path d="M3553 4608 c-27 -31 -113 -147 -113 -153 0 -13 29 -3 41 13 8 11 35
47 62 82 26 34 47 66 47 71 0 16 -16 10 -37 -13z"/>
<path d="M3040 4559 c-19 -16 -54 -43 -77 -60 -40 -28 -55 -49 -34 -49 17 0
161 113 161 127 0 20 -11 16 -50 -18z"/>
<path d="M4650 4582 c0 -4 7 -35 16 -67 9 -33 23 -85 30 -115 l14 -55 -4 77
c-3 47 -12 94 -25 122 -18 42 -31 58 -31 38z"/>
<path d="M3045 4491 c-57 -33 -101 -76 -87 -85 5 -3 29 9 53 28 24 18 59 41
77 50 18 9 30 21 27 26 -9 14 -15 13 -70 -19z"/>
<path d="M9213 4493 c-20 -7 -83 -101 -83 -123 0 -43 40 -12 85 65 26 44 25
68 -2 58z"/>
<path d="M3120 4462 c-40 -19 -140 -112 -140 -130 0 -7 7 -12 15 -12 8 0 15 4
15 9 0 16 90 99 121 111 16 7 29 19 29 26 0 17 3 17 -40 -4z"/>
<path d="M8147 4463 c-4 -3 -7 -14 -7 -23 0 -8 -20 -33 -45 -54 -35 -29 -50
-36 -68 -30 -40 14 -147 11 -147 -4 0 -17 12 -20 94 -26 84 -5 97 -1 165 61
52 47 53 48 34 66 -11 9 -23 14 -26 10z"/>
<path d="M2765 4448 c-32 -17 -85 -71 -85 -85 0 -21 14 -15 46 18 16 17 46 40
67 50 20 11 37 22 37 24 0 9 -45 4 -65 -7z"/>
<path d="M3088 4360 c-55 -57 -76 -96 -43 -84 8 4 15 10 15 14 0 4 25 33 55
63 30 30 55 58 55 61 0 19 -31 -1 -82 -54z"/>
<path d="M2746 4370 c-36 -40 -44 -64 -26 -75 6 -3 10 -1 10 5 0 6 21 33 46
60 39 42 43 50 27 50 -12 0 -37 -18 -57 -40z"/>
<path d="M2819 4363 c-23 -25 -49 -90 -49 -123 0 -23 28 9 35 40 4 16 17 45
31 65 13 20 24 38 24 40 0 13 -19 2 -41 -22z"/>
<path d="M3146 4313 c-31 -37 -56 -74 -56 -83 1 -10 9 -5 26 15 112 133 114
135 95 135 -5 0 -35 -30 -65 -67z"/>
<path d="M3232 4343 c-21 -8 -104 -132 -100 -150 2 -14 9 -10 27 17 14 19 42
56 63 81 46 57 49 68 10 52z"/>
<path d="M9005 4279 c-33 -33 -82 -72 -110 -86 -27 -14 -59 -33 -70 -43 -11
-10 -49 -27 -85 -39 -36 -11 -92 -37 -125 -57 -33 -20 -98 -54 -143 -75 -108
-50 -196 -113 -300 -213 -108 -104 -137 -152 -128 -212 l6 -44 -45 0 c-50 0
-54 6 -25 43 24 30 25 37 5 37 -8 0 -30 -21 -50 -47 -40 -53 -76 -79 -117 -89
-16 -3 -40 -21 -55 -40 -20 -27 -32 -34 -52 -32 -26 3 -26 4 -25 81 1 67 -1
78 -15 75 -23 -5 -44 -75 -36 -124 3 -22 15 -58 27 -80 17 -31 22 -62 25 -154
5 -143 -11 -131 -31 24 -8 57 -20 114 -28 125 -15 21 -15 21 -26 -5 -7 -13
-12 -39 -12 -57 0 -18 -5 -39 -10 -47 -7 -10 -10 18 -10 88 0 61 -4 102 -10
102 -5 0 -10 -16 -10 -36 0 -33 -2 -36 -22 -30 -13 3 -26 6 -30 6 -14 0 -9 27
7 40 22 18 18 40 -6 40 -18 0 -20 4 -14 31 7 30 6 31 -20 25 -17 -4 -24 -3
-20 4 3 5 3 15 -1 21 -4 7 -19 -2 -40 -22 -25 -24 -34 -28 -34 -17 0 9 5 20
10 23 19 12 -1 25 -27 18 l-27 -6 27 46 c15 25 23 48 19 51 -5 3 -31 -8 -57
-25 -55 -35 -68 -31 -37 11 22 29 29 55 15 48 -5 -2 -20 -10 -36 -17 -15 -8
-30 -11 -33 -8 -11 11 17 36 33 30 12 -5 14 -1 9 14 -4 12 -1 25 9 33 8 7 15
22 15 34 1 32 21 52 60 61 19 4 56 25 81 46 43 35 51 38 90 33 54 -6 108 18
127 59 11 22 20 27 51 27 51 0 128 49 137 87 3 15 10 45 15 66 6 20 7 42 3 48
-9 15 -56 -81 -50 -103 6 -25 -12 -34 -76 -42 -55 -6 -58 -5 -87 26 -27 29
-31 30 -37 14 -7 -17 -3 -31 20 -87 10 -23 -20 -49 -56 -49 -16 0 -52 12 -79
27 -38 22 -51 25 -60 16 -10 -10 -9 -17 4 -31 25 -28 21 -44 -19 -70 -37 -24
-53 -25 -128 -6 -27 6 -29 5 -22 -17 22 -69 2 -83 -67 -50 -23 11 -58 24 -76
27 -29 6 -33 5 -28 -9 8 -23 -2 -47 -19 -47 -8 0 -26 -7 -39 -16 -23 -15 -29
-15 -76 1 -73 23 -82 5 -37 -70 20 -33 23 -89 9 -128 -13 -34 -61 -44 -100
-21 l-29 17 -82 -58 c-71 -50 -84 -56 -92 -42 -10 19 -26 21 -48 7 -13 -8 -12
-11 5 -24 19 -14 19 -15 2 -16 -11 0 -17 -6 -14 -12 2 -8 21 -13 45 -12 30 0
58 12 108 45 58 37 77 44 138 50 89 8 106 26 106 111 0 33 -5 68 -11 80 -13
24 -14 24 39 31 41 5 42 4 42 -24 0 -34 17 -37 53 -9 37 29 66 23 36 -7 -7 -7
-9 -19 -5 -28 5 -15 9 -14 37 5 34 25 50 19 31 -10 -21 -33 -15 -53 13 -48 29
6 32 -7 9 -33 -31 -34 11 -53 53 -24 24 17 44 2 24 -18 -17 -17 76 -100 105
-94 36 6 37 -21 4 -61 -16 -20 -30 -45 -30 -56 0 -16 6 -18 44 -14 l45 5 15
-71 c13 -64 20 -136 31 -351 6 -105 35 -407 40 -416 3 -4 7 -58 9 -121 7 -168
24 -349 45 -473 18 -104 33 -347 47 -730 9 -269 13 -329 24 -381 11 -46 9 -81
-15 -259 -6 -43 -7 -187 -3 -220 2 -16 -3 -21 -27 -23 -59 -5 -75 -12 -75 -32
0 -10 4 -21 9 -25 11 -6 162 18 180 29 19 12 12 36 -13 46 -23 9 -24 10 -19
122 4 85 10 124 25 157 23 47 23 13 -8 619 -3 61 -10 114 -14 117 -5 3 -7 107
-4 231 2 124 1 230 -2 235 -4 6 -11 6 -19 -1 -11 -9 -14 4 -19 67 -3 43 -13
106 -21 140 -9 35 -22 176 -30 315 -8 139 -20 269 -26 288 -19 56 -15 325 6
380 9 25 19 57 22 73 10 54 23 37 23 -30 0 -37 4 -74 9 -82 15 -24 24 7 23 85
-1 72 9 97 22 52 6 -24 26 -332 26 -403 0 -22 4 -141 9 -265 9 -241 26 -389
47 -405 8 -6 18 -53 24 -115 16 -145 27 -198 49 -236 19 -32 19 -37 4 -136
-15 -91 -15 -129 -4 -328 7 -124 17 -256 22 -295 6 -38 12 -126 14 -195 3
-115 12 -175 49 -334 20 -82 51 -112 114 -108 71 5 99 6 327 2 130 -1 220 1
236 8 15 6 102 11 196 11 93 0 177 3 186 7 26 9 20 31 -9 38 -30 8 -573 -11
-644 -21 -25 -4 -52 -6 -60 -5 -8 2 -70 3 -137 3 l-123 0 -15 30 c-9 16 -20
77 -25 137 -10 123 -9 97 -14 437 -5 317 -16 426 -45 466 -24 33 -28 106 -10
221 10 66 10 72 -15 119 -20 39 -23 55 -16 75 20 51 13 100 -40 304 -5 20 -21
103 -35 185 -25 149 -25 151 -10 290 17 152 14 282 -11 444 -11 73 -12 107 -3
154 6 35 8 90 4 129 -7 66 -6 69 25 108 36 45 114 89 206 115 76 22 87 31 71
56 -10 16 -8 21 11 34 12 9 22 23 22 31 0 49 38 83 191 174 83 49 189 121 189
128 0 4 20 20 45 35 25 16 45 33 45 38 0 22 -52 -4 -141 -72 -144 -109 -230
-146 -149 -64 25 25 65 55 90 67 25 12 73 39 108 60 34 21 67 38 73 38 6 0 25
12 44 26 18 14 80 45 137 69 57 24 135 61 173 82 81 44 178 134 173 160 -6 34
-34 23 -93 -38z m-1857 -538 c10 -6 5 -14 -21 -30 -19 -11 -37 -21 -41 -21
-15 0 -4 29 17 43 26 19 28 19 45 8z m100 -11 c23 0 12 -16 -24 -34 -42 -20
-49 -17 -40 20 6 21 11 25 29 20 12 -3 28 -6 35 -6z m495 -501 c-4 -124 -22
-186 -24 -84 0 33 -4 87 -9 120 -6 49 -5 62 8 72 8 7 18 10 22 8 4 -2 5 -55 3
-116z m-293 97 c0 -3 -4 -8 -10 -11 -5 -3 -10 -1 -10 4 0 6 5 11 10 11 6 0 10
-2 10 -4z m98 -97 c-2 -80 -12 -113 -20 -61 -6 43 3 142 13 142 5 0 8 -36 7
-81z m85 11 c8 -29 -18 -199 -33 -213 -10 -10 -11 4 -6 68 10 117 17 165 26
165 4 0 10 -9 13 -20z"/>
<path d="M2851 4295 c-37 -42 -65 -94 -56 -103 6 -7 19 6 72 77 50 64 36 85
-16 26z"/>
<path d="M3221 4252 c-55 -52 -74 -82 -53 -82 4 0 39 32 77 70 85 86 64 96
-24 12z"/>
<path d="M2893 4262 c-30 -25 -72 -100 -73 -129 0 -28 20 -10 40 35 12 26 35
61 51 78 39 40 25 51 -18 16z"/>
<path d="M3333 4256 c-9 -15 -128 -98 -156 -109 -10 -4 -16 -11 -12 -16 3 -6
13 -7 23 -4 35 13 192 125 186 134 -8 14 -32 11 -41 -5z"/>
<path d="M4832 4235 c0 -16 2 -22 5 -12 2 9 2 23 0 30 -3 6 -5 -1 -5 -18z"/>
<path d="M2579 4212 c-20 -20 -48 -45 -63 -56 -32 -21 -22 -45 12 -27 32 17
35 13 13 -15 -22 -28 -28 -54 -12 -54 5 0 29 24 54 54 38 44 46 59 44 89 -2
20 -5 38 -8 41 -3 3 -21 -11 -40 -32z"/>
<path d="M2926 4207 c-14 -19 -26 -38 -26 -42 0 -5 -7 -16 -16 -26 -9 -10 -11
-19 -5 -23 5 -4 28 20 50 53 43 63 40 95 -3 38z"/>
<path d="M2936 4128 c-77 -92 -62 -113 17 -24 31 36 57 69 57 75 0 26 -20 12
-74 -51z"/>
<path d="M2598 4098 c-40 -49 -62 -87 -54 -95 8 -9 25 7 64 60 53 72 55 77 39
77 -8 0 -30 -19 -49 -42z"/>
<path d="M2984 4088 c-53 -49 -89 -96 -80 -106 7 -6 146 127 146 140 0 18 -23
6 -66 -34z"/>
<path d="M7775 4110 c-4 -6 -23 -9 -43 -8 -28 2 -37 -1 -37 -12 0 -17 35 -25
71 -16 28 7 54 46 30 46 -8 0 -18 -5 -21 -10z"/>
<path d="M2631 4045 c-51 -55 -69 -91 -54 -106 8 -8 15 -4 23 12 7 13 32 47
56 76 24 28 44 54 44 57 0 19 -33 0 -69 -39z"/>
<path d="M4917 4053 c-7 -11 70 -398 84 -424 6 -12 21 -62 34 -112 13 -51 37
-131 53 -178 17 -47 35 -112 42 -145 7 -32 18 -79 25 -104 7 -25 20 -72 28
-105 9 -33 31 -112 51 -176 19 -64 38 -136 41 -160 4 -24 15 -87 25 -139 10
-52 23 -140 30 -195 17 -158 22 -185 30 -185 16 0 19 48 9 140 -9 85 -24 172
-75 433 -8 42 -30 123 -48 180 -18 56 -48 162 -66 236 -18 73 -50 179 -71 235
-22 55 -39 109 -39 118 0 9 -18 70 -39 135 -21 65 -47 163 -57 218 -9 55 -22
128 -28 162 -11 62 -20 81 -29 66z"/>
<path d="M2655 3998 c-46 -54 -56 -108 -21 -108 7 0 16 -9 19 -20 5 -20 27
-29 27 -11 0 5 16 30 35 55 19 26 35 48 35 51 0 14 -25 1 -50 -27 -16 -17 -32
-29 -36 -25 -9 9 14 62 37 83 24 22 24 34 0 34 -11 0 -31 -14 -46 -32z"/>
<path d="M2746 3901 c-36 -58 -45 -91 -26 -91 5 0 19 19 31 43 12 23 30 53 40
66 23 28 24 41 5 41 -8 0 -31 -26 -50 -59z"/>
<path d="M6630 3930 c0 -5 7 -10 16 -10 8 0 12 5 9 10 -3 6 -10 10 -16 10 -5
0 -9 -4 -9 -10z"/>
<path d="M2822 3894 c-30 -21 -84 -102 -77 -114 11 -18 35 -11 35 11 0 11 13
32 28 47 41 39 54 59 44 66 -5 3 -18 -2 -30 -10z"/>
<path d="M6441 3892 c-5 -10 -6 -23 -2 -30 9 -15 51 12 51 34 0 20 -37 17 -49
-4z"/>
<path d="M2486 3841 c-9 -16 -27 -43 -41 -60 -21 -24 -25 -37 -20 -61 4 -16
12 -30 19 -30 7 0 42 27 77 59 45 42 61 62 54 70 -8 8 -25 -4 -60 -39 -68 -69
-85 -63 -30 12 41 56 48 78 25 78 -5 0 -16 -13 -24 -29z"/>
<path d="M2547 3732 c-59 -59 -66 -72 -44 -72 13 0 127 110 127 123 0 20 -32
1 -83 -51z"/>
<path d="M4880 3780 c-1 -36 50 -380 73 -490 18 -89 20 -22 2 76 -17 95 -28
166 -46 309 -10 82 -28 146 -29 105z"/>
<path d="M6697 3779 c-10 -6 -28 -10 -40 -9 -12 1 -48 2 -79 1 -59 -1 -73 -13
-42 -36 14 -10 11 -19 -30 -82 -53 -83 -83 -109 -140 -124 -22 -6 -62 -22 -88
-35 -40 -20 -48 -29 -48 -53 0 -34 37 -53 152 -76 83 -17 143 -10 143 16 0 11
-12 13 -50 11 -27 -2 -83 4 -122 13 -92 21 -98 41 -20 73 67 28 71 28 117 -9
25 -20 46 -29 61 -27 22 4 22 5 -13 27 -45 27 -49 40 -10 33 26 -5 26 -4 10
15 -24 26 -23 30 13 71 18 20 42 60 55 89 21 46 28 53 52 53 15 0 33 5 40 12
8 8 15 8 28 -3 14 -11 18 -11 30 6 15 20 19 45 7 45 -5 0 -16 -5 -26 -11z"/>
<path d="M4692 3675 c0 -60 3 -130 7 -155 8 -40 8 -36 8 35 0 44 -3 114 -7
155 -7 75 -7 74 -8 -35z"/>
<path d="M6746 3764 c-3 -9 -6 -19 -6 -24 0 -14 57 -32 91 -28 37 3 42 23 6
23 -13 0 -26 9 -32 23 -11 26 -50 30 -59 6z"/>
<path d="M4252 3740 c-16 -25 -15 -31 2 -24 10 4 15 -7 20 -39 9 -61 10 -813
1 -828 -4 -6 -8 -102 -9 -213 -2 -179 -5 -209 -24 -269 -13 -37 -20 -72 -16
-78 10 -16 21 5 45 84 25 85 32 278 31 852 -2 492 -10 578 -50 515z"/>
<path d="M4837 3535 c3 -49 7 -117 9 -150 2 -33 10 -96 19 -140 9 -44 18 -93
21 -110 10 -61 46 -275 84 -496 6 -30 10 -66 10 -80 0 -67 90 -329 113 -329
12 0 1 59 -15 78 -23 27 -72 232 -88 362 -13 110 -75 466 -106 610 -8 36 -14
82 -14 104 0 41 -16 148 -31 206 -6 24 -7 6 -2 -55z"/>
<path d="M4713 3430 c0 -25 2 -35 4 -22 2 12 2 32 0 45 -2 12 -4 2 -4 -23z"/>
<path d="M4166 3313 c-34 -543 -42 -988 -17 -988 12 0 15 58 17 345 2 190 8
423 14 519 12 211 12 231 1 231 -4 0 -11 -48 -15 -107z"/>
<path d="M5950 3200 c0 -14 43 -82 95 -150 23 -30 58 -86 78 -125 41 -77 94
-149 175 -234 123 -130 341 -431 488 -673 49 -82 95 -148 102 -148 15 0 -10
52 -76 154 -25 39 -56 90 -68 113 -37 68 -163 253 -204 297 -20 23 -55 68 -77
101 -22 33 -84 110 -138 170 -118 133 -148 173 -185 245 -15 30 -51 83 -78
117 -28 34 -60 80 -73 103 -22 38 -39 52 -39 30z"/>
<path d="M10536 2426 c-19 -33 -24 -52 -20 -78 4 -19 1 -44 -5 -55 -18 -35
-62 -215 -56 -234 9 -27 -11 -32 -65 -14 -60 20 -101 10 -181 -44 -39 -27 -62
-52 -82 -91 -27 -53 -28 -60 -24 -165 3 -76 10 -127 24 -165 18 -50 19 -59 6
-95 -44 -121 -35 -314 19 -441 29 -69 30 -72 14 -103 -10 -18 -20 -53 -23 -79
-4 -41 0 -59 30 -122 20 -41 47 -87 60 -101 31 -32 43 -55 51 -98 5 -30 29
-60 48 -61 4 0 17 18 28 40 11 22 23 40 25 40 3 0 12 -18 21 -39 8 -22 23 -42
32 -46 22 -8 56 34 78 95 9 25 24 65 34 90 10 25 21 61 25 80 4 19 16 41 26
48 34 24 77 115 88 189 13 84 4 192 -16 200 -22 9 -25 -2 -13 -45 7 -29 7 -61
0 -114 -16 -106 -28 -136 -74 -186 -28 -30 -41 -54 -43 -77 -1 -18 -8 -49 -17
-68 -11 -29 -23 -38 -56 -48 -53 -16 -62 -6 -85 94 -25 108 -5 209 51 268 15
16 21 29 15 33 -16 10 -79 -51 -91 -89 -6 -19 -16 -35 -22 -35 -6 0 -31 12
-55 28 -34 21 -53 43 -79 94 -42 84 -43 98 -5 98 21 0 32 -6 36 -20 7 -23 35
-27 35 -6 0 24 17 27 50 9 29 -17 31 -17 41 0 11 18 64 24 74 7 9 -15 35 -12
35 4 0 22 17 28 41 16 17 -10 23 -8 36 9 10 15 21 19 38 15 15 -4 26 0 32 9 4
8 21 21 37 29 30 16 30 16 33 119 2 57 8 132 13 166 16 95 14 194 -4 238 -15
35 -15 43 -1 86 9 26 24 58 34 71 10 13 26 48 36 78 26 81 58 121 117 150 60
30 93 74 68 90 -41 26 -70 57 -70 76 0 12 -7 27 -15 34 -19 16 -33 5 -75 -60
-17 -27 -40 -52 -50 -55 -9 -3 -42 -31 -72 -63 -50 -52 -78 -71 -70 -48 11 33
31 178 26 190 -4 9 7 37 25 64 17 27 31 53 30 58 0 15 -80 74 -99 74 -11 0
-29 -18 -44 -44z m64 -81 c0 -8 -7 -15 -15 -15 -16 0 -20 12 -8 23 11 12 23 8
23 -8z m-10 -100 c0 -42 -8 -91 -31 -201 -8 -35 -8 -57 -1 -69 5 -11 6 -26 2
-34 -5 -9 -11 -24 -14 -34 -9 -27 -29 -16 -37 19 -3 16 -13 42 -23 56 -11 17
-14 32 -9 40 12 19 32 99 33 129 0 15 7 50 16 77 15 45 25 56 57 61 4 0 7 -19
7 -44z m241 -77 c7 -18 14 -36 17 -40 2 -5 -6 -8 -17 -8 -25 0 -54 41 -45 64
10 26 31 19 45 -16z m-67 -53 c15 -23 14 -29 -23 -123 -22 -53 -48 -113 -59
-132 -38 -66 -46 -107 -28 -144 25 -53 29 -106 12 -186 -9 -41 -16 -121 -16
-177 0 -94 -2 -103 -22 -118 -33 -23 -137 -53 -232 -67 -93 -13 -208 0 -234
26 -21 20 -19 234 2 273 13 25 17 26 79 24 69 -2 107 10 141 48 17 18 17 21 3
21 -9 0 -31 -9 -49 -20 -43 -26 -107 -26 -141 0 -19 15 -30 39 -41 90 -27 119
-19 238 20 281 17 19 18 19 36 -1 19 -21 48 -17 48 6 0 8 -9 14 -20 14 -47 0
0 63 61 80 52 15 113 3 144 -30 15 -16 25 -32 22 -37 -3 -5 0 -32 8 -59 7 -27
16 -61 19 -76 10 -46 43 -37 56 15 23 91 43 144 70 187 15 25 31 55 35 67 8
27 51 63 75 63 10 0 25 -11 34 -25z m-494 -1218 c34 -21 57 -42 62 -58 12 -45
28 -171 23 -180 -4 -5 -24 -9 -46 -9 -30 0 -46 6 -63 25 -29 31 -66 126 -66
170 0 37 15 85 27 85 5 0 33 -15 63 -33z m86 -319 c-17 -41 -33 -46 -45 -16
-11 29 3 48 35 48 22 0 22 -1 10 -32z m134 3 c0 -10 -10 -31 -22 -46 -20 -26
-22 -27 -35 -9 -16 23 -17 61 0 67 30 12 57 7 57 -12z"/>
<path d="M10303 1834 c-3 -8 2 -23 11 -32 15 -15 18 -15 37 5 12 11 18 26 15
32 -11 17 -56 13 -63 -5z"/>
<path d="M10194 1779 c-8 -13 52 -76 62 -66 4 4 0 23 -9 42 -17 35 -40 45 -53
24z"/>
<path d="M10220 1635 c0 -16 27 -32 37 -21 7 7 -16 36 -28 36 -5 0 -9 -7 -9
-15z"/>
<path d="M11973 1806 c-10 -13 -25 -37 -34 -54 -9 -16 -41 -48 -70 -70 -68
-50 -209 -126 -209 -112 0 6 -16 26 -35 45 -24 25 -43 35 -66 35 -21 0 -32 6
-36 18 -6 23 -119 45 -161 31 -53 -17 -258 -68 -307 -76 -64 -10 -69 -32 -25
-110 25 -44 33 -71 37 -132 5 -61 11 -84 34 -117 31 -46 79 -89 107 -98 14 -5
22 -28 36 -102 10 -52 28 -115 41 -139 l22 -44 -30 16 c-65 33 -150 -7 -184
-86 -28 -65 13 -155 161 -350 55 -74 109 -147 118 -162 l17 -28 -32 -5 c-18
-3 -81 -8 -142 -11 -60 -3 -144 -9 -185 -12 -78 -5 -157 -7 -200 -4 -14 0
-135 1 -270 1 -135 0 -301 5 -370 10 -141 12 -213 4 -218 -23 -3 -15 4 -17 50
-15 29 1 100 2 158 0 98 -2 103 -3 82 -18 -12 -8 -20 -19 -17 -24 3 -5 57 -6
120 -3 83 4 115 3 115 -6 0 -7 -18 -11 -47 -11 -54 0 -76 -10 -65 -27 6 -9 33
-10 100 -5 95 8 115 2 60 -17 -36 -13 -27 -33 13 -32 166 4 184 6 184 21 0 9
-12 17 -30 20 -27 5 -28 6 -10 14 17 7 12 11 -30 25 -31 10 -50 22 -50 31 0
13 29 15 195 16 204 1 309 7 400 25 53 11 55 11 76 -16 14 -18 34 -28 62 -32
46 -6 52 -20 31 -66 -18 -39 9 -69 82 -91 56 -17 68 -18 118 -7 31 8 71 16 89
18 19 3 36 12 39 19 4 10 10 11 24 3 15 -8 34 -2 89 27 74 38 86 62 21 39 -61
-21 -119 -22 -133 -2 -15 19 -96 31 -195 28 -48 -2 -63 1 -63 12 0 17 67 40
76 25 11 -18 102 -2 156 28 46 24 64 28 140 29 65 1 91 5 105 17 16 14 50 16
296 12 152 -2 314 -8 359 -14 104 -13 215 -13 223 0 3 5 1 19 -5 31 -11 19
-17 20 -68 14 -31 -3 -163 -1 -292 4 -273 13 -545 5 -565 -16 -8 -8 -37 -13
-76 -13 l-61 0 6 31 c5 25 -3 46 -45 115 -28 46 -57 84 -65 84 -8 0 -14 -2
-14 -5 0 -8 33 -67 65 -113 24 -36 27 -47 17 -60 -7 -10 -17 -28 -22 -41 -7
-15 -16 -21 -26 -17 -9 3 -27 9 -40 12 -22 6 -92 86 -138 159 -11 17 -43 59
-72 95 -72 91 -107 164 -99 206 7 40 42 67 76 60 13 -3 36 -7 50 -10 15 -3 61
-31 103 -61 43 -30 81 -55 86 -55 44 0 -109 122 -184 146 -67 22 -74 28 -103
94 -23 51 -70 237 -62 245 2 1 43 21 90 43 75 34 92 47 128 96 47 63 66 105
53 118 -5 5 -25 -17 -45 -51 -62 -99 -143 -151 -237 -151 -39 0 -55 6 -88 33
-23 17 -41 36 -41 41 -1 5 -8 18 -17 27 -16 17 -15 20 15 48 32 30 33 55 3 63
-22 6 -87 132 -79 153 4 8 17 15 29 15 13 0 68 14 123 31 82 25 110 29 155 24
64 -8 131 -44 166 -90 24 -32 27 -33 82 -28 73 6 99 16 203 79 112 67 122 70
158 44 27 -18 29 -23 20 -49 -6 -16 -25 -46 -42 -66 l-32 -37 -58 12 c-73 15
-213 1 -205 -20 4 -13 331 -22 396 -11 49 8 54 7 69 -15 19 -30 29 -99 14
-108 -6 -4 -50 -11 -97 -16 -71 -7 -157 -24 -242 -46 -9 -3 -7 -11 8 -32 12
-16 25 -57 31 -93 23 -148 28 -197 29 -256 0 -69 11 -85 35 -50 13 20 13 39 5
127 -5 57 -19 137 -30 177 -11 40 -20 79 -20 87 0 19 66 36 180 46 72 6 110
14 136 29 24 14 52 21 88 21 35 0 58 5 66 15 27 33 -20 150 -64 161 -13 3 -40
-2 -62 -11 -31 -13 -44 -13 -66 -4 -26 11 -73 8 -135 -8 -28 -6 -32 17 -7 38
9 8 25 32 34 55 15 34 24 43 52 48 19 3 44 13 56 22 30 21 26 65 -5 79 -13 5
-23 17 -23 25 -1 16 -63 60 -85 60 -7 0 -22 -11 -32 -24z m41 -79 c13 -13 27
-22 32 -20 15 5 37 -14 30 -26 -4 -6 -17 -11 -30 -11 -12 0 -27 -5 -33 -11 -7
-7 -19 -3 -39 14 -25 22 -27 27 -16 51 14 32 26 33 56 3z m221 -283 c21 -51
20 -54 -24 -54 -33 0 -40 4 -51 30 -15 36 -1 60 36 60 18 0 28 -9 39 -36z
m-927 -591 c8 -13 3 -26 -19 -53 -37 -46 -45 -87 -25 -133 20 -49 74 -130 133
-200 105 -124 107 -129 53 -142 -35 -8 -105 61 -204 204 -121 173 -143 255
-87 312 25 25 37 29 85 29 41 0 57 -4 64 -17z m187 -563 c-3 -5 -17 -10 -31
-10 -14 0 -22 4 -19 10 3 6 17 10 31 10 14 0 22 -4 19 -10z m13 -49 c10 -6 10
-10 -2 -20 -20 -17 -84 -23 -92 -9 -16 26 62 50 94 29z m137 -20 c-7 -13 -72
-34 -88 -28 -17 5 42 36 71 37 13 0 21 -4 17 -9z m-109 -132 c11 -11 33 -19
50 -19 22 0 26 -3 14 -10 -8 -5 -47 -10 -86 -10 -56 0 -77 4 -95 19 -27 22
-20 37 21 44 37 6 72 -3 96 -24z"/>
<path d="M11233 1594 c-8 -21 6 -32 46 -36 45 -4 51 16 12 36 -38 20 -50 20
-58 0z"/>
<path d="M11380 1145 c-16 -19 -2 -38 19 -26 9 6 10 14 4 25 -9 16 -11 16 -23
1z"/>
<path d="M11400 1025 c0 -8 9 -15 20 -15 11 0 20 7 20 15 0 8 -9 15 -20 15
-11 0 -20 -7 -20 -15z"/>
<path d="M11834 765 c-16 -40 -19 -85 -4 -85 12 0 26 33 35 84 9 47 -11 48
-31 1z"/>
<path d="M11747 567 c-57 -57 -68 -77 -43 -77 20 0 62 36 86 75 38 61 16 62
-43 2z"/>
<path d="M9103 259 c-20 -20 4 -39 49 -39 26 0 41 5 45 15 7 20 6 21 -42 29
-26 5 -44 3 -52 -5z"/>
<path d="M9745 260 c-38 -4 -155 -8 -258 -9 l-188 -1 3 -27 3 -28 215 3 c118
1 252 2 296 2 61 0 85 4 94 15 10 13 9 19 -5 35 -19 21 -36 22 -160 10z"/>
<path d="M957 233 c-1 0 -117 -4 -257 -7 -140 -3 -306 -9 -369 -14 -65 -6
-143 -6 -180 -1 -109 14 -141 12 -141 -9 0 -10 6 -26 12 -35 12 -15 26 -15
168 -2 109 9 255 12 490 9 398 -5 494 7 437 55 -11 8 -151 12 -160 4z"/>
<path d="M7115 218 c-71 -5 -134 -13 -139 -18 -5 -6 -4 -15 4 -25 10 -12 37
-15 142 -15 121 0 168 8 168 30 0 11 -29 41 -38 39 -4 -1 -65 -6 -137 -11z"/>
<path d="M1223 213 c-22 -8 -14 -29 15 -43 37 -17 252 -31 447 -29 248 3 287
1 334 -16 24 -8 58 -15 75 -15 17 0 74 -7 127 -16 162 -28 169 0 19 72 -46 22
-208 32 -525 34 -137 0 -279 5 -315 10 -69 10 -157 12 -177 3z"/>
<path d="M4472 194 c-31 -6 -70 -17 -87 -23 -16 -7 -64 -15 -105 -19 -57 -5
-75 -11 -75 -22 0 -12 15 -15 76 -16 41 0 80 -3 85 -7 12 -7 132 16 160 31 21
11 403 18 744 12 134 -2 158 0 170 14 32 39 9 41 -461 41 -286 0 -470 -4 -507
-11z"/>
<path d="M6765 189 c-49 -11 -110 -25 -135 -31 -43 -11 -89 -16 -278 -33 -87
-8 -102 -16 -81 -41 22 -27 337 -7 397 25 11 6 53 15 93 21 101 15 131 28 127
54 -4 27 -16 28 -123 5z"/>
<path d="M5574 169 c-11 -19 8 -26 136 -49 131 -24 212 -31 369 -34 95 -1 110
5 91 34 -7 12 -36 15 -142 16 -95 1 -161 7 -232 23 -106 23 -211 28 -222 10z"/>
<path d="M3590 144 c-41 -7 -102 -13 -135 -13 -53 -1 -178 -15 -242 -27 -28
-5 -30 -30 -4 -43 22 -12 62 -12 146 0 33 5 120 14 193 20 105 9 138 16 158
31 19 16 22 23 13 34 -13 16 -28 16 -129 -2z"/>
<path d="M3866 151 c-39 -8 -43 -26 -12 -46 20 -13 38 -15 98 -9 65 6 87 15
88 36 0 22 -107 34 -174 19z"/>
<path d="M2398 124 c-17 -17 -6 -34 30 -45 45 -14 616 -21 650 -8 24 9 26 16
12 39 -7 12 -64 15 -347 18 -186 2 -341 0 -345 -4z"/>
<path d="M10753 68 c-36 -10 -50 -25 -35 -40 11 -11 77 6 87 22 10 16 -20 27
-52 18z"/>
</g>
</svg>
