<?xml version="1.0" standalone="no"?>
<!DOCTYPE svg PUBLIC "-//W3C//DTD SVG 20010904//EN"
 "http://www.w3.org/TR/2001/REC-SVG-20010904/DTD/svg10.dtd">
<svg version="1.0" xmlns="http://www.w3.org/2000/svg"
 width="1280.000000pt" height="640.000000pt" viewBox="0 0 1280.000000 640.000000"
 preserveAspectRatio="xMidYMid meet">
<metadata>
Created by potrace 1.15, written by Peter Selinger 2001-2017
</metadata>
<g transform="translate(0.000000,640.000000) scale(0.100000,-0.100000)"
fill="#000000" stroke="none">
<path d="M2525 5623 c-223 -30 -352 -59 -525 -120 -102 -36 -212 -72 -245 -80
-33 -9 -82 -24 -110 -34 -27 -10 -70 -23 -94 -29 -25 -7 -86 -31 -136 -55
-107 -52 -115 -63 -124 -184 l-6 -85 -49 -12 c-62 -16 -156 -62 -238 -117 -34
-24 -128 -73 -208 -110 -80 -37 -152 -72 -160 -77 -8 -5 -40 -23 -71 -39 -69
-37 -108 -69 -132 -110 -18 -31 -18 -31 8 -57 26 -26 28 -26 133 -20 183 11
231 18 611 91 40 8 77 13 81 10 9 -6 -58 -214 -88 -271 -12 -23 -51 -67 -87
-99 l-65 -57 0 -65 c0 -61 2 -66 36 -97 20 -19 34 -38 30 -44 -4 -6 -7 -96 -8
-199 0 -140 3 -201 15 -238 8 -27 22 -81 32 -120 17 -72 58 -150 126 -245 30
-40 38 -61 34 -78 -4 -17 7 -46 39 -100 30 -53 46 -94 51 -132 4 -30 13 -67
21 -81 21 -42 4 -42 -27 0 -15 22 -37 42 -48 46 -24 7 -69 62 -148 180 -33 50
-105 138 -159 196 -55 58 -115 128 -134 155 -34 48 -185 177 -246 210 -90 49
-223 -77 -139 -132 20 -13 38 -15 77 -11 46 6 56 4 78 -17 14 -13 48 -32 75
-42 54 -20 125 -77 125 -101 0 -28 -250 -243 -323 -278 -38 -18 -38 -18 -64 6
-15 13 -39 38 -55 56 -16 17 -49 41 -74 53 -24 12 -48 30 -53 39 -16 28 -104
70 -164 77 -68 8 -113 -13 -101 -48 4 -13 1 -24 -7 -29 -11 -7 -8 -14 13 -36
24 -23 35 -27 78 -25 66 3 99 -15 241 -128 186 -149 322 -274 389 -360 35 -44
67 -80 71 -80 4 0 22 -26 39 -57 18 -32 72 -113 121 -179 49 -67 115 -162 146
-212 32 -50 101 -155 155 -234 53 -79 111 -171 129 -206 l33 -64 -51 -46 c-57
-53 -91 -123 -99 -205 -3 -29 -15 -92 -26 -140 -20 -87 -37 -112 -61 -88 -31
31 -113 2 -146 -52 -27 -43 -27 -71 0 -108 l21 -30 116 1 c65 1 180 -4 257
-12 141 -13 349 -18 359 -8 9 10 -7 89 -19 94 -8 3 -126 0 -264 -7 -138 -6
-253 -8 -257 -4 -4 3 6 35 21 70 15 36 37 111 49 168 l21 104 80 -3 c44 -2 98
-8 120 -13 22 -5 108 -9 190 -9 91 0 176 -6 215 -15 36 -8 101 -15 145 -15 44
0 125 -5 181 -10 86 -8 111 -6 174 10 40 10 77 23 83 29 20 20 29 11 23 -21
-3 -18 -2 -39 3 -47 6 -9 5 -24 0 -39 -12 -31 11 -117 41 -155 35 -44 28 -50
-57 -42 -109 9 -390 14 -436 8 -43 -6 -57 -27 -36 -49 12 -11 76 -15 329 -18
225 -3 336 -8 390 -19 102 -20 355 -32 365 -17 10 16 -13 40 -39 40 -11 0 -37
18 -58 41 l-38 42 -73 -9 c-39 -4 -110 -8 -157 -9 l-85 0 -28 55 c-15 30 -34
91 -42 135 -8 44 -17 90 -20 102 -4 18 7 29 68 69 39 26 86 60 102 75 29 26
32 27 83 17 61 -13 63 -15 98 -135 42 -144 73 -199 164 -282 72 -65 84 -72
110 -67 17 3 44 9 60 12 17 4 30 2 30 -4 0 -5 -16 -13 -35 -16 -43 -8 -54 -25
-29 -43 23 -17 108 -11 194 14 47 13 88 14 275 8 121 -4 344 -9 495 -10 330
-3 714 -21 790 -37 57 -12 1382 -14 1401 -2 6 3 150 7 320 10 272 3 315 1 342
-13 26 -13 51 -15 145 -9 62 3 134 11 160 17 68 15 201 13 322 -5 123 -19 608
-29 685 -14 28 5 127 13 220 18 94 5 197 11 229 15 122 13 334 16 411 5 55 -8
104 -8 157 -2 43 6 94 6 115 2 21 -5 166 -11 323 -15 157 -3 341 -10 410 -14
69 -4 159 -7 200 -6 41 2 80 -1 85 -5 11 -9 262 -24 681 -40 191 -8 268 -8
290 0 21 9 119 9 374 0 751 -24 802 -25 853 -15 47 9 52 12 49 35 -1 14 -4 31
-7 37 -5 15 -73 17 -109 3 -50 -19 -487 -27 -590 -10 -37 6 -182 12 -324 14
-141 2 -299 9 -351 16 -62 8 -97 8 -103 2 -7 -7 10 -14 48 -22 95 -20 94 -25
-5 -28 -52 -1 -98 1 -103 6 -5 5 5 24 24 44 52 55 93 110 107 146 11 25 19 32
41 32 37 0 59 27 66 84 l7 48 -75 76 c-56 58 -97 114 -162 224 -48 82 -98 161
-112 177 -13 16 -24 32 -24 35 0 3 15 23 34 43 45 51 54 87 61 233 10 239 22
428 28 436 3 5 1 81 -4 169 -7 141 -12 170 -39 245 -18 47 -45 128 -61 180
-54 176 -61 195 -99 260 -50 85 -149 202 -197 231 -21 13 -65 44 -99 70 -88
66 -156 103 -265 142 -89 33 -124 41 -156 38 -19 -2 -16 -21 5 -28 112 -38
277 -111 339 -149 141 -89 260 -219 336 -369 51 -104 167 -522 149 -540 -3 -3
-13 -5 -22 -5 -30 0 -45 -27 -31 -56 9 -21 17 -25 36 -21 23 4 25 2 25 -38 0
-23 7 -64 15 -91 19 -64 20 -61 -14 -78 -15 -8 -34 -28 -41 -45 -6 -16 -20
-37 -31 -47 -18 -17 -19 -16 -19 39 0 108 -21 263 -52 381 l-31 120 22 39 c16
28 20 42 12 50 -7 7 -16 6 -29 -6 -10 -9 -23 -17 -28 -17 -5 0 -30 44 -56 98
-25 53 -65 122 -87 152 -27 35 -39 60 -35 70 4 8 9 32 12 53 5 43 -9 49 -43
17 l-21 -20 -68 53 c-172 132 -171 131 -171 168 0 29 -3 34 -25 35 -41 2 -139
42 -172 69 -21 18 -34 23 -41 16 -20 -20 20 -58 90 -83 37 -14 69 -32 71 -40
3 -16 -120 -108 -146 -108 -9 0 -26 15 -37 34 -41 70 -106 156 -126 167 -14 7
-24 8 -31 1 -7 -7 3 -28 30 -64 22 -29 51 -73 64 -98 13 -25 30 -55 38 -67 18
-29 3 -47 -58 -69 -26 -9 -72 -28 -103 -41 -78 -34 -98 -29 -131 32 -15 28
-28 56 -28 63 0 8 -6 28 -14 45 -33 74 -30 83 48 128 39 23 82 50 96 60 14 11
50 38 80 60 30 23 89 75 131 116 67 65 79 74 96 64 11 -6 49 -10 84 -10 35 0
89 -7 119 -16 127 -38 141 -40 155 -22 7 10 26 17 48 17 79 0 94 34 20 43 -27
3 -68 15 -93 26 -25 11 -60 21 -78 21 -20 0 -31 4 -27 10 4 6 56 10 124 10 97
0 121 3 132 16 11 14 10 18 -6 31 -26 19 -156 9 -239 -19 -32 -10 -60 -17 -63
-15 -2 3 12 15 31 27 38 23 45 40 24 58 -13 11 -24 12 -118 15 -30 1 -60 5
-66 9 -18 12 -40 -13 -59 -65 -13 -33 -22 -46 -32 -42 -8 3 -17 5 -19 5 -2 0
-4 6 -4 13 0 6 -20 53 -45 102 -47 93 -72 200 -60 255 3 14 8 43 10 64 3 22 7
41 9 44 2 2 26 -13 53 -34 80 -61 103 -67 233 -61 96 5 127 2 190 -15 41 -11
79 -24 84 -29 14 -13 50 -11 64 3 21 21 13 42 -27 85 -45 46 -93 61 -276 83
-105 13 -162 28 -148 40 4 4 42 4 83 -1 41 -4 103 -8 138 -8 83 -1 210 -49
266 -102 33 -29 45 -35 59 -28 44 25 4 140 -66 188 -65 44 -90 52 -125 39 -24
-10 -40 -8 -90 11 -33 13 -75 21 -94 20 -57 -5 -131 11 -196 43 -34 16 -64 34
-67 38 -3 5 9 20 27 33 32 23 53 29 197 62 36 8 85 25 110 37 l46 23 -1 66 c0
40 -9 91 -21 125 -18 50 -48 225 -68 396 -4 31 -16 59 -32 79 -24 28 -31 31
-69 26 -27 -3 -72 -23 -127 -56 -47 -28 -88 -51 -92 -51 -4 0 -20 -10 -37 -21
-45 -32 -117 -21 -169 25 -21 20 -51 39 -66 42 -16 4 -59 22 -98 39 -81 37
-149 55 -220 58 -105 4 -195 -102 -200 -237 -1 -34 -3 -73 -3 -88 -2 -23 -20
-41 -99 -100 -54 -39 -123 -95 -154 -125 -81 -77 -179 -115 -329 -129 -53 -5
-79 -13 -98 -29 -29 -25 -24 -56 11 -73 12 -5 62 -29 110 -53 l89 -43 -26 -19
c-17 -12 -26 -28 -26 -46 0 -33 76 -168 124 -222 58 -64 46 -71 -50 -29 -111
48 -251 164 -554 460 -74 73 -155 146 -180 163 -25 17 -63 46 -84 64 -22 18
-48 33 -57 33 -10 0 -62 16 -115 35 -173 63 -286 44 -455 -75 -135 -95 -170
-140 -134 -170 13 -11 36 -9 128 8 136 27 137 27 137 4 0 -43 25 -57 102 -59
133 -3 301 -36 282 -56 -15 -15 10 -60 64 -116 31 -32 102 -114 157 -181 174
-211 197 -236 312 -333 61 -52 117 -97 125 -99 30 -11 -7 -19 -123 -27 -72 -5
-139 -15 -160 -24 -38 -17 -184 -41 -234 -39 -219 9 -235 14 -235 76 0 17 -10
76 -21 131 -12 55 -27 127 -34 160 -18 90 -61 152 -128 187 -39 20 -116 26
-159 13 -41 -13 -106 -64 -128 -101 -17 -27 -27 -34 -43 -30 -36 9 -102 -27
-120 -67 -23 -47 -22 -54 14 -125 20 -41 49 -78 90 -112 32 -29 59 -56 59 -61
0 -5 -15 -9 -34 -9 -19 0 -45 -9 -60 -21 -61 -48 -9 -109 93 -109 62 0 71 -6
71 -53 0 -12 7 -31 15 -41 8 -11 15 -32 15 -47 0 -15 5 -29 12 -31 7 -3 11
-22 9 -52 -1 -33 4 -57 19 -80 32 -53 60 -66 142 -66 70 0 76 2 128 41 36 27
58 52 66 76 7 20 16 39 21 44 9 8 126 -21 164 -42 15 -7 85 -14 189 -17 91 -2
173 -8 183 -14 9 -5 21 -7 25 -5 4 3 63 8 132 12 216 13 188 21 237 -65 30
-52 51 -79 71 -87 16 -7 33 -20 37 -30 4 -10 11 -76 15 -148 5 -74 16 -152 25
-180 19 -55 84 -192 145 -300 l39 -70 -1 -115 c0 -63 5 -146 12 -185 30 -183
2 -336 -90 -480 -17 -27 -17 -35 -6 -80 11 -44 17 -52 54 -70 27 -12 42 -26
42 -38 0 -10 12 -29 27 -43 23 -21 26 -32 25 -77 -2 -29 -7 -72 -12 -97 -5
-25 -14 -79 -21 -120 -6 -41 -17 -96 -25 -122 -26 -95 -137 -256 -199 -291
-39 -21 -101 -28 -262 -32 -89 -2 -166 -6 -171 -9 -9 -6 -441 -20 -587 -20
-38 1 -131 6 -205 12 -321 26 -624 22 -719 -11 -40 -14 -47 -14 -75 1 -27 14
-79 16 -436 14 -601 -2 -1008 -9 -1260 -22 -236 -13 -365 -9 -403 12 -14 8
-54 11 -107 10 -119 -3 -123 2 -67 80 26 34 67 83 93 108 80 78 224 308 224
358 0 23 -26 47 -58 55 -19 5 -33 -5 -75 -49 -27 -30 -87 -79 -131 -109 -45
-30 -97 -69 -116 -85 -20 -17 -49 -34 -66 -39 -42 -12 -132 18 -183 60 l-40
34 3 81 c2 45 6 87 10 93 4 6 -9 25 -28 42 -20 17 -36 34 -36 38 0 4 33 5 73
3 88 -4 186 -35 234 -74 41 -32 68 -41 109 -36 30 3 31 5 83 118 21 44 59 96
119 162 103 112 170 211 179 262 13 79 -61 99 -138 36 -44 -35 -192 -111 -262
-134 -26 -9 -74 -16 -107 -16 -56 0 -63 3 -102 40 -56 51 -189 156 -266 208
-33 23 -98 73 -145 112 -92 75 -190 121 -344 161 -41 10 -104 27 -141 38 -37
11 -78 21 -92 23 -53 7 -32 26 159 146 24 15 61 41 83 57 22 17 53 37 70 47
16 9 35 23 41 32 12 16 29 18 356 31 111 4 141 13 141 41 0 12 -56 34 -87 34
-26 0 -12 20 30 41 47 24 77 48 77 61 0 5 -11 14 -25 20 -28 12 -33 28 -10 28
8 0 22 12 32 26 16 25 16 27 -2 40 -11 9 -45 14 -84 14 -36 0 -72 4 -80 9 -15
9 -4 19 82 71 31 20 47 36 47 50 0 27 -9 26 -125 -15 -121 -42 -140 -44 -130
-12 25 84 23 129 -8 135 -19 4 -97 -47 -124 -81 -10 -12 -57 -53 -105 -90 -73
-57 -90 -66 -106 -58 -15 8 -44 3 -120 -21 l-101 -31 -53 26 c-65 32 -203 160
-195 180 3 9 42 23 97 36 50 11 103 27 118 35 16 8 66 24 112 36 45 12 110 35
143 52 70 35 140 58 179 58 14 0 47 9 73 20 26 11 62 20 80 20 37 0 65 21 65
49 0 22 36 31 115 31 30 0 75 4 102 10 26 5 84 16 128 25 82 15 127 39 133 70
5 25 -15 35 -70 35 -27 0 -48 4 -48 9 0 6 27 27 60 47 33 20 59 42 57 48 -3 7
-33 10 -81 9 -42 -1 -76 3 -76 8 0 5 27 26 60 46 58 37 78 62 65 83 -9 14 -40
12 -82 -5 -20 -8 -38 -13 -41 -11 -2 3 5 22 17 42 20 34 21 38 5 55 -18 20
-33 17 -89 -22 -22 -16 -57 -36 -79 -44 l-38 -16 7 94 c6 91 6 95 -15 102 -15
5 -31 -1 -55 -19 -32 -25 -172 -185 -206 -237 -15 -21 -26 -24 -110 -30 -52
-3 -123 -11 -159 -17 -36 -6 -130 -18 -210 -26 -103 -11 -162 -22 -205 -39
-33 -14 -80 -28 -105 -32 -58 -9 -228 -51 -287 -71 -32 -11 -48 -13 -56 -5 -8
8 -5 11 10 11 34 0 64 47 61 94 -3 41 -4 42 -103 98 -55 31 -101 64 -103 72
-2 9 1 16 7 16 6 0 11 -4 11 -9 0 -17 33 -21 50 -6 14 12 18 13 31 1 11 -11
27 -12 69 -5 30 5 76 10 101 12 64 4 90 24 126 98 26 51 32 78 34 134 1 39 -1
86 -4 105 -3 19 -13 76 -22 125 -8 50 -24 122 -35 160 -11 39 -20 73 -20 77 0
4 20 26 45 49 53 49 71 94 54 132 -16 35 -60 52 -107 41 -81 -17 -134 -10
-192 26 -30 18 -57 35 -60 38 -10 7 37 27 140 58 58 17 159 55 225 84 66 28
134 56 150 60 51 15 114 39 163 64 26 13 76 33 111 45 34 11 87 35 117 52 43
24 54 36 52 53 -2 13 -11 22 -25 24 -22 3 -33 22 -13 22 39 0 -32 78 -95 105
-48 20 -310 35 -395 22 -30 -4 -102 -12 -160 -17 -58 -5 -141 -16 -185 -25
-44 -9 -101 -20 -127 -25 -25 -5 -60 -16 -78 -25 -18 -9 -33 -15 -35 -13 -2 2
-12 26 -22 53 -12 32 -27 54 -43 61 -31 15 -95 23 -135 17z m-110 -109 c-19
-13 -47 -32 -62 -44 -63 -46 -274 -116 -528 -175 -55 -13 -120 -31 -145 -40
-43 -16 -230 -34 -230 -22 0 3 37 17 81 32 45 14 91 32 103 40 12 8 53 24 91
36 39 11 84 27 100 34 45 19 197 65 217 65 9 0 79 20 155 45 155 50 210 63
235 57 14 -3 10 -9 -17 -28z m1214 20 c78 -16 19 -56 -304 -211 -362 -174
-401 -191 -565 -254 -85 -33 -171 -66 -190 -74 -43 -18 -396 -121 -505 -147
-44 -11 -138 -36 -210 -55 -153 -42 -226 -59 -315 -73 -36 -6 -87 -17 -115
-25 -80 -22 -274 -63 -350 -75 -38 -6 -108 -17 -155 -25 -227 -37 -342 -46
-355 -25 -7 11 96 94 145 116 58 26 101 48 183 93 62 33 88 42 120 40 71 -3
75 -1 156 80 89 89 132 109 157 72 32 -45 65 -52 214 -47 145 6 241 18 325 41
66 18 119 31 244 61 177 41 366 115 438 170 25 19 51 34 59 34 19 0 92 67 110
101 8 16 14 48 14 73 l0 44 73 12 c39 7 99 18 132 25 33 7 116 19 185 26 69 6
141 15 160 19 43 10 306 12 349 4z m-990 -68 c14 -36 13 -41 -7 -77 l-22 -38
21 -6 c21 -7 21 -7 -2 -31 -42 -44 -113 -82 -214 -113 -55 -16 -127 -41 -161
-55 -57 -24 -365 -113 -427 -124 -15 -2 -33 0 -40 5 -23 19 -68 24 -125 14
-92 -15 -232 -23 -232 -13 0 5 35 13 78 16 151 13 422 67 492 98 14 6 69 21
123 33 54 12 103 27 109 33 16 16 0 32 -30 32 -41 0 -212 -37 -254 -54 -35
-15 -91 -26 -310 -62 -51 -9 -115 -19 -143 -24 -27 -5 -67 -9 -87 -9 -37 -1
-38 0 -38 33 0 40 11 46 88 46 70 0 155 16 252 46 41 13 87 24 102 24 15 0 39
5 55 11 15 6 48 14 73 19 25 4 72 17 105 28 33 12 101 33 150 48 104 32 219
77 325 128 41 20 82 35 90 34 8 -2 21 -21 29 -42z m7100 -36 c15 0 75 -29 136
-65 61 -35 120 -65 131 -65 31 0 43 -20 55 -86 6 -33 17 -93 24 -134 14 -73
23 -148 30 -240 1 -25 11 -76 20 -113 9 -37 14 -79 11 -92 -9 -34 -137 -132
-228 -173 -72 -33 -92 -52 -68 -67 15 -9 137 51 203 101 59 44 62 45 65 24 6
-36 -62 -97 -157 -141 -56 -26 -91 -37 -107 -33 -18 5 -37 -5 -81 -39 -56 -44
-131 -82 -141 -73 -2 3 7 19 21 36 31 36 42 69 30 81 -9 9 -59 -40 -129 -127
-22 -28 -61 -54 -135 -91 -57 -29 -117 -54 -134 -57 -16 -3 -57 -12 -90 -19
-66 -16 -81 -10 -71 25 21 82 90 127 193 128 77 0 113 13 113 40 0 18 -7 20
-67 20 -59 1 -79 6 -153 43 -88 44 -133 89 -123 126 3 13 -6 27 -33 47 -65 50
-84 72 -84 99 0 30 27 33 83 10 43 -18 83 -19 93 -3 10 16 -19 34 -66 42 -33
5 -40 10 -40 29 0 12 -7 33 -16 46 -14 19 -22 22 -50 17 -26 -5 -48 1 -106 31
l-73 37 84 8 c172 15 239 49 403 205 36 34 71 63 76 63 6 0 35 20 66 46 59 47
140 88 206 103 38 8 39 8 49 -23 21 -68 34 -155 33 -226 0 -54 7 -103 28 -175
16 -55 33 -152 40 -215 12 -123 21 -146 51 -130 14 8 16 16 10 38 -21 68 -30
156 -29 262 1 63 -4 142 -11 175 -29 141 -34 162 -52 191 -11 17 -19 43 -19
56 0 14 -18 73 -40 132 -50 132 -50 141 -9 132 17 -3 44 -6 58 -6z m-152 -19
c22 -24 58 -124 51 -143 -6 -16 -120 -43 -143 -34 -9 3 -15 18 -15 39 0 35 26
123 43 145 14 18 44 15 64 -7z m889 -61 c33 -154 43 -210 47 -261 3 -31 15
-75 27 -99 13 -25 22 -63 23 -98 l2 -56 -45 -12 c-25 -7 -87 -24 -139 -39 -65
-18 -97 -23 -104 -16 -6 6 -12 71 -14 148 -2 124 -5 140 -23 155 -13 10 -20
28 -20 50 0 19 -7 61 -15 93 -9 33 -14 69 -11 81 5 19 108 84 132 84 5 0 17
-37 27 -83 11 -45 23 -95 28 -111 5 -16 9 -42 9 -57 0 -32 11 -37 30 -14 17
20 16 45 -3 152 -13 73 -14 98 -5 118 19 41 41 27 54 -35z m-324 -97 c11 -19
24 -78 33 -159 8 -71 22 -160 30 -199 9 -38 15 -82 15 -97 0 -15 5 -39 11 -55
8 -23 7 -30 -7 -40 -10 -7 -24 -13 -31 -13 -18 0 -33 65 -33 145 1 137 -7 214
-24 240 -15 22 -35 131 -36 193 0 31 20 24 42 -15z m-2167 -231 c36 -17 65
-34 65 -38 0 -4 -8 -16 -17 -27 -10 -10 -29 -40 -43 -65 -28 -52 -50 -61 -95
-39 -16 8 -50 21 -74 28 -38 11 -44 11 -53 -4 -14 -26 -36 -20 -40 10 -4 38
-39 53 -120 53 -38 0 -68 4 -68 8 0 21 114 86 177 102 21 5 75 8 120 6 66 -3
95 -10 148 -34z m-6221 -13 c-2 -4 -41 -9 -86 -13 -46 -3 -109 -9 -141 -14
-32 -4 -77 -5 -100 -2 -36 6 -30 7 48 14 50 4 99 11 110 15 23 10 175 9 169 0z
m1137 -70 l79 -51 88 3 87 4 3 -27 c3 -21 -6 -37 -37 -67 -23 -22 -41 -47 -41
-55 0 -8 11 -61 24 -118 64 -277 78 -388 57 -450 -16 -50 -85 -79 -195 -84
-185 -8 -237 -19 -255 -53 -18 -33 5 -63 78 -99 36 -18 88 -47 114 -63 40 -25
46 -33 37 -45 -7 -7 -27 -14 -46 -14 -53 0 -84 -16 -84 -44 0 -14 7 -29 16
-34 15 -8 15 -16 4 -63 -34 -153 -40 -168 -75 -179 -34 -11 -67 -5 -185 34
-25 8 -72 23 -105 34 -63 21 -172 65 -181 74 -3 3 3 35 12 72 21 85 16 100
-34 92 -84 -15 -321 -24 -392 -15 -85 11 -214 36 -248 50 -38 15 -52 11 -52
-15 0 -25 3 -27 105 -54 22 -6 67 -15 100 -19 64 -9 347 -7 404 3 l33 5 -7
-69 c-5 -52 -3 -77 8 -98 8 -16 12 -35 10 -41 -5 -15 -33 -18 -33 -4 0 5 -12
11 -27 14 -16 3 -59 17 -98 31 -38 15 -128 43 -200 62 -190 52 -175 49 -175
25 0 -11 10 -27 23 -35 24 -16 128 -54 242 -87 39 -11 77 -27 86 -35 13 -11
58 -29 181 -70 9 -3 25 3 37 15 17 17 20 29 15 56 -12 63 5 66 103 18 178 -86
356 -123 435 -90 37 15 39 15 68 -9 20 -17 49 -28 88 -34 93 -13 208 -79 332
-189 41 -37 99 -83 128 -103 67 -45 58 -54 -80 -75 -151 -22 -350 -21 -473 5
-89 18 -243 38 -447 57 -49 5 -71 12 -85 27 -10 11 -47 34 -83 50 -36 16 -76
39 -90 52 -35 31 -153 115 -225 158 -33 21 -90 71 -129 113 -63 70 -93 88
-103 59 -2 -5 20 -43 48 -83 41 -59 66 -82 137 -128 48 -31 110 -77 138 -103
28 -27 74 -60 102 -74 28 -14 53 -30 57 -36 3 -5 19 -10 34 -10 21 0 40 -13
78 -55 52 -56 80 -67 103 -39 11 12 25 14 69 9 212 -24 304 -38 363 -55 102
-31 365 -29 466 2 25 7 37 7 45 -1 7 -7 24 -65 38 -129 15 -64 43 -155 63
-201 19 -47 35 -85 33 -87 -1 -1 -18 -9 -37 -19 -19 -9 -45 -27 -58 -38 -22
-21 -32 -22 -300 -21 -380 0 -404 3 -525 64 -54 28 -104 50 -112 50 -8 0 -20
-9 -27 -19 -8 -10 -33 -24 -57 -31 -53 -14 -101 -4 -201 43 -36 16 -98 45
-138 63 -40 19 -100 52 -132 74 -33 22 -68 43 -77 47 -48 18 -142 81 -201 136
-67 60 -114 87 -151 87 -46 0 -281 342 -281 410 0 14 -7 50 -16 80 -9 34 -18
126 -23 240 -4 102 -11 193 -16 203 -18 43 47 62 107 31 88 -46 255 28 317
139 41 72 47 77 89 77 21 0 32 -4 25 -8 -7 -4 -13 -36 -15 -72 l-3 -65 51 -3
c45 -3 53 0 68 23 20 31 53 36 36 6 -29 -55 10 -55 46 -1 15 22 32 40 39 40
19 0 95 98 118 153 21 49 44 65 33 23 -13 -51 38 -106 96 -106 33 0 92 59 126
126 17 33 42 74 56 93 14 19 26 41 26 48 0 8 -16 45 -35 83 -42 84 -44 116 -7
163 15 19 32 43 38 53 11 18 13 18 40 3 39 -22 52 -15 65 34 13 48 64 127 83
127 7 0 41 9 75 21 76 24 98 21 48 -8 -41 -25 -133 -144 -143 -186 -14 -65 47
-59 75 7 10 23 37 67 61 98 34 46 53 61 106 84 66 28 80 51 28 46 -22 -2 -26
0 -14 8 27 18 50 11 131 -41z m5240 31 c10 -6 19 -16 19 -23 0 -16 -100 -167
-110 -167 -13 0 -23 59 -15 96 6 34 58 104 77 104 5 0 18 -5 29 -10z m314
-267 c121 -117 228 -225 239 -240 10 -16 64 -58 120 -95 116 -77 202 -104 294
-94 38 5 61 2 82 -9 17 -9 30 -17 30 -19 0 -2 -16 -11 -35 -20 -41 -20 -108
-101 -125 -150 -13 -40 -23 -44 -140 -52 -129 -10 -164 11 -373 223 -92 92
-183 191 -204 218 -21 28 -54 66 -74 85 -20 19 -67 68 -104 108 l-69 73 13 37
c15 44 68 132 89 149 8 7 20 9 26 6 6 -4 110 -103 231 -220z m-6061 191 c4
-10 1 -14 -6 -12 -15 5 -23 28 -10 28 5 0 13 -7 16 -16z m-687 -279 c-7 -16
-37 -21 -37 -5 0 10 32 31 39 25 2 -2 1 -11 -2 -20z m-77 -15 c0 -5 -7 -7 -15
-4 -8 4 -15 8 -15 10 0 2 7 4 15 4 8 0 15 -4 15 -10z m8751 -60 c46 -12 118
-26 159 -31 127 -15 163 -23 168 -38 4 -11 -2 -12 -23 -7 -16 4 -89 11 -163
16 -176 12 -282 46 -282 91 0 18 2 18 28 5 16 -8 66 -24 113 -36z m-108 -108
c61 -46 111 -63 181 -62 61 2 207 -16 239 -29 15 -6 27 -18 27 -27 0 -14 -6
-15 -32 -8 -18 4 -101 9 -183 9 -134 1 -156 4 -197 24 -72 35 -145 121 -122
144 8 8 15 4 87 -51z m522 0 c-21 -5 -40 12 -30 28 5 8 13 6 27 -7 18 -16 19
-18 3 -21z m-8515 4 c0 -7 -6 -19 -14 -25 -19 -16 -32 5 -16 24 16 19 30 19
30 1z m5474 -1 c20 -8 36 -20 36 -25 0 -6 0 -13 0 -17 0 -5 -30 -11 -67 -14
-38 -4 -96 -10 -130 -14 -68 -8 -76 -2 -45 34 42 50 134 66 206 36z m-5604 2
c0 -2 -21 -25 -46 -53 -26 -27 -45 -44 -43 -39 28 71 45 95 66 95 13 0 23 -1
23 -3z m7965 -94 c-3 -20 -20 -64 -36 -98 -16 -34 -29 -68 -29 -75 0 -8 -16
-47 -36 -87 -27 -53 -34 -77 -26 -85 18 -18 40 -2 77 57 20 30 41 55 48 55 7
0 20 -26 31 -58 10 -31 31 -78 48 -104 34 -55 33 -60 -39 -130 -51 -50 -112
-86 -283 -169 -147 -70 -262 -105 -430 -129 -80 -12 -165 -26 -190 -32 -25 -5
-72 -13 -105 -18 -33 -4 -72 -11 -87 -15 -19 -5 -28 -3 -28 5 0 6 -21 41 -46
76 -26 36 -45 66 -43 68 8 6 139 36 160 36 25 0 34 3 194 55 92 30 274 112
435 196 37 19 52 55 26 65 -22 9 -140 -34 -223 -82 -41 -23 -100 -52 -131 -64
-31 -12 -73 -31 -94 -41 -34 -18 -249 -66 -403 -91 -38 -6 -213 -11 -388 -12
l-317 -1 0 76 c0 42 -3 91 -6 108 l-6 31 64 0 c36 0 87 7 114 16 48 16 85 20
354 43 74 6 176 18 225 27 50 8 133 21 185 30 121 19 218 48 300 89 36 17 80
35 98 38 19 4 47 16 63 28 16 11 55 31 87 44 31 13 88 40 125 59 38 20 77 36
88 36 10 0 36 9 56 20 21 11 49 20 63 20 14 0 43 11 65 24 22 13 42 25 44 25
2 1 0 -15 -4 -36z m-8465 19 c0 -13 -12 -22 -22 -16 -10 6 -1 24 13 24 5 0 9
-4 9 -8z m-70 -37 c8 -9 8 -15 2 -15 -18 0 -42 12 -42 21 0 14 26 10 40 -6z
m250 -14 c0 -10 -7 -24 -16 -32 -13 -10 -17 -10 -25 2 -13 20 -11 27 9 38 25
15 32 13 32 -8z m-153 -24 c-17 -26 -63 -54 -72 -45 -9 9 66 78 77 72 5 -3 3
-16 -5 -27z m5816 -30 c23 -27 31 -51 37 -104 5 -37 12 -78 16 -90 11 -39 -10
-26 -83 52 -57 61 -72 84 -77 118 -6 35 -4 45 14 59 27 22 56 12 93 -35z m356
34 c18 -34 -8 -41 -155 -44 -121 -2 -139 0 -142 14 -2 14 10 17 75 23 43 3 98
10 123 15 71 14 89 12 99 -8z m-6100 -5 c8 -10 8 -16 -3 -25 -10 -9 -16 -8
-26 3 -12 15 -6 36 9 36 5 0 14 -6 20 -14z m441 -25 c0 -6 -4 -13 -10 -16 -5
-3 -10 1 -10 9 0 9 5 16 10 16 6 0 10 -4 10 -9z m5679 -65 c17 -20 52 -193 49
-236 l-3 -35 -117 -8 c-147 -9 -182 1 -196 60 -32 134 -38 198 -19 210 6 4 64
10 127 14 63 3 122 6 131 7 9 1 22 -4 28 -12z m-6362 -73 c-16 -16 -17 -16
-17 3 0 11 3 24 7 28 4 3 11 2 17 -4 7 -7 5 -16 -7 -27z m2773 -18 c0 -7 -5
-37 -11 -66 -9 -42 -9 -54 4 -66 13 -13 24 -10 96 26 53 27 81 37 81 28 0 -17
-44 -77 -72 -98 -14 -11 -19 -22 -15 -33 6 -15 12 -14 52 9 54 32 84 28 33 -3
-38 -23 -56 -51 -35 -53 30 -3 122 4 147 11 20 6 32 4 40 -5 8 -9 3 -14 -22
-18 -52 -8 -170 -65 -166 -79 3 -7 20 -14 39 -16 71 -5 119 -14 119 -21 0 -31
-398 -52 -433 -23 -20 17 -67 138 -67 173 0 33 167 248 193 249 9 0 17 -7 17
-15z m6170 -170 c0 -30 -46 -85 -71 -85 -24 0 -24 1 6 59 32 65 65 78 65 26z
m-2990 -15 c0 -5 -5 -10 -11 -10 -5 0 -7 5 -4 10 3 6 8 10 11 10 2 0 4 -4 4
-10z m656 -37 c31 -12 46 -153 20 -188 -12 -17 -17 -17 -60 -5 -26 7 -49 16
-51 21 -3 4 -7 49 -10 99 l-5 92 46 -7 c26 -3 53 -9 60 -12z m-4101 -50 c8
-32 22 -69 29 -83 7 -14 16 -48 19 -75 3 -28 7 -57 9 -65 2 -10 -17 -22 -62
-37 -95 -32 -104 -30 -125 20 -10 23 -35 81 -57 128 -21 47 -38 97 -38 111 0
23 6 26 68 40 37 9 84 16 104 17 36 1 37 1 53 -56z m3949 31 c3 -9 6 -42 6
-75 0 -56 -2 -60 -32 -79 -25 -16 -47 -20 -93 -18 l-60 3 -5 35 c-5 35 -6 35
-65 41 -33 4 -68 10 -77 14 -36 15 -16 26 42 24 33 -1 63 1 66 4 14 14 -10 25
-70 29 -115 10 -98 23 39 28 251 11 242 11 249 -6z m-4259 -22 c6 -4 17 -27
24 -52 15 -51 96 -216 120 -243 13 -16 13 -19 1 -27 -8 -6 -22 -10 -31 -10 -9
0 -61 -16 -115 -36 -55 -20 -146 -51 -204 -70 -58 -19 -132 -43 -164 -54 -59
-20 -60 -20 -95 -1 -145 79 -242 117 -354 138 -22 4 -26 9 -20 22 4 9 7 40 5
69 -1 32 5 66 13 83 14 27 20 29 71 29 61 0 155 21 200 45 16 8 42 15 58 15
15 0 94 16 175 36 126 31 263 60 296 63 6 0 15 -3 20 -7z m6545 -18 c0 -40
-250 -246 -375 -309 -65 -32 -115 -49 -180 -61 -49 -9 -119 -25 -155 -35 -61
-19 -282 -42 -410 -43 -48 -1 -55 1 -55 19 0 22 -6 21 215 50 142 20 368 61
420 77 68 21 336 156 402 202 36 25 79 62 95 80 31 39 43 44 43 20z m399 -15
c39 -14 42 -34 4 -24 -16 4 -49 10 -76 14 -26 5 -50 11 -54 15 -11 10 92 7
126 -5z m-2961 -76 c30 -8 10 -23 -32 -23 -24 0 -27 2 -16 15 14 17 16 17 48
8z m18 -80 c23 -15 37 -16 127 -6 56 7 103 10 106 8 6 -7 -21 -36 -72 -77 -43
-33 -55 -38 -102 -38 -57 0 -85 16 -85 49 0 10 -3 33 -6 50 -7 36 -3 37 32 14z
m2108 -246 c3 -18 18 -67 32 -108 14 -41 27 -81 30 -90 4 -13 -18 -22 -123
-47 -70 -18 -146 -33 -167 -35 l-39 -2 -3 103 c-2 57 -6 112 -9 123 -4 12 -1
21 9 25 11 4 230 58 257 63 4 0 10 -14 13 -32z m650 14 c4 -5 41 -35 84 -67
102 -77 162 -133 162 -152 0 -16 -86 -136 -118 -165 -11 -10 -26 -15 -36 -11
-10 4 -50 48 -91 98 -41 50 -92 113 -114 139 l-40 48 56 60 c53 55 84 71 97
50z m-975 -92 c6 -18 11 -74 11 -126 0 -92 0 -94 -27 -104 -33 -12 -142 -14
-154 -2 -4 4 -15 49 -24 98 -10 50 -19 102 -22 116 -5 25 -4 26 89 36 51 5 98
10 105 11 6 1 16 -12 22 -29z m-256 -66 c4 -43 10 -96 13 -117 l7 -39 -41 7
c-23 3 -53 11 -66 17 -45 21 -74 141 -43 182 6 9 30 18 52 20 22 2 47 4 56 5
13 2 17 -13 22 -75z m-5158 -23 c-21 -41 -24 -55 -14 -66 13 -16 47 -18 84 -4
36 14 51 3 29 -21 -27 -30 -11 -45 57 -52 34 -4 79 -7 100 -7 54 0 48 -12 -14
-32 -28 -9 -65 -22 -82 -28 -29 -11 -29 -12 -11 -26 12 -8 44 -14 80 -14 l61
0 -67 -33 c-68 -32 -85 -54 -48 -64 11 -3 20 -9 20 -14 0 -10 -65 -13 -240
-10 -101 2 -128 6 -142 20 -10 9 -31 54 -47 99 -23 68 -26 85 -16 95 7 7 42
35 76 62 35 28 91 76 124 107 33 31 64 53 68 49 5 -5 -3 -32 -18 -61z m6265
-45 c39 -52 78 -99 86 -103 9 -5 33 -35 54 -67 31 -47 37 -62 27 -73 -20 -25
-160 -128 -203 -150 -100 -51 -194 -76 -194 -52 0 6 -11 27 -24 48 -14 22 -31
71 -40 119 -8 45 -21 92 -30 105 -31 48 -57 130 -46 143 6 8 49 27 96 44 46
17 105 42 132 55 26 14 52 25 58 26 6 0 44 -43 84 -95z m-9382 -43 c68 -68
126 -140 187 -233 l53 -82 -36 -51 c-96 -135 -129 -163 -246 -207 l-60 -22
-30 36 c-74 85 -174 196 -224 249 -31 31 -51 61 -48 67 4 6 25 20 47 31 21 11
76 57 121 101 127 124 167 159 178 159 5 0 31 -21 58 -48z m8963 -59 c9 -28
38 -96 62 -150 54 -117 87 -201 87 -218 0 -32 -178 -78 -304 -79 l-80 -1 -39
110 c-21 61 -52 153 -68 205 -28 89 -28 96 -12 107 9 7 27 13 40 13 32 0 107
19 183 46 94 34 109 30 131 -33z m894 -44 c56 -103 104 -214 104 -244 1 -11
-8 -35 -20 -54 -30 -49 -142 -171 -157 -171 -7 0 -19 15 -26 33 -8 17 -29 64
-46 102 -39 86 -80 208 -80 238 0 14 17 39 41 62 22 22 54 59 70 83 17 23 38
42 47 42 11 0 34 -32 67 -91z m-7061 29 c3 -7 17 -56 32 -108 15 -52 33 -107
41 -122 19 -39 9 -54 -66 -98 -37 -21 -73 -46 -81 -54 -7 -9 -17 -16 -22 -16
-5 0 -26 -13 -46 -30 -20 -16 -48 -31 -61 -32 -23 -3 -27 3 -47 72 -12 41 -34
126 -48 189 -22 92 -25 116 -14 123 19 12 108 38 132 39 12 0 53 11 91 24 85
28 85 28 89 13z m5466 -25 c61 -22 70 -31 70 -64 0 -15 19 -101 41 -189 23
-88 38 -164 34 -168 -4 -4 -10 -1 -12 6 -3 6 -49 103 -104 214 -54 111 -99
206 -99 210 0 12 20 10 70 -9z m284 1 c9 -3 16 -14 16 -24 0 -22 27 -136 65
-273 29 -109 25 -132 -24 -123 -14 3 -49 8 -77 11 -45 6 -53 10 -66 38 -8 18
-21 57 -28 87 -7 30 -21 90 -31 132 -11 43 -19 91 -19 108 0 29 1 30 48 31 26
0 56 4 67 9 25 11 30 11 49 4z m-8027 -151 c34 -29 82 -62 105 -74 24 -12 54
-31 68 -43 28 -25 196 -126 209 -126 4 0 51 -20 102 -44 52 -25 155 -65 229
-90 134 -45 165 -50 425 -75 121 -12 121 -12 273 -17 72 -3 132 -9 132 -13 0
-4 -11 -18 -25 -31 -29 -27 -34 -80 -9 -104 21 -22 82 -20 121 4 37 22 51 60
34 96 -6 14 -11 29 -11 33 0 7 118 20 194 22 23 0 66 -39 66 -60 0 -16 -56
-77 -177 -192 -32 -31 -89 -76 -127 -99 -39 -23 -104 -69 -145 -101 -152 -119
-371 -236 -606 -324 -49 -18 -108 -37 -130 -41 -21 -4 -59 -16 -82 -26 -36
-16 -71 -19 -213 -21 -186 -2 -180 -4 -160 57 42 138 49 193 50 429 1 93 -16
169 -52 242 -34 66 -205 330 -229 351 -28 25 -76 120 -93 186 -8 29 -19 66
-25 81 -24 61 -17 59 76 -20z m9074 -25 c6 -24 33 -92 59 -153 27 -60 55 -131
62 -157 l12 -48 -39 -41 c-22 -22 -65 -56 -96 -75 -62 -37 -274 -134 -295
-134 -19 0 -23 10 -29 81 -2 35 -23 123 -44 194 -22 72 -37 133 -33 137 4 4
39 20 77 36 64 26 135 72 264 169 24 18 46 33 47 33 2 0 8 -19 15 -42z m-9121
-259 c96 -99 185 -196 196 -215 l22 -36 -32 -47 c-17 -26 -56 -69 -86 -96 -30
-26 -57 -52 -58 -57 -6 -14 -117 -86 -158 -102 -22 -9 -59 -17 -83 -18 l-44
-3 -124 180 c-128 187 -163 245 -163 268 0 9 19 20 46 27 58 16 197 145 250
231 20 31 41 56 48 53 7 -3 90 -86 186 -185z m9549 21 c12 -47 27 -157 35
-245 l14 -160 -41 -42 c-23 -24 -45 -43 -50 -43 -6 0 -32 -14 -60 -31 -56 -34
-77 -32 -77 8 0 41 -35 307 -46 350 -4 16 8 37 50 85 111 126 126 145 126 160
0 21 12 30 21 16 4 -7 17 -51 28 -98z m-875 -2 c22 -30 20 -48 -4 -48 -24 0
-26 -22 -5 -54 9 -14 22 -75 30 -142 8 -66 17 -131 21 -146 9 -38 -12 -44
-105 -29 -42 6 -120 13 -174 15 -69 2 -102 7 -111 17 -14 14 -59 244 -60 308
l-1 35 85 2 c89 2 164 16 215 39 29 13 57 21 82 24 6 0 19 -9 27 -21z m-692
-105 c30 -109 38 -153 38 -207 0 -60 -7 -66 -82 -66 l-38 0 0 50 c0 51 6 60
28 38 16 -16 43 8 35 30 -13 36 -25 44 -43 27 -24 -22 -27 -13 -28 73 -2 67 0
73 22 82 13 4 26 16 30 25 10 26 21 10 38 -52z m226 40 c5 -10 12 -54 16 -99
5 -69 20 -145 42 -218 6 -18 2 -19 -86 -13 -50 3 -98 11 -106 18 -9 7 -14 31
-14 66 0 30 -5 87 -10 126 -6 40 -12 87 -15 105 l-4 32 84 0 c70 0 86 -3 93
-17z m-6018 -123 c399 -128 358 -110 460 -198 47 -41 107 -87 134 -102 53 -31
154 -112 246 -197 l56 -52 12 -93 c7 -51 12 -108 12 -126 0 -37 5 -36 -122
-12 -25 5 -84 12 -130 16 -99 8 -114 18 -153 107 -16 34 -36 72 -46 85 -9 12
-21 42 -24 65 -10 55 -44 147 -56 147 -5 0 -20 22 -33 49 -36 71 -163 177
-236 197 -30 9 -99 31 -153 50 -54 19 -109 34 -122 34 -35 0 -52 36 -29 61 9
10 20 19 23 19 3 0 76 -22 161 -50z m7088 -53 c1 -35 13 -112 27 -171 14 -59
25 -121 25 -137 0 -36 -39 -79 -71 -79 -12 0 -30 -6 -38 -13 -9 -8 -43 -19
-76 -26 -33 -7 -69 -18 -80 -25 -11 -7 -47 -23 -80 -36 -33 -13 -64 -27 -70
-32 -5 -4 -21 -8 -35 -8 -25 0 -26 3 -38 88 -7 48 -18 117 -24 154 -9 53 -8
71 2 83 7 8 17 15 22 15 5 0 37 13 71 29 34 16 81 34 105 41 40 10 71 33 195
142 23 21 47 38 53 38 7 0 11 -24 12 -63z m-514 -59 c-3 -4 -10 -6 -15 -3 -11
7 -12 49 -2 59 9 9 24 -44 17 -56z m-7083 26 c11 -14 10 -19 -10 -35 -28 -23
-35 -24 -56 -2 -16 15 -15 18 7 34 29 23 42 23 59 3z m8067 -111 c1 -78 -1
-90 -20 -104 -24 -18 -47 -140 -49 -254 0 -38 -3 -92 -6 -118 -5 -44 -7 -48
-27 -43 -12 3 -32 -1 -44 -10 -19 -13 -28 -13 -57 -3 -31 12 -37 11 -58 -9
-48 -46 -81 -14 -71 71 4 33 0 79 -11 127 -9 41 -17 82 -18 90 -1 8 20 26 48
42 28 15 65 41 82 57 43 41 73 41 73 2 0 -16 -4 -41 -9 -55 -7 -18 -6 -28 4
-36 18 -15 30 8 40 75 3 28 13 60 21 72 8 12 14 27 14 34 0 6 14 27 30 46 17
18 30 40 30 48 0 12 20 55 26 55 0 0 1 -39 2 -87z m-7468 41 c85 -33 158 -95
228 -193 20 -28 32 -57 32 -77 0 -60 29 -184 55 -237 32 -64 77 -112 129 -139
79 -40 155 -99 158 -121 2 -12 13 -26 25 -32 12 -5 24 -16 26 -25 6 -27 -12
-94 -44 -161 -28 -59 -36 -68 -70 -78 -31 -9 -49 -9 -91 3 -29 8 -75 18 -103
22 -99 13 -212 44 -267 74 -32 18 -84 61 -125 105 -39 41 -75 75 -81 75 -6 0
-19 -9 -29 -19 -15 -16 -76 -35 -179 -56 -12 -3 -47 0 -78 6 -31 5 -111 11
-178 13 -107 3 -139 8 -245 39 -227 68 -323 112 -323 147 0 8 15 24 33 34 108
64 208 117 238 128 19 6 47 22 62 34 15 13 46 28 68 34 32 9 80 49 234 196
106 102 205 200 219 219 l26 34 118 -4 c81 -2 131 -9 162 -21z m-1994 -61 c27
-74 29 -88 31 -248 2 -230 -3 -247 -85 -309 -48 -36 -83 -54 -126 -64 -69 -15
-67 -16 -113 73 -36 69 -135 215 -167 244 -48 45 -23 81 58 81 21 0 40 8 52
21 10 12 32 28 48 36 35 18 178 151 221 205 16 21 34 38 41 38 6 0 24 -35 40
-77z m7730 -34 c20 -21 23 -36 26 -111 2 -49 1 -88 -2 -88 -30 3 -102 30 -128
48 -36 26 -39 46 -19 130 l12 54 44 -5 c28 -3 52 -13 67 -28z m254 -19 c7 -5
19 -32 26 -62 7 -29 19 -71 27 -93 8 -22 17 -64 21 -92 9 -67 2 -68 -119 -8
-49 25 -98 45 -107 45 -19 0 -25 24 -31 138 -4 68 -3 74 17 82 23 9 143 2 166
-10z m294 -25 c46 -11 71 -11 113 -3 32 6 57 7 62 2 10 -12 48 -187 55 -251
l5 -52 -37 -12 c-51 -18 -249 -14 -278 6 -12 7 -37 18 -55 22 -39 10 -57 49
-58 122 -1 24 -8 70 -17 103 -22 88 -19 92 74 84 42 -4 103 -13 136 -21z
m-4914 -120 c0 -48 -58 -131 -171 -246 -38 -38 -71 -86 -100 -143 -25 -50 -48
-86 -57 -86 -21 0 -119 49 -133 66 -13 15 -52 232 -44 244 3 4 42 11 88 15 52
4 105 16 143 31 32 14 83 34 111 45 29 11 74 35 100 54 55 38 63 41 63 20z
m4243 -39 c22 -17 23 -86 2 -127 -18 -33 -13 -49 15 -49 20 0 57 80 46 99 -12
19 13 21 49 4 31 -15 35 -21 30 -42 -4 -14 -10 -58 -15 -99 -4 -40 -11 -76
-15 -80 -3 -4 -14 4 -24 16 -13 18 -23 22 -44 17 -23 -6 -28 -2 -44 32 -17 35
-22 38 -56 36 -31 -2 -38 1 -43 22 -3 14 3 50 16 86 36 104 45 114 83 85z
m1387 -106 c0 -32 5 -62 10 -65 6 -3 10 0 10 7 0 7 6 31 12 53 l12 40 7 -80
c3 -44 9 -92 13 -107 7 -23 5 -27 -24 -33 -17 -4 -34 -14 -36 -23 -3 -10 -14
-36 -25 -60 l-19 -43 -45 7 c-42 6 -45 4 -55 -20 -11 -29 -12 -30 -59 -16 -30
8 -39 6 -66 -15 -29 -22 -34 -23 -53 -9 -12 8 -34 14 -49 12 -23 -3 -27 1 -29
23 -2 15 -7 61 -13 104 -17 117 -17 117 37 147 26 14 67 31 92 38 25 7 88 31
140 55 109 49 122 54 133 48 4 -2 7 -31 7 -63z m-1036 -54 c33 -20 70 -36 82
-36 35 0 41 -19 46 -133 5 -105 4 -109 -18 -119 -18 -8 -27 -6 -45 11 -25 23
-44 27 -54 11 -12 -19 -34 -10 -55 25 -19 32 -26 35 -59 33 -31 -3 -36 0 -32
17 2 11 4 69 5 128 l1 109 35 -5 c19 -3 62 -21 94 -41z m551 -175 c-6 -98 -9
-108 -33 -129 -37 -31 -67 -37 -93 -18 -13 9 -33 13 -49 10 -17 -4 -31 0 -39
10 -18 21 -27 20 -62 -5 -44 -31 -60 -23 -65 36 -1 28 -6 84 -9 126 l-7 76
182 0 181 0 -6 -106z m-809 -17 l34 -26 -1 -147 c-1 -80 -4 -158 -8 -172 -3
-14 -23 -41 -44 -59 l-38 -33 -26 26 c-26 25 -26 27 -14 79 12 48 24 147 38
301 2 31 9 57 15 57 5 0 25 -12 44 -26z m1594 16 c14 1 39 2 55 3 34 2 45 -13
171 -228 53 -89 63 -115 57 -135 -4 -14 -8 -53 -8 -87 0 -34 -5 -67 -11 -73
-17 -17 -53 8 -60 40 -3 14 -16 50 -29 80 -13 30 -33 76 -43 101 -17 41 -58
89 -194 235 -47 49 -44 80 6 69 17 -3 42 -6 56 -5z m-62 -144 c165 -168 206
-250 218 -438 6 -94 5 -107 -15 -146 l-22 -43 -242 6 c-303 7 -747 24 -767 30
-31 8 -512 20 -702 17 -174 -3 -198 -1 -198 12 0 9 6 16 13 16 7 0 27 16 46
35 24 26 38 34 54 30 30 -8 136 59 141 88 14 74 30 224 31 292 3 164 1 155 36
155 20 0 40 -10 60 -29 29 -29 31 -30 178 -47 30 -3 61 -12 69 -20 17 -18 72
-17 96 1 16 12 21 12 42 -1 13 -9 32 -13 44 -9 12 4 26 2 33 -3 7 -5 27 -13
45 -17 27 -6 38 -3 58 16 l24 22 35 -19 c36 -19 36 -19 76 3 33 18 44 20 65
11 19 -9 36 -9 70 0 24 7 60 12 80 12 19 0 47 6 62 14 15 7 42 17 60 21 31 6
102 67 102 87 0 11 38 27 66 27 13 1 62 -42 142 -123z m-9260 57 c-6 -41 9
-79 38 -104 16 -13 34 -14 119 -7 55 5 132 10 170 12 39 1 90 10 115 19 25 9
89 30 143 47 54 17 118 40 143 51 45 22 45 22 67 2 12 -11 42 -31 67 -45 187
-102 185 -99 88 -147 -57 -29 -61 -30 -97 -15 -27 10 -89 15 -231 18 -353 6
-767 39 -792 64 -4 4 -10 22 -14 39 l-6 31 81 27 c44 14 83 31 86 36 14 22 27
7 23 -28z m3302 -142 c-20 -71 -92 -177 -206 -301 -65 -72 -122 -140 -126
-151 -13 -33 -45 -15 -138 77 -47 47 -98 93 -115 103 -55 34 -66 52 -53 94 13
44 28 46 73 11 45 -34 95 -48 175 -48 55 0 74 4 115 28 47 28 248 187 260 206
13 21 23 8 15 -19z m-3460 -16 c4 -2 72 -12 151 -21 115 -13 148 -20 166 -36
22 -21 98 -42 114 -33 5 4 9 2 9 -3 0 -6 -8 -13 -17 -17 -28 -10 -368 -6 -398
5 -14 5 -55 10 -90 10 -74 0 -95 14 -95 64 0 18 3 35 6 39 6 6 142 -1 154 -8z
m2047 -42 c21 -10 57 -33 80 -50 22 -18 84 -54 137 -79 80 -39 110 -48 179
-55 45 -4 106 -13 136 -19 30 -7 77 -10 104 -6 49 5 52 4 86 -33 20 -21 50
-45 67 -54 17 -9 50 -41 73 -72 l43 -56 -232 5 c-127 3 -313 13 -413 21 -121
9 -247 12 -378 9 -184 -5 -199 -4 -237 15 -45 23 -93 68 -128 121 -31 46 -74
174 -74 218 l0 34 39 -7 c72 -12 323 -6 386 9 80 19 87 19 132 -1z m-1577 -7
c0 -11 -19 -15 -25 -6 -3 5 1 10 9 10 9 0 16 -2 16 -4z m511 -26 c50 -27 -6
-60 -119 -71 -63 -6 -123 -4 -217 8 -71 9 -132 17 -134 19 -2 2 9 16 25 31
l28 29 199 -3 c111 -2 207 -8 218 -13z m8884 -116 c29 -26 56 -55 58 -65 9
-33 -41 -66 -58 -39 -11 17 -22 3 -75 -94 -49 -91 -99 -146 -134 -146 -13 0
-12 8 4 56 11 31 23 78 26 105 7 49 7 50 35 44 24 -6 31 -2 49 27 17 27 20 44
17 90 -7 85 2 87 78 22z m-1971 -46 c11 -42 6 -56 -26 -76 -23 -13 -44 -18
-70 -15 -28 4 -39 1 -44 -10 -6 -18 -94 -77 -112 -77 -21 0 -13 16 43 98 60
88 79 102 97 72 17 -27 40 -25 68 5 29 31 36 31 44 3z m-7669 -278 c-3 -5 -36
-9 -73 -9 -52 1 -60 3 -37 9 46 12 117 12 110 0z m9352 -34 c12 -11 -82 -26
-129 -21 -66 8 -81 13 -74 23 5 8 195 6 203 -2z"/>
<path d="M9400 5025 c-5 -13 -7 -32 -4 -40 4 -8 -1 -27 -11 -41 -23 -36 -14
-50 47 -68 57 -16 182 -106 212 -151 22 -34 65 -51 82 -33 11 11 -1 28 -62 93
-41 44 -77 91 -81 105 -8 36 -22 50 -62 66 -20 8 -43 27 -53 43 -9 16 -26 34
-37 41 -18 9 -22 7 -31 -15z"/>
<path d="M9458 4794 c-14 -14 -14 -19 -2 -44 8 -15 26 -36 40 -45 26 -17 27
-16 52 9 l26 26 -34 35 c-37 38 -57 43 -82 19z"/>
<path d="M2777 4903 c-4 -3 -7 -19 -7 -35 0 -30 -9 -35 -28 -16 -20 20 -42
-10 -42 -58 0 -54 25 -73 71 -53 44 18 64 62 50 109 -12 39 -33 65 -44 53z"/>
<path d="M2620 4675 c-25 -13 -55 -24 -66 -25 -19 0 -23 -7 -26 -47 -3 -27 -1
-52 3 -56 14 -17 49 5 79 49 17 24 37 44 44 44 13 0 56 41 56 53 0 15 -47 5
-90 -18z"/>
<path d="M2738 4646 c-86 -31 -114 -73 -40 -60 55 10 92 32 92 54 0 23 -3 24
-52 6z"/>
<path d="M2553 4314 c-4 -11 1 -22 12 -30 24 -18 46 -18 69 -1 17 13 17 14 1
30 -22 22 -74 22 -82 1z"/>
<path d="M2222 4008 c-32 -32 -3 -108 47 -124 25 -8 37 -20 46 -48 17 -49 33
-66 61 -66 28 0 30 11 8 46 -9 14 -20 42 -24 62 -5 20 -14 53 -21 72 -6 19
-14 41 -15 48 -3 10 -8 10 -25 1 -18 -9 -24 -8 -31 5 -11 19 -29 21 -46 4z"/>
<path d="M1382 3938 c22 -33 106 -74 120 -60 8 8 8 15 -2 27 -19 22 -84 55
-111 55 -20 0 -20 -2 -7 -22z"/>
<path d="M9660 3271 c-6 -16 -9 -35 -5 -40 10 -17 40 -13 59 8 24 27 17 55
-15 59 -21 2 -29 -3 -39 -27z"/>
<path d="M10483 3243 c-21 -8 -16 -61 6 -73 27 -14 27 -14 52 21 22 31 22 32
4 45 -19 14 -40 17 -62 7z"/>
<path d="M10232 3028 c-15 -15 -15 -41 0 -56 15 -15 48 3 48 26 0 17 -18 42
-30 42 -3 0 -11 -5 -18 -12z"/>
<path d="M9787 2873 c-23 -22 10 -83 44 -83 20 0 39 20 39 40 0 34 -61 65 -83
43z"/>
<path d="M10704 2855 c-16 -24 -16 -27 1 -45 37 -41 91 -12 83 43 -5 35 -61
36 -84 2z"/>
<path d="M9436 2847 c-24 -18 -18 -61 10 -65 28 -4 48 22 40 53 -7 28 -23 32
-50 12z"/>
<path d="M2916 2224 c-3 -8 1 -29 10 -46 13 -25 19 -29 42 -23 47 12 54 24 30
56 -24 32 -72 40 -82 13z"/>
<path d="M2784 2066 c-38 -38 -40 -44 -20 -71 21 -29 74 -24 103 9 27 32 29
58 7 80 -24 25 -53 19 -90 -18z m76 -25 c0 -12 -29 -35 -36 -28 -11 10 5 37
21 37 8 0 15 -4 15 -9z"/>
<path d="M2531 1964 c-17 -14 -31 -30 -31 -35 0 -18 41 -49 65 -49 53 0 88 77
46 100 -30 16 -47 12 -80 -16z"/>
<path d="M10400 2603 c-51 -18 -78 -86 -45 -113 29 -24 87 21 97 74 4 21 -30
46 -52 39z"/>
<path d="M10303 2433 c-18 -6 -16 -42 2 -49 16 -6 45 12 45 27 0 12 -33 27
-47 22z"/>
<path d="M10857 2373 c-14 -13 -6 -42 15 -57 12 -9 25 -16 29 -16 13 0 18 31
9 55 -9 24 -38 34 -53 18z"/>
<path d="M9884 2492 c-6 -4 -17 -18 -24 -31 -11 -21 -10 -26 6 -38 24 -17 59
-17 74 2 9 11 8 20 -10 45 -22 32 -28 34 -46 22z"/>
<path d="M9542 2418 c-17 -17 -15 -42 6 -61 24 -22 39 -21 51 1 7 12 6 26 -2
43 -14 28 -37 35 -55 17z"/>
<path d="M10469 2149 c-16 -16 -18 -23 -8 -35 15 -19 54 -18 73 2 19 19 20 26
4 42 -18 18 -45 15 -69 -9z"/>
<path d="M10907 1973 c-4 -3 -7 -23 -7 -44 0 -28 5 -41 20 -49 55 -29 82 32
34 76 -26 25 -36 29 -47 17z"/>
<path d="M9383 2143 c-7 -3 -13 -16 -13 -30 0 -19 4 -24 22 -21 12 2 23 8 25
13 5 16 -20 43 -34 38z"/>
<path d="M9585 2050 c-18 -20 -18 -21 8 -48 29 -29 49 -25 71 12 9 14 6 21
-13 37 -30 24 -43 24 -66 -1z"/>
<path d="M9944 2036 c-17 -46 30 -74 67 -40 18 16 18 18 3 36 -20 22 -62 24
-70 4z"/>
<path d="M10474 1756 c-15 -11 -15 -16 -3 -42 23 -48 79 -40 79 11 0 30 -49
50 -76 31z"/>
<path d="M9665 1746 c-20 -15 -17 -45 7 -60 24 -15 53 13 44 42 -9 26 -30 34
-51 18z"/>
<path d="M10043 1713 c-22 -8 -15 -60 12 -90 21 -24 26 -26 35 -13 13 18 6 76
-11 96 -12 15 -16 16 -36 7z"/>
<path d="M10422 3651 c-21 -13 -11 -55 14 -59 24 -3 38 20 29 49 -7 20 -22 24
-43 10z"/>
<path d="M10241 3496 c-17 -20 3 -56 30 -56 25 0 34 22 19 49 -13 24 -33 27
-49 7z"/>
<path d="M10666 3461 c-21 -24 -13 -61 13 -61 25 0 43 24 39 52 -4 30 -29 34
-52 9z"/>
<path d="M9989 3382 c-27 -23 -20 -52 14 -52 30 0 60 31 51 54 -8 21 -36 20
-65 -2z"/>
<path d="M10910 3135 c-10 -12 -9 -20 4 -40 20 -30 32 -32 46 -5 21 40 -22 79
-50 45z"/>
</g>
</svg>
