<?xml version="1.0" standalone="no"?>
<!DOCTYPE svg PUBLIC "-//W3C//DTD SVG 20010904//EN"
 "http://www.w3.org/TR/2001/REC-SVG-20010904/DTD/svg10.dtd">
<svg version="1.0" xmlns="http://www.w3.org/2000/svg"
 width="1280.000000pt" height="798.000000pt" viewBox="0 0 1280.000000 798.000000"
 preserveAspectRatio="xMidYMid meet">
<metadata>
Created by potrace 1.15, written by Peter Selinger 2001-2017
</metadata>
<g transform="translate(0.000000,798.000000) scale(0.100000,-0.100000)"
fill="#000000" stroke="none">
<path d="M2361 7965 c-25 -8 -88 -14 -143 -14 -64 0 -110 -5 -131 -15 -17 -8
-63 -22 -102 -31 -38 -10 -88 -30 -110 -45 -22 -15 -47 -29 -55 -33 -45 -17
-130 -100 -154 -149 -15 -29 -37 -72 -50 -95 -30 -54 -51 -214 -43 -338 4 -69
13 -110 36 -170 42 -107 45 -111 131 -205 119 -130 181 -161 410 -204 216 -42
249 -35 419 79 120 80 161 119 161 155 0 21 -37 9 -66 -21 -28 -30 -31 -31
-94 -26 -37 3 -93 17 -130 32 -64 26 -130 78 -130 101 0 6 26 26 57 45 34 20
63 46 72 64 8 17 18 38 23 47 14 29 9 71 -12 106 -25 40 -25 57 -1 90 27 40
61 121 61 149 0 26 33 98 50 108 6 4 8 11 5 16 -4 5 0 9 7 9 49 0 136 151 107
186 -18 22 -32 17 -98 -36 -71 -56 -96 -67 -116 -50 -17 14 -48 104 -43 126 2
9 32 33 68 53 36 20 65 43 65 51 0 29 -121 38 -194 15z m-221 -39 c0 -11 -19
-15 -25 -6 -3 5 1 10 9 10 9 0 16 -2 16 -4z m285 -21 c0 -5 -21 -21 -48 -34
-91 -45 -231 -220 -248 -312 -25 -135 -23 -207 9 -336 53 -210 114 -300 248
-368 44 -22 94 -44 112 -50 19 -5 34 -14 35 -20 0 -5 -33 -27 -74 -48 -87 -44
-164 -56 -236 -37 -124 33 -275 83 -295 99 -13 10 -48 34 -78 55 -111 74 -199
289 -200 487 0 116 39 208 143 332 98 118 317 217 511 231 37 2 71 7 74 11 9
9 47 1 47 -10z m-30 -95 c3 -5 8 -33 11 -62 10 -100 43 -123 102 -73 29 24 72
34 72 16 0 -5 -26 -36 -59 -70 -54 -56 -60 -67 -80 -146 -23 -92 -56 -153
-102 -192 -47 -40 -33 -91 16 -59 32 21 40 20 52 -6 13 -28 -4 -92 -37 -138
-20 -29 -26 -31 -72 -28 -54 3 -55 4 -81 73 -44 122 -55 230 -38 380 7 63 20
98 62 175 18 33 78 111 98 128 18 14 47 16 56 2z m212 -92 c-3 -8 -6 -5 -6 6
-1 11 2 17 5 13 3 -3 4 -12 1 -19z m-992 -518 c3 -5 1 -10 -4 -10 -6 0 -11 5
-11 10 0 6 2 10 4 10 3 0 8 -4 11 -10z"/>
<path d="M2255 7568 c-15 -40 -15 -43 3 -67 12 -16 31 -27 50 -29 38 -4 41 12
10 45 -12 13 -18 26 -14 30 4 4 11 1 17 -7 8 -13 10 -13 18 0 12 18 -6 43 -26
36 -8 -3 -13 2 -13 14 0 35 -27 21 -45 -22z"/>
<path d="M8495 7969 c-128 -14 -226 -61 -306 -146 -45 -47 -59 -88 -59 -171 0
-63 1 -66 43 -106 23 -22 55 -50 70 -61 28 -20 29 -23 43 -177 8 -94 22 -181
33 -215 60 -175 64 -404 15 -688 -8 -44 -17 -131 -21 -194 l-6 -114 -42 -18
c-24 -11 -65 -37 -91 -59 -27 -22 -54 -40 -60 -40 -7 0 -21 -16 -32 -34 -29
-49 -101 -82 -252 -116 -54 -12 -178 -47 -248 -71 -77 -26 -88 -19 -68 39 27
74 4 91 -82 62 -31 -10 -91 -29 -132 -41 -41 -11 -96 -32 -122 -45 -26 -13
-52 -24 -58 -24 -17 0 -119 -50 -166 -81 -59 -40 -106 -96 -140 -165 -24 -48
-37 -63 -74 -82 -25 -12 -56 -22 -68 -22 -43 0 -253 -65 -321 -99 -22 -12 -64
-30 -93 -41 -77 -30 -118 -69 -125 -119 -5 -38 -3 -41 23 -52 16 -6 50 -8 77
-5 52 6 260 89 292 116 30 27 285 150 309 150 19 0 57 -18 221 -104 194 -101
385 -163 700 -226 61 -13 121 -27 135 -32 14 -6 45 -13 70 -17 l45 -6 1 -200
c0 -122 5 -214 12 -235 6 -19 23 -91 38 -160 50 -240 139 -454 228 -549 42
-45 119 -106 194 -154 59 -38 178 -97 196 -97 21 0 160 -65 173 -82 7 -8 19
-39 27 -69 53 -203 161 -407 298 -566 114 -133 237 -233 306 -247 35 -8 46
-41 16 -53 -18 -7 -147 -163 -224 -272 -64 -90 -198 -241 -214 -241 -6 0 -40
-25 -76 -56 -36 -31 -90 -68 -120 -84 -65 -33 -160 -102 -173 -127 -8 -13 -3
-22 19 -40 l29 -23 -35 -29 c-19 -17 -44 -30 -54 -31 -10 0 -37 -9 -60 -19
-92 -44 -293 -107 -434 -137 -114 -25 -120 -30 -93 -82 24 -47 22 -46 166 -62
55 -6 127 -15 160 -19 78 -11 220 1 265 21 19 8 73 53 120 98 46 45 95 89 107
97 27 18 32 63 7 63 -9 0 -51 -32 -93 -72 -42 -39 -94 -84 -116 -100 l-40 -30
-165 8 c-91 5 -192 7 -225 6 -53 -2 -58 -1 -42 12 9 7 44 19 77 25 33 7 62 16
65 21 3 4 29 11 58 15 92 13 316 105 352 145 10 11 30 20 44 20 31 0 104 -25
143 -48 26 -15 31 -15 80 2 29 11 82 32 117 47 35 16 72 29 82 29 10 0 20 3
23 8 9 14 295 156 302 149 9 -9 -43 -127 -112 -252 -172 -312 -216 -360 -387
-416 -34 -11 -71 -24 -82 -28 -11 -5 -50 -21 -87 -36 -70 -29 -148 -90 -148
-117 0 -35 24 -40 132 -28 57 6 166 15 243 20 77 4 151 13 165 18 26 10 100
97 156 184 40 61 140 167 168 178 65 25 194 130 291 238 152 169 207 214 349
287 l124 63 5 -77 c4 -74 -9 -176 -49 -371 -8 -41 -22 -109 -30 -150 -8 -41
-22 -100 -30 -130 -9 -30 -22 -77 -30 -105 -35 -131 -88 -290 -128 -382 -24
-57 -49 -144 -63 -214 -3 -16 1 -30 11 -39 25 -20 62 1 69 40 4 17 13 46 22
63 8 18 21 51 30 75 8 24 23 56 34 71 11 15 22 40 26 57 15 70 40 141 60 171
19 29 23 31 41 19 21 -15 354 -127 446 -150 31 -8 67 -20 80 -27 13 -7 40 -13
61 -14 20 -1 42 -6 47 -11 6 -6 14 -54 19 -108 4 -53 13 -102 18 -107 6 -6 21
-9 34 -7 24 3 24 3 22 129 l-3 126 58 17 c31 9 80 26 107 37 28 11 77 27 110
35 72 17 185 50 240 70 56 19 65 18 65 -10 0 -27 67 -219 102 -293 21 -44 26
-48 58 -48 30 0 35 4 38 25 2 14 -29 105 -68 203 -38 98 -70 187 -70 197 0 11
-9 39 -20 62 -23 52 -74 218 -96 313 -8 39 -22 97 -29 130 -7 33 -19 98 -25
145 -6 47 -15 112 -21 145 -13 81 -19 370 -8 420 5 22 15 78 24 125 23 132 79
407 125 615 11 50 20 99 20 110 0 11 7 33 15 49 8 15 15 38 15 50 0 24 24 104
67 221 14 38 55 131 74 167 5 10 9 31 9 48 0 43 -31 39 -81 -11 -44 -44 -70
-55 -164 -68 -60 -9 -182 2 -220 19 -11 4 -33 11 -50 14 -67 13 -163 44 -186
59 -26 19 -72 161 -89 277 -5 36 -14 85 -20 110 -5 25 -12 72 -15 105 -3 33
-12 91 -20 130 -8 38 -15 84 -15 101 0 54 -64 374 -106 527 -14 51 -29 115
-35 142 -11 54 -34 128 -68 215 -11 30 -21 63 -21 74 0 11 -13 40 -29 65 -15
25 -34 72 -40 103 -7 32 -17 60 -22 63 -5 4 -9 17 -9 30 0 24 24 40 43 28 20
-12 178 -13 685 -3 l493 10 40 27 c37 25 43 25 92 15 150 -33 373 -53 390 -36
4 4 -3 20 -15 37 l-22 30 25 -7 c51 -15 158 -19 174 -6 20 16 19 39 -2 62 -15
17 -12 18 103 18 128 0 144 5 144 47 0 49 -43 73 -160 88 -8 1 -34 8 -58 15
-37 12 -41 15 -25 24 10 6 52 17 93 26 70 16 75 18 72 41 -8 55 -22 58 -269
49 -62 -2 -116 -1 -120 3 -3 4 3 20 14 35 14 19 38 32 82 43 98 26 155 95 122
148 -12 19 -115 10 -162 -14 -18 -10 -58 -24 -89 -31 -30 -7 -128 -47 -217
-88 -90 -42 -171 -76 -181 -76 -10 0 -46 10 -81 21 -61 21 -64 21 -169 5 -59
-9 -133 -22 -165 -28 -39 -7 -97 -8 -180 -2 -67 4 -140 7 -162 6 -68 -2 -326
27 -410 47 -44 10 -107 28 -140 40 -33 11 -109 37 -170 56 -60 20 -117 40
-125 44 -9 5 -31 12 -50 16 -43 9 -228 83 -255 101 -11 8 -28 14 -38 14 -18 0
-103 31 -142 52 -23 13 -145 45 -230 62 -53 10 -60 14 -63 36 -2 14 -10 45
-18 71 -8 25 -19 76 -25 115 -5 38 -13 92 -17 121 -7 42 -16 60 -53 100 -48
51 -66 100 -54 152 3 17 -3 51 -19 92 -21 56 -25 83 -24 170 1 82 -3 112 -17
139 -36 70 -126 199 -150 214 -14 9 -25 23 -25 30 0 20 -72 81 -127 109 -41
21 -106 44 -252 89 -45 14 -160 17 -246 7z m342 -117 c21 -12 58 -30 83 -42
85 -40 111 -58 187 -131 59 -56 83 -88 108 -143 37 -81 53 -186 29 -186 -8 0
-14 4 -14 9 0 29 -125 163 -201 217 -131 91 -149 104 -157 104 -4 0 -29 11
-57 25 -113 55 -130 13 -19 -45 139 -74 345 -230 302 -230 -20 0 -154 74 -200
110 -46 37 -94 39 -244 9 -90 -18 -113 -20 -169 -10 -36 7 -87 9 -113 6 -108
-14 -167 40 -159 144 4 49 8 59 42 88 41 35 115 67 210 89 92 21 322 13 372
-14z m106 -402 c55 -33 104 -60 111 -60 6 0 28 -11 47 -25 31 -20 39 -34 54
-92 10 -37 26 -77 35 -88 27 -32 32 -55 12 -61 -9 -3 -33 -11 -52 -19 -71 -26
-114 -37 -188 -51 -144 -27 -305 -43 -381 -38 -133 8 -172 12 -175 15 -11 15
-39 155 -51 259 -8 68 -17 136 -20 151 -10 43 17 51 148 44 78 -4 132 -1 177
9 36 7 92 14 125 15 57 1 66 -2 158 -59z m371 -444 c6 -26 4 -72 -4 -137 -15
-109 -11 -132 22 -127 20 3 24 11 32 76 6 49 13 72 22 72 17 0 21 -21 28 -127
3 -45 12 -98 21 -119 8 -20 15 -45 15 -56 0 -10 9 -37 21 -60 17 -34 20 -52
15 -102 -8 -73 4 -101 27 -65 9 13 19 38 23 54 4 17 11 36 17 43 14 18 51 15
71 -7 26 -29 104 -299 99 -342 -4 -28 1 -42 22 -67 20 -24 30 -54 45 -139 10
-59 22 -124 26 -143 4 -19 35 -93 70 -165 59 -120 72 -139 176 -251 62 -66
136 -147 165 -180 91 -103 217 -312 284 -474 22 -52 44 -99 50 -104 5 -6 9
-17 9 -26 0 -9 34 -101 75 -206 41 -104 75 -194 75 -200 0 -18 30 -114 47
-154 9 -19 28 -71 43 -115 15 -44 46 -124 69 -178 50 -117 49 -124 -16 -247
-68 -127 -103 -172 -252 -320 -199 -197 -346 -304 -575 -416 -129 -63 -194
-82 -235 -69 -20 6 -128 139 -143 176 -9 22 -104 157 -133 189 -13 14 -26 36
-30 50 -4 14 -15 34 -25 45 -10 11 -41 58 -68 105 -27 47 -66 112 -86 145 -20
33 -66 119 -101 190 -52 106 -70 157 -100 280 -20 83 -43 174 -51 203 -9 30
-17 76 -20 104 -2 27 -6 54 -9 59 -4 5 -15 59 -26 121 -33 183 -59 321 -86
448 -9 41 -16 92 -15 112 1 21 -3 50 -8 64 -11 28 12 371 32 499 7 39 12 102
12 140 1 73 8 95 30 95 7 0 25 10 40 21 15 12 58 32 96 45 141 47 196 87 255
184 34 57 51 126 57 235 3 50 0 60 -14 63 -22 4 -32 -21 -47 -117 -16 -106
-59 -182 -136 -239 -84 -62 -109 -71 -215 -74 -95 -4 -121 -16 -81 -38 32 -17
26 -24 -32 -38 -83 -19 -157 -15 -208 11 -39 20 -209 152 -209 163 0 3 19 25
43 51 39 42 42 50 41 99 0 50 2 54 23 54 21 0 23 -4 23 -55 l0 -55 37 0 c23 0
48 9 70 26 29 22 34 31 31 62 -2 29 -10 41 -38 60 -31 20 -41 22 -105 16 -38
-4 -78 -11 -87 -15 -9 -5 -46 -9 -81 -9 -49 0 -66 4 -71 15 -7 19 10 186 23
232 5 18 13 73 17 123 5 76 10 93 28 105 41 30 46 21 40 -72 -5 -78 -3 -92 15
-121 27 -42 47 -49 80 -28 14 9 38 22 54 27 30 12 37 46 11 56 -8 3 -31 -3
-50 -13 -46 -25 -68 -11 -72 44 -2 33 3 51 26 84 47 69 62 104 62 147 0 31 -6
44 -30 64 -16 14 -43 28 -59 32 -34 7 -81 57 -81 85 0 34 30 42 227 55 l52 4
26 -45 c14 -24 30 -44 35 -44 17 0 20 18 8 45 -8 17 -8 29 -1 36 5 5 56 16
114 24 141 19 214 32 274 49 28 8 70 14 95 13 43 -2 45 -3 54 -41z m106 -86
c0 -5 -2 -10 -4 -10 -3 0 -8 5 -11 10 -3 6 -1 10 4 10 6 0 11 -4 11 -10z
m-935 -154 c49 -21 45 -38 -7 -34 -36 2 -44 7 -46 26 -4 26 6 27 53 8z m1008
-187 c-8 -29 -13 -23 -13 14 0 22 3 28 9 18 5 -7 6 -22 4 -32z m364 -199 c73
-27 139 -50 146 -50 7 0 21 -6 30 -12 14 -11 18 -36 21 -153 2 -87 10 -157 19
-185 8 -25 15 -61 16 -80 0 -19 11 -65 24 -102 l24 -67 -34 -30 c-27 -24 -33
-36 -33 -69 0 -32 6 -45 30 -65 16 -14 45 -30 64 -37 l34 -11 4 -102 c5 -110
-3 -138 -30 -97 -10 13 -43 53 -74 88 -68 75 -138 173 -184 257 -34 62 -61
155 -90 310 -9 50 -20 108 -24 130 -4 22 -20 72 -35 110 -44 112 -73 199 -68
208 7 12 23 8 160 -43z m340 -131 c65 -23 172 -65 218 -85 190 -81 349 -110
740 -135 99 -6 184 -15 190 -20 10 -10 33 -83 41 -134 3 -16 15 -58 26 -93 27
-85 22 -96 -45 -87 -28 4 -56 11 -61 16 -6 5 -15 4 -23 -2 -9 -8 -17 -8 -25
-1 -9 7 -42 7 -103 0 -49 -6 -241 -11 -425 -13 -184 -1 -370 -6 -413 -10 -67
-7 -80 -6 -97 10 -11 10 -20 28 -20 40 0 11 -4 25 -9 31 -5 5 -14 36 -19 69
-19 111 -43 230 -57 280 -29 105 -26 155 11 155 7 0 39 -9 71 -21z m2279 -24
c-11 -8 -25 -15 -32 -15 -36 0 -123 -53 -162 -99 -26 -31 -64 -61 -98 -78 -29
-14 -54 -30 -54 -34 0 -17 46 -20 80 -5 19 8 70 19 113 25 94 13 307 15 307 2
0 -8 -86 -34 -207 -61 -33 -8 -53 -17 -53 -26 0 -11 16 -14 68 -14 37 0 87 -5
112 -11 63 -14 201 -80 193 -92 -4 -6 -64 -8 -164 -4 -88 3 -161 2 -164 -3 -8
-13 23 -33 73 -45 42 -11 74 -36 61 -49 -3 -3 -61 6 -129 20 -94 19 -129 23
-147 15 -29 -13 -30 -29 -1 -33 28 -4 34 -24 11 -37 -13 -6 -33 -5 -64 4 -24
7 -91 23 -149 36 -58 12 -108 25 -112 28 -4 3 -9 42 -12 86 -3 44 -8 96 -12
116 -6 36 -5 38 67 92 69 51 196 118 328 173 67 28 181 34 147 9z m-4028 -177
c19 -19 15 -58 -7 -58 -18 0 -51 38 -51 60 0 14 43 13 58 -2z m3374 -9 c29
-16 44 -61 58 -172 l13 -98 -33 -34 -32 -33 -129 -1 c-71 0 -132 -1 -136 -2
-34 -6 -64 4 -74 24 -15 26 -50 182 -56 248 l-5 46 114 7 c62 4 131 11 153 16
59 12 104 11 127 -1z m-3463 -57 c20 -37 21 -46 10 -56 -13 -12 -131 -40 -212
-50 -82 -10 -45 55 68 120 78 44 103 42 134 -14z m88 -144 c13 -12 23 -26 23
-31 0 -6 -28 -40 -62 -77 -104 -110 -135 -146 -149 -171 -25 -47 -34 -49 -204
-43 -170 5 -323 31 -385 63 -19 10 -46 21 -60 24 -33 8 -76 65 -61 80 6 6 87
27 180 48 94 21 199 49 233 63 56 22 73 25 153 20 76 -5 104 -2 185 20 117 31
118 31 147 4z m-1002 -107 c-6 -46 -5 -51 20 -67 14 -9 31 -26 37 -37 10 -19
8 -20 -30 -15 -51 7 -59 0 -27 -26 14 -12 28 -36 31 -53 6 -29 4 -33 -14 -33
-12 0 -28 13 -39 33 -13 22 -28 33 -46 35 l-27 2 31 -51 c22 -35 28 -54 21
-61 -14 -14 -65 -4 -129 27 l-52 24 -58 -29 c-56 -28 -61 -29 -142 -20 -49 5
-88 14 -92 22 -23 35 6 97 57 125 88 48 152 75 222 94 42 12 95 26 117 32 22
6 58 19 80 29 22 10 42 18 43 18 2 0 1 -22 -3 -49z m1141 -10 c67 -59 125 -81
213 -81 44 0 82 -3 84 -7 3 -8 1 -38 -29 -358 -20 -216 -20 -351 2 -445 25
-107 26 -113 34 -175 5 -33 13 -94 20 -135 6 -41 15 -107 20 -146 21 -161 130
-596 180 -714 10 -25 22 -55 25 -67 11 -40 151 -299 194 -359 22 -31 41 -61
41 -66 0 -5 14 -29 30 -53 17 -24 30 -47 30 -51 0 -13 83 -138 145 -219 98
-129 145 -197 145 -213 0 -21 -81 -8 -146 23 -28 14 -58 25 -66 25 -15 0 -165
102 -203 137 -102 96 -193 232 -295 440 -27 56 -54 104 -59 108 -5 3 -17 29
-25 58 -9 28 -26 71 -39 95 -20 40 -29 46 -92 68 -137 47 -282 135 -444 269
-50 41 -68 65 -106 142 -25 50 -45 97 -45 103 0 6 -13 50 -29 98 -31 93 -47
153 -61 217 -4 22 -13 64 -19 94 -6 30 -18 63 -27 73 -13 14 -15 28 -9 65 3
27 8 91 10 145 4 138 22 248 63 368 19 58 41 125 49 150 22 66 51 119 98 175
61 74 145 193 145 206 0 6 14 24 32 41 27 25 38 29 66 25 18 -3 49 -20 68 -36z
m1993 -98 c11 -12 101 -295 101 -315 0 -9 4 -20 10 -23 5 -3 14 -25 20 -48 13
-50 38 -134 84 -283 20 -61 45 -160 56 -220 12 -60 32 -158 45 -219 24 -111
40 -213 55 -360 13 -121 28 -206 45 -254 8 -24 19 -69 25 -100 5 -31 17 -90
25 -131 15 -73 12 -150 -6 -150 -34 0 -151 288 -302 740 -61 183 -102 290
-120 310 -9 11 -17 26 -17 33 0 7 -7 23 -16 35 -8 12 -26 54 -39 93 -13 38
-38 95 -56 125 -17 30 -29 58 -26 60 3 3 23 -6 44 -20 20 -14 46 -26 55 -26
30 0 21 36 -17 64 -22 17 -38 40 -45 66 -13 50 -26 57 -53 32 -27 -26 -40 -18
-56 31 -17 52 -9 70 29 62 43 -9 69 1 63 25 -4 14 -14 20 -33 20 -24 0 -32 7
-52 50 -27 57 -45 64 -50 18 -3 -32 -28 -53 -28 -23 0 8 -8 32 -18 53 -31 61
-46 154 -39 244 4 45 11 86 17 92 28 28 278 44 299 19z m-2917 -103 c38 -16
78 -30 87 -30 9 0 52 -12 96 -26 61 -20 106 -27 190 -30 60 -2 111 -8 113 -14
2 -5 -15 -46 -38 -91 -25 -50 -51 -122 -67 -190 -14 -60 -30 -109 -35 -109 -5
0 -25 7 -45 15 -19 8 -53 15 -73 15 -21 0 -45 3 -54 6 -14 5 -14 9 2 36 9 16
29 36 44 44 31 16 92 88 79 92 -5 2 -21 -4 -36 -14 -40 -26 -42 -9 -8 58 18
34 30 66 27 70 -7 11 -34 10 -34 -2 0 -5 -27 -39 -60 -77 -33 -37 -60 -72 -60
-77 0 -5 7 -17 15 -26 12 -14 13 -23 4 -51 -17 -49 -20 -51 -80 -38 -92 19
-94 22 -51 79 20 28 45 50 54 50 19 0 41 43 64 125 31 112 7 107 -58 -12 -46
-84 -73 -121 -83 -111 -14 14 19 132 52 180 18 28 33 54 33 59 0 30 -50 -18
-69 -67 -14 -36 -66 -90 -74 -77 -3 5 4 30 15 56 23 52 16 76 -11 38 -33 -47
-105 -123 -109 -113 -2 6 11 40 27 77 17 36 33 83 37 103 8 45 21 82 29 82 3
0 38 -13 77 -30z m-427 -70 c3 -5 -1 -10 -9 -10 -9 0 -16 5 -16 10 0 6 4 10 9
10 6 0 13 -4 16 -10z m-38 -56 c12 -8 43 -14 68 -14 52 0 53 -4 26 -76 -38
-100 20 -93 119 14 39 41 73 72 77 69 3 -4 -6 -30 -19 -59 -32 -68 -53 -136
-45 -145 4 -3 25 9 48 27 33 26 43 30 50 19 5 -8 9 -17 9 -21 0 -15 27 -8 45
12 10 11 22 20 26 20 4 0 9 -29 11 -65 2 -53 0 -65 -12 -65 -8 0 -60 14 -115
31 -55 16 -118 34 -139 40 -22 5 -71 25 -110 44 -38 19 -73 35 -76 35 -9 0
-169 104 -193 125 -10 9 -15 20 -12 26 9 14 215 0 242 -17z m228 -28 c-10 -14
-22 -26 -29 -26 -6 0 -17 -9 -24 -20 -12 -19 -42 -28 -42 -12 0 23 40 67 70
77 19 7 36 11 38 10 2 -2 -4 -15 -13 -29z m-816 -55 c11 -7 0 -16 -43 -35 -32
-14 -62 -26 -66 -26 -4 0 -56 -22 -115 -50 -113 -53 -129 -58 -123 -38 6 18
82 59 168 92 41 15 93 36 115 46 48 22 46 22 64 11z m4555 -1726 c11 -8 28
-15 38 -15 10 0 29 -7 43 -16 13 -8 50 -19 82 -24 32 -5 99 -16 148 -23 51 -9
121 -12 163 -10 48 4 72 2 72 -5 0 -6 -17 -51 -39 -99 -49 -113 -85 -238 -111
-388 -12 -66 -26 -138 -31 -160 -17 -63 -37 -164 -48 -240 -12 -78 -49 -337
-53 -374 -5 -40 -51 -46 -114 -16 -29 14 -77 31 -108 39 -65 17 -96 33 -96 48
0 6 16 29 36 51 54 59 154 275 170 368 12 66 12 173 2 283 -3 27 0 31 35 38
21 4 50 16 65 26 15 11 46 31 70 46 23 14 42 32 42 39 0 16 -58 72 -125 120
-57 40 -266 250 -284 285 -21 39 6 55 43 27z m-152 -125 c13 -17 38 -49 56
-71 42 -54 101 -159 117 -212 8 -23 25 -66 40 -96 25 -52 26 -59 22 -180 -6
-141 -16 -205 -42 -271 -27 -67 -163 -267 -204 -299 -56 -44 -167 -111 -183
-111 -8 0 -18 -4 -24 -9 -5 -6 -46 -23 -90 -40 -45 -16 -103 -41 -130 -54 -80
-41 -336 -154 -376 -167 -53 -16 -166 -99 -219 -161 -88 -102 -296 -301 -337
-321 -39 -20 -41 -21 -107 -3 -37 10 -69 24 -72 31 -5 14 40 107 103 211 24
39 44 79 44 89 0 9 8 31 19 48 10 17 36 76 57 130 33 88 45 108 100 162 34 34
76 82 93 107 56 81 119 223 131 295 l11 69 82 43 c45 23 91 50 102 60 11 9 74
54 140 98 343 232 555 456 604 640 14 50 31 53 63 12z m181 -72 c77 -87 100
-109 143 -137 67 -43 106 -81 101 -95 -8 -20 -73 -47 -120 -49 l-41 -2 -21 55
c-25 67 -68 151 -106 206 -15 22 -31 53 -35 69 -6 25 -5 26 13 17 10 -6 40
-34 66 -64z m-1238 -841 c4 -15 -8 -56 -35 -118 -43 -96 -118 -200 -191 -263
-21 -18 -46 -50 -54 -72 -36 -88 -85 -164 -108 -164 -6 0 -73 -31 -151 -69
-193 -94 -321 -154 -382 -179 l-52 -22 -83 29 c-119 41 -119 41 -119 66 0 26
17 42 90 82 75 42 206 136 258 186 83 80 262 310 282 362 5 12 38 52 75 90 61
62 69 67 98 61 131 -27 134 -27 282 13 39 10 73 19 77 20 4 0 10 -9 13 -22z
m1170 -331 c53 -18 185 -55 210 -58 29 -4 25 -32 -5 -36 -14 -2 -29 -8 -34
-13 -6 -5 -21 -9 -34 -9 -13 0 -49 -12 -80 -26 -65 -29 -78 -35 -147 -58 -27
-10 -82 -30 -122 -44 l-71 -26 -163 25 c-89 13 -164 29 -166 34 -2 6 59 30
134 54 76 24 154 52 173 62 19 11 42 19 50 19 8 0 51 21 95 45 88 49 100 52
160 31z m299 -153 c3 -10 3 -45 1 -78 -3 -33 -1 -103 5 -155 5 -52 12 -122 15
-155 7 -80 50 -281 69 -327 9 -21 16 -50 16 -66 0 -15 4 -32 9 -37 11 -12 41
-112 41 -137 0 -24 -78 -74 -128 -82 -22 -3 -50 -14 -64 -25 -13 -11 -41 -22
-61 -26 -20 -4 -41 -13 -47 -20 -6 -7 -19 -11 -29 -8 -10 3 -32 -2 -49 -11
-17 -9 -54 -21 -82 -27 -41 -9 -50 -14 -50 -32 0 -19 -3 -18 -21 10 -14 22
-23 60 -29 125 -9 89 -20 164 -41 273 -5 28 -16 118 -24 200 -8 83 -17 159
-20 170 -2 12 -9 63 -15 115 -6 52 -13 103 -16 113 -3 11 1 19 13 23 10 4 54
21 99 40 45 19 87 34 95 34 8 0 71 22 139 49 138 54 166 60 174 34z m-735
-163 c82 -5 147 -14 151 -20 4 -6 12 -70 19 -143 6 -73 18 -172 26 -222 8 -49
17 -108 20 -130 18 -149 26 -205 34 -245 5 -25 12 -94 15 -153 l6 -109 -43 7
c-23 3 -65 17 -94 31 -28 14 -75 29 -105 33 -29 4 -69 16 -88 26 -19 10 -48
22 -65 26 -16 4 -69 24 -117 43 -48 20 -96 36 -106 36 -37 0 -41 18 -22 93 56
226 90 401 96 498 2 32 8 77 14 102 5 25 7 53 4 62 -4 8 -1 21 5 29 6 7 8 16
4 19 -3 4 0 13 7 21 8 11 24 14 53 11 23 -3 107 -9 186 -15z m-1205 -485 c20
-8 36 -18 36 -21 0 -3 -27 -30 -59 -60 -32 -30 -86 -94 -120 -143 -77 -112
-97 -126 -181 -124 -36 1 -112 -5 -169 -13 -57 -8 -107 -12 -110 -9 -11 12 21
26 167 74 173 57 211 82 275 176 62 92 97 135 112 135 7 0 29 -7 49 -15z"/>
<path d="M8338 7762 c-21 -25 -41 -79 -33 -91 10 -17 25 -13 57 14 34 29 88
33 128 10 37 -21 80 -19 80 3 0 42 -83 78 -151 67 -24 -4 -45 -3 -53 4 -10 8
-17 6 -28 -7z"/>
<path d="M8825 6856 l-90 -32 3 -34 c1 -19 -2 -57 -9 -83 -11 -47 -10 -50 17
-78 30 -31 53 -36 72 -17 18 18 14 80 -8 113 -23 35 -26 55 -6 55 13 0 44 -42
71 -95 6 -11 20 -21 32 -23 16 -2 24 5 33 33 10 30 15 35 32 29 12 -3 40 2 67
14 25 11 59 25 74 31 22 9 26 14 19 28 -11 18 -81 43 -124 43 -18 0 -33 9 -44
25 -20 31 -28 31 -139 -9z"/>
<path d="M9270 6654 c-13 -32 -13 -95 -1 -127 7 -18 6 -30 -4 -43 -8 -11 -15
-31 -15 -45 0 -14 -7 -41 -16 -58 -12 -23 -15 -49 -12 -89 3 -32 2 -67 -3 -79
-5 -15 -3 -25 7 -34 12 -10 19 -7 40 12 25 23 26 28 21 95 -4 56 -1 80 14 113
16 36 18 61 15 159 -2 65 -5 118 -5 120 -1 1 -8 2 -16 2 -9 0 -20 -12 -25 -26z"/>
<path d="M9150 5625 c-14 -17 -4 -55 15 -55 22 0 46 41 33 57 -14 17 -33 17
-48 -2z"/>
<path d="M9040 5361 c-8 -16 -7 -28 4 -50 19 -35 40 -45 57 -24 11 12 10 21
-6 51 -24 43 -40 50 -55 23z"/>
<path d="M9012 5098 c-16 -16 -15 -60 1 -82 29 -40 71 20 48 70 -12 26 -30 31
-49 12z"/>
<path d="M9023 4873 c-16 -6 -17 -45 -1 -61 18 -18 36 -14 43 9 8 24 -22 60
-42 52z"/>
<path d="M9021 4636 c-15 -18 2 -56 23 -56 25 0 39 26 26 49 -13 24 -33 27
-49 7z"/>
<path d="M9074 4415 c-4 -9 -2 -21 4 -27 15 -15 44 -1 40 19 -4 23 -36 29 -44
8z"/>
<path d="M9089 4178 c-9 -18 -8 -24 6 -34 12 -9 23 -10 35 -4 15 8 16 14 7 35
-15 31 -33 32 -48 3z"/>
<path d="M9157 3963 c-14 -13 -7 -43 12 -53 30 -16 41 -12 41 13 0 35 -33 60
-53 40z"/>
<path d="M9239 3808 c-10 -18 -8 -24 11 -40 29 -23 37 -23 50 3 9 16 8 25 -6
40 -22 25 -41 24 -55 -3z"/>
<path d="M8650 5519 c-14 -25 -6 -49 14 -49 17 0 36 29 36 54 0 23 -37 20 -50
-5z"/>
<path d="M8624 5286 c-8 -21 13 -46 32 -39 20 8 13 47 -9 51 -9 2 -20 -4 -23
-12z"/>
<path d="M8611 5081 c-22 -14 6 -81 34 -81 19 0 25 26 14 60 -11 31 -24 36
-48 21z"/>
<path d="M8670 4811 c0 -27 4 -31 26 -31 22 0 25 4 22 28 -2 19 -9 28 -25 30
-20 3 -23 -1 -23 -27z"/>
<path d="M8727 4593 c-4 -3 -7 -17 -7 -30 0 -18 6 -23 24 -23 33 0 53 25 36
45 -13 16 -42 20 -53 8z"/>
<path d="M8740 4381 c0 -29 11 -51 25 -51 17 0 27 28 20 51 -8 26 -45 25 -45
0z"/>
<path d="M8883 3934 c-3 -8 2 -23 11 -32 16 -16 18 -16 31 2 11 14 12 23 4 33
-15 18 -38 16 -46 -3z"/>
<path d="M8930 3787 c0 -14 20 -37 32 -37 4 0 8 11 8 25 0 18 -5 25 -20 25
-11 0 -20 -6 -20 -13z"/>
<path d="M10597 4763 c-4 -3 -7 -28 -7 -54 0 -41 4 -51 36 -78 28 -25 39 -29
49 -21 16 13 11 28 -30 109 -25 49 -34 58 -48 44z"/>
<path d="M11031 3127 c-22 -34 -56 -94 -75 -132 -84 -168 -175 -292 -312 -425
-53 -52 -120 -118 -148 -146 -28 -28 -73 -69 -101 -90 -27 -21 -68 -54 -91
-74 -22 -19 -64 -55 -94 -80 -219 -185 -590 -579 -590 -626 0 -38 52 4 245
199 115 118 244 245 285 283 217 199 264 240 318 278 105 74 301 281 380 402
40 60 84 127 100 149 45 65 142 261 142 289 0 45 -17 37 -59 -27z"/>
<path d="M3968 6237 c-18 -5 -49 -7 -70 -4 -72 10 -74 -17 -13 -194 l44 -131
-57 -25 c-31 -14 -60 -30 -64 -36 -13 -20 -9 -75 7 -114 8 -19 15 -50 15 -67
0 -17 7 -56 15 -86 8 -30 18 -125 21 -210 6 -137 4 -164 -14 -235 -11 -44 -24
-104 -28 -134 -5 -37 -15 -63 -34 -85 -60 -70 -147 -194 -180 -257 -158 -305
-169 -333 -190 -500 -7 -52 -16 -104 -21 -117 -5 -13 -9 -35 -9 -50 0 -15 -9
-97 -20 -182 -32 -255 -48 -444 -37 -457 5 -7 17 -13 26 -13 34 0 45 18 47 77
6 164 17 310 31 418 8 67 12 143 8 172 -5 39 -2 58 9 76 11 15 14 34 10 54 -7
33 9 64 94 193 23 36 45 76 49 89 7 27 37 75 69 109 12 12 33 46 48 75 25 50
144 216 191 267 52 57 64 121 71 379 4 127 1 172 -15 261 -23 118 -27 215 -10
226 6 4 44 13 83 20 39 8 82 16 96 19 14 4 33 0 43 -7 17 -13 18 -20 7 -75 -6
-34 -12 -151 -13 -260 -2 -218 6 -266 74 -430 45 -106 64 -130 179 -218 58
-44 142 -116 188 -160 45 -44 102 -96 126 -115 52 -42 89 -103 88 -145 -1 -16
10 -61 23 -100 35 -102 75 -264 75 -301 0 -18 5 -45 11 -61 11 -30 54 -223 69
-313 5 -30 19 -98 30 -150 27 -119 38 -184 50 -285 5 -44 14 -109 20 -145 16
-102 28 -244 23 -274 -3 -15 2 -57 11 -94 8 -37 18 -93 21 -126 3 -32 8 -63
11 -68 6 -9 17 -167 28 -385 2 -32 9 -60 19 -71 11 -12 17 -36 17 -70 0 -28 5
-73 10 -99 6 -26 13 -104 15 -173 7 -172 9 -862 3 -990 -3 -58 -6 -140 -7
-184 -1 -75 -2 -79 -34 -110 -60 -56 -214 -155 -284 -182 -37 -14 -97 -30
-133 -35 -35 -5 -75 -16 -87 -24 -22 -15 -112 -26 -203 -26 -159 0 -553 11
-590 17 -25 4 -63 8 -85 9 -114 7 -290 28 -375 45 -132 27 -190 50 -201 78
-15 38 -10 232 6 278 9 26 16 102 20 195 3 85 8 161 10 169 16 56 46 500 52
750 2 85 8 207 14 270 6 63 12 313 14 555 3 242 9 510 14 595 5 85 6 158 3
161 -16 15 -49 18 -64 7 -12 -10 -18 -34 -20 -90 -2 -43 -7 -80 -10 -83 -3 -4
-26 -1 -49 6 -24 7 -57 14 -72 15 -16 1 -39 12 -52 24 -22 20 -23 21 -59 4
-33 -16 -36 -21 -36 -61 0 -53 20 -66 54 -34 22 21 27 21 97 10 41 -6 87 -16
103 -22 l28 -10 -7 -66 c-4 -36 -9 -106 -10 -156 -3 -96 -23 -357 -30 -390 -2
-11 -5 -94 -5 -185 -1 -91 -6 -208 -11 -260 -9 -93 -11 -131 -28 -480 -5 -96
-13 -186 -19 -200 -7 -14 -16 -86 -22 -160 -6 -74 -15 -180 -21 -235 -6 -55
-14 -140 -19 -190 -5 -49 -13 -130 -19 -180 -12 -102 2 -219 36 -304 4 -11 -2
-12 -28 -6 -19 4 -131 9 -249 11 -186 4 -232 1 -340 -17 -69 -12 -128 -25
-133 -28 -4 -4 -1 -15 6 -25 12 -17 21 -17 127 -6 122 14 416 8 630 -11 63 -6
141 -10 173 -9 32 1 104 -6 160 -14 191 -30 232 -34 248 -25 9 4 19 5 23 1 20
-20 119 -33 281 -37 99 -2 234 -7 300 -10 70 -3 190 1 288 10 186 16 232 31
392 120 44 25 112 61 152 80 102 50 161 112 162 171 0 10 8 66 17 124 12 82
16 191 17 495 1 370 -1 449 -23 710 -5 61 -10 146 -12 190 -3 44 -9 89 -15
100 -6 11 -16 76 -22 145 -6 69 -18 161 -26 205 -8 44 -15 96 -15 115 0 19 -5
51 -10 70 -20 66 -39 178 -33 198 2 11 -2 33 -11 50 -9 17 -16 47 -16 66 0 19
-6 65 -14 103 -8 37 -22 128 -30 201 -9 73 -18 137 -21 141 -2 5 89 8 203 8
131 0 217 4 234 11 29 12 48 59 48 123 0 55 16 67 100 79 41 6 86 10 100 9 14
0 69 6 123 15 54 9 101 15 105 14 9 -2 101 9 222 27 52 8 132 16 177 20 l81 5
37 -44 c45 -55 66 -60 252 -58 l143 1 -3 -49 c-2 -27 -7 -53 -11 -57 -12 -12
-78 -2 -118 18 -20 10 -45 19 -55 19 -10 0 -53 11 -96 25 -79 25 -141 31 -165
16 -19 -12 4 -28 59 -40 26 -6 82 -25 125 -42 43 -18 160 -60 259 -94 99 -35
202 -72 228 -84 27 -12 81 -26 120 -32 40 -5 108 -17 152 -26 99 -20 454 -29
485 -13 11 6 20 20 20 30 0 18 -7 20 -92 20 -85 0 -342 16 -413 25 -124 16
-175 28 -280 69 -172 67 -165 61 -165 154 0 71 -3 81 -25 102 -24 22 -30 23
-172 22 -82 -1 -153 2 -159 6 -5 4 -23 24 -39 45 -31 42 -91 73 -110 57 -6 -5
-70 -14 -141 -20 -71 -5 -160 -12 -199 -15 -38 -3 -99 -10 -135 -15 -59 -8
-239 -29 -393 -45 -81 -9 -96 -27 -90 -108 4 -50 2 -65 -11 -76 -19 -16 -219
-32 -251 -21 -17 6 -66 -1 -117 -16 -25 -8 -41 31 -49 121 -9 102 -15 128 -47
194 -19 40 -28 78 -33 150 -4 53 -21 152 -37 221 -17 69 -33 145 -37 170 -3
25 -18 90 -33 144 -22 83 -34 107 -68 145 -22 25 -43 51 -45 57 -8 20 -234
216 -265 230 -18 7 -43 27 -57 44 -14 16 -32 30 -39 31 -16 0 -130 157 -163
224 -28 56 -44 128 -45 195 -1 109 10 320 19 361 15 65 12 158 -7 207 -13 34
-27 49 -66 70 -65 35 -82 79 -66 168 13 78 13 137 0 129 -6 -3 -13 1 -16 9 -5
13 -19 15 -65 14 -32 -2 -73 -7 -91 -11z m90 -146 c3 -55 -11 -64 -21 -14 -3
16 -8 39 -12 52 -7 19 -5 22 11 19 15 -2 20 -14 22 -57z m1290 -4316 c-3 -3
-9 2 -12 12 -6 14 -5 15 5 6 7 -7 10 -15 7 -18z"/>
<path d="M893 4570 c-4 -4 -141 -10 -247 -10 -22 0 -44 -4 -50 -9 -6 -5 -38
-12 -71 -16 -94 -11 -95 -13 -95 -184 0 -171 -2 -175 -90 -178 -30 -1 -90 -5
-133 -9 -101 -8 -119 -22 -125 -98 -4 -53 -6 -57 -26 -52 -31 7 -60 -35 -51
-75 5 -23 11 -29 23 -23 10 4 31 9 47 12 17 2 40 13 52 25 20 18 22 27 16 77
-7 69 -8 69 137 81 101 8 161 20 188 37 13 9 16 60 12 196 -3 107 -2 108 157
118 71 4 151 10 178 13 28 3 98 7 157 10 l107 4 10 -37 c5 -20 12 -115 15
-210 4 -96 11 -182 16 -193 11 -20 55 -34 143 -45 36 -4 69 -15 90 -30 69 -51
94 -57 216 -51 l114 4 36 -32 c49 -44 102 -57 250 -58 l126 -2 5 -35 c9 -55
37 -88 84 -101 66 -18 138 -16 169 4 24 16 27 23 27 79 l0 61 63 -8 c114 -14
496 -13 515 1 16 12 16 14 1 29 -14 15 -44 18 -192 20 -96 2 -180 6 -186 9
-16 10 -14 128 5 269 20 152 20 151 -106 142 -100 -8 -127 -26 -115 -80 16
-77 25 -158 25 -247 0 -95 -1 -98 -22 -98 -42 0 -50 -14 -47 -71 l4 -54 -55 2
c-30 1 -65 5 -76 8 -23 5 -41 41 -46 90 -5 48 -37 57 -204 56 -79 -1 -153 3
-163 9 -10 5 -22 21 -25 35 -9 35 -28 39 -181 36 -58 -1 -155 5 -159 11 -1 1
-6 16 -11 32 -9 26 -17 31 -70 41 -33 7 -84 16 -112 20 l-53 7 -1 101 c-1 184
-15 337 -32 354 -12 12 -41 16 -127 17 -61 0 -114 -1 -117 -4z m1612 -497 l-4
-188 -23 3 c-13 2 -26 7 -29 10 -4 4 -9 87 -11 185 l-4 177 37 0 38 0 -4 -187z
m-2375 47 c0 -5 -4 -10 -10 -10 -5 0 -10 5 -10 10 0 6 5 10 10 10 6 0 10 -4
10 -10z"/>
<path d="M737 4383 c-12 -11 -7 -79 6 -98 19 -25 37 -10 37 31 0 52 -23 88
-43 67z"/>
<path d="M870 4337 c0 -52 22 -80 45 -56 9 10 11 26 6 54 -5 31 -11 41 -29 43
-20 3 -22 -1 -22 -41z"/>
<path d="M628 4341 c-10 -13 -15 -28 -11 -34 9 -14 35 18 31 39 -3 17 -5 17
-20 -5z"/>
<path d="M3036 3713 c-9 -23 3 -31 63 -43 75 -14 116 -13 131 5 10 13 7 17
-21 29 -19 7 -64 16 -101 19 -55 5 -67 3 -72 -10z"/>
<path d="M6253 3449 c-28 -13 -47 -32 -59 -57 -21 -44 -29 -118 -17 -151 8
-20 2 -31 -50 -82 -47 -47 -58 -64 -55 -86 2 -21 10 -29 35 -35 18 -5 34 -12
37 -17 9 -13 -13 -166 -34 -252 -21 -83 -84 -225 -151 -340 -23 -41 -61 -111
-83 -155 -23 -45 -46 -88 -52 -95 -19 -25 -46 -102 -67 -194 -25 -112 -25
-113 -37 -325 -5 -96 -14 -200 -19 -230 -15 -83 -30 -336 -36 -615 -3 -137 -8
-276 -11 -307 l-6 -56 38 -21 c48 -25 89 -59 81 -67 -3 -4 -27 5 -53 20 -49
27 -69 26 -61 -5 3 -11 1 -51 -5 -90 -9 -57 -8 -73 3 -84 30 -28 146 -67 224
-75 44 -5 121 -15 170 -24 66 -12 160 -16 357 -16 350 0 438 12 606 84 46 20
92 36 103 36 25 0 71 23 88 44 8 9 28 16 45 16 18 0 37 5 43 11 8 8 72 13 185
14 98 2 216 10 273 19 55 8 133 18 174 20 81 5 102 16 81 41 -20 24 -66 31
-144 23 -247 -24 -572 -41 -623 -32 -37 7 -41 18 -62 154 -7 41 -21 125 -31
185 -11 61 -19 121 -19 135 1 14 -13 81 -31 150 -34 132 -45 185 -59 290 -4
36 -13 90 -20 120 -30 146 -63 318 -67 343 -2 16 -10 43 -17 60 -8 18 -24 64
-37 102 -13 39 -29 79 -37 90 -7 11 -13 28 -13 38 0 17 -48 124 -117 262 -14
28 -39 82 -55 120 -111 261 -158 420 -158 535 0 67 2 73 40 121 68 86 50 109
-92 129 -49 7 -88 14 -88 16 0 3 11 9 25 14 13 5 36 27 50 49 25 36 26 42 14
80 -7 25 -28 55 -51 76 -46 42 -91 46 -155 14z m115 -58 c43 -37 15 -109 -35
-90 -32 12 -39 7 -47 -37 -8 -41 -36 -44 -47 -4 -25 89 9 143 91 148 8 1 25
-7 38 -17z m12 -232 c112 -15 134 -23 121 -48 -28 -51 -308 -64 -360 -16 -11
11 -6 18 29 40 56 36 81 45 105 40 11 -3 58 -10 105 -16z m-15 -148 c18 -7 20
-18 22 -112 2 -124 10 -185 28 -213 7 -12 16 -37 20 -56 3 -19 10 -44 14 -55
5 -11 23 -58 41 -104 17 -46 42 -100 55 -120 13 -20 31 -56 40 -81 9 -24 29
-65 45 -90 16 -25 38 -69 49 -98 12 -30 32 -70 46 -90 14 -20 25 -42 25 -48 0
-6 9 -23 20 -36 11 -14 25 -47 31 -74 7 -27 29 -103 51 -168 21 -66 38 -134
38 -151 0 -17 4 -35 9 -40 6 -6 12 -35 15 -65 6 -67 31 -190 51 -245 7 -22 16
-82 20 -134 5 -86 10 -116 35 -221 39 -162 61 -266 68 -330 8 -64 7 -77 -7
-88 -14 -11 -13 -15 12 -35 15 -12 27 -27 27 -33 0 -20 -193 -98 -280 -114
-36 -6 -85 -16 -110 -21 -25 -5 -88 -9 -140 -9 -52 1 -104 0 -115 -1 -45 -3
-268 12 -395 27 -192 23 -210 25 -214 33 -2 3 -7 64 -10 135 -7 134 -14 161
-45 171 -25 8 -35 52 -25 118 4 29 6 138 4 242 -1 105 -2 199 -1 210 0 11 6
88 11 170 12 179 12 158 9 320 -4 236 27 372 131 590 78 161 85 177 135 295
15 36 36 79 46 96 11 17 19 37 19 45 0 7 9 31 20 53 24 52 43 169 38 247 l-3
59 35 14 c38 16 103 19 135 7z m-555 -2816 c0 -15 -18 -30 -27 -22 -2 3 -2 15
2 26 7 23 25 19 25 -4z"/>
<path d="M6576 1732 c-13 -20 -30 -43 -39 -50 -13 -11 -16 -10 -21 6 -4 10
-17 29 -29 40 -20 19 -26 20 -41 9 -17 -12 -15 -18 27 -78 33 -47 43 -69 37
-79 -6 -8 -10 -36 -10 -62 0 -45 2 -48 25 -48 29 0 45 30 45 84 0 18 14 63 30
99 33 74 37 102 15 111 -10 3 -23 -7 -39 -32z"/>
<path d="M6023 1724 c-44 -22 -48 -43 -22 -126 23 -74 19 -100 -15 -106 -11
-3 -16 4 -16 23 0 29 -27 45 -41 24 -15 -22 -2 -82 22 -101 34 -28 73 -23 104
14 22 26 26 38 21 67 -3 20 -9 53 -12 74 -6 35 -5 37 19 37 14 0 29 5 32 10 9
15 -4 68 -22 85 -18 19 -30 19 -70 -1z"/>
<path d="M6203 1715 c-70 -50 -71 -200 -1 -249 28 -20 77 -21 104 -2 11 8 33
33 49 55 l28 41 -18 61 c-20 66 -47 93 -105 104 -24 4 -42 1 -57 -10z m82 -66
c23 -19 26 -27 20 -58 -10 -61 -72 -94 -95 -52 -17 33 -12 89 10 111 25 25 31
25 65 -1z"/>
<path d="M7395 3449 c-22 -4 -71 -14 -109 -21 -38 -7 -71 -19 -74 -25 -5 -18
44 -35 82 -28 99 16 287 14 406 -5 174 -26 291 -39 307 -33 7 3 13 11 13 17 0
23 -25 36 -70 36 -25 0 -140 16 -255 35 -219 36 -235 38 -300 24z"/>
<path d="M8225 3424 c-26 -26 -6 -34 106 -44 57 -5 120 -14 139 -20 19 -6 60
-15 90 -20 30 -5 87 -16 125 -24 39 -8 91 -15 118 -16 39 0 47 3 47 19 0 20
-23 45 -33 35 -3 -3 -27 1 -54 10 -147 49 -301 76 -430 76 -71 0 -95 -4 -108
-16z"/>
<path d="M1340 3407 c-80 -4 -210 -17 -290 -28 -80 -11 -171 -22 -203 -25 -70
-6 -110 -20 -105 -37 7 -19 61 -20 141 -3 157 34 704 58 738 32 12 -8 18 -37
24 -99 l7 -87 -69 -1 c-37 0 -77 -4 -88 -8 -14 -6 -35 -1 -69 16 l-50 25 -18
-22 c-19 -24 -22 -38 -12 -64 9 -23 34 -20 34 4 0 21 15 27 25 11 3 -6 40 -8
89 -4 106 7 153 -1 162 -29 3 -11 7 -52 8 -90 1 -56 -2 -71 -15 -79 -9 -5 -79
-11 -155 -14 -162 -7 -184 -10 -184 -30 0 -25 94 -38 190 -26 169 22 259 32
335 36 44 2 123 8 175 13 52 5 120 6 150 3 l55 -6 6 -48 c6 -59 33 -83 58 -53
17 21 27 116 12 116 -8 0 -10 8 -6 20 5 15 1 22 -17 28 -23 8 -282 0 -435 -14
-98 -8 -97 -9 -98 106 l0 75 80 1 c260 4 514 28 648 61 78 20 93 13 88 -42 -3
-39 10 -45 43 -20 17 13 22 13 38 -2 10 -9 18 -24 18 -35 0 -11 7 -18 20 -18
11 0 23 -7 26 -15 4 -10 20 -15 44 -15 30 0 44 6 64 31 21 25 24 34 15 51 -13
24 -74 51 -98 43 -10 -3 -24 1 -31 10 -12 14 -15 14 -30 0 -15 -14 -19 -13
-40 10 -12 13 -28 35 -34 47 -10 20 -19 23 -61 21 -28 -1 -72 -6 -100 -11 -27
-6 -93 -18 -145 -26 -52 -9 -102 -18 -110 -22 -23 -9 -374 -17 -413 -10 -42 8
-45 15 -53 124 -4 48 -11 93 -16 99 -11 14 -118 14 -348 0z m1055 -197 c3 -5
1 -10 -4 -10 -6 0 -11 5 -11 10 0 6 2 10 4 10 3 0 8 -4 11 -10z"/>
<path d="M4616 3311 c-3 -4 -6 -59 -7 -121 0 -62 -5 -126 -10 -143 -17 -61 25
-73 115 -33 59 26 81 55 91 122 10 64 -13 114 -69 152 -47 31 -108 43 -120 23z
m132 -120 c5 -35 -5 -66 -33 -100 -17 -19 -32 -28 -42 -24 -13 5 -14 18 -8 87
4 44 9 84 12 89 9 14 68 -28 71 -52z"/>
<path d="M4960 3295 l-23 -24 -25 20 c-21 16 -28 17 -39 7 -10 -10 -10 -22 -3
-48 6 -19 10 -69 10 -110 0 -99 7 -122 34 -118 18 3 22 14 33 86 9 62 18 92
37 117 46 59 24 121 -24 70z"/>
<path d="M3834 3286 c-41 -18 -42 -20 -54 -107 -5 -41 -15 -101 -21 -135 -8
-42 -9 -66 -2 -79 10 -17 12 -16 28 8 9 14 19 44 22 67 7 50 29 53 48 6 15
-35 77 -96 98 -96 45 1 43 35 -4 69 -16 12 -34 34 -40 48 -8 22 -5 29 26 57
45 39 58 108 29 143 -24 28 -89 37 -130 19z m64 -68 c31 -26 -11 -85 -55 -76
-14 3 -17 11 -14 43 1 22 5 44 8 48 5 9 42 0 61 -15z"/>
<path d="M4492 3265 c-7 -14 -12 -36 -13 -48 0 -12 -4 -31 -8 -42 -7 -17 -11
-14 -31 25 -29 58 -49 80 -72 80 -16 0 -18 -9 -19 -75 -1 -41 -2 -98 -3 -127
-1 -59 15 -91 36 -70 8 8 12 33 10 71 -2 33 1 62 6 65 5 3 17 -20 26 -52 10
-31 22 -67 27 -80 14 -34 43 -24 51 18 4 19 12 60 18 90 18 90 18 164 -1 168
-9 1 -20 -8 -27 -23z"/>
<path d="M1086 3245 c-18 -14 -19 -16 -2 -34 17 -18 17 -20 0 -29 -22 -12 -14
-34 25 -61 l30 -21 25 33 c31 41 59 105 51 117 -10 15 -108 11 -129 -5z"/>
<path d="M3535 3243 c-32 -2 -65 -9 -72 -15 -9 -7 -13 -46 -13 -136 0 -104 -3
-127 -17 -137 -28 -21 -6 -32 75 -39 112 -9 137 -2 172 50 35 50 38 76 10 104
-24 24 -25 48 -5 74 8 11 15 28 15 37 0 24 -57 69 -83 67 -12 -1 -49 -3 -82
-5z m89 -45 c13 -21 -14 -55 -61 -74 -47 -20 -63 -10 -63 40 0 24 3 46 7 50
14 14 106 2 117 -16z m11 -159 c19 -19 19 -19 -1 -46 -19 -25 -50 -37 -123
-46 -17 -2 -33 49 -26 80 10 44 109 52 150 12z"/>
<path d="M4123 3228 c-10 -13 -23 -49 -64 -172 -24 -73 -12 -95 27 -53 31 34
64 34 94 2 28 -30 50 -32 50 -5 0 24 -35 175 -49 213 -11 29 -41 36 -58 15z"/>
<path d="M8236 3189 c-55 -9 -71 -20 -63 -43 10 -26 48 -35 107 -24 29 5 63 7
74 4 25 -7 92 12 107 31 8 9 8 17 0 26 -12 16 -145 19 -225 6z"/>
<path d="M820 3152 c-19 -2 -38 -9 -42 -14 -14 -23 31 -98 58 -98 22 0 46 31
34 45 -7 9 -6 16 4 24 16 13 12 37 -7 43 -7 2 -28 2 -47 0z m30 -52 c0 -5 -5
-10 -11 -10 -5 0 -7 5 -4 10 3 6 8 10 11 10 2 0 4 -4 4 -10z"/>
<path d="M1572 2784 c-32 -22 -27 -69 7 -69 19 0 27 8 37 37 17 51 0 63 -44
32z"/>
<path d="M1770 2773 c0 -10 9 -32 19 -49 24 -40 87 -56 108 -28 16 22 16 30 2
56 -8 14 -17 18 -34 14 -12 -3 -39 1 -59 9 -33 14 -36 14 -36 -2z"/>
<path d="M1670 2749 c-14 -26 3 -49 35 -49 29 0 38 22 19 49 -19 27 -40 27
-54 0z m35 -19 c3 -5 -1 -10 -10 -10 -9 0 -13 5 -10 10 3 6 8 10 10 10 2 0 7
-4 10 -10z"/>
<path d="M2040 2736 c0 -32 13 -46 41 -46 31 0 35 10 19 41 -12 22 -60 26 -60
5z"/>
<path d="M2351 149 c-22 -63 -9 -86 32 -55 16 12 16 14 1 20 -9 4 -14 12 -10
21 3 8 9 22 12 30 4 9 0 15 -9 15 -8 0 -20 -14 -26 -31z"/>
</g>
</svg>
