<?xml version="1.0" standalone="no"?>
<!DOCTYPE svg PUBLIC "-//W3C//DTD SVG 20010904//EN"
 "http://www.w3.org/TR/2001/REC-SVG-20010904/DTD/svg10.dtd">
<svg version="1.0" xmlns="http://www.w3.org/2000/svg"
 width="1280.000000pt" height="852.000000pt" viewBox="0 0 1280.000000 852.000000"
 preserveAspectRatio="xMidYMid meet">
<metadata>
Created by potrace 1.15, written by Peter Selinger 2001-2017
</metadata>
<g transform="translate(0.000000,852.000000) scale(0.100000,-0.100000)"
fill="#000000" stroke="none">
<path d="M7255 8509 c-22 -4 -110 -13 -195 -19 -85 -6 -182 -18 -215 -26 -33
-9 -109 -19 -170 -24 -128 -11 -188 -24 -224 -49 -35 -23 -144 -71 -164 -71
-9 0 -45 -15 -81 -34 -36 -19 -89 -42 -118 -51 -92 -30 -205 -83 -257 -120
-27 -20 -68 -46 -89 -58 -51 -29 -139 -89 -209 -143 -31 -24 -62 -44 -69 -44
-7 0 -34 -11 -61 -24 -27 -14 -68 -29 -91 -34 -23 -6 -61 -22 -86 -36 -25 -14
-75 -42 -113 -62 -37 -21 -84 -45 -103 -55 -19 -11 -51 -32 -71 -49 -21 -16
-45 -30 -53 -30 -18 0 -29 -16 -21 -30 7 -12 50 8 115 54 61 44 336 186 358
186 10 0 27 7 39 15 12 9 24 11 27 6 10 -16 -5 -40 -42 -63 -109 -70 -132 -84
-182 -110 -30 -16 -89 -51 -130 -78 -41 -28 -99 -62 -129 -77 -53 -27 -82 -56
-69 -68 4 -4 27 7 53 25 25 17 70 43 100 56 30 14 58 31 62 38 11 18 73 49 73
37 0 -14 -114 -107 -158 -130 -20 -10 -46 -28 -56 -40 -18 -20 -18 -21 -1 -21
10 0 26 6 34 14 22 19 185 132 210 146 37 19 24 -11 -35 -85 -54 -67 -160
-152 -264 -213 -51 -30 -63 -43 -50 -56 5 -5 46 17 99 53 50 34 91 57 91 51 0
-28 -28 -54 -137 -127 -156 -103 -222 -163 -182 -163 7 0 55 31 108 69 105 75
136 93 144 85 8 -9 -54 -124 -73 -134 -24 -13 -33 -39 -19 -56 9 -11 5 -14
-20 -14 -18 0 -62 -16 -100 -35 -37 -19 -77 -35 -89 -35 -12 0 -90 -11 -174
-25 -95 -15 -214 -26 -313 -29 -88 -3 -246 -8 -351 -12 -105 -4 -202 -4 -216
-1 -15 4 -46 22 -70 40 -53 41 -114 58 -233 64 -49 3 -101 6 -115 6 -20 2 -26
-3 -28 -25 -3 -23 -9 -28 -40 -33 -64 -9 -147 -39 -147 -53 0 -8 16 -36 35
-63 50 -69 112 -94 201 -80 35 6 99 11 141 11 54 0 93 6 129 20 70 28 89 29
714 35 432 4 558 8 590 19 37 13 65 12 65 -3 0 -3 -9 -19 -20 -36 -11 -16 -20
-42 -20 -56 0 -29 -66 -96 -207 -212 -45 -37 -94 -88 -110 -112 l-28 -45 -110
-1 c-233 -2 -354 -16 -500 -59 -161 -48 -241 -73 -250 -80 -16 -11 -142 -48
-224 -66 -41 -8 -79 -18 -85 -22 -6 -4 -168 -8 -361 -8 -192 -1 -381 -4 -420
-8 -96 -8 -393 -17 -550 -15 -101 0 -154 6 -234 25 -74 17 -118 22 -152 18
-27 -4 -70 -1 -98 6 -28 7 -75 13 -104 14 -53 1 -97 18 -97 37 0 22 -82 106
-135 138 -45 28 -62 33 -92 28 -84 -14 -124 -99 -104 -220 7 -40 19 -85 26
-100 19 -36 7 -48 -108 -107 -49 -25 -103 -53 -120 -62 -55 -29 -140 -60 -192
-68 -81 -13 -178 -40 -202 -55 -12 -8 -28 -15 -35 -15 -28 -1 -60 -39 -56 -65
6 -31 -2 -38 -72 -60 -62 -20 -90 -40 -90 -65 0 -24 26 -43 74 -55 23 -5 41
-16 41 -23 0 -6 -43 -34 -95 -61 -52 -26 -96 -53 -98 -60 -2 -6 10 -24 26 -41
29 -29 34 -30 121 -30 98 0 123 -12 64 -30 -21 -7 -54 -22 -74 -35 -20 -13
-47 -25 -60 -27 -18 -2 -25 -10 -27 -31 -7 -63 36 -88 178 -102 61 -6 118 1
300 37 25 4 88 13 140 18 118 13 297 51 370 80 30 12 86 32 125 46 l69 24 21
-25 c27 -33 135 -80 231 -99 44 -9 100 -21 126 -27 26 -6 71 -15 100 -19 116
-20 176 -32 248 -52 41 -12 100 -25 130 -29 53 -8 170 -30 355 -69 196 -41
222 -44 475 -45 243 -1 271 -3 331 -26 24 -9 25 -14 22 -67 -7 -123 -94 -558
-138 -692 -8 -25 -15 -53 -15 -63 0 -19 -27 -105 -61 -189 -11 -29 -27 -80
-34 -113 -8 -33 -23 -91 -35 -130 -42 -136 -62 -239 -51 -257 8 -12 7 -38 -4
-90 -8 -40 -16 -120 -19 -178 -5 -98 -10 -155 -35 -386 -5 -49 -9 -98 -9 -109
1 -29 -23 -208 -29 -218 -11 -18 -13 -230 -2 -243 23 -27 83 -12 239 59 146
68 621 237 663 237 35 0 23 -22 -56 -103 -45 -48 -140 -150 -212 -228 -141
-153 -222 -228 -300 -276 -80 -49 -247 -129 -284 -137 -50 -9 -365 -123 -446
-161 -38 -17 -95 -49 -125 -69 -30 -20 -72 -41 -92 -47 -23 -6 -57 -29 -86
-58 -47 -47 -159 -106 -266 -141 -36 -11 -40 -11 -61 11 -13 13 -41 52 -62 85
-178 287 -450 543 -578 544 -38 0 -112 -65 -104 -92 0 -2 -5 -16 -11 -33 -9
-25 -7 -41 15 -102 15 -39 33 -77 41 -84 8 -6 14 -17 14 -24 0 -13 58 -114 83
-144 7 -9 20 -32 29 -51 9 -19 40 -83 69 -141 l53 -106 -12 -124 c-7 -68 -14
-150 -15 -181 l-2 -58 -99 0 c-90 0 -105 3 -175 34 -70 31 -86 34 -202 39
-103 4 -133 9 -168 27 -39 19 -53 21 -148 16 -114 -6 -139 -16 -122 -47 9 -17
23 -19 150 -19 108 0 145 -3 163 -15 25 -17 189 -48 246 -47 19 0 64 -8 100
-19 47 -15 93 -20 167 -20 110 0 116 -3 126 -55 3 -17 22 -65 42 -105 22 -44
40 -99 45 -137 6 -44 16 -73 36 -99 24 -32 26 -39 16 -68 -7 -17 -12 -40 -12
-49 0 -18 24 -18 528 -11 491 6 528 8 546 25 10 10 16 25 13 34 -5 13 -44 14
-299 11 -161 -2 -362 -6 -446 -11 -89 -4 -152 -3 -152 2 0 15 49 64 64 64 26
0 47 38 54 102 8 61 11 67 62 117 57 55 90 79 150 107 19 9 59 28 88 42 43 20
72 25 165 29 61 3 126 11 142 18 56 25 80 28 195 26 231 -4 287 -8 380 -24
148 -25 434 -37 555 -22 44 5 100 9 125 8 25 0 209 -5 410 -10 348 -9 497 -10
1063 -5 228 2 248 3 245 19 -5 28 -59 34 -298 33 -124 -1 -268 -1 -320 -1 -52
0 -122 1 -155 2 -33 2 -114 -2 -180 -7 -70 -7 -153 -8 -200 -3 -44 4 -170 10
-280 13 -110 3 -220 9 -245 14 -45 9 -85 8 -148 -4 -21 -4 -32 -2 -32 5 0 7 6
11 13 9 6 -1 26 5 43 15 19 10 77 21 145 27 63 6 155 16 204 22 50 6 151 14
225 18 154 9 296 30 355 53 53 20 247 41 490 52 55 3 165 9 245 15 80 5 163 7
185 5 22 -3 225 -7 450 -10 226 -3 457 -9 515 -14 152 -14 352 -29 530 -41 85
-5 202 -13 260 -17 58 -4 236 -7 395 -8 172 0 296 -4 305 -10 8 -5 51 -11 95
-12 44 -1 143 -8 220 -15 77 -7 226 -11 330 -10 633 6 806 5 816 -5 18 -18
-49 -33 -166 -39 -60 -2 -191 -9 -290 -14 -110 -6 -211 -6 -260 -1 -74 9 -219
1 -256 -14 -8 -3 -28 -1 -43 5 -20 7 -52 7 -112 -2 -80 -11 -84 -11 -106 9
-16 15 -28 19 -39 13 -8 -5 -38 -7 -65 -4 -177 18 -414 10 -422 -13 -3 -10 34
-13 161 -13 90 0 186 -4 213 -9 75 -14 728 -11 1099 5 116 5 266 9 335 9 118
0 128 -2 180 -29 234 -122 308 -151 465 -182 176 -34 623 -150 710 -184 82
-32 137 -36 188 -15 48 20 75 19 123 -4 93 -45 98 -99 8 -93 -27 2 -68 10 -91
18 -24 7 -66 18 -95 23 -29 5 -96 18 -148 29 -98 20 -260 39 -249 28 3 -3 39
-15 80 -27 41 -11 106 -29 144 -40 39 -11 135 -33 215 -49 150 -31 223 -48
325 -74 171 -44 503 -59 885 -40 280 14 380 26 380 45 0 14 -37 29 -95 40 -47
9 -59 7 -93 -10 -38 -19 -78 -24 -302 -37 -141 -7 -331 -4 -350 6 -11 6 -24 8
-29 6 -5 -3 -11 0 -14 8 -3 7 8 26 23 41 28 27 34 28 117 27 364 -5 536 -3
546 7 6 6 8 13 5 17 -4 3 -113 7 -243 9 -130 2 -246 7 -257 11 -11 3 -29 15
-40 26 l-20 20 21 27 c12 14 37 47 57 73 51 69 161 157 319 259 549 353 591
382 616 431 l21 42 -40 38 c-36 33 -47 38 -89 38 -26 -1 -66 -5 -88 -10 -132
-30 -312 -66 -375 -75 -25 -3 -65 -12 -90 -20 -57 -18 -295 -73 -377 -87 -53
-9 -77 -7 -185 16 -67 15 -157 40 -198 55 -114 43 -143 51 -199 55 -28 2 -57
8 -63 13 -7 5 -47 16 -88 23 -74 13 -158 51 -275 126 -50 32 -363 313 -378
340 -8 15 -39 19 -50 7 -13 -12 25 -58 148 -178 164 -160 206 -194 311 -256
108 -64 233 -102 426 -129 117 -16 122 -21 97 -90 -31 -89 -9 -108 41 -36 16
25 39 48 50 51 11 4 48 -3 83 -14 97 -31 208 -52 252 -47 22 3 76 14 120 26
44 12 118 30 165 41 47 10 110 26 140 34 71 20 190 34 196 23 18 -29 -100
-199 -219 -315 -72 -70 -124 -101 -230 -138 -32 -11 -56 -29 -74 -53 -15 -21
-30 -41 -35 -46 -4 -5 -12 3 -17 17 -6 15 -14 27 -19 27 -9 0 -132 -133 -196
-214 -52 -64 -111 -106 -150 -106 -17 0 -93 29 -169 65 -77 36 -144 65 -151
65 -6 0 -21 7 -33 15 -20 14 -20 15 44 141 44 88 63 136 61 157 l-3 29 -26
-21 c-15 -11 -32 -35 -39 -53 -30 -76 -93 -194 -116 -216 -13 -14 -24 -28 -24
-33 0 -5 -9 -13 -20 -19 -15 -8 -47 -5 -128 11 -59 11 -125 24 -147 28 -22 4
-85 22 -140 39 -55 17 -149 44 -210 61 -472 129 -455 123 -765 286 -47 24
-100 50 -117 56 -41 14 -42 27 -3 41 22 7 38 24 55 59 14 26 25 53 25 59 0 19
-31 10 -39 -13 -12 -31 -68 -98 -98 -118 -19 -13 -32 -15 -50 -8 -13 5 -41 9
-61 9 -60 0 -65 9 -30 65 17 28 41 59 54 70 29 25 45 85 37 141 -4 32 -10 44
-22 44 -17 0 -31 -39 -46 -133 -7 -46 -62 -124 -92 -133 -13 -3 -23 -12 -23
-20 0 -8 -4 -14 -10 -14 -5 0 -10 2 -10 5 0 11 26 49 46 69 46 46 83 192 39
156 -8 -7 -15 -20 -15 -28 0 -22 -72 -140 -112 -183 l-33 -37 -100 9 c-151 13
-226 26 -335 58 -19 5 -72 20 -117 32 -46 12 -83 25 -83 28 0 4 26 15 57 25
32 10 143 61 248 112 169 83 201 103 290 180 137 118 197 177 263 258 71 85
63 72 126 191 52 100 116 193 142 208 13 8 77 -3 154 -27 101 -32 158 -46 183
-46 34 0 140 -27 191 -50 22 -10 69 -43 103 -74 60 -55 103 -72 103 -41 0 23
-88 113 -132 136 -43 22 -46 37 -22 95 18 42 15 90 -10 174 -9 30 -16 82 -16
115 0 34 -5 66 -11 72 -6 6 -12 48 -14 94 -10 205 -19 249 -51 249 -12 0 -13
-28 -8 -162 8 -229 11 -262 27 -360 17 -96 11 -149 -21 -180 -22 -22 -112 -27
-177 -10 -22 6 -74 16 -115 22 -145 22 -185 34 -188 54 -2 11 7 44 21 75 32
74 104 253 127 318 10 28 27 69 38 90 11 21 29 59 41 86 11 26 25 47 31 47 14
0 13 -16 -4 -53 -19 -44 -28 -135 -15 -159 6 -11 12 -84 13 -162 1 -126 4
-145 23 -177 29 -46 59 -73 72 -64 15 9 13 36 -4 59 -9 12 -15 42 -15 74 0 29
-5 62 -10 73 -8 14 -6 32 5 66 19 56 13 108 -15 123 -15 8 -20 21 -20 55 0 38
5 49 40 84 22 22 40 42 40 45 0 5 -11 33 -50 123 l-23 52 54 180 c30 100 57
181 62 181 4 0 16 -15 28 -32 16 -27 19 -43 14 -88 -4 -36 -1 -76 9 -115 9
-32 16 -81 16 -107 0 -35 4 -48 15 -48 26 0 38 39 31 104 -4 34 -11 103 -15
153 -8 84 -13 100 -50 161 -39 66 -41 71 -41 153 0 63 4 91 17 108 l16 24 206
-6 c631 -19 698 -16 833 32 83 29 127 63 278 216 74 76 187 181 250 233 63 53
174 154 245 223 72 70 153 145 181 167 65 51 139 138 160 188 9 21 26 50 39
64 29 32 49 94 41 132 -4 19 1 42 13 66 42 82 49 188 23 310 -13 59 -112 180
-172 209 -93 46 -348 121 -500 146 -47 8 -94 18 -106 22 -31 10 -116 -63 -322
-278 -73 -76 -162 -137 -200 -137 l-35 0 6 43 c9 64 54 165 90 202 18 18 57
58 87 88 77 78 139 111 214 112 62 0 79 12 50 36 -10 9 -38 13 -75 12 -51 -1
-63 3 -89 25 -56 52 -95 79 -141 99 -25 11 -56 35 -69 53 -26 36 -73 60 -122
60 -28 1 -43 12 -102 78 -39 42 -82 82 -97 89 -15 6 -35 23 -44 37 -25 37 -51
33 -81 -15 l-25 -41 35 -72 c31 -65 56 -175 56 -246 0 -46 -100 -49 -370 -9
-104 15 -422 27 -437 17 -6 -5 -14 -5 -17 0 -3 5 -99 12 -213 16 -114 4 -209
8 -210 10 -2 2 11 34 29 72 30 62 33 79 34 164 1 52 -5 127 -12 165 -18 87
-87 237 -134 291 -19 22 -62 73 -95 114 -35 43 -85 89 -120 112 -33 22 -97 77
-142 124 -73 75 -82 88 -77 113 4 16 1 44 -5 63 -10 31 -7 44 28 129 34 82 40
108 46 202 6 100 9 109 30 119 28 13 148 -6 179 -28 11 -8 35 -14 53 -14 44 0
43 20 -3 73 -40 47 -69 66 -101 67 -24 0 -93 30 -93 39 0 3 11 11 24 17 30 14
152 -3 261 -35 83 -25 107 -26 145 -6 35 18 38 38 10 58 -28 20 -15 27 26 14
30 -9 38 -8 56 11 18 18 19 23 8 37 -10 12 -11 18 -2 24 7 4 9 21 5 44 -5 31
-11 38 -36 45 -17 4 -33 14 -35 21 -3 9 5 8 32 -3 34 -14 37 -14 43 1 9 24
-29 50 -92 63 -30 6 -55 16 -55 22 0 10 36 8 106 -7 32 -7 32 -7 36 40 3 40 0
50 -19 62 -12 8 -31 12 -43 8 -20 -6 -28 9 -10 20 5 3 6 13 3 22 -4 10 -2 14
4 10 19 -12 65 11 61 30 -4 19 -35 31 -90 32 -39 1 -59 17 -34 27 37 14 10 44
-40 44 -14 0 -27 7 -30 15 -4 8 -17 15 -30 15 -30 0 -30 7 -1 31 19 16 20 20
7 29 -8 5 -28 10 -45 10 -117 4 -177 2 -220 -8 -100 -23 -105 -23 -105 -4 0
12 12 22 38 29 20 6 53 16 72 23 19 7 47 17 63 23 37 13 34 33 -6 41 -26 5
-51 -2 -112 -29 -84 -39 -123 -42 -62 -5 37 22 52 48 21 36 -46 -18 -107 -28
-113 -20 -14 22 -171 135 -231 167 -36 19 -90 42 -120 50 -30 9 -73 21 -95 27
-42 12 -177 35 -305 51 -41 5 -106 6 -145 3 -48 -4 -108 1 -190 14 -126 21
-380 27 -460 11z m452 -48 c21 -6 117 -10 214 -10 96 0 183 -3 192 -7 21 -8
22 -34 1 -34 -8 0 -13 -3 -10 -8 2 -4 42 -4 88 -1 124 10 254 -21 146 -35 -56
-7 -138 -36 -138 -48 0 -13 26 -9 75 12 42 18 55 19 108 9 33 -6 75 -8 93 -4
58 10 167 -64 146 -101 -10 -18 -99 -74 -117 -74 -7 0 -17 -5 -20 -10 -4 -6
-24 -19 -45 -30 -45 -23 -66 -9 -23 14 45 25 120 95 102 96 -9 0 -22 -7 -29
-15 -17 -21 -154 -105 -170 -105 -20 0 92 99 113 100 9 0 17 6 17 14 0 34 -25
25 -78 -26 -32 -30 -84 -76 -117 -102 -55 -44 -62 -47 -99 -41 -51 8 -55 12
-29 30 64 45 204 170 194 173 -10 3 -111 -65 -136 -93 -5 -6 -28 -23 -50 -38
-22 -15 -55 -39 -74 -52 -35 -26 -94 -34 -107 -14 -8 14 34 48 113 91 65 34
77 48 43 48 -24 0 -26 17 -3 42 9 10 11 18 5 18 -6 0 -39 -29 -74 -65 -66 -69
-162 -125 -180 -107 -7 7 0 16 18 28 67 42 204 160 204 176 0 14 -22 9 -42 -9
-16 -14 -18 -15 -18 0 0 9 5 19 10 22 6 4 8 11 4 16 -3 5 -18 -1 -35 -13 -74
-58 -88 -68 -113 -78 -21 -8 -28 -7 -32 5 -10 25 -29 18 -115 -44 -80 -57 -85
-59 -177 -71 -52 -7 -130 -10 -176 -7 -45 3 -88 2 -96 -3 -21 -13 -31 -1 -19
21 10 20 8 20 -53 18 -35 -1 -70 -8 -78 -15 -8 -7 -31 -14 -50 -16 -27 -2 -35
-8 -40 -27 -11 -49 -179 -114 -194 -75 -10 25 11 43 55 46 46 3 57 22 17 26
-16 2 -28 9 -28 18 0 20 -14 17 -36 -7 -15 -17 -26 -20 -56 -15 -33 5 -40 3
-60 -24 -17 -24 -28 -30 -45 -25 -17 4 -25 0 -29 -12 -20 -58 -57 -124 -80
-142 -34 -27 -45 -19 -33 22 12 43 11 69 -2 65 -6 -2 -20 -36 -30 -75 -26
-105 -50 -143 -88 -143 -4 0 -4 21 1 48 19 107 21 127 10 117 -5 -5 -15 -26
-21 -46 -6 -20 -23 -51 -36 -69 -14 -19 -25 -41 -25 -51 0 -21 -46 -125 -59
-133 -17 -11 -19 8 -5 59 8 28 17 64 20 80 11 51 -20 9 -40 -55 -10 -30 -29
-77 -43 -105 -14 -27 -34 -75 -44 -104 -27 -76 -45 -101 -74 -101 -30 0 -32
11 -6 34 12 11 16 25 13 42 -2 14 2 32 10 42 23 27 100 190 96 203 -2 7 -21
-20 -41 -59 -21 -40 -47 -76 -57 -82 -11 -6 -17 -17 -14 -24 6 -15 -40 -113
-60 -131 -7 -5 -24 -29 -39 -52 -23 -37 -68 -65 -82 -51 -5 4 150 275 171 299
8 8 14 25 14 36 0 11 11 37 25 57 31 45 70 135 62 142 -10 11 -25 -6 -57 -61
-17 -30 -52 -83 -77 -117 -26 -35 -58 -78 -72 -97 -44 -60 -35 -14 13 65 48
80 52 89 36 79 -15 -9 -12 22 6 56 8 17 14 38 12 46 -2 9 -27 -26 -56 -78 -29
-52 -68 -112 -85 -135 -18 -23 -37 -50 -43 -60 -7 -10 -15 -16 -19 -12 -5 5 4
31 19 59 16 28 29 67 31 87 1 21 6 45 10 55 4 9 3 17 -2 17 -11 0 -66 -75 -76
-103 -4 -10 -21 -24 -39 -32 -51 -21 -73 -50 -222 -278 -52 -81 -74 -99 -83
-70 -2 6 18 37 45 69 53 65 92 119 92 128 0 19 -26 -2 -81 -66 -114 -133 -188
-210 -200 -206 -6 2 5 23 26 48 62 75 208 291 200 298 -9 10 -59 -48 -135
-159 -36 -51 -98 -128 -138 -171 -47 -49 -71 -82 -66 -89 5 -9 2 -10 -11 -5
-11 4 -25 0 -37 -10 -21 -20 -34 -13 -21 11 10 18 92 117 172 208 65 76 84
103 79 117 -2 7 -18 -9 -36 -34 -19 -26 -41 -46 -52 -46 -17 0 -33 -13 -84
-75 -20 -24 -28 -28 -42 -19 -35 21 -28 34 56 103 30 25 33 31 21 45 -12 14
-6 26 45 88 65 81 280 316 333 363 18 16 53 49 76 72 24 23 75 65 115 93 64
47 70 55 65 79 -5 23 -1 29 30 44 20 9 41 17 48 17 11 0 92 32 432 172 95 39
108 42 265 53 96 8 182 19 206 28 23 9 72 16 110 17 38 0 123 8 189 18 133 19
425 21 492 3z m992 -245 c9 -11 0 -23 -41 -58 -128 -108 -298 -199 -298 -159
0 5 14 15 32 22 17 7 59 36 92 63 101 85 180 145 192 145 6 1 17 -5 23 -13z
m-839 -76 c0 -5 -2 -10 -4 -10 -3 0 -8 5 -11 10 -3 6 -1 10 4 10 6 0 11 -4 11
-10z m945 -30 c4 -6 -8 -10 -28 -10 -19 0 -40 -7 -48 -16 -19 -23 -69 -46 -85
-40 -24 9 -16 33 19 54 34 22 131 30 142 12z m-2895 -10 c0 -5 -17 -20 -37
-34 -21 -13 -47 -34 -58 -46 -11 -12 -30 -26 -42 -31 -13 -5 -23 -15 -23 -24
0 -17 -16 -20 -25 -5 -3 5 3 15 15 22 11 7 20 17 20 21 0 10 33 38 93 80 42
29 57 33 57 17z m1455 -60 c-3 -5 -13 -10 -21 -10 -8 0 -14 5 -14 10 0 6 9 10
21 10 11 0 17 -4 14 -10z m948 -6 c3 -4 2 -15 -4 -25 -7 -15 -21 -19 -59 -19
-27 0 -51 4 -54 9 -9 14 53 25 68 12 10 -9 15 -7 19 9 5 20 18 26 30 14z
m-191 -24 c32 0 39 -3 36 -17 -4 -21 -43 -29 -63 -13 -9 8 -29 9 -55 5 -41 -7
-50 1 -27 24 7 7 24 10 41 7 16 -3 46 -6 68 -6z m-1028 -59 c3 -5 18 -12 33
-16 15 -3 43 -20 64 -36 20 -16 44 -29 52 -29 9 0 28 -11 44 -23 38 -33 88
-41 119 -21 18 12 36 15 70 9 35 -5 50 -3 64 10 17 15 19 15 34 -6 8 -12 13
-25 11 -29 -2 -3 -81 -7 -176 -8 -159 -2 -284 -13 -298 -27 -3 -3 0 -10 7 -14
7 -4 10 -15 7 -23 -5 -13 3 -17 45 -19 28 -2 58 0 66 4 9 5 14 3 14 -8 0 -8
-1 -15 -2 -15 -2 0 -59 -5 -128 -10 -142 -10 -160 -15 -160 -40 0 -11 -5 -22
-10 -25 -21 -13 2 -23 43 -18 32 4 39 3 31 -7 -6 -6 -30 -14 -53 -17 -22 -3
-38 -9 -35 -14 7 -12 67 -12 80 0 11 10 417 24 427 14 4 -3 -10 -13 -30 -20
-27 -9 -93 -14 -221 -14 -144 0 -196 -4 -250 -18 -37 -10 -98 -26 -137 -36
-86 -22 -135 -41 -135 -55 0 -14 13 -13 70 6 27 9 54 14 59 12 6 -1 -7 -25
-29 -53 -22 -27 -40 -53 -40 -57 0 -22 25 0 72 62 46 63 88 93 104 77 8 -7
-13 -44 -51 -92 -71 -90 -118 -166 -109 -175 7 -7 30 20 67 77 31 49 66 99 77
113 12 14 30 40 41 58 20 34 26 37 49 22 21 -13 -3 -54 -114 -190 -85 -102
-101 -130 -77 -130 11 0 131 156 196 254 52 79 60 87 71 71 12 -15 15 -16 35
-2 19 14 24 14 45 0 20 -13 27 -13 39 -3 11 9 19 10 27 2 7 -7 0 -26 -24 -64
-19 -29 -48 -75 -64 -101 -16 -27 -62 -89 -101 -139 -69 -86 -86 -114 -64
-106 6 2 33 32 61 68 27 36 59 74 69 85 10 11 26 34 35 50 62 112 114 190 129
193 9 2 17 -2 17 -10 -1 -12 -64 -116 -88 -144 -5 -6 -22 -30 -37 -55 -15 -24
-32 -49 -39 -54 -6 -6 -15 -18 -21 -26 -37 -60 -97 -139 -105 -139 -6 0 -10
-4 -10 -10 0 -20 27 -9 56 23 39 41 126 163 149 208 10 19 32 52 50 74 18 22
40 55 51 73 19 33 41 42 50 19 2 -7 -27 -60 -67 -117 -39 -58 -78 -118 -87
-133 -9 -15 -36 -49 -59 -75 -42 -46 -51 -62 -35 -62 12 1 35 23 75 73 21 26
45 47 53 47 22 0 18 -7 -44 -78 -143 -164 -164 -341 -52 -436 32 -26 83 -35
95 -16 10 17 45 12 39 -5 -4 -8 -1 -15 6 -15 13 0 204 62 270 87 19 7 89 24
156 38 133 27 189 47 197 69 9 22 57 44 102 46 88 4 125 0 125 -14 0 -10 -15
-12 -69 -8 -79 5 -134 -4 -110 -18 7 -5 31 -7 52 -3 36 5 37 5 28 -18 -7 -18
-15 -23 -37 -22 -16 1 -31 -2 -34 -6 -5 -8 -129 -108 -225 -181 -22 -16 -65
-45 -95 -63 -30 -17 -60 -42 -66 -55 -33 -66 -139 -131 -167 -103 -8 8 -5 16
11 27 23 16 29 34 12 34 -5 0 -27 -15 -47 -34 -47 -41 -75 -56 -106 -56 -30 0
-40 -10 -26 -26 9 -11 -5 -31 -60 -90 -39 -42 -71 -80 -71 -85 0 -5 -5 -9 -11
-9 -17 0 -179 -162 -173 -172 6 -9 72 50 235 210 44 42 82 72 88 68 6 -4 14 0
18 9 7 20 42 55 71 73 26 14 72 16 72 2 0 -5 -4 -10 -9 -10 -9 0 -303 -287
-360 -352 -61 -70 -9 -39 78 47 91 89 123 108 93 55 -9 -16 -22 -30 -28 -30
-15 0 -94 -86 -94 -101 0 -7 8 -5 19 5 14 12 21 14 26 6 4 -7 -7 -24 -29 -42
-37 -30 -47 -52 -22 -46 8 2 60 46 117 98 120 112 139 127 139 108 0 -7 -48
-60 -105 -117 -62 -62 -101 -109 -96 -114 5 -5 46 28 100 82 49 50 94 91 100
91 5 0 17 7 26 16 9 9 18 14 21 11 8 -8 -146 -166 -168 -173 -21 -6 -61 -60
-56 -75 4 -11 128 97 249 216 55 54 81 66 95 43 5 -8 2 -9 -9 -5 -11 4 -17 1
-17 -7 0 -13 -23 -35 -136 -130 -67 -56 -129 -125 -120 -133 3 -4 23 10 44 30
21 20 43 37 50 37 7 0 12 7 12 15 0 8 9 19 21 25 11 7 61 49 112 96 50 46 99
84 109 84 26 0 22 -15 -9 -35 -47 -31 -403 -392 -403 -409 0 -27 15 -18 69 42
99 110 135 142 144 133 9 -9 -79 -131 -95 -131 -4 0 -16 -19 -26 -43 -18 -39
-26 -46 -98 -76 -54 -22 -95 -48 -129 -81 -27 -26 -76 -71 -107 -100 -123
-113 -208 -294 -192 -415 15 -120 71 -221 138 -250 17 -7 112 -41 211 -75 99
-34 207 -75 240 -90 33 -16 71 -32 85 -35 14 -4 86 -35 160 -70 203 -94 346
-155 363 -155 9 0 18 -4 22 -9 3 -5 31 -19 63 -31 77 -28 192 -83 192 -91 0
-8 -37 -19 -66 -19 -12 0 -42 -9 -67 -20 -41 -18 -143 -40 -192 -42 -81 -2
-433 73 -528 114 -40 16 -89 34 -110 40 -58 16 -398 191 -496 256 -90 58 -232
197 -225 217 3 7 -18 47 -47 90 -58 88 -65 108 -74 203 -10 96 14 188 71 276
24 39 43 77 42 85 -4 18 -108 52 -230 77 -92 18 -261 71 -341 106 -184 81
-413 203 -552 293 -27 18 -60 38 -71 44 -12 6 -40 43 -62 83 -22 40 -52 84
-66 97 -14 14 -26 30 -26 37 0 7 -14 28 -30 46 -17 18 -33 42 -36 53 -8 26
-72 134 -96 161 -34 38 -88 158 -88 194 0 32 6 38 55 70 56 35 135 124 135
151 0 18 169 129 197 129 33 0 58 26 58 61 0 18 6 35 15 39 98 46 142 70 178
98 23 17 50 32 59 32 28 0 -22 -47 -114 -106 -46 -30 -83 -61 -83 -69 0 -9
-11 -20 -25 -25 -32 -12 -35 -50 -4 -50 26 0 53 14 104 54 21 17 46 32 55 33
57 9 81 17 91 29 6 8 16 14 22 14 18 0 100 72 212 187 96 98 135 129 135 107
0 -15 -99 -134 -141 -169 -46 -38 -67 -70 -55 -82 8 -8 107 69 139 108 16 19
42 54 60 77 32 43 101 92 113 79 12 -11 -84 -142 -140 -190 -31 -27 -56 -52
-56 -58 0 -40 164 59 283 173 48 45 113 99 143 118 32 20 67 52 82 75 13 22
60 75 104 117 77 75 112 119 143 178 8 16 25 32 37 36 38 11 135 95 164 142
32 50 55 61 122 63 26 1 61 5 77 9 43 11 43 11 49 1z m1370 -1 c35 -13 33 -37
-3 -45 -15 -3 -32 -5 -37 -3 -5 1 -18 -3 -29 -8 -24 -13 -247 -16 -239 -3 3 5
12 9 21 9 9 0 31 9 49 20 20 13 62 24 111 29 43 5 83 9 90 10 6 0 23 -3 37 -9z
m46 0 c0 -5 -2 -10 -4 -10 -3 0 -8 5 -11 10 -3 6 -1 10 4 10 6 0 11 -4 11 -10z
m-1103 -26 c10 -27 -14 -64 -42 -64 -28 0 -48 31 -26 38 8 3 21 13 30 22 20
23 30 24 38 4z m567 7 c7 -11 -14 -20 -31 -13 -7 2 -13 8 -13 13 0 12 37 12
44 0z m-440 -33 c8 -13 7 -21 -2 -30 -18 -18 -66 2 -70 30 -3 21 0 23 29 20
17 -2 37 -11 43 -20z m-1896 -5 c-9 -10 -23 -33 -32 -51 -9 -18 -54 -71 -99
-119 -45 -47 -91 -96 -102 -108 -33 -35 -108 -126 -153 -187 -48 -63 -70 -84
-78 -75 -12 12 123 193 250 335 50 56 70 93 49 91 -5 0 -42 -38 -83 -85 -84
-94 -128 -116 -53 -26 91 108 194 202 223 202 15 0 35 9 45 20 10 11 25 20 33
20 13 0 13 -2 0 -17z m2069 -35 c26 -25 37 -30 62 -25 23 5 31 3 31 -8 0 -11
-13 -15 -55 -15 -48 0 -55 2 -55 20 0 24 -8 25 -37 5 -18 -13 -22 -13 -35 3
-29 33 -30 42 -6 51 31 13 57 4 95 -31z m71 30 c9 -9 8 -16 -5 -30 -21 -23
-30 -23 -44 3 -9 17 -8 23 2 30 19 12 33 11 47 -3z m642 -29 c0 -5 -27 -9 -60
-9 -33 0 -60 4 -60 9 0 6 27 10 60 10 33 0 60 -5 60 -10z m-340 -7 c0 -14 -11
-21 -26 -15 -8 3 -11 9 -8 14 7 11 34 12 34 1z m175 -2 c-44 -11 -75 -11 -75
0 0 6 23 9 53 9 44 -1 48 -2 22 -9z m197 -31 c7 -4 10 -10 8 -13 -8 -7 -290
-11 -290 -4 0 4 -11 3 -24 -4 -27 -12 -56 -5 -56 12 0 8 26 11 75 9 41 -1 78
1 82 4 9 10 189 6 205 -4z m-399 -9 c10 0 15 -4 12 -10 -3 -5 -30 -10 -58 -10
-49 1 -51 2 -32 16 11 8 29 13 40 10 11 -3 28 -6 38 -6z m-209 -15 c8 -21 4
-22 -174 -34 -204 -15 -243 -14 -237 2 2 8 19 11 48 9 24 -2 67 2 94 8 28 7
91 11 142 11 51 -1 95 3 98 9 9 15 22 12 29 -5z m726 -15 c0 -21 -45 -27 -250
-28 -118 -1 -227 -5 -242 -8 -14 -3 -29 -1 -32 4 -4 6 31 12 86 16 51 3 156 9
233 14 77 5 155 9 173 10 17 1 32 -2 32 -8z m-1176 -6 c32 -12 3 -24 -60 -24
-59 0 -74 6 -57 23 8 9 96 9 117 1z m-159 -14 c4 -6 -12 -10 -42 -9 -36 0 -43
3 -28 9 28 12 63 12 70 0z m793 -2 c-4 -12 -9 -13 -95 -24 -36 -4 -53 -3 -53
4 0 11 30 18 100 25 19 2 39 5 43 5 5 1 7 -3 5 -10z m-270 -20 c-6 -16 -109
-30 -122 -18 -11 11 5 18 54 23 68 7 72 7 68 -5z m76 6 c9 -3 16 -10 16 -16 0
-14 -63 -5 -68 10 -4 13 25 16 52 6z m-469 -24 c28 -11 2 -20 -50 -16 -52 4
-53 5 -35 16 18 12 57 12 85 0z m141 -2 c4 -7 4 -10 0 -6 -4 3 -20 2 -36 -2
-33 -9 -73 -2 -64 11 8 14 92 11 100 -3z m828 -4 c5 -14 1 -16 -31 -10 -21 3
-44 6 -50 6 -7 0 -13 5 -13 10 0 6 20 10 44 10 31 0 46 -5 50 -16z m153 4 c37
-10 47 -10 50 0 8 22 113 13 113 -9 0 -15 -233 -7 -238 9 -2 6 3 12 12 12 9 0
37 -6 63 -12z m-302 -8 c4 -6 -5 -10 -19 -10 -14 0 -26 5 -26 10 0 6 9 10 19
10 11 0 23 -4 26 -10z m-757 -29 c14 -9 -49 -17 -203 -27 -74 -5 -88 -4 -78 7
9 9 46 13 118 14 58 1 108 5 112 8 9 9 35 8 51 -2z m132 0 c0 -11 -66 -22 -86
-14 -7 3 -11 9 -8 14 7 12 94 12 94 0z m1021 -11 c47 1 69 -3 78 -14 11 -13 2
-15 -78 -13 -50 0 -91 4 -91 9 0 4 -14 2 -31 -4 -24 -8 -33 -8 -39 3 -7 11
-13 11 -34 -1 -20 -10 -31 -11 -51 -2 -19 9 -32 9 -46 2 -22 -13 -39 -5 -39
16 0 13 19 14 133 9 72 -4 162 -6 198 -5z m-506 -10 c25 -6 44 -5 49 0 16 16
106 12 106 -4 0 -10 -26 -13 -115 -15 -105 -2 -128 3 -108 22 8 9 20 8 68 -3z
m-975 -10 c0 -5 -4 -10 -9 -10 -5 0 -16 -3 -25 -6 -11 -4 -16 -1 -16 10 0 10
9 16 25 16 14 0 25 -4 25 -10z m705 -9 c-8 -13 -35 -15 -35 -2 0 5 8 11 18 13
21 5 26 2 17 -11z m80 9 c-3 -5 -10 -10 -16 -10 -5 0 -9 5 -9 10 0 6 7 10 16
10 8 0 12 -4 9 -10z m80 0 c3 -5 -1 -10 -9 -10 -9 0 -16 5 -16 10 0 6 4 10 9
10 6 0 13 -4 16 -10z m-383 -23 c-12 -6 -25 -7 -29 -3 -11 10 18 25 35 18 13
-4 11 -8 -6 -15z m83 13 c-3 -5 -13 -10 -21 -10 -8 0 -14 5 -14 10 0 6 9 10
21 10 11 0 17 -4 14 -10z m-341 -21 c-7 -12 -104 -12 -104 0 0 11 53 18 87 12
13 -2 20 -7 17 -12z m86 11 c0 -5 -9 -10 -21 -10 -11 0 -17 5 -14 10 3 6 13
10 21 10 8 0 14 -4 14 -10z m80 0 c0 -5 -12 -10 -26 -10 -14 0 -23 4 -19 10 3
6 15 10 26 10 10 0 19 -4 19 -10z m-2240 -4 c0 -2 -19 -16 -41 -31 -26 -17
-45 -23 -51 -17 -6 6 3 17 24 30 29 19 68 29 68 18z m1937 -2 c37 -10 15 -24
-38 -24 -52 0 -67 16 -21 23 15 2 29 5 32 5 3 1 15 -1 27 -4z m1044 -14 c5 0
9 -4 9 -10 0 -6 -33 -10 -80 -10 -49 0 -80 4 -80 10 0 7 20 10 50 9 27 -2 53
1 57 5 4 3 13 4 21 1 7 -3 18 -5 23 -5z m169 0 c0 -5 -4 -10 -9 -10 -6 0 -13
5 -16 10 -3 6 1 10 9 10 9 0 16 -4 16 -10z m-666 -15 c-7 -17 -21 -20 -26 -5
-2 5 -22 3 -49 -7 -44 -16 -79 -13 -79 6 0 10 37 17 112 19 38 2 46 -1 42 -13z
m173 0 c-2 -5 -24 -10 -48 -11 -24 0 -48 -2 -54 -3 -20 -6 -55 -1 -55 8 0 11
43 17 112 16 27 0 46 -4 45 -10z m-427 -19 c0 -3 -4 -8 -10 -11 -5 -3 -10 -1
-10 4 0 6 5 11 10 11 6 0 10 -2 10 -4z m-2210 -21 c0 -8 -7 -15 -15 -15 -26 0
-18 20 13 29 1 1 2 -6 2 -14z m570 -15 c-6 -10 -15 -22 -20 -25 -6 -4 -16 -21
-24 -39 -7 -18 -27 -48 -43 -67 -16 -19 -44 -56 -62 -82 -39 -57 -155 -177
-171 -177 -6 0 -9 -4 -5 -9 6 -11 -13 -26 -22 -17 -3 3 21 37 53 76 58 70 71
89 128 189 16 28 35 51 42 51 8 0 20 16 29 36 9 23 25 40 44 47 16 6 32 19 35
30 2 10 9 16 15 12 8 -4 8 -12 1 -25z m2685 20 c-7 -12 -85 -14 -85 -2 0 4 20
9 45 10 28 1 44 -2 40 -8z m-939 -28 c-31 -4 -41 2 -32 17 5 7 16 6 34 -2 l27
-12 -29 -3z m1186 6 c-12 -12 -35 -1 -27 12 3 5 13 6 21 3 10 -4 12 -9 6 -15z
m-1312 -3 c0 -10 -10 -15 -32 -15 -34 0 -29 14 7 23 11 3 21 5 23 6 1 0 2 -6
2 -14z m1945 -5 c3 -5 1 -10 -4 -10 -6 0 -11 5 -11 10 0 6 2 10 4 10 3 0 8 -4
11 -10z m-3475 -21 c-6 -11 -17 -23 -25 -25 -8 -3 -17 -18 -20 -34 -6 -28 -84
-110 -105 -110 -5 0 -10 11 -10 24 0 23 49 76 70 76 5 0 15 11 23 25 7 14 26
34 43 45 37 24 37 24 24 -1z m2600 5 c0 -2 -9 -4 -21 -4 -11 0 -18 4 -14 10 5
8 35 3 35 -6z m930 6 c20 -12 9 -21 -18 -13 -12 3 -19 9 -16 14 7 11 15 11 34
-1z m-1670 -5 c0 -3 -12 -10 -26 -15 -29 -11 -54 -3 -33 11 15 9 59 12 59 4z
m-100 -14 c0 -12 -122 -25 -155 -17 -48 12 -24 21 65 24 50 1 90 -2 90 -7z
m-216 -10 c7 -11 -62 -20 -98 -14 -14 3 -26 9 -26 14 0 12 117 12 124 0z m602
-16 c4 -14 5 -27 3 -29 -2 -2 -37 1 -76 7 -101 14 -95 31 12 40 22 2 43 4 47
5 4 1 10 -9 14 -23z m1239 -5 c3 -5 1 -10 -4 -10 -6 0 -11 5 -11 10 0 6 2 10
4 10 3 0 8 -4 11 -10z m-1580 -10 c3 -5 -1 -10 -9 -10 -9 0 -16 5 -16 10 0 6
4 10 9 10 6 0 13 -4 16 -10z m-220 -10 c3 -5 -1 -10 -10 -10 -9 0 -13 5 -10
10 3 6 8 10 10 10 2 0 7 -4 10 -10z m65 0 c-20 -13 -33 -13 -25 0 3 6 14 10
23 10 15 0 15 -2 2 -10z m-113 -6 c-3 -3 -12 -4 -19 -1 -8 3 -5 6 6 6 11 1 17
-2 13 -5z m-97 -44 c0 -10 -10 -31 -23 -47 -13 -15 -36 -50 -51 -77 -44 -75
-8 -50 49 35 39 58 56 75 78 77 15 2 27 0 26 -5 0 -4 -24 -42 -53 -83 -54 -76
-87 -101 -153 -113 -50 -10 -43 12 39 135 68 102 88 120 88 78z m460 20 c0 -9
-19 -11 -155 -15 -27 -1 -57 -5 -67 -9 -22 -10 -69 -4 -69 9 0 14 60 22 184
24 65 0 107 -3 107 -9z m253 -29 c13 -13 16 -13 -100 -16 -92 -2 -110 4 -75
25 22 14 159 7 175 -9z m-419 -7 c21 -8 2 -44 -23 -44 -27 0 -33 12 -14 32 18
21 16 20 37 12z m-1741 -34 c-3 -11 -11 -20 -18 -20 -14 0 -29 -28 -26 -47 1
-8 -4 -10 -14 -7 -22 9 -19 27 10 52 14 12 25 26 25 32 0 5 6 10 14 10 9 0 12
-7 9 -20z m-806 -15 c-4 -8 -11 -15 -17 -15 -7 0 -7 6 0 21 13 23 26 19 17 -6z
m2982 9 c9 -8 -10 -17 -36 -16 -90 1 -104 4 -93 17 8 10 27 12 68 8 31 -3 59
-7 61 -9z m-195 0 c13 -5 14 -9 5 -20 -13 -16 -13 -16 65 -14 119 3 269 -31
244 -55 -3 -3 -36 -1 -74 5 -38 5 -95 10 -126 10 -32 0 -58 5 -58 10 0 6 -11
10 -24 10 -14 0 -28 -4 -31 -10 -3 -5 -19 -10 -36 -10 -23 0 -29 4 -29 21 0
46 26 68 64 53z m-454 -21 c-1 -14 -27 -43 -33 -37 -7 7 14 44 25 44 5 0 8 -3
8 -7z m-1688 -45 c-7 -7 -12 -8 -12 -2 0 14 12 26 19 19 2 -3 -1 -11 -7 -17z
m1870 9 c24 -11 25 -14 14 -30 -14 -18 -51 -13 -39 5 4 7 -6 8 -31 4 -38 -7
-49 5 -18 23 22 13 41 13 74 -2z m88 -15 c0 -4 -5 -13 -12 -20 -18 -18 -28
-15 -28 8 0 13 7 20 20 20 11 0 20 -4 20 -8z m-2609 -45 c-8 -8 -11 -7 -11 4
0 20 13 34 18 19 3 -7 -1 -17 -7 -23z m615 12 c7 -11 -51 -76 -100 -111 -23
-17 -30 -18 -37 -7 -6 10 8 30 49 71 58 58 75 67 88 47z m2389 2 c61 -5 70 -9
70 -26 0 -26 -31 -31 -56 -9 -14 12 -22 15 -27 7 -5 -7 -57 -11 -150 -11 -78
-1 -147 -4 -152 -7 -14 -9 -60 6 -60 20 0 27 201 42 375 26z m-2625 -39 c0 -4
-9 -13 -20 -20 -23 -14 -26 -8 -7 13 13 16 27 19 27 7z m2227 -26 c66 -31 107
-75 123 -132 11 -39 10 -52 -9 -107 -11 -35 -21 -70 -21 -79 0 -16 -72 -41
-94 -32 -6 2 -20 20 -30 39 -30 55 -58 75 -124 87 -57 11 -63 10 -117 -17 -75
-36 -98 -72 -91 -143 4 -50 3 -54 -22 -64 -15 -6 -51 -22 -81 -35 l-54 -23
-40 27 c-64 44 -79 76 -73 154 8 118 77 229 174 285 91 52 175 71 296 67 90
-2 118 -7 163 -27z m-2517 14 c0 -5 -7 -10 -15 -10 -8 0 -15 5 -15 10 0 6 7
10 15 10 8 0 15 -4 15 -10z m3069 -28 c0 -9 2 -43 3 -75 3 -55 3 -57 -13 -39
-14 17 -17 72 -9 140 1 12 19 -12 19 -26z m-123 -3 c27 -22 3 -30 -69 -23 -83
8 -118 25 -71 35 43 8 124 2 140 -12z m-181 1 c3 -5 3 -10 -2 -11 -4 0 -20 -2
-35 -4 -14 -2 -35 3 -45 10 -16 13 -13 14 29 15 26 0 50 -4 53 -10z m255 -111
c0 -49 -4 -89 -9 -89 -14 0 -28 160 -15 181 15 24 24 -10 24 -92z m-3080 67
c0 -3 -4 -8 -10 -11 -5 -3 -10 -1 -10 4 0 6 5 11 10 11 6 0 10 -2 10 -4z
m2804 -17 c-8 -14 -24 -10 -24 6 0 9 6 12 15 9 8 -4 12 -10 9 -15z m124 15
c40 -11 23 -24 -32 -24 -35 0 -58 5 -66 15 -11 13 -6 15 31 15 24 0 54 -3 67
-6z m-2620 -31 c-15 -15 -30 -25 -32 -22 -10 9 25 49 42 49 13 0 11 -6 -10
-27z m3165 -84 c39 -51 52 -91 61 -192 l7 -68 -38 6 c-21 3 -48 8 -59 10 -12
3 -36 27 -53 54 -37 57 -45 61 -114 61 -50 0 -53 -2 -110 -62 -46 -47 -61 -58
-68 -47 -22 36 33 189 86 239 14 13 62 36 108 51 78 25 84 26 114 10 17 -9 47
-37 66 -62z m-584 65 c17 -4 31 -13 31 -20 0 -17 17 -18 23 -1 2 6 8 9 13 4 4
-4 1 -14 -7 -22 -12 -12 -22 -12 -69 1 -43 11 -60 12 -77 3 -25 -13 -57 -5
-51 14 3 6 20 15 39 18 50 9 63 10 98 3z m-2912 -10 c-3 -3 -12 -4 -19 -1 -8
3 -5 6 6 6 11 1 17 -2 13 -5z m3051 -26 c17 -17 16 -151 0 -145 -7 2 -14 17
-15 33 -10 136 -10 137 15 112z m-193 -39 c12 -19 -5 -23 -22 -6 -16 16 -16
17 -1 17 9 0 20 -5 23 -11z m-352 -107 c28 -27 37 -72 13 -72 -7 0 -19 6 -25
14 -6 8 -20 16 -30 19 -22 5 -80 -18 -82 -33 -1 -5 -2 -15 -3 -22 -2 -19 -73
-33 -91 -18 -31 26 -8 119 30 120 11 1 31 7 45 15 36 21 108 9 143 -23z m1125
-57 c27 -58 5 -97 -32 -59 -19 18 -19 14 -5 53 13 38 22 39 37 6z m-304 9 c17
-7 22 -34 6 -34 -5 0 -26 -11 -46 -25 -34 -23 -94 -35 -94 -17 1 4 7 18 14 31
23 41 78 61 120 45z m-3524 -34 c0 -5 -2 -10 -4 -10 -3 0 -8 5 -11 10 -3 6 -1
10 4 10 6 0 11 -4 11 -10z m20 -30 c0 -5 -5 -10 -11 -10 -5 0 -7 5 -4 10 3 6
8 10 11 10 2 0 4 -4 4 -10z m3160 -32 c-12 -10 -28 -18 -36 -18 -8 0 -14 -4
-14 -8 0 -4 -43 -43 -95 -85 -52 -43 -95 -82 -95 -87 0 -12 -68 -52 -81 -48
-13 4 98 114 144 142 18 11 63 49 100 84 58 53 71 61 84 50 13 -11 12 -14 -7
-30z m-110 -5 c0 -17 -76 -83 -95 -83 -16 0 -10 9 30 45 49 43 65 53 65 38z
m425 -12 c-7 -13 -81 -24 -125 -19 l-35 4 35 11 c44 14 133 16 125 4z m199
-16 c-4 -8 -10 -12 -15 -9 -14 8 -10 24 6 24 9 0 12 -6 9 -15z m-474 1 c0 -11
-19 -15 -25 -6 -3 5 1 10 9 10 9 0 16 -2 16 -4z m348 -23 c2 -9 -9 -13 -37
-13 -42 0 -64 15 -34 23 30 8 66 3 71 -10z m-398 -2 c0 -5 -7 -11 -15 -15 -15
-5 -20 5 -8 17 9 10 23 9 23 -2z m-40 -31 c0 -13 -28 -25 -38 -16 -3 4 0 11 8
16 20 13 30 12 30 0z m76 -5 c-10 -8 -23 -12 -28 -9 -14 9 2 24 25 24 21 -1
21 -1 3 -15z m194 5 c0 -5 -4 -10 -10 -10 -5 0 -10 5 -10 10 0 6 5 10 10 10 6
0 10 -4 10 -10z m-485 -60 c-27 -27 -54 -50 -60 -50 -13 -1 -85 -68 -85 -80 0
-6 -4 -10 -9 -10 -5 0 -16 -3 -25 -6 -37 -14 -11 19 65 83 142 119 202 152
114 63z m625 40 c0 -5 -5 -10 -11 -10 -5 0 -7 5 -4 10 3 6 8 10 11 10 2 0 4
-4 4 -10z m-306 -33 c-3 -9 -16 -17 -28 -17 -12 0 -16 3 -10 8 6 4 14 16 18
26 4 13 10 16 17 9 5 -5 7 -17 3 -26z m-74 8 c-7 -8 -16 -15 -21 -15 -5 0 -9
7 -9 15 0 9 9 15 21 15 18 0 19 -2 9 -15z m157 -3 c-10 -10 -17 -23 -17 -29 0
-15 -62 -61 -94 -69 -14 -3 -26 -3 -26 0 0 9 87 93 108 106 10 5 23 10 31 10
11 0 11 -4 -2 -18z m618 8 c4 -6 -17 -10 -59 -10 -36 0 -66 4 -66 8 0 12 118
14 125 2z m-25 -56 c0 -17 -26 -19 -36 -3 -7 12 15 31 28 23 4 -3 8 -12 8 -20z
m-4016 0 c3 -8 11 -45 16 -81 12 -70 37 -129 79 -180 25 -30 45 -60 125 -178
18 -28 36 -60 40 -73 4 -12 32 -52 62 -88 30 -37 54 -72 54 -80 0 -7 11 -25
24 -41 13 -16 42 -63 64 -105 22 -42 56 -98 74 -124 19 -27 39 -63 45 -80 6
-17 46 -91 89 -165 96 -164 143 -257 144 -284 0 -12 4 -25 10 -31 23 -23 81
-130 94 -174 8 -27 20 -58 26 -70 40 -75 56 -467 24 -611 -9 -41 -20 -78 -24
-84 -4 -5 -11 -28 -14 -49 -8 -41 -77 -179 -155 -307 -53 -89 -138 -200 -212
-279 -28 -30 -89 -96 -134 -145 -81 -89 -258 -252 -322 -297 -17 -13 -57 -43
-88 -68 -133 -105 -398 -290 -417 -290 -4 0 -40 -16 -80 -36 -105 -51 -236
-101 -309 -117 -35 -8 -84 -21 -109 -30 -25 -8 -63 -20 -85 -25 -22 -6 -81
-21 -131 -35 -50 -14 -101 -23 -112 -20 -14 3 -32 -3 -51 -20 -16 -13 -65 -37
-108 -52 -43 -16 -82 -32 -87 -37 -6 -4 -18 -8 -28 -8 -10 0 -45 -13 -78 -30
-33 -16 -66 -30 -74 -30 -8 0 -67 -25 -133 -55 -92 -42 -120 -52 -130 -42 -14
15 5 249 36 447 12 74 31 190 42 258 11 67 24 198 30 290 14 240 30 324 119
632 11 36 40 137 66 225 25 88 57 205 71 260 13 55 31 118 38 141 7 22 21 77
29 123 9 45 31 115 50 155 l34 74 48 -5 c27 -3 87 -12 134 -20 47 -8 112 -17
145 -20 68 -5 361 11 388 22 24 10 21 23 -8 37 -14 6 -27 23 -30 39 l-6 29
-152 -4 c-160 -4 -503 15 -432 24 27 3 40 10 40 20 0 17 23 16 -365 25 -151 3
-329 10 -395 16 -240 20 -311 28 -340 38 -53 17 -134 33 -143 27 -15 -9 -351
59 -366 74 -5 5 -15 25 -21 42 -9 28 -7 40 15 83 20 40 25 64 26 132 1 108
-12 227 -42 385 -31 164 -32 243 -1 281 l22 29 655 3 655 3 110 25 c61 14 157
42 215 62 310 109 597 166 762 151 l76 -8 49 -56 c55 -64 106 -147 101 -164
-2 -5 -25 16 -52 48 -65 79 -79 79 -61 -3 7 -31 6 -32 -55 -62 -84 -42 -124
-71 -112 -83 14 -14 57 1 83 28 25 27 39 31 39 10 0 -17 -63 -66 -84 -66 -23
0 -42 -40 -25 -51 20 -12 22 -12 70 16 48 27 59 30 59 15 0 -5 -23 -21 -51
-35 -39 -20 -48 -29 -40 -39 9 -10 22 -11 57 -4 62 14 71 1 34 -48 -53 -70
-29 -93 65 -59 70 25 90 -23 30 -72 l-35 -28 27 -38 c26 -37 26 -39 10 -66
-18 -30 -21 -58 -11 -86 8 -20 75 -55 106 -55 31 0 44 -10 53 -40 4 -14 20
-46 36 -71 17 -27 29 -60 29 -80 0 -45 15 -68 31 -52 21 21 11 103 -17 144
-13 19 -24 45 -24 57 0 29 -33 61 -69 68 -16 4 -44 21 -62 40 -31 32 -31 34
-15 58 25 39 21 81 -10 103 l-26 20 30 12 c38 16 48 42 32 82 -19 44 -7 44 26
-1 16 -22 55 -75 88 -118 32 -42 67 -94 77 -115 39 -75 140 -201 201 -250 35
-28 69 -58 76 -66 26 -32 92 -133 92 -140 0 -4 13 -26 29 -48 30 -42 62 -57
120 -58 25 0 39 -7 54 -27 l21 -28 -27 -57 c-14 -32 -29 -68 -32 -80 -8 -30
20 -82 50 -93 31 -12 32 -26 1 -34 -13 -3 -42 -26 -65 -51 -37 -40 -41 -50
-41 -95 0 -79 37 -133 112 -165 54 -22 84 -19 120 14 29 26 33 35 36 99 6 108
-25 199 -86 252 -26 22 -53 40 -59 40 -7 0 -13 9 -13 19 0 15 10 21 40 26 27
4 48 17 65 37 31 37 39 66 31 120 -3 24 -10 81 -14 128 -9 92 -27 137 -67 169
-33 25 -51 19 -59 -20 -15 -74 -40 -142 -62 -169 -22 -26 -28 -28 -50 -18 -14
7 -43 42 -66 80 -22 37 -59 89 -81 114 -23 26 -41 55 -39 64 1 9 -15 41 -38
71 -53 71 -51 98 3 36 108 -125 123 -139 142 -135 17 3 15 9 -20 48 -23 25
-54 63 -70 85 -16 22 -79 92 -140 155 -61 63 -125 140 -142 170 -18 30 -45 68
-62 84 -17 17 -31 35 -31 40 0 6 -12 22 -25 35 -14 13 -25 31 -25 40 1 23 91
-77 149 -164 38 -58 47 -66 49 -48 3 23 -75 163 -122 221 -12 15 -38 49 -56
77 -19 27 -45 59 -58 70 -14 12 -25 34 -27 55 -4 47 -22 90 -48 120 -48 55
-57 92 -36 147 13 35 248 263 270 263 9 0 20 -7 23 -16z m3191 -11 c-11 -7
-25 -13 -32 -13 -7 0 -13 -10 -13 -21 0 -13 -22 -43 -57 -75 -57 -54 -83 -67
-83 -39 0 8 9 15 21 15 11 0 18 4 15 9 -6 9 99 122 129 139 26 14 43 2 20 -15z
m281 2 c-3 -9 -11 -13 -17 -10 -14 9 -46 -21 -53 -51 -5 -20 -11 -23 -31 -18
-22 5 -25 3 -25 -19 0 -27 -15 -43 -44 -49 -29 -5 -31 21 -3 31 14 6 28 18 31
29 8 24 134 118 144 107 3 -2 2 -11 -2 -20z m-586 1 c0 -11 -19 -15 -25 -6 -3
5 1 10 9 10 9 0 16 -2 16 -4z m1060 -10 c0 -11 -19 -15 -25 -6 -3 5 1 10 9 10
9 0 16 -2 16 -4z m174 -5 c3 -5 -12 -11 -34 -13 -22 -2 -40 0 -40 3 0 17 65
25 74 10z m-214 -9 c0 -4 -15 -13 -33 -20 -58 -21 -118 -12 -96 14 12 15 129
20 129 6z m-1070 -17 c0 -9 -13 -24 -30 -33 -16 -9 -30 -21 -30 -25 0 -5 -10
-17 -22 -28 -60 -49 -36 8 25 63 46 41 57 46 57 23z m404 6 c6 -10 -58 -71
-74 -71 -6 0 -10 7 -10 15 0 8 7 15 15 15 8 0 22 11 31 25 17 26 29 31 38 16z
m276 -5 c0 -8 -15 -26 -32 -41 -18 -14 -45 -37 -61 -50 -15 -14 -34 -25 -42
-25 -8 0 -15 -6 -15 -13 0 -7 -13 -26 -30 -42 -22 -21 -30 -24 -30 -13 0 18
86 111 151 163 48 38 59 42 59 21z m80 -17 c0 -14 -13 -26 -44 -40 -28 -12
-53 -33 -66 -54 -15 -25 -29 -35 -47 -35 -22 0 -17 8 49 74 75 76 108 93 108
55z m423 6 c-1 -5 -7 -13 -15 -16 -7 -3 -23 -11 -36 -18 -17 -9 -28 -9 -44 0
l-22 12 21 8 c11 4 24 13 28 19 8 14 71 9 68 -5z m147 -24 c0 -24 -102 -42
-116 -19 -5 7 -1 9 13 6 11 -3 35 3 54 12 33 17 49 18 49 1z m-1220 4 c0 -4
-15 -22 -34 -40 -31 -33 -56 -45 -56 -27 1 15 28 42 43 42 8 0 17 7 21 15 5
14 26 22 26 10z m281 -67 c-17 -15 -38 -28 -46 -28 -25 0 -17 24 16 45 17 11
36 29 42 40 11 19 12 19 15 -5 3 -17 -5 -32 -27 -52z m669 57 c0 -12 -19 -12
-23 0 -4 9 -1 12 9 8 7 -3 14 -7 14 -8z m-270 -37 c-12 -10 -34 -18 -49 -18
l-26 1 34 29 c28 24 37 27 49 18 12 -10 11 -15 -8 -30z m-803 -5 c5 -13 -44
-49 -54 -40 -3 4 2 18 11 32 17 26 36 29 43 8z m912 -44 c-24 -35 -58 -54 -70
-42 -11 11 17 53 35 53 8 0 19 7 26 15 22 27 31 4 9 -26z m-813 4 c-10 -10
-19 5 -10 18 6 11 8 11 12 0 2 -7 1 -15 -2 -18z m209 17 c-3 -5 -13 -10 -21
-10 -8 0 -12 5 -9 10 3 6 13 10 21 10 8 0 12 -4 9 -10z m435 -21 c0 -4 -9 -13
-20 -19 -16 -9 -22 -8 -27 6 -3 9 0 20 7 24 15 9 40 2 40 -11z m50 -23 c0 -3
-4 -8 -10 -11 -5 -3 -10 -1 -10 4 0 6 5 11 10 11 6 0 10 -2 10 -4z m730 -15
c0 -11 -59 -33 -71 -25 -15 9 -10 22 9 27 31 8 62 7 62 -2z m-1620 -20 c0 -11
5 -23 10 -26 22 -14 -4 -25 -57 -25 -48 0 -54 2 -43 15 7 8 19 15 26 15 8 0
19 9 26 20 16 26 38 26 38 1z m318 7 c-7 -21 -53 -49 -71 -42 -14 5 -11 10 16
29 35 26 61 32 55 13z m72 -14 c0 -16 -4 -23 -12 -18 -6 4 -17 -1 -25 -11 -12
-17 -13 -17 -13 -2 0 9 4 17 9 17 5 0 11 9 14 20 7 29 27 25 27 -6z m380 17
c0 -11 -39 -25 -47 -18 -3 3 -2 10 2 16 8 13 45 15 45 2z m555 -1 c3 -6 -1
-13 -10 -16 -19 -8 -30 0 -20 15 8 14 22 14 30 1z m-1188 -17 c-9 -9 -19 -14
-23 -11 -10 10 6 28 24 28 15 0 15 -1 -1 -17z m358 6 c10 -16 -23 -48 -45 -42
-18 5 -18 7 -3 29 16 25 37 31 48 13z m355 1 c0 -5 -13 -25 -30 -43 -16 -19
-30 -39 -30 -44 0 -16 -37 -45 -44 -34 -11 17 11 56 53 94 43 39 51 43 51 27z
m90 -11 c0 -5 -5 -9 -10 -9 -6 0 -21 -11 -33 -24 -12 -13 -33 -27 -47 -31 -22
-6 -19 -1 19 38 39 40 71 52 71 26z m210 11 c0 -5 -7 -10 -15 -10 -8 0 -15 5
-15 10 0 6 7 10 15 10 8 0 15 -4 15 -10z m-177 -47 c-70 -87 -87 -99 -81 -60
2 14 11 23 25 25 12 2 25 13 29 25 9 29 34 57 51 57 9 0 0 -18 -24 -47z m217
26 c0 -23 -22 -49 -41 -49 -15 0 -19 -5 -15 -15 4 -11 0 -15 -12 -13 -11 2
-17 -3 -16 -15 1 -10 -3 -16 -9 -14 -22 7 -18 28 12 54 17 16 38 36 48 45 21
19 33 22 33 7z m450 -8 c0 -15 -10 -18 -82 -26 -87 -9 -91 10 -5 23 86 13 87
13 87 3z m-299 -34 c-8 -8 -11 -7 -11 4 0 9 3 19 7 23 4 4 9 2 11 -4 3 -7 -1
-17 -7 -23z m-71 14 c0 -15 -68 -53 -81 -46 -6 4 3 16 23 31 35 24 58 30 58
15z m-221 -15 c14 -17 0 -29 -23 -20 -17 7 -20 16 -9 27 10 11 19 8 32 -7z
m-1209 -5 c0 -5 -8 -12 -18 -15 -10 -4 -28 -20 -40 -36 -21 -28 -52 -41 -52
-21 0 5 18 25 40 45 38 34 70 47 70 27z m1861 -1 c5 0 9 -4 9 -9 0 -11 -48
-24 -61 -15 -15 9 11 36 28 29 8 -3 19 -5 24 -5z m-8151 -10 c10 -6 44 -48 74
-94 31 -47 65 -87 76 -91 11 -3 56 -10 100 -14 108 -11 131 -32 150 -133 14
-69 4 -126 -27 -163 l-24 -30 6 41 c3 22 2 60 -4 85 -5 24 -13 64 -16 89 -7
59 -19 78 -38 62 -11 -9 -12 -23 -6 -63 20 -126 14 -197 -31 -349 -23 -80 -55
-172 -71 -206 -38 -80 -115 -159 -165 -169 -21 -3 -58 -17 -83 -30 -70 -35
-152 -48 -306 -49 -95 -1 -159 -7 -200 -18 -139 -37 -165 -42 -257 -42 -131
-1 -140 11 -45 58 40 20 79 36 86 36 6 0 28 9 49 19 20 10 73 24 117 31 105
16 105 16 105 39 0 29 -9 31 -90 14 -103 -20 -283 -19 -332 3 -44 20 -46 26
-15 46 27 18 182 68 211 68 21 0 180 37 271 63 62 18 68 42 10 41 -22 -1 -74
-7 -115 -13 -136 -23 -203 -24 -264 -7 -31 9 -56 20 -56 25 0 15 35 39 65 44
17 3 84 15 150 27 137 24 279 66 296 86 31 38 -53 46 -147 13 -67 -23 -214
-43 -227 -30 -4 4 -2 13 5 19 13 10 152 48 285 78 35 7 91 25 125 40 102 43
273 131 287 148 11 13 9 26 -13 81 -14 35 -23 72 -19 80 3 9 0 34 -7 54 -10
30 -10 43 0 62 29 56 53 69 90 49z m6763 -21 c-5 -5 -21 -5 -38 0 -30 9 -24
16 20 23 22 4 32 -9 18 -23z m84 -4 c-7 -16 -37 -21 -37 -5 0 10 32 31 39 25
2 -2 1 -11 -2 -20z m876 1 c-10 -13 -20 -20 -21 -15 -5 12 17 39 30 39 5 0 1
-11 -9 -24z m332 16 c-19 -17 -75 -34 -90 -28 -22 8 -18 24 8 29 41 8 91 7 82
-1z m-1730 -22 c-3 -5 -11 -10 -16 -10 -6 0 -7 5 -4 10 3 6 11 10 16 10 6 0 7
-4 4 -10z m1605 1 c0 -5 -7 -11 -15 -15 -15 -5 -20 5 -8 17 9 10 23 9 23 -2z
m-686 -55 c-9 -14 -20 -26 -25 -26 -16 0 -10 27 13 56 18 22 24 25 26 12 2 -9
-4 -28 -14 -42z m366 29 c-7 -8 -17 -15 -23 -15 -5 0 -2 9 8 20 21 23 35 19
15 -5z m198 8 c-3 -18 -46 -45 -59 -37 -10 6 33 54 49 54 8 0 12 -8 10 -17z
m363 -8 c0 -16 -191 -42 -191 -26 0 15 32 24 105 31 82 8 87 7 86 -5z m-1756
-22 c5 -13 -5 -28 -37 -55 -47 -41 -58 -46 -58 -23 0 14 68 92 81 94 4 1 10
-7 14 -16z m1025 2 c-7 -9 -15 -13 -17 -11 -7 7 7 26 19 26 6 0 6 -6 -2 -15z
m-770 -12 c0 -5 -4 -15 -10 -23 -11 -18 -25 -7 -17 15 6 15 27 21 27 8z m270
1 c0 -12 -42 -64 -51 -64 -15 0 -10 32 8 52 15 17 43 25 43 12z m137 0 c-3 -3
-12 -4 -19 -1 -8 3 -5 6 6 6 11 1 17 -2 13 -5z m563 -39 c-24 -25 -48 -45 -53
-45 -4 0 -18 -11 -31 -25 -26 -28 -36 -31 -36 -11 0 7 12 22 28 32 15 10 44
35 65 56 21 21 45 38 54 38 12 0 3 -14 -27 -45z m-1421 0 c-22 -25 -87 -86
-109 -102 -11 -8 -20 -21 -20 -29 0 -8 -2 -14 -4 -14 -2 0 -11 -3 -20 -6 -11
-4 -16 0 -16 15 0 13 19 35 55 62 31 23 60 50 66 61 5 10 16 18 24 18 8 0 15
8 15 17 0 13 3 14 11 6 8 -8 8 -16 -2 -28z m95 27 c2 -4 -12 -25 -31 -46 -27
-29 -37 -35 -44 -25 -14 23 -10 33 24 57 34 24 43 26 51 14z m152 -19 c-10
-10 -19 5 -10 18 6 11 8 11 12 0 2 -7 1 -15 -2 -18z m349 -19 c-36 -29 -47
-13 -14 22 16 17 26 21 33 13 8 -7 2 -17 -19 -35z m1377 29 c43 -8 22 -23 -33
-23 -27 0 -49 2 -49 4 0 23 15 37 34 31 11 -4 33 -9 48 -12z m-622 4 c0 -2
-17 -21 -37 -43 -40 -41 -93 -80 -93 -67 1 25 130 134 130 110z m510 -9 c0 -9
-22 -14 -68 -16 -45 -2 -64 0 -57 7 9 8 25 11 108 19 9 1 17 -4 17 -10z
m-1940 -13 c0 -8 -4 -15 -10 -15 -5 0 -10 7 -10 15 0 8 5 15 10 15 6 0 10 -7
10 -15z m1255 5 c3 -6 -1 -13 -10 -16 -9 -4 -22 -22 -30 -40 -9 -23 -21 -34
-35 -34 -12 0 -24 -9 -30 -24 -9 -25 -28 -42 -36 -33 -5 5 26 53 61 96 51 62
67 72 80 51z m-789 -15 c-21 -16 -32 -13 -21 4 3 6 14 11 23 11 15 -1 15 -2
-2 -15z m1094 0 c0 -19 -56 -82 -65 -73 -6 5 53 87 63 88 1 0 2 -7 2 -15z
m-399 -15 c-24 -21 -41 -26 -41 -12 0 15 24 32 45 32 19 -1 19 -1 -4 -20z
m146 9 c-10 -6 -22 -22 -27 -35 -10 -25 -30 -33 -30 -12 0 18 41 58 59 58 13
-1 13 -2 -2 -11z m-230 -24 c-15 -14 -33 -25 -40 -25 -7 0 1 12 16 25 15 14
33 25 40 25 7 0 -1 -12 -16 -25z m-161 -33 c-24 -24 -30 -7 -9 24 15 24 18 25
21 10 2 -10 -3 -25 -12 -34z m1175 26 c5 -7 9 -15 9 -18 0 -3 -40 -5 -88 -6
-105 -1 -276 -24 -264 -36 5 -5 37 -5 73 0 35 6 75 10 89 10 14 0 50 3 81 7
73 10 127 -7 127 -38 0 -12 3 -33 6 -47 11 -45 2 -48 -158 -40 -82 5 -159 4
-170 0 -28 -12 -19 -13 111 -15 84 -1 118 -6 137 -18 15 -10 27 -13 31 -7 3 6
15 10 27 10 19 0 20 -4 15 -52 -11 -93 -24 -162 -38 -190 l-12 -28 -108 0
-109 0 -45 77 c-25 43 -45 83 -45 91 0 7 -28 41 -63 75 -72 71 -101 113 -87
122 6 3 10 15 10 25 0 25 38 46 53 31 16 -16 47 -13 47 4 0 38 133 67 284 60
52 -2 82 -8 87 -17z m-1483 -25 c-2 -10 -11 -17 -21 -17 -10 1 -17 -5 -17 -17
0 -19 -35 -49 -58 -49 -12 0 -12 3 -2 15 7 8 19 15 26 15 8 0 14 10 14 21 0
23 25 48 48 49 8 0 12 -8 10 -17z m232 8 c0 -13 -50 -71 -61 -71 -19 0 -8 29
22 54 33 28 39 31 39 17z m-430 -9 c0 -4 -20 -25 -45 -45 -59 -50 -80 -38 -26
14 37 36 71 51 71 31z m105 -10 c0 -13 -33 -35 -67 -46 -11 -3 -18 -15 -18
-29 0 -14 -10 -29 -27 -39 -16 -9 -64 -53 -108 -97 -44 -45 -87 -83 -95 -86
-8 -3 -25 -25 -38 -49 -31 -58 -86 -111 -107 -102 -15 5 -14 10 6 43 39 64 73
103 107 123 17 11 32 25 32 32 0 15 103 108 119 108 6 0 11 7 11 16 0 9 17 23
40 32 22 9 43 26 46 36 17 52 99 99 99 58z m234 1 c-21 -28 -140 -143 -148
-143 -20 0 -14 14 20 50 21 22 43 40 49 40 5 0 10 5 10 12 0 15 50 57 69 58
11 0 11 -3 0 -17z m-84 -13 c-3 -5 -10 -10 -16 -10 -5 0 -9 5 -9 10 0 6 7 10
16 10 8 0 12 -4 9 -10z m907 -2 c4 -12 -26 -48 -40 -48 -4 0 -13 -9 -20 -20
-7 -12 -18 -18 -24 -14 -7 5 -4 13 10 25 12 9 22 21 22 25 0 10 31 44 41 44 4
0 9 -5 11 -12z m-7080 -8 c21 -6 40 -16 44 -22 9 -15 43 -168 44 -197 0 -20
-2 -21 -15 -11 -13 11 -15 7 -15 -24 0 -21 7 -69 16 -108 22 -97 14 -168 -45
-393 -9 -36 -4 -55 14 -55 19 0 83 57 90 81 11 35 23 20 18 -23 -8 -61 -18
-75 -65 -90 -28 -10 -50 -25 -63 -46 -20 -31 -21 -31 -100 -31 -87 -1 -145 12
-251 54 -83 33 -80 31 -64 50 9 11 22 14 46 9 30 -5 35 -3 53 27 17 28 21 51
21 123 0 81 3 94 31 144 28 50 31 62 27 127 -3 70 -2 73 24 88 27 16 28 19 28
102 0 47 -5 107 -12 132 -10 41 -9 47 7 59 22 16 114 18 167 4z m6388 0 c0 -5
-5 -10 -11 -10 -5 0 -7 5 -4 10 3 6 8 10 11 10 2 0 4 -4 4 -10z m484 -22 c3
-13 1 -25 -4 -26 -6 -2 -17 -10 -25 -19 -8 -8 -19 -11 -25 -8 -5 3 -10 1 -10
-4 0 -6 -4 -11 -10 -11 -20 0 -10 27 15 40 13 7 27 21 31 32 7 25 20 23 28 -4z
m-734 3 c0 -6 -4 -13 -10 -16 -5 -3 -10 1 -10 9 0 9 5 16 10 16 6 0 10 -4 10
-9z m430 0 c0 -14 -49 -68 -50 -55 0 11 38 64 46 64 2 0 4 -4 4 -9z m230 -1
c0 -10 -39 -34 -46 -27 -3 2 -2 12 2 21 7 17 44 23 44 6z m-440 -10 c0 -5 -4
-10 -10 -10 -5 0 -10 5 -10 10 0 6 5 10 10 10 6 0 10 -4 10 -10z m614 1 c4 -5
-10 -19 -29 -31 -19 -12 -40 -31 -46 -42 -9 -17 -13 -18 -20 -7 -14 22 -11 27
33 59 44 32 54 35 62 21z m-4146 -28 c11 -16 32 -53 47 -83 15 -30 39 -70 52
-88 22 -29 23 -33 7 -30 -10 1 -44 35 -75 73 -43 52 -60 82 -65 113 -8 50 5
55 34 15z m2976 -6 c-8 -21 -154 -150 -162 -142 -4 3 28 40 72 81 75 71 101
89 90 61z m-3050 -16 c3 -5 -5 -11 -19 -13 -24 -5 -32 2 -18 15 9 10 31 9 37
-2z m3241 -1 c3 -5 2 -10 -4 -10 -5 0 -13 5 -16 10 -3 6 -2 10 4 10 5 0 13 -4
16 -10z m215 -14 c0 -16 -84 -106 -100 -106 -20 0 -9 19 42 69 29 28 53 51 55
51 2 0 3 -6 3 -14z m369 -3 c-13 -21 -79 -55 -79 -41 0 15 53 57 73 58 14 0
15 -3 6 -17z m-619 -14 c0 -5 -4 -9 -10 -9 -5 0 -10 7 -10 16 0 8 5 12 10 9 6
-3 10 -10 10 -16z m1128 -29 c-25 -78 -31 -89 -55 -112 -22 -20 -34 -23 -106
-23 -45 0 -121 9 -168 19 l-85 19 -145 -70 c-197 -97 -277 -131 -325 -139 -48
-7 -70 11 -26 21 29 6 230 126 241 143 3 5 29 25 57 43 28 19 75 53 104 77 28
23 63 45 76 48 14 4 64 -4 112 -16 48 -13 103 -25 123 -27 44 -6 130 19 166
47 34 26 46 14 31 -30z m-818 25 c0 -8 -4 -15 -10 -15 -5 0 -10 7 -10 15 0 8
5 15 10 15 6 0 10 -7 10 -15z m210 -5 c0 -5 -8 -10 -17 -10 -15 0 -16 2 -3 10
19 12 20 12 20 0z m-460 -4 c0 -3 -4 -8 -10 -11 -5 -3 -10 -1 -10 4 0 6 5 11
10 11 6 0 10 -2 10 -4z m-3222 -40 c7 -19 24 -50 37 -70 35 -51 33 -68 -4 -55
-42 15 -65 43 -57 73 4 16 1 26 -9 30 -18 7 -19 28 -3 44 18 18 23 15 36 -22z
m3132 12 c-1 -16 -70 -61 -70 -46 0 16 41 58 57 58 7 0 13 -6 13 -12z m140 3
c0 -13 -29 -35 -37 -28 -7 8 15 37 28 37 5 0 9 -4 9 -9z m160 -17 c0 -16 -16
-19 -25 -4 -8 13 4 32 16 25 5 -4 9 -13 9 -21z m-270 -14 c0 -5 -4 -10 -10
-10 -5 0 -10 5 -10 10 0 6 5 10 10 10 6 0 10 -4 10 -10z m38 -43 c-13 -12 -25
-18 -27 -14 -5 12 30 47 41 41 5 -3 -1 -16 -14 -27z m1235 -46 c57 -86 67
-106 67 -130 0 -32 -12 -25 -50 29 -21 29 -54 60 -81 74 -62 35 -75 51 -62 79
9 19 17 23 47 19 31 -4 41 -12 79 -71z m1760 20 c20 -22 37 -48 37 -58 -1 -21
-82 -88 -108 -88 -13 0 -18 12 -24 55 -3 30 -9 76 -12 101 l-6 47 37 -8 c25
-6 51 -23 76 -49z m-2815 33 c-3 -18 -54 -61 -62 -53 -3 2 4 19 16 37 21 34
52 44 46 16z m-88 -2 c0 -12 -49 -56 -55 -50 -7 7 34 58 46 58 5 0 9 -4 9 -8z
m-298 -57 c0 -5 -5 -11 -11 -13 -6 -2 -11 4 -11 13 0 9 5 15 11 13 6 -2 11 -8
11 -13z m149 -6 c-26 -21 -37 -19 -28 6 4 8 17 15 29 15 l23 -1 -24 -20z m339
13 c0 -13 -12 -22 -22 -16 -10 6 -1 24 13 24 5 0 9 -4 9 -8z m-92 -11 c-8 -21
-149 -161 -163 -161 -21 0 -19 8 10 46 14 18 40 38 58 45 19 6 44 27 57 45 20
31 47 47 38 25z m-92 -23 c-10 -6 -32 -26 -49 -45 -41 -47 -46 -34 -6 16 19
25 41 41 53 41 20 -1 20 -1 2 -12z m214 2 c0 -5 -4 -10 -10 -10 -5 0 -10 5
-10 10 0 6 5 10 10 10 6 0 10 -4 10 -10z m807 -5 c23 -16 63 -75 63 -93 0 -12
-43 -24 -63 -16 -8 3 -22 22 -30 42 l-15 37 -1 -37 c-2 -57 -7 -64 -47 -60
-29 4 -38 10 -46 34 -12 33 -30 32 -38 -3 -5 -20 -12 -24 -45 -24 -35 0 -40 3
-43 25 -2 14 -9 31 -15 38 -9 11 -13 11 -24 -4 -7 -10 -13 -28 -13 -41 0 -26
-43 -42 -69 -26 -22 14 -43 59 -45 97 l-1 31 80 -1 c44 -1 105 -5 135 -8 37
-5 69 -3 100 7 60 20 91 20 117 2z m-7397 -66 c0 -36 -4 -49 -12 -47 -16 6
-20 55 -7 80 15 28 19 22 19 -33z m6170 42 c0 -13 -72 -87 -92 -94 -34 -12
-26 7 24 54 51 48 68 58 68 40z m766 -42 c19 -38 18 -59 -4 -59 -33 0 -54 34
-46 74 5 30 9 35 21 24 8 -6 21 -24 29 -39z m-489 -16 c-28 -26 -52 -41 -59
-37 -7 5 -2 15 18 31 16 12 38 32 48 43 10 10 24 17 29 13 6 -3 -11 -26 -36
-50z m3031 41 c12 -8 22 -21 22 -27 0 -17 -112 -125 -183 -176 -91 -66 -197
-92 -227 -56 -21 26 -6 48 80 117 47 38 110 88 140 113 47 39 61 45 100 45 25
0 56 -7 68 -16z m-3492 -36 c-14 -24 -29 -44 -34 -46 -14 -4 -11 36 4 49 8 6
14 18 14 25 0 8 9 14 21 14 20 0 19 -1 -5 -42z m231 12 c-6 -16 -15 -30 -19
-30 -4 0 -8 -7 -8 -15 0 -8 -4 -15 -10 -15 -5 0 -10 5 -10 11 0 8 -5 8 -15 -1
-26 -22 -16 1 18 40 40 48 60 52 44 10z m-2889 -65 c46 -69 49 -78 33 -83 -6
-2 -11 1 -11 8 0 6 -18 35 -40 65 -38 52 -48 75 -32 75 4 0 26 -29 50 -65z
m728 40 c-7 -28 1 -33 18 -10 10 13 26 9 121 -33 61 -27 120 -54 130 -60 11
-5 54 -22 95 -37 41 -15 93 -35 116 -45 23 -10 88 -28 145 -39 57 -11 124 -25
149 -31 25 -5 63 -12 85 -15 68 -11 68 -11 25 -67 -22 -29 -59 -91 -82 -137
-39 -75 -43 -91 -43 -155 0 -57 6 -84 29 -136 16 -36 37 -74 47 -85 19 -23 62
-105 57 -110 -6 -6 -231 125 -278 161 -106 82 -445 434 -495 514 -12 19 -54
85 -93 145 -40 61 -72 118 -72 127 0 16 25 37 44 38 4 0 5 -11 2 -25z m2784
-10 c0 -22 -4 -25 -35 -25 -22 0 -35 5 -35 13 0 20 22 37 47 37 18 0 23 -6 23
-25z m-814 -12 c-10 -10 -19 5 -10 18 6 11 8 11 12 0 2 -7 1 -15 -2 -18z m702
-5 c-7 -21 -36 -34 -49 -21 -6 6 -8 16 -5 22 10 15 59 14 54 -1z m-6752 -112
c-9 -41 -16 -78 -16 -83 0 -4 -5 -2 -11 4 -13 13 7 149 25 172 18 24 19 -9 2
-93z m9624 88 c0 -8 -203 -204 -212 -204 -7 0 -68 -94 -113 -178 -30 -54 -58
-82 -70 -70 -9 9 41 152 82 236 55 113 188 222 270 222 24 0 43 -3 43 -6z
m-1575 -39 c121 -4 222 -8 225 -10 3 -2 91 -6 195 -9 105 -4 222 -9 260 -12
87 -7 195 -40 202 -63 13 -42 30 -65 58 -76 53 -22 117 -26 172 -12 43 11 55
12 64 1 15 -18 -15 -114 -62 -197 -22 -38 -39 -75 -39 -83 0 -19 45 -36 74
-28 17 4 37 -6 79 -41 101 -82 155 -92 265 -49 84 33 103 48 238 179 60 58
133 127 163 153 52 45 56 47 129 51 90 4 142 -6 326 -65 161 -52 165 -54 229
-107 49 -41 97 -126 97 -169 -1 -167 -156 -433 -389 -666 -85 -85 -248 -227
-278 -242 -25 -13 -110 -75 -123 -90 -3 -3 -21 -17 -40 -30 -19 -13 -48 -35
-65 -50 -59 -54 -314 -197 -375 -211 -19 -5 -69 -17 -110 -28 -72 -20 -156
-34 -292 -49 -113 -13 -528 -4 -573 12 -22 8 -65 16 -97 19 -31 3 -80 12 -110
21 -29 8 -65 18 -80 21 -19 4 -34 17 -47 43 -25 48 -30 52 -119 86 -61 23 -87
42 -150 103 -59 57 -82 73 -97 68 -68 -20 -89 -17 -180 28 -110 54 -192 87
-215 87 -10 0 -23 6 -29 14 -6 7 -39 25 -74 40 -34 15 -80 35 -102 46 -72 34
-139 58 -193 69 -29 6 -69 18 -88 26 -20 8 -45 15 -54 15 -10 0 -56 18 -101
40 -46 22 -93 40 -105 40 -13 0 -25 4 -28 9 -6 8 -184 75 -273 101 -22 7 -63
30 -90 51 -71 57 -138 85 -220 92 -44 4 -102 19 -150 38 -84 34 -208 57 -239
45 -14 -6 0 -14 61 -30 44 -13 121 -43 170 -67 81 -40 97 -44 162 -44 66 0 77
-3 110 -30 46 -37 112 -68 318 -152 88 -36 195 -80 238 -97 42 -18 83 -38 89
-44 7 -7 20 -12 30 -12 9 0 41 -9 70 -19 29 -11 69 -23 88 -27 48 -9 291 -107
495 -199 164 -74 222 -96 275 -109 34 -7 150 -76 150 -89 0 -5 -8 -7 -17 -4
-45 13 -243 90 -291 112 -29 14 -69 29 -90 34 -20 5 -65 21 -99 35 -34 15
-110 35 -170 45 -60 10 -127 26 -148 36 -22 9 -62 20 -88 26 -54 10 -287 100
-413 160 -45 21 -94 41 -110 45 -34 8 -242 113 -250 126 -3 4 -14 8 -26 8 -11
0 -37 9 -57 19 -20 10 -70 35 -111 55 -41 20 -94 47 -118 61 -23 14 -50 25
-60 25 -9 0 -42 9 -72 21 -30 11 -86 32 -125 46 -38 14 -83 33 -100 43 -16 10
-56 28 -88 40 -67 25 -81 43 -98 127 -14 67 -15 59 36 163 13 25 28 62 35 83
9 28 22 43 50 57 41 21 90 73 90 96 0 22 41 114 51 114 5 0 23 13 42 29 60 53
203 88 377 93 46 1 294 -23 342 -33 27 -6 107 -11 179 -10 82 0 138 -4 149
-11 14 -9 25 -9 45 0 33 15 80 15 104 1 13 -9 27 -9 48 -2 22 8 38 7 63 -4 31
-13 36 -12 63 8 24 18 47 22 145 26 83 3 128 10 157 23 22 10 51 16 65 13 14
-2 35 -1 47 4 24 9 264 8 598 -2z m1683 -37 c4 -36 -10 -55 -111 -146 -47 -43
-106 -108 -132 -147 -58 -87 -85 -112 -131 -121 -55 -10 -58 4 -18 90 41 90
93 167 129 190 14 9 25 23 25 31 0 7 12 23 28 35 15 12 42 33 60 48 38 32 87
52 122 49 19 -2 26 -8 28 -29z m-6289 -44 c31 -40 25 -52 -9 -19 -16 16 -30
32 -30 37 0 16 19 7 39 -18z m1321 -740 c233 -154 302 -197 386 -244 63 -35
246 -137 294 -164 50 -28 228 -106 335 -147 105 -40 140 -57 132 -66 -3 -2
-39 8 -82 22 -43 14 -92 25 -109 25 -33 0 -280 94 -307 117 -8 7 -22 13 -30
13 -8 0 -25 7 -37 16 -12 8 -46 23 -76 34 -71 24 -233 110 -319 169 -38 25
-81 53 -97 61 -60 32 -291 233 -469 410 -77 76 -136 163 -124 183 3 6 73 -58
157 -145 143 -147 162 -162 346 -284z m130 277 c0 -6 -4 -13 -10 -16 -5 -3
-10 1 -10 9 0 9 5 16 10 16 6 0 10 -4 10 -9z m0 -47 c0 -8 -4 -12 -10 -9 -5 3
-10 10 -10 16 0 5 5 9 10 9 6 0 10 -7 10 -16z m-406 -159 c35 -30 77 -70 93
-89 15 -18 42 -40 59 -49 17 -9 37 -23 44 -32 26 -31 254 -181 395 -259 77
-43 163 -92 190 -109 123 -76 341 -167 571 -237 159 -49 327 -80 474 -86 133
-6 137 -6 266 30 158 43 174 45 174 12 0 -13 3 -31 6 -39 3 -9 -4 -25 -15 -36
-16 -16 -17 -21 -6 -21 8 0 15 -6 15 -14 0 -7 -7 -19 -15 -26 -12 -10 -15 -9
-15 8 0 11 -6 25 -14 31 -17 14 -26 2 -46 -64 -6 -22 -22 -62 -35 -90 -12 -27
-28 -75 -35 -105 -8 -31 -32 -83 -56 -120 -34 -52 -45 -79 -53 -138 -7 -41
-18 -87 -26 -102 -8 -16 -21 -64 -28 -107 -8 -43 -19 -88 -25 -99 -21 -39 -25
-344 -7 -564 9 -113 16 -209 16 -215 1 -23 -42 -258 -50 -273 -5 -10 -14 -39
-20 -67 -6 -27 -25 -99 -41 -160 -17 -60 -34 -127 -39 -148 -5 -21 -29 -65
-55 -97 -25 -33 -46 -64 -46 -68 0 -16 -83 -126 -143 -191 -33 -36 -69 -80
-80 -98 -11 -19 -40 -45 -66 -59 -71 -38 -102 -56 -156 -91 -84 -53 -166 -86
-250 -100 -81 -14 -322 -19 -399 -8 -22 3 -72 7 -111 9 -41 3 -139 24 -235 50
-91 25 -175 46 -186 46 -35 0 -113 39 -210 104 -51 34 -116 76 -146 94 -31 18
-112 89 -182 157 -70 68 -149 141 -176 161 -28 21 -53 46 -56 56 -3 10 -9 18
-14 18 -4 0 -19 19 -33 42 -14 24 -50 72 -81 107 -31 36 -56 70 -56 77 0 6
-24 46 -54 87 -102 142 -195 361 -216 507 -5 36 -15 85 -21 110 -20 81 -22
123 -9 192 11 66 13 69 80 128 37 33 74 60 81 60 8 0 29 -33 47 -73 18 -39 70
-143 116 -230 50 -94 79 -160 72 -162 -39 -11 -47 -16 -41 -25 3 -5 21 -10 39
-10 41 0 71 -29 61 -61 -12 -38 -47 -89 -56 -83 -6 3 -20 20 -32 38 -93 137
-125 193 -162 286 -44 109 -67 133 -73 73 -4 -38 28 -145 57 -193 12 -19 30
-55 41 -78 19 -41 76 -121 142 -200 16 -18 28 -41 28 -51 0 -12 11 -23 28 -29
26 -9 52 -29 172 -130 25 -21 66 -53 93 -71 39 -26 48 -29 53 -17 3 9 -4 27
-15 42 -12 15 -21 41 -21 60 0 30 -3 33 -52 49 -29 10 -74 31 -100 47 -46 29
-118 100 -118 116 0 4 13 29 30 55 26 42 33 47 62 45 31 -3 33 -1 30 26 -2 19
4 36 19 52 42 44 59 34 177 -103 61 -71 127 -142 149 -159 47 -38 186 -108
303 -153 47 -18 99 -39 115 -46 46 -19 83 -26 89 -16 9 14 -13 26 -114 61 -52
18 -154 61 -226 96 -115 55 -138 70 -183 121 -73 84 -143 187 -128 191 6 1 41
-9 76 -23 36 -14 71 -25 78 -25 8 0 31 -9 51 -19 21 -11 56 -22 77 -26 36 -7
39 -6 25 8 -13 14 -65 39 -303 144 -45 20 -61 33 -72 59 -25 60 -79 58 -164
-6 -30 -22 -57 -40 -61 -40 -17 0 -122 188 -150 270 -7 19 -23 64 -37 100 -14
36 -29 85 -35 108 -9 41 -8 46 18 73 15 16 32 29 36 29 5 0 32 -48 60 -107
106 -229 126 -260 182 -295 59 -37 272 -123 336 -136 30 -6 66 -14 79 -18 43
-13 14 13 -37 32 -26 10 -54 23 -62 30 -9 7 -42 20 -74 28 -33 9 -67 22 -76
31 -12 11 -143 65 -157 65 -2 0 -3 6 -3 14 0 8 -6 16 -14 19 -16 6 -44 65 -70
147 -10 30 -24 69 -31 85 -7 17 -17 44 -21 60 -4 17 -13 42 -20 56 -12 23 -11
29 6 44 10 9 23 14 28 11 5 -3 27 -52 47 -108 66 -180 152 -321 181 -297 9 8
3 23 -27 67 -61 89 -150 320 -153 397 -1 34 27 43 32 10 2 -11 7 -30 13 -42
23 -56 28 -70 34 -97 12 -54 134 -295 155 -306 34 -18 43 -7 20 23 -12 15 -18
32 -15 37 11 17 -3 57 -28 82 -53 52 -150 383 -118 402 23 14 64 -56 100 -168
12 -38 31 -87 42 -107 10 -21 19 -47 19 -58 0 -12 21 -40 46 -63 57 -53 67
-59 82 -49 15 9 -25 106 -55 134 -11 10 -28 37 -38 60 -9 23 -30 71 -45 107
-45 105 -58 143 -59 179 -1 19 0 33 3 30 14 -14 101 -138 158 -224 65 -99 113
-143 144 -131 32 12 -2 66 -42 66 -16 0 -32 16 -62 63 -59 94 -153 277 -147
287 10 16 29 1 63 -48 137 -198 156 -222 169 -208 4 4 -1 23 -12 41 -120 208
-159 305 -120 305 10 0 27 -23 45 -64 16 -36 40 -75 52 -88 13 -14 31 -39 41
-58 12 -23 21 -30 28 -23 8 8 5 23 -10 49 -33 62 -101 219 -107 251 -4 21 1
36 17 58 197 249 255 401 298 765 14 122 -9 305 -46 375 -6 11 -15 37 -21 58
-9 33 -8 37 8 37 10 0 48 -25 84 -55z m-1872 -23 c-27 -4 -37 2 -27 17 4 8 13
7 28 -1 l22 -13 -23 -3z m-77 9 c7 -12 -31 -24 -47 -15 -8 5 -6 10 8 15 26 10
32 10 39 0z m8163 -158 c-26 -59 -61 -113 -73 -113 -8 0 -15 5 -15 10 0 6 5
10 10 10 6 0 10 7 10 15 0 17 28 65 45 77 13 10 28 10 23 1z m-6648 -115 c29
-40 31 -47 28 -123 l-3 -80 -41 -3 c-77 -6 -128 69 -105 155 11 38 58 93 82
93 5 0 23 -19 39 -42z m6540 -28 c0 -5 -5 -10 -11 -10 -5 0 -7 5 -4 10 3 6 8
10 11 10 2 0 4 -4 4 -10z m-70 -80 c0 -5 -5 -10 -11 -10 -5 0 -7 5 -4 10 3 6
8 10 11 10 2 0 4 -4 4 -10z m-48 -52 c-7 -7 -12 -8 -12 -2 0 14 12 26 19 19 2
-3 -1 -11 -7 -17z m-192 -171 c0 -14 -52 -57 -70 -57 -18 0 -11 15 22 42 37
31 48 34 48 15z m-100 -72 c0 -8 -16 -25 -35 -37 -19 -13 -35 -28 -35 -34 0
-10 -53 -54 -65 -54 -16 0 1 27 43 66 26 24 54 51 62 59 18 19 30 19 30 0z
m-3202 -56 c2 -12 -7 -18 -33 -23 -20 -4 -43 -10 -51 -13 -10 -3 -14 2 -14 19
0 34 8 39 55 36 27 -2 41 -8 43 -19z m78 -60 c4 -8 9 -8 17 0 16 16 35 13 57
-9 19 -19 19 -20 -2 -31 -12 -6 -52 -12 -90 -13 -44 -1 -69 -5 -73 -13 -7 -19
-32 -16 -44 5 -10 16 -10 16 -11 -1 0 -29 -29 -32 -48 -6 -24 34 -21 43 18 51
19 4 51 11 70 16 49 14 98 14 106 1z m2922 -60 c-31 -20 -39 -1 -10 27 16 17
17 17 20 -1 2 -9 -2 -21 -10 -26z m-2703 -34 c0 -17 -7 -20 -55 -22 -63 -2
-120 -12 -135 -23 -5 -4 -36 -11 -68 -14 -31 -4 -87 -16 -125 -27 -84 -24 -82
-24 -82 5 0 31 14 40 39 26 14 -7 22 -7 26 1 4 6 14 8 22 5 9 -4 21 0 27 8 13
16 89 36 148 37 24 0 66 7 93 14 71 19 110 15 110 -10z m2665 18 c-1 -18 -58
-74 -65 -64 -10 17 -27 2 -20 -19 7 -22 -62 -80 -99 -83 -36 -3 -33 16 3 27
17 5 31 12 31 16 0 11 68 80 103 106 34 24 47 29 47 17z m-2472 -68 c73 -42
220 -104 387 -165 167 -61 324 -120 460 -175 44 -17 94 -36 110 -41 l30 -10
-3 -149 c-2 -130 -7 -166 -34 -270 -17 -66 -39 -137 -50 -157 -10 -21 -18 -42
-18 -48 0 -16 -47 -138 -70 -181 -10 -20 -44 -101 -75 -180 -31 -79 -67 -169
-81 -200 -13 -31 -24 -59 -24 -63 0 -9 -102 -247 -148 -347 -97 -208 -279
-422 -506 -596 -90 -69 -257 -164 -346 -197 -274 -102 -492 -157 -720 -181
-85 -9 -175 -17 -200 -17 -93 -3 -531 22 -546 30 -17 10 2 24 141 107 44 26
98 62 120 79 80 63 264 258 322 342 28 39 129 241 137 274 4 14 15 54 26 90
30 107 48 181 60 255 7 39 19 91 27 117 17 52 14 191 -7 413 -20 219 -9 365
40 500 12 33 34 73 48 88 33 35 151 107 176 107 10 0 36 14 58 31 36 29 40 30
52 14 19 -26 50 -15 56 19 5 30 30 49 30 23 0 -7 8 -21 18 -30 14 -13 21 -14
30 -5 7 7 12 17 12 23 0 5 4 16 9 24 7 11 16 6 41 -23 26 -29 35 -34 46 -25 8
6 14 18 14 27 0 26 41 62 71 62 18 0 30 6 34 19 12 39 43 69 68 64 31 -6 45
13 49 67 3 40 6 45 28 45 14 0 31 4 38 8 15 10 16 78 1 110 -9 21 -8 30 10 54
18 24 20 34 11 57 -5 15 -10 29 -10 32 0 12 40 1 78 -21z m-244 -21 c20 -8 59
-71 53 -87 -3 -9 -55 -12 -208 -10 -112 1 -208 -2 -214 -6 -5 -5 -20 -11 -32
-14 -19 -4 -23 -1 -23 17 0 19 10 26 55 41 43 15 58 16 67 7 17 -17 31 -15 24
4 -5 12 -2 15 12 12 11 -3 27 -1 37 5 47 26 191 46 229 31z m613 -15 c15 -6
48 -17 73 -24 43 -13 160 -57 225 -85 17 -8 48 -19 70 -26 22 -6 65 -22 95
-34 30 -12 77 -28 104 -35 43 -12 84 -35 62 -35 -43 0 -404 112 -443 138 -13
8 -42 18 -65 24 -52 11 -178 68 -178 79 0 12 23 11 57 -2z m-1111 -15 c-3 -9
-6 -20 -6 -25 0 -5 -4 -9 -10 -9 -5 0 -10 11 -10 25 0 16 6 25 16 25 11 0 14
-5 10 -16z m3002 -63 c12 -7 12 -12 1 -30 -17 -27 -32 -27 -24 -1 4 11 2 20
-4 20 -6 0 -11 -10 -11 -22 0 -23 -36 -68 -55 -68 -7 0 -20 -9 -30 -20 -10
-11 -25 -20 -33 -20 -7 0 -26 -6 -40 -14 -61 -31 -134 -47 -245 -53 -84 -4
-120 -3 -131 6 -12 10 -21 9 -45 -3 -21 -11 -40 -14 -66 -8 l-37 7 22 20 c20
18 23 19 34 3 11 -15 14 -15 28 -2 10 10 43 17 99 20 113 7 183 21 251 51 34
16 65 24 79 20 16 -4 43 7 96 39 40 26 73 50 73 55 0 11 21 11 38 0z m-2609
-52 c2 -6 -4 -16 -12 -21 -12 -6 -15 -17 -11 -37 7 -33 -13 -46 -49 -32 -50
19 -173 31 -232 22 -67 -10 -91 -1 -75 29 10 19 28 24 160 43 101 15 213 13
219 -4z m1546 -114 c39 -4 111 -8 160 -11 115 -5 167 -15 173 -33 3 -10 -5
-12 -39 -7 -24 3 -100 8 -169 11 -188 6 -263 15 -294 33 -17 10 28 21 64 17
19 -2 67 -7 105 -10z m-1687 -14 c12 -6 22 -19 22 -28 0 -15 -2 -15 -18 0 -21
19 -68 19 -84 0 -6 -7 -17 -13 -24 -13 -8 0 -16 -11 -20 -25 -4 -15 -13 -25
-24 -25 -10 0 -25 -7 -34 -15 -9 -10 -24 -13 -38 -10 -17 4 -30 -1 -46 -17
-12 -13 -48 -50 -79 -83 l-56 -60 6 34 c4 19 16 52 26 75 11 23 28 63 39 89
16 41 27 52 68 72 43 21 61 24 144 21 52 -1 105 -8 118 -15z m-3778 -908 c0
-74 17 -202 41 -303 35 -154 175 -421 311 -597 18 -23 36 -51 40 -63 4 -11 14
-23 23 -26 10 -4 12 -10 7 -18 -5 -6 -15 -28 -22 -49 -10 -31 -14 -36 -26 -26
-11 9 -14 7 -14 -14 0 -34 -26 -93 -45 -100 -8 -4 -15 -16 -15 -27 0 -12 -10
-31 -23 -43 -24 -23 -72 -100 -95 -151 -27 -62 31 -62 62 0 12 22 29 48 38 58
10 9 22 25 27 34 5 9 12 14 16 10 11 -11 -6 -50 -33 -75 -42 -39 -14 -49 39
-14 54 37 80 74 129 188 21 50 44 89 53 91 9 2 26 -9 39 -23 35 -41 217 -197
273 -235 70 -47 131 -109 114 -114 -67 -23 -360 -77 -432 -80 -29 -2 -62 -8
-74 -15 -43 -22 -183 -31 -545 -36 -200 -2 -390 -8 -423 -14 -167 -28 -237
-43 -272 -58 -118 -49 -471 -109 -496 -84 -18 18 -37 13 -37 -9 0 -23 -10 -26
-29 -7 -10 10 -14 9 -21 -4 -8 -13 -39 -16 -217 -17 -139 -1 -231 -7 -278 -16
-38 -9 -112 -19 -164 -23 -110 -10 -120 -5 -122 63 -1 24 -2 57 -3 73 0 16
-10 40 -22 53 -12 13 -31 46 -44 73 -51 115 -67 141 -119 192 -36 35 -51 57
-45 63 19 19 315 160 367 174 448 127 612 204 800 378 51 47 112 112 137 144
59 78 228 257 351 372 79 73 105 92 129 92 16 0 60 12 97 26 37 14 88 31 113
38 59 18 343 166 355 187 4 5 17 9 31 9 23 0 24 -2 24 -77z m-820 -252 c0 -6
-4 -13 -10 -16 -5 -3 -10 1 -10 9 0 9 5 16 10 16 6 0 10 -4 10 -9z m-2508
-711 c72 -59 110 -153 128 -310 6 -58 16 -129 21 -159 7 -36 8 -56 1 -63 -15
-15 -30 -2 -37 35 -4 17 -17 50 -29 72 -12 22 -22 45 -22 50 1 16 -63 136 -93
175 -41 55 -73 174 -58 215 10 24 49 18 89 -15z m248 -259 c0 -6 17 -30 38
-55 68 -84 82 -105 108 -163 14 -32 35 -68 46 -80 19 -21 41 -132 31 -160 -6
-15 13 -105 43 -213 32 -110 43 -230 22 -230 -22 0 -41 27 -73 105 -16 39 -38
86 -50 105 -12 19 -58 109 -104 200 l-82 165 -2 168 c-2 128 1 167 11 167 6 0
12 -4 12 -9z m660 -247 c22 -20 51 -61 66 -92 14 -32 35 -67 46 -79 23 -25 58
-141 58 -191 0 -37 -37 -82 -67 -82 -29 0 -173 -47 -191 -62 -9 -8 -37 -20
-62 -27 -25 -7 -53 -17 -62 -22 -20 -10 -30 4 -47 69 -13 47 -34 204 -32 239
0 12 -4 25 -9 28 -6 3 -10 35 -10 69 0 77 13 96 90 126 30 12 73 30 95 41 57
27 80 24 125 -17z m3440 -83 c0 -12 -20 -25 -27 -18 -7 7 6 27 18 27 5 0 9 -4
9 -9z m-70 -21 c0 -5 -2 -10 -4 -10 -3 0 -8 5 -11 10 -3 6 -1 10 4 10 6 0 11
-4 11 -10z m6948 -71 c-7 -5 -24 -9 -38 -9 -23 1 -24 2 -7 14 10 8 27 11 38 9
16 -5 18 -8 7 -14z m-11000 -91 c11 -24 30 -63 41 -88 12 -25 32 -63 46 -85
14 -22 32 -65 41 -95 9 -30 25 -71 35 -91 21 -41 25 -89 8 -106 -12 -12 -77
27 -115 69 -19 21 -64 121 -86 193 -15 51 -27 219 -16 233 17 20 25 14 46 -30z
m10942 32 c0 -5 -2 -10 -4 -10 -3 0 -8 5 -11 10 -3 6 -1 10 4 10 6 0 11 -4 11
-10z m-4190 -20 c0 -5 -7 -10 -16 -10 -8 0 -12 5 -9 10 3 6 10 10 16 10 5 0 9
-4 9 -10z m1130 -190 c0 -5 -5 -10 -11 -10 -5 0 -7 5 -4 10 3 6 8 10 11 10 2
0 4 -4 4 -10z"/>
<path d="M5850 7809 c-33 -50 -58 -94 -55 -97 8 -9 43 28 68 72 13 23 34 58
46 79 13 20 18 37 13 37 -6 0 -38 -41 -72 -91z"/>
<path d="M5728 7782 c-65 -71 -95 -129 -46 -89 20 16 81 107 76 113 -3 2 -16
-9 -30 -24z"/>
<path d="M7027 7733 c-14 -13 -6 -24 15 -21 27 4 36 28 11 28 -11 0 -23 -3
-26 -7z"/>
<path d="M7120 7450 c0 -5 5 -10 10 -10 6 0 10 5 10 10 0 6 -4 10 -10 10 -5 0
-10 -4 -10 -10z"/>
<path d="M7008 7405 c-10 -13 -18 -28 -18 -33 0 -4 -13 -21 -30 -37 -16 -16
-30 -36 -30 -46 0 -9 -8 -23 -17 -30 -47 -39 -82 -109 -54 -109 9 0 181 261
181 275 0 12 -16 2 -32 -20z"/>
<path d="M6595 7400 c4 -6 11 -8 16 -5 14 9 11 15 -7 15 -8 0 -12 -5 -9 -10z"/>
<path d="M7087 7403 c-10 -9 -9 -23 2 -23 5 0 11 7 15 15 5 15 -5 20 -17 8z"/>
<path d="M7058 7353 c-8 -10 -39 -54 -68 -98 -30 -44 -64 -95 -77 -114 -13
-19 -23 -40 -23 -47 0 -28 19 -13 50 39 17 28 55 92 86 141 51 83 66 118 32
79z"/>
<path d="M5620 6925 c-30 -16 -89 -86 -116 -135 -14 -28 -18 -54 -17 -127 2
-133 29 -188 165 -332 50 -53 83 -99 97 -134 48 -117 182 -143 250 -48 25 34
27 70 6 97 -13 16 -16 17 -25 4 -5 -8 -10 -25 -10 -38 0 -45 -17 -62 -63 -62
-52 0 -102 37 -135 102 -13 23 -59 84 -103 133 -44 50 -89 106 -99 125 -20 39
-40 133 -40 188 0 50 55 147 98 173 l36 21 18 -24 c18 -23 19 -23 33 -4 20 26
19 39 -3 59 -22 20 -58 21 -92 2z"/>
<path d="M5668 6763 c-40 -10 -35 -115 6 -148 13 -11 36 -28 51 -39 24 -16 26
-22 20 -65 -5 -40 -2 -52 24 -93 33 -51 68 -74 121 -80 29 -2 35 0 35 17 0 15
-8 21 -32 25 -17 3 -53 20 -79 38 l-46 33 4 65 4 66 -44 30 c-42 29 -62 60
-62 99 0 15 7 19 34 19 33 0 55 14 39 23 -15 8 -58 14 -75 10z"/>
<path d="M5839 6718 c-1 -7 0 -23 1 -36 1 -13 -8 -48 -20 -78 -22 -53 -22 -55
-5 -74 34 -37 57 -21 34 22 -9 16 -7 26 10 49 25 34 26 60 6 99 -17 32 -24 37
-26 18z"/>
<path d="M6895 6659 c-10 -14 -1 -21 19 -13 9 3 13 10 10 15 -7 12 -21 11 -29
-2z"/>
<path d="M6935 6599 c-66 -49 -59 -69 8 -24 20 14 37 32 37 40 0 19 2 20 -45
-16z"/>
<path d="M6100 6604 c-45 -19 -70 -43 -70 -64 0 -20 26 -34 42 -24 6 4 34 9
62 11 l51 4 -47 -44 c-27 -24 -48 -49 -48 -55 0 -16 30 -30 51 -25 23 6 25
-10 4 -27 -20 -17 -14 -35 11 -35 20 0 24 -23 9 -57 -5 -13 0 -21 19 -29 23
-11 26 -18 26 -63 0 -40 4 -54 20 -64 11 -7 20 -18 20 -26 0 -22 24 -38 38
-24 18 18 14 35 -18 71 -27 31 -28 37 -19 71 12 43 6 56 -27 56 -28 0 -33 27
-6 37 18 7 32 22 32 36 0 4 -14 14 -31 21 l-31 13 22 16 c14 10 20 22 17 31
-7 18 -48 21 -64 5 -13 -13 -36 -2 -27 12 3 5 24 21 45 35 30 19 39 31 37 47
-3 19 -9 22 -55 22 -66 0 -76 11 -24 25 24 6 41 17 41 25 0 19 -35 19 -80 -1z"/>
<path d="M6699 6571 c-22 -18 -22 -20 -6 -26 19 -8 47 10 47 31 0 19 -14 17
-41 -5z"/>
<path d="M7170 6527 c-280 -264 -420 -400 -420 -408 0 -23 28 -2 122 91 55 55
109 102 119 105 10 3 21 15 24 26 4 11 58 62 120 115 76 63 112 100 108 110
-8 21 -13 18 -73 -39z"/>
<path d="M6999 6488 c-172 -146 -344 -321 -334 -338 4 -6 58 42 128 111 67 67
164 158 215 201 50 44 90 84 86 89 -3 5 -7 9 -8 9 -2 0 -41 -32 -87 -72z"/>
<path d="M6753 6528 c-55 -41 -154 -146 -144 -152 11 -7 155 124 172 156 13
23 9 23 -28 -4z"/>
<path d="M6724 6413 c-139 -125 -158 -147 -126 -141 20 3 272 235 272 250 0
19 -24 1 -146 -109z"/>
<path d="M6855 6432 c-38 -37 -113 -106 -165 -154 -77 -71 -92 -88 -77 -94 13
-5 28 4 55 32 21 22 90 90 155 153 108 105 130 131 110 131 -5 0 -39 -31 -78
-68z"/>
<path d="M7048 6254 c-126 -124 -228 -233 -228 -242 0 -9 93 77 208 191 114
113 219 216 235 227 25 20 37 50 20 50 -5 0 -110 -102 -235 -226z"/>
<path d="M7010 5895 c-7 -9 -10 -18 -7 -22 8 -7 37 15 37 28 0 14 -16 11 -30
-6z"/>
<path d="M6331 5543 c14 -16 129 -73 149 -73 5 0 10 7 10 15 0 16 -120 75
-153 75 -17 0 -18 -2 -6 -17z"/>
<path d="M4799 5019 c-9 -17 -7 -25 12 -45 24 -25 59 -32 59 -11 0 18 -38 77
-50 77 -5 0 -14 -9 -21 -21z"/>
<path d="M5525 4190 c-3 -5 1 -10 9 -10 9 0 16 5 16 10 0 6 -4 10 -9 10 -6 0
-13 -4 -16 -10z"/>
<path d="M5582 4178 c-18 -18 -15 -26 21 -44 17 -9 50 -32 71 -51 45 -38 66
-31 44 14 -11 24 -98 93 -117 93 -4 0 -12 -5 -19 -12z"/>
<path d="M5520 4070 c0 -10 12 -27 26 -37 14 -10 46 -33 71 -51 34 -25 48 -31
57 -22 8 8 -5 26 -51 71 -63 61 -103 76 -103 39z"/>
<path d="M4970 4034 c-73 -31 -142 -125 -156 -212 -9 -59 23 -125 75 -151 49
-26 62 -26 126 -3 56 20 82 52 115 140 38 102 23 182 -43 222 -38 24 -70 25
-117 4z m103 -62 c32 -32 32 -83 2 -151 -44 -97 -123 -154 -164 -117 -31 28
-44 91 -31 147 14 55 60 125 93 139 29 13 78 4 100 -18z"/>
<path d="M5470 3940 c0 -12 150 -83 158 -75 8 8 -39 55 -70 71 -31 16 -88 19
-88 4z"/>
<path d="M5422 3818 c2 -15 13 -25 33 -31 17 -5 43 -15 58 -23 36 -18 57 -18
57 -1 0 17 -45 50 -89 65 -50 18 -63 15 -59 -10z"/>
<path d="M4620 3666 c0 -29 56 -147 102 -214 16 -23 35 -64 42 -90 13 -50 62
-122 84 -122 6 0 12 4 12 9 0 16 -58 136 -78 161 -10 14 -40 70 -66 125 -26
55 -53 111 -59 124 -17 35 -37 38 -37 7z"/>
<path d="M4398 3487 c-20 -17 -52 -57 -72 -88 -33 -54 -34 -58 -26 -121 9 -72
30 -122 59 -138 72 -38 184 17 233 115 59 118 25 210 -66 176 -40 -16 -32 -47
12 -43 21 2 32 -1 33 -10 3 -29 -4 -64 -13 -75 -6 -7 -7 -13 -4 -13 14 0 -28
-59 -46 -63 -10 -3 -18 -12 -18 -21 0 -9 -12 -19 -26 -22 -69 -17 -108 53 -80
145 17 58 55 130 80 151 9 7 16 19 16 26 0 25 -44 15 -82 -19z"/>
<path d="M4026 3129 c-37 -29 -66 -90 -66 -139 0 -32 6 -47 27 -66 28 -26 60
-38 89 -32 26 5 74 70 81 111 18 114 -56 185 -131 126z m62 -96 c2 -27 -3 -51
-14 -69 -16 -23 -19 -24 -30 -10 -12 17 -12 95 1 116 16 26 40 5 43 -37z"/>
<path d="M3722 2939 c-28 -10 -69 -64 -77 -99 -5 -24 -1 -40 19 -71 22 -33 32
-39 61 -39 57 0 94 50 97 130 2 68 -40 101 -100 79z m38 -103 c0 -8 -7 -16
-15 -20 -15 -5 -21 14 -8 27 11 12 23 8 23 -7z"/>
<path d="M3395 2705 c-37 -37 -45 -77 -25 -116 9 -15 22 -19 69 -19 64 0 72 6
90 61 14 44 1 81 -36 98 -39 18 -60 13 -98 -24z"/>
<path d="M3172 2540 c-18 -16 -36 -30 -42 -30 -5 0 -10 -9 -10 -20 0 -26 28
-40 59 -29 14 6 43 9 65 7 36 -3 41 0 50 24 7 20 5 33 -8 52 -24 37 -73 36
-114 -4z"/>
<path d="M835 5678 c-42 -41 -45 -48 -71 -163 -32 -147 -37 -256 -12 -282 29
-28 37 -6 43 122 6 128 13 149 89 280 19 33 35 66 36 73 1 26 -43 10 -85 -30z"/>
<path d="M9028 5973 c-43 -2 -78 -8 -78 -12 0 -17 26 -19 120 -10 52 5 133 7
179 3 69 -5 83 -4 79 7 -5 15 -132 19 -300 12z"/>
<path d="M9120 5808 c0 -5 29 -8 65 -8 36 0 65 3 65 8 0 4 -29 7 -65 7 -36 0
-65 -3 -65 -7z"/>
<path d="M5740 2418 c0 -7 19 -21 43 -30 82 -34 108 -16 29 20 -55 25 -72 27
-72 10z"/>
<path d="M4893 2254 c-4 -10 0 -20 12 -27 18 -9 18 -10 0 -23 -17 -13 -16 -14
7 -23 32 -12 90 -80 130 -151 17 -30 40 -65 51 -77 11 -12 17 -29 13 -38 -6
-16 92 -158 140 -202 30 -27 33 -48 5 -33 -11 5 -25 10 -31 10 -25 0 -2 -29
73 -94 79 -70 115 -82 109 -38 -2 13 2 29 8 37 9 11 6 25 -13 62 -14 26 -31
70 -39 98 -12 42 -23 56 -72 94 -32 25 -67 59 -77 76 -11 18 -42 51 -69 74
-28 24 -67 69 -88 101 -34 53 -117 149 -142 165 -5 3 -13 -1 -17 -11z"/>
<path d="M5802 2258 c3 -7 20 -14 39 -16 l34 -2 -25 15 c-31 18 -53 19 -48 3z"/>
<path d="M5955 2210 c-9 -15 -1 -23 21 -18 15 3 16 4 1 16 -11 9 -17 10 -22 2z"/>
<path d="M6357 1773 c-4 -3 -7 -22 -7 -42 0 -46 -41 -134 -85 -183 -19 -21
-35 -48 -35 -61 0 -28 32 -98 51 -113 20 -16 267 -40 280 -27 21 21 -21 34
-123 37 -138 5 -170 19 -110 50 17 9 34 11 42 6 16 -10 50 5 50 22 0 6 -7 19
-16 29 -14 15 -12 22 21 74 28 42 35 63 30 82 -5 23 -7 24 -23 10 -10 -9 -24
-33 -31 -54 -14 -40 -27 -53 -50 -53 -12 0 -11 3 1 18 46 52 78 155 59 191
-11 20 -41 28 -54 14z"/>
<path d="M5530 1445 c0 -8 19 -27 41 -42 23 -16 53 -36 68 -45 28 -19 61 -24
61 -9 0 13 -137 111 -155 111 -8 0 -15 -7 -15 -15z"/>
<path d="M6830 1040 c-14 -4 -52 -8 -85 -9 -52 -1 -57 -3 -45 -15 23 -22 219
2 205 25 -7 11 -40 10 -75 -1z"/>
<path d="M6572 1021 c-11 -6 -10 -9 3 -15 28 -10 57 -7 53 7 -6 15 -38 20 -56
8z"/>
<path d="M9135 3624 c-33 -24 -90 -63 -126 -88 -37 -24 -70 -49 -73 -55 -4 -6
-14 -11 -23 -11 -21 0 -144 -81 -138 -90 9 -15 133 36 227 93 93 55 205 162
196 186 -1 5 -30 -11 -63 -35z"/>
<path d="M9315 3544 c-73 -68 -277 -204 -306 -204 -7 0 -22 -9 -33 -19 -12
-10 -99 -58 -193 -107 -161 -81 -190 -102 -162 -119 19 -12 346 158 519 270
75 48 244 196 254 221 11 29 -21 11 -79 -42z"/>
<path d="M9445 3483 c-16 -9 -50 -32 -74 -52 -52 -43 -87 -67 -121 -81 -14 -6
-29 -17 -35 -24 -5 -6 -41 -35 -80 -63 -38 -28 -81 -63 -96 -76 -14 -14 -56
-42 -95 -63 -38 -21 -103 -61 -145 -89 -41 -27 -91 -58 -110 -69 -19 -10 -29
-21 -21 -23 12 -5 57 18 277 142 238 134 545 360 545 402 0 16 -6 15 -45 -4z"/>
<path d="M9570 3347 c-25 -18 -76 -57 -115 -87 -38 -31 -104 -80 -145 -110
-81 -58 -425 -272 -477 -295 -32 -15 -49 -32 -40 -41 5 -6 277 130 317 159 13
9 30 17 37 17 13 0 99 56 108 71 4 5 13 9 22 9 9 0 25 9 37 21 12 11 48 41 81
66 97 72 235 196 235 210 0 19 -10 16 -60 -20z"/>
<path d="M9575 3150 c-55 -44 -103 -80 -107 -80 -4 0 -30 -22 -58 -49 -28 -27
-90 -72 -138 -99 -48 -28 -105 -63 -127 -78 -22 -15 -96 -56 -165 -92 -153
-78 -209 -113 -210 -129 0 -19 5 -17 104 31 50 24 143 69 206 99 116 56 260
145 315 196 17 15 46 38 65 51 55 38 230 202 230 217 0 7 -4 13 -8 13 -4 0
-53 -36 -107 -80z"/>
<path d="M9535 2895 c-48 -47 -109 -98 -134 -112 -25 -15 -66 -47 -91 -73 -30
-30 -86 -67 -165 -109 -66 -34 -147 -77 -180 -94 -33 -18 -97 -47 -143 -66
-97 -39 -144 -73 -125 -92 10 -10 16 -9 30 3 24 21 88 52 138 68 49 15 119 47
165 75 19 12 87 50 150 85 135 74 192 114 319 229 146 131 178 171 136 171 -6
0 -51 -38 -100 -85z"/>
<path d="M9500 2716 c-50 -48 -280 -193 -385 -243 -16 -8 -37 -18 -45 -24 -8
-5 -55 -30 -105 -55 -97 -50 -179 -103 -172 -111 5 -4 167 57 232 88 73 36
169 90 234 132 42 27 66 37 69 29 5 -17 22 -15 22 2 0 15 9 23 130 115 38 30
70 60 70 67 0 18 -32 18 -50 0z"/>
<path d="M9390 2515 c-30 -19 -62 -38 -70 -41 -8 -4 -23 -14 -32 -22 -15 -13
-18 -13 -18 -1 -1 8 -8 2 -16 -13 -8 -16 -21 -28 -28 -28 -7 0 -19 -7 -26 -15
-6 -8 -15 -14 -18 -13 -4 1 -17 -3 -28 -10 -12 -6 -24 -8 -28 -4 -4 3 -10 2
-14 -4 -21 -31 -168 -99 -309 -144 -49 -15 -78 -42 -69 -65 5 -13 18 -9 83 23
43 22 110 51 148 67 39 15 74 31 80 36 5 5 21 9 36 9 15 0 31 5 34 10 8 14 82
60 94 60 6 0 21 11 35 25 14 14 32 25 40 25 14 0 85 47 144 96 47 39 19 45
-38 9z"/>
<path d="M9294 2367 c-53 -43 -138 -94 -179 -107 -22 -7 -47 -18 -55 -24 -22
-18 -150 -74 -206 -91 -61 -18 -93 -39 -73 -47 20 -8 226 61 319 105 117 56
263 151 264 172 2 20 -42 15 -70 -8z"/>
<path d="M9234 2229 c-17 -5 -36 -20 -44 -34 -9 -18 -53 -45 -146 -90 -73 -35
-152 -72 -176 -81 -24 -10 -50 -23 -58 -29 -8 -7 -28 -17 -45 -22 -51 -18
-160 -89 -163 -108 -4 -20 11 -19 112 10 32 9 69 14 81 11 14 -4 28 0 36 10 7
9 36 26 64 39 27 13 78 45 113 71 151 116 162 123 195 118 43 -6 54 3 71 58
16 53 10 60 -40 47z"/>
<path d="M9175 2088 c-34 -18 -65 -51 -65 -67 0 -25 -198 -147 -367 -227 -84
-40 -174 -84 -200 -99 -27 -15 -77 -38 -113 -51 -73 -28 -110 -50 -110 -64 0
-19 31 -10 128 39 53 26 115 54 137 61 22 7 112 48 200 92 196 98 166 81 275
156 50 34 102 62 115 62 13 0 36 10 51 23 22 19 25 28 19 55 -7 35 -31 42 -70
20z"/>
<path d="M8720 2080 c0 -5 7 -10 15 -10 8 0 15 5 15 10 0 6 -7 10 -15 10 -8 0
-15 -4 -15 -10z"/>
<path d="M9113 1889 c-19 -20 -46 -34 -70 -38 -29 -5 -41 -13 -52 -36 -15 -33
-19 -36 -100 -81 -179 -100 -186 -104 -229 -104 -36 0 -44 -4 -52 -24 -6 -18
-38 -38 -113 -75 -58 -28 -109 -51 -114 -51 -12 0 -43 -33 -43 -45 0 -14 62 5
109 33 25 15 127 66 226 112 99 47 226 115 282 152 103 68 203 154 203 176 0
20 -14 14 -47 -19z"/>
<path d="M10790 3540 c0 -5 5 -10 10 -10 6 0 10 5 10 10 0 6 -4 10 -10 10 -5
0 -10 -4 -10 -10z"/>
<path d="M4492 2128 c-11 -14 -58 -106 -117 -233 -21 -44 -46 -91 -55 -105
-47 -70 -160 -281 -155 -290 15 -24 36 -3 112 113 74 111 193 337 193 366 0 6
10 11 23 11 17 0 19 2 8 9 -12 8 -11 17 7 61 12 29 22 59 22 66 0 17 -24 18
-38 2z"/>
<path d="M4485 1878 c-43 -95 -95 -200 -116 -232 -22 -33 -39 -64 -39 -68 0
-4 -6 -8 -14 -8 -8 0 -18 -10 -22 -22 -4 -13 -18 -36 -31 -52 -18 -22 -21 -31
-12 -42 26 -31 71 -2 111 71 9 17 46 84 83 150 76 137 87 161 122 269 21 67
23 81 11 93 -12 12 -25 -11 -93 -159z"/>
<path d="M4643 1780 c-29 -37 -53 -73 -53 -79 0 -6 -42 -74 -94 -152 -84 -125
-104 -169 -76 -169 16 0 70 52 100 96 16 24 43 63 59 87 37 54 141 256 141
274 0 29 -28 9 -77 -57z"/>
<path d="M4808 1743 c-9 -10 -45 -58 -81 -108 -36 -49 -74 -99 -85 -110 -40
-42 -102 -133 -102 -148 0 -10 6 -17 14 -17 25 0 76 35 76 52 0 16 66 78 83
78 4 0 0 -13 -10 -30 -9 -17 -26 -30 -36 -30 -13 0 -17 -5 -14 -14 3 -8 -3
-26 -15 -41 -21 -26 -19 -55 4 -55 8 0 48 35 90 78 57 56 79 86 84 112 4 19
15 44 25 55 18 21 59 125 59 152 0 8 -16 21 -35 29 -42 17 -39 18 -57 -3z m42
-43 c0 -11 -7 -20 -15 -20 -13 0 -14 4 -5 20 6 11 13 20 15 20 3 0 5 -9 5 -20z
m-38 -76 c-3 -15 -22 -44 -43 -65 -22 -22 -39 -43 -39 -49 0 -5 -4 -10 -10
-10 -20 0 -9 24 35 78 25 30 45 61 45 69 0 8 4 12 9 9 4 -3 6 -18 3 -32z"/>
<path d="M4932 1600 c-16 -22 -32 -37 -35 -33 -4 3 -7 -5 -7 -20 0 -18 -11
-34 -35 -53 -22 -17 -39 -40 -45 -65 -6 -21 -15 -41 -20 -44 -6 -3 -10 -14
-10 -24 0 -9 -14 -36 -31 -59 -32 -43 -31 -62 2 -62 12 0 34 24 65 70 26 39
53 70 60 70 8 0 14 15 16 38 2 30 7 38 26 40 17 3 22 10 22 32 0 16 9 52 20
80 11 28 20 55 20 60 0 21 -19 8 -48 -30z"/>
<path d="M5128 1343 c-20 -43 -53 -97 -73 -120 -34 -40 -39 -63 -12 -63 33 1
127 120 127 160 0 11 6 36 14 55 8 18 12 36 8 39 -16 16 -31 -1 -64 -71z"/>
<path d="M9074 1101 c-27 -41 -48 -51 -58 -28 -4 8 -9 7 -18 -7 -7 -10 -25
-34 -40 -53 -31 -40 -35 -53 -15 -53 8 0 19 12 25 26 7 14 17 22 22 19 6 -4 5
-16 -4 -33 -17 -35 -27 -100 -16 -107 5 -3 20 12 34 33 13 21 34 45 47 54 24
16 24 16 4 31 -20 15 -19 17 22 59 42 43 59 87 36 95 -6 2 -24 -14 -39 -36z"/>
<path d="M8788 1033 c-8 -10 -25 -32 -37 -50 l-22 -32 30 -16 c17 -8 36 -15
43 -15 14 0 70 115 60 124 -12 13 -60 5 -74 -11z"/>
<path d="M8702 990 c-18 -37 -18 -40 -2 -40 17 0 40 38 40 65 0 27 -18 15 -38
-25z"/>
<path d="M8891 1011 c-17 -13 -22 -24 -17 -38 4 -14 2 -23 -8 -26 -8 -3 -23
-18 -32 -32 -13 -20 -14 -29 -5 -38 9 -9 20 -2 47 28 36 41 48 69 42 104 -3
20 -4 20 -27 2z"/>
<path d="M9097 1014 c-13 -13 -7 -24 14 -24 11 0 19 5 17 12 -5 14 -22 21 -31
12z"/>
<path d="M9332 978 c-7 -7 -12 -22 -12 -33 0 -12 -11 -32 -25 -45 -28 -27 -33
-50 -9 -50 26 0 54 20 54 38 0 10 7 27 15 38 15 18 15 18 9 -7 -8 -37 12 -46
42 -18 31 29 29 65 -4 61 -13 -2 -25 3 -28 12 -7 19 -25 21 -42 4z"/>
<path d="M9740 853 c-38 -32 -29 -47 16 -28 40 17 45 5 7 -20 -25 -17 -25 -19
-8 -31 11 -8 16 -21 12 -33 -3 -11 2 -26 12 -34 20 -17 155 -51 194 -49 15 1
41 -5 58 -14 17 -8 33 -13 36 -10 3 3 21 -1 40 -9 20 -8 48 -15 63 -15 15 0
41 -7 56 -15 16 -8 37 -15 46 -15 10 0 38 -5 62 -12 38 -10 50 -9 86 7 27 12
40 24 38 34 -4 16 -15 17 -58 5 l-25 -7 24 26 c24 26 22 47 -5 47 -8 0 -36
-11 -62 -25 -50 -27 -72 -31 -72 -15 0 6 8 10 18 10 23 0 42 19 42 42 0 26
-26 22 -88 -13 -63 -36 -105 -33 -51 4 38 25 52 67 23 67 -10 0 -33 -14 -50
-31 -21 -21 -38 -29 -49 -25 -15 5 -14 9 4 32 34 43 4 61 -40 24 -49 -43 -90
-63 -102 -51 -8 8 -9 14 -1 19 38 25 84 66 84 73 0 15 -47 10 -60 -6 -6 -8
-31 -26 -55 -40 -74 -43 -103 -29 -40 19 39 30 47 66 16 66 -11 0 -23 5 -26
10 -3 6 -19 10 -35 10 -16 0 -31 4 -34 9 -13 21 -48 18 -76 -6z"/>
<path d="M9515 830 c-4 -12 -1 -28 5 -36 11 -12 14 -12 26 3 7 10 14 26 14 36
0 24 -37 22 -45 -3z"/>
<path d="M5458 649 c-34 -20 -16 -49 31 -49 9 0 26 6 36 14 40 29 -23 61 -67
35z"/>
<path d="M6215 649 c-27 -5 -87 -18 -133 -30 -73 -18 -89 -19 -138 -8 -30 7
-57 16 -60 21 -3 4 -28 8 -55 8 -42 0 -50 -3 -47 -17 2 -12 27 -21 88 -35 137
-30 164 -32 217 -15 104 34 207 47 381 48 94 1 172 5 172 9 0 27 -301 41 -425
19z"/>
<path d="M5576 641 c-4 -6 -4 -15 -1 -21 8 -13 152 -13 160 1 11 16 4 19 -77
25 -52 5 -77 3 -82 -5z"/>
<path d="M10465 571 c-16 -3 -29 -10 -27 -14 1 -4 2 -11 2 -17 0 -17 80 -12
87 6 5 14 -13 36 -27 33 -3 -1 -18 -4 -35 -8z"/>
<path d="M10570 505 c0 -9 6 -12 15 -9 8 4 15 10 15 15 0 5 -7 9 -15 9 -8 0
-15 -7 -15 -15z"/>
<path d="M12471 230 c-45 -10 -91 -34 -91 -49 0 -29 206 -21 243 10 15 12 19
21 12 28 -15 15 -113 21 -164 11z"/>
</g>
</svg>
