<?xml version="1.0" standalone="no"?>
<!DOCTYPE svg PUBLIC "-//W3C//DTD SVG 20010904//EN"
 "http://www.w3.org/TR/2001/REC-SVG-20010904/DTD/svg10.dtd">
<svg version="1.0" xmlns="http://www.w3.org/2000/svg"
 width="1280.000000pt" height="732.000000pt" viewBox="0 0 1280.000000 732.000000"
 preserveAspectRatio="xMidYMid meet">
<metadata>
Created by potrace 1.15, written by Peter Selinger 2001-2017
</metadata>
<g transform="translate(0.000000,732.000000) scale(0.100000,-0.100000)"
fill="#000000" stroke="none">
<path d="M8273 7304 c-3 -8 -1 -25 5 -37 30 -63 21 -74 -22 -26 -21 24 -34 30
-59 27 -31 -3 -32 -5 -35 -52 -3 -41 -6 -47 -21 -43 -10 2 -25 0 -34 -5 -14
-7 -14 -13 -2 -56 27 -87 19 -90 -62 -32 -82 58 -120 54 -78 -8 14 -20 23 -37
22 -38 -1 -1 -22 3 -45 9 -47 12 -62 3 -62 -37 0 -11 -9 -29 -19 -40 -18 -19
-19 -27 -9 -99 11 -89 8 -104 -24 -109 -32 -4 -37 -56 -8 -83 20 -18 27 -45
12 -45 -5 0 -14 -12 -21 -27 -19 -42 20 -74 109 -89 60 -10 86 -22 176 -81 59
-37 127 -86 152 -108 40 -36 44 -43 33 -62 -20 -39 -12 -58 54 -126 35 -36 76
-86 91 -109 14 -24 37 -54 49 -68 13 -14 26 -36 30 -50 4 -14 13 -32 20 -40 7
-8 21 -32 31 -52 11 -20 49 -81 85 -135 36 -54 80 -125 99 -158 153 -273 333
-540 542 -804 79 -99 160 -191 168 -191 5 0 17 -16 26 -35 9 -20 38 -54 63
-78 26 -23 107 -106 180 -185 l133 -143 -42 -152 c-24 -84 -47 -175 -51 -204
-5 -29 -14 -64 -19 -78 -6 -15 -10 -41 -10 -58 0 -18 -7 -54 -15 -81 -19 -62
-19 -234 -1 -336 7 -41 28 -106 46 -145 82 -179 110 -256 116 -324 4 -38 4
-81 0 -95 -4 -15 -38 -61 -76 -102 -83 -90 -150 -185 -150 -214 0 -11 -11 -42
-24 -68 -13 -26 -36 -83 -51 -127 -44 -128 -65 -177 -96 -226 -16 -25 -39 -77
-51 -115 -11 -38 -36 -93 -55 -122 -18 -29 -44 -74 -57 -100 -35 -71 -44 -85
-147 -242 -123 -186 -129 -197 -122 -246 4 -34 -5 -58 -74 -194 -44 -85 -96
-195 -117 -245 -21 -49 -47 -108 -57 -131 -31 -63 -158 -199 -225 -241 -117
-72 -113 -71 -251 -71 -71 0 -195 -5 -278 -12 -82 -6 -215 -9 -295 -7 -80 3
-188 7 -240 8 -103 2 -258 -15 -273 -30 -5 -5 -7 -20 -4 -33 l6 -23 343 1
c189 1 355 2 371 3 15 1 33 1 40 1 6 -1 32 1 57 4 25 3 123 8 219 11 143 4
178 2 203 -11 33 -17 129 -13 248 11 64 14 65 13 92 -12 32 -30 55 -25 83 20
19 29 24 32 70 30 28 -1 187 -8 355 -17 340 -16 847 -14 994 4 91 12 654 9
791 -3 58 -5 222 2 510 22 165 12 378 21 525 23 113 1 150 13 150 48 0 27 -43
43 -92 35 -30 -5 -38 -4 -38 8 0 33 -30 41 -158 42 -361 3 -354 3 -350 28 2
15 34 43 110 94 91 60 114 71 150 71 26 0 61 10 89 25 90 47 90 47 105 168 7
49 -8 112 -33 140 -21 24 -53 119 -53 156 0 18 6 36 14 40 32 19 34 46 16 163
-10 63 -23 153 -29 200 -17 118 -48 276 -60 297 -6 10 -15 52 -20 93 -12 96
-47 252 -68 310 -29 78 -153 363 -178 407 l-23 42 30 48 c17 26 39 57 49 68
10 12 29 41 42 65 13 25 73 135 133 245 96 175 117 223 166 375 58 181 66 209
75 273 3 20 9 40 14 43 5 3 9 18 9 33 0 21 6 30 23 35 36 9 60 7 92 -10 32
-17 235 -53 298 -54 51 0 101 24 154 75 52 50 55 80 19 176 -13 35 -27 84 -31
108 -5 30 -19 57 -44 85 -21 23 -48 57 -61 76 -13 19 -77 86 -141 147 -172
166 -237 291 -259 497 -5 50 -13 109 -16 131 -4 22 -7 128 -9 235 -1 107 -7
209 -12 227 -13 38 -9 43 34 43 29 0 33 3 33 25 0 19 5 25 21 25 30 0 97 58
111 97 7 19 26 42 45 53 38 22 43 51 13 71 -19 13 -19 16 -5 63 12 40 13 57 4
85 -11 31 -9 36 10 52 25 21 26 32 5 64 -13 19 -14 33 -6 69 11 53 1 121 -21
144 -11 10 -36 16 -79 16 -63 1 -66 3 -52 40 6 17 4 18 -27 12 -90 -18 -99
-18 -99 -4 0 8 12 20 28 27 50 23 92 56 92 73 0 22 -47 35 -71 20 -17 -11 -18
-9 -14 16 7 35 -26 75 -60 75 -19 0 -25 5 -25 22 0 29 -20 46 -47 39 -12 -3
-30 -1 -41 5 -29 16 -50 -10 -86 -103 -22 -57 -33 -76 -47 -76 -24 0 -24 6 1
37 11 14 20 36 20 48 0 29 -31 43 -45 20 -5 -9 -20 -31 -32 -48 l-23 -31 0 46
c0 26 5 59 10 73 7 18 7 33 -1 46 -14 27 -30 20 -49 -19 -9 -18 -31 -40 -50
-50 -28 -13 -38 -27 -49 -64 l-14 -46 -76 4 c-124 7 -244 25 -273 40 -14 8
-31 14 -38 14 -7 0 -56 25 -111 56 l-98 56 -36 -29 c-41 -33 -70 -90 -92 -182
-8 -36 -20 -82 -25 -101 -12 -39 -136 -188 -227 -272 -33 -31 -61 -60 -61 -66
0 -5 20 -54 44 -108 49 -110 48 -117 -18 -135 -106 -29 -106 -29 -106 -59 0
-15 7 -43 15 -63 11 -28 12 -37 2 -45 -9 -8 -35 3 -94 41 -45 29 -113 71 -150
94 -71 43 -236 163 -361 261 -40 31 -87 67 -104 79 -45 33 -205 180 -270 248
-32 33 -58 56 -58 50 0 -5 -6 2 -14 17 -8 15 -50 71 -93 125 -43 54 -95 123
-116 154 -75 112 -369 363 -527 450 l-92 51 -38 -26 c-46 -30 -37 -41 -100
117 -58 146 -121 197 -106 86 6 -43 4 -49 -11 -49 -11 0 -27 14 -37 31 -28 48
-94 109 -116 109 -11 0 -23 -7 -27 -16z m5 -141 c27 -27 58 -61 69 -78 30 -42
37 -27 19 36 -19 64 -20 59 1 59 10 0 44 -26 76 -57 l58 -58 -3 45 c-5 68 21
59 47 -15 12 -33 29 -74 38 -92 9 -18 17 -41 17 -53 0 -19 -137 -280 -147
-280 -7 0 -146 93 -158 106 -5 5 -32 28 -60 49 -60 48 -185 172 -185 185 0 21
20 17 58 -11 52 -38 66 -31 46 23 -7 22 -14 47 -14 54 0 27 28 13 54 -26 26
-40 46 -51 46 -27 0 8 -9 49 -20 92 -29 112 -17 121 58 48z m542 -222 c104
-61 170 -114 339 -275 77 -73 214 -228 300 -339 89 -116 282 -308 411 -411 52
-41 126 -101 164 -133 87 -73 243 -184 321 -230 33 -19 74 -46 92 -59 18 -13
78 -51 135 -83 66 -38 128 -83 173 -128 60 -57 84 -74 160 -104 185 -74 395
-75 602 -4 57 20 108 33 113 30 17 -10 11 -40 -15 -75 -14 -19 -25 -44 -25
-56 0 -12 -11 -29 -24 -38 -14 -9 -67 -59 -118 -112 -51 -53 -103 -100 -116
-105 -12 -5 -30 -24 -39 -44 -20 -43 -35 -44 -82 -5 -47 39 -48 41 -70 70 -11
14 -23 21 -28 17 -4 -5 -8 -48 -8 -95 l0 -87 -43 -15 c-53 -18 -54 -45 -2 -44
19 0 43 4 53 8 12 6 17 4 17 -7 0 -9 -9 -19 -21 -22 -31 -10 -20 -40 14 -38
22 1 28 -3 33 -25 3 -15 9 -35 15 -44 30 -56 -7 -62 -101 -17 -36 17 -85 39
-110 49 -125 50 -223 96 -311 146 -131 74 -142 66 -89 -64 37 -92 33 -106 -23
-86 -23 8 -59 26 -80 40 -21 14 -59 37 -85 51 -148 83 -410 286 -565 438 -176
172 -308 322 -552 625 -24 30 -73 91 -109 135 -36 44 -106 141 -157 215 -51
74 -110 157 -132 183 -68 82 -77 107 -61 174 7 32 20 104 29 161 9 57 27 129
41 160 22 50 23 57 10 71 -14 13 -18 8 -42 -45 -14 -32 -36 -70 -49 -84 -17
-19 -24 -41 -28 -95 -3 -38 -11 -86 -18 -105 -7 -19 -14 -42 -16 -50 -5 -17
-65 45 -90 95 -9 17 -30 48 -47 70 -18 22 -41 54 -51 72 -18 31 -18 33 1 75
23 51 123 207 168 259 26 32 33 36 46 25 8 -7 40 -27 70 -45z m-727 -45 c82
-84 171 -154 269 -212 74 -43 79 -53 54 -120 -42 -114 -87 -209 -100 -212 -8
-2 -42 24 -77 58 -34 33 -94 80 -133 103 -62 36 -79 42 -139 44 -37 1 -76 5
-88 8 -26 9 -21 40 8 40 34 0 37 12 8 31 -29 19 -59 69 -50 84 4 6 17 7 30 4
37 -9 49 4 30 32 -27 42 6 62 40 24 19 -20 35 -26 35 -12 0 4 -16 32 -35 62
-19 30 -35 60 -35 67 0 27 38 11 69 -28 24 -29 36 -38 44 -30 8 8 5 19 -11 38
-60 76 -63 93 -15 93 18 0 45 -20 96 -74z m458 -383 c29 -38 76 -94 103 -126
28 -32 73 -91 100 -131 71 -101 182 -252 306 -412 58 -75 126 -167 152 -206
26 -38 71 -97 100 -131 82 -97 312 -358 347 -396 17 -18 31 -36 31 -40 0 -10
288 -274 354 -324 64 -49 65 -32 -11 -207 -30 -69 -59 -138 -65 -155 -6 -16
-22 -58 -35 -93 -12 -34 -23 -72 -23 -85 -1 -31 -24 -59 -43 -51 -9 3 -55 49
-102 101 -48 52 -101 108 -120 124 -46 41 -261 279 -299 332 -16 23 -49 64
-73 90 -53 60 -264 371 -313 459 -19 35 -96 163 -318 528 -51 85 -107 183
-123 217 l-30 62 16 58 c10 32 25 83 35 114 19 63 12 97 -13 58 -8 -13 -28
-57 -43 -97 -18 -48 -33 -72 -42 -70 -8 2 -30 33 -50 69 l-36 65 39 105 c52
140 83 209 93 209 5 0 33 -30 63 -67z m2647 -102 c83 -41 172 -74 212 -77 56
-5 378 -36 423 -41 39 -4 52 -11 73 -39 15 -19 31 -34 37 -34 5 0 25 12 44 26
l34 25 37 -18 c20 -10 36 -22 35 -28 -1 -5 -30 -19 -64 -30 -81 -26 -93 -51
-20 -42 70 8 66 -10 -12 -49 -49 -24 -63 -36 -65 -57 -2 -14 -10 -31 -18 -37
-8 -7 -14 -21 -14 -32 0 -11 -5 -29 -11 -40 -15 -28 0 -40 39 -29 29 9 37 6
67 -21 l35 -30 -20 -25 c-11 -14 -20 -31 -20 -38 0 -6 -9 -20 -20 -30 -16 -15
-19 -26 -14 -54 7 -33 6 -35 -9 -22 -19 15 -47 8 -47 -13 0 -7 7 -16 15 -20
27 -10 17 -36 -14 -36 -35 0 -88 -41 -77 -59 5 -7 20 -9 40 -6 46 9 65 -15 42
-50 -17 -25 -17 -26 19 -40 19 -9 35 -21 35 -29 0 -20 -86 -58 -265 -119 -181
-62 -249 -58 -565 30 -76 21 -184 42 -189 37 -2 -2 -6 -29 -9 -59 -5 -61 -28
-80 -61 -51 -10 9 -21 16 -25 16 -4 0 -41 29 -81 64 -41 35 -83 67 -94 71 -15
4 -21 15 -21 33 0 35 9 48 41 55 15 4 50 23 79 43 58 40 67 41 153 30 48 -7
57 -6 57 7 0 11 -17 19 -57 27 -41 9 -65 21 -86 43 -27 29 -28 34 -22 91 5 44
2 73 -9 105 -9 24 -16 53 -16 65 0 17 82 130 135 185 19 19 39 2 71 -62 l25
-49 -36 -96 c-21 -53 -43 -111 -50 -128 -7 -17 -10 -37 -5 -44 10 -17 40 -6
40 15 0 8 19 52 41 98 23 45 52 109 65 143 l23 61 -27 26 c-23 24 -27 36 -28
98 -1 39 -7 76 -13 82 -14 14 -15 104 -1 112 6 3 10 15 10 26 0 17 51 59 73
59 4 0 42 -17 85 -39z m1002 -345 c0 -19 -29 -48 -41 -41 -10 7 -12 39 -2 48
12 13 43 7 43 -7z m-1460 -190 c-16 -21 -39 -20 -47 0 -4 11 1 22 12 31 16 11
21 11 34 -1 12 -12 12 -18 1 -30z m22 -38 c8 -21 -2 -38 -23 -38 -19 0 -27 29
-12 43 11 11 31 8 35 -5z m16 -81 c2 -12 -3 -17 -17 -17 -12 0 -21 6 -21 13 0
31 32 34 38 4z m1232 -61 c0 -2 -7 -6 -15 -10 -8 -3 -15 -1 -15 4 0 6 7 10 15
10 8 0 15 -2 15 -4z m-1234 -82 c-5 -13 -10 -14 -18 -6 -6 6 -8 18 -4 28 5 13
10 14 18 6 6 -6 8 -18 4 -28z m-51 -24 c0 -8 -8 -16 -17 -18 -13 -2 -18 3 -18
18 0 15 5 20 18 18 9 -2 17 -10 17 -18z m-69 -11 c3 -6 1 -16 -4 -21 -13 -13
-45 8 -36 23 7 12 31 11 40 -2z m1450 -266 c8 -29 -5 -56 -29 -61 -8 -2 -31 4
-52 12 -32 14 -35 18 -25 36 12 23 43 38 77 39 16 1 24 -6 29 -26z m-1001 -9
c39 -14 92 -31 119 -38 26 -8 52 -20 56 -27 6 -9 12 -10 22 -2 19 14 98 4 98
-13 0 -8 -1 -14 -2 -14 -2 -1 -43 -3 -93 -6 -49 -4 -98 -10 -108 -15 -23 -13
-136 -1 -164 17 -16 10 -23 24 -23 44 0 17 -4 30 -10 30 -11 0 -14 33 -3 43
11 12 36 7 108 -19z m875 -14 c0 -23 -1 -24 -35 -8 -34 15 -32 28 5 28 23 0
30 -4 30 -20z m-520 -490 c0 -5 -7 -10 -15 -10 -8 0 -15 5 -15 10 0 6 7 10 15
10 8 0 15 -4 15 -10z m-105 -60 c-3 -5 -10 -10 -16 -10 -5 0 -9 5 -9 10 0 6 7
10 16 10 8 0 12 -4 9 -10z m-1134 -116 c27 -20 49 -42 49 -50 0 -7 -17 -58
-39 -111 -39 -101 -50 -132 -121 -363 -23 -74 -50 -162 -61 -195 -10 -33 -25
-92 -33 -130 -8 -39 -26 -106 -40 -150 -14 -44 -31 -114 -37 -155 -7 -41 -17
-80 -23 -86 -10 -10 -124 -54 -141 -54 -4 0 -5 39 -1 88 21 271 34 334 144
657 85 251 98 285 135 365 19 41 40 93 46 115 13 48 46 105 62 105 6 0 33 -16
60 -36z m533 -60 c56 -25 133 -61 171 -79 39 -19 84 -37 100 -41 17 -4 41 -15
55 -24 14 -10 63 -36 110 -58 76 -37 88 -47 115 -92 55 -94 71 -115 89 -118
35 -7 39 14 12 54 -29 43 -34 74 -12 74 19 0 29 -17 16 -25 -14 -9 -1 -27 15
-21 8 3 17 -4 21 -17 4 -12 16 -32 27 -43 12 -12 40 -55 63 -95 32 -57 47 -75
66 -77 19 -2 27 3 32 20 l7 23 10 -24 c5 -13 22 -39 38 -57 27 -30 29 -35 19
-74 -11 -43 -43 -66 -77 -55 -18 5 -201 40 -296 56 -93 15 -179 37 -289 76
-230 80 -337 147 -492 305 -100 103 -194 231 -181 245 12 11 68 -10 135 -52
80 -49 146 -66 155 -40 4 8 -5 46 -18 83 -29 75 -28 72 -26 90 2 21 31 14 135
-34z m-384 -184 c65 -83 191 -197 340 -308 83 -63 201 -125 330 -175 79 -31
327 -97 384 -102 22 -2 120 -11 216 -19 179 -15 450 -54 471 -66 8 -6 7 -28
-7 -85 -18 -75 -19 -78 -59 -95 -70 -30 -257 -88 -325 -100 -36 -6 -92 -20
-125 -31 -33 -10 -80 -19 -105 -19 -25 0 -74 -5 -110 -11 -81 -13 -262 -36
-400 -50 -64 -6 -236 -9 -440 -6 -299 4 -346 6 -434 26 -55 12 -103 24 -108
27 -4 3 -8 26 -8 52 1 58 18 137 98 442 63 245 72 275 87 310 8 19 35 89 60
155 51 131 53 135 64 135 4 0 36 -36 71 -80z m1500 -556 c0 -14 -12 -19 -23
-8 -9 9 4 35 14 28 5 -3 9 -12 9 -20z m158 14 c19 -19 14 -30 -10 -26 -13 2
-24 11 -26 21 -4 20 18 23 36 5z m29 -410 c-3 -7 -31 -76 -63 -153 -31 -77
-62 -147 -69 -155 -7 -8 -16 -26 -20 -40 -23 -75 -181 -343 -246 -418 -16 -18
-29 -36 -29 -40 0 -4 -12 -21 -27 -38 -16 -16 -48 -56 -72 -88 -38 -51 -197
-221 -351 -376 -114 -115 -252 -210 -485 -333 -93 -49 -186 -98 -205 -108 -19
-11 -39 -19 -43 -19 -11 0 -201 -119 -300 -188 -48 -34 -105 -87 -152 -142
-42 -49 -88 -102 -103 -118 -48 -50 -132 -153 -132 -161 0 -15 -205 -194 -237
-207 -17 -8 -34 -18 -38 -24 -7 -12 -152 -80 -170 -80 -6 0 -42 60 -80 133
-37 72 -76 146 -86 163 l-19 31 48 74 c26 41 72 119 101 174 29 55 66 119 83
142 16 24 43 69 59 101 17 31 36 68 44 82 21 38 85 177 85 186 0 15 122 349
142 388 44 87 124 190 223 284 99 96 158 144 371 304 80 60 104 84 114 112 11
36 8 56 -11 56 -6 0 -45 -31 -88 -69 -43 -37 -114 -95 -157 -126 -43 -32 -96
-71 -116 -87 -20 -15 -46 -28 -57 -28 -18 0 -21 6 -21 38 0 49 -40 166 -75
222 -41 65 -85 205 -85 273 l0 58 67 31 c73 33 110 33 233 3 91 -22 352 -38
545 -33 17 0 104 0 195 -2 91 -1 206 3 255 9 50 6 121 11 158 11 81 0 476 76
628 121 92 28 157 44 183 48 4 0 6 -5 3 -11z m-360 -1128 c39 -80 81 -165 92
-189 31 -63 101 -346 101 -407 0 -27 6 -73 14 -100 8 -27 22 -92 31 -144 8
-52 20 -117 25 -143 6 -27 10 -96 10 -153 0 -102 -1 -106 -27 -130 -37 -34
-60 -46 -171 -83 -145 -50 -131 -61 -266 212 -72 145 -139 265 -178 319 -67
91 -304 358 -319 358 -20 0 -7 41 19 57 92 58 431 377 537 507 21 26 43 45 49
44 6 -2 43 -69 83 -148z m-748 -504 c15 -8 40 -31 54 -50 15 -19 72 -83 128
-143 191 -205 330 -446 385 -668 19 -76 36 -101 78 -119 41 -17 48 -36 37
-103 -8 -54 -50 -115 -98 -141 -12 -7 -23 -21 -23 -32 0 -10 -12 -31 -26 -47
-14 -15 -57 -61 -95 -101 -60 -65 -69 -79 -69 -112 0 -32 -4 -39 -24 -44 -14
-3 -36 -2 -51 4 -14 5 -50 10 -78 10 -32 0 -62 6 -76 16 -26 19 -111 15 -248
-12 -90 -17 -245 -31 -488 -44 -93 -4 -231 -13 -305 -20 -128 -10 -646 -15
-775 -7 -33 2 -120 5 -192 5 -73 1 -133 6 -133 11 0 5 24 33 53 61 53 53 110
87 182 110 81 25 102 66 107 202 l3 77 108 51 c59 27 136 69 170 92 66 44 187
164 346 343 196 221 382 385 461 410 51 15 256 109 326 149 23 13 50 26 60 29
11 4 46 24 79 46 70 46 68 45 104 27z m-1768 -922 c44 -87 59 -155 40 -178 -7
-8 -31 -18 -54 -22 -23 -3 -78 -20 -122 -36 -119 -44 -115 -43 -115 -18 0 27
98 233 149 312 42 66 40 67 102 -58z m2788 54 c4 -13 11 -35 15 -51 7 -30 7
-31 -99 -63 -33 -10 -72 -27 -86 -37 -47 -34 -92 3 -65 53 10 19 182 115 214
118 7 1 16 -8 21 -20z m-99 -688 c0 -5 -14 -10 -31 -10 -17 0 -28 4 -24 10 3
6 17 10 31 10 13 0 24 -4 24 -10z m115 -1 c4 -6 5 -12 3 -14 -7 -7 -88 8 -88
16 0 13 78 11 85 -2z"/>
<path d="M11072 5063 c-19 -38 -23 -100 -6 -114 13 -10 17 -10 23 0 11 17 22
111 15 122 -8 14 -23 10 -32 -8z"/>
<path d="M10936 4951 c-7 -53 0 -84 18 -78 22 7 19 127 -3 127 -5 0 -11 -22
-15 -49z"/>
<path d="M10727 4893 c7 -45 20 -73 33 -73 13 0 13 40 -1 79 -16 46 -39 41
-32 -6z"/>
<path d="M10944 4776 c-6 -26 11 -115 28 -150 7 -13 13 -15 21 -7 7 7 7 25 -1
62 -7 28 -12 61 -12 74 0 12 -7 28 -15 35 -12 10 -15 7 -21 -14z"/>
<path d="M10820 4691 c0 -12 5 -21 10 -21 6 0 10 6 10 14 0 8 -4 18 -10 21 -5
3 -10 -3 -10 -14z"/>
<path d="M11523 6241 c-10 -17 -18 -18 -54 -10 -87 20 -96 -1 -62 -143 24
-103 72 -166 95 -125 5 10 17 17 27 17 27 0 50 64 61 172 5 50 7 95 4 100 -10
16 -59 8 -71 -11z m-3 -117 c0 -31 -24 -89 -40 -99 -17 -10 -40 21 -40 54 0
15 12 34 33 52 36 30 47 29 47 -7z"/>
<path d="M10296 4333 c-31 -30 -33 -79 -4 -97 13 -8 23 -5 43 14 26 25 32 58
15 91 -14 25 -22 24 -54 -8z"/>
<path d="M10226 4111 c-23 -25 -32 -87 -16 -106 7 -8 25 -15 40 -15 45 0 66
72 34 118 -19 27 -36 28 -58 3z"/>
<path d="M10200 3893 c-26 -10 -50 -35 -50 -54 0 -21 45 -59 71 -59 17 0 59
44 59 62 0 11 -47 58 -57 57 -4 0 -15 -3 -23 -6z"/>
<path d="M10122 3648 c-20 -20 -14 -68 10 -88 21 -16 26 -17 51 -4 41 22 55
58 32 84 -20 22 -74 27 -93 8z"/>
<path d="M2430 5389 c-77 -9 -156 -32 -178 -52 -44 -38 -152 -105 -196 -121
-26 -10 -71 -38 -100 -62 -28 -24 -64 -54 -81 -68 -26 -21 -30 -30 -28 -72 1
-33 -4 -56 -18 -75 -10 -15 -19 -36 -19 -47 0 -26 -54 -143 -96 -209 -41 -64
-42 -90 -9 -139 14 -20 25 -43 25 -50 0 -7 6 -17 13 -21 6 -4 25 -25 41 -47
l29 -39 43 47 c33 35 51 46 73 46 16 0 33 5 36 10 9 15 48 12 74 -6 l23 -17
-64 -66 c-82 -83 -122 -151 -160 -265 -42 -127 -143 -306 -193 -339 -11 -8
-40 -21 -64 -31 -53 -21 -57 -17 -65 68 -4 34 -11 111 -17 171 -17 176 -38
333 -58 430 -12 59 -15 98 -10 113 15 40 10 96 -13 142 -13 24 -28 46 -34 47
-14 5 -44 -68 -44 -107 0 -16 14 -63 30 -105 17 -42 30 -85 30 -96 0 -11 6
-48 14 -82 29 -124 53 -304 71 -524 l6 -73 -41 0 c-30 0 -47 6 -65 25 -31 30
-31 48 -1 88 23 30 24 36 16 102 -5 39 -10 104 -10 145 -1 119 -34 161 -70 91
-11 -23 -24 -41 -28 -41 -5 0 -16 26 -26 58 -10 31 -40 115 -68 185 -45 118
-48 130 -34 146 23 25 23 173 0 192 -22 18 -34 -3 -34 -60 0 -37 -2 -42 -15
-31 -8 7 -15 27 -15 44 0 17 -5 38 -10 46 -17 25 -28 -5 -22 -62 6 -58 -9 -60
-28 -3 -8 24 -18 35 -31 35 -10 0 -19 -1 -19 -3 0 -7 60 -170 64 -175 3 -3 15
-10 27 -16 22 -12 37 -44 120 -253 51 -131 57 -173 21 -158 -9 4 -26 8 -36 9
-41 2 -43 -120 -3 -171 11 -14 44 -41 73 -59 59 -38 69 -51 79 -106 6 -34 5
-39 -20 -50 -19 -8 -31 -9 -43 -1 -19 12 -83 116 -154 251 -44 85 -48 98 -48
162 0 85 -24 143 -81 195 -45 40 -75 44 -113 14 -65 -51 -12 -168 118 -263 23
-18 46 -47 58 -75 11 -25 51 -100 89 -167 67 -117 82 -151 57 -126 -7 7 -19
12 -28 12 -8 0 -40 18 -70 41 -30 23 -76 52 -102 65 -27 13 -48 29 -48 35 0
14 -106 154 -199 261 -77 90 -109 116 -199 162 -82 41 -122 32 -122 -29 0 -44
24 -76 161 -216 125 -127 209 -189 319 -233 47 -19 129 -65 220 -125 46 -31
55 -41 55 -66 0 -48 -40 -45 -175 16 -63 28 -160 62 -215 76 -260 62 -265 64
-338 119 -82 63 -155 91 -187 74 -13 -7 -19 -17 -16 -26 3 -9 -1 -29 -10 -45
-20 -39 -12 -59 36 -97 46 -38 49 -38 118 -12 63 24 99 25 172 4 30 -9 92 -24
137 -35 113 -26 266 -83 340 -126 107 -63 101 -66 -129 -58 -128 4 -220 11
-248 20 -48 15 -247 35 -267 28 -19 -7 -16 -22 13 -60 21 -28 31 -33 52 -29
61 11 222 17 222 8 0 -5 -40 -15 -90 -22 -49 -7 -95 -19 -100 -25 -16 -19 17
-48 44 -40 12 3 62 13 111 22 73 13 94 21 112 41 l22 26 133 -12 c73 -7 154
-12 180 -12 59 0 78 -7 78 -31 0 -48 128 -142 245 -179 22 -7 81 -30 132 -51
94 -40 136 -48 149 -28 9 15 -9 25 -83 49 -98 30 -140 67 -97 84 29 11 48 6
104 -28 76 -46 93 -50 121 -27 23 19 24 19 5 40 -11 12 -25 21 -32 21 -32 0
-173 52 -189 70 -18 20 -18 20 22 20 133 0 242 50 362 166 47 46 89 84 93 84
4 0 29 -42 54 -92 25 -51 62 -119 81 -151 25 -41 33 -64 28 -80 -3 -12 -10
-66 -14 -119 -4 -54 -10 -100 -12 -103 -3 -3 -43 -12 -90 -21 -46 -9 -106 -25
-134 -35 -141 -50 -275 -106 -312 -131 -23 -15 -46 -28 -52 -28 -5 0 -30 -16
-55 -35 -26 -19 -51 -35 -57 -35 -7 0 -26 -15 -43 -33 -17 -18 -48 -43 -68
-56 -21 -12 -38 -26 -38 -30 0 -4 -11 -13 -25 -19 -13 -6 -48 -30 -77 -52 -29
-23 -82 -62 -118 -88 -35 -26 -75 -63 -87 -82 -43 -67 -183 -268 -235 -340
-47 -65 -172 -205 -245 -276 -54 -52 -63 -65 -63 -96 0 -45 -26 -78 -103 -130
-34 -23 -80 -59 -102 -80 -22 -20 -73 -68 -114 -105 -40 -37 -86 -87 -102
-109 l-28 -41 23 -22 c37 -35 92 -28 203 26 118 57 164 61 212 20 69 -58 133
-25 146 76 8 71 42 161 70 187 21 20 26 20 65 9 38 -12 43 -11 59 7 23 29 100
88 140 109 19 10 58 39 85 65 41 37 257 199 314 234 7 4 97 10 200 12 103 3
224 12 268 19 76 13 233 71 524 194 52 22 103 41 113 41 11 0 32 -23 55 -59
39 -61 125 -163 203 -241 25 -25 120 -119 213 -210 92 -90 182 -187 201 -215
19 -29 41 -57 49 -64 17 -15 115 -159 139 -206 23 -45 147 -242 195 -310 37
-53 88 -121 197 -263 17 -21 39 -66 50 -98 11 -32 20 -61 21 -62 1 -2 24 6 49
17 60 27 62 26 68 -6 3 -16 -4 -42 -19 -71 -13 -25 -24 -54 -24 -64 0 -33 -19
-56 -79 -97 -68 -46 -87 -72 -105 -143 l-13 -53 -89 -2 c-157 -4 -193 -8 -205
-20 -10 -10 -4 -16 27 -29 34 -14 61 -16 199 -9 88 4 248 9 355 10 247 3 543
21 885 55 61 6 124 10 140 10 17 -1 107 -1 200 0 94 0 204 -2 245 -6 49 -4
164 3 335 19 143 14 330 31 415 37 85 6 171 13 190 16 19 3 76 9 125 14 81 7
356 44 413 56 12 2 22 11 22 19 0 22 -30 34 -58 24 -25 -10 -98 -19 -302 -39
-63 -6 -153 -17 -200 -25 -134 -23 -153 -24 -370 -30 -113 -3 -252 -10 -310
-15 -180 -16 -213 -18 -244 -9 -17 4 -75 5 -129 1 -116 -9 -130 -4 -101 35 11
15 35 58 53 95 30 65 33 67 84 82 69 20 85 39 98 117 9 63 23 134 74 391 34
170 77 307 125 396 35 63 40 82 41 143 1 66 3 70 28 76 14 3 41 19 59 35 28
24 39 27 70 22 29 -5 41 -2 52 12 12 13 12 18 2 21 -23 8 -1 23 33 23 39 0 51
12 30 30 -24 20 -10 27 72 34 85 8 111 20 92 42 -6 8 -20 14 -30 14 -11 0 -19
5 -19 10 0 6 23 10 50 10 43 0 52 3 61 24 6 13 21 28 34 34 15 7 25 23 29 46
7 34 9 36 47 36 50 0 79 15 79 40 0 15 7 20 25 20 23 0 30 10 26 34 -3 14 21
26 50 26 29 0 50 17 42 36 -3 8 7 16 29 22 26 6 34 14 36 35 3 22 8 27 31 27
16 0 34 7 41 15 11 13 10 18 -6 30 -26 19 -6 42 24 26 15 -8 23 -6 41 13 12
13 36 26 53 30 21 4 33 14 41 36 7 19 20 31 38 35 15 3 35 15 45 27 11 11 31
26 46 34 16 8 28 21 28 30 0 8 11 19 25 24 15 6 25 17 25 30 0 21 4 24 53 35
20 4 31 15 39 36 5 16 19 34 29 40 10 5 19 16 19 23 0 7 11 23 25 36 14 13 25
31 25 41 0 10 27 45 60 79 33 34 60 65 60 69 0 13 74 88 94 95 12 4 57 -12
125 -42 58 -27 138 -59 176 -72 39 -13 97 -38 130 -56 33 -17 85 -39 115 -49
30 -9 61 -19 69 -21 11 -4 12 -7 3 -16 -7 -7 -12 -20 -12 -30 0 -28 27 -76 47
-82 10 -3 26 -20 35 -37 15 -26 22 -30 46 -24 40 8 47 -5 67 -112 20 -107 34
-134 59 -114 9 8 32 42 52 77 30 54 35 72 37 136 1 40 -2 98 -7 130 l-9 56 42
26 c42 27 62 67 45 94 -9 13 -84 39 -229 78 -68 19 -177 71 -238 115 -23 17
-98 83 -166 147 -97 91 -129 128 -147 169 -31 69 -30 87 3 113 20 15 27 29 25
50 -2 21 3 30 19 35 16 5 19 12 14 32 -3 14 -1 31 5 38 6 8 10 19 9 27 -2 7 2
23 9 35 9 16 9 29 1 53 -9 23 -9 38 0 56 6 14 11 38 11 53 0 16 9 57 20 92 16
51 18 65 8 75 -27 24 -147 47 -288 54 -80 5 -230 15 -335 24 -104 8 -246 18
-315 21 -69 3 -181 9 -250 14 -69 5 -188 8 -265 6 -283 -5 -1035 36 -1035 57
0 4 10 8 23 8 12 0 56 9 97 20 41 11 131 29 200 39 69 11 208 43 310 72 211
59 242 67 435 109 158 34 191 45 200 68 11 29 -14 37 -108 36 -76 -2 -114 -9
-222 -42 -72 -22 -153 -43 -180 -47 -28 -4 -70 -13 -95 -20 -60 -18 -143 -26
-160 -15 -18 11 77 58 233 116 323 119 379 141 472 184 105 49 131 70 121 95
-7 19 -40 19 -56 1 -6 -8 -33 -23 -58 -32 -26 -10 -51 -21 -57 -25 -9 -6 -53
-24 -320 -131 -209 -84 -331 -130 -365 -138 -19 -5 -55 -16 -80 -25 -25 -8
-85 -29 -135 -44 -49 -16 -155 -54 -235 -85 -79 -31 -157 -56 -173 -56 -29 0
-29 1 34 68 59 63 143 193 156 241 5 19 1 21 -45 21 -28 0 -71 -9 -98 -20 -26
-11 -49 -18 -51 -16 -3 3 4 30 16 61 12 31 21 72 21 91 0 35 -1 35 -32 29 -47
-10 -47 -10 -150 -120 -95 -101 -163 -196 -218 -306 -17 -33 -38 -63 -46 -66
-27 -10 -97 51 -174 153 -52 68 -103 121 -164 170 -77 61 -93 80 -117 134
l-29 62 55 68 c48 58 69 75 154 119 121 64 145 88 165 169 21 83 20 120 -4
185 -44 117 -90 117 -262 2 -110 -73 -119 -77 -155 -70 -21 4 -110 12 -198 17
-408 26 -693 4 -768 -61 -18 -15 -18 -16 0 -28 9 -8 36 -18 58 -24 55 -14 115
-57 115 -82 0 -28 -28 -111 -66 -197 -49 -109 -64 -159 -64 -216 0 -72 20 -87
61 -48 17 16 38 46 46 67 20 48 50 47 74 -1 21 -42 61 -72 102 -79 17 -3 46
-13 63 -24 38 -23 227 -37 250 -18 26 21 34 -1 14 -39 -11 -20 -20 -51 -20
-69 0 -45 -53 -153 -95 -194 -19 -19 -35 -38 -35 -43 0 -4 -15 -29 -34 -55
-53 -71 -80 -152 -73 -218 11 -101 105 -181 221 -188 26 -2 52 -7 58 -13 16
-16 -71 -83 -166 -128 -50 -24 -104 -52 -121 -63 -40 -28 -48 -10 -25 53 35
89 13 202 -71 366 -51 101 -84 143 -242 317 -99 108 -136 166 -137 213 0 14
-5 32 -10 40 -7 12 -12 8 -21 -17 -6 -18 -13 -33 -16 -33 -3 0 -29 13 -57 29
-88 50 -280 119 -413 148 -49 11 -12 58 41 55 28 -2 37 3 58 36 34 51 84 150
91 183 4 15 23 46 42 69 19 23 35 46 35 52 0 16 -19 45 -49 76 -29 29 -34 40
-46 114 -9 55 -93 139 -168 167 -32 11 -65 20 -75 20 -9 -1 -46 -5 -82 -10z
m178 -89 c35 -22 92 -128 92 -172 0 -17 15 -35 50 -61 28 -21 50 -42 50 -47 0
-5 -18 -24 -40 -41 -31 -25 -40 -39 -40 -63 0 -44 -24 -74 -65 -82 -36 -6 -39
-24 -4 -24 26 0 20 -24 -7 -28 -44 -7 -48 -11 -29 -32 22 -24 12 -42 -18 -31
-17 7 -29 4 -46 -10 -13 -10 -34 -19 -46 -19 -13 0 -37 -8 -54 -17 -44 -26
-67 -9 -64 46 2 45 -3 50 -22 24 -11 -14 -15 -15 -28 -4 -14 11 -14 17 -2 44
35 83 43 130 28 167 -12 28 -2 172 13 202 8 15 44 60 81 98 73 78 94 85 151
50z m1904 -21 c35 -46 34 -179 -2 -179 -9 0 -43 99 -55 157 -12 58 21 71 57
22z m-88 -80 c9 -42 25 -93 36 -114 11 -21 17 -42 14 -46 -8 -14 -130 -79
-147 -79 -16 0 -47 50 -62 100 -4 14 -16 44 -28 68 -14 28 -17 46 -11 52 25
25 169 109 175 102 4 -4 14 -41 23 -83z m-532 -20 c37 -5 111 -9 166 -9 63 0
104 -4 114 -12 9 -7 26 -42 38 -78 12 -36 28 -76 37 -89 27 -42 2 -120 -63
-201 -20 -25 -46 -52 -59 -60 -73 -50 -93 -59 -139 -65 -73 -9 -97 -21 -132
-68 -28 -40 -33 -42 -75 -39 -24 1 -71 4 -104 5 -45 1 -72 9 -107 30 -27 16
-50 33 -53 38 -3 4 6 26 20 48 26 39 30 81 9 88 -6 2 -22 -24 -35 -58 -34 -87
-50 -92 -84 -24 -14 30 -31 55 -37 55 -11 0 -69 -58 -101 -101 l-18 -24 5 40
c12 86 24 124 54 166 17 24 34 62 38 84 9 54 30 92 53 100 27 8 134 -47 279
-144 201 -133 217 -142 220 -126 8 34 -103 168 -188 227 -14 10 -108 60 -210
111 -102 51 -186 97 -188 102 -5 21 417 25 560 4z m1183 -589 c-23 -70 -93
-195 -138 -246 -39 -44 -104 -90 -114 -81 -3 3 31 59 76 124 45 64 81 124 81
132 0 26 -49 -29 -122 -139 -63 -94 -88 -124 -88 -106 0 23 73 143 131 217 73
92 181 186 187 162 2 -7 -4 -35 -13 -63z m-914 47 c38 -26 64 -84 55 -122 -6
-22 -9 -25 -21 -15 -20 16 -45 5 -45 -19 0 -11 -8 -25 -19 -30 -10 -6 -24 -24
-31 -40 -12 -30 -13 -30 -41 -15 -32 16 -35 13 -41 -36 -2 -17 -9 -25 -23 -25
-13 0 -21 -8 -23 -23 -4 -28 -27 -39 -46 -23 -11 9 -21 6 -45 -15 -32 -27 -61
-26 -61 1 0 9 8 43 18 77 16 57 22 65 121 152 61 53 110 105 118 124 16 38 37
41 84 9z m-1434 -92 c90 -24 177 -62 255 -111 66 -42 99 -134 114 -321 8 -104
2 -133 -31 -133 -32 0 -118 29 -127 44 -11 17 2 24 75 38 72 14 82 29 25 39
-42 6 -91 36 -83 49 3 5 30 14 60 21 31 7 55 18 55 25 0 12 -18 16 -178 32
-134 14 -137 26 -8 35 42 3 74 11 83 20 14 14 10 17 -38 31 -154 46 -333 60
-536 43 -51 -4 -93 -4 -93 1 0 10 81 32 121 32 17 0 39 5 50 11 33 17 11 30
-42 23 -41 -6 -49 -4 -49 10 0 10 8 16 23 16 13 0 32 7 43 16 18 14 16 15 -24
10 -23 -4 -72 -9 -108 -12 -64 -6 -65 -5 -52 16 15 24 35 30 103 29 28 0 82 3
122 6 61 6 75 11 88 31 19 30 37 30 152 -1z m1565 -10 c20 -14 41 -25 46 -25
14 0 57 -52 95 -115 39 -66 153 -182 205 -209 40 -21 41 -40 3 -114 -30 -57
-165 -269 -196 -307 -16 -20 -16 -20 -12 5 3 14 8 34 12 44 7 16 1 14 -28 -10
-20 -16 -57 -65 -83 -111 -43 -77 -70 -103 -94 -88 -18 11 -11 44 29 148 73
189 100 273 91 288 -5 7 -12 10 -16 6 -4 -4 -43 -95 -85 -203 -43 -107 -100
-232 -126 -277 -27 -45 -55 -95 -63 -110 -16 -33 -114 -87 -155 -87 -14 0 -38
-6 -53 -14 -25 -12 -97 -27 -198 -40 -53 -7 -64 6 -71 82 l-5 58 52 34 c59 38
103 63 138 79 45 21 114 85 158 146 30 43 68 125 125 271 99 254 110 287 98
305 -15 25 -34 -9 -74 -131 -43 -130 -106 -291 -142 -363 -20 -41 -28 -48 -46
-44 -12 3 -51 11 -87 17 -95 17 -147 50 -160 103 -6 23 -13 48 -15 55 -3 7 2
42 11 76 28 114 128 213 201 200 21 -4 40 -1 55 10 12 9 32 16 44 16 13 0 32
12 43 26 11 14 26 24 33 23 28 -3 37 3 78 56 23 30 49 55 56 55 8 0 14 9 14
19 0 37 12 51 41 51 28 0 29 2 29 50 0 28 3 50 8 50 4 0 24 -11 44 -25z m918
-29 c0 -42 -52 -119 -139 -206 -103 -103 -170 -140 -257 -142 -86 -3 -82 17
13 70 43 24 100 58 126 75 26 18 71 47 100 65 73 46 131 98 120 105 -6 4 -39
-14 -73 -38 -70 -49 -80 -53 -80 -29 0 38 109 111 183 123 4 0 7 -10 7 -23z
m765 -135 c9 -15 -7 -20 -178 -61 -89 -21 -205 -50 -257 -65 -52 -15 -133 -33
-180 -41 -47 -7 -102 -16 -122 -20 -61 -11 -45 13 20 31 31 8 77 22 102 30 41
13 375 84 497 106 28 5 62 13 75 18 30 13 36 13 43 2z m-3925 -30 c0 -5 -15
-18 -32 -30 -42 -26 -65 -10 -29 20 24 20 61 26 61 10z m3515 -11 c-3 -5 -17
-10 -30 -10 -14 0 -42 -6 -62 -14 -56 -21 -92 -28 -106 -19 -7 4 26 17 78 30
102 24 129 27 120 13z m-2825 -9 c13 -9 13 -10 0 -15 -32 -10 -154 -13 -183
-5 -17 5 -35 5 -41 0 -20 -16 -81 -24 -195 -25 -79 -1 -115 3 -118 11 -3 7 16
14 54 18 32 4 72 10 88 14 46 12 378 13 395 2z m-1770 -21 c31 -22 54 -73 64
-142 7 -44 6 -46 -14 -41 -34 9 -110 112 -110 149 0 26 15 54 28 54 2 0 16 -9
32 -20z m1150 -40 l13 -31 113 5 c104 5 140 -2 98 -18 -26 -10 -190 -24 -283
-25 -46 0 -99 -3 -118 -7 -33 -6 -35 -5 -28 17 15 49 34 69 68 69 17 0 39 5
47 10 8 5 29 10 46 10 26 0 34 -6 44 -30z m3230 22 c0 -10 -160 -55 -168 -47
-9 9 4 15 79 34 87 23 89 24 89 13z m-2681 -18 c-7 -8 -21 -13 -30 -11 -10 3
-35 -1 -56 -8 -21 -7 -49 -11 -63 -9 -14 3 -44 -2 -67 -10 -36 -13 -43 -13
-53 0 -16 19 24 34 93 35 29 0 70 4 92 8 22 5 53 9 69 10 25 1 27 -1 15 -15z
m515 -35 c17 -24 25 -47 21 -57 -5 -13 -12 -8 -31 23 -21 35 -32 75 -20 75 2
0 16 -18 30 -41z m-2608 -8 c60 -44 96 -80 160 -156 32 -38 75 -89 97 -111 45
-48 36 -65 -14 -28 -19 14 -65 46 -104 71 -97 62 -183 148 -196 196 -17 64 -1
71 57 28z m2284 -10 c41 -3 75 -10 75 -16 0 -5 -29 -13 -65 -17 -36 -5 -104
-15 -153 -23 -48 -9 -92 -13 -98 -9 -12 7 -141 -11 -199 -27 -19 -6 -75 -14
-125 -18 -98 -9 -251 -36 -291 -51 -28 -11 -24 -30 6 -30 14 0 17 -5 13 -21
-5 -19 -3 -21 23 -15 56 12 370 37 449 36 44 -1 136 2 205 6 114 6 130 4 183
-16 32 -12 57 -26 55 -31 -2 -5 -158 -10 -348 -12 -347 -3 -505 -16 -497 -41
3 -7 42 -10 125 -8 107 3 196 -6 329 -34 37 -7 15 -31 -35 -38 -46 -6 -220
-64 -271 -90 -14 -7 -48 -23 -75 -35 -26 -12 -45 -25 -41 -29 3 -4 50 -12 102
-19 52 -7 98 -15 102 -19 3 -3 -2 -11 -13 -18 -94 -57 -137 -88 -133 -99 2 -7
32 -15 67 -19 83 -9 92 -20 38 -49 -23 -14 -44 -32 -46 -42 -3 -14 5 -17 51
-17 101 0 110 -16 42 -78 -40 -36 -59 -72 -37 -72 4 0 57 9 117 19 159 27 242
34 250 22 3 -6 -2 -14 -12 -17 -55 -17 -183 -69 -214 -86 -33 -18 -68 -58 -51
-58 4 0 45 16 91 35 106 45 153 53 185 31 14 -9 37 -16 52 -16 31 0 84 -35 84
-56 0 -14 -38 -34 -66 -34 -8 0 -14 6 -14 14 0 8 -12 28 -26 45 -45 54 -134
37 -134 -26 0 -18 10 -41 26 -58 25 -27 28 -27 99 -21 45 4 76 3 79 -3 11 -17
-28 -30 -126 -40 -53 -5 -120 -17 -150 -27 -29 -9 -59 -19 -65 -20 -7 -2 -13
-9 -13 -15 0 -12 15 -11 135 15 39 8 112 20 164 26 52 6 97 13 101 15 5 3 15
2 24 -1 19 -7 22 -63 4 -68 -78 -20 -350 -116 -362 -127 -25 -23 -38 2 -100
186 -39 114 -48 135 -255 555 -161 325 -214 455 -219 538 l-4 62 43 0 c183 1
508 33 649 65 42 9 88 12 130 8 36 -3 99 -9 140 -12z m63 -97 c20 -10 36 -23
34 -28 -5 -14 -124 -22 -261 -18 -93 3 -106 5 -106 21 0 13 17 20 83 33 99 20
198 17 250 -8z m-1569 -36 c13 -119 12 -172 -4 -176 -31 -6 -55 162 -29 209
17 32 27 21 33 -33z m1820 7 c8 -30 -3 -77 -15 -69 -12 7 -12 94 0 94 5 0 12
-11 15 -25z m-623 -1 c7 -8 9 -17 6 -20 -3 -3 -57 -7 -121 -9 -64 -3 -121 -7
-126 -10 -6 -3 -17 -2 -26 3 -11 6 -26 5 -43 -4 -14 -8 -50 -14 -79 -14 -29 0
-63 -5 -74 -11 -13 -7 -24 -7 -30 -1 -14 14 33 28 174 51 199 33 300 38 319
15z m2785 5 c7 -11 -43 -128 -60 -140 -12 -9 -167 1 -188 13 -41 21 2 117 57
129 52 11 183 10 191 -2z m-276 -10 c0 -25 -54 -108 -74 -113 -30 -8 -109 -7
-122 2 -40 26 -10 94 49 111 47 13 147 13 147 0z m-3799 -47 c6 -15 20 -46 30
-70 20 -45 24 -72 11 -72 -4 0 -31 22 -60 48 -46 43 -52 53 -52 89 0 24 5 43
13 46 20 7 47 -12 58 -41z m4233 33 c83 -18 116 -37 116 -69 0 -30 -18 -45
-60 -48 -33 -3 -35 -1 -35 29 0 17 -3 35 -7 38 -14 14 -38 -5 -44 -34 -7 -35
-40 -46 -98 -35 -41 7 -41 10 -5 92 21 48 27 50 133 27z m-2128 -27 c15 -29
16 -110 1 -124 -11 -11 -27 7 -27 30 0 13 -7 29 -15 36 -8 7 -15 20 -15 29 0
16 26 61 35 61 3 0 12 -14 21 -32z m3172 -30 l-3 -33 -80 3 c-85 2 -200 25
-175 35 23 8 149 24 208 25 l53 2 -3 -32z m360 5 c62 -3 115 -10 119 -16 3 -5
-3 -17 -13 -28 -17 -16 -38 -18 -169 -20 -164 -2 -225 12 -225 49 0 31 12 35
95 28 44 -3 131 -9 193 -13z m470 -37 c2 -10 -2 -22 -10 -27 -7 -5 -75 -9
-150 -9 -143 0 -170 8 -131 39 16 14 45 17 154 16 123 0 134 -2 137 -19z m215
-11 c90 -8 93 -14 52 -103 -14 -30 -25 -59 -25 -65 -1 -31 -19 -38 -91 -39
-155 0 -149 -1 -149 30 0 58 19 100 50 111 36 12 37 17 8 42 -20 16 -21 20 -8
29 8 6 31 8 50 6 19 -3 70 -8 113 -11z m-5757 -20 c7 -30 -2 -59 -16 -50 -13
8 -13 75 0 75 5 0 12 -11 16 -25z m53 -22 c5 -27 13 -68 16 -93 3 -25 13 -76
22 -114 l16 -69 -42 -39 c-23 -22 -47 -38 -54 -35 -19 6 -40 58 -42 103 -1 23
-6 47 -10 55 -10 15 -18 109 -9 109 13 0 44 -90 44 -130 0 -61 11 -76 34 -51
16 17 17 27 7 87 -7 48 -7 72 0 81 8 8 8 27 0 63 -13 62 -14 80 -2 80 5 0 14
-21 20 -47z m3866 38 c7 -12 -12 -24 -25 -16 -11 7 -4 25 10 25 5 0 11 -4 15
-9z m288 -1 c20 0 23 -16 5 -22 -21 -8 -79 12 -72 23 3 6 16 8 28 5 11 -3 29
-6 39 -6z m-2943 -32 c0 -15 -4 -29 -9 -32 -4 -3 -6 -16 -4 -29 6 -31 -26 -52
-94 -60 -49 -6 -68 3 -43 18 20 13 -2 25 -46 25 -24 0 -44 4 -44 9 0 9 17 12
138 27 26 3 55 7 65 10 23 7 22 34 -2 34 -20 0 -35 13 -26 22 3 3 19 5 35 4
26 -1 30 -5 30 -28z m77 -5 c-3 -3 -11 -2 -17 2 -8 5 -7 11 2 22 12 15 13 14
16 -1 2 -10 1 -20 -1 -23z m3246 15 c116 -12 124 -19 91 -67 -21 -29 -31 -28
-279 24 -89 18 -113 28 -108 41 7 18 143 19 296 2z m-3426 -10 c-2 -8 -18 -12
-38 -10 -51 4 -222 -44 -239 -67 -7 -10 -83 -31 -110 -31 l-23 0 21 23 c16 17
18 26 11 40 -23 40 -6 46 123 50 68 1 154 4 191 5 51 1 68 -1 64 -10z m261 -5
c-5 -25 -28 -28 -28 -4 0 12 6 21 16 21 9 0 14 -7 12 -17z m3578 -9 c82 -3
153 -10 157 -14 5 -4 6 -17 3 -28 -11 -33 -66 -103 -76 -97 -6 4 -54 11 -108
16 -241 23 -232 20 -232 70 0 36 4 42 33 54 17 8 41 13 53 10 11 -2 87 -7 170
-11z m-1561 -4 c3 -6 1 -26 -5 -45 -9 -28 -18 -36 -45 -41 -36 -6 -75 2 -75
17 0 5 5 9 10 9 6 0 10 7 10 15 0 8 -6 15 -14 15 -7 0 -19 -7 -26 -15 -13 -15
-74 -20 -104 -9 -26 10 -18 34 14 47 37 16 226 22 235 7z m323 -17 c3 -23 -33
-116 -52 -132 -7 -6 -39 -3 -91 9 -44 11 -90 19 -102 20 -12 0 -33 4 -48 10
-24 9 -25 11 -12 32 8 13 17 35 21 50 7 32 25 36 176 34 100 -1 105 -2 108
-23z m382 6 c28 -6 54 -17 57 -25 7 -18 -33 -136 -61 -176 -18 -26 -28 -32
-52 -30 -53 5 -279 64 -292 77 -11 10 -8 23 13 71 42 94 41 94 171 94 62 0
136 -5 164 -11z m1374 -9 c13 -13 -2 -75 -22 -92 -30 -26 -140 -45 -237 -41
-49 2 -93 7 -98 12 -5 5 5 38 22 76 l31 67 147 -7 c82 -4 152 -11 157 -15z
m-4060 -5 c-4 -8 -8 -15 -10 -15 -2 0 -4 7 -4 15 0 8 4 15 10 15 5 0 7 -7 4
-15z m1551 -4 c88 -25 101 -40 74 -93 -30 -60 -58 -65 -135 -26 -71 36 -79 55
-47 109 20 34 19 34 108 10z m-1489 -28 c-10 -10 -19 5 -10 18 6 11 8 11 12 0
2 -7 1 -15 -2 -18z m2899 7 c58 -18 162 -40 187 -40 49 0 52 -21 17 -110 -34
-89 -72 -126 -117 -115 -13 3 -86 14 -163 25 -77 11 -145 22 -150 25 -14 10
-11 22 27 109 19 44 40 92 45 105 9 22 13 23 67 16 31 -3 71 -10 87 -15z
m-1625 -14 c0 -8 -4 -17 -9 -20 -10 -7 -23 19 -14 28 11 11 23 6 23 -8z m445
-36 c39 -10 87 -21 107 -25 21 -3 40 -10 43 -16 4 -5 -14 -45 -40 -89 -36 -61
-52 -80 -68 -80 -34 1 -201 93 -205 113 -2 10 8 31 22 48 14 17 29 42 32 55 5
18 11 23 23 19 9 -4 48 -15 86 -25z m-1657 8 c-6 -18 -28 -21 -28 -4 0 9 7 16
16 16 9 0 14 -5 12 -12z m-535 -19 c-6 -6 -53 -16 -105 -21 -60 -6 -98 -15
-108 -25 -17 -17 -14 -17 155 9 75 12 230 17 239 7 2 -2 7 -19 11 -38 5 -25 4
-32 -5 -26 -7 4 -49 10 -94 13 -160 10 -372 -2 -517 -29 -47 -9 -61 -8 -87 5
-19 10 -42 14 -57 10 -20 -5 -25 -2 -25 13 0 14 11 22 43 30 63 17 169 33 218
33 24 1 82 7 129 14 110 18 218 20 203 5z m3822 -29 c125 -16 183 -29 201 -47
13 -14 13 -18 -2 -41 -9 -14 -30 -51 -47 -84 -16 -32 -37 -63 -47 -68 -11 -6
-57 0 -136 17 -65 14 -135 25 -155 24 -61 -2 -64 15 -20 112 40 87 61 109 96
102 11 -2 61 -9 110 -15z m-4734 -3 c-1 -12 -15 -9 -19 4 -3 6 1 10 8 8 6 -3
11 -8 11 -12z m-265 -68 c24 -105 33 -132 53 -160 27 -36 27 -36 -9 -54 -55
-29 -67 -16 -119 128 -29 81 -27 101 12 125 17 11 36 19 41 18 5 -1 15 -27 22
-57z m50 13 c2 -24 18 -69 34 -102 34 -67 35 -70 18 -70 -25 0 -98 186 -83
209 13 22 27 5 31 -37z m3022 18 c34 -16 62 -32 62 -36 0 -18 -82 -114 -97
-114 -23 0 -113 90 -113 113 0 23 44 67 67 67 10 0 46 -13 81 -30z m622 10
c132 -21 123 -16 117 -58 -5 -38 -87 -232 -112 -266 -13 -17 -20 -14 -119 59
-58 42 -109 81 -112 87 -3 5 15 52 42 105 46 93 48 95 78 90 17 -3 65 -11 106
-17z m-2201 -35 c38 -41 50 -63 95 -167 l16 -38 -29 -15 c-39 -20 -71 -62 -71
-94 0 -18 -11 -35 -35 -54 -19 -15 -35 -36 -35 -45 -1 -44 -18 20 -30 111 -19
145 2 347 35 347 7 0 31 -20 54 -45z m3931 10 c153 -8 160 -10 160 -40 0 -31
-71 -185 -94 -204 -15 -12 -31 -12 -119 3 -56 10 -126 20 -155 23 -29 3 -55 9
-58 14 -3 5 17 52 45 104 65 124 60 117 85 112 11 -3 73 -8 136 -12z m-5560
-26 c0 -12 16 -69 35 -127 20 -58 33 -107 30 -110 -3 -3 -26 -1 -53 4 -41 8
-49 14 -66 48 -12 25 -21 69 -24 117 -5 83 -4 85 56 88 16 1 22 -5 22 -20z
m6040 13 c0 -4 -5 -13 -12 -20 -8 -8 -8 -15 1 -26 10 -12 9 -16 -6 -25 -15 -8
-16 -13 -6 -29 13 -21 1 -42 -24 -42 -18 0 -16 -30 3 -51 15 -17 14 -19 -20
-35 -20 -10 -36 -20 -37 -23 -3 -21 -8 -43 -11 -46 -2 -2 -22 0 -43 5 -22 5
-65 12 -96 15 -96 10 -97 15 -55 131 58 158 45 143 128 147 153 7 178 7 178
-1z m-6168 -102 c27 -157 29 -174 20 -188 -10 -15 -160 -47 -170 -37 -4 3 -1
15 6 25 18 29 15 33 -18 26 -39 -7 -47 11 -26 53 24 45 19 55 -13 32 -37 -27
-41 -26 -41 5 0 16 19 51 46 88 47 64 103 98 154 93 23 -2 26 -8 42 -97z
m4323 63 c163 -36 172 -45 130 -135 -17 -34 -65 -115 -107 -180 -77 -117 -78
-118 -117 -118 -30 0 -49 8 -81 35 -24 20 -62 50 -86 67 -24 17 -44 39 -44 49
0 10 31 83 69 163 l70 146 48 -6 c26 -3 80 -12 118 -21z m-2757 11 c42 -8 31
-31 -22 -46 -22 -6 -52 -19 -66 -29 -14 -9 -54 -20 -90 -23 -81 -8 -164 -20
-307 -42 -108 -17 -114 -17 -170 1 -32 10 -65 20 -73 22 -18 6 75 56 141 77
36 11 63 12 125 5 71 -9 87 -8 159 14 81 25 231 35 303 21z m1990 -62 c46 -23
85 -49 88 -57 3 -8 -7 -35 -23 -61 -31 -51 -116 -144 -132 -144 -6 0 -23 19
-40 43 -16 23 -43 56 -61 72 -51 48 -54 59 -26 114 30 58 70 93 94 83 9 -4 54
-27 100 -50z m-344 -3 c57 -50 65 -78 36 -119 -20 -28 -67 -60 -88 -60 -15 0
-82 92 -82 113 0 20 64 107 79 107 5 0 29 -18 55 -41z m1560 -28 c70 -11 133
-25 140 -31 20 -16 9 -47 -49 -140 -30 -47 -77 -122 -105 -167 -67 -108 -137
-193 -159 -193 -24 0 -180 58 -216 80 -17 10 -40 29 -53 43 l-22 23 59 90 c79
121 181 295 181 310 0 18 20 22 60 13 20 -5 93 -17 164 -28z m-1864 -20 c0 -5
-7 -14 -15 -21 -16 -14 -18 -10 -9 14 6 17 24 22 24 7z m-1330 -24 c0 -8 11
-23 24 -36 18 -17 25 -36 30 -90 3 -37 9 -82 12 -100 l7 -33 -34 7 c-19 4 -46
13 -61 20 -24 12 -29 10 -60 -16 -18 -15 -44 -28 -58 -28 -25 0 -24 0 10 29
19 17 49 33 67 36 18 3 36 11 39 16 3 5 17 13 30 18 13 5 24 14 24 21 0 13
-59 2 -80 -16 -8 -7 -44 -27 -80 -45 -36 -18 -78 -43 -93 -56 -20 -17 -41 -24
-71 -24 -24 0 -46 3 -49 6 -4 4 49 33 116 66 176 85 172 83 169 100 -2 13 9
18 43 23 34 6 45 12 45 25 0 15 -8 18 -50 17 -29 -1 -52 -7 -55 -14 -5 -15
-45 -18 -45 -4 0 5 10 13 21 16 19 6 20 9 6 22 -13 13 -24 12 -93 -7 -75 -20
-130 -33 -199 -46 -16 -3 -57 -12 -90 -20 -33 -7 -72 -14 -87 -14 -31 0 -89
31 -85 45 7 22 313 78 420 77 27 -1 58 3 70 8 37 15 157 12 157 -3z m3595 -27
c114 -14 165 -27 165 -44 0 -43 -262 -479 -320 -531 -14 -13 -22 -13 -65 0
-28 8 -74 27 -102 41 -29 14 -80 29 -113 33 -33 4 -65 12 -70 17 -9 9 9 40
208 334 56 84 102 157 102 163 0 10 9 9 195 -13z m-2305 1 c0 -4 -8 -19 -18
-32 -28 -36 -34 -59 -17 -59 19 0 19 -14 0 -30 -22 -18 -45 4 -45 43 0 22 9
38 33 58 33 29 47 35 47 20z m944 -69 c55 -37 104 -75 109 -83 7 -11 -4 -39
-42 -106 -28 -50 -58 -96 -66 -103 -8 -7 -15 -20 -15 -29 0 -10 -12 -28 -26
-42 l-26 -24 -99 105 c-54 58 -102 115 -105 127 -4 16 9 42 51 100 69 94 95
123 109 123 6 0 56 -31 110 -68z m-724 -4 c22 -27 40 -56 40 -64 0 -17 -62
-87 -103 -116 l-30 -21 -18 22 c-10 12 -21 39 -25 59 -4 20 -10 42 -15 48 -10
12 91 135 104 127 4 -3 26 -27 47 -55z m235 44 c27 -19 87 -106 100 -142 18
-51 12 -65 -58 -138 l-51 -52 -24 37 c-13 21 -39 68 -58 106 -33 64 -34 69
-19 97 20 39 74 100 89 100 6 0 16 -4 21 -8z m-560 -142 c36 -154 76 -296 90
-321 8 -14 30 -74 51 -135 20 -60 51 -136 68 -169 76 -141 174 -307 236 -400
37 -55 78 -116 91 -136 13 -20 60 -84 104 -143 125 -167 165 -223 234 -331 98
-155 141 -226 141 -236 0 -5 5 -9 10 -9 6 0 10 -7 10 -16 0 -9 9 -29 21 -45
21 -29 21 -34 10 -207 -7 -97 -16 -211 -21 -252 -5 -41 -12 -111 -16 -155 -9
-112 -13 -119 -80 -110 -52 6 -54 6 -54 -17 0 -13 5 -29 12 -36 9 -9 8 -15 -7
-25 -24 -18 -14 -59 20 -77 14 -7 25 -16 25 -20 0 -4 -20 -55 -45 -114 -55
-132 -95 -191 -132 -200 -15 -3 -136 -10 -268 -16 -249 -11 -435 -23 -590 -40
-141 -15 -295 -20 -295 -10 0 6 4 10 9 10 5 0 47 37 94 83 95 94 134 116 173
98 45 -20 77 -13 128 31 l48 41 -7 76 c-4 49 -17 99 -36 143 -18 40 -29 84
-29 111 0 91 -14 138 -128 422 -19 50 -46 107 -60 129 -13 21 -30 57 -38 79
-8 23 -35 80 -61 127 -26 47 -67 126 -93 175 -26 50 -78 151 -117 225 -39 74
-105 203 -147 285 -43 83 -83 157 -90 165 -7 8 -41 69 -76 135 -35 66 -73 134
-85 150 -13 17 -32 48 -44 70 -12 22 -32 56 -44 75 -17 27 -22 51 -22 110 -1
41 -9 117 -19 168 -10 52 -15 100 -12 107 2 7 19 16 35 20 17 4 48 22 68 41
l36 34 178 20 c98 11 200 20 226 20 127 1 300 70 395 157 l62 56 11 -34 c7
-19 20 -68 30 -109z m-1325 111 c0 -5 -15 -12 -32 -16 -47 -9 -135 -42 -163
-61 -22 -15 -152 -43 -197 -44 -35 0 -17 18 35 34 299 93 357 107 357 87z
m4106 -15 c123 -25 174 -40 174 -53 0 -13 -103 -208 -120 -228 -10 -11 -27
-39 -39 -62 -22 -43 -87 -135 -172 -240 -38 -47 -57 -63 -75 -63 -37 0 -224
98 -224 118 0 8 31 63 68 121 38 58 104 175 148 260 49 96 86 156 99 162 11 4
20 8 21 8 0 1 54 -10 120 -23z m-3553 -2 c97 -8 117 -22 117 -78 l0 -44 -78
-21 c-94 -25 -92 -25 -92 -5 0 8 14 20 30 25 17 6 30 15 30 20 0 16 -34 9 -75
-16 -54 -33 -91 -33 -67 1 4 5 25 21 46 34 34 21 37 25 20 31 -10 4 -40 8 -66
8 -50 1 -56 7 -35 33 12 17 59 28 85 21 8 -1 46 -6 85 -9z m-538 -23 c17 -7
13 -11 -29 -29 -66 -30 -125 -45 -144 -37 -14 5 -13 9 8 25 14 11 34 20 45 20
11 0 31 7 45 15 28 16 46 17 75 6z m4448 -52 c26 -5 67 -9 91 -9 32 0 48 -6
65 -24 l23 -24 -21 -7 c-12 -4 -21 -15 -21 -27 0 -11 -13 -33 -30 -48 -16 -15
-30 -37 -30 -49 0 -11 -9 -25 -20 -31 -11 -6 -20 -17 -20 -25 0 -8 -9 -19 -20
-25 -11 -6 -20 -19 -20 -30 0 -10 -9 -22 -20 -25 -11 -3 -20 -14 -20 -23 -1
-22 -16 -40 -62 -75 -28 -20 -38 -35 -38 -55 0 -21 -7 -30 -29 -39 -19 -7 -31
-19 -33 -33 -2 -16 -14 -27 -35 -34 -18 -6 -46 -25 -61 -43 -27 -28 -28 -33
-14 -47 34 -33 -2 -27 -93 17 -55 27 -95 52 -95 61 0 8 28 52 62 98 34 45 101
148 148 228 144 239 159 264 170 277 10 12 23 12 123 -8z m-2992 -39 c24 -46
49 -108 49 -122 0 -24 -58 -64 -73 -49 -16 16 -47 102 -47 130 0 48 51 78 71
41z m301 -70 c20 -30 46 -71 57 -90 l19 -35 -80 -73 c-46 -42 -87 -72 -96 -70
-23 4 -91 135 -92 175 0 26 8 39 40 64 22 18 40 38 40 45 0 17 41 45 60 42 8
-2 32 -28 52 -58z m896 -10 c55 -38 103 -74 107 -80 8 -13 -21 -54 -128 -184
-48 -58 -93 -106 -100 -106 -6 0 -28 14 -47 31 -19 16 -59 48 -87 70 -29 22
-53 45 -53 52 0 7 30 61 68 120 37 58 75 120 84 136 10 18 25 31 36 31 10 0
64 -31 120 -70z m-3259 -91 c23 -54 44 -114 48 -131 3 -18 18 -64 33 -103 15
-38 47 -124 70 -190 23 -66 62 -154 86 -195 24 -41 44 -82 44 -92 0 -20 -65
-55 -230 -125 -449 -191 -600 -234 -806 -232 -179 2 -244 -14 -336 -85 -19
-14 -42 -26 -51 -26 -9 0 -20 -7 -24 -14 -5 -8 -34 -32 -64 -53 -167 -112
-243 -165 -285 -197 -26 -20 -52 -36 -59 -36 -18 0 -99 47 -119 69 -17 19 -17
22 8 71 14 28 26 57 26 64 0 6 34 45 76 86 90 89 188 206 206 246 42 93 196
280 288 348 30 23 91 71 135 108 44 37 118 92 165 122 210 135 510 256 594
241 24 -5 45 -1 74 14 23 12 47 21 55 21 7 0 18 5 25 12 9 9 5 17 -13 34 -21
19 -25 32 -25 82 0 105 25 93 79 -39z m809 65 c3 -41 3 -42 -35 -46 -21 -3
-41 -3 -45 -1 -9 5 21 76 36 85 25 17 41 3 44 -38z m1883 2 c56 -43 189 -190
189 -209 0 -14 -131 -185 -153 -199 -7 -4 -16 -8 -22 -8 -18 0 -205 283 -205
311 0 17 121 139 138 139 5 0 29 -15 53 -34z m-1765 -4 c-18 -18 -31 -10 -23
12 4 10 13 13 22 9 15 -5 15 -7 1 -21z m4439 -53 c107 -95 243 -195 302 -221
23 -10 45 -23 48 -27 3 -5 37 -21 75 -36 38 -15 73 -32 77 -37 11 -19 -72 -88
-106 -88 -55 0 -273 80 -427 156 -164 81 -196 104 -176 132 23 32 87 157 88
172 1 8 2 18 3 23 3 19 33 0 116 -74z m-4663 39 c-6 -6 -16 -7 -22 -3 -9 6 -9
9 1 16 17 10 34 0 21 -13z m-84 -35 c-2 -18 -10 -29 -22 -31 -12 -3 -17 1 -14
10 3 7 1 21 -4 31 -7 14 -4 17 17 17 23 0 26 -4 23 -27z m-232 -35 c11 -17 -4
-37 -25 -31 -20 5 -35 29 -26 43 6 10 43 1 51 -12z m442 -20 l-3 -43 -104 -3
c-108 -3 -143 7 -120 34 6 8 21 14 33 14 27 0 156 27 164 34 3 3 12 6 19 6 10
0 13 -11 11 -42z m2669 8 c37 -18 97 -44 133 -56 71 -25 100 -45 100 -68 0
-23 -168 -238 -228 -292 -52 -46 -56 -48 -83 -37 -49 20 -229 158 -229 175 0
8 22 41 48 71 26 31 78 98 116 149 37 50 70 92 71 92 2 0 35 -15 72 -34z
m-1352 -19 c8 -13 20 -38 26 -57 7 -19 18 -42 26 -51 29 -34 21 -68 -24 -106
-38 -32 -43 -33 -49 -17 -3 11 -14 39 -25 63 -30 65 -35 132 -14 164 21 33 40
34 60 4z m326 -39 c9 -7 33 -40 54 -73 22 -33 54 -79 71 -102 18 -23 40 -62
49 -87 l17 -45 -31 -40 c-17 -22 -54 -59 -82 -82 l-51 -42 -24 29 c-32 38
-134 190 -134 200 0 4 -11 21 -24 38 -47 62 -45 67 45 145 45 39 85 71 89 71
3 0 13 -6 21 -12z m-1627 -34 c11 -28 6 -111 -6 -121 -16 -12 -90 -33 -114
-33 -11 1 -32 12 -49 25 -38 32 -27 40 73 56 40 7 75 16 78 20 7 11 -22 11
-115 -1 -64 -9 -77 -8 -93 7 -10 9 -18 19 -18 23 0 11 153 32 173 24 9 -3 24
-1 34 5 25 14 30 14 37 -5z m3098 -68 c18 -7 60 -22 92 -32 33 -10 68 -26 79
-35 25 -20 22 -24 -85 -142 -41 -45 -102 -114 -136 -153 -33 -39 -85 -92 -116
-118 l-55 -47 -115 87 c-64 47 -116 93 -116 101 0 15 273 348 293 357 20 9
123 -2 159 -18z m-917 -62 l85 -77 -18 -29 c-28 -43 -193 -208 -209 -208 -15
0 -121 109 -140 145 -14 25 -14 25 96 164 38 48 72 81 82 81 10 0 57 -34 104
-76z m-2414 -25 c3 -15 4 -31 0 -37 -3 -6 -54 -20 -111 -31 -150 -30 -151 -31
-145 -41 4 -6 10 -8 14 -5 5 2 16 -2 26 -9 16 -12 13 -14 -30 -25 -26 -7 -65
-21 -86 -31 -21 -11 -42 -20 -47 -20 -10 0 -42 65 -42 85 0 20 44 42 185 90
22 7 65 22 95 34 30 11 73 20 94 18 33 -2 41 -6 47 -28z m59 1 c0 -5 -2 -10
-4 -10 -3 0 -8 5 -11 10 -3 6 -1 10 4 10 6 0 11 -4 11 -10z m1607 -36 c15 -25
61 -95 101 -156 39 -62 72 -117 72 -124 0 -6 -21 -28 -47 -48 l-47 -36 -22 21
c-37 35 -63 99 -51 126 13 30 -7 57 -32 43 -15 -7 -24 2 -54 59 -20 38 -37 74
-37 82 0 17 60 79 76 79 7 0 25 -20 41 -46z m-1420 10 c2 -6 -6 -14 -19 -17
-13 -3 -49 -15 -81 -27 -43 -16 -62 -19 -70 -11 -18 18 6 33 62 39 28 2 56 11
62 19 14 16 40 14 46 -3z m3473 -55 c76 -38 100 -55 100 -70 0 -16 -61 -93
-106 -134 -6 -5 -16 -18 -20 -27 -10 -18 -128 -150 -243 -270 -35 -38 -70 -68
-76 -68 -7 0 -42 24 -78 54 -36 29 -83 64 -104 77 -21 12 -40 24 -42 25 -7 6
47 73 129 159 47 50 127 139 178 198 113 131 115 131 262 56z m-1115 -41 c111
-77 175 -129 175 -142 0 -13 -179 -177 -243 -223 -31 -22 -38 -23 -59 -12 -38
20 -127 102 -149 137 l-21 32 84 93 c45 52 95 108 111 125 15 18 30 32 34 32
4 0 34 -19 68 -42z m-2607 20 c-3 -7 -25 -20 -51 -29 -26 -8 -50 -19 -54 -22
-3 -4 -14 -7 -24 -7 -10 0 -30 -11 -46 -23 -15 -13 -55 -32 -88 -42 -33 -10
-66 -23 -73 -28 -7 -5 -16 -7 -19 -3 -15 15 15 40 82 68 39 17 83 37 98 45 80
42 183 66 175 41z m127 -28 c3 -5 -1 -10 -10 -10 -9 0 -13 5 -10 10 3 6 8 10
10 10 2 0 7 -4 10 -10z m115 -25 c16 -19 18 -18 -63 -45 -100 -33 -107 -11
-11 35 60 29 59 28 74 10z m-206 -10 c-4 -8 -12 -15 -19 -15 -7 0 -24 -9 -38
-20 -14 -11 -32 -20 -41 -20 -9 0 -34 -9 -56 -20 -22 -11 -51 -20 -65 -20 -14
0 -25 -5 -25 -11 0 -5 -25 -22 -55 -35 -45 -21 -59 -23 -70 -14 -31 26 -27 28
165 107 70 28 167 58 202 62 4 1 5 -6 2 -14z m2074 -27 c15 -17 48 -55 75 -83
26 -29 47 -56 47 -61 0 -11 -157 -154 -169 -154 -12 0 -141 156 -141 170 0 14
139 160 153 160 5 0 21 -14 35 -32z m1877 -8 c31 -16 65 -30 74 -30 20 0 41
-19 41 -37 0 -7 -10 -13 -23 -13 -27 0 -47 -17 -47 -41 0 -11 -13 -22 -35 -29
-23 -8 -35 -18 -35 -30 0 -10 -9 -22 -20 -25 -11 -3 -20 -15 -20 -25 0 -18 -8
-21 -90 -34 -10 -1 -14 -11 -13 -29 2 -24 -2 -27 -32 -27 -20 0 -35 -6 -39
-15 -3 -8 -21 -23 -41 -32 -29 -14 -35 -22 -33 -43 3 -22 -2 -26 -42 -36 -30
-7 -48 -18 -55 -32 -5 -11 -20 -23 -32 -27 -14 -3 -23 -13 -23 -25 0 -28 -41
-26 -69 4 -19 20 -20 27 -10 50 7 14 15 26 19 26 6 0 101 108 238 273 193 231
189 229 287 177z m-3725 -58 c0 -68 -16 -97 -57 -98 -15 0 -40 -4 -55 -8 -48
-14 -32 12 22 35 88 38 96 76 9 45 -54 -18 -63 -18 -54 5 5 13 110 78 128 79
4 0 7 -26 7 -58z m127 -104 c38 -62 98 -169 133 -238 34 -69 66 -129 70 -135
4 -5 67 -127 140 -270 73 -143 154 -299 181 -346 27 -47 61 -112 75 -145 15
-32 35 -71 46 -86 52 -75 191 -411 203 -491 l6 -42 -108 -52 c-59 -28 -121
-54 -138 -57 -16 -2 -41 -8 -56 -11 -22 -6 -31 1 -77 62 -29 37 -82 104 -118
148 -36 44 -74 98 -86 120 -11 22 -49 79 -84 126 -35 47 -92 135 -127 195
-132 228 -151 251 -437 534 -212 211 -301 310 -378 421 -35 52 -35 52 36 88
l44 22 126 -132 c127 -133 352 -315 377 -305 6 2 20 51 29 108 45 264 55 350
56 471 0 70 4 127 9 127 4 0 40 -51 78 -112z m-419 80 c-2 -6 -29 -17 -60 -24
-31 -7 -73 -24 -93 -38 -21 -15 -46 -26 -57 -26 -11 0 -28 -4 -38 -10 -14 -7
-20 -6 -24 7 -4 9 -5 16 -4 17 2 1 30 14 63 30 87 41 221 69 213 44z m95 -25
c11 -10 -13 -33 -34 -33 -12 0 -19 7 -19 20 0 14 7 20 23 20 13 0 27 -3 30 -7z
m2793 -4 c16 -5 70 -42 121 -81 70 -53 93 -76 93 -93 0 -17 -29 -48 -107 -117
-59 -51 -123 -108 -142 -125 -19 -18 -41 -33 -50 -32 -9 0 -45 33 -81 73 -36
40 -84 86 -107 102 -24 16 -42 35 -40 42 2 12 266 240 279 241 4 1 19 -4 34
-10z m-2977 -71 c10 -26 -9 -48 -40 -48 -24 0 -69 -21 -69 -32 0 -13 21 -10
94 13 62 20 104 20 92 0 -3 -4 -26 -14 -50 -21 -25 -7 -53 -21 -62 -31 -27
-30 -61 -24 -84 14 -33 53 -24 77 40 103 69 29 69 29 79 2z m2022 -17 c78 -90
109 -130 109 -138 0 -12 -99 -93 -114 -93 -6 0 -26 22 -44 48 -18 26 -48 69
-67 96 l-35 48 48 39 c26 21 52 38 58 39 7 0 27 -18 45 -39z m-1851 19 c0 -5
-4 -10 -10 -10 -5 0 -10 5 -10 10 0 6 5 10 10 10 6 0 10 -4 10 -10z m2253 -34
c42 -28 138 -131 137 -146 -1 -3 -46 -42 -102 -87 l-101 -82 -33 27 c-18 15
-56 58 -85 96 l-54 69 85 78 c47 43 90 78 95 78 6 0 32 -15 58 -33z m-2053
-85 c-1 -98 -41 -366 -58 -383 -10 -10 -136 88 -239 186 -105 100 -105 100 16
164 66 36 84 42 96 32 23 -19 18 -26 -22 -43 -102 -41 -143 -62 -143 -75 0 -7
6 -11 13 -8 79 33 167 42 167 18 0 -5 -14 -24 -31 -43 -28 -31 -29 -34 -11
-37 11 -2 28 -12 38 -23 9 -10 23 -19 30 -19 22 0 27 -21 8 -41 -22 -24 -5
-50 20 -30 10 8 16 9 21 1 17 -27 26 9 24 96 -3 90 -2 95 24 122 32 34 34 42
7 42 -28 0 -36 27 -16 49 9 10 16 29 16 43 0 31 9 41 27 27 8 -8 13 -34 13
-78z m2874 -31 c30 -11 193 -147 200 -167 7 -16 -50 -72 -141 -140 -35 -26
-63 -50 -63 -55 0 -4 -5 -8 -12 -8 -6 0 -34 -17 -62 -39 -80 -61 -92 -65 -116
-41 -11 11 -20 24 -20 29 0 5 -22 38 -50 72 -27 34 -50 67 -50 73 0 11 270
285 282 286 4 0 18 -4 32 -10z m-1009 -132 c36 -45 65 -87 65 -94 0 -13 -69
-73 -107 -93 -21 -11 -27 -5 -90 75 -38 48 -68 91 -68 96 0 14 117 108 127
102 4 -3 37 -41 73 -86z m428 46 c64 -43 177 -163 177 -187 0 -23 -269 -223
-290 -215 -10 3 -170 248 -170 259 0 4 17 19 37 35 21 16 66 54 101 86 35 32
70 58 78 58 8 0 38 -16 67 -36z m-2407 -25 c8 -14 -18 -31 -30 -19 -9 9 0 30
14 30 5 0 12 -5 16 -11z m3265 -119 c6 0 9 -12 7 -27 -2 -21 -12 -32 -39 -45
-23 -11 -39 -26 -43 -42 -5 -21 -13 -25 -49 -28 -38 -3 -42 -6 -45 -30 -3 -24
-8 -28 -36 -28 -25 0 -35 -5 -39 -20 -3 -11 -13 -23 -24 -26 -10 -4 -30 -18
-45 -32 -21 -19 -25 -29 -17 -39 9 -10 5 -13 -21 -13 -37 0 -70 24 -70 51 0
19 39 54 73 65 12 4 41 24 63 44 23 21 61 51 85 66 24 16 64 45 89 65 50 40
69 49 88 43 8 -2 18 -4 23 -4z m-1163 -64 c16 -14 43 -51 60 -83 17 -32 42
-73 56 -92 35 -48 33 -63 -16 -98 -87 -62 -78 -64 -156 45 -95 134 -102 145
-102 159 0 11 105 91 122 92 3 1 20 -10 36 -23z m590 -101 c60 -90 69 -115 37
-115 -8 0 -30 -11 -49 -24 -40 -27 -260 -136 -274 -136 -15 0 -95 128 -87 140
7 11 296 230 305 230 3 0 33 -43 68 -95z m113 -145 c44 -24 10 -80 -49 -80
-55 0 -87 -21 -85 -53 2 -24 -2 -27 -27 -27 -20 0 -35 -8 -46 -25 -14 -21 -24
-25 -67 -25 -40 0 -48 -3 -39 -12 21 -21 13 -28 -33 -28 -33 0 -45 -4 -45 -15
0 -18 -28 -33 -53 -29 -16 2 -18 -2 -12 -23 6 -24 4 -25 -22 -19 -15 4 -39 9
-52 10 -14 2 -29 14 -37 28 -13 26 -13 26 62 63 65 32 79 36 100 26 36 -16 44
-14 44 14 0 15 9 30 23 38 77 47 171 97 182 97 7 0 19 7 26 16 13 15 82 52
102 53 5 1 17 -4 28 -9z m-496 -85 c28 -44 33 -60 25 -74 -10 -19 -87 -51
-121 -51 -20 0 -69 59 -69 83 0 17 96 95 117 96 7 1 28 -24 48 -54z m-4829
-56 c3 -6 26 -19 50 -29 24 -11 44 -23 44 -28 0 -5 -13 -25 -28 -46 -26 -35
-32 -38 -87 -42 -67 -5 -120 9 -129 33 -5 11 11 33 51 70 57 52 85 64 99 42z
m5044 -233 c0 -35 -9 -95 -20 -132 -11 -38 -27 -89 -34 -114 -7 -25 -32 -133
-56 -240 -56 -261 -52 -252 -108 -248 -43 3 -46 5 -55 38 -9 36 2 202 28 425
8 66 17 147 20 179 8 72 30 95 92 96 41 0 63 13 43 25 -27 17 -3 32 58 34 l32
1 0 -64z m-5192 46 c20 -13 34 -73 20 -89 -9 -11 -17 -10 -45 7 -31 18 -37 19
-61 6 -19 -10 -33 -11 -45 -5 -25 15 -21 24 25 58 41 30 80 39 106 23z m3784
-843 c5 -39 3 -56 -6 -61 -7 -4 -48 -33 -92 -64 -68 -49 -118 -74 -146 -74
-18 0 -6 34 22 60 25 24 29 34 28 73 -1 25 0 48 2 51 12 11 166 75 175 72 6
-1 13 -27 17 -57z m62 -115 c16 -42 6 -70 -33 -92 -21 -12 -47 -22 -57 -22
-57 0 -101 -25 -198 -114 -107 -98 -132 -116 -165 -116 -34 0 -26 44 15 90 63
70 364 267 410 269 12 1 25 -6 28 -15z"/>
<path d="M2575 5208 c-32 -37 -65 -86 -65 -98 0 -5 14 -10 30 -10 26 0 30 -4
30 -27 0 -16 -11 -39 -27 -56 l-28 -28 55 3 55 3 8 48 c6 35 4 56 -7 80 -9 18
-19 49 -23 70 l-8 38 -20 -23z"/>
<path d="M2467 5175 c-20 -14 -37 -30 -37 -35 0 -20 27 -9 60 25 40 41 30 45
-23 10z"/>
<path d="M3483 4939 c-6 -6 -26 -14 -45 -18 -22 -5 -32 -13 -29 -22 2 -8 7
-30 10 -49 6 -32 9 -35 41 -35 27 0 37 5 45 23 8 18 15 21 42 16 38 -7 41 2
18 46 -22 43 -60 61 -82 39z"/>
<path d="M5193 4043 c-20 -7 -15 -30 6 -36 24 -6 31 0 31 25 0 18 -12 21 -37
11z"/>
<path d="M7483 3875 c-8 -22 16 -36 40 -24 23 13 17 33 -11 37 -14 2 -25 -3
-29 -13z"/>
<path d="M5434 3855 c-8 -21 4 -35 32 -35 29 0 32 25 5 40 -26 13 -31 13 -37
-5z"/>
<path d="M5803 3832 c-37 -17 -40 -24 -19 -41 23 -19 70 -10 74 15 5 33 -18
44 -55 26z"/>
<path d="M4802 3828 c7 -21 36 -34 49 -21 6 6 8 16 5 22 -10 15 -59 14 -54 -1z"/>
<path d="M6235 3770 c-22 -25 -13 -50 19 -50 30 0 49 28 35 53 -13 22 -32 22
-54 -3z"/>
<path d="M5050 3730 c0 -23 17 -25 42 -6 21 16 13 26 -19 26 -16 0 -23 -6 -23
-20z"/>
<path d="M6679 3681 c-20 -16 -22 -21 -10 -35 20 -24 65 -17 69 11 5 33 -30
48 -59 24z"/>
<path d="M1660 3648 c0 -25 12 -58 21 -58 10 0 12 31 3 54 -7 19 -24 21 -24 4z"/>
<path d="M4717 3694 c-10 -10 12 -44 28 -44 8 0 15 4 15 8 0 13 -36 43 -43 36z"/>
<path d="M5320 3646 c0 -19 31 -30 41 -14 4 6 5 16 3 20 -9 14 -44 9 -44 -6z"/>
<path d="M7043 3663 c-7 -3 -13 -18 -13 -34 0 -31 16 -37 51 -19 15 9 17 15 9
29 -11 21 -29 30 -47 24z"/>
<path d="M7398 3579 c-10 -5 -18 -21 -18 -34 0 -31 29 -34 55 -5 15 16 15 22
5 35 -15 17 -19 18 -42 4z"/>
<path d="M5641 3474 c-33 -41 -8 -69 40 -44 25 14 25 46 0 60 -16 8 -23 5 -40
-16z"/>
<path d="M4904 3536 c-9 -24 4 -48 23 -44 12 2 18 12 18 28 0 29 -32 41 -41
16z"/>
<path d="M4607 3564 c-32 -17 -34 -29 -6 -44 28 -16 49 -5 49 24 0 33 -9 37
-43 20z"/>
<path d="M6024 3344 c-16 -23 -16 -26 -1 -41 13 -14 21 -14 42 -5 27 12 33 40
13 60 -19 19 -36 14 -54 -14z"/>
<path d="M6482 3363 c-18 -7 -43 -59 -36 -77 3 -8 13 -17 22 -21 20 -8 75 48
70 72 -3 18 -36 32 -56 26z"/>
<path d="M5152 3343 c-17 -3 -22 -10 -20 -26 4 -31 54 -37 63 -8 6 21 0 42
-13 40 -4 -1 -17 -4 -30 -6z"/>
<path d="M4447 3393 c-10 -9 -8 -25 3 -43 7 -12 12 -12 29 4 16 15 18 22 10
33 -12 14 -32 17 -42 6z"/>
<path d="M4725 3350 c-8 -13 13 -40 31 -40 21 0 25 17 8 34 -18 19 -30 20 -39
6z"/>
<path d="M6812 3185 c-24 -53 -4 -87 38 -65 28 15 35 48 14 71 -23 26 -39 24
-52 -6z"/>
<path d="M7151 3096 c-30 -31 -26 -80 6 -84 29 -4 63 59 47 85 -16 26 -28 25
-53 -1z"/>
<path d="M4312 3223 c4 -22 43 -25 43 -3 0 8 -11 16 -23 18 -19 3 -23 0 -20
-15z"/>
<path d="M4544 3159 c-3 -6 3 -21 15 -33 19 -18 23 -19 31 -6 18 28 12 50 -14
50 -14 0 -28 -5 -32 -11z"/>
<path d="M5399 3116 c-15 -33 -5 -58 22 -54 30 4 47 33 33 56 -17 27 -42 26
-55 -2z"/>
<path d="M4921 3100 c-19 -17 -21 -23 -11 -35 26 -31 66 -10 56 29 -8 31 -13
32 -45 6z"/>
<path d="M5714 2907 c-54 -47 -2 -77 64 -37 37 23 40 35 13 50 -30 15 -47 12
-77 -13z"/>
<path d="M4400 2985 c0 -10 7 -15 18 -13 21 4 19 22 -2 26 -10 2 -16 -3 -16
-13z"/>
<path d="M4745 2876 c-16 -12 -17 -16 -6 -30 7 -9 19 -16 26 -16 15 0 45 32
45 48 0 16 -42 15 -65 -2z"/>
<path d="M6104 2795 c-13 -51 46 -77 68 -30 14 30 -3 55 -38 55 -17 0 -25 -7
-30 -25z"/>
<path d="M5188 2809 c-24 -13 -24 -59 0 -59 9 0 23 10 30 21 18 28 -3 54 -30
38z"/>
<path d="M6331 2554 c-27 -35 -27 -39 8 -54 54 -22 96 13 71 60 -15 28 -54 25
-79 -6z"/>
<path d="M5407 2582 c-21 -23 -22 -51 -2 -58 34 -13 60 41 32 65 -11 8 -18 7
-30 -7z"/>
<path d="M4952 2571 c-21 -13 -10 -46 16 -49 20 -3 23 0 20 24 -3 30 -16 38
-36 25z"/>
<path d="M6623 2480 c-26 -11 -57 -55 -48 -70 3 -5 19 -10 35 -10 23 0 33 7
46 31 13 26 14 34 2 44 -8 9 -20 10 -35 5z"/>
<path d="M5682 2398 c-17 -17 -15 -43 3 -58 18 -15 62 0 71 25 14 35 -46 61
-74 33z"/>
<path d="M4754 2379 c-10 -17 13 -36 27 -22 12 12 4 33 -11 33 -5 0 -12 -5
-16 -11z"/>
<path d="M5125 2320 c-7 -11 12 -50 25 -50 13 0 40 42 34 52 -7 11 -51 10 -59
-2z"/>
<path d="M5912 2138 c-30 -30 0 -78 38 -58 15 8 20 19 18 38 -3 30 -35 41 -56
20z"/>
<path d="M4917 2153 c-12 -11 -7 -43 6 -43 23 0 38 22 26 37 -13 14 -22 16
-32 6z"/>
<path d="M5350 2099 c-16 -29 -5 -51 22 -47 18 2 24 11 26 36 3 27 0 32 -17
32 -11 0 -25 -9 -31 -21z"/>
<path d="M5110 1911 c0 -26 17 -36 36 -21 11 10 12 16 3 26 -17 20 -39 17 -39
-5z"/>
<path d="M5541 1872 c-6 -11 -11 -25 -11 -31 0 -14 30 -14 50 -1 13 8 12 12
-6 31 l-22 21 -11 -20z"/>
<path d="M5232 1668 c6 -18 28 -21 28 -4 0 9 -7 16 -16 16 -9 0 -14 -5 -12
-12z"/>
<path d="M12354 236 c-10 -25 15 -55 51 -62 57 -10 84 25 47 59 -23 21 -90 23
-98 3z"/>
<path d="M12542 200 c0 -14 2 -19 5 -12 2 6 2 18 0 25 -3 6 -5 1 -5 -13z"/>
<path d="M6905 120 c-44 -4 -118 -13 -165 -19 -47 -7 -107 -14 -135 -16 -27
-2 -97 -8 -155 -14 -58 -6 -154 -10 -213 -11 -111 0 -167 -15 -167 -44 0 -10
46 -12 238 -10 130 1 262 8 292 14 30 6 118 11 196 11 110 -1 157 3 219 19 94
24 105 32 80 60 -20 22 -38 23 -190 10z"/>
</g>
</svg>
