<?xml version="1.0" standalone="no"?>
<!DOCTYPE svg PUBLIC "-//W3C//DTD SVG 20010904//EN"
 "http://www.w3.org/TR/2001/REC-SVG-20010904/DTD/svg10.dtd">
<svg version="1.0" xmlns="http://www.w3.org/2000/svg"
 width="1280.000000pt" height="686.000000pt" viewBox="0 0 1280.000000 686.000000"
 preserveAspectRatio="xMidYMid meet">
<metadata>
Created by potrace 1.15, written by Peter Selinger 2001-2017
</metadata>
<g transform="translate(0.000000,686.000000) scale(0.100000,-0.100000)"
fill="#000000" stroke="none">
<path d="M3420 6847 c-82 -31 -161 -97 -240 -202 -52 -68 -189 -200 -280 -269
-41 -32 -106 -88 -145 -125 -135 -129 -303 -281 -361 -326 -116 -89 -272 -195
-345 -232 -69 -37 -194 -109 -404 -234 -91 -55 -175 -126 -175 -148 0 -7 12
-25 28 -40 44 -44 140 -56 452 -55 312 0 570 17 695 44 50 11 130 27 178 36
l88 16 42 -36 c74 -62 161 -150 213 -217 36 -46 61 -68 85 -75 l34 -10 -95
-37 c-52 -20 -108 -39 -125 -43 -16 -4 -62 -21 -100 -39 -39 -18 -104 -43
-145 -56 -41 -12 -151 -52 -245 -89 -93 -37 -195 -75 -225 -85 -30 -10 -84
-31 -119 -47 -35 -15 -77 -29 -94 -31 l-32 -2 -10 86 c-16 134 -26 138 -171
78 -90 -38 -113 -64 -93 -110 22 -55 154 -129 228 -129 16 0 48 -9 72 -20 51
-23 92 -26 107 -7 6 7 12 30 14 51 3 38 5 40 58 58 30 10 73 27 95 37 22 11
112 45 200 76 425 148 562 197 700 248 211 78 200 76 215 30 16 -49 67 -103
98 -103 13 0 46 8 72 17 64 23 100 9 100 -37 0 -24 -4 -31 -17 -29 -10 2 -34
-4 -53 -13 -19 -8 -89 -36 -155 -62 -228 -90 -469 -221 -576 -314 -19 -16 -48
-37 -65 -47 -28 -16 -74 -75 -59 -75 4 0 21 11 38 24 58 43 92 42 45 -1 -34
-30 -63 -43 -98 -43 -34 0 -83 -23 -153 -70 -95 -64 -448 -189 -577 -205 -30
-4 -80 -15 -110 -25 -30 -10 -93 -28 -140 -40 -47 -12 -110 -32 -141 -45 -116
-48 -436 -136 -560 -155 -143 -21 -220 -40 -320 -77 -59 -22 -71 -30 -75 -52
-5 -21 -16 -30 -52 -44 -26 -9 -88 -39 -137 -67 l-90 -50 -8 53 c-4 28 -5 88
-2 132 3 44 7 143 10 220 6 141 26 242 51 252 7 2 24 -3 37 -12 18 -11 27 -13
32 -5 12 19 -5 78 -31 110 -21 24 -34 30 -64 30 -32 0 -44 -6 -69 -37 -17 -21
-30 -47 -29 -62 0 -14 -5 -60 -12 -101 -9 -59 -17 -284 -20 -611 0 -9 -28 -29
-71 -49 -73 -36 -106 -73 -94 -109 3 -10 39 -37 80 -60 l75 -43 0 -54 c0 -29
-4 -56 -10 -59 -17 -11 -11 -39 31 -136 65 -151 68 -172 74 -467 10 -538 15
-654 29 -740 16 -92 30 -487 31 -852 l0 -214 -25 -12 c-14 -7 -47 -19 -75 -27
-100 -29 -87 -66 41 -119 48 -20 90 -41 92 -46 2 -6 -38 -13 -95 -17 -54 -4
-136 -11 -183 -16 -47 -5 -124 -9 -171 -9 -73 0 -89 -3 -104 -20 -10 -11 -15
-26 -11 -36 5 -14 18 -15 94 -10 188 14 337 28 347 34 5 3 136 10 290 14 154
4 433 12 620 18 187 6 489 10 670 10 182 -1 389 -1 460 -1 72 -1 146 -1 165
-1 19 -1 46 0 60 0 14 1 185 4 380 7 195 2 377 9 403 15 26 5 101 10 165 10
64 1 149 6 187 11 39 6 94 11 123 10 30 -1 68 2 85 8 60 18 362 31 737 32 206
0 413 5 460 11 93 11 374 12 1460 3 393 -3 751 -5 795 -4 44 0 94 0 110 0 17
-1 154 -3 305 -6 151 -2 356 -9 455 -14 99 -6 305 -13 458 -16 153 -2 282 -7
286 -9 4 -3 121 -10 261 -16 140 -6 287 -13 325 -16 172 -11 646 -17 845 -10
25 1 68 -2 95 -6 74 -12 645 -11 755 0 91 10 150 26 150 43 0 4 -7 14 -15 22
-11 11 -29 14 -73 10 -39 -4 -62 -2 -66 6 -10 15 -36 14 -55 -3 -12 -11 -58
-15 -186 -18 l-169 -3 -16 27 c-17 32 -29 34 -73 14 -57 -26 -209 -35 -391
-23 -110 7 -179 7 -200 0 -37 -11 -215 -9 -531 6 -126 7 -320 14 -430 17 -110
2 -225 8 -255 14 -30 5 -168 12 -307 15 -138 3 -275 10 -305 15 -29 5 -150 12
-268 15 -118 3 -336 9 -485 14 -148 4 -342 6 -430 3 -256 -6 -1102 -4 -1194 4
-73 6 -86 5 -97 -10 -11 -16 -13 -16 -21 -1 -8 14 -31 17 -174 16 -90 0 -254
-4 -364 -10 -110 -5 -203 -7 -207 -5 -4 3 -83 -2 -175 -10 -93 -8 -251 -16
-353 -16 -102 -1 -255 -5 -340 -11 -85 -5 -256 -13 -380 -18 -124 -6 -272 -15
-330 -20 -125 -13 -623 -37 -945 -47 -281 -9 -244 -9 -400 5 -71 6 -242 12
-380 12 l-250 0 35 27 c69 52 119 113 126 151 12 77 31 103 114 161 22 15 49
24 75 25 35 0 138 44 296 125 8 4 80 41 160 81 79 40 203 107 274 149 72 43
149 88 172 101 23 13 68 40 100 60 224 138 244 148 386 184 76 19 157 35 181
35 24 0 77 6 117 14 127 24 202 36 269 42 36 3 108 15 160 26 200 41 316 67
345 77 17 6 77 24 135 40 58 16 132 39 165 51 33 12 92 33 130 47 129 47 300
115 311 124 6 5 41 20 78 34 83 31 178 79 233 116 23 16 48 29 55 29 7 0 46
-13 85 -30 40 -16 106 -39 145 -50 93 -28 430 -153 483 -180 21 -11 45 -20 53
-20 12 0 121 -34 337 -106 55 -18 134 -43 175 -55 41 -12 79 -26 85 -31 5 -4
21 -8 35 -8 14 0 57 -9 95 -19 39 -11 106 -25 150 -31 44 -7 94 -18 110 -25
17 -8 53 -16 80 -18 28 -3 97 -15 155 -27 217 -45 348 -69 432 -80 49 -6 132
-21 185 -34 138 -33 195 -45 303 -61 52 -8 139 -23 192 -34 54 -11 144 -25
200 -31 57 -6 132 -16 168 -22 36 -6 115 -13 175 -15 61 -2 173 -8 250 -12 77
-5 223 -10 325 -11 102 -2 205 -4 230 -6 125 -9 272 -25 330 -34 36 -6 101
-15 145 -20 152 -16 292 -39 406 -65 63 -14 139 -31 169 -37 30 -5 89 -21 130
-33 41 -13 100 -29 130 -35 56 -13 260 -77 317 -101 29 -12 35 -11 72 14 22
15 46 27 54 27 31 0 137 -130 137 -169 0 -5 -27 -48 -60 -97 -72 -106 -83
-139 -84 -264 l-1 -95 -67 -33 c-81 -39 -85 -55 -37 -139 l31 -54 -88 5 c-49
3 -147 8 -219 11 -158 7 -555 34 -572 40 -7 2 -88 -1 -180 -6 -95 -6 -495 -10
-918 -10 -678 1 -1101 -7 -1500 -28 -144 -8 -175 -14 -175 -36 0 -16 26 -38
38 -32 4 3 57 6 117 8 61 1 153 7 205 14 59 8 133 11 195 7 98 -6 204 -7 620
-4 116 1 228 1 250 1 22 0 191 0 375 -1 184 0 369 -1 410 -1 41 0 215 3 385 7
293 8 319 7 465 -14 153 -22 367 -29 660 -22 112 3 452 -12 610 -28 52 -5 146
-12 209 -15 122 -7 157 0 180 37 25 40 -6 48 -165 47 -78 -1 -146 1 -152 5 -6
3 -71 8 -144 11 -246 9 -316 15 -322 32 -4 10 -1 13 12 9 25 -8 62 20 44 32
-11 7 -10 10 3 16 9 3 24 6 34 6 25 0 88 56 115 103 13 23 27 65 31 92 3 28
17 81 31 118 13 38 24 76 24 86 0 10 14 38 30 63 23 35 39 47 64 52 64 12 120
92 155 221 6 22 18 66 28 98 16 54 16 60 0 111 -28 87 -73 129 -157 147 -19 4
-68 16 -107 26 l-73 19 -64 90 c-120 168 -132 178 -326 282 -36 19 -91 50
-123 68 -32 19 -61 34 -64 34 -5 0 -125 59 -188 94 -16 9 -33 16 -38 16 -7 0
-130 59 -197 94 -89 47 -228 105 -305 129 -98 29 -435 83 -461 73 -9 -4 -58 0
-108 9 -81 13 -283 35 -328 35 -9 0 -29 11 -45 24 -20 17 -36 23 -56 19 -16
-3 -37 1 -52 11 -13 9 -30 16 -36 16 -16 0 -228 80 -264 100 -16 9 -59 25 -95
35 -36 9 -81 23 -100 30 -19 8 -52 16 -72 20 -25 4 -44 15 -60 36 -75 99 -98
117 -240 191 -57 30 -75 95 -88 328 -5 85 -13 172 -18 192 -26 102 -112 203
-252 295 -47 31 -96 64 -110 73 -14 9 -36 21 -50 25 -41 13 -120 66 -120 81 0
8 32 48 70 90 81 87 89 100 124 212 14 45 35 100 46 122 11 21 20 47 20 58 0
10 4 22 9 28 5 5 14 26 21 46 6 21 31 61 55 90 32 39 41 56 33 65 -20 25 -55
14 -88 -26 l-31 -40 -72 6 c-40 3 -78 12 -87 19 -10 10 -11 14 -2 14 7 0 34
16 59 35 43 33 51 35 120 35 41 0 82 -4 92 -10 29 -15 88 7 129 49 50 50 118
103 169 131 43 24 74 73 57 90 -6 6 -47 3 -104 -6 -52 -8 -133 -19 -180 -24
-47 -4 -119 -15 -160 -23 -89 -18 -580 -28 -705 -15 -44 5 -118 12 -164 17
-68 6 -87 12 -100 29 -11 15 -23 20 -39 16 -12 -4 -48 3 -80 14 -31 11 -111
30 -177 42 -66 11 -135 24 -154 28 -36 7 -53 29 -29 36 7 3 51 18 98 34 47 17
117 39 155 51 120 35 222 69 241 79 11 6 42 18 69 28 28 9 82 31 120 49 39 17
95 42 125 55 30 13 132 61 226 107 94 45 176 83 182 83 6 0 23 6 39 14 15 8
44 21 63 30 19 8 55 28 80 42 71 43 217 114 233 114 8 0 25 8 38 19 13 10 35
22 49 26 14 4 35 13 47 21 30 19 132 34 230 34 45 0 103 4 130 10 117 23 220
40 244 40 51 0 42 28 -23 75 -38 28 -56 46 -47 49 8 2 66 7 129 10 143 6 190
18 190 50 0 18 -11 26 -62 44 -35 12 -71 22 -80 22 -10 0 -18 4 -18 10 0 9 10
12 70 23 47 9 134 45 139 58 8 26 -32 39 -120 39 -88 0 -119 5 -119 20 0 5 46
33 101 62 56 29 120 69 142 89 l41 36 -23 13 c-15 7 -40 10 -65 6 -23 -3 -86
-12 -140 -21 -112 -17 -172 -19 -180 -6 -3 5 46 58 109 119 120 115 135 141
99 177 -27 26 -74 5 -184 -84 -41 -33 -136 -93 -210 -132 -74 -39 -157 -84
-183 -100 -27 -16 -60 -32 -75 -36 -15 -3 -36 -12 -47 -19 -11 -6 -54 -17 -95
-23 -143 -22 -254 -54 -332 -97 -15 -8 -46 -21 -70 -29 -24 -9 -77 -29 -118
-47 -41 -17 -102 -42 -135 -55 -33 -14 -88 -38 -123 -54 -34 -16 -69 -29 -77
-29 -8 0 -38 -9 -67 -19 -29 -11 -125 -38 -213 -61 -88 -22 -171 -45 -185 -51
-102 -44 -419 -119 -501 -119 -32 0 -49 -5 -53 -15 -4 -11 -21 -15 -59 -15
-29 0 -77 -6 -107 -14 -30 -7 -136 -17 -235 -20 -99 -4 -224 -11 -277 -16 -76
-7 -104 -6 -130 4 -57 24 -231 46 -361 46 -69 0 -132 3 -141 6 -12 5 -2 22 48
78 58 65 66 80 95 174 30 96 31 107 20 160 -6 31 -15 65 -20 74 -7 12 -3 24
16 42 16 16 25 36 25 55 0 37 39 83 123 147 70 52 160 96 182 88 8 -3 19 -20
24 -37 16 -47 154 -194 191 -202 49 -11 99 20 126 78 22 48 22 52 7 86 -8 20
-20 53 -25 73 -8 28 -32 56 -102 119 -50 44 -111 91 -136 104 -92 46 -232 86
-338 96 -57 5 -121 13 -142 18 -37 8 -104 1 -118 -13 -3 -3 -15 3 -27 14 -21
20 -24 20 -146 5 -441 -54 -652 -66 -824 -46 -55 6 -210 15 -345 21 -183 8
-282 17 -390 36 -80 14 -185 32 -234 40 -49 8 -105 22 -125 30 -50 22 -168 28
-211 11z m685 -162 c50 -3 115 -10 145 -16 30 -6 142 -12 250 -14 107 -1 228
-8 267 -14 86 -13 403 -14 488 -1 185 28 459 40 632 27 88 -6 298 -71 332
-103 30 -28 22 -40 -43 -70 -66 -31 -173 -98 -206 -129 -31 -30 -74 -47 -97
-38 -10 4 -38 22 -62 41 -57 43 -104 42 -109 -1 -2 -16 1 -42 7 -58 10 -28 9
-29 -17 -22 -15 3 -41 12 -59 19 -27 12 -38 11 -77 -3 -43 -16 -46 -16 -65 1
-19 18 -61 15 -61 -4 0 -19 54 -49 98 -55 55 -6 181 -66 229 -108 78 -69 112
-193 79 -286 -22 -60 -101 -168 -136 -186 -28 -14 -31 -14 -62 12 -18 16 -42
33 -53 39 -11 6 -33 37 -50 70 -41 81 -134 204 -186 246 -128 102 -318 210
-464 263 -135 49 -132 48 -370 106 -298 72 -511 155 -604 235 -41 35 -42 38
-25 52 14 10 35 12 74 8 30 -4 96 -9 145 -11z m-353 -150 c35 -8 117 -33 183
-56 66 -22 177 -55 246 -74 69 -18 135 -38 147 -44 11 -6 38 -11 59 -11 45 -1
129 -22 143 -36 7 -7 7 -66 0 -180 -10 -191 -21 -274 -41 -323 -14 -32 -13
-34 18 -60 17 -14 33 -37 35 -51 4 -35 49 -39 79 -9 27 27 40 8 14 -21 -19
-21 -11 -50 8 -31 6 6 20 11 32 11 18 -1 18 -3 -7 -23 -16 -13 -28 -26 -28
-30 0 -12 34 -7 54 8 29 22 49 19 41 -5 -5 -14 -2 -20 9 -20 20 0 20 -14 1
-30 -21 -17 -19 -30 5 -30 28 0 26 -31 -5 -60 -27 -25 -25 -40 6 -40 24 0 24
-4 -2 -39 l-21 -29 22 -30 23 -30 -22 -27 c-25 -33 -18 -48 19 -40 21 5 31 2
39 -12 9 -16 15 -13 60 34 60 63 140 103 203 103 28 0 50 6 58 14 6 8 27 20
46 26 29 10 41 9 70 -5 l35 -17 57 43 c31 24 74 53 94 64 20 11 54 30 75 41
26 15 60 23 108 25 l70 4 3 -42 c3 -41 25 -73 40 -58 4 4 1 10 -5 12 -15 5
-18 43 -4 43 15 0 32 -56 26 -83 -4 -16 -15 -27 -28 -29 -15 -2 -25 -18 -38
-56 -10 -29 -31 -70 -47 -90 -16 -20 -60 -82 -97 -137 -183 -268 -322 -415
-536 -562 -57 -40 -120 -88 -139 -108 -19 -19 -43 -35 -55 -35 -12 0 -59 25
-106 55 -46 30 -102 64 -124 76 -22 12 -73 45 -115 73 -41 29 -116 75 -166
104 -50 29 -106 67 -125 86 -41 40 -79 85 -79 95 0 10 176 41 233 41 26 0 47
-4 47 -10 0 -17 17 -12 68 20 27 17 59 30 72 30 12 0 39 9 59 19 63 33 185 89
211 97 14 4 29 12 35 19 5 7 31 20 58 30 33 12 47 23 47 36 0 25 -13 24 -58
-4 -99 -63 -357 -153 -487 -171 -27 -4 -81 -15 -120 -26 -38 -10 -105 -26
-148 -35 -73 -16 -78 -19 -72 -39 19 -59 13 -69 -45 -83 -30 -7 -71 -12 -90
-10 -32 2 -37 7 -63 60 -22 46 -39 66 -78 89 -45 29 -49 34 -49 70 0 21 -7 52
-15 67 -14 27 -17 28 -123 35 -114 7 -192 -4 -274 -38 -55 -23 -83 -20 -104
11 -9 15 -55 67 -101 115 -46 49 -83 93 -83 99 0 5 9 22 19 37 11 15 22 41 26
58 5 27 1 35 -34 67 -49 44 -93 57 -194 57 -59 0 -98 -7 -155 -26 -96 -32
-131 -53 -111 -65 9 -4 54 4 113 22 62 18 121 29 160 29 125 0 199 -71 116
-112 -54 -27 -354 -86 -465 -92 -399 -23 -583 -27 -640 -17 -33 6 -108 14
-168 18 -121 7 -138 16 -107 56 40 51 154 123 380 239 173 90 365 217 495 328
39 33 105 87 147 120 42 33 86 73 97 89 49 68 348 301 387 301 20 0 149 62
171 82 27 25 48 16 32 -14 -6 -11 -8 -35 -5 -54 4 -18 1 -63 -5 -99 -14 -75
-8 -87 51 -102 54 -14 48 -43 -12 -59 -25 -6 -59 -20 -75 -31 -15 -10 -41 -25
-57 -31 -28 -12 -28 -13 -10 -33 10 -11 32 -28 49 -39 21 -13 36 -33 43 -58 9
-29 27 -51 73 -86 l62 -48 -28 -22 c-29 -23 -28 -46 2 -46 8 0 65 28 127 63
61 35 145 76 186 92 91 34 170 73 170 83 -1 23 -90 93 -139 107 -13 4 -44 22
-68 41 -25 19 -51 34 -59 34 -7 0 -21 11 -30 25 -11 17 -29 27 -55 31 -41 7
-65 26 -54 43 3 6 23 16 45 22 34 10 42 9 68 -10 17 -11 39 -21 50 -21 11 0
40 -16 64 -35 24 -18 62 -47 86 -62 24 -15 61 -43 83 -60 74 -60 77 -43 11 64
-44 70 -106 131 -152 149 -8 3 -50 23 -93 45 -43 21 -91 39 -107 39 -41 0 -55
54 -24 98 14 20 23 22 114 22 54 0 127 -7 162 -15z m5703 -207 c-4 -13 -12
-37 -17 -54 -12 -35 -6 -62 17 -70 8 -4 48 1 88 9 87 20 197 28 197 16 0 -12
-146 -97 -179 -104 -15 -3 -40 -17 -56 -30 -30 -25 -30 -25 -10 -41 14 -11 32
-14 63 -10 49 6 132 -3 132 -15 0 -11 -59 -27 -143 -39 -71 -10 -107 -24 -107
-40 0 -12 65 -30 110 -30 19 0 41 -4 48 -9 26 -16 -16 -32 -105 -38 -48 -3
-94 -10 -100 -16 -27 -20 -12 -44 49 -80 l63 -37 -128 -1 c-70 -1 -162 -2
-204 -3 l-77 -1 -8 30 c-4 17 -4 78 1 136 5 58 7 118 4 132 -8 38 6 117 20
117 7 1 28 14 47 30 19 17 38 30 43 30 4 0 23 11 42 25 46 36 187 115 203 115
9 0 11 -7 7 -22z m-5886 -183 c32 -19 67 -35 75 -35 21 0 132 -56 141 -70 12
-19 -4 -24 -28 -11 -21 11 -27 10 -54 -17 -17 -18 -46 -34 -68 -38 -32 -6 -40
-3 -59 19 -11 14 -32 30 -45 37 -13 7 -43 27 -67 45 -23 18 -48 35 -54 37 -21
7 1 36 38 52 51 21 53 20 121 -19z m5457 -36 c10 -17 -18 -37 -56 -39 -55 -3
-60 -1 -60 19 0 11 6 22 13 24 23 10 96 7 103 -4z m-5551 -90 c53 -49 65 -77
39 -96 -32 -23 -62 -16 -69 17 -4 16 -17 45 -31 65 -13 20 -24 40 -24 45 0 23
44 7 85 -31z m5550 -23 c0 -14 -13 -23 -49 -33 -57 -17 -79 -11 -74 19 3 25
35 37 88 35 27 -2 35 -6 35 -21z m-7 -78 c20 -20 14 -27 -43 -43 -60 -18 -75
-14 -75 16 0 33 91 54 118 27z m-408 -44 c0 -8 -4 -12 -10 -9 -5 3 -10 10 -10
16 0 5 5 9 10 9 6 0 10 -7 10 -16z m-107 -29 c-8 -23 -63 -49 -75 -37 -7 7 3
17 28 31 47 25 55 26 47 6z m527 -14 c0 -20 -105 -72 -127 -64 -36 14 2 53 75
78 42 15 52 12 52 -14z m-689 -59 c-12 -22 -45 -37 -61 -27 -6 4 1 20 17 41
23 31 28 33 41 21 11 -11 11 -19 3 -35z m183 -45 c-4 -11 -17 -17 -36 -17 -35
0 -34 19 3 37 27 14 43 4 33 -20z m506 12 c16 -28 0 -45 -63 -63 -58 -17 -67
-14 -67 18 0 27 17 44 57 56 45 14 62 11 73 -11z m-900 -29 c0 -12 -28 -25
-36 -17 -9 9 6 27 22 27 8 0 14 -5 14 -10z m-2902 -23 c6 -7 12 -35 14 -62 3
-48 4 -50 36 -55 36 -6 47 -23 16 -28 -49 -7 -64 -13 -58 -23 3 -6 -1 -18 -9
-27 -8 -9 -22 -32 -31 -49 -16 -31 -20 -33 -71 -33 -48 0 -55 2 -55 20 0 27
-5 26 -83 -19 -72 -43 -97 -38 -52 9 36 37 15 50 -26 16 -47 -40 -89 -30 -89
20 0 30 84 104 118 104 22 0 64 36 110 94 8 10 28 16 50 16 21 0 47 7 58 15
24 18 58 19 72 2z m3127 3 c3 -5 -1 -10 -9 -10 -9 0 -16 5 -16 10 0 6 4 10 9
10 6 0 13 -4 16 -10z m-845 -45 c-13 -16 -60 -21 -60 -6 0 12 18 19 49 20 20
1 21 -1 11 -14z m280 8 c0 -17 -56 -63 -77 -63 -29 0 -30 23 -1 50 20 19 78
29 78 13z m426 -15 c20 -31 -111 -97 -139 -69 -6 6 -9 12 -6 14 2 2 26 18 53
35 52 34 80 40 92 20z m315 -9 c-13 -11 -21 -22 -17 -26 9 -9 -24 -43 -44 -43
-9 0 -21 -5 -28 -12 -6 -6 -14 -9 -18 -5 -11 11 88 107 110 107 20 -1 20 -1
-3 -21z m-941 -61 c-34 -28 -45 -9 -13 24 24 25 29 27 32 12 2 -10 -7 -26 -19
-36z m1060 12 c0 -5 -4 -10 -10 -10 -5 0 -10 5 -10 10 0 6 5 10 10 10 6 0 10
-4 10 -10z m-1470 -4 c0 -11 -19 -15 -25 -6 -3 5 1 10 9 10 9 0 16 -2 16 -4z
m-1186 -25 c16 -17 16 -22 2 -48 -8 -17 -32 -42 -53 -58 -21 -15 -54 -43 -74
-62 -43 -41 -92 -50 -97 -17 -2 11 4 26 12 33 14 12 14 16 -3 37 -15 18 -18
34 -14 67 3 23 8 44 10 47 2 3 46 7 96 11 51 3 95 6 98 7 3 1 14 -7 23 -17z
m1926 6 c0 -23 -70 -77 -99 -77 -20 0 -11 19 27 54 37 36 72 47 72 23z m433
-3 c13 -13 -24 -64 -51 -70 -15 -4 -39 -13 -54 -21 -39 -19 -36 0 8 53 26 33
42 44 63 44 15 0 30 -3 34 -6z m-2613 -14 c0 -5 -4 -10 -10 -10 -5 0 -10 5
-10 10 0 6 5 10 10 10 6 0 10 -4 10 -10z m381 -13 c-1 -12 -15 -9 -19 4 -3 6
1 10 8 8 6 -3 11 -8 11 -12z m1144 2 c11 -17 -36 -59 -66 -59 -15 0 -31 -4
-34 -10 -10 -16 -25 -11 -25 8 0 17 44 50 85 64 30 9 33 9 40 -3z m486 -11
c10 -18 8 -24 -12 -39 -29 -22 -85 -42 -102 -36 -11 4 79 97 95 97 4 0 12 -10
19 -22z m459 17 c0 -14 -70 -77 -82 -73 -8 3 2 18 27 41 37 34 55 45 55 32z
m-1980 -26 c0 -4 -27 -31 -61 -59 -77 -65 -102 -67 -90 -9 5 24 17 37 59 59
49 26 92 30 92 9z m500 2 c0 -29 -17 -35 -96 -37 -40 -1 -88 -8 -107 -15 -29
-10 -39 -10 -52 1 -14 12 -13 15 12 32 23 15 41 18 96 14 38 -2 71 -7 74 -10
3 -3 17 4 31 14 31 25 42 25 42 1z m387 3 c8 -20 -31 -58 -79 -78 -52 -22 -58
-2 -9 28 22 14 45 35 51 46 13 24 28 26 37 4z m533 -2 c0 -38 -131 -125 -153
-103 -21 21 93 119 141 121 6 0 12 -8 12 -18z m-1560 -2 c0 -5 -4 -10 -10 -10
-5 0 -10 5 -10 10 0 6 5 10 10 10 6 0 10 -4 10 -10z m1260 1 c0 -11 -31 -24
-39 -16 -3 3 1 10 9 15 19 12 30 12 30 1z m730 -14 c0 -15 -42 -62 -76 -84
-23 -15 -26 -15 -42 0 -15 15 -14 18 8 42 13 14 29 25 36 25 6 0 22 9 35 19
25 20 39 19 39 -2z m-1764 -9 c4 -6 0 -16 -9 -23 -10 -7 -17 -17 -17 -23 0
-17 -35 -32 -74 -32 -46 0 -46 14 2 56 38 34 84 44 98 22z m2144 -2 c0 -8 -14
-25 -30 -38 -17 -13 -45 -35 -63 -49 -32 -26 -97 -48 -97 -33 0 17 74 74 95
74 12 0 34 14 50 30 32 33 45 38 45 16z m-2040 -3 c0 -15 -45 -53 -62 -53 -21
0 -24 30 -6 48 13 13 68 17 68 5z m523 -35 c-29 -32 -48 -39 -68 -24 -17 12
-16 15 21 39 28 18 43 22 52 14 10 -8 9 -14 -5 -29z m-125 14 c21 -14 -37 -59
-85 -67 -39 -6 -43 -5 -43 14 0 39 90 76 128 53z m1684 -14 c-6 -6 -15 -8 -19
-4 -4 4 -1 11 7 16 19 12 27 3 12 -12z m-382 -16 c0 -13 -32 -39 -57 -46 -38
-12 -23 16 22 42 24 14 35 15 35 4z m-1470 -9 c0 -3 -57 -65 -127 -138 -209
-214 -359 -390 -342 -401 7 -4 40 23 83 70 62 68 76 78 114 83 62 8 55 -13
-30 -92 -40 -37 -79 -76 -86 -87 -27 -38 -3 -29 47 17 37 35 59 47 83 48 27 2
32 -1 30 -16 -3 -17 -1 -17 25 1 34 25 113 40 113 22 0 -7 -16 -28 -35 -47
-31 -31 -40 -35 -78 -31 -23 3 -48 6 -55 9 -16 5 -59 -47 -49 -58 4 -3 24 -1
44 5 39 12 58 7 33 -8 -11 -7 -8 -11 13 -21 24 -11 30 -10 50 9 30 28 59 38
137 46 36 4 103 15 150 25 47 11 135 26 195 35 165 23 165 23 235 40 36 8 76
15 90 15 l25 0 -25 -13 c-39 -21 -199 -76 -255 -88 -27 -5 -90 -13 -140 -18
-130 -12 -217 -35 -301 -80 -58 -31 -102 -45 -207 -66 -72 -14 -151 -32 -175
-40 -53 -18 -93 -18 -116 -1 -17 13 -17 15 3 52 23 44 27 75 9 75 -6 0 -44
-20 -84 -45 -80 -50 -92 -53 -124 -27 l-22 17 26 92 c14 51 26 101 26 113 0
37 45 44 112 19 65 -24 81 -19 92 29 4 17 64 82 169 182 89 85 178 174 197
198 20 25 47 45 62 49 15 3 33 12 39 19 12 14 49 20 49 7z m-670 -18 c0 -8 -7
-15 -16 -15 -14 0 -14 3 -4 15 7 8 14 15 16 15 2 0 4 -7 4 -15z m1284 2 c18
-13 17 -15 -9 -35 -29 -23 -75 -30 -75 -12 0 12 48 60 60 60 3 0 14 -6 24 -13z
m513 -13 c-18 -15 -36 -23 -47 -19 -11 3 -20 0 -24 -10 -6 -17 -26 -12 -26 6
0 12 77 47 105 48 18 0 17 -3 -8 -25z m-634 10 c11 -11 -27 -65 -48 -69 -11
-2 -31 -6 -45 -9 -14 -2 -35 -8 -47 -11 -35 -11 -30 27 8 56 43 33 114 51 132
33z m1087 -18 c0 -27 -95 -112 -160 -143 -138 -66 -158 -73 -174 -67 -20 8
-20 13 1 36 10 11 30 18 53 18 32 0 43 6 73 43 41 50 100 93 154 113 48 17 53
17 53 0z m-2202 -28 c3 -21 -7 -34 -44 -65 -26 -21 -78 -66 -115 -100 -70 -64
-76 -68 -103 -57 -30 12 -16 42 49 103 68 63 83 85 40 57 -25 -16 -45 -14 -45
4 0 5 9 12 20 15 11 4 34 18 52 33 l31 27 -7 -28 -7 -28 28 19 c86 59 96 61
101 20z m453 15 c-5 -10 -81 -91 -168 -180 -169 -174 -185 -183 -189 -105 -2
36 1 41 25 46 16 4 52 36 96 87 39 45 84 98 100 116 29 33 69 50 123 52 19 1
21 -2 13 -16z m-281 -18 c10 -12 9 -15 -4 -15 -9 0 -20 -10 -25 -23 -20 -51
-71 -61 -71 -15 0 56 68 92 100 53z m120 9 c0 -8 -144 -187 -163 -202 -21 -18
-37 -7 -37 24 0 15 20 45 55 84 30 33 55 64 55 68 0 5 10 14 23 20 24 11 67
16 67 6z m400 -41 c0 -21 -62 -54 -95 -51 -43 4 -45 38 -5 71 30 26 31 26 65
10 19 -9 35 -23 35 -30z m130 25 c0 -6 -7 -20 -17 -30 -17 -19 -77 -25 -88 -9
-7 12 26 31 53 31 11 0 23 7 26 16 6 16 26 10 26 -8z m735 1 c0 -8 -10 -15
-22 -17 -25 -4 -30 7 -11 26 15 15 33 10 33 -9z m-655 3 c0 -13 -23 -32 -39
-32 -11 0 -10 4 4 20 19 21 35 26 35 12z m530 -32 c-31 -25 -40 -25 -40 -2 0
22 40 44 55 30 7 -6 1 -16 -15 -28z m64 -11 c-3 -5 -10 -7 -15 -3 -5 3 -7 10
-3 15 3 5 10 7 15 3 5 -3 7 -10 3 -15z m-374 -22 c0 -20 -36 -49 -56 -45 -22
4 -31 28 -11 28 8 0 20 7 27 15 15 19 40 20 40 2z m-1112 -18 c12 -18 9 -24
-30 -60 -24 -21 -89 -82 -144 -135 -91 -86 -104 -95 -123 -85 -12 7 -21 19
-21 28 0 22 93 112 197 191 45 34 85 67 88 72 9 15 19 12 33 -11z m982 6 c0
-21 -59 -65 -89 -65 -36 0 -53 17 -40 42 13 24 42 35 92 36 25 1 37 -4 37 -13z
m630 -5 c0 -14 -11 -22 -40 -31 -51 -16 -63 -4 -27 27 35 30 67 32 67 4z
m-870 -15 c0 -8 -5 -15 -10 -15 -6 0 -28 -18 -50 -40 -46 -47 -94 -56 -88 -17
2 15 21 32 63 54 67 36 85 40 85 18z m21 -48 c-28 -28 -36 -17 -14 21 15 26
19 28 27 15 6 -10 2 -22 -13 -36z m-198 22 c16 -4 14 -8 -10 -38 -23 -26 -37
-34 -67 -35 -49 -1 -70 24 -43 51 22 23 79 43 92 33 6 -4 18 -9 28 -11z m766
-20 c-5 -10 -19 -20 -29 -20 -11 -1 -25 -2 -32 -3 -25 -2 -17 25 13 43 39 24
66 12 48 -20z m81 2 c0 -12 -29 -23 -41 -15 -5 3 -7 10 -4 15 8 12 45 12 45 0z
m-1795 -73 c-2 -35 -9 -117 -15 -183 -20 -211 -22 -215 -71 -166 -35 36 -39
37 -39 15 0 -9 18 -36 40 -60 32 -35 40 -51 40 -81 -1 -62 -36 -253 -48 -265
-9 -9 -21 -1 -51 31 -56 61 -61 33 -5 -36 l46 -57 -7 -60 c-4 -34 -10 -92 -14
-131 -5 -60 -9 -70 -27 -73 -27 -4 -42 15 -107 138 -48 90 -87 196 -87 235 0
19 70 95 87 95 19 0 42 -29 43 -52 0 -19 15 -24 25 -8 5 8 -26 89 -54 140 -10
18 -13 17 -145 -21 -105 -30 -141 -35 -150 -20 -6 9 48 60 138 131 93 72 180
171 241 276 78 133 135 214 151 214 10 0 13 -15 9 -62z m1395 31 c-22 -39
-130 -84 -130 -54 0 28 46 67 86 75 48 8 57 4 44 -21z m108 19 c-3 -7 -15 -15
-28 -16 -21 -3 -22 -2 -11 12 16 19 44 21 39 4z m-1101 -14 c8 -20 -8 -53 -47
-98 -25 -28 -39 -36 -66 -36 -32 0 -36 -4 -54 -46 -11 -25 -20 -54 -20 -64 0
-33 -56 -144 -114 -224 -60 -83 -68 -106 -21 -56 16 17 34 30 41 30 22 0 44
-30 44 -61 0 -53 73 -49 142 9 40 34 45 22 13 -33 -27 -45 -67 -75 -103 -75
-10 0 -27 -7 -38 -15 -22 -17 -12 -20 16 -5 22 12 38 -4 18 -17 -19 -11 -150
-53 -170 -53 -25 0 -61 83 -55 128 11 81 47 269 58 305 9 25 36 60 83 104 39
37 76 74 81 83 14 24 157 139 173 140 7 0 15 -7 19 -16z m1493 -4 c0 -22 -53
-60 -82 -60 -34 0 -18 30 30 53 26 14 48 25 50 26 1 0 2 -8 2 -19z m-640 1 c0
-15 -49 -69 -69 -76 -10 -3 -31 -1 -46 5 l-29 11 21 20 c31 31 123 61 123 40z
m870 -37 c0 -14 -4 -23 -9 -19 -6 3 -25 -4 -43 -15 -18 -11 -41 -20 -51 -20
-10 0 -29 -7 -42 -16 -29 -19 -31 -13 -8 22 18 29 97 73 131 74 17 0 22 -6 22
-26z m-1030 2 c0 -7 -11 -21 -25 -30 -24 -16 -26 -16 -32 0 -4 11 1 22 12 30
24 18 45 18 45 0z m626 -32 c-5 -14 -66 -21 -66 -6 0 4 15 17 33 30 27 19 33
20 35 7 2 -9 1 -23 -2 -31z m-892 26 c35 -13 24 -37 -22 -50 -55 -15 -72 -13
-72 9 0 20 34 51 57 51 6 0 23 -4 37 -10z m142 -21 c4 -8 -53 -39 -71 -39 -13
0 -3 40 11 48 18 10 51 5 60 -9z m634 1 c0 -5 -10 -20 -21 -31 -18 -18 -29
-20 -69 -15 -37 5 -50 3 -60 -10 -10 -11 -23 -14 -46 -9 -20 3 -41 1 -54 -7
-18 -11 -23 -10 -31 4 -9 16 -12 15 -46 -7 -58 -40 -139 -27 -89 14 35 29 264
66 301 49 18 -8 29 -7 46 6 26 18 69 22 69 6z m-3730 -22 c-1 -7 -33 -28 -73
-46 -55 -25 -86 -32 -129 -32 -128 0 -31 54 152 83 46 8 50 7 50 -5z m4050 -3
c0 -19 -31 -35 -67 -35 l-28 0 30 25 c34 27 65 32 65 10z m-1505 -25 c7 -23
-12 -63 -26 -55 -10 7 -12 58 -2 68 11 12 21 8 28 -13z m1389 1 c6 -10 -21
-35 -49 -45 -55 -20 -169 -35 -182 -25 -20 17 -16 27 19 45 22 11 45 14 77 10
32 -4 52 -1 65 9 22 16 62 20 70 6z m-679 -21 c0 -21 -51 -43 -83 -35 l-27 7
29 24 c31 28 81 30 81 4z m-139 -11 c3 -6 -2 -20 -13 -31 -15 -14 -31 -19 -62
-16 l-43 3 22 28 c16 20 30 27 55 27 19 0 37 -5 41 -11z m-2986 -24 c0 -15 7
-40 16 -56 8 -17 13 -37 10 -45 -8 -22 -72 -18 -96 6 -20 20 -40 61 -40 80 0
14 52 39 83 40 22 0 27 -4 27 -25z m2860 20 c0 -20 -36 -55 -56 -55 -31 0 -39
17 -18 41 15 17 74 28 74 14z m660 -23 c0 -18 -43 -47 -84 -57 -46 -12 -126
-8 -126 6 0 15 39 30 63 24 15 -4 32 1 48 14 24 20 99 30 99 13z m-332 -65 c3
-12 -9 -23 -40 -37 -52 -24 -81 -25 -98 -4 -17 20 4 43 51 54 51 12 83 8 87
-13z m-194 -13 c10 -25 7 -33 -13 -43 -25 -14 -42 6 -30 37 10 26 34 29 43 6z
m-2550 -140 c14 -5 13 -10 -5 -36 -27 -38 -20 -43 25 -21 36 17 38 17 80 -5
l43 -23 6 -182 c7 -193 18 -298 42 -412 8 -38 21 -108 30 -154 8 -47 24 -103
35 -125 44 -90 169 -202 310 -279 36 -19 92 -50 125 -69 94 -54 221 -117 276
-137 30 -11 328 -197 373 -233 17 -13 53 -37 80 -54 28 -17 65 -43 81 -59 17
-15 65 -57 108 -92 42 -36 80 -71 85 -78 10 -18 208 -192 234 -206 26 -14 65
-4 78 22 11 19 9 20 -23 14 -23 -5 -45 -2 -63 8 -37 19 -178 150 -229 212 -37
46 -39 53 -57 179 -19 137 -18 321 3 471 31 223 141 449 278 569 40 35 59 46
75 42 11 -3 48 -11 81 -17 309 -58 532 -134 822 -278 78 -39 145 -71 149 -71
4 0 36 -14 71 -31 61 -30 63 -32 63 -69 0 -38 -32 -124 -50 -135 -6 -3 -10
-16 -10 -29 0 -12 -4 -26 -9 -31 -5 -6 -28 -46 -52 -90 -64 -120 -146 -245
-193 -294 -69 -73 -193 -161 -284 -203 -136 -61 -129 -57 -312 -191 -47 -35
-107 -80 -135 -101 -43 -33 -54 -37 -85 -31 -19 3 -80 10 -135 15 -83 7 -108
6 -147 -8 l-46 -16 -114 58 c-64 32 -165 96 -233 147 -81 61 -168 115 -270
166 -130 66 -212 103 -490 220 -33 14 -86 44 -117 66 -54 38 -57 42 -42 58 9
10 14 25 11 32 -4 12 -27 13 -120 9 -113 -5 -117 -4 -181 26 -75 35 -176 128
-225 206 -45 73 -25 79 53 17 36 -28 70 -51 76 -51 24 0 6 23 -60 75 -92 73
-104 97 -95 189 4 39 11 76 16 82 6 7 4 16 -5 23 -8 7 -17 41 -21 84 -4 40
-11 88 -15 107 -17 67 -33 246 -31 335 2 50 12 135 23 190 11 55 22 115 25
133 7 44 56 72 97 56z m3136 -14 c0 -5 -14 -10 -31 -10 -17 0 -28 4 -24 10 3
6 17 10 31 10 13 0 24 -4 24 -10z m-3375 -20 c3 -6 -6 -15 -21 -20 -28 -11
-64 -5 -64 10 0 17 75 26 85 10z m2825 0 c22 -14 6 -22 -50 -28 -78 -7 -58 17
30 37 3 0 12 -3 20 -9z m-2726 -47 c-3 -27 -10 -77 -15 -113 -19 -117 -27
-274 -18 -325 18 -108 49 -362 49 -410 0 -44 -13 -89 -22 -74 -2 2 -36 38 -76
80 l-73 75 42 84 41 84 -12 73 c-16 91 -42 138 -69 124 -30 -16 -55 19 -47 65
7 35 29 94 47 124 5 8 17 31 25 50 9 19 22 42 29 50 7 8 15 26 18 40 8 33 64
120 77 120 6 0 7 -19 4 -47z m3596 16 c41 -11 93 -26 115 -34 190 -62 345 -79
600 -65 105 6 204 12 220 14 88 9 164 18 193 22 45 7 40 -11 -10 -37 -24 -12
-68 -37 -98 -55 l-55 -34 -165 10 c-182 11 -301 25 -400 45 -36 8 -90 17 -120
20 -30 3 -68 10 -85 15 -66 20 -303 42 -515 48 -165 5 -224 10 -228 20 -2 8 8
12 31 12 19 0 88 9 153 20 200 33 235 33 364 -1z m-3843 -15 c5 -14 -157 -67
-189 -62 -22 3 -21 4 7 22 68 45 173 68 182 40z m3223 -13 c0 -8 -55 -21 -92
-21 -10 0 -18 7 -18 15 0 12 13 15 55 15 30 0 55 -4 55 -9z m-4916 -14 c18
-13 35 -75 36 -129 0 -23 -4 -28 -25 -28 -40 0 -89 24 -118 59 -39 47 -35 68
16 91 51 23 68 24 91 7z m4676 5 c0 -14 -81 -35 -92 -24 -6 6 -7 15 -4 21 8
13 96 15 96 3z m2240 -7 c16 -19 12 -24 -72 -88 -79 -60 -132 -74 -213 -59
l-40 8 45 28 c25 16 56 35 70 44 50 32 96 54 140 67 59 17 56 17 70 0z m-5145
-25 c-3 -5 -31 -16 -62 -25 -41 -12 -59 -13 -67 -5 -15 15 10 30 54 30 19 0
42 4 50 9 16 11 33 4 25 -9z m2713 8 c-5 -15 -68 -24 -68 -9 0 12 18 19 48 20
15 1 22 -4 20 -11z m292 -28 c0 -15 -60 -37 -125 -45 -33 -4 -66 -12 -72 -17
-10 -8 -13 -6 -13 5 0 9 12 18 29 22 16 3 37 15 46 25 12 13 26 17 44 14 14
-3 37 -1 51 4 26 10 40 7 40 -8z m225 10 c9 -14 -59 -41 -121 -47 -94 -10 -71
33 26 48 70 10 88 10 95 -1z m48 3 c-7 -2 -19 -2 -25 0 -7 3 -2 5 12 5 14 0
19 -2 13 -5z m-3578 -13 c-3 -5 -10 -10 -16 -10 -5 0 -9 5 -9 10 0 6 7 10 16
10 8 0 12 -4 9 -10z m3825 -6 c0 -11 -5 -14 -16 -10 -9 3 -22 6 -30 6 -8 0
-14 5 -14 10 0 6 14 10 30 10 21 0 30 -5 30 -16z m-2905 -39 c29 -18 77 -45
107 -60 30 -15 68 -37 84 -50 29 -23 29 -24 9 -40 -11 -8 -36 -24 -55 -35 -19
-10 -57 -42 -84 -70 -44 -45 -51 -58 -60 -113 -5 -34 -9 -100 -9 -147 1 -97
25 -164 89 -252 52 -70 66 -47 18 28 -38 59 -83 194 -84 248 0 24 17 89 27
105 6 8 154 27 159 20 2 -4 1 -27 -4 -51 -15 -79 3 -238 39 -333 29 -77 127
-216 194 -274 71 -63 84 -81 56 -81 -25 0 -127 53 -233 122 -46 30 -109 69
-142 88 -32 19 -72 51 -88 70 -35 41 -72 130 -81 192 -4 23 -13 86 -21 138 -8
52 -17 127 -21 165 -9 96 -15 357 -8 368 8 14 51 -1 108 -38z m1845 35 c0 -5
-5 -10 -11 -10 -5 0 -7 5 -4 10 3 6 8 10 11 10 2 0 4 -4 4 -10z m1215 0 c3 -5
1 -10 -4 -10 -6 0 -11 5 -11 10 0 6 2 10 4 10 3 0 8 -4 11 -10z m-3885 -20
c-14 -11 -41 -20 -60 -20 l-35 0 35 19 c19 10 46 19 60 20 l25 1 -25 -20z
m2951 10 c5 0 9 -4 9 -10 0 -17 -54 -38 -105 -39 -27 -1 -61 -2 -75 -4 -16 -1
-25 3 -25 13 0 10 24 19 80 31 44 9 86 15 93 13 8 -2 18 -4 23 -4z m-413 -12
c-5 -15 -33 -22 -54 -14 -24 9 -6 26 27 26 20 0 29 -4 27 -12z m-768 -21 c0
-31 -149 -150 -183 -145 -21 3 -22 6 -14 54 l8 51 72 26 c81 29 117 33 117 14z
m-1630 -10 c0 -16 -59 -35 -130 -44 -42 -5 -50 -3 -50 10 0 15 17 22 95 40 44
10 85 7 85 -6z m2500 -7 c12 -7 12 -12 3 -21 -15 -15 -68 5 -58 21 8 13 35 13
55 0z m1606 -11 c14 -12 14 -14 -3 -20 -10 -3 -65 -7 -123 -8 -58 -1 -132 -6
-165 -11 -33 -5 -125 -12 -204 -16 -121 -6 -143 -5 -139 7 10 30 51 40 136 35
68 -4 82 -3 73 8 -6 7 -7 16 -3 21 12 13 410 -1 428 -16z m-651 1 c3 -5 -1
-10 -9 -10 -9 0 -16 5 -16 10 0 6 4 10 9 10 6 0 13 -4 16 -10z m-329 -15 c6
-18 -76 -65 -139 -80 -71 -17 -147 -20 -147 -5 0 17 88 70 142 85 58 16 140
16 144 0z m284 1 c0 -26 -127 -64 -218 -65 -48 -1 -82 3 -82 9 0 5 26 23 58
39 51 27 67 30 150 31 72 0 92 -3 92 -14z m-3830 -20 c0 -14 -67 -46 -95 -46
-29 0 -14 21 28 40 50 23 67 25 67 6z m1788 -16 c17 -32 10 -98 -14 -135 -27
-42 -65 -52 -179 -45 -113 6 -132 21 -70 54 19 11 35 25 35 33 0 7 8 13 18 13
10 0 34 16 53 36 36 38 104 76 129 71 8 -1 20 -13 28 -27z m-1638 7 c0 -23
-42 -53 -103 -76 -67 -24 -87 -26 -87 -8 0 22 38 51 99 73 67 26 91 29 91 11z
m3125 3 c-3 -5 -13 -10 -21 -10 -8 0 -14 -7 -14 -15 0 -8 -10 -21 -22 -29 -27
-16 -168 -29 -168 -16 0 20 85 65 134 71 81 10 98 10 91 -1z m1658 -20 c5 -4
-6 -19 -23 -34 -31 -26 -32 -26 -203 -26 -171 1 -207 7 -207 38 0 20 36 27
170 32 144 6 250 2 263 -10z m-1873 1 c0 -5 -14 -19 -30 -31 -37 -27 -173 -48
-194 -31 -9 8 -21 7 -44 -1 -39 -15 -105 -1 -110 24 -4 22 52 33 111 23 54 -9
57 -8 152 8 103 18 115 19 115 8z m-2656 -39 c-12 -19 -122 -64 -136 -56 -16
10 24 46 77 69 53 24 79 19 59 -13z m4036 -14 c0 -4 -72 -8 -161 -8 -124 0
-160 3 -157 13 3 8 47 15 134 22 109 9 133 8 157 -4 15 -9 27 -19 27 -23z
m724 34 c3 -5 -8 -21 -23 -36 -28 -26 -32 -27 -94 -21 -55 6 -65 10 -59 24 3
9 13 21 21 28 18 14 147 18 155 5z m-1174 -29 c0 -20 -84 -14 -88 7 -2 12 7
14 43 12 31 -3 45 -9 45 -19z m-112 5 c-3 -8 -28 -14 -63 -16 -33 -2 -65 -8
-72 -14 -10 -8 -13 -5 -13 10 0 17 7 22 43 25 92 8 109 7 105 -5z m-3966 -42
c-10 -17 -31 -35 -48 -40 -16 -4 -37 -12 -47 -18 -31 -16 -37 2 -13 40 16 26
34 40 62 48 57 16 69 9 46 -30z m298 34 c0 -10 -91 -60 -110 -60 -22 0 -8 31
23 50 34 21 87 27 87 10z m2316 -15 c4 -8 17 -15 29 -15 13 0 26 -4 30 -9 7
-12 -26 -31 -54 -31 -12 0 -21 -7 -21 -15 0 -18 17 -18 100 0 87 19 219 19
244 0 11 -8 17 -17 14 -20 -2 -3 -49 -28 -104 -56 -91 -47 -103 -51 -150 -46
-62 6 -294 74 -311 90 -7 7 -10 21 -7 33 4 15 27 27 97 50 109 36 126 39 133
19z m1017 -6 c-8 -8 -16 -8 -30 0 -16 9 -14 10 12 11 21 0 26 -3 18 -11z
m-2131 -15 c29 -15 30 -18 24 -62 -7 -55 -26 -72 -76 -72 -21 0 -71 -3 -113
-6 -74 -7 -76 -6 -70 14 10 41 145 140 191 142 7 0 27 -7 44 -16z m598 -90
c59 -131 112 -224 149 -260 l29 -29 -10 -120 c-5 -66 -13 -163 -16 -215 -6
-76 -10 -95 -23 -98 -21 -4 -70 57 -114 142 -18 35 -41 75 -50 89 -28 44 -93
247 -111 347 -32 183 -33 171 28 212 29 20 58 36 63 34 6 -1 30 -47 55 -102z
m1360 97 c0 -9 -71 -24 -78 -16 -2 2 -1 8 3 14 7 13 75 15 75 2z m-252 -13
c-5 -14 -40 -26 -81 -27 -18 -1 -26 3 -22 10 16 25 111 41 103 17z m1305 -17
c4 -4 -4 -18 -18 -31 -21 -19 -36 -24 -91 -24 -64 -1 -68 0 -84 29 -10 17 -16
32 -15 35 5 8 199 -1 208 -9z m-4238 -11 c-20 -22 -102 -56 -112 -46 -8 8 -7
9 52 39 62 32 85 35 60 7z m3580 10 c3 -5 -1 -10 -9 -10 -8 0 -37 -13 -63 -30
-29 -19 -60 -30 -82 -30 -19 0 -50 -5 -68 -12 -26 -10 -36 -9 -45 1 -14 14
-14 14 75 64 41 22 62 27 118 27 37 0 71 -4 74 -10z m373 -1 c-3 -10 -40 -27
-110 -49 -37 -11 -308 -23 -308 -13 1 17 103 54 173 62 112 13 249 13 245 0z
m780 -4 c23 -8 12 -31 -25 -50 -32 -16 -67 -20 -221 -23 -249 -5 -277 4 -175
58 l52 27 178 -4 c98 -3 184 -6 191 -8z m-4900 -26 c-35 -48 -160 -129 -198
-129 -20 0 -8 27 35 75 43 49 108 82 163 84 l23 1 -23 -31z m3482 17 c0 -8
-21 -25 -46 -38 -25 -12 -57 -29 -72 -37 -15 -8 -48 -16 -74 -19 -39 -4 -48
-2 -48 11 0 9 15 24 33 33 17 9 35 22 39 28 4 6 42 16 85 22 43 6 79 12 81 13
1 0 2 -5 2 -13z m-3184 -8 c4 -7 0 -16 -10 -22 -10 -6 -30 -20 -44 -31 -33
-25 -120 -56 -127 -45 -10 16 40 63 89 86 58 26 82 29 92 12z m4942 -9 c15 -6
22 -16 20 -27 -4 -18 -2 -18 -213 -14 l-105 2 12 24 c6 15 21 26 37 28 42 6
224 -4 249 -13z m-2019 -23 c9 -11 6 -18 -18 -35 -16 -12 -37 -21 -47 -21 -21
0 -64 38 -64 57 0 19 113 18 129 -1z m-130 -60 l24 -25 -24 -5 c-39 -8 -221
-38 -259 -43 -43 -6 -90 11 -90 32 0 8 4 15 9 15 5 0 30 10 57 22 27 12 76 30
109 38 51 14 67 15 104 4 25 -7 56 -24 70 -38z m-1284 -8 c6 -26 10 -49 8 -51
-7 -7 36 -194 56 -243 37 -94 103 -229 125 -259 13 -16 26 -39 30 -50 3 -12
28 -43 54 -70 45 -46 50 -58 71 -145 31 -130 64 -223 116 -327 24 -49 40 -89
35 -91 -4 -2 -43 24 -86 56 -176 132 -208 154 -320 222 -64 39 -148 87 -185
106 -45 22 -74 44 -83 62 -8 16 -45 58 -81 93 -37 35 -76 82 -87 104 -12 22
-40 67 -64 101 -57 80 -65 102 -77 219 -22 213 -18 225 77 225 33 0 66 -4 72
-8 6 -4 19 -65 28 -137 28 -208 90 -379 187 -520 18 -28 43 -69 53 -93 10 -23
25 -42 33 -42 7 0 13 2 13 5 0 10 -68 138 -125 235 -67 114 -112 249 -126 380
-16 143 -11 180 26 201 17 10 44 19 60 21 29 3 30 1 33 -37 6 -102 67 -345
114 -454 70 -162 132 -266 248 -415 125 -159 139 -175 140 -150 0 11 -12 31
-26 45 -44 41 -147 179 -205 274 -107 176 -212 447 -223 580 -4 39 -9 94 -12
122 -5 51 -4 53 28 73 53 33 79 24 93 -32z m-2042 1 c-29 -49 -52 -69 -79 -69
-21 0 -23 3 -14 19 18 34 71 81 91 81 20 0 20 -1 2 -31z m337 25 c0 -20 -46
-64 -80 -78 -64 -25 -98 -19 -85 17 10 24 165 82 165 61z m1470 -3 c0 -13 -26
-21 -65 -21 -33 0 -51 11 -38 24 10 9 103 7 103 -3z m2160 -10 c0 -13 -27 -21
-68 -20 l-37 1 40 13 c50 16 65 18 65 6z m90 1 c0 -15 -11 -21 -27 -15 -12 5
-12 7 -1 14 17 11 28 11 28 1z m-3492 -29 c-2 -22 -14 -34 -53 -54 -71 -38
-94 -44 -101 -25 -14 35 72 105 129 106 25 0 28 -3 25 -27z m4588 16 c14 -24
-20 -34 -119 -37 -56 -1 -155 -5 -220 -8 -118 -6 -167 -1 -167 15 0 16 117 30
269 30 85 0 156 3 159 6 10 10 71 5 78 -6z m294 1 c12 -7 12 -13 4 -27 -9 -14
-29 -19 -100 -23 -49 -3 -107 -3 -129 0 l-40 5 28 19 c15 10 42 22 60 26 47
11 159 11 177 0z m-1720 -9 c0 -18 -31 -32 -105 -46 -42 -8 -99 -15 -126 -15
-43 0 -49 3 -49 21 0 19 5 20 63 18 34 -1 91 5 127 14 78 19 90 20 90 8z m547
-8 c8 -23 -52 -40 -159 -47 -94 -6 -108 -5 -108 8 0 12 10 16 38 16 21 0 42 3
46 8 8 7 141 31 165 28 8 0 16 -6 18 -13z m138 7 c6 -10 -38 -36 -72 -41 -52
-9 -1 31 64 50 1 1 4 -3 8 -9z m-4652 -66 c-54 -62 -125 -103 -148 -84 -11 9
-23 6 -59 -15 -62 -36 -207 -71 -191 -46 3 5 29 17 58 26 64 21 353 160 362
175 3 6 11 8 16 5 5 -4 -12 -31 -38 -61z m114 41 c-7 -16 -37 -21 -37 -5 0 10
32 31 39 25 2 -2 1 -11 -2 -20z m2892 -35 c80 -17 147 -32 149 -35 3 -3 -19
-28 -48 -57 -63 -62 -162 -193 -195 -258 -35 -70 -72 -196 -85 -297 -15 -113
-5 -330 25 -525 5 -30 4 -48 -2 -48 -16 0 -89 158 -118 255 -15 50 -34 106
-41 125 -24 64 -43 174 -45 260 -2 76 15 253 26 270 3 4 9 48 15 97 5 49 19
115 30 148 11 32 20 65 20 73 0 9 7 23 15 32 14 16 21 16 63 4 26 -8 112 -27
191 -44z m1142 -2 c-13 -10 -36 -18 -51 -18 -15 0 -63 -9 -106 -20 -44 -10
-119 -24 -169 -30 -82 -10 -91 -10 -103 7 -11 16 -11 18 5 21 10 1 43 9 74 17
31 9 64 12 73 9 9 -4 36 -1 59 6 55 15 219 38 231 32 5 -3 -1 -13 -13 -24z
m-3521 -17 c-11 -22 -30 -47 -42 -55 -24 -17 -88 -22 -88 -7 0 18 105 101 128
101 l22 0 -20 -39z m344 17 c13 -51 7 -77 -26 -102 -38 -28 -116 -61 -125 -53
-12 13 17 65 67 120 58 62 74 69 84 35z m2656 7 c25 -30 5 -45 -62 -44 -110 2
-144 23 -73 45 57 17 120 17 135 -1z m-3380 -29 c0 -26 -36 -60 -55 -52 -17 6
-16 9 10 36 31 33 45 38 45 16z m5138 -4 c65 -1 82 -4 82 -15 0 -18 -28 -24
-95 -22 -27 1 -84 3 -125 5 -94 3 -652 -9 -702 -15 -46 -6 -68 2 -68 25 0 26
22 27 455 24 204 -1 407 -2 453 -2z m-4608 -30 c0 -23 -6 -30 -33 -40 -22 -8
-40 -26 -57 -57 -15 -28 -32 -45 -43 -45 -20 0 -37 32 -19 38 20 6 14 22 -8
22 -14 0 -27 -14 -42 -45 -20 -41 -51 -65 -65 -51 -3 3 9 22 26 43 49 59 51
61 51 73 0 19 130 86 173 89 12 1 17 -7 17 -27z m-310 6 c0 -6 -29 -40 -64
-75 -49 -49 -70 -64 -88 -61 -14 2 -24 11 -26 23 -4 31 48 96 88 110 46 16 90
18 90 3z m3940 3 c0 -9 -83 -25 -145 -27 -54 -1 -352 -42 -395 -54 -50 -14
-86 -12 -99 4 -15 18 -2 23 109 36 47 5 117 15 155 21 156 24 375 36 375 20z
m-752 -19 c2 -7 -7 -12 -23 -12 -24 0 -26 2 -15 15 14 17 31 16 38 -3z m-3538
-27 c-15 -19 -50 -20 -50 -2 0 18 42 38 54 26 5 -5 4 -14 -4 -24z m-131 -37
c-25 -34 -80 -64 -104 -55 -14 6 -13 11 11 42 25 34 75 57 101 47 9 -3 7 -12
-8 -34z m294 35 c7 -7 -26 -66 -56 -100 -23 -26 -74 -40 -90 -24 -11 11 34 62
97 109 32 24 39 26 49 15z m495 -40 c3 -19 -29 -53 -50 -53 -14 0 -9 34 8 58
19 27 38 24 42 -5z m3807 12 c0 -6 -10 -23 -22 -39 -20 -25 -32 -29 -105 -37
-46 -5 -142 -19 -215 -31 -124 -20 -134 -20 -190 -5 -88 24 -163 50 -163 58 0
21 397 64 600 64 58 0 95 -4 95 -10z m652 -12 c12 -15 14 -15 33 2 17 15 37
18 132 18 62 0 138 -3 168 -6 30 -4 57 -6 60 -7 2 0 -1 -5 -6 -10 -12 -12 -76
-14 -580 -25 -291 -7 -323 -6 -353 10 -19 9 -30 20 -25 25 12 12 121 16 359
12 169 -3 202 -6 212 -19z m-5372 -3 c3 -5 -12 -29 -34 -52 -37 -39 -41 -42
-56 -27 -15 14 -13 19 25 52 42 38 55 44 65 27z m685 -4 c0 -13 -45 -56 -101
-98 -38 -29 -74 -21 -76 17 -1 21 44 55 75 55 9 1 33 9 52 20 42 23 50 24 50
6z m-965 -25 c-14 -13 -329 -108 -466 -140 -42 -10 -132 -37 -200 -59 -157
-51 -231 -72 -255 -72 -37 0 20 41 65 47 24 3 45 12 48 19 3 8 14 14 25 14 10
0 32 7 49 15 16 9 48 20 72 25 23 5 93 22 156 39 62 17 125 31 140 31 14 0 64
14 111 30 47 17 94 30 106 30 12 0 37 7 55 15 38 16 109 21 94 6z m511 -6 c8
-21 -35 -82 -66 -94 -48 -18 -100 -23 -100 -9 1 21 21 42 80 81 60 40 78 45
86 22z m-376 -2 c0 -14 -37 -64 -58 -79 -36 -25 -153 -56 -190 -50 -26 4 -42
0 -66 -18 -17 -13 -60 -32 -96 -42 -36 -9 -70 -21 -77 -26 -7 -5 -14 -5 -18 2
-3 6 12 28 35 49 34 32 65 46 173 81 73 23 164 53 202 65 76 26 95 29 95 18z
m1159 -37 c9 -11 9 -16 1 -21 -17 -10 -129 -32 -135 -27 -14 14 -1 31 33 45
47 20 86 21 101 3z m-519 -7 c0 -27 -113 -88 -125 -68 -8 12 31 48 68 64 39
17 57 18 57 4z m5220 -4 c0 -8 -11 -22 -24 -30 -19 -13 -73 -16 -307 -20 -156
-3 -342 -10 -414 -15 -350 -28 -442 -41 -429 -62 5 -7 30 -8 78 -3 39 4 136
10 216 15 80 4 190 11 245 14 133 9 404 8 421 -2 12 -6 9 -13 -12 -33 -24 -23
-33 -24 -147 -26 -357 -4 -628 -20 -657 -38 -15 -10 -167 23 -210 45 -21 11
-46 20 -54 20 -9 0 -36 10 -61 22 -55 27 -57 52 -5 56 19 2 85 12 145 22 67
12 152 20 217 19 59 0 115 4 125 9 10 6 129 10 277 11 142 0 261 3 264 6 3 3
79 5 169 5 137 0 163 -2 163 -15z m-4880 -40 c-12 -15 -40 -21 -40 -8 0 3 8
15 17 25 21 23 43 7 23 -17z m-820 15 c0 -24 -54 -59 -115 -74 -78 -19 -108
-20 -103 -3 6 15 34 29 128 60 87 30 90 30 90 17z m738 -22 c-21 -32 -67 -54
-81 -38 -16 16 35 60 70 60 24 0 25 -1 11 -22z m-98 3 c0 -23 -14 -41 -31 -41
-24 0 -25 26 -1 39 22 13 32 14 32 2z m404 3 c22 -9 21 -44 -2 -44 -10 0 -65
-16 -122 -35 -114 -38 -130 -41 -130 -22 0 26 20 40 106 73 89 34 119 39 148
28z m-744 -9 c0 -12 -56 -54 -72 -55 -27 0 -23 39 5 50 25 10 67 13 67 5z
m220 -55 c-16 -22 -29 -30 -52 -30 -23 0 -29 4 -24 16 3 9 6 18 6 20 0 10 85
43 88 34 2 -5 -6 -23 -18 -40z m-400 2 c0 -31 -146 -90 -168 -68 -4 4 10 23
30 42 32 29 45 34 88 34 27 0 50 -4 50 -8z m640 -19 c0 -27 -12 -41 -43 -48
-23 -6 -27 -4 -27 14 0 12 11 26 28 35 35 20 42 20 42 -1z m-1451 -10 c-35
-47 -75 -83 -91 -83 -11 0 -33 -7 -50 -16 -53 -28 -55 -1 -3 47 48 45 91 67
134 68 21 1 22 -1 10 -16z m386 8 c8 -14 -20 -27 -104 -50 -55 -15 -71 -17
-71 -7 0 18 20 33 66 50 46 17 100 20 109 7z m225 -5 c0 -44 -73 -84 -208
-114 -46 -11 -57 -5 -38 18 26 34 60 54 133 81 88 32 113 35 113 15z m471 -5
c-17 -31 -121 -57 -121 -31 0 18 63 50 98 50 29 0 32 -2 23 -19z m268 -28
c-12 -32 -26 -43 -56 -43 -16 0 -23 6 -23 19 0 24 36 51 67 51 20 0 22 -3 12
-27z m-1519 -9 c0 -9 -18 -33 -40 -54 -33 -31 -57 -42 -123 -59 -45 -11 -137
-35 -204 -53 -89 -23 -126 -29 -134 -21 -20 20 13 52 81 78 94 35 329 105 354
105 11 0 28 5 36 10 22 14 30 12 30 -6z m1420 -4 c0 -28 -35 -60 -65 -60 -32
0 -32 11 4 49 33 36 61 41 61 11z m613 -18 c28 -28 44 -60 67 -131 16 -51 39
-108 50 -125 11 -18 17 -35 14 -38 -8 -9 -107 31 -128 52 -19 18 -19 19 13 56
31 35 32 38 15 48 -11 5 -39 13 -63 16 -52 6 -69 30 -22 30 17 0 31 3 31 8 -1
16 -73 52 -105 52 -19 0 -36 4 -39 9 -5 8 97 60 119 61 6 0 28 -17 48 -38z
m-983 18 c0 -29 -68 -70 -116 -70 -33 0 -30 14 9 43 42 33 107 49 107 27z
m800 1 c0 -6 -14 -18 -30 -28 -34 -20 -34 -35 0 -43 13 -3 25 -11 28 -18 5
-16 -54 -16 -64 -1 -16 27 -138 0 -374 -81 -332 -114 -376 -129 -455 -146
-115 -25 -125 -27 -125 -17 0 10 99 43 128 43 10 0 47 11 82 25 35 14 75 25
88 25 13 0 35 9 49 20 14 11 32 20 40 20 7 0 80 24 161 53 81 29 174 63 207
74 33 12 94 35 135 51 76 30 130 40 130 23z m-539 -50 c-14 -27 -28 -40 -48
-44 -15 -3 -36 -9 -45 -12 -31 -12 -21 24 16 61 24 24 43 34 65 34 l31 0 -19
-39z m-820 -10 c-18 -34 -28 -41 -90 -61 -39 -12 -78 -20 -86 -16 -9 3 -18 -1
-21 -9 -4 -8 -10 -12 -15 -9 -15 9 -10 40 9 58 20 18 175 75 205 76 16 0 16
-2 -2 -39z m1124 29 c-3 -5 -12 -10 -20 -10 -7 0 -34 -9 -59 -20 -56 -23 -71
-8 -19 19 40 21 109 29 98 11z m4553 1 c25 -15 -10 -28 -93 -35 -44 -4 -105
-9 -135 -11 -54 -5 -150 19 -150 37 0 7 75 11 280 16 47 1 91 -2 98 -7z
m-5923 -21 c8 -13 -71 -49 -108 -50 -42 0 -29 22 24 42 51 20 75 22 84 8z
m931 -4 c3 -8 -1 -28 -10 -44 -11 -22 -26 -32 -60 -41 -45 -11 -106 -15 -106
-6 0 26 31 57 79 78 65 29 90 32 97 13z m-326 -9 c0 -22 -31 -43 -89 -62 -45
-15 -55 -15 -62 -4 -10 16 8 33 66 60 47 22 85 24 85 6z m-1390 -16 c0 -8 -38
-19 -129 -37 -26 -5 -32 -3 -29 7 3 9 27 16 62 20 31 4 60 9 63 13 10 9 33 7
33 -3z m1960 -8 c0 -11 -52 -34 -59 -27 -8 7 29 34 46 34 7 0 13 -3 13 -7z
m4996 -16 c12 -6 63 -34 115 -61 123 -64 279 -154 303 -175 10 -9 37 -40 60
-69 92 -119 87 -107 85 -207 -1 -49 -5 -94 -9 -100 -4 -5 -10 -39 -14 -75 -4
-36 -23 -123 -44 -194 -35 -122 -35 -129 -18 -141 10 -8 25 -11 33 -8 20 8 53
82 45 101 -3 10 0 13 9 10 8 -3 17 -24 20 -47 6 -47 30 -77 53 -68 9 4 16 18
16 32 0 28 12 32 30 11 6 -8 33 -25 58 -38 51 -24 152 -118 152 -141 0 -34
118 -97 183 -97 34 0 234 -58 279 -81 21 -11 66 -30 100 -43 35 -13 90 -36
124 -50 67 -28 233 -71 309 -80 28 -3 149 -13 270 -22 361 -25 488 -61 840
-237 83 -41 178 -87 211 -101 63 -26 356 -171 452 -222 32 -18 55 -38 58 -51
9 -35 -40 -172 -97 -275 -62 -111 -91 -147 -164 -210 l-55 -47 -82 31 c-46 17
-135 45 -198 63 -63 18 -128 38 -145 44 -78 27 -731 141 -855 149 -39 2 -72
10 -82 19 -9 8 -22 12 -28 8 -6 -4 -84 -2 -173 4 -195 13 -323 19 -562 26
-267 8 -484 28 -615 56 -25 5 -67 11 -95 13 -82 6 -258 33 -288 45 -16 6 -45
11 -66 11 -21 0 -92 11 -158 25 -122 25 -199 38 -333 56 -98 13 -313 56 -370
74 -25 7 -67 16 -95 20 -63 7 -137 23 -195 41 -25 8 -53 14 -62 14 -10 0 -32
6 -50 14 -18 8 -78 22 -133 31 -55 10 -134 28 -175 40 -41 13 -124 38 -185 55
-60 17 -168 52 -240 77 -71 25 -157 54 -190 63 -33 10 -78 26 -100 37 -22 11
-92 37 -155 57 -63 21 -146 51 -185 67 -68 28 -351 132 -409 150 -35 10 -54
-2 -58 -39 -2 -22 -16 -32 -83 -65 -44 -21 -118 -60 -165 -87 -47 -27 -150
-76 -230 -110 -80 -34 -154 -70 -165 -80 -31 -28 -75 -47 -228 -100 -78 -28
-154 -57 -168 -65 -47 -26 -192 -54 -384 -75 -122 -12 -413 -59 -480 -76 -174
-44 -215 -59 -270 -94 -155 -99 -377 -226 -521 -299 -88 -44 -175 -89 -194
-100 -114 -65 -189 -103 -298 -155 -118 -55 -124 -57 -148 -42 -13 9 -24 24
-24 33 0 25 -244 257 -304 289 -28 15 -77 48 -110 73 l-58 44 23 18 c35 27
165 102 288 166 58 31 136 73 173 94 36 22 69 39 73 39 3 0 45 23 91 50 130
77 222 121 229 110 16 -25 163 0 173 30 5 13 -40 11 -110 -6 -44 -10 -33 10
25 46 117 75 227 140 235 140 14 0 145 148 171 193 49 88 94 147 124 166 18
11 38 29 45 40 7 12 20 21 30 21 10 0 67 39 126 88 60 48 159 118 220 155 61
38 132 84 157 103 26 19 53 34 60 34 8 0 59 28 114 61 55 34 141 87 190 117
118 73 278 162 289 162 5 0 33 11 61 25 41 19 59 22 81 16 38 -12 242 -97 274
-115 14 -8 120 -57 235 -110 116 -53 226 -104 245 -114 101 -54 180 -102 221
-132 152 -114 222 -161 289 -193 104 -50 132 -54 170 -26 30 22 33 23 113 10
45 -7 112 -16 149 -18 l66 -5 64 58 c61 56 89 78 198 157 25 18 115 68 200
111 254 128 274 141 355 229 41 44 85 101 98 126 33 64 155 270 179 303 10 15
32 57 49 93 l29 65 58 0 c31 0 73 -5 92 -11 42 -12 430 -19 446 -8 6 5 42 13
80 19 84 12 141 27 149 40 9 14 56 12 81 -3z m-5781 -6 c11 -19 -64 -80 -118
-95 -28 -8 -112 -31 -186 -51 -169 -47 -211 -53 -211 -32 0 26 55 64 104 70
26 4 60 13 76 22 16 8 39 15 52 16 13 0 75 18 138 39 128 42 136 44 145 31z
m-635 -10 c0 -11 -25 -21 -52 -21 -17 0 -18 3 -8 15 13 16 60 21 60 6z m955
-21 c-16 -31 -59 -54 -120 -66 -39 -7 -43 0 -17 34 17 22 101 61 135 62 16 0
16 -2 2 -30z m801 17 c12 -7 37 -25 55 -41 60 -50 404 -259 494 -300 17 -7 63
-26 103 -40 39 -15 72 -33 72 -39 0 -7 -78 -52 -172 -101 -95 -49 -191 -101
-213 -116 -22 -15 -49 -30 -60 -34 -54 -19 -422 -245 -533 -327 -172 -126
-203 -148 -282 -198 -58 -36 -92 -68 -145 -135 -125 -158 -190 -230 -256 -283
-35 -29 -69 -53 -75 -53 -6 0 -19 -9 -28 -19 -10 -11 -61 -45 -114 -77 -53
-31 -138 -83 -188 -116 -50 -32 -172 -96 -270 -142 -99 -46 -222 -109 -273
-140 -50 -31 -95 -56 -98 -56 -11 0 -137 -83 -165 -109 -16 -13 -28 -29 -28
-33 0 -5 20 -18 45 -29 25 -11 45 -26 45 -34 0 -17 -192 -211 -250 -252 -25
-17 -65 -39 -89 -49 l-43 -17 -25 31 c-27 35 -45 36 -114 1 -20 -10 -60 -21
-90 -25 -103 -13 -169 -68 -169 -140 0 -18 -8 -40 -17 -51 -31 -34 -109 -91
-129 -95 -19 -3 -19 5 -16 317 2 176 5 322 7 325 2 3 -3 97 -11 210 -12 184
-28 819 -29 1120 l0 114 55 11 c64 13 181 57 226 84 18 11 62 64 100 118 85
124 78 117 104 103 49 -26 239 -7 395 41 224 67 342 98 434 110 35 5 118 22
185 38 66 17 157 37 201 46 81 16 122 27 185 51 67 25 276 83 387 108 61 14
147 39 190 55 43 16 155 55 248 85 94 30 195 64 225 75 63 23 96 25 126 8z
m-2566 -5 c0 -5 -25 -16 -55 -26 -30 -9 -57 -21 -60 -26 -12 -19 26 -22 74 -6
64 21 78 20 90 -3 8 -14 7 -22 -3 -30 -17 -14 -223 -54 -242 -47 -18 7 -35 51
-28 70 10 27 224 92 224 68z m1000 -1 c0 -18 -84 -81 -116 -87 -40 -7 -66 -3
-71 13 -6 17 67 63 106 68 18 2 36 6 39 9 9 10 42 7 42 -3z m1110 0 c0 -4 -39
-20 -87 -34 -49 -15 -123 -38 -166 -53 -43 -14 -81 -24 -84 -21 -12 13 11 26
89 50 46 14 112 34 148 45 72 23 100 26 100 13z m-1842 -28 c-2 -19 -10 -29
-30 -34 -39 -10 -47 10 -14 38 35 30 48 29 44 -4z m-93 7 c9 -14 -40 -60 -63
-60 -44 0 -34 54 11 63 39 8 46 7 52 -3z m2609 -3 c58 -14 67 -29 32 -52 -27
-18 -50 -11 -93 28 -43 39 -27 44 61 24z m-1224 -45 c0 -31 -36 -54 -107 -67
-75 -14 -97 -5 -64 28 21 21 95 40 121 32 11 -3 20 0 24 10 8 21 26 19 26 -3z
m-820 -12 c0 -15 -40 -28 -170 -55 -63 -14 -140 -31 -170 -40 -62 -17 -110
-20 -110 -5 0 5 19 14 43 20 23 6 92 24 152 40 172 47 255 60 255 40z m578
-48 c10 -7 8 -12 -5 -25 -18 -16 -55 -26 -193 -53 -41 -8 -95 -19 -120 -25
-80 -18 -120 -22 -120 -10 0 6 10 13 23 15 110 24 338 82 362 92 36 16 37 16
53 6z m356 -3 c-15 -25 -124 -53 -124 -31 1 26 29 38 98 41 22 1 31 -3 26 -10z
m-1952 -16 c9 -10 19 -29 22 -43 14 -48 61 -147 127 -262 22 -37 39 -77 39
-90 0 -12 -19 -60 -42 -105 -45 -90 -77 -118 -137 -122 l-34 -2 32 36 c17 20
31 41 32 48 1 7 3 31 5 54 4 48 -11 63 -64 63 -34 0 -55 20 -46 44 18 46 -59
60 -135 26 -24 -11 -45 -20 -46 -20 -9 0 -25 110 -25 169 0 57 3 71 23 88 20
19 214 132 228 133 3 0 13 -8 21 -17z m336 -11 c4 -13 -104 -48 -178 -58 -70
-9 -66 24 5 40 157 37 166 38 173 18z m806 9 c11 -16 -35 -61 -72 -70 -63 -16
-122 -22 -122 -12 0 18 44 64 74 77 35 15 112 18 120 5z m-209 -31 c13 -20
-28 -60 -83 -80 -64 -24 -152 -38 -152 -24 0 6 12 25 28 43 20 24 44 37 92 51
75 21 106 24 115 10z m825 -7 c0 -13 -89 -45 -106 -39 -24 9 -11 31 19 31 14
0 29 3 33 8 4 4 18 7 31 7 13 0 23 -3 23 -7z m-200 -27 c0 -29 -43 -48 -186
-81 -82 -20 -180 -44 -219 -54 -38 -11 -113 -29 -165 -40 -52 -12 -113 -26
-135 -32 -54 -14 -217 -48 -232 -49 -22 0 -13 14 23 37 19 12 87 36 152 54 64
17 146 39 182 49 36 9 92 23 125 30 33 6 89 20 125 31 36 10 111 28 167 39 56
11 112 24 125 29 26 10 38 6 38 -13z m-1183 -23 c3 -7 -14 -17 -39 -23 -24 -7
-51 -16 -61 -21 -9 -5 -37 -12 -60 -15 -33 -5 -46 -2 -56 10 -19 22 -13 26 71
47 80 20 139 21 145 2z m303 -4 c0 -6 -17 -29 -39 -50 -34 -34 -45 -39 -84
-39 -49 0 -62 9 -52 39 12 38 175 84 175 50z m1090 -9 c0 -5 -7 -10 -15 -10
-8 0 -15 5 -15 10 0 6 7 10 15 10 8 0 15 -4 15 -10z m-55 -19 c-15 -13 -75
-31 -103 -31 -36 0 -16 17 33 29 53 12 81 13 70 2z m-715 -20 c0 -4 -17 -11
-37 -14 -21 -3 -46 -8 -55 -12 -13 -5 -18 -2 -18 8 0 9 8 18 18 20 31 8 92 7
92 -2z m-580 -15 c0 -16 -3 -17 -118 -57 -83 -28 -112 -29 -112 -4 0 18 4 21
101 49 97 29 129 32 129 12z m1095 -15 c-12 -12 -120 -41 -152 -41 -48 0 -20
18 50 33 89 18 114 20 102 8z m-720 -20 c-3 -6 -14 -11 -23 -11 -15 1 -15 2 2
15 21 16 32 13 21 -4z m-1165 -61 c3 -83 3 -83 -77 -45 -52 24 -61 37 -44 64
10 15 102 42 113 32 3 -3 7 -26 8 -51z m1060 40 c0 -5 -4 -10 -10 -10 -5 0
-10 5 -10 10 0 6 5 10 10 10 6 0 10 -4 10 -10z m-216 -25 c8 -21 -15 -39 -65
-53 -24 -7 -69 -21 -99 -31 -62 -20 -80 -18 -80 10 0 10 -6 19 -12 19 -34 1
31 30 66 30 23 0 64 9 91 20 60 23 91 25 99 5z m34 -87 c22 -22 13 -37 -25
-43 -21 -4 -68 -16 -105 -28 -57 -17 -69 -18 -83 -7 -15 12 -14 15 7 26 13 8
32 14 43 14 11 1 40 12 65 25 50 27 80 31 98 13z m-663 -91 c-8 -12 -26 -38
-39 -57 -40 -61 -129 -87 -143 -43 -7 21 43 67 110 99 74 35 98 36 72 1z m128
-41 c9 -22 -62 -81 -151 -126 -83 -42 -124 -48 -130 -20 -2 11 21 27 70 50 39
19 94 52 122 73 53 39 80 46 89 23z m-9 -115 c7 -10 -102 -99 -151 -125 -42
-21 -66 -20 -87 3 -23 26 -16 36 36 50 24 6 70 26 103 46 61 35 89 42 99 26z
m-53 -121 c-13 -11 -33 -20 -45 -20 -18 0 -17 2 9 19 41 26 68 27 36 1z
m11399 -1368 c0 -4 21 -32 47 -61 l47 -54 -20 -36 c-11 -20 -47 -78 -79 -130
-32 -52 -62 -109 -67 -127 -10 -38 -57 -124 -67 -124 -8 0 -58 52 -89 94 l-22
28 51 57 c46 51 139 221 139 254 0 7 7 22 15 33 8 10 15 28 15 40 0 11 3 24 7
27 9 9 23 9 23 -1z m-10334 -311 c64 -41 189 -152 204 -181 8 -15 0 -30 -43
-80 -59 -69 -190 -163 -216 -155 -35 11 -286 147 -290 157 -2 5 -24 19 -50 30
-44 19 -45 20 -26 35 11 8 79 56 150 108 72 51 137 100 144 109 22 26 64 19
127 -23z m-716 -239 c0 -12 -170 -93 -181 -87 -13 8 -11 42 2 51 14 8 137 41
162 43 9 0 17 -2 17 -7z m-2 -64 c27 -27 13 -57 -40 -91 -116 -74 -177 -107
-197 -107 -12 0 -21 -6 -21 -15 0 -17 -36 -39 -50 -30 -24 15 13 49 151 138
16 11 29 27 29 37 0 21 19 38 69 61 45 22 44 22 59 7z m348 -13 c8 -21 -11
-42 -71 -76 -82 -47 -87 -36 -19 40 46 51 80 64 90 36z m36 -145 c104 -25 129
-25 161 0 29 23 42 13 33 -26 -7 -25 -5 -26 36 -22 34 2 42 0 39 -12 -2 -8 -6
-32 -9 -53 -5 -45 -22 -55 -54 -33 -12 9 -30 16 -39 16 -9 0 -33 14 -54 30
-39 31 -72 37 -103 20 -22 -12 -154 -50 -176 -50 -22 0 -20 17 4 32 29 18 25
28 -11 28 -28 0 -30 2 -18 16 8 9 14 23 14 31 0 18 42 42 72 43 12 0 59 -9
105 -20z m-312 -40 c0 -33 -130 -134 -148 -115 -8 8 39 54 93 91 56 38 55 38
55 24z m-236 -18 c8 -13 -81 -101 -109 -108 -27 -7 -55 0 -55 13 0 8 140 103
152 103 4 0 9 -4 12 -8z m-42 -104 c-7 -7 -12 -8 -12 -2 0 14 12 26 19 19 2
-3 -1 -11 -7 -17z m308 12 c0 -5 -4 -10 -10 -10 -5 0 -10 5 -10 10 0 6 5 10
10 10 6 0 10 -4 10 -10z m-490 -49 c19 -5 48 -12 63 -15 15 -4 25 -10 22 -15
-6 -11 -99 -5 -125 9 -10 6 -23 10 -27 9 -19 -3 -33 2 -33 11 0 12 53 13 100
1z m790 -26 c18 -9 29 -20 25 -23 -12 -13 -300 -40 -367 -34 -38 3 -68 8 -68
11 0 10 101 43 140 47 19 2 60 8 90 13 70 12 140 7 180 -14z m10480 -145 c0
-5 -8 -10 -17 -10 -15 0 -16 2 -3 10 19 12 20 12 20 0z m45 -150 c3 -5 -1 -10
-10 -10 -9 0 -13 5 -10 10 3 6 8 10 10 10 2 0 7 -4 10 -10z m25 -40 c0 -5 -4
-10 -10 -10 -5 0 -10 5 -10 10 0 6 5 10 10 10 6 0 10 -4 10 -10z"/>
<path d="M3360 5698 c0 -16 80 -68 104 -68 25 0 1 32 -45 58 -43 25 -59 28
-59 10z"/>
<path d="M3453 5532 c70 -56 470 -135 484 -96 9 26 -26 41 -95 42 -68 2 -326
53 -363 72 -10 6 -28 10 -40 10 -19 0 -18 -3 14 -28z"/>
<path d="M6087 4072 c-36 -39 -5 -82 33 -47 24 22 26 51 4 59 -21 8 -19 9 -37
-12z"/>
<path d="M5966 3901 c-21 -23 -18 -54 6 -59 21 -4 51 39 42 62 -8 21 -27 20
-48 -3z"/>
<path d="M6605 3753 c-35 -7 -75 -25 -75 -33 0 -4 26 -3 58 2 54 9 210 4 260
-9 40 -10 20 -35 -60 -80 -57 -32 -89 -59 -126 -106 -28 -34 -109 -122 -180
-195 -141 -143 -172 -193 -136 -219 19 -14 56 -17 67 -6 4 3 -2 17 -14 29
l-22 23 29 33 c16 18 81 82 144 142 168 161 176 169 184 199 5 23 21 34 81 62
58 26 80 42 96 70 14 23 27 34 38 31 9 -2 40 -8 69 -11 49 -6 54 -5 50 11 -2
13 -15 21 -39 24 -19 4 -46 14 -59 23 -21 14 -49 17 -185 16 -88 -1 -169 -3
-180 -6z"/>
<path d="M5880 3711 c-15 -28 -12 -61 5 -67 24 -10 45 15 45 52 0 27 -4 34
-20 34 -10 0 -24 -9 -30 -19z"/>
<path d="M5846 3484 c-23 -22 -20 -43 9 -56 41 -19 75 28 43 60 -16 16 -33 15
-52 -4z"/>
<path d="M4647 3462 c-18 -20 -23 -52 -8 -52 10 0 41 45 41 60 0 16 -15 12
-33 -8z"/>
<path d="M4767 3385 c-19 -40 -21 -55 -8 -55 14 0 50 62 44 77 -8 21 -18 15
-36 -22z"/>
<path d="M4906 3329 c-17 -25 -22 -59 -8 -59 4 0 16 14 26 31 23 39 7 63 -18
28z"/>
<path d="M5010 3268 c-18 -30 -18 -48 -2 -48 9 0 42 54 42 69 0 21 -21 11 -40
-21z"/>
<path d="M5867 3249 c-21 -12 -22 -52 -2 -69 22 -18 65 12 58 40 -7 27 -34 41
-56 29z"/>
<path d="M5116 3211 c-22 -23 -24 -30 -13 -39 14 -12 19 -9 55 39 23 30 -13
30 -42 0z"/>
<path d="M6619 3177 c-11 -32 -56 -62 -103 -69 -11 -2 -21 -9 -24 -15 -2 -9
11 -13 48 -13 94 0 165 53 142 105 -17 36 -48 32 -63 -8z"/>
<path d="M5227 3162 c-19 -21 -23 -66 -6 -60 6 2 18 16 27 31 21 34 4 57 -21
29z"/>
<path d="M5316 3078 c-20 -28 -20 -38 -2 -38 14 0 46 36 46 52 0 17 -30 7 -44
-14z"/>
<path d="M5878 3049 c-22 -12 -23 -42 -2 -60 31 -26 70 25 44 56 -14 17 -19
18 -42 4z"/>
<path d="M5427 3032 c-10 -10 -17 -24 -17 -30 0 -19 28 -14 40 7 21 41 6 55
-23 23z"/>
<path d="M5516 2949 c-25 -19 -36 -49 -18 -49 14 0 52 40 52 55 0 19 -2 19
-34 -6z"/>
<path d="M5957 2913 c-20 -20 8 -73 38 -73 19 0 28 35 15 60 -10 19 -40 27
-53 13z"/>
<path d="M5590 2845 c-23 -25 -23 -25 -2 -25 21 0 52 24 52 41 0 17 -27 9 -50
-16z"/>
<path d="M5700 2790 c-27 -27 -26 -44 3 -29 22 12 37 28 37 42 0 13 -20 7 -40
-13z"/>
<path d="M6066 2801 c-10 -16 5 -42 23 -39 21 4 21 42 -1 46 -9 2 -19 -1 -22
-7z"/>
<path d="M5788 2719 c-20 -11 -24 -39 -7 -39 20 0 49 21 49 35 0 17 -17 19
-42 4z"/>
<path d="M5862 2648 c-7 -7 -12 -16 -12 -20 0 -13 37 -9 49 5 20 24 -14 38
-37 15z"/>
<path d="M3008 2122 c-46 -24 -68 -41 -68 -54 0 -18 -89 -114 -124 -133 -10
-6 -17 -18 -15 -29 4 -17 6 -17 31 3 14 12 34 21 43 21 33 0 55 20 55 50 0 19
5 30 14 30 7 0 25 15 40 34 14 19 49 47 78 63 28 15 53 34 56 41 7 22 -41 11
-110 -26z"/>
<path d="M2570 1566 c0 -7 7 -27 15 -42 24 -47 20 -57 -20 -51 -19 3 -35 4
-35 2 0 -11 74 -53 86 -48 18 7 18 37 -1 73 -15 28 -14 29 17 35 l32 7 -23 19
c-27 22 -71 25 -71 5z"/>
<path d="M2450 1542 c0 -13 23 -32 38 -32 7 0 10 4 7 10 -9 14 -45 32 -45 22z"/>
<path d="M2520 1360 c-12 -8 -12 -10 2 -15 26 -10 43 -2 26 12 -8 7 -19 8 -28
3z"/>
<path d="M2420 1336 c-9 -12 -4 -19 30 -36 63 -32 86 -7 26 29 -40 25 -40 25
-56 7z"/>
<path d="M2288 1252 c-9 -4 -26 -19 -38 -34 -24 -31 -51 -36 -70 -13 -12 14
-40 21 -40 10 0 -3 17 -20 38 -40 50 -46 76 -46 101 3 18 35 22 38 55 34 47
-5 50 21 5 37 -18 6 -32 11 -33 10 -1 0 -9 -3 -18 -7z"/>
<path d="M1910 1196 c0 -7 30 -33 68 -57 37 -23 77 -52 89 -63 30 -26 34 -19
27 38 -7 46 -7 46 -30 31 -13 -8 -25 -15 -28 -15 -3 0 -26 18 -51 40 -47 41
-75 51 -75 26z"/>
<path d="M1884 5087 c-9 -25 0 -51 19 -55 12 -3 17 3 17 21 0 31 -27 57 -36
34z"/>
<path d="M1880 4955 c0 -8 5 -15 10 -15 6 0 10 7 10 15 0 8 -4 15 -10 15 -5 0
-10 -7 -10 -15z"/>
<path d="M1650 4930 c0 -23 22 -27 39 -6 9 11 8 15 -5 20 -26 10 -34 7 -34
-14z"/>
<path d="M1860 4890 c0 -5 7 -10 16 -10 8 0 12 5 9 10 -3 6 -10 10 -16 10 -5
0 -9 -4 -9 -10z"/>
<path d="M1710 4880 c0 -21 33 -60 51 -60 29 0 33 20 8 46 -23 24 -59 33 -59
14z"/>
<path d="M1800 4767 c0 -21 47 -60 64 -54 23 9 20 33 -6 51 -27 19 -58 21 -58
3z"/>
</g>
</svg>
