<?xml version="1.0" standalone="no"?>
<!DOCTYPE svg PUBLIC "-//W3C//DTD SVG 20010904//EN"
 "http://www.w3.org/TR/2001/REC-SVG-20010904/DTD/svg10.dtd">
<svg version="1.0" xmlns="http://www.w3.org/2000/svg"
 width="1280.000000pt" height="796.000000pt" viewBox="0 0 1280.000000 796.000000"
 preserveAspectRatio="xMidYMid meet">
<metadata>
Created by potrace 1.15, written by Peter Selinger 2001-2017
</metadata>
<g transform="translate(0.000000,796.000000) scale(0.100000,-0.100000)"
fill="#000000" stroke="none">
<path d="M5550 7924 c-48 -44 -102 -150 -141 -279 -36 -119 -72 -212 -99 -258
-18 -30 -26 -36 -45 -31 -41 10 -64 -4 -75 -47 -6 -22 -8 -44 -5 -49 3 -5 -8
-39 -25 -76 -21 -46 -30 -82 -30 -118 0 -57 -41 -157 -78 -190 -12 -10 -36
-41 -54 -69 -32 -49 -39 -67 -98 -235 -35 -101 -113 -239 -199 -351 -77 -101
-83 -132 -52 -237 26 -89 29 -233 5 -289 -8 -21 -27 -77 -40 -124 -14 -47 -35
-108 -48 -136 -13 -27 -31 -67 -41 -87 -9 -20 -48 -71 -86 -112 -52 -57 -69
-84 -69 -105 0 -34 -15 -70 -54 -130 -25 -40 -27 -48 -17 -80 18 -63 67 -129
112 -151 49 -25 255 -45 384 -37 91 6 110 -1 129 -48 16 -36 83 -132 109 -153
21 -18 30 1 47 91 19 102 36 112 140 78 32 -11 56 -25 58 -34 8 -41 -129 -259
-225 -359 -47 -48 -40 -73 18 -65 79 10 234 129 352 270 27 31 53 57 58 57 5
0 15 -12 21 -26 11 -23 8 -33 -17 -81 l-30 -55 25 -20 c18 -14 32 -18 56 -13
18 3 35 1 39 -5 3 -5 -26 -43 -65 -84 -55 -57 -101 -91 -198 -149 -70 -41
-139 -77 -154 -81 -15 -3 -69 -32 -120 -64 -182 -115 -273 -181 -298 -221 -14
-21 -44 -63 -68 -92 -24 -30 -65 -80 -90 -113 -26 -32 -64 -78 -84 -103 -21
-24 -38 -48 -38 -53 0 -11 -141 -201 -172 -232 -73 -73 -162 -231 -177 -313
-5 -27 -12 -98 -16 -156 -6 -96 -4 -116 19 -200 44 -164 176 -380 220 -363 14
5 17 14 13 40 -4 24 0 40 14 59 27 33 42 32 83 -10 20 -19 42 -35 49 -35 21 0
37 23 31 46 -4 15 8 30 47 62 28 23 58 42 67 42 10 0 13 7 9 22 -8 27 10 66
67 153 50 74 76 146 76 205 0 27 11 52 45 98 75 103 116 171 172 284 61 125
90 150 193 168 36 6 85 16 110 22 54 14 98 14 110 2 6 -6 -1 -31 -16 -63 -22
-44 -24 -58 -15 -78 9 -19 8 -31 -5 -55 -15 -28 -15 -34 1 -69 16 -34 18 -64
15 -164 -1 -54 8 -75 36 -75 22 0 24 -2 13 -22 -10 -18 -8 -24 7 -34 11 -7 27
-21 36 -30 9 -9 23 -14 31 -11 7 3 19 -4 25 -14 16 -25 29 -24 38 4 7 24 33
57 45 57 4 0 9 -15 11 -32 3 -32 4 -33 46 -30 36 2 42 0 42 -18 0 -24 20 -26
61 -5 39 20 51 12 37 -25 -13 -37 -5 -62 18 -53 23 8 36 -18 19 -37 -22 -24
-84 -167 -100 -229 -30 -113 -64 -237 -74 -266 -5 -16 -14 -46 -20 -65 -22
-80 -91 -260 -123 -326 -66 -135 -160 -247 -228 -274 -19 -7 -39 -17 -45 -20
-5 -4 -37 -15 -70 -25 -50 -14 -69 -26 -117 -76 -32 -33 -58 -65 -58 -71 0 -6
-20 -39 -45 -75 -25 -35 -45 -69 -45 -75 0 -6 -30 -56 -67 -111 -75 -112 -75
-122 -3 -147 51 -18 56 -28 36 -67 -14 -29 -15 -29 -158 -42 -79 -6 -175 -16
-214 -21 -72 -9 -158 -44 -184 -75 -28 -34 -73 -58 -123 -64 -37 -4 -52 -10
-52 -21 0 -13 29 -15 200 -15 110 -1 208 -3 219 -5 25 -7 47 27 26 40 -8 5
-22 7 -30 4 -26 -9 -211 8 -207 19 8 24 59 50 134 67 86 20 246 28 463 22 120
-4 468 6 511 13 26 5 47 1 75 -13 21 -10 73 -22 114 -26 153 -15 236 -25 290
-35 30 -5 83 -10 117 -10 57 -1 62 -3 70 -27 10 -31 93 -63 164 -64 39 0 54
-6 98 -42 57 -46 66 -79 29 -99 -31 -17 -392 -27 -892 -25 -309 1 -402 -1
-415 -11 -15 -12 -14 -14 3 -27 15 -13 92 -14 520 -9 659 8 810 6 1001 -13
175 -18 185 -18 295 -15 82 3 199 24 233 43 12 6 40 12 62 13 25 0 53 9 72 23
17 12 36 22 42 22 6 0 15 9 21 20 6 11 17 20 25 20 8 0 41 20 72 45 l58 44
165 -9 c92 -5 206 -14 255 -21 84 -11 435 -7 665 8 224 15 718 3 731 -18 3 -6
20 -18 36 -27 17 -9 49 -31 71 -48 35 -27 52 -32 119 -37 144 -10 273 -1 323
22 25 12 66 21 93 21 26 0 61 7 78 16 19 9 38 12 52 8 12 -5 36 -9 52 -10 17
-1 55 -4 85 -7 79 -6 347 22 399 42 42 15 165 38 356 66 167 24 196 25 405 19
124 -3 387 -5 585 -3 528 4 570 3 645 -21 36 -11 82 -20 103 -20 36 0 37 1 31
28 -9 38 -10 39 -41 45 -16 3 -46 10 -68 16 -22 6 -83 16 -135 21 -52 6 -108
15 -125 19 -16 5 -84 14 -150 20 -228 22 -670 86 -733 106 -13 5 4 35 49 90 9
11 19 32 23 46 3 14 38 57 77 95 80 78 91 94 79 114 -7 12 -12 12 -22 2 -15
-15 -64 -16 -74 -1 -3 6 26 44 68 88 41 42 99 105 127 140 50 61 52 64 34 83
-17 19 -17 21 5 56 13 20 39 71 59 111 39 83 36 108 -11 103 -31 -3 -33 8 -6
33 31 28 26 59 -15 78 l-36 17 20 37 c26 50 61 162 61 196 0 39 -33 35 -59 -6
-25 -38 -26 -27 -6 50 23 87 20 135 -10 163 -14 13 -25 31 -25 40 0 10 -8 28
-18 41 -10 13 -23 37 -30 53 -11 24 -17 27 -39 22 -23 -6 -25 -5 -20 19 3 19
-2 35 -18 53 l-23 27 -37 -18 c-20 -9 -40 -15 -45 -12 -4 3 -18 25 -29 49 -15
29 -54 71 -117 126 -94 82 -95 82 -126 69 -30 -12 -33 -11 -57 18 -49 58 -105
67 -182 28 l-50 -26 -36 31 c-28 25 -41 30 -62 25 -14 -3 -36 -8 -47 -9 -12
-1 -29 -10 -39 -19 -30 -31 -53 -39 -76 -27 -16 9 -32 7 -72 -9 -29 -11 -71
-25 -94 -31 -23 -6 -45 -15 -48 -20 -3 -6 -14 -10 -24 -10 -18 0 -92 -71 -110
-107 -7 -15 -21 -23 -37 -23 -19 0 -26 -6 -31 -31 -3 -18 -15 -35 -28 -41 -28
-13 -59 -54 -69 -90 -9 -37 -31 -35 -47 4 -7 17 -29 50 -50 74 -24 27 -52 81
-77 147 -22 57 -54 126 -71 152 -17 27 -31 59 -31 71 0 12 -7 40 -15 64 -10
29 -12 47 -5 60 14 26 12 68 -5 118 -11 32 -15 76 -13 157 3 105 1 115 -20
144 l-23 32 20 27 c36 51 42 102 16 132 -7 8 -16 41 -20 73 -4 40 -14 66 -33
89 -17 20 -25 41 -24 58 4 33 -14 80 -30 80 -30 1 -41 16 -28 41 13 23 13 23
-30 109 -4 8 -19 16 -34 18 -24 3 -39 22 -17 22 15 0 24 41 12 53 -6 6 -11 21
-11 33 0 13 -11 35 -25 50 -14 15 -24 33 -21 41 3 7 1 15 -4 18 -10 6 -100
184 -100 198 0 6 -12 35 -26 65 -15 31 -32 74 -38 96 -11 38 -15 41 -51 44
-51 4 -59 19 -29 55 24 28 33 77 14 77 -5 0 -10 17 -10 38 0 32 -4 40 -27 49
l-28 10 26 11 c33 13 42 46 25 86 -17 40 -43 63 -92 79 -34 12 -40 19 -50 58
-10 42 -12 44 -52 47 -48 4 -71 24 -52 47 6 8 9 19 5 26 -9 14 -131 69 -155
69 -10 0 -23 7 -30 15 -8 9 -21 13 -36 9 -19 -5 -37 8 -102 73 -78 77 -177
141 -245 157 -16 4 -50 26 -75 49 -67 61 -115 95 -146 103 -14 3 -26 11 -25
18 5 39 -5 63 -43 100 -24 22 -48 52 -54 66 -7 18 -19 26 -40 27 -51 4 -104
15 -109 23 -3 4 -1 28 4 53 5 29 4 50 -2 56 -5 5 -10 40 -11 78 -1 44 -9 84
-22 113 -16 35 -21 68 -22 148 -1 56 -6 110 -11 120 -6 9 -13 38 -16 64 -4 28
-16 60 -29 75 -33 40 -46 68 -46 99 0 32 -34 90 -61 104 -10 6 -19 20 -19 31
0 11 -19 40 -42 65 l-42 46 3 82 c2 79 1 84 -23 104 -17 12 -26 30 -26 47 0
20 -13 39 -48 70 -26 23 -54 54 -61 69 -8 14 -21 28 -30 31 -30 9 -59 94 -60
175 0 41 -3 86 -6 100 -3 14 1 42 10 63 9 21 15 66 15 109 0 86 -21 138 -62
152 -29 10 -73 -6 -228 -84 -41 -20 -86 -41 -100 -45 -14 -4 -65 -27 -114 -51
-48 -24 -95 -44 -102 -44 -8 0 -32 9 -54 20 -21 11 -67 22 -102 25 -34 3 -75
10 -90 16 -23 9 -33 8 -54 -6 -19 -12 -38 -16 -68 -12 -32 5 -49 1 -81 -19
-24 -14 -55 -24 -78 -24 -31 0 -39 -4 -47 -25 -8 -21 -14 -24 -40 -19 -16 4
-43 1 -60 -6 -27 -11 -32 -10 -61 14 -36 31 -79 34 -104 6 -27 -29 -48 -32
-91 -12 -70 32 -110 61 -143 102 -24 30 -39 40 -61 40 -16 0 -42 11 -59 25
-29 25 -223 125 -241 125 -6 0 -28 -16 -50 -36z m100 -98 c69 -68 126 -116
139 -116 16 0 29 -38 23 -67 -5 -26 -33 -44 -99 -63 -49 -15 -78 -42 -70 -65
9 -22 38 -19 104 11 103 46 100 45 131 19 25 -21 34 -23 87 -16 33 4 70 12 81
19 12 6 48 16 80 22 156 29 173 22 69 -29 -36 -18 -65 -36 -65 -41 0 -20 43
-30 132 -30 110 0 127 -9 95 -51 -28 -39 -14 -53 50 -46 26 2 76 7 111 11 70
7 82 -5 23 -22 -84 -26 -71 -59 29 -71 33 -4 62 -10 65 -13 4 -3 -13 -19 -37
-35 -46 -31 -56 -56 -23 -61 73 -11 84 -27 40 -56 -28 -19 -32 -38 -11 -55 12
-10 29 -3 90 38 88 60 108 87 80 108 -11 8 -29 12 -41 10 -35 -6 -30 29 4 38
57 14 72 50 26 61 -72 17 -70 25 10 56 124 48 98 81 -56 71 -110 -7 -141 9
-52 27 60 13 73 23 54 46 -11 13 -39 15 -206 9 -129 -4 -193 -3 -193 4 0 13
86 51 116 51 12 0 55 12 95 26 53 19 84 25 118 21 35 -4 51 0 73 16 24 18 40
20 127 19 58 -2 117 -9 142 -17 58 -21 65 -19 269 66 14 6 47 22 73 36 54 28
78 25 70 -7 -4 -13 -28 -32 -65 -51 -66 -33 -77 -52 -83 -139 -2 -30 -5 -64
-7 -75 -5 -30 28 -30 71 -1 20 14 46 26 58 26 26 0 90 70 99 107 4 16 20 54
36 87 40 79 52 63 34 -45 -28 -158 -37 -258 -26 -278 21 -41 -42 -141 -115
-181 -49 -27 -55 -48 -17 -65 29 -13 28 -20 -10 -95 l-31 -63 22 -19 c24 -19
22 -48 -3 -48 -17 0 -26 -21 -26 -61 0 -16 -11 -50 -24 -76 -67 -132 -101
-209 -98 -226 2 -11 -6 -25 -17 -34 -12 -8 -21 -25 -21 -37 0 -13 -8 -34 -18
-47 -10 -13 -21 -32 -25 -41 -3 -9 -25 -29 -47 -43 -25 -16 -47 -40 -56 -61
-17 -40 -20 -41 -44 -11 -23 27 -69 28 -187 2 -67 -14 -83 -21 -83 -36 0 -12
10 -21 28 -25 45 -9 73 -24 67 -33 -3 -5 -30 -15 -61 -22 -72 -16 -93 -31 -75
-53 7 -8 28 -18 47 -22 64 -12 53 -47 -19 -58 -44 -7 -87 -30 -87 -46 0 -6 23
-10 50 -10 61 0 65 -15 8 -30 -24 -6 -49 -13 -56 -15 -24 -8 -6 -30 26 -33 45
-5 41 -29 -5 -38 -37 -7 -63 -20 -63 -33 0 -4 14 -15 30 -24 17 -10 30 -26 30
-36 0 -29 -37 -55 -80 -55 -43 -1 -71 -19 -54 -36 6 -6 33 -13 60 -16 44 -6
54 -3 81 20 45 38 58 76 39 114 -9 17 -16 33 -16 37 0 3 30 5 68 5 105 0 154
36 88 64 -42 18 -46 33 -11 46 28 11 45 42 27 48 -22 7 -13 32 12 32 14 0 32
7 41 16 22 22 5 41 -54 58 -75 21 -52 52 40 55 47 1 66 22 51 56 -9 20 -9 25
3 25 7 0 17 -5 20 -10 13 -20 89 2 133 39 78 65 112 102 112 121 0 11 9 24 20
30 24 13 50 60 50 91 0 11 11 34 25 51 14 16 25 35 26 41 2 28 8 47 26 74 10
15 24 37 29 48 6 11 41 37 77 59 64 37 67 40 67 77 0 28 5 41 19 49 31 16 35
46 10 79 -22 29 -19 51 6 51 37 0 33 68 -9 149 -15 28 -15 34 -1 61 9 17 17
30 19 30 10 0 66 -63 66 -74 0 -18 21 -36 42 -36 13 0 18 -8 18 -29 0 -20 6
-32 19 -36 11 -3 24 -18 30 -33 6 -15 16 -35 23 -44 10 -14 7 -27 -16 -76 -19
-39 -26 -66 -21 -81 4 -14 -1 -31 -14 -50 -17 -23 -18 -31 -8 -39 8 -7 18 -7
27 -2 43 28 27 -22 -30 -89 -75 -89 -35 -100 52 -14 83 82 72 44 -13 -43 -74
-77 -85 -109 -39 -109 15 0 26 -7 28 -17 7 -38 34 -27 95 38 34 37 67 74 74
83 11 14 12 14 13 -3 0 -11 -27 -70 -60 -132 -35 -66 -56 -115 -50 -119 26
-16 8 -44 -45 -70 -55 -27 -69 -48 -40 -59 26 -9 17 -21 -37 -50 -147 -77
-159 -87 -141 -115 14 -23 1 -37 -70 -72 -27 -13 -53 -31 -58 -40 -13 -26 0
-52 22 -45 11 3 28 9 39 12 35 11 22 -13 -32 -59 -32 -27 -71 -50 -98 -57 -25
-7 -50 -16 -56 -21 -6 -5 -39 -16 -75 -25 -35 -9 -95 -30 -134 -46 -38 -17
-87 -37 -107 -45 -21 -9 -44 -24 -53 -33 -14 -15 -14 -18 0 -30 13 -11 32 -9
110 13 104 29 119 32 110 17 -3 -5 -36 -18 -73 -30 -37 -11 -116 -39 -177 -63
-94 -37 -111 -47 -113 -68 -5 -32 -20 -49 -43 -49 -26 0 -24 22 5 49 34 32 52
79 37 94 -9 9 -23 0 -61 -38 -26 -28 -56 -57 -65 -65 -9 -8 -111 -112 -227
-230 -116 -118 -221 -222 -233 -230 -41 -28 -309 -295 -405 -403 -113 -129
-212 -195 -235 -157 -4 6 -2 17 4 24 12 15 100 211 108 241 3 11 44 101 93
200 86 176 103 217 114 281 4 26 -1 37 -32 67 -30 29 -47 37 -93 42 -54 7 -59
5 -108 -29 -28 -20 -57 -36 -65 -36 -8 0 -23 -10 -33 -23 -18 -23 -89 -87
-175 -158 -58 -48 -219 -159 -271 -186 -23 -12 -84 -36 -136 -54 -85 -29 -102
-31 -182 -27 -63 4 -97 11 -116 24 -16 10 -34 17 -41 16 -19 -4 -50 26 -72 68
-10 19 -36 55 -58 80 l-39 44 15 46 c8 25 22 54 32 65 61 71 115 183 202 420
22 61 51 139 64 175 33 90 31 137 -12 247 -42 110 -39 129 30 208 51 59 117
159 136 207 42 104 104 247 121 276 10 18 19 39 19 47 0 7 25 45 55 83 30 39
55 74 55 79 0 5 17 30 39 55 28 34 40 60 45 95 4 26 18 94 32 151 27 118 61
177 147 258 57 54 77 101 93 219 6 48 71 215 83 215 3 0 26 -20 51 -44z m-420
-716 c0 -5 -8 -10 -17 -10 -15 0 -16 2 -3 10 19 12 20 12 20 0z m2580 -510 c0
-5 -5 -10 -11 -10 -5 0 -7 5 -4 10 3 6 8 10 11 10 2 0 4 -4 4 -10z m111 -133
c-1 -12 -15 -9 -19 4 -3 6 1 10 8 8 6 -3 11 -8 11 -12z m104 -57 c-4 -23 -2
-53 6 -74 28 -79 -33 -109 -131 -65 l-44 20 45 39 c25 21 58 57 73 79 38 54
60 55 51 1z m15 -266 c0 -26 -19 -31 -38 -12 -16 16 -15 45 1 51 18 7 37 -13
37 -39z m-235 27 c7 -12 -12 -24 -25 -16 -11 7 -4 25 10 25 5 0 11 -4 15 -9z
m125 -57 c0 -11 -5 -14 -16 -10 -9 3 -18 6 -20 6 -3 0 -2 5 1 10 10 16 35 12
35 -6z m-216 -80 c24 -9 19 -22 -14 -39 -37 -19 -38 -33 -2 -63 22 -19 34 -23
65 -18 54 9 45 -8 -18 -34 -31 -13 -54 -27 -52 -33 2 -6 35 -22 75 -36 74 -26
81 -35 35 -44 -16 -3 -68 -20 -116 -37 -103 -38 -108 -52 -28 -84 63 -25 74
-43 34 -52 -104 -23 -154 -37 -193 -57 -38 -19 -45 -26 -45 -52 0 -25 -5 -31
-25 -33 -26 -3 -94 -25 -145 -47 -16 -7 -50 -18 -75 -25 -25 -6 -79 -22 -120
-35 -41 -13 -95 -27 -120 -31 -25 -3 -62 -13 -83 -20 -58 -21 -335 -50 -348
-37 -13 13 17 63 37 63 8 0 36 11 62 24 26 13 88 34 137 46 171 42 233 68 327
136 49 35 95 64 103 64 19 0 94 62 221 183 111 106 189 207 167 214 -7 3 -9
11 -6 19 4 11 8 12 19 3 11 -9 18 -8 32 4 9 8 26 17 37 20 11 2 21 5 22 6 1 0
8 -2 17 -5z m284 -21 c-3 -25 -7 -28 -38 -28 -28 0 -35 4 -35 20 0 18 17 26
68 34 5 0 7 -11 5 -26z m265 -261 c27 -23 47 -79 47 -134 0 -63 -7 -74 -77
-125 -28 -21 -80 -60 -115 -87 -35 -26 -77 -54 -95 -62 -18 -8 -37 -23 -43
-33 -5 -11 -21 -26 -34 -33 -13 -7 -57 -33 -97 -57 -40 -24 -89 -49 -108 -54
-20 -6 -48 -19 -62 -29 -55 -37 -398 -156 -489 -169 -36 -5 -105 -18 -155 -28
-97 -21 -262 -43 -335 -46 -25 -1 -94 -5 -155 -8 -60 -4 -125 -4 -144 1 -37 8
-39 11 -62 115 l-12 58 50 51 51 51 163 13 c195 16 289 33 384 69 39 15 151
46 250 70 99 24 197 51 217 59 20 9 57 20 82 26 42 9 89 28 297 122 156 70
337 204 324 240 -5 12 4 13 49 8 29 -3 61 -11 69 -18z m-428 -67 c39 0 72 -5
74 -10 7 -17 -60 -56 -83 -49 -40 12 -106 55 -100 65 3 6 13 7 23 2 9 -4 48
-8 86 -8z m-610 -25 c-3 -5 -10 -10 -16 -10 -5 0 -9 5 -9 10 0 6 7 10 16 10 8
0 12 -4 9 -10z m1348 -240 c39 -25 47 -35 47 -60 0 -39 27 -53 86 -44 24 3 47
10 50 15 11 19 43 8 84 -29 43 -38 43 -38 30 -76 -16 -49 -17 -245 -1 -274 9
-17 18 -21 36 -16 22 5 26 2 31 -25 6 -26 11 -31 36 -31 16 0 30 -6 32 -12 17
-66 35 -100 71 -138 28 -28 45 -56 47 -75 3 -31 13 -34 54 -21 17 5 22 1 30
-31 8 -35 12 -38 47 -41 20 -2 37 1 37 5 0 5 6 17 13 27 13 17 15 17 46 2 29
-15 31 -20 25 -51 -3 -19 -2 -35 2 -35 5 0 18 -7 28 -15 16 -12 17 -17 6 -30
-11 -13 -9 -20 13 -43 15 -16 27 -35 27 -43 0 -8 4 -19 9 -24 5 -6 16 -35 25
-66 18 -64 33 -80 78 -85 55 -7 64 -37 13 -46 -11 -2 -21 -13 -23 -25 -4 -24
22 -42 73 -53 38 -7 38 -23 -1 -30 -34 -6 -39 -34 -6 -38 26 -4 29 -17 5 -26
-25 -10 -2 -28 58 -46 28 -8 50 -19 50 -25 0 -5 -23 -12 -50 -15 -59 -6 -81
-22 -65 -48 6 -9 23 -18 38 -20 15 -2 26 -10 26 -18 0 -15 46 -38 59 -29 4 2
25 -1 47 -8 l39 -11 -54 -6 c-30 -3 -56 -10 -58 -16 -2 -7 18 -20 44 -30 26
-9 55 -24 63 -32 13 -13 10 -14 -27 -9 -24 3 -45 1 -48 -4 -8 -12 34 -36 76
-43 19 -3 44 -13 55 -22 18 -15 18 -15 -6 -9 -14 3 -44 9 -67 12 -60 8 -59
-19 1 -35 50 -13 100 -51 122 -93 26 -51 5 -51 -69 -1 -181 122 -276 164 -290
128 -5 -12 18 -27 101 -67 132 -64 145 -74 137 -111 -5 -22 -1 -35 19 -59 14
-17 26 -35 26 -40 0 -6 11 -25 24 -42 33 -44 77 -137 66 -137 -6 0 -24 19 -41
43 -35 49 -57 63 -71 49 -7 -7 2 -28 26 -63 20 -30 36 -59 36 -65 0 -7 18 -34
40 -60 22 -27 40 -54 40 -61 0 -30 -21 -19 -59 29 -60 77 -62 79 -74 75 -22
-7 -17 -26 26 -89 43 -62 65 -108 53 -108 -4 0 -15 5 -26 12 -55 34 -30 -32
56 -147 54 -73 66 -108 24 -70 -19 17 -50 15 -50 -5 0 -6 14 -34 30 -63 17
-30 30 -60 30 -68 0 -8 11 -35 25 -61 26 -49 75 -216 75 -255 0 -13 -12 -30
-29 -43 -23 -16 -31 -31 -35 -63 -11 -92 -26 -276 -29 -344 -3 -87 9 -94 52
-30 16 23 37 50 46 60 9 10 24 35 33 55 16 37 16 37 32 -138 16 -175 16 -175
62 -265 45 -88 47 -91 108 -120 l62 -30 -52 -48 c-29 -26 -68 -54 -87 -62 -19
-8 -37 -24 -40 -35 -3 -10 -13 -22 -24 -25 -10 -3 -21 -14 -24 -24 -3 -10 -16
-23 -29 -29 -13 -6 -28 -21 -31 -34 -4 -13 -19 -34 -33 -48 -13 -14 -43 -49
-65 -78 -39 -52 -73 -79 -84 -68 -3 3 5 20 19 38 26 35 86 154 136 272 27 62
29 72 16 91 -15 22 -54 45 -79 45 -7 0 -23 -12 -35 -28 -20 -25 -21 -34 -15
-112 6 -84 6 -86 -32 -160 -51 -100 -90 -157 -135 -197 -20 -19 -45 -54 -57
-78 -12 -26 -33 -51 -50 -60 -17 -8 -34 -21 -38 -28 -4 -7 -25 -23 -46 -36
-21 -13 -64 -48 -95 -78 -50 -47 -61 -54 -87 -49 -49 10 -241 26 -370 31 -66
3 -141 10 -168 16 -31 7 -52 8 -60 1 -10 -8 -52 -13 -257 -29 -109 -8 -458 -3
-505 8 -68 16 -177 54 -222 78 -21 11 -69 49 -107 85 -94 90 -114 90 -159 -1
-25 -51 -38 -68 -53 -66 -72 6 -174 23 -199 33 -26 11 -84 21 -262 47 -39 5
-43 4 -43 -15 0 -28 34 -44 140 -67 47 -9 99 -21 115 -24 49 -12 57 -42 30
-112 -34 -85 -56 -111 -126 -147 -69 -36 -82 -38 -97 -19 -9 10 -2 28 28 73
47 70 51 101 15 110 -29 7 -81 -29 -91 -63 -3 -13 -29 -38 -56 -55 -28 -18
-54 -43 -59 -55 -11 -29 -52 -39 -106 -25 -24 7 -60 12 -81 12 -54 0 -112 18
-112 35 0 8 18 27 41 42 41 27 75 76 64 93 -13 22 -53 8 -100 -35 -28 -25 -53
-45 -57 -45 -19 0 -15 24 16 86 27 56 47 79 100 122 39 31 77 52 91 52 14 0
68 17 121 37 95 37 97 38 177 130 45 52 103 120 129 153 44 56 46 61 35 90 -8
22 -20 33 -39 37 -16 3 -28 9 -28 14 0 4 29 41 65 81 36 40 65 79 65 86 0 7
-9 16 -20 20 -20 7 -19 9 11 56 17 27 31 61 32 75 2 22 -3 26 -30 29 -18 2
-33 6 -33 10 0 4 16 32 35 62 34 53 46 100 25 100 -6 0 -28 -18 -50 -41 -43
-45 -54 -45 -64 2 -4 23 3 48 28 102 45 95 47 104 32 117 -11 8 -22 -1 -50
-40 -20 -28 -41 -48 -46 -45 -11 7 3 39 23 52 6 4 18 24 24 42 10 28 10 37 0
43 -20 13 -24 10 -57 -42 -18 -27 -34 -50 -36 -50 -2 0 -8 9 -14 20 -8 15 -7
25 4 42 8 13 17 39 21 58 8 39 38 101 68 142 17 22 18 30 7 42 -18 23 -4 63
35 101 30 28 35 39 35 79 0 69 -19 60 -89 -43 -55 -80 -91 -165 -91 -212 0
-22 -14 -79 -30 -126 -16 -46 -30 -91 -30 -99 0 -24 85 -105 104 -98 14 5 16
-3 16 -70 0 -41 6 -93 14 -113 7 -21 21 -63 31 -95 18 -56 18 -56 -5 -89 -15
-20 -25 -51 -28 -86 -2 -29 -8 -53 -13 -53 -5 0 -18 -18 -29 -41 -19 -36 -20
-43 -7 -57 26 -31 26 -51 0 -102 -19 -36 -32 -50 -47 -50 -12 0 -27 -9 -33
-19 -8 -13 -37 -25 -84 -35 -39 -9 -94 -28 -122 -42 -34 -18 -66 -26 -100 -26
-67 1 -151 -32 -202 -79 -36 -33 -49 -39 -88 -39 -25 0 -57 -4 -71 -10 -25 -9
-37 2 -16 15 15 9 12 30 -8 54 -15 20 -32 23 -172 32 -85 5 -185 9 -223 9 -92
-2 -108 5 -101 38 l5 27 -19 -22 c-11 -13 -29 -23 -41 -23 -19 0 -20 4 -15 67
10 117 14 125 71 153 29 14 63 36 77 49 28 26 75 138 101 241 9 36 35 101 57
145 22 44 51 122 64 174 13 51 31 105 40 119 17 25 17 26 25 5 4 -12 12 -24
18 -28 6 -3 23 -29 36 -56 22 -42 30 -49 54 -49 32 0 41 -14 41 -61 0 -44 17
-69 45 -69 22 0 25 -5 25 -33 0 -41 59 -111 87 -104 10 3 33 9 51 12 l34 7 -7
-46 c-6 -36 -4 -47 8 -52 8 -3 17 -14 20 -25 3 -10 16 -23 30 -28 19 -8 26
-18 29 -43 3 -31 6 -33 43 -36 29 -3 50 -13 82 -43 23 -21 53 -39 65 -39 13 0
38 -9 56 -20 37 -22 67 -26 78 -8 9 14 -40 58 -65 58 -28 0 -111 40 -118 56
-3 8 -23 25 -45 38 -37 22 -40 27 -42 73 -1 43 -7 55 -51 106 -43 49 -53 56
-75 51 -52 -14 -75 -10 -78 14 -2 13 4 34 12 47 19 29 21 75 4 75 -7 0 -20
-15 -29 -33 -9 -17 -24 -34 -34 -35 -16 -4 -17 2 -11 52 8 59 2 96 -16 96 -15
0 -37 -31 -38 -52 0 -10 -4 -18 -9 -18 -16 0 -21 31 -16 98 4 66 -6 112 -25
112 -6 0 -13 -6 -15 -12 -31 -89 -41 -90 -20 -3 19 81 19 84 -11 97 -22 10
-25 17 -20 42 10 47 89 154 165 224 38 34 74 62 80 62 6 0 22 18 36 40 30 48
51 60 107 61 48 2 78 22 78 53 0 36 15 49 45 42 41 -10 60 0 115 65 35 43 50
70 50 90 0 21 5 29 18 29 28 0 60 41 64 80 2 27 8 35 28 40 21 5 25 12 28 48
2 32 9 46 28 58 16 11 24 26 24 46 0 16 7 42 15 59 11 20 14 41 9 65 -5 25 -1
45 11 68 18 33 18 36 -3 112 -12 44 -33 120 -46 171 -28 108 -29 109 -82 156
-49 44 -62 32 -34 -31 11 -23 29 -79 41 -124 20 -75 21 -82 6 -93 -22 -16 -21
-43 3 -100 24 -56 24 -55 6 -55 -25 0 -26 -14 -7 -87 20 -82 18 -97 -10 -82
-26 14 -34 -8 -20 -57 13 -47 6 -57 -18 -25 -30 40 -39 19 -33 -84 4 -78 2
-95 -9 -95 -8 0 -20 14 -26 30 -13 35 -28 38 -43 10 -8 -15 -8 -30 1 -55 13
-35 5 -61 -10 -36 -14 21 -27 6 -41 -46 -21 -82 -19 -79 -36 -61 -13 13 -14
24 -6 62 9 42 8 46 -10 46 -27 0 -89 -28 -113 -50 -11 -10 -37 -26 -57 -35
-41 -17 -59 -40 -78 -98 -21 -67 -90 -180 -148 -243 -121 -132 -171 -197 -242
-313 -13 -23 -28 -41 -32 -41 -10 0 -39 70 -33 80 3 5 19 11 35 15 32 7 50 30
50 66 0 13 15 36 35 55 23 21 35 41 35 58 0 53 28 93 114 165 47 40 86 78 86
84 0 31 -44 46 -84 31 -11 -4 -14 -13 -10 -29 5 -20 -3 -28 -64 -64 -58 -33
-132 -99 -132 -116 0 -3 9 -19 20 -37 25 -41 25 -48 2 -48 -10 0 -32 -15 -49
-32 -24 -25 -29 -38 -23 -53 15 -37 10 -45 -36 -56 -43 -11 -45 -14 -39 -38
15 -58 11 -76 -15 -79 -41 -6 -50 -19 -38 -54 10 -28 8 -33 -12 -50 -12 -10
-29 -18 -37 -18 -9 0 -31 -10 -50 -21 -25 -15 -31 -25 -24 -32 17 -17 13 -24
-14 -31 -15 -4 -32 -21 -44 -44 -22 -44 -37 -147 -22 -156 15 -10 -37 -95 -68
-111 -23 -11 -27 -20 -26 -47 2 -18 -2 -39 -7 -45 -7 -9 -2 -16 18 -25 l29
-12 -30 -4 c-52 -7 -73 -44 -40 -72 38 -31 141 28 129 75 -3 13 2 28 15 39 14
13 21 31 21 55 0 20 7 46 15 58 19 28 114 107 121 101 7 -7 -33 -154 -56 -206
-32 -71 -59 -101 -121 -132 -66 -34 -79 -52 -79 -110 0 -45 -26 -138 -44 -157
-19 -20 -112 -52 -126 -43 -10 6 -10 23 4 89 18 90 21 177 7 186 -25 15 -44
-37 -66 -175 -11 -73 -54 -115 -136 -134 -44 -11 -51 5 -24 59 13 28 25 56 25
63 0 7 14 45 30 85 33 76 36 120 8 125 -17 3 -48 -52 -48 -87 0 -20 -43 -103
-79 -153 -15 -20 -51 -54 -79 -76 -49 -36 -59 -40 -139 -46 -47 -4 -88 -4 -91
-1 -8 8 20 56 82 140 59 81 145 307 125 331 -19 23 -27 17 -47 -39 -11 -29
-34 -80 -51 -114 -17 -33 -31 -65 -31 -70 0 -5 -16 -24 -35 -42 -19 -17 -35
-40 -35 -51 0 -16 -7 -20 -35 -20 -29 0 -35 4 -35 21 0 12 15 45 34 73 19 28
63 104 98 170 38 69 78 128 96 143 18 13 79 41 136 62 216 79 312 203 412 533
25 84 66 205 89 269 24 64 51 142 60 173 19 65 152 346 164 346 4 0 13 17 19
37 8 28 8 40 0 51 -14 17 -64 9 -89 -14 -29 -27 -40 -7 -17 31 16 29 18 38 8
50 -17 20 -27 19 -47 -5 -22 -26 -36 -26 -28 0 11 34 -21 35 -73 1 -45 -28
-72 -38 -72 -26 0 2 7 23 16 45 22 55 8 71 -35 41 -44 -32 -48 -8 -7 41 20 23
36 48 36 55 0 22 -32 29 -44 9 -30 -50 -49 -68 -57 -54 -5 7 -9 25 -9 41 0 18
-5 27 -16 27 -11 0 -15 8 -12 27 2 22 -3 30 -25 41 l-28 13 27 49 c26 48 25
76 -2 66 -22 -8 -26 12 -8 40 19 28 20 99 3 120 -11 14 57 96 229 274 56 58
102 111 102 118 0 6 -12 12 -26 12 -19 0 -51 -25 -127 -101 -118 -117 -240
-199 -297 -199 -21 0 -50 -10 -70 -23 -19 -13 -40 -22 -47 -20 -6 2 -25 -3
-42 -11 -16 -9 -40 -16 -51 -16 -12 0 -52 -12 -88 -26 -79 -30 -145 -94 -182
-176 -106 -236 -156 -328 -176 -328 -7 0 -22 24 -34 54 l-21 54 34 48 c31 44
55 110 84 242 11 48 -44 69 -88 33 -24 -19 -24 -19 -4 -41 19 -21 19 -22 1
-36 -10 -7 -24 -15 -30 -17 -8 -3 -7 -11 1 -29 10 -21 8 -35 -5 -72 -10 -25
-21 -48 -25 -52 -15 -16 -7 -128 13 -168 10 -23 25 -62 31 -87 12 -46 12 -48
-32 -120 -55 -92 -86 -129 -103 -123 -12 5 -36 145 -36 217 0 40 -32 88 -49
72 -23 -23 -5 -216 28 -298 6 -16 11 -40 11 -54 0 -31 -34 -89 -58 -98 -24 -9
-68 43 -82 97 -21 88 -44 159 -51 164 -4 2 -15 -3 -23 -12 -19 -18 -21 -91 -4
-129 9 -19 8 -41 -2 -95 -7 -38 -16 -70 -19 -70 -3 0 -14 20 -24 43 -10 23
-28 62 -40 87 -21 44 -26 121 -15 245 5 52 -23 35 -41 -25 -16 -51 -18 -53
-29 -33 -21 39 17 256 59 332 41 75 82 137 109 166 33 36 158 197 191 247 70
104 311 388 330 388 4 0 29 -31 53 -69 50 -76 41 -72 193 -92 108 -15 115 -12
193 82 46 55 50 64 50 112 0 61 -13 88 -32 69 -19 -19 -38 -14 -38 9 0 34 -19
59 -46 59 -31 0 -40 22 -26 69 10 30 25 45 89 87 43 28 96 60 118 72 114 58
127 66 136 91 6 14 45 62 88 106 43 44 120 130 171 190 119 140 310 335 329
335 9 0 12 -7 8 -22 -7 -29 -48 -177 -81 -291 -16 -56 -26 -118 -27 -168 -2
-76 0 -82 27 -110 45 -47 83 -67 157 -79 85 -15 134 0 193 61 l39 40 -2 92
c-1 51 -11 153 -22 227 -10 74 -16 141 -12 149 6 10 39 14 132 17 143 3 259
18 537 68 79 14 173 37 210 50 294 107 334 123 432 175 41 22 102 53 135 69
33 16 95 52 139 81 79 51 91 56 120 45 24 -9 19 -20 -14 -34 -32 -13 -48 -46
-31 -63 6 -6 11 -19 11 -29 0 -31 40 -46 140 -51 109 -6 216 -27 213 -42 -4
-15 -83 -23 -252 -24 -125 0 -158 -4 -179 -17 -24 -16 -25 -17 -7 -30 21 -16
50 -16 275 -5 158 8 200 3 200 -24 0 -16 0 -16 -180 -19 -59 -1 -75 -4 -75
-16 0 -12 32 -20 140 -36 155 -23 235 -42 235 -55 0 -19 -39 -27 -103 -22 -57
5 -67 3 -67 -10 0 -11 17 -21 53 -31 174 -51 207 -62 207 -73 0 -9 -24 -10
-88 -6 -84 5 -89 5 -94 -15 -7 -25 4 -30 80 -38 32 -3 67 -7 80 -10 23 -5 23
-5 -8 -34 -26 -24 -41 -30 -76 -30 -106 0 1 -69 138 -89 66 -10 69 -19 9 -27
-59 -8 -85 -29 -58 -49 25 -18 21 -32 -12 -50 -17 -8 -32 -19 -36 -25 -12 -20
15 -48 60 -60 42 -12 48 -11 68 7 12 11 42 25 67 32 25 7 57 22 73 33 32 23
37 58 8 58 -11 0 -23 5 -26 10 -3 6 5 10 19 10 21 0 27 7 39 48 7 26 12 51 9
55 -2 5 -41 8 -85 7 -117 -2 -127 -1 -127 10 0 6 18 10 39 10 31 0 41 4 46 20
7 24 33 26 61 5 33 -25 51 -18 58 20 7 35 -6 75 -24 75 -5 0 -9 16 -8 36 2 51
-19 67 -91 68 -62 1 -71 10 -21 21 26 6 30 11 30 41 0 37 -33 68 -67 62 -10
-1 -30 7 -43 20 l-25 23 23 6 c12 3 22 9 22 13 0 22 -15 42 -42 56 -27 14 -28
18 -25 69 l4 53 -61 18 c-34 9 -89 18 -123 18 -73 2 -104 20 -51 31 70 14 98
26 98 44 0 10 -18 45 -41 79 -42 63 -48 98 -14 95 11 -1 25 7 33 18 18 25 28
24 85 -11z m-217 9 c50 -13 61 -27 45 -57 -7 -13 -25 -21 -58 -25 -48 -5 -128
4 -141 18 -11 10 65 75 88 75 12 0 42 -5 66 -11z m21 -185 c2 -6 -4 -15 -14
-18 -29 -12 -133 -17 -133 -8 0 11 97 41 124 39 11 -1 21 -7 23 -13z m-2613
-40 c33 -13 13 -134 -26 -155 -35 -19 -50 7 -42 75 9 73 28 95 68 80z m-128
-39 c9 -34 -1 -55 -27 -55 -12 0 -23 -8 -26 -20 -3 -13 -13 -19 -27 -17 -16 1
-22 -4 -24 -23 -6 -46 -11 -54 -27 -40 -8 7 -22 9 -31 6 -13 -5 -15 -14 -10
-41 8 -41 -2 -44 -34 -10 -39 42 -51 33 -44 -30 4 -30 4 -55 0 -55 -4 0 -21 7
-38 16 -42 22 -54 7 -34 -41 18 -43 14 -55 -14 -37 -21 13 -53 16 -63 6 -3 -4
0 -21 8 -39 7 -19 11 -36 8 -38 -10 -11 -153 47 -153 62 0 5 43 33 95 62 65
36 125 80 190 140 51 48 106 95 122 103 15 8 42 28 58 45 37 37 63 39 71 6z
m2 -147 c31 -31 -6 -104 -56 -110 -24 -3 -28 -8 -32 -49 -4 -33 -15 -57 -38
-83 -18 -20 -32 -47 -32 -59 0 -12 -9 -33 -20 -47 -11 -14 -20 -32 -20 -40 0
-20 -126 -165 -181 -210 -102 -83 -136 -88 -67 -10 43 47 157 253 213 383 22
49 49 88 100 141 62 65 99 95 116 96 3 0 10 -5 17 -12z m656 -30 c2 -13 11
-57 20 -98 9 -41 20 -109 26 -150 5 -41 13 -97 19 -125 5 -27 12 -80 15 -117
4 -57 3 -69 -12 -77 -15 -7 -64 -12 -252 -24 -35 -2 -35 -2 -38 44 -2 31 6 71
24 120 14 41 30 99 36 129 9 57 22 82 73 145 29 37 29 38 12 67 -23 40 -22 53
10 83 35 31 61 32 67 3z m-1881 -37 c19 -7 67 -69 67 -86 0 -2 -14 -7 -32 -10
-27 -6 -36 -3 -55 19 -23 27 -32 86 -14 86 5 0 21 -4 34 -9z m1287 -51 c0 -28
-123 -294 -141 -305 -11 -8 -61 16 -66 31 -2 6 15 16 38 23 l41 12 -27 29
c-27 28 -27 28 -7 39 12 6 30 11 42 11 29 0 33 19 16 68 -8 23 -12 43 -8 43 4
1 23 2 42 3 32 1 35 4 36 31 1 58 34 73 34 15z m3611 -23 c-1 -12 -15 -9 -19
4 -3 6 1 10 8 8 6 -3 11 -8 11 -12z m-4263 -139 c4 -47 -15 -118 -31 -118 -11
0 -82 109 -75 115 2 2 19 12 38 24 48 29 64 24 68 -21z m3702 -148 c0 -5 -6
-10 -14 -10 -8 0 -18 5 -21 10 -3 6 3 10 14 10 12 0 21 -4 21 -10z m20 -230
c0 -5 -13 -10 -30 -10 -16 0 -30 5 -30 10 0 6 14 10 30 10 17 0 30 -4 30 -10z
m-2454 -35 c19 -15 19 -15 -5 -35 -36 -31 -151 -24 -151 10 0 38 115 57 156
25z m2344 -35 c0 -5 -2 -10 -4 -10 -3 0 -8 5 -11 10 -3 6 -1 10 4 10 6 0 11
-4 11 -10z m1068 -451 c-20 -13 -38 -11 -38 5 0 9 8 12 26 8 19 -3 22 -7 12
-13z m1292 -1185 c0 -8 -6 -14 -12 -14 -21 0 -41 17 -34 28 8 14 46 3 46 -14z
m264 -154 c64 -61 91 -111 110 -203 9 -44 18 -83 22 -88 9 -15 32 -10 38 9 6
18 -35 272 -49 305 -4 10 -3 17 4 17 16 0 59 -91 75 -159 12 -51 22 -68 70
-115 37 -36 56 -62 56 -78 0 -33 18 -50 41 -38 10 6 28 6 41 2 35 -13 57 -4
75 31 l18 32 3 -30 c2 -16 -2 -46 -8 -66 -16 -47 -6 -88 27 -114 l25 -21 -17
-54 c-32 -97 -31 -97 -69 -103 -48 -8 -126 -55 -126 -76 0 -23 -39 -40 -73
-34 -17 4 -41 -3 -70 -20 -24 -15 -72 -31 -107 -36 -68 -11 -95 -26 -67 -37
25 -9 194 25 260 52 32 14 84 45 115 69 49 39 92 57 92 40 0 -14 -31 -64 -42
-67 -7 -3 -11 -23 -9 -56 l2 -53 -45 -20 c-91 -40 -144 -43 -283 -15 -69 14
-140 26 -157 26 l-30 0 20 -20 c14 -15 42 -23 104 -30 47 -6 119 -18 161 -26
58 -12 81 -14 97 -5 11 6 57 11 101 11 70 0 81 -2 81 -17 0 -12 -8 -19 -22
-19 -13 -1 -52 -7 -88 -13 -36 -7 -85 -15 -110 -17 -25 -3 -64 -13 -88 -21
-32 -12 -63 -14 -127 -9 -98 7 -126 17 -148 56 -22 37 -21 58 4 126 28 74 14
92 -35 45 -36 -35 -40 -34 -50 15 -4 17 -33 69 -65 115 -51 73 -66 88 -127
121 -67 36 -153 52 -181 35 -36 -22 -43 87 -8 139 14 21 22 25 43 19 69 -17
89 -17 96 0 9 25 1 32 -46 38 -30 4 -49 14 -63 31 -12 14 -26 26 -32 26 -6 0
-16 7 -24 16 -10 12 -10 20 -1 35 11 18 6 27 -42 81 -30 34 -53 66 -50 70 11
17 32 7 44 -22 8 -19 20 -30 32 -30 30 0 58 -19 58 -40 0 -45 107 -119 143
-98 24 13 21 31 -3 23 -26 -8 -87 36 -101 73 -13 35 -2 84 19 80 9 -2 27 -23
41 -47 14 -24 43 -58 64 -75 36 -29 46 -31 129 -35 82 -3 90 -2 86 15 -2 11
-16 21 -36 25 -18 4 -43 16 -55 27 -39 37 -77 126 -84 194 -5 59 -3 67 18 86
27 26 40 27 105 7 65 -20 84 -19 84 3 0 34 14 33 50 -5 21 -21 58 -58 84 -83z
m-389 29 c4 -6 13 -39 20 -74 8 -34 22 -81 33 -103 22 -46 20 -52 -18 -52 -53
0 -95 70 -86 142 11 82 32 118 51 87z m-167 -43 c-2 -15 -7 -28 -13 -29 -12
-2 -19 38 -10 60 9 25 27 1 23 -31z m-102 -363 c17 -46 17 -53 3 -53 -5 0 -17
17 -25 38 -8 20 -19 44 -24 53 -5 9 -6 20 -3 23 11 10 35 -20 49 -61z m-90
-40 c8 -17 23 -34 34 -38 25 -8 27 -45 3 -45 -9 0 -32 14 -50 32 -26 25 -33
40 -33 71 0 36 2 38 17 26 9 -8 22 -28 29 -46z m162 31 c-9 -9 -21 -13 -27
-10 -20 13 -11 26 16 26 25 0 26 -1 11 -16z m-58 -143 c0 -20 -17 -37 -27 -28
-7 8 7 47 18 47 5 0 9 -9 9 -19z m-155 -4 c28 -21 11 -38 -26 -25 -24 8 -27
13 -18 24 14 17 20 17 44 1z m333 -122 c20 -9 46 -24 57 -34 11 -10 31 -22 44
-26 29 -9 94 -52 103 -69 15 -27 27 -172 17 -215 -21 -92 -74 -155 -143 -167
-22 -3 -57 -16 -79 -27 -35 -18 -45 -19 -105 -9 -37 6 -79 21 -95 33 -16 11
-59 33 -95 48 -63 26 -70 32 -123 110 -122 180 -169 306 -128 346 14 14 22 13
80 -15 45 -21 79 -30 114 -30 56 0 161 24 182 42 14 11 69 25 111 27 12 0 39
-6 60 -14z m-4693 -116 c-13 -30 -25 -59 -25 -65 0 -15 -37 -131 -48 -150 -7
-13 -10 -13 -20 -1 -9 11 -8 25 4 61 15 42 15 49 0 70 -14 23 -14 25 9 40 17
11 25 27 27 53 2 32 7 39 28 41 14 2 29 8 35 13 19 19 15 -9 -10 -62z m5645
-280 c0 -18 -112 -62 -167 -66 -46 -3 -53 -1 -53 15 0 14 14 23 58 35 99 29
162 35 162 16z m-375 -64 c39 0 85 4 103 8 21 6 32 5 32 -2 0 -6 -4 -11 -9
-11 -5 0 -22 -5 -38 -11 -25 -9 -26 -11 -10 -21 10 -5 39 -9 65 -7 79 4 142 0
142 -10 0 -5 -41 -24 -90 -42 -50 -17 -88 -35 -84 -38 3 -3 22 -11 42 -17 l37
-12 -32 -1 c-52 -2 -137 -24 -149 -40 -17 -23 -85 -8 -154 34 -68 41 -80 59
-58 81 13 14 24 13 92 -7 74 -21 77 -22 96 -4 12 10 19 25 18 33 -3 14 -119
50 -165 51 -25 1 -31 16 -10 24 6 3 32 2 57 -2 25 -3 77 -6 115 -6z m-187
-186 c20 -17 52 -38 71 -47 45 -19 206 -41 223 -30 18 11 76 10 82 -1 3 -5 -8
-23 -24 -41 -29 -31 -32 -32 -112 -31 -70 1 -93 -3 -145 -26 -35 -15 -63 -33
-63 -39 0 -7 19 -19 43 -26 61 -21 61 -45 0 -52 -26 -4 -67 -11 -91 -16 -23
-6 -58 -10 -77 -10 -32 0 -34 2 -37 38 -4 49 -21 47 -32 -6 -13 -62 -46 -53
-67 20 -13 46 -3 88 22 88 11 0 59 -20 106 -45 47 -25 94 -45 105 -45 19 0 19
1 5 24 -9 13 -28 52 -42 87 -15 35 -29 70 -32 77 -9 21 24 13 55 -13 22 -18
33 -22 38 -14 7 12 2 18 -75 82 -27 23 -31 30 -21 42 18 21 28 19 68 -16z
m-117 -119 c18 -10 27 -40 12 -40 -5 0 -21 11 -38 25 -24 19 -26 24 -12 25 10
0 27 -5 38 -10z m549 -108 c0 -3 -12 -21 -26 -39 -20 -27 -31 -33 -49 -29 -15
4 -28 -2 -43 -19 -12 -14 -31 -25 -43 -25 -12 0 -38 -10 -57 -22 -30 -18 -48
-22 -116 -20 -89 3 -137 -7 -144 -28 -4 -10 7 -12 52 -7 57 6 86 2 86 -12 0
-4 -36 -25 -81 -46 l-80 -40 -36 20 c-20 11 -50 37 -67 58 -25 31 -28 40 -16
47 8 5 27 6 43 3 21 -4 33 0 48 16 11 11 30 23 42 25 69 15 160 26 206 26 50
0 56 3 100 48 46 48 46 48 114 48 37 0 67 -2 67 -4z m-690 -104 c0 -7 3 -23 6
-35 8 -28 -3 -29 -35 -3 -19 17 -21 23 -11 35 15 18 40 20 40 3z m-3985 -64
c14 -6 13 -9 -6 -30 -21 -23 -67 -32 -82 -17 -7 6 50 53 64 53 4 0 15 -3 24
-6z m3962 -38 c38 -33 199 -136 214 -136 5 0 13 -9 19 -20 9 -17 7 -22 -11
-28 -52 -20 -181 29 -251 96 -30 28 -53 84 -44 107 9 24 33 17 73 -19z m-157
-11 c0 -20 53 -78 111 -121 54 -40 61 -59 25 -75 -20 -9 -32 -7 -72 17 -124
70 -193 144 -166 177 16 19 102 21 102 2z m-104 -92 c37 -43 82 -89 101 -102
18 -13 33 -27 33 -31 0 -4 -21 -10 -47 -13 -27 -3 -55 -8 -64 -12 -10 -4 -42
17 -94 62 -97 85 -107 99 -80 119 19 15 23 12 76 -45 31 -34 59 -61 63 -61 15
0 3 23 -44 84 -27 36 -50 68 -50 71 0 3 9 5 19 5 12 0 46 -31 87 -77z m688 51
c7 -18 -10 -44 -27 -44 -6 0 -21 -10 -34 -22 -38 -36 -115 -24 -100 16 3 8 19
18 34 21 15 3 44 14 63 25 43 24 56 24 64 4z m-5205 -37 c9 -12 -5 -14 -82
-12 -107 3 -106 2 -87 15 23 15 156 12 169 -3z m4345 -72 c32 -35 55 -69 51
-75 -3 -5 -18 -10 -33 -10 -21 0 -37 13 -69 55 -24 30 -43 59 -43 63 0 10 21
32 31 32 4 0 32 -29 63 -65z m1096 10 c50 -14 124 -27 235 -41 22 -3 72 -10
110 -16 68 -11 69 -12 30 -18 -22 -3 -83 -4 -135 -2 -83 4 -92 6 -75 18 17 13
17 14 1 14 -9 0 -29 -6 -45 -14 -20 -11 -57 -14 -137 -12 -141 4 -146 5 -164
16 -12 8 -10 14 15 40 34 35 76 39 165 15z m-1192 -27 c18 -18 14 -36 -12 -53
-22 -14 -27 -14 -65 1 -50 20 -53 34 -6 34 22 0 38 6 41 15 7 18 26 19 42 3z
m-204 -24 c7 -19 -1 -34 -18 -34 -17 0 -48 35 -39 43 12 13 51 7 57 -9z m1906
-24 c12 -8 9 -10 -13 -10 -16 0 -26 4 -22 10 8 12 16 12 35 0z m-4640 -48 c0
-15 -7 -37 -15 -49 -14 -19 -104 -83 -118 -83 -11 0 -8 21 6 35 6 7 32 38 57
69 50 62 70 70 70 28z m-1020 -42 c0 -5 -4 -10 -10 -10 -5 0 -10 5 -10 10 0 6
5 10 10 10 6 0 10 -4 10 -10z"/>
<path d="M6916 7564 c-12 -31 -6 -93 14 -135 13 -29 20 -66 20 -107 0 -43 4
-64 13 -68 20 -7 218 192 211 211 -7 19 -22 19 -54 0 -36 -21 -64 -19 -55 3
15 40 29 102 23 107 -3 4 -33 1 -67 -5 -42 -7 -67 -8 -80 -1 -15 8 -20 7 -25
-5z"/>
<path d="M7292 7117 c-24 -25 -29 -57 -9 -57 18 1 67 47 67 65 0 23 -33 18
-58 -8z"/>
<path d="M7214 6954 c-21 -49 -4 -67 31 -34 31 29 34 70 4 70 -14 0 -25 -11
-35 -36z"/>
<path d="M6580 6943 c0 -10 12 -27 27 -38 29 -24 24 -45 -11 -45 -13 0 -30 -7
-37 -16 -11 -14 -10 -18 6 -31 11 -8 33 -17 48 -20 33 -7 53 -36 34 -50 -6 -6
-63 -24 -126 -41 -121 -34 -159 -55 -140 -79 6 -7 30 -13 53 -13 46 0 72 -12
62 -29 -4 -6 -39 -20 -79 -32 -77 -23 -97 -34 -97 -55 0 -26 129 -72 164 -58
18 7 22 39 6 49 -20 13 -9 25 50 55 62 31 75 55 45 80 -25 21 -18 27 49 50 72
24 116 53 116 78 0 8 -10 26 -22 39 -19 20 -20 26 -9 50 12 26 10 30 -37 75
-53 50 -102 65 -102 31z"/>
<path d="M5244 6575 c-21 -50 3 -94 34 -63 9 9 19 7 42 -10 24 -18 34 -20 50
-12 25 13 26 38 3 47 -10 3 -35 21 -56 40 -20 18 -42 33 -48 33 -5 0 -17 -16
-25 -35z"/>
<path d="M5151 6491 c-23 -23 -27 -64 -11 -106 13 -35 33 -40 88 -23 46 15 47
16 50 60 3 49 11 43 -95 85 -6 2 -21 -5 -32 -16z"/>
<path d="M6550 6435 c-36 -7 -89 -23 -119 -34 -30 -12 -75 -26 -100 -32 -69
-15 -79 -23 -57 -48 11 -12 24 -21 31 -21 23 0 46 -25 39 -43 -10 -26 -50 -21
-131 19 -61 30 -79 35 -110 29 -21 -4 -81 -8 -133 -9 -134 -2 -167 -16 -115
-50 32 -21 32 -36 1 -36 -32 0 -41 -15 -37 -61 2 -34 0 -38 -26 -41 -39 -4
-43 -34 -5 -43 52 -11 79 3 122 66 22 32 40 68 40 80 0 19 4 20 64 14 41 -5
77 -3 100 5 30 10 41 9 59 -3 70 -46 249 -64 324 -33 58 25 60 41 10 77 -23
17 -42 35 -42 41 0 7 32 23 70 37 39 14 77 30 85 36 8 5 35 12 60 15 37 4 46
9 48 28 3 21 0 22 -55 21 -32 0 -87 -7 -123 -14z"/>
<path d="M4991 6326 c-18 -19 -21 -28 -12 -44 16 -30 80 -82 100 -82 23 0 38
-18 43 -50 2 -19 10 -26 33 -30 28 -5 31 -9 41 -70 15 -91 21 -106 55 -135 23
-19 42 -25 76 -25 40 0 49 4 77 37 17 20 91 97 164 172 125 128 155 172 115
170 -10 0 -55 -12 -99 -27 -57 -19 -103 -27 -150 -27 -77 0 -95 15 -37 30 58
15 132 55 144 76 15 29 -8 32 -71 10 -161 -57 -174 -64 -166 -93 5 -23 -14
-33 -49 -24 -16 4 -25 13 -25 25 0 36 -27 51 -90 51 -51 0 -64 4 -93 30 l-34
29 -22 -23z m471 -179 c20 2 40 -1 42 -6 8 -12 -82 -93 -97 -88 -7 2 -23 23
-36 46 -27 49 -17 66 29 53 14 -4 42 -6 62 -5z"/>
<path d="M4848 5800 c-25 -15 -54 -109 -39 -132 15 -24 14 -26 -11 -30 -37 -5
-33 -34 9 -62 49 -34 77 -35 69 -3 -3 15 5 44 24 82 36 72 38 104 7 133 -26
24 -34 26 -59 12z"/>
<path d="M4762 5558 c-7 -7 -12 -23 -12 -35 0 -13 -7 -38 -16 -55 -10 -19 -14
-42 -10 -60 4 -20 1 -30 -9 -34 -8 -4 -15 -17 -15 -30 0 -13 -4 -32 -9 -42
-18 -36 -31 -90 -25 -106 4 -10 -2 -23 -17 -35 l-24 -20 30 -58 c21 -41 37
-59 53 -61 27 -4 28 6 1 69 -21 49 -20 74 3 51 20 -20 38 -13 38 15 0 14 7 35
17 45 15 17 15 19 0 36 -22 24 -21 32 3 32 32 0 35 27 6 61 -37 44 -34 68 5
33 29 -26 36 -15 52 76 1 8 9 26 16 40 13 23 12 26 -24 57 -43 37 -46 38 -63
21z"/>
<path d="M6465 5500 c-26 -29 -13 -50 33 -50 48 0 82 30 62 55 -18 22 -73 19
-95 -5z"/>
<path d="M5227 5293 c-11 -11 -8 -48 5 -61 18 -18 48 -15 48 6 0 19 -27 62
-39 62 -4 0 -11 -3 -14 -7z"/>
<path d="M5330 5271 c0 -23 23 -34 38 -19 8 8 7 15 -6 24 -24 18 -32 17 -32
-5z"/>
<path d="M4605 5047 c-3 -7 3 -37 13 -67 20 -60 46 -85 62 -60 17 26 11 64
-15 103 -26 37 -51 48 -60 24z"/>
<path d="M7805 5393 c-35 -17 -57 -42 -49 -54 10 -17 51 -9 72 14 39 41 25 64
-23 40z"/>
<path d="M7618 5291 c-26 -23 -30 -32 -21 -42 16 -16 105 35 97 56 -9 24 -41
18 -76 -14z"/>
<path d="M7374 5208 c-4 -6 -2 -14 4 -16 6 -2 28 -15 48 -28 36 -25 70 -26 62
-2 -10 29 -102 66 -114 46z"/>
<path d="M7326 5152 c-6 -11 42 -39 74 -44 17 -2 26 2 28 14 4 23 -89 51 -102
30z"/>
<path d="M7226 5142 c-7 -12 11 -28 57 -47 40 -16 77 -20 77 -7 0 5 -26 19
-57 33 -32 13 -61 25 -64 27 -4 2 -10 -1 -13 -6z"/>
<path d="M7080 5113 c0 -11 23 -32 56 -52 45 -27 60 -31 77 -24 21 9 20 11
-18 30 -22 12 -49 30 -59 42 -23 26 -56 28 -56 4z"/>
<path d="M6970 5115 c0 -13 63 -94 78 -100 29 -11 25 6 -14 52 -37 44 -64 64
-64 48z"/>
<path d="M6870 5076 c0 -16 71 -76 89 -76 22 0 10 19 -33 54 -47 40 -56 43
-56 22z"/>
<path d="M6710 5060 c0 -10 14 -35 31 -55 47 -53 78 -45 58 14 -10 29 -52 61
-79 61 -5 0 -10 -9 -10 -20z"/>
<path d="M6540 5022 c0 -18 61 -72 82 -72 17 0 6 23 -23 51 -30 28 -59 38 -59
21z"/>
<path d="M8525 5340 c3 -5 11 -10 16 -10 6 0 7 5 4 10 -3 6 -11 10 -16 10 -6
0 -7 -4 -4 -10z"/>
<path d="M5734 4338 c-60 -45 -204 -182 -204 -194 0 -7 -16 -26 -36 -42 -35
-29 -36 -31 -24 -66 6 -20 9 -40 6 -45 -4 -5 -1 -22 6 -38 43 -102 122 -97
241 15 39 38 47 66 21 76 -26 10 -31 8 -79 -34 -52 -45 -84 -64 -93 -56 -3 3
4 16 16 29 26 27 27 40 7 57 -13 11 -12 16 10 42 14 16 25 40 25 53 0 28 71
87 126 105 35 12 44 36 22 58 -8 8 -8 15 1 26 12 15 8 36 -8 36 -4 0 -21 -10
-37 -22z"/>
<path d="M6816 4282 c-38 -9 -50 -31 -42 -75 9 -47 31 -69 60 -61 16 4 25 0
29 -10 4 -9 17 -16 31 -16 21 0 24 -4 23 -27 -2 -23 2 -29 24 -31 19 -2 33 5
53 28 35 43 35 89 -1 127 -16 16 -32 36 -38 45 -11 19 -93 30 -139 20z"/>
<path d="M5671 4126 c-29 -31 -24 -60 11 -64 55 -6 123 56 87 79 -27 17 -75
10 -98 -15z"/>
<path d="M9360 4060 c-31 -31 -2 -74 57 -86 26 -5 32 -2 38 16 8 27 -19 69
-53 81 -17 6 -28 3 -42 -11z"/>
<path d="M6245 3780 c-36 -24 -53 -25 -76 -4 -16 15 -20 15 -41 0 -12 -9 -29
-16 -37 -16 -8 0 -38 -22 -67 -50 -29 -27 -61 -50 -71 -50 -23 0 -43 -19 -43
-40 0 -9 -9 -25 -20 -35 -11 -10 -20 -23 -20 -29 0 -7 -8 -28 -19 -48 -10 -20
-28 -62 -41 -93 -20 -49 -21 -61 -11 -96 7 -22 21 -45 31 -51 11 -7 34 -41 52
-76 18 -36 42 -69 54 -74 16 -8 23 -22 27 -57 6 -53 25 -101 40 -101 6 0 19 8
29 17 12 10 32 16 53 15 21 -2 53 7 77 19 24 13 51 26 61 31 9 4 25 13 36 20
35 22 51 4 51 -60 0 -135 71 -102 177 83 26 44 64 103 85 132 29 38 38 58 33
73 -5 15 3 31 29 60 34 37 36 44 36 106 0 73 -18 119 -50 127 -23 6 -130 -37
-130 -52 0 -5 -16 -15 -35 -21 -37 -12 -108 -73 -118 -102 -3 -9 -24 -26 -47
-38 l-40 -21 -35 34 c-19 19 -35 38 -35 42 0 4 19 5 41 1 44 -7 89 12 89 38 0
7 26 29 58 49 62 38 109 83 112 107 6 39 1 43 -45 37 -43 -6 -46 -5 -84 36
-38 41 -41 42 -72 30 -34 -13 -55 -8 -28 7 36 21 62 47 55 58 -10 17 -27 15
-61 -8z m-75 -40 c0 -5 -7 -10 -16 -10 -8 0 -12 5 -9 10 3 6 10 10 16 10 5 0
9 -4 9 -10z m-72 -119 c-1 -5 -23 -25 -47 -43 -33 -25 -49 -47 -66 -93 -23
-64 -48 -79 -53 -33 -2 21 9 44 44 90 26 35 54 69 62 76 18 14 65 17 60 3z
m46 -69 c3 -5 8 -27 12 -50 6 -40 5 -41 -34 -61 -23 -12 -48 -21 -57 -21 -19
0 -20 33 0 65 8 14 22 36 30 50 15 25 39 33 49 17z m446 -52 c0 -19 -20 -27
-33 -13 -8 7 11 33 24 33 5 0 9 -9 9 -20z m-640 -102 c0 -19 -18 -44 -25 -36
-4 3 0 15 7 27 15 24 18 26 18 9z m105 -58 c4 -6 2 -16 -3 -23 -19 -22 -2 -96
26 -118 l26 -20 -32 -29 c-18 -16 -32 -36 -32 -44 0 -9 -4 -16 -9 -16 -15 0
-22 152 -10 208 12 51 21 63 34 42z m108 -37 c2 -5 0 -21 -4 -38 -3 -16 -7
-24 -8 -17 0 7 -14 20 -31 31 -16 10 -27 21 -23 24 9 9 61 9 66 0z m147 -7 c0
-14 -29 -31 -38 -22 -2 3 -2 12 1 21 8 19 37 20 37 1z m143 -43 c9 -8 -22 -43
-38 -43 -7 0 -18 6 -24 14 -10 11 -8 17 6 25 21 12 47 14 56 4z m-313 -33 c0
-5 -2 -10 -4 -10 -3 0 -8 5 -11 10 -3 6 -1 10 4 10 6 0 11 -4 11 -10z"/>
<path d="M8906 3676 c-26 -8 -56 -12 -65 -9 -10 2 -24 -3 -31 -12 -13 -15 -11
-20 9 -36 31 -25 19 -39 -35 -39 -60 0 -76 -19 -99 -118 l-18 -82 21 -21 c12
-11 22 -26 22 -33 0 -18 22 -26 50 -19 22 6 40 -9 40 -33 0 -6 -13 -28 -30
-49 -36 -46 -37 -53 -5 -65 18 -7 25 -17 25 -35 0 -20 5 -25 24 -25 17 0 26
-7 30 -25 4 -14 11 -25 17 -25 5 0 20 -11 33 -23 19 -19 39 -25 92 -30 38 -4
82 -2 99 3 16 5 46 12 66 15 47 7 79 38 79 77 l0 31 51 -7 c41 -6 55 -4 70 10
18 16 18 17 -4 36 l-22 19 30 -2 c17 -1 36 -1 43 0 21 2 13 46 -13 69 -14 12
-25 28 -25 35 0 7 -13 31 -28 53 -16 21 -34 58 -41 82 -11 38 -57 97 -126 162
-9 8 -29 28 -45 43 -30 29 -116 68 -148 66 -9 0 -39 -6 -66 -13z m369 -416
c-3 -5 -13 -10 -21 -10 -8 0 -12 5 -9 10 3 6 13 10 21 10 8 0 12 -4 9 -10z
m-225 -110 c0 -21 -15 -27 -25 -10 -7 12 2 30 16 30 5 0 9 -9 9 -20z"/>
<path d="M9558 3486 c-50 -14 -98 -41 -98 -56 0 -15 18 -12 106 18 51 17 79
32 76 40 -5 15 -23 14 -84 -2z"/>
<path d="M9588 3353 c-34 -9 -20 -33 18 -33 38 0 74 15 74 30 0 10 -59 12 -92
3z"/>
<path d="M8564 3184 c-4 -17 -1 -31 10 -42 21 -22 39 -4 31 31 -9 36 -33 42
-41 11z"/>
<path d="M8280 3130 c0 -32 25 -72 64 -103 44 -34 86 -114 86 -162 0 -30 11
-46 72 -111 64 -68 74 -83 89 -142 10 -40 13 -71 8 -76 -5 -6 -9 -23 -9 -39 0
-41 -16 -65 -53 -81 -18 -7 -47 -26 -66 -42 -19 -16 -48 -41 -66 -56 -40 -35
-119 -183 -111 -211 4 -15 -7 -34 -39 -68 -50 -53 -63 -89 -46 -125 9 -20 8
-31 -4 -54 -25 -48 -19 -74 25 -114 22 -20 44 -36 49 -36 5 0 11 -10 13 -21 3
-25 41 -55 79 -64 26 -6 27 -5 27 37 0 24 3 68 7 99 7 52 5 58 -13 63 -11 4
-23 13 -26 21 -8 22 -25 18 -63 -15 -35 -31 -48 -36 -57 -21 -8 13 47 84 93
121 37 30 40 37 48 99 4 36 6 87 4 114 -3 46 -2 48 61 110 34 35 75 72 91 81
15 10 27 25 27 32 0 8 10 14 25 14 18 0 31 9 43 30 9 16 22 30 29 30 6 0 32
-36 58 -79 36 -62 52 -81 74 -86 27 -6 28 -7 18 -44 -12 -46 -5 -68 25 -80 13
-5 33 -13 45 -17 l23 -9 -26 -55 c-16 -34 -24 -67 -22 -90 3 -30 7 -35 31 -38
18 -2 27 -8 24 -16 -3 -7 -15 -49 -27 -93 -21 -78 -31 -92 -71 -93 -3 0 -9 30
-12 68 -3 37 -11 81 -18 97 -12 28 -14 23 -19 -70 -6 -109 -26 -169 -48 -142
-11 12 -19 97 -12 122 7 28 -2 67 -21 86 -14 14 -19 28 -15 43 12 47 -12 192
-40 246 -25 48 -29 51 -41 34 -7 -10 -13 -42 -13 -71 0 -39 -5 -58 -19 -72
-19 -19 -19 -19 1 -24 15 -4 17 -9 10 -24 -6 -10 -10 -29 -10 -43 1 -27 -56
-241 -72 -271 -6 -10 -14 -35 -18 -56 -6 -28 -14 -39 -32 -43 -23 -6 -19 -10
36 -38 l61 -31 54 31 c30 17 65 39 78 49 13 11 36 19 51 19 15 0 33 6 39 14 7
8 28 22 47 31 34 16 37 16 56 -1 18 -17 21 -17 29 -3 13 25 67 45 82 30 8 -8
3 -19 -19 -43 -53 -57 -86 -108 -80 -123 3 -9 19 -15 41 -15 19 0 35 -4 35 -9
0 -5 -20 -35 -45 -67 -51 -65 -60 -115 -25 -134 27 -15 25 -36 -5 -56 -36 -24
-34 -69 4 -88 15 -8 36 -26 45 -40 14 -22 24 -26 67 -26 63 0 67 -10 45 -107
l-18 -75 22 -23 c21 -22 24 -23 59 -10 47 16 158 72 193 96 14 11 29 19 32 19
8 0 8 -114 0 -134 -3 -8 -35 -34 -70 -57 -45 -29 -62 -45 -55 -52 8 -8 28 -4
66 12 57 24 75 22 75 -7 0 -10 7 -28 17 -41 13 -19 14 -28 4 -42 -30 -48 95
16 139 71 21 26 40 40 55 40 53 0 40 -34 -60 -155 -50 -61 -62 -81 -49 -83 36
-8 226 231 207 261 -3 5 -23 6 -44 3 -34 -5 -39 -4 -39 13 0 42 -55 33 -79
-13 -15 -27 -48 -44 -60 -29 -4 4 -12 20 -18 35 -11 23 -8 32 27 78 22 29 37
57 34 61 -9 16 -40 10 -59 -11 -21 -23 -35 -26 -35 -6 0 7 -10 25 -21 40 -16
20 -19 30 -10 39 8 8 6 16 -6 29 -16 18 -17 18 -42 -5 -48 -44 -157 -107 -184
-107 -26 0 -27 2 -27 58 0 73 22 117 80 159 76 56 115 90 110 96 -6 6 -23 -2
-81 -40 -45 -30 -49 -29 -42 14 5 42 48 88 162 178 135 106 214 185 248 245
39 70 38 70 15 70 -12 0 -27 -17 -41 -46 -31 -61 -74 -109 -127 -140 -24 -14
-44 -29 -44 -33 0 -5 -18 -16 -41 -26 -22 -11 -57 -35 -76 -54 -19 -19 -45
-40 -56 -46 -11 -5 -25 -25 -29 -42 -5 -18 -20 -40 -33 -49 -14 -9 -25 -24
-25 -34 0 -20 -46 -69 -75 -80 -69 -25 -74 -23 -96 26 -17 40 -18 49 -6 63 33
39 29 59 -16 79 -29 12 -29 13 -12 40 35 54 89 122 98 122 9 0 6 -18 -7 -51
-8 -18 33 -83 56 -87 8 -2 29 9 46 23 16 14 34 25 40 25 6 0 21 12 34 28 27
31 59 48 108 57 26 4 43 16 65 46 17 23 69 78 118 124 48 46 87 88 87 94 0 28
-27 20 -64 -18 -23 -23 -81 -71 -131 -107 -160 -115 -195 -144 -205 -168 -6
-18 -18 -25 -47 -29 -21 -2 -42 -1 -47 4 -5 5 0 32 12 66 15 40 18 61 11 68
-10 10 -39 -17 -53 -48 -3 -8 -11 -5 -22 11 -9 12 -25 22 -35 22 -31 0 -32 21
-2 53 52 55 75 95 71 124 -3 25 -7 28 -39 29 -45 1 -59 10 -59 37 0 44 27 97
78 156 29 33 52 64 52 69 0 25 -33 18 -71 -13 -39 -33 -89 -47 -89 -25 0 26
34 87 81 146 30 38 49 70 45 79 -8 22 -20 19 -66 -20 -72 -60 -110 -38 -72 40
11 24 35 59 52 79 22 25 30 41 25 56 -9 27 -18 26 -92 -15 -35 -19 -66 -35
-68 -35 -15 0 -1 58 25 110 35 69 35 70 13 70 -9 0 -28 -14 -43 -32 -18 -21
-32 -29 -43 -25 -31 12 -36 39 -17 97 19 61 18 70 -10 70 -13 0 -25 -12 -34
-35 -8 -19 -22 -35 -30 -35 -16 0 -21 12 -31 75 -16 103 -55 172 -70 124 -10
-30 -23 -23 -56 29 -30 47 -33 56 -44 123 -3 22 -23 56 -53 92 -27 32 -55 70
-62 85 -27 53 -80 81 -80 42z m360 -1125 c0 -19 -5 -46 -11 -62 -6 -15 -13
-55 -14 -88 -7 -144 -43 -259 -76 -239 -11 7 -12 41 -1 48 5 3 10 27 11 53 1
50 18 121 31 138 4 6 13 46 20 90 6 44 13 86 15 93 8 24 25 2 25 -33z m785
-1225 c3 -5 1 -10 -4 -10 -6 0 -11 5 -11 10 0 6 2 10 4 10 3 0 8 -4 11 -10z
m-20 -40 c3 -5 1 -10 -4 -10 -6 0 -11 5 -11 10 0 6 2 10 4 10 3 0 8 -4 11 -10z"/>
<path d="M7530 2940 c-8 -5 -24 -10 -35 -10 -15 0 -28 -15 -46 -52 -23 -49
-33 -58 -98 -88 -25 -11 -24 -29 3 -40 14 -5 26 -14 26 -19 0 -5 -13 -38 -30
-73 -33 -70 -38 -109 -14 -132 18 -19 36 -20 51 -5 25 25 57 5 88 -53 21 -40
43 -65 76 -87 64 -42 105 -41 146 2 65 68 88 143 61 202 -9 21 -9 31 0 46 18
29 14 53 -12 78 l-25 23 21 28 21 28 -22 28 c-11 14 -21 32 -21 39 0 7 -13 27
-30 45 -28 30 -31 31 -52 16 -32 -23 -57 -20 -68 9 -10 27 -17 30 -40 15z"/>
<path d="M9597 2638 c-25 -38 -48 -174 -57 -332 -8 -124 -7 -153 6 -177 9 -17
23 -29 35 -29 11 0 23 -10 29 -24 13 -34 25 -38 45 -16 34 37 53 26 61 -36 3
-31 17 -75 30 -98 12 -22 32 -67 44 -98 17 -46 26 -58 43 -58 12 0 31 -12 43
-27 16 -20 26 -25 33 -18 6 6 15 78 21 160 5 83 14 177 20 210 25 145 28 190
17 214 -27 56 -46 21 -62 -114 -3 -27 -9 -65 -12 -83 -5 -32 -6 -32 -29 -17
-23 15 -25 14 -34 -10 -5 -14 -14 -25 -19 -25 -15 0 -21 28 -21 102 0 65 -2
72 -30 98 -35 33 -37 52 -9 114 22 51 18 82 -12 91 -28 9 -43 -13 -75 -115
-34 -106 -35 -109 -46 -80 -6 16 -4 39 7 69 59 179 76 244 63 252 -19 13 -26
11 -38 -8 -9 -15 -10 -12 -6 13 4 23 0 36 -14 49 -17 16 -19 15 -33 -7z m285
-630 c-9 -9 -12 -7 -12 12 0 19 3 21 12 12 9 -9 9 -15 0 -24z"/>
<path d="M8516 2152 c-15 -24 -34 -133 -22 -129 16 5 37 76 34 112 -2 21 -6
26 -12 17z"/>
<path d="M8737 2133 c-11 -18 -11 -143 0 -154 8 -8 11 11 12 75 1 81 -1 97
-12 79z"/>
<path d="M5847 2123 c-10 -10 -8 -233 2 -233 24 0 35 37 39 136 4 98 4 104
-15 104 -11 0 -23 -3 -26 -7z"/>
<path d="M9610 1612 c0 -5 -49 -59 -110 -120 -60 -62 -104 -112 -97 -112 27 0
119 76 172 142 65 80 74 98 51 98 -9 0 -16 -4 -16 -8z"/>
<path d="M9879 1476 c-26 -26 -132 -171 -204 -278 -26 -40 -40 -70 -34 -74 13
-8 56 40 164 181 47 61 97 124 111 142 41 50 9 75 -37 29z"/>
<path d="M9545 1441 c-16 -10 -54 -45 -84 -77 -29 -33 -68 -75 -86 -94 -30
-32 -65 -98 -65 -121 0 -17 19 -9 25 11 4 12 34 34 73 54 144 73 249 147 237
166 -12 19 -33 10 -83 -35 -27 -25 -56 -45 -64 -45 -8 0 -19 -5 -25 -11 -6 -6
-17 -9 -23 -7 -16 5 83 114 122 134 28 14 33 34 12 41 -5 2 -22 -6 -39 -16z"/>
<path d="M7694 1255 c-40 -18 -49 -30 -64 -91 -25 -97 9 -183 67 -172 24 4 30
38 7 38 -16 0 -15 2 4 23 21 22 50 91 58 137 5 26 -14 72 -31 76 -5 1 -24 -4
-41 -11z"/>
<path d="M9564 1207 c-44 -49 -48 -57 -30 -57 8 0 30 13 47 28 26 24 29 30 17
40 -12 9 -19 7 -34 -11z"/>
<path d="M9678 1063 c-16 -18 -48 -77 -48 -88 0 -3 6 -5 14 -5 11 0 40 35 79
97 13 20 -27 16 -45 -4z"/>
<path d="M9733 1006 c-17 -24 -33 -51 -35 -61 -4 -25 19 -31 27 -6 3 10 19 36
35 56 32 41 37 55 18 55 -7 -1 -27 -20 -45 -44z"/>
<path d="M7876 835 c-9 -13 -16 -29 -16 -34 0 -29 89 -41 148 -20 29 10 84 4
254 -28 20 -4 30 -1 34 12 14 36 -44 59 -146 57 -19 -1 -67 8 -106 18 -99 28
-147 27 -168 -5z"/>
<path d="M7369 804 c-16 -20 -2 -45 33 -58 33 -12 66 0 50 16 -7 7 -12 22 -12
35 0 19 -5 23 -29 23 -16 0 -34 -7 -42 -16z"/>
<path d="M9144 715 c-10 -24 2 -42 32 -49 38 -10 51 7 30 38 -18 29 -53 35
-62 11z"/>
<path d="M9310 625 c13 -16 50 -21 50 -6 0 10 -24 21 -47 21 -13 0 -13 -3 -3
-15z"/>
<path d="M11352 1804 c-38 -16 -41 -31 -7 -44 14 -5 25 -16 25 -23 0 -22 64
-6 68 17 4 16 -1 18 -35 12 l-38 -6 23 19 c12 11 22 21 22 24 0 13 -29 13 -58
1z"/>
<path d="M2285 4669 c-22 -10 -47 -19 -56 -19 -8 0 -46 -19 -85 -42 -125 -75
-324 -302 -324 -370 0 -13 -7 -33 -15 -44 -8 -10 -15 -29 -15 -41 0 -12 -16
-52 -35 -89 -19 -37 -35 -79 -35 -94 0 -21 -7 -30 -27 -38 -35 -12 -128 -31
-210 -42 -34 -4 -65 -10 -70 -13 -4 -3 -60 -8 -123 -12 -141 -8 -180 -23 -180
-70 0 -32 16 -52 57 -74 24 -12 29 -10 138 48 24 13 57 21 88 21 27 0 76 7
109 16 41 10 112 16 216 17 150 1 155 1 173 -22 32 -39 24 -70 -34 -136 -49
-56 -137 -192 -137 -213 0 -10 -91 -115 -128 -147 -13 -11 -40 -37 -60 -58
-38 -40 -200 -165 -240 -186 -13 -7 -48 -35 -78 -62 -30 -27 -62 -49 -72 -49
-9 0 -42 -16 -72 -35 -30 -19 -59 -35 -66 -35 -6 0 -23 -9 -37 -20 -14 -11
-57 -33 -96 -49 -92 -37 -140 -74 -148 -113 -4 -20 -25 -45 -66 -80 -72 -60
-81 -63 -180 -73 -88 -8 -107 -23 -107 -88 0 -52 21 -98 70 -151 l42 -46 40
22 c32 18 42 20 56 10 76 -55 101 -43 175 83 32 55 70 112 84 127 15 15 96 62
182 103 86 42 163 81 171 86 8 5 31 17 50 25 19 9 97 45 174 81 132 61 165 68
151 31 -6 -16 -21 -27 -195 -150 -63 -45 -118 -88 -123 -94 -14 -23 -116 -105
-197 -157 -19 -13 -41 -34 -47 -49 -9 -18 -47 -43 -121 -82 -111 -58 -192
-124 -192 -158 0 -26 36 -58 65 -58 29 0 28 0 15 -36 -6 -15 -8 -35 -5 -44 8
-26 92 -44 163 -35 48 6 62 13 92 44 19 21 53 69 76 107 45 75 99 116 179 134
72 16 145 49 225 99 139 89 140 88 146 -25 6 -90 -13 -283 -29 -302 -5 -7 -14
-43 -18 -80 -4 -37 -12 -89 -18 -117 -5 -27 -10 -82 -10 -121 -1 -65 1 -72 29
-99 l29 -28 118 6 c124 6 168 17 297 76 38 17 73 31 77 31 5 0 21 -19 36 -42
16 -24 47 -67 70 -96 24 -29 49 -65 58 -81 14 -28 53 -46 135 -65 42 -9 138
-79 171 -124 l31 -43 -6 -117 c-8 -134 -10 -161 -18 -182 -6 -15 -27 -225 -29
-290 -3 -88 1 -102 32 -131 27 -25 31 -36 36 -101 4 -59 2 -76 -10 -86 -12
-10 -90 -13 -329 -14 -172 0 -324 2 -338 5 -14 4 -72 9 -130 13 -195 12 -201
11 -211 -7 -12 -24 -1 -48 25 -53 51 -11 149 -18 246 -18 108 0 145 -7 119
-24 -8 -4 -47 -7 -86 -5 -61 2 -73 0 -73 -13 0 -9 9 -25 21 -37 20 -20 27 -20
287 -14 147 3 351 10 454 16 104 6 194 9 201 6 6 -2 50 0 97 4 47 5 92 10 100
10 8 0 69 4 135 9 66 5 190 12 275 15 85 3 205 9 265 12 118 8 275 8 365 2 45
-3 55 -1 58 12 7 39 -144 57 -448 52 -412 -7 -522 -3 -535 17 -3 5 7 12 22 15
51 11 113 47 119 70 10 42 0 79 -26 92 -15 7 -63 13 -117 13 -90 0 -92 0 -118
32 -20 24 -25 37 -20 57 4 14 6 161 5 326 -1 236 2 319 14 389 9 49 16 117 16
152 0 61 1 64 24 64 37 0 62 -28 110 -126 25 -50 58 -106 73 -124 15 -19 44
-55 63 -81 65 -87 168 -200 210 -230 38 -27 46 -30 79 -22 50 13 61 7 61 -32
0 -43 14 -81 34 -88 8 -3 57 9 108 28 51 18 113 39 138 45 138 35 270 101 328
164 46 50 52 74 24 99 -25 23 -68 21 -99 -3 -14 -11 -36 -20 -48 -20 -12 0
-48 -14 -80 -31 -66 -35 -106 -34 -185 4 -49 24 -48 21 -34 128 l6 47 -57 33
c-78 47 -135 95 -165 138 -41 60 -130 242 -130 266 0 37 -58 139 -97 169 -34
28 -309 176 -325 176 -17 0 -7 31 20 62 44 51 107 149 124 193 19 49 15 152
-8 247 -14 61 -23 74 -98 155 -45 48 -91 104 -103 124 -21 33 -21 38 -8 84 22
73 19 91 -21 121 l-35 27 46 47 c39 39 47 54 50 91 1 24 -2 53 -8 64 -12 22
-17 61 -16 141 0 50 -1 52 -87 142 -71 76 -92 92 -116 92 -35 0 -137 59 -138
79 0 8 6 30 12 49 11 30 11 35 -7 49 -20 14 -20 15 6 36 15 12 37 42 49 67 12
25 40 66 61 92 60 72 67 93 40 122 -13 14 -36 30 -52 37 -18 7 -40 30 -56 58
-14 25 -44 70 -66 98 -30 40 -38 59 -34 80 6 33 -29 162 -51 187 -23 25 -67
46 -127 62 -66 18 -102 16 -150 -7z m323 -348 c-1 -5 -38 -48 -80 -96 -43 -47
-78 -90 -78 -95 0 -17 16 -11 40 15 30 32 40 32 40 0 0 -36 26 -42 56 -15 26
25 31 49 13 67 -17 17 -3 43 22 43 12 0 38 -15 58 -32 21 -18 50 -43 65 -56
31 -26 31 -28 -19 -106 -40 -63 -60 -68 -60 -15 0 27 -4 35 -21 37 -19 3 -23
-3 -29 -45 -7 -45 -5 -49 24 -74 37 -31 39 -39 7 -39 -18 0 -27 -8 -35 -30
-10 -32 -6 -60 10 -60 5 0 14 -11 20 -24 9 -18 7 -30 -5 -54 -21 -40 -68 -54
-166 -50 l-75 3 3 70 c2 75 -19 155 -43 155 -14 0 -69 -36 -181 -118 -74 -55
-94 -61 -113 -38 -10 12 -2 26 40 73 29 32 70 70 91 85 35 26 36 29 27 58 -19
53 34 105 80 81 11 -6 22 -11 25 -11 3 0 31 33 62 73 71 90 190 207 210 207 9
0 14 -4 12 -9z m-264 -497 c24 -64 -18 -149 -62 -125 -12 6 -39 11 -61 11 -22
0 -42 4 -45 9 -6 9 131 119 150 120 7 1 15 -6 18 -15z m-257 -163 c82 -30 248
-128 317 -187 86 -74 170 -188 209 -286 20 -52 37 -103 37 -113 -1 -23 -19 -4
-100 99 -24 32 -61 71 -82 87 -26 21 -42 45 -53 82 -10 28 -23 58 -31 66 -11
12 -15 10 -25 -12 -14 -30 -27 -34 -35 -12 -6 14 -106 90 -151 113 -12 7 -81
23 -154 36 -117 22 -148 34 -149 57 0 3 19 27 43 53 52 55 66 57 174 17z m603
-81 c0 -5 -9 -14 -20 -20 -21 -11 -55 -77 -50 -95 7 -24 0 -50 -19 -69 -19
-18 -21 -18 -27 -3 -3 10 -1 30 4 45 6 15 16 46 22 69 7 29 20 47 43 62 36 23
47 26 47 11z m155 0 c4 -6 -12 -9 -39 -8 -24 1 -42 6 -40 10 7 11 72 10 79 -2z
m-135 -50 c-38 -48 -50 -56 -50 -35 0 19 53 75 70 75 6 0 -3 -18 -20 -40z
m146 -21 l19 -21 -35 7 c-42 9 -50 13 -50 26 0 17 47 9 66 -12z m-939 -31 c15
-6 76 -21 135 -34 118 -24 184 -52 238 -99 19 -17 52 -42 74 -55 45 -27 154
-169 192 -250 15 -30 35 -66 44 -80 10 -14 32 -67 50 -118 35 -102 37 -158 7
-282 -23 -92 -80 -256 -109 -315 -37 -72 -110 -167 -157 -205 -22 -18 -43 -41
-46 -50 -8 -24 -190 -207 -233 -233 -20 -13 -77 -41 -127 -63 -87 -38 -91 -39
-198 -37 -61 1 -114 6 -120 12 -24 24 -10 195 38 466 10 57 13 117 8 208 l-6
128 34 35 c19 20 47 42 62 50 49 26 250 62 347 63 99 1 130 11 130 41 0 22 -2
23 -78 21 -119 -2 -128 45 -36 187 21 31 43 62 49 67 6 6 26 39 43 74 58 117
1 99 -107 -33 -33 -41 -90 -101 -126 -133 -36 -33 -65 -65 -65 -71 0 -7 -18
-21 -39 -31 -21 -11 -47 -32 -57 -46 -29 -38 -153 -135 -209 -161 -57 -27
-194 -111 -222 -136 -10 -9 -37 -22 -60 -29 -35 -10 -45 -10 -58 1 -21 18 -65
104 -65 128 0 25 49 69 155 138 175 114 365 283 486 433 55 67 59 75 46 94
-22 34 -33 31 -79 -25 -55 -67 -136 -148 -149 -148 -13 0 -11 103 5 192 18 97
74 262 98 288 21 22 63 26 105 8z m913 2 c0 -5 -18 -14 -39 -20 -22 -6 -51
-23 -65 -40 -13 -17 -27 -30 -30 -30 -13 0 -5 38 12 52 43 38 122 63 122 38z
m60 -48 c0 -14 -11 -21 -26 -15 -8 3 -11 9 -8 14 7 11 34 12 34 1z m-90 -40
c0 -4 -20 -25 -45 -46 -25 -22 -45 -44 -45 -49 0 -6 19 -7 45 -4 51 7 54 -8 6
-36 -41 -24 -58 -21 -76 13 -19 36 -19 60 -2 60 8 0 31 16 53 35 37 32 64 44
64 27z m110 -39 c-1 -10 -68 -53 -82 -53 -20 0 -1 26 33 42 37 20 49 22 49 11z
m30 -71 c0 -22 -25 -47 -57 -56 -30 -9 -29 -6 10 37 36 41 47 46 47 19z
m-1309 -72 c21 -12 24 -39 10 -103 -6 -23 -13 -59 -16 -79 -5 -33 -14 -43 -63
-75 -83 -53 -382 -209 -478 -249 -108 -44 -129 -44 -144 1 -16 49 -4 65 92
120 46 27 105 62 132 79 28 17 67 40 89 51 47 25 306 217 332 245 21 23 20 23
46 10z m1313 -57 c-17 -12 -19 -12 -23 3 -2 10 5 24 15 31 17 12 19 12 23 -3
2 -10 -5 -24 -15 -31z m-64 -21 c0 -13 -79 -46 -88 -38 -11 12 37 46 64 46 13
0 24 -4 24 -8z m14 -88 c22 -22 20 -34 -7 -34 -30 0 -62 24 -53 38 10 17 42
15 60 -4z m46 -84 c0 -5 -4 -10 -10 -10 -5 0 -10 5 -10 10 0 6 5 10 10 10 6 0
10 -4 10 -10z m-126 -208 c22 -27 36 -55 36 -71 0 -17 10 -37 26 -52 20 -19
24 -30 19 -55 -5 -27 -1 -36 22 -54 23 -18 28 -30 28 -63 0 -40 1 -42 30 -42
17 0 31 -4 33 -10 3 -11 -97 -22 -221 -24 -94 -1 -96 2 -74 102 27 117 37 187
37 247 0 85 9 88 64 22z m-1919 -24 c7 -18 16 -49 20 -70 6 -30 4 -38 -13 -47
-33 -18 -40 -14 -67 39 -29 58 -30 67 -8 92 25 28 52 22 68 -14z m2173 -56
c45 -45 97 -221 72 -246 -10 -10 -12 -7 -14 29 -1 16 -9 21 -39 23 l-37 3 17
31 c18 30 18 31 -8 50 -24 18 -25 23 -15 49 8 22 8 34 -2 49 -6 11 -12 22 -12
25 0 11 21 4 38 -13z m-2283 -48 c36 -24 37 -39 2 -93 -18 -27 -54 -86 -80
-130 -53 -90 -84 -108 -73 -43 3 22 3 42 0 45 -4 3 -37 -9 -74 -28 -61 -31
-80 -34 -80 -15 0 3 21 21 46 39 54 38 52 50 -6 27 -84 -34 -109 -12 -32 29
l47 25 -50 -3 c-39 -1 -50 1 -53 14 -2 14 11 18 82 24 85 7 86 7 163 66 42 32
79 59 80 59 2 0 14 -7 28 -16z m443 -237 c18 -34 32 -67 32 -72 0 -6 -25 -23
-55 -38 l-55 -27 -19 38 c-34 67 -35 96 -6 131 42 49 64 42 103 -32z m1596
-90 c-11 -38 -25 -47 -69 -47 -54 0 -75 8 -75 28 0 34 26 47 90 44 57 -4 60
-5 54 -25z m286 -1 c0 -14 -15 -40 -34 -61 -29 -30 -41 -36 -68 -33 -32 3 -33
5 -32 42 2 52 31 76 90 76 40 0 44 -2 44 -24z m-2056 -2 c9 -8 16 -29 16 -45
0 -34 -74 -199 -89 -199 -6 0 -11 18 -11 40 0 22 -5 40 -10 40 -6 0 -30 -20
-53 -45 -24 -25 -51 -45 -60 -45 -23 0 -21 9 8 53 28 41 27 44 -14 23 -16 -9
-33 -11 -41 -6 -11 7 -6 13 19 27 18 10 43 26 55 35 20 17 20 17 1 17 -11 0
-31 -6 -45 -14 -14 -8 -36 -14 -49 -15 -41 0 -4 29 94 76 50 23 99 49 110 58
26 20 50 20 69 0z m1854 -47 c3 -35 2 -37 -28 -37 -38 0 -48 21 -25 56 24 36
49 28 53 -19z m-202 -48 c8 -6 14 -17 14 -23 0 -13 -86 -130 -98 -134 -5 -1
-21 7 -35 18 -29 23 -35 51 -14 69 8 6 22 29 32 52 18 39 21 41 53 35 19 -3
40 -10 48 -17z m170 -66 c-21 -85 -29 -104 -53 -122 -14 -12 -38 -21 -54 -21
-36 0 -79 17 -79 30 0 7 24 40 53 76 49 61 54 64 96 64 42 0 43 -1 37 -27z
m152 2 c3 -3 0 -16 -6 -30 -10 -21 -19 -25 -52 -25 -31 0 -40 4 -40 17 0 31
32 55 64 49 16 -4 32 -8 34 -11z m-28 -108 c0 -24 -34 -47 -58 -40 -30 7 -25
35 8 44 39 11 50 10 50 -4z m162 -51 c29 -13 61 -33 72 -44 18 -21 18 -21 -10
-47 -45 -42 -67 -42 -134 1 -64 42 -73 61 -40 94 26 26 48 25 112 -4z m-439
-24 c56 -9 41 -42 -19 -42 -38 0 -70 30 -52 48 7 7 19 9 28 6 8 -4 27 -9 43
-12z m-153 -22 c11 -11 20 -24 20 -29 0 -10 -72 -41 -96 -41 -19 0 -74 40 -74
55 0 39 114 51 150 15z m329 1 c12 -8 12 -12 2 -25 -25 -30 -70 -14 -57 19 6
17 34 19 55 6z m107 -47 c18 -9 50 -34 70 -56 l36 -40 -58 -59 c-36 -36 -62
-55 -67 -50 -12 12 -77 160 -77 174 0 16 32 47 48 47 7 0 29 -7 48 -16z m-628
-16 c4 -20 -19 -33 -73 -42 l-40 -7 38 36 c39 37 69 42 75 13z m969 7 c29 -21
66 -82 59 -100 -7 -19 -96 -75 -118 -75 -20 0 -78 74 -78 100 0 25 75 89 105
90 6 0 20 -7 32 -15z m-521 -28 c37 -32 24 -47 -39 -47 -57 0 -70 6 -80 33
-11 29 0 37 48 37 32 0 52 -7 71 -23z m-181 -23 c24 -25 14 -48 -28 -61 -70
-23 -120 28 -59 61 36 20 67 20 87 0z m-158 -66 c17 -18 50 -67 73 -110 22
-42 47 -82 55 -88 8 -7 15 -25 15 -40 0 -24 -5 -28 -62 -44 -42 -12 -64 -14
-72 -6 -5 5 -20 10 -33 10 -12 0 -31 10 -42 21 -11 12 -36 32 -56 44 -50 29
-165 145 -165 164 0 26 108 61 246 80 5 0 24 -14 41 -31z m390 -30 c25 -29 73
-116 73 -135 0 -16 -40 -33 -81 -33 -24 0 -29 4 -29 24 0 13 -13 50 -30 81
-40 76 -39 85 8 85 27 0 44 -7 59 -22z m322 -19 c17 -17 31 -39 31 -49 0 -21
-64 -78 -96 -86 -18 -5 -94 30 -94 42 0 30 88 123 117 124 6 0 25 -14 42 -31z
m-496 7 c18 -14 77 -145 77 -171 0 -15 -22 -25 -55 -25 -18 0 -29 10 -41 36
-9 19 -36 61 -60 91 -24 31 -42 59 -39 61 4 5 66 19 90 21 6 0 18 -6 28 -13z
m761 -50 c23 -57 18 -71 -43 -105 l-42 -23 -30 28 c-48 46 -48 68 2 114 60 54
86 51 113 -14z m-176 -94 c19 -13 54 -81 46 -93 -11 -19 -87 -69 -104 -69 -16
0 -60 66 -60 90 0 17 71 79 90 79 8 1 21 -3 28 -7z m268 -94 c19 -37 18 -58
-8 -85 -31 -33 -52 -29 -93 22 -44 53 -42 85 7 115 32 19 32 19 56 -3 13 -12
30 -34 38 -49z m-592 26 c9 -25 7 -120 -4 -148 -7 -20 -17 -26 -39 -26 -28 0
-32 4 -46 55 -23 79 -18 106 25 121 47 17 57 17 64 -2z m-169 -86 c8 -28 15
-64 15 -80 0 -30 -4 -32 -92 -43 -42 -5 -47 -4 -53 16 -4 12 -25 41 -47 65
l-40 43 23 11 c19 8 129 34 171 39 4 1 14 -22 23 -51z m624 -39 c23 -34 41
-63 41 -64 0 -5 -72 -48 -102 -61 -26 -12 -29 -10 -58 26 -16 21 -30 47 -30
58 0 19 80 102 99 102 5 0 28 -28 50 -61z m238 -25 c48 -36 44 -65 -11 -92
l-45 -21 -25 20 c-35 28 -35 71 0 98 34 27 40 26 81 -5z m111 -97 c4 -31 -37
-126 -55 -127 -15 0 -53 48 -53 69 0 23 69 93 89 89 9 -2 17 -15 19 -31z
m-234 -36 l27 -28 -52 -42 c-28 -22 -57 -41 -63 -41 -7 0 -25 13 -40 29 -32
33 -27 54 21 90 39 29 74 26 107 -8z m-709 -3 c34 -114 32 -118 -61 -118 -81
0 -78 -3 -74 70 3 67 6 70 70 70 51 0 58 -3 65 -22z m113 -33 c3 -61 -9 -85
-35 -69 -23 14 -31 103 -11 116 29 18 43 4 46 -47z m687 -86 c19 -37 12 -48
-46 -74 -47 -21 -72 -13 -77 25 -3 17 6 32 30 52 44 37 73 36 93 -3z m615 16
c0 -34 -211 -150 -311 -171 -41 -8 -102 -25 -136 -37 -70 -24 -89 -18 -77 27
4 19 19 32 52 46 26 12 54 28 64 37 10 9 28 14 43 11 36 -7 171 20 216 43 21
10 44 19 51 19 7 0 29 9 48 19 43 24 50 25 50 6z m-462 -47 c9 -9 8 -16 -5
-30 -9 -10 -22 -18 -29 -18 -22 0 -27 21 -8 41 20 22 26 23 42 7z m-964 -44
c20 -19 22 -127 4 -141 -7 -6 -35 -17 -62 -26 -74 -23 -85 -14 -79 70 7 116 6
113 67 113 36 0 60 -5 70 -16z m110 -26 c10 -38 7 -96 -6 -104 -29 -18 -43 49
-23 114 7 19 22 14 29 -10z m-27 -210 c6 -7 13 -34 16 -59 7 -52 -11 -89 -44
-89 -23 0 -25 31 -8 110 11 51 19 60 36 38z m-106 -32 c4 -15 5 -50 2 -78 -6
-53 -23 -71 -81 -87 -38 -11 -42 -3 -42 94 0 75 6 88 45 98 44 11 68 3 76 -27z
m143 -217 c16 -15 -1 -22 -67 -30 -83 -10 -103 2 -51 30 39 21 97 21 118 0z
m129 -72 c18 -8 49 -17 69 -21 41 -7 56 -22 40 -38 -23 -23 -387 -67 -433 -53
-26 9 -42 41 -34 73 5 27 7 27 93 30 48 1 103 6 122 11 53 13 107 12 143 -2z
m-850 -218 c33 2 36 -15 3 -23 -30 -7 -146 4 -146 15 0 14 25 18 70 12 25 -3
57 -5 73 -4z m158 -2 c-1 -12 -15 -9 -19 4 -3 6 1 10 8 8 6 -3 11 -8 11 -12z"/>
<path d="M1975 2479 c-38 -16 -75 -27 -83 -24 -7 3 -26 -2 -42 -10 -63 -33
-82 -109 -34 -140 25 -16 27 -16 51 7 13 12 30 42 36 66 9 32 15 41 27 36 38
-17 65 -14 135 11 42 15 78 32 82 38 10 17 -37 47 -71 46 -17 0 -62 -14 -101
-30z"/>
<path d="M1936 2241 c-17 -26 47 -71 101 -71 35 0 95 38 91 59 -3 13 -19 17
-95 19 -50 1 -94 -2 -97 -7z"/>
<path d="M1815 1924 c-23 -23 -13 -39 25 -39 29 0 63 26 50 38 -17 15 -60 15
-75 1z"/>
<path d="M1738 1779 c-10 -5 -18 -16 -18 -24 0 -20 35 -28 95 -20 54 6 82 25
70 45 -8 13 -124 13 -147 -1z"/>
<path d="M4020 502 c-99 -5 -315 -69 -315 -92 0 -19 4 -18 149 19 65 17 138
31 163 31 45 0 83 13 83 29 0 12 -27 16 -80 13z"/>
<path d="M735 339 c-11 -4 -68 -5 -127 -2 -95 5 -108 4 -114 -11 -8 -20 20
-54 55 -67 13 -6 73 -12 133 -15 92 -5 112 -4 127 10 16 15 19 15 36 -4 10
-11 24 -20 30 -20 7 0 24 -9 39 -21 21 -17 34 -20 64 -14 20 4 96 6 169 6 132
-1 183 8 183 35 0 24 -42 37 -129 41 -48 2 -97 8 -111 13 -34 14 -181 32 -252
32 -32 0 -58 4 -58 8 0 13 -24 18 -45 9z"/>
<path d="M32 282 c-27 -22 -33 -34 -30 -57 2 -24 7 -29 23 -26 11 2 85 3 165
2 113 0 149 3 167 14 30 20 29 36 -2 65 -21 20 -29 22 -44 13 -17 -11 -80 -7
-206 12 -34 5 -45 1 -73 -23z"/>
<path d="M3915 199 c-11 -17 1 -21 74 -27 83 -6 109 1 91 23 -15 18 -155 21
-165 4z"/>
<path d="M4180 200 c-40 -25 69 -62 134 -46 31 8 34 31 7 46 -24 13 -121 13
-141 0z"/>
<path d="M6223 202 c-49 -2 -75 -8 -84 -18 -18 -21 6 -36 46 -29 72 12 314 15
475 6 284 -17 407 -18 422 -3 22 22 -4 29 -140 36 -138 8 -603 13 -719 8z"/>
<path d="M3640 150 c0 -15 7 -20 28 -20 15 0 34 5 42 10 13 9 13 11 0 20 -8 5
-27 10 -42 10 -21 0 -28 -5 -28 -20z"/>
<path d="M7240 105 c0 -9 10 -19 23 -24 28 -11 117 -26 137 -23 8 1 65 -3 125
-8 61 -6 209 -17 330 -25 121 -8 261 -17 310 -20 96 -6 134 5 116 34 -11 17
-191 31 -240 18 -18 -5 -61 -6 -95 -3 -33 3 -117 10 -186 15 -69 5 -207 19
-307 30 -218 25 -213 25 -213 6z"/>
</g>
</svg>
