<?xml version="1.0" standalone="no"?>
<!DOCTYPE svg PUBLIC "-//W3C//DTD SVG 20010904//EN"
 "http://www.w3.org/TR/2001/REC-SVG-20010904/DTD/svg10.dtd">
<svg version="1.0" xmlns="http://www.w3.org/2000/svg"
 width="1280.000000pt" height="740.000000pt" viewBox="0 0 1280.000000 740.000000"
 preserveAspectRatio="xMidYMid meet">
<metadata>
Created by potrace 1.15, written by Peter Selinger 2001-2017
</metadata>
<g transform="translate(0.000000,740.000000) scale(0.100000,-0.100000)"
fill="#000000" stroke="none">
<path d="M12070 7380 c-30 -10 -82 -26 -115 -35 -33 -9 -73 -23 -90 -32 -16
-9 -48 -26 -70 -37 -71 -37 -145 -97 -151 -123 -16 -62 139 -296 303 -459 108
-106 289 -449 314 -594 14 -81 13 -243 -2 -271 -5 -10 -9 -28 -9 -41 0 -24
-31 -180 -57 -288 -8 -36 -17 -74 -20 -86 -6 -26 21 -54 52 -54 23 0 98 45
135 81 38 36 127 248 147 349 2 14 8 34 13 45 5 11 14 45 20 75 20 104 35 134
71 147 19 7 43 12 55 12 23 1 95 54 118 87 13 18 13 27 0 70 -16 54 -67 182
-91 229 -9 17 -29 57 -45 90 -16 33 -35 71 -44 85 -30 51 -94 180 -94 191 0 7
-11 26 -23 43 -13 17 -46 76 -72 131 -27 55 -63 123 -80 150 -27 42 -51 86
-125 235 -10 22 -75 21 -140 0z m-30 -80 c0 -5 -4 -10 -10 -10 -5 0 -10 5 -10
10 0 6 5 10 10 10 6 0 10 -4 10 -10z m485 -910 c3 -5 -1 -10 -10 -10 -9 0 -13
5 -10 10 3 6 8 10 10 10 2 0 7 -4 10 -10z m-144 -223 c-13 -13 -31 1 -31 25 0
21 1 21 20 3 13 -12 17 -22 11 -28z m49 13 c0 -5 -4 -10 -10 -10 -5 0 -10 5
-10 10 0 6 5 10 10 10 6 0 10 -4 10 -10z"/>
<path d="M5857 7240 c-14 -11 -25 -28 -25 -38 2 -29 -45 -145 -52 -130 -4 7
-11 43 -15 81 -4 38 -13 74 -22 82 -18 18 -67 20 -80 3 -12 -16 -53 -168 -51
-188 3 -30 -2 -50 -12 -50 -5 0 -10 12 -10 28 0 15 -9 68 -19 117 l-18 90 -44
3 c-69 5 -83 -18 -98 -153 -7 -60 -14 -111 -16 -114 -3 -2 -20 10 -40 28 -42
37 -48 38 -76 10 -21 -21 -21 -29 -16 -133 3 -61 10 -127 16 -146 5 -19 12
-78 15 -130 l6 -95 -34 -30 -33 -30 13 -235 c15 -277 69 -801 94 -923 6 -26
10 -62 10 -80 0 -73 80 -271 202 -504 55 -103 60 -119 68 -205 5 -51 12 -107
15 -124 3 -18 -8 -85 -26 -160 -34 -143 -39 -256 -20 -434 19 -175 40 -244
112 -365 36 -61 83 -150 104 -200 36 -85 117 -208 220 -335 25 -30 49 -64 54
-75 31 -67 307 -284 459 -362 50 -26 92 -48 92 -50 0 -8 -63 -32 -113 -44 -44
-9 -65 -20 -87 -45 -50 -58 -87 -232 -77 -363 4 -44 2 -118 -3 -163 -5 -46
-12 -177 -14 -293 -3 -115 -8 -232 -12 -260 -8 -65 12 -299 28 -326 7 -11 39
-34 72 -52 32 -17 60 -37 63 -44 10 -26 -70 -191 -152 -313 -42 -62 -92 -167
-100 -206 -3 -21 -26 -68 -49 -104 -24 -36 -46 -79 -50 -95 -4 -17 -15 -38
-24 -48 -12 -13 -13 -20 -5 -25 15 -9 437 -5 553 5 47 4 198 7 335 8 138 0
318 6 400 13 83 6 240 14 350 17 110 3 220 10 244 16 71 16 91 40 49 60 -13 6
-39 19 -58 30 -19 10 -46 19 -58 19 -15 0 -26 7 -29 18 -2 10 -17 23 -31 28
-20 8 -37 30 -60 76 -18 36 -38 71 -46 77 -19 16 -154 15 -302 -2 -120 -14
-170 -29 -159 -48 4 -5 -5 -9 -19 -9 -16 0 -31 -9 -41 -24 -11 -17 -38 -30
-96 -46 -46 -13 -85 -31 -93 -42 -8 -11 -31 -20 -62 -24 -27 -4 -57 -11 -66
-16 -38 -19 -15 -28 75 -29 77 -1 88 -3 65 -12 -16 -6 -28 -14 -28 -18 0 -4
43 -10 95 -14 52 -4 95 -11 95 -16 0 -5 -53 -10 -117 -11 -65 0 -206 -2 -313
-3 -107 -2 -233 -8 -280 -14 -120 -16 -242 -14 -265 3 -19 14 -19 15 0 36 11
12 47 41 79 63 33 22 104 74 159 116 150 115 155 118 251 167 48 26 106 62
128 82 l40 36 -7 120 c-4 67 -8 125 -9 130 0 5 11 16 26 23 35 18 56 92 56
198 -1 103 10 232 22 275 12 42 37 245 45 367 6 104 18 148 49 181 24 27 157
101 229 127 48 18 71 15 49 -7 -7 -7 -12 -23 -12 -36 0 -13 -5 -32 -10 -43 -6
-10 -15 -43 -21 -73 -13 -73 -2 -99 50 -115 45 -13 52 -31 26 -69 -9 -12 -31
-61 -49 -109 -51 -132 -124 -313 -146 -358 -24 -51 -70 -170 -70 -183 0 -5 -8
-20 -19 -33 -10 -13 -21 -35 -24 -49 -3 -14 -10 -43 -16 -65 -5 -22 -7 -59 -4
-82 6 -43 6 -43 47 -43 32 0 56 10 111 47 39 25 82 56 96 68 28 23 133 144
140 161 9 21 96 91 126 102 46 15 99 58 124 99 27 43 22 86 -16 172 -23 50
-27 70 -23 117 6 76 22 88 107 79 l64 -6 42 45 c24 25 56 66 71 93 15 26 35
57 45 68 9 11 50 79 89 150 40 72 77 136 82 143 13 15 52 16 79 1 17 -9 19
-17 14 -49 -7 -42 4 -71 61 -155 l33 -50 -9 -245 c-12 -302 -30 -552 -40 -565
-5 -5 -11 -32 -15 -60 -4 -27 -16 -92 -27 -143 -21 -99 -19 -133 7 -112 20 16
51 120 65 215 6 44 15 107 20 140 5 33 11 105 15 160 3 55 9 156 15 225 5 69
10 169 10 222 0 53 3 104 6 113 6 14 8 14 25 -1 15 -14 19 -31 19 -85 0 -38 5
-89 12 -113 13 -51 -3 -301 -21 -319 -5 -5 -8 -22 -5 -36 9 -47 -14 -221 -35
-264 -11 -22 -17 -45 -14 -50 6 -10 -17 -121 -43 -210 -9 -30 -11 -54 -6 -64
5 -9 12 -11 15 -6 9 14 54 161 62 203 4 19 13 44 20 55 47 76 92 637 63 778
-16 76 -15 77 51 47 24 -11 61 -20 82 -20 53 0 58 -16 59 -197 1 -154 -8 -269
-35 -438 -9 -55 -20 -127 -25 -161 -20 -133 -70 -348 -84 -362 -13 -13 -157
-30 -277 -31 -44 -1 -58 -24 -32 -54 17 -18 26 -19 146 -13 70 4 134 9 142 12
9 4 15 0 15 -8 0 -11 -20 -18 -69 -27 -39 -6 -81 -11 -95 -11 -28 0 -43 -17
-28 -32 7 -7 35 -7 88 0 81 11 114 4 114 -23 0 -16 29 -34 45 -29 14 5 340 50
468 65 73 9 107 17 107 26 0 17 -33 33 -69 33 -23 0 -33 7 -43 27 -16 34 -62
45 -133 33 -94 -16 -205 -21 -205 -10 0 6 24 10 55 10 30 0 55 4 55 9 0 12
-20 18 -87 26 -29 4 -53 10 -53 13 0 4 20 75 44 159 25 84 50 185 55 225 6 40
16 105 22 143 13 86 14 216 3 355 -10 123 -11 227 -2 236 4 3 142 1 308 -6
165 -7 317 -10 337 -7 20 4 87 -3 150 -13 63 -11 132 -20 152 -20 61 0 70 -19
61 -120 -4 -46 -4 -96 1 -110 4 -14 10 -81 13 -150 2 -69 11 -179 20 -245 9
-66 21 -156 27 -200 6 -44 17 -134 25 -200 8 -66 17 -137 20 -157 l6 -37 -52
-15 c-28 -8 -63 -13 -78 -10 -15 3 -76 -2 -136 -10 -60 -9 -130 -16 -156 -16
-49 0 -70 -13 -70 -42 0 -16 10 -18 102 -17 63 0 112 6 128 14 21 11 29 11 45
-1 26 -19 75 -17 178 10 74 19 89 20 99 8 9 -10 30 -12 94 -7 81 7 82 7 86
-16 3 -23 6 -24 83 -22 125 4 201 10 232 18 41 10 408 6 439 -5 34 -13 160
-13 185 1 15 7 24 7 35 -1 7 -7 21 -10 29 -6 14 5 14 9 1 34 -21 40 -44 58
-58 44 -8 -8 -17 -8 -30 -1 -11 6 -27 8 -35 5 -9 -4 -145 -2 -302 4 -157 6
-367 12 -466 13 -99 2 -186 7 -194 11 -35 22 -45 78 -48 266 -2 102 -7 203
-12 225 -18 74 -30 630 -17 765 6 58 25 138 42 172 8 15 14 37 14 49 0 12 6
30 14 38 24 27 65 157 75 234 5 41 14 83 20 95 6 11 11 28 11 37 0 8 17 52 39
98 21 45 42 96 45 114 4 18 15 42 25 55 10 13 27 50 39 83 11 33 27 74 36 90
9 17 16 38 16 47 0 10 11 39 25 65 39 76 192 445 200 483 7 32 76 183 125 270
25 46 104 224 132 297 44 120 55 128 164 123 47 -1 53 1 82 35 53 59 46 90
-35 165 -100 91 -105 95 -141 76 -17 -9 -45 -29 -63 -46 -36 -32 -51 -35 -108
-21 -20 5 -81 15 -136 21 -55 7 -129 18 -165 26 -36 7 -116 23 -178 34 -62 10
-121 24 -131 30 -11 5 -54 15 -96 21 l-76 12 6 46 c8 54 22 106 40 141 7 14
18 41 24 61 12 39 60 84 206 197 44 35 107 85 140 112 33 27 103 76 155 109
149 93 266 179 364 267 50 44 108 92 128 106 21 13 88 72 150 130 174 162 188
173 273 216 77 39 108 58 244 160 35 26 78 56 95 68 17 12 71 60 119 108 91
89 107 123 57 119 -44 -3 -135 -24 -145 -34 -11 -11 -65 -12 -65 -1 0 15 70
91 90 97 26 8 16 23 -25 40 -27 12 -41 12 -91 -1 -32 -9 -74 -25 -91 -36 -57
-35 -40 6 37 87 39 41 70 77 70 80 0 19 -24 45 -41 45 -11 0 -52 -20 -90 -45
-38 -25 -76 -45 -85 -45 -8 0 -17 -7 -20 -15 -4 -8 -13 -15 -22 -15 -13 0 -13
2 0 18 34 39 99 173 93 191 -12 38 -51 35 -106 -9 -28 -22 -57 -40 -65 -40 -7
0 -18 -8 -23 -18 -6 -10 -58 -51 -117 -91 -80 -54 -109 -69 -115 -59 -5 7 -6
20 -2 28 13 31 20 116 11 133 -12 24 -29 21 -63 -10 -31 -28 -125 -156 -180
-242 -16 -26 -56 -79 -87 -118 -50 -61 -69 -76 -144 -112 -47 -22 -91 -41 -99
-41 -8 0 -17 -5 -20 -10 -4 -6 -27 -22 -53 -35 -26 -14 -76 -44 -112 -67 -175
-112 -432 -229 -685 -311 -77 -25 -174 -57 -215 -71 -91 -30 -297 -115 -364
-150 -27 -14 -55 -26 -61 -26 -7 0 -56 -20 -109 -45 -54 -25 -99 -45 -102 -45
-2 0 -4 11 -4 25 0 23 10 30 34 26 6 -1 19 2 30 8 12 5 46 21 76 34 64 29 98
53 88 62 -4 4 -21 2 -39 -4 -18 -6 -34 -9 -37 -6 -3 2 3 21 13 41 9 20 19 62
22 93 7 79 -4 88 -169 125 -50 11 -29 23 49 28 58 4 79 9 90 23 11 16 10 21
-4 38 -10 10 -30 26 -45 35 -40 23 -35 32 17 32 33 0 45 4 45 15 0 18 -31 35
-62 35 -20 0 -18 3 12 18 49 24 51 53 5 75 -40 19 -45 38 -13 59 20 13 21 17
9 32 -7 9 -22 16 -32 16 -20 0 -26 24 -9 35 6 3 10 11 10 17 0 10 -51 5 -86
-9 -9 -3 -14 1 -14 13 0 9 -8 26 -17 37 -17 18 -16 20 15 48 38 34 35 45 -21
83 -44 30 -56 32 -83 11 -26 -20 -29 -19 -42 10 -10 23 -17 25 -72 25 -58 0
-178 -33 -243 -67 -17 -9 -36 -11 -50 -6 -12 4 -31 8 -42 9 -109 10 -217 37
-340 85 -257 98 -369 125 -575 135 -69 4 -136 11 -150 17 -41 16 -98 17 -104
1 -9 -24 -36 -16 -36 11 0 20 -5 25 -24 25 -13 0 -29 -6 -36 -14 -8 -10 -18
-12 -33 -7 -17 7 -31 2 -58 -20 -20 -16 -49 -29 -63 -29 -16 0 -31 -9 -42 -25
-18 -28 -34 -33 -34 -11 0 8 8 17 17 21 16 6 15 8 -7 25 -32 25 -92 26 -112 3
-8 -10 -28 -40 -44 -68 -39 -67 -87 -125 -105 -125 -11 0 48 111 81 152 28 35
26 60 -2 41 -7 -4 -24 -8 -36 -8 -20 0 -33 -16 -76 -99 -49 -94 -74 -121 -69
-73 2 12 13 43 25 69 35 78 5 73 -50 -8 -12 -18 -12 -17 -9 6 2 14 6 32 8 40
3 12 -4 14 -31 12 -48 -4 -61 -21 -69 -89 -7 -64 -26 -75 -26 -14 0 70 -23 57
-39 -21 -7 -29 -26 -39 -26 -13 0 22 -7 19 -47 -21 -37 -37 -59 -106 -68 -214
-5 -52 -17 -118 -33 -175 -6 -22 -14 -57 -17 -78 -8 -51 -39 -49 -42 3 -2 19
-12 143 -23 275 -10 132 -24 300 -29 373 -8 92 -16 140 -27 157 -18 28 -16 42
43 245 14 47 31 118 39 159 7 41 23 93 34 115 11 23 26 67 32 99 15 70 2 90
-48 76 -24 -7 -36 -20 -53 -56 -41 -92 -64 -117 -67 -75 -1 9 -3 22 -4 27 -2
6 -4 32 -4 58 -2 68 -38 87 -89 47z m63 -177 c0 -112 9 -117 68 -36 23 32 42
51 42 43 0 -45 -104 -446 -121 -466 -5 -6 -26 -14 -47 -18 -20 -3 -54 -14 -74
-25 -21 -10 -64 -22 -95 -26 -32 -4 -120 -20 -195 -36 -76 -16 -145 -29 -153
-29 -12 0 -13 13 -8 79 3 43 1 114 -6 157 -15 105 -19 236 -6 240 6 2 26 -21
45 -50 39 -62 54 -61 64 7 4 23 18 90 32 150 30 124 47 138 63 50 29 -152 35
-174 47 -190 20 -28 32 -7 79 134 52 158 67 166 77 39 8 -110 14 -136 32 -136
13 0 29 30 109 199 19 40 21 42 34 25 9 -12 13 -49 13 -111z m8 -518 c10 -10
22 -91 28 -181 l7 -100 -59 -26 c-85 -38 -285 -69 -425 -66 -132 3 -158 -12
-53 -32 97 -18 245 -7 392 29 68 17 129 31 137 31 16 0 20 -24 40 -250 18
-198 29 -275 44 -322 8 -24 9 -43 2 -62 -13 -34 -25 -33 -51 4 -35 49 -91 35
-137 -34 -15 -23 -35 -50 -44 -61 -10 -11 -47 -87 -84 -170 -65 -147 -80 -174
-90 -164 -7 8 42 129 60 149 8 9 15 23 15 32 0 8 13 42 29 74 17 32 33 70 36
84 6 24 5 24 -19 -5 -14 -16 -36 -50 -48 -75 -13 -25 -26 -47 -29 -50 -3 -3
-12 -25 -20 -50 -8 -27 -20 -45 -29 -45 -16 0 -16 21 1 59 19 43 81 152 106
184 13 18 23 38 20 45 -2 6 -25 -21 -52 -61 -30 -46 -52 -69 -58 -63 -6 6 0
22 16 43 13 18 36 56 50 84 25 50 26 52 7 69 -13 12 -23 14 -37 7 -22 -12 -61
-54 -77 -81 -6 -11 -26 -44 -44 -75 -29 -48 -33 -63 -31 -114 1 -32 -1 -64 -5
-71 -5 -7 -14 -39 -22 -72 -11 -46 -11 -64 -2 -84 18 -39 37 -26 67 45 16 39
33 66 44 68 24 5 22 -7 -24 -108 -22 -50 -39 -101 -36 -113 3 -21 4 -21 15 6
18 42 22 33 15 -33 -8 -80 7 -77 41 8 15 37 34 80 42 95 8 16 14 32 14 37 0
16 42 101 47 96 10 -10 -49 -211 -83 -280 -35 -70 -44 -121 -21 -113 6 2 12
12 13 23 2 31 4 38 19 58 21 28 38 10 20 -23 -26 -52 -44 -114 -36 -129 5 -9
15 3 30 40 13 29 25 48 28 41 5 -13 -35 -151 -47 -158 -9 -6 -50 48 -69 90 -7
16 -39 76 -72 133 -71 123 -119 286 -119 405 0 40 -7 112 -16 162 -31 178 -50
354 -64 585 -5 85 -16 187 -24 225 -19 86 -20 144 -3 149 6 2 85 13 174 25
108 15 206 35 290 61 109 32 166 40 181 25z m5582 -105 c0 -17 -57 -138 -80
-171 -12 -16 -19 -36 -16 -44 8 -21 94 -8 124 18 30 28 28 19 -13 -65 -20 -39
-33 -78 -31 -85 9 -22 45 -15 116 24 38 21 72 34 76 30 4 -4 0 -13 -9 -20 -18
-13 -87 -116 -87 -129 0 -22 37 -18 93 10 72 35 170 66 189 60 18 -7 -78 -96
-167 -155 -63 -42 -266 -163 -337 -200 -37 -19 -53 -13 -162 61 -50 34 -146
97 -213 140 -83 52 -123 83 -123 95 0 10 23 47 51 82 28 35 56 73 61 84 6 11
24 35 39 53 16 18 29 38 29 45 1 7 21 35 46 62 l46 50 -6 -45 c-3 -25 -8 -58
-11 -75 -9 -47 6 -60 45 -40 42 22 126 81 165 115 17 15 54 40 83 55 29 16 57
34 63 42 14 15 29 17 29 3z m-3980 -94 c98 -14 249 -45 270 -55 8 -5 65 -22
125 -40 61 -18 126 -38 145 -46 60 -22 141 -45 164 -45 11 0 48 -9 81 -19 135
-44 192 -87 286 -216 24 -33 86 -104 137 -157 l95 -98 -23 -18 c-31 -25 -20
-50 22 -54 28 -3 30 -5 13 -12 -72 -27 -85 -37 -104 -78 -12 -24 -35 -64 -51
-89 -31 -45 -57 -153 -45 -187 8 -27 73 -92 91 -92 12 0 15 5 9 23 -16 51 -16
85 0 118 40 76 37 121 -5 79 -34 -34 -36 -15 -5 42 47 87 86 102 111 43 16
-40 18 -78 5 -137 -6 -24 -21 -96 -35 -161 -30 -138 -54 -199 -90 -222 -34
-22 -52 -8 -63 48 -10 51 -33 59 -66 23 -14 -14 -30 -26 -36 -26 -7 0 -30 -9
-52 -21 -22 -11 -48 -19 -57 -18 -29 4 -74 -20 -122 -65 -26 -24 -63 -49 -83
-57 -38 -13 -44 -31 -13 -37 9 -2 36 6 59 17 48 23 71 27 65 10 -7 -21 -158
-67 -243 -73 -32 -3 -41 -8 -43 -24 -3 -18 -11 -21 -59 -24 -36 -2 -58 -8 -61
-16 -3 -9 3 -13 14 -12 42 5 64 -1 64 -15 0 -17 9 -16 -140 -21 -118 -3 -260
-28 -260 -45 0 -12 52 -12 86 1 60 23 164 10 164 -20 0 -4 -47 -15 -105 -24
-104 -16 -155 -32 -155 -48 0 -11 17 -10 40 2 10 6 54 15 96 21 67 9 78 8 86
-5 11 -19 49 -21 66 -4 16 16 29 1 16 -20 -9 -14 -33 -18 -133 -22 -173 -7
-160 -24 22 -28 120 -2 147 -5 147 -17 0 -24 -35 -35 -109 -35 -42 0 -73 -5
-77 -12 -5 -8 25 -10 119 -6 120 6 127 5 133 -14 8 -27 -10 -38 -68 -38 -26 0
-49 -4 -52 -8 -9 -14 54 -82 76 -82 11 0 38 -5 60 -12 31 -9 44 -9 60 1 25 16
35 7 17 -15 -13 -15 -11 -16 16 -11 111 20 167 28 172 24 3 -3 -11 -20 -31
-38 -52 -45 -38 -47 23 -4 46 33 51 35 51 16 0 -31 -20 -69 -46 -86 -19 -12
-24 -25 -26 -72 -2 -34 -8 -58 -15 -61 -9 -2 -13 7 -13 27 0 23 -4 29 -15 25
-9 -4 -15 -19 -15 -40 0 -35 -24 -84 -41 -84 -5 0 -9 9 -9 19 0 36 -11 53 -26
40 -9 -8 -12 -24 -9 -48 6 -35 -7 -72 -21 -59 -3 4 -7 26 -8 49 0 24 -6 44
-13 47 -13 4 -17 -2 -27 -48 -3 -14 -15 -36 -26 -50 l-19 -25 6 39 c9 59 -15
42 -61 -42 -22 -40 -42 -72 -46 -72 -4 0 -4 19 0 42 5 24 6 46 4 50 -12 19
-23 5 -34 -42 -9 -39 -19 -53 -46 -69 -36 -21 -49 -15 -42 20 2 8 -4 14 -12
14 -8 0 -16 -10 -18 -21 -4 -27 -57 -78 -72 -69 -6 4 -8 15 -5 25 10 31 -11
31 -34 0 -23 -32 -79 -44 -68 -15 4 8 2 17 -2 20 -10 6 -27 -13 -51 -57 -22
-41 -40 -47 -40 -14 0 31 -6 32 -33 9 -19 -18 -20 -17 -13 10 10 41 -22 35
-39 -8 -14 -32 -50 -63 -62 -52 -2 3 0 22 6 43 6 20 7 42 4 47 -8 13 -33 -21
-33 -44 0 -27 -38 -67 -76 -79 -19 -7 -37 -10 -40 -8 -2 3 12 36 31 74 36 70
45 119 23 112 -7 -2 -29 -35 -48 -74 -20 -38 -44 -70 -53 -72 -14 -3 -12 6 13
48 16 28 30 55 30 60 0 20 -19 9 -37 -20 -9 -17 -21 -29 -26 -27 -10 3 -10 5
-2 40 12 46 -11 56 -28 14 -18 -43 -45 -62 -112 -78 -71 -18 -82 -28 -53 -51
17 -13 19 -18 7 -18 -8 0 -28 13 -44 30 -26 27 -65 41 -65 22 0 -4 12 -25 26
-45 14 -21 24 -40 22 -42 -2 -2 -26 14 -53 35 -56 45 -75 49 -75 20 0 -19 -2
-19 -23 -5 -43 28 -52 -17 -12 -55 14 -13 25 -30 25 -37 0 -26 -40 6 -75 60
-18 29 -42 58 -54 65 -16 9 -21 22 -21 55 0 23 -4 48 -9 56 -17 26 -31 0 -31
-57 0 -40 -3 -53 -11 -45 -13 13 -16 75 -5 125 7 32 5 38 -16 51 -12 8 -42 18
-65 22 -48 8 -47 8 -59 -70 -6 -48 -7 -49 -16 -22 -7 20 -7 37 0 52 8 18 8 26
-3 35 -16 14 -22 6 -27 -40 -4 -35 -20 -30 -41 13 -22 45 -37 47 -37 8 0 -34
-15 -49 -24 -25 -3 9 -6 33 -6 54 0 45 -21 68 -40 45 -19 -23 -39 -18 -46 11
-8 31 -38 29 -42 -4 -7 -46 -32 -16 -32 39 0 16 -4 29 -10 29 -5 0 -10 -19
-10 -42 -1 -39 -2 -41 -15 -24 -8 10 -12 30 -9 45 5 30 -9 57 -25 47 -7 -5 -9
-20 -5 -42 3 -18 3 -41 0 -50 -10 -25 -34 1 -42 45 -12 72 -25 101 -45 101
-11 0 -22 7 -25 15 -10 25 -23 17 -26 -17 l-3 -33 -17 38 c-9 20 -22 37 -27
37 -18 0 -49 72 -65 153 -19 93 -22 286 -3 310 11 15 14 14 39 -8 18 -16 24
-26 17 -31 -8 -4 -3 -11 12 -20 14 -7 26 -24 29 -40 7 -37 23 -36 35 2 16 49
34 64 76 64 22 0 39 5 39 10 0 6 -9 10 -20 10 -11 0 -20 5 -20 11 0 7 12 9 34
5 48 -9 54 10 9 25 l-38 13 50 7 c28 4 81 2 118 -3 63 -9 89 -6 75 7 -3 3 -29
9 -57 14 -50 8 -69 16 -60 25 3 3 31 1 64 -3 33 -5 64 -6 69 -3 21 12 -70 29
-168 31 -118 2 -174 15 -143 32 34 20 16 29 -49 27 -53 -2 -68 0 -77 13 -8 13
7 69 66 247 42 126 77 235 77 241 0 7 9 30 20 52 10 23 31 82 46 132 43 149
150 397 171 397 8 0 21 -16 29 -36 13 -32 13 -41 0 -82 -15 -45 -31 -128 -43
-219 -7 -51 -21 -54 -70 -17 -35 26 -64 25 -41 -3 18 -22 138 -100 183 -119
25 -10 64 -15 114 -14 42 1 123 1 181 1 58 -1 129 4 158 10 30 6 55 9 57 7 2
-2 -39 -55 -92 -118 -52 -63 -106 -137 -120 -165 -43 -85 -93 -158 -140 -207
l-46 -46 21 -30 c30 -41 46 -53 89 -62 48 -11 92 7 128 54 55 72 -8 89 -73 19
-21 -22 -38 -33 -48 -29 -9 3 -21 6 -28 6 -7 0 -21 6 -32 14 -18 14 -16 17 41
74 34 35 74 89 95 129 42 82 100 126 178 137 41 5 61 1 123 -24 61 -24 83 -40
127 -89 29 -33 80 -76 112 -96 66 -40 123 -99 118 -123 -5 -25 -57 -47 -109
-46 -37 0 -56 8 -97 37 -50 37 -84 45 -112 27 -13 -9 -9 -16 21 -44 43 -41
164 -72 235 -61 62 9 104 47 104 93 0 32 -9 44 -75 108 -48 46 -75 80 -75 93
0 12 -7 36 -16 52 -8 17 -21 58 -29 92 -7 34 -18 74 -24 90 -12 32 2 82 22 73
61 -25 155 -47 181 -42 17 3 78 1 136 -5 121 -14 115 -13 285 -9 72 1 157 9
190 16 33 8 83 19 110 25 103 23 275 120 275 154 0 7 -6 18 -14 24 -10 8 -12
24 -9 51 3 24 1 46 -6 54 -9 10 -9 21 -3 32 7 12 1 32 -21 73 -16 31 -36 64
-45 74 -14 16 -13 20 13 47 l29 30 -20 21 c-19 19 -23 19 -80 6 -32 -8 -92
-31 -132 -51 -40 -20 -92 -39 -116 -42 -38 -6 -46 -4 -58 16 -18 29 -104 73
-129 65 -11 -4 -25 -2 -32 3 -9 8 -42 1 -112 -23 -93 -31 -102 -36 -160 -98
-65 -71 -127 -106 -186 -107 -59 0 -66 18 -40 108 37 128 36 124 15 120 -26
-4 -78 -114 -98 -209 -12 -54 -16 -108 -13 -182 4 -125 -3 -133 -78 -86 -25
16 -54 29 -64 29 -27 0 -44 25 -33 47 5 10 26 74 47 143 20 69 43 132 50 140
7 8 16 37 20 63 7 44 6 49 -11 45 -11 -2 -35 -36 -64 -93 l-45 -90 -47 -5
c-40 -5 -52 -2 -78 18 -22 17 -29 30 -25 43 10 30 -13 97 -36 104 -11 4 -25
17 -31 30 -15 32 -66 36 -158 12 -60 -15 -81 -26 -103 -53 -16 -19 -37 -34
-46 -34 -41 0 -81 75 -81 152 0 34 7 43 82 109 55 48 108 84 162 109 45 21
113 56 152 78 75 41 208 99 259 113 328 88 332 89 475 84 74 -2 151 -7 170 -9z
m-1120 -45 c0 -6 -4 -13 -10 -16 -5 -3 -10 1 -10 9 0 9 5 16 10 16 6 0 10 -4
10 -9z m370 -21 c0 -5 -4 -10 -9 -10 -6 0 -13 5 -16 10 -3 6 1 10 9 10 9 0 16
-4 16 -10z m-559 -223 c-8 -8 -11 -5 -11 9 0 27 14 41 18 19 2 -9 -1 -22 -7
-28z m2609 19 c0 -3 -4 -8 -10 -11 -5 -3 -10 -1 -10 4 0 6 5 11 10 11 6 0 10
-2 10 -4z m-2567 -90 c-26 -33 -37 -22 -16 15 11 18 21 25 26 20 6 -6 2 -20
-10 -35z m4647 -98 c50 -35 108 -72 128 -83 20 -11 41 -26 46 -34 4 -7 46 -31
92 -53 49 -22 84 -45 84 -53 0 -20 -219 -234 -247 -241 -23 -6 -158 64 -256
133 -45 31 -76 41 -90 27 -9 -9 32 -64 47 -64 7 0 21 -10 32 -21 10 -12 33
-28 49 -36 17 -7 37 -17 45 -22 8 -4 33 -16 54 -27 57 -28 66 -47 36 -80 -14
-15 -99 -75 -190 -134 -91 -60 -218 -146 -283 -192 -65 -45 -155 -99 -200
-119 -50 -21 -83 -42 -85 -52 -2 -10 3 -17 12 -17 23 0 31 -21 12 -32 -10 -5
-33 -23 -52 -40 -27 -24 -41 -29 -67 -25 -56 8 -131 -43 -168 -116 -23 -44
-39 -53 -68 -37 -12 6 -46 11 -76 12 -31 1 -58 5 -60 8 -4 6 40 27 123 61 24
9 29 24 11 34 -21 13 -101 -6 -123 -29 -11 -13 -45 -35 -74 -50 -59 -30 -62
-46 -14 -58 18 -5 32 -13 32 -18 0 -12 -47 -44 -90 -60 -38 -15 -70 -38 -70
-52 0 -5 15 -15 33 -23 46 -19 49 -25 27 -53 -29 -36 -25 -49 23 -64 23 -8 42
-20 42 -27 0 -7 -20 -23 -44 -34 -24 -12 -45 -26 -45 -32 -1 -5 26 -23 58 -39
l60 -28 -30 -16 c-16 -9 -56 -25 -88 -37 -33 -11 -65 -30 -73 -42 -13 -20 -12
-23 10 -38 14 -9 52 -18 84 -21 32 -3 73 -7 91 -10 l34 -5 -53 -32 c-94 -57
-89 -88 16 -102 30 -3 57 -10 60 -15 3 -4 -17 -25 -45 -45 -81 -59 -76 -106
18 -166 56 -36 86 -37 134 -4 34 23 37 23 42 7 3 -10 2 -49 -3 -87 -32 -236
-44 -318 -57 -380 -8 -38 -14 -100 -14 -137 0 -58 -22 -148 -36 -148 -3 0 -17
8 -32 18 -174 118 -229 149 -279 155 -65 8 -124 43 -169 100 -25 31 -67 67
-105 90 -35 21 -95 58 -134 83 -38 24 -80 49 -92 54 -15 6 -23 18 -23 33 0 13
-9 32 -20 42 -11 10 -20 24 -20 30 0 7 -12 15 -28 18 -18 4 -44 27 -77 68 -28
34 -78 92 -111 128 -119 128 -164 237 -164 403 0 87 4 109 44 230 53 160 101
278 168 418 28 58 57 121 66 140 29 68 57 120 64 120 3 0 4 -24 1 -54 -6 -55
2 -71 31 -60 10 4 16 18 16 37 0 47 45 155 88 211 31 41 57 60 152 109 63 33
151 73 195 89 44 16 100 39 125 52 25 13 95 38 155 55 202 58 368 122 590 227
121 57 226 104 233 104 7 0 40 -22 73 -50 33 -27 62 -50 64 -50 12 0 35 13 35
21 0 11 -86 92 -111 103 -10 5 -19 18 -19 28 0 26 268 158 322 158 29 0 56
-13 128 -62z m-4493 -258 c44 -23 58 -59 68 -168 7 -80 -5 -139 -26 -127 -6 4
-19 26 -29 49 -23 54 -50 77 -98 83 -49 7 -75 -18 -93 -88 -12 -48 -34 -64
-45 -35 -7 20 23 129 56 202 23 50 36 67 67 82 49 26 56 26 100 2z m1123 -30
c0 -5 -4 -10 -10 -10 -5 0 -10 5 -10 10 0 6 5 10 10 10 6 0 10 -4 10 -10z
m-1830 -7 c0 -23 -97 -146 -105 -133 -7 11 -5 15 48 88 35 47 57 64 57 45z
m253 -45 c24 -101 18 -143 -37 -253 -14 -27 -26 -61 -26 -75 0 -24 -19 -65
-21 -45 -4 46 1 340 6 356 6 19 35 37 61 38 7 1 14 -9 17 -21z m1953 -24 c33
-21 54 -42 54 -53 0 -10 7 -24 15 -31 19 -16 19 -34 -1 -51 -15 -12 -15 -40 1
-80 5 -12 -2 -20 -26 -28 -18 -6 -36 -11 -40 -11 -12 0 -11 57 1 65 6 3 10 13
10 21 0 11 -6 13 -20 9 -11 -4 -45 3 -75 14 -64 24 -123 27 -150 8 -16 -12
-33 -78 -38 -149 -1 -19 -6 -21 -52 -18 -41 2 -55 24 -55 85 0 66 23 131 62
179 45 54 97 76 187 76 68 0 78 -3 127 -36z m214 -8 c0 -3 -4 -8 -10 -11 -5
-3 -10 -1 -10 4 0 6 5 11 10 11 6 0 10 -2 10 -4z m-2544 -114 c-32 -61 -48
-49 -21 15 11 26 19 33 26 26 8 -8 6 -20 -5 -41z m44 -41 c-5 -11 -15 -23 -22
-27 -6 -4 -9 -3 -6 2 3 5 8 17 11 27 4 9 11 17 17 17 8 0 8 -6 0 -19z m-80
-164 c0 -15 -29 -57 -30 -42 0 6 3 20 6 33 7 24 24 31 24 9z m3330 -115 c0 -4
-5 -13 -11 -19 -6 -6 -15 -26 -19 -45 -7 -30 -8 -31 -9 -6 -1 33 15 78 29 78
5 0 10 -4 10 -8z m-3170 -92 c0 -5 -2 -10 -4 -10 -3 0 -8 5 -11 10 -3 6 -1 10
4 10 6 0 11 -4 11 -10z m30 -70 c0 -5 -5 -10 -11 -10 -5 0 -7 5 -4 10 3 6 8
10 11 10 2 0 4 -4 4 -10z m2800 -11 c-7 -11 -14 -18 -17 -15 -8 8 5 36 17 36
7 0 7 -6 0 -21z m117 -31 c28 -26 28 -36 3 -68 -22 -29 -37 -22 -20 9 12 24 1
28 -32 10 -16 -9 -24 -7 -36 5 -15 15 -15 16 0 16 9 0 19 11 22 25 8 31 32 32
63 3z m65 -40 c-15 -15 -21 4 -9 32 l10 25 5 -24 c2 -13 -1 -28 -6 -33z m-214
31 c-2 -6 -8 -10 -13 -10 -5 0 -11 4 -13 10 -2 6 4 11 13 11 9 0 15 -5 13 -11z
m82 -114 c0 -8 -4 -15 -10 -15 -5 0 -7 7 -4 15 4 8 8 15 10 15 2 0 4 -7 4 -15z
m-216 -56 c-26 -27 -44 -30 -44 -8 0 6 14 25 32 42 28 28 33 30 36 14 2 -11
-8 -31 -24 -48z m-2596 39 c-3 -7 -18 -14 -34 -16 -28 -2 -28 -2 -10 13 24 18
49 20 44 3z m2492 -28 c0 -6 -11 -28 -25 -50 -24 -38 -28 -40 -73 -39 -41 0
-44 2 -28 12 11 7 38 29 60 49 40 37 66 48 66 28z m-125 -30 c-3 -5 -10 -10
-16 -10 -5 0 -9 5 -9 10 0 6 7 10 16 10 8 0 12 -4 9 -10z m169 -15 c-6 -16
-24 -21 -24 -7 0 11 11 22 21 22 5 0 6 -7 3 -15z m-198 -26 c10 -17 -33 -56
-47 -42 -8 8 -8 17 0 32 13 23 36 28 47 10z m404 1 c0 -5 -4 -10 -10 -10 -5 0
-10 5 -10 10 0 6 5 10 10 10 6 0 10 -4 10 -10z m90 -14 c0 -3 -4 -8 -10 -11
-5 -3 -10 -1 -10 4 0 6 5 11 10 11 6 0 10 -2 10 -4z m-2536 -36 c-6 -6 -26 -6
-54 -1 l-45 9 55 1 c35 1 51 -2 44 -9z m3786 -73 c0 -7 -13 -26 -29 -41 -23
-22 -40 -28 -91 -32 -35 -2 -67 -7 -71 -10 -12 -7 -49 5 -49 15 0 9 91 60 128
71 45 14 112 12 112 -3z m103 -49 c-6 -7 -13 -52 -17 -99 -3 -47 -12 -107 -21
-134 -8 -27 -20 -95 -26 -150 -7 -55 -15 -104 -19 -108 -10 -11 -51 123 -61
197 -4 35 -3 71 3 90 16 49 122 215 137 216 9 0 10 -4 4 -12z m-1563 -28 c0
-5 -5 -10 -11 -10 -5 0 -7 5 -4 10 3 6 8 10 11 10 2 0 4 -4 4 -10z m1410 -40
c0 -23 -21 -72 -35 -82 -12 -9 -91 -9 -125 1 -31 8 -40 41 -12 41 11 0 48 13
83 30 76 35 89 36 89 10z m-1510 -68 c0 -10 -55 -42 -72 -42 -7 1 2 14 21 30
31 26 51 31 51 12z m1305 -2 c3 -5 1 -10 -4 -10 -6 0 -11 5 -11 10 0 6 2 10 4
10 3 0 8 -4 11 -10z m-1437 -40 c-21 -11 -54 -31 -74 -45 -20 -14 -49 -25 -64
-25 -27 0 -80 33 -80 51 0 5 29 9 64 9 35 0 79 7 97 15 19 8 48 14 64 14 l30
0 -37 -19z m130 -32 c-6 -16 -76 -40 -91 -31 -7 4 5 14 28 25 47 21 68 23 63
6z m1416 -4 c20 -20 20 -33 -2 -62 -17 -22 -21 -23 -61 -12 -34 9 -40 14 -31
25 6 8 25 17 43 21 27 6 29 8 14 19 -9 6 -14 15 -10 18 11 12 31 8 47 -9z
m476 -13 c47 -12 110 -28 140 -35 30 -8 109 -22 175 -31 105 -14 233 -37 288
-52 23 -6 16 -48 -13 -77 -18 -19 -25 -19 -147 -7 -70 7 -195 19 -278 26 -82
8 -168 19 -190 24 -22 5 -67 14 -99 20 -76 14 -96 32 -96 87 0 72 4 76 74 71
33 -2 99 -14 146 -26z m-1760 -1 c0 -16 -23 -60 -32 -60 -10 0 -10 1 3 39 10
29 29 43 29 21z m-30 -80 c0 -5 -4 -10 -10 -10 -5 0 -10 5 -10 10 0 6 5 10 10
10 6 0 10 -4 10 -10z m2634 -21 c44 -38 52 -61 31 -92 -14 -23 -19 -24 -67
-15 -50 9 -51 9 -90 -29 -41 -39 -118 -185 -178 -338 -28 -72 -129 -306 -135
-313 -7 -9 -35 13 -35 28 0 22 85 206 99 214 6 4 11 22 11 41 0 19 4 36 10 40
5 3 14 20 19 38 13 43 59 157 73 182 7 11 20 38 31 60 10 22 44 79 75 127 52
80 60 88 89 88 22 0 44 -10 67 -31z m-1239 -52 c8 -13 18 -37 21 -55 l7 -32
-56 0 c-62 0 -83 15 -73 55 6 23 47 54 73 55 7 0 19 -10 28 -23z m320 -26 c39
-6 111 -15 160 -21 50 -5 128 -14 175 -19 47 -5 130 -12 184 -14 81 -4 102 -8
113 -23 19 -26 16 -40 -18 -90 -39 -57 -89 -163 -138 -294 -22 -58 -48 -111
-58 -117 -15 -10 -31 -10 -78 1 -109 25 -209 45 -280 55 -38 6 -86 15 -105 21
-19 5 -49 10 -67 10 -18 0 -44 5 -58 12 -23 10 -25 17 -25 69 0 31 9 99 19
150 11 52 22 134 26 182 7 78 10 90 29 97 11 4 28 4 36 0 8 -4 47 -13 85 -19z
m-470 -1 c20 -33 -29 -70 -80 -61 -33 7 -49 41 -18 41 10 1 29 7 43 15 30 17
47 19 55 5z m191 -134 l35 -35 -3 -122 -3 -122 -44 -24 c-61 -32 -105 -30
-142 6 -19 19 -29 40 -29 59 0 25 9 35 59 65 105 66 105 82 -4 94 -96 11 -96
28 -3 75 40 20 79 37 87 37 7 1 28 -14 47 -33z m-1406 -46 c0 -5 -4 -10 -10
-10 -5 0 -10 5 -10 10 0 6 5 10 10 10 6 0 10 -4 10 -10z m59 -104 c9 -10 9
-16 1 -21 -16 -10 -40 2 -40 20 0 19 24 20 39 1z m-139 -73 c0 -4 -12 -20 -27
-35 -19 -19 -37 -28 -59 -28 -47 0 -49 13 -6 44 33 24 92 36 92 19z m219 -32
c12 -16 21 -31 21 -34 0 -11 -102 -29 -112 -19 -10 10 45 82 62 82 5 0 18 -13
29 -29z m-341 -73 c26 0 30 -15 5 -22 -66 -18 -83 -18 -83 2 0 26 11 34 35 26
11 -3 30 -6 43 -6z m-528 -8 c0 -5 -5 -10 -11 -10 -5 0 -7 5 -4 10 3 6 8 10
11 10 2 0 4 -4 4 -10z m101 -47 c-22 -63 -26 -69 -63 -87 -39 -20 -38 -20 -38
5 0 12 22 43 50 72 28 28 50 54 50 59 0 5 4 7 9 4 4 -3 1 -27 -8 -53z m554 37
c-3 -5 -15 -10 -26 -10 -10 0 -19 5 -19 10 0 6 12 10 26 10 14 0 23 -4 19 -10z
m289 -19 l28 -30 -43 -11 c-24 -6 -59 -15 -78 -20 -19 -5 -37 -7 -40 -5 -7 7
81 95 94 95 6 0 24 -13 39 -29z m-1226 -23 c-2 -17 -11 -24 -32 -26 -18 -2
-26 0 -21 7 3 6 10 9 15 6 5 -3 11 4 15 15 9 27 27 25 23 -2z m82 -8 c-21 -30
-44 -38 -54 -21 -6 9 50 50 67 51 5 0 -1 -13 -13 -30z m100 11 c0 -10 -30 -24
-37 -17 -3 3 -2 9 2 15 8 13 35 15 35 2z m2498 -41 c29 0 396 -73 405 -81 11
-9 -48 -126 -70 -137 -22 -12 -100 -1 -208 29 -44 12 -136 36 -205 54 -110 28
-125 34 -122 51 2 10 6 39 9 64 8 69 13 71 99 44 41 -13 82 -24 92 -24z
m-3938 25 c0 -8 -2 -15 -4 -15 -2 0 -6 7 -10 15 -3 8 -1 15 4 15 6 0 10 -7 10
-15z m2124 9 c26 -10 18 -24 -13 -24 -17 0 -33 -4 -36 -10 -4 -6 9 -10 32 -10
32 0 35 -2 23 -14 -20 -19 -96 -31 -105 -17 -8 13 23 56 50 70 25 12 29 13 49
5z m161 -4 c-3 -5 -12 -10 -20 -10 -8 0 -17 5 -20 10 -4 6 5 10 20 10 15 0 24
-4 20 -10z m-325 -10 c0 -5 -13 -10 -30 -10 -16 0 -30 5 -30 10 0 6 14 10 30
10 17 0 30 -4 30 -10z m630 -70 c0 -7 -152 -51 -158 -45 -2 2 17 29 43 60 l48
56 34 -33 c18 -17 33 -34 33 -38z m-1080 46 c0 -1 -5 -17 -11 -34 -11 -32 -53
-57 -86 -50 -33 6 -19 31 25 46 24 8 46 20 49 28 4 12 23 20 23 10z m776 -21
c-11 -8 -32 -16 -48 -16 -15 -1 -33 -2 -40 -3 -6 -1 -13 4 -15 11 -5 14 18 20
77 22 42 0 44 -1 26 -14z m-2006 -26 c0 -11 -11 -11 -29 0 -7 5 -10 14 -6 20
5 9 10 9 21 0 8 -6 14 -15 14 -20z m444 25 c9 -3 14 -10 11 -14 -6 -10 -45 -1
-45 11 0 10 12 11 34 3z m426 1 c0 -4 -7 -20 -16 -37 l-16 -31 37 21 c39 24
58 22 48 -6 -15 -42 -28 -47 -117 -44 -47 2 -86 8 -86 13 0 5 22 20 48 33 27
13 54 32 61 40 13 15 41 22 41 11z m-100 -15 c0 -5 -7 -10 -16 -10 -8 0 -12 5
-9 10 3 6 10 10 16 10 5 0 9 -4 9 -10z m-710 -16 c0 -2 -7 -4 -15 -4 -8 0 -15
4 -15 10 0 5 7 7 15 4 8 -4 15 -8 15 -10z m1560 8 c0 -5 -8 -17 -19 -26 -14
-13 -40 -17 -106 -19 -48 -1 -89 1 -91 5 -2 3 22 15 53 26 60 20 163 29 163
14z m520 0 c0 -4 -15 -25 -34 -45 -31 -34 -38 -37 -90 -37 -36 0 -55 4 -51 10
3 6 12 10 19 10 8 0 19 7 27 16 29 35 129 71 129 46z m-1423 -39 c-17 -18 -22
-8 -11 22 5 12 10 13 17 6 8 -8 6 -16 -6 -28z m293 33 c0 -3 -4 -8 -10 -11 -5
-3 -10 -1 -10 4 0 6 5 11 10 11 6 0 10 -2 10 -4z m1346 -55 c-4 -6 -13 -11
-20 -11 -8 0 -27 -7 -42 -15 -42 -21 -43 0 -3 41 33 34 33 34 52 15 11 -10 16
-24 13 -30z m-422 3 c-32 -41 -54 -52 -95 -46 -62 9 -23 64 52 73 30 3 58 7
62 8 4 0 -4 -15 -19 -35z m-160 11 c-3 -20 -54 -48 -101 -57 -105 -19 -130
-20 -137 -9 -5 7 19 24 66 46 58 27 84 34 123 32 28 -1 49 -6 49 -12z m-1964
-31 c0 -8 -4 -14 -10 -14 -5 0 -10 9 -10 21 0 11 5 17 10 14 6 -3 10 -13 10
-21z m2620 -14 c0 -8 42 -46 93 -85 50 -38 95 -74 99 -80 11 -15 -25 -41 -90
-65 -31 -12 -61 -25 -67 -30 -18 -15 -219 -73 -268 -78 -31 -2 -59 2 -81 12
-19 9 -51 16 -73 16 -56 0 -69 11 -49 42 23 35 231 208 251 208 15 0 -7 -55
-41 -101 -51 -70 -44 -92 12 -41 64 57 109 89 122 85 21 -8 13 -27 -33 -75
-25 -26 -45 -54 -45 -63 0 -21 13 -19 35 5 13 15 21 17 31 9 22 -18 162 67
141 87 -3 3 -33 -13 -66 -35 -33 -23 -62 -41 -65 -41 -13 0 10 43 29 56 26 17
75 84 75 103 0 9 -12 10 -44 6 -55 -9 -64 5 -35 48 32 46 51 60 61 44 4 -6 8
-19 8 -27z m-2551 5 c2 -11 8 -23 14 -27 6 -4 8 -10 4 -14 -8 -8 -44 22 -59
49 -8 16 -6 18 14 15 13 -2 24 -11 27 -23z m2324 -8 c-4 -8 -64 -76 -132 -150
-122 -133 -125 -135 -160 -130 -67 11 -66 20 17 93 99 87 202 165 229 174 12
4 27 13 34 22 15 18 24 11 12 -9z m-2240 -33 c-7 -19 -23 -7 -23 18 0 17 3 18
14 8 8 -6 12 -18 9 -26z m272 16 c3 -5 2 -10 -4 -10 -5 0 -13 5 -16 10 -3 6
-2 10 4 10 5 0 13 -4 16 -10z m1801 -1 c3 -6 -7 -25 -23 -41 -25 -24 -41 -31
-92 -35 -36 -3 -61 -2 -61 4 0 24 60 65 106 72 27 5 52 9 56 10 4 0 10 -4 14
-10z m1584 -33 c47 -16 94 -32 105 -36 50 -20 146 -40 193 -40 37 0 54 -4 58
-15 3 -8 -19 -65 -49 -127 -30 -62 -60 -130 -66 -150 -7 -21 -26 -49 -42 -62
l-30 -25 -52 20 c-153 62 -227 89 -270 100 -26 6 -50 15 -52 19 -10 15 21 272
41 341 6 20 42 14 164 -25z m-2246 28 c9 -3 16 -14 16 -24 0 -21 -34 -28 -182
-37 -99 -5 -108 -5 -108 12 0 15 2 16 17 4 15 -12 16 -12 11 2 -6 14 4 18 66
24 39 3 79 10 86 16 17 10 71 12 94 3z m2761 -4 c6 -10 -51 -153 -100 -250
-31 -60 -100 -227 -120 -289 -9 -27 -25 -57 -36 -67 -10 -9 -19 -30 -19 -46 0
-16 -6 -41 -14 -56 -7 -15 -18 -48 -25 -75 -18 -76 -52 -158 -62 -152 -5 4 -5
13 0 23 4 9 11 36 14 60 3 23 14 66 25 95 11 28 25 74 32 102 6 27 24 71 41
98 16 26 29 56 29 66 0 10 7 24 15 31 8 7 15 23 15 35 0 12 9 34 20 48 11 14
20 34 20 46 0 11 11 49 24 83 14 35 35 95 48 133 19 56 27 69 42 67 15 -3 17
1 12 21 -3 13 -3 27 1 31 10 9 31 7 38 -4z m-4121 -6 c9 -3 16 -15 16 -27 0
-19 -1 -20 -20 -2 -30 27 -28 41 4 29z m396 -14 c0 -5 -9 -10 -21 -10 -11 0
-17 5 -14 10 3 6 13 10 21 10 8 0 14 -4 14 -10z m1397 0 c46 0 40 -19 -17 -47
-44 -23 -120 -31 -120 -14 0 16 74 72 88 66 8 -3 29 -5 49 -5z m-223 -31 c-20
-32 -225 -89 -323 -89 l-24 0 24 19 c43 33 66 40 130 42 79 2 179 19 179 30 0
5 5 9 11 9 5 0 7 -5 3 -11z m-1700 -26 c3 -10 9 -24 12 -30 3 -7 1 -13 -4 -13
-15 0 -42 29 -42 46 0 20 26 17 34 -3z m343 1 c-3 -3 -12 -4 -19 -1 -8 3 -5 6
6 6 11 1 17 -2 13 -5z m91 -4 c-10 -6 -25 -7 -40 -1 -20 9 -18 10 17 10 31 0
36 -2 23 -9z m112 -10 c-20 -13 -50 -13 -50 0 0 6 15 10 33 10 24 0 28 -3 17
-10z m-636 -62 c-3 -5 -15 3 -25 17 -11 13 -17 30 -13 36 4 7 13 0 25 -17 10
-15 16 -32 13 -36z m1346 52 c0 -5 -5 -10 -11 -10 -5 0 -7 5 -4 10 3 6 8 10
11 10 2 0 4 -4 4 -10z m808 -2 c-8 -23 -52 -38 -111 -38 -73 0 -73 20 -1 37
69 16 117 16 112 1z m-1008 -18 c0 -5 -11 -10 -25 -10 -14 0 -25 5 -25 10 0 6
11 10 25 10 14 0 25 -4 25 -10z m778 -12 c-5 -14 -83 -29 -110 -21 -27 7 -21
21 10 26 62 9 104 7 100 -5z m-1513 -18 c7 -11 -42 -37 -51 -27 -9 9 15 37 32
37 7 0 16 -4 19 -10z m-275 -43 c64 -37 78 -67 32 -67 -34 0 -70 26 -95 69
-24 41 -8 41 63 -2z m400 23 c0 -5 -15 -10 -32 -10 -25 0 -29 3 -18 10 20 13
50 13 50 0z m882 -15 c1 -14 -49 -41 -59 -32 -4 5 3 17 17 27 26 20 41 22 42
5z m638 -3 c0 -5 -11 -19 -24 -31 -20 -19 -30 -21 -62 -15 -21 4 -49 7 -63 8
-13 1 -26 6 -28 12 -4 13 50 26 80 19 12 -3 36 -1 52 4 40 12 45 13 45 3z
m-320 -12 c0 -5 -2 -10 -4 -10 -3 0 -8 5 -11 10 -3 6 -1 10 4 10 6 0 11 -4 11
-10z m60 0 c0 -5 -7 -10 -15 -10 -8 0 -15 5 -15 10 0 6 7 10 15 10 8 0 15 -4
15 -10z m70 0 c0 -5 -11 -10 -25 -10 -14 0 -25 5 -25 10 0 6 11 10 25 10 14 0
25 -4 25 -10z m1071 -18 c50 -33 63 -67 74 -202 6 -69 3 -88 -40 -235 -36
-127 -55 -177 -94 -240 -27 -44 -56 -95 -66 -114 -9 -18 -35 -53 -57 -77 -35
-38 -46 -44 -82 -44 -72 0 -72 11 5 75 102 85 164 165 129 165 -6 0 -22 -11
-36 -25 -47 -47 -77 -28 -34 22 40 45 75 113 58 113 -7 0 -19 -9 -26 -20 -14
-23 -32 -18 -32 8 0 23 52 156 69 176 25 30 1 30 -30 0 -21 -19 -33 -25 -36
-16 -10 26 -31 10 -52 -37 -27 -63 -26 -71 4 -71 14 0 25 -3 25 -6 0 -15 -61
-132 -83 -158 -27 -33 -32 -33 -247 -18 -83 6 -117 11 -102 16 28 10 29 33 0
42 -11 3 -70 3 -130 -1 l-108 -7 -1 54 c-1 29 -1 64 0 78 1 14 -8 40 -19 57
-15 26 -29 34 -61 39 -32 6 -58 22 -115 73 -41 37 -87 83 -103 102 -16 19 -75
64 -130 99 -56 36 -101 69 -101 75 0 5 15 20 33 33 40 27 138 30 268 8 46 -8
116 -17 154 -20 39 -2 86 -9 105 -15 19 -6 50 -11 70 -11 19 0 52 -6 75 -14
22 -8 70 -21 108 -30 63 -14 71 -14 125 3 120 39 388 133 402 142 23 13 33 11
81 -19z m-2671 -2 c0 -5 -4 -10 -10 -10 -5 0 -10 5 -10 10 0 6 5 10 10 10 6 0
10 -4 10 -10z m126 -49 c-8 -13 -36 -15 -36 -3 0 4 5 13 12 20 14 14 34 0 24
-17z m-506 9 c0 -5 -4 -10 -10 -10 -5 0 -10 5 -10 10 0 6 5 10 10 10 6 0 10
-4 10 -10z m243 -76 c26 -20 47 -40 47 -45 0 -13 -85 16 -119 41 -17 12 -29
26 -26 31 12 19 53 8 98 -27z m2973 11 c19 -14 19 -14 -2 -15 -12 0 -27 7 -34
15 -17 20 9 21 36 0z m-1746 -5 c0 -5 -7 -10 -16 -10 -8 0 -12 5 -9 10 3 6 10
10 16 10 5 0 9 -4 9 -10z m232 -55 c107 -72 160 -127 153 -159 -2 -12 -9 -51
-16 -88 -14 -77 -23 -82 -75 -40 -28 22 -34 34 -34 65 0 37 -16 50 -26 22 -8
-19 -27 -19 -64 0 -27 14 -30 20 -30 68 -1 48 -2 50 -15 33 -8 -11 -15 -29
-15 -41 0 -39 -43 -59 -78 -36 -30 19 54 241 91 241 6 0 55 -29 109 -65z
m-1316 30 c18 -15 18 -15 -10 -13 -16 2 -31 9 -34 16 -5 17 20 15 44 -3z
m-236 -11 c0 -17 -22 -14 -28 4 -2 7 3 12 12 12 9 0 16 -7 16 -16z m390 1 c0
-2 -9 -9 -20 -15 -15 -8 -27 -7 -47 4 l-28 15 48 1 c26 0 47 -2 47 -5z m-302
-50 c87 -45 108 -74 44 -60 -30 6 -112 63 -112 77 0 14 19 9 68 -17z m3670
-26 c238 -89 221 -79 214 -116 -9 -51 -18 -54 -86 -29 -70 27 -164 72 -186 91
-8 7 -31 15 -51 19 -53 9 -73 28 -65 59 3 15 13 27 22 27 8 0 77 -23 152 -51z
m-3850 23 c2 -7 -3 -12 -12 -12 -9 0 -16 7 -16 16 0 17 22 14 28 -4z m3312 -6
c40 -13 108 -46 253 -124 54 -29 79 -23 85 18 3 19 8 22 35 17 18 -3 95 -29
172 -59 77 -30 148 -58 159 -62 14 -5 17 -12 11 -34 -4 -15 -13 -52 -20 -82
-7 -30 -23 -80 -35 -110 -12 -30 -28 -77 -35 -105 -13 -45 -46 -144 -90 -265
-22 -59 -74 -150 -86 -150 -6 0 -8 8 -5 18 3 9 16 63 30 119 18 78 21 106 12
117 -6 8 -74 47 -151 87 -77 39 -144 75 -149 80 -6 5 -18 9 -27 9 -17 0 -410
128 -418 136 -3 2 1 10 7 16 9 9 17 9 34 0 23 -11 50 -19 138 -43 58 -15 203
-67 255 -90 22 -10 62 -24 89 -31 34 -9 51 -19 57 -35 10 -27 22 -29 39 -9 6
8 24 16 38 18 26 3 26 4 -13 24 -22 12 -71 31 -110 44 -38 13 -86 29 -105 36
-40 14 -181 58 -322 100 -54 16 -98 34 -98 40 0 7 11 54 24 105 13 52 28 117
32 144 13 96 16 99 87 91 34 -3 82 -13 107 -20z m-2980 -11 c8 -6 23 -15 33
-18 24 -9 21 -23 -5 -30 -20 -6 -43 6 -108 56 l-25 19 45 -7 c25 -4 52 -13 60
-20z m740 -5 c-6 -11 -15 -18 -21 -14 -6 4 -6 11 2 20 17 21 31 17 19 -6z
m-855 -72 c61 -33 135 -74 165 -90 30 -16 62 -37 70 -48 16 -21 66 -28 115
-15 l30 8 -23 -26 c-47 -50 -102 -37 -262 62 -36 22 -83 50 -105 62 -48 26
-125 88 -125 100 0 18 28 7 135 -53z m253 50 c-6 -18 -28 -21 -28 -4 0 9 7 16
16 16 9 0 14 -5 12 -12z m557 -18 c3 -5 -1 -10 -10 -10 -9 0 -13 5 -10 10 3 6
8 10 10 10 2 0 7 -4 10 -10z m-395 -26 c0 -9 -23 -30 -47 -42 -51 -27 -60 -2
-10 28 31 19 57 26 57 14z m-551 -35 c12 -10 39 -22 60 -25 20 -4 45 -13 57
-21 29 -19 121 -68 174 -93 132 -62 195 -100 195 -117 0 -34 -58 -18 -171 48
-60 34 -138 79 -174 99 -85 47 -210 128 -210 136 0 9 44 -8 69 -27z m332 -1
c69 -39 18 -54 -57 -16 -24 11 -41 25 -38 30 9 15 56 8 95 -14z m74 2 c-3 -5
-10 -10 -16 -10 -5 0 -9 5 -9 10 0 6 7 10 16 10 8 0 12 -4 9 -10z m580 0 c-3
-5 -10 -10 -16 -10 -5 0 -9 5 -9 10 0 6 7 10 16 10 8 0 12 -4 9 -10z m-285
-19 c0 -5 -9 -11 -20 -14 -20 -5 -26 3 -13 16 9 10 33 8 33 -2z m-120 -19 c0
-18 -26 -40 -52 -44 -16 -3 -28 -2 -28 3 0 10 52 48 68 49 6 0 12 -4 12 -8z
m350 -6 c0 -3 -4 -8 -10 -11 -5 -3 -10 -1 -10 4 0 6 5 11 10 11 6 0 10 -2 10
-4z m884 -36 c20 -22 36 -47 36 -55 0 -23 -39 -158 -48 -167 -4 -4 -25 6 -46
24 l-38 31 6 73 c8 85 23 134 41 134 7 0 29 -18 49 -40z m-1389 10 c4 -6 -7
-10 -25 -10 -18 0 -29 4 -25 10 3 6 15 10 25 10 10 0 22 -4 25 -10z m988 -4
c7 -17 -17 -115 -51 -215 -20 -57 -32 -78 -56 -92 -57 -35 -57 -32 -16 168 17
80 30 147 30 149 0 2 20 4 44 4 28 0 46 -5 49 -14z m-703 -13 c0 -14 -34 -43
-52 -43 -27 0 -22 17 10 34 30 17 42 19 42 9z m838 -41 c3 -43 -28 -170 -55
-224 -9 -19 -21 -28 -38 -28 -37 0 -75 18 -75 36 0 9 19 72 43 140 l42 125 40
-3 c40 -3 40 -4 43 -46z m-1452 17 c34 -21 44 -39 22 -39 -15 0 -78 42 -78 53
0 13 22 8 56 -14z m524 14 c0 -15 -45 -53 -62 -53 -27 0 -22 16 15 39 33 22
47 26 47 14z m515 -3 c-3 -5 -13 -10 -21 -10 -8 0 -14 5 -14 10 0 6 9 10 21
10 11 0 17 -4 14 -10z m-275 -18 c0 -15 -24 -32 -44 -32 -20 1 -20 1 3 20 24
21 41 26 41 12z m-126 -45 c-6 -18 -64 -51 -72 -42 -4 4 -1 10 7 13 7 2 22 15
34 28 20 24 40 24 31 1z m-533 -13 c12 -14 11 -16 -5 -13 -11 2 -21 10 -24 17
-5 17 13 15 29 -4z m689 8 c0 -13 -23 -32 -39 -32 -11 0 -10 4 4 20 19 21 35
26 35 12z m744 -13 c45 -26 46 -51 10 -175 -31 -110 -41 -121 -82 -100 -40 21
-41 23 -31 76 25 138 47 220 59 220 5 0 25 -9 44 -21z m-1024 -17 c0 -18 -35
-41 -49 -33 -10 7 -8 12 10 25 26 18 39 20 39 8z m1315 -71 c25 -76 26 -84 17
-184 -9 -90 -17 -121 -56 -215 -63 -148 -64 -149 -114 -134 -57 17 -66 32 -48
77 9 21 25 39 37 42 19 5 21 11 16 51 -3 25 1 59 7 76 7 17 21 52 30 79 12 31
23 47 35 47 29 0 32 12 11 36 l-21 22 21 91 c12 50 25 91 30 91 5 0 20 -36 35
-79z m-1415 65 c0 -3 -4 -8 -10 -11 -5 -3 -10 -1 -10 4 0 6 5 11 10 11 6 0 10
-2 10 -4z m592 -18 c-9 -9 -15 -9 -24 0 -9 9 -7 12 12 12 19 0 21 -3 12 -12z
m-882 -19 c0 -6 -4 -7 -10 -4 -5 3 -10 11 -10 16 0 6 5 7 10 4 6 -3 10 -11 10
-16z m610 12 c0 -6 -4 -13 -10 -16 -5 -3 -10 1 -10 9 0 9 5 16 10 16 6 0 10
-4 10 -9z m-60 -11 c0 -14 -48 -35 -58 -26 -8 9 26 36 45 36 7 0 13 -5 13 -10z
m-447 -7 c-7 -2 -19 -2 -25 0 -7 3 -2 5 12 5 14 0 19 -2 13 -5z m577 2 c0 -15
-48 -68 -78 -85 -38 -23 -66 -27 -38 -5 10 7 15 18 11 24 -3 6 6 16 21 21 15
6 34 20 41 30 13 18 43 28 43 15z m-634 -16 c3 -6 27 -20 53 -31 51 -23 105
-58 98 -64 -11 -12 -187 81 -187 99 0 11 28 8 36 -4z m944 1 c0 -5 -6 -10 -14
-10 -8 0 -18 5 -21 10 -3 6 3 10 14 10 12 0 21 -4 21 -10z m-802 -29 c21 -11
56 -23 77 -27 35 -6 38 -5 27 8 -10 12 -10 18 2 27 18 15 47 7 70 -18 16 -18
14 -19 -35 -35 l-52 -17 -73 33 c-41 18 -74 36 -74 41 0 12 19 8 58 -12z m618
-18 c-10 -10 -19 5 -10 18 6 11 8 11 12 0 2 -7 1 -15 -2 -18z m-256 -2 c0 -6
-4 -13 -10 -16 -5 -3 -10 1 -10 9 0 9 5 16 10 16 6 0 10 -4 10 -9z m972 -12
c49 -35 60 -73 42 -151 -8 -36 -21 -74 -29 -84 -13 -18 -15 -18 -59 5 -42 21
-46 27 -46 59 0 31 49 192 58 192 2 0 17 -10 34 -21z m-1090 -31 c-6 -6 -16
-7 -22 -3 -9 6 -9 9 1 16 17 10 34 0 21 -13z m257 -9 c-29 -18 -44 -9 -19 11
15 11 26 15 29 8 2 -6 -3 -14 -10 -19z m2158 2 c174 -47 294 -90 343 -121 8
-5 49 -25 90 -44 41 -19 97 -49 124 -66 l49 -31 -7 -76 c-4 -42 -14 -92 -22
-111 -8 -19 -14 -46 -14 -60 0 -42 -23 -103 -42 -113 -28 -15 -51 -4 -121 59
-90 81 -320 271 -455 377 -63 50 -119 97 -125 106 -15 24 26 109 52 109 11 0
69 -13 128 -29z m-2032 -10 c-3 -6 -14 -11 -23 -11 -15 1 -15 2 2 15 21 16 32
13 21 -4z m-562 3 c11 -11 -3 -24 -18 -18 -8 4 -12 10 -9 15 6 11 18 12 27 3z
m247 -10 c0 -2 -12 -4 -26 -4 -14 0 -23 4 -20 9 6 8 46 4 46 -5z m-102 -11
c12 -3 22 -9 22 -14 0 -13 -17 -11 -50 6 -32 17 -42 32 -12 20 9 -4 27 -10 40
-12z m182 -3 c0 -5 -7 -10 -16 -10 -8 0 -12 5 -9 10 3 6 10 10 16 10 5 0 9 -4
9 -10z m626 -27 c33 -16 35 -20 30 -53 -3 -20 -18 -67 -34 -105 -26 -63 -32
-70 -63 -77 -26 -5 -37 -3 -47 10 -13 17 -9 67 9 103 5 11 14 28 19 39 6 11
10 29 10 41 0 25 17 59 30 59 5 0 26 -8 46 -17z m-375 -16 c-13 -13 -26 -3
-16 12 3 6 11 8 17 5 6 -4 6 -10 -1 -17z m267 -10 c2 -10 -8 -24 -26 -34 -26
-15 -31 -26 -46 -102 -10 -47 -23 -89 -29 -93 -8 -5 -6 -8 7 -8 16 0 17 -5 11
-45 -3 -25 -13 -61 -21 -80 -16 -39 -19 -85 -4 -85 14 0 30 35 30 64 0 14 4
27 9 30 5 3 14 28 21 56 11 47 14 50 45 50 55 0 54 -33 -4 -149 -18 -34 -30
-65 -27 -68 12 -12 32 16 73 104 l44 95 36 -7 c19 -3 46 -10 59 -15 l24 -10
-50 -100 c-27 -55 -50 -102 -50 -105 0 -3 6 -5 13 -5 7 0 27 28 43 62 16 34
41 78 56 99 25 34 29 37 61 29 61 -13 61 -16 13 -106 -25 -47 -43 -91 -39
-100 9 -23 28 -1 70 78 20 39 43 72 50 75 22 9 83 -29 83 -51 0 -10 -18 -47
-40 -82 -22 -35 -40 -67 -40 -70 0 -17 -94 -165 -110 -174 -11 -6 -34 -4 -66
5 -27 8 -83 24 -124 35 -100 28 -290 120 -290 140 0 26 50 204 60 214 6 6 10
18 10 27 0 9 18 75 40 145 22 71 40 141 40 155 0 47 8 58 38 50 15 -4 28 -15
30 -24z m2615 -13 c-16 -47 -33 -42 -21 6 7 27 14 38 21 31 6 -6 6 -19 0 -37z
m-1553 32 c0 -2 -7 -6 -15 -10 -8 -3 -15 -1 -15 4 0 6 7 10 15 10 8 0 15 -2
15 -4z m-1891 -22 c11 -10 -28 -31 -71 -38 -49 -8 -104 -44 -90 -58 6 -6 17
-6 30 1 25 14 59 14 67 1 3 -5 -7 -16 -23 -24 -67 -35 -149 -247 -202 -526
-25 -126 -31 -283 -12 -301 6 -7 12 -11 12 -9 1 3 3 46 6 95 9 161 82 489 134
599 l23 48 41 -6 c23 -4 59 -15 81 -26 22 -11 69 -30 105 -43 35 -14 66 -29
67 -34 2 -6 -16 -16 -41 -23 -38 -10 -52 -10 -92 4 -53 18 -110 21 -119 6 -9
-14 -43 -147 -72 -280 -15 -72 -24 -142 -23 -187 1 -73 -12 -116 -44 -142 -20
-17 -20 -31 -1 -31 22 0 18 -27 -5 -33 -11 -3 -20 -10 -20 -16 0 -6 7 -8 15
-5 12 5 15 -4 15 -44 0 -65 -13 -98 -42 -107 -40 -13 -52 -48 -15 -45 12 1 28
2 35 1 16 -1 15 -51 -2 -109 -8 -26 -17 -64 -21 -85 -5 -32 -10 -38 -28 -35
-31 4 -49 49 -53 137 -3 42 -10 100 -16 129 -8 39 -8 72 1 135 6 45 13 165 15
267 9 414 38 681 80 727 6 6 45 25 86 42 60 25 85 30 124 26 27 -2 51 -7 55
-11z m2152 -11 c-26 -46 -57 -74 -73 -68 -16 6 -14 11 13 36 28 26 58 48 67
49 1 0 -2 -8 -7 -17z m-162 -69 c-39 -41 -76 -44 -120 -11 -34 24 -87 27 -233
13 l-78 -8 5 -38 c3 -21 0 -43 -6 -49 -15 -15 14 -24 58 -19 22 2 34 0 32 -6
-2 -6 -10 -12 -18 -12 -8 -1 -18 -2 -23 -3 -5 0 -3 -8 4 -16 7 -9 29 -15 52
-15 35 0 39 -2 28 -15 -23 -28 -195 -11 -207 21 -3 7 5 56 17 109 17 73 26 95
38 96 9 0 47 3 84 7 48 6 71 4 84 -5 9 -7 21 -10 26 -7 5 3 58 8 118 11 60 2
122 8 137 12 42 12 43 -23 2 -65z m-919 37 c33 -24 35 -53 6 -131 -26 -71 -41
-80 -107 -62 -39 10 -40 20 -10 92 11 25 24 64 31 88 10 38 14 42 33 37 12 -4
33 -15 47 -24z m-1023 -17 c-3 -3 -12 -4 -19 -1 -8 3 -5 6 6 6 11 1 17 -2 13
-5z m238 -15 c5 -5 -1 -9 -17 -9 -33 0 -58 9 -58 22 0 11 60 1 75 -13z m-131
-20 c21 -17 25 -24 14 -30 -22 -14 -65 -10 -79 7 -11 14 -10 18 6 30 25 18 27
18 59 -7z m656 0 c0 -5 -4 -9 -10 -9 -5 0 -10 7 -10 16 0 8 5 12 10 9 6 -3 10
-10 10 -16z m-340 -9 c-8 -5 -28 -10 -43 -10 -16 0 -37 -5 -47 -10 -13 -7 -21
-7 -25 0 -13 21 8 30 68 30 44 0 58 -3 47 -10z m170 -10 c0 -5 -6 -10 -14 -10
-8 0 -18 5 -21 10 -3 6 3 10 14 10 12 0 21 -4 21 -10z m-60 -10 c0 -5 -7 -10
-16 -10 -8 0 -12 5 -9 10 3 6 10 10 16 10 5 0 9 -4 9 -10z m620 -18 l34 -29
-23 -61 c-18 -47 -28 -62 -43 -62 -23 0 -78 27 -78 39 0 4 9 38 21 74 24 77
36 82 89 39z m-1154 3 c19 -15 19 -15 0 -30 -31 -24 -84 -29 -119 -13 l-32 15
40 21 c48 25 84 27 111 7z m430 -10 c-22 -17 -56 -20 -56 -6 0 12 19 19 50 20
24 0 24 0 6 -14z m-156 -46 c0 -13 -30 -11 -86 7 -80 26 -82 28 -24 34 43 4
61 1 83 -13 15 -10 27 -23 27 -28z m340 26 c0 -4 -32 -13 -104 -31 -22 -5 -28
-4 -24 7 5 16 128 39 128 24z m-150 -31 c0 -13 -3 -14 -13 -5 -8 6 -17 8 -20
4 -4 -3 -7 -1 -7 5 0 7 9 12 20 12 12 0 20 -7 20 -16z m1225 6 c-3 -5 -17 -10
-31 -10 -13 0 -24 5 -24 10 0 6 14 10 31 10 17 0 28 -4 24 -10z m1632 -12 c-3
-8 -6 -5 -6 6 -1 11 2 17 5 13 3 -3 4 -12 1 -19z m-3242 2 c-3 -5 -13 -10 -21
-10 -8 0 -12 5 -9 10 3 6 13 10 21 10 8 0 12 -4 9 -10z m1949 -1 c-6 -10 -106
-59 -120 -59 -3 0 -4 10 -2 23 2 17 13 25 48 34 59 15 83 16 74 2z m-1924 -39
c0 -5 -4 -10 -9 -10 -6 0 -13 5 -16 10 -3 6 1 10 9 10 9 0 16 -4 16 -10z m260
0 c-20 -13 -47 -13 -55 0 -4 6 9 10 32 10 28 0 34 -3 23 -10z m2940 -22 c-18
-67 -42 -134 -65 -183 -14 -28 -25 -58 -25 -67 0 -10 -6 -32 -14 -50 -23 -53
-37 -209 -39 -428 -4 -382 9 -588 52 -865 7 -40 6 -63 -1 -72 -7 -9 -7 -13 1
-13 16 0 13 -37 -4 -43 -8 -4 -16 -3 -19 1 -10 18 -37 174 -35 209 2 21 0 44
-4 50 -19 31 -61 512 -72 833 -4 96 -8 176 -10 178 -7 8 -135 33 -215 43 -47
6 -265 13 -485 15 -220 2 -413 5 -430 7 -16 2 -49 5 -72 5 -46 2 -51 8 -29 37
12 16 28 18 172 17 469 -2 622 -5 634 -12 7 -5 25 -4 39 1 16 6 57 6 115 0 50
-6 140 -11 201 -13 103 -3 110 -2 113 17 2 11 20 40 39 63 40 49 106 180 124
244 9 35 22 56 35 58 1 0 -2 -15 -6 -32z m-3052 -5 c-4 -21 -55 -30 -71 -14
-7 7 -3 13 14 20 39 16 61 13 57 -6z m247 -3 c3 -5 -6 -17 -20 -26 -17 -11
-22 -20 -16 -28 7 -8 4 -16 -10 -25 -19 -11 -20 -10 -14 8 9 28 1 27 -126 -14
-60 -19 -119 -35 -133 -35 -29 0 -56 27 -35 34 287 98 339 110 354 86z m1077
-61 c11 -6 86 -17 167 -26 134 -13 186 -26 150 -37 -46 -13 -198 -46 -217 -46
-42 0 -154 95 -135 114 8 8 11 8 35 -5z m-1620 -37 c38 -17 134 -45 163 -48 6
0 32 -11 59 -23 54 -24 54 -20 16 -126 -11 -33 -24 -91 -28 -130 -7 -70 -7
-70 -36 -68 -16 1 -34 7 -40 13 -7 7 -11 56 -11 123 0 106 -7 143 -24 133 -4
-3 -7 -61 -6 -130 2 -140 1 -142 -70 -121 l-40 11 0 99 c-1 55 -2 107 -3 115
-6 39 -20 -21 -25 -109 -3 -51 -8 -96 -11 -98 -3 -3 -17 -2 -31 1 -25 6 -25 8
-25 89 1 68 22 227 36 275 5 17 25 15 76 -6z m413 -11 c-16 -14 -55 -23 -55
-13 0 12 17 20 45 21 11 1 15 -3 10 -8z m2475 -84 c52 -40 95 -80 95 -87 0
-13 -24 -14 -150 -10 -82 3 -217 4 -300 2 -82 -1 -181 -2 -220 -3 -100 -1
-414 10 -451 16 -29 5 -94 57 -94 76 0 33 377 47 525 21 33 -6 110 -12 170
-13 61 -1 127 -6 148 -11 52 -12 101 5 133 48 15 19 31 34 38 34 6 0 54 -33
106 -73z m-1268 26 c37 -36 49 -63 28 -63 -13 0 -100 79 -100 91 0 21 37 6 72
-28z m1013 -3 c3 -5 -1 -10 -10 -10 -9 0 -13 5 -10 10 3 6 8 10 10 10 2 0 7
-4 10 -10z m55 -10 c0 -5 -2 -10 -4 -10 -3 0 -8 5 -11 10 -3 6 -1 10 4 10 6 0
11 -4 11 -10z m-674 -350 c5 -364 5 -432 0 -495 -3 -38 -10 -90 -15 -115 -5
-25 -17 -83 -26 -130 -9 -47 -23 -100 -31 -118 -8 -18 -14 -40 -14 -49 0 -9
-8 -40 -17 -70 -20 -63 -43 -71 -43 -15 0 46 25 189 45 262 9 30 22 98 31 150
8 52 21 109 29 126 19 40 21 182 5 382 -6 85 -9 160 -6 169 3 8 14 13 23 11
16 -3 18 -17 19 -108z m-1210 74 c46 -14 86 -29 88 -33 3 -4 1 -23 -4 -42 -5
-19 -14 -53 -20 -76 -6 -24 -25 -58 -43 -76 -72 -76 -273 -247 -290 -247 -26
0 1 105 68 265 18 44 45 115 60 158 18 50 32 77 42 77 8 0 53 -11 99 -26z
m-862 -41 c9 -22 -4 -135 -17 -150 -11 -15 -55 -17 -76 -4 -12 8 -13 18 -2 68
16 74 23 86 52 94 36 10 36 10 43 -8z m140 -29 c21 -21 22 -117 1 -134 -11
-10 -25 -10 -66 0 l-51 13 6 55 c4 31 12 62 18 69 15 18 73 16 92 -3z m124
-38 c6 -50 -7 -94 -29 -101 -32 -10 -49 12 -49 64 0 54 14 73 50 69 19 -2 26
-10 28 -32z m-291 -134 c15 -9 2 -157 -15 -174 -5 -5 -28 -12 -51 -15 -40 -5
-41 -5 -41 23 1 35 24 146 34 162 8 13 55 16 73 4z m155 -10 c5 -5 12 -33 15
-63 7 -70 -13 -97 -77 -104 -67 -8 -73 -1 -64 84 8 88 22 105 77 98 22 -3 44
-10 49 -15z m806 -17 c7 -14 12 -44 12 -65 0 -33 -6 -43 -36 -66 -29 -22 -39
-26 -53 -17 -15 10 -27 2 -77 -48 -32 -32 -62 -59 -66 -59 -5 0 -30 -15 -56
-33 -95 -66 -139 -70 -108 -10 9 18 37 42 74 61 38 21 98 70 173 146 63 62
117 114 120 115 3 1 11 -10 17 -24z m-686 -10 c-4 -24 -23 -262 -23 -290 0
-11 -3 -49 -6 -83 -7 -91 -21 -102 -127 -102 -47 0 -96 -4 -110 -10 -35 -13
-40 10 -22 91 8 35 20 97 26 136 7 40 16 75 21 79 5 3 33 9 62 14 61 9 67 4
67 -58 0 -30 4 -42 12 -40 16 6 25 50 34 158 9 109 17 132 47 128 16 -2 21 -9
19 -23z m-292 -217 c0 -16 -7 -57 -15 -90 -9 -32 -19 -85 -23 -116 l-7 -57
-37 -3 -38 -3 0 55 c0 61 18 193 29 215 8 16 71 41 84 34 4 -2 7 -18 7 -35z
m172 -305 c13 -12 18 -31 18 -74 l0 -59 -67 -34 c-38 -19 -98 -56 -136 -83
-204 -145 -288 -203 -297 -203 -18 0 -10 43 17 89 15 25 46 75 70 111 24 35
58 102 75 147 l31 83 81 1 c52 0 99 7 131 19 28 10 52 19 54 19 3 1 13 -6 23
-16z m308 -47 c0 -3 -4 -8 -10 -11 -5 -3 -10 -1 -10 4 0 6 5 11 10 11 6 0 10
-2 10 -4z m1594 -405 c8 -12 -41 -24 -57 -14 -8 5 -3 10 13 14 36 10 38 10 44
0z m-94 -11 c0 -5 -5 -10 -11 -10 -5 0 -7 5 -4 10 3 6 8 10 11 10 2 0 4 -4 4
-10z m-35 -10 c3 -5 1 -10 -4 -10 -6 0 -11 5 -11 10 0 6 2 10 4 10 3 0 8 -4
11 -10z m-920 -220 c-3 -5 -13 -10 -21 -10 -8 0 -14 5 -14 10 0 6 9 10 21 10
11 0 17 -4 14 -10z"/>
<path d="M8703 5045 c-3 -9 -3 -18 0 -21 9 -9 27 6 27 22 0 19 -19 18 -27 -1z"/>
<path d="M7835 4710 c-3 -5 3 -10 14 -10 11 0 23 5 26 10 3 6 -3 10 -14 10
-11 0 -23 -4 -26 -10z"/>
<path d="M7429 4670 c-20 -12 -117 -28 -260 -44 -63 -7 -121 -16 -127 -20 -28
-17 4 -24 105 -21 60 1 124 -2 143 -6 29 -7 46 -3 95 21 34 16 71 41 85 55
l23 25 -24 0 c-13 0 -31 -5 -40 -10z"/>
<path d="M6550 4471 c0 -16 38 -23 60 -11 29 16 25 20 -20 20 -22 0 -40 -4
-40 -9z"/>
<path d="M6275 4430 c3 -5 15 -10 26 -10 11 0 58 -10 105 -21 59 -15 88 -28
95 -41 8 -15 17 -18 41 -13 28 7 112 -2 253 -27 146 -25 522 9 487 44 -7 7
-32 6 -78 -1 -65 -10 -99 -7 -222 15 -19 4 -52 0 -81 -10 -84 -27 -149 -20
-190 22 -12 12 -32 13 -100 8 -73 -5 -100 -2 -179 19 -97 26 -168 33 -157 15z"/>
<path d="M5955 4373 c-36 -9 -38 -20 -14 -120 26 -111 51 -148 131 -189 37
-19 63 -24 120 -24 69 0 189 16 288 38 88 20 242 33 303 27 45 -5 82 -2 132
10 56 14 99 17 239 12 156 -4 183 -8 308 -41 132 -35 139 -36 169 -21 28 15
32 15 49 0 20 -18 50 -14 70 10 10 12 5 32 -25 102 -20 49 -46 98 -57 110 -27
29 -141 67 -199 66 -26 0 -82 -12 -125 -26 -236 -78 -254 -80 -554 -81 -298
-1 -371 8 -551 69 -40 14 -82 25 -94 25 -13 0 -51 9 -85 20 -64 20 -70 21
-105 13z m97 -69 c-2 -16 -10 -36 -18 -44 -14 -13 -17 -13 -30 4 -21 29 -17
55 9 66 33 13 42 7 39 -26z m108 -4 c0 -12 -41 -60 -51 -60 -17 0 -33 48 -21
63 12 14 72 12 72 -3z m1280 -11 c0 -6 -4 -7 -10 -4 -5 3 -10 11 -10 16 0 6 5
7 10 4 6 -3 10 -11 10 -16z m-1225 1 c7 -11 -15 -90 -25 -90 -25 0 -31 34 -14
88 4 14 30 16 39 2z m1340 -27 c4 -14 2 -23 -4 -23 -6 0 -11 3 -11 8 0 4 -3
18 -6 32 -8 31 11 16 21 -17z m-1212 -10 c24 -14 -21 -48 -52 -38 -21 6 -34
31 -25 46 5 9 57 4 77 -8z m1057 -38 c0 -28 -17 -42 -33 -26 -7 7 -7 18 1 36
14 30 32 24 32 -10z m77 -3 c-14 -17 -22 0 -12 26 5 14 7 14 15 2 5 -9 4 -20
-3 -28z m163 28 c0 -5 -6 -10 -14 -10 -8 0 -18 5 -21 10 -3 6 3 10 14 10 12 0
21 -4 21 -10z m-1173 -26 c3 -10 -39 -24 -72 -24 -17 0 -29 32 -15 40 16 10
83 -3 87 -16z m633 17 c0 -4 -9 -20 -20 -34 -17 -22 -28 -25 -78 -25 -70 0
-92 5 -92 23 0 14 21 20 122 35 29 4 56 8 61 9 4 0 7 -3 7 -8z m-783 -66 c22
8 43 -13 43 -41 0 -34 -27 -31 -78 8 -33 25 -42 39 -42 63 l0 30 31 -33 c19
-21 37 -31 46 -27z m218 45 c-3 -5 -15 -10 -26 -10 -11 0 -17 5 -14 10 3 6 15
10 26 10 11 0 17 -4 14 -10z m214 -11 c11 -18 11 -23 -1 -30 -26 -17 -77 -10
-88 11 -15 29 -5 40 38 40 27 0 41 -6 51 -21z m131 2 c15 -29 13 -31 -29 -31
-39 0 -68 20 -56 40 11 18 73 12 85 -9z m275 -20 c-10 -16 -25 -3 -25 22 0 20
1 20 16 5 9 -9 13 -21 9 -27z m123 6 c3 -13 -4 -17 -29 -17 -32 0 -32 0 -14
20 21 23 38 22 43 -3z m-644 -18 c14 -13 3 -20 -42 -26 -46 -6 -66 12 -36 34
19 14 60 10 78 -8z m-139 -24 c0 -15 -7 -20 -30 -22 -16 0 -41 -4 -54 -9 -18
-5 -23 -4 -19 7 2 8 14 15 26 17 11 2 26 10 33 18 17 20 44 13 44 -11z m1065
-21 c0 -2 -7 -4 -15 -4 -8 0 -15 4 -15 10 0 5 7 7 15 4 8 -4 15 -8 15 -10z
m-1404 -18 c29 -21 10 -30 -25 -11 -17 8 -31 18 -31 20 0 11 37 4 56 -9z m85
-6 c26 -14 24 -30 -3 -30 -30 0 -52 15 -44 29 9 14 22 14 47 1z"/>
<path d="M7148 4055 c-2 -3 -63 -8 -134 -11 -71 -4 -144 -7 -161 -8 -71 -4
-66 -49 5 -50 22 -1 46 -7 55 -14 9 -8 20 -11 25 -8 6 3 15 -1 22 -9 7 -8 34
-18 61 -21 32 -4 49 -11 49 -20 0 -10 13 -14 39 -14 22 0 44 -6 51 -15 7 -8
25 -15 40 -15 22 0 32 7 44 32 28 56 23 66 -34 60 -63 -6 -67 13 -5 22 25 4
45 11 45 17 0 5 -4 9 -10 9 -5 0 -7 7 -4 15 5 12 -2 15 -28 15 -19 0 -39 5
-44 10 -6 6 -13 8 -16 5z m52 -45 c0 -5 -12 -10 -27 -10 -22 0 -25 2 -13 10
20 13 40 13 40 0z m-157 -7 c-7 -2 -21 -2 -30 0 -10 3 -4 5 12 5 17 0 24 -2
18 -5z m74 1 c-3 -3 -12 -4 -19 -1 -8 3 -5 6 6 6 11 1 17 -2 13 -5z m-7 -34
c-20 -13 -50 -13 -50 0 0 6 15 10 33 10 24 0 28 -3 17 -10z"/>
<path d="M8669 4248 c-27 -22 -49 -66 -49 -96 0 -52 38 -62 83 -24 30 26 20
132 -13 132 -3 0 -13 -6 -21 -12z"/>
<path d="M8702 3873 c-15 -6 -6 -67 16 -100 21 -33 66 -31 89 3 17 26 17 27
-12 51 -41 33 -77 51 -93 46z"/>
<path d="M8893 3613 c-10 -26 19 -68 51 -71 44 -5 52 11 26 52 -24 39 -65 50
-77 19z"/>
<path d="M8657 3123 c-11 -10 -8 -43 3 -43 6 0 10 11 10 25 0 26 -2 29 -13 18z"/>
<path d="M8190 2900 c0 -6 6 -12 13 -14 26 -8 207 -36 307 -47 180 -21 192
-21 188 -7 -3 9 -43 17 -119 25 -63 6 -166 20 -229 32 -128 24 -160 26 -160
11z"/>
<path d="M8425 2770 c-122 -9 -53 -23 139 -27 167 -4 224 2 204 22 -8 9 -254
12 -343 5z"/>
<path d="M4078 7184 c-31 -9 -49 -21 -53 -35 -4 -11 -20 -28 -36 -38 -17 -10
-69 -65 -117 -122 -91 -109 -173 -194 -337 -350 -133 -126 -268 -273 -277
-301 -13 -42 -29 -257 -21 -272 18 -32 127 -99 181 -111 27 -5 41 -2 73 19 21
15 39 23 40 19 0 -5 1 -87 2 -183 l2 -175 45 -91 c40 -82 52 -97 108 -138 75
-56 115 -67 131 -38 7 13 10 122 10 305 0 275 1 286 22 328 32 61 106 156 137
176 15 10 46 33 69 53 23 19 67 55 99 80 70 55 224 190 280 245 35 35 128 172
145 215 17 43 -79 190 -208 317 -68 67 -93 85 -135 98 -63 18 -98 18 -160 -1z
m240 -80 c37 -25 95 -85 129 -138 35 -52 69 -133 60 -142 -3 -3 -22 3 -44 14
-61 32 -272 269 -259 291 7 12 84 -5 114 -25z m35 -299 c-3 -8 -10 -15 -17
-15 -6 0 -29 -3 -51 -7 -37 -6 -39 -5 -26 10 7 10 26 17 42 17 15 0 31 5 34
10 9 15 25 2 18 -15z m-183 -45 c0 -5 -2 -10 -4 -10 -3 0 -8 5 -11 10 -3 6 -1
10 4 10 6 0 11 -4 11 -10z m100 -15 c-7 -8 -19 -15 -26 -15 -8 0 -14 7 -14 15
0 10 10 15 26 15 22 0 25 -2 14 -15z m51 -22 c7 -10 9 -15 4 -10 -4 4 -17 0
-27 -10 -18 -16 -23 -8 -12 21 8 21 18 20 35 -1z m144 -43 c-3 -5 -30 -10 -58
-9 -38 0 -47 3 -32 9 29 12 98 12 90 0z m-15 -60 c0 -5 -2 -10 -4 -10 -3 0 -8
5 -11 10 -3 6 -1 10 4 10 6 0 11 -4 11 -10z m-350 -10 c0 -5 -4 -10 -10 -10
-5 0 -10 5 -10 10 0 6 5 10 10 10 6 0 10 -4 10 -10z m210 -20 c0 -5 -4 -10
-10 -10 -5 0 -10 5 -10 10 0 6 5 10 10 10 6 0 10 -4 10 -10z m60 -29 c0 -13
-36 -20 -51 -10 -10 6 -7 10 11 17 26 10 40 7 40 -7z m-65 -91 c-3 -5 -11 -10
-16 -10 -6 0 -7 5 -4 10 3 6 11 10 16 10 6 0 7 -4 4 -10z m-35 -30 c0 -13 -60
-43 -68 -35 -9 8 36 45 54 45 8 0 14 -4 14 -10z m-680 -324 c0 -7 -15 -19 -32
-26 -18 -7 -49 -31 -69 -53 -25 -28 -40 -39 -52 -34 -21 8 -22 26 -2 33 8 3
34 26 58 50 45 44 97 61 97 30z m200 -208 c-6 -24 -13 -139 -17 -256 -4 -140
-9 -212 -16 -209 -6 2 -19 14 -28 28 -17 23 -22 79 -20 214 1 22 -8 58 -19 80
-11 21 -20 45 -20 53 0 7 20 34 44 60 50 54 66 81 67 114 1 19 3 17 10 -9 6
-21 6 -47 -1 -75z m-54 50 c4 -7 -2 -18 -16 -27 -51 -34 -95 -87 -92 -110 7
-43 -22 -16 -31 29 -7 35 -5 47 10 68 28 38 114 65 129 40z"/>
<path d="M630 5062 c-65 -8 -211 -58 -261 -88 -81 -49 -118 -94 -199 -245 -8
-16 -34 -46 -57 -68 -58 -56 -116 -157 -104 -180 6 -10 6 -23 0 -32 -6 -10 -1
-21 19 -38 15 -13 19 -21 10 -18 -22 7 -42 -18 -33 -40 4 -10 9 -54 11 -97 3
-44 9 -85 15 -92 6 -7 7 -28 4 -47 -6 -31 -3 -37 39 -74 54 -47 57 -66 25
-168 -51 -167 -70 -443 -39 -590 6 -31 9 -67 6 -79 -3 -12 5 -69 18 -127 18
-79 40 -137 86 -230 34 -68 70 -133 79 -144 20 -23 101 -160 101 -171 0 -4 24
-33 52 -64 49 -52 112 -136 283 -375 35 -49 70 -97 77 -105 7 -8 22 -33 33
-55 26 -51 134 -161 206 -208 63 -40 206 -94 285 -107 84 -13 134 -46 134 -89
0 -43 -51 -183 -83 -229 -17 -23 -55 -61 -84 -84 -30 -22 -64 -54 -78 -69 -13
-16 -53 -55 -89 -86 -36 -32 -85 -83 -108 -114 -81 -106 -130 -164 -152 -178
-31 -22 -36 -32 -36 -79 0 -39 9 -54 100 -172 55 -71 104 -132 110 -135 5 -3
10 -17 10 -29 l0 -23 -297 4 c-164 2 -324 8 -357 14 -90 16 -163 -5 -141 -41
8 -14 162 -31 215 -24 41 5 54 3 70 -11 21 -19 50 -21 348 -26 166 -3 175 -2
190 18 18 22 41 22 277 -6 106 -13 295 -28 487 -40 75 -5 141 -12 147 -15 9
-6 363 -20 451 -19 19 1 98 2 175 4 102 3 152 0 183 -10 38 -13 49 -13 97 3
34 10 68 15 89 11 21 -4 36 -3 41 5 4 6 17 15 30 20 33 13 196 12 300 -1 50
-6 115 -12 145 -13 30 -2 76 -6 101 -10 37 -6 52 -4 73 9 15 10 25 25 24 34
-3 14 -24 16 -153 16 -94 0 -172 5 -210 14 -72 17 -298 19 -337 3 -20 -8 -36
-8 -55 -1 -15 5 -88 14 -162 20 -75 5 -192 14 -261 19 -137 10 -164 3 -120
-30 17 -14 34 -18 53 -14 34 7 127 -5 127 -16 0 -5 -8 -10 -17 -12 -30 -6
-356 21 -387 32 -15 5 -32 7 -37 5 -7 -5 -124 10 -319 40 -152 24 -258 17
-203 -14 33 -18 3 -24 -69 -13 -40 7 -101 14 -135 18 -35 4 -67 12 -72 18 -5
6 -20 57 -35 113 -14 57 -30 112 -36 124 -27 49 18 108 147 195 177 119 271
195 393 320 186 191 281 323 296 409 14 81 9 215 -10 255 -27 58 -78 134 -131
195 -27 31 -68 78 -91 105 l-41 47 -6 119 c-10 199 -34 349 -72 451 -33 90
-44 108 -151 232 -49 57 -49 75 1 100 23 11 47 21 53 21 6 0 46 11 89 24 139
43 138 43 180 -3 56 -63 231 -170 295 -181 58 -9 118 -29 167 -54 41 -22 442
-25 523 -5 54 14 223 105 268 144 49 44 79 52 165 44 148 -14 242 -26 252 -32
6 -4 73 -9 149 -12 76 -2 189 -8 249 -12 134 -9 204 -6 270 12 28 7 67 16 87
19 20 4 38 12 40 18 3 7 -12 29 -33 50 l-37 38 -46 -21 -47 -20 -87 22 c-48
12 -109 29 -137 39 -65 22 -102 33 -205 60 -47 12 -112 31 -144 41 -33 10 -71
19 -84 19 -13 0 -32 5 -43 10 -10 6 -45 12 -77 14 -77 5 -94 13 -86 40 30 96
33 98 179 143 28 8 61 21 75 29 14 7 72 35 130 63 58 27 137 72 175 100 39 29
83 59 99 69 61 36 148 106 267 213 68 62 147 129 174 150 62 47 97 93 93 122
-3 19 -8 22 -43 18 -48 -4 -148 -44 -191 -77 -18 -13 -58 -35 -90 -50 -109
-49 -218 -94 -230 -94 -6 0 -54 -16 -105 -35 -94 -36 -172 -59 -387 -115 -94
-25 -185 -57 -380 -137 -9 -4 -8 6 4 38 24 59 69 127 159 234 106 128 192 239
211 277 15 30 15 32 -2 45 -23 17 -28 17 -75 -7 -47 -24 -171 -146 -249 -244
-103 -130 -170 -220 -170 -228 0 -10 -62 -98 -69 -98 -3 0 -31 7 -61 15 -30 8
-79 15 -107 15 -44 0 -55 4 -68 23 -12 19 -13 30 -4 56 6 17 8 43 5 57 -8 29
12 104 27 104 6 0 19 -8 29 -17 18 -16 21 -16 47 0 40 24 60 21 93 -10 27 -26
30 -27 56 -12 18 10 28 24 30 44 2 17 13 40 25 53 18 19 19 26 9 42 -7 11 -12
31 -12 44 0 29 -61 72 -87 62 -9 -4 -25 2 -37 13 -12 10 -30 21 -41 23 -13 2
-21 12 -23 31 -3 21 -9 27 -28 27 -13 0 -32 5 -42 11 -14 9 -27 7 -60 -10 -59
-30 -72 -28 -72 13 0 23 11 47 35 77 38 48 46 97 20 119 -21 18 -78 4 -115
-27 -17 -14 -54 -38 -83 -52 -51 -26 -52 -27 -50 -70 2 -32 9 -51 28 -71 22
-23 24 -30 15 -55 -6 -16 -8 -41 -5 -56 6 -25 3 -29 -22 -35 -111 -24 -280
-102 -329 -150 -35 -36 -64 -109 -64 -164 0 -34 15 -135 26 -172 4 -13 -8 -24
-46 -43 -29 -15 -71 -43 -93 -65 -40 -36 -45 -38 -97 -34 -57 4 -191 -4 -510
-31 -102 -9 -207 -17 -235 -18 l-50 -2 -54 103 c-44 84 -70 119 -138 187 -45
45 -83 89 -83 98 0 33 53 51 229 78 36 6 87 18 115 27 44 15 54 23 73 62 12
25 22 55 23 68 0 14 17 39 45 64 l46 42 -36 36 c-50 51 -47 79 14 138 40 39
51 57 61 104 7 31 10 63 7 72 -3 8 -25 20 -49 27 -24 6 -49 13 -56 15 -11 3
-12 18 -7 67 4 34 11 70 16 79 18 33 10 132 -13 178 -38 74 -180 167 -289 189
-56 12 -231 20 -279 13z m284 -89 c68 -14 90 -24 138 -62 111 -90 127 -138
101 -301 -12 -71 -12 -76 8 -92 12 -10 38 -22 60 -28 34 -9 39 -15 39 -39 0
-29 -52 -111 -71 -111 -17 0 -39 -66 -39 -119 0 -37 -4 -51 -17 -57 -10 -5
-94 -9 -187 -9 -134 0 -170 -3 -174 -14 -2 -7 2 -17 9 -22 19 -12 195 -11 288
1 79 11 99 7 80 -16 -7 -8 -13 -32 -14 -54 -1 -25 -12 -53 -29 -74 -23 -30
-33 -35 -83 -41 -183 -20 -289 -52 -351 -106 -18 -16 -38 -29 -45 -29 -25 0
-78 40 -75 58 2 12 -11 24 -40 39 -24 12 -49 28 -55 36 -7 8 -23 17 -37 20
-14 3 -44 11 -68 18 -37 10 -45 9 -62 -6 -17 -15 -24 -16 -46 -6 -15 6 -34 9
-44 6 -10 -3 -21 -1 -25 4 -3 6 -8 86 -9 177 -3 122 -7 169 -17 175 -10 6 -10
10 1 23 18 23 31 98 18 113 -5 7 -6 17 -2 24 4 6 8 40 9 73 4 86 61 198 159
306 56 62 97 89 156 100 28 5 58 13 66 18 30 17 272 13 358 -5z m1662 -793
c54 0 50 -15 -8 -30 -47 -13 -60 -5 -51 30 4 13 8 19 11 12 2 -7 22 -12 48
-12z m774 -70 c-15 -16 -34 -30 -41 -30 -7 0 0 14 16 30 16 17 34 30 41 30 7
0 -1 -13 -16 -30z m-800 -10 c23 -14 -2 -32 -34 -24 -14 3 -26 9 -26 13 0 21
34 28 60 11z m370 -19 c19 -37 13 -44 -36 -37 -39 5 -48 3 -70 -19 -15 -15
-36 -25 -54 -25 -32 0 -37 9 -18 28 9 9 6 14 -13 21 -22 8 -19 10 31 24 50 15
86 21 132 26 10 0 22 -8 28 -18z m1500 12 c-1 -5 -28 -28 -61 -53 -34 -25 -72
-55 -86 -68 -42 -39 -96 -70 -133 -77 -19 -4 -59 -24 -88 -44 -71 -48 -171
-109 -202 -122 -14 -6 -38 -18 -53 -26 -28 -15 -49 -11 -31 6 5 5 33 21 62 36
28 14 52 31 52 37 0 5 -7 7 -16 4 -36 -14 -200 -115 -217 -134 -17 -19 -17
-20 8 -26 15 -4 32 -2 39 3 6 6 18 6 25 2 21 -13 -23 -33 -54 -25 -15 4 -34 0
-48 -9 -14 -9 -29 -12 -37 -7 -8 5 -39 -4 -79 -22 -36 -16 -107 -43 -158 -59
-92 -30 -163 -59 -195 -82 -49 -33 -103 116 -64 176 20 29 123 80 241 120 134
45 257 79 315 86 58 7 170 39 255 72 28 10 56 19 63 19 7 0 30 9 50 19 20 11
80 36 132 56 52 20 115 49 140 65 73 46 141 71 140 53z m-1720 -17 c0 -3 -4
-8 -10 -11 -5 -3 -10 -1 -10 4 0 6 5 11 10 11 6 0 10 -2 10 -4z m594 -25 c3
-4 -3 -16 -13 -25 -16 -14 -20 -15 -30 -2 -10 11 -8 17 6 25 22 13 30 13 37 2z
m-844 -57 c41 -27 100 -87 100 -101 0 -7 -9 -17 -20 -23 -11 -6 -20 -16 -20
-23 0 -7 -18 -26 -40 -43 -22 -16 -40 -37 -40 -46 0 -11 -5 -15 -15 -12 -8 3
-29 -6 -46 -20 -23 -20 -41 -26 -78 -26 -26 0 -52 -5 -58 -11 -17 -17 -31 -3
-38 42 -6 33 -3 45 13 62 11 12 23 33 27 47 10 36 75 130 90 130 7 0 23 9 36
20 29 24 57 25 89 4z m794 7 c4 -5 -10 -31 -31 -57 -70 -93 -126 -187 -157
-268 -25 -63 -38 -84 -60 -95 -96 -46 -30 122 122 312 88 109 113 130 126 108z
m-344 -26 c9 -11 10 -19 2 -27 -13 -13 -28 -4 -35 22 -6 24 15 27 33 5z
m-2600 -106 c57 -10 86 -21 118 -46 31 -23 54 -33 80 -33 20 0 52 -9 70 -20
18 -11 39 -20 47 -20 8 0 19 -9 25 -20 10 -18 13 -19 34 -5 21 14 26 13 63
-14 58 -42 77 -70 150 -218 71 -145 90 -168 132 -151 28 11 55 14 386 47 277
28 488 41 499 31 4 -5 -1 -13 -13 -19 -16 -9 -21 -21 -21 -55 0 -51 -9 -64
-24 -33 -16 30 -48 33 -118 7 -46 -17 -70 -20 -112 -15 -40 5 -59 3 -77 -9
-13 -8 -51 -22 -84 -30 -33 -8 -91 -24 -129 -35 -38 -11 -73 -18 -78 -15 -5 3
-31 0 -58 -6 -41 -10 -60 -9 -113 4 -35 9 -81 16 -102 16 -57 0 -215 100 -215
136 0 8 -16 31 -35 53 -19 21 -35 44 -35 50 0 7 -8 24 -18 39 -11 15 -31 46
-47 70 -28 42 -45 53 -45 30 0 -14 47 -101 104 -193 81 -132 202 -220 320
-235 35 -4 126 -4 202 1 118 7 155 13 248 43 60 20 115 36 121 36 7 0 16 -17
19 -37 13 -72 27 -113 38 -113 7 0 8 19 4 61 -6 50 -4 64 10 80 9 10 24 19 33
19 9 0 36 9 60 20 38 17 46 18 60 7 9 -8 58 -36 108 -63 94 -50 111 -68 71
-77 -13 -2 -63 -16 -113 -30 -49 -14 -117 -31 -150 -38 -33 -7 -71 -21 -85
-31 -44 -30 -171 -75 -280 -98 -58 -12 -121 -28 -140 -35 -83 -31 -312 -24
-436 14 -80 25 -168 70 -221 112 -69 57 -200 239 -257 359 -41 88 -47 126 -31
213 8 40 -2 48 -28 19 -20 -21 -24 -108 -8 -182 22 -108 128 -298 233 -422 61
-70 202 -150 323 -180 139 -36 396 -15 588 47 44 15 86 24 93 21 17 -7 154
-216 187 -286 28 -59 37 -93 63 -235 19 -101 21 -339 4 -361 -26 -30 -152 -67
-325 -96 -290 -48 -533 -53 -549 -11 -3 7 -40 66 -83 130 -42 65 -84 130 -92
146 -9 15 -46 63 -84 106 -37 44 -67 84 -67 89 0 5 -17 31 -38 58 -90 114
-257 373 -302 467 -53 112 -52 109 -71 392 -10 153 -9 202 4 324 12 111 20
148 35 165 10 11 26 34 36 49 10 16 23 27 29 24 7 -2 46 -10 87 -18z m3720
-97 c0 -5 -16 -16 -35 -25 -39 -19 -47 -8 -12 16 24 17 47 22 47 9z m-1262
-113 c26 0 67 -8 92 -19 38 -15 42 -19 26 -26 -11 -4 -44 -2 -75 6 -31 7 -76
15 -101 17 -68 6 -79 12 -56 28 13 10 25 11 43 4 13 -5 45 -9 71 -10z m-178 1
c0 -5 -4 -10 -10 -10 -5 0 -10 5 -10 10 0 6 5 10 10 10 6 0 10 -4 10 -10z
m1205 -10 c-3 -5 -14 -10 -23 -10 -15 0 -15 2 -2 10 20 13 33 13 25 0z m-1045
-53 c102 -8 152 -24 148 -45 -4 -23 -86 -27 -198 -9 -69 10 -86 16 -89 32 -4
24 26 47 48 36 9 -5 50 -11 91 -14z m-660 -79 c0 -12 -10 -52 -22 -90 -20 -63
-21 -70 -6 -85 13 -12 14 -20 6 -33 -6 -10 -8 -24 -5 -33 5 -13 12 -14 43 -6
20 6 55 20 77 32 22 11 64 23 94 25 39 3 58 10 66 23 8 13 24 19 49 19 26 0
38 5 38 14 0 9 17 15 51 18 34 4 55 11 61 22 5 9 19 16 31 16 12 0 28 4 36 9
10 7 23 3 40 -10 17 -14 33 -18 51 -14 45 10 57 -15 37 -79 -19 -58 -22 -96
-8 -96 5 0 27 15 48 33 52 43 181 96 203 82 16 -10 -6 -41 -40 -55 -23 -10
-30 -19 -30 -41 0 -15 -6 -31 -12 -36 -7 -4 -57 -18 -111 -30 l-98 -22 -110
34 c-121 38 -219 55 -219 37 0 -6 26 -23 57 -39 70 -35 83 -59 27 -50 -48 8
-72 -4 -49 -23 25 -21 18 -29 -45 -47 -59 -16 -78 -38 -42 -49 9 -3 30 -12 45
-20 16 -7 36 -14 45 -14 8 0 23 -6 31 -14 13 -10 36 -11 114 -4 97 9 99 8 121
-15 25 -27 83 -41 126 -32 15 3 31 2 34 -4 10 -15 -97 -25 -193 -17 -239 17
-427 61 -519 120 -93 61 -94 93 -5 132 50 22 50 34 -1 34 -52 0 -141 32 -173
62 -17 16 -20 25 -13 39 6 10 10 31 10 48 0 25 9 37 54 70 66 49 71 57 50 69
-15 8 -14 12 12 25 39 21 44 21 44 -5z m935 9 c22 -17 12 -37 -20 -37 -28 0
-38 12 -29 34 8 20 24 20 49 3z m-735 -39 c0 -11 -155 -67 -163 -58 -5 4 -2
21 7 38 16 30 17 31 86 29 38 -1 70 -5 70 -9z m400 -8 c0 -5 -4 -10 -9 -10 -6
0 -13 5 -16 10 -3 6 1 10 9 10 9 0 16 -4 16 -10z m110 0 c0 -5 -7 -10 -15 -10
-8 0 -15 5 -15 10 0 6 7 10 15 10 8 0 15 -4 15 -10z m34 -61 c-8 -14 -44 -10
-44 5 0 9 8 12 25 8 14 -2 22 -8 19 -13z m61 11 c3 -5 -3 -10 -15 -10 -12 0
-18 5 -15 10 3 6 10 10 15 10 5 0 12 -4 15 -10z m-55 -64 c0 -2 -9 -6 -20 -9
-11 -3 -20 -1 -20 4 0 5 9 9 20 9 11 0 20 -2 20 -4z m-650 -26 c0 -5 -4 -10
-10 -10 -5 0 -10 5 -10 10 0 6 5 10 10 10 6 0 10 -4 10 -10z m937 -12 c18 -7
33 -17 33 -23 0 -21 -38 -48 -57 -40 -17 6 -17 7 -1 19 22 16 5 36 -30 36 -13
0 -20 4 -17 10 8 13 31 13 72 -2z m166 -27 c4 -4 -4 -20 -18 -35 -21 -22 -31
-27 -53 -21 -41 10 -45 19 -21 49 18 23 26 26 53 20 17 -3 34 -9 39 -13z
m-293 -41 c-20 -13 -33 -13 -25 0 3 6 14 10 23 10 15 0 15 -2 2 -10z m430 -63
c56 -5 353 -83 391 -103 15 -7 34 -14 40 -14 7 0 31 -8 53 -18 62 -28 109 -42
141 -42 l29 0 -20 -21 c-19 -19 -32 -20 -170 -20 -155 1 -214 4 -300 16 -41 6
-54 13 -63 31 -7 16 -19 24 -36 24 -15 0 -36 5 -48 12 -12 6 -38 15 -57 18
-19 4 -47 11 -62 15 -22 6 -28 4 -28 -9 0 -19 -16 -22 -22 -4 -3 8 -34 12 -91
13 -70 1 -87 -1 -92 -14 -6 -14 -7 -14 -15 -1 -7 12 -27 15 -97 14 -48 -1 -99
-6 -113 -12 -14 -5 -27 -7 -30 -3 -3 3 -17 7 -32 8 -21 1 -28 -4 -28 -18 0
-10 -4 -19 -10 -19 -5 0 -10 14 -10 32 0 17 -7 39 -16 49 -14 16 -12 18 28 32
37 14 121 30 208 40 32 4 391 -1 450 -6z m-830 -27 c0 -5 -7 -10 -15 -10 -8 0
-15 5 -15 10 0 6 7 10 15 10 8 0 15 -4 15 -10z m0 -70 c0 -17 -38 -30 -87 -29
l-48 0 45 19 c49 21 90 25 90 10z m-582 -44 c81 -64 185 -116 232 -116 21 0
67 -7 102 -16 84 -22 245 -36 397 -36 138 1 184 12 259 65 31 22 45 28 53 20
6 -6 8 -16 4 -22 -12 -20 -158 -88 -215 -100 -79 -18 -458 -15 -502 2 -18 8
-78 29 -133 46 -68 23 -126 50 -181 86 -73 49 -112 93 -97 109 12 12 25 5 81
-38z m882 -110 c0 -11 -19 -15 -25 -6 -3 5 1 10 9 10 9 0 16 -2 16 -4z m-1105
-966 c3 -5 15 -10 26 -10 10 0 19 -4 19 -9 0 -5 19 -33 43 -62 24 -30 58 -77
75 -106 38 -64 68 -179 57 -219 -5 -16 -8 -33 -7 -39 5 -34 -34 -114 -105
-222 -24 -35 -43 -68 -43 -74 0 -22 -280 -288 -379 -359 -57 -41 -129 -94
-160 -117 -31 -24 -72 -54 -91 -67 -19 -13 -57 -45 -84 -70 -28 -26 -53 -43
-58 -38 -4 4 -10 37 -13 72 -6 88 18 133 96 175 30 17 68 39 85 51 16 12 41
24 56 28 16 3 34 18 42 34 8 15 47 52 87 82 123 93 309 291 350 373 12 23 36
63 54 89 26 38 34 61 40 117 6 62 4 76 -18 125 -26 57 -53 79 -90 74 -29 -4
-34 -35 -8 -62 86 -92 59 -220 -85 -406 -80 -103 -217 -248 -278 -292 -28 -20
-60 -46 -71 -56 -11 -10 -36 -30 -55 -43 -19 -13 -42 -31 -50 -40 -8 -9 -31
-22 -50 -30 -58 -21 -110 -58 -131 -92 -28 -44 -20 -127 21 -232 35 -89 49
-168 31 -179 -25 -16 -55 11 -117 106 -36 56 -81 121 -100 146 -19 25 -34 55
-34 68 0 31 180 255 267 331 37 32 111 103 165 158 83 83 107 115 145 191 33
67 45 104 45 135 0 72 -11 105 -40 119 -33 15 -190 66 -234 75 -39 8 -213 97
-247 125 -13 11 -21 23 -18 26 3 4 44 6 91 5 51 0 86 4 86 10 0 6 7 6 18 1 34
-18 384 15 446 42 17 7 51 19 76 26 25 7 61 21 80 31 40 21 56 23 65 9z m-577
-1490 c44 -166 38 -182 -36 -107 -30 30 -42 51 -42 72 -1 17 -7 48 -15 70 -8
21 -13 40 -12 40 75 29 78 26 105 -75z m2082 -240 c13 -9 13 -10 0 -10 -8 0
-22 5 -30 10 -13 9 -13 10 0 10 8 0 22 -5 30 -10z"/>
<path d="M990 4810 c-14 -4 -36 -5 -50 -3 -20 3 -36 -7 -75 -47 -27 -28 -65
-58 -82 -65 -36 -15 -44 -44 -18 -65 25 -20 58 -3 91 48 31 47 54 63 157 106
61 26 43 46 -23 26z"/>
<path d="M983 4670 c-35 -14 -55 -53 -51 -102 4 -51 26 -60 79 -31 47 27 50
46 7 38 -40 -8 -71 16 -49 38 8 8 18 7 41 -6 53 -32 96 16 52 56 -20 19 -45
21 -79 7z"/>
<path d="M252 4488 c-24 -24 -9 -78 29 -99 16 -8 25 -7 40 7 26 23 24 30 -11
38 -25 5 -30 10 -30 36 0 32 -9 37 -28 18z"/>
<path d="M1313 2833 c-7 -2 -13 -14 -13 -24 0 -16 6 -20 28 -17 19 2 27 9 27
23 0 20 -19 28 -42 18z"/>
<path d="M1504 2423 c-7 -27 14 -53 43 -53 18 0 28 47 13 65 -20 24 -49 18
-56 -12z"/>
<path d="M1563 2254 c-16 -25 -16 -27 8 -45 13 -10 28 -17 34 -16 14 5 23 50
13 70 -13 25 -35 21 -55 -9z"/>
<path d="M1559 2104 c-9 -11 -10 -20 -2 -32 15 -24 52 -27 69 -5 12 16 11 20
-7 36 -26 21 -43 22 -60 1z"/>
<path d="M9320 290 c0 -5 12 -10 26 -10 14 0 23 4 19 10 -3 6 -15 10 -26 10
-10 0 -19 -4 -19 -10z"/>
<path d="M5015 228 c-76 -9 -129 -10 -189 -6 -30 2 -41 -2 -53 -19 -15 -22
-15 -23 28 -20 25 1 49 9 56 17 7 9 12 10 13 4 0 -24 54 -36 103 -23 36 9 50
9 61 0 10 -8 16 -9 21 -1 3 6 45 10 100 10 66 0 95 4 98 13 3 9 7 9 20 -2 12
-9 30 -12 56 -7 24 4 78 -2 137 -14 112 -22 149 -15 149 30 0 24 -2 25 -50 20
-27 -2 -66 -4 -85 -3 -155 7 -408 8 -465 1z"/>
</g>
</svg>
