<?xml version="1.0" standalone="no"?>
<!DOCTYPE svg PUBLIC "-//W3C//DTD SVG 20010904//EN"
 "http://www.w3.org/TR/2001/REC-SVG-20010904/DTD/svg10.dtd">
<svg version="1.0" xmlns="http://www.w3.org/2000/svg"
 width="1280.000000pt" height="640.000000pt" viewBox="0 0 1280.000000 640.000000"
 preserveAspectRatio="xMidYMid meet">
<metadata>
Created by potrace 1.15, written by Peter Selinger 2001-2017
</metadata>
<g transform="translate(0.000000,640.000000) scale(0.100000,-0.100000)"
fill="#000000" stroke="none">
<path d="M7878 6120 c-20 -17 -42 -47 -49 -68 l-13 -37 -6 30 c-9 48 -35 43
-70 -14 -23 -36 -38 -51 -57 -53 -14 -2 -35 -14 -45 -29 -20 -27 -45 -126 -57
-225 -5 -44 -14 -70 -33 -92 -70 -83 -156 -302 -178 -452 -17 -109 -31 -132
-124 -193 -45 -30 -92 -61 -106 -71 -14 -9 -43 -29 -66 -44 -23 -15 -69 -53
-103 -84 l-62 -56 23 -27 c21 -24 30 -26 88 -27 36 0 112 8 170 17 215 34 240
31 240 -27 l0 -31 85 7 c69 5 85 3 85 -8 0 -7 -12 -19 -27 -25 -16 -7 -61 -43
-102 -81 -66 -62 -72 -71 -60 -86 12 -14 29 -16 127 -11 110 5 113 5 122 -17
4 -12 15 -28 23 -34 9 -7 34 -42 57 -78 32 -48 60 -76 113 -111 38 -26 100
-71 136 -102 36 -30 68 -56 71 -58 9 -8 -26 -23 -68 -29 -36 -5 -47 -13 -74
-51 -17 -25 -30 -57 -30 -71 0 -25 7 -33 67 -75 14 -10 25 -23 25 -30 0 -7
-34 -41 -75 -77 -105 -90 -135 -141 -100 -170 19 -16 65 2 112 43 l32 29 -6
-66 c-8 -88 8 -88 75 2 37 51 39 52 115 52 64 0 70 2 95 31 15 18 36 50 48 71
16 31 23 37 31 26 18 -22 70 -160 81 -218 67 -327 142 -557 222 -685 21 -34
56 -98 79 -143 55 -110 145 -233 222 -308 35 -33 71 -65 79 -70 8 -5 26 -25
39 -44 22 -33 175 -167 231 -203 14 -9 44 -19 68 -23 38 -6 42 -5 42 15 0 15
-13 28 -47 45 -52 26 -140 108 -329 306 -125 132 -244 273 -244 290 0 6 -20
38 -44 73 -83 119 -145 288 -226 613 -34 137 -72 273 -86 303 -40 90 -108 182
-194 264 -44 43 -79 81 -76 86 3 5 26 14 50 21 26 7 63 29 87 51 30 27 48 37
63 33 15 -3 54 19 140 79 110 76 144 107 118 107 -6 0 -29 -16 -52 -35 -51
-42 -91 -49 -43 -7 40 34 83 99 83 123 0 10 11 26 24 34 13 9 31 36 41 60 9
25 20 45 25 45 14 0 37 -88 55 -210 18 -116 53 -269 75 -325 7 -16 20 -57 30
-90 61 -204 220 -562 307 -691 22 -32 49 -77 61 -99 20 -41 59 -79 257 -253
107 -94 141 -121 330 -257 237 -171 635 -540 635 -590 0 -7 -19 -37 -42 -67
-142 -179 -190 -243 -209 -280 -32 -63 -49 -191 -57 -429 -5 -144 -12 -222
-20 -231 -6 -8 -34 -27 -61 -42 -45 -24 -59 -27 -128 -24 l-78 3 -14 40 c-11
30 -16 107 -19 303 -4 274 6 406 33 445 8 12 15 28 15 37 0 9 16 49 36 90 l35
75 -21 17 c-33 27 -49 22 -67 -20 -25 -60 -40 -72 -95 -72 -27 0 -58 -5 -68
-10 -16 -8 -22 -6 -36 15 -10 15 -33 29 -58 36 -22 6 -58 20 -79 31 -75 38
-59 -11 16 -52 25 -14 59 -35 74 -46 l28 -21 -20 -23 c-19 -21 -20 -36 -20
-244 0 -121 4 -230 9 -241 5 -11 15 -49 22 -85 6 -36 21 -107 33 -157 29 -127
26 -172 -14 -253 -7 -14 -18 -43 -25 -65 -18 -55 -84 -184 -114 -219 l-24 -28
-138 -3 c-455 -11 -626 -18 -683 -26 -35 -5 -89 -7 -120 -4 -138 15 -251 19
-511 15 -112 -1 -153 -6 -240 -30 -96 -26 -116 -28 -226 -23 -83 3 -129 1
-143 -7 -42 -22 -7 -37 104 -43 84 -6 113 -4 145 9 21 9 45 14 52 11 8 -3 2
-9 -14 -16 -30 -11 -36 -28 -14 -37 8 -3 52 4 97 16 159 41 228 51 252 36 37
-23 188 -40 284 -32 256 20 489 29 868 32 231 2 456 4 500 5 44 2 184 -2 310
-8 127 -6 435 -10 685 -9 l455 2 39 24 39 24 206 -12 c245 -15 328 -15 336 -3
3 5 -7 19 -21 30 -21 17 -41 21 -97 21 -39 0 -86 -5 -104 -12 -27 -10 -40 -10
-66 2 -17 7 -57 15 -87 17 -30 2 -111 8 -180 13 -69 6 -177 9 -240 6 -195 -9
-722 -5 -788 5 -35 5 -67 7 -71 4 -5 -2 -53 -4 -107 -4 -55 0 -110 0 -124 0
-44 -1 -91 10 -85 19 3 5 38 25 78 44 40 19 95 50 122 68 l50 34 0 118 0 119
44 16 c25 9 59 30 76 46 l32 30 8 142 c4 78 4 147 1 152 -13 20 15 227 40 301
14 43 43 99 67 131 23 31 71 95 107 142 35 48 69 87 75 87 19 0 39 -21 118
-120 127 -159 119 -152 152 -148 l30 3 -3 86 c-5 106 27 235 114 462 19 49 34
93 34 99 0 5 6 24 14 41 17 38 46 150 46 180 0 11 4 34 10 51 5 17 12 52 15
79 4 26 11 47 17 47 5 0 36 -17 68 -37 46 -30 67 -52 96 -103 20 -36 46 -81
57 -101 l20 -35 -94 -110 c-52 -60 -107 -127 -123 -149 -16 -22 -43 -56 -60
-76 -97 -115 -99 -118 -86 -149 12 -30 49 -60 73 -60 8 0 45 42 83 93 38 50
99 127 136 170 38 44 68 85 68 93 0 23 -28 16 -47 -12 -10 -15 -35 -45 -56
-68 -21 -22 -66 -78 -99 -123 -38 -52 -68 -83 -80 -83 -10 0 -18 6 -18 13 0
28 111 180 189 258 25 25 63 66 83 89 36 41 39 42 56 27 30 -27 49 -20 99 34
27 29 134 139 238 245 313 319 367 375 455 473 46 52 147 160 225 240 77 80
164 175 194 211 29 35 65 73 80 84 14 11 58 50 97 88 41 38 81 68 92 68 44 0
47 6 46 98 0 48 -4 93 -8 100 -18 30 -116 5 -116 -29 0 -6 -86 -97 -191 -202
-105 -106 -226 -232 -267 -282 -42 -49 -110 -124 -152 -165 -83 -82 -315 -330
-425 -455 -38 -44 -80 -90 -93 -103 l-22 -23 -83 70 c-60 51 -93 88 -122 138
-22 37 -58 91 -81 118 -22 28 -49 64 -60 80 -10 17 -32 47 -48 68 -32 40 -31
36 -66 327 -6 46 -13 95 -16 107 -16 61 68 27 280 -112 82 -53 161 -102 175
-109 14 -6 52 -28 84 -49 l58 -37 126 5 c154 7 165 12 157 65 -6 38 -5 40 19
40 35 0 77 17 77 31 0 12 -69 76 -133 122 -44 32 -38 47 19 47 36 0 94 18 94
30 0 4 -6 13 -14 20 -12 9 -35 6 -107 -12 -51 -13 -94 -29 -96 -35 -2 -6 26
-34 62 -63 36 -29 70 -61 76 -71 8 -17 6 -19 -19 -19 -16 0 -46 8 -67 19 -28
14 -46 16 -68 10 -19 -5 -43 -3 -70 6 -23 8 -44 12 -47 9 -10 -11 42 -43 78
-49 57 -10 87 -24 117 -55 40 -41 14 -47 -49 -10 -35 20 -57 27 -61 20 -4 -6
-1 -18 6 -26 21 -26 6 -23 -70 12 -85 39 -81 38 -81 20 0 -8 16 -24 35 -36 29
-18 46 -40 32 -40 -15 0 -68 35 -91 59 -35 37 -33 56 20 168 56 118 48 113
186 113 90 0 119 3 116 12 -7 21 -68 28 -174 22 -101 -6 -101 -6 -135 23 -19
16 -54 41 -79 56 -25 15 -52 32 -60 37 -136 85 -206 121 -227 115 -13 -3 -23
-1 -23 5 0 6 -15 20 -34 31 -19 11 -40 34 -47 52 -19 46 -76 105 -123 129 -44
22 -115 94 -116 118 0 8 -13 38 -29 65 -16 28 -50 91 -75 140 -25 50 -66 117
-90 150 -25 33 -45 63 -45 68 -1 8 -70 113 -102 157 -11 14 -35 49 -54 78 -19
28 -39 52 -43 52 -5 0 -44 36 -88 81 -131 133 -345 252 -549 305 -33 9 -79 25
-103 35 -38 18 -117 39 -194 54 -24 5 -27 9 -21 35 5 28 4 30 -25 30 -32 0
-45 15 -73 83 -6 15 -15 27 -21 27 -5 0 -6 9 -3 21 5 16 -3 30 -38 62 -25 23
-55 64 -66 90 -17 39 -29 52 -63 67 -24 11 -52 20 -62 20 -11 0 -27 6 -35 13
-9 7 -45 23 -81 34 -77 25 -302 34 -385 15 -43 -9 -52 -9 -62 5 -9 11 -22 14
-48 10 -20 -3 -48 -2 -62 4 -14 5 -52 10 -85 10 -50 1 -71 -5 -130 -36 l-71
-37 7 36 c5 27 3 38 -7 42 -8 3 -24 27 -37 55 -30 63 -56 66 -94 8 -27 -40
-28 -40 -48 -22 -11 10 -24 28 -29 41 -12 30 -37 28 -81 -8z m252 -234 c0 -3
-22 -12 -50 -21 -75 -25 -62 -36 30 -29 75 6 80 6 80 -13 0 -30 34 -57 64 -49
18 4 38 -3 76 -29 47 -31 68 -39 107 -38 7 0 15 -8 19 -19 4 -15 12 -18 29
-14 29 7 40 -7 20 -24 -26 -21 -17 -30 33 -30 l47 0 -39 -23 c-46 -26 -51 -41
-16 -45 14 -2 29 -10 33 -18 10 -18 35 -18 71 1 15 8 35 15 42 15 26 0 14 -16
-22 -29 -38 -14 -45 -48 -9 -44 51 6 268 45 335 60 70 15 130 13 130 -5 0 -13
-153 -42 -276 -52 -125 -10 -154 -16 -154 -30 0 -18 21 -21 77 -11 105 18 209
25 197 12 -5 -6 -53 -15 -105 -20 -127 -13 -133 -15 -113 -52 17 -33 14 -33
119 -14 96 17 147 19 125 5 -8 -5 -40 -14 -70 -20 -77 -16 -90 -20 -90 -31 0
-5 9 -9 19 -9 10 0 29 -9 42 -19 22 -18 22 -20 7 -26 -10 -4 -18 -15 -18 -25
0 -13 6 -16 28 -13 l27 4 -23 -20 c-24 -21 -22 -44 2 -35 11 4 13 -6 9 -48 -9
-109 -10 -103 17 -103 22 0 26 5 30 40 3 22 13 52 24 68 15 23 25 27 63 27 56
0 76 11 103 55 12 19 27 35 35 35 7 0 19 10 28 23 8 12 39 35 68 51 59 31 98
71 99 99 0 33 124 21 328 -35 102 -28 112 -33 112 -54 0 -32 36 -54 90 -54 47
0 70 -13 70 -38 0 -12 -3 -12 -16 -1 -9 7 -34 14 -56 14 -37 1 -39 0 -33 -24
6 -22 4 -23 -10 -11 -12 10 -18 11 -28 1 -9 -10 -2 -21 33 -52 72 -63 134 -89
253 -104 31 -4 47 -11 47 -20 0 -11 -13 -13 -65 -8 -73 7 -88 -7 -32 -30 31
-13 31 -14 9 -21 -33 -11 -22 -30 19 -34 33 -3 99 -53 99 -75 0 -10 -43 -5
-72 8 -32 13 -19 -12 20 -37 20 -14 83 -69 139 -122 202 -192 299 -371 338
-631 26 -167 62 -298 109 -397 65 -136 172 -289 278 -400 129 -134 258 -331
258 -393 0 -43 -9 -63 -62 -132 -64 -83 -44 -93 -336 160 -87 75 -179 174
-366 392 -41 48 -126 184 -126 202 0 5 -13 29 -28 54 -25 39 -78 173 -112 283
-9 27 -55 86 -144 185 -72 80 -163 185 -201 234 -38 48 -73 86 -79 84 -34 -11
-7 -81 57 -148 23 -24 76 -82 117 -129 40 -47 98 -110 127 -140 37 -39 63 -79
87 -135 88 -207 118 -270 171 -361 59 -101 157 -238 253 -352 55 -67 57 -75
26 -132 l-13 -25 -7 23 c-7 25 -17 28 -32 9 -7 -8 -7 -39 -1 -97 11 -97 -8
-241 -42 -307 -23 -45 -11 -66 22 -37 l22 19 -7 -60 c-4 -32 -9 -70 -13 -83
-4 -18 -1 -24 15 -29 30 -7 38 -81 16 -153 -21 -73 -29 -140 -16 -140 6 0 16
26 22 58 17 80 28 108 41 95 12 -12 -58 -313 -72 -313 -4 0 -19 14 -34 32 -18
21 -25 38 -20 52 3 12 14 59 25 106 10 47 23 105 30 130 16 60 17 79 5 80 -5
0 -15 -27 -22 -62 -7 -35 -17 -73 -23 -86 -5 -13 -10 -38 -10 -56 0 -37 -23
-76 -34 -58 -4 7 -18 12 -32 12 -21 0 -24 5 -24 34 0 19 5 38 10 41 6 3 10 -5
10 -19 0 -29 15 -42 27 -24 14 23 59 219 51 224 -5 3 -10 -1 -12 -8 -2 -7 -14
-46 -25 -85 -14 -48 -27 -73 -36 -73 -19 0 -19 12 0 57 18 43 19 63 2 63 -7 0
-18 -25 -26 -58 -17 -73 -26 -85 -54 -69 -12 7 -60 47 -106 90 -46 43 -113
102 -150 131 -90 70 -357 267 -406 298 -22 14 -80 60 -130 102 -49 42 -119
101 -155 130 -155 127 -305 323 -375 488 -10 24 -37 86 -60 138 -24 52 -55
129 -70 170 -15 41 -37 102 -50 135 -38 100 -130 458 -154 605 -6 36 -16 83
-22 106 -9 35 -8 46 15 88 14 26 47 78 75 114 52 71 121 191 121 210 0 30 -31
7 -54 -40 -49 -103 -111 -192 -139 -199 -40 -11 -84 -46 -91 -72 -3 -13 -17
-30 -31 -37 -19 -10 -25 -20 -21 -35 7 -26 -39 -103 -86 -146 -25 -22 -30 -31
-20 -41 9 -9 7 -17 -11 -36 l-22 -25 28 7 c15 3 27 2 27 -3 0 -10 -49 -29
-157 -60 -78 -23 -108 -44 -97 -70 27 -64 10 -90 -83 -133 -74 -33 -89 -35
-105 -8 -7 12 -53 48 -103 82 -119 80 -175 136 -242 236 -30 46 -60 85 -67 88
-6 2 -44 0 -84 -4 -39 -5 -77 -5 -83 -1 -18 11 56 85 119 119 73 39 235 91
392 125 246 53 333 88 289 116 -15 9 -32 6 -89 -15 -19 -7 -62 -20 -95 -29
-33 -8 -91 -25 -130 -37 -135 -41 -271 -68 -385 -75 l-115 -7 -13 35 c-12 32
-18 37 -60 43 -28 4 -102 0 -182 -10 -74 -9 -149 -16 -167 -16 -37 0 -54 18
-29 32 45 25 297 223 338 265 46 48 46 49 67 171 46 264 153 455 314 559 46
30 118 63 196 89 68 24 126 45 129 48 6 7 62 8 62 2z m405 -6 c-3 -5 -13 -10
-21 -10 -8 0 -14 5 -14 10 0 6 9 10 21 10 11 0 17 -4 14 -10z m435 -8 c0 -10
-110 -52 -135 -51 -11 0 -37 -2 -57 -6 -23 -5 -38 -4 -38 2 0 14 77 35 100 28
10 -3 33 3 52 15 33 20 78 27 78 12z m-1270 -58 c0 -11 -45 -84 -52 -84 -11 0
-11 1 12 48 11 23 25 42 30 42 6 0 10 -2 10 -6z m1148 -40 c-23 -24 -103 -31
-111 -10 -5 13 2 15 44 14 27 0 53 2 56 6 3 3 11 6 17 6 6 0 3 -7 -6 -16z
m170 -26 c-3 -7 -58 -26 -124 -41 -65 -16 -130 -32 -144 -36 -33 -9 -60 -3
-60 15 0 9 11 14 34 14 35 0 265 46 274 55 10 10 24 5 20 -7z m68 -36 c-5 -8
-33 -18 -136 -47 -25 -7 -76 -16 -115 -20 -110 -10 -67 12 66 35 63 10 126 23
139 29 31 12 53 14 46 3z m104 -40 c0 -22 -114 -52 -240 -63 -58 -5 -132 -12
-165 -15 -40 -4 -57 -3 -50 4 6 5 84 20 175 32 91 12 183 28 205 35 46 15 75
18 75 7z m-250 -111 c0 -8 -78 -21 -129 -21 -31 0 -17 16 19 23 46 8 110 7
110 -2z m220 -145 c0 -3 -4 -8 -10 -11 -5 -3 -10 -1 -10 4 0 6 5 11 10 11 6 0
10 -2 10 -4z m-34 -15 c-3 -4 -23 -11 -45 -15 -22 -3 -46 -9 -55 -12 -9 -3
-16 -2 -16 4 0 11 59 29 98 31 13 1 21 -3 18 -8z m-113 -78 c-7 -2 -19 -2 -25
0 -7 3 -2 5 12 5 14 0 19 -2 13 -5z m28 -103 c-27 -23 -51 -26 -51 -6 0 15 19
23 55 25 19 0 18 -1 -4 -19z m924 -40 c3 -5 14 -10 23 -10 22 -1 88 -55 76
-63 -5 -3 -27 3 -49 13 -22 11 -47 19 -56 20 -23 0 -54 36 -37 43 21 9 36 8
43 -3z m265 -139 c12 -17 16 -32 11 -36 -6 -3 -17 8 -26 24 -26 50 -18 57 15
12z m-30 -57 c0 -17 -22 -14 -28 4 -2 7 3 12 12 12 9 0 16 -7 16 -16z m155
-74 c3 -5 -3 -10 -14 -10 -12 0 -21 5 -21 10 0 6 6 10 14 10 8 0 18 -4 21 -10z
m229 -395 c3 -8 1 -15 -4 -15 -6 0 -10 7 -10 15 0 8 2 15 4 15 2 0 6 -7 10
-15z m66 -104 c0 -17 -4 -33 -10 -36 -11 -7 -25 39 -15 54 12 21 25 11 25 -18z
m90 -117 c0 -8 -4 -12 -10 -9 -5 3 -10 13 -10 21 0 8 5 12 10 9 6 -3 10 -13
10 -21z m-73 -49 c8 -22 -6 -33 -17 -15 -13 20 -12 30 0 30 6 0 13 -7 17 -15z
m-2319 -7 c-6 -18 -28 -21 -28 -4 0 9 7 16 16 16 9 0 14 -5 12 -12z m82 -17
c0 -5 -6 -11 -12 -14 -7 -3 -30 -12 -50 -21 -30 -13 -38 -14 -38 -3 0 14 53
44 83 46 9 0 17 -3 17 -8z m2350 -137 c0 -36 -23 -48 -34 -18 -8 21 -8 59 1
67 13 13 33 -16 33 -49z m265 -14 c3 -5 -3 -10 -15 -10 -12 0 -18 5 -15 10 3
6 10 10 15 10 5 0 12 -4 15 -10z m-335 -52 c0 -62 -5 -60 -13 5 -4 28 -3 47 3
47 6 0 10 -23 10 -52z m382 -14 c20 -13 4 -19 -42 -16 -37 3 -50 8 -50 19 0
13 8 14 42 9 22 -4 45 -9 50 -12z m-262 -44 c0 -22 -18 -36 -30 -24 -11 12 7
57 20 49 5 -3 10 -15 10 -25z m-2846 -21 c-42 -46 32 -89 154 -89 63 0 83 -3
79 -12 -7 -23 -166 -15 -231 12 -49 19 -56 26 -56 50 0 28 30 58 59 59 11 1 9
-4 -5 -20z m161 -10 c51 -45 47 -63 -12 -54 -80 11 -125 25 -120 38 3 9 63 39
94 46 1 1 18 -13 38 -30z m2628 -51 c-15 -25 -37 19 -25 50 4 13 9 10 18 -13
7 -17 10 -33 7 -37z m303 -10 c-10 -5 -25 -6 -34 -2 -14 6 -13 8 8 14 31 9 48
0 26 -12z m-203 -10 c-11 -50 -14 -54 -24 -36 -7 12 -6 25 1 38 14 27 29 25
23 -2z m1777 3 c0 -5 -4 -11 -9 -13 -6 -1 -50 -42 -100 -90 -55 -54 -99 -88
-112 -88 -18 0 -16 4 13 27 18 15 68 60 110 100 73 69 98 85 98 64z m-1481
-37 c2 -2 -4 -6 -13 -10 -23 -9 -113 6 -97 16 12 7 101 2 110 -6z m-403 -41
c17 -56 0 -65 -26 -14 -24 49 -25 63 -3 59 10 -2 22 -20 29 -45z m-2496 -32
c0 -48 -83 -141 -124 -141 -28 0 -49 46 -43 96 6 53 24 78 47 64 13 -8 13 -15
-3 -56 -23 -63 -8 -85 31 -44 20 22 32 45 52 98 10 26 15 30 26 21 8 -6 14
-24 14 -38z m2547 27 c-3 -8 -6 -5 -6 6 -1 11 2 17 5 13 3 -3 4 -12 1 -19z
m631 -19 c42 -16 25 -32 -25 -24 -27 4 -113 9 -193 10 -144 2 -185 9 -174 26
7 11 359 0 392 -12z m-3475 -62 c-18 -34 -85 -97 -95 -91 -5 4 13 29 43 60 50
51 71 63 52 31z m3422 3 c-3 -5 -35 -10 -71 -10 -35 0 -73 -5 -83 -12 -14 -9
-26 -8 -50 2 -17 7 -31 16 -31 21 0 5 54 9 121 9 77 0 118 -4 114 -10z m1030
-142 c-71 -73 -141 -144 -156 -158 -15 -14 -46 -47 -69 -75 -48 -57 -187 -201
-218 -227 -12 -10 -25 -30 -28 -45 -4 -15 -19 -37 -33 -47 -14 -11 -80 -73
-146 -138 -67 -65 -124 -118 -128 -118 -23 0 5 38 98 130 87 86 105 109 100
128 -4 17 -1 22 15 22 36 0 66 28 199 189 72 87 148 174 168 192 21 19 70 68
108 109 97 103 198 190 209 179 6 -5 -42 -62 -119 -141z m-875 128 c0 -7 -13
-42 -29 -77 -15 -35 -31 -77 -35 -93 l-7 -29 -27 25 c-15 14 -37 31 -49 37
-13 6 -23 16 -23 20 0 12 57 31 73 25 7 -2 21 2 32 11 20 15 20 15 1 30 -11 8
-32 15 -48 15 -40 0 -35 18 10 29 93 24 102 25 102 7z m-3491 -13 c-1 -25 -10
-45 -37 -78 -33 -42 -37 -24 -9 39 25 55 48 73 46 39z m2764 -13 c3 -11 2 -20
-3 -20 -8 0 -20 24 -20 41 0 17 17 1 23 -21z m498 -20 c5 0 9 -5 9 -11 0 -15
-43 -7 -48 10 -3 10 0 12 12 8 10 -4 22 -7 27 -7z m-391 -132 c0 -25 -16 -22
-24 5 -11 41 -7 54 9 33 8 -11 15 -28 15 -38z m-121 -640 c-1 -94 -51 -453
-64 -466 -12 -12 -12 8 1 103 12 90 20 159 40 338 7 60 24 79 23 25z m590 -63
c129 -98 176 -191 76 -149 -44 18 -70 12 -60 -14 4 -9 11 -32 15 -49 7 -27 5
-33 -9 -33 -9 0 -27 9 -41 20 -14 11 -38 20 -54 20 l-29 0 6 -75 c6 -83 -1
-87 -35 -22 -11 23 -34 61 -49 84 -33 47 -37 84 -12 104 9 8 41 47 70 87 30
39 56 72 58 72 3 0 32 -20 64 -45z m-649 25 c0 -5 -4 -10 -10 -10 -5 0 -10 5
-10 10 0 6 5 10 10 10 6 0 10 -4 10 -10z m97 -77 c-3 -10 -5 -4 -5 12 0 17 2
24 5 18 2 -7 2 -21 0 -30z m-110 -35 c-3 -8 -6 -5 -6 6 -1 11 2 17 5 13 3 -3
4 -12 1 -19z m90 -105 c-3 -10 -5 -4 -5 12 0 17 2 24 5 18 2 -7 2 -21 0 -30z
m-110 -65 c-3 -8 -6 -5 -6 6 -1 11 2 17 5 13 3 -3 4 -12 1 -19z m678 -48 c17
-19 17 -20 -6 -39 -33 -28 -39 -26 -39 12 0 51 15 60 45 27z m-682 -31 c-3
-11 -9 -22 -14 -25 -10 -6 -12 27 -3 51 9 23 23 0 17 -26z m-27 -92 c-15 -51
-35 -89 -36 -68 0 24 34 119 42 115 4 -3 1 -24 -6 -47z m34 -62 c-16 -43 -23
-23 -9 26 9 31 14 38 16 23 2 -11 -1 -33 -7 -49z m101 -28 c-8 -8 -11 -7 -11
4 0 20 13 34 18 19 3 -7 -1 -17 -7 -23z m-112 -293 c-6 -16 -13 -24 -16 -18
-2 6 2 24 8 40 6 16 13 24 16 18 2 -6 -2 -24 -8 -40z m-23 -91 c-11 -11 -17 4
-9 23 7 18 8 18 11 1 2 -10 1 -21 -2 -24z m-6 -44 c0 -11 -4 -18 -10 -14 -5 3
-7 12 -3 20 7 21 13 19 13 -6z m-1040 -85 c-18 -21 -24 -10 -9 18 8 14 14 18
17 10 2 -7 -2 -19 -8 -28z m86 -59 c-9 -14 -21 -25 -27 -25 -11 0 -4 15 19 43
22 25 28 12 8 -18z m-48 -57 c-2 -6 -10 -14 -16 -16 -7 -2 -10 2 -6 12 7 18
28 22 22 4z m32 -82 c0 -7 -7 -19 -15 -26 -16 -13 -20 -3 -9 24 8 20 24 21 24
2z m-39 -119 l-23 -22 17 28 c10 15 20 25 23 22 3 -3 -5 -16 -17 -28z m39 -25
c0 -5 -11 -19 -25 -32 -28 -26 -33 -16 -9 18 15 22 34 30 34 14z m-56 -77 c-4
-8 -11 -15 -16 -15 -6 0 -5 6 2 15 7 8 14 15 16 15 2 0 1 -7 -2 -15z m56 6 c0
-16 -54 -93 -58 -82 -4 13 38 91 50 91 4 0 8 -4 8 -9z m-16 -106 c-6 -16 -24
-21 -24 -7 0 11 11 22 21 22 5 0 6 -7 3 -15z m-8 -97 c-11 -15 -16 -18 -16 -7
0 16 21 42 28 34 2 -2 -3 -14 -12 -27z m32 -30 c-8 -12 -21 -24 -28 -26 -8 -3
-6 5 6 21 23 32 42 36 22 5z m-4 -80 c-8 -27 -12 -33 -19 -27 -7 8 7 49 17 49
5 0 6 -10 2 -22z m40 -161 c18 -13 17 -18 -13 -108 -35 -107 -69 -154 -137
-194 -51 -30 -63 -27 -47 13 6 15 26 63 43 107 72 177 82 195 110 195 14 0 34
-6 44 -13z m192 5 c7 -4 12 -39 12 -85 1 -72 -1 -79 -29 -112 -19 -22 -40 -35
-55 -35 -15 0 -51 -24 -99 -65 -66 -58 -95 -76 -95 -60 0 3 16 37 35 75 41 81
85 208 85 244 0 14 8 30 18 35 20 12 112 14 128 3z m-322 -373 c-18 -20 -80
-27 -68 -8 9 15 67 39 77 32 5 -3 1 -14 -9 -24z m-71 -56 c-7 -2 -19 -2 -25 0
-7 3 -2 5 12 5 14 0 19 -2 13 -5z m517 -3 c83 -2 30 -19 -72 -22 -103 -4 -288
11 -288 22 0 7 133 7 360 0z m640 -10 c11 -7 5 -10 -23 -10 -23 0 -36 4 -32
10 8 13 35 13 55 0z m378 1 c11 -7 10 -10 -3 -15 -28 -11 -133 -7 -141 5 -5 8
1 10 19 7 14 -3 32 -1 39 3 17 11 69 11 86 0z m-2883 -10 c-6 -5 -46 -12 -90
-15 -75 -6 -78 -5 -50 9 33 15 155 21 140 6z m2645 -3 c0 -4 -20 -8 -45 -8
-59 0 -59 15 0 16 25 0 45 -3 45 -8z m-3070 -38 c0 -5 -7 -10 -15 -10 -8 0
-15 5 -15 10 0 6 7 10 15 10 8 0 15 -4 15 -10z"/>
<path d="M7703 5541 c-17 -4 -54 -25 -82 -45 -195 -143 -208 -368 -27 -452
112 -52 227 -23 327 82 78 82 91 111 90 198 0 65 -4 75 -38 125 -22 32 -54 63
-76 74 -42 21 -143 31 -194 18z m140 -52 c50 -13 113 -71 127 -115 26 -78 -18
-196 -98 -262 -72 -60 -104 -71 -182 -63 -77 8 -116 27 -160 77 -30 35 -32 40
-28 103 3 59 9 74 50 136 48 72 81 99 152 121 51 16 90 17 139 3z"/>
<path d="M7633 5393 c-43 -22 -73 -84 -73 -150 0 -44 4 -54 35 -86 40 -42 50
-43 122 -22 55 16 90 49 113 104 17 41 0 98 -41 137 -36 34 -108 42 -156 17z
m110 -53 c53 -42 40 -120 -26 -160 -44 -27 -68 -25 -100 8 -20 20 -27 39 -27
66 0 49 14 73 53 90 45 20 70 19 100 -4z"/>
<path d="M7630 5280 c-27 -27 -22 -60 11 -79 24 -13 29 -13 53 3 23 14 27 23
24 54 -3 34 -6 37 -35 40 -22 2 -38 -3 -53 -18z"/>
<path d="M10066 4511 c-16 -25 18 -54 64 -55 16 -1 31 -12 45 -33 19 -30 43
-41 58 -27 3 4 -6 22 -21 40 -19 24 -35 34 -55 34 -16 0 -38 10 -53 25 -28 28
-30 29 -38 16z"/>
<path d="M8962 4390 c-67 -63 27 -174 129 -153 31 6 79 55 79 80 0 8 -17 33
-39 54 -35 36 -43 39 -93 39 -41 0 -60 -5 -76 -20z m119 -27 c32 -19 34 -25
19 -53 -25 -47 -115 -27 -102 23 12 50 35 58 83 30z"/>
<path d="M10374 4134 c-8 -32 14 -86 26 -64 4 8 11 32 15 53 6 33 5 37 -14 37
-14 0 -23 -8 -27 -26z"/>
<path d="M9128 3949 c-19 -10 -62 -79 -72 -115 -5 -18 2 -28 36 -53 38 -28 48
-31 88 -25 25 3 55 16 68 27 44 41 18 128 -48 162 -34 17 -48 18 -72 4z m92
-80 c6 -11 10 -32 8 -47 -2 -21 -9 -28 -32 -30 -15 -2 -41 2 -57 8 -39 17 -38
50 2 84 34 29 59 24 79 -15z"/>
<path d="M9407 3431 c-27 -4 -56 -16 -68 -27 -20 -20 -20 -21 -1 -44 23 -29
141 -62 194 -53 30 4 38 10 43 33 4 16 1 37 -7 49 -12 20 -77 52 -101 50 -6
-1 -33 -5 -60 -8z m93 -49 c36 -29 19 -41 -40 -29 -70 14 -67 37 6 46 7 0 22
-7 34 -17z"/>
<path d="M9811 3002 c-53 -9 -72 -70 -34 -113 29 -34 142 -51 174 -26 46 35
50 86 9 120 -29 25 -80 32 -149 19z m103 -55 c9 -15 7 -22 -13 -38 -26 -22
-54 -18 -84 11 -17 16 -18 18 -2 34 23 22 84 18 99 -7z"/>
<path d="M10210 2712 c-36 -17 -50 -46 -32 -64 6 -6 17 -6 32 2 15 8 25 9 33
1 7 -7 2 -14 -17 -22 -37 -17 -27 -33 24 -37 51 -4 89 10 121 44 31 33 18 54
-47 76 -63 21 -72 21 -114 0z"/>
<path d="M10447 2423 c-4 -3 -7 -18 -7 -32 1 -25 1 -25 15 -7 23 30 15 63 -8
39z"/>
<path d="M10490 2360 c0 -5 5 -10 11 -10 5 0 7 5 4 10 -3 6 -8 10 -11 10 -2 0
-4 -4 -4 -10z"/>
<path d="M4161 5170 c-12 -42 -25 -51 -35 -25 -7 18 -40 20 -54 2 -6 -7 -12
-46 -14 -87 -3 -86 10 -80 -133 -60 -67 9 -101 9 -130 1 -30 -8 -42 -8 -54 3
-15 12 -101 13 -461 4 -42 -1 -58 -6 -71 -22 -17 -20 -17 -20 -51 -2 -33 18
-37 18 -58 3 -20 -14 -25 -14 -44 -1 -20 12 -41 11 -184 -16 -158 -28 -289
-63 -386 -101 -27 -10 -53 -19 -58 -19 -6 0 -89 -42 -185 -92 -96 -51 -187
-99 -201 -107 -15 -8 -70 -42 -122 -76 -52 -35 -112 -72 -133 -84 -65 -36
-318 -234 -397 -311 -41 -40 -94 -90 -118 -111 -23 -21 -61 -60 -83 -86 -88
-103 -311 -323 -328 -323 -10 0 -24 14 -33 33 -8 17 -50 72 -91 120 -75 87
-197 257 -197 274 0 8 -78 128 -180 278 -23 33 -82 123 -132 200 -50 77 -95
144 -102 148 -15 11 -93 2 -111 -13 -24 -20 -18 -42 26 -105 22 -32 45 -69 50
-83 5 -13 22 -42 38 -65 15 -23 34 -59 40 -79 7 -21 16 -40 21 -43 12 -7 60
-95 60 -109 0 -15 107 -188 143 -231 14 -17 50 -80 81 -140 31 -61 63 -117 71
-126 14 -15 71 -112 130 -224 114 -214 151 -278 191 -323 24 -27 44 -58 44
-67 0 -23 -81 -135 -122 -169 -18 -15 -90 -64 -159 -107 -132 -83 -179 -131
-179 -184 0 -36 39 -49 99 -35 217 49 361 85 388 97 39 16 63 17 63 3 0 -25
-105 -165 -169 -227 -76 -74 -90 -108 -47 -119 27 -6 128 10 188 32 118 42
326 94 375 94 46 0 69 -8 157 -55 57 -30 116 -61 132 -69 37 -20 270 -108 354
-134 36 -12 119 -37 185 -58 205 -63 226 -82 189 -173 -15 -34 -27 -48 -49
-55 -17 -5 -51 -17 -77 -27 -29 -12 -58 -17 -77 -13 -24 5 -31 3 -31 -10 0
-23 -17 -20 -23 6 -6 20 -7 21 -33 4 -19 -13 -29 -15 -37 -7 -22 22 -36 9 -63
-59 -27 -68 -36 -80 -49 -60 -12 19 -35 10 -50 -20 l-16 -30 -50 26 c-28 14
-73 28 -100 31 -41 5 -49 3 -49 -11 0 -9 7 -19 15 -22 27 -11 16 -22 -30 -28
-57 -9 -65 -23 -30 -54 l29 -25 -22 -18 c-23 -18 -23 -18 -3 -29 11 -6 31 -8
45 -4 35 8 41 -12 11 -38 -25 -23 -61 -129 -51 -154 3 -7 21 -17 40 -24 45
-14 48 -37 4 -32 -16 3 -24 -25 -16 -56 9 -33 10 -33 50 -27 l41 7 -7 -41 c-3
-24 -2 -41 3 -41 5 0 17 -7 26 -16 15 -15 17 -15 35 1 27 24 25 35 -4 35 -31
0 -37 17 -19 54 12 24 13 30 1 37 -7 5 -20 7 -28 4 -50 -14 -69 -15 -74 -6 -4
6 -2 11 5 11 6 0 29 16 50 35 22 19 44 35 49 35 6 0 10 5 10 10 0 6 -17 10
-37 10 -53 0 -83 10 -83 26 0 8 4 14 8 14 5 0 17 7 28 15 18 15 17 16 -13 10
-18 -4 -33 -4 -33 -1 0 13 66 46 92 46 15 0 30 5 33 10 9 14 -33 12 -77 -4
-61 -22 -44 8 42 73 l31 23 -62 39 c-61 37 -63 43 -14 51 12 2 21 12 23 26 5
31 31 28 97 -9 l55 -31 11 26 c9 19 17 25 31 20 13 -4 25 3 39 21 14 17 27 24
39 20 12 -4 26 5 44 30 21 27 33 34 47 30 12 -4 21 -1 25 9 9 23 29 20 46 -6
l15 -22 28 28 c28 28 44 23 45 -11 0 -7 11 -13 25 -13 27 0 25 1 131 -170 32
-52 66 -104 76 -116 28 -31 22 -44 -19 -44 -49 0 -74 -15 -41 -24 22 -6 23 -7
3 -18 -22 -12 -35 -28 -35 -42 0 -4 11 -1 25 8 13 9 44 16 68 16 52 0 57 -8
57 -107 0 -35 4 -63 8 -63 12 0 34 49 27 60 -3 5 -1 19 4 32 6 15 5 31 -1 42
-7 12 -7 21 0 28 13 13 46 -43 67 -114 17 -59 38 -75 48 -38 7 25 -6 71 -27
102 -19 27 -20 38 -3 38 6 0 29 -27 51 -60 21 -33 41 -60 45 -60 9 1 60 84 72
120 9 23 8 38 0 57 -26 57 34 55 99 -3 22 -20 42 -48 46 -67 3 -18 9 -36 11
-41 8 -12 23 15 23 39 0 30 -48 99 -83 120 -35 21 -136 47 -149 39 -4 -3 -8
-1 -8 4 0 23 61 28 125 11 38 -11 97 -59 107 -89 3 -8 9 -12 12 -8 11 10 -23
75 -47 91 -12 7 -49 23 -82 34 -51 17 -65 18 -95 8 -81 -28 -75 -30 -99 27
-13 29 -28 62 -33 72 -6 11 -12 31 -14 45 -10 74 -10 74 19 82 15 4 55 28 89
53 44 33 67 44 84 40 23 -6 87 28 114 62 13 16 13 17 0 9 -8 -4 -23 -15 -33
-24 -17 -14 -20 -14 -32 3 -13 18 -16 17 -65 -19 -28 -21 -53 -35 -56 -32 -8
8 105 147 119 147 6 0 21 10 34 22 26 24 31 13 8 -18 -22 -29 -18 -44 10 -44
14 0 28 -6 31 -14 8 -21 59 -5 84 26 15 19 31 28 51 28 16 0 29 -3 29 -7 0
-16 -33 -41 -47 -36 -12 5 -14 1 -9 -14 3 -10 0 -27 -7 -37 -12 -17 -112 -62
-252 -113 -38 -14 -77 -32 -85 -39 -22 -21 4 -18 50 6 40 20 100 29 70 10 -23
-14 -4 -23 20 -10 18 10 20 14 9 21 -7 4 -11 10 -9 13 13 12 125 56 144 55 21
0 21 0 -1 -11 -38 -18 -26 -29 13 -13 57 24 74 19 39 -11 l-30 -25 45 6 c25 4
57 15 72 26 15 10 30 19 33 19 12 0 3 -25 -21 -57 -20 -26 -22 -33 -9 -33 8 0
33 27 54 60 39 60 96 130 106 130 17 0 -2 -38 -56 -109 -34 -45 -65 -83 -68
-86 -4 -2 -43 -13 -87 -25 -43 -12 -83 -28 -87 -36 -4 -8 -22 -14 -38 -14 -20
0 -29 -4 -26 -12 6 -17 70 -10 80 8 7 12 12 12 22 4 10 -8 24 -8 52 -1 21 6
57 11 79 11 26 0 51 7 67 20 14 11 28 20 31 20 12 0 6 -28 -9 -40 -24 -20 -46
-70 -32 -75 60 -18 64 -16 101 35 32 45 80 79 94 66 11 -11 -103 -128 -130
-133 -38 -8 -47 -24 -11 -21 16 1 34 -1 40 -5 8 -5 22 7 37 32 33 51 86 90 86
62 0 -5 -23 -34 -50 -65 -38 -41 -64 -59 -103 -72 -33 -12 -45 -19 -33 -22 10
-2 45 6 78 18 77 28 96 11 27 -24 -32 -16 -34 -34 -5 -46 29 -11 34 -25 11
-34 -26 -9 -18 -36 11 -36 19 0 25 -4 22 -17 -2 -12 -13 -18 -28 -18 -20 0
-24 -4 -22 -21 2 -17 -5 -24 -28 -33 -17 -6 -29 -15 -26 -20 8 -12 83 5 124
30 31 18 52 18 52 1 0 -4 -20 -20 -45 -37 -24 -16 -45 -36 -45 -42 0 -16 3
-16 47 2 41 17 43 18 43 7 0 -4 -15 -16 -32 -27 -18 -10 -37 -25 -41 -32 -7
-11 -15 -10 -43 8 -19 12 -37 19 -40 16 -3 -3 2 -30 12 -61 19 -59 13 -84 -11
-49 -20 28 -82 66 -95 58 -7 -4 -7 -13 1 -26 15 -28 3 -36 -21 -14 -26 24 -33
16 -19 -24 6 -18 9 -35 5 -38 -5 -5 -35 26 -58 61 -4 6 -10 8 -13 4 -10 -10
26 -88 41 -88 7 0 18 -9 24 -19 14 -26 13 -38 -2 -23 -7 7 -21 12 -32 12 -14
1 -34 20 -59 55 -21 30 -42 55 -47 55 -10 0 -16 -49 -12 -112 1 -21 0 -38 -2
-38 -2 0 -18 29 -35 65 -16 36 -34 65 -39 65 -4 0 -14 -41 -21 -90 -7 -50 -17
-88 -21 -85 -5 3 -21 28 -37 56 l-27 50 -24 -40 c-25 -42 -42 -53 -42 -26 0 8
-13 29 -29 47 -26 29 -32 31 -49 21 -18 -11 -23 -7 -48 30 -38 57 -43 29 -6
-36 23 -41 35 -52 55 -52 28 0 67 -30 67 -52 0 -23 -30 -73 -44 -73 -7 0 -21
18 -31 40 -21 47 -34 50 -62 12 -17 -24 -146 -102 -167 -102 -3 0 -6 15 -6 34
0 63 -42 60 -86 -7 -49 -74 -37 -20 15 71 28 48 51 93 51 100 0 18 -18 15 -29
-6 -9 -16 -11 -16 -24 2 -17 24 -39 13 -90 -43 -20 -23 -39 -41 -42 -41 -3 0
-4 24 -3 53 3 47 1 52 -19 55 -16 2 -27 -7 -44 -38 -26 -46 -39 -47 -52 -4 -5
16 -11 35 -13 42 -3 11 -11 9 -37 -7 l-32 -20 -21 26 -21 27 -47 -28 c-46 -27
-94 -30 -68 -4 7 7 12 21 12 31 0 17 -5 19 -45 13 -36 -6 -45 -4 -45 7 0 8 7
17 15 21 8 3 15 12 15 21 0 12 -12 14 -57 12 -63 -3 -111 -23 -96 -38 6 -6 20
-6 37 1 62 23 91 -1 41 -34 -47 -31 -16 -50 40 -24 19 9 28 9 37 0 9 -9 6 -19
-11 -43 -26 -34 -23 -46 8 -30 30 16 39 -8 11 -29 -31 -23 -18 -40 31 -40 43
0 51 -18 24 -54 -8 -11 -15 -23 -15 -28 0 -14 55 -9 78 8 30 20 36 14 20 -20
-9 -20 -9 -32 -1 -45 7 -11 8 -23 2 -32 -13 -21 -11 -29 10 -29 10 0 26 11 35
25 18 28 46 34 46 10 0 -19 2 -19 61 6 37 16 52 19 63 10 10 -8 19 -5 40 14
34 32 53 32 68 0 13 -29 16 -30 42 -10 17 13 22 13 38 -2 15 -13 23 -14 44 -4
22 9 30 9 43 -3 18 -16 106 -11 129 7 22 17 34 -6 39 -76 l6 -66 -44 -12 c-49
-14 -92 -15 -159 -4 -80 12 -214 -54 -144 -71 44 -11 165 3 242 29 85 28 96
22 87 -44 -11 -79 -28 -130 -46 -140 -11 -5 -151 -12 -316 -15 -164 -3 -302
-9 -307 -14 -5 -5 -6 -16 -2 -26 5 -14 15 -16 64 -10 82 8 780 9 827 0 22 -4
50 -14 63 -22 15 -10 45 -15 85 -13 154 4 191 4 327 -3 80 -3 169 -11 199 -16
44 -8 59 -7 78 5 50 33 27 43 -112 50 -55 3 -104 10 -109 15 -13 13 23 13 273
0 140 -7 211 -15 260 -30 68 -20 124 -19 166 3 25 14 124 10 285 -10 152 -19
209 -21 211 -8 5 29 -88 43 -326 51 -49 1 -109 6 -133 9 -23 4 -48 3 -55 -2
-15 -12 -134 -7 -207 8 -61 12 -156 21 -240 21 -43 0 -238 0 -370 0 -8 0 -64
-5 -123 -11 -136 -14 -305 -6 -329 16 -21 19 -24 81 -7 149 12 46 12 46 48 40
20 -4 74 -9 121 -12 101 -7 185 16 185 51 0 18 -8 20 -80 23 -51 2 -101 -3
-140 -13 -33 -9 -74 -15 -90 -13 -27 3 -30 7 -33 45 -4 49 14 123 30 123 6 0
26 -14 45 -30 41 -36 49 -37 57 -5 7 27 34 33 54 13 9 -9 18 -9 37 0 21 10 33
9 62 -3 59 -25 106 -16 70 13 -7 6 -19 7 -26 3 -16 -10 -81 8 -81 23 0 6 5 18
10 26 8 12 13 11 33 -8 26 -24 46 -30 28 -8 -8 10 -9 16 -2 21 7 4 5 15 -5 31
-9 13 -14 27 -11 31 4 3 9 -2 13 -11 3 -9 14 -16 24 -16 9 0 30 -10 45 -21 20
-17 29 -19 35 -10 5 10 23 5 70 -19 66 -33 85 -33 55 0 -18 20 -17 20 9 20 23
0 26 3 21 20 -8 25 0 25 32 0 14 -11 29 -17 34 -14 5 3 6 34 3 70 -6 52 -4 64
8 64 8 0 19 -5 24 -10 8 -8 14 -6 23 3 9 11 8 21 -6 44 -17 30 -17 30 20 67
20 20 43 36 50 36 8 0 28 5 44 10 25 9 29 15 25 35 -3 20 0 25 17 25 28 0 27
16 -4 36 -29 19 -32 34 -8 34 13 0 14 3 5 12 -18 18 -15 25 18 37 28 9 43 41
20 41 -5 0 -10 7 -10 15 0 8 14 17 36 21 31 6 35 10 31 30 -3 18 4 30 29 49
19 14 34 31 34 38 0 7 12 34 25 62 26 53 22 65 -25 65 -31 0 -120 31 -120 42
0 4 7 5 15 2 20 -8 45 13 45 39 0 17 -5 19 -45 15 -48 -6 -60 7 -30 32 8 7 15
17 15 22 0 6 -7 7 -15 4 -8 -3 -22 -9 -30 -12 -26 -11 -16 12 10 24 25 11 25
13 9 36 -19 30 -89 66 -128 66 -23 0 -25 3 -17 18 8 15 4 23 -19 40 -16 12
-38 22 -50 22 -11 0 -19 3 -19 8 3 20 -4 21 -33 6 -58 -30 -92 -62 -123 -113
-22 -38 -35 -51 -52 -51 -13 0 -23 3 -23 6 0 3 29 43 65 89 36 45 65 90 65 99
0 8 9 20 20 26 10 6 17 16 14 24 -6 15 -91 11 -109 -5 -14 -14 -49 -11 -71 6
-10 8 -27 15 -36 15 -10 0 -18 7 -18 16 0 13 -7 15 -31 10 -28 -5 -30 -4 -23
16 6 21 5 20 -25 -5 -18 -15 -45 -30 -59 -33 -15 -3 -33 -7 -39 -10 -18 -5
-16 17 3 45 21 29 7 45 -28 32 -15 -5 -29 -15 -33 -20 -3 -6 -24 -11 -46 -11
-22 0 -50 -5 -62 -11 -32 -17 -108 -88 -141 -132 -15 -21 -31 -35 -34 -33 -7
8 19 87 35 107 7 8 13 19 13 24 0 5 17 33 37 63 47 68 82 86 323 168 218 74
278 96 305 111 11 6 45 18 75 28 30 10 79 32 108 49 111 64 148 85 172 98 26
13 147 83 166 96 50 33 119 87 179 139 112 99 341 346 393 426 26 40 62 92 80
116 18 24 32 48 32 54 0 22 65 137 78 137 7 0 21 -4 31 -10 14 -7 23 -5 36 10
10 11 22 20 27 20 6 0 25 14 44 32 l34 32 -21 22 -21 22 21 11 c25 14 26 37 4
108 -16 52 -16 54 3 72 10 10 39 23 64 30 25 7 110 44 189 83 133 64 150 70
240 80 53 5 100 14 105 18 23 22 -11 30 -127 30 -68 0 -158 4 -202 10 -44 5
-113 11 -152 12 -69 3 -85 12 -52 29 89 48 253 120 337 149 58 20 107 40 109
46 3 10 -73 45 -127 59 -14 3 -34 10 -45 14 -58 24 -137 34 -292 40 -189 7
-191 8 -235 80 -12 20 -46 62 -75 94 -62 68 -63 58 10 204 28 56 48 105 45
109 -4 3 -24 -8 -45 -25 -34 -28 -63 -40 -63 -26 0 3 9 35 21 71 12 36 19 68
15 71 -3 3 -24 -13 -47 -36 -45 -45 -67 -43 -49 3 13 34 13 86 0 86 -5 0 -16
-13 -25 -30 -22 -43 -38 -38 -30 8 7 44 -11 68 -45 59 -13 -3 -21 1 -26 16 -6
19 -8 19 -19 4 -14 -19 -25 -12 -25 14 0 20 -5 24 -41 32 -23 6 -27 3 -38 -33z
m113 -149 c5 -12 18 -21 28 -21 10 0 21 -8 24 -17 3 -10 10 -25 15 -33 5 -8
13 -25 19 -37 11 -27 35 -30 49 -6 16 29 22 9 12 -43 -8 -40 -6 -52 6 -66 15
-17 15 -18 -1 -18 -10 0 -41 21 -69 46 -67 60 -136 99 -214 120 -35 9 -63 22
-63 28 0 21 31 56 50 56 10 0 21 3 24 8 2 4 28 7 57 6 44 -2 55 -6 63 -23z
m-814 -75 l55 -13 -107 0 c-106 -1 -149 12 -65 20 23 2 47 4 52 5 6 1 35 -5
65 -12z m210 -6 c0 -5 -7 -10 -15 -10 -8 0 -15 5 -15 10 0 6 7 10 15 10 8 0
15 -4 15 -10z m-440 -8 c0 -10 -268 -47 -277 -38 -11 11 2 15 88 30 96 16 189
20 189 8z m562 -4 c-8 -8 -17 -8 -34 0 -22 10 -21 11 12 11 26 1 31 -2 22 -11z
m-1007 -28 c-3 -5 -12 -10 -20 -10 -8 0 -17 5 -20 10 -4 6 5 10 20 10 15 0 24
-4 20 -10z m1321 -26 c50 -20 68 -23 74 -14 6 9 16 6 41 -11 19 -13 40 -32 47
-41 7 -10 19 -18 25 -18 7 -1 26 -18 44 -38 83 -97 159 -192 194 -244 22 -31
44 -60 50 -64 7 -4 75 -9 153 -10 211 -5 474 -43 483 -70 2 -5 -29 -20 -69
-33 -40 -13 -113 -41 -163 -63 -49 -22 -103 -43 -120 -48 -16 -4 -46 -15 -66
-23 -48 -21 -273 -72 -384 -88 -49 -7 -163 -15 -252 -18 -101 -4 -166 -10
-173 -17 -19 -19 -7 -48 24 -62 24 -12 34 -12 72 3 106 40 320 65 526 60 66
-1 120 3 143 11 38 13 257 11 345 -4 l44 -7 -129 -62 c-72 -34 -143 -64 -160
-68 -16 -4 -58 -16 -93 -27 -72 -23 -75 -27 -128 -189 -15 -46 -31 -88 -35
-93 -5 -6 -9 -17 -9 -26 0 -30 -96 -213 -164 -311 -36 -54 -89 -122 -118 -152
-29 -30 -81 -86 -116 -126 -60 -68 -253 -242 -318 -288 -96 -67 -259 -171
-356 -226 -26 -15 -84 -41 -130 -58 -255 -93 -312 -112 -417 -139 -64 -16
-177 -48 -251 -70 -262 -80 -224 -77 -358 -31 -64 22 -142 44 -172 50 -225 45
-669 223 -678 272 -2 12 26 25 120 57 68 22 150 48 182 57 33 9 127 44 210 77
83 33 158 60 166 61 8 0 17 3 20 7 3 5 52 28 110 53 141 60 412 186 426 198 7
5 40 24 75 40 225 109 445 308 573 517 29 47 63 55 104 26 24 -17 64 -21 98
-10 14 4 30 -1 47 -14 28 -22 128 -60 159 -60 34 0 18 17 -23 24 -23 4 -55 14
-72 22 -24 13 -27 18 -16 26 8 5 10 11 4 14 -80 37 -162 94 -177 123 -9 19
-22 39 -27 44 -6 6 -11 21 -11 34 0 26 -15 31 -24 7 -5 -13 -11 -11 -40 13
-41 34 -45 47 -11 39 40 -10 29 9 -15 27 -32 12 -40 21 -40 40 0 32 -9 57 -21
57 -5 0 -9 -10 -9 -22 l0 -22 -21 20 c-11 12 -31 44 -44 73 l-25 52 48 -6 c44
-6 46 -5 28 9 -11 9 -28 16 -37 16 -20 0 -33 31 -24 59 6 21 -10 38 -20 21 -3
-5 -11 -10 -16 -10 -16 0 -49 81 -49 121 0 45 -21 77 -37 57 -16 -19 8 -104
50 -181 19 -34 37 -75 41 -92 11 -45 70 -146 105 -179 45 -44 41 -60 -21 -75
-37 -8 -53 -8 -58 -1 -14 22 -113 61 -141 55 -21 -5 -27 -2 -32 14 -8 31 -76
46 -123 26 -34 -14 -36 -14 -41 5 -7 27 -35 26 -158 -6 -55 -14 -119 -29 -143
-34 -24 -5 -51 -14 -60 -19 -31 -19 22 -13 125 14 102 27 144 26 121 -3 -12
-14 -9 -15 20 -9 23 5 32 3 32 -7 0 -8 9 -16 21 -19 17 -5 20 -12 17 -43 -3
-34 -7 -39 -45 -52 -54 -17 -56 -32 -3 -25 22 3 40 2 40 -3 0 -16 -42 -94 -51
-94 -6 0 -7 15 -3 35 3 19 4 35 2 35 -2 0 -21 -23 -42 -50 -57 -74 -80 -83
-221 -87 -66 -1 -122 -3 -125 -3 -3 0 3 -5 12 -11 10 -5 53 -12 96 -16 80 -6
155 9 209 43 12 8 24 10 28 5 6 -11 -4 -41 -15 -41 -4 0 -41 -25 -83 -55 -99
-72 -157 -97 -232 -99 -79 -2 -108 -19 -45 -26 l45 -6 -30 -13 c-16 -7 -51
-24 -76 -37 -26 -13 -58 -24 -72 -24 -13 0 -30 -7 -37 -15 -7 -9 -21 -13 -34
-9 -12 3 -30 -2 -41 -11 -19 -16 -19 -16 8 -10 20 4 28 2 25 -6 -7 -21 -227
-93 -393 -128 -44 -10 -96 -23 -115 -29 -34 -10 -165 -29 -262 -37 -40 -3 -48
-1 -48 13 0 9 43 77 95 149 52 73 95 137 95 143 0 21 -20 9 -52 -31 -18 -23
-69 -82 -113 -131 -44 -49 -94 -111 -112 -136 -73 -106 -126 -172 -139 -172
-18 0 -103 108 -204 260 -177 266 -225 346 -317 534 -84 170 -128 245 -233
396 -48 69 -104 159 -125 200 -20 41 -59 112 -86 156 -27 45 -49 89 -49 98 0
25 23 19 57 -16 42 -44 123 -165 123 -183 0 -7 5 -17 10 -20 30 -18 120 -150
149 -218 19 -43 37 -80 42 -82 4 -3 29 -38 55 -78 73 -112 154 -215 212 -270
49 -47 52 -52 36 -64 -10 -7 -32 -13 -48 -13 -29 -1 -30 -2 -12 -15 10 -7 15
-18 12 -24 -9 -14 0 -18 91 -36 80 -16 82 -16 132 5 52 23 79 45 67 57 -4 4
-22 -1 -41 -11 -39 -21 -115 -37 -115 -25 0 5 11 11 24 15 14 3 27 12 30 20 3
8 14 14 24 14 22 0 42 19 42 39 0 11 -4 11 -19 -3 -27 -25 -84 -27 -89 -4 -2
12 83 107 264 293 247 255 362 360 504 461 30 21 75 54 99 72 69 52 114 72
157 68 35 -3 63 -26 32 -26 -7 0 -30 -14 -51 -31 -29 -24 -35 -34 -27 -44 8
-10 8 -19 0 -35 -20 -37 -1 -35 39 4 22 21 48 43 59 50 16 9 97 68 167 121 10
8 25 15 31 15 7 0 16 5 20 11 4 8 0 9 -15 4 -12 -3 -21 -2 -21 3 0 18 124 79
172 85 25 4 51 8 56 9 6 2 11 -1 13 -7 2 -5 -16 -21 -40 -34 -34 -19 -47 -21
-66 -13 -18 8 -27 7 -42 -4 -17 -14 -17 -15 5 -9 12 4 22 2 22 -2 0 -17 -65
-71 -115 -97 -27 -14 -71 -40 -96 -58 -212 -151 -273 -208 -224 -208 19 0 19
-9 -2 -32 -30 -34 -3 -32 32 2 46 44 57 31 16 -20 l-32 -40 35 17 c20 10 36
23 36 29 0 14 58 59 153 119 81 51 109 75 88 75 -7 0 -59 -32 -117 -72 -81
-56 -107 -69 -116 -60 -9 9 -9 12 -1 12 7 0 38 22 69 50 61 53 193 130 224
130 11 0 29 10 42 23 24 23 104 55 114 44 13 -12 -10 -28 -97 -68 -49 -23 -89
-46 -89 -50 0 -5 2 -9 4 -9 7 0 123 53 244 111 131 64 283 119 325 119 14 0
29 5 33 12 12 18 -76 2 -187 -35 -54 -18 -99 -30 -99 -26 0 18 214 99 261 99
10 0 19 7 19 15 0 19 1 19 -82 -6 -39 -11 -73 -18 -76 -14 -8 8 16 24 48 31
14 3 39 11 55 19 50 23 70 23 73 -2 4 -25 12 -29 28 -14 5 6 55 13 112 17 143
10 142 26 -2 22 -64 -2 -116 -2 -116 0 0 11 77 32 115 32 26 0 79 5 118 11 57
8 76 16 93 35 21 25 21 25 197 25 100 0 177 4 177 10 0 19 -57 21 -233 11
-175 -11 -211 -15 -340 -41 -56 -12 -129 -11 -97 1 147 54 404 75 892 71 264
-2 268 -2 334 -29z m-1376 16 c0 -5 -4 -10 -10 -10 -5 0 -10 5 -10 10 0 6 5
10 10 10 6 0 10 -4 10 -10z m200 0 c0 -10 -68 -26 -76 -17 -4 3 -3 10 1 16 8
14 75 15 75 1z m-95 -21 c10 -15 6 -17 -55 -25 -43 -5 -53 -4 -43 6 6 7 26 16
45 20 47 11 46 11 53 -1z m-209 -14 c-11 -8 -29 -15 -40 -15 -12 0 -70 -20
-130 -45 -61 -25 -117 -44 -125 -42 -18 4 131 77 157 77 10 0 26 6 37 14 24
16 50 23 90 25 28 0 29 0 11 -14z m234 -40 c0 -9 -9 -15 -21 -15 -30 0 -191
-45 -288 -80 -93 -34 -98 -35 -82 -16 19 22 107 57 236 91 141 38 155 40 155
20z m200 5 c0 -5 -7 -10 -16 -10 -8 0 -12 5 -9 10 3 6 10 10 16 10 5 0 9 -4 9
-10z m50 0 c0 -5 -7 -10 -15 -10 -8 0 -15 5 -15 10 0 6 7 10 15 10 8 0 15 -4
15 -10z m-470 -9 c0 -5 -10 -11 -22 -14 -13 -3 -78 -26 -146 -51 -120 -45
-170 -56 -157 -36 3 6 13 10 21 10 8 0 57 18 109 40 118 50 195 70 195 51z
m-330 -71 c0 -5 -4 -10 -10 -10 -5 0 -10 5 -10 10 0 6 5 10 10 10 6 0 10 -4
10 -10z m410 1 c0 -5 -16 -12 -36 -15 -19 -4 -43 -10 -51 -13 -11 -4 -14 -2
-9 5 12 20 96 40 96 23z m-110 -31 c0 -5 -5 -10 -11 -10 -5 0 -7 5 -4 10 3 6
8 10 11 10 2 0 4 -4 4 -10z m-330 -14 c0 -6 -110 -76 -120 -76 -20 0 1 20 53
50 49 28 67 35 67 26z m300 0 c0 -3 -4 -8 -10 -11 -5 -3 -10 -1 -10 4 0 6 5
11 10 11 6 0 10 -2 10 -4z m-40 -16 c0 -5 -4 -10 -10 -10 -5 0 -10 5 -10 10 0
6 5 10 10 10 6 0 10 -4 10 -10z m70 -29 c0 -12 -89 -40 -96 -30 -5 9 51 37 79
38 9 1 17 -3 17 -8z m-130 -6 c0 -2 -21 -16 -47 -29 -38 -20 -43 -25 -25 -26
36 0 21 -23 -21 -32 -83 -17 -265 -117 -394 -216 -23 -17 -33 -20 -33 -10 0
18 109 98 250 183 162 98 270 150 270 130z m10 -41 c0 -8 -5 -12 -10 -9 -6 4
-8 11 -5 16 9 14 15 11 15 -7z m-387 -20 c-21 -16 -43 -18 -43 -4 0 6 9 10 20
10 11 0 20 5 20 11 0 5 5 7 11 4 6 -5 4 -12 -8 -21z m397 -24 c0 -5 -5 -10
-11 -10 -5 0 -7 5 -4 10 3 6 8 10 11 10 2 0 4 -4 4 -10z m-472 -22 c-2 -6 -10
-14 -16 -16 -7 -2 -10 2 -6 12 7 18 28 22 22 4z m2 -48 c-8 -5 -17 -7 -19 -4
-3 3 1 9 9 14 8 5 17 7 19 4 3 -3 -1 -9 -9 -14z m955 -571 c-4 -5 8 -9 24 -9
48 0 36 -17 -19 -29 -55 -12 -90 -14 -90 -6 0 8 36 42 56 53 20 11 38 6 29 -9z
m66 -75 c-18 -8 -31 -17 -28 -20 7 -7 115 15 139 27 9 5 24 6 34 2 16 -6 16
-7 -1 -19 -19 -14 -20 -13 54 -40 8 -2 38 1 68 7 53 12 81 6 53 -11 -8 -5 -16
-24 -17 -42 -2 -18 -4 -48 -5 -65 -2 -18 -13 -45 -25 -60 -13 -16 -36 -49 -52
-74 -34 -54 -164 -165 -272 -233 -111 -69 -345 -164 -362 -147 -16 16 1 29 66
50 70 24 94 37 85 46 -6 6 -96 -25 -176 -60 -34 -15 -62 -19 -62 -9 0 24 105
79 225 120 39 12 108 39 155 60 47 20 100 42 119 49 18 7 36 17 40 22 3 6 28
21 54 33 74 35 156 153 145 207 -3 12 -8 5 -17 -22 -22 -65 -129 -164 -197
-181 -16 -4 -46 -20 -68 -36 -44 -31 -102 -39 -92 -12 5 12 -5 9 -38 -10 -25
-14 -54 -26 -65 -26 -12 0 -21 -4 -21 -10 0 -11 -60 -44 -67 -36 -9 9 8 25 21
20 17 -6 29 26 20 50 -3 9 -2 16 4 16 6 0 12 -6 15 -12 7 -22 39 13 33 35 -4
18 -3 19 10 5 14 -13 21 -12 71 14 54 28 79 30 55 6 -14 -14 -16 -28 -3 -28 4
0 28 17 52 38 40 35 61 48 136 86 13 6 23 14 23 17 0 4 15 29 34 57 19 27 32
52 29 55 -3 4 -28 -19 -55 -49 -36 -38 -71 -64 -124 -89 -69 -33 -199 -85
-212 -85 -4 0 23 30 60 68 61 62 92 112 70 112 -5 0 -18 -12 -27 -27 -23 -37
-67 -83 -78 -83 -5 0 14 42 42 94 55 102 64 131 31 101 -20 -18 -20 -17 -20
13 0 76 17 88 130 90 l45 0 -34 -14z m299 -14 c-8 -5 -22 -10 -30 -10 -13 0
-13 1 0 10 8 5 22 10 30 10 13 0 13 -1 0 -10z m1391 -40 c10 -32 10 -45 0 -63
-7 -13 -11 -31 -9 -39 2 -13 -64 -78 -80 -78 -10 0 8 92 27 138 10 26 22 55
25 65 9 29 25 19 37 -23z m-1316 20 c3 -5 1 -10 -4 -10 -6 0 -11 5 -11 10 0 6
2 10 4 10 3 0 8 -4 11 -10z m25 -49 c0 -5 -7 -11 -15 -15 -9 -3 -15 0 -15 9 0
8 7 15 15 15 8 0 15 -4 15 -9z m30 -51 c0 -6 -7 -13 -15 -16 -20 -8 -48 3 -40
16 8 13 55 13 55 0z m85 -50 c3 -5 1 -10 -4 -10 -6 0 -11 5 -11 10 0 6 2 10 4
10 3 0 8 -4 11 -10z m-175 -19 c0 -6 -4 -12 -9 -15 -5 -3 -23 -30 -39 -59 -31
-53 -102 -130 -102 -109 0 6 20 35 44 65 24 29 51 70 61 90 16 33 45 51 45 28z
m-2510 -41 c0 -5 -4 -10 -9 -10 -6 0 -13 5 -16 10 -3 6 1 10 9 10 9 0 16 -4
16 -10z m1950 -34 c-15 -29 -40 -42 -40 -21 0 18 39 59 48 51 3 -3 -1 -17 -8
-30z m-50 -54 c0 -16 -32 -52 -46 -52 -19 0 -18 25 2 44 16 17 44 22 44 8z
m460 -76 c0 -3 -4 -8 -10 -11 -5 -3 -10 -1 -10 4 0 6 5 11 10 11 6 0 10 -2 10
-4z m-526 -43 c-16 -12 -42 -23 -58 -23 -17 0 -46 -11 -65 -24 -40 -27 -82
-37 -88 -20 -2 7 7 14 20 18 13 3 37 16 52 28 29 23 142 58 159 49 5 -2 -4
-15 -20 -28z m437 -51 c-7 -2 -42 -30 -79 -62 -60 -53 -178 -127 -188 -118 -2
2 22 22 52 44 61 42 110 80 176 133 29 23 44 29 47 20 2 -7 -1 -15 -8 -17z
m-521 -52 c-18 -11 -24 -6 -16 16 5 14 9 15 19 5 9 -9 9 -14 -3 -21z m-75 -45
c-17 -14 -29 -33 -27 -43 2 -13 1 -14 -6 -4 -8 12 -15 11 -41 -2 -17 -9 -31
-23 -31 -31 0 -8 -4 -15 -10 -15 -5 0 -10 4 -10 9 0 5 -13 3 -30 -5 -32 -16
-60 -10 -41 9 20 20 186 105 206 106 17 0 16 -3 -10 -24z m-311 -10 c-4 -8
-10 -15 -15 -15 -5 0 -9 7 -9 15 0 8 7 15 15 15 9 0 12 -6 9 -15z m158 -7 c6
-17 -140 -91 -167 -84 -12 3 -36 1 -53 -5 -18 -6 -37 -7 -46 -2 -12 6 -3 15
37 34 51 26 107 51 137 62 28 10 88 7 92 -5z m218 -53 c0 -9 -9 -15 -24 -15
-13 0 -26 -6 -29 -14 -4 -9 -14 -12 -26 -9 -12 3 -28 0 -36 -7 -12 -10 -15 -9
-15 8 0 16 12 23 58 35 74 20 72 19 72 2z m-515 -5 c-3 -5 -11 -10 -16 -10 -6
0 -7 5 -4 10 3 6 11 10 16 10 6 0 7 -4 4 -10z m-57 -67 c-3 -19 -22 -30 -118
-66 -36 -14 -123 -47 -195 -75 -71 -27 -152 -55 -180 -61 -27 -7 -54 -16 -60
-20 -5 -5 -59 -23 -120 -40 -60 -18 -120 -36 -132 -41 -23 -10 -53 -4 -53 10
0 17 59 70 78 70 67 0 400 98 492 145 27 14 62 25 78 25 16 0 64 16 108 35 90
39 107 42 102 18z m282 8 c0 -13 -38 -21 -102 -21 -70 0 -77 17 -10 23 94 7
112 7 112 -2z m420 0 c0 -5 -30 -21 -67 -36 -38 -14 -106 -47 -153 -73 -100
-55 -158 -82 -174 -82 -6 0 -28 -9 -49 -20 -20 -11 -74 -31 -120 -45 -45 -14
-125 -39 -177 -55 -52 -17 -124 -40 -160 -50 -36 -11 -89 -27 -117 -36 -29 -8
-61 -14 -70 -11 -25 6 88 57 212 96 141 44 166 53 290 105 61 26 145 58 188
71 44 14 98 36 121 50 24 14 56 25 73 25 16 0 52 12 79 26 71 39 124 53 124
35z m-630 -5 c0 -3 -4 -8 -10 -11 -5 -3 -10 -1 -10 4 0 6 5 11 10 11 6 0 10
-2 10 -4z m-343 -32 c2 -5 -32 -22 -75 -37 -42 -16 -99 -38 -127 -49 -57 -23
-284 -70 -297 -62 -14 9 33 82 61 93 14 5 53 12 86 15 117 10 231 26 280 40
54 15 67 15 72 0z m763 7 c0 -5 -12 -13 -27 -19 -16 -5 -65 -24 -110 -41 -45
-17 -89 -31 -98 -31 -9 0 -33 -11 -53 -25 -20 -14 -43 -25 -50 -25 -7 0 -57
-18 -110 -39 -131 -53 -574 -201 -603 -201 -7 0 -36 -9 -64 -19 -47 -18 -174
-56 -340 -101 -45 -12 -73 -16 -79 -10 -15 15 3 26 54 38 25 5 100 26 168 46
68 20 132 36 143 36 11 0 34 8 52 17 18 9 48 20 67 24 19 4 73 21 120 37 47
17 105 37 130 45 206 67 410 142 485 177 50 23 104 48 120 55 17 8 57 17 90
21 33 3 67 10 75 15 20 11 30 11 30 0z m-1590 -42 c0 -10 -7 -19 -15 -19 -15
0 -21 31 -9 43 11 10 24 -3 24 -24z m1154 12 c8 -12 33 -2 -424 -158 -439
-149 -550 -184 -562 -177 -19 12 -5 23 40 33 75 16 404 127 532 179 41 16 126
47 189 67 62 20 127 43 145 51 36 15 72 18 80 5z m176 -1 c0 -26 -144 -82
-500 -195 -135 -42 -263 -83 -285 -90 -22 -7 -94 -30 -160 -50 -66 -20 -155
-48 -199 -61 -43 -14 -80 -23 -82 -21 -3 2 -2 11 1 20 6 14 62 34 220 80 28 8
70 22 95 31 40 14 333 110 545 179 44 14 108 33 143 41 34 8 79 24 99 36 19
11 52 25 72 29 50 12 51 12 51 1z m400 -19 c0 -12 -28 -22 -34 -12 -3 5 -3 11
1 15 9 9 33 7 33 -3z m-1780 -46 c0 -8 -7 -15 -15 -15 -26 0 -18 20 13 29 1 1
2 -6 2 -14z m90 1 c0 -15 -38 -29 -53 -19 -12 7 20 33 40 33 7 0 13 -6 13 -14z
m28 -44 c2 -7 -7 -12 -22 -12 -27 0 -35 15 -13 23 17 7 30 3 35 -11z m-170
-23 c-2 -6 -8 -10 -13 -10 -5 0 -11 4 -13 10 -2 6 4 11 13 11 9 0 15 -5 13
-11z m116 -10 c19 -15 34 -19 55 -14 16 3 32 2 35 -4 4 -6 -3 -13 -16 -15 -23
-5 -235 -46 -252 -49 -17 -3 -12 54 6 70 17 15 18 15 18 0 0 -10 -4 -17 -10
-17 -5 0 -10 -4 -10 -10 0 -13 44 -12 102 3 61 16 75 32 21 23 -33 -5 -43 -3
-43 7 0 8 3 17 7 20 13 14 61 6 87 -14z m1436 -14 c-7 -9 -15 -13 -17 -11 -7
7 7 26 19 26 6 0 6 -6 -2 -15z m-1653 -60 c-15 -14 -38 -25 -50 -25 -20 0 -20
2 8 25 17 13 39 24 50 24 18 0 17 -2 -8 -24z m308 15 c-3 -5 -15 -10 -26 -10
-11 0 -17 5 -14 10 3 6 15 10 26 10 11 0 17 -4 14 -10z m-135 -29 c0 -12 -39
-21 -45 -11 -3 5 1 11 7 13 21 9 38 8 38 -2z m173 -6 c-2 -12 -66 -29 -185
-50 -49 -9 -95 -18 -103 -21 -8 -4 -15 -2 -15 4 0 6 35 18 78 27 42 9 102 24
132 35 58 20 96 22 93 5z m-368 -45 c-3 -6 -17 -7 -30 -4 -12 3 -26 1 -30 -5
-3 -6 -11 -9 -16 -5 -19 11 3 24 42 24 24 0 38 -4 34 -10z m-100 -55 c-22 -8
-51 -14 -64 -14 -37 -1 -13 17 29 22 65 7 75 5 35 -8z m445 5 c0 -5 -5 -10
-11 -10 -5 0 -7 5 -4 10 3 6 8 10 11 10 2 0 4 -4 4 -10z m560 -19 c0 -5 -7
-14 -15 -21 -16 -14 -18 -10 -9 14 6 17 24 22 24 7z m-40 -20 c0 -13 -217 -83
-239 -78 -20 4 27 27 129 60 85 27 110 31 110 18z m-272 -83 c-3 -7 -29 -18
-59 -24 -30 -6 -105 -26 -166 -45 -62 -18 -115 -30 -119 -27 -11 11 6 28 28
28 12 0 76 15 142 34 178 50 179 51 174 34z m1296 -545 l-56 -103 -47 0 c-58
0 -69 -8 -95 -62 -26 -53 -40 -55 -44 -7 -2 29 8 57 52 135 l55 99 78 28 c43
15 85 32 93 37 33 21 19 -28 -36 -127z m187 -32 c-12 -14 -46 -59 -76 -98 -36
-48 -62 -73 -75 -73 -27 0 -26 5 16 75 60 100 144 176 152 137 2 -8 -5 -26
-17 -41z m347 -31 c-23 -29 -55 -47 -65 -37 -11 12 9 43 45 70 30 23 38 26 40
13 2 -9 -7 -29 -20 -46z m106 -1 c-32 -33 -34 -34 -34 -14 0 20 38 57 51 49 7
-4 0 -18 -17 -35z m-92 -44 c-15 -25 -33 -45 -39 -45 -19 0 -16 9 20 56 41 54
54 47 19 -11z m182 -106 c-31 -33 -70 -43 -41 -11 10 10 17 24 17 30 0 7 9 12
21 12 11 0 17 5 14 10 -3 6 -3 16 2 23 5 8 9 5 11 -12 3 -15 -6 -33 -24 -52z
m-874 -36 c0 -20 -41 -27 -57 -10 -14 14 -13 19 8 48 l23 33 13 -30 c6 -16 12
-34 13 -41z m1090 37 c0 -15 -40 -32 -58 -25 -14 6 -11 10 13 21 37 16 45 17
45 4z m-990 -10 c0 -5 -5 -10 -11 -10 -5 0 -7 5 -4 10 3 6 8 10 11 10 2 0 4
-4 4 -10z m-540 -4 c0 -2 -3 -11 -6 -20 -9 -23 -24 -20 -24 4 0 11 7 20 15 20
8 0 15 -2 15 -4z m1342 -56 c-23 -23 -28 -25 -34 -11 -4 10 3 24 20 38 37 31
48 8 14 -27z m-842 2 c0 -13 -12 -22 -22 -16 -10 6 -1 24 13 24 5 0 9 -4 9 -8z
m630 -7 c-82 -17 -103 -17 -65 0 17 8 53 14 80 14 l50 -1 -65 -13z m355 -76
c-10 -10 -22 -16 -26 -13 -5 3 -9 0 -9 -5 0 -6 -5 -11 -11 -11 -6 0 4 19 23
42 26 33 34 38 36 24 2 -9 -4 -26 -13 -37z m-990 21 c-10 -11 -22 -20 -27 -20
-5 0 -4 9 2 20 6 11 18 20 27 20 14 0 14 -2 -2 -20z m790 -1 c-4 -5 -13 -9
-22 -9 -13 0 -13 3 -3 15 13 15 35 11 25 -6z m-735 -2 c0 -8 -11 -19 -25 -25
-38 -18 -41 -15 -15 13 26 28 40 32 40 12z m1054 4 c7 -10 -58 -70 -77 -72
-16 -2 -41 2 -46 7 -8 7 32 44 48 44 9 0 25 7 35 15 23 17 33 19 40 6z m-1034
-61 c15 -27 5 -54 -24 -70 -30 -16 -49 -5 -40 23 6 19 5 20 -9 9 -18 -15 -32
0 -23 25 4 10 14 13 30 9 16 -4 26 -1 30 9 8 21 23 19 36 -5z m1024 -25 c17
-13 17 -14 -10 -20 -68 -15 -71 -26 -14 -51 42 -19 50 -31 25 -40 -12 -5 -11
-9 7 -23 21 -17 20 -18 -54 -53 -42 -20 -86 -39 -98 -43 -19 -6 -20 -5 -11 12
5 11 17 25 25 33 9 7 16 18 16 24 -1 13 -65 56 -85 56 -8 0 -17 5 -20 10 -3 6
1 10 9 10 8 0 28 16 43 35 22 28 35 35 63 35 19 0 44 7 54 15 24 18 26 18 50
0z m106 -41 c0 -12 -21 -44 -30 -44 -5 0 -21 5 -37 11 l-28 11 25 13 c25 14
70 20 70 9z m-1102 -16 c7 -7 12 -22 12 -34 0 -26 17 -34 73 -34 47 0 87 -30
87 -65 0 -25 -19 -86 -31 -99 -4 -4 -17 10 -28 33 -22 42 -76 88 -130 111 -38
15 -48 43 -27 75 18 28 27 30 44 13z m1088 -83 c14 -54 -50 -106 -108 -88
l-33 10 28 12 c16 6 39 11 52 11 23 0 40 27 34 56 -6 33 18 32 27 -1z m-285
-28 c-13 -13 -26 -3 -16 12 3 6 11 8 17 5 6 -4 6 -10 -1 -17z m-926 3 c-3 -5
-15 -10 -25 -10 -10 0 -22 5 -25 10 -4 6 7 10 25 10 18 0 29 -4 25 -10z m1119
-89 c4 -5 -21 -18 -54 -29 -48 -17 -60 -18 -60 -7 0 28 100 60 114 36z m26
-51 c0 -5 -16 -10 -36 -10 -21 0 -33 4 -29 10 3 6 19 10 36 10 16 0 29 -4 29
-10z m-100 -40 c-20 -13 -33 -13 -25 0 3 6 14 10 23 10 15 0 15 -2 2 -10z m30
-30 c0 -12 -28 -25 -36 -17 -9 9 6 27 22 27 8 0 14 -5 14 -10z m-61 -61 c20
-16 23 -24 14 -37 -17 -28 -39 -25 -78 9 -27 24 -33 34 -23 40 23 15 62 9 87
-12z m-83 -35 c30 -26 54 -55 54 -65 0 -16 -4 -17 -42 -6 -38 11 -43 17 -59
65 -10 28 -15 52 -12 52 2 0 29 -21 59 -46z m198 40 c31 -12 16 -24 -29 -24
-25 0 -45 4 -45 9 0 17 45 26 74 15z m-25 -53 c8 -5 9 -11 3 -15 -14 -8 -43 4
-36 15 7 11 15 11 33 0z m-250 -70 c59 -68 63 -83 21 -74 -28 5 -30 3 -30 -23
0 -51 -30 -4 -40 62 -4 32 -11 67 -15 77 -14 34 14 16 64 -42z m107 -35 c22
-17 11 -35 -13 -20 -19 12 -29 34 -16 34 5 0 18 -6 29 -14z m-1440 -41 c7 -27
15 -30 45 -15 18 10 19 7 19 -39 0 -27 4 -61 10 -76 9 -25 11 -25 34 -9 52 33
44 1 -11 -47 l-58 -51 -6 32 c-4 17 -3 47 1 65 9 39 7 40 -39 24 -39 -14 -62
0 -42 25 10 12 9 16 -6 24 -10 5 -24 7 -30 5 -24 -9 -24 25 -1 49 41 44 75 49
84 13z m1144 -49 c15 -40 12 -56 -10 -56 -21 0 -28 16 -10 22 6 2 2 20 -10 43
-11 21 -20 46 -20 53 0 19 36 -27 50 -62z m-920 19 c0 -43 -1 -45 -28 -45 -15
0 -43 -11 -62 -25 -25 -19 -36 -22 -42 -12 -11 17 -10 79 2 97 9 15 9 16 25
-35 8 -26 33 -16 66 25 18 22 34 40 36 40 2 0 3 -20 3 -45z m760 5 c16 -32 18
-45 10 -61 -17 -31 -44 -20 -48 20 -3 34 4 81 13 81 3 0 14 -18 25 -40z m238
10 c25 -32 22 -50 -7 -50 -27 0 -43 24 -35 54 8 33 13 32 42 -4z m-868 -19 c0
-49 -72 -145 -104 -137 -11 3 -30 -4 -44 -15 -34 -26 -42 -24 -42 11 0 24 10
37 53 69 28 21 68 55 86 75 19 20 39 36 43 36 4 0 8 -17 8 -39z m509 -8 c7
-21 15 -43 17 -50 3 -7 -2 -10 -15 -6 -16 4 -21 1 -21 -16 0 -24 -22 -28 -40
-6 -10 12 -16 13 -27 3 -13 -10 -14 -8 -11 12 2 19 8 24 25 22 26 -4 36 11 35
49 -1 42 23 36 37 -8z m207 -10 c-11 -11 -19 6 -11 24 8 17 8 17 12 0 3 -10 2
-21 -1 -24z m334 7 c0 -5 -4 -10 -9 -10 -6 0 -13 5 -16 10 -3 6 1 10 9 10 9 0
16 -4 16 -10z m-90 -24 c0 -3 -4 -8 -10 -11 -5 -3 -10 -1 -10 4 0 6 5 11 10
11 6 0 10 -2 10 -4z m106 -63 c-11 -12 -56 28 -56 50 1 20 3 20 31 -11 17 -19
28 -36 25 -39z m-206 32 c0 -8 -7 -15 -15 -15 -8 0 -15 7 -15 15 0 8 7 15 15
15 8 0 15 -7 15 -15z m110 -15 c0 -5 -4 -10 -10 -10 -5 0 -10 5 -10 10 0 6 5
10 10 10 6 0 10 -4 10 -10z m-48 -27 c28 -25 21 -35 -12 -18 -17 9 -28 20 -25
25 9 14 16 12 37 -7z m-511 -201 c-11 -70 -23 -162 -26 -204 l-7 -78 -38 0
c-21 0 -41 4 -44 9 -3 5 2 64 10 132 9 68 18 133 19 144 11 86 19 106 46 121
16 8 34 24 41 37 13 22 13 22 16 -6 2 -16 -6 -86 -17 -155z m251 126 c-6 -6
-15 -7 -22 -3 -8 5 -6 13 7 27 16 18 18 19 21 3 2 -9 -1 -22 -6 -27z m-92 -3
c0 -16 -6 -25 -15 -25 -21 0 -31 30 -14 41 23 14 29 11 29 -16z m140 -175 c12
-8 13 -11 1 -19 -23 -15 -100 -21 -128 -10 l-28 11 40 13 c49 16 95 18 115 5z
m-610 -35 c0 -11 -12 -15 -44 -15 -76 0 -69 28 7 29 27 1 37 -3 37 -14z m584
-234 c6 -9 -103 -22 -118 -13 -5 3 -1 9 10 13 27 11 102 11 108 0z m196 -1 c0
-5 -4 -10 -9 -10 -6 0 -13 5 -16 10 -3 6 1 10 9 10 9 0 16 -4 16 -10z"/>
<path d="M3520 4808 c0 -11 57 -10 64 1 3 5 -10 9 -29 8 -19 -1 -35 -5 -35 -9z"/>
<path d="M3165 4730 c3 -5 8 -10 11 -10 2 0 4 5 4 10 0 6 -5 10 -11 10 -5 0
-7 -4 -4 -10z"/>
<path d="M3770 4731 c-106 -35 -169 -95 -200 -189 -44 -140 -15 -254 78 -301
87 -44 308 -52 374 -14 40 23 98 117 98 159 0 17 7 53 15 79 13 44 12 53 -5
103 -37 105 -116 157 -250 166 -47 3 -96 2 -110 -3z m238 -104 c23 -23 42 -56
53 -93 62 -199 -141 -342 -351 -248 -40 18 -67 37 -80 59 -39 63 -17 189 45
262 32 38 77 59 159 77 5 1 39 -3 74 -10 52 -10 72 -19 100 -47z"/>
<path d="M3797 4568 c-37 -13 -69 -78 -70 -140 -1 -66 31 -102 86 -95 80 11
117 62 117 161 0 45 -4 58 -22 70 -25 18 -69 19 -111 4z m88 -28 c3 -5 -12
-18 -33 -29 -59 -30 -71 -84 -27 -119 32 -25 32 -32 -3 -32 -40 0 -52 17 -52
73 0 42 5 54 34 83 33 33 69 44 81 24z"/>
<path d="M3195 4700 c-3 -5 3 -10 14 -10 11 0 23 5 26 10 3 6 -3 10 -14 10
-11 0 -23 -4 -26 -10z"/>
<path d="M3070 4691 c0 -16 20 -23 46 -17 36 9 29 26 -11 26 -19 0 -35 -4 -35
-9z"/>
<path d="M3215 4630 c-8 -12 20 -24 35 -15 5 3 10 10 10 16 0 12 -37 12 -45
-1z"/>
<path d="M2595 4535 c-33 -14 -65 -25 -71 -25 -17 0 -76 -31 -70 -37 7 -7 216
69 216 79 0 12 -10 10 -75 -17z"/>
<path d="M2550 4474 c-44 -16 -74 -34 -54 -34 14 0 146 39 152 45 11 11 -55 3
-98 -11z"/>
<path d="M2725 4450 c-10 -11 -15 -23 -12 -27 8 -7 47 25 47 39 0 14 -16 9
-35 -12z"/>
<path d="M2430 4425 c-14 -8 -19 -14 -10 -14 8 0 26 6 40 14 14 8 19 14 10 14
-8 0 -26 -6 -40 -14z"/>
<path d="M2675 4400 c-3 -5 -1 -10 4 -10 6 0 11 5 11 10 0 6 -2 10 -4 10 -3 0
-8 -4 -11 -10z"/>
<path d="M2242 4360 c-34 -16 -84 -44 -110 -62 -26 -18 -71 -47 -100 -65 -56
-34 -190 -143 -191 -155 -2 -21 30 -3 74 42 27 28 53 50 58 50 5 0 22 11 39
25 28 24 58 33 58 18 0 -5 -16 -21 -36 -36 -19 -16 -33 -31 -30 -34 6 -6 109
57 114 70 2 4 54 33 115 64 62 31 107 58 100 60 -11 4 -66 -21 -166 -75 -57
-32 -87 -40 -87 -23 0 13 18 25 125 81 55 28 104 56 110 61 17 17 -9 10 -73
-21z"/>
<path d="M2170 4207 c-89 -44 -153 -87 -129 -87 8 0 28 9 45 19 l32 19 -1 -33
c-1 -29 -8 -37 -64 -71 -34 -22 -62 -45 -63 -52 0 -6 45 18 100 54 55 37 100
73 100 80 0 7 9 18 21 24 29 16 18 23 -16 10 -16 -6 -35 -8 -44 -5 -10 4 4 15
43 35 32 17 65 30 72 30 7 0 16 5 19 10 13 21 -33 8 -115 -33z"/>
<path d="M1944 4106 c-38 -32 -27 -42 11 -11 17 13 27 26 24 30 -4 3 -20 -5
-35 -19z"/>
<path d="M1986 4091 c-10 -11 -15 -25 -11 -30 3 -6 -2 -11 -13 -11 -24 0 -72
-37 -72 -56 0 -8 4 -14 9 -14 18 0 101 72 101 88 0 10 5 23 12 30 7 7 8 12 2
12 -6 0 -19 -9 -28 -19z"/>
<path d="M2020 4070 c0 -5 5 -10 10 -10 6 0 10 5 10 10 0 6 -4 10 -10 10 -5 0
-10 -4 -10 -10z"/>
<path d="M1885 4050 c-3 -5 -2 -10 4 -10 5 0 13 5 16 10 3 6 2 10 -4 10 -5 0
-13 -4 -16 -10z"/>
<path d="M2635 3978 c-27 -5 -61 -12 -74 -14 -15 -3 -20 -9 -14 -15 15 -15
213 14 213 32 0 11 -57 10 -125 -3z"/>
<path d="M2285 3956 c-44 -13 -102 -34 -130 -48 -168 -85 -219 -118 -183 -118
8 0 21 7 28 15 7 8 20 15 30 15 14 0 16 -7 12 -50 l-5 -50 33 11 c27 10 30 13
16 21 -21 12 -21 71 -1 92 32 32 163 87 243 103 45 9 82 20 82 25 0 13 -39 8
-125 -16z"/>
<path d="M1930 3750 c0 -20 25 -38 36 -27 8 7 -15 47 -26 47 -6 0 -10 -9 -10
-20z"/>
<path d="M1955 3689 c-27 -11 -60 -17 -72 -14 -29 7 -73 -30 -73 -62 0 -16
-12 -30 -40 -48 -22 -14 -41 -33 -42 -43 0 -9 -2 -22 -2 -29 -1 -7 -20 -32
-43 -55 -54 -55 -85 -131 -45 -109 9 5 38 12 65 16 29 5 47 12 47 21 0 21 -19
26 -41 10 -12 -8 -27 -12 -35 -9 -36 14 51 86 119 98 20 4 37 10 37 14 0 4 16
15 36 25 44 20 38 33 -7 17 -39 -13 -99 -15 -99 -2 0 5 18 23 39 40 22 18 41
42 43 54 2 18 18 27 81 48 43 15 84 32 90 38 15 15 1 13 -58 -10z"/>
<path d="M2670 3686 c-14 -8 -44 -20 -67 -27 -49 -14 -59 -34 -12 -24 36 8
139 52 139 60 0 10 -35 4 -60 -9z"/>
<path d="M690 3661 c0 -11 45 -41 62 -41 7 1 0 12 -17 25 -32 26 -45 31 -45
16z"/>
<path d="M1955 3636 c-25 -10 -27 -13 -11 -19 10 -4 26 -1 38 7 27 19 10 27
-27 12z"/>
<path d="M3694 3542 c4 -7 23 -19 43 -27 42 -18 43 -18 43 -6 0 5 -12 14 -27
19 -16 5 -37 13 -47 18 -14 5 -17 4 -12 -4z"/>
<path d="M3820 3485 c-7 -8 -24 -15 -39 -16 -55 -2 39 -30 107 -32 61 -2 67 0
67 18 0 16 -6 19 -28 17 -15 -2 -39 4 -52 12 -30 20 -39 20 -55 1z"/>
<path d="M2214 3455 c-10 -8 -14 -14 -9 -15 15 0 40 18 34 24 -3 3 -14 -1 -25
-9z"/>
<path d="M883 3425 c5 -13 51 -18 94 -10 54 10 38 20 -32 20 -39 0 -64 -4 -62
-10z"/>
<path d="M2338 3424 c-16 -8 -28 -19 -28 -24 0 -6 -16 -10 -35 -10 -38 0 -83
-19 -104 -44 -7 -8 -45 -27 -84 -42 -40 -15 -76 -32 -82 -37 -23 -20 129 31
171 58 11 7 41 19 65 25 38 10 159 76 159 86 0 9 -37 2 -62 -12z"/>
<path d="M2015 3352 c-11 -2 -29 -11 -40 -18 -11 -8 -27 -14 -37 -14 -10 0
-18 -7 -18 -15 0 -12 11 -10 57 10 31 14 59 28 62 30 8 8 -3 11 -24 7z"/>
<path d="M930 3310 c0 -5 18 -10 40 -10 22 0 40 5 40 10 0 6 -18 10 -40 10
-22 0 -40 -4 -40 -10z"/>
<path d="M1577 3294 c-4 -4 -7 -17 -7 -28 0 -12 -20 -44 -45 -71 -60 -64 -53
-80 9 -21 30 28 62 48 82 52 41 8 44 21 7 26 -19 2 -29 10 -33 26 -3 13 -8 20
-13 16z"/>
<path d="M2972 3050 c-28 -27 -28 -54 1 -67 29 -13 44 -7 62 27 13 25 12 29
-4 44 -23 21 -33 20 -59 -4z m40 -42 c-15 -15 -26 -4 -18 18 5 13 9 15 18 6 9
-9 9 -15 0 -24z"/>
<path d="M3149 2882 c-26 -22 -22 -43 16 -68 31 -20 55 -5 55 35 0 49 -32 64
-71 33z m51 -37 c-12 -15 -30 -12 -30 6 0 5 10 9 21 9 18 0 19 -2 9 -15z"/>
<path d="M3310 2770 c-16 -16 -18 -25 -10 -40 13 -24 55 -27 64 -4 11 27 7 43
-14 54 -15 8 -24 6 -40 -10z m40 -20 c0 -5 -4 -10 -10 -10 -5 0 -10 5 -10 10
0 6 5 10 10 10 6 0 10 -4 10 -10z"/>
<path d="M3472 2708 c-7 -7 -12 -20 -12 -30 0 -23 52 -25 70 -3 25 30 -30 61
-58 33z"/>
<path d="M3300 3740 c0 -5 6 -10 14 -10 8 0 18 5 21 10 3 6 -3 10 -14 10 -12
0 -21 -4 -21 -10z"/>
<path d="M9059 3074 c-19 -23 1 -49 37 -49 34 0 43 24 19 49 -21 20 -39 20
-56 0z"/>
<path d="M8932 3028 c-7 -7 -12 -25 -12 -41 0 -28 2 -29 33 -23 45 9 62 34 40
58 -19 21 -44 23 -61 6z"/>
<path d="M8817 2994 c-14 -14 -7 -54 12 -64 28 -15 71 21 55 47 -11 19 -54 29
-67 17z"/>
<path d="M8677 2972 c-21 -23 -22 -56 -1 -76 21 -21 47 -20 67 2 23 26 21 58
-5 76 -29 21 -41 20 -61 -2z"/>
<path d="M2990 1845 c-16 -9 -19 -14 -9 -15 8 0 24 7 35 15 24 18 7 19 -26 0z"/>
<path d="M2890 1810 c-24 -15 -7 -19 25 -5 23 10 25 14 10 14 -11 0 -27 -3
-35 -9z"/>
<path d="M3045 1813 c-28 -4 -56 -11 -216 -57 -31 -9 -69 -16 -85 -16 -46 0
-61 -17 -17 -18 21 0 121 21 223 48 163 43 193 56 95 43z"/>
<path d="M3140 1700 c0 -12 37 -12 65 0 15 7 10 9 -22 9 -24 1 -43 -3 -43 -9z"/>
<path d="M3120 1660 c-13 -8 -12 -10 3 -10 9 0 17 5 17 10 0 12 -1 12 -20 0z"/>
<path d="M2158 1569 c-16 -6 -28 -15 -28 -21 0 -6 7 -7 18 -3 34 15 137 16
190 2 53 -14 69 -7 30 14 -29 16 -176 21 -210 8z"/>
<path d="M2071 1500 c-39 -38 -51 -60 -32 -60 5 0 16 11 25 25 9 13 26 33 38
44 12 12 19 23 16 26 -3 3 -24 -13 -47 -35z"/>
<path d="M3260 791 c0 -9 -9 -11 -31 -6 -47 11 -27 -12 22 -25 50 -14 60 -6
31 23 -14 13 -22 16 -22 8z"/>
<path d="M11754 429 c-3 -6 -1 -16 5 -22 8 -8 11 -5 11 11 0 24 -5 28 -16 11z"/>
<path d="M4963 330 c-77 -3 -127 -10 -135 -18 -22 -22 6 -33 98 -39 75 -5 91
-3 103 11 17 20 47 20 126 -1 61 -16 65 -16 83 1 20 17 66 14 78 -5 12 -20 34
-8 34 17 0 22 2 25 15 14 8 -7 15 -18 15 -26 0 -10 8 -10 32 -3 18 5 50 9 70
9 37 0 57 15 42 30 -11 11 -391 17 -561 10z"/>
<path d="M6135 307 c-17 -13 -18 -17 -5 -32 11 -13 25 -16 62 -13 56 6 66 13
52 36 -14 22 -83 28 -109 9z"/>
<path d="M5850 301 c0 -17 34 -22 49 -6 14 13 12 15 -17 15 -18 0 -32 -4 -32
-9z"/>
</g>
</svg>
