<?xml version="1.0" standalone="no"?>
<!DOCTYPE svg PUBLIC "-//W3C//DTD SVG 20010904//EN"
 "http://www.w3.org/TR/2001/REC-SVG-20010904/DTD/svg10.dtd">
<svg version="1.0" xmlns="http://www.w3.org/2000/svg"
 width="1280.000000pt" height="736.000000pt" viewBox="0 0 1280.000000 736.000000"
 preserveAspectRatio="xMidYMid meet">
<metadata>
Created by potrace 1.15, written by Peter Selinger 2001-2017
</metadata>
<g transform="translate(0.000000,736.000000) scale(0.100000,-0.100000)"
fill="#000000" stroke="none">
<path d="M9164 7318 c-23 -24 -48 -61 -55 -83 -17 -52 -16 -51 -38 -31 -19 17
-21 17 -48 -3 -15 -11 -52 -27 -82 -34 -29 -7 -58 -21 -63 -31 -7 -12 -17 -16
-36 -11 -37 8 -238 -44 -451 -117 -46 -15 -93 -28 -104 -28 -29 0 -119 -28
-213 -65 -44 -18 -99 -36 -122 -40 -29 -4 -46 -14 -53 -28 -6 -12 -20 -31 -29
-42 -15 -16 -19 -43 -22 -145 -2 -88 -8 -135 -20 -160 -30 -63 -40 -111 -34
-153 7 -48 -3 -110 -34 -217 -11 -41 -25 -103 -29 -138 -8 -73 1 -85 61 -76
42 7 48 1 81 -100 25 -73 25 -81 12 -114 -17 -40 -19 -38 70 -127 28 -27 68
-71 90 -97 62 -74 94 -74 285 2 58 23 121 47 140 53 38 12 54 27 41 40 -6 6
-59 -8 -126 -34 -11 -4 -45 -13 -75 -19 -30 -7 -68 -18 -85 -26 -65 -30 -115
-28 -84 3 7 7 9 18 6 27 -8 20 -105 90 -164 118 -83 40 -60 78 48 78 57 0 61
10 27 70 -23 40 -58 58 -43 23 20 -47 13 -58 -42 -61 -54 -3 -61 3 -69 63 -1
11 -7 40 -13 65 -14 59 -14 60 4 60 8 0 15 7 15 16 0 11 -5 14 -17 9 -40 -15
-110 -18 -115 -4 -6 17 9 146 21 174 14 33 31 113 31 145 0 76 37 260 52 260
6 0 7 32 2 80 -6 70 -4 83 11 100 10 11 27 20 37 20 27 0 91 -72 145 -163 52
-87 58 -93 77 -78 8 7 18 11 22 10 26 -4 23 6 -17 50 -24 27 -55 66 -69 87
-14 21 -46 58 -72 83 -27 26 -48 51 -48 57 0 11 19 23 45 30 17 4 413 133 552
180 73 24 141 44 152 44 11 0 23 5 26 10 3 6 16 10 28 10 12 0 39 9 58 19 20
11 65 25 100 31 79 14 80 14 103 -117 10 -54 22 -112 27 -130 11 -36 27 -125
34 -193 3 -25 10 -74 15 -110 5 -36 12 -99 15 -141 l6 -76 -48 -38 c-63 -50
-243 -235 -243 -251 0 -7 -4 -14 -8 -16 -4 -1 -21 -20 -37 -41 -15 -21 -44
-45 -64 -53 -20 -8 -56 -34 -81 -58 -49 -48 -97 -76 -129 -76 -22 0 -61 74
-141 265 -23 55 -65 145 -94 200 -63 123 -60 115 -47 115 5 0 24 -20 41 -45
30 -43 69 -64 56 -29 -10 27 -107 152 -122 158 -8 3 -19 -5 -28 -22 -14 -26
-12 -31 16 -78 17 -27 58 -110 90 -184 75 -174 177 -379 202 -407 11 -13 29
-23 41 -23 37 0 110 55 231 175 65 64 123 120 129 125 9 7 11 -18 8 -98 -2
-59 -6 -116 -8 -128 -3 -12 -33 -39 -72 -65 -186 -123 -199 -134 -176 -137 13
-2 37 8 56 22 61 47 74 28 33 -45 -28 -48 -26 -59 9 -59 31 0 38 -12 25 -46
-13 -32 -9 -37 30 -37 19 0 41 9 58 26 37 35 52 34 93 -8 19 -19 42 -35 52
-35 19 0 18 9 18 -205 0 -77 -6 -185 -15 -240 -8 -55 -17 -122 -21 -150 -3
-27 -12 -84 -20 -125 -54 -277 -71 -348 -105 -450 -20 -63 -40 -127 -44 -141
-3 -14 -15 -36 -26 -49 -11 -13 -20 -29 -20 -37 0 -17 -121 -143 -137 -143 -7
0 -13 -4 -13 -9 0 -9 -153 -101 -169 -101 -18 0 -190 -119 -200 -139 -15 -28
-3 -54 23 -48 102 24 166 29 182 16 20 -17 14 -89 -18 -192 -15 -52 -18 -71
-9 -80 9 -9 16 -9 29 0 15 9 21 8 29 -6 17 -26 106 -27 144 -1 25 19 34 20 57
11 28 -12 52 -5 121 34 14 8 29 11 33 9 5 -3 8 -56 7 -117 -3 -132 10 -181 49
-194 70 -25 91 -29 144 -28 49 0 62 5 89 30 68 65 67 64 173 663 19 104 29
139 47 158 34 37 87 256 104 434 3 36 8 88 11 115 7 74 23 165 55 310 15 72
31 146 34 165 16 86 48 205 56 211 15 9 290 -86 349 -121 91 -54 169 -110 179
-129 13 -23 -22 -115 -148 -396 -10 -22 -35 -80 -54 -130 -109 -274 -142 -354
-163 -397 -13 -25 -28 -66 -34 -90 -6 -24 -12 -50 -14 -59 -3 -9 -17 -41 -32
-70 -31 -63 -85 -200 -121 -314 -15 -44 -39 -114 -54 -155 -15 -41 -43 -127
-63 -190 -20 -63 -49 -158 -65 -210 -16 -52 -37 -124 -46 -160 -9 -36 -22 -90
-30 -120 -16 -65 -30 -126 -44 -195 -6 -27 -15 -70 -20 -95 -5 -25 -12 -72
-16 -105 -4 -33 -11 -74 -16 -91 -5 -17 -14 -69 -19 -115 -4 -46 -15 -120 -24
-164 -9 -44 -20 -151 -26 -238 -5 -87 -12 -163 -16 -168 -3 -6 4 -22 17 -35
l23 -25 -28 -52 c-52 -93 -69 -109 -138 -129 -72 -22 -168 -44 -248 -57 -30
-6 -95 -17 -145 -27 -49 -9 -109 -18 -132 -21 -81 -9 -55 -61 44 -88 32 -9 78
-25 103 -35 38 -15 75 -18 243 -19 109 0 202 -3 208 -6 5 -4 9 -24 9 -45 0
-26 7 -47 23 -63 34 -37 117 -67 184 -67 l59 0 16 48 c9 26 21 70 27 97 6 28
22 97 36 154 14 57 25 118 25 135 1 44 26 156 38 168 9 9 372 13 403 4 116
-33 195 -49 295 -61 64 -7 352 -114 409 -152 11 -7 30 -13 42 -13 13 0 23 -4
23 -9 0 -5 24 -19 53 -31 28 -12 75 -32 102 -45 28 -12 70 -28 95 -35 25 -7
57 -21 72 -31 14 -11 33 -16 42 -13 9 3 23 0 32 -7 10 -8 38 -12 74 -11 40 2
75 -4 112 -18 30 -12 96 -25 152 -30 55 -5 103 -13 107 -17 7 -7 9 -39 8 -123
0 -14 1 -52 2 -85 2 -51 -4 -72 -35 -138 -36 -75 -40 -80 -151 -162 -63 -47
-122 -85 -131 -85 -9 0 -63 -22 -118 -49 -94 -46 -106 -49 -178 -50 -43 0 -81
-2 -86 -5 -4 -2 -69 0 -143 5 -73 5 -186 9 -249 9 -63 0 -137 0 -165 0 -27 0
-83 5 -123 11 -141 20 -362 13 -362 -11 0 -5 24 -16 53 -24 97 -28 189 -37
297 -30 58 3 112 7 120 7 8 0 81 -3 161 -7 126 -7 148 -5 162 8 20 20 31 20
64 -2 24 -15 60 -17 313 -19 157 -1 350 -5 430 -8 80 -4 181 -8 225 -9 44 -2
116 -10 160 -19 l80 -15 50 26 c50 25 50 25 23 34 l-26 9 44 82 c24 45 44 95
44 110 0 40 -28 95 -52 103 -17 5 -19 13 -16 55 1 27 -1 49 -5 49 -4 0 -5 101
-3 224 4 177 9 233 21 263 54 126 69 236 61 445 -4 95 -9 218 -11 273 -1 55
-7 143 -12 195 -5 52 -8 113 -6 135 2 22 3 58 1 80 -11 156 10 571 32 641 6
17 12 67 15 110 2 44 12 120 20 169 38 211 40 446 4 660 -22 136 -102 390
-160 505 -20 41 -67 135 -102 208 -36 72 -70 132 -75 132 -6 0 -15 14 -21 32
-6 17 -21 45 -34 62 -13 17 -29 51 -37 76 -15 49 -74 166 -96 191 -8 8 -14 22
-14 30 0 8 -30 46 -67 84 -54 56 -88 81 -163 119 -52 27 -124 68 -160 92 -85
55 -162 94 -189 94 -12 0 -29 9 -39 21 -21 26 -73 52 -135 69 -58 16 -167 84
-167 104 0 15 -98 86 -118 86 -10 0 -124 110 -230 223 -34 37 -67 67 -72 67
-5 0 -18 17 -29 38 -23 44 -125 146 -198 195 -70 49 -150 90 -161 83 -5 -3
-18 4 -28 16 -41 45 -99 60 -344 87 -83 9 -110 18 -110 35 0 6 24 32 54 58 37
33 66 71 95 127 l42 81 -3 117 c-3 106 -1 118 14 115 29 -5 31 34 4 75 -13 21
-30 57 -37 80 -7 24 -20 50 -31 59 -10 10 -18 30 -18 46 0 34 -20 76 -49 102
-12 11 -21 25 -21 32 0 20 -39 42 -85 49 -37 6 -43 4 -81 -37z m157 -68 c1
-14 1 -31 0 -38 -1 -8 5 -22 14 -32 21 -24 6 -92 -29 -129 -15 -15 -40 -53
-56 -85 -26 -50 -28 -57 -13 -63 11 -4 22 2 32 18 24 36 102 119 114 119 5 0
6 -9 2 -22 -5 -13 -9 -47 -10 -76 -1 -28 -10 -77 -20 -107 -22 -64 -14 -80 22
-41 35 38 47 22 39 -47 -5 -37 -18 -73 -41 -108 -19 -30 -41 -67 -49 -84 -8
-16 -36 -52 -62 -80 -59 -62 -66 -47 -29 61 l26 76 -22 24 c-30 32 -59 32 -59
0 0 -14 -4 -28 -10 -31 -6 -4 -10 8 -10 28 0 18 -3 37 -7 41 -5 4 -8 11 -9 14
0 4 -4 48 -8 97 -4 50 -14 113 -21 140 -19 68 -45 187 -45 204 0 17 128 143
139 137 5 -3 -2 -27 -15 -53 -13 -27 -24 -61 -24 -78 l0 -29 30 34 c17 19 38
49 47 65 27 48 26 8 -2 -74 -14 -41 -25 -85 -25 -99 0 -21 8 -15 50 39 27 35
50 70 50 77 0 11 -25 86 -45 134 -6 15 -4 16 19 5 17 -8 26 -21 27 -37z m44
-906 c39 -8 106 -19 150 -25 74 -10 185 -52 185 -69 0 -4 20 -15 45 -24 25
-10 45 -21 45 -24 0 -11 82 -50 119 -56 21 -4 51 -23 80 -51 25 -25 55 -53 67
-62 12 -10 31 -37 42 -60 22 -41 59 -76 73 -68 10 7 121 -133 114 -144 -3 -5
0 -13 6 -17 8 -5 9 -3 4 6 -5 9 -4 11 4 6 6 -4 9 -11 6 -16 -3 -5 20 -44 51
-87 31 -43 62 -90 70 -105 17 -34 28 -35 48 -6 15 21 16 21 37 3 17 -16 19
-27 15 -60 -5 -28 -2 -46 9 -60 14 -20 16 -19 44 15 l30 35 53 -27 c29 -15 78
-36 109 -47 30 -10 89 -38 130 -60 73 -41 85 -47 184 -93 204 -94 291 -169
363 -311 8 -16 22 -31 31 -34 9 -3 31 -20 49 -36 23 -23 32 -40 32 -63 0 -40
102 -243 166 -329 12 -16 32 -54 43 -83 12 -29 30 -65 41 -80 23 -32 49 -103
85 -235 15 -53 36 -114 46 -134 11 -21 19 -51 19 -68 0 -16 12 -84 26 -150 23
-106 26 -141 25 -308 0 -103 -4 -193 -8 -200 -4 -7 -11 -41 -15 -77 -4 -36
-12 -87 -16 -115 -5 -27 -17 -99 -26 -160 -9 -60 -21 -129 -26 -153 -6 -23
-10 -70 -10 -105 -1 -76 -13 -135 -35 -156 -10 -10 -42 -18 -88 -23 -40 -3
-94 -11 -122 -17 -27 -5 -72 -12 -100 -15 -27 -3 -66 -8 -86 -12 -21 -3 -52
-1 -73 6 -19 6 -102 15 -184 19 -110 6 -157 12 -182 25 -52 26 -274 96 -306
96 -15 0 -41 4 -58 9 -65 20 -215 50 -301 61 -49 7 -126 20 -170 30 -104 23
-333 33 -463 20 -94 -9 -207 -27 -304 -49 -46 -11 -64 4 -49 40 9 21 66 222
90 319 30 119 57 208 68 230 7 14 13 34 13 46 0 23 36 137 70 224 12 30 28 75
36 100 8 24 19 49 24 54 6 6 10 17 10 24 0 8 13 42 29 76 39 82 86 199 106
266 10 30 27 80 40 110 24 61 32 83 76 215 17 50 35 94 40 99 5 6 9 16 9 24 0
8 20 57 45 109 25 52 45 99 45 104 0 6 11 30 24 54 14 24 30 63 36 87 27 106
92 210 225 357 105 116 125 147 125 189 0 73 -25 97 -47 45 -7 -16 -34 -55
-60 -89 -46 -58 -60 -80 -110 -166 -40 -70 -115 -163 -132 -163 -26 0 -19 22
27 88 90 131 113 170 107 188 -5 14 0 22 18 28 53 20 109 122 105 189 l-3 47
-34 -65 c-18 -36 -51 -89 -72 -119 -22 -30 -39 -58 -39 -63 0 -5 -9 -21 -19
-36 -10 -15 -44 -73 -76 -130 l-56 -102 -72 41 c-98 55 -146 76 -257 111 -174
54 -185 60 -182 94 1 16 9 52 17 79 63 218 79 349 46 379 -18 17 -19 17 -25
-1 -2 -10 -8 -40 -11 -68 -4 -27 -13 -76 -21 -108 -8 -32 -19 -86 -24 -120
-17 -117 -28 -176 -34 -185 -3 -5 -8 -29 -10 -53 -3 -24 -13 -87 -22 -139 -8
-52 -20 -120 -24 -150 -5 -30 -13 -77 -19 -105 -6 -27 -18 -102 -26 -165 -8
-63 -22 -158 -30 -210 -9 -52 -20 -122 -24 -155 -5 -33 -16 -76 -24 -95 -8
-19 -18 -60 -22 -90 -4 -30 -11 -60 -16 -66 -10 -12 -141 -10 -161 2 -6 4 -7
29 -4 63 4 31 11 110 17 176 6 66 17 143 25 170 7 28 18 88 23 135 5 47 16
119 24 160 8 41 22 116 31 165 8 50 24 140 35 200 11 61 32 191 46 290 14 99
37 249 51 334 20 118 24 158 15 177 -6 13 -8 31 -5 39 4 8 3 22 0 31 -5 13 -9
14 -20 5 -9 -8 -16 -46 -21 -114 -3 -56 -13 -136 -20 -177 -22 -113 -24 -128
-36 -225 -14 -121 -13 -119 -44 -103 -73 38 -264 221 -320 306 -47 72 -59 124
-46 211 5 40 7 79 4 87 -3 7 2 37 11 66 8 29 22 78 30 108 13 47 27 66 89 128
111 109 187 164 217 157 14 -3 57 -13 95 -21z m796 -411 c13 -16 12 -17 -3 -4
-10 7 -18 15 -18 17 0 8 8 3 21 -13z m-1267 -232 c3 -4 12 -33 20 -62 8 -30
17 -62 21 -71 12 -30 -23 -21 -39 10 -20 38 -38 111 -31 122 8 12 22 13 29 1z
m1511 -45 c30 -30 55 -62 55 -71 0 -14 -3 -15 -14 -6 -18 15 -109 131 -102
131 3 0 30 -24 61 -54z m-1589 -12 c-5 -18 -10 -24 -17 -17 -6 6 -7 22 -3 37
4 18 10 24 17 17 5 -5 6 -22 3 -37z m307 -263 c23 -21 71 -59 107 -83 l65 -45
-1 -94 c-1 -84 -14 -175 -44 -307 -6 -23 -10 -58 -10 -78 0 -19 -11 -85 -24
-147 -25 -117 -45 -221 -53 -272 -2 -16 -11 -55 -19 -86 -8 -31 -14 -76 -14
-99 0 -24 -5 -60 -11 -80 -11 -35 -14 -38 -43 -34 -17 2 -70 6 -117 9 -110 8
-114 11 -94 62 9 22 17 51 19 64 2 13 6 35 9 49 3 14 16 70 27 125 12 55 31
136 42 180 11 43 21 91 23 105 2 14 10 55 18 90 33 138 57 376 57 558 0 76 4
122 10 122 6 0 29 -17 53 -39z m-230 -1341 c14 0 41 -7 60 -15 20 -8 59 -15
87 -15 60 0 71 -15 43 -57 -11 -15 -37 -54 -59 -86 -21 -32 -50 -75 -64 -97
-100 -155 -158 -235 -189 -264 -13 -11 -38 -35 -55 -52 -49 -48 -103 -84 -125
-84 -26 0 -26 8 -1 40 11 14 20 36 20 51 0 14 5 30 12 37 6 6 9 15 5 18 -11
11 -34 -14 -41 -44 -7 -31 -43 -78 -53 -68 -3 3 -1 16 5 29 15 28 34 118 27
125 -2 3 -11 -10 -19 -29 -8 -19 -27 -56 -41 -82 -37 -65 -55 -48 -24 22 18
44 21 63 16 123 -3 39 -8 73 -11 76 -3 3 -25 4 -48 3 -105 -6 -121 -5 -125 5
-3 9 192 114 211 114 7 0 83 55 155 112 62 50 96 83 129 127 19 25 27 29 42
21 10 -6 30 -10 43 -10z m282 -105 c22 -8 62 -14 89 -15 42 0 47 -2 41 -17
-13 -32 -25 -78 -30 -108 -8 -60 -35 -201 -43 -230 -5 -16 -7 -35 -5 -41 2 -6
-6 -53 -18 -105 -12 -52 -25 -114 -30 -138 -16 -78 -30 -121 -39 -121 -13 0
-13 50 1 89 13 36 3 96 -11 71 -4 -8 -15 -49 -24 -90 -8 -41 -20 -90 -27 -108
-11 -33 -12 -33 -29 -15 -15 15 -16 28 -10 83 22 179 23 195 10 183 -15 -14
-39 -144 -39 -215 -1 -35 -5 -48 -16 -48 -26 0 -33 32 -27 135 3 69 1 104 -6
109 -14 9 -19 -12 -35 -139 l-13 -100 -17 26 c-17 25 -17 37 -6 158 15 164 13
167 -72 123 -34 -18 -75 -32 -91 -32 -29 0 -28 2 46 81 44 47 100 122 132 175
30 51 61 97 67 101 7 5 25 29 39 54 15 25 34 52 43 59 9 8 25 31 36 52 22 42
27 44 84 23z m785 -1341 c69 -1 163 -7 210 -13 86 -13 385 -77 400 -86 5 -3
56 -14 114 -25 58 -10 118 -26 134 -34 16 -8 60 -18 98 -22 38 -3 87 -14 109
-24 23 -9 59 -20 80 -24 22 -3 72 -16 110 -27 39 -11 87 -25 107 -31 55 -16
467 12 528 36 25 10 42 -8 32 -34 -5 -13 -5 -44 -1 -69 4 -25 10 -111 13 -191
3 -80 8 -210 11 -290 3 -80 10 -176 16 -215 6 -38 9 -142 7 -230 -4 -152 -6
-163 -33 -218 -50 -103 -121 -135 -275 -124 -48 4 -99 11 -113 16 -13 5 -69
10 -123 11 -169 4 -409 56 -484 105 -19 13 -96 49 -170 80 -74 31 -144 60
-155 65 -11 5 -51 23 -90 40 -103 47 -283 108 -356 119 -35 6 -89 17 -119 25
-111 29 -362 40 -503 21 -161 -21 -293 -29 -300 -18 -10 16 12 292 29 363 9
36 18 110 20 165 4 78 10 112 30 154 27 61 67 270 66 347 -1 28 4 59 11 68 12
17 133 40 267 52 31 3 78 9 105 14 28 4 61 5 75 2 14 -3 81 -7 150 -8z m-512
-1238 c14 -8 10 -31 -14 -80 -8 -16 -19 -67 -26 -113 l-12 -85 -41 5 c-85 9
-258 76 -263 101 -2 9 7 21 22 27 16 8 32 30 47 65 12 30 33 64 48 77 25 20
34 22 126 17 55 -3 106 -9 113 -14z m1252 -190 c0 -3 -4 -8 -10 -11 -5 -3 -10
-1 -10 4 0 6 5 11 10 11 6 0 10 -2 10 -4z m-1665 -26 c3 -5 14 -10 24 -10 16
0 223 -80 264 -102 14 -7 16 -12 7 -23 -6 -8 -13 -26 -15 -41 -1 -14 -8 -30
-15 -34 -7 -4 -47 3 -89 15 -132 40 -167 45 -331 45 -88 0 -181 5 -207 12 -84
20 -124 34 -124 44 0 5 29 12 63 16 35 4 131 25 213 47 159 41 200 47 210 31z
m2075 -140 c0 -5 -4 -10 -10 -10 -5 0 -10 5 -10 10 0 6 5 10 10 10 6 0 10 -4
10 -10z m740 -123 c0 -40 -5 -128 -10 -195 -6 -81 -6 -130 0 -142 17 -32 1
-47 -60 -59 l-59 -12 16 -42 c9 -23 21 -48 27 -56 14 -18 -22 -47 -77 -61 -63
-16 -69 -19 -62 -30 11 -17 -41 -29 -168 -41 -67 -6 -140 -16 -162 -24 -22 -7
-85 -13 -140 -14 -98 -1 -100 -1 -80 17 11 11 55 32 98 47 42 15 87 36 99 46
11 11 25 19 29 19 4 0 39 23 76 52 92 69 122 81 175 68 24 -5 56 -10 72 -10
24 0 27 2 16 15 -10 12 -9 16 4 21 9 3 28 4 41 2 18 -4 25 -1 25 10 0 12 -17
14 -102 11 -121 -5 -128 2 -74 71 37 47 38 54 38 273 0 65 -5 61 107 72 35 3
84 14 110 25 25 10 49 16 54 13 4 -2 7 -37 7 -76z m-2640 12 c47 -10 51 -13
48 -37 -3 -25 -7 -27 -46 -26 -43 1 -92 33 -92 61 0 16 23 16 90 2z m2690
-570 c0 -5 -4 -9 -10 -9 -5 0 -10 7 -10 16 0 8 5 12 10 9 6 -3 10 -10 10 -16z
m-60 -17 c0 -4 -20 -14 -45 -21 -25 -7 -45 -17 -45 -21 0 -4 -11 -10 -25 -12
-59 -12 -6 41 58 58 42 11 57 10 57 -4z m-160 -91 c0 -12 -26 -21 -61 -21 -32
0 -40 16 -11 23 31 8 72 7 72 -2z m-1580 -20 c0 -14 -18 -23 -31 -15 -8 4 -7
9 2 15 18 11 29 11 29 0z"/>
<path d="M10170 5891 c0 -5 7 -15 17 -22 15 -13 15 -12 4 9 -12 23 -21 28 -21
13z"/>
<path d="M9676 5820 c-21 -52 -21 -110 -1 -110 8 0 17 12 21 28 4 15 13 37 20
49 10 16 11 29 4 48 -13 35 -25 31 -44 -15z"/>
<path d="M10230 5811 c0 -5 7 -15 17 -22 15 -13 15 -12 4 9 -12 23 -21 28 -21
13z"/>
<path d="M10505 5230 c-3 -5 -4 -14 0 -19 3 -6 1 -29 -4 -53 -12 -52 0 -74 30
-55 24 15 42 -1 43 -40 1 -24 5 -28 28 -26 22 1 29 -4 34 -23 5 -19 13 -24 39
-24 20 0 35 -6 39 -15 4 -10 20 -15 51 -15 33 0 45 -4 45 -15 0 -8 14 -17 35
-21 20 -3 41 -14 48 -24 6 -9 25 -20 40 -24 28 -7 49 -24 94 -79 13 -15 32
-27 43 -27 11 0 23 -7 26 -15 4 -8 12 -15 19 -15 18 0 85 -82 85 -104 0 -9 6
-16 14 -16 14 0 48 -41 87 -107 23 -40 44 -44 35 -7 -12 47 -242 304 -272 304
-8 0 -24 15 -35 34 -12 21 -35 40 -59 50 -31 12 -40 21 -40 40 0 21 -6 25 -32
28 -31 3 -33 6 -33 41 0 40 -9 45 -39 22 -11 -8 -31 -15 -44 -15 -21 0 -23 3
-17 29 8 38 -10 49 -39 22 -12 -12 -30 -21 -40 -21 -15 0 -17 7 -11 55 9 65
-6 74 -32 20 -22 -46 -45 -47 -36 -2 3 17 14 49 23 70 28 58 -15 46 -53 -15
-10 -16 -26 -28 -37 -28 -17 0 -18 5 -13 50 4 33 2 50 -5 50 -6 0 -14 -4 -17
-10z"/>
<path d="M4836 7143 c-10 -10 -114 -23 -266 -32 -69 -4 -141 -13 -160 -19 -75
-24 -145 -42 -162 -42 -10 0 -47 -13 -81 -30 -35 -16 -69 -30 -76 -30 -15 0
-127 -56 -163 -81 -15 -11 -45 -26 -68 -34 -23 -8 -58 -28 -76 -45 -19 -16
-41 -30 -48 -30 -8 0 -37 -27 -66 -60 -28 -32 -79 -79 -113 -104 -34 -24 -78
-66 -97 -92 -19 -26 -66 -79 -104 -118 -79 -80 -120 -157 -135 -256 -6 -35
-19 -76 -29 -90 -25 -34 -43 -91 -47 -148 -2 -26 -15 -80 -30 -121 -17 -47
-25 -85 -21 -102 7 -35 -14 -49 -58 -40 -67 15 -242 -8 -282 -37 -21 -14 -78
-28 -194 -46 -91 -15 -194 -34 -229 -42 -35 -9 -82 -17 -105 -19 -61 -6 -144
-23 -164 -34 -9 -5 -28 -9 -42 -9 -26 -1 -175 -28 -198 -37 -7 -3 -82 -21
-166 -40 -85 -19 -164 -39 -178 -44 -14 -5 -72 -19 -129 -31 -57 -12 -142 -35
-189 -51 -47 -17 -123 -41 -170 -54 -99 -27 -165 -56 -199 -85 -21 -18 -22
-23 -10 -35 8 -8 39 -20 69 -26 30 -6 72 -14 93 -19 51 -10 57 -19 27 -39 -14
-9 -43 -32 -65 -52 -57 -51 -163 -128 -206 -149 -61 -32 -137 -133 -125 -167
5 -12 17 -14 59 -10 28 3 62 8 75 12 40 13 22 -9 -49 -60 -80 -57 -94 -75 -76
-99 11 -15 21 -15 86 -6 41 6 76 8 79 5 3 -2 -7 -14 -22 -26 -20 -15 -26 -29
-24 -48 3 -24 6 -26 53 -25 28 1 70 9 95 17 47 17 76 8 66 -20 -19 -47 79 -1
214 101 102 78 262 215 292 251 17 20 44 37 71 44 44 13 45 12 183 -52 76 -36
165 -73 197 -82 32 -9 61 -23 64 -31 3 -8 -4 -32 -16 -54 -12 -22 -21 -46 -21
-53 0 -7 -11 -39 -24 -72 -13 -33 -31 -81 -40 -106 l-17 -46 -97 -7 c-53 -4
-135 -9 -182 -11 -60 -3 -97 -10 -125 -25 -21 -11 -48 -20 -58 -20 -10 0 -51
-16 -91 -35 l-72 -36 -120 15 c-145 17 -376 12 -412 -11 l-23 -14 21 -29 c11
-16 45 -41 76 -56 57 -28 65 -47 23 -52 -26 -3 -39 -7 -149 -48 -41 -16 -89
-38 -106 -51 -17 -13 -36 -23 -43 -23 -6 0 -19 -4 -29 -9 -9 -5 -42 -16 -72
-26 -75 -24 -100 -41 -100 -69 0 -26 37 -48 69 -39 25 6 71 -4 71 -16 0 -5
-12 -13 -28 -19 -31 -11 -168 -97 -177 -112 -11 -18 6 -50 35 -65 21 -11 61
-15 138 -15 85 0 112 -3 122 -15 16 -19 91 -20 173 0 136 31 295 64 341 69 27
3 57 13 66 21 15 13 33 14 131 5 63 -5 165 -10 227 -10 103 0 111 -1 103 -17
-11 -23 -46 -134 -46 -148 0 -6 -7 -28 -16 -50 -9 -22 -21 -62 -27 -90 -15
-78 -77 -311 -107 -404 -15 -47 -28 -102 -29 -123 -1 -20 -5 -40 -9 -44 -4 -4
-7 -23 -7 -41 0 -42 -41 -132 -92 -199 -21 -28 -38 -55 -38 -61 0 -5 -15 -26
-32 -45 -18 -20 -43 -51 -55 -69 -12 -19 -53 -79 -90 -133 -37 -55 -71 -104
-74 -110 -3 -6 -13 -24 -22 -41 -16 -29 -27 -51 -84 -175 -62 -134 -183 -371
-222 -435 -49 -80 -142 -205 -153 -205 -4 0 -21 -18 -37 -40 -16 -23 -87 -102
-158 -177 -169 -179 -198 -222 -213 -327 -7 -44 -12 -135 -11 -201 1 -104 6
-134 34 -224 24 -79 41 -114 70 -147 73 -83 124 -99 176 -57 19 16 22 28 22
98 0 44 5 109 10 145 12 71 54 202 77 238 14 21 52 31 52 13 0 -18 88 -101
101 -96 8 3 32 33 53 66 21 33 57 81 80 107 23 26 54 64 69 84 43 59 325 348
339 348 4 0 70 62 147 139 160 159 200 192 296 248 87 50 160 64 285 58 77 -5
555 -7 635 -4 11 1 31 0 45 -1 14 -1 54 4 90 10 85 16 367 18 450 3 126 -22
265 -54 274 -64 6 -5 18 -9 28 -9 34 0 120 -68 194 -152 41 -46 74 -91 74
-100 0 -9 5 -20 11 -24 6 -3 29 -43 50 -88 56 -116 121 -231 146 -258 12 -13
26 -35 32 -50 6 -15 26 -38 45 -50 20 -13 36 -28 36 -33 0 -6 15 -40 33 -75
23 -46 38 -66 54 -68 19 -3 91 29 135 61 24 16 46 1 63 -43 77 -203 97 -245
123 -258 9 -5 53 -13 97 -16 88 -8 215 -41 215 -56 0 -14 -168 -16 -310 -4
-19 1 -125 5 -235 8 -110 3 -236 8 -280 11 -44 3 -343 8 -665 10 -686 6 -882
11 -1017 29 -133 17 -226 7 -261 -27 -23 -24 -24 -28 -12 -57 l13 -32 81 6
c109 7 1083 9 1094 2 5 -3 36 -1 68 4 56 10 129 11 464 8 80 0 287 3 460 6
229 6 323 4 345 -4 50 -19 429 -30 620 -18 66 4 230 9 365 11 135 2 254 5 265
7 11 1 142 -1 290 -5 330 -9 288 -9 420 -1 61 4 207 9 325 10 119 2 225 6 236
10 12 4 42 0 67 -9 37 -12 55 -13 97 -4 40 8 59 8 79 -1 16 -8 93 -13 213 -15
103 -2 192 -7 200 -11 7 -4 132 -9 278 -11 343 -4 359 -4 379 9 13 8 34 7 78
-5 73 -18 216 -12 234 9 14 17 47 18 85 4 14 -6 153 -13 308 -15 154 -3 353
-7 441 -10 88 -4 207 -8 265 -10 58 -1 131 -6 162 -10 105 -14 147 21 63 51
-51 19 -568 35 -928 28 -241 -4 -255 -3 -314 18 -54 20 -66 21 -96 10 -29 -10
-248 -18 -377 -13 -14 1 -92 3 -175 6 -82 3 -157 6 -165 6 -8 1 -50 -2 -92 -6
-51 -5 -103 -4 -153 5 -59 10 -78 10 -90 0 -11 -9 -34 -10 -87 -4 -119 12
-190 14 -718 17 -278 2 -587 7 -687 12 -156 7 -187 6 -221 -8 -33 -13 -82 -16
-274 -16 -128 0 -243 3 -255 6 -18 4 -23 12 -23 39 0 24 -7 38 -23 48 -22 15
-159 60 -228 75 -71 15 -294 160 -379 246 -64 64 -64 65 -52 98 19 53 16 61
-52 120 -69 62 -105 117 -213 327 -72 141 -115 214 -132 224 -12 8 -61 113
-61 131 0 13 -32 94 -54 135 -8 14 -17 41 -21 60 -4 19 -16 55 -27 80 -11 25
-36 88 -55 140 -38 107 -79 185 -129 247 l-34 41 32 19 c18 11 57 31 86 46 29
15 111 66 183 114 72 49 147 97 167 108 45 25 136 91 215 157 32 26 62 48 66
48 8 0 124 108 244 227 38 38 89 95 115 128 25 33 54 66 63 73 10 7 46 49 80
95 34 45 77 100 95 122 18 23 42 61 53 87 10 25 31 64 45 87 14 22 26 46 26
52 0 6 9 23 19 38 68 95 112 321 100 511 -8 125 -2 145 35 130 40 -15 253 23
279 49 6 6 20 11 31 11 21 0 71 35 114 81 28 30 45 84 72 230 9 44 19 65 51
98 50 51 58 78 45 147 -7 43 -6 61 7 91 8 21 21 65 29 97 9 39 20 63 33 70 11
6 39 23 62 39 23 15 46 27 51 27 19 0 63 43 81 78 16 32 17 47 9 106 -11 83
-33 128 -87 181 -23 21 -41 44 -41 50 0 13 16 51 53 123 35 70 37 144 4 193
-20 30 -28 34 -74 37 -57 3 -66 10 -128 105 -39 60 -43 63 -112 85 -46 15 -84
34 -103 53 -28 29 -30 35 -30 112 0 105 -13 150 -60 212 -57 75 -202 230 -252
269 -75 59 -88 75 -88 100 0 26 -44 86 -63 86 -7 0 -25 16 -42 35 -52 61 -345
152 -379 118z m664 -786 c0 -23 -53 -62 -130 -96 -41 -18 -102 -47 -136 -63
-33 -17 -69 -28 -80 -26 -13 2 11 20 78 56 53 28 104 63 115 77 10 14 42 33
73 44 67 24 80 25 80 8z m45 -147 c0 -22 -39 -19 -43 3 -3 15 1 18 20 15 12
-2 23 -10 23 -18z m-185 -55 c0 -29 -4 -35 -21 -35 -11 0 -28 -4 -37 -9 -21
-11 -114 -2 -106 10 9 16 118 68 142 69 19 0 22 -5 22 -35z m-288 -57 c-6 -6
-16 -7 -22 -3 -9 6 -9 9 1 16 17 10 34 0 21 -13z m564 12 c8 0 14 -4 14 -9 0
-15 -36 -23 -75 -15 -30 5 -34 9 -23 21 8 10 22 13 41 9 16 -3 36 -6 43 -6z
m-379 -53 c30 -8 75 -12 103 -9 33 3 50 1 50 -7 0 -11 -17 -16 -91 -26 -34 -4
-64 0 -108 15 -33 11 -76 20 -96 20 -34 0 -48 14 -22 23 21 8 109 -1 164 -16z
m-1197 -257 c0 -5 -6 -14 -12 -19 -62 -50 -72 -60 -58 -61 8 0 28 7 44 15 37
19 57 5 38 -25 -7 -11 -10 -31 -6 -44 3 -13 1 -27 -5 -30 -6 -4 -11 -16 -11
-26 0 -14 -8 -20 -32 -22 -27 -2 -33 -8 -40 -35 -6 -24 -4 -41 7 -62 8 -17 15
-40 15 -51 0 -18 -5 -21 -32 -18 -32 3 -32 3 -49 90 -17 89 -30 118 -55 118
-24 0 -16 21 21 57 20 19 43 51 53 71 17 37 40 49 95 51 15 1 27 -3 27 -9z
m-994 -229 c12 -25 31 -107 43 -181 12 -74 29 -160 37 -190 9 -30 22 -102 30
-160 8 -58 17 -123 20 -145 14 -98 3 -357 -22 -499 -13 -77 -33 -206 -44 -286
-20 -147 -49 -287 -76 -373 -20 -59 -38 -65 -147 -43 -45 9 -104 16 -131 16
-27 0 -75 6 -105 14 -31 8 -83 20 -116 26 -33 6 -94 22 -135 35 -41 13 -97 28
-125 35 -113 28 -134 40 -192 114 -31 39 -70 87 -88 106 -18 19 -55 73 -84
120 -39 65 -51 93 -51 125 1 35 73 270 93 303 10 15 52 16 80 0 25 -13 232
-75 292 -88 22 -4 60 -15 84 -24 24 -9 53 -16 65 -16 12 0 27 -5 32 -10 6 -6
18 -8 26 -5 22 9 68 80 68 106 0 26 -37 58 -67 59 -22 0 -63 -35 -63 -53 0
-19 -178 4 -267 34 -48 16 -98 29 -111 29 -13 0 -40 14 -59 30 -18 17 -38 30
-43 30 -13 0 -13 56 0 100 6 19 15 96 21 170 14 176 12 166 48 307 17 68 31
129 31 136 0 25 44 57 75 55 38 -2 164 18 230 37 28 8 98 29 157 46 58 17 113
29 122 26 8 -3 18 -19 22 -34 8 -33 138 -325 163 -368 10 -16 21 -49 25 -72 3
-23 22 -78 41 -124 62 -149 107 -360 125 -597 10 -127 14 -147 32 -136 13 8 3
364 -11 414 -6 19 -11 58 -11 86 0 57 -63 333 -78 343 -12 8 -54 92 -78 156
-10 28 -33 77 -50 110 -36 67 -96 233 -91 249 5 16 94 32 183 33 l80 1 20 -47z
m179 -107 c21 -14 85 -65 143 -112 127 -107 145 -119 202 -136 25 -8 81 -36
123 -64 43 -28 104 -60 135 -72 58 -22 105 -41 242 -100 103 -44 196 -75 320
-106 58 -14 113 -33 123 -42 16 -14 16 -17 -9 -49 -14 -18 -29 -56 -34 -86
-17 -99 -21 -122 -32 -167 -18 -73 -20 -74 -110 -13 -44 30 -88 57 -97 60 -9
3 -34 19 -56 35 -97 70 -476 328 -483 328 -4 0 -36 25 -72 55 -36 30 -94 79
-130 108 -276 229 -327 282 -345 360 -6 24 -4 27 18 27 13 0 41 -12 62 -26z
m-1199 -71 c-4 -21 -14 -90 -22 -153 -18 -139 -31 -226 -38 -260 -2 -14 -12
-70 -22 -125 -9 -55 -21 -107 -25 -115 -19 -34 0 470 22 595 15 84 22 95 62
95 29 0 29 -1 23 -37z m-135 -36 c1 -18 0 -50 -1 -72 -1 -22 -3 -80 -5 -130
-6 -174 -22 -426 -28 -432 -4 -3 -21 1 -39 10 -18 9 -64 25 -103 37 -96 30
-175 69 -175 87 0 9 11 61 24 117 13 55 29 128 36 161 17 81 28 121 51 181
l20 51 72 13 c40 6 81 15 92 20 31 12 55 -6 56 -43z m1869 -63 c0 -8 -5 -12
-10 -9 -6 4 -8 11 -5 16 9 14 15 11 15 -7z m-425 -130 c61 -52 135 -119 165
-149 30 -29 66 -59 79 -65 13 -7 52 -32 85 -56 34 -24 84 -59 111 -79 28 -19
88 -63 135 -97 46 -34 109 -76 140 -95 135 -82 186 -115 195 -127 6 -7 26 -21
45 -31 19 -10 55 -32 80 -49 25 -17 76 -46 114 -66 114 -57 132 -68 144 -83 7
-8 19 -57 28 -108 32 -198 2 -348 -110 -562 -86 -163 -170 -272 -366 -468
l-115 -116 -155 -5 c-147 -5 -214 -3 -544 23 -151 11 -265 30 -317 52 -57 25
-271 113 -333 138 -60 24 -120 73 -285 233 -71 68 -150 158 -181 206 -8 12
-27 40 -42 61 -16 21 -28 41 -28 44 0 10 47 4 115 -15 39 -11 111 -29 160 -40
100 -23 197 -48 235 -61 14 -4 68 -13 120 -18 90 -10 96 -12 125 -46 50 -57
133 -75 156 -32 7 12 16 67 21 122 13 152 15 168 27 198 6 16 11 52 11 80 0
29 5 68 10 87 6 19 15 80 20 135 5 55 20 154 35 220 23 107 25 143 25 330 1
116 -3 224 -8 240 -4 17 -5 46 -2 65 3 19 0 60 -7 90 -14 61 -17 140 -5 140 4
0 57 -43 117 -96z m2555 -104 c0 -5 -4 -10 -10 -10 -5 0 -10 5 -10 10 0 6 5
10 10 10 6 0 10 -4 10 -10z m-633 -96 c-3 -3 -12 -4 -19 -1 -8 3 -5 6 6 6 11
1 17 -2 13 -5z m103 -14 c0 -5 -4 -10 -10 -10 -5 0 -10 5 -10 10 0 6 5 10 10
10 6 0 10 -4 10 -10z m290 -370 c0 -5 -2 -10 -4 -10 -3 0 -8 5 -11 10 -3 6 -1
10 4 10 6 0 11 -4 11 -10z m-967 -75 c-3 -8 -9 -15 -14 -15 -10 0 -12 24 -3
33 11 11 24 -3 17 -18z m647 -31 c0 -8 -5 -12 -10 -9 -6 4 -8 11 -5 16 9 14
15 11 15 -7z m-54 -246 c7 -18 12 -76 13 -128 1 -75 -4 -112 -23 -175 -14 -44
-32 -116 -42 -160 -9 -44 -20 -85 -25 -90 -4 -6 -17 -33 -28 -62 -29 -73 -173
-306 -234 -378 -120 -140 -136 -153 -228 -174 -150 -34 -551 -62 -565 -39 -9
14 16 46 151 189 124 131 171 190 247 314 80 130 110 200 138 325 7 30 16 66
21 80 22 66 19 194 -7 286 -5 20 0 22 63 29 92 10 363 22 443 19 64 -2 65 -2
76 -36z m-3516 -3 c0 -3 -17 -38 -39 -79 -21 -40 -41 -87 -44 -102 -11 -60
-36 -133 -71 -212 -21 -46 -40 -99 -43 -120 -10 -64 -18 -72 -73 -72 -28 0
-50 2 -50 4 0 2 7 23 16 47 12 33 17 92 20 239 6 249 8 261 59 277 22 6 60 9
85 6 25 -2 56 0 70 6 26 10 70 14 70 6z m-330 -88 c0 -12 -5 -60 -10 -107 -5
-47 -12 -119 -15 -160 -7 -96 -35 -210 -55 -220 -8 -4 -55 -6 -103 -3 -84 6
-88 7 -82 27 18 59 25 96 25 141 0 28 5 70 11 95 5 24 14 75 19 113 10 82 25
101 94 122 28 8 58 19 65 24 21 14 51 -5 51 -32z m410 -17 c0 -5 -4 -10 -10
-10 -5 0 -10 5 -10 10 0 6 5 10 10 10 6 0 10 -4 10 -10z m30 -59 c5 -11 14
-51 20 -91 7 -52 21 -89 51 -143 40 -71 117 -183 142 -209 8 -7 71 -81 142
-163 218 -255 268 -305 307 -305 15 0 35 -9 45 -19 10 -10 32 -27 49 -37 17
-11 83 -54 146 -96 62 -43 119 -78 125 -78 6 0 47 -17 90 -38 178 -88 427
-148 646 -157 156 -6 237 4 312 40 120 57 148 65 244 71 53 3 116 9 141 14 25
5 90 14 145 21 55 6 104 13 108 16 5 3 7 -3 5 -13 -2 -12 -11 -18 -22 -16 -13
2 -16 -2 -13 -15 4 -13 -18 -37 -85 -93 -152 -126 -194 -157 -236 -179 -22
-11 -44 -25 -47 -31 -4 -6 -28 -21 -53 -34 -63 -32 -209 -115 -263 -149 -115
-74 -247 -147 -300 -167 -32 -11 -64 -30 -69 -41 -9 -17 -7 -19 18 -19 15 0
47 9 70 20 22 11 49 20 59 20 22 0 54 -47 79 -114 10 -29 26 -52 40 -58 26
-12 57 -79 104 -218 17 -52 58 -149 90 -215 32 -66 66 -138 75 -160 16 -37
122 -253 165 -335 10 -19 44 -89 75 -155 31 -66 64 -128 73 -138 8 -9 13 -18
11 -20 -10 -6 -77 -29 -106 -37 -17 -4 -46 -18 -65 -31 -28 -20 -76 -41 -149
-65 -26 -9 -67 24 -97 75 -15 25 -57 84 -94 130 -66 82 -158 243 -186 326 -8
22 -20 47 -27 55 -7 8 -20 32 -30 54 -30 64 -132 164 -205 201 -64 32 -80 36
-190 56 -152 27 -492 39 -545 19 -12 -5 -76 -9 -141 -10 -65 0 -149 -4 -187
-8 -37 -5 -122 -5 -190 -1 -67 4 -201 8 -298 8 -96 0 -182 3 -190 6 -34 13
-168 -42 -271 -111 -103 -68 -139 -101 -319 -292 -73 -78 -109 -107 -151 -126
-57 -26 -73 -42 -186 -203 -92 -132 -163 -223 -173 -223 -5 0 -29 16 -55 35
-25 19 -52 35 -59 35 -7 0 -30 23 -50 51 -20 28 -50 58 -67 67 -17 9 -42 26
-57 37 -14 12 -38 26 -53 33 -48 20 -37 35 92 123 44 30 82 62 86 71 3 10 22
39 43 65 39 50 120 181 146 236 9 18 23 46 33 62 17 30 118 215 157 288 19 35
90 156 189 321 61 101 65 108 87 141 10 17 29 50 41 75 11 25 27 50 33 55 7 6
21 26 31 45 11 19 29 46 42 60 25 27 92 133 92 145 0 4 18 27 39 51 21 24 41
59 44 77 9 57 38 179 62 267 13 47 26 101 30 120 4 19 19 64 34 100 15 36 35
96 45 134 9 38 25 85 35 105 10 20 21 58 25 85 8 61 79 273 141 416 13 30 29
70 37 88 7 17 19 32 26 32 8 0 21 18 29 40 9 22 17 40 19 40 2 0 8 -9 14 -19z
m-1659 -3328 c30 -27 64 -60 77 -75 13 -16 30 -28 37 -28 24 0 26 -18 5 -55
-11 -19 -20 -41 -20 -48 0 -22 -49 -117 -60 -117 -14 0 -49 77 -50 110 0 14
-7 34 -15 44 -8 11 -15 28 -15 38 0 10 -7 30 -16 43 -24 37 -37 104 -23 121
17 21 22 18 80 -33z m4249 -104 c25 -34 54 -71 65 -81 39 -39 171 -131 218
-153 26 -13 55 -29 65 -38 26 -23 161 -77 217 -88 87 -16 95 -20 76 -42 -16
-21 -73 -27 -139 -17 -31 5 -103 14 -160 20 -73 7 -122 18 -170 38 -37 16 -88
34 -113 40 -58 14 -181 69 -191 85 -5 7 -13 30 -19 51 -6 22 -21 53 -34 70
-12 17 -28 48 -36 68 -16 46 -4 63 55 80 22 6 45 15 51 20 5 4 23 8 40 8 26 0
37 -9 75 -61z m-4332 -130 c11 -35 23 -76 26 -90 3 -15 22 -46 41 -69 39 -47
39 -48 24 -87 -6 -15 -12 -37 -13 -48 -1 -17 -7 -19 -36 -17 -19 2 -38 7 -41
10 -3 4 -18 44 -33 89 -20 61 -29 111 -33 192 -3 60 -3 117 1 127 6 15 9 14
25 -12 10 -17 28 -59 39 -95z"/>
<path d="M2912 4494 c-12 -8 -22 -26 -22 -38 0 -36 37 -76 70 -76 34 0 49 17
57 66 5 29 2 40 -12 50 -25 18 -65 18 -93 -2z"/>
<path d="M2831 4196 c-21 -22 -23 -31 -16 -73 9 -61 19 -73 64 -73 49 0 81 33
81 82 0 78 -79 117 -129 64z"/>
<path d="M2854 3898 c-16 -22 -10 -62 8 -66 25 -5 46 42 28 63 -15 18 -25 19
-36 3z"/>
<path d="M4500 4010 c-23 -23 -22 -38 3 -54 12 -8 22 -8 35 0 25 16 27 51 3
64 -17 8 -24 7 -41 -10z"/>
<path d="M4743 3834 c-3 -8 0 -21 6 -27 10 -9 16 -8 26 7 8 10 12 23 9 27 -9
15 -34 10 -41 -7z"/>
<path d="M4632 3524 c-13 -24 -4 -51 19 -57 22 -6 43 31 33 58 -8 20 -41 19
-52 -1z"/>
<path d="M4536 3391 c-8 -13 3 -38 19 -45 22 -8 48 23 34 40 -13 16 -45 19
-53 5z"/>
<path d="M4372 3138 c-14 -14 -16 -44 -4 -52 10 -6 52 21 52 34 0 17 -36 30
-48 18z"/>
<path d="M7873 6413 c-28 -11 -11 -31 31 -37 59 -9 103 -40 147 -103 l36 -52
22 22 c52 56 8 112 -119 153 -72 24 -94 27 -117 17z"/>
<path d="M7880 6320 c-11 -11 -20 -25 -20 -32 0 -28 25 -77 44 -87 12 -5 15
-10 8 -10 -21 -1 -3 -21 19 -21 29 0 23 -14 -11 -27 -16 -6 -30 -16 -30 -22 0
-14 16 -14 43 1 28 15 174 13 193 -3 10 -8 14 -8 14 0 0 6 -18 20 -40 31 -23
12 -43 27 -47 35 -3 10 -13 13 -29 9 -15 -4 -24 -2 -24 5 0 6 9 11 20 11 30 0
24 27 -10 45 -16 9 -30 20 -30 26 0 16 -47 59 -65 59 -8 0 -24 -9 -35 -20z"/>
<path d="M7685 220 c3 -5 11 -10 16 -10 6 0 7 5 4 10 -3 6 -11 10 -16 10 -6 0
-7 -4 -4 -10z"/>
<path d="M1364 211 c-3 -3 -144 -7 -313 -8 -353 -1 -426 -12 -376 -53 14 -12
211 -15 365 -6 25 2 113 -1 195 -6 169 -10 195 -4 195 43 0 22 -5 27 -30 31
-17 3 -33 2 -36 -1z"/>
<path d="M12624 184 c-27 -7 -67 -12 -89 -12 -152 1 -532 -15 -539 -22 -18
-18 50 -32 169 -36 266 -8 295 -8 305 2 10 10 67 5 140 -13 19 -5 46 -6 60 -1
14 4 45 14 70 21 46 14 63 38 41 60 -16 16 -98 16 -157 1z"/>
<path d="M12723 73 c15 -2 37 -2 50 0 12 2 0 4 -28 4 -27 0 -38 -2 -22 -4z"/>
</g>
</svg>
