<?xml version="1.0" standalone="no"?>
<!DOCTYPE svg PUBLIC "-//W3C//DTD SVG 20010904//EN"
 "http://www.w3.org/TR/2001/REC-SVG-20010904/DTD/svg10.dtd">
<svg version="1.0" xmlns="http://www.w3.org/2000/svg"
 width="1280.000000pt" height="706.000000pt" viewBox="0 0 1280.000000 706.000000"
 preserveAspectRatio="xMidYMid meet">
<metadata>
Created by potrace 1.15, written by Peter Selinger 2001-2017
</metadata>
<g transform="translate(0.000000,706.000000) scale(0.100000,-0.100000)"
fill="#000000" stroke="none">
<path d="M9431 7034 c-22 -18 -31 -35 -31 -55 0 -34 -19 -38 -45 -9 -25 28
-57 25 -89 -9 -21 -22 -27 -36 -23 -54 4 -14 0 -32 -9 -45 -10 -15 -13 -32 -9
-52 5 -25 1 -37 -24 -66 -34 -38 -40 -81 -19 -131 7 -15 12 -68 13 -118 0 -49
4 -111 9 -136 8 -45 7 -46 -29 -68 -37 -21 -37 -22 -30 -72 6 -44 4 -54 -15
-74 -18 -19 -21 -30 -14 -57 4 -18 6 -55 5 -83 -2 -53 -38 -214 -51 -229 -5
-4 -24 -3 -44 4 -52 17 -81 -4 -90 -64 -4 -24 -13 -50 -21 -56 -8 -6 -24 -42
-36 -78 -32 -97 -73 -174 -122 -230 -24 -26 -53 -65 -66 -85 -27 -44 -72 -73
-128 -82 -22 -3 -49 -15 -59 -26 -24 -27 -159 -121 -210 -147 -22 -11 -68 -28
-101 -36 -53 -14 -69 -14 -115 -3 -29 7 -88 11 -131 9 -71 -3 -80 -6 -112 -36
-37 -35 -40 -43 -26 -65 8 -12 22 -13 93 -2 67 10 91 9 123 -1 48 -15 95 -50
95 -70 0 -8 -25 -65 -55 -127 -30 -62 -62 -134 -71 -160 -8 -27 -29 -63 -46
-80 -24 -25 -29 -36 -23 -60 3 -17 1 -37 -5 -48 -10 -16 -8 -26 14 -57 18 -27
26 -52 26 -83 0 -53 20 -94 58 -122 16 -11 40 -41 53 -66 29 -55 72 -78 152
-80 55 -2 61 -5 104 -48 59 -60 110 -77 234 -77 65 0 100 -4 107 -12 5 -7 11
-49 13 -92 l4 -79 -50 -26 c-27 -14 -63 -35 -80 -47 -30 -21 -50 -32 -160 -88
-61 -32 -228 -140 -254 -164 -38 -36 -53 -37 -286 -2 -33 5 -96 12 -140 16
-44 3 -111 13 -150 21 -38 8 -108 18 -155 23 -88 8 -116 17 -210 73 -61 36
-190 92 -233 101 -16 4 -54 -2 -91 -13 -35 -11 -73 -17 -84 -14 -39 10 -132
-26 -167 -64 l-33 -36 -49 12 c-27 7 -69 11 -94 10 -24 -1 -80 6 -124 16 -44
10 -100 20 -125 21 -49 3 -153 15 -293 34 -66 9 -95 9 -114 1 -18 -8 -30 -8
-46 0 -11 7 -78 18 -147 25 -228 23 -324 35 -395 50 -38 8 -95 17 -125 19 -30
3 -89 12 -130 20 -41 9 -101 20 -133 25 -33 6 -63 12 -68 16 -5 3 -9 63 -9
134 0 82 -6 154 -16 196 -11 51 -13 74 -5 91 14 31 14 63 0 63 -5 0 -23 14
-39 31 -22 24 -33 30 -47 23 -10 -4 -29 -9 -43 -10 -14 -1 -54 -9 -90 -18
-179 -43 -202 -43 -410 -5 -39 7 -85 9 -115 5 -43 -7 -56 -15 -95 -57 -50 -54
-52 -54 -145 -14 -47 21 -199 65 -222 65 -11 0 -37 7 -56 15 -20 8 -56 15 -80
15 -25 0 -49 6 -55 13 -6 7 -54 30 -107 52 -80 32 -100 37 -116 27 -23 -15
-49 -15 -69 -1 -12 8 -10 9 7 4 12 -3 24 -2 27 4 6 9 -62 41 -87 41 -6 0 -64
23 -127 51 -63 28 -139 59 -168 71 -38 14 -56 27 -63 46 -28 73 -51 182 -70
320 -17 135 -18 166 -8 259 8 67 20 120 33 146 l21 42 73 6 c101 8 126 27 130
102 4 77 -15 110 -81 142 -45 21 -60 23 -104 16 -87 -13 -158 -77 -224 -199
l-17 -30 -148 -7 c-211 -10 -213 -10 -594 -2 -190 4 -475 10 -635 13 -370 7
-414 13 -460 53 -51 45 -80 57 -173 72 -82 13 -83 13 -137 -14 -30 -15 -55
-31 -55 -36 0 -5 -13 -14 -28 -20 -47 -20 -108 -91 -125 -146 -25 -84 -13
-202 33 -302 30 -64 45 -85 71 -99 19 -9 45 -25 58 -35 39 -31 92 -25 128 14
42 44 63 89 63 136 0 33 -3 40 -23 43 -17 2 -21 8 -19 30 4 31 -16 74 -28 62
-4 -5 -13 -27 -20 -49 -7 -22 -21 -61 -32 -87 -18 -41 -24 -48 -49 -48 -24 0
-29 5 -35 34 -15 81 47 196 128 237 35 18 40 18 68 4 40 -21 57 -50 86 -142
22 -71 24 -96 24 -267 0 -130 -6 -236 -20 -345 -23 -175 -80 -430 -114 -506
-13 -27 -26 -63 -30 -79 -4 -16 -23 -62 -42 -101 -19 -40 -34 -79 -34 -87 0
-7 -7 -26 -16 -43 -9 -16 -24 -61 -34 -100 -10 -38 -29 -95 -44 -125 -14 -30
-26 -69 -26 -87 0 -17 -11 -76 -24 -131 -14 -58 -27 -149 -31 -218 -5 -104 -2
-141 23 -294 37 -223 44 -243 192 -545 104 -210 160 -280 374 -458 42 -35 168
-97 257 -126 20 -6 55 -27 77 -47 23 -19 65 -45 94 -57 29 -12 62 -28 73 -34
20 -13 20 -13 -4 -32 l-25 -19 30 -26 c16 -14 36 -26 45 -26 16 0 39 -19 39
-32 0 -4 -11 -8 -24 -8 -13 0 -34 -9 -47 -19 l-24 -19 26 -11 c15 -5 45 -15
67 -21 55 -14 61 -28 15 -35 -21 -3 -56 -15 -78 -25 -22 -11 -69 -23 -104 -27
-50 -5 -71 -12 -96 -35 -35 -30 -40 -45 -56 -173 -13 -101 -20 -109 -81 -101
-51 7 -98 0 -98 -15 0 -5 19 -8 41 -7 27 2 43 -2 46 -9 7 -19 -67 -17 -95 2
-15 11 -27 13 -40 6 -9 -5 -56 -12 -102 -16 -47 -4 -103 -12 -125 -18 -51 -14
-73 -16 -231 -20 -137 -3 -164 -11 -164 -48 0 -26 27 -37 69 -28 20 4 74 11
121 15 47 3 93 11 103 16 10 5 25 7 32 4 13 -4 102 12 195 37 25 6 83 12 130
13 47 0 155 10 240 22 253 36 312 42 396 43 43 0 115 4 159 9 99 11 325 28
555 40 183 10 439 31 625 50 121 13 123 13 375 31 159 11 178 11 208 -5 17 -9
32 -22 32 -29 0 -6 3 -22 6 -33 5 -20 0 -23 -68 -33 -40 -7 -93 -16 -118 -21
-25 -6 -103 -17 -175 -25 -71 -9 -137 -18 -145 -21 -14 -5 -98 -16 -225 -30
-27 -3 -57 -8 -65 -11 -8 -3 -33 -7 -55 -9 -58 -4 -265 -23 -375 -34 -52 -5
-147 -15 -210 -21 -63 -5 -129 -15 -146 -20 -17 -5 -46 -9 -64 -9 -30 0 -167
-16 -415 -49 -85 -12 -247 -38 -335 -54 -46 -9 -65 -17 -65 -27 0 -12 13 -14
65 -12 36 2 69 7 75 13 5 5 23 9 39 9 40 0 238 27 296 40 52 12 300 46 440 61
52 5 164 19 247 30 84 11 157 18 162 15 5 -4 40 -2 78 4 37 5 118 14 178 20
223 21 393 41 500 59 61 11 122 17 137 14 15 -3 41 0 60 6 18 6 182 18 363 26
182 9 355 19 386 24 31 4 83 4 115 0 33 -4 86 -8 118 -8 44 -1 62 -6 72 -18
16 -21 19 -188 5 -198 -21 -13 -112 -26 -206 -31 -121 -5 -168 -10 -260 -24
-124 -20 -228 -31 -335 -35 -95 -5 -295 -30 -425 -55 -76 -15 -172 -27 -375
-50 -101 -12 -225 -29 -275 -40 -49 -10 -112 -21 -140 -24 -27 -4 -131 -20
-230 -36 -226 -36 -314 -48 -439 -59 -95 -9 -142 -28 -122 -48 16 -16 212 2
341 32 33 7 130 21 215 30 85 8 191 22 235 30 44 7 152 23 240 35 190 25 388
57 430 70 17 5 84 11 150 14 171 7 331 23 395 40 33 9 61 11 71 6 14 -8 70 -2
299 30 134 20 441 49 620 60 483 28 823 41 834 30 6 -6 -1 -22 -21 -42 -42
-45 -53 -70 -42 -91 11 -19 67 -23 115 -8 27 9 272 25 322 21 70 -6 291 -3
377 4 55 5 183 9 285 11 102 1 232 6 290 11 58 5 112 8 120 7 8 -1 58 2 110 7
159 15 307 21 470 20 85 -1 247 -3 360 -4 l205 -1 0 -25 c0 -18 5 -25 20 -25
33 0 302 15 445 25 128 9 280 14 750 25 113 3 300 10 415 16 225 12 247 18
224 62 -11 19 -18 19 -148 13 -75 -4 -154 -12 -176 -18 -22 -5 -114 -9 -205
-8 -91 2 -223 -1 -295 -5 -240 -14 -636 -18 -880 -9 -244 9 -697 10 -820 1
-60 -4 -173 -10 -250 -12 -77 -3 -277 -12 -445 -20 -168 -9 -357 -18 -420 -21
-63 -2 -129 -9 -145 -15 -23 -9 -42 -8 -84 5 -29 8 -58 13 -63 10 -9 -6 -181
-15 -258 -14 -19 0 -77 -4 -129 -10 -52 -6 -96 -8 -99 -6 -2 3 10 28 27 56 34
55 38 72 19 88 -18 14 -706 8 -874 -8 -182 -17 -196 -7 -175 125 5 36 7 73 4
80 -3 8 -28 26 -56 39 -45 22 -66 25 -157 25 -58 1 -143 -1 -190 -3 -47 -2
-170 -6 -275 -8 l-190 -3 -13 30 c-27 64 -38 80 -62 92 -62 32 -676 3 -930
-43 -14 -2 -76 -5 -137 -6 -131 -1 -143 4 -143 67 0 59 -28 145 -59 178 -14
15 -45 33 -68 39 -23 5 -46 15 -51 22 -13 17 -32 90 -32 124 0 17 -5 34 -10
37 -23 14 -8 34 30 40 23 4 55 19 71 33 32 27 67 95 72 141 4 35 37 90 58 96
8 3 30 18 46 33 17 15 57 40 90 56 32 16 75 43 96 60 55 43 138 158 187 254
47 96 123 318 139 407 22 129 31 206 31 267 0 35 5 132 12 216 l12 153 30 16
c17 9 60 20 96 24 36 5 94 15 130 23 36 8 108 23 160 34 52 11 130 30 172 41
43 12 90 21 104 21 15 0 43 4 63 10 20 5 79 19 132 31 86 19 98 20 125 7 38
-19 137 -43 242 -58 65 -10 85 -10 97 0 22 18 18 43 -10 70 -29 27 -32 45 -9
54 20 8 34 -1 34 -19 0 -19 69 -65 96 -65 13 0 24 -8 27 -20 6 -24 18 -25 94
-5 34 9 102 15 166 15 99 0 109 2 114 19 3 11 16 22 29 25 53 14 70 120 27
168 -18 20 -18 20 32 13 28 -3 73 -10 100 -15 28 -5 84 -14 125 -20 41 -6 93
-15 115 -20 22 -5 112 -16 200 -24 88 -9 225 -23 304 -32 80 -8 181 -14 225
-13 45 1 93 -3 107 -9 14 -6 80 -16 145 -22 65 -7 121 -13 125 -15 3 -2 75 -9
160 -15 136 -9 207 -17 326 -36 21 -3 48 -20 76 -48 32 -33 53 -45 87 -51 25
-4 106 -22 180 -41 106 -28 140 -33 158 -24 28 12 80 -14 145 -73 117 -107
169 -133 387 -192 328 -89 311 -86 505 -87 139 -1 212 3 320 20 175 27 207 37
363 114 42 21 44 21 110 4 37 -10 94 -22 127 -26 33 -4 89 -16 125 -25 36 -9
99 -21 140 -26 112 -13 196 -26 280 -44 41 -8 117 -21 169 -28 105 -14 124
-28 136 -98 7 -35 5 -38 -42 -69 -26 -18 -68 -49 -92 -69 -25 -20 -69 -49 -98
-66 -63 -36 -170 -124 -263 -218 -47 -47 -75 -86 -91 -123 l-22 -55 22 -76
c34 -115 81 -176 298 -379 85 -80 180 -161 211 -181 31 -20 78 -55 103 -77 25
-23 63 -50 85 -61 21 -11 63 -36 92 -55 30 -19 73 -47 96 -61 22 -14 48 -38
56 -53 13 -24 13 -28 0 -39 -9 -7 -54 -65 -100 -131 -50 -70 -103 -132 -130
-152 -25 -18 -57 -42 -72 -53 -14 -12 -31 -21 -37 -21 -18 0 -180 -120 -201
-149 -18 -27 -18 -29 -2 -62 13 -26 23 -34 42 -33 14 1 119 7 235 13 121 6
211 15 213 21 2 6 13 4 25 -5 17 -12 59 -15 217 -15 200 0 233 6 215 36 -9 14
-36 16 -226 15 -243 -2 -273 3 -263 46 14 58 39 96 138 205 56 62 112 131 126
153 58 98 56 96 193 100 116 3 282 26 330 44 12 5 60 19 107 32 47 12 116 37
153 55 37 18 91 35 120 39 68 10 151 52 223 115 40 35 66 50 86 50 33 0 151
-16 218 -30 25 -5 119 -12 210 -15 91 -3 185 -8 210 -11 63 -9 118 -43 169
-106 38 -48 204 -216 273 -275 14 -13 38 -23 52 -23 24 0 26 3 20 28 -4 15
-18 44 -30 64 -13 20 -44 83 -70 140 -25 57 -50 108 -55 114 -4 5 -24 57 -43
114 -26 77 -43 112 -68 136 l-33 32 -150 -9 c-82 -5 -163 -9 -180 -10 -56 -2
-196 14 -201 22 -3 5 -13 9 -22 9 -9 1 -31 20 -49 44 -24 33 -41 45 -69 51
-62 11 -152 7 -186 -9 -54 -25 -191 -39 -267 -27 -149 23 -304 92 -390 173
-123 114 -136 125 -218 178 -100 64 -106 83 -40 131 120 86 289 282 310 358 5
20 9 55 8 77 -1 37 2 43 25 48 14 4 33 5 42 2 10 -3 46 -8 82 -10 219 -17 564
-79 632 -113 15 -7 40 -13 55 -13 15 0 60 -7 98 -15 65 -13 71 -13 83 3 9 11
11 31 7 57 -16 108 -49 171 -92 180 -15 3 -48 10 -73 17 -39 10 -159 21 -354
33 -67 4 -157 20 -268 46 -42 11 -90 19 -106 19 -16 0 -42 4 -58 9 -16 5 -51
12 -78 16 -54 7 -53 7 -157 140 -87 111 -179 193 -328 292 -228 150 -249 164
-271 188 -18 19 -20 28 -12 38 22 27 122 60 347 116 66 16 134 33 150 37 17 4
46 8 65 9 19 1 71 11 115 23 127 33 231 46 365 45 138 -2 170 8 170 52 0 13 5
27 10 30 22 13 7 25 -56 45 -84 26 -85 26 -172 -10 -40 -16 -96 -32 -125 -36
-29 -4 -63 -12 -77 -19 -14 -7 -44 -15 -68 -19 -24 -3 -53 -13 -65 -20 -12 -8
-38 -17 -57 -21 -19 -3 -50 -13 -68 -21 -17 -8 -69 -24 -113 -35 -96 -25 -112
-18 -87 35 19 39 16 46 -24 46 -45 0 -249 -111 -315 -173 -19 -16 -25 -18 -38
-7 -13 11 -6 21 51 74 37 33 76 66 88 71 75 35 162 146 154 198 -4 29 -50 37
-107 18 -35 -11 -46 -11 -49 -2 -2 7 -14 24 -27 39 l-23 26 -42 -29 c-68 -47
-140 -147 -140 -194 0 -11 -4 -23 -10 -26 -5 -3 -10 -16 -10 -27 0 -32 -39
-88 -62 -88 -30 0 -144 67 -173 102 -14 16 -51 49 -83 72 -57 43 -155 142
-306 309 -44 48 -100 99 -125 113 -66 38 -138 111 -166 169 -31 62 -89 136
-122 153 -14 8 -55 19 -91 26 -82 15 -90 33 -32 68 33 19 46 35 60 74 10 27
30 78 45 114 27 62 27 68 21 183 -4 66 -14 156 -22 201 -36 197 -43 300 -24
337 6 10 24 26 40 34 64 33 73 52 66 137 -6 72 -4 82 24 145 17 37 48 89 69
117 44 57 71 108 71 130 0 9 29 48 65 88 74 82 106 141 98 179 -4 23 2 31 41
58 25 18 49 43 52 56 3 13 16 31 29 39 13 8 25 30 29 49 4 19 15 42 26 52 11
10 40 55 65 101 40 73 45 89 45 147 0 53 -6 77 -31 128 -18 35 -37 67 -43 71
-6 4 -57 8 -113 8 -95 0 -104 -2 -132 -26z m135 -222 c-9 -8 -26 10 -26 26 1
15 2 15 15 -2 8 -11 13 -21 11 -24z m-6895 -1379 c35 -21 41 -36 29 -68 -8
-21 -16 -25 -48 -25 -20 0 -47 6 -58 14 -18 13 -22 12 -46 -18 -68 -85 -98
-184 -98 -323 0 -100 28 -280 71 -453 10 -41 0 -55 -35 -46 -53 13 -74 45 -86
131 -40 278 -29 510 30 632 17 34 30 65 30 68 0 20 45 65 82 84 52 25 90 27
129 4z m-2263 -62 c33 -7 55 -21 97 -63 34 -34 55 -64 55 -78 0 -12 14 -56 30
-97 17 -42 41 -119 53 -172 21 -90 22 -115 19 -406 -3 -349 -2 -340 -92 -645
-29 -96 -63 -215 -76 -265 -14 -49 -38 -128 -53 -175 -32 -94 -45 -162 -62
-326 -18 -175 21 -528 67 -616 8 -14 14 -32 14 -40 0 -15 56 -152 89 -216 26
-50 224 -274 268 -303 20 -12 24 -26 29 -102 9 -108 21 -127 118 -173 67 -32
76 -34 184 -34 96 0 121 -3 170 -24 31 -13 91 -35 134 -49 80 -26 127 -26 265
2 72 14 213 89 213 112 0 12 -47 11 -55 -1 -3 -5 -16 -10 -28 -10 -12 -1 -40
-7 -62 -15 -21 -8 -41 -13 -42 -11 -7 7 52 66 67 66 8 0 34 9 58 20 52 23 57
51 10 48 -31 -3 -33 -1 -36 33 -3 33 1 38 85 105 171 135 194 164 281 346 51
104 87 195 101 253 12 50 27 97 32 105 12 19 10 -182 -3 -255 -5 -27 -13 -80
-18 -117 -13 -88 -63 -245 -107 -333 -45 -89 -164 -256 -210 -294 -19 -16 -56
-35 -82 -41 -25 -7 -62 -21 -81 -31 -19 -10 -64 -20 -100 -23 -36 -3 -110 -10
-164 -16 -54 -6 -105 -9 -112 -6 -8 3 -78 6 -156 7 -79 0 -191 7 -251 14 -96
12 -118 18 -208 64 -56 28 -109 51 -119 51 -10 0 -20 6 -23 14 -3 8 -30 30
-59 50 -112 74 -343 402 -393 556 -9 30 -24 66 -33 80 -15 24 -44 98 -105 270
-28 79 -30 94 -30 220 1 132 6 168 52 370 22 96 90 285 156 436 24 55 61 152
80 215 20 63 41 123 48 134 6 11 16 47 23 80 7 33 19 92 28 131 66 300 64 760
-4 893 -44 88 -121 122 -190 86 -40 -21 -107 -107 -120 -155 -6 -22 -15 -42
-20 -45 -6 -3 -10 -29 -10 -57 0 -44 4 -54 34 -84 l35 -35 40 20 c22 12 47 31
55 43 12 17 18 20 28 10 9 -9 2 -22 -32 -58 -40 -40 -49 -45 -79 -40 -83 13
-133 86 -150 218 -17 132 11 206 117 303 43 39 63 51 100 56 67 9 82 9 130 0z
m1187 -117 c407 -2 746 -7 753 -9 8 -3 10 -14 6 -32 -13 -56 -15 -57 -246 -56
-117 1 -262 4 -323 7 -60 4 -216 9 -345 11 -382 6 -712 16 -759 23 -33 5 -49
15 -69 41 l-26 33 134 -6 c74 -3 468 -9 875 -12z m7083 -191 c35 -173 46 -202
103 -266 50 -56 51 -58 45 -110 -12 -108 -16 -122 -50 -145 -55 -37 -83 -103
-91 -210 l-7 -94 27 4 c24 3 30 -5 72 -85 l46 -88 -17 -37 c-9 -20 -23 -68
-32 -107 -8 -38 -22 -80 -30 -92 -13 -21 -16 -21 -49 -7 -19 8 -78 16 -131 19
-81 3 -106 8 -153 32 -39 19 -57 35 -59 50 -4 29 -60 54 -125 55 -74 1 -93 11
-128 68 -17 27 -43 58 -58 69 -20 15 -30 34 -39 78 -15 72 -15 123 -2 123 6 0
15 -12 20 -26 15 -39 45 -28 45 16 0 24 5 35 15 35 8 0 24 15 36 33 l22 33 6
-58 c15 -137 45 -228 68 -205 6 6 3 35 -11 84 -46 162 -18 336 68 434 47 53
54 79 19 68 -13 -3 -24 -7 -24 -8 -1 0 -14 -21 -30 -45 -16 -24 -37 -55 -46
-70 -10 -14 -23 -50 -30 -79 -6 -29 -15 -55 -20 -58 -18 -11 -7 70 22 159 17
52 30 102 30 111 0 9 9 34 20 56 11 22 20 43 20 49 0 5 -19 11 -42 14 -24 2
-63 12 -87 21 -24 9 -82 23 -130 30 -80 12 -84 14 -58 24 27 12 60 10 242 -15
35 -4 55 2 138 45 53 28 97 48 97 44 0 -4 -6 -27 -14 -52 -17 -57 -15 -138 5
-151 22 -14 75 -11 89 6 7 8 18 15 25 15 18 0 78 58 71 68 -5 9 -69 2 -130
-13 -24 -7 -28 -5 -23 11 3 11 9 35 12 54 10 51 32 80 59 80 19 0 26 -7 31
-30 5 -21 13 -30 26 -30 29 0 23 23 -21 70 -43 46 -43 60 -2 60 18 0 35 -10
53 -31 35 -43 58 -31 29 15 -26 43 -25 60 3 74 48 23 52 18 75 -95z m-7814 66
c28 -7 60 -7 94 -1 45 8 54 7 68 -9 10 -11 14 -22 10 -26 -4 -4 -84 -6 -179
-4 -172 3 -211 11 -193 40 9 14 144 14 200 0z m216 1 c12 -8 11 -10 -7 -10
-12 0 -25 5 -28 10 -8 13 15 13 35 0z m428 -377 c8 -290 8 -342 -1 -648 -3
-126 -6 -245 -6 -264 0 -43 -10 -91 -19 -91 -4 0 -8 38 -9 85 -1 46 -7 94 -13
105 -8 16 -8 35 0 73 6 29 14 149 16 267 2 118 6 226 9 238 3 13 2 29 -4 35
-5 7 -13 55 -18 107 -9 94 -9 122 -5 310 l2 95 21 -32 c18 -29 21 -54 27 -280z
m-694 286 c58 -1 89 -5 96 -14 25 -30 12 -895 -20 -1345 -5 -69 -12 -188 -15
-265 -3 -77 -10 -167 -15 -200 -14 -85 -39 -412 -40 -525 -3 -180 -22 -535
-29 -543 -15 -15 -37 6 -114 106 -103 135 -161 260 -181 387 -34 222 -38 266
-38 402 0 197 13 275 88 526 110 369 120 411 170 757 38 265 34 597 -8 678
-11 21 -3 51 11 43 5 -3 48 -6 95 -7z m860 -566 c1 -383 -2 -535 -10 -543 -19
-19 -23 53 -24 515 -1 242 -3 474 -4 515 -2 76 11 109 28 67 4 -12 9 -261 10
-554z m120 555 c12 -19 15 -98 16 -458 3 -535 5 -484 -25 -498 -49 -22 -79 -7
-32 16 22 11 22 11 0 11 -18 1 -22 9 -27 59 -16 151 -8 855 11 884 9 16 43 7
57 -14z m522 7 c6 -2 11 -35 12 -82 1 -43 8 -125 17 -183 8 -58 18 -127 22
-154 7 -55 12 -53 -84 -25 -50 15 -117 0 -133 -32 -9 -16 -6 -24 22 -49 27
-26 30 -32 18 -40 -8 -5 -18 -10 -22 -10 -5 0 -8 -9 -8 -20 0 -11 -4 -20 -9
-20 -24 0 -145 32 -175 47 l-34 16 -4 86 c-6 98 7 454 16 469 5 9 332 6 362
-3z m-1225 -721 c-2 -395 -4 -721 -6 -724 -3 -5 -10 -250 -20 -710 -3 -118 -9
-298 -15 -400 -6 -102 -13 -265 -16 -362 -5 -141 -9 -178 -20 -178 -22 0 -44
55 -44 110 0 36 -4 52 -15 56 -8 4 -15 10 -15 15 0 4 7 6 15 3 13 -5 15 8 15
82 0 49 5 152 10 229 5 77 14 259 20 405 5 146 13 303 16 350 6 97 8 155 23
800 5 256 13 535 17 620 6 143 10 263 13 383 1 34 5 47 13 45 10 -4 12 -162 9
-724z m204 714 c5 -14 11 -332 18 -898 3 -206 8 -589 12 -850 5 -331 4 -514
-5 -605 -13 -154 -32 -417 -35 -495 -3 -89 -27 -294 -35 -304 -22 -24 -26 50
-19 359 5 182 13 373 18 425 6 52 11 217 11 365 0 149 4 315 8 371 8 102 8
190 -3 434 -8 160 -14 1192 -8 1203 7 12 33 8 38 -5z m289 -55 c22 -238 25
-1859 4 -2128 -6 -77 -9 -234 -8 -350 1 -115 3 -302 4 -415 l1 -205 -25 0
c-23 0 -25 5 -35 70 -19 125 9 810 36 873 12 28 12 34 0 42 -12 7 -14 109 -13
642 1 348 4 752 8 898 3 146 5 349 4 453 0 112 3 187 9 187 5 0 12 -30 15 -67z
m-573 -208 c-1 -132 -4 -243 -7 -246 -2 -4 -4 -90 -4 -191 -1 -270 -25 -644
-42 -654 -25 -16 -29 18 -19 157 16 214 30 559 36 869 6 283 9 314 28 307 7
-2 10 -78 8 -242z m173 193 c3 -24 7 -122 7 -220 1 -97 6 -203 10 -235 5 -32
11 -242 14 -468 3 -225 7 -458 9 -517 2 -58 0 -202 -5 -320 -5 -117 -9 -260
-9 -318 -1 -58 -5 -143 -10 -190 -5 -47 -12 -161 -15 -255 -4 -93 -11 -192
-16 -219 -11 -62 -11 -137 0 -155 6 -10 4 -25 -5 -42 -8 -16 -14 -44 -14 -63
0 -26 -5 -36 -20 -41 -39 -12 -43 1 -36 134 4 69 11 225 16 346 5 121 15 301
20 400 6 99 13 625 15 1170 2 545 6 1000 10 1013 11 34 22 26 29 -20z m221
-135 c3 -43 6 -105 5 -138 -1 -33 -1 -174 -1 -313 1 -139 -3 -261 -8 -269 -4
-9 -6 -45 -3 -79 4 -56 2 -64 -12 -64 -16 0 -17 34 -15 470 1 370 4 470 14
470 9 0 15 -26 20 -77z m465 -114 c0 -33 -4 -59 -10 -59 -6 0 -10 29 -10 66 0
41 4 63 10 59 6 -3 10 -33 10 -66z m6265 -52 c-19 -56 -28 -105 -29 -154 l-1
-73 -40 -20 c-71 -36 -120 -19 -71 26 33 31 54 73 101 199 21 55 42 106 48
114 22 27 19 -10 -8 -92z m-6268 -74 c-3 -10 -5 -4 -5 12 0 17 2 24 5 18 2 -7
2 -21 0 -30z m573 -85 c58 -22 146 -54 195 -72 50 -19 115 -46 145 -60 l55
-27 -40 6 c-22 4 -78 20 -125 36 -47 16 -103 34 -125 39 -74 17 -310 101 -325
116 -27 28 105 5 220 -38z m6569 1 c20 -7 31 -18 31 -30 0 -12 7 -19 18 -19
10 0 27 -6 37 -14 17 -13 18 -15 2 -55 -23 -57 -22 -71 7 -71 54 0 39 -24 -90
-146 -114 -109 -164 -144 -164 -115 0 11 77 81 89 81 4 0 36 28 70 61 70 70
71 99 1 52 -104 -69 -100 -67 -100 -44 0 12 10 54 22 94 11 39 23 99 25 132 4
59 9 85 16 85 2 0 18 -5 36 -11z m-99 -14 c14 -17 12 -37 -24 -195 -15 -63
-33 -121 -41 -129 -12 -13 -17 -8 -34 32 -17 40 -19 60 -14 130 6 87 22 131
57 159 26 22 40 22 56 3z m-6592 -51 c50 -11 152 -49 152 -56 0 -13 -29 -9
-104 13 -102 31 -118 38 -111 50 4 6 14 8 22 5 8 -4 27 -9 41 -12z m-254 -34
c44 -16 83 -33 88 -38 5 -5 -23 -10 -67 -10 -42 -1 -85 -7 -97 -13 -23 -12
-42 5 -33 29 3 8 5 25 5 38 0 31 8 30 104 -6z m145 -99 c14 -10 42 -26 61 -34
34 -15 34 -15 8 -16 -15 -1 -39 4 -55 11 -15 6 -36 10 -46 9 -10 -1 -25 3 -32
9 -8 7 -22 9 -31 6 -9 -4 -23 -1 -31 5 -38 32 82 41 126 10z m-104 -51 c36
-10 60 -23 60 -31 0 -11 -18 -13 -87 -10 -112 4 -116 -13 -6 -29 60 -9 219
-27 256 -30 1 0 2 -4 2 -10 0 -5 -52 -11 -122 -12 -74 -2 -123 -7 -123 -13 0
-6 46 -13 105 -16 124 -8 117 -6 103 -20 -14 -14 -297 -13 -324 2 -17 8 -19
22 -19 108 0 54 3 100 6 104 3 3 25 -2 47 -10 23 -9 69 -23 102 -33z m-229 3
c-11 -11 -19 6 -11 24 8 17 8 17 12 0 3 -10 2 -21 -1 -24z m7374 -53 c17 0
167 -143 283 -271 98 -109 119 -128 215 -200 50 -39 92 -74 92 -79 0 -4 30
-27 66 -50 44 -28 64 -46 60 -56 -8 -20 -157 -204 -165 -204 -4 0 -43 -34 -87
-76 -74 -71 -81 -75 -114 -70 -19 3 -99 6 -178 6 -107 0 -144 3 -148 13 -2 7
16 34 40 60 29 30 49 62 56 89 6 24 16 57 21 73 21 60 21 65 5 71 -20 8 -61
-27 -83 -71 -58 -113 -245 -304 -374 -380 -18 -11 -49 -30 -69 -42 -19 -13
-43 -26 -54 -29 -10 -4 -39 -18 -65 -32 -25 -13 -62 -33 -81 -43 -19 -10 -80
-25 -135 -34 -55 -9 -120 -21 -145 -26 -25 -6 -92 -13 -150 -15 -90 -5 -165
-1 -375 21 -62 6 -158 32 -310 85 -175 61 -211 77 -259 117 l-38 31 26 69 c46
120 60 136 95 114 12 -8 10 -19 -12 -68 -31 -69 -40 -148 -17 -148 10 0 25 30
45 92 17 51 35 97 41 103 7 7 25 7 55 1 24 -5 82 -17 129 -26 61 -12 138 -18
270 -18 174 -1 188 0 233 22 52 25 189 116 252 167 22 17 69 44 105 59 36 15
74 35 85 46 11 10 50 32 85 49 36 17 99 49 140 72 41 22 95 46 119 53 25 7 47
17 49 23 7 22 -29 25 -89 7 -32 -10 -62 -16 -65 -13 -7 7 113 111 151 131 43
22 115 86 115 102 0 7 -8 27 -17 43 -17 29 -17 32 0 49 9 11 20 33 23 50 4 19
22 44 51 68 40 34 44 41 39 69 -8 44 2 50 36 21 16 -14 38 -25 48 -25z m-10
46 c0 -3 -4 -8 -10 -11 -5 -3 -10 -1 -10 4 0 6 5 11 10 11 6 0 10 -2 10 -4z
m-6044 -21 c15 -11 16 -14 3 -15 -8 0 -24 7 -35 15 -15 11 -16 14 -3 15 8 0
24 -7 35 -15z m-1319 -47 c-3 -7 -5 -2 -5 12 0 14 2 19 5 13 2 -7 2 -19 0 -25z
m1167 -6 c39 -11 44 -29 12 -43 -19 -9 -39 -8 -93 6 -81 22 -79 21 -64 39 12
14 88 13 145 -2z m-1127 -44 c-3 -7 -5 -2 -5 12 0 14 2 19 5 13 2 -7 2 -19 0
-25z m1561 13 c9 -5 62 -22 117 -37 55 -15 118 -36 140 -46 69 -30 6 -22 -128
18 -151 45 -167 51 -167 64 0 12 15 13 38 1z m646 -52 c-16 -26 -61 8 -50 37
6 15 9 14 31 -6 13 -13 22 -27 19 -31z m4936 29 c0 -6 -47 -59 -105 -117 -133
-134 -141 -110 -9 28 93 97 114 114 114 89z m-6080 -34 c0 -2 -18 -4 -41 -4
-22 0 -38 4 -35 8 5 8 76 4 76 -4z m1030 9 c-1 -15 -30 -46 -37 -40 -3 4 -17
-3 -30 -15 -18 -17 -23 -18 -23 -6 0 19 55 68 76 68 8 0 14 -3 14 -7z m-1355
-43 c-3 -5 -13 -10 -21 -10 -8 0 -12 5 -9 10 3 6 13 10 21 10 8 0 12 -4 9 -10z
m429 -26 c15 -6 23 -34 10 -34 -13 0 -44 21 -44 30 0 11 11 13 34 4z m-1304
-14 c11 -7 12 -15 5 -36 -13 -37 -32 -41 -46 -10 -9 20 -9 29 1 41 14 17 20
18 40 5z m2622 -12 c-11 -11 -32 -3 -32 12 0 4 9 6 21 3 13 -4 17 -9 11 -15z
m-2182 2 c28 -18 -10 -30 -95 -29 -44 1 -91 -2 -105 -5 -31 -8 -55 7 -47 28 5
13 25 16 119 16 62 0 120 -5 128 -10z m1530 -24 c0 -7 -6 -19 -13 -25 -11 -8
-19 -5 -37 14 l-23 25 36 0 c25 0 37 -5 37 -14z m345 -122 c-3 -94 -18 -141
-36 -112 -15 24 14 208 32 208 4 0 6 -43 4 -96z m4904 82 c10 -11 7 -19 -10
-35 -13 -12 -26 -21 -31 -21 -4 0 -39 -27 -77 -60 -38 -33 -73 -55 -76 -50 -6
10 52 90 67 90 4 0 27 20 50 45 45 48 59 53 77 31z m-5534 -16 c8 -13 -47 -19
-174 -17 -82 2 -115 6 -119 15 -3 10 28 12 142 11 80 0 148 -4 151 -9z m-2067
-47 c-3 -50 -21 -66 -26 -24 -5 31 6 71 19 71 6 0 9 -19 7 -47z m1749 41 c-3
-3 -12 -4 -19 -1 -8 3 -5 6 6 6 11 1 17 -2 13 -5z m-1107 -19 c8 -9 29 -15 56
-15 69 0 198 -21 213 -35 24 -23 2 -35 -63 -33 -34 1 -68 -2 -75 -6 -7 -5 -47
-12 -89 -16 -42 -5 -86 -10 -97 -12 -18 -3 -20 3 -21 57 0 33 4 63 10 67 18
13 53 9 66 -7z m-230 -39 c0 -56 -19 -98 -44 -94 -18 3 -21 11 -24 52 -4 64 2
76 38 76 27 0 30 -3 30 -34z m2211 -9 c-8 -8 -11 -7 -11 4 0 20 13 34 18 19 3
-7 -1 -17 -7 -23z m-2347 -29 c19 -198 9 -1879 -12 -1900 -6 -6 -18 -8 -27 -4
-14 5 -15 24 -11 163 7 191 16 596 22 982 2 184 8 288 15 297 6 7 8 17 5 22
-10 16 -15 492 -6 492 5 0 11 -24 14 -52z m8626 30 c0 -13 -59 -98 -68 -98
-12 0 -32 23 -32 36 0 23 67 85 84 78 9 -3 16 -10 16 -16z m150 -6 c0 -22 -33
-72 -47 -72 -9 0 -32 -18 -50 -40 -64 -74 -163 -127 -163 -86 0 21 155 169
198 188 41 19 62 22 62 10z m-9050 -97 c0 -24 -4 -47 -10 -50 -6 -4 -10 15
-10 50 0 35 4 54 10 50 6 -3 10 -26 10 -50z m1185 46 c3 -6 17 -6 36 1 21 7
34 7 41 0 16 -16 -2 -34 -27 -28 -13 3 -77 -1 -142 -9 -65 -9 -129 -15 -143
-14 -14 1 -32 -1 -40 -3 -14 -5 -202 -28 -227 -28 -7 0 -13 4 -13 9 0 20 86
35 380 70 106 12 128 12 135 2z m1214 -105 c-9 -8 -10 -3 -5 23 3 18 7 41 8
50 1 9 3 -1 5 -23 3 -22 -1 -43 -8 -50z m-1773 43 c3 -6 0 -15 -7 -20 -19 -12
-59 -11 -59 1 0 6 10 15 23 20 30 12 35 12 43 -1z m-243 -31 c14 -22 1 -48
-23 -48 -15 0 -20 7 -20 28 0 44 22 54 43 20z m1033 12 c43 -17 17 -28 -81
-33 -316 -18 -353 -19 -359 -8 -4 6 -4 11 1 12 104 6 147 10 188 15 47 6 170
19 207 23 9 0 29 -4 44 -9z m1267 -42 c8 -55 -8 -54 -19 0 -4 19 -2 32 4 32 5
0 12 -15 15 -32z m-1817 -15 c-17 -17 -296 -38 -296 -22 0 10 48 17 260 42 27
3 48 -8 36 -20z m69 7 c-3 -5 -11 -10 -16 -10 -6 0 -7 5 -4 10 3 6 11 10 16
10 6 0 7 -4 4 -10z m-1370 -22 c-2 -13 -7 -101 -9 -195 -3 -95 -12 -259 -21
-365 -8 -106 -19 -373 -24 -594 -8 -404 -13 -444 -47 -444 -29 0 -33 45 -23
256 24 517 28 595 38 699 12 130 38 453 47 578 5 77 8 87 25 87 15 0 18 -5 14
-22z m536 -131 c3 -141 -2 -536 -7 -602 -2 -22 -5 -150 -8 -285 -5 -258 -18
-633 -25 -738 -1 -8 -9 -12 -18 -10 -17 3 -18 27 -15 343 4 524 12 904 22
1080 6 88 10 199 10 247 0 99 6 124 25 108 9 -8 14 -50 16 -143z m1179 129 c0
-3 -4 -8 -10 -11 -5 -3 -10 -1 -10 4 0 6 5 11 10 11 6 0 10 -2 10 -4z m-110
-16 c0 -5 -4 -10 -10 -10 -5 0 -10 5 -10 10 0 6 5 10 10 10 6 0 10 -4 10 -10z
m-40 -9 c0 -12 -26 -21 -61 -21 -28 0 -37 9 -22 23 10 10 83 8 83 -2z m1150
-1 c0 -5 -9 -10 -19 -10 -11 0 -23 5 -26 10 -4 6 5 10 19 10 14 0 26 -4 26
-10z m-1265 -10 c-8 -13 -73 -30 -110 -28 -17 0 -64 -6 -105 -15 -111 -23
-195 -26 -195 -7 0 11 22 18 95 27 52 6 122 16 155 21 83 13 168 14 160 2z
m-1025 -21 c0 -6 -4 -7 -10 -4 -5 3 -10 11 -10 16 0 6 5 7 10 4 6 -3 10 -11
10 -16z m393 15 c11 -11 -3 -24 -18 -18 -8 4 -12 10 -9 15 6 11 18 12 27 3z
m947 -24 c0 -10 -33 -22 -70 -26 -14 -1 -72 -7 -128 -14 -95 -11 -125 -9 -110
5 7 8 291 52 301 47 4 -2 7 -7 7 -12z m1600 0 c0 -5 -7 -7 -15 -4 -8 4 -15 8
-15 10 0 2 7 4 15 4 8 0 15 -4 15 -10z m525 -7 c30 -8 128 -22 230 -32 50 -5
126 -14 170 -20 44 -5 134 -15 200 -21 66 -6 183 -17 260 -25 77 -9 169 -17
205 -19 36 -2 121 -11 190 -20 142 -18 346 -42 435 -51 79 -9 86 -11 78 -31
-7 -18 -48 -17 -318 11 -77 8 -169 17 -205 19 -145 10 -206 19 -236 32 -19 8
-67 13 -125 13 -52 0 -159 10 -239 21 -80 12 -176 25 -215 30 -38 4 -108 15
-154 24 -46 9 -100 16 -120 16 -44 0 -216 28 -249 41 -57 22 22 32 93 12z
m-1147 -12 c3 -9 -2 -11 -17 -6 -11 3 -26 3 -33 -1 -7 -4 -21 -8 -32 -9 -12
-1 -47 -5 -78 -9 -41 -6 -58 -5 -58 3 0 6 11 11 24 11 14 0 28 5 31 10 4 6 14
8 23 6 10 -3 24 -1 32 4 22 15 102 8 108 -9z m-1718 -21 c0 -5 -4 -10 -10 -10
-5 0 -10 5 -10 10 0 6 5 10 10 10 6 0 10 -4 10 -10z m1480 1 c0 -12 -20 -25
-27 -18 -7 7 6 27 18 27 5 0 9 -4 9 -9z m-1115 -11 c-3 -5 -10 -10 -16 -10 -5
0 -9 5 -9 10 0 6 7 10 16 10 8 0 12 -4 9 -10z m-966 -96 c1 -64 -2 -94 -9 -89
-12 7 -14 185 -2 185 5 0 10 -43 11 -96z m400 72 c9 -11 8 -23 -4 -52 -11 -26
-12 -40 -4 -50 10 -12 22 -173 19 -266 -1 -27 -1 -60 0 -75 1 -16 2 -271 3
-568 0 -411 -3 -546 -12 -563 -10 -19 -19 -23 -49 -20 l-37 3 3 155 c2 85 6
158 8 161 2 3 6 262 10 575 4 313 10 578 14 589 4 11 5 37 2 58 -6 53 21 84
47 53z m796 -6 c0 -11 -12 -15 -42 -15 -50 0 -61 17 -18 26 42 9 60 6 60 -11z
m-475 0 c0 -5 -12 -12 -27 -16 -16 -3 -43 -10 -61 -14 -45 -12 -97 18 -59 33
23 10 147 7 147 -3z m-205 -20 c3 -5 1 -10 -4 -10 -6 0 -11 5 -11 10 0 6 2 10
4 10 3 0 8 -4 11 -10z m483 -12 c-8 -23 -306 -66 -338 -48 -12 7 -10 9 10 14
63 12 99 18 157 22 34 3 75 9 90 14 43 13 85 12 81 -2z m1996 6 c9 -3 16 -11
16 -16 0 -11 -60 -1 -74 13 -11 10 33 12 58 3z m2683 -19 c28 -10 91 -41 140
-69 l88 -52 -2 -48 c-2 -26 -10 -61 -20 -79 -9 -18 -19 -45 -22 -60 l-6 -29
-39 31 c-48 39 -84 45 -214 38 -101 -5 -106 -4 -129 19 -13 13 -34 24 -46 24
-43 0 -98 22 -130 50 -32 28 -32 29 -14 58 9 17 17 40 17 51 0 12 8 24 18 27
9 4 33 13 52 22 99 45 205 51 307 17z m-5052 -45 c-3 -5 -17 -10 -31 -10 -13
0 -24 5 -24 10 0 6 14 10 31 10 17 0 28 -4 24 -10z m545 0 c19 -12 -5 -20
-120 -44 -47 -10 -128 -26 -180 -37 -52 -11 -117 -25 -145 -30 -27 -6 -66 -15
-86 -20 -57 -14 -81 -12 -77 8 3 18 32 26 203 58 44 9 96 20 115 25 19 5 58
12 85 14 28 3 79 12 115 20 36 8 67 14 70 15 3 0 12 -3 20 -9z m50 -5 c-7 -8
-16 -12 -21 -9 -13 8 -1 24 18 24 13 0 13 -3 3 -15z m7691 -58 c52 -39 122
-93 155 -118 32 -25 91 -67 131 -92 99 -64 211 -168 251 -235 18 -30 44 -69
56 -86 46 -61 73 -130 80 -204 6 -56 4 -79 -7 -95 -8 -12 -18 -38 -22 -57 -11
-55 -72 -126 -205 -245 -58 -51 -190 -125 -224 -125 -6 0 -27 -8 -46 -18 -19
-10 -69 -27 -110 -37 -41 -9 -85 -21 -98 -26 -13 -5 -33 -9 -46 -9 -51 0 -60
-53 -15 -79 24 -13 29 -13 55 6 16 11 76 37 134 57 58 21 114 41 125 46 46 19
56 18 92 -6 20 -14 64 -51 98 -82 33 -31 69 -62 80 -67 11 -6 31 -33 46 -60
24 -46 34 -54 135 -107 60 -31 124 -60 142 -64 18 -3 35 -10 38 -15 2 -5 27
-11 55 -15 27 -4 52 -10 54 -14 10 -16 -9 -41 -44 -59 -177 -90 -230 -112
-316 -136 -55 -15 -138 -37 -185 -51 -57 -16 -124 -25 -205 -29 -66 -3 -156
-10 -200 -17 -181 -25 -231 -14 -272 60 -14 26 -24 32 -49 32 -63 0 -299 204
-496 428 -98 111 -128 160 -128 204 0 41 26 98 60 133 16 17 48 52 72 79 23
26 63 62 88 79 25 17 48 34 51 39 3 5 29 23 57 41 28 17 97 65 152 105 56 39
107 72 113 72 22 0 57 31 57 50 0 11 -12 26 -29 34 -21 11 -36 33 -56 83 -15
37 -33 75 -42 85 -8 9 -20 36 -28 60 -7 23 -21 60 -30 80 -18 37 -18 37 9 78
14 22 30 40 35 40 5 0 46 44 92 97 93 108 218 233 234 233 6 0 53 -33 106 -73z
m-8391 23 c0 -22 -2 -40 -5 -40 -11 0 -25 43 -20 60 11 34 25 22 25 -20z
m1105 31 c3 -5 1 -12 -5 -16 -5 -3 -10 1 -10 9 0 18 6 21 15 7z m672 -4 c13
-14 -10 -21 -119 -33 -109 -13 -146 -8 -122 15 23 23 221 37 241 18z m-1527
-7 c-8 -5 -24 -10 -35 -10 -17 0 -17 2 -5 10 8 5 24 10 35 10 17 0 17 -2 5
-10z m1140 0 c-8 -5 -31 -10 -50 -10 -26 0 -31 3 -20 10 8 5 31 10 50 10 26 0
31 -3 20 -10z m-1272 -22 c-5 -15 -68 -24 -68 -10 0 14 7 18 40 20 22 2 31 -1
28 -10z m1826 6 c9 -3 16 -12 16 -20 0 -21 -54 -17 -81 6 l-24 19 37 1 c20 0
43 -3 52 -6z m-1244 -22 c0 -5 -6 -16 -12 -25 -11 -15 -52 -25 -198 -51 -8 -1
-22 -5 -30 -8 -16 -7 -76 -16 -155 -24 -27 -3 -57 -8 -65 -12 -30 -12 -165
-29 -178 -22 -25 13 10 27 108 43 221 38 307 55 325 64 11 6 49 14 85 17 36 4
72 11 80 16 19 12 40 13 40 2z m364 -42 c-13 -13 -202 -50 -220 -43 -21 8 -17
25 4 18 11 -3 39 4 63 15 46 21 172 29 153 10z m-1584 -16 c0 -8 -5 -12 -10
-9 -6 4 -8 11 -5 16 9 14 15 11 15 -7z m534 -13 c3 -4 -1 -17 -9 -27 -10 -15
-16 -16 -26 -7 -6 6 -9 19 -6 27 7 17 32 22 41 7z m796 -16 c0 -8 -7 -15 -15
-15 -16 0 -20 12 -8 23 11 12 23 8 23 -8z m-1343 -37 c-3 -8 -6 -5 -6 6 -1 11
2 17 5 13 3 -3 4 -12 1 -19z m1139 -5 c23 -8 -61 -33 -136 -40 -70 -6 -57 13
21 32 64 15 91 17 115 8z m-606 -13 c0 -5 -2 -10 -4 -10 -3 0 -8 5 -11 10 -3
6 -1 10 4 10 6 0 11 -4 11 -10z m830 -19 c0 -6 -5 -13 -10 -16 -15 -9 -43 3
-35 15 8 13 45 13 45 1z m-560 -11 c0 -9 -27 -18 -140 -44 -63 -14 -80 -13
-80 4 0 12 68 33 87 26 8 -4 21 -2 27 3 10 8 43 16 89 20 9 0 17 -3 17 -9z
m7110 -15 c36 -8 136 -17 223 -21 l159 -7 22 -36 c25 -39 66 -128 66 -142 0
-14 -86 -11 -149 5 -31 8 -94 20 -141 26 -171 22 -400 72 -400 88 0 15 17 30
56 50 22 11 46 28 53 36 16 19 28 19 111 1z m-7907 -16 c4 -17 2 -1217 -2
-1276 -1 -17 -32 -16 -56 0 -17 13 -17 23 -6 193 7 98 17 233 22 299 6 66 12
149 15 185 3 36 6 190 7 342 1 153 5 278 8 278 4 0 9 -10 12 -21z m1217 6 c-7
-8 -23 -15 -37 -15 -13 0 -33 -5 -45 -11 -17 -9 -19 -8 -16 8 2 12 15 20 43
24 69 11 69 11 55 -6z m-675 -56 c6 -32 11 -40 24 -36 11 2 23 -4 30 -15 10
-17 20 -19 64 -15 29 2 68 9 87 15 19 6 45 14 58 17 28 9 30 -10 2 -25 -11 -6
-46 -15 -77 -21 -32 -6 -73 -19 -91 -30 -40 -23 -65 -24 -82 -4 -7 8 -17 15
-23 15 -7 0 -8 -163 -4 -504 6 -437 5 -505 -8 -516 -8 -7 -21 -10 -29 -7 -12
5 -14 44 -14 229 0 123 0 304 -1 403 -1 290 4 373 24 395 9 10 14 24 10 31
-18 29 -22 78 -8 99 19 27 30 19 38 -31z m292 15 c-3 -3 -12 -4 -19 -1 -8 3
-5 6 6 6 11 1 17 -2 13 -5z m-212 -14 c-3 -5 -11 -10 -16 -10 -6 0 -7 5 -4 10
3 6 11 10 16 10 6 0 7 -4 4 -10z m320 -9 c7 -13 -2 -18 -49 -26 -30 -6 -38 -5
-34 6 7 21 72 37 83 20z m316 -128 c-21 -221 -42 -343 -76 -449 -19 -60 -35
-113 -35 -118 0 -5 -15 -47 -34 -95 -19 -47 -50 -127 -70 -178 -41 -105 -106
-204 -174 -263 -49 -43 -69 -38 -35 8 25 34 53 99 77 177 10 33 24 76 31 95
27 74 68 259 76 340 13 131 30 238 50 319 11 41 19 108 19 149 0 66 -2 74 -20
79 -42 11 -11 28 86 48 78 16 101 18 107 8 4 -7 3 -61 -2 -120z m-295 22 c3
-19 1 -63 -5 -97 -6 -35 -18 -112 -27 -172 -32 -219 -176 -539 -295 -654 l-44
-42 -7 42 c-15 97 -27 556 -17 659 6 57 11 126 12 153 l2 49 50 13 c28 7 84
22 125 34 111 32 174 48 187 49 7 1 15 -15 19 -34z m6726 24 c29 -6 100 -22
158 -35 58 -14 130 -29 160 -34 30 -5 98 -16 150 -25 139 -23 219 -52 205 -75
-9 -15 -69 -12 -91 4 -11 9 -23 11 -30 5 -13 -11 -192 12 -484 61 -59 10 -209
49 -219 57 -3 2 6 14 19 28 26 28 51 31 132 14z m742 -164 c19 -14 18 -15 -11
-15 -31 0 -48 11 -36 24 10 10 26 7 47 -9z m1496 -131 c58 -8 116 -17 130 -20
14 -2 63 -8 110 -13 169 -17 340 -77 340 -118 0 -13 -8 -14 -52 -8 -29 4 -80
7 -113 6 -33 -1 -93 5 -135 13 -41 8 -131 22 -200 31 -232 30 -328 52 -355 81
-15 16 -23 35 -20 48 2 11 4 21 4 22 1 0 143 -20 291 -42z m-9650 -824 c0 -5
-9 -10 -20 -10 -11 0 -20 5 -20 10 0 6 9 10 20 10 11 0 20 -4 20 -10z m-656
-26 c8 -3 20 -22 27 -41 9 -29 9 -37 -2 -44 -21 -13 -45 -11 -58 5 -15 18 -31
73 -23 80 7 8 36 8 56 0z m766 -34 c0 -5 -4 -10 -10 -10 -5 0 -10 5 -10 10 0
6 5 10 10 10 6 0 10 -4 10 -10z m-610 -52 c10 -23 16 -46 13 -51 -7 -11 -85
-2 -113 13 -30 16 -25 31 6 20 30 -12 51 -3 35 13 -21 21 -13 47 14 47 21 0
30 -9 45 -42z m490 25 c0 -17 -19 -35 -29 -29 -18 12 -12 36 9 36 11 0 20 -3
20 -7z m-367 -24 c5 -9 7 -28 3 -42 -5 -21 -12 -26 -32 -25 -27 3 -44 30 -44
69 0 17 6 20 31 17 18 -2 36 -10 42 -19z m9647 17 c0 -2 -7 -6 -15 -10 -8 -3
-15 -1 -15 4 0 6 7 10 15 10 8 0 15 -2 15 -4z m-9577 -91 c7 -16 -8 -29 -23
-20 -10 6 -2 35 10 35 4 0 10 -7 13 -15z m342 -15 c10 -11 16 -22 14 -24 -2
-2 -45 -13 -96 -25 -91 -22 -132 -21 -153 4 -15 18 75 32 95 15 21 -17 62 -4
81 25 20 30 35 31 59 5z m273 -128 c2 -7 -14 -30 -35 -51 -72 -72 -184 -93
-580 -107 l-202 -7 -46 28 c-64 37 -48 48 62 44 135 -5 359 1 448 12 44 6 116
14 159 19 44 5 82 13 85 18 10 15 85 61 95 58 6 -1 12 -8 14 -14z m9551 -15
c15 -19 -42 -84 -124 -142 -137 -98 -281 -147 -475 -161 -47 -4 -90 -11 -96
-16 -20 -15 -526 -25 -581 -12 -27 7 -30 20 -5 26 9 2 80 5 157 6 151 2 258
14 345 38 30 8 73 20 95 26 95 25 146 44 235 86 98 46 234 124 258 148 19 19
175 19 191 1z m441 -37 l85 -30 217 6 216 6 25 -38 c14 -22 35 -73 46 -114 12
-41 28 -88 37 -105 24 -51 34 -95 21 -95 -7 0 -55 44 -107 99 -127 133 -144
141 -290 141 -63 0 -169 5 -235 11 -66 6 -136 12 -155 14 -44 2 -90 15 -90 24
0 11 123 107 140 110 3 1 44 -12 90 -29z m-10197 -172 l22 -23 -40 -3 c-22 -1
-94 -9 -160 -17 -70 -9 -153 -13 -200 -9 -44 3 -96 5 -116 4 -36 0 -70 22 -51
34 21 13 170 27 241 23 42 -2 96 -1 121 3 25 4 71 8 103 9 47 1 61 -3 80 -21z
m-173 -89 c0 -5 -13 -9 -30 -9 -32 0 -41 16 -12 22 21 5 42 -1 42 -13z m275
-123 c64 -18 119 -36 122 -40 8 -7 42 -164 43 -192 0 -20 -8 -22 -137 -33
-358 -30 -468 -44 -476 -58 -7 -11 -12 -11 -23 -2 -11 9 -50 7 -171 -7 -87
-10 -185 -19 -218 -19 l-60 0 -3 58 c-2 33 4 82 13 113 14 48 21 57 53 71 20
8 60 19 87 23 28 4 66 13 85 22 27 11 54 13 115 7 90 -8 120 -2 226 42 145 61
181 63 344 15z m8496 -70 c48 -20 50 -25 30 -55 -10 -14 -25 -37 -35 -51 -64
-97 -86 -127 -106 -145 -32 -28 -140 -180 -140 -197 0 -14 -19 -19 -200 -52
-47 -9 -94 -18 -105 -21 -24 -6 -50 9 -41 23 10 17 136 102 150 102 8 0 19 6
25 14 7 8 31 24 53 36 70 36 128 92 205 195 96 130 123 165 127 165 2 0 19 -6
37 -14z"/>
<path d="M237 3013 c-13 -13 -7 -61 9 -67 22 -8 34 1 34 28 0 32 -27 56 -43
39z"/>
<path d="M250 2796 c-18 -23 -8 -61 17 -64 17 -3 26 4 33 24 17 43 -21 73 -50
40z"/>
<path d="M333 2522 c-13 -22 -6 -67 13 -83 23 -19 64 4 64 36 0 58 -50 89 -77
47z"/>
<path d="M442 2258 c-20 -20 -15 -66 10 -79 19 -10 25 -8 45 16 22 24 23 29
10 49 -17 25 -47 32 -65 14z"/>
<path d="M607 2009 c-19 -26 -11 -56 16 -65 30 -9 71 39 57 67 -14 25 -55 24
-73 -2z"/>
<path d="M8707 4727 c-28 -22 -28 -23 -16 -70 13 -45 12 -48 -9 -63 -14 -10
-21 -22 -17 -33 8 -25 -50 -111 -74 -111 -19 0 -19 2 -6 34 32 76 -19 92 -54
17 -27 -56 -25 -77 9 -102 45 -32 69 -33 79 -6 6 14 15 28 21 32 7 4 33 40 60
80 54 83 88 192 70 225 -14 26 -29 25 -63 -3z"/>
<path d="M8986 4412 c-3 -3 -6 -14 -6 -24 0 -12 7 -18 23 -18 23 0 67 25 67
38 0 8 -76 12 -84 4z"/>
<path d="M10085 3250 c-4 -6 -1 -17 5 -26 14 -16 40 -2 40 22 0 16 -36 19 -45
4z"/>
<path d="M10294 3235 c-4 -9 -2 -21 4 -27 15 -15 44 -1 40 19 -4 23 -36 29
-44 8z"/>
<path d="M9950 3072 c0 -22 6 -31 21 -35 38 -10 37 32 -2 53 -17 9 -19 7 -19
-18z"/>
<path d="M10215 3054 c-19 -19 -16 -43 7 -57 33 -21 65 32 36 61 -16 16 -23
15 -43 -4z"/>
<path d="M10417 3004 c-4 -4 -7 -14 -7 -23 0 -8 -10 -25 -22 -38 -27 -29 -18
-39 21 -23 44 18 68 47 55 68 -12 19 -36 27 -47 16z"/>
<path d="M10610 2975 c-10 -12 -10 -19 -2 -27 17 -17 37 5 25 27 -9 15 -11 15
-23 0z"/>
<path d="M10111 2907 c-14 -14 -14 -40 1 -55 17 -17 26 -15 38 7 18 34 -14 73
-39 48z"/>
<path d="M10306 2814 c-9 -24 -8 -31 10 -48 36 -36 78 -2 54 44 -13 24 -55 27
-64 4z"/>
<path d="M10606 2794 c-6 -16 9 -44 25 -44 4 0 15 7 24 16 12 12 13 19 4 30
-16 19 -45 18 -53 -2z"/>
<path d="M10054 2779 c-10 -17 23 -46 38 -31 8 8 8 15 -2 27 -15 18 -26 19
-36 4z"/>
<path d="M10786 2675 c-8 -33 -1 -45 30 -45 18 0 24 5 24 23 0 47 -44 64 -54
22z"/>
<path d="M10550 2630 c-12 -23 -6 -40 14 -40 18 0 49 37 41 49 -11 18 -44 12
-55 -9z"/>
<path d="M10243 2623 c-17 -6 -16 -38 1 -52 11 -9 20 -10 35 -1 26 13 26 22 3
43 -20 18 -20 18 -39 10z"/>
<path d="M10408 2511 c-19 -16 -21 -21 -9 -35 21 -25 55 -16 59 15 4 34 -20
44 -50 20z"/>
<path d="M10672 2468 c-7 -7 -12 -18 -12 -25 0 -18 29 -16 37 3 8 21 -10 37
-25 22z"/>
<path d="M10130 2435 c-12 -15 -7 -45 8 -45 20 0 45 28 39 44 -8 20 -31 21
-47 1z"/>
<path d="M9950 2415 c-16 -19 -6 -45 19 -45 21 0 33 22 25 45 -8 19 -28 19
-44 0z"/>
<path d="M9691 2341 c-26 -48 6 -94 49 -71 34 18 22 56 -27 84 -7 4 -17 -2
-22 -13z"/>
<path d="M10586 2305 c-21 -22 -12 -35 25 -35 25 0 51 23 38 34 -16 14 -49 14
-63 1z"/>
<path d="M10306 2295 c-17 -17 -6 -79 18 -103 14 -14 17 -14 36 3 21 19 20 37
-2 82 -14 29 -34 36 -52 18z"/>
<path d="M9987 2239 c-22 -13 -22 -26 2 -39 23 -12 51 -3 51 16 0 20 -32 34
-53 23z"/>
<path d="M10654 2235 c-15 -10 -16 -16 -7 -26 14 -15 43 -5 43 15 0 22 -15 27
-36 11z"/>
<path d="M9584 2135 c-7 -18 12 -45 32 -45 9 0 14 11 14 30 0 23 -4 30 -20 30
-11 0 -23 -7 -26 -15z"/>
<path d="M9860 2104 c-11 -12 -10 -18 3 -31 13 -13 19 -14 31 -3 9 7 16 21 16
31 0 23 -32 25 -50 3z"/>
<path d="M10210 2060 c0 -5 5 -10 11 -10 5 0 7 5 4 10 -3 6 -8 10 -11 10 -2 0
-4 -4 -4 -10z"/>
<path d="M9692 1959 c1 -13 8 -23 13 -21 15 3 12 35 -3 40 -9 3 -13 -3 -10
-19z"/>
<path d="M9965 1956 c-21 -15 -14 -46 9 -46 23 0 39 35 22 49 -9 8 -18 7 -31
-3z"/>
<path d="M10532 1893 c2 -10 13 -19 26 -21 17 -3 22 2 22 17 0 16 -6 21 -26
21 -19 0 -25 -5 -22 -17z"/>
<path d="M9750 1840 c-12 -22 -6 -40 13 -40 23 0 56 30 51 45 -9 22 -52 18
-64 -5z"/>
<path d="M10113 1804 c-7 -19 6 -33 36 -36 30 -4 53 28 31 42 -23 15 -60 12
-67 -6z"/>
<path d="M9897 1733 c-22 -21 16 -59 47 -47 21 8 20 24 -1 40 -20 15 -36 17
-46 7z"/>
<path d="M10663 1704 c-14 -37 41 -71 66 -41 9 12 7 19 -15 36 -32 25 -43 26
-51 5z"/>
<path d="M10310 1666 c-20 -26 22 -66 69 -66 95 1 73 56 -30 77 -16 3 -30 -1
-39 -11z"/>
<path d="M10810 1661 c0 -14 41 -41 62 -41 24 0 23 27 -1 40 -25 13 -61 13
-61 1z"/>
<path d="M10470 1625 c-11 -13 -11 -20 0 -40 16 -30 21 -30 50 -7 19 16 21 22
11 40 -14 26 -43 29 -61 7z"/>
<path d="M10010 1586 c0 -16 34 -31 50 -21 22 14 10 35 -20 35 -19 0 -30 -5
-30 -14z"/>
<path d="M10170 1445 c0 -8 7 -15 15 -15 8 0 15 7 15 15 0 8 -7 15 -15 15 -8
0 -15 -7 -15 -15z"/>
<path d="M1490 6096 c0 -15 26 -56 66 -105 74 -93 81 -124 27 -129 -26 -3 -36
3 -60 35 -35 47 -125 137 -180 181 -79 61 -97 32 -36 -58 20 -30 47 -63 60
-73 27 -21 65 -91 56 -101 -20 -19 -56 5 -162 109 -85 83 -123 114 -135 109
-9 -3 -16 -11 -16 -16 0 -11 120 -128 131 -128 4 0 14 -16 23 -35 9 -19 23
-35 31 -35 19 0 19 -14 2 -28 -10 -9 -30 2 -82 43 -38 30 -71 53 -74 50 -2 -3
15 -25 38 -49 48 -49 42 -66 -18 -47 -101 30 -180 51 -196 51 -31 0 2 -27 42
-35 41 -7 108 -39 118 -55 4 -6 -4 -10 -19 -10 -34 0 -43 -18 -12 -26 13 -3
32 -14 41 -24 15 -16 13 -18 -27 -23 -23 -3 -55 -3 -70 0 -38 7 -150 -17 -145
-31 2 -6 13 -10 23 -8 10 1 36 5 56 9 26 4 63 -3 123 -22 86 -27 108 -28 87
-2 -13 16 19 40 42 31 19 -7 28 -32 15 -40 -5 -3 -7 -14 -4 -25 6 -18 0 -19
-109 -19 -113 0 -196 -17 -196 -41 0 -12 11 -11 58 5 22 8 89 16 148 18 l109
3 3 -25 c5 -37 13 -41 89 -50 37 -5 75 -11 83 -14 8 -3 26 4 39 15 23 19 23
21 8 37 -14 14 -21 14 -37 4 -29 -18 -73 -15 -98 8 -45 42 -57 163 -19 197 31
29 89 39 106 19 19 -23 45 -20 78 8 78 65 210 -44 198 -163 -5 -54 -31 -83
-107 -122 -32 -16 -58 -31 -58 -34 0 -2 8 -9 18 -14 20 -11 107 9 144 32 32
21 117 45 220 61 80 13 186 55 161 63 -6 2 -38 -3 -71 -11 -65 -17 -122 -21
-122 -8 0 8 80 31 178 52 24 5 48 12 53 15 20 13 7 25 -28 25 -42 0 -215 -25
-250 -36 -13 -3 -23 -2 -23 3 0 5 57 33 126 63 120 50 187 91 173 105 -4 3
-35 -8 -69 -25 -35 -18 -71 -29 -82 -27 -11 3 -49 -8 -85 -24 -67 -30 -117
-39 -96 -18 11 11 24 19 84 53 47 26 152 105 162 121 14 25 -9 24 -56 0 -25
-14 -57 -25 -71 -25 -14 0 -27 -4 -30 -9 -6 -10 -147 -61 -169 -61 -8 0 -20 6
-26 14 -9 11 -5 18 21 34 39 24 82 78 73 92 -4 6 -17 2 -32 -10 -36 -28 -42
-25 -33 15 9 38 -7 48 -30 20 -10 -13 -16 -13 -40 0 -16 8 -31 26 -35 42 -10
43 -73 123 -97 123 -4 0 -8 -11 -8 -24z"/>
<path d="M1340 5720 c-13 -9 -13 -11 0 -20 8 -5 20 -10 27 -10 19 0 27 21 12
31 -18 11 -21 11 -39 -1z"/>
<path d="M1584 5709 c-3 -6 -1 -16 4 -21 13 -13 45 8 36 23 -7 12 -31 11 -40
-2z"/>
<path d="M1450 5674 c0 -9 5 -14 12 -12 18 6 21 28 4 28 -9 0 -16 -7 -16 -16z"/>
<path d="M1543 5623 c-17 -6 -16 -43 1 -43 18 0 39 27 31 40 -7 11 -13 11 -32
3z"/>
<path d="M11536 553 c-3 -3 -179 -7 -393 -10 -213 -3 -398 -9 -410 -14 -24 -9
-32 -38 -10 -40 24 -2 344 2 497 6 85 2 272 7 415 10 143 3 268 8 278 11 10 3
17 13 15 22 -3 15 -25 17 -195 18 -106 1 -195 -1 -197 -3z"/>
<path d="M11991 546 c-11 -13 -11 -19 -1 -31 15 -18 123 -18 148 1 26 19 5 31
-68 39 -54 6 -68 4 -79 -9z"/>
<path d="M12215 540 c3 -5 -1 -10 -10 -10 -22 0 -14 -24 9 -28 10 -2 29 -1 42
2 21 6 23 9 14 26 -6 12 -21 20 -36 20 -14 0 -22 -4 -19 -10z"/>
<path d="M656 431 c-71 -5 -91 -10 -102 -26 -25 -33 5 -35 137 -9 68 13 125
24 127 24 2 0 0 5 -3 10 -7 11 -17 11 -159 1z"/>
<path d="M7465 409 c-146 -18 -237 -25 -530 -39 -110 -5 -218 -14 -240 -19
-44 -10 -247 -28 -475 -41 -143 -8 -180 -14 -180 -31 0 -30 129 -24 480 22
148 19 356 32 535 34 105 1 269 7 365 13 319 21 346 26 318 59 -12 15 -157 16
-273 2z"/>
<path d="M5540 280 c-28 -16 -53 -20 -131 -20 -101 0 -159 -13 -159 -35 0 -8
3 -16 8 -18 16 -11 267 14 282 28 26 24 98 30 119 11 16 -15 32 -15 162 -5 79
6 152 15 162 20 41 22 11 29 -130 29 -82 0 -177 2 -213 5 -53 4 -71 2 -100
-15z"/>
<path d="M5007 225 c-48 -7 -129 -16 -180 -20 -103 -7 -130 -16 -110 -36 10
-10 41 -10 145 0 73 7 161 14 196 16 62 3 118 27 107 45 -8 12 -47 11 -158 -5z"/>
<path d="M4557 177 c-17 -12 -17 -14 -3 -26 22 -18 78 -5 74 17 -4 22 -47 27
-71 9z"/>
<path d="M4341 146 c-10 -11 -8 -16 9 -21 22 -7 53 11 44 26 -8 14 -40 11 -53
-5z"/>
<path d="M4175 140 c-16 -4 -63 -13 -102 -20 -75 -14 -92 -29 -54 -50 13 -6
28 -7 44 -1 14 6 54 15 89 21 73 14 94 26 77 46 -13 15 -12 15 -54 4z"/>
<path d="M3877 93 c-11 -10 -8 -43 3 -43 6 0 10 11 10 25 0 26 -2 29 -13 18z"/>
<path d="M3878 36 c-10 -7 -18 -19 -18 -25 0 -12 16 -10 70 11 24 10 24 11 5
18 -28 12 -38 11 -57 -4z"/>
</g>
</svg>
