<?xml version="1.0" standalone="no"?>
<!DOCTYPE svg PUBLIC "-//W3C//DTD SVG 20010904//EN"
 "http://www.w3.org/TR/2001/REC-SVG-20010904/DTD/svg10.dtd">
<svg version="1.0" xmlns="http://www.w3.org/2000/svg"
 width="1280.000000pt" height="642.000000pt" viewBox="0 0 1280.000000 642.000000"
 preserveAspectRatio="xMidYMid meet">
<metadata>
Created by potrace 1.15, written by Peter Selinger 2001-2017
</metadata>
<g transform="translate(0.000000,642.000000) scale(0.100000,-0.100000)"
fill="#000000" stroke="none">
<path d="M10940 6401 c-30 -10 -77 -22 -105 -26 -56 -7 -197 -53 -295 -95 -36
-15 -94 -40 -130 -55 -36 -15 -83 -40 -105 -56 -22 -15 -56 -37 -76 -48 -53
-29 -99 -76 -99 -101 0 -13 -14 -47 -31 -77 l-32 -55 13 -84 c21 -136 5 -197
-111 -417 -32 -61 -32 -87 -2 -87 10 1 67 14 127 29 60 16 115 27 122 24 18
-7 90 -121 105 -168 16 -49 46 -85 71 -85 11 0 35 -15 54 -34 20 -19 49 -38
65 -41 19 -4 53 -34 100 -86 42 -46 80 -79 91 -79 24 0 58 17 82 42 33 35 38
8 21 -98 -9 -54 -19 -120 -22 -146 -3 -30 -12 -53 -26 -66 -35 -32 -191 -77
-267 -76 -60 0 -72 5 -154 52 -50 29 -105 65 -124 80 -19 15 -41 32 -50 37
-104 67 -306 205 -337 230 -22 17 -51 38 -65 45 -14 7 -67 45 -117 83 -76 57
-93 74 -93 96 0 32 -23 119 -39 149 -8 15 -21 22 -42 22 -53 0 -27 22 53 47
96 29 130 62 160 156 27 82 48 99 80 62 16 -18 31 -25 60 -25 33 0 41 5 61 38
33 52 92 185 115 262 50 163 115 310 163 371 30 38 37 73 19 84 -6 4 -30 3
-53 0 -57 -10 -156 -107 -287 -281 -55 -72 -105 -135 -112 -140 -30 -22 -84
-34 -116 -25 -27 8 -42 4 -99 -26 -73 -38 -124 -73 -204 -140 l-51 -41 -41 19
c-48 21 -97 25 -114 8 -9 -9 -25 -7 -63 10 l-50 22 -35 -27 c-19 -14 -35 -30
-35 -35 0 -5 -19 -30 -42 -55 -41 -44 -43 -49 -42 -105 1 -50 6 -66 33 -104
38 -52 35 -73 -11 -99 -18 -11 -78 -47 -133 -81 -55 -34 -129 -77 -165 -95
-35 -18 -113 -66 -172 -106 -60 -41 -131 -85 -159 -100 -84 -42 -328 -124
-371 -124 -21 0 -48 -4 -58 -10 -10 -5 -89 -24 -177 -41 -153 -30 -433 -105
-579 -155 -39 -13 -78 -24 -87 -24 -29 0 -329 98 -371 122 -37 20 -202 51
-316 58 -491 31 -940 39 -1170 20 -195 -16 -196 -16 -270 3 -36 9 -105 22
-155 28 -49 7 -160 28 -245 46 -85 19 -204 41 -265 48 -60 8 -153 23 -205 34
-52 12 -112 21 -132 21 -21 0 -57 4 -80 9 -132 29 -269 51 -314 51 -28 0 -72
6 -97 14 -25 7 -48 12 -50 10 -7 -7 -240 16 -267 26 -14 5 -61 11 -105 14 -44
2 -123 14 -175 25 -52 12 -132 24 -178 28 -74 5 -85 9 -100 31 -41 61 -92 98
-150 110 -94 19 -110 16 -154 -28 -22 -22 -50 -40 -61 -40 -11 0 -39 20 -63
47 -33 36 -59 52 -106 69 -35 12 -94 33 -133 46 -121 44 -178 57 -280 68 -55
5 -118 13 -140 16 -36 5 -44 2 -78 -31 -20 -20 -37 -44 -37 -53 0 -31 72 -88
160 -129 91 -42 119 -68 185 -171 56 -86 80 -97 228 -97 64 0 117 -3 117 -8 0
-57 -216 -262 -334 -317 -79 -37 -136 -53 -167 -47 -23 4 -22 4 8 12 17 4 46
23 65 42 31 32 33 39 33 99 0 60 -3 68 -28 90 -15 13 -37 24 -47 24 -12 0 -26
13 -36 33 -9 17 -25 43 -35 56 -13 16 -19 40 -19 75 0 40 -7 63 -28 97 -33 51
-90 104 -124 114 -13 4 -41 20 -64 36 -22 15 -54 31 -70 35 -16 3 -55 18 -86
31 -53 24 -57 27 -52 53 6 29 -5 57 -32 84 -20 20 -93 21 -156 2 -33 -11 -77
-13 -160 -9 -121 6 -238 -11 -300 -43 -38 -20 -128 -103 -128 -118 0 -6 -13
-27 -28 -46 -44 -54 -122 -198 -143 -265 -29 -91 -26 -148 20 -388 22 -120 43
-159 105 -192 36 -19 36 -21 30 -65 -3 -25 -9 -58 -13 -75 -4 -16 -4 -75 -1
-130 3 -55 3 -143 -1 -195 -13 -152 -10 -335 6 -475 9 -71 18 -164 21 -205 5
-86 20 -225 34 -320 12 -84 22 -234 25 -385 1 -66 7 -156 13 -200 6 -44 11
-110 11 -148 1 -81 42 -262 71 -309 11 -18 20 -39 20 -45 0 -15 58 -109 110
-178 l38 -50 18 -290 c10 -159 18 -301 17 -315 -4 -186 -17 -364 -28 -400 -35
-117 -44 -220 -20 -240 16 -14 12 -65 -6 -85 -5 -5 -9 -21 -9 -36 0 -15 -4
-30 -9 -33 -4 -3 -11 -26 -13 -50 -3 -25 -15 -64 -27 -87 -22 -42 -22 -42 -2
-62 18 -19 24 -19 78 -7 137 29 267 39 538 40 154 1 303 6 330 11 60 11 144
23 280 38 55 7 125 16 155 21 30 5 87 12 125 15 39 4 129 16 200 26 72 11 178
26 236 34 58 8 182 30 275 49 93 19 176 34 184 34 8 0 39 7 68 16 29 8 83 18
120 22 37 4 92 15 122 26 30 11 125 32 210 48 201 38 305 67 482 134 231 87
256 91 588 102 186 5 262 12 430 34 88 12 211 28 293 36 l57 7 0 -45 0 -46
-75 -11 c-42 -6 -88 -11 -104 -11 -15 0 -41 -5 -58 -10 -28 -10 -421 -80 -453
-81 -8 0 -49 -7 -90 -14 -121 -23 -444 -61 -595 -70 -231 -15 -410 -42 -562
-87 -72 -21 -92 -41 -55 -52 10 -4 72 7 138 24 118 29 262 49 509 70 310 26
684 70 888 105 48 8 98 15 112 15 15 0 45 9 67 20 23 11 50 20 61 20 10 0 27
4 37 10 62 33 450 88 450 64 0 -5 -18 -17 -40 -26 -24 -10 -44 -26 -49 -41 -8
-19 -19 -25 -58 -31 -26 -3 -96 -18 -155 -32 -109 -26 -130 -41 -89 -63 22
-12 45 -8 446 74 237 48 279 57 380 80 180 42 421 77 680 100 166 15 283 27
422 45 45 6 185 17 311 25 252 15 365 31 359 49 -6 17 -64 18 -317 1 -238 -15
-264 -18 -380 -35 -36 -5 -137 -17 -225 -25 -88 -9 -216 -25 -285 -35 -69 -11
-188 -29 -265 -40 -77 -12 -194 -30 -260 -42 -66 -11 -151 -24 -190 -29 -38
-4 -116 -17 -173 -29 -56 -11 -107 -20 -112 -20 -20 0 -9 16 18 27 15 6 63 27
107 47 104 45 258 76 550 109 85 9 110 15 110 27 0 18 -24 18 -165 1 -52 -6
-129 -14 -170 -17 -41 -3 -154 -21 -250 -39 -172 -33 -411 -68 -417 -61 -2 2
9 25 25 52 25 43 34 51 78 62 48 12 166 30 254 38 200 17 451 48 479 59 11 4
11 9 -3 24 -16 18 -21 18 -59 6 -23 -8 -116 -20 -207 -28 -90 -8 -165 -18
-167 -24 -2 -5 -18 -7 -37 -5 -18 2 -78 -3 -133 -12 -133 -21 -153 -21 -153 3
0 22 97 235 175 381 30 58 82 141 116 185 33 44 69 97 80 117 22 42 37 46 92
23 50 -21 55 -20 93 22 l34 36 15 -35 c8 -20 17 -54 21 -77 8 -48 26 -66 79
-76 81 -14 79 -15 77 40 -1 46 0 48 11 24 17 -37 37 -59 53 -59 23 0 16 32
-13 62 -23 24 -24 28 -9 34 9 3 30 1 46 -6 33 -13 60 -8 60 12 0 7 -20 38 -45
68 -42 52 -49 64 -46 83 4 25 -35 80 -90 127 -103 88 -103 90 18 107 50 6 119
24 154 38 75 31 330 199 379 250 19 19 40 35 47 35 7 0 13 4 13 10 0 5 34 35
75 65 41 30 87 67 102 81 39 36 66 49 205 95 120 40 534 235 567 268 19 18
136 111 196 156 22 16 97 77 167 135 70 58 147 120 170 139 44 34 222 194 338
303 68 64 195 142 411 252 131 67 155 86 145 111 -4 12 -14 14 -41 9 -43 -8
-44 1 -4 42 34 35 34 64 -1 64 -24 0 -26 18 -5 46 39 52 0 111 -65 98 -33 -7
-33 -7 -27 23 4 19 1 38 -7 49 -12 16 -17 16 -47 4 -19 -7 -42 -22 -51 -32
-17 -20 -18 -19 -18 31 0 57 -13 71 -49 51 -19 -10 -111 -185 -111 -212 0 -7
-11 -37 -25 -67 -25 -53 -26 -53 -45 -36 -20 18 -21 18 -48 -6 -56 -50 -152
-154 -152 -167 0 -7 -8 -15 -17 -19 -10 -3 -40 -23 -68 -44 -27 -20 -63 -43
-80 -50 -16 -7 -55 -34 -85 -59 -30 -25 -82 -66 -115 -90 -33 -24 -85 -65
-116 -92 -31 -26 -60 -48 -64 -48 -4 0 -25 -15 -46 -32 -106 -91 -220 -164
-408 -261 l-154 -80 6 29 c3 16 17 70 32 119 14 50 34 151 45 225 10 74 23
155 29 180 6 25 11 111 11 192 l0 147 30 16 c16 8 36 15 44 15 9 0 23 11 32
25 9 14 46 39 83 57 36 17 99 54 139 82 40 28 88 61 105 73 115 79 191 143
407 344 l146 134 189 95 c104 52 217 112 252 133 34 20 69 37 77 37 8 0 27 11
43 24 15 13 53 36 83 51 30 15 87 50 126 76 39 27 73 49 77 49 4 0 7 -26 7
-58 0 -48 4 -62 23 -79 35 -33 61 -42 124 -47 89 -7 123 -26 241 -133 59 -54
130 -116 157 -138 57 -45 113 -92 200 -170 173 -155 214 -189 255 -213 25 -14
58 -36 74 -49 56 -46 118 -70 200 -77 84 -6 133 2 324 56 56 16 107 26 112 23
12 -7 13 -45 2 -45 -5 0 -19 -19 -31 -41 -13 -23 -45 -69 -70 -103 -25 -33
-91 -149 -145 -256 -54 -107 -107 -207 -117 -222 -11 -14 -19 -30 -19 -35 0
-7 -62 -132 -164 -328 -25 -48 -66 -136 -176 -375 -88 -193 -96 -212 -129
-305 -18 -49 -47 -120 -66 -156 -69 -132 -225 -436 -259 -505 -20 -39 -51 -94
-71 -122 -19 -28 -35 -55 -35 -59 0 -4 -15 -30 -33 -58 -19 -27 -53 -83 -76
-123 -23 -40 -61 -95 -84 -121 -23 -26 -64 -76 -92 -111 -59 -75 -87 -104
-180 -186 l-69 -61 12 -42 c12 -40 12 -42 -27 -100 -43 -63 -162 -178 -199
-192 -13 -5 -42 -22 -65 -38 -107 -73 -106 -73 -371 -76 -163 -2 -294 -10
-406 -23 -91 -11 -210 -26 -265 -32 -55 -6 -129 -18 -165 -25 -144 -30 -340
-47 -570 -49 -363 -4 -798 -36 -900 -66 -19 -6 -105 -26 -190 -46 -178 -42
-225 -60 -225 -89 0 -30 50 -24 170 17 61 22 155 44 240 57 77 12 213 33 303
47 146 24 165 25 180 11 13 -12 29 -13 75 -7 32 5 93 9 135 10 42 1 93 3 112
5 19 2 158 11 309 20 150 8 278 18 283 21 14 9 209 33 348 44 63 5 156 16 205
25 133 23 327 30 488 16 85 -7 170 -9 212 -4 66 8 70 9 70 33 0 22 -4 25 -29
22 -37 -4 -30 18 13 38 17 9 40 30 51 48 23 37 47 42 52 9 3 -21 6 -22 86 -19
45 2 82 0 82 -5 0 -5 -26 -17 -57 -28 -45 -15 -58 -25 -58 -40 0 -17 6 -20 45
-17 25 1 70 10 100 18 l54 16 21 -26 c17 -21 29 -26 66 -26 25 0 68 6 95 14
125 34 205 39 464 26 140 -7 307 -10 378 -6 70 4 200 8 289 11 90 2 167 6 172
9 5 3 78 8 162 12 85 3 157 8 161 11 14 8 163 25 275 32 112 6 130 11 118 30
-9 15 -105 14 -232 -4 -59 -8 -164 -19 -233 -25 -69 -6 -172 -15 -230 -21 -58
-5 -230 -12 -382 -14 -234 -4 -278 -2 -278 10 0 21 8 23 136 35 231 20 347 40
375 66 20 18 46 19 477 24 314 3 456 8 459 16 10 31 -419 45 -727 23 -74 -6
-216 -14 -315 -20 -239 -13 -409 -25 -467 -34 -33 -5 -48 -4 -48 3 0 6 15 13
33 16 118 18 240 36 287 41 30 4 72 11 93 16 39 10 186 31 222 31 11 0 61 7
110 14 50 8 115 14 145 14 52 0 144 14 275 40 93 19 91 18 73 36 -16 16 5 18
-303 -22 -66 -9 -154 -19 -195 -24 -41 -5 -111 -14 -155 -20 -44 -6 -114 -15
-155 -20 -213 -27 -391 -50 -445 -59 -33 -6 -117 -21 -187 -33 -122 -21 -128
-23 -128 -46 0 -21 -4 -23 -25 -18 -18 5 -25 2 -25 -8 0 -27 102 -34 228 -16
104 14 258 30 357 35 188 10 271 16 300 20 17 3 36 1 43 -3 7 -5 -32 -13 -95
-20 -135 -15 -459 -43 -470 -41 -4 1 -15 -1 -23 -4 -8 -4 -100 -13 -205 -21
-104 -7 -196 -15 -204 -17 -12 -3 -14 12 -12 86 2 49 5 93 8 97 2 5 22 5 44 2
38 -6 39 -6 54 32 53 135 154 290 200 310 26 11 32 18 28 34 -4 14 3 30 19 48
14 15 54 70 89 123 80 119 85 127 105 164 9 17 30 46 45 66 16 21 44 62 62 92
17 31 62 99 100 151 37 53 67 100 67 104 0 5 27 47 60 95 33 47 69 108 81 134
11 26 30 59 43 73 12 14 44 55 69 92 26 37 62 82 80 102 18 19 46 59 61 88 16
29 41 69 55 88 28 36 61 88 210 332 113 183 217 382 227 432 3 20 11 35 16 34
5 -2 39 -69 75 -148 36 -80 89 -197 118 -260 106 -230 117 -256 135 -315 39
-127 80 -235 142 -375 36 -80 81 -185 102 -235 20 -49 55 -128 76 -175 22 -47
53 -122 69 -167 17 -45 39 -100 50 -122 64 -124 130 -328 162 -501 22 -119 23
-116 -88 -247 -55 -65 -113 -126 -130 -136 -35 -20 -212 -57 -274 -57 -22 0
-75 -11 -117 -24 -98 -31 -122 -34 -597 -61 -55 -3 -122 -10 -150 -15 -27 -5
-117 -14 -200 -20 -82 -6 -161 -14 -175 -16 -79 -17 -158 -26 -360 -45 -63 -5
-153 -14 -200 -19 -47 -5 -150 -17 -230 -25 -236 -26 -370 -55 -370 -80 0 -24
20 -28 64 -11 30 12 65 15 117 13 41 -3 103 0 139 4 203 27 273 35 460 53 48
5 202 27 310 45 36 6 110 15 165 20 114 11 223 26 345 46 47 7 157 14 245 14
155 0 334 20 590 65 44 7 106 16 139 19 58 6 58 6 53 -19 -2 -15 3 -34 13 -46
17 -21 17 -21 81 -4 35 10 105 22 154 26 50 4 118 15 151 24 34 9 81 16 105
17 24 0 71 6 104 13 56 12 61 12 69 -5 5 -11 16 -19 25 -20 76 -3 150 -9 167
-14 24 -5 44 28 44 71 0 36 -31 85 -50 80 -8 -3 -45 -7 -82 -11 -72 -7 -91 5
-38 24 17 5 30 15 30 20 0 6 27 24 59 41 83 42 93 58 85 148 -6 67 -5 75 16
97 29 31 38 109 16 145 -8 14 -26 48 -39 75 -44 92 -74 102 -152 50 -20 -15
-43 -24 -50 -21 -7 2 -19 46 -27 98 -15 88 -52 259 -82 378 -8 30 -19 80 -25
110 -5 30 -24 118 -41 195 -17 77 -37 172 -45 210 -7 39 -36 138 -63 220 -61
185 -137 450 -152 530 -6 33 -16 78 -22 100 -6 23 -12 196 -14 405 -3 201 -11
445 -19 543 -8 98 -15 183 -15 188 0 5 42 29 93 53 51 24 120 66 157 97 77 64
94 82 120 131 24 44 14 83 -24 98 -13 5 -27 14 -31 19 -3 6 -13 11 -21 11 -8
0 -36 16 -61 35 -25 19 -50 35 -55 35 -6 0 -29 15 -51 33 -22 17 -84 61 -136
97 -61 41 -101 76 -110 95 -7 17 -21 44 -29 60 -9 17 -27 53 -41 80 -15 28
-36 65 -49 83 -13 18 -27 45 -32 60 -13 47 -122 213 -170 261 -61 59 -149 116
-204 130 -54 13 -76 34 -76 69 0 15 -8 49 -17 75 -16 45 -16 51 0 97 17 47 17
50 -2 82 -11 18 -22 46 -25 62 -3 16 -10 34 -16 40 -5 5 -10 24 -10 41 0 19
-8 39 -20 50 -13 12 -18 25 -14 40 8 33 -11 63 -51 80 -39 16 -45 34 -15 42
21 6 24 12 14 37 -4 11 -19 16 -50 16 -24 0 -44 2 -44 5 0 3 9 15 20 27 24 27
25 31 2 51 -29 26 -90 30 -152 8z m70 -61 c0 -14 -24 -23 -47 -17 -15 3 -14 6
7 15 32 14 40 14 40 2z m-382 -171 c4 -11 17 -25 29 -32 94 -53 148 -77 176
-77 35 -1 72 -28 100 -72 10 -16 24 -28 32 -28 15 0 110 -92 126 -122 7 -13 4
-21 -15 -33 -30 -20 -43 -53 -51 -131 -8 -76 -16 -89 -48 -80 -37 9 -56 -18
-32 -44 22 -24 72 -26 97 -3 17 15 18 15 18 -1 0 -21 -12 -44 -59 -116 -36
-55 -57 -103 -93 -220 -48 -153 -158 -310 -205 -293 -10 3 -45 34 -79 68 -34
34 -74 65 -90 69 -62 16 -60 61 7 133 50 55 99 138 99 168 0 8 -8 15 -18 15
-13 0 -41 -33 -86 -100 -89 -134 -110 -133 -188 7 -13 23 -39 66 -59 95 -20
29 -43 73 -52 98 -21 63 -43 60 -39 -6 l3 -51 -58 -18 c-32 -10 -64 -20 -72
-23 -20 -7 -11 25 38 136 34 76 41 103 41 156 0 35 -7 83 -15 107 -13 35 -13
53 -5 95 16 77 98 180 167 210 17 8 34 18 37 23 4 5 50 23 104 40 53 17 104
35 112 41 27 18 70 12 78 -11z m-898 -424 c11 -41 11 -48 -5 -65 -24 -26 -36
-14 -45 45 -6 36 -4 48 9 55 25 15 28 13 41 -35z m-132 23 c15 -19 33 -188 26
-244 -11 -80 -29 -96 -141 -128 -126 -36 -161 -33 -178 14 -18 51 -35 148 -28
165 3 9 34 31 69 51 35 20 76 49 91 66 68 73 136 106 161 76z m1531 -47 c11
-25 9 -35 -14 -77 l-26 -49 6 49 c3 27 5 64 5 83 0 39 12 37 29 -6z m96 -41
c8 -16 15 -47 15 -70 0 -34 -6 -47 -40 -80 -22 -22 -40 -43 -40 -49 0 -12 -58
-32 -64 -22 -6 9 100 251 110 251 2 0 10 -13 19 -30z m-2183 -46 c3 -3 1 -21
-5 -40 -17 -56 4 -63 41 -13 32 43 34 43 47 -14 8 -36 25 -31 39 13 8 25 17
35 31 35 17 0 21 -9 28 -60 5 -33 22 -100 38 -150 16 -49 32 -99 35 -110 4
-14 -7 -39 -30 -74 -20 -29 -36 -61 -36 -70 0 -10 -9 -26 -20 -36 -18 -16 -20
-16 -26 -1 -3 9 -11 16 -18 16 -31 0 -241 249 -266 315 -12 31 -6 70 13 94 9
11 20 3 58 -40 38 -43 50 -51 60 -42 10 10 9 16 -4 31 -27 29 -57 128 -44 141
11 11 50 15 59 5z m798 -24 c0 -5 -4 -10 -10 -10 -5 0 -10 5 -10 10 0 6 5 10
10 10 6 0 10 -4 10 -10z m1576 -128 c120 -78 191 -173 365 -482 83 -150 248
-304 411 -386 76 -38 118 -72 112 -89 -4 -8 -23 -23 -43 -32 -20 -9 -66 -47
-104 -83 -37 -36 -83 -78 -102 -93 -60 -49 -272 -103 -692 -177 -60 -10 -191
-26 -314 -37 -63 -5 -83 8 -77 54 3 25 13 31 107 70 58 23 134 62 170 87 88
60 196 169 188 190 -9 23 -23 20 -64 -17 -162 -143 -434 -267 -763 -348 -168
-42 -220 -30 -413 100 -104 70 -138 99 -228 196 -25 28 -115 111 -200 185 -84
74 -179 161 -211 193 -47 47 -71 63 -130 83 -47 17 -83 23 -103 20 -20 -4 -38
-1 -50 9 -19 15 -19 16 17 46 46 38 103 115 112 151 7 31 57 118 68 118 4 0 9
-21 13 -47 3 -27 14 -75 24 -108 18 -55 21 -60 47 -58 17 1 39 -7 59 -25 17
-15 85 -65 150 -112 65 -47 161 -117 214 -155 160 -118 397 -283 432 -300 23
-12 45 -16 75 -11 45 6 250 77 296 102 81 44 325 118 362 108 32 -8 42 12 19
38 -16 18 -25 20 -95 14 -42 -3 -95 -13 -119 -21 l-42 -15 7 46 c10 73 33 109
128 199 104 98 111 120 36 120 -30 0 -53 7 -66 18 -48 44 33 199 156 301 90
74 117 104 132 149 15 49 39 49 116 -1z m-10516 -76 c-1 -6 -7 -39 -14 -74 -8
-34 -11 -64 -7 -66 3 -2 33 -11 66 -21 93 -26 257 -110 311 -158 l48 -44 -48
-114 c-26 -63 -60 -134 -77 -159 -31 -46 -35 -83 -9 -88 9 -1 48 25 88 59 84
73 122 83 177 49 40 -25 54 -73 35 -120 -13 -30 -32 -39 -122 -56 -44 -7 -50
-29 -13 -46 32 -14 27 -32 -9 -36 -18 -2 -36 4 -51 18 -19 18 -37 22 -105 24
-66 1 -84 5 -92 19 -18 34 -52 38 -150 17 -51 -11 -103 -20 -116 -20 -39 0
-101 39 -159 101 -31 32 -64 59 -73 59 -9 0 -25 9 -35 20 -28 31 -155 27 -155
-5 0 -7 14 -18 30 -24 17 -5 33 -16 35 -23 5 -13 61 -57 164 -129 25 -18 40
-34 34 -40 -5 -5 -55 -26 -111 -47 -99 -38 -142 -64 -142 -86 1 -6 17 -23 37
-39 41 -30 41 -30 149 13 109 45 339 102 419 105 39 1 96 8 128 15 31 7 60 10
64 6 4 -3 -10 -20 -30 -37 -78 -64 -23 -64 121 0 51 22 107 41 125 41 17 0 67
11 109 25 120 38 138 48 265 148 74 58 116 100 163 164 l63 87 24 -30 c13 -16
44 -52 69 -81 24 -28 44 -56 44 -61 0 -12 -70 -101 -137 -175 -29 -32 -53 -62
-53 -66 0 -17 -122 -93 -226 -141 -111 -53 -342 -120 -408 -120 -21 0 -46 -5
-56 -10 -12 -7 -141 -11 -339 -11 -276 0 -321 -2 -332 -16 -11 -13 -10 -18 8
-33 19 -15 46 -16 285 -13 144 3 279 9 298 14 19 5 55 9 80 9 66 1 264 54 423
114 37 14 80 26 95 26 39 0 125 -88 242 -250 119 -166 184 -314 204 -470 6
-50 11 -251 8 -347 l-2 -63 -77 -40 c-111 -58 -242 -138 -304 -187 -206 -161
-305 -231 -399 -283 -36 -20 -74 -41 -85 -47 -63 -35 -363 -140 -530 -184
-128 -34 -290 -42 -412 -20 l-72 13 -6 56 c-3 31 -10 89 -15 127 -48 353 -60
468 -60 557 0 46 -7 133 -15 193 -46 329 -56 645 -26 790 6 28 14 73 17 100 4
28 17 73 31 102 21 46 23 57 14 111 -9 58 -50 154 -71 167 -5 3 -10 10 -10 15
0 5 19 -4 43 -19 53 -36 105 -51 136 -39 l24 8 -24 27 c-13 14 -39 32 -58 40
-18 8 -52 26 -75 41 -22 15 -47 27 -55 27 -14 0 -25 15 -35 48 -3 9 -17 22
-30 27 -57 21 -64 119 -14 212 34 65 179 224 234 258 75 47 210 63 289 35 48
-17 114 -10 135 15 38 45 111 69 110 36z m830 -111 c47 -24 100 -49 118 -56
43 -15 50 -31 58 -127 5 -60 3 -86 -6 -97 -13 -15 -77 -21 -95 -7 -6 4 -37 46
-68 94 -82 124 -101 144 -162 172 -53 24 -69 48 -47 70 17 18 120 -7 202 -49z
m7258 -52 c113 -122 135 -152 121 -169 -16 -20 -243 -168 -329 -216 -36 -20
-132 -71 -215 -113 -199 -103 -275 -161 -557 -421 -92 -85 -240 -186 -544
-370 -18 -10 -53 -32 -79 -48 -32 -20 -49 -26 -57 -18 -6 6 -14 49 -19 97 -10
101 -32 182 -65 245 -13 25 -24 48 -24 51 0 4 -44 53 -97 109 -54 56 -98 110
-98 119 0 20 89 48 290 92 83 18 166 39 185 47 36 15 81 25 185 42 33 5 78 16
100 24 22 8 53 15 69 16 34 0 193 47 222 65 11 7 43 20 71 28 69 21 138 57
267 141 61 40 172 109 246 152 74 43 164 100 199 126 35 27 69 48 74 48 6 0
31 -21 55 -47z m432 15 c0 -23 -102 -213 -126 -235 -36 -33 -55 -21 -48 31 6
42 71 163 105 197 21 21 69 26 69 7z m-7204 -62 c3 -8 -2 -28 -10 -45 -24 -45
-4 -46 50 -1 52 43 65 47 82 27 8 -10 -1 -21 -39 -46 -43 -30 -61 -51 -43 -51
4 0 30 13 59 30 28 16 55 27 58 23 16 -15 4 -34 -32 -53 -22 -11 -43 -25 -47
-31 -10 -17 67 -1 88 18 19 17 49 14 56 -6 5 -15 -104 -121 -125 -121 -8 0
-38 -23 -68 -51 -30 -28 -58 -48 -64 -45 -14 9 -101 133 -101 145 0 5 16 37
35 70 19 33 44 80 55 105 19 46 36 58 46 32z m-175 -115 c-7 -16 -21 -37 -31
-46 -17 -15 -18 -14 -29 16 -15 42 -14 92 1 107 10 10 19 6 42 -17 27 -27 28
-32 17 -60z m579 -36 c63 -9 122 -18 131 -20 18 -6 201 -38 345 -60 51 -8 118
-22 150 -30 32 -8 95 -15 141 -15 45 0 129 -7 185 -14 57 -8 175 -25 263 -36
88 -12 189 -28 225 -36 36 -8 83 -19 105 -23 22 -4 103 -22 180 -39 77 -16
181 -38 230 -47 50 -9 124 -22 165 -30 131 -26 416 -37 725 -30 160 4 293 9
296 11 16 9 508 4 577 -7 134 -20 371 -92 510 -156 41 -18 77 -33 81 -33 19 0
158 -114 193 -157 49 -61 67 -125 67 -238 0 -49 9 -139 19 -200 18 -99 18
-112 4 -127 -8 -10 -24 -18 -34 -18 -22 0 -125 47 -133 61 -4 5 -15 9 -26 9
-23 0 -175 74 -204 99 -23 20 -136 52 -180 50 -16 0 -79 9 -140 20 -228 43
-557 22 -780 -49 -49 -15 -135 -41 -190 -56 -55 -15 -131 -40 -168 -56 -66
-26 -69 -27 -87 -10 -23 21 -145 62 -185 62 -15 0 -44 4 -64 10 -82 21 -261
60 -335 72 -77 12 -79 12 -97 -11 -19 -23 -19 -24 2 -60 43 -71 72 -131 66
-137 -3 -3 -50 26 -104 65 -544 394 -856 598 -1045 686 -184 85 -392 136 -713
174 -100 12 -130 18 -290 54 -130 29 -247 68 -252 84 -4 11 49 59 157 145 35
28 58 55 64 76 5 18 14 32 20 32 6 0 63 -7 126 -15z m8353 -87 c13 -20 2 -48
-18 -48 -11 0 -15 10 -15 36 0 37 14 42 33 12z m-8664 -252 c117 -52 382 -105
636 -126 314 -27 558 -113 871 -309 118 -74 230 -149 263 -177 20 -16 83 -63
141 -104 58 -41 131 -93 163 -116 31 -24 85 -59 120 -80 34 -20 71 -45 82 -55
11 -9 48 -32 82 -49 53 -28 69 -43 103 -97 37 -59 47 -83 36 -83 -3 0 -20 9
-38 19 -40 24 -234 91 -343 119 -346 89 -474 127 -582 172 -142 61 -369 179
-394 206 -12 13 -29 24 -37 24 -8 0 -26 8 -40 19 -67 47 -110 61 -177 59 l-67
-2 -39 46 c-39 47 -98 78 -145 78 -24 0 -26 -3 -21 -27 3 -16 9 -37 13 -47 6
-17 4 -18 -22 -12 -16 4 -66 13 -112 22 -46 8 -110 23 -142 34 -105 35 -122
21 -59 -48 46 -50 131 -108 183 -126 60 -21 38 -31 -76 -37 -146 -8 -174 -16
-257 -76 -28 -20 138 -58 287 -65 86 -5 59 -22 -45 -30 -167 -12 -233 -36
-195 -71 29 -26 70 -37 142 -37 38 0 71 -4 75 -9 3 -5 -21 -15 -52 -21 -78
-16 -103 -27 -103 -45 0 -38 311 0 437 54 39 17 88 40 108 52 l36 21 42 -28
c23 -16 61 -38 84 -50 23 -11 61 -35 85 -52 23 -18 70 -52 103 -77 132 -97
244 -171 358 -233 110 -59 210 -98 228 -87 4 3 25 -2 48 -10 22 -7 71 -21 108
-30 70 -18 259 -98 372 -159 97 -52 180 -125 180 -159 1 -16 11 -36 26 -49 28
-24 31 -44 13 -82 -8 -19 -16 -24 -33 -20 -30 7 -175 -43 -205 -71 -14 -13
-40 -25 -59 -27 -29 -3 -38 -11 -71 -65 -21 -36 -40 -81 -44 -108 -3 -26 -15
-64 -26 -84 -54 -98 -71 -170 -77 -318 -4 -92 -2 -157 5 -181 35 -120 48 -153
97 -256 29 -62 58 -139 64 -172 14 -74 66 -376 80 -469 7 -38 23 -121 38 -183
14 -62 24 -115 21 -117 -2 -3 -108 -9 -234 -15 -126 -6 -272 -15 -324 -21
-215 -26 -522 -34 -683 -20 -98 9 -123 9 -152 -3 -36 -15 -40 -38 -8 -50 21
-9 674 0 696 9 9 4 17 3 17 -2 0 -6 -28 -22 -62 -37 -105 -44 -105 -44 -353
-80 -212 -31 -352 -57 -410 -76 -33 -10 -123 -31 -200 -45 -77 -14 -174 -33
-215 -41 -41 -8 -106 -19 -145 -24 -38 -5 -113 -17 -165 -25 -171 -28 -274
-44 -315 -49 -22 -3 -82 -12 -133 -21 -51 -8 -98 -13 -103 -9 -5 3 -50 0 -100
-7 l-90 -13 -97 34 c-53 18 -142 55 -197 81 -55 25 -121 55 -148 64 l-47 18 0
71 c0 97 23 283 53 421 8 39 20 104 26 145 23 144 51 277 72 336 11 32 28 86
36 119 23 95 26 99 134 181 157 118 351 295 426 388 134 165 168 215 232 341
21 40 46 74 60 81 13 7 89 15 170 18 80 4 173 9 207 12 l61 5 7 -108 c4 -59
15 -139 26 -178 30 -114 81 -258 101 -287 11 -14 19 -30 19 -36 0 -5 16 -30
35 -56 30 -39 41 -46 70 -46 28 0 41 -9 79 -52 26 -30 53 -74 62 -103 23 -70
40 -100 81 -146 32 -36 40 -39 87 -39 70 0 129 30 265 133 63 47 128 92 145
100 200 91 212 99 200 130 -3 8 -40 26 -82 40 -109 38 -286 47 -411 22 -74
-15 -92 -16 -105 -6 -9 8 -16 19 -16 25 -1 6 -14 27 -30 46 l-30 34 24 26 c49
52 50 63 10 141 -42 84 -55 152 -59 309 -4 159 -15 238 -37 287 -24 52 -167
200 -233 242 -27 17 -63 31 -79 31 -17 0 -60 9 -95 20 -34 11 -112 24 -172 30
-61 5 -114 12 -119 15 -13 8 -13 56 1 110 8 32 8 71 0 145 -8 69 -8 115 -1
146 10 45 7 69 -49 372 -6 32 -29 85 -59 135 -27 45 -51 89 -54 97 -14 38
-164 224 -228 281 l-72 63 26 21 c14 11 56 42 94 70 38 27 84 69 103 95 53 71
123 150 133 150 5 0 43 -15 85 -34z m-1321 -148 c-4 -10 -106 -34 -157 -37
-26 -2 -1 13 52 30 64 21 110 24 105 7z m11004 -493 c3 -71 11 -188 17 -260 6
-71 13 -240 16 -375 9 -356 31 -700 49 -728 3 -6 11 -53 16 -104 23 -212 57
-445 69 -466 26 -48 36 -20 33 94 l-3 109 25 -59 c14 -32 24 -62 23 -65 -1 -3
6 -26 15 -51 17 -48 48 -203 48 -243 0 -13 11 -69 25 -123 14 -55 27 -112 30
-129 6 -35 25 -104 66 -232 16 -51 29 -109 29 -130 1 -21 8 -69 16 -108 8 -38
17 -81 20 -95 4 -21 -5 -34 -56 -79 -65 -57 -100 -70 -191 -71 -55 0 -57 3
-89 150 -28 131 -67 249 -165 495 -46 115 -99 251 -118 300 -20 50 -69 160
-110 245 -41 85 -82 178 -90 206 -8 28 -25 70 -36 93 -12 23 -33 83 -46 134
-33 123 -50 162 -193 444 -67 134 -122 248 -122 254 0 5 -20 35 -44 65 -52 63
-71 112 -62 163 4 27 -1 50 -20 91 -14 30 -29 73 -34 95 -15 79 -32 142 -66
249 -19 60 -33 110 -32 111 2 2 48 6 103 9 55 3 123 10 150 15 28 5 84 15 125
21 41 6 104 18 140 25 36 7 97 16 135 19 39 4 113 19 165 35 52 16 109 28 125
28 l30 -2 7 -130z m-8944 89 c25 -17 28 -36 8 -53 -14 -11 -29 3 -60 57 -10
18 25 15 52 -4z m-228 -19 c44 -3 124 -37 170 -74 57 -45 58 -45 96 -12 26 24
44 31 74 31 22 0 40 -4 40 -9 0 -5 -19 -32 -42 -59 -25 -29 -58 -87 -78 -135
l-35 -85 -81 -43 c-57 -31 -86 -40 -100 -35 -18 8 -18 8 -1 19 51 33 54 39 12
33 -152 -22 -295 -15 -295 14 0 11 17 16 110 30 227 36 280 49 280 69 0 5 -71
11 -157 14 -154 5 -260 22 -256 42 4 23 100 36 255 33 191 -4 203 2 128 61
-30 24 -63 41 -78 41 -38 1 -164 52 -170 69 -4 11 5 12 44 6 27 -4 65 -9 84
-10z m5916 -77 c-3 -13 -6 -30 -6 -38 0 -9 -21 -51 -46 -93 -35 -58 -44 -81
-35 -90 12 -12 29 4 58 58 22 42 100 150 118 165 12 10 15 9 16 -6 2 -34 -2
-45 -38 -101 -52 -81 -96 -181 -89 -200 6 -14 10 -13 34 9 81 75 232 152 248
126 3 -5 4 -11 3 -12 -2 -2 -30 -24 -62 -50 -32 -25 -99 -67 -148 -91 -49 -25
-89 -50 -89 -56 0 -6 6 -9 13 -6 141 60 212 86 219 79 5 -5 3 -14 -5 -20 -13
-11 -120 -58 -202 -89 -22 -8 -54 -22 -72 -30 -32 -16 -33 -15 -72 20 -24 21
-55 39 -78 43 -62 11 -66 20 -30 67 18 24 39 53 48 66 18 28 35 22 49 -15 14
-36 26 -29 45 24 10 26 30 74 45 107 15 33 33 78 40 100 16 50 19 55 32 55 6
0 8 -10 4 -22z m-5394 -29 c29 -11 97 -47 150 -80 163 -100 238 -135 453 -211
142 -49 221 -74 285 -88 370 -81 555 -154 660 -261 55 -57 148 -113 177 -107
11 2 7 15 -20 53 -20 28 -56 79 -81 115 -25 36 -69 92 -97 125 -27 33 -75 105
-106 160 -31 55 -67 115 -80 133 l-24 32 25 0 c40 0 344 -68 431 -97 90 -29
247 -105 342 -165 77 -49 177 -155 209 -223 13 -28 29 -82 35 -121 11 -63 11
-76 -4 -107 -9 -19 -17 -39 -17 -45 0 -19 -82 -187 -112 -228 -16 -23 -35 -58
-42 -78 l-13 -36 -19 35 c-28 52 -48 42 -55 -26 -7 -62 -44 -139 -67 -139 -8
0 -30 11 -48 25 -18 14 -35 25 -38 25 -13 0 -4 -28 14 -45 21 -19 27 -45 10
-45 -5 0 -31 5 -57 12 -27 6 -65 15 -86 20 -34 8 -42 16 -64 64 -19 43 -33 59
-66 75 -23 12 -54 33 -69 47 -24 22 -33 24 -72 19 l-46 -7 -77 81 c-125 130
-188 170 -488 303 -77 35 -178 75 -225 91 -47 15 -97 34 -112 41 -15 8 -43 14
-63 14 -52 0 -222 93 -265 145 -7 9 -35 27 -61 40 -25 13 -82 48 -125 78 -44
30 -84 56 -89 58 -6 2 -48 29 -93 59 -94 63 -98 73 -59 162 24 54 72 118 88
118 4 0 32 -9 61 -21z m7627 -44 c11 -30 23 -67 27 -82 9 -45 52 -189 91 -308
49 -151 53 -209 20 -277 -14 -29 -39 -87 -57 -128 -17 -41 -48 -104 -69 -140
-21 -36 -75 -130 -121 -210 -45 -80 -101 -172 -123 -205 -23 -33 -79 -117
-127 -187 -47 -69 -120 -172 -163 -228 -43 -57 -99 -144 -123 -193 -25 -50
-69 -123 -99 -162 -30 -39 -55 -75 -55 -80 0 -5 -21 -41 -46 -80 -25 -38 -79
-121 -120 -184 -41 -63 -74 -116 -74 -119 0 -17 -412 -573 -452 -609 -18 -16
-23 -16 -85 0 -67 18 -174 67 -205 94 -18 16 -10 29 103 157 42 47 217 282
300 401 31 44 87 141 126 215 38 74 112 212 163 305 110 202 130 240 130 256
0 7 6 20 14 28 8 9 35 66 61 126 26 61 60 135 75 165 39 74 146 309 155 340 4
14 46 99 94 190 48 91 114 224 146 295 162 355 342 675 380 675 7 0 23 -25 34
-55z m-1994 25 c12 -19 -46 -85 -111 -127 -101 -65 -106 -60 -33 32 71 91 125
126 144 95z m-2552 -85 l49 -6 40 -87 c57 -123 88 -208 88 -240 0 -16 4 -32
10 -38 5 -5 14 -59 20 -119 10 -111 8 -136 -30 -290 -12 -50 -13 -162 -1 -169
8 -6 24 23 47 87 21 58 44 217 44 302 0 153 -82 410 -168 524 l-25 34 43 -7
c45 -7 141 -35 225 -65 159 -58 306 -116 350 -137 43 -22 54 -24 79 -14 46 17
48 12 47 -130 0 -204 -28 -358 -117 -650 -54 -176 -70 -216 -137 -333 -72
-128 -122 -188 -220 -258 -40 -29 -95 -73 -124 -98 -145 -130 -282 -226 -383
-270 -30 -13 -63 -27 -72 -32 -30 -15 -47 -11 -41 11 3 12 -11 46 -39 92 -46
75 -84 146 -99 186 -7 19 -3 26 34 49 71 46 159 133 210 206 26 39 77 101 112
139 67 73 191 250 197 283 2 11 -3 21 -13 23 -10 2 -25 -15 -44 -50 -39 -73
-87 -138 -178 -242 -43 -49 -90 -109 -104 -135 -46 -80 -72 -108 -137 -151
-97 -62 -117 -62 -201 0 -38 29 -107 70 -152 91 -46 21 -83 41 -83 44 0 4 9
19 19 34 33 47 89 182 107 261 33 144 17 439 -33 615 -41 148 -89 206 -253
313 -96 63 -112 76 -95 83 31 12 232 60 315 76 41 8 103 23 138 34 94 29 183
41 320 44 68 2 126 5 128 8 3 3 22 1 42 -3 20 -4 59 -11 85 -15z m2054 -307
c70 -62 76 -71 60 -90 -14 -17 -183 -169 -297 -267 -83 -72 -104 -89 -140
-123 -64 -60 -430 -351 -495 -394 -102 -69 -322 -184 -442 -233 -29 -11 -76
-30 -104 -42 -28 -11 -59 -19 -69 -17 -17 3 -14 12 27 73 52 81 112 203 141
290 19 56 23 61 69 80 27 11 62 29 78 41 17 11 59 36 95 54 113 59 394 232
405 250 3 6 43 34 88 64 45 30 133 95 195 146 104 83 151 117 266 192 22 14
47 27 53 27 7 1 39 -22 70 -51z m-6241 -517 c-18 -152 -164 -603 -220 -675
-13 -17 -33 -51 -46 -76 -12 -25 -39 -65 -59 -90 -20 -24 -59 -78 -87 -120
-117 -172 -354 -376 -459 -394 -52 -10 -85 -31 -85 -57 0 -11 -6 -32 -14 -47
-7 -15 -24 -65 -36 -112 -53 -199 -78 -297 -84 -335 -4 -22 -18 -74 -31 -115
-32 -105 -69 -351 -81 -545 -4 -60 -11 -118 -16 -129 -10 -18 -20 -18 -181
-11 -140 5 -178 10 -209 26 -27 14 -38 26 -38 42 1 57 29 357 34 365 3 6 1
120 -5 254 -5 133 -11 299 -12 367 -2 119 -1 124 21 139 l22 15 -36 46 c-21
25 -47 56 -60 68 -12 12 -52 71 -88 132 -78 130 -87 172 -83 381 l2 135 50 -1
c28 0 94 -10 149 -22 54 -12 126 -22 159 -22 104 0 251 44 420 125 159 76 246
130 462 289 72 53 166 121 210 151 44 31 98 70 120 86 188 139 271 196 279
191 5 -2 5 -30 2 -61z m3509 19 c11 -18 7 -254 -5 -305 -16 -65 -75 -191 -133
-284 l-46 -74 -100 -4 -101 -5 -20 36 c-12 19 -30 38 -40 41 -10 3 -21 12 -24
20 -4 10 -20 15 -51 15 -53 0 -85 14 -85 36 0 14 15 15 133 9 79 -4 143 -13
159 -21 37 -19 48 -18 48 6 0 11 -7 20 -16 20 -8 0 -24 5 -34 10 -19 10 -18
12 5 46 13 19 27 44 30 55 5 13 12 18 24 14 18 -6 64 51 90 110 24 57 103 196
108 191 3 -2 -9 -60 -25 -128 -39 -158 -43 -181 -32 -198 16 -25 28 0 56 120
22 93 32 180 34 293 0 10 18 9 25 -3z m-3160 -178 c78 -13 171 -46 215 -77 19
-13 61 -50 92 -82 86 -88 110 -166 123 -408 6 -104 20 -175 45 -225 36 -73 36
-74 -32 -126 -145 -110 -202 -147 -207 -133 -2 7 -18 40 -36 73 -45 86 -81
203 -100 331 -15 102 -37 171 -69 220 -13 19 -19 20 -97 12 -46 -4 -142 -10
-212 -12 -145 -5 -151 -2 -124 63 33 79 96 301 97 338 0 40 18 46 135 40 61
-2 137 -9 170 -14z m2303 -322 c23 -17 42 -35 42 -40 0 -6 6 -10 14 -10 7 0
24 -9 37 -19 40 -31 201 -121 216 -121 8 0 17 9 20 20 7 27 17 25 38 -6 15
-24 18 -24 34 -10 16 15 19 14 32 -10 13 -25 16 -26 76 -20 61 6 63 6 63 -16
0 -12 -21 -89 -46 -171 -25 -82 -54 -188 -65 -236 -10 -47 -22 -96 -25 -109
-6 -19 3 -33 47 -74 116 -109 267 -218 303 -218 16 0 16 2 2 22 -11 16 -16 46
-16 103 0 44 -5 109 -11 144 -15 93 -3 109 27 36 38 -93 55 -177 44 -216 -6
-19 -10 -44 -10 -57 0 -14 -38 -78 -89 -150 -49 -70 -106 -156 -127 -192 -20
-36 -48 -83 -61 -105 -49 -84 -93 -184 -125 -282 -18 -57 -37 -103 -43 -103
-6 0 -11 33 -13 83 -1 45 -8 132 -16 192 -8 61 -18 154 -22 205 -9 124 -14
134 -66 126 -22 -4 -56 -4 -75 0 -33 6 -35 9 -30 38 3 17 14 56 25 86 43 117
71 328 45 337 -18 6 -30 -25 -42 -111 -13 -92 -67 -285 -85 -304 -11 -11 -20
-7 -50 21 -73 70 -114 54 -139 -55 -9 -40 -42 -183 -72 -318 -66 -293 -73
-317 -85 -325 -21 -13 -48 58 -59 153 -6 53 -14 113 -16 132 -5 40 -38 252
-59 380 -13 78 -51 204 -78 257 -8 17 -8 27 4 45 7 13 26 57 41 98 15 41 37
91 48 110 84 148 122 251 100 273 -18 18 -31 -3 -47 -75 -15 -67 -46 -128 -65
-128 -7 0 -10 35 -8 110 4 115 -5 146 -34 121 -22 -18 -28 -97 -17 -210 l11
-104 -36 -74 c-29 -63 -37 -73 -50 -63 -24 20 -29 74 -10 104 11 16 18 48 19
81 1 57 -12 75 -29 38 -5 -13 -16 -23 -23 -23 -10 0 -12 22 -8 98 6 136 32
219 108 345 35 57 88 97 129 97 20 0 38 20 64 73 l20 41 60 -2 c33 -1 67 2 75
8 27 18 66 11 108 -20z m826 -272 c76 -71 93 -93 128 -167 55 -119 120 -282
114 -288 -11 -11 -194 137 -209 169 -56 119 -147 342 -147 360 0 23 36 0 114
-74z m-164 -59 c15 -42 33 -205 45 -414 4 -55 9 -115 12 -132 7 -45 -6 -42
-80 17 -34 28 -79 65 -101 82 -43 35 -42 20 -7 188 38 180 84 314 105 307 6
-2 18 -23 26 -48z m114 -132 c3 -13 35 -85 71 -160 36 -74 65 -144 65 -155 0
-11 -8 -30 -18 -43 l-19 -22 -18 67 c-10 37 -22 69 -27 72 -4 3 -8 15 -8 27 0
12 -16 69 -35 126 -19 57 -35 108 -35 113 0 17 18 -2 24 -25z m343 -41 c22
-41 43 -90 46 -110 5 -32 3 -37 -18 -42 -13 -3 -28 -3 -33 0 -5 3 -23 45 -40
93 -48 137 -47 133 -19 133 19 0 31 -14 64 -74z m-2920 -252 c21 -26 48 -58
59 -73 l22 -26 108 24 c60 14 140 26 179 29 96 5 235 -24 220 -47 -2 -5 -28
-16 -57 -26 -63 -20 -191 -100 -268 -166 -57 -49 -130 -88 -165 -89 -32 0
-111 88 -143 160 -17 36 -46 87 -66 115 -39 55 -44 76 -21 95 16 14 76 47 87
49 4 0 24 -20 45 -45z m3013 -218 c0 -14 -4 -26 -8 -26 -11 0 -92 127 -92 143
0 7 23 -11 50 -40 34 -34 50 -60 50 -77z m-231 40 c13 -54 14 -66 2 -66 -13 0
-44 97 -36 110 11 17 22 3 34 -44z m137 -62 c17 -25 54 -162 54 -199 0 -18 -1
-18 -17 -3 -18 19 -85 207 -77 220 9 15 23 9 40 -18z m-202 -10 c3 -9 6 -30 6
-47 -1 -30 -1 -31 -15 -13 -16 22 -20 76 -6 76 5 0 12 -7 15 -16z m316 -24 c0
-5 -7 -10 -16 -10 -8 0 -12 5 -9 10 3 6 10 10 16 10 5 0 9 -4 9 -10z m-1206
-195 c20 -9 39 -22 42 -29 8 -20 51 -36 110 -40 66 -4 74 -10 74 -52 0 -19 6
-78 14 -132 8 -53 15 -104 15 -112 1 -8 6 -68 11 -134 12 -138 9 -146 -57
-146 -24 0 -97 -9 -161 -19 -98 -17 -226 -34 -267 -36 -12 0 -12 0 31 130 17
55 38 127 44 160 7 33 23 103 35 155 13 52 26 120 29 150 8 64 24 120 36 120
4 0 24 -7 44 -15z m7586 -403 c0 -13 -12 -22 -22 -16 -10 6 -1 24 13 24 5 0 9
-4 9 -8z m-40 -87 c0 -3 -9 -23 -19 -44 -22 -42 -65 -79 -195 -169 l-89 -62
-84 0 c-45 0 -83 3 -83 6 0 4 12 21 28 39 15 18 61 76 102 128 l75 96 100 3
c55 2 115 5 133 6 17 1 32 0 32 -3z m252 -40 c17 -37 0 -50 -46 -35 -43 14
-44 20 -8 42 36 23 40 22 54 -7z m-3437 -84 c61 -31 110 -62 110 -70 0 -7 -16
-23 -36 -34 -35 -20 -42 -21 -138 -10 -132 15 -136 18 -104 91 26 59 41 83 52
81 3 0 56 -26 116 -58z m131 -132 c9 -16 -12 -33 -31 -25 -14 5 -15 9 -5 21
15 18 26 19 36 4z m-181 -19 c60 -6 113 -14 118 -19 5 -5 -3 -22 -20 -40 -28
-31 -28 -31 -93 -21 -36 5 -109 10 -162 10 -100 0 -120 8 -96 37 26 32 69 51
106 47 21 -2 86 -8 147 -14z m605 0 c0 -5 -17 -9 -37 -9 -38 1 -38 1 -8 9 43
11 45 11 45 0z m-117 -17 c-7 -2 -21 -2 -30 0 -10 3 -4 5 12 5 17 0 24 -2 18
-5z m2894 -30 c-13 -14 -21 -15 -42 -5 -15 7 -30 10 -35 7 -5 -3 -65 -7 -133
-10 -68 -2 -152 -9 -186 -15 -35 -6 -65 -9 -68 -6 -3 2 7 12 22 22 21 14 52
18 138 20 125 2 290 14 296 20 3 2 9 0 15 -6 7 -7 5 -15 -7 -27z m-539 -2 c9
-5 -5 -16 -45 -33 -63 -28 -133 -44 -133 -30 0 11 51 58 70 65 24 9 94 8 108
-2z m-2678 -19 c0 -11 -22 -32 -32 -32 -5 0 -4 9 2 20 11 20 30 28 30 12z
m-8602 -247 c86 -4 174 -2 212 4 l64 11 185 -94 c102 -52 187 -98 189 -104 6
-19 -183 -28 -808 -36 -99 -1 -95 -8 -66 129 17 79 37 111 63 100 7 -2 80 -7
161 -10z"/>
<path d="M10306 5895 c-54 -58 -96 -113 -96 -125 0 -27 33 -42 76 -34 49 9 77
54 69 110 -5 37 -2 46 30 84 19 23 35 46 35 50 0 30 -30 8 -114 -85z"/>
<path d="M10418 5791 c-14 -12 -30 -21 -35 -21 -17 0 -112 -109 -119 -135 -8
-32 1 -42 21 -25 12 10 18 10 30 0 22 -18 45 5 45 45 0 27 9 41 46 73 34 29
45 45 42 61 l-3 23 -27 -21z"/>
<path d="M10407 5635 c-20 -28 -15 -45 13 -45 22 0 44 35 36 56 -8 21 -29 16
-49 -11z"/>
<path d="M436 5311 c-10 -10 -24 -47 -32 -81 -13 -57 -13 -66 3 -99 13 -26 25
-37 46 -39 15 -2 27 0 28 5 7 63 3 220 -5 225 -16 11 -21 10 -40 -11z"/>
<path d="M567 5263 c-16 -16 -4 -48 32 -84 43 -43 75 -50 91 -18 14 26 -3 73
-34 94 -21 15 -77 20 -89 8z"/>
<path d="M1743 4135 c-30 -13 -53 -41 -53 -64 0 -13 53 -41 78 -41 26 0 68 34
75 61 6 24 -24 59 -50 59 -10 -1 -32 -7 -50 -15z"/>
<path d="M1870 3993 c-56 -20 -76 -80 -40 -125 30 -39 56 -41 93 -8 l32 28
-15 43 c-16 44 -45 70 -70 62z"/>
<path d="M1942 3787 c-22 -23 -29 -68 -16 -101 7 -19 84 -22 102 -4 17 17 15
79 -4 106 -20 28 -55 28 -82 -1z"/>
<path d="M1983 3590 c-18 -11 -33 -21 -33 -22 0 -2 -4 -18 -9 -36 -8 -27 -6
-36 16 -62 30 -36 53 -38 88 -7 35 30 46 99 20 127 -23 25 -42 25 -82 0z"/>
<path d="M2040 3350 c-38 -38 -7 -112 37 -84 32 20 39 42 23 71 -20 35 -35 38
-60 13z"/>
<path d="M5319 3599 c-21 -40 56 -93 101 -69 28 15 35 48 14 71 -25 28 -99 27
-115 -2z"/>
<path d="M5492 3498 c-24 -31 -23 -57 2 -83 33 -33 42 -32 66 8 28 44 25 56
-15 73 -42 17 -40 17 -53 2z m45 -44 c3 -8 1 -20 -4 -25 -12 -12 -48 14 -39
29 10 17 36 15 43 -4z"/>
<path d="M5550 3340 c0 -5 11 -12 25 -16 30 -7 33 -30 5 -39 -31 -10 -23 -27
11 -23 73 7 66 88 -7 88 -19 0 -34 -4 -34 -10z"/>
<path d="M5487 3074 c-15 -15 -6 -54 14 -65 18 -9 25 -7 42 9 21 22 17 52 -7
52 -8 0 -16 -8 -19 -17 -3 -15 -5 -14 -13 5 -6 13 -13 20 -17 16z"/>
<path d="M6725 3790 c-8 -14 3 -30 21 -30 8 0 14 9 14 20 0 21 -24 28 -35 10z"/>
<path d="M6780 3655 c0 -16 6 -25 15 -25 21 0 31 30 14 41 -23 14 -29 11 -29
-16z"/>
<path d="M6790 3480 c0 -11 7 -23 15 -27 19 -7 22 -4 27 22 2 14 -3 21 -19 23
-18 3 -23 -2 -23 -18z"/>
<path d="M6803 3274 c-3 -8 -1 -20 5 -26 15 -15 43 8 35 28 -7 19 -32 18 -40
-2z"/>
<path d="M6782 3128 c-7 -7 -12 -17 -12 -24 0 -19 32 -26 48 -10 13 12 13 18
2 30 -15 19 -22 20 -38 4z"/>
<path d="M6722 2954 c-39 -27 -23 -61 24 -50 19 5 24 13 24 36 0 34 -14 38
-48 14z"/>
<path d="M6618 2819 c-24 -13 -23 -42 2 -64 18 -17 21 -17 45 -1 33 22 33 54
-1 66 -30 12 -25 12 -46 -1z"/>
<path d="M6512 2654 c-27 -18 -28 -45 -4 -67 24 -22 65 -21 85 1 24 27 21 40
-15 62 -40 24 -38 24 -66 4z"/>
<path d="M6333 2464 c-23 -12 -33 -23 -33 -40 0 -29 37 -55 67 -48 31 8 46 56
27 83 -18 25 -20 25 -61 5z m30 -45 c-17 -17 -37 -1 -22 17 8 10 15 12 23 4 7
-7 7 -13 -1 -21z"/>
<path d="M6185 2299 c-34 -42 -32 -85 5 -81 57 7 98 64 70 98 -20 23 -46 16
-75 -17z"/>
<path d="M4795 1988 c-2 -7 -6 -46 -10 -87 -8 -91 -17 -115 -51 -137 -26 -17
-28 -17 -73 7 -25 13 -47 31 -49 39 -1 9 13 34 33 57 37 43 45 67 21 61 -19
-4 -166 -176 -166 -194 0 -17 5 -17 31 -4 14 8 28 6 58 -10 22 -11 47 -20 55
-20 9 0 36 -7 61 -16 51 -17 75 -8 75 28 0 10 9 37 20 58 11 22 27 72 35 111
14 65 14 74 0 95 -17 26 -33 31 -40 12z"/>
<path d="M4895 1858 c-10 -24 -27 -62 -38 -86 -21 -48 -12 -76 15 -45 23 27
62 153 51 164 -6 6 -16 -6 -28 -33z"/>
<path d="M8405 789 c-73 -13 -145 -18 -269 -20 -61 -1 -158 -10 -216 -19 -58
-10 -143 -23 -190 -30 -47 -6 -107 -15 -133 -21 -27 -5 -63 -9 -80 -9 -33 0
-124 -12 -417 -56 -91 -13 -223 -29 -295 -34 -71 -5 -150 -12 -175 -14 -25 -3
-108 -10 -185 -16 -77 -6 -198 -22 -270 -35 -71 -13 -185 -34 -253 -46 -67
-11 -124 -25 -127 -29 -16 -26 51 -21 211 16 82 18 283 43 434 54 306 22 607
55 775 85 99 18 144 25 318 51 100 14 122 15 143 4 21 -12 32 -11 72 3 52 18
366 55 476 56 39 1 95 5 125 10 59 11 161 22 223 26 44 2 59 12 38 25 -18 12
-135 11 -205 -1z"/>
</g>
</svg>
