<?xml version="1.0" standalone="no"?>
<!DOCTYPE svg PUBLIC "-//W3C//DTD SVG 20010904//EN"
 "http://www.w3.org/TR/2001/REC-SVG-20010904/DTD/svg10.dtd">
<svg version="1.0" xmlns="http://www.w3.org/2000/svg"
 width="1280.000000pt" height="1074.000000pt" viewBox="0 0 1280.000000 1074.000000"
 preserveAspectRatio="xMidYMid meet">
<metadata>
Created by potrace 1.15, written by Peter Selinger 2001-2017
</metadata>
<g transform="translate(0.000000,1074.000000) scale(0.100000,-0.100000)"
fill="#000000" stroke="none">
<path d="M9064 10732 c-16 -10 -24 -175 -13 -247 6 -33 12 -75 15 -92 6 -38
31 -45 38 -10 14 66 18 101 23 195 6 136 -14 187 -63 154z"/>
<path d="M4761 10619 c-13 -5 -41 -23 -62 -40 -22 -17 -61 -41 -87 -54 -27
-14 -99 -74 -172 -144 -101 -98 -129 -120 -147 -116 -15 3 -30 -2 -43 -15 -16
-16 -33 -20 -82 -20 -44 0 -89 -9 -148 -30 -47 -16 -93 -29 -102 -30 -9 0 -38
18 -64 41 -44 38 -50 40 -101 38 -31 -2 -58 2 -65 9 -17 17 -85 15 -114 -5
-33 -21 -84 -96 -84 -123 0 -30 18 -61 52 -90 17 -15 27 -31 23 -40 -6 -16
-68 -60 -85 -60 -6 0 -35 20 -66 45 -78 64 -111 63 -178 -8 -43 -43 -67 -86
-145 -255 l-94 -203 26 -26 c24 -25 25 -27 9 -51 -12 -19 -13 -30 -5 -53 12
-32 13 -31 -59 -72 -54 -31 -70 -63 -42 -84 17 -12 16 -15 -14 -46 -46 -47
-43 -67 11 -67 l42 -1 -43 -37 c-43 -38 -53 -65 -27 -76 22 -8 18 -21 -10 -34
-27 -12 -30 -19 -16 -41 14 -21 41 -6 116 64 85 80 99 89 113 72 8 -10 -10
-31 -74 -85 -46 -40 -84 -77 -84 -82 0 -27 47 2 123 74 21 20 48 36 60 36 18
0 14 -8 -28 -50 -59 -60 -51 -66 13 -10 64 57 76 51 80 -34 4 -87 1 -91 -115
-137 -36 -14 -27 7 12 30 36 21 47 51 20 51 -9 0 -34 -9 -55 -20 -43 -22 -53
-52 -24 -68 13 -7 7 -15 -33 -39 -65 -40 -124 -93 -117 -104 12 -19 56 -8 91
25 21 18 65 48 98 65 33 18 64 36 70 42 12 12 42 12 50 -1 15 -24 -30 -57
-232 -167 -70 -38 -105 -76 -77 -81 9 -2 26 5 37 16 36 32 180 111 233 127 35
10 51 11 61 3 26 -21 11 -39 -66 -78 -44 -22 -83 -44 -86 -50 -14 -23 5 -21
61 4 31 14 60 26 65 26 17 0 9 -31 -10 -38 -22 -8 -97 -73 -215 -184 -62 -59
-78 -80 -69 -89 9 -9 30 7 90 66 68 68 257 205 282 205 45 0 -32 -89 -184
-212 -140 -113 -137 -134 4 -33 49 36 94 65 99 65 5 0 17 9 28 21 20 22 66 49
84 49 5 0 10 -7 10 -15 0 -8 -9 -15 -19 -15 -11 0 -53 -33 -94 -75 -41 -41
-79 -75 -84 -75 -12 0 -167 -170 -160 -176 6 -6 81 44 117 78 54 49 131 98
156 98 16 0 40 14 66 40 23 22 42 40 44 40 1 0 14 -4 28 -9 21 -9 25 -18 31
-68 3 -32 9 -70 11 -85 7 -34 91 -165 150 -232 45 -51 56 -89 68 -231 8 -86
30 -153 74 -221 l39 -60 -23 -45 c-28 -51 -29 -64 -9 -133 25 -87 93 -119 218
-104 27 3 30 -1 67 -92 23 -59 34 -99 29 -106 -5 -6 -34 -16 -64 -22 -30 -6
-85 -25 -122 -43 -38 -17 -79 -36 -93 -43 -14 -6 -43 -23 -65 -37 -22 -14 -62
-39 -89 -55 -68 -40 -86 -53 -136 -99 -24 -22 -69 -62 -99 -89 -31 -26 -83
-72 -116 -102 -127 -115 -192 -165 -255 -198 -102 -54 -220 -96 -268 -96 -58
0 -150 -32 -241 -85 -124 -71 -189 -98 -222 -91 -20 4 -43 -1 -67 -13 -20 -10
-53 -23 -72 -29 -19 -6 -75 -23 -123 -37 -49 -15 -100 -37 -115 -50 l-26 -22
81 -139 c95 -163 169 -308 177 -345 5 -22 2 -28 -16 -32 -28 -8 -44 6 -59 51
-7 20 -32 75 -56 122 -24 47 -49 103 -55 125 -10 34 -76 123 -99 133 -4 2 -28
-13 -54 -32 -25 -20 -65 -41 -88 -47 -23 -6 -75 -24 -116 -40 -90 -36 -181
-60 -241 -64 -69 -4 -209 -23 -221 -31 -6 -4 -35 2 -65 12 -47 16 -59 16 -106
5 -82 -21 -88 -26 -88 -74 1 -56 28 -113 79 -162 46 -43 51 -67 21 -92 -11
-10 -20 -22 -20 -29 0 -16 34 -44 54 -44 26 0 28 -22 7 -71 -12 -24 -21 -56
-21 -70 0 -30 -61 -118 -144 -207 -44 -48 -54 -67 -59 -107 -7 -50 4 -74 45
-96 18 -9 22 -8 86 25 26 14 39 15 66 6 19 -6 52 -8 75 -4 34 5 48 3 69 -13
20 -14 49 -21 104 -25 43 -3 84 -10 92 -17 46 -38 178 -29 225 16 15 14 42 35
62 48 60 39 164 150 230 248 35 50 78 108 95 127 17 19 38 51 47 71 22 53 86
115 131 127 47 14 104 51 112 75 11 35 57 48 149 41 66 -5 100 -3 150 11 68
18 81 17 205 -10 50 -10 122 -16 216 -16 136 0 143 2 205 31 35 16 70 30 77
30 8 0 39 16 70 35 32 19 88 41 127 50 39 9 86 20 106 26 20 5 51 9 69 9 30 0
32 -2 27 -27 -3 -16 -9 -56 -13 -91 -5 -52 -4 -66 11 -82 19 -21 27 -67 25
-157 0 -61 0 -63 50 -118 51 -57 59 -81 40 -129 -13 -36 0 -64 58 -129 28 -30
54 -61 58 -69 5 -7 21 -21 35 -30 25 -16 26 -20 23 -100 -2 -62 1 -89 13 -108
26 -41 246 -254 276 -267 35 -16 35 -33 -2 -33 -24 0 -32 -7 -50 -45 -12 -25
-41 -74 -65 -109 -52 -76 -106 -234 -130 -381 -9 -55 -25 -134 -36 -175 -10
-41 -26 -106 -34 -145 -18 -84 -71 -187 -120 -234 -24 -24 -36 -44 -36 -63 0
-15 -6 -36 -14 -45 -8 -10 -26 -32 -41 -50 -16 -20 -47 -40 -83 -53 -31 -11
-72 -28 -91 -37 -38 -17 -251 -93 -350 -125 -74 -23 -185 -80 -218 -110 -35
-33 -37 -54 -8 -104 31 -54 79 -86 160 -109 33 -10 92 -28 130 -41 39 -13 86
-24 106 -24 19 0 60 -7 89 -16 46 -14 63 -14 105 -4 28 7 60 10 71 8 15 -4 11
-9 -21 -23 -22 -9 -98 -45 -170 -79 -99 -47 -170 -72 -295 -105 -262 -68 -299
-81 -323 -115 -22 -31 -25 -80 -6 -103 23 -27 104 -73 128 -73 15 0 54 -13 87
-30 87 -42 163 -47 349 -20 195 28 313 42 348 41 21 0 41 -14 75 -49 44 -47
52 -50 135 -67 l88 -18 39 38 c21 21 43 50 48 64 6 14 18 48 27 74 14 40 31
59 92 107 74 59 75 59 104 44 26 -13 32 -13 60 1 17 9 55 20 86 25 58 10 313
130 413 194 30 20 59 36 66 36 6 0 19 9 29 20 34 37 42 26 33 -43 -5 -34 -15
-87 -23 -117 -7 -30 -19 -77 -26 -105 -13 -57 -139 -342 -174 -395 -13 -19
-42 -78 -65 -131 -23 -52 -60 -120 -82 -150 -23 -29 -72 -115 -109 -189 -37
-74 -81 -152 -98 -173 -16 -21 -33 -47 -36 -58 -4 -10 -11 -19 -16 -19 -5 0
-14 -11 -19 -25 -15 -38 -72 -112 -97 -124 -12 -5 -25 -20 -28 -33 -4 -13 -34
-51 -66 -86 -32 -34 -74 -86 -92 -115 -19 -28 -61 -81 -93 -116 l-58 -64 -161
7 c-88 4 -205 9 -260 12 -201 12 -1088 7 -1162 -6 -55 -10 -81 -10 -120 -1
-47 12 -116 13 -343 8 -84 -2 -95 -4 -92 -19 4 -22 -6 -23 -29 -2 -17 15 -30
15 -171 -3 -84 -11 -166 -20 -183 -20 -54 1 -279 -24 -312 -34 -25 -8 -54 -5
-135 14 -57 14 -152 31 -211 37 -97 12 -116 11 -187 -5 -68 -16 -90 -17 -147
-7 -115 20 -226 25 -268 13 -26 -7 -43 -7 -49 -1 -20 20 -26 9 -26 -51 l0 -61
42 8 c56 9 152 11 258 3 47 -3 123 -2 170 2 124 13 186 12 270 -1 145 -23 716
-10 785 18 32 13 83 16 265 17 124 1 234 2 245 2 11 0 72 -1 135 -2 76 -2 135
2 175 11 43 11 80 13 130 8 39 -4 75 -6 80 -5 6 2 82 5 170 8 88 2 165 4 170
5 12 0 325 -13 435 -19 175 -9 241 -11 355 -11 156 1 207 0 400 -7 154 -5 355
3 725 27 167 10 463 15 710 11 63 -1 124 -1 135 -1 48 2 275 -25 323 -38 29
-8 57 -12 62 -9 9 5 98 -12 260 -52 36 -8 90 -19 120 -23 30 -5 77 -16 103
-25 58 -21 93 -10 103 30 12 47 -14 69 -107 88 -46 9 -97 17 -112 17 -15 0
-38 7 -50 15 -13 8 -93 23 -187 34 -91 12 -190 25 -220 31 -241 44 -747 58
-924 24 -19 -3 -43 -3 -53 0 -18 6 -19 10 -7 79 24 139 67 274 124 387 9 19
32 73 50 120 36 93 104 225 123 237 7 4 60 9 119 10 59 1 126 7 148 13 23 6
101 13 173 16 73 2 147 6 165 10 20 3 54 -2 84 -12 66 -22 107 -25 339 -28
108 -2 214 -7 235 -11 21 -4 59 -9 84 -11 25 -3 68 -7 95 -10 28 -3 136 -6
240 -8 107 -1 216 -8 249 -15 66 -14 82 -7 72 32 -4 16 -16 27 -33 32 -16 4
-154 10 -308 14 -225 5 -286 9 -310 22 -24 12 -57 14 -165 11 -260 -7 -398 -3
-447 14 -39 13 -76 15 -222 9 -97 -3 -227 -13 -289 -21 -114 -15 -182 -11
-182 10 0 6 10 24 23 39 18 23 34 30 92 38 39 5 87 7 109 3 21 -3 122 -8 225
-10 102 -1 233 -7 291 -13 58 -5 184 -17 280 -26 108 -10 263 -17 407 -16 239
1 406 -9 528 -31 l70 -13 7 -40 c4 -22 7 -59 7 -83 1 -24 12 -87 25 -140 13
-53 27 -142 31 -197 9 -122 9 -125 36 -255 29 -140 34 -217 16 -258 l-14 -34
-104 -4 c-57 -2 -169 -9 -249 -15 -80 -6 -192 -9 -250 -7 l-105 3 0 -39 c0
-37 2 -40 35 -49 36 -9 228 -6 490 9 207 11 337 5 455 -21 33 -7 105 -13 160
-14 55 -1 125 -6 156 -12 72 -14 136 1 149 36 12 32 3 54 -24 59 -11 3 -95 8
-184 11 -90 3 -174 10 -186 15 -18 6 -30 30 -55 108 -18 55 -38 138 -46 184
-7 45 -19 106 -25 133 -6 28 -13 133 -16 235 -2 102 -11 226 -19 275 -8 50
-17 144 -19 210 -5 126 -29 365 -45 450 -5 28 -9 130 -9 227 0 108 -5 198 -12
229 -12 49 -12 53 10 69 29 22 22 57 -20 100 -17 17 -30 34 -30 38 0 18 -81
46 -185 65 -98 19 -152 21 -510 23 -435 1 -577 10 -619 37 -14 10 -26 21 -26
26 0 4 35 13 78 19 59 8 108 8 209 -2 129 -12 136 -14 199 -61 23 -17 40 9 26
40 -20 43 -83 62 -282 85 -118 13 -278 -13 -349 -57 -17 -11 -37 -13 -77 -8
-45 5 -62 3 -99 -16 -44 -22 -47 -22 -93 -6 -26 9 -61 17 -79 17 -17 0 -38 6
-45 13 -22 22 -55 37 -82 37 -15 0 -30 8 -35 19 -9 16 -3 24 49 55 33 19 79
40 103 46 81 22 103 29 182 59 49 19 99 31 127 31 34 0 54 6 67 19 12 12 27
17 40 14 31 -8 331 89 456 147 33 15 90 37 126 48 37 12 103 39 148 61 44 23
82 41 84 41 7 0 124 -156 141 -187 9 -18 30 -42 46 -54 38 -29 157 -178 181
-229 30 -62 99 -93 99 -45 0 44 -92 179 -191 279 -27 28 -61 76 -76 106 -15
32 -49 77 -82 108 -59 56 -59 72 0 72 20 0 28 -6 33 -25 8 -32 86 -83 139 -92
42 -6 57 -29 57 -83 0 -34 23 -50 69 -50 20 0 31 -5 31 -14 0 -26 40 -65 70
-68 l30 -3 -25 -47 c-28 -53 -25 -72 16 -94 16 -8 29 -18 29 -23 0 -5 -16 -25
-35 -44 -38 -38 -43 -58 -21 -77 20 -15 36 -5 78 50 31 40 38 45 75 45 54 0
87 28 79 68 -7 36 -1 44 234 307 26 30 75 91 108 135 33 44 119 141 192 215
73 74 147 158 166 187 18 29 45 60 60 70 15 9 41 36 58 58 17 23 63 84 102
136 39 52 97 121 130 154 62 63 131 148 261 325 43 58 125 152 183 210 99 99
150 157 150 170 0 23 313 403 377 457 31 27 75 67 97 91 23 24 73 75 111 115
39 40 92 104 117 142 26 39 71 94 100 121 29 28 71 70 94 95 22 24 62 60 88
79 26 19 54 47 62 63 11 20 22 27 44 27 29 0 100 28 100 40 0 6 93 51 176 85
44 18 144 18 144 -1 0 -6 11 -16 25 -22 31 -14 32 -38 3 -53 -37 -19 -68 -51
-68 -70 0 -10 8 -34 17 -54 21 -44 38 -44 121 -5 l62 29 0 45 c0 57 -38 145
-75 174 -37 30 -81 36 -169 24 -61 -8 -102 -24 -239 -91 -112 -55 -182 -96
-218 -128 -58 -51 -114 -93 -125 -93 -4 0 -51 44 -104 98 -145 146 -272 259
-400 354 -63 47 -135 106 -160 130 -25 23 -84 69 -132 100 -47 31 -89 61 -92
66 -3 6 31 38 76 73 45 35 105 85 135 111 29 26 69 57 90 68 21 11 61 34 88
50 28 16 58 29 68 29 10 1 32 -20 53 -49 52 -72 94 -89 127 -52 14 15 15 27 7
76 -9 55 -31 105 -48 107 -123 10 -147 7 -212 -29 -86 -46 -149 -90 -239 -165
-41 -34 -98 -81 -128 -104 -30 -22 -64 -52 -76 -65 -13 -12 -76 -68 -142 -123
-65 -55 -123 -104 -129 -110 -6 -5 -27 -22 -46 -36 -20 -15 -47 -39 -60 -53
-14 -15 -54 -50 -90 -78 -36 -29 -111 -92 -167 -140 -66 -57 -119 -95 -148
-104 -25 -9 -47 -20 -51 -25 -20 -34 -44 50 -44 159 0 37 -7 126 -16 197 -8
72 -17 155 -20 185 -3 30 -24 141 -45 247 -39 190 -45 208 -139 409 -32 68
-37 90 -36 142 2 54 5 64 26 79 43 28 91 77 107 108 15 29 27 44 136 171 50
58 92 113 202 264 28 37 74 96 103 130 29 34 64 85 79 113 14 29 41 70 59 93
19 23 34 45 34 51 0 12 131 202 157 228 12 11 69 65 127 119 59 55 132 133
163 173 30 40 71 82 90 93 31 18 34 24 29 48 -14 57 -12 64 38 98 26 19 54 34
62 34 29 0 44 -56 44 -164 0 -99 9 -133 26 -104 5 7 9 50 10 95 2 80 17 137
27 103 20 -67 27 -107 30 -185 5 -97 34 -187 67 -205 33 -18 41 23 14 65 -39
59 -37 156 2 124 8 -6 14 -18 14 -26 0 -7 7 -25 16 -38 18 -28 82 -203 93
-257 8 -36 67 -138 80 -138 3 0 13 5 21 10 13 8 11 17 -12 62 -31 59 -77 171
-85 206 -7 28 13 29 23 0 9 -28 118 -138 137 -138 36 0 29 58 -11 87 -25 18
-152 209 -152 227 0 5 -32 64 -71 132 -45 78 -69 129 -65 140 10 27 12 26 205
-231 29 -38 79 -97 112 -131 32 -33 59 -68 59 -78 0 -22 30 -33 41 -15 23 37
10 66 -55 118 -81 64 -188 179 -180 192 3 6 25 -9 48 -34 54 -56 126 -106 166
-113 26 -6 30 -4 30 14 0 13 -11 27 -27 36 -35 18 -96 75 -157 146 -26 30 -59
67 -74 82 -25 26 -26 28 -6 28 11 0 29 -8 40 -17 11 -10 37 -27 59 -38 21 -11
56 -34 77 -52 41 -34 68 -34 68 -2 0 21 -51 56 -182 128 -43 24 -81 47 -84 53
-21 34 67 21 151 -22 48 -24 61 -25 69 -4 8 20 14 15 -58 53 -32 17 -69 31
-81 31 -13 0 -55 14 -93 30 -39 17 -83 30 -98 30 l-27 0 6 84 c5 74 4 86 -13
101 -10 9 -21 29 -25 43 -3 15 -19 41 -35 57 -22 23 -30 41 -32 80 -3 44 -7
52 -35 70 -23 14 -32 26 -29 39 3 10 -2 33 -11 51 -15 32 -15 35 17 86 27 44
31 60 27 96 -6 53 -29 81 -74 89 -42 8 -63 -3 -140 -68 -71 -60 -113 -66 -113
-16 0 17 -5 59 -10 92 -9 49 -8 74 6 131 9 39 18 89 21 113 5 39 3 42 -19 42
-13 0 -29 -9 -36 -20 -7 -11 -19 -20 -27 -20 -30 0 -37 -37 -25 -132 6 -50 9
-92 7 -94 -2 -2 -18 2 -35 8 -24 9 -30 17 -25 28 4 8 7 38 7 65 -1 57 -20 86
-164 238 -72 76 -94 89 -118 65 -19 -19 -15 -33 29 -95 22 -32 65 -101 96
-153 31 -52 64 -107 74 -122 37 -53 18 -64 -33 -20 -65 57 -112 82 -150 82
-29 0 -49 10 -92 45 -43 34 -64 45 -91 45 -50 0 -48 -33 3 -59 20 -11 54 -35
76 -55 21 -20 45 -36 53 -36 14 0 146 -102 172 -134 11 -13 11 -17 -3 -22 -9
-3 -41 11 -78 35 -159 104 -221 55 -71 -55 54 -40 63 -51 59 -70 -5 -18 3 -32
32 -61 21 -21 53 -46 70 -55 39 -21 40 -39 7 -97 -15 -25 -27 -64 -29 -90 -1
-25 -13 -67 -25 -93 -19 -43 -26 -48 -54 -48 -35 0 -103 -24 -195 -68 -33 -16
-71 -32 -85 -36 -13 -3 -44 -26 -68 -52 -24 -25 -73 -66 -109 -90 -36 -25
-101 -69 -144 -98 -43 -30 -127 -101 -185 -159 -103 -101 -373 -353 -414 -386
-11 -9 -36 -30 -56 -47 -37 -31 -159 -114 -168 -114 -12 0 -181 178 -211 221
-17 26 -70 82 -117 126 -81 74 -89 85 -129 179 -23 54 -59 121 -79 147 -20 27
-37 55 -37 62 0 7 20 25 45 39 25 15 45 31 45 36 0 14 -31 12 -60 -5 -35 -20
-78 -18 -107 5 -34 27 -42 26 -121 -14 -37 -19 -113 -53 -167 -76 -55 -23
-123 -53 -151 -66 -60 -27 -134 -42 -134 -26 0 15 80 67 126 82 22 7 66 25 99
40 33 15 90 37 127 49 36 12 72 29 78 37 7 8 10 14 6 14 -14 0 -142 -44 -154
-54 -17 -12 -116 -54 -162 -68 -19 -5 -42 -17 -52 -25 -9 -8 -29 -13 -45 -11
-24 2 -28 8 -31 35 -3 32 -1 34 75 69 43 20 94 38 113 41 19 3 60 18 91 34 30
15 72 30 92 34 26 5 37 13 39 28 2 12 20 30 43 43 22 13 56 32 76 43 19 11 42
27 50 37 8 10 52 43 98 73 46 31 106 71 135 90 28 19 45 36 39 38 -15 5 -122
-58 -223 -131 -231 -168 -218 -161 -293 -161 -49 0 -70 4 -77 15 -18 28 -33
15 156 141 97 65 344 209 358 209 4 0 31 11 59 24 29 14 73 28 99 31 48 7 75
26 63 45 -9 14 -57 13 -80 -4 -11 -7 -31 -17 -45 -22 -25 -9 -196 -101 -407
-219 -61 -35 -135 -82 -164 -105 -59 -47 -102 -52 -107 -12 -2 12 1 22 6 22 5
0 59 35 120 78 61 42 137 94 169 115 64 42 178 124 244 175 23 17 49 32 56 32
23 0 73 33 73 47 0 7 -7 13 -15 13 -27 0 -118 -51 -155 -85 -46 -44 -126 -101
-169 -120 -18 -8 -50 -30 -71 -48 -120 -105 -302 -207 -368 -207 -60 0 -132
12 -132 21 0 5 15 15 33 24 17 8 55 28 84 44 28 16 73 37 100 47 26 9 62 27
78 39 17 11 52 34 78 49 81 46 47 39 -66 -14 -58 -27 -112 -50 -120 -50 -8 0
-20 -7 -27 -15 -14 -17 -60 -21 -60 -5 0 6 66 43 148 84 210 103 320 164 377
206 28 21 78 52 113 69 61 31 75 47 48 57 -15 6 -110 -49 -203 -118 -33 -24
-78 -50 -102 -58 -24 -8 -45 -20 -48 -27 -3 -7 -10 -13 -16 -13 -23 0 -313
-154 -370 -197 -80 -58 -117 -56 -117 7 0 25 98 101 190 149 41 21 111 58 155
81 44 23 154 74 245 112 199 85 240 105 240 119 0 19 -50 4 -178 -55 -68 -31
-128 -56 -134 -56 -7 0 -21 -8 -32 -19 -12 -10 -45 -26 -73 -36 -29 -9 -56
-21 -59 -27 -4 -6 -59 -35 -123 -66 -64 -30 -146 -77 -184 -104 -67 -50 -91
-55 -104 -22 -7 20 29 54 58 54 10 0 77 29 150 65 72 36 137 65 144 65 7 0 18
7 26 16 14 18 134 74 157 74 8 0 20 6 26 14 6 7 65 41 131 75 66 34 124 66
128 70 4 4 1 13 -6 20 -12 9 -32 0 -102 -44 -49 -30 -94 -55 -101 -55 -7 0
-25 -11 -41 -24 -15 -13 -46 -29 -68 -35 -22 -7 -135 -60 -251 -117 -165 -81
-221 -104 -253 -104 -28 0 -41 4 -41 14 0 13 29 28 365 181 339 156 407 191
391 204 -11 10 -48 -4 -183 -70 -264 -128 -300 -144 -432 -198 -123 -51 -191
-64 -191 -38 0 8 24 27 53 42 28 16 63 37 77 47 14 10 61 31 105 46 45 16 92
36 105 44 27 17 168 69 238 87 23 7 42 16 42 21 0 14 91 58 147 70 55 13 65
24 50 57 -14 32 -42 29 -120 -12 -76 -40 -92 -43 -109 -15 -7 11 -16 20 -19
20 -4 0 -35 28 -69 61 -67 66 -122 96 -192 105 -33 5 -47 2 -57 -10 -7 -9 -19
-16 -26 -16 -7 0 -78 -31 -158 -70 -81 -38 -166 -74 -189 -80 -24 -7 -50 -17
-58 -24 -8 -7 -33 -22 -55 -33 -22 -11 -58 -30 -81 -43 l-40 -23 -124 57
c-152 70 -162 77 -147 115 17 45 4 61 -48 61 -55 0 -330 -57 -367 -76 -15 -8
-29 -14 -33 -14 -16 0 0 47 35 102 78 123 47 135 -98 39 -96 -64 -107 -69
-110 -50 -2 11 4 29 12 38 9 10 16 27 16 37 0 26 45 69 92 88 20 9 43 23 52
32 35 34 -31 58 -93 33z m1527 -258 c20 -10 45 -28 55 -39 18 -20 18 -22 -21
-75 -37 -49 -47 -56 -129 -87 -48 -18 -95 -39 -104 -46 -8 -8 -21 -14 -27 -14
-7 0 -56 -22 -110 -50 -97 -49 -135 -60 -147 -40 -3 5 -38 29 -78 52 -40 23
-74 43 -76 45 -2 1 3 13 11 25 9 13 46 36 84 51 130 54 189 80 255 112 36 17
74 34 85 38 10 3 44 14 74 26 69 25 82 26 128 2z m-1638 -61 c0 -5 -4 -10 -10
-10 -5 0 -10 5 -10 10 0 6 5 10 10 10 6 0 10 -4 10 -10z m424 -61 c34 -6 93
-22 131 -35 39 -13 85 -24 102 -24 32 0 192 -59 277 -102 57 -28 166 -99 166
-108 0 -3 -13 -19 -30 -35 -29 -28 -40 -65 -19 -65 5 0 27 11 47 25 38 26 67
32 77 15 3 -5 -13 -14 -35 -21 -28 -9 -40 -18 -40 -31 0 -16 6 -18 70 -12 76
7 87 -1 40 -28 -30 -17 -39 -41 -20 -53 5 -3 20 1 33 10 24 15 57 12 57 -6 0
-5 -15 -15 -34 -23 -70 -29 -57 -64 18 -45 36 9 49 9 61 -1 24 -20 18 -38 -17
-56 -18 -9 -47 -30 -65 -47 -26 -24 -30 -34 -22 -49 14 -26 34 -22 58 10 11
15 36 37 56 48 36 19 37 19 51 0 18 -26 18 -46 -2 -75 -18 -25 -87 -60 -119
-61 -11 0 -27 -5 -35 -10 -13 -9 -12 -13 9 -30 13 -11 32 -20 42 -20 10 0 19
-4 19 -10 0 -16 38 -11 80 10 49 25 73 26 68 3 -4 -22 -90 -52 -170 -60 -47
-5 -58 -9 -58 -24 0 -32 59 -34 150 -5 45 14 85 26 91 26 5 0 9 -11 9 -26 0
-31 -48 -54 -115 -54 -47 0 -56 -9 -30 -30 11 -9 37 -11 90 -7 75 7 75 7 75
-18 0 -26 6 -24 -152 -62 -63 -14 -78 -22 -78 -37 0 -20 -5 -20 110 5 30 6 73
12 95 13 38 1 40 -1 43 -31 2 -18 -2 -41 -7 -52 -7 -13 -8 -22 -1 -26 24 -15
4 -37 -73 -79 -89 -49 -136 -89 -117 -101 6 -4 30 9 53 28 81 66 147 87 147
46 0 -35 -19 -58 -70 -84 -27 -14 -53 -31 -57 -38 -4 -7 -32 -32 -60 -56 -29
-23 -53 -49 -53 -56 0 -35 27 -21 105 54 47 45 91 81 99 81 32 0 35 -24 11
-105 -12 -44 -28 -114 -34 -155 -27 -170 -87 -329 -142 -380 -17 -15 -47 -54
-67 -87 -80 -132 -169 -252 -201 -274 -18 -13 -61 -50 -96 -84 -34 -33 -111
-108 -171 -166 -131 -128 -184 -160 -184 -112 0 7 40 55 90 105 49 51 92 100
95 109 4 10 -1 29 -10 43 -21 32 -32 26 -99 -44 -27 -28 -59 -58 -73 -67 -63
-42 -123 -179 -123 -284 0 -39 -6 -63 -19 -80 -10 -13 -46 -79 -80 -146 -86
-168 -109 -186 -311 -239 -71 -18 -237 -21 -254 -4 -7 7 7 28 42 63 53 54 64
77 36 77 -27 0 -144 -92 -151 -118 -5 -21 -9 -23 -42 -17 -47 9 -48 11 -22 38
14 15 19 30 15 41 -7 19 -13 19 -96 -5 -60 -17 -114 -1 -169 48 -44 40 -46 51
-19 111 l19 42 74 0 c80 0 105 12 84 41 -25 33 -67 50 -146 59 -68 8 -92 6
-153 -10 -98 -26 -115 -25 -149 9 -32 33 -37 67 -15 110 12 22 32 34 88 54 67
24 81 25 153 18 44 -4 94 -15 110 -24 17 -8 48 -18 69 -22 29 -6 43 -16 62
-47 31 -48 58 -48 62 1 4 36 -39 133 -82 185 -33 40 -60 30 -50 -19 8 -45 0
-45 -117 -5 l-88 31 -63 -17 c-34 -8 -71 -20 -81 -26 -13 -7 -23 -6 -31 2 -8
9 2 24 43 62 84 77 94 82 135 67 29 -11 38 -10 60 5 59 38 14 147 -54 131 -28
-7 -130 -73 -130 -85 0 -13 -86 -100 -98 -100 -20 0 -50 60 -57 114 -27 219
-66 307 -191 433 -41 41 -76 84 -78 96 -13 63 -13 99 -1 133 8 22 14 57 15 80
0 37 -6 48 -65 110 -73 77 -87 110 -106 249 -8 53 -9 103 -3 141 5 33 8 68 7
79 -3 68 19 278 32 298 8 13 14 36 14 52 -2 40 23 132 49 186 12 25 22 52 22
61 0 29 109 237 130 248 12 6 26 24 31 38 10 27 157 131 206 146 11 4 27 13
33 21 7 8 22 15 33 15 11 0 39 11 61 24 49 28 134 57 184 62 104 11 308 46
404 70 31 7 63 11 71 8 8 -3 35 0 58 7 41 11 200 24 348 27 36 1 92 -3 125 -9z
m3989 -25 c9 -9 -4 -35 -14 -28 -5 3 -9 12 -9 20 0 14 12 19 23 8z m-5372 -35
c26 -18 33 -19 65 -9 30 10 38 10 45 -1 14 -22 11 -27 -28 -54 -33 -22 -48
-25 -121 -25 -81 0 -83 1 -80 23 2 16 10 22 28 22 21 0 26 5 28 33 4 38 21 41
63 11z m2699 -4 c0 -9 -12 -20 -27 -26 -16 -5 -54 -23 -85 -40 -32 -16 -83
-39 -115 -50 -32 -11 -75 -31 -97 -45 -45 -30 -173 -84 -181 -76 -17 17 3 36
73 71 42 21 91 46 107 54 81 42 288 126 313 127 6 0 12 -7 12 -15z m3084 -181
c15 -40 4 -60 -79 -141 -47 -46 -89 -83 -95 -83 -13 0 -50 60 -50 82 0 16 75
88 92 88 4 0 28 16 54 35 50 39 69 43 78 19z m-6081 -79 c42 -29 45 -41 18
-87 -22 -37 -107 -252 -117 -295 -9 -39 -23 -53 -51 -53 -14 0 -38 -11 -55
-25 -59 -50 -67 -22 -8 31 29 27 40 44 40 66 l0 29 -37 -26 c-43 -28 -61 -31
-88 -11 -18 13 -18 15 -3 38 9 13 34 32 57 43 49 22 58 60 16 71 -38 10 -30
32 18 45 60 18 70 27 63 63 -10 49 -8 64 11 90 37 51 81 57 136 21z m6047
-192 c0 -27 -59 -95 -129 -148 -71 -55 -97 -91 -79 -112 6 -7 14 -13 19 -13
12 0 230 190 236 206 7 20 21 17 33 -6 18 -34 -28 -109 -99 -159 -70 -48 -94
-79 -89 -113 6 -43 34 -29 128 62 51 49 97 90 102 90 5 0 11 -7 15 -16 7 -18
-64 -94 -147 -157 -79 -59 -81 -62 -63 -105 26 -63 38 -71 99 -65 30 3 54 3
54 0 0 -10 -110 -78 -170 -105 -30 -14 -65 -34 -77 -45 l-22 -19 -50 36 c-28
21 -54 49 -60 67 -6 16 -51 71 -101 121 -50 50 -93 101 -96 113 -6 25 15 104
40 153 9 17 16 43 16 58 0 15 10 53 21 85 18 50 26 59 46 59 13 0 26 -6 29
-14 3 -8 21 -17 40 -20 29 -6 34 -11 34 -34 0 -15 -9 -40 -19 -56 -21 -32 -14
-66 14 -66 13 0 125 117 125 131 0 13 112 89 132 89 10 0 18 -7 18 -17z
m-3360 -230 c0 -16 -72 -54 -93 -50 -18 3 -11 9 33 30 62 30 60 30 60 20z
m258 -65 c28 -28 13 -45 -60 -72 -84 -30 -98 -32 -98 -11 0 32 85 93 131 95 8
0 20 -5 27 -12z m3296 -6 c2 -4 -4 -26 -14 -49 -14 -33 -32 -49 -89 -83 -48
-28 -78 -39 -91 -35 -18 6 -14 13 37 64 56 56 127 111 144 111 4 0 10 -4 13
-8z m-6409 -32 c-3 -5 -11 -10 -16 -10 -6 0 -7 5 -4 10 3 6 11 10 16 10 6 0 7
-4 4 -10z m3218 -58 c24 -22 21 -38 -10 -50 -147 -53 -225 -73 -238 -62 -32
26 -15 45 86 97 106 56 114 57 162 15z m2391 22 c9 -8 16 -26 16 -39 0 -44 10
-55 49 -55 32 0 43 -6 70 -40 17 -22 45 -47 62 -55 16 -9 46 -42 66 -73 48
-75 91 -118 136 -137 20 -8 37 -21 37 -29 0 -13 -194 -241 -239 -281 -22 -19
-22 -19 -76 9 -154 80 -278 250 -350 477 -36 114 -34 130 18 159 23 13 47 29
52 37 12 15 81 40 117 42 15 0 34 -6 42 -15z m-5704 -13 c0 -10 -122 -81 -139
-81 -29 0 -5 23 57 54 72 38 82 41 82 27z m57 -57 c-3 -3 -12 -4 -19 -1 -8 3
-5 6 6 6 11 1 17 -2 13 -5z m-43 -33 c3 -5 -6 -14 -22 -19 -15 -5 -53 -31 -86
-56 -74 -58 -97 -49 -30 12 64 59 124 86 138 63z m16 -60 c0 -5 -12 -17 -27
-27 -16 -10 -50 -39 -78 -64 -74 -69 -161 -117 -138 -76 8 14 95 86 147 121
85 59 96 64 96 46z m3584 -17 c10 -27 7 -44 -11 -51 -10 -3 -60 -25 -111 -49
-52 -24 -97 -44 -101 -44 -7 0 -152 -59 -245 -99 -27 -12 -56 -19 -63 -16 -18
6 -13 45 7 56 153 79 467 217 496 218 12 1 25 -6 28 -15z m1799 -84 c45 -120
86 -210 119 -259 52 -78 159 -181 221 -212 l59 -30 -35 -42 c-18 -23 -40 -53
-47 -67 -7 -14 -52 -79 -100 -145 -48 -66 -103 -146 -124 -178 -38 -61 -304
-417 -337 -452 -10 -11 -45 -54 -78 -95 -128 -163 -421 -435 -528 -490 -71
-36 -86 -61 -51 -84 26 -16 126 37 231 123 48 39 89 71 91 71 2 0 6 -8 10 -17
3 -10 10 -25 15 -33 6 -8 24 -45 40 -82 104 -228 156 -461 186 -823 9 -104 18
-208 21 -230 3 -22 9 -101 14 -175 5 -74 14 -162 20 -195 6 -33 15 -100 20
-149 6 -48 19 -132 29 -185 11 -53 22 -121 25 -152 6 -61 13 -92 62 -282 19
-70 34 -138 34 -150 0 -12 7 -40 15 -62 8 -22 14 -57 15 -77 0 -20 5 -48 11
-61 9 -20 8 -30 -6 -51 -9 -14 -21 -24 -25 -21 -5 3 -61 14 -126 26 -65 11
-146 29 -181 40 -65 21 -210 104 -253 144 -27 25 -67 49 -191 114 -81 42 -198
79 -339 106 -47 9 -112 27 -145 40 -33 13 -94 33 -135 44 -217 59 -271 74
-340 96 -75 23 -125 32 -210 39 -76 6 -153 47 -267 144 -104 88 -211 260 -264
424 -29 93 -51 434 -52 823 0 75 16 219 27 246 4 9 -6 49 -22 90 -26 68 -38
144 -33 227 0 12 2 32 2 45 3 61 -15 194 -29 210 -17 20 -52 23 -53 5 0 -7 -2
-65 -5 -128 -2 -63 -6 -144 -8 -179 -2 -35 0 -78 5 -95 39 -127 54 -317 29
-351 -17 -23 -20 -144 -6 -226 10 -57 14 -142 12 -264 -3 -201 2 -244 45 -395
62 -214 81 -266 110 -307 16 -23 29 -45 29 -49 0 -5 46 -54 103 -109 163 -158
249 -196 522 -230 160 -21 295 -53 351 -86 63 -36 241 -97 309 -105 28 -4 77
-17 110 -29 34 -12 80 -26 103 -30 48 -8 57 -17 43 -43 -14 -27 5 -42 53 -42
33 0 45 -6 79 -42 22 -24 51 -60 65 -81 24 -36 25 -41 13 -90 -6 -29 -27 -92
-45 -142 -18 -49 -40 -114 -49 -143 -18 -63 -179 -350 -253 -453 -85 -118 -94
-129 -133 -149 -20 -10 -58 -42 -86 -70 -75 -78 -172 -140 -395 -256 -25 -12
-147 -68 -272 -123 -232 -102 -388 -155 -687 -232 -323 -83 -364 -102 -539
-257 -45 -40 -122 -98 -170 -129 -48 -31 -121 -82 -162 -113 -41 -31 -95 -66
-120 -77 -25 -11 -77 -42 -115 -69 -99 -70 -301 -166 -409 -194 l-49 -13 -41
45 c-88 96 -144 174 -213 296 -79 137 -89 172 -49 172 15 0 49 21 88 54 81 68
209 166 218 166 4 0 19 18 33 39 15 22 77 90 138 152 61 61 127 137 146 168
68 106 173 227 284 326 158 140 244 224 272 264 17 25 57 75 89 111 180 201
247 280 276 326 35 56 39 74 17 74 -28 0 -263 -252 -309 -332 -16 -27 -46 -61
-66 -75 -21 -13 -57 -53 -80 -89 -39 -61 -69 -80 -85 -54 -3 5 -52 24 -108 41
-161 50 -255 105 -371 221 -109 108 -112 120 -30 120 66 0 225 42 299 78 33
16 96 39 140 51 44 12 106 35 138 51 94 47 286 181 359 250 87 81 121 109 210
168 89 58 198 171 258 265 24 39 65 95 91 125 65 77 93 174 59 205 -31 28 -53
11 -79 -62 -16 -49 -37 -82 -72 -120 -27 -29 -54 -64 -59 -79 -23 -60 -136
-184 -210 -232 -30 -19 -75 -51 -100 -72 -25 -21 -55 -40 -67 -44 -12 -4 -57
-45 -100 -91 -43 -46 -116 -110 -163 -143 -107 -74 -263 -152 -304 -152 -35 0
-93 -25 -150 -63 -25 -18 -52 -27 -77 -27 -21 0 -62 -9 -91 -20 -43 -16 -77
-20 -179 -20 l-126 0 -119 97 c-65 54 -148 126 -183 161 -52 52 -62 67 -56 85
4 12 6 30 5 40 -7 82 8 174 39 247 23 54 27 144 17 390 -9 214 10 399 46 460
62 103 158 233 266 361 44 52 55 95 25 106 -12 5 -29 -7 -58 -39 -45 -50 -169
-209 -227 -292 -47 -68 -112 -126 -141 -126 -12 0 -37 -9 -55 -20 -45 -28 -58
-25 -66 11 -11 59 -6 94 25 159 22 46 33 88 39 145 4 44 17 108 28 141 12 34
24 81 28 105 4 24 10 49 15 54 15 20 58 145 64 189 5 29 12 46 21 46 8 0 41
-28 74 -61 52 -53 67 -62 105 -67 53 -6 107 14 103 37 -2 11 -15 16 -45 17
-43 1 -65 15 -144 84 -21 19 -39 40 -39 45 2 35 99 106 200 145 30 12 78 39
107 61 l51 40 163 -5 c145 -4 167 -3 216 16 60 22 70 20 53 -12 -16 -29 -6
-50 23 -50 35 0 49 22 42 63 -6 32 -5 35 25 41 18 3 43 6 57 6 32 0 110 33
205 88 73 41 137 106 176 178 6 11 31 35 57 54 25 19 64 58 85 87 22 28 77 94
122 146 46 53 110 130 142 172 56 72 61 76 91 71 27 -5 33 -3 44 20 6 15 14
63 18 108 3 45 18 133 35 196 16 63 31 142 35 175 3 33 12 70 19 82 41 66 102
269 113 378 4 39 19 98 33 132 14 35 23 73 21 87 -7 34 4 76 20 76 6 0 38 14
70 30 31 17 102 46 157 65 54 19 147 58 206 85 59 28 115 50 125 50 25 0 49
-11 49 -22 0 -5 13 -26 29 -46 16 -20 45 -67 65 -104 l37 -67 -23 -5 c-13 -3
-54 -7 -93 -9 -64 -4 -76 -9 -149 -57 -43 -29 -95 -69 -115 -89 -43 -43 -100
-172 -111 -251 -4 -30 -12 -75 -18 -100 -37 -156 -53 -243 -48 -267 9 -41 -19
-206 -49 -292 -23 -63 -26 -83 -20 -145 5 -49 2 -94 -9 -145 -9 -41 -13 -91
-10 -112 4 -21 0 -54 -7 -75 -19 -57 -20 -93 -3 -146 17 -52 24 -57 45 -31 10
11 15 62 19 179 3 111 9 167 18 176 8 8 12 49 12 128 0 95 4 123 21 160 26 57
49 192 49 291 0 45 7 95 16 120 9 24 19 69 24 99 14 100 38 214 54 258 22 62
103 160 146 178 19 8 52 27 72 41 85 58 204 4 385 -176 106 -105 203 -212 203
-225 0 -14 -188 -187 -220 -202 -19 -10 -55 -35 -80 -57 -25 -21 -65 -50 -90
-64 -25 -14 -61 -36 -80 -48 -43 -27 -87 -38 -95 -25 -3 5 1 23 10 40 20 39
12 66 -27 86 -27 14 -31 14 -48 -1 -10 -9 -21 -38 -25 -66 -6 -43 -4 -52 19
-80 l26 -31 -20 -33 c-25 -40 -25 -42 0 -55 16 -9 29 -6 65 16 25 14 54 38 65
52 21 26 93 77 170 120 25 13 63 41 85 62 22 21 66 55 99 76 32 22 68 46 81
54 12 8 48 42 81 75 91 93 186 171 256 212 35 20 92 65 128 99 36 35 84 78
107 96 23 18 112 99 197 180 97 92 175 158 208 174 29 15 64 39 78 54 40 43
92 71 125 68 27 -3 32 -9 58 -78z m-2647 -1157 c-3 -10 -10 -47 -16 -83 -20
-116 -38 -157 -92 -208 -28 -26 -94 -92 -147 -147 -138 -145 -186 -191 -216
-211 -26 -17 -26 -17 -66 22 -67 65 -67 65 9 122 38 28 104 90 148 139 43 48
88 95 99 103 45 33 243 239 250 259 8 26 39 29 31 4z m-629 -629 c44 -34 66
-78 67 -139 0 -43 -5 -59 -34 -99 -48 -67 -178 -148 -272 -171 -37 -9 -36 4 6
62 19 27 53 98 75 158 51 136 72 186 84 203 14 19 37 15 74 -14z m118 -104 c3
-5 1 -10 -4 -10 -6 0 -11 5 -11 10 0 6 2 10 4 10 3 0 8 -4 11 -10z m-1235
-336 c19 -7 43 -13 52 -14 9 0 23 -8 30 -19 7 -10 31 -27 52 -38 l40 -20 -29
-19 c-28 -18 -28 -18 -49 9 -24 30 -57 35 -80 11 -12 -11 -13 -20 -6 -34 21
-39 1 -41 -42 -5 -16 14 -40 25 -53 25 -38 0 -50 -25 -46 -101 3 -76 -14 -96
-25 -29 -4 22 -12 44 -18 49 -21 16 -88 33 -97 24 -4 -4 -10 -39 -11 -77 l-3
-68 -39 -4 c-82 -7 -86 -41 -12 -124 57 -64 76 -107 54 -121 -7 -5 -21 -6 -30
-3 -22 7 -54 -10 -95 -49 -26 -25 -33 -39 -33 -70 0 -29 -8 -48 -30 -74 -32
-36 -39 -79 -18 -113 10 -15 10 -29 0 -65 -7 -25 -12 -58 -12 -75 0 -16 -5
-32 -10 -35 -6 -4 -20 -25 -31 -48 -18 -34 -20 -46 -11 -72 6 -16 10 -42 8
-58 -4 -38 -50 -87 -82 -87 -79 0 -294 -81 -381 -144 -17 -13 -59 -29 -92 -36
-84 -18 -260 -18 -351 -1 -94 18 -276 17 -432 -3 -28 -4 -49 -2 -53 4 -3 5
-15 10 -25 10 -14 0 -18 -5 -13 -16 4 -11 2 -15 -7 -12 -7 2 -18 22 -25 44
-12 39 -52 111 -104 189 -15 22 -45 75 -66 117 -46 94 -44 98 67 133 109 34
114 34 87 -13 -43 -75 9 -100 71 -34 30 32 97 84 149 117 9 6 31 20 48 33 18
12 47 28 65 34 18 6 54 24 79 40 25 15 60 28 76 28 16 0 56 9 88 20 32 11 71
20 86 20 44 0 256 105 336 166 40 31 91 78 114 105 23 27 73 70 113 95 39 25
96 70 126 99 84 81 283 215 321 215 9 0 34 12 55 26 21 15 68 37 104 49 43 14
68 29 75 43 9 20 11 20 45 5 19 -9 51 -22 70 -29z m67 -119 c3 -9 3 -19 -1
-22 -8 -9 -37 18 -30 28 8 14 24 11 31 -6z m-134 -65 c4 -15 0 -20 -14 -20
-12 0 -19 7 -19 20 0 11 6 20 14 20 7 0 16 -9 19 -20z m-133 -35 c7 -8 9 -22
6 -32 -6 -15 -9 -15 -28 4 -11 12 -17 26 -14 32 10 15 21 14 36 -4z m5332
-180 c51 -30 104 -73 155 -127 112 -116 111 -116 188 -169 39 -27 108 -85 155
-128 47 -43 118 -107 159 -142 49 -42 78 -76 86 -98 6 -19 21 -38 32 -42 40
-15 36 -30 -23 -83 -53 -49 -91 -102 -144 -198 -11 -21 -26 -38 -33 -38 -21 0
-66 53 -73 85 -3 17 -19 48 -35 70 -16 22 -41 60 -57 83 -77 123 -119 182
-166 234 -28 31 -76 87 -106 124 -30 37 -62 75 -71 83 -31 32 -137 123 -160
138 -13 9 -43 33 -65 52 -23 20 -54 44 -68 54 -34 23 -33 43 4 62 44 23 61 19
114 -25 26 -22 51 -40 55 -40 4 0 22 -14 40 -31 19 -17 52 -42 73 -56 22 -13
47 -37 56 -54 10 -16 23 -31 31 -34 18 -7 51 23 45 40 -3 7 -49 46 -102 87
-124 95 -214 177 -206 189 10 17 40 8 116 -36z m-5389 -8 c16 -20 18 -30 9
-39 -17 -17 -62 16 -62 48 0 33 25 29 53 -9z m5137 -144 c14 -9 48 -38 76 -64
28 -26 67 -54 86 -62 23 -10 61 -47 111 -110 43 -53 82 -99 87 -102 10 -6 85
-110 107 -148 6 -11 30 -43 52 -71 64 -79 151 -216 173 -271 10 -27 26 -61 35
-73 25 -39 8 -66 -81 -136 -46 -36 -86 -70 -88 -76 -3 -10 -104 -128 -254
-294 -50 -56 -99 -116 -107 -133 -9 -17 -47 -62 -84 -100 -106 -106 -202 -223
-228 -278 -15 -31 -51 -74 -95 -114 -40 -37 -70 -73 -70 -84 0 -18 -126 -167
-248 -292 -33 -33 -62 -73 -66 -88 -7 -29 -76 -111 -108 -128 -16 -9 -33 2
-101 63 -45 40 -95 85 -112 101 -16 16 -61 52 -100 82 -38 29 -96 80 -127 113
l-58 61 0 63 c0 35 7 86 16 113 20 62 34 132 41 208 6 66 19 72 81 34 53 -33
207 -97 232 -97 12 0 29 4 38 9 17 9 161 -13 194 -30 10 -5 40 -9 68 -9 46 0
52 3 70 33 33 53 35 92 11 176 -12 42 -26 101 -31 132 -4 30 -29 125 -53 210
-42 144 -82 348 -107 549 -6 47 -18 129 -27 182 -24 147 -7 195 75 218 29 7
57 29 103 78 35 37 103 95 151 130 48 35 91 69 95 77 13 22 189 145 208 145 6
0 22 -8 35 -17z m-5195 -72 c3 -6 -3 -15 -14 -21 -21 -11 -37 2 -26 20 8 13
32 13 40 1z m-85 -140 c0 -14 -18 -23 -30 -16 -6 4 -8 11 -5 16 8 12 35 12 35
0z m2165 -81 c8 -16 15 -41 15 -55 0 -22 -2 -24 -19 -13 -20 12 -37 70 -26 88
9 15 13 13 30 -20z m-2138 -25 c-7 -17 -34 -31 -44 -22 -3 4 2 18 12 33 18 28
43 20 32 -11z m-17 -190 c0 -13 -59 -37 -69 -29 -9 8 11 35 31 43 27 10 38 6
38 -14z m-75 -95 c-3 -5 -10 -10 -16 -10 -5 0 -9 5 -9 10 0 6 7 10 16 10 8 0
12 -4 9 -10z m43 -17 c-2 -10 -14 -20 -28 -22 -25 -3 -25 -3 -6 18 23 26 39
27 34 4z m-28 -98 c0 -8 -7 -15 -15 -15 -16 0 -20 12 -8 23 11 12 23 8 23 -8z
m250 -44 c0 -37 -11 -44 -44 -31 -30 11 -34 34 -8 49 33 20 52 13 52 -18z
m-2081 -51 c53 -100 112 -245 107 -266 -3 -12 -25 -44 -49 -70 -24 -27 -50
-61 -58 -75 -14 -26 -39 -61 -89 -123 -14 -17 -34 -44 -45 -61 -54 -87 -211
-250 -260 -271 -18 -7 -59 -17 -89 -20 -46 -6 -56 -4 -56 8 0 14 86 101 137
138 61 45 96 83 96 106 0 25 -19 54 -35 54 -5 0 -50 -41 -101 -91 -51 -51
-114 -107 -142 -125 -66 -44 -122 -67 -130 -53 -8 12 13 39 31 39 14 0 136
138 196 223 41 57 47 82 22 91 -32 12 -44 5 -77 -47 -19 -29 -54 -70 -78 -92
-25 -22 -62 -61 -84 -87 -39 -48 -65 -61 -65 -34 0 17 27 46 42 46 6 0 6 6 -2
15 -10 13 -9 15 11 15 19 1 38 20 84 87 33 48 75 104 93 126 32 38 38 60 26
91 -16 43 -62 2 -147 -131 -26 -40 -85 -115 -132 -168 -83 -91 -89 -95 -157
-115 -38 -12 -72 -19 -76 -16 -3 3 12 23 34 44 77 76 147 173 228 317 16 28
41 64 56 80 136 147 142 160 88 193 -25 15 -54 21 -113 22 -87 3 -143 6 -162
8 -6 1 -22 16 -34 33 -20 28 -20 32 -6 47 14 14 25 14 79 4 142 -27 244 -14
505 63 115 33 125 35 152 20 33 -16 82 -11 116 12 33 22 58 12 84 -37z m1809
-12 c-6 -18 -28 -21 -28 -4 0 9 7 16 16 16 9 0 14 -5 12 -12z m202 -48 c0 -11
-54 -50 -69 -50 -14 0 -14 55 0 81 10 19 10 19 40 -1 16 -12 29 -25 29 -30z
m-166 -50 c-12 -13 -27 -18 -37 -14 -23 8 -21 22 6 44 19 16 24 17 37 4 13
-12 12 -17 -6 -34z m218 -7 c4 -18 -30 -53 -51 -53 -18 0 -13 24 9 48 25 27
37 28 42 5z m-247 -63 c-21 -23 -55 -27 -55 -5 0 19 52 47 64 34 6 -5 2 -16
-9 -29z m-2475 0 c0 -5 -4 -10 -10 -10 -5 0 -10 5 -10 10 0 6 5 10 10 10 6 0
10 -4 10 -10z m2657 -26 c4 -10 -1 -22 -10 -29 -24 -17 -22 -55 2 -55 11 0 23
5 26 10 8 13 45 13 45 -1 0 -6 -18 -18 -40 -26 -44 -18 -48 -34 -10 -43 30 -7
35 -23 15 -44 -21 -21 -34 -20 -41 2 -3 9 -12 29 -20 44 -8 14 -14 35 -14 47
0 11 -5 32 -12 47 -11 23 -10 28 11 45 29 23 40 24 48 3z m-147 -54 c0 -5 -13
-16 -30 -25 -24 -12 -30 -13 -30 -2 0 7 5 18 12 25 14 14 48 16 48 2z m5 -50
c7 -11 -43 -46 -52 -36 -7 7 25 46 38 46 4 0 10 -4 14 -10z m20 -89 c3 -5 -8
-19 -23 -30 -31 -22 -52 -14 -52 21 0 14 8 18 34 18 19 0 37 -4 41 -9z m185
-55 c0 -21 -20 -30 -33 -17 -9 9 -8 14 3 21 21 14 30 12 30 -4z m-48 -63 c16
-17 18 -25 9 -42 -13 -23 -36 -28 -46 -10 -4 6 -4 31 0 57 4 26 10 40 13 32 2
-8 13 -25 24 -37z m-122 17 c8 -5 11 -12 8 -16 -10 -9 -38 3 -38 16 0 12 10
13 30 0z m191 -93 c-6 -8 -10 -25 -9 -37 5 -37 -16 -33 -34 5 -16 35 -16 36
11 50 30 15 51 4 32 -18z m319 -817 c59 -30 253 -188 263 -215 3 -7 32 -32 64
-55 32 -22 81 -59 108 -80 28 -22 70 -47 95 -54 25 -8 59 -21 75 -30 17 -9 39
-16 50 -16 32 0 48 -15 40 -39 -3 -11 -11 -21 -16 -21 -14 0 -153 -148 -204
-216 -23 -33 -68 -84 -100 -114 -31 -30 -84 -91 -118 -135 -78 -102 -264 -300
-329 -351 -28 -21 -66 -52 -84 -67 -22 -19 -40 -26 -52 -23 -36 12 -132 115
-254 272 -5 7 -2 23 7 40 8 16 15 33 15 37 0 5 9 21 20 37 37 52 91 162 99
204 5 22 16 77 25 121 9 44 23 110 31 146 8 37 15 85 15 108 0 22 7 55 15 73
8 18 24 66 36 106 12 41 40 104 62 140 27 45 42 82 45 114 5 57 12 59 92 18z
m3597 -120 c39 -39 76 -70 82 -70 6 0 18 -11 27 -25 9 -13 24 -27 34 -30 10
-3 45 -33 77 -66 32 -33 69 -66 84 -74 14 -7 34 -32 45 -54 10 -22 25 -41 32
-41 19 0 15 -9 -28 -66 -50 -67 -117 -130 -152 -145 -16 -6 -28 -17 -28 -23 0
-7 -17 -30 -38 -51 -20 -22 -63 -78 -94 -125 -31 -47 -103 -132 -160 -190 -57
-58 -119 -125 -138 -147 -28 -34 -43 -42 -77 -46 -48 -6 -56 8 -24 37 25 22
45 71 37 91 -3 10 -19 15 -43 15 -45 0 -74 14 -49 23 23 9 20 54 -4 67 -15 8
-30 8 -56 0 -49 -17 -64 -8 -64 38 0 50 -16 69 -65 75 -83 11 -130 26 -147 47
-35 43 -16 81 66 134 54 34 217 195 314 309 83 97 150 195 189 277 65 136 78
139 180 40z m-3898 -1314 l33 -25 -25 -25 c-15 -15 -38 -26 -52 -26 -23 0 -31
10 -61 73 -20 39 -46 92 -59 117 -42 78 -27 76 53 -8 42 -45 92 -92 111 -106z
m-246 112 c9 -18 36 -70 60 -115 39 -72 43 -86 37 -125 -8 -55 -19 -74 -69
-122 l-41 -40 -97 -3 c-148 -4 -477 38 -580 73 -45 16 -57 27 -67 60 -6 19 4
26 80 63 47 22 111 48 142 57 32 9 64 22 72 28 14 12 34 19 140 51 25 8 95 34
155 59 61 25 119 46 131 46 13 0 26 -11 37 -32z m1781 -180 c8 -13 18 -35 21
-50 9 -34 30 -36 46 -5 17 32 17 32 44 7 33 -31 32 -43 -10 -89 -21 -23 -42
-61 -51 -92 -9 -30 -24 -68 -35 -85 -10 -17 -19 -38 -19 -46 0 -7 -9 -32 -21
-53 -48 -94 -132 -319 -155 -418 -3 -15 -10 -30 -15 -33 -5 -3 -9 -19 -9 -36
0 -17 -11 -54 -24 -82 -13 -28 -33 -78 -44 -111 -36 -108 -57 -158 -68 -162
-9 -3 -28 19 -87 104 -206 297 -207 298 -164 349 25 30 65 118 72 159 2 11 9
53 14 93 6 41 15 91 21 113 14 50 -4 109 -33 109 -10 0 -17 4 -15 9 2 5 74 57
161 115 87 58 169 114 184 125 14 12 34 21 44 21 10 0 24 10 30 23 32 61 85
78 113 35z m586 -94 c36 -1 117 -12 180 -23 63 -12 129 -21 146 -21 17 0 37
-7 44 -16 12 -14 -4 -15 -161 -10 -227 6 -401 21 -430 37 -23 13 -23 13 16 19
22 3 49 11 60 18 11 7 33 10 50 6 17 -3 59 -8 95 -10z m-319 -60 c30 -9 63
-21 74 -28 24 -15 102 -27 210 -31 44 -1 224 -14 400 -28 176 -15 347 -26 380
-26 116 2 385 -35 397 -54 3 -6 3 -20 -2 -31 -10 -27 -5 -644 5 -676 4 -14 21
-41 36 -60 29 -36 34 -53 44 -152 l5 -58 -34 0 c-19 0 -68 7 -108 16 -56 12
-128 16 -313 15 -132 -1 -289 4 -350 9 -60 6 -153 13 -205 16 -52 3 -131 12
-175 20 -71 13 -316 24 -635 28 -58 0 -108 5 -112 11 -5 5 -5 30 -2 53 5 36 2
49 -16 74 -20 27 -21 35 -11 67 6 20 18 67 27 105 8 38 21 81 29 95 7 15 28
71 45 126 18 55 51 136 73 180 22 44 48 105 59 135 10 30 30 67 45 82 24 25
25 30 13 53 -15 28 -3 50 35 65 27 12 25 12 86 -6z m-1831 -4 c5 0 30 -41 57
-91 26 -51 65 -111 86 -135 30 -34 83 -107 113 -156 3 -4 -1 -10 -8 -13 -21
-8 -99 71 -163 165 -31 47 -67 96 -79 110 -38 42 -66 106 -53 119 6 6 18 9 25
6 8 -3 17 -5 22 -5z m2724 -21 c17 -15 1 -19 -39 -8 -28 8 -35 13 -24 20 15 9
47 3 63 -12z m442 -3 c33 -8 105 -20 159 -27 91 -10 114 -18 115 -43 0 -21
-664 34 -687 58 -17 17 26 22 180 25 131 2 188 -1 233 -13z m-3233 -123 c24
-32 62 -85 84 -118 22 -33 64 -82 92 -108 33 -31 51 -56 51 -71 0 -13 -19 -50
-43 -82 -23 -33 -57 -82 -75 -110 -50 -78 -59 -85 -112 -73 -53 12 -77 31 -85
70 -16 71 -97 96 -201 63 -27 -8 -74 -19 -104 -24 -30 -4 -100 -18 -155 -30
-158 -34 -274 -19 -448 60 -27 12 -47 26 -45 32 5 14 122 54 243 84 131 32
305 92 330 115 24 21 131 69 154 69 22 0 114 69 174 131 64 66 84 65 140 -8z
m3564 -9 c12 -3 25 -14 28 -24 3 -10 8 -115 10 -232 2 -117 9 -231 14 -253 6
-22 15 -80 21 -130 5 -49 14 -130 19 -180 6 -49 12 -139 15 -199 3 -59 10
-147 15 -195 6 -47 13 -160 16 -251 6 -170 24 -326 52 -440 27 -110 32 -144
26 -168 -5 -23 -9 -24 -62 -17 -70 8 -79 17 -56 51 15 23 16 34 6 78 -12 59
-35 202 -51 331 -15 113 -36 240 -55 325 -8 36 -15 85 -15 110 0 25 -7 88 -16
140 -8 52 -19 122 -24 155 -14 96 -28 129 -71 180 -15 17 -17 48 -19 220 -1
110 1 269 5 353 l8 152 56 0 c31 0 66 -3 78 -6z m-2577 -730 c0 -21 -194 -284
-210 -284 -16 0 -13 5 47 103 31 51 63 104 70 119 16 31 59 68 79 68 8 0 14
-3 14 -6z m115 -81 c25 -32 52 -73 60 -91 8 -18 30 -52 50 -76 19 -24 35 -49
35 -57 0 -8 -31 -75 -68 -149 -38 -74 -75 -151 -82 -170 -7 -19 -36 -73 -64
-119 -28 -46 -91 -162 -141 -258 -118 -229 -121 -232 -295 -238 -69 -3 -152
-10 -184 -16 -74 -13 -91 -1 -91 69 1 48 15 83 80 197 19 33 39 76 45 96 5 20
24 54 40 75 17 21 48 65 69 96 52 77 108 137 159 172 54 37 58 43 38 65 -9 10
-16 24 -16 33 0 20 51 96 89 132 17 17 31 34 31 39 0 5 27 42 60 83 33 41 74
97 91 124 17 28 35 50 40 50 5 0 29 -26 54 -57z m148 -449 c-2 -28 -47 -130
-97 -222 -25 -45 -48 -94 -52 -109 -4 -15 -35 -84 -69 -153 -35 -69 -66 -137
-69 -153 -10 -41 -41 -67 -81 -67 -27 0 -33 3 -28 15 3 9 20 22 38 29 30 13
33 19 39 70 4 31 17 70 30 89 13 18 26 47 30 63 4 16 28 63 53 104 103 170
143 241 143 256 0 6 7 17 15 24 8 7 15 25 15 40 0 14 3 30 7 34 12 12 28 0 26
-20z m-771 -243 c-6 -17 -53 -97 -105 -178 -52 -82 -100 -159 -107 -173 -7
-14 -27 -42 -44 -63 -23 -29 -32 -34 -38 -24 -15 28 74 180 240 405 55 76 72
86 54 33z"/>
<path d="M5558 9324 c-15 -8 -32 -23 -38 -34 -15 -28 -12 -76 6 -91 13 -11 19
-9 37 13 12 14 37 31 55 38 37 14 43 47 14 73 -23 21 -39 21 -74 1z"/>
<path d="M5611 9201 c-33 -27 -36 -51 -6 -51 13 0 65 59 65 73 0 15 -27 5 -59
-22z"/>
<path d="M5679 9160 c-10 -7 -11 -16 -4 -36 12 -33 25 -39 49 -21 15 11 16 18
8 34 -14 25 -34 34 -53 23z"/>
<path d="M4237 9042 c-38 -41 -30 -113 13 -127 29 -9 27 -59 -5 -90 -30 -31
-70 -32 -129 -3 -44 21 -46 21 -66 3 -11 -10 -25 -33 -32 -51 -14 -41 -33 -43
-69 -8 -24 23 -29 24 -48 12 -14 -8 -21 -23 -21 -43 0 -44 -46 -131 -85 -161
-48 -36 -93 -41 -143 -15 -29 15 -42 28 -42 42 0 11 -7 27 -15 35 -24 24 -23
173 1 211 8 12 14 27 14 32 0 14 -29 41 -45 41 -36 0 -59 -203 -34 -295 14
-51 50 -99 100 -132 32 -21 47 -25 83 -21 70 8 132 50 162 111 33 63 51 79 86
72 39 -6 54 2 79 42 l22 35 66 -7 c66 -6 66 -6 120 34 30 23 64 41 75 41 31 0
105 40 122 65 24 37 -3 74 -33 44 -15 -15 -43 -4 -43 16 0 8 11 20 24 24 22 9
36 29 36 53 0 7 -24 9 -74 5 l-75 -7 -3 27 c-4 33 -20 39 -41 15z"/>
<path d="M5640 8971 c0 -50 9 -64 46 -75 18 -5 24 -1 33 25 6 18 11 38 11 45
0 23 -38 54 -65 54 -23 0 -25 -3 -25 -49z"/>
<path d="M6000 8995 c-10 -12 -10 -19 -2 -27 14 -14 53 -4 83 22 l24 19 -46 1
c-30 0 -51 -5 -59 -15z"/>
<path d="M5638 8812 c-2 -15 0 -52 4 -82 13 -111 9 -175 -17 -251 -14 -41 -30
-89 -34 -107 -14 -51 -39 -82 -66 -82 -41 0 -73 18 -90 50 -13 25 -22 31 -43
28 -23 -3 -27 -8 -30 -38 -2 -28 4 -43 30 -74 31 -35 37 -38 86 -38 29 1 69 6
87 12 39 13 105 84 105 112 0 10 10 46 22 80 19 53 23 84 23 198 0 127 -1 137
-25 172 -32 48 -48 54 -52 20z"/>
<path d="M4259 8516 c-24 -16 -60 -26 -122 -33 -108 -13 -170 -47 -206 -112
-19 -35 -24 -58 -24 -123 0 -72 3 -84 30 -121 l29 -42 73 1 c71 0 72 0 78 -28
7 -37 36 -44 77 -19 57 35 57 38 57 194 l-1 145 40 42 c45 47 54 92 22 109
-14 8 -27 4 -53 -13z m-112 -104 c6 -4 14 -29 18 -57 3 -27 11 -70 17 -95 18
-75 -23 -131 -72 -100 -9 6 -13 23 -11 53 3 49 -19 110 -51 144 -17 18 -19 25
-9 37 17 20 87 32 108 18z"/>
<path d="M3490 8414 c0 -8 18 -41 40 -71 30 -42 40 -66 40 -94 0 -26 5 -39 17
-43 25 -10 43 20 43 68 0 37 -6 46 -62 98 -64 61 -78 68 -78 42z"/>
<path d="M4672 6995 c-55 -64 -69 -85 -55 -85 24 0 73 36 129 95 49 50 56 75
22 75 -16 -1 -46 -27 -96 -85z"/>
<path d="M4794 6559 c-15 -16 -16 -23 -6 -37 7 -9 15 -23 18 -30 9 -19 -39
-66 -126 -125 -118 -79 -164 -116 -184 -148 -18 -29 -18 -31 -1 -49 25 -27 37
-25 72 13 43 45 140 127 150 127 5 0 36 18 70 39 46 30 64 50 77 81 23 58 21
102 -7 128 -29 27 -39 27 -63 1z"/>
<path d="M4792 6256 c-23 -30 -20 -56 8 -56 23 0 33 29 22 60 l-8 23 -22 -27z"/>
<path d="M4326 5781 c-21 -24 -15 -65 11 -75 23 -9 35 7 37 50 1 45 -20 56
-48 25z"/>
<path d="M4199 5567 c-31 -16 -39 -72 -12 -93 27 -20 51 -17 69 11 32 49 -7
106 -57 82z"/>
<path d="M4121 5306 c-45 -72 -7 -130 47 -73 28 30 29 82 3 97 -27 14 -27 14
-50 -24z"/>
<path d="M4123 5074 c-21 -9 -63 -72 -57 -88 13 -35 71 -25 99 17 12 19 13 31
6 51 -10 25 -22 30 -48 20z"/>
<path d="M4113 4808 c-27 -30 -32 -48 -22 -75 13 -37 47 -29 65 13 17 40 12
84 -9 84 -8 0 -23 -10 -34 -22z"/>
<path d="M4141 4605 c-39 -34 -48 -61 -25 -86 21 -23 42 -24 72 -3 35 24 46
62 27 90 -20 31 -36 30 -74 -1z"/>
<path d="M4215 4418 c-54 -31 -60 -74 -10 -84 44 -8 59 -2 81 31 16 24 16 27
-1 45 -20 23 -41 25 -70 8z"/>
<path d="M6790 9859 c0 -5 5 -7 10 -4 6 3 10 8 10 11 0 2 -4 4 -10 4 -5 0 -10
-5 -10 -11z"/>
<path d="M6635 9788 c-22 -12 -35 -23 -28 -25 15 -5 73 24 73 37 0 12 3 13
-45 -12z"/>
<path d="M7100 9502 c-151 -101 -189 -123 -283 -164 -98 -42 -123 -58 -93 -58
62 0 459 224 474 268 7 21 -11 13 -98 -46z"/>
<path d="M2931 8462 c-72 -36 -100 -62 -67 -62 9 0 34 13 56 29 21 15 53 34
70 41 16 7 30 16 30 21 0 14 -10 11 -89 -29z"/>
<path d="M3153 8158 c-119 -91 -353 -303 -353 -320 0 -18 27 -6 67 30 23 20
74 66 114 102 104 93 180 151 190 144 18 -11 8 -33 -23 -56 -18 -12 -71 -56
-118 -97 -46 -40 -109 -92 -140 -115 -64 -48 -82 -68 -70 -79 9 -10 131 86
195 153 41 42 103 86 110 78 3 -3 -36 -44 -85 -93 -50 -48 -88 -90 -85 -93 4
-5 56 37 120 97 17 16 39 35 50 42 11 8 43 38 69 67 l49 52 -21 23 c-20 22
-20 22 -2 57 41 75 24 77 -67 8z"/>
<path d="M2980 7780 c-98 -90 -100 -93 -100 -102 0 -5 9 -4 21 3 28 15 46 -2
25 -24 -9 -8 -21 -17 -28 -19 -6 -2 -8 -10 -4 -16 12 -19 60 15 119 83 28 33
59 68 70 79 10 10 16 25 13 33 -3 8 -6 17 -6 19 0 2 -10 4 -22 4 -14 0 -49
-25 -88 -60z m35 -30 c-3 -5 -11 -10 -16 -10 -6 0 -7 5 -4 10 3 6 11 10 16 10
6 0 7 -4 4 -10z"/>
<path d="M2847 7732 c-22 -15 -34 -29 -28 -35 12 -12 44 6 65 38 20 31 12 30
-37 -3z"/>
<path d="M3036 7648 c-21 -30 -20 -48 3 -48 42 0 68 60 29 68 -9 2 -23 -7 -32
-20z"/>
<path d="M10545 5920 c-27 -16 -54 -35 -60 -43 -5 -7 -23 -22 -40 -33 -54 -34
-174 -147 -248 -234 -39 -47 -108 -123 -153 -170 -157 -166 -356 -404 -409
-490 -15 -24 -49 -67 -75 -95 -27 -27 -65 -73 -87 -102 -47 -62 -155 -184
-285 -318 -53 -55 -117 -127 -142 -160 -64 -85 -121 -153 -198 -237 -159 -172
-280 -311 -370 -423 -53 -66 -138 -165 -190 -220 -51 -55 -111 -124 -132 -154
-21 -30 -72 -94 -115 -144 -42 -50 -92 -112 -111 -138 -33 -44 -55 -73 -174
-222 -27 -34 -54 -75 -61 -92 -15 -34 -69 -125 -102 -172 -13 -17 -23 -37 -23
-45 0 -17 20 -38 36 -38 12 0 119 150 149 210 34 68 91 154 128 193 20 22 37
44 37 49 0 5 19 30 43 56 24 26 58 67 77 92 19 25 64 77 100 115 37 39 79 90
95 115 27 44 98 124 266 300 45 47 86 96 90 108 11 29 87 120 157 188 28 28
52 54 52 57 0 7 22 32 155 176 44 48 100 113 125 145 25 31 52 66 62 76 9 10
19 27 22 38 4 11 39 51 79 89 40 38 122 127 182 198 61 71 131 152 156 180 46
52 109 138 109 150 0 14 136 185 203 254 39 42 89 98 111 126 21 27 79 91 130
141 50 50 147 148 216 218 69 69 135 129 148 132 12 4 22 10 22 15 0 4 26 26
59 48 59 40 72 56 64 79 -7 20 -45 13 -98 -18z"/>
<path d="M508 5297 c-86 -43 -98 -54 -98 -88 0 -32 14 -37 45 -15 11 7 54 28
96 45 42 18 84 40 94 51 45 49 -41 54 -137 7z"/>
<path d="M621 5196 c-15 -18 -110 -55 -166 -65 -31 -5 -42 -12 -49 -34 -13
-37 -3 -43 52 -30 129 29 216 78 210 118 -4 25 -31 31 -47 11z"/>
<path d="M483 5036 c-82 -23 -153 -65 -153 -92 0 -18 1 -18 85 7 39 11 94 24
123 29 58 9 92 32 92 62 0 24 -42 23 -147 -6z"/>
<path d="M478 4921 c-135 -36 -139 -37 -132 -55 10 -26 62 -41 98 -28 18 7 44
12 58 12 15 0 47 9 73 20 41 18 46 23 43 47 -2 16 -10 29 -18 30 -8 1 -63 -11
-122 -26z"/>
<path d="M410 4736 c-63 -18 -149 -47 -190 -64 -41 -17 -102 -38 -135 -47 -33
-9 -66 -22 -73 -27 -11 -10 -18 -88 -7 -88 2 0 43 18 90 39 46 22 87 36 90 31
10 -16 -6 -36 -53 -62 -26 -14 -66 -40 -89 -57 -37 -26 -43 -36 -43 -66 0 -19
2 -35 5 -35 6 0 95 54 176 107 37 23 69 43 73 43 11 0 6 -47 -6 -58 -7 -6 -44
-23 -83 -38 -85 -33 -141 -71 -155 -104 -6 -16 -9 -94 -8 -205 l3 -180 23 65
c25 72 65 125 87 116 11 -4 7 -20 -20 -80 -19 -42 -41 -86 -49 -98 -24 -39
-47 -125 -44 -164 l3 -38 98 108 c54 59 97 113 94 119 -2 7 -16 13 -30 15 -15
2 -27 9 -27 15 0 7 18 48 40 92 22 44 40 93 40 110 0 23 12 42 48 77 78 79
109 105 170 146 32 22 64 47 71 55 17 22 11 101 -9 105 -8 1 -46 -21 -83 -49
-81 -62 -103 -57 -57 13 30 46 79 78 118 78 12 0 23 4 26 9 3 4 18 11 33 14
38 8 71 77 54 113 -14 32 -39 31 -181 -10z m70 -54 c0 -11 -149 -66 -158 -58
-11 12 37 46 67 47 14 0 35 4 46 9 26 11 45 12 45 2z m-260 -361 c0 -15 -129
-93 -140 -86 -17 10 26 52 80 80 43 22 60 24 60 6z"/>
<path d="M186 3838 c-35 -35 -92 -83 -125 -106 -57 -41 -61 -46 -61 -83 0 -21
3 -39 7 -39 3 0 29 21 57 48 29 26 86 76 128 111 73 62 104 102 93 122 -13 20
-38 6 -99 -53z"/>
<path d="M11258 268 c-3 -25 -26 -33 -65 -23 -31 7 -20 22 22 28 17 2 -18 5
-76 6 -81 1 -108 -2 -112 -12 -3 -8 -39 -19 -92 -26 -65 -10 -93 -19 -116 -38
-36 -31 -36 -38 -1 -52 22 -9 38 -8 82 7 49 16 85 18 340 15 294 -3 319 -4
482 -21 130 -15 178 -28 178 -51 0 -12 13 -22 43 -30 23 -7 51 -18 62 -24 98
-54 116 -57 173 -28 20 10 54 21 74 25 21 4 44 16 52 28 13 19 22 20 90 16 67
-4 77 -3 89 15 13 20 14 19 55 -8 27 -18 49 -26 64 -22 13 3 41 10 63 16 22 5
61 13 88 16 l47 6 0 60 0 59 -97 2 c-219 5 -282 -1 -390 -39 -34 -12 -43 -19
-43 -38 0 -13 -8 -29 -17 -34 -15 -9 -14 -10 10 -11 19 0 27 -4 24 -12 -2 -7
-16 -12 -31 -10 -16 2 -29 -3 -32 -13 -3 -8 -17 -15 -29 -15 -13 0 -27 -5 -30
-10 -11 -18 -37 11 -31 34 4 15 -2 26 -18 36 -12 8 -39 26 -59 38 -50 33 -50
59 1 54 20 -2 42 -8 47 -12 27 -20 81 -19 142 1 35 11 63 21 63 22 0 1 -76 3
-170 3 -121 1 -169 -2 -167 -10 2 -13 -6 -12 -166 7 -88 11 -121 19 -131 32
-13 18 -39 18 -262 -6 -114 -12 -174 -7 -125 12 13 5 38 7 56 3 22 -4 35 -1
44 10 12 14 6 16 -57 16 -66 0 -71 -2 -74 -22z m-133 -7 c7 -12 -12 -24 -25
-16 -11 7 -4 25 10 25 5 0 11 -4 15 -9z"/>
<path d="M10745 270 c-16 -5 -65 -13 -108 -19 -66 -9 -84 -9 -111 4 -24 12
-39 13 -57 6 l-24 -10 23 -7 c12 -3 22 -10 22 -15 0 -5 6 -9 13 -9 20 0 47
-33 47 -58 0 -24 12 -28 95 -36 70 -6 128 10 133 37 3 16 -2 18 -29 15 -20 -2
-34 2 -36 10 -3 8 6 12 24 12 32 0 73 35 73 63 0 18 -17 20 -65 7z"/>
<path d="M10360 260 c-11 -7 -5 -10 23 -10 23 0 36 4 32 10 -8 13 -35 13 -55
0z"/>
<path d="M11813 253 c9 -2 25 -2 35 0 9 3 1 5 -18 5 -19 0 -27 -2 -17 -5z"/>
<path d="M10176 223 c-1 -1 -222 -4 -491 -7 -403 -4 -500 -7 -545 -20 -166
-47 -226 -58 -290 -53 -36 3 -87 1 -115 -4 -27 -4 -113 -13 -190 -19 -144 -11
-210 -30 -210 -60 0 -22 75 -24 325 -6 118 8 222 15 230 15 43 -1 195 23 213
33 23 12 69 15 332 23 216 7 269 10 282 18 6 4 75 3 154 -2 79 -5 191 -5 249
-1 58 4 165 4 237 -2 141 -9 173 -4 173 31 0 27 -106 50 -243 53 -60 2 -110 2
-111 1z"/>
<path d="M8282 158 c7 -19 38 -22 38 -4 0 10 -9 16 -21 16 -12 0 -19 -5 -17
-12z"/>
<path d="M12160 120 c0 -5 5 -10 10 -10 6 0 10 5 10 10 0 6 -4 10 -10 10 -5 0
-10 -4 -10 -10z"/>
<path d="M12200 100 c0 -5 5 -10 10 -10 6 0 10 5 10 10 0 6 -4 10 -10 10 -5 0
-10 -4 -10 -10z"/>
</g>
</svg>
