<?xml version="1.0" standalone="no"?>
<!DOCTYPE svg PUBLIC "-//W3C//DTD SVG 20010904//EN"
 "http://www.w3.org/TR/2001/REC-SVG-20010904/DTD/svg10.dtd">
<svg version="1.0" xmlns="http://www.w3.org/2000/svg"
 width="1280.000000pt" height="968.000000pt" viewBox="0 0 1280.000000 968.000000"
 preserveAspectRatio="xMidYMid meet">
<metadata>
Created by potrace 1.15, written by Peter Selinger 2001-2017
</metadata>
<g transform="translate(0.000000,968.000000) scale(0.100000,-0.100000)"
fill="#000000" stroke="none">
<path d="M7630 9670 c-25 -4 -82 -26 -127 -49 -45 -22 -88 -41 -95 -41 -26 0
-124 -42 -145 -63 -38 -35 -29 -56 57 -137 44 -41 80 -80 80 -86 0 -6 -27 -28
-59 -48 -70 -43 -121 -98 -198 -215 -31 -47 -65 -99 -75 -114 -11 -15 -31 -54
-46 -85 -15 -31 -35 -68 -45 -82 -9 -13 -17 -33 -17 -44 0 -11 -37 -94 -81
-185 -45 -91 -94 -196 -110 -233 -15 -38 -52 -101 -82 -140 -71 -95 -177 -255
-177 -266 0 -5 -9 -17 -20 -27 -11 -10 -34 -43 -51 -72 -18 -31 -37 -53 -47
-53 -10 0 -36 -17 -59 -37 -23 -21 -68 -61 -100 -89 -52 -46 -148 -104 -172
-104 -5 0 -33 -16 -62 -35 -72 -47 -286 -151 -328 -159 -19 -3 -42 -13 -52
-22 -9 -8 -59 -31 -109 -50 -81 -30 -98 -33 -130 -24 -21 6 -52 23 -69 39 -29
27 -31 33 -31 103 0 88 -20 136 -68 159 -40 20 -68 15 -89 -18 -18 -26 -17
-28 43 -184 l18 -46 -34 -84 c-22 -56 -35 -106 -38 -150 -4 -60 0 -76 32 -150
20 -46 54 -118 76 -159 48 -93 218 -467 317 -699 5 -11 2 -13 -13 -7 -10 4
-38 11 -60 15 -23 4 -55 17 -70 27 -16 11 -54 30 -84 43 -91 39 -166 74 -360
169 -102 50 -264 127 -360 173 -96 45 -230 108 -298 141 -68 33 -136 64 -150
68 -15 5 -65 25 -112 45 -96 42 -105 45 -250 80 -65 15 -149 27 -220 30 -63 3
-142 11 -174 17 -54 10 -60 10 -73 -8 -9 -13 -12 -31 -8 -56 4 -20 1 -53 -5
-75 -15 -50 -42 -283 -41 -345 0 -35 0 -43 -4 -152 -2 -49 -9 -111 -16 -138
-11 -48 -13 -141 -4 -243 11 -143 11 -770 -1 -895 -7 -74 -16 -205 -19 -290
-3 -85 -8 -175 -11 -198 l-6 -44 -35 7 c-32 6 -39 2 -74 -35 -21 -22 -39 -51
-39 -63 0 -12 -15 -45 -34 -73 -47 -69 -68 -142 -57 -200 5 -25 5 -57 0 -72
-48 -147 -63 -189 -93 -268 -19 -50 -43 -130 -52 -177 -16 -80 -16 -102 0
-352 10 -147 15 -269 12 -272 -12 -12 -211 -32 -324 -32 -70 0 -217 -5 -327
-12 -267 -16 -256 -14 -287 -27 -16 -6 -40 -9 -55 -6 -16 2 -59 0 -98 -6 -172
-26 -239 -31 -538 -34 -174 -1 -320 -6 -324 -9 -3 -4 0 -13 7 -21 8 -10 29
-15 63 -14 29 1 162 0 297 -1 151 -1 258 2 280 8 19 6 60 11 90 11 30 0 113 9
185 19 71 11 132 18 135 16 3 -2 88 3 190 11 102 7 214 14 250 15 36 0 92 5
125 9 33 5 107 11 165 15 58 3 114 8 125 11 31 8 57 -19 71 -72 11 -42 10 -51
-3 -66 -9 -10 -27 -18 -41 -18 -13 0 -50 -6 -81 -14 -31 -8 -112 -19 -181 -25
-499 -45 -526 -48 -664 -72 -33 -6 -78 -12 -100 -15 -65 -6 -149 -28 -153 -40
-4 -13 105 -9 182 6 59 11 345 52 395 56 19 2 78 7 130 13 52 6 160 17 240 26
80 8 178 22 218 31 40 9 80 13 88 10 15 -6 20 -61 6 -70 -13 -8 -565 -60 -609
-57 -18 1 -21 1 -173 -5 -74 -3 -162 -10 -195 -15 -33 -5 -125 -14 -204 -19
-80 -6 -150 -15 -156 -20 -7 -6 -15 -6 -21 0 -13 13 -73 14 -269 6 -213 -8
-395 -24 -476 -41 -55 -11 -68 -10 -96 3 -27 13 -39 13 -71 4 -22 -7 -62 -12
-89 -12 -72 0 -294 -39 -320 -56 -49 -31 -22 -49 50 -34 29 6 89 12 133 15 43
2 133 8 199 14 66 6 149 12 185 14 36 3 121 10 190 16 69 6 195 14 280 16 440
14 667 27 818 46 92 11 187 22 212 24 25 2 90 8 145 14 136 15 454 39 487 36
32 -2 47 -13 27 -19 -8 -3 -77 -10 -154 -16 -77 -6 -223 -19 -325 -30 -219
-23 -267 -27 -465 -41 -200 -14 -220 -16 -360 -29 -66 -6 -192 -17 -279 -25
-88 -8 -162 -17 -165 -20 -25 -25 128 -27 299 -3 41 6 140 12 220 14 193 5
444 23 500 35 25 6 88 14 140 19 120 11 467 49 541 59 70 9 88 3 104 -36 12
-29 12 -32 -8 -37 -12 -3 -80 -8 -152 -11 -71 -4 -161 -11 -200 -16 -38 -5
-162 -16 -275 -24 -113 -8 -252 -19 -310 -25 -58 -6 -193 -17 -300 -25 -107
-8 -247 -20 -310 -26 -63 -6 -130 -8 -148 -5 -96 15 -312 -37 -312 -76 0 -21
16 -23 57 -7 34 13 276 36 466 44 76 3 148 10 160 14 12 5 65 12 117 16 52 4
113 11 135 15 47 10 338 38 465 44 47 2 191 14 320 26 129 12 276 23 325 25
50 1 120 9 158 18 49 11 69 12 75 3 4 -6 7 -47 7 -91 1 -114 20 -240 39 -270
10 -15 16 -34 14 -43 -5 -24 -103 103 -133 173 -29 64 -55 72 -66 18 -9 -45
-37 -101 -71 -145 -28 -35 -33 -38 -81 -38 -30 0 -71 9 -96 20 -71 32 -41 52
129 84 45 8 78 20 86 31 8 10 12 43 11 81 -2 72 6 84 59 84 16 0 39 6 50 14
18 14 18 15 -9 21 -40 10 -126 -3 -162 -25 -25 -15 -52 -18 -160 -19 -110 -1
-289 -11 -435 -26 -81 -8 -317 -27 -335 -27 -28 0 -180 -16 -310 -33 -154 -21
-263 -24 -270 -8 -6 17 -34 16 -41 -1 -3 -8 -16 -17 -30 -20 -14 -4 -24 -14
-24 -24 -1 -15 -2 -15 -15 2 -13 17 -23 18 -92 12 -283 -25 -546 -41 -680 -41
-101 1 -103 0 -103 -22 0 -15 6 -23 18 -24 33 -1 157 2 247 7 50 2 135 7 189
10 54 2 102 7 106 9 4 2 130 9 281 15 193 7 289 15 323 26 31 10 79 15 130 13
97 -3 417 27 501 47 33 7 103 14 155 14 52 1 118 6 145 12 56 12 393 19 399 9
9 -15 -29 -73 -56 -87 -36 -18 -126 -11 -175 14 -43 22 -54 10 -59 -65 -4 -57
-3 -58 34 -84 54 -38 156 -79 197 -79 44 0 80 18 119 59 17 17 35 31 41 31 6
0 29 -18 50 -40 21 -22 44 -40 50 -40 7 0 20 -9 31 -21 44 -49 126 -64 185
-33 24 12 37 13 62 5 21 -8 48 -8 86 -1 83 14 334 29 611 35 135 3 283 10 330
15 94 10 298 18 675 25 138 3 348 7 467 10 l217 5 16 -29 c8 -17 15 -36 15
-44 0 -8 6 -20 14 -26 12 -10 15 -5 21 27 5 34 11 41 37 46 69 14 71 12 65
-51 -11 -101 -26 -196 -43 -278 -9 -44 -16 -91 -16 -105 0 -14 -4 -56 -9 -95
-19 -160 -20 -155 6 -155 21 0 25 7 40 78 8 42 20 91 25 108 16 48 28 166 36
332 7 152 7 154 32 163 14 5 29 6 33 2 4 -4 9 -64 11 -133 2 -70 9 -134 16
-145 6 -11 12 -18 12 -15 3 12 13 211 14 265 l1 60 -40 3 c-22 2 -43 9 -47 15
-11 18 -10 135 2 158 7 13 21 19 45 19 18 0 46 5 60 10 23 9 25 13 14 26 -10
12 -25 15 -56 11 -62 -7 -68 5 -58 116 5 51 10 125 11 165 1 49 6 78 16 88 12
12 70 16 309 21 323 7 316 8 321 -53 2 -36 -8 -55 -26 -48 -7 3 -48 0 -92 -6
-87 -12 -183 -21 -227 -21 -17 0 -25 -4 -21 -11 5 -7 60 -9 173 -7 l166 4 10
-129 c12 -159 9 -213 -13 -218 -10 -3 -80 4 -157 14 -137 18 -219 17 -257 -3
-17 -9 -15 -13 24 -33 42 -22 43 -22 65 -3 23 20 33 20 218 2 110 -11 110 -12
121 -105 7 -65 14 -328 10 -355 -9 -46 -42 -56 -160 -47 -114 9 -166 5 -166
-12 0 -15 128 -37 150 -26 8 4 44 5 79 2 63 -5 63 -5 82 -46 20 -43 24 -83 11
-103 -5 -8 -30 -11 -77 -9 -91 4 -210 -6 -210 -19 0 -6 52 -10 128 -10 124 0
129 -1 146 -24 l18 -24 36 21 c46 29 125 31 415 13 236 -15 256 -20 250 -65
-2 -15 -11 -22 -31 -24 -23 -3 -26 -6 -16 -18 14 -17 114 -20 124 -3 4 6 -3
22 -16 35 -26 28 -20 50 21 71 34 17 43 6 35 -41 -13 -73 -14 -413 -2 -430 18
-24 58 1 82 51 23 49 38 50 46 2 9 -61 15 -63 77 -28 32 17 67 44 80 60 13 16
28 29 33 29 5 0 29 -18 53 -40 24 -22 50 -40 59 -40 56 0 117 116 117 223 0
45 6 75 23 107 l22 45 120 -2 c66 0 145 -6 175 -11 62 -12 374 1 450 18 50 11
254 30 374 35 43 2 96 7 118 10 37 7 39 5 53 -29 8 -19 15 -46 15 -59 0 -13 9
-32 20 -42 27 -24 102 -164 94 -176 -5 -9 -250 -7 -749 6 -266 7 -473 7 -588
0 -98 -7 -117 -10 -115 -23 2 -12 20 -16 78 -18 41 -2 127 -5 190 -8 63 -2
180 -1 260 3 80 4 152 4 160 0 20 -9 197 -25 460 -41 260 -15 322 -14 530 12
110 14 1203 20 1370 8 58 -4 155 -10 215 -13 61 -3 139 -9 175 -15 101 -15
182 -17 187 -4 2 7 -21 14 -64 18 -37 3 -106 10 -153 16 -47 5 -177 14 -290
20 -113 5 -221 14 -240 19 -43 11 -192 14 -655 12 -269 -1 -356 2 -348 10 16
16 454 28 700 20 287 -9 470 -4 561 15 30 6 29 34 -2 34 -14 0 -27 4 -30 9 -3
4 125 11 284 15 159 4 304 12 322 18 35 10 119 20 178 19 42 -1 66 12 55 29
-6 9 -27 11 -79 6 -124 -13 -195 -17 -476 -31 -61 -3 -202 -7 -217 -6 -7 1
-13 8 -13 16 0 10 10 15 34 15 19 0 47 5 63 11 15 6 55 12 88 14 33 2 60 4 60
5 0 1 20 3 45 5 41 3 153 16 420 49 156 18 111 31 -102 28 -106 -1 -201 -5
-211 -8 -13 -4 -16 -12 -12 -27 6 -21 6 -21 -6 -2 -7 11 -13 21 -14 22 -4 6
-278 -29 -365 -47 -52 -10 -131 -21 -175 -25 -99 -8 -327 -65 -333 -84 -5 -15
-12 -15 166 13 220 35 305 46 313 40 20 -12 7 -24 -35 -35 -29 -7 -46 -17 -49
-30 -9 -33 -51 -40 -215 -34 -85 3 -159 8 -162 10 -4 3 -71 7 -149 10 -77 3
-152 10 -167 15 -14 6 -60 10 -102 10 -42 0 -95 4 -117 9 -64 15 -308 23 -325
11 -13 -9 -13 -11 0 -20 8 -5 26 -10 40 -10 14 0 60 -7 103 -15 43 -8 112 -15
152 -15 41 0 76 -4 79 -9 7 -10 -147 -26 -163 -17 -15 10 -201 -15 -264 -35
-70 -23 -81 -23 -102 -2 -13 12 -15 26 -11 54 5 32 1 43 -28 78 -28 33 -35 51
-41 108 -3 37 -13 78 -20 89 -8 12 -14 37 -14 55 0 19 -3 57 -7 86 l-6 52 37
7 c20 3 65 4 99 0 35 -3 117 -2 182 4 262 22 510 29 695 19 175 -9 266 -5 374
17 17 3 39 7 50 9 28 4 244 44 335 62 41 8 98 18 125 23 28 4 70 13 95 19 58
13 322 48 470 63 63 6 121 14 129 18 24 13 -85 23 -178 16 -101 -8 -425 -44
-462 -51 -14 -3 -63 -7 -110 -9 -47 -2 -95 -9 -107 -15 -12 -6 -115 -16 -229
-22 -222 -11 -314 -20 -433 -39 -50 -8 -126 -10 -225 -6 -82 4 -269 10 -415
15 -146 5 -272 12 -281 16 -20 8 -81 -17 -125 -50 -34 -26 -54 -19 -54 21 0
35 23 45 121 50 52 3 121 9 154 14 33 5 149 12 258 15 109 4 246 10 305 15 59
4 111 5 115 3 5 -3 103 -2 218 2 159 6 209 11 209 20 0 14 -26 14 -590 0 -135
-3 -337 -12 -450 -21 -113 -8 -236 -14 -274 -12 l-69 3 -12 45 c-13 47 -36
205 -41 275 -1 22 -9 89 -17 148 -10 78 -11 110 -3 112 20 7 450 19 575 17 69
-1 129 -6 135 -11 6 -5 52 -19 101 -30 50 -12 108 -26 130 -32 51 -14 335 -14
446 0 47 6 115 13 150 16 134 9 199 17 204 25 2 4 88 6 190 4 112 -2 185 1
185 7 0 5 -10 10 -22 11 -13 1 -48 4 -78 6 -149 14 -483 4 -615 -18 -110 -18
-453 -8 -575 17 -23 4 -23 5 -6 15 12 7 43 8 85 3 36 -4 109 -6 161 -6 52 1
173 3 269 4 126 1 175 5 178 14 5 15 25 14 -507 17 -965 4 -1008 5 -1014 22
-3 9 -6 46 -6 84 0 38 -4 79 -9 93 -5 13 -11 48 -13 78 l-3 54 84 -3 c47 -2
108 -11 140 -22 31 -10 68 -21 83 -24 40 -9 224 12 298 33 139 40 298 62 440
60 162 -3 430 11 430 22 0 17 -26 20 -200 20 -154 1 -180 3 -180 16 0 13 35
14 288 8 194 -5 295 -12 312 -20 42 -21 78 -26 130 -19 72 10 61 24 -17 24
-49 0 -64 3 -53 10 8 6 44 9 80 8 36 -1 70 1 77 5 6 4 55 9 110 12 114 6 155
13 148 25 -5 9 -235 12 -879 14 l-299 1 -34 45 c-33 43 -96 94 -175 142 -21
13 -36 28 -35 33 2 6 45 12 95 15 92 5 127 19 105 41 -8 8 -43 7 -125 -2 -140
-14 -183 -8 -202 29 -19 37 -118 110 -185 138 -30 12 -75 43 -105 72 -28 27
-77 66 -108 86 -31 20 -59 40 -63 46 -3 5 3 22 14 37 10 16 21 49 25 74 3 25
17 85 31 134 29 101 28 95 15 95 -11 0 -58 -100 -84 -177 -19 -56 -47 -88 -71
-80 -22 9 -20 22 24 154 58 179 109 353 116 403 4 25 11 50 15 55 5 6 25 62
44 125 20 63 54 167 77 230 22 63 48 138 56 165 9 28 19 59 23 70 4 11 28 81
53 155 57 172 84 247 102 285 17 37 71 181 80 215 7 26 24 66 55 135 10 22 21
51 25 65 5 14 27 66 51 115 23 50 76 161 117 248 101 215 188 314 301 339 34
8 42 6 63 -14 51 -48 64 -108 51 -237 -5 -51 16 -48 40 6 31 69 36 120 17 173
-28 79 -82 120 -158 120 -74 0 -136 -36 -207 -117 -34 -40 -64 -73 -66 -73
-12 0 -115 57 -167 92 -58 40 -59 40 -51 77 11 51 9 81 -9 123 -30 71 -123
100 -187 56 -33 -22 -46 -38 -134 -159 -50 -69 -132 -211 -211 -364 -33 -66
-73 -138 -86 -160 -14 -22 -45 -83 -68 -135 -23 -52 -51 -111 -62 -130 -11
-19 -28 -52 -36 -72 -9 -21 -20 -38 -24 -38 -5 0 -20 22 -34 50 -21 42 -25 62
-25 142 1 51 4 111 9 133 12 63 9 65 -89 65 -49 0 -91 4 -94 9 -3 5 25 20 62
34 109 41 177 75 202 102 22 23 22 25 4 31 -10 3 -35 14 -54 24 -29 15 -43 17
-80 9 -69 -15 -150 -22 -150 -14 0 5 12 32 26 61 14 29 28 71 31 92 5 34 2 42
-19 56 -20 13 -34 14 -78 6 -29 -5 -56 -10 -60 -10 -9 0 -30 47 -30 69 0 9
-14 39 -30 65 -26 40 -35 47 -57 44 -35 -4 -90 -94 -99 -160 -8 -60 -25 -76
-58 -55 -20 13 -25 27 -30 84 -15 150 -29 205 -86 343 -28 67 -32 98 -20 170
6 36 15 96 21 134 9 66 73 226 90 226 4 0 10 9 14 19 3 10 19 25 36 32 26 10
32 10 40 -2 23 -35 22 -63 -4 -110 -29 -50 -34 -88 -17 -120 16 -28 50 -25 50
5 0 13 7 43 16 67 15 43 21 63 63 254 11 50 40 142 65 205 25 63 46 124 46
135 0 31 26 62 93 112 103 75 155 195 137 311 -19 118 -69 189 -190 270 -71
47 -81 48 -158 9 -41 -20 -46 -20 -110 -7 -105 22 -280 15 -372 -14 -41 -14
-89 -27 -107 -31 -67 -13 -312 -226 -313 -271 0 -6 -9 -19 -20 -29 -38 -34
-80 -108 -80 -139 0 -17 -14 -60 -30 -94 -17 -35 -30 -74 -30 -87 0 -12 -7
-28 -15 -35 -8 -7 -20 -31 -25 -54 -6 -22 -26 -72 -44 -111 -19 -38 -37 -89
-41 -112 -8 -52 3 -146 20 -170 12 -16 15 -16 54 2 23 10 43 16 44 14 2 -2 14
-42 27 -89 30 -105 53 -132 105 -123 43 7 54 -5 55 -57 1 -28 12 -46 53 -91
l52 -57 79 10 c63 8 81 7 87 -4 13 -19 14 -17 -49 -114 -71 -109 -155 -210
-180 -218 -10 -4 -54 3 -98 15 -43 11 -106 27 -138 35 -33 8 -98 27 -145 43
-47 16 -104 34 -127 40 -79 21 -79 19 -60 273 9 123 23 275 31 338 26 204 44
402 50 550 9 205 23 387 35 429 5 20 14 70 19 111 6 41 19 113 29 160 11 47
28 135 37 195 23 142 89 469 115 563 13 51 30 86 55 114 53 62 44 93 -30 105
-32 5 -40 12 -55 47 -19 46 -51 65 -150 91 -59 16 -62 16 -130 5z m35 -62 c10
-33 10 -33 83 -36 l72 -3 0 -49 c0 -27 -4 -51 -8 -54 -5 -3 -36 14 -71 36
l-63 42 -53 -19 c-53 -18 -85 -16 -85 5 0 15 90 110 104 110 7 0 16 -15 21
-32z m-218 -144 c10 -14 33 -41 51 -59 24 -26 32 -43 32 -70 0 -52 -33 -47
-86 12 -61 68 -81 107 -65 127 20 24 48 19 68 -10z m471 -6 c20 -20 13 -55
-14 -77 -49 -38 -84 -22 -84 39 0 35 2 36 29 32 16 -2 32 1 35 7 9 14 19 14
34 -1z m-268 -10 c0 -17 -31 -48 -47 -48 -11 0 -8 8 9 29 24 32 38 38 38 19z
m-74 -135 c-10 -10 -19 5 -10 18 6 11 8 11 12 0 2 -7 1 -15 -2 -18z m164 -39
c0 -12 -6 -15 -22 -10 -13 3 -41 6 -63 7 l-40 2 35 7 c63 13 90 11 90 -6z
m-346 -90 c7 -18 -3 -39 -49 -103 -43 -60 -225 -381 -225 -397 0 -6 -6 -16
-13 -22 -10 -9 -18 0 -35 40 l-21 51 36 66 c20 36 51 87 67 113 17 25 42 65
56 88 30 50 150 180 166 180 7 0 15 -7 18 -16z m235 -74 c20 -45 20 -162 1
-442 -10 -150 -8 -178 15 -178 15 0 21 29 35 175 12 120 9 439 -4 468 -12 25
26 23 50 -4 22 -24 22 -38 12 -301 -4 -97 -12 -196 -17 -220 -35 -160 -47
-281 -82 -808 -5 -91 -15 -221 -20 -290 -5 -69 -14 -192 -19 -275 -5 -82 -13
-186 -19 -230 -5 -44 -9 -120 -10 -170 -1 -99 -12 -119 -61 -113 -23 3 -25 8
-28 63 -2 33 1 123 7 200 33 401 39 491 40 615 1 73 4 137 6 140 5 8 24 222
32 375 12 221 5 765 -13 868 -18 111 -18 126 3 149 27 30 52 22 72 -22z m-200
-132 c-14 -61 -25 -70 -58 -49 -11 7 -7 18 18 55 18 26 36 44 41 41 4 -3 4
-24 -1 -47z m67 -81 c-4 -21 0 -51 10 -78 13 -36 16 -93 16 -329 0 -157 -6
-355 -12 -440 -22 -274 -27 -396 -39 -865 -7 -253 -16 -464 -21 -468 -10 -11
-47 8 -58 31 -5 9 -5 128 -1 267 23 712 28 811 43 870 14 55 46 433 48 580 1
33 -4 128 -10 210 -10 139 -8 179 13 243 9 26 17 10 11 -21z m-255 -212 c2
-130 -29 -457 -46 -485 -7 -12 -38 -399 -36 -455 1 -27 -3 -82 -9 -121 -5 -39
-10 -179 -11 -312 -1 -214 -7 -282 -22 -224 -3 9 -3 220 -1 467 3 443 14 718
32 804 6 25 7 97 2 173 -6 101 -5 136 5 156 8 15 19 42 26 60 14 40 39 67 50
55 4 -4 9 -57 10 -118z m170 98 c20 -23 16 -556 -5 -737 -34 -298 -57 -706
-59 -1065 -2 -157 -5 -215 -14 -218 -15 -5 -11 659 6 897 25 365 30 532 25
812 -4 164 -4 305 0 313 7 20 30 19 47 -2z m-87 -84 c-4 -198 -15 -444 -24
-534 -13 -122 -25 -694 -24 -1095 l1 -295 -44 4 c-57 4 -61 15 -58 156 6 338
18 594 30 700 8 66 19 221 24 345 9 203 22 307 52 420 11 44 27 268 22 333 -2
35 1 47 10 44 8 -2 12 -27 11 -78z m-256 -51 c10 -13 9 -24 -7 -62 -19 -42
-23 -46 -56 -46 -49 0 -52 18 -18 88 45 90 45 90 57 61 6 -15 17 -33 24 -41z
m42 -200 c0 -51 -5 -120 -11 -153 -10 -52 -14 -134 -22 -425 -1 -30 -1 -95 0
-145 1 -49 2 -123 2 -163 1 -40 5 -89 9 -110 6 -29 0 -240 -17 -624 -1 -25
-53 -24 -75 1 -15 17 -17 54 -15 407 1 214 3 407 5 429 1 22 5 81 8 130 3 50
15 164 27 255 12 91 24 228 28 305 6 141 17 185 46 185 12 0 15 -18 15 -92z
m-95 15 c-9 -20 -19 -41 -24 -47 -5 -6 -14 -28 -20 -48 -7 -21 -15 -38 -18
-38 -3 0 -18 9 -34 21 -57 40 -24 134 49 142 20 2 43 4 50 5 9 2 9 -7 -3 -35z
m-131 -184 c32 -25 34 -66 5 -103 -22 -28 -29 -27 -78 12 l-23 19 20 46 c23
52 37 57 76 26z m2235 -40 c15 -43 14 -104 -1 -117 -8 -5 -22 -6 -34 -2 -27
11 -38 61 -22 111 14 49 41 52 57 8z m-283 -55 c-4 -13 -11 -24 -16 -24 -10 0
-7 27 8 75 6 19 7 18 10 -4 2 -12 1 -34 -2 -47z m55 33 c-8 -8 -11 -7 -11 4 0
9 3 19 7 23 4 4 9 2 11 -4 3 -7 -1 -17 -7 -23z m289 -1 c0 -8 -4 -17 -9 -21
-12 -7 -24 12 -16 25 9 15 25 12 25 -4z m-414 -23 c-4 -16 -9 -71 -13 -123 -5
-92 -19 -130 -46 -130 -19 0 -2 171 23 228 24 55 47 71 36 25z m160 0 c-10
-10 -19 5 -10 18 6 11 8 11 12 0 2 -7 1 -15 -2 -18z m-1961 -86 c4 -38 1 -112
-8 -187 -32 -257 -51 -860 -33 -1018 6 -54 5 -63 -10 -69 -11 -4 -25 2 -40 20
-21 25 -22 29 -17 234 3 147 1 233 -9 293 -8 55 -13 176 -13 340 l0 255 38 80
c70 146 81 153 92 52z m-161 16 c20 -21 36 -42 36 -47 0 -12 -52 -126 -57
-126 -3 0 -16 9 -30 20 -31 24 -73 27 -73 5 0 -8 15 -32 34 -52 l33 -37 -30
-42 -30 -43 -40 31 c-50 40 -53 51 -28 87 12 16 21 34 21 39 0 6 8 17 18 24
11 7 21 18 23 23 12 30 80 155 83 155 3 0 21 -17 40 -37z m1815 30 c0 -5 -4
-17 -9 -28 -8 -18 -9 -17 -9 8 -1 15 4 27 9 27 6 0 10 -3 9 -7z m363 -44 c-8
-27 -11 -30 -17 -16 -10 24 3 73 16 60 7 -7 7 -22 1 -44z m-572 -15 c11 -28
13 -84 4 -108 -13 -34 -23 -13 -26 59 -3 77 5 95 22 49z m421 -27 c-13 -13
-15 1 -4 30 7 17 8 17 11 -1 2 -10 -1 -23 -7 -29z m-291 -17 c0 -22 -4 -40
-10 -40 -5 0 -10 18 -10 40 0 22 5 40 10 40 6 0 10 -18 10 -40z m-78 -12 c-9
-9 -12 -7 -12 12 0 19 3 21 12 12 9 -9 9 -15 0 -24z m-114 -133 c20 -163 22
-185 12 -185 -5 0 -12 10 -14 23 -6 29 -26 236 -26 262 1 46 18 -13 28 -100z
m582 77 c0 -15 -5 -45 -12 -67 -15 -52 -23 -23 -13 51 7 55 25 66 25 16z m-82
-73 l-4 -34 -13 27 c-8 15 -11 35 -7 44 11 28 28 1 24 -37z m-688 -11 c5 -24
15 -56 21 -73 21 -55 49 -159 45 -163 -14 -14 -81 162 -93 246 -8 48 14 40 27
-10z m88 11 c2 -13 14 -59 28 -102 25 -80 33 -146 14 -117 -14 22 -70 205 -70
230 0 29 24 20 28 -11z m212 -3 c0 -14 -4 -28 -10 -31 -6 -4 -10 7 -10 24 0
17 5 31 10 31 6 0 10 -11 10 -24z m500 -17 c0 -11 -4 -18 -10 -14 -5 3 -7 12
-3 20 7 21 13 19 13 -6z m-873 -31 c9 -12 39 -84 74 -178 28 -73 118 -147 165
-136 22 6 24 3 24 -32 0 -46 -6 -55 -32 -41 -10 6 -23 9 -28 7 -12 -4 36 -108
49 -108 6 0 30 -39 53 -87 47 -101 82 -143 115 -143 20 0 23 5 22 33 -2 58
-13 82 -37 79 -25 -4 -30 15 -7 24 32 13 10 64 -27 64 -10 0 -18 5 -18 10 0 6
7 10 15 10 24 0 18 46 -8 67 l-24 18 22 34 c12 19 30 35 41 36 47 5 135 25
169 39 49 21 55 20 55 -5 0 -29 -30 -131 -44 -148 -11 -14 -22 -92 -31 -233
-4 -63 -3 -78 9 -78 21 0 46 116 46 214 0 47 4 87 9 90 5 4 20 2 33 -3 16 -6
33 -3 56 7 54 26 61 4 19 -65 -19 -32 -40 -83 -47 -113 -6 -30 -24 -90 -40
-132 -18 -46 -34 -113 -40 -167 -13 -114 -22 -132 -73 -157 -23 -12 -95 -47
-159 -79 -64 -33 -120 -56 -123 -53 -4 4 22 45 58 91 91 120 112 184 78 236
-8 12 -19 12 -78 -2 -83 -21 -96 -21 -132 -2 -31 16 -47 48 -56 116 -8 65 -26
87 -58 72 -31 -15 -67 -6 -67 16 1 9 14 32 30 51 44 51 34 85 -12 43 -22 -20
-31 -12 -48 42 -19 59 -39 95 -54 95 -7 0 -25 -11 -40 -25 -34 -31 -44 -31
-52 0 -8 32 14 155 32 175 16 19 64 121 64 138 0 7 14 53 31 102 30 87 46 104
66 78z m-1488 -41 c11 -19 30 -38 42 -43 22 -10 22 -10 -10 -46 -33 -38 -44
-71 -16 -48 10 8 19 9 25 4 8 -9 40 -561 40 -696 0 -66 -1 -68 -25 -68 -33 0
-43 23 -43 95 0 34 -5 94 -10 135 -6 41 -13 118 -17 170 -3 52 -13 128 -22
168 -16 71 -16 75 4 123 12 27 19 49 16 49 -3 0 -16 -9 -30 -20 -30 -23 -53
-26 -53 -7 0 21 -37 50 -55 44 -23 -9 -18 -45 11 -72 l25 -23 -65 -53 c-42
-33 -66 -60 -66 -73 0 -19 1 -19 23 2 48 45 66 24 87 -106 6 -40 9 -94 6 -120
-3 -26 -2 -90 2 -142 9 -103 7 -110 -40 -110 -35 0 -38 -27 -4 -40 36 -13 46
-40 46 -121 0 -40 7 -117 16 -171 19 -112 13 -131 -40 -126 -29 3 -32 7 -39
53 -5 28 -13 73 -18 100 -5 28 -11 141 -13 251 -2 111 -6 206 -10 212 -3 6
-10 67 -15 137 -6 94 -13 131 -25 143 -14 14 -17 14 -35 -2 -15 -14 -24 -15
-40 -7 -27 15 -81 14 -85 -1 -15 -57 -24 -73 -41 -77 -17 -3 -18 -1 -5 14 13
15 12 19 -5 31 -11 8 -28 11 -39 8 -27 -8 -26 -6 -33 -47 -5 -33 -4 -35 17
-30 36 9 20 -17 -26 -44 -84 -49 -203 -103 -294 -132 -52 -17 -111 -36 -129
-42 -108 -36 -242 -51 -256 -29 -3 5 9 25 27 44 33 35 137 80 293 126 33 9
143 60 245 111 182 93 283 158 308 198 17 29 38 26 72 -10 18 -20 34 -30 44
-26 24 10 19 26 -14 45 -16 9 -30 24 -30 32 0 27 29 58 66 70 20 7 47 27 62
48 33 45 134 152 144 152 3 0 16 -15 27 -33z m2295 -28 c41 -44 43 -72 8 -77
-47 -7 -99 49 -88 94 9 36 39 30 80 -17z m126 1 c0 -5 -5 -10 -11 -10 -5 0 -7
5 -4 10 3 6 8 10 11 10 2 0 4 -4 4 -10z m-2268 -55 c4 -22 12 -89 17 -150 6
-60 13 -128 15 -150 2 -22 7 -119 10 -215 3 -96 9 -215 12 -264 7 -98 1 -111
-47 -94 -38 13 -41 36 -34 224 5 154 -7 460 -24 594 -9 70 0 103 27 98 10 -2
19 -18 24 -43z m2115 -47 c27 -19 33 -29 33 -60 0 -20 -4 -40 -10 -43 -5 -3
-10 -15 -10 -26 0 -37 -28 -18 -59 41 -31 58 -32 62 -17 85 20 30 22 31 63 3z
m-92 -173 c0 -10 -6 -20 -12 -22 -8 -3 -13 5 -13 22 0 17 5 25 13 23 6 -3 12
-13 12 -23z m-2255 -80 c5 -27 15 -99 20 -160 6 -60 15 -146 21 -190 17 -136
17 -140 -9 -143 -39 -6 -52 46 -53 210 0 79 -4 184 -8 233 -11 137 5 165 29
50z m-1315 15 c17 -33 20 -76 5 -85 -6 -3 -10 4 -10 17 -1 13 -7 34 -15 48 -8
14 -14 31 -15 38 0 22 19 13 35 -18z m3645 -135 c0 -8 -4 -15 -10 -15 -5 0
-10 7 -10 15 0 8 5 15 10 15 6 0 10 -7 10 -15z m-2566 -6 c29 -14 33 -33 41
-200 3 -63 10 -142 15 -175 6 -32 10 -99 10 -149 0 -49 8 -157 16 -240 9 -82
18 -215 20 -295 2 -80 6 -156 9 -170 2 -14 6 -126 7 -250 3 -215 2 -225 -16
-228 -32 -7 -46 25 -46 107 0 77 -9 183 -35 416 -16 143 -22 230 -39 630 -4
82 -14 239 -22 348 -8 108 -12 202 -9 207 8 13 18 13 49 -1z m-95 -81 c11 -37
33 -280 31 -354 -1 -27 3 -105 9 -174 5 -69 7 -135 5 -146 -3 -12 -1 -38 4
-58 9 -30 8 -37 -6 -45 -13 -7 -14 -12 -4 -24 11 -13 29 -133 29 -202 1 -49
21 -292 34 -395 6 -52 9 -117 7 -145 -2 -42 -6 -50 -24 -53 -14 -2 -29 6 -41
22 -17 21 -22 52 -31 208 -7 101 -14 343 -17 538 -3 195 -10 391 -16 435 -5
44 -16 127 -24 185 -29 219 -29 219 -3 229 34 14 36 14 47 -21z m-871 -63 c11
-10 11 -18 3 -33 -12 -23 -84 -82 -100 -82 -14 0 -14 42 0 113 l12 57 36 -22
c20 -11 42 -27 49 -33z m783 -181 c11 -71 26 -165 33 -209 10 -58 14 -184 14
-453 0 -205 3 -426 7 -492 9 -137 2 -148 -54 -85 -35 40 -32 -1 -36 510 -1
121 -3 335 -4 475 -3 376 -3 406 10 393 5 -5 19 -68 30 -139z m-172 117 c16
-11 16 6 12 -611 -2 -256 0 -498 4 -539 7 -61 5 -73 -6 -69 -10 3 -16 34 -21
114 -3 60 -11 159 -17 219 -6 61 -13 191 -16 289 -4 99 -8 183 -11 188 -7 11
-6 382 2 401 7 18 31 22 53 8z m77 -143 c-2 -79 3 -369 10 -646 8 -277 12
-508 8 -513 -14 -24 -29 1 -30 52 -16 791 -13 1249 7 1249 4 0 6 -64 5 -142z
m-205 -51 c4 -67 14 -189 23 -272 9 -82 21 -226 26 -318 5 -92 12 -172 15
-177 9 -15 26 -242 19 -262 -5 -16 -8 -17 -35 -3 -16 9 -29 17 -30 18 -3 10
-21 208 -29 317 -5 74 -14 187 -19 250 -12 130 -14 435 -5 529 11 98 28 57 35
-82z m1332 23 c-2 -47 -5 -107 -6 -135 l-2 -50 74 -7 c40 -4 108 -16 150 -27
42 -10 108 -24 146 -31 101 -16 164 -30 215 -45 25 -7 68 -19 97 -25 62 -14
59 -7 69 -200 8 -159 9 -144 -9 -148 -19 -4 -292 132 -447 222 -25 14 -56 31
-70 38 -14 7 -59 31 -101 55 -102 58 -140 57 -212 -3 -37 -31 -59 -30 -109 6
-22 17 -47 30 -54 30 -7 0 -43 -34 -80 -75 -92 -102 -105 -99 -59 14 15 35 24
68 23 73 -2 6 -17 -1 -33 -14 -48 -39 -175 -100 -175 -83 0 24 101 102 200
153 52 27 95 55 95 62 0 7 -15 18 -34 25 -19 6 -37 17 -39 23 -6 18 52 14 143
-9 44 -11 103 -24 132 -28 51 -7 51 -7 57 22 3 16 6 51 6 77 0 26 3 82 7 125
8 104 22 67 16 -45z m-1438 90 c3 -5 8 -56 10 -112 4 -100 12 -224 36 -588 6
-96 15 -187 20 -203 6 -21 4 -29 -7 -34 -21 -8 -24 -2 -41 64 -45 177 -54 254
-58 488 -2 121 -7 257 -10 302 -4 61 -3 82 7 86 21 9 36 8 43 -3z m-341 -143
c21 -50 62 -149 90 -218 28 -69 63 -144 78 -167 31 -46 46 -92 30 -92 -6 0
-20 15 -31 34 -26 42 -105 221 -115 261 -4 16 -34 77 -67 135 -56 102 -66 129
-53 143 15 15 33 -10 68 -96z m152 78 c7 -28 -16 -119 -27 -107 -15 16 -28
107 -17 119 17 21 37 15 44 -12z m82 -143 c19 -227 13 -311 -18 -253 -14 27
-33 119 -33 156 3 100 21 235 33 235 4 0 12 -62 18 -138z m-276 -77 c48 -101
88 -190 90 -197 4 -19 -14 -25 -23 -8 -61 118 -179 377 -179 395 0 2 6 2 13 0
6 -3 51 -88 99 -190z m126 128 c30 -60 83 -223 77 -233 -11 -17 -24 -1 -39 48
-8 26 -29 80 -45 121 -17 40 -31 79 -31 87 0 26 20 14 38 -23z m1136 -15 c28
-12 29 -14 47 -112 l12 -69 -34 -28 c-41 -34 -55 -36 -69 -8 -14 25 -32 192
-24 214 7 18 33 19 68 3z m125 -69 c38 -13 38 -33 -2 -63 -24 -18 -29 -19 -37
-6 -11 17 -13 64 -3 73 8 9 4 9 42 -4z m-2963 -74 c147 -38 265 -77 301 -101
12 -8 27 -14 33 -14 5 0 57 -20 114 -44 57 -25 142 -58 189 -75 83 -29 248
-107 297 -140 14 -10 45 -23 70 -30 25 -7 96 -42 158 -76 62 -35 123 -67 135
-71 12 -3 42 -17 67 -30 54 -28 138 -62 200 -79 25 -8 99 -36 165 -63 136 -56
125 -44 190 -217 21 -55 41 -104 45 -110 22 -28 80 -219 80 -264 0 -16 7 -44
15 -64 13 -33 33 -109 55 -217 13 -63 43 -155 73 -220 13 -30 28 -71 32 -90 4
-19 11 -41 15 -50 12 -24 31 -82 41 -123 5 -21 23 -64 39 -96 18 -37 38 -105
54 -189 14 -72 35 -153 46 -182 11 -28 20 -58 20 -68 0 -9 13 -49 29 -89 31
-74 103 -316 99 -330 -1 -4 6 -22 15 -40 9 -18 17 -39 17 -47 0 -23 49 -175
75 -231 40 -86 75 -124 140 -150 82 -34 225 -43 318 -21 119 28 193 17 154
-22 -20 -19 -106 -27 -257 -21 -249 9 -332 5 -374 -16 -29 -14 -43 -30 -51
-55 -10 -31 -17 -36 -56 -42 -24 -4 -60 -12 -79 -17 -19 -5 -75 -15 -125 -21
-49 -7 -117 -18 -150 -25 -54 -12 -319 -32 -370 -28 -11 0 -45 -5 -75 -13 -30
-7 -84 -12 -120 -10 -36 2 -171 0 -300 -5 -604 -22 -1438 -31 -1491 -16 -23 6
-27 13 -33 59 -3 29 -6 131 -5 227 0 133 -4 188 -17 230 -53 179 -78 257 -85
265 -5 6 -9 29 -9 51 0 40 -30 147 -83 300 -83 239 -88 382 -32 821 9 72 12
263 12 660 0 499 2 566 17 619 16 53 28 177 27 263 -1 38 45 327 54 342 3 6
46 10 95 10 69 0 120 -8 226 -35z m4964 -41 c28 -63 31 -77 19 -85 -12 -8 -11
-11 4 -20 9 -5 17 -21 17 -34 0 -13 5 -25 11 -27 25 -8 35 -75 32 -213 -3
-213 -13 -333 -33 -405 -30 -110 -86 -257 -109 -286 -11 -15 -21 -32 -21 -38
0 -6 -20 -37 -45 -68 -46 -59 -56 -88 -31 -88 23 0 107 102 147 176 19 37 40
69 47 72 9 3 12 -36 12 -155 0 -179 0 -178 -85 -217 -22 -11 -63 -30 -92 -45
-28 -14 -55 -23 -58 -19 -4 4 -8 41 -8 82 -2 64 -5 76 -19 76 -27 0 -38 -32
-38 -107 0 -37 -7 -104 -15 -148 -8 -44 -14 -81 -15 -82 0 -2 -6 -3 -14 -3
-21 0 -50 46 -71 110 -19 60 -86 199 -116 241 -10 14 -32 60 -49 103 -17 43
-42 94 -55 114 -14 20 -25 41 -25 47 0 6 -20 35 -45 65 -25 30 -45 59 -45 65
1 10 44 44 124 98 82 55 186 159 269 269 46 62 87 123 91 135 11 33 -10 36
-38 6 -37 -40 -126 -161 -126 -171 0 -17 -59 -64 -73 -59 -9 3 -28 25 -45 49
-27 39 -35 66 -72 233 -15 66 27 111 77 84 22 -12 26 -11 44 11 16 22 16 26 4
36 -19 14 -19 20 3 42 9 10 22 27 28 38 7 10 15 15 20 11 5 -5 1 -22 -9 -39
-23 -40 -10 -55 31 -34 36 19 48 47 32 76 -18 34 -1 37 25 5 24 -29 25 -29 40
-11 13 18 13 22 0 42 -8 13 -15 25 -15 28 0 7 82 37 87 32 3 -3 0 -19 -6 -37
-23 -65 -6 -82 23 -23 12 26 14 40 7 47 -14 14 -14 37 0 37 6 0 27 14 46 30
23 20 44 30 67 30 32 0 35 -3 66 -76z m-1520 -99 c9 -11 12 -130 10 -492 0
-263 -2 -512 -4 -553 -3 -70 -20 -139 -32 -127 -16 15 -33 260 -39 537 -3 173
-9 362 -14 420 -4 58 -6 133 -3 168 l5 62 32 0 c18 0 38 -7 45 -15z m-300 -6
c0 -22 -144 -209 -160 -209 -16 0 -11 19 10 40 11 11 41 53 67 93 25 39 51 75
57 79 16 11 26 10 26 -3z m1227 -40 c21 -18 15 -51 -23 -135 -32 -68 -52 -99
-61 -91 -9 9 -73 243 -69 252 4 10 19 10 72 -1 37 -8 73 -19 81 -25z m2134 10
c34 -36 35 -40 11 -69 -15 -18 -21 -20 -45 -11 -16 6 -32 11 -37 11 -10 0
-102 -91 -162 -161 -123 -144 -192 -203 -120 -103 15 21 52 82 82 134 75 134
109 178 155 206 54 32 81 30 116 -7z m-2311 -60 c0 -50 16 -152 29 -184 21
-52 39 -120 35 -127 -15 -25 -26 -5 -59 106 -16 56 -35 242 -26 267 7 23 21
-16 21 -62z m-875 49 c10 -32 26 -335 36 -663 5 -198 13 -378 17 -400 11 -57
1 -100 -22 -100 -22 0 -31 25 -39 112 -3 32 -9 78 -12 103 -3 25 -8 142 -10
260 -3 213 -16 387 -30 410 -4 7 -11 64 -16 128 l-9 117 27 22 c31 26 52 29
58 11z m257 -30 c4 -7 8 -42 8 -78 1 -61 2 -64 15 -40 13 23 14 18 8 -55 -3
-53 0 -105 10 -155 15 -72 24 -170 32 -330 2 -41 6 -119 10 -172 9 -113 -3
-158 -40 -158 -31 0 -36 19 -36 135 0 55 -4 107 -9 115 -12 18 -10 30 -15
-153 -4 -153 -10 -177 -46 -177 -15 0 -19 8 -20 33 -4 122 -5 1035 -1 1046 6
16 71 8 84 -11z m-1840 -87 c46 -99 112 -255 135 -321 9 -25 22 -52 29 -61 8
-8 14 -24 14 -34 0 -40 -31 11 -81 136 -27 68 -75 173 -105 233 -51 104 -67
155 -43 140 6 -3 29 -45 51 -93z m1448 84 c0 -16 -69 -89 -77 -81 -10 9 19 66
41 81 26 19 36 19 36 0z m-280 -3 c0 -17 -72 -122 -81 -116 -5 3 -9 23 -9 44
0 30 6 43 26 59 26 21 64 28 64 13z m311 -128 c10 -86 38 -291 48 -349 5 -27
7 -82 5 -121 -5 -68 9 -358 22 -476 l7 -58 -46 0 c-34 0 -49 5 -55 18 -15 28
-26 282 -23 527 3 222 2 233 -23 319 -14 48 -26 100 -26 114 0 28 56 95 75 89
5 -2 13 -30 16 -63z m459 19 c0 -27 -5 -55 -10 -63 -7 -11 -10 3 -10 48 0 35
4 62 10 62 6 0 10 -21 10 -47z m-4062 26 c-2 -6 -8 -10 -13 -10 -5 0 -11 4
-13 10 -2 6 4 11 13 11 9 0 15 -5 13 -11z m3151 -28 c6 -10 15 -162 21 -337 5
-176 12 -359 14 -407 4 -100 0 -106 -56 -83 l-36 15 -2 313 c0 172 -5 353 -9
403 -9 90 -6 114 13 127 13 9 43 -8 55 -31z m1000 20 l35 -18 -3 -363 c-1
-199 -5 -368 -8 -375 -5 -16 -61 -40 -70 -31 -14 14 -18 84 -18 331 0 257 11
475 23 475 4 -1 22 -9 41 -19z m1537 -26 c15 -38 19 -105 5 -105 -5 0 -11 21
-14 48 -3 26 -9 57 -12 70 -11 35 4 26 21 -13z m1184 26 c0 -22 106 -165 186
-253 l34 -38 -20 -49 c-38 -97 -51 -125 -64 -141 -7 -8 -16 -27 -19 -41 -4
-14 -25 -47 -48 -73 l-41 -47 -58 60 c-32 33 -60 64 -62 68 -6 14 -116 85
-178 114 -33 15 -60 30 -60 32 0 33 68 153 124 218 17 20 45 55 63 76 40 51
143 103 143 74z m-4643 -23 c27 -36 153 -405 153 -449 0 -25 -26 1 -32 32 -13
71 -97 319 -128 380 -11 21 -20 41 -20 44 0 10 18 5 27 -7z m1249 -59 c7 -19
13 -49 13 -67 1 -18 11 -86 22 -150 20 -111 21 -126 9 -300 -8 -106 -10 -230
-6 -295 4 -63 4 -121 0 -130 -7 -20 -39 -22 -51 -4 -4 6 -8 163 -9 347 0 305
-8 422 -30 493 -5 16 -8 17 -15 6 -4 -8 -1 -62 7 -119 11 -78 14 -182 12 -407
-3 -343 0 -331 -80 -270 -41 31 -43 36 -50 97 -3 36 -9 173 -12 305 -3 146
-12 285 -23 354 -17 111 -17 114 2 128 14 10 37 13 78 11 50 -4 60 -1 79 19
27 29 38 26 54 -18z m969 -60 c142 -70 131 -58 155 -179 5 -25 18 -85 28 -135
l20 -90 -41 -43 c-23 -23 -50 -61 -62 -85 -18 -37 -26 -43 -69 -54 -68 -17
-243 -20 -259 -4 -16 16 -21 545 -6 614 19 82 17 82 234 -24z m1185 52 c0 -6
-4 -13 -10 -16 -5 -3 -10 1 -10 9 0 9 5 16 10 16 6 0 10 -4 10 -9z m240 -37
c0 -14 -3 -14 -15 -4 -8 7 -15 14 -15 16 0 2 7 4 15 4 8 0 15 -7 15 -16z
m-1111 -41 c7 -27 23 -70 35 -98 13 -27 27 -60 30 -72 4 -11 13 -27 21 -33 8
-7 15 -16 15 -21 0 -10 -74 -59 -89 -59 -27 0 -68 207 -57 285 9 59 30 58 45
-2z m-1523 -93 c4 -41 8 -158 9 -260 0 -102 4 -224 9 -272 5 -47 6 -94 2 -105
-7 -16 -9 -15 -22 10 -12 22 -16 96 -20 368 -2 188 -5 344 -6 348 0 3 0 11 1
16 5 23 19 -35 27 -105z m2577 55 c2 -11 -64 -47 -72 -39 -7 6 51 54 62 51 5
-1 9 -7 10 -12z m-200 -81 c73 -52 102 -93 57 -81 -27 7 -36 -10 -16 -32 16
-17 16 -20 1 -35 -9 -9 -28 -16 -43 -16 -22 0 -32 10 -56 51 -15 28 -34 74
-42 102 -22 85 -8 87 99 11z m-938 -62 c12 -45 30 -97 40 -116 20 -37 15 -57
-9 -37 -15 13 -60 141 -71 205 -5 28 -3 37 6 34 7 -2 22 -41 34 -86z m1817 25
c-12 -14 -106 -234 -167 -389 -22 -56 -44 -98 -52 -98 -21 0 -16 20 33 142 84
211 182 399 192 370 2 -7 -1 -18 -6 -25z m-415 -4 c-21 -8 -41 -12 -45 -9 -10
11 20 26 53 25 l30 0 -38 -16z m-157 -12 c0 -13 -27 -21 -72 -21 -47 0 -45 9
4 20 46 11 68 11 68 1z m-388 -114 c14 -47 2 -72 -33 -72 -22 0 -24 4 -22 40
1 22 5 56 9 75 5 33 7 34 20 15 8 -11 20 -37 26 -58z m286 -20 c64 -81 132
-190 132 -210 0 -8 -12 -25 -27 -36 -23 -19 -29 -20 -47 -7 -12 7 -27 31 -35
52 -7 22 -21 59 -31 84 -57 142 -69 180 -55 180 7 0 35 -28 63 -63z m-91 11
c18 -29 84 -228 98 -296 6 -30 3 -37 -26 -63 -19 -15 -39 -28 -46 -29 -21 0
-50 54 -73 140 -12 47 -31 108 -41 135 -24 62 -24 75 -1 75 10 0 29 11 42 25
26 28 35 31 47 13z m811 -15 c22 -16 82 -65 132 -111 50 -45 117 -96 150 -112
32 -16 61 -33 64 -38 3 -5 -9 -46 -26 -93 -16 -46 -52 -149 -79 -229 -76 -222
-99 -280 -114 -280 -8 0 -30 29 -49 63 -20 35 -46 72 -57 83 -18 16 -113 137
-220 282 l-26 35 18 61 c48 163 136 364 160 366 3 0 24 -12 47 -27z m142 -33
c0 -5 -2 -10 -4 -10 -3 0 -8 5 -11 10 -3 6 -1 10 4 10 6 0 11 -4 11 -10z
m-650 -65 c0 -36 -4 -65 -9 -65 -5 0 -16 -2 -24 -6 -9 -3 -18 5 -26 24 -7 16
-26 42 -42 58 -46 44 -39 54 36 54 l65 0 0 -65z m-469 -52 c13 -40 19 -48 39
-48 22 0 27 -10 52 -95 15 -52 28 -102 28 -110 0 -17 -127 -120 -166 -135 -38
-14 -50 10 -57 117 -3 51 -11 123 -18 159 -6 37 -9 74 -6 83 5 14 93 75 108
76 3 0 12 -21 20 -47z m-3155 -35 c3 -13 33 -79 65 -148 32 -69 66 -153 74
-188 9 -35 30 -96 47 -135 28 -67 87 -241 88 -260 0 -5 -14 -7 -32 -5 -53 5
-69 43 -132 305 -48 199 -85 322 -131 436 -4 9 -3 17 3 17 6 0 14 -10 18 -22z
m124 7 c0 -8 -2 -15 -4 -15 -2 0 -6 7 -10 15 -3 8 -1 15 4 15 6 0 10 -7 10
-15z m2113 -20 c10 -14 66 -119 124 -233 58 -114 108 -211 113 -217 4 -5 17
-37 29 -70 12 -33 33 -77 47 -97 13 -21 24 -42 24 -47 0 -6 11 -27 25 -47 24
-35 36 -115 18 -113 -25 2 -131 176 -167 274 -10 28 -27 59 -36 70 -18 20 -37
50 -124 197 -130 221 -130 222 -101 278 19 36 25 37 48 5z m-2036 -40 c-5 -51
-10 -60 -26 -50 -12 7 -15 78 -4 88 3 4 13 7 21 7 11 0 13 -10 9 -45z m71 -63
c2 -23 -1 -42 -6 -42 -6 0 -12 20 -14 45 -2 27 1 44 7 42 5 -2 11 -22 13 -45z
m70 0 c-5 -15 -10 -81 -9 -147 0 -146 -6 -202 -22 -186 -8 8 -11 63 -8 179 3
172 11 213 36 192 11 -9 11 -18 3 -38z m3285 13 c46 -58 81 -144 81 -200 0
-64 -35 -134 -66 -135 -17 0 -81 112 -104 181 -13 41 -29 84 -36 96 -10 21 -7
27 28 58 21 19 46 34 54 35 8 0 28 -16 43 -35z m-1488 -5 c25 -28 47 -117 35
-141 -6 -10 -27 -21 -48 -25 -20 -4 -45 -11 -55 -16 -10 -5 -43 -16 -73 -24
-30 -8 -72 -23 -94 -34 -22 -11 -50 -20 -64 -20 -21 0 -26 6 -32 35 -3 19 -5
68 -2 109 5 110 14 117 147 115 58 0 117 4 131 9 34 15 35 15 55 -8z m-1663
-61 c4 -19 5 -72 2 -119 -2 -47 -4 -155 -4 -240 0 -85 -3 -177 -7 -203 l-6
-49 -29 51 c-38 66 -47 123 -54 358 -8 239 -7 242 48 239 40 -2 43 -5 50 -37z
m-327 -19 l5 -35 -14 30 c-18 35 -21 64 -6 49 5 -5 12 -25 15 -44z m3715 17
c0 -29 -42 -136 -60 -152 -19 -18 -20 -17 -4 31 31 96 47 134 55 134 5 0 9 -6
9 -13z m-3281 -28 c33 -20 33 -21 27 -73 -3 -29 -8 -212 -12 -407 -3 -195 -7
-360 -9 -366 -9 -28 -24 -9 -50 61 -31 84 -30 80 -22 356 4 113 7 260 7 328 0
134 1 136 59 101z m2908 -62 c51 -101 55 -122 32 -143 -10 -9 -25 -40 -33 -69
-19 -62 -55 -105 -90 -105 -44 0 -54 31 -60 181 l-6 135 35 17 c18 9 41 28 51
42 9 13 20 22 25 19 5 -3 26 -38 46 -77z m-1746 26 c0 -5 2 -19 4 -33 3 -27
-11 -149 -18 -156 -9 -9 -188 -36 -202 -30 -8 3 -15 12 -15 20 0 27 30 46 73
46 39 1 41 2 23 15 -11 8 -32 15 -48 15 -42 0 -34 12 28 45 31 17 70 42 86 58
28 25 67 37 69 20z m-1541 -68 c13 -31 20 -58 17 -61 -8 -8 -37 51 -37 74 0
10 -5 23 -12 30 -8 8 -8 12 -1 12 6 0 21 -25 33 -55z m60 13 c0 -23 -3 -29 -9
-19 -8 12 -4 51 5 51 2 0 4 -15 4 -32z m474 -8 c6 -6 8 -758 2 -1020 -1 -25 3
-63 7 -84 18 -87 16 -186 -2 -186 -26 0 -81 273 -92 450 -8 141 -3 818 7 852
4 14 10 15 37 6 18 -6 36 -14 41 -18z m1511 -4 c20 -30 16 -75 -7 -90 -14 -9
-23 -5 -45 16 -27 27 -27 28 -10 63 20 41 40 45 62 11z m1041 -38 c13 -25 17
-62 18 -158 l2 -125 -51 -48 c-54 -52 -139 -101 -160 -93 -22 8 -47 115 -46
194 2 80 21 134 55 150 11 6 48 33 81 61 33 28 66 51 72 51 7 0 20 -15 29 -32z
m-1181 12 c3 -5 -17 -46 -45 -90 -27 -45 -50 -85 -50 -89 0 -5 -18 -35 -40
-67 -22 -33 -40 -66 -40 -75 0 -9 -7 -22 -15 -29 -8 -7 -27 -34 -41 -61 -29
-52 -49 -66 -70 -48 -19 16 -13 345 7 364 23 21 182 75 223 75 23 0 39 5 42
15 7 17 20 20 29 5z m1852 -43 c17 -23 29 -44 26 -47 -6 -6 -73 69 -73 82 0
17 16 6 47 -35z m-3118 14 c11 -7 12 -15 3 -38 -7 -17 -13 -136 -16 -306 -2
-153 -7 -281 -10 -284 -3 -4 -9 -3 -13 0 -7 8 -14 595 -7 620 6 19 21 22 43 8z
m3046 -45 c74 -44 159 -153 270 -350 17 -29 36 -61 44 -70 11 -13 11 -19 1
-31 -7 -9 -16 -32 -21 -53 -4 -20 -12 -53 -18 -72 -5 -19 -22 -78 -36 -130
-35 -127 -60 -145 -127 -93 -19 15 -50 48 -69 72 -19 25 -55 68 -81 96 l-46
51 -1 159 c0 88 -5 192 -10 230 -18 119 -15 155 16 187 15 15 29 28 31 28 3 0
24 -11 47 -24z m-1715 -6 c30 -30 25 -60 -32 -176 -65 -132 -92 -149 -147 -90
l-22 24 62 118 c34 66 66 125 72 132 14 18 44 15 67 -8z m-730 -44 c0 -45 -19
-73 -43 -63 -15 6 -39 85 -31 99 3 4 21 8 40 8 34 0 34 -1 34 -44z m890 -3
c14 -27 26 -51 28 -55 2 -5 -5 -8 -16 -8 -23 0 -76 75 -68 96 10 27 32 14 56
-33z m-1370 12 c9 -8 23 -15 31 -15 8 -1 35 -15 61 -33 l48 -33 5 -269 c2
-149 7 -331 10 -405 3 -74 10 -256 16 -404 11 -302 15 -884 4 -894 -3 -4 -18
0 -33 9 -25 13 -28 21 -34 94 -3 44 -9 259 -12 477 -6 405 -17 699 -37 982 -6
88 -8 222 -5 298 5 113 4 138 -7 138 -18 0 -30 -197 -33 -525 -2 -229 6 -400
28 -610 6 -60 12 -193 13 -295 2 -149 -1 -191 -13 -217 -9 -18 -18 -33 -21
-33 -14 0 -49 131 -90 340 -5 25 -13 270 -16 545 -4 275 -7 509 -8 520 0 11 0
96 1 189 l2 169 36 -6 c20 -3 44 -13 54 -22z m377 -49 c-10 -25 -37 -19 -37 7
0 13 3 27 7 31 11 11 36 -21 30 -38z m2389 9 c20 -49 18 -129 -11 -304 -27
-162 -29 -171 -48 -171 -7 0 -29 -18 -51 -40 -21 -22 -42 -40 -47 -40 -4 0
-12 15 -19 34 -8 27 -8 48 5 101 8 36 15 85 15 108 0 23 7 64 15 91 8 27 14
81 14 120 -1 57 2 72 16 81 10 5 30 20 44 32 36 31 50 28 67 -12z m-1985 -8
c2 -12 4 -71 4 -132 0 -104 -1 -110 -21 -113 -11 -2 -54 13 -94 33 -41 19 -80
35 -86 35 -31 0 -41 117 -13 146 8 8 48 20 88 28 40 8 78 19 83 24 15 15 35 4
39 -21z m1273 -34 c7 -62 -2 -244 -14 -263 -8 -13 -153 -54 -227 -64 -47 -6
-53 -4 -72 20 -25 32 -26 50 -5 123 32 111 38 120 117 158 39 19 96 48 126 64
29 16 57 27 61 24 4 -2 10 -30 14 -62z m546 47 c0 -5 -4 -10 -10 -10 -5 0 -10
5 -10 10 0 6 5 10 10 10 6 0 10 -4 10 -10z m485 0 c3 -5 1 -10 -4 -10 -6 0
-11 5 -11 10 0 6 2 10 4 10 3 0 8 -4 11 -10z m-1734 -62 c71 -60 189 -196 189
-218 0 -10 -10 -30 -22 -43 -22 -24 -26 -25 -105 -16 -46 5 -113 20 -155 36
-102 40 -106 56 -43 186 54 114 63 117 136 55z m-2022 8 c12 -15 91 -171 91
-181 0 -7 86 -228 107 -274 11 -24 12 -36 4 -44 -8 -8 -5 -17 13 -32 36 -29
107 -231 146 -410 4 -22 18 -78 30 -125 11 -47 28 -114 37 -150 8 -36 25 -90
38 -120 35 -87 56 -160 50 -170 -3 -5 3 -18 13 -28 24 -24 120 -310 129 -381
5 -47 4 -53 -12 -50 -19 4 -38 53 -106 274 -21 72 -50 150 -62 175 -13 25 -42
81 -65 124 -23 43 -47 96 -54 117 -6 22 -17 39 -25 39 -16 0 -16 2 3 -76 17
-64 14 -88 -8 -66 -14 14 -27 93 -34 212 -3 52 -9 111 -14 130 -4 19 -11 62
-15 95 -4 33 -23 110 -42 170 -20 61 -48 155 -63 210 -15 55 -38 125 -50 155
-45 110 -58 147 -84 240 -26 95 -37 130 -51 163 -9 20 8 23 24 3z m3837 -53
c-7 -7 -26 7 -26 19 0 6 6 6 15 -2 9 -7 13 -15 11 -17z m-2901 5 c16 -7 29
-24 35 -48 11 -41 8 -192 -10 -410 -7 -87 -10 -301 -8 -535 3 -429 -1 -822 -9
-873 -5 -29 -9 -33 -32 -30 -24 3 -27 8 -33 63 -4 33 -3 132 3 220 12 211 11
569 -2 890 -6 143 -10 273 -10 289 1 15 -3 74 -9 130 -12 124 -16 288 -6 304
9 15 48 15 81 0z m2285 -25 c0 -10 9 -42 20 -70 l20 -53 -30 -122 c-17 -67
-30 -136 -30 -153 0 -50 -8 -56 -129 -114 -35 -17 -67 -31 -70 -31 -12 0 -9
85 5 170 23 130 29 160 49 225 9 33 19 65 21 72 2 7 20 21 41 31 21 11 47 29
57 41 23 26 46 27 46 4z m-2168 -723 c-2 -382 -7 -798 -10 -925 -6 -201 -9
-230 -23 -233 -9 -2 -24 4 -33 13 -14 14 -15 41 -10 218 2 111 9 261 15 332 5
72 7 171 4 221 -8 150 -6 348 6 544 7 102 14 262 15 355 2 94 4 171 4 173 0 2
8 2 18 0 16 -3 17 -43 14 -698z m146 614 c20 -13 22 -22 22 -117 0 -56 -7
-219 -15 -362 -8 -143 -14 -285 -14 -315 3 -134 -14 -309 -39 -415 -37 -151
-36 -362 1 -535 14 -63 28 -123 32 -132 12 -30 -10 -20 -52 23 -29 28 -42 51
-45 77 -6 45 -3 535 7 1252 5 380 11 537 19 543 14 9 54 0 84 -19z m119 -28
c15 -13 44 -32 63 -43 27 -15 37 -29 47 -69 20 -76 16 -178 -8 -248 -37 -106
-89 -210 -101 -198 -6 6 -10 98 -12 228 -2 215 -11 284 -36 269 -6 -4 -10 12
-10 39 0 54 13 59 57 22z m416 -17 c31 -34 31 -59 0 -105 -18 -29 -68 -32
-113 -9 -42 22 -38 61 14 144 13 21 67 5 99 -30z m1267 -6 c0 -46 -38 -264
-54 -318 -30 -95 -43 -108 -151 -143 -53 -18 -101 -30 -106 -27 -22 14 -10 97
56 383 3 12 18 28 33 35 25 11 101 64 112 78 6 8 43 16 83 18 23 1 27 -3 27
-26z m-2997 -55 c22 -17 48 -81 96 -235 45 -144 71 -243 71 -268 0 -30 -43
-13 -62 25 -77 157 -185 460 -172 482 8 12 48 10 67 -4z m1973 -23 c63 -19
124 -35 134 -35 10 0 21 -4 25 -9 3 -6 -18 -55 -46 -110 -42 -82 -56 -101 -74
-101 -12 0 -60 23 -106 51 -46 28 -91 54 -99 57 -50 18 -63 66 -34 125 36 70
40 70 200 22z m-710 -152 c-5 -140 -9 -175 -20 -162 -8 9 7 328 16 323 5 -3 7
-73 4 -161z m1414 51 c0 -41 -6 -87 -13 -102 -7 -15 -22 -63 -32 -107 -10 -44
-24 -87 -32 -96 -30 -35 -124 -48 -258 -34 -81 8 -94 15 -193 103 -68 61 -72
67 -66 96 3 17 14 40 24 51 10 11 32 46 50 78 37 67 54 74 140 59 63 -11 189
-2 305 22 33 7 63 11 68 8 4 -2 7 -37 7 -78z m-1194 -1 c-10 -10 -19 5 -10 18
6 11 8 11 12 0 2 -7 1 -15 -2 -18z m114 -23 c0 -5 -2 -10 -4 -10 -3 0 -8 5
-11 10 -3 6 -1 10 4 10 6 0 11 -4 11 -10z m-15 -60 c55 -56 55 -44 5 -185 -11
-33 -25 -87 -29 -120 -8 -53 -59 -196 -76 -213 -3 -4 -27 5 -52 18 -53 28 -88
89 -77 137 7 33 63 168 125 299 10 23 19 46 19 52 0 19 19 62 28 62 4 0 30
-22 57 -50z m61 29 c3 -6 2 -15 -4 -21 -6 -6 -11 -2 -15 11 -5 22 7 29 19 10z
m-1111 -327 c2 -250 0 -315 -11 -329 -11 -15 -14 -15 -15 -3 -1 8 0 20 1 25 1
6 2 152 1 325 -1 232 1 312 9 304 8 -8 12 -111 15 -322z m2840 271 c-11 -46
-118 -257 -159 -314 -17 -23 -17 -23 -31 -5 -8 11 -13 29 -11 40 5 26 27 166
30 186 0 8 14 21 30 29 16 7 52 31 80 52 61 46 70 48 61 12z m-1577 -19 c42
-19 93 -43 112 -51 71 -32 85 -42 88 -62 4 -24 -40 -40 -62 -22 -7 6 -37 20
-67 30 -30 10 -80 31 -111 45 -51 23 -58 30 -58 55 0 25 7 41 17 41 2 0 38
-16 81 -36z m1781 -29 c17 -20 31 -43 31 -53 -1 -12 -13 -3 -40 28 -22 25 -40
48 -40 53 0 16 20 5 49 -28z m-62 -47 c68 -70 150 -174 174 -220 10 -20 23
-39 29 -43 16 -10 12 -50 -13 -117 -13 -35 -43 -133 -67 -218 -24 -85 -49
-161 -55 -168 -10 -11 -21 -3 -56 39 -24 29 -60 79 -79 110 -38 61 -183 253
-200 264 -6 3 -13 0 -16 -9 -7 -17 51 -104 112 -168 50 -52 116 -149 149 -220
12 -26 26 -53 32 -60 18 -23 25 -98 10 -104 -8 -3 -50 20 -93 50 -44 31 -124
85 -179 122 -92 62 -104 73 -146 144 l-45 77 20 30 c12 16 42 54 67 84 26 30
58 78 73 106 14 29 47 84 72 123 25 39 59 98 76 133 33 68 55 97 72 97 7 0 35
-24 63 -52z m-351 0 c-9 -34 -46 -250 -46 -273 -1 -30 -78 -145 -98 -145 -9
-1 -42 -9 -72 -20 -30 -11 -62 -19 -71 -20 -25 0 -59 38 -59 67 0 14 26 85 58
157 32 72 63 145 68 161 8 24 15 29 35 27 25 -3 45 4 119 43 59 31 74 31 66 3z
m-1421 -13 c59 -20 133 -49 193 -76 61 -27 63 -37 33 -139 -23 -79 -87 -266
-95 -279 -4 -6 -21 -4 -44 6 -20 9 -66 19 -102 24 -36 5 -87 15 -115 22 -43
12 -50 18 -58 48 -5 18 -6 45 -4 59 11 51 56 206 71 242 9 21 16 46 16 55 0
30 30 65 49 58 9 -4 34 -13 56 -20z m-485 -165 c0 -87 -4 -140 -10 -140 -6 0
-10 48 -10 124 0 112 5 156 16 156 2 0 4 -63 4 -140z m2454 48 c-8 -13 -64 41
-64 61 0 10 12 3 35 -19 19 -18 32 -37 29 -42z m-1590 32 c56 -25 59 -35 9
-25 -48 9 -75 23 -68 36 8 12 5 12 59 -11z m756 -20 c0 -6 -13 -34 -30 -63
-16 -30 -30 -61 -30 -70 0 -10 -12 -40 -26 -67 -22 -43 -30 -50 -55 -50 -16 0
-52 11 -79 25 -49 25 -50 27 -50 70 0 87 13 99 145 143 66 22 125 28 125 12z
m-750 -49 c19 -5 77 -21 127 -34 99 -24 204 -85 211 -120 5 -24 -105 -191
-162 -247 -27 -26 -46 -54 -46 -67 0 -12 -12 -36 -26 -53 -64 -76 -142 -193
-150 -226 -8 -31 -32 -41 -114 -46 -61 -3 -65 -2 -77 23 -10 20 -11 45 -3 105
6 44 14 106 18 139 l7 60 123 5 c69 3 123 9 125 15 1 6 -42 12 -108 15 l-110
5 -10 55 c-13 64 8 181 43 240 11 19 28 61 38 93 18 57 19 59 49 54 16 -3 46
-10 65 -16z m378 -27 c12 -4 22 -13 22 -21 0 -11 -7 -13 -32 -8 -42 9 -50 14
-43 26 7 10 21 11 53 3z m-5421 -116 c6 -7 23 -65 38 -128 35 -149 33 -142 48
-137 9 3 11 33 8 120 -2 65 1 117 6 117 13 0 51 -118 59 -180 4 -30 17 -91 30
-135 53 -175 68 -222 85 -261 10 -22 23 -85 28 -140 6 -54 17 -123 25 -152 12
-42 13 -82 5 -200 -4 -81 -13 -165 -19 -187 -5 -22 -10 -55 -10 -72 0 -48 -97
-305 -130 -345 -26 -32 -33 -35 -87 -36 -32 0 -92 -4 -135 -7 -73 -7 -77 -6
-91 17 -26 39 -83 226 -117 378 -28 127 -33 169 -37 335 l-5 190 31 90 c18 50
41 122 52 160 12 39 29 84 39 100 10 17 23 47 30 68 13 41 16 43 44 22 27 -20
79 -19 99 3 32 35 47 87 36 124 -10 38 -44 88 -60 88 -15 0 -10 -29 10 -58 11
-15 23 -43 26 -62 8 -42 -13 -66 -60 -72 -26 -2 -32 2 -47 31 -9 19 -20 57
-23 86 -6 47 -4 57 34 126 23 41 47 86 54 102 13 30 20 33 34 15z m5521 -72
c73 -37 77 -47 39 -83 -50 -48 -115 -76 -174 -78 -45 0 -53 2 -53 18 0 25 112
167 132 167 5 0 30 -11 56 -24z m-2409 -25 c22 -30 29 -56 61 -231 26 -142 58
-203 108 -208 37 -4 48 -23 88 -152 24 -80 57 -167 98 -265 43 -101 33 -116
-45 -66 -60 39 -97 75 -110 108 -12 31 -64 218 -84 303 -8 30 -27 96 -43 145
-63 192 -110 341 -116 368 -9 37 16 36 43 -2z m1221 -15 c62 -37 60 -26 40
-176 -7 -52 -13 -111 -12 -130 0 -70 -21 -190 -35 -202 -8 -6 -48 -12 -91 -13
-42 -1 -83 -3 -91 -6 -8 -2 -20 7 -28 21 -15 28 -12 82 11 164 8 28 20 80 26
116 6 36 22 100 36 143 13 43 24 87 24 98 0 30 56 24 120 -15z m210 -81 c36
-8 79 -14 96 -15 17 0 54 -7 83 -16 45 -13 55 -20 68 -52 10 -24 13 -51 9 -82
-3 -25 -10 -91 -16 -147 -14 -154 -5 -147 -171 -140 -77 4 -149 12 -160 18
-44 23 -48 59 -33 249 8 96 20 180 26 187 13 16 17 16 98 -2z m1225 -52 c19
-9 35 -20 35 -24 0 -19 -48 -61 -106 -93 -60 -34 -73 -37 -165 -40 -54 -3
-101 -1 -104 4 -3 5 18 33 46 64 51 56 66 63 189 95 52 14 66 13 105 -6z
m-335 -52 c0 -9 -31 -48 -70 -86 -38 -38 -70 -73 -70 -78 0 -5 -36 -45 -79
-90 -76 -78 -81 -81 -122 -80 -59 3 -66 13 -44 70 14 36 47 77 134 164 l116
117 68 0 c57 0 67 -2 67 -17z m528 -83 c-5 -14 -78 -21 -118 -10 -21 5 -18 7
20 12 78 12 102 11 98 -2z m38 -52 c18 -14 18 -15 -6 -20 -14 -2 -77 -8 -140
-11 -110 -6 -114 -5 -98 12 14 13 38 18 110 20 50 2 94 6 97 8 7 8 16 6 37 -9z
m-448 -13 c12 -3 22 -8 22 -12 0 -9 -122 -72 -139 -71 -8 0 -22 -6 -30 -14
-26 -22 -121 -50 -133 -38 -16 16 11 56 71 107 l55 47 65 -7 c36 -3 76 -9 89
-12z m396 -73 c-12 -12 -222 -28 -237 -18 -7 4 5 8 28 9 22 0 51 4 65 8 35 11
154 11 144 1z m274 -34 c15 -8 38 -26 52 -41 14 -15 41 -35 61 -45 65 -34 68
-44 29 -116 -22 -40 -41 -64 -52 -64 -29 0 -147 232 -135 264 8 20 11 20 45 2z
m-264 -15 c3 -4 -27 -11 -66 -14 -73 -6 -107 0 -72 14 27 11 132 11 138 0z
m-194 -10 c0 -13 -37 -24 -50 -16 -6 4 -8 11 -5 16 8 12 55 12 55 0z m-80 -11
c0 -5 -4 -10 -10 -10 -5 0 -10 5 -10 10 0 6 5 10 10 10 6 0 10 -4 10 -10z
m-300 -20 c0 -5 -4 -10 -10 -10 -5 0 -19 -11 -32 -24 -29 -31 -248 -157 -259
-150 -42 26 96 163 166 165 16 0 48 6 70 14 51 16 65 18 65 5z m690 -30 c0
-11 -27 -20 -61 -20 -26 0 -39 17 -25 31 8 8 86 -3 86 -11z m-125 0 c8 -13
-15 -17 -195 -35 -174 -17 -290 -19 -290 -6 0 9 70 21 130 22 19 0 89 6 155
13 151 17 192 18 200 6z m-1623 -36 c57 -11 70 -62 61 -237 -5 -102 -9 -130
-22 -136 -24 -13 -188 -22 -215 -11 -13 5 -29 23 -36 42 -24 66 -40 277 -24
330 3 11 18 18 42 21 39 4 149 -1 194 -9z m723 -4 c3 -5 -7 -33 -21 -62 -35
-67 -34 -66 -45 -45 -16 29 -28 20 -61 -47 -26 -52 -39 -68 -71 -82 -44 -20
-52 -15 -63 45 -10 49 8 162 26 172 36 19 226 34 235 19z m-303 -34 c7 -13 11
-61 10 -126 -3 -122 -11 -134 -90 -145 -26 -4 -81 -16 -124 -26 -42 -10 -83
-19 -91 -19 -25 0 -32 37 -32 182 l0 136 30 10 c17 5 87 10 158 10 120 0 128
-1 139 -22z m1244 -1 c-22 -16 -116 -21 -116 -6 0 10 37 17 100 19 33 1 34 0
16 -13z m-136 -4 c0 -8 -130 -24 -138 -16 -3 3 6 9 19 14 30 12 119 14 119 2z
m-157 -16 c-3 -11 -6 -11 -153 -19 -52 -3 -112 -10 -133 -15 -33 -8 -38 -7
-35 7 3 14 23 18 117 24 62 4 116 10 119 13 10 10 87 1 85 -10z m785 -26 c2
-16 -13 -58 -37 -105 -22 -44 -52 -123 -67 -176 -32 -117 -41 -128 -91 -104
-39 18 -38 12 -9 121 16 57 90 223 122 273 12 18 23 22 47 20 26 -2 33 -8 35
-29z m-423 -6 c19 -9 35 -24 35 -34 0 -22 -34 -27 -325 -48 -77 -6 -207 -15
-290 -21 -148 -11 -215 -25 -286 -61 -42 -21 -49 -17 -49 27 0 36 14 48 66 59
51 11 168 27 194 26 14 0 74 6 133 14 59 8 138 15 175 15 37 1 114 9 172 20
133 23 132 23 175 3z m-738 -30 c-9 -9 -20 -12 -28 -8 -9 6 -8 11 6 21 23 17
42 6 22 -13z m1263 -53 c57 -29 169 -108 222 -157 26 -23 63 -50 82 -60 52
-24 44 -35 -21 -28 -32 3 -140 7 -239 9 -106 3 -190 9 -202 15 -21 11 -21 11
6 74 43 97 70 145 89 156 23 13 18 14 63 -9z m-610 -25 c0 -8 -4 -15 -9 -15
-5 0 -23 -3 -40 -6 -24 -5 -31 -3 -31 9 0 18 14 25 53 26 18 1 27 -4 27 -14z
m-240 -10 c0 -17 -14 -21 -135 -35 -110 -12 -105 -12 -105 0 0 16 45 30 133
39 45 4 88 9 95 10 6 0 12 -6 12 -14z m130 5 c20 -12 12 -17 -43 -22 -46 -5
-64 2 -52 22 8 13 75 13 95 0z m300 -25 c0 -14 -6 -28 -12 -30 -22 -7 -238
-10 -238 -3 0 4 26 12 58 18 31 6 71 18 87 25 17 8 47 15 68 15 33 0 37 -3 37
-25z m-692 -17 c-3 -7 -18 -17 -34 -22 -16 -5 -75 -26 -131 -47 -56 -21 -114
-39 -130 -41 -24 -3 -28 1 -28 22 0 20 8 27 46 42 26 9 64 19 85 22 76 11 158
27 163 31 10 10 32 4 29 -7z m-532 -13 c3 -8 -2 -38 -12 -67 -9 -28 -18 -85
-19 -125 -2 -67 -4 -75 -33 -103 -35 -33 -49 -36 -76 -17 -15 11 -19 33 -23
128 -5 129 -9 121 77 168 63 34 78 37 86 16z m162 -47 c-4 -69 -28 -79 -28
-10 0 27 3 52 7 55 17 17 24 3 21 -45z m660 30 c-5 -13 -75 -27 -263 -53 -66
-9 -123 -19 -127 -21 -5 -3 -8 1 -8 9 0 10 14 17 38 20 20 3 82 13 137 22 55
9 125 20 155 25 30 4 59 8 63 9 5 0 7 -4 5 -11z m-728 -73 c0 -66 -17 -126
-40 -140 -24 -15 -40 26 -40 97 0 63 2 69 24 78 13 5 27 14 31 19 16 26 25 6
25 -54z m1164 36 c3 -5 -22 -9 -57 -10 -43 0 -57 2 -47 9 19 12 97 13 104 1z
m-1479 -33 c12 -34 24 -230 15 -253 -11 -29 -68 -57 -168 -83 l-64 -17 -24 28
c-13 15 -24 40 -24 55 0 15 -8 65 -17 111 l-18 83 27 23 c19 17 50 26 115 35
48 7 95 17 103 21 22 12 50 11 55 -3z m1310 -18 c6 -10 -1 -14 -47 -24 -21 -5
-28 -2 -28 8 0 24 62 37 75 16z m-101 -10 c-14 -13 -154 -24 -154 -12 0 14 22
18 99 20 35 0 60 -3 55 -8z m281 1 c7 -12 -22 -20 -60 -16 -16 2 -38 4 -48 4
-10 1 -15 6 -12 11 8 13 112 13 120 1z m-445 -10 c0 -4 -37 -16 -82 -25 -97
-19 -98 -19 -98 -6 0 14 77 33 158 39 12 0 22 -3 22 -8z m-325 -27 c-22 -16
-265 -20 -265 -5 0 12 42 16 179 17 90 1 102 -1 86 -12z m-1061 -12 c3 -10 10
-51 16 -92 5 -41 16 -101 24 -132 l13 -58 -69 0 c-60 0 -72 3 -93 25 -23 22
-25 32 -25 107 0 110 5 123 48 141 74 31 79 32 86 9z m-374 -24 c17 -12 30
-25 30 -30 0 -15 -60 -38 -103 -38 -24 0 -63 -6 -88 -14 -64 -20 -196 -38
-259 -35 -30 1 -88 -1 -128 -5 -59 -7 -72 -11 -70 -25 3 -13 -5 -15 -47 -13
-75 5 -98 47 -50 92 l25 23 237 -6 c261 -6 341 4 392 51 29 27 25 27 61 0z
m220 7 c0 -12 -29 -75 -35 -75 -14 0 -25 53 -14 66 11 13 49 20 49 9z m2480
-11 c206 -6 290 -13 290 -24 0 -15 -93 -39 -155 -40 -92 -2 -257 20 -311 40
-34 13 -94 2 -94 -16 0 -19 9 -21 104 -29 100 -9 82 -25 -26 -25 -43 0 -78 -4
-78 -10 0 -17 71 -23 199 -16 100 5 138 3 186 -9 122 -33 259 -55 346 -57 87
-2 112 -9 92 -29 -5 -5 -62 -11 -128 -13 -175 -7 -527 -24 -626 -32 l-87 -6
-11 104 c-7 56 -13 113 -15 125 -5 38 30 55 104 47 25 -2 119 -7 210 -10z
m-1600 -176 c0 -86 -3 -163 -6 -172 -14 -36 -25 -12 -25 52 2 245 3 288 8 295
15 25 23 -33 23 -175z m679 137 c194 -2 355 -6 360 -9 14 -9 33 -98 23 -108
-5 -5 -60 -11 -123 -14 -118 -5 -417 -39 -479 -54 -64 -15 -134 -22 -217 -21
-49 0 -83 -3 -83 -9 0 -6 2 -10 4 -10 2 0 41 -7 86 -16 78 -14 87 -14 169 5
124 28 214 40 401 51 230 14 260 13 260 -5 0 -12 -19 -14 -107 -14 -187 1
-421 -24 -545 -58 -57 -15 -72 -40 -18 -29 16 3 92 1 170 -4 133 -9 143 -9
181 11 35 18 59 20 177 20 74 0 139 -4 144 -9 5 -5 8 -25 6 -43 -3 -33 -4 -34
-43 -32 -140 8 -490 5 -655 -6 -287 -19 -345 -18 -344 2 0 10 1 89 2 176 2
141 4 160 20 167 18 9 216 22 244 17 9 -2 174 -6 367 -8z m-757 -200 c0 -117
-4 -181 -11 -188 -8 -8 -11 -8 -11 2 0 11 -23 208 -34 289 -4 27 0 39 20 59
14 14 28 23 30 20 3 -3 6 -85 6 -182z m1334 174 c3 -6 8 -63 9 -127 8 -262 18
-448 26 -471 5 -13 12 -87 15 -165 3 -77 12 -168 19 -201 7 -33 16 -109 20
-170 4 -60 13 -153 21 -205 8 -52 21 -145 29 -206 13 -103 32 -185 69 -306 8
-27 11 -48 6 -48 -12 0 -110 208 -110 235 0 12 -10 38 -23 56 -26 38 -56 171
-63 277 -2 37 -12 119 -22 182 -16 105 -20 115 -40 118 -22 3 -31 22 -11 22 9
0 10 32 6 118 -11 192 -35 516 -41 532 -3 8 -10 86 -16 173 -12 169 -10 182
33 190 42 8 66 7 73 -4z m756 -35 c45 -31 49 -49 11 -40 -16 3 -55 9 -88 12
-33 3 -71 8 -85 10 -24 5 -24 6 -5 17 18 10 72 22 114 26 8 0 32 -11 53 -25z
m-2997 8 c18 -13 55 -71 55 -85 0 -15 -59 -27 -126 -27 -30 0 -34 3 -34 27 0
56 69 112 105 85z m-180 -51 c12 -21 -39 -30 -184 -33 -202 -4 -208 15 -7 24
82 4 151 10 154 13 9 8 30 6 37 -4z m996 -15 c8 -16 9 -51 4 -100 -6 -72 -8
-76 -31 -76 -14 0 -24 -6 -24 -14 0 -19 17 -29 25 -16 15 24 25 6 25 -43 0
-61 -14 -84 -65 -111 -70 -38 -94 9 -94 187 -1 103 1 118 17 124 9 4 19 9 22
13 11 14 85 60 98 60 7 0 17 -11 23 -24z m-1371 -3 c0 -14 -56 -17 -109 -7
-55 11 -33 24 39 21 48 -1 70 -6 70 -14z m-306 -47 c63 -77 51 -85 -119 -85
-151 0 -461 18 -487 28 l-23 9 25 5 c56 13 230 40 300 48 107 12 201 27 208
33 3 3 18 6 32 6 20 0 37 -12 64 -44z m381 -31 c44 -3 186 -6 315 -7 l235 -2
53 -73 c53 -73 88 -140 78 -151 -3 -3 -21 -7 -38 -9 -34 -3 -482 -2 -578 2
-131 5 -362 5 -523 -1 l-174 -6 -33 29 -33 29 32 36 c51 58 77 65 269 73 157
7 172 9 172 26 0 10 -4 21 -10 24 -5 3 -10 11 -10 16 0 18 45 28 105 24 33 -2
96 -7 140 -10z m1081 3 c4 -6 8 -41 10 -77 9 -222 9 -240 -3 -252 -7 -7 -36
-14 -66 -17 -78 -6 -95 14 -137 156 -33 112 -33 113 -14 132 21 21 144 68 181
69 12 1 25 -4 29 -11z m-2341 -49 c39 -10 174 -23 370 -34 156 -10 149 -6 141
-74 -6 -54 -5 -60 20 -85 18 -17 33 -24 46 -21 21 7 21 7 8 -95 -6 -41 -11
-123 -12 -182 0 -58 -4 -112 -9 -119 -10 -17 -98 -26 -394 -39 -137 -6 -351
-15 -475 -21 -479 -21 -530 -22 -530 -12 0 15 25 23 94 29 120 9 306 37 306
46 0 19 -269 -5 -360 -32 -19 -5 -83 -15 -143 -21 -60 -6 -127 -17 -149 -25
-49 -17 -194 -19 -204 -3 -5 8 -10 6 -16 -6 -17 -30 7 -40 95 -39 106 1 186
13 216 32 21 14 24 14 40 -4 15 -18 26 -19 186 -13 94 4 248 12 343 18 96 7
309 14 475 16 399 5 479 8 500 19 15 7 17 1 17 -62 0 -38 3 -83 6 -101 6 -27
3 -32 -20 -41 -40 -15 -60 1 -75 62 -24 99 -20 92 -44 70 -38 -34 -47 -35 -72
-12 l-24 22 -26 -26 c-14 -14 -50 -38 -78 -53 -49 -25 -61 -27 -202 -29 -82
-1 -195 -7 -250 -13 -55 -6 -201 -13 -325 -16 -124 -3 -303 -7 -399 -10 -104
-3 -181 -1 -192 5 -12 7 -19 24 -21 57 -2 25 -8 48 -14 50 -20 7 -44 -27 -44
-60 0 -18 -4 -37 -8 -43 -17 -25 -137 -43 -297 -43 -149 1 -421 -15 -490 -27
-45 -8 -76 22 -129 125 -25 49 -46 94 -46 99 0 6 41 10 100 9 55 0 103 3 106
6 16 16 -14 25 -103 31 -54 4 -101 10 -105 14 -3 4 -10 19 -13 35 -6 24 -4 29
24 38 38 13 41 41 6 57 -20 9 -25 19 -25 46 0 30 4 35 28 40 56 11 746 9 782
-3 48 -15 160 -14 245 3 39 8 167 17 285 20 118 4 262 9 320 12 58 3 169 9
247 13 135 6 165 12 149 28 -13 13 -482 15 -715 3 -459 -24 -1191 -20 -1191 6
0 8 8 13 18 11 9 -1 18 3 20 8 1 6 -24 12 -55 15 -57 5 -58 6 -57 35 2 39 51
141 72 151 20 8 136 12 452 14 237 1 434 16 424 31 -3 5 -194 8 -424 6 l-419
-2 -6 23 c-3 13 -3 27 0 32 6 10 822 7 832 -4 3 -3 11 -2 17 4 7 5 140 12 296
15 157 4 368 10 470 14 283 11 361 11 405 0z m5115 -18 c0 -23 -23 -33 -52
-22 l-21 8 24 16 c31 22 49 21 49 -2z m-3056 -19 c17 -33 56 -184 56 -218 0
-30 -34 -41 -65 -20 -22 15 -125 207 -125 234 0 12 20 18 75 25 17 2 33 5 37
6 4 0 14 -12 22 -27z m2906 8 c0 -13 -67 -30 -120 -30 -25 0 -58 -7 -73 -15
-16 -8 -61 -19 -100 -24 -40 -5 -109 -15 -154 -21 -72 -10 -101 -9 -229 9 -80
12 -168 21 -195 21 -27 0 -49 4 -49 9 0 12 42 17 245 32 88 6 196 15 240 19
122 11 435 12 435 0z m-2253 -153 c-7 -77 -26 -126 -39 -103 -5 9 -5 24 2 35
5 11 10 33 10 50 0 33 16 81 26 81 4 0 4 -29 1 -63z m1035 35 c42 -4 80 -10
84 -14 4 -4 11 -29 15 -55 11 -71 1 -78 -97 -59 -43 8 -185 20 -314 26 -129 6
-298 15 -375 21 -77 5 -176 12 -220 15 -91 5 -122 22 -93 51 15 15 46 16 275
15 142 0 312 3 378 8 116 8 184 6 347 -8z m-1120 -88 c-2 -10 -5 -38 -9 -62
-3 -25 -10 -41 -17 -39 -11 4 -12 61 -1 105 7 28 31 24 27 -4z m-930 -40 c42
-22 62 -58 48 -84 -13 -25 -5 -25 -268 1 -129 12 -134 13 -147 40 -13 24 -13
29 2 40 21 18 95 25 228 21 69 -3 120 -9 137 -18z m280 -49 c17 -38 45 -103
64 -143 37 -80 42 -107 19 -116 -22 -8 -227 14 -242 26 -14 11 -17 65 -7 92 5
12 20 16 59 16 58 0 105 13 105 30 0 6 -25 10 -59 10 -82 0 -120 16 -137 56
-23 54 -18 83 14 90 15 3 32 7 37 9 6 2 34 3 64 2 l54 -2 29 -70z m573 18 c-4
-32 -13 -70 -20 -84 -16 -31 -74 -52 -97 -35 -17 13 -30 97 -17 117 7 12 110
57 133 58 4 1 5 -25 1 -56z m675 32 c124 -8 299 -17 390 -20 221 -7 242 -11
254 -53 5 -18 7 -35 4 -37 -3 -3 -101 -5 -219 -4 -339 1 -542 -1 -717 -8 -148
-6 -164 -4 -182 12 -34 31 -20 108 22 125 26 10 126 7 448 -15z m-1082 -69 c7
-7 15 -29 19 -48 5 -33 3 -38 -28 -53 -33 -17 -33 -17 -56 11 -34 41 -55 84
-49 99 6 16 95 9 114 -9z m221 -5 c6 -11 7 -38 2 -72 -10 -62 -36 -89 -88 -89
-32 0 -36 4 -59 55 -28 61 -25 95 9 96 12 0 38 7 57 14 49 19 68 18 79 -4z
m-4429 -5 c0 -11 -19 -15 -25 -6 -3 5 1 10 9 10 9 0 16 -2 16 -4z m-172 -28
c-3 -7 -51 -24 -107 -39 -109 -27 -137 -23 -129 17 3 16 15 20 83 25 146 10
157 10 153 -3z m3852 -18 c69 -6 128 -15 133 -19 7 -7 40 -122 35 -126 -65
-43 -71 -44 -173 -34 -55 5 -134 7 -175 3 -66 -5 -77 -4 -92 13 -22 24 -43
122 -34 159 l7 26 87 -5 c48 -3 143 -10 212 -17z m2250 -35 c10 -12 10 -16 -1
-19 -123 -39 -211 -56 -294 -56 -38 0 -113 -4 -165 -10 -52 -5 -176 -17 -275
-25 -99 -9 -196 -21 -216 -26 -20 -5 -64 -9 -97 -9 -68 0 -82 12 -82 70 0 24
6 33 28 42 26 11 230 20 802 37 146 4 270 8 276 9 6 1 17 -5 24 -13z m-1279
-117 c2 -175 0 -193 -18 -174 -9 8 -14 266 -6 279 15 25 22 -6 24 -105z m-105
-93 c-9 -16 -12 -4 -16 60 -4 49 -2 86 5 94 14 20 25 -127 11 -154z m1384 116
c0 -9 -5 -32 -10 -52 -10 -36 -11 -37 -73 -43 -34 -3 -100 -11 -147 -17 -47
-5 -115 -13 -152 -18 -37 -4 -147 -6 -245 -5 -201 4 -307 -8 -374 -42 -50 -25
-156 -40 -178 -26 -20 14 -5 48 34 78 34 25 102 41 225 50 172 12 295 24 460
42 334 37 376 43 405 51 37 10 55 4 55 -18z m-1686 -13 c3 -13 6 -45 5 -73 0
-47 0 -49 -13 -25 -21 39 -29 120 -12 120 8 0 16 -10 20 -22z m246 -47 c0 -54
-7 -81 -21 -81 -5 0 -9 29 -9 65 0 51 3 65 15 65 11 0 15 -12 15 -49z m-180
-36 c0 -36 -4 -65 -10 -65 -5 0 -9 29 -9 65 1 36 5 65 10 65 5 0 9 -29 9 -65z
m90 55 c0 -5 -2 -10 -4 -10 -3 0 -8 5 -11 10 -3 6 -1 10 4 10 6 0 11 -4 11
-10z m200 -132 c0 -48 -4 -90 -10 -93 -6 -4 -10 32 -10 102 0 73 3 103 10 93
5 -8 10 -54 10 -102z m-789 80 c14 -26 31 -220 20 -231 -14 -14 -333 -5 -396
11 -34 9 -53 51 -54 115 -1 38 22 96 43 109 6 4 82 7 169 7 88 0 161 2 165 5
13 13 42 5 53 -16z m262 2 c43 -5 82 -10 87 -10 11 0 30 -57 30 -90 0 -14 -6
-34 -13 -44 -12 -17 -21 -17 -128 -6 -63 6 -120 17 -127 24 -17 16 -32 80 -25
105 6 24 40 40 73 35 14 -2 60 -8 103 -14z m290 -17 c-6 -15 -23 -18 -23 -4 0
5 3 17 6 26 5 12 9 14 14 4 5 -7 6 -18 3 -26z m37 21 c0 -8 -5 -12 -10 -9 -6
4 -8 11 -5 16 9 14 15 11 15 -7z m1515 -43 c-3 -5 -34 -12 -70 -15 -36 -3 -94
-9 -130 -12 -43 -4 -65 -2 -65 5 0 6 19 11 43 12 23 1 53 5 67 9 35 11 162 12
155 1z m-1527 -111 c-6 -52 -11 -112 -11 -132 1 -24 -3 -36 -9 -32 -7 5 -8 39
-3 103 4 53 9 110 10 126 3 47 4 50 15 39 6 -6 5 -43 -2 -104z m-3178 79 c0
-5 -17 -9 -37 -9 -38 0 -36 14 2 22 23 5 35 1 35 -13z m3142 -11 c-9 -9 -12
-7 -12 12 0 19 3 21 12 12 9 -9 9 -15 0 -24z m208 -3 c0 -8 -7 -15 -15 -15
-16 0 -20 12 -8 23 11 12 23 8 23 -8z m1188 -17 l182 0 0 -28 c0 -15 7 -33 15
-40 13 -11 13 -16 -2 -44 -8 -17 -16 -32 -17 -33 -1 -1 -85 -7 -187 -13 -101
-6 -200 -15 -219 -20 -122 -32 -511 -29 -737 6 -24 3 -34 12 -42 36 -6 17 -11
32 -11 34 0 27 337 89 463 85 33 -1 64 2 70 7 22 18 52 21 177 15 69 -3 207
-6 308 -5z m-1448 -8 c0 -5 -2 -10 -4 -10 -3 0 -8 5 -11 10 -3 6 -1 10 4 10 6
0 11 -4 11 -10z m50 -10 c0 -11 -7 -20 -15 -20 -13 0 -14 4 -5 20 6 11 13 20
15 20 3 0 5 -9 5 -20z m205 -43 c0 -51 -19 -47 -22 4 -2 29 1 39 10 36 6 -2
12 -20 12 -40z m-369 -19 c1 -2 4 -19 6 -38 l3 -35 -115 -3 c-138 -3 -158 1
-171 35 -20 53 -12 56 138 49 75 -3 137 -7 139 -8z m-1821 -37 c8 -14 -12 -23
-36 -16 -17 6 -19 9 -8 16 18 11 36 11 44 0z m1200 -47 c11 -3 81 -8 155 -11
84 -3 138 -10 142 -17 4 -6 8 -25 8 -42 0 -17 14 -79 30 -139 17 -60 30 -120
28 -134 l-3 -26 -235 4 c-129 2 -245 8 -258 12 -35 13 -45 53 -48 189 -3 142
-1 158 29 169 21 8 111 5 152 -5z m1062 -36 c-4 -18 -12 -77 -19 -130 -7 -60
-17 -98 -24 -98 -12 0 -34 92 -34 140 0 28 55 120 72 120 6 0 8 -13 5 -32z
m-412 -48 c-1 -25 -7 -85 -14 -135 -7 -49 -15 -112 -18 -139 l-6 -49 -76 7
c-42 4 -81 12 -88 19 -12 12 -33 84 -59 200 -8 38 -20 80 -25 94 -18 48 -1 54
150 51 l136 -3 0 -45z m449 -41 c-6 -64 -8 -70 -16 -44 -11 38 0 141 14 127 6
-6 7 -38 2 -83z m1290 58 c8 -12 7 -20 -4 -32 -13 -12 -60 -16 -255 -20 -132
-3 -283 -9 -335 -15 -109 -11 -266 -20 -463 -26 -127 -4 -139 -2 -157 16 -51
51 1 77 122 61 57 -7 147 -8 288 -1 207 9 441 28 450 37 3 2 81 3 174 1 146
-3 171 -6 180 -21z m-1559 -17 c-3 -5 -11 -10 -16 -10 -6 0 -7 5 -4 10 3 6 11
10 16 10 6 0 7 -4 4 -10z m109 -52 c3 -13 6 -65 6 -116 0 -103 3 -98 -93 -175
-42 -33 -70 -28 -61 12 3 14 12 51 19 81 7 30 16 75 19 99 8 56 32 100 59 111
35 14 44 12 51 -12z m1446 -18 c13 -9 13 -11 0 -20 -23 -15 -60 -12 -60 4 0
12 11 19 40 25 3 0 12 -4 20 -9z m-97 -15 c-3 -10 -154 -20 -468 -29 -93 -3
-238 -10 -321 -15 -148 -9 -152 -10 -198 -42 -51 -36 -53 -41 -31 -63 22 -21
75 -35 180 -47 50 -5 119 -16 155 -24 99 -21 262 -38 300 -32 19 3 58 11 85
16 28 6 66 12 85 14 45 4 232 35 288 48 24 5 47 7 52 4 5 -3 14 -24 20 -47 20
-71 25 -70 -332 -73 -795 -8 -848 -6 -908 23 l-35 17 -2 97 c-2 92 -1 98 20
110 13 7 93 15 192 19 94 4 251 12 350 18 99 6 256 10 349 11 93 0 172 2 175
5 9 10 46 1 44 -10z m-1509 -34 c4 -5 1 -33 -5 -61 -8 -37 -14 -48 -20 -39
-10 16 -12 93 -2 102 9 10 21 9 27 -2z m320 -150 c-4 -20 -7 -22 -15 -10 -11
17 -12 123 -1 133 9 10 23 -92 16 -123z m811 108 c99 1 250 4 336 8 l156 6 7
-27 c4 -15 4 -31 2 -35 -6 -8 -139 -31 -301 -51 -49 -7 -109 -15 -132 -20 -24
-4 -64 -4 -90 1 -26 5 -108 8 -183 6 -172 -5 -347 18 -356 45 -3 10 -3 22 1
27 12 21 255 52 335 44 25 -3 126 -4 225 -4z m-1238 -106 c-13 -78 -27 -90
-21 -17 7 71 11 87 22 80 5 -3 5 -31 -1 -63z m3389 40 c-13 -13 -207 -16 -219
-4 -8 8 4 11 44 12 29 1 79 4 109 8 53 7 82 0 66 -16z m149 17 c-29 -12 -128
-12 -120 0 3 6 36 10 73 9 47 0 61 -3 47 -9z m-923 -32 c-10 -10 -266 -19
-324 -11 -87 13 -26 21 148 21 118 0 183 -3 176 -10z m-3021 -100 l137 -1 5
-56 c7 -63 2 -71 -39 -72 -25 -1 -327 16 -464 26 -25 2 -55 4 -67 4 -21 1 -23
6 -23 50 0 39 4 51 18 55 9 3 80 3 157 0 77 -2 201 -5 276 -6z m345 -21 c3 -3
2 -31 -1 -61 -8 -62 -25 -80 -71 -74 -21 2 -30 14 -50 62 -35 87 -35 87 47 82
38 -2 73 -6 75 -9z m124 -7 c0 -11 -4 -20 -10 -20 -5 0 -10 9 -10 20 0 11 5
20 10 20 6 0 10 -9 10 -20z m200 -132 c-14 -143 -17 -155 -31 -141 -10 10 15
244 28 266 13 22 14 -11 3 -125z m77 30 c-7 -108 -35 -276 -49 -298 -6 -10 -7
10 -4 60 10 127 40 330 50 330 5 0 6 -40 3 -92z m472 53 c74 -5 150 -4 170 1
47 11 444 10 602 -2 69 -5 134 -7 145 -4 12 3 30 -3 45 -15 l24 -20 -22 -22
c-22 -23 -23 -23 -430 -25 -262 -2 -446 1 -513 9 -58 6 -160 11 -228 12 -109
0 -123 2 -128 18 -13 42 49 69 141 61 33 -3 120 -9 194 -13z m-389 -20 c0 -11
-4 -23 -10 -26 -6 -4 -10 5 -10 19 0 14 5 26 10 26 6 0 10 -9 10 -19z m-1085
-41 c3 -5 1 -10 -4 -10 -6 0 -11 5 -11 10 0 6 2 10 4 10 3 0 8 -4 11 -10z m70
0 c-3 -5 -15 -10 -26 -10 -11 0 -17 5 -14 10 3 6 15 10 26 10 11 0 17 -4 14
-10z m75 -10 c0 -5 -7 -10 -16 -10 -8 0 -12 5 -9 10 3 6 10 10 16 10 5 0 9 -4
9 -10z m130 -10 c0 -5 -13 -10 -29 -10 -17 0 -33 5 -36 10 -4 6 8 10 29 10 20
0 36 -4 36 -10z m123 1 c9 -1 17 -6 17 -11 0 -15 -112 -8 -117 7 -3 7 10 10
39 8 24 -2 51 -4 61 -4z m466 -61 c-4 -25 -13 -85 -19 -135 -13 -108 -19 -130
-31 -118 -6 6 -6 34 1 74 6 35 15 96 20 134 5 39 12 81 16 95 10 45 23 -1 13
-50z m591 35 c38 -10 106 -15 219 -15 90 0 161 -3 157 -7 -9 -9 -501 -16 -534
-8 -33 8 -22 29 19 36 57 11 82 9 139 -6z m-815 -34 c-7 -32 -25 -43 -25 -15
0 19 20 57 27 51 3 -3 2 -19 -2 -36z m603 17 c-5 -15 -108 -24 -108 -10 0 17
14 22 63 22 34 0 47 -4 45 -12z m672 1 c0 -5 -13 -9 -30 -9 -16 0 -30 4 -30 8
0 5 14 9 30 10 17 0 30 -4 30 -9z m40 1 c0 -5 -7 -10 -16 -10 -8 0 -12 5 -9
10 3 6 10 10 16 10 5 0 9 -4 9 -10z m-1260 -27 c-1 -18 -18 -35 -24 -24 -4 6
-4 16 -1 21 7 12 25 13 25 3z m13 -131 c-18 -78 -40 -100 -29 -29 11 66 29
118 38 109 4 -4 0 -40 -9 -80z m87 53 c0 -8 -4 -15 -10 -15 -5 0 -10 7 -10 15
0 8 5 15 10 15 6 0 10 -7 10 -15z m1816 -41 c25 -59 8 -74 -21 -20 -29 55 -30
56 -9 56 8 0 22 -16 30 -36z m-1951 -33 c-4 -27 -13 -55 -21 -62 -17 -14 -17
-11 -3 49 15 66 19 76 25 69 3 -3 3 -28 -1 -56z m238 12 c-6 -69 -12 -93 -23
-93 -11 0 -13 47 -4 103 10 56 33 48 27 -10z m172 -42 c-10 -31 -20 -62 -22
-70 -2 -10 -7 -11 -14 -4 -7 7 -7 22 0 49 6 22 11 50 11 65 0 34 21 55 33 33
6 -11 3 -36 -8 -73z m-288 -9 c-9 -93 -18 -132 -30 -132 -6 0 -7 18 -4 48 4
26 9 71 13 100 10 79 28 65 21 -16z m-109 -63 c-6 -16 -13 -28 -15 -25 -8 8 6
56 17 56 5 0 5 -13 -2 -31z m2076 22 c8 -12 -3 -41 -15 -41 -5 0 -9 11 -9 25
0 25 14 34 24 16z"/>
<path d="M8020 7581 c0 -16 42 -62 72 -77 l30 -16 -21 -22 c-12 -12 -21 -33
-21 -45 0 -21 4 -19 48 19 26 23 51 49 56 57 11 21 -16 44 -81 71 -55 23 -83
28 -83 13z"/>
<path d="M8476 7431 c-8 -12 25 -48 51 -56 28 -8 51 28 32 51 -13 15 -75 19
-83 5z"/>
<path d="M5869 7238 l-20 -40 23 7 c29 9 90 46 85 51 -2 3 -18 9 -36 14 -30 8
-32 7 -52 -32z"/>
<path d="M5674 7185 c-4 -8 -3 -23 1 -32 6 -17 7 -17 20 0 14 19 10 47 -6 47
-5 0 -12 -7 -15 -15z"/>
<path d="M6720 7599 c0 -5 5 -7 10 -4 6 3 10 8 10 11 0 2 -4 4 -10 4 -5 0 -10
-5 -10 -11z"/>
<path d="M8632 6680 c-23 -37 -11 -67 22 -54 21 8 30 42 16 59 -16 20 -23 19
-38 -5z"/>
<path d="M8560 6639 c-7 -11 -9 -27 -6 -36 9 -22 36 3 36 33 0 30 -16 31 -30
3z"/>
<path d="M8670 5429 c-29 -24 -32 -31 -20 -39 44 -28 101 10 83 56 -8 21 -24
17 -63 -17z"/>
<path d="M7310 6178 c-1 -68 -3 -179 -6 -248 -3 -102 -2 -121 8 -105 14 23 20
475 6 475 -4 0 -8 -55 -8 -122z"/>
<path d="M9091 5681 c-14 -10 -22 -25 -19 -37 3 -17 6 -17 31 8 43 43 34 65
-12 29z"/>
<path d="M8903 5596 c-35 -32 -37 -36 -28 -71 6 -20 15 -37 20 -38 16 -2 88
112 81 128 -9 24 -34 17 -73 -19z"/>
<path d="M8936 5262 c-4 -6 18 -64 31 -81 1 -2 9 2 18 9 24 20 19 55 -10 68
-31 14 -32 14 -39 4z"/>
<path d="M8883 5242 c-7 -4 -8 -13 -4 -20 6 -10 10 -10 20 2 13 16 2 29 -16
18z"/>
<path d="M8566 5057 c-26 -34 -34 -67 -17 -67 6 0 13 5 17 11 3 6 26 20 50 31
45 19 57 41 28 52 -32 12 -54 5 -78 -27z"/>
<path d="M8820 4842 c0 -10 33 -42 43 -42 12 0 7 18 -9 34 -17 17 -34 21 -34
8z"/>
<path d="M7926 4803 c-8 -20 7 -30 57 -39 51 -8 58 2 24 32 -33 28 -72 31 -81
7z"/>
<path d="M8383 4663 c-17 -6 -17 -38 0 -51 7 -6 22 -9 33 -6 12 3 26 -1 33
-10 16 -19 45 -21 59 -3 13 16 -1 42 -18 32 -6 -4 -21 2 -33 13 -25 22 -56 33
-74 25z"/>
<path d="M7561 4549 c-74 -16 -95 -79 -26 -79 39 0 75 28 75 59 0 26 -8 29
-49 20z"/>
<path d="M9123 4478 c-52 -37 -39 -84 20 -70 13 3 17 15 17 48 0 24 -1 44 -3
44 -1 0 -17 -10 -34 -22z"/>
<path d="M7810 4336 c0 -15 21 -26 51 -26 22 0 24 11 7 28 -17 17 -58 15 -58
-2z"/>
<path d="M8245 4227 c-8 -13 -18 -37 -21 -55 -8 -42 12 -50 71 -27 47 17 51
35 10 35 -18 0 -23 4 -19 15 4 8 17 15 30 15 34 0 30 16 -7 29 -43 15 -46 14
-64 -12z"/>
<path d="M8070 3825 c-22 -26 4 -43 30 -20 20 18 18 35 -4 35 -8 0 -19 -7 -26
-15z"/>
<path d="M3051 4026 c-13 -15 -6 -82 10 -91 4 -3 17 0 29 7 25 16 26 59 2 81
-23 21 -26 21 -41 3z"/>
<path d="M2973 3661 c-14 -50 -17 -74 -10 -87 8 -15 2 -25 -36 -58 -36 -33
-46 -49 -50 -81 -3 -22 -8 -50 -12 -62 -7 -21 -4 -23 28 -23 28 0 40 -6 56
-29 17 -23 30 -30 73 -34 29 -3 65 -9 81 -13 24 -6 27 -4 27 19 0 18 -10 31
-35 46 -33 19 -38 20 -59 6 -21 -14 -25 -14 -36 0 -28 34 65 93 157 99 79 5
220 52 226 76 3 12 -2 20 -15 23 -10 3 -24 19 -31 36 -8 22 -18 31 -34 31 -15
0 -28 10 -37 28 -13 24 -20 28 -46 24 -18 -3 -38 1 -48 10 -9 8 -37 20 -62 27
-25 7 -55 17 -68 22 -42 16 -48 10 -69 -60z"/>
<path d="M3362 3603 c5 -25 28 -28 28 -4 0 12 -6 21 -16 21 -9 0 -14 -7 -12
-17z"/>
<path d="M3110 3376 c0 -6 24 -42 53 -81 l53 -70 53 2 c65 3 143 38 139 62 -3
12 -15 16 -55 16 -56 0 -73 9 -55 27 17 17 15 35 -5 43 -28 13 -183 13 -183 1z
m140 -106 c0 -5 -4 -10 -10 -10 -5 0 -10 5 -10 10 0 6 5 10 10 10 6 0 10 -4
10 -10z"/>
<path d="M2856 3252 c-3 -5 14 -30 38 -55 34 -37 50 -47 74 -47 18 0 32 -4 32
-9 0 -11 -25 -21 -56 -21 -29 0 -31 -21 -4 -38 11 -7 17 -18 14 -27 -10 -24
14 -43 70 -56 47 -10 58 -9 99 9 49 22 58 36 31 46 -24 9 -54 7 -89 -5 -34
-13 -94 -4 -79 11 5 4 32 15 59 23 42 12 58 12 100 1 28 -8 63 -14 78 -14 24
0 28 4 25 23 -3 20 -9 22 -85 27 -45 3 -85 9 -90 13 -4 5 5 19 22 32 31 26 31
26 -3 44 -15 8 -28 9 -39 2 -12 -6 -26 -5 -46 6 -26 13 -31 13 -47 -2 -21 -19
-40 -12 -40 15 0 25 -51 43 -64 22z"/>
<path d="M3316 3206 c3 -9 11 -16 16 -16 13 0 5 23 -10 28 -7 2 -10 -2 -6 -12z"/>
<path d="M3196 3182 c-9 -15 16 -30 61 -38 42 -6 58 2 44 25 -10 16 -96 27
-105 13z"/>
<path d="M3058 2944 c-47 -25 -34 -37 30 -29 60 7 79 16 68 34 -10 16 -66 13
-98 -5z"/>
<path d="M3157 2860 c-22 -17 -35 -20 -70 -15 -35 5 -45 4 -50 -9 -8 -21 18
-34 87 -42 60 -7 76 -28 31 -40 -14 -3 -30 -15 -36 -25 -9 -18 -7 -19 18 -13
58 15 138 53 138 65 0 8 -19 20 -42 29 -52 19 -62 28 -43 40 11 7 12 12 4 20
-7 7 -18 5 -37 -10z"/>
<path d="M3130 2621 c0 -24 53 -63 74 -55 22 8 20 13 -11 46 -31 33 -63 37
-63 9z"/>
<path d="M8588 4144 c-62 -20 -65 -44 -5 -37 62 7 109 23 104 36 -5 17 -45 17
-99 1z"/>
<path d="M7387 3973 c-4 -3 -7 -17 -7 -30 0 -33 24 -24 28 10 3 26 -7 35 -21
20z"/>
<path d="M7723 3886 c-11 -19 -4 -116 9 -116 13 0 50 87 46 108 -4 22 -44 28
-55 8z"/>
<path d="M7976 3197 c-25 -32 -35 -77 -18 -77 4 0 23 13 41 28 29 24 33 33 27
55 -9 35 -20 34 -50 -6z"/>
<path d="M7799 3132 c-14 -12 -20 -25 -16 -36 6 -16 8 -16 32 0 14 9 25 25 25
35 0 24 -12 24 -41 1z"/>
<path d="M7453 3079 c-26 -9 -57 -54 -49 -68 7 -10 66 19 85 43 16 19 -8 36
-36 25z"/>
<path d="M7750 2721 c-14 -27 -13 -46 4 -60 10 -9 17 -6 28 11 16 27 12 68 -7
68 -8 0 -19 -9 -25 -19z"/>
<path d="M5029 2685 c-3 -2 -70 -7 -149 -10 -80 -3 -152 -8 -160 -10 -8 -2
-79 -9 -156 -15 -161 -11 -204 -18 -204 -32 0 -14 386 0 475 17 44 9 127 13
225 12 168 -2 320 12 320 31 0 7 -344 15 -351 7z"/>
<path d="M3905 2185 c-44 -8 -105 -17 -135 -20 -30 -3 -61 -11 -68 -19 -13
-12 -8 -15 33 -22 53 -7 219 1 305 16 30 5 77 13 104 17 40 7 47 10 35 20 -24
19 -184 24 -274 8z"/>
<path d="M7538 2743 c-21 -5 -24 -43 -4 -43 19 0 41 29 30 39 -5 4 -17 6 -26
4z"/>
<path d="M9065 2108 c-169 -8 -271 -19 -345 -38 -90 -23 -117 -26 -232 -25
-85 0 -118 -3 -118 -12 0 -19 28 -23 156 -25 99 -2 138 3 234 26 105 25 135
27 347 30 127 2 236 7 242 10 8 5 8 13 1 26 -11 21 8 21 -285 8z"/>
<path d="M10718 6189 c-16 -11 -28 -27 -28 -34 0 -8 -14 -28 -30 -45 -17 -17
-44 -59 -61 -93 -17 -34 -47 -83 -65 -108 -19 -26 -34 -52 -34 -59 0 -6 -8
-24 -18 -38 -29 -42 -102 -192 -102 -211 0 -9 -10 -34 -21 -56 -12 -22 -48
-110 -80 -195 -33 -85 -68 -171 -79 -191 -11 -20 -20 -45 -20 -56 0 -10 -4
-23 -9 -28 -5 -6 -14 -28 -20 -50 -7 -22 -16 -49 -20 -60 -10 -23 -66 -190
-86 -255 -8 -25 -35 -108 -60 -185 -25 -77 -70 -219 -101 -315 -31 -96 -62
-193 -70 -215 -29 -83 -8 -119 25 -42 10 23 28 63 40 89 11 26 21 50 21 53 0
7 36 91 49 115 10 19 39 117 50 173 5 23 21 74 36 112 38 97 83 230 100 293 8
29 23 69 33 90 10 20 29 73 41 117 13 44 31 98 41 120 9 22 30 70 45 108 15
37 34 72 42 78 7 6 13 21 13 33 0 30 36 120 65 164 14 21 43 83 64 137 43 107
76 181 92 205 5 8 25 49 44 90 75 162 81 169 105 117 17 -36 53 -47 84 -24 18
13 18 15 3 38 -10 13 -17 37 -17 54 0 24 -32 96 -42 95 -2 0 -15 -10 -30 -21z"/>
<path d="M11290 3257 c-102 -4 -248 -14 -325 -22 -77 -8 -181 -17 -232 -21
-80 -5 -93 -9 -99 -26 -3 -11 -4 -21 -1 -24 2 -2 69 2 148 10 324 33 526 45
548 32 6 -4 19 -2 27 5 10 8 40 12 77 11 49 -1 72 4 107 23 l45 24 -55 -2
c-30 -1 -138 -5 -240 -10z"/>
<path d="M11005 3089 c-38 -4 -110 -12 -160 -18 -49 -6 -126 -13 -170 -16 -91
-7 -115 -12 -115 -26 0 -14 276 -11 485 7 105 9 227 17 272 18 88 1 105 13 50
33 -36 13 -250 14 -362 2z"/>
<path d="M11818 2855 c-13 -13 -107 -31 -127 -24 -21 8 -51 2 -51 -10 0 -4 48
-8 106 -9 95 -2 106 -1 100 13 -3 9 -6 21 -6 26 0 10 -13 12 -22 4z"/>
<path d="M505 2762 c-80 -5 -283 -42 -337 -61 -74 -25 -99 -42 -93 -62 4 -12
-5 -19 -35 -28 -29 -8 -40 -17 -40 -31 0 -11 6 -20 13 -21 37 -3 193 2 347 12
96 6 224 11 284 11 60 -1 114 1 119 5 28 17 -45 23 -298 23 -154 0 -286 4
-294 9 -26 17 30 39 129 51 55 7 102 18 112 27 12 11 28 13 57 8 45 -7 230 13
246 27 6 6 3 15 -10 24 -19 14 -69 16 -200 6z m-365 -102 c0 -5 -5 -10 -11
-10 -5 0 -7 5 -4 10 3 6 8 10 11 10 2 0 4 -4 4 -10z m5 -40 c-3 -5 -13 -10
-21 -10 -8 0 -14 5 -14 10 0 6 9 10 21 10 11 0 17 -4 14 -10z"/>
<path d="M10160 2603 c-276 -15 -500 -26 -519 -27 -13 -1 -26 -7 -29 -14 -3
-10 32 -13 173 -12 146 2 179 -1 188 -13 11 -14 59 -26 241 -58 110 -19 301
-1 274 27 -4 3 -69 8 -145 11 -87 3 -149 10 -167 19 -16 8 -45 14 -64 14 -62
0 -26 12 42 14 49 2 66 -1 66 -11 0 -10 35 -13 164 -13 90 0 178 -3 195 -6 20
-4 31 -3 31 5 0 6 -18 11 -42 11 -42 0 -78 13 -62 22 5 2 33 2 62 0 45 -3 55
-8 62 -28 8 -20 16 -24 52 -24 52 0 271 21 277 26 15 14 -29 29 -87 30 -37 1
-130 7 -207 14 -124 11 -408 18 -505 13z m193 -34 c7 0 1 -5 -12 -10 -13 -5
-33 -6 -45 -3 -21 7 -21 7 -1 15 11 4 26 6 33 3 8 -2 19 -4 25 -5z m130 -5 c1
-5 -15 -10 -35 -12 -28 -2 -38 1 -38 11 0 16 68 16 73 1z"/>
<path d="M6340 2271 c0 -19 21 -22 152 -27 73 -2 163 -6 201 -10 57 -4 67 -3
67 11 0 8 -6 17 -12 19 -30 10 -408 15 -408 7z"/>
<path d="M400 2248 c-25 -5 -76 -12 -115 -17 -118 -15 -136 -21 -146 -50 -8
-20 -7 -28 7 -38 19 -14 34 -9 34 12 0 25 36 35 127 35 48 0 120 5 158 11 39
6 99 14 135 18 48 4 65 10 65 21 0 12 -19 15 -110 15 -60 1 -130 -3 -155 -7z"/>
<path d="M11280 2218 c-129 -11 -296 -21 -370 -21 -134 -2 -387 10 -425 19
-11 3 -119 -14 -240 -36 -121 -23 -265 -48 -320 -56 -54 -8 -113 -18 -130 -23
-16 -6 -56 -13 -88 -17 -31 -3 -60 -10 -63 -15 -9 -15 43 -21 98 -10 29 5 80
13 113 16 33 4 85 14 115 22 30 9 70 15 89 14 18 -1 38 2 45 7 6 5 56 15 111
22 55 7 124 21 153 31 51 18 53 18 125 -4 95 -29 230 -28 592 4 61 6 228 14
372 17 144 4 265 11 269 15 34 33 -153 40 -446 15z"/>
<path d="M6286 2161 c-7 -10 22 -37 30 -28 9 8 -3 37 -15 37 -5 0 -12 -4 -15
-9z"/>
<path d="M207 2093 c-18 -9 -32 -11 -40 -5 -27 21 -152 3 -144 -21 7 -21 71
-26 207 -16 74 5 151 8 170 7 31 -3 35 0 35 22 0 25 0 25 -100 27 -72 1 -108
-3 -128 -14z"/>
<path d="M11249 2086 c-2 -3 -92 -5 -199 -6 -319 -3 -484 -16 -613 -49 -61
-16 -164 -37 -227 -46 -100 -15 -131 -15 -238 -5 -153 15 -291 15 -305 1 -6
-6 -9 -13 -6 -15 4 -5 194 -26 231 -26 32 0 12 -16 -38 -30 -91 -26 -179 -66
-183 -85 -2 -15 1 -17 20 -10 78 24 573 48 969 47 151 0 298 3 325 8 28 5 118
14 200 20 83 7 209 18 280 26 301 33 433 42 670 43 137 1 252 4 254 7 10 10
-24 24 -56 24 -18 0 -33 4 -33 9 0 15 31 22 66 15 28 -5 34 -3 34 11 0 10 -5
15 -13 12 -8 -3 -74 -10 -148 -17 -74 -6 -165 -15 -204 -20 -38 -4 -124 -6
-190 -3 -132 5 -371 -17 -445 -41 -74 -24 -276 -37 -625 -41 -377 -4 -669 -12
-767 -20 -40 -4 -68 -2 -68 3 0 19 48 23 320 33 151 5 316 14 365 20 50 5 131
14 180 18 50 5 113 14 140 20 141 33 349 63 484 70 69 4 116 10 118 17 2 7
-43 11 -145 13 -82 0 -151 -1 -153 -3z m-399 -46 c8 -5 12 -11 10 -13 -30 -26
-500 -64 -500 -40 0 5 80 17 178 27 97 9 197 21 222 25 63 12 73 12 90 1z"/>
<path d="M12551 2059 c-72 -14 -78 -33 -8 -25 33 4 66 2 77 -4 30 -16 32 5 2
22 -20 11 -38 13 -71 7z"/>
<path d="M2580 2053 c-19 -1 -62 -8 -95 -15 -77 -14 -107 -17 -295 -22 -171
-5 -460 -25 -472 -32 -39 -24 90 -28 347 -9 220 16 562 52 577 61 11 7 0 24
-15 22 -7 0 -28 -3 -47 -5z"/>
<path d="M6265 2020 c-10 -16 14 -21 96 -21 74 0 100 4 88 15 -10 8 -179 14
-184 6z"/>
<path d="M11905 1879 c-55 -4 -165 -12 -245 -19 -80 -6 -198 -15 -262 -19
-110 -6 -140 -13 -125 -27 9 -9 446 14 572 31 61 8 136 17 167 20 32 4 60 11
63 16 7 10 -15 10 -170 -2z"/>
<path d="M12635 1878 c-85 -9 -90 -11 -80 -27 10 -16 82 -13 110 5 19 12 31
13 63 5 40 -11 72 -7 72 10 0 5 -3 10 -7 10 -27 5 -89 4 -158 -3z"/>
<path d="M1535 1871 l-40 -7 29 -12 c57 -25 348 -43 360 -23 9 14 -16 28 -64
35 -80 10 -244 15 -285 7z"/>
<path d="M12155 1861 c-16 -4 -25 -9 -20 -13 15 -9 318 -7 308 2 -11 10 -250
19 -288 11z"/>
<path d="M3985 1813 c-28 -16 -65 -24 -175 -39 -66 -10 -72 -18 -69 -93 3 -89
2 -91 -22 -91 -12 0 -88 -22 -171 -50 -82 -27 -163 -50 -178 -50 -16 0 -49 9
-75 20 -26 11 -84 24 -131 30 -46 5 -92 14 -103 20 -11 5 -41 10 -68 10 -26 1
-75 7 -108 15 -33 8 -87 15 -120 15 -34 0 -113 14 -180 31 -66 17 -157 36
-202 43 -77 12 -84 11 -99 -6 -11 -12 -31 -18 -58 -18 -42 0 -102 -29 -112
-54 -3 -8 6 -36 20 -64 27 -54 24 -64 -24 -75 -88 -21 -287 -77 -304 -86 -38
-19 -172 -51 -212 -51 -21 0 -66 -7 -99 -15 -33 -8 -77 -14 -97 -15 -32 0 -39
-4 -44 -26 -5 -18 0 -32 17 -50 12 -13 28 -24 35 -24 6 0 17 -7 24 -16 8 -8
29 -22 49 -30 75 -31 75 -33 36 -169 -23 -80 -24 -115 -3 -129 15 -9 29 0 90
61 40 39 84 74 98 78 14 3 34 10 45 14 11 5 58 20 103 35 l84 26 61 -26 c66
-27 85 -33 187 -60 36 -9 70 -20 77 -26 17 -13 209 -1 272 18 44 13 61 13 106
3 77 -17 79 -19 64 -70 -7 -24 -16 -48 -21 -53 -4 -6 -8 -20 -8 -33 0 -34 36
-38 105 -10 53 22 70 24 140 18 44 -4 90 -12 102 -19 28 -16 125 -15 146 1 22
16 2 42 -33 43 -14 1 -59 8 -100 17 -123 28 -199 32 -244 13 -45 -19 -46 -19
-46 -6 0 6 27 40 60 75 33 35 60 69 60 74 0 22 -44 32 -122 30 -69 -3 -82 -1
-94 16 -17 23 -17 27 -1 48 9 13 35 18 118 23 l107 7 48 -41 c27 -22 60 -45
74 -50 14 -5 82 -9 151 -10 119 -1 128 0 159 23 23 17 41 22 59 19 15 -3 46
-1 69 5 34 10 47 9 70 -3 16 -8 40 -16 53 -18 13 -2 44 -18 68 -36 32 -23 55
-32 83 -32 24 0 56 -10 83 -26 l44 -25 38 19 c30 15 53 18 113 15 140 -7 160
-6 179 11 9 9 29 16 43 16 14 0 45 11 70 25 34 19 51 23 73 16 38 -9 40 -23
17 -91 l-19 -55 -104 -36 c-57 -19 -126 -46 -154 -58 -79 -37 -374 -53 -540
-30 -223 31 -245 31 -245 4 0 -30 59 -44 280 -70 158 -18 220 -18 295 1 33 9
74 18 90 21 17 3 57 15 90 28 33 13 92 28 132 33 69 10 223 65 347 124 33 15
66 28 75 28 9 0 30 9 46 20 17 11 41 20 55 20 14 0 48 11 75 24 28 12 68 28
90 35 80 25 415 187 415 200 0 5 20 21 43 34 43 26 117 99 117 116 0 14 -59
61 -76 61 -8 0 -80 32 -160 70 -79 39 -149 70 -155 70 -6 0 -28 18 -50 40 -47
47 -77 57 -129 41 -98 -29 -161 -1 -164 74 -1 11 -9 21 -19 23 -20 4 -67 -34
-67 -53 0 -6 -11 -21 -24 -34 -18 -17 -28 -20 -47 -13 -41 16 -118 32 -153 32
-20 0 -47 10 -67 25 -61 45 -118 66 -202 75 -45 5 -91 12 -102 15 -11 2 -33
-3 -50 -12z m205 -73 c0 -5 -5 -10 -11 -10 -5 0 -7 5 -4 10 3 6 8 10 11 10 2
0 4 -4 4 -10z m-299 -50 c46 0 49 -2 49 -25 0 -27 -24 -42 -87 -52 -29 -5 -33
-2 -48 33 -16 39 -7 60 23 49 8 -3 36 -5 63 -5z m435 -15 c13 -20 24 -25 60
-25 23 0 45 -3 48 -8 2 -4 -5 -34 -16 -67 -11 -33 -20 -80 -20 -103 0 -42 -1
-43 -25 -37 -60 15 -83 47 -95 133 -5 40 -21 25 -42 -40 -20 -59 -23 -63 -54
-66 l-33 -3 7 62 c9 82 -9 77 -55 -16 -31 -63 -35 -67 -47 -50 -8 10 -14 25
-14 32 0 19 -24 16 -53 -7 -14 -11 -37 -20 -52 -20 -25 0 -27 2 -21 31 3 17 6
47 6 65 0 21 5 34 13 34 6 0 53 14 102 31 128 44 236 76 262 78 7 1 20 -10 29
-24z m-1873 -74 c15 -6 27 -15 27 -20 0 -10 -35 -21 -72 -21 -15 0 -62 -11
-105 -25 -43 -14 -81 -25 -86 -25 -8 0 -47 60 -47 74 0 4 47 7 105 4 58 -2
105 -1 105 2 0 3 -4 12 -9 20 -15 23 -3 30 27 15 15 -7 39 -18 55 -24z m2151
33 c40 -15 9 -63 -73 -112 -41 -24 -44 -24 -57 -8 -12 18 -11 26 21 114 5 13
80 17 109 6z m304 -55 c25 -10 26 -12 10 -23 -10 -7 -18 -16 -18 -18 0 -13 56
-15 75 -2 19 13 33 11 121 -16 54 -17 117 -39 139 -49 22 -11 54 -22 70 -25
17 -4 44 -17 60 -30 26 -21 28 -26 15 -41 -17 -20 -158 -114 -215 -142 -75
-38 -245 -103 -285 -109 -38 -6 -44 -4 -68 25 -22 26 -43 36 -120 55 -52 14
-96 27 -100 30 -12 13 11 20 56 18 88 -5 222 31 200 53 -3 4 -71 7 -150 8
-135 2 -145 3 -175 26 -52 39 -45 68 28 132 34 30 78 71 98 92 l36 37 98 -5
c54 -3 110 -11 125 -16z m-1032 -50 c-18 -110 -92 -173 -141 -119 -14 16 -15
24 -6 51 6 18 11 42 11 53 0 16 11 26 43 38 23 8 55 16 71 17 28 1 28 0 22
-40z m-1006 16 c36 -3 121 -19 190 -35 69 -16 137 -30 152 -30 44 0 42 -17 -6
-45 -39 -23 -51 -25 -107 -19 -35 3 -65 9 -67 14 -16 43 -62 51 -62 10 0 -11
-7 -20 -15 -20 -8 0 -15 8 -15 18 0 43 -44 55 -62 17 -13 -30 -28 -33 -28 -6
0 48 -61 54 -70 6 l-6 -30 -17 33 c-10 17 -21 32 -25 32 -15 0 -32 -24 -32
-44 0 -19 -1 -19 -23 2 -29 27 -37 27 -73 0 -19 -15 -42 -23 -68 -23 -33 0
-43 -5 -55 -27 -10 -18 -12 -31 -6 -37 13 -12 181 -31 276 -31 91 0 249 -20
249 -31 0 -5 -30 -23 -67 -40 -52 -24 -101 -35 -213 -51 -140 -19 -210 -39
-210 -60 0 -6 14 -35 31 -64 35 -61 36 -59 -61 -69 -84 -8 -91 -8 -220 9 -91
12 -122 21 -194 57 l-86 42 -138 -32 c-75 -19 -157 -42 -181 -52 -24 -11 -48
-19 -52 -19 -15 0 20 74 46 97 37 33 23 49 -46 57 -161 16 -119 63 61 68 89 2
184 17 210 33 6 4 10 16 8 28 -3 19 8 24 107 48 100 24 163 44 280 87 22 8 72
30 112 50 138 67 216 76 483 57z m809 -72 c-18 -53 -51 -82 -94 -84 -52 -2
-135 16 -135 30 0 16 167 79 212 80 25 1 26 -1 17 -26z m606 -53 c-3 -5 -11
-10 -16 -10 -6 0 -7 5 -4 10 3 6 11 10 16 10 6 0 7 -4 4 -10z m-279 -122 c-1
-76 -3 -83 -21 -83 -30 0 -46 42 -42 109 3 43 8 62 23 73 30 22 41 -5 40 -99z
m174 85 c0 -16 -21 -89 -32 -110 -16 -32 -56 -30 -68 3 -25 65 3 114 65 114
19 0 35 -3 35 -7z m-725 -26 c49 -19 61 -28 63 -48 4 -31 -15 -48 -60 -55 -26
-5 -52 2 -110 30 -42 20 -79 36 -82 36 -3 0 -10 -19 -16 -42 -19 -77 -27 -88
-60 -88 -21 0 -39 9 -55 28 -13 15 -25 30 -25 33 0 16 231 128 265 129 12 0
48 -10 80 -23z m866 0 c-10 -9 -11 -8 -5 6 3 10 9 15 12 12 3 -3 0 -11 -7 -18z
m-441 -12 c11 -13 11 -24 -1 -62 -16 -53 -44 -77 -59 -53 -13 18 -4 77 16 108
17 26 27 28 44 7z m-160 -17 c44 -25 50 -48 29 -107 -10 -29 -14 -32 -43 -26
-43 9 -56 30 -56 90 0 74 8 78 70 43z m651 -18 c19 -10 27 -59 12 -73 -12 -13
-43 26 -43 55 0 31 3 33 31 18z m-111 -36 c8 -24 9 -39 2 -46 -15 -15 -29 -3
-36 33 -11 58 16 68 34 13z m203 11 c26 -25 32 -77 12 -91 -32 -24 -55 0 -55
56 0 53 14 64 43 35z m-1393 -85 c31 -43 24 -74 -17 -78 -25 -3 -39 3 -58 24
-32 35 -32 50 3 68 39 22 48 20 72 -14z m503 8 c13 -20 0 -68 -19 -68 -51 0
-71 47 -32 74 25 18 37 17 51 -6z m-146 -20 c33 -31 29 -48 -11 -48 -35 0 -46
13 -46 51 0 26 28 24 57 -3z m-137 -30 c0 -38 -34 -78 -67 -78 -13 0 -23 4
-23 9 0 12 72 99 83 100 4 1 7 -13 7 -31z m943 12 c24 -12 28 -19 25 -48 -2
-20 -11 -40 -20 -46 -25 -15 -61 23 -60 63 1 33 10 54 20 49 4 -2 20 -10 35
-18z m-119 -9 c45 -50 19 -142 -36 -128 -40 10 -65 106 -36 135 18 18 53 15
72 -7z m246 -17 c0 -23 -19 -25 -30 -4 -14 26 -4 45 16 29 8 -6 14 -17 14 -25z
m-392 -57 c2 -37 0 -47 -12 -47 -20 0 -66 68 -66 97 0 21 2 21 38 9 35 -12 37
-16 40 -59z m-111 16 c15 -22 15 -26 -4 -51 -29 -38 -45 -34 -72 21 -18 37
-21 50 -12 61 17 20 67 2 88 -31z m-163 21 c20 -8 21 -48 2 -63 -12 -10 -19
-8 -35 8 -40 40 -19 75 33 55z m746 -174 c0 -5 -4 -10 -10 -10 -5 0 -10 5 -10
10 0 6 5 10 10 10 6 0 10 -4 10 -10z"/>
<path d="M4797 1533 c-18 -31 -17 -77 3 -118 24 -50 44 -60 101 -50 35 6 43
13 56 42 17 43 5 62 -22 33 -37 -41 -79 -24 -100 41 -16 48 -29 66 -38 52z"/>
<path d="M4867 1514 c-11 -12 -8 -37 8 -59 15 -19 16 -19 37 3 18 18 20 26 12
40 -12 18 -45 28 -57 16z"/>
<path d="M4440 1246 c0 -9 5 -16 10 -16 6 0 10 4 10 9 0 6 -4 13 -10 16 -5 3
-10 -1 -10 -9z"/>
<path d="M12563 1733 c-7 -2 -13 -9 -13 -14 0 -14 24 -11 46 6 19 14 19 14 -1
14 -11 0 -26 -3 -32 -6z"/>
<path d="M12275 1719 c-55 -3 -134 -13 -175 -23 -41 -10 -106 -21 -145 -26
-80 -10 -98 -13 -250 -40 -60 -11 -164 -26 -230 -35 -66 -9 -142 -20 -168 -26
-27 -5 -70 -9 -95 -9 -26 0 -66 -5 -90 -10 -106 -25 -403 -48 -697 -56 -368
-8 -454 -12 -560 -23 -55 -6 -107 -11 -114 -11 -11 0 -12 -3 -4 -11 14 -14
426 -14 672 1 321 18 354 21 466 41 61 10 130 19 155 19 25 0 62 5 83 11 21 5
77 12 125 14 171 8 366 33 587 76 55 10 141 23 190 29 50 6 97 13 105 15 28 9
163 27 250 33 69 6 85 10 88 24 4 19 5 19 -193 7z"/>
<path d="M605 1685 c-27 -8 -71 -14 -96 -15 -42 0 -79 -20 -79 -43 0 -17 53
-30 149 -38 119 -8 179 0 228 34 50 33 43 55 -20 63 -100 12 -137 12 -182 -1z"/>
<path d="M12107 1583 c-1 0 -47 -6 -102 -12 -55 -6 -118 -16 -140 -21 -63 -14
-284 -58 -325 -65 -14 -2 -61 -10 -105 -18 -44 -9 -138 -21 -210 -27 -133 -13
-164 -15 -344 -24 -132 -7 -320 -25 -345 -32 -10 -3 -184 -9 -387 -13 -253 -4
-372 -10 -379 -17 -9 -9 -9 -14 -1 -19 34 -20 895 15 1066 45 33 5 182 19 330
30 267 20 319 26 485 56 308 57 472 86 522 92 32 4 63 13 70 21 11 10 -1 12
-60 9 -41 -2 -74 -4 -75 -5z"/>
<path d="M12535 1563 c-28 -12 -57 -23 -66 -23 -26 0 -140 -45 -141 -56 -3
-18 35 -15 105 9 40 14 93 30 119 36 25 6 58 21 73 35 l26 24 -33 -1 c-19 0
-56 -11 -83 -24z"/>
<path d="M6250 1550 c0 -43 102 -137 129 -120 19 11 5 29 -38 46 -26 10 -43
26 -54 49 -16 33 -37 47 -37 25z"/>
<path d="M12260 1460 c0 -5 5 -10 11 -10 5 0 7 5 4 10 -3 6 -8 10 -11 10 -2 0
-4 -4 -4 -10z"/>
<path d="M12155 1444 c-33 -8 -104 -16 -157 -19 -109 -5 -148 -12 -148 -27 0
-11 282 -4 330 8 27 7 60 32 60 46 0 10 -9 9 -85 -8z"/>
<path d="M8955 1211 c-2 -2 -59 -7 -127 -12 -245 -17 -286 -24 -263 -47 9 -9
103 -15 250 -15 138 0 185 3 305 22 41 7 90 15 109 17 26 4 31 8 22 17 -11 11
-287 28 -296 18z"/>
<path d="M11055 874 c-274 -34 -334 -35 -902 -20 -67 2 -127 0 -133 -4 -13 -8
119 -25 265 -36 50 -3 106 -9 125 -14 20 -5 121 -2 240 6 113 8 221 14 240 15
43 0 333 37 354 45 9 3 16 10 16 15 0 12 -71 10 -205 -7z"/>
<path d="M11656 767 c-16 -12 -14 -15 22 -31 44 -20 86 -16 96 9 11 30 -83 48
-118 22z"/>
<path d="M9822 751 c-16 -10 30 -43 68 -48 14 -1 42 -6 63 -9 30 -5 37 -3 37
10 0 10 -15 19 -42 26 -24 6 -56 15 -72 20 -35 12 -37 12 -54 1z"/>
<path d="M10887 693 c-14 -4 -16 -8 -6 -19 8 -10 16 -11 30 -3 11 5 24 7 29 4
14 -9 51 5 45 16 -6 9 -65 11 -98 2z"/>
<path d="M5867 634 c-2 -2 -102 -6 -223 -9 -120 -2 -253 -7 -294 -11 -41 -4
-93 -8 -115 -9 -78 -4 -80 -4 -67 -17 10 -10 286 -14 497 -7 11 0 270 1 575 2
305 1 587 1 625 2 39 0 160 -4 270 -9 110 -5 362 -10 560 -12 333 -3 404 -7
600 -35 65 -9 275 -27 570 -49 66 -5 163 -13 215 -19 89 -10 301 -23 605 -37
72 -4 148 -12 170 -20 37 -12 90 -18 360 -44 60 -6 313 -7 635 -3 842 10 834
10 1070 -32 52 -9 141 -19 198 -21 57 -2 107 -6 112 -9 17 -10 40 8 40 31 0
24 -2 24 -92 24 -104 0 -141 12 -94 30 16 6 26 13 23 17 -4 3 -21 0 -38 -7
-28 -12 -33 -11 -45 4 -7 10 -17 15 -23 12 -6 -4 -68 -2 -138 4 -70 5 -254 17
-408 25 -154 9 -300 20 -325 25 -111 22 -184 29 -197 18 -31 -25 26 -43 195
-61 12 -1 23 -6 22 -12 0 -5 -65 -8 -162 -8 -178 2 -651 21 -684 28 -12 3
-104 5 -205 6 -101 0 -240 7 -309 15 -69 8 -188 19 -265 25 -77 5 -151 13
-165 18 -14 4 -88 7 -165 6 -77 -1 -147 2 -155 7 -8 4 -105 15 -215 23 -110 9
-231 20 -270 26 -38 5 -83 11 -100 13 -16 3 -77 7 -135 11 -58 4 -129 13 -158
21 -42 12 -153 16 -520 20 -419 4 -577 7 -592 12 -21 7 -837 11 -955 4 -82 -4
-167 -5 -187 -1 -21 3 -39 5 -41 3z"/>
<path d="M11115 573 c-55 -5 -88 -13 -81 -20 7 -8 242 -5 286 3 85 16 -69 29
-205 17z"/>
<path d="M8450 268 c-52 -4 -228 -10 -390 -14 -162 -4 -333 -9 -380 -10 -849
-28 -1007 -29 -1170 -13 -169 16 -431 22 -470 11 -29 -8 -15 -10 81 -11 104
-1 220 -14 243 -28 25 -16 -39 -20 -219 -12 -232 9 -542 5 -770 -9 -165 -11
-317 -9 -725 8 -129 6 -388 12 -575 15 -519 6 -861 15 -955 26 -47 6 -106 12
-132 15 -39 5 -48 3 -48 -10 0 -9 11 -18 25 -22 27 -7 33 -22 12 -29 -6 -2
-84 -6 -172 -9 -88 -3 -186 -11 -217 -16 -46 -8 -66 -7 -105 6 -33 12 -94 18
-198 20 -357 9 -486 14 -586 24 -131 12 -520 9 -516 -5 8 -24 141 -42 387 -54
247 -12 467 -26 600 -38 90 -8 51 -21 -65 -22 -114 -1 -417 -28 -467 -41 -20
-6 -49 -8 -63 -4 -15 4 -25 2 -25 -5 0 -7 36 -9 118 -6 64 3 238 10 386 16
148 5 273 12 277 15 4 2 88 13 186 24 98 11 203 25 233 32 30 7 64 13 75 15
54 7 236 25 280 28 28 1 86 8 130 15 53 8 113 10 180 5 55 -4 150 -9 210 -10
61 -1 227 -5 370 -9 143 -4 384 -9 535 -12 151 -2 368 -8 483 -13 116 -4 285
-4 385 1 222 11 677 12 694 2 18 -11 298 -31 423 -30 108 1 110 1 108 23 -2
16 4 24 20 28 12 3 146 7 297 9 151 2 318 6 370 9 231 14 445 20 870 22 355 3
460 0 480 -10 22 -11 57 -17 170 -31 14 -1 97 -10 185 -18 88 -8 173 -18 189
-21 16 -3 35 0 42 6 11 9 18 8 28 0 20 -17 235 -18 265 -1 13 6 21 13 19 15
-2 2 -86 10 -188 19 -102 9 -223 20 -270 26 -47 5 -125 13 -175 16 -77 6 -85
9 -55 16 19 4 82 3 140 -2 224 -21 362 -30 528 -35 96 -3 185 -8 199 -11 19
-5 24 -3 21 7 -5 15 -105 52 -119 44 -4 -3 -40 0 -81 6 -243 37 -835 57 -1108
37z m378 -26 c2 -7 -6 -12 -17 -12 -21 0 -27 11 -14 24 9 9 26 2 31 -12z
m-2233 -92 c3 -5 -3 -10 -15 -10 -12 0 -18 5 -15 10 3 6 10 10 15 10 5 0 12
-4 15 -10z"/>
<path d="M775 259 c-10 -15 1 -23 20 -15 9 3 13 10 10 16 -8 13 -22 13 -30 -1z"/>
<path d="M838 249 c-16 -10 2 -17 70 -28 33 -5 70 -15 82 -21 15 -8 36 -8 77
0 31 5 59 10 61 10 2 0 -1 7 -9 16 -8 10 -26 14 -48 13 -20 -1 -47 1 -61 6
-30 10 -158 13 -172 4z"/>
</g>
</svg>
