<?xml version="1.0" standalone="no"?>
<!DOCTYPE svg PUBLIC "-//W3C//DTD SVG 20010904//EN"
 "http://www.w3.org/TR/2001/REC-SVG-20010904/DTD/svg10.dtd">
<svg version="1.0" xmlns="http://www.w3.org/2000/svg"
 width="974.000000pt" height="1280.000000pt" viewBox="0 0 974.000000 1280.000000"
 preserveAspectRatio="xMidYMid meet">
<metadata>
Created by potrace 1.15, written by Peter Selinger 2001-2017
</metadata>
<g transform="translate(0.000000,1280.000000) scale(0.100000,-0.100000)"
fill="#000000" stroke="none">
<path d="M4825 12793 c-16 -2 -43 -9 -58 -15 -20 -8 -47 -7 -103 2 -80 14 -72
15 -239 -35 -85 -26 -135 -36 -335 -65 -110 -17 -136 -25 -217 -65 -51 -26
-103 -57 -117 -70 -13 -12 -69 -52 -124 -89 -54 -36 -105 -72 -111 -80 -7 -8
-36 -28 -64 -45 -29 -16 -74 -51 -102 -78 -27 -27 -72 -61 -100 -77 -79 -46
-361 -283 -484 -407 -25 -26 -67 -61 -93 -78 -26 -17 -53 -39 -60 -49 -7 -9
-34 -34 -61 -55 -56 -46 -111 -127 -145 -217 -14 -36 -31 -68 -38 -73 -7 -4
-16 -24 -20 -43 -7 -38 -28 -54 -47 -35 -19 19 -24 12 -23 -41 0 -34 -8 -73
-23 -108 -31 -74 -46 -121 -66 -210 -17 -72 -20 -78 -100 -161 -70 -73 -84
-93 -95 -137 -6 -29 -9 -68 -6 -87 7 -37 -3 -64 -38 -105 -12 -14 -38 -52 -58
-85 -74 -124 -80 -147 -53 -188 13 -21 12 -26 -15 -67 -33 -49 -36 -66 -19
-104 10 -20 9 -30 -5 -50 -9 -14 -16 -36 -16 -49 0 -13 -12 -34 -26 -48 -14
-13 -37 -46 -51 -74 -14 -27 -33 -61 -43 -75 -55 -79 -227 -445 -228 -485 -1
-25 -5 -46 -35 -178 -14 -59 -28 -133 -32 -165 -6 -56 -11 -80 -55 -270 -18
-76 -20 -95 -9 -108 10 -12 10 -17 0 -23 -13 -9 -41 -102 -41 -142 0 -14 -3
-29 -7 -33 -8 -7 -15 -43 -58 -256 -9 -47 -31 -132 -48 -190 -31 -103 -32
-109 -30 -290 2 -194 4 -225 23 -383 8 -67 9 -102 2 -109 -5 -5 -41 -11 -78
-13 -217 -8 -344 -25 -560 -76 -157 -36 -224 -66 -224 -99 0 -11 29 -39 78
-74 122 -88 126 -92 114 -124 -5 -15 -16 -47 -23 -72 -9 -31 -29 -60 -66 -95
-29 -28 -77 -84 -108 -125 -72 -96 -203 -230 -225 -230 -45 0 -65 -69 -32
-111 25 -30 43 -21 88 41 20 28 55 64 78 80 52 36 122 118 184 215 14 22 46
62 73 90 46 49 94 137 105 192 8 43 -29 115 -81 157 -50 42 -55 58 -23 80 20
14 24 14 44 -5 13 -12 33 -47 45 -78 12 -31 26 -62 32 -68 5 -7 26 -61 47
-120 38 -111 175 -449 235 -584 18 -41 52 -138 74 -215 47 -162 52 -150 -68
-187 -101 -32 -206 -48 -238 -36 -15 6 -31 5 -43 -1 -24 -13 -47 -13 -109 1
-53 11 -108 46 -94 60 4 4 55 10 113 12 58 3 127 10 153 16 39 9 53 8 69 -3
17 -12 22 -11 42 9 13 13 50 31 82 41 67 20 84 30 84 50 0 21 -72 18 -186 -9
-207 -50 -315 -56 -374 -21 -18 10 -33 24 -32 29 1 11 180 55 226 56 38 0 188
44 237 69 76 39 29 85 -57 56 -27 -8 -87 -24 -134 -35 -47 -11 -105 -25 -130
-31 -67 -18 -268 -18 -307 -1 -25 12 -37 12 -57 3 -33 -15 -26 -31 30 -72 29
-21 52 -48 64 -74 10 -23 43 -72 74 -108 71 -85 129 -108 290 -115 155 -8 325
28 422 88 52 32 64 21 64 -53 -1 -75 -10 -93 -73 -148 -26 -23 -47 -48 -47
-55 0 -7 -19 -33 -41 -56 -51 -54 -80 -99 -114 -179 -26 -62 -26 -64 -9 -96
10 -19 23 -35 29 -38 6 -2 78 0 160 4 93 5 154 4 160 -1 6 -6 11 -22 12 -37 7
-94 27 -188 59 -285 20 -62 40 -116 44 -122 13 -17 87 -207 105 -270 9 -33 21
-65 25 -70 12 -14 29 -82 46 -180 7 -44 18 -102 23 -130 5 -27 13 -122 17
-210 7 -176 9 -182 77 -216 57 -30 53 -42 -55 -174 -111 -134 -242 -218 -477
-304 -138 -51 -204 -84 -253 -125 -20 -17 -47 -39 -61 -48 -21 -15 -24 -24
-22 -63 3 -54 27 -85 90 -115 74 -36 224 -26 576 39 31 6 74 17 97 25 23 8
103 27 179 42 142 27 157 27 428 9 133 -9 128 -7 121 -73 -4 -31 -14 -97 -23
-147 -8 -49 -15 -113 -14 -141 0 -28 -8 -77 -19 -109 -11 -32 -20 -72 -20 -89
0 -17 -12 -76 -26 -131 -14 -55 -29 -127 -34 -161 -5 -33 -18 -85 -30 -115
-11 -30 -31 -97 -45 -149 -13 -52 -42 -137 -64 -189 -23 -52 -41 -104 -41
-116 0 -11 -4 -25 -9 -31 -4 -5 -15 -29 -24 -54 -88 -256 -116 -340 -122 -367
-4 -18 -11 -35 -16 -38 -5 -4 -9 -21 -9 -38 0 -18 -5 -48 -10 -67 -6 -19 -11
-75 -12 -125 -1 -79 2 -97 27 -150 15 -33 35 -68 43 -78 8 -9 13 -19 10 -22
-3 -3 -52 -7 -109 -8 -97 -4 -175 -14 -404 -53 -49 -8 -128 -19 -175 -24 -47
-5 -112 -14 -146 -20 -33 -5 -87 -11 -120 -11 -32 -1 -96 -7 -141 -14 -45 -7
-91 -11 -101 -8 -11 2 -48 -3 -83 -12 -36 -10 -109 -19 -164 -20 -202 -5 -265
-22 -265 -73 0 -54 66 -64 208 -33 52 12 125 20 182 20 52 0 151 5 220 10 258
22 529 41 645 46 73 4 426 30 715 54 134 11 407 20 638 21 l162 0 0 25 c0 14
6 25 14 25 9 0 12 -8 8 -25 l-4 -25 153 -1 c85 0 237 1 339 2 102 1 194 2 205
1 33 -2 238 -11 470 -22 121 -5 257 -10 303 -10 81 0 82 0 82 25 0 57 -68 66
-540 71 -269 3 -405 12 -517 34 -47 9 -73 10 -107 1 -34 -8 -67 -8 -144 3 -72
10 -112 12 -144 4 -29 -7 -105 -6 -238 2 -107 6 -226 11 -265 10 -219 -7 -317
-4 -327 7 -12 15 -4 43 32 113 29 57 91 269 116 398 7 40 29 121 48 180 19 59
38 118 41 132 12 41 25 51 59 45 44 -8 232 -13 514 -14 l242 -1 0 -27 c0 -16
-20 -109 -44 -208 l-42 -180 -80 -1 c-43 0 -128 -6 -189 -13 -60 -6 -150 -14
-200 -17 -135 -8 -155 -12 -155 -34 0 -45 17 -48 222 -44 105 3 194 7 198 9 4
2 78 11 166 20 87 8 238 26 334 39 146 20 343 38 580 51 47 3 1687 19 1800 18
36 -1 274 -3 530 -6 289 -3 475 -9 492 -15 28 -12 30 -19 42 -157 3 -33 12
-85 21 -115 8 -30 20 -83 25 -116 5 -34 25 -113 44 -175 19 -63 31 -117 27
-122 -4 -4 -97 -10 -207 -13 -109 -3 -206 -6 -214 -6 -50 -3 -230 13 -257 22
-21 8 -38 8 -49 2 -11 -6 -27 -7 -42 -1 -13 5 -51 11 -85 13 -34 2 -82 7 -107
10 -102 14 -329 38 -385 41 -33 2 -91 10 -130 20 -38 9 -101 21 -140 26 -38 4
-99 13 -135 18 -95 14 -260 5 -275 -16 -10 -14 -26 -15 -107 -9 -75 6 -97 4
-106 -7 -9 -11 -8 -17 6 -29 44 -39 110 -51 167 -30 73 26 168 31 314 17 89
-9 153 -20 167 -30 26 -17 151 -40 269 -50 44 -4 134 -13 200 -20 297 -34 426
-38 1006 -31 316 4 588 6 604 5 17 -1 176 0 355 1 360 3 606 3 1275 -4 266 -2
413 -1 360 4 -89 8 -203 22 -340 40 -274 38 -1074 54 -1440 30 -178 -12 -297
-12 -327 -1 -23 9 -25 17 -37 148 -7 76 -17 156 -21 178 -5 22 -14 94 -20 160
-6 66 -15 145 -20 175 -13 75 -27 231 -41 443 -12 189 -5 649 12 792 10 85 24
310 35 590 5 129 2 203 -10 305 -9 74 -16 163 -16 198 0 54 -2 62 -19 62 -10
0 -22 -7 -25 -15 -3 -9 -1 -87 5 -173 8 -106 9 -259 3 -472 -4 -173 -9 -355
-10 -405 -1 -49 -6 -171 -10 -270 -11 -276 -9 -603 5 -778 13 -155 8 -287 -10
-287 -5 0 -9 1 -9 3 -23 178 -30 267 -30 377 -1 74 -10 196 -20 270 -11 77
-28 308 -39 535 -11 220 -24 459 -31 530 -6 72 -13 158 -15 193 -3 35 -7 68
-11 73 -3 6 8 15 25 22 17 6 31 15 31 20 0 5 -16 24 -37 43 -32 30 -40 33 -78
27 -28 -3 -52 0 -73 11 -42 22 -120 20 -193 -4 -34 -12 -66 -19 -73 -17 -6 2
-24 0 -41 -5 -16 -5 -59 -13 -95 -19 -36 -6 -90 -15 -120 -20 -178 -31 -671
-54 -855 -41 -71 6 -159 7 -195 3 -36 -3 -96 -4 -135 -1 -38 3 -153 2 -255 -2
-102 -4 -279 -8 -395 -9 -178 -2 -218 0 -262 15 -51 17 -52 17 -82 -5 l-30
-22 -453 6 c-249 4 -498 12 -553 18 -96 11 -110 12 -165 11 -64 -1 -310 10
-310 13 0 2 11 20 24 39 13 20 41 79 61 133 21 54 41 102 45 107 8 8 186 17
355 17 44 0 105 5 135 10 74 12 736 19 846 9 51 -4 100 -4 118 2 40 12 611 7
881 -7 39 -3 120 -6 180 -9 61 -2 259 -12 440 -22 355 -19 1008 -22 1130 -6
110 15 172 48 243 131 34 39 62 75 62 80 0 5 25 36 55 70 30 34 55 68 55 75 0
8 6 19 14 25 23 19 64 -8 124 -82 l52 -65 10 -143 c13 -192 13 -346 -1 -354
-6 -4 -12 -5 -15 -3 -2 3 -8 106 -13 229 -5 123 -13 238 -18 254 -10 32 -46
47 -56 22 -3 -8 1 -79 9 -158 9 -97 13 -272 13 -534 0 -214 3 -399 7 -410 4
-11 15 -26 23 -33 14 -11 14 -14 -6 -28 -30 -22 -32 -74 -3 -81 24 -6 26 -19
3 -27 -14 -6 -15 -20 -9 -121 3 -63 4 -115 1 -115 -17 0 -35 68 -35 137 0 43
-7 134 -16 203 -10 78 -17 236 -19 417 -3 161 -9 349 -15 419 -5 70 -10 155
-10 189 0 66 -15 93 -46 81 -18 -7 -17 -40 6 -181 12 -75 14 -268 5 -495 -7
-191 5 -439 29 -601 31 -205 87 -555 102 -629 22 -112 33 -199 34 -255 0 -27
6 -68 14 -90 14 -42 15 -112 3 -133 -5 -6 -26 -12 -48 -12 -74 0 -61 -56 14
-62 l42 -3 1 -73 c2 -91 13 -182 25 -204 14 -25 65 -24 79 2 7 13 8 48 4 94
-4 41 -3 98 0 129 l7 54 77 6 c42 3 183 2 313 -2 194 -5 240 -10 261 -23 15
-10 29 -13 35 -7 5 5 32 5 68 0 33 -5 121 -15 195 -21 74 -6 167 -18 205 -26
39 -8 140 -19 225 -24 85 -5 196 -14 245 -20 50 -6 149 -15 220 -20 160 -10
203 -18 227 -42 23 -23 95 -24 126 -2 23 16 23 17 5 36 -49 54 -129 75 -348
89 -287 18 -537 46 -630 69 -22 5 -173 16 -335 25 -162 8 -320 19 -350 25 -36
7 -132 7 -275 2 -121 -4 -227 -5 -236 0 -24 11 -27 47 -28 291 -1 119 -6 229
-11 243 -6 14 -10 54 -10 90 0 36 -7 81 -15 100 -8 20 -12 41 -9 46 16 26 21
154 13 383 -4 138 -10 414 -14 615 -4 200 -9 368 -12 373 -10 16 -3 180 8 194
10 11 20 5 58 -30 40 -37 59 -46 136 -66 69 -17 104 -21 150 -16 76 9 255 70
317 108 49 29 167 151 185 190 6 12 24 51 41 87 17 36 51 110 75 165 24 55 62
132 83 170 22 39 56 104 76 145 20 41 52 102 72 135 20 33 39 71 43 84 3 13
24 55 46 95 22 39 68 123 102 186 34 63 69 129 78 145 9 17 17 35 17 42 0 6
22 62 49 125 27 62 52 138 56 168 4 30 14 66 22 79 21 32 9 81 -26 115 -27 26
-35 28 -89 24 -52 -4 -68 -10 -118 -49 -101 -77 -198 -180 -280 -299 -94 -137
-86 -123 -152 -248 -68 -129 -130 -210 -226 -296 -42 -38 -84 -83 -94 -100
-35 -65 -23 8 24 144 48 138 83 244 136 408 61 189 73 368 38 571 -25 148 -56
237 -125 368 -53 99 -89 151 -197 288 -57 72 -73 90 -121 133 -20 18 -37 37
-37 42 0 10 91 82 147 116 19 12 55 40 80 63 25 22 50 41 57 41 17 0 145 133
223 232 144 185 205 337 193 488 l-5 65 57 65 c40 46 64 86 83 137 30 80 37
85 145 98 104 12 222 47 253 75 26 23 28 29 18 49 -17 31 -70 61 -108 61 -17
0 -34 4 -37 8 -7 12 105 61 167 73 59 11 139 48 145 66 12 42 -118 92 -263
102 -64 5 -80 9 -83 23 -2 12 6 19 34 24 21 4 70 22 109 40 39 18 101 43 138
55 36 12 76 32 88 45 22 24 22 24 3 39 -59 47 -65 49 -155 48 -49 -1 -91 3
-94 8 -3 5 26 30 66 56 40 27 83 56 97 65 14 9 34 30 44 47 l20 30 -34 21
c-41 25 -87 34 -135 26 -21 -3 -66 -8 -101 -10 -34 -3 -77 -9 -95 -15 -84 -28
-261 -61 -272 -51 -10 8 -8 25 7 78 11 37 22 90 25 117 3 28 9 55 14 61 15 19
22 167 10 211 -17 63 -35 76 -96 71 -57 -5 -104 -32 -122 -70 -6 -12 -35 -75
-63 -138 -87 -191 -90 -198 -105 -210 -24 -20 -42 -4 -60 52 -10 29 -26 69
-36 88 -26 54 -32 103 -21 172 6 35 18 110 27 168 30 195 46 284 77 425 55
256 78 349 107 445 16 52 41 142 56 200 15 58 36 132 47 165 56 167 90 259
118 322 18 37 50 111 72 163 21 52 67 151 100 220 34 69 67 144 74 168 7 23
24 57 38 75 46 60 76 138 76 197 0 67 -23 155 -46 181 -33 37 -60 25 -109 -51
-26 -38 -71 -91 -101 -119 -47 -43 -60 -65 -63 -105 -1 -10 -122 -1 -185 14
-58 14 -322 35 -696 55 -58 3 -141 10 -185 15 -44 6 -228 10 -410 10 -181 0
-340 3 -352 6 -12 4 -40 34 -63 69 -23 35 -49 70 -57 77 -18 15 -181 226 -230
297 -17 25 -40 56 -51 67 -10 12 -30 37 -42 55 -13 19 -43 54 -66 79 -24 25
-87 94 -140 155 -53 60 -108 117 -123 126 -14 9 -48 38 -76 65 -78 76 -277
219 -373 268 -20 10 -52 31 -70 47 -18 16 -38 29 -46 29 -7 0 -73 31 -147 68
-74 38 -156 76 -184 86 -93 31 -185 56 -209 56 -14 0 -28 5 -31 10 -3 6 -12 9
-18 9 -7 -1 -25 -4 -42 -6z m109 -124 c90 -13 405 -150 466 -204 8 -7 42 -27
75 -45 33 -17 76 -41 96 -53 20 -12 58 -35 85 -51 96 -57 120 -74 244 -175 69
-57 156 -137 194 -179 37 -43 87 -98 110 -123 61 -67 120 -146 158 -211 18
-31 64 -103 102 -160 38 -57 96 -143 129 -193 33 -49 72 -103 87 -120 73 -81
225 -369 258 -490 11 -38 35 -106 55 -150 20 -44 54 -141 77 -215 23 -74 57
-181 76 -237 19 -56 34 -119 34 -141 0 -61 -28 -140 -55 -158 -16 -10 -25 -26
-25 -41 0 -15 -5 -23 -12 -21 -9 3 -12 26 -10 79 2 41 5 81 8 90 2 8 -3 24
-11 35 -24 31 -31 5 -38 -127 -6 -116 -12 -183 -42 -454 -8 -71 -19 -176 -24
-233 -9 -118 -32 -166 -32 -67 1 33 0 173 -2 310 -3 335 5 460 32 513 12 23
22 59 23 80 2 68 -14 236 -28 293 -8 31 -14 82 -14 112 0 64 -16 113 -58 182
-20 33 -41 95 -61 178 -33 135 -52 184 -83 205 -21 15 -75 98 -114 174 -15 29
-37 64 -49 78 -74 82 -95 109 -95 120 0 7 -15 33 -34 59 -18 25 -44 71 -57
101 -34 81 -60 123 -71 112 -11 -11 16 -118 35 -141 8 -9 39 -61 69 -116 58
-104 146 -233 204 -297 18 -21 48 -65 66 -99 18 -34 39 -71 45 -83 7 -12 13
-48 13 -81 0 -64 16 -107 69 -190 40 -62 66 -150 86 -282 17 -116 19 -199 6
-207 -12 -8 -64 52 -78 90 -6 16 -23 59 -37 96 -14 36 -26 86 -26 111 0 63
-17 107 -42 107 -19 0 -20 -4 -15 -67 15 -167 19 -331 9 -364 -6 -19 -14 -122
-17 -229 -4 -107 -11 -199 -15 -204 -8 -8 -30 31 -30 52 0 4 -7 18 -16 30 -12
18 -19 20 -30 11 -10 -8 -11 -16 -4 -29 6 -10 10 -33 10 -50 0 -18 15 -82 34
-144 18 -61 38 -155 45 -209 6 -54 16 -107 21 -117 9 -18 50 -182 91 -370 10
-47 24 -125 30 -175 11 -89 27 -125 57 -125 19 0 13 48 -26 220 -17 74 -38
169 -46 210 -34 167 -46 227 -58 278 -9 40 -9 65 0 103 7 28 12 65 12 82 0 63
86 422 106 437 21 18 23 0 14 -120 -5 -63 -11 -250 -14 -414 -5 -344 -2 -369
67 -521 24 -55 56 -136 70 -181 l26 -81 -15 -119 c-14 -114 -41 -240 -62 -295
-9 -22 -62 -233 -62 -245 0 -2 6 -4 14 -4 14 0 43 75 56 145 4 22 24 117 44
210 38 172 49 241 67 395 5 47 16 128 25 180 9 52 22 147 29 210 7 63 19 135
26 160 8 29 13 111 13 235 0 185 -1 191 -27 246 -15 31 -27 63 -27 71 0 30 48
143 61 143 23 0 30 -63 34 -289 3 -176 -1 -252 -16 -380 -33 -268 -38 -324
-44 -506 -5 -164 -23 -346 -46 -464 -5 -28 -17 -89 -25 -136 -29 -163 -106
-350 -253 -610 -33 -58 -69 -122 -81 -143 -11 -21 -42 -61 -68 -90 -26 -29
-67 -79 -92 -110 -30 -39 -46 -52 -48 -42 -4 18 47 107 92 161 52 63 153 288
135 300 -16 10 -43 -21 -74 -84 -16 -31 -39 -70 -52 -85 -13 -16 -23 -36 -23
-44 0 -9 -13 -37 -29 -62 -16 -25 -31 -58 -34 -72 -11 -44 -259 -261 -278
-242 -5 5 3 26 18 48 82 120 193 376 193 444 0 69 -76 57 -107 -17 -11 -26
-17 -32 -23 -22 -13 26 -29 162 -35 298 -7 175 -39 332 -126 622 -38 129 -74
242 -78 250 -14 26 -41 24 -41 -2 0 -13 -5 -29 -11 -35 -9 -9 2 -56 45 -190
32 -98 66 -199 77 -225 10 -26 19 -58 19 -71 0 -13 4 -37 10 -53 12 -37 33
-179 32 -223 -1 -19 4 -43 9 -53 6 -12 6 -18 0 -18 -13 0 -41 56 -74 145 -14
39 -36 95 -50 125 -13 30 -45 117 -71 193 -47 143 -59 224 -31 213 26 -10 18
46 -16 110 -17 32 -42 87 -55 121 -13 34 -44 101 -70 148 -53 98 -60 132 -75
365 -10 162 -42 400 -59 445 -12 30 -30 41 -41 24 -13 -20 -11 -85 5 -180 20
-115 25 -261 9 -266 -7 -3 -15 8 -18 24 -3 15 -15 56 -25 90 -17 55 -19 85
-15 265 4 199 4 205 -23 297 -34 116 -58 135 -48 40 3 -35 8 -109 11 -164 3
-55 7 -109 8 -120 1 -12 -4 -20 -13 -20 -9 0 -16 11 -18 30 -2 17 -12 39 -21
50 -25 28 -49 102 -73 220 -25 124 -33 145 -54 145 -32 0 -10 -111 64 -330 76
-225 141 -414 153 -445 99 -249 119 -303 119 -323 0 -30 -67 -61 -131 -62 -39
0 -49 4 -63 25 -9 14 -35 30 -63 39 -27 8 -66 24 -88 35 -21 12 -44 21 -51 21
-6 0 -19 9 -30 21 -33 36 -76 62 -113 69 -34 5 -36 8 -37 44 0 25 -9 49 -26
69 -39 49 -82 43 -193 -23 -145 -87 -196 -99 -471 -110 -129 -5 -240 -13 -247
-16 -48 -27 -74 -82 -47 -99 6 -3 10 -10 10 -15 0 -4 -68 -77 -151 -162 -143
-145 -246 -277 -307 -392 -35 -66 -66 -205 -58 -259 10 -62 34 -92 69 -83 39
9 84 77 96 144 31 167 54 243 94 313 46 79 171 252 204 282 40 35 139 90 208
114 77 26 77 27 185 43 41 7 107 18 145 25 121 23 236 36 364 40 l123 4 72
-36 c39 -19 81 -40 93 -47 27 -14 113 -95 113 -106 0 -4 -9 -59 -20 -121 -11
-63 -20 -117 -20 -121 0 -14 69 -48 99 -48 46 0 61 11 125 89 43 53 67 73 94
81 59 16 62 14 62 -37 0 -53 -6 -66 -32 -76 -25 -9 -22 -21 7 -37 22 -12 33
-11 75 2 28 9 52 13 54 9 2 -3 11 -40 20 -81 33 -159 66 -279 106 -380 23 -58
64 -165 91 -239 28 -74 66 -169 85 -212 19 -43 39 -102 44 -131 6 -29 23 -77
38 -107 36 -73 39 -174 5 -220 -13 -16 -23 -35 -23 -41 0 -6 -13 -28 -30 -48
-16 -20 -44 -57 -63 -82 -18 -25 -55 -62 -82 -82 -82 -62 -311 -168 -363 -168
-17 0 -64 -7 -106 -14 -42 -8 -160 -20 -263 -26 -104 -6 -203 -13 -221 -16
-35 -5 -157 -107 -180 -150 -7 -13 -34 -36 -60 -51 -26 -15 -75 -47 -110 -70
-44 -30 -74 -43 -97 -43 -19 0 -52 -6 -72 -14 -59 -22 -142 -27 -188 -11 -22
8 -58 15 -80 15 -24 0 -64 12 -100 30 -33 16 -65 30 -71 30 -5 0 -32 14 -60
31 -27 18 -62 36 -79 42 -16 5 -35 15 -40 22 -15 18 -91 55 -113 55 -10 0 -26
-6 -36 -13 -22 -16 -9 -29 49 -47 22 -7 99 -43 172 -81 174 -91 277 -119 443
-119 68 0 145 6 182 15 45 10 74 12 103 5 77 -18 151 -11 310 30 86 22 172 47
192 55 20 9 44 13 55 9 12 -3 18 0 18 10 0 23 38 44 137 78 48 16 106 40 129
53 22 13 74 37 115 54 41 16 110 46 154 66 58 27 88 35 109 31 25 -5 34 -1 57
26 21 25 30 30 39 22 9 -9 5 -16 -16 -30 -15 -11 -61 -53 -103 -95 -62 -63
-79 -75 -92 -66 -12 8 -38 7 -90 -3 -87 -16 -101 -24 -93 -56 5 -19 1 -26 -21
-34 -33 -12 -75 -13 -75 -1 0 5 12 19 28 31 l27 21 -25 -6 c-14 -4 -45 -20
-70 -35 -231 -148 -373 -218 -485 -240 -33 -7 -85 -19 -115 -27 -116 -31 -408
-83 -470 -83 -165 1 -531 97 -720 191 -25 12 -131 69 -237 127 -308 170 -500
335 -632 547 -97 155 -101 165 -101 237 0 35 -4 79 -10 97 -5 19 -10 130 -10
245 -2 296 -17 521 -45 638 -13 53 -28 105 -34 116 -6 12 -11 32 -11 46 0 29
-60 188 -74 198 -25 17 -23 -9 5 -85 17 -45 37 -107 44 -137 7 -30 24 -95 36
-145 22 -86 23 -109 24 -480 1 -214 5 -417 9 -450 7 -50 5 -63 -8 -74 -13 -11
-22 -11 -40 -3 -19 8 -31 33 -60 125 -44 142 -62 290 -47 400 2 14 19 7 26
-10 12 -30 34 -185 35 -244 0 -41 5 -64 19 -80 l19 -24 7 38 c4 21 4 59 1 85
-4 26 -8 67 -10 92 -9 138 -20 230 -33 265 -24 69 -32 120 -38 236 -4 63 -10
125 -16 139 -9 23 -23 85 -47 205 -16 74 -32 191 -32 225 0 16 -11 73 -24 127
-13 54 -27 110 -30 126 -6 24 -11 27 -47 27 -41 0 -41 0 -34 -32 4 -18 19 -62
32 -98 31 -79 67 -264 80 -410 3 -30 14 -66 23 -80 10 -14 23 -43 28 -65 24
-94 31 -340 13 -465 -27 -184 -5 -436 50 -559 10 -24 16 -47 13 -53 -3 -5 1
-17 8 -26 21 -25 60 -128 56 -148 -1 -9 -11 -22 -20 -28 -28 -17 -52 17 -108
153 l-50 123 -4 342 c-2 243 -8 373 -19 451 -25 173 -37 287 -37 352 0 81 -46
284 -68 301 -23 17 -25 6 -12 -64 6 -32 15 -108 20 -169 5 -60 16 -175 25
-255 9 -80 20 -179 25 -220 4 -41 6 -88 3 -105 -2 -16 2 -97 11 -179 8 -85 11
-157 6 -166 -4 -8 -6 -27 -3 -42 6 -30 -12 -74 -20 -48 -12 37 -47 422 -51
555 -2 86 -26 279 -47 395 -16 84 -29 195 -35 295 -3 50 -12 122 -21 160 -9
39 -17 86 -19 105 -11 98 -69 321 -101 383 -13 27 -12 31 12 63 50 65 11 83
-82 38 -61 -30 -79 -27 -34 6 23 16 31 29 31 52 0 39 30 80 86 118 41 29 61
70 34 70 -17 0 -72 -30 -104 -57 -35 -29 -119 -73 -141 -73 -20 0 -19 23 3 43
9 8 55 34 102 56 98 48 120 65 102 83 -9 9 -17 9 -34 0 -51 -25 -98 -40 -102
-33 -11 18 36 86 71 105 34 17 36 19 19 32 -14 10 -24 10 -38 3 -11 -6 -27 -8
-35 -5 -11 4 -39 -15 -84 -56 -75 -70 -133 -118 -143 -118 -13 0 -4 27 22 62
38 51 127 120 189 145 57 24 153 83 153 95 0 14 -26 8 -76 -17 -88 -45 -100
-28 -20 27 63 43 73 65 20 43 -21 -8 -44 -13 -52 -10 -23 9 4 33 82 72 78 39
166 99 166 114 0 18 -40 49 -63 49 -13 0 -32 9 -42 20 -17 19 -17 21 -1 39 11
12 14 21 7 26 -20 12 -11 31 27 54 l37 22 -35 -5 c-71 -11 -75 -11 -75 4 0 8
29 35 65 59 46 31 65 49 65 65 0 19 -5 21 -49 18 -76 -4 -116 -18 -175 -63
-52 -40 -75 -44 -55 -11 12 18 187 143 269 191 68 40 95 60 95 71 0 6 -29 10
-65 10 -36 0 -65 4 -65 8 0 14 43 49 90 72 61 30 112 69 105 81 -4 5 -24 6
-46 3 l-40 -7 3 38 c3 42 2 41 110 89 61 27 76 38 72 51 -4 11 -12 14 -23 9
-9 -4 -34 -8 -56 -8 -70 -1 -55 53 28 95 53 28 49 49 -10 49 -68 0 -79 11 -46
41 16 14 49 38 76 53 26 15 47 31 47 36 0 5 -13 19 -30 32 -16 12 -30 26 -30
30 0 5 19 30 43 56 24 26 53 61 66 79 35 51 267 278 329 323 410 292 489 347
563 388 30 17 64 41 75 53 10 12 44 38 74 59 30 21 75 59 100 85 107 110 381
214 638 241 35 3 95 12 135 19 76 14 226 12 351 -6z m3922 -1441 c-4 -28 -14
-65 -22 -81 -9 -16 -23 -53 -31 -81 -8 -28 -28 -76 -43 -106 -15 -30 -31 -66
-35 -80 -9 -31 -78 -189 -110 -250 -13 -25 -39 -90 -59 -145 -19 -55 -51 -145
-71 -200 -88 -241 -187 -569 -225 -745 -35 -167 -100 -406 -117 -433 -3 -5
-10 -4 -15 1 -14 14 19 383 41 467 11 39 36 144 56 235 21 94 75 279 126 432
49 147 89 273 89 280 0 7 8 29 18 48 11 19 22 48 26 65 11 43 140 353 167 400
82 143 160 243 193 244 17 1 18 -4 12 -51z m-1326 -73 c85 -3 202 -8 260 -10
58 -3 177 -7 265 -10 88 -3 180 -10 205 -15 41 -8 199 -29 261 -34 32 -3 49
-13 49 -30 0 -7 -18 -51 -39 -97 -22 -46 -50 -123 -64 -170 -14 -47 -34 -103
-44 -125 -11 -21 -25 -61 -32 -88 -7 -27 -20 -65 -30 -85 -11 -20 -29 -78 -42
-129 -18 -74 -20 -95 -10 -101 9 -6 8 -10 -6 -13 -12 -4 -24 -25 -35 -64 -9
-33 -28 -95 -42 -140 -31 -102 -72 -290 -80 -368 -10 -88 -15 -91 -97 -49 -38
19 -72 41 -77 48 -5 9 -54 14 -177 18 -191 6 -353 30 -373 55 -7 9 -17 35 -23
57 -6 22 -29 83 -51 135 -22 52 -42 118 -45 145 -3 28 -16 85 -29 128 -13 43
-24 91 -24 106 0 16 -7 48 -15 71 -20 57 -19 65 10 78 22 10 24 15 15 32 -6
11 -37 39 -70 62 -33 23 -60 47 -60 52 0 6 -16 34 -36 63 -60 88 -69 85 269
82 160 -1 310 -7 332 -12 22 -6 101 -12 175 -13 167 -3 215 -7 310 -28 99 -21
146 -21 154 1 11 27 -28 58 -77 60 -182 8 -380 24 -390 30 -7 4 -199 8 -427 8
l-415 0 -48 95 c-26 52 -55 113 -64 135 -9 22 -27 52 -41 67 -44 48 -27 57 90
53 57 -2 141 0 188 5 47 4 117 6 155 4 39 -2 140 -6 225 -9z m-580 -319 c-1
-21 -1 -21 -15 -2 -21 27 -20 53 0 36 8 -7 15 -22 15 -34z m94 -301 c-8 -20
-21 -19 -33 4 -13 23 -4 33 20 20 10 -5 16 -16 13 -24z m106 0 c0 -8 -4 -15
-9 -15 -13 0 -22 16 -14 24 11 11 23 6 23 -9z m-29 -51 c11 -14 10 -15 -11
-12 -13 1 -25 9 -28 16 -5 17 23 15 39 -4z m49 -60 c0 -14 -3 -14 -15 -4 -8 7
-15 14 -15 16 0 2 7 4 15 4 8 0 15 -7 15 -16z m-33 -62 c6 -10 11 -43 11 -73
l0 -54 -16 35 c-8 19 -21 48 -29 64 -20 43 9 67 34 28z m-4927 -183 c0 -15
-98 -60 -105 -48 -8 12 -9 11 41 49 28 21 42 26 51 18 7 -6 13 -14 13 -19z
m4600 -61 c12 -24 40 -64 61 -90 60 -72 66 -91 40 -126 -12 -17 -24 -45 -28
-64 -3 -18 -11 -44 -18 -58 -6 -14 -22 -63 -34 -110 -12 -47 -29 -110 -38
-140 -9 -30 -17 -61 -19 -67 -2 -7 -13 -13 -25 -13 -18 0 -20 4 -15 28 3 15
10 131 16 257 12 302 21 425 29 425 4 0 18 -19 31 -42z m-4610 -15 c0 -9 -112
-93 -148 -112 -13 -7 -26 -10 -29 -7 -7 6 57 72 99 102 32 22 78 32 78 17z
m4898 -476 c3 -50 3 -51 -22 -41 -17 6 -20 33 -10 72 10 37 29 19 32 -31z
m-5318 -60 c-12 -40 -7 -57 14 -57 8 0 19 -7 26 -15 11 -13 8 -15 -15 -15 -27
0 -27 -1 -21 -52 3 -29 5 -86 5 -126 0 -54 4 -79 15 -91 15 -16 13 -25 -24
-108 -35 -80 -39 -94 -29 -122 9 -25 16 -31 40 -31 23 0 29 -4 30 -22 0 -15
16 -36 45 -58 25 -19 56 -44 68 -55 13 -12 38 -21 60 -21 34 -1 41 3 76 52 22
29 44 55 48 58 10 6 22 -63 22 -128 1 -58 33 -200 74 -319 36 -105 77 -253
103 -367 13 -60 36 -164 78 -350 9 -41 26 -97 37 -123 17 -40 20 -60 14 -120
-4 -49 -1 -93 8 -137 16 -70 74 -241 94 -277 7 -12 12 -30 12 -40 0 -11 7 -28
15 -39 8 -10 15 -26 15 -34 1 -41 110 -236 149 -266 13 -10 12 -22 -7 -90 -31
-119 -40 -163 -46 -229 -6 -73 -55 -211 -128 -362 -44 -90 -57 -109 -69 -102
-12 6 -26 -6 -60 -53 -56 -77 -62 -56 -19 63 44 119 46 128 24 144 -17 12 -19
28 -19 132 0 65 -3 123 -7 128 -4 6 -9 40 -13 75 -3 36 -17 103 -31 150 -14
47 -30 101 -36 121 -13 46 -7 65 49 147 57 82 73 120 73 171 0 47 -14 54 -55
29 -16 -10 -39 -18 -51 -18 -12 0 -42 -16 -67 -35 -56 -43 -62 -37 -71 75 -24
307 -108 634 -230 900 -24 52 -58 136 -76 185 -18 50 -56 149 -85 220 -29 72
-56 141 -60 155 -4 14 -11 30 -16 35 -4 6 -19 54 -33 105 -13 52 -38 138 -54
191 -64 203 -64 437 -1 581 17 40 41 96 53 123 11 28 35 68 51 89 l30 40 3
-35 c2 -19 -1 -51 -8 -72z m308 81 c-5 -15 -87 -66 -107 -67 -11 -1 -10 4 4
19 10 11 24 20 31 20 7 0 18 9 24 20 11 21 54 28 48 8z m5454 -141 c18 -25 77
-103 130 -174 72 -95 118 -169 178 -291 l82 -163 14 -147 c10 -109 11 -190 4
-312 -13 -234 -17 -250 -69 -250 -13 0 -82 -18 -153 -41 -118 -37 -244 -68
-275 -69 -22 0 -14 27 12 44 13 9 66 56 118 106 56 53 112 97 140 109 44 19
66 49 52 71 -9 14 -53 5 -127 -26 -32 -13 -69 -24 -83 -24 -14 0 -44 -9 -66
-20 -22 -12 -51 -25 -64 -30 -87 -33 75 114 242 220 56 36 103 68 103 73 0 12
-49 8 -104 -8 -28 -8 -78 -21 -111 -29 -33 -8 -79 -21 -102 -27 -47 -14 -58
-10 -48 20 6 21 126 114 161 125 11 3 44 24 73 45 28 21 65 44 81 51 17 7 30
19 30 26 0 20 -40 17 -85 -7 -37 -19 -209 -79 -227 -79 -38 0 81 189 136 215
42 20 136 86 136 95 0 5 -4 11 -9 15 -12 7 -124 -30 -156 -51 -12 -8 -27 -14
-31 -13 -5 2 -34 -5 -63 -14 -83 -26 -86 -8 -10 64 35 34 85 75 112 91 51 32
66 65 22 48 -14 -5 -38 -16 -55 -25 -54 -28 -110 -15 -110 25 0 9 29 67 65
130 36 63 65 116 65 118 0 2 -13 2 -30 0 -27 -4 -30 -2 -36 31 -10 64 -14 71
-40 71 -21 0 -24 -4 -24 -39 0 -24 9 -51 25 -75 14 -20 25 -42 25 -48 0 -6
-25 -58 -55 -114 -30 -57 -55 -107 -55 -112 0 -5 18 -17 40 -27 22 -10 40 -22
40 -26 0 -4 -38 -54 -85 -111 -73 -88 -98 -128 -81 -128 6 0 137 59 168 76 57
31 82 9 45 -39 -40 -53 -117 -181 -117 -194 0 -8 13 -13 34 -13 19 0 37 -3 39
-7 3 -5 -11 -26 -30 -48 -48 -56 -123 -156 -123 -165 0 -13 82 -19 133 -9 53
10 72 5 60 -15 -21 -33 -205 -198 -214 -189 -34 34 -34 554 0 760 11 65 25
147 31 183 6 36 19 97 29 135 11 39 24 99 29 135 14 84 41 211 49 223 7 11 80
-68 135 -146z m144 133 c38 -6 114 -15 169 -19 118 -11 187 -25 221 -48 24
-15 25 -21 21 -77 -4 -70 -35 -265 -44 -279 -3 -5 -25 -6 -50 -2 -25 4 -67 8
-93 10 -62 5 -78 16 -123 84 -20 31 -86 116 -147 190 -60 73 -110 135 -110
137 0 10 46 23 66 19 12 -3 52 -9 90 -15z m-371 -9 c3 -5 1 -12 -5 -16 -5 -3
-10 1 -10 9 0 18 6 21 15 7z m-232 -99 c6 -30 -13 -125 -32 -161 -7 -12 -10
-29 -7 -37 3 -8 -1 -14 -10 -14 -14 0 -15 10 -10 63 15 147 45 222 59 149z
m73 -200 c-3 -136 -36 -382 -77 -582 -18 -87 -21 -89 -39 -31 -12 39 -15 65
-9 95 5 23 8 65 9 95 0 29 7 92 15 140 8 47 22 131 30 186 27 171 50 259 66
250 4 -3 6 -72 5 -153z m-1506 128 c0 -5 -2 -10 -4 -10 -3 0 -8 5 -11 10 -3 6
-1 10 4 10 6 0 11 -4 11 -10z m1105 -65 c0 -10 -4 -20 -10 -22 -5 -1 -10 8
-10 22 0 14 5 24 10 22 6 -2 10 -12 10 -22z m-4625 -66 c0 -5 -7 -9 -15 -9
-15 0 -20 12 -9 23 8 8 24 -1 24 -14z m47 -131 c7 -18 17 -53 23 -78 7 -24 25
-70 40 -101 22 -43 31 -80 39 -157 6 -55 15 -120 20 -144 6 -23 17 -108 26
-188 9 -80 23 -187 31 -238 19 -124 18 -158 -3 -166 -21 -9 -29 6 -37 68 -14
109 -39 223 -57 263 -11 24 -19 46 -19 49 0 3 -6 20 -14 37 -17 39 -55 257
-61 352 -20 318 -18 388 12 303z m5863 -33 c10 -12 11 -40 5 -113 -4 -53 -8
-113 -10 -132 -4 -66 -5 -67 -15 -48 -6 9 -31 68 -56 130 -25 62 -54 122 -65
134 -34 36 -25 44 55 44 54 0 77 -4 86 -15z m-6531 -162 c0 -93 5 -160 16
-207 9 -37 14 -73 12 -80 -6 -14 20 -78 35 -87 7 -4 19 -4 29 1 15 9 15 15 -1
102 -9 51 -21 102 -25 112 -6 13 -5 17 3 12 12 -7 20 -34 77 -251 47 -177 82
-304 105 -380 10 -33 28 -94 40 -135 25 -89 29 -101 81 -249 22 -63 49 -131
60 -152 28 -55 102 -252 127 -334 25 -87 39 -162 52 -290 21 -203 26 -227 46
-242 17 -13 24 -9 79 51 65 69 90 86 129 86 31 0 33 -18 6 -53 -11 -14 -20
-29 -20 -34 0 -5 -15 -27 -34 -49 -18 -21 -45 -61 -59 -88 -25 -47 -25 -50
-10 -85 38 -89 55 -158 69 -281 3 -30 9 -73 12 -95 24 -142 -19 -381 -96 -534
-94 -188 -310 -378 -589 -519 -34 -17 -70 -35 -80 -41 -86 -45 -199 -89 -308
-118 -155 -41 -201 -48 -209 -35 -13 21 124 275 241 445 55 80 158 282 168
327 4 19 18 64 32 100 37 95 41 200 14 353 -12 67 -26 138 -31 157 -10 42 -71
210 -95 265 -10 22 -28 65 -41 95 -13 30 -39 90 -59 134 -19 43 -47 124 -62
180 -24 93 -26 118 -28 323 -2 148 2 243 11 285 12 60 25 131 45 244 5 28 15
67 24 86 8 20 23 85 34 144 17 94 82 423 111 564 5 25 16 98 24 162 8 64 20
136 26 158 12 43 31 90 37 90 2 0 3 -62 2 -137z m566 110 c-3 -16 -9 -48 -13
-73 -7 -45 -7 -45 -49 -48 -36 -3 -43 0 -43 15 0 22 21 55 63 101 38 39 52 41
42 5z m-215 -120 c0 -14 -19 -38 -25 -32 -8 8 5 39 16 39 5 0 9 -3 9 -7z m20
-73 c0 -5 -4 -10 -10 -10 -5 0 -10 5 -10 10 0 6 5 10 10 10 6 0 10 -4 10 -10z
m6677 -211 c37 -14 43 -25 43 -82 0 -79 -58 -337 -76 -337 -7 0 -20 21 -29 48
-18 49 -36 90 -60 132 -22 37 -18 88 11 150 25 53 60 100 75 100 4 0 20 -5 36
-11z m-448 -154 c27 -72 184 -519 233 -663 9 -26 9 -38 0 -53 -16 -26 -15 -46
3 -53 8 -3 15 -18 15 -33 0 -25 -1 -26 -13 -8 -15 19 -37 13 -37 -11 0 -8 -4
-14 -8 -14 -8 0 -27 79 -37 160 -4 25 -15 77 -25 115 -10 39 -23 102 -30 140
-7 39 -21 97 -32 130 -40 118 -59 171 -75 208 -15 36 -17 36 -30 17 -30 -43
-39 -24 -41 86 -2 58 0 110 4 115 9 15 35 -33 73 -136z m4 -238 c16 -67 35
-142 43 -166 8 -25 14 -54 14 -65 0 -12 11 -67 23 -123 l24 -103 -23 0 c-29 0
-35 11 -39 63 -1 23 -10 65 -19 92 -64 189 -69 212 -74 318 -4 87 -2 107 9
107 10 0 23 -39 42 -123z m335 45 c19 -44 80 -255 115 -402 20 -81 37 -194 36
-240 0 -19 2 -80 5 -135 4 -55 3 -127 -1 -160 l-8 -60 -49 -8 c-27 -4 -53 -4
-58 1 -5 5 -11 40 -14 78 -8 108 -60 333 -121 524 -67 210 -71 237 -48 293 36
88 70 162 79 175 13 18 39 -9 64 -66z m-407 -10 c-2 -57 57 -350 99 -485 35
-114 51 -219 61 -415 7 -132 7 -215 0 -259 -5 -36 -11 -66 -13 -67 -2 0 -61
-31 -133 -68 -253 -129 -455 -210 -455 -181 0 20 101 153 141 185 22 18 58 50
78 70 24 23 92 62 182 106 151 72 179 91 179 123 0 28 -46 25 -111 -10 -129
-68 -231 -115 -322 -147 -115 -39 -107 -38 -107 -20 0 8 19 29 43 47 43 34 80
65 186 158 35 30 84 62 109 71 90 32 127 54 127 75 0 14 -8 21 -27 23 -25 3
-67 -11 -276 -93 -49 -20 -67 -23 -83 -14 -11 6 -19 16 -17 22 6 18 162 121
246 163 87 43 183 127 165 145 -9 9 -20 9 -44 0 -17 -6 -37 -11 -44 -11 -8 0
-15 59 -24 193 -10 169 -10 202 4 277 9 47 19 107 22 133 8 65 17 51 14 -21z
m1089 -90 c0 -14 -31 -52 -43 -52 -7 0 -25 -14 -40 -30 -16 -15 -59 -44 -95
-63 -56 -29 -81 -35 -154 -40 -48 -3 -96 -11 -107 -16 -11 -6 -37 -11 -59 -11
-39 0 -39 0 -55 57 -8 32 -14 59 -12 61 10 11 288 64 340 66 34 1 67 6 75 11
32 20 150 33 150 17z m-1916 -17 c4 -10 -1 -15 -16 -15 -17 0 -18 2 -8 15 7 8
14 15 15 15 2 0 5 -7 9 -15z m270 -14 c3 -4 -3 -16 -14 -26 -11 -10 -20 -23
-20 -30 0 -6 -13 -24 -30 -40 -16 -16 -42 -46 -57 -67 -15 -22 -39 -46 -55
-54 l-28 -15 0 51 c0 28 -5 60 -11 71 -5 11 -8 28 -5 37 5 16 23 25 136 68 41
15 77 18 84 5z m-272 -58 c2 -10 -5 -85 -16 -168 -18 -125 -24 -150 -38 -153
-22 -4 -22 6 -3 123 8 50 15 107 15 127 0 65 31 116 42 71z m706 -124 l-3 -74
-36 -6 c-20 -3 -58 -18 -84 -34 -49 -28 -155 -69 -275 -106 -36 -11 -75 -25
-87 -31 -32 -16 -46 -2 -29 30 20 38 195 201 224 209 14 3 61 21 106 41 98 42
168 62 179 52 4 -4 7 -40 5 -81z m-5550 5 c2 -56 -12 -44 -23 20 -6 31 -5 38
6 34 9 -3 15 -23 17 -54z m6760 -50 c36 -10 20 -27 -38 -40 -30 -7 -83 -26
-119 -43 -36 -17 -99 -40 -139 -51 -52 -15 -77 -28 -88 -45 -16 -25 -39 -30
-81 -19 -27 7 -46 61 -41 114 3 34 4 35 73 53 39 9 88 21 110 26 47 10 289 14
323 5z m-1668 -25 c0 -6 -21 -36 -46 -67 -26 -31 -51 -67 -57 -79 -19 -42 -45
-28 -56 30 -11 55 -14 84 -12 104 1 8 25 13 69 16 37 2 75 4 85 5 9 1 17 -3
17 -9z m444 -71 c11 -15 16 -45 16 -90 0 -59 -2 -68 -18 -68 -10 0 -38 -9 -62
-21 -31 -15 -262 -67 -307 -69 -2 0 -3 8 -3 19 0 19 93 90 219 166 18 11 54
35 79 53 26 17 50 32 54 32 4 0 14 -10 22 -22z m317 -122 c11 -25 24 -66 30
-93 15 -68 26 -203 17 -203 -5 0 -8 8 -8 18 0 10 -8 48 -19 83 -32 114 -59
228 -53 234 10 9 13 5 33 -39z m-661 -15 c0 -10 -17 -29 -38 -44 -21 -13 -60
-44 -87 -67 l-49 -43 -17 40 c-9 22 -20 53 -23 70 l-7 30 103 15 c57 8 106 16
111 17 4 0 7 -7 7 -18z m1553 -36 c71 -14 57 -45 -31 -70 -32 -9 -102 -29
-157 -45 -55 -16 -137 -32 -181 -36 l-82 -6 -11 51 c-18 86 -12 101 45 110 52
9 369 6 417 -4z m-2023 -122 c-30 -72 -44 -86 -53 -53 -7 27 -24 26 -32 -2
-22 -81 -62 -137 -79 -110 -4 7 50 123 80 170 18 27 72 62 96 62 15 0 14 -8
-12 -67z m142 -32 c25 -87 27 -121 8 -121 -16 0 -80 139 -80 172 0 39 7 50 29
46 11 -2 25 -35 43 -97z m1166 52 c11 -33 0 -56 -18 -37 -11 13 -20 70 -13 78
9 9 18 -4 31 -41z m-558 13 c0 -12 -38 -39 -200 -141 -44 -29 -160 -134 -160
-146 0 -16 87 -10 162 11 77 21 138 26 138 11 0 -6 -26 -30 -58 -54 -32 -25
-88 -79 -126 -121 -37 -42 -72 -76 -76 -76 -11 0 -25 48 -40 135 -7 39 -17 78
-22 88 -10 18 -58 209 -58 228 0 5 20 9 44 9 63 0 328 47 394 69 1 1 2 -5 2
-13z m-557 -77 c3 -13 1 -19 -6 -16 -15 5 -22 37 -9 37 5 0 12 -9 15 -21z
m1038 -12 c-8 -8 -11 -7 -11 4 0 9 3 19 7 23 4 4 9 2 11 -4 3 -7 -1 -17 -7
-23z m99 -153 c5 -76 10 -219 11 -317 1 -154 -1 -181 -15 -195 -15 -16 -16
-14 -16 28 1 61 -1 80 -16 190 -19 128 -9 469 13 447 9 -9 17 -58 23 -153z
m535 112 c18 -8 38 -23 44 -34 9 -18 5 -22 -41 -42 -36 -16 -57 -19 -71 -13
-15 7 -25 5 -37 -7 -18 -18 -132 -36 -151 -24 -6 3 -8 17 -5 29 5 18 1 25 -15
30 -36 12 -17 38 41 56 69 21 189 24 235 5z m-1741 -72 c44 -75 64 -129 52
-141 -19 -20 -126 136 -126 184 0 55 26 40 74 -43z m476 -4 c0 -5 -7 -10 -15
-10 -8 0 -15 5 -15 10 0 6 7 10 15 10 8 0 15 -4 15 -10z m-366 -60 c20 -50 20
-60 1 -60 -15 0 -26 20 -39 73 -10 44 19 34 38 -13z m-236 -67 c2 -55 -1 -93
-7 -93 -5 0 -19 12 -30 26 -22 28 -25 61 -14 127 5 31 9 38 27 35 19 -3 21
-10 24 -95z m-192 12 c-14 -20 -28 -45 -31 -56 -7 -20 -35 -27 -35 -9 0 18 41
93 64 118 20 23 21 23 24 4 2 -11 -8 -36 -22 -57z m1378 23 c17 -81 21 -626 7
-750 -4 -30 -135 -138 -168 -138 -22 0 -15 30 45 193 61 163 80 283 89 545 5
156 15 209 27 150z m-1090 -42 c53 -58 75 -117 80 -219 5 -78 3 -97 -8 -97
-26 0 -35 27 -42 123 -7 96 -24 145 -24 69 0 -48 -10 -102 -19 -102 -18 0 -39
59 -36 100 2 25 4 69 4 98 1 58 11 64 45 28z m1393 -22 c-7 -41 -45 -124 -57
-124 -12 0 -18 26 -22 89 -3 51 -1 55 22 62 55 16 63 12 57 -27z m-1219 -24
c3 -30 2 -32 -12 -21 -19 16 -22 65 -3 59 6 -3 13 -20 15 -38z m-373 -93 c0
-52 -19 -51 -23 2 -2 32 0 42 10 39 8 -3 13 -20 13 -41z m-55 6 c0 -20 -3 -24
-11 -16 -7 7 -9 19 -6 27 10 24 17 19 17 -11z m-185 -42 c5 -10 -93 -139 -138
-179 -18 -17 -27 -20 -32 -11 -5 7 0 18 12 28 11 9 44 51 73 94 51 73 71 89
85 68z m322 -23 c18 -17 23 -32 23 -70 0 -52 -4 -56 -36 -33 -22 15 -39 81
-28 109 8 21 13 20 41 -6z m564 -3 c71 7 85 0 52 -26 -25 -21 -100 -141 -122
-195 -23 -58 -24 -55 -40 103 -12 117 -9 138 21 122 13 -7 46 -8 89 -4z m-737
-16 c14 -7 23 -16 20 -20 -9 -15 -30 -10 -55 11 -20 16 -21 19 -7 20 9 0 28
-5 42 -11z m480 -71 c22 -35 38 -106 31 -139 -5 -22 -12 -29 -31 -29 -19 0
-29 8 -40 35 -14 35 -20 136 -7 148 13 13 33 7 47 -15z m800 14 c5 -8 -5 -58
-25 -135 -8 -31 -18 -41 -62 -63 -29 -14 -66 -37 -84 -50 -17 -13 -36 -24 -41
-24 -5 0 -29 -17 -53 -39 -24 -21 -58 -45 -74 -54 -17 -8 -49 -33 -72 -55 -23
-22 -65 -56 -95 -75 -29 -18 -79 -62 -111 -97 -61 -68 -86 -73 -49 -10 12 21
22 55 22 74 0 41 15 86 30 86 5 0 10 -13 10 -30 0 -16 5 -30 11 -30 9 0 10 33
6 118 -3 64 -7 126 -9 136 -3 20 -2 21 147 64 131 39 190 63 310 126 130 69
131 70 139 58z m-1289 -74 c39 -58 44 -81 18 -76 -21 4 -63 74 -63 106 0 12 2
22 5 22 2 0 20 -24 40 -52z m95 26 c0 -8 -4 -14 -10 -14 -5 0 -10 9 -10 21 0
11 5 17 10 14 6 -3 10 -13 10 -21z m199 -98 c1 -48 -1 -56 -13 -47 -18 15 -28
119 -13 145 11 20 11 20 18 -9 4 -16 7 -56 8 -89z m-699 54 c0 -5 -5 -10 -11
-10 -5 0 -7 5 -4 10 3 6 8 10 11 10 2 0 4 -4 4 -10z m-5299 -31 c29 -52 111
-302 128 -389 24 -123 25 -131 23 -233 -2 -71 -4 -80 -32 -108 -30 -32 -35
-50 -44 -152 -6 -78 -47 -161 -110 -227 -29 -30 -62 -70 -72 -87 -19 -35 -44
-44 -44 -17 0 9 -9 27 -20 41 -11 14 -20 35 -20 47 0 24 -96 304 -110 321 -9
11 -56 138 -67 180 -2 11 -8 29 -13 40 -4 11 -18 45 -30 75 -12 30 -44 100
-70 155 -27 55 -60 131 -75 170 -14 38 -33 77 -42 87 -35 39 1 62 120 73 l77
7 0 -51 c0 -46 3 -53 26 -61 60 -23 84 -14 156 59 61 62 74 71 116 76 26 3 54
8 62 9 22 5 33 1 41 -15z m5639 0 c19 -34 18 -103 -1 -107 -31 -6 -51 27 -45
77 2 25 5 47 5 49 3 11 33 -2 41 -19z m260 -43 c-14 -14 -40 13 -40 41 l0 24
24 -28 c15 -16 21 -32 16 -37z m-540 36 c0 -14 -56 -63 -63 -55 -4 3 5 19 20
35 27 28 43 35 43 20z m201 -5 c-1 -12 -15 -9 -19 4 -3 6 1 10 8 8 6 -3 11 -8
11 -12z m-5826 -7 c10 -16 -15 -40 -41 -40 -30 0 -31 14 -2 34 26 19 35 20 43
6z m1881 -51 c16 -34 39 -76 52 -92 38 -52 24 -71 -33 -45 -18 8 -36 33 -56
76 -32 71 -35 92 -17 110 19 19 23 16 54 -49z m4434 -9 c0 -61 -14 -81 -26
-35 -8 31 3 95 16 95 6 0 10 -27 10 -60z m-4325 30 c3 -10 33 -49 66 -85 60
-67 70 -85 45 -85 -24 0 -136 145 -136 178 0 19 18 14 25 -8z m4085 -16 c4
-10 4 -28 0 -39 -6 -18 -9 -17 -24 13 -17 32 -14 56 6 50 6 -2 14 -13 18 -24z
m-282 -17 c2 -10 -4 -20 -13 -23 -21 -9 -28 0 -20 26 8 24 28 22 33 -3z m-158
-7 c0 -5 -5 -10 -11 -10 -5 0 -7 5 -4 10 3 6 8 10 11 10 2 0 4 -4 4 -10z m350
-52 c0 -37 -13 -57 -25 -37 -4 6 -4 31 0 56 8 54 25 41 25 -19z m1440 -20 c0
-18 -2 -20 -9 -8 -6 8 -7 18 -5 22 9 14 14 9 14 -14z m-1640 -130 l0 -90 -22
14 c-63 42 -85 128 -47 188 l21 34 24 -27 c21 -25 24 -38 24 -119z m1410 137
c0 -3 -9 -23 -20 -45 -11 -22 -20 -50 -20 -64 0 -46 -51 -89 -142 -121 -46
-15 -115 -43 -154 -62 -67 -31 -144 -44 -144 -24 0 5 15 18 33 30 43 28 90 64
181 139 42 34 79 62 83 62 5 0 39 21 77 45 61 39 106 56 106 40z m-1300 -52
l-1 -48 -24 28 c-33 37 -33 67 0 67 23 0 25 -3 25 -47z m270 27 c0 -11 -2 -20
-4 -20 -2 0 -11 -3 -20 -6 -11 -4 -16 0 -16 13 0 23 8 33 27 33 7 0 13 -9 13
-20z m-600 -5 c0 -8 -7 -15 -15 -15 -16 0 -20 12 -8 23 11 12 23 8 23 -8z
m490 -36 c0 -31 -9 -36 -28 -17 -13 13 -16 50 -5 61 12 13 33 -15 33 -44z
m388 29 c16 -20 40 -101 35 -115 -10 -26 -34 -12 -53 30 -11 23 -20 51 -20 63
0 33 19 45 38 22z m772 -24 c0 -16 -16 -19 -25 -4 -8 13 4 32 16 25 5 -4 9
-13 9 -21z m-1890 -37 c0 -14 -110 -59 -127 -53 -14 6 -13 9 7 23 77 54 119
65 120 30z m1010 -119 c0 -24 3 -53 6 -65 5 -17 2 -23 -10 -23 -20 0 -36 38
-36 84 0 27 -4 32 -22 32 -19 -1 -24 5 -26 32 -6 65 5 71 49 25 33 -35 39 -49
39 -85z m-360 71 c0 -20 -15 -26 -25 -9 -9 15 3 43 15 35 5 -3 10 -15 10 -26z
m685 21 c3 -5 1 -10 -4 -10 -6 0 -11 5 -11 10 0 6 2 10 4 10 3 0 8 -4 11 -10z
m-1020 -47 c32 -35 32 -47 0 -39 -28 7 -33 -5 -10 -24 17 -15 20 -36 4 -45
-10 -7 -78 62 -79 80 0 7 47 53 57 55 1 0 14 -12 28 -27z m-3656 -89 c61 -80
98 -111 243 -205 21 -13 38 -28 38 -32 0 -5 -20 -34 -44 -65 -45 -58 -71 -127
-60 -157 6 -14 11 -12 38 14 66 64 152 131 169 131 17 0 179 -78 267 -130 25
-14 120 -62 213 -105 92 -43 167 -82 167 -85 0 -16 -29 -29 -70 -32 -40 -3
-46 0 -58 25 -18 36 -47 35 -67 -4 -14 -26 -21 -30 -53 -27 l-37 3 1 53 c1 28
0 52 -3 52 -23 0 -62 -39 -74 -73 -17 -52 -49 -64 -49 -19 0 16 7 35 15 42 14
12 12 30 -4 30 -4 0 -16 -19 -27 -41 -10 -23 -24 -48 -32 -55 -15 -16 -68 -19
-77 -4 -3 5 6 36 20 69 29 70 30 81 10 81 -9 0 -28 -28 -46 -69 -25 -55 -37
-72 -60 -80 -33 -11 -59 -5 -59 13 0 7 27 51 59 99 62 89 63 97 6 97 -16 0
-30 -11 -44 -35 -11 -20 -27 -38 -36 -41 -8 -4 -15 -14 -15 -23 -1 -29 -48
-126 -62 -126 -23 0 -10 75 27 153 37 78 44 112 22 112 -18 0 -40 -25 -65 -75
-12 -22 -49 -83 -84 -135 l-63 -95 -65 -9 c-36 -4 -92 -9 -125 -10 -57 -1 -60
0 -57 22 1 13 22 48 47 77 40 47 59 95 37 95 -10 0 -39 -28 -81 -80 -32 -38
-55 -36 -27 2 74 102 77 108 52 108 -16 0 -93 -99 -148 -188 -30 -50 -43 -62
-75 -71 -40 -12 -113 -15 -113 -5 0 3 11 20 24 37 36 48 153 263 233 427 55
112 72 158 76 203 4 37 16 77 35 112 31 56 29 71 -3 35 -24 -27 -38 -15 -31
28 11 71 35 62 115 -44z m2356 86 c22 -9 23 -8 -44 -29 -43 -14 -41 -14 -41 8
0 12 8 21 23 24 34 7 40 6 62 -3z m402 4 c-3 -3 -12 -4 -19 -1 -8 3 -5 6 6 6
11 1 17 -2 13 -5z m1323 -39 c21 -22 22 -27 10 -57 -7 -18 -17 -37 -21 -42
-11 -13 -39 55 -39 94 0 37 18 39 50 5z m-188 3 c9 -24 -4 -99 -16 -95 -12 4
-21 70 -12 93 7 17 22 18 28 2z m-559 -52 c4 -10 1 -13 -9 -9 -7 3 -14 9 -14
14 0 14 17 10 23 -5z m251 -32 c59 -67 59 -68 46 -142 -18 -93 -25 -100 -67
-60 -56 54 -76 94 -69 136 10 64 27 112 38 112 6 0 29 -21 52 -46z m390 25
c-8 -14 -24 -10 -24 6 0 9 6 12 15 9 8 -4 12 -10 9 -15z m1181 -6 c-4 -10 -16
-43 -27 -73 -28 -74 -63 -120 -144 -188 -142 -119 -139 -118 -276 -12 -57 45
-103 86 -103 93 0 14 34 25 210 67 72 17 150 41 175 54 25 13 62 29 82 35 20
7 42 19 48 27 18 21 44 18 35 -3z m-1373 -101 c-6 -61 -13 -68 -41 -38 -24 26
-39 100 -27 132 6 15 11 13 40 -15 31 -30 33 -36 28 -79z m-322 63 c0 -8 -7
-15 -16 -15 -14 0 -14 3 -4 15 7 8 14 15 16 15 2 0 4 -7 4 -15z m755 5 c-3 -5
-10 -10 -16 -10 -5 0 -9 5 -9 10 0 6 7 10 16 10 8 0 12 -4 9 -10z m94 -44 c28
-29 47 -94 32 -109 -22 -22 -71 48 -71 103 0 36 9 38 39 6z m144 -25 c-3 -57
-17 -71 -33 -32 -16 39 -6 84 18 79 13 -3 17 -13 15 -47z m-2213 29 c22 -14 9
-20 -76 -35 -44 -7 -89 -17 -101 -20 -13 -4 -23 -3 -23 1 1 19 56 48 99 52 25
2 48 6 50 8 8 7 36 4 51 -6z m1732 -34 c5 -21 4 -44 0 -53 -14 -23 -42 11 -42
51 0 60 30 61 42 2z m-542 9 c21 -23 22 -28 12 -64 -7 -21 -12 -51 -12 -67 0
-16 -5 -36 -10 -44 -9 -13 -13 -11 -30 10 -41 53 -45 68 -31 118 12 46 27 72
40 72 4 0 18 -11 31 -25z m-542 -22 c5 -16 -42 -38 -64 -29 -16 6 -15 8 2 27
19 21 55 22 62 2z m284 -25 c-6 -6 -15 -9 -18 -5 -4 3 -4 14 0 23 5 13 9 15
18 6 9 -9 9 -15 0 -24z m906 10 c-6 -18 -25 -20 -31 -3 -5 10 0 15 14 15 12 0
19 -5 17 -12z m-5535 -35 c35 -126 33 -320 -2 -414 -12 -30 -21 -60 -21 -68 0
-25 -171 -333 -227 -408 -30 -40 -60 -91 -69 -115 -8 -23 -25 -55 -38 -72 -12
-17 -40 -69 -61 -116 -20 -47 -42 -90 -49 -97 -6 -6 -39 -15 -73 -19 -60 -6
-63 -6 -63 15 0 32 12 51 119 185 53 67 109 141 125 164 16 23 32 42 36 42 4
0 22 27 39 60 18 33 36 60 42 60 5 0 9 9 9 21 0 26 16 56 51 97 16 18 29 38
29 45 0 7 18 61 40 120 72 195 82 254 90 510 0 14 19 7 23 -10z m4185 5 c-3
-7 -11 -13 -18 -13 -7 0 -15 6 -17 13 -3 7 4 12 17 12 13 0 20 -5 18 -12z
m1134 -23 c-1 -11 -4 -33 -5 -49 -1 -16 -8 -31 -14 -33 -18 -6 -31 28 -25 70
4 32 8 38 26 35 15 -2 20 -9 18 -23z m-1212 -6 c0 -20 -21 -49 -36 -49 -20 0
-29 27 -14 45 14 17 50 20 50 4z m1084 -11 c20 -28 22 -146 3 -172 -11 -16
-15 -15 -41 13 -27 28 -28 34 -22 87 10 90 31 114 60 72z m-449 -10 c7 -32 -8
-111 -22 -115 -17 -6 -53 34 -53 59 0 21 45 78 62 78 4 0 10 -10 13 -22z m784
-9 c12 -36 15 -89 4 -89 -4 0 -19 11 -33 25 -21 20 -25 32 -22 60 5 46 35 48
51 4z m-483 -96 c8 -28 -23 -158 -40 -173 -16 -12 -35 7 -66 68 -20 38 -21 51
-15 120 10 107 18 114 71 55 24 -26 46 -58 50 -70z m1070 29 c27 -17 61 -43
74 -57 14 -15 40 -36 60 -47 92 -55 322 -320 377 -433 10 -22 31 -60 45 -85
29 -48 86 -214 112 -320 27 -114 35 -200 29 -320 -5 -104 -11 -133 -52 -256
l-46 -139 -60 -48 c-33 -27 -111 -73 -173 -103 -136 -66 -232 -84 -436 -83
-166 0 -210 7 -214 35 -2 16 8 25 50 45 57 26 70 52 28 57 -29 3 -43 -5 -139
-72 l-70 -49 -73 18 c-40 9 -111 29 -156 43 l-84 25 44 22 c126 64 169 85 175
85 4 0 44 18 89 40 45 22 123 53 173 70 50 16 112 38 138 49 56 24 184 58 375
101 189 41 218 39 138 -10 -44 -27 -47 -32 -26 -49 11 -10 39 -1 133 42 187
85 166 102 -122 102 -159 -1 -178 -3 -290 -32 -148 -40 -254 -77 -371 -132
-49 -24 -121 -55 -160 -71 -38 -16 -93 -42 -120 -58 -28 -16 -66 -35 -87 -41
-20 -7 -62 -30 -94 -52 -32 -21 -66 -39 -76 -39 -23 0 -190 47 -237 66 l-35
15 35 30 c19 16 62 43 95 59 33 16 74 39 90 50 17 11 36 20 44 20 8 0 83 34
165 77 83 42 183 91 221 110 39 18 84 40 100 49 68 38 86 45 210 79 72 20 191
55 265 79 169 54 324 85 335 66 8 -13 -25 -60 -42 -60 -19 0 -73 -41 -73 -56
0 -6 6 -17 14 -23 31 -26 226 104 226 150 0 10 -11 26 -26 35 -22 15 -34 16
-92 6 -131 -21 -206 -24 -227 -8 -18 14 -18 15 -2 16 27 0 190 85 213 111 28
32 64 97 64 115 0 36 -31 73 -70 85 -22 7 -40 15 -40 18 0 4 11 23 25 43 42
62 27 116 -40 138 -33 11 -35 14 -35 55 0 50 -9 60 -75 76 -67 16 -82 30 -67
64 22 48 17 55 -43 55 -31 0 -83 -9 -117 -21 -56 -19 -366 -109 -374 -109 -2
0 -4 4 -4 10 0 5 18 19 39 30 22 10 41 24 43 29 1 6 48 31 103 56 92 43 100
45 112 29 10 -14 15 -15 28 -4 8 7 25 10 39 6 21 -5 29 0 51 31 14 21 25 42
25 47 0 5 -25 6 -58 3 -56 -6 -229 -74 -263 -103 -17 -16 -59 -19 -59 -5 0 21
104 101 162 124 34 13 64 30 66 36 6 17 -35 13 -78 -9 -44 -23 -80 -26 -80 -7
0 11 30 109 52 166 l9 24 32 -30 c18 -16 55 -44 83 -61z m-341 14 c14 -26 15
-36 6 -55 -17 -31 -34 -22 -50 27 -23 74 9 94 44 28z m-115 3 c0 -5 -4 -9 -10
-9 -5 0 -10 7 -10 16 0 8 5 12 10 9 6 -3 10 -10 10 -16z m223 -31 l-10 -33
-13 27 c-11 23 -11 30 0 43 21 25 35 2 23 -37z m-1646 25 c2 -6 -7 -19 -21
-28 -19 -13 -29 -14 -45 -5 -27 14 -26 24 2 38 27 14 59 11 64 -5z m603 -38
c20 -22 22 -31 17 -91 -3 -39 -11 -72 -20 -81 -13 -13 -18 -11 -41 14 -14 15
-29 36 -32 46 -5 16 11 109 23 130 8 14 30 7 53 -18z m-960 -24 c0 -13 -11
-23 -35 -31 -52 -17 -63 -2 -18 26 47 29 53 29 53 5z m1544 3 c17 -43 1 -70
-34 -59 -15 5 -20 15 -20 41 0 29 3 34 24 34 13 0 27 -7 30 -16z m-1734 -2 c0
-14 -11 -21 -26 -15 -8 3 -11 9 -8 14 7 11 34 12 34 1z m890 2 c0 -4 -10 -26
-22 -50 -24 -49 -53 -58 -82 -25 -22 24 -14 54 17 69 24 12 87 16 87 6z m925
-5 c12 -19 -5 -23 -22 -6 -16 16 -16 17 -1 17 9 0 20 -5 23 -11z m140 -23 c8
-19 17 -52 21 -75 5 -33 4 -41 -8 -41 -22 0 -35 19 -48 72 -20 76 8 110 35 44z
m-987 8 c26 -18 52 -65 52 -93 0 -11 -9 -45 -21 -76 -14 -39 -26 -55 -39 -55
-27 0 -80 66 -80 100 0 28 48 140 60 140 3 0 16 -7 28 -16z m617 -5 c4 -12 4
-41 0 -66 -5 -34 -10 -43 -23 -41 -9 2 -17 11 -16 21 0 9 1 37 2 62 2 49 25
63 37 24z m573 -45 c-4 -35 -28 -45 -28 -11 0 14 3 33 6 42 10 25 26 2 22 -31z
m-1608 7 c0 -10 -50 -25 -57 -17 -3 2 -2 9 2 15 8 13 55 15 55 2z m90 -20 c0
-14 -18 -23 -30 -16 -6 4 -8 11 -5 16 8 12 35 12 35 0z m117 -23 c33 -32 43
-71 22 -83 -5 -4 -14 -18 -19 -31 -14 -35 -44 -30 -79 14 -32 41 -33 64 -3
110 20 30 40 28 79 -10z m723 -34 c20 -44 21 -49 6 -83 -8 -20 -18 -52 -21
-72 -10 -53 -20 -66 -40 -49 -9 7 -23 26 -31 41 -12 24 -12 35 1 86 8 31 15
64 15 73 0 21 29 62 40 55 4 -2 18 -26 30 -51z m-1565 36 c-3 -5 -13 -10 -21
-10 -8 0 -14 5 -14 10 0 6 9 10 21 10 11 0 17 -4 14 -10z m145 0 c0 -5 -5 -10
-11 -10 -5 0 -7 5 -4 10 3 6 8 10 11 10 2 0 4 -4 4 -10z m-546 -6 c23 -9 20
-24 -4 -24 -11 0 -30 -11 -42 -25 -12 -14 -27 -25 -34 -25 -7 0 -10 -8 -7 -20
4 -14 0 -20 -10 -20 -20 0 -31 17 -15 23 10 3 10 7 0 20 -18 21 -7 37 26 37
16 0 32 8 40 20 13 21 21 24 46 14z m611 -34 c-3 -5 -13 -10 -21 -10 -8 0 -12
5 -9 10 3 6 13 10 21 10 8 0 12 -4 9 -10z m436 0 c22 -12 24 -37 5 -62 -20
-26 -42 -22 -67 13 -22 31 -22 32 -4 45 22 17 40 18 66 4z m703 -23 c43 -57
49 -87 29 -143 -10 -27 -25 -50 -33 -51 -8 -1 -30 16 -47 38 -37 47 -43 96
-19 154 19 44 38 44 70 2z m-2384 -4 c61 -22 68 -30 35 -43 -53 -20 -153 9
-176 51 -11 21 -9 21 43 14 29 -3 73 -14 98 -22z m2788 15 c7 -7 12 -39 12
-76 0 -55 -2 -63 -17 -60 -27 5 -44 48 -37 93 9 58 18 67 42 43z m-2328 -8 c0
-5 -7 -10 -16 -10 -8 0 -12 5 -9 10 3 6 10 10 16 10 5 0 9 -4 9 -10z m1765
-36 c21 -27 26 -43 22 -67 -8 -51 -25 -87 -41 -87 -15 0 -76 64 -76 81 0 23
43 109 55 109 7 0 25 -16 40 -36z m723 -7 c2 -20 -1 -37 -6 -37 -14 0 -35 57
-27 70 13 21 30 4 33 -33z m-2713 23 c3 -5 -3 -10 -14 -10 -12 0 -21 5 -21 10
0 6 6 10 14 10 8 0 18 -4 21 -10z m1306 -16 c7 -8 25 -22 40 -29 29 -16 30
-43 2 -66 -12 -10 -23 -3 -65 38 -28 29 -48 56 -44 62 10 16 52 13 67 -5z
m1555 -35 c19 -37 18 -41 -8 -37 -27 4 -54 48 -45 73 6 14 10 15 23 4 8 -7 22
-25 30 -40z m84 13 c0 -35 -9 -45 -27 -31 -21 18 -17 59 7 59 15 0 20 -7 20
-28z m-1396 -31 c33 -33 36 -42 27 -60 -23 -43 -45 -44 -92 -3 l-42 38 23 32
c13 18 29 32 35 32 6 0 28 -18 49 -39z m235 -11 l42 -49 -21 -41 c-13 -25 -27
-40 -39 -40 -18 0 -111 97 -111 115 0 4 9 20 21 36 30 43 58 38 108 -21z
m-595 26 c41 -17 106 -73 106 -92 0 -22 -49 -17 -108 11 -58 27 -69 43 -52 74
13 25 12 25 54 7z m1236 -85 c-6 -31 -11 -63 -9 -71 2 -8 -5 -30 -15 -48 -16
-32 -18 -33 -36 -17 -18 16 -18 19 4 98 13 46 29 93 36 106 11 22 13 23 22 6
7 -12 6 -36 -2 -74z m1050 75 c0 -19 -23 -58 -43 -70 -29 -20 -201 -56 -217
-46 -28 17 119 101 195 111 28 3 53 7 58 8 4 0 7 -1 7 -3z m-2400 -15 c0 -10
-19 -26 -42 -34 -26 -9 -32 22 -5 33 29 12 47 12 47 1z m1635 -21 c3 -5 3 -15
-1 -21 -6 -11 -23 6 -24 24 0 10 18 9 25 -3z m-2896 -14 c8 -10 9 -16 1 -21
-13 -8 -30 3 -30 21 0 18 14 18 29 0z m1661 -77 c0 -13 -31 -18 -55 -9 -29 11
-32 26 -8 53 17 18 18 18 40 -10 13 -15 23 -31 23 -34z m1219 27 c7 -8 11 -35
9 -63 -3 -44 -5 -48 -28 -48 -24 0 -25 3 -28 73 -3 69 -2 73 16 63 10 -5 24
-17 31 -25z m151 -51 c0 -26 -20 -26 -45 -1 -25 25 -32 55 -18 70 10 9 63 -49
63 -69z m350 68 c-1 -28 -35 -45 -114 -60 -81 -15 -116 -13 -116 5 0 9 62 28
155 47 78 16 75 16 75 8z m-1499 -55 c27 -29 49 -61 49 -72 0 -15 -6 -17 -37
-12 -102 15 -115 19 -130 42 -14 23 -14 26 11 59 15 19 34 35 42 35 9 0 38
-24 65 -52z m1935 24 c13 -7 13 -11 -3 -29 -19 -21 -168 -92 -262 -125 -30
-11 -64 -26 -75 -34 -11 -8 -29 -14 -39 -14 -10 0 -30 -8 -45 -19 -31 -21
-116 -69 -322 -184 -80 -44 -157 -88 -173 -99 -49 -34 -48 -9 2 66 72 107 249
243 420 326 35 17 76 33 90 37 14 3 35 12 47 19 28 19 129 54 184 64 50 10
153 5 176 -8z m-1099 -148 c-3 -79 -8 -148 -12 -154 -23 -37 -70 29 -62 89 15
113 29 178 43 198 30 46 37 16 31 -133z m-4077 132 c0 -16 -28 -42 -36 -33 -7
6 18 47 28 47 5 0 8 -6 8 -14z m3639 -28 c41 -56 42 -128 1 -128 -25 0 -80 69
-80 100 1 80 33 91 79 28z m-2906 -2 c-3 -37 -26 -62 -65 -70 -44 -9 -52 4
-33 52 17 42 31 51 75 49 21 -2 25 -7 23 -31z m101 25 c9 -14 -15 -71 -34 -81
-21 -11 -30 -4 -30 27 0 36 49 78 64 54z m176 -6 c0 -8 -5 -26 -12 -40 -13
-29 -52 -34 -83 -11 -18 13 -18 15 -2 40 14 21 25 26 57 26 28 0 40 -4 40 -15z
m513 8 c70 -4 100 -10 104 -20 3 -8 3 -16 0 -19 -2 -3 -90 -7 -193 -9 -104 -3
-231 -7 -281 -11 -100 -6 -108 -1 -83 47 10 18 23 19 183 19 95 0 216 -3 270
-7z m857 -2 c0 -18 -41 -23 -118 -14 l-77 8 65 6 c108 9 130 9 130 0z m121 -1
c21 0 39 -4 39 -9 0 -11 -102 -20 -114 -10 -13 11 4 31 21 25 8 -3 32 -6 54
-6z m953 -21 c29 -34 31 -47 14 -84 -22 -50 -108 -13 -108 46 0 72 49 92 94
38z m-1334 12 c0 -18 -14 -19 -175 -21 -189 -2 -185 -3 -185 10 0 5 57 11 138
13 75 1 156 4 180 5 23 1 42 -2 42 -7z m1695 -34 c25 -43 30 -81 19 -124 -4
-13 -12 -23 -19 -23 -14 0 -85 74 -85 89 0 14 22 75 33 89 16 20 25 14 52 -31z
m-3257 27 c29 -8 28 -25 -4 -63 -28 -33 -32 -35 -51 -23 -10 6 -9 17 4 50 17
45 17 45 51 36z m1176 -3 c6 -9 -16 -21 -38 -21 -7 0 -21 7 -32 15 -18 13 -16
14 23 15 23 0 44 -4 47 -9z m986 -1 c0 -16 -27 -23 -55 -16 -39 10 -29 26 15
26 22 0 40 -5 40 -10z m-2292 -46 c4 -36 -33 -78 -48 -55 -7 13 1 58 15 81 12
19 30 5 33 -26z m4292 28 c0 -4 -46 -23 -102 -41 -57 -18 -113 -37 -126 -42
-33 -13 -62 -11 -62 5 0 25 27 37 127 57 54 11 100 22 102 25 8 7 61 4 61 -4z
m-4415 -53 c-17 -33 -45 -39 -45 -10 0 21 38 54 52 45 4 -3 1 -18 -7 -35z
m1954 17 c17 -20 4 -41 -58 -99 l-51 -48 -68 3 -67 3 -3 50 c-4 76 6 84 123
94 55 5 103 9 106 10 4 0 12 -5 18 -13z m-2039 -21 c0 -41 -27 -85 -53 -85
-53 0 -66 10 -60 44 11 57 20 66 68 66 42 0 45 -2 45 -25z m2480 15 c0 -14
-30 -62 -49 -77 -21 -18 -141 -17 -141 0 0 26 59 71 102 78 66 10 88 10 88 -1z
m-2630 -10 c0 -5 -5 -21 -12 -35 -13 -28 -35 -32 -64 -10 -19 15 -19 15 5 35
24 21 71 27 71 10z m2396 -1 c10 -17 -26 -87 -50 -93 -39 -10 -145 -6 -152 6
-8 12 54 72 91 88 29 13 103 12 111 -1z m395 1 c43 -23 10 -75 -58 -90 -83
-19 -112 13 -59 66 36 36 78 44 117 24z m-1841 -10 c0 -5 -4 -10 -9 -10 -6 0
-13 5 -16 10 -3 6 1 10 9 10 9 0 16 -4 16 -10z m910 4 c0 -13 -25 -52 -62 -96
l-40 -48 -65 0 c-67 0 -167 -13 -237 -31 -67 -18 -66 3 2 73 l61 63 158 21
c190 26 183 25 183 18z m3283 -5 c55 -11 57 -13 57 -43 0 -53 -84 -125 -241
-208 -52 -27 -114 -62 -139 -78 -51 -33 -260 -133 -372 -179 -40 -16 -134 -57
-208 -91 -112 -52 -194 -88 -307 -137 -23 -10 -13 19 20 57 17 21 54 70 82
110 27 40 59 76 70 81 11 5 65 38 120 73 115 75 315 184 395 216 30 12 127 57
215 101 138 68 224 106 246 108 3 1 31 -4 62 -10z m-3843 -8 c0 -28 -108 -78
-192 -90 -59 -8 -77 -16 -65 -28 10 -9 131 -4 205 9 53 9 66 8 79 -4 12 -13
10 -19 -22 -46 -20 -18 -42 -32 -49 -32 -45 0 -233 -23 -296 -36 -121 -25
-300 -64 -365 -79 -130 -30 -203 -45 -217 -45 -7 0 -19 9 -26 20 -17 28 -29
25 -54 -15 -22 -33 -42 -44 -51 -27 -3 4 6 30 20 59 22 45 27 51 43 41 30 -19
50 -3 50 40 0 21 7 62 15 90 15 50 17 52 50 52 l35 0 0 -55 c0 -59 9 -67 47
-40 16 11 24 31 29 66 5 37 13 54 30 66 34 22 58 1 49 -41 -13 -61 -11 -101 5
-101 10 0 19 19 28 55 8 30 20 61 27 69 27 28 29 -17 5 -70 -22 -46 -22 -51
-8 -66 26 -25 42 -10 66 64 30 95 37 103 107 112 33 5 62 7 64 5 3 -3 -1 -20
-8 -39 -26 -74 22 -76 71 -2 l35 52 104 10 c149 14 189 16 189 6z m-1523 -36
c-10 -58 -43 -103 -88 -116 -44 -14 -48 -25 -20 -61 20 -25 19 -49 -7 -143 -6
-22 -14 -53 -17 -68 -4 -20 -11 -27 -23 -25 -12 2 -25 31 -44 97 -15 52 -39
113 -52 137 -23 42 -24 43 -5 71 66 100 85 117 135 129 27 6 66 12 88 13 l39
1 -6 -35z m3237 6 c16 -3 31 -12 34 -18 3 -10 -14 -13 -65 -12 -78 1 -115 9
-121 27 -4 13 97 15 152 3z m176 -21 c11 -7 -1 -10 -40 -10 -39 0 -51 3 -40
10 8 5 26 10 40 10 14 0 32 -5 40 -10z m640 -10 c8 -15 7 -34 -6 -75 -19 -58
-24 -64 -43 -42 -8 10 -6 29 10 75 11 34 23 62 25 62 2 0 8 -9 14 -20z m590 8
c0 -7 -11 -20 -24 -28 -13 -8 -43 -28 -66 -43 -23 -16 -44 -26 -47 -23 -10 9
19 66 38 76 10 6 35 14 56 19 21 5 39 9 41 10 1 1 2 -5 2 -11z m-4473 -15 c5
-15 -36 -28 -49 -15 -6 6 -7 15 -3 22 9 14 47 9 52 -7z m1960 -17 c-4 -9 -11
-16 -17 -16 -11 0 -14 33 -3 43 11 11 26 -10 20 -27z m1613 0 c10 -14 9 -16
-7 -16 -26 0 -58 24 -49 39 8 13 35 2 56 -23z m618 22 c7 -7 12 -25 12 -41 0
-31 -35 -97 -51 -97 -10 0 -13 133 -2 143 10 11 28 8 41 -5z m-453 -45 c28
-42 33 -73 10 -73 -20 0 -69 76 -61 95 9 24 23 18 51 -22z m-3371 -1 c6 -10
-56 -158 -73 -175 -16 -16 -14 48 3 95 24 68 55 103 70 80z m2669 -11 c15 -15
-36 -68 -91 -93 -35 -16 -55 -18 -115 -12 -39 3 -75 9 -80 11 -10 6 64 101 83
106 31 8 192 -1 203 -12z m284 -8 c2 -6 -17 -27 -43 -47 -46 -35 -49 -36 -135
-36 -74 0 -89 3 -89 16 0 19 57 72 84 77 44 9 179 2 183 -10z m-3223 1 c20 -8
20 -21 0 -59 -9 -16 -33 -81 -53 -144 -38 -115 -54 -140 -85 -128 -23 9 -20
46 13 140 34 98 68 167 90 184 19 15 16 14 35 7z m2452 -6 c3 -3 -9 -26 -26
-51 -36 -53 -70 -67 -167 -67 -44 0 -63 4 -63 13 0 6 23 36 50 66 l50 54 75
-5 c42 -3 78 -7 81 -10z m194 -1 c0 -6 -17 -31 -38 -54 -36 -39 -41 -42 -95
-42 -31 0 -59 4 -62 8 -5 9 37 70 62 89 23 16 133 16 133 -1z m673 6 c12 -11
-25 -43 -50 -43 -27 0 -29 7 -6 32 16 18 44 24 56 11z m-3160 -17 c6 -16 -36
-199 -54 -233 -23 -43 -65 -40 -48 4 7 20 6 30 -6 43 -13 15 -13 24 10 90 14
40 32 82 42 92 19 21 49 24 56 4z m3288 -2 c55 -28 19 -66 -47 -50 -17 5 -24
13 -24 30 0 40 21 46 71 20z m-1236 -3 c3 -6 -14 -30 -39 -54 l-44 -44 -98 -7
-99 -7 40 29 c22 17 50 44 63 61 22 30 25 31 97 31 40 0 76 -4 80 -9z m1704
-66 c26 -46 30 -61 25 -100 -4 -25 -11 -45 -16 -45 -11 0 -95 57 -103 70 -7
12 20 107 36 126 15 19 22 13 58 -51z m-1955 46 c7 -11 -86 -98 -118 -111 -29
-11 -163 -16 -173 -6 -13 12 91 96 137 111 51 15 146 20 154 6z m-2091 -21
c-2 -13 -27 -91 -70 -220 -8 -25 -19 -88 -23 -140 -7 -83 -5 -102 13 -150 11
-30 24 -60 29 -67 12 -15 38 -6 32 11 -7 17 11 30 79 55 70 25 87 26 87 4 0
-39 -25 -123 -37 -123 -7 0 -18 -10 -24 -22 -10 -18 -8 -24 13 -39 22 -16 24
-25 26 -117 2 -61 -1 -103 -7 -107 -20 -12 -51 16 -100 88 -28 40 -59 83 -70
97 -11 14 -21 30 -21 36 0 6 -7 18 -16 25 -9 7 -47 55 -84 105 l-69 92 55 134
c30 73 71 176 91 228 19 52 40 103 45 113 11 22 54 19 51 -3z m-463 -12 c5
-13 23 -70 40 -128 51 -173 71 -232 108 -304 32 -66 33 -70 16 -83 -18 -13
-125 -18 -137 -6 -4 4 5 19 19 34 39 41 27 64 -29 55 -123 -18 -221 -26 -228
-19 -5 5 25 33 69 63 88 63 162 136 162 162 0 22 -9 22 -69 3 -25 -8 -84 -22
-131 -31 -146 -28 -253 -51 -294 -62 -74 -21 -58 1 38 53 53 28 106 61 119 73
13 12 30 22 39 22 27 0 167 101 205 147 40 48 59 54 73 21z m2213 13 c15 -6 9
-16 -45 -67 l-63 -60 -125 -12 c-236 -24 -220 -24 -220 0 0 31 69 94 115 106
47 11 247 39 290 40 17 0 38 -3 48 -7z m3595 -15 c11 -11 10 -20 -3 -54 -22
-55 -66 -92 -151 -127 -38 -16 -94 -45 -124 -64 -53 -35 -102 -58 -227 -106
-34 -14 -250 -120 -480 -236 -381 -193 -570 -282 -630 -296 -43 -10 -24 23 55
98 42 41 104 106 138 144 60 69 63 71 160 103 54 19 131 48 169 66 39 19 104
46 145 61 41 15 91 37 110 49 19 12 87 46 150 75 108 51 383 194 478 248 55
32 151 62 177 56 11 -3 26 -11 33 -17z m-4074 -57 c3 -3 -17 -31 -45 -62 -49
-55 -52 -57 -102 -57 -29 0 -81 -6 -117 -14 -105 -23 -241 -55 -296 -70 -81
-22 -105 -23 -118 -3 -9 13 -7 25 9 54 27 51 76 67 390 124 61 12 113 24 118
28 8 8 153 9 161 0z m2123 -3 c8 -8 -37 -85 -55 -95 -9 -5 -38 -12 -64 -16
-39 -6 -49 -4 -54 9 -8 21 58 103 89 109 22 5 77 0 84 -7z m169 0 c6 -17 -32
-83 -56 -96 -23 -12 -100 -13 -100 -1 0 4 18 31 41 60 35 44 46 51 75 51 20 0
37 -6 40 -14z m179 0 c18 -13 18 -14 -4 -45 -12 -17 -28 -31 -35 -31 -7 0 -35
-3 -61 -7 l-47 -6 12 24 c36 69 92 97 135 65z m-527 -11 c7 -7 -19 -44 -53
-74 -29 -25 -44 -31 -83 -31 -26 0 -71 -3 -99 -6 -48 -6 -53 -5 -53 13 0 24
33 68 63 85 35 20 208 30 225 13z m-612 -20 c7 -17 -73 -96 -123 -120 -38 -19
-153 -32 -153 -18 0 19 136 132 171 141 53 16 99 14 105 -3z m311 2 c11 -11
-17 -56 -49 -80 -23 -17 -51 -22 -164 -29 -75 -5 -139 -6 -142 -3 -7 6 104
107 127 116 22 9 218 5 228 -4z m933 -17 c0 -5 -9 -10 -20 -10 -11 0 -20 5
-20 10 0 6 9 10 20 10 11 0 20 -4 20 -10z m332 -25 c0 -5 -5 -11 -11 -13 -6
-2 -11 4 -11 13 0 9 5 15 11 13 6 -2 11 -8 11 -13z m-3867 -5 c-3 -5 -10 -10
-16 -10 -5 0 -9 5 -9 10 0 6 7 10 16 10 8 0 12 -4 9 -10z m2035 -4 c0 -8 -23
-35 -50 -60 -58 -51 -65 -53 -265 -66 -71 -4 -148 -13 -170 -19 -22 -6 -58
-11 -80 -11 -35 0 -47 6 -79 39 l-38 39 20 30 c24 33 38 35 283 48 123 6 127
6 138 -15 14 -25 32 -26 74 -4 56 30 167 42 167 19z m-774 -41 c4 -8 -1 -27
-11 -41 -21 -32 -8 -50 46 -64 56 -15 48 -30 -15 -30 -62 0 -316 -36 -360 -50
-16 -6 -56 -10 -90 -10 -34 -1 -88 -7 -121 -15 -91 -22 -89 -24 -82 46 3 34
10 66 15 71 14 14 290 66 441 83 74 9 137 18 140 20 10 10 32 4 37 -10z m2428
-6 c37 -21 46 -48 24 -67 -16 -13 -157 -23 -163 -11 -10 15 24 79 47 89 36 14
54 12 92 -11z m-3460 -8 c3 -5 -1 -29 -10 -54 -13 -38 -21 -47 -45 -51 -16 -3
-42 -9 -59 -12 -28 -5 -30 -3 -30 23 0 41 19 63 76 83 59 22 61 22 68 11z
m3116 -25 c0 -34 -41 -66 -96 -75 -62 -9 -74 -5 -74 23 0 37 48 74 100 78 59
4 70 0 70 -26z m165 24 c3 -5 0 -22 -7 -37 -16 -34 -93 -57 -108 -33 -10 16 5
49 29 67 19 15 77 17 86 3z m-584 -10 c29 -16 23 -36 -18 -65 -38 -25 -86 -32
-112 -16 -19 12 10 54 52 75 38 18 52 20 78 6z m213 -7 c10 -24 -51 -83 -85
-83 -33 0 -59 9 -59 21 0 4 14 24 31 44 25 28 38 35 69 35 26 0 40 -5 44 -17z
m-426 -29 c12 -8 20 -19 17 -24 -8 -13 -188 -7 -192 7 -5 13 17 20 77 26 69 7
76 7 98 -9z m-2682 -19 c-14 -55 -25 -73 -50 -77 -22 -4 -26 -2 -26 19 0 33
17 62 43 73 35 14 40 12 33 -15z m2457 -6 c22 -19 22 -19 2 -35 -71 -56 -131
-68 -415 -84 -96 -5 -245 -17 -330 -26 -85 -9 -177 -18 -203 -21 -30 -3 -53 0
-62 7 -18 15 -20 74 -2 88 6 5 68 15 137 22 275 26 317 30 363 36 50 7 64 -6
27 -26 -11 -6 -20 -17 -20 -26 0 -24 29 -28 53 -7 61 53 103 73 158 74 29 1
65 4 79 8 14 4 62 8 108 8 67 1 87 -3 105 -18z m-2639 -65 c-1 -50 -1 -51 -29
-56 -17 -2 -20 2 -19 32 1 19 7 48 13 64 16 41 36 18 35 -40z m734 2 c6 -72 0
-80 -80 -100 -40 -10 -105 -21 -145 -26 -40 -5 -77 -11 -83 -15 -6 -4 -10 7
-10 30 0 48 34 113 63 120 94 24 197 40 222 35 26 -5 30 -10 33 -44z m-873 7
c-4 -10 -10 -31 -12 -48 -9 -63 -14 -75 -31 -75 -28 0 -42 21 -42 62 0 45 28
78 66 78 21 0 25 -3 19 -17z m2945 2 c-7 -9 -15 -13 -17 -11 -7 7 7 26 19 26
6 0 6 -6 -2 -15z m-85 -4 c7 -12 -31 -25 -46 -15 -8 4 -7 9 2 15 18 11 36 11
44 0z m1079 0 c3 -5 -24 -49 -60 -99 l-66 -89 -63 -7 c-97 -10 -102 -4 -51 62
56 72 115 128 141 135 35 8 94 7 99 -2z m-4979 -11 c-7 -11 -69 -24 -87 -17
-18 6 29 26 65 26 16 1 26 -3 22 -9z m385 0 c0 -5 -12 -17 -27 -27 -16 -9 -77
-56 -137 -103 -60 -47 -141 -106 -180 -132 -74 -50 -183 -141 -297 -247 -37
-34 -72 -60 -78 -57 -6 4 -18 32 -27 64 -9 31 -23 77 -31 102 -8 25 -18 63
-23 85 -4 22 -14 68 -23 102 -15 60 -14 62 7 82 12 12 32 21 43 21 11 0 37 7
56 15 46 19 80 19 117 0 34 -18 31 -18 500 85 103 23 100 22 100 10z m4367 -5
c2 -6 -30 -51 -71 -100 -72 -86 -77 -90 -123 -96 -26 -3 -50 -5 -52 -3 -11 9
154 201 178 208 26 7 64 2 68 -9z m-193 -4 c3 -5 -18 -39 -46 -76 -39 -50 -48
-69 -39 -75 16 -10 6 -30 -16 -30 -9 0 -13 6 -9 15 10 28 -12 15 -34 -19 l-21
-35 -102 -3 c-56 -2 -106 0 -110 3 -4 3 18 25 50 49 32 24 86 71 120 103 59
57 66 60 125 67 35 4 66 8 70 9 4 0 9 -3 12 -8z m-236 -10 c26 -16 -146 -172
-233 -212 -49 -22 -105 -25 -105 -5 0 35 203 194 270 212 56 16 52 15 68 5z
m-1594 -39 c-1 -18 -9 -43 -18 -57 -17 -25 -20 -26 -166 -43 -47 -6 -114 -15
-150 -21 -136 -21 -238 -31 -253 -25 -9 3 -19 15 -22 25 -9 28 -28 19 -39 -18
-9 -30 -29 -43 -67 -43 -18 0 -51 63 -43 84 7 19 27 26 94 36 30 5 89 16 130
25 41 9 104 20 140 26 36 5 110 18 165 29 55 10 129 17 165 17 l65 -2 -1 -33z
m1420 23 c-3 -8 -34 -37 -68 -63 -33 -27 -87 -71 -119 -99 -55 -49 -62 -52
-130 -58 -149 -14 -149 -12 3 101 188 140 175 133 252 133 56 1 66 -2 62 -14z
m886 -15 c0 -11 -7 -20 -15 -20 -17 0 -18 2 -9 24 9 23 24 20 24 -4z m-3498
-50 c-3 -71 -27 -95 -107 -105 -32 -4 -61 -3 -67 3 -5 5 -6 35 -1 72 l8 63 45
13 c25 6 63 11 85 10 l40 -1 -3 -55z m2262 11 c-82 -75 -251 -186 -304 -201
-19 -6 -67 -10 -106 -10 -70 0 -283 -32 -305 -46 -22 -13 13 -22 80 -18 73 5
226 23 254 30 42 12 10 -20 -70 -68 l-88 -53 -207 -3 c-182 -3 -208 -1 -208
12 0 18 4 21 158 106 101 56 112 64 99 78 -14 13 -36 3 -198 -87 -100 -55
-188 -101 -195 -101 -42 0 -4 47 126 154 47 38 68 47 130 60 41 8 109 17 152
21 42 4 84 13 95 21 16 13 2 14 -117 9 -74 -4 -170 -13 -213 -22 -71 -15 -80
-15 -94 0 -14 14 -12 16 23 26 22 5 91 17 154 26 63 9 140 20 170 25 30 5 125
16 210 25 85 9 200 23 255 32 128 20 218 30 229 24 5 -2 -9 -20 -30 -40z
m3510 23 c21 -8 20 -32 -3 -135 -44 -196 -103 -344 -211 -529 -48 -82 -73
-131 -165 -325 -95 -199 -135 -288 -141 -312 -4 -15 -24 -56 -45 -93 -21 -36
-45 -84 -53 -106 -16 -45 -103 -205 -148 -272 -17 -25 -48 -52 -72 -65 -24
-12 -66 -34 -93 -49 -74 -40 -166 -68 -220 -68 -63 1 -200 42 -231 69 -21 19
-23 28 -20 81 3 60 -5 73 -30 48 -8 -8 -15 -8 -26 1 -30 25 -27 49 19 141 26
51 44 98 41 106 -12 31 -37 11 -73 -58 -25 -50 -38 -67 -41 -54 -5 24 21 90
58 146 26 39 28 47 15 59 -30 30 -85 -34 -116 -137 -18 -63 -34 -71 -59 -30
-11 18 -20 35 -20 38 0 10 321 329 403 399 34 30 37 31 37 12 0 -11 -16 -38
-35 -60 -19 -21 -35 -41 -35 -45 0 -28 115 49 198 132 40 40 62 52 62 33 0 -5
-7 -14 -16 -22 -9 -7 -30 -33 -47 -58 -17 -25 -43 -61 -58 -78 -49 -57 -152
-288 -168 -377 -15 -79 -14 -219 1 -251 45 -98 299 -48 416 82 23 26 42 51 42
55 0 21 -35 3 -85 -42 -64 -58 -131 -95 -141 -79 -4 6 7 22 25 36 32 25 41 53
17 53 -42 0 -75 -14 -80 -34 -6 -22 -84 -82 -94 -72 -12 12 34 90 72 122 41
35 65 69 66 92 0 20 -30 13 -54 -13 -29 -32 -44 -32 -56 0 -8 22 -13 24 -30
15 -18 -9 -25 -28 -46 -113 -4 -19 -10 -25 -16 -19 -12 12 -2 63 48 237 59
202 169 366 410 610 141 142 149 149 152 121 2 -15 -1 -40 -7 -55 -5 -14 -13
-69 -16 -121 -4 -52 -14 -121 -22 -153 -15 -56 -13 -81 7 -61 6 6 20 51 31
100 12 49 28 109 36 134 8 25 18 72 23 105 8 65 55 231 69 249 5 6 36 65 70
131 102 199 238 367 355 438 44 26 81 47 82 47 1 0 9 -3 18 -6z m-6014 -39 c8
-9 10 -29 5 -57 -9 -58 -31 -90 -58 -86 -19 3 -22 10 -25 60 -2 47 1 61 18 78
24 24 43 26 60 5z m3678 -30 c-12 -27 -28 -34 -28 -12 0 14 20 37 32 37 4 0 2
-11 -4 -25z m-3080 -37 c17 -14 26 -12 -158 -42 -52 -9 -102 -17 -110 -18 -34
-6 -22 16 15 29 99 35 229 51 253 31z m-1418 -8 c0 -13 -11 -13 -30 0 -12 8
-11 10 8 10 12 0 22 -4 22 -10z m-91 -26 c47 -10 43 -46 -10 -82 -22 -15 -68
-50 -102 -78 -34 -28 -98 -80 -142 -115 -97 -77 -173 -140 -234 -195 -50 -44
-137 -104 -151 -104 -4 0 -11 15 -15 33 -4 17 -20 56 -37 85 l-29 52 23 0 c25
0 139 63 192 105 17 14 65 53 106 86 41 33 109 89 151 124 92 77 168 105 248
89z m385 -33 c10 -11 29 -41 44 -68 41 -75 76 -125 116 -162 20 -19 36 -40 36
-45 0 -6 20 -31 44 -56 51 -52 126 -178 136 -230 4 -19 13 -56 21 -82 7 -26
10 -50 6 -54 -9 -10 -94 16 -108 32 -9 11 -7 20 7 40 42 59 45 68 26 86 -23
22 -201 76 -279 84 -35 4 -66 11 -69 15 -5 9 67 65 96 74 10 3 26 22 35 42 15
32 15 37 2 51 -18 18 -134 30 -289 31 -88 1 -108 4 -108 16 0 8 47 51 105 95
58 45 105 85 105 89 0 12 40 61 49 61 4 0 16 -9 25 -19z m1145 4 c14 -15 -36
-35 -138 -54 -62 -13 -118 -24 -125 -27 -14 -5 -34 7 -38 25 -6 29 276 81 301
56z m755 9 c21 -8 20 -30 -1 -39 -10 -3 -92 -11 -183 -16 -91 -5 -178 -13
-195 -18 -27 -9 -110 -16 -142 -12 -26 2 -12 19 30 36 23 9 87 21 142 26 55 5
125 13 155 18 68 10 173 13 194 5z m2210 -13 c6 -9 -123 -159 -149 -174 -8 -4
-16 -3 -20 2 -6 10 141 181 156 181 4 0 10 -4 13 -9z m-140 -17 c13 -5 3 -21
-45 -73 -71 -76 -78 -81 -132 -93 -43 -9 -77 -3 -77 15 0 6 33 44 72 84 70 70
74 73 119 73 26 0 55 -3 63 -6z m-4114 -13 c0 -11 -288 -250 -360 -298 -14 -9
-41 -31 -60 -48 -19 -17 -44 -38 -56 -46 -12 -8 -66 -47 -120 -88 -154 -115
-198 -148 -211 -155 -12 -6 -43 40 -43 63 0 6 17 19 38 30 20 10 47 30 58 43
25 27 130 113 203 166 82 60 241 191 314 260 38 35 78 67 90 72 29 11 147 13
147 1z m2150 -9 c0 -12 -54 -62 -67 -62 -20 0 -16 15 12 49 16 18 32 28 40 24
8 -3 15 -8 15 -11z m1746 3 c7 -17 -83 -122 -125 -145 -34 -19 -132 -21 -138
-2 -3 6 2 12 10 12 7 0 38 24 68 53 59 58 87 76 134 88 44 10 45 10 51 -6z
m-2968 -17 c2 -10 -8 -23 -25 -32 -36 -18 -164 -26 -170 -10 -5 14 10 20 97
44 76 21 94 21 98 -2z m2757 8 c25 -18 17 -27 -82 -103 l-76 -58 -128 -3 c-85
-2 -129 0 -129 7 0 5 21 22 48 38 26 15 75 46 110 70 35 23 78 45 95 47 69 11
83 13 113 15 16 0 39 -5 49 -13z m-306 -13 c3 -2 -11 -19 -30 -39 -44 -45
-146 -94 -182 -87 -35 7 -34 26 1 48 15 10 39 29 55 43 38 36 76 50 117 44 19
-3 37 -7 39 -9z m-1929 -14 c0 -4 -9 -13 -19 -18 -24 -13 -54 15 -32 29 15 9
51 2 51 -11z m1718 0 c4 -20 -89 -84 -143 -98 -51 -14 -175 -14 -175 -1 0 6
33 31 73 57 62 40 82 48 142 53 89 9 99 8 103 -11z m-1138 -39 c0 -29 -7 -61
-16 -75 l-16 -24 -23 27 c-20 22 -27 25 -42 16 -10 -6 -19 -22 -21 -36 -3 -24
-8 -26 -95 -37 -51 -6 -131 -14 -179 -17 l-87 -7 -15 38 c-9 21 -16 52 -16 71
0 30 4 34 38 43 20 5 98 14 172 21 74 7 151 16 170 20 19 5 56 8 83 9 l47 1 0
-50z m-1390 5 c0 -39 -21 -55 -45 -35 -18 15 -20 56 -2 63 35 15 47 7 47 -28z
m650 10 c0 -16 -52 -21 -84 -9 -28 11 -6 24 40 24 32 0 44 -4 44 -15z m-175
-35 c0 -21 -81 -32 -96 -13 -9 10 -6 15 12 23 35 14 84 8 84 -10z m350 -37 c3
-16 12 -49 19 -75 8 -26 11 -49 8 -52 -10 -11 -70 -6 -80 7 -5 6 -13 36 -17
65 -8 60 3 82 41 82 18 0 25 -7 29 -27z m-165 -5 c1 -7 7 -39 15 -71 13 -55
12 -60 -6 -78 -10 -10 -30 -19 -42 -19 -38 0 -58 32 -64 99 -5 57 -4 61 18 70
35 14 79 13 79 -1z m-390 -31 c0 -13 7 -66 15 -118 47 -293 51 -347 31 -355
-21 -8 -94 30 -155 81 -27 22 -61 49 -76 60 -27 20 -28 25 -28 100 0 44 3 112
8 152 l8 71 76 15 c113 21 121 21 121 -6z m240 -14 c6 -21 13 -59 17 -85 l6
-46 -52 -26 c-28 -15 -51 -30 -51 -35 0 -16 36 -22 65 -11 14 5 31 8 36 4 14
-8 11 -160 -4 -172 -7 -6 -30 -12 -52 -14 -35 -3 -40 -6 -40 -28 0 -20 6 -26
27 -28 15 -2 37 2 49 8 31 17 39 3 46 -78 5 -59 3 -72 -9 -72 -20 0 -90 47
-110 75 -22 30 -47 122 -54 200 -2 33 -10 99 -16 146 -6 48 -7 108 -4 133 6
41 11 47 39 55 18 5 46 10 64 10 29 1 33 -3 43 -36z m1945 7 c3 -5 -1 -10 -9
-10 -9 0 -16 5 -16 10 0 6 4 10 9 10 6 0 13 -4 16 -10z m-2481 -6 c13 -5 16
-26 16 -125 0 -65 -3 -119 -7 -118 -5 0 -22 17 -39 37 -29 36 -30 39 -25 115
4 53 11 81 21 87 18 12 15 11 34 4z m2325 -8 c13 -15 -26 -24 -209 -46 -47 -6
-95 -13 -107 -15 -35 -8 -27 11 15 37 25 16 59 25 107 29 132 11 182 10 194
-5z m1091 -5 c0 -13 -237 -246 -294 -290 -130 -100 -311 -200 -546 -301 -270
-117 -367 -153 -394 -146 -19 5 -26 12 -24 24 4 20 194 155 287 204 111 58
164 90 210 127 91 75 116 92 154 102 44 12 100 3 94 -14 -2 -7 -63 -44 -137
-82 -137 -72 -164 -95 -143 -116 9 -9 31 -1 95 38 46 28 106 63 135 77 29 14
80 44 114 66 34 22 68 40 74 40 7 0 18 7 25 16 8 8 44 33 81 55 38 22 74 48
82 59 8 11 49 52 91 90 68 63 96 77 96 51z m-170 -53 c-119 -105 -215 -158
-286 -158 -43 0 -43 12 -1 42 17 12 70 55 117 95 81 68 89 72 140 75 77 4 83
-7 30 -54z m-1363 16 c7 -22 -146 -71 -242 -78 -49 -3 -106 -9 -126 -12 -34
-6 -37 -4 -57 37 -12 23 -19 46 -16 51 3 5 86 8 185 7 98 -2 182 1 186 5 11
10 66 3 70 -10z m922 7 c11 -7 9 -14 -12 -35 -14 -14 -32 -26 -40 -26 -8 0
-22 -10 -33 -21 -10 -12 -37 -33 -59 -47 -22 -13 -51 -35 -65 -48 -21 -20 -42
-25 -135 -34 -61 -5 -136 -10 -169 -10 -51 0 -57 2 -46 15 7 8 20 15 29 15 10
0 28 12 42 26 21 24 152 114 208 144 49 26 248 41 280 21z m226 -6 c0 -12
-149 -146 -180 -162 -30 -16 -152 -26 -159 -14 -7 10 154 139 217 174 34 19
122 20 122 2z m-585 -7 c0 -15 -113 -91 -150 -103 -14 -4 -41 -20 -60 -35 -50
-39 -160 -92 -177 -86 -23 9 -7 24 67 61 37 19 93 56 124 83 38 33 76 56 118
70 77 25 78 25 78 10z m-1173 -22 c-2 -6 -18 -19 -37 -30 -26 -16 -36 -17 -52
-7 -23 14 -38 7 -38 -20 0 -31 -30 -36 -51 -8 -22 29 -34 19 -31 -25 3 -26 -1
-34 -23 -44 -42 -19 -53 -14 -64 26 -22 78 -15 85 110 95 42 4 87 11 100 16
31 13 90 10 86 -3z m963 -6 c0 -12 -10 -24 -24 -30 -13 -5 -79 -46 -147 -91
-115 -76 -128 -82 -184 -86 -33 -2 -112 -8 -175 -12 -63 -5 -125 -7 -137 -4
-38 8 -11 38 70 78 39 19 79 39 87 44 77 45 147 63 330 86 69 9 136 20 150 25
14 5 26 9 28 9 1 1 2 -8 2 -19z m-2722 -6 c33 -9 27 -28 -15 -48 -21 -10 -63
-33 -93 -52 -30 -20 -120 -75 -200 -124 -294 -179 -408 -254 -508 -335 -24
-19 -49 -35 -56 -35 -7 0 -20 33 -31 76 l-19 77 34 29 c19 16 62 49 95 74 33
24 83 62 110 85 155 125 387 229 553 249 92 10 104 11 130 4z m1867 -105 c27
-98 28 -102 10 -115 -22 -16 -83 -18 -119 -4 -30 11 -41 31 -50 92 l-7 46 53
41 c29 22 60 41 69 41 11 0 23 -27 44 -101z m35 65 c0 -8 -5 -12 -10 -9 -6 4
-8 11 -5 16 9 14 15 11 15 -7z m2027 -20 c5 -15 -42 -38 -62 -30 -15 5 -14 9
6 26 25 21 50 23 56 4z m-2523 -49 c20 -65 14 -92 -22 -106 -36 -14 -53 7 -63
78 -9 63 2 83 46 83 17 0 25 -11 39 -55z m721 25 c7 -11 -46 -40 -74 -40 -26
0 -51 10 -51 20 0 5 19 13 43 18 57 13 75 14 82 2z m2017 -34 c54 -18 101 -35
104 -38 3 -4 -39 -27 -93 -53 l-98 -47 -55 17 c-55 17 -130 61 -137 80 -1 6
18 18 45 28 26 10 61 25 77 32 42 19 48 18 157 -19z m-2959 13 c19 -9 26 -21
30 -58 3 -25 9 -61 13 -79 l7 -34 -49 7 c-27 4 -51 9 -53 11 -2 2 -7 36 -10
75 -7 73 -6 75 36 88 1 1 13 -4 26 -10z m97 -19 c0 -11 -2 -20 -5 -20 -2 0 -9
9 -15 20 -9 16 -8 20 5 20 8 0 15 -9 15 -20z m674 1 c21 -23 18 -54 -7 -59
-19 -4 -40 38 -31 63 8 20 17 19 38 -4z m-290 -17 c9 -8 16 -21 16 -29 0 -7 3
-20 6 -29 4 -10 -3 -20 -21 -28 -33 -15 -45 -1 -45 53 0 51 15 62 44 33z m-93
-55 c12 -24 5 -34 -32 -43 -40 -9 -57 16 -30 43 27 27 47 27 62 0z m2237 -16
c26 -15 62 -38 81 -50 19 -13 42 -23 52 -23 21 0 26 -25 7 -36 -6 -4 -79 -10
-162 -14 -142 -7 -176 -3 -176 20 0 7 140 130 148 130 2 0 24 -12 50 -27z
m724 -31 c76 -21 140 -41 143 -44 11 -11 -128 -37 -236 -44 -117 -7 -266 9
-296 32 -17 13 -17 15 7 33 14 11 45 25 70 31 25 6 56 18 70 26 33 19 75 13
242 -34z m1098 32 c0 -28 -16 -47 -136 -164 -243 -235 -382 -379 -468 -483
-49 -59 -97 -107 -106 -107 -20 0 -40 58 -40 114 0 43 -5 44 -42 9 -34 -32
-34 -41 -7 -122 19 -56 20 -64 6 -78 -8 -8 -20 -12 -26 -9 -17 11 -32 83 -26
119 4 17 7 55 9 82 4 74 27 118 77 148 110 66 129 72 222 70 69 -1 87 1 87 12
0 8 -10 17 -22 20 -107 24 -123 25 -177 14 -31 -6 -78 -23 -106 -38 -27 -14
-53 -27 -57 -29 -5 -2 -8 11 -8 29 0 71 216 228 276 201 21 -10 22 -15 14 -37
-13 -35 -13 -35 9 -35 26 0 83 56 79 77 -5 27 -65 56 -114 55 -50 0 -112 -32
-158 -81 -17 -17 -38 -31 -49 -31 -16 0 -18 5 -12 33 4 17 16 52 28 77 l22 45
215 -3 c213 -4 216 -4 285 23 90 34 101 40 155 74 52 34 70 38 70 15z m-5449
-25 c49 -11 91 -24 94 -29 16 -26 -203 -166 -291 -185 -16 -4 -51 -15 -79 -25
-27 -10 -74 -23 -103 -29 -29 -6 -65 -17 -80 -25 -16 -8 -57 -22 -92 -31 -35
-9 -84 -27 -110 -40 -25 -13 -64 -27 -86 -31 -21 -3 -57 -17 -79 -29 -22 -12
-61 -31 -87 -40 -38 -14 -48 -22 -48 -41 0 -36 31 -38 102 -6 34 16 72 32 83
35 11 3 65 22 120 42 55 20 118 41 140 47 22 6 55 17 73 24 18 8 54 19 80 24
26 6 65 19 87 30 97 47 225 90 294 98 68 8 121 6 121 -5 0 -14 -59 -52 -81
-53 -15 0 -38 -9 -52 -20 -14 -11 -34 -20 -46 -20 -35 0 -637 -208 -753 -260
-48 -21 -56 -33 -39 -59 8 -13 16 -13 53 -1 24 7 70 27 103 43 75 37 154 65
225 80 30 7 60 15 65 18 9 6 113 39 122 39 2 0 3 -8 3 -18 0 -13 -19 -24 -72
-42 -40 -13 -97 -36 -127 -52 -30 -15 -62 -28 -71 -28 -9 0 -35 -13 -56 -28
-53 -39 -164 -146 -164 -159 0 -6 7 -16 16 -24 13 -11 24 -4 74 48 45 46 83
72 152 106 93 45 323 125 428 148 77 16 212 18 217 2 3 -8 -5 -13 -21 -13 -27
0 -46 -24 -46 -60 0 -37 28 -34 92 9 34 22 65 41 71 41 5 0 22 9 38 21 16 11
36 18 44 15 18 -7 35 -69 35 -131 0 -81 -72 -213 -95 -174 -4 5 2 26 13 47 10
20 17 43 15 50 -5 13 -65 17 -77 5 -15 -15 -88 -35 -211 -57 -71 -13 -159 -36
-195 -50 -213 -86 -208 -85 -428 -75 -359 16 -411 45 -413 229 0 47 -4 111 -8
142 -7 59 0 88 22 88 13 0 132 81 204 138 23 18 58 39 79 48 20 8 66 38 102
65 36 27 70 49 75 49 6 0 52 25 104 56 51 31 107 60 125 64 69 17 247 11 339
-11z m1259 12 c0 -12 -20 -25 -27 -18 -7 7 6 27 18 27 5 0 9 -4 9 -9z m1690 1
c0 -5 -23 -28 -50 -51 -52 -44 -53 -44 -64 16 -3 20 -1 33 7 37 21 8 107 6
107 -2z m-270 -27 c0 -20 -246 -145 -305 -155 -27 -5 -70 -16 -94 -24 -41 -15
-46 -15 -63 1 -38 34 -20 54 112 122 l125 65 105 6 c114 6 120 5 120 -15z
m-365 -10 c0 -14 -154 -95 -179 -95 -27 1 -56 23 -56 42 0 16 89 54 145 61 48
7 90 3 90 -8z m-1944 -55 c110 -95 328 -214 489 -265 47 -15 107 -39 134 -52
56 -29 261 -83 311 -83 35 0 54 -15 39 -30 -5 -5 -81 -11 -169 -14 -145 -4
-391 -16 -631 -31 l-91 -5 -5 64 c-4 44 -16 87 -38 133 -42 89 -121 333 -107
333 6 0 36 -23 68 -50z m1587 8 c2 -9 -7 -23 -20 -32 -28 -18 -292 -73 -330
-68 -26 3 -28 7 -28 47 0 24 4 47 10 50 5 3 35 8 66 10 31 2 58 6 61 8 2 3 57
4 121 3 101 -1 117 -3 120 -18z m856 -16 c3 -5 -38 -33 -92 -61 -53 -29 -128
-72 -167 -97 -80 -50 -98 -53 -120 -21 -15 21 -14 23 7 40 32 26 159 100 243
141 64 32 72 33 97 20 15 -8 29 -18 32 -22z m1821 12 c28 -28 0 -130 -37 -138
-30 -6 -551 -25 -559 -21 -7 5 -724 7 -754 3 -41 -6 -18 27 39 57 l60 30 204
3 204 2 -7 -30 c-6 -28 -4 -30 20 -30 24 0 26 3 21 25 -4 17 -2 25 6 25 7 1
137 3 288 6 293 5 340 12 415 58 47 29 77 32 100 10z m-3235 -8 c0 -8 -4 -18
-10 -21 -18 -11 -10 -25 14 -25 22 0 35 -21 36 -56 0 -14 -34 -24 -47 -15 -12
9 -42 57 -53 86 -8 22 -6 27 13 35 33 13 47 12 47 -4z m129 -23 c15 -53 14
-83 -5 -90 -21 -8 -34 7 -44 53 -12 48 -4 74 20 74 13 0 22 -11 29 -37z m-240
1 c11 -14 23 -42 27 -61 8 -41 -4 -53 -52 -53 -29 0 -33 4 -53 60 -12 33 -19
65 -16 70 3 6 21 10 40 10 24 0 39 -7 54 -26z m-237 -6 c19 -16 45 -178 32
-200 -11 -18 -56 -8 -91 20 -30 23 -56 168 -32 183 20 13 73 11 91 -3z m979
-8 c10 -6 19 -15 19 -20 0 -26 -310 -103 -465 -115 -44 -3 -97 -8 -117 -10
-28 -4 -38 -2 -38 9 0 9 21 15 73 20 117 10 177 21 272 50 81 25 225 71 233
75 2 0 12 -4 23 -9z m3383 -4 c-6 -17 -52 -42 -61 -33 -3 4 2 16 12 27 21 23
57 28 49 6z m-4208 -154 c29 -94 27 -112 -10 -105 -23 5 -26 10 -24 44 1 22
-4 45 -10 51 -7 7 -12 21 -12 33 0 11 -7 40 -15 64 -13 35 -13 46 -3 58 11 13
15 10 30 -23 10 -22 30 -76 44 -122z m958 69 c17 -19 17 -20 -6 -35 -30 -20
-135 -56 -161 -56 -11 0 -34 -4 -51 -9 -68 -21 -116 -31 -226 -47 -201 -29
-253 -34 -326 -34 -52 1 -74 -3 -84 -15 -21 -25 -25 -18 -27 46 l-3 62 78 -6
c81 -5 266 6 342 21 25 5 87 17 138 26 51 9 126 27 165 40 91 30 138 32 161 7z
m-1888 -45 c3 -14 3 -30 -1 -35 -10 -17 -56 -13 -77 6 -18 16 -18 18 14 35 45
23 57 22 64 -6z m4985 -9 c-8 -8 -11 -7 -11 4 0 20 13 34 18 19 3 -7 -1 -17
-7 -23z m148 12 c-22 -14 -33 -10 -19 6 7 8 17 12 22 9 6 -4 5 -10 -3 -15z
m-4024 -9 c-3 -5 -13 -10 -21 -10 -8 0 -14 5 -14 10 0 6 9 10 21 10 11 0 17
-4 14 -10z m3185 -20 c0 -16 -5 -40 -11 -53 -11 -23 -17 -25 -133 -31 -66 -3
-204 -9 -306 -11 -102 -3 -201 -8 -221 -11 -56 -8 -995 -8 -1008 0 -17 11 5
36 32 36 11 0 44 12 73 26 53 26 53 26 361 29 295 3 683 12 938 20 96 4 217
14 268 24 4 0 7 -12 7 -29z m-2275 -20 c39 -40 31 -44 -108 -58 -123 -13 -165
-9 -146 14 6 8 18 14 26 14 8 0 24 5 36 12 38 21 111 46 138 47 16 1 36 -10
54 -29z m2935 5 c-7 -8 -20 -15 -29 -15 -12 1 -11 5 8 21 26 22 41 18 21 -6z
m-40 -29 c0 -3 -4 -8 -10 -11 -5 -3 -10 -1 -10 4 0 6 5 11 10 11 6 0 10 -2 10
-4z m84 -18 c-15 -26 -48 -58 -61 -58 -19 0 -16 11 14 42 27 28 61 39 47 16z
m-5111 -14 c21 -3 36 -11 34 -17 -1 -5 -32 -17 -67 -27 -36 -9 -75 -22 -87
-28 -28 -15 -113 -15 -150 -1 l-28 12 44 19 c25 11 62 23 83 26 21 2 43 11 50
19 12 15 21 14 121 -3z m1822 -40 c15 -23 20 -24 120 -24 58 0 136 5 175 12
70 12 85 9 92 -21 2 -11 -24 -18 -112 -31 -97 -15 -146 -16 -315 -9 -240 11
-354 22 -380 37 -11 6 -18 12 -15 12 3 0 46 5 95 10 50 5 137 18 195 28 58 10
110 17 117 14 6 -2 19 -15 28 -28z m-1677 -7 c-2 -11 -9 -22 -15 -25 -16 -4
-27 22 -19 43 8 22 38 6 34 -18z m-93 -7 c-3 -5 -10 -10 -16 -10 -5 0 -9 5 -9
10 0 6 7 10 16 10 8 0 12 -4 9 -10z m4323 -12 c16 -16 15 -60 0 -81 -10 -13
-41 -19 -153 -26 -362 -25 -1511 -15 -1607 15 -9 3 -20 14 -23 25 -7 20 -8 20
-34 -5 -25 -24 -29 -25 -119 -19 -51 3 -89 9 -85 13 4 4 55 19 113 33 104 26
110 26 480 25 206 0 528 5 715 11 187 7 374 13 415 14 215 8 286 7 298 -5z
m-4694 -14 c9 -22 -1 -34 -30 -34 -17 0 -24 6 -24 19 0 30 44 42 54 15z m2076
-114 c0 -5 -7 -10 -15 -10 -8 0 -15 5 -15 10 0 6 7 10 15 10 8 0 15 -4 15 -10z
m71 -5 c-1 -15 -24 -12 -29 3 -3 9 2 13 12 10 10 -1 17 -7 17 -13z m89 -4 c0
-16 -20 -23 -46 -17 -36 9 -29 26 11 26 19 0 35 -4 35 -9z m320 -7 c63 -4 295
-10 515 -14 220 -3 401 -7 403 -8 1 -1 2 -16 2 -33 l0 -32 -177 8 c-98 5 -223
9 -278 10 -153 3 -530 24 -621 34 -44 5 -93 16 -109 23 -28 13 -27 13 40 18
39 3 79 5 90 3 11 -1 72 -6 135 -9z m2130 -39 c0 -38 -3 -45 -22 -50 -82 -19
-991 -18 -1090 1 l-26 5 30 30 c17 16 36 29 42 29 6 1 83 -1 171 -2 338 -6
708 2 760 16 28 8 69 15 93 15 l42 1 0 -45z m-2852 -20 c147 -9 274 -19 282
-22 8 -4 65 -10 125 -14 160 -10 394 -27 515 -39 58 -6 237 -13 399 -16 162
-3 297 -7 301 -9 4 -2 147 -7 318 -10 171 -3 323 -10 337 -15 14 -6 37 -10 51
-10 31 0 32 -26 2 -36 -54 -18 -872 3 -1058 26 -41 5 -133 12 -205 15 -71 3
-238 9 -371 14 -251 10 -466 24 -643 42 -58 6 -154 12 -215 15 -61 3 -167 11
-236 19 -69 7 -163 14 -209 15 -85 1 -101 4 -101 20 0 22 371 24 708 5z m-478
-105 c52 -6 140 -18 195 -26 89 -13 337 -34 755 -64 74 -6 219 -14 322 -19
111 -5 193 -13 201 -19 9 -8 24 -9 47 -2 18 5 36 7 40 5 4 -3 135 -7 290 -9
160 -3 287 -9 292 -14 6 -6 8 -18 6 -28 -3 -18 -15 -19 -203 -17 -110 2 -290
5 -400 8 -110 2 -319 7 -465 10 -146 3 -305 10 -355 14 -49 5 -103 9 -120 9
-16 0 -111 7 -210 16 -208 20 -469 38 -505 35 -50 -3 -68 -3 -235 10 -93 6
-234 9 -312 7 -91 -4 -144 -2 -148 4 -10 15 27 73 56 87 29 15 599 9 749 -7z
m3330 -19 c0 -53 -34 -68 -107 -46 -6 2 -60 0 -120 -4 -141 -10 -190 -5 -198
20 -13 41 7 47 158 43 79 -1 165 1 193 5 75 13 74 13 74 -18z m-4424 -47 c-15
-39 -16 -60 -3 -78 14 -19 16 -19 67 8 28 15 55 25 58 22 15 -16 -20 -50 -78
-76 -73 -33 -141 -38 -205 -15 -22 8 -62 15 -90 15 -27 1 -68 4 -90 8 -51 9
-54 34 -5 43 19 4 49 12 65 17 17 6 64 18 105 27 41 9 89 22 105 30 43 19 79
19 71 -1z m4362 -50 c26 -7 27 -20 6 -74 l-17 -41 -81 6 c-44 4 -211 8 -370
10 -431 5 -626 15 -626 31 0 7 11 21 24 29 26 17 68 19 636 30 178 3 326 8
329 10 6 7 72 6 99 -1z m-3691 -44 c84 -5 159 -7 167 -4 8 3 49 -1 91 -10 43
-9 109 -16 149 -16 39 -1 141 -8 226 -16 104 -9 399 -17 900 -24 410 -5 819
-15 910 -20 91 -6 242 -10 335 -10 364 2 430 -2 440 -28 3 -8 0 -19 -6 -23
-26 -16 -350 -21 -946 -15 -345 4 -702 9 -793 11 -91 3 -345 9 -565 15 -220 6
-452 15 -515 20 -63 6 -155 10 -205 9 -389 -2 -761 3 -769 11 -5 5 13 19 43
34 30 16 57 38 65 55 l15 29 153 -5 c84 -2 221 -8 305 -13z m-1563 -56 c49 -2
101 -6 115 -9 44 -9 329 -37 444 -42 74 -4 110 -9 113 -18 3 -7 -6 -59 -20
-115 -19 -77 -37 -120 -71 -176 -52 -84 -81 -109 -138 -125 -51 -14 -80 -6
-145 38 -47 32 -61 36 -109 35 -72 -2 -261 -30 -284 -43 -10 -5 -69 -14 -131
-21 -160 -15 -328 11 -328 52 0 6 37 34 83 63 112 73 150 108 205 190 26 39
55 82 64 96 10 14 21 41 24 60 7 33 7 33 48 26 22 -4 81 -9 130 -11z m5566
-10 c0 -8 -4 -12 -10 -9 -5 3 -10 10 -10 16 0 5 5 9 10 9 6 0 10 -7 10 -16z
m-502 -41 c75 -4 112 -10 112 -18 0 -12 -82 -75 -98 -75 -5 0 -12 7 -16 15 -3
8 -12 15 -20 15 -7 0 -17 8 -20 17 -6 14 -9 15 -15 4 -6 -10 -31 -14 -81 -13
-59 0 -76 4 -93 20 l-20 21 34 9 c43 13 76 14 217 5z m-4221 -38 c18 -31 -5
-187 -42 -294 -47 -135 -79 -197 -123 -243 -31 -33 -42 -38 -82 -38 -25 0 -63
5 -85 11 -98 26 -325 59 -409 59 -91 0 -281 -18 -381 -37 -231 -43 -261 -49
-365 -77 -135 -37 -358 -35 -419 4 -22 13 1 58 36 71 16 6 37 19 48 29 25 24
162 80 195 80 14 1 36 7 50 15 37 21 60 18 131 -14 118 -54 331 -47 624 18
150 34 197 27 259 -38 28 -29 34 -31 100 -31 65 0 76 3 128 38 31 21 71 56 89
77 39 49 93 163 109 230 7 28 19 74 27 103 l14 52 44 0 c29 0 47 -5 52 -15z
m4803 -21 c0 -8 -4 -12 -10 -9 -5 3 -10 13 -10 21 0 8 5 12 10 9 6 -3 10 -13
10 -21z m-4445 -24 c52 -15 257 -22 548 -19 155 1 484 2 731 1 427 0 487 -4
463 -28 -10 -10 -180 -26 -312 -30 -453 -14 -732 -16 -739 -5 -5 8 -13 8 -28
0 -41 -22 -327 -28 -339 -7 -4 7 -15 22 -23 33 -15 19 -15 19 -16 -13 l0 -32
-290 1 -290 0 0 37 c0 20 3 48 7 60 l6 24 126 -7 c69 -3 140 -10 156 -15z
m3849 -25 c-2 -14 -133 -93 -174 -105 -30 -8 -172 -11 -365 -7 -27 0 -115 -3
-195 -7 -96 -5 -187 -4 -270 4 -69 7 -154 14 -190 16 -36 2 -76 6 -89 9 -14 4
-59 10 -100 15 -42 6 -107 15 -146 21 -38 6 -101 14 -139 18 -44 4 -71 11 -74
19 -3 11 21 13 119 11 68 -1 194 -2 279 -1 85 1 281 -1 435 -5 318 -7 380 -7
485 7 41 5 135 9 208 9 74 0 136 2 140 6 10 10 77 1 76 -10z m-1854 -4 c0 -16
-30 -21 -125 -21 -84 0 -115 7 -99 23 9 9 224 7 224 -2z m65 -6 c0 -5 -10 -11
-22 -13 -16 -2 -23 2 -23 13 0 11 7 15 23 13 12 -2 22 -7 22 -13z m-50 -45 c3
-5 -1 -10 -9 -10 -9 0 -16 5 -16 10 0 6 4 10 9 10 6 0 13 -4 16 -10z m240 -9
c3 -5 1 -12 -4 -15 -13 -8 -42 4 -35 15 7 12 31 12 39 0z m1021 -568 c-31
-470 -60 -679 -130 -923 -14 -47 -28 -101 -33 -120 l-9 -35 -124 -1 c-69 -1
-161 -5 -205 -9 -44 -4 -118 -8 -165 -10 -47 -1 -132 -5 -190 -9 -141 -8
-1038 -10 -1275 -2 -104 3 -255 8 -335 11 -191 6 -230 11 -230 34 0 9 9 57 20
107 11 49 27 121 35 159 8 39 25 104 37 145 11 41 22 95 23 120 5 91 40 303
68 411 21 80 59 131 87 114 4 -2 81 0 171 5 90 5 245 14 344 20 99 6 198 15
220 20 23 6 328 13 735 17 975 9 914 7 932 28 26 29 31 14 24 -82z m596 27
c18 -182 28 -373 27 -536 -1 -99 3 -209 9 -245 6 -35 16 -109 21 -164 6 -55
16 -147 22 -205 24 -225 39 -424 49 -635 5 -121 14 -272 19 -335 14 -166 18
-414 6 -420 -32 -17 -83 343 -100 710 -6 134 -26 296 -61 495 -8 44 -18 118
-24 163 -5 46 -12 87 -14 90 -2 4 -7 86 -11 182 -4 96 -11 254 -17 350 -5 96
-13 261 -17 365 -4 105 -11 199 -15 211 -9 25 23 44 69 41 29 -2 30 -4 37 -67z
m528 27 c0 -18 -2 -19 -10 -7 -13 20 -13 43 0 35 6 -3 10 -16 10 -28z m-5101
3 c48 0 47 5 26 -145 -7 -55 -19 -138 -25 -185 -6 -47 -18 -119 -28 -160 -9
-41 -16 -84 -14 -95 1 -11 -2 -31 -8 -45 -5 -14 -21 -89 -34 -167 -14 -79 -28
-148 -31 -154 -4 -5 -11 -34 -15 -62 -10 -58 -12 -66 -68 -287 -22 -85 -47
-180 -57 -210 -43 -137 -149 -439 -167 -474 -17 -32 -18 -43 -8 -67 13 -30 40
-38 58 -17 6 7 29 72 52 143 22 72 58 184 80 250 50 154 116 406 124 470 3 28
22 113 41 190 19 77 35 155 35 172 0 32 5 57 35 183 19 77 44 211 55 295 9 64
21 142 41 268 11 67 16 78 35 83 50 13 59 3 58 -61 0 -33 -10 -103 -22 -155
-11 -52 -26 -126 -32 -165 -7 -38 -18 -104 -25 -145 -8 -41 -17 -97 -20 -125
-7 -47 -41 -189 -122 -495 -51 -195 -55 -217 -57 -302 -2 -55 -7 -82 -18 -95
-28 -31 -76 -198 -103 -355 -17 -104 -50 -234 -72 -289 -11 -28 -23 -41 -42
-45 -14 -4 -36 -15 -48 -26 -35 -32 -65 -20 -78 29 -12 50 -27 68 -51 59 -13
-5 -15 -15 -11 -47 5 -36 3 -40 -15 -37 -33 5 -70 115 -69 205 0 86 29 217 66
299 15 32 44 106 65 164 21 58 58 155 83 215 25 61 61 162 81 225 44 141 124
457 132 525 4 28 17 91 30 140 31 125 44 227 44 361 0 127 9 160 40 144 10 -5
37 -10 59 -10z m4126 -10 c0 -27 24 -31 64 -10 51 26 84 27 77 3 -3 -10 -8
-52 -11 -93 -3 -41 -13 -113 -20 -160 -8 -47 -24 -168 -36 -269 -23 -189 -21
-284 9 -589 4 -41 4 -76 -1 -79 -4 -2 -40 15 -80 38 -122 72 -119 72 -187 58
-33 -6 -64 -9 -67 -5 -4 4 9 55 30 114 37 111 49 162 67 295 5 43 18 94 29
115 10 20 21 71 25 112 4 41 11 100 16 130 18 96 23 254 11 292 -17 51 -6 70
38 66 24 -2 36 -8 36 -18z m276 -18 c10 -11 28 -211 34 -387 9 -229 24 -493
35 -615 19 -200 28 -262 83 -597 18 -103 21 -145 13 -152 -6 -4 -81 -11 -167
-15 -143 -6 -157 -5 -172 12 -15 16 -15 23 -3 58 14 38 34 175 43 286 4 51 9
60 39 83 39 30 42 45 13 71 -43 39 -52 73 -60 234 -18 316 -8 601 26 780 3 14
9 74 15 133 5 60 12 113 16 119 6 10 73 2 85 -10z m-3341 -15 l125 -3 -2 -48
c-1 -27 -15 -85 -32 -130 -16 -45 -48 -137 -69 -206 -37 -115 -59 -195 -128
-460 -14 -52 -29 -108 -35 -125 -6 -16 -14 -43 -18 -60 l-7 -30 -99 1 c-55 1
-140 4 -190 8 -134 11 -395 13 -401 4 -3 -5 -15 -1 -27 7 -12 8 -30 15 -39 15
-31 0 -43 43 -29 98 7 26 19 87 27 136 8 50 21 115 28 145 8 31 19 94 26 141
6 47 23 134 37 194 19 80 23 114 15 130 -7 17 -4 35 14 77 13 29 23 66 24 81
l0 28 268 3 c147 1 294 1 327 -1 33 -2 116 -4 185 -5z m348 -19 c19 -19 15
-63 -22 -223 -19 -82 -47 -220 -61 -305 -14 -85 -30 -165 -35 -177 -13 -30
-50 -256 -50 -299 0 -20 -5 -45 -11 -56 -10 -19 -17 -20 -87 -14 -43 4 -94 9
-114 12 -44 7 -45 -9 9 189 38 140 73 304 73 346 0 100 132 494 176 526 22 16
106 17 122 1z m3650 -11 c2 -10 -3 -17 -12 -17 -10 0 -16 9 -16 21 0 24 23 21
28 -4z m39 -39 c-3 -8 -6 -5 -6 6 -1 11 2 17 5 13 3 -3 4 -12 1 -19z m-42 -58
c3 -5 -1 -10 -9 -10 -9 0 -16 5 -16 10 0 6 4 10 9 10 6 0 13 -4 16 -10z m3
-117 c-4 -34 -28 -43 -28 -10 0 25 7 37 22 37 5 0 8 -12 6 -27z m2 -137 c0
-19 -4 -26 -9 -20 -9 9 -14 36 -12 64 2 27 21 -12 21 -44z m10 -382 c0 -8 -4
-12 -10 -9 -5 3 -10 13 -10 21 0 8 5 12 10 9 6 -3 10 -13 10 -21z m-4825 -355
c50 -4 206 -13 348 -18 142 -6 266 -12 275 -15 40 -12 489 -35 732 -38 872 -8
1678 1 1865 22 55 6 157 13 227 15 70 2 146 9 168 15 59 16 134 2 235 -42 132
-58 140 -62 140 -77 0 -17 -5 -20 -130 -66 -87 -32 -137 -50 -280 -97 -16 -6
-50 -14 -75 -19 -25 -4 -101 -19 -170 -33 -197 -38 -324 -48 -477 -35 -77 6
-150 7 -175 2 -82 -16 -528 -2 -708 22 -58 8 -206 19 -330 25 -133 7 -247 18
-279 26 -30 9 -77 17 -105 19 -108 7 -233 24 -291 39 -49 13 -165 17 -625 22
-311 3 -566 7 -567 8 -2 1 6 32 16 69 11 37 23 92 27 123 l7 56 41 -7 c22 -4
82 -11 131 -16z m3975 -257 c0 -21 -11 -61 -25 -88 -19 -37 -25 -65 -25 -111
0 -77 -5 -78 -117 -31 -79 32 -169 105 -161 130 2 7 43 27 90 43 72 26 132 52
198 86 31 16 40 9 40 -29z m-3016 -75 c23 -16 31 -79 18 -142 -19 -97 -51
-198 -66 -213 -17 -18 -84 -28 -248 -38 -142 -9 -142 -9 -118 60 10 30 30 110
45 178 39 186 18 168 198 168 109 0 158 -4 171 -13z m211 -32 c44 -8 118 -22
165 -31 47 -9 137 -20 200 -24 129 -9 308 -28 319 -34 17 -11 1134 -8 1254 2
71 7 132 14 136 16 6 4 211 40 283 50 32 4 43 -1 80 -33 56 -49 159 -121 171
-121 6 0 19 -8 29 -17 10 -9 37 -19 60 -22 47 -7 55 -18 34 -46 -14 -19 -27
-20 -393 -18 -307 2 -1856 1 -2008 0 -63 -1 -425 -26 -472 -33 -35 -5 -44 -3
-49 11 -4 10 -1 27 6 38 33 53 51 132 44 195 -7 70 5 98 40 87 12 -3 57 -12
101 -20z m-1918 -37 c-15 -9 -19 -4 -11 16 5 14 9 15 15 5 5 -8 3 -17 -4 -21z
m5084 -335 c4 -213 25 -385 70 -576 11 -49 5 -73 -11 -47 -6 8 -10 26 -10 39
0 25 -10 60 -37 136 -33 94 -77 454 -59 484 4 6 16 11 27 11 16 0 19 -7 20
-47z m241 -419 c3 -44 -2 -61 -16 -47 -9 10 -7 93 3 93 5 0 11 -21 13 -46z
m38 -60 c0 -8 -5 -12 -10 -9 -6 4 -8 11 -5 16 9 14 15 11 15 -7z m-32 -54 c18
-58 16 -150 -3 -150 -12 0 -15 14 -15 64 0 35 -3 78 -6 95 -9 45 9 38 24 -9z
m32 10 c0 -5 -2 -10 -4 -10 -3 0 -8 5 -11 10 -3 6 -1 10 4 10 6 0 11 -4 11
-10z"/>
<path d="M4806 12364 c-8 -21 -1 -28 19 -20 9 3 15 11 13 18 -7 19 -25 20 -32
2z"/>
<path d="M4783 12278 c-16 -20 -59 -163 -87 -288 -25 -111 -26 -120 -15 -250
6 -74 12 -175 14 -225 1 -49 7 -121 13 -160 6 -38 20 -139 32 -223 17 -125 31
-183 76 -315 31 -89 74 -196 96 -237 109 -201 130 -235 176 -298 46 -63 88
-128 122 -190 8 -15 27 -43 41 -62 63 -83 111 -349 79 -444 -15 -45 -60 -84
-108 -91 -132 -20 -140 -24 -182 -80 -22 -30 -50 -78 -64 -108 -25 -57 -57
-87 -139 -131 -58 -30 -100 -28 -215 11 -94 31 -241 90 -267 107 -34 22 -147
56 -186 56 -28 0 -51 -11 -100 -49 -105 -80 -173 -91 -250 -42 -48 30 -82 75
-94 126 -3 16 -12 36 -18 44 -6 7 -12 32 -13 55 -1 22 -5 61 -8 86 -12 77 30
210 97 311 68 102 178 255 270 375 37 49 84 123 103 164 20 41 41 84 47 95 47
89 86 522 58 635 -6 25 -14 58 -16 74 -2 16 -12 40 -20 53 -9 14 -14 30 -12
37 6 15 -25 114 -46 148 -8 12 -17 39 -21 58 -3 19 -38 99 -76 177 -80 162
-146 247 -175 223 -10 -8 -14 -22 -11 -36 6 -23 -38 -114 -55 -114 -6 0 -15
-13 -20 -30 -9 -25 -16 -30 -43 -30 -28 0 -35 -5 -50 -37 -58 -129 -155 -253
-198 -253 -21 0 -37 -22 -53 -72 -10 -31 -37 -68 -102 -133 -95 -98 -105 -113
-159 -255 -49 -130 -65 -199 -53 -222 22 -40 49 -11 49 54 0 14 9 47 20 73 18
42 23 46 45 41 21 -5 25 -3 25 18 0 14 10 30 24 40 13 8 27 29 31 46 5 22 22
42 56 67 37 26 52 45 61 76 17 57 243 287 282 287 20 0 30 9 46 39 11 22 24
42 28 45 5 3 15 26 22 51 7 25 16 45 19 45 4 0 32 18 61 40 29 22 59 40 65 40
13 0 68 -112 114 -233 36 -94 85 -281 105 -397 14 -86 12 -289 -4 -320 -4 -8
-15 -49 -25 -90 -34 -142 -107 -300 -200 -437 -48 -71 -104 -148 -125 -173
-21 -25 -53 -70 -73 -100 -19 -31 -43 -62 -52 -70 -9 -7 -28 -35 -41 -62 -13
-26 -28 -48 -33 -48 -5 0 -8 41 -6 90 3 104 -8 115 -50 52 -24 -37 -26 -48
-30 -203 -3 -90 -5 -238 -6 -329 -1 -91 -7 -201 -15 -245 -25 -146 -44 -284
-44 -322 -1 -21 -7 -65 -15 -98 -8 -33 -15 -77 -15 -97 0 -40 -35 -179 -53
-213 -6 -11 -14 -38 -18 -60 -8 -45 -49 -145 -69 -170 -7 -9 -17 -35 -21 -58
-4 -23 -16 -91 -27 -152 -40 -221 -45 -461 -13 -630 7 -33 18 -94 26 -135 12
-63 35 -228 35 -251 0 -11 51 -69 60 -69 19 0 17 33 -6 104 -14 45 -24 101
-24 134 0 32 -8 105 -19 163 -46 253 -31 485 51 804 17 66 33 131 35 145 10
53 46 166 56 178 15 19 27 -3 27 -50 0 -48 19 -138 30 -138 23 0 28 27 15 83
-24 104 -21 284 9 450 14 82 26 179 26 217 0 69 28 361 35 369 9 9 37 -25 52
-61 15 -37 31 -50 138 -109 27 -15 68 -25 125 -30 l85 -8 115 55 c74 34 129
54 153 54 46 0 181 -42 277 -87 154 -72 241 -79 333 -29 142 77 163 90 187
111 14 13 48 30 75 39 28 9 67 27 87 41 20 14 40 25 43 25 11 0 44 42 67 85
36 68 68 176 68 231 0 100 -97 438 -140 489 -9 11 -32 43 -50 70 -19 28 -61
83 -94 124 -72 86 -83 103 -133 196 -49 91 -65 133 -52 141 14 8 86 -53 154
-131 33 -37 66 -65 76 -65 11 0 19 3 19 8 0 4 -29 37 -64 74 -36 37 -67 76
-71 87 -6 21 -116 101 -138 101 -21 0 -69 96 -70 138 0 20 -7 45 -15 55 -8 9
-19 36 -23 60 -4 23 -17 78 -28 122 -41 160 -53 238 -49 335 2 56 7 95 13 94
6 -1 18 -17 27 -36 9 -19 34 -46 56 -61 30 -20 49 -45 76 -100 38 -80 102
-154 159 -184 19 -10 53 -35 76 -56 69 -62 74 -136 24 -346 -11 -48 -13 -69
-4 -87 15 -35 27 -30 43 18 8 23 20 44 26 46 16 5 16 -82 1 -111 -14 -26 -16
-124 -2 -138 6 -6 14 5 22 33 7 24 19 54 28 66 8 14 12 34 9 48 -7 28 19 98
34 89 16 -10 12 -204 -5 -261 -19 -61 -19 -74 -1 -74 8 0 17 13 21 29 3 16 17
39 30 51 19 18 22 26 14 44 -13 28 7 89 21 66 6 -8 8 -28 5 -45 -2 -16 -7 -69
-10 -117 -5 -72 -3 -88 8 -88 8 0 24 23 35 51 30 72 46 57 38 -37 -6 -74 -6
-74 19 -74 24 0 25 3 25 60 0 44 4 60 14 60 20 0 30 -18 50 -83 15 -48 20 -56
32 -46 9 7 14 27 12 50 -4 68 18 60 61 -22 30 -55 46 -64 60 -33 l12 27 24
-23 c21 -20 25 -21 31 -7 3 9 -1 40 -10 71 -9 30 -16 61 -16 70 0 37 34 11 78
-59 29 -47 54 -75 65 -75 50 0 -9 130 -106 233 -18 19 -47 51 -66 72 -20 23
-64 51 -108 72 -87 40 -135 80 -170 142 -14 25 -41 69 -60 97 -19 28 -38 67
-43 85 -22 91 -86 225 -119 250 -14 10 -37 28 -49 39 -32 27 -49 25 -56 -5 -4
-14 -11 -25 -16 -25 -13 0 -33 39 -39 80 -5 27 -13 37 -36 45 -39 13 -42 18
-50 82 -7 57 -25 83 -56 83 -13 0 -25 12 -35 35 -11 27 -20 35 -39 35 -27 0
-40 18 -50 73 -9 45 -18 52 -45 35 -17 -11 -22 -11 -30 2 -5 8 -10 23 -10 33
0 10 -8 17 -19 17 -28 0 -30 35 -10 147 35 188 48 243 68 289 27 60 28 104 2
104 -10 0 -23 -6 -28 -12z m767 -1823 c0 -8 -2 -15 -4 -15 -2 0 -6 7 -10 15
-3 8 -1 15 4 15 6 0 10 -7 10 -15z m210 -105 c0 -11 -4 -20 -9 -20 -14 0 -23
18 -16 30 10 17 25 11 25 -10z m-2117 -631 c-3 -12 -9 -17 -15 -11 -10 10 0
44 12 37 5 -3 6 -14 3 -26z m-3 -321 c0 -32 -18 -19 -24 18 -4 19 -9 43 -12
52 -3 9 4 1 15 -18 11 -19 20 -43 21 -52z"/>
<path d="M5020 12268 c0 -13 9 -64 21 -113 19 -82 26 -97 75 -155 37 -44 54
-73 54 -92 0 -15 11 -39 25 -54 14 -15 25 -34 25 -44 0 -9 14 -29 30 -45 21
-20 30 -38 30 -60 -1 -80 14 -106 89 -147 25 -14 30 -22 26 -40 -7 -29 55
-137 101 -176 17 -15 70 -49 116 -75 47 -27 114 -74 149 -106 44 -40 81 -64
119 -76 98 -32 125 -63 96 -107 -14 -22 -13 -27 17 -71 18 -26 42 -50 54 -53
13 -3 31 -20 42 -38 24 -38 106 -101 141 -108 14 -3 33 -9 43 -13 15 -6 17 -1
17 34 0 36 -6 46 -51 88 -63 59 -73 77 -59 104 9 17 6 28 -19 67 -32 50 -129
140 -197 184 -38 24 -43 31 -46 70 l-3 43 -83 25 c-76 22 -84 27 -89 53 -3 16
-11 30 -17 32 -6 1 -32 10 -58 20 l-48 17 6 40 c9 51 -1 57 -82 50 -55 -4 -64
-2 -64 12 0 10 9 16 25 16 23 0 25 4 25 43 0 50 -13 67 -51 67 -15 0 -34 3
-43 6 -27 10 -18 24 17 24 61 0 82 55 26 67 -26 5 -30 9 -25 29 8 29 -21 101
-44 114 -12 6 -29 6 -50 -1 -45 -16 -50 -2 -10 32 34 28 34 30 16 44 -11 8
-23 15 -27 15 -4 0 -12 14 -18 31 -6 17 -20 33 -31 36 -12 3 -28 24 -40 51
-26 58 -47 82 -73 82 -34 0 -106 48 -113 75 -8 33 -44 35 -44 3z m523 -825
c-7 -2 -19 -2 -25 0 -7 3 -2 5 12 5 14 0 19 -2 13 -5z"/>
<path d="M4864 11923 c-4 -21 -15 -50 -26 -65 -11 -16 -17 -32 -14 -36 3 -5
30 -28 60 -51 70 -54 112 -55 138 -2 21 43 14 65 -21 58 -40 -8 -93 39 -95 84
-1 31 -11 48 -28 49 -4 0 -10 -17 -14 -37z"/>
<path d="M3886 11317 c-39 -51 -63 -129 -74 -245 -8 -80 -18 -118 -41 -169
-17 -36 -31 -80 -31 -98 0 -50 -26 -176 -43 -210 -9 -17 -23 -49 -33 -73 -10
-24 -43 -71 -74 -104 -54 -59 -58 -61 -117 -68 -45 -6 -73 -16 -105 -39 -39
-28 -50 -31 -85 -25 -31 5 -51 1 -80 -14 -21 -10 -51 -26 -67 -33 -42 -20 -78
-82 -104 -180 -13 -46 -29 -106 -37 -133 -17 -61 -7 -90 44 -120 l34 -20 17
22 c9 11 23 48 29 81 7 34 16 61 20 61 4 0 13 -18 20 -40 9 -30 9 -50 0 -85
-6 -25 -9 -48 -6 -52 13 -12 37 8 37 32 0 14 5 25 10 25 6 0 10 -16 10 -35 0
-19 5 -36 10 -36 6 -1 15 -2 21 -3 6 -1 32 40 57 89 27 51 53 90 62 90 8 0 19
-17 26 -40 14 -52 42 -54 66 -5 10 19 27 38 38 42 17 6 20 17 21 80 2 93 10
132 30 136 9 2 21 -10 30 -30 7 -18 21 -33 29 -33 12 0 16 19 18 98 2 87 5 98
20 95 13 -2 18 -17 22 -68 7 -92 27 -116 50 -61 7 18 10 72 9 147 l-3 119 52
90 c61 105 67 124 88 270 8 61 24 146 36 190 14 58 18 94 13 130 -13 92 -10
123 14 155 23 32 26 90 4 97 -6 2 -23 -11 -37 -30z"/>
<path d="M2946 10757 c-11 -17 -13 -33 -5 -71 5 -27 7 -51 4 -54 -8 -8 15 -42
30 -42 29 0 37 37 25 110 -13 75 -31 94 -54 57z"/>
<path d="M5220 10396 c0 -28 35 -76 56 -76 23 0 19 77 -5 90 -33 17 -51 12
-51 -14z"/>
<path d="M3491 9728 c-7 -46 -16 -164 -21 -263 -5 -99 -14 -198 -19 -220 -13
-51 -14 -85 -1 -85 5 0 12 12 15 28 3 15 16 68 30 117 20 78 24 117 27 294 2
144 0 205 -8 208 -7 2 -16 -27 -23 -79z"/>
<path d="M3107 9532 c-9 -10 -23 -33 -31 -52 -8 -19 -24 -48 -35 -65 -11 -16
-23 -50 -27 -75 -4 -25 -15 -67 -25 -93 -21 -53 -26 -175 -9 -208 14 -25 62
-49 98 -49 45 0 82 36 121 119 31 66 35 85 35 151 -1 120 -18 224 -43 259 -25
35 -59 41 -84 13z m52 -124 c16 -36 17 -54 10 -108 -11 -93 -35 -187 -53 -216
-18 -26 -47 -32 -64 -11 -29 34 -23 92 29 292 9 34 43 85 56 85 2 0 12 -19 22
-42z"/>
<path d="M3015 8789 c-22 -7 -39 -25 -63 -66 -29 -51 -38 -75 -59 -160 -6 -25
44 -83 70 -83 27 0 76 68 97 136 32 106 36 141 15 164 -20 22 -18 22 -60 9z
m13 -116 c3 -19 -46 -89 -55 -79 -3 3 3 28 12 56 17 51 37 62 43 23z"/>
<path d="M3682 8664 c-8 -17 -13 -103 -27 -479 -3 -60 -7 -132 -10 -160 -2
-27 -7 -144 -10 -260 -3 -115 -8 -226 -11 -245 -2 -19 -9 -138 -15 -265 -21
-482 -20 -466 -38 -463 -25 5 -44 110 -33 177 5 29 6 69 2 88 -5 19 -4 49 1
66 13 44 30 341 25 419 -3 35 -5 86 -6 113 0 28 -5 57 -10 65 -9 13 -12 13
-24 -3 -11 -14 -13 -43 -8 -130 3 -62 6 -160 6 -219 1 -105 0 -107 -28 -137
-29 -31 -29 -31 -18 -95 7 -35 12 -97 12 -137 0 -71 28 -225 51 -280 6 -15 21
-31 34 -37 14 -7 37 -37 55 -72 25 -49 35 -60 55 -60 40 0 40 24 1 82 -20 29
-36 61 -36 70 0 10 -8 33 -17 53 -32 67 23 72 57 6 23 -46 45 -65 65 -57 23 8
18 34 -15 87 -34 52 -50 62 -85 53 -33 -8 -41 27 -27 119 6 40 14 160 17 267
3 107 8 211 10 230 2 19 7 127 10 240 3 113 10 248 16 300 14 136 29 663 19
674 -4 4 -12 0 -18 -10z"/>
<path d="M2872 8418 c-16 -16 -15 -62 3 -105 13 -31 17 -34 31 -22 12 10 15
24 10 57 -7 55 -28 86 -44 70z"/>
<path d="M4050 7888 c-17 -57 -46 -134 -64 -173 -54 -113 -98 -305 -70 -305 7
0 19 30 29 73 17 74 105 310 128 341 8 11 19 15 31 10 17 -7 18 -18 14 -150
-5 -135 1 -179 19 -160 11 10 11 261 1 360 -5 44 -13 86 -19 93 -24 29 -38 11
-69 -89z"/>
<path d="M3927 7833 c-2 -5 -7 -20 -11 -35 -4 -18 -13 -28 -24 -28 -13 0 -23
-15 -36 -55 -9 -30 -26 -61 -36 -68 -45 -31 -70 -156 -95 -481 l-16 -199 27
-53 c37 -74 67 -100 110 -95 25 2 22 42 -5 74 -44 50 -58 86 -69 173 -13 109
-4 168 48 304 55 147 130 411 130 461 0 11 -17 12 -23 2z"/>
<path d="M3429 7657 c-12 -26 3 -286 18 -309 8 -13 9 -7 28 108 5 29 2 58 -10
94 -10 30 -15 66 -12 86 7 41 -9 54 -24 21z"/>
<path d="M6564 7630 c-39 -15 -34 -27 14 -37 26 -6 53 -12 60 -14 8 -2 19 4
25 14 23 35 -43 60 -99 37z"/>
<path d="M6473 7554 c-3 -8 -1 -20 6 -27 8 -8 11 -4 11 16 0 30 -7 35 -17 11z"/>
<path d="M1255 7288 c4 -24 15 -72 26 -107 10 -35 19 -71 19 -80 0 -9 11 -37
25 -63 13 -25 36 -77 50 -114 14 -38 41 -103 60 -144 48 -105 108 -262 135
-350 28 -93 30 -220 5 -296 -21 -66 -17 -108 11 -112 27 -4 69 45 84 96 25 92
1 234 -66 384 -20 46 -47 108 -59 138 -12 30 -63 154 -113 275 -83 204 -102
257 -132 373 -8 32 -16 42 -31 42 -19 0 -20 -4 -14 -42z"/>
<path d="M1335 7300 c-5 -8 35 -96 77 -170 5 -8 17 -33 28 -55 11 -22 29 -53
40 -70 11 -16 20 -38 20 -48 0 -10 8 -30 19 -45 49 -72 104 -177 123 -234 12
-35 27 -70 33 -78 7 -8 22 -40 33 -70 22 -62 47 -76 56 -33 7 33 -7 89 -30
114 -15 16 -15 20 0 41 9 12 16 27 16 34 0 11 -161 316 -192 364 -9 14 -26 50
-37 80 -14 38 -39 74 -82 118 -57 58 -90 75 -104 52z m275 -414 c0 -11 -19
-15 -25 -6 -3 5 1 10 9 10 9 0 16 -2 16 -4z"/>
<path d="M2896 6249 c-25 -37 -21 -84 11 -109 l28 -21 18 22 c23 29 16 74 -17
108 l-23 23 -17 -23z"/>
<path d="M7489 5930 c-31 -25 -13 -26 26 0 20 13 24 20 14 20 -9 0 -27 -9 -40
-20z"/>
<path d="M8212 4090 c-34 -80 -71 -204 -69 -235 1 -16 -3 -54 -7 -84 -8 -50
-7 -53 10 -43 19 10 25 32 59 202 8 41 23 96 32 121 12 34 13 51 5 65 -9 17
-13 14 -30 -26z"/>
<path d="M8032 3917 c-25 -26 -35 -47 -42 -88 -4 -30 -13 -89 -20 -131 -13
-81 -8 -132 13 -125 13 4 21 31 37 132 9 58 29 119 66 200 2 6 -1 18 -8 28
-12 16 -16 15 -46 -16z"/>
<path d="M8067 3633 c-3 -5 -8 -27 -12 -50 -4 -23 -15 -54 -26 -67 -19 -25
-19 -25 0 -35 34 -19 51 -12 67 24 17 40 18 88 4 116 -11 20 -25 25 -33 12z"/>
<path d="M360 6045 c-63 -30 -138 -59 -166 -65 -106 -22 -184 -100 -100 -100
33 0 220 63 326 110 36 16 77 31 92 34 15 3 34 14 44 23 15 16 15 18 -6 35
-35 28 -66 22 -190 -37z"/>
<path d="M7578 374 c-5 -4 -8 -19 -8 -33 0 -18 3 -22 11 -14 6 6 9 21 7 33 -1
12 -6 18 -10 14z"/>
</g>
</svg>
