<?xml version="1.0" standalone="no"?>
<!DOCTYPE svg PUBLIC "-//W3C//DTD SVG 20010904//EN"
 "http://www.w3.org/TR/2001/REC-SVG-20010904/DTD/svg10.dtd">
<svg version="1.0" xmlns="http://www.w3.org/2000/svg"
 width="1280.000000pt" height="640.000000pt" viewBox="0 0 1280.000000 640.000000"
 preserveAspectRatio="xMidYMid meet">
<metadata>
Created by potrace 1.15, written by Peter Selinger 2001-2017
</metadata>
<g transform="translate(0.000000,640.000000) scale(0.100000,-0.100000)"
fill="#000000" stroke="none">
<path d="M9950 6260 c-109 -9 -212 -51 -278 -114 -69 -65 -99 -117 -117 -202
-19 -91 -32 -102 -130 -109 -44 -4 -105 -14 -135 -22 -67 -20 -109 -18 -178 8
-70 25 -147 25 -190 -1 -49 -30 -36 -45 39 -46 35 -1 107 -11 159 -23 52 -12
131 -28 175 -36 118 -20 157 -30 185 -45 l25 -14 -35 -9 c-37 -10 -94 -6 -255
18 -55 8 -134 20 -175 26 -41 5 -102 19 -134 30 -74 24 -119 24 -173 -1 -30
-13 -43 -25 -43 -39 0 -16 11 -22 60 -32 33 -6 60 -16 60 -20 0 -16 -54 -9
-128 16 -41 14 -82 25 -92 25 -29 0 -73 -66 -92 -139 -23 -86 -23 -107 1 -114
27 -7 48 20 55 73 15 97 16 100 44 100 29 0 121 -27 267 -77 55 -19 113 -38
129 -42 46 -10 45 -31 -2 -31 -22 0 -52 -3 -68 -6 -23 -4 -38 2 -74 30 -69 54
-186 86 -205 57 -7 -13 25 -43 40 -37 21 8 100 -20 100 -35 0 -11 -19 -14 -82
-14 -45 0 -84 -3 -88 -7 -16 -15 5 -36 48 -46 68 -17 76 -34 46 -90 -26 -50
-53 -61 -72 -30 -8 12 -7 24 3 45 8 15 16 31 18 36 5 10 -40 9 -57 -2 -11 -7
-21 -3 -38 15 -31 34 -53 31 -53 -6 0 -20 11 -43 35 -69 19 -21 35 -47 35 -58
0 -26 -23 -45 -44 -37 -13 5 -17 2 -14 -9 3 -19 -85 -97 -110 -97 -8 0 -36
-14 -62 -30 -26 -17 -79 -41 -117 -54 -111 -38 -137 -60 -153 -133 -7 -28 -4
-36 18 -52 25 -18 26 -23 24 -97 -2 -44 -8 -128 -14 -189 -6 -60 -12 -141 -13
-180 -11 -317 -17 -402 -35 -450 -11 -27 -22 -85 -26 -128 -7 -92 -11 -91 -74
14 -42 72 -78 103 -179 162 -49 27 -64 31 -136 31 -82 0 -117 -11 -174 -55
-13 -10 -27 -17 -31 -14 -11 7 -23 98 -24 186 -1 62 -5 81 -21 99 -38 42 -73
53 -152 46 -228 -19 -215 -19 -273 4 -65 27 -227 44 -560 60 -286 13 -537 36
-620 56 -72 17 -140 27 -310 43 -63 6 -203 20 -310 31 -107 11 -244 20 -305
19 -544 -2 -998 20 -1140 57 -33 8 -127 17 -210 20 -122 5 -158 10 -194 26
-26 13 -46 17 -50 11 -3 -5 -18 -13 -34 -17 -16 -4 -39 -23 -57 -49 -16 -23
-34 -47 -40 -54 -5 -7 -10 -19 -10 -28 0 -14 -8 -15 -55 -10 -30 4 -76 2 -102
-3 -26 -6 -140 -13 -253 -16 -113 -3 -229 -10 -258 -16 -31 -5 -88 -7 -135 -2
-116 10 -170 9 -198 -5 -13 -6 -62 -14 -109 -17 -164 -9 -347 -25 -372 -31
-13 -3 -58 -10 -99 -15 -41 -5 -105 -14 -144 -19 -238 -35 -542 -74 -665 -86
-39 -4 -62 -1 -80 9 -95 58 -126 55 -123 -10 1 -22 4 -120 8 -219 3 -99 11
-232 16 -295 15 -171 28 -603 28 -985 0 -88 5 -248 11 -355 l11 -195 -105
-210 c-120 -239 -132 -280 -142 -475 -6 -120 -4 -144 15 -218 12 -46 23 -89
24 -95 1 -6 -18 -17 -43 -25 -25 -8 -58 -18 -75 -24 -16 -6 -69 -21 -117 -34
-128 -35 -168 -53 -168 -76 0 -17 5 -19 32 -13 18 4 58 16 88 26 64 23 287 78
321 80 13 1 35 -1 49 -5 18 -5 33 -1 50 12 14 11 47 22 74 26 41 6 57 16 93
53 38 38 48 44 73 38 16 -4 49 0 77 9 26 9 60 18 75 21 15 3 42 18 60 34 44
38 174 89 577 226 470 159 451 156 932 176 129 5 264 12 300 15 65 6 66 6 73
-20 10 -42 34 -31 61 29 20 43 23 59 15 75 -18 34 -51 33 -125 0 -54 -25 -97
-35 -189 -46 -130 -15 -419 -21 -506 -9 -36 5 -70 3 -95 -5 -50 -16 -148 -30
-200 -30 -22 1 -128 -4 -235 -9 -195 -9 -664 0 -785 16 l-60 8 -30 62 c-29 60
-31 61 -79 68 -27 3 -53 2 -58 -3 -5 -5 -13 -76 -19 -158 -5 -82 -16 -180 -25
-217 -10 -49 -13 -97 -9 -167 l7 -99 -31 -15 c-60 -31 -76 -3 -92 159 -16 158
-2 296 45 425 50 140 140 287 123 202 -13 -66 17 -82 57 -29 l24 32 -8 365
c-5 201 -12 413 -15 471 -3 58 -6 211 -5 340 0 129 -5 370 -11 536 -13 330
-13 337 42 389 25 24 41 29 107 35 42 4 109 14 147 23 90 20 323 58 400 65 33
4 65 10 72 14 15 9 93 15 303 22 91 4 179 10 195 15 111 32 1148 46 1167 17 4
-7 8 -24 8 -39 0 -17 9 -33 26 -45 23 -17 26 -28 34 -123 5 -58 14 -163 21
-235 6 -71 16 -204 21 -295 18 -315 25 -416 41 -564 9 -82 19 -163 22 -180 3
-17 7 -157 9 -310 l4 -280 -27 -25 c-15 -14 -47 -42 -71 -61 -96 -76 -119
-115 -144 -234 -20 -98 -20 -130 0 -258 11 -70 22 -110 35 -124 10 -11 19 -30
19 -43 0 -27 13 -53 54 -106 50 -65 99 -116 129 -131 15 -8 27 -18 27 -22 0
-8 -157 -84 -565 -270 -274 -125 -364 -164 -595 -255 -91 -36 -217 -89 -280
-117 -63 -29 -160 -69 -215 -90 -55 -21 -129 -51 -165 -67 -36 -17 -83 -35
-105 -42 -78 -24 -115 -44 -115 -62 0 -40 65 -33 182 20 35 15 95 38 133 51
39 13 97 38 130 56 33 18 83 39 110 47 28 9 87 31 132 51 45 19 102 40 125 46
24 7 52 17 63 24 25 16 153 72 220 96 91 33 209 85 265 116 30 17 71 36 90 44
19 7 109 50 200 95 91 45 199 98 240 118 98 47 449 183 522 203 32 8 90 30
128 50 39 19 89 42 113 50 23 8 56 23 74 34 18 10 56 26 84 34 28 9 58 21 66
28 8 6 38 21 66 33 278 115 345 142 427 170 87 30 263 95 450 165 41 16 113
42 160 60 47 17 119 45 160 60 41 16 128 50 194 75 127 49 347 144 461 199 39
19 86 39 105 46 69 23 236 88 315 122 97 42 170 72 250 105 33 13 68 28 77 33
10 6 26 10 37 10 10 0 36 7 57 16 35 15 360 139 659 253 61 23 153 58 205 77
52 20 130 52 174 71 75 34 197 81 516 199 80 29 179 69 220 88 214 99 331 151
385 171 33 12 122 50 197 85 94 43 145 60 160 56 30 -7 85 -93 72 -113 -8 -12
-327 -163 -346 -163 -6 0 -158 -64 -273 -115 -67 -30 -251 -102 -434 -170 -46
-17 -66 -44 -48 -62 11 -11 37 -4 153 45 269 115 479 200 529 215 59 17 136
49 298 123 65 30 123 54 130 54 7 0 20 -13 29 -30 21 -37 76 -60 142 -60 29 0
57 -5 64 -12 15 -15 15 -60 1 -130 -6 -29 -16 -84 -24 -123 -7 -38 -19 -95
-25 -125 -7 -30 -16 -86 -20 -125 -4 -38 -13 -99 -20 -135 -6 -36 -9 -93 -6
-126 6 -68 -6 -88 -65 -109 -16 -5 -60 -32 -97 -58 -37 -26 -110 -73 -162
-104 -119 -70 -137 -86 -158 -146 -35 -99 -101 -145 -312 -218 -101 -35 -120
-49 -191 -145 -29 -40 -49 -55 -85 -68 -26 -9 -58 -16 -71 -16 -30 0 -154 -62
-150 -75 6 -18 66 -46 129 -61 35 -8 72 -24 83 -34 29 -27 77 -42 103 -33 11
5 36 29 54 54 66 93 181 179 241 179 30 0 162 82 252 157 131 109 156 123 221
123 28 0 82 11 120 23 38 13 104 27 147 30 l77 5 41 -69 c55 -93 81 -113 137
-105 23 3 56 13 73 21 53 28 67 18 108 -75 36 -80 53 -144 66 -252 14 -109
124 -391 168 -430 l30 -27 -6 -95 c-5 -93 -6 -96 -51 -159 -25 -36 -53 -70
-61 -77 -10 -8 -43 -10 -117 -6 -131 8 -103 7 -503 7 -351 -1 -422 -7 -479
-44 -18 -12 -23 -22 -19 -38 6 -21 9 -21 82 -14 189 19 287 22 558 13 155 -5
242 -4 260 3 15 5 82 12 148 14 66 2 144 9 173 15 29 7 63 10 74 7 22 -6 461
23 728 49 159 15 203 26 182 45 -8 7 -362 -6 -557 -20 -71 -6 -155 -10 -185
-10 l-55 -1 32 25 c44 35 48 68 19 159 -13 43 -22 84 -20 91 5 11 22 21 104
59 43 20 36 46 -39 139 -73 90 -71 86 -130 302 -46 167 -86 279 -131 362 -22
41 -40 82 -40 92 0 10 20 32 45 50 67 48 76 71 65 173 -17 166 -100 384 -218
572 -34 54 -62 105 -62 113 0 42 217 267 391 406 53 42 100 77 104 77 11 0 -1
-60 -21 -106 -39 -87 -55 -176 -33 -189 18 -12 58 4 74 29 9 13 22 54 30 92
25 119 77 252 116 298 95 109 180 264 165 301 -2 7 -17 15 -33 17 -26 3 -28 7
-31 51 -4 57 9 65 71 48 23 -6 89 -15 147 -20 58 -5 123 -14 145 -20 55 -14
98 -14 120 2 23 18 65 236 54 285 -8 38 -42 78 -73 88 -12 4 -34 16 -49 27
-34 24 -95 43 -201 63 -123 24 -186 4 -186 -60 -1 -48 -34 -179 -46 -183 -6
-2 -16 16 -23 40 -14 57 -35 77 -58 54 -16 -15 -15 -20 5 -60 12 -24 22 -57
22 -73 1 -16 7 -46 14 -67 10 -26 11 -48 5 -70 -5 -18 -16 -58 -24 -90 -19
-68 -68 -128 -148 -179 -29 -17 -75 -53 -104 -79 -50 -45 -142 -103 -150 -96
-2 2 54 74 124 159 148 178 187 231 213 290 21 48 31 169 14 175 -5 2 -29 -13
-53 -34 -40 -33 -45 -35 -56 -20 -18 25 -35 14 -80 -51 -22 -31 -83 -102 -135
-157 -53 -55 -114 -122 -135 -150 -47 -59 -338 -350 -364 -364 -24 -13 -41 4
-41 42 0 38 60 214 105 307 19 41 35 80 35 87 0 7 18 24 40 38 32 20 40 31 40
55 0 18 -6 33 -15 36 -29 11 -15 47 59 148 78 108 106 155 106 181 0 29 -91
114 -155 146 -92 45 -100 41 -197 -91 -18 -25 -45 -64 -60 -87 -35 -54 -70
-78 -95 -65 -10 5 -41 13 -69 17 -41 5 -54 3 -73 -12 l-23 -19 27 -32 c14 -17
24 -36 21 -41 -4 -5 -42 -34 -85 -65 -44 -30 -92 -72 -107 -91 -29 -38 -71
-65 -101 -65 -25 0 -143 -70 -154 -92 -7 -14 1 -24 46 -55 55 -39 70 -69 38
-79 -10 -3 -29 -11 -43 -18 -14 -8 -43 -19 -65 -26 -22 -7 -65 -25 -95 -40
-51 -25 -111 -53 -170 -79 -14 -6 -32 -15 -40 -20 -20 -11 -88 -42 -235 -106
-66 -29 -174 -76 -240 -105 -66 -29 -138 -57 -160 -61 -50 -9 -99 -26 -147
-50 -35 -18 -114 -51 -253 -104 -186 -72 -302 -117 -376 -148 -138 -57 -192
-77 -196 -73 -3 2 5 23 17 46 17 33 21 56 18 101 -2 42 1 59 9 59 7 0 15 -12
19 -27 15 -68 20 -78 48 -81 33 -4 66 22 66 52 0 34 12 44 65 56 28 7 104 29
170 50 66 21 145 43 175 50 30 7 96 26 145 41 50 16 100 29 113 29 35 0 60 17
78 53 20 37 39 53 74 62 14 4 59 23 100 42 41 20 152 66 245 104 167 66 201
87 179 109 -12 12 -48 -1 -164 -59 -41 -21 -120 -57 -175 -81 -55 -23 -125
-53 -156 -66 -31 -13 -71 -27 -89 -31 -29 -5 -32 -4 -27 11 4 10 7 20 7 22 0
2 5 4 10 4 16 0 187 67 255 100 33 16 74 32 90 36 37 8 55 22 55 40 0 25 -49
15 -138 -30 -48 -24 -105 -49 -127 -56 -22 -7 -49 -19 -60 -26 -11 -8 -30 -14
-43 -14 -24 0 -24 1 -21 99 3 70 0 103 -9 114 -16 19 -9 113 12 172 10 29 12
53 6 85 -5 26 -5 75 1 115 9 73 14 220 11 365 -2 86 5 321 12 440 4 56 1 71
-21 108 -29 51 -25 72 14 72 38 1 162 45 176 64 7 8 68 44 137 80 105 55 131
73 160 112 45 61 46 63 60 101 10 25 26 39 79 64 36 17 75 33 86 35 11 1 36 8
55 13 19 6 51 11 72 11 20 0 48 4 63 10 18 7 41 5 81 -5 38 -10 63 -11 80 -5
14 6 58 10 98 10 60 0 76 3 91 20 16 18 26 19 82 14 54 -6 74 -3 140 21 43 15
93 39 112 53 18 14 56 34 85 44 86 33 107 64 61 94 -23 15 -26 14 -77 -19 -71
-47 -167 -89 -189 -82 -11 4 -21 -1 -27 -12 -9 -16 -15 -16 -56 -5 -26 6 -56
12 -68 12 -32 0 -158 40 -158 50 0 16 35 19 95 8 33 -6 98 -11 145 -12 78 -1
85 1 88 19 4 32 -47 63 -186 110 -70 24 -128 49 -130 55 -3 9 4 11 24 7 16 -3
72 -12 124 -21 52 -9 111 -22 130 -30 49 -20 155 -40 179 -33 11 3 47 -2 80
-10 67 -17 91 -13 91 15 0 33 -43 60 -137 87 -50 14 -129 41 -175 60 l-83 35
1 57 c1 76 33 139 79 159 19 7 38 21 43 31 13 22 153 63 218 63 66 0 104 14
104 38 0 22 -31 53 -51 50 -8 0 -48 -4 -89 -8z m-247 -467 c36 -22 -45 -32
-102 -12 -33 12 -37 19 -20 36 8 8 25 7 63 -4 28 -8 54 -17 59 -20z m-563
-149 c124 -20 170 -34 170 -51 0 -12 -7 -14 -27 -9 -16 4 -55 10 -88 15 -74
11 -235 40 -253 46 -7 3 -10 10 -6 16 7 12 55 8 204 -17z m-50 -104 c128 -15
179 -29 191 -52 32 -60 -102 -47 -278 28 -68 29 -84 50 -30 40 17 -3 70 -10
117 -16z m-5612 -1077 c175 -21 183 -37 21 -41 -169 -6 -218 -3 -248 13 l-26
14 35 15 c45 20 48 20 218 -1z m1179 -125 c13 -22 16 -326 4 -482 -6 -83 -20
-299 -31 -481 -11 -181 -24 -372 -30 -423 -5 -51 -15 -192 -22 -312 l-12 -219
-47 -30 c-57 -35 -102 -94 -119 -155 -7 -25 -16 -43 -21 -40 -5 2 -17 24 -27
47 -15 34 -35 54 -93 92 l-74 48 4 281 c2 155 -2 371 -9 481 -6 110 -13 281
-15 380 -2 99 -9 281 -16 405 -7 124 -13 266 -13 315 l-1 90 115 6 c237 11
398 10 407 -3z m178 -3 c55 -8 126 -15 157 -15 77 0 80 -8 78 -173 -1 -73 -2
-287 -1 -476 0 -202 -4 -372 -10 -410 -6 -36 -9 -133 -8 -216 2 -82 -3 -235
-11 -339 l-14 -188 -48 -58 c-58 -70 -76 -111 -85 -190 -10 -103 -47 -107 -82
-9 -27 73 -100 153 -149 163 -17 4 -35 13 -41 20 -12 15 4 327 20 388 6 24 6
52 -1 83 -8 35 -7 58 5 98 9 33 18 142 25 302 6 138 13 257 15 265 12 41 36
444 35 580 -2 191 -2 190 8 190 4 0 52 -7 107 -15z m-755 -22 c9 -20 14 -87
16 -223 1 -107 7 -240 14 -295 20 -174 38 -882 32 -1247 -4 -167 -4 -167 -29
-184 l-26 -17 22 -17 c22 -16 23 -23 20 -113 -3 -67 -1 -97 7 -97 25 0 35 30
34 97 -2 105 -3 103 26 103 19 0 42 -15 74 -47 39 -39 52 -62 68 -118 33 -113
36 -105 -43 -131 -38 -13 -89 -28 -112 -34 -41 -10 -103 -53 -103 -71 0 -18
39 -8 155 36 85 33 121 43 130 35 34 -28 23 -138 -30 -295 -32 -96 -43 -109
-106 -130 -54 -18 -72 -13 -124 35 -16 16 -39 30 -49 32 -36 6 -28 -24 20 -69
44 -43 47 -47 29 -57 -11 -6 -32 -23 -47 -38 -16 -15 -35 -25 -43 -22 -8 3
-38 -3 -67 -14 -29 -11 -107 -41 -173 -66 -129 -50 -151 -55 -119 -28 61 51
75 150 46 317 -22 121 -18 142 26 150 15 3 54 15 87 26 33 12 73 22 89 23 28
1 31 -2 42 -54 17 -76 45 -150 55 -150 19 0 19 27 0 125 -16 85 -17 101 -5
108 19 11 18 26 -3 50 -25 27 -21 189 7 278 11 35 20 73 20 83 0 18 -1 19 -20
1 -11 -10 -32 -42 -46 -70 -24 -51 -25 -57 -18 -177 l7 -125 -49 -16 c-82 -27
-218 -57 -224 -49 -3 4 -17 34 -30 67 -29 75 -84 159 -119 184 -24 18 -68 32
-177 60 l-41 11 -7 353 c-4 193 -14 413 -21 487 -21 199 -35 397 -40 550 -5
173 -39 519 -64 655 -7 35 -5 47 7 57 11 9 109 17 341 25 268 11 474 23 537
31 6 1 17 -10 24 -25z m1222 -3 l67 0 -3 -208 c-1 -115 -5 -213 -8 -218 -4 -5
0 -34 8 -64 17 -67 18 -196 1 -230 -13 -26 -55 -35 -69 -15 -4 5 -8 63 -8 127
0 122 -7 143 -39 114 -10 -9 -30 -16 -45 -16 -22 0 -30 -7 -43 -37 -19 -47
-17 -45 -36 -37 -13 5 -15 41 -15 287 1 187 4 287 12 296 7 10 24 12 61 7 27
-3 80 -6 117 -6z m280 -26 c54 -3 102 -12 107 -18 8 -9 11 -152 9 -446 0 -19
5 -60 11 -90 13 -61 8 -419 -9 -790 -6 -118 -12 -239 -13 -269 l-2 -54 -48
-14 c-38 -11 -55 -24 -84 -63 -21 -28 -44 -50 -52 -50 -8 0 -30 18 -49 40
l-34 41 2 197 c2 108 4 224 6 257 3 33 5 81 7 107 2 44 4 47 32 50 29 3 30 4
35 70 3 37 10 72 17 79 8 8 9 19 2 36 -6 15 -6 31 0 41 15 27 31 -28 31 -109
0 -70 14 -113 44 -138 22 -19 33 12 16 47 -8 19 -13 110 -15 297 l-3 269 -26
21 c-103 81 -107 80 -113 -36 -3 -46 -10 -93 -17 -104 -9 -16 -12 12 -17 135
-9 228 -10 496 -2 504 4 4 21 5 38 2 16 -3 74 -8 127 -12z m4584 -40 c24 -20
44 -45 44 -56 0 -10 -42 -73 -92 -140 l-93 -120 -45 5 c-59 8 -165 51 -165 69
0 8 12 13 30 14 17 1 37 2 47 3 9 0 31 25 48 54 69 112 143 207 162 207 11 0
40 -16 64 -36z m-4290 1 c24 -37 32 -221 39 -870 3 -302 7 -588 9 -635 l4 -85
-41 -17 c-56 -22 -147 -34 -156 -19 -4 6 -4 45 1 88 9 98 28 514 28 610 0 82
13 100 34 48 28 -66 56 -37 56 60 0 104 -19 298 -30 309 -21 21 -31 -13 -34
-113 -2 -56 -6 -105 -9 -108 -23 -23 -27 31 -27 383 l0 374 55 0 c47 0 57 -3
71 -25z m5282 -6 c31 -11 79 -27 106 -35 26 -9 60 -28 73 -42 24 -26 25 -31
19 -116 -3 -52 -12 -99 -21 -112 -14 -22 -16 -22 -72 -8 -32 8 -99 18 -150 22
-51 4 -97 12 -103 18 -26 26 -31 94 -14 183 9 47 21 92 27 99 14 18 70 15 135
-9z m-5058 -4 c63 -4 219 -15 345 -26 271 -23 570 -48 571 -49 0 0 0 -24 0
-52 0 -29 6 -114 12 -187 22 -250 12 -439 -22 -428 -17 5 -33 226 -35 485 -1
80 -12 105 -27 60 -11 -32 -5 -378 8 -461 12 -83 5 -114 -28 -129 -49 -23 -52
-9 -56 294 -3 153 -7 281 -11 284 -13 13 -37 -6 -37 -29 0 -26 -22 -52 -33
-40 -4 3 -7 14 -7 24 0 24 -20 35 -31 18 -5 -8 -9 -83 -9 -168 0 -130 -3 -157
-17 -173 -9 -10 -20 -18 -25 -18 -4 0 -8 63 -8 141 0 132 -8 179 -30 179 -6 0
-7 -74 -3 -192 5 -144 3 -189 -5 -184 -7 4 -12 19 -12 34 0 15 -9 45 -20 67
-17 33 -20 59 -20 172 0 86 -4 134 -11 139 -23 14 -29 -24 -27 -153 1 -73 0
-134 -2 -137 -3 -2 -18 -8 -33 -11 l-29 -8 3 154 c3 160 -1 186 -28 170 -14
-7 -17 -36 -17 -206 -1 -136 -4 -199 -12 -202 -7 -2 -13 15 -16 42 -9 80 -29
75 -36 -9 -7 -84 15 -218 43 -268 24 -42 25 -46 25 -292 l0 -250 -47 -43 c-25
-24 -50 -40 -54 -36 -11 12 -19 367 -18 778 2 505 1 521 -24 512 -15 -4 -28
-239 -16 -280 4 -16 8 -217 8 -447 0 -230 3 -445 7 -478 6 -59 5 -62 -25 -93
-27 -26 -37 -30 -63 -25 -42 8 -48 21 -40 76 4 25 7 181 7 348 0 215 3 302 11
302 6 0 14 -23 17 -50 7 -61 12 -70 38 -70 17 0 19 7 19 63 0 75 -24 215 -39
230 -18 18 -24 1 -26 -70 -2 -103 -19 -77 -26 39 -4 57 -13 195 -22 307 -8
113 -13 209 -11 215 6 18 -13 39 -30 33 -28 -11 -19 -207 21 -486 14 -93 15
-132 6 -220 -7 -72 -7 -110 0 -119 13 -16 0 -584 -15 -630 -9 -29 -13 -33 -32
-26 -26 9 -83 9 -117 -1 -35 -9 -37 0 -27 125 5 58 6 218 3 355 -8 308 -8 278
-5 470 1 88 -3 261 -9 385 -6 124 -11 233 -11 244 0 14 5 17 23 13 12 -3 74
-8 137 -12z m1100 -82 c0 -36 -12 -59 -33 -68 -17 -8 -22 -18 -20 -45 13 -287
15 -440 5 -440 -17 0 -20 27 -26 195 -3 83 -12 191 -21 240 -8 50 -15 94 -15
98 0 11 60 36 88 37 14 0 22 -6 22 -17z m128 -85 c2 -9 -4 -18 -13 -21 -11 -5
-15 0 -15 19 0 28 23 29 28 2z m-110 -118 c1 -57 0 -111 -3 -119 -12 -30 -24
11 -31 106 -7 96 -2 127 19 121 8 -3 13 -36 15 -108z m97 21 c3 -5 1 -12 -5
-16 -5 -3 -10 1 -10 9 0 18 6 21 15 7z m3425 -24 c0 -22 -69 -115 -90 -122
-12 -4 -27 -2 -34 5 -12 9 -10 19 7 61 19 45 24 49 48 44 17 -4 30 -1 39 10
15 18 30 20 30 2z m-909 -53 l80 -56 -40 -43 c-60 -66 -84 -119 -85 -193 -1
-45 3 -65 14 -72 28 -18 45 -7 48 33 2 22 18 61 36 90 18 29 45 76 61 105 15
28 34 52 40 52 7 0 15 -16 18 -35 5 -29 -7 -62 -73 -202 -86 -181 -87 -183
-44 -262 28 -52 30 -78 5 -107 -15 -18 -25 -21 -63 -17 -46 5 -46 6 -65 62
l-18 56 -89 3 c-50 2 -96 8 -103 14 -7 5 -18 29 -24 51 -6 23 -17 50 -25 61
-12 18 -11 23 8 43 l21 23 -43 18 c-27 11 -52 32 -69 57 -15 24 -43 48 -69 60
-67 31 -58 49 56 101 53 25 111 57 129 70 32 24 32 24 43 4 12 -23 32 -25 59
-8 15 9 24 8 45 -5 14 -9 43 -17 66 -17 65 0 49 24 -40 60 -45 18 -79 38 -77
44 6 17 80 65 100 66 11 0 55 -25 98 -56z m-3012 13 c7 -18 17 -301 12 -354
-1 -16 -37 -53 -52 -53 -5 0 -7 5 -3 12 4 6 7 103 5 215 -1 178 0 203 14 203
8 0 19 -10 24 -23z m928 -21 c110 -50 152 -119 174 -287 9 -69 36 -134 69
-164 26 -24 68 -13 76 20 6 25 7 24 33 -17 15 -24 35 -49 45 -57 14 -12 16
-23 10 -65 -4 -28 -7 -67 -6 -87 1 -20 -3 -41 -10 -47 -7 -5 -83 -26 -168 -46
-85 -19 -218 -54 -295 -76 -156 -44 -199 -49 -210 -22 -4 9 -9 80 -11 157 -2
77 -8 246 -13 375 -4 129 -6 240 -4 246 2 6 24 27 48 48 74 61 157 68 262 22z
m-512 -211 c0 -97 -6 -127 -22 -111 -9 9 -16 203 -8 223 4 13 8 14 18 4 8 -8
12 -48 12 -116z m3306 85 c10 -6 19 -19 19 -30 0 -22 -71 -114 -239 -314 -195
-231 -307 -404 -294 -454 7 -29 45 -111 139 -293 119 -233 171 -374 181 -489
l6 -76 -46 -39 c-60 -54 -327 -178 -381 -179 l-40 -1 -23 63 c-13 35 -30 73
-38 85 -8 12 -15 32 -15 46 0 32 -45 155 -70 189 -29 40 -70 157 -70 200 0 70
22 237 36 270 11 25 20 32 42 32 36 0 63 40 42 65 -7 8 -19 15 -26 15 -8 0
-14 2 -14 5 0 15 31 62 54 84 34 32 34 59 -2 72 -27 9 -29 14 -28 59 1 27 5
52 9 56 4 4 21 -5 37 -21 35 -33 26 -38 109 64 29 35 85 93 124 129 107 96
285 279 372 382 43 49 82 90 87 90 5 0 18 -5 29 -10z m-5381 -90 c3 -14 3 -79
0 -145 -5 -86 -3 -140 7 -190 19 -97 20 -100 38 -85 10 9 15 32 15 76 0 50 4
65 18 73 16 8 17 2 14 -78 -3 -71 -1 -90 12 -100 24 -20 29 -9 32 67 2 37 6
95 9 128 3 34 1 74 -5 88 -9 24 -7 28 17 37 45 17 68 8 65 -24 -2 -16 1 -34 7
-41 6 -8 7 -65 1 -166 -5 -85 -10 -284 -12 -442 l-4 -288 -49 -48 c-28 -27
-59 -62 -70 -77 l-21 -27 -28 42 c-30 45 -84 75 -118 64 -21 -6 -21 -5 -14
132 4 77 10 155 14 174 4 19 5 107 2 195 -6 188 8 607 21 642 12 31 40 27 49
-7z m78 -77 c-3 -88 -21 -102 -26 -21 -4 59 4 98 19 98 6 0 9 -29 7 -77z m312
-19 c0 -47 -7 -59 -27 -43 -16 14 -17 81 -1 97 17 17 28 -3 28 -54z m5255 16
c3 -10 0 -30 -7 -43 -13 -24 -99 -99 -168 -148 -29 -19 -141 -112 -210 -172
-8 -7 -40 -33 -70 -57 -51 -41 -101 -85 -207 -182 -23 -21 -44 -38 -47 -38
-16 0 -3 42 29 95 71 118 195 236 390 374 33 23 101 75 150 116 92 76 129 91
140 55z m-5341 -103 c9 -142 -4 -281 -24 -261 -11 11 -22 294 -14 342 4 17 12
32 19 32 9 0 14 -33 19 -113z m996 47 c0 -13 -4 -24 -10 -24 -5 0 -10 14 -10
31 0 17 4 28 10 24 6 -3 10 -17 10 -31z m1710 -45 c0 -20 -15 -26 -25 -9 -9
15 3 43 15 35 5 -3 10 -15 10 -26z m-2630 -23 c0 -8 -4 -18 -10 -21 -5 -3 -10
3 -10 14 0 12 5 21 10 21 6 0 10 -6 10 -14z m1310 -127 c0 -59 7 -152 15 -206
9 -54 15 -134 13 -178 l-3 -80 -34 2 c-18 1 -38 7 -42 15 -5 7 -9 132 -9 277
0 232 2 267 17 283 32 35 43 6 43 -113z m-100 -189 c1 -146 1 -273 1 -282 -1
-20 -36 -25 -46 -7 -9 13 -6 568 2 582 3 5 14 1 24 -9 16 -17 18 -43 19 -284z
m-970 281 c0 -12 -20 -25 -27 -18 -7 7 6 27 18 27 5 0 9 -4 9 -9z m1262 -91
c-1 -52 5 -156 14 -230 20 -173 18 -202 -18 -214 -15 -5 -31 -6 -35 -2 -9 9
-17 511 -9 533 4 8 15 13 28 11 22 -3 23 -6 20 -98z m193 -29 c-5 -14 -7 -14
-15 -1 -12 18 -13 104 -2 114 9 10 24 -93 17 -113z m-595 99 c18 -9 19 -26 19
-270 l1 -260 -30 -32 -29 -33 -1 287 c0 260 3 318 17 318 2 0 13 -5 23 -10z
m543 -78 c2 -37 9 -112 15 -167 25 -221 25 -207 0 -203 -20 3 -25 12 -35 73
-19 105 -32 347 -21 368 17 33 36 1 41 -71z m-231 51 c0 -16 2 -59 2 -98 1
-38 6 -141 10 -227 9 -167 5 -188 -35 -188 -19 0 -24 15 -20 55 2 25 -16 282
-28 390 -5 44 -7 83 -4 88 2 4 20 7 39 7 30 0 34 -3 36 -27z m-401 -213 c4
-91 10 -207 14 -258 l7 -93 -38 3 -39 3 0 240 c1 132 4 248 8 258 4 11 15 17
24 15 16 -3 19 -22 24 -168z m559 140 c0 -5 -4 -10 -10 -10 -5 0 -10 5 -10 10
0 6 5 10 10 10 6 0 10 -4 10 -10z m9 -173 c1 -64 -14 -52 -23 17 -7 64 4 111
15 61 4 -16 7 -52 8 -78z m10 -160 c1 -17 -3 -26 -9 -22 -5 3 -9 30 -9 58 1
45 2 48 9 22 4 -16 8 -43 9 -58z m-158 -201 c8 -50 -5 -55 -20 -7 -14 48 -14
54 1 49 7 -3 16 -21 19 -42z m189 -20 c-13 -13 -35 7 -25 24 5 8 11 8 21 -1
10 -8 12 -15 4 -23z m-586 5 c8 -13 -19 -32 -59 -41 -32 -7 -35 -6 -35 14 0
13 3 26 7 29 10 10 81 8 87 -2z m220 -64 c0 -37 -4 -70 -7 -74 -25 -25 -51
103 -27 132 24 29 35 10 34 -58z m97 0 c13 -49 -3 -74 -27 -42 -21 28 -27 60
-19 92 6 27 7 27 21 8 8 -11 19 -37 25 -58z m356 29 c-9 -23 -37 -20 -37 3 0
21 20 33 34 20 5 -4 6 -15 3 -23z m-541 -1 c8 -19 -3 -65 -15 -65 -5 0 -14 14
-21 31 -11 26 -11 32 1 40 20 13 29 11 35 -6z m433 -16 c17 -6 31 -15 31 -19
0 -10 -161 -73 -168 -66 -10 11 35 71 56 74 12 2 22 8 22 13 0 12 20 11 59 -2z
m-549 -80 c3 -41 11 -84 18 -96 17 -31 15 -43 -7 -43 -12 0 -31 19 -51 53 -18
28 -44 65 -57 81 -13 16 -22 34 -20 40 4 12 86 46 102 42 6 -1 12 -36 15 -77z
m-252 49 c-3 -25 -34 -36 -52 -18 -8 8 -6 15 8 26 29 21 48 18 44 -8z m-101
-13 c6 -18 -23 -55 -44 -55 -17 0 -18 56 0 63 23 10 38 7 44 -8z m473 -33 c0
-10 8 -34 18 -54 l19 -36 -24 -11 c-13 -6 -25 -11 -27 -11 -2 0 -9 20 -15 45
-8 32 -8 51 -1 65 13 25 30 26 30 2z m-634 -14 c13 -13 24 -26 24 -29 0 -6
-73 -39 -85 -39 -9 0 -5 51 5 71 14 25 27 24 56 -3z m344 6 c0 -8 -4 -12 -10
-9 -5 3 -10 10 -10 16 0 5 5 9 10 9 6 0 10 -7 10 -16z m548 -12 c3 -9 -2 -13
-14 -10 -9 1 -19 9 -22 16 -3 9 2 13 14 10 9 -1 19 -9 22 -16z m-1000 -17
c-13 -29 -28 -33 -28 -7 0 22 8 32 26 32 11 0 11 -5 2 -25z m390 13 c14 -18
54 -157 48 -167 -3 -5 -20 -6 -38 -2 -24 5 -38 16 -50 41 -24 47 -24 116 0
129 23 14 28 13 40 -1z m-516 -32 c44 -19 65 -43 50 -58 -15 -15 -110 -38
-128 -31 -20 8 -9 62 18 86 24 20 18 20 60 3z m-155 -4 c20 -12 28 -96 12
-108 -8 -6 -47 -22 -86 -37 l-73 -26 0 27 c0 33 31 102 53 120 9 7 28 17 44
22 37 11 36 11 50 2z m573 -58 c11 -36 20 -81 20 -99 0 -27 -4 -33 -26 -38
-28 -5 -28 -5 -67 112 -20 62 -20 64 -2 77 38 28 53 18 75 -52z m-106 -74 c18
-82 14 -100 -24 -100 -36 0 -76 32 -101 82 -31 60 -23 87 31 108 43 17 46 17
61 -1 9 -10 24 -50 33 -89z m321 11 c-6 -14 -8 -14 -21 3 -15 21 -19 58 -7 70
11 11 35 -54 28 -73z m39 63 c11 -28 6 -39 -9 -20 -8 11 -15 23 -15 28 0 14
18 9 24 -8z m-1140 -16 c3 -13 6 -33 6 -46 0 -33 24 -22 30 13 3 16 10 30 17
32 15 5 67 -72 60 -89 -2 -7 -44 -24 -93 -37 -49 -13 -95 -26 -101 -29 -16 -5
-17 55 -2 95 10 28 57 83 70 83 4 0 9 -10 13 -22z m-226 -23 c28 -20 79 -94
87 -127 6 -24 3 -26 -72 -47 l-78 -21 -17 21 c-32 38 -19 120 24 167 25 26 27
26 56 7z m800 2 c21 -25 54 -123 55 -165 2 -50 -10 -62 -65 -62 -32 0 -42 7
-85 58 -66 75 -85 106 -78 124 4 9 36 25 73 36 81 25 87 25 100 9z m-928 -131
l0 -94 -40 -16 c-22 -9 -45 -16 -50 -16 -19 0 -10 85 16 140 30 64 42 80 60
80 11 0 14 -21 14 -94z m718 62 c19 -24 61 -212 51 -230 -12 -22 -55 -45 -109
-57 -39 -9 -44 -7 -66 16 -26 29 -84 170 -84 206 0 21 10 28 73 49 83 29 120
33 135 16z m-1041 -40 c30 -28 104 -159 101 -177 -2 -8 -19 -19 -38 -24 -19
-5 -57 -17 -85 -27 -75 -27 -221 -70 -238 -70 -23 0 -26 20 -12 102 16 91 44
149 85 178 42 30 54 18 47 -51 -3 -40 -1 -61 8 -69 20 -17 32 8 40 85 4 39 9
74 12 78 8 13 55 -2 80 -25z m791 -35 c20 -39 44 -176 38 -218 -11 -70 -56
-103 -122 -90 -25 4 -45 19 -73 55 -36 45 -45 69 -67 177 -3 18 4 24 44 39 26
10 67 25 92 35 58 23 77 23 88 2z m750 5 c-5 -13 -131 -66 -160 -67 -11 -1
-18 6 -18 18 0 16 9 19 60 23 39 3 67 10 77 21 20 20 47 23 41 5z m3374 -76
c3 -50 11 -70 55 -135 l50 -76 -67 6 c-63 5 -73 3 -156 -35 -59 -26 -111 -42
-154 -47 -76 -8 -93 -15 -145 -69 -67 -68 -158 -134 -238 -172 l-75 -35 -56
26 c-31 15 -56 33 -56 40 0 8 19 19 43 26 112 31 162 51 224 87 86 50 106 73
133 145 26 70 53 91 177 142 51 21 109 52 130 70 45 38 113 85 123 85 4 0 9
-26 12 -58z m-3745 -24 c18 -18 33 -37 33 -43 0 -10 -60 -38 -67 -31 -8 8 -15
106 -7 106 4 0 23 -14 41 -32z m-635 -24 c26 -146 29 -193 15 -226 -24 -57
-50 -72 -131 -76 -66 -4 -75 -2 -103 22 -21 18 -41 53 -62 107 -36 93 -38 114
-13 124 65 27 269 94 277 92 5 -2 13 -21 17 -43z m4501 -33 c39 -78 41 -97 6
-65 -20 18 -69 115 -69 136 0 27 29 -6 63 -71z m-4859 -36 c8 -9 18 -32 21
-53 12 -78 78 -186 123 -203 29 -11 25 -30 -10 -46 -39 -19 -156 -48 -164 -41
-3 4 -1 22 6 40 27 74 20 215 -15 301 -9 22 17 23 39 2z m-1454 -54 c72 -27
149 -89 150 -119 0 -12 9 -40 19 -60 40 -79 38 -83 -71 -116 l-98 -30 -30 22
c-53 40 -110 21 -110 -37 0 -24 -6 -30 -40 -40 -48 -14 -57 -27 -30 -41 22
-12 164 21 319 75 45 15 79 21 84 16 12 -12 44 -179 52 -277 l7 -81 -35 -34
c-19 -19 -37 -44 -41 -55 -9 -31 -87 -60 -114 -43 -18 11 -25 9 -55 -18 -120
-105 -254 2 -322 257 -42 157 -42 322 0 440 l13 35 15 -36 c14 -34 17 -36 68
-37 66 -1 79 9 79 62 0 22 5 48 10 56 7 11 2 20 -18 36 -23 19 -25 24 -12 39
18 22 82 16 160 -14z m1399 -8 c16 -56 13 -188 -3 -228 -8 -19 -29 -50 -45
-67 -29 -31 -35 -33 -108 -36 -64 -2 -84 1 -110 17 -42 26 -101 107 -109 149
-3 18 -15 43 -25 56 l-19 25 177 59 c222 73 229 74 242 25z m779 14 c2 -12 -3
-17 -17 -17 -15 0 -21 6 -21 21 0 25 33 22 38 -4z m-2376 -9 c-7 -7 -12 -8
-12 -2 0 14 12 26 19 19 2 -3 -1 -11 -7 -17z m2129 -77 l24 -19 -28 -11 c-43
-17 -57 -14 -57 12 0 42 23 49 61 18z m4935 -108 c8 -21 25 -60 39 -88 28 -58
60 -157 76 -235 12 -62 54 -215 75 -275 8 -22 39 -71 69 -109 31 -38 54 -74
52 -80 -6 -17 -59 -26 -137 -21 -63 3 -77 8 -92 27 -10 13 -18 29 -18 36 0 8
-6 26 -14 40 -16 30 -56 157 -56 179 0 7 -9 39 -20 71 -12 31 -30 99 -40 150
-12 58 -36 127 -61 179 -41 83 -42 85 -23 103 24 24 93 59 117 60 12 0 23 -13
33 -37z m-5831 -68 c26 -49 61 -83 115 -110 l45 -23 -26 -10 c-74 -29 -219
-75 -223 -71 -3 2 5 31 16 64 11 33 23 88 26 123 5 71 19 79 47 27z m4304
-139 c12 -15 -15 -57 -92 -138 -42 -45 -48 -48 -93 -48 -51 0 -121 13 -132 25
-11 10 20 24 83 36 54 11 66 18 122 76 63 63 90 75 112 49z m-6975 -63 c3 -4
-31 -22 -76 -40 -108 -44 -680 -243 -697 -243 -11 0 -12 16 -6 74 4 50 3 82
-5 96 -11 20 -17 22 -68 16 -57 -6 -57 -6 -81 29 -41 61 -29 69 107 60 149
-10 570 -7 642 4 70 11 175 13 184 4z m-1007 -73 c17 -10 37 -28 42 -39 6 -11
20 -23 31 -26 24 -8 26 -24 4 -40 -9 -6 -40 -56 -68 -110 -28 -54 -58 -102
-66 -107 -46 -23 -105 -48 -117 -48 -27 0 -36 42 -30 142 7 124 38 190 107
226 54 27 57 27 97 2z m196 -126 c-3 -73 -15 -124 -31 -124 -5 0 -9 17 -9 38
0 21 -6 62 -14 91 -14 57 -6 74 36 69 18 -3 20 -10 18 -74z m-81 -81 c-12 -57
-31 -83 -60 -83 -20 0 -11 58 17 124 20 46 23 48 38 33 15 -15 16 -24 5 -74z
m9594 -340 c3 -10 17 -45 31 -78 14 -33 27 -65 30 -72 3 -7 -27 -26 -73 -47
-42 -20 -78 -36 -80 -36 -2 0 5 22 16 49 10 27 22 77 26 112 6 62 17 89 36 89
5 0 11 -8 14 -17z"/>
<path d="M4382 3845 c-106 -17 -106 -17 -112 -198 -3 -84 -2 -170 1 -192 4
-22 10 -90 14 -151 7 -106 6 -112 -15 -132 -26 -24 -20 -69 8 -56 10 4 36 9
60 12 41 4 43 3 58 -33 12 -31 19 -36 42 -34 15 2 37 -3 50 -9 12 -7 22 -11
23 -10 7 27 9 69 10 203 0 88 7 212 15 275 7 63 14 159 14 212 0 83 -3 99 -17
106 -33 17 -78 19 -151 7z m126 -95 c2 -30 -4 -108 -13 -175 -12 -82 -16 -167
-14 -270 4 -148 4 -150 -18 -153 -29 -4 -29 -2 -43 238 -14 254 -18 309 -25
345 -3 17 -1 36 4 44 8 13 74 31 96 27 6 -2 11 -27 13 -56z m-145 34 c3 -4 0
-15 -7 -26 -11 -16 -11 -27 -1 -62 19 -62 24 -482 6 -515 -27 -49 -36 -7 -36
167 0 92 1 185 2 207 1 22 0 77 -3 123 -4 57 -2 88 6 98 13 15 23 18 33 8z"/>
<path d="M4764 3890 c-17 -7 -22 -19 -26 -67 -9 -96 0 -525 11 -536 5 -5 16
-7 24 -4 11 4 16 37 22 149 3 79 9 151 12 162 9 31 21 -1 28 -74 7 -69 78
-357 96 -391 17 -32 43 -19 50 26 4 22 8 184 10 360 l4 320 -40 8 c-22 5 -62
17 -90 27 -77 28 -79 28 -101 20z m107 -70 c24 -11 54 -20 67 -20 12 0 22 -6
23 -12 3 -76 -2 -496 -7 -510 -11 -36 -29 -11 -52 73 -29 111 -62 297 -55 315
3 8 0 43 -7 79 -10 55 -16 66 -36 71 -27 7 -23 24 5 24 11 0 38 -9 62 -20z"/>
<path d="M3403 3867 c-6 -14 -7 -45 -2 -82 12 -96 31 -375 38 -566 4 -118 10
-181 19 -191 8 -10 40 -17 98 -22 101 -7 136 5 173 60 14 20 48 57 76 82 46
42 54 55 68 114 10 37 17 88 17 114 0 35 6 53 26 76 14 17 24 40 22 52 -2 17
-11 22 -50 24 l-47 3 -7 44 c-3 24 -17 59 -30 76 -13 18 -24 43 -24 55 0 37
-62 46 -127 19 -34 -14 -40 -14 -95 7 -32 13 -58 28 -58 34 0 28 33 35 192 40
155 5 165 4 182 -15 13 -14 26 -19 41 -15 12 3 26 -1 33 -8 13 -16 35 -218 26
-242 -3 -9 -1 -23 6 -31 8 -10 11 -64 10 -182 -1 -92 -1 -198 0 -235 l1 -68
-33 0 c-31 0 -286 -26 -355 -36 -22 -3 -33 -11 -33 -21 0 -14 11 -15 78 -10
42 4 127 10 188 13 109 7 111 6 128 -17 l16 -24 -112 -8 c-62 -4 -143 -8 -180
-8 -49 0 -68 -4 -68 -13 0 -16 207 -29 310 -20 45 5 69 3 74 -5 4 -6 20 -11
37 -11 23 0 29 4 29 21 0 11 -8 33 -18 47 -16 25 -18 57 -20 347 -2 350 -15
524 -41 557 -14 17 -38 23 -152 35 -120 13 -144 13 -237 -1 -106 -17 -133 -13
-146 19 -8 23 -41 18 -53 -8z m143 -163 c27 -9 52 -20 57 -23 4 -4 -11 -33
-33 -63 -22 -31 -40 -60 -40 -65 0 -5 9 -16 20 -26 16 -14 18 -21 10 -43 -15
-37 -57 -86 -65 -74 -10 17 -17 310 -8 310 5 0 32 -7 59 -16z m237 -88 c7 -10
10 -23 22 -79 2 -13 17 -30 32 -37 16 -8 30 -16 33 -18 3 -2 -6 -12 -19 -21
-23 -18 -24 -21 -12 -63 7 -24 11 -60 9 -79 l-3 -34 -58 -3 c-63 -3 -66 -14
-9 -37 l36 -16 -41 -42 c-23 -23 -50 -61 -62 -83 -24 -50 -34 -54 -105 -47
-38 4 -60 2 -71 -7 -13 -11 -19 -11 -32 3 -13 12 -16 38 -16 126 0 116 10 147
43 136 35 -11 98 98 115 201 4 21 11 52 17 68 18 47 96 68 121 32z"/>
<path d="M3698 3538 c-23 -8 -28 -16 -28 -42 0 -18 -5 -37 -12 -44 -9 -9 -9
-15 0 -24 8 -8 23 -7 59 4 63 20 79 55 43 93 -26 28 -24 27 -62 13z m37 -58
c3 -5 2 -10 -4 -10 -5 0 -13 5 -16 10 -3 6 -2 10 4 10 5 0 13 -4 16 -10z"/>
<path d="M6035 3651 c-13 -21 -17 -150 -10 -275 6 -101 10 -129 22 -133 34
-13 43 25 42 176 -1 178 -8 235 -31 239 -9 2 -19 -2 -23 -7z"/>
<path d="M9595 3737 c-17 -13 -17 -15 6 -30 42 -30 129 -13 129 25 0 15 -8 18
-58 18 -33 0 -66 -6 -77 -13z"/>
<path d="M7624 3479 c-18 -20 -18 -21 1 -57 17 -31 26 -38 57 -40 28 -2 40 2
52 20 22 31 20 45 -9 73 -30 31 -75 33 -101 4z"/>
<path d="M7770 3255 c-17 -21 -2 -50 26 -50 14 0 19 7 19 30 0 34 -24 45 -45
20z"/>
<path d="M7565 3221 c-7 -12 12 -24 25 -16 11 7 4 25 -10 25 -5 0 -11 -4 -15
-9z"/>
<path d="M9739 2669 c-29 -29 -22 -63 14 -67 50 -6 75 38 41 72 -20 21 -30 20
-55 -5z"/>
<path d="M9733 2448 c-29 -14 -30 -51 -3 -78 25 -25 35 -25 54 1 12 18 13 27
2 52 -14 36 -23 40 -53 25z"/>
<path d="M9969 6016 c-78 -17 -89 -23 -89 -44 0 -18 47 -42 83 -42 9 0 17 -4
17 -10 0 -5 -11 -10 -24 -10 -30 0 -54 -26 -38 -42 14 -14 111 -23 146 -14 14
3 33 18 43 32 14 21 14 29 4 46 -10 16 -10 23 4 38 13 15 14 23 5 39 -13 25
-60 27 -151 7z"/>
<path d="M12713 5843 c-13 -2 -32 -16 -43 -30 -18 -23 -18 -27 -4 -56 19 -36
38 -149 38 -232 1 -80 -23 -335 -32 -349 -4 -6 -8 -44 -8 -85 -1 -50 -6 -76
-15 -82 -8 -5 -98 -9 -201 -8 -147 1 -188 4 -188 14 0 7 14 55 31 107 20 61
33 122 36 178 5 72 9 89 29 111 l24 25 -16 110 c-17 113 -31 141 -64 124 -35
-19 -53 -177 -24 -218 14 -21 14 -24 -5 -40 -14 -11 -25 -38 -32 -77 -6 -33
-15 -74 -20 -91 -5 -17 -9 -42 -9 -57 0 -14 -4 -29 -10 -32 -5 -3 -10 -32 -10
-63 0 -86 -2 -87 -124 -84 -83 2 -111 -1 -130 -13 -20 -13 -62 -16 -267 -16
-157 0 -292 -5 -379 -15 -159 -18 -237 -20 -635 -10 l-300 7 -28 -29 c-33 -34
-48 -106 -53 -242 -4 -103 19 -163 70 -185 52 -22 143 -45 173 -45 15 0 127
-2 248 -5 729 -16 716 -16 761 10 23 14 58 24 80 25 72 1 278 -18 330 -30 43
-11 55 -10 82 4 59 30 62 26 56 -76 -4 -67 -11 -102 -24 -126 -18 -30 -18 -35
-5 -56 13 -20 14 -65 4 -362 -6 -186 -13 -445 -14 -574 -1 -129 -6 -293 -10
-365 -4 -71 -10 -299 -15 -505 -6 -290 -12 -414 -30 -550 -31 -251 -34 -733
-5 -895 20 -111 22 -252 5 -269 -5 -5 -38 -10 -72 -11 -35 0 -68 -4 -74 -8 -7
-4 -113 -12 -235 -17 -123 -6 -251 -15 -284 -21 -33 -5 -148 -18 -255 -29
-179 -18 -328 -37 -581 -74 -52 -8 -107 -12 -121 -9 -14 3 -45 -4 -71 -16 -25
-12 -53 -21 -61 -21 -9 0 -16 -4 -16 -9 0 -17 18 -21 43 -12 14 6 83 12 154
15 123 5 183 11 433 41 63 8 216 24 340 35 124 11 304 27 400 36 96 9 222 17
280 18 102 1 107 0 139 -26 47 -40 108 -39 174 4 48 31 53 32 210 40 148 8
276 2 385 -18 l32 -6 0 49 c0 27 -4 53 -9 58 -5 6 -19 42 -31 80 -22 67 -23
83 -22 345 3 567 2 732 -8 877 -12 185 -5 1100 9 1288 11 139 20 271 42 665
12 221 6 447 -14 507 -19 58 -47 52 -70 -15 -14 -43 -18 -101 -22 -285 -3
-128 -10 -256 -16 -284 -16 -79 -29 -1719 -14 -1743 9 -14 5 -559 -6 -870 -5
-157 -10 -352 -12 -435 l-2 -150 -192 -3 -193 -2 0 52 c-1 29 -6 73 -11 98
-35 150 -43 1146 -14 1715 2 55 9 296 15 535 11 429 22 648 40 805 29 247 29
497 0 515 -10 6 -20 5 -29 -5 -16 -15 -41 -118 -45 -180 -9 -129 -19 -223 -26
-247 -6 -17 -5 -30 1 -34 6 -4 8 -34 4 -77 -11 -134 -19 -525 -30 -1407 -9
-817 -22 -1392 -31 -1450 -4 -22 -10 -42 -14 -45 -13 -8 -20 91 -26 345 -4
135 -11 253 -16 263 -5 10 -6 37 -3 59 4 23 9 102 10 177 7 341 15 654 20 736
2 50 5 173 5 275 1 301 19 632 35 650 11 12 12 25 6 46 -14 51 3 558 20 591 8
15 9 30 1 51 -7 20 -7 51 -1 93 12 77 12 94 3 136 -9 46 3 101 24 107 9 3 39
-1 66 -9 72 -22 94 -19 108 11 10 21 9 30 -4 52 -15 24 -23 27 -75 28 -32 1
-87 6 -123 12 -126 23 -233 26 -266 9 -24 -12 -66 -15 -215 -14 -157 0 -188
-2 -210 -16 -22 -15 -57 -17 -242 -18 -119 0 -258 3 -309 6 -51 4 -149 2 -216
-3 -125 -10 -253 -2 -277 18 -8 7 -11 52 -9 155 2 80 5 149 8 154 13 20 109
25 491 21 220 -1 416 -2 435 -1 19 2 147 2 285 1 187 -1 270 3 335 14 112 21
362 34 425 24 51 -9 324 -9 383 -1 29 5 32 9 32 39 0 27 -4 34 -20 34 -17 0
-20 7 -20 39 0 21 7 56 16 77 14 32 18 93 22 346 l5 308 -27 40 c-14 22 -30
39 -34 39 -4 -1 -17 -4 -29 -6z"/>
<path d="M8345 3456 c-68 -27 -88 -52 -33 -43 64 10 136 55 101 64 -4 1 -35
-9 -68 -21z"/>
<path d="M9335 3201 c-22 -4 -46 -10 -52 -14 -39 -25 16 -51 64 -31 18 8 66
14 106 14 76 0 89 4 81 24 -5 13 -136 18 -199 7z"/>
<path d="M9029 3045 c-230 -122 -827 -415 -845 -415 -5 0 -65 -29 -134 -64
-69 -35 -154 -76 -190 -92 -36 -16 -114 -55 -175 -88 -274 -147 -612 -312
-735 -361 -170 -66 -272 -110 -330 -141 -102 -54 -307 -163 -490 -262 -204
-110 -488 -256 -773 -398 -92 -46 -182 -95 -201 -109 -18 -14 -40 -25 -48 -25
-9 0 -49 -20 -89 -45 -40 -24 -95 -52 -123 -61 -28 -9 -112 -49 -186 -89 -74
-40 -180 -95 -235 -122 -111 -55 -401 -217 -459 -257 -21 -14 -46 -28 -57 -31
-10 -4 -19 -10 -19 -15 0 -12 -53 -39 -170 -85 -121 -48 -282 -128 -300 -150
-15 -18 -6 -31 30 -40 19 -4 53 9 135 51 61 31 117 62 125 69 8 8 96 55 195
106 99 51 208 110 243 131 34 21 66 38 71 38 13 0 226 130 229 141 2 5 7 9 12
9 4 0 122 56 261 124 140 68 306 146 369 175 169 76 480 232 518 259 18 13 54
33 80 44 52 23 198 104 222 123 8 7 85 48 170 92 183 95 346 183 487 265 101
59 290 148 453 213 47 19 200 92 340 163 140 71 309 153 375 182 66 29 132 61
147 72 14 10 30 18 34 18 5 0 42 15 84 34 41 19 131 59 200 89 69 31 219 101
334 156 114 56 212 101 217 101 4 0 31 13 58 30 28 16 83 46 123 66 144 73
188 103 188 130 0 36 -23 31 -141 -31z"/>
<path d="M8755 2656 c-104 -68 -273 -175 -360 -226 -97 -57 -227 -141 -479
-309 -87 -58 -195 -129 -240 -157 -149 -93 -549 -337 -731 -445 -99 -59 -196
-121 -215 -137 -19 -16 -62 -44 -95 -63 -63 -35 -204 -125 -290 -184 -27 -19
-178 -120 -335 -225 -157 -104 -341 -228 -410 -276 -69 -47 -149 -100 -178
-117 -108 -65 -152 -93 -220 -142 -38 -27 -97 -70 -132 -95 -34 -25 -79 -60
-99 -78 -35 -31 -35 -33 -17 -47 11 -8 29 -15 41 -15 23 0 168 100 309 214 98
79 161 122 337 231 62 39 150 97 194 131 111 84 280 194 297 194 8 0 19 5 25
11 6 6 20 16 31 23 97 55 171 102 192 121 14 12 50 39 80 59 57 38 120 85 180
134 63 52 406 269 470 297 33 15 169 100 267 167 23 16 59 36 79 44 20 8 80
44 133 78 53 35 130 82 171 106 108 63 311 195 340 221 23 22 305 209 372 248
275 158 358 217 358 253 0 25 -17 22 -75 -16z"/>
<path d="M2865 1399 c-6 -9 29 -49 44 -49 5 0 14 6 20 14 8 10 8 16 -1 23 -19
15 -57 22 -63 12z"/>
<path d="M2870 1310 c-119 -27 -182 -33 -425 -41 -246 -8 -335 -14 -551 -35
-54 -5 -90 -2 -144 11 -59 14 -97 17 -193 12 -77 -4 -127 -11 -141 -20 -12 -8
-45 -18 -73 -22 -29 -4 -57 -13 -63 -20 -20 -24 31 -29 194 -19 83 5 187 9
232 9 77 0 82 -2 118 -32 40 -36 76 -49 103 -38 10 4 70 13 133 21 63 7 171
23 240 34 198 33 289 39 547 40 166 0 244 3 249 11 13 22 -23 30 -126 26 -58
-2 -113 -2 -122 1 -25 5 -22 22 3 22 26 0 89 29 89 41 0 10 -21 10 -70 -1z
m-926 -106 c24 -9 19 -24 -8 -24 -28 0 -43 16 -24 23 7 3 14 6 15 6 1 1 8 -2
17 -5z"/>
<path d="M8370 575 c-52 -19 -112 -34 -133 -35 -21 0 -51 -7 -67 -15 -24 -12
-42 -13 -97 -5 -231 32 -567 31 -809 -5 -55 -8 -154 -14 -220 -13 -96 2 -125
-1 -151 -15 -35 -19 -41 -31 -20 -44 17 -10 428 -4 567 9 63 6 286 12 495 12
363 2 384 3 460 25 107 30 265 38 360 17 61 -13 72 -13 85 0 12 12 12 16 -1
29 -22 22 -145 54 -252 65 -119 13 -107 14 -217 -25z"/>
</g>
</svg>
