<?xml version="1.0" standalone="no"?>
<!DOCTYPE svg PUBLIC "-//W3C//DTD SVG 20010904//EN"
 "http://www.w3.org/TR/2001/REC-SVG-20010904/DTD/svg10.dtd">
<svg version="1.0" xmlns="http://www.w3.org/2000/svg"
 width="1280.000000pt" height="786.000000pt" viewBox="0 0 1280.000000 786.000000"
 preserveAspectRatio="xMidYMid meet">
<metadata>
Created by potrace 1.15, written by Peter Selinger 2001-2017
</metadata>
<g transform="translate(0.000000,786.000000) scale(0.100000,-0.100000)"
fill="#000000" stroke="none">
<path d="M5120 7803 c-54 -67 -101 -115 -107 -109 -3 2 3 18 12 36 20 39 12
101 -10 79 -8 -8 -27 -39 -43 -70 -16 -30 -41 -75 -55 -100 -14 -24 -30 -63
-37 -86 -6 -24 -14 -43 -19 -43 -22 0 49 218 80 246 11 10 19 30 19 47 0 30 0
30 -22 11 -11 -10 -45 -70 -75 -131 -30 -62 -58 -113 -63 -113 -13 0 -14 -4
15 79 14 40 28 92 32 117 5 40 4 44 -16 44 -16 0 -21 -6 -21 -28 0 -42 -12
-47 -27 -12 -15 36 -24 33 -70 -20 -62 -71 -175 -332 -153 -354 14 -14 25 0
40 49 19 60 68 167 87 187 27 30 32 21 18 -34 -19 -77 -25 -127 -16 -133 10
-6 25 32 41 102 6 28 17 59 24 69 11 15 12 5 8 -57 -4 -71 -3 -75 24 -102 28
-29 28 -29 45 -8 16 20 17 20 23 -10 9 -48 27 -30 55 53 14 42 29 80 34 84 15
15 6 -59 -10 -87 -13 -22 -14 -32 -6 -40 9 -9 16 -4 30 21 10 18 32 53 49 79
16 25 40 66 53 90 28 56 89 136 103 136 11 0 26 29 27 53 2 26 -26 8 -69 -45z"/>
<path d="M5375 7765 c-44 -41 -84 -74 -89 -72 -21 7 -14 25 29 70 25 26 43 52
40 57 -3 6 -28 10 -54 10 -44 0 -51 -4 -107 -57 -33 -32 -88 -100 -122 -152
-59 -92 -72 -133 -28 -93 19 18 22 19 35 4 14 -14 16 -14 25 3 19 32 118 145
127 145 17 0 9 -26 -26 -80 -20 -30 -38 -64 -41 -75 -6 -19 -85 -77 -163 -120
-52 -28 -95 -64 -87 -72 4 -4 15 -2 24 5 9 6 40 24 67 38 28 15 77 45 110 68
65 45 134 80 143 72 9 -10 -20 -35 -54 -46 -19 -6 -40 -19 -46 -28 -11 -15
-93 -85 -121 -103 -14 -10 11 -49 32 -49 10 0 35 11 56 25 20 14 62 39 93 54
33 17 93 64 142 111 108 105 177 167 226 205 86 68 110 93 97 106 -9 9 -19 7
-45 -13 -18 -14 -51 -28 -73 -32 -21 -4 -62 -22 -90 -39 -27 -18 -57 -37 -66
-42 -9 -6 -41 -27 -72 -47 -56 -38 -81 -46 -92 -29 -7 13 27 49 106 111 71 57
149 128 149 135 0 3 -10 5 -22 5 -14 0 -53 -29 -103 -75z m-161 -56 c-27 -27
-52 -49 -56 -49 -20 0 -4 29 45 78 39 40 53 49 55 36 2 -9 -16 -37 -44 -65z
m-90 -103 c-3 -9 -10 -13 -16 -10 -5 3 -4 12 3 20 15 18 22 13 13 -10z"/>
<path d="M5762 7705 c-13 -13 -60 -49 -106 -79 -63 -41 -95 -56 -127 -58 -23
-2 -44 -9 -47 -15 -2 -9 6 -11 30 -7 l33 5 -25 -20 c-83 -70 -152 -118 -208
-147 -36 -18 -72 -40 -81 -48 -9 -8 -28 -19 -44 -25 -35 -13 -35 -29 1 -33 19
-2 27 -8 26 -20 -2 -23 26 -23 67 -3 32 17 299 105 318 105 32 0 -1 -21 -119
-74 -73 -33 -130 -65 -130 -73 0 -18 20 -16 74 8 26 11 55 19 65 17 10 -2 27
4 37 13 11 9 51 30 89 46 39 17 146 65 238 108 93 42 171 75 174 72 14 -15
-10 -30 -252 -157 -60 -31 -121 -61 -134 -65 -14 -4 -32 -16 -41 -27 -8 -11
-44 -27 -80 -37 -35 -10 -66 -24 -68 -31 -5 -15 6 -13 123 20 104 29 202 65
292 107 39 18 94 39 122 46 28 6 51 15 51 20 0 4 62 37 138 74 107 52 132 67
112 71 -23 4 -108 -31 -265 -110 -80 -40 -121 -35 -50 6 71 42 178 96 191 96
14 0 49 38 42 45 -3 3 -40 -8 -82 -25 -89 -35 -86 -34 -86 -15 0 8 4 15 8 15
19 0 133 81 127 90 -11 17 -33 11 -91 -26 -149 -95 -388 -204 -407 -185 -8 8
3 16 39 31 27 11 62 27 77 35 16 8 33 13 38 9 5 -3 9 -1 9 5 0 6 44 39 98 75
113 76 132 91 132 100 0 14 -45 -6 -110 -49 -36 -23 -85 -52 -110 -65 -25 -12
-52 -26 -60 -31 -27 -16 -101 -49 -111 -49 -16 0 3 29 24 36 12 4 34 17 50 30
15 13 54 37 87 55 33 17 60 35 60 40 0 4 20 22 45 40 42 31 59 59 34 59 -11 0
-108 -61 -154 -96 -11 -8 -74 -46 -140 -83 -66 -37 -130 -74 -142 -81 -12 -8
-25 -11 -29 -8 -10 11 6 28 26 28 10 0 20 6 23 14 3 8 31 33 61 55 78 58 186
161 186 177 0 21 -22 16 -48 -11z m-112 -264 c0 -5 -7 -11 -15 -15 -15 -5 -20
5 -8 17 9 10 23 9 23 -2z m-80 -35 c0 -11 -19 -15 -25 -6 -3 5 1 10 9 10 9 0
16 -2 16 -4z m-160 -46 c13 -9 12 -12 -5 -26 -11 -8 -31 -17 -45 -20 -14 -2
-39 -9 -56 -14 -75 -24 -67 -2 14 40 64 32 71 34 92 20z m471 -30 c-13 -11
-33 -20 -45 -20 -17 1 -14 4 14 20 45 25 61 25 31 0z"/>
<path d="M4545 7630 c-20 -45 -35 -52 -35 -17 0 29 -7 37 -26 30 -8 -3 -14
-17 -14 -32 0 -36 -60 -106 -103 -120 -24 -8 -35 -20 -42 -44 -6 -20 -18 -33
-30 -35 -11 -2 -39 -22 -62 -44 -42 -41 -48 -57 -59 -160 -6 -46 -5 -48 20
-48 42 0 42 -26 0 -74 -119 -136 -216 -281 -245 -363 -10 -29 -29 -72 -43 -96
-14 -24 -26 -51 -26 -61 0 -9 -14 -41 -31 -72 -18 -31 -36 -76 -40 -101 -5
-25 -16 -51 -25 -58 -12 -8 -15 -20 -11 -41 6 -31 -23 -195 -50 -284 -18 -58
-63 -115 -123 -156 -87 -58 -126 -88 -133 -101 -5 -8 -22 -30 -39 -49 -28 -32
-41 -66 -55 -150 -8 -50 22 -64 132 -64 49 0 132 5 183 10 117 12 140 3 171
-70 12 -27 26 -50 31 -50 6 0 10 -7 10 -15 0 -8 27 -70 60 -136 66 -130 121
-199 185 -231 22 -11 54 -33 70 -48 20 -18 54 -33 100 -44 117 -29 223 -98
250 -163 17 -40 27 -41 160 -9 55 13 130 27 167 31 l67 6 -6 -83 c-5 -75 5
-165 22 -210 6 -14 -2 -22 -36 -37 -24 -10 -69 -38 -99 -62 -66 -53 -120 -95
-167 -129 -18 -14 -39 -35 -46 -46 -31 -55 -283 -330 -327 -357 -46 -28 -96
-74 -224 -206 -108 -112 -140 -135 -163 -123 -21 12 -162 158 -213 222 -53 66
-117 177 -136 234 -9 28 -25 68 -35 88 -11 21 -19 54 -19 75 0 21 -7 70 -15
108 -9 39 -18 141 -20 228 -3 87 -7 162 -10 167 -3 4 -14 69 -25 145 -11 75
-24 144 -29 153 -5 10 -18 43 -29 74 -26 72 -68 133 -134 193 -52 47 -137 95
-170 95 -39 0 -114 49 -137 90 -13 23 -35 49 -50 58 -30 18 -71 52 -222 182
-262 226 -311 252 -378 199 -29 -23 -30 -27 -30 -105 -1 -45 6 -121 15 -170
10 -49 18 -102 20 -119 4 -39 31 -150 49 -200 8 -22 19 -74 25 -115 6 -41 16
-94 21 -117 12 -55 12 -130 -1 -153 -7 -13 -7 -28 0 -46 6 -15 12 -69 14 -118
4 -102 25 -163 117 -341 38 -75 69 -119 125 -176 41 -42 74 -81 74 -86 0 -6
26 -42 58 -81 31 -39 72 -97 91 -129 19 -32 42 -70 52 -85 19 -28 30 -54 81
-200 19 -57 35 -88 45 -88 9 0 12 -6 8 -18 -5 -18 16 -94 46 -168 11 -28 10
-34 -9 -59 -17 -22 -22 -41 -22 -91 0 -78 12 -109 56 -148 l34 -31 -30 -59
c-33 -65 -37 -110 -16 -171 8 -22 17 -57 21 -77 7 -45 43 -91 84 -108 17 -7
39 -27 50 -46 11 -18 37 -42 58 -53 55 -28 164 -37 233 -19 32 9 65 12 76 7
12 -4 50 -39 85 -78 35 -39 90 -91 122 -116 32 -25 63 -57 69 -70 7 -16 25
-29 47 -35 20 -6 61 -33 91 -60 50 -45 54 -51 39 -65 -15 -15 -25 -15 -125 4
-237 46 -633 68 -742 42 -62 -15 -68 -31 -12 -31 22 0 66 -11 98 -24 31 -13
73 -27 92 -30 19 -4 64 -14 100 -23 79 -20 402 -25 420 -7 8 8 -35 13 -157 17
-155 6 -401 42 -421 62 -41 40 407 23 626 -25 46 -10 86 -21 89 -24 4 -3 -2
-32 -12 -65 -17 -58 -17 -59 4 -88 l22 -30 -21 -36 c-12 -20 -23 -37 -25 -37
-2 0 -16 5 -32 11 -15 7 -46 15 -68 19 -22 4 -92 20 -155 35 -63 14 -149 30
-190 35 -216 24 -420 50 -464 59 -70 14 -325 31 -358 24 -45 -9 -32 -23 20
-23 61 0 413 -37 475 -50 27 -6 52 -8 57 -5 4 3 46 -2 91 -10 46 -8 131 -22
189 -30 153 -22 242 -46 247 -66 7 -25 54 -35 69 -15 9 14 17 14 55 3 25 -7
45 -20 47 -29 2 -8 -9 -35 -23 -59 l-27 -44 -201 3 c-183 2 -301 9 -502 31
-38 4 -88 16 -110 26 -58 26 -158 35 -460 41 -319 6 -494 11 -630 20 -245 14
-442 4 -578 -32 -56 -15 -104 -30 -107 -35 -3 -4 -28 -12 -55 -16 -35 -6 -51
-14 -53 -26 -4 -22 30 -23 48 -2 7 9 20 13 28 10 8 -3 20 -1 26 4 31 26 185
53 319 56 77 2 144 8 151 14 7 6 17 7 22 2 14 -13 479 -31 798 -30 295 0 337
-4 476 -47 68 -21 190 -45 230 -45 274 -3 554 -10 557 -13 8 -8 -30 -72 -84
-139 -52 -64 -58 -69 -87 -63 -17 3 -60 9 -96 12 -58 6 -67 4 -84 -15 -18 -20
-18 -22 -1 -47 17 -26 16 -27 -14 -58 -53 -55 -41 -67 50 -52 32 5 62 7 66 3
3 -4 -5 -20 -19 -35 -14 -15 -40 -49 -59 -77 -43 -65 -169 -195 -276 -287
-102 -87 -107 -111 -28 -116 44 -2 58 2 110 36 39 26 78 42 110 47 56 8 113
34 206 96 35 24 89 56 121 71 31 15 68 42 82 59 28 32 114 69 164 69 21 0 32
-7 40 -25 6 -14 24 -28 39 -31 31 -8 202 11 214 23 13 13 57 173 70 253 11 63
10 75 -6 108 -29 61 -36 95 -22 104 6 4 101 8 211 8 l199 0 53 -31 c59 -34 70
-58 27 -60 -110 -4 -257 -25 -261 -38 -4 -12 14 -13 114 -5 217 16 237 14 331
-42 45 -27 82 -52 83 -56 0 -8 -98 -19 -253 -27 -82 -4 -122 -10 -125 -18 -5
-17 284 -17 380 -1 51 8 73 8 95 -1 36 -15 78 -50 70 -58 -8 -7 -128 -20 -317
-32 -157 -11 -210 -19 -210 -32 0 -11 34 -11 140 0 47 6 162 12 255 15 94 4
185 9 202 12 24 5 61 -4 135 -31 57 -21 107 -41 111 -45 13 -12 -79 -18 -288
-21 -104 -1 -217 -3 -250 -3 -33 -1 -124 -3 -202 -4 -118 -2 -143 -5 -143 -17
0 -8 6 -12 14 -9 8 3 23 1 33 -4 11 -7 60 -7 133 -1 147 11 670 23 670 16 0
-3 -9 -22 -21 -41 l-21 -36 -91 0 c-51 0 -148 -5 -217 -11 -69 -6 -161 -14
-204 -18 -51 -4 -81 -11 -84 -19 -5 -16 28 -15 168 5 131 19 500 26 553 11 39
-12 50 -28 19 -28 -11 0 -45 -18 -78 -39 -59 -39 -60 -40 -199 -50 -77 -6
-149 -9 -159 -8 -22 2 -33 -18 -14 -25 7 -3 51 -1 98 3 47 4 152 10 234 12
l148 6 -5 -36 c-11 -64 -9 -64 -231 -64 -111 1 -237 -4 -281 -9 -44 -6 -170
-15 -280 -21 -110 -5 -206 -12 -213 -14 -62 -21 139 -25 328 -6 257 25 324 30
462 30 80 1 153 -2 162 -5 23 -9 20 -37 -8 -63 -24 -23 -28 -23 -348 -27 -178
-2 -341 -8 -363 -12 -82 -18 -4 -23 236 -15 134 4 288 7 342 5 86 -3 97 -5 97
-22 0 -26 -39 -32 -144 -24 -65 4 -88 3 -81 -4 6 -6 47 -14 92 -18 109 -9 112
-11 78 -71 -49 -85 -48 -85 -140 -77 -89 7 -455 -13 -469 -26 -4 -4 111 -7
255 -7 l264 2 -2 -29 c-1 -16 -16 -52 -33 -78 -34 -56 -47 -116 -31 -146 7
-13 25 -23 51 -27 41 -7 43 -6 146 49 38 20 100 79 175 165 l55 64 327 1 c258
1 329 4 339 14 11 11 -17 13 -165 10 -162 -3 -179 -1 -188 15 -13 22 -67 23
-75 2 -5 -11 -10 -13 -19 -5 -9 8 -15 8 -20 0 -7 -11 -113 -14 -139 -4 -22 8
-20 24 9 81 41 83 43 84 199 80 126 -3 160 2 120 17 -9 3 -61 6 -117 6 -116 0
-142 9 -114 37 14 14 36 18 105 19 48 1 95 5 104 9 10 4 130 2 268 -4 300 -13
303 -13 296 -2 -7 11 -98 20 -296 29 -207 9 -245 9 -347 -2 -94 -10 -100 -5
-57 51 l25 34 152 -5 c84 -3 204 -8 267 -12 93 -5 113 -4 103 6 -8 9 -83 17
-241 25 -127 7 -235 16 -242 20 -8 5 -6 11 8 21 14 10 33 11 73 5 57 -9 74 -6
101 17 16 13 18 13 24 -2 6 -15 8 -15 18 -1 6 8 36 19 66 24 60 11 845 29
1475 36 521 5 721 25 945 93 52 16 111 33 130 37 39 8 62 23 55 35 -5 8 -95
-15 -207 -54 -86 -29 -134 -34 -165 -17 -14 7 -51 11 -92 9 -98 -4 -111 22
-20 37 21 4 100 27 176 51 121 40 152 46 256 51 71 4 132 2 155 -5 20 -6 53
-15 72 -20 56 -16 167 -61 200 -81 8 -5 47 -28 87 -51 40 -23 84 -58 99 -78
37 -51 209 -217 264 -255 60 -41 177 -134 185 -147 3 -5 19 -10 35 -10 16 0
41 -10 57 -23 55 -45 293 -150 318 -141 8 3 44 -6 80 -21 36 -14 69 -24 73
-21 8 5 44 -7 102 -31 24 -10 72 -24 158 -45 79 -19 82 28 4 53 -58 18 -232
111 -264 140 -37 35 -35 53 5 70 59 25 305 12 411 -21 43 -14 83 -20 103 -17
18 3 31 2 28 -3 -8 -12 60 -32 122 -36 29 -2 61 -8 72 -13 29 -16 81 -14 81 3
0 23 -25 36 -110 56 -76 19 -139 44 -150 60 -3 4 -37 23 -76 43 -80 40 -134
82 -134 103 0 20 64 46 93 39 13 -4 34 -2 48 3 15 6 43 7 70 2 24 -5 72 -14
107 -20 35 -6 69 -13 77 -17 19 -7 20 21 1 40 -18 18 -242 71 -391 93 -60 8
-151 22 -202 29 -50 7 -100 18 -111 24 -12 6 -61 20 -109 32 -137 32 -703 224
-791 268 -43 22 -94 42 -113 46 -41 8 -151 65 -156 82 -2 6 17 26 42 45 26 18
84 67 130 109 140 129 144 131 204 118 29 -6 58 -8 66 -5 7 2 15 2 17 -2 2 -4
37 -18 78 -31 124 -39 242 -82 291 -106 25 -13 66 -26 90 -30 24 -4 73 -20
109 -35 36 -15 81 -30 100 -34 19 -3 82 -22 140 -42 58 -20 128 -39 155 -43
28 -4 56 -10 63 -15 7 -4 32 -10 55 -12 23 -2 94 -13 157 -24 63 -10 156 -24
205 -30 50 -6 94 -16 100 -21 12 -12 35 -12 35 1 0 6 -9 10 -19 10 -11 0 -21
4 -23 8 -2 4 -50 27 -108 51 -127 51 -174 81 -196 122 -21 42 -12 74 27 88 40
14 210 14 309 0 41 -6 99 -12 128 -14 29 -2 60 -9 67 -15 8 -7 25 -10 37 -7
13 4 26 0 33 -10 14 -19 37 -9 29 12 -7 17 -56 34 -259 84 -183 46 -277 80
-343 125 -52 35 -61 50 -35 60 20 8 291 20 376 17 32 -1 62 1 67 4 17 11 -1
33 -33 39 -33 6 -345 34 -382 34 -650 3 -660 3 -768 22 -60 11 -127 25 -150
31 -23 6 -84 16 -136 23 -52 6 -96 16 -98 22 -2 5 10 25 26 44 l29 35 488 7
c269 4 544 12 612 18 68 5 154 10 192 10 88 0 99 16 17 23 -85 8 -167 23 -197
35 -14 6 -126 16 -250 22 -123 6 -227 13 -231 15 -3 3 -21 0 -40 -5 -91 -24
-489 -19 -489 6 0 8 7 31 16 53 l15 39 162 -4 c105 -3 155 -1 142 5 -11 5 -75
10 -141 10 -127 1 -148 9 -121 45 10 12 40 15 172 17 233 2 562 20 975 55 107
9 245 16 305 16 135 -1 400 -19 455 -31 23 -5 40 -5 40 0 0 5 -4 9 -9 9 -6 0
-11 15 -13 33 -2 26 -8 33 -28 35 -110 13 -23 29 212 38 140 5 194 4 217 -5
25 -11 33 -10 53 3 12 9 32 17 43 18 11 1 -16 5 -60 10 -103 10 -106 10 -200
4 -302 -19 -300 -19 -339 -2 -21 9 -43 13 -49 9 -11 -7 -297 -6 -304 1 -7 6
89 25 127 24 131 -2 280 3 280 9 -1 30 -22 38 -92 35 -196 -7 -934 -6 -940 2
-3 5 -44 5 -100 -2 -58 -6 -150 -7 -248 -2 -85 4 -171 7 -190 7 -19 -1 -64 0
-99 1 -63 2 -63 2 -58 30 2 15 20 70 39 122 19 52 38 115 42 139 4 24 15 69
26 100 10 32 24 84 29 117 6 32 17 95 25 138 8 44 13 83 11 86 -7 12 25 50 56
65 16 9 48 36 70 60 23 25 46 45 51 45 26 0 209 120 255 167 29 29 56 53 61
53 15 0 54 79 50 103 -3 19 -11 23 -63 29 -33 4 -80 3 -105 -2 -25 -5 -90 -14
-145 -20 -55 -6 -119 -13 -142 -16 l-42 -6 4 33 c2 19 7 86 10 149 7 153 14
178 85 304 l62 108 -23 24 c-28 30 -34 30 -78 0 -43 -28 -248 -157 -273 -171
-21 -12 -129 -80 -218 -137 -87 -56 -349 -185 -434 -214 -70 -24 -232 -52
-242 -41 -7 7 10 39 58 110 67 96 178 354 178 412 0 11 5 26 11 32 5 5 13 73
17 149 l7 139 161 6 c112 5 178 12 220 25 32 10 66 17 74 16 22 -2 68 18 74
33 3 8 -9 32 -25 55 l-30 41 66 -7 c73 -8 76 -4 54 65 -19 59 -21 61 -101 96
-42 19 -87 43 -100 55 -48 44 -123 100 -134 100 -7 0 -19 11 -27 24 -9 13 -62
61 -119 106 -56 46 -110 93 -119 104 -9 12 -49 55 -88 96 -39 41 -71 80 -71
85 0 6 -26 37 -58 71 -31 34 -113 125 -182 203 -74 84 -140 151 -162 162 -21
11 -45 33 -53 49 -8 16 -28 36 -44 45 -16 8 -32 24 -36 34 -3 11 -12 18 -18
15 -7 -2 -32 16 -57 41 -24 25 -48 45 -54 45 -5 0 -28 17 -50 39 -108 102
-272 244 -309 268 -23 14 -63 44 -88 67 -25 23 -72 59 -104 81 -32 22 -70 52
-84 66 -14 15 -57 41 -96 58 -38 18 -86 40 -106 50 -25 13 -42 15 -53 9 -11
-6 -22 -6 -31 2 -8 7 -20 8 -27 3 -7 -4 -42 -8 -78 -9 -63 -1 -165 -27 -176
-45 -3 -5 -16 -9 -28 -9 -29 0 -136 48 -136 61 0 12 8 12 57 -7 24 -9 46 -15
48 -12 3 3 6 54 8 114 l2 108 -90 32 c-49 17 -119 41 -155 54 -196 68 -389
127 -460 140 -36 7 -83 18 -105 26 -85 29 -298 51 -553 58 -132 3 -175 9 -141
20 8 2 39 12 69 21 30 9 64 20 75 25 11 5 44 16 72 25 71 22 81 40 18 32 -26
-4 -54 -12 -61 -18 -7 -6 -39 -17 -71 -24 -32 -7 -122 -27 -200 -44 -78 -18
-222 -59 -320 -92 -98 -34 -190 -63 -205 -66 -16 -3 -28 -12 -28 -19 0 -18 19
-18 57 1 16 8 90 28 164 45 74 17 158 37 188 46 52 15 131 12 131 -6 0 -4 -55
-22 -122 -39 -68 -18 -140 -39 -161 -47 -20 -7 -53 -14 -71 -14 -22 0 -45 -9
-65 -26 -35 -29 -42 -50 -11 -34 28 15 133 46 220 65 41 9 117 30 169 47 77
25 105 30 156 26 34 -3 74 -13 88 -23 14 -9 30 -14 35 -12 4 3 14 2 22 -3 9
-6 2 -10 -26 -15 -21 -3 -51 -9 -66 -11 -17 -4 -28 -1 -28 6 0 7 -8 9 -19 5
-10 -3 -24 1 -31 10 -18 22 -28 18 -32 -12 -2 -17 -9 -28 -18 -29 -8 0 -22 -3
-30 -6 -8 -3 -69 -13 -136 -22 -66 -9 -140 -23 -164 -31 -23 -8 -51 -15 -61
-15 -18 0 -35 -17 -26 -26 2 -3 24 -1 48 5 24 5 103 19 174 31 72 12 154 26
184 31 56 9 71 6 71 -15 0 -17 -32 -23 -161 -31 -57 -4 -124 -13 -149 -20 -25
-8 -66 -17 -91 -20 -25 -4 -52 -11 -60 -16 -36 -23 22 -24 178 -1 315 44 317
44 311 13 -3 -13 -26 -18 -125 -27 -67 -7 -126 -15 -132 -19 -6 -3 -32 -10
-59 -15 -77 -14 -136 -31 -146 -41 -6 -6 -6 -9 0 -9 13 1 238 38 299 49 39 7
53 6 64 -5 18 -17 13 -19 -94 -32 -142 -18 -340 -54 -353 -65 -22 -18 8 -27
38 -12 14 7 71 16 126 20 86 5 97 4 82 -8 -10 -7 -55 -19 -101 -26 -92 -14
-118 -24 -102 -40 7 -7 22 -7 45 -1 34 9 194 24 391 37 l96 6 6 -33 c12 -59 7
-303 -8 -390 -36 -213 -48 -265 -94 -405 -27 -83 -44 -152 -39 -154 5 -2 0
-13 -11 -25 -47 -50 -132 -504 -132 -706 0 -110 13 -175 50 -249 l31 -60 -56
-7 c-30 -3 -77 -4 -105 -2 -53 5 -65 -6 -23 -22 76 -29 312 27 380 91 14 13
32 19 50 17 24 -3 29 -9 41 -58 8 -30 19 -72 24 -93 13 -49 59 -100 113 -126
78 -38 300 -22 460 34 67 23 122 57 66 40 -237 -69 -420 -87 -497 -47 -22 12
-54 38 -71 58 -30 36 -75 164 -74 213 0 58 -35 65 -96 22 -64 -47 -147 -91
-170 -91 -14 0 -29 12 -41 31 -39 63 -58 309 -32 405 6 22 13 69 15 105 2 35
11 94 19 129 8 36 22 101 31 145 18 86 28 119 83 265 19 52 44 118 54 145 10
28 18 59 19 71 0 11 9 47 20 79 11 32 26 97 33 144 13 95 17 496 5 522 -11 23
14 41 51 37 17 -2 31 2 33 7 2 6 -16 11 -39 13 -37 3 -74 25 -61 37 2 2 29 11
59 19 40 10 49 16 36 21 -10 4 -31 5 -48 1 -34 -6 -69 8 -69 28 0 15 128 39
163 31 28 -7 81 11 72 25 -3 5 -25 7 -48 4 -44 -6 -127 11 -127 26 0 11 19 17
99 29 56 9 67 8 90 -8 14 -10 42 -24 63 -30 20 -7 39 -18 41 -25 3 -8 22 -19
42 -26 41 -13 42 -37 1 -32 -35 4 -34 -16 2 -24 15 -3 47 -14 72 -24 97 -39
189 -62 284 -70 54 -5 104 -14 111 -20 7 -6 17 -10 21 -9 8 2 86 -31 161 -68
17 -8 36 -12 43 -8 6 4 19 0 28 -8 9 -8 53 -30 97 -48 98 -40 144 -85 239
-229 67 -102 136 -235 136 -262 0 -8 7 -23 15 -34 8 -10 15 -27 15 -37 0 -10
7 -20 15 -23 8 -4 15 -17 15 -31 0 -23 18 -93 41 -158 6 -16 17 -57 25 -90 18
-75 48 -168 84 -265 34 -91 100 -302 100 -322 0 -7 9 -32 21 -53 34 -67 110
-293 140 -420 24 -99 31 -159 40 -346 12 -252 1 -397 -46 -594 -13 -55 -33
-145 -44 -200 -39 -187 -79 -337 -108 -404 l-23 -53 -57 5 c-32 3 -78 11 -103
16 -25 6 -74 18 -110 26 -36 9 -86 19 -113 22 -26 3 -50 10 -53 14 -3 5 -17 9
-32 9 -34 0 -131 36 -155 58 -21 19 -20 29 18 127 15 39 33 92 40 118 8 26 18
54 25 61 6 8 17 51 25 97 8 46 20 107 26 134 5 28 12 131 15 230 3 99 6 214 7
255 2 59 -4 100 -30 194 -18 66 -42 129 -52 140 -11 12 -29 41 -41 66 -37 77
-83 158 -131 228 -26 37 -73 114 -105 172 -32 58 -74 128 -94 155 -20 28 -42
67 -49 87 -7 20 -19 42 -27 48 -7 7 -14 18 -14 24 0 6 -14 31 -30 56 -16 25
-55 95 -85 157 -31 62 -60 115 -65 118 -30 19 -130 301 -158 446 -25 133 -26
145 -26 261 1 72 -2 95 -12 91 -7 -2 -15 -15 -18 -28 -10 -40 -9 -268 2 -295
5 -14 12 -52 16 -85 7 -60 27 -130 74 -255 26 -71 134 -290 162 -330 9 -14 20
-35 24 -47 4 -12 30 -56 59 -98 56 -82 100 -156 166 -273 23 -41 57 -97 75
-125 19 -29 63 -101 99 -162 35 -60 81 -137 101 -169 20 -33 36 -72 36 -88 0
-26 -3 -28 -37 -28 -52 0 -215 -27 -222 -37 -3 -4 -37 -8 -76 -8 -38 0 -126
-10 -195 -22 -69 -12 -150 -24 -180 -28 -112 -14 -222 -35 -332 -65 -188 -51
-368 -51 -472 2 -96 48 -210 134 -267 201 -59 70 -81 122 -109 254 -26 120 3
583 40 654 6 10 16 49 24 86 17 86 82 307 102 346 23 43 120 344 150 462 14
55 32 119 40 143 26 78 30 76 -121 51 -80 -14 -95 -18 -95 -31 0 -10 59 -7
135 7 49 9 57 -3 40 -60 -14 -45 -28 -64 -47 -65 -14 0 -8 38 7 54 8 8 15 19
15 25 0 14 -101 2 -121 -15 -8 -8 -21 -14 -27 -14 -15 0 -15 -15 0 -40 16 -26
4 -36 -27 -22 -40 18 -59 14 -90 -18 -36 -38 -27 -49 18 -21 30 18 36 19 46 7
20 -24 14 -116 -12 -185 -16 -42 -40 -80 -71 -111 -57 -60 -80 -69 -110 -41
-20 19 -56 29 -56 16 0 -18 33 -65 49 -70 24 -7 94 8 125 28 13 9 39 40 59 70
32 47 42 55 74 59 44 6 63 1 63 -16 -1 -31 -83 -223 -107 -249 -16 -16 -80
-55 -144 -86 -150 -73 -169 -81 -190 -81 -10 0 -21 -5 -25 -11 -3 -6 -26 -19
-50 -30 -54 -23 -94 -61 -94 -89 0 -23 74 -140 98 -154 14 -8 122 -228 122
-248 0 -6 -48 -57 -106 -114 -98 -96 -198 -164 -240 -164 -8 0 -23 -14 -36
-30 -22 -30 -92 -59 -158 -66 -14 -1 -56 -5 -95 -9 -39 -4 -96 -18 -128 -32
-32 -14 -79 -26 -104 -26 -45 -2 -47 -1 -87 56 -50 71 -85 93 -216 137 -64 21
-100 38 -100 48 0 38 136 186 187 203 18 6 38 19 43 30 15 27 38 24 147 -21
88 -37 98 -39 112 -25 15 15 14 18 -9 35 -14 11 -34 22 -45 26 -11 3 -47 18
-80 34 -33 16 -112 39 -176 53 -122 25 -157 42 -190 88 -23 32 -40 36 -59 14
-10 -12 -8 -22 10 -52 27 -45 43 -58 134 -103 73 -36 90 -55 60 -67 -9 -3 -51
-42 -92 -85 -80 -84 -96 -90 -148 -59 -52 32 -97 98 -193 285 -72 140 -89 181
-80 192 6 8 19 14 29 14 26 0 50 33 50 68 0 22 -5 32 -15 32 -8 0 -14 6 -13
13 2 8 -10 12 -37 12 -49 0 -62 -29 -21 -45 41 -15 32 -32 -11 -23 -54 11
-165 8 -190 -6 -12 -6 -30 -25 -40 -41 -17 -29 -19 -30 -94 -30 -103 0 -114
12 -75 86 31 59 112 139 198 197 101 67 120 100 147 252 23 134 70 333 89 375
12 25 28 70 37 100 25 82 143 313 188 367 22 27 51 66 65 88 14 22 44 59 66
82 36 39 41 52 62 150 12 59 28 122 35 138 l13 30 4 -28 c2 -16 -1 -34 -6 -40
-14 -18 -25 -93 -17 -118 7 -22 8 -22 21 -4 8 10 14 32 14 49 0 43 23 146 32
146 9 0 11 -11 8 -57 -2 -47 17 -41 30 10 28 107 43 153 51 162 13 13 11 -18
-5 -93 -7 -35 -9 -65 -4 -68 11 -7 29 6 23 17 -3 5 15 65 40 135 25 69 43 130
40 135 -11 17 -22 9 -40 -31z m2122 -542 c-19 -10 -87 10 -87 27 0 11 9 10 50
-3 34 -11 46 -19 37 -24z m173 -58 c0 -5 -11 -10 -25 -10 -14 0 -25 5 -25 10
0 6 11 10 25 10 14 0 25 -4 25 -10z m-500 -19 c0 -16 -27 -31 -44 -25 -28 11
-19 34 14 34 17 0 30 -4 30 -9z m666 -72 c12 -4 31 -21 44 -38 19 -27 19 -32
5 -37 -8 -4 -34 -2 -57 4 -28 7 -48 7 -60 1 -20 -11 -85 -2 -94 12 -3 5 -14 9
-25 9 -24 0 -35 25 -20 44 9 11 20 12 44 5 18 -5 47 -9 66 -9 30 0 32 2 20 16
-12 15 -10 16 21 9 19 -4 45 -11 56 -16z m176 -70 c29 -11 63 -30 75 -41 24
-23 57 -18 73 12 14 27 50 15 50 -17 0 -30 17 -21 31 15 9 24 11 25 20 10 6
-10 9 -24 8 -30 -4 -29 3 -40 36 -59 20 -12 35 -29 35 -40 0 -25 -4 -24 -74
11 -32 17 -73 30 -90 30 -17 0 -69 16 -116 36 -47 20 -94 37 -105 37 -11 1
-20 8 -19 15 4 51 2 50 76 21z m-913 -13 c15 -18 -8 -37 -39 -31 -31 6 -33 10
-15 29 20 20 39 20 54 2z m4 -80 c7 -18 -62 -30 -97 -16 -44 16 -29 30 33 30
41 0 60 -4 64 -14z m-183 -6 c0 -5 -4 -10 -10 -10 -5 0 -10 5 -10 10 0 6 5 10
10 10 6 0 10 -4 10 -10z m40 0 c0 -5 -4 -10 -10 -10 -5 0 -10 5 -10 10 0 6 5
10 10 10 6 0 10 -4 10 -10z m-76 -9 c11 -16 -27 -22 -43 -6 -14 13 -13 15 11
15 15 0 29 -4 32 -9z m1672 -167 c19 -13 30 -14 47 -7 19 9 30 6 62 -18 23
-18 46 -27 57 -24 26 9 58 -12 58 -38 0 -27 58 -56 71 -35 12 18 77 -16 89
-47 10 -26 108 -103 173 -137 25 -13 48 -17 67 -13 23 5 46 -6 136 -64 59 -39
111 -71 116 -71 4 0 8 -7 8 -15 0 -10 -10 -15 -29 -15 -42 0 -45 -12 -8 -41
48 -37 132 -89 145 -89 23 0 102 -44 102 -57 0 -8 7 -16 15 -19 8 -4 15 -19
15 -35 0 -22 9 -34 37 -54 21 -14 49 -25 64 -25 17 0 40 -14 67 -40 23 -23 50
-40 63 -40 21 0 69 -35 69 -51 0 -4 -11 -10 -25 -13 -14 -4 -25 -11 -25 -16 0
-16 73 -60 99 -60 29 0 111 -79 111 -108 0 -19 26 -42 85 -72 17 -8 31 -24 33
-35 3 -25 61 -59 84 -50 29 11 178 -108 178 -143 0 -9 -10 -27 -22 -40 -16
-17 -19 -26 -10 -29 6 -3 12 -10 12 -16 0 -19 33 -47 56 -47 50 0 66 68 26
113 -15 17 -7 23 14 9 6 -4 39 -39 72 -79 89 -107 214 -244 335 -367 59 -61
107 -115 107 -122 0 -23 -249 -51 -532 -60 -223 -7 -520 14 -587 42 -18 8 -36
12 -40 10 -3 -2 -56 2 -116 9 -99 12 -316 31 -480 41 -73 5 -84 15 -114 116
-38 123 -112 340 -136 398 -12 30 -32 89 -44 130 -65 229 -117 399 -170 555
-17 49 -31 97 -31 105 0 8 -13 42 -29 76 -16 33 -36 86 -45 118 -28 95 -125
286 -171 336 -12 14 -30 40 -39 58 -9 17 -21 32 -26 32 -5 0 -16 14 -25 30
-18 34 -7 39 31 14z m305 -30 c18 -20 49 -43 67 -50 17 -8 32 -19 32 -24 0
-21 -28 -10 -150 61 -14 7 -27 15 -29 16 -7 5 21 33 33 33 7 0 28 -16 47 -36z
m-37 -65 c-3 -5 -10 -7 -15 -3 -5 3 -7 10 -3 15 3 5 10 7 15 3 5 -3 7 -10 3
-15z m266 -70 c34 -22 59 -43 56 -46 -9 -10 -70 17 -98 44 -15 14 -33 23 -42
20 -8 -3 -20 1 -26 9 -10 12 -7 14 18 14 19 0 54 -15 92 -41z m-2295 -9 c-3
-5 -11 -10 -16 -10 -6 0 -7 5 -4 10 3 6 11 10 16 10 6 0 7 -4 4 -10z m-62 -15
c1 -5 -11 -12 -27 -13 -27 -3 -28 -2 -16 13 14 17 40 17 43 0z m55 -43 c2 -7
-6 -12 -17 -12 -21 0 -27 11 -14 24 9 9 26 2 31 -12z m2402 -2 c0 -5 -4 -10
-10 -10 -5 0 -10 5 -10 10 0 6 5 10 10 10 6 0 10 -4 10 -10z m31 -23 c-1 -12
-15 -9 -19 4 -3 6 1 10 8 8 6 -3 11 -8 11 -12z m-2486 -106 c7 -12 -12 -24
-25 -16 -11 7 -4 25 10 25 5 0 11 -4 15 -9z m-50 -11 c3 -5 -1 -10 -10 -10 -9
0 -13 5 -10 10 3 6 8 10 10 10 2 0 7 -4 10 -10z m-81 -428 c-4 -15 -22 -83
-41 -152 -76 -282 -98 -466 -83 -691 11 -170 32 -284 78 -423 48 -146 105
-228 192 -276 32 -17 210 -131 254 -163 20 -14 20 -15 -3 -73 -26 -67 -61
-213 -61 -260 0 -56 -22 -60 -76 -13 -26 22 -71 59 -101 80 -39 29 -53 46 -53
64 0 17 -9 29 -29 39 -15 8 -52 43 -82 78 -29 35 -90 101 -134 148 -45 47 -96
107 -115 134 -88 130 -121 387 -79 631 26 150 30 164 72 222 37 51 42 64 40
106 -3 54 -46 153 -96 219 -18 24 -39 57 -46 75 -7 18 -19 38 -27 44 -40 33
-1 74 116 124 47 19 125 55 175 79 49 25 93 42 97 40 5 -3 5 -17 2 -32z
m-3328 -82 c24 -16 65 -44 92 -62 45 -30 64 -46 192 -158 30 -27 92 -80 138
-120 45 -39 82 -77 82 -85 0 -7 -15 -22 -33 -34 -18 -11 -43 -31 -55 -44 -20
-21 -21 -25 -7 -37 13 -11 19 -9 40 10 13 12 48 30 78 40 l55 18 64 -25 c84
-34 119 -61 171 -136 56 -80 79 -139 71 -182 -4 -25 0 -44 20 -78 31 -53 56
-180 56 -286 0 -73 0 -74 -20 -56 -11 10 -22 27 -26 39 -17 53 -48 106 -63
107 -19 0 -100 57 -114 81 -13 20 14 96 50 139 23 27 25 35 18 92 -6 59 -9 64
-51 97 -112 87 -131 94 -169 66 -18 -13 -16 -18 38 -104 87 -137 107 -203 72
-232 -18 -15 -31 -5 -37 25 -2 12 -13 21 -26 23 -13 2 -22 10 -22 21 0 22 -55
75 -69 66 -12 -7 1 -38 26 -63 7 -7 13 -22 13 -33 0 -25 15 -55 46 -92 14 -16
24 -42 24 -60 1 -18 7 -43 15 -57 8 -14 14 -35 15 -47 0 -13 4 -23 10 -23 5 0
20 -16 33 -35 20 -30 26 -33 36 -21 9 11 6 21 -18 47 -32 34 -50 104 -33 121
12 12 102 -27 102 -43 0 -5 11 -11 24 -15 24 -6 51 -48 41 -64 -6 -10 13 -62
25 -70 16 -10 -1 -50 -21 -50 -11 0 -28 -14 -39 -32 -24 -39 -25 -52 -5 -44
16 6 45 -29 45 -56 0 -25 18 -31 29 -9 8 14 7 30 -3 58 -17 47 -6 73 29 73 30
0 45 -26 45 -80 0 -22 14 -106 31 -185 l32 -145 -24 -19 c-13 -11 -29 -20 -35
-21 -7 0 -28 -16 -47 -35 -19 -19 -43 -35 -52 -35 -10 0 -33 -14 -52 -30 -26
-23 -43 -30 -71 -29 -20 1 -64 -8 -96 -20 -81 -30 -102 -24 -132 45 -13 30
-24 61 -24 69 0 25 74 67 103 60 21 -6 33 0 66 34 37 38 59 77 48 87 -3 3 -18
-13 -33 -35 -32 -45 -58 -59 -79 -41 -12 10 -22 6 -52 -19 -59 -49 -76 -43
-133 46 -28 42 -67 95 -88 119 -69 79 -117 138 -134 166 -10 15 -24 28 -31 28
-18 0 -92 187 -100 253 l-7 47 51 36 c49 36 50 37 46 83 -2 25 -7 53 -11 62
-5 11 3 20 32 33 56 25 162 126 162 154 0 23 -65 122 -81 122 -5 0 -9 5 -9 12
0 6 -23 45 -52 87 -127 188 -286 480 -273 501 9 14 12 13 61 -20z m-74 -106
c10 -16 32 -58 49 -94 36 -78 46 -96 80 -146 114 -168 219 -349 219 -378 0 -8
-10 -22 -22 -31 -74 -51 -177 -115 -186 -115 -5 0 -14 12 -20 28 -12 34 -69
264 -88 357 -8 39 -28 132 -44 207 -42 194 -38 254 12 172z m7273 -234 c3 -5
1 -10 -4 -10 -6 0 -11 5 -11 10 0 6 2 10 4 10 3 0 8 -4 11 -10z m69 -281 c-3
-5 -10 -7 -15 -3 -5 3 -7 10 -3 15 3 5 10 7 15 3 5 -3 7 -10 3 -15z m-4298
-131 c-10 -85 -25 -128 -44 -128 -16 0 -122 56 -122 64 0 3 17 15 38 27 20 12
54 38 75 56 52 47 61 43 53 -19z m4829 -187 c49 -36 84 -66 77 -69 -34 -11
-108 20 -155 66 -70 69 -128 138 -121 145 3 3 29 -13 58 -36 29 -23 92 -71
141 -106z m-4970 69 c22 -11 44 -20 50 -20 16 -1 59 -40 51 -47 -3 -4 -27 4
-53 17 -29 15 -71 25 -116 28 -71 5 -71 5 -48 23 30 24 67 24 116 -1z m-30
-65 c17 0 44 -9 61 -18 34 -17 44 -48 44 -137 1 -78 28 -182 75 -278 45 -93
92 -149 235 -278 25 -22 86 -89 135 -148 50 -59 104 -117 120 -129 31 -22 122
-93 163 -127 18 -15 22 -29 22 -74 0 -44 -3 -56 -15 -56 -26 0 -86 28 -160 76
-193 124 -236 151 -315 197 -170 100 -309 233 -375 357 -66 127 -96 237 -107
397 -6 78 -7 158 -4 178 8 39 36 58 71 48 11 -4 34 -7 50 -8z m-154 -25 c-9
-61 -3 -348 8 -388 16 -57 5 -71 -26 -30 -39 53 -54 87 -73 167 -21 87 -24
168 -9 226 13 48 23 56 69 53 31 -3 35 -6 31 -28z m3544 -175 c22 -2 83 -10
135 -18 52 -9 124 -18 160 -20 36 -2 126 -14 200 -25 135 -21 379 -40 498 -40
95 0 95 0 90 -172 -5 -128 -9 -155 -35 -230 -64 -180 -157 -337 -271 -454 -58
-59 -171 -139 -287 -201 -72 -39 -254 -88 -393 -105 -101 -13 -282 -6 -372 15
l-55 12 3 49 c2 27 17 82 33 122 16 40 33 101 39 135 6 34 18 94 26 132 16 68
18 90 30 245 10 139 11 143 47 137 69 -10 154 -31 185 -44 18 -8 40 -13 50
-11 19 4 28 36 14 50 -10 10 -107 41 -197 61 -78 19 -76 14 -73 150 2 67 -1
143 -5 169 -9 55 -2 60 83 51 30 -3 73 -7 95 -8z m-1001 -71 c11 -10 16 -34
16 -75 0 -70 15 -66 -170 -38 -79 11 -174 19 -230 18 -52 -1 -106 3 -120 8
-14 6 -39 8 -56 6 -34 -5 -56 12 -27 21 10 2 52 10 93 16 41 7 85 19 98 27 16
10 50 14 108 14 46 0 94 4 107 9 39 16 164 12 181 -6z m-1691 -63 c101 -80
208 -110 395 -111 96 0 113 -9 62 -30 -34 -14 -108 -82 -161 -150 l-36 -45
-39 30 c-70 52 -261 251 -283 294 -36 70 -15 74 62 12z m-958 -29 c6 -4 23
-27 37 -52 15 -25 45 -63 67 -85 23 -21 41 -42 41 -46 0 -4 -39 -30 -87 -59
-49 -29 -112 -75 -141 -101 -106 -97 -117 -116 -182 -317 -33 -102 -72 -234
-86 -292 -14 -58 -30 -110 -35 -116 -6 -7 -20 -50 -33 -97 -28 -102 -31 -107
-60 -107 -34 0 -130 35 -194 71 -128 72 -352 245 -352 271 0 4 30 29 67 56 37
26 93 72 123 102 31 30 75 67 98 82 23 15 52 45 66 66 13 21 45 57 70 79 25
22 84 89 132 149 156 196 293 323 414 385 40 21 41 21 55 11z m2271 -58 c-3
-7 25 -11 85 -12 49 -1 98 -6 109 -12 11 -6 31 -8 44 -4 20 5 147 -27 164 -41
11 -9 -21 -420 -38 -485 -10 -41 -21 -100 -25 -130 -4 -30 -19 -91 -34 -135
l-26 -80 -105 1 c-89 1 -121 6 -209 33 -83 26 -109 31 -128 22 -25 -12 -28
-26 -13 -66 21 -56 30 -159 20 -225 -22 -145 -37 -217 -53 -252 -9 -21 -17
-46 -17 -56 0 -17 -74 -261 -99 -325 -25 -64 -94 -314 -92 -335 0 -13 -3 -32
-9 -41 -12 -23 -50 -270 -50 -327 0 -54 -8 -74 -30 -74 -9 0 -69 13 -131 30
-63 16 -136 30 -164 30 -133 0 -343 53 -382 96 -27 29 -28 46 -8 134 17 73 16
71 34 123 7 21 11 41 8 43 -3 3 4 36 14 72 50 172 99 394 99 448 1 32 6 75 13
94 14 38 9 124 -19 345 -8 66 -17 140 -19 163 -3 24 -9 51 -14 60 -20 40 -33
272 -18 332 5 19 12 53 17 75 44 222 118 349 230 399 104 47 344 101 480 109
128 7 370 1 366 -9z m-2157 -213 c-29 -22 -84 -51 -99 -51 -41 0 61 68 104 70
16 0 16 -2 -5 -19z m95 -29 c8 -16 22 -34 30 -41 21 -18 20 -41 -2 -41 -10 0
-37 -20 -61 -44 -45 -46 -86 -65 -104 -47 -15 15 17 48 75 77 26 13 49 28 52
32 9 14 -17 72 -32 72 -7 0 -10 5 -7 10 12 19 34 10 49 -18z m5536 22 c0 -4
-13 -28 -29 -54 -38 -62 -86 -173 -102 -233 -8 -32 -10 -88 -6 -165 3 -66 1
-124 -4 -134 -5 -10 -35 -25 -67 -34 -31 -9 -61 -20 -67 -24 -5 -4 -39 -13
-75 -20 -64 -13 -102 -30 -66 -30 10 0 70 10 133 22 121 22 132 21 133 -24 0
-18 -102 -111 -141 -128 -71 -31 -143 -90 -109 -90 18 0 91 40 145 80 57 43
150 94 189 104 27 7 122 79 168 127 33 35 55 44 134 53 67 7 114 -5 114 -29 0
-15 -22 -27 -215 -114 -110 -50 -450 -271 -428 -278 8 -3 87 39 143 77 143 95
376 220 412 220 35 0 14 -24 -53 -59 -35 -19 -68 -40 -72 -48 -4 -7 -12 -13
-18 -13 -9 0 -68 -40 -99 -68 -21 -18 -113 -84 -147 -104 -78 -49 -387 -259
-461 -314 -103 -77 -129 -96 -188 -139 -34 -25 -65 -45 -70 -45 -4 0 -20 -11
-34 -25 -14 -14 -53 -44 -87 -67 -34 -24 -118 -86 -187 -138 -111 -84 -268
-187 -391 -255 -22 -13 -78 -46 -124 -74 -46 -28 -88 -51 -93 -51 -5 0 -6 20
-3 44 5 28 3 46 -4 50 -21 14 -10 32 44 74 67 53 89 105 61 147 -17 26 -17 27
11 62 70 87 86 151 49 192 -17 19 -17 21 9 55 22 30 55 118 55 151 0 11 -73
51 -153 84 -26 11 -50 27 -53 36 -4 8 -27 27 -53 42 -25 14 -54 33 -65 42 -25
22 -197 19 -331 -4 -55 -10 -118 -18 -140 -18 -24 -1 -48 -8 -59 -19 -19 -18
-19 -18 21 -18 22 0 62 7 89 15 27 8 110 18 184 21 118 5 144 4 210 -15 61
-17 81 -28 108 -58 44 -52 47 -71 19 -134 -23 -53 -56 -86 -129 -132 -16 -10
-28 -23 -28 -29 0 -6 8 -4 18 5 10 10 24 17 30 17 6 0 40 20 75 45 65 45 97
94 97 145 0 21 16 25 58 14 25 -7 29 -29 7 -42 -13 -7 -12 -10 10 -20 17 -8
25 -19 25 -37 0 -73 -76 -159 -193 -221 -40 -21 -66 -39 -60 -41 7 -3 55 19
108 47 52 29 102 49 110 46 28 -10 17 -64 -24 -125 -48 -70 -143 -140 -286
-211 -55 -27 -93 -49 -84 -50 22 0 150 59 224 104 33 20 72 36 88 36 23 0 27
-4 27 -30 0 -24 -11 -41 -50 -76 -52 -49 -272 -194 -330 -219 -52 -23 -63 -30
-68 -44 -2 -7 37 9 87 36 51 26 121 63 156 82 35 18 71 31 80 28 26 -11 16
-46 -25 -87 -104 -104 -349 -225 -604 -298 -57 -16 -87 -42 -49 -42 64 0 444
129 531 180 18 11 38 20 44 20 6 0 31 15 57 34 25 18 83 52 127 74 74 37 88
41 151 39 68 -2 70 -1 118 41 26 23 51 40 54 36 7 -6 -78 -89 -98 -95 -8 -3
-12 -10 -10 -17 6 -16 84 21 130 63 31 27 107 75 121 75 2 0 3 -11 3 -25 0
-14 -3 -25 -7 -25 -12 0 -102 -89 -96 -95 3 -3 16 4 31 15 28 22 62 26 73 9 4
-8 9 -7 15 2 5 8 3 17 -4 21 -9 5 -9 12 -1 25 15 24 39 31 30 8 -8 -22 10 -45
36 -45 11 0 46 16 78 35 32 19 63 35 71 35 7 0 20 7 29 15 8 8 33 21 53 30 43
18 51 10 45 -42 -2 -23 -14 -34 -70 -63 -65 -34 -94 -36 -68 -5 7 8 20 15 29
15 16 1 61 33 61 45 0 3 -12 0 -27 -9 -16 -8 -42 -20 -60 -26 -46 -17 -57 -34
-41 -59 8 -13 19 -19 28 -15 8 4 40 8 70 10 43 3 59 8 74 26 10 13 24 22 30
21 6 -1 34 10 61 25 36 20 49 33 47 46 -3 15 1 17 22 12 18 -4 31 -1 46 14 11
11 27 20 36 20 27 0 54 19 47 36 -3 8 4 25 17 39 22 24 20 45 -5 45 -8 0 -20
-8 -27 -18 -7 -9 -39 -30 -70 -45 -32 -15 -59 -36 -63 -47 -5 -17 -9 -18 -27
-7 -16 9 -22 9 -25 0 -7 -19 -40 -16 -47 3 -4 9 -5 18 -4 18 2 1 63 31 136 66
100 48 131 68 127 80 -3 11 7 21 35 33 22 9 44 17 49 17 6 0 13 5 17 12 5 8
-5 9 -36 4 -44 -7 -44 -7 -25 14 25 28 14 34 -26 14 -19 -10 -46 -23 -61 -31
-14 -7 -35 -13 -46 -13 -11 0 -23 -6 -26 -12 -5 -10 -7 -10 -12 0 -7 15 -61
16 -66 1 -5 -14 -68 -41 -68 -29 0 6 4 10 8 10 5 0 29 13 53 30 24 16 52 30
62 30 9 0 17 3 17 8 0 14 53 32 65 22 9 -7 22 -7 41 1 23 10 25 13 11 16 -14
4 -17 12 -15 36 3 29 19 45 63 60 6 2 5 10 -2 19 -16 18 -7 28 23 28 13 0 26
5 29 10 4 6 -8 10 -29 10 -32 0 -36 3 -36 25 0 20 -5 25 -27 25 -25 0 -26 0
-8 20 16 18 16 20 2 20 -47 0 -5 43 125 129 68 44 134 89 148 100 14 10 48 33
75 50 l50 32 3 -29 c6 -56 -49 -316 -94 -447 -25 -71 -49 -148 -55 -170 -5
-22 -13 -49 -18 -60 -6 -11 -15 -38 -21 -60 -18 -60 -98 -209 -180 -334 -55
-85 -79 -113 -99 -117 -54 -12 -56 -13 -38 -31 15 -15 14 -19 -3 -53 -25 -50
-94 -100 -137 -100 -22 0 -33 -5 -33 -15 0 -9 6 -12 15 -9 31 12 14 -32 -32
-79 l-46 -49 -116 7 c-64 4 -147 8 -186 10 -38 2 -102 8 -141 14 -128 18 -293
24 -709 25 -284 0 -439 -4 -503 -13 -71 -10 -96 -10 -107 -1 -8 7 -26 9 -44 5
-33 -7 -74 2 -66 14 8 14 123 34 154 28 37 -8 49 8 25 34 -17 19 -17 20 3 34
24 17 40 59 47 122 3 23 12 52 20 65 9 13 23 61 31 107 9 46 25 105 36 132 30
79 33 142 10 258 -11 57 -27 113 -36 125 -8 12 -26 37 -39 56 -13 19 -33 44
-46 55 -22 20 -70 105 -70 125 0 5 17 28 37 51 39 43 41 46 95 198 37 103 43
109 118 110 25 1 78 10 118 21 39 11 82 20 95 20 12 0 47 7 77 15 60 17 148
33 223 41 96 10 242 44 267 62 23 17 30 18 70 6 53 -16 107 -17 262 -8 131 8
184 -4 228 -51 l22 -24 -21 -34 c-21 -35 -106 -107 -124 -107 -6 0 -20 -9 -31
-19 -18 -16 -182 -91 -238 -108 -16 -5 -26 -23 -13 -23 17 0 136 43 140 51 3
4 24 13 47 20 23 6 66 27 97 47 94 64 157 102 166 102 3 0 5 -11 5 -24 0 -89
-177 -253 -380 -351 -19 -10 -30 -19 -23 -22 6 -2 31 7 55 21 24 14 77 43 118
66 42 22 108 69 147 105 39 36 76 65 82 65 23 0 9 -38 -38 -110 -74 -113 -102
-141 -189 -192 -80 -48 -129 -90 -87 -74 11 4 55 28 98 54 76 46 96 63 212
190 32 34 64 62 70 62 7 0 18 7 25 15 10 12 10 15 -3 15 -8 0 -25 16 -37 37
-18 31 -20 45 -15 98 6 52 4 67 -14 96 -12 19 -21 41 -21 49 0 9 -20 26 -45
40 -34 18 -44 29 -39 42 6 21 -3 22 -42 7 -28 -10 -74 -5 -74 9 0 4 62 7 138
8 106 0 144 3 167 16 90 47 405 42 405 -7 0 -19 -131 -150 -170 -170 -19 -10
-48 -28 -65 -40 -16 -13 -58 -33 -93 -45 -61 -22 -87 -40 -59 -40 8 0 31 7 50
15 20 8 47 15 60 15 14 0 30 7 38 16 7 8 36 27 63 41 58 29 149 109 184 160
21 30 22 38 12 63 -14 34 -61 53 -118 48 -25 -2 -36 1 -34 10 1 6 3 18 5 25 3
17 -83 9 -105 -10 -17 -16 -147 -53 -186 -53 -34 0 -17 18 23 26 19 3 39 12
46 20 6 8 22 14 35 14 13 0 24 5 24 10 0 12 -33 13 -45 1 -16 -14 -120 -41
-157 -40 -39 0 -41 -1 101 55 94 36 94 36 110 16 15 -19 19 -20 49 -7 38 17
44 38 7 29 -14 -3 -25 -2 -25 3 0 14 93 63 119 63 32 0 25 -20 -9 -26 -29 -6
-38 -18 -22 -28 5 -3 26 7 48 21 52 35 50 33 35 42 -18 11 -2 20 49 26 55 7
62 12 50 34 -8 16 -1 24 45 55 72 48 71 67 -1 26 l-57 -32 7 32 c6 31 5 32
-22 26 -62 -16 -82 -18 -82 -8 0 14 82 42 106 36 16 -4 23 0 27 14 3 12 29 33
63 50 33 16 67 39 77 50 17 19 17 19 -10 14 -15 -2 -37 -12 -48 -22 -29 -25
-115 -70 -133 -70 -26 0 23 45 88 79 34 18 76 53 104 85 49 57 156 136 185
136 10 0 30 14 47 31 44 46 134 88 134 63z m-5637 -80 c19 -19 -55 -81 -183
-151 -54 -31 -80 -56 -68 -69 4 -3 36 15 71 40 36 25 67 46 71 46 3 0 6 -9 6
-19 0 -14 -37 -45 -122 -105 -68 -46 -124 -83 -125 -82 -9 8 12 44 30 51 25
11 34 49 17 71 -10 11 -9 18 1 31 21 25 100 73 121 73 10 0 25 11 34 25 9 14
20 22 25 20 4 -3 13 4 19 15 6 11 27 29 48 39 41 22 46 24 55 15z m-163 -43
c0 -12 -50 -44 -58 -36 -4 3 4 15 18 25 27 21 40 25 40 11z m352 -16 c7 -7
-66 -84 -100 -107 -73 -48 -70 6 4 66 51 42 82 55 96 41z m-1775 -77 c5 -7 22
-45 37 -84 15 -39 42 -97 61 -128 53 -89 174 -244 194 -251 10 -3 24 -19 31
-35 6 -16 21 -36 31 -46 15 -13 18 -25 13 -47 -7 -35 14 -61 62 -77 35 -12 42
-24 23 -35 -13 -9 22 -48 68 -76 24 -15 37 -18 51 -10 16 8 26 2 62 -34 50
-51 83 -69 171 -91 35 -9 69 -20 75 -25 6 -5 33 -12 60 -15 27 -4 56 -11 65
-15 27 -14 191 11 212 31 16 15 25 16 54 7 26 -8 51 -7 106 5 40 9 95 21 122
27 28 5 77 18 110 29 57 19 135 36 235 52 25 4 63 17 85 29 21 11 50 21 63 21
31 0 81 36 92 65 5 13 26 31 46 41 32 15 34 19 20 29 -26 19 -19 32 27 50 23
9 58 27 77 39 39 25 152 66 184 66 12 0 39 12 61 25 22 14 52 25 67 25 25 0
29 -6 48 -69 11 -37 20 -80 20 -94 0 -14 5 -38 11 -54 17 -44 30 -178 29 -283
-2 -135 -30 -395 -44 -419 -4 -6 -12 -37 -17 -69 -5 -31 -16 -82 -25 -112 -9
-30 -25 -100 -36 -155 -10 -55 -23 -114 -28 -131 -6 -17 -10 -56 -10 -86 0
-55 1 -58 46 -96 l46 -39 -42 -122 c-50 -142 -69 -165 -134 -156 -23 3 -131
10 -241 16 -481 26 -618 42 -613 68 3 14 57 30 108 32 28 0 295 41 310 47 8 3
24 6 34 6 11 1 21 6 23 13 3 8 -7 8 -39 1 -24 -6 -52 -11 -63 -11 -11 0 -39
-4 -63 -9 -85 -17 -339 -38 -542 -44 l-207 -7 -44 40 c-48 43 -179 149 -213
173 -11 8 -46 35 -76 60 -71 60 -239 180 -252 180 -5 0 -49 37 -96 83 -48 45
-115 107 -149 138 -61 56 -61 57 -56 100 3 24 16 65 29 90 24 49 41 160 30
202 -7 30 -37 42 -65 28 -10 -6 -30 -30 -44 -53 -28 -48 -64 -85 -73 -75 -4 4
6 23 22 44 15 21 27 48 26 61 -1 17 11 36 44 65 40 37 45 47 46 85 0 31 -6 50
-21 66 -19 20 -21 30 -15 93 6 66 5 72 -15 83 -18 9 -31 8 -62 -4 -55 -22 -71
-20 -100 13 l-26 30 -49 -15 c-27 -8 -75 -32 -106 -54 -83 -58 -105 -65 -122
-37 -8 12 -22 49 -31 82 -9 33 -32 90 -51 128 -37 73 -134 328 -134 352 0 22
79 57 130 57 66 -1 170 45 195 86 12 19 31 35 48 39 17 3 37 19 50 39 24 37
30 40 44 22z m1841 -10 c-17 -26 -106 -89 -149 -105 -16 -6 -29 -10 -29 -8 0
2 15 21 33 44 17 22 40 51 50 65 15 22 26 26 64 26 45 0 45 0 31 -22z m-248
-17 c0 -12 -20 -25 -27 -18 -7 7 6 27 18 27 5 0 9 -4 9 -9z m320 -35 c0 -25
-66 -77 -190 -147 -125 -72 -160 -64 -88 20 29 33 58 55 87 65 55 20 51 20 51
-4 0 -11 5 -20 10 -20 6 0 10 6 10 14 0 18 57 89 78 97 25 9 42 -1 42 -25z
m-365 -10 c18 -13 18 -15 -11 -41 -35 -34 -84 -65 -102 -65 -20 0 13 71 46 97
32 27 41 28 67 9z m115 -15 c0 -49 -111 -138 -157 -126 -18 4 -25 -1 -38 -28
-10 -22 -31 -41 -61 -55 -54 -27 -54 -27 -54 -3 0 10 20 40 44 66 41 44 48 47
80 42 32 -5 39 -2 63 30 42 55 123 103 123 74z m330 -15 c0 -17 -15 -36 -28
-36 -9 0 -26 -10 -39 -21 -20 -20 -23 -20 -29 -5 -7 19 11 45 41 56 22 9 55
13 55 6z m-570 -33 c0 -18 -93 -113 -110 -113 -25 0 -5 43 41 89 50 50 69 56
69 24z m648 -25 c-3 -7 -19 -21 -37 -32 l-33 -19 16 31 c10 20 24 32 37 32 12
0 19 -5 17 -12z m-101 -50 c-30 -52 -162 -147 -179 -130 -7 7 -4 19 11 40 11
17 21 35 21 41 0 6 6 11 14 11 8 0 27 11 43 24 34 28 83 55 102 56 9 0 6 -13
-12 -42z m-127 18 c0 -15 -43 -55 -90 -83 -33 -19 -39 -33 -15 -33 27 0 28
-29 2 -68 -28 -42 -137 -111 -137 -86 0 28 40 92 70 114 19 14 29 28 26 37 -9
23 21 70 66 102 46 33 78 39 78 17z m300 -10 c0 -17 -7 -27 -22 -32 -12 -3
-30 -16 -40 -28 -31 -37 -22 10 10 50 32 40 52 44 52 10z m4440 -16 c0 -5 -2
-10 -4 -10 -3 0 -8 5 -11 10 -3 6 -1 10 4 10 6 0 11 -4 11 -10z m-4352 -22 c2
-12 -3 -18 -15 -18 -11 0 -24 -5 -30 -11 -12 -12 -33 -4 -33 11 0 35 72 52 78
18z m-198 -10 c0 -22 -98 -128 -118 -128 -46 0 59 135 116 149 1 1 2 -9 2 -21z
m-760 2 c0 -12 -28 -70 -34 -70 -3 0 -11 -3 -20 -6 -23 -9 -20 28 5 60 20 26
49 35 49 16z m290 0 c0 -24 -32 -70 -69 -99 -74 -59 -98 -26 -34 47 20 23 44
42 54 42 10 0 21 5 24 10 8 13 25 13 25 0z m-1389 -15 c1 -17 -18 -17 -25 0
-4 11 -1 15 10 13 8 -2 15 -7 15 -13z m2127 -17 c4 -20 -47 -88 -65 -88 -17 0
-16 30 2 74 12 29 21 37 38 34 12 -2 23 -11 25 -20z m4372 -2 c0 -20 -39 -66
-56 -66 -8 0 -24 -9 -35 -19 -11 -10 -41 -26 -67 -35 -26 -10 -65 -25 -87 -36
-232 -107 -275 -123 -275 -100 0 12 122 80 146 80 10 0 38 11 62 25 24 13 61
29 83 35 30 8 43 19 59 49 19 38 50 55 135 74 34 8 35 7 35 -7z m-5345 -27
c-18 -34 -37 -44 -62 -34 -16 6 -14 10 15 36 18 16 39 29 47 29 14 0 14 -4 0
-31z m335 8 c0 -20 -47 -60 -60 -52 -6 4 -17 -1 -24 -11 -13 -17 -46 -14 -46
3 0 10 101 72 118 73 6 0 12 -6 12 -13z m450 3 c0 -5 -4 -10 -10 -10 -5 0 -10
-6 -10 -12 -1 -15 -37 -51 -92 -91 -36 -26 -38 -27 -38 -8 0 29 55 88 95 101
19 6 35 16 35 21 0 5 5 9 10 9 6 0 10 -4 10 -10z m110 0 c0 -30 -55 -113 -92
-140 -42 -31 -78 -39 -78 -18 0 30 55 101 103 132 56 37 67 41 67 26z m214
-70 c29 0 56 -9 56 -19 0 -9 -68 -31 -94 -31 -10 0 -16 9 -16 25 0 33 -20 32
-55 -5 -16 -16 -33 -30 -39 -30 -5 0 -20 -10 -33 -22 -22 -20 -23 -21 -23 -2
0 25 7 33 60 76 52 41 101 53 112 26 4 -10 18 -18 32 -18z m4051 30 c6 -10
-34 -30 -61 -30 -26 0 -15 29 14 33 15 2 30 5 34 6 4 0 10 -4 13 -9z m-5095
-10 c0 -47 -94 -147 -111 -118 -10 16 35 99 62 114 29 16 49 18 49 4z m483
-21 c-10 -17 -28 -36 -40 -42 -13 -6 -23 -15 -23 -20 0 -15 -41 -57 -55 -57
-6 0 -26 -11 -45 -25 -19 -14 -41 -25 -51 -25 -9 0 -19 -9 -22 -19 -5 -20 -91
-80 -114 -81 -45 0 30 108 102 149 63 35 69 37 61 15 -4 -10 -1 -14 6 -12 7 3
15 15 18 28 6 25 132 117 163 119 17 1 17 0 0 -30z m4475 14 c83 -8 82 -8
-107 -92 -63 -28 -116 -49 -119 -47 -9 10 8 36 22 36 18 0 121 64 132 81 7 12
-7 11 -121 -7 -34 -6 -38 -4 -27 7 15 17 119 39 147 32 11 -3 44 -8 73 -10z
m958 -5 c9 -14 -68 -83 -136 -121 l-49 -28 -15 34 c-8 19 -19 38 -25 41 -19
12 -12 33 17 45 37 15 141 39 174 40 15 1 30 -4 34 -11z m-6038 -19 c-20 -13
-28 -11 -22 5 3 8 12 12 21 9 12 -5 12 -7 1 -14z m-63 -28 c-20 -40 -35 -48
-35 -19 0 27 17 48 37 48 11 0 10 -6 -2 -29z m251 -36 c-37 -56 -116 -93 -116
-54 0 14 54 65 95 91 26 16 30 16 33 3 2 -9 -3 -27 -12 -40z m4484 46 c0 -5
-7 -11 -15 -15 -15 -5 -20 5 -8 17 9 10 23 9 23 -2z m-4031 -54 c-14 -29 -36
-52 -66 -70 -43 -27 -63 -33 -63 -21 0 18 114 134 131 134 18 0 18 -1 -2 -43z
m4269 32 c-2 -6 -22 -19 -43 -27 -22 -9 -56 -25 -75 -37 -19 -12 -48 -25 -65
-28 -16 -3 -40 -8 -52 -12 -16 -5 -23 -3 -23 6 0 15 52 37 107 46 19 3 33 12
36 23 3 11 20 23 38 29 47 13 81 13 77 0z m-4948 -65 c-30 -35 -41 -4 -12 36
l17 25 3 -23 c2 -13 -2 -30 -8 -38z m350 44 c-1 -26 -28 -60 -89 -113 -54 -48
-91 -68 -91 -50 0 3 14 33 31 66 23 46 38 64 64 75 18 7 36 18 40 24 9 14 45
12 45 -2z m620 1 c0 -22 -22 -49 -40 -49 -31 0 -32 17 -3 39 32 23 43 26 43
10z m-196 -25 c9 -24 -24 -72 -72 -105 -24 -16 -47 -29 -52 -29 -41 0 -1 84
59 121 52 34 57 34 65 13z m3840 -12 c-13 -10 -15 -16 -6 -19 24 -9 12 -34
-23 -49 -35 -14 -55 -12 -55 6 0 5 9 12 20 15 11 3 20 11 20 16 0 5 -9 9 -20
9 -33 0 -23 15 23 31 48 17 69 13 41 -9z m136 19 c0 -5 -13 -12 -29 -16 -16
-3 -32 -13 -35 -21 -6 -17 -59 -19 -54 -2 8 24 118 61 118 39z m-4815 -73 c-8
-45 -20 -68 -37 -68 -14 0 -2 57 17 87 22 34 28 28 20 -19z m925 22 c0 -12
-62 -41 -70 -33 -7 7 40 43 56 43 8 0 14 -5 14 -10z m-790 -13 c0 -28 -84
-127 -107 -127 -20 0 30 93 64 119 33 24 43 26 43 8z m464 -5 c11 -18 -68
-113 -112 -136 -38 -20 -42 -20 -42 -1 0 26 29 75 44 75 8 0 30 16 49 35 35
35 51 42 61 27z m-374 -23 c0 -23 -64 -129 -98 -163 -37 -37 -72 -47 -72 -21
0 29 38 90 90 143 48 49 80 66 80 41z m450 -13 c0 -2 -6 -19 -14 -37 -11 -25
-23 -35 -55 -45 -58 -17 -55 5 7 51 43 32 62 41 62 31z m3890 -5 c0 -5 3 -18
6 -28 6 -16 5 -16 -9 2 -19 23 -21 35 -7 35 6 0 10 -4 10 -9z m180 -10 c0 -11
-25 -21 -51 -21 -21 0 -26 16 -6 23 21 9 57 7 57 -2z m205 -10 c-15 -15 -95
-26 -95 -13 0 10 27 17 80 21 15 0 20 -3 15 -8z m-5700 -11 c3 -5 -1 -10 -9
-10 -9 0 -16 5 -16 10 0 6 4 10 9 10 6 0 13 -4 16 -10z m5269 -10 c29 -11 35
-40 10 -40 -16 0 -43 27 -44 43 0 9 4 9 34 -3z m-1954 -15 c0 -9 -9 -15 -25
-15 -26 0 -33 -14 -14 -26 11 -6 -23 -33 -43 -34 -15 0 -8 59 8 74 20 21 74
21 74 1z m-2250 -6 c0 -28 -46 -88 -90 -118 -47 -32 -70 -34 -70 -6 0 20 78
115 103 125 31 12 57 12 57 -1z m86 -62 c-12 -29 -21 -37 -51 -43 -24 -4 -40
-2 -48 6 -9 10 -9 14 1 17 7 3 32 20 55 38 49 38 64 32 43 -18z m-442 37 c23
-9 20 -19 -10 -33 -32 -14 -39 -9 -24 18 12 23 12 23 34 15z m2919 -18 c30
-19 172 -66 200 -66 13 0 43 -6 68 -14 24 -8 89 -22 144 -31 138 -23 186 -36
192 -52 3 -7 -10 -50 -29 -96 -19 -45 -43 -103 -52 -129 -9 -25 -29 -58 -44
-73 -26 -26 -28 -26 -122 -20 -154 10 -273 41 -435 115 -22 9 -48 20 -57 23
-36 12 -31 51 21 183 48 120 75 174 87 174 2 0 15 -6 27 -14z m1887 4 c0 -19
-164 -35 -220 -21 -49 11 -22 20 75 24 44 2 95 4 113 5 17 1 32 -2 32 -8z
m-4736 -75 c-22 -46 -51 -67 -76 -54 -22 12 -24 29 -4 29 8 0 21 12 28 27 14
29 61 59 66 43 2 -5 -4 -25 -14 -45z m2746 43 c0 -7 -11 -26 -24 -43 -22 -27
-25 -28 -31 -12 -5 12 0 26 15 43 26 26 40 31 40 12z m-4266 -74 c26 -42 46
-84 44 -92 -8 -39 -84 -18 -93 25 -3 15 -11 44 -17 64 -10 36 -4 79 11 79 5 0
29 -34 55 -76z m824 58 c6 -18 -15 -14 -22 4 -4 10 -1 14 6 12 6 -2 14 -10 16
-16z m4287 8 c-3 -5 -10 -10 -16 -10 -5 0 -9 5 -9 10 0 6 7 10 16 10 8 0 12
-4 9 -10z m-917 -12 c-3 -7 -22 -14 -43 -15 -28 -1 -45 -8 -60 -26 -11 -13
-29 -29 -40 -36 -16 -10 -7 -11 45 -5 36 3 76 10 88 15 13 5 28 7 33 3 13 -8
11 -52 -5 -82 -33 -64 -57 -142 -51 -163 4 -12 1 -32 -6 -45 -20 -38 -3 -39
29 -3 l30 34 79 -34 c134 -57 283 -101 383 -112 137 -16 137 -16 145 -46 14
-58 57 -131 113 -197 l59 -68 23 -119 23 -118 -38 -128 c-21 -70 -42 -132 -47
-138 -15 -16 -28 16 -27 65 1 25 -3 63 -9 85 -6 22 -21 79 -32 128 -12 48 -32
112 -46 142 -13 31 -24 64 -24 75 0 19 -17 36 -27 27 -3 -3 9 -43 27 -89 37
-100 73 -227 67 -242 -2 -6 2 -47 9 -91 7 -44 13 -115 13 -157 1 -67 -2 -79
-18 -88 -34 -18 -69 -12 -76 13 -4 12 -20 58 -35 102 -20 55 -32 115 -39 191
-8 88 -18 130 -44 195 -18 46 -37 83 -43 81 -13 -4 -9 -25 19 -112 13 -41 29
-95 35 -120 10 -47 5 -410 -6 -422 -4 -4 -20 -8 -36 -10 -26 -3 -29 0 -42 47
-8 28 -20 86 -28 130 -8 44 -26 134 -41 200 -28 130 -42 199 -50 258 -3 20
-10 37 -15 37 -10 0 -6 -37 16 -145 28 -140 16 -312 -30 -417 -20 -47 -24 -49
-69 -31 l-39 16 7 91 c9 127 -9 279 -46 379 -17 45 -34 86 -39 92 -12 14 -40
158 -40 203 0 49 -23 41 -104 -35 -64 -62 -80 -71 -161 -97 -50 -16 -96 -31
-102 -33 -30 -12 -9 39 42 102 31 37 62 80 70 95 7 14 21 32 29 39 9 8 16 21
16 30 0 10 -15 0 -41 -29 -23 -25 -55 -61 -73 -80 -64 -71 -127 -164 -124
-184 3 -24 40 -25 98 -2 19 8 70 22 112 31 61 14 84 15 110 6 40 -14 68 -39
68 -62 0 -9 29 -75 65 -146 55 -107 67 -141 76 -208 6 -44 8 -98 5 -120 -31
-196 -29 -218 17 -241 51 -27 12 -35 -171 -35 -145 -1 -210 -8 -192 -22 3 -2
120 1 260 6 286 10 369 5 402 -24 19 -15 21 -20 9 -28 -22 -14 -121 -30 -261
-41 -69 -6 -175 -15 -236 -20 -153 -14 -501 -13 -510 1 -3 6 -17 8 -30 5 -33
-9 -32 18 1 67 l26 37 124 0 c69 0 125 4 125 8 0 5 -64 12 -142 16 -84 4 -145
11 -149 17 -5 8 -8 8 -13 0 -10 -16 -56 -13 -62 4 -3 7 5 29 19 47 56 75 79
137 88 242 9 107 23 179 45 236 7 19 22 79 34 132 11 54 33 140 49 190 15 51
43 143 60 203 18 61 41 135 51 165 10 30 25 91 35 135 9 44 25 100 36 125 11
25 18 59 17 75 l-3 30 85 11 c121 16 152 17 148 2z m-2778 -19 c0 -5 -4 -9
-10 -9 -5 0 -10 7 -10 16 0 8 5 12 10 9 6 -3 10 -10 10 -16z m-1068 -29 c-1
-14 -9 -32 -17 -40 -13 -13 -18 -12 -38 8 l-22 23 24 20 c32 26 57 21 53 -11z
m538 20 c0 -5 -5 -10 -11 -10 -5 0 -7 5 -4 10 3 6 8 10 11 10 2 0 4 -4 4 -10z
m4225 0 c3 -5 -1 -10 -10 -10 -8 0 -20 -10 -24 -22 -8 -21 -10 -21 -16 -5 -13
30 33 64 50 37z m213 -7 c-6 -32 -149 -58 -188 -33 -21 13 -14 16 80 33 112
20 112 20 108 0z m-3713 -22 c-8 -13 -35 -15 -35 -2 0 5 8 11 18 13 21 5 26 2
17 -11z m2565 9 c0 -5 -13 -10 -30 -10 -16 0 -30 5 -30 10 0 6 14 10 30 10 17
0 30 -4 30 -10z m-3672 -9 c16 -10 12 -53 -4 -58 -7 -2 -19 3 -28 12 -12 12
-13 21 -6 36 12 21 18 23 38 10z m-228 -69 c0 -34 -72 -123 -152 -187 -90 -73
-133 -99 -149 -89 -19 12 -28 52 -19 86 13 44 131 166 211 218 l64 40 23 -25
c12 -15 22 -34 22 -43z m168 12 c18 -15 32 -35 32 -44 0 -34 -247 -298 -358
-382 -46 -36 -56 -40 -77 -30 -33 15 -57 55 -53 89 2 22 18 38 73 76 74 50
121 96 194 187 55 69 121 129 142 130 8 0 30 -12 47 -26z m4642 6 c0 -12 -26
-19 -40 -10 -18 11 -3 29 20 23 11 -3 20 -9 20 -13z m-4541 -114 c13 -16 4
-71 -15 -87 -22 -18 -64 15 -64 50 0 40 55 66 79 37z m-69 -131 c0 -12 -9 -30
-21 -41 -12 -10 -44 -48 -72 -84 -69 -89 -156 -173 -193 -188 -40 -17 -79 -2
-88 33 -9 35 -2 45 90 123 44 37 113 105 153 151 l73 82 29 -27 c16 -15 29
-37 29 -49z m110 -105 c0 -26 -66 -148 -99 -183 -41 -44 -85 -67 -148 -77 -64
-11 -123 2 -123 26 0 8 6 14 14 14 22 0 125 48 175 82 53 36 95 76 135 131 28
38 46 41 46 7z m6308 -82 c-6 -16 -68 -27 -91 -16 -30 15 -9 28 44 28 36 0 49
-4 47 -12z m-88 -46 c0 -18 -79 -52 -121 -52 -42 1 -43 1 -24 16 45 36 145 60
145 36z m36 -108 c-21 -19 -32 -22 -40 -14 -14 14 18 40 48 40 19 -1 18 -3 -8
-26z m-86 -29 c0 -16 -56 -49 -69 -41 -5 3 -16 -3 -26 -14 -19 -21 -45 -27
-45 -10 0 18 52 60 74 60 12 0 28 5 36 10 21 14 30 12 30 -5z m-180 -95 c0 -5
-2 -10 -4 -10 -3 0 -8 5 -11 10 -3 6 -1 10 4 10 6 0 11 -4 11 -10z m180 -24
c0 -18 -17 -29 -30 -21 -8 5 -7 11 1 21 15 18 29 18 29 0z m101 -29 c-1 -12
-15 -9 -19 4 -3 6 1 10 8 8 6 -3 11 -8 11 -12z m624 2 c39 -5 85 -10 103 -9
21 0 32 -4 30 -12 -4 -12 -124 -13 -205 -2 -51 7 -58 -10 -10 -24 17 -6 151
-13 297 -18 146 -4 279 -8 295 -9 50 -3 43 -18 -10 -23 -27 -2 -52 -6 -54 -8
-8 -8 144 -4 264 7 192 17 369 10 362 -14 -2 -8 -254 -21 -346 -18 -25 1 -54
-5 -67 -14 -27 -17 -54 -20 -54 -5 0 15 -28 12 -37 -4 -9 -17 -319 -41 -518
-41 -113 0 -120 1 -120 20 0 17 7 20 55 22 73 4 120 12 120 22 0 4 -35 6 -77
4 -43 -2 -129 -6 -191 -8 -63 -2 -117 -6 -120 -10 -4 -4 31 -5 76 -4 93 2 114
-7 81 -37 -29 -27 -195 -35 -205 -10 -3 9 -2 22 3 29 6 6 23 45 38 85 18 50
34 76 49 82 29 12 155 11 241 -1z m828 -10 c47 -13 47 -25 -1 -33 -44 -6 -565
1 -629 10 -65 8 -51 23 25 26 183 8 571 6 605 -3z m-1495 -21 c-3 -7 -18 -15
-34 -19 -17 -3 -48 -18 -69 -32 -36 -25 -65 -34 -65 -22 0 2 8 18 18 35 14 22
21 27 30 18 9 -9 16 -8 29 4 16 14 41 23 81 27 8 0 12 -5 10 -11z m1656 3 c6
-10 -26 -21 -61 -21 -32 0 -28 18 5 23 48 7 51 7 56 -2z m86 -1 c0 -5 -14 -10
-31 -10 -17 0 -28 4 -24 10 3 6 17 10 31 10 13 0 24 -4 24 -10z m68 -82 c-3
-7 -11 -13 -18 -13 -7 0 -15 6 -17 13 -3 7 4 12 17 12 13 0 20 -5 18 -12z
m-2098 -8 c0 -5 -8 -10 -17 -10 -15 0 -16 2 -3 10 19 12 20 12 20 0z m68 -12
c-7 -20 -172 -108 -182 -97 -6 6 -6 13 2 21 8 8 8 15 1 24 -7 9 -4 17 13 28
27 19 55 21 60 4 3 -8 15 -6 39 9 38 24 73 29 67 11z m119 -55 c-9 -9 -20 -13
-24 -9 -4 4 -1 11 7 16 25 16 35 11 17 -7z m-689 -54 c-2 -6 -8 -10 -13 -10
-5 0 -11 4 -13 10 -2 6 4 11 13 11 9 0 15 -5 13 -11z m362 -4 c0 -8 -4 -15
-10 -15 -5 0 -10 7 -10 15 0 8 5 15 10 15 6 0 10 -7 10 -15z m-5386 -91 c20
-19 41 -32 46 -29 26 16 6 -24 -28 -55 -22 -19 -41 -41 -43 -49 -4 -10 -12
-12 -24 -7 -16 6 -13 12 25 51 30 30 39 45 28 45 -9 0 -34 -20 -56 -45 -22
-25 -43 -42 -46 -36 -8 12 14 62 25 56 4 -3 10 -1 14 4 3 5 -2 14 -11 19 -14
8 -15 14 -4 46 6 20 17 36 24 36 7 0 29 -16 50 -36z m124 -70 c28 -20 28 -53
-2 -81 -19 -19 -28 -21 -54 -14 -17 5 -40 7 -50 4 -39 -10 -32 18 15 62 54 50
59 51 91 29z m6422 -44 c157 -6 301 -14 322 -19 20 -4 42 -4 50 0 16 9 68 0
68 -12 0 -5 -71 -9 -157 -10 -87 0 -249 -3 -361 -5 -135 -3 -210 0 -224 7 -14
8 -23 8 -31 0 -15 -15 -233 -15 -243 0 -3 6 0 22 7 36 l14 26 135 -6 c74 -4
263 -11 420 -17z m-4515 -14 c33 -8 103 -19 157 -25 153 -17 148 -10 105 -163
-16 -60 -26 -70 -71 -70 -20 0 -39 -4 -42 -9 -3 -5 13 -9 35 -9 l41 0 0 -64
c0 -41 -5 -68 -12 -73 -17 -10 -133 -4 -178 9 -20 5 -81 17 -135 26 -100 17
-100 17 -103 48 -2 20 4 36 18 49 11 10 20 30 20 45 0 32 21 95 55 165 13 28
26 58 29 68 6 20 5 20 81 3z m-1829 -23 c-3 -8 -6 -17 -6 -19 0 -2 -13 -4 -30
-4 -33 0 -39 16 -13 35 21 16 56 7 49 -12z m-173 -86 c-18 -30 -63 -51 -63
-29 0 23 13 42 29 42 9 0 23 10 30 23 22 35 26 2 4 -36z m-65 27 c-4 -24 -53
-58 -72 -51 -14 6 -14 9 2 37 13 22 24 30 45 30 21 0 28 -4 25 -16z m161 -3
c21 -13 -15 -61 -45 -61 -35 0 -43 29 -15 52 26 20 39 22 60 9z m111 -3 c0 -6
-10 -22 -22 -35 -31 -33 -13 -42 20 -10 34 33 44 34 40 5 -2 -13 -15 -29 -30
-36 -29 -13 -40 -39 -13 -29 8 4 17 2 20 -3 8 -13 -21 -80 -35 -80 -6 0 -16
-11 -22 -25 -13 -29 -47 -43 -59 -24 -6 10 -1 18 16 27 14 7 27 23 31 37 3 13
12 26 20 29 19 7 18 26 -1 26 -8 0 -24 -15 -36 -32 -12 -18 -41 -48 -65 -65
l-43 -33 -41 19 -41 18 36 43 c49 59 35 64 -23 7 -47 -46 -74 -58 -87 -36 -4
5 1 19 10 29 14 16 14 19 2 27 -8 4 -17 18 -21 30 -6 19 -2 23 30 29 25 5 39
3 44 -7 7 -10 11 -10 24 0 8 7 20 9 27 5 6 -4 39 -6 72 -5 l60 2 -17 -25 c-19
-30 -20 -36 -5 -36 11 0 39 60 39 86 0 10 -5 14 -15 10 -10 -4 -15 1 -15 15 0
13 11 25 33 34 40 18 67 19 67 3z m2195 -32 c-11 -16 -13 -26 -6 -26 7 0 21
16 33 35 22 38 43 42 62 12 9 -14 8 -21 -5 -30 -8 -7 -26 -31 -39 -54 -13 -24
-27 -43 -31 -43 -4 0 -11 -9 -14 -20 -4 -14 -15 -20 -35 -20 -30 0 -53 21 -32
28 7 2 19 17 27 33 21 39 -1 38 -23 -1 -18 -32 -42 -40 -42 -13 0 17 35 68 78
116 32 33 52 21 27 -17z m1150 4 c16 -31 37 -148 29 -161 -7 -13 -181 -11
-204 1 -18 10 -17 13 19 49 20 20 48 59 60 84 35 72 68 81 96 27z m199 -37 c9
-26 28 -60 43 -75 15 -15 24 -31 20 -34 -9 -9 -95 -22 -102 -16 -16 16 1 172
19 172 2 0 11 -21 20 -47z m-4074 21 c0 -8 -4 -12 -10 -9 -5 3 -10 10 -10 16
0 5 5 9 10 9 6 0 10 -7 10 -16z m2849 -36 c-29 -58 -68 -108 -84 -108 -19 0
-26 27 -11 42 7 8 25 33 40 56 23 36 63 67 74 57 2 -2 -7 -23 -19 -47z m-2208
27 c-1 -15 -24 -12 -29 3 -3 9 2 13 12 10 10 -1 17 -7 17 -13z m3079 -11 c13
-34 -3 -64 -35 -64 -20 0 -25 6 -31 34 -7 43 0 56 32 56 17 0 27 -8 34 -26z
m478 -11 c-6 -56 -78 -62 -78 -8 0 26 11 33 53 34 25 1 28 -2 25 -26z m-3093
-28 c33 -8 101 -22 152 -30 97 -15 393 -39 400 -32 2 3 21 1 41 -4 38 -9 212
-23 267 -22 17 1 54 -1 83 -4 47 -4 52 -7 52 -28 0 -13 -7 -31 -17 -40 -16
-16 -60 -17 -213 -5 -191 16 -337 22 -575 24 l-290 2 -45 30 c-65 41 -140 106
-134 115 8 14 217 9 279 -6z m-330 -55 c44 -33 81 -64 83 -68 4 -14 -300 -25
-308 -12 -10 15 3 82 20 106 19 26 35 32 85 33 34 1 52 -8 120 -59z m-605 0
c0 -22 -5 -30 -18 -30 -10 0 -23 -5 -30 -12 -9 -9 -12 -7 -12 10 0 13 7 25 16
29 8 3 13 12 10 19 -3 9 2 14 14 14 16 0 20 -7 20 -30z m3825 10 c8 -25 -1
-40 -25 -40 -19 0 -36 32 -25 50 11 17 43 11 50 -10z m2460 0 c16 -6 75 -18
130 -26 55 -8 104 -19 108 -23 4 -4 5 -15 1 -24 -5 -13 -19 -17 -63 -17 -57 1
-151 19 -187 37 -10 5 -53 16 -94 23 -75 12 -100 23 -100 43 0 13 164 3 205
-13z m-200 -54 c135 -28 176 -39 172 -51 -2 -5 -24 -10 -48 -11 -24 0 -119 -4
-211 -9 -162 -8 -168 -7 -168 11 0 11 14 34 30 53 28 31 34 33 83 29 28 -2 93
-12 142 -22z m1294 15 c9 -6 10 -11 2 -15 -13 -8 -31 1 -31 15 0 11 11 11 29
0z m-697 -16 c1 -11 -56 -23 -109 -24 -26 -1 -33 3 -33 19 0 18 6 19 70 17 39
-1 71 -6 72 -12z m633 5 c4 -6 -8 -10 -29 -10 -19 0 -38 5 -41 10 -4 6 8 10
29 10 19 0 38 -4 41 -10z m-4820 -11 c4 -5 -5 -28 -20 -50 -22 -31 -31 -37
-41 -28 -11 9 -10 16 6 36 11 14 20 32 20 39 0 16 26 19 35 3z m91 -14 c-21
-52 -21 -51 -3 -36 9 7 17 19 17 26 0 16 39 27 59 16 8 -5 25 -4 38 2 17 7 27
7 34 0 14 -14 -47 -110 -74 -119 -22 -7 -48 13 -31 24 6 4 14 19 18 35 5 20 3
27 -9 27 -8 0 -15 -8 -15 -18 0 -25 -28 -62 -47 -62 -11 0 -14 7 -11 25 6 27
-6 35 -15 11 -3 -8 -20 -22 -38 -31 -26 -14 -33 -14 -40 -4 -5 9 -2 22 7 34 8
11 24 35 35 53 16 24 28 32 51 32 23 0 29 -4 24 -15z m-2601 -25 c9 0 15 -9
15 -25 0 -24 1 -24 28 -8 17 9 36 13 47 10 15 -6 10 -16 -36 -65 -84 -90 -129
-113 -144 -74 -6 16 -7 16 -16 0 -12 -22 -77 -44 -91 -30 -7 7 -4 19 11 38 11
15 21 34 21 42 0 13 2 13 13 -2 13 -17 14 -17 30 8 24 37 21 49 -8 30 -14 -9
-25 -13 -25 -10 0 11 32 59 58 88 23 26 26 26 53 13 15 -8 35 -15 44 -15z
m6818 -10 c6 -23 27 -27 27 -6 0 21 23 26 114 26 l83 0 63 -60 c57 -54 64 -66
36 -61 -6 1 -51 9 -100 17 -141 22 -259 46 -278 56 -24 12 -22 27 5 38 34 14
44 12 50 -10z m-97 -5 c18 -14 17 -14 -12 -15 -16 0 -39 7 -50 15 -18 14 -17
14 12 15 16 0 39 -7 50 -15z m-6492 -18 c16 -12 15 -15 -16 -48 -37 -39 -84
-64 -93 -48 -6 8 72 107 86 109 3 0 13 -6 23 -13z m4796 -3 c85 -3 187 -9 225
-14 39 -5 144 -12 233 -16 98 -4 169 -12 179 -19 14 -10 8 -19 -43 -68 -33
-31 -62 -57 -66 -57 -4 0 -37 -20 -74 -45 -36 -25 -71 -45 -78 -45 -7 0 -44
36 -82 80 -38 44 -79 83 -91 86 -23 6 -41 3 -213 -41 -84 -21 -155 -29 -350
-42 -429 -27 -514 -30 -526 -16 -9 10 -15 10 -30 -1 -16 -13 -21 -12 -36 1
-16 14 -18 14 -24 -1 -7 -17 -64 -23 -64 -6 0 6 9 10 20 10 11 0 20 4 20 9 0
16 -25 29 -72 36 -53 8 -65 25 -19 25 27 0 49 15 39 25 -2 3 -50 8 -106 11
-71 5 -102 4 -102 -4 0 -6 21 -12 47 -14 25 -2 48 -8 50 -15 3 -9 -42 -12
-189 -13 -106 0 -200 -1 -208 -1 -48 0 -105 9 -105 17 0 5 83 12 190 15 105 3
192 6 194 7 2 1 -4 11 -14 22 -13 14 -15 24 -8 31 5 5 65 14 132 19 67 5 128
13 134 17 15 10 601 22 762 16 66 -2 190 -6 275 -9z m-4860 -4 c0 -5 -5 -10
-11 -10 -6 0 -30 -21 -54 -46 -23 -26 -49 -44 -56 -42 -10 4 3 22 37 57 47 47
84 65 84 41z m1435 -18 c83 -12 164 -21 180 -20 76 5 105 -1 105 -22 0 -17 -7
-19 -52 -19 -29 1 -219 1 -421 0 -343 -1 -370 0 -395 18 -15 10 -40 26 -55 35
-15 9 -25 21 -22 26 3 4 119 7 258 6 189 -3 289 -9 402 -24z m4950 10 c17 -5
88 -20 159 -33 77 -14 131 -29 133 -37 8 -21 -8 -29 -18 -9 -8 14 -14 15 -31
6 -18 -10 -19 -13 -6 -20 23 -13 185 -39 232 -38 40 1 39 2 -19 15 -33 7 -77
16 -99 19 -23 4 -35 10 -29 16 10 10 271 -7 319 -22 17 -5 42 -9 56 -9 36 0
131 -21 143 -32 10 -10 -164 -5 -245 7 -40 5 -43 4 -27 -8 15 -13 16 -20 6
-63 -11 -49 -9 -60 29 -138 13 -26 -438 97 -613 168 -33 14 -114 43 -180 65
-201 67 -230 79 -233 97 -3 13 1 15 20 11 12 -3 61 1 108 8 89 15 243 13 295
-3z m-6247 -14 c-7 -19 -38 -22 -38 -4 0 10 9 16 21 16 12 0 19 -5 17 -12z
m3347 -27 c7 -12 -31 -25 -46 -15 -8 4 -7 9 2 15 18 11 36 11 44 0z m-1639
-11 c15 0 24 -6 24 -15 0 -12 -8 -14 -42 -9 -50 8 -52 9 -43 24 4 6 14 9 22 6
8 -3 26 -6 39 -6z m61 -22 c-3 -8 -6 -5 -6 6 -1 11 2 17 5 13 3 -3 4 -12 1
-19z m-1754 -2 c3 -8 -5 -24 -19 -37 -30 -28 -24 -36 11 -13 23 15 28 15 36 3
5 -8 9 -19 9 -25 0 -34 -24 -127 -46 -181 -24 -56 -31 -64 -70 -79 -48 -18
-91 -10 -138 27 -21 17 -28 18 -45 7 -25 -15 -45 0 -35 26 10 26 44 41 56 25
8 -11 9 -10 4 4 -6 18 9 24 19 7 3 -5 10 -10 16 -10 14 0 11 22 -7 34 -13 10
-7 21 45 78 34 36 61 71 61 77 0 6 4 11 9 11 5 0 23 14 41 30 36 34 45 36 53
16z m1832 4 c-3 -5 -17 -10 -31 -10 -14 0 -22 4 -19 10 3 6 17 10 31 10 14 0
22 -4 19 -10z m-1940 -30 c4 -6 -21 -39 -56 -75 -34 -35 -70 -78 -80 -95 -10
-16 -23 -30 -28 -30 -6 0 -32 -21 -60 -47 -77 -74 -151 -137 -174 -150 -12 -7
-38 -12 -58 -13 -25 0 -43 -8 -60 -26 -13 -14 -41 -35 -62 -46 l-39 -19 7 20
c9 31 -1 26 -41 -18 -36 -40 -122 -101 -142 -101 -6 0 -14 16 -18 37 -5 29 -3
39 11 49 25 19 32 8 11 -15 -33 -36 -6 -45 30 -10 37 36 42 49 19 49 -30 0
-13 25 80 118 53 52 94 97 91 100 -3 3 -12 -1 -21 -8 -31 -26 -16 34 20 79 19
24 35 48 35 52 0 14 26 10 39 -5 10 -12 5 -23 -25 -56 -55 -60 -32 -62 25 -2
47 50 50 51 81 40 31 -10 34 -9 67 26 29 31 40 36 63 31 22 -5 33 1 63 34 19
21 45 42 56 45 12 3 30 9 41 12 14 4 20 1 20 -10 0 -24 13 -20 45 14 30 31 49
37 60 20z m1199 1 c35 -14 3 -19 -133 -22 -98 -3 -135 -1 -138 8 -3 8 14 13
54 16 107 6 198 6 217 -2z m123 -7 c31 -8 19 -24 -18 -24 -28 0 -37 9 -22 23
8 8 12 8 40 1z m243 -4 c0 -9 -99 -25 -107 -17 -3 3 -3 9 0 14 7 11 107 13
107 3z m1470 0 c0 -5 -9 -10 -20 -10 -11 0 -20 5 -20 10 0 6 9 10 20 10 11 0
20 -4 20 -10z m-1195 -10 c3 -5 1 -10 -4 -10 -6 0 -11 5 -11 10 0 6 2 10 4 10
3 0 8 -4 11 -10z m725 -11 c0 -5 -4 -9 -10 -9 -5 0 -10 7 -10 16 0 8 5 12 10
9 6 -3 10 -10 10 -16z m-60 -4 c0 -8 -7 -15 -15 -15 -16 0 -20 12 -8 23 11 12
23 8 23 -8z m273 8 c-7 -2 -19 -2 -25 0 -7 3 -2 5 12 5 14 0 19 -2 13 -5z
m2197 -3 c10 -5 31 -31 48 -58 52 -85 167 -171 300 -224 42 -17 100 -42 127
-56 28 -14 118 -47 200 -74 83 -27 182 -65 221 -85 63 -31 74 -33 93 -22 17
11 25 11 48 -3 16 -8 44 -19 63 -23 19 -4 53 -15 76 -26 50 -22 389 -105 464
-113 90 -10 140 -19 140 -27 0 -4 -18 -18 -40 -30 -45 -25 -54 -42 -39 -70 5
-11 9 -26 7 -34 -4 -16 -80 8 -358 112 -272 101 -394 129 -439 101 -15 -9 -38
-3 -127 31 -60 24 -139 63 -175 87 -60 40 -89 53 -89 39 0 -3 34 -39 75 -81
42 -41 88 -96 104 -121 49 -79 165 -171 305 -243 86 -44 125 -70 123 -80 -7
-36 -119 8 -257 101 -70 47 -197 155 -330 280 -228 214 -345 288 -525 335
-115 29 -243 33 -309 10 -67 -24 -227 -64 -279 -70 -27 -3 -69 -15 -95 -26
-42 -19 -71 -21 -391 -25 -340 -3 -451 -11 -581 -40 -83 -18 -280 -40 -345
-37 -125 4 -298 21 -306 29 -22 22 50 44 191 59 254 28 325 35 455 44 83 6
182 15 220 20 39 6 183 12 320 15 233 4 442 18 454 30 17 17 -26 21 -109 10
-79 -10 -298 -17 -560 -19 -195 -1 -579 7 -600 12 -23 5 -21 7 15 14 229 49
540 78 820 78 81 0 124 4 120 10 -3 6 -19 10 -36 10 -28 0 -37 13 -21 36 20
30 291 64 515 64 108 0 306 22 330 37 12 7 112 30 140 32 10 1 27 -3 37 -9z
m-1557 -20 c7 0 6 -4 -3 -10 -19 -12 -120 -13 -120 -1 0 10 73 20 98 14 8 -2
19 -3 25 -3z m290 1 c33 -1 35 -16 5 -32 -16 -9 -49 -9 -140 1 -108 12 -139
21 -105 33 10 3 143 2 240 -2z m-2475 -22 c2 -14 -3 -16 -29 -10 -46 9 -52 33
-8 29 22 -2 35 -9 37 -19z m112 6 c0 -11 -11 -15 -40 -15 -38 0 -49 8 -33 23
3 4 21 7 40 7 23 0 33 -5 33 -15z m225 5 c4 -6 -7 -10 -24 -10 -17 0 -31 5
-31 10 0 6 11 10 24 10 14 0 28 -4 31 -10z m-1880 -20 c6 -10 -50 -43 -66 -38
-5 2 -2 13 6 26 16 23 49 30 60 12z m3000 1 c3 -5 1 -12 -5 -16 -5 -3 -10 1
-10 9 0 18 6 21 15 7z m-2932 -8 c-7 -2 -19 -2 -25 0 -7 3 -2 5 12 5 14 0 19
-2 13 -5z m2885 -10 c2 -9 -11 -13 -47 -13 -48 0 -68 9 -54 24 12 12 96 2 101
-11z m162 -14 c0 -5 -11 -9 -25 -9 -27 0 -32 9 -13 28 12 12 38 -1 38 -19z
m323 25 c33 -10 17 -21 -30 -22 -27 0 -50 -1 -53 -2 -15 -5 -170 -11 -170 -7
0 3 7 12 15 20 11 11 41 15 117 16 57 0 111 -2 121 -5z m-1968 -14 c3 -5 -1
-10 -9 -10 -9 0 -16 5 -16 10 0 6 4 10 9 10 6 0 13 -4 16 -10z m913 -6 c55
-17 -85 -34 -145 -18 -27 7 -30 21 -5 27 18 4 128 -2 150 -9z m117 -10 c6 0
20 -2 33 -2 12 -1 22 -7 22 -13 0 -7 -12 -9 -30 -7 -17 3 -33 1 -36 -4 -11
-17 -24 -7 -24 18 0 18 4 23 13 17 6 -4 17 -8 22 -9z m1283 -19 c11 -10 5 -14
-32 -19 -26 -4 -53 -3 -65 3 -11 6 -29 11 -41 11 -32 0 -19 -24 16 -28 36 -4
46 -13 35 -31 -7 -11 -37 -14 -133 -13 -67 1 -139 6 -158 12 -19 5 -71 10
-115 10 -77 0 -118 11 -102 26 4 4 89 8 190 9 131 1 181 5 180 13 -4 15 25 21
107 25 75 3 100 0 118 -18z m275 6 c8 -8 0 -11 -30 -11 -23 0 -45 -4 -48 -10
-4 -6 26 -7 87 -3 129 10 161 10 165 -3 9 -25 -345 -50 -370 -25 -8 8 -4 11
16 11 15 0 27 5 27 10 0 6 -20 10 -44 10 -46 0 -69 16 -45 31 19 12 229 3 242
-10z m-4343 -1 c0 -5 -4 -10 -10 -10 -5 0 -10 5 -10 10 0 6 5 10 10 10 6 0 10
-4 10 -10z m2178 -26 c32 -4 42 -10 42 -23 0 -29 -80 -42 -121 -21 -14 8 -25
7 -41 -5 -35 -24 -158 -20 -211 6 -53 27 -68 39 -62 50 6 8 314 3 393 -7z
m1022 6 c0 -5 -4 -10 -10 -10 -5 0 -10 5 -10 10 0 6 5 10 10 10 6 0 10 -4 10
-10z m-604 -31 c15 -12 14 -15 -6 -31 -24 -20 -90 -23 -237 -11 -77 5 -83 8
-83 28 0 12 3 25 8 29 13 14 299 1 318 -15z m164 9 c52 -1 54 -24 3 -37 -83
-20 -104 -21 -110 -5 -8 21 26 56 49 49 10 -4 36 -6 58 -7z m1324 -7 c7 -11
-17 -21 -50 -21 -23 0 -31 10 -17 23 10 10 61 8 67 -2z m-466 -36 c107 -12 96
-26 -32 -40 -32 -4 -76 -13 -98 -21 -22 -8 -74 -14 -114 -14 -62 0 -77 3 -95
21 -15 15 -24 18 -32 10 -12 -12 -67 -15 -67 -4 0 4 12 19 26 34 l26 27 156
-2 c87 -2 190 -6 230 -11z m-1426 -35 c5 0 8 -10 6 -22 -2 -16 -11 -24 -27
-26 -33 -5 -103 18 -98 32 4 12 73 26 95 20 8 -2 18 -4 24 -4z m287 -6 c17 -4
31 -10 31 -15 0 -4 -21 -22 -46 -39 -45 -32 -45 -32 -140 -25 -83 7 -94 10
-94 26 0 11 6 19 13 19 8 0 22 9 32 20 15 17 31 20 95 20 43 0 92 -3 109 -6z
m337 -25 c14 -5 23 -19 26 -37 4 -30 4 -30 -56 -35 -95 -9 -185 5 -208 33 -38
47 -4 61 127 53 50 -3 100 -9 111 -14z m106 -24 c0 -5 -5 -11 -11 -13 -6 -2
-11 4 -11 13 0 9 5 15 11 13 6 -2 11 -8 11 -13z m693 -45 c0 -15 -31 -24 -150
-42 -83 -12 -201 -16 -210 -6 -4 4 -5 18 -1 32 8 31 27 33 221 32 115 -1 140
-4 140 -16z m170 10 c4 -6 -12 -10 -40 -10 -28 0 -44 4 -40 10 3 6 21 10 40
10 19 0 37 -4 40 -10z m-606 -24 c-8 -16 -17 -22 -30 -19 -43 12 -34 43 11 43
27 0 29 -2 19 -24z m-249 10 c0 -3 -4 -8 -10 -11 -5 -3 -10 -1 -10 4 0 6 5 11
10 11 6 0 10 -2 10 -4z m-598 -23 c9 -10 9 -13 -3 -13 -8 0 -30 -11 -49 -25
-19 -14 -44 -25 -57 -25 -20 0 -23 4 -17 28 4 15 10 32 15 37 11 15 95 13 111
-2z m353 2 c146 -6 167 -15 147 -60 -11 -24 -14 -25 -119 -26 -282 -4 -378 2
-371 21 2 5 25 25 52 44 46 32 55 35 105 31 31 -3 114 -7 186 -10z m-525 -16
c14 -25 6 -49 -14 -49 -16 0 -46 37 -46 57 0 21 48 15 60 -8z m800 -13 c0 -18
-58 -32 -73 -17 -6 6 -9 11 -6 12 34 5 54 10 58 14 9 10 21 5 21 -9z m-872
-36 c4 -10 -4 -12 -33 -7 -44 7 -72 26 -54 38 16 9 82 -14 87 -31z m937 30 c3
-5 3 -15 0 -20 -7 -12 -45 5 -45 20 0 13 37 13 45 0z m1635 -39 c22 -4 36 -13
38 -25 4 -17 0 -18 -49 -10 -91 15 -195 11 -216 -8 -41 -38 -523 -48 -523 -12
0 8 10 14 23 14 12 0 40 7 62 15 22 8 72 15 110 16 39 0 95 4 125 8 74 10 386
12 430 2z m170 -21 c0 -5 -2 -10 -4 -10 -3 0 -8 5 -11 10 -3 6 -1 10 4 10 6 0
11 -4 11 -10z m-2403 -12 c45 -2 85 -7 90 -11 4 -5 -11 -26 -34 -48 l-42 -39
-135 0 c-84 0 -137 4 -141 11 -10 14 24 49 41 42 10 -4 14 4 14 27 l0 32 63
-6 c34 -3 99 -7 144 -8z m363 -18 c0 -9 -97 -70 -112 -70 -4 0 -14 8 -24 18
-10 9 -21 17 -26 17 -9 0 -28 25 -28 38 0 4 43 7 95 7 55 0 95 -4 95 -10z
m2090 -10 c0 -5 -11 -10 -25 -10 -14 0 -25 5 -25 10 0 6 11 10 25 10 14 0 25
-4 25 -10z m-195 -20 c-3 -5 -25 -10 -48 -10 -31 0 -38 3 -27 10 20 13 83 13
75 0z m-1810 -29 c7 -12 -12 -24 -25 -16 -11 7 -4 25 10 25 5 0 11 -4 15 -9z
m180 -1 c4 -6 -5 -10 -20 -10 -15 0 -24 4 -20 10 3 6 12 10 20 10 8 0 17 -4
20 -10z m54 1 c8 -5 9 -11 3 -15 -13 -8 -42 3 -42 15 0 11 21 11 39 0z m-3364
-31 c3 -5 -13 -22 -36 -37 -23 -15 -48 -32 -55 -38 -7 -5 -17 -6 -21 -1 -10 9
71 86 91 86 8 0 18 -4 21 -10z m2650 -24 c16 -12 16 -15 1 -44 -11 -21 -24
-32 -39 -33 -12 0 -68 -2 -124 -4 -58 -3 -105 0 -108 5 -6 9 21 71 35 80 18
12 219 8 235 -4z m3941 -32 c22 -9 46 -22 54 -29 8 -7 51 -26 95 -43 196 -75
515 -208 515 -214 0 -5 -12 -8 -26 -8 -15 0 -42 -9 -60 -21 -26 -16 -34 -27
-34 -50 0 -27 -2 -29 -27 -23 -66 17 -337 159 -418 220 -75 55 -175 157 -175
178 0 11 36 6 76 -10z m327 -58 c31 -8 69 -21 85 -29 15 -8 54 -22 87 -32 33
-9 78 -24 100 -34 41 -17 109 -41 393 -138 89 -31 162 -59 162 -64 0 -18 -25
-13 -310 62 -137 36 -284 80 -294 88 -6 5 -65 30 -131 56 -158 61 -256 106
-250 115 5 8 77 -2 158 -24z m-4320 -25 c14 -14 -21 -71 -49 -81 -14 -6 -70
-10 -125 -10 -98 0 -99 0 -99 24 0 48 28 65 120 75 88 9 138 7 153 -8z m-64
-110 c11 -7 8 -13 -13 -26 -20 -13 -52 -18 -131 -20 -100 -3 -130 4 -108 26 5
5 55 10 111 13 57 2 106 6 109 10 8 8 15 7 32 -3z m-49 -86 c0 -28 -26 -79
-58 -112 l-30 -33 -101 0 c-58 0 -101 4 -101 10 0 18 42 115 57 133 22 24 233
26 233 2z m4560 -142 c0 -28 -10 -29 -44 -2 -39 31 -35 50 9 36 27 -8 35 -16
35 -34z m-4293 1 c-3 -3 -12 -4 -19 -1 -8 3 -5 6 6 6 11 1 17 -2 13 -5z m4412
-30 c58 -25 71 -37 54 -47 -14 -9 -133 34 -133 47 0 11 9 26 16 26 1 0 30 -12
63 -26z m-4822 -10 c12 -31 -147 -204 -187 -204 -60 0 -72 33 -44 117 25 75
56 102 123 105 71 4 101 -1 108 -18z m4959 -61 c-6 -6 -56 8 -56 16 0 17 14
19 36 4 14 -9 23 -18 20 -20z m199 -73 c3 -5 2 -10 -4 -10 -5 0 -13 5 -16 10
-3 6 -2 10 4 10 5 0 13 -4 16 -10z"/>
<path d="M7332 6801 c2 -7 7 -12 11 -12 12 1 9 15 -3 20 -7 2 -11 -2 -8 -8z"/>
<path d="M8615 4890 c-24 -10 -55 -45 -55 -63 0 -7 11 -29 25 -50 22 -31 31
-37 61 -37 59 0 74 14 74 70 0 38 -4 52 -19 60 -40 21 -67 27 -86 20z m63 -52
c7 -7 12 -25 12 -40 0 -36 -28 -38 -67 -4 -24 20 -25 26 -14 40 16 19 52 21
69 4z"/>
<path d="M5543 4534 c-18 -9 -35 -24 -38 -33 -7 -25 11 -81 37 -108 43 -46
126 -18 143 50 11 43 -49 108 -98 107 -7 0 -26 -8 -44 -16z m85 -50 c35 -24
26 -58 -16 -62 -49 -5 -93 44 -65 71 12 13 58 7 81 -9z"/>
<path d="M5707 4262 c-25 -27 -22 -84 6 -110 46 -43 118 -36 137 13 11 29 2
54 -33 93 -26 28 -86 30 -110 4z m107 -44 c18 -29 18 -32 2 -44 -20 -14 -74
-3 -88 18 -12 19 -10 46 5 51 35 15 63 6 81 -25z"/>
<path d="M5870 4041 c-14 -28 -13 -33 20 -83 24 -35 38 -47 65 -52 62 -12 90
19 73 82 -16 61 -132 100 -158 53z m95 -24 c21 -16 14 -67 -10 -67 -22 0 -55
37 -55 60 0 24 36 27 65 7z"/>
<path d="M3050 4660 c0 -5 7 -10 16 -10 8 0 12 5 9 10 -3 6 -10 10 -16 10 -5
0 -9 -4 -9 -10z"/>
<path d="M3090 4445 c-15 -18 -16 -16 33 -49 71 -49 93 -23 27 32 -45 37 -44
37 -60 17z"/>
<path d="M3274 4229 c8 -40 -2 -79 -18 -73 -8 3 -21 -16 -34 -54 -25 -68 -26
-72 -11 -72 5 0 16 15 24 34 11 26 22 35 42 38 26 3 28 6 31 57 4 69 -4 101
-24 101 -13 0 -15 -7 -10 -31z"/>
<path d="M10200 3427 c-25 -11 -25 -11 9 -15 22 -2 39 2 50 12 14 15 13 16 -9
15 -14 0 -36 -5 -50 -12z"/>
<path d="M10190 3163 c-14 -9 -41 -31 -60 -49 -19 -17 -64 -48 -100 -69 -36
-20 -86 -51 -112 -68 -26 -18 -68 -45 -94 -60 -25 -15 -44 -30 -41 -33 3 -3
69 33 148 80 79 47 149 86 155 86 7 0 14 4 16 8 2 5 38 32 81 61 42 28 77 54
77 56 0 11 -47 3 -70 -12z"/>
<path d="M10300 3079 c-202 -136 -235 -159 -287 -196 -115 -84 -167 -127 -156
-130 6 -2 65 36 130 85 66 49 135 98 154 107 19 10 36 21 39 25 3 4 19 14 35
23 17 8 41 27 54 41 14 14 28 26 33 26 4 0 26 13 49 29 22 17 45 31 51 33 6 2
9 9 7 16 -3 8 -44 -15 -109 -59z"/>
<path d="M8238 2968 c-21 -6 -38 -14 -38 -19 0 -12 5 -11 51 3 22 6 39 15 39
20 0 9 -3 9 -52 -4z"/>
<path d="M9793 2717 c-15 -12 -46 -34 -68 -48 -22 -14 -69 -49 -104 -78 -61
-49 -91 -62 -91 -41 0 5 20 23 45 40 44 30 75 73 75 105 0 27 -19 16 -39 -24
-11 -21 -44 -58 -73 -82 -29 -24 -82 -69 -118 -99 -36 -31 -89 -72 -117 -91
-49 -32 -64 -49 -45 -49 13 0 123 61 158 87 17 13 36 23 42 23 7 0 12 4 12 10
0 5 18 19 40 30 22 11 57 33 78 48 22 15 61 43 88 61 27 19 70 51 95 70 26 20
55 41 65 48 17 10 17 12 2 12 -9 1 -29 -9 -45 -22z"/>
<path d="M8728 2627 c-37 -10 -52 -27 -24 -27 17 0 86 28 86 35 0 7 -18 4 -62
-8z"/>
<path d="M9258 2508 c-48 -21 -67 -45 -25 -32 30 9 97 43 97 49 0 10 -26 4
-72 -17z"/>
<path d="M8741 2455 c-52 -25 -101 -45 -110 -45 -9 0 -25 -6 -36 -13 -11 -7
-62 -26 -112 -42 -51 -17 -93 -33 -93 -38 0 -12 70 3 112 24 21 11 44 19 53
19 8 0 44 13 78 28 34 16 76 32 92 36 17 4 37 13 45 20 8 8 28 18 44 23 27 8
49 34 29 33 -4 -1 -50 -21 -102 -45z"/>
<path d="M9205 2330 c-3 -5 -2 -10 4 -10 5 0 13 5 16 10 3 6 2 10 -4 10 -5 0
-13 -4 -16 -10z"/>
<path d="M8648 2203 c7 -3 16 -2 19 1 4 3 -2 6 -13 5 -11 0 -14 -3 -6 -6z"/>
<path d="M8534 1975 c-17 -13 -17 -14 -2 -15 9 0 20 5 23 11 11 17 0 20 -21 4z"/>
<path d="M8125 1600 c-4 -6 10 -10 34 -10 23 0 41 5 41 10 0 6 -15 10 -34 10
-19 0 -38 -4 -41 -10z"/>
<path d="M8220 1606 c0 -8 71 -12 76 -4 3 4 -13 8 -35 8 -23 0 -41 -2 -41 -4z"/>
<path d="M8340 1599 c0 -5 5 -7 10 -4 6 3 10 8 10 11 0 2 -4 4 -10 4 -5 0 -10
-5 -10 -11z"/>
<path d="M8398 1603 c7 -3 16 -2 19 1 4 3 -2 6 -13 5 -11 0 -14 -3 -6 -6z"/>
<path d="M7187 3142 c-10 -10 -17 -22 -17 -25 0 -12 29 -7 37 6 4 8 17 19 28
25 19 11 19 11 -6 12 -14 0 -33 -8 -42 -18z"/>
<path d="M7240 3080 c0 -5 7 -10 15 -10 8 0 15 5 15 10 0 6 -7 10 -15 10 -8 0
-15 -4 -15 -10z"/>
<path d="M7273 2742 c-14 -9 -36 -62 -25 -62 9 0 46 60 40 65 -2 2 -9 1 -15
-3z"/>
<path d="M7128 1563 c7 -3 16 -2 19 1 4 3 -2 6 -13 5 -11 0 -14 -3 -6 -6z"/>
<path d="M10975 2220 l-40 -7 50 -1 c28 -1 57 3 65 8 18 11 -11 11 -75 0z"/>
<path d="M10815 2210 c-4 -6 14 -10 47 -9 39 0 48 3 33 9 -28 12 -73 12 -80 0z"/>
<path d="M9630 2149 c0 -5 5 -7 10 -4 6 3 10 8 10 11 0 2 -4 4 -10 4 -5 0 -10
-5 -10 -11z"/>
<path d="M4135 1980 c-3 -5 1 -10 9 -10 9 0 16 5 16 10 0 6 -4 10 -9 10 -6 0
-13 -4 -16 -10z"/>
<path d="M6090 1600 c0 -6 43 -10 110 -10 67 0 110 4 110 10 0 6 -43 10 -110
10 -67 0 -110 -4 -110 -10z"/>
<path d="M4245 1595 c-33 -37 -22 -47 12 -12 15 14 24 29 21 33 -4 3 -18 -6
-33 -21z"/>
<path d="M3979 1414 c-12 -14 -11 -16 5 -13 11 2 21 10 24 17 5 17 -13 15 -29
-4z"/>
<path d="M10610 1430 c0 -5 9 -10 20 -10 11 0 20 5 20 10 0 6 -9 10 -20 10
-11 0 -20 -4 -20 -10z"/>
<path d="M10680 1421 c0 -9 68 -31 94 -31 19 0 22 19 4 24 -29 9 -98 14 -98 7z"/>
<path d="M4280 1298 l-23 -33 31 29 c34 31 37 36 24 36 -5 0 -19 -15 -32 -32z"/>
<path d="M4207 1243 c-4 -3 -7 -13 -7 -21 0 -12 3 -12 15 -2 8 7 15 16 15 21
0 11 -14 12 -23 2z"/>
<path d="M4085 1275 c-15 -15 -24 -29 -21 -33 4 -3 19 6 33 21 35 34 25 45
-12 12z"/>
<path d="M3940 1221 c-13 -25 -13 -34 0 -26 16 10 32 45 21 45 -6 0 -15 -9
-21 -19z"/>
<path d="M3737 1095 c-37 -36 -72 -65 -77 -65 -6 0 -10 -9 -10 -21 l0 -20 28
20 c48 34 148 151 129 151 -2 0 -33 -29 -70 -65z"/>
<path d="M3850 1119 c0 -5 5 -7 10 -4 6 3 10 8 10 11 0 2 -4 4 -10 4 -5 0 -10
-5 -10 -11z"/>
<path d="M3896 1094 c-4 -10 -1 -14 6 -12 15 5 23 28 10 28 -5 0 -13 -7 -16
-16z"/>
<path d="M3763 1045 c-50 -47 -53 -62 -8 -45 18 7 31 7 39 1 16 -14 71 21 79
49 4 14 2 20 -6 17 -50 -21 -50 -21 -42 1 10 34 -11 26 -62 -23z"/>
<path d="M3693 973 c-18 -7 -16 -23 2 -23 8 0 15 7 15 15 0 8 -1 15 -2 14 -2
0 -9 -3 -15 -6z"/>
<path d="M3575 930 c-3 -5 -2 -10 4 -10 5 0 13 5 16 10 3 6 2 10 -4 10 -5 0
-13 -4 -16 -10z"/>
<path d="M6415 7400 c-33 -10 -105 -33 -160 -50 -150 -47 -294 -82 -324 -78
-15 1 -40 -7 -57 -19 -17 -12 -53 -27 -80 -33 -26 -6 -53 -14 -59 -19 -16 -12
-172 -71 -188 -71 -19 0 -53 -27 -45 -36 4 -4 84 16 178 44 93 29 175 52 182
52 7 0 74 21 148 45 74 25 149 50 165 55 17 4 68 22 115 39 47 17 97 30 111
31 15 0 32 6 38 14 6 7 25 16 41 20 32 6 42 26 13 25 -10 0 -45 -9 -78 -19z"/>
<path d="M4525 6924 c-58 -40 -65 -41 -65 -14 0 26 -5 25 -44 -5 -41 -31 -54
-31 -58 -2 -3 21 -5 20 -33 -12 -117 -134 -133 -145 -165 -116 -18 16 -19 15
-33 -12 -13 -25 -77 -207 -77 -219 0 -2 5 -4 10 -4 6 0 20 20 32 45 12 25 25
45 29 45 3 0 24 12 45 26 21 15 55 31 74 36 19 6 57 28 84 51 48 40 53 42 140
48 50 4 101 10 113 14 17 5 28 0 50 -23 22 -23 33 -28 48 -22 11 5 29 9 40 9
19 0 19 -1 -2 -16 -29 -19 -30 -43 -3 -36 11 3 20 0 20 -6 0 -6 -4 -11 -10
-11 -5 0 -10 -5 -10 -11 0 -7 11 -8 29 -4 23 5 31 2 35 -12 7 -23 96 -73 130
-73 42 0 66 32 66 90 0 47 -2 50 -43 79 -39 27 -43 33 -39 64 5 43 -6 50 -75
52 -43 2 -58 7 -77 28 -22 24 -29 26 -75 20 -41 -5 -52 -3 -57 11 -9 23 -22
20 -79 -20z"/>
<path d="M6073 6673 c-5 -1 -56 -6 -114 -12 -98 -8 -149 -24 -149 -44 0 -5 14
-6 31 -2 17 4 48 8 68 10 252 21 331 32 331 45 0 8 -141 10 -167 3z"/>
<path d="M4192 6459 c-18 -6 -57 -33 -87 -62 -45 -45 -56 -63 -75 -127 -16
-53 -20 -86 -15 -115 3 -22 8 -53 10 -69 7 -58 23 -59 104 -11 142 85 245 105
301 58 22 -18 50 -29 89 -34 66 -9 96 5 103 48 3 15 9 36 13 46 6 13 0 20 -27
32 -19 8 -43 27 -53 42 -31 47 -129 155 -150 165 -11 5 -31 15 -45 23 -28 16
-117 18 -168 4z m95 -80 c22 1 76 -52 95 -95 16 -35 -8 -65 -57 -71 -71 -8
-99 -7 -133 8 -40 17 -63 5 -74 -39 -11 -40 -27 -50 -45 -27 -31 44 -6 134 53
194 43 43 45 44 92 36 26 -4 57 -7 69 -6z"/>
<path d="M7309 4825 c-15 -8 -29 -21 -33 -30 -10 -28 6 -73 35 -94 27 -20 31
-20 58 -7 33 17 41 34 41 80 0 58 -46 81 -101 51z m71 -29 c19 -23 8 -61 -18
-64 -30 -4 -52 14 -52 43 0 34 47 48 70 21z"/>
<path d="M6865 4808 c-32 -17 -45 -39 -45 -79 0 -75 99 -118 150 -64 19 20 22
31 17 66 -10 72 -66 108 -122 77z m89 -54 c30 -30 11 -84 -29 -84 -47 0 -82
59 -53 88 17 17 64 15 82 -4z"/>
<path d="M745 2849 c-22 -4 -92 -8 -155 -9 -105 -1 -305 -22 -317 -34 -14 -14
10 -25 34 -15 21 8 121 18 181 19 21 0 35 1 122 5 149 8 208 4 277 -16 118
-35 135 -38 182 -32 29 3 63 -1 91 -11 55 -19 86 -20 93 -3 3 9 40 17 107 25
92 10 133 22 119 36 -3 3 -70 0 -149 -6 -238 -19 -354 -12 -427 25 -36 18
-107 25 -158 16z"/>
<path d="M138 2803 c-20 -3 -28 -10 -28 -24 0 -18 2 -19 30 -4 16 8 38 15 50
15 12 0 18 5 15 10 -6 10 -17 11 -67 3z"/>
<path d="M1325 2740 c-14 -6 -2 -9 40 -9 42 0 54 3 40 9 -11 5 -29 9 -40 9
-11 0 -29 -4 -40 -9z"/>
<path d="M1681 2741 c-18 -12 -8 -36 24 -57 20 -13 54 -17 183 -18 86 0 159
-4 162 -8 3 -4 12 -3 20 2 22 14 1 29 -40 31 -19 0 -71 0 -114 -1 -82 -1 -92
2 -98 35 -3 17 -12 20 -63 23 -33 1 -66 -2 -74 -7z"/>
<path d="M1446 2731 c-5 -8 10 -11 49 -11 40 0 57 -4 61 -15 8 -20 43 -19 51
0 3 9 4 18 2 20 -3 2 -39 7 -80 11 -53 4 -78 3 -83 -5z"/>
<path d="M935 2654 c-105 -35 -446 -67 -678 -65 -126 1 -158 -1 -155 -11 3 -7
22 -14 44 -14 168 -6 320 -3 379 5 39 6 106 13 150 16 83 5 233 20 296 31 27
4 49 0 88 -20 87 -45 248 -66 489 -65 114 0 234 -4 267 -10 104 -19 315 -11
315 11 0 6 -53 8 -127 7 -71 -2 -162 3 -203 9 -45 7 -168 11 -305 10 -210 -2
-237 0 -309 20 -43 12 -107 38 -142 57 -34 19 -64 34 -66 34 -1 -1 -21 -7 -43
-15z"/>
<path d="M0 2579 c0 -19 4 -21 32 -15 37 7 42 11 33 25 -3 6 -19 11 -36 11
-23 0 -29 -4 -29 -21z"/>
<path d="M2205 2563 c-46 -11 -32 -21 42 -27 69 -7 117 -15 176 -32 12 -4 17
0 17 15 0 17 -6 21 -34 21 -18 0 -50 7 -69 15 -35 14 -91 18 -132 8z"/>
<path d="M2465 2510 c3 -5 15 -10 26 -10 10 0 19 -6 19 -12 0 -10 -60 -13
-268 -12 -147 0 -276 -3 -287 -7 -11 -4 -40 -12 -64 -19 -30 -8 -40 -15 -33
-22 7 -7 22 -6 49 3 44 16 587 20 877 6 92 -4 177 -5 187 -2 34 11 20 25 -19
19 -25 -4 -58 1 -100 15 -34 12 -102 24 -150 27 -48 3 -105 10 -127 14 -55 13
-118 13 -110 0z"/>
<path d="M88 2453 c-69 -3 -88 -7 -88 -19 0 -11 7 -13 28 -7 15 4 149 7 298 7
249 1 274 -1 292 -17 11 -10 26 -17 34 -16 7 2 29 -2 48 -8 68 -23 197 -36
370 -38 208 -3 416 -19 434 -34 6 -5 32 -13 56 -17 25 -4 54 -13 65 -19 43
-27 193 -84 249 -95 32 -7 86 -27 121 -44 34 -18 104 -43 156 -56 52 -13 101
-27 110 -31 38 -20 178 -40 277 -41 182 -1 505 9 545 17 20 4 37 11 37 17 0 5
-111 6 -292 2 -161 -4 -300 -7 -308 -6 -33 1 -101 15 -210 44 -101 27 -164 51
-365 143 -27 12 -81 30 -119 39 -38 9 -96 29 -130 43 -87 37 -149 52 -241 59
-101 7 -177 23 -172 37 2 6 48 12 113 14 60 2 118 4 129 5 11 1 72 -2 136 -6
78 -6 119 -5 123 2 3 6 3 13 -1 15 -14 9 -240 10 -531 5 -273 -5 -285 -7 -314
-28 -27 -20 -37 -21 -111 -15 -44 4 -106 17 -136 28 -50 18 -82 21 -286 22
-126 1 -269 0 -317 -2z m986 -29 c25 -9 19 -24 -9 -24 -24 0 -32 10 -18 23 8
8 8 8 27 1z m-54 -12 c0 -14 -11 -21 -26 -15 -21 8 -17 23 6 23 11 0 20 -4 20
-8z m230 -2 c0 -12 7 -10 -67 -16 -53 -5 -63 -3 -63 10 0 13 13 16 65 16 37 0
65 -4 65 -10z"/>
<path d="M3010 2441 c17 -10 72 -15 140 -12 82 3 21 21 -70 21 -53 -1 -79 -4
-70 -9z"/>
<path d="M3300 2413 c0 -5 42 -13 93 -16 50 -4 110 -9 132 -12 l40 -5 -34 15
c-39 19 -231 33 -231 18z"/>
<path d="M2365 2390 c-4 -6 11 -10 36 -10 47 0 46 11 0 16 -17 2 -33 -1 -36
-6z"/>
<path d="M2605 2390 c-19 -5 20 -9 108 -10 75 -2 142 -3 149 -4 6 -1 13 5 16
12 3 9 -25 12 -120 11 -67 -1 -136 -5 -153 -9z"/>
<path d="M3020 2390 c0 -5 5 -10 10 -10 6 0 10 5 10 10 0 6 -4 10 -10 10 -5 0
-10 -4 -10 -10z"/>
<path d="M2493 2383 c9 -2 23 -2 30 0 6 3 -1 5 -18 5 -16 0 -22 -2 -12 -5z"/>
<path d="M3060 2381 c0 -13 37 -21 100 -21 31 0 50 4 45 9 -14 12 -145 24
-145 12z"/>
<path d="M12185 2344 c18 -14 48 -15 255 -10 129 3 243 6 253 6 10 0 16 3 14
8 -3 4 -126 8 -274 10 -248 2 -266 1 -248 -14z"/>
<path d="M3338 2303 c6 -2 18 -2 25 0 6 3 1 5 -13 5 -14 0 -19 -2 -12 -5z"/>
<path d="M3030 2291 c0 -10 116 -22 137 -14 12 5 12 7 1 14 -17 11 -138 11
-138 0z"/>
<path d="M3425 2290 c3 -5 15 -10 26 -10 11 0 17 5 14 10 -3 6 -15 10 -26 10
-11 0 -17 -4 -14 -10z"/>
<path d="M3575 2270 c3 -5 8 -10 11 -10 2 0 4 5 4 10 0 6 -5 10 -11 10 -5 0
-7 -4 -4 -10z"/>
<path d="M12333 2214 c-18 -8 -17 -71 1 -77 11 -4 170 -9 284 -9 13 0 32 8 43
18 18 16 20 16 37 1 23 -21 82 -23 82 -3 0 8 6 17 13 19 28 12 -21 28 -78 25
-55 -2 -184 7 -260 19 -66 10 -111 12 -122 7z"/>
<path d="M11420 2120 c-8 -5 -30 -10 -47 -10 -18 0 -33 -4 -33 -10 0 -13 69
-13 108 1 18 6 29 15 26 20 -7 12 -35 11 -54 -1z"/>
<path d="M11308 2093 c7 -3 16 -2 19 1 4 3 -2 6 -13 5 -11 0 -14 -3 -6 -6z"/>
<path d="M11060 2074 c-124 -17 -209 -25 -350 -33 -71 -4 -113 -10 -110 -16 8
-15 279 2 492 31 59 8 119 14 135 14 15 0 35 5 43 10 21 14 -91 11 -210 -6z"/>
<path d="M11265 1990 c3 -5 11 -10 16 -10 6 0 7 5 4 10 -3 6 -11 10 -16 10 -6
0 -7 -4 -4 -10z"/>
<path d="M3968 1973 c7 -3 16 -2 19 1 4 3 -2 6 -13 5 -11 0 -14 -3 -6 -6z"/>
<path d="M11458 1973 c6 -2 18 -2 25 0 6 3 1 5 -13 5 -14 0 -19 -2 -12 -5z"/>
<path d="M11530 1860 c0 -5 7 -10 15 -10 8 0 15 5 15 10 0 6 -7 10 -15 10 -8
0 -15 -4 -15 -10z"/>
<path d="M3325 1769 c-71 -9 -269 -11 -658 -6 -64 1 -117 -2 -117 -7 0 -4 66
-9 147 -10 82 -2 189 -8 238 -15 71 -10 128 -10 269 0 170 11 450 8 559 -7 32
-5 47 -3 47 5 0 6 -15 11 -34 11 -19 0 -63 6 -98 14 -85 19 -255 26 -353 15z"/>
<path d="M2480 1440 c0 -5 5 -10 11 -10 5 0 7 5 4 10 -3 6 -8 10 -11 10 -2 0
-4 -4 -4 -10z"/>
<path d="M2535 1440 c-4 -6 10 -10 35 -10 25 0 39 4 35 10 -3 6 -19 10 -35 10
-16 0 -32 -4 -35 -10z"/>
<path d="M2735 1430 c-7 -12 12 -12 40 0 18 8 17 9 -7 9 -15 1 -30 -3 -33 -9z"/>
<path d="M2845 1431 c7 -13 95 -15 95 -3 0 5 -23 9 -51 11 -34 1 -49 -2 -44
-8z"/>
<path d="M3190 1430 c0 -5 14 -10 31 -10 17 0 28 4 24 10 -3 6 -17 10 -31 10
-13 0 -24 -4 -24 -10z"/>
<path d="M3138 1423 c7 -3 16 -2 19 1 4 3 -2 6 -13 5 -11 0 -14 -3 -6 -6z"/>
<path d="M3265 1420 c3 -5 10 -10 16 -10 5 0 9 5 9 10 0 6 -7 10 -16 10 -8 0
-12 -4 -9 -10z"/>
<path d="M2445 1364 c-104 -18 -216 -34 -247 -34 -34 0 -58 -4 -58 -11 0 -6
-9 -8 -21 -4 -27 9 -423 10 -474 2 -22 -4 -87 -3 -145 3 -58 5 -231 16 -385
25 -220 11 -281 12 -287 2 -11 -17 -10 -23 7 -37 13 -11 29 -11 85 -1 75 14
501 8 523 -6 7 -5 89 -9 182 -9 94 -1 262 -2 375 -3 113 -1 225 3 250 8 25 5
79 16 120 25 41 8 111 22 155 31 44 9 85 16 90 14 16 -5 84 11 90 21 10 17
-62 10 -260 -26z"/>
<path d="M3006 1341 c-4 -7 -5 -15 -2 -18 9 -9 19 4 14 18 -4 11 -6 11 -12 0z"/>
<path d="M2880 1321 c-69 -21 -93 -31 -87 -37 2 -3 31 1 63 9 33 8 71 18 87
21 15 4 27 10 27 14 0 11 -41 8 -90 -7z"/>
<path d="M2625 1269 c-49 -4 -142 -14 -205 -23 -63 -8 -225 -18 -360 -21 -135
-3 -285 -10 -335 -16 -49 -5 -121 -12 -160 -15 -91 -7 -110 -15 -60 -25 22 -4
81 -3 130 3 50 5 209 12 355 14 146 2 292 8 325 14 104 17 289 31 325 25 19
-4 43 -14 52 -22 22 -20 163 -45 211 -37 49 8 36 26 -17 23 -22 -1 -51 3 -63
9 -12 7 -35 12 -52 12 -31 0 -65 25 -56 41 4 5 13 9 21 9 8 0 14 5 14 10 0 6
-8 9 -17 8 -10 -1 -58 -5 -108 -9z"/>
<path d="M3163 1168 c4 -13 112 -21 131 -10 18 10 -22 22 -77 22 -43 0 -58 -3
-54 -12z"/>
<path d="M1920 1154 c-80 -6 -147 -12 -150 -13 -3 -2 -39 -4 -80 -4 -57 -2
-75 -5 -75 -16 0 -25 32 -37 52 -19 13 12 37 16 83 16 36 0 67 1 70 2 3 1 61
3 130 6 142 4 207 11 215 24 9 14 -92 16 -245 4z"/>
<path d="M1350 1110 c-68 -6 -90 -14 -90 -31 0 -6 9 -5 22 2 12 7 62 12 110
13 63 1 88 5 88 14 0 13 -23 14 -130 2z"/>
<path d="M2193 1039 c-24 -4 -50 -12 -60 -17 -11 -7 -23 -6 -34 1 -13 8 -21 7
-33 -2 -29 -24 -6 -30 103 -28 76 1 113 6 125 16 16 14 16 15 -6 27 -26 15
-36 15 -95 3z"/>
<path d="M4830 759 c-25 -4 -85 -10 -133 -14 -64 -5 -90 -11 -94 -22 -11 -29
13 -37 59 -18 33 13 84 18 223 21 99 3 187 6 195 9 8 2 41 6 73 10 31 3 57 10
57 15 0 10 -308 9 -380 -1z"/>
<path d="M7900 730 c-135 -10 -303 -20 -374 -23 -75 -3 -133 -10 -140 -17 -8
-8 11 -10 74 -6 47 3 168 11 270 18 174 11 634 16 727 7 41 -4 63 4 49 18 -4
4 -51 8 -104 9 -53 1 -133 4 -177 7 -44 3 -190 -3 -325 -13z"/>
<path d="M7270 690 c-36 -4 -144 -15 -240 -25 -162 -16 -204 -25 -187 -41 7
-8 185 10 377 37 74 10 138 19 143 19 4 0 7 5 7 10 0 11 -3 11 -100 0z"/>
<path d="M8030 639 c-241 -9 -439 -25 -530 -45 l-65 -14 70 5 c39 3 104 9 145
15 99 13 501 25 822 25 154 0 253 4 248 9 -12 12 -426 15 -690 5z"/>
<path d="M7201 550 c-29 -5 -58 -13 -64 -19 -19 -19 -1 -22 36 -6 20 8 47 15
61 15 14 0 28 5 31 10 3 6 3 9 -2 9 -4 -1 -32 -5 -62 -9z"/>
<path d="M8465 534 c-160 -12 -333 -29 -590 -56 -60 -6 -199 -12 -307 -12
-108 0 -195 -3 -192 -8 3 -4 14 -8 25 -8 14 0 19 -7 19 -26 0 -24 2 -25 38
-20 151 22 440 57 557 65 77 6 167 16 200 21 51 8 294 23 390 24 17 1 63 -3
103 -7 78 -8 99 5 35 22 -71 18 -108 19 -278 5z m-990 -94 c3 -5 -1 -10 -9
-10 -9 0 -16 5 -16 10 0 6 4 10 9 10 6 0 13 -4 16 -10z"/>
<path d="M5250 475 c-116 -30 -272 -44 -401 -37 -101 5 -213 -4 -205 -17 7
-11 325 -4 445 9 56 6 136 20 178 31 42 11 87 18 99 15 26 -7 42 9 18 18 -22
8 -27 8 -134 -19z"/>
<path d="M6328 484 c-23 -22 60 -35 92 -14 12 7 8 10 -15 10 -16 0 -39 3 -50
6 -11 3 -24 2 -27 -2z"/>
<path d="M6538 482 c-43 -2 -78 -6 -78 -11 0 -4 177 -8 393 -9 215 -1 411 -5
435 -8 24 -4 42 -2 42 3 0 12 -107 20 -300 22 -80 1 -206 3 -280 4 -74 1 -170
1 -212 -1z"/>
<path d="M4468 445 c-3 -3 -95 -8 -204 -10 -381 -7 -544 -21 -544 -47 0 -6 7
-7 18 -3 9 4 85 9 167 9 83 1 155 5 160 7 11 6 291 14 463 14 56 0 102 2 102
6 0 3 -26 9 -57 13 -31 4 -66 9 -78 12 -11 3 -23 2 -27 -1z"/>
<path d="M8115 400 c-149 -18 -336 -48 -344 -56 -16 -15 24 -12 136 10 179 35
378 50 558 42 179 -7 270 7 110 17 -154 11 -296 6 -460 -13z"/>
<path d="M6490 370 c0 -5 24 -10 54 -10 30 0 121 -9 202 -20 159 -21 494 -28
494 -11 0 6 -86 12 -202 15 -256 6 -234 5 -357 22 -122 16 -191 18 -191 4z"/>
<path d="M6315 360 c-7 -12 29 -12 65 0 21 7 19 8 -17 9 -23 1 -45 -3 -48 -9z"/>
<path d="M7633 313 c9 -2 25 -2 35 0 9 3 1 5 -18 5 -19 0 -27 -2 -17 -5z"/>
<path d="M8685 301 c-17 -7 -16 -9 10 -14 37 -7 124 3 131 14 6 11 -113 11
-141 0z"/>
<path d="M4733 293 c-69 -6 -50 -18 32 -20 41 -1 75 2 75 6 0 11 -27 22 -48
19 -9 -1 -36 -3 -59 -5z"/>
<path d="M8538 293 c-38 -2 -68 -9 -68 -14 0 -12 120 -2 155 12 l20 8 -20 -2
c-11 0 -50 -2 -87 -4z"/>
<path d="M4510 280 c0 -12 37 -12 65 0 15 7 10 9 -22 9 -24 1 -43 -3 -43 -9z"/>
<path d="M4225 270 c3 -5 22 -10 41 -10 19 0 34 5 34 10 0 6 -18 10 -41 10
-24 0 -38 -4 -34 -10z"/>
<path d="M4346 271 c5 -6 37 -7 79 -2 l70 8 -79 2 c-50 1 -76 -3 -70 -8z"/>
<path d="M8242 265 c-81 -13 -114 -32 -37 -21 28 4 88 10 135 13 47 2 89 9 95
14 13 13 -103 9 -193 -6z"/>
<path d="M8098 243 c7 -3 16 -2 19 1 4 3 -2 6 -13 5 -11 0 -14 -3 -6 -6z"/>
<path d="M7968 223 c6 -2 18 -2 25 0 6 3 1 5 -13 5 -14 0 -19 -2 -12 -5z"/>
<path d="M7928 213 c7 -3 16 -2 19 1 4 3 -2 6 -13 5 -11 0 -14 -3 -6 -6z"/>
<path d="M8830 205 c-64 -14 -279 -35 -362 -35 -37 0 -58 -4 -58 -11 0 -9 26
-10 93 -5 50 3 164 9 252 12 169 7 205 15 184 40 -13 16 -34 16 -109 -1z"/>
</g>
</svg>
