<?xml version="1.0" standalone="no"?>
<!DOCTYPE svg PUBLIC "-//W3C//DTD SVG 20010904//EN"
 "http://www.w3.org/TR/2001/REC-SVG-20010904/DTD/svg10.dtd">
<svg version="1.0" xmlns="http://www.w3.org/2000/svg"
 width="1280.000000pt" height="756.000000pt" viewBox="0 0 1280.000000 756.000000"
 preserveAspectRatio="xMidYMid meet">
<metadata>
Created by potrace 1.15, written by Peter Selinger 2001-2017
</metadata>
<g transform="translate(0.000000,756.000000) scale(0.100000,-0.100000)"
fill="#000000" stroke="none">
<path d="M9625 7549 c-22 -4 -62 -8 -90 -9 -27 0 -59 -7 -69 -15 -11 -8 -32
-15 -47 -15 -15 0 -41 -11 -57 -25 -34 -29 -48 -31 -56 -10 -10 27 -40 16 -77
-27 -36 -41 -38 -42 -52 -24 -11 15 -17 16 -34 7 -25 -13 -85 -99 -133 -190
-24 -44 -49 -75 -85 -101 -27 -21 -60 -48 -71 -61 -52 -58 -113 -163 -149
-254 -32 -84 -40 -117 -46 -205 -10 -141 -37 -224 -86 -264 -81 -67 -116 -81
-176 -67 -27 6 -73 11 -103 11 -47 0 -54 -3 -54 -19 0 -32 127 -150 175 -162
22 -6 46 -16 54 -22 8 -7 48 -12 88 -12 85 -1 92 -6 140 -105 47 -98 104 -190
116 -190 6 0 28 -18 47 -39 34 -37 39 -39 79 -34 37 5 46 2 74 -25 18 -17 66
-47 107 -67 72 -35 78 -36 145 -29 39 4 102 8 140 8 l70 1 3 -33 c4 -41 -12
-62 -49 -62 -21 0 -35 -10 -56 -37 -15 -21 -56 -69 -91 -108 -78 -85 -134
-177 -176 -292 -19 -48 -58 -128 -88 -178 -48 -80 -61 -94 -117 -127 -67 -39
-174 -68 -250 -68 -77 0 -355 -31 -366 -41 -5 -5 -29 -9 -53 -9 -24 0 -52 -5
-63 -11 -11 -5 -68 -12 -127 -13 -93 -3 -115 -7 -157 -29 -28 -15 -82 -36
-122 -48 -48 -15 -93 -39 -138 -72 -65 -49 -155 -150 -155 -174 0 -7 -11 -22
-23 -35 -17 -16 -31 -53 -47 -118 -20 -83 -61 -187 -106 -272 -23 -44 -13 -88
22 -88 30 0 114 83 143 143 18 34 48 88 68 120 33 53 39 57 64 52 31 -7 53 2
124 55 73 54 93 58 120 24 l23 -28 73 10 c41 6 109 25 152 43 52 20 98 32 135
33 60 1 249 -16 342 -31 108 -18 277 7 370 55 25 12 59 24 75 27 17 2 38 8 49
12 23 10 22 -1 -24 -170 -27 -104 -31 -130 -25 -194 8 -96 50 -271 77 -324 24
-48 120 -151 190 -205 82 -62 67 -78 -117 -126 -54 -14 -114 -26 -133 -26 -75
0 -318 -101 -394 -164 -21 -17 -127 -127 -236 -245 -207 -224 -328 -339 -418
-397 -30 -19 -69 -47 -87 -63 -17 -15 -50 -40 -72 -55 -22 -15 -55 -38 -74
-51 -19 -14 -44 -25 -57 -25 -12 0 -35 -7 -51 -17 -29 -16 -32 -15 -115 20
-47 21 -89 37 -94 37 -5 0 -26 9 -46 20 -67 36 -170 53 -246 41 -37 -5 -89
-13 -117 -16 -55 -7 -169 -34 -256 -59 -36 -11 -107 -18 -200 -21 -79 -2 -166
-6 -194 -10 -56 -7 -424 27 -468 44 -15 6 -58 15 -95 21 -138 22 -219 50 -267
92 -51 45 -122 67 -215 68 -87 0 -95 -5 -118 -68 -11 -32 -32 -85 -46 -119
-24 -56 -27 -78 -30 -204 -4 -135 -2 -144 25 -214 58 -152 164 -278 267 -318
112 -44 179 -69 207 -76 17 -5 44 -14 60 -21 32 -12 283 -56 405 -70 41 -5
156 -14 256 -19 304 -17 373 -35 442 -118 43 -50 70 -122 79 -207 6 -56 8 -59
51 -85 24 -14 54 -33 66 -43 21 -16 21 -16 -14 -22 -144 -22 -399 -37 -610
-34 -204 3 -235 1 -235 -12 0 -12 22 -15 130 -16 72 -1 177 -5 235 -9 58 -4
166 -8 240 -9 162 -4 735 -24 875 -32 126 -7 118 6 -28 42 -59 15 -107 30
-107 33 0 4 22 14 49 24 57 20 130 83 191 164 24 32 62 78 85 103 23 25 62 74
87 110 51 74 158 274 158 296 0 8 23 61 50 117 41 84 50 113 50 155 0 91 -36
134 -183 218 -48 27 -87 55 -87 62 0 6 23 24 51 40 29 15 76 48 106 75 29 26
57 47 62 47 5 0 23 12 40 26 17 14 66 44 109 65 88 45 134 73 183 110 19 14
48 33 66 43 52 26 131 86 212 160 110 101 245 157 368 155 22 -1 47 2 55 7 7
5 69 11 138 15 69 4 153 12 186 20 55 11 67 11 109 -5 l47 -18 -6 -67 c-3 -36
-9 -87 -12 -112 -5 -38 0 -59 24 -115 16 -38 35 -86 41 -106 14 -43 80 -148
126 -199 36 -40 69 -132 134 -374 43 -160 69 -290 64 -315 -4 -17 -116 -70
-149 -70 -11 0 -24 -4 -30 -10 -5 -5 -42 -21 -82 -34 -40 -14 -86 -36 -103
-50 -33 -28 -336 -184 -419 -215 -71 -27 -195 -37 -289 -22 -93 15 -182 67
-323 191 -164 143 -191 166 -259 214 -37 25 -74 46 -83 46 -41 0 -60 -132 -35
-240 8 -32 7 -86 -2 -191 -19 -226 4 -410 76 -618 34 -96 43 -114 98 -184 45
-59 159 -146 250 -193 26 -13 47 -28 47 -33 0 -5 -82 -11 -182 -14 -157 -4
-188 -8 -220 -25 -22 -12 -68 -22 -116 -26 -91 -8 -124 -24 -103 -50 16 -19
63 -21 93 -5 26 14 121 27 253 35 55 3 136 9 180 13 44 3 103 2 130 -3 65 -13
271 -11 361 3 115 18 364 26 364 13 0 -8 -20 -12 -52 -12 -78 0 -128 -11 -128
-26 0 -22 45 -27 159 -20 58 4 158 9 221 12 63 3 121 7 129 10 53 18 335 33
580 32 281 -1 282 -3 6 -27 -71 -7 -157 -16 -190 -21 -33 -6 -106 -10 -162
-10 -99 0 -133 -5 -133 -19 0 -7 289 -5 405 3 121 9 421 36 442 41 12 3 65 9
118 15 53 5 117 16 143 24 26 8 59 17 75 20 39 9 35 30 -5 23 -18 -3 -73 -13
-123 -22 -60 -11 -107 -14 -140 -9 -27 4 -72 8 -100 9 -156 3 -381 19 -455 32
-52 9 -196 17 -367 22 -156 4 -286 10 -289 14 -9 8 15 37 30 37 7 0 57 23 112
51 127 65 308 135 376 146 116 19 360 5 522 -30 92 -20 80 -33 -36 -41 -56 -4
-105 -9 -107 -12 -13 -13 21 -14 150 -5 170 12 360 13 378 2 14 -9 -64 -16
-349 -31 -102 -6 -250 -16 -330 -22 -128 -12 -137 -13 -75 -16 39 -2 117 1
175 7 58 6 221 15 364 21 142 6 262 12 266 15 5 3 138 5 297 6 219 0 309 -4
377 -16 85 -15 110 -14 90 3 -16 15 -87 30 -189 42 -64 7 -119 20 -155 36 -94
43 -125 46 -241 23 -57 -12 -132 -22 -166 -23 -73 -3 -77 4 -38 62 40 58 65
155 75 292 13 174 -7 422 -44 540 -16 51 -22 90 -36 240 -18 191 -50 239 -154
225 -83 -12 -224 -43 -248 -56 -13 -7 -54 -20 -93 -30 -38 -10 -113 -29 -165
-42 -52 -14 -98 -23 -101 -21 -3 2 -9 43 -12 91 -5 87 -43 229 -111 421 -15
40 -38 118 -52 174 -24 97 -25 106 -15 221 10 107 15 127 47 187 19 37 56 92
81 121 66 77 75 94 93 168 21 83 36 87 87 24 21 -26 66 -75 99 -109 34 -34 80
-88 102 -121 45 -67 110 -122 163 -141 33 -11 42 -10 100 17 103 47 290 206
316 270 114 269 141 556 88 911 -29 189 -99 442 -136 486 -5 6 -14 38 -20 70
-6 32 -17 71 -25 87 -17 31 -11 47 16 47 17 0 183 -126 336 -256 112 -95 231
-150 339 -156 41 -2 226 -47 239 -57 8 -7 16 -48 20 -112 10 -149 37 -199 106
-199 33 0 39 5 68 53 18 31 32 67 32 85 0 42 23 51 58 23 15 -11 43 -30 63
-41 38 -20 123 -112 174 -188 37 -55 80 -92 109 -92 13 0 49 -18 82 -39 32
-21 69 -42 82 -46 21 -6 22 -4 22 64 0 69 0 70 -68 173 -37 57 -78 119 -90
140 -27 44 -96 108 -117 108 -22 0 -19 -7 18 -44 80 -83 139 -166 182 -258 12
-26 28 -54 35 -62 15 -19 5 -66 -15 -66 -31 0 -85 62 -106 121 -20 54 -83 144
-155 222 -41 44 -103 82 -115 70 -6 -6 0 -14 18 -24 39 -21 183 -198 183 -226
0 -13 -4 -23 -9 -23 -4 0 -32 28 -62 63 -29 34 -72 80 -94 102 -51 51 -155
115 -188 115 -23 0 -25 -4 -29 -57 -4 -65 -35 -136 -60 -141 -22 -4 -54 32
-62 70 -3 17 -6 81 -6 143 0 124 4 132 79 170 87 44 107 46 195 24 132 -34
272 -121 362 -226 44 -53 24 -57 -35 -7 -73 63 -55 30 27 -47 42 -41 85 -85
94 -99 l17 -25 0 49 c1 45 -4 56 -53 120 -30 39 -72 87 -93 107 -49 46 -167
115 -218 128 -99 24 -155 59 -155 96 0 29 -83 93 -194 148 -141 71 -193 122
-250 242 -31 65 -145 153 -254 195 -137 53 -211 84 -267 112 -60 31 -185 141
-185 164 0 6 -24 50 -54 98 -29 47 -70 128 -91 180 -20 53 -58 128 -84 168
-81 124 -154 174 -275 187 -39 5 -85 15 -101 24 -17 8 -56 20 -87 26 -31 7
-68 21 -81 32 -14 10 -33 19 -44 19 -26 0 -83 37 -83 55 0 20 1 20 70 -15 65
-33 70 -34 70 -21 0 5 -28 26 -62 47 -83 49 -122 87 -160 154 -38 69 -36 67
-51 48 -7 -10 -51 -22 -118 -32 -58 -9 -127 -23 -154 -31 -26 -8 -84 -18 -129
-21 -118 -10 -122 -16 -81 -118 l25 -63 -25 -58 c-14 -31 -32 -84 -40 -117 -7
-33 -15 -62 -17 -64 -2 -2 -41 6 -85 17 -65 15 -91 17 -125 9 -98 -22 -162 -8
-269 61 -30 19 -71 34 -110 40 -77 12 -88 21 -55 42 13 9 27 30 31 47 4 16 10
32 14 35 4 2 31 -5 60 -15 28 -11 69 -20 91 -20 48 0 141 -19 157 -32 6 -5 24
-8 40 -6 l28 3 -35 22 c-19 13 -55 25 -80 28 -116 14 -199 55 -383 187 -31 23
-60 39 -63 35 -3 -3 27 -39 66 -81 77 -81 79 -89 39 -140 -42 -53 -73 -27
-154 127 -25 47 -45 89 -45 92 0 3 10 5 23 5 17 0 28 10 40 35 23 48 21 78 -5
101 -19 17 -21 17 -15 1 7 -20 -8 -68 -26 -79 -7 -4 -24 -8 -39 -8 -39 0 -36
22 12 98 51 81 51 99 -1 42 -22 -25 -35 -35 -29 -22 6 13 10 28 7 35 -2 6 -20
-19 -39 -56 -33 -63 -34 -67 -15 -61 22 6 22 6 2 -10 -23 -18 -55 -21 -55 -5
0 6 15 36 34 67 19 32 38 75 42 97 3 22 19 69 34 105 16 36 31 83 35 105 15
91 59 273 76 313 11 24 19 56 19 70 1 35 37 82 163 212 56 58 121 132 145 163
47 62 74 69 40 11 -14 -25 -18 -38 -10 -46 7 -7 14 -4 24 11 7 12 34 38 60 56
26 19 58 50 70 70 24 37 57 51 39 16 -15 -26 -2 -34 27 -15 19 12 26 13 32 4
5 -9 20 -10 43 -6 22 4 44 2 55 -5 15 -10 27 -7 64 15 40 23 47 24 58 11 9
-11 25 -13 65 -9 47 6 53 4 57 -14 5 -18 10 -19 42 -12 20 4 42 12 49 18 7 5
19 9 27 10 12 0 97 24 173 49 11 3 17 0 17 -11 0 -9 -12 -18 -27 -22 -58 -14
-173 -67 -173 -80 0 -17 26 -19 36 -3 3 6 16 8 28 5 12 -3 44 1 70 9 128 39
306 53 306 25 0 -14 -30 -20 -98 -20 -91 -1 -219 -28 -201 -44 2 -2 58 1 125
7 144 11 334 2 334 -18 0 -9 -26 -11 -112 -8 -117 6 -178 -4 -213 -33 -19 -15
-19 -15 5 -9 40 12 239 16 245 5 7 -11 -37 -35 -82 -45 -39 -8 -54 -25 -22
-25 16 0 19 -3 11 -13 -6 -7 -9 -23 -5 -35 4 -16 1 -22 -11 -22 -38 0 -19 -16
102 -83 38 -21 51 -32 43 -40 -8 -8 -24 -5 -57 11 -53 26 -67 22 -36 -11 27
-29 27 -35 0 -39 -12 -2 -23 -9 -26 -16 -5 -16 47 -64 100 -91 37 -19 39 -21
13 -16 -16 3 -38 8 -49 12 -12 3 -17 1 -14 -8 2 -7 16 -16 30 -20 14 -4 54
-26 88 -50 52 -37 58 -45 39 -47 -12 -2 -46 8 -75 23 -29 15 -61 25 -71 23
-13 -3 -4 -10 28 -25 72 -32 74 -47 4 -38 -64 8 -71 -10 -7 -20 53 -8 99 -24
165 -56 l57 -28 0 35 c0 28 -9 45 -46 84 -25 26 -44 55 -42 63 2 8 -24 35 -60
62 -35 26 -61 50 -58 52 2 3 19 2 37 -2 21 -5 61 -35 115 -87 64 -62 84 -76
84 -61 0 11 -7 26 -15 33 -9 8 -15 29 -15 56 0 36 -5 46 -30 64 -39 28 -40 54
-2 48 15 -3 35 -9 45 -13 12 -5 17 -3 17 7 0 14 -88 85 -237 194 -68 50 -80
74 -35 74 58 -1 115 -19 157 -49 43 -31 65 -39 65 -22 0 17 -96 83 -137 94
-24 6 -43 15 -43 20 0 14 77 -1 121 -24 45 -23 59 -19 59 18 0 18 -14 40 -46
70 -42 40 -50 44 -90 42 -49 -3 -62 4 -45 25 31 37 -32 76 -119 76 -30 0 -52
6 -60 15 -7 9 -29 15 -52 15 -31 0 -41 4 -45 19 -7 26 -29 33 -67 22 -68 -21
-144 -41 -196 -50 -30 -6 -77 -17 -105 -26 -43 -13 -48 -13 -35 -1 17 17 175
76 203 76 9 0 17 7 17 15 0 21 -62 19 -130 -5 -74 -26 -84 -26 -76 5 7 28 -4
30 -79 14z m315 -89 c0 -5 -4 -10 -10 -10 -5 0 -10 5 -10 10 0 6 5 10 10 10 6
0 10 -4 10 -10z m-420 -19 c0 -6 -4 -13 -10 -16 -5 -3 -10 1 -10 9 0 9 5 16
10 16 6 0 10 -4 10 -9z m235 -31 c-3 -5 -11 -10 -16 -10 -6 0 -7 5 -4 10 3 6
11 10 16 10 6 0 7 -4 4 -10z m705 -130 c-18 -11 -24 -6 -16 16 5 14 9 15 19 5
9 -9 9 -14 -3 -21z m29 -384 c27 -15 60 -46 47 -46 -14 0 -63 29 -75 44 -17
20 -8 20 28 2z m-4 -226 c3 -5 2 -10 -4 -10 -5 0 -13 5 -16 10 -3 6 -2 10 4
10 5 0 13 -4 16 -10z m-1892 -354 c6 -15 -1 -26 -15 -26 -4 0 -8 9 -8 20 0 23
15 27 23 6z m-51 -33 c-7 -3 -25 -15 -40 -27 -15 -13 -35 -26 -45 -29 -14 -5
-17 -13 -11 -29 10 -35 11 -35 57 10 67 66 89 56 37 -16 -24 -33 -36 -42 -60
-42 -17 0 -30 5 -30 10 0 6 -13 10 -30 10 -20 0 -40 11 -65 36 -39 39 -41 57
-6 62 15 2 21 0 17 -7 -11 -17 32 -12 109 13 39 12 72 21 75 18 3 -3 -1 -7 -8
-9z m1602 -245 c13 -29 33 -74 44 -100 12 -26 38 -60 61 -79 23 -18 50 -47 60
-65 25 -41 108 -74 211 -81 43 -3 91 -14 112 -24 21 -11 47 -19 58 -19 30 0
91 -33 121 -67 35 -37 121 -199 163 -306 49 -125 168 -287 244 -331 73 -42
153 -80 252 -119 238 -93 264 -111 347 -242 55 -85 81 -114 156 -172 31 -24
57 -48 57 -52 0 -5 -19 -21 -42 -36 -116 -76 -188 -145 -188 -179 0 -14 -5
-26 -11 -26 -31 0 -209 54 -241 73 -34 20 -109 80 -292 231 -81 66 -114 85
-229 127 -45 17 -128 59 -183 95 -88 56 -108 74 -151 137 -57 82 -117 203
-193 389 -47 114 -73 158 -93 158 -15 0 -5 -43 39 -171 112 -331 229 -485 449
-597 73 -36 89 -63 135 -217 18 -60 52 -162 76 -225 24 -63 50 -149 58 -190 9
-41 21 -91 26 -110 6 -19 16 -116 22 -215 14 -226 -2 -387 -57 -565 -43 -137
-63 -169 -172 -266 -64 -57 -90 -74 -113 -74 -23 0 -33 -6 -42 -25 -24 -54
-147 -13 -183 61 -11 23 -56 81 -101 130 -44 49 -101 114 -125 144 -24 30 -65
75 -90 100 -47 47 -139 214 -198 360 -16 41 -50 120 -74 175 -24 55 -63 161
-87 235 -43 133 -43 137 -42 268 0 74 6 157 12 185 56 271 88 572 87 812 0
233 27 309 168 463 64 71 90 112 70 112 -7 0 -155 -149 -155 -155 0 -3 -15
-28 -33 -57 -64 -101 -74 -147 -92 -398 -25 -352 -27 -372 -51 -500 -14 -68
-31 -187 -39 -265 -8 -77 -20 -177 -27 -222 -9 -69 -8 -91 6 -147 9 -36 16
-78 16 -93 0 -15 16 -88 35 -162 41 -152 42 -146 -45 -157 -30 -3 -82 -12
-115 -20 -95 -22 -339 -19 -425 5 -84 24 -221 115 -238 158 -27 67 -52 201
-52 273 0 157 31 258 164 532 85 178 121 283 135 400 15 115 31 257 41 356 8
77 28 132 50 132 5 0 10 -10 12 -22 3 -19 6 -17 31 18 32 47 35 65 7 39 -11
-10 -20 -14 -20 -9 0 21 55 134 68 139 8 3 32 -8 54 -24 34 -25 43 -28 59 -18
12 8 17 18 12 27 -12 26 -15 120 -8 207 6 73 9 83 26 83 25 0 24 16 -2 30 -20
11 -58 81 -59 108 0 8 15 12 43 12 23 1 71 7 107 15 94 20 160 35 199 45 40
11 46 8 34 -14 -11 -21 -149 -116 -168 -116 -8 0 -15 -4 -15 -9 0 -5 -13 -12
-30 -16 -29 -6 -47 -21 -37 -31 7 -7 141 65 213 113 32 22 66 52 73 67 11 20
22 26 48 26 30 0 35 -4 57 -52z m315 -257 c7 -5 11 -13 7 -19 -7 -11 -61 2
-80 19 -13 12 55 11 73 0z m-1084 -377 c-14 -26 -22 -50 -20 -55 3 -4 -4 -43
-16 -86 -15 -57 -23 -126 -29 -253 -9 -214 -31 -295 -113 -433 -59 -98 -153
-217 -190 -241 -92 -60 -356 -97 -508 -71 -46 8 -129 16 -185 19 -101 6 -160
22 -184 51 -10 13 -11 23 -1 56 20 65 76 183 97 201 38 33 145 52 384 68 74 5
144 12 156 15 27 8 54 -18 54 -51 0 -19 -5 -24 -27 -24 l-27 0 39 -40 c21 -22
43 -40 48 -40 5 0 6 37 3 83 l-7 82 72 50 c47 32 91 75 126 120 54 71 63 90
105 225 30 98 98 213 176 300 35 38 65 70 67 70 3 0 -7 -21 -20 -46z m-1195
-820 c0 -4 -18 -39 -39 -78 -26 -48 -42 -90 -46 -129 -9 -69 -21 -84 -78 -91
-86 -11 -103 -14 -134 -27 -28 -12 -34 -11 -52 6 -12 10 -21 28 -21 39 0 24
84 242 101 262 10 12 38 15 217 22 28 1 52 -1 52 -4z m-320 -59 c0 -8 -15 -52
-33 -98 -18 -45 -39 -104 -47 -132 -17 -60 -86 -135 -125 -135 -22 0 -25 4
-25 35 0 53 -32 48 -70 -12 -17 -26 -30 -51 -30 -55 0 -5 -16 -35 -37 -66 -20
-31 -48 -85 -64 -119 -26 -58 -54 -83 -78 -69 -5 4 6 43 25 89 18 45 40 112
49 149 18 78 108 244 163 301 53 55 87 78 156 103 73 27 116 31 116 9z m4300
-187 c40 -28 67 -63 76 -101 6 -26 3 -29 -79 -67 -61 -29 -91 -49 -104 -70
-13 -23 -22 -28 -38 -23 -11 4 -54 17 -95 29 -62 18 -77 26 -84 48 -7 18 -6
33 5 52 17 33 171 134 204 134 13 0 27 5 30 10 10 17 50 11 85 -12z m-4158
-120 c-15 -15 -132 -24 -132 -10 0 16 17 24 74 31 54 8 78 -1 58 -21z m1985
-600 c-3 -8 -6 -5 -6 6 -1 11 2 17 5 13 3 -3 4 -12 1 -19z m41 -85 c3 -17 0
-21 -12 -17 -9 3 -16 3 -16 -1 0 -14 82 -139 116 -177 18 -21 45 -59 58 -85
14 -26 40 -67 58 -91 l32 -42 -12 -73 c-18 -113 -28 -139 -85 -213 -114 -151
-167 -295 -167 -455 0 -71 7 -103 51 -242 28 -89 60 -177 70 -196 10 -20 19
-44 19 -55 0 -10 12 -61 26 -112 16 -60 28 -138 33 -216 4 -68 11 -131 15
-140 6 -12 -2 -23 -31 -42 -35 -23 -117 -49 -126 -40 -2 3 0 22 6 43 9 32 6
55 -20 147 -30 107 -42 163 -64 294 -29 183 -123 420 -225 568 -24 35 -49 83
-56 106 -6 22 -18 50 -25 62 -28 44 -44 124 -38 182 15 126 41 209 115 367 77
164 93 206 83 216 -7 7 -17 0 -32 -24 l-21 -35 -53 15 c-28 8 -76 19 -106 24
-66 12 -260 109 -314 158 -34 31 -37 36 -23 50 14 13 24 13 83 1 38 -7 135
-15 216 -17 163 -4 283 13 341 48 43 27 100 22 104 -8z m-538 -248 c44 -22
168 -72 195 -78 23 -5 20 -23 -19 -142 -48 -145 -25 -132 -251 -145 -245 -14
-481 -53 -568 -93 -56 -26 -169 -111 -194 -146 -8 -12 -19 -21 -25 -21 -6 0
-29 -16 -52 -35 -53 -46 -216 -155 -331 -220 -128 -73 -270 -161 -339 -209
-83 -58 -171 -113 -240 -150 -32 -17 -70 -37 -85 -45 -14 -8 -30 -20 -34 -27
-19 -32 -43 -34 -108 -8 -98 40 -110 55 -58 73 17 6 59 30 92 54 34 24 79 47
99 51 21 4 50 17 65 30 16 13 45 31 66 40 40 16 74 41 189 136 37 30 98 77
136 103 39 27 110 90 158 140 178 186 221 233 274 297 29 36 65 76 80 90 14
14 31 32 36 41 16 28 148 109 215 132 35 13 69 26 76 30 7 4 70 21 140 37 70
16 164 38 208 50 77 21 155 36 203 39 12 0 45 -10 72 -24z m-4106 -879 c8 -14
26 -28 38 -31 13 -4 71 -30 131 -56 104 -48 284 -94 402 -103 22 -2 85 -10
140 -17 109 -14 154 -15 415 -8 172 4 177 3 290 -28 63 -17 153 -39 200 -48
92 -17 135 -35 190 -77 51 -39 208 -115 260 -127 85 -18 125 -29 155 -40 17
-6 74 -22 128 -37 87 -23 113 -26 225 -23 l127 4 3 -26 c2 -15 -5 -32 -16 -43
-19 -16 -28 -16 -158 -1 -77 8 -168 22 -204 30 -76 17 -103 18 -96 6 7 -10
261 -57 359 -66 64 -6 67 -8 67 -33 0 -37 -35 -109 -108 -223 -34 -53 -62
-100 -62 -106 0 -21 -140 -177 -238 -265 -143 -128 -145 -130 -249 -172 l-91
-38 -116 56 c-125 61 -251 159 -262 202 -9 36 2 41 37 15 56 -41 44 -12 -21
54 -65 66 -67 91 -3 34 19 -16 38 -27 41 -24 4 3 -22 31 -56 62 -35 30 -71 72
-80 92 -14 29 -23 37 -51 39 -22 2 -35 10 -38 22 -4 15 -18 20 -66 24 -181 15
-411 28 -652 36 -360 13 -441 32 -600 145 -64 45 -154 142 -198 211 -93 148
-80 416 25 517 32 30 46 37 80 37 35 0 39 2 28 15 -7 9 -8 15 -2 15 5 0 17
-11 26 -24z m1809 -97 c-6 -6 -30 -13 -54 -16 -64 -7 -100 -23 -97 -42 5 -27
52 -41 185 -57 163 -19 245 -36 250 -51 3 -6 -10 -19 -26 -28 -24 -12 -46 -14
-99 -8 -37 4 -69 7 -72 6 -105 -17 -105 -17 -169 40 -34 31 -87 65 -125 81
-36 16 -66 31 -66 35 0 9 193 48 245 50 28 1 36 -2 28 -10z m-230 -109 c71
-34 103 -57 94 -66 -13 -13 -315 73 -317 91 -1 14 67 22 118 13 24 -4 71 -21
105 -38z m336 29 c104 -8 201 -32 201 -50 0 -11 2 -12 -67 5 -32 8 -105 19
-162 25 -57 5 -105 12 -108 15 -9 8 8 27 19 20 5 -4 58 -10 117 -15z m249 -38
c3 -8 -1 -12 -9 -9 -7 2 -15 10 -17 17 -3 8 1 12 9 9 7 -2 15 -10 17 -17z
m-174 -109 c7 -11 -58 -42 -88 -42 -13 0 -29 7 -36 15 -10 12 -7 15 17 20 15
4 33 8 38 10 20 7 64 5 69 -3z m472 -17 c18 -13 17 -14 -18 -15 -27 0 -38 4
-38 15 0 19 30 19 56 0z m80 -56 c28 -11 60 -29 70 -40 18 -20 18 -20 -6 -15
-30 7 -195 26 -228 26 -13 0 -20 -4 -17 -10 3 -5 23 -10 43 -10 57 0 263 -37
276 -50 24 -24 -19 -31 -169 -27 -131 4 -295 28 -295 43 0 17 41 61 79 85 44
28 50 29 121 23 41 -4 98 -15 126 -25z m-18 -165 c28 -4 52 -11 52 -17 0 -11
-116 -2 -152 13 -21 8 -19 9 12 9 19 1 59 -2 88 -5z m2992 -176 c0 -25 -67
-57 -180 -86 -63 -17 -135 -38 -160 -47 -25 -10 -58 -18 -75 -19 -16 -1 -64
-18 -106 -39 -42 -20 -81 -37 -86 -37 -11 0 -33 44 -33 66 0 31 188 97 309
109 41 4 90 14 110 22 39 17 150 41 194 42 15 1 27 -4 27 -11z m47 -60 c4 -7
8 -62 8 -123 1 -60 6 -135 13 -165 40 -174 60 -735 28 -767 -4 -4 -16 -2 -26
5 -18 11 -20 9 -20 -18 0 -48 -52 -87 -148 -110 -57 -13 -96 -11 -237 14 -49
8 -174 22 -277 31 -166 13 -191 13 -229 0 -23 -9 -85 -27 -138 -41 -111 -29
-181 -55 -181 -67 0 -5 -44 -29 -97 -54 -91 -42 -98 -44 -122 -30 -20 11 -39
13 -86 6 -111 -16 -308 -26 -349 -18 -23 5 -67 8 -99 9 -126 1 -383 80 -475
146 -57 41 -142 135 -148 164 -3 14 -16 57 -29 95 -72 212 -77 252 -80 573 -1
199 1 242 12 242 25 0 77 -32 129 -79 27 -25 92 -82 144 -126 52 -44 115 -98
140 -121 61 -55 128 -100 203 -134 79 -37 231 -64 309 -55 32 4 74 7 93 7 20
0 70 13 111 29 114 44 282 79 484 100 115 12 166 24 250 61 30 14 85 33 123
42 37 10 86 32 110 49 41 31 152 84 234 114 42 14 60 29 50 39 -7 7 -164 -49
-225 -80 -35 -18 -52 -22 -60 -14 -8 8 -26 5 -64 -12 -29 -12 -80 -26 -113
-30 -33 -4 -73 -11 -89 -15 -22 -6 -28 -5 -24 6 2 7 24 18 49 24 24 7 69 24
99 40 81 41 317 131 456 174 67 21 146 52 175 69 59 34 83 39 96 20z m-1067
-159 c0 -5 -9 -9 -20 -9 -22 0 -27 16 -7 23 15 5 27 -1 27 -14z m-50 -17 c0
-15 -24 -32 -47 -32 -25 0 -29 10 -11 28 13 13 58 16 58 4z m158 -54 c-2 -17
-11 -24 -30 -26 -34 -4 -36 11 -6 32 31 22 40 20 36 -6z m-3159 -49 c33 -43
19 -47 -29 -9 -29 23 -38 35 -29 41 17 10 30 3 58 -32z m2847 19 c-3 -7 -9
-20 -12 -29 -4 -10 -14 -14 -33 -11 -16 2 -42 -3 -59 -12 -40 -21 -62 -21 -42
-1 14 13 125 64 143 65 5 0 6 -6 3 -12z m260 -64 c51 -13 21 -29 -84 -43 -29
-4 -55 -5 -57 -1 -6 10 88 60 103 55 8 -3 25 -8 38 -11z m-336 -2 c0 -5 -24
-21 -52 -37 -29 -15 -66 -38 -83 -50 -38 -27 -125 -75 -136 -75 -22 0 -5 30
29 53 53 34 158 87 175 87 8 0 20 7 27 15 13 16 40 20 40 7z m27 -39 c-9 -9
-19 -14 -23 -11 -10 10 6 28 24 28 15 0 15 -1 -1 -17z m68 -13 c9 -15 -42 -43
-68 -36 -21 5 -48 -1 -129 -30 -22 -8 -38 -10 -38 -4 0 16 82 53 125 56 23 2
52 8 65 13 32 13 38 13 45 1z m255 -9 c0 -11 -7 -13 -113 -36 -43 -9 -81 -14
-85 -11 -13 14 21 30 85 41 87 16 113 17 113 6z m-1422 -830 c46 -36 158 -85
232 -100 30 -6 115 -20 189 -31 118 -17 153 -19 295 -10 200 12 202 12 191 1
-34 -31 -496 -77 -595 -59 -95 17 -277 120 -339 190 -40 45 -25 50 27 9z
m1542 -261 c3 0 -2 -5 -10 -10 -31 -20 -116 -10 -95 11 3 4 76 3 105 -1z
m-176 -6 c30 -12 16 -24 -28 -24 -48 0 -71 16 -34 23 38 7 46 7 62 1z m-160
-13 c4 -5 -29 -12 -71 -16 -43 -3 -87 -7 -98 -8 -11 -1 -21 3 -23 8 -5 18 182
33 192 16z"/>
<path d="M9898 5801 c-67 -43 -138 -112 -138 -134 0 -4 37 24 83 63 45 40 99
81 120 91 20 11 37 22 37 24 0 15 -36 -1 -102 -44z"/>
<path d="M10003 5756 c-34 -13 -83 -37 -110 -54 -26 -17 -65 -38 -86 -47 -20
-8 -37 -20 -37 -25 0 -17 13 -12 105 41 103 59 125 69 183 77 23 4 44 12 45
17 4 18 -37 15 -100 -9z"/>
<path d="M10140 5731 c0 -18 18 -21 30 -6 10 13 9 15 -9 15 -11 0 -21 -4 -21
-9z"/>
<path d="M9972 5644 c-12 -8 -50 -24 -84 -35 -195 -64 -265 -165 -288 -415 -5
-66 -21 -159 -34 -209 -13 -49 -29 -121 -36 -160 -16 -91 -17 -95 -30 -95 -5
0 -10 15 -10 33 0 18 -14 85 -30 150 -21 79 -28 123 -22 135 5 9 12 40 16 67
10 74 27 147 41 175 7 14 21 42 31 64 11 21 49 66 87 101 37 34 67 65 67 68 0
15 -46 -11 -89 -49 -55 -50 -124 -158 -141 -222 -6 -24 -17 -45 -24 -48 -35
-13 -26 -178 16 -317 17 -57 19 -85 15 -180 -3 -62 -7 -122 -9 -134 -6 -46 17
-22 28 29 6 29 20 71 32 93 12 22 32 81 46 130 14 50 35 117 47 150 14 41 24
101 30 191 9 139 33 238 71 294 25 36 121 94 234 141 42 18 74 37 74 45 0 18
-10 18 -38 -2z"/>
<path d="M9372 4698 c2 -15 11 -24 26 -26 24 -4 30 16 10 36 -20 20 -40 14
-36 -10z"/>
<path d="M9290 4454 c-11 -13 -10 -19 7 -36 26 -26 53 -18 53 16 0 35 -38 48
-60 20z"/>
<path d="M9224 4225 c-10 -26 5 -67 24 -63 20 4 42 45 35 64 -7 19 -52 18 -59
-1z"/>
<path d="M9191 3956 c-16 -19 -3 -46 23 -46 40 0 66 12 66 30 0 30 -67 42 -89
16z"/>
<path d="M7977 4384 c-14 -15 -6 -34 14 -34 14 0 19 5 17 17 -3 18 -20 27 -31
17z"/>
<path d="M7590 1627 c8 -8 33 -18 55 -24 49 -13 204 -8 219 7 7 7 -14 9 -75 4
-64 -5 -98 -3 -141 10 -68 19 -77 20 -58 3z"/>
<path d="M7923 1630 c-34 -14 -28 -20 17 -20 29 0 40 4 40 15 0 17 -23 19 -57
5z"/>
<path d="M7828 1545 c-1 -2 -52 -6 -112 -9 -59 -2 -111 -7 -113 -10 -14 -14
32 -15 142 -3 66 7 113 16 103 19 -9 4 -18 5 -20 3z"/>
<path d="M7150 2172 c0 -8 106 -25 230 -38 33 -4 33 -4 10 7 -57 25 -240 49
-240 31z"/>
<path d="M9800 7181 c0 -6 5 -13 10 -16 6 -3 10 1 10 9 0 9 -4 16 -10 16 -5 0
-10 -4 -10 -9z"/>
<path d="M9944 7104 c-13 -109 14 -330 36 -294 5 7 3 25 -3 39 -7 16 -11 84
-11 169 1 146 -9 185 -22 86z"/>
<path d="M10034 7095 c-17 -41 -18 -80 -3 -126 20 -59 24 -51 25 57 0 57 -1
104 -3 104 -2 0 -11 -16 -19 -35z"/>
<path d="M9881 7075 c-17 -62 18 -280 42 -256 5 5 3 37 -8 82 -9 40 -15 102
-14 136 3 74 -5 90 -20 38z"/>
<path d="M9800 7058 c0 -53 21 -158 32 -158 11 0 10 19 -4 117 -13 88 -28 111
-28 41z"/>
<path d="M10066 6709 c-72 -213 -109 -277 -167 -292 -21 -6 -27 21 -8 40 6 6
8 16 5 21 -9 15 -41 3 -66 -23 -21 -22 -21 -24 -6 -54 9 -17 23 -31 31 -31 28
0 123 61 149 95 24 31 29 33 56 23 17 -5 30 -13 31 -16 10 -123 19 -160 42
-182 12 -11 74 -56 137 -99 l115 -78 3 -48 2 -49 -32 30 c-18 16 -66 60 -105
97 -40 36 -86 73 -102 82 -47 24 -46 0 1 -34 43 -30 184 -167 333 -324 44 -47
83 -85 88 -86 18 -3 4 28 -29 60 -74 70 -146 224 -115 243 6 4 39 -8 73 -26
66 -36 86 -67 87 -135 1 -18 6 -33 12 -33 18 0 3 128 -20 181 -24 54 -53 82
-156 149 -121 80 -168 129 -189 197 -6 20 -5 21 35 12 30 -7 61 -28 112 -74
39 -36 77 -65 84 -65 22 0 14 15 -17 34 -37 21 -64 61 -56 81 3 10 19 15 46
15 23 0 54 7 70 15 16 8 53 21 82 29 60 15 76 36 27 36 -67 0 -219 46 -235 71
-11 19 4 21 36 4 24 -13 31 -13 28 -3 -5 16 -107 70 -119 62 -5 -3 -3 -14 3
-24 10 -15 10 -22 0 -32 -9 -9 -17 -7 -36 11 -14 13 -26 18 -30 12 -9 -13 52
-61 106 -82 24 -10 62 -18 85 -18 72 -1 93 -18 48 -39 -46 -21 -98 -15 -142
17 -51 37 -103 64 -110 57 -3 -3 2 -17 11 -30 23 -37 20 -46 -17 -46 -20 0
-56 14 -91 35 -32 19 -72 35 -88 35 -30 0 -30 0 -24 42 4 23 16 62 27 87 13
29 16 48 10 54 -7 7 -12 6 -15 -4z m101 -289 c15 -29 17 -90 4 -90 -20 0 -51
54 -51 87 0 27 4 34 17 31 10 -2 23 -14 30 -28z m57 -34 c9 -30 32 -75 51
-100 19 -25 31 -46 27 -46 -19 0 -82 53 -87 73 -17 75 -21 103 -18 115 7 20
11 15 27 -42z m176 -201 c18 -22 5 -30 -19 -13 -12 8 -18 18 -14 21 10 11 19
8 33 -8z"/>
<path d="M9000 6667 c-8 -7 -34 -22 -58 -32 -42 -18 -43 -18 -91 5 -56 26 -78
22 -87 -15 -7 -27 9 -55 32 -55 7 0 21 -12 31 -27 18 -29 33 -43 45 -43 15 0
39 34 33 48 -3 8 1 24 9 36 15 24 83 62 92 53 10 -9 -23 -97 -50 -132 -27 -35
-90 -59 -130 -49 -30 7 -43 -11 -17 -25 28 -16 46 -14 101 10 66 28 115 100
125 182 7 60 -3 73 -35 44z m-155 -58 c-8 -12 -32 -12 -40 1 -11 18 5 31 26
20 11 -6 17 -15 14 -21z"/>
<path d="M1910 6600 c-14 -4 -41 -9 -60 -9 -22 -1 -62 -17 -107 -45 -46 -27
-95 -48 -134 -55 -53 -11 -67 -19 -103 -58 -22 -25 -58 -54 -78 -64 -21 -11
-38 -24 -38 -29 0 -5 -29 -38 -65 -73 -63 -62 -95 -115 -95 -157 0 -30 11 -25
64 29 27 27 59 52 72 55 17 5 24 14 24 30 0 26 107 126 135 126 9 0 30 14 47
30 16 17 33 28 38 25 15 -9 38 6 44 30 5 21 10 23 41 18 23 -4 43 0 59 11 14
9 32 16 39 16 8 0 27 10 43 23 41 33 76 45 104 36 14 -4 77 -15 140 -24 74
-11 152 -31 219 -56 57 -22 112 -39 122 -39 10 0 21 -5 24 -10 4 -6 27 -20 52
-32 29 -14 53 -35 70 -62 14 -23 39 -55 56 -73 29 -31 30 -36 31 -125 1 -79 6
-104 31 -163 22 -53 29 -86 30 -135 l0 -65 -32 -3 c-22 -2 -37 3 -51 18 -28
30 -48 16 -23 -16 18 -23 18 -29 6 -83 -21 -86 -34 -111 -61 -111 -19 0 -33
16 -69 78 -25 42 -49 89 -52 105 -3 15 -11 27 -18 27 -27 0 -34 -70 -10 -90 8
-7 24 -31 34 -54 10 -23 33 -59 51 -79 31 -36 32 -40 22 -75 -7 -21 -28 -58
-49 -82 -27 -32 -39 -56 -43 -88 l-5 -45 -73 -17 c-40 -10 -87 -24 -105 -32
-18 -9 -61 -30 -97 -47 -36 -17 -109 -41 -162 -53 l-97 -22 -25 23 c-16 15
-33 22 -45 18 -15 -4 -22 4 -35 38 -33 85 -155 190 -250 216 -49 13 -96 39
-96 54 0 7 41 9 118 7 162 -4 264 -18 314 -43 49 -25 164 -128 190 -171 21
-33 38 -36 38 -8 0 12 -29 51 -70 93 -69 70 -69 72 -62 112 12 66 7 175 -9
190 -12 12 -22 10 -64 -9 -27 -13 -81 -34 -120 -46 -38 -13 -83 -30 -100 -38
-40 -21 -184 -18 -226 4 -36 18 -76 15 -70 -6 2 -8 7 -33 10 -55 7 -43 23 -57
156 -136 89 -53 131 -92 161 -151 26 -50 55 -162 49 -181 -6 -16 -24 -401 -35
-737 -4 -151 -14 -297 -21 -325 -32 -129 -115 -253 -211 -315 l-61 -40 -113 0
c-79 0 -115 4 -121 13 -29 45 -100 253 -113 331 -8 49 -6 55 41 149 28 54 73
139 101 190 112 201 172 339 212 482 9 33 25 78 36 100 45 94 80 178 80 191 0
7 -4 16 -10 19 -13 8 -116 -201 -145 -295 -63 -203 -244 -588 -343 -729 -24
-35 -65 -101 -91 -147 -103 -186 -374 -526 -388 -486 -8 20 -19 14 -78 -43
-69 -68 -98 -72 -143 -21 -16 19 -35 51 -42 71 -12 35 -10 39 26 93 22 32 55
75 75 97 20 22 56 71 79 110 64 105 156 240 190 279 17 19 41 67 55 110 14 42
36 98 49 124 13 26 36 85 51 132 15 47 54 139 87 205 33 66 93 199 134 295 75
176 161 332 211 383 60 60 95 88 118 97 14 5 25 17 25 25 0 21 -29 6 -99 -53
-66 -56 -124 -134 -197 -263 -30 -55 -59 -99 -64 -99 -36 0 -38 190 -4 315 25
92 100 218 174 292 90 90 117 133 85 133 -8 0 -15 4 -15 9 0 5 7 14 15 21 8 7
15 22 15 34 0 12 7 31 15 42 16 23 11 36 -11 27 -22 -8 -16 11 12 38 18 17 24
31 20 49 -3 17 3 33 20 51 29 31 45 99 22 99 -8 0 -29 -16 -48 -35 -39 -40
-60 -46 -36 -10 18 27 21 45 8 45 -16 0 -64 -100 -54 -113 5 -7 12 -25 16 -40
6 -24 1 -35 -28 -67 -39 -43 -58 -119 -37 -144 20 -24 1 -87 -46 -151 -90
-125 -114 -162 -140 -215 -14 -30 -36 -68 -48 -85 -12 -16 -28 -46 -35 -65 -7
-19 -21 -44 -30 -55 -22 -26 -114 -242 -135 -319 -9 -33 -34 -103 -55 -155
-21 -53 -52 -138 -69 -188 -35 -107 -103 -248 -159 -331 -22 -31 -57 -89 -80
-129 -22 -40 -66 -104 -97 -142 -31 -39 -55 -76 -53 -83 5 -14 80 77 146 180
26 40 75 112 109 160 103 144 122 188 255 587 100 298 155 425 184 425 10 0
14 -13 14 -47 0 -27 6 -87 14 -135 14 -87 14 -87 -14 -160 -15 -40 -56 -134
-90 -208 -34 -74 -91 -209 -126 -300 -36 -91 -74 -187 -84 -214 -29 -72 -232
-391 -293 -460 -47 -52 -55 -58 -74 -48 -26 14 -83 99 -83 124 0 10 7 30 16
43 23 35 0 33 -36 -3 -20 -20 -30 -44 -36 -78 -5 -38 -17 -61 -53 -104 -90
-106 -112 -139 -109 -162 2 -19 17 -5 82 80 43 56 87 107 97 113 23 12 43 2
82 -38 l27 -29 -39 -55 c-39 -55 -131 -129 -209 -168 -54 -27 -61 -60 -7 -34
19 9 38 14 41 10 3 -3 -12 -32 -35 -64 -40 -58 -41 -60 -40 -143 0 -61 3 -79
9 -63 18 45 108 169 150 207 23 20 39 40 35 44 -9 9 -94 -39 -115 -66 -11 -13
-21 -18 -25 -13 -11 18 171 231 197 231 10 0 18 -4 18 -8 0 -4 18 -36 41 -71
l40 -62 -42 -65 c-56 -86 -164 -173 -281 -226 -21 -9 -28 -20 -28 -40 0 -34
10 -35 47 -4 15 13 44 31 63 41 19 10 48 28 64 39 48 34 171 154 185 180 7 13
43 43 80 67 132 86 315 298 506 587 26 39 51 72 55 72 17 0 31 -31 44 -103 8
-41 27 -106 42 -144 15 -37 29 -90 30 -118 4 -60 20 -151 45 -260 10 -44 19
-112 19 -152 0 -69 1 -73 43 -124 23 -28 50 -62 59 -73 9 -12 24 -52 32 -89
15 -66 15 -68 -9 -130 -13 -34 -43 -109 -66 -167 -22 -58 -49 -127 -59 -155
-10 -27 -44 -115 -75 -195 -31 -80 -68 -174 -81 -210 -13 -36 -28 -72 -33 -81
-21 -37 -53 -182 -48 -216 5 -28 -1 -48 -31 -103 l-37 -68 21 -29 c11 -15 45
-40 75 -54 30 -15 64 -37 76 -50 29 -33 121 -183 148 -245 18 -40 35 -60 77
-88 31 -20 69 -41 87 -47 17 -6 31 -15 31 -21 0 -6 -8 -7 -17 -3 -10 4 -155
10 -323 14 -168 4 -310 10 -316 13 -12 8 -41 -8 -32 -18 4 -3 27 -9 53 -11 43
-5 64 -23 28 -23 -10 -1 -29 -7 -43 -15 -21 -11 -22 -15 -8 -20 9 -4 33 -2 54
4 59 16 359 27 350 13 -4 -7 -16 -12 -26 -12 -11 0 -45 -7 -77 -15 -31 -8 -77
-15 -100 -15 -33 0 -43 -4 -43 -16 0 -11 5 -14 17 -9 10 4 137 9 283 11 146 2
282 6 302 9 20 4 88 1 151 -6 100 -10 119 -10 163 5 27 9 74 16 104 15 30 0
80 2 110 5 30 3 126 8 213 11 121 4 158 2 155 -7 -3 -7 -26 -17 -53 -23 -56
-12 -73 -35 -26 -35 17 0 73 9 124 20 50 11 112 20 137 21 25 1 99 8 166 15
112 12 424 18 424 9 0 -3 -14 -12 -31 -21 -27 -14 -30 -18 -17 -30 12 -12 28
-12 114 1 55 8 138 16 185 17 77 1 84 0 84 -18 0 -24 35 -28 163 -16 99 8 105
7 115 -22 7 -17 15 -17 100 -11 239 20 781 8 905 -19 46 -11 41 11 -5 23 -21
5 -81 15 -133 21 -66 8 -101 17 -115 29 -16 15 -48 21 -160 29 -77 6 -160 16
-185 22 -25 5 -146 17 -270 25 -124 8 -281 21 -350 29 -69 8 -163 15 -210 16
-116 0 -133 6 -126 39 3 14 20 108 37 209 29 171 30 184 15 201 -14 16 -16 33
-10 125 7 105 14 122 42 94 9 -9 16 -7 32 7 11 10 20 22 20 28 0 17 101 261
129 312 16 28 43 77 61 110 19 33 52 85 75 115 61 82 96 149 89 174 -3 15 16
67 59 157 36 74 86 198 111 275 26 78 55 149 65 158 10 9 28 49 41 89 12 39
31 90 41 112 24 54 46 130 53 186 7 62 41 137 113 248 32 50 105 164 163 254
124 192 138 220 179 352 61 199 80 367 45 420 -14 22 -14 25 5 44 12 12 21 33
21 49 l-1 27 -24 -27 c-20 -24 -45 -37 -45 -25 0 11 51 149 65 177 23 45 35
25 35 -63 0 -44 4 -67 11 -65 15 5 68 128 69 158 0 14 -9 68 -20 119 -12 52
-19 98 -17 104 1 5 19 -14 37 -44 33 -50 35 -60 38 -151 2 -54 8 -98 13 -98
43 0 56 163 20 245 -11 25 -47 73 -80 106 -84 87 -95 113 -98 238 -1 57 -7
117 -14 132 -6 16 -8 40 -5 54 5 18 2 27 -9 31 -23 9 -18 22 18 40 40 21 40
21 33 33 -4 6 -19 4 -42 -5 -63 -26 -55 2 12 42 11 7 16 15 12 19 -10 11 -58
11 -83 0 -11 -4 -17 -5 -13 -1 3 4 0 27 -8 51 -15 44 -31 54 -84 55 -14 0 -72
26 -130 56 -118 63 -194 85 -255 72 -27 -6 -60 -4 -105 6 -76 18 -170 6 -295
-36 -16 -5 -53 -15 -81 -22 -29 -7 -75 -27 -103 -44 -28 -18 -55 -32 -59 -32
-4 0 -37 -17 -73 -38 l-66 -39 -54 17 c-30 10 -60 15 -66 13 -18 -7 -16 -48 2
-63 24 -20 18 -27 -32 -36 -36 -7 -51 -15 -60 -34 -15 -30 -4 -37 35 -22 15 6
42 14 60 17 40 8 42 -6 5 -54 -63 -81 -133 -195 -152 -244 -10 -29 -35 -85
-55 -126 -29 -61 -44 -80 -80 -103 -25 -15 -50 -38 -57 -50 -7 -13 -44 -59
-84 -104 -155 -174 -200 -271 -245 -520 -11 -66 -30 -148 -41 -184 -17 -52
-23 -109 -30 -280 -5 -118 -13 -294 -18 -390 -4 -96 -6 -180 -4 -186 2 -7 0
-15 -6 -19 -6 -3 -11 1 -11 9 0 9 -4 16 -10 16 -6 0 -10 -39 -10 -98 0 -54 -9
-163 -20 -242 -24 -171 -26 -384 -5 -483 43 -204 164 -319 353 -334 34 -3 64
-9 67 -13 5 -8 -30 -127 -45 -153 -17 -29 -98 -286 -108 -344 -10 -55 -3 -73
30 -73 23 0 24 -37 1 -62 -18 -20 -19 -18 37 -113 16 -27 29 -64 29 -81 1 -19
13 -46 30 -68 34 -42 34 -42 61 -238 11 -81 25 -158 32 -173 9 -20 9 -28 0
-37 -18 -18 -363 -27 -602 -16 -158 7 -206 6 -255 -6 -92 -22 -208 -30 -235
-16 -18 10 -24 9 -31 -1 -6 -9 -9 -10 -9 -2 0 6 -18 14 -40 18 -46 8 -50 17
-15 33 32 15 25 31 -30 64 -58 35 -74 70 -126 278 -40 157 -44 167 -82 202
-38 35 -39 38 -27 72 9 29 19 37 59 51 52 17 95 57 117 110 22 54 0 49 -45
-10 -36 -47 -46 -55 -74 -55 -25 0 -42 9 -70 38 -20 21 -37 43 -37 49 0 10 51
123 69 153 5 8 17 33 26 55 44 102 185 390 348 711 95 188 121 269 114 365 -3
54 -12 89 -31 125 -26 51 -52 157 -41 173 3 5 1 12 -4 15 -5 4 -15 -10 -21
-30 -13 -39 -7 -92 17 -137 23 -46 53 -147 53 -181 0 -65 -31 -158 -94 -282
-101 -201 -276 -564 -296 -614 -10 -25 -59 -126 -109 -226 -50 -100 -91 -186
-91 -192 0 -24 -45 -42 -107 -42 -55 0 -67 4 -94 28 l-32 28 13 55 c16 71 69
238 83 264 6 11 23 54 38 95 14 41 42 118 62 170 19 52 63 180 97 283 74 229
74 248 -1 397 -59 118 -93 273 -87 407 3 78 5 87 31 109 18 15 41 24 61 24 19
0 76 11 128 25 52 13 103 22 114 19 42 -11 408 140 449 186 28 31 10 36 -32 8
-38 -24 -187 -88 -253 -107 -50 -15 -148 -22 -154 -12 -3 5 10 31 29 57 48 69
90 143 103 184 20 61 42 237 42 332 0 51 5 143 10 204 5 61 15 203 21 315 6
112 14 236 18 274 l6 70 51 -3 c28 -2 77 3 110 12 32 8 83 18 113 21 30 3 62
10 73 16 26 14 35 5 53 -54 22 -72 12 -230 -26 -424 -17 -85 -36 -232 -44
-335 -8 -100 -24 -237 -36 -303 -18 -104 -20 -142 -15 -279 6 -130 4 -173 -11
-242 -14 -70 -15 -92 -5 -136 37 -163 72 -358 72 -400 0 -54 -14 -94 -53 -151
-14 -20 -49 -82 -77 -138 -28 -55 -91 -163 -138 -239 -143 -229 -206 -333
-224 -370 -10 -19 -34 -57 -54 -85 -27 -37 -34 -56 -30 -76 3 -15 1 -41 -4
-58 -5 -17 -6 -31 -2 -31 10 0 62 97 62 116 0 20 36 83 120 209 86 129 246
396 302 505 25 47 64 120 87 163 l43 78 -6 82 c-12 174 -40 327 -71 386 -14
29 -14 36 6 113 16 63 21 105 18 173 -6 172 -1 291 15 395 10 58 26 184 37
280 24 210 36 290 50 327 35 91 52 449 24 502 -14 28 -14 29 25 55 22 14 47
26 55 26 25 0 145 32 146 39 1 3 3 26 4 49 2 29 15 64 39 102 20 32 36 63 36
69 0 6 19 32 42 57 28 31 49 67 64 112 20 58 27 68 51 72 61 11 72 124 23 247
-16 41 -30 79 -30 84 0 5 15 22 33 38 l32 30 -20 37 c-11 21 -38 58 -61 83
-22 25 -57 73 -77 106 -20 33 -51 72 -69 86 -33 26 -121 69 -141 69 -6 0 -39
11 -73 25 -35 14 -100 32 -146 41 -46 9 -97 24 -114 35 -33 20 -97 24 -144 9z
m790 -474 c0 -24 -17 -28 -23 -6 -3 13 0 20 9 20 8 0 14 -6 14 -14z m1332
-183 c139 -4 147 -5 150 -24 2 -15 20 -28 60 -44 32 -13 60 -19 63 -14 19 30
98 -18 107 -66 2 -11 14 -25 27 -31 33 -17 110 -160 111 -206 0 -20 5 -49 11
-65 7 -20 7 -39 -1 -69 -11 -37 -9 -48 15 -108 29 -72 28 -103 -1 -42 -20 40
-39 47 -49 16 -9 -27 10 -119 36 -181 21 -48 22 -57 11 -128 -6 -42 -31 -129
-56 -194 -47 -124 -112 -231 -291 -482 -52 -71 -106 -155 -121 -185 -39 -80
-125 -174 -186 -204 -55 -28 -117 -33 -165 -15 -44 16 -210 147 -232 182 -27
44 -122 126 -217 186 -92 59 -162 135 -200 217 -24 52 -28 71 -27 154 0 52 2
108 4 124 3 24 -1 32 -26 46 -16 9 -45 36 -63 59 l-32 43 20 25 c11 14 20 32
20 39 0 20 -27 17 -39 -3 -8 -15 -10 -14 -16 10 -4 16 -3 40 4 54 11 24 13 24
30 9 21 -19 31 -12 31 22 0 14 10 40 21 59 20 32 20 35 4 47 -17 12 -17 16 -3
52 8 21 18 57 22 79 11 60 71 179 98 194 13 7 39 38 58 69 18 31 47 72 63 91
16 19 35 48 43 65 7 17 37 55 66 83 47 47 62 55 133 73 44 11 96 26 115 32 70
23 196 46 225 41 17 -3 96 -8 177 -10z m-742 -183 c0 -5 -4 -10 -10 -10 -5 0
-10 5 -10 10 0 6 5 10 10 10 6 0 10 -4 10 -10z m-1382 -259 c2 -41 -1 -78 -7
-84 -6 -6 -31 -1 -68 14 -47 18 -83 23 -198 27 -147 4 -215 22 -85 22 57 0 92
7 159 31 47 17 93 37 101 44 18 15 47 24 75 22 18 -2 20 -10 23 -76z m1216 27
c-33 -53 -31 -51 -38 -40 -6 11 41 82 54 82 6 0 -2 -19 -16 -42z m-116 -226
c-21 -59 -38 -80 -38 -47 0 19 50 119 56 113 2 -3 -6 -33 -18 -66z m1571 -98
c14 -32 3 -54 -16 -29 -14 21 -18 55 -5 55 5 0 14 -12 21 -26z m-1609 -73 c0
-23 -45 -79 -55 -69 -8 8 32 88 45 88 6 0 10 -9 10 -19z m-96 -18 c-13 -52
-22 -68 -74 -127 -40 -45 -50 -64 -46 -82 3 -12 -3 -50 -13 -83 -11 -34 -15
-64 -10 -67 5 -3 11 1 13 8 3 7 10 31 16 53 21 70 52 135 64 135 6 0 20 -13
29 -30 10 -16 24 -30 32 -30 11 0 14 -19 14 -82 0 -109 -8 -178 -21 -178 -7 0
-9 40 -4 123 5 101 4 119 -7 105 -9 -11 -12 -54 -12 -150 1 -73 -3 -142 -9
-153 -12 -25 -16 -114 -5 -121 5 -3 18 0 29 6 17 9 20 21 20 70 0 32 4 61 9
65 5 3 17 29 25 58 20 66 61 127 86 127 25 0 25 -12 0 -35 -10 -9 -33 -53 -50
-97 -23 -63 -30 -95 -30 -153 0 -67 12 -104 23 -73 2 8 10 1 17 -14 20 -43 27
-33 22 32 -4 61 13 150 29 150 5 0 9 -4 9 -10 0 -5 9 -33 20 -63 25 -67 123
-185 193 -231 75 -50 163 -131 207 -191 25 -34 73 -77 133 -118 l94 -66 -4
-73 c-3 -40 -16 -115 -30 -166 -13 -51 -23 -100 -20 -110 2 -10 9 2 16 28 6
25 23 79 36 121 14 42 28 96 31 120 l6 45 92 0 c71 0 101 4 137 21 94 43 186
153 231 277 19 51 39 79 128 171 141 147 160 171 160 207 0 32 48 110 65 104
47 -14 43 -158 -9 -361 -38 -147 -83 -252 -158 -364 -24 -36 -65 -101 -91
-145 -26 -45 -61 -98 -77 -118 -17 -20 -30 -40 -30 -45 0 -4 -22 -45 -48 -89
-32 -53 -55 -108 -66 -155 -10 -41 -29 -98 -42 -127 l-25 -53 -65 60 c-66 63
-129 91 -201 91 -52 0 -42 27 16 44 83 25 137 29 189 16 42 -11 51 -18 61 -47
7 -18 17 -33 22 -33 14 0 2 38 -22 72 -25 36 -24 39 12 84 28 36 72 104 176
274 45 74 124 249 153 340 10 30 21 63 25 73 4 9 3 17 -3 17 -5 0 -31 -55 -58
-122 -27 -68 -63 -145 -81 -171 -18 -27 -33 -52 -33 -56 0 -5 -9 -16 -20 -26
-11 -10 -20 -21 -20 -25 0 -11 -102 -173 -163 -257 -45 -64 -55 -73 -83 -73
-50 0 -176 -35 -218 -61 -21 -13 -51 -36 -65 -50 -21 -21 -40 -27 -97 -33
l-72 -7 -10 31 c-6 17 -21 43 -32 57 -15 20 -19 34 -14 60 5 25 2 39 -12 54
-25 28 -121 76 -170 85 -21 4 -54 13 -72 21 -19 8 -63 13 -106 12 -41 -1 -79
2 -85 5 -17 11 -13 70 11 165 19 75 22 113 22 298 1 157 -2 215 -11 224 -15
15 -14 21 -18 -147 -1 -76 -7 -123 -17 -145 -9 -19 -19 -68 -23 -109 -4 -41
-13 -103 -21 -138 -20 -88 -18 -119 11 -181 l26 -54 -57 -55 c-36 -35 -52 -58
-46 -64 6 -6 38 16 88 61 87 77 119 90 187 73 23 -6 58 -14 77 -18 75 -13 133
-51 183 -121 42 -59 47 -72 46 -117 -1 -54 -28 -147 -46 -153 -6 -2 -12 29
-16 78 -4 46 -11 87 -17 93 -16 16 -22 -19 -10 -62 13 -51 3 -116 -21 -138
-21 -19 -24 -15 -33 49 -6 47 -54 151 -55 121 -1 -12 6 -38 14 -57 21 -52 20
-87 -4 -87 -25 0 -78 45 -87 73 -7 24 -53 77 -66 77 -15 0 -8 -24 14 -47 21
-23 21 -23 1 -23 -47 0 -82 21 -89 53 -5 24 -3 34 11 42 10 5 34 21 54 34 67
45 119 61 192 61 38 0 69 4 69 10 0 17 -42 21 -115 11 -55 -7 -89 -19 -154
-55 -93 -51 -150 -67 -319 -90 -137 -18 -191 -7 -240 48 -27 31 -31 43 -36
128 -10 150 10 531 33 627 24 97 45 168 62 208 23 53 23 63 5 63 -7 0 -21 -21
-31 -47 -10 -27 -22 -52 -26 -58 -16 -16 -9 79 6 99 8 11 15 29 15 40 0 12 16
66 36 120 26 75 34 109 29 136 -4 26 1 56 20 105 29 78 48 111 124 215 119
164 181 222 165 153z m1770 -35 c16 -40 27 -108 18 -108 -8 0 -52 109 -52 128
0 24 21 11 34 -20z m-1739 -109 c-10 -15 -25 -10 -19 6 4 8 10 12 15 9 5 -3 7
-10 4 -15z m69 -142 c8 -13 7 -24 -4 -44 -25 -44 -40 -40 -40 10 0 60 19 74
44 34z m46 -179 c0 -13 -8 -37 -19 -53 -10 -17 -21 -52 -25 -79 -10 -62 -16
-77 -28 -70 -14 9 -2 77 29 157 27 68 43 85 43 45z m-85 -1068 c3 -5 -1 -10
-9 -10 -8 0 -18 5 -21 10 -3 6 1 10 9 10 8 0 18 -4 21 -10z m-498 -301 c7 -7
9 -25 6 -40 -5 -27 -4 -28 28 -24 19 2 88 7 154 10 66 3 142 12 169 20 70 21
97 19 142 -14 21 -16 64 -38 94 -50 83 -34 149 -70 206 -112 59 -45 69 -47
101 -17 39 37 45 13 23 -102 -31 -158 -177 -581 -228 -660 -9 -14 -39 -92 -68
-175 -28 -82 -62 -175 -74 -205 -12 -30 -33 -84 -47 -120 -13 -36 -30 -71 -37
-78 -16 -17 -110 -18 -148 -3 -16 6 -28 17 -28 25 0 8 -7 19 -15 24 -14 7 -12
22 10 122 14 63 32 140 40 170 8 30 21 91 29 135 18 92 47 201 64 231 6 11 20
72 32 135 34 181 69 300 101 343 32 45 35 56 15 56 -15 0 -54 -56 -124 -175
-54 -92 -175 -201 -282 -255 -44 -22 -91 -40 -105 -40 -39 0 -65 51 -65 128 0
57 -2 63 -25 72 -14 5 -25 17 -25 27 0 9 -5 80 -11 156 -11 128 -10 151 11
283 22 141 30 160 57 133z m1231 -14 c29 -9 68 -29 86 -46 23 -19 37 -26 41
-18 4 6 2 16 -4 22 -18 18 -13 27 13 27 31 0 45 -14 91 -91 33 -53 36 -64 26
-85 -6 -14 -11 -37 -11 -52 0 -15 -11 -50 -24 -78 -13 -28 -31 -78 -40 -110
-10 -32 -109 -243 -221 -469 -112 -225 -219 -450 -239 -498 -58 -141 -145
-216 -225 -195 -52 14 -91 40 -91 59 0 9 14 49 30 89 17 40 30 81 30 92 0 10
6 31 14 47 8 15 26 74 39 132 14 57 29 118 35 134 22 64 83 260 82 268 0 4 -4
7 -9 7 -12 0 -46 -82 -65 -157 -14 -58 -110 -263 -122 -263 -18 0 34 147 103
290 126 261 213 586 213 791 0 49 4 80 13 87 13 11 103 29 153 31 17 0 54 -6
82 -14z m-812 -654 c-7 -56 -59 -214 -81 -248 -9 -12 -23 -23 -31 -23 -13 0
-14 3 -5 14 9 11 3 15 -33 20 -33 5 -43 11 -42 24 1 13 -9 18 -47 20 -56 4
-57 16 -7 50 19 12 77 61 129 107 52 47 102 85 109 85 12 0 13 -10 8 -49z
m234 -741 c0 -5 -2 -10 -4 -10 -3 0 -8 5 -11 10 -3 6 -1 10 4 10 6 0 11 -4 11
-10z m-1774 -205 l35 -14 -17 -38 c-28 -64 -27 -76 5 -116 36 -46 42 -83 39
-232 -3 -91 0 -116 15 -143 10 -19 16 -36 13 -39 -13 -13 -66 128 -81 212 -20
117 -43 201 -66 247 -23 45 -24 70 -4 108 18 35 16 34 61 15z m1424 -10 c32
-19 92 -19 135 -1 41 17 48 10 39 -38 -5 -28 -14 -39 -46 -55 -54 -26 -102
-13 -166 48 -51 46 -22 81 38 46z m310 -40 c0 -42 -5 -60 -20 -75 -21 -21 -20
-31 11 -65 13 -15 22 -58 34 -170 9 -82 21 -168 26 -190 4 -22 9 -59 9 -82 l0
-43 -71 0 c-111 0 -126 17 -93 110 14 39 15 78 10 278 -6 193 -5 232 7 232 8
0 26 14 40 30 15 17 32 30 37 30 6 0 10 -25 10 -55z m115 13 c22 -1 39 -8 44
-17 9 -17 -1 -170 -13 -189 -12 -20 -28 -14 -68 25 -36 35 -38 40 -38 103 0
62 13 96 31 84 4 -2 24 -5 44 -6z m-1988 -36 c14 -9 75 -162 64 -162 -3 0 -15
6 -26 14 -11 7 -38 19 -60 26 -58 18 -138 60 -152 79 -9 13 -8 20 4 34 13 13
32 17 87 17 39 0 76 -4 83 -8z m328 -550 l39 -43 -37 17 c-31 15 -57 52 -57
82 0 6 0 7 55 -56z m1916 -102 c11 0 19 -4 19 -10 0 -11 -90 -14 -139 -4 -55
11 -22 27 42 20 33 -3 68 -6 78 -6z m399 -40 c-20 -13 -180 -13 -180 0 0 6 39
10 98 10 66 0 92 -3 82 -10z m300 -30 c0 -5 -4 -10 -9 -10 -6 0 -13 5 -16 10
-3 6 1 10 9 10 9 0 16 -4 16 -10z m390 -20 c0 -5 -12 -10 -27 -9 -25 0 -26 1
-8 9 27 12 35 12 35 0z"/>
<path d="M4217 5823 c-4 -3 -7 -21 -7 -40 0 -42 24 -54 52 -25 20 20 20 22 4
46 -16 25 -36 33 -49 19z"/>
<path d="M4260 5660 c-11 -11 -20 -31 -20 -45 0 -31 59 -145 75 -145 28 0 34
25 20 81 -8 29 -15 66 -15 81 0 39 -33 55 -60 28z"/>
<path d="M4289 5381 c-57 -18 -179 -121 -179 -152 0 -30 19 -22 59 23 32 35
45 43 87 48 43 5 52 3 76 -18 34 -32 52 -21 43 27 -8 43 -31 81 -48 80 -6 0
-24 -4 -38 -8z"/>
<path d="M3705 5327 c-27 -17 -55 -44 -62 -58 -7 -15 -29 -39 -48 -53 -44 -34
-69 -71 -59 -87 5 -9 13 -5 28 12 58 68 167 111 235 93 79 -21 95 26 31 88
-23 21 -49 38 -58 38 -9 0 -40 -15 -67 -33z"/>
<path d="M4250 5186 c-30 -12 -80 -37 -111 -55 -31 -17 -63 -29 -71 -26 -23 9
-37 -15 -59 -103 -16 -66 -18 -91 -11 -134 11 -58 -6 -200 -26 -220 -17 -17
-40 -2 -56 35 -16 41 -33 54 -49 38 -19 -19 -28 -12 -25 17 2 18 -2 27 -11 27
-21 0 -35 -29 -27 -58 5 -20 16 -29 46 -37 37 -10 85 -54 75 -70 -9 -14 -68
-20 -82 -9 -10 9 -16 8 -26 -4 -15 -21 -53 -12 -60 14 -13 48 -41 7 -68 -99
-9 -38 -10 -55 -2 -63 8 -8 17 1 31 34 24 54 54 66 212 91 165 26 172 24 162
-41 -6 -43 3 -64 24 -56 14 5 16 17 11 72 -3 36 -1 74 4 83 6 12 6 26 -2 40
-11 21 -12 21 -26 -14 -14 -34 -17 -36 -56 -35 -31 2 -43 7 -45 19 -2 9 8 65
23 123 14 59 24 114 21 123 -12 38 8 44 68 23 64 -22 98 -17 151 23 98 75 144
287 62 286 -12 -1 -47 -11 -77 -24z m65 -52 c18 -19 13 -78 -11 -126 -33 -65
-141 -110 -177 -73 -20 19 -22 51 -6 92 20 54 79 97 79 57 0 -28 42 -12 53 21
15 46 35 55 62 29z m-285 -164 c0 -5 -2 -10 -4 -10 -3 0 -8 5 -11 10 -3 6 -1
10 4 10 6 0 11 -4 11 -10z"/>
<path d="M4210 5024 c-14 -7 -33 -14 -42 -14 -10 0 -18 -4 -18 -10 0 -13 15
-13 61 0 43 12 74 41 43 39 -11 -1 -30 -7 -44 -15z"/>
<path d="M3719 5133 c-29 -3 -46 -15 -84 -60 -47 -54 -48 -57 -46 -116 2 -56
5 -64 34 -88 68 -58 130 -55 188 8 81 87 103 194 48 235 -27 21 -80 28 -140
21z m109 -130 c-3 -34 -8 -41 -47 -60 -30 -15 -53 -20 -75 -16 -21 4 -28 2
-21 -5 6 -6 24 -12 40 -14 41 -4 40 -32 -1 -36 -42 -4 -74 35 -74 89 0 37 2
39 43 49 23 6 50 13 60 16 12 4 17 0 17 -15 0 -29 18 -26 30 4 15 38 32 31 28
-12z"/>
<path d="M3970 4027 c0 -8 -29 -26 -63 -41 -64 -27 -77 -28 -171 -10 -52 10
-45 -14 10 -33 68 -25 155 -2 217 55 28 27 34 42 17 42 -5 0 -10 -6 -10 -13z"/>
<path d="M3572 3838 c-18 -18 -14 -46 7 -53 41 -13 77 29 45 52 -22 16 -37 16
-52 1z"/>
<path d="M3532 3641 c-20 -12 -10 -45 14 -49 29 -4 51 23 34 43 -14 17 -29 19
-48 6z"/>
<path d="M3591 3472 c-13 -30 -14 -31 -37 -15 -33 21 -77 4 -72 -29 8 -56 81
-47 111 15 10 20 17 42 15 49 -2 6 -10 -3 -17 -20z"/>
<path d="M1369 6175 c-37 -20 -139 -143 -139 -168 0 -18 4 -16 24 14 14 20 53
61 87 91 63 55 78 89 28 63z"/>
<path d="M2327 6152 c-25 -15 -47 -62 -47 -99 0 -22 18 -14 25 10 9 29 44 67
73 78 12 5 22 13 22 19 0 15 -41 10 -73 -8z"/>
<path d="M1335 6079 c-4 -6 -5 -13 -2 -16 7 -7 27 6 27 18 0 12 -17 12 -25 -2z"/>
<path d="M2374 6076 c-8 -21 3 -36 27 -36 15 0 20 6 17 22 -4 27 -35 37 -44
14z"/>
<path d="M2456 6045 c-3 -9 -26 -25 -51 -36 -42 -19 -60 -40 -32 -38 26 1 122
55 122 69 0 20 -31 25 -39 5z"/>
<path d="M1496 5970 c-38 -46 -43 -92 -17 -164 12 -33 29 -68 38 -78 29 -32
115 -17 128 22 10 30 2 33 -34 13 l-32 -18 -28 31 c-38 42 -52 135 -25 165 22
25 38 24 57 -3 24 -37 31 -12 7 26 -28 46 -59 47 -94 6z"/>
<path d="M4232 763 c-13 -2 -21 -10 -19 -16 2 -8 41 -12 113 -14 131 -2 517
-24 523 -29 2 -2 -4 -13 -14 -24 -18 -20 -17 -20 11 -20 16 0 40 6 54 13 15 8
34 11 45 6 27 -10 115 -11 115 -1 0 23 -131 51 -285 61 -327 22 -514 30 -543
24z"/>
<path d="M5192 749 c3 -8 31 -13 87 -15 103 -3 94 11 -13 21 -61 5 -77 4 -74
-6z"/>
<path d="M5385 730 c3 -5 18 -10 33 -10 21 0 24 2 12 10 -20 13 -53 13 -45 0z"/>
<path d="M6901 710 c-36 -3 -66 -9 -68 -15 -2 -6 66 -11 187 -13 105 -1 202
-7 216 -12 14 -6 55 -10 92 -10 212 0 533 -52 592 -95 35 -26 60 -32 60 -16 0
45 -303 137 -528 160 -95 10 -425 11 -551 1z"/>
<path d="M5450 655 c-8 -2 -32 -6 -53 -10 -73 -12 -27 -21 85 -18 134 5 169
10 147 24 -13 8 -144 11 -179 4z"/>
<path d="M11877 323 c-15 -14 -6 -40 18 -53 40 -21 51 1 17 33 -16 15 -31 24
-35 20z"/>
<path d="M11073 213 c21 -21 97 -31 252 -33 66 0 153 -5 193 -9 64 -8 77 -13
100 -39 24 -26 37 -31 112 -40 176 -22 296 -40 339 -51 51 -14 73 -3 55 27
-11 17 -33 21 -198 38 -46 5 -59 10 -63 25 -3 11 -17 22 -32 25 -14 3 -53 11
-86 19 -33 8 -94 19 -135 24 -71 10 -419 31 -511 31 -41 0 -42 -1 -26 -17z
m612 -63 c4 -6 -8 -10 -29 -10 -20 0 -36 5 -36 10 0 6 13 10 29 10 17 0 33 -4
36 -10z"/>
</g>
</svg>
