<?xml version="1.0" standalone="no"?>
<!DOCTYPE svg PUBLIC "-//W3C//DTD SVG 20010904//EN"
 "http://www.w3.org/TR/2001/REC-SVG-20010904/DTD/svg10.dtd">
<svg version="1.0" xmlns="http://www.w3.org/2000/svg"
 width="1280.000000pt" height="760.000000pt" viewBox="0 0 1280.000000 760.000000"
 preserveAspectRatio="xMidYMid meet">
<metadata>
Created by potrace 1.15, written by Peter Selinger 2001-2017
</metadata>
<g transform="translate(0.000000,760.000000) scale(0.100000,-0.100000)"
fill="#000000" stroke="none">
<path d="M1185 7587 c-20 -16 -48 -108 -73 -247 -21 -112 -32 -101 -32 31 0
74 -3 91 -16 96 -25 9 -42 -21 -49 -86 -3 -31 -12 -99 -21 -151 -9 -56 -14
-140 -12 -205 3 -144 -11 -170 -53 -95 -13 22 -26 40 -31 40 -4 0 -8 7 -8 16
0 9 -13 38 -29 64 -16 25 -32 60 -35 77 -7 30 -39 73 -55 73 -4 0 -13 -12 -20
-26 -10 -22 -3 -46 59 -201 39 -97 82 -195 95 -218 19 -32 26 -61 30 -121 3
-52 15 -109 35 -166 19 -57 30 -108 30 -143 0 -51 20 -117 67 -223 8 -18 17
-50 20 -70 3 -20 17 -60 30 -89 31 -67 41 -123 22 -123 -17 1 -103 97 -152
170 -20 30 -50 73 -66 95 -38 53 -76 129 -107 218 -15 40 -34 81 -43 92 -10
11 -25 32 -34 48 -10 15 -24 27 -32 27 -9 0 -18 20 -25 58 -7 31 -23 77 -35
102 -13 25 -45 91 -71 147 -45 99 -66 121 -94 103 -10 -6 -11 -30 -5 -102 13
-163 12 -182 -9 -186 -14 -3 -44 21 -103 83 -45 47 -83 82 -83 77 0 -15 49
-85 73 -105 56 -47 109 -103 134 -143 30 -47 50 -59 38 -21 -4 12 -9 63 -10
112 -2 50 -6 116 -10 149 -5 44 -4 57 5 54 24 -8 108 -182 125 -258 9 -41 19
-86 22 -98 4 -18 -11 -48 -63 -125 -38 -56 -74 -106 -80 -112 -6 -5 -24 -27
-39 -48 -15 -20 -38 -40 -50 -43 -28 -7 -94 25 -155 76 -25 21 -80 54 -122 74
-43 20 -78 40 -78 46 0 13 1 13 39 -6 35 -17 61 -13 61 10 0 8 -31 40 -69 71
-38 31 -76 66 -84 78 -16 21 -16 21 -16 -20 -1 -23 4 -45 9 -48 6 -3 10 -11
10 -16 0 -6 -5 -7 -10 -4 -6 4 -10 -11 -10 -38 l0 -44 78 -50 c42 -28 100 -63
127 -78 28 -16 65 -39 82 -53 30 -22 32 -28 27 -62 -5 -32 -3 -41 15 -52 11
-7 21 -17 21 -21 0 -20 68 -106 125 -159 56 -52 68 -70 121 -190 71 -161 225
-467 263 -522 15 -23 43 -66 60 -96 72 -124 251 -358 335 -440 53 -51 56 -69
21 -138 -14 -27 -32 -78 -40 -113 -9 -35 -22 -80 -30 -99 -7 -19 -16 -75 -19
-125 -2 -49 -12 -162 -21 -250 -23 -227 -16 -659 15 -830 24 -136 43 -178 82
-183 22 -3 32 6 62 51 43 65 126 134 137 115 4 -7 10 -38 14 -68 10 -83 39
-134 103 -184 125 -96 246 -135 477 -155 55 -5 113 -14 129 -20 27 -11 28 -14
22 -52 -6 -41 -25 -68 -116 -173 -60 -69 -152 -263 -190 -402 -36 -133 -39
-180 -10 -189 11 -3 20 -12 20 -18 0 -7 -20 -55 -45 -107 -25 -52 -45 -109
-45 -126 0 -17 -11 -66 -25 -109 -30 -96 -24 -110 45 -101 59 8 68 -1 145
-149 65 -125 85 -150 170 -209 59 -40 62 -41 140 -40 91 1 177 29 214 68 32
34 19 46 -46 46 -68 0 -116 26 -142 79 -40 77 -71 166 -71 201 0 20 -11 69
-25 108 -14 39 -25 85 -25 102 0 17 -9 48 -20 70 -30 59 -22 100 19 100 16 0
51 51 51 73 0 7 10 30 21 52 12 22 35 74 50 116 15 43 37 92 48 110 12 19 21
40 21 47 0 7 28 47 61 90 42 52 88 132 146 250 114 233 128 241 319 181 96
-29 101 -30 182 -18 66 9 89 9 107 -1 40 -21 65 -113 45 -165 -40 -104 22
-571 73 -552 65 24 120 38 131 34 9 -4 15 -29 18 -76 3 -59 11 -85 48 -160 38
-74 51 -92 81 -105 20 -9 42 -16 51 -16 8 0 41 29 74 65 79 87 112 98 306 93
138 -3 145 -2 208 25 51 22 74 40 109 84 l44 55 -31 31 -31 31 -58 -19 c-32
-11 -64 -23 -70 -28 -8 -6 -13 -6 -13 0 0 12 -149 43 -207 43 -24 0 -63 -5
-87 -12 -40 -11 -53 -9 -115 11 -38 12 -78 31 -90 42 -20 19 -20 21 -5 60 15
36 15 43 1 72 -27 55 -86 259 -98 340 -8 51 -10 137 -6 243 l6 165 -30 34
c-32 36 -101 65 -156 65 -26 0 -36 6 -48 30 -9 17 -21 30 -28 30 -7 0 -46 -34
-87 -76 -120 -122 -190 -163 -366 -214 -33 -10 -75 -25 -92 -34 -63 -32 -67
-27 -69 84 -2 104 -11 132 -60 196 -33 44 -123 89 -223 113 -259 61 -290 65
-290 41 0 -23 151 -72 290 -95 64 -10 146 -51 169 -84 28 -39 41 -107 31 -161
-21 -119 -42 -199 -60 -235 -11 -22 -47 -101 -80 -175 -34 -74 -71 -148 -84
-165 -26 -34 -156 -295 -156 -314 0 -9 -45 -108 -55 -119 -5 -6 -239 78 -252
91 -10 10 -12 20 -5 38 6 13 17 56 26 96 32 144 108 299 201 411 86 103 106
156 74 196 -34 44 -85 63 -186 69 -145 10 -296 56 -397 121 -65 42 -94 81
-106 143 -5 27 -14 67 -21 90 -9 29 -10 50 -4 66 10 25 110 113 182 160 24 15
86 65 138 112 117 104 127 105 214 35 109 -87 203 -131 421 -198 36 -11 106
-25 155 -31 84 -11 236 -39 330 -60 39 -9 71 1 60 19 -8 13 -128 36 -275 54
-74 9 -164 24 -200 32 -36 9 -86 20 -111 24 -25 5 -97 32 -160 60 -112 52
-193 106 -257 172 l-33 35 58 59 c57 58 229 274 290 364 51 77 160 292 181
360 11 36 23 98 27 139 4 40 16 103 27 139 23 75 28 274 9 352 -15 62 -14 130
2 130 6 0 50 -26 97 -58 62 -42 101 -80 145 -136 76 -98 161 -169 300 -253
145 -88 200 -129 261 -196 63 -69 130 -202 139 -277 4 -30 14 -82 22 -115 18
-69 23 -344 9 -438 -6 -42 -6 -61 2 -66 8 -5 -2 -46 -34 -137 -25 -71 -50
-142 -55 -159 -5 -16 -27 -52 -49 -79 -41 -49 -52 -86 -25 -86 24 0 93 104
146 220 27 61 49 116 49 123 0 7 9 30 20 51 11 22 29 89 40 150 11 61 30 160
42 220 21 113 20 247 -2 356 -40 192 -74 287 -141 390 -21 33 -39 65 -39 70 0
6 18 10 39 10 22 0 42 4 45 9 3 5 31 20 62 35 74 35 67 52 -20 48 -36 -2 -66
0 -66 5 1 4 19 17 42 28 49 23 59 42 26 49 -78 16 -86 15 -91 -4 -3 -11 -13
-20 -22 -20 -12 0 -15 5 -10 20 5 16 2 20 -17 20 -13 0 -30 -6 -36 -12 -10
-10 -15 -10 -20 -1 -4 6 -23 13 -41 15 -40 4 -56 28 -18 28 38 0 187 39 228
61 73 37 80 99 19 161 -22 23 -40 49 -40 58 0 21 19 40 41 40 10 0 30 10 44
23 24 20 25 25 15 49 -13 28 -48 48 -85 48 -34 0 -41 18 -11 30 24 9 26 14 26
72 0 35 4 69 9 76 11 17 129 34 152 21 21 -11 26 -25 34 -104 11 -103 20 -119
105 -189 115 -95 150 -183 150 -375 0 -66 4 -84 40 -157 66 -136 264 -365 358
-413 15 -7 45 -30 67 -50 54 -50 174 -137 216 -156 98 -45 433 -223 436 -232
2 -6 -12 -20 -32 -31 -67 -40 -45 -79 88 -153 42 -24 77 -46 77 -51 0 -4 -9
-31 -21 -60 -30 -77 -29 -121 4 -156 16 -16 27 -39 27 -56 0 -30 40 -76 66
-76 10 0 27 9 39 20 18 17 25 18 57 8 32 -9 40 -8 67 11 35 25 41 51 11 51
-29 0 -25 30 10 78 35 48 51 51 125 23 56 -21 66 -37 38 -60 -31 -25 -69 -82
-82 -122 -14 -44 -5 -73 39 -123 l32 -36 -16 -127 c-8 -71 -18 -229 -21 -353
-10 -362 -14 -451 -25 -515 -24 -151 -30 -243 -35 -575 -3 -195 -8 -362 -10
-370 -2 -8 -9 -104 -15 -214 -6 -109 -16 -210 -21 -225 -19 -50 -48 -71 -99
-71 -26 0 -69 -7 -96 -15 -27 -9 -102 -20 -166 -25 -64 -6 -136 -18 -160 -26
-24 -9 -90 -20 -147 -25 -98 -7 -111 -11 -198 -56 -128 -66 -143 -79 -154
-137 -7 -41 -6 -52 11 -76 11 -15 32 -32 47 -38 52 -20 183 -52 214 -52 17 0
39 -5 50 -10 11 -6 47 -12 82 -14 258 -11 567 -28 642 -36 50 -5 144 -11 210
-14 66 -2 143 -9 171 -16 88 -19 274 -7 373 25 74 24 104 27 233 30 142 2 148
2 148 -18 0 -18 4 -19 53 -13 28 4 93 11 142 17 108 11 1092 24 1130 15 47
-12 15 -28 -49 -24 -36 2 -61 -1 -61 -7 0 -6 40 -9 105 -8 150 3 144 3 263 -3
102 -5 107 -4 107 15 0 23 -10 25 -220 41 -580 45 -729 59 -752 71 -10 5 -27
5 -42 -1 -36 -13 -255 -14 -290 -1 -20 8 -89 10 -220 6 -206 -7 -304 1 -317
25 -4 8 -18 37 -30 64 -39 86 -158 146 -362 182 -50 8 -114 25 -142 36 -27 11
-84 35 -126 52 l-77 31 -6 160 c-4 92 -3 215 3 290 6 72 10 261 10 420 -1 160
2 319 6 355 4 36 8 130 10 210 3 133 15 280 31 386 4 26 2 44 -5 48 -14 9 -14
82 -1 195 5 47 15 141 22 209 10 101 15 125 30 133 23 13 23 30 -2 52 -11 9
-20 27 -20 39 0 34 21 102 33 110 14 8 57 -8 82 -32 28 -26 126 -68 210 -91
124 -32 276 -95 450 -184 93 -48 181 -95 195 -105 53 -37 136 -73 172 -74 43
-1 70 20 70 55 -1 45 -24 134 -40 152 -25 28 -79 58 -130 72 -26 7 -96 31
-157 52 -121 43 -115 35 -99 123 8 51 -21 85 -83 96 -27 4 -54 6 -62 5 -30 -5
-81 10 -81 24 0 12 18 15 89 15 110 0 282 33 322 61 31 22 35 39 19 69 -6 10
-7 21 -2 24 4 2 52 12 107 21 83 14 120 26 220 75 138 68 184 86 278 106 157
33 155 34 516 -259 218 -177 371 -273 449 -283 36 -4 73 -2 102 6 25 7 59 13
77 14 37 2 81 39 108 90 18 33 18 34 -4 69 -12 20 -41 51 -64 69 -23 17 -97
85 -164 150 -68 65 -129 118 -137 118 -21 0 -27 27 -8 35 23 9 149 -4 212 -22
30 -9 85 -16 123 -17 56 0 71 4 88 21 12 12 18 26 14 32 -9 15 -174 97 -290
145 -49 21 -102 44 -117 52 -14 8 -34 14 -43 14 -10 0 -48 12 -86 27 -51 20
-69 32 -69 45 0 16 -5 18 -33 13 -34 -7 -154 21 -142 33 3 4 20 11 38 17 17 5
38 22 47 38 14 26 14 28 -13 50 -26 21 -27 24 -15 54 11 30 10 35 -17 64 -38
39 -136 109 -195 139 -25 12 -90 53 -145 91 -158 109 -396 263 -466 301 -318
175 -543 268 -694 287 -44 5 -129 21 -190 35 -60 14 -162 32 -225 41 -63 8
-137 19 -165 24 -46 9 -319 14 -659 13 -134 -1 -141 0 -202 29 -35 16 -70 39
-78 52 -8 12 -28 67 -46 122 -17 55 -36 104 -41 109 -5 6 -9 21 -9 33 0 13
-18 57 -41 98 -36 66 -44 75 -69 75 -18 0 -36 10 -52 28 -13 16 -48 35 -82 47
-58 20 -60 21 -76 73 -10 29 -26 62 -36 73 -46 51 -253 149 -313 149 -15 0
-37 7 -50 16 -36 26 -144 15 -210 -22 -62 -33 -135 -110 -151 -159 -10 -30
-16 -35 -44 -35 -35 0 -123 26 -144 43 -26 20 -72 99 -72 122 0 13 9 41 20 62
23 45 50 192 50 272 0 32 9 83 21 116 27 78 36 175 16 175 -9 0 -17 -14 -21
-35 -7 -37 -29 -65 -51 -65 -7 0 -21 20 -31 45 -9 25 -20 45 -25 45 -4 0 -25
-11 -45 -25 -20 -14 -44 -25 -53 -25 -9 0 -29 -9 -46 -20 -16 -11 -42 -20 -56
-20 -31 0 -62 -24 -156 -117 -44 -43 -73 -80 -73 -92 0 -28 5 -27 49 17 22 20
52 50 69 65 17 16 72 44 123 64 90 33 94 34 109 16 10 -12 28 -18 55 -18 36 0
42 -4 57 -35 30 -60 19 -236 -23 -358 -45 -130 -6 -199 131 -238 115 -32 285
-87 294 -95 5 -5 10 -59 11 -121 1 -62 6 -128 10 -147 l8 -33 -44 6 c-24 4
-77 14 -118 23 -83 18 -302 13 -326 -7 -21 -17 -40 -99 -26 -113 32 -32 -11
-57 -98 -57 -53 0 -66 5 -151 56 -69 42 -103 56 -129 56 -48 -1 -90 -18 -123
-50 -24 -22 -28 -34 -28 -77 0 -107 41 -165 117 -165 29 0 50 7 70 24 31 26
90 40 235 56 137 14 178 13 178 -5 0 -8 -10 -20 -22 -26 -33 -17 -78 -61 -78
-76 0 -7 20 -35 45 -63 27 -30 45 -60 45 -74 0 -26 -50 -76 -78 -77 -9 0 -53
-4 -97 -8 -87 -9 -192 2 -242 25 -17 8 -62 14 -101 14 -90 0 -207 24 -296 62
-39 16 -88 37 -108 45 -44 18 -48 38 -23 119 17 57 19 120 4 129 -15 10 -16 7
-28 -74 -5 -40 -14 -78 -20 -84 -8 -8 -27 -6 -65 6 -41 13 -63 28 -87 58 -17
22 -28 43 -24 47 4 4 34 7 68 7 48 0 62 3 62 15 0 10 -7 14 -20 11 -35 -6
-103 -1 -131 10 -46 17 -163 109 -199 156 -29 38 -33 48 -24 70 7 19 6 28 -3
34 -21 13 -3 20 57 22 52 2 59 6 91 42 22 26 33 49 31 64 -3 38 -24 36 -37 -4
-15 -46 -48 -63 -90 -45 -67 28 -106 108 -88 179 15 59 37 73 144 92 l96 17
14 -34 c8 -18 14 -45 14 -59 0 -14 17 -48 37 -76 35 -50 37 -51 52 -31 9 11
32 23 51 27 19 4 41 12 48 17 20 17 14 38 -12 38 -19 0 -25 6 -28 28 -2 20 -8
26 -21 24 -11 -2 -25 5 -32 14 -11 15 -16 16 -28 6 -13 -11 -16 -10 -19 10 -2
15 -9 22 -20 20 -36 -6 -6 26 52 57 33 18 62 36 65 41 9 14 -16 11 -45 -5 -33
-19 -40 -18 -40 4 0 11 29 40 75 75 41 32 89 74 106 94 17 20 69 76 115 124
77 81 96 108 77 108 -5 0 -36 -25 -69 -55 -55 -48 -74 -57 -74 -35 0 6 173
167 278 258 24 20 51 45 60 55 160 166 190 190 217 167 9 -7 39 -9 92 -4 73 6
80 9 106 40 16 19 36 34 46 34 9 0 46 -19 81 -42 50 -33 65 -49 65 -67 0 -13
9 -29 18 -35 15 -9 23 -6 43 19 13 17 24 39 24 51 0 29 -20 84 -30 84 -5 0
-24 21 -42 48 -41 60 -57 73 -143 116 -47 23 -96 38 -150 46 -44 7 -100 20
-125 30 -57 23 -362 37 -407 18 -15 -6 -83 -14 -150 -17 -114 -6 -123 -8 -150
-33 -15 -15 -53 -36 -84 -47 -31 -12 -78 -37 -105 -56 -27 -19 -55 -35 -63
-35 -7 0 -28 -8 -45 -19 -17 -10 -47 -21 -67 -25 -66 -12 -166 -95 -232 -191
-22 -33 -50 -70 -63 -83 -12 -12 -25 -39 -29 -60 -4 -20 -20 -61 -37 -91 -31
-53 -31 -54 -18 -120 10 -52 10 -75 0 -111 -20 -73 -16 -198 8 -229 10 -14 27
-42 37 -61 10 -19 38 -54 63 -77 36 -34 43 -46 38 -65 -22 -78 -19 -117 13
-183 38 -77 35 -87 -41 -137 -87 -57 -82 -59 -133 45 -79 158 -122 237 -137
255 -24 28 -108 190 -108 209 0 9 -18 49 -40 89 -22 40 -40 80 -40 88 0 8 -6
19 -13 23 -7 4 -30 73 -51 152 -20 80 -46 162 -57 182 -10 21 -19 47 -19 57 0
11 -14 46 -31 78 -28 52 -30 62 -20 89 6 17 11 39 11 48 0 10 9 34 20 54 11
21 20 44 20 51 0 7 18 66 40 131 50 146 62 254 34 289 -39 48 -63 2 -95 -181
-6 -37 -15 -70 -20 -73 -17 -10 -9 53 20 168 44 173 47 212 22 237 -42 42 -61
18 -77 -94 -4 -27 -16 -79 -27 -115 -16 -53 -21 -61 -27 -44 -5 12 -2 49 5 85
7 35 16 103 20 151 6 73 5 92 -9 113 -19 28 -34 31 -61 12z m5 -290 c-18 -122
-24 -327 -11 -327 18 0 39 42 49 100 10 51 21 88 57 180 19 47 19 12 0 -65
-20 -84 -20 -179 1 -196 14 -11 19 -10 34 9 10 12 20 22 23 22 7 0 -38 -141
-57 -178 -9 -17 -24 -32 -32 -32 -9 0 -28 -8 -42 -19 -15 -10 -51 -26 -80 -35
-29 -10 -75 -33 -102 -52 -56 -38 -70 -42 -70 -16 0 9 -20 60 -45 112 -52 109
-57 140 -17 94 24 -28 60 -54 76 -54 3 0 12 13 21 30 10 20 15 58 15 123 0 52
3 109 6 127 10 48 24 16 24 -56 0 -72 19 -108 44 -84 21 20 56 208 56 297 0
58 5 84 27 130 l27 58 4 -43 c2 -24 -2 -80 -8 -125z m196 -155 c-12 -11 -18 7
-10 30 l8 23 4 -23 c2 -13 1 -26 -2 -30z m1544 -82 c0 -5 -2 -10 -4 -10 -3 0
-8 5 -11 10 -3 6 -1 10 4 10 6 0 11 -4 11 -10z m238 -8 c3 -9 -2 -13 -14 -10
-9 1 -19 9 -22 16 -3 9 2 13 14 10 9 -1 19 -9 22 -16z m-508 -41 c0 -5 -7 -12
-16 -15 -22 -9 -24 -8 -24 9 0 8 9 15 20 15 11 0 20 -4 20 -9z m255 -2 c-28
-11 -75 -11 -75 0 0 5 21 9 47 8 33 0 41 -3 28 -8z m343 2 c17 -1 15 -21 -5
-43 -22 -24 -163 -27 -183 -3 -17 20 -13 23 50 35 29 6 55 12 57 14 3 3 17 3
81 -3z m-256 -38 c16 -5 33 -32 24 -40 -7 -7 -69 32 -74 47 -3 9 0 11 14 5 11
-4 27 -9 36 -12z m-292 -8 c0 -8 -4 -15 -10 -15 -5 0 -10 7 -10 15 0 8 5 15
10 15 6 0 10 -7 10 -15z m650 5 c0 -11 -42 -30 -66 -30 -26 0 -15 17 19 28 43
13 47 14 47 2z m-500 -30 c0 -5 -5 -10 -11 -10 -5 0 -7 5 -4 10 3 6 8 10 11
10 2 0 4 -4 4 -10z m210 -19 c0 -6 -4 -13 -10 -16 -5 -3 -10 1 -10 9 0 9 5 16
10 16 6 0 10 -4 10 -9z m-409 -22 c34 -24 53 -55 43 -70 -4 -6 -12 -2 -21 10
-8 12 -19 21 -24 21 -5 0 -23 10 -39 22 -51 37 -11 54 41 17z m-236 -69 c-19
-61 -28 -72 -39 -44 -12 30 5 91 28 102 11 5 23 8 25 6 2 -2 -4 -31 -14 -64z
m418 33 c26 -9 46 -22 44 -28 -2 -5 -33 -11 -69 -13 -56 -2 -66 0 -70 15 -12
46 16 54 95 26z m262 5 c24 -11 34 -28 16 -28 -20 0 -61 20 -61 30 0 13 13 13
45 -2z m561 -25 c-4 -4 -11 -1 -16 7 -16 25 -11 35 7 17 9 -9 13 -20 9 -24z
m-1156 -4 c0 -29 -2 -31 -27 -24 -39 9 -41 14 -14 36 32 26 41 24 41 -12z
m-180 13 c0 -5 -8 -17 -19 -26 -17 -15 -19 -16 -25 -1 -3 9 -4 21 0 26 7 11
44 12 44 1z m902 -28 c3 -15 -133 -77 -144 -66 -7 7 -3 12 11 17 12 3 28 20
36 36 14 26 20 29 55 25 22 -2 41 -7 42 -12z m148 -4 c0 -5 -4 -10 -9 -10 -6
0 -13 5 -16 10 -3 6 1 10 9 10 9 0 16 -4 16 -10z m-324 -11 c8 -13 -13 -29
-38 -29 -11 0 -18 8 -18 20 0 15 7 20 24 20 14 0 28 -5 32 -11z m-168 -32 c2
-11 -3 -17 -16 -17 -26 0 -34 11 -20 27 14 17 32 12 36 -10z m-598 -1 c0 -16
-18 -31 -27 -22 -8 8 5 36 17 36 5 0 10 -6 10 -14z m-982 -166 c27 -80 62
-185 77 -235 49 -162 66 -210 85 -235 10 -14 35 -65 55 -114 21 -48 56 -115
78 -149 22 -34 51 -84 64 -112 13 -27 37 -68 53 -90 16 -22 39 -64 50 -93 11
-29 31 -75 45 -102 14 -27 25 -58 25 -70 0 -11 -23 -45 -51 -76 -56 -61 -109
-140 -109 -161 0 -23 30 -14 48 15 22 35 257 264 264 256 3 -2 3 -24 1 -47 -4
-37 0 -49 38 -102 82 -116 248 -384 255 -410 10 -41 34 -43 64 -7 15 18 30 29
33 25 10 -9 8 -88 -3 -152 -5 -31 -17 -96 -26 -146 -79 -446 -68 -531 15 -119
56 278 71 415 51 463 -16 39 -25 39 -60 0 l-29 -30 -27 43 c-15 24 -42 66 -59
93 -91 144 -110 171 -144 209 -77 85 -85 113 -54 194 l17 44 52 -5 c32 -3 61
-13 72 -24 19 -18 99 -138 121 -181 12 -22 14 -23 31 -7 17 15 21 12 81 -55
69 -77 78 -90 58 -90 -8 0 -39 27 -71 60 -31 33 -59 60 -62 60 -18 0 0 -30 49
-81 30 -32 55 -62 55 -68 0 -6 6 -11 13 -11 8 0 22 -9 33 -21 16 -18 19 -36
19 -113 -1 -166 -14 -430 -24 -496 -11 -65 -66 -225 -115 -330 -14 -30 -26
-61 -26 -68 0 -28 -164 -308 -226 -388 -77 -98 -248 -260 -424 -402 -69 -55
-188 -161 -265 -236 -77 -75 -145 -136 -152 -136 -28 0 -60 177 -75 419 -5 97
-9 201 -9 231 2 83 29 330 41 370 5 19 10 53 10 75 0 44 30 217 63 364 26 112
39 125 88 89 83 -62 204 -100 223 -69 9 14 -4 41 -19 41 -32 0 -143 60 -166
89 -13 17 -103 112 -199 210 -97 98 -198 209 -226 247 -51 70 -170 277 -200
350 -9 21 -29 58 -44 81 -15 22 -31 52 -35 65 -4 12 -39 80 -76 149 -38 69
-69 135 -69 147 0 14 30 55 78 107 44 46 96 109 118 140 l39 57 -24 19 c-13
10 -27 17 -31 14 -5 -3 -21 -38 -36 -77 -23 -60 -39 -83 -93 -135 -37 -35 -75
-63 -86 -63 -26 0 -135 113 -158 163 -22 49 -21 57 6 57 28 0 167 143 208 214
16 28 45 69 64 91 46 54 61 43 101 -72 57 -162 148 -307 340 -540 115 -139
300 -397 359 -498 72 -124 123 -185 214 -254 67 -51 81 -58 91 -46 20 24 3 58
-42 89 -55 38 -140 131 -200 219 -27 38 -48 70 -48 72 0 9 -70 117 -101 155
-20 25 -51 68 -69 95 -18 28 -43 61 -55 75 -27 31 -47 84 -70 180 -10 41 -28
102 -40 135 -12 33 -30 87 -40 120 -9 33 -30 89 -47 123 -26 55 -30 71 -24
115 7 62 23 77 84 77 44 0 142 35 142 52 0 20 -33 19 -89 -2 -32 -12 -80 -22
-107 -23 l-48 -2 -23 60 c-33 91 -30 117 18 170 32 35 56 49 117 70 42 14 84
30 92 35 8 5 18 6 22 2 4 -4 29 -72 56 -152z m1692 151 c0 -17 -18 -21 -24 -6
-3 9 0 15 9 15 8 0 15 -4 15 -9z m-844 -36 c-7 -18 -26 -20 -26 -2 0 18 24 41
28 27 2 -6 1 -17 -2 -25z m424 -20 c0 -10 -14 -13 -50 -12 -60 2 -68 25 -17
49 30 16 33 15 50 -4 9 -11 17 -26 17 -33z m175 45 c4 -6 11 -8 16 -5 12 8 49
-4 49 -15 0 -5 -24 -14 -53 -20 -44 -10 -59 -10 -90 3 -50 21 -47 35 11 40 26
2 50 4 54 5 4 1 10 -3 13 -8z m115 -40 c0 -5 -5 -10 -11 -10 -5 0 -7 5 -4 10
3 6 8 10 11 10 2 0 4 -4 4 -10z m80 -18 c0 -9 -64 -46 -97 -57 -40 -11 -25 11
25 38 48 27 72 33 72 19z m140 -12 c0 -5 -9 -19 -20 -30 -15 -15 -33 -20 -77
-20 -53 1 -56 2 -39 15 11 8 36 18 55 21 20 4 43 10 51 15 20 11 30 11 30 -1z
m-596 -9 c3 -4 35 -11 72 -14 62 -6 104 -26 104 -49 0 -11 -109 2 -140 17 -30
15 -68 55 -52 55 6 0 13 -4 16 -9z m-426 -37 l3 -29 -20 25 c-20 25 -19 44 2
37 7 -2 13 -17 15 -33z m722 26 c0 -18 -50 -35 -68 -24 -33 21 -25 34 22 34
25 0 46 -5 46 -10z m-510 -41 c0 -27 -2 -30 -15 -19 -24 20 -19 39 13 49 1 1
2 -13 2 -30z m237 -35 c-3 -3 -12 -4 -19 -1 -8 3 -5 6 6 6 11 1 17 -2 13 -5z
m291 -16 c-11 -34 -213 -98 -311 -98 -63 0 -112 16 -140 47 -15 17 -15 22 -3
32 10 9 31 9 87 0 75 -12 108 -9 219 15 85 18 153 20 148 4z m132 -8 c0 -10
-52 -50 -122 -94 -50 -32 -28 -1 37 53 59 49 85 61 85 41z m-825 -89 c-1 -45
-12 -63 -25 -41 -13 21 -12 54 2 68 19 19 23 14 23 -27z m-61 20 c6 -9 -31
-48 -38 -40 -2 2 0 14 5 27 9 23 24 29 33 13z m636 -26 c0 -9 -97 -46 -173
-66 -81 -21 -126 -19 -147 6 -6 8 -24 17 -40 20 -16 3 -35 13 -42 22 -15 18
-18 19 100 -13 54 -15 72 -15 130 -5 37 7 83 18 102 26 36 13 70 18 70 10z
m-462 -24 c3 -8 -1 -12 -9 -9 -7 2 -15 10 -17 17 -3 8 1 12 9 9 7 -2 15 -10
17 -17z m622 0 c0 -10 -62 -51 -76 -51 -11 1 57 60 68 60 4 0 8 -4 8 -9z m-95
-21 c-3 -5 -11 -10 -16 -10 -6 0 -7 5 -4 10 3 6 11 10 16 10 6 0 7 -4 4 -10z
m-57 -42 c-7 -22 -127 -97 -171 -108 -23 -5 -55 -15 -72 -22 -16 -7 -77 -14
-133 -16 -88 -3 -107 -1 -123 14 -10 9 -19 24 -19 32 0 12 7 13 33 6 17 -5 75
-9 127 -8 113 1 208 26 290 78 61 38 74 42 68 24z m-739 -7 c10 -6 10 -10 1
-16 -7 -4 -19 0 -28 9 -14 13 -14 16 -2 16 8 0 21 -4 29 -9z m376 -23 c3 -8
27 -14 61 -14 90 -2 89 -24 -2 -32 -37 -3 -76 1 -115 13 -57 18 -66 24 -52 38
12 13 103 8 108 -5z m-198 -40 c45 -43 15 -67 -34 -28 -14 11 -32 20 -39 20
-17 0 -27 17 -18 31 10 16 64 2 91 -23z m528 -19 c-47 -48 -202 -127 -260
-133 -22 -2 -48 -7 -57 -11 -11 -4 -20 0 -27 14 -13 24 0 35 29 26 40 -13 246
69 319 126 39 31 37 21 -4 -22z m47 -31 c-7 -7 -12 -8 -12 -2 0 14 12 26 19
19 2 -3 -1 -11 -7 -17z m-627 -18 c3 -5 -1 -10 -9 -10 -9 0 -16 5 -16 10 0 6
4 10 9 10 6 0 13 -4 16 -10z m608 -46 c-9 -15 -19 -21 -21 -15 -4 13 16 41 29
41 5 0 2 -12 -8 -26z m-722 -9 c-1 -15 -24 -12 -29 3 -3 9 2 13 12 10 10 -1
17 -7 17 -13z m186 9 c-3 -3 -12 -4 -19 -1 -8 3 -5 6 6 6 11 1 17 -2 13 -5z
m128 -14 c3 -6 -5 -10 -19 -10 -14 0 -28 5 -31 10 -3 6 5 10 19 10 14 0 28 -4
31 -10z m363 -22 c-13 -40 -273 -200 -343 -211 -66 -11 -37 22 49 55 43 17
124 61 180 99 103 70 121 78 114 57z m-575 -21 c29 -2 12 -22 -22 -25 -37 -4
-91 15 -91 31 0 6 18 7 48 3 26 -4 55 -8 65 -9z m171 -2 c4 -11 22 -15 68 -15
77 0 68 -18 -15 -29 -40 -5 -61 -14 -75 -30 -16 -20 -29 -24 -98 -27 -94 -3
-117 5 -91 34 10 10 35 25 58 32 22 8 43 19 47 26 6 11 32 18 83 23 9 0 19 -6
23 -14z m296 5 c0 -23 -253 -130 -307 -130 -39 0 3 26 97 60 58 21 125 47 150
58 52 24 60 25 60 12z m-600 -50 c8 -5 11 -12 8 -16 -10 -9 -38 3 -38 16 0 12
10 13 30 0z m2243 -37 c4 -3 2 -12 -3 -18 -8 -9 5 -15 49 -24 38 -7 79 -25
111 -47 29 -20 54 -33 56 -31 3 3 -2 22 -11 42 -8 21 -13 40 -10 43 10 10 126
-42 163 -74 37 -32 92 -110 92 -132 0 -6 -16 -19 -35 -31 -19 -11 -50 -44 -69
-73 -19 -30 -65 -82 -102 -118 -81 -75 -98 -98 -120 -165 -19 -54 -43 -94 -59
-94 -5 -1 -34 44 -62 99 -59 110 -62 135 -41 261 12 69 12 72 -10 89 -12 10
-58 30 -102 45 -44 15 -82 31 -85 35 -19 31 108 176 166 190 45 10 64 11 72 3z
m-1723 -87 c0 -18 -51 -39 -82 -34 -20 4 -17 7 22 26 55 25 60 26 60 8z m-220
-10 c0 -24 -27 -37 -71 -34 -59 4 -60 24 -2 36 68 14 73 14 73 -2z m-190 -6
c0 -11 -68 -25 -78 -16 -3 4 0 11 8 16 20 13 70 13 70 0z m40 -60 c0 -5 -15
-10 -32 -10 -25 0 -29 3 -18 10 20 13 50 13 50 0z m80 -49 c0 -12 -20 -25 -27
-18 -7 7 6 27 18 27 5 0 9 -4 9 -9z m400 -61 c0 -5 -7 -10 -15 -10 -8 0 -15 5
-15 10 0 6 7 10 15 10 8 0 15 -4 15 -10z m-410 -36 c0 -28 -15 -25 -23 6 -3
13 0 20 9 20 8 0 14 -10 14 -26z m2514 7 c9 -14 -51 -89 -85 -106 -42 -22 -59
-6 -33 31 27 38 32 47 38 67 4 12 16 17 40 17 19 0 37 -4 40 -9z m168 -100
c68 -72 138 -199 179 -323 l22 -68 98 -66 99 -67 0 -48 c0 -37 4 -49 15 -49
24 0 19 -71 -9 -112 -41 -60 -122 -132 -199 -175 -79 -44 -264 -103 -325 -103
-46 0 -82 -10 -82 -21 0 -22 142 -8 292 30 175 44 193 52 268 114 49 41 56 44
83 35 16 -6 49 -8 73 -4 61 8 191 53 225 76 57 41 124 7 76 -38 -25 -24 -104
-61 -128 -62 -9 0 -22 -7 -29 -15 -19 -22 19 -20 102 7 89 29 108 47 108 103
0 26 5 45 13 48 18 6 63 -9 113 -38 53 -31 59 -60 15 -70 -39 -8 -60 -32 -37
-41 21 -8 93 23 101 44 3 8 0 31 -6 50 -9 27 -8 37 3 48 12 13 23 13 79 -1 35
-8 83 -15 106 -15 23 0 54 -5 70 -11 15 -7 50 -13 77 -14 27 -2 95 -18 150
-35 358 -114 380 -122 464 -173 77 -46 70 -57 -33 -50 -47 3 -85 3 -85 0 0 -9
76 -47 93 -47 20 0 67 -39 67 -55 0 -15 -79 -35 -142 -35 -22 0 -67 -7 -100
-16 -42 -10 -64 -12 -71 -5 -7 7 0 15 24 25 49 21 77 55 81 100 l3 40 -76 16
c-94 21 -259 34 -259 21 0 -5 20 -19 45 -31 96 -47 54 -101 -97 -126 -34 -6
-38 -4 -38 15 0 46 -60 121 -96 121 -23 0 -16 -20 21 -54 19 -19 35 -38 35
-44 0 -22 -33 -42 -91 -53 -32 -6 -61 -14 -63 -18 -2 -3 5 -17 16 -31 20 -25
21 -25 209 -26 174 -2 194 -4 262 -27 152 -53 362 -66 658 -41 61 5 82 3 108
-11 31 -16 32 -18 17 -33 -15 -15 -41 -17 -206 -14 -121 2 -191 -1 -195 -8 -4
-6 28 -10 92 -10 72 0 105 -4 119 -15 10 -8 38 -15 62 -15 30 0 42 -4 42 -15
0 -11 -11 -15 -37 -15 -48 0 -83 -10 -83 -22 0 -5 19 -9 43 -8 23 0 54 -2 69
-6 21 -5 40 1 78 26 45 29 56 32 97 26 125 -17 170 -49 56 -39 -49 4 -65 2
-58 -5 6 -6 60 -14 120 -17 158 -9 169 -11 226 -57 46 -36 50 -42 33 -49 -54
-21 -422 2 -499 31 -22 9 -26 7 -23 -7 5 -25 128 -47 328 -59 108 -6 140 -14
140 -35 0 -23 -203 -7 -410 32 -30 5 -82 14 -115 20 -33 5 -73 14 -90 19 -16
5 -51 14 -77 21 -50 12 -62 27 -28 36 50 13 8 20 -152 26 -166 7 -317 27 -438
60 -88 24 -278 94 -315 116 -18 10 -36 17 -38 14 -9 -8 4 -33 17 -33 7 0 17
-5 23 -11 11 -11 90 -41 278 -106 84 -29 122 -38 178 -42 4 -1 7 -4 7 -9 0
-17 -152 8 -260 43 -111 36 -342 143 -355 165 -9 15 -25 12 -25 -4 0 -13 86
-66 200 -122 25 -12 81 -34 125 -48 80 -26 145 -64 115 -67 -74 -6 -341 49
-385 81 -5 4 -46 19 -90 35 -44 15 -111 43 -148 62 -61 30 -96 36 -82 13 3 -5
0 -12 -6 -15 -18 -12 -89 65 -89 96 0 15 -7 29 -15 33 -36 14 -13 27 70 40 11
1 20 9 20 17 0 17 -70 16 -91 -2 -18 -15 -154 -23 -154 -9 0 6 8 13 18 17 26
9 52 34 52 50 0 10 -12 13 -42 12 -25 -1 -62 7 -88 19 -25 11 -62 24 -82 27
-36 7 -38 6 -38 -18 0 -18 8 -28 30 -37 34 -14 37 -22 14 -44 -18 -19 -20 -19
-45 -6 -25 14 -61 -5 -57 -28 3 -14 15 -17 64 -17 71 0 163 -41 233 -105 26
-24 66 -47 105 -60 35 -11 82 -34 105 -51 57 -43 134 -71 211 -80 174 -19 270
-43 277 -69 4 -13 17 -21 42 -25 135 -23 190 -39 269 -80 102 -53 249 -174
259 -213 3 -15 17 -37 30 -49 69 -65 -28 -102 -286 -107 -76 -2 -144 -6 -150
-10 -6 -4 -62 -2 -124 5 -61 7 -128 13 -147 15 -132 10 -267 42 -445 103 -44
16 -114 36 -155 46 -146 35 -677 320 -800 430 -20 17 -80 63 -135 102 -149
105 -227 194 -314 353 -21 40 -42 67 -45 61 -25 -39 -56 42 -66 169 -8 103 -7
105 16 123 31 24 30 37 -1 37 -27 0 -37 16 -49 83 -7 36 -6 38 24 43 17 4 44
22 61 42 17 20 56 56 86 80 58 47 113 123 113 154 0 59 83 150 155 169 79 21
136 53 179 100 55 60 66 58 148 -30z m-2652 -49 c0 -8 -6 -12 -12 -10 -17 6
-58 67 -58 86 0 19 69 -57 70 -76z m1778 -151 c9 -10 29 -40 43 -67 21 -38 39
-57 87 -84 34 -19 62 -38 62 -42 0 -12 -33 -25 -81 -31 -39 -5 -52 -2 -100 27
-59 35 -119 105 -119 139 0 26 47 77 72 77 10 0 26 -8 36 -19z m186 -70 c10
-11 16 -27 14 -36 -2 -13 -11 -8 -37 19 -31 32 -32 36 -15 36 12 0 29 -9 38
-19z m-1540 -298 c20 -16 53 -40 73 -55 19 -16 42 -28 49 -28 8 0 14 -5 14
-11 0 -6 -9 -8 -22 -3 -35 10 -147 74 -177 100 l-26 23 26 1 c14 0 42 -12 63
-27z m2841 5 c11 1 55 5 98 8 85 7 149 -9 181 -45 15 -17 14 -20 -16 -52 -41
-42 -75 -42 -100 2 -10 16 -33 36 -51 44 -30 12 -43 12 -112 -6 -94 -23 -95
-23 -95 -2 0 25 41 65 60 57 8 -4 24 -7 35 -6z m470 -8 c23 -9 25 -13 15 -25
-7 -8 -26 -15 -42 -15 -21 0 -31 -6 -35 -20 -4 -15 -14 -20 -43 -20 l-37 0 21
45 c19 40 24 44 58 45 20 0 49 -5 63 -10z m236 1 c44 -6 78 -17 98 -32 29 -22
31 -25 15 -36 -10 -7 -32 -13 -50 -13 -43 0 -94 -11 -94 -20 0 -4 23 -10 50
-14 64 -9 158 12 165 35 6 17 53 39 84 39 9 0 44 -15 79 -32 49 -26 62 -37 60
-53 -3 -19 -10 -20 -141 -19 -76 1 -135 -2 -130 -7 9 -9 171 -32 220 -30 18 0
47 8 65 17 26 13 48 15 111 10 113 -9 177 -25 177 -42 0 -18 -59 -44 -100 -44
-18 0 -29 -4 -25 -10 13 -21 89 -10 140 20 28 16 56 30 63 30 12 0 82 -68 82
-81 0 -3 -17 -11 -38 -17 -55 -17 -318 9 -437 43 -135 38 -283 72 -345 80 -30
4 -82 13 -115 21 -33 7 -83 14 -112 14 -44 0 -57 5 -81 28 l-29 29 41 11 c24
6 55 26 75 46 39 40 54 42 172 27z m-593 -73 c20 -20 14 -26 -40 -45 l-53 -18
38 -3 c78 -7 24 -60 -102 -98 -42 -13 -88 -24 -103 -24 l-26 0 36 80 c37 79
38 80 92 99 63 22 140 27 158 9z m292 -53 c13 -13 9 -15 -32 -15 -47 0 -65 11
-52 31 8 14 64 3 84 -16z m-2974 -5 c15 -6 82 -20 148 -31 131 -22 163 -33
133 -45 -10 -3 -75 6 -145 21 -158 33 -194 44 -187 56 8 12 17 11 51 -1z m39
-65 c51 -15 84 -39 72 -52 -4 -3 -21 1 -39 10 -18 8 -52 23 -75 32 -24 10 -43
22 -43 27 0 6 7 7 15 4 9 -3 40 -13 70 -21z m160 -35 c-3 -5 -12 -7 -20 -3
-21 7 -19 13 6 13 11 0 18 -4 14 -10z m185 0 c0 -5 -7 -10 -15 -10 -8 0 -15 5
-15 10 0 6 7 10 15 10 8 0 15 -4 15 -10z m-130 -10 c0 -5 -4 -10 -9 -10 -6 0
-13 5 -16 10 -3 6 1 10 9 10 9 0 16 -4 16 -10z m-115 -44 c98 -30 301 -108
342 -132 23 -13 55 -43 71 -67 41 -59 124 -228 155 -313 52 -145 73 -441 40
-551 -9 -29 -20 -50 -25 -47 -4 3 -8 49 -8 102 0 53 -5 115 -10 137 -5 22 -14
84 -20 139 -14 128 -49 232 -107 315 -83 119 -107 138 -324 264 -111 64 -209
141 -209 164 0 17 6 16 95 -11z m275 14 c0 -5 -4 -10 -9 -10 -6 0 -13 5 -16
10 -3 6 1 10 9 10 9 0 16 -4 16 -10z m16 -47 c29 -11 12 -23 -32 -23 -50 0
-88 15 -78 31 6 10 77 5 110 -8z m3798 2 c6 -18 -41 -45 -79 -45 -14 0 -25 -5
-25 -11 0 -19 74 -4 108 21 21 16 39 21 59 17 55 -10 158 -59 183 -87 17 -19
62 -42 140 -71 88 -34 134 -58 195 -105 44 -33 107 -79 140 -101 60 -40 95
-73 79 -73 -4 0 -61 23 -125 50 -65 28 -151 58 -191 66 -40 9 -99 28 -130 43
-50 22 -58 30 -58 53 0 40 -34 57 -139 71 -80 10 -96 9 -124 -5 -18 -9 -47
-20 -65 -23 -31 -6 -38 -2 -96 53 -34 33 -84 74 -111 91 -60 38 -45 47 52 32
75 -11 105 -7 143 20 31 23 36 23 44 4z m-3586 -55 c23 -8 41 -18 39 -24 -5
-16 -56 -20 -97 -8 -19 6 -54 16 -78 22 -26 7 -40 15 -36 22 8 13 112 6 172
-12z m3087 -114 c61 -26 42 -61 -52 -96 -32 -12 -83 -24 -113 -26 l-55 -4 32
15 c43 20 63 52 63 99 l0 39 45 -6 c24 -4 60 -13 80 -21z m715 -40 c19 -7 37
-21 39 -31 2 -13 -1 -16 -14 -11 -10 3 -48 13 -86 22 -38 9 -71 20 -74 25 -9
13 94 10 135 -5z m-94 -31 c41 -14 81 -25 89 -25 22 0 29 -20 12 -37 -13 -13
-18 -13 -45 1 -17 9 -44 16 -59 16 -17 0 -43 13 -68 35 -50 43 -33 45 71 10z
m-169 -20 c11 -8 23 -23 26 -34 5 -19 -4 -25 -65 -44 -23 -8 -88 14 -88 29 0
12 76 63 95 64 6 0 20 -7 32 -15z m403 -76 c0 -14 16 -23 62 -37 103 -32 89
-62 -29 -62 -46 0 -76 5 -82 13 -6 6 -24 28 -41 49 l-30 36 25 20 c22 17 30
18 60 9 23 -7 35 -17 35 -28z m-1092 9 c-3 -8 -23 -13 -53 -13 -30 0 -50 5
-52 13 -4 9 11 12 52 12 41 0 56 -3 53 -12z m836 -5 c75 -35 41 -73 -47 -52
-29 6 -60 16 -71 21 -17 9 -16 11 10 28 37 23 64 24 108 3z m-298 -3 c19 -7
24 -14 17 -21 -13 -13 -304 -12 -317 1 -7 7 15 10 65 11 40 1 99 4 129 9 30 4
60 8 67 9 6 0 24 -4 39 -9z m411 -45 c3 -9 3 -19 -1 -22 -8 -9 -37 18 -30 28
8 14 24 11 31 -6z m-212 -13 c16 -11 -82 -20 -210 -20 -153 0 -211 15 -70 18
55 1 114 6 130 10 31 9 133 3 150 -8z m641 -29 c57 -25 104 -52 104 -60 0 -15
-61 7 -144 51 -27 14 -55 26 -61 26 -7 0 -18 7 -25 15 -23 27 17 17 126 -32z
m-2216 -3 c14 -26 -1 -26 -31 0 l-24 19 22 1 c12 0 27 -9 33 -20z m2150 -28
c26 -21 20 -42 -11 -42 -30 0 -22 -17 11 -24 36 -7 49 -32 27 -53 -13 -13 -28
-12 -138 14 -115 27 -123 31 -130 56 -9 35 9 46 65 40 25 -3 55 1 76 10 48 21
74 20 100 -1z m329 -41 c19 -15 32 -33 30 -39 -5 -16 -79 34 -79 53 0 21 10
18 49 -14z m-599 -16 c0 -8 -4 -15 -10 -15 -5 0 -10 7 -10 15 0 8 5 15 10 15
6 0 10 -7 10 -15z m490 -26 c83 -27 100 -36 138 -77 58 -64 56 -76 -10 -67
-75 9 -80 12 -113 58 -20 27 -50 51 -83 67 -48 23 -69 50 -40 50 7 0 56 -14
108 -31z m-2097 -9 c40 -15 52 -36 15 -24 -52 16 -68 24 -68 35 0 6 3 9 8 7 4
-2 24 -10 45 -18z m1512 0 c4 -6 -5 -10 -20 -10 -15 0 -24 4 -20 10 3 6 12 10
20 10 8 0 17 -4 20 -10z m492 -31 c43 -16 73 -49 73 -81 0 -48 -51 -36 -122
30 -26 24 -27 27 -11 44 19 21 22 21 60 7z m-868 -105 c159 -64 433 -116 710
-135 80 -5 147 -12 150 -15 15 -15 -39 -22 -219 -28 -172 -6 -218 -4 -351 14
-260 36 -660 129 -693 161 -6 5 16 9 55 10 35 0 82 4 104 8 86 18 175 12 244
-15z m-435 -23 c4 -5 25 -12 49 -16 23 -4 50 -11 59 -16 9 -5 122 -33 251 -63
222 -51 302 -75 252 -76 -43 0 -378 70 -516 109 -164 46 -169 47 -169 26 0 -8
-4 -15 -9 -15 -21 0 -41 13 -41 26 0 8 6 11 15 8 8 -4 17 1 21 10 7 18 78 23
88 7z m1513 -29 c13 -15 23 -33 23 -39 0 -7 17 -21 38 -32 22 -11 46 -35 57
-56 l20 -36 -36 -33 c-31 -29 -44 -34 -105 -39 -70 -6 -135 2 -134 16 0 4 0
16 0 28 0 11 5 17 10 14 19 -12 23 27 6 56 -18 30 -15 49 8 49 7 0 23 11 36
25 l23 25 -25 0 c-30 0 -44 26 -26 47 18 22 78 8 105 -25z m-157 -27 c0 -9 -9
-15 -25 -15 -24 0 -32 10 -18 23 12 13 43 7 43 -8z m-1230 -40 c130 -36 451
-102 585 -119 66 -9 153 -23 193 -31 71 -15 190 -61 180 -70 -2 -2 -35 -11
-74 -19 -38 -8 -103 -27 -144 -42 -57 -20 -101 -27 -182 -31 -94 -5 -108 -8
-113 -24 -5 -15 -16 -19 -55 -19 -27 0 -52 -4 -55 -10 -4 -6 13 -10 44 -10 28
0 51 -4 51 -10 0 -5 -6 -10 -12 -10 -32 -1 -341 -30 -408 -39 -87 -12 -156
-14 -147 -4 4 3 60 14 125 23 88 13 140 26 206 55 71 31 95 36 130 32 54 -8
82 7 43 22 -16 6 -41 11 -57 11 -24 0 -37 10 -69 54 -73 99 -185 181 -317 235
-72 29 -102 58 -42 40 18 -5 71 -20 118 -34z m1653 -41 c20 -8 56 -21 80 -29
42 -15 71 -28 217 -99 41 -20 80 -36 85 -36 6 0 21 -9 35 -20 l25 -20 -55 -2
c-30 -1 -68 -1 -85 -1 -287 15 -472 30 -492 42 -16 9 -16 10 7 19 44 17 64 49
67 105 1 29 2 56 3 61 0 10 61 0 113 -20z m-438 -24 c3 -5 1 -10 -4 -10 -6 0
-11 5 -11 10 0 6 2 10 4 10 3 0 8 -4 11 -10z m-82 -31 c-18 -18 -153 -32 -238
-23 -81 7 -122 11 -162 13 -13 0 -23 6 -23 11 0 6 79 10 217 10 153 0 214 -3
206 -11z m-984 -86 c42 -40 63 -66 63 -83 1 -14 6 -31 11 -37 7 -10 4 -13 -12
-13 -15 0 -21 6 -21 23 0 15 -23 45 -65 87 -57 57 -71 80 -46 80 5 0 36 -26
70 -57z m-1427 -47 c62 -24 136 -51 164 -60 28 -9 60 -23 70 -31 16 -13 17
-16 4 -25 -8 -5 -35 -10 -60 -10 -25 0 -64 -5 -87 -10 -39 -9 -49 -7 -145 40
-104 51 -128 70 -128 100 0 16 32 38 57 39 6 1 62 -19 125 -43z m2548 19 c41
-8 92 -17 113 -20 29 -5 56 -23 120 -84 45 -42 117 -100 158 -129 80 -53 118
-87 182 -161 61 -70 67 -25 14 99 -20 49 -29 90 -19 90 17 0 241 -225 251
-251 22 -60 -44 -100 -175 -107 l-92 -5 -64 38 c-83 50 -254 176 -333 245 -78
68 -205 166 -261 202 -23 14 -45 36 -49 47 -5 16 -15 21 -43 21 -56 0 -25 18
38 23 30 2 62 4 70 5 8 1 48 -5 90 -13z m359 -46 c66 -14 128 -80 155 -163 9
-32 15 -60 12 -63 -12 -13 -232 147 -265 192 l-21 30 22 7 c34 9 42 9 97 -3z
m-2523 -100 c26 -9 124 -27 274 -48 30 -5 67 -13 81 -19 15 -6 30 -7 35 -3 5
5 41 1 79 -9 58 -13 71 -20 73 -38 2 -12 2 -22 0 -22 -2 0 -43 -5 -93 -12 -98
-12 -126 -12 -198 -2 -40 5 -59 1 -107 -20 -58 -26 -60 -27 -110 -10 -28 9
-53 20 -55 25 -3 4 42 23 100 40 58 18 102 36 97 41 -4 4 -34 10 -66 12 -32 2
-63 9 -69 15 -16 16 -87 13 -121 -5 -21 -10 -54 -14 -113 -13 -73 2 -85 0
-106 -19 -33 -31 -67 -103 -67 -141 0 -38 -12 -39 -40 -3 -40 50 -8 162 46
162 14 0 40 6 57 14 18 8 68 20 112 27 44 6 89 18 100 26 23 16 54 17 91 2z
m34 -79 c12 -23 8 -26 -100 -56 -74 -20 -142 -76 -160 -130 -13 -39 -37 -50
-61 -28 -35 32 -19 147 26 184 12 10 43 15 90 16 44 1 83 8 101 17 42 23 91
22 104 -3z m662 -27 c13 -12 50 -14 186 -13 201 1 241 -9 242 -62 0 -13 -8
-18 -25 -18 -14 0 -42 -7 -63 -16 -75 -33 -577 -28 -577 6 0 9 13 17 35 20 19
4 49 14 66 24 31 18 34 18 98 1 70 -19 94 -16 53 7 -13 7 -44 26 -68 42 -38
26 -41 30 -24 36 21 8 48 -2 77 -27z m-322 -102 c0 -16 -25 -28 -69 -34 -24
-3 -56 -14 -70 -24 -32 -23 -88 -133 -97 -190 -3 -24 -10 -40 -15 -38 -4 3
-22 30 -39 61 -35 61 -35 86 3 129 25 30 153 85 200 86 18 0 41 4 52 9 27 11
35 12 35 1z m47 3 c-3 -3 -12 -4 -19 -1 -8 3 -5 6 6 6 11 1 17 -2 13 -5z m63
-69 c14 -8 36 -14 50 -15 13 0 49 -18 80 -39 52 -36 59 -39 100 -31 68 12 87
-1 50 -35 -17 -15 -31 -17 -89 -12 -72 6 -116 23 -165 64 -38 32 -100 63 -126
63 -11 0 -20 5 -20 10 0 15 91 11 120 -5z m217 -11 c16 -22 8 -34 -25 -34 -34
1 -78 33 -67 50 10 17 76 5 92 -16z m-345 -16 c40 -13 87 -37 113 -59 56 -47
121 -78 194 -95 31 -7 85 -25 121 -40 36 -14 90 -30 120 -34 30 -3 73 -16 95
-27 22 -11 56 -24 75 -27 19 -4 57 -17 84 -29 l48 -21 -6 -45 c-3 -25 -10 -49
-16 -55 -5 -5 -44 8 -102 36 -51 25 -154 76 -228 112 -75 36 -141 66 -149 66
-25 0 -327 103 -382 130 -68 35 -83 52 -75 85 8 31 21 31 108 3z m-692 -3 c7
-9 10 -18 7 -21 -10 -11 -37 5 -37 21 0 19 14 19 30 0z m363 -101 c15 -70 22
-82 72 -135 62 -65 65 -80 45 -216 -18 -124 -48 -638 -56 -948 -7 -300 -14
-805 -14 -1064 0 -143 -4 -219 -11 -228 -12 -14 -69 -17 -131 -7 -44 8 -46 17
-24 116 10 44 16 164 20 403 7 442 22 759 42 915 9 69 18 184 20 255 1 72 8
173 14 225 24 208 24 208 5 251 -17 38 -18 50 -6 167 7 69 17 134 22 144 8 16
4 25 -25 52 -30 27 -36 39 -36 73 0 53 8 73 29 73 14 0 21 -17 34 -76z m897
24 c41 -45 12 -59 -57 -28 l-48 22 30 14 c41 18 51 17 75 -8z m-70 -73 c0 -16
-20 -19 -57 -9 -37 10 -26 24 17 24 29 0 40 -4 40 -15z m484 -247 c7 -13 17
-44 20 -70 7 -45 6 -48 -18 -54 -13 -3 -34 -3 -45 1 -41 13 -67 105 -39 133
20 20 66 14 82 -10z m-3748 -38 c15 -6 49 -13 77 -15 27 -2 60 -11 73 -20 24
-16 24 -16 17 -128 -10 -138 -9 -181 5 -232 6 -22 15 -76 21 -120 6 -49 26
-123 51 -189 l42 -109 -43 -43 c-45 -46 -143 -96 -193 -98 -27 -1 -34 4 -54
46 -22 44 -24 64 -32 308 -8 244 -10 263 -32 308 l-23 47 -125 11 c-113 10
-157 17 -199 30 -8 3 34 26 95 52 117 51 211 108 232 141 13 23 46 27 88 11z
m309 -945 c41 -40 33 -56 -45 -92 l-70 -31 -12 40 c-14 48 -6 66 43 90 46 23
56 22 84 -7z m25 -100 c0 -2 -7 -23 -16 -45 -9 -22 -14 -55 -12 -74 3 -25 -1
-37 -14 -45 -25 -16 -35 12 -19 53 18 46 18 47 -2 59 -15 10 -21 8 -32 -7 -18
-23 -34 -12 -19 12 13 21 114 63 114 47z m371 -23 c-14 -27 -50 -56 -59 -48
-4 5 9 21 28 37 40 34 44 35 31 11z m59 3 c-7 -9 -15 -13 -17 -11 -7 7 7 26
19 26 6 0 6 -6 -2 -15z m96 -9 c-10 -6 -34 -23 -53 -38 -31 -24 -73 -38 -73
-24 0 3 25 23 56 45 34 25 62 37 72 34 14 -6 14 -8 -2 -17z m-376 -31 c0 -2
-13 -11 -30 -20 -26 -13 -30 -13 -30 -1 0 8 6 17 13 19 16 7 47 8 47 2z m129
2 c-2 -1 -12 -9 -21 -16 -15 -12 -18 -11 -18 3 0 10 8 16 22 16 12 0 19 -1 17
-3z m-1894 -31 c33 -14 61 -30 63 -36 5 -15 -17 -101 -29 -116 -7 -9 -26 -7
-76 10 -79 25 -92 45 -73 108 19 66 28 69 115 34z m1626 -119 c-13 -13 -26 -3
-16 12 3 6 11 8 17 5 6 -4 6 -10 -1 -17z m-1726 -151 c-4 -36 -11 -64 -15 -61
-5 3 -7 13 -5 23 2 9 7 39 10 65 10 73 18 49 10 -27z m202 -78 c11 -46 6 -168
-8 -168 -16 0 -29 76 -22 142 3 38 9 68 12 68 4 0 12 -19 18 -42z m-105 -160
c4 -26 28 -37 28 -12 0 31 15 4 27 -49 7 -30 8 -56 3 -61 -13 -13 -48 31 -60
77 -6 21 -14 45 -17 53 -3 8 0 14 5 14 6 0 12 -10 14 -22z m158 -165 c0 -35
-4 -63 -9 -63 -18 0 -21 17 -14 84 7 82 23 68 23 -21z m90 -79 c0 -14 -4 -23
-10 -19 -5 3 -10 15 -10 26 0 10 5 19 10 19 6 0 10 -12 10 -26z m3321 -410
c69 -10 131 -14 184 -10 76 6 84 5 143 -25 60 -30 95 -69 78 -87 -18 -17 -371
7 -533 37 -180 34 -200 49 -107 82 63 22 106 23 235 3z m-357 -53 c23 -25 146
-67 221 -75 33 -4 87 -12 120 -17 33 -5 103 -12 155 -15 52 -4 103 -10 112
-15 9 -5 44 -9 76 -9 52 0 68 5 113 35 66 43 91 44 206 6 102 -33 180 -70 206
-99 17 -18 17 -23 3 -49 -13 -26 -23 -31 -83 -41 -202 -33 -401 -38 -865 -23
-316 11 -419 20 -563 50 -49 11 -117 24 -151 29 -72 12 -158 50 -162 72 -3 15
68 70 89 70 5 0 20 7 32 14 35 24 126 43 204 45 47 1 86 8 115 21 58 26 149
27 172 1z m-314 -290 c124 -14 151 -21 144 -33 -7 -11 -78 -5 -214 18 -88 15
-141 41 -65 31 22 -3 83 -10 135 -16z m1430 -42 c55 -12 64 -25 23 -35 -16 -3
-43 -10 -62 -16 -37 -12 -248 -14 -259 -4 -13 13 16 41 44 43 37 2 198 20 201
22 1 0 25 -4 53 -10z m-532 -16 c89 -3 165 -10 168 -15 12 -19 -12 -26 -61
-18 -27 4 -130 14 -228 21 -110 8 -173 16 -165 21 7 5 38 6 68 3 30 -3 128 -8
218 -12z"/>
<path d="M2156 4554 l-38 -45 23 -25 c12 -13 30 -24 40 -24 27 0 62 34 62 62
0 24 -29 78 -42 78 -4 0 -24 -21 -45 -46z"/>
<path d="M2095 4117 c-18 -15 -28 -36 -32 -64 -5 -39 -4 -42 22 -49 36 -9 56
3 78 48 35 70 -11 114 -68 65z"/>
<path d="M1830 3742 c-31 -27 -42 -43 -37 -55 10 -28 52 -20 81 14 29 34 32
51 12 68 -10 9 -23 3 -56 -27z"/>
<path d="M1642 3534 c-25 -18 -28 -42 -8 -70 15 -19 16 -18 42 8 21 20 25 32
20 52 -7 30 -22 33 -54 10z"/>
<path d="M4286 5936 c46 -22 74 -41 79 -55 7 -22 35 -30 35 -10 0 31 -114 99
-163 99 -13 -1 7 -14 49 -34z"/>
<path d="M4250 5910 c0 -5 6 -10 14 -10 21 0 46 -28 40 -45 -6 -14 40 -65 57
-65 5 0 9 15 9 34 0 30 -6 38 -48 65 -50 32 -72 38 -72 21z"/>
<path d="M4269 5713 c16 -30 59 -65 70 -58 20 12 11 35 -21 55 -42 25 -62 26
-49 3z"/>
<path d="M4560 5569 c-44 -23 -88 -71 -96 -104 -10 -40 23 -112 75 -165 46
-47 47 -47 126 -53 44 -4 109 -12 143 -18 54 -10 63 -14 59 -30 -3 -12 2 -20
14 -24 33 -11 161 -145 155 -162 -4 -9 1 -27 10 -41 14 -22 14 -26 2 -33 -10
-5 -14 -18 -10 -34 2 -14 -3 -36 -11 -48 -8 -13 -17 -37 -19 -53 -4 -37 -34
-52 -127 -63 -38 -5 -80 -16 -93 -25 -22 -16 -69 -22 -81 -10 -3 4 -1 16 4 27
10 18 9 19 -17 12 -98 -28 -273 10 -259 55 4 14 2 20 -9 20 -19 0 -46 -27 -46
-46 0 -19 96 -61 168 -74 187 -33 263 -31 387 14 78 28 109 58 126 121 6 22
17 52 24 66 11 20 12 41 4 95 -9 66 -12 71 -69 129 -33 33 -60 68 -60 76 0 9
-11 33 -25 53 -14 20 -25 43 -25 50 0 7 -13 25 -30 41 -24 23 -27 31 -19 48
14 25 1 54 -52 123 -35 46 -45 52 -96 63 -75 15 -111 12 -153 -10z m160 -22
c63 -32 92 -159 50 -222 -19 -28 -23 -30 -99 -32 -77 -2 -80 -2 -104 27 -34
39 -45 121 -23 155 24 37 95 85 125 85 14 0 37 -6 51 -13z m115 -268 c10 -15
-1 -23 -20 -15 -9 3 -13 10 -10 16 8 13 22 13 30 -1z"/>
<path d="M4609 5469 c-29 -29 -22 -63 16 -67 19 -3 33 2 42 14 18 24 16 61 -3
68 -25 9 -33 7 -55 -15z"/>
<path d="M4540 5210 c0 -5 5 -10 10 -10 6 0 10 5 10 10 0 6 -4 10 -10 10 -5 0
-10 -4 -10 -10z"/>
<path d="M4660 5190 c0 -5 5 -10 11 -10 5 0 7 5 4 10 -3 6 -8 10 -11 10 -2 0
-4 -4 -4 -10z"/>
<path d="M4712 5164 c9 -10 24 -14 33 -10 23 9 9 26 -23 26 -24 0 -25 -1 -10
-16z"/>
<path d="M4793 5151 c-11 -17 -8 -20 28 -29 25 -6 39 -6 39 0 0 5 -9 12 -20
15 -11 3 -20 12 -20 19 0 20 -13 17 -27 -5z"/>
<path d="M4890 5080 c-9 -17 -8 -20 10 -20 11 0 20 6 20 14 0 24 -18 28 -30 6z"/>
<path d="M4915 5030 c3 -5 8 -10 11 -10 2 0 4 5 4 10 0 6 -5 10 -11 10 -5 0
-7 -4 -4 -10z"/>
<path d="M4945 4980 c3 -5 10 -10 16 -10 5 0 9 5 9 10 0 6 -7 10 -16 10 -8 0
-12 -4 -9 -10z"/>
<path d="M4475 4800 c3 -5 14 -10 23 -10 15 0 15 2 2 10 -20 13 -33 13 -25 0z"/>
<path d="M5776 4622 c-3 -6 -1 -22 5 -36 9 -19 9 -29 0 -40 -16 -19 3 -30 29
-16 41 22 49 80 11 80 -9 0 -22 5 -28 11 -7 7 -13 7 -17 1z"/>
<path d="M5973 4515 c-3 -9 -3 -18 0 -21 7 -8 47 15 47 26 0 16 -40 11 -47 -5z"/>
<path d="M5820 4420 c-22 -14 20 -20 128 -20 62 0 102 4 97 9 -12 11 -210 21
-225 11z"/>
<path d="M6658 4303 c7 -3 16 -2 19 1 4 3 -2 6 -13 5 -11 0 -14 -3 -6 -6z"/>
<path d="M6736 4291 c-6 -10 103 -21 119 -12 6 3 -8 9 -30 13 -56 10 -83 9
-89 -1z"/>
<path d="M6625 4241 c27 -28 437 -85 480 -66 14 6 -19 12 -105 21 -116 13
-285 36 -355 50 -22 5 -27 3 -20 -5z"/>
<path d="M7120 4230 c0 -5 5 -10 10 -10 6 0 10 5 10 10 0 6 -4 10 -10 10 -5 0
-10 -4 -10 -10z"/>
<path d="M57 6913 c-18 -17 -2 -64 51 -147 75 -116 84 -134 77 -146 -9 -14
-92 51 -143 111 -29 36 -42 45 -42 32 0 -19 73 -96 151 -160 98 -80 142 -113
150 -113 26 0 -4 84 -46 130 -13 14 -39 52 -58 85 -19 33 -42 74 -52 91 -11
18 -16 38 -12 48 6 15 17 9 69 -39 40 -38 64 -53 67 -44 2 7 -31 46 -73 86
-58 55 -84 73 -105 73 -15 0 -31 -3 -34 -7z"/>
<path d="M0 6645 c0 -19 15 -48 46 -87 25 -33 44 -61 41 -64 -2 -3 -22 7 -43
21 -40 27 -63 17 -28 -11 40 -31 130 -91 147 -97 57 -21 0 93 -103 203 -58 62
-60 63 -60 35z"/>
<path d="M3494 6335 c-34 -12 -72 -29 -85 -38 -13 -10 -31 -17 -41 -17 -15 0
-16 4 -7 26 5 15 8 29 5 31 -6 7 -22 -14 -89 -122 -68 -108 -93 -175 -84 -227
17 -100 22 -113 45 -116 15 -2 22 2 22 12 0 9 7 16 15 16 9 0 37 11 63 24 29
15 83 29 142 36 52 7 100 18 106 24 13 13 34 114 34 164 0 20 -14 65 -32 100
-25 53 -29 68 -20 83 23 36 14 36 -74 4z m44 -81 c49 -34 65 -110 38 -183 -16
-45 -33 -50 -41 -11 -6 29 -10 31 -43 28 -33 -3 -40 -9 -63 -51 -22 -41 -38
-55 -98 -88 -40 -21 -75 -39 -78 -39 -3 0 -3 33 0 73 9 124 41 176 151 248 64
42 99 48 134 23z"/>
<path d="M2756 6172 c-8 -16 -22 -32 -31 -35 -16 -7 -21 -37 -6 -37 11 0 71
67 71 80 0 23 -21 18 -34 -8z"/>
<path d="M3490 5645 c-41 -30 -50 -43 -50 -72 0 -48 112 -87 148 -51 19 19 15
41 -5 33 -10 -4 -35 -9 -55 -12 -43 -6 -55 9 -44 53 5 18 19 31 46 41 22 9 40
20 40 25 0 17 -47 7 -80 -17z"/>
<path d="M3630 5602 c-32 -26 -17 -42 40 -42 52 0 83 19 74 45 -9 22 -86 20
-114 -3z"/>
<path d="M10696 5174 c-50 -38 -93 -101 -79 -115 10 -10 59 3 116 33 33 17 43
18 67 8 23 -10 42 -9 95 5 74 18 117 13 146 -16 14 -14 38 -21 82 -24 73 -5
203 -27 212 -37 4 -3 -8 -9 -25 -13 -55 -12 -28 -30 46 -30 62 0 83 -7 84 -27
0 -4 -10 -8 -22 -10 -34 -5 -28 -21 10 -29 57 -12 63 -29 10 -29 -26 0 -49 -4
-52 -9 -8 -12 51 -61 73 -61 10 0 23 -11 29 -25 7 -14 25 -34 42 -43 16 -9 30
-20 30 -24 0 -11 -4 -10 -36 7 -53 28 -69 17 -33 -22 18 -18 20 -25 10 -37
-13 -16 3 -31 62 -57 15 -7 27 -18 27 -26 0 -16 -8 -16 -40 2 -48 27 -55 10
-15 -37 17 -20 25 -42 25 -68 0 -58 -45 -88 -152 -99 -64 -7 -103 -18 -171
-50 -72 -34 -98 -41 -148 -41 l-60 0 -20 -47 c-34 -82 -45 -97 -104 -138 -32
-22 -69 -57 -83 -78 -21 -32 -23 -41 -14 -62 11 -25 11 -25 -37 -25 -26 0 -76
-3 -110 -6 -40 -5 -61 -3 -61 4 0 6 -13 24 -30 40 -48 49 -36 90 33 112 53 17
42 36 -17 32 -69 -5 -96 22 -96 96 0 52 2 55 50 99 54 48 63 80 35 120 -12 17
-21 20 -42 14 -30 -8 -47 -51 -20 -51 8 0 20 -7 27 -16 12 -13 3 -25 -56 -85
-37 -38 -76 -69 -86 -69 -27 0 -68 -22 -68 -37 0 -16 5 -16 47 -1 29 11 35 10
57 -11 29 -27 56 -99 56 -148 0 -29 -3 -33 -25 -33 -14 0 -51 9 -82 19 -32 11
-76 22 -98 26 -64 11 -261 5 -490 -14 -71 -6 -211 -13 -309 -16 l-179 -5 -61
33 c-53 29 -74 35 -159 41 l-99 7 4 -23 c2 -15 13 -26 33 -33 17 -5 47 -20 67
-33 27 -17 35 -27 31 -43 -7 -27 -41 -39 -107 -39 -39 0 -60 -6 -80 -21 -36
-28 -26 -37 72 -70 l77 -26 5 -69 c6 -82 12 -94 49 -94 16 0 59 -12 97 -26 47
-17 78 -24 99 -19 43 8 50 8 145 1 47 -4 100 -11 118 -17 18 -6 42 -9 52 -6
11 3 37 1 59 -4 25 -5 92 -5 173 1 73 6 239 15 368 20 l235 10 19 -22 c15 -19
17 -32 11 -78 -3 -30 -10 -116 -15 -190 -8 -138 -2 -183 35 -265 7 -16 16 -39
18 -50 6 -22 44 -118 83 -206 28 -65 25 -82 -17 -99 -82 -35 -191 -145 -242
-247 -58 -116 -112 -300 -142 -483 -9 -52 -24 -124 -34 -160 -11 -36 -30 -108
-45 -160 -14 -52 -37 -138 -52 -190 -15 -52 -37 -140 -50 -195 -13 -55 -28
-111 -33 -125 -6 -14 -21 -73 -35 -132 -14 -59 -36 -133 -50 -165 -13 -32 -27
-72 -30 -88 -11 -53 -43 -95 -71 -95 -14 0 -42 -7 -63 -16 -52 -21 -160 -47
-202 -46 -19 0 -55 5 -80 10 -25 6 -112 14 -195 17 -82 4 -170 10 -194 15 -24
4 -125 3 -225 -2 -99 -5 -244 -13 -321 -16 -85 -4 -139 -11 -137 -17 3 -12
341 -15 482 -4 106 8 500 -8 514 -21 5 -5 -7 -15 -28 -24 -43 -18 -45 -30 -10
-52 34 -23 254 -22 358 1 77 17 214 17 206 0 -6 -15 -64 -33 -145 -45 -38 -6
-99 -20 -134 -30 -57 -18 -96 -20 -401 -21 -186 -1 -344 -5 -351 -10 -10 -6
-6 -11 15 -19 25 -9 197 -11 626 -8 52 1 142 -6 200 -16 71 -11 152 -16 250
-14 80 1 199 -4 265 -11 365 -37 446 -45 615 -57 102 -7 235 -17 295 -23 161
-15 639 -31 649 -21 17 17 -6 29 -65 36 -58 6 -81 17 -56 26 12 5 29 3 227
-22 52 -6 210 -13 350 -15 140 -1 284 -7 320 -13 36 -6 87 -13 114 -16 27 -4
52 -9 55 -12 7 -7 -340 4 -406 13 -35 5 -43 3 -43 -10 0 -18 7 -20 110 -38 89
-15 135 -19 261 -23 l109 -3 0 46 c0 42 -3 48 -32 63 -18 9 -60 19 -93 21 -33
3 -136 16 -230 30 -93 14 -215 28 -270 31 -55 3 -136 12 -180 21 -47 10 -157
18 -270 21 -104 3 -192 7 -194 10 -2 2 -10 -1 -18 -8 -10 -8 -17 -8 -26 1 -18
18 -13 372 9 641 29 350 19 630 -26 749 -18 46 -19 56 -7 70 8 9 47 72 87 141
40 69 83 141 95 161 13 20 40 69 60 110 21 41 69 130 109 199 66 116 107 215
206 490 20 58 53 137 72 175 20 39 52 115 73 170 20 55 52 123 71 151 18 29
38 64 44 79 16 42 98 165 115 171 8 3 19 21 25 40 6 19 15 34 19 34 4 0 29 27
57 61 28 35 68 70 94 84 103 53 136 155 51 155 -30 0 -116 -38 -160 -71 -29
-22 -33 -22 -63 -7 -18 8 -59 37 -91 63 -60 48 -62 54 -42 107 4 10 -5 18 -29
25 -40 12 -76 -5 -76 -37 0 -22 -28 -40 -60 -40 -33 0 -87 -48 -152 -139 -67
-91 -99 -162 -153 -337 -20 -63 -41 -114 -47 -114 -7 0 -9 35 -4 113 5 89 2
138 -14 242 -35 215 -37 227 -70 315 -20 54 -30 96 -27 115 3 20 -3 44 -18 70
-12 22 -25 63 -28 91 -5 43 -3 53 15 68 16 14 19 27 17 69 -2 29 1 67 5 85 5
22 4 38 -5 48 -17 21 -4 29 25 16 25 -11 25 -11 85 35 3 2 -4 16 -15 31 -11
15 -23 35 -27 45 -4 10 -21 25 -38 35 -18 9 -68 45 -111 80 -47 37 -88 62
-103 62 -13 0 -30 8 -37 19 -22 31 -168 93 -204 86 -35 -6 -144 15 -233 45
-44 15 -84 20 -151 19 -86 -2 -93 -3 -134 -35z m894 -788 c0 -8 -4 -18 -10
-21 -5 -3 -10 -21 -10 -39 0 -24 7 -38 23 -49 18 -12 30 -39 50 -119 15 -56
31 -134 37 -173 5 -38 16 -108 25 -155 11 -64 14 -131 10 -275 -9 -354 -23
-484 -70 -670 -24 -94 -52 -306 -56 -420 -1 -27 -6 -99 -11 -158 -9 -90 -14
-109 -30 -118 -23 -13 -19 -17 -51 54 -15 33 -49 87 -75 120 -90 114 -148 216
-225 394 -25 56 -85 173 -135 260 -150 265 -161 289 -198 448 -16 72 -18 151
-3 160 6 4 24 8 40 9 34 3 54 19 44 36 -5 9 -22 10 -54 5 -57 -9 -315 -22
-656 -34 -143 -5 -307 -12 -365 -16 -108 -8 -405 17 -424 35 -17 17 -24 143
-9 173 l14 27 387 2 c213 1 412 1 442 -1 51 -2 162 13 300 41 30 7 87 12 125
13 120 2 275 18 282 28 9 14 -18 26 -49 21 -15 -2 -42 -6 -59 -9 -31 -5 -31
-4 -25 27 8 40 19 53 81 92 98 63 191 106 290 132 63 17 109 36 126 50 14 13
32 24 40 24 9 0 54 27 100 60 89 64 99 68 99 46z m-465 -146 c-11 -18 -66 -42
-82 -36 -23 9 -10 30 23 37 46 10 66 10 59 -1z m1159 -232 c121 -77 124 -84
70 -165 -20 -30 -56 -96 -80 -147 -24 -52 -50 -99 -57 -105 -17 -13 -82 29
-92 60 -4 12 -31 46 -60 76 -29 30 -61 70 -71 88 -22 42 -15 58 69 154 54 62
93 89 126 91 8 0 50 -23 95 -52z m-3028 -4 c38 -22 45 -31 42 -53 -3 -22 -9
-26 -39 -29 -30 -3 -41 2 -58 24 -28 36 -28 84 1 84 5 0 30 -12 54 -26z m1169
-16 c49 -21 104 -38 123 -38 59 0 30 -23 -51 -41 -66 -14 -137 -16 -514 -15
-285 2 -463 -2 -510 -9 -99 -16 -153 6 -138 55 12 38 56 50 176 50 62 0 178 7
258 15 203 20 235 22 411 21 l155 -1 90 -37z m2122 -43 c-27 -25 -53 -43 -57
-40 -18 11 -1 41 36 62 63 37 73 26 21 -22z m-3312 -61 c50 -8 103 -20 119
-26 l29 -12 -6 -75 c-3 -42 -8 -84 -12 -93 -9 -24 -35 -23 -35 0 0 28 -9 32
-37 17 -30 -16 -51 -8 -80 28 -19 25 -43 25 -43 1 0 -18 -14 -18 -30 1 -8 10
-10 31 -5 64 l7 49 -73 24 c-40 12 -74 28 -76 33 -4 14 129 8 242 -11z m3225
-29 c0 -8 -14 -25 -31 -37 -17 -13 -46 -53 -66 -90 -57 -109 -101 -133 -47
-25 34 68 72 117 90 117 8 0 14 10 14 25 0 18 5 25 20 25 11 0 20 -7 20 -15z
m-438 -137 c31 -40 63 -87 71 -104 9 -17 33 -43 54 -59 21 -16 40 -30 42 -31
5 -4 -198 -407 -220 -435 -23 -30 -37 -18 -82 69 -19 37 -56 103 -81 147 -25
44 -46 88 -46 98 0 18 145 323 178 374 8 13 17 21 21 18 4 -2 32 -37 63 -77z
m-1222 -131 c0 -19 9 -76 20 -128 11 -52 20 -104 20 -115 0 -28 120 -269 200
-404 34 -58 75 -138 91 -178 66 -166 133 -281 245 -421 74 -93 108 -153 119
-213 6 -30 3 -38 -21 -57 -38 -30 -117 -51 -193 -51 -89 0 -252 41 -337 84
-66 35 -94 43 -94 30 0 -10 32 -34 68 -50 53 -24 40 -37 -30 -32 -35 3 -73 0
-86 -5 -16 -7 -26 -7 -33 0 -8 8 4 33 41 88 34 51 49 80 42 87 -18 18 -122
-157 -122 -205 0 -9 -9 -50 -20 -90 -10 -39 -38 -142 -60 -227 -89 -330 -112
-407 -166 -543 -31 -78 -60 -148 -64 -157 -5 -8 -13 -33 -19 -55 -61 -233 -70
-261 -91 -280 -18 -16 -22 -16 -90 11 -55 21 -69 31 -65 43 4 9 15 60 25 113
10 53 32 128 48 165 17 37 33 84 37 103 4 19 17 69 30 110 42 135 83 294 99
380 35 183 59 297 72 340 8 25 25 90 38 145 55 230 161 421 245 442 14 3 35
12 46 19 27 19 96 17 147 -3 53 -20 122 -74 145 -113 15 -27 53 -42 53 -22 0
19 -73 113 -112 145 -61 49 -76 55 -150 61 -35 3 -72 8 -80 11 -18 7 -36 46
-40 85 -3 21 1 25 20 23 26 -3 62 13 62 27 0 6 -14 10 -30 10 -39 0 -60 33
-101 159 l-30 94 26 38 c18 25 25 44 20 58 -8 27 -42 27 -50 1 -10 -30 -23
-24 -29 13 -16 105 -15 112 16 130 24 14 29 22 26 49 -2 27 -10 36 -40 51 -31
14 -38 22 -38 46 0 17 -4 33 -10 36 -21 13 -10 -160 20 -315 5 -25 5 -49 1
-53 -14 -14 -31 20 -46 91 -20 94 -17 421 4 445 11 14 33 17 117 17 l104 0 0
-33z m1003 -353 c49 -68 127 -244 127 -284 0 -36 -30 -113 -55 -140 -8 -9 -30
-58 -50 -110 -35 -88 -97 -207 -153 -293 -31 -46 -43 -34 -36 37 7 79 53 373
69 447 8 37 15 80 15 95 0 56 34 294 42 294 5 0 23 -20 41 -46z m-1095 -599
c18 -25 32 -48 32 -51 0 -3 -24 -28 -54 -55 -128 -117 -202 -308 -291 -749
-58 -290 -129 -568 -179 -700 -13 -36 -39 -126 -56 -200 -35 -146 -50 -184
-76 -194 -27 -10 -102 4 -129 26 -28 21 -26 28 26 132 16 33 29 66 29 75 1 9
8 34 16 56 9 22 16 48 15 58 0 18 95 383 104 397 2 4 7 26 10 49 3 23 9 51 15
61 5 10 10 27 10 37 0 10 19 72 41 138 23 66 41 136 41 155 -1 19 5 57 13 84
8 27 15 66 15 85 0 20 10 70 21 111 78 273 110 340 202 426 53 50 135 104 158
104 3 0 20 -20 37 -45z m264 -639 c240 -47 305 -52 402 -32 43 9 82 16 87 16
16 0 10 -26 -12 -54 -21 -27 -22 -27 -109 -20 -49 3 -121 7 -162 8 -40 2 -111
8 -158 16 -86 13 -221 8 -250 -10 -33 -21 9 -34 112 -35 57 -1 137 -8 178 -15
41 -7 100 -13 130 -14 l55 -1 -3 -80 c-2 -44 -8 -94 -13 -112 -6 -17 -12 -62
-14 -100 -1 -37 -11 -106 -21 -153 -15 -71 -18 -136 -18 -395 -1 -283 1 -313
18 -347 10 -21 21 -38 25 -38 3 0 5 92 5 205 -2 236 2 243 66 145 25 -40 44
-86 55 -133 9 -39 23 -86 32 -104 13 -29 14 -48 4 -143 -7 -68 -8 -117 -2
-128 5 -9 12 -36 16 -59 6 -39 5 -41 -22 -47 -54 -10 -300 -9 -508 3 -288 16
-271 12 -279 66 -9 54 48 344 98 510 19 61 41 144 50 185 9 41 27 125 40 185
14 61 27 139 31 175 3 36 12 90 20 120 8 30 21 84 29 120 9 36 19 75 22 88 4
15 2 22 -8 22 -8 0 -20 -16 -26 -37 -37 -125 -52 -186 -62 -248 -6 -38 -15
-83 -20 -100 -5 -16 -14 -68 -21 -115 -13 -88 -29 -129 -29 -71 0 17 4 62 10
99 5 37 14 114 20 172 14 141 28 215 47 256 13 27 14 37 4 47 -9 9 -14 9 -21
-3 -15 -25 -48 -179 -59 -275 -9 -83 -17 -135 -56 -365 -7 -47 -28 -150 -45
-230 -48 -221 -59 -284 -80 -425 -14 -90 -25 -134 -36 -142 -21 -15 -106 -26
-141 -18 -15 3 -38 14 -51 25 l-22 18 20 34 c11 19 23 57 26 84 3 27 18 76 34
109 15 33 32 71 38 85 10 22 11 20 9 -20 -2 -42 0 -45 24 -48 32 -4 32 -1 54
208 16 146 65 381 86 407 12 13 41 128 65 253 8 41 27 120 44 175 16 55 34
128 39 161 14 93 32 112 121 127 46 8 59 7 132 -7z m405 -147 c20 -7 32 -19
36 -35 2 -13 1 -129 -4 -256 -4 -128 -3 -305 1 -394 5 -93 5 -200 0 -255 -5
-52 -10 -98 -10 -102 0 -19 -19 6 -25 34 -14 61 -57 152 -95 201 -28 34 -40
59 -40 81 1 97 21 278 35 311 13 31 15 57 9 127 -3 48 -3 131 1 184 6 86 9 97
28 105 29 12 29 12 64 -1z m98 -369 c4 -69 5 -150 4 -180 -7 -154 -7 -150 -18
-150 -4 0 -11 32 -15 71 -8 88 4 403 15 392 5 -5 11 -64 14 -133z m-1230 -869
c23 -13 30 -24 30 -47 0 -28 -2 -29 -52 -32 -46 -3 -55 0 -74 22 -13 15 -28
26 -35 26 -25 0 -27 23 -3 43 28 22 84 17 134 -12z m1182 -93 c-3 -7 -5 -2 -5
12 0 14 2 19 5 13 2 -7 2 -19 0 -25z"/>
<path d="M11554 3236 c-26 -26 -34 -43 -34 -68 0 -56 59 -91 90 -54 8 11 39
103 40 123 0 1 -7 9 -16 17 -23 24 -42 20 -80 -18z"/>
<path d="M10587 3548 c-7 -26 3 -88 14 -88 5 0 9 4 9 9 0 6 15 11 33 13 27 2
33 8 35 31 5 38 -12 55 -52 55 -26 0 -36 -5 -39 -20z"/>
<path d="M10778 2973 c-22 -6 -24 -46 -2 -63 22 -19 64 22 48 47 -12 19 -22
22 -46 16z"/>
<path d="M10870 2770 c0 -5 5 -10 10 -10 6 0 10 5 10 10 0 6 -4 10 -10 10 -5
0 -10 -4 -10 -10z"/>
<path d="M3401 5179 c-72 -9 -90 -14 -79 -24 10 -10 219 -15 213 -5 -3 5 -12
10 -20 10 -7 0 -15 7 -19 15 -3 8 -9 14 -13 14 -4 -1 -41 -5 -82 -10z"/>
<path d="M10545 4988 c-131 -109 -223 -247 -201 -303 11 -30 31 -9 36 38 5 36
14 56 42 84 20 21 45 52 55 70 10 17 44 53 76 78 31 26 54 51 51 56 -9 14 -17
11 -59 -23z"/>
<path d="M10628 4916 c-76 -28 -133 -95 -105 -123 13 -13 17 -11 36 16 12 17
29 31 38 31 8 0 27 6 41 14 15 8 46 19 70 26 32 8 42 16 40 28 -4 22 -69 27
-120 8z"/>
<path d="M10583 4751 c-48 -30 -104 -121 -74 -121 5 0 14 14 21 30 7 17 28 44
47 60 27 24 43 30 79 30 60 0 138 -40 160 -82 17 -32 17 -33 27 -10 14 31 -5
64 -53 91 -51 29 -161 30 -207 2z"/>
<path d="M10586 4675 c-9 -25 1 -35 35 -35 26 0 30 3 27 23 -4 28 -52 37 -62
12z"/>
<path d="M10321 4601 c-61 -73 -84 -132 -85 -221 -1 -41 2 -87 7 -102 8 -32
44 -55 59 -40 13 13 17 87 7 138 -11 52 12 144 46 195 26 36 32 64 16 73 -5 3
-28 -16 -50 -43z"/>
<path d="M10745 4588 c-38 -16 -103 -34 -142 -41 -40 -6 -73 -15 -73 -19 0
-15 22 -19 53 -9 17 5 77 22 132 37 100 28 125 39 125 55 0 14 -19 9 -95 -23z"/>
<path d="M3188 4464 c-8 -7 2 -44 12 -44 13 0 32 29 25 40 -7 11 -28 14 -37 4z"/>
<path d="M3455 3865 c-14 -13 -25 -29 -25 -35 0 -14 43 -13 58 2 15 15 16 58
2 58 -6 0 -22 -11 -35 -25z"/>
<path d="M3433 3609 c-12 -12 -6 -39 11 -51 19 -13 35 -9 46 13 20 36 -28 67
-57 38z"/>
<path d="M2353 3577 c2 -7 33 -18 68 -25 118 -24 114 -22 111 -72 l-2 -45 30
35 c36 41 37 53 8 80 -27 25 -39 28 -141 34 -59 4 -77 2 -74 -7z"/>
<path d="M3361 3377 c-14 -17 -4 -27 25 -27 17 0 21 4 17 20 -6 23 -26 26 -42
7z"/>
<path d="M3173 3123 c-42 -14 -52 -26 -34 -38 6 -3 53 -2 105 1 71 5 96 11 96
20 0 9 -12 14 -34 14 -19 0 -38 5 -41 10 -8 14 -42 11 -92 -7z"/>
<path d="M7301 567 c-22 -22 -10 -29 47 -26 31 1 77 -1 102 -4 25 -4 119 -9
210 -12 186 -5 357 -12 475 -20 44 -3 152 -7 240 -10 88 -3 178 -7 200 -10 22
-3 78 -5 125 -5 46 0 122 -5 167 -10 46 -5 90 -7 98 -4 36 14 8 22 -92 28 -60
4 -290 21 -513 38 -276 22 -488 33 -665 35 -143 1 -288 4 -322 6 -36 3 -66 0
-72 -6z"/>
<path d="M4100 540 c-14 -4 -60 -6 -103 -6 -72 1 -78 0 -75 -19 3 -19 11 -20
113 -21 109 -1 150 7 142 29 -5 15 -47 25 -77 17z"/>
<path d="M3663 533 c-24 -3 -33 -9 -33 -23 0 -16 10 -19 70 -22 62 -3 70 -1
70 15 0 17 -39 39 -63 35 -7 0 -27 -3 -44 -5z"/>
<path d="M3841 527 c-9 -11 -8 -17 4 -27 19 -16 47 -5 43 17 -4 23 -31 28 -47
10z"/>
<path d="M2800 524 c-8 -2 -57 -8 -108 -13 -64 -6 -99 -14 -112 -26 -17 -16
-37 -17 -217 -11 -124 4 -228 3 -278 -4 -44 -6 -116 -15 -160 -20 -94 -12
-165 -36 -165 -56 0 -29 43 -36 156 -27 60 4 138 5 174 1 36 -4 95 -4 132 -1
60 5 67 3 77 -15 17 -32 43 -35 135 -16 80 16 87 16 111 0 21 -14 32 -15 58
-7 64 20 217 43 246 36 17 -4 32 -2 36 5 4 6 18 16 32 21 42 16 11 39 -52 39
-37 0 -60 6 -76 19 -13 11 -21 22 -18 25 3 3 30 9 60 13 38 6 54 13 54 23 0
15 -51 23 -85 14z"/>
<path d="M3030 521 c0 -19 30 -31 98 -37 63 -6 72 -5 78 11 4 10 1 21 -7 26
-18 11 -169 12 -169 0z"/>
<path d="M4067 459 c-10 -6 -25 -8 -33 -5 -19 7 -30 -22 -14 -37 10 -9 14 -9
17 0 3 9 27 10 87 6 85 -6 102 0 90 31 -5 12 -20 16 -68 16 -33 0 -69 -5 -79
-11z"/>
<path d="M6618 453 c-6 -7 -7 -14 -2 -14 31 -5 135 -8 309 -10 110 -1 209 -5
221 -10 12 -4 72 -2 134 4 86 8 132 8 194 -2 45 -6 230 -18 412 -26 182 -7
341 -16 355 -19 13 -3 76 -8 139 -11 63 -3 153 -12 200 -19 80 -13 117 -8 94
13 -5 4 -81 14 -169 20 -177 14 -206 16 -350 32 -125 14 -136 15 -440 29 -487
24 -1082 30 -1097 13z"/>
<path d="M3745 451 c-17 -3 -30 -13 -30 -21 0 -11 11 -14 50 -11 56 3 85 18
63 32 -15 10 -39 10 -83 0z"/>
<path d="M3235 439 c-22 -4 -74 -8 -115 -9 -122 -2 -164 -11 -168 -36 -2 -15
-12 -24 -33 -28 -16 -3 -29 -10 -29 -15 0 -14 30 -22 48 -12 9 4 49 14 87 20
39 7 85 17 102 22 18 6 72 14 119 19 87 9 112 19 100 39 -8 12 -52 13 -111 0z"/>
<path d="M7138 359 c-22 -14 18 -22 130 -26 65 -2 135 -6 157 -8 22 -1 155 -8
295 -14 140 -7 331 -16 425 -21 93 -5 172 -7 174 -4 14 13 -33 23 -138 28 -64
4 -183 13 -266 21 -252 23 -753 39 -777 24z"/>
<path d="M8715 351 c-8 -14 42 -33 67 -25 10 3 17 11 15 17 -5 15 -73 21 -82
8z"/>
<path d="M10120 312 c0 -10 179 -57 186 -49 9 8 -29 25 -92 42 -66 17 -94 19
-94 7z"/>
<path d="M9541 278 c-12 -4 -21 -14 -19 -20 5 -14 67 -21 328 -37 113 -7 183
-16 223 -29 57 -19 58 -19 82 0 20 16 44 19 144 21 66 2 124 6 127 10 9 9 27
8 -206 17 -284 11 -578 30 -620 39 -20 4 -46 4 -59 -1z"/>
<path d="M8625 270 c-8 -12 20 -24 35 -15 6 3 8 11 5 16 -8 12 -32 12 -40 -1z"/>
<path d="M8726 261 c-4 -5 -2 -12 3 -15 5 -4 12 -2 15 3 4 5 2 12 -3 15 -5 4
-12 2 -15 -3z"/>
<path d="M10175 170 c-12 -19 151 -69 225 -70 14 0 35 -7 46 -15 12 -8 40 -13
63 -12 42 1 43 2 21 19 -11 9 -42 20 -68 24 -26 3 -52 10 -58 15 -7 6 -200 49
-221 49 -1 0 -5 -5 -8 -10z"/>
<path d="M7651 101 c-19 -3 -36 -12 -39 -20 -4 -11 23 -12 144 -10 141 3 181
10 168 30 -6 10 -219 10 -273 0z"/>
<path d="M7505 89 c-10 -15 3 -25 16 -12 7 7 7 13 1 17 -6 3 -14 1 -17 -5z"/>
<path d="M9825 70 c3 -5 10 -10 16 -10 5 0 9 5 9 10 0 6 -7 10 -16 10 -8 0
-12 -4 -9 -10z"/>
<path d="M9871 36 l-23 -13 32 -7 c51 -10 90 -7 90 7 0 6 -10 12 -22 13 -13 0
-30 4 -38 7 -8 4 -26 0 -39 -7z"/>
<path d="M10498 27 c-16 -6 -28 -14 -28 -19 0 -16 48 -8 71 12 22 18 23 19 4
19 -11 -1 -32 -6 -47 -12z"/>
<path d="M10418 13 c7 -3 16 -2 19 1 4 3 -2 6 -13 5 -11 0 -14 -3 -6 -6z"/>
</g>
</svg>
