<?xml version="1.0" standalone="no"?>
<!DOCTYPE svg PUBLIC "-//W3C//DTD SVG 20010904//EN"
 "http://www.w3.org/TR/2001/REC-SVG-20010904/DTD/svg10.dtd">
<svg version="1.0" xmlns="http://www.w3.org/2000/svg"
 width="1280.000000pt" height="933.000000pt" viewBox="0 0 1280.000000 933.000000"
 preserveAspectRatio="xMidYMid meet">
<metadata>
Created by potrace 1.15, written by Peter Selinger 2001-2017
</metadata>
<g transform="translate(0.000000,933.000000) scale(0.100000,-0.100000)"
fill="#000000" stroke="none">
<path d="M8895 9321 c-22 -5 -83 -15 -136 -24 -54 -8 -106 -20 -117 -26 -12
-6 -32 -11 -46 -11 -14 0 -28 -4 -31 -10 -3 -5 -21 -10 -38 -10 -51 0 -201
-46 -254 -77 -47 -28 -50 -28 -193 -26 -150 2 -302 -17 -328 -42 -11 -10 -11
-17 -2 -34 12 -24 38 -36 109 -52 69 -15 161 -52 161 -65 0 -7 -6 -14 -14 -17
-24 -9 -166 -117 -166 -126 0 -4 -18 -29 -40 -54 -22 -25 -40 -49 -40 -55 0
-5 -7 -15 -16 -23 -34 -28 -86 -171 -106 -294 -28 -169 -16 -422 23 -514 10
-24 19 -47 19 -52 0 -4 -25 -23 -57 -41 -45 -27 -63 -45 -89 -93 -51 -92 -56
-110 -35 -137 l19 -22 103 24 c57 14 108 25 113 25 18 0 37 -101 40 -220 3
-108 5 -120 22 -123 59 -9 64 -12 64 -42 0 -20 6 -31 20 -35 56 -18 121 -102
190 -248 23 -49 53 -101 67 -117 24 -30 85 -52 173 -64 77 -11 173 31 359 158
56 38 103 67 105 65 8 -10 -98 -547 -128 -647 -14 -46 -33 -127 -41 -180 -9
-54 -25 -142 -37 -197 -16 -73 -22 -129 -20 -209 1 -101 3 -111 28 -143 20
-26 29 -32 34 -22 4 8 10 72 13 143 4 99 9 132 20 141 18 13 37 77 37 123 0
60 89 353 132 435 6 12 5 17 -5 17 -7 0 -23 -23 -36 -52 -28 -64 -81 -227 -81
-248 0 -9 -7 -25 -16 -36 -14 -18 -15 -16 -9 26 3 25 17 88 31 140 26 99 28
107 64 280 12 58 26 125 31 150 5 25 11 90 13 145 4 118 11 137 66 196 23 24
49 60 57 79 9 19 24 47 34 62 13 18 16 29 8 33 -6 4 -17 -2 -24 -12 -41 -59
-191 -202 -242 -232 -32 -19 -100 -60 -150 -92 -81 -50 -101 -58 -161 -64
-117 -12 -206 26 -242 102 -11 24 -20 51 -20 62 0 10 -10 30 -21 45 -12 15
-29 48 -38 74 -13 36 -28 54 -68 82 -70 48 -69 48 -39 61 19 9 26 19 24 33 -2
17 -12 22 -50 26 -27 3 -54 12 -60 18 -14 14 -33 105 -48 229 -6 51 -23 116
-44 170 -54 138 -67 175 -77 223 -19 90 -31 258 -26 380 4 139 20 197 86 330
41 82 57 102 178 226 92 93 116 102 177 65 17 -10 47 -22 66 -26 50 -10 138
-39 182 -60 33 -16 38 -24 44 -64 3 -25 15 -79 25 -120 11 -44 19 -109 19
-157 0 -102 16 -119 22 -25 3 37 9 74 13 81 10 17 13 190 3 196 -5 3 -11 -2
-14 -10 -8 -22 -24 -10 -24 18 0 36 9 37 62 4 41 -25 48 -34 43 -52 -13 -41
-33 -162 -33 -201 -1 -22 -7 -74 -15 -115 -30 -150 -30 -147 6 -141 4 0 7 -20
7 -45 0 -57 30 -214 41 -214 5 0 6 27 3 59 -4 33 -1 89 6 128 16 86 49 193 60
193 19 0 20 -21 4 -52 -20 -39 -24 -163 -9 -327 7 -74 14 -106 24 -109 12 -4
13 18 8 141 -5 134 10 318 29 348 14 24 26 6 19 -28 -4 -21 -6 -114 -6 -207 2
-223 17 -259 139 -321 51 -25 52 -9 3 33 l-44 38 16 31 c28 53 30 104 12 283
-10 97 -15 203 -12 241 6 65 -4 98 -17 63 -9 -23 -9 -193 0 -250 5 -34 4 -45
-5 -40 -6 4 -11 16 -11 27 0 10 -5 19 -10 19 -6 0 -8 -10 -5 -22 10 -47 24
-105 40 -167 9 -39 12 -68 6 -75 -5 -6 -11 -22 -13 -36 -4 -35 -33 -37 -46 -3
-6 15 -14 123 -17 238 -6 178 -5 217 9 255 29 84 15 94 -35 25 -18 -25 -37
-44 -43 -42 -16 6 -8 48 15 80 14 20 18 32 11 39 -7 7 -12 3 -17 -12 -4 -12
-21 -43 -38 -68 -27 -40 -32 -44 -35 -25 -2 11 9 56 23 98 14 43 24 80 21 82
-9 9 -26 -9 -46 -48 -18 -33 -40 -52 -40 -33 0 25 44 144 53 144 7 0 39 -21
72 -46 33 -24 88 -66 123 -91 34 -26 62 -50 62 -55 0 -5 11 -13 24 -18 13 -4
61 -35 107 -68 46 -32 127 -84 180 -115 57 -33 99 -65 105 -79 15 -35 18 -225
3 -259 -8 -22 -9 -33 -1 -41 19 -19 46 97 45 200 0 94 5 105 37 79 32 -25 46
-255 20 -329 -12 -37 12 -39 28 -3 15 32 35 201 27 226 -4 11 -2 19 4 19 26 0
26 -102 -1 -303 -10 -74 -16 -92 -36 -108 -47 -37 -66 -25 -134 81 -39 63 -41
64 -50 40 -15 -38 -2 -117 27 -165 22 -39 23 -45 10 -58 -26 -26 -83 -40 -133
-32 -106 17 -178 12 -142 -10 25 -16 126 -35 173 -33 29 1 82 2 120 0 l67 -2
16 -40 c23 -58 75 -100 124 -100 21 0 41 -3 43 -8 3 -4 -12 -29 -34 -56 -30
-37 -40 -44 -45 -32 -3 9 -10 16 -15 16 -12 0 -118 -221 -126 -263 -3 -18 -30
-82 -59 -143 -56 -117 -104 -269 -123 -394 -7 -41 -21 -115 -31 -165 -36 -173
-43 -256 -35 -402 4 -76 8 -163 10 -193 3 -69 38 -250 69 -355 23 -80 33 -101
113 -252 50 -97 168 -254 256 -345 71 -73 69 -68 92 -243 8 -66 20 -142 25
-170 11 -55 33 -209 55 -385 17 -137 40 -294 65 -445 9 -60 15 -114 12 -119
-3 -5 -51 -6 -107 -3 -91 5 -112 10 -186 44 -67 30 -164 82 -188 99 -1 2 6 13
18 25 12 13 30 41 41 63 36 75 8 129 -134 256 -96 87 -154 164 -217 290 -29
58 -72 128 -96 156 -24 28 -43 56 -43 63 0 6 -20 52 -45 101 -25 49 -57 125
-71 167 -14 43 -33 91 -41 107 -13 25 -35 118 -64 266 -16 83 -29 216 -28 299
0 65 -3 87 -17 102 -21 23 -40 24 -48 2 -9 -22 -9 -270 -1 -283 4 -6 9 -45 12
-88 4 -74 99 -427 121 -456 5 -6 15 -29 22 -51 17 -55 74 -157 130 -235 26
-36 69 -105 95 -155 90 -167 184 -283 298 -368 21 -16 49 -46 63 -67 39 -59
27 -98 -57 -185 -97 -100 -168 -182 -214 -245 -22 -30 -78 -99 -125 -153 -47
-54 -104 -124 -128 -155 -24 -31 -54 -68 -66 -82 -22 -25 -110 -199 -158 -315
-14 -33 -40 -94 -58 -135 -36 -84 -77 -190 -91 -234 -4 -16 -15 -36 -22 -45
-8 -9 -22 -41 -32 -71 -10 -30 -29 -76 -42 -101 -26 -52 -69 -177 -88 -254
-14 -57 -128 -353 -205 -530 -28 -66 -55 -129 -60 -140 -6 -14 -9 -4 -9 37 -1
31 -7 85 -15 120 -8 35 -14 107 -14 160 -1 65 -6 108 -16 130 -8 18 -16 51
-18 73 -3 37 -5 40 -36 43 -21 2 -57 -8 -103 -29 -80 -37 -140 -97 -157 -157
-6 -20 -25 -84 -42 -142 -30 -99 -31 -111 -25 -212 8 -136 24 -193 74 -277 23
-37 41 -72 41 -78 0 -6 7 -16 16 -24 8 -7 24 -29 35 -48 11 -20 29 -50 39 -67
11 -17 29 -68 41 -115 48 -197 56 -215 126 -284 67 -67 115 -90 156 -77 12 4
101 6 197 3 96 -2 258 -4 359 -3 172 1 185 -1 200 -19 15 -18 21 -19 64 -9 27
6 53 7 60 3 12 -7 116 -7 339 2 78 3 129 1 133 -5 4 -6 -6 -10 -22 -10 -15 0
-35 -5 -43 -10 -13 -9 -13 -11 0 -19 19 -13 173 -13 235 0 34 8 78 8 140 1 49
-6 94 -7 100 -4 19 12 189 1 223 -14 18 -8 47 -14 65 -12 30 3 32 6 35 44 3
38 1 43 -27 52 -16 6 -31 9 -33 6 -2 -2 -60 4 -129 13 -85 12 -198 18 -358 18
-167 1 -236 4 -239 13 -2 6 15 36 38 66 42 55 42 55 40 138 -1 46 -2 96 -3
112 -1 16 4 31 11 33 7 3 12 -4 12 -16 0 -30 11 -26 74 25 46 38 65 64 104
143 27 53 62 119 79 146 78 128 103 174 103 187 0 7 14 40 30 73 16 33 30 65
30 72 0 6 10 33 21 60 12 26 38 91 59 143 93 233 115 280 130 280 13 0 19 -24
57 -195 50 -233 83 -442 83 -531 0 -126 32 -330 85 -539 24 -96 33 -231 19
-269 -4 -11 -19 -16 -51 -16 -52 0 -111 -26 -95 -42 12 -12 253 -24 382 -19
121 4 434 -11 775 -38 153 -12 205 -13 205 -3 0 13 -88 31 -185 38 -92 6 -236
27 -267 39 -14 5 -15 12 -6 36 11 33 14 34 105 15 37 -8 107 -17 156 -21 77
-6 92 -4 127 14 51 26 61 26 113 -1 41 -22 47 -22 428 -20 369 2 393 3 520 28
74 14 168 29 209 34 41 5 76 9 78 9 1 1 2 21 2 45 l0 45 -37 -6 c-21 -3 -54
-9 -73 -14 -19 -5 -58 -9 -87 -9 -29 0 -103 -7 -165 -15 -97 -12 -558 -25
-1098 -29 l-95 -1 -2 30 c-8 98 -50 282 -80 353 -9 20 -20 71 -24 112 -9 92
-21 146 -42 185 -9 17 -23 66 -32 110 -8 44 -18 94 -22 110 -3 17 -10 35 -15
42 -5 7 -7 20 -4 30 3 10 -1 43 -9 73 -9 30 -22 93 -30 140 -8 47 -19 96 -24
110 -11 27 -32 103 -37 135 -2 11 -10 56 -18 100 -8 44 -21 97 -30 117 -9 21
-16 54 -16 74 0 21 -8 54 -17 75 -14 32 -19 36 -35 28 -21 -11 -24 -44 -5 -56
6 -4 13 -24 13 -43 1 -19 8 -71 17 -115 9 -44 23 -127 32 -185 18 -116 33
-178 71 -290 14 -41 36 -129 49 -195 14 -66 33 -158 44 -205 11 -47 27 -123
36 -170 9 -47 23 -110 30 -140 48 -195 81 -389 72 -414 -5 -13 -13 -15 -29
-11 -57 17 -64 28 -77 132 -7 54 -21 136 -31 183 -24 110 -50 232 -62 295 -6
28 -14 58 -19 68 -5 10 -16 57 -25 105 -8 48 -23 103 -33 122 -9 19 -23 62
-30 95 -7 33 -22 90 -32 127 -11 37 -26 114 -35 170 -8 57 -21 130 -29 163 -7
33 -23 121 -35 195 -12 74 -25 139 -28 144 -3 5 -11 1 -19 -9 -22 -31 -36 -3
-39 77 -1 40 -8 98 -17 128 -22 82 -37 171 -37 217 0 23 -6 48 -13 55 -39 38
-44 100 -12 138 7 8 25 36 40 63 20 34 33 47 50 47 25 0 35 17 35 58 0 15 27
74 60 132 34 58 63 116 66 130 7 26 58 133 100 209 33 59 67 195 61 243 -7 51
15 51 83 -3 28 -22 122 -86 208 -142 l157 -101 74 -1 c67 0 75 2 92 25 31 42
57 200 63 385 15 430 19 571 17 585 -1 8 -6 69 -11 135 -17 212 -38 367 -54
394 -5 7 -21 63 -36 126 -16 62 -38 144 -50 181 -13 38 -26 87 -30 109 -12 57
-63 191 -95 248 -16 27 -29 67 -30 90 -1 23 -10 60 -20 82 -32 74 -43 100 -49
119 -7 20 -24 49 -108 182 -27 41 -59 96 -72 122 -15 30 -40 59 -65 75 -25 16
-43 38 -47 55 -4 15 -22 45 -40 67 -19 22 -62 77 -96 122 -35 45 -96 124 -137
175 -40 51 -80 108 -88 127 -18 42 -287 309 -365 362 -32 22 -87 62 -124 89
-96 73 -170 108 -248 116 l-65 7 -68 80 c-88 104 -109 117 -198 117 -77 0
-108 12 -138 52 -28 37 -17 73 25 86 18 5 59 17 91 27 53 16 76 35 42 35 -31
0 -65 23 -65 45 0 13 -7 28 -15 35 -14 12 -22 70 -9 70 3 0 26 -23 51 -50 65
-73 110 -94 195 -91 42 1 98 42 98 72 0 23 -12 24 -69 2 l-45 -17 -20 28 c-12
16 -40 52 -64 80 -62 73 -101 156 -119 252 -20 111 -17 117 51 109 85 -11 145
14 228 94 99 95 119 131 119 224 0 45 -6 89 -15 112 -9 20 -13 41 -11 46 21
33 -110 176 -198 216 -46 21 -57 33 -92 94 -48 86 -169 205 -275 271 -49 30
-115 59 -188 82 -123 39 -195 49 -257 37z m205 -74 c46 -17 184 -88 190 -97 3
-4 20 -15 38 -24 17 -9 32 -20 32 -24 0 -4 31 -40 70 -80 56 -59 82 -97 135
-203 79 -157 81 -181 28 -251 -31 -40 -47 -52 -91 -64 -55 -16 -90 -15 -222 6
-88 14 -124 33 -144 75 -24 50 -228 243 -339 321 -94 66 -141 90 -342 176 -74
32 -95 45 -95 59 0 16 93 49 139 49 25 1 71 10 101 21 81 29 172 51 194 45 11
-3 29 0 40 6 52 29 170 22 266 -15z m-920 -150 c41 4 88 7 104 5 26 -2 104
-33 211 -82 22 -11 51 -24 65 -30 206 -92 496 -365 593 -558 11 -20 28 -47 40
-59 72 -78 -158 70 -258 166 -100 96 -204 177 -260 202 -26 11 -73 36 -104 54
-31 18 -92 47 -136 64 -44 18 -102 41 -130 52 -58 24 -125 46 -250 84 -188 56
-206 65 -186 89 15 18 112 25 186 13 28 -4 84 -4 125 0z m1612 -405 c54 -71
74 -143 64 -230 -8 -68 -24 -106 -71 -168 -56 -74 -79 -85 -182 -87 -79 -1
-96 2 -170 32 -86 35 -119 65 -161 146 -11 22 -29 49 -41 59 -20 19 -29 46
-13 46 4 0 54 -9 112 -21 156 -30 209 -18 286 63 35 36 44 53 54 110 7 37 9
79 6 94 -4 14 -4 35 -1 45 7 20 8 19 38 -4 18 -14 53 -52 79 -85z m-1242 -408
c0 -8 -5 -12 -10 -9 -6 4 -8 11 -5 16 9 14 15 11 15 -7z m-835 -606 c8 -63 11
-61 -75 -71 -19 -3 -45 -8 -58 -12 -19 -6 -21 -5 -16 11 10 27 127 145 135
136 4 -4 10 -33 14 -64z m1970 -8 c8 0 15 -4 15 -10 0 -21 -46 -8 -77 22 -48
46 -42 68 7 24 22 -20 47 -36 55 -36z m-180 -30 c25 -28 7 -47 -26 -30 -32 17
-30 15 -23 34 8 22 27 20 49 -4z m-147 -12 c7 -7 12 -21 12 -32 0 -18 -1 -18
-25 4 -13 12 -22 27 -19 31 7 12 18 11 32 -3z m-20 -64 c37 -26 28 -44 -23
-44 -49 0 -56 11 -28 42 20 22 23 22 51 2z m348 -248 c22 -24 47 -58 57 -75
18 -30 18 -31 0 -37 -10 -3 -59 -21 -109 -41 -69 -27 -101 -45 -130 -77 -61
-64 -91 -108 -102 -147 -5 -20 -34 -70 -65 -110 -52 -70 -87 -148 -87 -193 0
-14 -3 -17 -11 -9 -16 16 31 160 91 278 27 54 50 103 50 109 0 7 23 47 50 91
28 44 50 86 50 93 0 8 30 52 67 98 76 93 76 93 139 20z m257 -202 c45 -20 128
-68 183 -107 122 -86 294 -248 294 -276 0 -22 35 -51 62 -51 10 0 31 -24 52
-57 19 -32 51 -75 70 -97 19 -21 61 -74 93 -118 32 -44 88 -118 126 -166 37
-48 67 -90 67 -95 0 -4 23 -41 50 -82 28 -41 50 -78 50 -83 0 -5 16 -22 35
-36 31 -24 35 -32 35 -71 0 -31 5 -48 18 -57 27 -19 73 -92 117 -183 21 -44
44 -87 50 -95 15 -18 28 -87 29 -152 1 -33 -5 -55 -20 -75 -34 -45 -113 -100
-194 -134 -41 -17 -93 -39 -115 -49 -103 -45 -343 -68 -465 -43 -30 6 -88 16
-127 23 -59 10 -73 15 -73 30 0 10 11 25 24 33 31 21 63 73 81 132 16 56 7
175 -22 254 -14 40 -15 52 -4 64 11 14 20 13 84 -9 42 -14 84 -37 103 -55 31
-30 32 -30 43 -11 23 44 -68 186 -208 322 -25 25 -75 77 -111 115 -98 105
-168 165 -400 342 -233 177 -264 205 -316 288 -33 53 -51 72 -58 65 -14 -14
43 -121 104 -198 25 -30 131 -125 235 -210 334 -271 635 -554 635 -596 0 -16
-45 -13 -180 9 -47 8 -115 17 -153 20 -37 3 -99 17 -138 31 -39 14 -105 30
-147 35 -42 5 -108 14 -147 19 -156 23 -165 22 -232 -10 -73 -36 -178 -143
-217 -223 -31 -61 -33 -84 -6 -92 11 -3 20 -11 20 -17 0 -20 -54 -117 -62
-112 -13 8 -9 52 5 57 9 3 4 44 -21 173 -40 208 -47 345 -22 430 10 32 23 93
30 134 24 140 118 330 204 409 24 23 36 61 19 61 -5 0 -23 -9 -41 -20 -62 -38
-66 -33 -59 81 4 56 12 108 18 116 17 20 76 43 110 43 35 0 62 36 57 77 -1 15
1 49 5 74 7 40 16 53 79 110 39 35 81 67 92 70 12 4 56 5 99 3 63 -3 95 -11
160 -40z m-459 -103 c9 -14 -32 -103 -44 -96 -14 9 -12 29 7 70 17 35 27 43
37 26z m-194 -461 c0 -20 6 -31 20 -35 19 -6 17 -10 -20 -66 -23 -32 -45 -59
-50 -59 -11 0 -7 52 8 105 6 22 14 53 17 68 7 35 25 26 25 -13z m-66 -47 c-10
-70 -27 -91 -20 -25 5 51 12 72 22 72 3 0 2 -21 -2 -47z m-34 -242 c0 -6 -4
-13 -10 -16 -5 -3 -10 1 -10 9 0 9 5 16 10 16 6 0 10 -4 10 -9z m595 -544
c121 -21 130 -24 135 -47 4 -15 -13 -79 -45 -175 -77 -226 -109 -285 -139
-255 -8 8 -7 15 5 23 31 24 69 92 69 124 0 41 -15 42 -66 8 -41 -28 -61 -28
-56 1 15 82 -5 97 -30 23 -21 -60 -13 -79 33 -79 18 0 29 -5 29 -14 0 -17 -85
-96 -104 -96 -22 0 -72 63 -91 116 -10 27 -27 58 -38 69 -19 20 -19 20 -14
-33 4 -33 19 -75 42 -116 29 -52 33 -65 22 -75 -33 -27 -119 97 -97 139 15 29
12 55 -10 75 -24 22 -48 14 -55 -20 -3 -14 -7 -36 -10 -50 -7 -34 -17 -31 -37
13 -14 30 -16 45 -8 72 6 19 10 56 10 83 0 60 18 103 61 144 34 32 109 77 145
86 41 10 125 5 249 -16z m361 -38 c106 -19 134 -29 134 -47 0 -10 6 -26 13
-37 26 -40 45 -112 51 -195 6 -100 -6 -136 -76 -213 l-43 -48 -143 49 c-192
67 -252 107 -224 153 43 70 100 200 113 259 21 93 43 103 175 79z m-843 -399
c22 -77 22 -80 -7 -80 -27 0 -56 24 -56 46 0 20 31 94 39 94 4 0 15 -27 24
-60z m2072 -57 c4 -20 15 -55 25 -77 10 -23 26 -72 35 -111 10 -38 23 -90 30
-115 18 -63 35 -147 39 -200 12 -138 27 -272 37 -325 15 -87 29 -565 18 -611
-5 -22 -6 -57 -3 -79 7 -50 -13 -315 -26 -349 -13 -35 -34 -32 -100 9 -30 19
-59 35 -66 35 -17 0 -106 49 -134 74 -32 29 -88 61 -121 69 -14 4 -50 28 -81
54 -30 26 -88 73 -128 103 -40 30 -96 74 -124 97 -28 23 -96 72 -151 109 -55
37 -141 104 -192 148 -51 45 -125 105 -165 134 -97 70 -112 84 -186 174 -35
42 -89 96 -120 120 -61 47 -112 118 -112 156 0 13 -5 32 -10 43 -29 53 -48
-16 -24 -86 18 -53 30 -73 118 -191 83 -111 136 -165 251 -252 55 -42 134
-107 175 -145 41 -38 136 -110 210 -159 74 -50 144 -99 155 -109 11 -10 42
-38 69 -62 27 -24 46 -49 43 -54 -12 -18 -87 -49 -262 -106 -223 -73 -316 -96
-439 -107 -55 -5 -116 -12 -135 -16 -44 -9 -61 12 -61 77 0 26 -6 82 -14 125
-8 44 -17 108 -21 144 -3 36 -12 108 -20 160 -8 52 -19 131 -24 175 -6 44 -19
130 -30 190 -11 61 -25 162 -31 225 -6 63 -16 133 -22 155 -6 22 -12 63 -13
91 -2 28 -10 80 -19 115 -8 35 -18 130 -22 212 l-6 147 58 0 c90 0 128 -13
394 -136 130 -59 241 -87 373 -92 127 -4 311 17 377 45 19 8 87 28 150 44 115
30 190 67 190 94 0 15 35 80 58 108 14 16 17 16 33 1 9 -8 20 -32 24 -51z
m-1701 -49 c3 -9 6 -34 6 -57 0 -110 35 -408 85 -717 14 -91 32 -219 40 -285
8 -66 21 -156 29 -200 9 -44 15 -97 16 -118 0 -21 4 -57 9 -80 5 -23 14 -78
20 -122 17 -132 51 -386 61 -458 6 -37 10 -89 10 -116 0 -26 5 -73 10 -102 45
-229 60 -322 60 -374 0 -33 5 -79 10 -102 6 -24 15 -75 20 -115 6 -40 26 -142
46 -228 47 -208 61 -278 80 -389 8 -52 20 -103 25 -113 5 -9 14 -39 19 -65 5
-27 23 -100 40 -163 30 -116 40 -178 60 -395 6 -66 15 -136 20 -155 5 -19 17
-69 25 -110 9 -41 23 -104 31 -140 9 -36 22 -119 30 -185 34 -272 34 -270 -1
-263 -23 4 -30 19 -45 93 -7 33 -16 80 -21 105 -5 25 -16 88 -24 140 -8 52
-24 151 -35 220 -12 69 -28 168 -36 220 -20 124 -34 199 -77 405 -20 94 -39
204 -43 245 -4 41 -14 85 -22 98 -8 12 -12 34 -9 49 3 14 -2 45 -9 67 -8 22
-21 79 -30 126 -8 47 -22 123 -30 170 -8 47 -28 137 -44 200 -15 63 -31 135
-35 160 -3 25 -13 72 -20 105 -7 33 -19 98 -25 145 -6 47 -18 121 -26 166 -11
58 -12 88 -5 107 8 21 6 48 -8 110 -18 78 -38 195 -61 357 -5 41 -14 95 -20
120 -5 25 -16 117 -25 205 -17 174 -31 285 -71 560 -15 99 -28 195 -29 213 -4
40 -31 213 -50 307 -16 83 -35 254 -35 311 0 33 5 43 23 52 32 16 54 14 61 -4z
m-152 -24 c15 -7 30 -20 32 -29 9 -34 18 -341 9 -341 -17 0 -147 149 -173 199
-6 13 -28 44 -47 70 -37 48 -64 101 -57 112 7 12 208 3 236 -11z m1397 -1574
c13 -16 4 -99 -15 -138 -8 -15 -14 -35 -14 -45 0 -10 -25 -66 -55 -125 -30
-58 -55 -113 -55 -122 0 -9 -13 -44 -29 -78 -104 -224 -144 -300 -191 -356
-79 -98 -192 -268 -239 -362 -24 -46 -49 -93 -57 -104 -8 -11 -14 -27 -14 -35
0 -23 -79 -181 -91 -181 -29 0 -59 161 -99 540 -6 58 -18 143 -25 190 -8 47
-17 126 -21 176 l-7 91 46 32 c25 17 50 31 55 31 6 0 21 9 34 20 12 11 75 59
138 106 63 47 144 114 180 149 58 57 78 69 179 110 63 25 120 50 127 56 26 21
100 58 120 58 12 1 27 -5 33 -13z m-1601 -111 c26 -14 58 -32 72 -40 60 -33
227 -79 310 -84 l85 -6 6 -65 c12 -115 28 -244 39 -294 8 -37 7 -54 -2 -67
-12 -17 -113 -100 -223 -184 -29 -22 -85 -67 -125 -100 -117 -98 -348 -255
-374 -255 -2 0 -6 10 -8 22 -4 31 -34 35 -43 6 -16 -53 -58 -152 -130 -303
-42 -88 -90 -187 -105 -220 -51 -108 -91 -189 -137 -275 -25 -47 -53 -107 -63
-135 -10 -27 -34 -84 -53 -125 -19 -41 -46 -106 -60 -145 -85 -236 -130 -328
-194 -396 -55 -59 -78 -64 -69 -16 6 31 3 35 -42 65 -58 38 -72 52 -111 122
-79 139 -81 175 -21 310 23 52 50 115 59 140 9 25 20 51 25 58 10 16 60 153
93 252 26 79 36 105 53 130 5 8 24 53 42 100 17 47 39 96 49 110 26 39 65 135
105 265 9 28 23 64 32 80 25 46 62 138 62 153 0 7 13 39 29 70 16 31 44 86 61
122 43 86 86 150 159 235 94 109 243 295 281 350 45 67 119 145 137 145 7 0
35 -11 61 -25z m1082 -72 c0 -19 -297 -252 -370 -291 l-37 -19 -12 58 c-6 32
-14 87 -18 122 l-6 64 64 7 c35 4 85 13 110 22 25 8 88 21 140 28 116 17 129
18 129 9z m-546 -555 c18 -68 -6 -163 -58 -233 -56 -75 -199 -377 -254 -535
-8 -25 -26 -72 -40 -105 -13 -33 -30 -85 -38 -115 -8 -30 -23 -73 -33 -95 -11
-22 -42 -114 -71 -205 -28 -91 -58 -185 -66 -210 -9 -25 -24 -76 -36 -114 -26
-89 -55 -156 -67 -156 -9 0 -81 94 -81 106 0 8 -58 132 -117 250 -51 104 -76
122 -174 131 -51 5 -57 3 -76 -20 -41 -53 -36 -351 11 -592 26 -132 55 -205
110 -280 28 -38 59 -82 68 -96 9 -15 40 -52 67 -84 l51 -58 0 -73 c0 -40 5
-85 10 -100 6 -15 8 -29 6 -32 -3 -2 -51 3 -108 12 -57 9 -130 21 -163 26
-124 20 -259 30 -402 30 -81 0 -171 3 -199 6 l-52 7 9 31 c29 95 41 152 54
251 8 60 18 112 23 116 4 3 30 12 57 18 66 16 132 55 149 89 7 15 32 90 55
167 56 191 71 236 92 266 10 14 21 37 24 52 4 15 16 44 26 64 10 21 19 45 19
55 0 9 4 19 9 22 9 6 181 349 181 361 0 4 18 37 39 73 22 37 52 96 67 132 15
36 37 79 49 95 12 17 36 57 53 91 19 38 53 82 94 119 70 65 175 145 190 145 8
0 64 46 223 184 22 19 86 71 141 115 56 45 107 88 114 96 18 22 37 18 44 -7z
m30 -234 c3 -9 6 -29 6 -45 0 -16 12 -78 26 -137 14 -59 32 -143 39 -187 8
-44 21 -105 30 -135 8 -30 15 -69 15 -87 0 -18 11 -77 25 -133 26 -99 26 -100
6 -127 -10 -16 -32 -64 -49 -108 -94 -251 -148 -377 -268 -620 -72 -148 -135
-279 -138 -290 -3 -12 -26 -41 -51 -65 l-45 -44 -46 24 c-43 23 -209 163 -244
204 -12 16 -11 28 15 104 16 48 52 148 81 222 28 74 57 162 64 195 7 33 19 69
26 80 8 11 14 28 14 38 0 11 6 33 13 50 8 18 25 66 40 107 43 124 50 144 58
165 4 11 10 34 13 52 6 38 90 255 116 299 9 17 23 48 30 70 16 49 103 227 155
317 39 67 58 81 69 51z m649 -166 c8 -29 22 -114 31 -188 26 -199 43 -281 91
-425 12 -38 26 -86 30 -105 4 -19 16 -47 26 -62 12 -16 19 -43 19 -69 0 -41
13 -99 66 -294 13 -49 24 -97 24 -106 0 -9 6 -22 14 -28 10 -8 13 -23 9 -45
-3 -18 0 -43 6 -55 7 -12 14 -67 16 -124 2 -56 11 -138 19 -182 8 -44 18 -107
22 -140 3 -33 13 -87 20 -120 25 -112 51 -220 66 -280 9 -33 19 -75 22 -93 l6
-34 -38 6 c-56 9 -317 26 -399 26 -64 0 -73 2 -73 18 0 10 13 31 29 46 25 24
28 33 24 69 -9 88 -56 325 -78 397 -13 41 -26 95 -29 118 -4 24 -15 61 -26 83
-11 21 -20 46 -20 55 0 9 -8 47 -19 83 -10 36 -26 102 -35 146 -10 44 -22 95
-28 114 -11 36 -27 101 -57 236 -10 44 -23 98 -29 120 -49 174 -70 299 -53
309 6 4 11 15 11 25 0 39 193 418 245 481 25 30 45 58 45 62 0 5 6 8 14 8 9 0
20 -20 29 -52z m147 -508 c0 -5 -2 -10 -4 -10 -3 0 -8 5 -11 10 -3 6 -1 10 4
10 6 0 11 -4 11 -10z m-2888 -832 c0 -7 2 -18 2 -25 1 -6 9 -19 18 -30 9 -10
19 -43 23 -73 11 -100 11 -100 48 -94 17 4 52 16 76 28 49 24 37 31 102 -62
17 -24 52 -57 79 -74 46 -29 48 -32 43 -67 -10 -65 -19 -73 -71 -68 -61 5
-144 29 -176 51 -37 23 -135 144 -156 191 -32 69 -44 145 -31 193 11 39 39 59
43 30z m1343 -68 c14 -16 16 -30 12 -82 -4 -35 -9 -77 -13 -94 -5 -28 1 -39
66 -112 41 -47 68 -86 64 -93 -9 -15 -65 -5 -98 16 -37 25 -176 229 -176 259
0 43 18 74 57 100 47 30 65 32 88 6z m-1181 -821 c-7 -11 -34 -12 -34 -1 0 14
11 21 26 15 8 -3 11 -9 8 -14z m1113 -27 c27 -16 -60 -25 -164 -18 -48 3 -135
8 -193 11 -117 6 -156 13 -145 23 23 23 457 9 502 -16z"/>
<path d="M9882 4875 c-7 -14 -12 -48 -12 -75 0 -41 4 -52 26 -69 34 -27 103
-28 133 -3 24 19 43 73 32 91 -10 16 -28 -5 -33 -39 -2 -20 -9 -25 -42 -27
-22 -1 -48 3 -58 8 -20 11 -21 33 -6 114 5 30 -26 30 -40 0z"/>
<path d="M10230 4525 c-19 -20 -22 -31 -17 -72 6 -58 41 -93 90 -91 17 0 41
-2 52 -5 30 -10 43 4 50 48 4 27 2 46 -8 59 -14 19 -15 19 -26 -2 -15 -29 -43
-28 -78 2 -25 22 -27 27 -15 46 26 42 -11 54 -48 15z"/>
<path d="M10587 4212 c-10 -10 -17 -35 -17 -55 0 -28 6 -40 29 -56 27 -19 29
-20 44 -3 13 15 14 20 2 42 -9 15 -12 38 -9 58 5 27 3 32 -13 32 -11 0 -27 -8
-36 -18z"/>
<path d="M7957 8542 c-9 -10 -17 -23 -17 -29 0 -6 -32 -55 -71 -109 -68 -96
-119 -182 -119 -204 0 -27 25 -3 73 73 30 45 81 112 115 150 63 69 72 90 49
121 -12 16 -14 16 -30 -2z"/>
<path d="M8864 8395 c-4 -21 -4 -76 0 -124 3 -47 9 -135 13 -194 3 -59 10
-110 15 -113 12 -8 0 448 -12 460 -5 5 -12 -7 -16 -29z"/>
<path d="M8040 8356 c-50 -34 -131 -136 -192 -241 -47 -81 -52 -96 -53 -150 0
-55 2 -60 23 -63 21 -3 49 15 278 182 61 44 79 72 63 97 -6 11 -18 4 -51 -27
-65 -61 -226 -174 -249 -174 -14 0 -3 52 23 108 16 33 24 42 37 36 41 -18 67
-15 93 9 35 33 44 69 28 118 -12 36 -12 41 6 54 52 37 57 43 51 59 -8 21 -16
20 -57 -8z"/>
<path d="M8951 8314 c-15 -35 -33 -212 -27 -276 4 -47 20 -73 37 -63 3 3 12
25 19 50 19 67 32 73 69 28 46 -55 65 -129 56 -219 -7 -74 -22 -101 -50 -90
-9 3 -15 18 -15 34 0 38 -9 46 -32 25 -23 -21 -23 -33 4 -87 26 -53 45 -65 54
-32 3 13 17 29 30 35 40 18 57 73 58 191 1 124 -12 159 -74 190 -22 11 -40 27
-40 34 0 8 -9 16 -20 19 -16 4 -18 11 -13 41 4 26 2 36 -7 36 -10 0 -11 -14
-7 -57 6 -57 -11 -113 -34 -113 -15 0 -8 208 8 242 7 15 9 29 4 32 -4 3 -13
-6 -20 -20z"/>
<path d="M9178 8043 c2 -76 6 -140 9 -143 11 -12 23 30 23 79 0 59 -19 181
-30 194 -4 5 -5 -54 -2 -130z"/>
<path d="M8715 7817 c-4 -13 0 -40 8 -59 12 -30 13 -38 0 -61 -14 -27 -37 -35
-48 -17 -4 7 -13 6 -26 -1 -20 -10 -20 -10 0 -45 26 -43 26 -44 2 -44 -29 0
-34 -16 -16 -44 26 -39 16 -60 -30 -66 l-40 -6 31 -19 c28 -17 31 -23 29 -64
-1 -36 -6 -46 -25 -53 -23 -9 -23 -9 25 -58 54 -55 65 -60 65 -30 0 22 38 28
57 9 6 -6 16 -8 23 -4 22 13 -20 45 -60 45 -43 0 -65 20 -55 50 5 15 15 20 43
20 40 0 71 14 54 23 -5 4 -26 6 -46 5 -20 -1 -39 2 -42 5 -30 29 94 69 151 48
38 -14 45 -14 45 -1 0 5 -13 16 -29 25 -22 11 -31 23 -33 47 -2 27 -8 34 -28
36 -30 5 -50 20 -50 38 0 8 20 15 58 19 31 4 72 11 91 17 l34 11 -44 21 c-38
18 -49 31 -81 96 -40 81 -54 94 -63 57z m64 -140 c14 -17 4 -27 -26 -27 -25 0
-29 10 -11 28 15 15 23 15 37 -1z m-34 -173 c17 -13 18 -16 5 -24 -17 -11 -42
-13 -64 -4 -12 5 -13 10 -5 25 12 23 37 24 64 3z"/>
<path d="M9336 7364 c-4 -10 -26 -47 -50 -83 -38 -58 -67 -131 -52 -131 3 0
14 21 25 46 11 25 32 59 45 75 24 29 52 96 43 105 -2 3 -7 -3 -11 -12z"/>
<path d="M9032 7268 c-5 -7 -13 -24 -17 -38 l-7 -25 26 24 c25 24 35 51 17 51
-5 0 -13 -6 -19 -12z"/>
<path d="M9119 6976 c-19 -27 -53 -74 -75 -105 -23 -31 -53 -78 -67 -106 -14
-27 -43 -84 -66 -125 -43 -80 -53 -112 -26 -90 8 7 15 17 15 22 0 15 152 276
175 302 35 39 87 125 83 138 -3 7 -20 -9 -39 -36z"/>
<path d="M8946 6544 c-9 -8 -16 -22 -16 -31 0 -8 -16 -33 -35 -56 -44 -51 -45
-90 -3 -95 22 -3 34 6 72 55 52 65 61 114 27 133 -25 13 -27 13 -45 -6z"/>
<path d="M8846 6514 c-3 -9 -6 -23 -6 -32 1 -12 5 -10 15 8 8 14 14 28 15 33
0 13 -18 7 -24 -9z"/>
<path d="M4470 6350 c-8 -5 -54 -7 -105 -3 -79 5 -94 3 -125 -15 -19 -11 -52
-24 -73 -27 -60 -11 -64 -35 -5 -40 17 -1 34 -7 36 -13 2 -8 -21 -10 -77 -6
-77 5 -83 4 -112 -20 -17 -14 -39 -26 -49 -26 -10 0 -21 -4 -25 -9 -10 -17
-97 -61 -119 -61 -31 0 -212 -135 -225 -168 -23 -61 -51 -79 -147 -92 -100
-14 -298 -56 -329 -69 -11 -5 -42 -15 -70 -21 -27 -6 -57 -17 -65 -24 -8 -8
-33 -19 -55 -26 -22 -7 -51 -21 -64 -31 -13 -11 -31 -19 -40 -19 -16 0 -72
-25 -111 -50 -55 -34 -256 -120 -280 -120 -17 0 -47 -7 -66 -15 -26 -11 -74
-14 -182 -14 -155 1 -216 -10 -439 -77 -46 -14 -104 -29 -130 -33 -77 -13
-195 -48 -252 -75 -29 -13 -60 -22 -67 -19 -14 5 -25 32 -29 68 -18 150 -37
237 -54 243 -11 4 -12 -8 -8 -59 18 -190 42 -362 54 -382 3 -5 7 -30 9 -55 2
-26 7 -76 11 -112 4 -36 5 -134 4 -218 -3 -148 -3 -153 18 -159 l21 -5 -21
-29 c-38 -54 -38 -56 -58 226 -14 192 -37 371 -57 442 -9 32 -15 93 -14 155 1
97 -9 194 -24 228 -14 33 27 54 209 105 123 34 271 79 430 130 39 12 113 32
165 44 52 12 136 33 186 47 145 39 160 40 184 13 39 -46 52 -83 85 -249 8 -41
19 -94 24 -118 9 -45 26 -71 38 -59 12 13 -19 220 -48 317 -41 135 -38 154 14
106 14 -13 29 -37 32 -53 4 -15 11 -39 16 -53 5 -14 13 -47 19 -75 15 -68 60
-165 76 -165 18 0 19 -3 -15 88 -18 49 -28 98 -28 132 -1 36 -10 78 -28 123
-18 45 -25 76 -21 93 5 17 1 35 -9 51 -16 24 -20 25 -93 20 -43 -3 -97 -10
-122 -15 -25 -6 -72 -15 -105 -21 -61 -11 -156 -35 -209 -51 -16 -5 -33 -7
-37 -4 -5 3 -69 -15 -143 -40 -73 -24 -151 -48 -172 -51 -22 -4 -48 -10 -59
-15 -42 -17 -61 -24 -80 -26 -11 -2 -81 -17 -155 -33 -154 -34 -250 -69 -299
-111 -32 -27 -33 -30 -21 -64 12 -38 35 -56 69 -56 11 0 32 -10 46 -23 25 -21
27 -30 36 -157 6 -74 11 -173 13 -220 2 -47 12 -116 21 -155 9 -38 18 -97 19
-130 2 -33 9 -155 16 -271 l14 -211 -31 -42 c-17 -23 -70 -85 -118 -137 -48
-52 -108 -126 -134 -163 -56 -82 -86 -118 -127 -151 -36 -29 -129 -136 -159
-184 -45 -72 -208 -256 -285 -321 -45 -38 -87 -79 -93 -90 -11 -19 -13 -24
-16 -42 -1 -5 -16 -18 -34 -30 -28 -19 -66 -30 -184 -50 -32 -5 -33 -7 -33
-54 l0 -49 173 -1 c94 0 180 -3 189 -7 14 -6 -5 -30 -98 -125 -63 -64 -119
-117 -123 -117 -5 0 -16 -16 -26 -36 -26 -56 -9 -114 34 -114 4 0 22 13 40 29
35 31 35 59 0 41 -25 -14 -25 4 -1 45 23 37 318 342 345 357 18 9 25 5 51 -28
70 -88 200 -220 241 -246 48 -30 53 -42 31 -67 -8 -9 -26 -45 -40 -81 -31 -76
-154 -300 -192 -350 l-26 -35 7 30 c3 17 37 84 75 150 85 150 135 264 122 277
-6 6 -24 -21 -51 -76 -22 -46 -41 -88 -41 -92 0 -4 -7 -15 -16 -25 -9 -10 -64
-116 -124 -236 -111 -225 -138 -265 -164 -244 -16 13 -7 35 103 251 79 154
153 330 147 347 -4 9 -9 14 -11 11 -3 -3 -57 -108 -121 -234 -64 -126 -122
-236 -129 -244 -7 -8 -16 -25 -20 -38 -8 -29 -84 -155 -99 -164 -18 -12 -33
-9 -40 7 -5 15 10 47 143 295 77 142 183 387 178 409 -4 21 -40 -36 -67 -106
-11 -29 -48 -107 -82 -173 -35 -67 -90 -174 -123 -237 -61 -119 -85 -147 -106
-126 -9 9 -4 25 19 65 16 29 35 71 42 93 7 22 26 67 41 101 16 34 29 72 29 85
0 77 83 291 153 393 26 37 47 75 47 82 0 23 -25 16 -56 -17 -16 -17 -65 -61
-108 -97 -60 -50 -75 -68 -62 -70 10 -2 32 6 48 18 16 12 33 20 37 18 5 -2
-10 -46 -33 -98 -23 -52 -50 -133 -60 -180 -12 -56 -30 -104 -52 -140 -18 -30
-50 -95 -70 -145 -20 -49 -40 -94 -44 -98 -11 -13 8 -99 29 -127 20 -27 57
-38 74 -21 16 16 31 13 17 -4 -16 -20 -5 -50 25 -63 23 -11 27 -8 50 28 20 32
31 40 55 40 23 0 45 16 102 71 71 69 100 110 211 294 92 155 115 197 178 321
53 107 68 127 133 186 85 78 145 120 157 112 5 -3 9 -16 9 -30 0 -32 42 -114
80 -158 l31 -34 -11 -114 c-6 -62 -17 -176 -25 -253 -29 -285 -35 -362 -35
-425 0 -36 -10 -105 -24 -155 -13 -49 -27 -119 -31 -155 -3 -36 -13 -92 -20
-125 -8 -33 -19 -100 -26 -150 -6 -49 -16 -101 -22 -115 -6 -14 -13 -50 -17
-80 -15 -114 -32 -217 -45 -270 -33 -138 -65 -287 -65 -302 0 -22 38 -42 119
-63 49 -13 87 -15 170 -10 121 8 110 8 256 0 61 -3 176 -7 256 -10 80 -2 150
-5 155 -6 29 -5 66 3 81 20 28 29 142 41 453 46 325 6 353 9 348 33 -3 16 -34
17 -358 20 -609 6 -789 7 -995 3 -110 -3 -210 -1 -222 3 -30 9 -29 28 2 160
14 58 25 116 25 129 0 13 3 27 8 31 4 4 8 17 8 29 3 32 14 174 20 237 25 279
28 293 66 303 35 10 38 9 48 -17 11 -30 38 -35 225 -41 180 -6 229 -22 238
-76 6 -40 -20 -203 -38 -239 -6 -14 -18 -53 -25 -87 -18 -89 -11 -96 94 -88
45 4 108 11 141 17 33 5 108 11 167 12 107 2 130 8 112 26 -10 10 -39 8 -323
-16 -59 -5 -82 -4 -78 4 11 17 133 32 295 36 84 2 155 6 158 9 3 3 19 1 36 -5
16 -6 47 -8 69 -5 35 5 38 3 28 -10 -10 -12 -10 -16 2 -24 27 -17 62 -3 57 22
-3 16 30 17 172 4 71 -6 88 -5 98 8 7 8 9 18 4 21 -39 24 -626 31 -811 10 -59
-6 -63 -6 -58 12 4 10 23 85 43 166 31 126 39 147 58 151 49 12 297 6 448 -10
90 -10 197 -17 238 -15 188 6 219 6 225 0 3 -3 8 -28 10 -55 2 -26 10 -113 19
-192 9 -78 14 -146 12 -150 -2 -3 0 -77 5 -163 7 -110 17 -186 34 -253 14 -52
25 -108 25 -123 0 -42 55 -118 106 -148 l45 -26 112 18 c62 10 137 16 167 14
90 -5 132 -4 195 8 81 15 237 17 365 4 87 -8 108 -8 120 4 21 21 2 34 -61 41
-30 4 -219 5 -421 4 l-368 -2 0 83 c0 46 -12 146 -26 223 -30 167 -44 263 -49
329 -2 27 -8 79 -14 115 -5 36 -12 107 -15 156 l-6 90 48 55 c127 147 206 210
233 183 5 -5 11 -40 14 -78 22 -291 53 -536 76 -612 11 -34 19 -68 18 -75 -4
-32 3 -51 26 -74 21 -21 31 -24 62 -18 46 8 103 33 103 45 0 5 -22 9 -49 9
-28 0 -52 4 -55 9 -14 22 -59 223 -71 319 -8 59 -19 140 -25 180 -5 41 -15
176 -21 300 -6 125 -14 243 -18 262 -8 40 -5 482 4 517 3 13 11 23 19 23 19 0
26 -106 26 -384 1 -160 5 -256 15 -311 44 -234 84 -500 89 -578 3 -56 13 -104
26 -134 11 -26 20 -67 20 -95 0 -46 -2 -50 -30 -59 -59 -21 -17 -28 152 -24
135 4 175 8 187 20 8 8 11 18 7 22 -4 5 -62 8 -128 8 l-121 0 -2 57 c-2 31 -8
73 -15 93 -13 39 -26 112 -39 215 -5 36 -18 110 -29 165 -11 55 -27 145 -36
200 -10 55 -22 118 -28 140 -5 22 -10 51 -10 65 1 14 3 108 5 210 4 176 0 257
-24 467 -6 51 -7 112 -4 136 7 44 7 44 63 58 34 8 109 14 184 14 120 0 128 -1
152 -24 14 -14 26 -32 26 -42 0 -10 13 -54 30 -99 30 -81 34 -112 53 -430 14
-219 49 -503 69 -545 12 -27 35 -130 52 -237 16 -95 49 -161 91 -180 14 -6 25
-15 25 -19 0 -12 -19 -87 -54 -214 -37 -134 -45 -244 -21 -269 9 -9 28 -19 43
-22 15 -3 33 -7 40 -10 24 -7 11 -34 -29 -60 -27 -17 -39 -30 -35 -40 3 -9
-11 -36 -34 -65 -42 -53 -46 -71 -30 -113 l9 -25 318 6 c274 5 327 4 380 -10
89 -23 397 -33 427 -14 27 18 156 32 156 17 0 -5 -12 -10 -27 -10 -16 0 -35
-4 -42 -9 -12 -8 -9 -11 12 -16 45 -12 181 -6 204 8 24 15 282 29 569 30 240
2 304 5 318 16 12 10 14 17 5 27 -9 11 -47 14 -163 14 -100 0 -194 7 -280 20
-154 24 -228 25 -360 5 -55 -8 -103 -15 -107 -15 -4 0 -5 24 -2 54 8 73 -6 80
-138 72 -129 -8 -197 12 -271 79 -60 54 -126 87 -210 106 -32 7 -58 17 -58 23
0 6 18 38 40 71 22 33 45 76 51 95 28 95 41 120 60 120 10 0 43 11 73 24 29
13 69 27 87 31 19 4 77 27 129 50 52 23 111 45 131 48 54 8 107 49 271 209 40
40 58 65 58 83 0 22 -4 25 -37 25 -21 0 -112 -20 -203 -45 -91 -25 -175 -45
-187 -45 -12 0 -47 -6 -77 -14 -45 -12 -140 -20 -193 -17 -19 1 -16 30 17 191
26 124 55 288 74 420 15 102 60 312 82 380 8 25 19 89 24 143 5 54 12 103 16
108 3 6 7 36 9 67 2 31 6 98 10 147 8 89 7 92 -31 189 -59 149 -124 213 -259
251 -33 10 -87 26 -120 36 -33 10 -104 23 -157 28 -104 10 -105 10 -158 52
-19 15 -80 52 -136 83 -87 49 -116 59 -209 76 -71 13 -152 20 -232 20 -113 0
-157 -6 -308 -40 -64 -14 -125 -19 -125 -9 0 5 6 9 14 9 7 0 20 7 27 16 8 9
45 32 84 50 38 19 86 44 105 56 103 64 180 116 225 152 28 23 67 54 88 69 51
39 75 65 98 110 l19 37 69 0 c37 0 71 -3 75 -7 16 -16 151 -11 211 8 33 10 76
19 95 19 19 0 59 11 88 25 30 14 59 25 66 25 6 0 32 20 56 45 24 25 49 45 55
45 5 0 15 8 22 18 6 9 30 43 52 75 22 32 47 82 55 111 21 71 52 141 71 156 8
7 15 17 15 23 0 23 64 147 76 147 7 0 59 -20 116 -44 215 -91 462 -140 768
-151 47 -1 128 -10 180 -20 83 -15 249 -25 390 -24 25 0 55 6 67 14 24 16 67
6 115 -27 15 -10 45 -25 68 -33 55 -19 318 -38 373 -26 23 5 74 12 114 16 56
5 76 12 93 30 38 41 9 40 -170 -5 -25 -6 -62 -8 -85 -4 -22 4 -85 8 -140 9
-113 1 -189 22 -230 62 -14 14 -25 29 -25 33 0 13 -32 21 -44 11 -21 -18 -148
-16 -182 2 -35 18 -44 40 -44 106 0 44 42 145 78 187 23 27 60 47 72 39 5 -3
18 -2 27 4 20 11 22 9 -32 26 -26 8 -16 24 23 36 28 8 49 8 79 0 l41 -11 -5
-68 c-3 -37 -11 -89 -19 -116 -20 -72 -19 -86 11 -86 19 0 25 5 25 23 1 12 20
60 43 107 39 78 45 86 85 100 23 8 59 29 80 45 32 27 106 79 255 182 75 51
197 81 197 49 0 -21 -28 -46 -50 -46 -25 0 -137 -75 -201 -134 -32 -30 -49
-53 -49 -69 0 -28 19 -33 251 -66 197 -29 382 -91 269 -91 -71 0 -260 27 -319
45 -37 11 -57 13 -64 6 -13 -13 29 -30 103 -41 30 -4 68 -13 84 -20 17 -6 93
-15 170 -20 78 -4 155 -13 171 -19 17 -7 36 -14 44 -16 10 -4 11 -8 2 -19 -13
-15 -81 -20 -424 -32 -121 -4 -167 -9 -164 -17 5 -18 133 -21 269 -7 122 13
209 7 189 -13 -5 -5 -44 -18 -86 -26 -42 -9 -75 -21 -73 -26 2 -6 32 -10 68
-10 36 0 66 -4 67 -10 3 -13 -56 -34 -132 -46 -33 -6 -64 -15 -70 -20 -18 -18
18 -30 65 -23 25 4 57 6 72 5 68 -4 128 53 128 121 0 30 17 48 47 48 12 0 41
7 63 16 60 24 62 52 9 112 -42 47 -47 49 -99 51 -32 1 -89 14 -135 31 -44 16
-100 32 -125 35 -60 8 -212 34 -277 47 -44 9 -53 15 -53 33 0 33 176 155 225
155 27 0 116 85 109 103 -10 26 -63 28 -138 6 -109 -32 -141 -50 -277 -147
-69 -49 -135 -95 -146 -100 -34 -18 -118 -25 -143 -12 -12 6 -52 16 -88 21
-36 5 -86 16 -111 25 -24 8 -70 15 -100 15 -161 -1 -472 29 -549 53 -10 3 -54
12 -99 20 -102 18 -170 49 -252 116 -35 29 -85 59 -110 67 -25 9 -55 24 -67
35 -11 10 -47 23 -80 28 -80 13 -94 13 -94 -5 0 -8 8 -15 18 -15 49 -1 208
-79 292 -145 30 -23 78 -54 105 -67 58 -30 267 -83 375 -96 41 -5 93 -17 115
-27 48 -21 203 -31 262 -17 89 21 134 -17 95 -80 -86 -136 -97 -162 -100 -235
-4 -60 -1 -74 12 -79 9 -3 16 -12 16 -20 0 -17 -54 -18 -120 -3 -65 15 -218
29 -425 38 -154 8 -197 13 -300 41 -66 17 -136 36 -156 41 -48 11 -252 85
-288 104 -16 8 -32 23 -36 34 -3 10 10 62 30 117 27 74 40 132 51 229 8 72 13
139 10 150 -3 11 -8 58 -11 105 -7 90 -25 142 -83 234 -27 45 -29 52 -16 70
35 50 4 139 -61 177 -28 17 -35 27 -35 51 0 55 -85 150 -174 195 -39 19 -85
46 -102 59 -40 30 -140 74 -168 74 -12 0 -38 9 -59 20 -42 22 -74 25 -130 9
-32 -9 -42 -8 -56 5 -19 18 -87 21 -111 6z m-142 -32 c-6 -18 -28 -21 -28 -4
0 9 7 16 16 16 9 0 14 -5 12 -12z m474 -118 c18 -11 41 -20 52 -20 10 0 31
-11 48 -25 16 -14 42 -28 56 -32 15 -3 60 -33 101 -66 71 -58 110 -115 111
-160 0 -34 48 -106 124 -187 13 -14 45 -67 72 -119 47 -91 49 -97 52 -195 6
-149 -22 -307 -99 -555 -21 -67 -111 -277 -159 -371 -16 -30 -36 -77 -45 -103
-23 -64 -54 -99 -139 -156 -65 -43 -80 -49 -177 -64 -59 -9 -148 -17 -197 -17
-69 0 -93 -4 -99 -14 -7 -13 -17 -11 -63 7 -31 13 -76 37 -100 55 -25 18 -72
52 -105 76 -78 57 -444 256 -470 256 -28 0 -186 114 -240 172 -73 79 -85 117
-62 186 14 39 13 43 -4 52 -20 11 -39 67 -39 118 0 48 39 194 57 214 9 10 13
28 11 43 -4 21 -1 25 18 25 29 0 32 20 4 27 -26 7 -27 49 -2 64 16 10 18 22
14 83 -3 58 -1 74 12 85 9 7 16 22 16 31 0 34 12 51 51 71 38 19 51 39 26 39
-7 0 -23 -7 -35 -16 -21 -14 -22 -14 -22 5 0 44 105 191 137 191 7 0 18 11 25
24 7 14 45 52 83 85 64 56 93 72 180 97 22 7 31 16 33 37 4 30 45 48 65 28 18
-18 68 -12 132 15 91 40 124 43 342 39 180 -4 205 -7 235 -25z m272 -56 c24
-9 19 -24 -8 -24 -26 0 -40 12 -29 24 8 8 17 8 37 0z m86 -64 c12 -8 11 -10
-7 -10 -13 0 -23 5 -23 10 0 13 11 13 30 0z m-2740 -23 c0 -22 -39 -37 -122
-48 -45 -6 -155 -28 -245 -50 -91 -22 -173 -37 -184 -34 -11 4 -25 2 -32 -3
-7 -5 -39 -18 -72 -27 -33 -10 -152 -47 -265 -82 -113 -35 -225 -70 -250 -77
-60 -18 -189 -41 -196 -34 -11 11 83 56 141 68 81 16 194 49 228 67 64 33 580
172 643 174 21 0 98 13 169 29 150 32 185 35 185 17z m1034 -236 c3 -4 -4 -17
-16 -27 -11 -11 -30 -38 -40 -62 -11 -24 -25 -45 -33 -48 -16 -6 -55 -94 -55
-124 0 -12 -11 -36 -24 -53 -17 -24 -25 -51 -30 -103 -3 -39 -13 -90 -21 -114
-8 -23 -15 -49 -15 -57 0 -23 30 -27 45 -7 14 18 14 18 15 -2 0 -11 -5 -25
-11 -31 -8 -8 -1 -42 25 -124 20 -63 40 -125 44 -138 9 -30 25 -30 33 1 l5 23
13 -23 c7 -12 9 -32 6 -42 -4 -11 -3 -25 1 -32 5 -7 7 -29 5 -48 -5 -74 59
-184 142 -244 20 -15 37 -32 37 -37 0 -34 -202 -225 -290 -275 -20 -12 -61
-38 -90 -58 -29 -20 -58 -36 -65 -36 -6 0 -41 -19 -76 -41 -35 -23 -102 -61
-149 -84 -47 -23 -117 -58 -156 -78 -99 -49 -260 -117 -279 -117 -22 0 -148
-65 -164 -84 -8 -9 -21 -16 -30 -16 -9 0 -59 -26 -111 -58 -665 -409 -780
-472 -866 -472 -24 0 -24 0 -8 32 9 17 44 59 78 93 112 112 276 290 298 324
25 37 140 106 195 117 18 3 72 21 120 39 48 18 111 40 138 50 28 9 73 26 100
37 28 11 108 40 179 65 122 41 285 119 351 168 17 12 49 32 72 43 47 25 157
100 191 132 53 50 9 54 -57 6 -26 -19 -75 -49 -109 -66 -33 -18 -74 -44 -89
-58 -34 -33 -143 -102 -161 -102 -7 0 -50 -18 -97 -40 -47 -22 -93 -40 -104
-40 -11 0 -76 -18 -145 -40 -68 -22 -153 -47 -188 -54 -85 -19 -169 -50 -232
-84 -166 -93 -203 -124 -301 -251 -55 -72 -161 -195 -228 -263 -65 -68 -94
-74 -135 -29 -63 67 -145 198 -177 282 -32 83 -27 98 66 198 48 51 74 71 91
71 26 0 56 27 73 65 16 38 153 181 248 261 69 58 102 78 152 93 36 11 77 27
92 34 15 8 73 26 128 41 207 53 245 66 351 113 102 46 247 142 266 178 5 8 15
15 22 15 8 0 30 19 50 43 19 23 44 51 54 62 26 27 82 157 82 189 0 44 -25 29
-76 -46 -62 -90 -59 -85 -83 -138 -23 -51 -77 -98 -236 -204 -57 -38 -118 -65
-200 -90 -22 -7 -60 -22 -85 -34 -25 -11 -92 -32 -150 -46 -58 -15 -117 -33
-132 -41 -14 -8 -35 -15 -45 -15 -29 0 -140 -58 -203 -106 -30 -23 -81 -74
-114 -112 -32 -38 -112 -118 -178 -178 -66 -60 -176 -170 -246 -244 -214 -229
-339 -350 -361 -350 -17 0 -20 -5 -15 -29 5 -25 1 -32 -31 -54 -32 -21 -45
-25 -89 -20 -37 4 -65 0 -106 -16 -58 -22 -115 -27 -125 -12 -3 6 10 21 30 34
34 23 148 141 209 217 15 19 69 78 118 130 173 182 194 205 224 245 16 22 39
49 51 60 12 11 42 45 68 75 26 30 59 68 73 84 15 16 45 53 67 82 50 66 219
282 263 338 39 48 206 230 240 260 13 12 40 37 60 56 20 20 63 58 94 84 32 27
67 63 79 82 11 19 24 34 29 34 4 0 46 36 92 80 46 44 142 125 214 180 107 83
163 117 331 201 111 55 207 107 214 115 6 8 19 14 29 14 9 0 28 8 41 18 39 29
116 72 131 72 8 0 32 9 53 20 56 29 198 79 275 96 145 33 222 49 257 53 6 0
14 -3 17 -8z m-64 -181 c0 -5 -7 -10 -16 -10 -8 0 -12 5 -9 10 3 6 10 10 16
10 5 0 9 -4 9 -10z m40 -86 c0 -8 -5 -12 -10 -9 -6 4 -8 11 -5 16 9 14 15 11
15 -7z m-50 -29 c0 -8 -4 -15 -10 -15 -5 0 -10 7 -10 15 0 8 5 15 10 15 6 0
10 -7 10 -15z m-1395 -115 c-3 -5 -13 -10 -21 -10 -8 0 -12 5 -9 10 3 6 13 10
21 10 8 0 12 -4 9 -10z m125 0 c0 -5 -5 -10 -11 -10 -5 0 -7 5 -4 10 3 6 8 10
11 10 2 0 4 -4 4 -10z m1226 -1 c10 -17 -13 -36 -27 -22 -12 12 -4 33 11 33 5
0 12 -5 16 -11z m-1496 -39 c-19 -12 -40 -13 -40 -1 0 9 40 20 50 13 2 -2 -2
-7 -10 -12z m367 -5 c2 -6 -22 -26 -53 -45 -99 -60 -275 -212 -371 -320 -37
-42 -114 -103 -121 -95 -4 3 25 36 63 72 44 41 65 67 57 70 -19 7 -279 -246
-353 -342 -38 -51 -93 -98 -102 -89 -2 3 -1 22 4 42 12 53 1 242 -21 347 -26
128 -34 225 -18 229 7 1 28 8 47 14 36 12 63 6 40 -9 -11 -7 -11 -11 -1 -21
10 -10 22 -9 60 6 26 10 88 27 137 38 50 10 104 24 120 29 17 5 84 16 150 25
102 13 159 23 300 57 30 7 58 3 62 -8z m-633 -66 c-88 -32 -163 -44 -142 -24
11 12 134 42 147 37 11 -4 10 -7 -5 -13z m6421 -478 c7 -12 -12 -24 -25 -16
-11 7 -4 25 10 25 5 0 11 -4 15 -9z m-4211 -410 c65 -33 123 -61 130 -61 6 0
32 -16 59 -35 38 -29 47 -41 47 -65 0 -65 -82 -189 -210 -318 -101 -102 -263
-236 -337 -278 -27 -15 -102 -59 -168 -98 -128 -75 -221 -119 -350 -165 -44
-16 -88 -32 -97 -36 -10 -4 -18 -16 -18 -27 0 -18 -5 -20 -36 -15 -27 5 -78
-6 -193 -40 -86 -25 -193 -56 -239 -68 -136 -36 -142 -64 -10 -47 204 27 244
35 360 71 68 21 157 46 198 56 41 9 84 20 95 25 11 4 49 15 85 25 36 9 90 25
120 36 167 56 423 119 487 119 17 0 85 12 150 27 98 22 142 26 258 26 225 0
380 -46 491 -144 27 -24 61 -53 74 -64 33 -26 88 -116 107 -174 30 -94 34
-120 44 -281 5 -91 13 -196 17 -235 5 -38 4 -88 -1 -110 -5 -22 -10 -167 -13
-323 -2 -155 -8 -325 -13 -378 -8 -91 4 -212 25 -246 4 -6 10 -51 13 -100 l6
-89 -25 2 c-44 2 -50 -1 -50 -25 0 -33 -17 -44 -80 -52 -30 -4 -82 -15 -115
-26 -74 -23 -185 -36 -185 -20 0 6 -16 31 -35 56 -24 32 -35 57 -35 80 0 18
-7 53 -15 76 -37 106 -65 254 -75 401 -5 85 -16 195 -25 244 -8 50 -14 124
-15 165 0 114 -33 348 -54 385 -6 11 -18 40 -26 64 -20 58 -50 78 -135 89 -85
12 -309 6 -385 -10 -30 -6 -93 -12 -140 -14 -511 -20 -623 -26 -673 -34 -74
-14 -1023 -14 -1132 0 -44 5 -105 12 -135 16 -67 8 -185 62 -221 101 -27 30
-54 108 -65 188 l-6 51 98 33 c55 19 128 47 164 63 66 30 229 127 265 159 29
25 167 99 186 99 8 0 28 14 44 30 16 17 72 53 124 81 119 64 181 106 181 124
0 8 7 11 19 8 11 -3 37 4 58 16 43 23 139 63 198 81 22 7 67 26 99 43 33 16
78 36 100 44 40 13 195 98 286 154 25 16 70 41 100 57 30 16 96 55 145 88 50
32 102 64 118 71 15 7 30 18 33 26 3 8 34 37 69 66 36 28 72 65 80 81 18 35
13 37 179 -49z m401 -195 c64 -29 109 -80 100 -113 -7 -29 -64 -123 -74 -123
-4 0 -30 -28 -58 -62 -28 -35 -70 -74 -93 -88 -22 -14 -60 -39 -83 -56 -89
-65 -231 -144 -307 -169 -78 -26 -107 -45 -96 -64 9 -14 0 -18 -156 -61 -79
-22 -156 -47 -173 -54 -16 -8 -50 -20 -75 -26 -25 -7 -72 -21 -104 -31 -33
-11 -68 -19 -78 -19 -32 0 -19 17 24 30 63 18 235 102 298 145 30 20 96 57
145 80 50 24 137 76 194 117 56 40 124 88 150 106 138 98 395 362 353 362 -10
0 -74 -67 -82 -85 -9 -21 -114 -108 -117 -98 -2 5 20 44 49 87 29 43 62 93 73
112 24 41 42 42 110 10z m-3237 -608 c7 -7 12 -28 12 -47 0 -20 13 -63 28 -96
29 -60 131 -203 171 -239 12 -11 21 -23 21 -29 0 -13 -148 -170 -174 -183 -40
-21 -124 -26 -159 -9 -34 16 -143 138 -170 191 -9 17 -23 36 -31 43 -28 24
-17 50 50 118 37 38 74 79 83 93 20 32 142 170 151 170 3 0 11 -5 18 -12z
m4070 -314 c147 -49 214 -92 263 -166 57 -89 70 -139 71 -275 2 -127 2 -127
-36 -313 -14 -69 -26 -135 -26 -148 0 -13 -7 -36 -15 -51 -19 -38 -58 -304
-52 -358 2 -23 1 -43 -3 -45 -7 -3 -44 -130 -56 -193 -3 -16 -9 -46 -15 -65
-5 -19 -9 -55 -9 -80 0 -25 -7 -73 -15 -107 -8 -34 -12 -69 -9 -78 3 -8 2 -15
-2 -16 -5 0 -44 -3 -86 -5 l-77 -4 -12 42 c-15 51 -19 642 -7 983 6 194 -11
507 -30 542 -7 12 -12 44 -12 71 0 31 -15 95 -40 171 -22 66 -40 123 -40 126
0 3 23 5 51 5 31 0 91 -14 157 -36z m-3650 -533 c21 -11 96 -30 167 -43 122
-22 151 -23 465 -20 420 3 579 8 750 22 192 15 492 29 507 23 22 -9 14 -20
-38 -54 -50 -32 -59 -34 -217 -48 -139 -12 -181 -12 -276 -1 -154 18 -1059 20
-1168 2 -54 -9 -83 -10 -96 -3 -16 9 -26 4 -60 -28 -35 -33 -38 -40 -26 -53
12 -12 12 -32 -5 -143 -11 -72 -23 -170 -27 -220 -3 -49 -18 -144 -31 -210
-22 -107 -37 -206 -47 -315 -2 -19 -9 -60 -16 -90 -6 -30 -16 -95 -21 -145 -5
-49 -14 -133 -20 -185 -6 -52 -14 -126 -18 -165 -7 -70 -77 -342 -93 -359 -5
-6 -20 1 -37 18 l-29 28 14 61 c8 33 13 65 11 71 -2 6 2 25 9 41 23 57 102
488 110 600 2 39 11 109 19 158 8 48 15 100 15 116 0 16 7 48 15 72 10 28 17
90 19 169 2 69 7 148 10 175 3 28 11 113 16 190 10 123 34 307 45 343 6 16 9
15 53 -7z m2210 -114 c1 -53 -1 -97 -6 -97 -9 0 -32 180 -25 193 3 4 10 6 16
4 8 -2 13 -38 15 -100z m-94 -134 c-11 -246 -11 -388 0 -520 l9 -102 -57 -70
c-79 -96 -192 -201 -217 -201 -20 0 -21 3 -15 148 3 81 9 293 12 472 l6 325
47 46 c59 58 134 98 185 99 l38 0 -8 -197z m-1579 -168 c1 -277 -9 -383 -35
-409 -8 -8 -58 -29 -110 -46 -52 -17 -117 -42 -145 -55 -27 -12 -79 -31 -115
-40 -36 -10 -71 -23 -78 -28 -7 -5 -30 -13 -52 -17 -32 -6 -40 -4 -42 9 -4 16
11 119 31 221 22 117 55 327 58 375 3 69 23 186 35 208 21 40 105 55 303 53
l150 -1 0 -270z m161 267 c9 -5 8 -29 -1 -92 -7 -47 -18 -139 -25 -205 -6 -66
-15 -154 -20 -195 -19 -158 -29 -269 -36 -382 -5 -89 -10 -118 -21 -122 -33
-13 -36 5 -29 148 4 78 11 193 16 256 5 63 9 178 10 255 1 144 13 316 25 335
7 11 64 13 81 2z m519 -18 c119 -8 250 -11 323 -7 l122 6 -1 -34 c0 -19 -4
-70 -9 -114 -27 -232 -45 -521 -45 -730 0 -91 -4 -132 -12 -138 -7 -4 -79 -3
-160 2 -228 15 -423 24 -595 25 -86 1 -160 4 -164 8 -9 9 -9 18 10 293 8 127
20 307 25 400 11 172 26 281 41 300 11 13 188 9 465 -11z m560 -10 c19 -5 20
-15 23 -180 2 -119 -4 -263 -20 -447 -36 -435 -25 -698 48 -1150 13 -82 26
-153 29 -157 10 -16 26 -161 20 -179 -3 -11 -13 -22 -22 -25 -18 -7 -53 20
-53 41 0 7 -11 46 -26 86 -31 89 -59 221 -73 347 -14 131 -35 419 -36 510 -1
41 -5 83 -9 92 -4 10 -5 111 -1 225 4 114 6 219 6 233 0 14 4 84 9 155 6 72
15 193 20 270 6 77 13 150 16 163 4 22 27 28 69 16z m-1270 -723 c0 -16 -56
-39 -97 -40 -15 -1 -42 -7 -60 -15 -61 -25 -142 -46 -151 -37 -5 5 38 25 95
45 57 20 121 43 143 50 47 17 70 16 70 -3z m1625 -47 c14 -36 -4 -67 -36 -61
-16 3 -24 0 -24 -10 0 -8 -26 -41 -57 -72 -32 -32 -82 -84 -111 -116 -37 -42
-55 -56 -63 -48 -22 22 -2 51 103 148 59 55 120 119 137 143 17 23 33 42 36
42 3 0 10 -12 15 -26z m-1630 -44 c6 -11 9 -51 7 -88 l-4 -67 -99 2 c-213 3
-364 15 -364 27 0 15 74 51 145 71 28 8 82 24 120 35 147 45 180 48 195 20z
m-380 -39 c-85 -37 -89 -39 -130 -60 -34 -18 -56 -19 -45 -1 13 21 177 89 215
89 17 0 4 -9 -40 -28z m806 -170 c-6 -10 -114 -7 -124 3 -3 3 25 6 62 6 38 0
65 -4 62 -9z m314 -11 c0 -11 -2 -11 -82 -14 -31 -1 -66 3 -77 8 -16 9 -1 12
70 13 52 1 89 -2 89 -7z m192 -11 c-21 -6 -49 -6 -75 -1 -39 9 -37 10 33 10
64 0 70 -1 42 -9z m-849 -79 c-5 -113 -64 -292 -89 -268 -9 10 18 124 32 135
10 7 12 13 5 18 -12 7 -15 137 -4 149 4 4 19 6 33 4 22 -3 25 -7 23 -38z
m3137 -121 c8 0 32 2 53 6 45 9 48 -2 12 -49 -32 -42 -65 -55 -255 -105 -188
-49 -226 -55 -284 -47 -38 6 -46 11 -55 37 -7 20 -7 37 -1 48 12 24 77 42 168
47 102 6 149 20 169 50 16 25 19 26 97 20 45 -3 88 -6 96 -7z m-580 -191 c11
-24 20 -52 20 -62 0 -10 16 -52 35 -92 40 -82 50 -89 145 -89 56 0 183 43 252
85 18 11 41 20 52 20 16 0 18 -6 13 -42 -9 -70 -51 -116 -147 -164 -128 -63
-248 -75 -482 -48 l-48 6 0 46 c0 25 9 75 19 111 11 36 25 91 32 121 28 126
38 150 65 150 20 0 29 -9 44 -42z m400 -408 c11 -6 43 -15 72 -20 58 -11 178
-64 178 -78 0 -33 -503 -69 -642 -46 -35 6 -38 9 -38 40 0 37 -21 31 182 53
54 6 124 21 160 35 35 14 64 25 66 25 2 1 12 -4 22 -9z"/>
<path d="M4885 5911 c-33 -9 -100 -38 -148 -65 -102 -55 -119 -79 -116 -164 1
-31 -4 -84 -11 -118 -7 -33 -10 -72 -7 -86 4 -14 31 -53 62 -87 30 -34 62 -75
71 -92 26 -52 16 -59 -84 -59 -83 0 -93 -3 -172 -41 -70 -33 -88 -39 -107 -30
-31 14 -29 24 15 59 42 34 38 49 -10 36 -36 -11 -72 -65 -63 -95 8 -23 44 -33
88 -25 17 4 55 8 83 9 38 2 59 9 83 30 36 30 37 30 131 27 55 -1 68 2 84 19
18 20 18 22 2 60 -10 21 -49 69 -87 107 -66 65 -69 71 -69 116 0 26 9 71 19
100 11 29 25 73 31 98 16 60 34 87 73 105 17 8 48 24 67 35 24 14 53 20 92 20
47 0 59 4 68 20 8 15 6 21 -9 30 -11 5 -21 10 -23 9 -2 0 -30 -8 -63 -18z"/>
<path d="M4025 5853 c-145 -31 -207 -57 -220 -92 -9 -23 13 -38 33 -23 68 49
78 53 132 50 30 -1 70 3 88 11 26 11 38 11 63 1 23 -10 33 -10 42 -1 15 16
-16 41 -49 41 -13 0 -26 5 -29 10 -6 10 -24 11 -60 3z"/>
<path d="M4829 5675 c-94 -34 -117 -52 -138 -110 -33 -87 -33 -87 75 -54 62
19 76 20 136 9 84 -15 108 -5 108 45 0 50 -32 96 -77 111 -46 16 -58 16 -104
-1z m6 -54 c3 -16 13 -35 21 -41 20 -17 61 -4 70 22 6 21 7 21 20 3 8 -10 14
-28 14 -40 0 -19 -6 -20 -92 -20 -51 0 -100 -2 -108 -5 -12 -4 -15 4 -15 35 0
36 4 42 35 57 46 23 47 23 55 -11z"/>
<path d="M4057 5609 c-33 -25 -26 -45 8 -23 33 22 45 11 35 -31 -5 -20 -4 -52
1 -73 17 -64 17 -63 36 -52 10 6 38 16 63 24 l45 12 -2 44 c-3 51 -27 79 -91
104 -54 20 -61 20 -95 -5z"/>
<path d="M3955 5516 c-24 -36 -34 -82 -26 -113 6 -23 13 -29 45 -31 35 -3 66
10 66 29 0 5 -12 6 -27 3 -44 -7 -58 7 -40 42 8 16 18 44 22 62 5 25 3 32 -9
32 -9 0 -23 -11 -31 -24z"/>
<path d="M4861 4730 c-16 -14 -38 -20 -70 -20 -26 0 -51 -4 -56 -9 -14 -12
-137 -42 -219 -52 -76 -10 -86 -17 -86 -66 0 -39 22 -44 56 -12 17 16 39 22
95 26 41 2 78 9 84 14 5 5 25 9 44 9 20 0 53 6 76 14 22 8 60 20 84 27 45 14
77 48 67 74 -8 21 -46 18 -75 -5z"/>
<path d="M3097 4422 c-50 -52 -22 -88 29 -37 25 25 29 55 9 62 -6 2 -23 -9
-38 -25z"/>
<path d="M3215 4350 c-8 -13 13 -50 29 -50 18 0 49 37 41 49 -8 14 -62 14 -70
1z"/>
<path d="M2934 4155 c-8 -21 14 -45 42 -45 27 0 44 38 23 51 -22 14 -59 10
-65 -6z"/>
<path d="M2604 3996 c-10 -26 4 -48 28 -44 17 2 23 10 23 28 0 18 -6 26 -23
28 -13 2 -25 -3 -28 -12z"/>
<path d="M2231 3842 c-7 -14 -7 -24 3 -38 12 -16 17 -17 41 -6 19 9 25 18 23
35 -4 30 -52 37 -67 9z"/>
<path d="M1933 3690 c-67 -40 -28 -78 51 -51 55 19 64 31 41 55 -22 21 -53 20
-92 -4z"/>
<path d="M1647 3532 c-34 -21 -31 -46 6 -50 33 -4 67 22 67 50 0 23 -34 23
-73 0z"/>
<path d="M3828 4173 c-22 -6 -24 -46 -3 -63 12 -10 20 -9 40 4 27 18 32 35 13
54 -12 12 -20 13 -50 5z"/>
<path d="M3632 3981 c-8 -5 -12 -22 -10 -42 4 -48 40 -53 58 -8 12 28 12 33
-5 45 -22 16 -25 17 -43 5z"/>
<path d="M3392 3808 c-17 -17 -15 -53 3 -68 12 -10 21 -10 41 -1 21 9 25 17
22 44 -2 26 -8 33 -28 35 -14 2 -31 -3 -38 -10z"/>
<path d="M3150 3662 c-36 -12 -43 -77 -9 -87 26 -9 44 9 52 51 6 33 -10 47
-43 36z"/>
<path d="M8826 6141 c-27 -30 -46 -93 -34 -109 23 -27 86 49 88 106 0 28 -30
30 -54 3z"/>
<path d="M8745 5757 c-23 -36 -28 -79 -11 -102 14 -19 15 -19 29 15 34 79 20
145 -18 87z"/>
<path d="M8728 5429 c-11 -6 -18 -22 -18 -41 0 -50 53 -77 77 -39 12 19 5 34
-36 83 -3 4 -14 2 -23 -3z"/>
<path d="M8797 5164 c-13 -13 -8 -64 7 -64 23 0 41 29 30 48 -12 19 -27 25
-37 16z"/>
<path d="M8866 4854 c-9 -8 -16 -29 -16 -45 0 -28 2 -30 33 -27 28 3 32 7 35
35 4 40 -27 62 -52 37z"/>
<path d="M7647 4599 c-102 -15 -103 -31 -2 -23 50 3 92 8 94 9 1 2 0 8 -4 14
-7 12 -6 12 -88 0z"/>
<path d="M8973 4563 c-19 -7 -16 -43 3 -50 18 -7 44 20 44 44 0 13 -23 16 -47
6z"/>
<path d="M9124 4366 c-9 -24 0 -61 16 -63 8 -2 26 6 40 17 20 16 23 22 14 37
-14 23 -62 30 -70 9z"/>
<path d="M9322 4128 c-18 -18 -15 -36 9 -43 25 -8 42 6 37 31 -4 23 -29 29
-46 12z"/>
<path d="M10684 2606 c-3 -9 -3 -29 1 -44 3 -15 8 -43 11 -62 23 -182 31 -210
59 -210 25 0 25 63 0 158 -14 51 -25 104 -25 116 0 13 -9 31 -20 41 -18 16
-20 16 -26 1z"/>
</g>
</svg>
