<?xml version="1.0" standalone="no"?>
<!DOCTYPE svg PUBLIC "-//W3C//DTD SVG 20010904//EN"
 "http://www.w3.org/TR/2001/REC-SVG-20010904/DTD/svg10.dtd">
<svg version="1.0" xmlns="http://www.w3.org/2000/svg"
 width="1280.000000pt" height="703.000000pt" viewBox="0 0 1280.000000 703.000000"
 preserveAspectRatio="xMidYMid meet">
<metadata>
Created by potrace 1.15, written by Peter Selinger 2001-2017
</metadata>
<g transform="translate(0.000000,703.000000) scale(0.100000,-0.100000)"
fill="#000000" stroke="none">
<path d="M5235 7002 c-33 -16 -85 -37 -115 -46 -30 -10 -89 -33 -130 -52 -93
-43 -124 -81 -114 -141 l6 -39 -71 -28 c-38 -15 -89 -41 -113 -57 -50 -34 -87
-36 -147 -9 -45 21 -61 19 -61 -6 0 -8 -4 -14 -10 -14 -5 0 -10 17 -10 38 0
32 5 41 25 50 32 15 32 32 1 32 -15 0 -36 -14 -56 -36 -37 -42 -35 -64 8 -126
24 -33 32 -38 70 -38 23 0 42 -4 42 -10 0 -9 -21 -16 -125 -41 -75 -19 -222
-70 -241 -84 -17 -12 -18 -14 -2 -20 9 -4 32 0 50 8 99 44 307 99 422 113 47
5 58 4 54 -7 -3 -9 -57 -27 -139 -47 -237 -58 -419 -112 -498 -149 -29 -14
-72 -31 -94 -39 -22 -8 -45 -18 -51 -23 -6 -5 -38 -24 -71 -41 -117 -63 -129
-70 -139 -80 -5 -5 -7 -12 -4 -16 7 -6 77 30 148 76 49 31 70 37 70 17 0 -6
-21 -23 -47 -37 -26 -14 -88 -55 -138 -91 -49 -36 -117 -80 -151 -98 -33 -17
-88 -54 -122 -81 -33 -28 -70 -50 -80 -50 -32 0 -112 -40 -112 -55 0 -23 21
-18 111 29 166 85 240 130 303 182 61 51 146 109 238 165 57 35 168 79 215 85
84 11 183 38 183 51 0 17 48 36 69 28 14 -6 13 -8 -4 -18 -12 -7 -19 -19 -18
-27 3 -11 -19 -22 -80 -42 -46 -14 -114 -40 -150 -57 -36 -17 -72 -31 -80 -31
-7 0 -41 -9 -75 -21 -50 -17 -60 -24 -52 -34 9 -10 0 -21 -37 -46 -56 -37
-113 -89 -113 -102 0 -5 18 7 39 26 120 108 277 180 436 198 97 11 223 34 333
62 87 22 116 21 72 -3 -44 -24 -333 -120 -360 -120 -16 0 -61 -17 -102 -39
-40 -21 -111 -50 -158 -64 -163 -50 -318 -114 -363 -151 -32 -26 -46 -33 -55
-24 -13 13 -111 -16 -191 -56 -26 -14 -65 -28 -87 -31 -47 -9 -74 -22 -74 -36
0 -11 68 -2 85 11 6 4 55 27 109 50 93 39 102 41 137 30 37 -12 39 -12 105 35
71 51 241 122 256 107 5 -5 -47 -42 -121 -85 -115 -68 -272 -138 -431 -190
-25 -8 -58 -19 -75 -25 -16 -6 -76 -23 -132 -37 -56 -15 -124 -38 -152 -51
-42 -19 -51 -28 -51 -49 0 -23 3 -25 22 -19 12 3 35 15 52 25 17 11 40 19 51
19 11 0 35 9 54 21 18 11 40 18 47 15 18 -7 144 38 154 54 6 9 9 9 12 -1 4
-11 8 -11 19 -3 8 7 48 22 89 34 64 19 133 51 415 193 22 11 55 31 73 44 41
31 99 55 106 45 3 -5 -1 -26 -9 -48 -19 -52 -18 -89 1 -119 12 -18 14 -37 10
-72 -11 -79 -6 -153 14 -212 10 -31 21 -77 25 -102 7 -53 38 -103 125 -203 33
-39 63 -81 67 -94 3 -13 0 -55 -7 -94 -10 -49 -10 -72 -3 -79 17 -17 30 -3 37
36 8 41 14 42 58 15 40 -25 179 -70 215 -70 14 0 40 -9 58 -20 29 -18 39 -19
126 -9 153 17 336 88 440 170 44 34 57 35 109 9 39 -20 40 -22 40 -74 0 -62
-37 -140 -103 -219 -57 -68 -84 -81 -137 -62 -89 31 -124 14 -118 -57 l3 -42
-65 -23 c-75 -27 -223 -42 -234 -24 -4 6 -30 11 -58 11 -29 0 -65 4 -82 9 -17
5 -57 17 -89 26 -39 11 -73 30 -105 58 -26 23 -71 59 -100 80 -33 25 -54 49
-58 65 -12 54 -17 56 -26 12 -9 -47 -4 -55 48 -86 17 -10 18 -15 6 -60 -7 -27
-22 -66 -32 -87 -28 -54 -26 -77 6 -77 28 0 28 0 5 -65 -6 -16 -13 -41 -16
-55 -8 -39 -19 -50 -43 -43 -20 5 -22 12 -22 67 0 34 7 88 15 121 14 53 14 72
1 183 -17 139 -15 147 50 197 37 28 39 32 24 55 -8 12 -13 12 -44 -2 -29 -14
-55 -16 -154 -11 l-119 6 -99 -48 c-103 -49 -168 -90 -207 -129 -32 -33 -110
-92 -127 -98 -8 -3 -30 2 -49 9 -42 18 -509 31 -796 23 -176 -5 -191 -5 -205
13 -15 17 -40 18 -330 22 -173 3 -367 9 -430 15 -319 27 -766 44 -776 29 -8
-14 -412 0 -491 17 -13 2 -23 11 -23 20 0 8 5 12 10 9 6 -3 30 -3 55 1 38 5
48 11 60 38 8 17 22 41 30 53 16 20 15 21 -15 28 -17 4 -34 13 -36 20 -4 10
-12 10 -34 2 -37 -14 -49 -3 -25 23 19 21 14 26 -35 32 -17 2 -25 9 -25 22 0
30 47 58 111 65 58 6 90 31 40 31 -13 0 -27 4 -30 8 -8 13 37 72 51 68 15 -6
47 30 38 43 -12 21 -43 11 -73 -23 -17 -19 -33 -43 -36 -53 -3 -11 -21 -23
-39 -28 -21 -7 -37 -20 -46 -40 -7 -16 -25 -42 -39 -57 -21 -23 -34 -28 -73
-28 -32 0 -49 -5 -53 -15 -4 -10 1 -15 14 -15 10 0 23 -7 28 -16 7 -13 13 -14
30 -5 24 13 92 15 92 3 0 -4 -17 -25 -38 -45 -30 -29 -46 -37 -75 -37 -36 0
-51 20 -27 35 5 3 10 11 10 16 0 17 -21 -1 -30 -27 -10 -25 -38 -32 -58 -12
-8 8 -6 18 8 39 l20 27 -27 20 -28 21 49 45 c27 26 47 49 43 52 -7 8 -47 -14
-47 -26 0 -5 -19 -22 -42 -36 -38 -24 -45 -26 -76 -14 -29 10 -36 9 -53 -6
-27 -24 -24 -29 22 -43 33 -10 38 -15 28 -27 -17 -20 -53 -17 -74 6 -26 29
-45 25 -45 -9 0 -23 5 -30 22 -33 33 -4 35 -36 4 -44 -23 -5 -26 -11 -26 -53
l0 -47 47 -16 c27 -9 66 -23 88 -31 30 -12 66 -14 146 -10 59 3 155 1 215 -6
96 -10 128 -9 274 10 177 22 374 25 590 8 63 -5 145 -10 182 -12 37 -1 72 -7
78 -13 8 -8 -33 -14 -147 -23 -107 -8 -184 -20 -238 -36 -137 -41 -190 -48
-306 -40 -59 4 -271 11 -471 16 -200 5 -384 11 -410 15 l-48 6 0 -33 0 -34 83
3 c247 8 711 10 771 4 84 -9 104 -31 21 -24 -37 3 -55 1 -55 -7 0 -11 73 -17
165 -12 73 3 278 -25 386 -55 131 -35 306 -44 386 -19 51 16 65 17 128 6 105
-19 281 -25 362 -12 74 11 109 9 380 -25 84 -10 118 -19 132 -33 14 -14 40
-20 102 -25 46 -4 136 -14 199 -22 63 -8 141 -14 175 -15 33 -1 71 -4 85 -9
59 -18 -28 -22 -404 -17 -217 2 -400 1 -406 -3 -28 -17 43 -22 355 -26 364 -4
431 -9 438 -29 7 -17 -1 -25 -28 -25 -13 0 -42 -7 -66 -17 -36 -13 -91 -17
-314 -19 -190 -2 -297 -7 -360 -18 -61 -11 -154 -16 -290 -16 -198 0 -201 0
-238 -26 -21 -14 -61 -29 -90 -34 -29 -5 -77 -14 -107 -20 -69 -15 -493 -14
-804 1 -187 8 -230 8 -237 -3 -13 -21 20 -32 106 -34 44 -1 102 -7 128 -13 34
-8 60 -8 87 -1 21 6 57 7 81 4 74 -12 520 -13 589 -3 138 22 225 42 254 60 27
17 53 19 221 19 178 0 239 4 440 31 44 6 166 15 270 19 142 6 207 13 256 28
37 11 71 17 77 13 7 -4 -5 -44 -35 -116 -25 -61 -69 -166 -98 -235 -81 -196
-96 -218 -257 -379 -219 -219 -299 -294 -349 -327 -70 -47 -221 -132 -256
-145 -18 -6 -33 -15 -33 -19 0 -20 23 -19 79 4 55 22 71 24 71 6 0 -3 -23 -14
-51 -24 -28 -10 -70 -33 -93 -50 -22 -17 -66 -44 -96 -60 -55 -29 -94 -59
-201 -153 -32 -29 -64 -53 -71 -53 -6 0 -20 -7 -30 -17 -10 -9 -18 -11 -18 -6
0 26 -51 22 -121 -9 -64 -29 -74 -30 -103 -19 -87 35 -174 37 -346 6 -89 -17
-424 -124 -495 -159 -27 -14 -124 -61 -215 -106 -211 -104 -252 -128 -312
-184 -27 -25 -52 -46 -57 -46 -4 0 -49 -42 -99 -94 -64 -65 -92 -101 -92 -117
0 -24 1 -23 19 5 34 51 249 231 339 283 31 18 161 85 287 148 201 100 253 122
414 170 220 66 285 78 352 65 51 -10 103 -33 114 -50 3 -5 -1 -20 -10 -33 -18
-28 -12 -37 27 -37 46 0 91 -24 122 -65 23 -30 30 -52 36 -111 4 -41 12 -79
18 -86 5 -7 13 -40 16 -73 6 -47 3 -75 -15 -130 -26 -84 -78 -192 -127 -260
-66 -93 -236 -256 -382 -367 -171 -130 -276 -183 -512 -262 -162 -54 -217 -67
-306 -70 -26 -1 -103 -12 -172 -24 -69 -12 -146 -22 -172 -22 -48 0 -48 0 -48
-33 l0 -33 86 -12 c102 -13 221 -2 302 30 28 11 61 18 72 15 20 -5 32 -3 200
34 109 24 223 63 263 91 15 11 55 31 89 45 34 13 82 39 106 56 24 18 58 41 76
52 18 11 50 36 72 56 21 20 85 78 142 129 57 51 109 104 117 119 7 14 38 55
69 90 32 37 75 104 101 157 42 86 49 95 100 123 34 19 64 46 80 71 14 22 30
40 36 40 5 0 34 23 63 50 44 42 59 65 84 133 17 45 33 96 37 114 9 45 29 59
65 46 22 -8 33 -8 46 2 24 17 9 35 -32 35 -42 0 -44 13 -5 30 37 15 72 52 108
114 24 42 35 51 80 66 29 9 70 28 90 42 21 13 98 52 170 86 190 87 351 196
514 348 58 55 127 115 153 134 56 41 60 45 89 88 12 17 48 69 80 115 77 108
170 257 209 335 18 34 35 62 39 62 3 0 9 -29 11 -65 4 -50 11 -71 32 -95 24
-29 26 -39 26 -118 0 -70 -6 -106 -31 -182 -17 -52 -40 -109 -50 -127 -22 -36
-74 -78 -132 -107 -49 -25 -107 -82 -107 -106 0 -22 19 -31 42 -19 11 6 32 4
58 -5 31 -11 49 -12 71 -4 24 8 34 7 49 -7 11 -10 22 -26 25 -36 15 -47 125
-77 159 -43 22 22 20 32 -14 71 -28 31 -30 39 -25 81 17 123 57 216 146 334
32 43 74 107 94 142 55 99 56 99 128 25 62 -64 135 -109 175 -109 17 0 25 -14
47 -87 77 -256 164 -393 330 -521 67 -52 132 -81 250 -112 84 -22 228 -84 246
-106 6 -7 35 -20 65 -29 62 -18 112 -13 161 17 31 18 32 18 115 -3 45 -12 94
-27 108 -34 27 -14 296 -84 345 -91 99 -12 299 -22 420 -21 139 2 140 2 143
25 3 21 1 23 -25 18 -15 -3 -73 -2 -128 2 l-100 7 58 39 58 40 107 -13 c122
-15 315 -29 322 -24 15 12 -37 23 -115 24 -165 3 -255 14 -255 31 0 7 -14 8
-36 5 -20 -4 -71 0 -113 8 -90 18 -81 17 -81 6 0 -5 19 -12 43 -16 91 -14 104
-34 35 -55 -24 -7 -52 -18 -63 -26 -35 -25 -202 -10 -410 36 -91 21 -218 65
-222 77 -2 5 29 19 69 31 97 30 283 123 342 172 27 22 53 40 59 40 6 0 41 30
79 66 65 63 70 66 105 59 53 -10 73 -23 73 -46 0 -28 30 -90 47 -96 7 -3 23 8
35 23 13 16 34 40 48 54 14 14 47 54 72 90 26 36 56 74 67 84 11 10 23 34 27
52 3 18 12 38 20 45 16 13 19 45 5 54 -5 3 -13 0 -17 -6 -15 -25 -90 -49 -156
-49 -38 0 -68 4 -68 8 0 10 76 113 93 127 7 6 35 48 62 95 27 47 50 87 51 89
10 12 71 -29 112 -74 59 -65 147 -129 168 -121 11 4 12 10 4 25 -16 31 -12 76
10 104 12 15 48 41 81 58 32 18 57 34 54 38 -3 3 -63 5 -133 6 -127 0 -127 0
-199 38 -80 41 -83 47 -57 118 8 24 21 85 29 134 8 50 17 100 21 113 4 13 2
22 -5 22 -6 0 -19 8 -29 18 -27 27 -18 82 12 82 83 1 413 -25 423 -32 53 -42
56 -329 4 -503 -55 -185 -138 -371 -193 -431 -11 -12 -38 -55 -61 -95 -75
-131 -177 -247 -272 -309 -46 -30 -84 -58 -85 -62 0 -16 24 -6 88 36 150 97
384 426 481 675 72 187 96 265 115 376 10 55 24 119 33 143 13 37 13 53 3 108
-7 37 -9 69 -4 73 5 5 91 11 191 14 173 6 183 5 193 -13 5 -10 10 -28 10 -40
0 -12 6 -27 13 -35 14 -13 31 -157 29 -246 -1 -104 -104 -446 -178 -591 -42
-83 -250 -348 -273 -348 -12 0 -35 -29 -29 -36 10 -9 126 96 180 163 132 163
186 270 253 493 64 215 69 244 68 365 -1 88 2 115 15 135 12 18 17 47 17 105
l0 80 100 -3 c55 -2 126 -7 158 -10 l58 -7 30 -85 30 -85 -7 -195 c-3 -107 -6
-206 -5 -220 1 -29 -14 -112 -35 -186 -8 -27 -34 -81 -59 -120 -25 -38 -45
-73 -45 -79 1 -25 67 71 117 171 l55 111 9 239 c5 161 4 254 -3 288 -6 28 -14
77 -17 109 l-7 57 131 -4 c119 -4 196 -11 251 -21 18 -4 22 -16 32 -97 12
-102 12 -102 -12 -303 -21 -179 -44 -253 -120 -395 -75 -140 -76 -145 -31 -95
37 40 105 165 105 194 0 9 12 34 25 56 18 30 25 54 25 95 0 60 19 161 44 234
18 52 22 211 6 221 -10 6 -14 77 -5 87 3 2 33 1 67 -3 35 -4 123 -10 197 -13
131 -5 173 -16 141 -36 -8 -5 -58 -10 -110 -10 -65 0 -90 -3 -80 -10 8 -5 56
-10 107 -10 115 0 117 -2 111 -139 -4 -70 -11 -108 -26 -141 -12 -25 -22 -58
-22 -74 0 -15 -16 -54 -35 -86 -19 -31 -48 -90 -64 -130 -16 -40 -39 -82 -49
-94 -11 -11 -23 -31 -26 -43 -13 -42 -135 -134 -256 -192 -46 -23 -98 -54
-115 -70 -35 -33 -201 -118 -212 -108 -3 4 4 25 16 47 12 22 18 40 13 40 -13
0 -46 -41 -64 -81 -11 -25 -32 -45 -65 -63 -55 -31 -211 -99 -263 -114 -19 -6
-79 -26 -132 -45 -96 -34 -115 -33 -81 5 23 26 9 34 -16 9 -46 -46 -108 -82
-174 -102 -38 -11 -71 -18 -74 -15 -11 11 9 24 47 30 22 3 40 11 40 16 0 14
-20 12 -68 -4 -22 -8 -61 -18 -87 -22 -36 -5 -49 -12 -57 -30 -13 -27 -36 -31
-52 -8 -10 12 -19 13 -56 5 -25 -6 -66 -11 -92 -11 -50 0 -64 -13 -25 -24 18
-5 19 -8 7 -15 -16 -10 -218 -30 -343 -35 -43 -2 -80 -5 -82 -8 -3 -3 -2 -13
1 -23 7 -16 19 -17 156 -11 87 4 166 13 190 22 52 18 264 63 388 83 30 4 115
25 188 45 74 20 142 36 153 36 11 0 27 4 37 9 9 5 71 26 137 47 136 42 402
149 485 195 19 11 64 33 100 50 96 44 142 68 270 140 63 36 165 88 226 116 61
28 135 67 165 87 110 74 225 158 256 188 l32 31 208 4 c115 1 269 8 343 13
253 19 625 40 723 40 62 0 97 4 97 11 0 10 -39 9 -365 -7 -55 -2 -145 -7 -200
-9 -55 -2 -188 -9 -295 -15 -358 -18 -440 -19 -440 -6 0 7 28 37 61 66 l62 54
341 2 c383 4 570 9 672 21 55 6 19 9 -171 13 -132 3 -244 3 -248 2 -5 -2 -47
-6 -95 -9 -48 -2 -89 -5 -92 -5 -3 0 -80 0 -171 1 -217 1 -244 19 -141 92 26
18 82 66 125 106 43 40 86 73 95 73 9 0 80 -7 157 -15 77 -8 170 -15 208 -15
51 0 67 -3 67 -14 0 -10 15 -16 43 -20 143 -17 240 -26 269 -25 37 1 -100 25
-206 37 -88 9 -98 28 -19 35 130 11 279 30 296 36 10 3 -162 6 -382 6 -220 0
-402 3 -406 7 -19 19 81 108 133 119 94 19 168 29 297 38 97 7 168 18 230 36
49 14 121 32 160 40 38 7 95 22 126 33 31 11 62 16 70 12 8 -4 39 -11 69 -15
30 -3 82 -15 115 -25 33 -11 71 -19 85 -18 14 0 50 -5 80 -11 95 -20 200 -24
299 -13 205 24 221 24 221 7 0 -11 -11 -15 -40 -15 -22 0 -40 -3 -40 -7 0 -5
82 -5 182 -2 101 4 186 4 191 2 4 -2 114 -9 245 -15 130 -5 269 -12 307 -14
98 -5 135 2 135 26 0 21 -5 22 -190 41 -118 12 -131 16 -104 36 16 11 -1 12
-111 7 -109 -5 -152 -3 -260 16 -120 20 -157 32 -143 45 9 9 70 10 238 2 350
-16 570 -17 570 -2 0 14 -133 29 -225 24 -27 -1 -156 2 -285 6 -129 5 -253 9
-275 8 -22 0 -164 3 -315 9 -151 5 -392 11 -535 13 -454 5 -815 17 -821 27 -6
10 126 151 158 169 10 6 90 5 210 -1 106 -6 418 -12 693 -14 315 -2 522 -7
560 -14 33 -7 93 -15 133 -20 65 -7 75 -6 86 10 12 16 31 18 197 19 101 0 237
-2 302 -6 107 -7 117 -6 117 9 0 14 -6 16 -27 12 -56 -12 -810 25 -1008 49
-171 20 -264 25 -270 14 -4 -5 13 -10 37 -11 24 -1 63 -3 88 -4 25 -2 54 -3
65 -3 34 -2 230 -33 235 -38 7 -7 -1133 7 -1259 15 -109 7 -131 19 -89 45 20
13 67 14 328 7 168 -5 349 -10 402 -11 54 -2 100 0 103 3 8 7 -129 16 -461 29
-159 6 -295 15 -303 19 -11 6 3 21 54 56 37 27 129 95 204 150 134 100 302
194 486 273 111 47 160 80 235 155 101 103 74 103 -126 3 -93 -46 -179 -88
-192 -92 -21 -6 -22 -5 -11 13 16 25 186 137 224 146 57 14 260 88 350 128 50
22 122 52 160 68 110 44 302 137 367 177 58 36 61 37 153 35 90 -2 96 -1 125
26 28 24 35 42 56 142 13 63 36 137 49 163 20 39 25 64 25 123 0 41 -3 74 -6
74 -3 0 -25 -17 -49 -37 -23 -21 -96 -69 -161 -108 -66 -38 -142 -88 -169
-111 -78 -63 -97 -73 -175 -95 -260 -72 -735 -306 -817 -402 -26 -32 -72 -65
-205 -150 -57 -37 -72 -57 -43 -57 25 0 17 -13 -31 -50 -40 -31 -72 -76 -61
-87 8 -8 60 18 100 51 101 81 212 145 282 162 80 19 125 39 125 56 0 15 -112
3 -151 -18 -44 -22 -60 -3 -21 25 17 11 34 21 39 21 17 0 55 48 42 52 -54 18
478 282 631 313 19 4 53 15 76 26 22 10 62 23 90 30 27 7 62 23 78 36 16 13
34 22 40 20 7 -2 12 -37 14 -89 l3 -85 -73 -44 c-40 -24 -95 -54 -123 -65 -27
-12 -84 -38 -125 -58 -41 -20 -83 -36 -93 -36 -10 0 -32 -7 -49 -16 -53 -28
-168 -74 -304 -124 -72 -26 -142 -53 -154 -60 -52 -28 -239 -172 -245 -188 -3
-10 -20 -23 -38 -30 -17 -7 -49 -28 -71 -48 -30 -28 -35 -38 -25 -45 12 -8 12
-11 -1 -18 -28 -19 -201 -84 -206 -78 -3 3 -10 25 -15 48 -13 55 -58 127 -84
134 -27 8 -111 147 -124 205 -5 25 -6 65 -1 90 9 53 77 188 120 236 16 19 30
39 30 44 0 26 -25 1 -95 -92 -42 -57 -88 -117 -103 -135 -15 -17 -56 -70 -92
-118 -36 -48 -88 -111 -116 -140 -64 -66 -134 -159 -134 -180 0 -8 -6 -15 -13
-15 -8 0 -24 -12 -38 -26 -95 -104 -315 -266 -400 -296 -16 -6 -28 -15 -26
-21 2 -6 -19 -22 -47 -35 -49 -23 -59 -24 -266 -24 -151 1 -206 -2 -185 -9 17
-5 87 -11 158 -12 157 -4 176 -15 91 -54 -54 -26 -70 -28 -184 -29 -244 -3
-503 -16 -489 -25 19 -12 134 -11 239 1 97 12 223 3 217 -14 -2 -6 -19 -12
-38 -14 -18 -2 -37 -8 -40 -14 -12 -20 -328 -15 -469 6 -104 16 -153 18 -290
12 -544 -23 -563 -23 -815 0 -78 7 -165 7 -330 1 -225 -9 -303 -16 -420 -36
-66 -11 -136 -21 -156 -21 -20 0 -49 -4 -65 -9 -16 -5 -83 -16 -149 -25 -66
-9 -141 -23 -166 -31 -65 -21 -74 -19 -105 18 -50 60 -64 103 -64 212 0 55 -4
116 -9 135 -54 212 -75 253 -175 348 -68 65 -105 75 -281 76 -130 1 -144 -1
-200 -25 -185 -80 -196 -84 -205 -69 -6 10 7 29 49 70 64 61 120 129 144 175
9 17 32 63 52 103 20 39 41 72 47 72 6 0 17 -8 24 -17 8 -11 13 -13 14 -6 0 7
13 28 30 46 18 21 29 44 28 58 -2 28 69 179 84 179 14 0 174 -129 223 -180 22
-23 58 -54 80 -69 68 -46 68 -46 56 -22 -7 11 -35 38 -64 59 -29 22 -58 46
-65 55 -20 24 5 33 31 10 12 -10 43 -38 69 -61 27 -24 57 -42 70 -42 20 1 16
7 -27 45 -27 24 -46 47 -42 51 4 5 14 4 21 -1 63 -48 117 -76 165 -85 31 -6
73 -15 93 -21 28 -7 44 -6 60 3 13 7 36 13 53 13 19 0 31 6 33 16 2 12 -12 18
-65 26 -105 16 -215 68 -251 117 -17 23 -49 65 -72 94 -64 84 -46 100 27 25
33 -35 65 -63 70 -63 6 0 16 -7 23 -15 7 -8 16 -15 20 -15 5 0 -16 25 -46 56
-74 78 -71 88 17 60 159 -50 222 -67 279 -76 90 -14 92 -13 88 12 -3 20 -8 22
-46 20 -28 -3 -81 8 -155 31 -61 20 -150 47 -197 61 -84 25 -86 26 -118 79
-43 70 -42 81 4 62 43 -18 44 -18 44 -5 0 5 -21 21 -47 34 -41 20 -56 38 -102
114 -66 110 -141 191 -204 220 -26 12 -66 31 -90 42 -24 11 -47 20 -52 20 -5
0 -38 15 -74 34 -83 43 -173 69 -209 62 -17 -4 -59 4 -116 24 -50 16 -106 30
-126 30 -20 0 -45 6 -56 14 -14 11 -35 13 -76 9 -32 -3 -58 -3 -58 0 0 15 138
135 188 162 79 44 191 61 256 39 28 -10 56 -28 68 -45 20 -26 23 -27 38 -14
15 14 23 10 84 -36 68 -51 102 -61 53 -15 -22 21 -27 34 -27 76 0 27 4 50 9
50 5 0 25 -18 44 -39 35 -39 35 -39 32 -123 -3 -93 3 -89 -90 -63 -41 11 -128
19 -270 25 -115 5 -225 13 -243 19 -24 7 -32 7 -30 -1 6 -16 41 -24 160 -37
57 -6 123 -18 148 -26 25 -7 81 -21 125 -30 44 -9 117 -34 162 -55 45 -22 85
-40 88 -40 4 0 27 -16 52 -35 25 -19 54 -35 64 -35 19 0 39 28 39 53 0 31 -61
104 -115 137 -54 34 -56 36 -50 70 14 92 16 139 7 157 -10 17 -123 80 -212
117 -19 8 -46 22 -60 30 -27 15 -208 66 -237 66 -10 0 -45 -13 -78 -28z m54
-48 c-15 -18 -59 -37 -67 -29 -11 10 32 45 56 45 21 0 23 -2 11 -16z m214 -10
c22 -7 17 -28 -7 -32 -10 -2 -40 4 -68 13 -27 9 -58 13 -69 10 -19 -6 -26 5
-11 19 7 8 119 0 155 -10z m-333 -29 c0 -8 -19 -27 -42 -42 -24 -14 -37 -28
-30 -31 7 -2 34 10 61 27 41 27 60 32 129 36 78 5 132 -5 132 -24 0 -5 -30
-16 -67 -25 -86 -22 -184 -73 -250 -131 l-52 -45 -35 17 c-23 11 -36 24 -36
36 0 16 -3 17 -15 7 -36 -30 -47 25 -15 78 23 38 107 82 157 82 18 0 38 7 45
15 16 18 18 18 18 0z m438 -58 c12 -11 22 -29 22 -39 0 -17 -2 -17 -42 3 -63
31 -70 39 -57 56 14 16 45 9 77 -20z m-633 -177 c4 -6 -13 -10 -45 -10 -32 0
-49 4 -45 10 3 6 24 10 45 10 21 0 42 -4 45 -10z m-35 -50 c8 -5 12 -11 10
-13 -12 -9 -291 -59 -297 -53 -10 9 14 24 57 36 20 5 44 16 55 24 23 17 150
22 175 6z m191 -77 c48 -24 70 -43 51 -43 -5 0 -58 10 -118 21 -60 12 -134 24
-164 28 -96 12 -9 32 109 25 53 -4 87 -12 122 -31z m114 -43 c3 -5 1 -10 -4
-10 -6 0 -11 5 -11 10 0 6 2 10 4 10 3 0 8 -4 11 -10z m325 -16 c29 -8 49 -18
46 -21 -9 -9 -160 -3 -170 7 -5 5 -6 16 -2 25 7 19 33 17 126 -11z m-199 -14
c26 -15 18 -25 -33 -39 -64 -18 -353 -2 -353 19 0 25 117 35 186 16 79 -23
103 -21 96 5 -5 20 -3 21 39 15 25 -3 54 -11 65 -16z m-434 -2 c26 -11 24 -12
-42 -19 -87 -9 -215 -44 -279 -76 -32 -16 -78 -28 -135 -34 -47 -5 -104 -13
-126 -19 -54 -13 -63 -12 -40 3 33 22 131 53 290 93 83 20 159 43 170 51 24
16 124 17 162 1z m653 -44 c68 -20 215 -88 225 -103 13 -23 -1 -21 -73 9 -41
18 -87 30 -109 29 -32 -1 -115 13 -220 36 -36 8 -27 23 20 33 63 15 98 14 157
-4z m-528 -34 c32 0 58 -4 58 -8 0 -5 -33 -14 -72 -21 -40 -7 -82 -17 -93 -22
-11 -5 -29 -8 -40 -7 -11 0 -57 -3 -102 -7 -79 -7 -83 -7 -83 12 0 20 22 45
50 57 8 3 62 4 119 1 57 -3 130 -5 163 -5z m338 -29 c36 -5 91 -15 123 -22 51
-12 57 -16 57 -39 1 -22 2 -23 11 -7 5 9 17 17 24 17 17 0 20 -16 5 -25 -16
-10 -12 -19 20 -60 17 -21 40 -73 55 -123 15 -48 36 -103 49 -122 12 -19 34
-60 48 -90 l27 -55 -21 -83 c-18 -73 -27 -90 -69 -135 l-49 -52 -20 24 c-11
13 -20 36 -20 52 0 16 -3 30 -7 30 -5 1 -44 3 -88 4 -67 3 -88 0 -131 -20 -79
-35 -173 -159 -275 -363 -75 -149 -112 -202 -143 -202 -7 0 -39 30 -72 68 -81
90 -92 150 -29 166 34 9 32 28 -2 24 -35 -4 -73 -59 -73 -106 0 -30 10 -44 71
-102 39 -38 69 -74 67 -82 -8 -22 -102 -14 -146 13 -49 30 -140 131 -148 165
-4 14 -1 43 6 65 11 31 11 41 0 54 -21 25 -32 3 -37 -73 -4 -62 -2 -75 21
-115 14 -24 26 -59 26 -78 0 -52 47 -99 98 -99 24 0 45 6 53 16 11 13 24 15
66 10 59 -7 111 9 151 47 50 46 113 147 136 218 34 104 61 161 91 193 l26 28
35 -31 c19 -17 39 -31 45 -31 20 0 75 28 91 47 17 19 16 19 -47 15 -71 -5 -95
6 -95 42 0 55 73 84 212 85 68 1 68 1 93 -37 27 -41 25 -73 -8 -100 -8 -7 -18
-28 -21 -46 -8 -42 -70 -137 -128 -196 -123 -126 -359 -300 -407 -300 -9 0
-21 -4 -27 -10 -20 -20 -198 -42 -304 -38 -92 4 -115 8 -185 38 -91 38 -116
61 -164 149 -19 34 -58 88 -86 119 -65 73 -91 117 -99 169 -3 23 -19 75 -36
116 -34 84 -39 156 -14 181 8 9 30 16 49 16 43 0 65 9 65 26 0 17 -5 17 -29 2
-26 -16 -62 8 -85 55 -21 46 -20 79 4 110 11 14 20 34 20 45 0 26 22 43 109
87 56 28 81 35 105 31 34 -7 192 44 241 79 17 11 68 36 115 54 109 43 130 56
130 84 0 23 17 47 32 47 4 0 8 -9 8 -20 0 -25 13 -25 64 -1 50 22 169 56 250
70 33 6 62 13 65 16 3 3 12 3 20 0 9 -3 45 -10 81 -14z m374 -75 c83 -38 151
-84 203 -138 128 -132 165 -179 151 -194 -12 -12 -131 59 -194 116 -36 33 -71
60 -78 60 -6 0 7 -15 28 -33 61 -52 38 -60 -49 -18 -58 28 -77 42 -85 65 -5
16 -10 31 -10 32 0 10 25 2 41 -12 10 -9 25 -14 34 -12 12 2 5 12 -26 33 -59
41 -151 134 -144 145 7 11 19 6 129 -44z m-1230 35 c18 -7 16 -9 -12 -19 -32
-11 -62 -7 -62 8 0 16 45 22 74 11z m-270 -21 c-5 -5 -25 -12 -44 -16 -33 -5
-34 -5 -16 10 22 17 77 23 60 6z m568 -5 c0 -5 -5 -11 -10 -13 -5 -1 -9 4 -9
13 0 9 4 14 9 13 5 -2 10 -8 10 -13z m-102 -12 c-1 -14 -141 -54 -255 -74
-123 -21 -164 -24 -149 -10 16 17 187 74 244 81 76 10 160 11 160 3z m1219
-18 c34 -17 94 -90 89 -106 -5 -16 -86 49 -110 89 -22 36 -19 38 21 17z m6665
-162 c-4 -10 -14 -52 -22 -93 -19 -99 -28 -119 -54 -129 -45 -17 -61 5 -73
100 l-6 54 68 42 c75 46 100 53 87 26z m-6748 -132 c14 -31 33 -64 42 -75 16
-18 16 -19 -12 -12 l-30 7 36 -42 c39 -48 70 -67 44 -27 -25 38 -7 41 36 5 98
-81 193 -183 179 -191 -9 -6 -81 59 -81 74 0 4 -13 13 -29 20 -16 6 -39 22
-52 36 -29 31 -41 31 -33 -1 7 -27 -4 -32 -36 -15 -19 10 -110 143 -110 160 0
14 14 12 28 -2 24 -24 12 11 -27 78 -22 38 -37 72 -34 77 9 15 53 -35 79 -92z
m-1656 34 c0 -7 -78 -45 -92 -45 -24 1 43 50 68 50 13 0 24 -2 24 -5z m1766
-65 c61 -21 147 -76 179 -116 63 -79 74 -119 23 -81 -53 39 -123 77 -144 77
-33 0 -164 146 -164 184 0 4 15 -5 34 -22 19 -16 51 -35 72 -42z m258 -275 c7
-19 -5 -19 -30 0 -19 14 -19 14 2 15 12 0 24 -7 28 -15z m84 -60 c14 -29 10
-31 -23 -9 -30 19 -32 34 -7 34 11 0 24 -11 30 -25z m162 -55 c0 -5 -7 -10
-15 -10 -8 0 -15 5 -15 10 0 6 7 10 15 10 8 0 15 -4 15 -10z m4205 -249 c32
-76 82 -146 129 -177 22 -15 39 -40 54 -79 27 -71 27 -82 0 -96 -13 -6 -34
-22 -48 -34 -35 -33 -130 -95 -144 -95 -6 0 -23 23 -38 50 -32 57 -148 145
-205 156 -37 7 -58 -2 -27 -11 45 -14 122 -55 152 -80 32 -27 82 -111 82 -137
0 -16 -55 -78 -69 -78 -5 0 -28 35 -51 78 -39 76 -43 79 -113 115 -39 21 -83
37 -97 37 -35 0 -11 -16 57 -36 28 -8 63 -26 77 -40 40 -40 76 -109 82 -157 6
-41 5 -44 -24 -56 -16 -7 -45 -11 -63 -9 -29 3 -40 12 -76 67 -45 68 -80 95
-158 120 -27 9 -51 23 -53 31 -1 9 78 95 188 203 139 138 190 195 190 212 0
13 24 51 58 92 l57 69 6 -40 c4 -23 19 -70 34 -105z m801 -66 c-11 -8 -25 -15
-30 -15 -6 0 -2 7 8 15 11 8 25 15 30 15 6 0 2 -7 -8 -15z m-196 -79 c0 -2 -7
-6 -15 -10 -8 -3 -15 -1 -15 4 0 6 7 10 15 10 8 0 15 -2 15 -4z m-5368 -48
c10 -10 27 -18 38 -18 27 0 107 -74 129 -120 57 -113 93 -302 91 -485 -1 -120
-4 -146 -21 -179 -15 -29 -18 -49 -13 -81 l6 -42 -46 -7 c-24 -4 -62 -3 -83 2
-21 6 -85 13 -143 16 -112 7 -121 12 -119 61 4 64 0 75 -24 75 -30 0 -45 31
-53 112 -4 42 -1 85 9 128 15 63 14 80 -3 80 -11 0 -72 -148 -75 -185 -2 -23
-7 -29 -21 -27 -25 5 -354 184 -354 193 0 17 33 17 62 0 33 -19 176 -47 186
-36 4 3 -4 9 -17 12 -69 18 -157 80 -139 98 3 4 70 1 147 -5 78 -7 148 -9 157
-6 29 11 3 26 -45 26 -60 0 -111 10 -111 21 0 5 22 9 49 9 77 0 69 17 -11 25
-60 6 -73 5 -83 -9 -12 -15 -46 -22 -57 -10 -3 3 8 32 24 65 17 35 35 91 41
132 6 40 15 78 20 85 16 21 65 44 147 68 97 30 284 30 312 2z m-1162 -48 c14
-11 31 -20 38 -20 7 0 10 -4 7 -10 -3 -5 -14 -10 -24 -10 -20 0 -71 36 -71 51
0 15 23 10 50 -11z m-4570 -134 c0 -14 -29 -31 -38 -22 -2 3 -2 12 1 21 8 19
37 20 37 1z m10718 -18 c-3 -7 -15 -14 -29 -16 -23 -2 -23 -2 -5 13 24 18 39
20 34 3z m-10463 -7 c3 -5 1 -13 -5 -16 -15 -9 -43 3 -35 15 8 13 32 13 40 1z
m90 -11 c7 -12 -12 -40 -26 -40 -5 0 -9 11 -9 25 0 25 23 35 35 15z m-394 -10
c14 0 34 -6 45 -14 19 -14 18 -15 -6 -41 -20 -21 -30 -24 -55 -19 -38 9 -95
35 -95 45 0 16 46 40 65 35 11 -3 32 -6 46 -6z m3968 -6 c3 -3 -5 -14 -19 -23
-52 -35 -86 -69 -140 -142 -55 -74 -182 -315 -196 -373 -6 -27 -9 -28 -50 -22
-27 3 -46 1 -50 -5 -8 -14 14 -29 43 -29 21 0 40 -16 30 -26 -7 -8 -317 49
-317 58 0 17 50 19 101 4 78 -24 87 -22 85 17 l-2 32 -62 -4 c-98 -5 -112 19
-66 112 39 77 91 142 135 166 22 12 39 27 39 33 0 27 31 46 69 41 27 -4 41 -1
51 12 12 14 12 18 0 25 -22 13 2 35 68 61 31 12 66 28 77 36 50 31 183 49 204
27z m69 -28 c3 -12 -1 -17 -10 -14 -7 3 -15 13 -16 22 -3 12 1 17 10 14 7 -3
15 -13 16 -22z m-3845 -5 c5 -5 -3 -11 -17 -15 -16 -4 -23 -11 -20 -20 3 -8 2
-16 -3 -19 -12 -8 -103 13 -103 23 0 5 12 18 27 30 23 18 36 21 68 15 22 -3
44 -10 48 -14z m9910 -38 c48 -22 62 -34 87 -78 17 -29 30 -58 30 -65 0 -9
-24 -11 -92 -8 -80 3 -104 8 -172 39 -44 20 -82 41 -84 47 -2 6 17 32 42 57
43 46 46 47 88 40 24 -4 69 -18 101 -32z m-6109 11 c36 -36 13 -173 -59 -348
-6 -14 -4 -17 6 -14 8 3 23 27 33 54 52 132 57 140 68 121 11 -20 8 -61 -12
-197 -21 -145 -10 -130 -95 -130 -82 0 -102 12 -64 41 13 10 22 19 19 22 -3 2
-31 10 -63 17 -67 15 -79 31 -70 86 6 36 5 38 -10 25 -38 -30 -16 -107 42
-149 l41 -29 -38 -7 c-69 -11 -139 -7 -145 9 -8 19 110 262 172 356 54 82 124
153 158 159 1 0 9 -7 17 -16z m6616 -3 c0 -13 -60 -55 -67 -47 -9 8 37 56 54
56 7 0 13 -4 13 -9z m-852 -123 c-3 -7 -13 -15 -24 -17 -16 -3 -17 -1 -5 13
16 19 34 21 29 4z m147 3 c17 -3 30 -13 30 -20 0 -12 -14 -14 -65 -12 -36 1
-67 4 -69 7 -2 2 2 10 9 19 13 15 42 17 95 6z m-7495 -43 c190 2 368 5 395 6
93 5 504 -13 521 -22 15 -9 15 -11 -6 -22 -23 -12 -23 -13 -5 -27 19 -13 17
-18 -35 -117 -51 -97 -57 -105 -90 -110 -29 -5 -218 11 -357 30 -52 8 -38 24
20 24 28 0 68 5 87 10 19 6 74 13 123 17 48 3 87 10 87 16 0 6 -53 6 -147 1
-147 -9 -336 -9 -423 -1 -25 2 -115 11 -200 20 -85 9 -218 16 -295 16 -77 -1
-198 4 -270 11 -90 8 -159 9 -225 3 -69 -7 -129 -6 -220 4 -69 8 -151 15 -183
17 -32 2 -60 6 -64 10 -3 3 -23 6 -44 6 -41 0 -95 17 -85 27 3 3 37 19 76 34
66 27 250 56 282 44 7 -3 36 0 63 5 29 5 178 6 350 2 165 -4 455 -5 645 -4z
m7614 -27 c27 -22 20 -48 -15 -55 -68 -13 -159 -7 -202 15 -55 28 -67 38 -61
52 6 18 255 7 278 -12z m-4834 -83 c275 -142 318 -176 327 -261 5 -44 5 -44
-28 -49 -19 -3 -60 -3 -91 0 -62 5 -72 18 -43 56 16 21 20 46 7 46 -4 0 -18
-18 -32 -40 -29 -48 -50 -55 -135 -47 -49 5 -66 3 -76 -9 -6 -8 -10 -16 -8
-19 3 -2 67 -9 144 -15 240 -20 248 -22 262 -50 15 -32 -4 -140 -40 -225 l-24
-58 -41 59 c-22 32 -53 71 -68 86 -46 43 -150 85 -274 113 -133 29 -210 53
-210 65 0 4 27 11 60 15 101 12 68 25 -45 18 l-105 -6 -14 34 c-15 37 -39 216
-30 231 9 15 45 8 50 -9 10 -35 79 -164 82 -155 2 6 -8 33 -22 61 -28 54 -35
121 -13 121 7 0 30 -29 52 -65 22 -36 43 -65 48 -65 4 0 -9 30 -28 68 l-35 67
21 18 c12 9 25 17 30 17 16 0 38 -45 55 -115 17 -72 90 -244 108 -257 16 -11
96 -9 96 2 0 6 -13 10 -28 10 -31 0 -60 26 -84 75 -24 47 -51 136 -44 142 3 4
17 -4 31 -17 l25 -23 0 21 c0 13 -23 47 -54 81 -58 63 -78 120 -56 161 15 28
20 26 230 -82z m5033 85 c14 -3 17 -16 17 -63 0 -52 -4 -62 -39 -104 -51 -63
-80 -83 -92 -65 -12 19 -11 116 1 140 6 11 21 19 35 19 14 0 25 5 25 10 0 6
-18 10 -40 10 -38 0 -60 18 -60 49 0 18 92 21 153 4z m-6003 -10 c0 -23 -57
-123 -70 -123 -16 0 -12 28 11 73 34 67 59 88 59 50z m6105 3 c16 -12 17 -16
6 -30 -7 -9 -24 -16 -37 -16 -20 0 -24 5 -24 30 0 34 22 40 55 16z m-665 -19
c0 -20 -21 -37 -46 -37 -33 0 -38 16 -12 34 27 19 58 21 58 3z m89 -11 l23
-13 -23 -6 c-31 -9 -69 -9 -69 -1 0 7 32 33 40 33 3 0 16 -6 29 -13z m-5459
-26 c0 -6 -25 -61 -55 -123 -31 -62 -58 -129 -62 -150 -7 -44 -38 -58 -81 -37
l-27 13 30 6 c27 6 30 10 31 46 1 46 57 174 98 223 26 30 66 44 66 22z m7708
-16 c12 -2 22 -9 22 -16 0 -7 -15 -9 -46 -4 -26 3 -71 6 -100 6 -41 0 -54 4
-54 15 0 12 13 14 78 9 42 -3 87 -7 100 -10z m-1944 -10 c21 -20 28 -51 24
-105 l-3 -44 -50 4 c-66 4 -85 15 -85 49 0 18 -11 39 -30 57 -37 35 -37 43 -2
48 68 10 131 7 146 -9z m-491 -14 c46 -14 80 -33 114 -64 26 -24 45 -47 41
-51 -4 -4 -40 -8 -80 -9 -67 -1 -82 3 -170 44 -54 24 -98 47 -98 51 0 7 97 47
116 48 7 1 41 -8 77 -19z m276 4 c26 -15 54 -55 72 -101 8 -23 7 -23 -66 -23
l-74 0 -70 62 c-39 34 -71 66 -71 70 0 4 41 8 91 8 65 0 99 -5 118 -16z
m-5509 -9 c0 -8 -7 -33 -16 -55 -9 -22 -26 -80 -38 -127 -22 -88 -39 -112 -71
-99 -29 11 -13 74 51 190 54 101 74 125 74 91z m116 -124 c-12 -167 -13 -171
-52 -171 -32 0 -34 2 -34 33 1 54 26 180 44 214 11 23 21 30 32 26 14 -5 16
-19 10 -102z m2984 94 c0 -8 -7 -15 -15 -15 -16 0 -20 12 -8 23 11 12 23 8 23
-8z m-2918 -95 c4 -197 5 -185 -19 -188 -39 -6 -44 32 -22 158 10 62 19 116
19 121 0 5 5 9 10 9 6 0 11 -41 12 -100z m3898 79 c0 -5 -4 -9 -10 -9 -5 0
-10 7 -10 16 0 8 5 12 10 9 6 -3 10 -10 10 -16z m-3790 -71 c0 -97 9 -160 21
-152 5 3 9 33 10 67 1 102 12 162 29 162 16 0 21 -19 40 -150 l12 -79 -28 -23
c-23 -18 -42 -23 -90 -23 -73 0 -74 1 -74 131 0 113 12 149 51 149 l29 0 0
-82z m3337 76 c-3 -3 -12 -4 -19 -1 -8 3 -5 6 6 6 11 1 17 -2 13 -5z m643 -9
c0 -8 -2 -15 -4 -15 -2 0 -6 7 -10 15 -3 8 -1 15 4 15 6 0 10 -7 10 -15z
m-978 -17 c-7 -7 -12 -8 -12 -2 0 14 12 26 19 19 2 -3 -1 -11 -7 -17z m578 13
c0 -14 -18 -23 -30 -16 -6 4 -8 11 -5 16 8 12 35 12 35 0z m305 -1 c3 -5 -1
-10 -9 -10 -9 0 -16 5 -16 10 0 6 4 10 9 10 6 0 13 -4 16 -10z m896 -16 c100
-32 224 -200 217 -295 l-3 -44 -84 -3 c-96 -3 -101 0 -101 68 0 33 -9 60 -32
99 -38 63 -90 121 -109 121 -7 0 -1 -12 14 -27 36 -38 57 -93 57 -149 0 -41 2
-45 16 -33 27 22 45 -22 24 -62 -9 -16 -22 -19 -94 -19 -66 0 -86 3 -98 18
-27 31 -48 80 -48 115 0 45 -24 65 -142 118 -96 43 -107 59 -43 59 40 0 169
25 186 36 19 12 116 23 159 17 19 -2 56 -11 81 -19z m-5051 -70 c-19 -149 -18
-144 -50 -144 -33 0 -35 6 -19 65 12 45 69 168 75 162 2 -2 0 -39 -6 -83z
m3068 67 c9 -5 51 -11 94 -13 65 -4 75 -3 70 10 -3 10 -1 13 7 8 6 -4 9 -16 6
-26 -6 -19 33 -40 102 -54 23 -5 42 -21 68 -57 19 -27 39 -49 45 -49 5 0 10
-6 10 -14 0 -16 -62 -26 -157 -26 -79 0 -94 8 -127 64 -35 60 -111 126 -146
126 -15 0 -33 6 -39 14 -12 14 -9 16 42 25 5 0 16 -3 25 -8z m360 -8 c-2 -12
-11 -17 -23 -15 -25 5 -29 8 -20 21 11 19 47 13 43 -6z m-678 -9 c132 -18 197
-40 278 -94 79 -53 112 -85 112 -110 0 -19 -6 -20 -144 -20 -80 0 -180 -5
-222 -11 -56 -7 -79 -8 -82 0 -4 12 -211 160 -259 185 -53 27 -45 35 62 59 43
10 146 6 255 -9z m931 1 c137 -8 139 -9 197 -55 52 -41 142 -182 142 -222 0
-23 0 -23 -186 2 -65 8 -90 7 -128 -4 -54 -16 -96 -7 -96 20 0 13 7 15 34 10
24 -5 35 -3 39 8 7 19 -12 36 -40 36 -37 0 -73 24 -134 87 -61 64 -82 103 -54
103 8 0 18 -7 21 -15 6 -14 81 -31 105 -23 7 2 -4 14 -24 27 -44 27 -48 46 -9
38 16 -3 76 -9 133 -12z m413 -21 c94 -20 178 -62 260 -130 59 -48 126 -132
126 -156 0 -12 -190 -9 -303 5 l-97 12 -65 105 c-36 57 -74 114 -85 125 -23
24 -25 41 -7 48 25 11 101 7 171 -9z m238 -21 c21 -20 38 -41 38 -45 0 -14
-35 -8 -75 13 -55 29 -60 35 -45 54 20 24 41 18 82 -22z m162 11 c123 -39 163
-60 219 -113 63 -60 118 -154 100 -172 -15 -15 -221 -17 -247 -2 -32 18 -127
136 -152 188 -12 28 -32 63 -43 79 -11 17 -18 33 -15 38 9 14 55 8 138 -18z
m-6119 6 c3 -5 -1 -10 -9 -10 -9 0 -16 5 -16 10 0 6 4 10 9 10 6 0 13 -4 16
-10z m7015 -35 c14 -8 40 -103 40 -142 0 -18 -6 -51 -12 -73 -12 -36 -15 -39
-61 -45 -26 -4 -50 -5 -53 -2 -2 2 -9 41 -14 86 -6 58 -17 94 -36 127 -22 37
-24 48 -13 54 14 9 133 5 149 -5z m188 -74 c-6 -102 -29 -145 -80 -149 l-36
-3 -6 68 c-3 37 -10 86 -15 108 -5 22 -7 43 -5 47 3 5 37 8 76 8 l71 0 -5 -79z
m117 65 c18 -13 18 -15 -10 -52 -38 -50 -63 -74 -75 -74 -11 0 -14 98 -4 124
8 20 63 21 89 2z m-3558 -7 c6 -6 51 -12 99 -14 118 -4 194 -29 272 -91 75
-60 83 -89 25 -97 -21 -2 -103 0 -183 5 -123 9 -153 14 -195 36 -86 43 -176
104 -172 116 4 13 50 37 92 47 44 10 50 10 62 -2z m4166 -41 c48 -17 87 -35
87 -39 0 -15 -44 -28 -188 -54 -172 -32 -570 -71 -583 -58 -7 7 24 43 87 102
l98 91 206 -5 c196 -6 209 -7 293 -37z m-4496 10 c22 -25 63 -101 63 -118 0
-14 -85 -13 -98 3 -17 21 -26 105 -12 122 17 20 23 19 47 -7z m4703 -7 c7 -13
11 -14 21 -3 21 20 91 14 216 -21 165 -47 253 -67 288 -67 17 0 37 -4 45 -10
42 -27 -98 -24 -230 5 -36 8 -126 23 -200 35 -74 12 -139 25 -144 31 -6 5 -23
9 -39 9 -40 0 -108 21 -101 31 2 5 34 8 70 7 48 -1 67 -5 74 -17z m680 0 c25
-5 135 -26 245 -47 110 -20 204 -39 209 -42 18 -10 -28 -24 -100 -29 -60 -5
-78 -3 -92 11 -13 11 -28 14 -50 10 -17 -3 -70 -1 -119 5 -190 25 -242 32
-342 47 -134 19 -199 33 -206 44 -7 12 399 12 455 1z m270 -11 c8 -5 11 -12 8
-16 -10 -9 -78 5 -78 16 0 13 50 13 70 0z m-8078 -42 c-6 -6 -16 -7 -22 -3 -9
6 -9 9 1 16 17 10 34 0 21 -13z m-47 2 c-3 -5 -13 -10 -21 -10 -8 0 -14 5 -14
10 0 6 9 10 21 10 11 0 17 -4 14 -10z m-261 -27 c75 -11 120 -23 124 -31 2 -7
-7 -25 -21 -40 -36 -37 -51 -113 -37 -177 6 -27 15 -54 21 -61 6 -7 5 -30 -2
-65 -14 -66 -154 -304 -262 -446 -82 -107 -324 -350 -427 -428 -63 -48 -275
-175 -293 -175 -4 0 -25 -13 -45 -29 -20 -16 -83 -53 -140 -81 -78 -40 -106
-50 -114 -42 -18 18 -33 15 -65 -12 -42 -35 -75 -41 -117 -21 -39 19 -76 70
-76 105 0 13 15 37 36 56 39 37 166 125 229 158 65 35 206 151 269 221 32 37
75 77 95 90 20 13 53 41 73 62 140 144 233 233 243 233 6 0 26 13 45 30 34 29
34 30 13 36 -13 3 -23 13 -23 21 0 20 46 135 81 203 41 81 109 235 109 249 0
16 59 132 78 154 13 14 26 17 52 14 19 -3 88 -14 154 -24z m4431 17 c3 -5 2
-10 -4 -10 -5 0 -13 5 -16 10 -3 6 -2 10 4 10 5 0 13 -4 16 -10z m-3852 -20
c25 -36 15 -260 -17 -404 -31 -139 -111 -313 -184 -403 -68 -83 -172 -316
-172 -384 0 -16 8 -44 17 -64 19 -40 15 -48 -20 -40 -28 7 -64 60 -74 107 -6
32 -15 35 -34 11 -26 -30 -77 -45 -115 -33 -19 6 -34 15 -34 20 0 4 21 20 46
35 73 43 122 92 161 164 20 36 45 78 55 93 22 32 25 93 15 353 -9 241 -22 395
-35 428 -7 16 -12 42 -12 58 0 35 27 49 98 49 26 1 74 7 107 14 33 8 88 14
122 15 52 1 64 -2 76 -19z m128 -20 c10 0 19 -7 19 -15 0 -18 -27 -19 -67 -4
-22 8 -24 12 -13 19 8 6 21 8 28 5 8 -3 22 -5 33 -5z m63 -15 c3 -8 1 -15 -4
-15 -6 0 -10 7 -10 15 0 8 2 15 4 15 2 0 6 -7 10 -15z m8171 -5 c28 -7 54 -16
60 -21 12 -12 -336 -11 -355 1 -19 12 -14 16 45 28 61 13 183 9 250 -8z
m-8125 -5 c0 -9 -6 -12 -15 -9 -8 4 -15 10 -15 15 0 5 7 9 15 9 8 0 15 -7 15
-15z m553 -10 c12 -8 103 -35 202 -60 276 -70 339 -107 410 -243 l28 -53 -57
-117 c-32 -64 -69 -136 -82 -160 l-25 -43 -28 20 c-15 11 -53 31 -86 46 -80
35 -121 68 -146 118 -12 23 -34 56 -49 72 -15 17 -34 43 -41 60 -8 17 -30 37
-51 47 -37 18 -73 58 -102 115 -26 52 0 50 65 -7 33 -29 63 -50 66 -46 8 8
-52 74 -104 115 -24 18 -43 42 -43 52 0 16 8 19 55 19 77 0 69 17 -10 22 -75
5 -101 21 -71 44 25 18 41 18 69 -1z m3051 9 c9 -3 16 -12 16 -20 0 -18 -57
-19 -97 -2 l-28 12 40 6 c22 4 43 8 47 9 3 0 13 -2 22 -5z m-2020 -35 c27 -5
65 -9 85 -9 20 0 53 -5 75 -11 l38 -11 -7 -56 c-3 -31 -13 -86 -21 -122 -7
-36 -21 -101 -29 -145 -11 -60 -32 -113 -81 -210 -37 -71 -82 -152 -101 -178
-36 -48 -38 -74 -5 -44 10 10 22 17 27 17 4 0 14 8 21 17 7 10 16 14 21 10 4
-5 0 -14 -10 -21 -9 -7 -17 -22 -17 -32 0 -31 -127 -273 -172 -328 -23 -28
-70 -81 -104 -118 -34 -36 -81 -94 -103 -127 -43 -62 -144 -155 -189 -172 -32
-12 -42 -9 -210 74 -213 104 -327 202 -438 374 -59 92 -116 197 -124 228 -13
47 -61 185 -81 233 -27 60 -26 170 1 223 l21 40 61 -53 c45 -40 70 -72 99
-130 22 -43 39 -84 39 -92 0 -7 -11 -21 -25 -30 -15 -10 -25 -26 -25 -39 0
-13 -11 -39 -25 -57 -15 -21 -21 -36 -15 -38 15 -5 60 37 71 66 5 13 13 22 18
20 5 -2 29 -32 53 -68 34 -52 61 -77 132 -124 79 -53 96 -60 149 -64 53 -4 59
-3 55 14 -2 14 -19 21 -77 31 -76 12 -143 48 -214 112 -30 27 -67 90 -67 115
0 19 28 25 60 13 128 -48 162 -61 207 -77 52 -19 217 -124 251 -160 18 -20 18
-20 51 8 21 18 35 41 42 69 5 23 48 115 96 205 173 327 205 408 229 593 10 75
15 78 108 70 45 -4 103 -11 130 -16z m-1569 0 c28 -6 110 -15 184 -22 74 -7
136 -17 138 -22 2 -6 -12 -16 -31 -23 -19 -7 -64 -35 -101 -62 -37 -28 -78
-50 -91 -50 -33 0 -65 -54 -110 -185 -36 -105 -38 -135 -10 -135 20 0 28 -27
20 -77 -8 -55 -28 -67 -74 -43 -48 25 -108 110 -137 193 -21 59 -23 75 -14
115 18 82 31 189 31 256 l0 66 73 -1 c39 0 95 -5 122 -10z m-667 -45 c8 -23
12 -63 9 -99 -3 -33 2 -95 10 -137 15 -77 13 -108 -7 -108 -5 0 -10 18 -10 41
0 25 -7 50 -19 66 -16 19 -18 29 -9 47 8 19 5 34 -17 78 l-27 55 21 42 c12 23
19 47 15 53 -4 6 -1 9 7 6 8 -2 20 -22 27 -44z m3757 37 c47 -5 61 -10 63 -24
3 -17 -7 -18 -150 -16 -153 2 -200 11 -183 38 7 12 169 13 270 2z m-1096 -28
c17 -14 23 -33 28 -89 3 -40 3 -84 -1 -99 -7 -27 -7 -26 -89 51 -98 93 -102
99 -88 130 9 21 17 24 70 24 41 0 65 -5 80 -17z m726 7 c3 -5 -3 -10 -14 -10
-12 0 -21 5 -21 10 0 6 6 10 14 10 8 0 18 -4 21 -10z m-539 -29 c40 -24 68
-96 90 -226 13 -76 14 -103 4 -149 -6 -32 -15 -56 -18 -54 -4 2 -23 11 -43 20
-19 9 -66 49 -103 89 -59 62 -67 75 -61 98 4 14 9 46 12 71 3 25 9 49 14 55 5
5 9 26 9 46 0 65 39 85 96 50z m-1712 -92 c14 -44 26 -82 26 -84 0 -1 -69 -1
-153 1 l-152 3 -40 -77 c-22 -42 -45 -92 -50 -111 -13 -44 -35 -53 -35 -14 1
69 28 198 45 208 9 5 56 34 103 64 84 53 167 89 208 90 19 1 26 -11 48 -80z
m4686 41 c0 -22 -27 -30 -112 -30 -54 0 -68 3 -68 15 0 9 9 15 25 15 14 0 28
6 30 13 4 8 24 11 65 9 50 -3 60 -7 60 -22z m195 21 c-3 -5 -31 -15 -63 -21
-31 -6 -67 -14 -79 -17 -18 -4 -23 -1 -23 15 0 11 8 23 18 25 34 9 153 7 147
-2z m131 -15 c6 -16 -12 -56 -30 -68 -17 -11 -64 -9 -71 3 -4 5 -4 21 -1 34 9
35 91 60 102 31z m-703 -21 c2 -12 -79 -19 -102 -9 -11 6 -2 10 29 15 56 8 71
7 73 -6z m67 -6 c0 -5 -7 -9 -15 -9 -15 0 -20 12 -9 23 8 8 24 -1 24 -14z m80
0 c0 -5 -4 -9 -10 -9 -5 0 -10 7 -10 16 0 8 5 12 10 9 6 -3 10 -10 10 -16z
m430 4 c0 -37 -15 -44 -81 -41 -35 2 -64 8 -64 13 0 6 29 18 65 27 83 21 80
21 80 1z m-3434 -81 c90 -119 260 -293 324 -331 115 -68 205 -97 268 -87 61
10 71 -5 34 -52 -18 -22 -32 -47 -32 -55 0 -9 -5 -19 -12 -23 -11 -7 -19 1
-76 75 -38 49 -152 99 -257 111 -49 6 -103 16 -120 21 -16 6 -64 19 -105 30
-41 11 -99 34 -127 50 -44 25 -53 35 -53 57 1 48 48 245 61 252 21 13 67 -10
95 -48z m3012 22 c20 -6 14 -41 -25 -162 l-38 -114 -112 4 c-61 1 -115 7 -119
11 -4 4 -3 28 4 52 7 25 12 86 12 135 l0 89 133 -5 c72 -3 138 -7 145 -10z
m166 10 c46 -7 46 -7 46 -46 0 -38 -49 -180 -78 -226 -13 -21 -21 -23 -81 -20
l-66 3 1 40 c1 37 46 224 59 246 7 11 53 12 119 3z m217 -24 c15 -9 17 -15 9
-30 -15 -29 1 -24 25 7 17 21 27 25 49 19 l27 -7 -18 -30 c-26 -44 -97 -99
-127 -99 -14 0 -26 -4 -26 -10 0 -5 -11 -10 -25 -10 -16 0 -42 -15 -69 -40
-24 -22 -46 -40 -50 -40 -12 0 -6 31 13 68 11 21 27 67 36 103 9 35 19 67 21
71 8 12 112 10 135 -2z m-4801 -95 c25 -13 55 -27 68 -30 12 -4 35 -25 50 -48
15 -23 30 -44 35 -45 4 -2 23 -28 43 -58 45 -68 94 -107 168 -133 74 -26 106
-47 106 -69 0 -10 -11 -49 -23 -88 -28 -80 -41 -87 -96 -50 -20 14 -41 26 -46
26 -5 0 -38 13 -74 29 -36 16 -102 43 -146 61 -164 66 -176 73 -215 125 -43
59 -63 95 -57 102 3 2 34 -17 69 -42 79 -59 122 -82 116 -63 -2 7 -42 39 -88
71 -47 32 -90 68 -97 81 -13 26 -39 40 -55 30 -14 -9 -48 26 -48 48 0 11 -5
28 -11 39 -22 41 -9 45 127 41 111 -4 135 -7 174 -27z m4700 -102 c0 -9 -32
-43 -41 -43 -4 0 -2 11 4 25 11 22 37 35 37 18z m-414 -83 c42 0 44 -1 44 -30
0 -19 -19 -57 -55 -111 -31 -45 -55 -85 -53 -90 5 -14 102 118 132 179 23 46
31 53 49 48 12 -3 38 -6 57 -6 71 -1 71 -15 0 -81 -84 -78 -198 -164 -241
-182 -19 -7 -40 -21 -48 -30 -18 -23 -26 -21 -39 8 -6 14 -17 25 -23 25 -7 0
-5 -10 5 -26 33 -49 21 -64 -104 -125 -140 -69 -160 -76 -160 -54 0 8 11 20
25 25 27 10 79 94 96 154 6 22 26 62 45 90 19 28 34 54 34 59 0 5 11 32 24 60
13 29 26 60 29 69 6 18 59 28 111 22 16 -2 48 -4 72 -4z m-2965 -37 c38 -21
69 -40 69 -43 0 -14 -67 -114 -83 -124 -15 -9 -25 -4 -62 36 l-44 46 15 54
c17 57 22 68 31 68 3 0 37 -17 74 -37z m181 -63 c24 -6 69 -15 101 -21 35 -6
61 -17 64 -26 7 -17 -47 -135 -90 -201 -16 -24 -33 -59 -38 -77 -9 -32 -11
-33 -38 -24 -17 6 -56 45 -100 99 -68 85 -81 112 -63 124 5 3 26 35 47 71 41
70 46 72 117 55z m-244 -139 c15 -15 56 -67 91 -115 35 -48 80 -99 100 -114
20 -15 38 -30 41 -33 10 -13 155 -21 182 -10 21 8 27 7 32 -5 3 -9 -8 -21 -34
-34 -27 -14 -40 -27 -40 -41 0 -39 -81 -172 -96 -157 -4 4 -11 31 -15 59 -4
28 -14 58 -20 66 -18 21 -76 48 -133 62 -69 17 -206 80 -236 108 l-25 23 34
98 c19 53 38 103 44 110 16 20 47 14 75 -17z m-1636 -42 c3 -13 12 -49 18 -79
25 -112 149 -330 243 -427 81 -85 7 -61 -93 29 -95 84 -174 202 -201 298 -17
61 -18 78 -8 97 9 18 10 29 1 48 -7 14 -12 40 -12 57 0 29 1 30 23 16 12 -9
25 -26 29 -39z m4723 31 c3 -6 -1 -13 -10 -16 -19 -8 -30 0 -20 15 8 14 22 14
30 1z m-193 -135 c0 -5 -5 -11 -11 -13 -6 -2 -11 4 -11 13 0 9 5 15 11 13 6
-2 11 -8 11 -13z m-2975 -139 c49 -24 102 -47 120 -51 17 -3 37 -13 44 -22 26
-31 -14 -43 -140 -43 -117 0 -191 12 -191 31 0 11 70 129 76 129 2 0 43 -20
91 -44z m2669 -15 c-8 -12 -46 -21 -46 -11 0 9 18 18 38 19 7 1 11 -3 8 -8z
m-66 -30 c0 -11 -195 -111 -216 -111 -36 0 -5 24 89 69 105 51 127 58 127 42z
m-2625 -88 c72 -3 135 -9 140 -15 11 -10 -22 -42 -90 -88 -20 -14 -51 -37 -68
-51 -45 -37 -236 -146 -272 -155 -16 -4 -34 -10 -40 -14 -19 -15 -138 -41
-162 -35 -21 5 -34 35 -15 35 5 0 40 37 78 82 157 187 242 263 279 252 11 -3
79 -8 150 -11z m-3968 -318 c16 -48 57 -92 101 -111 l33 -13 -33 -61 c-28 -51
-39 -62 -76 -74 -61 -21 -83 -11 -165 82 -26 29 -47 63 -47 75 0 14 21 43 58
79 84 81 107 86 129 23z m5243 -105 c18 -11 13 -16 -27 -23 -36 -7 -44 6 -15
22 21 13 24 13 42 1z m-5450 -50 c0 -23 -4 -27 -20 -23 -35 9 -45 31 -25 53
23 25 45 10 45 -30z m-112 11 c9 -11 25 -31 36 -46 10 -15 33 -33 51 -41 18
-7 42 -29 54 -49 25 -44 43 -51 87 -37 27 8 36 8 40 -2 7 -17 -60 -153 -90
-186 -13 -14 -36 -50 -50 -81 -31 -66 -111 -148 -129 -130 -8 8 -8 28 -1 72 6
37 7 86 2 126 -6 44 -5 76 2 99 7 19 9 52 5 73 -4 27 -2 49 10 70 19 38 21 38
-108 45 -126 7 -141 15 -96 49 37 27 110 56 147 57 12 0 30 -9 40 -19z m5352
-5 c0 -2 -7 -6 -15 -10 -8 -3 -15 -1 -15 4 0 6 7 10 15 10 8 0 15 -2 15 -4z
m-5160 -101 c16 -30 9 -40 -19 -25 -21 11 -27 30 -14 43 11 12 19 8 33 -18z
m-222 -58 c2 -10 1 -26 -3 -35 -5 -13 -9 -11 -24 14 -10 16 -16 33 -14 37 8
14 38 2 41 -16z"/>
<path d="M5032 6784 c-20 -19 -28 -31 -17 -26 22 11 73 62 62 62 -4 0 -24 -16
-45 -36z"/>
<path d="M4260 5974 l-40 -36 0 -79 c0 -82 8 -95 34 -57 12 17 15 37 10 83 -7
66 7 90 55 97 34 4 40 28 7 28 -16 0 -42 -14 -66 -36z"/>
<path d="M4836 5995 c-8 -21 37 -70 86 -93 24 -11 52 -29 62 -41 11 -12 27
-21 36 -21 21 0 40 -20 40 -43 0 -10 23 -53 50 -95 40 -61 50 -71 50 -51 0 14
-11 40 -24 58 -14 18 -30 56 -36 84 -16 70 -72 127 -174 178 -43 21 -80 39
-81 39 -2 0 -5 -7 -9 -15z"/>
<path d="M4736 5864 c-4 -9 -2 -22 3 -28 5 -6 16 -36 24 -66 57 -205 61 -210
152 -203 63 4 145 38 145 60 0 16 -46 17 -56 2 -4 -7 -27 -10 -62 -7 -49 4
-60 9 -84 39 -16 19 -33 52 -39 74 -27 103 -33 121 -48 133 -20 16 -28 15 -35
-4z"/>
<path d="M5514 5556 c-10 -8 -16 -17 -12 -21 8 -8 48 13 48 25 0 14 -13 12
-36 -4z"/>
<path d="M10574 5171 c3 -4 25 -11 50 -13 63 -8 117 -37 146 -81 35 -54 37
-30 2 29 -19 34 -36 50 -53 52 -13 2 -28 8 -33 13 -13 11 -119 12 -112 0z"/>
<path d="M10810 5000 c6 -11 13 -20 16 -20 2 0 0 9 -6 20 -6 11 -13 20 -16 20
-2 0 0 -9 6 -20z"/>
<path d="M3684 4385 c-19 -14 -19 -14 1 -15 32 0 65 12 59 21 -8 14 -38 11
-60 -6z"/>
<path d="M4047 4672 c-20 -22 -22 -39 -5 -44 16 -6 52 38 43 52 -9 15 -20 12
-38 -8z"/>
<path d="M5333 4434 c-16 -25 -16 -27 8 -45 13 -10 27 -19 31 -19 16 0 39 50
33 70 -9 29 -50 26 -72 -6z"/>
<path d="M5145 4190 c-3 -5 1 -10 10 -10 9 0 13 5 10 10 -3 6 -8 10 -10 10 -2
0 -7 -4 -10 -10z"/>
<path d="M9334 4441 c8 -12 75 -35 83 -28 6 7 -24 22 -60 31 -18 4 -26 3 -23
-3z"/>
<path d="M5207 4058 c-34 -12 -43 -47 -23 -86 25 -48 83 -58 110 -20 23 33 20
56 -13 89 -32 32 -33 32 -74 17z m51 -30 c17 -17 15 -58 -3 -58 -16 0 -35 30
-35 54 0 19 21 21 38 4z"/>
<path d="M5324 3881 c-49 -85 -94 -113 -124 -76 -18 22 -32 18 -28 -7 2 -13
15 -26 34 -34 25 -10 36 -10 62 3 38 19 85 92 80 125 -4 22 -5 21 -24 -11z"/>
<path d="M4872 3787 c-12 -13 -22 -26 -22 -30 0 -3 14 -22 31 -42 34 -38 65
-45 73 -17 15 54 17 84 6 97 -19 22 -64 18 -88 -8z m60 -42 c-12 -22 -27 -2
-18 22 5 12 10 13 17 6 7 -7 8 -17 1 -28z"/>
<path d="M12447 6900 c-43 -45 -67 -76 -63 -85 3 -10 -1 -15 -11 -15 -16 0
-71 -57 -105 -109 -19 -29 -33 -45 -153 -183 -124 -140 -158 -167 -322 -248
-104 -51 -162 -87 -198 -121 -29 -27 -57 -49 -62 -49 -6 0 -17 -7 -24 -17 -8
-9 -45 -41 -83 -71 -38 -31 -65 -57 -58 -60 10 -3 164 110 222 164 25 23 214
124 232 124 10 0 149 92 191 127 37 30 50 21 44 -33 -4 -41 -15 -54 -208 -247
-112 -112 -241 -245 -287 -295 -69 -75 -91 -93 -125 -102 -23 -6 -67 -22 -97
-36 -42 -20 -51 -28 -37 -33 14 -5 3 -20 -59 -81 -42 -41 -101 -111 -132 -154
-31 -44 -69 -86 -85 -95 -16 -9 -39 -24 -51 -33 -20 -17 -19 -17 22 -3 59 20
152 97 141 116 -16 30 129 169 303 289 54 36 124 103 230 218 289 313 311 330
429 319 68 -6 111 7 146 45 35 37 75 146 81 217 4 50 16 87 54 165 58 119 82
161 114 199 13 16 24 33 24 38 0 5 12 27 26 49 15 22 24 46 20 55 -12 33 -50
15 -119 -55z m-236 -447 c-5 -46 -19 -104 -30 -128 -18 -41 -23 -45 -56 -45
l-36 0 7 38 c16 88 33 134 70 190 50 75 61 62 45 -55z"/>
<path d="M10986 5926 c-53 -58 -96 -108 -96 -110 0 -2 11 -6 25 -8 21 -5 31 5
76 74 29 43 66 90 83 103 22 18 28 27 20 35 -8 8 -38 -18 -108 -94z"/>
<path d="M11180 5910 c-121 -102 -114 -94 -92 -100 l21 -5 -20 -50 c-12 -27
-31 -74 -45 -102 -13 -29 -22 -53 -20 -53 3 0 42 36 87 80 75 73 80 80 52 74
-31 -6 -50 7 -38 26 5 8 11 8 20 0 7 -6 20 -7 30 -4 9 4 20 2 24 -5 5 -7 8 1
9 18 1 28 -1 30 -19 21 -22 -12 -39 -6 -39 14 0 7 18 34 40 59 57 65 52 79
-10 27z"/>
<path d="M11315 5911 c-35 -22 -103 -91 -89 -91 9 0 133 109 124 110 -3 0 -18
-9 -35 -19z"/>
<path d="M11285 5818 c-36 -19 -38 -22 -18 -27 20 -6 18 -11 -37 -96 -32 -49
-76 -112 -97 -140 -90 -115 -90 -122 1 -55 36 26 46 39 42 54 -6 23 99 188
159 249 35 35 36 37 14 37 -13 -1 -42 -10 -64 -22z"/>
<path d="M10855 5790 c-3 -5 1 -10 9 -10 9 0 16 5 16 10 0 6 -4 10 -9 10 -6 0
-13 -4 -16 -10z"/>
<path d="M11035 5780 c-3 -5 -2 -10 4 -10 5 0 13 5 16 10 3 6 2 10 -4 10 -5 0
-13 -4 -16 -10z"/>
<path d="M3570 5760 c0 -5 5 -10 10 -10 6 0 10 5 10 10 0 6 -4 10 -10 10 -5 0
-10 -4 -10 -10z"/>
<path d="M10896 5721 c-18 -35 -19 -41 -7 -41 10 0 34 61 27 68 -3 2 -12 -10
-20 -27z"/>
<path d="M6420 5696 c0 -2 7 -6 15 -10 8 -3 15 -1 15 4 0 6 -7 10 -15 10 -8 0
-15 -2 -15 -4z"/>
<path d="M10917 5662 c-28 -27 -37 -32 -37 -19 0 9 -3 17 -7 17 -10 0 -76
-140 -70 -147 3 -2 18 12 34 33 15 21 50 62 77 91 56 61 59 81 3 25z"/>
<path d="M10997 5573 c-4 -3 -7 -11 -7 -17 0 -6 5 -5 12 2 6 6 9 14 7 17 -3 3
-9 2 -12 -2z"/>
<path d="M6320 5500 c0 -11 33 -30 52 -30 7 0 2 9 -12 20 -28 22 -40 25 -40
10z"/>
<path d="M650 5095 c-38 -39 -35 -42 15 -21 24 10 35 22 35 35 0 29 -11 26
-50 -14z"/>
<path d="M580 5019 c0 -5 5 -7 10 -4 6 3 10 8 10 11 0 2 -4 4 -10 4 -5 0 -10
-5 -10 -11z"/>
<path d="M6470 4661 c24 -14 120 -24 120 -13 0 10 -57 22 -105 22 -22 -1 -26
-3 -15 -9z"/>
<path d="M6607 4637 c-14 -21 -20 -22 -136 -20 -73 2 -121 -1 -121 -7 0 -6 73
-10 188 -10 103 0 225 -4 272 -10 71 -8 401 -32 450 -32 8 -1 92 5 185 13 94
7 247 14 342 14 160 0 173 1 187 20 12 16 17 18 27 8 11 -11 9 -13 -6 -14 -16
-1 -14 -3 5 -8 14 -4 50 -4 80 0 68 9 930 24 1248 23 127 -1 232 2 232 7 0 5
-37 9 -82 9 -46 0 -139 5 -208 10 -198 15 -1259 11 -1485 -6 -116 -8 -323 -6
-450 6 -60 5 -246 12 -411 14 l-302 6 -15 -23z m438 -27 c4 -6 -16 -10 -54
-10 -33 0 -63 5 -66 10 -4 6 16 10 54 10 33 0 63 -4 66 -10z m65 -10 c0 -5 -8
-10 -17 -10 -15 0 -16 2 -3 10 19 12 20 12 20 0z m130 1 c0 -18 -20 -23 -60
-16 -56 9 -50 25 10 25 28 0 50 -4 50 -9z"/>
<path d="M11438 4623 c7 -3 16 -2 19 1 4 3 -2 6 -13 5 -11 0 -14 -3 -6 -6z"/>
<path d="M25 4450 c3 -5 15 -10 26 -10 12 0 39 -13 62 -29 37 -25 57 -30 164
-41 120 -13 220 -8 271 11 91 35 132 32 367 -27 33 -9 98 -20 145 -25 118 -14
190 -33 300 -84 l95 -43 200 4 c221 4 280 8 405 29 47 8 148 22 225 31 77 9
149 20 160 24 19 8 19 8 1 16 -20 8 -383 -21 -471 -37 -27 -5 -148 -10 -268
-10 -168 0 -225 3 -250 15 -17 8 -41 16 -52 19 -11 2 -75 21 -143 41 -67 20
-148 38 -180 40 -70 5 -201 24 -213 32 -5 3 -34 12 -64 20 -86 22 -178 18
-270 -12 -75 -25 -88 -26 -215 -20 -124 6 -140 9 -193 36 -55 29 -115 41 -102
20z"/>
<path d="M10764 4432 c5 -9 69 -12 214 -12 114 -1 317 -5 452 -10 135 -6 382
-12 550 -15 456 -7 772 -15 798 -22 26 -6 31 13 5 21 -38 10 -216 16 -663 23
-516 7 -480 7 -994 18 -278 6 -367 5 -362 -3z"/>
<path d="M0 4310 l0 -33 63 8 c34 5 140 9 236 10 113 1 176 5 178 12 3 7 -68
12 -219 15 -123 3 -231 8 -240 13 -15 6 -18 2 -18 -25z"/>
<path d="M910 4173 c-52 -8 -70 -14 -70 -22 0 -8 52 -8 113 -2 4 1 7 8 7 16 0
15 -4 16 -50 8z"/>
<path d="M165 4150 c-60 -4 -122 -8 -137 -9 -18 -1 -28 -7 -28 -16 0 -18 19
-18 245 -5 112 7 179 6 224 -2 55 -9 68 -8 91 6 19 11 55 16 114 17 47 1 86 6
86 11 0 9 -433 8 -595 -2z"/>
<path d="M11630 4107 c3 -3 48 -13 100 -22 114 -21 575 -34 550 -16 -9 7 -73
11 -165 10 -82 0 -193 4 -245 10 -137 17 -246 25 -240 18z"/>
<path d="M680 4070 c0 -5 12 -10 26 -10 14 0 23 4 19 10 -3 6 -15 10 -26 10
-10 0 -19 -4 -19 -10z"/>
<path d="M12343 4063 c9 -2 23 -2 30 0 6 3 -1 5 -18 5 -16 0 -22 -2 -12 -5z"/>
<path d="M12473 4058 c37 -6 63 -5 75 1 12 8 -3 10 -58 9 l-75 0 58 -10z"/>
<path d="M10840 4002 c-54 -14 -60 -17 -35 -20 32 -4 129 14 155 29 25 14 -49
9 -120 -9z"/>
<path d="M11646 4012 c8 -7 43 -16 229 -58 59 -13 120 -23 280 -43 252 -33
375 -44 503 -46 134 -3 142 -2 142 16 0 10 -6 19 -12 19 -340 10 -383 13 -553
39 -38 6 -133 18 -210 26 -77 9 -183 24 -235 35 -101 20 -160 25 -144 12z"/>
<path d="M11425 3869 c-77 -3 -176 -7 -220 -8 -55 -1 -75 -4 -65 -11 25 -16
467 2 500 21 17 9 -1 9 -215 -2z"/>
<path d="M10806 3861 c34 -15 254 -26 254 -12 0 7 -24 11 -67 11 -38 0 -99 2
-138 5 -48 4 -63 3 -49 -4z"/>
<path d="M11145 3739 c-38 -4 -128 -13 -200 -20 -225 -20 -263 -28 -115 -23
74 2 164 8 200 13 36 5 100 12 143 16 42 4 77 11 77 16 0 10 -5 10 -105 -2z"/>
<path d="M11630 3629 c-47 -4 -220 -12 -385 -18 -165 -7 -336 -18 -380 -25
-68 -12 -73 -14 -35 -15 25 0 88 4 140 10 52 5 154 12 225 14 72 2 191 6 265
11 96 5 142 4 157 -5 15 -7 30 -8 47 -2 13 6 65 11 115 12 68 2 91 6 91 16 0
15 -90 16 -240 2z"/>
<path d="M11369 3475 c-6 -6 -693 -27 -951 -29 -109 0 -198 -4 -198 -7 0 -8
67 -22 78 -16 4 2 50 1 102 -3 84 -6 198 -3 575 15 234 12 458 8 541 -9 84
-18 180 -18 177 -1 -2 12 -3 12 -115 20 -82 6 -111 18 -70 28 9 3 -17 5 -59 6
-42 0 -78 -1 -80 -4z"/>
<path d="M11795 3421 c-8 -14 10 -22 58 -26 36 -2 97 16 97 30 0 9 -149 5
-155 -4z"/>
<path d="M8320 3103 c0 -7 -9 -22 -21 -34 -29 -29 -18 -34 14 -7 19 17 24 27
17 38 -7 10 -10 11 -10 3z"/>
<path d="M7898 3024 c-29 -36 -69 -90 -88 -119 -19 -29 -60 -81 -90 -116 -54
-64 -34 -56 28 10 31 33 199 250 216 279 4 6 3 12 -2 12 -6 0 -34 -30 -64 -66z"/>
<path d="M9300 2931 c0 -21 19 -31 56 -31 14 0 72 -12 130 -26 76 -20 108 -24
116 -16 8 8 18 6 37 -7 33 -22 220 -56 234 -42 23 23 -3 38 -90 50 -120 17
-337 59 -397 77 -67 19 -86 18 -86 -5z m45 -11 c-3 -5 -10 -10 -16 -10 -5 0
-9 5 -9 10 0 6 7 10 16 10 8 0 12 -4 9 -10z"/>
<path d="M7173 2740 c-18 -11 -33 -23 -33 -28 0 -4 -13 -16 -30 -25 -16 -10
-30 -23 -30 -28 0 -14 27 3 85 55 55 50 57 56 8 26z"/>
<path d="M7030 2630 c-13 -8 -12 -10 3 -10 9 0 17 5 17 10 0 12 -1 12 -20 0z"/>
<path d="M6956 2579 c-27 -16 -46 -32 -44 -35 8 -7 68 8 68 17 0 4 10 17 22
29 32 30 9 24 -46 -11z"/>
<path d="M4870 2406 c-108 -29 -145 -45 -217 -94 -32 -21 -95 -60 -141 -86
-83 -47 -295 -198 -320 -228 -11 -14 -8 -17 18 -26 16 -6 30 -18 30 -26 0 -11
10 -16 31 -16 68 0 90 -41 45 -84 -37 -33 -107 -132 -151 -211 -21 -38 -58
-99 -82 -135 -25 -37 -39 -68 -34 -73 13 -13 48 1 87 35 21 18 34 25 34 16 0
-30 -105 -225 -139 -258 -20 -19 -56 -61 -80 -92 -24 -32 -49 -58 -56 -58 -13
0 -119 -60 -142 -80 -7 -6 -13 -20 -13 -31 0 -12 -10 -23 -25 -29 -24 -9 -32
-29 -19 -43 10 -9 64 21 110 62 92 81 205 113 253 74 17 -15 23 -36 31 -116 9
-90 8 -101 -10 -137 -25 -49 -25 -70 -1 -70 28 0 61 51 101 150 57 147 178
370 200 370 5 0 25 22 44 49 20 27 80 85 134 130 53 44 125 113 160 153 34 40
75 87 91 103 76 80 152 234 144 292 -10 63 16 164 57 228 68 107 76 171 26
221 -40 40 -52 41 -166 10z m149 -15 c10 -7 12 -22 8 -61 -8 -65 -40 -130 -94
-191 -47 -51 -51 -63 -27 -77 14 -8 15 -20 9 -81 -10 -97 -54 -183 -149 -291
-42 -47 -87 -101 -100 -121 -14 -20 -69 -76 -123 -125 -99 -90 -163 -159 -334
-362 l-27 -32 -47 14 c-26 8 -55 22 -64 30 -23 21 -28 20 -34 -4 -4 -15 -14
-20 -41 -20 -26 0 -36 4 -36 15 0 17 70 115 82 115 11 0 120 165 156 236 17
34 49 114 71 177 22 63 48 132 59 153 11 22 25 57 32 79 62 198 255 431 417
502 98 44 210 64 242 44z m-601 -333 c-24 -33 -51 -66 -60 -72 -22 -13 -72 3
-76 26 -6 30 169 151 176 121 2 -7 -16 -41 -40 -75z"/>
<path d="M4827 2274 c-4 -4 -7 -16 -7 -26 0 -14 6 -19 23 -16 14 2 22 10 22
23 0 20 -25 32 -38 19z"/>
<path d="M1150 2345 c-164 -27 -198 -38 -370 -113 -198 -87 -243 -111 -373
-205 -178 -127 -219 -166 -298 -285 -39 -59 -80 -118 -90 -131 -12 -15 -19
-40 -19 -69 l0 -45 81 109 c44 60 84 118 89 129 14 35 112 128 205 195 89 65
326 195 460 253 170 74 256 96 420 109 154 12 155 12 186 -11 16 -12 35 -21
42 -18 16 5 -72 55 -111 63 -22 5 -32 12 -32 25 0 24 -15 24 -190 -6z"/>
<path d="M1505 2219 c4 -13 14 -31 21 -39 13 -13 13 -11 3 18 -13 38 -35 57
-24 21z"/>
<path d="M1539 2115 c-4 -5 -9 -27 -13 -47 -14 -78 -67 -159 -220 -334 -21
-24 -36 -47 -32 -51 12 -12 87 69 213 231 40 51 65 123 61 173 -2 21 -6 34 -9
28z"/>
<path d="M3113 2114 c-7 -3 -13 -19 -13 -36 0 -18 -7 -36 -17 -43 -20 -15 -27
-83 -11 -102 7 -9 7 -13 -1 -13 -13 0 -161 -140 -161 -152 0 -21 -111 -117
-147 -127 -147 -40 -193 -51 -217 -51 -33 0 -130 27 -170 47 -34 18 -66 11
-84 -17 -10 -17 -9 -25 5 -46 15 -24 15 -27 -2 -57 l-18 -31 37 -31 c38 -32
38 -32 22 -62 -16 -33 -12 -42 28 -57 15 -5 17 -13 12 -39 -5 -29 -1 -37 35
-72 l41 -40 22 29 c70 95 85 113 115 133 84 57 179 67 406 43 72 -7 191 -14
265 -14 119 -1 142 2 197 23 69 26 125 74 163 140 14 24 59 72 102 107 91 76
162 164 192 242 13 31 34 76 49 99 20 32 23 44 14 52 -29 24 -167 50 -299 56
-129 6 -145 5 -243 -20 l-106 -27 -57 30 c-55 29 -134 47 -159 36z m127 -49
c48 -25 38 -47 -35 -83 -36 -18 -72 -32 -80 -32 -26 0 -26 20 0 52 19 22 25
38 20 55 -5 21 -2 23 30 23 20 0 49 -7 65 -15z m600 -37 c30 -6 59 -15 64 -19
16 -14 -4 -60 -42 -95 -43 -39 -53 -41 -70 -14 l-13 21 -29 -21 c-35 -25 -46
-59 -30 -90 12 -23 17 -23 94 -4 l29 7 -23 -32 c-12 -18 -51 -55 -86 -82 -35
-28 -92 -89 -129 -139 -75 -100 -96 -112 -216 -129 -83 -11 -273 -1 -379 21
-112 23 -210 14 -328 -28 -79 -28 -117 -48 -162 -85 -60 -51 -87 -62 -75 -31
4 9 9 23 12 30 3 7 -7 17 -25 23 -29 10 -31 14 -36 77 -4 37 -10 80 -16 95
l-9 28 90 -7 c77 -6 100 -4 157 14 37 12 94 26 127 33 55 10 66 17 135 86 41
40 98 96 125 123 28 27 82 67 121 89 101 56 264 125 275 114 4 -4 4 -37 -1
-73 -10 -70 3 -114 52 -183 13 -17 28 -40 33 -51 14 -27 70 -58 97 -54 22 3
21 5 -9 21 -18 10 -33 24 -33 32 0 7 -9 17 -20 20 -11 4 -27 19 -35 35 -8 16
-26 46 -40 66 -21 30 -25 49 -25 105 0 80 11 95 73 103 23 3 53 7 67 10 41 6
221 -4 280 -16z"/>
<path d="M3603 1986 c-25 -21 -26 -26 -15 -50 11 -24 16 -26 49 -20 53 9 73
22 73 44 0 21 -35 50 -62 50 -9 0 -29 -11 -45 -24z"/>
<path d="M9052 2057 c-6 -7 -9 -22 -6 -34 8 -31 -12 -61 -63 -93 -44 -28 -51
-30 -166 -29 -96 0 -151 7 -286 34 -134 28 -174 33 -201 25 -19 -6 -60 -10
-91 -10 -72 0 -159 -16 -215 -41 -37 -15 -45 -23 -42 -41 4 -31 51 -55 164
-84 93 -24 108 -25 254 -19 85 4 178 11 205 16 28 4 113 20 190 33 185 33 210
33 268 -4 55 -35 60 -36 81 -14 25 24 20 38 -30 87 l-47 45 22 30 c11 17 21
43 21 59 0 46 -34 69 -58 40z m28 -17 c0 -5 -5 -10 -11 -10 -5 0 -7 5 -4 10 3
6 8 10 11 10 2 0 4 -4 4 -10z m-517 -144 c76 -20 154 -36 174 -36 55 0 27 -18
-32 -21 -27 -1 -60 -6 -73 -11 -12 -4 -105 -13 -207 -19 -166 -10 -187 -9
-217 6 -18 9 -55 19 -83 22 -27 3 -58 10 -69 15 -18 10 -18 10 0 29 22 22 238
59 319 54 28 -1 112 -18 188 -39z m467 4 c-6 -11 -15 -20 -20 -20 -6 0 -10 9
-10 20 0 13 7 20 20 20 18 0 19 -3 10 -20z m54 -41 c-3 -5 -10 -7 -15 -3 -5 3
-7 10 -3 15 3 5 10 7 15 3 5 -3 7 -10 3 -15z"/>
<path d="M8209 1884 c-11 -14 -10 -18 6 -30 16 -12 21 -12 37 3 10 9 18 22 18
30 0 18 -45 16 -61 -3z"/>
<path d="M1182 1604 c-75 -80 -105 -100 -252 -175 -96 -48 -119 -64 -101 -67
13 -2 53 11 90 29 142 70 198 109 266 185 81 90 79 113 -3 28z"/>
<path d="M7379 1625 c-3 -3 -81 -5 -173 -6 -138 -1 -168 -4 -173 -16 -3 -8 0
-19 8 -24 20 -14 279 -5 288 10 4 6 15 9 24 5 9 -3 105 -7 212 -8 190 -1 196
0 193 19 -3 19 -12 20 -189 23 -102 1 -188 0 -190 -3z"/>
<path d="M685 1324 c-33 -14 -85 -31 -115 -36 -30 -6 -59 -14 -65 -19 -5 -5
-24 -9 -41 -9 -18 0 -45 -5 -61 -12 -15 -6 -50 -14 -78 -18 -27 -4 -76 -15
-108 -24 -32 -9 -73 -16 -91 -16 -66 0 -126 -12 -126 -26 0 -19 46 -18 186 6
253 43 565 130 594 166 20 23 -26 17 -95 -12z"/>
<path d="M6417 773 c-2 -1 -79 -9 -173 -18 -93 -8 -212 -23 -264 -34 -162 -32
-403 -109 -475 -151 -44 -26 -254 -108 -295 -116 -37 -8 -80 -31 -80 -44 0
-19 141 29 374 130 66 28 129 58 140 66 11 8 30 14 41 14 12 0 58 11 103 24
76 23 193 44 377 66 44 6 125 16 180 24 55 7 104 11 109 9 4 -3 67 -7 140 -10
167 -5 257 -24 308 -65 28 -21 42 -28 50 -20 18 18 8 27 -102 82 -20 10 -79
23 -135 29 -98 10 -293 20 -298 14z"/>
<path d="M6459 666 c-2 -3 -40 -5 -84 -6 -117 -3 -253 -18 -400 -46 -269 -52
-327 -70 -499 -155 -98 -50 -147 -79 -126 -75 19 3 89 33 155 66 160 79 221
97 465 136 120 19 105 18 390 34 193 12 221 11 271 -3 31 -9 68 -26 82 -38 33
-25 36 -65 7 -74 -11 -3 -25 -15 -30 -25 -14 -26 -134 -96 -189 -110 -26 -7
-40 -15 -35 -20 10 -10 147 32 170 51 8 6 14 7 18 0 4 -5 -1 -16 -10 -23 -9
-7 -28 -25 -42 -40 -16 -15 -71 -43 -132 -66 -92 -36 -127 -43 -290 -62 -102
-11 -205 -23 -230 -25 -25 -2 -94 -9 -155 -15 -133 -13 -466 3 -517 25 -45 18
-71 49 -64 72 4 11 20 34 38 51 17 18 28 35 24 39 -11 11 -86 -77 -86 -101 0
-36 41 -72 102 -90 107 -31 499 -37 623 -10 16 4 53 8 80 9 64 3 326 33 385
44 76 14 214 68 243 94 17 16 35 23 44 20 12 -5 15 -2 10 10 -8 21 2 22 17 3
8 -11 17 -12 36 -4 l25 11 -23 6 c-23 6 -23 7 15 37 21 17 48 36 61 43 12 6
22 17 22 23 0 7 -4 7 -14 -1 -11 -9 -14 -2 -18 43 -9 112 -105 176 -264 176
-39 0 -73 -2 -75 -4z"/>
<path d="M6984 609 c-3 -6 0 -24 6 -40 20 -46 7 -112 -29 -158 -54 -67 -171
-142 -246 -155 -21 -4 -64 -21 -95 -36 -66 -35 -163 -70 -191 -70 -10 0 -27
-4 -37 -9 -27 -14 -155 -31 -235 -31 -39 0 -99 -5 -132 -11 -33 -5 -95 -12
-138 -14 -43 -3 -82 -7 -87 -10 -5 -3 -35 -7 -67 -10 -32 -3 -78 -8 -103 -11
-124 -17 -403 2 -439 30 -8 6 -23 10 -35 8 -12 -1 -43 10 -71 26 -47 25 -50
30 -53 71 -3 39 1 48 35 83 21 22 48 44 61 49 21 8 32 39 14 39 -14 0 -122
-80 -122 -90 0 -5 -11 -21 -25 -36 -35 -38 -32 -68 13 -114 32 -35 51 -44 142
-70 195 -56 317 -59 650 -15 58 8 155 17 215 20 190 11 400 39 455 62 8 4 33
12 55 19 51 15 217 84 272 113 160 82 253 179 253 266 0 59 -46 125 -66 94z"/>
</g>
</svg>
