<?xml version="1.0" standalone="no"?>
<!DOCTYPE svg PUBLIC "-//W3C//DTD SVG 20010904//EN"
 "http://www.w3.org/TR/2001/REC-SVG-20010904/DTD/svg10.dtd">
<svg version="1.0" xmlns="http://www.w3.org/2000/svg"
 width="1280.000000pt" height="741.000000pt" viewBox="0 0 1280.000000 741.000000"
 preserveAspectRatio="xMidYMid meet">
<metadata>
Created by potrace 1.15, written by Peter Selinger 2001-2017
</metadata>
<g transform="translate(0.000000,741.000000) scale(0.100000,-0.100000)"
fill="#000000" stroke="none">
<path d="M2450 7384 c-116 -39 -250 -108 -302 -153 -69 -61 -135 -154 -143
-201 -9 -51 10 -131 37 -160 17 -18 18 -24 7 -31 -11 -7 -11 -9 3 -9 9 0 38
18 63 40 38 33 50 38 61 29 8 -7 12 -20 9 -30 -8 -25 7 -24 29 0 31 34 17 61
-44 85 -50 20 -55 25 -58 57 -9 109 183 265 413 334 50 15 96 32 102 37 44 36
-74 37 -177 2z m-384 -401 c3 -16 10 -38 15 -51 5 -13 9 -31 9 -40 -1 -13 -6
-11 -25 11 -18 20 -25 40 -25 68 0 45 17 53 26 12z"/>
<path d="M5336 7347 c-129 -68 -251 -181 -261 -242 -3 -22 -13 -66 -22 -97
-11 -41 -14 -75 -9 -126 l7 -69 -68 -29 c-78 -33 -162 -110 -207 -190 -15 -27
-45 -103 -67 -169 -31 -94 -39 -135 -39 -192 0 -54 -5 -83 -22 -115 -29 -59
-85 -115 -127 -129 -54 -18 -133 -68 -163 -103 -33 -37 -34 -32 -16 92 12 83
12 84 -16 137 -25 49 -68 95 -149 162 -15 13 -27 27 -27 31 0 4 -21 18 -47 31
-27 13 -85 46 -131 74 -97 59 -130 104 -139 190 -5 47 -2 61 22 101 29 50 65
73 164 107 69 24 118 24 182 -1 41 -15 56 -17 73 -8 19 11 19 12 -14 40 -19
16 -57 35 -84 43 -69 21 -244 20 -293 -1 -60 -26 -67 -30 -70 -41 -5 -13 34
-5 110 21 52 17 103 21 111 7 3 -4 -20 -16 -52 -26 -34 -11 -69 -31 -87 -49
-17 -17 -46 -43 -67 -58 -22 -17 -43 -45 -53 -73 -17 -43 -17 -47 0 -91 21
-56 102 -178 144 -218 36 -35 39 -46 11 -46 -11 0 -20 4 -20 9 0 18 -133 151
-151 151 -17 0 -18 -3 -8 -22 6 -13 32 -47 57 -76 52 -62 48 -72 -30 -72 -75
0 -196 -44 -284 -102 -44 -29 -110 -69 -149 -89 -146 -74 -255 -137 -332 -192
l-81 -56 -18 41 c-24 53 -67 98 -93 98 -26 0 -28 -28 -3 -37 45 -16 101 -100
85 -126 -4 -7 -21 -23 -38 -36 -16 -13 -145 -139 -286 -280 -140 -141 -302
-301 -360 -356 -57 -56 -113 -110 -124 -122 -134 -143 -172 -188 -196 -236
-12 -23 -40 -67 -63 -97 -23 -30 -55 -77 -71 -103 -33 -54 -99 -156 -168 -263
-47 -71 -70 -117 -167 -334 -64 -141 -87 -204 -140 -390 -23 -80 -52 -179 -65
-220 -12 -41 -35 -114 -49 -162 -15 -48 -43 -117 -62 -154 -33 -64 -38 -100
-7 -59 51 69 140 300 179 465 35 150 90 311 136 403 28 53 54 100 59 103 12 7
11 -43 -1 -86 -18 -61 -61 -369 -71 -510 -23 -313 -31 -501 -34 -770 -2 -157
-9 -334 -15 -395 -7 -60 -14 -164 -16 -230 -6 -249 -30 -369 -109 -545 -26
-58 -59 -135 -75 -172 -15 -36 -37 -79 -49 -95 -12 -15 -35 -45 -51 -66 -52
-69 -94 -95 -167 -103 -36 -3 -197 -3 -357 0 -385 10 -422 11 -483 20 -52 8
-53 7 -53 -17 0 -31 42 -41 170 -39 115 3 657 -9 672 -14 24 -7 18 -26 -13
-41 -13 -6 -55 -27 -94 -46 -101 -50 -196 -77 -279 -78 -54 -1 -63 -3 -36 -8
l35 -7 -37 -12 c-43 -15 -58 -46 -34 -71 21 -21 159 -28 231 -12 29 7 94 16
146 21 52 5 103 11 114 12 41 6 313 -14 420 -30 127 -19 227 -20 415 -2 74 7
193 14 264 16 72 3 166 11 210 19 44 7 83 12 87 9 4 -2 72 -6 151 -9 l143 -5
83 51 c80 49 99 69 66 69 -11 0 -14 5 -9 18 4 9 12 37 17 62 12 55 32 74 62
58 13 -7 101 -12 236 -14 118 -2 242 -9 276 -15 46 -9 69 -9 94 -1 39 14 73
16 66 3 -3 -4 -24 -11 -47 -15 -32 -5 -39 -10 -31 -18 8 -8 35 -8 104 4 100
16 153 11 78 -7 -35 -8 -46 -16 -48 -33 -4 -26 1 -26 153 -9 66 8 147 9 240 4
77 -5 208 -5 290 -2 83 3 161 6 175 7 14 0 61 -2 105 -5 44 -4 199 -11 345
-17 146 -5 288 -14 315 -19 69 -13 125 -14 105 -1 -8 5 -34 10 -57 10 -42 0
-100 16 -91 25 8 8 162 -15 173 -26 12 -12 50 -12 75 1 11 5 30 15 41 21 33
16 327 27 489 17 80 -4 253 -8 385 -8 269 1 876 -16 916 -26 30 -7 48 11 30
29 -12 12 -21 13 -336 26 -251 11 -552 30 -573 37 -25 8 -3 21 45 28 26 3 80
12 118 19 42 8 83 10 100 5 17 -4 206 -15 420 -23 215 -8 437 -19 495 -25 318
-30 582 -28 549 4 -2 2 -109 9 -237 15 -128 6 -254 16 -280 21 -96 19 -193 30
-264 30 -76 0 -118 16 -118 46 0 10 12 14 45 14 25 0 45 -4 45 -10 0 -5 -5
-10 -12 -10 -6 0 -8 -3 -5 -6 4 -4 84 -9 179 -11 95 -2 218 -11 272 -19 61 -8
178 -14 300 -14 181 0 245 -4 426 -26 51 -6 54 -5 39 10 -14 15 -70 28 -169
41 -14 2 -27 4 -29 4 -2 1 2 8 9 16 17 20 -3 23 -216 28 -100 3 -190 10 -201
15 -10 6 -26 32 -35 59 -9 26 -31 84 -48 128 -18 44 -43 118 -56 165 -104 361
-119 425 -139 586 -7 56 -16 108 -21 115 -9 14 -16 66 -35 264 -15 156 -4 749
16 885 9 58 20 161 25 230 5 69 14 168 19 220 18 181 26 295 25 365 l0 70 40
20 c74 36 139 165 167 330 11 65 8 260 -6 359 -11 75 -47 231 -56 241 -6 5
-13 5 -20 -2 -7 -7 -4 -34 10 -89 33 -131 45 -264 38 -428 -6 -144 -8 -152
-41 -223 -40 -82 -79 -139 -110 -155 -11 -6 -45 -16 -74 -22 -60 -12 -72 -28
-28 -36 21 -4 32 -12 37 -32 7 -27 -7 -333 -16 -347 -4 -8 -24 -227 -30 -346
-2 -33 -8 -107 -14 -165 -6 -58 -15 -208 -21 -335 -5 -126 -12 -273 -16 -325
-6 -96 8 -297 27 -381 6 -25 17 -95 24 -155 31 -231 37 -269 46 -279 5 -5 9
-25 9 -45 0 -19 6 -47 14 -62 8 -14 19 -48 25 -75 6 -26 23 -88 37 -138 14
-49 29 -107 35 -128 5 -20 28 -85 51 -143 32 -82 38 -108 29 -117 -17 -17
-298 -15 -469 2 -153 16 -148 12 -158 125 -3 34 -12 88 -20 121 -8 34 -21 109
-29 167 -8 59 -22 149 -31 200 -32 186 -15 950 27 1213 5 33 12 130 15 215 3
85 14 209 24 275 25 159 49 380 59 536 5 70 11 131 15 138 4 6 11 63 17 127
l9 117 59 56 c49 47 60 63 65 101 4 25 13 54 20 65 20 30 50 194 91 490 9 61
20 139 25 175 21 147 23 312 6 380 -22 89 -71 185 -116 230 l-37 37 -6 164
c-4 91 -11 178 -16 195 -6 16 -19 61 -31 101 -27 95 -79 161 -154 196 -68 32
-127 35 -179 7 -55 -30 -83 -26 -96 11 -31 90 -2 200 73 274 52 50 73 64 179
109 34 15 57 31 57 40 0 22 -8 20 -96 -14 -94 -38 -143 -71 -212 -144 -78 -82
-83 -100 -81 -285 0 -121 -3 -166 -14 -187 -14 -28 -54 -150 -82 -249 -8 -27
-17 -75 -20 -105 -3 -31 -21 -92 -40 -135 -19 -44 -35 -85 -35 -92 0 -6 -4
-23 -10 -37 -8 -23 -12 -24 -40 -15 -30 11 -55 42 -46 57 2 4 12 59 21 122 9
63 28 152 42 197 21 69 24 96 21 175 -3 82 -8 102 -40 168 -69 141 -170 210
-310 210 -72 0 -86 8 -114 61 -21 42 -9 118 29 175 32 49 89 89 205 143 45 22
69 38 63 44 -14 14 -229 -95 -284 -143 -92 -82 -117 -162 -76 -247 25 -52 21
-68 -19 -76 -51 -10 -193 -126 -224 -183 -61 -110 -130 -384 -144 -569 l-6
-90 -46 -47 c-41 -43 -51 -48 -89 -48 -37 0 -48 -6 -83 -42 -36 -38 -51 -68
-33 -68 4 0 26 20 49 45 25 28 49 45 63 45 l23 0 -22 -32 c-34 -52 -52 -99
-60 -158 -9 -68 4 -104 15 -39 10 63 45 135 99 207 55 72 87 98 97 79 4 -6 11
-58 17 -115 6 -57 15 -109 21 -115 5 -7 27 -19 48 -26 21 -7 65 -30 98 -52 64
-41 131 -68 174 -70 14 -1 67 15 117 35 75 31 102 48 160 104 88 84 125 133
154 200 12 28 24 52 27 52 2 0 19 -11 36 -24 18 -13 55 -35 84 -50 62 -31 88
-62 108 -130 69 -238 67 -225 67 -429 0 -106 -5 -237 -11 -292 -7 -55 -9 -127
-5 -161 11 -109 -35 -235 -100 -275 -35 -22 -166 -28 -166 -8 0 13 -25 8 -85
-15 -68 -26 -106 -20 -200 29 -47 25 -109 50 -137 55 -28 6 -53 12 -55 14 -2
2 1 15 7 30 5 15 10 37 10 50 0 16 10 27 35 39 48 23 46 41 -5 32 -30 -5 -40
-3 -40 7 0 7 -18 42 -39 78 -46 76 -43 84 40 119 90 39 145 44 240 21 101 -24
180 -30 186 -14 5 14 -48 34 -90 34 -16 0 -76 7 -132 17 l-103 16 -89 -33
c-103 -39 -129 -54 -136 -79 -2 -11 15 -59 38 -107 49 -100 63 -169 42 -198
-10 -13 -40 -23 -103 -34 -139 -24 -160 -22 -229 21 -33 20 -68 37 -77 37 -12
0 -21 14 -28 43 -16 62 -18 67 -30 67 -29 0 1 -132 32 -142 10 -4 9 -17 -5
-60 -19 -60 -22 -88 -9 -88 5 0 17 27 27 60 10 34 21 63 25 65 3 2 30 -12 60
-31 63 -40 114 -44 214 -18 98 26 184 16 281 -33 141 -71 167 -78 217 -60 24
9 71 18 106 20 56 5 64 3 76 -16 24 -37 36 -217 42 -627 3 -217 9 -458 13
-535 4 -77 5 -203 2 -280 -7 -150 -7 -191 3 -585 4 -158 14 -317 27 -418 11
-89 18 -166 15 -171 -8 -12 60 -349 84 -421 25 -75 25 -111 0 -138 -22 -23
-28 -25 -137 -42 -40 -7 -97 -19 -125 -27 -73 -21 -291 -34 -638 -38 -162 -2
-358 -6 -434 -10 -122 -6 -138 -5 -128 8 13 15 36 182 28 196 -10 16 -15 437
-6 528 5 54 12 258 15 453 3 195 10 402 16 460 5 58 12 142 15 188 5 73 10 93
45 158 l40 75 11 222 c5 122 13 308 17 412 5 127 13 208 24 245 21 70 59 281
52 288 -3 3 -8 2 -11 -1 -6 -5 -54 -228 -54 -249 0 -5 -4 -8 -10 -8 -16 0 -11
116 10 250 12 69 20 157 19 195 -1 39 1 185 5 326 l8 256 -31 123 c-17 67 -31
131 -31 141 0 19 -14 72 -71 275 -16 56 -29 104 -29 108 0 4 19 15 43 25 23
10 58 36 78 58 51 56 118 175 145 255 13 38 29 78 35 90 22 41 27 148 12 258
-8 58 -16 136 -19 175 -3 50 -12 82 -31 115 -60 104 -160 184 -243 195 -101
14 -95 9 -113 84 -28 114 -19 166 43 265 61 96 190 166 335 183 54 6 85 18 85
33 0 15 -70 30 -140 30 -59 0 -74 -5 -164 -53z m-1181 -487 c26 -13 31 -18 15
-15 -14 3 -42 8 -63 11 -26 5 -34 9 -25 15 19 12 28 11 73 -11z m988 -83 c20
-14 49 -90 37 -95 -5 -2 -21 3 -37 11 -72 37 -146 26 -205 -30 -44 -42 -21
-46 38 -6 51 34 57 35 92 25 20 -6 60 -32 89 -57 63 -56 76 -52 130 33 53 83
70 90 123 46 28 -24 70 -91 70 -111 0 -4 -19 -19 -41 -33 -105 -64 -179 -255
-164 -423 l7 -80 -27 7 c-29 7 -65 -15 -65 -40 0 -15 42 -11 93 8 30 11 34 39
18 110 -11 48 19 199 53 265 25 50 115 153 132 153 29 0 64 -201 64 -367 0
-95 -22 -177 -67 -254 -37 -62 -52 -15 -19 57 18 39 21 54 12 54 -8 0 -19 -7
-26 -15 -21 -25 -29 -17 -32 32 -2 28 -8 48 -17 51 -11 4 -12 -8 -7 -61 4 -36
4 -67 -1 -70 -5 -3 -65 -7 -135 -9 -113 -3 -128 -1 -147 16 -14 13 -21 31 -21
57 0 53 -15 87 -45 101 -38 17 -56 -5 -21 -27 32 -21 35 -75 9 -131 -17 -35
-17 -36 2 -51 15 -11 35 -13 80 -9 33 4 114 9 180 13 l121 6 15 -40 c15 -38
15 -42 -9 -89 -40 -79 -70 -112 -133 -143 -80 -40 -133 -47 -201 -27 -103 30
-277 165 -319 249 -19 36 -39 145 -59 319 -10 88 -10 88 27 185 20 54 44 109
53 123 10 14 23 42 29 62 18 56 123 149 197 175 70 25 104 28 127 10z m121 2
c22 -6 46 -13 53 -15 6 -1 -9 -23 -34 -49 -25 -25 -49 -43 -52 -40 -5 6 -30
91 -31 108 0 10 16 9 64 -4z m1525 -253 c10 -24 9 -32 -3 -44 -14 -14 -16 -12
-26 12 -5 15 -10 55 -9 89 l1 62 13 -45 c7 -25 18 -58 24 -74z m-597 93 c56
-12 128 -44 128 -57 0 -11 -54 -62 -65 -62 -4 0 -29 19 -55 43 -25 23 -55 47
-65 53 -11 6 -15 15 -11 22 9 14 4 14 68 1z m-71 -51 c20 -11 58 -44 84 -74
l48 -53 39 44 c61 69 83 60 137 -54 38 -81 50 -164 27 -190 -9 -10 -16 -22
-16 -27 0 -6 -19 -24 -43 -40 -54 -39 -140 -156 -135 -187 2 -18 8 -14 32 28
40 67 126 149 126 120 0 -3 -31 -47 -69 -98 -68 -91 -92 -137 -72 -137 20 0
102 107 132 173 6 14 18 28 26 32 19 7 15 -37 -21 -200 -42 -194 -69 -249
-198 -396 -69 -78 -144 -120 -225 -127 -111 -9 -244 90 -303 226 -43 101 -60
194 -50 285 22 191 54 314 127 490 24 56 128 155 198 189 66 31 93 30 156 -4z
m924 -37 c52 -24 87 -62 124 -136 l30 -60 -32 -30 c-48 -44 -56 -56 -88 -142
-41 -110 -40 -166 6 -226 l35 -45 -50 -17 c-64 -21 -55 -39 14 -30 84 12 98
40 46 91 -16 16 -35 47 -41 69 -11 38 -10 40 29 75 21 19 54 55 72 78 41 54
47 46 56 -72 10 -121 -9 -235 -63 -394 -48 -141 -49 -142 -101 -173 -19 -11
-32 -25 -29 -32 7 -21 38 -20 61 2 28 26 36 19 29 -25 -3 -19 -3 -34 0 -34 9
0 47 136 47 168 0 17 11 54 25 84 14 29 30 79 36 111 9 44 16 57 29 57 26 0
77 -88 111 -189 l29 -85 -10 -150 c-12 -193 -26 -300 -51 -406 -12 -47 -25
-128 -30 -180 -12 -135 -18 -164 -51 -270 -34 -112 -47 -125 -176 -199 -88
-49 -95 -51 -167 -51 -77 0 -97 -12 -49 -30 49 -19 108 -11 173 22 33 17 64
29 67 25 9 -8 -30 -447 -55 -627 -6 -41 -15 -121 -21 -178 -5 -56 -12 -107
-15 -111 -5 -10 -20 -191 -35 -426 -17 -284 -31 -440 -42 -475 -14 -44 -12
-585 3 -649 6 -25 12 -73 14 -106 6 -111 24 -260 51 -420 16 -88 28 -189 28
-225 l1 -65 -45 -7 c-25 -4 -108 -10 -186 -14 -158 -8 -172 -3 -130 47 21 24
26 41 26 82 0 29 -5 68 -10 87 -63 228 -108 463 -125 665 -4 39 -8 421 -10
850 -3 429 -7 866 -10 970 -6 209 -22 485 -31 527 -5 23 -1 27 31 38 69 23
134 100 165 194 8 24 13 98 14 180 1 78 8 171 15 208 20 106 1 387 -38 558
l-31 135 -75 70 c-41 39 -75 74 -75 79 0 17 53 126 61 126 5 0 9 -11 9 -25 0
-45 39 -168 66 -207 40 -57 55 -33 18 27 -65 104 -58 459 12 659 34 96 134
200 224 232 48 18 68 17 115 -5z m-2906 -282 c62 -27 126 -92 162 -162 25 -48
27 -58 14 -63 -11 -5 -15 -22 -15 -66 0 -52 -7 -75 -45 -156 -25 -52 -50 -117
-55 -144 -6 -27 -13 -55 -17 -62 -12 -21 -66 -63 -90 -70 -18 -6 -23 -15 -23
-44 0 -20 -7 -45 -14 -55 -13 -17 -15 -17 -38 5 -13 14 -22 33 -20 46 5 34
-28 28 -66 -11 -35 -36 -33 -47 8 -47 14 0 35 -6 45 -14 17 -12 16 -17 -29
-75 -52 -68 -78 -80 -136 -62 -48 14 -70 35 -70 65 0 66 -158 76 -245 16 -32
-22 -53 -30 -69 -26 -23 6 -151 147 -237 261 l-42 55 5 83 4 82 52 52 c29 29
52 59 52 67 0 16 69 76 115 98 17 8 52 20 78 27 52 12 157 67 157 81 0 19 -18
18 -51 -2 -39 -24 -129 -50 -129 -38 0 14 111 108 149 126 19 9 74 27 121 40
76 21 100 23 234 18 121 -4 158 -9 195 -25z m3082 4 c-19 -35 -110 -128 -111
-113 0 18 34 76 63 108 25 27 63 31 48 5z m-2527 -220 c19 -135 55 -194 167
-280 27 -20 49 -40 49 -43 0 -3 -25 -23 -55 -44 -50 -36 -62 -56 -31 -56 7 0
28 14 46 30 37 33 75 38 106 16 19 -15 19 -15 -1 -52 -28 -53 -48 -57 -40 -8
l6 39 -20 -37 c-36 -65 -66 -80 -144 -76 -84 5 -102 21 -182 166 -44 81 -56
111 -54 140 3 41 -14 61 -19 22 -6 -39 -22 -49 -22 -13 0 18 -4 35 -10 38 -6
4 -8 -25 -4 -77 8 -139 14 -166 40 -197 13 -16 24 -34 24 -39 0 -6 15 -22 32
-36 33 -25 33 -25 16 -54 -27 -46 -63 -201 -42 -179 4 3 21 48 38 98 17 51 36
94 42 96 6 2 21 -4 33 -14 21 -18 21 -19 8 -118 -8 -55 -12 -103 -10 -108 11
-18 21 8 27 70 13 128 15 133 47 133 16 0 32 -6 35 -13 2 -7 1 -48 -4 -92 -9
-81 -3 -141 12 -117 4 7 5 16 1 21 -3 6 0 52 6 103 16 137 21 135 47 -16 18
-99 33 -140 45 -119 3 4 -3 40 -14 78 -10 39 -18 93 -18 121 -1 50 -1 50 45
73 26 12 50 19 54 14 11 -12 40 -140 48 -212 4 -37 12 -66 20 -69 7 -2 12 5
12 16 0 24 -36 202 -51 253 -10 32 -8 43 12 88 13 27 27 50 30 51 3 0 9 -22
12 -48 3 -27 15 -75 27 -108 45 -127 69 -240 75 -357 5 -89 10 -116 19 -107
13 13 13 123 -1 200 -10 51 -41 159 -84 292 -11 32 -19 70 -19 86 l0 28 100 0
100 0 9 -30 c5 -17 12 -48 16 -69 3 -21 19 -80 34 -130 16 -51 32 -114 36
-142 4 -27 18 -96 31 -153 25 -102 25 -106 19 -439 -4 -227 -10 -368 -21 -437
-10 -67 -17 -193 -19 -371 -2 -148 -9 -324 -15 -390 -6 -66 -10 -165 -9 -220
2 -100 -4 -151 -23 -213 -11 -37 -34 -38 -32 -1 1 13 7 107 13 209 13 212 -1
1000 -19 1060 -5 19 -10 62 -10 94 0 33 -4 85 -10 115 -5 31 -19 121 -30 201
-12 80 -25 164 -30 186 -8 33 -6 53 10 99 24 69 25 125 6 203 -17 66 -58 271
-71 356 -4 25 -10 35 -16 29 -9 -9 29 -234 62 -373 22 -93 21 -122 -10 -230
-46 -159 -72 -175 -291 -186 -92 -5 -154 -2 -235 10 -118 18 -139 27 -236 95
l-62 44 7 97 c4 54 11 113 17 131 5 19 18 74 29 122 18 85 18 117 -1 117 -12
0 -68 -181 -75 -246 -5 -42 -12 -58 -25 -61 -11 -3 -21 -22 -28 -51 -7 -26
-14 -56 -17 -67 -5 -19 -4 -19 10 -1 19 23 32 14 39 -26 20 -125 31 -177 44
-201 8 -15 13 -33 10 -40 -11 -28 62 -621 80 -650 3 -5 7 -39 9 -75 2 -37 7
-112 12 -167 6 -66 4 -181 -4 -335 -13 -234 -23 -308 -48 -359 -7 -14 -16 -44
-19 -66 -7 -46 -62 -102 -125 -127 -115 -47 -138 -51 -272 -55 -117 -3 -144
-1 -202 18 -37 12 -78 32 -91 45 -38 38 -62 144 -72 314 -3 41 -7 86 -11 100
-9 39 -5 403 6 504 6 50 19 141 30 201 10 61 28 169 40 240 11 72 27 162 35
200 8 39 35 177 60 309 25 131 58 275 73 319 24 71 31 83 62 100 22 11 45 35
60 65 14 26 40 57 59 70 19 12 50 46 69 75 19 29 53 66 76 82 36 27 42 37 49
85 5 30 15 62 23 71 8 8 14 22 14 30 1 39 31 91 86 145 58 58 109 84 162 84
38 0 69 21 93 64 32 59 61 96 69 91 4 -3 11 -26 14 -52z m-1422 -52 c-33 -31
-68 -71 -77 -88 -9 -19 -32 -41 -55 -53 -56 -29 -98 -93 -45 -68 31 14 40 6
26 -20 -39 -73 23 -205 173 -368 l59 -64 -2 -215 c-1 -118 -7 -230 -12 -248
-5 -17 -9 -46 -9 -64 0 -69 -63 -229 -168 -427 -108 -205 -213 -422 -226 -466
-12 -40 -65 -160 -102 -233 -36 -68 -37 -92 -4 -82 22 7 30 -18 30 -105 0 -36
9 -117 21 -180 24 -128 21 -194 -9 -262 -26 -59 -148 -181 -207 -207 -66 -29
-212 -78 -257 -86 l-38 -7 0 50 c0 28 -4 54 -10 57 -6 4 -10 -13 -10 -42 0
-59 -12 -73 -61 -73 -64 0 -82 13 -103 70 -17 47 -18 70 -12 224 4 94 9 244
11 333 2 114 10 196 25 275 26 135 111 427 151 518 15 36 39 94 53 130 30 80
202 424 252 505 83 135 106 167 165 235 33 39 63 69 66 67 2 -3 -13 -38 -36
-79 -22 -40 -56 -113 -76 -163 -20 -49 -45 -108 -55 -130 -21 -47 -46 -152
-37 -161 12 -13 27 9 43 64 8 31 26 80 39 107 45 95 165 362 165 368 0 3 -7 7
-15 9 -10 2 0 15 29 39 25 20 63 58 85 85 22 27 55 66 72 86 17 20 28 41 24
47 -9 16 -79 -42 -132 -110 -24 -31 -64 -71 -89 -90 -44 -32 -191 -202 -225
-258 -9 -14 -52 -84 -96 -156 -44 -71 -98 -164 -121 -205 -50 -93 -178 -419
-199 -509 -8 -36 -19 -75 -24 -86 -28 -67 -60 -182 -69 -249 -5 -43 -14 -106
-20 -139 -5 -34 -12 -139 -14 -233 -2 -94 -8 -179 -14 -190 -7 -12 -8 -79 -5
-189 5 -143 9 -175 24 -202 11 -17 27 -35 37 -39 30 -13 166 -31 182 -23 36
17 267 91 290 93 l25 1 7 -175 c3 -96 14 -231 23 -300 9 -69 18 -143 20 -165
33 -343 40 -570 21 -700 -18 -123 -69 -297 -102 -347 -13 -21 -24 -40 -24 -43
0 -12 26 -3 47 17 l23 21 0 -39 c0 -41 -65 -193 -95 -223 -18 -18 -68 -18
-505 -5 -129 4 -255 7 -280 6 -92 -3 -288 -21 -370 -33 -47 -7 -125 -11 -175
-9 -226 10 -510 -6 -650 -36 -74 -17 -140 -16 -140 1 0 12 90 43 129 44 16 1
34 7 40 15 6 7 58 35 115 61 57 26 117 56 132 68 18 12 49 22 84 25 60 5 74
19 23 24 l-33 3 49 45 c50 47 120 133 149 185 65 119 171 402 197 530 30 149
38 346 45 1060 1 189 7 364 13 395 6 30 16 127 22 215 11 169 23 272 46 395 7
41 21 131 30 200 8 69 19 129 24 135 4 5 22 44 40 85 41 94 115 220 193 330
74 103 247 319 272 340 10 8 59 60 108 115 89 98 523 550 624 649 81 81 190
172 277 232 103 71 248 153 260 146 5 -3 -19 -30 -52 -61z m1318 -362 c0 -5
-7 -9 -15 -9 -17 0 -36 39 -27 54 5 10 42 -30 42 -45z m35 -49 c3 -5 2 -10 -4
-10 -5 0 -13 5 -16 10 -3 6 -2 10 4 10 5 0 13 -4 16 -10z m1060 -40 c30 -47
30 -50 7 -50 -13 0 -22 12 -30 39 -20 65 -13 69 23 11z m-1967 -244 c65 -61
90 -76 127 -76 26 0 27 -1 13 -22 -20 -33 -72 -190 -92 -278 -9 -41 -30 -160
-46 -265 -17 -104 -37 -219 -45 -255 -9 -36 -20 -96 -25 -135 -6 -38 -17 -108
-25 -155 -39 -231 -67 -669 -51 -810 4 -30 8 -89 10 -130 5 -85 51 -228 88
-267 13 -14 33 -23 50 -23 16 0 41 -6 56 -14 15 -8 45 -18 66 -21 37 -8 38 -8
32 -44 -18 -106 -29 -193 -31 -256 -2 -38 -8 -92 -15 -120 -6 -27 -16 -72 -20
-100 -5 -27 -16 -86 -25 -130 -32 -161 -36 -191 -35 -267 0 -74 -23 -212 -41
-233 -4 -6 -23 -53 -42 -105 -48 -134 -130 -309 -181 -388 -39 -61 -47 -68
-91 -80 -26 -7 -61 -22 -78 -34 -23 -17 -51 -22 -136 -28 -63 -4 -116 -3 -131
3 -14 5 -82 12 -152 15 -96 3 -128 8 -128 18 0 24 63 34 250 39 84 2 154 6
157 9 2 2 -6 24 -18 47 -23 46 -79 240 -86 299 -2 19 -12 94 -21 165 -24 182
-23 1331 2 1525 12 100 13 158 6 290 -5 91 -14 254 -19 363 l-11 198 30 65
c16 35 51 102 79 147 27 45 57 102 67 127 9 25 32 70 51 101 46 77 90 187 103
262 7 34 19 98 27 141 10 53 13 104 9 155 -3 42 -2 102 2 134 9 62 24 84 105
148 43 35 55 39 104 39 52 0 57 -2 111 -54z m670 -423 c15 -10 51 -37 80 -60
29 -24 64 -44 77 -45 14 -1 37 -3 53 -5 15 -1 84 -5 154 -8 151 -6 297 19 360
60 60 40 63 37 77 -77 7 -57 17 -132 23 -168 5 -36 13 -114 18 -175 5 -60 13
-153 19 -205 6 -52 8 -101 6 -109 -3 -7 -1 -19 5 -27 8 -9 8 -24 0 -55 -6 -23
-9 -53 -5 -67 8 -33 7 -570 -1 -583 -6 -10 -7 -39 -19 -384 -3 -104 -8 -197
-10 -205 -5 -17 -13 -239 -20 -580 -3 -123 -9 -283 -15 -355 -5 -71 -9 -278
-9 -460 0 -375 6 -350 -90 -360 -31 -3 -103 -14 -161 -25 -81 -14 -116 -16
-155 -9 -27 5 -284 14 -570 20 -705 15 -809 19 -819 29 -6 6 0 13 15 19 30 11
94 79 136 146 32 50 148 317 197 454 22 60 51 168 72 269 2 12 22 127 44 256
22 129 44 244 48 257 5 13 7 29 5 36 -2 6 3 37 11 70 8 32 20 111 27 176 7 66
17 120 23 122 6 1 58 10 114 19 187 30 284 101 354 261 22 49 28 80 32 175 3
63 10 176 16 250 5 74 8 162 5 195 -3 33 -7 123 -10 200 -2 77 -9 154 -14 172
-9 30 -30 189 -51 393 -6 52 -15 140 -21 195 -6 55 -17 121 -25 147 -20 68
-20 69 24 41z m-1388 -1038 c-4 -60 -3 -171 2 -245 6 -74 8 -232 4 -350 -3
-118 -8 -388 -11 -600 -2 -212 -7 -450 -11 -530 -7 -173 -7 -157 0 -300 12
-231 27 -342 67 -489 22 -79 37 -147 33 -150 -3 -3 -63 -9 -132 -12 -70 -4
-137 -10 -149 -14 -30 -10 -36 20 -23 110 28 196 32 250 26 415 -3 96 -10 216
-15 265 -6 50 -17 178 -25 285 -44 552 -46 591 -35 608 7 9 36 37 67 62 107
88 106 87 131 197 19 86 21 111 13 150 -27 122 -35 198 -36 333 l-1 145 44
123 c24 68 47 119 51 115 4 -4 4 -57 0 -118z m4262 -2747 c-9 -9 -15 -9 -24 0
-9 9 -7 12 12 12 19 0 21 -3 12 -12z m483 -13 c6 -2 -16 -4 -47 -4 -32 -1 -58
3 -58 8 0 8 79 5 105 -4z m-6825 -65 c0 -5 -7 -10 -16 -10 -8 0 -12 5 -9 10 3
6 10 10 16 10 5 0 9 -4 9 -10z m4112 -112 c-8 -8 -17 -8 -34 0 -22 10 -21 11
12 11 26 1 31 -2 22 -11z"/>
<path d="M4947 6563 c-15 -14 -6 -22 21 -17 46 9 112 -49 180 -159 32 -52 40
-62 48 -54 8 8 -43 110 -78 157 -35 46 -89 80 -128 80 -20 0 -40 -3 -43 -7z"/>
<path d="M5441 6445 c-18 -25 -39 -45 -46 -45 -20 0 -47 -44 -39 -64 8 -22 10
-21 64 24 38 32 49 48 54 81 4 23 5 43 3 45 -2 2 -18 -16 -36 -41z"/>
<path d="M4934 6414 c3 -9 6 -19 6 -23 0 -12 48 -31 78 -31 15 0 36 -7 46 -15
21 -16 66 -21 66 -7 0 21 -31 50 -49 45 -11 -3 -35 6 -57 21 -44 30 -100 36
-90 10z"/>
<path d="M6060 6248 c0 -16 63 -198 77 -223 10 -17 11 -17 18 4 4 14 -1 42
-14 74 -12 29 -27 75 -34 102 -8 33 -18 51 -29 53 -10 2 -18 -2 -18 -10z"/>
<path d="M5980 6212 c0 -5 11 -37 26 -73 19 -48 24 -74 19 -105 -9 -61 -2 -70
55 -72 57 -1 60 6 29 57 -11 19 -32 66 -46 105 -14 39 -30 77 -35 84 -12 13
-48 17 -48 4z"/>
<path d="M6030 5790 c0 -47 -17 -85 -54 -119 -14 -13 -23 -28 -20 -32 11 -19
44 -7 61 21 9 17 20 30 24 30 13 0 29 53 29 95 0 38 -3 45 -20 45 -17 0 -20
-7 -20 -40z"/>
<path d="M6146 5795 c-10 -28 12 -57 42 -53 36 4 34 28 -4 50 -29 17 -32 17
-38 3z"/>
<path d="M6261 5715 c-35 -57 -55 -155 -33 -155 12 0 18 17 27 84 4 27 16 61
27 77 11 15 19 32 17 38 -3 7 -20 -13 -38 -44z"/>
<path d="M6077 5654 c-3 -4 0 -19 9 -35 22 -43 95 -54 102 -16 3 16 1 17 -18
7 -16 -9 -25 -9 -33 -1 -8 8 -8 11 1 11 24 0 11 18 -19 29 -38 13 -34 13 -42
5z"/>
<path d="M6760 6282 c0 -4 16 -24 36 -43 63 -61 68 -97 6 -44 -64 54 -72 16
-9 -42 57 -53 94 -76 107 -68 16 10 12 33 -10 45 -12 6 -20 21 -20 36 0 39
-27 88 -59 107 -31 18 -51 22 -51 9z"/>
<path d="M6947 5773 c-4 -3 -7 -17 -7 -30 0 -18 5 -23 25 -23 21 0 24 -4 20
-23 -4 -16 0 -29 15 -42 27 -25 46 -13 77 45 28 53 19 70 -27 53 -25 -9 -34
-8 -54 8 -25 20 -38 23 -49 12z m83 -93 c0 -5 -4 -10 -10 -10 -5 0 -10 5 -10
10 0 6 5 10 10 10 6 0 10 -4 10 -10z"/>
<path d="M7211 5497 c-11 -19 -37 -70 -57 -113 -41 -91 -68 -124 -101 -124
-12 0 -53 20 -91 43 -79 51 -133 71 -168 63 -37 -10 -29 -23 18 -30 26 -4 72
-27 123 -61 44 -29 95 -57 113 -60 49 -10 89 37 136 161 21 55 46 108 57 120
18 19 17 34 -2 34 -4 0 -17 -15 -28 -33z"/>
<path d="M3701 6186 c-9 -11 -6 -12 14 -8 14 2 28 8 31 13 9 15 -33 10 -45 -5z"/>
<path d="M3751 6161 c-30 -9 -56 -22 -58 -28 -5 -14 30 -35 49 -29 7 2 27 8
43 12 l30 7 -30 7 -30 7 33 13 c17 6 32 16 32 21 0 11 -3 11 -69 -10z"/>
<path d="M4190 6121 c0 -15 85 -81 89 -70 4 14 -59 79 -76 79 -7 0 -13 -4 -13
-9z"/>
<path d="M4172 5931 c2 -54 7 -86 15 -88 15 -5 10 144 -6 160 -9 9 -11 -9 -9
-72z"/>
<path d="M4060 5920 c0 -26 -3 -30 -13 -21 -23 19 -27 0 -6 -28 18 -24 19 -31
7 -55 -11 -26 -10 -30 15 -52 35 -30 38 -30 65 -1 l22 24 -20 25 c-11 14 -26
50 -33 79 -16 61 -37 77 -37 29z"/>
<path d="M3654 5922 c-14 -8 -77 -133 -92 -182 -20 -60 -30 -162 -20 -200 21
-82 40 -120 59 -120 23 0 24 14 4 71 -23 63 -21 165 3 214 11 22 23 56 27 75
4 19 16 52 28 72 21 39 15 86 -9 70z"/>
<path d="M4209 5457 c-94 -150 -142 -290 -169 -492 -6 -49 -16 -110 -21 -135
-17 -78 -40 -358 -46 -561 -4 -155 -1 -241 15 -410 12 -118 26 -279 32 -359 6
-80 15 -189 21 -242 5 -53 11 -133 11 -178 1 -85 12 -105 24 -42 8 42 -11 505
-26 615 -28 219 -35 333 -34 612 0 250 4 327 22 460 12 88 26 193 32 232 12
94 54 268 79 330 11 26 38 81 60 122 23 41 41 78 41 82 0 20 -17 6 -41 -34z"/>
<path d="M4237 4916 c-5 -21 -6 -40 -3 -43 9 -10 18 24 14 54 -3 26 -4 25 -11
-11z"/>
<path d="M3257 5223 c-4 -3 -7 -18 -7 -32 -1 -14 -8 -44 -16 -66 -9 -22 -26
-79 -39 -126 -13 -47 -42 -129 -64 -182 -25 -61 -36 -99 -29 -103 5 -3 16 0
23 7 15 15 105 233 105 254 0 7 13 56 30 110 18 57 27 107 24 121 -6 24 -15
30 -27 17z"/>
<path d="M2995 4530 c-25 -49 -41 -90 -36 -90 9 0 101 154 101 170 0 30 -25 0
-65 -80z"/>
<path d="M2922 4403 c-12 -17 -38 -67 -58 -110 -20 -43 -42 -89 -49 -103 -32
-61 -132 -348 -168 -480 -65 -239 -125 -669 -108 -776 9 -60 34 -114 52 -114
5 0 3 14 -6 30 -12 23 -16 64 -16 170 -1 76 2 143 5 148 3 5 13 59 21 118 35
247 68 390 151 645 18 59 34 113 34 120 0 8 38 90 86 182 47 92 84 175 82 185
-3 13 -8 10 -26 -15z"/>
<path d="M2336 3225 c-9 -26 -7 -185 3 -185 5 0 11 42 13 93 4 88 -2 126 -16
92z"/>
<path d="M2341 2904 c0 -11 3 -14 6 -6 3 7 2 16 -1 19 -3 4 -6 -2 -5 -13z"/>
<path d="M1963 2798 c-9 -15 -15 -66 -37 -328 -30 -370 -37 -472 -46 -678 -5
-114 -14 -274 -20 -356 -5 -82 -11 -226 -11 -320 -1 -94 -6 -179 -11 -188 -13
-26 9 -31 26 -6 13 18 16 53 16 173 0 82 5 218 10 300 6 83 12 231 15 330 3
99 10 234 15 300 6 66 15 192 20 280 5 88 15 205 20 260 24 219 25 245 18 245
-4 0 -10 -6 -15 -12z"/>
<path d="M1661 2551 c-11 -27 -21 -57 -21 -66 0 -8 -13 -41 -30 -72 -16 -31
-30 -61 -30 -68 0 -7 -9 -32 -20 -56 -11 -24 -20 -58 -20 -75 0 -16 -29 -105
-65 -196 -67 -172 -74 -198 -52 -198 18 0 97 204 172 440 15 47 37 110 50 140
28 70 56 149 62 178 10 43 -24 23 -46 -27z"/>
<path d="M1768 2302 c-27 -53 -53 -117 -59 -142 -6 -24 -24 -78 -41 -120 -36
-90 -156 -476 -164 -531 -5 -32 -4 -39 9 -39 11 0 22 21 36 68 78 266 96 328
128 417 19 55 46 134 59 175 14 41 43 109 64 152 22 42 40 85 40 97 0 44 -27
16 -72 -77z"/>
<path d="M2378 2320 c-12 -39 -10 -96 3 -83 5 5 9 32 7 59 -2 40 -4 44 -10 24z"/>
<path d="M2356 2064 c-6 -89 -4 -115 9 -103 10 11 18 199 8 199 -6 0 -13 -43
-17 -96z"/>
<path d="M2336 1825 c-8 -47 -2 -69 17 -62 16 5 19 107 2 107 -7 0 -15 -18
-19 -45z"/>
<path d="M2344 1414 c7 -241 13 -297 33 -290 8 3 17 6 19 6 8 0 3 75 -7 120
-6 25 -14 112 -17 194 -5 111 -10 151 -20 154 -11 3 -13 -30 -8 -184z"/>
<path d="M1476 1363 c-9 -26 -16 -57 -16 -70 0 -12 -10 -51 -22 -85 -23 -67
-48 -198 -41 -210 9 -16 23 -7 29 20 3 15 23 91 45 169 50 185 56 223 36 223
-9 0 -21 -18 -31 -47z"/>
<path d="M1087 963 c-9 -15 171 -24 258 -14 l70 8 -95 2 c-52 0 -125 4 -161 7
-40 4 -69 3 -72 -3z"/>
<path d="M4049 2324 c-5 -16 -23 -105 -39 -199 -16 -93 -33 -190 -38 -215 -13
-65 -101 -358 -116 -389 -7 -14 -21 -51 -31 -81 -33 -103 -75 -173 -146 -242
-38 -38 -73 -68 -79 -68 -22 0 -100 -56 -100 -72 0 -24 4 -23 192 17 200 44
198 43 198 62 0 11 -6 14 -22 9 -13 -4 -58 -10 -100 -13 -93 -7 -96 -2 -35 65
60 65 71 85 123 219 24 64 47 120 50 123 3 3 2 -56 -2 -130 -6 -120 -5 -134 8
-122 16 12 21 47 38 242 8 99 35 268 95 595 14 77 29 156 32 176 7 46 -13 62
-28 23z"/>
<path d="M2296 6981 c-50 -10 -40 -26 13 -23 27 2 58 -1 68 -7 16 -9 14 -10
-12 -11 -99 -1 -97 -30 3 -30 48 -1 86 -6 102 -15 14 -8 34 -14 45 -15 11 0
45 -17 75 -37 l54 -36 -34 -11 c-74 -23 -175 -115 -152 -138 6 -6 21 5 43 32
33 39 113 90 143 90 21 0 46 -36 96 -134 l43 -85 -19 -28 c-10 -15 -37 -61
-60 -103 -27 -49 -55 -86 -84 -108 -47 -36 -58 -33 -66 19 -4 29 2 44 46 103
28 38 60 76 71 84 19 13 18 32 -2 32 -17 0 -100 -83 -125 -126 -14 -23 -29
-66 -35 -96 -5 -29 -14 -73 -19 -98 -10 -49 -2 -190 11 -212 6 -10 13 -10 26
-2 20 12 21 34 8 146 l-8 67 33 18 c18 10 67 45 109 78 57 45 76 67 77 85 1
38 14 70 28 70 17 0 27 -126 15 -178 -5 -21 -9 -71 -9 -113 0 -84 -17 -127
-85 -216 -30 -39 -35 -54 -35 -100 0 -49 -3 -58 -34 -86 -50 -48 -107 -87
-126 -87 -9 0 -25 -7 -36 -15 -10 -8 -25 -15 -33 -15 -8 0 -25 -10 -39 -22
-19 -19 -35 -23 -85 -23 -186 0 -428 235 -497 483 -42 153 -37 242 33 492 28
102 37 120 94 185 40 46 54 75 35 75 -20 0 -94 -93 -130 -165 -92 -184 -126
-343 -97 -457 23 -95 20 -109 -35 -124 -62 -17 -226 -104 -343 -182 -57 -38
-144 -111 -210 -176 -91 -89 -127 -134 -184 -226 -167 -272 -202 -352 -287
-650 -15 -52 -36 -122 -46 -155 -36 -118 -66 -292 -94 -550 -19 -181 -16 -970
5 -1003 27 -43 75 -57 183 -55 89 2 98 1 94 -15 -3 -9 -14 -57 -26 -107 -22
-94 -29 -137 -70 -496 -38 -325 -89 -601 -138 -749 -65 -196 -170 -351 -276
-410 -32 -17 -58 -35 -58 -40 0 -21 23 -19 79 10 141 70 290 336 340 605 34
180 43 236 66 405 14 102 28 221 31 265 3 44 12 103 19 130 7 28 16 84 19 125
4 41 19 125 35 185 28 109 29 111 77 147 89 68 127 119 178 239 87 204 147
344 157 361 5 10 9 22 9 28 0 6 33 97 74 203 98 257 133 399 171 692 27 207
10 348 -76 640 -16 55 -32 133 -36 173 -4 46 -10 71 -17 69 -14 -5 -11 -193 3
-211 19 -23 70 -328 77 -456 5 -94 2 -158 -11 -255 -9 -71 -23 -173 -30 -225
-9 -74 -13 -86 -16 -56 -5 46 -28 62 -28 19 0 -64 -30 -245 -51 -309 -66 -199
-289 -736 -329 -793 -28 -39 -122 -102 -168 -112 -21 -4 -59 -13 -84 -20 -57
-15 -110 -5 -146 25 l-27 23 -1 179 c-1 99 1 206 4 239 4 33 2 138 -3 233 -10
177 -8 209 30 472 29 199 79 422 128 575 107 329 96 306 314 661 53 87 224
257 333 329 52 36 100 65 106 65 6 0 22 9 37 21 28 22 180 99 196 99 6 0 1
-23 -10 -52 -13 -36 -35 -65 -68 -94 -57 -50 -77 -91 -68 -137 4 -17 11 -57
16 -87 12 -82 56 -166 122 -232 85 -85 103 -92 234 -93 110 0 113 1 193 40 45
21 80 44 78 50 -7 21 -51 16 -121 -13 -125 -52 -135 -53 -210 -38 -39 9 -81
25 -101 40 -49 38 -106 110 -115 148 -5 18 -20 67 -34 108 -33 95 -34 145 -3
170 93 78 97 83 113 136 8 29 19 56 23 58 4 3 15 -11 24 -30 21 -42 21 -44 2
-44 -19 0 -19 -2 6 -44 21 -36 34 -45 41 -26 2 6 9 6 18 0 12 -7 12 -12 3 -21
-10 -10 -8 -17 7 -33 10 -12 52 -56 92 -99 75 -81 180 -154 252 -177 56 -18
225 -6 274 19 20 10 63 38 94 61 52 39 62 54 113 157 30 63 55 119 55 124 0 5
19 51 43 101 l42 93 0 181 -1 182 -62 123 c-59 116 -69 129 -157 210 -79 73
-102 88 -152 102 -60 17 -114 20 -167 8z m-456 -985 c0 -3 -4 -8 -10 -11 -5
-3 -10 -1 -10 4 0 6 5 11 10 11 6 0 10 -2 10 -4z"/>
<path d="M10650 6934 c-76 -35 -319 -94 -415 -100 -93 -6 -364 9 -416 23 -44
12 -99 5 -99 -12 0 -7 23 -34 51 -59 55 -49 55 -49 -26 -66 -27 -6 -54 -15
-60 -20 -22 -18 -251 -130 -266 -130 -20 0 -44 -27 -54 -59 -4 -13 -30 -49
-59 -81 -137 -154 -209 -267 -231 -363 -18 -79 -30 -102 -86 -162 -136 -147
-141 -155 -203 -321 -33 -88 -76 -194 -97 -236 -38 -75 -131 -318 -142 -368
-3 -14 -15 -56 -26 -95 -40 -134 -55 -217 -47 -270 8 -48 8 -49 22 -25 7 14
13 45 14 70 0 25 18 116 39 202 30 117 52 180 90 255 28 55 51 105 51 110 0 6
20 50 45 98 50 98 103 234 135 341 17 62 29 81 85 140 l65 69 -7 -65 c-14
-121 -7 -211 22 -284 l27 -67 -112 -222 c-116 -229 -182 -383 -194 -451 -4
-22 -25 -92 -46 -157 -22 -65 -48 -166 -60 -226 -12 -59 -28 -137 -36 -173 -8
-36 -19 -96 -25 -135 -5 -38 -14 -92 -20 -120 -6 -27 -13 -67 -16 -89 -4 -29
-12 -42 -35 -55 -78 -42 -92 -72 -44 -91 20 -8 20 -8 -5 -18 -46 -18 -196
-149 -203 -178 -15 -57 29 -57 112 1 56 38 74 45 49 18 -29 -33 -95 -159 -111
-213 -9 -29 -16 -73 -16 -97 0 -39 2 -43 24 -43 23 0 51 27 180 175 19 22 37
37 40 34 3 -3 -10 -37 -29 -75 -35 -69 -44 -117 -25 -129 6 -4 42 18 79 49 68
54 69 55 86 36 10 -11 26 -20 36 -20 18 0 159 144 159 164 0 6 8 24 19 39 l18
28 33 -27 c31 -27 32 -30 26 -83 -3 -31 -5 -96 -5 -146 1 -49 2 -232 4 -405 1
-310 9 -506 22 -565 3 -16 7 -46 9 -65 1 -19 8 -62 15 -95 6 -33 13 -87 15
-120 5 -88 12 -202 23 -360 6 -77 8 -153 5 -170 -3 -16 -6 -50 -8 -75 -2 -25
-7 -90 -11 -146 l-8 -100 27 -21 c15 -12 46 -24 69 -28 76 -13 80 -18 73 -93
-8 -77 -60 -192 -132 -287 -40 -54 -42 -60 -31 -88 14 -34 68 -67 110 -67 21
0 28 -4 25 -17 -8 -44 -365 -118 -455 -94 -63 17 -161 94 -183 144 -37 81 -23
161 42 235 15 18 26 37 23 43 -13 21 -44 5 -114 -58 -97 -88 -131 -156 -131
-262 0 -64 5 -85 41 -165 23 -53 54 -104 73 -122 85 -81 347 -126 521 -89 40
9 126 15 200 16 71 0 150 4 175 9 90 17 220 53 220 60 0 4 -15 11 -34 14 l-34
7 15 47 c10 34 13 71 9 130 l-6 84 102 -5 c111 -5 259 -33 323 -63 22 -10 63
-19 90 -20 28 0 88 -6 135 -12 46 -7 119 -12 162 -12 43 0 78 -1 78 -3 0 -2
-7 -25 -16 -50 -17 -51 -47 -68 -87 -50 -23 10 -147 1 -227 -18 -25 -6 -93
-13 -152 -16 -59 -3 -105 -10 -102 -14 3 -5 22 -9 42 -10 32 -1 28 -3 -33 -19
-91 -25 -89 -25 -129 10 -40 36 -60 86 -48 121 10 28 5 59 -9 59 -14 0 -29
-44 -43 -127 -21 -116 -1 -152 131 -244 63 -43 85 -53 146 -62 95 -15 247 -14
432 1 83 7 222 17 310 22 109 6 172 14 198 25 21 9 105 32 185 52 136 34 160
37 317 39 191 3 395 19 500 39 74 14 87 12 79 -9 -3 -7 2 -19 11 -26 13 -11
32 -11 113 3 53 9 133 19 177 22 91 8 125 24 125 60 0 25 -1 25 -86 25 l-86 0
23 21 24 20 -177 -5 c-123 -3 -180 -2 -184 6 -14 22 -332 -4 -644 -53 -240
-37 -320 -45 -328 -31 -4 5 -7 61 -7 123 l0 112 95 22 c171 39 178 50 200 270
8 90 39 208 69 263 6 11 23 23 38 26 58 15 171 75 197 106 14 18 40 60 57 94
17 33 39 75 50 92 10 17 33 74 50 125 17 52 35 99 39 104 5 6 14 42 20 79 6
38 15 77 20 86 5 9 6 27 3 38 -3 12 0 28 6 36 6 7 15 33 20 57 10 54 47 189
68 249 8 25 19 70 25 100 5 30 18 96 28 145 11 50 29 146 40 215 11 69 27 149
36 178 16 58 29 118 44 205 6 31 15 85 21 120 6 34 15 103 20 152 6 50 14 124
19 165 5 41 12 95 15 120 9 73 8 509 -2 710 -7 134 -14 195 -25 220 -9 19 -35
96 -58 170 -49 157 -104 276 -208 450 -74 123 -166 250 -181 250 -4 0 -32 37
-62 82 -59 91 -143 192 -231 279 -45 45 -73 63 -130 84 -123 45 -170 71 -289
160 -105 78 -117 90 -150 155 -38 73 -35 97 6 64 13 -11 80 -66 150 -124 70
-58 140 -111 157 -118 55 -24 368 -253 377 -276 2 -6 15 -19 28 -31 68 -56
262 -256 293 -301 8 -12 35 -50 60 -85 73 -104 150 -230 170 -279 40 -96 88
-229 120 -330 17 -58 49 -150 70 -206 36 -93 84 -285 100 -399 4 -27 16 -86
28 -130 11 -44 23 -127 27 -185 20 -330 32 -397 127 -705 73 -239 87 -290 97
-340 46 -247 90 -449 118 -540 20 -63 24 -90 18 -130 -4 -27 -8 -63 -10 -80
-1 -16 -3 -34 -5 -40 -1 -5 -2 -26 -1 -45 1 -28 8 -40 36 -59 19 -13 35 -29
35 -36 0 -16 40 -52 73 -64 l27 -11 0 170 0 170 -45 32 c-25 18 -45 37 -45 42
0 6 -13 45 -30 87 -16 42 -34 107 -40 145 -5 38 -14 87 -20 109 -5 22 -25 123
-45 225 -19 101 -43 195 -51 209 -9 13 -22 49 -30 80 -7 31 -27 106 -44 166
-44 152 -55 225 -80 505 -21 227 -60 481 -79 504 -9 10 -24 75 -36 156 -2 14
-31 106 -65 205 -34 99 -74 227 -90 285 -31 119 -103 288 -157 370 -126 189
-269 380 -286 380 -6 0 -58 48 -117 108 -58 59 -138 135 -177 170 -69 61 -97
80 -262 179 -41 25 -116 82 -167 128 -51 46 -105 91 -121 101 -15 10 -45 33
-66 51 -21 19 -53 41 -72 50 -63 30 -37 45 28 18 70 -29 108 -6 51 31 -75 50
-77 157 -8 448 27 113 26 154 -2 194 -19 28 -27 28 -94 -4z m61 -51 c8 -22 3
-60 -27 -188 -20 -88 -40 -170 -45 -182 -5 -12 -4 -59 1 -105 5 -45 8 -83 6
-85 -11 -11 -139 61 -196 109 -85 72 -180 138 -197 138 -8 0 -30 12 -49 26
-18 14 -94 52 -167 84 -74 32 -151 70 -171 84 -21 14 -46 28 -57 31 -10 4 -19
11 -19 17 0 6 21 8 58 4 31 -4 145 -7 252 -8 221 -2 309 11 470 67 120 41 128
42 141 8z m-769 -194 c33 -17 101 -57 150 -90 49 -32 91 -59 94 -59 11 0 144
-87 174 -114 19 -17 70 -52 112 -76 79 -46 98 -70 53 -70 -31 0 -34 -29 -5
-37 33 -9 22 -23 -12 -16 -32 6 -32 6 -17 -18 9 -13 22 -34 30 -46 7 -13 26
-27 41 -32 44 -16 35 -34 -12 -26 -29 5 -40 3 -40 -6 0 -21 32 -49 57 -49 12
0 23 -3 23 -7 -2 -29 -91 -134 -265 -309 -55 -55 -152 -159 -215 -231 -63 -73
-123 -134 -133 -138 -10 -4 -47 1 -82 10 -58 16 -73 16 -152 4 -48 -7 -163
-15 -254 -16 -150 -4 -171 -2 -223 18 -67 24 -66 24 -15 141 16 36 29 71 29
78 0 6 6 21 14 33 36 56 40 208 7 264 -12 21 -12 22 -15 -79 -3 -61 -10 -90
-35 -143 -17 -37 -31 -71 -31 -77 0 -5 -14 -45 -31 -88 -31 -79 -31 -79 -55
-63 -29 19 -29 30 -4 111 11 35 20 68 20 73 0 17 -31 -4 -46 -32 -22 -44 -39
-35 -57 30 -25 89 -5 234 41 311 19 31 27 36 74 40 65 6 69 23 8 30 -25 3 -51
9 -57 13 -29 18 -9 83 60 190 29 45 80 87 106 87 15 0 13 -65 -3 -110 -11 -29
-20 -37 -59 -48 -60 -17 -77 -44 -45 -73 87 -78 178 -115 178 -73 0 12 -6 15
-25 10 -21 -5 -29 -1 -46 29 -13 21 -31 37 -48 41 -66 14 -65 20 10 48 61 22
120 93 167 199 35 79 40 109 30 187 -3 23 7 30 102 78 58 28 141 66 185 82 44
16 87 34 95 39 27 17 59 12 122 -20z m-534 -250 c3 -41 -28 -132 -59 -169
l-20 -25 4 85 c2 55 10 97 21 118 23 44 50 40 54 -9z m1256 -433 c22 -52 81
-111 172 -172 98 -65 160 -98 229 -120 91 -30 144 -63 216 -136 40 -40 96
-110 126 -156 30 -46 60 -85 68 -88 8 -3 30 -28 49 -54 19 -27 58 -74 86 -105
27 -30 50 -60 50 -66 0 -6 11 -25 24 -42 13 -18 40 -63 61 -102 21 -38 46 -79
56 -90 10 -11 23 -42 29 -68 6 -27 19 -66 30 -87 11 -22 20 -45 20 -51 0 -7
18 -51 40 -99 30 -65 43 -109 51 -176 21 -169 21 -186 10 -194 -8 -5 -9 -14
-2 -32 16 -42 4 -374 -20 -547 -11 -86 -21 -167 -21 -181 0 -71 -83 -608 -112
-730 -7 -30 -19 -93 -25 -140 -14 -98 -24 -149 -46 -240 -9 -36 -20 -87 -24
-115 -10 -56 -46 -180 -97 -331 -19 -56 -32 -109 -28 -118 3 -9 -1 -34 -10
-56 -9 -22 -16 -51 -16 -64 0 -14 -6 -37 -14 -53 -8 -15 -31 -82 -52 -148 -21
-66 -45 -127 -55 -135 -9 -8 -26 -35 -36 -60 -23 -52 -91 -126 -131 -141 -15
-6 -49 -15 -77 -20 -27 -5 -81 -16 -120 -25 -82 -18 -168 -28 -550 -65 -118
-11 -139 -11 -445 -5 -129 2 -271 10 -315 16 -44 6 -114 15 -155 20 -189 21
-281 41 -311 66 -8 8 -38 18 -65 24 -218 44 -213 40 -195 147 31 188 22 1001
-13 1133 -40 151 -48 234 -50 480 -3 545 51 1212 115 1414 10 34 19 69 19 80
0 37 73 312 93 351 11 22 50 132 87 245 82 255 131 332 190 300 10 -5 44 -12
78 -14 72 -6 176 -44 236 -86 25 -16 52 -30 60 -30 10 0 26 22 41 57 34 76
111 169 284 343 238 239 410 428 417 458 13 54 28 57 48 8z m-1531 -598 c16
-12 15 -20 -12 -108 -30 -99 -46 -218 -56 -405 -6 -97 -35 -282 -65 -415 -19
-82 -39 -194 -35 -198 8 -8 23 36 30 88 4 30 11 61 15 70 19 38 130 584 130
638 0 21 11 76 25 123 13 46 25 101 25 123 l0 38 38 -5 c20 -3 55 -10 77 -15
22 -6 52 -13 68 -17 35 -7 34 -22 -5 -76 -43 -60 -83 -151 -107 -245 -11 -44
-34 -113 -51 -154 -17 -41 -37 -99 -44 -130 -8 -30 -24 -91 -36 -135 -23 -87
-66 -263 -81 -334 -5 -25 -17 -53 -26 -63 -10 -12 -18 -38 -19 -66 -1 -48 -14
-173 -33 -337 -5 -49 -13 -125 -16 -167 -5 -55 -11 -78 -20 -78 -21 0 -133
139 -166 207 -28 58 -29 64 -15 90 8 16 58 71 111 123 96 94 125 133 125 166
0 9 -17 -9 -39 -42 -22 -34 -74 -89 -124 -132 -80 -67 -91 -73 -162 -88 -41
-8 -80 -14 -85 -12 -5 2 13 66 39 143 68 195 79 225 102 256 39 56 199 542
218 666 18 115 40 219 56 263 33 94 100 240 110 240 6 0 19 -6 28 -12z m794
-94 c3 -7 -4 -26 -16 -42 -11 -16 -25 -41 -31 -56 -11 -31 -23 -32 -58 -7 -39
27 -169 69 -245 80 -37 5 -76 17 -89 25 -12 9 -18 16 -13 16 84 0 272 11 310
17 55 10 132 -9 142 -33z m-1221 -1542 c18 -26 59 -89 93 -139 33 -51 61 -99
61 -106 0 -42 -128 -195 -151 -181 -15 9 -2 41 48 121 82 134 18 107 -77 -32
-52 -76 -136 -163 -146 -152 -7 6 18 77 58 169 12 26 34 59 50 74 25 25 37 54
22 54 -10 0 -199 -174 -224 -207 -14 -17 -38 -50 -53 -72 -25 -37 -57 -55 -57
-33 0 20 34 121 55 162 27 54 157 181 203 200 46 18 27 30 -34 20 -54 -9 -201
-77 -223 -104 -16 -20 -31 -21 -31 -3 0 18 152 134 206 158 40 16 64 43 64 68
0 6 -19 11 -42 11 -86 0 18 36 112 39 31 1 38 -4 66 -47z m637 -2737 c113 -42
189 -54 375 -60 98 -3 192 -9 209 -14 83 -24 569 -19 778 7 88 11 203 24 255
27 52 4 114 10 138 15 42 7 42 7 42 -22 0 -16 -7 -43 -16 -60 -9 -16 -20 -76
-25 -132 -12 -122 -32 -196 -58 -220 -56 -51 -256 -76 -616 -79 -226 -2 -410
15 -537 49 -145 39 -194 44 -485 54 -352 11 -374 21 -298 126 73 101 93 136
99 172 15 89 41 162 57 162 9 0 46 -11 82 -25z m-888 -353 c1 -21 14 -64 29
-96 62 -127 148 -176 307 -176 111 0 206 24 343 88 99 46 104 47 212 50 l112
4 12 -73 c30 -176 -11 -216 -225 -218 -39 -1 -125 -8 -190 -17 -174 -23 -364
-1 -476 55 -66 33 -82 56 -120 165 -37 108 -45 171 -29 220 15 47 25 46 25 -2z
m2343 -236 c13 -14 2 -269 -13 -292 -21 -33 -140 -61 -285 -68 -69 -3 -197
-11 -286 -17 -142 -11 -171 -10 -254 5 -146 27 -245 78 -302 158 -30 43 -15
45 34 4 23 -20 58 -40 78 -45 173 -44 291 -50 394 -22 98 27 181 74 211 120
13 20 33 62 45 94 12 31 22 58 23 58 1 1 52 5 112 8 133 8 233 7 243 -3z
m-499 -165 c20 -13 -48 -54 -124 -76 -111 -33 -394 -18 -382 20 2 5 15 11 28
12 33 3 111 11 129 13 8 1 2 8 -15 15 l-30 14 27 1 c15 0 30 -5 34 -11 7 -12
149 -5 229 11 56 11 88 11 104 1z m1756 -21 c-3 -5 -13 -10 -21 -10 -8 0 -14
5 -14 10 0 6 9 10 21 10 11 0 17 -4 14 -10z m-70 -9 c-11 -9 -215 -25 -215
-17 0 11 63 21 142 24 48 1 78 -2 73 -7z m-360 -11 c-3 -5 -10 -10 -16 -10 -5
0 -9 5 -9 10 0 6 7 10 16 10 8 0 12 -4 9 -10z m455 -20 c-22 -14 -97 -23 -112
-14 -12 9 35 19 102 22 19 1 22 0 10 -8z"/>
<path d="M9676 6394 c-47 -17 -102 -57 -117 -85 -18 -35 -1 -33 40 4 22 20 59
41 83 47 78 20 108 31 108 41 0 14 -70 10 -114 -7z"/>
<path d="M9865 6267 c-56 -18 -75 -27 -75 -34 1 -5 16 -26 35 -47 36 -40 55
-44 35 -7 -9 18 -8 21 8 21 11 0 39 -7 62 -15 44 -16 60 -13 60 10 0 13 -56
35 -87 35 -7 0 -13 4 -13 9 0 5 6 11 13 14 8 3 9 8 2 14 -6 6 -21 6 -40 0z"/>
<path d="M9650 6258 c-51 -9 -132 -47 -175 -82 l-30 -25 25 0 c14 -1 56 6 95
14 38 8 100 15 137 15 62 0 68 2 68 21 0 18 -4 20 -45 13 -53 -7 -59 6 -13 28
32 15 32 15 8 19 -14 3 -45 1 -70 -3z"/>
<path d="M9605 6036 c-121 -73 -145 -146 -83 -255 28 -49 32 -65 31 -126 -1
-67 -1 -69 12 -40 25 53 18 109 -21 184 -33 63 -35 72 -25 103 14 42 65 93
128 127 46 26 68 52 41 50 -7 0 -44 -19 -83 -43z"/>
<path d="M9140 5850 c0 -5 6 -10 14 -10 7 0 25 -9 40 -21 29 -23 34 -15 10 19
-15 22 -64 31 -64 12z"/>
<path d="M9118 5781 c-27 -57 -24 -64 21 -56 24 4 42 2 46 -4 11 -18 35 -12
35 8 0 22 -25 53 -60 74 -24 15 -25 15 -42 -22z"/>
<path d="M10364 5556 c-51 -63 -133 -218 -144 -270 -5 -28 -12 -159 -14 -291
-4 -219 -7 -250 -31 -350 -33 -134 -39 -146 -92 -184 -27 -19 -45 -41 -48 -58
-11 -52 -60 -137 -106 -183 -25 -25 -56 -61 -69 -80 -13 -19 -43 -56 -67 -82
-49 -54 -53 -78 -18 -124 14 -18 25 -42 25 -54 0 -45 -197 -305 -310 -408 -70
-64 -83 -89 -55 -112 12 -10 27 -9 75 3 32 8 61 13 63 10 3 -2 -1 -28 -9 -56
-22 -82 -42 -231 -50 -367 -7 -124 -6 -126 19 -155 14 -17 46 -41 71 -54 l46
-23 48 28 c143 84 328 354 397 579 15 50 32 94 36 99 5 6 15 -5 23 -25 18 -44
85 -154 150 -247 28 -41 61 -91 73 -111 26 -44 239 -253 303 -299 88 -62 148
-84 241 -90 107 -5 142 5 221 69 70 56 82 71 111 142 12 29 34 72 49 97 15 25
39 92 52 150 28 114 79 252 127 343 28 52 87 211 155 414 25 76 27 104 40 418
11 285 -29 502 -131 712 -54 110 -89 153 -126 153 -22 0 -23 -4 -9 -28 28 -49
52 -135 56 -197 2 -38 11 -91 20 -118 20 -61 31 -132 45 -306 17 -202 -14
-697 -51 -831 -23 -86 -61 -215 -82 -280 -26 -81 -68 -249 -68 -272 0 -16 -56
-128 -119 -240 -41 -73 -126 -151 -187 -172 -69 -23 -115 -20 -205 15 -75 29
-88 39 -225 172 -80 77 -165 166 -189 196 -64 81 -198 281 -211 316 -7 17 -30
68 -53 114 -22 47 -41 90 -41 97 0 35 -106 167 -209 259 -61 55 -111 103 -111
107 0 4 20 30 45 58 25 28 45 55 45 61 0 5 11 14 24 20 20 10 35 4 112 -42 49
-29 122 -82 163 -116 41 -35 78 -63 82 -63 9 0 54 -63 81 -114 9 -18 23 -38
32 -45 13 -11 15 -3 14 64 0 70 -3 79 -31 117 -21 28 -60 57 -116 87 -47 25
-105 67 -131 92 -25 26 -65 59 -88 74 -23 15 -42 29 -42 32 0 2 11 20 24 41
13 20 39 69 57 109 35 75 56 93 109 93 22 0 42 -13 82 -55 63 -66 80 -71 37
-12 -23 32 -27 43 -16 45 29 6 90 -29 193 -110 90 -72 101 -83 79 -86 -13 -2
-40 4 -60 14 -20 9 -38 14 -42 10 -8 -8 77 -46 105 -46 31 0 62 17 62 35 0 8
-19 27 -42 42 -24 15 -64 47 -90 70 -54 49 -191 118 -255 128 l-43 7 6 41 c3
23 15 59 25 80 10 21 19 50 19 65 0 15 7 38 16 50 20 29 34 365 15 376 -7 5
-8 13 -2 25 6 10 10 50 9 89 0 64 4 81 43 164 24 51 55 111 69 133 40 60 41
63 31 70 -5 3 -22 -10 -37 -29z m-338 -1425 c45 -32 79 -69 72 -76 -2 -3 -20
7 -39 21 -19 14 -51 34 -72 45 -21 11 -35 24 -32 29 10 17 30 11 71 -19z m252
-187 c46 -40 66 -74 44 -74 -4 0 -34 27 -67 60 -70 70 -53 81 23 14z m-365
-157 c44 -34 108 -125 144 -203 13 -29 28 -56 32 -58 9 -6 -22 -125 -69 -272
-27 -85 -164 -338 -193 -356 -40 -25 -35 0 23 131 56 123 74 187 47 161 -22
-22 -117 -235 -133 -299 -14 -60 -44 -103 -44 -64 0 11 25 96 55 188 57 175
63 199 43 193 -14 -5 -77 -173 -117 -313 -24 -86 -32 -100 -51 -103 -23 -4
-23 -2 -17 65 9 101 83 426 107 473 35 69 16 69 -28 1 -30 -46 -42 -75 -42
-101 0 -21 -5 -59 -10 -86 -6 -27 -23 -111 -38 -186 -15 -76 -31 -138 -37
-139 -27 -4 -35 47 -29 191 8 198 45 348 105 430 32 43 17 48 -31 10 -55 -44
-180 -88 -180 -64 0 4 49 54 108 113 60 58 127 133 150 166 132 189 121 176
145 164 12 -7 39 -25 60 -42z"/>
<path d="M10316 4332 c-3 -6 -1 -14 5 -17 15 -10 25 3 12 16 -7 7 -13 7 -17 1z"/>
<path d="M2260 6850 c-12 -8 -9 -10 12 -10 15 0 30 5 33 10 8 13 -25 13 -45 0z"/>
<path d="M3704 6799 c-32 -16 -46 -31 -68 -78 -30 -61 -29 -84 3 -128 21 -29
35 -30 20 -2 -6 12 -9 44 -7 71 6 53 25 80 92 129 47 35 24 39 -40 8z"/>
<path d="M2051 6724 c-50 -21 -31 -28 47 -14 63 10 74 9 128 -10 97 -35 133
-44 141 -36 11 10 -12 22 -97 51 -85 28 -167 32 -219 9z"/>
<path d="M8002 6720 c-65 -14 -139 -58 -214 -129 -95 -89 -137 -149 -164 -238
-13 -42 -34 -88 -48 -102 -72 -78 -176 -322 -176 -416 0 -47 17 -18 45 79 50
174 146 326 206 326 30 0 114 -83 153 -152 15 -27 31 -48 36 -48 5 0 21 18 36
39 53 81 88 58 80 -52 -2 -37 -9 -74 -15 -81 -6 -7 -13 -39 -17 -72 -5 -53
-10 -63 -47 -98 -41 -37 -41 -38 -14 -33 15 2 27 0 27 -6 0 -6 -26 -57 -57
-114 -47 -84 -62 -103 -83 -105 -16 -2 -24 -8 -21 -18 9 -38 5 -45 -26 -48
-25 -2 -33 -8 -33 -22 0 -21 -93 -90 -120 -90 -9 0 -25 -7 -36 -16 -18 -14
-14 -15 43 -9 l62 6 21 -41 c11 -22 24 -40 29 -40 18 0 20 32 5 68 -15 36 -14
38 8 52 75 49 196 212 222 298 7 26 29 83 46 127 35 85 45 154 42 290 l-2 80
-74 73 c-41 40 -77 79 -80 87 -3 8 -16 15 -29 15 -13 0 -32 9 -42 20 -15 17
-16 25 -5 69 22 94 83 163 201 230 48 27 66 31 127 31 40 0 72 4 72 9 0 29
-86 45 -158 31z m-265 -244 c-3 -8 -9 -41 -13 -74 -5 -50 -10 -62 -30 -71 -21
-9 -24 -8 -24 12 0 27 21 94 38 125 14 24 38 31 29 8z m50 -177 c29 -11 108
-81 124 -112 8 -15 3 -27 -26 -62 -40 -50 -60 -50 -73 -1 -5 17 -34 58 -66 90
-31 32 -56 62 -56 67 0 6 42 26 62 28 4 1 19 -4 35 -10z"/>
<path d="M2090 6581 c0 -6 12 -18 28 -27 15 -9 56 -37 92 -60 36 -24 69 -44
73 -44 16 0 5 48 -16 68 -41 38 -177 87 -177 63z"/>
<path d="M2060 6361 c0 -18 80 -80 117 -91 21 -6 56 -10 78 -8 l40 3 -37 40
c-36 39 -37 39 -72 27 -32 -12 -38 -11 -75 13 -44 27 -51 30 -51 16z"/>
<path d="M2400 6045 c0 -19 36 -39 45 -25 8 13 -13 40 -31 40 -8 0 -14 -7 -14
-15z"/>
<path d="M7787 5937 c1 -39 8 -86 15 -102 12 -28 13 -25 16 52 3 76 -7 123
-26 123 -4 0 -6 -33 -5 -73z"/>
<path d="M2373 5924 c-8 -23 34 -54 72 -53 44 1 108 22 113 38 4 11 -7 13 -56
7 -47 -5 -68 -3 -92 9 -28 14 -31 14 -37 -1z"/>
<path d="M7680 5831 c0 -19 47 -64 58 -57 17 11 15 23 -10 46 -23 21 -48 27
-48 11z"/>
<path d="M5660 5322 c0 -4 8 -19 17 -32 33 -47 103 -259 112 -342 7 -64 16
-80 26 -49 13 42 -16 174 -61 281 -25 58 -52 115 -60 128 -14 21 -34 30 -34
14z"/>
<path d="M6205 5179 c-3 -9 -4 -71 -2 -139 3 -99 7 -125 22 -138 17 -16 17
-10 12 120 -5 133 -18 194 -32 157z"/>
<path d="M11920 413 c-74 -1 -245 -7 -380 -13 -430 -19 -634 -39 -644 -65 -7
-19 5 -27 21 -14 10 9 18 8 31 -5 17 -15 21 -14 52 9 19 14 45 25 59 25 l26
-1 -25 -14 c-23 -13 -17 -14 65 -9 50 3 120 10 157 15 54 9 71 8 95 -4 33 -17
196 -16 292 3 63 12 77 20 35 20 -21 1 -25 3 -14 9 8 5 68 11 133 15 302 16
346 20 341 27 -3 5 -29 8 -57 7 -29 -1 -113 -3 -187 -5z m-263 -49 c-3 -3 -12
-4 -19 -1 -8 3 -5 6 6 6 11 1 17 -2 13 -5z m-59 -14 c-10 -6 -25 -7 -40 -1
-20 9 -18 10 17 10 31 0 36 -2 23 -9z"/>
</g>
</svg>
