<?xml version="1.0" standalone="no"?>
<!DOCTYPE svg PUBLIC "-//W3C//DTD SVG 20010904//EN"
 "http://www.w3.org/TR/2001/REC-SVG-20010904/DTD/svg10.dtd">
<svg version="1.0" xmlns="http://www.w3.org/2000/svg"
 width="1280.000000pt" height="675.000000pt" viewBox="0 0 1280.000000 675.000000"
 preserveAspectRatio="xMidYMid meet">
<metadata>
Created by potrace 1.15, written by Peter Selinger 2001-2017
</metadata>
<g transform="translate(0.000000,675.000000) scale(0.100000,-0.100000)"
fill="#000000" stroke="none">
<path d="M7040 6669 c-85 -44 -191 -102 -235 -129 -44 -27 -93 -57 -110 -66
-16 -9 -75 -47 -130 -84 -55 -36 -135 -86 -178 -109 -75 -41 -98 -63 -83 -79
11 -10 234 107 303 160 60 46 237 158 250 158 3 0 29 15 56 33 28 17 107 62
176 98 113 59 146 87 116 95 -5 2 -80 -33 -165 -77z"/>
<path d="M3044 6702 c-23 -15 -77 -54 -120 -88 -44 -33 -117 -87 -164 -119
-148 -103 -569 -439 -741 -592 -270 -240 -428 -383 -435 -394 -3 -6 -2 -15 3
-20 12 -12 71 35 217 170 55 51 168 148 251 214 82 67 176 146 210 175 33 30
103 87 155 126 52 39 151 117 220 171 69 55 193 149 275 209 181 132 195 144
188 162 -7 19 -12 18 -59 -14z"/>
<path d="M2502 6658 c-97 -78 -279 -232 -407 -343 -76 -66 -180 -154 -231
-195 -183 -148 -363 -312 -582 -529 -199 -198 -235 -241 -201 -241 6 0 85 71
177 157 92 86 316 288 497 448 182 160 337 300 345 309 8 10 53 48 100 84 95
74 348 289 367 312 34 42 -11 40 -65 -2z"/>
<path d="M4110 6609 c-75 -43 -586 -382 -685 -456 -44 -32 -123 -89 -175 -126
-214 -151 -690 -536 -690 -558 0 -23 38 -4 113 59 76 63 117 95 346 274 106
82 263 202 322 245 24 18 103 75 174 128 72 52 162 114 200 137 71 42 390 252
434 286 13 10 22 24 20 30 -3 8 -23 1 -59 -19z"/>
<path d="M4495 6551 c-268 -145 -741 -456 -918 -605 -102 -86 -473 -370 -661
-506 -184 -133 -285 -216 -486 -400 -80 -73 -158 -138 -175 -145 -18 -8 -84
-14 -165 -16 -157 -4 -159 -2 -77 73 29 25 93 85 142 133 50 48 146 135 215
193 144 120 184 162 170 176 -13 13 -126 -82 -455 -384 -237 -218 -197 -195
-360 -209 -166 -13 -252 -14 -259 -3 -10 17 228 237 478 442 44 36 124 101
177 145 54 44 151 127 217 185 65 58 168 144 228 192 275 218 307 248 273 248
-26 0 -348 -247 -479 -366 -134 -123 -231 -208 -356 -311 -54 -45 -122 -101
-151 -125 -29 -24 -94 -77 -144 -118 -51 -41 -138 -119 -193 -172 -56 -53
-117 -104 -137 -112 -22 -9 -101 -20 -200 -26 -90 -6 -200 -15 -244 -21 -44
-5 -147 -15 -230 -22 -186 -17 -394 -46 -417 -58 -10 -5 -37 -9 -60 -9 -24 0
-59 -4 -78 -9 -19 -5 -61 -15 -93 -21 -54 -11 -57 -13 -57 -42 0 -23 3 -28 13
-21 6 6 26 13 42 16 17 3 44 11 60 18 17 7 41 14 55 15 58 7 101 17 105 24 3
5 22 4 43 -2 42 -12 140 -6 293 19 93 15 118 15 207 3 89 -11 110 -11 184 3
46 10 95 17 109 17 15 0 50 8 79 17 45 15 63 15 153 4 56 -6 157 -15 225 -18
67 -3 125 -9 127 -13 5 -9 -116 -120 -261 -240 -56 -47 -152 -131 -213 -186
-113 -103 -144 -120 -189 -103 -13 5 -35 9 -49 9 -15 0 -87 15 -162 34 -75 18
-179 43 -231 54 -281 61 -331 75 -452 127 -71 30 -130 55 -133 55 -3 0 -5 -12
-5 -27 0 -25 7 -31 63 -52 34 -13 87 -38 117 -55 30 -17 91 -39 135 -48 44 -9
146 -30 226 -46 80 -17 190 -42 245 -56 54 -14 132 -30 172 -37 39 -6 72 -14
72 -19 0 -4 -78 -79 -173 -167 -95 -88 -220 -210 -277 -272 -58 -61 -120 -120
-138 -131 -34 -20 -45 -60 -16 -60 18 0 194 166 235 220 14 19 43 50 65 69 21
19 110 101 197 183 138 131 162 149 185 145 15 -2 81 -18 147 -35 66 -17 133
-33 149 -37 l29 -6 -22 -23 c-19 -20 -19 -36 0 -36 4 0 21 12 38 26 l30 25
133 -20 c127 -19 264 -39 428 -63 41 -5 122 -14 180 -18 108 -9 236 -23 375
-42 44 -6 145 -14 225 -18 80 -5 161 -13 180 -19 19 -6 64 -11 100 -11 59 0
253 -17 470 -40 146 -16 429 -40 583 -48 81 -5 150 -11 153 -15 12 -12 -75
-92 -131 -120 -33 -16 -80 -40 -105 -53 -24 -13 -58 -24 -75 -24 -16 0 -62 -7
-100 -15 -39 -8 -108 -15 -154 -15 -63 0 -95 -5 -125 -19 -45 -21 -201 -42
-254 -34 -18 3 -39 14 -45 24 -13 20 -37 26 -37 9 0 -6 8 -22 17 -36 16 -25
16 -27 -8 -45 -13 -10 -42 -24 -64 -30 -40 -11 -122 -69 -208 -147 -61 -56
-72 -48 -57 41 9 51 9 83 0 139 -21 127 -93 212 -239 284 -52 26 -57 26 -175
20 -201 -12 -265 -28 -384 -99 -56 -33 -117 -74 -136 -89 -44 -36 -109 -154
-102 -183 7 -27 -19 -65 -45 -65 -27 0 -80 -24 -104 -47 -11 -10 -27 -22 -35
-25 -64 -25 -254 -213 -302 -300 -9 -17 -28 -42 -41 -57 -31 -33 -77 -103
-106 -161 -13 -25 -47 -82 -76 -126 -83 -128 -79 -115 -81 -274 -1 -80 -8
-172 -15 -205 l-14 -60 -55 -3 c-53 -3 -59 0 -117 44 -55 42 -66 56 -103 139
l-42 93 4 113 c4 79 10 124 21 146 10 18 17 48 17 67 0 24 9 46 28 68 16 18
51 76 79 128 27 52 77 133 109 180 52 73 64 85 92 88 30 3 34 0 53 -45 23 -54
65 -103 88 -103 9 0 36 -11 60 -25 49 -28 61 -31 61 -12 0 21 -51 64 -102 86
-32 13 -56 33 -75 61 -58 87 -60 94 -52 160 10 70 23 99 86 183 80 108 156
177 238 219 39 20 164 30 236 20 46 -7 62 -15 87 -43 17 -19 36 -54 43 -78 11
-41 10 -51 -15 -123 -16 -43 -26 -82 -22 -85 3 -3 20 25 38 63 23 51 33 87 36
140 4 65 2 73 -23 102 -37 44 -75 62 -132 63 -26 0 -70 4 -98 8 -40 7 -60 5
-98 -10 -26 -11 -49 -19 -51 -19 -2 0 -9 13 -14 28 -7 20 -28 39 -68 62 -63
35 -122 42 -211 22 -53 -12 -167 -85 -195 -126 -12 -17 -34 -44 -49 -61 -20
-22 -35 -58 -55 -135 -26 -105 -87 -239 -164 -367 -21 -34 -42 -73 -45 -85 -4
-13 -19 -45 -35 -73 -30 -56 -106 -270 -126 -355 -7 -30 -21 -91 -32 -135 -11
-44 -27 -116 -36 -160 -9 -44 -21 -98 -27 -120 -5 -22 -13 -138 -18 -258 -7
-160 -13 -224 -24 -240 -8 -12 -17 -44 -21 -72 -4 -27 -18 -93 -32 -146 -35
-138 -54 -261 -54 -361 0 -48 -7 -119 -15 -158 -18 -87 -9 -116 47 -143 21
-10 38 -22 38 -26 0 -4 -11 -44 -24 -90 -25 -85 -25 -103 2 -133 30 -35 42
-22 42 46 0 73 26 163 50 176 9 5 30 6 46 1 28 -7 29 -10 29 -66 0 -58 1 -60
41 -87 l42 -28 -6 -67 c-2 -38 -10 -72 -16 -76 -6 -4 -36 -6 -66 -3 -30 3 -73
1 -95 -4 -37 -8 -212 0 -352 16 l-53 6 0 -30 c0 -31 17 -42 67 -42 14 0 27
-10 35 -27 13 -26 17 -28 78 -27 36 0 148 8 250 16 110 10 211 13 250 9 l65
-7 -65 -7 c-36 -4 -78 -8 -93 -9 -33 -3 -41 -20 -12 -25 77 -13 215 -22 360
-24 94 -1 210 -6 260 -11 49 -4 133 -11 185 -13 52 -3 131 -10 175 -16 71 -8
88 -7 145 11 45 14 115 23 230 30 306 19 350 20 350 11 0 -28 28 -37 96 -31
84 7 954 2 1005 -6 23 -4 47 0 65 9 24 12 48 13 138 5 95 -9 124 -7 225 11
124 22 211 27 211 12 0 -6 -5 -13 -10 -16 -37 -23 6 -26 283 -21 692 14 832
18 840 26 11 10 -238 22 -443 20 -91 0 -172 -1 -180 0 -8 0 -35 0 -60 0 -25 0
-97 1 -160 3 -147 4 -215 32 -140 58 40 15 38 25 -7 33 -21 3 -67 21 -103 39
l-65 32 4 125 c2 69 5 143 7 165 4 55 -14 187 -34 260 -12 41 -17 96 -16 178
0 64 -1 117 -3 117 -10 0 -25 -51 -38 -125 -9 -47 -35 -145 -59 -218 -24 -73
-54 -177 -65 -232 -12 -55 -33 -144 -47 -197 -13 -53 -24 -105 -24 -115 1 -36
37 24 45 73 12 80 71 295 104 377 17 43 31 84 31 92 0 18 31 97 36 92 12 -11
34 -239 28 -282 -4 -27 -7 -105 -7 -171 l1 -122 35 -52 c20 -29 33 -58 31 -64
-2 -6 -30 -12 -62 -13 -32 -1 -70 -7 -85 -12 -16 -6 -53 -11 -83 -11 -50 0
-58 3 -92 38 -24 24 -54 43 -84 51 -83 23 -84 28 -63 199 10 81 19 167 20 192
1 25 8 100 15 167 17 150 1 494 -24 522 -11 13 -12 29 -5 81 6 36 14 94 19
130 5 36 15 111 21 168 7 56 15 100 17 97 10 -10 41 -272 42 -348 0 -43 -5
-88 -11 -99 -23 -43 -8 -168 20 -168 5 0 14 15 20 32 10 28 9 35 -5 45 -13 9
-15 21 -11 49 8 46 19 58 47 49 20 -6 21 -11 15 -73 -4 -37 -13 -99 -21 -139
-8 -40 -16 -119 -19 -175 -6 -162 -23 -303 -44 -381 -11 -40 -25 -99 -30 -132
-6 -33 -13 -78 -17 -99 -5 -28 -4 -37 4 -32 17 10 59 158 76 271 9 55 21 127
26 160 6 33 15 121 20 195 5 74 12 153 15 175 14 96 30 170 38 176 5 3 40 4
78 1 65 -4 75 -2 144 32 41 21 79 35 84 32 5 -4 14 -36 20 -74 13 -81 32 -392
25 -404 -15 -24 -19 -209 -9 -391 6 -93 4 -139 -5 -166 -6 -20 -10 -48 -8 -62
3 -17 12 1 32 64 30 97 30 155 0 288 -15 62 -14 71 7 160 19 83 21 110 15 229
-3 74 -11 162 -16 195 -15 93 -15 203 -1 415 16 248 24 311 36 311 10 0 35
-100 54 -216 42 -253 66 -338 101 -360 6 -4 10 -28 9 -53 -1 -26 5 -73 15
-105 14 -47 26 -64 58 -87 38 -28 42 -29 69 -15 46 24 51 43 40 156 -8 79 -15
109 -31 132 -20 26 -21 37 -15 95 6 60 6 65 -9 53 -9 -7 -16 -23 -16 -35 -1
-28 -33 -98 -54 -115 -15 -12 -19 -12 -31 0 -21 21 -73 206 -101 359 -13 74
-33 171 -44 215 -10 44 -33 139 -50 210 -17 72 -39 150 -48 175 -12 32 -17 72
-16 138 1 50 -2 92 -7 92 -10 0 -11 -2 -15 -45 -9 -83 -2 -181 20 -280 26
-121 29 -292 6 -335 -7 -13 -9 -36 -6 -54 6 -29 -9 -353 -20 -424 -4 -28 -13
-36 -72 -66 -48 -24 -87 -35 -138 -39 -112 -10 -107 -21 -110 243 -1 144 -6
226 -13 233 -6 6 -13 9 -15 6 -8 -8 -9 -253 -1 -331 6 -64 5 -78 -6 -78 -37 1
-44 19 -55 142 -6 68 -18 177 -27 243 -39 288 -48 378 -40 386 11 11 126 -224
143 -293 11 -40 16 -48 36 -48 32 0 67 -54 100 -152 25 -75 67 -130 85 -111
12 13 29 123 29 192 0 68 -3 76 -64 158 -17 23 -26 56 -35 123 -14 108 -27
150 -91 290 l-49 105 20 80 c10 44 19 92 19 106 0 56 -15 35 -38 -53 -13 -51
-25 -95 -28 -97 -2 -2 -13 8 -25 22 -11 15 -30 27 -41 27 -20 0 -88 36 -88 47
0 13 54 111 84 152 19 26 38 70 45 101 11 53 10 58 -18 115 -16 33 -31 66 -33
74 -4 17 86 42 124 35 16 -3 75 -6 132 -7 57 -1 108 -5 112 -9 4 -5 -5 -31
-20 -59 -39 -70 -31 -94 34 -108 28 -6 63 -11 78 -11 15 0 37 -7 49 -15 27
-19 78 -108 92 -160 30 -115 51 -217 57 -280 3 -38 11 -76 17 -83 6 -8 9 -109
9 -275 -1 -247 4 -339 29 -482 17 -99 19 -105 30 -105 14 0 4 143 -14 192 -7
21 -11 142 -12 333 -1 315 -4 344 -62 605 -48 214 -112 298 -237 314 -27 3
-51 8 -54 11 -13 12 14 59 60 108 53 55 53 55 138 66 47 7 102 17 123 22 52
14 77 4 77 -29 1 -26 34 -94 114 -232 21 -36 53 -104 72 -151 31 -80 33 -93
29 -176 -3 -49 -11 -120 -19 -159 -8 -38 -19 -152 -26 -254 -6 -102 -15 -237
-20 -301 -5 -64 -7 -125 -5 -135 2 -11 7 -36 10 -57 3 -21 12 -37 19 -37 7 0
37 19 66 42 51 40 53 41 67 22 8 -11 11 -29 8 -44 -20 -77 -27 -162 -27 -300
1 -138 4 -164 27 -235 14 -44 38 -98 53 -119 25 -36 27 -48 28 -135 1 -169 21
-232 75 -235 21 -1 24 -6 23 -36 -3 -77 -23 -101 -135 -160 -57 -31 -134 -68
-172 -84 -71 -30 -114 -70 -98 -90 7 -8 90 -12 281 -13 161 -1 276 -6 283 -11
14 -12 58 -20 142 -27 33 -3 112 -10 175 -15 63 -5 147 -10 187 -10 57 0 74
-4 81 -17 9 -15 44 -17 358 -19 346 -3 348 -3 365 -25 9 -13 21 -19 28 -15 7
4 17 3 24 -2 17 -13 95 -24 101 -13 3 5 146 7 323 4 378 -5 382 -6 591 -22
179 -14 242 -10 221 15 -10 12 -45 15 -188 15 -233 0 -278 3 -326 24 -33 15
-66 18 -193 16 -181 -3 -421 16 -442 34 -21 17 -73 24 -274 36 -94 5 -209 12
-254 14 -47 3 -97 12 -114 21 -21 11 -65 17 -142 19 -61 1 -122 5 -136 9 -59
14 -315 14 -382 -1 -38 -8 -75 -13 -83 -9 -14 5 -14 9 2 32 15 23 15 35 5 108
-6 44 -9 109 -5 143 5 56 8 63 34 73 58 25 75 72 71 210 -3 98 24 262 63 380
18 58 41 142 51 188 l17 83 62 28 c33 15 94 50 134 77 218 147 245 156 426
142 105 -7 166 1 198 29 9 9 17 19 17 22 0 10 -332 4 -382 -8 -62 -13 -132
-49 -197 -101 -69 -54 -146 -90 -197 -90 l-41 0 4 102 c4 106 -5 144 -28 121
-8 -8 -13 -57 -16 -129 -2 -65 -7 -122 -12 -128 -5 -6 -14 -49 -20 -96 -13
-88 -43 -209 -67 -270 -18 -47 -40 -131 -55 -206 -8 -47 -8 -83 0 -147 10 -71
9 -92 -3 -121 -12 -30 -21 -36 -68 -46 -54 -12 -146 -9 -208 7 l-35 9 -1 125
-2 124 -46 96 c-25 53 -50 120 -56 148 -5 29 -12 56 -14 60 -9 13 -6 275 3
392 5 70 15 129 25 147 10 18 46 50 89 78 97 62 116 82 123 124 3 20 16 56 28
80 l22 44 79 4 c44 2 157 4 251 5 l171 2 158 80 c208 105 198 99 288 158 86
56 95 54 98 -13 1 -19 4 -48 8 -65 5 -26 11 -30 41 -32 52 -2 174 -31 266 -63
99 -34 112 -41 143 -74 50 -54 22 -246 -64 -422 -29 -62 -67 -131 -84 -154
-16 -23 -35 -58 -42 -78 -6 -20 -22 -50 -34 -67 -38 -51 -84 -150 -101 -219
-18 -72 -33 -82 -60 -41 -21 32 -69 61 -115 69 -23 4 -53 23 -86 54 l-51 47 8
55 c4 30 29 105 54 165 45 108 57 163 35 149 -15 -9 -114 -220 -139 -295 -12
-34 -17 -70 -14 -87 4 -21 -3 -44 -27 -88 -18 -32 -40 -68 -50 -79 -30 -34
-71 -136 -64 -162 7 -30 69 -71 135 -88 28 -7 62 -21 75 -29 13 -9 42 -18 63
-19 22 -2 54 -15 73 -29 19 -14 48 -33 66 -42 17 -8 52 -34 78 -56 51 -44 79
-50 95 -20 29 54 -42 179 -151 266 -60 47 -69 59 -69 87 0 33 23 77 40 77 5 0
20 -12 34 -26 14 -16 35 -27 50 -27 33 0 76 29 76 51 0 9 9 44 20 76 11 33 20
75 20 95 0 20 8 52 19 71 10 19 35 67 55 105 21 39 46 79 57 91 10 11 19 26
19 34 0 7 25 54 56 103 68 110 83 165 87 310 2 103 0 115 -21 144 -13 18 -42
44 -65 57 -39 23 -79 36 -261 86 -90 24 -102 37 -89 88 7 25 7 62 1 103 -12
80 -4 185 17 235 16 38 38 138 50 226 5 38 13 53 49 85 132 118 229 193 248
193 7 0 42 -18 77 -41 35 -22 98 -54 139 -70 85 -34 129 -37 404 -24 l167 8
48 -53 c26 -28 61 -59 78 -67 16 -9 39 -23 50 -32 11 -10 55 -33 97 -52 43
-19 77 -38 78 -42 0 -4 -16 -21 -35 -38 -33 -29 -46 -59 -26 -59 5 0 31 18 57
40 56 46 46 43 148 44 79 1 80 1 103 35 13 19 23 37 23 41 0 4 -16 18 -35 32
l-35 24 33 31 c17 17 62 55 99 85 192 151 365 294 383 313 11 13 85 71 165
131 116 87 153 109 190 115 50 8 465 16 1185 25 258 2 471 7 473 9 2 2 1 8 -2
14 -8 12 -445 14 -646 2 -74 -4 -164 -4 -200 0 -36 4 -194 3 -353 -3 -273 -10
-397 -6 -397 11 0 5 55 47 123 95 67 47 178 129 247 182 140 108 214 154 248
154 15 0 26 8 32 24 5 13 28 38 52 54 24 16 54 40 69 53 14 13 46 40 72 59 25
19 47 43 47 53 0 9 -3 17 -6 17 -15 0 -93 -53 -124 -85 -19 -19 -44 -35 -56
-35 -24 0 -41 -16 -24 -22 6 -2 -69 -59 -167 -127 -98 -67 -227 -161 -288
-207 -60 -46 -157 -117 -215 -157 l-105 -72 -148 -5 c-160 -5 -167 -5 -167 15
0 15 65 75 82 75 7 0 23 11 37 23 15 13 105 79 201 147 96 68 204 145 239 172
42 31 74 48 92 48 22 0 29 5 29 19 0 25 45 61 76 61 12 0 30 8 40 17 11 11 31
17 58 16 l41 -2 -39 13 -39 12 37 31 c32 26 44 30 84 27 26 -2 38 -1 27 2 -38
11 -38 23 -1 44 20 12 36 25 36 30 0 4 17 19 38 34 33 23 48 26 117 26 92 0
94 8 4 18 l-64 8 32 17 c20 11 55 17 94 17 50 0 60 3 56 15 -4 8 -2 17 3 20 6
4 10 -3 10 -13 0 -24 34 -32 131 -32 38 0 69 -4 69 -8 0 -13 -47 -32 -78 -33
-24 0 -25 -1 -7 -9 28 -12 203 -12 210 0 4 6 -10 10 -34 10 -43 0 -53 13 -23
29 12 6 42 7 83 1 35 -5 70 -10 77 -10 28 0 1 -18 -37 -24 -30 -5 -40 -11 -45
-31 -4 -14 -20 -32 -39 -41 -17 -9 -50 -33 -72 -54 -37 -35 -228 -188 -454
-365 -49 -38 -94 -79 -100 -92 -6 -13 -17 -23 -25 -23 -17 0 -106 -90 -106
-107 0 -22 20 -15 63 22 243 202 599 490 735 593 l95 74 71 -7 c51 -4 67 -3
56 4 -8 6 -26 11 -40 11 -44 1 -55 16 -21 30 17 6 35 18 41 25 8 10 46 11 160
7 95 -3 150 -1 150 5 0 20 -53 33 -135 33 -47 0 -85 4 -85 9 0 16 31 20 115
16 44 -2 92 -4 108 -4 16 -1 27 -7 27 -15 0 -8 4 -18 10 -21 6 -3 7 1 4 9 -3
9 -1 16 5 16 7 0 14 -7 17 -15 7 -18 94 -21 111 -4 7 7 15 2 27 -16 21 -33 30
-24 -152 -137 -74 -46 -221 -140 -328 -210 -168 -110 -194 -131 -194 -153 l0
-25 38 20 c20 11 84 54 142 96 58 41 118 82 134 92 27 16 94 59 201 127 28 18
97 63 155 101 116 76 123 77 290 62 63 -5 69 -5 38 5 -71 20 -42 30 70 23 59
-4 109 -10 112 -13 3 -2 -3 -9 -13 -14 -9 -6 -17 -16 -17 -23 0 -7 -18 -26
-40 -41 -22 -15 -57 -47 -79 -70 -42 -46 -100 -88 -462 -343 -140 -97 -155
-110 -141 -124 8 -8 42 11 124 66 329 224 688 490 688 511 0 22 47 29 115 16
34 -6 75 -11 90 -11 35 0 95 -28 95 -45 0 -13 -197 -211 -280 -281 -81 -69
-210 -198 -210 -211 0 -25 26 -13 70 33 25 25 88 82 140 127 52 45 151 131
220 192 69 61 136 118 150 126 28 18 128 18 200 1 25 -6 77 -13 115 -17 102
-10 135 -22 135 -50 0 -13 -16 -42 -35 -65 -19 -23 -35 -45 -35 -49 0 -4 -14
-15 -30 -25 -43 -25 -138 -122 -180 -184 -19 -28 -45 -55 -57 -61 -29 -13 -31
-51 -4 -51 12 0 29 15 43 39 31 52 340 341 364 341 4 0 17 9 28 19 29 27 38
27 161 8 141 -23 201 -41 303 -93 80 -42 82 -42 82 -20 0 28 -65 66 -166 97
-38 11 -87 31 -109 44 -22 12 -66 28 -97 35 -32 7 -58 17 -58 21 0 5 44 40 98
79 130 94 136 99 130 105 -13 14 -132 -44 -220 -107 l-97 -69 -108 15 c-59 8
-147 20 -196 26 -116 14 -141 24 -128 49 11 19 37 37 396 266 110 70 279 179
375 243 96 64 176 117 178 118 2 1 2 14 0 28 -3 26 -8 23 -183 -94 -98 -66
-188 -129 -200 -139 -21 -19 -173 -117 -440 -284 -237 -148 -228 -144 -266
-130 -21 8 -37 9 -44 3 -10 -8 -174 4 -214 16 -21 7 12 38 93 89 35 22 149 96
252 165 104 69 278 182 387 250 131 82 194 127 187 134 -13 13 -60 -10 -168
-80 -46 -30 -111 -68 -144 -85 -63 -32 -264 -164 -491 -321 -70 -49 -151 -100
-180 -113 -49 -23 -58 -24 -142 -15 -50 5 -99 10 -110 10 -19 0 -19 0 0 19 23
22 430 302 466 321 13 7 60 36 104 65 44 29 92 60 108 69 29 18 36 36 13 36
-26 0 -131 -52 -161 -80 -32 -30 -207 -145 -265 -175 -19 -9 -48 -30 -65 -45
-16 -15 -86 -63 -154 -106 l-124 -78 -107 0 c-101 0 -107 -1 -102 -19 4 -16 1
-18 -19 -12 -13 4 -37 7 -54 7 -36 -1 -65 6 -65 18 0 4 25 7 56 6 30 -1 57 2
60 5 5 9 -58 16 -207 25 -117 6 -143 15 -119 37 8 8 116 78 240 154 411 255
492 313 437 313 -7 0 -68 -34 -137 -76 -69 -42 -152 -92 -184 -111 -33 -18
-64 -40 -70 -47 -23 -28 -305 -203 -380 -237 -35 -15 -50 -17 -71 -9 -14 5
-37 10 -50 10 -13 0 -26 4 -29 8 -15 24 675 465 1016 650 43 24 127 74 188
112 61 38 124 77 140 85 36 18 30 40 -8 30 -14 -3 -96 -48 -181 -100 -86 -51
-313 -187 -506 -301 -192 -114 -372 -224 -400 -245 -27 -21 -120 -81 -205
-134 l-155 -97 -60 6 c-33 4 -97 10 -143 13 -45 3 -85 10 -88 15 -3 5 5 20 18
33 12 13 29 30 36 39 45 56 975 637 1281 800 184 99 312 177 306 187 -11 17
-51 9 -96 -20 -95 -60 -249 -150 -394 -231 -82 -46 -242 -139 -355 -208 -113
-68 -227 -138 -255 -155 -27 -17 -79 -47 -115 -67 -99 -56 -270 -173 -415
-283 l-130 -99 -100 6 c-55 4 -151 9 -213 13 -77 4 -112 9 -109 17 6 18 331
230 472 307 44 24 170 98 280 165 239 144 545 321 582 335 15 6 79 41 143 78
63 38 140 81 170 96 76 39 111 65 105 76 -10 16 -32 10 -92 -25 -138 -79 -403
-226 -409 -226 -10 0 -342 -189 -433 -246 -47 -30 -88 -54 -92 -54 -12 0 -194
-107 -298 -175 -54 -35 -109 -69 -123 -74 -14 -5 -75 -43 -136 -83 -261 -174
-263 -175 -365 -182 -51 -4 -123 -2 -162 3 -38 6 -117 11 -175 11 -103 0 -150
6 -150 19 0 3 20 31 45 61 25 30 40 57 34 59 -11 3 -117 -59 -162 -96 -27 -22
-37 -23 -163 -23 -91 0 -134 -4 -134 -11 0 -7 -7 -8 -17 -4 -10 4 -58 10 -107
14 l-90 6 140 101 c138 100 263 183 359 238 28 16 115 71 195 121 80 51 231
140 335 200 105 59 210 122 235 139 57 39 167 100 345 190 77 40 158 84 181
98 22 14 95 54 162 87 121 61 150 81 114 81 -55 0 -683 -320 -800 -408 -19
-13 -131 -82 -250 -152 -479 -281 -804 -489 -980 -626 l-94 -74 -136 1 c-76 0
-145 4 -155 8 -18 6 -18 7 0 22 28 25 416 297 538 379 61 40 169 115 240 165
163 116 406 275 465 305 123 61 410 224 410 231 0 19 -32 6 -235 -97 -175 -88
-255 -137 -480 -291 -148 -101 -308 -209 -355 -240 -47 -31 -110 -75 -141 -99
-31 -23 -110 -79 -177 -123 -66 -44 -174 -120 -240 -169 l-119 -89 -192 -7
c-193 -7 -401 1 -401 14 0 7 248 183 366 260 29 19 104 71 166 116 172 123
344 231 578 361 69 39 223 136 343 217 192 130 234 166 195 166 -12 0 -214
-123 -318 -195 -41 -28 -154 -97 -250 -154 -313 -185 -513 -312 -645 -410 -71
-54 -157 -115 -190 -137 -33 -22 -121 -83 -195 -134 -123 -86 -140 -95 -185
-97 -99 -4 -548 -2 -556 2 -4 3 -3 20 3 38 9 29 5 41 -41 127 -31 57 -74 117
-106 150 -34 34 -55 64 -55 78 0 19 -5 22 -41 22 -23 0 -78 11 -123 25 -44 13
-112 29 -151 35 -91 15 -308 3 -406 -21 -104 -25 -239 -81 -306 -126 -30 -21
-70 -46 -88 -56 -50 -27 -152 -146 -201 -234 -25 -44 -34 -52 -66 -57 -35 -6
-103 -1 -137 10 -10 3 -1 14 25 31 21 14 68 51 104 82 36 31 83 70 105 86 125
91 331 285 304 285 -21 0 -90 -50 -165 -120 -34 -31 -90 -79 -125 -105 -35
-27 -96 -77 -135 -110 -39 -33 -103 -83 -142 -111 l-71 -52 -433 9 c-238 4
-613 8 -833 8 -431 0 -490 2 -506 18 -7 7 25 40 107 109 65 55 174 150 243
213 284 257 547 455 1051 791 52 35 137 95 188 133 146 108 361 239 555 338
97 49 177 94 177 99 0 22 -43 6 -191 -67 -205 -103 -384 -212 -582 -355 -89
-64 -256 -180 -372 -259 -115 -78 -254 -174 -309 -213 -115 -83 -406 -318
-521 -421 -44 -39 -155 -137 -247 -218 l-167 -147 -86 -6 c-48 -4 -85 -3 -85
2 0 5 53 56 117 114 64 58 174 158 245 222 70 64 167 148 215 185 47 37 118
96 157 130 139 119 891 634 948 648 15 4 32 13 39 21 6 8 17 14 23 14 22 1 49
29 42 45 -5 14 -19 10 -94 -30 -223 -121 -791 -516 -1068 -743 -106 -86 -298
-254 -429 -372 -130 -118 -250 -221 -267 -228 -17 -7 -42 -12 -55 -10 -21 3
-6 20 119 135 182 168 398 339 893 707 55 41 141 108 190 150 50 41 144 114
210 160 66 47 158 112 204 146 88 64 450 282 507 306 51 21 129 73 129 86 0
23 -22 17 -110 -31z m1220 -1231 c87 -7 255 -47 272 -64 7 -7 -163 -174 -241
-236 -31 -25 -80 -65 -109 -89 -28 -24 -65 -48 -82 -55 -21 -8 -137 -10 -382
-8 -345 3 -353 3 -353 23 0 12 10 23 25 29 28 11 31 20 13 38 -13 13 -15 11
98 125 68 68 213 151 319 182 33 9 69 20 80 25 28 11 136 30 168 30 14 0 29 5
33 11 4 6 17 8 33 4 14 -3 71 -10 126 -15z m410 -155 c39 -34 59 -61 76 -103
13 -31 29 -68 36 -82 24 -47 17 -74 -29 -100 -41 -23 -41 -23 -301 -16 -144 3
-263 8 -265 11 -8 8 18 34 82 82 34 26 98 78 144 117 81 69 177 136 195 136 5
0 33 -20 62 -45z m-2253 -329 c296 -1 541 -6 545 -9 4 -4 -8 -22 -25 -40 -54
-55 -36 -79 22 -30 17 14 52 36 78 48 47 22 50 22 510 17 255 -2 467 -8 472
-13 6 -5 2 -16 -8 -28 -10 -11 -15 -25 -11 -30 8 -14 35 0 91 45 l40 33 627 6
c406 4 627 2 627 -4 0 -6 -21 -25 -47 -42 -25 -18 -70 -53 -98 -79 l-52 -47
-229 -7 c-126 -4 -265 -11 -309 -16 -208 -24 -307 -31 -347 -25 -24 4 -73 1
-108 -6 -89 -17 -322 -12 -333 7 -7 12 -12 12 -36 0 -20 -11 -100 -17 -327
-23 -164 -4 -346 -8 -404 -7 -121 1 -233 24 -264 53 -26 25 -39 26 -69 6 -13
-8 -44 -14 -73 -14 -91 1 -307 2 -565 0 -141 0 -280 3 -309 9 -29 5 -103 10
-164 10 -61 0 -140 5 -176 11 -36 5 -92 12 -125 15 -33 2 -78 9 -100 14 -22 5
-47 9 -55 9 -8 1 -42 5 -75 11 -33 5 -97 14 -142 19 -119 13 -125 19 -66 68
l48 41 414 1 c228 1 416 3 418 5 2 2 23 1 46 -1 23 -2 284 -5 579 -7z m3668 6
c0 -5 -35 -39 -77 -77 l-77 -68 -75 7 c-58 5 -78 3 -90 -9 -12 -10 -51 -15
-136 -19 -66 -2 -127 -5 -135 -7 -8 -1 -66 -1 -129 -1 l-114 2 23 25 c13 14
63 52 111 85 l86 59 124 4 c286 7 489 6 489 -1z m311 -13 c20 -10 20 -11 2
-31 -10 -11 -37 -33 -60 -49 -39 -28 -48 -29 -187 -35 -86 -4 -146 -3 -146 2
1 5 33 35 73 67 l72 57 113 0 c62 0 122 -5 133 -11z m487 4 c39 -3 72 -8 72
-12 0 -3 -30 -25 -66 -49 l-66 -44 -219 -2 c-120 -1 -219 1 -219 5 0 9 62 59
110 88 32 20 48 22 175 21 77 -1 173 -4 213 -7z m606 -11 c189 -7 210 -14 159
-48 -20 -13 -56 -21 -123 -26 -52 -4 -126 -11 -165 -15 -38 -5 -159 -6 -267
-3 l-198 5 93 52 92 53 115 -6 c63 -3 196 -9 294 -12z m-6767 -15 c-32 -48
-113 -70 -174 -46 -15 6 -56 12 -91 13 -34 1 -68 8 -74 14 -9 9 -6 12 15 12
15 0 27 4 27 9 0 12 44 16 193 17 116 1 118 1 104 -19z m153 16 c0 -4 -17 -22
-37 -40 -36 -32 -94 -45 -107 -25 -10 16 76 72 111 72 18 0 33 -3 33 -7z
m7225 -22 c77 -3 130 -10 129 -16 -1 -5 -15 -18 -32 -28 -28 -16 -50 -17 -266
-11 -129 4 -241 11 -247 15 -10 6 -9 12 5 28 22 24 70 30 191 24 50 -3 149 -8
220 -12z m-7800 -1 c4 -6 -11 -10 -37 -10 -31 0 -39 3 -28 10 20 13 57 13 65
0z m8180 -15 c134 -8 170 -14 155 -29 -13 -13 -380 -16 -380 -3 0 17 66 47 95
42 17 -2 75 -7 130 -10z m388 -31 c51 -10 19 -19 -67 -19 -50 0 -86 4 -86 10
-2 22 62 26 153 9z m-8335 -30 c39 -4 72 -10 72 -14 0 -4 -18 -21 -41 -40
-128 -102 -200 -190 -158 -190 6 0 61 48 122 106 131 126 149 138 182 130 34
-9 31 -26 -10 -66 -19 -19 -35 -40 -35 -47 0 -25 26 -13 70 33 59 61 78 67
154 53 33 -7 95 -11 136 -10 42 1 105 -5 140 -13 36 -9 80 -16 98 -16 39 0 41
-12 6 -39 -23 -18 -28 -19 -47 -6 -17 12 -25 12 -55 -1 -20 -8 -88 -17 -163
-21 -115 -5 -145 -12 -121 -26 4 -3 63 -1 132 4 159 11 271 3 277 -20 5 -19
55 -26 171 -24 60 1 72 -2 68 -13 -9 -23 20 -28 97 -15 44 7 77 18 85 28 11
16 12 16 12 0 0 -15 11 -17 79 -17 109 0 141 -8 152 -37 8 -22 13 -24 37 -17
15 4 70 8 122 9 126 2 126 2 147 24 24 25 50 30 173 32 70 1 105 -2 108 -10 3
-8 -29 -11 -107 -11 -60 0 -112 -4 -115 -8 -3 -5 59 -12 137 -15 208 -10 337
-9 337 3 0 10 -12 13 -59 14 -13 1 -26 7 -28 14 -4 9 13 12 61 12 37 0 66 4
66 10 0 6 -18 10 -39 10 -46 0 -73 9 -65 21 14 23 134 0 134 -26 0 -15 33 -25
50 -15 8 5 7 9 -6 14 -11 4 -14 10 -8 16 12 12 134 1 134 -11 0 -5 -7 -9 -15
-9 -9 0 -18 -7 -21 -15 -4 -8 -15 -15 -25 -15 -11 0 -22 -7 -25 -15 -5 -11
-10 -13 -19 -5 -7 6 -21 7 -35 2 -21 -8 -21 -8 7 -21 l28 -13 -28 -14 c-15 -8
-25 -19 -22 -24 10 -16 34 -11 53 11 25 30 66 49 90 42 12 -3 22 -6 22 -7 0 0
-9 -25 -20 -54 -18 -48 -19 -57 -7 -81 8 -16 12 -42 10 -58 -6 -41 19 -87 58
-106 55 -26 84 4 49 53 -11 15 -20 33 -20 39 0 19 27 12 43 -11 l16 -23 0 25
c1 33 17 14 25 -31 5 -26 2 -40 -9 -49 -12 -10 -13 -16 -4 -26 15 -18 -7 -47
-152 -195 l-114 -116 -135 4 c-74 2 -148 8 -164 14 -16 5 -58 9 -93 9 -35 0
-94 4 -131 10 -37 5 -116 14 -177 20 -60 6 -161 17 -223 24 -62 8 -121 12
-130 9 -10 -2 -110 5 -222 16 -113 11 -250 23 -305 26 -55 3 -122 10 -150 16
-48 9 -155 22 -335 39 -47 4 -119 13 -160 20 -41 6 -93 13 -115 15 -22 2 -71
8 -110 13 -38 6 -135 20 -215 32 -179 25 -183 26 -171 48 6 9 55 63 110 120
99 102 122 135 104 153 -11 11 -161 -141 -218 -220 -49 -68 -60 -68 -292 -9
-46 11 -83 24 -83 27 0 10 198 192 294 270 50 40 133 112 185 160 52 47 103
92 115 99 21 13 58 12 234 -4z m8472 6 c0 -5 -9 -10 -19 -10 -11 0 -23 5 -26
10 -4 6 5 10 19 10 14 0 26 -4 26 -10z m60 0 c0 -5 -9 -10 -20 -10 -11 0 -20
5 -20 10 0 6 9 10 20 10 11 0 20 -4 20 -10z m120 -10 c12 -8 11 -10 -7 -10
-13 0 -23 5 -23 10 0 13 11 13 30 0z m-50 -10 c0 -5 -2 -10 -4 -10 -3 0 -8 5
-11 10 -3 6 -1 10 4 10 6 0 11 -4 11 -10z m-1385 -10 c3 -6 -1 -13 -9 -16 -22
-8 -68 4 -61 16 8 13 62 13 70 0z m185 6 c0 -3 -4 -8 -10 -11 -5 -3 -10 -1
-10 4 0 6 5 11 10 11 6 0 10 -2 10 -4z m90 -12 c0 -8 -5 -12 -10 -9 -6 4 -8
11 -5 16 9 14 15 11 15 -7z m255 6 c4 -6 -5 -10 -20 -10 -15 0 -24 4 -20 10 3
6 12 10 20 10 8 0 17 -4 20 -10z m-395 -10 c0 -5 -7 -7 -15 -4 -8 4 -15 8 -15
10 0 2 7 4 15 4 8 0 15 -4 15 -10z m90 0 c0 -5 -2 -10 -4 -10 -3 0 -8 5 -11
10 -3 6 -1 10 4 10 6 0 11 -4 11 -10z m77 -12 c-3 -8 -6 -5 -6 6 -1 11 2 17 5
13 3 -3 4 -12 1 -19z m310 1 c-8 -5 -24 -6 -34 -2 -16 6 -15 8 7 13 31 8 48 0
27 -11z m159 6 c-22 -16 -46 -20 -46 -7 0 15 13 22 39 22 25 -1 25 -1 7 -15z
m171 9 c41 -11 13 -24 -50 -24 -57 1 -60 2 -43 15 21 16 56 19 93 9z m97 -3
c3 -5 -1 -12 -10 -15 -27 -10 -44 -7 -44 9 0 16 45 21 54 6z m-1929 -31 c-3
-5 -10 -10 -16 -10 -5 0 -9 5 -9 10 0 6 7 10 16 10 8 0 12 -4 9 -10z m-185
-10 c-20 -13 -57 -13 -65 0 -4 6 11 10 37 10 31 0 39 -3 28 -10z m1980 -10
c12 -8 9 -10 -13 -10 -16 0 -26 4 -22 10 8 12 16 12 35 0z m-1356 -6 c33 -13
14 -24 -39 -24 -30 0 -55 4 -55 9 0 16 64 26 94 15z m704 -6 c-7 -21 -112 -30
-273 -23 -82 3 -166 5 -185 5 -50 -1 -25 18 30 23 25 2 132 4 238 5 151 2 193
-1 190 -10z m-508 -8 c0 -5 -4 -10 -10 -10 -5 0 -10 5 -10 10 0 6 5 10 10 10
6 0 10 -4 10 -10z m-6040 -10 c0 -5 -4 -10 -10 -10 -5 0 -10 5 -10 10 0 6 5
10 10 10 6 0 10 -4 10 -10z m265 0 c4 -6 -15 -10 -49 -10 -31 0 -56 5 -56 10
0 6 22 10 49 10 28 0 53 -4 56 -10z m4858 -10 c30 0 46 -4 42 -10 -4 -6 -91
-10 -228 -10 -132 0 -217 4 -211 9 18 17 50 20 199 16 83 -3 172 -5 198 -5z
m822 -13 c149 -6 325 -11 393 -11 109 0 122 -2 122 -18 0 -23 -37 -42 -75 -39
-23 1 -27 -1 -17 -11 17 -17 15 -23 -14 -36 -16 -8 -46 -10 -81 -5 -41 4 -54
3 -49 -5 4 -7 23 -12 42 -12 44 0 41 -18 -6 -42 -36 -19 -55 -18 -300 7 -193
21 -340 27 -340 15 0 -13 -12 -11 130 -21 119 -8 233 -18 383 -35 43 -4 65
-10 58 -17 -6 -6 -39 -5 -92 2 -103 14 -181 14 -158 1 9 -5 60 -12 113 -16
102 -7 110 -13 62 -48 -20 -15 -43 -21 -82 -21 -53 0 -71 -17 -25 -23 30 -5
22 -22 -26 -52 -22 -14 -70 -47 -108 -75 -191 -141 -240 -175 -363 -254 -73
-47 -143 -92 -155 -98 -37 -21 -454 -14 -445 7 5 10 155 139 233 200 145 111
247 202 237 212 -14 14 -42 -3 -150 -89 -51 -40 -108 -83 -127 -94 -19 -11
-37 -29 -40 -39 -3 -10 -22 -26 -43 -35 -20 -10 -59 -39 -87 -64 -27 -26 -66
-59 -85 -73 l-36 -27 -302 -2 c-167 -1 -306 1 -309 5 -11 11 39 56 136 124 52
37 178 136 280 220 103 85 198 160 214 166 32 12 34 22 9 35 -35 19 -107 -14
-122 -55 -5 -13 -33 -41 -62 -64 -29 -22 -75 -58 -103 -80 -96 -77 -213 -160
-224 -160 -6 0 -21 -14 -33 -31 -13 -17 -66 -64 -119 -103 l-95 -73 -167 -1
c-92 -1 -177 2 -188 7 -19 6 -6 20 108 118 161 138 269 240 261 248 -10 11
-89 -45 -178 -125 -130 -117 -256 -219 -284 -230 -35 -13 -151 3 -196 27 -29
15 -66 19 -225 23 -104 3 -196 9 -202 13 -7 5 -13 18 -13 30 1 30 78 131 129
167 23 17 41 38 41 48 1 9 7 35 15 57 9 22 20 70 25 107 13 88 28 120 54 116
32 -5 31 -38 -3 -109 -17 -34 -31 -66 -31 -71 0 -18 49 17 58 41 33 94 44 135
40 156 -7 33 -2 38 72 75 55 28 71 32 114 26 36 -4 54 -2 65 9 81 74 76 73
240 84 184 13 311 14 311 2 0 -4 -81 -11 -180 -15 -186 -8 -251 -17 -217 -31
10 -4 66 -2 125 4 127 14 347 19 358 8 20 -20 -27 -27 -201 -31 -190 -4 -255
-12 -262 -33 -3 -7 10 -8 42 -2 41 8 440 23 553 21 23 -1 42 3 42 8 0 6 -17
10 -37 10 -48 0 -70 12 -51 27 13 10 144 18 242 15 42 -2 47 -4 36 -17 -8 -10
-32 -15 -69 -16 -89 -2 -120 -17 -37 -18 l70 -1 -34 -25 c-30 -22 -41 -25 -95
-19 -33 3 -71 1 -85 -4 -21 -9 -15 -11 37 -11 34 -1 64 -5 68 -10 6 -10 -26
-38 -153 -132 -81 -60 -102 -83 -88 -97 9 -9 32 6 168 108 149 113 178 130
221 130 42 0 57 15 24 24 l-22 5 20 21 c20 19 28 20 213 14 106 -4 192 -10
192 -14 0 -9 -46 -30 -65 -30 -8 0 -15 -9 -15 -20 0 -31 -61 -57 -95 -42 -19
9 -32 9 -47 1 -11 -6 -34 -8 -50 -5 -17 3 -48 3 -70 0 -77 -13 -21 -23 122
-23 80 0 269 0 420 -1 380 -1 574 1 579 6 14 13 -45 17 -391 24 -211 5 -384 9
-385 9 -2 1 -3 8 -3 16 0 12 15 15 73 15 50 0 67 3 57 10 -8 5 -27 10 -42 10
-16 0 -28 4 -28 10 0 17 37 30 87 31 26 1 59 5 73 9 20 6 14 8 -27 9 -29 1
-53 5 -53 9 0 15 49 32 93 33 31 1 36 3 19 7 -28 8 -30 24 -6 32 21 8 304 2
689 -13z m-1291 -2 c-21 -16 -126 -20 -235 -8 -100 10 -43 21 115 22 125 1
138 -1 120 -14z m-4279 -16 c5 -5 -11 -9 -43 -9 -43 0 -50 3 -45 16 4 12 14
14 42 9 20 -4 40 -11 46 -16z m3835 5 c0 -2 -9 -4 -21 -4 -11 0 -18 4 -14 10
5 8 35 3 35 -6z m105 6 c4 -6 -13 -10 -45 -10 -32 0 -49 4 -45 10 3 6 24 10
45 10 21 0 42 -4 45 -10z m-4097 -12 c-6 -17 -167 -33 -182 -18 -13 13 6 19
79 23 33 2 71 4 83 5 15 1 22 -3 20 -10z m327 2 c-7 -12 -42 -12 -70 0 -15 6
-8 9 28 9 30 1 46 -3 42 -9z m85 0 c0 -13 -20 -13 -40 0 -12 8 -9 10 13 10 15
0 27 -4 27 -10z m626 -12 c15 -16 -7 -19 -140 -22 -152 -3 -194 6 -118 26 26
6 251 3 258 -4z m-319 -12 c-3 -10 -170 -20 -195 -11 -33 12 5 21 98 21 68 1
100 -2 97 -10z m2671 -3 c-2 -13 -15 -19 -47 -21 -32 -2 -42 0 -39 10 4 11 24
18 81 27 5 0 7 -7 5 -16z m-2993 -3 c3 -5 0 -10 -7 -10 -7 0 -24 -3 -38 -7
-22 -6 -24 -5 -11 10 15 19 46 23 56 7z m63 1 c11 -6 10 -9 -5 -13 -23 -6 -45
1 -37 13 7 11 25 11 42 0z m2009 -5 c68 0 124 -5 125 -10 2 -5 -6 -10 -18 -12
-12 -2 -48 -18 -80 -37 -32 -18 -79 -41 -104 -51 -24 -10 -80 -41 -125 -70
-44 -29 -93 -58 -110 -63 -16 -6 -38 -14 -47 -18 -12 -5 -18 -2 -18 8 0 8 27
31 60 51 60 38 80 63 38 51 -13 -4 -40 -19 -61 -33 -30 -20 -42 -23 -55 -15
-27 17 -20 27 30 43 64 21 91 46 75 71 -16 25 -40 25 -32 0 7 -22 -39 -58 -51
-39 -5 8 -10 7 -18 -3 -27 -34 -88 -51 -102 -28 -6 10 45 59 63 61 4 0 20 9
35 19 14 10 28 19 31 19 3 0 28 15 55 34 48 32 54 34 119 29 37 -3 123 -6 190
-7z m2396 -3 c-20 -16 -423 -19 -423 -4 0 18 27 20 233 18 169 -2 204 -4 190
-14z m-4558 -3 c-3 -5 -15 -10 -25 -10 -10 0 -22 5 -25 10 -4 6 7 10 25 10 18
0 29 -4 25 -10z m1448 -4 c-1 -5 -21 -16 -45 -23 -84 -27 -118 -46 -118 -65 0
-22 4 -22 33 -4 28 18 127 31 127 16 0 -5 11 -10 24 -10 14 0 28 -4 31 -10 3
-5 18 -10 31 -10 33 0 27 -19 -16 -47 -36 -25 -93 -32 -84 -10 2 7 17 20 32
30 l27 17 -25 -3 c-16 -1 -24 3 -22 11 3 19 -20 14 -74 -14 -75 -39 -83 -49
-56 -74 12 -12 22 -30 22 -41 0 -14 13 -26 43 -39 38 -17 55 -18 150 -11 59 5
115 7 125 4 17 -4 42 -81 42 -130 0 -65 33 -86 153 -98 40 -5 57 -11 57 -21 0
-18 -28 -18 -127 1 -43 8 -92 12 -110 9 -30 -6 -38 -1 -87 50 -29 31 -60 56
-69 56 -8 0 -24 12 -34 26 l-19 25 -38 -33 c-22 -18 -50 -44 -64 -57 -25 -23
-26 -23 -39 -5 -25 35 -27 64 -4 104 11 21 21 40 21 44 0 11 -23 6 -41 -9 -15
-15 -17 -12 -24 42 -4 32 -11 66 -16 76 -6 9 -11 54 -12 98 -3 81 -2 82 28
101 24 14 46 18 105 16 41 -2 74 -7 73 -12z m127 -1 c0 -8 2 -15 4 -15 2 0 20
7 39 15 38 16 87 20 87 8 -1 -10 -120 -63 -141 -63 -9 0 -19 7 -23 15 -3 8
-15 15 -26 15 -27 0 -26 28 3 33 44 9 57 7 57 -8z m250 4 c0 -5 -20 -19 -45
-30 -25 -11 -45 -24 -45 -30 0 -12 -89 -53 -98 -45 -11 12 35 61 84 88 50 28
104 37 104 17z m567 3 c27 -8 19 -23 -24 -46 -42 -21 -43 -21 -43 12 0 43 13
49 67 34z m-2123 -28 c38 -14 -3 -24 -102 -24 -64 0 -102 4 -96 9 5 5 20 11
34 14 39 7 147 8 164 1z m846 -9 c0 -8 -7 -15 -15 -15 -16 0 -20 12 -8 23 11
12 23 8 23 -8z m-1070 -5 c0 -5 -9 -10 -20 -10 -11 0 -23 0 -27 -1 -4 0 -9 4
-11 10 -2 6 10 11 27 11 17 0 31 -4 31 -10z m2760 -15 c10 -13 9 -15 -9 -15
-12 0 -21 6 -21 15 0 8 4 15 9 15 5 0 14 -7 21 -15z m-521 -15 c38 0 13 -18
-39 -29 -25 -5 -56 -13 -69 -17 -38 -11 -21 17 25 43 25 14 42 19 48 13 6 -6
21 -10 35 -10z m164 3 l32 -18 -32 -3 c-34 -3 -73 12 -73 28 0 16 38 12 73 -7z
m-1323 -20 c0 -5 -6 -24 -13 -43 -8 -25 -17 -34 -29 -32 -22 4 -22 14 -3 52
14 27 45 42 45 23z m1508 1 c27 -8 29 -24 2 -24 -11 0 -20 -4 -20 -10 0 -5 15
-10 33 -10 19 0 36 -3 40 -6 9 -9 -3 -34 -17 -34 -7 0 -10 -15 -8 -44 5 -60
-25 -124 -78 -167 -101 -82 -102 -82 -111 -139 -11 -72 -84 -180 -146 -216
-59 -35 -147 -61 -213 -63 -30 -1 -84 -11 -119 -22 -73 -25 -128 -21 -191 11
-23 12 -66 25 -97 31 -99 19 -182 48 -194 70 -6 11 -23 25 -39 30 -30 11 -40
38 -40 109 0 22 -7 43 -15 50 -34 29 5 28 90 -2 96 -33 188 -46 380 -54 99 -5
128 -2 165 12 25 9 59 16 75 16 17 -1 54 4 84 10 47 10 54 10 63 -5 9 -16 12
-15 39 8 17 14 36 25 42 25 8 0 12 19 13 50 0 43 -2 50 -15 44 -9 -4 -36 -10
-61 -14 -25 -3 -64 -16 -87 -28 -23 -12 -49 -22 -56 -22 -8 0 -21 -7 -28 -16
-26 -31 -100 -56 -146 -49 -48 7 -53 15 -20 31 74 37 94 48 109 62 38 32 4 28
-69 -9 -82 -41 -102 -46 -120 -28 -6 6 -33 15 -59 20 -60 11 -74 24 -74 64 0
87 3 91 129 155 126 64 166 79 159 58 -3 -7 -37 -31 -76 -52 -40 -22 -72 -43
-72 -47 0 -11 23 -2 139 54 85 42 91 43 67 18 -14 -15 -26 -38 -26 -51 0 -13
-6 -31 -14 -39 -13 -15 -4 -16 102 -15 86 0 127 5 154 17 20 9 43 15 50 12 16
-6 32 4 46 30 5 11 49 40 97 64 62 31 85 47 81 58 -3 8 -6 19 -6 25 0 6 -7 8
-15 4 -17 -6 -18 -4 -9 18 6 16 41 21 82 10z m-121 -50 c11 -30 -31 -57 -97
-62 -75 -6 -99 10 -49 31 19 8 50 22 69 30 46 20 69 21 77 1z m-1357 -49 c0
-24 -4 -46 -9 -50 -15 -8 -18 6 -13 57 5 59 22 53 22 -7z m1190 36 c0 -16 -65
-39 -132 -46 -111 -11 -78 29 37 45 75 11 95 11 95 1z m-278 -16 c0 -5 -5 -11
-11 -13 -6 -2 -11 4 -11 13 0 9 5 15 11 13 6 -2 11 -8 11 -13z m-425 -6 c9 -9
8 -18 -4 -35 -12 -18 -24 -24 -54 -24 -52 0 -56 14 -12 44 42 29 54 31 70 15z
m-537 -55 c0 -22 -2 -24 -14 -14 -8 6 -12 18 -9 26 9 23 23 16 23 -12z m189
-314 c42 -70 149 -185 183 -196 21 -6 23 -17 5 -32 -10 -8 -33 -7 -88 3 -41 8
-152 18 -248 22 l-173 8 132 137 c72 76 135 136 140 133 4 -2 26 -36 49 -75z
m1101 -242 c-17 -29 -51 -94 -76 -144 -45 -91 -45 -92 -51 -222 l-6 -130 46
-94 c24 -51 50 -113 57 -138 19 -69 103 -222 172 -311 15 -20 28 -45 28 -55 0
-11 16 -39 35 -63 33 -41 37 -61 13 -61 -6 0 -54 -26 -107 -59 -155 -95 -302
-172 -337 -178 l-33 -5 12 31 c9 24 9 38 -2 64 -35 86 -79 332 -91 517 -4 58
-12 130 -18 160 -19 94 -35 270 -36 400 -1 69 -5 130 -9 137 -4 7 3 19 19 30
14 10 45 35 69 56 26 23 52 37 69 37 52 0 163 31 197 55 19 13 44 24 57 25 22
0 22 0 -8 -52z m150 23 c0 -5 -11 -23 -25 -39 -50 -59 -115 -177 -141 -255
-25 -76 -26 -82 -15 -171 11 -85 35 -167 75 -259 27 -63 4 -35 -33 40 -19 37
-41 75 -48 84 -7 9 -22 48 -33 88 -41 147 -4 330 98 483 23 35 28 38 73 38 27
0 49 -4 49 -9z m370 -14 c19 -10 54 -28 78 -40 l43 -23 -83 -58 c-46 -33 -110
-82 -142 -110 l-59 -50 -64 17 c-36 9 -69 14 -75 11 -15 -9 20 -42 58 -54 19
-7 34 -15 34 -19 0 -4 -13 -20 -30 -36 -53 -51 -32 -84 23 -35 19 16 40 30 45
30 26 0 34 -45 30 -159 -4 -100 -8 -123 -31 -167 -22 -44 -24 -53 -12 -65 16
-15 7 -65 -37 -198 -15 -46 -19 -76 -14 -111 4 -26 3 -55 0 -64 -6 -16 -7 -15
-19 1 -7 10 -35 61 -62 113 -28 52 -67 122 -87 154 -24 40 -36 72 -36 97 0 20
-12 70 -26 110 -93 269 -67 421 105 617 l56 63 135 -3 c103 -3 143 -8 170 -21z
m-4987 -19 c56 -23 84 -43 98 -69 7 -13 -4 -25 -54 -57 -77 -50 -139 -115
-200 -208 -55 -84 -62 -102 -71 -177 -7 -52 -13 -63 -61 -112 -29 -30 -68 -80
-86 -111 -59 -99 -170 -316 -204 -401 -19 -45 -39 -90 -44 -100 -32 -59 -56
-169 -86 -394 -8 -64 -24 -141 -34 -171 -11 -31 -24 -82 -31 -114 -6 -33 -20
-80 -31 -106 -10 -26 -19 -65 -19 -87 0 -39 -7 -81 -37 -213 -8 -37 -15 -84
-15 -105 -2 -101 12 -483 18 -506 7 -32 -10 -36 -57 -11 -25 12 -30 20 -25 39
3 13 2 26 -3 29 -5 3 -12 -6 -15 -20 -6 -23 -11 -25 -49 -22 l-42 3 1 40 c1
22 7 72 13 110 5 39 10 109 11 156 0 50 6 104 15 129 8 23 15 59 15 79 0 20
15 83 34 141 36 109 35 101 66 520 29 384 160 824 328 1104 82 135 120 221
140 318 17 78 50 150 95 208 29 37 106 87 166 107 82 28 100 28 164 1z m3147
6 c23 -8 -8 -24 -46 -24 -17 0 -51 -7 -74 -15 -23 -8 -52 -15 -63 -15 -19 0
-17 4 12 34 32 33 35 34 94 29 34 -2 69 -7 77 -9z m509 -18 c6 -7 18 -38 27
-67 9 -30 33 -95 54 -145 22 -53 41 -118 45 -155 4 -35 16 -84 27 -109 13 -28
22 -75 25 -125 5 -84 -9 -291 -21 -302 -15 -15 -19 15 -17 136 1 122 -1 137
-34 253 -35 120 -59 177 -110 267 -17 30 -25 60 -26 95 l-1 51 -19 -40 c-10
-22 -19 -50 -19 -62 0 -12 22 -64 49 -115 83 -159 131 -342 131 -502 0 -44 6
-104 14 -133 12 -45 12 -61 -4 -135 -45 -210 -78 -297 -145 -386 -18 -23 -44
-77 -57 -119 -22 -72 -27 -79 -91 -132 -183 -151 -223 -181 -237 -178 -13 2
-15 30 -14 187 0 189 16 340 55 528 25 123 24 200 -5 314 -27 105 -43 141
-122 269 -63 101 -77 135 -69 166 7 29 43 39 220 59 77 8 144 20 149 25 15 13
-22 37 -69 43 -49 7 -145 -7 -205 -29 -25 -10 -61 -21 -80 -25 -19 -5 -73 -18
-120 -29 -102 -25 -434 -71 -507 -71 -72 0 -102 14 -115 52 -7 18 -24 57 -40
87 -46 88 -34 99 122 107 121 7 217 27 281 60 28 14 53 23 57 20 3 -3 -44 -55
-104 -116 -60 -61 -109 -115 -109 -122 0 -36 41 -5 170 130 145 149 145 150
211 166 36 9 98 21 138 26 39 5 124 16 188 25 79 10 130 12 157 6 45 -10 138
5 161 25 18 18 44 18 59 0z m2623 -4 c6 -6 0 -19 -16 -35 -24 -24 -35 -57 -19
-57 4 0 34 21 66 47 l60 47 199 -1 c110 -1 202 -3 204 -6 11 -11 -7 -44 -29
-54 -39 -19 -127 -94 -127 -110 0 -29 61 -5 114 45 28 27 82 66 120 87 l69 38
166 -2 c91 -1 168 -5 171 -8 7 -7 0 -13 -375 -303 -130 -101 -223 -177 -307
-252 -42 -37 -85 -68 -97 -68 -27 0 -84 51 -114 103 -14 23 -37 53 -51 66 -48
45 -35 59 60 71 75 9 144 48 144 80 0 26 -25 36 -59 24 -16 -6 -72 -7 -140 -3
-63 5 -131 5 -150 1 -53 -11 -141 7 -141 29 0 27 -19 33 -41 13 -31 -28 -115
-30 -190 -5 -35 11 -107 26 -159 32 -103 13 -163 35 -168 60 -2 14 56 65 170
148 12 9 57 17 116 20 148 9 513 4 524 -7z m-2493 -8 c41 -12 57 -23 72 -49
14 -24 35 -39 67 -51 97 -36 116 -65 106 -162 -3 -31 0 -102 7 -157 7 -55 13
-125 14 -155 1 -30 7 -72 14 -94 7 -21 11 -58 9 -81 -3 -23 -1 -50 4 -59 5 -9
10 -51 12 -94 2 -42 8 -96 15 -119 6 -23 11 -74 12 -115 1 -57 7 -82 25 -115
14 -25 24 -58 24 -82 0 -22 5 -52 12 -67 11 -23 10 -28 -7 -41 -16 -12 -45
-14 -150 -11 -71 3 -165 2 -208 -1 -55 -4 -82 -2 -88 6 -7 8 0 49 21 125 17
62 37 141 45 176 8 35 19 72 25 82 5 10 10 37 10 60 0 22 7 57 16 78 13 28 18
82 21 222 5 172 4 189 -16 239 -12 30 -28 88 -36 129 -8 41 -28 103 -45 138
-34 70 -72 192 -64 205 7 13 23 11 83 -7z m1769 -6 c-7 -20 -131 -118 -150
-118 -9 0 -29 11 -45 24 -15 13 -48 33 -73 46 -55 28 -52 24 -44 44 5 14 27
16 161 16 119 0 154 -3 151 -12z m-4312 -33 c11 -8 41 -15 70 -15 45 0 58 -6
121 -52 39 -29 78 -65 87 -79 24 -40 51 -223 37 -257 -5 -15 -15 -63 -21 -107
-7 -48 -25 -110 -45 -155 -18 -41 -40 -92 -49 -113 -9 -22 -27 -52 -41 -69
-14 -16 -38 -71 -53 -120 -21 -72 -35 -98 -66 -129 -44 -44 -147 -99 -209
-110 -23 -4 -55 -11 -71 -15 -66 -16 -218 103 -266 208 -8 18 -39 68 -68 111
-50 73 -86 149 -76 160 2 2 -2 38 -10 79 -8 41 -12 92 -9 114 2 21 6 83 8 138
3 92 5 101 35 140 17 22 37 55 45 71 20 45 54 85 72 85 9 0 25 -8 35 -17 18
-16 21 -15 59 30 65 75 171 126 139 67 -17 -33 -12 -44 13 -26 39 29 106 60
113 53 4 -4 -2 -17 -14 -30 -51 -54 -16 -49 60 8 66 49 75 52 104 30z m4014
-45 c49 -33 92 -64 95 -70 8 -13 -57 -78 -139 -140 l-55 -42 -81 41 c-44 22
-96 43 -116 47 -39 7 -49 17 -37 38 9 16 224 185 236 186 4 0 48 -27 97 -60z
m-1340 35 c10 -12 10 -15 -4 -15 -9 0 -16 7 -16 15 0 8 2 15 4 15 2 0 9 -7 16
-15z m1545 -169 c31 -21 122 -44 205 -51 41 -3 89 -11 106 -16 30 -9 31 -11
23 -52 -4 -23 -8 -63 -9 -89 0 -67 -14 -72 -172 -64 -70 4 -146 13 -169 21
-23 8 -46 12 -52 8 -5 -3 -15 0 -21 8 -6 8 -44 30 -84 49 -49 23 -72 39 -70
50 2 8 41 45 87 82 88 70 118 81 156 54z m-3230 -52 c23 -15 96 -130 109 -172
6 -17 -1 -20 -75 -26 -44 -4 -100 -9 -123 -12 l-42 -6 -17 54 c-9 30 -17 62
-17 71 0 8 -11 29 -25 45 -45 53 -36 60 83 61 60 1 89 -3 107 -15z m2780 -35
c43 -19 75 -49 75 -72 0 -11 -17 -37 -37 -59 -37 -38 -135 -118 -145 -118 -3
0 -8 52 -11 116 -5 93 -3 122 9 145 16 32 7 33 109 -12z m855 -21 c0 -16 -3
-19 -11 -11 -6 6 -8 16 -5 22 11 17 16 13 16 -11z m-3869 -35 c40 -93 44 -126
25 -176 -24 -63 -83 -151 -144 -217 -63 -68 -68 -52 -7 23 25 31 45 60 45 66
0 21 -29 -2 -86 -70 -32 -39 -60 -66 -62 -60 -3 10 65 118 110 173 12 15 19
30 16 34 -15 14 -58 -32 -108 -116 -41 -67 -56 -85 -58 -69 -2 13 24 67 67
138 70 114 83 147 59 139 -11 -4 -51 -66 -122 -191 -32 -56 -45 -57 -22 -2 9
21 16 49 16 63 0 13 14 49 31 79 31 54 31 55 8 43 -13 -7 -35 -21 -48 -31 -26
-21 -76 -25 -87 -8 -12 20 18 58 80 100 34 23 70 50 81 60 22 20 140 68 168
69 12 0 24 -16 38 -47z m3959 -22 c0 -99 -2 -101 -71 -101 -55 0 -59 2 -65 26
-10 39 9 69 68 108 29 19 56 35 61 35 4 1 7 -30 7 -68z m337 56 c84 -1 153 -5
153 -8 0 -10 -162 -51 -202 -51 -27 0 -35 -4 -31 -14 3 -8 9 -14 13 -14 5 0
39 -37 76 -82 88 -106 145 -162 183 -177 28 -12 47 -38 36 -49 -12 -13 -77 32
-178 122 -101 90 -127 108 -127 88 0 -14 151 -156 203 -191 44 -30 56 -49 41
-64 -8 -8 -125 78 -206 152 -36 34 -69 61 -72 61 -3 0 -6 -9 -6 -20 0 -12 26
-40 70 -75 69 -55 84 -75 55 -75 -33 0 -250 155 -277 199 -18 28 -34 183 -21
204 3 5 35 6 72 3 36 -4 135 -8 218 -9z m-447 -21 c0 -3 -4 -8 -10 -11 -5 -3
-10 -1 -10 4 0 6 5 11 10 11 6 0 10 -2 10 -4z m-5308 -196 c-3 -92 9 -215 29
-292 5 -20 42 -86 82 -147 39 -60 87 -134 105 -164 21 -37 49 -67 85 -90 30
-20 58 -42 64 -49 14 -16 43 -97 43 -119 0 -9 12 -33 26 -54 14 -21 28 -55 31
-74 2 -20 16 -63 30 -95 22 -50 25 -69 20 -121 -5 -52 -2 -70 19 -115 23 -49
24 -62 22 -188 l-3 -135 -37 -19 c-36 -19 -37 -19 -78 2 -22 11 -42 26 -44 33
-29 110 -118 338 -157 402 -33 55 -129 158 -201 217 -26 21 -49 50 -52 65 -4
15 -19 46 -34 68 -23 36 -27 53 -33 175 -4 74 -11 155 -14 179 -6 39 -8 42
-22 29 -13 -13 -13 -26 -4 -86 6 -39 11 -115 11 -169 0 -54 5 -114 10 -134 16
-59 83 -148 132 -177 79 -46 98 -72 54 -72 -13 0 -53 -20 -89 -45 -68 -46
-128 -60 -154 -34 -7 7 -37 13 -68 15 -66 4 -168 42 -239 90 -74 50 -236 270
-251 341 -5 27 2 47 54 134 33 56 68 125 77 153 9 28 31 67 48 86 18 19 72 87
120 152 91 121 213 248 239 248 8 0 21 7 28 17 26 30 104 73 129 71 25 -3 25
-3 22 -98z m1734 -27 c13 -32 31 -65 40 -74 13 -14 6 -33 -61 -172 -75 -154
-76 -156 -102 -146 -42 16 -44 19 -27 50 27 52 56 180 64 281 9 107 12 118 41
118 14 0 26 -16 45 -57z m-109 0 c3 -16 1 -68 -5 -118 -9 -73 -20 -107 -57
-183 -51 -102 -115 -172 -257 -279 -40 -30 -74 -59 -76 -64 -8 -19 30 -7 82
26 l55 35 58 -26 c32 -14 78 -29 103 -32 42 -7 46 -11 72 -62 26 -50 29 -72
42 -247 10 -127 12 -213 6 -255 -5 -35 -14 -112 -20 -173 -15 -155 -31 -244
-49 -267 -14 -17 -20 -18 -46 -8 -19 7 -60 9 -115 5 -77 -6 -113 -2 -187 20
-39 12 -25 -11 18 -30 34 -16 65 -19 192 -18 84 1 161 3 172 5 17 3 21 -5 27
-57 14 -109 11 -355 -5 -470 -8 -60 -16 -139 -16 -175 -1 -36 -8 -100 -16
-143 -23 -120 -20 -165 12 -199 45 -47 26 -53 -141 -42 -80 5 -148 12 -151 16
-3 3 -6 129 -6 279 -1 352 16 499 56 499 18 0 20 14 3 28 -23 18 -186 82 -211
82 -13 0 -32 -9 -42 -20 -10 -11 -22 -20 -27 -20 -18 0 4 65 30 87 24 20 26
28 30 131 3 84 1 117 -10 139 -13 25 -13 64 -5 256 8 208 7 240 -13 383 -18
138 -27 170 -69 273 -52 124 -81 211 -102 304 -12 57 -12 60 31 188 23 72 49
133 56 136 7 3 25 -5 40 -16 15 -12 35 -21 46 -21 17 0 19 -5 14 -45 -3 -25
-8 -64 -11 -88 -7 -51 11 -141 30 -157 52 -43 252 139 339 308 14 27 22 33 39
28 12 -3 29 -1 37 4 26 16 39 11 47 -17z m-689 -369 c2 -10 33 -107 68 -214
56 -171 65 -210 74 -316 6 -67 15 -136 20 -155 13 -44 -15 -432 -35 -497 -6
-19 -3 -23 23 -28 27 -6 31 -10 35 -53 3 -33 -1 -55 -14 -79 -11 -18 -19 -42
-19 -53 0 -33 -39 -161 -54 -178 -8 -9 -18 -28 -21 -43 -8 -30 -32 -38 -41
-13 -3 8 -7 45 -9 82 -3 88 -23 143 -50 143 -26 0 -45 -18 -38 -36 3 -8 -1
-14 -11 -14 -23 0 -20 33 8 88 13 26 29 66 35 88 10 39 14 42 71 59 91 28 74
56 -21 36 -29 -6 -54 -9 -57 -7 -6 7 -15 465 -13 721 2 261 19 497 35 492 6
-2 13 -12 14 -23z m714 -62 c37 -10 84 -32 104 -47 39 -30 94 -109 94 -136 0
-9 13 -33 30 -54 16 -20 32 -54 35 -74 4 -20 13 -57 21 -83 8 -26 14 -59 14
-74 0 -15 7 -54 16 -85 9 -32 14 -65 11 -72 -8 -20 -45 -28 -61 -12 -7 7 -21
13 -32 12 -15 -2 -25 15 -49 85 -34 98 -98 202 -162 263 -24 23 -43 49 -43 58
0 26 -41 46 -126 63 -44 9 -86 23 -94 31 -13 13 -12 17 10 31 14 9 50 40 80
69 31 30 62 51 70 49 8 -2 45 -13 82 -24z m-779 -179 c-4 -161 -24 -305 -45
-330 -9 -11 -8 -26 1 -64 9 -34 13 -125 13 -272 l0 -222 -54 -130 c-55 -130
-117 -352 -138 -490 -5 -39 -19 -104 -30 -145 -11 -41 -20 -87 -20 -101 0 -14
-7 -34 -15 -45 -8 -10 -15 -29 -15 -41 0 -25 -54 -179 -69 -197 -22 -27 -81
-139 -81 -155 0 -15 -8 -17 -57 -14 -198 13 -252 22 -326 53 -42 17 -80 29
-85 26 -5 -3 -19 2 -32 11 -22 16 -22 19 -16 129 6 95 5 117 -9 137 -13 20
-14 33 -6 68 6 24 15 105 21 179 6 74 17 185 25 245 7 61 17 171 20 245 4 74
11 169 16 210 6 41 12 120 14 174 l4 100 63 63 c34 35 67 63 73 63 40 0 206
-339 220 -448 6 -48 5 -56 -17 -80 -14 -15 -48 -68 -76 -117 -28 -50 -62 -101
-76 -115 -31 -28 -33 -46 -7 -60 34 -18 73 -11 102 16 15 14 32 24 37 20 5 -3
13 -32 17 -63 8 -66 22 -98 66 -148 32 -36 60 -44 76 -22 5 6 28 61 52 121 39
99 43 116 39 175 -4 53 0 79 19 130 22 58 24 81 24 215 0 141 -1 152 -25 199
-21 39 -26 63 -26 119 0 59 -7 89 -39 172 -41 106 -61 176 -69 239 l-4 37 38
0 c22 0 74 12 116 26 66 22 88 35 151 95 41 37 80 83 87 101 39 97 48 72 43
-109z m-2024 -237 c28 -113 92 -204 179 -252 57 -31 73 -35 121 -32 l56 3 -2
-90 c-2 -49 -12 -135 -22 -190 -35 -178 -42 -229 -41 -290 0 -33 -2 -263 -5
-510 -4 -437 -5 -452 -26 -504 -22 -53 -23 -53 -58 -47 -20 4 -61 9 -91 12
-86 9 -87 10 -41 53 63 58 53 82 -15 36 -62 -42 -175 -29 -182 22 -5 34 33 53
87 43 50 -9 147 2 182 21 l24 12 -28 10 c-19 6 -41 5 -70 -5 -46 -14 -74 -11
-189 23 -73 22 -80 32 -52 74 13 20 14 30 4 57 -11 33 -35 424 -32 528 2 61
27 253 42 315 5 22 19 94 30 160 12 66 33 147 47 179 22 52 27 81 34 230 12
223 21 252 48 142z m496 -111 c58 -77 152 -175 170 -175 6 0 27 -11 47 -25 21
-14 54 -29 75 -33 36 -8 38 -10 37 -48 0 -21 -8 -75 -17 -119 -9 -44 -25 -132
-37 -195 -11 -63 -25 -140 -32 -170 -6 -30 -11 -68 -13 -85 -1 -16 -9 -57 -18
-90 -26 -98 -50 -292 -39 -323 5 -15 6 -37 1 -50 -5 -12 -6 -55 -4 -95 3 -40
7 -135 9 -211 l4 -139 -19 33 -20 32 -22 -19 c-31 -29 -101 -43 -207 -43 l-92
0 6 528 c7 588 8 610 67 935 5 32 7 88 3 125 -7 75 21 242 42 242 2 0 29 -34
59 -75z m2688 -142 c28 -43 45 -103 28 -103 -6 0 -11 9 -11 20 0 11 -5 20 -11
20 -7 0 -8 -23 -3 -69 9 -91 -4 -110 -26 -38 -10 31 -29 76 -44 101 -14 24
-26 49 -26 54 0 7 55 50 66 52 1 0 13 -17 27 -37z m-2095 -125 c17 -21 22
-178 7 -218 -8 -19 -16 -75 -19 -125 -15 -228 -25 -345 -35 -410 -17 -120 -31
-250 -31 -298 0 -25 -4 -48 -8 -51 -5 -3 -7 -42 -5 -88 5 -103 3 -260 -4 -270
-2 -5 -15 -8 -27 -8 -13 0 -29 -6 -35 -14 -10 -12 -19 -11 -61 5 -28 10 -70
19 -94 19 l-44 0 -7 153 c-11 262 -7 402 15 522 12 61 27 151 35 200 16 108
36 230 64 385 11 63 23 136 26 163 l6 47 103 0 c71 0 107 -4 114 -12z m921
-404 c12 -33 11 -39 -8 -63 -43 -54 -53 -82 -46 -127 7 -46 25 -60 67 -49 22
6 24 1 46 -88 24 -105 23 -117 -31 -224 -15 -28 -31 -72 -38 -99 -7 -27 -23
-70 -35 -96 -13 -26 -24 -61 -24 -77 0 -17 -11 -65 -25 -106 -14 -42 -29 -105
-32 -140 -7 -75 -7 -75 -131 -75 -100 0 -107 9 -65 77 32 53 50 108 113 348
22 88 45 174 51 191 11 37 58 249 69 314 15 91 59 250 69 250 4 0 13 -16 20
-36z m1700 17 c29 -53 21 -226 -9 -226 -26 0 -70 102 -70 161 0 48 3 55 28 68
35 20 39 19 51 -3z m-2082 -76 c47 -28 52 -45 28 -91 -8 -16 -15 -45 -15 -64
0 -19 -11 -57 -24 -85 -14 -27 -22 -53 -19 -58 7 -12 33 13 33 32 1 22 39 90
40 70 0 -27 -38 -142 -55 -166 -23 -32 -38 -29 -33 7 4 25 2 29 -13 25 -15 -5
-21 4 -34 52 -42 148 -47 154 -103 101 -77 -73 -98 -56 -42 34 22 34 46 77 53
93 27 59 72 72 79 23 3 -21 5 -20 25 15 12 20 25 37 29 37 4 0 27 -11 51 -25z
m3600 -159 c84 -41 98 -58 76 -100 -25 -48 -4 -97 79 -180 64 -64 118 -148
118 -183 0 -20 -12 -16 -85 33 -92 61 -104 66 -215 104 -106 36 -165 70 -172
97 -7 26 23 103 44 117 14 8 24 4 50 -21 54 -51 182 -135 187 -122 2 7 -5 18
-15 26 -150 106 -191 156 -179 216 13 59 15 59 112 13z m-2831 -63 l66 -27 -5
-36 c-3 -19 -13 -66 -22 -105 -24 -104 -31 -599 -10 -672 12 -40 20 -53 35
-53 10 0 21 -3 23 -8 3 -4 -61 -7 -141 -7 -81 0 -213 -4 -294 -9 -92 -6 -148
-6 -148 0 0 5 9 17 20 27 19 16 20 19 4 48 -10 21 -14 43 -10 68 8 44 50 175
82 256 13 33 24 65 24 71 0 11 28 85 56 149 7 17 19 52 26 78 9 34 22 56 45
73 18 14 41 41 51 60 17 32 104 114 123 114 5 0 38 -12 75 -27z m1912 -498 c2
-2 6 -39 9 -83 3 -69 2 -80 -16 -96 -20 -18 -23 -18 -67 -1 -27 10 -50 27 -56
40 -16 35 -1 94 33 128 25 24 35 28 61 23 17 -3 34 -8 36 -11z m-118 -191 c37
-21 52 -24 92 -19 44 6 49 5 57 -17 11 -30 3 -77 -17 -101 -15 -16 -36 -18
-278 -15 -144 2 -260 6 -257 11 2 4 12 7 21 8 9 0 82 36 162 79 80 43 152 79
160 79 8 0 35 -11 60 -25z m-4330 -133 c0 -9 -169 -26 -177 -17 -10 9 62 24
120 25 31 1 57 -3 57 -8z m1198 -26 c44 -11 20 -22 -60 -28 -190 -15 -259 -6
-238 33 5 10 22 20 37 22 28 3 218 -17 261 -27z m-374 -10 c17 -22 40 -38 66
-45 70 -19 61 -34 -16 -27 -38 4 -125 9 -194 13 -80 4 -133 11 -147 20 -45 28
-28 39 87 59 41 7 98 13 126 14 48 1 54 -2 78 -34z m-1269 5 c3 -5 -1 -10 -9
-10 -9 0 -16 5 -16 10 0 6 4 10 9 10 6 0 13 -4 16 -10z m5340 -10 c8 -13 -39
-24 -70 -16 -37 9 -21 26 25 26 21 0 42 -4 45 -10z m-2101 -8 c64 -12 57 -32
-11 -32 -83 0 -133 10 -133 26 0 15 74 18 144 6z m2211 -2 c-3 -5 -19 -10 -35
-10 -16 0 -32 5 -35 10 -4 6 10 10 35 10 25 0 39 -4 35 -10z m-4700 -10 c3 -5
-1 -10 -9 -10 -9 0 -16 5 -16 10 0 6 4 10 9 10 6 0 13 -4 16 -10z m2705 -10
c0 -18 -7 -20 -70 -20 -63 0 -70 2 -70 20 0 18 7 20 70 20 63 0 70 -2 70 -20z
m-2807 3 c-7 -2 -19 -2 -25 0 -7 3 -2 5 12 5 14 0 19 -2 13 -5z m1635 1 c29
-8 28 -24 -2 -24 -45 0 -88 12 -74 21 15 10 44 11 76 3z m-762 -29 c-22 -17
-101 -20 -111 -6 -5 9 27 15 105 19 24 1 24 1 6 -13z m4104 -16 c0 -5 -9 -9
-20 -9 -11 0 -20 6 -20 14 0 9 7 12 20 9 11 -3 20 -9 20 -14z m-80 1 c0 -5 -4
-10 -9 -10 -6 0 -13 5 -16 10 -3 6 1 10 9 10 9 0 16 -4 16 -10z"/>
<path d="M1989 4495 c-35 -31 -68 -64 -73 -73 -5 -10 -20 -29 -34 -44 -16 -17
-22 -33 -18 -44 5 -14 24 0 99 72 100 97 116 119 100 135 -7 7 -30 -7 -74 -46z"/>
<path d="M8275 4561 c-14 -6 1 -10 55 -14 140 -12 240 -14 240 -5 0 4 -30 9
-67 10 -116 3 -147 5 -178 11 -16 4 -39 3 -50 -2z"/>
<path d="M8787 4554 c-3 -4 -48 -6 -99 -5 -64 1 -88 -2 -78 -9 8 -5 39 -10 68
-10 53 0 69 -13 31 -25 -11 -4 -42 -4 -70 0 -29 4 -49 3 -49 -3 0 -10 78 -22
143 -22 39 0 45 7 25 29 -11 10 1 12 62 11 135 -5 230 0 230 10 0 6 -41 10
-104 10 -59 0 -108 4 -111 10 -7 11 -38 14 -48 4z"/>
<path d="M9080 4520 c-10 -7 6 -9 55 -9 64 1 66 2 30 10 -53 11 -67 11 -85 -1z"/>
<path d="M8215 4499 c29 -15 50 -18 75 -14 19 4 88 6 153 6 64 -1 117 3 117 7
0 10 -178 22 -305 22 l-80 -1 40 -20z"/>
<path d="M9040 4470 c0 -5 7 -10 15 -10 8 0 15 5 15 10 0 6 -7 10 -15 10 -8 0
-15 -4 -15 -10z"/>
<path d="M7758 4453 c7 -3 16 -2 19 1 4 3 -2 6 -13 5 -11 0 -14 -3 -6 -6z"/>
<path d="M8115 4451 c-3 -6 -5 -11 -3 -11 71 -9 334 -17 355 -11 20 6 -7 10
-92 15 -66 4 -136 6 -155 5 -19 -1 -49 1 -67 5 -19 4 -34 3 -38 -3z"/>
<path d="M8730 4370 c0 -5 14 -10 30 -10 17 0 30 5 30 10 0 6 -13 10 -30 10
-16 0 -30 -4 -30 -10z"/>
<path d="M8401 4304 c-34 -14 -34 -34 0 -34 24 0 59 17 59 29 0 17 -26 19 -59
5z"/>
<path d="M8128 4293 c12 -2 30 -2 40 0 9 3 -1 5 -23 4 -22 0 -30 -2 -17 -4z"/>
<path d="M8675 4280 c3 -5 15 -10 26 -10 11 0 17 5 14 10 -3 6 -15 10 -26 10
-11 0 -17 -4 -14 -10z"/>
<path d="M5345 4460 c-3 -5 1 -10 9 -10 9 0 16 5 16 10 0 6 -4 10 -9 10 -6 0
-13 -4 -16 -10z"/>
<path d="M5409 4173 c-13 -15 -12 -15 11 -3 34 17 36 20 18 20 -9 0 -22 -7
-29 -17z"/>
<path d="M5237 3876 c-46 -17 -54 -23 -41 -36 6 -6 28 -4 59 6 48 14 51 14 98
-11 40 -20 48 -22 45 -8 -9 46 -97 73 -161 49z"/>
<path d="M5892 3393 c-18 -7 -43 -59 -36 -76 7 -20 56 -40 85 -35 16 2 28 14
38 42 14 37 14 40 -8 57 -22 18 -52 23 -79 12z m74 -35 c9 -14 -23 -38 -52
-38 -29 0 -39 16 -24 35 15 18 66 20 76 3z"/>
<path d="M6005 3183 c16 -37 10 -57 -17 -67 -35 -12 -44 -3 -29 30 14 31 7 43
-17 28 -21 -14 -28 -74 -10 -85 25 -16 63 -9 91 16 31 30 33 42 11 73 -18 26
-39 30 -29 5z"/>
<path d="M5987 2973 c-13 -12 -7 -22 16 -25 14 -2 22 -10 22 -23 0 -14 -6 -20
-22 -19 -25 1 -27 -4 -14 -25 14 -22 58 -5 69 26 14 42 -1 73 -36 73 -16 0
-32 -3 -35 -7z"/>
<path d="M4905 3275 c-56 -55 -11 -116 60 -82 33 16 65 60 53 72 -3 3 -20 -8
-38 -25 -32 -29 -33 -30 -52 -13 -20 18 -20 18 1 32 22 14 29 41 11 41 -6 0
-22 -11 -35 -25z"/>
<path d="M4993 3004 c-17 -7 -39 -24 -47 -36 -20 -29 -21 -77 -1 -84 26 -11
101 32 114 65 21 49 -13 77 -66 55z m47 -40 c0 -16 -59 -46 -74 -37 -5 4 5 19
23 35 32 29 51 30 51 2z"/>
<path d="M4943 2664 c-31 -25 -32 -27 -16 -51 18 -27 46 -26 91 3 26 17 28 36
6 58 -22 22 -44 19 -81 -10z"/>
<path d="M2770 3270 c-15 -12 -41 -20 -63 -20 -27 0 -37 -4 -34 -12 10 -30
137 5 137 37 0 20 -10 19 -40 -5z"/>
<path d="M2150 3180 c0 -5 14 -17 31 -25 59 -31 228 -18 217 16 -4 13 -248 22
-248 9z"/>
<path d="M2670 3050 c-14 -4 -50 -9 -80 -9 -51 -2 -53 -3 -36 -16 28 -21 85
-19 124 5 46 29 43 36 -8 20z"/>
<path d="M2563 2763 c-34 -37 -42 -61 -32 -97 5 -17 11 -43 14 -58 3 -16 10
-28 15 -28 13 0 84 49 92 64 14 25 12 127 -3 137 -26 16 -60 9 -86 -18z"/>
<path d="M3450 6518 c-30 -23 -73 -53 -96 -67 -97 -61 -214 -141 -214 -147 0
-6 164 81 190 100 8 7 44 29 80 51 76 44 110 73 110 92 0 20 -11 16 -70 -29z"/>
<path d="M7425 6496 c-85 -49 -188 -118 -319 -213 -32 -24 -97 -66 -145 -95
-77 -46 -581 -380 -772 -511 -71 -49 -89 -77 -51 -77 20 0 121 64 172 109 63
55 500 355 784 538 61 39 137 89 169 110 59 39 162 94 236 126 33 15 41 24 39
40 -2 11 -7 22 -13 23 -5 1 -50 -21 -100 -50z"/>
<path d="M6170 6488 c-163 -73 -529 -315 -716 -473 -34 -28 -97 -77 -140 -108
-137 -98 -409 -322 -409 -337 0 -27 22 -16 107 53 119 97 312 247 537 420 212
163 365 265 506 341 117 63 173 98 179 114 7 17 -11 14 -64 -10z"/>
<path d="M5039 6437 c-117 -52 -357 -184 -444 -246 -44 -31 -154 -106 -245
-165 -91 -60 -199 -135 -240 -167 -176 -139 -269 -208 -325 -244 -55 -34 -370
-258 -388 -274 -12 -12 3 -41 22 -41 10 0 28 12 42 26 13 14 44 40 69 57 25
16 59 42 75 58 17 15 75 57 130 93 55 36 123 83 150 104 28 21 102 79 165 128
136 104 329 238 420 291 36 21 98 61 139 90 40 29 79 53 86 53 7 0 19 8 26 17
8 9 52 34 98 55 47 22 103 52 125 67 23 15 74 45 114 66 39 20 72 41 72 46 0
19 -21 16 -91 -14z"/>
<path d="M7855 6372 c-50 -27 -129 -71 -175 -99 -47 -27 -151 -87 -231 -131
-81 -45 -198 -113 -260 -150 -63 -38 -166 -97 -229 -132 -63 -35 -189 -112
-278 -172 -90 -60 -178 -116 -195 -125 -25 -12 -280 -198 -319 -232 -4 -3 -3
-12 1 -20 7 -11 36 6 127 71 239 170 456 307 774 486 63 35 162 93 220 127 58
35 124 73 147 86 24 13 94 54 155 91 62 38 172 101 243 141 117 66 150 95 120
103 -5 2 -51 -18 -100 -44z"/>
<path d="M3033 6228 c-4 -7 -17 -18 -27 -24 -11 -6 -22 -16 -24 -23 -2 -7 14
-1 37 14 22 15 38 31 35 36 -7 12 -12 11 -21 -3z"/>
<path d="M8140 6142 c-36 -21 -105 -65 -155 -97 -49 -32 -173 -109 -275 -170
-102 -61 -243 -150 -315 -196 -71 -47 -180 -115 -241 -152 -61 -37 -165 -104
-230 -150 -65 -46 -164 -113 -220 -150 -118 -79 -186 -135 -178 -148 11 -18
32 -8 95 42 78 63 375 262 639 429 191 121 775 486 905 565 60 37 83 65 52 65
-7 0 -41 -17 -77 -38z"/>
<path d="M10660 6131 c-58 -26 -128 -62 -156 -79 -55 -34 -337 -172 -352 -172
-5 0 -17 -9 -27 -20 -10 -11 -25 -20 -33 -20 -8 0 -35 -15 -61 -33 -25 -18
-109 -66 -186 -106 -258 -135 -419 -224 -575 -316 -85 -50 -198 -117 -250
-148 -133 -78 -240 -155 -240 -172 0 -23 12 -19 98 38 44 28 123 77 176 107
53 30 151 89 219 131 162 101 346 203 607 336 118 61 313 163 433 227 120 64
281 148 358 187 77 38 137 74 134 79 -11 17 -37 10 -145 -39z"/>
<path d="M6137 6114 c-15 -8 -63 -38 -107 -67 -43 -29 -118 -78 -167 -109 -48
-31 -145 -104 -215 -162 -70 -57 -165 -130 -210 -162 -93 -65 -238 -185 -238
-196 0 -20 40 -4 90 37 30 24 84 66 120 92 36 26 120 90 188 143 267 207 279
216 535 374 75 47 79 91 4 50z"/>
<path d="M2900 6105 c0 -9 6 -12 15 -9 8 4 15 10 15 15 0 5 -7 9 -15 9 -8 0
-15 -7 -15 -15z"/>
<path d="M4741 6094 c-35 -13 -70 -29 -77 -34 -14 -12 -146 -93 -264 -162 -47
-27 -128 -80 -180 -118 -52 -37 -114 -80 -138 -95 -33 -22 -40 -31 -31 -41 6
-8 16 -11 23 -7 6 4 90 59 187 124 164 108 313 199 483 295 38 21 71 45 74 52
5 16 -3 15 -77 -14z"/>
<path d="M4745 5923 c-76 -37 -186 -104 -219 -133 -16 -14 -52 -46 -80 -71
-28 -26 -65 -54 -83 -63 -18 -9 -37 -25 -43 -36 -6 -11 -16 -20 -23 -20 -15 0
-127 -98 -127 -111 0 -18 21 -9 48 20 15 16 50 41 77 55 72 38 144 89 195 139
52 51 159 123 242 162 61 29 94 58 83 74 -8 14 -10 13 -70 -16z"/>
<path d="M11765 5519 c-16 -10 -37 -19 -46 -19 -9 0 -86 -46 -172 -102 -86
-57 -199 -130 -252 -163 -82 -51 -109 -80 -84 -88 7 -2 384 222 522 310 53 34
97 67 97 73 0 16 -32 10 -65 -11z"/>
<path d="M4100 5438 c-63 -45 -100 -78 -100 -90 0 -13 22 -9 39 6 87 78 125
115 121 119 -3 2 -30 -14 -60 -35z"/>
<path d="M3943 5323 c-22 -15 -32 -43 -15 -43 5 0 21 14 37 30 31 32 17 41
-22 13z"/>
<path d="M10266 4611 c-6 -9 52 -21 94 -20 l25 1 -25 7 c-50 15 -89 20 -94 12z"/>
<path d="M9683 4583 c9 -2 25 -2 35 0 9 3 1 5 -18 5 -19 0 -27 -2 -17 -5z"/>
<path d="M9720 4490 c0 -5 5 -10 10 -10 6 0 10 5 10 10 0 6 -4 10 -10 10 -5 0
-10 -4 -10 -10z"/>
<path d="M9398 4353 c6 -2 18 -2 25 0 6 3 1 5 -13 5 -14 0 -19 -2 -12 -5z"/>
<path d="M9115 4250 c-3 -5 -1 -10 4 -10 6 0 11 5 11 10 0 6 -2 10 -4 10 -3 0
-8 -4 -11 -10z"/>
<path d="M12715 4039 c-38 -10 -121 -28 -184 -39 -63 -12 -118 -23 -122 -26
-4 -2 -57 -13 -116 -24 -107 -20 -231 -32 -518 -50 -82 -5 -165 -12 -182 -15
-75 -13 -289 -28 -438 -30 -88 -1 -182 -7 -210 -14 -27 -7 -86 -14 -130 -16
-117 -5 -332 -24 -360 -31 -14 -3 -25 -11 -25 -17 0 -14 357 -1 475 17 50 8
153 15 230 16 77 0 158 5 179 10 22 5 44 7 48 4 4 -3 11 2 14 10 3 9 11 13 18
9 14 -9 179 -5 311 8 85 8 196 15 305 20 95 4 322 34 410 54 58 14 155 36 215
51 61 14 122 28 138 31 20 4 27 11 27 29 0 13 -3 23 -7 23 -5 -1 -39 -10 -78
-20z"/>
<path d="M8755 3646 c-103 -34 -218 -87 -230 -107 -4 -6 -21 -19 -38 -29 -90
-55 -181 -187 -206 -301 -11 -50 -41 -79 -81 -79 -35 0 -90 -19 -112 -38 -25
-21 -23 -67 5 -92 12 -12 69 -44 127 -71 58 -28 118 -64 133 -81 16 -17 39
-60 52 -97 25 -67 48 -94 125 -145 19 -13 44 -33 54 -45 22 -24 36 -27 36 -8
0 15 -46 65 -136 148 -51 47 -63 64 -73 107 -7 28 -29 77 -48 109 -59 95 -70
134 -62 209 4 39 12 70 20 75 8 5 34 9 60 9 38 0 50 5 76 33 53 55 52 96 -3
142 -22 19 -23 22 -8 43 21 30 113 91 209 139 75 38 201 72 270 73 184 4 254
-21 431 -153 60 -44 93 -89 129 -178 24 -60 25 -66 14 -150 -6 -49 -9 -96 -5
-105 6 -16 8 -16 22 -2 11 11 18 43 21 100 6 92 -8 154 -53 237 -13 24 -24 50
-24 57 0 23 70 114 100 129 57 29 169 47 269 43 129 -5 201 -37 251 -109 19
-28 49 -70 66 -93 17 -23 41 -74 54 -112 30 -92 46 -123 85 -164 34 -36 73
-116 61 -127 -3 -3 -43 -9 -89 -13 -63 -5 -95 -13 -131 -33 -26 -14 -81 -35
-124 -47 -42 -12 -108 -39 -145 -61 l-68 -40 -63 59 c-79 74 -128 92 -247 92
-89 0 -275 -37 -331 -66 -15 -8 -31 -14 -35 -14 -5 0 -17 31 -27 70 -19 74
-34 95 -43 61 -9 -34 -26 -24 -19 12 19 107 19 115 -3 151 -12 19 -31 38 -41
41 -55 18 -64 75 -29 185 l21 66 -36 72 c-20 39 -40 72 -45 72 -12 0 0 -42 29
-101 l22 -46 -26 -77 c-40 -120 -34 -171 24 -201 37 -19 37 -30 0 -88 -28 -45
-32 -47 -75 -47 -45 0 -60 -12 -29 -24 30 -11 69 -6 99 14 17 11 33 20 38 20
4 0 7 -31 7 -69 0 -76 16 -97 51 -65 16 14 18 14 28 -5 13 -23 14 -51 3 -51
-4 0 -15 -13 -25 -29 -21 -36 -8 -47 30 -27 16 8 55 22 88 31 33 10 65 21 70
25 26 21 183 50 272 50 86 0 98 -2 148 -31 38 -22 63 -45 81 -75 44 -76 134
-295 156 -382 11 -46 27 -86 34 -89 9 -3 14 -21 14 -47 1 -22 7 -70 15 -106 8
-36 14 -111 15 -168 0 -57 5 -113 11 -124 28 -52 4 -452 -33 -563 -11 -33 -33
-104 -49 -158 -47 -156 -93 -231 -271 -432 -95 -108 -124 -125 -213 -125 -168
0 -327 -34 -431 -93 -68 -38 -123 -109 -151 -195 -11 -33 -29 -64 -47 -79 -29
-24 -35 -25 -131 -21 -55 3 -111 10 -123 17 -32 17 -79 120 -97 212 -24 128
-55 345 -61 431 -3 46 -10 95 -15 109 -8 19 -6 44 6 90 24 92 45 127 122 200
37 35 84 82 103 103 41 46 72 60 166 75 97 15 148 34 197 76 l42 36 175 4 c96
3 193 9 215 14 22 6 63 11 91 11 56 0 130 23 214 65 82 41 238 134 246 146 17
28 -16 17 -124 -38 -64 -33 -135 -66 -157 -73 -22 -6 -53 -18 -70 -25 -57 -25
-253 -46 -405 -43 -142 3 -145 3 -148 26 -2 12 11 48 29 80 18 31 36 75 40 97
4 22 14 74 22 115 38 185 48 415 17 415 -12 0 -16 -21 -22 -100 -4 -55 -14
-138 -23 -185 -9 -47 -21 -112 -26 -145 -5 -33 -16 -71 -23 -85 -7 -14 -17
-46 -20 -73 -9 -57 -49 -153 -79 -185 -34 -36 -91 -62 -175 -78 -43 -8 -92
-19 -110 -25 -48 -16 -125 -80 -158 -133 -49 -77 -79 -66 -50 18 9 26 16 55
16 65 0 44 30 88 84 124 67 45 102 95 110 162 40 302 55 439 50 446 -11 18
-35 8 -45 -18 -6 -15 -12 -82 -15 -148 -5 -131 -20 -268 -35 -327 -7 -29 -21
-45 -62 -72 -73 -49 -104 -84 -128 -147 -39 -102 -61 -191 -55 -221 4 -19 -1
-43 -12 -66 -38 -75 -44 -138 -28 -268 9 -65 20 -157 26 -204 10 -78 16 -119
40 -252 11 -61 75 -206 101 -227 19 -16 19 -16 -5 -52 -24 -35 -66 -58 -168
-89 -53 -16 -51 -43 5 -66 61 -26 372 -22 544 7 103 17 134 18 197 10 41 -6
88 -8 104 -5 16 3 45 -1 66 -10 36 -15 39 -15 76 9 50 31 64 58 56 106 -5 31
-3 39 13 44 11 3 24 12 31 20 16 19 37 114 54 244 16 124 23 141 68 170 18 11
65 55 103 97 39 43 93 100 122 127 29 27 55 59 59 71 4 11 21 46 40 76 18 30
56 125 83 210 55 172 86 359 86 515 0 148 -24 423 -47 525 -29 133 -85 317
-112 365 -12 22 -31 62 -40 88 -15 40 -16 53 -6 78 16 38 83 73 170 89 36 7
80 21 98 31 17 10 67 32 110 50 137 55 217 27 327 -116 85 -110 255 -468 285
-600 6 -26 19 -64 30 -86 11 -21 25 -73 30 -116 14 -99 18 -126 29 -188 23
-122 2 -327 -43 -414 -10 -18 -24 -51 -32 -74 -17 -48 -128 -215 -181 -273
-112 -123 -313 -288 -495 -409 -91 -60 -111 -93 -30 -50 26 14 52 25 59 25 7
0 20 -26 28 -58 9 -31 23 -77 31 -102 25 -76 56 -242 47 -251 -4 -4 -74 -9
-155 -11 -159 -4 -158 -4 -158 49 0 14 -9 60 -20 102 -10 42 -22 89 -25 104
-8 38 -48 77 -80 77 -15 0 -48 9 -75 21 -39 17 -53 30 -70 64 -11 24 -20 47
-19 51 3 21 -2 35 -11 29 -15 -9 -12 -72 4 -103 29 -56 112 -112 164 -112 15
0 25 -16 42 -62 25 -69 49 -191 50 -251 0 -34 -4 -40 -47 -68 -50 -31 -158
-69 -198 -69 -26 0 -37 -11 -27 -26 37 -51 324 -43 457 13 33 13 73 30 88 36
22 9 30 9 36 -1 5 -8 18 -11 32 -8 40 9 239 20 320 18 l76 -2 50 52 c105 112
105 125 0 237 -80 84 -154 216 -164 292 -5 38 -7 40 -19 24 -15 -20 -10 -83
11 -125 65 -136 86 -170 142 -231 34 -38 63 -77 63 -88 0 -19 -48 -86 -77
-109 -10 -6 -45 -12 -80 -12 l-63 0 6 40 c5 30 2 47 -12 67 -34 51 -74 170
-74 222 0 20 -7 63 -16 96 -8 33 -19 89 -23 125 -5 36 -12 76 -15 90 -6 23 5
37 114 134 113 102 241 247 287 326 11 19 40 80 63 135 23 55 48 111 55 125 7
14 23 71 35 126 22 100 22 103 6 195 -10 52 -19 114 -21 139 -5 80 -24 161
-44 194 -11 17 -29 74 -41 126 -31 130 -88 278 -149 382 -28 47 -51 89 -51 92
0 32 -172 228 -210 241 -8 3 -32 32 -53 66 -42 67 -43 63 23 98 88 47 206 32
270 -34 19 -20 47 -48 63 -62 49 -47 103 -126 127 -186 24 -60 80 -147 136
-210 19 -21 52 -75 73 -122 22 -46 51 -96 65 -109 63 -64 77 -94 118 -253 47
-185 53 -241 53 -463 l0 -165 -52 -118 c-29 -64 -71 -143 -93 -175 -131 -185
-164 -229 -231 -300 -120 -127 -131 -148 -130 -234 1 -58 7 -84 32 -138 37
-79 99 -244 106 -283 5 -25 -3 -37 -66 -95 -53 -50 -68 -71 -62 -81 8 -12 16
-9 45 16 l35 31 293 1 c333 0 548 0 693 -2 55 0 114 4 132 11 26 8 40 7 73 -5
32 -13 43 -14 53 -4 9 10 6 18 -18 36 -29 24 -32 24 -260 25 -176 0 -244 -4
-292 -16 -103 -26 -107 -16 -20 54 93 77 119 120 120 206 1 81 -18 223 -36
266 -14 33 -13 40 14 110 16 41 45 107 64 145 19 39 46 106 61 150 68 208 104
330 110 368 3 23 9 60 14 82 14 61 20 360 8 455 -18 151 -72 322 -125 402 -21
32 -26 51 -28 120 -4 94 -27 292 -49 418 -12 66 -29 112 -78 210 -67 133 -85
152 -160 172 -44 11 -52 10 -95 -11 -43 -21 -48 -21 -59 -7 -6 9 -14 34 -18
56 -10 63 -54 105 -132 126 -77 20 -131 12 -197 -32 -33 -22 -39 -23 -52 -10
-26 26 -129 69 -176 74 -34 3 -63 -3 -114 -23 l-69 -28 -15 24 c-41 63 -91
105 -144 122 -29 9 -65 17 -79 17 -52 0 -131 -32 -171 -69 l-40 -38 -56 29
c-86 43 -231 64 -344 49 -114 -15 -204 -52 -267 -108 l-49 -44 -91 65 c-70 50
-103 67 -148 76 -31 6 -79 18 -106 26 -84 24 -178 18 -291 -20z m1636 -13 c16
-10 29 -20 29 -24 0 -3 11 -18 25 -33 13 -14 33 -46 44 -71 28 -63 63 -209 59
-247 -3 -29 -8 -34 -43 -45 -85 -25 -142 -37 -178 -37 l-38 -1 -39 118 c-21
65 -43 123 -48 130 -5 7 -13 23 -17 37 -4 14 -17 38 -28 53 l-19 29 38 40 c22
22 53 46 69 54 42 19 112 17 146 -3z m409 -124 c62 -28 85 -52 108 -113 30
-82 40 -115 35 -119 -2 -3 -41 8 -86 23 -67 23 -99 28 -172 28 -49 0 -96 0
-102 1 -9 1 -13 22 -13 71 l0 70 47 30 c57 36 117 39 183 9z m389 -22 c30 -20
43 -41 74 -118 20 -52 42 -125 47 -163 18 -119 39 -208 69 -296 16 -47 41
-122 55 -168 15 -46 31 -91 36 -100 5 -9 33 -87 61 -172 28 -85 67 -185 85
-221 19 -36 34 -72 34 -81 0 -8 7 -35 16 -59 30 -87 64 -276 64 -363 0 -41
-15 -143 -36 -245 -30 -149 -43 -191 -84 -276 -27 -55 -76 -156 -109 -225 -33
-69 -73 -150 -89 -180 -17 -30 -38 -74 -47 -97 -16 -38 -16 -43 -2 -57 9 -9
23 -42 32 -74 25 -86 62 -192 69 -199 3 -4 6 -19 6 -34 0 -27 -12 -41 -100
-108 -14 -11 -22 -22 -18 -26 11 -11 88 39 136 87 48 50 48 59 -1 132 -28 40
-72 165 -82 232 -6 37 0 54 51 155 31 63 89 175 129 249 40 75 86 178 103 230
39 125 71 315 78 472 5 114 3 137 -21 228 -14 56 -46 152 -71 213 -25 62 -65
171 -88 243 -24 73 -52 147 -64 166 -39 63 -139 385 -156 503 -9 61 -16 125
-16 142 0 40 30 63 84 63 31 0 45 -7 70 -33 17 -18 38 -47 46 -63 8 -16 19
-36 25 -44 30 -40 66 -184 91 -360 8 -63 24 -147 33 -186 10 -39 16 -84 13
-102 -5 -35 18 -112 59 -193 60 -121 89 -298 90 -560 1 -171 -1 -191 -26 -284
-70 -260 -208 -669 -235 -700 -16 -17 -17 -27 -8 -75 6 -30 12 -68 13 -85 2
-16 7 -50 10 -75 5 -30 4 -42 -2 -35 -10 10 -33 83 -37 120 -2 19 -16 57 -35
100 l-10 20 -1 -20 c-7 -75 32 -238 71 -300 27 -43 29 -51 18 -77 -15 -36
-140 -153 -193 -180 -31 -16 -51 -19 -89 -14 -27 3 -52 8 -55 10 -3 3 26 34
64 69 l69 64 -34 74 c-47 103 -91 227 -91 255 0 31 -17 40 -25 13 -16 -48 34
-210 92 -302 l25 -39 -29 -30 c-46 -49 -142 -108 -175 -108 -17 0 -27 4 -23
10 3 6 15 10 25 10 11 0 26 12 35 29 8 16 24 32 35 36 21 7 28 52 11 71 -4 5
-20 41 -35 79 -15 39 -43 99 -62 133 -38 72 -42 93 -17 113 23 19 190 243 210
282 8 18 37 59 63 92 25 33 57 77 69 98 27 44 101 260 101 292 0 13 7 42 16
66 10 28 19 106 25 214 9 157 8 180 -12 290 -26 141 -75 276 -130 356 -42 62
-179 333 -179 354 0 8 -11 27 -25 43 -14 17 -36 54 -49 84 -14 29 -48 81 -78
115 -132 153 -143 172 -153 273 -4 36 -14 91 -22 122 l-15 56 28 38 c52 68
121 79 193 31z m-2741 -155 c5 -32 -24 -72 -51 -71 l-22 0 23 16 c25 18 29 51
7 59 -22 9 -7 26 18 22 14 -2 23 -11 25 -26z m2408 -60 c64 -33 102 -69 109
-105 10 -45 64 -132 127 -202 64 -71 110 -146 168 -270 22 -49 46 -99 52 -110
153 -267 236 -449 244 -535 1 -19 8 -60 14 -90 25 -129 23 -212 -10 -440 -6
-41 -19 -97 -30 -125 -10 -27 -26 -77 -35 -110 -23 -82 -82 -191 -117 -216
-15 -11 -35 -33 -43 -49 -8 -15 -55 -77 -105 -137 -50 -59 -108 -128 -129
-153 -47 -56 -54 -69 -76 -153 l-17 -67 46 -55 c26 -30 54 -75 63 -100 l15
-47 -57 -55 c-61 -57 -95 -76 -120 -67 -20 8 -20 10 15 65 l31 47 -16 61 c-8
33 -44 116 -80 185 -56 109 -65 132 -65 178 1 29 6 65 13 81 7 15 55 71 107
126 207 215 278 311 356 486 l49 110 -1 215 c-1 209 -2 219 -38 375 -40 177
-64 234 -130 314 -25 30 -50 69 -56 85 -29 80 -63 137 -118 200 -42 48 -64 83
-72 114 -6 25 -17 57 -25 71 -17 33 -101 138 -179 222 -56 61 -66 68 -118 79
-32 6 -58 16 -58 21 0 24 32 68 52 72 13 3 61 4 108 3 64 -2 95 -8 126 -24z
m-2597 -210 c23 -84 24 -102 8 -102 -28 0 -123 39 -145 60 -36 34 -29 57 21
68 23 6 56 10 74 11 29 1 33 -3 42 -37z m2125 -2500 c15 -127 21 -153 57 -235
23 -51 43 -104 46 -120 8 -40 -17 -70 -71 -85 -41 -11 -126 -17 -126 -9 0 30
26 126 37 139 8 9 12 25 9 35 -3 10 -10 45 -15 78 -5 33 -18 98 -30 145 -41
162 -41 162 -23 186 10 12 33 32 52 43 l35 20 7 -27 c3 -15 14 -91 22 -170z
m752 -4 c20 -40 52 -108 70 -151 l34 -78 -47 -50 c-49 -53 -89 -79 -120 -79
-12 0 3 19 46 58 64 58 64 58 53 92 -7 18 -29 56 -50 84 -51 67 -62 89 -62
123 0 25 23 73 35 73 3 0 21 -33 41 -72z m-1699 6 c9 -23 -13 -211 -32 -273
l-17 -54 -131 7 c-204 10 -225 28 -226 197 -1 98 -8 90 99 119 89 25 298 27
307 4z m-437 -159 c0 -52 1 -98 3 -102 1 -5 -25 -11 -57 -15 -32 -4 -61 -10
-64 -13 -10 -9 51 -25 98 -25 38 0 52 -4 59 -19 18 -33 -60 -91 -123 -91 -31
0 -38 5 -61 43 -33 57 -32 82 7 169 34 78 91 148 120 148 16 0 18 -10 18 -95z
m-191 -218 c7 -19 23 -49 36 -67 20 -28 22 -36 11 -42 -24 -13 -416 -27 -450
-16 -42 14 -55 28 -28 28 34 0 72 23 120 72 l42 44 69 -7 c46 -5 86 -3 122 6
30 7 57 13 61 14 3 1 11 -14 17 -32z m479 7 c6 -2 12 -17 12 -33 0 -16 5 -33
10 -36 6 -3 10 -15 10 -25 0 -33 -72 -39 -302 -25 -71 4 -128 12 -128 16 0 5
20 14 44 20 24 6 66 30 97 54 l53 44 95 -5 c53 -3 102 -7 109 -10z m967 7 c19
-8 17 -11 -18 -45 -81 -76 -139 -99 -291 -116 -131 -15 -158 -2 -84 40 23 13
70 43 105 67 34 24 81 48 105 52 55 11 157 12 183 2z"/>
<path d="M8926 2803 c-52 -27 -176 -123 -190 -146 -8 -12 -22 -58 -31 -102
-10 -44 -26 -95 -36 -115 -11 -19 -19 -48 -19 -65 0 -31 15 -64 24 -54 6 6 38
125 60 219 23 100 44 124 200 221 61 37 53 76 -8 42z"/>
<path d="M4355 380 c-4 -6 11 -10 37 -9 36 1 39 2 18 9 -36 11 -48 11 -55 0z"/>
<path d="M7603 308 c-41 -20 -24 -28 60 -28 45 0 139 -5 210 -12 92 -8 130 -9
138 -1 7 7 22 8 40 3 16 -5 92 -12 169 -16 127 -6 140 -5 140 10 0 24 -27 31
-74 19 -42 -10 -158 -4 -341 17 -155 18 -269 20 -277 7 -6 -9 -8 -9 -8 1 0 15
-27 15 -57 0z"/>
<path d="M2100 270 c0 -5 7 -10 16 -10 8 0 12 5 9 10 -3 6 -10 10 -16 10 -5 0
-9 -4 -9 -10z"/>
<path d="M5313 263 c11 -10 166 -13 172 -3 4 6 -30 10 -86 10 -51 0 -89 -3
-86 -7z"/>
<path d="M9566 201 c-67 -16 -68 -16 -38 -27 21 -8 46 -9 83 -2 56 10 142 7
172 -6 12 -6 17 -4 17 6 0 8 -25 20 -67 31 -79 20 -77 20 -167 -2z"/>
<path d="M11290 141 c-16 -9 -156 -23 -260 -26 -88 -2 -190 -16 -190 -25 0
-24 138 -27 182 -4 25 13 35 14 54 3 23 -12 190 -7 264 8 34 6 41 23 10 23
-11 0 -23 7 -26 15 -7 17 -13 18 -34 6z"/>
</g>
</svg>
