<?xml version="1.0" standalone="no"?>
<!DOCTYPE svg PUBLIC "-//W3C//DTD SVG 20010904//EN"
 "http://www.w3.org/TR/2001/REC-SVG-20010904/DTD/svg10.dtd">
<svg version="1.0" xmlns="http://www.w3.org/2000/svg"
 width="1280.000000pt" height="1053.000000pt" viewBox="0 0 1280.000000 1053.000000"
 preserveAspectRatio="xMidYMid meet">
<metadata>
Created by potrace 1.15, written by Peter Selinger 2001-2017
</metadata>
<g transform="translate(0.000000,1053.000000) scale(0.100000,-0.100000)"
fill="#000000" stroke="none">
<path d="M5125 10510 c-27 -11 -73 -20 -100 -20 -47 0 -55 -4 -103 -48 -38
-35 -52 -55 -52 -75 0 -23 -7 -31 -43 -46 -47 -20 -97 -72 -97 -101 0 -9 -7
-23 -15 -30 -8 -7 -15 -21 -15 -31 0 -12 -13 -24 -37 -34 -50 -21 -83 -53 -83
-82 0 -13 -14 -48 -31 -78 -27 -47 -30 -60 -24 -102 4 -26 17 -66 30 -89 17
-33 21 -52 17 -96 -4 -50 -1 -58 25 -89 16 -19 45 -56 63 -84 19 -27 56 -72
82 -98 l48 -48 55 6 c50 7 55 6 55 -12 0 -10 15 -34 34 -52 28 -27 39 -32 64
-27 29 7 29 6 46 -56 10 -35 21 -102 27 -150 13 -130 97 -326 166 -389 38 -35
111 -74 120 -65 5 4 -8 22 -27 40 -106 97 -174 247 -210 466 -6 36 -13 73 -16
83 -10 32 21 18 41 -20 27 -50 104 -106 168 -122 28 -8 80 -26 114 -41 50 -23
66 -36 82 -69 43 -83 22 -180 -49 -233 -22 -16 -30 -17 -60 -7 -19 6 -52 24
-72 40 -37 29 -68 38 -68 20 0 -6 11 -16 24 -23 48 -27 136 -88 136 -95 0 -18
-40 -66 -115 -141 -141 -140 -188 -193 -178 -203 16 -16 62 10 142 80 41 35
80 67 85 72 6 4 30 24 52 43 23 20 44 36 47 36 4 0 27 -20 53 -45 46 -45 108
-80 124 -70 5 3 11 1 14 -4 5 -8 63 -25 78 -22 4 0 40 -3 80 -8 141 -19 256
-21 268 -6 9 11 3 15 -32 19 -24 2 -52 5 -63 4 -48 0 -182 14 -210 22 -16 5
-50 12 -74 15 -68 11 -104 30 -150 80 -41 44 -42 47 -26 65 10 11 14 26 10 39
-4 14 2 25 23 41 23 17 31 33 36 69 3 26 13 56 21 67 51 68 -59 249 -173 284
-20 6 -46 15 -57 20 -11 5 -41 16 -67 25 -87 32 -117 86 -58 106 35 13 70 65
70 105 0 16 8 47 18 69 14 32 17 57 12 122 -6 101 -28 138 -81 138 -52 0 -52
36 -1 89 55 57 120 157 124 191 1 15 10 31 18 35 8 4 32 16 53 26 22 11 49 33
60 49 22 30 24 53 15 160 -3 25 3 33 39 53 23 13 66 28 95 34 74 14 254 9 303
-9 22 -8 69 -23 105 -33 175 -49 202 -59 219 -74 9 -9 32 -16 49 -16 25 0 32
-4 32 -20 0 -12 -10 -24 -24 -29 -35 -14 -50 -73 -24 -99 19 -19 26 -15 38 22
12 37 47 66 79 66 37 0 134 -30 153 -46 30 -28 15 -71 -16 -45 -9 7 -16 7 -24
-1 -15 -15 -15 -33 0 -58 11 -17 9 -28 -6 -68 -37 -88 -16 -210 37 -220 9 -2
44 26 81 62 36 36 71 66 79 66 22 0 85 -72 107 -123 33 -74 61 -279 58 -427
-3 -191 0 -326 7 -387 11 -94 2 -123 -61 -191 -40 -44 -69 -66 -112 -83 -31
-12 -64 -28 -73 -35 -9 -8 -19 -10 -25 -5 -10 10 -130 -9 -175 -27 -15 -6 -50
-7 -87 -3 -52 6 -65 5 -77 -9 -9 -10 -33 -25 -55 -35 -36 -16 -42 -17 -58 -3
-27 25 -56 7 -71 -43 -13 -44 -79 -139 -112 -163 -39 -27 -155 -142 -173 -170
-10 -17 -41 -56 -68 -87 -37 -43 -58 -59 -85 -64 -44 -8 -63 7 -45 35 10 17 9
21 -11 31 -12 7 -26 18 -32 25 -13 16 -79 34 -126 34 -20 0 -42 7 -49 15 -7 8
-29 15 -50 15 -24 0 -40 5 -44 15 -3 8 -25 25 -50 36 -41 21 -46 21 -82 7 -24
-10 -47 -12 -59 -7 -11 4 -31 8 -43 8 -13 1 -32 11 -41 23 -24 29 -68 18 -77
-20 -9 -44 -13 -52 -23 -52 -5 0 -11 17 -13 38 -2 29 -7 37 -23 37 -15 0 -20
-6 -18 -26 1 -26 0 -27 -74 -34 -41 -4 -77 -4 -80 -1 -11 11 7 36 25 36 26 0
46 25 39 50 -8 32 60 63 119 54 76 -11 92 30 32 81 -22 19 -41 25 -75 25 -39
0 -50 -5 -79 -36 -19 -19 -34 -41 -34 -49 0 -7 -16 -24 -35 -39 -49 -38 -77
-146 -37 -146 10 0 27 -6 37 -14 18 -13 18 -14 -3 -41 -12 -15 -22 -38 -22
-51 0 -15 -19 -42 -54 -76 -29 -29 -61 -67 -70 -85 -8 -17 -30 -42 -48 -54
-54 -38 -247 -251 -333 -368 -33 -44 -63 -81 -67 -81 -12 0 -9 121 4 198 30
175 -59 416 -209 567 -88 89 -184 130 -303 130 -52 0 -108 -7 -145 -18 -33
-10 -82 -24 -109 -32 -76 -22 -147 -71 -188 -130 -21 -30 -38 -58 -38 -63 0
-5 -16 -31 -35 -58 -20 -27 -40 -68 -46 -91 -16 -61 -58 -78 -239 -98 -80 -8
-176 -21 -215 -27 -38 -6 -106 -14 -150 -18 -44 -3 -90 -12 -102 -18 -13 -7
-60 -15 -105 -18 -130 -8 -167 -14 -183 -30 -24 -24 -18 -57 15 -86 27 -24 29
-29 19 -55 -15 -39 -33 -58 -117 -116 -61 -43 -72 -55 -72 -79 0 -20 7 -32 24
-39 20 -9 43 -5 132 26 60 20 139 50 176 66 62 27 93 36 298 80 47 10 117 27
155 38 39 11 94 20 123 20 29 1 66 8 82 16 28 14 60 12 60 -5 0 -5 -27 -30
-60 -55 -66 -50 -110 -116 -110 -161 0 -60 40 -147 101 -218 32 -39 59 -77 59
-87 0 -29 -161 -161 -225 -184 -16 -6 -44 -18 -62 -28 -18 -9 -36 -17 -41 -17
-6 0 -32 -15 -59 -33 -56 -38 -120 -60 -253 -87 -51 -11 -97 -23 -103 -29 -16
-16 0 -40 30 -46 39 -8 225 -76 241 -88 25 -20 14 -75 -24 -117 -30 -33 -34
-43 -24 -55 10 -13 17 -12 52 6 22 11 47 18 55 15 20 -8 141 50 247 118 49 32
100 62 113 67 13 5 41 22 61 38 20 16 48 32 62 36 14 4 36 15 50 25 14 10 57
34 95 54 67 35 157 97 265 181 170 134 225 172 316 216 56 27 106 49 113 49 6
0 24 9 39 20 37 28 119 52 128 39 5 -9 -67 -164 -177 -380 -16 -31 -29 -65
-29 -75 0 -11 -14 -48 -31 -84 -38 -79 -96 -267 -114 -370 -7 -41 -20 -100
-29 -130 -8 -30 -15 -64 -15 -75 0 -11 -8 -87 -16 -170 -9 -82 -18 -188 -19
-235 -2 -47 -8 -134 -14 -195 -11 -115 -10 -261 2 -332 12 -65 -2 -79 -82 -87
-37 -4 -91 -18 -120 -31 -28 -13 -54 -20 -56 -16 -3 4 -10 45 -15 92 -13 100
-19 123 -59 209 -16 36 -37 87 -47 114 -10 27 -39 73 -66 102 -26 29 -56 73
-67 98 -11 24 -30 51 -42 58 -65 40 -118 243 -90 344 25 89 -18 84 -122 -14
-66 -63 -70 -68 -65 -103 3 -22 -3 -66 -15 -106 -11 -37 -24 -85 -29 -106 -15
-63 -48 -119 -67 -115 -16 3 -25 23 -37 81 -3 16 -23 47 -44 70 -48 52 -71
124 -72 226 -1 89 -26 174 -52 179 -9 2 -36 -11 -60 -29 -23 -18 -43 -33 -44
-34 -1 0 -7 -31 -13 -69 -6 -38 -19 -85 -30 -105 -10 -20 -24 -63 -30 -96 -17
-93 -72 -239 -103 -273 -8 -9 -25 -39 -37 -67 -12 -27 -27 -57 -34 -65 -7 -8
-27 -62 -45 -120 -18 -58 -39 -120 -48 -137 l-16 -33 -116 0 c-64 -1 -150 -5
-191 -11 -41 -5 -133 -12 -205 -14 -71 -2 -182 -9 -245 -15 -63 -5 -196 -15
-295 -20 -99 -6 -255 -18 -347 -28 -267 -28 -441 -4 -550 74 l-48 34 0 -123
c1 -89 3 -117 11 -104 6 10 8 30 4 45 -3 16 0 35 8 45 12 17 15 17 42 3 17 -8
68 -29 116 -45 100 -36 195 -41 359 -16 54 8 181 20 282 26 101 5 226 14 278
20 52 5 149 14 215 19 66 6 138 13 160 16 210 26 535 32 691 13 49 -6 119 -14
156 -17 36 -4 70 -10 74 -14 4 -5 -5 -39 -20 -76 -25 -61 -26 -73 -17 -109 22
-81 75 -89 132 -22 41 49 54 95 64 237 5 69 12 93 40 142 19 33 41 87 49 120
9 33 34 109 57 168 22 59 60 163 84 232 24 69 49 125 55 125 6 0 22 -33 36
-73 13 -41 34 -92 45 -114 20 -40 114 -163 156 -205 23 -23 81 -140 107 -216
9 -26 16 -68 16 -92 0 -41 2 -45 24 -45 22 0 24 -5 30 -73 6 -73 -15 -187 -49
-262 -8 -16 -24 -56 -35 -87 -25 -68 -61 -98 -117 -98 -21 0 -48 -3 -60 -6
-45 -12 -57 -114 -13 -114 34 0 143 55 170 85 79 88 76 87 114 27 45 -72 48
-97 32 -259 -11 -101 -13 -172 -8 -223 16 -148 -7 -376 -49 -483 -11 -26 -19
-56 -19 -67 0 -10 -3 -20 -7 -22 -5 -1 -26 -39 -48 -83 -95 -192 -179 -298
-295 -373 -30 -19 -81 -52 -113 -73 -101 -67 -226 -94 -322 -68 -122 32 -145
40 -145 54 0 9 9 15 23 15 31 0 129 35 120 43 -3 4 -57 7 -119 7 -91 0 -124 4
-165 20 -29 12 -59 18 -67 15 -24 -9 -91 14 -217 75 -66 32 -133 62 -149 66
-16 4 -48 26 -70 50 -33 34 -77 59 -209 120 -171 79 -257 137 -257 174 0 10
-4 22 -10 25 -5 3 -10 12 -10 19 0 9 16 10 63 5 34 -4 89 -10 122 -14 34 -3
107 0 170 8 l110 14 109 -43 c74 -30 123 -44 155 -44 101 0 201 60 187 113 -8
32 -33 38 -154 36 -53 0 -230 -2 -392 -3 -268 -1 -300 1 -345 18 -103 39 -461
218 -490 245 -16 15 -48 40 -70 56 -77 56 -261 224 -348 318 -92 99 -116 129
-216 266 l-61 85 0 -51 c0 -40 8 -65 41 -124 22 -41 55 -90 73 -109 18 -19 39
-45 47 -56 43 -64 110 -136 206 -219 161 -140 179 -155 191 -155 6 0 49 -28
94 -63 46 -35 126 -85 178 -111 76 -38 109 -62 163 -119 38 -40 80 -93 93
-119 41 -81 71 -103 254 -184 36 -15 83 -41 105 -55 22 -15 56 -30 75 -34 22
-4 52 -24 80 -51 30 -28 68 -52 113 -69 37 -14 100 -42 140 -62 40 -20 88 -40
107 -44 19 -4 71 -15 115 -25 55 -11 90 -25 110 -43 17 -14 54 -37 82 -51 35
-17 60 -38 79 -68 16 -25 42 -49 61 -57 40 -17 55 -48 87 -184 32 -132 49
-231 45 -260 -5 -29 -45 -44 -89 -31 -16 5 -45 4 -67 -2 -21 -5 -63 -14 -93
-19 -30 -6 -97 -19 -147 -31 -51 -11 -107 -21 -125 -23 -38 -4 -78 -13 -243
-55 -66 -17 -146 -37 -179 -45 -86 -20 -181 -53 -266 -93 -74 -34 -136 -57
-234 -88 -50 -16 -214 -75 -381 -138 -49 -19 -103 -37 -120 -41 -16 -4 -57
-24 -91 -45 -34 -21 -91 -52 -127 -68 -77 -35 -143 -79 -211 -140 -28 -24 -64
-50 -80 -59 -49 -25 -76 -54 -76 -84 0 -41 19 -51 76 -39 142 29 150 25 109
-57 -15 -32 -45 -81 -66 -109 -22 -28 -39 -58 -39 -67 0 -26 39 -32 63 -10 33
30 112 80 139 88 12 5 55 23 94 41 39 19 78 34 86 34 8 0 27 9 41 20 14 11 28
20 31 20 3 0 46 18 96 40 100 45 246 82 331 84 47 1 62 6 92 31 50 42 117 90
147 105 14 7 48 30 75 50 38 29 66 41 115 49 36 7 98 19 137 28 57 13 80 14
108 5 28 -8 49 -7 89 3 29 8 99 19 155 24 57 6 107 13 111 16 4 3 77 10 162
16 161 11 216 18 338 43 41 9 93 16 115 16 22 0 56 4 75 9 19 5 61 11 93 14
53 5 61 3 90 -22 18 -15 40 -30 49 -34 9 -3 21 -15 27 -25 13 -25 10 -27 -94
-80 -67 -34 -170 -64 -265 -77 -54 -8 -142 -55 -193 -105 -134 -129 -296 -276
-330 -299 -13 -9 -53 -38 -88 -64 -35 -27 -84 -60 -109 -73 -25 -14 -63 -38
-85 -55 -22 -16 -64 -42 -93 -56 -65 -32 -143 -102 -203 -180 -24 -32 -58 -75
-77 -96 -49 -57 -90 -124 -114 -190 -15 -41 -32 -66 -60 -89 -31 -24 -38 -36
-34 -53 5 -18 1 -24 -17 -28 -12 -3 -141 -6 -287 -7 -160 0 -318 -7 -400 -16
-155 -17 -252 -19 -398 -9 l-103 8 3 -44 3 -44 96 -5 c53 -3 102 -10 110 -17
14 -11 51 -11 389 3 80 3 201 7 270 9 69 1 149 8 179 14 72 15 194 14 209 -1
32 -32 9 -43 -128 -59 -146 -17 -151 -19 -148 -43 3 -18 10 -21 65 -24 36 -2
103 6 165 19 56 12 148 26 203 30 118 9 229 24 245 34 34 21 385 42 396 23 3
-4 -10 -8 -28 -8 -28 0 -199 -33 -320 -62 -71 -17 -36 -38 62 -38 30 0 73 5
95 10 22 6 69 15 105 21 36 6 85 14 110 19 25 4 74 13 110 19 36 6 75 13 88
16 12 3 22 1 22 -4 0 -5 -19 -12 -43 -15 -72 -11 -132 -60 -98 -80 5 -3 30 1
57 8 27 8 105 24 174 36 69 12 141 26 161 31 20 5 57 9 82 9 25 0 58 5 73 10
14 6 70 12 123 15 53 2 148 8 211 14 185 17 370 13 370 -8 0 -7 -186 -61 -212
-61 -8 0 -26 -9 -39 -19 -19 -16 -22 -22 -11 -32 10 -11 21 -11 60 0 26 8 61
15 77 17 17 2 73 12 125 23 120 25 308 53 380 56 30 1 73 8 95 14 22 6 95 11
163 11 113 0 122 1 122 19 0 15 -12 21 -65 30 -35 6 -75 9 -87 6 -13 -3 -107
-11 -210 -20 -182 -14 -281 -10 -327 14 -35 18 -290 21 -526 6 -277 -18 -637
-20 -668 -3 -13 7 -101 9 -266 7 -241 -3 -301 0 -371 21 -19 5 -56 10 -82 10
-53 0 -66 20 -25 41 12 6 31 19 42 29 11 10 40 20 65 23 80 9 144 27 207 57
80 39 121 75 169 150 30 48 46 62 74 70 29 8 38 18 53 53 10 25 17 48 15 53
-2 5 5 28 16 51 13 30 31 48 65 66 25 14 75 51 111 82 79 69 163 116 252 144
37 11 85 29 107 40 22 12 48 21 58 21 10 0 70 16 133 36 100 32 121 43 162 81
l46 45 84 3 c136 5 334 23 478 45 74 11 173 25 220 30 92 9 181 33 218 56 13
9 56 24 95 35 40 11 106 30 147 42 71 20 97 21 485 22 493 1 519 4 920 101 39
9 94 25 123 35 29 11 65 19 80 19 15 0 47 9 71 20 24 11 49 20 56 20 7 0 16
-28 23 -76 22 -157 105 -205 162 -94 11 22 23 40 25 40 6 0 22 -8 73 -34 31
-17 34 -17 65 1 39 23 48 68 19 103 -18 22 -19 22 -50 6 -17 -9 -35 -16 -40
-16 -6 0 -41 48 -79 108 -78 120 -121 222 -107 251 30 63 258 231 313 231 20
0 22 -5 21 -52 -1 -94 21 -241 51 -332 23 -68 27 -91 18 -102 -20 -24 -48 -15
-98 31 -49 46 -59 70 -100 230 -12 45 -36 84 -46 73 -4 -3 3 -64 16 -135 17
-101 28 -137 50 -169 36 -53 82 -92 136 -115 22 -9 45 -25 51 -35 10 -18 32
-11 32 11 0 8 13 22 30 31 16 10 37 33 46 52 20 42 35 37 50 -19 29 -104 77
-202 124 -254 26 -28 50 -67 50 -79 0 -14 -89 -4 -129 14 -24 11 -51 20 -61
20 -10 0 -47 19 -82 42 -53 36 -68 53 -95 107 -17 35 -38 71 -46 79 -14 13
-15 7 -10 -49 2 -35 11 -87 19 -116 8 -28 14 -62 14 -75 0 -12 7 -63 16 -111
14 -74 22 -96 55 -137 36 -46 41 -49 110 -61 70 -12 71 -12 89 11 18 24 19 24
39 6 12 -11 21 -29 21 -41 0 -13 7 -28 15 -35 8 -7 15 -25 15 -41 0 -37 80
-208 108 -233 12 -11 22 -24 22 -30 0 -6 15 -20 33 -30 145 -86 169 -92 207
-51 29 31 70 33 115 5 31 -19 34 -19 49 -4 12 11 15 25 10 50 -12 62 -92 242
-141 316 -27 40 -73 113 -102 161 -29 49 -81 122 -115 162 -33 41 -79 97 -101
126 -22 28 -59 64 -82 80 -28 20 -45 41 -54 66 -6 21 -16 43 -21 49 -8 10 -38
115 -38 132 0 10 74 32 109 32 35 0 48 15 59 66 6 32 12 40 33 42 19 2 32 -5
51 -30 53 -70 133 -247 167 -373 25 -90 79 -173 131 -200 15 -8 68 -16 121
-18 93 -5 94 -5 118 -38 84 -114 181 -168 306 -170 216 -5 218 -5 262 21 47
26 57 59 26 84 -197 160 -250 204 -311 266 -41 40 -81 85 -90 99 -18 29 -101
126 -165 194 -21 22 -64 77 -95 121 -31 45 -88 124 -127 176 -39 52 -86 120
-104 150 -18 30 -77 108 -130 173 -53 65 -104 129 -115 142 -38 47 -71 291
-81 605 -3 85 -10 216 -16 290 -8 114 -22 440 -21 505 3 225 0 581 -7 650 -4
50 -27 169 -50 265 -38 160 -46 181 -94 258 -33 53 -78 108 -124 150 -68 62
-90 78 -198 145 -25 16 -45 32 -45 37 0 14 52 28 140 39 47 5 141 26 210 45
68 20 133 36 143 36 10 0 27 5 38 10 21 12 217 50 359 70 47 6 103 17 125 22
22 6 54 12 70 13 104 9 169 16 176 20 15 10 286 35 437 41 153 6 268 -5 447
-41 39 -8 95 -16 125 -19 73 -8 93 -12 164 -36 34 -11 88 -28 121 -39 33 -11
80 -26 105 -34 25 -8 77 -25 115 -37 91 -28 216 -90 285 -140 30 -23 66 -44
80 -47 54 -13 114 -78 175 -190 63 -114 105 -207 105 -234 0 -9 3 -19 7 -22 3
-4 7 -19 8 -34 7 -75 27 -225 45 -326 32 -184 29 -561 -6 -645 -7 -18 -11 -39
-8 -46 3 -8 1 -17 -5 -21 -6 -3 -11 -16 -11 -29 0 -13 -11 -43 -24 -68 -13
-24 -31 -78 -40 -119 -10 -41 -23 -81 -30 -89 -8 -8 -16 -28 -19 -45 -16 -95
-107 -324 -162 -407 -14 -21 -25 -40 -25 -44 0 -13 -83 -190 -100 -215 -30
-41 -100 -183 -100 -201 0 -31 33 -20 68 22 17 21 32 43 32 48 0 5 14 27 31
48 16 21 60 97 95 169 52 102 70 130 87 132 12 1 60 5 107 8 90 7 93 6 340
-90 43 -17 231 -19 316 -4 32 6 105 26 161 45 121 41 152 42 239 9 71 -27 117
-68 153 -136 13 -24 33 -41 63 -54 24 -10 59 -30 78 -44 41 -30 144 -68 220
-81 274 -47 529 -67 634 -50 34 5 99 14 146 21 47 6 107 20 133 30 26 11 57
19 68 19 10 0 27 5 37 10 9 6 60 21 112 34 81 21 95 22 98 9 5 -21 -27 -53
-71 -70 -37 -15 -57 -49 -42 -72 8 -14 89 -14 140 0 22 7 76 19 120 28 l80 16
3 91 3 91 -31 -5 c-17 -2 -43 1 -58 7 -23 10 -42 8 -105 -8 -42 -12 -87 -21
-99 -21 -13 0 -52 -9 -88 -20 -76 -24 -339 -71 -384 -69 -17 0 -62 -2 -101 -6
-38 -4 -92 -7 -120 -7 -82 1 -307 23 -333 33 -13 5 -35 9 -50 9 -23 0 -169 47
-276 89 -15 6 -61 45 -101 85 -75 77 -132 113 -227 140 -72 20 -121 20 -161
-1 -18 -9 -81 -28 -142 -43 -147 -36 -308 -41 -379 -11 -52 23 -53 41 -3 41
83 -1 590 99 688 135 24 9 63 23 86 30 23 8 70 33 105 56 34 23 89 52 122 64
153 56 208 75 311 104 61 17 144 41 185 53 41 12 79 25 85 30 5 4 20 8 35 8
14 0 48 12 75 25 28 14 57 25 65 25 56 0 277 67 370 111 193 93 232 114 254
136 11 13 25 23 29 23 5 0 27 16 50 35 22 19 47 35 54 35 7 0 43 28 78 62 l65
63 0 94 0 93 -65 -7 c-75 -8 -94 -1 -70 25 12 13 13 23 5 44 -9 26 -12 27 -72
23 -80 -6 -163 -24 -208 -47 -19 -10 -70 -49 -114 -87 -123 -106 -187 -153
-212 -153 -13 0 -26 -5 -29 -10 -3 -5 -20 -10 -36 -10 -16 0 -46 -11 -67 -24
-36 -23 -100 -42 -287 -87 -127 -30 -306 -37 -389 -15 -55 15 -77 16 -154 7
-109 -14 -129 -20 -312 -109 -80 -38 -169 -75 -198 -81 -28 -6 -80 -20 -115
-32 -67 -23 -123 -35 -232 -50 -124 -17 -239 -41 -260 -52 -11 -6 -29 -13 -40
-14 -64 -9 -60 -11 -58 33 1 23 17 88 36 145 77 231 92 350 78 609 -6 107 -18
231 -26 275 -9 44 -20 107 -24 140 -13 86 -27 142 -54 210 -18 48 -21 66 -13
88 11 30 13 31 136 44 88 10 185 45 225 83 11 10 31 25 45 32 60 33 100 61
100 69 0 5 17 17 38 28 49 25 127 126 158 203 13 34 28 66 32 70 5 5 46 13 92
18 66 8 101 18 165 50 44 22 83 40 86 40 9 0 112 69 119 79 3 4 12 11 20 14
91 42 311 265 324 328 3 17 6 64 6 105 0 71 1 74 33 97 17 14 47 32 65 41 46
23 50 42 16 77 -15 16 -31 29 -36 29 -4 0 -22 -15 -40 -32 -19 -18 -50 -47
-70 -64 -52 -45 -57 -61 -55 -161 l2 -91 -45 -58 c-63 -81 -330 -288 -440
-341 -61 -30 -185 -60 -211 -51 -8 3 -12 42 -13 126 -2 112 -4 123 -25 146
-64 68 -165 75 -278 20 -40 -20 -84 -50 -98 -66 -30 -36 -55 -113 -62 -194 -5
-54 -3 -64 17 -84 26 -26 67 -24 142 6 45 17 49 17 83 1 20 -9 54 -17 76 -17
47 0 55 -13 40 -66 -14 -50 -89 -160 -118 -173 -13 -6 -42 -28 -65 -49 -24
-22 -61 -49 -84 -60 -22 -11 -46 -27 -53 -35 -7 -9 -44 -21 -84 -27 -40 -6
-94 -15 -121 -20 -70 -11 -144 9 -169 47 -34 49 -199 202 -267 247 -36 24 -93
58 -127 75 -209 104 -655 240 -843 256 -19 2 -75 9 -124 15 -132 18 -597 -1
-756 -29 -73 -14 -134 -23 -335 -52 -307 -45 -417 -66 -645 -123 -30 -8 -77
-17 -105 -21 -27 -4 -69 -14 -92 -22 -23 -9 -49 -13 -57 -10 -8 3 -45 -4 -82
-15 -124 -37 -204 -9 -321 115 -61 64 -70 90 -53 154 6 26 20 94 30 150 10 57
27 118 38 136 26 43 72 188 72 229 0 18 9 51 18 73 l18 40 280 0 c300 0 302 1
484 62 41 13 90 27 109 29 19 3 49 14 67 24 17 11 41 20 52 20 11 0 23 4 27 9
7 12 223 83 233 77 10 -6 163 39 209 62 26 13 51 18 78 15 75 -9 166 -4 213
11 51 16 108 26 187 30 129 9 214 21 260 39 27 10 64 23 80 27 17 5 50 16 75
25 49 18 90 23 227 28 169 7 193 62 85 195 -38 47 -133 97 -252 132 -56 17
-85 19 -194 14 -70 -3 -166 -11 -214 -19 -54 -9 -90 -11 -96 -5 -6 6 8 27 37
56 52 50 54 56 32 74 -11 9 -30 9 -87 -3 -71 -14 -95 -26 -252 -124 -38 -24
-79 -43 -92 -43 -12 0 -46 -20 -76 -45 -30 -25 -62 -45 -71 -45 -9 0 -32 9
-51 21 -31 18 -42 19 -88 10 -29 -5 -98 -12 -152 -15 -112 -6 -203 -18 -351
-48 -55 -10 -109 -19 -120 -19 -11 0 -72 -5 -135 -10 -100 -8 -130 -7 -225 11
-60 11 -138 32 -173 47 -57 26 -62 30 -58 54 5 27 40 85 69 114 9 8 19 32 22
53 4 20 11 47 17 58 5 12 7 31 4 42 -4 11 -3 23 1 25 5 3 56 1 113 -5 58 -6
121 -11 140 -11 107 2 263 13 316 22 33 6 119 11 190 10 100 -1 148 4 214 20
211 52 307 86 345 121 11 10 50 32 87 49 36 16 69 35 73 40 7 12 219 115 256
124 13 3 71 31 128 62 133 71 272 196 254 227 -2 4 -15 2 -28 -4 -14 -6 -28
-9 -31 -6 -6 7 39 53 67 69 28 14 38 3 13 -16 -10 -8 -14 -15 -8 -15 6 0 23 9
38 21 16 12 41 20 66 21 29 0 51 9 78 30 54 43 86 58 127 58 19 0 43 4 53 9 9
5 55 20 102 35 48 14 111 43 145 66 33 22 65 40 71 40 7 0 30 18 52 40 22 22
42 40 45 40 10 0 70 43 101 72 15 15 48 37 72 49 24 11 44 24 44 29 0 17 67
30 156 30 84 0 94 2 104 21 19 34 5 61 -77 145 -90 94 -101 97 -257 84 -70 -6
-107 -15 -143 -33 -26 -14 -68 -33 -93 -43 -25 -10 -63 -30 -85 -44 -22 -15
-57 -38 -77 -51 -21 -13 -38 -30 -38 -36 0 -16 0 -16 43 2 19 8 44 26 55 40
11 14 30 25 43 25 13 0 49 10 79 22 56 22 212 59 219 52 7 -7 -21 -34 -30 -29
-4 3 -16 2 -26 -3 -93 -47 -255 -122 -264 -122 -6 0 -30 -14 -53 -32 -22 -17
-43 -33 -45 -35 -2 -2 -2 -5 0 -7 7 -7 93 36 102 50 4 8 18 14 30 14 13 0 31
6 42 13 11 7 38 19 60 26 22 7 56 23 75 36 46 30 100 42 100 22 0 -8 -24 -23
-60 -36 -55 -20 -86 -41 -60 -41 6 0 48 14 93 32 58 23 99 32 141 33 73 0 86
-19 24 -35 -95 -25 -109 -31 -103 -49 6 -20 -48 -77 -64 -67 -5 4 -16 -2 -23
-13 -13 -19 -70 -62 -145 -111 -18 -12 -35 -30 -38 -41 -4 -10 -15 -19 -26
-19 -10 0 -19 -3 -19 -7 0 -9 -48 -33 -66 -33 -6 0 -22 -8 -35 -18 -13 -10
-51 -26 -84 -36 -33 -9 -70 -22 -83 -27 -13 -5 -60 -9 -105 -9 -65 1 -91 5
-127 24 -43 21 -45 25 -48 69 -3 43 0 51 30 78 18 17 44 42 58 55 25 24 47 33
35 14 -14 -23 7 -30 32 -10 14 11 31 20 38 20 6 0 20 9 30 20 10 11 23 20 30
20 7 0 20 9 30 20 10 11 33 25 51 32 19 7 34 16 34 20 0 4 0 11 0 15 0 3 -11
7 -24 9 -17 2 -27 -3 -31 -16 -7 -21 -35 -35 -35 -17 0 7 21 42 46 79 39 57
44 70 34 88 -9 17 -14 19 -33 9 -33 -17 -208 -161 -214 -175 -2 -7 -22 -24
-44 -38 -21 -15 -51 -45 -65 -67 -17 -27 -39 -46 -64 -56 -25 -10 -43 -25 -50
-43 -7 -17 -27 -35 -51 -45 -21 -10 -45 -25 -51 -33 -7 -8 -49 -31 -95 -52
-45 -21 -109 -58 -140 -82 -32 -24 -81 -58 -108 -76 -118 -73 -381 -179 -480
-192 -33 -4 -90 -14 -127 -21 -53 -10 -89 -10 -180 0 -62 7 -135 14 -163 16
-146 9 -227 19 -290 35 -69 18 -99 17 -92 -3 4 -12 90 -36 134 -37 17 0 34 -4
37 -9 7 -11 75 -24 141 -26 28 -1 107 -10 177 -20 112 -16 138 -17 207 -6 43
7 92 10 107 7 42 -9 233 52 359 114 22 11 46 20 52 20 17 0 149 69 204 107 24
17 50 28 57 26 6 -3 12 0 12 5 0 13 168 111 243 142 45 19 63 22 85 14 33 -12
41 -51 16 -88 -16 -25 -100 -94 -179 -148 -22 -15 -83 -65 -135 -111 -93 -81
-206 -167 -221 -167 -10 0 -171 -90 -194 -109 -11 -10 -45 -30 -75 -46 -30
-15 -68 -37 -83 -48 -67 -46 -378 -124 -482 -121 -233 9 -376 17 -405 23 -19
4 -53 3 -75 -2 -22 -5 -84 -6 -140 -1 -55 4 -122 8 -150 8 -47 1 -51 3 -60 32
-17 52 -44 84 -76 91 -17 3 -33 13 -36 22 -3 9 -30 41 -61 72 -61 64 -83 125
-56 163 8 12 14 45 14 83 0 51 -4 66 -22 83 -12 11 -25 20 -30 20 -4 0 -8 13
-8 29 0 17 -11 42 -24 58 l-24 29 60 69 c36 41 70 71 84 73 28 4 80 -22 97
-48 6 -11 20 -20 30 -20 13 0 16 5 11 24 -4 19 1 27 31 44 45 27 52 47 31 82
-9 16 -16 42 -16 58 l0 30 93 7 c50 4 104 14 119 21 15 8 44 14 64 14 21 0 51
4 68 10 17 5 50 15 72 20 48 12 129 66 190 127 34 33 45 53 54 99 7 32 9 78 6
103 -4 25 -8 188 -9 361 l-2 315 43 75 c23 41 42 82 42 92 0 9 -11 29 -24 45
-23 26 -26 27 -75 17 -65 -13 -94 -2 -149 61 -38 43 -48 64 -66 145 -5 25 -75
88 -193 175 -65 48 -186 108 -243 120 -32 6 -196 53 -310 88 -25 8 -91 20
-148 27 -134 17 -214 6 -312 -45 -84 -42 -113 -41 -81 4 25 34 26 59 7 106
-22 52 -90 80 -136 55 -14 -8 -39 -6 -85 5 -79 18 -69 18 -130 -5z m280 -79
c3 -5 1 -12 -5 -16 -5 -3 -10 1 -10 9 0 18 6 21 15 7z m-537 -213 c-3 -7 -11
-13 -18 -13 -7 0 -15 6 -17 13 -3 7 4 12 17 12 13 0 20 -5 18 -12z m352 -108
c0 -5 -4 -10 -10 -10 -5 0 -10 5 -10 10 0 6 5 10 10 10 6 0 10 -4 10 -10z
m1488 -158 c3 -17 -2 -22 -17 -22 -32 0 -46 -35 -31 -82 10 -35 9 -43 -6 -59
-15 -17 -19 -17 -33 -5 -13 12 -15 28 -11 82 5 57 10 70 34 91 33 28 60 27 64
-5z m-1458 -46 c-14 -14 -24 0 -16 21 6 15 8 15 16 3 6 -9 5 -19 0 -24z m1760
-196 c0 -28 -32 -91 -44 -87 -22 7 -18 58 5 83 27 29 39 30 39 4z m-2000 -340
c0 -5 -4 -10 -10 -10 -5 0 -10 5 -10 10 0 6 5 10 10 10 6 0 10 -4 10 -10z
m4630 -666 c0 -14 -3 -14 -15 -4 -8 7 -15 14 -15 16 0 2 7 4 15 4 8 0 15 -7
15 -16z m-3432 -306 c-2 -13 -11 -24 -20 -26 -21 -4 -24 18 -6 36 19 19 30 14
26 -10z m2412 -212 c0 -7 -11 -21 -25 -30 -30 -20 -33 -4 -5 24 24 24 30 25
30 6z m-4872 -42 c32 -9 71 -23 87 -31 51 -26 113 -103 180 -223 96 -172 119
-306 77 -435 -6 -16 -13 -70 -16 -120 -6 -103 -6 -104 -105 -135 -36 -12 -80
-33 -98 -46 -32 -24 -53 -31 -53 -16 0 9 77 62 89 62 5 0 27 14 49 30 42 30
42 31 42 93 0 83 -20 218 -35 237 -7 8 -16 31 -20 50 -55 278 -188 450 -347
450 -59 0 -158 -51 -207 -106 -48 -54 -80 -112 -83 -146 -1 -13 6 -48 15 -79
14 -48 28 -67 90 -125 40 -38 95 -80 123 -94 27 -14 60 -32 74 -41 14 -9 43
-22 64 -29 22 -7 68 -32 102 -56 35 -23 72 -45 83 -49 21 -6 30 -35 12 -35 -5
0 -42 16 -82 35 -41 19 -81 35 -91 35 -9 0 -48 11 -85 26 -37 14 -95 34 -127
45 -92 32 -246 120 -293 169 -73 74 -84 172 -31 268 18 31 36 62 40 67 5 6 22
31 39 57 77 119 335 191 507 142z m2236 -47 c8 -12 5 -23 -10 -44 -27 -36 -45
-35 -57 1 -8 25 -6 31 14 47 27 21 38 20 53 -4z m-889 -28 c-4 -5 -14 -9 -24
-9 -10 0 -24 -7 -31 -15 -18 -22 -55 -15 -55 9 0 14 11 23 40 31 41 12 81 3
70 -16z m140 11 c11 -18 -14 -48 -61 -70 -66 -32 -76 -13 -20 38 45 42 69 51
81 32z m125 -39 c0 -15 -51 -51 -71 -51 -29 0 -23 18 14 40 34 21 57 26 57 11z
m533 -58 c48 -65 58 -142 28 -202 -17 -33 -27 -41 -49 -41 -39 0 -47 8 -82 78
-38 77 -35 99 23 164 23 27 43 48 44 48 1 0 17 -21 36 -47z m2504 26 c2 -13
-105 -101 -140 -115 -31 -12 -18 13 31 56 26 23 56 50 67 61 22 20 39 20 42
-2z m-3422 -39 c8 0 26 5 40 12 22 10 29 8 50 -12 23 -22 27 -22 85 -10 53 11
62 11 78 -4 10 -9 34 -16 54 -16 22 0 41 -7 53 -20 11 -12 31 -20 50 -20 18 0
38 -7 45 -15 7 -9 29 -15 51 -15 32 0 41 -4 48 -22 5 -13 25 -32 45 -42 21
-11 36 -27 36 -37 0 -20 15 -25 93 -32 39 -4 56 -12 85 -40 42 -39 91 -67 121
-67 46 0 132 -42 152 -74 34 -56 31 -57 -93 -51 -124 5 -164 14 -205 43 -16
10 -80 42 -143 71 -63 29 -161 75 -218 102 -56 27 -126 59 -155 70 -67 26 -77
37 -53 55 30 22 12 27 -44 14 -28 -7 -69 -10 -90 -6 -41 6 -68 -11 -31 -21 12
-3 21 -9 21 -13 0 -12 -39 -72 -84 -133 -43 -56 -54 -98 -55 -209 -1 -61 2
-70 35 -115 92 -121 144 -177 293 -313 160 -146 191 -176 191 -189 0 -20 -185
-14 -270 10 -232 65 -324 96 -407 137 -32 16 -83 37 -114 45 -30 9 -72 28 -93
42 -20 14 -40 25 -44 25 -4 0 -25 12 -47 28 -45 31 -164 103 -212 128 -44 23
-43 55 2 100 19 19 35 39 35 44 0 15 105 137 340 394 73 80 153 144 190 153
14 3 32 12 40 19 9 7 27 17 40 22 21 8 29 6 48 -14 13 -13 29 -24 37 -24z
m545 40 c0 -5 -11 -10 -25 -10 -14 0 -25 -5 -25 -10 0 -14 -60 -50 -82 -50
-10 0 -18 4 -18 10 0 12 40 50 65 60 28 12 85 12 85 0z m-1853 -23 c76 -18
134 -70 160 -144 19 -51 43 -149 43 -172 0 -5 -35 0 -77 11 -85 22 -213 28
-309 15 -74 -10 -86 -2 -104 73 -16 66 -8 92 42 146 75 81 132 97 245 71z
m1945 -17 c5 -34 -18 -62 -48 -58 -10 1 -38 -4 -62 -11 -32 -11 -45 -12 -54
-3 -9 9 -2 15 25 27 20 8 55 28 79 45 24 16 46 30 49 30 4 0 9 -14 11 -30z
m437 17 c8 -10 3 -21 -23 -46 -19 -18 -39 -30 -45 -27 -19 12 -12 53 12 69 28
20 41 21 56 4z m-384 -87 c8 -13 -53 -50 -82 -50 -48 0 -32 33 24 50 39 12 51
12 58 0z m375 -25 c0 -9 -7 -18 -15 -21 -23 -9 -29 -44 -10 -58 15 -11 16 -16
5 -37 -15 -29 -29 -39 -52 -39 -22 0 -23 23 -4 53 8 12 17 40 21 62 4 22 12
43 18 47 20 13 37 9 37 -7z m-332 -47 c-2 -19 -10 -24 -45 -26 -53 -4 -55 10
-5 31 51 21 54 20 50 -5z m-487 -64 c29 -14 62 -30 71 -35 10 -5 22 -9 27 -9
6 0 62 -36 125 -80 64 -44 120 -80 124 -80 5 0 19 -12 33 -26 13 -15 57 -51
97 -81 65 -48 130 -103 225 -189 15 -14 27 -34 27 -44 0 -43 22 -69 74 -86 28
-9 74 -36 101 -59 72 -60 90 -70 193 -104 126 -42 259 -61 337 -49 33 5 89 13
125 18 36 5 117 16 180 25 63 9 129 18 145 20 17 2 43 8 58 14 16 6 50 11 76
11 26 0 72 5 102 11 48 10 66 8 140 -12 78 -21 88 -26 145 -83 61 -62 84 -105
84 -157 0 -25 -5 -30 -42 -40 -85 -22 -214 -61 -251 -75 -20 -8 -45 -14 -55
-14 -9 -1 -35 -9 -57 -20 -22 -11 -46 -19 -54 -20 -8 0 -22 -6 -30 -14 -9 -7
-38 -21 -66 -31 -27 -9 -63 -23 -80 -30 -43 -19 -285 -75 -319 -75 -17 0 -67
-5 -113 -12 -141 -20 -465 27 -535 77 -18 13 -54 35 -79 49 -25 13 -65 41 -89
61 -23 20 -64 48 -89 62 -81 46 -144 87 -169 110 -13 12 -41 24 -63 28 -59 10
-190 119 -412 343 -187 188 -187 188 -208 260 -23 82 -25 172 -3 215 18 35 79
115 103 135 23 19 62 15 122 -14z m909 -94 c18 -13 38 -37 45 -54 7 -17 30
-46 50 -63 42 -37 46 -76 8 -81 -13 -2 -23 -8 -23 -13 0 -13 -44 -11 -58 3 -7
7 -12 22 -12 34 0 12 -23 49 -50 81 -54 62 -57 78 -23 130 16 24 17 24 24 5 4
-11 22 -30 39 -42z m-3045 -5 c37 -77 31 -85 -55 -85 -39 0 -81 -5 -92 -11
-20 -11 -64 -20 -253 -55 -151 -28 -170 -31 -220 -43 -27 -7 -106 -30 -175
-52 -125 -39 -150 -45 -150 -32 0 3 14 30 30 60 17 29 30 67 30 86 0 43 15 57
65 57 22 0 56 5 75 11 19 6 58 15 85 19 216 35 367 61 410 71 22 5 76 14 120
18 44 5 85 9 91 10 7 0 24 -24 39 -54z m2815 25 c0 -15 -7 -20 -25 -20 -18 0
-25 5 -25 20 0 15 7 20 25 20 18 0 25 -5 25 -20z m-2246 -17 c17 -5 17 -6 3
-14 -19 -11 -97 -1 -97 13 0 9 60 9 94 1z m-149 -13 c3 -6 -1 -13 -10 -16 -19
-8 -30 0 -20 15 8 14 22 14 30 1z m222 -6 c-3 -3 -12 -4 -19 -1 -8 3 -5 6 6 6
11 1 17 -2 13 -5z m-57 -40 c31 -10 -15 -24 -82 -24 -53 0 -68 3 -68 14 0 21
94 27 150 10z m134 -23 c4 -5 -3 -7 -14 -4 -23 6 -26 13 -6 13 8 0 17 -4 20
-9z m1836 -2 c0 -5 21 -19 48 -31 26 -11 54 -26 62 -33 23 -20 175 -55 237
-55 47 0 59 -4 84 -29 19 -19 29 -40 29 -58 0 -33 -28 -120 -41 -128 -4 -3
-48 28 -96 69 -91 77 -130 106 -270 201 -80 53 -100 75 -68 75 8 0 15 -5 15
-11z m-1815 -45 c33 -7 65 -21 72 -31 19 -26 53 -121 53 -148 0 -33 -13 -31
-74 9 -62 41 -243 141 -274 150 -22 7 -29 26 -14 40 10 10 162 -2 237 -20z
m-730 -39 c-37 -30 -65 -35 -44 -7 20 25 32 32 54 32 17 0 16 -3 -10 -25z m92
-2 c5 -13 -57 -53 -82 -53 -24 0 -15 15 25 43 36 26 51 29 57 10z m100 -40 c3
-7 -33 -31 -85 -57 -129 -65 -206 -160 -187 -233 12 -48 104 -133 189 -174 44
-22 87 -39 96 -39 8 0 33 12 55 28 22 15 71 36 109 47 38 11 71 26 74 33 6 18
-25 15 -114 -12 -126 -37 -163 -40 -217 -16 -26 12 -47 23 -47 25 0 2 -2 9 -5
17 -4 10 12 12 82 9 155 -6 402 38 528 95 22 10 45 19 50 19 6 0 16 4 23 8 24
16 10 -9 -19 -31 -37 -30 -357 -192 -435 -222 -79 -29 -170 -18 -269 32 -69
36 -105 77 -112 127 -3 23 -10 44 -14 47 -12 7 -11 67 0 96 5 13 38 53 74 90
90 93 211 153 224 111z m-267 -11 c0 -11 -9 -27 -20 -37 -11 -10 -34 -43 -52
-74 l-32 -56 -9 32 c-15 49 -1 80 51 118 54 40 62 42 62 17z m412 -32 c29 -11
64 -27 78 -34 14 -8 42 -17 62 -21 38 -7 64 -27 54 -43 -3 -5 -23 -14 -45 -22
-22 -7 -52 -26 -67 -41 -15 -16 -32 -29 -36 -29 -5 0 -41 -15 -81 -34 -40 -18
-95 -41 -124 -51 -65 -23 -89 -14 -133 50 -45 65 -40 98 25 147 28 21 71 45
98 53 26 8 57 21 69 29 29 20 37 20 100 -4z m2811 -20 c27 0 49 -6 57 -15 14
-16 6 -79 -17 -137 -15 -38 -89 -128 -106 -128 -14 0 -61 40 -73 63 -9 16 -8
30 7 63 10 24 22 68 28 99 13 71 17 78 41 65 10 -5 39 -10 63 -10z m-2480 -96
c53 -18 72 -50 41 -68 -11 -5 -23 -11 -29 -11 -5 -1 -26 -8 -45 -17 -69 -31
-367 -91 -376 -76 -3 5 -4 10 -3 11 47 25 138 67 144 67 5 0 18 8 29 19 28 25
155 91 176 91 9 0 37 -7 63 -16z m410 -47 c12 -13 49 -38 82 -57 176 -97 215
-119 265 -153 30 -20 71 -40 90 -43 34 -7 79 -25 208 -85 35 -16 105 -41 155
-55 51 -14 106 -31 122 -39 l30 -14 -50 0 c-52 0 -287 75 -435 138 -41 17 -95
36 -120 42 -96 22 -420 191 -420 220 0 18 30 69 41 69 5 0 20 -10 32 -23z
m3897 -21 c0 -7 -20 -30 -45 -51 -43 -35 -82 -91 -71 -102 3 -3 27 2 53 10
137 44 261 66 401 70 80 2 116 0 123 -9 13 -16 5 -20 -63 -33 -61 -11 -138
-45 -138 -61 0 -14 13 -12 72 11 45 18 69 20 155 17 56 -2 105 -7 109 -11 12
-11 -4 -21 -39 -24 -51 -4 -183 -34 -234 -54 -13 -5 -23 -15 -23 -24 0 -18 5
-19 31 -4 12 6 28 8 37 4 16 -6 16 -7 0 -16 -10 -6 -18 -17 -18 -24 0 -18 -2
-18 51 1 144 51 369 56 369 8 0 -8 -11 -14 -27 -14 -38 -1 -264 -52 -398 -90
-84 -24 -144 -33 -255 -41 -80 -5 -170 -16 -200 -25 -160 -45 -160 -45 -195
53 -19 51 -43 92 -76 130 l-49 56 23 23 c13 13 34 28 48 34 13 5 31 14 39 19
8 5 33 14 56 20 22 6 61 26 85 46 51 39 148 95 167 95 6 0 12 -6 12 -14z
m-5138 -36 c1 -13 13 -29 25 -35 16 -8 19 -15 12 -28 -26 -45 -76 9 -64 69 7
39 21 36 27 -6z m3158 -60 c0 -5 -2 -10 -4 -10 -3 0 -8 5 -11 10 -3 6 -1 10 4
10 6 0 11 -4 11 -10z m-1875 -80 c44 -28 84 -50 90 -50 6 0 48 -18 93 -40 46
-23 87 -38 91 -35 5 3 22 -1 38 -9 108 -54 390 -156 493 -178 47 -10 96 -12
175 -7 61 4 182 6 270 5 l160 -1 68 -40 c37 -22 85 -49 107 -60 22 -11 54 -34
72 -51 18 -17 63 -52 101 -78 37 -26 75 -61 84 -79 27 -48 24 -180 -5 -287
-27 -97 -72 -240 -81 -255 -20 -33 -29 -108 -24 -185 6 -82 7 -86 43 -120 87
-81 151 -129 245 -184 55 -33 113 -70 128 -83 16 -12 34 -23 41 -23 24 0 170
-102 212 -147 23 -25 56 -77 74 -117 17 -39 41 -89 51 -111 11 -22 19 -53 19
-68 0 -16 5 -37 10 -47 11 -21 29 -141 35 -230 1 -30 6 -62 9 -70 15 -39 29
-354 32 -745 5 -648 32 -1020 85 -1179 11 -32 16 -63 12 -67 -15 -15 -125 -79
-135 -79 -6 0 -22 -8 -36 -19 -15 -10 -55 -32 -88 -49 -34 -17 -64 -38 -67
-47 -4 -8 -14 -15 -23 -15 -24 0 -118 -46 -134 -65 -7 -8 -18 -15 -24 -15 -19
0 -187 -114 -220 -149 -17 -17 -37 -31 -47 -31 -9 0 -29 -16 -43 -35 -15 -19
-33 -35 -41 -35 -7 0 -26 25 -41 56 -15 31 -43 73 -62 93 -41 43 -58 75 -67
123 -4 21 -13 42 -21 49 -8 6 -14 23 -14 38 0 14 -7 35 -15 45 -8 11 -15 27
-15 37 0 9 -18 52 -39 95 -22 44 -43 97 -46 119 -4 22 -22 81 -40 130 -18 50
-39 108 -45 130 -7 22 -23 55 -36 74 -40 60 -134 328 -134 383 0 43 -24 156
-61 293 -50 180 -71 218 -158 277 -25 18 -50 38 -56 45 -9 12 -114 48 -450
156 -133 43 -528 237 -606 298 -102 80 -199 172 -236 223 -21 28 -56 74 -78
101 -100 122 -165 257 -165 342 0 26 -7 73 -16 103 -17 64 -20 220 -4 299 5
29 10 97 11 150 0 53 5 121 10 151 8 52 14 92 40 310 7 52 18 111 25 130 7 19
20 64 29 100 9 36 21 73 26 82 5 10 9 27 9 38 0 11 7 37 16 58 9 20 29 72 45
115 16 43 62 144 104 224 41 81 75 150 75 155 0 21 43 108 54 108 6 0 47 -23
91 -50z m-595 -35 c0 -2 -27 -24 -60 -47 -131 -92 -146 -104 -180 -135 -19
-18 -38 -33 -43 -33 -5 0 -22 -11 -39 -25 -16 -14 -36 -25 -43 -25 -17 0 -212
-95 -235 -114 -8 -7 -46 -31 -85 -55 -38 -23 -99 -62 -135 -87 -86 -58 -193
-114 -219 -114 -21 0 -21 1 -5 38 9 20 19 49 22 65 4 26 3 27 -39 27 -54 1
-154 40 -154 60 0 9 23 23 60 36 33 11 95 38 138 58 43 20 88 41 101 46 41 15
188 121 248 177 l58 54 41 -33 c40 -32 44 -33 128 -31 71 1 103 8 181 36 152
56 184 70 209 89 22 17 51 24 51 13z m5144 -4 c6 -9 -26 -15 -124 -25 -80 -7
-142 -16 -149 -21 -4 -2 -13 0 -21 5 -11 7 -9 11 11 18 65 26 271 43 283 23z
m-6324 -1139 c0 -57 5 -95 15 -112 8 -14 20 -36 27 -50 7 -14 29 -53 50 -86
39 -66 78 -181 78 -232 0 -17 -9 -51 -20 -74 -28 -62 -69 -165 -92 -230 -24
-68 -36 -73 -133 -53 -65 14 -228 35 -267 35 -27 0 -23 62 6 113 13 23 34 74
46 112 12 39 33 84 46 102 13 17 24 39 24 48 0 9 8 29 19 43 34 49 58 106 91
217 18 61 38 119 45 131 8 11 18 41 25 65 17 66 19 71 30 64 5 -3 10 -45 10
-93z m8066 -33 c11 -10 29 -19 40 -19 31 0 49 -86 33 -157 l-12 -53 -48 0
c-64 0 -70 19 -29 100 39 77 34 97 -26 106 -56 8 -127 -17 -166 -59 -38 -40
-39 -97 -2 -126 14 -11 23 -25 19 -31 -9 -14 -58 -13 -73 2 -15 15 -15 72 0
137 19 83 103 136 198 125 25 -3 54 -14 66 -25z m-80 -104 c8 -19 -27 -79 -48
-83 -33 -6 -75 68 -51 91 13 14 93 7 99 -8z m-9201 -755 c3 -5 1 -10 -4 -10
-6 0 -11 5 -11 10 0 6 2 10 4 10 3 0 8 -4 11 -10z m1280 -80 c-23 -98 -37
-131 -53 -128 -11 2 -20 18 -26 44 -7 37 -5 46 25 92 31 46 35 50 47 34 7 -9
10 -28 7 -42z m1121 17 c38 -76 71 -127 111 -171 25 -28 61 -73 78 -101 70
-107 383 -385 435 -385 10 0 50 -18 91 -41 140 -77 322 -159 414 -186 28 -8
55 -18 60 -21 11 -7 12 -7 70 -21 156 -37 309 -104 384 -167 52 -45 81 -121
126 -329 40 -190 66 -289 85 -325 10 -20 23 -56 30 -80 6 -25 18 -52 25 -60 7
-8 30 -53 51 -100 21 -47 43 -92 50 -100 25 -30 44 -90 44 -137 1 -26 10 -73
21 -103 10 -30 29 -83 40 -118 11 -35 44 -111 74 -170 29 -59 78 -159 108
-222 50 -102 86 -153 138 -193 11 -8 19 -34 23 -74 7 -59 6 -62 -21 -81 -48
-34 -200 -84 -328 -107 -44 -8 -111 -21 -150 -30 -38 -8 -133 -22 -210 -30
-233 -27 -713 -27 -722 0 -1 6 30 27 71 48 85 43 164 115 198 178 21 39 23 57
23 166 -1 67 -6 132 -12 145 -17 37 -61 198 -68 253 -4 28 -11 58 -17 68 -12
23 -68 288 -72 340 -4 45 -27 73 -52 63 -15 -6 -16 -17 -10 -94 3 -48 11 -125
17 -172 5 -47 12 -110 15 -140 3 -30 11 -82 19 -115 8 -33 19 -80 24 -105 15
-67 -6 -332 -31 -391 -17 -41 -78 -104 -130 -134 -137 -80 -275 -145 -309
-145 -9 0 -42 -9 -74 -20 -141 -49 -634 -142 -729 -139 -12 1 -61 -4 -111 -10
-49 -7 -128 -16 -175 -21 -103 -10 -146 -24 -185 -60 -16 -15 -55 -36 -85 -48
-177 -66 -226 -83 -330 -116 -126 -39 -229 -99 -306 -180 -23 -24 -57 -51 -77
-61 -56 -27 -193 -151 -212 -193 -35 -79 -61 -123 -91 -159 -31 -37 -34 -38
-100 -39 -44 -1 -89 -9 -124 -23 -65 -25 -60 -24 -60 -6 0 8 20 28 45 45 72
49 74 120 2 91 -88 -36 -117 -45 -124 -37 -4 4 0 12 9 17 10 5 32 30 49 55 26
39 35 44 57 40 82 -16 102 -18 102 -7 0 16 -102 81 -127 81 -13 0 -23 5 -23
11 0 11 48 60 91 92 29 21 156 97 163 97 12 0 96 63 156 117 36 32 76 64 90
71 14 7 36 28 50 45 13 18 52 57 85 87 34 30 69 67 78 82 10 14 43 47 75 73
47 38 75 52 148 72 49 13 96 24 104 24 24 1 101 31 155 60 86 47 288 127 376
148 46 12 107 28 134 36 98 28 201 54 238 61 20 3 40 10 43 15 2 5 22 13 42
19 20 6 59 26 86 46 l49 36 -6 57 c-7 77 -39 155 -89 221 -57 75 -102 164
-148 295 -73 207 -65 274 55 492 71 129 151 250 201 305 29 31 63 76 75 99 12
24 48 69 80 102 118 117 148 167 103 167 -23 0 -131 -107 -177 -175 -22 -33
-60 -81 -84 -107 -23 -26 -43 -51 -43 -56 0 -5 -21 -31 -47 -58 -49 -50 -95
-121 -138 -211 -13 -28 -28 -54 -34 -57 -11 -7 -50 -111 -77 -206 -21 -73 -24
-183 -7 -250 16 -64 66 -198 91 -245 12 -22 22 -46 22 -53 0 -22 36 -84 83
-146 54 -69 64 -101 43 -150 -13 -30 -26 -42 -80 -66 -36 -16 -83 -32 -103
-36 -21 -4 -62 -15 -92 -25 -30 -11 -65 -19 -78 -19 -13 0 -89 -21 -169 -47
-110 -36 -149 -45 -162 -37 -39 24 -110 133 -121 186 -7 29 -18 63 -26 75 -13
19 -19 21 -44 12 -26 -9 -35 -7 -66 16 -19 15 -35 32 -35 37 0 6 -17 31 -39
57 -61 73 -98 177 -106 298 -3 57 -12 118 -20 136 -7 18 -20 62 -29 98 -8 35
-21 77 -30 93 -19 37 -13 46 29 46 44 0 229 66 279 99 21 14 55 35 74 46 58
33 196 175 246 253 135 213 210 428 225 656 5 65 5 135 0 155 -5 20 -6 117 -3
216 6 176 6 181 -18 235 -14 30 -44 77 -67 105 -22 27 -41 52 -41 56 0 22 84
247 98 261 15 15 219 75 262 77 8 0 20 -9 26 -22z m8631 -1032 c22 -8 82 -15
142 -17 62 -2 106 -8 108 -14 2 -6 -13 -27 -33 -47 -61 -64 -296 -162 -519
-217 -49 -12 -100 -29 -112 -36 -12 -8 -29 -14 -38 -14 -9 0 -30 -7 -47 -16
-16 -9 -89 -31 -162 -49 -251 -64 -488 -153 -605 -227 -25 -15 -51 -28 -59
-28 -8 0 -50 -16 -92 -35 -94 -42 -257 -84 -440 -114 -74 -12 -163 -26 -196
-31 -89 -14 -217 -12 -283 5 -55 14 -131 14 -200 -1 l-34 -7 6 38 c3 20 15 54
26 75 10 20 31 68 46 106 53 139 66 161 101 178 19 9 45 16 57 16 12 0 41 7
64 15 23 8 91 21 150 29 59 8 181 33 271 55 89 23 168 41 175 41 6 0 107 41
222 92 l210 92 110 0 c61 -1 146 -7 189 -14 62 -10 99 -10 170 -2 156 20 297
49 391 82 50 17 113 37 140 45 67 18 195 19 242 0z m-5254 -1453 c8 -10 17
-28 19 -42 12 -60 81 -289 100 -332 38 -86 81 -102 103 -38 6 19 18 35 26 35
8 0 34 -30 59 -67 25 -37 71 -100 103 -141 31 -41 57 -78 57 -82 0 -4 11 -16
24 -26 32 -25 69 -86 61 -99 -8 -13 -146 -13 -181 0 -15 6 -43 24 -62 41 -27
24 -41 30 -63 25 -23 -4 -32 0 -49 23 -11 16 -20 33 -20 39 0 5 -13 25 -29 45
-40 51 -57 95 -42 110 6 6 11 20 11 31 0 31 -43 166 -53 166 -5 0 -5 -29 -2
-65 5 -46 4 -69 -5 -80 -15 -18 -74 -20 -88 -2 -5 6 -10 72 -11 146 -1 130
-20 231 -42 231 -11 0 -11 11 6 -130 7 -63 11 -118 9 -122 -10 -17 -23 -7 -33
25 -6 17 -24 70 -41 117 -37 104 -40 159 -9 167 12 3 40 16 63 28 44 23 66 23
89 -3z m-197 -157 c14 -56 55 -170 105 -289 l33 -79 -33 -29 c-28 -25 -39 -29
-70 -24 -46 7 -76 42 -90 103 -10 46 -81 280 -96 315 -6 14 2 22 36 37 24 11
57 19 73 18 27 -2 31 -7 42 -52z m350 -48 c64 -89 70 -108 44 -125 -28 -17
-36 -10 -71 66 -46 101 -54 133 -30 132 3 0 29 -33 57 -73z m-511 -72 c12 -55
26 -116 33 -135 26 -79 35 -170 22 -214 -13 -42 -42 -76 -65 -76 -8 0 -19 29
-29 73 -10 39 -23 99 -31 133 -8 34 -17 88 -20 120 -3 32 -8 77 -10 100 -5 52
25 107 57 102 19 -3 25 -16 43 -103z m-4107 8 c12 -10 46 -61 78 -113 31 -52
81 -120 111 -152 50 -51 54 -57 37 -66 -11 -5 -46 -13 -79 -17 -33 -4 -121
-15 -195 -26 -74 -10 -200 -23 -280 -29 -80 -6 -197 -15 -260 -20 -63 -6 -140
-12 -170 -15 -176 -14 -421 -46 -457 -59 -95 -34 -199 -98 -296 -183 -33 -29
-44 -33 -95 -33 -63 0 -192 29 -240 54 -29 15 -92 118 -92 150 0 8 14 17 33
21 17 4 93 28 167 53 213 70 240 79 320 102 41 12 122 44 180 71 117 54 289
119 315 119 9 0 60 13 113 30 54 16 131 36 172 45 41 8 105 21 142 29 125 28
314 53 409 55 51 1 72 -3 87 -16z m3656 -348 c21 -55 45 -117 53 -137 15 -35
14 -40 -8 -85 -13 -26 -29 -49 -36 -51 -16 -4 -43 38 -54 85 -17 72 -29 276
-17 290 15 19 18 13 62 -102z m1241 -237 c33 -1 84 2 114 6 l53 8 47 -53 c69
-80 226 -233 319 -311 45 -39 82 -76 82 -83 0 -22 -36 -27 -148 -20 -96 6
-112 10 -155 37 -29 18 -64 54 -87 88 -48 70 -86 90 -172 90 -36 0 -85 7 -110
16 -51 17 -51 17 -102 166 -15 43 -25 82 -21 87 3 6 29 2 63 -10 31 -11 84
-20 117 -21z m-6850 -18 c35 -68 79 -116 115 -123 16 -4 30 -12 30 -19 0 -14
-167 -108 -191 -108 -7 0 -2 12 14 28 34 36 34 47 -3 68 -16 10 -34 30 -40 45
-30 71 -74 70 -131 0 -37 -47 -49 -51 -49 -17 0 51 147 176 207 176 17 0 29
-12 48 -50z m6204 -275 c25 -7 82 -17 126 -21 79 -6 81 -7 125 -53 62 -64 80
-88 113 -151 16 -30 36 -62 44 -72 24 -27 1 -28 -52 -2 -51 24 -85 31 -85 15
0 -12 128 -73 140 -66 5 3 10 0 10 -8 0 -7 12 -22 28 -34 19 -14 34 -41 50
-93 13 -39 20 -76 15 -80 -13 -13 -125 11 -152 32 -14 10 -32 16 -42 13 -21
-7 -69 21 -69 41 0 19 33 34 75 34 22 0 34 4 30 10 -3 6 -32 10 -64 10 -62 0
-89 16 -77 46 5 13 17 15 64 11 31 -2 68 -8 82 -12 23 -7 24 -7 9 10 -11 11
-45 20 -98 27 -68 9 -81 14 -81 29 0 11 9 19 23 21 32 4 28 32 -5 36 -16 2
-28 8 -28 14 0 7 20 9 62 4 l63 -6 -25 25 c-14 13 -45 29 -70 34 -25 5 -70 17
-100 25 -41 12 -78 14 -147 9 l-92 -6 -21 47 c-33 78 -28 88 38 79 49 -7 55
-21 12 -29 -56 -12 -30 -23 63 -26 50 -2 100 -7 110 -12 11 -5 17 -4 17 3 0
23 -185 101 -245 104 -24 1 -35 14 -35 44 0 33 19 32 84 -4 32 -18 80 -40 105
-48z m-5209 -845 c0 -5 -7 -10 -16 -10 -8 0 -12 5 -9 10 3 6 10 10 16 10 5 0
9 -4 9 -10z m-130 -164 c0 -46 -81 -77 -146 -56 -26 9 -34 17 -34 35 0 19 10
27 52 43 47 18 54 18 90 4 21 -8 38 -20 38 -26z m-238 -68 c-5 -5 -25 -8 -43
-6 l-34 4 35 10 c37 12 58 8 42 -8z m323 -61 c16 -9 -3 -14 -99 -25 -128 -14
-154 -9 -123 26 14 16 29 18 109 14 51 -2 102 -9 113 -15z"/>
<path d="M6986 6627 c-59 -14 -79 -50 -21 -37 6 1 38 7 73 14 35 6 64 16 65
21 3 15 -60 15 -117 2z"/>
<path d="M6761 6587 c-24 -12 -30 -35 -7 -29 6 2 24 6 40 8 34 4 40 9 31 23
-8 14 -34 14 -64 -2z"/>
<path d="M6620 6575 c-13 -16 -2 -25 32 -25 17 0 28 5 28 14 0 18 -47 27 -60
11z"/>
<path d="M4190 6848 c0 -24 10 -44 36 -72 l37 -40 23 28 c26 29 32 84 12 104
-7 7 -34 12 -60 12 -47 0 -48 0 -48 -32z"/>
<path d="M5485 6582 c-39 -21 -51 -33 -53 -54 -2 -20 1 -28 12 -28 9 0 25 -5
35 -12 27 -16 47 -4 71 41 42 83 21 100 -65 53z"/>
<path d="M5722 6404 c-29 -20 -28 -39 4 -81 31 -41 52 -42 87 -2 28 32 29 56
5 87 -14 17 -69 15 -96 -4z"/>
<path d="M4943 6392 c-26 -4 -63 -51 -63 -80 0 -25 45 -62 76 -62 28 0 64 44
64 79 0 46 -31 71 -77 63z"/>
<path d="M4090 6179 c-31 -39 -40 -60 -40 -89 0 -37 12 -50 46 -50 8 0 31 25
52 56 20 31 41 62 46 69 5 6 6 24 2 38 -5 22 -12 27 -36 27 -24 0 -38 -10 -70
-51z"/>
<path d="M4440 5996 c-18 -35 -6 -76 24 -76 29 0 51 39 42 74 -9 35 -48 35
-66 2z"/>
<path d="M5390 5940 c-19 -37 -19 -42 -5 -71 23 -44 62 -37 91 15 23 41 22 62
-4 84 -31 24 -60 14 -82 -28z"/>
<path d="M4827 5842 c-22 -24 -21 -29 11 -80 26 -42 28 -43 88 -47 70 -3 87 4
89 37 4 43 -13 68 -61 88 -58 25 -106 26 -127 2z"/>
<path d="M3982 5468 c-26 -26 -11 -98 19 -98 23 0 59 34 59 55 0 18 -35 55
-53 55 -7 0 -18 -5 -25 -12z"/>
<path d="M5556 5274 c-9 -8 -19 -27 -22 -42 -3 -15 -10 -40 -16 -55 -17 -43 4
-58 68 -51 49 6 52 9 73 51 23 48 19 69 -21 97 -29 20 -62 20 -82 0z m44 -64
c0 -5 -5 -10 -11 -10 -5 0 -7 5 -4 10 3 6 8 10 11 10 2 0 4 -4 4 -10z"/>
<path d="M4524 5230 c-30 -12 -37 -52 -17 -95 9 -19 20 -35 24 -35 14 0 69 71
69 90 0 10 -10 26 -22 34 -25 18 -25 18 -54 6z"/>
<path d="M4346 5044 c-9 -8 -16 -19 -16 -24 0 -23 24 -57 54 -77 28 -18 37
-19 56 -10 23 12 54 90 45 115 -7 19 -120 16 -139 -4z"/>
<path d="M6358 4985 c-38 -25 -46 -47 -29 -74 22 -34 115 28 109 72 -4 31 -36
32 -80 2z"/>
<path d="M6125 4980 c-8 -13 13 -40 31 -40 17 0 18 22 2 38 -15 15 -25 15 -33
2z"/>
<path d="M4989 4968 c-9 -7 -24 -34 -33 -60 -10 -26 -22 -50 -27 -54 -5 -3 -5
-13 1 -25 14 -25 83 -26 130 0 33 18 35 22 32 62 -4 66 -63 109 -103 77z"/>
<path d="M5630 4730 c-53 -63 -52 -91 4 -102 29 -6 45 -4 62 7 33 22 64 57 64
73 0 18 -55 72 -73 72 -8 0 -34 -22 -57 -50z"/>
<path d="M4583 4574 c-49 -40 -53 -57 -20 -78 19 -13 29 -13 66 -2 40 12 81
45 81 67 0 18 -40 49 -62 49 -13 0 -42 -16 -65 -36z"/>
<path d="M6310 4369 c-24 -11 -46 -21 -48 -23 -8 -9 23 -55 48 -69 25 -15 33
-15 74 -3 78 24 97 55 56 96 -25 25 -71 25 -130 -1z"/>
<path d="M5250 4350 c-26 -26 -25 -36 5 -66 33 -33 74 -29 94 8 12 21 13 31 3
52 -9 21 -19 26 -47 26 -22 0 -43 -8 -55 -20z"/>
<path d="M5936 4048 c-36 -50 -3 -128 53 -128 28 0 81 52 81 80 0 59 -101 95
-134 48z"/>
<path d="M5902 3420 c-15 -24 -7 -42 36 -83 25 -24 33 -27 51 -18 15 8 21 21
21 46 0 60 -79 100 -108 55z"/>
<path d="M6178 3129 c-24 -14 -31 -57 -13 -85 15 -23 17 -23 44 -10 32 17 46
53 29 74 -19 22 -43 31 -60 21z"/>
<path d="M7400 1484 c0 -17 54 -34 107 -34 68 0 69 15 2 24 -29 4 -65 10 -80
13 -16 3 -29 2 -29 -3z"/>
<path d="M5835 9613 c-22 -6 -67 -33 -77 -47 -3 -5 -2 -20 3 -33 5 -14 9 -43
10 -66 0 -73 28 -128 84 -165 42 -28 56 -33 87 -28 29 5 42 1 64 -17 24 -21
26 -25 13 -48 -8 -14 -14 -55 -14 -99 0 -65 -4 -83 -32 -137 -31 -59 -32 -63
-21 -118 13 -66 34 -83 75 -61 75 39 128 151 115 242 -12 82 4 183 37 230 35
50 33 94 -4 94 -17 0 -24 -7 -29 -30 -10 -53 -43 -58 -133 -23 -43 17 -94 33
-114 37 -32 6 -39 12 -54 52 -26 69 -31 156 -11 177 13 13 22 14 36 7 24 -13
60 -13 60 -1 0 14 -42 41 -60 40 -8 -1 -24 -4 -35 -6z m233 -735 c-7 -4 -23
-8 -36 -8 -21 0 -23 3 -17 33 4 17 16 49 26 69 11 21 19 46 19 56 0 10 3 22 8
26 4 4 8 -32 10 -80 2 -63 -1 -90 -10 -96z"/>
<path d="M9190 8620 c0 -6 -10 -15 -22 -20 -49 -22 -102 -56 -106 -68 -4 -13
76 24 147 70 l45 28 -32 0 c-18 0 -32 -5 -32 -10z"/>
<path d="M6327 7978 c-7 -5 -31 -5 -53 -2 -30 4 -54 0 -88 -14 -58 -26 -60
-43 -3 -36 23 3 120 7 214 11 124 4 176 9 183 19 21 25 -25 36 -137 32 -57 -2
-110 -6 -116 -10z"/>
<path d="M7878 4801 c-37 -23 -48 -37 -48 -56 0 -35 23 -32 66 8 25 23 35 39
32 55 l-3 23 -47 -30z"/>
<path d="M7718 4633 c-29 -31 -58 -84 -58 -106 0 -8 -6 -27 -14 -43 -8 -16
-22 -100 -31 -186 -9 -87 -21 -172 -27 -190 -12 -34 -13 -146 -5 -553 8 -396
14 -451 71 -640 15 -49 30 -109 33 -133 3 -23 10 -45 14 -48 5 -3 9 -15 9 -27
0 -32 27 -105 61 -163 43 -76 39 -91 -34 -146 -34 -26 -71 -50 -82 -54 -11 -5
-55 -30 -99 -57 -43 -27 -98 -57 -121 -67 -41 -18 -62 -36 -52 -46 8 -8 101
16 117 30 8 8 47 31 85 51 39 21 94 54 123 74 30 20 74 47 99 60 l45 24 58
-65 c33 -37 78 -74 102 -86 24 -11 60 -36 80 -55 31 -29 192 -125 251 -149 16
-7 103 -22 287 -49 62 -9 449 -12 535 -3 85 8 172 24 215 39 89 32 150 44 252
49 56 3 119 10 138 16 19 6 55 13 80 16 46 5 126 17 235 35 33 5 98 13 145 18
47 5 93 12 102 16 21 8 420 -11 503 -25 51 -8 297 -29 360 -30 11 -1 70 4 130
10 61 6 119 10 130 10 11 0 83 13 160 29 289 62 514 101 625 111 63 5 137 16
164 25 27 8 77 15 110 15 34 1 79 8 101 16 22 9 72 21 110 27 l70 12 3 94 c2
73 0 92 -10 89 -7 -3 -31 -11 -53 -18 -80 -26 -95 -33 -89 -42 4 -6 19 -7 35
-4 19 4 29 1 29 -7 0 -14 -341 -127 -385 -127 -17 0 -48 -5 -71 -10 -23 -5
-80 -12 -127 -14 -118 -6 -236 -29 -387 -73 -62 -18 -136 -29 -290 -43 -289
-26 -319 -25 -620 19 -166 25 -362 33 -455 20 -38 -5 -97 -14 -130 -19 -33 -5
-96 -13 -139 -19 -44 -6 -116 -19 -160 -30 -134 -32 -161 -34 -195 -16 -35 17
-17 21 -262 -59 -169 -55 -256 -65 -604 -70 -136 -2 -201 1 -229 11 -21 7 -51
13 -65 13 -50 0 -261 60 -324 91 -128 65 -417 372 -417 443 0 19 -41 160 -70
241 -30 82 -46 161 -59 290 -6 61 -16 153 -21 205 -6 52 -10 124 -10 160 0 36
-7 92 -16 125 -38 152 -51 299 -34 405 6 41 15 131 20 200 13 176 17 194 67
294 38 75 42 91 31 102 -12 12 -18 10 -40 -13z m1629 -2569 c-3 -3 -12 -4 -19
-1 -8 3 -5 6 6 6 11 1 17 -2 13 -5z"/>
<path d="M2035 4572 c-55 -23 -72 -25 -205 -25 -137 1 -180 -6 -180 -27 0 -4
15 -11 33 -15 17 -4 44 -19 60 -33 27 -26 37 -27 137 -22 17 1 33 -9 53 -34
22 -28 36 -36 60 -36 66 0 100 21 57 35 -11 3 -20 14 -20 23 0 9 -14 25 -31
35 -38 21 -33 41 10 45 43 4 75 -23 66 -56 -9 -37 9 -52 48 -40 67 22 78 28
89 54 15 33 -3 69 -51 101 -41 28 -50 28 -126 -5z"/>
<path d="M11099 146 c-5 -4 -264 -13 -579 -20 -124 -3 -248 -10 -275 -16 -28
-5 -88 -14 -135 -19 -47 -5 -121 -16 -165 -25 -44 -8 -145 -22 -225 -31 -267
-30 -268 -32 -15 -33 167 -1 272 3 345 14 209 30 288 37 452 38 155 1 168 2
196 23 29 22 36 22 184 17 84 -4 263 -6 398 -5 252 1 279 5 265 42 -4 12 -44
15 -224 17 -120 1 -220 0 -222 -2z"/>
<path d="M6476 113 c-1 -1 -82 -5 -181 -8 -99 -3 -243 -12 -320 -20 -231 -23
-335 -31 -495 -39 -136 -6 -355 -29 -365 -38 -14 -13 750 -3 900 11 66 7 154
14 195 16 41 2 163 9 270 14 107 6 251 11 320 11 166 0 202 6 198 34 -3 21 -6
21 -261 21 -142 0 -260 -1 -261 -2z"/>
<path d="M4660 89 c-262 -10 -376 -23 -640 -77 -61 -13 296 -14 440 -2 314 27
459 37 485 33 37 -5 71 17 62 41 -7 18 -6 18 -347 5z"/>
<path d="M9100 90 c-36 -5 -105 -14 -155 -20 -49 -6 -121 -15 -160 -20 -38 -5
-162 -14 -275 -20 -321 -18 -300 -28 60 -29 298 -1 334 1 420 20 52 12 124 24
160 28 56 5 65 9 65 26 0 24 -21 26 -115 15z"/>
<path d="M12015 49 c-27 -5 -108 -10 -180 -12 -178 -5 -528 -27 -534 -33 -3
-3 188 -3 424 0 491 6 621 6 792 1 127 -4 151 3 137 39 -6 15 -34 17 -298 15
-160 -1 -313 -6 -341 -10z"/>
</g>
</svg>
