<?xml version="1.0" standalone="no"?>
<!DOCTYPE svg PUBLIC "-//W3C//DTD SVG 20010904//EN"
 "http://www.w3.org/TR/2001/REC-SVG-20010904/DTD/svg10.dtd">
<svg version="1.0" xmlns="http://www.w3.org/2000/svg"
 width="1280.000000pt" height="640.000000pt" viewBox="0 0 1280.000000 640.000000"
 preserveAspectRatio="xMidYMid meet">
<metadata>
Created by potrace 1.15, written by Peter Selinger 2001-2017
</metadata>
<g transform="translate(0.000000,640.000000) scale(0.100000,-0.100000)"
fill="#000000" stroke="none">
<path d="M0 5577 l0 -35 88 -12 c48 -7 105 -16 127 -22 22 -5 72 -14 110 -18
187 -22 264 -35 478 -79 55 -12 114 -21 132 -21 18 0 73 -9 121 -21 49 -11
122 -25 164 -29 174 -20 261 -33 365 -55 61 -13 121 -26 135 -28 14 -3 75 -19
135 -35 138 -37 210 -53 255 -57 30 -2 106 -15 325 -55 105 -19 356 -72 500
-105 83 -19 192 -41 243 -49 51 -8 97 -18 103 -22 6 -3 77 -17 157 -30 219
-35 364 -62 487 -90 61 -14 153 -32 205 -40 52 -8 132 -21 176 -29 45 -8 107
-15 137 -15 90 0 202 -18 367 -59 213 -54 263 -63 354 -68 76 -3 225 -32 282
-53 39 -15 207 -44 489 -85 323 -46 361 -53 500 -87 66 -16 156 -35 200 -43
44 -7 143 -24 220 -38 77 -14 167 -28 200 -32 33 -3 76 -11 97 -16 53 -14 188
-32 227 -31 19 0 46 -5 60 -13 14 -7 44 -18 66 -24 37 -11 64 -15 235 -41 36
-5 121 -23 190 -39 113 -27 215 -47 355 -71 28 -4 127 -21 220 -38 94 -16 220
-37 280 -46 61 -10 139 -26 175 -36 36 -11 97 -24 136 -29 38 -6 108 -19 155
-31 46 -11 154 -31 239 -46 85 -14 225 -38 310 -54 240 -44 381 -60 542 -60
125 0 156 3 205 21 77 29 115 58 162 127 51 75 105 124 182 162 69 34 137 42
164 20 9 -8 50 -70 91 -139 90 -153 86 -148 154 -198 79 -58 87 -69 53 -76
-19 -4 -37 0 -55 14 -36 26 -60 24 -88 -6 -19 -20 -21 -28 -11 -38 10 -9 16
-7 30 12 16 21 19 21 24 6 20 -50 -6 -199 -41 -238 -23 -26 -34 -6 -23 42 8
36 7 42 -6 37 -8 -3 -17 -6 -19 -6 -6 0 -5 -72 2 -97 7 -25 33 -30 52 -11 24
24 24 -2 -1 -44 -74 -128 -32 -114 68 22 88 121 111 164 121 227 l6 43 57 -8
c105 -13 421 -8 476 8 45 13 125 63 133 83 2 4 23 20 47 37 58 40 79 87 72
162 -6 66 -54 177 -95 222 -56 59 -135 69 -327 41 -134 -19 -184 -19 -274 4
-42 11 -101 24 -131 30 -30 7 -68 15 -85 19 -29 8 -30 8 -8 20 12 7 25 22 29
34 3 13 22 48 41 79 26 43 47 63 94 90 80 44 89 56 63 78 -19 15 -20 19 -6 39
29 44 163 152 188 152 26 0 31 9 12 28 -23 23 -51 12 -110 -45 -33 -32 -73
-70 -89 -85 l-29 -26 0 38 c0 95 -39 85 -65 -17 -10 -37 -31 -84 -46 -104 -15
-20 -31 -50 -35 -65 -4 -16 -13 -42 -22 -58 -8 -17 -20 -50 -26 -74 -18 -71
-37 -75 -92 -19 -57 57 -87 60 -156 17 -36 -23 -55 -44 -78 -90 -16 -33 -30
-66 -30 -74 0 -13 -13 -26 -110 -105 -88 -73 -147 -128 -173 -160 -38 -48 -69
-66 -145 -86 -97 -24 -248 -10 -712 68 -113 19 -227 38 -255 42 -27 3 -86 15
-130 25 -373 85 -523 117 -590 125 -27 3 -88 12 -135 20 -238 40 -281 46 -355
56 -44 5 -100 13 -125 18 -25 5 -99 18 -165 30 -66 12 -136 28 -155 35 -33 14
-166 42 -330 71 -41 7 -113 22 -160 33 -47 11 -137 27 -200 37 -211 30 -254
37 -380 61 -69 13 -174 34 -235 48 -97 22 -493 84 -645 101 -58 7 -297 47
-415 70 -38 7 -169 32 -290 55 -121 22 -317 59 -435 81 -118 22 -235 44 -260
49 -25 5 -109 19 -188 30 -204 29 -457 78 -620 120 -108 27 -306 60 -361 60
-47 0 -132 16 -366 72 -71 16 -173 38 -225 49 -52 10 -126 25 -165 33 -129 29
-402 78 -530 96 -44 6 -114 19 -155 30 -94 23 -328 74 -440 95 -47 9 -116 23
-155 31 -105 21 -301 55 -375 64 -36 4 -85 13 -110 19 -76 19 -342 73 -405 82
-33 5 -109 16 -170 25 -108 15 -187 29 -232 40 -21 6 -23 3 -23 -29z m650
-107 c0 -5 -4 -10 -10 -10 -5 0 -10 5 -10 10 0 6 5 10 10 10 6 0 10 -4 10 -10z
m170 -36 c0 -2 -7 -4 -15 -4 -8 0 -15 4 -15 10 0 5 7 7 15 4 8 -4 15 -8 15
-10z m10620 -944 c0 -5 -4 -10 -9 -10 -6 0 -13 5 -16 10 -3 6 1 10 9 10 9 0
16 -4 16 -10z m-274 -317 c18 -16 34 -31 34 -35 0 -5 -16 -8 -35 -8 -25 0 -33
4 -29 14 3 7 -3 16 -13 20 -10 3 -23 8 -29 11 -6 3 -32 -13 -58 -36 -26 -23
-49 -39 -52 -36 -10 9 26 55 59 76 44 28 82 26 123 -6z m24 -81 c0 -15 16 -21
91 -35 93 -16 117 -27 105 -46 -5 -7 -17 -5 -39 7 -25 13 -56 17 -143 17 -67
0 -116 4 -125 11 -8 6 -24 15 -36 18 -38 12 -26 22 35 33 93 16 112 16 112 -5z
m135 8 c113 -17 158 -36 208 -89 35 -37 47 -59 52 -94 7 -44 2 -67 -14 -67 -4
0 -7 10 -7 22 1 16 -7 24 -31 31 -21 6 -36 19 -44 38 -6 16 -19 34 -28 39 -13
8 -13 9 -1 10 8 0 33 -19 57 -42 51 -50 66 -44 30 11 -35 53 -84 88 -132 94
-113 14 -185 31 -185 44 0 15 4 16 95 3z m245 -40 c0 -5 -4 -10 -10 -10 -5 0
-10 5 -10 10 0 6 5 10 10 10 6 0 10 -4 10 -10z m305 -10 c4 -6 -8 -10 -29 -10
-19 0 -38 5 -41 10 -4 6 8 10 29 10 19 0 38 -4 41 -10z m-531 -58 c25 -12 46
-26 46 -31 0 -14 -46 -14 -72 0 -13 7 -24 7 -30 1 -6 -6 13 -22 54 -45 35 -19
72 -45 83 -57 11 -12 40 -32 65 -44 39 -20 48 -21 70 -9 48 25 58 16 40 -31
-14 -39 -40 -33 -146 34 -52 33 -98 60 -101 60 -3 0 -3 -7 1 -15 9 -23 -2 -18
-53 24 -25 21 -64 48 -86 59 -84 43 -103 76 -31 52 50 -16 69 -6 26 14 l-35
16 61 -4 c34 -2 82 -13 108 -24z m374 0 c2 -8 -10 -12 -42 -12 -25 0 -49 0
-53 -1 -5 0 -9 7 -11 15 -3 11 8 14 49 13 31 -2 54 -7 57 -15z m166 -7 c21
-32 20 -42 -1 -23 -10 9 -28 19 -41 23 -12 3 -20 11 -17 16 11 17 43 9 59 -16z
m214 -17 c7 -7 12 -21 12 -32 -1 -20 -1 -20 -20 3 -29 34 -22 59 8 29z m-328
-23 c22 -27 5 -37 -19 -11 -19 20 -21 26 -9 26 9 0 21 -7 28 -15z m280 -45 c0
-5 -4 -10 -10 -10 -5 0 -10 5 -10 10 0 6 5 10 10 10 6 0 10 -4 10 -10z m-308
-17 c9 -10 21 -35 29 -55 11 -32 10 -45 -5 -93 -9 -30 -21 -55 -27 -55 -12 0
-11 10 2 48 8 24 7 45 -9 101 -20 72 -17 85 10 54z m-396 -110 c3 9 11 17 18
17 14 0 116 -99 116 -114 0 -6 5 -3 10 6 8 13 3 23 -20 46 -16 17 -30 35 -30
41 0 15 27 14 33 -2 3 -7 24 -19 47 -27 53 -17 59 -33 26 -67 -14 -14 -26 -30
-26 -34 0 -17 -55 -9 -105 15 -103 48 -187 135 -210 216 -5 19 9 9 64 -44 56
-56 71 -66 77 -53z m-32 72 c23 -17 13 -34 -11 -19 -19 12 -29 34 -16 34 4 0
17 -7 27 -15z m666 -59 c0 -13 -7 -29 -15 -36 -13 -11 -15 -8 -15 17 0 16 3
33 7 36 13 14 23 6 23 -17z m-72 -58 c-3 -7 -13 -15 -24 -17 -16 -3 -17 -1 -5
13 16 19 34 21 29 4z m-242 -43 c-16 -25 -36 -33 -36 -16 0 4 10 21 22 36 26
33 38 16 14 -20z m164 1 c0 -3 -4 -8 -10 -11 -5 -3 -10 -1 -10 4 0 6 5 11 10
11 6 0 10 -2 10 -4z m-497 -171 c-3 -39 -51 -136 -71 -143 -7 -2 -3 15 8 41
11 24 25 67 31 96 13 60 35 65 32 6z"/>
<path d="M11300 3900 c0 -5 5 -10 11 -10 5 0 7 5 4 10 -3 6 -8 10 -11 10 -2 0
-4 -4 -4 -10z"/>
<path d="M0 5487 c0 -27 21 -37 77 -37 17 0 44 -5 60 -11 80 -31 645 -149 718
-151 28 0 55 -5 61 -9 11 -9 70 -20 219 -40 44 -6 88 -15 97 -20 9 -5 38 -9
65 -9 26 0 80 -9 118 -21 39 -12 88 -25 110 -29 198 -42 453 -83 466 -74 6 3
20 -1 32 -9 12 -8 38 -17 57 -19 19 -3 62 -11 95 -17 33 -5 107 -18 165 -27
58 -8 130 -23 160 -32 30 -9 59 -15 64 -13 6 1 19 -2 30 -8 31 -15 149 -49
166 -49 8 1 53 -8 100 -20 47 -11 110 -23 140 -27 30 -4 63 -11 72 -16 10 -5
55 -14 100 -19 46 -6 113 -19 149 -30 36 -11 111 -26 166 -34 55 -7 109 -19
121 -25 11 -6 34 -11 51 -11 31 0 88 -13 266 -60 61 -16 137 -33 170 -39 194
-34 322 -52 366 -53 27 -1 52 -5 55 -10 3 -4 17 -8 31 -8 21 0 24 2 13 15 -7
8 -18 15 -26 15 -7 0 -35 7 -61 16 -26 9 -91 24 -143 34 -197 37 -277 53 -330
67 -123 32 -372 83 -480 98 -63 9 -139 23 -168 31 -50 14 -343 75 -462 96
-115 21 -288 57 -360 76 -41 11 -95 23 -120 27 -25 4 -79 15 -120 25 -41 11
-172 33 -290 50 -118 17 -267 44 -330 60 -63 15 -216 47 -340 70 -124 23 -247
48 -274 56 -27 8 -63 14 -80 14 -68 0 -638 120 -686 145 -14 7 -36 13 -50 13
-24 0 -187 28 -222 38 -14 4 -18 -1 -18 -19z"/>
<path d="M11687 4847 c-21 -7 -53 -24 -70 -40 -18 -15 -52 -42 -76 -60 -44
-32 -68 -75 -57 -102 10 -27 43 -16 65 20 12 21 28 35 40 35 11 0 21 5 23 12
4 12 80 38 115 38 16 0 30 -13 49 -46 27 -46 27 -46 9 -80 -18 -33 -18 -35 0
-54 35 -38 67 -23 80 40 11 53 6 193 -8 207 -11 10 -112 44 -126 42 -3 0 -23
-6 -44 -12z"/>
<path d="M11653 4571 c-3 -12 -12 -21 -19 -21 -17 0 -18 -12 -2 -28 16 -16 28
-15 28 2 0 9 7 12 20 9 20 -5 80 16 80 29 0 11 -11 15 -58 23 -39 6 -44 5 -49
-14z"/>
<path d="M4585 4569 c-10 -16 -4 -19 66 -29 35 -6 89 -14 119 -19 30 -6 93
-13 140 -16 47 -4 101 -12 120 -20 19 -7 96 -22 170 -34 189 -30 383 -68 530
-103 69 -17 166 -36 215 -44 169 -25 274 -44 367 -65 51 -12 149 -31 218 -44
69 -12 132 -24 140 -27 34 -13 167 -36 255 -44 33 -4 67 -12 75 -19 8 -7 62
-20 120 -28 58 -9 139 -23 180 -32 41 -8 108 -18 149 -20 40 -3 105 -14 145
-24 39 -11 123 -25 186 -31 63 -6 142 -20 175 -30 33 -11 110 -29 170 -40 275
-52 333 -63 380 -70 28 -4 82 -14 120 -23 39 -9 111 -21 160 -27 50 -6 108
-17 130 -25 22 -7 83 -18 135 -25 52 -7 138 -25 190 -42 52 -16 127 -33 165
-39 65 -10 118 -23 190 -47 17 -6 53 -15 80 -21 107 -22 283 -65 345 -84 36
-11 75 -21 87 -23 12 -1 27 -5 33 -9 12 -8 60 -15 220 -35 123 -15 137 -21
159 -74 21 -48 53 -76 87 -76 30 0 52 -27 30 -36 -9 -4 -21 -15 -27 -25 -8
-16 -5 -24 19 -44 16 -14 32 -37 35 -53 3 -15 17 -40 31 -55 23 -24 32 -27 98
-28 40 -1 81 -1 90 0 28 3 88 -30 88 -48 0 -10 -13 -30 -29 -45 -27 -25 -32
-27 -67 -17 -58 16 -115 13 -186 -9 -34 -11 -106 -27 -158 -35 -52 -8 -148
-25 -213 -37 -117 -21 -119 -21 -190 -3 -40 10 -108 32 -152 50 -44 18 -113
40 -153 49 -39 9 -93 23 -118 32 -25 8 -49 13 -52 9 -14 -13 29 -34 118 -55
52 -13 129 -35 170 -51 189 -69 246 -82 307 -69 27 6 81 15 121 20 40 6 102
14 140 19 37 5 110 23 161 40 98 32 169 39 189 19 16 -16 15 -49 -3 -72 -20
-26 -19 -85 1 -107 14 -16 14 -20 -3 -54 -12 -22 -38 -48 -69 -67 l-49 -30 39
6 c30 4 52 17 87 52 l47 46 47 -21 c27 -12 66 -24 88 -28 21 -3 50 -15 64 -27
23 -20 24 -29 30 -161 8 -197 -21 -304 -95 -350 -17 -11 -35 -31 -38 -45 -4
-14 -16 -43 -27 -64 -15 -31 -18 -53 -15 -100 5 -59 14 -84 79 -241 16 -38 38
-110 48 -160 20 -91 31 -262 18 -282 -4 -7 -33 -22 -65 -34 -54 -22 -71 -23
-337 -24 -338 -2 -517 -16 -494 -40 3 -2 45 -8 95 -11 49 -4 122 -15 163 -25
45 -12 106 -19 155 -18 95 1 69 16 -31 18 -56 1 -86 12 -65 25 15 9 190 7 352
-4 91 -7 224 -14 295 -15 146 -4 332 -19 415 -34 73 -14 191 -51 210 -67 19
-16 256 -84 293 -84 36 0 118 -20 134 -32 7 -6 74 -16 150 -24 76 -7 176 -18
223 -23 47 -5 111 -12 143 -16 l58 -5 -3 46 c-3 46 -4 47 -48 60 -25 8 -59 14
-76 14 -86 0 -284 61 -449 139 -113 53 -164 93 -203 159 -39 67 -122 263 -122
289 0 12 -13 55 -29 95 -16 40 -32 93 -36 118 -4 25 -20 77 -36 115 -16 39
-35 103 -44 143 -8 40 -22 87 -31 104 -9 17 -29 95 -45 172 -16 78 -37 163
-46 190 -20 63 -73 153 -108 186 -43 40 -95 116 -95 139 0 21 4 23 90 40 25 5
70 17 100 25 42 13 78 15 155 10 90 -6 109 -4 190 21 50 14 108 35 130 45 22
10 56 21 75 24 219 34 236 39 278 66 23 15 58 31 77 34 42 8 81 56 126 155 56
123 77 209 71 295 -3 43 1 109 8 147 10 57 17 72 41 90 32 23 42 67 12 54 -40
-18 -79 -15 -118 7 -35 21 -41 31 -57 88 -9 36 -17 76 -18 88 0 41 22 18 40
-41 35 -111 63 -129 133 -82 29 20 37 32 37 55 l0 30 -42 -30 c-44 -32 -72
-38 -85 -17 -4 6 -19 54 -33 106 -21 81 -28 95 -48 97 -47 8 -52 -90 -11 -221
l19 -60 -35 -50 c-52 -77 -108 -138 -256 -282 -107 -104 -144 -133 -175 -141
-122 -29 -232 -44 -353 -49 -104 -4 -145 -10 -173 -24 -20 -10 -86 -30 -147
-45 -77 -18 -122 -34 -150 -55 -47 -34 -76 -37 -90 -10 -17 31 -40 34 -53 6
-9 -19 -7 -29 6 -50 22 -34 15 -52 -29 -70 -56 -24 -121 -19 -161 12 -30 23
-49 27 -142 35 -59 5 -113 10 -119 13 -7 2 -13 18 -13 34 0 21 -10 40 -37 64
l-36 35 41 21 c45 23 87 74 78 96 -8 21 -23 19 -80 -10 -44 -22 -51 -23 -76
-10 -19 10 -30 25 -34 49 -4 20 -18 49 -31 65 -23 26 -33 30 -127 41 -135 15
-288 49 -533 115 -110 30 -238 61 -285 70 -47 9 -98 20 -115 25 -31 10 -213
47 -390 80 -55 10 -161 30 -235 45 -74 14 -182 34 -240 45 -185 33 -662 130
-747 150 -45 11 -97 20 -116 20 -20 0 -74 9 -121 20 -47 11 -136 27 -198 35
-108 13 -144 19 -393 64 -161 29 -387 78 -490 106 -81 21 -387 75 -507 89 -26
3 -87 16 -135 29 -49 14 -115 30 -148 36 -33 7 -134 28 -225 47 -91 20 -190
39 -220 44 -30 4 -86 15 -124 24 -37 9 -109 19 -160 21 -50 2 -156 16 -236 30
-161 28 -196 30 -205 14z m8110 -968 c3 -10 1 -30 -5 -45 -5 -15 -10 -39 -10
-53 0 -14 -9 -40 -19 -57 -20 -33 -71 -212 -71 -250 0 -32 -20 -87 -30 -81
-12 8 -4 229 10 271 7 21 10 56 6 83 -6 49 15 108 44 121 8 4 24 12 35 18 28
15 33 14 40 -7z m-188 -48 c-3 -19 -23 -55 -45 -81 -21 -26 -42 -55 -45 -64
-4 -10 -13 -18 -22 -18 -9 0 -15 -9 -15 -21 0 -44 -190 -239 -234 -239 -10 0
20 50 43 70 27 24 151 181 151 191 0 25 -26 0 -94 -89 -75 -100 -156 -180
-210 -210 -25 -14 -60 -17 -176 -18 -183 -1 -376 -37 -388 -72 -3 -9 3 -10 23
-2 36 14 45 13 45 -6 0 -12 5 -14 18 -9 106 45 155 56 240 53 81 -3 104 -12
71 -30 -57 -30 -361 -104 -380 -92 -15 9 -10 25 14 46 20 18 20 19 2 13 -11
-4 -26 -9 -32 -12 -7 -3 -13 2 -13 11 0 12 -8 15 -32 14 -28 -3 -33 1 -47 36
l-15 39 50 43 c27 24 74 53 104 64 30 11 68 27 84 36 19 11 82 21 198 30 147
12 240 25 347 50 14 3 60 39 102 81 56 54 83 74 95 69 22 -8 65 20 58 38 -3 8
5 25 18 39 13 14 33 39 46 56 29 38 46 31 39 -16z m28 -213 c-3 -52 -7 -130
-9 -173 -3 -75 -4 -79 -37 -107 -41 -35 -121 -64 -254 -91 -92 -18 -241 -60
-340 -95 -54 -19 -105 -18 -105 1 0 13 65 65 83 65 4 0 38 23 74 52 37 28 89
60 116 70 156 59 243 124 340 252 85 114 119 149 129 133 5 -6 6 -55 3 -107z
m-1840 -60 c3 -5 -1 -10 -9 -10 -9 0 -16 5 -16 10 0 6 4 10 9 10 6 0 13 -4 16
-10z m580 -250 c-3 -5 -10 -10 -16 -10 -5 0 -9 5 -9 10 0 6 7 10 16 10 8 0 12
-4 9 -10z m-79 -75 c10 -26 12 -41 4 -55 -11 -20 -30 -25 -136 -35 -58 -5 -62
-4 -68 17 -10 38 -7 78 7 83 14 6 121 22 155 24 17 1 27 -8 38 -34z m624 1 c0
-15 -62 -40 -83 -33 -6 2 6 13 28 25 48 25 55 26 55 8z m-140 -56 c0 -14 -78
-49 -110 -50 -14 0 -45 -9 -69 -21 -42 -19 -71 -19 -71 -2 0 11 91 43 121 43
13 0 42 9 64 19 46 22 65 25 65 11z m-190 -20 c0 -5 -7 -10 -16 -10 -8 0 -12
5 -9 10 3 6 10 10 16 10 5 0 9 -4 9 -10z m-250 -70 c0 -11 -4 -20 -10 -20 -5
0 -10 9 -10 20 0 11 5 20 10 20 6 0 10 -9 10 -20z m127 -37 c9 -23 -12 -88
-30 -91 -10 -2 -17 3 -17 12 0 8 -9 20 -20 26 -33 18 -24 33 15 26 43 -8 46 1
5 15 -18 7 -30 18 -30 29 0 16 4 17 36 7 20 -6 38 -17 41 -24z m-229 -1 c2 -7
-2 -10 -12 -6 -9 3 -16 11 -16 16 0 13 23 5 28 -10z m140 -51 c16 -20 15 -31
-2 -31 -17 0 -46 37 -46 58 0 12 3 12 18 1 9 -7 23 -20 30 -28z m-78 -75 c0
-3 -4 -8 -10 -11 -5 -3 -10 -1 -10 4 0 6 5 11 10 11 6 0 10 -2 10 -4z m211
-26 c-51 -43 -212 -93 -226 -70 -12 19 15 36 85 55 36 9 76 23 90 31 14 7 39
13 55 13 l30 0 -34 -29z m-207 -135 c-4 -8 -11 -12 -16 -9 -6 4 -5 10 3 15 19
12 19 11 13 -6z m316 -96 c0 -5 -4 -9 -10 -9 -5 0 -10 7 -10 16 0 8 5 12 10 9
6 -3 10 -10 10 -16z m-290 -18 c0 -6 -4 -13 -10 -16 -5 -3 -10 1 -10 9 0 9 5
16 10 16 6 0 10 -4 10 -9z m150 -47 c0 -14 -12 -19 -23 -8 -9 9 4 35 14 28 5
-3 9 -12 9 -20z m-147 -5 c-6 -6 -9 -17 -7 -24 6 -16 -22 -40 -31 -26 -7 12
25 60 40 61 5 0 4 -5 -2 -11z m297 -19 c0 -5 -5 -10 -11 -10 -5 0 -7 5 -4 10
3 6 8 10 11 10 2 0 4 -4 4 -10z m-226 -16 c23 -9 20 -23 -4 -17 -11 3 -20 9
-20 14 0 11 3 11 24 3z m266 -30 c0 -8 -5 -12 -10 -9 -6 4 -8 11 -5 16 9 14
15 11 15 -7z m-320 -14 c0 -11 -7 -20 -15 -20 -18 0 -19 12 -3 28 16 16 18 15
18 -8z m62 -15 c0 -5 -5 -11 -11 -13 -6 -2 -11 4 -11 13 0 9 5 15 11 13 6 -2
11 -8 11 -13z m98 -5 c0 -5 -4 -10 -9 -10 -6 0 -13 5 -16 10 -3 6 1 10 9 10 9
0 16 -4 16 -10z m68 -8 c2 -7 -3 -12 -12 -12 -9 0 -16 7 -16 16 0 17 22 14 28
-4z m52 -8 c0 -8 -5 -12 -10 -9 -6 4 -8 11 -5 16 9 14 15 11 15 -7z m-305 -24
c3 -5 -1 -10 -9 -10 -9 0 -16 5 -16 10 0 6 4 10 9 10 6 0 13 -4 16 -10z m157
-5 c0 -5 -5 -11 -11 -13 -6 -2 -11 4 -11 13 0 9 5 15 11 13 6 -2 11 -8 11 -13z
m-52 -5 c0 -5 -7 -10 -16 -10 -8 0 -12 5 -9 10 3 6 10 10 16 10 5 0 9 -4 9
-10z m-150 -51 c0 -25 -4 -29 -26 -29 -14 0 -24 3 -22 8 34 69 48 75 48 21z
m450 21 c0 -5 -4 -10 -10 -10 -5 0 -10 5 -10 10 0 6 5 10 10 10 6 0 10 -4 10
-10z m-390 -25 c0 -8 -7 -15 -15 -15 -8 0 -15 7 -15 15 0 8 7 15 15 15 8 0 15
-7 15 -15z m170 1 c0 -11 -19 -15 -25 -6 -3 5 1 10 9 10 9 0 16 -2 16 -4z
m-148 -51 c0 -5 -5 -11 -11 -13 -6 -2 -11 4 -11 13 0 9 5 15 11 13 6 -2 11 -8
11 -13z m58 6 c0 -6 -4 -13 -10 -16 -5 -3 -10 1 -10 9 0 9 5 16 10 16 6 0 10
-4 10 -9z m70 -1 c0 -5 -4 -10 -10 -10 -5 0 -10 5 -10 10 0 6 5 10 10 10 6 0
10 -4 10 -10z m-278 -32 c-15 -15 -26 -4 -18 18 5 13 9 15 18 6 9 -9 9 -15 0
-24z m548 -8 c0 -5 -7 -10 -15 -10 -8 0 -15 5 -15 10 0 6 7 10 15 10 8 0 15
-4 15 -10z m-395 -20 c0 -22 -39 -19 -43 3 -3 15 1 18 20 15 12 -2 23 -10 23
-18z m90 5 c0 -5 -10 -11 -22 -13 -16 -2 -23 2 -23 13 0 11 7 15 23 13 12 -2
22 -7 22 -13z m70 6 c3 -6 -3 -15 -14 -21 -21 -11 -37 2 -26 20 8 13 32 13 40
1z m-247 -13 c-6 -18 -28 -21 -28 -4 0 9 7 16 16 16 9 0 14 -5 12 -12z m60
-49 c-2 -6 -8 -10 -13 -10 -5 0 -11 4 -13 10 -2 6 4 11 13 11 9 0 15 -5 13
-11z m122 -3 c0 -21 -12 -24 -37 -11 -26 14 -20 25 14 25 13 0 23 -6 23 -14z
m90 0 c0 -8 -4 -17 -8 -20 -13 -8 -35 11 -28 23 10 16 36 14 36 -3z m64 -17
c-8 -14 -34 -11 -34 4 0 8 3 17 7 20 9 9 34 -13 27 -24z m176 -5 c0 -14 -4
-23 -9 -20 -5 3 -7 15 -4 26 7 28 13 25 13 -6z m-615 6 c-3 -5 -10 -10 -16
-10 -5 0 -9 5 -9 10 0 6 7 10 16 10 8 0 12 -4 9 -10z m205 -19 c0 -28 -22 -47
-41 -35 -7 4 27 61 39 63 1 1 2 -12 2 -28z m-94 -29 c-22 -5 -30 3 -21 18 5 8
11 7 22 -2 15 -12 14 -13 -1 -16z m164 13 c0 -8 -6 -15 -14 -15 -17 0 -28 14
-19 24 12 12 33 6 33 -9z m74 0 c3 -9 0 -15 -9 -15 -8 0 -15 7 -15 15 0 8 4
15 9 15 5 0 11 -7 15 -15z m86 -10 c0 -8 -7 -15 -15 -15 -16 0 -20 12 -8 23
11 12 23 8 23 -8z m-480 -5 c0 -5 -4 -10 -10 -10 -5 0 -10 5 -10 10 0 6 5 10
10 10 6 0 10 -4 10 -10z m433 -27 c5 -26 1 -45 -10 -62 l-16 -25 -16 33 c-14
30 -14 34 2 46 9 7 17 20 17 29 0 31 17 16 23 -21z m155 9 c2 -7 -3 -12 -12
-12 -9 0 -16 7 -16 16 0 17 22 14 28 -4z m82 -12 c0 -5 -4 -10 -10 -10 -5 0
-10 5 -10 10 0 6 5 10 10 10 6 0 10 -4 10 -10z m-494 -26 c12 -17 12 -23 0
-39 -12 -16 -16 -17 -30 -6 -12 10 -14 17 -5 27 9 11 8 18 -2 30 -12 14 -11
16 5 13 10 -2 25 -13 32 -25z m96 -4 c-3 -29 -20 -50 -39 -50 -12 0 -14 8 -9
34 5 28 3 35 -11 39 -10 2 0 3 22 2 36 -1 40 -4 37 -25z m71 16 c7 -19 -18
-42 -28 -26 -8 13 1 40 14 40 5 0 11 -6 14 -14z m157 -10 c0 -8 -4 -17 -9 -21
-12 -7 -24 12 -16 25 9 15 25 12 25 -4z m-450 -6 c0 -5 -4 -10 -10 -10 -5 0
-10 5 -10 10 0 6 5 10 10 10 6 0 10 -4 10 -10z m60 -4 c0 -8 -4 -17 -9 -21
-12 -7 -24 12 -16 25 9 15 25 12 25 -4z m450 -5 c0 -6 -4 -13 -10 -16 -5 -3
-10 1 -10 9 0 9 5 16 10 16 6 0 10 -4 10 -9z m-546 -33 c-8 -29 -10 -31 -23
-23 -8 4 -8 12 -1 26 15 27 33 24 24 -3z m586 18 c0 -3 -4 -8 -10 -11 -5 -3
-10 -1 -10 4 0 6 5 11 10 11 6 0 10 -2 10 -4z m-85 -25 c3 -5 1 -12 -5 -16 -5
-3 -10 1 -10 9 0 18 6 21 15 7z m-445 -20 c0 -23 -16 -36 -25 -21 -9 14 1 40
15 40 5 0 10 -9 10 -19z m94 -12 c-3 -5 -10 -7 -15 -3 -5 3 -7 10 -3 15 3 5
10 7 15 3 5 -3 7 -10 3 -15z m516 6 c0 -8 -6 -15 -14 -15 -17 0 -28 14 -19 24
12 12 33 6 33 -9z m-400 -10 c0 -8 -6 -15 -14 -15 -17 0 -28 14 -19 24 12 12
33 6 33 -9z m88 -7 c3 -13 -3 -18 -21 -18 -29 0 -37 7 -30 27 8 19 47 12 51
-9z m-248 2 c0 -5 -4 -10 -10 -10 -5 0 -10 5 -10 10 0 6 5 10 10 10 6 0 10 -4
10 -10z m320 -5 c0 -8 -7 -15 -15 -15 -8 0 -15 7 -15 15 0 8 7 15 15 15 8 0
15 -7 15 -15z m-257 -50 c-6 -18 -19 -19 -29 -4 -7 12 15 31 28 23 4 -3 5 -11
1 -19z m-53 0 c0 -8 -4 -15 -10 -15 -5 0 -10 7 -10 15 0 8 5 15 10 15 6 0 10
-7 10 -15z m130 1 c0 -16 -18 -31 -27 -22 -8 8 5 36 17 36 5 0 10 -6 10 -14z
m88 -3 c-2 -12 -14 -19 -36 -21 -35 -4 -43 11 -14 27 28 17 54 13 50 -6z
m-258 -60 c0 -18 -17 -16 -24 3 -3 9 -6 28 -5 42 l1 27 13 -30 c8 -16 14 -36
15 -42z m370 47 c0 -13 -7 -20 -20 -20 -23 0 -26 10 -8 28 18 18 28 15 28 -8z
m81 -23 c-1 -12 -15 -9 -19 4 -3 6 1 10 8 8 6 -3 11 -8 11 -12z m79 -12 c0 -8
-6 -15 -14 -15 -17 0 -28 14 -19 24 12 12 33 6 33 -9z m-313 -11 c4 -12 -56
-28 -66 -18 -9 8 31 35 48 32 8 -2 16 -8 18 -14z m-167 -10 c0 -8 -4 -12 -10
-9 -5 3 -10 10 -10 16 0 5 5 9 10 9 6 0 10 -7 10 -16z m70 1 c0 -8 -7 -15 -15
-15 -8 0 -15 7 -15 15 0 8 7 15 15 15 8 0 15 -7 15 -15z m170 6 c0 -5 -7 -12
-16 -15 -22 -9 -24 -8 -24 9 0 8 9 15 20 15 11 0 20 -4 20 -9z m89 -10 c11 -7
11 -10 0 -17 -7 -4 -14 -3 -17 4 -2 6 -9 9 -17 6 -7 -3 -16 -1 -20 5 -8 13 34
15 54 2z m87 -38 c-10 -10 -19 5 -10 18 6 11 8 11 12 0 2 -7 1 -15 -2 -18z
m-278 -19 c-5 -28 -28 -29 -28 -1 0 13 3 27 7 31 10 10 25 -10 21 -30z m352
26 c10 -6 11 -12 5 -18 -6 -6 -17 -3 -29 9 -14 14 -16 19 -5 19 8 0 21 -5 29
-10z m-430 -20 c0 -5 -7 -10 -15 -10 -8 0 -15 5 -15 10 0 6 7 10 15 10 8 0 15
-4 15 -10z m194 2 c2 -4 -4 -19 -14 -32 -17 -22 -19 -23 -25 -7 -4 9 -5 24 -1
32 6 16 31 20 40 7z m-64 -17 c0 -15 -26 -32 -36 -23 -2 3 -2 13 2 22 8 20 34
21 34 1z m150 -16 c-12 -22 -30 -25 -30 -6 0 17 21 38 32 31 4 -3 3 -14 -2
-25z m-380 11 c0 -5 -2 -10 -4 -10 -3 0 -8 5 -11 10 -3 6 -1 10 4 10 6 0 11
-4 11 -10z m58 -2 c-6 -18 -28 -21 -28 -4 0 9 7 16 16 16 9 0 14 -5 12 -12z
m412 -2 c0 -18 -30 -30 -43 -17 -5 5 -6 14 -3 20 10 16 46 13 46 -3z m75 -33
c-9 -37 -13 -40 -32 -21 -20 21 -10 48 18 48 18 0 20 -4 14 -27z m-415 -8 c14
-16 6 -35 -16 -35 -8 0 -14 10 -14 25 0 28 12 32 30 10z m479 6 c8 -5 11 -16
6 -30 -5 -18 -9 -20 -21 -10 -15 12 -20 49 -6 49 4 0 13 -4 21 -9z m-419 -15
c0 -8 -4 -17 -9 -21 -12 -7 -24 12 -16 25 9 15 25 12 25 -4z m45 -6 c7 -12
-22 -70 -35 -70 -13 0 -13 17 0 25 6 3 10 17 10 31 0 24 14 32 25 14z m60 -10
c3 -5 -1 -10 -9 -10 -9 0 -16 5 -16 10 0 6 4 10 9 10 6 0 13 -4 16 -10z m122
-6 c3 -9 0 -20 -8 -24 -15 -10 -39 6 -39 26 0 19 39 18 47 -2z m71 -17 c9 -7
9 -13 1 -23 -15 -18 -39 0 -39 28 0 19 8 18 38 -5z m-464 -2 c3 -8 1 -15 -4
-15 -6 0 -10 7 -10 15 0 8 2 15 4 15 2 0 6 -7 10 -15z m55 -19 c8 -10 9 -16 1
-21 -13 -8 -30 3 -30 21 0 18 14 18 29 0z m489 -9 c2 -12 -3 -17 -17 -17 -15
0 -21 6 -21 21 0 25 33 22 38 -4z m-428 3 c0 -5 -5 -10 -11 -10 -5 0 -7 5 -4
10 3 6 8 10 11 10 2 0 4 -4 4 -10z m178 -2 c-6 -18 -28 -21 -28 -4 0 9 7 16
16 16 9 0 14 -5 12 -12z m58 -15 c-10 -10 -19 5 -10 18 6 11 8 11 12 0 2 -7 1
-15 -2 -18z m264 -3 c0 -5 -5 -12 -11 -16 -14 -8 -33 11 -25 25 7 11 36 4 36
-9z m-205 -31 c21 -40 13 -61 -22 -57 -32 3 -46 44 -19 54 9 3 16 12 16 20 0
22 8 17 25 -17z m-355 1 c0 -5 -7 -10 -16 -10 -8 0 -12 5 -9 10 3 6 10 10 16
10 5 0 9 -4 9 -10z m627 -12 c-3 -8 -6 -5 -6 6 -1 11 2 17 5 13 3 -3 4 -12 1
-19z m-357 -2 c0 -25 -12 -46 -25 -46 -21 0 -27 17 -15 40 12 23 40 27 40 6z
m-190 -22 c0 -8 -7 -14 -15 -14 -15 0 -21 21 -9 33 10 9 24 -2 24 -19z m110 1
c0 -25 -14 -34 -24 -16 -8 12 3 41 15 41 5 0 9 -11 9 -25z m-226 -7 c3 -13 6
-35 6 -50 0 -25 4 -28 33 -28 47 0 59 -15 38 -51 -12 -22 -23 -29 -48 -29 -43
0 -51 17 -12 25 28 6 29 8 13 20 -10 7 -24 10 -32 7 -19 -7 -32 16 -32 60 0
63 21 92 34 46z m46 6 c0 -8 -5 -12 -10 -9 -6 4 -8 11 -5 16 9 14 15 11 15 -7z
m424 -25 c-7 -12 -31 -11 -39 1 -4 6 -1 18 6 26 12 14 14 14 26 -2 7 -9 10
-21 7 -25z m154 23 c2 -7 -3 -12 -12 -12 -9 0 -16 7 -16 16 0 17 22 14 28 -4z
m-456 -7 c0 -5 -5 -11 -11 -13 -6 -2 -11 4 -11 13 0 9 5 15 11 13 6 -2 11 -8
11 -13z m373 -5 c3 -5 2 -17 -3 -26 -8 -14 -10 -14 -21 0 -13 15 -8 36 9 36 5
0 12 -4 15 -10z m80 -31 c10 -15 -1 -23 -20 -15 -9 3 -13 10 -10 16 8 13 22
13 30 -1z m-423 -21 c-6 -6 -16 -7 -22 -3 -9 6 -9 9 1 16 17 10 34 0 21 -13z
m126 -6 c3 -9 -2 -13 -14 -10 -9 1 -19 9 -22 16 -3 9 2 13 14 10 9 -1 19 -9
22 -16z m92 -2 c0 -5 -9 -10 -20 -10 -11 0 -20 5 -20 10 0 6 9 10 20 10 11 0
20 -4 20 -10z m80 -9 c0 -6 -4 -12 -9 -15 -13 -8 -42 4 -35 15 7 12 44 12 44
0z m75 -10 c10 -18 -17 -23 -33 -7 -15 15 -15 16 5 16 12 0 24 -4 28 -9z
m-331 -9 c9 -15 -12 -35 -29 -28 -14 5 -15 9 -5 21 14 17 26 19 34 7z m-74
-17 c0 -8 -7 -15 -15 -15 -16 0 -20 12 -8 23 11 12 23 8 23 -8z m178 -12 c3
-19 -1 -23 -25 -23 -22 0 -25 -2 -13 -10 8 -5 25 -10 38 -10 12 0 22 -4 22 -9
0 -15 -18 -23 -25 -11 -3 5 -19 10 -35 10 -30 0 -40 15 -40 56 0 23 3 25 38
22 30 -2 38 -7 40 -25z m85 5 c25 -19 7 -41 -26 -32 -17 4 -27 13 -27 25 0 22
28 25 53 7z m157 -23 c11 -10 20 -22 20 -27 0 -14 -58 -9 -63 6 -4 9 -14 12
-26 9 -20 -5 -51 11 -51 26 0 3 22 6 50 5 33 0 56 -6 70 -19z m68 -19 c3 -12
-1 -17 -10 -14 -7 3 -15 13 -16 22 -3 12 1 17 10 14 7 -3 15 -13 16 -22z
m-498 10 c0 -11 -19 -15 -25 -6 -3 5 1 10 9 10 9 0 16 -2 16 -4z m570 -27 c0
-11 -4 -17 -10 -14 -5 3 -10 13 -10 21 0 8 5 14 10 14 6 0 10 -9 10 -21z
m-760 3 c0 -14 -11 -21 -26 -15 -21 8 -17 23 6 23 11 0 20 -4 20 -8z m156 -12
c29 0 32 -26 5 -35 -21 -6 -91 23 -91 38 0 5 14 7 31 3 17 -3 42 -6 55 -6z
m322 -5 c-3 -12 -29 -8 -43 7 -7 6 -1 8 18 6 15 -2 26 -7 25 -13z m82 -14 c14
-28 12 -41 -6 -41 -10 0 -14 5 -10 15 3 9 -1 18 -9 21 -8 4 -12 10 -9 15 9 15
23 10 34 -10z m-168 -9 c18 -18 -8 -23 -108 -20 -78 3 -89 5 -92 22 -4 17 2
18 92 14 54 -2 101 -9 108 -16z m235 12 c-3 -3 -12 -4 -19 -1 -8 3 -5 6 6 6
11 1 17 -2 13 -5z m282 -10 c34 -24 12 -40 -28 -20 -17 9 -31 21 -31 26 0 15
33 12 59 -6z m-404 -14 c3 -5 -1 -10 -9 -10 -8 0 -18 5 -21 10 -3 6 1 10 9 10
8 0 18 -4 21 -10z m205 0 c0 -5 -4 -10 -10 -10 -5 0 -10 5 -10 10 0 6 5 10 10
10 6 0 10 -4 10 -10z m-50 -20 c12 -8 9 -10 -13 -10 -16 0 -26 4 -22 10 8 12
16 12 35 0z m341 -40 c10 -6 19 -17 19 -26 0 -12 -7 -11 -40 6 -22 11 -40 23
-40 25 0 9 41 5 61 -5z m-331 -10 c0 -13 -11 -13 -30 0 -12 8 -11 10 8 10 12
0 22 -4 22 -10z m75 -4 c18 -13 18 -14 -4 -21 -25 -8 -47 7 -37 24 9 14 18 14
41 -3z m110 -28 c7 -8 2 -9 -15 -4 -14 3 -31 6 -37 6 -7 0 -13 5 -13 11 0 13
50 3 65 -13z m105 -8 c8 -5 12 -11 9 -14 -7 -8 -49 5 -49 15 0 12 21 11 40 -1z
m238 -22 c16 -16 15 -28 -2 -28 -17 0 -38 24 -29 33 9 10 17 9 31 -5z m-233
-18 c3 -5 -1 -10 -10 -10 -9 0 -13 5 -10 10 3 6 8 10 10 10 2 0 7 -4 10 -10z
m135 -16 c41 -8 79 -19 85 -25 9 -9 -5 -8 -134 10 -24 3 -46 12 -49 19 -5 16
7 15 98 -4z"/>
<path d="M11533 4494 c-10 -27 12 -38 41 -19 14 10 26 21 26 26 0 16 -60 10
-67 -7z"/>
<path d="M10864 3890 c-24 -9 -39 -28 -30 -37 3 -3 19 0 36 7 26 11 33 10 50
-5 18 -17 50 -15 50 3 0 10 -54 42 -72 41 -7 0 -23 -4 -34 -9z"/>
<path d="M10790 3823 c0 -5 4 -14 9 -22 7 -11 4 -18 -12 -26 -23 -11 -33 -50
-23 -91 6 -24 35 -32 70 -18 15 6 15 8 -1 19 -15 11 -15 17 -5 39 15 33 29 33
64 -1 25 -24 28 -25 28 -7 0 30 -25 60 -76 88 -51 28 -54 30 -54 19z"/>
<path d="M10650 3562 c0 -7 9 -29 20 -49 11 -21 20 -45 21 -53 0 -8 5 -4 10 9
5 13 7 32 4 41 -7 22 -55 67 -55 52z"/>
<path d="M10421 3541 c-23 -15 2 -37 62 -57 29 -9 62 -24 75 -32 17 -11 26
-12 34 -4 7 7 10 13 7 15 -2 1 -29 22 -60 45 -55 41 -90 51 -118 33z"/>
<path d="M9356 3094 c-9 -23 3 -37 27 -30 15 4 34 -7 68 -39 38 -36 56 -45 83
-45 41 0 51 -12 34 -40 -10 -16 -19 -19 -40 -14 -23 5 -28 2 -28 -14 0 -35
-61 -50 -206 -50 -72 0 -138 4 -145 9 -9 6 2 9 33 9 54 0 145 18 153 29 2 5
-28 7 -68 5 l-72 -3 73 18 c40 10 76 21 79 25 14 14 -9 19 -42 9 -19 -6 -37
-7 -40 -3 -5 9 84 40 112 40 7 0 13 7 13 15 0 17 -22 14 -95 -12 -66 -23 -97
-31 -157 -38 -83 -9 -126 -56 -94 -100 12 -17 34 -20 171 -29 136 -8 163 -7
209 7 29 10 69 17 89 17 l37 0 0 -72 c0 -41 9 -104 20 -143 11 -38 20 -83 20
-98 0 -35 41 -116 82 -163 33 -38 137 -94 173 -94 11 0 42 -7 69 -15 65 -20
225 -20 273 0 19 8 44 15 54 15 51 0 480 203 519 245 28 31 28 31 -60 -12
-244 -120 -468 -215 -490 -208 -9 3 -38 -2 -66 -10 -88 -27 -261 -13 -235 19
6 7 29 18 51 25 22 6 40 16 40 21 0 14 -10 13 -82 -10 -34 -11 -73 -20 -84
-20 -35 0 -97 29 -132 63 -33 32 -84 148 -97 222 -4 22 -13 59 -21 83 -25 76
-17 158 14 143 10 -4 49 -18 87 -31 88 -28 177 -78 234 -129 24 -23 77 -54
119 -72 77 -32 192 -51 192 -31 0 14 -25 22 -76 22 -67 0 -234 81 -204 100 6
4 62 -3 123 -16 128 -26 137 -27 137 -15 0 11 -125 41 -170 41 -39 0 -166 63
-180 90 -6 11 -20 25 -32 31 -19 10 -20 9 -15 -10 4 -17 1 -21 -18 -21 -26 0
-157 57 -167 74 -4 6 -5 32 -2 58 6 45 5 48 -20 58 -15 5 -42 10 -60 10 -21 0
-40 8 -52 21 -30 34 -95 79 -114 79 -10 0 -21 -7 -24 -16z m-199 -160 c-3 -3
-12 -4 -19 -1 -8 3 -5 6 6 6 11 1 17 -2 13 -5z"/>
<path d="M2760 2940 c-72 -10 -130 -36 -130 -57 0 -10 18 -34 40 -54 l40 -36
-14 -44 c-40 -130 -46 -210 -20 -261 25 -48 90 -113 158 -157 96 -63 100 -76
88 -301 -8 -146 -7 -200 4 -260 8 -41 19 -122 24 -180 6 -58 14 -131 19 -162
5 -37 4 -61 -3 -68 -7 -7 -7 -16 2 -30 17 -28 -1 -34 -56 -16 -62 20 -257 56
-304 56 l-38 0 0 89 c0 124 -32 196 -97 215 -31 10 -37 -9 -7 -23 36 -16 55
-71 61 -179 5 -74 3 -96 -8 -103 -31 -20 -36 -8 -48 112 -13 128 -22 162 -49
192 -11 13 -16 37 -17 77 0 48 4 63 23 83 l23 25 -52 -2 -53 -1 -24 75 c-27
83 -42 207 -24 196 15 -9 21 15 9 42 -25 54 -60 -4 -61 -101 -1 -91 24 -167
74 -221 36 -39 38 -46 53 -156 9 -64 25 -139 36 -168 12 -29 24 -77 27 -106 6
-49 4 -57 -19 -80 -14 -14 -22 -28 -17 -31 30 -19 -58 -105 -130 -126 -53 -16
-207 -7 -250 14 -93 46 -86 37 -93 144 -8 117 -3 227 12 265 6 15 10 69 9 120
-3 216 0 273 26 378 20 82 31 109 51 125 14 12 25 28 25 37 0 33 49 76 98 87
27 5 57 8 68 6 10 -2 31 -6 45 -9 20 -4 29 -15 38 -48 22 -71 40 -101 61 -95
19 5 30 -16 30 -59 0 -11 12 -31 26 -45 24 -23 26 -28 22 -97 -4 -50 -1 -75 8
-82 16 -14 44 24 44 58 0 29 24 24 28 -6 5 -32 -16 -62 -50 -74 -38 -14 -18
-28 29 -21 25 4 35 13 46 42 14 33 14 39 -3 66 -10 17 -27 34 -39 40 -20 9
-31 33 -31 71 0 12 -18 48 -40 80 -22 33 -40 64 -40 70 0 6 -28 38 -62 71 -48
45 -75 62 -110 71 -41 10 -48 16 -48 36 0 27 21 38 75 38 50 0 73 -18 86 -65
6 -23 13 -48 15 -54 4 -15 14 -16 32 -4 11 6 11 17 3 48 -17 62 -76 103 -150
103 -50 0 -105 -36 -109 -72 -4 -30 -65 -83 -86 -75 -7 3 -23 37 -36 75 -18
59 -27 72 -50 81 -16 5 -38 19 -49 30 -30 30 -74 27 -113 -7 -27 -25 -32 -36
-32 -80 -1 -28 2 -54 6 -58 13 -12 38 18 38 46 0 15 8 38 18 50 14 18 22 20
43 11 16 -5 29 -20 33 -35 4 -16 20 -33 45 -45 49 -26 85 -90 70 -129 -6 -15
-14 -31 -19 -37 -20 -25 -60 -149 -80 -250 -18 -93 -20 -129 -15 -235 5 -76 3
-155 -4 -200 -6 -41 -12 -128 -13 -192 -3 -104 -1 -120 18 -144 23 -32 30 -36
107 -60 74 -23 95 -37 81 -55 -17 -22 -24 -77 -14 -104 16 -42 25 -28 27 42 2
67 12 86 43 80 14 -2 16 -16 21 -134 1 -31 30 -30 68 3 17 14 47 30 66 35 19
6 35 14 35 19 0 14 -22 12 -63 -5 -57 -24 -67 -20 -67 23 0 53 16 71 86 94 32
11 71 31 86 45 15 14 37 31 49 37 22 11 33 26 43 59 8 26 45 21 58 -8 14 -30
31 -32 49 -4 14 20 16 20 74 4 33 -8 92 -15 130 -14 47 2 83 -3 110 -15 30
-13 78 -18 192 -21 83 -3 162 -9 175 -14 13 -5 58 -12 99 -16 42 -4 82 -11 89
-15 17 -11 4 -29 -18 -24 -9 2 -30 0 -47 -5 l-30 -9 35 -1 c20 -1 44 -7 55
-15 15 -10 71 -14 230 -16 238 -3 235 -3 215 10 -8 5 -70 10 -137 10 -107 0
-123 2 -123 16 0 13 -7 15 -33 11 -19 -3 -40 -1 -48 3 -23 15 14 23 55 12 27
-8 38 -7 47 4 14 17 45 18 55 3 4 -6 20 -8 40 -4 18 3 130 8 248 10 206 3 216
3 242 -17 24 -20 35 -21 165 -15 146 6 241 -3 292 -30 29 -14 33 -14 64 3 30
16 39 16 84 5 39 -10 60 -10 99 -1 28 7 50 18 50 25 0 10 -7 11 -35 2 -25 -7
-42 -7 -60 1 -41 19 -31 35 18 27 l42 -6 -32 26 c-18 15 -33 30 -33 35 0 5 11
21 25 36 28 30 27 26 49 172 9 57 24 118 32 135 13 24 14 35 5 49 -6 10 -11
49 -11 88 0 57 4 74 20 90 44 44 53 23 40 -87 -25 -219 -62 -401 -92 -452 -13
-23 -16 -37 -9 -44 7 -7 21 13 45 62 41 87 52 101 78 101 16 0 19 -5 15 -25
-4 -23 -3 -24 12 -12 18 17 112 24 451 37 124 5 253 11 288 13 35 3 113 8 173
12 144 9 315 -9 346 -37 19 -18 29 -19 100 -11 74 8 77 9 53 23 -45 25 -336
60 -495 60 -55 -1 -135 2 -177 5 -54 5 -78 3 -78 -5 0 -8 -6 -8 -21 1 -12 6
-36 8 -55 4 -19 -3 -60 -8 -92 -11 -34 -3 -62 -11 -69 -20 -6 -8 -14 -11 -17
-6 -10 16 -246 20 -375 7 l-74 -8 6 104 c3 57 10 117 16 132 6 16 11 59 11 97
0 83 8 90 100 90 71 0 73 -3 89 -113 5 -38 15 -75 22 -83 15 -18 60 -18 85 1
25 19 51 19 62 -1 8 -14 10 -14 21 0 16 19 7 34 -26 47 -25 9 -25 11 -21 95 3
65 1 87 -9 91 -7 3 -13 20 -13 40 0 25 -8 43 -30 65 -30 29 -31 29 -98 21 -37
-4 -92 -8 -122 -8 l-54 0 -1 115 c-1 63 -7 151 -13 194 -16 105 -4 126 67 126
27 0 77 9 112 19 35 11 98 24 139 31 64 10 107 19 167 36 16 4 53 64 53 85 0
9 -7 22 -16 30 -13 10 -19 8 -40 -14 -19 -20 -34 -27 -64 -27 -21 0 -51 -5
-67 -11 -31 -13 -58 -20 -153 -44 -35 -9 -72 -23 -81 -31 -22 -20 -173 -32
-183 -16 -4 6 0 25 9 41 27 53 20 90 -25 133 -23 21 -49 38 -58 37 -34 -1
-107 -45 -129 -78 -29 -43 -29 -53 1 -88 23 -26 23 -30 9 -56 -8 -16 -12 -40
-9 -53 5 -20 0 -27 -33 -43 -45 -23 -120 -51 -138 -51 -32 0 -7 19 63 50 41
18 72 36 67 41 -14 13 -151 -27 -184 -55 -18 -15 -48 -35 -68 -46 -40 -21
-101 -76 -101 -91 0 -22 31 -19 86 9 81 41 248 102 277 102 27 0 37 -21 37
-75 0 -17 16 -62 35 -99 19 -38 35 -75 35 -84 0 -8 9 -29 19 -46 60 -98 64
-261 15 -583 -8 -49 -1 -48 -132 -29 -53 8 -184 15 -292 16 -107 1 -204 2
-215 2 -11 1 -38 0 -60 -1 -40 -3 -40 -3 -12 -14 37 -15 34 -25 -10 -30 -35
-3 -35 -4 9 -5 28 -1 52 3 60 11 8 9 21 11 33 6 29 -11 47 -11 40 1 -3 6 -2
10 3 10 6 0 13 -7 16 -16 3 -9 11 -12 18 -8 18 12 150 11 170 0 11 -7 29 -6
57 4 30 10 67 11 143 5 57 -4 114 -8 126 -9 22 -1 23 -5 19 -38 -3 -20 -12
-51 -21 -67 -9 -17 -23 -44 -32 -61 -20 -40 -48 -45 -154 -31 -77 11 -100 10
-171 -4 -50 -10 -101 -15 -129 -11 -25 3 -85 10 -134 16 -49 6 -108 17 -132
25 -25 8 -70 18 -102 22 -51 6 -56 5 -44 -9 16 -20 10 -24 -49 -32 -51 -7
-107 7 -76 19 47 19 -2 67 -64 63 l-44 -3 3 62 c3 52 0 65 -17 82 -28 28 -28
21 5 419 6 64 17 80 28 37 4 -14 11 -25 17 -25 7 0 9 9 5 23 -20 67 -18 128 4
194 21 63 88 183 136 240 l20 25 -26 27 c-22 22 -28 39 -34 100 -8 90 1 171
20 171 7 0 17 -17 22 -37 13 -56 32 -179 32 -212 0 -27 1 -28 38 -20 20 5 49
11 65 14 25 5 27 9 27 50 0 24 4 46 9 49 5 3 18 26 30 50 41 89 113 123 157
75 24 -27 24 -117 0 -154 -9 -13 -16 -36 -16 -50 0 -36 29 -30 49 10 9 17 26
47 39 67 29 46 24 84 -20 134 -62 70 -120 79 -180 29 -19 -16 -42 -25 -64 -25
-27 0 -37 -5 -46 -26 -10 -21 -9 -31 6 -59 17 -31 17 -35 1 -69 -18 -37 -38
-46 -52 -23 -4 6 -13 44 -19 82 -24 139 -38 200 -48 207 -13 9 -53 -11 -62
-31 -12 -30 -17 -316 -5 -339 9 -16 7 -30 -8 -64 -10 -24 -26 -50 -36 -58 -23
-19 -54 -89 -89 -203 -23 -73 -34 -92 -63 -115 -83 -63 -95 -77 -103 -122 -12
-62 14 -178 56 -261 19 -36 34 -80 34 -97 0 -23 7 -36 26 -49 23 -15 26 -21
21 -62 -9 -84 -83 -107 -169 -52 -49 31 -49 30 -63 161 -4 30 -13 96 -22 145
-8 50 -23 153 -33 230 -22 162 -37 237 -56 282 -7 17 -16 65 -20 106 l-6 74
33 13 c19 8 61 36 95 62 33 26 72 52 85 58 72 32 129 98 198 230 22 41 58 93
80 115 23 21 41 45 41 51 0 7 -12 22 -27 33 -23 19 -29 20 -47 7 -16 -10 -21
-24 -21 -56 0 -28 -5 -45 -14 -48 -11 -4 -13 8 -9 57 4 59 3 62 -20 68 -32 8
-52 -18 -52 -67 0 -50 -103 -222 -162 -270 -52 -43 -173 -93 -213 -88 -26 3
-30 7 -31 36 -2 37 -23 64 -76 98 -47 30 -59 30 -119 -3 -44 -23 -51 -32 -66
-81 -10 -30 -23 -56 -29 -59 -23 -9 -93 18 -112 42 -22 28 -33 96 -34 223 -1
57 -5 86 -15 94 -24 20 -32 -3 -39 -113 -6 -93 -4 -110 14 -150 22 -50 74
-109 95 -109 22 0 45 -32 49 -70 3 -31 0 -35 -23 -38 -36 -4 -146 80 -173 133
-17 32 -21 56 -19 125 1 47 7 105 13 130 24 90 24 108 1 122 -24 15 -29 43 -6
34 8 -3 19 2 24 12 9 15 13 13 42 -15 36 -38 49 -41 49 -14 0 10 11 29 24 42
47 45 18 56 -104 39z m908 -298 c-18 -29 -44 -70 -58 -93 -14 -22 -41 -50 -60
-62 -19 -11 -64 -47 -100 -79 -64 -57 -124 -88 -140 -72 -4 5 -6 23 -3 39 4
27 16 36 110 84 110 56 145 85 228 188 58 72 71 69 23 -5z m1303 -18 c10 -32
14 -57 8 -65 -16 -25 -9 -50 20 -75 37 -30 41 -55 50 -281 5 -123 12 -187 21
-198 10 -12 37 -15 135 -15 90 0 125 -4 134 -13 13 -17 17 -97 7 -154 -7 -39
-6 -41 13 -36 18 5 21 1 21 -29 0 -41 -21 -74 -43 -65 -14 5 -18 18 -32 98 -3
21 -15 49 -27 64 l-21 27 -126 -3 -126 -4 -48 134 c-29 81 -60 150 -79 174
-31 38 -32 43 -30 130 1 75 4 94 18 104 13 10 19 31 22 79 4 60 3 66 -17 71
-17 4 -20 10 -15 27 31 101 86 115 115 30z m-881 -40 c0 -8 -9 -14 -20 -14
-18 0 -19 3 -10 20 12 22 30 18 30 -6z m-904 -39 c33 -31 36 -38 29 -67 -13
-60 -11 -71 15 -78 19 -4 26 -15 31 -40 4 -19 10 -50 14 -68 l8 -33 -37 6
c-20 4 -48 4 -62 1 -22 -6 -24 -9 -13 -22 9 -11 27 -15 61 -12 56 3 47 21 93
-174 41 -174 112 -620 115 -720 0 -13 -39 -19 -58 -9 -13 7 -25 34 -37 83 -10
40 -27 89 -37 109 -10 20 -25 69 -34 110 -10 50 -26 90 -50 124 -27 40 -34 60
-34 97 0 59 -7 78 -31 78 -11 0 -16 5 -13 14 6 16 -23 30 -32 15 -3 -6 -3 -93
2 -192 10 -221 9 -242 -7 -335 -11 -64 -15 -73 -37 -79 -39 -10 -59 23 -66
110 -7 96 -25 290 -37 407 -10 98 -3 288 12 328 8 20 15 22 83 22 62 0 74 3
70 15 -4 10 -27 15 -87 17 -67 2 -81 6 -78 18 2 8 5 35 8 60 8 89 10 91 47 85
37 -8 54 6 31 25 -21 17 -19 53 5 100 18 35 25 40 54 40 26 0 44 -9 72 -35z
m2321 19 c2 -7 -33 -20 -89 -33 -51 -12 -103 -24 -115 -27 -17 -5 -23 -2 -23
10 0 9 12 18 28 22 15 3 56 14 92 24 70 20 101 21 107 4z m-269 -72 c2 -8 -9
-12 -35 -12 -38 1 -38 1 -13 15 28 16 42 15 48 -3z m-628 -150 c0 -10 -70 -45
-77 -39 -2 3 8 14 23 26 27 21 54 28 54 13z m-941 -461 c23 -15 -3 -281 -27
-281 -5 0 -15 21 -25 48 -35 101 -34 168 4 216 22 28 27 30 48 17z m-448 -223
c10 -42 34 -116 53 -164 19 -49 37 -110 41 -135 l7 -47 -52 -11 c-69 -15 -132
-14 -154 2 -18 13 -17 15 2 53 32 63 46 150 43 272 -1 62 1 117 5 123 13 21
35 -17 55 -93z m126 -404 c6 -17 -18 -22 -62 -14 -39 7 -39 7 -15 18 30 14 72
11 77 -4z m453 7 c0 -10 -24 -21 -46 -21 -8 0 -14 4 -14 9 0 8 10 12 53 20 4
0 7 -3 7 -8z m-230 -11 c0 -13 -11 -13 -30 0 -12 8 -11 10 8 10 12 0 22 -4 22
-10z"/>
<path d="M3095 2430 c-4 -6 3 -10 14 -10 25 0 27 6 6 13 -8 4 -17 2 -20 -3z"/>
<path d="M9691 2876 c12 -10 59 -15 59 -6 0 5 -14 10 -32 10 -17 0 -29 -2 -27
-4z"/>
<path d="M10770 2745 c0 -8 6 -15 14 -15 8 0 16 7 20 15 4 10 -1 15 -14 15
-11 0 -20 -7 -20 -15z"/>
<path d="M10575 2740 c-16 -4 -60 -8 -96 -9 -38 -1 -73 -7 -84 -15 -17 -12 -8
-14 77 -12 54 1 103 7 110 14 8 6 25 8 37 5 18 -4 22 -2 19 8 -6 17 -23 19
-63 9z"/>
<path d="M10703 2733 c9 -2 23 -2 30 0 6 3 -1 5 -18 5 -16 0 -22 -2 -12 -5z"/>
<path d="M10293 2697 c-50 -9 -73 -27 -37 -27 27 0 94 23 94 32 0 4 -1 7 -2 7
-2 -1 -27 -6 -55 -12z"/>
<path d="M10600 2691 c0 -5 9 -11 20 -14 24 -6 27 8 4 17 -21 8 -24 8 -24 -3z"/>
<path d="M10589 2633 c24 -10 49 -12 83 -8 76 11 56 25 -34 24 -82 -1 -83 -1
-49 -16z"/>
<path d="M10768 2643 c6 -2 18 -2 25 0 6 3 1 5 -13 5 -14 0 -19 -2 -12 -5z"/>
<path d="M10255 2590 c-4 -6 -5 -14 -2 -17 4 -3 73 -12 154 -19 81 -8 153 -16
159 -18 14 -5 115 13 134 25 9 5 -25 6 -86 2 -115 -7 -174 1 -174 23 0 11 -6
13 -27 7 -35 -10 -90 -9 -124 1 -17 5 -29 4 -34 -4z"/>
<path d="M1834 2434 c3 -9 6 -18 6 -20 0 -11 29 -2 33 10 7 18 -1 26 -26 26
-13 0 -17 -5 -13 -16z"/>
<path d="M4205 2398 c-2 -7 -5 -67 -7 -133 -4 -109 -7 -127 -37 -197 -18 -43
-37 -78 -41 -78 -5 0 -30 -39 -56 -87 -65 -122 -66 -123 -137 -123 -59 0 -62
1 -104 45 -24 26 -43 39 -43 31 0 -20 58 -86 75 -86 7 0 23 -8 35 -18 21 -17
21 -19 5 -62 -8 -25 -25 -92 -36 -150 -35 -185 -34 -170 -11 -170 32 0 45 35
53 148 4 57 12 108 17 115 5 7 12 26 16 42 4 17 30 53 59 80 51 51 213 299
224 345 3 14 10 30 15 37 5 6 12 70 15 142 5 129 5 131 -16 131 -12 0 -23 -6
-26 -12z"/>
<path d="M10020 2390 c0 -5 4 -10 9 -10 6 0 13 5 16 10 3 6 -1 10 -9 10 -9 0
-16 -4 -16 -10z"/>
<path d="M1741 2314 c-12 -15 -26 -44 -31 -65 -8 -30 -17 -40 -43 -48 -18 -6
-76 -54 -130 -107 -108 -105 -116 -124 -60 -156 l32 -19 80 40 c44 23 82 37
85 32 3 -5 -6 -57 -19 -117 -21 -94 -25 -134 -25 -291 0 -201 12 -286 38 -281
10 2 17 13 17 28 0 21 6 26 33 28 31 3 33 2 22 -17 -10 -19 -8 -21 19 -21 33
0 81 19 81 31 0 5 -12 12 -27 15 -120 28 -127 31 -135 56 -11 31 6 78 27 78
12 0 13 5 4 28 -11 27 -14 335 -4 352 3 5 1 11 -5 15 -5 3 -10 17 -10 31 0 21
4 24 20 19 17 -5 20 -2 20 24 0 23 -4 29 -15 25 -18 -7 -21 26 -4 43 8 8 7 16
-1 30 -10 15 -8 33 8 88 27 93 46 143 60 157 16 16 15 28 -2 28 -8 0 -24 -12
-35 -26z m-59 -214 c-4 -63 -23 -100 -52 -100 -14 0 -20 7 -20 22 0 19 -4 17
-25 -15 -15 -21 -34 -37 -45 -37 -10 0 -25 -3 -34 -6 -9 -3 -18 0 -21 8 -8 21
159 191 182 186 15 -3 17 -12 15 -58z m1 -333 c7 -18 -3 -67 -14 -67 -5 0 -9
18 -9 40 0 39 13 54 23 27z m-12 -130 c-8 -8 -11 -3 -11 19 1 25 2 27 11 11 8
-14 8 -22 0 -30z m122 -294 c-7 -2 -19 -2 -25 0 -7 3 -2 5 12 5 14 0 19 -2 13
-5z"/>
<path d="M4094 2303 c-17 -79 -46 -164 -68 -196 -26 -37 -70 -166 -61 -175 7
-7 6 -10 69 126 61 131 96 223 96 254 0 28 -29 21 -36 -9z"/>
<path d="M1810 2243 c0 -24 10 -38 38 -52 35 -19 37 -7 5 33 -31 40 -43 45
-43 19z"/>
<path d="M4052 1439 c-9 -11 -26 -25 -37 -29 -19 -7 -19 -8 -2 -15 12 -5 26 0
41 14 12 11 29 21 38 21 9 0 18 7 22 15 9 24 -41 19 -62 -6z"/>
<path d="M6865 1428 c-110 -4 -209 -13 -220 -18 -13 -7 45 -8 180 -3 110 4
227 7 260 6 72 -3 125 4 125 17 0 11 -55 11 -345 -2z"/>
<path d="M7240 1421 c0 -12 26 -21 62 -21 26 0 29 2 18 15 -13 16 -80 21 -80
6z"/>
<path d="M8000 1400 c-94 -4 -67 -6 145 -11 243 -5 275 -5 264 5 -8 7 -295 11
-409 6z"/>
<path d="M7376 1391 c-6 -8 103 -25 111 -17 3 3 2 9 -2 15 -7 13 -101 15 -109
2z"/>
<path d="M7618 1393 c-56 -3 -88 -8 -88 -15 0 -7 21 -9 68 -5 37 4 84 7 105 7
20 0 37 5 37 10 0 6 -8 9 -17 8 -10 -1 -57 -4 -105 -5z"/>
<path d="M1324 1368 c-8 -13 54 -35 125 -42 61 -7 129 -31 118 -43 -3 -3 -22
0 -42 7 -31 10 -40 10 -52 -3 -9 -8 -12 -20 -9 -26 17 -27 136 1 136 32 0 7
-21 21 -47 31 -64 25 -222 55 -229 44z"/>
<path d="M3900 1259 c0 -5 5 -7 10 -4 6 3 10 8 10 11 0 2 -4 4 -10 4 -5 0 -10
-5 -10 -11z"/>
<path d="M6690 1240 c-10 -6 34 -10 129 -10 79 0 142 2 140 4 -9 10 -255 15
-269 6z"/>
<path d="M7025 1220 c11 -5 41 -9 68 -9 39 -1 47 -4 47 -20 0 -17 4 -18 37
-11 21 5 42 5 48 1 9 -6 578 -8 660 -1 l30 2 -35 8 c-19 5 -157 11 -307 15
-150 3 -310 10 -355 15 -105 12 -221 12 -193 0z"/>
<path d="M8167 1209 c-165 -6 -199 -11 -185 -24 5 -5 192 -7 383 -5 55 1 178
-1 272 -5 169 -7 223 -4 223 14 0 20 -412 31 -693 20z"/>
<path d="M9230 1198 c-25 -3 -73 -4 -106 -1 -42 4 -64 2 -69 -6 -13 -22 6 -26
110 -23 108 3 578 -13 699 -24 56 -6 68 -4 64 7 -3 9 -31 18 -74 25 -38 5 -76
13 -84 16 -22 10 -487 15 -540 6z"/>
<path d="M8884 1191 c7 -11 73 -22 92 -14 27 10 2 23 -47 23 -28 0 -48 -4 -45
-9z"/>
<path d="M7045 1170 c3 -5 15 -10 25 -10 10 0 22 5 25 10 4 6 -7 10 -25 10
-18 0 -29 -4 -25 -10z"/>
<path d="M2952 1148 c-15 -15 -15 -48 -2 -82 8 -22 14 -25 42 -20 76 13 138
35 138 49 0 11 -6 12 -29 4 -31 -11 -98 -8 -119 5 -7 4 -10 17 -6 32 7 26 -5
31 -24 12z"/>
<path d="M3083 1147 c37 -7 72 -18 76 -26 7 -11 18 -11 65 0 112 25 96 34 -61
36 -142 1 -145 1 -80 -10z"/>
<path d="M9972 1141 c-12 -7 103 -33 152 -35 16 -1 31 5 33 12 3 9 -11 12 -54
12 -32 0 -72 4 -89 9 -17 5 -36 6 -42 2z"/>
<path d="M3970 1123 c-65 -5 -93 -23 -34 -23 66 0 144 12 138 21 -3 5 -15 8
-27 7 -12 -1 -47 -3 -77 -5z"/>
<path d="M4148 1123 c7 -3 16 -2 19 1 4 3 -2 6 -13 5 -11 0 -14 -3 -6 -6z"/>
</g>
</svg>
