<?xml version="1.0" standalone="no"?>
<!DOCTYPE svg PUBLIC "-//W3C//DTD SVG 20010904//EN"
 "http://www.w3.org/TR/2001/REC-SVG-20010904/DTD/svg10.dtd">
<svg version="1.0" xmlns="http://www.w3.org/2000/svg"
 width="1280.000000pt" height="824.000000pt" viewBox="0 0 1280.000000 824.000000"
 preserveAspectRatio="xMidYMid meet">
<metadata>
Created by potrace 1.15, written by Peter Selinger 2001-2017
</metadata>
<g transform="translate(0.000000,824.000000) scale(0.100000,-0.100000)"
fill="#000000" stroke="none">
<path d="M9865 8229 c-55 -4 -143 -17 -195 -28 -52 -11 -107 -21 -122 -21 -14
0 -28 -4 -30 -10 -1 -5 -48 -26 -103 -47 -112 -43 -143 -58 -133 -68 3 -4 28
3 55 15 26 12 75 30 108 41 33 11 69 25 80 30 11 5 67 20 125 34 86 20 140 26
301 31 178 5 204 3 280 -16 46 -12 108 -25 137 -30 29 -5 106 -34 170 -66 111
-53 122 -62 221 -162 149 -154 202 -240 240 -390 49 -188 3 -369 -125 -500
-31 -31 -69 -75 -84 -97 -27 -39 -102 -86 -116 -72 -3 3 21 38 55 77 66 76
108 151 137 242 15 50 16 68 6 135 -18 128 -23 147 -53 181 -16 18 -35 45 -44
62 -61 118 -146 197 -260 241 -44 17 -85 35 -91 40 -6 5 -80 34 -165 65 l-154
55 -195 -11 c-222 -12 -305 -29 -436 -87 -49 -22 -115 -50 -147 -63 -61 -25
-148 -89 -96 -71 14 5 81 37 149 71 145 73 268 106 438 120 64 5 149 12 188
16 54 5 79 3 105 -9 19 -8 59 -23 89 -32 30 -10 129 -54 220 -99 l165 -81 87
-109 c103 -128 122 -164 144 -270 16 -77 16 -82 -6 -170 -13 -50 -29 -105 -36
-122 -12 -29 -129 -144 -146 -144 -16 0 -7 42 17 78 69 104 49 301 -47 465
-47 80 -180 217 -242 246 -83 41 -313 53 -490 26 -255 -38 -452 -110 -598
-218 -31 -23 -92 -67 -135 -99 -109 -79 -213 -176 -229 -214 -7 -18 -31 -49
-53 -70 -45 -44 -163 -234 -184 -297 -8 -23 -22 -64 -31 -92 -51 -146 -58
-180 -58 -282 1 -109 26 -219 60 -264 10 -13 24 -39 32 -57 15 -39 67 -82 99
-82 21 0 40 -25 27 -37 -10 -10 -105 15 -161 43 -80 38 -139 106 -181 204 -70
166 -67 155 -66 308 1 80 -2 142 -8 142 -15 0 -18 -30 -16 -175 2 -128 5 -148
34 -233 17 -51 45 -112 61 -135 47 -66 126 -146 157 -158 l29 -11 -24 -9 c-17
-7 -46 -4 -95 7 -85 20 -152 52 -201 96 -54 47 -129 167 -155 248 -22 69 -23
80 -17 288 4 120 12 235 18 257 15 55 142 315 171 351 35 42 90 144 78 144 -5
0 -25 -24 -45 -52 -19 -29 -53 -77 -74 -107 -22 -30 -61 -95 -86 -145 -26 -50
-52 -101 -60 -114 -8 -15 -11 -45 -8 -85 4 -49 0 -73 -18 -117 -19 -47 -23
-78 -27 -215 -4 -142 -2 -166 16 -218 31 -87 108 -211 171 -272 72 -73 134
-100 241 -110 144 -13 329 -15 335 -5 3 6 27 10 53 10 54 0 166 37 211 69 17
12 35 20 40 17 5 -4 22 -38 36 -77 15 -39 41 -87 58 -106 30 -34 137 -113 218
-161 21 -13 39 -30 39 -37 0 -17 -72 -145 -116 -207 -47 -67 -68 -110 -103
-221 -35 -111 -55 -259 -40 -309 20 -71 15 -80 -69 -124 -100 -54 -127 -60
-145 -34 -24 35 -116 70 -183 70 -55 0 -66 4 -119 41 -32 22 -64 47 -72 55 -8
8 -18 14 -23 14 -5 0 -29 17 -53 38 -24 21 -80 60 -123 86 -43 26 -110 71
-148 101 -38 30 -98 68 -133 85 -34 17 -75 41 -90 54 -16 12 -149 103 -298
201 -148 98 -299 202 -335 230 -36 29 -94 69 -129 91 -36 21 -88 60 -116 85
-28 26 -66 54 -85 63 -19 9 -62 33 -95 55 -123 82 -340 200 -349 191 -18 -18
6 -37 150 -119 82 -46 172 -98 199 -116 28 -18 67 -41 88 -50 22 -10 41 -24
44 -31 3 -8 20 -23 39 -35 19 -11 34 -27 34 -35 0 -8 10 -14 23 -14 26 0 37
-7 202 -128 136 -100 214 -153 367 -250 53 -33 124 -80 157 -104 33 -24 93
-65 133 -91 40 -26 91 -61 113 -78 22 -16 84 -57 138 -90 54 -34 144 -95 200
-135 187 -136 189 -138 137 -149 -16 -3 -47 -15 -68 -25 -60 -29 -87 -33 -101
-16 -8 9 -20 16 -29 16 -21 0 -124 60 -140 82 -7 9 -34 24 -60 32 -77 24 -226
94 -243 114 -17 22 -71 52 -92 52 -8 0 -65 24 -128 54 -63 30 -143 63 -179 74
-128 41 -219 80 -257 111 -21 17 -41 31 -46 31 -12 0 -200 90 -217 104 -8 7
-40 23 -70 35 -30 13 -95 43 -145 66 -49 23 -175 82 -280 130 -104 48 -230
106 -280 130 -49 23 -113 50 -141 59 -89 29 -107 57 -46 69 16 3 43 17 60 31
56 48 120 28 322 -102 83 -54 585 -294 789 -378 46 -19 97 -44 113 -55 15 -11
56 -32 91 -46 146 -59 461 -228 606 -325 266 -178 415 -266 425 -249 6 10 -68
58 -159 104 -27 14 -77 45 -110 69 -33 24 -82 57 -110 73 -27 16 -90 55 -138
87 -96 62 -590 311 -863 433 -148 66 -333 157 -554 272 -123 65 -310 178 -310
188 1 22 28 45 57 47 33 2 270 -114 513 -252 80 -46 249 -136 376 -200 127
-65 248 -129 270 -142 21 -14 84 -49 139 -78 55 -29 107 -58 115 -65 8 -7 39
-25 69 -40 30 -15 90 -51 135 -79 139 -91 224 -138 243 -134 11 2 -17 23 -77
57 -52 29 -124 72 -160 96 -36 23 -108 66 -160 95 -52 29 -138 78 -190 110
-114 68 -357 198 -494 263 -55 27 -147 76 -205 110 -59 35 -140 80 -181 101
-41 21 -82 44 -90 51 -8 7 -46 29 -85 49 -126 64 -136 70 -141 92 -8 33 4 47
36 40 39 -7 444 -219 570 -298 104 -64 148 -91 259 -157 48 -29 130 -80 281
-177 19 -12 78 -46 130 -74 52 -29 102 -58 110 -65 8 -8 28 -19 44 -25 78 -29
-41 51 -229 155 -27 16 -62 37 -76 49 -37 29 -167 111 -354 223 -88 52 -169
103 -181 114 -11 10 -25 19 -31 19 -6 0 -28 12 -49 27 -21 14 -118 66 -214
115 -96 50 -179 94 -184 99 -13 11 12 39 35 39 23 0 25 28 4 37 -27 10 -164
-47 -187 -77 -17 -24 -26 -27 -53 -23 -25 4 -36 1 -46 -15 -29 -40 -108 -92
-142 -92 -34 0 -63 -22 -86 -68 -6 -12 -28 -29 -49 -38 -20 -8 -50 -28 -67
-44 -17 -16 -47 -32 -68 -36 -45 -8 -52 -20 -37 -58 6 -18 7 -33 1 -40 -5 -6
-11 -24 -13 -41 -3 -26 -9 -31 -45 -40 -51 -12 -63 -23 -40 -36 27 -16 20 -38
-18 -56 -21 -10 -35 -23 -33 -32 1 -9 -12 -47 -30 -85 -34 -70 -34 -75 -6
-113 16 -22 15 -23 -33 -45 -45 -22 -48 -26 -45 -57 2 -20 -3 -40 -13 -51 -11
-12 -13 -20 -6 -25 6 -3 16 -15 21 -26 9 -16 6 -22 -25 -40 -32 -19 -35 -25
-30 -51 6 -25 3 -30 -23 -39 -38 -13 -48 -36 -26 -60 15 -17 15 -20 -5 -52
-19 -30 -19 -36 -6 -47 22 -19 18 -37 -15 -67 -35 -31 -38 -48 -10 -65 31 -20
24 -44 -17 -65 -49 -24 -55 -50 -14 -64 40 -14 39 -24 -4 -61 -27 -25 -32 -35
-25 -49 15 -28 12 -45 -15 -77 -30 -36 -31 -49 -5 -57 20 -6 28 -35 10 -35 -5
0 -10 -7 -10 -15 0 -8 9 -15 20 -15 18 0 25 -11 21 -33 -1 -4 12 -13 29 -18
39 -14 38 -29 -5 -68 -41 -37 -43 -46 -14 -61 20 -11 20 -12 2 -32 -17 -19
-17 -20 2 -34 10 -8 25 -14 32 -14 23 0 14 -18 -22 -47 -19 -15 -35 -33 -35
-39 0 -19 36 -44 63 -44 29 0 34 -9 16 -27 -8 -8 -1 -17 30 -32 22 -12 41 -24
41 -27 0 -3 -11 -15 -25 -26 -30 -24 -33 -48 -5 -48 31 0 36 -27 9 -49 l-24
-19 25 -20 c23 -18 24 -22 10 -47 -18 -33 -5 -56 38 -67 36 -10 42 -33 12 -43
-28 -9 -45 -42 -29 -61 6 -8 20 -14 30 -14 12 0 19 -7 19 -19 0 -12 11 -23 31
-30 28 -9 30 -13 24 -45 -6 -29 -4 -35 14 -41 14 -4 21 -15 21 -31 0 -13 3
-24 8 -24 4 0 18 -9 32 -20 l25 -19 -28 -10 c-34 -13 -31 -31 9 -51 16 -8 31
-18 32 -23 2 -4 21 -25 42 -47 25 -26 47 -40 64 -40 27 0 34 -18 15 -37 -19
-19 -2 -43 31 -43 30 0 42 -21 20 -35 -19 -12 -9 -23 32 -37 53 -16 58 -37 16
-61 -30 -17 -31 -20 -14 -29 22 -12 81 12 196 82 73 45 109 60 235 101 108 36
153 56 322 149 181 98 178 97 268 150 33 20 84 51 113 68 29 18 59 32 66 32 7
0 24 8 37 18 31 24 219 122 235 122 6 0 31 16 55 35 24 19 51 35 59 35 9 0 24
6 35 14 11 7 38 19 60 26 22 7 49 18 60 25 12 7 54 27 95 44 40 17 78 38 84
45 6 8 30 24 53 36 23 12 47 28 54 37 12 14 42 30 139 77 19 10 42 22 50 27 8
5 31 16 50 24 19 8 58 27 85 42 131 71 298 143 328 143 18 0 44 -13 68 -34 22
-18 69 -46 105 -61 63 -27 70 -28 118 -16 78 20 132 18 241 -6 55 -13 116 -23
136 -23 24 0 39 -5 43 -16 3 -9 6 -75 6 -149 0 -108 3 -135 16 -145 29 -25 87
-17 209 27 117 43 125 45 294 54 96 6 185 8 198 4 28 -7 29 -23 8 -150 -29
-171 -44 -294 -46 -357 0 -35 -7 -95 -15 -134 -7 -39 -13 -84 -12 -100 0 -16
-4 -69 -10 -119 -6 -49 -16 -130 -21 -180 -6 -49 -15 -106 -21 -125 -24 -80
-46 -308 -37 -387 4 -43 9 -105 11 -138 4 -93 36 -306 52 -342 7 -18 18 -33
24 -33 5 0 10 -9 10 -20 0 -11 32 -56 70 -101 39 -44 70 -86 70 -92 1 -22 57
-95 106 -137 41 -36 219 -130 245 -130 19 0 79 -77 90 -114 6 -22 33 -78 60
-126 38 -69 57 -118 86 -234 28 -109 35 -150 27 -163 -6 -9 -55 -42 -110 -74
-78 -45 -122 -63 -204 -83 -164 -40 -183 -41 -293 -12 -53 14 -102 26 -107 26
-6 0 -10 -12 -10 -26 0 -22 10 -30 68 -56 37 -17 69 -34 72 -38 3 -4 15 -10
28 -14 12 -4 22 -15 22 -25 0 -26 54 -94 99 -125 66 -46 157 -59 376 -53 105
3 235 11 290 19 127 17 467 17 515 0 19 -6 67 -16 105 -22 39 -5 94 -16 124
-25 42 -11 68 -12 122 -5 37 5 119 11 181 12 97 2 118 0 145 -16 28 -17 38
-18 81 -8 27 6 65 9 84 6 18 -3 58 1 88 10 30 9 96 20 145 25 123 13 125 14
125 70 l0 46 -157 -3 c-87 -2 -174 -7 -193 -13 -19 -5 -48 -9 -65 -9 -27 1
-261 -33 -432 -62 -47 -8 -77 -6 -135 5 -155 32 -246 46 -328 51 -102 6 -120
12 -120 40 0 12 -9 38 -20 59 -28 51 -28 190 0 279 11 34 20 73 20 86 0 13 5
32 10 43 6 11 13 61 15 112 2 50 7 127 11 170 l7 77 33 0 c18 0 63 -6 101 -14
98 -20 234 -29 263 -18 38 15 290 269 317 320 46 86 128 338 143 437 4 33 13
78 19 100 6 22 18 105 27 185 8 80 19 159 24 175 10 33 34 700 26 714 -3 5 8
66 24 136 17 75 32 175 36 239 4 79 13 131 31 181 47 134 84 289 88 370 9 181
8 331 -2 350 -6 11 -17 52 -23 90 -20 110 -37 157 -82 226 l-41 64 -2 128 c-1
81 -6 132 -13 139 -15 15 -5 170 14 217 20 48 18 64 -22 165 -47 121 -115 218
-241 347 -56 58 -103 112 -103 118 0 7 -26 40 -59 74 -32 34 -65 76 -74 92 -9
17 -29 45 -46 62 -16 18 -50 59 -74 90 -63 81 -154 174 -208 210 -25 17 -101
57 -170 88 -68 31 -158 71 -199 90 -84 38 -172 61 -287 75 -165 21 -166 21
-204 57 -20 18 -49 61 -64 94 -28 58 -28 60 -12 88 9 16 17 44 17 63 0 43 21
73 68 97 46 24 77 54 122 115 19 27 58 70 85 96 54 52 119 174 151 282 15 54
15 65 0 165 -13 88 -24 123 -57 188 -23 44 -56 96 -73 116 -17 20 -53 64 -80
99 -83 104 -250 209 -421 263 -204 65 -320 76 -580 56z m332 -524 c125 -19
168 -40 256 -127 59 -58 82 -90 115 -160 54 -114 76 -209 70 -307 -5 -85 -29
-144 -56 -139 -12 2 -19 17 -23 48 -8 63 -36 154 -71 227 -21 46 -42 71 -77
98 -27 19 -55 35 -63 35 -7 0 -22 6 -33 13 -22 15 -181 55 -260 65 -27 4 -104
7 -170 6 -112 0 -128 -2 -232 -37 -143 -48 -333 -137 -400 -188 -149 -112
-261 -232 -322 -344 -21 -38 -43 -79 -49 -90 -76 -138 -90 -328 -36 -495 28
-87 61 -132 133 -181 74 -50 68 -61 -31 -56 -105 5 -136 14 -192 54 -95 68
-146 192 -146 360 0 101 62 299 137 439 61 113 188 267 304 369 40 36 78 74
84 85 12 22 130 105 200 142 22 11 42 24 45 28 17 25 188 89 322 121 206 49
333 57 495 34z m-167 -294 c78 -11 183 -41 267 -77 70 -29 96 -58 150 -166 38
-75 46 -138 30 -227 l-8 -44 30 6 c24 5 31 2 36 -13 4 -11 15 -20 25 -20 25 0
60 -60 60 -103 0 -52 -52 -111 -92 -103 -37 7 -35 0 10 -44 96 -95 115 -144
101 -248 -6 -40 -17 -91 -25 -114 -8 -22 -14 -57 -14 -78 0 -58 -17 -97 -96
-216 -97 -147 -146 -190 -282 -248 -146 -61 -208 -77 -339 -83 -122 -6 -203 5
-286 40 -50 21 -59 44 -14 39 14 -2 45 3 70 12 40 13 137 20 226 16 23 -1 67
15 135 48 113 55 206 121 265 189 46 51 135 212 150 269 5 22 15 59 22 84 14
51 13 229 -2 268 -19 49 -26 6 -18 -103 7 -85 5 -120 -5 -155 -8 -25 -17 -58
-21 -75 -9 -43 -73 -173 -109 -220 -74 -99 -165 -173 -306 -246 -61 -32 -71
-34 -170 -35 -58 0 -154 -5 -215 -11 l-110 -11 -68 35 c-44 23 -84 54 -112 87
-48 57 -115 187 -115 224 0 13 -15 63 -34 111 -19 47 -39 114 -46 148 l-13 62
36 33 c24 23 37 46 42 73 8 52 18 69 41 74 37 7 61 41 29 41 -18 0 -88 -43
-124 -76 -14 -13 -30 -22 -36 -21 -5 2 -10 30 -9 63 1 137 70 254 150 254 21
0 45 -4 53 -9 18 -11 40 -71 54 -143 10 -53 9 -61 -22 -138 -43 -109 -54 -200
-29 -240 27 -45 55 -39 118 25 52 53 53 55 35 70 -11 8 -23 15 -27 15 -14 0
-50 -41 -60 -71 -7 -22 -16 -29 -35 -29 -25 0 -25 0 -18 72 4 45 17 99 36 143
35 83 37 137 9 229 -24 75 -41 91 -112 99 -44 6 -47 5 -86 -37 -116 -125 -138
-219 -87 -372 28 -85 41 -164 28 -164 -17 0 -62 95 -78 165 -13 54 -14 78 -6
111 6 24 11 78 11 121 1 76 5 93 49 201 33 81 7 52 -37 -41 -25 -54 -41 -104
-45 -144 -4 -33 -15 -82 -25 -109 -18 -46 -18 -50 -2 -115 10 -38 30 -90 46
-116 61 -106 105 -225 89 -241 -7 -8 -43 14 -106 64 -80 63 -112 149 -125 337
-6 82 -4 101 21 182 32 104 72 189 123 259 52 71 242 238 314 276 35 18 70 39
78 45 23 20 126 61 251 100 107 33 120 35 214 30 55 -3 129 -9 165 -14z m903
-990 c67 -11 129 -28 212 -57 22 -7 90 -41 150 -75 61 -34 136 -75 168 -92 67
-34 192 -162 290 -295 34 -46 83 -111 110 -143 26 -32 47 -63 47 -68 0 -5 32
-40 70 -78 39 -37 92 -95 119 -128 62 -78 151 -218 151 -237 0 -8 9 -23 19
-32 11 -10 23 -31 26 -47 4 -16 11 -31 16 -34 16 -10 11 -85 -5 -85 -8 0 -29
-29 -45 -64 -33 -68 -62 -98 -182 -188 -77 -59 -174 -102 -329 -148 -41 -12
-100 -31 -131 -41 -31 -11 -68 -19 -82 -19 -14 0 -54 -9 -89 -20 -34 -11 -74
-20 -87 -20 -21 0 -23 3 -16 37 10 55 29 87 121 201 47 60 92 127 105 160 12
31 33 73 45 92 30 49 94 251 94 297 0 29 -31 128 -47 152 -2 2 -12 -4 -22 -13
-13 -12 -30 -61 -51 -150 -17 -72 -48 -185 -69 -251 -21 -66 -44 -144 -51
-173 -7 -29 -22 -65 -34 -80 -13 -15 -31 -42 -41 -59 -20 -34 -35 -43 -35 -20
0 6 10 68 22 137 11 69 24 170 29 225 4 55 12 132 18 170 5 39 19 140 30 225
12 85 24 165 27 177 8 28 -21 43 -41 22 -20 -20 -85 -288 -85 -351 0 -29 -7
-102 -15 -163 -8 -60 -15 -141 -15 -180 -1 -139 -47 -365 -101 -494 -22 -53
-50 -120 -62 -149 -20 -48 -25 -53 -47 -48 -24 4 -29 -2 -60 -65 -22 -45 -44
-76 -63 -87 -16 -9 -51 -47 -79 -85 -28 -37 -73 -88 -102 -112 -60 -54 -242
-149 -312 -165 -63 -15 -378 -21 -426 -9 -56 14 -266 -24 -425 -77 -39 -13
-83 -24 -97 -24 l-26 0 0 91 c0 55 -8 129 -20 183 -11 50 -27 125 -36 166 -8
41 -22 98 -30 126 -8 28 -14 58 -14 67 0 22 46 55 89 63 20 4 47 12 61 19 32
16 202 37 234 29 15 -3 75 9 153 31 166 49 249 82 295 117 55 43 146 178 183
271 18 45 42 102 53 127 11 25 27 72 36 105 8 33 23 94 34 135 11 41 25 109
31 150 7 41 16 95 22 120 11 51 78 187 118 241 25 35 161 187 210 235 15 15
19 24 11 24 -35 0 -309 -312 -363 -413 -15 -29 -31 -59 -36 -67 -56 -93 -123
-340 -92 -340 12 0 18 17 26 73 7 48 28 77 40 57 4 -6 2 -16 -3 -23 -5 -7 -12
-28 -15 -47 -21 -126 -34 -175 -63 -230 -7 -14 -23 -55 -37 -90 -57 -152 -135
-270 -204 -308 -22 -12 -72 -29 -109 -38 -38 -9 -103 -27 -144 -42 -51 -17
-101 -26 -155 -28 -44 -1 -127 -12 -185 -25 -58 -12 -116 -21 -129 -21 -38 3
-110 -37 -126 -69 -8 -15 -15 -41 -15 -58 0 -37 -10 -40 -84 -25 -34 7 -83 16
-109 19 -45 6 -56 13 -154 112 -112 112 -198 165 -288 179 -90 13 -189 -34
-324 -153 -40 -36 -44 -43 -44 -86 l0 -46 -66 -15 c-170 -38 -265 -46 -317
-26 -18 7 -51 7 -103 1 -42 -6 -116 -15 -166 -21 -49 -6 -105 -14 -122 -17
-21 -3 -33 -1 -33 6 0 6 9 11 20 11 11 0 20 3 20 8 0 8 -133 8 -146 -1 -14 -8
-121 -25 -209 -32 -44 -4 -123 -13 -175 -21 -52 -8 -115 -17 -140 -20 -25 -3
-99 -14 -165 -24 -66 -10 -156 -24 -200 -30 -44 -7 -116 -20 -160 -30 -44 -10
-105 -21 -135 -24 -79 -9 -145 -25 -303 -72 -101 -29 -112 -42 -16 -18 107 26
149 35 279 54 69 11 157 27 195 35 39 9 93 18 120 20 28 2 107 15 177 29 70
14 162 28 205 32 43 4 86 11 96 16 29 15 279 40 290 29 5 -5 -12 -12 -45 -16
-67 -8 -268 -43 -328 -56 -25 -6 -65 -14 -90 -19 -25 -5 -67 -14 -95 -19 -27
-6 -70 -13 -95 -16 -25 -4 -103 -19 -175 -35 -71 -16 -170 -36 -220 -45 -49
-9 -121 -23 -160 -32 -106 -23 -276 -62 -315 -72 -79 -21 -141 -23 -178 -8
-21 8 -46 18 -56 21 -17 6 -15 11 20 47 l39 40 -30 24 c-29 24 -29 25 -10 39
23 16 98 26 250 32 176 6 510 43 759 84 113 18 272 40 306 42 8 0 62 7 120 15
58 9 123 16 145 17 22 0 43 5 46 9 10 13 79 27 141 27 31 0 59 4 63 9 3 6 13
9 23 9 9 0 47 5 83 11 37 6 118 15 180 21 63 5 177 16 254 25 77 8 165 15 196
15 68 0 119 9 119 21 0 14 -143 10 -256 -6 -55 -8 -186 -21 -290 -30 -104 -9
-218 -22 -252 -30 -35 -9 -68 -13 -73 -9 -5 3 -53 -5 -106 -17 -54 -11 -125
-25 -158 -29 -33 -5 -121 -17 -195 -28 -188 -28 -239 -32 -245 -21 -4 5 3 9
14 9 12 0 21 5 21 10 0 6 -3 10 -7 10 -22 -1 -298 -31 -358 -40 -38 -5 -119
-15 -180 -20 -60 -6 -135 -15 -165 -20 -153 -28 -446 -58 -455 -48 -7 7 -6 12
3 15 19 7 63 56 59 67 -2 6 -18 17 -35 25 -17 9 -32 19 -32 22 0 10 366 38
585 44 203 7 403 17 485 25 52 5 201 12 330 15 543 13 536 13 517 31 -7 8
-616 -12 -852 -27 -88 -6 -236 -12 -330 -15 -93 -2 -180 -7 -192 -9 -13 -3
-123 -10 -245 -16 -123 -6 -234 -11 -248 -12 -19 -2 -26 3 -28 21 -2 13 -14
28 -28 34 -27 13 -31 30 -9 48 8 7 15 20 15 29 1 44 -13 43 591 46 316 1 687
4 824 7 138 3 293 1 345 -4 99 -9 410 -12 418 -3 3 3 3 7 1 10 -9 8 -491 19
-744 16 -137 -1 -358 -2 -490 -1 -132 1 -249 2 -260 2 -11 -1 -165 -2 -343 -3
-247 -2 -326 1 -335 10 -9 10 -7 16 11 28 29 20 28 36 -3 53 l-25 13 22 24
c45 48 50 48 443 46 204 -1 385 -4 402 -8 18 -3 131 -10 250 -15 120 -6 292
-14 383 -20 91 -5 287 -9 435 -10 149 0 322 -5 385 -10 197 -16 447 -24 453
-13 11 17 -296 35 -773 44 -261 4 -540 13 -620 19 -80 6 -179 12 -220 14 -41
1 -145 9 -230 16 -85 8 -171 13 -190 13 -194 -7 -661 0 -677 10 -20 13 -15 45
8 58 17 9 20 18 17 50 l-4 39 193 0 c176 0 606 -23 661 -35 12 -3 75 -8 140
-11 64 -3 124 -8 132 -10 8 -3 78 -7 155 -10 77 -2 183 -9 235 -14 52 -6 149
-12 215 -15 117 -4 350 -26 490 -45 39 -5 104 -12 145 -16 41 -3 111 -9 155
-15 44 -5 121 -14 170 -19 50 -6 96 -13 103 -15 6 -2 12 2 12 10 0 22 -6 23
-340 55 -260 25 -321 31 -390 40 -111 14 -323 29 -418 29 -45 0 -86 2 -90 5
-5 3 -123 12 -262 21 -325 20 -353 22 -540 39 -178 17 -505 36 -631 36 -72 0
-89 3 -107 20 -31 29 -28 47 14 85 36 33 37 33 118 29 194 -9 398 -26 486 -39
52 -8 167 -21 255 -31 88 -9 163 -18 167 -20 7 -4 226 -24 313 -29 22 -1 96
-9 165 -18 69 -9 184 -21 255 -27 112 -10 463 -59 650 -90 76 -13 95 -13 95 0
0 15 -40 28 -107 34 -113 11 -375 46 -411 56 -20 5 -95 14 -167 20 -71 6 -146
12 -165 15 -19 2 -75 8 -125 13 -49 6 -144 15 -210 21 -66 6 -136 13 -155 15
-19 3 -84 12 -145 20 -110 15 -348 43 -607 71 -75 8 -173 15 -216 15 -107 0
-145 8 -136 29 4 9 7 27 8 41 1 19 6 24 21 22 11 -1 67 -5 125 -7 214 -10 475
-27 484 -33 6 -3 55 -9 110 -13 56 -4 184 -17 286 -28 174 -20 342 -35 525
-46 75 -5 216 -24 330 -44 28 -5 86 -15 129 -21 43 -7 113 -23 155 -36 42 -13
83 -24 93 -24 9 0 54 -13 100 -29 132 -47 168 -55 248 -55 72 -1 78 -3 150
-49 66 -43 80 -48 113 -42 22 3 55 14 75 24 74 38 206 53 149 17 -54 -33 -137
-98 -137 -106 0 -17 15 -12 76 25 33 20 82 43 111 51 46 13 57 13 106 -1 29
-8 62 -22 73 -30 29 -22 43 -19 149 35 121 60 214 79 272 55 61 -26 103 -64
129 -118 31 -65 60 -104 70 -94 13 13 -13 116 -41 163 -14 25 -43 55 -63 68
-41 26 -136 56 -176 56 -48 0 -60 36 -52 156 7 108 16 149 61 289 29 89 149
323 170 331 7 3 51 -7 97 -21 90 -29 208 -36 324 -21 l61 9 33 -49 c19 -27 51
-71 74 -98 38 -46 39 -49 29 -90 -16 -63 9 -244 56 -402 17 -55 33 -120 37
-142 8 -49 18 -53 32 -14 7 22 2 75 -21 218 -46 281 -40 403 28 551 22 48 178
288 279 428 23 33 65 107 92 165 44 94 49 113 52 189 l4 83 67 -5 c36 -3 97
-10 134 -16z m-273 -146 c0 -14 -4 -25 -10 -25 -11 0 -14 33 -3 43 11 11 13 8
13 -18z m-4454 -440 c27 -14 65 -30 84 -36 19 -6 64 -26 100 -45 154 -79 464
-220 655 -299 127 -52 293 -139 274 -143 -46 -9 -462 123 -874 278 -225 84
-370 136 -405 144 -43 10 -53 21 -41 44 6 11 21 24 33 28 13 4 36 17 51 30 36
30 62 30 123 -1z m4114 -109 c0 -8 -37 -83 -62 -126 -14 -25 -31 -62 -38 -82
-6 -21 -17 -38 -24 -38 -7 0 -25 17 -40 38 -14 21 -40 51 -56 67 -17 16 -30
32 -30 37 0 10 55 38 75 38 9 0 49 16 88 35 67 33 87 40 87 31z m-4229 -37
c35 -11 73 -25 84 -30 11 -5 70 -27 130 -49 61 -21 146 -52 190 -69 44 -17
103 -38 130 -45 28 -8 129 -42 225 -75 96 -34 265 -89 375 -122 220 -66 442
-150 477 -179 21 -18 21 -19 4 -20 -22 0 -273 68 -298 81 -10 5 -32 9 -49 9
-36 0 -171 31 -284 66 -180 55 -245 75 -352 109 -111 35 -179 46 -141 24 21
-12 168 -59 185 -59 6 0 24 -6 40 -14 15 -8 46 -19 68 -24 22 -6 65 -20 95
-30 59 -22 409 -113 500 -131 87 -17 266 -67 375 -105 55 -19 115 -35 133 -35
18 -1 65 -18 105 -38 62 -32 68 -38 46 -41 -26 -3 -164 29 -399 92 -69 19
-165 41 -215 50 -49 9 -119 25 -155 36 -76 21 -287 78 -345 92 -63 15 -115 29
-180 49 -33 9 -105 27 -160 39 -55 13 -170 42 -255 66 -85 24 -177 47 -205 50
-61 8 -321 71 -346 85 -10 5 -23 18 -29 28 -8 16 -3 23 32 46 41 27 42 27 87
12 25 -9 105 -29 176 -46 72 -16 177 -43 234 -60 59 -18 108 -28 113 -23 9 9
-139 60 -252 87 -36 9 -121 29 -189 45 -69 16 -131 36 -139 44 -14 13 -12 17
16 33 20 11 32 26 32 40 0 38 47 43 141 12z m-126 -275 c222 -48 329 -74 445
-105 63 -18 133 -35 155 -39 22 -4 78 -17 125 -30 47 -12 110 -28 140 -35 126
-30 226 -58 240 -66 9 -6 -23 -7 -85 -4 -91 5 -193 21 -469 76 -54 10 -117 19
-140 19 -41 0 -71 6 -366 79 -91 23 -182 41 -202 41 -46 0 -58 17 -28 40 14
11 21 24 17 33 -8 20 3 29 28 23 11 -3 74 -17 140 -32z m4597 -36 c-5 -48 -18
-70 -28 -45 -6 17 13 87 25 87 3 0 5 -19 3 -42z m-4498 -106 c109 -29 215 -52
235 -52 20 0 92 -12 161 -26 69 -14 150 -29 180 -34 30 -5 96 -16 145 -25 81
-14 154 -25 418 -66 87 -13 107 -33 25 -25 -29 3 -111 10 -183 16 -71 6 -163
15 -203 21 -40 5 -94 9 -120 9 -26 0 -81 4 -122 10 -241 32 -435 48 -655 54
-171 5 -215 12 -215 35 0 9 -6 26 -14 37 -13 19 -12 22 20 39 19 10 37 29 41
43 5 21 10 23 47 20 22 -3 131 -28 240 -56z m6247 -369 c-25 -46 -195 -173
-232 -173 -23 0 -4 22 49 54 31 19 84 58 117 85 63 53 82 63 66 34z m-1 -123
c0 -5 -18 -19 -40 -30 -22 -11 -50 -34 -62 -51 -24 -33 -108 -80 -197 -110
-30 -11 -75 -31 -100 -45 -65 -36 -208 -90 -261 -99 -25 -4 -49 -11 -55 -15
-5 -4 -50 -15 -100 -23 -49 -9 -103 -20 -118 -26 -41 -16 -97 -14 -97 3 0 24
27 37 94 47 36 5 100 23 143 40 43 17 116 44 163 59 124 42 310 120 430 180
146 73 200 92 200 70z m28 -150 l-1 -100 -81 -58 c-118 -85 -144 -99 -232
-126 -43 -13 -110 -35 -149 -49 -38 -14 -117 -33 -175 -42 -58 -8 -139 -22
-180 -30 -78 -15 -340 -21 -340 -7 0 13 41 77 58 90 9 6 34 12 56 12 23 0 59
5 81 11 22 6 65 17 95 24 131 31 160 39 240 68 155 55 507 227 541 264 24 25
53 41 76 42 8 1 11 -29 11 -99z m-438 20 c0 -5 -10 -10 -22 -9 -22 0 -22 1 -3
9 11 5 21 9 23 9 1 1 2 -3 2 -9z m-120 -48 c0 -10 -54 -29 -105 -37 -39 -6
-83 -24 -178 -72 -51 -26 -139 -44 -157 -33 -20 12 7 50 35 50 13 0 36 6 52
14 15 8 64 22 108 30 44 9 109 24 145 35 73 21 100 25 100 13z m-3036 -36 c18
-8 46 -30 62 -50 23 -29 36 -36 63 -36 30 0 44 -10 112 -83 88 -94 118 -108
266 -128 51 -6 97 -17 102 -23 13 -17 61 -197 61 -229 0 -15 -6 -30 -14 -33
-35 -13 -137 20 -249 82 -26 14 -33 14 -90 -7 -108 -38 -184 -10 -294 112 -39
42 -41 47 -29 71 8 14 11 30 7 36 -8 13 -160 33 -191 25 -15 -4 -21 -2 -19 6
4 12 55 42 134 77 35 16 37 18 17 22 -33 5 -88 -15 -164 -59 -70 -41 -88 -47
-87 -26 1 24 102 96 180 128 44 18 79 36 79 41 0 12 -10 10 -88 -16 -40 -14
-72 -21 -72 -15 0 5 22 24 50 41 64 42 69 71 6 34 -29 -17 -47 -22 -51 -15 -8
13 21 37 55 45 14 3 30 7 35 9 25 9 89 4 119 -9z m3664 -144 c28 -66 51 -240
56 -422 4 -136 1 -169 -19 -267 -14 -61 -34 -138 -45 -170 -24 -65 -47 -186
-60 -313 -5 -47 -16 -121 -24 -165 -9 -44 -20 -186 -26 -315 -6 -129 -15 -264
-20 -300 -5 -36 -7 -75 -4 -87 3 -12 0 -77 -7 -145 -6 -68 -13 -157 -15 -198
-8 -182 -148 -688 -220 -791 -47 -68 -95 -119 -113 -119 -9 0 -30 -14 -47 -31
-60 -64 -189 -95 -273 -65 -59 21 -235 22 -285 1 -81 -34 -218 -30 -359 12
-48 14 -65 26 -105 72 -64 75 -157 242 -202 364 -41 112 -97 408 -86 455 4 15
11 92 16 172 17 271 42 440 76 517 8 17 14 50 14 72 0 23 9 74 21 114 23 78
35 137 49 232 4 33 16 90 24 128 20 82 45 212 57 292 20 141 28 183 43 237 8
32 13 63 11 71 -3 7 1 31 9 53 7 22 12 53 9 67 -6 31 21 105 46 127 9 8 41 45
71 83 29 37 57 67 62 67 20 0 1 -58 -29 -89 -18 -17 -13 -45 10 -49 12 -3 23
9 37 40 35 77 26 74 222 81 225 8 496 61 638 124 30 14 78 32 105 40 28 8 71
28 96 44 25 16 51 29 57 29 6 0 37 22 69 48 32 27 65 51 73 54 22 8 45 -17 68
-70z m-4040 -145 c7 -9 38 -14 85 -15 62 -1 81 -6 116 -28 44 -29 52 -51 24
-61 -10 -3 -52 -21 -93 -40 -112 -52 -120 -55 -180 -63 -39 -5 -79 -21 -130
-51 -118 -68 -384 -196 -510 -246 -63 -24 -119 -48 -125 -52 -5 -5 -53 -25
-105 -46 -97 -38 -375 -158 -465 -200 -198 -92 -317 -145 -359 -159 -27 -10
-61 -23 -75 -31 -80 -45 -281 -131 -378 -163 -62 -20 -113 -40 -113 -44 0 -13
42 -9 116 11 65 19 135 48 449 192 211 96 378 170 417 184 26 10 53 24 59 31
6 8 17 14 24 14 7 0 48 16 91 36 115 52 272 114 291 114 24 0 -26 -36 -121
-86 -166 -88 -268 -136 -541 -253 -248 -106 -482 -213 -525 -240 -53 -34 -270
-132 -279 -126 -6 3 -11 16 -11 29 0 15 -15 33 -45 56 -25 18 -47 41 -50 51
-3 10 -19 22 -35 28 -33 11 -40 31 -12 31 10 0 23 5 30 12 16 16 -13 48 -43
48 -11 0 -26 5 -33 12 -19 19 5 46 56 61 38 12 535 214 607 247 11 5 52 21 90
36 39 14 99 37 135 50 36 14 112 42 170 63 58 21 124 47 147 59 23 12 49 22
57 22 8 0 27 6 43 14 15 8 60 24 98 36 39 12 133 46 210 76 129 52 212 79 355
120 30 9 69 20 85 26 17 5 50 14 75 19 72 14 140 42 140 56 0 15 -16 17 -25 3
-3 -5 -14 -10 -24 -10 -9 0 -73 -16 -140 -35 -70 -19 -134 -32 -147 -29 -13 3
-59 -6 -106 -21 -46 -15 -126 -38 -178 -52 -108 -28 -366 -103 -455 -132 -33
-11 -89 -27 -125 -36 -36 -9 -78 -20 -95 -25 -16 -5 -73 -21 -125 -35 -52 -14
-160 -46 -240 -71 -244 -76 -364 -112 -390 -117 -14 -3 -88 -24 -165 -47 -156
-47 -200 -57 -193 -44 2 5 12 26 21 46 9 20 21 39 26 42 8 6 353 95 551 143
58 14 127 34 153 45 27 10 72 22 100 25 29 3 57 9 62 13 13 9 121 43 200 63
33 8 92 25 130 37 39 13 157 45 264 72 114 29 204 57 219 68 14 11 38 20 54
20 37 0 270 47 306 62 15 6 59 14 97 18 39 4 86 14 105 22 l35 16 -64 -2 c-43
-1 -65 3 -68 12 -3 8 7 12 34 12 53 0 111 18 134 41 10 10 27 19 37 19 9 0 30
7 46 15 15 8 40 15 55 15 14 1 51 7 81 15 71 17 76 17 88 2z m-1863 -66 c-12
-10 -176 -41 -219 -41 -59 0 -10 18 89 33 123 18 142 20 130 8z m1014 -10 c19
-12 -6 -25 -94 -46 -38 -9 -84 -23 -101 -30 -16 -8 -50 -17 -75 -21 -24 -3
-87 -17 -139 -31 -52 -14 -113 -28 -135 -33 -22 -5 -110 -29 -195 -53 -85 -24
-189 -52 -230 -62 -41 -9 -96 -24 -122 -31 -26 -8 -60 -14 -76 -14 -16 0 -71
-10 -123 -21 -52 -12 -152 -34 -224 -49 -128 -28 -220 -53 -261 -72 -24 -11
-86 2 -92 20 -6 19 47 60 91 70 23 6 85 21 137 35 52 14 136 32 185 40 170 27
340 68 395 94 30 14 80 29 110 33 30 4 136 24 235 44 99 21 234 48 300 61 66
13 156 31 200 39 44 9 96 16 115 17 19 0 44 4 55 9 26 11 28 11 44 1z m-1303
-33 c3 -4 -4 -9 -17 -12 -35 -8 -169 -12 -169 -5 0 15 171 31 186 17z m1654
-27 c-31 -17 -487 -112 -528 -110 -29 1 60 38 108 44 25 4 65 13 90 20 25 8
77 19 116 24 40 6 82 15 95 20 30 12 140 14 119 2z m777 -28 c2 -5 -38 -27
-89 -48 -51 -20 -99 -39 -105 -42 -7 -3 -13 0 -13 6 0 6 26 22 58 36 31 14 73
34 92 44 37 20 52 21 57 4z m-1457 -83 c0 -11 -45 -31 -124 -57 -28 -9 -64
-22 -81 -28 -16 -7 -57 -20 -90 -30 -33 -9 -76 -23 -95 -30 -19 -7 -60 -21
-90 -32 -53 -19 -208 -60 -335 -88 -33 -8 -82 -20 -110 -28 -27 -8 -133 -38
-235 -67 -102 -29 -212 -61 -246 -71 -80 -25 -88 -25 -80 6 5 18 1 27 -14 35
-27 14 -25 44 3 58 45 23 132 42 189 42 33 0 71 6 86 14 38 19 222 62 392 91
132 23 198 39 225 56 6 4 35 10 65 14 30 3 75 13 100 20 52 16 308 84 360 95
52 11 80 11 80 0z m969 -116 c-36 -44 -347 -204 -395 -204 -18 0 -36 -4 -39
-10 -8 -13 -25 -13 -25 1 0 11 434 227 459 228 11 1 11 -2 0 -15z m2671 -36
c0 -13 -20 -122 -46 -243 -25 -121 -49 -245 -54 -275 -4 -30 -15 -82 -23 -115
-9 -33 -27 -109 -41 -170 -14 -60 -33 -141 -42 -178 -9 -38 -14 -77 -11 -88 3
-10 1 -22 -4 -25 -6 -3 -9 -13 -8 -22 1 -10 0 -24 -3 -32 -11 -28 -39 -144
-52 -215 -34 -180 -65 -632 -47 -678 6 -16 11 -45 11 -66 0 -117 73 -377 128
-456 42 -61 55 -94 38 -101 -23 -9 -161 45 -228 90 -46 30 -71 56 -94 96 -18
30 -58 84 -89 120 -124 141 -136 175 -186 490 -17 108 -19 144 -11 180 6 25
14 84 17 132 4 49 11 90 16 94 5 3 9 25 9 50 0 43 7 104 31 257 6 37 15 116
19 175 5 59 11 123 14 142 9 62 28 243 33 315 14 229 20 273 44 316 l24 44
100 2 c159 4 191 9 238 41 23 16 50 39 61 50 10 12 41 33 70 48 28 14 55 30
61 35 16 15 25 10 25 -13z m-3576 -23 c-21 -16 -44 -20 -44 -7 0 15 13 22 39
22 24 0 24 -1 5 -15z m-66 -16 c-2 -7 -67 -33 -143 -59 -77 -26 -159 -57 -182
-69 -23 -11 -69 -27 -101 -35 -32 -7 -67 -18 -78 -24 -11 -6 -69 -24 -130 -41
-130 -36 -317 -102 -371 -130 -37 -20 -38 -20 -10 -21 16 0 37 5 48 11 11 5
28 9 37 7 22 -5 -154 -90 -315 -153 -68 -26 -130 -45 -138 -41 -12 4 -14 14
-9 41 5 31 3 36 -20 45 -60 23 -19 62 93 90 46 12 100 27 120 35 20 8 56 19
81 25 51 12 129 36 380 114 220 69 356 107 395 111 17 2 49 11 70 20 50 21
245 84 263 84 8 1 12 -4 10 -10z m72 -396 c0 -5 -22 -18 -48 -30 -26 -12 -83
-42 -127 -67 -44 -25 -141 -77 -215 -115 -74 -39 -146 -77 -160 -85 -14 -8
-77 -39 -140 -70 -63 -30 -183 -96 -266 -145 l-151 -91 -41 18 c-53 22 -56 52
-9 80 94 57 527 268 662 322 39 15 117 49 175 75 187 84 320 129 320 108z
m3550 -2388 c22 -27 107 -65 144 -65 19 0 46 -5 59 -11 l25 -11 -4 -152 c-3
-131 -11 -225 -30 -354 -6 -39 -35 -68 -76 -76 -16 -3 -94 -33 -172 -66 -140
-60 -144 -61 -212 -55 -102 9 -135 15 -129 24 5 9 85 39 165 62 59 17 147 55
154 67 7 11 119 58 160 67 28 6 28 7 23 58 -16 167 -63 335 -113 402 -29 40
-75 145 -68 156 6 10 51 -19 74 -46z m527 -172 c-9 -152 -25 -274 -41 -321
-28 -78 -41 -204 -28 -262 16 -67 15 -100 -1 -100 -18 0 -37 21 -37 40 0 32
-60 100 -115 131 -30 17 -57 35 -60 39 -3 5 -1 39 5 77 14 97 26 198 41 350
l12 132 86 4 c47 1 99 4 115 5 l28 2 -5 -97z m-276 -543 c51 -14 82 -49 103
-115 13 -42 21 -55 32 -51 11 4 14 1 12 -12 -3 -13 -25 -21 -108 -34 -230 -38
-561 -32 -604 12 -23 22 -16 37 10 22 21 -12 60 1 150 46 33 17 77 34 97 37
44 9 55 21 26 30 -30 10 -14 21 66 49 75 26 157 32 216 16z"/>
<path d="M9742 7090 c-86 -31 -120 -57 -147 -113 -13 -28 -21 -54 -18 -57 3
-3 8 0 10 7 9 25 64 93 88 109 35 23 131 54 167 54 15 0 28 5 28 10 0 16 -70
10 -128 -10z"/>
<path d="M9738 6887 c-43 -23 -84 -49 -92 -57 -7 -8 -17 -44 -20 -80 l-6 -65
19 23 c16 18 24 20 44 13 27 -10 40 0 87 67 19 29 27 33 51 28 55 -11 42 25
-14 39 -34 9 -35 33 -2 41 13 3 29 12 36 20 22 27 -23 14 -103 -29z"/>
<path d="M9552 6633 c2 -10 29 -31 62 -48 62 -31 83 -55 48 -55 -11 0 -27 -3
-36 -6 -18 -7 -22 -39 -6 -49 20 -13 120 33 120 55 0 17 -54 59 -83 65 -18 4
-46 18 -64 31 -38 29 -46 30 -41 7z"/>
<path d="M9866 6431 c-13 -14 -37 -21 -84 -26 -103 -9 -253 -60 -288 -96 -16
-17 -48 -42 -72 -56 -27 -16 -44 -34 -48 -51 -3 -15 -12 -45 -19 -67 -17 -53
-7 -67 17 -21 10 20 20 36 23 36 2 0 12 -16 21 -35 36 -76 118 -83 210 -20 37
26 69 39 109 44 31 4 61 14 68 21 10 10 6 11 -18 5 -16 -4 -47 -9 -68 -10 -23
-2 -64 -19 -107 -45 -60 -36 -76 -42 -107 -37 -20 4 -46 15 -56 26 -20 20 -20
20 28 48 27 15 72 49 100 74 46 41 59 47 126 58 53 8 92 22 132 46 33 20 59
30 63 24 8 -14 -5 -88 -22 -121 -13 -24 -13 -28 0 -28 15 0 60 95 53 113 -8
22 12 57 32 57 11 0 22 4 25 9 9 14 -64 71 -92 71 -5 0 -17 -9 -26 -19z m-38
-47 c31 -9 28 -20 -18 -50 -28 -19 -60 -28 -116 -35 -79 -9 -124 -28 -124 -54
0 -21 -88 -75 -122 -75 -22 0 -28 5 -28 21 0 34 122 133 184 150 192 51 193
51 224 43z"/>
<path d="M10570 6421 c0 -5 5 -13 10 -16 6 -3 10 -2 10 4 0 5 -4 13 -10 16 -5
3 -10 2 -10 -4z"/>
<path d="M9373 4973 c-13 -2 -23 -9 -23 -14 0 -5 37 -7 85 -5 125 6 181 -14
242 -86 26 -31 55 -67 64 -79 9 -13 20 -19 27 -15 18 11 -4 47 -69 113 -74 77
-113 93 -219 91 -47 0 -95 -3 -107 -5z"/>
<path d="M7885 3974 c-77 -30 -162 -64 -190 -76 -27 -11 -86 -33 -130 -49
-130 -46 -206 -76 -265 -103 -30 -14 -63 -26 -72 -26 -10 0 -18 -4 -18 -9 0
-5 -17 -13 -37 -19 -21 -6 -141 -54 -268 -107 -333 -140 -444 -185 -456 -185
-13 0 -80 -30 -213 -97 -152 -75 -204 -107 -184 -111 9 -2 60 22 114 52 99 54
150 77 359 156 61 23 155 62 210 86 199 86 365 153 412 168 26 8 83 30 127 50
43 20 122 53 175 72 53 20 146 56 206 79 61 24 162 63 225 85 142 51 189 71
196 82 13 21 -63 2 -191 -48z"/>
<path d="M9211 8043 c-12 -7 -35 -19 -53 -25 -34 -12 -104 -55 -289 -179 -96
-64 -140 -104 -271 -243 -187 -196 -215 -257 -35 -75 67 69 161 156 210 194
48 38 90 77 93 87 8 26 151 116 287 181 64 31 117 58 117 60 0 13 -41 13 -59
0z"/>
<path d="M9078 7664 c-93 -63 -118 -84 -101 -84 9 0 190 117 212 136 2 2 -3 4
-12 4 -9 0 -53 -25 -99 -56z"/>
<path d="M8936 7554 c-24 -24 -19 -30 7 -8 12 10 24 20 26 21 2 2 -1 3 -7 3
-6 0 -18 -7 -26 -16z"/>
<path d="M8835 7480 c-27 -30 -14 -33 20 -5 21 17 25 24 14 25 -9 0 -24 -9
-34 -20z"/>
<path d="M8858 7419 c-19 -11 -24 -29 -8 -29 5 0 14 9 20 20 12 23 12 23 -12
9z"/>
<path d="M8674 7318 c-91 -95 -120 -138 -94 -138 6 0 10 7 10 15 0 8 32 47 70
87 39 39 69 75 68 80 -2 5 -26 -15 -54 -44z"/>
<path d="M8698 7262 c-96 -99 -156 -180 -185 -250 -8 -21 -26 -51 -39 -68 -46
-61 -90 -179 -75 -202 8 -13 46 72 56 125 2 13 17 42 33 66 17 23 37 60 46 81
24 58 94 151 185 245 45 47 80 89 78 94 -1 5 -46 -36 -99 -91z"/>
<path d="M950 6949 c-19 -10 -40 -19 -45 -19 -32 0 -135 -148 -135 -193 0 -16
-9 -45 -21 -64 -16 -25 -19 -42 -14 -66 4 -18 6 -56 6 -86 -1 -51 0 -55 49
-103 44 -43 50 -54 50 -89 0 -55 -20 -47 -45 19 -20 52 -40 71 -58 53 -5 -5
-10 -53 -11 -106 l-1 -97 33 -29 c43 -39 56 -38 47 4 -4 17 -9 42 -12 54 -4
15 0 25 11 29 30 11 29 13 27 -141 l-1 -60 -25 37 c-30 44 -55 42 -55 -4 0
-34 34 -88 55 -88 18 0 23 -22 29 -125 3 -44 10 -107 16 -140 17 -86 16 -134
-4 -184 -24 -62 -13 -156 20 -178 29 -19 31 -49 5 -63 -23 -12 -61 -107 -61
-151 0 -61 49 -119 100 -119 50 0 57 -14 36 -67 -10 -26 -24 -86 -32 -133 -7
-47 -25 -119 -39 -161 -14 -42 -25 -85 -25 -96 0 -11 -7 -39 -15 -62 -8 -23
-17 -92 -20 -154 -3 -62 -10 -138 -17 -170 -22 -114 -2 -326 47 -515 9 -31 22
-91 31 -132 24 -119 97 -205 192 -225 17 -3 32 -9 32 -12 0 -3 -12 -32 -26
-64 -23 -52 -25 -62 -14 -88 23 -58 96 -79 115 -34 22 54 23 88 4 142 -24 69
-24 88 1 128 l19 32 88 -31 c77 -27 102 -32 201 -33 70 -1 117 -6 124 -13 7
-7 26 -38 42 -69 20 -36 47 -68 73 -87 l43 -30 67 23 c61 21 282 155 298 181
6 9 -20 69 -60 140 -22 37 -18 59 16 97 25 29 121 215 142 276 4 9 11 17 16
17 17 0 23 -43 12 -74 -15 -39 -14 -121 3 -161 21 -49 61 -58 93 -21 13 15 23
38 23 51 0 35 -36 144 -55 165 -21 23 -22 67 -3 105 9 17 19 53 23 81 5 42 12
54 36 68 25 15 29 23 29 62 0 55 -32 120 -69 142 -18 10 -41 41 -61 82 -96
198 -133 249 -292 410 -266 267 -327 322 -414 367 -74 38 -179 63 -234 55 -8
-1 -26 1 -39 4 -24 5 -24 5 13 42 20 21 36 45 36 55 0 26 -57 84 -101 101 -31
13 -56 15 -100 10 -55 -6 -59 -5 -59 14 0 11 5 33 10 48 24 63 -23 134 -88
134 -27 0 -44 7 -59 23 -21 23 -43 114 -43 180 0 22 -5 58 -12 79 -11 38 -10
44 22 103 34 62 34 64 16 84 -18 20 -18 21 13 56 32 37 41 81 20 102 -9 9 -6
19 8 40 45 63 46 72 17 83 l-27 11 41 42 c28 29 42 52 42 69 0 15 5 30 10 33
6 3 10 16 10 27 0 12 7 30 17 40 13 14 14 23 5 42 -8 17 -7 27 1 36 18 18 -28
3 -79 -26 -22 -13 -55 -24 -72 -24 -28 0 -32 -5 -50 -52 -11 -29 -23 -71 -27
-93 -9 -51 -23 -69 -41 -54 -17 14 -18 51 -3 66 9 9 9 20 -1 43 -12 28 -11 33
10 55 19 20 21 30 15 65 -7 40 -6 42 15 35 16 -5 23 -2 27 14 5 19 6 19 30 4
24 -16 26 -16 36 3 12 22 57 67 110 109 36 29 37 31 27 67 -19 66 -73 85 -140
47z m-49 -542 c-13 -13 -15 1 -4 30 7 17 8 17 11 -1 2 -10 -1 -23 -7 -29z
m132 -864 c28 -49 10 -95 -48 -122 -25 -12 -51 -21 -59 -21 -17 0 -26 31 -26
97 0 62 23 85 80 81 26 -2 38 -10 53 -35z m222 -172 c41 -23 42 -43 3 -86 -42
-49 -187 -155 -210 -155 -10 0 -44 -14 -75 -30 -55 -30 -56 -30 -70 -10 -39
55 -23 153 38 230 30 38 45 49 76 53 21 3 56 10 78 15 51 12 121 5 160 -17z
m232 -232 c97 -50 274 -198 407 -341 44 -47 98 -98 122 -114 23 -16 61 -58 85
-94 59 -90 131 -221 125 -228 -3 -2 -21 7 -41 22 -43 33 -142 79 -212 100 -44
12 -52 12 -57 1 -9 -23 21 -43 95 -66 95 -29 172 -97 189 -169 6 -27 9 -68 7
-92 -3 -24 -8 -72 -12 -108 -11 -119 -43 -246 -87 -345 -16 -36 -77 -105 -93
-105 -6 0 -21 -13 -33 -30 -30 -40 -178 -110 -256 -121 -34 -5 -83 -13 -111
-18 -75 -15 -202 -13 -273 4 -83 20 -154 57 -223 117 -62 53 -86 95 -118 203
-41 135 -25 216 66 352 110 164 310 394 354 408 21 7 318 -21 388 -36 53 -12
75 2 40 24 -27 18 -151 42 -279 56 -47 5 -100 15 -118 22 -33 14 -34 13 -63
-21 -79 -96 -93 -110 -109 -110 -11 0 -33 -25 -59 -67 -23 -38 -71 -102 -107
-143 -45 -52 -83 -110 -121 -187 -49 -99 -57 -123 -65 -200 -5 -49 -12 -110
-16 -138 -6 -43 -9 -47 -18 -30 -6 11 -19 58 -29 105 -27 124 -24 474 4 595 6
22 12 63 15 90 4 28 22 104 41 170 30 105 52 198 72 313 3 22 17 41 42 59 20
15 64 53 98 85 34 32 70 58 80 58 11 0 28 7 39 15 36 29 132 14 231 -36z
m-425 -61 c-15 -15 -24 -6 -16 16 5 12 10 14 17 7 8 -8 8 -14 -1 -23z m1223
-1019 c9 -14 -3 -59 -15 -59 -6 0 -10 16 -10 35 0 34 12 46 25 24z m35 -336
c0 -7 -5 -13 -10 -13 -15 0 -32 50 -24 69 5 12 9 9 20 -14 7 -16 13 -36 14
-42z m-1290 -189 c0 -8 -4 -12 -10 -9 -5 3 -10 10 -10 16 0 5 5 9 10 9 6 0 10
-7 10 -16z m1003 -76 c41 -87 42 -95 10 -111 -15 -8 -37 -24 -47 -36 -11 -12
-25 -21 -32 -21 -7 0 -26 -11 -42 -25 -17 -14 -41 -25 -54 -25 -13 0 -37 -4
-54 -9 -18 -5 -37 -5 -47 0 -21 12 -91 150 -80 159 4 4 35 16 68 26 73 22 181
70 190 84 3 5 19 10 34 10 25 0 32 -8 54 -52z m-1083 32 c0 -5 -2 -10 -4 -10
-3 0 -8 5 -11 10 -3 6 -1 10 4 10 6 0 11 -4 11 -10z m198 -299 c4 -41 -11 -60
-33 -41 -15 13 -21 61 -8 74 17 16 38 -1 41 -33z"/>
<path d="M1688 4434 c-30 -16 -63 -70 -49 -78 5 -4 23 5 39 19 40 33 76 46
112 39 26 -6 30 -4 30 15 0 19 -6 21 -52 21 -29 -1 -65 -7 -80 -16z"/>
<path d="M1745 4341 c-30 -13 -68 -58 -62 -74 3 -8 20 -18 39 -21 86 -18 95
-18 111 -1 26 26 24 31 -28 71 -19 15 -19 15 5 11 14 -2 33 -8 44 -12 14 -6
17 -4 14 11 -2 15 -13 19 -53 21 -28 1 -59 -2 -70 -6z"/>
<path d="M1334 4309 c-38 -11 -97 -64 -92 -81 7 -21 24 -19 51 6 14 13 49 32
77 41 79 26 44 58 -36 34z"/>
<path d="M1424 4251 c-40 -18 -104 -84 -104 -108 0 -23 22 -25 36 -4 18 24 42
27 50 6 7 -18 65 -20 82 -3 7 7 12 27 12 44 0 24 5 34 20 39 25 8 27 35 3 35
-10 0 -27 2 -38 5 -11 3 -38 -3 -61 -14z"/>
<path d="M1815 4100 c-4 -6 -1 -18 6 -26 22 -27 45 -135 38 -183 -8 -63 -56
-106 -128 -114 -74 -9 -110 9 -140 67 -24 46 -24 47 -6 85 26 59 10 71 -34 25
-20 -22 -58 -54 -85 -72 -36 -25 -46 -36 -36 -42 8 -5 25 -3 42 6 39 20 61 11
93 -37 43 -66 113 -84 211 -54 59 18 54 18 54 2 0 -7 -13 -26 -30 -42 -36 -34
-29 -52 11 -28 40 24 62 59 56 91 -3 18 4 42 20 70 22 37 25 51 20 103 l-5 59
46 0 47 1 -24 19 c-13 11 -32 20 -44 20 -11 0 -34 10 -51 23 -46 35 -54 38
-61 27z"/>
<path d="M1672 4053 c2 -10 12 -18 23 -18 11 0 21 8 23 18 3 13 -3 17 -23 17
-20 0 -26 -4 -23 -17z"/>
<path d="M1025 6750 c-32 -33 -57 -62 -54 -64 3 -3 35 15 72 40 59 39 66 47
57 64 -6 11 -12 20 -13 20 -2 0 -29 -27 -62 -60z"/>
<path d="M4966 4855 c-35 -54 -85 -93 -155 -122 -20 -8 -58 -26 -86 -38 -27
-13 -77 -31 -109 -41 -33 -9 -93 -30 -133 -46 -82 -33 -97 -31 -82 11 5 15 8
72 7 127 l-3 99 -31 3 c-24 2 -35 -3 -47 -22 -22 -33 -73 -215 -82 -288 -3
-32 -17 -78 -31 -103 -13 -25 -24 -52 -24 -59 0 -7 -16 -35 -35 -62 -40 -55
-56 -104 -49 -143 3 -15 -8 -64 -26 -116 -17 -49 -48 -155 -70 -235 -42 -157
-91 -302 -122 -364 -26 -50 -161 -181 -215 -207 -23 -11 -59 -34 -80 -51 -21
-16 -78 -50 -128 -75 -49 -25 -103 -56 -118 -69 -16 -13 -35 -24 -43 -24 -8 0
-14 -7 -14 -15 0 -19 10 -19 57 2 148 64 325 170 414 245 31 26 61 48 67 48
18 0 121 150 133 194 6 22 19 57 29 76 18 36 66 199 96 325 9 39 24 86 34 105
9 19 25 59 34 88 18 54 22 57 45 43 7 -5 28 -5 46 -1 50 11 57 -4 34 -64 -11
-28 -44 -141 -74 -251 -103 -375 -122 -427 -198 -544 -42 -65 -101 -122 -132
-127 -17 -3 -39 -17 -50 -32 -46 -62 -113 -126 -199 -187 -50 -35 -96 -69
-103 -75 -34 -29 -213 -130 -230 -130 -11 0 -34 -5 -52 -11 -43 -15 -77 -5
-85 26 -3 14 -17 32 -31 41 -18 12 -25 25 -25 50 0 34 7 41 110 107 40 26 47
60 13 65 -11 2 -47 -11 -79 -27 -48 -27 -68 -31 -130 -31 -72 0 -74 -1 -122
-42 -101 -87 -162 -133 -189 -141 -15 -5 -45 -23 -66 -39 -52 -41 -72 -33
-152 56 l-66 73 -50 -9 c-54 -10 -208 -69 -247 -94 -100 -65 -135 -132 -106
-204 21 -52 15 -141 -11 -170 -20 -22 -85 -27 -141 -11 -47 13 -135 -6 -384
-86 -94 -30 -252 -44 -475 -42 -93 0 -204 0 -245 -1 -41 -1 -86 3 -100 8 -41
16 -80 59 -105 116 -13 29 -30 56 -39 59 -16 6 -126 226 -126 253 0 27 -62
157 -96 202 -18 24 -43 69 -54 100 -12 32 -30 71 -40 87 -27 44 -33 95 -20
158 14 71 43 114 105 155 59 40 89 82 80 112 -3 11 -12 20 -19 20 -27 0 -101
-31 -134 -56 -43 -33 -76 -23 -86 26 -13 66 -7 224 11 273 17 47 17 50 -2 85
-27 50 -66 63 -103 35 l-27 -20 -3 -179 c-3 -195 0 -224 24 -224 13 0 15 6 10
28 -3 15 -11 62 -18 104 -10 67 -10 84 5 131 19 60 41 87 58 70 7 -7 6 -26 -2
-57 -17 -70 -6 -220 21 -284 33 -76 40 -79 95 -38 84 64 106 37 26 -31 -30
-26 -52 -54 -56 -71 -3 -16 -15 -39 -25 -50 -24 -25 -25 -55 -5 -161 11 -54
28 -101 52 -143 20 -35 51 -88 68 -120 18 -31 36 -71 40 -90 4 -18 18 -51 31
-73 13 -22 32 -70 43 -105 11 -36 31 -81 45 -101 13 -19 31 -51 40 -70 9 -19
21 -42 28 -51 10 -15 9 -20 -6 -31 -17 -13 -13 -18 55 -65 l73 -52 103 0 c75
0 113 -4 134 -16 26 -13 44 -14 117 -5 53 6 150 8 247 3 213 -9 256 -9 345 5
62 10 77 10 85 -1 6 -7 29 -17 53 -21 62 -10 103 -70 70 -103 -7 -7 -35 -12
-64 -12 -29 0 -88 -7 -131 -15 -43 -8 -105 -15 -138 -15 -33 0 -100 -5 -150
-10 -79 -10 -93 -9 -122 7 -32 17 -36 17 -111 -2 -72 -19 -87 -20 -237 -9 -88
7 -187 17 -220 23 -150 29 -173 35 -213 54 -39 18 -72 58 -72 87 0 18 -99 260
-124 305 -32 55 -63 156 -77 245 -6 41 -20 110 -30 152 -14 59 -19 114 -19
228 0 82 -4 150 -9 150 -5 0 -16 -11 -25 -25 -15 -22 -16 -52 -13 -228 4 -207
23 -341 62 -447 9 -25 22 -70 30 -101 17 -68 70 -173 157 -309 79 -124 131
-141 528 -170 124 -9 160 -15 160 -29 0 -4 -22 -28 -50 -55 -27 -26 -62 -72
-77 -103 -15 -30 -36 -72 -47 -92 -43 -83 -68 -176 -73 -273 -3 -54 -11 -102
-17 -106 -6 -5 -31 -16 -56 -24 -72 -25 -173 -69 -200 -87 -23 -16 -111 -53
-265 -112 -86 -32 -115 -55 -115 -88 0 -16 6 -34 14 -40 17 -14 60 -5 78 16
13 16 152 83 172 83 7 0 32 13 57 28 71 44 170 85 229 93 30 4 69 11 86 14 35
8 36 5 64 -103 6 -23 22 -59 35 -79 14 -20 25 -43 25 -53 0 -9 26 -46 57 -83
83 -94 184 -146 348 -178 28 -5 73 -15 102 -21 35 -7 107 -9 215 -4 181 8 237
22 348 84 98 55 113 62 349 158 140 56 371 203 371 236 0 5 9 23 21 39 l21 30
78 -75 c43 -41 96 -86 118 -100 67 -42 164 -78 232 -87 36 -4 92 -13 125 -19
33 -5 134 -17 225 -25 91 -9 185 -20 210 -26 73 -18 174 -29 345 -39 88 -5
196 -14 240 -20 219 -29 352 -37 480 -28 196 14 437 11 535 -6 47 -8 146 -31
220 -51 74 -20 155 -41 180 -45 25 -4 122 -24 215 -43 158 -32 358 -68 500
-89 84 -12 390 -19 450 -10 68 10 213 -4 310 -29 44 -12 113 -26 153 -32 67
-9 76 -8 100 11 19 14 26 27 24 45 -5 46 22 52 238 51 295 -2 612 -11 640 -19
14 -3 66 -27 117 -53 l92 -46 35 16 c55 27 93 101 101 202 3 44 12 108 20 141
7 33 19 87 25 120 6 33 19 87 27 120 24 92 22 131 -10 162 l-27 27 -27 -20
c-29 -21 -153 -254 -153 -286 0 -9 -5 -20 -10 -23 -6 -4 -19 -24 -30 -45 -11
-22 -37 -57 -57 -78 -35 -37 -43 -40 -113 -48 -41 -4 -190 -8 -330 -9 -140 0
-312 -4 -382 -9 -110 -8 -128 -7 -128 6 0 33 27 50 105 64 98 17 237 40 330
55 39 5 95 15 125 21 30 6 78 15 105 20 28 5 94 13 147 16 67 5 103 12 113 23
32 32 58 148 56 259 0 58 7 160 16 227 13 96 14 127 5 147 -16 37 -44 32 -85
-14 -57 -62 -74 -105 -90 -232 -16 -120 -22 -140 -66 -196 -37 -48 -88 -71
-209 -93 -58 -12 -119 -27 -136 -36 -16 -8 -75 -19 -131 -24 -66 -6 -125 -18
-169 -34 -61 -23 -106 -32 -106 -20 0 2 5 15 11 29 9 20 9 29 -2 42 -14 18
-18 17 -239 -5 -75 -7 -90 -6 -130 12 -75 33 -223 109 -250 128 -14 9 -43 22
-65 28 -22 6 -76 34 -120 62 -92 59 -296 209 -340 249 -16 15 -59 47 -95 71
-36 24 -106 78 -157 121 -105 89 -313 248 -324 248 -4 0 -31 16 -60 36 -106
72 -232 124 -337 140 -53 8 -117 21 -142 29 -64 21 -251 46 -343 46 -131 0
-508 -63 -732 -121 -112 -29 -379 -48 -460 -32 -28 6 -95 20 -150 31 -55 12
-122 27 -150 32 -75 16 -85 19 -85 31 0 7 57 8 178 4 97 -4 204 -8 237 -9 49
-2 60 1 63 15 2 12 -5 19 -25 23 -15 3 -47 10 -71 15 -23 6 -68 10 -100 11
-31 0 -66 4 -77 8 -19 8 -19 8 0 18 11 6 36 14 55 18 77 16 146 45 176 74 31
31 49 86 37 117 -10 26 -92 36 -166 21 l-38 -8 3 58 c3 54 2 58 -26 71 -19 10
-44 12 -82 7 -62 -7 -125 -46 -246 -149 -42 -36 -81 -66 -87 -66 -22 0 -11 81
19 138 16 31 34 72 41 90 13 37 99 102 134 102 33 0 164 62 255 120 91 58 296
218 344 269 21 22 39 31 61 31 20 0 39 8 52 23 68 76 223 371 243 460 6 28 20
90 31 137 12 47 27 114 34 150 8 36 19 90 25 120 17 79 54 173 103 265 39 72
49 83 99 108 30 15 93 36 139 47 134 29 156 36 204 66 46 29 155 163 155 191
0 7 11 36 25 63 41 80 30 190 -18 190 -9 0 -32 -25 -51 -55z m49 -55 c12 -19
-36 -99 -87 -145 -30 -27 -104 -72 -182 -111 -72 -36 -133 -70 -135 -76 -7
-20 64 4 156 54 56 30 94 45 98 38 10 -16 -2 -27 -74 -70 -61 -35 -140 -61
-301 -100 -23 -6 -49 -25 -77 -57 -88 -100 -101 -112 -127 -119 -39 -9 -76 3
-86 31 -7 19 0 42 40 122 38 77 51 116 60 182 13 97 30 153 48 159 15 5 16
-44 2 -119 -8 -43 -8 -56 4 -68 13 -13 28 -8 123 37 59 28 137 62 173 75 36
13 82 32 102 41 25 11 39 12 43 5 4 -6 5 -12 2 -15 -7 -8 -168 -75 -235 -99
-81 -29 -86 -35 -27 -35 39 0 74 13 194 72 121 59 156 82 204 130 31 32 57 63
57 68 0 13 17 13 25 0z m-1964 -1955 c3 -27 14 -68 23 -90 23 -50 14 -172 -15
-225 -11 -19 -28 -68 -38 -109 l-17 -74 -87 -52 c-52 -32 -112 -59 -154 -70
-37 -9 -102 -33 -144 -52 -42 -20 -81 -33 -87 -29 -5 3 -13 21 -16 40 -4 20
-15 61 -26 93 -19 58 -19 58 2 80 11 12 33 26 49 32 42 14 59 -15 59 -101 0
-69 7 -81 31 -52 10 13 11 33 1 111 l-12 94 37 44 c21 25 43 44 50 45 20 0 36
-80 31 -157 -5 -77 2 -92 21 -45 16 40 17 119 2 187 -8 34 -11 73 -7 88 8 33
61 95 72 84 4 -4 15 -42 24 -84 12 -58 14 -90 7 -134 -10 -62 -3 -119 14 -102
32 32 26 245 -8 324 l-20 44 30 61 c24 49 39 66 71 83 23 12 55 20 71 19 28
-3 30 -6 36 -53z m-731 -77 c-36 -29 -116 -68 -140 -68 -29 0 -22 31 10 47 80
40 136 60 145 51 7 -6 1 -16 -15 -30z m101 -15 c8 -9 36 -33 62 -54 59 -47
115 -64 160 -49 34 10 97 62 97 78 0 16 38 44 44 33 15 -23 -55 -134 -154
-244 -104 -115 -275 -205 -458 -238 -256 -47 -539 -61 -379 -18 23 6 88 29
145 52 129 51 133 57 133 202 0 69 4 106 12 112 7 5 48 20 92 33 97 28 166 61
183 89 15 25 44 27 63 4z m1029 -253 c25 -25 25 -30 -3 -71 -26 -39 -139 -119
-169 -119 -14 0 -2 14 41 46 34 25 61 53 61 62 0 13 -4 12 -22 -5 -22 -20
-100 -63 -114 -63 -13 0 31 42 59 57 16 8 27 17 24 20 -11 10 -50 -10 -103
-53 -46 -38 -84 -55 -84 -40 0 23 184 168 225 179 41 10 66 6 85 -13z m184
-110 c33 -12 34 -49 4 -77 -28 -25 -82 -53 -103 -53 -17 0 -20 16 -5 25 23 14
7 25 -37 25 -58 0 -172 -39 -201 -68 -23 -23 -109 -52 -155 -52 -22 0 -28 4
-25 18 2 11 14 18 38 20 19 1 49 9 65 16 17 8 68 31 115 51 47 20 97 48 112
62 38 37 138 54 192 33z m-1789 -79 c-8 -8 -137 -51 -152 -51 -2 0 -3 7 -1 17
2 9 19 22 38 29 41 15 129 19 115 5z m603 -13 c6 -7 15 -38 20 -68 6 -30 15
-68 21 -83 6 -16 11 -32 11 -38 0 -12 -53 -45 -176 -108 l-101 -52 -114 0
c-111 1 -115 1 -158 32 -40 28 -46 29 -56 15 -14 -19 -24 -20 -61 -6 -26 10
-26 11 -9 30 13 14 15 23 7 32 -5 7 -12 38 -14 68 -3 54 -2 55 25 58 24 3 28
-1 34 -28 11 -57 103 -125 214 -159 48 -15 65 -14 96 6 14 9 38 16 54 15 15
-1 30 2 34 8 4 6 -8 10 -29 10 -70 0 -170 99 -164 162 3 32 5 33 62 42 57 9
60 9 75 -15 8 -13 38 -48 67 -76 40 -42 58 -53 83 -53 19 0 30 4 26 10 -3 6
-16 10 -28 10 -41 0 -119 124 -95 148 7 7 19 12 28 12 8 0 31 9 50 19 41 23
83 26 98 9z m562 -8 c0 -36 -84 -105 -186 -154 -52 -25 -129 -66 -170 -91 -40
-25 -77 -45 -81 -45 -6 0 -120 -52 -156 -71 -50 -27 -297 -53 -283 -30 4 6 18
11 30 11 31 0 101 25 134 48 15 10 49 27 76 37 27 9 76 37 110 61 75 54 181
106 273 133 38 11 105 43 148 70 90 55 105 60 105 31z m-1396 -50 c15 -15 5
-19 -78 -35 -90 -17 -172 -19 -181 -5 -7 11 10 18 90 44 52 17 151 14 169 -4z
m1420 -44 c6 -23 95 -90 172 -129 27 -14 174 -42 278 -53 21 -2 62 -10 90 -18
28 -8 58 -14 66 -14 8 0 47 -3 86 -5 149 -11 345 19 784 118 70 15 133 19 143
8 4 -3 0 -14 -9 -24 -20 -22 -12 -36 27 -44 37 -8 66 14 71 54 3 24 6 26 63
29 94 5 105 5 195 -6 47 -6 112 -19 145 -30 33 -11 67 -20 75 -21 23 -1 198
-48 249 -68 25 -10 65 -31 89 -48 24 -16 56 -36 70 -43 62 -30 225 -148 325
-235 46 -40 130 -104 188 -142 57 -37 109 -73 114 -80 17 -21 128 -110 180
-145 28 -18 68 -48 90 -65 22 -17 78 -49 125 -70 144 -68 395 -198 402 -209 4
-6 0 -19 -9 -29 -15 -16 -15 -19 -1 -34 15 -14 14 -17 -10 -38 -24 -21 -25
-24 -13 -54 18 -42 8 -111 -18 -133 -12 -9 -21 -25 -21 -36 0 -23 -12 -27
-130 -42 -93 -12 -247 -12 -320 1 -30 5 -98 13 -150 18 -52 5 -117 15 -144 21
-27 6 -111 20 -185 30 -189 28 -241 37 -276 48 -16 6 -66 18 -110 27 -44 9
-127 32 -185 52 -58 19 -135 41 -172 48 -37 8 -76 19 -88 25 -28 15 -198 15
-235 0 -36 -15 -522 -14 -628 1 -38 5 -126 14 -195 19 -135 11 -264 24 -402
40 -47 5 -139 14 -205 20 -66 5 -131 13 -145 16 -13 3 -56 9 -95 14 -280 36
-400 86 -501 208 -29 36 -83 90 -120 120 -45 38 -72 69 -85 99 -10 24 -32 64
-49 88 -17 25 -37 62 -44 82 -14 39 -54 123 -88 183 -59 108 -58 127 9 146 23
7 51 19 64 27 13 8 35 18 48 22 14 4 48 22 77 41 28 18 114 65 191 103 76 38
151 83 167 100 36 37 42 38 50 7z m-999 -23 c25 -53 75 -112 108 -129 39 -21
34 -34 -13 -34 -46 0 -173 59 -189 87 -5 10 -11 36 -12 57 -4 35 -1 41 21 47
53 15 67 10 85 -28z m-370 -224 c72 -6 141 -11 155 -11 28 1 96 -29 149 -65
54 -36 96 -43 211 -34 108 8 130 3 130 -28 0 -18 53 -126 74 -151 7 -8 27 -42
43 -75 41 -81 73 -138 117 -209 44 -73 45 -105 5 -168 -48 -75 -264 -236 -367
-274 -26 -10 -53 -22 -61 -28 -21 -16 -81 -35 -86 -26 -2 4 19 42 47 84 38 58
48 80 40 88 -14 14 -30 -3 -66 -72 -22 -41 -126 -143 -201 -198 -17 -13 -64
-34 -105 -49 -69 -25 -86 -26 -225 -25 -267 2 -429 44 -557 147 -67 53 -83 73
-117 141 -22 43 -52 119 -67 167 -28 91 -28 90 3 148 2 3 -8 11 -22 17 -37 17
-35 66 7 237 5 22 23 67 38 100 16 33 34 75 41 94 15 40 120 156 160 177 32
16 80 19 95 4 6 -6 47 -4 114 6 58 8 128 13 155 10 28 -3 66 -2 85 3 19 5 44
7 55 5 11 -3 79 -10 150 -15z m6663 -596 c-1 -71 0 -164 2 -208 2 -51 -2 -93
-10 -117 -12 -33 -18 -38 -45 -38 -35 0 -54 12 -78 52 -23 37 -22 40 19 102
27 41 39 73 50 136 13 75 25 129 40 183 3 9 10 17 15 17 5 0 8 -54 7 -127z
m-7638 -113 c13 -9 13 -11 0 -20 -18 -12 -50 -13 -50 -2 0 9 21 32 30 32 3 0
12 -5 20 -10z m7910 -115 c0 -14 -9 -57 -19 -97 -11 -40 -23 -100 -26 -133 -4
-33 -13 -79 -21 -103 -8 -23 -14 -67 -14 -98 0 -59 -17 -111 -44 -133 -15 -12
-20 -11 -44 12 -16 15 -36 27 -45 27 -15 0 -16 10 -11 93 6 88 8 95 50 157 24
36 54 90 65 120 11 30 27 62 34 70 8 9 24 37 35 63 23 51 40 61 40 22z m-480
-97 c0 -32 -9 -43 -55 -67 -57 -29 -144 -49 -266 -60 -58 -6 -126 -15 -150
-20 -24 -5 -74 -13 -111 -16 -59 -6 -68 -5 -68 9 0 9 12 21 27 27 38 14 211
49 246 49 15 0 44 7 65 16 35 15 273 81 300 83 6 1 12 -9 12 -21z m-780 -73
c0 -20 -138 -59 -161 -45 -15 10 -3 29 25 40 22 9 136 13 136 5z m33 -90 c-2
-11 -133 -33 -200 -34 -58 -1 -54 16 5 24 26 3 65 10 87 14 51 11 111 9 108
-4z m-26 -72 c6 -16 -21 -22 -149 -31 -86 -6 -108 -5 -108 5 0 21 43 32 103
27 30 -2 65 0 78 5 31 13 71 9 76 -6z m991 -95 c2 -27 -3 -43 -18 -58 -21 -21
-24 -22 -283 -13 -144 4 -353 8 -464 8 -112 0 -203 2 -203 6 0 3 11 16 25 29
21 20 40 25 137 32 62 5 248 11 413 12 174 2 313 8 330 14 48 17 60 11 63 -30z
m-1010 10 c2 -12 -14 -16 -80 -21 -136 -11 -178 -9 -178 8 0 19 26 24 140 28
117 3 114 4 118 -15z m-38 -73 c17 -9 30 -19 30 -23 0 -13 -238 -8 -251 5 -17
17 0 22 96 26 44 2 84 4 88 5 4 1 21 -5 37 -13z m21 -85 c34 -18 21 -30 -33
-30 -60 0 -128 16 -128 30 0 13 136 13 161 0z"/>
<path d="M4976 2077 c-24 -18 -16 -43 20 -59 22 -10 28 -10 39 6 30 40 -18 83
-59 53z"/>
<path d="M2833 2028 c-31 -40 -20 -81 18 -71 16 5 19 13 17 41 -3 38 -19 51
-35 30z"/>
<path d="M3064 1996 c-3 -14 -3 -30 1 -35 9 -16 41 -13 54 3 10 12 8 19 -8 35
-27 27 -39 26 -47 -3z"/>
<path d="M4070 1930 c-16 -16 -19 -25 -11 -33 8 -8 17 -5 33 11 16 16 19 25
11 33 -8 8 -17 5 -33 -11z"/>
<path d="M4409 1929 c-9 -18 -7 -26 9 -48 24 -32 46 -37 77 -17 33 22 32 31
-12 61 -46 31 -59 31 -74 4z"/>
<path d="M5390 1924 c0 -8 5 -12 10 -9 6 3 10 10 10 16 0 5 -4 9 -10 9 -5 0
-10 -7 -10 -16z"/>
<path d="M4823 1888 c-33 -38 -36 -48 -17 -69 22 -25 55 -24 88 2 37 29 35 64
-5 78 -42 15 -42 15 -66 -11z"/>
<path d="M5182 1850 c-46 -21 -56 -52 -23 -70 32 -17 67 -11 95 15 23 21 26
28 15 41 -25 30 -44 33 -87 14z"/>
<path d="M2530 1824 c-12 -14 -12 -18 5 -30 28 -21 50 -13 50 16 0 30 -35 39
-55 14z"/>
<path d="M3591 1826 c-18 -21 18 -61 47 -52 27 9 29 42 3 56 -26 13 -36 13
-50 -4z"/>
<path d="M2795 1806 c-14 -21 -15 -29 -5 -41 17 -20 26 -19 93 12 63 30 72 43
30 41 -16 0 -44 3 -65 7 -32 6 -38 4 -53 -19z"/>
<path d="M3252 1808 c-18 -18 -14 -46 7 -58 30 -15 40 -12 53 15 19 41 -28 75
-60 43z"/>
<path d="M5615 1796 c-25 -25 -25 -56 0 -56 7 0 29 13 49 29 35 28 36 30 17
40 -29 16 -39 14 -66 -13z"/>
<path d="M5509 1761 c-22 -18 -23 -21 -8 -36 21 -21 59 -11 59 14 0 33 -25 44
-51 22z"/>
<path d="M4183 1694 c-36 -28 -44 -64 -15 -64 34 0 97 28 100 45 5 20 -16 45
-37 45 -9 0 -31 -12 -48 -26z"/>
<path d="M4631 1683 c-18 -16 -19 -20 -6 -37 15 -19 15 -19 40 4 19 18 22 26
14 37 -15 17 -23 17 -48 -4z"/>
<path d="M3820 1664 c-19 -8 -38 -20 -42 -27 -21 -35 65 -52 95 -19 37 40 3
69 -53 46z"/>
<path d="M2982 1647 c-17 -18 -19 -26 -10 -35 32 -32 96 9 67 44 -16 20 -32
18 -57 -9z"/>
<path d="M5083 1630 c-22 -13 -31 -25 -27 -35 5 -12 16 -14 58 -9 54 7 76 18
76 39 0 30 -62 33 -107 5z"/>
<path d="M5506 1634 c-37 -36 -6 -71 51 -57 40 9 54 33 33 58 -16 20 -65 19
-84 -1z"/>
<path d="M2688 1629 c-21 -12 -24 -49 -4 -49 30 0 46 13 46 36 0 26 -14 30
-42 13z"/>
<path d="M5900 1601 c-47 -13 -51 -111 -5 -111 23 0 55 51 55 86 0 35 -5 38
-50 25z"/>
<path d="M3431 1501 c-36 -34 -37 -41 -13 -71 23 -28 43 -19 71 31 39 69 1 95
-58 40z"/>
<path d="M5327 1502 c-18 -20 -23 -57 -9 -66 5 -3 24 11 43 30 28 29 31 36 19
44 -22 14 -35 12 -53 -8z"/>
<path d="M4356 1471 c-33 -34 -29 -61 7 -61 31 0 60 32 55 62 -4 33 -29 33
-62 -1z"/>
<path d="M4775 1486 c-16 -7 -41 -25 -53 -39 -24 -25 -24 -25 -4 -36 12 -6 39
-11 61 -11 37 0 42 3 56 36 8 20 15 43 15 50 0 18 -36 17 -75 0z"/>
<path d="M2837 1402 c-11 -12 -13 -22 -6 -35 12 -21 52 -22 69 -2 10 13 10 19
-5 35 -22 25 -37 25 -58 2z"/>
<path d="M3142 1408 c-20 -20 -15 -68 6 -68 25 0 47 47 31 66 -14 17 -21 18
-37 2z"/>
<path d="M4054 1388 c-24 -56 12 -82 51 -36 31 37 28 52 -11 56 -24 2 -33 -2
-40 -20z"/>
<path d="M5721 1396 c-14 -17 -5 -43 20 -56 26 -15 37 -12 49 10 23 43 -38 84
-69 46z"/>
<path d="M6032 1367 c-14 -17 16 -82 38 -82 22 0 25 53 4 76 -20 22 -28 24
-42 6z"/>
<path d="M5067 1332 c-40 -41 -39 -52 5 -52 50 0 93 68 52 84 -9 3 -17 6 -18
6 -1 0 -19 -17 -39 -38z"/>
<path d="M3737 1324 c-9 -10 2 -24 19 -24 8 0 14 7 14 15 0 15 -21 21 -33 9z"/>
<path d="M6222 1318 c-18 -18 -15 -32 13 -58 19 -18 29 -21 44 -14 17 8 18 13
8 44 -13 37 -42 51 -65 28z"/>
<path d="M5374 1273 c-37 -40 -41 -55 -21 -71 9 -8 19 -5 37 8 14 11 31 20 38
20 6 0 21 9 33 21 20 20 20 22 3 40 -26 28 -52 23 -90 -18z"/>
<path d="M3365 1257 c-24 -38 1 -76 41 -60 10 4 14 16 12 42 -4 44 -30 53 -53
18z"/>
<path d="M4777 1259 c-32 -17 -36 -22 -27 -39 12 -23 50 -35 85 -26 19 5 25
13 25 34 0 29 -16 52 -34 52 -6 -1 -28 -10 -49 -21z"/>
<path d="M5050 1201 c-13 -26 -13 -33 4 -56 12 -16 16 -17 30 -6 21 17 21 67
0 75 -22 8 -22 8 -34 -13z"/>
<path d="M5661 1189 c-25 -5 -49 -13 -54 -18 -13 -13 -5 -42 15 -55 35 -22
122 47 91 73 -4 4 -28 4 -52 0z"/>
<path d="M3861 1176 c-13 -15 -6 -42 13 -49 15 -6 69 40 61 53 -9 15 -61 12
-74 -4z"/>
<path d="M4275 1181 c-9 -16 15 -57 45 -74 39 -23 74 -21 106 6 l27 23 -33 27
c-26 22 -42 27 -85 27 -30 0 -56 -4 -60 -9z"/>
<path d="M5944 1115 c-33 -33 -27 -48 25 -58 35 -7 46 -5 62 9 24 21 24 36 1
57 -26 24 -59 21 -88 -8z"/>
<path d="M3360 1095 c-10 -19 -11 -28 -2 -37 18 -18 44 -1 40 29 -4 35 -21 39
-38 8z"/>
<path d="M6490 1105 c0 -19 39 -40 52 -27 6 6 2 15 -13 26 -29 20 -39 20 -39
1z"/>
<path d="M3632 1081 c-20 -12 -10 -53 15 -62 32 -12 72 22 57 48 -12 20 -52
28 -72 14z"/>
<path d="M4818 1060 c-9 -6 -19 -29 -23 -52 -6 -34 -4 -44 11 -55 30 -22 47
-17 40 12 -4 16 -1 34 8 47 11 15 12 26 5 40 -11 20 -17 22 -41 8z"/>
<path d="M5230 995 c-19 -20 -21 -27 -10 -40 24 -29 90 -13 90 21 0 16 -28 44
-44 44 -7 0 -23 -11 -36 -25z"/>
<path d="M4397 1003 c-4 -3 -7 -19 -7 -34 0 -33 23 -49 69 -49 32 0 42 14 16
24 -8 3 -15 16 -15 30 0 29 -43 49 -63 29z"/>
<path d="M6540 1002 c0 -21 29 -32 87 -32 35 0 63 4 63 9 0 4 -26 13 -57 20
-66 13 -93 14 -93 3z"/>
<path d="M4090 985 c-23 -28 18 -47 65 -29 14 6 14 8 -1 25 -20 23 -47 24 -64
4z"/>
<path d="M6334 966 c-9 -22 2 -46 21 -46 12 0 15 8 13 27 -3 30 -25 42 -34 19z"/>
<path d="M5634 955 c-4 -10 -20 -15 -45 -15 -28 0 -42 -6 -53 -22 -15 -20 -14
-24 6 -45 28 -30 54 -29 101 2 36 25 44 45 31 79 -8 20 -33 21 -40 1z"/>
<path d="M6714 936 c-8 -22 -2 -27 16 -16 12 7 12 12 3 21 -10 10 -14 9 -19
-5z"/>
<path d="M5933 864 c-23 -23 -24 -27 -10 -42 15 -14 19 -14 52 4 43 23 47 27
39 48 -9 24 -52 19 -81 -10z"/>
<path d="M6637 874 c-14 -14 -7 -35 11 -32 9 2 17 10 17 17 0 16 -18 25 -28
15z"/>
<path d="M6251 828 c-33 -18 -35 -30 -10 -62 19 -24 26 -27 58 -21 37 7 81 39
81 60 0 7 -13 15 -29 18 -16 3 -39 9 -52 12 -13 3 -35 0 -48 -7z"/>
<path d="M6590 733 c-20 -8 -29 -23 -23 -40 7 -17 109 -18 119 -1 17 27 -53
57 -96 41z"/>
<path d="M1326 1583 c-4 -9 4 -32 18 -53 25 -38 25 -53 0 -43 -7 3 -27 -5 -43
-16 -16 -12 -36 -21 -44 -21 -23 0 -64 54 -71 94 -5 28 -12 36 -28 36 -17 0
-19 -4 -14 -26 6 -22 35 -72 71 -120 7 -10 5 -18 -6 -29 -21 -21 -102 -11
-155 19 -36 20 -43 31 -60 95 -6 18 -34 -5 -34 -28 0 -31 71 -89 125 -102 28
-6 61 -16 74 -21 23 -8 23 -10 7 -26 -11 -11 -46 -20 -103 -27 -56 -7 -88 -15
-91 -24 -3 -10 8 -12 49 -8 30 2 63 7 74 11 28 9 54 -9 37 -26 -15 -15 -15
-28 1 -28 6 0 32 21 56 45 34 36 48 44 65 39 30 -9 30 -8 11 -58 -12 -32 -16
-60 -12 -91 9 -60 -8 -65 -27 -8 -12 36 -13 48 -4 54 7 5 9 11 5 15 -25 26
-47 -74 -24 -109 21 -32 90 -54 120 -38 12 7 35 19 51 28 l29 16 -26 19 c-19
14 -27 29 -27 49 0 16 5 29 10 29 6 0 10 -5 10 -10 0 -6 27 -39 61 -74 44 -46
71 -67 100 -74 58 -15 57 2 -3 41 -59 39 -138 112 -138 129 0 7 15 8 45 4 55
-9 58 2 8 29 -37 20 -72 71 -73 108 0 25 18 21 49 -12 37 -40 86 -51 221 -51
90 0 121 4 138 16 18 12 20 19 12 29 -9 11 -17 11 -45 -1 -42 -17 -96 -8 -102
18 -4 14 -15 18 -52 18 -63 0 -78 11 -63 44 13 29 11 31 -38 41 -63 13 -111
44 -126 81 -16 37 -28 43 -38 17z m108 -137 c14 -19 41 -44 61 -56 19 -12 35
-26 35 -31 0 -12 -50 11 -86 41 -17 14 -39 30 -49 36 -12 6 -16 16 -12 27 9
25 22 21 51 -17z m-76 -130 c9 -20 7 -27 -8 -41 -25 -22 -34 -80 -19 -117 15
-36 1 -54 -26 -34 -27 19 -25 97 5 164 12 28 26 52 30 52 4 0 12 -11 18 -24z"/>
<path d="M1085 1216 c-14 -10 -15 -15 -6 -21 8 -4 19 -1 28 8 20 19 1 30 -22
13z"/>
<path d="M3330 548 c-157 -5 -314 -10 -350 -12 -141 -9 -599 -20 -850 -20
-386 0 -1264 13 -1342 20 -79 7 -108 0 -108 -27 0 -31 36 -37 170 -27 69 5
130 8 135 8 6 -1 142 -5 302 -8 286 -7 293 -8 315 -29 l22 -23 -28 0 c-15 0
-60 -11 -99 -24 -40 -13 -117 -36 -172 -52 -55 -15 -143 -46 -195 -69 -52 -23
-105 -46 -118 -50 -16 -5 -22 -13 -20 -28 5 -37 39 -30 128 28 47 30 103 60
125 66 22 5 63 18 90 29 28 10 86 28 130 40 44 12 99 28 122 37 22 8 50 12 62
8 16 -5 21 -2 21 13 0 18 8 19 115 20 63 0 117 -3 120 -9 4 -5 0 -11 -7 -13
-7 -2 -53 -16 -103 -31 -49 -15 -112 -34 -140 -43 -27 -8 -62 -21 -77 -29 -15
-8 -78 -30 -140 -49 -143 -45 -358 -146 -358 -169 0 -30 32 -29 95 3 33 18 66
32 72 32 6 0 24 11 40 24 16 14 72 41 124 61 51 20 130 51 174 69 90 37 160
61 255 87 36 10 101 31 145 46 75 27 91 29 255 32 96 2 221 4 278 6 100 2 104
2 128 -23 23 -26 24 -26 151 -22 70 2 148 4 173 3 308 -3 483 -2 491 2 4 3
145 5 311 4 487 -3 480 -3 524 -26 36 -18 58 -20 249 -22 116 0 234 3 263 7
31 6 101 5 170 -1 64 -5 143 -10 175 -10 59 -1 73 -9 35 -22 -48 -15 58 -24
293 -24 130 -1 259 -5 287 -11 28 -5 79 -6 114 -2 35 4 106 4 158 0 52 -4 397
-10 765 -13 454 -4 681 -10 705 -17 23 -8 177 -13 445 -15 226 -2 427 -4 448
-5 44 -2 64 18 42 42 -12 13 -47 15 -252 13 -406 -5 -523 -4 -533 2 -5 3 -83
6 -172 7 -110 0 -170 5 -183 13 -22 14 -206 13 -665 0 -240 -7 -266 -7 -279 8
-11 14 -33 17 -120 17 -103 0 -392 18 -420 26 -11 4 -12 7 -3 16 7 7 12 15 12
19 0 4 -80 7 -177 6 -284 -3 -844 13 -885 25 -38 11 -42 28 -7 28 10 0 19 5
19 11 0 8 -18 10 -57 5 -126 -14 -548 -3 -558 15 -6 9 119 21 190 18 91 -4
205 3 205 13 0 10 -784 7 -1230 -4z m640 -18 c0 -5 -7 -10 -15 -10 -8 0 -15 5
-15 10 0 6 7 10 15 10 8 0 15 -4 15 -10z m-916 -56 c32 -12 15 -21 -40 -23
-49 -1 -55 1 -44 14 13 15 56 20 84 9z m-158 -15 c3 -5 -32 -10 -83 -11 -48 0
-100 -2 -115 -2 -29 -2 -38 9 -15 17 22 9 207 5 213 -4z m34 1 c0 -5 -2 -10
-4 -10 -3 0 -8 5 -11 10 -3 6 -1 10 4 10 6 0 11 -4 11 -10z m275 0 c-7 -12
-52 -12 -80 0 -15 6 -6 9 33 9 33 1 51 -3 47 -9z m168 3 c-7 -2 -21 -2 -30 0
-10 3 -4 5 12 5 17 0 24 -2 18 -5z m1132 -43 c4 -6 -15 -10 -50 -10 -35 0 -54
4 -50 10 3 6 26 10 50 10 24 0 47 -4 50 -10z m-128 -6 c-3 -3 -12 -4 -19 -1
-8 3 -5 6 6 6 11 1 17 -2 13 -5z m1150 -53 c13 -8 -11 -10 -98 -11 -121 0
-182 7 -174 20 7 12 250 4 272 -9z m48 9 c3 -5 -1 -10 -10 -10 -9 0 -13 5 -10
10 3 6 8 10 10 10 2 0 7 -4 10 -10z"/>
<path d="M8170 542 c0 -33 24 -52 78 -62 29 -5 61 -14 72 -20 27 -14 66 -12
79 4 10 12 5 16 -24 26 -20 7 -39 19 -42 27 -4 10 -14 12 -34 8 -20 -5 -39 0
-63 14 -41 26 -66 27 -66 3z"/>
<path d="M2240 389 c-36 -11 -92 -27 -125 -35 -112 -29 -230 -65 -285 -89 -30
-13 -67 -27 -83 -30 -15 -4 -34 -16 -41 -27 -10 -14 -20 -18 -35 -13 -24 7
-209 -41 -230 -61 -34 -31 30 -46 91 -20 18 8 58 19 88 26 30 7 60 16 65 20
47 36 285 130 410 161 95 24 235 71 235 80 0 12 -13 10 -90 -12z"/>
<path d="M2390 321 c-36 -20 -500 -170 -545 -176 -62 -8 -78 -17 -69 -38 8
-22 52 -33 67 -18 6 6 21 11 34 11 30 0 156 44 200 70 19 11 44 20 56 20 36 0
250 80 274 103 31 27 18 48 -17 28z"/>
</g>
</svg>
