<?xml version="1.0" standalone="no"?>
<!DOCTYPE svg PUBLIC "-//W3C//DTD SVG 20010904//EN"
 "http://www.w3.org/TR/2001/REC-SVG-20010904/DTD/svg10.dtd">
<svg version="1.0" xmlns="http://www.w3.org/2000/svg"
 width="1280.000000pt" height="1225.000000pt" viewBox="0 0 1280.000000 1225.000000"
 preserveAspectRatio="xMidYMid meet">
<metadata>
Created by potrace 1.15, written by Peter Selinger 2001-2017
</metadata>
<g transform="translate(0.000000,1225.000000) scale(0.100000,-0.100000)"
fill="#000000" stroke="none">
<path d="M11660 12214 c-73 -29 -93 -34 -140 -29 -61 6 -134 -12 -211 -50 -25
-13 -83 -36 -128 -51 -78 -26 -82 -26 -101 -9 -19 17 -23 17 -92 0 -96 -23
-214 -68 -261 -101 -21 -14 -66 -33 -100 -43 -34 -10 -95 -39 -136 -66 -67
-43 -72 -49 -56 -61 16 -12 11 -20 -63 -89 -44 -42 -133 -133 -196 -204 -81
-90 -134 -139 -176 -164 -116 -68 -204 -88 -133 -29 18 15 42 48 53 74 20 45
96 124 145 150 13 7 62 41 110 76 47 34 90 62 95 62 4 0 17 11 27 24 11 13 28
25 38 27 20 4 33 29 15 29 -17 0 -176 -88 -190 -105 -7 -8 -18 -15 -25 -15 -7
0 -16 -7 -19 -15 -3 -9 -31 -27 -61 -40 -31 -14 -84 -52 -119 -84 -35 -33 -77
-66 -94 -75 -20 -10 -36 -30 -47 -58 -14 -38 -19 -43 -48 -43 -30 0 -32 -2
-34 -39 -1 -28 -9 -47 -35 -73 -32 -34 -192 -153 -205 -153 -3 0 -11 -7 -17
-15 -10 -14 -18 -12 -61 16 -28 18 -61 42 -75 54 -54 48 -188 72 -310 57 -101
-14 -299 -64 -365 -93 -11 -5 -81 -29 -155 -55 -74 -25 -203 -72 -287 -105
-83 -32 -159 -59 -167 -59 -9 0 -45 -11 -82 -25 -36 -14 -73 -25 -81 -25 -8 0
-29 -6 -46 -14 -18 -7 -45 -19 -62 -26 -16 -7 -46 -16 -65 -21 -43 -9 -327
-96 -355 -107 -11 -5 -80 -29 -153 -52 -73 -24 -135 -47 -138 -52 -3 -4 -14
-8 -25 -8 -38 0 -233 -104 -304 -161 -38 -31 -83 -64 -100 -72 -50 -25 -174
-146 -197 -191 -11 -22 -36 -59 -55 -81 -69 -81 -125 -157 -169 -232 -25 -42
-58 -93 -73 -112 -81 -103 -137 -233 -163 -378 -14 -79 5 -164 57 -257 57
-103 86 -125 209 -166 58 -19 84 -22 160 -18 51 3 102 11 115 17 12 7 25 11
27 8 2 -2 -4 -42 -15 -88 -11 -46 -23 -111 -27 -144 -3 -33 -12 -76 -19 -95
-8 -19 -19 -80 -25 -135 -6 -55 -18 -132 -26 -171 -34 -173 55 -449 122 -382
14 14 14 19 -1 48 -35 67 -44 462 -14 585 5 22 12 76 15 120 2 44 11 100 19
125 7 25 16 61 20 80 4 19 26 114 51 211 70 280 75 316 73 526 l-2 188 32 80
c17 44 41 99 52 122 25 49 132 163 169 179 14 6 59 27 102 47 66 31 87 36 160
38 48 2 92 -2 105 -9 14 -8 67 -10 158 -8 157 5 254 -13 352 -63 72 -36 91
-57 138 -154 63 -129 140 -192 237 -192 l58 0 0 -92 c0 -50 6 -122 14 -160 15
-72 14 -161 -4 -267 -8 -42 -10 -153 -6 -328 11 -510 8 -862 -8 -978 -13 -101
-38 -225 -49 -245 -6 -11 -14 -44 -18 -74 -9 -61 -52 -178 -112 -301 -40 -82
-94 -157 -167 -229 -19 -19 -68 -71 -108 -115 -96 -106 -147 -146 -186 -146
-17 0 -49 -9 -72 -19 -23 -10 -72 -24 -110 -30 -59 -10 -81 -8 -154 8 -141 31
-242 74 -347 148 -55 38 -65 52 -103 130 -41 85 -63 171 -51 192 4 5 29 19 56
31 27 12 110 58 183 103 112 68 136 79 150 69 35 -25 59 -28 127 -20 100 12
98 12 117 4 13 -6 22 2 37 33 12 22 27 44 34 48 8 4 28 27 45 51 31 43 31 44
30 170 -1 79 -6 136 -13 152 -7 14 -18 38 -24 54 -11 27 -14 28 -52 22 -24 -4
-74 0 -117 8 -257 50 -247 49 -319 37 -85 -15 -109 -31 -124 -81 -8 -28 -19
-42 -33 -44 -97 -19 -312 -71 -359 -88 l-59 -21 -44 21 c-30 15 -44 28 -44 41
0 13 -16 29 -45 47 -39 22 -54 26 -104 22 -48 -3 -75 -14 -152 -57 -102 -58
-152 -104 -211 -193 -21 -32 -42 -58 -47 -58 -5 0 -47 -34 -95 -76 -87 -75
-130 -130 -148 -188 -19 -60 -32 -77 -87 -108 -31 -17 -95 -57 -143 -89 -47
-31 -129 -78 -180 -104 l-94 -48 -45 30 c-32 23 -52 30 -72 26 -29 -6 -36 -30
-15 -51 6 -6 -22 6 -63 28 -42 22 -82 37 -92 34 -9 -3 -39 2 -66 11 -59 19
-88 11 -128 -39 -18 -24 -36 -36 -53 -36 -56 0 -99 -21 -140 -68 -46 -52 -46
-51 -20 -195 12 -72 5 -132 -28 -207 l-14 -35 -19 70 c-25 94 -24 134 6 207
14 34 25 62 25 64 0 1 -9 4 -20 7 -43 11 -107 -107 -112 -206 -1 -26 -7 -51
-12 -56 -11 -9 -147 -58 -321 -116 -55 -18 -130 -44 -167 -58 -102 -39 -174
-44 -233 -18 -56 25 -192 61 -227 61 -29 -1 -52 -20 -106 -88 -57 -73 -58
-118 -4 -172 36 -36 41 -38 125 -45 100 -8 178 3 312 45 50 15 99 30 110 33
11 3 52 19 90 35 39 16 89 32 112 35 23 4 97 30 165 58 68 28 135 56 150 62
34 14 51 1 84 -64 28 -56 192 -226 284 -294 58 -43 106 -67 178 -89 45 -14 22
22 -45 72 -38 28 -106 89 -152 136 -73 75 -83 89 -78 113 6 29 -10 120 -23
138 -13 17 -22 84 -31 235 -5 80 -10 160 -11 179 -3 30 2 39 40 68 86 65 113
32 86 -106 -22 -119 -12 -334 21 -439 30 -95 96 -203 167 -275 93 -93 272
-167 311 -128 14 14 -6 37 -41 46 -15 3 -69 27 -120 52 -93 45 -94 46 -152
135 -45 68 -69 119 -97 207 l-38 116 2 206 1 206 31 61 c17 33 35 63 40 67 14
8 49 -29 57 -60 4 -18 -8 -73 -35 -164 -87 -286 -67 -403 108 -620 45 -56 174
-151 203 -151 73 1 75 61 8 205 -27 59 -50 114 -50 123 0 10 18 -4 46 -36 25
-29 77 -70 116 -93 39 -23 106 -69 150 -103 92 -70 88 -68 232 -138 69 -34
133 -74 175 -110 132 -115 264 -198 313 -198 11 0 61 -22 111 -49 66 -36 111
-53 161 -61 38 -6 81 -17 96 -25 64 -33 431 -19 540 20 81 29 136 45 155 45
11 0 37 9 58 20 20 11 42 20 49 20 6 0 19 7 29 16 9 8 43 22 75 31 32 8 79 26
106 39 75 38 157 29 180 -21 15 -32 35 -32 118 5 38 17 74 30 82 30 7 0 37
-22 64 -49 59 -55 143 -106 194 -116 19 -3 49 -11 67 -16 33 -11 29 0 74 -197
5 -24 16 -54 24 -65 7 -12 20 -47 28 -77 9 -30 31 -100 50 -155 56 -161 127
-385 127 -401 0 -8 12 -38 27 -67 23 -47 47 -138 74 -282 6 -32 5 -105 -2
-200 -15 -202 -6 -304 37 -435 20 -58 42 -115 50 -127 8 -12 14 -34 14 -48 0
-15 4 -35 10 -45 21 -40 41 -164 34 -221 -6 -55 -7 -57 -53 -80 -45 -24 -52
-24 -346 -26 -352 -2 -409 -6 -541 -38 -147 -35 -246 -73 -419 -162 -136 -69
-184 -92 -203 -98 -13 -4 -52 -26 -85 -49 -34 -24 -82 -51 -107 -60 -25 -10
-52 -24 -60 -31 -8 -7 -54 -36 -102 -64 -82 -47 -123 -75 -283 -193 -35 -27
-88 -62 -116 -79 -29 -17 -77 -51 -107 -77 -61 -52 -242 -255 -242 -272 0 -6
-7 -13 -15 -16 -8 -3 -55 -54 -104 -113 -49 -58 -122 -144 -161 -191 -40 -47
-81 -98 -92 -115 -12 -16 -34 -43 -50 -60 -59 -62 -142 -162 -181 -220 -23
-33 -46 -66 -51 -73 -6 -7 -36 -43 -66 -82 -44 -55 -61 -69 -83 -70 -30 0
-174 -70 -247 -119 -25 -17 -52 -31 -61 -31 -9 0 -33 -14 -54 -30 -21 -17 -50
-33 -64 -37 -14 -3 -37 -13 -51 -23 -14 -9 -39 -22 -56 -29 -36 -14 -81 -59
-113 -113 -12 -20 -27 -35 -34 -32 -7 2 -50 48 -97 100 -99 112 -143 145 -254
190 -44 18 -82 38 -84 43 -2 5 10 17 26 25 16 8 41 31 55 50 23 29 27 45 27
100 0 37 -6 92 -14 124 -34 135 -46 200 -47 247 -1 28 -5 70 -10 95 -26 145
-31 219 -21 355 6 77 17 163 25 190 9 28 25 82 36 121 l21 71 47 7 c26 3 91 9
145 13 54 3 101 10 104 15 3 5 -1 17 -9 26 -12 13 -15 34 -12 92 3 41 5 81 5
88 0 20 55 14 85 -10 l28 -22 27 31 c41 46 71 170 73 306 1 62 -1 123 -6 137
-16 52 -7 54 220 49 420 -9 483 -6 703 28 381 60 543 83 584 83 22 0 74 7 116
15 41 8 109 19 150 25 41 7 97 16 123 21 26 5 67 9 90 9 53 0 227 31 331 59
150 40 297 146 330 238 10 26 26 66 36 88 10 22 21 57 24 77 6 33 3 42 -28 76
-64 71 -247 143 -486 192 -58 11 -118 25 -135 30 -148 43 -436 85 -690 100
-82 5 -197 12 -254 16 -97 7 -103 6 -99 -12 4 -23 44 -33 168 -44 294 -26 538
-66 830 -139 85 -21 209 -51 275 -66 66 -15 136 -35 155 -45 19 -10 52 -21 73
-25 69 -11 137 -94 123 -150 -6 -24 -51 -55 -81 -55 -24 0 -17 -30 10 -40 14
-5 25 -13 25 -18 0 -5 -22 -28 -50 -51 -40 -33 -75 -50 -182 -85 -139 -46
-235 -66 -223 -47 3 6 14 11 24 11 10 0 32 7 47 15 16 8 39 15 51 15 19 0 191
65 221 83 6 5 12 14 12 22 0 27 -35 26 -95 -3 -61 -30 -252 -82 -299 -82 -14
0 -58 -9 -98 -19 -40 -11 -109 -23 -153 -26 -44 -3 -138 -12 -210 -20 -171
-19 -234 -23 -455 -30 -101 -4 -205 -10 -230 -14 -75 -13 -1245 -5 -1425 9
-152 13 -410 18 -595 12 -174 -5 -418 9 -620 35 -25 3 -103 7 -175 8 -71 2
-193 11 -270 20 -129 15 -288 30 -410 41 -81 6 -397 64 -435 79 -19 8 -71 17
-115 21 -44 4 -90 10 -102 15 -11 4 -88 15 -170 24 -81 8 -182 20 -223 25 -88
11 -211 25 -402 45 -228 25 -490 79 -558 115 -26 14 -26 64 -1 89 49 49 320
113 776 182 39 6 81 13 95 15 14 3 57 9 95 14 39 5 97 13 130 20 33 6 107 13
165 15 58 3 125 9 150 15 25 5 119 11 209 14 123 4 169 9 187 21 15 9 47 15
87 15 35 0 67 3 71 8 4 4 22 8 39 8 18 1 137 7 264 13 303 13 613 15 625 3 5
-5 17 -40 27 -78 10 -38 21 -79 25 -92 7 -22 6 -23 -28 -17 -31 6 -36 5 -36
-12 0 -22 67 -58 126 -68 22 -3 66 -12 99 -20 164 -38 352 -62 537 -69 75 -2
170 -9 210 -15 176 -26 341 -42 438 -42 229 -2 349 3 425 16 72 12 83 17 105
47 13 18 43 52 66 76 37 38 46 42 90 42 63 0 94 9 94 26 0 21 -14 24 -69 15
-29 -5 -54 -4 -57 1 -11 17 136 314 187 380 96 124 175 209 212 232 23 14 57
39 76 55 27 24 32 34 27 55 -8 32 -25 33 -114 7 -42 -12 -116 -22 -197 -26
-71 -3 -242 -12 -380 -20 -224 -14 -530 -26 -610 -26 -56 1 -489 29 -680 44
-104 8 -230 15 -280 16 -79 1 -92 3 -106 22 -17 23 -106 40 -239 44 -91 2
-143 23 -170 67 -25 42 -25 54 3 108 30 60 52 72 73 41 20 -28 79 -54 105 -46
25 8 24 20 -7 61 -22 28 -24 37 -14 49 15 18 124 20 185 4 22 -6 56 -12 75
-13 29 -1 35 3 35 19 0 23 -49 50 -110 60 -115 19 -95 28 71 32 94 2 153 -1
190 -11 52 -14 55 -13 114 15 33 15 80 41 103 57 110 76 238 122 340 122 l28
0 -26 -34 c-14 -19 -51 -46 -81 -60 -32 -15 -54 -32 -51 -39 8 -25 59 -18 145
21 97 45 193 62 345 62 88 0 120 -5 225 -37 93 -29 85 -40 -30 -45 -113 -5
-178 -27 -178 -60 0 -16 10 -18 89 -18 136 0 249 -45 325 -129 22 -24 54 -28
62 -7 8 20 -54 113 -105 159 -30 27 -40 43 -36 56 4 13 -5 28 -31 50 -39 35
-40 50 -3 30 29 -15 131 -117 155 -155 11 -16 33 -48 51 -72 18 -24 33 -47 33
-52 0 -5 11 -25 24 -45 14 -20 27 -49 31 -65 9 -41 35 -40 35 1 0 29 2 31 28
25 37 -9 179 -82 219 -112 18 -14 36 -39 41 -57 9 -35 42 -48 68 -27 20 17 18
39 -10 96 -46 94 -170 191 -270 209 -73 14 -104 -23 -41 -49 45 -19 44 -26 -5
-26 -31 0 -40 4 -40 18 0 9 -18 44 -40 77 -22 33 -40 63 -40 68 0 13 -116 179
-149 214 -38 39 -122 66 -211 68 -36 1 -77 6 -91 12 -17 7 -115 11 -270 11
-349 0 -418 -17 -557 -143 -40 -36 -76 -65 -80 -65 -4 0 -59 10 -122 22 -149
28 -254 28 -345 0 -66 -21 -77 -29 -181 -131 -122 -120 -148 -161 -147 -236 1
-27 -1 -53 -3 -57 -3 -4 -25 2 -49 14 -35 17 -48 19 -57 10 -17 -17 33 -67 99
-99 49 -22 68 -43 42 -43 -5 0 -53 22 -106 50 -53 27 -103 50 -113 50 -9 0
-25 -9 -36 -21 -18 -20 -18 -21 1 -36 11 -8 60 -35 109 -60 144 -72 326 -210
326 -245 0 -5 14 -30 31 -55 35 -51 52 -132 28 -134 -44 -4 -533 2 -540 6 -4
3 -48 1 -96 -4 -48 -5 -160 -15 -247 -22 -88 -6 -174 -16 -190 -21 -38 -12
-357 -45 -561 -58 -82 -6 -163 -14 -180 -19 -16 -5 -59 -12 -95 -16 -67 -6
-143 -18 -240 -37 -30 -5 -75 -14 -100 -19 -25 -4 -65 -12 -90 -17 -25 -5 -92
-19 -150 -30 -238 -48 -267 -54 -320 -69 -41 -11 -66 -27 -98 -59 -40 -42 -42
-47 -36 -87 4 -23 10 -49 15 -57 14 -28 178 -92 269 -105 47 -7 103 -20 124
-29 24 -11 77 -19 135 -22 53 -3 112 -9 131 -14 19 -5 82 -12 140 -15 58 -4
137 -13 175 -22 39 -8 104 -18 145 -22 83 -9 311 -45 378 -61 23 -6 69 -10
101 -10 33 0 72 -5 88 -11 39 -15 137 -32 203 -34 54 -3 105 -11 345 -60 101
-20 159 -25 365 -29 135 -3 270 -10 300 -15 30 -5 80 -10 110 -10 31 -1 61 -6
66 -11 6 -6 82 -15 170 -20 87 -6 170 -13 184 -16 14 -3 173 -7 355 -9 336 -3
440 -9 463 -28 13 -10 244 -11 467 -1 261 11 685 27 790 30 66 2 203 8 305 14
102 6 223 13 270 15 47 3 132 11 190 19 58 8 132 18 165 21 33 4 98 16 145 26
133 31 150 33 150 20 0 -6 -12 -13 -27 -16 -16 -3 -53 -12 -83 -20 -97 -26
-299 -57 -445 -69 -22 -2 -76 -8 -120 -14 -44 -6 -123 -16 -175 -22 -52 -6
-115 -15 -140 -20 -98 -19 -309 -24 -875 -23 -381 0 -645 5 -745 13 -85 7
-171 12 -190 12 -177 -7 -656 -2 -707 7 -34 7 -127 16 -205 21 -79 5 -161 14
-183 20 -22 5 -110 13 -195 16 -85 3 -191 9 -235 14 -103 11 -334 48 -347 56
-5 3 -64 14 -131 24 -67 11 -135 21 -152 24 -16 3 -115 17 -220 31 -104 14
-224 30 -265 35 -111 15 -209 27 -365 45 -77 9 -192 25 -255 36 -63 10 -160
26 -215 34 -55 9 -145 23 -200 31 -143 23 -150 23 -150 -1 0 -21 6 -23 159
-50 49 -9 117 -24 150 -34 117 -35 211 -55 276 -56 60 -2 196 -22 313 -45 27
-6 82 -10 122 -10 41 0 106 -7 145 -15 40 -8 136 -22 213 -30 141 -15 222 -27
428 -66 59 -11 122 -22 140 -23 19 -2 72 -11 119 -19 158 -31 418 -69 580 -87
215 -23 277 -28 309 -23 36 6 229 -16 236 -26 2 -4 -3 -31 -11 -61 -8 -30 -17
-107 -20 -170 l-6 -115 31 -43 c38 -51 107 -103 159 -118 l37 -11 -3 -74 c-3
-71 -2 -76 29 -117 36 -45 36 -45 119 -62 30 -6 61 -14 69 -19 11 -7 14 -73
17 -332 6 -511 7 -496 -24 -554 -15 -27 -50 -72 -78 -100 -79 -77 -121 -139
-134 -197 -11 -47 -10 -59 6 -93 10 -22 18 -44 18 -49 1 -5 -23 -15 -53 -23
-77 -19 -103 -34 -121 -68 -20 -40 -19 -40 -134 -69 -167 -41 -440 -134 -554
-188 -59 -27 -163 -75 -232 -105 -69 -31 -186 -89 -260 -131 -361 -201 -795
-372 -947 -372 -28 0 -113 11 -187 25 -167 31 -178 31 -245 -3 -60 -31 -88
-61 -97 -109 l-6 -33 62 0 c61 0 62 1 47 18 -32 35 -17 62 50 96 37 18 65 20
125 6 95 -21 235 -43 272 -42 48 2 251 47 331 74 33 11 128 51 210 90 83 39
174 79 203 89 30 10 108 49 175 86 323 178 715 353 794 353 21 0 56 12 89 30
57 33 227 84 412 125 65 14 133 30 153 35 43 12 59 13 59 3 0 -14 -69 -53 -94
-53 -13 0 -34 -8 -47 -18 -107 -83 -376 -229 -534 -289 -49 -19 -146 -64 -215
-100 -69 -36 -181 -95 -250 -131 -181 -93 -529 -281 -573 -309 -20 -13 -59
-32 -85 -43 l-47 -19 59 0 c53 -1 70 5 165 55 58 31 124 66 146 77 22 12 95
54 163 94 203 121 712 370 712 349 0 -7 -53 -71 -117 -142 -65 -72 -146 -164
-181 -207 -80 -99 -159 -160 -231 -181 -31 -9 -67 -23 -81 -31 -22 -13 -4 -14
177 -15 l201 0 41 47 c66 76 148 198 206 305 30 54 71 120 93 146 22 26 47 62
57 81 25 50 103 130 150 153 22 11 91 54 152 94 172 112 249 145 267 115 3 -4
34 -18 68 -31 87 -32 126 -58 203 -139 74 -76 115 -132 115 -155 0 -8 17 -36
39 -63 21 -27 46 -65 56 -83 10 -18 37 -61 62 -94 33 -46 43 -67 39 -86 -2
-14 -1 -32 4 -40 7 -11 15 -8 44 14 20 15 36 32 36 39 0 14 225 177 244 177 7
0 19 -19 25 -42 17 -61 35 -80 78 -87 28 -5 39 -12 41 -27 5 -38 -72 -134
-208 -257 l-74 -67 56 0 56 0 94 99 c74 79 104 104 146 120 29 12 58 21 65 21
7 0 19 -22 26 -50 7 -27 21 -60 32 -74 25 -31 25 -31 -12 -77 l-31 -39 63 0
c48 0 60 3 52 11 -9 9 -1 25 34 65 40 47 50 54 82 54 38 0 80 -33 95 -74 4
-12 13 -17 27 -13 15 4 23 -1 31 -19 10 -22 16 -24 89 -24 l78 0 30 52 c88
154 106 203 162 428 17 69 36 136 42 150 11 23 155 129 202 149 11 5 58 32
104 60 46 28 87 51 91 51 9 0 127 76 205 132 32 24 95 62 140 84 268 138 384
199 415 219 110 71 338 199 420 235 52 23 99 46 105 51 5 5 15 9 22 9 7 0 50
17 96 39 45 21 98 43 117 50 19 6 71 22 115 36 44 15 116 33 160 41 44 9 101
25 127 36 45 19 68 18 68 -3 0 -5 -17 -56 -39 -112 -40 -106 -94 -279 -111
-357 -5 -25 -21 -74 -35 -110 -38 -94 -85 -227 -85 -239 0 -6 -9 -30 -19 -54
-11 -23 -29 -69 -41 -102 -12 -33 -26 -65 -31 -71 -15 -18 -59 -155 -59 -184
0 -14 -5 -31 -11 -37 -6 -6 -14 -26 -19 -44 -12 -48 -100 -264 -191 -467 l-19
-43 22 3 c38 5 139 217 235 493 34 99 124 333 165 430 12 28 25 66 29 85 26
112 181 543 235 654 45 90 52 116 34 116 -16 0 -11 30 11 66 11 19 29 34 38
34 20 0 51 -30 51 -50 0 -21 -46 -135 -101 -249 -27 -56 -74 -173 -105 -259
-30 -85 -61 -167 -69 -182 -8 -15 -37 -90 -65 -166 -28 -76 -56 -150 -62 -164
-21 -48 -101 -267 -184 -503 -46 -132 -92 -254 -103 -273 l-20 -34 37 0 c33 0
40 4 54 33 9 18 25 67 37 109 28 100 194 586 213 624 9 16 23 54 33 84 10 30
37 103 61 161 23 58 63 164 87 235 25 71 59 161 77 199 17 39 47 108 65 155
61 157 93 220 112 220 26 0 201 -29 273 -45 36 -9 83 -15 105 -15 48 0 177
-24 222 -42 26 -10 39 -10 67 0 29 11 41 10 88 -8 29 -11 62 -20 72 -20 11 0
35 -5 53 -12 27 -10 33 -17 34 -43 1 -71 -1 -169 -6 -305 -3 -80 -6 -309 -7
-510 -1 -397 3 -439 53 -546 16 -34 29 -65 29 -71 0 -5 9 -18 20 -28 27 -24
15 -34 -42 -36 -31 -2 -49 -7 -53 -17 -3 -8 -3 -17 -1 -20 3 -2 56 -1 119 4
110 9 507 2 655 -11 75 -7 91 -25 21 -25 -21 0 -39 -4 -39 -10 0 -5 12 -10 26
-10 35 0 67 -19 60 -36 -8 -21 77 -19 95 2 11 14 13 14 21 0 17 -31 46 -18 67
29 l20 46 48 -6 c35 -5 53 -2 68 9 28 21 9 36 -54 44 -29 4 -52 10 -52 15 -1
21 25 125 51 201 16 47 32 109 36 138 9 67 17 84 49 92 19 5 25 13 25 34 0 37
27 186 46 247 8 28 21 93 29 145 29 182 61 360 78 433 15 64 31 72 109 51 60
-15 63 -15 78 3 8 10 45 33 81 50 71 33 195 113 269 173 25 20 68 52 95 70 28
19 58 45 68 57 11 13 61 44 112 68 77 37 103 56 145 104 52 60 103 92 120 75
5 -5 3 -51 -5 -109 -8 -55 -16 -136 -20 -180 -3 -44 -8 -93 -10 -110 -3 -16
-9 -64 -14 -105 -4 -41 -13 -88 -20 -103 -6 -16 -11 -39 -11 -53 0 -13 -4 -32
-9 -42 -21 -41 -50 -219 -87 -542 -9 -80 -23 -172 -31 -205 -41 -162 -65 -301
-64 -370 0 -54 24 -117 62 -165 51 -63 40 -72 -88 -64 -60 3 -135 10 -168 15
-115 17 -356 35 -575 42 -44 2 -45 1 -43 -27 1 -16 8 -33 15 -38 14 -9 85 -3
161 14 38 8 54 7 80 -5 17 -8 57 -18 87 -22 72 -8 335 -18 430 -16 41 0 322 1
623 1 469 0 552 2 570 15 16 11 37 13 89 8 l68 -6 0 31 c0 31 -1 32 -42 27
-24 -3 -223 -10 -443 -16 l-399 -11 -16 23 c-8 13 -34 45 -57 71 -24 27 -45
58 -47 71 -20 92 -35 343 -25 412 5 33 9 108 9 167 0 125 16 252 36 288 18 32
64 215 64 254 0 16 6 55 14 85 8 31 24 93 36 138 11 45 25 133 30 195 5 62 18
158 29 213 11 55 24 125 30 155 5 30 24 117 40 194 l31 139 48 46 c47 45 81
105 68 119 -4 3 -28 -2 -54 -12 -123 -47 -131 -38 -92 99 18 59 35 115 40 124
5 9 14 36 20 61 6 25 19 79 30 120 34 129 53 224 51 260 -1 20 10 69 24 110
14 41 46 134 70 205 24 72 60 173 80 225 44 112 55 145 91 265 15 50 37 110
49 135 13 25 30 72 39 105 10 33 36 103 58 155 35 83 74 185 125 324 7 21 25
53 38 71 22 27 25 42 25 109 l0 78 -35 -46 c-30 -39 -87 -151 -155 -301 -40
-88 -79 -186 -120 -300 -23 -66 -55 -154 -70 -195 -16 -41 -38 -109 -50 -150
-12 -41 -28 -86 -35 -100 -8 -14 -39 -106 -70 -205 -32 -99 -68 -211 -80 -250
-60 -181 -102 -341 -131 -500 -9 -49 -25 -118 -36 -153 -15 -49 -19 -86 -16
-162 l3 -99 -100 5 c-181 9 -359 24 -395 34 -19 5 -105 14 -190 20 -85 6 -204
19 -265 30 -60 10 -166 21 -235 25 -135 7 -219 20 -234 35 -6 6 -4 22 6 44 23
47 68 229 68 272 0 19 4 43 10 53 17 33 34 285 21 323 -10 28 -9 35 6 46 10 7
24 10 31 7 17 -6 371 -32 557 -40 77 -3 172 -10 210 -15 39 -5 122 -12 185
-14 135 -6 263 -21 320 -36 33 -9 40 -15 35 -28 -53 -130 -89 -271 -125 -487
-10 -60 -22 -118 -25 -127 -5 -12 -2 -18 8 -18 9 0 16 15 21 48 11 78 24 142
46 232 11 47 25 108 30 136 4 28 29 92 54 143 25 50 46 100 46 111 0 11 15 57
34 102 18 46 50 135 71 198 20 63 54 158 76 210 39 98 102 282 118 347 5 21
24 74 41 118 17 44 38 112 45 150 7 39 20 90 29 114 9 25 23 72 32 105 8 34
50 140 92 236 63 142 86 184 125 224 71 75 67 82 -55 90 -57 3 -240 11 -408
16 -168 6 -345 17 -395 25 -49 7 -128 16 -175 19 -96 5 -253 24 -289 34 -22 6
-26 16 -37 80 -7 40 -19 84 -28 97 -15 22 -24 25 -79 25 l-62 0 -68 -72 c-91
-98 -105 -123 -252 -468 -29 -69 -65 -152 -80 -185 -15 -33 -47 -114 -70 -180
-24 -66 -60 -158 -80 -205 -21 -47 -50 -121 -65 -165 -15 -45 -33 -92 -41
-105 -7 -14 -13 -28 -14 -32 -1 -20 -22 -7 -39 23 -10 19 -49 86 -86 149 -37
63 -108 185 -156 270 -49 85 -101 169 -116 186 -32 36 -160 306 -178 374 -6
25 -27 73 -46 107 -23 42 -48 117 -79 238 -49 189 -82 266 -160 367 -26 33
-61 65 -82 75 -51 24 -52 51 -5 138 49 92 119 142 220 157 37 5 96 18 132 28
36 11 99 22 140 25 146 11 516 59 735 95 74 12 138 40 230 97 39 25 111 70
160 101 50 31 115 76 145 100 50 39 149 113 241 180 20 15 46 41 58 57 12 17
41 55 66 85 76 92 169 237 214 331 40 83 77 149 126 224 22 33 44 68 50 77 5
9 33 49 60 89 28 39 68 108 90 152 40 81 41 82 205 209 91 71 200 155 243 189
66 51 77 64 77 90 l0 30 -77 -58 c-43 -32 -96 -70 -118 -85 -22 -14 -69 -51
-105 -82 -194 -167 -198 -170 -223 -153 -66 45 -197 159 -228 201 -35 46 -36
51 -42 154 -4 59 -11 124 -17 144 -13 46 -9 204 5 201 6 -1 16 -30 23 -65 34
-168 64 -294 71 -301 11 -11 32 10 119 118 122 153 218 232 352 290 36 15 89
39 119 51 102 45 97 24 -9 -39 -87 -51 -208 -156 -295 -257 -128 -147 -96
-145 55 3 124 122 241 205 333 238 l37 13 0 79 c0 77 0 78 -22 71 -46 -14
-136 -57 -245 -116 -123 -66 -249 -173 -363 -305 -34 -40 -65 -73 -69 -73 -10
0 -43 157 -50 241 -7 82 -20 109 -56 109 -57 0 -78 -79 -55 -200 6 -29 15
-115 20 -191 l11 -139 -48 -48 c-26 -27 -63 -75 -82 -108 -19 -32 -48 -81 -66
-109 -18 -27 -36 -66 -39 -86 -4 -21 -23 -55 -44 -80 -52 -61 -104 -129 -127
-164 -10 -16 -29 -41 -42 -55 -28 -31 -117 -143 -181 -229 -44 -61 -195 -230
-279 -314 -55 -55 -236 -198 -291 -229 -26 -15 -79 -33 -119 -42 -39 -8 -84
-21 -100 -29 -62 -32 -292 -57 -532 -57 -119 0 -123 1 -118 20 9 34 -18 50
-83 50 -32 0 -70 -4 -83 -9 -40 -15 -39 -2 4 51 21 27 39 56 39 64 0 18 -59
44 -100 44 -39 0 -177 -53 -251 -97 -32 -18 -65 -33 -74 -33 -9 0 -35 21 -58
47 -67 74 -149 129 -234 157 -91 29 -188 52 -256 60 -27 3 -92 16 -145 28
l-95 23 -76 75 c-112 111 -166 191 -195 292 -36 125 -40 165 -22 233 20 78 47
317 50 448 2 56 4 118 5 138 l1 37 63 12 c34 7 80 15 102 19 73 13 123 47 162
109 20 31 64 100 99 152 34 52 81 131 103 175 23 44 54 93 70 110 16 16 59 91
96 165 37 74 83 156 101 181 19 26 37 61 40 78 4 18 15 36 25 42 10 5 45 64
78 132 33 67 92 183 131 257 38 74 70 141 70 148 0 7 18 45 39 85 33 60 78
161 146 322 28 68 35 106 35 194 0 89 -1 95 -30 128 -16 18 -30 43 -30 55 0
28 -84 183 -126 232 -19 22 -34 45 -34 52 0 7 26 31 58 53 31 22 76 54 98 70
23 16 81 48 130 71 49 23 143 69 209 100 121 59 307 137 380 160 22 7 59 23
82 36 23 13 47 24 54 24 7 0 40 13 74 29 33 16 99 48 148 71 48 23 87 48 87
56 0 18 4 19 -90 -21 -45 -19 -88 -35 -97 -35 -8 0 -33 -11 -56 -24 -23 -13
-91 -40 -152 -61 -60 -20 -134 -48 -163 -62 -87 -43 -79 -7 13 62 30 22 112
88 182 146 149 122 302 239 315 239 5 0 41 18 81 41 87 49 148 72 161 59 10
-10 -10 -40 -26 -40 -14 0 -211 -125 -278 -176 -66 -50 -84 -70 -72 -78 5 -3
56 28 113 69 57 41 125 86 152 100 44 24 47 25 47 7 0 -10 2 -21 5 -24 4 -3
62 32 129 78 68 45 140 90 161 98 20 9 49 25 65 36 15 11 36 20 47 20 25 0 91
24 105 38 13 13 38 16 37 5 0 -5 -65 -50 -145 -102 -79 -52 -144 -100 -144
-108 0 -19 4 -17 57 21 48 34 166 102 318 183 83 44 117 54 96 30 -15 -19
-203 -132 -333 -201 -98 -52 -128 -76 -97 -76 6 0 118 58 248 128 130 70 257
138 284 150 48 22 60 45 35 70 -17 17 -34 14 -128 -24z m-1180 -398 c0 -3 -4
-8 -10 -11 -5 -3 -10 -1 -10 4 0 6 5 11 10 11 6 0 10 -2 10 -4z m-1385 -749
c39 -8 84 -21 100 -30 17 -8 59 -29 95 -46 53 -25 77 -44 130 -108 88 -104
106 -132 115 -173 4 -19 17 -60 30 -90 13 -32 25 -89 29 -138 7 -76 5 -86 -19
-140 -15 -31 -42 -93 -60 -137 -120 -293 -205 -464 -302 -608 -18 -27 -33 -53
-33 -58 0 -10 -69 -119 -75 -119 -10 0 8 126 20 140 7 8 28 46 46 84 32 70 34
85 27 216 -1 19 -1 75 0 123 2 82 3 87 21 78 23 -13 60 -152 54 -203 -3 -24
27 -31 48 -12 11 10 19 31 19 47 0 41 -46 134 -86 177 -19 19 -50 53 -70 75
l-36 40 7 -30 c16 -70 31 -221 23 -230 -5 -5 -26 9 -53 35 -36 35 -45 51 -45
78 0 27 -6 36 -32 50 -18 9 -52 37 -74 60 -25 27 -44 40 -48 33 -10 -15 9 -46
44 -71 42 -30 74 -94 80 -160 4 -44 9 -57 27 -65 30 -13 43 -73 42 -197 0
-105 -6 -109 -28 -23 -20 77 -156 276 -194 283 -25 5 -21 -10 22 -74 46 -70
83 -158 107 -254 26 -110 5 -133 -44 -47 -42 72 -201 269 -213 262 -14 -9 -12
-17 25 -72 19 -29 38 -63 42 -75 4 -13 17 -35 29 -50 35 -41 84 -204 78 -256
-4 -30 -1 -48 10 -60 17 -19 16 -125 -1 -194 -10 -39 -109 -198 -123 -198 -18
0 -8 38 26 100 24 46 35 78 35 110 0 25 5 65 11 90 20 86 14 179 -16 244 -16
33 -29 75 -30 95 -3 48 -3 48 -20 25 -15 -19 -16 -18 -33 6 -32 46 -135 160
-144 160 -13 0 1 -41 21 -65 56 -65 81 -123 89 -201 7 -82 5 -124 -6 -124 -4
0 -22 30 -40 68 -49 102 -82 160 -139 246 -29 43 -53 83 -53 89 0 6 -18 40
-39 76 -21 36 -45 84 -51 106 -10 30 -45 72 -139 166 -137 137 -204 179 -341
214 -36 9 -92 26 -125 37 -33 12 -94 22 -135 24 -41 2 -124 8 -185 14 -104 11
-439 7 -529 -7 -68 -10 -37 19 81 72 155 70 172 77 212 86 20 4 63 16 96 27
33 11 92 29 130 40 163 47 293 86 340 102 28 10 73 24 100 30 28 7 59 18 70
25 11 6 39 15 63 19 23 3 71 20 106 36 35 17 67 30 73 30 12 0 190 56 218 69
11 5 43 15 70 22 28 6 61 18 75 25 30 16 227 74 251 74 9 0 30 7 45 15 31 17
63 16 179 -8z m-1607 -706 c18 -5 83 -10 143 -10 109 -1 182 -12 194 -31 3 -6
19 -10 34 -10 36 0 174 -50 254 -92 82 -43 232 -190 242 -236 4 -18 5 -35 3
-37 -12 -13 -66 16 -86 45 -12 18 -33 41 -46 49 -122 83 -175 115 -209 127
-22 8 -71 30 -108 49 -76 39 -143 57 -156 44 -5 -5 -31 -2 -62 7 -58 17 -214
14 -250 -5 -22 -12 -189 1 -235 18 -21 9 -55 8 -136 -4 -59 -8 -120 -19 -134
-25 -36 -13 -46 -13 -46 3 0 14 51 67 65 67 4 0 23 11 40 24 21 17 48 26 81
28 98 7 380 -1 412 -11z m-568 -18 c-1 -12 -71 -63 -86 -63 -18 0 -5 38 19 55
22 16 67 21 67 8z m-129 -141 c-17 -26 -52 -78 -78 -115 -43 -62 -51 -68 -75
-63 -29 6 -26 9 -91 -86 -17 -26 -57 -83 -88 -125 -88 -122 -170 -313 -198
-467 -6 -31 -13 -61 -16 -66 -3 -4 -5 -52 -6 -107 0 -142 -7 -183 -30 -183
-25 0 -43 69 -35 135 15 131 26 197 36 215 6 11 24 62 39 113 41 130 79 224
117 284 19 29 47 79 63 110 16 32 44 77 62 100 19 23 56 70 84 105 27 35 57
69 67 76 10 7 18 22 18 33 0 12 7 19 20 19 10 0 34 13 52 28 87 75 110 73 59
-6z m-161 -11 c0 -6 -17 -22 -37 -37 -21 -15 -57 -46 -80 -68 -52 -49 -56 -34
-7 26 51 62 124 109 124 79z m80 -250 c0 -14 -18 -23 -30 -16 -6 4 -8 11 -5
16 8 12 35 12 35 0z m-57 -180 c-8 -33 -33 -93 -54 -133 -73 -138 -127 -253
-137 -293 -26 -104 -33 -143 -44 -231 -13 -99 -31 -121 -36 -44 -7 98 41 303
102 435 26 57 61 141 83 200 16 45 83 136 94 130 4 -3 0 -32 -8 -64z m-161 17
c-7 -7 -12 -8 -12 -2 0 14 12 26 19 19 2 -3 -1 -11 -7 -17z m2028 -91 c35 -56
82 -129 103 -162 49 -74 73 -155 82 -267 7 -92 3 -111 -21 -101 -10 4 -13 14
-8 37 11 62 -65 344 -96 354 -9 3 -11 -1 -5 -14 27 -67 44 -118 39 -123 -7 -8
-22 18 -34 58 -5 19 -24 49 -41 67 -17 18 -44 63 -59 101 -29 73 -47 153 -33
152 4 0 37 -46 73 -102z m-2270 23 c0 -5 -2 -10 -4 -10 -3 0 -8 5 -11 10 -3 6
-1 10 4 10 6 0 11 -4 11 -10z m-25 -62 c-7 -24 -13 -41 -37 -98 -8 -19 -23
-65 -34 -102 -18 -64 -34 -89 -34 -50 2 69 29 162 63 215 39 60 52 72 42 35z
m275 -1 c0 -18 -44 -125 -57 -140 -10 -10 -23 -37 -29 -60 -7 -23 -21 -73 -33
-112 -13 -45 -23 -112 -27 -190 -6 -118 -6 -121 20 -159 37 -53 31 -71 -21
-70 -23 0 -53 8 -67 18 -23 15 -26 22 -22 64 2 26 13 83 24 127 11 44 32 126
46 182 14 56 35 119 46 140 11 21 20 44 20 51 0 18 80 152 91 152 5 0 9 -2 9
-3z m158 -127 c7 -59 5 -100 -10 -195 -19 -122 -83 -384 -96 -396 -16 -16 -87
-20 -106 -6 -17 13 -18 19 -6 123 7 60 17 117 22 128 6 10 16 51 23 90 23 122
45 188 76 225 16 20 29 40 29 45 0 18 43 77 51 69 4 -4 12 -42 17 -83z m1844
-107 c43 -92 56 -153 35 -153 -23 0 -34 21 -41 79 -4 30 -16 74 -27 97 -21 48
-23 54 -11 54 5 0 25 -35 44 -77z m544 10 c-11 -11 -19 6 -11 24 8 17 8 17 12
0 3 -10 2 -21 -1 -24z m-231 -93 c3 -5 3 -15 -1 -21 -6 -11 -23 6 -24 24 0 10
18 9 25 -3z m-444 -37 c0 -5 2 -51 3 -103 3 -106 13 -170 28 -170 6 0 7 28 3
74 -4 40 -4 88 0 106 l7 33 19 -24 c13 -16 19 -41 19 -76 0 -29 5 -53 10 -53
6 0 10 11 10 24 0 29 17 43 32 28 6 -6 12 -56 13 -112 2 -55 5 -103 8 -106 12
-12 25 60 20 111 -5 45 -3 55 9 55 9 0 20 -6 26 -13 37 -44 12 -317 -29 -317
-13 0 -19 -7 -19 -23 0 -31 -10 -40 -28 -24 -13 10 -15 7 -10 -30 4 -26 1 -48
-6 -59 -22 -29 -27 -1 -15 81 11 79 7 111 -11 100 -5 -3 -10 -50 -11 -103 -1
-104 -8 -145 -24 -140 -6 2 -10 66 -10 165 0 116 -4 166 -12 174 -11 10 -13
-14 -13 -123 0 -81 -4 -139 -10 -143 -5 -3 -10 4 -11 17 0 13 -2 93 -4 178 -2
85 -8 202 -14 260 -11 106 -6 220 10 220 5 0 9 -3 10 -7z m457 -50 c5 -10 13
-44 17 -77 5 -45 4 -57 -6 -54 -13 4 -38 86 -39 126 0 26 16 29 28 5z m-2727
-50 c-9 -16 -10 -16 -11 -1 0 9 3 25 7 35 7 16 8 17 11 1 2 -10 -1 -25 -7 -35z
m2463 25 c3 -13 6 -32 6 -42 0 -29 -17 -7 -25 32 -7 36 9 45 19 10z m-2444
-90 c0 -6 -7 -5 -15 2 -8 7 -15 17 -15 22 0 6 7 5 15 -2 8 -7 15 -17 15 -22z
m2620 -138 c0 -5 -4 -10 -10 -10 -5 0 -10 5 -10 10 0 6 5 10 10 10 6 0 10 -4
10 -10z m-5 -99 c-4 -23 -10 -41 -13 -41 -9 0 -13 49 -6 79 9 42 27 8 19 -38z
m-55 -201 c-7 -25 -17 -40 -26 -40 -13 0 -15 11 -12 63 4 54 10 80 37 147 11
28 12 -129 1 -170z m-100 -121 c0 -10 -4 -19 -10 -19 -5 0 -10 12 -10 26 0 14
4 23 10 19 6 -3 10 -15 10 -26z m-51 -56 c0 -29 -2 -33 -8 -18 -7 18 -4 55 5
55 2 0 4 -17 3 -37z m-41 -36 c3 -32 0 -37 -18 -37 -26 0 -34 19 -20 54 14 37
34 28 38 -17z m3560 -386 c34 -39 71 -68 107 -86 30 -14 55 -32 55 -40 0 -37
-62 -137 -154 -245 -81 -96 -185 -252 -240 -360 -27 -52 -59 -109 -72 -127
-13 -17 -24 -34 -24 -37 0 -22 -114 -190 -161 -240 -33 -33 -59 -64 -59 -68 0
-5 -5 -8 -11 -8 -5 0 -63 -44 -128 -99 -168 -140 -309 -232 -385 -250 -27 -7
-65 -20 -85 -30 -51 -27 -97 -38 -251 -61 -74 -11 -155 -24 -180 -29 -25 -5
-90 -12 -146 -15 -55 -4 -132 -13 -170 -21 -90 -19 -195 -19 -241 0 -19 8 -46
15 -58 15 -30 0 -52 25 -29 34 8 3 23 6 33 6 9 0 29 13 44 28 30 31 28 57 -4
67 -27 9 -24 22 10 39 16 9 47 37 70 65 l41 49 178 6 c369 11 468 21 577 56
155 50 295 128 354 196 19 22 87 94 152 160 65 67 138 153 162 190 25 38 65
95 89 126 23 31 63 96 88 143 25 48 55 98 67 113 13 15 37 50 56 77 18 28 39
49 47 48 8 -1 55 -16 104 -32 102 -35 121 -31 171 34 32 43 23 62 -19 40 -56
-29 -129 -12 -177 41 -44 49 -43 57 18 146 64 95 92 128 108 128 6 0 34 -27
63 -59z m-5828 -230 c0 -50 -137 -143 -184 -125 -9 3 -16 12 -16 18 0 23 65
74 110 87 25 7 54 20 65 31 25 23 25 23 25 -11z m97 3 c5 -15 -47 -28 -60 -15
-5 5 -6 14 -2 21 9 14 57 9 62 -6z m883 -48 c0 -13 7 -40 15 -59 18 -44 9 -72
-43 -137 -80 -97 -152 -155 -152 -120 0 6 7 10 15 10 8 0 18 12 21 28 14 56
55 121 99 157 25 21 45 44 45 51 0 17 -12 18 -27 3 -15 -15 -29 -5 -38 28 -5
21 -1 31 17 45 32 24 48 22 48 -6z m-107 -11 c44 -18 2 -149 -81 -251 -79 -95
-190 -160 -332 -194 -19 -5 -55 -15 -80 -23 -126 -42 -145 -46 -330 -76 -36
-6 -123 -8 -195 -5 -248 9 -326 38 -325 122 1 50 388 260 605 328 164 52 149
50 183 26 24 -18 44 -22 106 -22 94 0 176 17 176 36 0 17 5 17 -100 3 -90 -11
-130 -7 -130 15 0 8 23 18 63 25 34 7 76 16 92 21 34 10 321 6 348 -5z m-749
-3 c9 -15 -9 -31 -64 -56 -65 -30 -90 -33 -90 -8 0 27 12 38 60 55 51 17 86
21 94 9z m-374 -66 c0 -16 -14 -36 -26 -36 -14 0 -19 22 -7 33 7 8 33 10 33 3z
m195 -35 c-24 -21 -109 -62 -121 -57 -27 10 -14 35 23 45 20 6 40 8 44 5 5 -3
17 0 26 5 22 13 41 14 28 2z m-181 -57 c23 -22 20 -30 -17 -58 -44 -33 -75
-34 -83 -2 -8 32 1 45 40 62 40 17 42 17 60 -2z m-135 -89 c13 -28 13 -30 -25
-62 -21 -18 -67 -47 -102 -64 -35 -17 -66 -37 -69 -45 -7 -19 -41 -37 -53 -29
-6 4 -2 17 10 32 11 14 20 31 20 37 0 7 21 32 48 57 123 118 145 128 171 74z
m2392 -177 c55 -110 104 -171 188 -237 50 -39 81 -71 81 -82 0 -31 -123 -99
-179 -99 -55 0 -130 75 -207 205 l-23 40 47 117 c26 65 50 118 54 118 4 0 22
-28 39 -62z m-2519 -85 c24 -21 23 -33 -2 -33 -11 0 -23 -6 -26 -14 -3 -8 -17
-19 -32 -24 -233 -89 -274 -108 -342 -156 -93 -66 -226 -136 -257 -136 -17 0
-33 -3 -35 -7 -6 -15 -76 -45 -87 -39 -25 16 -11 47 27 62 20 8 57 25 82 38
25 13 63 29 85 36 42 13 138 62 162 81 19 16 64 42 168 95 50 25 97 53 106 61
16 13 102 50 123 52 5 1 18 -6 28 -16z m1014 -109 c1 -97 27 -146 133 -253 79
-79 95 -91 191 -132 139 -61 233 -82 330 -75 95 8 254 50 306 81 21 13 55 33
74 43 19 11 86 70 149 131 l114 111 38 -41 c32 -35 39 -50 39 -84 0 -38 -5
-46 -55 -91 -31 -27 -63 -62 -72 -79 -9 -16 -40 -60 -69 -96 -30 -36 -54 -71
-54 -77 0 -6 -8 -26 -19 -45 -10 -18 -26 -47 -35 -64 l-16 -31 -47 15 c-69 21
-177 20 -243 -1 -83 -28 -138 -88 -110 -121 9 -10 3 -26 -26 -69 -29 -44 -42
-56 -63 -56 -14 0 -38 -6 -53 -14 -15 -8 -52 -22 -83 -31 -31 -8 -91 -31 -133
-49 -156 -68 -248 -89 -450 -106 -90 -7 -113 -5 -175 12 -40 11 -92 31 -117
43 -25 12 -76 33 -115 46 -91 30 -130 53 -185 109 -25 26 -68 59 -95 75 -28
16 -86 52 -130 81 -44 28 -90 55 -102 58 -15 5 -24 18 -29 42 -12 67 -84 123
-194 153 -37 10 -52 9 -87 -3 -47 -17 -53 -14 -78 47 -9 22 -15 67 -15 113 0
60 -4 82 -20 104 l-20 29 22 15 c12 9 26 16 31 16 4 0 69 30 145 66 75 36 175
82 221 101 74 30 87 33 110 23 118 -56 316 -74 491 -45 119 19 392 90 430 111
14 7 34 13 45 11 18 -2 20 -10 21 -73z m-1869 -156 c32 -30 30 -83 -8 -188
-19 -55 -32 -113 -36 -166 -5 -71 -2 -93 22 -170 33 -103 72 -185 120 -253 60
-83 44 -95 -34 -25 -68 61 -134 166 -183 287 -35 87 -40 108 -40 181 1 57 7
102 21 144 12 34 21 72 21 85 0 31 24 90 45 111 22 22 44 20 72 -6z m3764 -22
c39 -17 81 -26 149 -31 113 -8 196 -27 267 -60 28 -14 58 -25 65 -25 8 0 27
-13 42 -29 16 -16 61 -46 101 -65 86 -42 115 -77 196 -236 l54 -105 0 -105 c0
-95 2 -108 24 -137 l24 -31 -22 -28 c-13 -17 -21 -41 -21 -65 0 -34 -3 -39
-27 -45 -16 -3 -55 -13 -88 -21 -33 -9 -80 -19 -105 -24 -157 -28 -291 -48
-363 -54 -74 -6 -166 -27 -297 -70 -25 -8 -53 -15 -62 -15 -22 0 -190 -58
-288 -100 -98 -42 -169 -54 -234 -40 -86 18 -129 51 -182 137 -26 43 -50 89
-55 103 -4 14 -17 51 -28 82 -30 81 -28 168 4 237 20 41 29 52 43 48 9 -4 51
-18 92 -33 86 -32 180 -35 232 -10 17 9 37 16 45 16 7 0 64 25 127 55 126 61
157 66 235 35 36 -14 78 -20 158 -21 125 -3 127 -2 236 58 111 63 197 139 227
202 25 54 19 83 -9 42 -25 -38 -110 -120 -160 -154 -109 -75 -282 -107 -387
-71 -25 8 -52 13 -60 10 -8 -3 -33 2 -55 11 -45 18 -40 19 -169 -47 -82 -41
-208 -84 -282 -95 -71 -11 -139 9 -188 55 -33 31 -41 43 -35 62 14 51 118 252
149 286 18 20 42 51 54 69 13 17 33 35 45 39 12 4 35 18 51 31 25 21 35 23 85
17 48 -5 69 -2 127 20 38 15 80 33 94 41 14 8 41 23 61 34 19 11 41 27 48 35
17 21 19 20 82 -8z m-3465 -170 c-1 -52 -4 -97 -7 -100 -12 -12 -86 34 -117
73 l-32 40 47 25 c27 13 62 31 78 40 17 9 31 16 31 16 1 0 1 -42 0 -94z m4538
56 c3 -5 -7 -30 -22 -56 -33 -56 -68 -79 -167 -110 -44 -13 -53 -13 -72 0 -51
33 -18 67 127 131 95 43 124 50 134 35z m-4699 -137 c74 -75 161 -135 198
-135 70 0 145 -66 132 -117 -3 -14 -25 -50 -48 -79 -37 -48 -46 -54 -80 -54
-21 0 -54 9 -75 19 -43 23 -209 171 -234 210 -20 29 -22 75 -7 141 20 87 41
90 114 15z m4836 -19 c-6 -6 -34 -20 -63 -30 -29 -11 -62 -25 -73 -32 -29 -19
-115 -20 -149 -2 l-30 15 23 12 c41 22 275 69 289 58 8 -6 9 -14 3 -21z m79
-85 c0 -17 -71 -69 -119 -87 -79 -30 -180 -81 -174 -88 11 -11 63 -6 99 9 34
14 64 11 64 -5 0 -15 -24 -25 -74 -30 -27 -3 -51 -10 -53 -16 -5 -16 83 -56
141 -63 36 -4 51 -10 51 -21 0 -17 -60 -25 -194 -25 l-85 0 -12 65 c-7 36 -20
85 -28 109 -9 24 -19 68 -22 98 -8 60 -2 64 59 38 46 -19 114 -19 169 -1 74
25 178 34 178 17z m-4459 -81 c10 -6 19 -18 19 -28 0 -9 12 -39 26 -66 20 -38
24 -54 16 -67 -6 -9 -14 -33 -17 -52 -4 -20 -16 -43 -26 -53 -11 -10 -22 -35
-25 -56 -4 -21 -11 -38 -17 -38 -17 0 -137 82 -147 100 -7 13 5 39 51 111 33
52 63 105 66 119 5 21 19 39 31 40 2 0 12 -5 23 -10z m-1237 -16 c11 -28 6
-64 -8 -64 -7 0 -33 -11 -57 -24 -72 -39 -416 -146 -569 -177 -117 -23 -195
-24 -273 -2 l-59 16 6 41 c6 40 35 76 61 76 7 0 45 -13 83 -30 107 -45 192
-40 353 23 35 14 96 35 134 47 39 12 88 31 111 41 22 10 49 19 60 19 10 0 42
11 69 24 60 29 81 31 89 10z m3508 -85 c49 -13 53 -22 24 -56 -13 -15 -26 -38
-30 -50 -6 -18 -11 -21 -24 -14 -12 6 -44 -5 -117 -40 -104 -51 -155 -61 -190
-35 -18 13 -15 16 40 52 56 36 65 39 135 39 61 0 75 3 78 16 5 25 -27 52 -52
44 -111 -34 -137 -38 -154 -21 -21 21 -11 30 64 62 50 21 69 24 124 19 36 -4
82 -11 102 -16z m-3292 -109 c0 -20 -24 -5 -47 30 -13 18 -23 42 -23 53 0 15
9 9 35 -26 19 -25 35 -51 35 -57z m1336 3 c-8 -8 -56 6 -56 17 0 5 13 5 31 -2
16 -6 28 -13 25 -15z m89 -150 c28 -14 68 -38 90 -53 22 -15 119 -62 215 -104
173 -77 175 -78 295 -88 66 -6 129 -10 140 -10 50 0 148 22 206 47 68 28 182
74 264 105 28 11 84 26 127 34 42 8 99 26 127 40 28 14 53 26 56 26 3 0 5 -15
5 -33 0 -26 6 -37 25 -47 l25 -14 -30 -31 c-30 -31 -37 -62 -21 -93 5 -10 11
-44 12 -77 l3 -60 -84 -30 c-47 -17 -112 -43 -145 -58 -33 -16 -78 -33 -100
-38 -114 -29 -215 -48 -255 -49 -25 0 -62 -5 -84 -11 -64 -18 -285 7 -491 55
-132 31 -320 131 -449 238 -17 14 -94 64 -171 111 -77 46 -141 90 -143 98 -1
8 15 35 35 61 21 26 53 67 70 92 l33 45 97 -66 c54 -35 121 -76 148 -90z m25
87 c0 -13 -11 -13 -30 0 -12 8 -11 10 8 10 12 0 22 -4 22 -10z m1772 -90 c-3
-50 8 -144 23 -195 5 -15 -9 -36 -54 -84 -52 -55 -65 -64 -103 -68 -51 -5 -75
9 -84 52 -5 28 -2 32 48 60 56 33 80 72 36 62 -70 -16 -84 -17 -98 -8 -24 16
24 57 118 102 49 24 82 46 82 55 0 25 -26 27 -69 5 -41 -22 -121 -29 -121 -11
0 21 164 91 205 87 18 -2 20 -8 17 -57z m1879 -276 c16 -20 -2 -34 -46 -34
-36 0 -237 -49 -350 -85 -44 -14 -127 -30 -185 -36 -58 -6 -120 -17 -139 -25
-50 -21 -218 -65 -281 -75 -61 -9 -149 -30 -224 -55 -57 -19 -86 -5 -40 19 59
30 202 75 260 82 57 6 112 23 165 51 14 7 57 16 95 20 38 3 99 15 135 25 36
10 87 19 114 19 26 0 59 6 73 14 33 18 336 94 378 95 18 1 37 -6 45 -15z
m-1811 -76 c0 -11 -107 -53 -132 -53 -40 0 72 59 120 64 6 0 12 -5 12 -11z
m1915 -55 c14 -21 32 -63 41 -93 8 -30 21 -71 29 -90 17 -45 73 -234 82 -280
6 -34 47 -108 98 -179 14 -19 25 -45 25 -58 0 -46 102 -282 142 -328 9 -11 24
-36 32 -55 8 -19 29 -53 46 -75 18 -22 64 -94 102 -160 39 -66 78 -131 88
-145 9 -14 23 -43 30 -65 7 -22 41 -98 75 -170 58 -122 83 -195 91 -272 2 -18
10 -46 19 -63 23 -44 47 -193 47 -293 0 -48 3 -100 7 -115 4 -15 4 -63 0 -107
-4 -44 -10 -123 -13 -175 -6 -135 -77 -377 -136 -470 -29 -45 -140 -130 -170
-130 -8 0 -23 -9 -34 -19 -31 -29 -283 -132 -431 -177 -27 -8 -83 -21 -123
-29 -40 -8 -76 -16 -80 -18 -4 -3 -62 -16 -128 -30 -67 -14 -148 -36 -180 -48
-33 -12 -108 -28 -169 -35 -60 -8 -123 -17 -140 -20 -16 -3 -127 -6 -245 -8
-227 -3 -325 -17 -450 -65 -30 -12 -82 -26 -115 -31 -33 -5 -109 -28 -167 -50
-59 -22 -114 -40 -122 -40 -9 0 -16 -4 -16 -9 0 -5 -15 -14 -32 -21 -39 -14
-124 -49 -233 -97 -44 -19 -118 -50 -165 -68 -167 -65 -360 -161 -376 -186 -3
-5 -23 -18 -44 -29 -21 -11 -52 -32 -69 -47 -16 -16 -58 -38 -93 -51 -75 -28
-125 -54 -193 -99 -27 -18 -57 -33 -65 -33 -8 0 -48 -18 -89 -40 -79 -44 -176
-80 -213 -80 -36 0 -179 60 -222 93 -21 17 -72 65 -113 108 -41 43 -99 97
-129 120 -30 23 -62 55 -69 69 -25 49 -45 114 -45 151 0 52 71 149 234 319 29
30 66 73 81 95 70 96 169 186 258 232 18 9 64 42 102 74 155 130 300 226 400
267 33 13 64 30 68 38 4 8 17 14 27 14 10 0 21 4 24 9 7 11 254 146 286 156
14 4 34 14 45 21 11 8 27 14 36 14 9 0 27 9 41 19 25 20 230 101 254 101 8 0
22 4 32 10 24 13 188 40 243 40 26 0 71 5 100 11 30 6 173 14 319 18 235 7
270 10 310 28 52 23 108 77 117 111 3 13 3 87 0 165 -6 153 -15 193 -73 312
-82 170 -97 267 -71 454 11 74 12 123 6 165 -20 135 -60 302 -94 388 -20 50
-48 128 -62 172 -13 45 -33 99 -42 121 -28 62 -50 131 -80 245 -15 58 -33 115
-39 127 -7 12 -12 37 -12 56 0 27 5 36 25 45 14 7 36 12 48 12 12 0 54 11 92
25 39 13 80 25 92 25 12 0 41 8 65 18 24 11 71 22 106 25 34 4 77 14 94 23 48
25 211 64 303 74 44 4 145 26 224 49 80 23 158 41 175 42 17 0 54 7 81 14 72
18 72 18 100 -22z m1706 -333 c18 -60 2 -74 -77 -65 l-62 6 -22 -39 c-13 -22
-36 -50 -51 -61 -16 -12 -29 -30 -29 -41 0 -10 -37 -92 -81 -182 -45 -90 -87
-176 -94 -193 -8 -16 -29 -64 -48 -105 -19 -41 -43 -97 -53 -125 -9 -27 -21
-55 -25 -60 -11 -15 -54 -132 -109 -295 -26 -80 -57 -170 -68 -200 -11 -30
-25 -71 -30 -90 l-9 -35 -13 30 c-30 72 -26 103 37 250 132 308 153 361 153
375 0 9 4 20 9 25 6 6 28 55 49 110 108 272 137 339 195 453 54 108 72 133
143 203 78 75 84 79 127 79 45 0 46 -1 58 -40z m-11 -100 c62 -13 393 -51 515
-60 55 -4 118 -12 140 -17 22 -6 135 -11 252 -13 117 -1 229 -6 250 -11 21 -5
63 -9 94 -9 72 0 119 -16 119 -40 0 -22 -24 -29 -65 -19 -68 16 -316 37 -685
60 -96 6 -233 15 -305 20 -71 5 -182 11 -245 14 -173 9 -200 13 -200 33 0 10
7 28 16 40 11 17 22 21 42 16 15 -3 47 -9 72 -14z m210 -142 c111 2 298 -7
615 -30 83 -6 164 -10 182 -9 47 2 307 -29 316 -38 10 -10 -19 -84 -94 -238
-32 -67 -59 -125 -59 -129 0 -4 -21 -50 -46 -103 -26 -53 -50 -107 -53 -120
l-7 -24 -237 2 c-131 0 -313 6 -405 11 -92 6 -311 11 -487 10 -176 0 -326 4
-334 9 -11 7 -7 18 23 52 20 24 41 61 46 83 11 42 55 151 115 286 19 41 36 87
39 102 7 32 54 81 116 120 41 26 50 28 100 21 30 -4 107 -6 170 -5z m-8590
-463 c30 -8 82 -23 115 -34 147 -47 314 -80 411 -81 39 0 140 -7 225 -16 109
-11 263 -16 529 -16 377 -1 964 15 1013 27 36 9 37 -18 2 -41 -26 -17 -165
-179 -165 -192 0 -4 -22 -50 -49 -102 -27 -52 -56 -119 -66 -148 -24 -75 -56
-109 -108 -115 -334 -40 -579 -44 -772 -12 -97 15 -176 24 -530 55 -126 11
-243 25 -260 30 -16 5 -54 12 -83 15 -68 9 -89 28 -107 95 -8 30 -39 112 -69
183 -60 141 -120 219 -217 284 -28 19 -49 36 -47 38 2 2 22 -2 43 -9 81 -28
180 -53 193 -49 24 9 11 22 -30 33 -65 17 -95 30 -114 51 -16 18 -16 19 7 19
13 -1 49 -7 79 -15z m425 -33 c44 -5 181 -10 305 -11 124 -1 252 -6 285 -11
83 -12 422 -12 645 0 381 21 655 29 664 19 22 -21 -16 -33 -117 -36 -56 -2
-241 -10 -412 -19 -269 -15 -350 -15 -610 -5 -165 7 -417 16 -560 21 -226 7
-361 20 -388 37 -4 2 -4 9 -1 15 4 6 26 8 58 5 28 -4 87 -10 131 -15z m7730
-212 c99 -5 281 -12 405 -14 405 -7 855 -18 859 -22 2 -2 -6 -30 -19 -64 -25
-68 -20 -66 -150 -49 -90 12 -259 23 -560 39 -124 7 -295 18 -380 27 -85 8
-193 18 -240 22 -47 3 -90 10 -96 13 -16 11 -84 -14 -95 -34 -5 -9 -19 -23
-31 -29 -20 -11 -21 -10 -14 37 3 26 13 59 22 72 14 22 21 24 67 18 29 -3 133
-10 232 -16z m93 -129 c78 -5 150 -12 160 -15 21 -6 178 -14 432 -21 226 -7
488 -31 507 -47 7 -6 13 -17 13 -25 0 -33 -168 -576 -218 -703 -14 -36 -33
-87 -42 -115 l-17 -50 -44 4 c-24 2 -51 6 -59 11 -26 13 -267 39 -520 56 -135
9 -283 20 -330 25 -47 4 -154 11 -238 15 -180 8 -184 11 -180 88 3 50 4 51 33
50 62 -2 323 -24 395 -34 41 -6 147 -15 235 -20 88 -5 185 -14 215 -19 30 -6
102 -13 160 -15 58 -3 130 -9 160 -15 30 -5 89 -13 130 -16 63 -6 73 -5 62 6
-16 17 -133 34 -367 53 -99 8 -187 17 -195 20 -8 3 -40 8 -70 10 -30 2 -127 9
-215 16 -88 6 -200 16 -250 21 -49 6 -134 13 -188 16 -112 6 -121 13 -132 93
-4 25 -13 59 -20 76 -14 30 -10 74 6 74 5 0 9 -17 9 -39 0 -40 23 -72 39 -55
5 5 23 50 40 99 59 176 149 369 202 436 32 41 32 41 88 35 31 -3 120 -10 199
-15z m-8040 -305 c15 -7 78 -16 142 -20 63 -3 130 -10 148 -15 18 -6 106 -15
195 -21 89 -6 185 -16 212 -21 28 -6 91 -16 141 -23 50 -8 100 -19 110 -25 16
-10 13 -11 -21 -7 -22 2 -146 11 -275 20 -394 27 -687 63 -717 88 -10 8 -10
14 -2 24 14 18 33 18 67 0z m1705 -95 c20 -3 3 -21 -35 -37 -37 -15 -80 -17
-318 -19 -151 0 -287 1 -302 3 -44 7 -33 17 20 18 193 3 537 26 548 37 5 5 43
4 87 -2z m-1233 -811 c117 -5 231 -6 265 -1 38 6 67 5 79 -2 21 -10 484 -11
542 -1 44 8 65 -22 53 -74 -5 -22 -4 -52 2 -75 13 -48 -2 -151 -32 -231 l-22
-56 -61 -1 c-72 -1 -148 -5 -396 -23 -217 -16 -458 -7 -536 20 -92 31 -160 71
-172 101 -22 56 -23 74 -12 205 12 141 22 165 65 153 11 -3 112 -10 225 -15z
m679 -509 c20 -13 32 -134 14 -152 -5 -5 -63 -13 -129 -19 -65 -5 -175 -14
-244 -20 -136 -12 -300 -6 -340 13 -14 7 -33 28 -42 47 -19 40 -23 105 -7 116
6 3 131 6 277 6 147 -1 287 3 312 7 62 12 142 12 159 2z m6394 -6 c126 -29
307 -56 477 -70 96 -9 220 -19 275 -24 55 -5 174 -15 265 -21 91 -6 171 -13
179 -16 22 -7 -4 -30 -83 -76 -39 -23 -116 -69 -171 -103 -55 -34 -134 -80
-175 -102 -143 -76 -345 -189 -422 -236 -43 -26 -97 -56 -122 -67 -25 -10 -78
-43 -118 -73 -40 -29 -85 -59 -99 -66 -14 -7 -45 -30 -69 -52 -47 -43 -66 -47
-111 -23 -17 8 -90 29 -162 45 -73 16 -161 36 -197 45 -204 50 -268 64 -292
64 -15 0 -39 5 -55 11 -15 6 -53 15 -83 20 -90 14 -191 35 -251 53 -31 9 -64
14 -73 10 -9 -4 -44 -1 -77 6 -51 11 -60 16 -57 33 2 11 10 23 18 28 19 10
168 35 295 49 151 18 443 108 532 166 32 20 83 53 113 72 142 90 217 167 261
269 11 26 25 53 31 60 14 17 94 16 171 -2z m-6636 -269 c-3 -19 -19 -63 -36
-98 -17 -34 -31 -74 -31 -88 0 -14 -10 -68 -21 -120 -31 -140 -22 -341 25
-565 8 -38 18 -96 21 -128 4 -37 14 -66 25 -77 16 -16 16 -20 5 -30 -9 -7 -12
-22 -9 -38 13 -66 -35 -102 -138 -102 -24 0 -68 -7 -97 -16 -28 -8 -92 -16
-140 -17 -75 -2 -92 1 -110 17 -12 11 -21 26 -21 35 0 23 64 116 132 190 32
36 73 94 91 130 32 65 32 67 28 186 -10 264 1 701 16 716 7 7 55 16 108 20 53
3 99 10 102 13 4 3 17 6 31 6 22 0 24 -3 19 -34z m7843 -65 c0 -36 -18 -68
-51 -89 -18 -11 -37 -18 -41 -16 -17 11 -7 64 18 93 30 36 74 43 74 12z m-120
-65 c0 -44 -21 -84 -58 -109 -56 -38 -153 -91 -192 -107 -45 -17 -110 -55
-180 -103 -299 -204 -599 -387 -639 -387 -8 0 -11 7 -8 18 2 9 13 46 23 81 16
56 23 67 59 88 22 13 110 65 196 116 85 50 184 105 220 121 72 32 81 37 162
83 33 18 67 33 77 33 9 0 53 23 96 52 79 52 222 135 237 137 4 1 7 -10 7 -23z
m144 -33 c-3 -32 -8 -83 -11 -113 -4 -30 -5 -61 -4 -67 1 -7 -5 -36 -14 -65
-21 -71 -65 -309 -65 -353 0 -20 -11 -61 -24 -93 -27 -64 -88 -259 -106 -340
-7 -28 -13 -112 -15 -185 -1 -72 -9 -172 -18 -222 -28 -161 -37 -277 -34 -425
3 -132 6 -151 31 -213 34 -81 28 -94 -32 -78 -30 9 -49 23 -75 58 l-34 46 1
146 c2 119 6 157 23 206 11 33 26 103 32 155 7 52 17 111 22 131 5 19 13 98
19 175 5 76 16 171 25 209 8 39 24 112 36 164 11 52 23 127 26 165 5 73 44
215 121 441 39 115 80 267 81 303 1 6 5 12 10 12 5 0 7 -25 5 -57z m-110 -194
c-26 -79 -49 -146 -51 -148 -12 -16 -13 20 -3 96 7 48 14 103 15 122 2 25 12
42 36 62 19 15 38 24 42 20 4 -5 -13 -73 -39 -152z m-2898 -89 c15 -6 84 -13
153 -16 69 -3 169 -14 221 -24 52 -10 113 -21 135 -25 45 -6 203 -42 380 -86
66 -17 156 -36 200 -44 120 -20 191 -35 285 -60 47 -13 121 -31 165 -40 79
-17 135 -51 135 -81 0 -16 -61 -64 -81 -64 -8 0 -81 20 -163 45 -90 27 -158
42 -173 39 -13 -4 -29 -1 -37 5 -41 34 -607 155 -963 206 -61 8 -183 33 -270
54 -87 22 -191 44 -232 50 -85 13 -125 30 -76 32 127 5 199 10 203 14 9 9 90
5 118 -5z m1778 -279 c7 -11 -33 -133 -48 -146 -6 -5 -12 -32 -12 -60 0 -79
-52 -334 -79 -390 -14 -27 -48 -147 -76 -265 -28 -118 -69 -282 -91 -365 -22
-82 -46 -172 -53 -200 -21 -83 -32 -105 -56 -105 -25 0 -26 -12 20 210 36 170
58 261 103 419 16 58 35 134 42 170 31 153 132 518 147 527 5 3 9 20 9 38 0
36 33 141 51 162 13 16 35 18 43 5z m-1121 -37 c67 -14 145 -29 172 -33 28 -5
84 -15 125 -24 41 -8 100 -18 130 -22 49 -5 210 -51 413 -118 l68 -22 -7 -40
c-3 -22 -18 -78 -31 -125 -14 -47 -29 -105 -34 -130 -5 -25 -15 -76 -24 -115
-9 -38 -22 -105 -30 -147 -8 -43 -18 -85 -23 -95 -6 -10 -13 -40 -18 -68 -4
-27 -20 -97 -37 -155 -16 -58 -37 -145 -46 -195 -21 -106 -48 -194 -67 -214
-11 -13 -31 -13 -136 -2 -68 8 -213 15 -322 17 -110 2 -201 6 -204 9 -3 3 2
11 12 18 11 8 17 23 14 38 -3 21 -8 24 -40 22 -32 -2 -38 2 -51 30 -37 77 -46
160 -57 522 -6 198 -15 465 -20 592 -6 148 -6 242 0 258 13 33 53 33 213 -1z
m-3904 -30 c12 -15 21 -36 21 -48 0 -45 50 -125 98 -158 26 -18 65 -49 87 -69
64 -61 177 -149 216 -169 20 -11 58 -24 84 -31 l47 -12 -26 -26 -26 -25 28
-29 27 -30 -45 7 c-72 11 -160 60 -362 204 -168 119 -312 253 -303 280 6 22
110 132 124 132 5 0 19 -12 30 -26z m-126 -255 c51 -44 131 -106 178 -138 l86
-58 -31 -9 c-56 -16 -45 -41 36 -78 64 -29 187 -81 256 -107 30 -12 28 -31 -5
-46 -43 -21 -66 -16 -175 37 -94 45 -132 68 -238 141 -104 71 -250 222 -250
257 0 18 36 82 46 82 3 0 47 -36 97 -81z m-189 -89 c7 -38 86 -123 168 -181
33 -24 106 -77 162 -118 55 -40 129 -87 164 -103 34 -17 59 -34 56 -39 -9 -14
-34 -10 -69 11 -17 11 -78 36 -135 55 -111 39 -243 102 -300 143 -61 44 -140
126 -140 144 0 9 11 34 25 55 48 74 59 79 69 33z m-118 -198 c21 -16 46 -37
54 -46 17 -22 256 -181 323 -216 57 -30 90 -60 64 -60 -29 0 -110 41 -237 118
-220 134 -285 189 -265 222 9 15 19 12 61 -18z m-1301 -6 c17 -13 51 -30 76
-36 95 -26 141 -59 292 -212 146 -147 148 -150 133 -173 -13 -20 -14 -29 -4
-50 6 -14 15 -25 20 -25 4 0 16 -17 25 -37 11 -21 32 -43 50 -52 18 -9 31 -19
30 -22 -1 -4 -27 -27 -58 -53 -63 -51 -60 -52 -103 29 -74 137 -118 205 -196
297 -126 149 -233 222 -342 235 -50 6 -65 26 -28 38 21 7 28 45 9 45 -6 0 -36
-14 -66 -31 -52 -30 -55 -30 -86 -15 -29 13 -41 13 -98 2 -96 -20 -179 -29
-179 -19 0 5 21 20 48 33 41 22 61 25 167 26 96 0 131 5 175 22 72 27 97 27
135 -2z m1125 -13 c0 -16 -199 -172 -313 -246 -143 -93 -192 -119 -218 -115
-18 3 -19 4 -4 26 9 12 44 36 78 54 34 17 88 51 121 77 32 25 75 55 96 66 21
11 76 48 121 83 74 55 119 76 119 55z m62 -70 c10 -9 18 -20 18 -25 0 -5 -24
-32 -52 -60 -49 -47 -76 -67 -213 -158 -27 -18 -66 -48 -85 -65 -59 -55 -192
-144 -206 -138 -9 3 -14 20 -14 43 0 43 26 71 102 109 43 22 110 65 205 131
28 19 87 68 132 108 45 39 84 72 88 72 3 0 15 -7 25 -17z m78 -78 c0 -9 -29
-49 -65 -90 -78 -90 -245 -312 -245 -327 0 -20 101 76 127 121 14 25 34 55 44
66 10 11 50 56 89 99 98 111 101 112 150 85 21 -12 41 -28 44 -35 3 -8 -22
-32 -62 -61 -162 -114 -229 -206 -267 -365 -10 -40 -25 -81 -33 -91 -22 -25
-61 -18 -85 15 -20 27 -20 29 -4 60 9 18 22 41 29 50 19 27 2 32 -30 9 -37
-26 -58 -27 -72 -2 -12 24 -13 108 -1 115 4 3 11 18 14 34 4 18 31 50 79 92
40 36 113 104 161 152 83 84 127 108 127 73z m463 -194 c42 -2 77 -6 77 -10 0
-4 -7 -17 -16 -29 -10 -15 -20 -20 -27 -14 -7 5 -32 12 -56 16 -25 4 -67 18
-94 31 -27 14 -57 25 -67 25 -10 0 -70 -54 -136 -123 -141 -147 -207 -251
-210 -329 -1 -35 -7 -53 -20 -63 -44 -33 -68 -6 -70 84 -2 53 4 82 29 148 40
108 95 173 230 272 l107 80 88 -42 c74 -36 98 -43 165 -46z m-129 -52 c24 -11
52 -29 61 -39 17 -19 16 -22 -8 -72 -14 -29 -44 -77 -66 -107 -22 -29 -43 -66
-46 -82 -5 -24 -12 -29 -35 -29 -29 0 -46 -16 -103 -99 -38 -54 -51 -44 -44
35 6 86 38 145 122 231 40 40 70 75 67 77 -5 6 -76 -39 -111 -68 -13 -12 -41
-48 -63 -81 -42 -62 -116 -145 -130 -145 -23 0 15 90 75 180 45 66 198 220
219 220 10 0 38 -9 62 -21z m56 -369 c0 -5 -5 -10 -11 -10 -5 0 -7 5 -4 10 3
6 8 10 11 10 2 0 4 -4 4 -10z m-336 -12 c-4 -6 -8 -30 -8 -52 -1 -55 -30 -58
-34 -4 -2 28 2 40 20 52 27 19 32 20 22 4z"/>
<path d="M9407 10566 c-3 -8 0 -19 7 -26 10 -8 15 -7 19 4 3 8 0 19 -7 26 -10
8 -15 7 -19 -4z"/>
<path d="M9380 10304 c0 -30 31 -124 41 -124 10 0 9 70 -2 113 -11 43 -39 51
-39 11z"/>
<path d="M9269 10241 c12 -22 21 -46 21 -54 0 -7 11 -24 25 -37 l25 -23 0 24
c-1 34 -51 123 -73 127 -17 3 -17 1 2 -37z"/>
<path d="M8935 9710 c-3 -5 -1 -10 4 -10 6 0 11 5 11 10 0 6 -2 10 -4 10 -3 0
-8 -4 -11 -10z"/>
<path d="M6581 9406 c-21 -33 -28 -66 -13 -66 7 0 52 79 52 93 0 18 -20 4 -39
-27z"/>
<path d="M6510 9248 c-21 -34 -27 -88 -10 -88 5 0 13 8 18 18 11 21 24 102 17
102 -3 0 -14 -15 -25 -32z"/>
<path d="M8450 9026 c0 -9 5 -16 10 -16 6 0 10 4 10 9 0 6 -4 13 -10 16 -5 3
-10 -1 -10 -9z"/>
<path d="M8463 8935 c0 -22 2 -30 4 -17 2 12 2 30 0 40 -3 9 -5 -1 -4 -23z"/>
<path d="M8518 8818 c-9 -59 15 -83 27 -27 5 22 3 36 -8 46 -13 13 -15 11 -19
-19z"/>
<path d="M3260 4556 c0 -7 7 -30 15 -49 8 -20 13 -42 11 -49 -4 -12 -9 -45
-23 -170 l-6 -58 32 0 31 0 0 65 0 65 65 31 c61 29 115 77 115 103 0 19 -40
52 -79 65 -50 16 -161 15 -161 -3z m132 -43 c27 -24 22 -50 -13 -68 -17 -9
-33 -14 -36 -11 -7 6 17 96 25 96 3 0 14 -7 24 -17z"/>
<path d="M3623 4531 c-28 -26 -195 -330 -188 -341 3 -6 12 -10 20 -10 14 0
115 106 115 121 0 13 84 11 98 -3 7 -7 12 -22 12 -34 0 -32 38 -76 64 -72 42
6 31 114 -25 251 -28 67 -54 107 -69 107 -3 0 -15 -9 -27 -19z m53 -133 c11
-31 10 -37 -3 -42 -24 -9 -47 -6 -66 9 -18 13 -18 15 4 45 29 39 48 35 65 -12z"/>
<path d="M3994 4490 c-90 -13 -114 -37 -114 -112 0 -39 4 -46 33 -63 21 -12
53 -20 92 -21 52 -1 60 -4 63 -22 5 -32 -75 -39 -159 -12 -74 22 -99 19 -99
-14 0 -35 20 -48 39 -25 16 19 17 19 98 -8 96 -31 126 -27 156 24 17 29 17 34
2 62 -20 40 -57 58 -133 67 -63 7 -72 15 -48 47 15 20 44 22 81 5 22 -10 29
-9 45 8 24 25 30 68 10 70 -8 1 -38 -2 -66 -6z"/>
<path d="M4141 4452 c-9 -16 -2 -72 9 -72 4 0 13 7 20 15 13 16 85 21 94 6 3
-5 -5 -40 -18 -79 -33 -97 -37 -137 -12 -137 20 0 51 64 75 151 11 41 51 94
70 94 6 0 18 -8 28 -19 10 -10 28 -23 39 -29 28 -15 47 5 42 44 -4 38 -34 44
-201 42 -102 -2 -141 -6 -146 -16z"/>
<path d="M4602 4453 c-26 -23 -83 -244 -69 -268 16 -30 52 -35 134 -19 43 8
91 13 106 10 33 -7 67 8 67 28 0 8 -14 19 -30 26 -29 12 -50 11 -159 -6 l-44
-7 7 29 c11 42 20 48 84 54 94 8 76 48 -28 63 -17 3 -25 10 -25 23 0 16 11 20
83 28 49 6 82 14 82 21 0 26 -26 35 -106 35 -64 0 -86 -4 -102 -17z"/>
<path d="M11990 12185 c-7 -8 -23 -15 -35 -15 -20 0 -122 -51 -187 -94 -51
-33 -50 -11 1 32 28 24 51 47 51 53 0 20 -30 6 -126 -58 -159 -109 -230 -151
-297 -178 -35 -14 -69 -25 -75 -25 -6 0 -26 -9 -44 -19 -18 -11 -75 -34 -125
-51 -91 -32 -137 -60 -97 -60 18 0 49 11 184 66 111 45 174 65 195 62 16 -2
11 -10 -27 -36 -27 -18 -48 -37 -48 -42 0 -15 6 -13 73 30 54 34 74 41 138 46
41 4 79 10 84 14 22 15 94 29 174 35 46 3 88 8 93 11 20 13 -7 24 -58 24 -30
0 -54 3 -54 8 0 4 23 16 51 27 51 20 80 47 66 61 -4 5 -32 -4 -63 -19 -56 -28
-84 -34 -84 -18 0 16 143 89 205 106 64 16 81 27 71 44 -10 16 -52 13 -66 -4z"/>
<path d="M11675 11889 c-69 -17 -109 -31 -125 -44 -8 -6 -37 -20 -65 -30 -27
-10 -80 -33 -118 -52 -61 -30 -67 -36 -61 -58 7 -27 -4 -33 -24 -13 -9 9 -16
8 -30 -5 -10 -9 -33 -22 -50 -28 -53 -18 -36 -29 41 -26 40 1 74 -2 77 -8 8
-16 -118 -29 -147 -16 -17 8 -29 8 -37 2 -6 -6 -42 -15 -80 -21 -63 -10 -151
-45 -186 -75 -21 -18 -195 -65 -241 -65 -12 0 -30 -11 -41 -25 -11 -14 -28
-25 -39 -25 -11 0 -27 -4 -37 -10 -9 -5 -43 -17 -74 -26 -32 -8 -58 -16 -58
-17 0 -5 362 2 367 7 11 10 162 6 168 -4 8 -13 3 -14 -120 -35 -55 -9 -122
-21 -150 -26 -27 -5 -159 -13 -291 -18 -218 -9 -321 -21 -349 -41 -5 -4 -41
-17 -80 -30 -150 -49 -191 -64 -206 -77 -10 -8 -39 -22 -65 -32 l-49 -17 -3
-52 -3 -52 98 6 c115 7 123 8 123 29 0 12 -9 15 -32 14 -60 -4 -151 1 -144 8
13 13 101 33 166 38 186 12 269 14 303 6 28 -7 37 -6 37 4 0 23 -24 33 -97 40
-40 4 -73 11 -73 16 0 26 224 21 349 -7 75 -18 90 -10 67 34 l-16 30 60 7 c65
8 90 4 200 -30 87 -26 190 -41 190 -27 0 16 -21 28 -87 52 -72 26 -90 42 -69
59 15 12 128 17 145 7 4 -3 79 -15 165 -26 165 -22 186 -19 186 20 0 27 -33
50 -73 50 -42 0 -87 15 -87 30 0 15 65 12 121 -6 47 -16 79 -14 79 4 0 14 -89
72 -113 73 -12 0 -31 4 -42 9 -12 5 13 7 69 5 78 -4 94 -8 134 -35 25 -16 54
-30 64 -30 24 0 24 39 1 46 -10 3 -35 13 -56 22 -21 8 -48 17 -60 18 -71 8
-107 18 -107 30 0 8 8 14 18 14 25 0 252 -29 285 -36 26 -6 28 -4 25 17 -3 25
-24 34 -123 55 -27 6 -41 15 -43 28 -4 17 1 18 50 13 29 -3 94 -13 143 -22 50
-9 103 -19 120 -23 27 -5 29 -4 16 12 -17 20 -84 56 -104 56 -8 0 -20 6 -26
14 -10 12 -5 16 31 23 52 11 141 -4 212 -36 37 -16 52 -19 62 -10 8 6 14 15
14 19 0 15 -112 62 -169 71 -169 25 -189 32 -161 49 19 13 62 12 94 0 14 -5
60 -12 103 -15 43 -3 102 -13 131 -21 41 -12 57 -12 68 -3 8 6 14 15 14 19 0
5 -36 25 -80 46 -44 20 -80 40 -80 44 0 35 79 35 170 1 25 -9 53 -15 63 -13
60 12 -48 72 -132 72 -27 0 -53 4 -56 10 -12 19 51 23 125 8 52 -11 77 -12 82
-5 14 22 -31 36 -133 41 -57 3 -122 1 -144 -5z m-645 -349 c0 -5 -4 -10 -10
-10 -5 0 -10 5 -10 10 0 6 5 10 10 10 6 0 10 -4 10 -10z"/>
<path d="M10900 11734 c-52 -30 -55 -32 -48 -39 7 -7 96 21 114 36 12 10 12
14 2 20 -18 12 -17 12 -68 -17z"/>
<path d="M6922 10015 c-56 -20 -132 -75 -132 -96 0 -17 35 -18 57 -2 71 51 99
63 150 63 72 0 96 -14 143 -81 49 -70 76 -129 85 -189 9 -53 22 -83 35 -75 5
3 18 0 29 -7 11 -7 23 -9 27 -5 13 13 -58 192 -109 276 -49 79 -56 86 -114
113 -74 33 -88 33 -171 3z"/>
<path d="M7730 9983 c-96 -64 -178 -136 -225 -198 -30 -39 -55 -76 -55 -83 0
-26 22 -19 63 20 65 63 155 140 215 183 40 28 67 39 103 43 54 5 60 13 27 36
-29 21 -97 20 -128 -1z"/>
<path d="M6936 9713 c-27 -7 -96 -54 -96 -65 0 -21 32 -17 85 11 62 33 93 37
144 20 43 -15 40 -32 -5 -23 -58 11 -151 -23 -201 -73 l-42 -42 2 -73 c1 -40
-2 -87 -6 -103 -7 -25 -4 -36 22 -68 44 -56 74 -76 127 -86 34 -7 58 -5 86 5
42 15 128 80 128 97 0 6 12 28 26 48 35 50 42 133 19 212 -16 55 -21 61 -85
103 -62 40 -74 44 -127 43 -32 -1 -67 -4 -77 -6z m161 -119 c41 -16 84 -82 90
-137 5 -39 1 -51 -37 -106 -29 -42 -54 -67 -79 -77 -71 -31 -165 -12 -193 39
-7 13 -13 67 -14 129 -2 122 -3 120 80 154 54 22 95 22 153 -2z"/>
<path d="M6981 9467 c-19 -7 -43 -25 -55 -40 -19 -26 -19 -30 -5 -55 31 -57
109 -35 140 40 11 28 11 33 -10 49 -27 22 -25 22 -70 6z"/>
<path d="M7702 9624 c-29 -7 -63 -19 -74 -25 -43 -23 -117 -102 -129 -136 -14
-42 -3 -184 16 -210 22 -29 24 -12 10 57 -19 89 -20 85 28 137 51 56 89 73
162 73 54 0 59 -2 108 -49 48 -46 51 -51 55 -108 4 -52 1 -62 -22 -90 -30 -36
-100 -73 -138 -73 -14 0 -31 -7 -38 -15 -20 -25 13 -29 72 -10 86 29 101 39
152 114 52 77 54 93 23 176 -13 33 -26 46 -84 78 -63 35 -73 38 -128 33 -58
-5 -59 -5 -32 10 40 22 143 22 185 0 18 -9 51 -36 73 -58 28 -29 43 -38 50
-31 13 13 -31 87 -61 103 -35 19 -113 40 -145 39 -16 0 -54 -7 -83 -15z"/>
<path d="M7611 9414 c-56 -71 -44 -154 22 -154 26 0 43 11 85 53 30 31 52 62
52 74 0 32 -37 53 -91 53 -39 0 -51 -5 -68 -26z"/>
<path d="M7166 9238 c-3 -13 -6 -33 -6 -44 0 -37 -39 -149 -64 -187 -18 -26
-26 -55 -31 -114 -7 -79 -22 -116 -72 -176 -48 -59 -20 -98 30 -41 17 21 53
61 78 89 26 29 48 58 50 64 3 9 12 8 33 -3 17 -8 41 -12 57 -9 23 4 36 -3 82
-46 30 -28 58 -51 62 -51 4 0 23 -11 41 -25 41 -31 53 -17 25 29 -25 39 -27
79 -6 96 9 7 15 29 15 52 0 32 -3 39 -17 36 -10 -2 -22 -18 -28 -36 -5 -17
-13 -32 -17 -32 -5 0 -26 12 -48 26 -35 23 -44 25 -103 19 -84 -9 -137 6 -137
40 0 13 16 54 36 92 28 52 38 86 44 143 8 74 5 100 -10 100 -4 0 -10 -10 -14
-22z"/>
<path d="M12665 8614 c-127 -90 -236 -190 -261 -237 -9 -16 -13 -31 -11 -33 2
-3 43 33 90 78 49 48 133 115 200 158 89 58 116 80 116 98 1 12 -2 22 -6 22
-5 0 -62 -39 -128 -86z"/>
<path d="M12710 8521 c-123 -100 -233 -214 -228 -237 3 -16 12 -11 48 29 48
52 162 133 229 163 40 17 41 19 41 66 0 26 -1 48 -2 48 -2 0 -41 -32 -88 -69z"/>
<path d="M6975 8186 c-28 -12 -105 -98 -105 -118 0 -4 10 -8 23 -8 14 1 35 18
61 52 l40 51 115 -7 c64 -4 134 -12 156 -17 22 -6 71 -15 109 -19 140 -18 172
-37 202 -120 21 -59 34 -64 34 -15 0 97 -70 146 -252 175 -197 31 -346 41
-383 26z"/>
<path d="M7534 7508 c-15 -23 -33 -61 -41 -84 -18 -52 -42 -69 -118 -83 -82
-15 -148 -14 -212 5 -30 9 -57 13 -60 10 -12 -11 17 -56 41 -66 52 -19 169
-23 216 -6 25 9 56 16 69 16 33 0 91 61 91 96 0 15 14 51 30 81 17 29 30 57
30 63 0 22 -21 8 -46 -32z"/>
<path d="M3920 4943 c-43 -7 -110 -34 -110 -45 0 -6 10 -8 23 -4 69 17 140 17
227 2 51 -10 103 -22 116 -28 20 -9 28 -8 41 5 23 23 8 35 -58 47 -30 6 -74
14 -99 20 -46 9 -94 11 -140 3z"/>
<path d="M4263 176 c-32 -25 -87 -74 -123 -110 -61 -62 -63 -66 -37 -66 44 0
246 170 247 208 0 23 -28 12 -87 -32z"/>
<path d="M9813 73 c-26 -10 -12 -23 26 -23 45 0 62 15 28 24 -25 7 -37 7 -54
-1z"/>
<path d="M9930 60 c0 -6 26 -10 58 -10 40 0 53 3 42 10 -20 13 -100 13 -100 0z"/>
</g>
</svg>
