<?xml version="1.0" standalone="no"?>
<!DOCTYPE svg PUBLIC "-//W3C//DTD SVG 20010904//EN"
 "http://www.w3.org/TR/2001/REC-SVG-20010904/DTD/svg10.dtd">
<svg version="1.0" xmlns="http://www.w3.org/2000/svg"
 width="1280.000000pt" height="677.000000pt" viewBox="0 0 1280.000000 677.000000"
 preserveAspectRatio="xMidYMid meet">
<metadata>
Created by potrace 1.15, written by Peter Selinger 2001-2017
</metadata>
<g transform="translate(0.000000,677.000000) scale(0.100000,-0.100000)"
fill="#000000" stroke="none">
<path d="M5242 6757 c-20 -23 -112 -227 -112 -246 0 -25 -24 -43 -74 -57 -418
-112 -496 -145 -496 -208 0 -51 28 -54 235 -20 50 8 103 17 119 19 39 7 34 -7
-47 -136 -46 -74 -68 -121 -77 -162 -12 -59 -12 -59 -68 -83 -152 -65 -316
-161 -397 -231 -27 -23 -82 -104 -95 -139 -9 -23 -7 -31 11 -51 13 -12 31 -23
41 -23 10 0 55 23 99 50 44 28 87 50 94 50 8 0 17 4 20 10 3 5 36 26 73 47 37
20 83 48 102 63 48 36 108 70 152 86 36 12 38 12 62 -17 14 -16 30 -47 36 -69
12 -44 11 -43 132 -64 109 -19 145 -36 183 -89 36 -49 78 -65 172 -66 48 -1
64 3 71 15 18 32 33 4 32 -59 -1 -80 19 -165 48 -201 12 -16 22 -38 22 -48 0
-41 139 -265 235 -379 74 -89 127 -160 122 -165 -3 -3 -16 -7 -29 -9 -12 -1
-56 -8 -96 -15 -83 -13 -125 -4 -162 35 -21 23 -31 25 -107 25 -60 0 -97 -6
-135 -21 -29 -11 -90 -33 -136 -49 -105 -37 -133 -57 -168 -123 -25 -49 -27
-59 -18 -103 8 -46 11 -49 42 -52 22 -2 48 5 78 23 24 14 50 23 57 19 6 -4 60
-47 118 -96 l107 -88 -12 -35 c-7 -19 -24 -48 -38 -63 -14 -15 -29 -38 -33
-50 -9 -32 27 -70 74 -77 69 -11 82 -16 87 -30 6 -15 -34 -75 -51 -75 -14 0
-132 -87 -197 -145 -59 -53 -108 -82 -108 -64 0 6 5 40 12 75 9 49 9 76 -1
121 -19 87 -21 91 -41 98 -10 3 -23 19 -29 35 -12 37 -28 38 -41 4 -22 -57 0
-179 44 -246 20 -31 13 -74 -23 -143 l-25 -50 -7 80 c-9 111 -25 165 -49 165
-23 0 -88 -86 -101 -135 -8 -28 -6 -44 10 -80 11 -25 27 -45 35 -45 22 0 30
-19 14 -37 -14 -18 -97 -73 -110 -73 -15 0 -38 73 -38 124 1 65 14 128 41 188
24 51 20 78 -9 78 -45 0 -82 -86 -80 -188 1 -37 -2 -83 -7 -104 -5 -26 -3 -45
8 -67 8 -16 13 -32 10 -35 -3 -3 -43 -2 -89 1 -96 7 -137 -5 -159 -47 -13 -25
-12 -29 8 -48 12 -11 34 -24 50 -27 34 -9 42 -22 26 -41 -12 -14 -29 -23 -121
-62 l-47 -20 6 67 c7 84 -5 96 -51 52 -18 -17 -37 -31 -43 -31 -7 0 -13 20
-15 48 -3 39 -6 47 -23 47 -15 0 -32 -24 -71 -100 -84 -162 -84 -162 -95 -142
-6 9 -7 23 -3 29 4 7 11 53 16 102 4 50 10 103 14 119 6 24 3 27 -18 27 -19 0
-33 -12 -56 -47 -17 -27 -48 -73 -69 -105 l-39 -56 -34 76 c-19 41 -36 78 -37
81 -2 3 8 19 22 35 28 32 32 56 11 56 -18 0 -106 -116 -106 -139 0 -9 -4 -21
-9 -26 -20 -22 -61 -141 -61 -180 0 -43 22 -74 63 -89 30 -10 15 -26 -39 -45
-36 -12 -76 -39 -133 -91 -45 -40 -84 -71 -87 -67 -9 9 13 42 49 74 38 33 44
56 55 205 4 48 13 93 20 100 14 14 16 48 4 48 -22 0 -41 -41 -47 -103 -7 -66
-8 -68 -45 -87 -21 -11 -65 -42 -98 -69 l-60 -50 -1 90 c-1 94 -11 129 -36
129 -21 0 -45 -41 -45 -78 0 -19 -8 -46 -19 -60 -10 -15 -26 -43 -34 -62 -24
-53 -45 -76 -58 -63 -15 15 -3 65 22 97 18 23 19 31 8 93 -16 95 -18 101 -29
83 -5 -8 -6 -18 -4 -22 3 -4 1 -16 -5 -25 -8 -16 -11 -14 -21 12 -11 29 -9 42
15 122 11 35 -18 39 -60 8 -38 -30 -48 -61 -16 -50 22 7 25 -2 36 -77 6 -44 4
-48 -14 -48 -26 0 -41 28 -41 75 0 20 -6 43 -12 51 -35 43 -59 65 -67 59 -5
-3 -26 -36 -47 -73 -20 -37 -38 -68 -39 -70 -1 -1 -26 6 -54 18 -56 22 -91 26
-91 10 0 -5 7 -27 14 -47 8 -21 20 -57 26 -81 6 -24 27 -61 46 -82 19 -21 47
-63 62 -92 28 -54 54 -69 60 -33 8 41 21 35 57 -31 l38 -67 -29 -54 c-17 -31
-41 -61 -57 -69 -22 -12 -26 -18 -18 -28 7 -9 8 -27 3 -52 -6 -32 -16 -43 -50
-62 -49 -28 -54 -40 -12 -34 34 5 40 -12 10 -28 -26 -14 -26 -33 0 -25 15 5
20 2 20 -13 0 -23 -27 -37 -45 -22 -9 8 -14 3 -18 -20 -10 -47 -37 -39 -37 11
l0 41 -30 -32 c-34 -37 -56 -35 -52 3 3 22 -1 27 -18 27 -11 0 -23 -7 -26 -15
-12 -30 -34 -15 -40 26 -4 22 -13 43 -20 46 -8 3 -31 -10 -53 -28 -21 -19 -55
-47 -76 -63 -20 -16 -46 -47 -56 -70 -22 -49 -24 -131 -4 -166 22 -39 19 -46
-37 -78 -42 -23 -71 -31 -137 -37 -75 -6 -83 -5 -78 10 11 27 148 248 184 294
18 25 36 56 39 70 6 25 60 103 76 109 5 2 22 15 39 30 27 22 44 26 136 33 57
5 122 13 143 19 47 13 90 46 90 70 0 15 -9 19 -42 22 l-43 3 61 32 c104 55
108 80 13 90 -38 4 -66 0 -93 -11 -21 -9 -42 -16 -46 -16 -4 0 -7 23 -6 51 0
32 -4 54 -11 56 -6 2 -29 -12 -51 -31 -44 -40 -62 -88 -62 -165 0 -47 -3 -53
-27 -63 -50 -22 -141 -87 -161 -115 -10 -16 -29 -54 -41 -86 -11 -31 -50 -97
-85 -146 -35 -49 -80 -120 -100 -158 -24 -46 -55 -86 -91 -116 -36 -32 -55
-56 -57 -74 -3 -24 -9 -28 -58 -38 -30 -6 -76 -20 -103 -30 -26 -10 -50 -16
-52 -13 -7 6 56 69 112 111 30 23 51 51 72 99 23 51 40 73 75 97 89 62 176
205 210 347 16 65 22 74 63 105 55 41 156 157 182 208 11 21 27 44 37 52 20
16 84 152 84 177 0 9 -20 -19 -44 -63 -49 -88 -140 -216 -186 -260 -36 -35
-39 -21 -6 26 46 64 104 174 119 225 8 28 22 65 31 82 9 17 16 44 16 60 0 15
5 33 12 40 9 9 9 15 0 24 -16 16 -58 -4 -67 -31 -3 -12 -14 -21 -24 -21 -10 0
-25 -8 -34 -18 -24 -27 -63 -127 -77 -199 -7 -35 -19 -68 -26 -74 -17 -14 -17
-20 -14 139 2 105 -1 132 -11 132 -22 -1 -117 -134 -130 -182 -7 -25 -9 -70
-5 -109 6 -63 4 -68 -25 -109 -59 -81 -69 -114 -69 -237 0 -68 -4 -113 -10
-113 -18 0 -69 -81 -84 -134 -9 -29 -24 -64 -35 -78 -11 -13 -23 -37 -26 -51
-4 -15 -11 -30 -16 -33 -12 -7 -12 61 0 84 42 79 91 185 91 197 0 23 -17 18
-32 -9 -66 -119 -101 -198 -123 -277 -34 -121 -81 -208 -154 -289 -69 -76 -88
-75 -67 5 21 81 50 126 120 191 49 45 66 68 66 87 0 38 -16 41 -41 8 -12 -16
-44 -41 -73 -56 -28 -15 -66 -43 -83 -64 l-33 -36 0 65 c0 110 36 163 150 221
81 42 165 144 158 192 -2 18 -7 14 -30 -24 -26 -45 -124 -137 -134 -127 -2 3
11 31 31 63 27 45 35 70 35 106 l0 47 -45 -23 c-61 -33 -96 -55 -121 -77 l-22
-19 -4 70 c-5 100 -19 107 -59 29 -27 -53 -33 -77 -37 -148 -3 -71 0 -95 19
-145 17 -46 22 -77 20 -137 -1 -42 5 -105 12 -140 40 -175 31 -241 -42 -310
-26 -25 -61 -48 -77 -52 -47 -11 -165 -76 -214 -116 -49 -42 -132 -89 -197
-115 -24 -10 -60 -33 -80 -52 -21 -19 -66 -48 -101 -65 -35 -17 -67 -40 -73
-50 -5 -10 -17 -18 -27 -18 -19 0 -54 -22 -122 -75 -25 -20 -72 -49 -106 -65
-34 -16 -74 -40 -90 -53 -16 -14 -58 -39 -92 -55 -34 -17 -77 -42 -94 -57 -18
-15 -42 -31 -55 -36 -13 -5 -23 -13 -23 -19 0 -5 -29 -23 -64 -39 -66 -30 -85
-46 -69 -62 9 -9 21 -3 172 97 145 96 156 102 171 103 9 1 42 21 75 46 33 25
63 45 67 45 8 0 228 144 250 164 10 9 24 16 32 16 7 0 19 6 25 14 15 18 45 26
62 15 25 -15 -20 -80 -96 -136 -38 -29 -73 -62 -77 -73 -4 -12 -13 -17 -22
-14 -16 6 -76 -22 -76 -35 0 -5 -15 -15 -34 -21 -20 -6 -44 -25 -58 -45 -23
-35 -38 -44 -38 -24 0 7 -9 5 -22 -5 -13 -9 -54 -34 -93 -57 -109 -63 -170
-110 -167 -125 2 -8 -2 -14 -8 -14 -5 0 -10 5 -10 11 0 7 -9 5 -23 -5 -12 -9
-40 -26 -62 -37 -22 -12 -53 -34 -70 -49 -81 -75 -144 -123 -187 -142 -45 -21
-48 -24 -48 -61 l0 -39 58 6 c88 10 208 16 437 21 116 3 224 8 241 11 17 2 43
0 57 -5 16 -6 47 -7 84 -1 32 5 132 12 223 15 91 3 179 8 196 11 17 3 87 -1
155 -10 82 -10 145 -13 186 -8 34 5 97 4 140 -1 98 -12 164 -12 278 -4 50 4
118 9 153 12 35 3 68 7 73 10 5 3 17 2 26 -3 10 -5 119 -12 243 -16 124 -3
243 -10 265 -16 53 -13 260 -12 410 1 66 6 201 12 300 14 99 1 275 10 390 19
116 9 283 16 373 16 152 0 162 1 162 19 0 26 -28 31 -112 19 -40 -5 -149 -6
-243 -3 -463 16 -636 18 -890 11 -306 -9 -712 -9 -890 -1 -112 5 -204 4 -270
-3 -55 -7 -224 -14 -375 -18 -151 -3 -277 -7 -280 -9 -3 -2 -40 1 -83 5 -88
10 -697 -4 -852 -19 -55 -6 -138 -13 -185 -16 -47 -3 -111 -7 -144 -10 l-58
-5 24 33 c13 17 48 43 76 57 28 14 61 34 74 46 13 11 41 31 63 44 22 13 96 61
165 105 69 45 162 104 208 131 112 66 162 109 162 140 0 15 6 24 16 24 12 0
15 -6 11 -21 -4 -17 -3 -19 6 -10 6 6 19 11 29 11 10 0 27 9 38 20 11 11 52
36 92 56 40 20 114 62 163 94 50 31 130 81 178 111 48 30 125 78 170 108 45
30 132 87 192 127 61 39 122 83 136 97 14 14 67 43 117 65 70 30 110 56 165
105 39 35 95 76 123 90 51 26 52 26 69 7 15 -16 15 -22 5 -35 -7 -8 -18 -15
-25 -15 -16 0 -61 -59 -80 -103 -16 -39 -37 -248 -26 -260 4 -4 22 -4 39 -1
35 7 38 12 46 109 l5 60 -19 -25 c-17 -21 -21 -23 -30 -10 -13 19 -3 95 18
139 22 46 67 80 84 63 7 -7 19 -12 27 -12 22 -1 47 -38 55 -85 10 -51 73 -165
92 -165 19 0 18 9 -7 49 -11 18 -33 67 -49 107 -38 96 -50 114 -75 114 -18 0
-21 6 -21 38 0 20 -2 48 -4 61 -4 20 5 32 50 68 30 24 87 61 126 83 39 22 81
51 94 65 13 14 30 25 39 25 8 0 54 10 101 21 95 24 153 63 195 129 28 44 74
78 190 140 44 23 99 55 122 71 42 27 55 33 81 30 22 -2 12 -48 -18 -79 -24
-25 -30 -41 -30 -74 0 -23 -12 -71 -26 -107 -29 -72 -42 -141 -27 -141 5 0 16
19 23 43 7 23 21 54 31 69 11 15 25 42 31 60 10 32 54 88 68 88 4 0 25 -28 48
-63 69 -107 140 -157 221 -157 36 0 19 22 -28 36 -57 17 -109 67 -122 119 -18
73 -41 114 -90 159 -27 25 -49 51 -49 58 0 24 40 79 71 96 17 9 77 47 135 84
57 38 107 68 110 68 3 0 32 18 64 40 69 47 107 63 115 50 3 -5 -3 -18 -15 -30
-12 -12 -20 -33 -20 -52 -1 -117 -8 -177 -23 -206 -11 -24 -15 -47 -10 -78 6
-48 9 -50 37 -29 18 14 22 13 47 -15 16 -16 33 -30 38 -30 16 0 13 36 -4 50
-13 11 -12 16 7 43 21 29 22 29 29 8 10 -27 39 -28 39 -1 0 21 24 28 35 10 3
-5 11 -10 17 -10 13 0 7 41 -20 143 -12 43 -24 121 -27 172 -5 86 -4 96 15
115 11 11 26 20 33 20 7 0 44 20 81 45 38 25 73 45 77 45 5 0 56 21 113 46 96
43 105 49 100 70 -5 21 -3 22 38 17 110 -12 209 -37 275 -69 80 -39 87 -38
150 17 17 15 63 44 102 64 106 56 125 86 61 98 -16 4 -30 10 -30 14 1 21 77
118 95 120 77 11 130 29 181 62 33 21 66 46 73 55 7 9 19 16 25 16 7 0 28 12
47 26 19 14 45 30 59 35 37 15 302 160 322 177 25 21 88 33 112 20 12 -6 42
-28 68 -49 26 -22 51 -39 56 -39 4 0 19 -12 33 -26 13 -14 38 -33 54 -41 17
-8 44 -28 60 -43 30 -27 129 -98 247 -177 35 -22 83 -57 108 -77 62 -51 192
-136 207 -136 7 0 17 -10 24 -21 11 -21 10 -22 -29 -16 -82 14 -69 -43 15 -64
21 -6 64 -12 95 -14 135 -10 340 -64 397 -105 16 -11 34 -20 40 -20 6 0 11 -4
11 -9 0 -5 14 -14 30 -21 17 -7 33 -16 35 -21 3 -4 -20 -24 -50 -44 -56 -38
-81 -68 -70 -85 10 -16 39 -11 91 15 64 33 112 32 182 -4 31 -16 95 -46 142
-68 47 -22 127 -61 178 -87 50 -25 97 -46 104 -46 6 0 19 -6 27 -13 9 -7 41
-23 71 -36 76 -32 141 -64 147 -74 2 -4 -15 -34 -39 -67 -24 -32 -51 -73 -61
-90 -9 -18 -26 -34 -37 -37 -23 -6 -27 -23 -5 -23 21 0 19 -23 -5 -53 -21 -26
-26 -47 -12 -47 24 0 132 171 132 210 0 8 15 32 34 52 41 45 62 42 112 -16 44
-50 94 -135 94 -159 0 -9 -12 -31 -27 -48 -35 -38 -63 -88 -63 -112 0 -10 10
-40 21 -68 14 -32 19 -58 15 -76 -4 -16 -7 -36 -7 -46 0 -23 44 -82 77 -104
28 -18 43 -11 25 11 -9 11 -10 20 -1 35 13 25 23 26 41 5 23 -28 68 -45 102
-39 27 5 37 1 64 -27 65 -68 82 -88 88 -107 3 -10 13 -25 22 -33 15 -12 15 -8
8 42 -4 30 -8 114 -9 185 l-1 130 32 3 32 3 -6 -54 c-6 -61 10 -102 53 -136
25 -20 26 -23 16 -73 -6 -29 -14 -65 -18 -80 -11 -48 19 -33 93 46 38 41 85
106 107 147 46 88 63 109 87 109 30 0 32 -19 4 -52 -34 -41 -87 -146 -80 -158
11 -18 22 -10 40 31 51 112 197 192 245 134 9 -11 3 -16 -28 -24 -22 -6 -51
-20 -65 -31 -42 -33 -97 -160 -69 -160 5 0 21 14 38 31 29 32 158 99 190 99
30 0 -24 -49 -66 -60 -91 -25 -129 -74 -156 -201 -10 -50 -23 -82 -40 -100
-30 -32 -30 -50 0 -78 25 -23 108 -40 198 -41 64 0 76 6 70 36 -4 24 -2 26 31
23 48 -4 54 4 21 30 -26 21 -28 26 -26 102 2 85 -13 131 -49 157 -17 12 -18
16 -4 41 8 16 37 43 64 60 48 31 51 32 80 17 35 -18 78 -20 116 -6 37 14 195
-29 299 -81 43 -21 84 -39 91 -39 6 0 20 -9 30 -20 10 -11 24 -20 31 -20 25 0
104 -44 104 -58 0 -10 -7 -12 -25 -8 -25 6 -65 -8 -65 -23 0 -4 28 -13 63 -19
35 -7 81 -18 103 -26 l39 -15 -51 0 c-75 -1 -261 -28 -322 -46 -87 -26 -173
-125 -132 -150 6 -4 21 0 33 8 13 8 43 17 67 20 25 3 77 15 115 26 102 32 321
55 392 41 31 -5 58 -12 60 -13 2 -2 -25 -14 -59 -27 -65 -23 -112 -32 -258
-50 -106 -13 -120 -18 -100 -30 19 -12 117 -12 199 0 37 5 83 5 110 0 49 -9
159 1 271 26 36 8 71 14 79 14 17 0 162 -91 157 -99 -2 -3 -31 -4 -65 -3 l-60
4 -7 35 -7 35 -56 -6 c-31 -4 -92 -11 -136 -16 -137 -14 -173 -28 -231 -84
-74 -72 -91 -147 -46 -198 22 -26 42 -5 42 46 0 69 18 116 43 116 12 0 47 13
77 30 87 47 100 52 190 66 104 16 100 16 100 4 0 -5 -7 -10 -15 -10 -29 0
-202 -96 -192 -106 2 -3 17 2 33 10 16 8 49 22 74 32 25 10 53 24 63 33 12 10
21 11 28 4 7 -7 -4 -24 -36 -54 -75 -70 -106 -149 -79 -201 18 -36 42 -36 49
0 20 96 55 156 113 194 32 21 145 48 201 48 32 0 44 -6 68 -34 21 -24 49 -40
108 -61 44 -15 94 -33 110 -40 55 -23 169 -45 270 -51 68 -4 108 -11 125 -23
14 -9 48 -26 75 -38 28 -12 77 -34 110 -48 33 -15 95 -40 137 -56 42 -16 87
-38 100 -48 13 -10 39 -23 58 -28 81 -23 250 -100 308 -140 34 -24 77 -49 95
-55 17 -6 43 -19 57 -29 23 -15 136 -69 146 -69 2 0 4 17 4 38 0 36 -2 38 -52
56 -29 10 -65 27 -80 37 -14 11 -35 19 -45 19 -11 0 -28 8 -39 19 -12 10 -35
22 -52 26 -18 3 -34 11 -37 16 -4 5 -19 9 -34 9 -19 0 -34 8 -44 23 -9 14 -41
33 -76 46 -33 12 -63 26 -66 31 -4 6 -16 10 -28 10 -13 0 -40 9 -62 20 -22 11
-53 20 -70 20 -17 0 -35 4 -41 9 -5 5 -65 33 -134 61 -69 28 -129 55 -134 60
-25 25 78 -1 204 -51 30 -11 80 -29 111 -38 31 -9 62 -21 70 -27 13 -10 112
-48 257 -99 35 -13 69 -28 75 -34 6 -6 18 -11 28 -11 19 0 148 -63 198 -97 44
-30 53 -29 49 3 -2 22 -11 29 -43 39 -22 7 -70 28 -106 48 -36 21 -74 37 -85
37 -11 0 -37 9 -58 21 -21 11 -41 18 -43 15 -5 -5 -50 16 -81 38 -7 5 -27 10
-43 11 -17 2 -44 12 -60 24 -15 12 -35 21 -44 21 -8 0 -15 5 -15 10 0 6 -7 10
-15 10 -8 0 -42 18 -76 40 -34 22 -66 40 -71 40 -5 0 -66 26 -136 59 -70 32
-154 68 -188 80 -71 26 -126 85 -204 220 -51 88 -114 148 -196 187 -47 23
-125 22 -161 -1 -35 -24 -25 -46 27 -59 55 -15 168 -98 228 -169 51 -59 41
-72 -27 -38 -22 12 -46 21 -53 21 -7 0 -21 11 -33 25 -18 23 -227 115 -260
115 -7 0 -15 3 -17 8 -5 11 -76 42 -98 42 -21 0 -37 25 -55 84 -16 54 -31 56
-46 7 -22 -75 -47 -52 -114 107 -55 131 -79 164 -147 198 -69 35 -90 25 -49
-21 25 -29 31 -44 31 -83 0 -26 7 -60 15 -76 8 -15 15 -34 15 -41 0 -6 9 -20
20 -30 18 -16 28 -45 15 -45 -3 0 -38 27 -78 61 -89 75 -134 99 -208 109 -39
6 -78 20 -117 45 -60 37 -142 125 -142 153 0 8 -14 39 -31 69 -29 51 -31 60
-26 120 7 74 25 116 50 121 15 3 17 -7 17 -95 0 -134 17 -155 59 -75 27 50 68
92 91 92 28 0 25 -21 -12 -88 -89 -161 -96 -192 -53 -232 27 -26 27 -26 25 42
-2 51 9 77 51 126 16 18 29 38 29 45 0 7 16 38 36 71 40 67 41 96 3 110 -23 8
-34 3 -88 -43 -34 -28 -66 -51 -72 -51 -5 0 -9 19 -10 43 0 23 -8 62 -17 87
-23 60 -59 67 -93 18 -24 -32 -46 -82 -56 -125 -10 -43 -27 -45 -74 -8 -41 32
-49 35 -114 35 -44 -1 -77 -6 -89 -15 -24 -18 -12 -35 25 -35 31 0 108 -53
138 -95 35 -48 138 -148 173 -167 39 -22 54 -56 21 -44 -493 165 -493 165
-493 229 0 18 25 85 56 150 54 112 57 123 56 190 -1 55 -6 75 -19 84 -33 25
-50 14 -103 -63 -59 -88 -91 -162 -93 -218 -1 -25 -8 -43 -19 -50 -29 -18 -50
5 -65 70 -14 64 -31 104 -45 104 -13 0 -9 -52 8 -110 13 -44 13 -54 2 -62 -10
-7 -8 -12 10 -25 21 -15 31 -43 14 -43 -12 0 -54 30 -94 69 -29 27 -38 43 -38
68 0 18 -5 33 -11 33 -8 0 -10 -16 -5 -50 4 -28 3 -50 -2 -50 -4 0 -29 14 -55
30 -40 25 -46 33 -38 48 16 27 64 69 88 76 11 4 24 17 27 31 3 13 12 30 19 37
20 21 97 178 97 199 0 10 -5 19 -11 19 -15 0 -146 -104 -181 -143 -15 -17 -31
-28 -35 -24 -15 16 20 136 65 224 36 71 44 95 35 104 -9 9 -17 8 -35 -4 -30
-20 -89 -79 -109 -108 l-16 -24 -27 52 c-28 55 -84 107 -112 101 -9 -2 -25
-26 -36 -58 -11 -30 -23 -58 -27 -62 -8 -9 -141 112 -141 128 0 5 26 15 57 22
31 6 66 21 78 32 11 11 37 33 57 50 46 39 81 98 103 175 10 33 26 72 37 87 24
34 17 48 -25 48 -49 0 -96 -16 -158 -55 -31 -19 -60 -35 -64 -35 -8 0 -1 73
11 122 9 38 -18 47 -56 19 -16 -11 -36 -21 -45 -21 -9 0 -25 -15 -36 -34 -14
-25 -25 -33 -37 -29 -28 10 -43 25 -57 60 -24 57 -66 37 -103 -51 -10 -22 -18
-27 -35 -23 -183 41 -187 41 -187 9 0 -11 22 -31 55 -51 39 -24 72 -57 119
-121 70 -93 145 -164 194 -181 16 -5 43 -27 60 -48 17 -22 61 -60 97 -87 66
-48 77 -81 16 -50 -46 24 -171 32 -196 13 -28 -21 -7 -44 24 -28 31 17 179
-21 258 -65 73 -41 98 -37 48 8 -28 24 -35 37 -34 67 1 43 21 103 36 108 7 3
24 -17 39 -44 15 -26 35 -57 45 -68 28 -33 68 -115 63 -129 -3 -8 4 -31 15
-52 34 -63 22 -184 -18 -184 -24 0 -74 56 -105 118 -28 55 -44 65 -53 32 -3
-11 -8 -20 -12 -20 -4 0 -29 30 -55 66 -30 42 -60 71 -84 82 -20 10 -48 25
-62 34 -32 20 -70 32 -70 21 0 -5 17 -17 37 -28 21 -11 55 -36 77 -55 46 -41
142 -180 124 -180 -36 0 -199 77 -232 109 -70 69 -162 186 -181 231 -10 25
-24 52 -31 60 -6 8 -17 40 -24 70 -7 30 -15 59 -18 64 -7 13 -22 -16 -22 -46
0 -16 -4 -28 -10 -28 -13 0 -37 39 -44 73 -18 87 -17 84 -27 59 -6 -16 -2 -39
12 -78 12 -30 18 -58 14 -62 -9 -10 -59 53 -89 113 -21 40 -26 65 -26 123 0
39 -4 72 -9 72 -13 0 -21 -27 -21 -71 0 -21 -4 -39 -9 -39 -11 0 -91 82 -105
107 -8 15 8 36 37 46 6 2 3 33 -7 81 -9 43 -16 93 -16 111 0 78 -53 42 -71
-48 -10 -46 -9 -66 1 -98 19 -56 4 -65 -50 -29 -48 32 -100 94 -100 118 0 9
-7 23 -16 33 -15 17 -15 22 -1 57 26 64 31 124 13 165 -10 25 -21 37 -35 37
-20 0 -53 -39 -65 -77 -8 -24 -35 -39 -40 -20 -2 6 -8 43 -14 81 -6 38 -15 73
-20 78 -15 15 -41 -3 -52 -38 -13 -37 -5 -134 11 -134 4 0 27 -26 50 -57 23
-32 55 -70 70 -85 16 -15 29 -32 29 -38 0 -17 -57 -3 -105 26 -67 40 -107 56
-123 49 -13 -5 -13 -8 2 -24 17 -18 101 -64 138 -75 9 -3 26 -23 38 -45 24
-48 24 -51 4 -51 -19 0 -61 28 -123 82 -24 21 -52 38 -62 38 -11 0 -19 5 -19
12 0 6 -15 24 -32 40 -32 27 -33 28 -13 43 20 16 19 17 -15 45 -19 16 -43 32
-52 35 -10 4 -18 12 -18 20 0 14 -74 85 -89 85 -5 0 -14 -6 -20 -13 -13 -17
35 -97 73 -123 19 -12 26 -25 26 -49 0 -18 8 -38 18 -47 27 -23 109 -68 124
-68 8 0 31 -18 52 -39 33 -33 37 -43 31 -69 -4 -19 0 -44 9 -67 18 -42 21 -75
6 -75 -5 0 -14 9 -19 19 -13 23 -246 111 -295 111 -7 0 -19 7 -26 14 -6 8 -28
20 -48 27 -20 7 -49 21 -63 31 -23 18 -85 43 -288 117 -74 26 -75 28 -93 76
-13 37 -17 78 -16 160 1 105 -14 200 -63 386 -5 20 -9 48 -9 63 0 28 2 29 110
31 30 0 67 4 81 9 37 11 59 -14 59 -66 0 -35 6 -47 40 -78 39 -36 40 -39 40
-102 0 -36 -5 -111 -10 -166 -14 -135 -6 -156 81 -199 85 -42 237 -96 249 -88
34 21 -18 52 -149 91 -30 9 -71 27 -92 40 -55 34 -61 66 -38 204 7 47 13 109
12 137 -3 63 -11 60 170 66 71 3 133 9 139 15 5 5 20 47 33 92 19 68 22 91 14
138 -5 32 -13 89 -18 127 -5 39 -17 104 -25 145 -9 41 -16 91 -16 110 0 19 -9
64 -20 100 -11 36 -25 85 -30 109 -10 42 -71 153 -140 254 -40 60 -147 169
-220 225 -82 62 -115 93 -278 252 -94 94 -164 153 -193 167 -26 12 -92 51
-147 87 -56 36 -108 66 -115 66 -8 0 -20 6 -26 14 -7 8 -46 29 -87 46 -63 26
-86 31 -148 29 l-73 -2 -41 44 c-56 59 -54 75 12 104 52 23 74 41 63 51 -3 3
-20 -4 -38 -15 -36 -22 -89 -28 -89 -11 0 6 7 10 15 10 8 0 15 5 15 10 0 6 -8
10 -18 10 -24 0 -34 10 -23 24 5 6 11 25 13 41 2 25 8 31 33 33 17 2 38 11 47
19 15 13 25 14 62 4 56 -14 133 -14 141 -1 3 6 17 10 30 10 28 0 43 34 25 55
-7 8 -39 25 -72 36 -113 42 -140 83 -60 94 92 13 90 9 68 93 -18 67 -40 100
-74 113 -59 23 -100 85 -73 114 20 23 30 73 17 91 -12 16 -14 15 -29 -7 -10
-13 -17 -30 -17 -39 0 -8 -12 -43 -27 -78 -27 -60 -29 -63 -58 -59 -16 2 -43
9 -60 15 -42 15 -267 41 -410 47 -138 5 -221 23 -218 45 3 25 33 102 65 167
25 50 37 64 64 73 32 11 204 8 339 -6 68 -7 223 -55 273 -85 46 -26 55 -24 37
10 -26 50 -188 96 -375 106 -52 3 -143 7 -201 11 -84 4 -108 3 -117 -9z m76
-332 c71 -8 138 -14 148 -13 59 8 302 -39 382 -73 52 -23 72 -24 72 -5 0 25
18 27 57 7 58 -29 81 -59 85 -113 l3 -48 -81 0 c-89 0 -106 9 -119 63 -13 49
-86 85 -207 101 -64 8 -51 -11 15 -23 95 -18 125 -30 147 -58 27 -34 13 -47
-31 -30 -19 8 -91 29 -161 47 -127 33 -159 50 -95 50 28 1 29 2 13 11 -14 9
-28 7 -58 -7 -27 -12 -42 -14 -46 -7 -4 6 -60 14 -129 18 -107 7 -122 10 -126
26 -5 19 -6 19 -44 2 -21 -10 -42 -23 -48 -29 -23 -25 -67 -44 -99 -44 -19 0
-57 -4 -83 -9 -183 -35 -245 -43 -254 -34 -20 20 133 98 241 123 25 6 81 21
125 35 95 29 124 30 293 10z m-658 -119 c0 -3 -4 -8 -10 -11 -5 -3 -10 -1 -10
4 0 6 5 11 10 11 6 0 10 -2 10 -4z m683 -73 c86 -102 121 -130 191 -153 39
-13 84 -36 105 -55 20 -18 53 -38 74 -44 44 -15 47 -33 14 -82 -28 -42 -64
-50 -87 -18 -22 28 -37 18 -46 -27 -5 -28 -2 -42 16 -66 12 -16 19 -36 16 -45
-5 -13 5 -15 76 -12 46 2 89 0 96 -4 6 -5 12 -22 12 -38 0 -26 -6 -33 -42 -49
-61 -26 -148 -35 -192 -19 -46 17 -56 7 -63 -65 -5 -48 -9 -56 -27 -56 -12 0
-36 -9 -53 -20 -28 -17 -40 -18 -85 -10 -52 10 -59 15 -101 74 -21 31 -112 61
-215 71 -60 6 -72 10 -70 23 6 31 58 46 172 48 82 2 114 -1 131 -12 20 -13 23
-13 29 1 3 9 6 28 6 42 0 22 -3 24 -22 18 -13 -4 -70 -11 -128 -15 -58 -4
-126 -13 -152 -20 -57 -15 -78 -9 -78 24 0 25 16 36 56 36 49 0 22 17 -45 28
-84 14 -127 7 -148 -25 -9 -13 -55 -42 -102 -65 -75 -36 -297 -178 -311 -198
-10 -14 -48 -21 -55 -10 -17 28 123 180 206 224 30 16 68 39 84 51 17 12 69
41 117 64 84 40 88 43 98 84 10 40 79 188 135 287 13 24 34 49 44 55 11 5 86
11 166 13 l146 3 32 -38z m461 -315 c-4 -6 -12 -36 -18 -67 -11 -56 -11 -56
-51 -59 -22 -2 -45 -8 -52 -14 -18 -15 -48 -1 -61 28 -16 35 -17 34 34 34 42
0 51 4 93 48 25 26 49 46 54 44 4 -2 4 -8 1 -14z m134 -299 c102 2 169 -21
294 -103 62 -40 129 -81 148 -91 81 -42 181 -118 260 -200 47 -48 108 -111
135 -139 28 -28 94 -86 147 -129 113 -91 161 -144 250 -282 126 -194 153 -276
146 -455 -5 -137 -3 -156 19 -139 23 19 33 -6 33 -82 0 -36 5 -91 11 -122 12
-60 7 -112 -15 -142 -11 -16 -31 -18 -152 -21 -175 -3 -179 -1 -188 93 -13
138 -16 159 -27 228 -14 90 -47 250 -61 295 -15 48 -75 118 -147 170 -58 43
-61 46 -61 88 0 105 -113 338 -220 454 -148 161 -407 357 -472 358 -42 0 -25
-23 35 -51 117 -54 381 -286 448 -392 18 -29 43 -65 56 -80 13 -16 23 -37 23
-46 0 -10 14 -45 31 -77 18 -35 32 -81 36 -115 5 -49 2 -62 -23 -105 -28 -50
-151 -178 -214 -225 -19 -14 -75 -48 -125 -75 -166 -90 -266 -117 -280 -74 -4
11 -18 34 -32 50 -32 38 -26 53 28 69 24 7 57 24 74 38 92 75 165 128 205 148
25 13 60 38 78 56 30 31 35 32 64 21 36 -13 48 -9 48 19 0 12 10 23 25 29 34
13 32 17 -13 30 -35 9 -42 16 -66 73 -39 93 -125 191 -220 252 -30 19 -76 55
-101 80 -25 24 -70 58 -99 75 -62 35 -122 97 -132 135 -4 15 1 44 11 71 13 34
14 49 6 57 -16 16 -28 0 -42 -55 -23 -87 -9 -109 166 -264 84 -76 166 -143
182 -149 53 -24 163 -157 163 -199 0 -11 -9 -16 -29 -16 -26 0 -73 22 -218
100 -42 23 -121 99 -191 185 -84 102 -99 124 -126 182 -14 29 -41 73 -60 99
-20 26 -36 57 -36 69 0 12 -6 28 -13 34 -8 6 -22 28 -32 50 l-17 39 42 53 c23
29 50 69 61 90 21 42 38 50 89 42 19 -3 63 -4 98 -4z m-218 -44 c0 -3 -19 -26
-41 -50 -46 -50 -87 -59 -121 -28 -18 16 -25 63 -11 76 7 8 173 10 173 2z
m-116 -155 c18 -6 26 -17 26 -33 0 -13 11 -44 25 -68 13 -24 43 -80 66 -124
75 -143 175 -280 264 -359 142 -127 241 -186 343 -206 34 -7 62 -18 62 -24 0
-28 -42 -74 -98 -109 -84 -52 -100 -47 -241 73 -122 104 -391 449 -391 502 0
8 -17 41 -38 74 -21 32 -44 84 -51 114 -40 169 -37 187 33 160z m-48 -865 c32
-4 78 -18 101 -31 23 -13 52 -24 65 -24 15 0 30 -10 41 -29 19 -33 14 -41 -24
-41 -22 0 -30 6 -35 25 -3 14 -12 25 -19 25 -8 0 -11 -8 -8 -18 6 -25 -23 -50
-39 -34 -7 7 -35 12 -64 12 -61 0 -126 24 -118 43 3 8 -2 20 -11 27 -14 12
-13 15 7 37 12 13 27 22 33 19 7 -2 38 -7 71 -11z m475 -32 c15 -9 30 -22 33
-29 7 -20 -64 -42 -147 -47 -74 -4 -79 -3 -94 20 -9 13 -13 27 -9 31 9 8 132
39 164 41 13 0 37 -7 53 -16z m-721 -93 c-59 -53 -70 -58 -70 -35 0 14 96 85
115 85 5 0 -15 -23 -45 -50z m1493 -9 c59 -56 64 -63 74 -123 14 -85 11 -88
-146 -128 -27 -7 -40 -5 -61 10 -25 18 -28 28 -34 100 -5 54 -4 86 3 94 6 8 8
21 5 30 -9 23 42 76 73 76 14 0 47 -23 86 -59z m-669 -7 c9 -3 16 -10 16 -14
0 -14 -116 -88 -150 -95 -19 -4 -42 -13 -50 -20 -16 -14 -278 -105 -301 -105
-14 0 -125 85 -167 128 -44 45 -33 50 116 55 75 3 160 10 187 16 28 6 82 13
120 16 57 4 176 18 207 24 3 0 13 -2 22 -5z m-756 -80 c40 -26 187 -147 195
-161 6 -10 -1 -13 -32 -13 -22 0 -43 5 -46 10 -4 6 -26 20 -49 33 -51 26 -179
141 -168 151 10 10 72 -3 100 -20z m1166 -67 c4 -26 6 -50 3 -53 -9 -10 -44 6
-72 32 l-28 26 29 24 c41 34 57 27 68 -29z m-74 -76 c29 -27 50 -53 46 -59 -4
-7 -26 -16 -49 -22 -23 -6 -64 -18 -92 -27 -27 -9 -66 -19 -85 -24 -34 -7 -94
-27 -245 -83 -38 -14 -72 -26 -76 -26 -3 0 -6 22 -6 49 l-1 49 55 21 c30 12
60 21 66 21 7 0 33 11 59 25 26 14 54 25 62 25 8 0 28 11 45 26 28 23 133 73
157 74 6 0 34 -22 64 -49z m-511 -8 c23 -27 41 -53 41 -60 0 -16 -49 -53 -70
-53 -26 0 -131 90 -128 109 4 18 63 50 95 51 14 0 36 -17 62 -47z m935 -25 c8
-13 19 -57 25 -99 6 -42 15 -89 21 -104 24 -63 -19 -92 -138 -94 -155 -2 -430
-30 -517 -52 -93 -24 -201 -63 -220 -79 -11 -10 -33 -25 -50 -33 -16 -8 -41
-27 -55 -42 -14 -15 -126 -76 -250 -137 -205 -101 -373 -196 -441 -250 -25
-19 -30 -19 -70 -6 -78 26 -78 63 0 105 23 12 72 44 109 71 37 26 82 58 101
69 18 11 99 79 178 149 159 142 233 192 328 224 35 12 74 29 87 39 13 9 52 26
88 36 36 10 76 24 90 31 14 6 79 26 145 44 66 18 130 39 142 46 12 8 48 16 80
20 32 3 77 13 99 21 23 8 50 13 60 11 11 -2 51 8 89 23 87 34 82 33 99 7z
m-1089 -60 c19 -16 35 -35 35 -42 0 -19 -75 -66 -105 -66 -18 0 -28 7 -35 24
-20 53 -36 39 -31 -26 1 -16 -2 -28 -6 -28 -16 0 -33 24 -33 46 0 27 -21 46
-39 35 -9 -6 -12 -25 -10 -60 5 -59 -9 -62 -28 -5 -7 21 -23 47 -34 56 -28 23
-19 44 28 63 21 9 47 24 58 35 11 10 36 23 55 28 39 10 79 -6 145 -60z m-295
-130 c0 -13 -17 -9 -30 7 -6 8 -8 20 -4 26 5 9 11 7 21 -6 7 -11 13 -22 13
-27z m394 26 c7 -19 -24 -50 -148 -144 -50 -38 -127 -104 -172 -147 -116 -111
-291 -250 -361 -286 -15 -8 -55 -36 -87 -61 -45 -35 -68 -46 -95 -46 -44 0
-111 18 -111 29 0 8 344 241 356 241 3 0 27 18 52 41 26 23 74 57 106 76 68
39 186 125 186 134 0 3 52 41 115 84 64 43 118 82 121 86 9 15 31 10 38 -7z
m756 -214 c32 -65 80 -329 85 -466 5 -128 4 -132 -17 -137 -18 -5 -19 -8 -8
-22 19 -22 149 -86 265 -130 55 -20 143 -57 195 -82 52 -25 127 -56 165 -69
39 -13 93 -34 121 -45 l51 -22 -37 -39 -38 -39 -69 38 c-37 20 -95 54 -127 75
-33 21 -65 38 -73 38 -22 0 -197 85 -212 103 -16 20 -31 13 -31 -13 0 -17 -3
-18 -27 -8 -37 15 -134 75 -186 115 -23 18 -103 73 -177 124 -74 50 -155 109
-180 130 -25 22 -81 65 -126 97 -198 140 -254 185 -242 197 12 13 46 -6 94
-52 27 -25 92 -67 144 -95 52 -27 106 -59 120 -72 14 -12 60 -44 103 -70 42
-26 100 -65 128 -88 28 -22 54 -37 57 -33 4 4 -6 18 -23 31 -16 13 -39 33 -50
43 -11 10 -36 28 -55 42 -19 13 -42 30 -50 38 -26 25 -274 184 -349 224 -54
29 -71 42 -71 59 0 26 27 58 49 58 18 0 76 20 106 36 79 43 448 70 465 34z
m-1604 -196 c6 -49 4 -58 -15 -77 l-22 -22 -20 25 c-23 29 -20 82 7 111 29 32
42 23 50 -37z m-46 -296 c52 -12 99 -25 104 -29 6 -5 5 -18 -2 -34 -14 -31
-45 -33 -105 -7 -23 10 -75 31 -114 47 -40 15 -73 31 -73 35 0 24 38 22 190
-12z m-842 -135 c0 -76 -4 -108 -19 -142 -19 -44 -24 -71 -13 -71 3 0 26 17
51 37 60 50 129 140 142 189 19 69 31 75 31 16 0 -39 -6 -61 -22 -83 -13 -17
-23 -45 -23 -62 0 -30 -7 -36 -105 -94 -58 -35 -108 -63 -111 -63 -11 0 -49
97 -49 123 0 31 101 247 115 247 1 0 3 -44 3 -97z m3637 17 c-9 -33 -14 -37
-25 -20 -11 18 -13 64 -3 74 13 13 34 -28 28 -54z m-3841 13 c34 -68 28 -170
-14 -208 -18 -17 -21 -17 -52 2 -30 18 -33 24 -32 64 1 25 11 63 23 84 12 22
21 44 21 50 0 13 20 35 32 35 4 0 14 -12 22 -27z m506 -23 c-9 -52 -32 -85
-71 -104 -39 -19 -39 -19 -39 -3 0 6 23 39 50 72 28 33 50 63 50 67 0 5 4 8 9
8 4 0 5 -18 1 -40z m307 13 c2 -6 -20 -24 -48 -40 -43 -23 -49 -29 -31 -31 12
-2 38 6 56 18 46 28 52 14 26 -65 -24 -72 -40 -80 -97 -50 -15 8 -40 17 -55
20 -23 4 -28 11 -27 33 1 46 13 62 74 97 59 34 95 41 102 18z m-1596 -124 l17
-44 -34 -40 c-33 -38 -35 -39 -49 -22 -23 31 -28 90 -11 131 13 31 18 35 38
27 15 -5 29 -24 39 -52z m1382 45 c7 -7 -5 -16 -159 -118 -49 -32 -107 -73
-129 -91 -37 -30 -183 -105 -204 -105 -8 0 -21 23 -21 38 0 4 22 20 48 35 26
16 97 58 157 94 113 68 272 151 291 152 6 1 14 -2 17 -5z m382 -26 c25 -17 45
-35 45 -38 0 -10 -42 -46 -89 -75 -39 -24 -45 -25 -59 -11 -13 13 -14 20 -2
56 13 41 46 100 55 100 2 0 25 -14 50 -32z m-1916 -78 c23 -17 45 -38 48 -46
7 -19 -44 -74 -69 -74 -26 0 -48 40 -55 99 -5 46 -4 51 14 51 11 0 39 -14 62
-30z m5550 -26 c11 -14 29 -45 41 -69 11 -23 32 -56 47 -71 14 -15 32 -43 39
-61 20 -46 44 -44 44 4 0 35 30 83 53 83 10 0 123 66 148 87 49 41 48 -19 -2
-122 -76 -159 -82 -165 -185 -195 -54 -16 -68 -7 -59 36 5 27 3 34 -10 34 -8
0 -20 -11 -25 -24 -16 -44 -31 -42 -80 11 -26 28 -54 66 -63 85 -9 18 -43 61
-75 95 l-60 61 37 -10 c20 -6 49 -17 64 -25 34 -17 51 -9 37 17 -14 25 -13 63
2 78 17 17 24 15 47 -14z m184 -34 c8 -56 -2 -78 -47 -102 -25 -13 -46 12 -46
55 0 32 55 110 74 104 6 -2 14 -28 19 -57z m-894 23 c47 -31 53 -46 14 -37
-42 10 -95 64 -64 64 5 0 28 -12 50 -27z m-3827 -42 c11 -29 17 -55 14 -59 -6
-6 -93 36 -101 48 -6 10 47 71 57 68 6 -2 19 -28 30 -57z m4010 27 c-9 -9 -12
-7 -12 12 0 19 3 21 12 12 9 -9 9 -15 0 -24z m-4768 6 c9 -3 16 -14 16 -24 0
-20 -54 -70 -75 -70 -7 0 -20 -2 -28 -6 -19 -7 -33 72 -16 92 12 14 74 19 103
8z m196 -4 c0 -5 -4 -10 -10 -10 -5 0 -10 5 -10 10 0 6 5 10 10 10 6 0 10 -4
10 -10z m-990 -44 c-5 -14 -7 -46 -4 -70 7 -46 -13 -244 -26 -261 -4 -5 -15
-36 -25 -67 -28 -91 -42 -92 -47 -6 -6 85 4 108 35 81 20 -17 20 -17 13 1 -28
78 -28 191 1 245 7 15 13 31 13 36 0 15 40 78 46 73 2 -3 0 -17 -6 -32z m200
24 c0 -19 -78 -216 -101 -255 -34 -56 -101 -147 -106 -142 -10 11 33 106 62
138 20 22 40 60 50 95 24 86 66 174 81 174 8 0 14 -4 14 -10z m961 -85 c-21
-38 -45 -89 -52 -113 -11 -37 -20 -47 -63 -69 -39 -20 -67 -27 -116 -27 l-65
-1 -3 49 c-3 48 13 85 69 151 9 11 19 33 23 48 4 16 11 25 17 21 7 -4 10 -39
7 -94 -1 -49 0 -91 4 -95 9 -10 25 24 33 73 5 29 14 46 28 53 12 6 36 24 52
39 17 15 43 35 60 43 47 24 49 1 6 -78z m4274 35 c66 -17 130 -37 143 -46 24
-16 122 -160 122 -181 0 -7 -4 -13 -9 -13 -12 0 -91 87 -91 100 0 5 -16 10
-35 10 -42 0 -186 73 -199 102 -6 11 -27 28 -48 39 -21 11 -38 24 -38 30 0 6
6 6 18 0 10 -5 72 -24 137 -41z m-4780 10 c19 -21 18 -22 -28 -68 -52 -51 -67
-48 -67 13 0 65 56 98 95 55z m4615 -65 c0 -19 -24 -20 -39 -2 -6 8 -14 29
-17 48 l-6 34 31 -33 c17 -18 31 -39 31 -47z m-3765 31 l30 -13 -42 -26 c-23
-14 -44 -31 -48 -37 -9 -15 18 -12 41 5 28 21 34 18 34 -15 0 -25 -8 -34 -52
-61 -29 -16 -82 -51 -118 -76 -36 -25 -83 -56 -105 -68 -88 -48 -166 -95 -207
-123 -35 -24 -47 -27 -65 -19 -37 16 -27 32 42 72 36 21 65 42 65 47 0 13 -7
10 -92 -39 -74 -42 -83 -45 -111 -35 -33 13 -62 0 -53 -24 6 -16 -18 -37 -38
-32 -12 2 -10 14 12 65 46 106 57 116 139 123 104 10 163 44 348 201 96 81
133 90 220 55z m-692 -151 c-11 -37 -29 -41 -71 -15 -40 24 -73 77 -70 109 2
18 10 24 33 26 17 2 41 7 55 12 23 9 25 7 43 -46 14 -40 16 -64 10 -86z m4604
71 c52 -26 54 -64 6 -139 l-23 -37 -35 18 c-34 17 -115 104 -115 123 0 18 15
8 56 -36 22 -25 49 -45 59 -45 15 0 10 9 -23 43 -85 87 -38 132 75 73z m-167
-102 c25 -25 62 -54 82 -65 20 -10 39 -23 43 -28 7 -12 -16 -51 -30 -51 -29 0
-265 118 -265 132 0 12 90 56 115 57 6 1 31 -20 55 -45z m-4880 -23 c0 -27 -7
-44 -25 -61 -25 -23 -33 -50 -16 -50 5 0 27 20 48 43 21 24 52 51 70 60 32 17
103 23 103 10 0 -5 -24 -21 -53 -36 -30 -15 -69 -41 -88 -57 l-34 -29 35 1
c19 1 53 1 75 0 69 -3 21 -31 -77 -44 -90 -12 -128 -7 -110 15 5 6 12 44 14
84 2 52 9 77 22 92 25 27 36 18 36 -28z m5281 -13 c32 -34 65 -82 75 -107 9
-24 37 -64 62 -88 24 -24 42 -47 38 -50 -3 -3 -14 1 -23 10 -10 8 -41 24 -69
35 -78 31 -242 121 -248 137 -2 7 8 30 25 51 16 20 29 41 29 46 0 7 31 25 49
27 2 1 30 -27 62 -61z m-4143 -76 c0 -48 5 -107 12 -131 13 -49 5 -65 -41 -76
-47 -11 -58 12 -52 112 5 73 10 97 35 141 16 29 33 50 38 47 5 -3 8 -45 8 -93z
m-683 64 c17 -12 16 -16 -19 -75 -39 -63 -50 -70 -80 -48 -18 13 -18 15 -1 48
27 53 55 89 69 89 7 0 21 -6 31 -14z m-85 -10 c0 -8 -9 -24 -20 -37 -17 -21
-19 -22 -20 -6 0 23 18 57 30 57 6 0 10 -6 10 -14z m5181 -102 c10 -9 19 -22
19 -29 0 -20 77 -129 124 -175 25 -24 46 -47 46 -51 0 -4 -10 -9 -22 -13 -16
-4 -28 1 -38 14 -14 17 -51 38 -152 85 -21 9 -38 21 -38 26 0 12 0 12 50 -6
55 -20 84 -19 48 1 -16 8 -28 20 -28 27 0 7 -12 20 -28 29 -38 23 -94 102 -81
115 14 14 75 0 100 -23z m-431 3 c25 -13 59 -31 75 -40 17 -9 61 -28 100 -43
38 -15 83 -36 100 -49 16 -12 59 -34 95 -50 36 -15 76 -37 90 -50 47 -41 99
-65 129 -59 25 5 32 2 45 -23 12 -25 24 -32 72 -41 70 -14 249 -101 235 -115
-6 -6 -46 8 -109 37 -55 25 -149 62 -208 82 -60 20 -131 46 -159 59 -83 37
-255 115 -345 155 -47 21 -112 54 -144 74 -79 48 -95 71 -53 79 12 2 24 5 27
5 3 1 25 -9 50 -21z m305 -7 c3 -5 1 -10 -4 -10 -6 0 -11 5 -11 10 0 6 2 10 4
10 3 0 8 -4 11 -10z m895 -17 c0 -18 -54 -143 -62 -143 -12 0 -10 68 3 93 22
42 59 73 59 50z m-6825 -72 c-4 -31 -13 -69 -20 -86 -13 -28 -13 -24 -9 45 5
86 11 113 26 104 6 -4 7 -27 3 -63z m888 43 c3 -4 2 -15 -4 -25 -13 -26 -69
-26 -69 -1 0 10 3 22 7 25 8 9 58 9 66 1z m-850 -59 c-3 -9 -8 -14 -10 -11 -3
3 -2 9 2 15 9 16 15 13 8 -4z m42 -43 c-12 -48 -17 -59 -65 -143 -24 -42 -25
-43 -28 -18 -2 16 15 65 42 124 48 102 73 120 51 37z m1010 28 c0 -17 -68 -45
-90 -37 -18 8 -20 43 -2 50 26 11 92 2 92 -13z m-252 -6 c11 -12 -13 -44 -33
-44 -25 0 -35 17 -20 35 13 15 42 20 53 9z m121 -40 c24 -24 19 -42 -16 -60
-64 -33 -244 -144 -322 -198 -44 -31 -82 -53 -85 -51 -2 3 12 22 32 43 20 20
42 51 49 69 14 32 77 83 102 83 8 0 19 7 27 16 19 23 69 46 85 40 9 -4 19 4
27 21 6 14 25 32 42 39 39 17 41 17 59 -2z m5961 -92 c-15 -27 -48 -71 -73
-98 l-47 -49 -3 34 c-2 22 3 40 16 55 10 11 27 35 36 51 10 17 34 42 54 57 48
34 53 17 17 -50z m-6529 -44 c-8 -18 -23 -45 -33 -60 -29 -46 -4 -46 35 0 48
55 70 56 42 2 -11 -21 -20 -50 -20 -63 0 -17 -11 -28 -45 -45 -58 -28 -69 -28
-94 4 -41 52 -19 126 64 211 l60 62 3 -39 c2 -21 -4 -53 -12 -72z m-781 61 c4
-5 -4 -27 -18 -47 -14 -20 -28 -48 -32 -62 -5 -14 -37 -55 -73 -92 -82 -85
-92 -81 -85 35 5 79 23 134 23 70 0 -39 25 -64 35 -34 3 12 10 21 15 21 5 0
18 17 30 38 11 20 35 47 53 59 37 25 43 27 52 12z m1942 -11 c-3 -8 -6 -5 -6
6 -1 11 2 17 5 13 3 -3 4 -12 1 -19z m5724 -77 c-12 -22 -31 -28 -31 -10 0 23
22 51 32 41 7 -7 6 -17 -1 -31z m-6691 22 c0 -15 -16 -30 -64 -63 -28 -19 -45
-35 -38 -38 6 -2 25 6 41 17 41 30 59 26 30 -5 -27 -29 -119 -79 -119 -65 0 5
6 14 14 20 8 7 12 21 9 31 -8 30 23 69 70 91 46 20 57 23 57 12z m481 -19 c10
-13 10 -17 0 -24 -18 -10 -51 -1 -51 15 0 12 13 22 31 24 4 1 12 -6 20 -15z
m5084 -15 c46 -17 77 -42 181 -146 128 -127 174 -163 208 -163 32 0 96 -22 90
-31 -21 -35 -294 46 -378 112 -28 22 -176 224 -176 240 0 13 14 11 75 -12z
m-6237 -65 c-35 -51 -42 -41 -11 19 19 37 28 47 31 34 2 -10 -7 -34 -20 -53z
m6580 -91 c46 -50 88 -121 77 -131 -11 -12 -93 39 -122 76 -59 74 -66 102 -26
102 19 0 39 -14 71 -47z m-5918 -11 c0 -21 -156 -87 -166 -70 -10 16 10 29 83
53 78 27 83 28 83 17z m6292 -76 c38 -14 76 -30 85 -35 10 -5 63 -26 118 -46
153 -58 245 -98 245 -108 0 -15 -81 2 -116 23 -17 11 -41 20 -53 20 -13 0 -73
25 -136 55 -62 30 -117 55 -121 55 -5 0 -20 9 -34 20 -14 11 -33 20 -43 20
-22 0 -107 40 -107 50 0 8 17 2 162 -54z m-6472 46 c0 -16 -83 -64 -90 -52 -4
7 -18 5 -44 -5 -65 -27 -59 -10 14 39 34 24 120 36 120 18z m5776 -27 c9 -14
14 -31 11 -40 -6 -14 -53 -32 -62 -24 -2 3 -1 23 2 47 6 48 24 55 49 17z m964
-45 c7 -16 9 -37 6 -46 -6 -15 -9 -14 -31 6 -24 23 -32 50 -18 63 14 15 31 6
43 -23z m-360 -50 c0 -6 -8 -10 -17 -10 -27 0 -83 38 -83 55 0 12 9 11 50 -10
28 -14 50 -30 50 -35z m-6715 20 c9 -15 -152 -106 -175 -98 -19 6 24 73 60 90
38 19 105 24 115 8z m6285 -45 c0 -2 -11 -21 -25 -41 -14 -20 -25 -51 -25 -69
0 -46 -22 -62 -56 -40 -24 15 -26 21 -20 59 3 22 9 59 12 81 9 68 9 68 64 40
27 -14 50 -27 50 -30z m498 35 c24 -23 29 -40 10 -40 -14 0 -58 40 -58 52 0
15 26 8 48 -12z m-6688 -13 c0 -19 -159 -129 -182 -125 -36 6 -23 22 51 64 40
23 80 49 89 58 20 19 42 21 42 3z m6030 -31 c0 -56 -47 -151 -76 -151 -10 0
-19 6 -18 13 1 6 2 32 3 57 1 36 8 52 37 85 20 22 40 40 45 40 5 0 9 -20 9
-44z m-5970 30 c0 -2 -7 -9 -15 -16 -12 -10 -15 -10 -15 4 0 9 7 16 15 16 8 0
15 -2 15 -4z m-696 -44 c-9 -16 -25 -39 -36 -53 l-19 -24 6 25 c6 21 52 80 62
80 2 0 -3 -13 -13 -28z m8152 -40 c-10 -9 -66 50 -59 61 3 6 19 -4 35 -22 16
-18 27 -36 24 -39z m-886 29 c0 -14 -52 -61 -67 -61 -15 0 -10 33 9 58 12 14
58 17 58 3z m-107 -7 c5 -5 -56 -127 -74 -148 -5 -6 -17 -2 -29 9 -15 14 -20
31 -20 70 0 28 5 56 12 63 12 12 100 17 111 6z m-305 -87 c3 -74 -9 -103 -22
-54 -11 43 -7 139 7 135 8 -3 13 -31 15 -81z m766 48 c14 -11 16 -15 5 -15
-28 0 -59 12 -53 21 8 13 26 11 48 -6z m-7314 -3 c0 -7 -55 -47 -186 -132
-128 -84 -176 -112 -182 -106 -8 9 165 183 200 202 53 28 168 53 168 36z m84
-38 c27 -10 18 -33 -19 -48 -19 -8 -50 -26 -68 -40 -36 -27 -223 -111 -272
-121 l-30 -7 25 21 c14 12 50 34 80 49 30 15 66 35 80 44 36 22 184 108 186
108 1 0 9 -3 18 -6z m7576 -25 c66 -34 405 -177 495 -208 50 -18 105 -41 123
-52 18 -10 39 -19 46 -19 7 0 33 -14 59 -31 37 -24 52 -29 80 -24 31 6 38 2
82 -44 27 -28 55 -51 63 -51 12 0 12 3 2 15 -24 29 19 30 76 2 50 -25 73 -57
39 -57 -9 0 -12 -6 -9 -15 5 -12 18 -14 58 -10 44 5 62 1 131 -30 44 -20 114
-50 155 -66 303 -120 491 -209 440 -209 -8 0 -62 7 -120 14 -114 16 -202 46
-366 127 -55 27 -108 49 -118 49 -9 0 -39 16 -67 35 -28 19 -56 35 -61 35 -5
0 -22 9 -37 19 -15 11 -56 29 -91 41 -36 11 -89 32 -118 46 -29 13 -55 24 -59
24 -3 0 -74 31 -157 69 -83 37 -180 81 -216 96 -36 15 -78 35 -95 45 -16 10
-44 21 -62 25 -18 3 -43 15 -56 25 -37 29 -184 86 -271 105 -62 14 -86 15
-115 7 -28 -9 -47 -8 -85 3 -66 20 -105 19 -141 -5 -16 -11 -40 -20 -53 -20
-13 0 -36 -7 -52 -15 -17 -9 -30 -11 -30 -6 0 19 53 51 120 72 63 21 74 21
137 10 61 -11 74 -11 128 7 64 21 90 19 145 -9z m-780 -52 c0 -8 -9 -22 -20
-32 -22 -20 -27 -7 -10 26 12 22 30 25 30 6z m320 -178 c0 -26 2 -29 20 -19
31 17 54 -29 59 -118 3 -72 3 -74 -30 -108 -27 -28 -40 -34 -76 -34 -34 0 -43
4 -43 18 0 29 25 90 45 112 19 21 19 22 1 32 -12 7 -16 17 -12 33 8 30 -10 43
-19 14 -5 -14 -10 -18 -17 -11 -7 7 -3 26 11 58 32 71 61 82 61 23z m-7482 -1
c-6 -19 -139 -61 -152 -48 -15 15 -2 22 72 41 84 22 85 22 80 7z m-118 -118
c0 -11 -9 -17 -150 -108 -138 -89 -405 -242 -424 -242 -3 0 -6 7 -8 16 -3 14
-7 13 -29 -5 -54 -42 -41 13 15 61 17 15 35 27 40 28 5 0 28 18 52 40 24 22
51 40 59 40 18 0 95 49 95 61 0 10 155 85 193 94 41 8 28 -7 -51 -60 -37 -25
-108 -73 -159 -108 -51 -34 -100 -67 -110 -73 -10 -7 -15 -15 -11 -19 8 -9 92
38 206 114 125 83 265 171 274 171 4 0 8 -4 8 -10z m7491 -103 c-16 -16 -26 0
-10 19 9 11 15 12 17 4 2 -6 -1 -17 -7 -23z m1293 7 c38 -7 74 -19 80 -25 8
-9 5 -10 -14 -5 -41 11 -239 28 -327 28 -81 -1 -115 13 -50 20 60 7 242 -4
311 -18z m827 -14 c18 -15 20 -19 8 -20 -9 0 -24 9 -34 20 -23 26 -4 26 26 0z
m-1292 -36 c-19 -18 -89 -30 -116 -20 -30 12 24 35 82 36 45 0 48 -1 34 -16z
m1381 -59 c16 -24 30 -48 30 -54 0 -22 -16 -10 -41 32 -52 84 -44 102 11 22z"/>
<path d="M5062 6108 c-63 -49 -54 -66 16 -29 31 16 66 32 77 36 16 5 17 8 5
15 -27 17 -56 11 -98 -22z"/>
<path d="M5134 6008 c-48 -25 -70 -31 -117 -30 -55 1 -58 0 -55 -21 5 -38 62
-34 142 8 37 20 84 39 103 43 46 10 56 32 15 32 -17 0 -56 -14 -88 -32z"/>
<path d="M5454 5846 c-3 -8 5 -29 18 -46 28 -39 38 -18 13 29 -17 35 -23 38
-31 17z"/>
<path d="M5860 5428 c0 -18 107 -42 129 -28 10 6 10 9 1 15 -18 11 -130 22
-130 13z"/>
<path d="M5635 5200 c-8 -14 13 -40 32 -40 20 0 12 44 -9 48 -9 2 -19 -2 -23
-8z"/>
<path d="M5716 5061 c-9 -14 4 -40 26 -52 32 -17 42 3 18 34 -22 28 -35 33
-44 18z"/>
<path d="M5810 4895 c0 -18 7 -26 25 -31 35 -9 39 -2 14 29 -26 34 -39 34 -39
2z"/>
<path d="M6670 3190 c0 -5 7 -10 15 -10 8 0 15 5 15 10 0 6 -7 10 -15 10 -8 0
-15 -4 -15 -10z"/>
<path d="M3850 2728 c-50 -23 -215 -122 -242 -146 -10 -8 -18 -19 -18 -24 0
-18 26 -5 94 46 39 30 105 70 147 89 72 33 107 58 77 56 -7 0 -33 -10 -58 -21z"/>
<path d="M8308 2784 c-5 -4 -8 -16 -8 -28 0 -14 3 -17 11 -9 6 6 9 19 7 28 -1
9 -6 13 -10 9z"/>
<path d="M7556 2441 c-8 -12 18 -21 58 -21 42 0 120 -40 124 -63 3 -16 1 -17
-16 -8 -55 30 -227 4 -278 -41 -11 -10 -24 -18 -28 -18 -25 0 -106 -90 -106
-117 0 -18 40 -16 96 3 53 18 61 15 41 -18 -9 -12 -20 -57 -27 -98 -6 -41 -18
-86 -26 -99 -11 -15 -13 -26 -6 -33 13 -13 28 -3 89 62 50 54 67 90 102 218
10 35 19 46 46 58 45 19 45 19 45 -16 0 -41 14 -38 43 10 32 53 80 89 112 82
32 -6 32 13 1 51 -15 18 -41 33 -77 42 -60 16 -185 20 -193 6z m112 -107 c30
-8 13 -30 -31 -40 -18 -3 -59 -19 -92 -34 -80 -36 -135 -54 -143 -45 -8 8 55
66 90 82 95 43 126 50 176 37z"/>
<path d="M7925 1968 c-114 -75 -131 -99 -90 -122 11 -6 37 -21 57 -33 22 -13
44 -20 54 -16 12 4 15 3 10 -5 -5 -8 3 -12 27 -12 19 0 54 -7 77 -15 33 -12
51 -13 82 -4 32 8 44 7 64 -6 14 -9 28 -23 31 -31 5 -13 43 -21 43 -9 0 3 -11
28 -25 55 -13 26 -30 81 -36 122 -12 75 -32 128 -49 128 -5 0 -6 -38 -3 -90 6
-97 1 -106 -37 -65 -18 19 -26 22 -37 14 -11 -10 -10 -18 7 -47 12 -19 19 -36
17 -39 -9 -9 -94 37 -121 66 -34 36 -63 40 -68 11 -2 -12 -7 -21 -13 -21 -13
0 -19 46 -8 65 11 20 113 96 129 96 6 0 14 7 18 15 10 28 -19 15 -129 -57z"/>
<path d="M3331 1918 c-20 -53 -22 -85 -7 -98 9 -7 22 -10 29 -7 7 3 24 -3 37
-13 16 -12 34 -16 56 -13 17 3 41 0 53 -7 45 -23 31 0 -36 63 -42 41 -72 62
-77 56 -16 -15 -26 -11 -26 10 0 30 -19 35 -29 9z"/>
<path d="M3490 1883 c1 -38 32 -73 65 -73 15 0 25 4 23 9 -4 12 -77 91 -83 91
-3 0 -5 -12 -5 -27z"/>
<path d="M3562 1893 c4 -20 55 -49 66 -38 8 8 -43 55 -59 55 -6 0 -9 -8 -7
-17z"/>
<path d="M2366 1352 c-8 -24 16 -103 44 -141 35 -51 41 -25 9 42 -16 34 -29
72 -29 84 0 28 -17 39 -24 15z"/>
<path d="M2420 1337 c1 -19 37 -94 50 -102 23 -14 23 6 0 55 -22 46 -50 74
-50 47z"/>
<path d="M2325 1320 c-9 -15 6 -113 21 -137 17 -28 50 -32 39 -5 -17 41 -35
109 -35 130 0 22 -14 30 -25 12z"/>
<path d="M11405 746 c-80 -38 -117 -71 -137 -124 -10 -26 -18 -57 -18 -69 0
-21 -5 -23 -52 -23 -49 -1 -51 -2 -34 -15 54 -41 156 22 197 121 l22 52 62 7
c35 3 96 3 137 0 68 -7 72 -6 57 10 -17 18 -139 65 -167 65 -9 0 -39 -11 -67
-24z"/>
<path d="M11710 671 c-16 -39 -54 -64 -110 -71 -32 -3 -46 -10 -48 -22 -8 -42
128 -7 177 46 13 14 21 33 19 47 -5 34 -24 34 -38 0z"/>
<path d="M205 470 c3 -5 8 -10 11 -10 2 0 4 5 4 10 0 6 -5 10 -11 10 -5 0 -7
-4 -4 -10z"/>
<path d="M137 452 c-20 -22 -22 -52 -4 -52 19 0 47 33 47 53 0 22 -23 22 -43
-1z"/>
<path d="M10835 271 c-10 -17 38 -41 80 -40 32 0 36 2 19 9 -12 4 -24 15 -27
24 -7 17 -62 22 -72 7z"/>
<path d="M6403 263 c-21 -8 -15 -21 10 -21 12 -1 54 -4 93 -8 43 -4 78 -2 89
4 13 7 28 6 51 -4 18 -8 46 -11 62 -8 35 7 51 -11 30 -32 -17 -17 -266 -21
-673 -10 -521 13 -1354 12 -1445 -2 -47 -7 -137 -20 -200 -28 -63 -9 -146 -22
-184 -30 -38 -8 -85 -14 -105 -14 -21 0 -46 -7 -57 -15 -24 -18 -16 -18 87 -1
249 43 432 58 704 57 228 -1 271 -4 278 -16 6 -11 18 -13 48 -9 32 5 39 4 39
-10 0 -14 12 -15 98 -10 141 8 504 24 527 23 11 0 195 -3 409 -5 284 -2 406 0
450 9 34 7 75 9 91 6 17 -4 118 -7 225 -8 107 -1 326 -6 485 -12 276 -9 1883
-20 1820 -11 -60 7 -50 22 16 22 35 0 139 2 232 5 109 3 167 2 167 -5 0 -5 -9
-10 -20 -10 -11 0 -20 -4 -20 -8 0 -15 93 -32 190 -36 310 -13 409 -20 441
-32 31 -10 39 -10 53 4 15 15 31 15 213 0 109 -9 266 -16 349 -17 135 0 154 2
168 18 16 17 15 19 -5 24 -27 7 -15 27 17 27 19 0 25 5 22 17 -3 15 -16 18
-93 20 -50 1 -134 8 -187 14 -87 11 -99 10 -123 -5 -44 -29 -21 -38 81 -31
116 9 204 0 204 -21 0 -9 -5 -12 -12 -8 -6 4 -95 7 -197 6 -102 -1 -193 3
-201 8 -11 7 -1 10 33 10 26 0 47 5 47 10 0 6 -33 10 -78 10 -58 0 -84 -4
-102 -17 -22 -16 -49 -18 -211 -16 -103 1 -213 6 -245 12 -32 6 -100 11 -151
11 -57 0 -93 4 -93 10 0 6 23 9 60 7 42 -3 61 0 64 10 4 10 -17 13 -102 14
-134 2 -1073 0 -1323 -2 -122 -1 -192 2 -206 10 -28 14 -33 14 -33 -3 0 -12
-34 -14 -205 -14 -113 1 -205 5 -205 9 0 14 40 21 83 14 29 -5 39 -4 32 3 -15
16 -157 15 -182 -1 -8 -5 -13 -4 -13 2 0 6 -9 11 -20 11 -14 0 -20 -6 -18 -17
2 -14 -5 -19 -37 -21 l-40 -2 23 18 c23 18 18 18 -205 20 -125 1 -263 5 -305
8 -55 5 -78 3 -78 -5 0 -6 18 -11 43 -11 56 0 117 -11 117 -20 0 -5 -53 -9
-117 -9 -65 -1 -144 -4 -175 -7 -38 -4 -58 -3 -58 4 0 13 18 19 85 28 126 17
60 34 -104 26 -104 -4 -123 -3 -119 9 4 11 47 15 219 19 130 3 209 8 200 14
-17 11 -283 26 -296 16 -11 -8 -478 -5 -492 3 -4 2 -14 2 -20 0z m1017 -97 c0
-3 -4 -8 -10 -11 -5 -3 -10 -1 -10 4 0 6 5 11 10 11 6 0 10 -2 10 -4z m85 -6
c-3 -5 -17 -10 -31 -10 -13 0 -24 5 -24 10 0 6 14 10 31 10 17 0 28 -4 24 -10z"/>
<path d="M5601 250 c-64 -4 -72 -7 -58 -18 9 -8 22 -10 28 -6 7 4 29 6 50 6
42 -2 91 12 68 19 -8 2 -47 2 -88 -1z"/>
<path d="M11093 253 c-137 -4 -152 -22 -20 -25 96 -2 112 -1 162 6 17 3 33 5
38 5 4 1 7 6 7 11 0 6 -17 9 -37 8 -21 -1 -89 -4 -150 -5z"/>
<path d="M5745 240 c29 -12 114 -12 95 0 -8 5 -37 9 -65 9 -37 0 -45 -3 -30
-9z"/>
<path d="M5910 240 c0 -5 5 -10 10 -10 6 0 10 5 10 10 0 6 -4 10 -10 10 -5 0
-10 -4 -10 -10z"/>
<path d="M5966 240 c18 -16 128 -20 153 -6 23 12 16 14 -68 14 -51 0 -89 -3
-85 -8z"/>
<path d="M6191 240 c14 -4 54 -4 90 0 l64 7 -90 1 c-58 0 -81 -3 -64 -8z"/>
<path d="M7320 241 c0 -13 98 -21 125 -11 41 15 29 20 -50 20 -41 0 -75 -4
-75 -9z"/>
<path d="M8190 184 c0 -10 12 -14 37 -14 42 0 40 7 -6 20 -24 7 -31 6 -31 -6z"/>
<path d="M8105 180 c28 -12 55 -12 55 0 0 6 -17 10 -37 9 -31 0 -34 -2 -18 -9z"/>
<path d="M11456 180 c-55 -3 -91 -9 -93 -17 -7 -20 95 -33 302 -37 110 -2 290
-10 400 -18 204 -13 477 -17 642 -8 l93 5 0 44 c0 41 -1 43 -22 35 -13 -4 -68
-8 -123 -9 -75 -1 -109 -6 -134 -19 -27 -14 -49 -17 -100 -13 -278 22 -346 28
-421 37 -83 10 -364 10 -544 0z"/>
<path d="M11296 165 c4 -8 12 -15 19 -15 7 0 18 7 25 15 11 13 8 15 -18 15
-24 0 -30 -4 -26 -15z"/>
<path d="M9995 150 c3 -5 17 -10 30 -10 13 0 27 5 30 10 4 6 -8 10 -30 10 -22
0 -34 -4 -30 -10z"/>
<path d="M10088 153 c6 -2 18 -2 25 0 6 3 1 5 -13 5 -14 0 -19 -2 -12 -5z"/>
<path d="M895 120 c-3 -5 1 -10 9 -10 8 0 18 5 21 10 3 6 -1 10 -9 10 -8 0
-18 -4 -21 -10z"/>
<path d="M940 120 c0 -6 37 -10 91 -10 57 0 88 4 84 10 -8 13 -175 13 -175 0z"/>
<path d="M4980 120 c0 -5 5 -10 10 -10 6 0 10 5 10 10 0 6 -4 10 -10 10 -5 0
-10 -4 -10 -10z"/>
<path d="M5048 125 c-14 -14 5 -35 31 -34 16 0 20 3 11 6 -8 4 -20 13 -25 20
-6 8 -13 11 -17 8z"/>
<path d="M9430 110 c0 -5 7 -10 15 -10 8 0 15 5 15 10 0 6 -7 10 -15 10 -8 0
-15 -4 -15 -10z"/>
<path d="M9605 110 c3 -5 10 -10 16 -10 5 0 9 5 9 10 0 6 -7 10 -16 10 -8 0
-12 -4 -9 -10z"/>
<path d="M11237 113 c-26 -7 -10 -23 23 -23 33 0 48 15 24 24 -17 6 -19 6 -47
-1z"/>
<path d="M11398 98 c9 -9 15 -9 24 0 9 9 7 12 -12 12 -19 0 -21 -3 -12 -12z"/>
<path d="M11564 99 c-3 -5 15 -9 40 -9 25 0 46 3 46 8 0 10 -79 11 -86 1z"/>
<path d="M4980 80 c0 -5 4 -10 9 -10 6 0 13 5 16 10 3 6 -1 10 -9 10 -9 0 -16
-4 -16 -10z"/>
<path d="M8775 70 c-71 -4 -148 -8 -169 -9 -29 -1 -37 -4 -29 -12 8 -8 74 -8
243 0 128 6 236 8 241 5 5 -3 9 0 9 5 0 7 -25 11 -62 11 -35 0 -72 2 -83 4
-11 1 -78 0 -150 -4z"/>
<path d="M8130 56 c0 -2 7 -6 15 -10 8 -3 15 -1 15 4 0 6 -7 10 -15 10 -8 0
-15 -2 -15 -4z"/>
<path d="M8205 50 c-8 -13 20 -24 36 -15 8 6 7 10 -2 16 -18 11 -26 11 -34 -1z"/>
<path d="M8455 50 l-50 -7 53 -1 c29 -1 52 2 52 8 0 6 -1 9 -2 8 -2 0 -25 -4
-53 -8z"/>
<path d="M9128 53 c7 -3 16 -2 19 1 4 3 -2 6 -13 5 -11 0 -14 -3 -6 -6z"/>
<path d="M9423 31 c-56 -3 -105 -9 -109 -14 -9 -8 197 -10 220 -1 15 6 13 26
-2 22 -4 -1 -53 -4 -109 -7z"/>
<path d="M9638 34 c-20 -19 0 -24 107 -24 70 0 115 4 115 10 0 6 -26 10 -57
10 -32 0 -80 3 -108 6 -27 3 -53 3 -57 -2z"/>
<path d="M10237 28 c-6 -4 15 -7 48 -7 64 1 65 5 2 11 -20 2 -43 0 -50 -4z"/>
<path d="M9598 23 c7 -3 16 -2 19 1 4 3 -2 6 -13 5 -11 0 -14 -3 -6 -6z"/>
<path d="M9903 23 c12 -11 177 -15 177 -3 0 6 -35 10 -92 10 -50 0 -88 -3 -85
-7z"/>
<path d="M10148 23 c6 -2 18 -2 25 0 6 3 1 5 -13 5 -14 0 -19 -2 -12 -5z"/>
<path d="M8780 10 c-19 -12 66 -12 95 0 15 6 7 9 -30 9 -27 0 -57 -4 -65 -9z"/>
<path d="M8955 10 c3 -5 8 -10 11 -10 2 0 4 5 4 10 0 6 -5 10 -11 10 -5 0 -7
-4 -4 -10z"/>
<path d="M9035 10 c-3 -5 3 -10 15 -10 12 0 18 5 15 10 -3 6 -10 10 -15 10 -5
0 -12 -4 -15 -10z"/>
<path d="M9125 10 c-4 -6 8 -10 29 -10 19 0 38 5 41 10 4 6 -8 10 -29 10 -19
0 -38 -4 -41 -10z"/>
</g>
</svg>
