<?xml version="1.0" standalone="no"?>
<!DOCTYPE svg PUBLIC "-//W3C//DTD SVG 20010904//EN"
 "http://www.w3.org/TR/2001/REC-SVG-20010904/DTD/svg10.dtd">
<svg version="1.0" xmlns="http://www.w3.org/2000/svg"
 width="1280.000000pt" height="652.000000pt" viewBox="0 0 1280.000000 652.000000"
 preserveAspectRatio="xMidYMid meet">
<metadata>
Created by potrace 1.15, written by Peter Selinger 2001-2017
</metadata>
<g transform="translate(0.000000,652.000000) scale(0.100000,-0.100000)"
fill="#000000" stroke="none">
<path d="M7142 6502 c-25 -8 -50 -25 -59 -41 -10 -14 -40 -52 -67 -83 -84 -93
-106 -125 -106 -147 0 -11 -5 -20 -11 -18 -13 2 -72 -75 -175 -225 -69 -101
-83 -139 -84 -235 0 -44 5 -58 30 -87 39 -44 87 -60 156 -53 55 6 119 -6 130
-24 12 -20 -29 -102 -87 -171 -33 -39 -60 -78 -60 -87 -1 -9 -3 -38 -4 -64 -1
-26 -5 -51 -9 -54 -18 -18 -73 -6 -301 64 -119 36 -143 57 -67 58 65 0 46 26
-38 52 -93 28 -100 28 -97 1 3 -32 -40 -29 -86 6 -94 72 -296 97 -454 57 -45
-12 -89 -21 -97 -21 -15 0 -95 -36 -171 -77 -62 -33 -172 -108 -219 -150 -40
-36 -55 -43 -89 -43 -40 0 -41 0 -19 -16 26 -18 29 -39 5 -48 -15 -6 -26 3
-37 29 -2 6 -14 0 -26 -12 -23 -21 -23 -21 -67 -2 -50 21 -69 24 -78 9 -4 -6
7 -15 24 -21 41 -15 39 -29 -4 -29 -19 0 -35 -4 -35 -10 0 -5 18 -10 39 -10
59 0 58 -16 -1 -36 -70 -22 -75 -26 -51 -35 12 -4 43 0 78 12 65 21 75 23 75
10 0 -10 -107 -59 -149 -67 -17 -4 -31 -11 -31 -16 0 -9 -84 -52 -105 -54 -5
0 -21 -5 -35 -11 -55 -24 -106 -42 -132 -47 -16 -4 -28 -13 -28 -22 0 -18 42
-12 98 13 26 13 35 13 48 3 12 -11 25 -8 74 15 60 29 84 29 60 0 -27 -32 0
-24 72 24 42 27 78 55 80 63 3 7 9 10 13 6 19 -17 -91 -145 -190 -221 -5 -4
-27 -21 -49 -37 -21 -17 -46 -30 -55 -30 -25 0 -167 63 -236 103 -33 20 -82
58 -110 85 -46 45 -55 50 -110 56 -51 5 -70 3 -122 -19 -104 -42 -199 -29
-266 38 -33 33 -38 44 -33 69 5 27 4 29 -17 21 -33 -11 -70 -8 -107 10 -18 10
-46 17 -62 17 -16 0 -45 7 -64 15 -20 8 -57 14 -82 13 -26 -1 -76 4 -112 12
-47 10 -149 15 -370 15 -343 2 -398 9 -479 59 -108 65 -165 87 -210 80 -28 -5
-41 -12 -41 -23 -1 -13 -3 -13 -15 3 -12 16 -18 17 -28 7 -10 -10 -8 -15 7
-27 11 -8 27 -14 36 -14 22 0 99 -51 135 -89 25 -27 27 -33 15 -41 -8 -5 -26
-10 -40 -10 -85 -3 -166 -13 -175 -21 -20 -20 41 -48 165 -78 69 -16 154 -33
190 -36 78 -8 240 -33 295 -45 22 -5 66 -14 98 -20 60 -12 74 -31 40 -55 -15
-11 -14 -14 9 -37 13 -14 52 -38 86 -54 34 -15 62 -31 62 -35 0 -8 -118 -45
-175 -54 -22 -4 -62 -15 -90 -25 -137 -51 -507 -143 -625 -157 -72 -8 -211
-44 -257 -66 -27 -13 -43 -28 -43 -39 0 -28 18 -30 103 -14 43 8 84 13 91 10
15 -6 307 51 341 66 30 13 246 60 277 60 30 0 209 29 219 36 8 5 159 21 315
34 181 14 245 55 289 181 17 48 12 65 -29 86 -25 14 -28 18 -13 21 11 2 42 -9
70 -24 137 -73 149 -78 231 -84 87 -8 206 10 260 37 37 19 94 11 151 -22 23
-14 49 -25 57 -25 8 0 36 -11 62 -25 25 -14 75 -29 111 -35 35 -6 71 -13 79
-16 30 -12 15 -39 -49 -92 -63 -51 -78 -75 -52 -85 7 -3 5 -6 -5 -6 -10 -1
-18 -5 -18 -10 0 -5 -9 -7 -20 -4 -15 4 -38 -12 -91 -65 l-71 -70 -87 -12
c-47 -7 -127 -20 -177 -31 -126 -26 -307 -28 -404 -5 -101 24 -219 17 -320
-18 -103 -36 -131 -34 -236 17 -49 24 -110 50 -135 56 -84 23 -361 -3 -430
-40 -32 -17 -180 -69 -197 -69 -7 0 -38 -16 -68 -35 -30 -19 -58 -35 -63 -35
-5 0 -27 -18 -50 -40 -23 -23 -79 -60 -124 -83 -104 -54 -223 -133 -242 -160
-24 -35 -4 -42 77 -28 40 8 100 19 133 27 105 24 292 32 390 18 39 -6 115 -41
115 -54 0 -21 -151 -125 -262 -181 -43 -22 -125 -54 -181 -72 -224 -73 -304
-97 -357 -107 -73 -14 -88 -24 -74 -47 13 -20 71 -24 157 -11 39 6 47 5 47 -8
0 -8 -15 -21 -33 -29 -59 -24 -119 -120 -87 -140 13 -8 98 36 190 99 108 72
515 246 580 246 8 0 28 7 44 15 15 8 37 15 47 15 10 0 46 9 78 21 49 16 70 19
117 12 50 -7 59 -11 64 -33 4 -17 15 -26 35 -30 17 -4 40 -12 53 -19 19 -10
22 -9 22 8 0 11 -14 28 -34 40 -77 48 -54 72 104 110 112 26 125 27 136 13 9
-13 17 -14 40 -5 16 6 61 14 99 18 100 9 304 62 345 89 42 29 120 99 120 109
0 17 -23 4 -72 -39 -60 -54 -113 -80 -217 -106 -93 -23 -145 -24 -137 -3 4 11
-2 15 -24 15 -34 0 -35 4 -15 80 17 65 19 83 5 75 -9 -5 -29 -68 -44 -135 -6
-29 -30 -38 -183 -69 -56 -12 -130 -30 -165 -41 -76 -24 -94 -25 -101 -5 -8
20 43 55 90 62 58 9 233 102 195 103 -7 0 -26 -7 -42 -15 -40 -21 -47 -3 -19
50 13 24 20 47 16 52 -11 10 -36 -25 -79 -104 -32 -62 -34 -63 -75 -63 -23 0
-45 -4 -48 -10 -10 -16 -45 -12 -39 4 4 10 -4 13 -33 12 -33 -1 -40 4 -62 37
-23 35 -29 38 -56 32 -64 -14 -120 -12 -145 6 -14 9 -45 22 -69 29 -61 16
-271 13 -361 -5 -41 -8 -97 -19 -125 -24 -27 -5 -58 -12 -67 -16 -14 -5 -18
-2 -18 12 0 28 128 105 260 156 14 5 32 13 40 18 38 21 100 47 160 67 53 18
88 22 190 22 87 0 147 6 197 18 71 18 72 18 150 -5 43 -12 94 -23 113 -24 22
-1 50 -14 74 -32 42 -33 106 -45 171 -33 64 12 36 31 -46 31 -57 0 -74 3 -74
14 0 18 4 20 170 90 77 32 163 61 190 65 69 9 203 -11 238 -36 24 -17 34 -18
80 -9 29 5 93 13 142 16 50 4 130 16 179 26 97 21 146 24 146 10 0 -7 -156
-61 -372 -128 -82 -25 -70 -32 101 -53 46 -5 106 -10 132 -10 47 0 70 -13 53
-30 -5 -5 -83 -11 -173 -14 l-164 -5 -33 -36 -33 -36 27 -11 c15 -7 47 -26 72
-44 25 -17 50 -33 55 -35 6 -2 36 -20 68 -39 63 -38 68 -52 42 -114 -14 -32
-14 -36 0 -36 8 0 15 7 15 16 0 9 13 33 29 53 51 65 81 141 36 91 -26 -28 -56
-25 -105 13 -48 36 -48 36 -110 67 -60 31 -70 39 -70 60 0 21 36 30 134 31 39
0 97 4 129 8 54 7 57 6 57 -14 0 -12 -5 -26 -11 -32 -6 -6 -9 -17 -7 -23 2 -6
15 5 28 26 28 43 73 65 92 46 9 -9 1 -23 -37 -62 -27 -27 -46 -53 -42 -56 4
-4 37 24 75 63 65 67 99 93 121 93 6 0 11 -5 11 -10 0 -21 -124 -177 -214
-270 -94 -96 -124 -120 -150 -120 -8 0 -31 -25 -52 -55 -20 -31 -59 -81 -88
-111 -53 -58 -61 -77 -35 -82 10 -2 32 23 63 72 26 41 68 93 94 116 26 23 66
60 89 83 23 23 45 38 49 35 3 -4 -14 -38 -40 -76 -25 -38 -48 -77 -51 -88 -9
-29 43 35 90 110 63 100 126 185 173 231 23 23 42 47 42 54 0 6 9 11 20 11 11
0 20 -2 20 -4 0 -4 -47 -82 -203 -336 -22 -36 -57 -90 -77 -120 -55 -82 -113
-190 -106 -197 8 -8 6 -10 46 60 18 32 47 77 64 100 18 23 35 50 38 59 6 15
22 40 78 124 8 12 51 79 95 149 89 141 129 194 140 183 10 -9 -55 -135 -110
-213 -23 -33 -55 -82 -70 -110 -16 -27 -49 -81 -73 -120 -138 -218 -126 -197
-168 -285 -20 -41 -38 -91 -41 -110 -3 -19 -18 -63 -34 -98 -16 -34 -29 -64
-29 -67 0 -2 -14 -27 -30 -55 -35 -59 -42 -101 -10 -60 11 14 20 31 20 38 0 8
8 26 19 40 10 15 28 45 39 67 11 22 38 63 61 90 30 37 39 55 35 72 -5 19 -2
23 19 23 20 0 36 15 76 72 55 77 68 70 24 -15 -32 -63 -100 -228 -115 -277 -5
-19 -14 -39 -19 -45 -5 -5 -9 -18 -9 -29 0 -10 -11 -43 -25 -73 -14 -29 -30
-79 -36 -111 -6 -31 -32 -106 -59 -167 -26 -60 -51 -118 -54 -128 -3 -10 -12
-17 -19 -15 -11 4 -80 104 -175 255 -52 83 -135 154 -214 184 -51 19 -71 21
-148 16 -84 -6 -92 -9 -153 -51 -83 -59 -122 -113 -113 -159 6 -31 3 -37 -26
-58 -18 -13 -50 -33 -72 -44 -37 -19 -55 -40 -42 -52 3 -3 31 4 62 16 53 20
74 20 74 1 0 -5 -16 -17 -35 -26 -35 -16 -60 -46 -48 -57 3 -4 14 -2 24 4 11
5 63 14 117 20 53 5 111 12 129 15 27 5 37 1 63 -24 24 -24 29 -37 24 -56 -10
-43 16 -277 42 -370 29 -101 43 -216 26 -216 -6 0 -10 -28 -9 -72 0 -40 -5
-98 -12 -128 -20 -89 -51 -189 -60 -195 -5 -3 -38 -8 -73 -11 -75 -7 -144 -36
-153 -63 -11 -36 -70 -77 -181 -126 -132 -58 -336 -131 -424 -152 -36 -8 -111
-26 -166 -39 -128 -30 -199 -62 -244 -109 -19 -20 -53 -44 -76 -54 -22 -10
-61 -34 -86 -53 -49 -37 -103 -54 -278 -84 -52 -8 -111 -23 -130 -31 -36 -16
-143 -47 -218 -63 -48 -11 -142 -68 -142 -87 0 -17 -2 -17 56 10 52 25 101 42
224 78 41 12 102 30 134 40 33 11 89 19 126 19 36 0 71 5 76 10 6 6 39 15 75
21 92 14 239 87 281 140 18 23 49 49 68 59 51 26 166 58 235 66 33 4 71 13 85
20 14 8 77 32 140 55 63 22 146 52 184 65 37 14 103 42 145 63 42 21 92 44
111 51 19 8 51 23 70 35 19 12 52 27 72 34 20 7 42 19 48 27 20 23 36 16 55
-26 14 -31 17 -54 12 -105 -7 -71 3 -83 28 -35 20 39 20 153 -1 184 -15 24
-14 25 30 55 25 17 59 34 75 37 34 7 38 2 65 -96 9 -30 24 -84 35 -120 18 -60
18 -66 3 -83 -20 -23 -125 -81 -173 -96 -20 -6 -56 -25 -82 -40 -78 -50 -248
-105 -429 -140 -58 -11 -119 -26 -135 -34 -15 -8 -62 -22 -103 -31 -102 -24
-194 -70 -346 -172 -107 -72 -133 -85 -158 -81 -25 4 -41 -3 -81 -33 -65 -50
-131 -72 -225 -74 -45 -2 -91 -10 -115 -20 -22 -10 -69 -27 -105 -38 -56 -17
-154 -62 -265 -121 -16 -9 -77 -39 -135 -68 -125 -61 -127 -63 -110 -85 19
-22 70 -13 113 20 18 14 55 35 83 47 27 12 72 36 99 54 58 36 56 35 200 87 71
26 146 45 210 53 111 14 224 51 260 85 18 17 30 20 54 15 34 -7 83 21 257 147
50 36 108 67 151 82 38 13 78 28 89 34 10 6 47 18 82 28 35 10 65 21 68 26 3
4 20 8 38 8 42 0 220 36 246 50 10 5 34 10 52 10 18 0 50 9 71 20 20 11 42 20
48 20 6 0 38 16 71 36 33 20 87 50 121 66 33 16 86 47 118 69 l58 39 18 -28
c11 -15 24 -40 31 -56 10 -23 15 -26 27 -16 10 9 15 32 15 74 0 69 5 80 38 90
27 9 52 -8 52 -34 0 -10 6 -23 14 -29 10 -9 12 -37 9 -123 -6 -140 9 -218 50
-264 24 -28 32 -32 48 -24 14 8 19 22 19 50 0 37 28 127 50 160 9 12 16 9 43
-22 17 -20 42 -51 55 -67 26 -35 62 -41 83 -14 22 26 16 148 -9 206 -11 26
-24 47 -28 47 -6 0 2 -92 12 -135 3 -11 -1 -28 -9 -39 -12 -17 -16 -17 -43 -3
-36 19 -77 62 -98 105 -28 55 -39 43 -50 -57 -4 -42 -31 -92 -50 -95 -19 -2
-28 70 -21 169 9 156 6 237 -11 256 -8 9 -19 29 -23 45 -8 31 -31 45 -31 19 0
-23 -22 -13 -37 16 -26 51 -61 136 -73 174 -7 22 -23 65 -35 95 -23 54 -49
151 -66 240 -11 61 -36 329 -39 415 -2 69 -5 85 -18 85 -4 0 -5 -125 -3 -277
7 -485 7 -486 -6 -490 -7 -3 -14 13 -18 44 -3 26 -15 75 -25 108 -24 74 -64
238 -80 325 -6 36 -15 83 -20 105 -20 90 -21 177 -4 232 15 49 20 54 40 49 13
-3 25 -2 28 3 10 16 -23 34 -51 28 -20 -4 -39 2 -65 20 -34 23 -42 24 -80 15
-60 -15 -178 -26 -178 -17 0 4 19 24 42 44 45 40 45 66 2 55 l-26 -7 7 59 c9
70 34 116 78 142 45 27 148 46 204 38 62 -8 159 -56 200 -98 47 -48 173 -248
173 -273 0 -33 63 -240 105 -346 21 -51 44 -121 51 -154 8 -33 20 -85 28 -115
37 -135 58 -242 53 -262 -11 -41 13 -249 33 -287 11 -20 22 -48 24 -62 3 -15
15 -37 27 -50 l20 -24 -6 35 c-14 73 -17 115 -10 108 11 -10 53 -114 60 -150
10 -43 23 -34 41 29 12 40 14 71 9 107 -15 104 -18 97 66 133 43 18 103 38
135 44 37 6 65 18 76 30 17 20 17 20 33 -11 18 -34 17 -34 65 -20 57 18 201
40 257 40 47 0 325 82 375 110 30 17 35 12 42 -48 8 -70 27 -153 39 -169 5 -7
34 -13 65 -15 l57 -3 6 -70 c4 -38 12 -88 18 -110 16 -58 13 -118 -10 -220
-12 -49 -25 -109 -30 -132 -9 -48 -57 -147 -118 -248 -50 -83 -59 -116 -36
-135 30 -25 90 21 210 161 41 48 85 107 85 113 0 2 14 28 32 56 31 50 33 51
69 45 41 -7 95 11 128 44 19 19 19 22 5 57 -9 20 -13 46 -10 58 3 11 -2 28
-11 38 -17 20 -53 180 -46 208 3 10 0 21 -6 24 -6 4 -11 30 -11 57 0 51 17 95
44 118 24 20 20 70 -14 183 -37 124 -36 126 81 139 46 5 118 16 159 24 41 9
107 20 145 26 171 25 281 66 334 123 14 14 30 26 36 26 16 0 70 -135 84 -210
7 -36 21 -94 33 -130 15 -49 20 -96 21 -190 2 -122 2 -125 27 -137 40 -20 163
-16 207 6 35 18 43 18 113 5 58 -10 85 -11 121 -2 39 9 58 8 110 -6 96 -27
216 -11 267 36 41 39 23 67 -53 83 -16 3 -64 21 -105 40 -41 18 -119 43 -172
55 -132 30 -175 58 -213 141 -19 42 -29 81 -29 114 -1 47 1 50 27 53 43 5 48
29 27 113 -11 41 -17 81 -15 89 6 19 130 61 143 48 5 -5 36 -11 69 -12 33 -2
64 -5 69 -9 5 -3 54 -10 109 -17 101 -11 116 -16 252 -92 34 -18 45 -20 54
-11 10 10 9 16 -7 27 -10 8 -16 18 -12 21 8 8 196 -8 288 -24 30 -6 81 -14
112 -20 32 -5 70 -18 85 -29 15 -11 39 -23 53 -27 14 -4 61 -26 105 -49 44
-22 90 -45 102 -51 11 -5 43 -21 70 -33 120 -59 285 -102 389 -102 39 0 115 9
170 21 73 15 148 22 287 25 173 4 191 3 227 -16 22 -11 50 -20 64 -20 13 0 43
-16 66 -35 23 -19 72 -49 108 -67 73 -35 82 -35 287 -24 120 7 142 4 305 -36
25 -6 81 -32 125 -56 199 -112 463 -244 495 -249 19 -2 55 -13 80 -23 25 -9
117 -27 205 -39 88 -12 180 -28 205 -36 56 -17 244 -38 270 -30 10 3 22 16 26
27 6 20 8 20 19 5 16 -22 44 -22 52 0 3 10 15 30 25 45 24 34 25 91 1 86 -11
-2 -22 -24 -33 -63 -9 -32 -19 -54 -23 -48 -4 7 -34 10 -74 8 -82 -3 -424 29
-473 44 -19 6 -47 11 -62 11 -44 0 -235 66 -363 126 -27 12 -81 37 -118 53
-38 17 -87 46 -110 65 -52 41 -101 67 -209 106 -82 31 -86 31 -263 30 -99 0
-198 -1 -220 -2 -49 -1 -96 17 -155 61 -48 35 -69 46 -217 107 -24 9 -43 23
-43 30 0 16 77 70 86 61 4 -3 23 2 43 12 59 30 114 34 323 20 226 -15 202 -1
213 -118 7 -67 39 -146 55 -136 6 4 10 12 10 18 0 7 25 62 55 123 l55 111 83
17 c45 9 102 21 126 27 24 5 44 8 45 7 33 -54 78 -93 153 -133 l87 -46 85 7
c47 4 113 15 146 25 33 10 85 19 115 19 94 0 206 40 273 96 20 17 41 24 70 24
57 0 196 69 257 128 38 37 52 59 65 107 9 33 18 65 20 70 7 25 293 70 510 82
83 4 159 7 170 6 38 -5 209 -3 214 2 30 31 -184 49 -404 35 -202 -14 -306 -26
-375 -45 -30 -8 -70 -18 -88 -22 -31 -5 -33 -4 -30 17 2 19 16 27 73 45 72 22
246 45 347 45 57 0 84 14 52 27 -9 3 -60 1 -113 -6 -53 -7 -112 -14 -131 -15
-19 -2 -73 -10 -119 -19 -116 -23 -129 -22 -143 11 -20 46 -39 62 -74 62 -18
0 -64 16 -103 35 -38 19 -77 35 -86 35 -33 0 -26 30 20 87 45 56 132 130 185
158 37 19 230 17 230 -2 0 -42 -83 -107 -162 -126 -43 -11 -33 -26 10 -16 55
12 282 117 282 130 0 4 21 12 48 18 26 7 83 29 127 51 143 69 303 124 484 164
69 16 97 35 88 60 -8 20 -39 21 -75 2 -15 -7 -79 -31 -142 -51 -121 -39 -135
-45 -292 -119 -53 -25 -105 -46 -115 -46 -20 0 -41 28 -53 71 -7 23 -3 36 23
70 74 99 102 142 185 293 13 22 43 61 67 86 24 25 54 67 65 93 24 54 71 127
95 147 20 17 65 107 65 131 0 10 -7 19 -15 19 -24 0 -85 -28 -85 -39 0 -6 -21
-24 -47 -42 -25 -18 -55 -41 -66 -52 -35 -35 -140 -111 -278 -202 -74 -49
-167 -113 -207 -143 -74 -55 -182 -180 -182 -211 0 -16 -51 -70 -118 -124 -20
-16 -46 -27 -65 -27 -18 -1 -43 -7 -57 -15 -14 -8 -42 -14 -63 -15 -24 0 -43
-7 -54 -20 -10 -11 -22 -20 -28 -20 -18 0 -95 -140 -95 -174 0 -12 7 -34 15
-50 36 -69 15 -81 -135 -78 -118 3 -183 -10 -220 -43 -14 -13 -43 -29 -65 -36
-22 -7 -51 -23 -65 -35 -14 -12 -47 -36 -74 -53 -27 -16 -57 -44 -67 -61 -11
-17 -27 -33 -37 -37 -29 -10 -72 -56 -72 -77 0 -12 -7 -39 -14 -61 -14 -41
-32 -52 -88 -54 -34 -1 -36 15 -5 48 13 15 39 61 57 103 31 72 33 81 27 159
-12 183 48 358 148 427 57 39 63 61 20 74 -16 5 -48 17 -70 27 -152 71 -149
70 -194 46 -18 -9 -35 -30 -45 -56 -9 -23 -41 -70 -70 -104 -71 -84 -106 -149
-146 -270 -18 -55 -38 -111 -45 -125 -26 -52 -86 -254 -83 -279 4 -26 4 -25
20 9 9 19 29 73 43 120 15 47 49 139 75 205 26 66 50 134 54 150 4 17 38 73
76 125 39 52 77 113 86 137 22 57 67 76 133 56 25 -7 57 -22 71 -33 14 -11 36
-25 49 -30 22 -10 23 -12 9 -26 -8 -8 -30 -23 -49 -32 -27 -14 -39 -31 -65
-93 -33 -80 -44 -147 -50 -292 -3 -99 -22 -167 -60 -218 -13 -18 -29 -52 -35
-74 -12 -46 -32 -65 -67 -65 -26 0 -26 0 -6 95 7 30 7 30 -14 11 -12 -10 -29
-38 -38 -61 -16 -43 -16 -43 -77 -49 -34 -4 -89 -6 -122 -5 -100 1 -500 -34
-565 -51 -19 -5 -73 -16 -120 -25 -47 -9 -103 -22 -125 -30 -38 -14 -135 -41
-255 -71 -30 -8 -94 -19 -142 -25 -82 -10 -92 -9 -210 21 -203 51 -277 79
-328 124 -49 44 -107 69 -236 102 -93 23 -150 44 -195 71 l-64 38 -150 6 c-82
3 -157 9 -166 13 -10 4 -20 3 -23 -3 -4 -6 9 -13 31 -16 21 -4 53 -11 71 -17
18 -5 48 -7 66 -4 61 12 161 -9 211 -44 48 -33 152 -74 220 -85 59 -10 124
-33 154 -54 74 -53 310 -145 449 -176 62 -14 85 -15 150 -5 42 6 104 15 137
20 33 5 80 16 105 25 39 14 128 38 280 76 25 6 68 17 95 25 28 8 70 16 95 18
25 3 88 9 140 15 172 19 533 31 547 19 9 -7 13 -28 11 -57 l-3 -46 -45 -7
c-41 -7 -47 -6 -65 17 -26 31 -31 31 -39 0 -6 -24 -10 -25 -84 -25 -42 0 -138
7 -212 15 -173 18 -159 21 -389 -89 -102 -49 -106 -50 -230 -57 -69 -5 -164
-16 -211 -26 -123 -25 -306 -20 -397 12 -37 13 -104 35 -148 50 -44 16 -93 38
-110 49 -25 19 -99 54 -205 98 -14 6 -41 19 -60 28 -57 29 -172 61 -210 59
-20 -2 -41 0 -48 5 -7 4 -15 5 -19 3 -8 -5 -181 7 -261 17 -45 6 -164 70 -213
115 -36 32 -28 49 27 58 21 3 42 10 45 16 4 5 46 22 94 37 48 16 94 35 103 43
27 23 181 117 192 117 6 0 29 13 52 30 22 17 47 30 54 30 17 0 217 76 264 100
64 33 414 203 490 238 41 19 151 63 243 98 204 77 267 110 355 184 37 31 121
99 187 152 124 99 203 176 271 263 21 28 104 115 184 195 80 80 156 165 170
188 41 72 177 260 212 295 18 18 100 103 182 190 144 153 212 211 326 277 30
17 110 86 177 153 67 66 125 118 129 114 20 -19 -1 -447 -26 -547 -22 -89 -51
-330 -49 -415 1 -33 -2 -76 -6 -95 -5 -29 -2 -39 18 -58 29 -27 54 -21 69 17
18 48 48 234 48 300 0 42 5 70 15 81 16 17 45 226 45 322 0 82 24 79 38 -4 4
-23 14 -44 21 -46 10 -3 12 0 7 14 -5 11 -21 71 -36 134 -15 63 -35 136 -43
162 -9 26 -19 76 -23 111 -6 62 -5 67 21 93 l28 28 12 -25 c7 -13 16 -64 20
-114 3 -50 17 -123 31 -165 30 -90 74 -182 92 -188 20 -6 14 33 -8 53 -11 10
-20 25 -20 33 0 7 -6 26 -14 40 -22 43 -46 154 -56 260 -11 120 -1 143 83 187
31 17 80 43 109 59 74 39 189 80 283 100 143 30 227 60 510 182 55 24 135 57
178 74 43 17 97 40 120 52 23 12 67 29 97 38 55 16 69 34 40 53 -12 7 -62 -11
-195 -68 -99 -42 -192 -86 -208 -97 -16 -12 -40 -22 -53 -24 -14 -1 -73 -25
-132 -52 -59 -28 -134 -58 -167 -67 -33 -10 -85 -26 -116 -36 -31 -11 -65 -19
-75 -19 -40 -1 -218 -70 -294 -114 -44 -26 -103 -55 -131 -67 l-52 -20 7 98
c4 54 4 95 0 91 -4 -5 -13 -3 -20 3 -11 9 -7 21 16 63 17 29 30 64 30 77 l-1
24 -17 -21 c-9 -12 -22 -30 -28 -40 -10 -17 -13 -14 -23 24 -22 80 -61 64 -81
-34 -21 -100 -43 -59 -40 74 1 48 -1 110 -5 139 -12 79 -4 92 83 151 100 66
133 69 193 15 l42 -38 -6 -95 c-3 -54 -14 -128 -27 -168 -19 -65 -26 -77 -66
-105 -41 -29 -55 -47 -35 -47 4 0 43 23 86 51 43 29 137 78 209 109 72 32 166
74 208 93 43 20 112 48 155 63 43 14 82 30 88 35 5 5 22 9 38 9 25 0 53 9 157
52 14 6 45 22 70 35 150 80 320 156 369 165 68 12 86 21 86 39 0 11 -17 14
-71 13 -67 0 -78 -4 -205 -68 -147 -73 -192 -98 -211 -114 -28 -23 -169 -92
-188 -92 -11 0 -28 -4 -38 -9 -22 -11 -78 -30 -117 -41 -41 -11 -122 -46 -154
-68 -14 -10 -66 -35 -116 -56 -146 -62 -134 -59 -145 -30 -6 14 -15 22 -20 19
-6 -4 -8 -10 -5 -15 3 -5 1 -11 -5 -15 -5 -3 -10 -14 -10 -23 0 -17 -56 -59
-66 -50 -2 3 3 25 12 49 28 76 43 152 44 212 0 54 -3 60 -41 102 -70 76 -138
80 -239 15 l-49 -32 -40 23 c-44 24 -28 25 -266 -15 -82 -14 -159 -30 -170
-36 -11 -5 -42 -18 -70 -28 -83 -31 -187 -111 -244 -186 -59 -78 -127 -206
-151 -286 -19 -66 -28 -69 -200 -80 -63 -4 -151 -14 -195 -24 -180 -38 -313
-68 -370 -84 -76 -20 -195 -72 -195 -84 0 -6 8 -7 18 -3 9 3 69 15 132 26 137
23 212 37 260 49 19 5 62 12 95 15 33 4 116 20 184 36 85 21 137 28 162 24 29
-5 39 -3 47 11 6 12 16 15 28 10 16 -6 1 -25 -94 -114 -96 -91 -129 -132 -107
-132 2 0 35 22 72 48 85 60 208 110 304 123 81 12 91 16 69 29 -18 11 -19 10
55 49 66 34 202 134 248 181 16 17 33 30 38 30 11 0 52 60 46 67 -4 3 -39 -25
-79 -62 -107 -98 -349 -255 -394 -255 -6 0 -34 -11 -61 -24 -64 -32 -103 -41
-103 -23 0 8 9 22 21 33 11 10 49 59 84 109 35 49 82 108 104 130 36 35 54 75
34 75 -13 0 -103 -81 -103 -92 0 -15 -40 -68 -51 -68 -15 0 -10 17 16 56 14
20 25 46 25 58 0 34 44 117 93 177 68 83 206 156 367 193 133 30 304 43 317
23 4 -7 9 -50 9 -97 4 -231 19 -345 49 -370 38 -31 4 -63 -85 -78 -115 -20
-361 -160 -653 -371 -151 -109 -718 -694 -695 -717 8 -7 121 108 187 190 29
36 60 66 67 66 8 0 14 4 14 9 0 5 80 89 178 185 167 165 326 300 428 363 25
15 66 42 92 59 165 108 308 177 418 202 l39 9 -3 -71 c-2 -39 -5 -76 -7 -82
-1 -5 -30 -21 -63 -34 -33 -13 -58 -28 -56 -32 3 -4 27 1 55 11 48 19 50 19
47 1 -2 -10 -64 -75 -138 -145 -98 -93 -153 -136 -199 -159 -35 -17 -85 -49
-110 -71 -90 -78 -388 -386 -425 -437 -20 -29 -48 -69 -61 -88 -14 -19 -33
-48 -42 -63 -59 -96 -138 -189 -204 -242 -41 -33 -87 -73 -104 -90 -54 -54
-214 -183 -404 -325 -78 -59 -164 -107 -212 -120 -22 -6 -39 -15 -39 -20 0
-12 0 -12 41 1 63 20 164 68 210 100 14 10 29 16 32 13 17 -18 -229 -223 -260
-216 -8 2 -17 -6 -20 -17 -5 -19 -58 -47 -138 -71 -22 -6 -95 -39 -163 -73
-119 -60 -124 -62 -205 -63 -45 0 -97 -4 -114 -8 -22 -5 -33 -4 -33 3 0 6 -16
11 -35 11 -33 0 -72 -16 -271 -111 -44 -22 -87 -39 -95 -39 -22 0 -132 -55
-148 -73 -7 -10 -17 -17 -22 -17 -17 0 -131 -74 -120 -78 7 -2 60 19 118 47
57 28 109 51 115 51 6 0 37 16 70 36 80 49 297 144 303 134 7 -11 0 -15 -110
-70 -149 -76 -310 -168 -330 -190 -18 -19 -18 -20 3 -20 12 0 22 -4 22 -10 0
-5 -5 -10 -11 -10 -7 0 -17 -7 -23 -16 -7 -9 -58 -31 -115 -49 -57 -19 -130
-50 -161 -69 -32 -20 -62 -36 -67 -36 -5 0 -9 35 -8 77 0 74 1 77 25 83 l25 6
-1 156 -1 157 31 12 c17 7 51 25 76 40 63 38 334 180 460 240 187 90 465 198
477 185 3 -3 17 4 31 14 13 11 29 20 35 20 18 0 192 89 238 122 93 66 136 103
167 145 18 24 39 43 46 43 8 0 31 22 52 50 21 27 42 50 47 50 5 0 46 33 90 73
44 39 121 104 170 142 50 39 93 77 95 85 3 10 -4 7 -20 -7 -13 -13 -29 -23
-35 -23 -25 0 -296 -238 -482 -421 -20 -20 -50 -43 -67 -52 -62 -32 -300 -75
-467 -84 -109 -6 -119 -4 -193 22 -54 20 -93 42 -124 70 -25 23 -58 50 -73 60
-40 26 -34 68 16 109 35 28 46 31 105 31 40 0 84 -7 110 -18 60 -24 101 -21
189 14 151 60 250 88 408 114 129 21 164 24 187 14 20 -8 35 -9 56 -1 15 6 38
12 52 14 31 4 33 22 3 26 -28 4 -29 12 -2 46 22 28 48 33 80 15 11 -6 25 -8
32 -6 7 3 -7 13 -30 23 -41 18 -54 36 -33 49 5 3 23 -1 39 -10 17 -8 45 -15
63 -15 30 1 29 2 -20 19 -64 22 -66 24 -53 50 16 29 67 53 99 47 40 -8 96 7
100 27 4 20 -4 21 -88 3 -36 -8 -67 -12 -69 -10 -6 5 20 63 46 101 14 21 21
39 15 45 -17 17 -39 -3 -67 -63 -16 -33 -36 -65 -44 -73 -16 -14 -61 -27 -96
-28 -45 -1 -246 -31 -334 -49 -133 -27 -217 -22 -255 17 -20 19 -2 64 26 64
10 0 18 5 18 10 0 6 -6 10 -14 10 -20 0 -68 -59 -64 -79 2 -9 23 -26 48 -39
40 -21 54 -23 125 -17 44 3 134 16 200 30 66 13 150 27 188 30 58 6 67 5 67
-9 0 -9 -6 -16 -12 -16 -13 0 -313 -148 -397 -195 -49 -28 -112 -33 -187 -14
-37 10 -45 15 -41 30 6 23 -9 24 -59 3 -60 -25 -170 -36 -236 -23 -55 11 -58
10 -113 -21 -62 -35 -86 -32 -42 5 34 30 35 45 2 45 -14 0 -25 2 -25 4 0 3 16
31 35 64 41 71 114 153 159 181 32 20 127 52 193 66 17 3 38 17 47 30 8 13 41
35 73 50 141 66 319 93 600 91 84 -1 153 2 153 7 0 10 13 8 -150 13 -154 5
-320 -8 -435 -33 -86 -19 -224 -74 -285 -113 -25 -15 -81 -41 -125 -56 -52
-17 -95 -40 -122 -64 -46 -40 -121 -137 -148 -191 -20 -39 -51 -68 -112 -105
-64 -39 -52 -49 17 -14 33 16 64 30 70 30 15 0 12 -27 -6 -56 -9 -13 -14 -27
-11 -30 3 -3 43 15 88 40 l83 47 74 -12 c58 -9 87 -9 141 1 37 7 85 10 107 6
21 -3 67 -9 102 -12 61 -7 79 -19 45 -30 -43 -14 -133 -48 -184 -70 -66 -28
-93 -30 -143 -9 -20 9 -69 20 -107 25 -68 8 -73 7 -122 -22 -29 -17 -65 -40
-81 -51 -17 -12 -54 -24 -86 -28 -31 -3 -65 -9 -76 -13 -38 -12 -244 188 -244
237 0 7 9 18 19 24 12 8 17 19 14 31 -6 25 121 277 150 297 28 20 12 49 -28
53 -27 3 -28 2 -22 -31 4 -25 -1 -45 -18 -75 -13 -22 -28 -56 -34 -75 -6 -19
-22 -44 -36 -57 l-24 -22 -15 37 c-9 21 -16 56 -16 79 0 50 -9 86 -22 86 -5 0
-8 -14 -6 -32 2 -17 -2 -33 -8 -35 -17 -6 -214 176 -257 236 -32 44 -34 51
-18 51 23 0 196 -83 222 -106 9 -8 20 -26 23 -40 4 -13 13 -24 21 -24 14 0 14
3 0 23 -17 27 -12 37 16 30 12 -3 27 -22 36 -44 15 -39 33 -52 33 -25 0 24 18
28 50 11 31 -16 32 -16 28 7 -2 14 -11 24 -23 26 -52 8 -64 14 -83 44 -34 53
-7 65 56 23 20 -13 53 -28 72 -31 24 -5 3 9 -65 45 -55 28 -107 60 -115 69 -8
10 -30 36 -48 57 -27 33 -34 37 -42 25 -8 -12 -20 -5 -66 41 -31 31 -55 62
-53 68 2 6 27 -11 54 -39 28 -27 54 -50 59 -50 13 0 -23 52 -52 76 -16 13 -23
27 -19 37 7 19 72 49 187 87 47 15 114 39 150 53 116 44 227 65 372 70 95 4
143 10 160 20 12 8 35 17 51 21 15 4 27 11 27 16 0 6 7 10 16 10 15 0 193 101
226 128 25 21 48 8 48 -28 0 -36 25 -89 43 -91 75 -8 140 6 251 52 65 28 135
63 155 79 20 15 97 56 171 89 74 34 160 79 190 101 146 105 453 300 489 311
42 13 58 35 19 26 -13 -2 -84 -27 -158 -55 -74 -27 -173 -64 -220 -81 -47 -17
-105 -40 -130 -50 -39 -17 -268 -105 -386 -150 -32 -11 -51 -13 -80 -6 -22 6
-38 14 -38 19 1 6 25 22 54 38 28 15 66 36 83 47 107 65 285 146 354 162 24 5
79 29 121 54 86 50 263 116 391 146 89 22 125 40 142 71 19 35 -4 45 -122 53
-127 8 -140 17 -91 68 36 38 92 126 92 144 0 33 -47 9 -240 -126 -47 -33 -111
-82 -142 -109 -60 -52 -90 -66 -173 -77 -27 -4 -102 -22 -165 -40 -214 -62
-331 -86 -478 -99 -81 -7 -151 -9 -156 -5 -6 5 23 23 65 43 153 70 439 206
554 263 66 33 143 68 171 77 132 43 99 71 -38 31 -86 -24 -246 -83 -343 -125
-50 -22 -321 -106 -565 -175 -213 -60 -276 -83 -321 -116 -56 -42 -141 -130
-136 -142 2 -7 19 -11 42 -9 36 3 95 -14 95 -27 0 -3 -37 -23 -83 -44 -45 -20
-119 -64 -165 -96 -45 -33 -99 -65 -120 -71 -20 -7 -76 -33 -125 -59 -78 -41
-90 -51 -112 -95 -14 -28 -25 -64 -25 -82 0 -28 -12 -44 -91 -116 -134 -123
-120 -121 -231 -35 -53 42 -138 96 -198 126 -104 52 -140 76 -140 93 0 5 22
33 49 61 26 29 60 72 75 96 23 36 41 49 104 78 117 52 121 54 171 101 72 68
98 77 133 45 16 -14 44 -18 149 -21 128 -4 130 -4 192 26 34 17 79 45 99 62
43 35 118 131 147 187 16 32 96 143 147 206 8 9 14 21 14 26 0 5 4 11 9 13 14
5 119 136 136 169 10 18 11 30 5 34 -12 8 -21 2 -115 -81 -38 -33 -80 -66 -93
-73 -13 -7 -59 -41 -102 -76 -96 -78 -118 -89 -206 -111 -82 -20 -131 -44
-176 -83 -28 -24 -45 -30 -111 -36 -42 -4 -77 -4 -77 0 0 42 171 203 339 319
144 99 252 186 328 263 59 61 74 83 55 83 -10 0 -157 -94 -217 -138 -22 -17
-64 -44 -94 -61 -29 -18 -69 -43 -89 -56 -19 -13 -39 -22 -43 -19 -7 4 40 84
108 182 18 26 52 77 77 113 24 36 63 87 85 113 41 48 50 66 31 66 -12 0 -110
-89 -110 -100 0 -4 -32 -41 -71 -81 -39 -41 -104 -115 -145 -165 -69 -86 -158
-174 -178 -174 -4 0 -34 -22 -65 -48 -31 -27 -78 -63 -104 -81 -45 -30 -53
-33 -99 -27 -31 4 -55 3 -63 -4 -8 -6 -29 -10 -47 -8 -33 3 -33 3 -35 58 -1
30 -7 74 -14 97 -6 23 -9 50 -5 59 4 11 -3 25 -20 41 -21 20 -25 31 -22 61 3
20 -2 56 -11 79 -14 41 -14 44 11 100 14 32 31 76 38 98 7 22 23 57 36 77 13
20 20 39 16 41 -4 2 -26 -3 -50 -11z m-32 -88 c0 -9 -11 -37 -24 -63 -13 -25
-28 -68 -35 -94 -10 -44 -9 -52 10 -84 17 -28 20 -43 15 -81 -5 -41 -3 -49 16
-64 21 -15 22 -19 10 -62 -17 -64 -15 -94 6 -105 14 -7 18 -18 14 -40 -3 -25
1 -32 25 -45 27 -13 33 -13 59 1 21 11 46 13 90 9 60 -5 63 -4 132 42 165 111
233 165 284 230 100 124 138 175 138 183 0 5 7 9 15 9 8 0 15 -3 15 -7 0 -6
-60 -97 -141 -213 -17 -25 -45 -60 -62 -77 -17 -18 -29 -35 -26 -37 10 -10
110 46 263 148 88 58 164 106 169 106 22 0 -34 -46 -153 -128 -205 -141 -274
-196 -365 -288 -47 -48 -105 -126 -105 -142 0 -14 2 -14 92 -12 90 2 119 11
175 57 53 43 92 59 179 73 43 7 69 19 111 52 94 74 187 138 201 138 8 0 -4
-24 -28 -57 -23 -32 -72 -103 -108 -158 -95 -146 -121 -178 -193 -235 -102
-82 -127 -92 -202 -80 -34 5 -83 10 -108 10 -31 0 -62 9 -93 26 -45 25 -53 26
-158 22 -107 -4 -112 -6 -135 -32 -27 -31 -23 -48 4 -24 18 15 68 21 111 12
l23 -5 -31 -44 c-25 -36 -46 -52 -107 -80 -92 -43 -101 -50 -170 -142 -30 -40
-58 -73 -63 -73 -5 0 -12 12 -16 28 -11 53 -12 54 -34 42 -42 -23 -57 -5 -64
73 -8 87 15 168 65 225 38 42 68 107 69 143 0 48 -31 64 -140 67 -89 3 -101 6
-130 30 -34 30 -57 100 -41 130 4 9 11 33 15 52 3 19 31 71 61 115 31 44 72
105 92 135 54 82 102 138 124 145 10 4 19 13 19 21 0 25 29 74 72 120 43 47
58 54 58 28z m2850 -483 c0 -5 -16 -28 -35 -52 -78 -92 -70 -104 80 -111 164
-9 160 -15 -65 -87 -85 -28 -199 -73 -252 -100 -53 -28 -134 -62 -180 -77 -91
-29 -193 -78 -333 -159 -149 -86 -157 -88 -214 -76 -34 7 -67 7 -101 1 -61
-11 -66 -15 -81 -42 -9 -16 -8 -19 3 -12 25 16 83 34 112 34 16 0 58 -16 94
-36 58 -32 70 -36 116 -31 28 3 112 30 186 60 74 31 203 80 285 110 83 30 167
62 188 71 66 29 39 -2 -65 -74 -57 -38 -139 -95 -183 -125 -44 -30 -129 -75
-188 -99 -59 -25 -131 -62 -158 -82 -46 -33 -214 -101 -296 -118 -40 -9 -73
20 -73 65 0 43 -16 69 -55 85 -64 26 -218 12 -247 -24 -11 -13 -10 -15 12 -8
14 4 58 9 98 13 60 5 72 3 72 -9 0 -17 -81 -68 -177 -113 -35 -16 -63 -32 -63
-37 0 -4 -11 -8 -24 -8 -13 0 -40 -7 -59 -15 -39 -16 -200 -20 -247 -6 -17 5
-46 0 -90 -17 -146 -55 -226 -82 -241 -82 -9 0 -42 21 -73 47 l-56 47 0 68 c0
61 3 71 31 102 32 37 129 81 158 72 16 -6 62 23 170 106 86 67 209 124 333
154 90 22 107 30 117 51 13 29 97 69 167 78 27 3 72 11 99 16 28 5 100 13 160
19 143 12 240 31 346 68 134 46 296 84 329 77 21 -5 38 0 67 19 21 14 61 30
88 36 72 16 115 30 115 40 0 4 -24 2 -52 -6 -62 -16 -83 -5 -47 26 47 40 212
149 227 150 1 0 2 -4 2 -9z m-749 -95 c-7 -8 -49 -29 -94 -48 -45 -18 -138
-61 -206 -95 -69 -35 -130 -63 -136 -63 -6 0 -34 -11 -61 -25 -27 -14 -83 -37
-124 -51 -106 -37 -158 -70 -178 -113 -16 -34 -20 -36 -62 -35 -25 0 -71 8
-102 18 -44 13 -58 21 -58 36 0 49 236 150 510 216 75 18 189 57 350 120 140
56 182 66 161 40z m-3106 -420 c99 -42 156 -113 196 -245 12 -40 32 -61 45
-48 3 3 7 22 9 43 5 54 16 60 69 40 56 -21 63 -32 40 -57 -20 -22 -20 -22 29
-43 36 -14 47 -41 19 -41 -28 0 -10 -21 30 -36 32 -11 73 -45 156 -129 62 -62
111 -115 109 -117 -6 -5 -79 23 -122 48 -41 23 -52 31 -93 69 -39 36 -38 12 1
-28 34 -35 47 -63 30 -62 -5 1 -28 18 -52 40 -51 44 -74 43 -36 -2 14 -16 25
-33 25 -37 0 -4 15 -15 34 -23 47 -23 101 -73 139 -127 41 -61 43 -63 106
-124 29 -28 87 -97 128 -152 42 -55 80 -102 86 -104 6 -2 4 8 -6 22 -24 37
-21 49 6 26 50 -43 165 -122 209 -145 25 -13 73 -47 105 -77 32 -29 88 -79
126 -111 58 -50 67 -63 67 -92 0 -45 -12 -49 -46 -13 -16 17 -55 49 -86 71
-35 25 -73 63 -95 97 -52 79 -83 116 -83 97 0 -8 5 -27 12 -41 6 -14 8 -28 5
-31 -9 -10 -75 41 -124 95 -23 25 -42 40 -43 34 0 -19 -25 -15 -45 7 -10 11
-23 20 -28 20 -6 0 -51 28 -101 61 -102 70 -220 178 -242 225 -15 32 -59 63
-71 50 -4 -3 14 -28 38 -54 25 -26 74 -83 109 -127 35 -44 105 -123 155 -175
50 -52 131 -135 178 -185 48 -49 87 -85 87 -79 0 6 -17 29 -37 52 -61 65 -112
125 -129 152 -10 14 -28 37 -42 53 -14 15 -23 27 -19 27 23 0 80 -33 132 -77
33 -27 87 -68 120 -90 62 -42 159 -138 234 -230 24 -29 49 -53 58 -53 11 0 10
6 -6 29 -20 28 -28 61 -15 61 6 0 120 -116 202 -205 51 -56 55 -43 8 23 -51
70 -34 81 44 29 72 -47 110 -95 110 -138 0 -26 -3 -29 -35 -29 -26 0 -39 6
-52 27 l-17 26 -6 -24 c-5 -20 -11 -24 -41 -21 -19 2 -64 12 -100 23 -37 10
-74 17 -82 13 -19 -7 -97 52 -97 73 0 17 32 2 67 -30 19 -17 25 -18 38 -7 12
10 21 10 40 2 14 -7 25 -8 25 -3 0 5 -15 14 -32 21 -78 29 -108 44 -124 61
-21 23 -34 24 -34 4 0 -23 -34 -18 -73 13 -157 119 -210 166 -373 324 -101 99
-184 177 -184 173 0 -29 472 -505 501 -505 5 0 9 -4 9 -10 0 -22 -35 -8 -101
41 -38 29 -69 56 -69 61 0 5 -8 12 -18 16 -24 10 -299 249 -392 342 -41 41
-118 121 -170 178 -52 56 -101 102 -109 102 -7 0 28 -43 78 -96 120 -125 161
-179 218 -280 45 -81 93 -140 93 -116 0 7 -12 30 -26 52 -15 22 -24 43 -21 47
4 3 30 -15 59 -41 29 -25 82 -70 118 -100 78 -64 106 -94 96 -103 -9 -9 -107
42 -164 85 -71 54 -61 28 16 -46 92 -88 96 -109 14 -77 -41 17 -173 154 -249
261 -24 32 -61 79 -83 104 l-41 45 31 -62 c35 -73 37 -95 11 -131 -10 -15 -26
-44 -34 -64 -9 -21 -19 -38 -22 -38 -18 0 -66 33 -76 53 -18 32 -59 204 -59
243 0 18 -5 36 -12 40 -8 5 -9 -9 -5 -56 l7 -63 -21 19 c-19 17 -18 13 7 -51
34 -88 39 -125 21 -150 -13 -16 -13 -24 0 -60 11 -32 12 -56 3 -125 -19 -157
-8 -579 21 -795 19 -146 21 -138 -39 -154 -29 -8 -55 -12 -58 -9 -2 3 -7 203
-10 443 -4 362 -3 453 10 524 8 47 22 128 31 179 9 52 14 96 11 99 -11 11 -24
-9 -30 -48 -4 -22 -17 -56 -30 -75 l-23 -33 -16 52 c-16 51 -70 118 -83 104
-4 -3 5 -20 20 -37 14 -17 33 -54 41 -83 18 -60 36 -179 29 -186 -10 -10 -21
22 -27 78 -4 32 -11 68 -17 82 -11 26 -11 40 9 -240 8 -96 8 -158 2 -164 -5
-5 -12 -1 -16 12 -3 12 -11 21 -17 21 -5 0 -7 -8 -4 -17 4 -9 9 -65 13 -125 3
-60 10 -111 15 -114 5 -3 5 -11 -1 -17 -5 -7 -11 -114 -13 -245 -3 -250 -4
-251 -56 -252 l-23 0 7 143 c5 112 17 456 26 737 1 35 0 230 -1 304 -1 25 -8
47 -20 60 -11 12 -23 41 -26 66 -10 71 -15 90 -24 90 -4 0 -4 -21 0 -47 5 -27
13 -82 18 -123 6 -41 15 -100 22 -130 15 -72 3 -393 -15 -387 -6 2 -12 23 -14
48 -1 24 -7 76 -13 114 -11 77 -25 220 -39 419 -5 75 -14 133 -21 140 -9 8
-10 -6 -5 -62 7 -86 -9 -96 -33 -19 -8 26 -18 47 -23 47 -10 0 -5 -40 22 -160
33 -153 60 -304 60 -342 0 -20 4 -48 10 -62 8 -22 7 -26 -9 -26 -21 0 -31 19
-67 120 -14 41 -32 82 -39 90 -25 31 -45 114 -45 192 0 50 -4 77 -10 73 -5 -3
-10 -18 -10 -32 0 -15 -7 -34 -16 -44 -14 -16 -14 -20 0 -48 17 -32 21 -71 8
-71 -4 0 -25 20 -46 46 -38 45 -63 105 -51 124 10 16 -5 50 -21 50 -18 0 -50
-52 -58 -96 -8 -40 -22 -52 -31 -24 -3 11 -15 20 -26 20 -28 0 -24 34 11 109
21 43 27 68 21 74 -7 7 -19 -8 -35 -45 -14 -31 -30 -59 -35 -63 -6 -3 -11 -23
-11 -43 0 -22 -9 -51 -23 -71 -12 -19 -32 -50 -44 -70 l-22 -35 -10 27 c-17
43 -14 62 19 127 29 58 38 100 22 100 -11 0 -37 -30 -45 -52 -11 -31 -26 -19
-29 22 -4 57 -22 54 -28 -5 -8 -66 -58 -156 -139 -250 -14 -17 -53 -70 -85
-118 -55 -80 -76 -102 -76 -78 0 24 121 255 151 288 19 21 41 53 48 71 7 17
17 32 21 32 5 0 16 24 25 53 10 28 26 66 36 83 11 17 19 41 19 53 0 13 6 21
18 21 247 3 288 7 386 38 106 35 142 39 149 20 4 -10 7 -10 17 -1 11 10 27 5
79 -23 74 -40 102 -62 142 -117 40 -55 44 -29 4 29 -35 51 -108 124 -144 143
-17 10 -21 9 -21 -4 0 -13 -4 -14 -20 -5 -13 7 -20 21 -20 40 0 35 -13 45 -31
24 -23 -28 -109 -65 -184 -79 -79 -16 -323 -23 -343 -11 -23 14 -13 44 19 55
48 16 77 13 89 -9 16 -29 27 -25 33 13 3 21 0 35 -9 40 -18 10 -18 31 1 47 19
16 19 30 0 30 -8 0 -19 -9 -24 -19 -21 -39 -92 -83 -158 -100 -65 -16 -67 -17
-105 -78 -26 -41 -41 -78 -45 -110 -3 -28 -14 -61 -25 -74 -19 -24 -19 -24
-13 -1 9 30 -8 28 -25 -4 -8 -14 -22 -30 -32 -35 -10 -5 -43 -43 -74 -84 -49
-65 -74 -89 -74 -70 0 13 35 74 76 133 44 62 52 82 36 82 -16 0 -119 -163
-182 -287 -69 -134 -127 -218 -152 -218 -10 0 -29 -24 -47 -59 -33 -61 -112
-155 -165 -194 -54 -40 -43 1 21 80 61 75 155 202 231 311 23 34 70 112 104
172 34 61 104 173 155 249 88 131 105 162 84 154 -12 -4 -154 -211 -197 -288
-85 -149 -146 -248 -186 -304 -24 -32 -63 -86 -86 -120 -89 -125 -134 -178
-144 -168 -14 14 4 63 45 120 48 67 89 142 79 142 -5 0 -21 -18 -36 -40 -27
-41 -53 -54 -43 -22 15 45 56 155 61 159 15 15 36 -9 36 -41 0 -34 1 -35 25
-24 14 6 25 20 25 31 0 18 35 86 51 97 4 3 24 41 46 85 47 98 135 255 175 313
17 24 27 46 24 49 -9 9 -42 -34 -97 -127 -81 -134 -103 -163 -178 -229 -80
-71 -109 -77 -57 -11 23 30 32 49 27 59 -6 9 2 28 21 55 55 77 198 300 198
310 0 5 -9 1 -21 -10 -19 -17 -45 -56 -143 -209 -21 -33 -54 -79 -72 -101 -18
-23 -30 -44 -27 -48 4 -3 -1 -6 -9 -6 -9 0 -21 -7 -28 -15 -7 -8 -16 -12 -21
-9 -13 8 32 92 83 155 42 52 141 194 183 263 11 18 38 55 61 82 53 64 74 96
74 111 0 20 -18 15 -25 -6 -3 -11 -53 -70 -110 -132 -58 -62 -105 -116 -105
-121 0 -4 -7 -8 -15 -8 -24 0 -17 24 16 56 17 16 47 52 66 79 20 28 55 68 77
91 46 46 146 186 146 205 0 7 -16 -5 -35 -27 -42 -48 -49 -23 -8 27 26 31 27
32 6 27 -17 -4 -23 -1 -25 14 -3 20 -3 20 -28 0 -21 -18 -22 -21 -7 -22 9 0
17 -5 17 -11 0 -6 -13 -9 -28 -8 -22 3 -41 -7 -78 -37 -62 -52 -93 -69 -106
-56 -5 5 26 36 84 81 51 39 113 87 138 107 48 38 103 124 121 188 24 87 209
266 349 336 25 12 56 30 70 40 30 21 134 59 210 76 78 18 293 12 345 -10z
m264 -150 c14 -15 19 -26 12 -30 -16 -10 -48 10 -54 34 -7 28 14 26 42 -4z
m4801 -36 c0 -22 -16 -35 -25 -20 -9 14 4 52 16 45 5 -4 9 -15 9 -25z m-4571
-14 c31 -8 91 -20 134 -27 62 -9 77 -15 75 -28 -3 -13 -19 -17 -77 -19 -108
-4 -238 38 -225 73 8 19 21 19 93 1z m-4116 -85 c18 -16 46 -33 62 -37 16 -4
43 -15 60 -25 31 -17 181 -49 225 -47 14 0 48 0 75 -1 28 0 68 1 90 3 85 9
382 6 420 -3 22 -6 58 -11 80 -11 61 0 230 -37 273 -59 20 -11 57 -40 82 -66
91 -95 211 -121 322 -70 96 45 145 33 233 -59 51 -53 71 -67 138 -91 79 -29
98 -45 50 -45 -36 1 -103 31 -162 74 -54 39 -144 80 -163 74 -7 -3 28 -26 79
-51 50 -26 94 -51 98 -57 13 -22 -34 -8 -119 35 -49 25 -103 45 -119 45 -17 0
-48 -12 -69 -26 -36 -25 -46 -27 -151 -28 -129 -1 -199 17 -246 65 -21 21 -39
29 -64 29 -19 0 -40 6 -46 14 -6 8 -26 16 -44 18 -18 3 -39 7 -47 9 -11 3 -14
-4 -11 -31 4 -42 21 -78 50 -104 33 -30 25 -56 -32 -117 l-52 -56 -110 -8
c-60 -4 -121 -7 -135 -7 -14 1 -74 -6 -135 -15 -60 -8 -135 -17 -165 -20 -30
-2 -64 -8 -75 -12 -11 -5 -65 -19 -120 -31 -55 -13 -140 -33 -190 -46 -49 -12
-115 -28 -145 -33 -30 -6 -66 -14 -80 -17 -39 -8 -161 -23 -198 -24 -46 0 -31
17 21 25 177 27 490 99 630 146 50 17 125 39 167 49 41 10 100 26 130 35 30 9
78 21 105 26 76 16 78 21 23 54 -77 45 -123 89 -112 106 5 8 14 14 19 15 49 2
135 30 135 43 0 3 -27 4 -61 3 -53 -3 -125 8 -249 38 -78 19 -171 34 -265 44
-22 2 -51 7 -65 10 -14 3 -61 12 -105 20 -83 13 -171 44 -159 55 3 3 47 6 97
6 75 0 92 3 95 16 1 8 -31 50 -72 92 -65 67 -72 77 -51 77 13 0 39 -13 58 -29z
m8711 -54 c-1 -76 -25 -127 -50 -106 -27 22 9 187 38 176 9 -3 13 -25 12 -70z
m-4386 24 c2 -7 -12 -11 -42 -11 -40 0 -55 7 -42 21 9 9 80 1 84 -10z m-1683
-1 c3 -5 1 -10 -4 -10 -6 0 -11 5 -11 10 0 6 2 10 4 10 3 0 8 -4 11 -10z
m1581 -40 c131 -64 122 -101 -13 -55 -78 27 -123 57 -123 82 0 24 53 14 136
-27z m168 22 c2 -4 1 -14 -4 -21 -10 -17 -31 -5 -23 14 6 16 19 20 27 7z m-74
-22 c0 -5 -4 -10 -10 -10 -5 0 -10 5 -10 10 0 6 5 10 10 10 6 0 10 -4 10 -10z
m110 -25 c0 -16 -6 -25 -15 -25 -16 0 -19 9 -9 34 9 25 24 19 24 -9z m-32 -68
c2 -11 -3 -15 -17 -14 -21 1 -28 17 -14 31 10 10 28 1 31 -17z m2847 13 c-3
-5 -14 -10 -23 -10 -15 0 -15 2 -2 10 20 13 33 13 25 0z m-2790 -205 c154
-127 202 -161 211 -152 2 2 -11 15 -31 28 -46 33 -165 148 -165 160 0 5 3 9 6
9 11 0 152 -91 165 -106 15 -18 109 -67 116 -61 6 6 -34 36 -177 131 -145 96
-149 100 -128 104 20 4 177 -86 283 -163 44 -31 86 -60 93 -62 6 -3 12 -14 12
-25 0 -18 -5 -19 -37 -14 -33 5 -35 4 -19 -7 11 -6 48 -31 83 -54 44 -30 63
-38 63 -28 0 9 9 15 21 15 23 0 239 -206 239 -228 0 -29 -36 -6 -121 79 -50
49 -94 87 -97 84 -3 -3 14 -25 38 -50 24 -25 41 -48 37 -51 -9 -9 -130 47
-216 99 -36 22 -91 52 -121 65 -54 25 -84 46 -157 110 -21 18 -69 54 -108 79
-79 53 -225 189 -225 211 0 18 24 0 235 -173z m76 146 c41 -22 89 -47 108 -56
65 -29 241 -166 241 -187 0 -17 -24 -6 -80 35 -32 23 -82 58 -110 77 -28 19
-66 46 -84 60 -19 14 -65 41 -104 60 -68 34 -87 50 -59 50 8 0 47 -18 88 -39z
m-2099 -83 c-7 -7 -12 -8 -12 -2 0 6 3 14 7 17 3 4 9 5 12 2 2 -3 -1 -11 -7
-17z m2688 -22 c0 -15 -37 -32 -47 -22 -9 8 17 36 33 36 8 0 14 -6 14 -14z
m81 -26 c10 -6 19 -17 19 -25 0 -16 -104 -70 -119 -61 -13 8 48 96 67 96 7 0
22 -5 33 -10z m-970 -24 c15 -7 35 -21 45 -31 41 -37 207 -154 227 -161 12 -3
33 -16 47 -29 14 -12 45 -35 70 -50 44 -28 148 -111 162 -130 4 -5 5 -12 3
-16 -6 -8 -98 6 -122 19 -10 6 -65 57 -123 115 -58 57 -132 121 -165 143 -80
51 -185 134 -185 145 0 12 10 11 41 -5z m4419 -63 c13 -61 17 -179 11 -383 -4
-158 -37 -23 -47 196 -7 136 0 254 14 254 4 0 14 -30 22 -67z m-3630 -7 c0
-14 -36 -46 -52 -46 -17 0 -7 30 14 44 28 20 38 20 38 2z m-590 -18 c35 -24
50 -48 29 -48 -16 0 -79 48 -79 61 0 15 14 11 50 -13z m-1970 -37 c0 -5 -8
-19 -18 -32 -14 -16 -24 -20 -38 -15 -18 7 -18 8 1 18 11 6 24 17 28 25 9 15
27 18 27 4z m2490 -17 c0 -8 -4 -14 -10 -14 -5 0 -10 9 -10 21 0 11 5 17 10
14 6 -3 10 -13 10 -21z m-2497 -96 c-48 -58 -69 -77 -71 -64 -4 20 130 175
136 157 2 -6 -27 -48 -65 -93z m1946 58 c45 -33 171 -158 171 -170 0 -3 -9 -6
-20 -6 -12 0 -63 42 -128 105 -73 71 -101 105 -88 105 10 0 39 -15 65 -34z
m508 9 c9 -25 -2 -27 -22 -5 -17 18 -17 20 -1 20 9 0 19 -7 23 -15z m-2677
-67 c-1 -25 -140 -118 -140 -93 0 6 124 105 132 105 5 0 8 -6 8 -12z m68 -10
c7 -7 12 -16 12 -20 0 -4 -51 -46 -112 -93 -62 -46 -133 -100 -157 -120 -48
-38 -83 -44 -109 -18 -16 16 -16 16 0 10 11 -4 32 6 60 28 24 19 61 48 83 65
22 17 75 60 118 95 44 36 82 65 86 65 4 0 12 -5 19 -12z m2489 -64 c100 -75
168 -154 133 -154 -15 0 -110 61 -110 70 0 5 -29 30 -65 55 -36 26 -65 51 -65
56 0 22 61 7 107 -27z m-2457 6 c0 -5 -8 -18 -18 -27 -10 -10 -77 -74 -148
-143 -71 -69 -149 -143 -174 -164 -24 -22 -39 -41 -32 -44 7 -2 12 -9 12 -16
0 -15 -37 -56 -50 -56 -16 0 -11 22 7 36 10 7 15 16 11 20 -4 4 -26 -10 -48
-30 -41 -36 -100 -51 -100 -23 1 22 200 203 365 331 88 69 163 125 168 125 4
1 7 -3 7 -9z m3 -81 c-34 -49 -220 -285 -263 -334 -26 -30 -93 -85 -104 -85
-5 0 -17 -7 -27 -16 -39 -35 -37 -5 3 43 24 29 56 73 73 100 37 61 337 365
348 354 5 -5 -9 -33 -30 -62z m2317 -39 c28 -28 16 -45 -15 -23 -25 18 -33 43
-15 43 6 0 19 -9 30 -20z m155 -26 c54 -8 94 -41 173 -141 68 -85 101 -143
102 -176 0 -16 -2 -16 -27 -3 -35 18 -123 95 -123 107 0 5 7 9 15 9 8 0 15 5
15 10 0 6 -7 10 -16 10 -52 0 -211 119 -246 184 -9 17 -7 18 28 13 22 -4 57
-9 79 -13z m3804 -23 c13 -23 -3 -270 -24 -391 -8 -47 -15 -102 -15 -122 0
-46 -8 -68 -26 -68 -19 0 -14 263 6 300 12 23 21 77 37 238 3 34 7 62 9 62 2
0 8 -8 13 -19z m-5692 -48 c-6 -37 -41 -78 -57 -68 -7 5 5 78 16 97 3 4 15 8
26 8 18 0 20 -4 15 -37z m2081 -23 c12 -18 22 -40 22 -49 -1 -20 -70 56 -70
76 0 23 23 10 48 -27z m-2684 8 c-8 -28 -45 -78 -56 -78 -16 0 -7 27 20 63 31
41 47 48 36 15z m-1803 -18 c39 -16 83 -39 99 -50 16 -11 42 -23 59 -26 49
-10 46 -21 -10 -50 -45 -22 -61 -25 -108 -20 -82 8 -152 21 -185 35 -15 6 -71
16 -122 21 -96 10 -109 8 -366 -47 -34 -7 -38 13 -5 27 170 70 243 92 452 134
61 12 120 5 186 -24z m1715 -38 c-14 -14 -16 -14 -16 -1 0 20 23 44 29 28 2
-6 -4 -18 -13 -27z m-316 13 c-1 -6 -37 -47 -81 -92 -71 -73 -84 -83 -115 -83
l-36 0 83 78 c107 101 155 132 149 97z m3223 -59 c52 -52 117 -160 117 -196 0
-31 -22 -80 -36 -80 -7 0 -16 -11 -20 -25 -7 -29 -8 -29 -54 -7 -28 14 -36 24
-38 51 -3 27 0 33 12 28 20 -8 20 2 1 30 -10 14 -13 32 -9 47 6 25 -5 72 -31
131 -40 93 -22 99 58 21z m-2933 17 c-1 -5 -7 -19 -15 -33 -12 -22 -14 -23
-20 -7 -4 9 -2 24 5 32 13 16 30 20 30 8z m649 -99 c-42 -106 -98 -189 -99
-148 0 28 25 87 44 103 8 7 22 37 31 66 9 31 25 61 37 69 12 9 23 14 24 13 2
-2 -15 -48 -37 -103z m-1079 88 c0 -4 -26 -34 -59 -66 l-59 -58 -78 7 c-173
15 -165 21 131 109 60 18 65 18 65 8z m370 -69 c0 -5 -11 -21 -25 -38 -20 -25
-24 -27 -25 -11 0 11 7 28 17 38 17 18 33 24 33 11z m-11 -89 c-31 -33 -36
-22 -8 17 13 19 25 27 27 20 2 -7 -6 -23 -19 -37z m1120 -46 c1 -43 -13 -57
-28 -29 -10 18 -7 65 6 101 8 20 21 -23 22 -72z m-529 57 c0 -8 -4 -15 -10
-15 -5 0 -10 7 -10 15 0 8 5 15 10 15 6 0 10 -7 10 -15z m-635 -5 c-3 -5 -10
-10 -16 -10 -5 0 -9 5 -9 10 0 6 7 10 16 10 8 0 12 -4 9 -10z m2059 -14 c8
-31 96 -215 142 -294 52 -90 40 -107 -34 -45 -31 27 -70 59 -86 71 -41 32
-115 133 -116 159 0 12 8 39 17 60 33 73 66 94 77 49z m2664 2 c24 -24 -21
-48 -62 -32 -23 9 -20 23 7 34 31 12 41 12 55 -2z m-2562 -55 c48 -51 68 -81
46 -71 -65 28 -92 47 -106 76 -35 72 -12 70 60 -5z m-1560 20 c-10 -10 -19 5
-10 18 6 11 8 11 12 0 2 -7 1 -15 -2 -18z m-628 5 c-6 -18 -28 -21 -28 -4 0 9
7 16 16 16 9 0 14 -5 12 -12z m1895 -74 c7 -55 6 -78 -8 -116 -16 -45 -16 -54
3 -190 11 -79 23 -168 27 -198 11 -100 65 -365 85 -425 11 -32 19 -59 18 -60
-10 -8 -103 -45 -113 -45 -16 0 -23 28 -34 152 -5 54 -12 101 -14 105 -7 11
-20 352 -19 495 1 84 5 125 16 147 13 24 14 43 7 100 -5 39 -7 80 -4 91 11 40
28 13 36 -56z m-1226 39 c-1 -16 1 -33 4 -39 2 -6 -25 -60 -60 -120 -66 -112
-86 -123 -56 -31 24 73 92 217 103 217 5 0 9 -12 9 -27z m-637 -7 c0 -27 -56
-112 -109 -167 -31 -31 -67 -72 -81 -92 -25 -36 -40 -46 -40 -26 0 5 31 51 68
102 38 51 86 118 107 149 37 53 55 64 55 34z m840 12 c0 -28 -33 -144 -45
-157 -20 -21 -36 -5 -25 25 6 14 10 37 10 51 0 14 9 41 21 59 21 34 39 44 39
22z m3857 -2 c7 -6 -29 -67 -45 -75 -9 -5 -60 -11 -112 -15 -52 -3 -113 -10
-135 -16 -50 -12 -98 -13 -91 -1 3 5 18 12 33 15 16 4 48 21 72 38 75 53 127
69 205 63 39 -3 71 -7 73 -9z m-4136 -44 c-10 -20 -33 -77 -51 -127 -37 -102
-138 -310 -196 -402 -21 -34 -50 -81 -64 -103 -20 -33 -26 -38 -28 -22 -3 21
59 142 83 162 8 7 15 20 15 29 0 9 4 21 9 27 5 5 34 65 66 134 94 207 167 350
176 344 5 -3 0 -22 -10 -42z m-461 29 c0 -12 -20 -25 -27 -18 -7 7 6 27 18 27
5 0 9 -4 9 -9z m130 -6 c0 -13 -24 -54 -63 -109 -15 -21 -37 -15 -37 10 0 16
80 114 93 114 4 0 7 -7 7 -15z m-300 -4 c0 -6 -4 -13 -10 -16 -5 -3 -10 1 -10
9 0 9 5 16 10 16 6 0 10 -4 10 -9z m1134 1 c9 -15 19 -157 10 -149 -12 11 -33
157 -23 157 4 0 10 -3 13 -8z m189 -49 c37 -45 47 -64 47 -92 0 -45 -10 -81
-21 -81 -18 0 -89 169 -89 212 0 28 11 21 63 -39z m-253 26 c0 -5 -4 -9 -10
-9 -5 0 -10 7 -10 16 0 8 5 12 10 9 6 -3 10 -10 10 -16z m161 -45 c23 -36 50
-101 69 -169 18 -60 36 -118 41 -127 5 -10 9 -30 9 -44 0 -20 4 -25 16 -20 10
4 14 1 12 -6 -3 -7 -13 -13 -23 -13 -21 0 -128 183 -146 250 -6 22 -17 58 -25
80 -17 50 -19 118 -2 113 6 -2 28 -31 49 -64z m1200 -174 c88 -129 97 -147
103 -202 4 -33 4 -64 -1 -69 -14 -14 -140 119 -177 186 -9 17 -20 37 -25 45
-77 128 -131 231 -126 240 4 7 29 -2 68 -24 58 -31 69 -44 158 -176z m-2321
186 c0 -12 -40 -46 -55 -46 -11 0 -4 24 12 42 19 21 43 24 43 4z m361 -62
c-11 -15 -21 -31 -21 -36 0 -6 -9 -21 -20 -35 -31 -39 -24 -5 11 61 21 39 35
54 41 48 7 -7 4 -19 -11 -38z m471 14 c-9 -9 -12 -7 -12 12 0 19 3 21 12 12 9
-9 9 -15 0 -24z m54 -26 c-18 -16 -19 -16 -12 1 3 10 6 24 6 30 0 8 4 7 12 -1
10 -9 8 -16 -6 -30z m1615 1 c49 -24 79 -44 79 -54 0 -14 -10 -13 -80 7 -95
28 -116 38 -130 64 -10 18 -7 20 21 20 17 0 67 -17 110 -37z m-2081 18 c0 -12
-20 -25 -27 -18 -7 7 6 27 18 27 5 0 9 -4 9 -9z m259 -69 c-22 -68 -122 -272
-131 -266 -29 18 56 256 116 322 21 24 21 24 24 3 2 -12 -2 -38 -9 -59z m-739
58 c0 -5 -4 -10 -10 -10 -5 0 -10 5 -10 10 0 6 5 10 10 10 6 0 10 -4 10 -10z
m-1880 -8 c0 -13 -12 -22 -22 -16 -10 6 -1 24 13 24 5 0 9 -4 9 -8z m1888 -55
c-64 -96 -113 -152 -116 -134 -4 21 12 48 82 137 34 43 52 59 54 48 2 -9 -7
-32 -20 -51z m2002 -69 c69 -116 178 -269 200 -283 6 -4 24 -33 40 -65 16 -32
34 -62 40 -65 19 -12 24 4 8 22 -8 10 -31 45 -51 78 -19 33 -52 76 -71 94 -21
21 -36 45 -36 58 0 13 -7 26 -15 29 -13 5 -75 93 -75 107 0 19 22 3 43 -30 13
-21 51 -65 83 -98 107 -110 229 -279 245 -340 11 -41 14 -47 49 -100 11 -16
20 -46 20 -65 0 -37 -32 -100 -51 -100 -7 0 -9 -9 -5 -22 6 -23 -22 -123 -53
-187 -9 -18 -39 -51 -67 -72 -28 -22 -56 -51 -62 -65 -10 -21 -18 -25 -44 -22
-29 3 -36 11 -68 71 -42 80 -86 114 -167 127 -31 5 -60 13 -64 17 -4 5 -9 26
-11 47 -3 42 0 45 63 65 51 16 53 15 73 -26 22 -47 67 -115 73 -109 3 2 -9 30
-26 63 -49 94 -48 100 34 133 82 34 103 36 121 13 7 -10 16 -15 20 -10 4 4 2
13 -4 19 -21 21 -13 44 22 60 30 15 36 15 55 2 20 -14 21 -14 21 9 0 14 7 31
16 38 14 11 18 11 29 -4 11 -16 13 -13 17 23 3 31 0 40 -12 40 -9 0 -27 24
-43 56 -16 31 -31 54 -34 51 -3 -4 6 -31 21 -62 14 -31 26 -60 26 -65 0 -5
-13 -16 -29 -25 -30 -15 -30 -15 -73 36 -24 28 -54 63 -67 78 -13 14 -43 55
-67 91 -23 36 -56 80 -73 98 -17 18 -31 36 -31 38 0 3 -11 20 -25 38 -49 64
-73 135 -80 239 -4 60 -3 97 3 97 5 0 42 -55 82 -122z m419 88 c37 -28 64
-146 33 -146 -13 0 -102 141 -102 161 0 16 3 17 28 7 15 -7 33 -17 41 -22z
m-1364 -51 c12 -38 19 -92 19 -145 1 -77 4 -92 38 -159 22 -43 48 -121 64
-188 24 -103 26 -116 12 -124 -19 -11 -59 -75 -51 -83 3 -3 19 2 35 10 16 8
32 13 37 10 4 -3 11 -31 15 -63 12 -108 26 -207 31 -224 7 -21 -22 -39 -69
-44 -17 -2 -53 -8 -81 -13 -53 -11 -262 -31 -359 -34 -68 -2 -68 -2 -85 97
-14 82 -35 126 -25 55 3 -25 10 -66 16 -92 5 -26 7 -52 3 -59 -7 -11 -89 -8
-101 4 -10 10 -24 133 -24 212 0 56 9 114 30 195 59 229 57 228 58 31 1 -96 5
-178 10 -183 5 -5 10 43 11 122 1 121 4 140 36 234 41 126 65 178 79 173 7 -2
12 -93 13 -268 1 -145 6 -275 11 -288 6 -16 9 51 9 190 0 118 5 237 11 264 14
65 69 195 93 219 22 23 35 16 21 -11 -20 -39 -34 -598 -16 -678 l9 -40 5 49
c7 65 26 70 41 11 18 -70 24 -45 11 47 -7 46 -19 131 -27 189 -8 59 -15 136
-15 171 0 95 12 218 21 218 17 0 22 -52 22 -218 0 -95 4 -175 8 -178 5 -3 9
44 9 105 0 60 4 112 9 115 5 3 22 -23 37 -59 16 -36 32 -65 36 -65 14 0 9 16
-29 96 -38 79 -38 80 -37 204 0 125 20 279 33 263 4 -4 16 -35 26 -68z m-3021
50 c4 -11 20 -15 56 -15 44 0 52 -3 62 -25 6 -14 25 -29 44 -35 19 -7 34 -15
34 -20 0 -4 -44 -19 -97 -33 -182 -47 -217 -58 -247 -76 -17 -11 -64 -29 -104
-41 -162 -47 -332 -129 -498 -237 -68 -46 -84 -51 -84 -30 0 14 36 43 152 123
37 26 65 50 63 54 -3 4 -39 -3 -80 -16 -80 -25 -125 -30 -125 -14 0 6 4 10 9
10 5 0 39 14 74 30 36 17 74 30 85 30 11 0 39 7 63 15 24 9 64 20 89 26 25 5
77 25 115 43 39 18 83 39 100 45 53 22 214 135 224 158 12 26 56 32 65 8z
m2742 -18 c-8 -34 -35 -97 -42 -97 -3 0 -3 8 0 18 3 9 10 36 16 60 6 23 16 42
21 42 7 0 9 -10 5 -23z m135 -9 c3 -46 -4 -66 -62 -198 -15 -36 -31 -76 -35
-89 -4 -15 -9 -20 -16 -13 -7 7 -6 35 1 83 16 100 29 137 52 144 14 5 19 16
19 44 0 21 3 41 7 44 14 15 33 6 34 -15z m74 -40 c-9 -79 -18 -89 -32 -38 -8
30 -7 40 2 40 7 0 10 11 7 30 -3 23 0 30 13 30 15 0 16 -7 10 -62z m115 36 c0
-8 -4 -14 -10 -14 -5 0 -10 9 -10 21 0 11 5 17 10 14 6 -3 10 -13 10 -21z
m-1200 -3 c0 -19 -58 -131 -83 -161 -15 -17 -27 -37 -27 -45 0 -7 -12 -33 -26
-59 -14 -25 -23 -50 -20 -55 9 -14 -4 -40 -18 -35 -16 6 -84 -58 -135 -128
-22 -31 -45 -59 -51 -63 -18 -11 -11 11 15 46 14 19 37 59 51 89 40 86 119
213 200 321 67 90 94 116 94 90z m1495 -68 c25 -43 48 -89 51 -103 3 -14 12
-50 21 -80 15 -51 17 -102 10 -310 0 -14 2 -107 6 -206 6 -181 6 -182 -15
-188 -13 -3 -26 0 -30 7 -4 7 -8 73 -8 147 -1 134 -12 223 -48 395 -11 50 -17
104 -15 122 3 17 -2 67 -11 110 -24 124 -30 183 -18 183 7 0 32 -35 57 -77z
m1397 60 c10 -9 18 -23 18 -31 0 -12 -6 -10 -25 8 -38 35 -31 58 7 23z m-202
-17 c57 -21 67 -28 82 -62 20 -46 42 -132 58 -229 6 -38 16 -81 21 -95 5 -14
11 -97 14 -185 6 -193 15 -269 39 -313 23 -45 15 -66 -24 -58 -17 3 -53 0 -81
-6 -61 -14 -60 -15 -84 91 -10 42 -31 112 -47 156 -31 84 -44 214 -22 222 5 2
41 -70 79 -159 38 -89 70 -157 73 -150 6 19 -45 145 -106 264 -49 96 -54 111
-46 140 9 32 44 53 44 26 0 -13 75 -166 86 -177 19 -18 -15 76 -52 145 -33 60
-44 92 -44 125 0 32 -3 40 -10 29 -15 -24 -48 17 -59 74 -8 43 -7 49 10 53 24
7 24 11 -5 53 -13 19 -26 45 -30 58 -6 18 -4 22 16 22 13 0 52 -11 88 -24z
m-421 -56 c53 -38 107 -78 121 -88 25 -20 132 -214 169 -309 20 -52 20 -53 1
-63 -26 -14 -25 -15 -40 30 -7 22 -20 47 -29 57 -9 10 -25 32 -36 50 -27 43
-168 217 -227 280 -40 43 -68 88 -68 109 0 11 18 -1 109 -66z m-1809 40 c0 -4
-8 -10 -18 -12 -11 -3 -40 -50 -75 -120 -31 -63 -66 -123 -77 -133 -11 -10
-20 -22 -20 -27 0 -15 -52 -122 -63 -129 -5 -4 -6 -12 -2 -19 6 -9 10 -9 17 1
8 11 9 11 5 -1 -2 -8 -13 -16 -25 -18 -13 -2 -29 -17 -38 -35 -18 -35 -66
-106 -101 -150 -19 -23 -24 -26 -29 -13 -3 9 14 55 41 107 46 89 56 137 14 65
-35 -60 -55 -44 -38 33 8 40 18 56 53 85 48 39 63 38 41 -5 -17 -32 -19 -49
-6 -49 5 0 15 17 21 38 18 56 58 121 109 178 25 28 73 89 106 136 36 52 64 84
72 81 7 -3 13 -9 13 -13z m40 -23 c-12 -31 -120 -241 -155 -304 -35 -63 -68
-74 -59 -20 3 17 14 44 24 58 10 15 26 43 34 64 9 20 29 54 46 75 16 21 30 41
30 45 0 3 17 30 38 59 37 53 59 65 42 23z m-425 -122 c-20 -55 -42 -106 -49
-115 -24 -28 -28 -40 -12 -34 29 11 18 -41 -19 -90 -20 -25 -40 -46 -44 -46
-5 0 -12 -11 -15 -24 -3 -14 -31 -46 -61 -72 -53 -46 -71 -72 -40 -60 23 9 19
0 -32 -57 -27 -29 -66 -79 -88 -110 -22 -32 -57 -78 -77 -103 -21 -25 -38 -53
-38 -63 0 -9 -7 -26 -16 -37 -18 -22 -18 -22 11 84 26 93 50 129 259 382 53
63 63 105 13 49 -17 -19 -65 -75 -105 -123 -54 -64 -77 -85 -85 -77 -8 8 -2
18 21 39 18 15 50 63 73 106 22 44 59 106 81 137 22 32 47 71 56 87 28 51 133
203 166 240 31 35 31 36 34 11 2 -14 -13 -70 -33 -124z m1186 104 c4 -8 24
-47 44 -88 21 -41 44 -86 51 -100 74 -145 82 -191 90 -486 5 -193 4 -222 -9
-234 -9 -7 -24 -11 -33 -9 -15 3 -17 18 -15 143 1 123 -25 443 -45 552 -11 56
-27 39 -19 -19 23 -175 31 -328 16 -328 -14 0 -22 29 -28 100 -3 36 -10 73
-15 82 -14 28 -56 247 -64 332 -6 63 -4 78 6 74 8 -2 17 -11 21 -19z m1613
-39 c20 -25 36 -48 36 -52 0 -4 15 -28 34 -52 31 -41 76 -144 90 -208 6 -28
26 -39 26 -15 0 27 -48 154 -89 233 -40 79 -48 104 -35 104 14 0 209 -137 257
-180 43 -39 49 -41 43 -20 -4 14 -16 37 -27 52 -20 29 -12 43 19 34 10 -4 35
-24 56 -45 32 -33 37 -44 32 -66 -5 -18 -12 -25 -21 -21 -19 7 -19 -11 0 -30
8 -9 15 -25 15 -36 0 -17 2 -19 16 -7 10 8 13 21 9 36 -3 13 0 33 6 45 11 20
13 20 55 -28 24 -27 44 -56 44 -65 0 -14 110 -125 179 -182 27 -22 23 -39 -10
-47 -26 -7 -73 -30 -199 -98 -256 -136 -247 -132 -316 -132 -59 0 -65 -2 -76
-25 -6 -14 -18 -24 -26 -23 -48 9 -77 130 -87 349 -3 73 -11 155 -19 183 -7
28 -19 80 -25 116 -7 36 -23 100 -37 143 -35 112 -19 124 50 37z m555 34 c3
-16 1 -17 -13 -5 -19 16 -21 34 -3 29 6 -3 14 -13 16 -24z m-2020 -16 c7 -21
8 -35 1 -42 -6 -6 -11 -3 -15 10 -4 10 -11 29 -16 42 -6 16 -5 22 5 22 8 0 19
-14 25 -32z m-1539 -6 c0 -5 -9 -17 -20 -27 -22 -20 -26 -14 -10 16 11 19 30
26 30 11z m706 -74 c-14 -29 -48 -93 -77 -143 -49 -87 -144 -263 -198 -372
-14 -29 -29 -52 -33 -52 -5 -1 -8 18 -8 41 0 45 54 155 140 283 25 39 80 126
120 194 73 123 106 151 56 49z m254 68 c0 -3 -4 -8 -10 -11 -5 -3 -10 -1 -10
4 0 6 5 11 10 11 6 0 10 -2 10 -4z m2640 -6 c12 -8 11 -10 -7 -10 -13 0 -23 5
-23 10 0 13 11 13 30 0z m122 1 c56 -10 70 -18 201 -117 84 -64 134 -78 282
-79 136 -2 166 -9 186 -46 19 -36 -1 -46 -196 -110 -33 -10 -69 -24 -80 -29
-11 -6 -47 -19 -79 -30 -33 -11 -67 -27 -75 -34 -14 -13 -65 -35 -123 -53 -34
-10 -187 105 -227 171 -24 39 -35 100 -22 123 5 10 12 26 15 37 9 27 36 1 36
-35 0 -32 15 -47 24 -23 5 14 10 13 39 -5 18 -11 65 -27 105 -35 94 -20 149
-51 173 -98 21 -42 45 -52 34 -15 -15 51 -60 91 -126 114 -35 12 -77 22 -93
22 -38 1 -131 55 -158 92 -32 43 -54 38 -63 -13 -6 -40 -8 -41 -17 -20 -17 34
-31 27 -24 -13 8 -42 -4 -45 -33 -10 -20 26 -25 44 -36 128 l-6 47 80 0 c74 0
81 -2 100 -26 14 -18 21 -22 21 -11 0 8 3 22 6 31 4 11 1 16 -10 16 -16 0 -21
12 -9 23 8 9 7 9 75 -2z m-2552 -11 c0 -5 -2 -10 -4 -10 -3 0 -8 5 -11 10 -3
6 -1 10 4 10 6 0 11 -4 11 -10z m2242 -12 c22 -10 45 -85 32 -98 -11 -11 -164
86 -171 107 -4 10 10 11 59 7 35 -4 71 -11 80 -16z m-2072 -14 c0 -8 -4 -12
-10 -9 -5 3 -10 13 -10 21 0 8 5 12 10 9 6 -3 10 -13 10 -21z m814 -78 c15
-90 42 -134 31 -51 l-7 50 33 -44 c19 -24 39 -53 46 -64 7 -12 65 -88 130
-170 65 -81 119 -152 121 -156 1 -4 -13 -14 -32 -23 -41 -20 -49 -15 -100 62
-20 30 -52 78 -72 105 -19 28 -46 74 -60 103 -23 46 -44 68 -44 43 0 -18 80
-152 118 -198 22 -26 52 -72 66 -101 l26 -52 -57 -26 c-109 -48 -107 -49 -138
50 -26 84 -31 107 -54 271 -6 44 -16 109 -21 145 -20 139 -21 155 -10 144 6
-6 16 -45 24 -88z m-1191 72 c2 -7 -2 -29 -10 -48 -8 -19 -11 -45 -8 -57 3
-13 -3 -36 -15 -55 -11 -18 -20 -43 -20 -55 0 -13 -4 -23 -9 -23 -13 0 -2 116
16 175 9 28 17 56 19 63 2 6 8 12 13 12 5 0 11 -6 14 -12z m-238 -155 c-20
-48 -47 -107 -61 -130 -13 -23 -24 -48 -24 -55 0 -7 -10 -31 -21 -53 -12 -22
-36 -76 -54 -120 -18 -45 -49 -115 -70 -157 l-36 -77 -32 18 c-48 26 -47 63 2
128 36 49 90 151 170 326 17 37 36 67 41 67 6 0 10 5 10 11 0 6 24 49 53 95
42 68 53 79 55 59 2 -13 -13 -63 -33 -112z m625 75 c0 -25 -16 -22 -24 5 -11
41 -7 54 9 33 8 -11 15 -28 15 -38z m6760 -76 c-28 -55 -62 -112 -76 -127 -13
-14 -35 -48 -48 -73 -13 -26 -33 -56 -43 -67 -10 -11 -25 -35 -33 -54 -22 -55
-105 -177 -149 -219 -51 -50 -165 -126 -211 -142 -27 -9 -62 -10 -140 -3 -58
5 -107 8 -110 6 -2 -2 1 -13 8 -23 11 -18 5 -25 -51 -69 -35 -28 -77 -69 -92
-91 -38 -55 -81 -90 -111 -90 -18 0 -32 12 -54 48 -36 58 -37 81 -5 141 36 64
86 97 181 116 43 9 88 22 99 28 49 26 149 125 172 172 36 71 165 193 273 259
25 15 133 87 240 160 107 73 197 131 198 130 2 -1 -19 -47 -48 -102z m-7320
42 c-6 -22 -13 -86 -16 -144 -3 -58 -12 -143 -20 -189 -8 -46 -14 -102 -14
-125 0 -23 -4 -67 -10 -97 -5 -30 -12 -89 -14 -132 -3 -43 -8 -82 -10 -86 -7
-11 -85 2 -117 20 -15 8 -43 29 -64 47 -31 28 -36 38 -31 62 5 27 73 190 204
490 28 63 58 137 68 163 21 58 42 50 24 -9z m74 -32 c-73 -260 -92 -305 -80
-193 3 35 6 87 6 116 0 44 5 58 37 99 42 54 56 46 37 -22z m700 14 c9 -19 16
-56 15 -83 0 -34 -3 -42 -8 -28 -40 98 -50 129 -45 136 10 17 22 9 38 -25z
m216 19 c0 -8 -4 -15 -10 -15 -5 0 -10 7 -10 15 0 8 5 15 10 15 6 0 10 -7 10
-15z m2842 0 c0 -5 -25 -23 -57 -38 -52 -26 -59 -27 -73 -13 -22 22 -5 38 56
52 54 14 73 13 74 -1z m-158 -57 c8 -13 7 -21 -1 -29 -8 -8 -19 -5 -42 12 -17
12 -31 27 -31 32 0 15 63 3 74 -15z m-7044 -4 c0 -2 -9 -4 -21 -4 -11 0 -18 4
-14 10 5 8 35 3 35 -6z m5273 -22 c10 -17 17 -42 15 -54 l-3 -23 -18 26 c-24
36 -40 92 -24 86 6 -2 20 -18 30 -35z m-1059 -405 c9 -97 13 -184 10 -192 -4
-9 -14 -15 -23 -13 -14 3 -17 30 -23 198 -3 107 -9 216 -12 241 -2 26 -2 50 2
54 12 11 30 -104 46 -288z m-1484 273 c0 -5 -2 -10 -4 -10 -3 0 -8 5 -11 10
-3 6 -1 10 4 10 6 0 11 -4 11 -10z m290 -25 c0 -16 -29 -72 -43 -83 -14 -12
-15 -11 -8 15 10 35 33 73 43 73 5 0 8 -2 8 -5z m-301 -100 c-7 -60 -17 -98
-30 -114 -10 -13 -19 -28 -19 -34 0 -6 -6 -18 -14 -26 -7 -9 -39 -65 -71 -126
-31 -60 -63 -117 -70 -125 -19 -23 -115 -205 -115 -220 0 -23 29 10 50 57 11
24 41 81 68 126 27 45 75 130 108 190 32 59 62 107 67 107 11 0 -3 -72 -18
-90 -7 -8 -21 -33 -31 -55 -10 -22 -20 -44 -22 -50 -3 -5 4 -2 16 8 50 45 27
-33 -40 -130 -16 -24 -39 -64 -51 -90 -12 -27 -31 -61 -43 -78 -24 -34 -69
-163 -60 -172 8 -8 6 -11 50 77 20 41 40 82 45 90 4 8 32 64 62 123 30 60 58
111 62 114 22 14 29 -23 28 -149 0 -73 -4 -156 -9 -185 -5 -29 -6 -57 -2 -64
14 -22 21 9 27 117 8 131 23 117 22 -21 0 -142 -11 -194 -43 -220 -20 -16 -26
-30 -26 -58 0 -20 -11 -67 -25 -104 -21 -55 -39 -81 -98 -139 -63 -62 -81 -74
-144 -94 -40 -12 -79 -20 -86 -17 -9 3 -19 32 -26 73 -7 37 -27 108 -46 158
-18 50 -41 116 -50 146 -9 30 -30 76 -45 102 -29 47 -29 47 -14 100 23 80 35
110 59 143 11 17 29 51 39 77 9 26 29 64 43 85 15 21 40 65 56 98 16 33 51 89
76 124 45 62 197 237 240 275 21 19 21 19 21 -1 0 -12 -50 -118 -111 -237 -60
-120 -109 -225 -107 -234 4 -18 98 160 186 354 53 115 92 187 98 181 2 -2 -1
-43 -7 -92z m1791 -95 c0 -82 -5 -161 -10 -175 -18 -46 -35 -24 -38 50 -3 74
12 257 23 275 18 29 25 -15 25 -150z m-1630 99 c0 -22 -64 -131 -101 -172 -62
-68 -49 -15 21 92 55 83 80 109 80 80z m23 -82 c5 -14 -6 -93 -18 -121 -6 -14
-5 -17 4 -11 8 4 17 2 22 -6 12 -20 11 -116 -2 -140 -9 -17 -7 -20 8 -17 13 2
19 -4 21 -26 2 -16 10 -40 19 -52 18 -28 10 -124 -13 -169 -18 -35 -18 -51 -1
-36 8 6 19 29 26 51 19 64 31 47 32 -47 1 -49 2 -124 4 -168 3 -74 1 -82 -24
-112 l-27 -33 -105 8 -104 7 3 35 c1 19 5 74 8 122 5 68 10 90 25 104 10 9 19
27 19 38 -1 20 -2 20 -14 4 -21 -29 -26 -21 -26 41 0 32 -5 115 -10 186 l-11
127 26 44 c14 24 32 44 40 44 9 0 28 30 46 70 31 69 42 82 52 57z m2488 -135
c44 -130 43 -133 -16 -148 -42 -11 -61 -24 -123 -90 -40 -42 -76 -73 -80 -70
-3 4 -1 15 5 24 36 54 106 183 119 222 8 24 19 49 24 55 5 6 12 30 16 53 4 24
11 41 17 39 6 -2 23 -40 38 -85z m-715 -89 c3 -16 7 -33 9 -40 4 -13 -26 -43
-42 -43 -6 0 -39 -23 -72 -51 -47 -39 -62 -47 -67 -36 -3 9 0 26 7 38 6 12 14
45 18 73 6 51 6 51 56 68 70 24 84 23 91 -9z m-1976 3 c0 -8 -4 -18 -10 -21
-5 -3 -10 3 -10 14 0 12 5 21 10 21 6 0 10 -6 10 -14z m3109 -31 c13 -14 27
-45 32 -69 12 -65 13 -180 2 -200 -9 -16 -10 -16 -23 -1 -8 9 -13 33 -12 52 4
46 -22 133 -49 167 -14 18 -19 34 -15 51 8 32 34 32 65 0z m4532 -25 c9 -42
-7 -64 -66 -91 -56 -26 -65 -24 -65 12 0 41 14 64 58 94 47 32 64 29 73 -15z
m-5855 -75 c-5 -87 -19 -135 -39 -135 -5 0 -6 25 -3 55 3 30 9 81 12 113 7 64
11 75 25 66 6 -3 8 -43 5 -99z m-60 37 c-3 -26 -17 -83 -31 -127 -31 -99 -42
-175 -26 -175 16 0 14 -35 -4 -50 -8 -7 -22 -10 -30 -6 -21 8 -21 194 0 236 8
15 15 52 16 82 1 81 5 88 46 88 l36 0 -7 -48z m1275 16 c47 -39 79 -128 85
-241 6 -94 -2 -110 -44 -88 -16 9 -20 24 -24 104 -5 93 -22 145 -66 199 -26
31 16 53 49 26z m-1409 -39 c-4 -45 -21 -99 -32 -99 -16 0 -17 104 -1 123 22
26 36 15 33 -24z m1323 8 c18 -18 39 -51 46 -72 12 -39 21 -335 9 -335 -21 0
-90 252 -90 328 0 20 -9 52 -20 70 -25 40 -25 42 1 42 12 0 36 -15 54 -33z
m-2512 -3 c29 -15 58 -31 65 -37 35 -28 120 -46 214 -47 67 0 98 -4 101 -12 4
-10 8 -9 16 2 5 8 25 15 43 16 61 2 311 24 317 29 17 10 205 35 212 28 4 -4 9
-19 12 -33 4 -22 4 -21 6 6 2 59 65 76 67 19 2 -57 4 -65 14 -65 6 0 10 23 10
50 0 36 4 52 15 57 9 3 18 3 21 0 3 -3 11 -58 17 -123 10 -113 8 -141 -18
-219 -6 -16 -3 -16 13 5 l21 25 11 -29 c17 -47 -7 -75 -38 -44 -8 8 -16 6 -29
-10 -13 -16 -44 -28 -110 -42 -50 -11 -98 -17 -106 -14 -9 3 -18 17 -22 32
-17 69 -103 168 -161 186 -37 11 -192 -40 -241 -80 -51 -42 -64 -65 -88 -156
-17 -63 -34 -84 -50 -59 -3 6 -29 23 -58 40 -64 37 -143 113 -168 164 -11 20
-51 85 -89 143 -77 116 -87 142 -70 173 13 26 10 26 73 -5z m231 10 c11 -28 6
-54 -9 -54 -10 0 -15 11 -15 35 0 36 13 47 24 19z m1482 -3 c20 -12 38 -36 50
-67 10 -27 38 -87 61 -133 24 -47 48 -112 54 -145 6 -34 16 -74 23 -91 7 -16
21 -66 30 -110 10 -44 31 -137 48 -208 16 -70 27 -134 24 -142 -3 -8 -18 -15
-34 -15 -15 0 -33 -5 -38 -10 -18 -18 -175 -23 -204 -8 -30 16 -53 62 -79 159
-10 41 -39 117 -64 169 -52 109 -70 184 -65 272 2 39 -1 62 -8 65 -16 6 -25
-22 -31 -103 -6 -81 9 -152 62 -295 19 -51 31 -97 28 -103 -13 -22 -49 -41
-98 -52 -27 -6 -77 -18 -110 -27 -71 -19 -152 -24 -217 -13 -46 8 -48 7 -48
-15 -1 -36 -45 -62 -120 -72 -36 -4 -79 -9 -97 -11 -17 -3 -40 -7 -50 -10 -11
-3 -27 0 -37 7 -16 12 -18 37 -23 214 -7 248 -8 247 94 257 37 3 101 15 142
26 41 11 92 20 113 20 21 0 50 7 64 16 15 10 43 16 73 16 l48 -2 12 54 c6 29
18 62 26 72 14 18 14 18 15 -3 0 -46 17 -21 28 41 8 49 19 75 51 117 23 30 41
57 41 61 0 4 21 21 46 39 30 21 54 30 70 26 16 -3 24 0 24 9 0 21 59 17 96 -5z
m575 3 c10 -12 10 -22 2 -45 -9 -23 -9 -29 2 -29 7 0 15 6 18 13 3 8 10 6 21
-8 42 -51 50 -80 54 -195 4 -106 6 -117 30 -142 20 -22 29 -25 44 -17 14 8 29
6 56 -8 65 -32 54 -46 -57 -76 -115 -31 -160 -33 -203 -11 -34 18 -59 6 -33
-16 25 -21 17 -37 -25 -54 -22 -9 -45 -16 -50 -16 -6 0 -18 -8 -29 -19 -16
-16 -107 -39 -117 -29 -2 2 -13 53 -24 114 -12 60 -34 149 -51 198 -16 49 -28
90 -26 91 64 42 114 60 207 75 97 15 105 17 105 38 0 13 6 26 13 31 11 7 11 9
-2 14 -9 4 -22 4 -30 1 -30 -12 -25 18 11 61 39 47 62 55 84 29z m1249 1 c0
-9 -8 -18 -17 -22 -10 -3 -27 -14 -39 -24 -22 -20 -199 -99 -221 -99 -53 0 62
69 208 126 24 9 48 21 54 26 13 11 15 10 15 -7z m-1140 -14 c33 -18 35 -23 48
-97 20 -115 12 -232 -16 -242 -11 -3 -19 93 -13 170 1 18 -14 52 -47 102 -27
41 -47 78 -44 81 10 10 37 4 72 -14z m-1230 -131 c0 -5 -5 -10 -11 -10 -5 0
-7 5 -4 10 3 6 8 10 11 10 2 0 4 -4 4 -10z m1980 -45 c-14 -17 -30 -20 -30 -6
0 5 8 12 18 14 9 3 19 5 21 6 2 0 -2 -6 -9 -14z m-1843 -41 c-3 -20 -9 -39
-12 -42 -12 -12 -17 9 -11 43 9 47 31 47 23 -1z m-563 -57 c28 -20 76 -107 76
-139 0 -18 -74 -47 -87 -34 -4 4 -10 31 -13 59 -9 89 -25 58 -30 -58 -6 -136
12 -373 34 -440 29 -91 76 -366 65 -386 -16 -31 -102 -49 -235 -49 l-122 0 -7
64 c-4 35 -4 78 0 95 4 18 -1 62 -14 113 -28 118 -31 150 -32 373 -1 196 -1
201 26 268 34 83 90 137 144 138 20 0 52 7 71 14 42 16 84 10 124 -18z m-741
-54 c61 -91 161 -173 257 -213 70 -29 74 -33 66 -63 -4 -18 -27 -34 -103 -70
-54 -25 -116 -50 -138 -56 -22 -5 -65 -16 -95 -25 -30 -9 -70 -19 -87 -22 -48
-9 -53 16 -14 70 46 64 63 141 60 271 -3 180 0 187 54 108z m6627 27 c65 -23
91 -50 61 -61 -10 -4 -25 -16 -33 -27 -7 -11 -28 -22 -45 -23 -25 -3 -36 2
-53 24 -12 15 -29 27 -39 27 -9 0 -22 5 -29 12 -9 9 -5 16 18 30 17 10 30 22
30 28 0 15 30 12 90 -10z m-440 0 c-19 -13 -30 -13 -30 0 0 6 10 10 23 10 18
0 19 -2 7 -10z m250 0 c8 -5 13 -10 10 -11 -3 0 -19 -2 -37 -5 -18 -2 -36 -4
-40 -5 -4 -1 -15 -1 -23 0 -12 1 -11 5 4 16 23 17 64 19 86 5z m-3757 -79 c-1
-40 -8 -47 -27 -32 -8 7 -20 10 -26 6 -6 -4 -10 4 -10 18 0 15 8 28 23 35 32
15 42 9 40 -27z m3727 24 c0 -8 -4 -15 -9 -15 -13 0 -22 16 -14 24 11 11 23 6
23 -9z m-150 -15 c0 -5 -4 -10 -10 -10 -5 0 -10 5 -10 10 0 6 5 10 10 10 6 0
10 -4 10 -10z m467 -22 c-3 -7 -5 -2 -5 12 0 14 2 19 5 13 2 -7 2 -19 0 -25z
m133 4 c0 -13 -12 -22 -22 -16 -10 6 -1 24 13 24 5 0 9 -4 9 -8z m-440 -62 c0
-4 -8 -18 -18 -31 -39 -47 -71 6 -34 56 l17 24 18 -20 c9 -12 17 -25 17 -29z
m-7369 -118 c6 -30 26 -91 44 -136 37 -93 47 -131 76 -276 11 -58 27 -128 34
-156 8 -28 15 -63 15 -77 0 -15 7 -45 16 -67 9 -23 14 -53 11 -69 -4 -21 -1
-34 13 -46 11 -10 20 -30 19 -44 0 -26 0 -26 -27 9 -15 19 -45 52 -67 73 l-40
38 -6 147 c-4 81 -11 165 -17 187 -18 70 -33 139 -42 185 -10 56 -48 172 -89
269 -44 104 -41 126 9 65 28 -34 43 -64 51 -102z m7169 126 c0 -7 -5 -20 -10
-28 -8 -12 -10 -9 -10 13 0 15 5 27 10 27 6 0 10 -6 10 -12z m40 -12 c0 -14
-4 -28 -10 -31 -6 -4 -10 7 -10 24 0 17 5 31 10 31 6 0 10 -11 10 -24z m477 9
c2 -6 -24 -17 -57 -26 -57 -15 -61 -15 -70 2 -6 10 -10 20 -10 23 0 16 131 17
137 1z m78 -13 c-2 -3 -12 -1 -22 2 -15 6 -15 9 -3 16 13 8 35 -8 25 -18z
m-487 -19 c-4 -52 -28 -56 -28 -4 0 30 4 41 16 41 11 0 14 -9 12 -37z m-178 3
c0 -21 -21 -31 -31 -15 -14 22 -11 29 11 29 11 0 20 -6 20 -14z m340 4 c0 -5
-7 -10 -15 -10 -8 0 -15 5 -15 10 0 6 7 10 15 10 8 0 15 -4 15 -10z m-500 -4
c0 -3 -4 -8 -10 -11 -5 -3 -10 -1 -10 4 0 6 5 11 10 11 6 0 10 -2 10 -4z m80
-16 c0 -5 -7 -10 -15 -10 -8 0 -15 5 -15 10 0 6 7 10 15 10 8 0 15 -4 15 -10z
m805 -19 c9 -15 -17 -26 -67 -27 -40 -1 -48 2 -48 18 0 15 8 18 54 18 30 0 57
-4 61 -9z m-912 -26 c-3 -9 -8 -14 -10 -11 -3 3 -2 9 2 15 9 16 15 13 8 -4z
m158 -1 c11 -14 10 -19 -10 -35 -18 -15 -26 -16 -42 -6 -26 16 -24 45 4 50 12
2 25 5 28 6 4 0 13 -6 20 -15z m299 -25 c0 -9 -57 -29 -81 -29 -38 0 -19 42
26 57 24 9 32 8 43 -5 6 -9 12 -19 12 -23z m-552 9 c-2 -6 -23 -21 -46 -34
-38 -22 -42 -22 -42 -6 0 31 35 60 65 55 14 -3 24 -10 23 -15z m382 1 c-7 -11
-14 -19 -16 -16 -7 7 7 37 17 37 6 0 5 -9 -1 -21z m-221 -32 c-2 -1 -21 -10
-41 -20 -31 -14 -38 -14 -38 -3 0 8 12 24 27 36 24 18 28 19 42 6 8 -9 13 -17
10 -19z m151 17 c0 -8 -5 -12 -10 -9 -6 4 -8 11 -5 16 9 14 15 11 15 -7z
m-6334 -96 c-9 -95 -20 -123 -58 -146 -26 -16 -29 -15 -80 20 -48 33 -59 36
-110 34 -32 -1 -58 -1 -58 2 0 11 25 48 37 55 8 5 24 32 37 60 l23 52 108 3
108 3 -7 -83z m5904 63 c0 -26 -10 -51 -21 -51 -5 0 -9 16 -9 35 0 24 5 35 15
35 8 0 15 -9 15 -19z m710 4 c-7 -8 -18 -15 -25 -15 -7 0 -24 -9 -38 -20 -32
-25 -35 -25 -30 3 5 25 40 44 82 46 20 1 21 -1 11 -14z m90 -16 c0 -5 -4 -9
-10 -9 -5 0 -10 7 -10 16 0 8 5 12 10 9 6 -3 10 -10 10 -16z m309 -65 c-32
-34 -42 -30 -23 9 28 54 38 64 42 38 2 -14 -6 -33 -19 -47z m-4450 29 c53 -34
52 -47 -1 -39 -24 4 -78 9 -121 13 -84 6 -89 18 -19 39 61 19 97 16 141 -13z
m3428 -3 c7 -18 7 -32 2 -36 -8 -5 -29 35 -29 57 0 20 16 7 27 -21z m28 0 c3
-5 1 -10 -4 -10 -6 0 -11 5 -11 10 0 6 2 10 4 10 3 0 8 -4 11 -10z m85 -35 c0
-17 -2 -17 -10 -5 -5 8 -10 24 -10 35 0 17 2 17 10 5 5 -8 10 -24 10 -35z
m-40 25 c0 -5 -4 -10 -10 -10 -5 0 -10 5 -10 10 0 6 5 10 10 10 6 0 10 -4 10
-10z m70 -6 c0 -8 -4 -12 -10 -9 -5 3 -10 10 -10 16 0 5 5 9 10 9 6 0 10 -7
10 -16z m197 -16 c-3 -7 -5 -2 -5 12 0 14 2 19 5 13 2 -7 2 -19 0 -25z m-137
15 c-1 -18 -18 -35 -24 -24 -4 6 -4 16 -1 21 7 12 25 13 25 3z m55 -3 c-3 -5
-11 -10 -16 -10 -6 0 -7 5 -4 10 3 6 11 10 16 10 6 0 7 -4 4 -10z m404 -2 c0
-7 -13 -23 -30 -36 l-29 -24 0 25 c0 23 10 31 58 46 1 1 2 -5 1 -11z m-6178
-139 c3 -68 11 -151 19 -185 7 -33 11 -68 7 -76 -3 -9 -32 -25 -64 -36 -32
-11 -84 -30 -115 -41 -52 -19 -196 -45 -303 -56 -22 -2 -67 -8 -100 -13 -33
-5 -63 -8 -67 -5 -12 6 -10 40 6 113 18 89 46 140 86 159 26 13 37 28 54 75
l21 59 121 28 c67 15 163 45 215 67 52 22 99 39 104 38 6 -2 12 -57 16 -127z
m6064 121 c3 -5 1 -10 -4 -10 -6 0 -11 5 -11 10 0 6 2 10 4 10 3 0 8 -4 11
-10z m-172 -25 c-7 -21 -13 -19 -13 6 0 11 4 18 10 14 5 -3 7 -12 3 -20z
m-103 -4 c0 -6 -4 -13 -10 -16 -5 -3 -10 1 -10 9 0 9 5 16 10 16 6 0 10 -4 10
-9z m465 -12 c40 -24 41 -38 3 -56 -19 -10 -33 -10 -57 -2 -18 6 -30 14 -29
18 2 3 10 18 17 34 17 33 20 33 66 6z m-165 -2 c0 -8 -11 -24 -24 -36 l-23
-22 -6 28 c-3 16 0 31 6 35 19 12 47 9 47 -5z m310 4 c0 -14 -49 -43 -61 -35
-14 9 19 44 43 44 10 0 18 -4 18 -9z m-1050 -60 c-13 -33 -92 -71 -146 -71
-19 0 -44 -4 -54 -10 -35 -19 -53 -2 -47 47 6 53 11 59 61 66 32 5 39 3 43
-13 7 -26 23 -26 23 0 0 17 7 20 43 21 23 0 51 4 62 8 25 10 31 -10 15 -48z
m665 39 c13 -42 -24 -56 -43 -16 -6 13 -8 27 -5 30 14 13 42 5 48 -14z m-577
-30 c2 -13 -38 -40 -60 -40 -10 0 -11 44 -1 54 12 12 58 2 61 -14z m122 10 c0
-5 -4 -10 -10 -10 -5 0 -10 5 -10 10 0 6 5 10 10 10 6 0 10 -4 10 -10z m238
-29 c3 -16 -1 -22 -10 -19 -7 3 -15 15 -16 27 -3 16 1 22 10 19 7 -3 15 -15
16 -27z m-6498 -5 c0 -8 -15 -27 -34 -41 -18 -14 -44 -46 -57 -70 -39 -74 -56
-48 -20 31 13 28 16 46 9 58 -7 12 -4 18 14 25 37 15 88 13 88 -3z m64 -51 c0
-22 -8 -98 -17 -170 -9 -71 -13 -150 -10 -175 8 -65 -13 -40 -33 39 -13 50
-15 83 -8 159 5 54 7 105 6 115 -3 29 27 79 46 75 13 -3 17 -13 16 -43z m-216
-24 c-19 -39 -20 -48 -9 -89 16 -60 -2 -82 -24 -29 -22 52 -19 84 12 133 35
54 50 43 21 -15z m6622 39 c0 -5 -4 -10 -10 -10 -5 0 -10 5 -10 10 0 6 5 10
10 10 6 0 10 -4 10 -10z m-310 -35 c0 -18 -4 -23 -15 -19 -15 6 -20 35 -9 47
12 11 24 -3 24 -28z m-5982 -6 c3 -29 -10 -43 -50 -53 -33 -8 -39 1 -31 48 6
36 7 37 42 34 30 -3 36 -7 39 -29z m6172 11 c0 -5 -5 -10 -11 -10 -5 0 -7 5
-4 10 3 6 8 10 11 10 2 0 4 -4 4 -10z m196 -46 c39 -19 46 -37 10 -28 -13 3
-27 1 -30 -5 -9 -14 -96 -14 -96 -1 0 11 58 50 73 50 5 0 24 -7 43 -16z m-792
-3 c4 -5 0 -22 -8 -38 -8 -15 -27 -54 -41 -86 -15 -32 -32 -56 -38 -54 -7 2
-15 26 -20 53 -8 57 7 121 32 127 30 8 70 7 75 -2z m-5971 -76 c15 -31 27 -69
27 -85 0 -27 3 -30 24 -24 21 5 27 -1 50 -52 30 -65 28 -84 -9 -84 -14 0 -66
-17 -116 -37 -109 -45 -111 -44 -132 82 -9 50 -22 116 -28 147 -16 71 -5 88
55 88 22 0 48 5 56 10 30 19 46 9 73 -45z m183 14 c-3 -17 -6 -42 -6 -56 0
-14 -4 -21 -10 -18 -5 3 -10 28 -10 56 0 39 3 49 16 49 13 0 15 -7 10 -31z
m2358 14 c3 -10 9 -44 15 -75 11 -62 30 -104 68 -156 14 -18 23 -34 22 -36 -2
-1 -24 -13 -49 -25 -54 -28 -108 -30 -179 -6 l-53 17 6 42 c5 34 3 48 -14 69
-16 20 -21 43 -23 98 l-2 71 85 5 c46 2 86 6 89 8 10 11 30 4 35 -12z m3994
-2 c10 -6 7 -10 -12 -13 -26 -5 -41 3 -29 16 9 8 25 7 41 -3z m-7188 -156 c17
-66 38 -143 46 -171 15 -53 18 -234 5 -268 -7 -18 -8 -18 -24 4 -9 13 -23 45
-31 70 -19 57 -50 225 -49 265 3 177 6 236 13 228 4 -4 22 -62 40 -128z m790
34 c0 -20 -4 -29 -12 -27 -15 5 -22 33 -14 54 9 24 26 6 26 -27z m-940 -44 c0
-9 9 -33 20 -55 11 -22 20 -42 20 -45 0 -8 -88 -45 -106 -45 -21 0 -18 53 7
111 15 34 27 49 40 49 11 0 19 -7 19 -15z m3517 -127 c15 -6 53 -15 83 -19
116 -17 136 -22 160 -39 14 -9 54 -27 90 -39 84 -30 91 -37 44 -50 -74 -19
-149 -23 -195 -11 -24 7 -85 12 -135 11 -61 -1 -107 4 -139 14 -42 15 -49 15
-64 1 -17 -15 -119 -46 -153 -46 -15 0 -18 9 -18 54 0 83 3 87 64 80 56 -6
151 14 188 40 27 19 38 20 75 4z m-1378 -124 c5 -5 12 -37 16 -71 l7 -63 -51
0 c-28 0 -66 -8 -86 -17 -19 -9 -38 -13 -42 -10 -3 4 -9 46 -11 93 l-5 87 82
-5 c45 -3 86 -9 90 -14z m-2449 -24 c0 -5 -5 -10 -11 -10 -5 0 -7 5 -4 10 3 6
8 10 11 10 2 0 4 -4 4 -10z m576 -28 c7 -4 13 -27 15 -52 4 -40 2 -45 -16 -45
-17 0 -20 8 -23 53 -3 51 1 59 24 44z m84 -78 c0 -8 -5 -12 -10 -9 -6 4 -8 11
-5 16 9 14 15 11 15 -7z m1807 -60 c24 -15 38 -62 28 -94 -4 -11 -21 -28 -38
-37 -18 -9 -65 -38 -106 -65 l-74 -49 6 53 c11 105 28 157 59 188 26 27 35 30
67 24 20 -3 46 -12 58 -20z m-1787 -21 c0 -13 -3 -13 -15 -3 -8 7 -12 16 -9
21 8 13 24 1 24 -18z m1844 -155 c16 -23 21 -83 10 -112 -7 -18 -49 -21 -89
-6 -37 14 -68 -10 -120 -90 -38 -59 -79 -112 -157 -204 -26 -31 -53 -30 -31 2
41 58 95 161 99 187 11 59 27 86 93 146 64 60 128 98 163 99 9 0 24 -10 32
-22z"/>
<path d="M6916 5351 c-21 -23 -15 -68 10 -78 21 -8 76 46 72 72 -4 29 -58 33
-82 6z"/>
<path d="M7825 5051 c-36 -15 -57 -47 -53 -83 3 -28 7 -33 31 -36 22 -3 37 6
69 37 38 39 40 42 26 64 -17 24 -42 31 -73 18z"/>
<path d="M6525 4940 c10 -11 20 -18 23 -15 7 6 -18 35 -31 35 -5 0 -2 -9 8
-20z"/>
<path d="M5844 4805 c-10 -8 -30 -15 -44 -15 -30 0 -70 -26 -70 -44 0 -7 -9
-21 -20 -31 -11 -10 -20 -22 -20 -27 0 -18 26 -6 61 28 21 20 49 37 65 39 39
5 104 22 112 30 9 9 -27 35 -48 35 -9 0 -25 -7 -36 -15z"/>
<path d="M5035 4769 c-11 -17 1 -21 15 -4 8 9 8 15 2 15 -6 0 -14 -5 -17 -11z"/>
<path d="M5251 4731 c-24 -23 -41 -44 -37 -48 4 -4 15 -2 24 5 9 7 36 22 59
34 40 20 42 21 75 4 18 -10 47 -25 63 -33 17 -9 40 -25 53 -36 16 -15 25 -18
33 -10 18 18 -24 68 -78 94 -26 12 -70 25 -97 27 -48 4 -53 2 -95 -37z"/>
<path d="M5820 4671 c-46 -14 -90 -41 -106 -66 -14 -22 -14 -26 2 -54 10 -17
32 -37 49 -45 38 -19 108 -10 131 15 21 23 2 26 -36 4 -26 -14 -75 -10 -97 8
-7 5 -13 20 -13 34 0 20 4 23 20 18 27 -8 58 10 62 37 4 29 36 34 78 13 20
-11 36 -13 42 -7 6 6 -10 17 -41 31 -54 23 -54 23 -91 12z"/>
<path d="M5301 4610 c-18 -4 -45 -20 -59 -34 l-26 -25 23 -46 c29 -58 56 -70
128 -55 61 13 101 43 105 80 5 39 -13 39 -26 0 -10 -32 -17 -36 -67 -49 -31
-8 -64 -11 -74 -7 -17 6 -17 8 4 29 13 15 21 36 21 60 0 34 2 37 28 37 15 0
38 -7 50 -16 18 -12 22 -13 22 -1 0 30 -61 43 -129 27z"/>
<path d="M6725 4600 c3 -5 11 -10 16 -10 6 0 7 5 4 10 -3 6 -11 10 -16 10 -6
0 -7 -4 -4 -10z"/>
<path d="M6830 4471 c5 -11 15 -23 20 -26 14 -9 12 19 -2 33 -19 19 -30 14
-18 -7z"/>
<path d="M5900 4401 c-19 -4 -46 -14 -60 -21 -23 -13 -44 -17 -130 -24 -24 -2
-36 -9 -39 -21 -5 -29 100 -15 177 24 34 17 72 31 85 31 44 0 99 -31 148 -81
31 -32 55 -49 71 -49 l23 1 -25 13 c-14 8 -40 33 -58 55 -55 68 -109 88 -192
72z"/>
<path d="M6605 4390 c10 -11 20 -18 23 -15 7 6 -18 35 -31 35 -5 0 -2 -9 8
-20z"/>
<path d="M6700 4291 c0 -13 29 -35 37 -28 7 8 -15 37 -28 37 -5 0 -9 -4 -9 -9z"/>
<path d="M7070 4265 c0 -15 18 -40 24 -34 3 3 -1 14 -9 25 -8 10 -14 15 -15 9z"/>
<path d="M6180 4240 c0 -5 5 -10 11 -10 5 0 7 5 4 10 -3 6 -8 10 -11 10 -2 0
-4 -4 -4 -10z"/>
<path d="M7200 3932 c0 -12 49 -56 55 -50 7 7 -34 58 -46 58 -5 0 -9 -4 -9 -8z"/>
<path d="M7265 3860 c3 -5 11 -10 16 -10 6 0 7 5 4 10 -3 6 -11 10 -16 10 -6
0 -7 -4 -4 -10z"/>
<path d="M7328 3805 c13 -25 52 -62 52 -48 0 5 -14 22 -31 39 -23 21 -29 23
-21 9z"/>
<path d="M4275 4809 c-4 -6 -4 -13 -1 -16 8 -8 36 5 36 17 0 13 -27 13 -35 -1z"/>
<path d="M7420 4510 c0 -5 5 -10 11 -10 5 0 7 5 4 10 -3 6 -8 10 -11 10 -2 0
-4 -4 -4 -10z"/>
<path d="M7640 3865 c7 -8 17 -15 22 -15 6 0 5 7 -2 15 -7 8 -17 15 -22 15 -6
0 -5 -7 2 -15z"/>
<path d="M6910 2936 c0 -7 11 -23 25 -36 25 -24 33 -14 15 19 -12 23 -40 35
-40 17z"/>
<path d="M5714 2866 c-9 -24 0 -51 19 -54 11 -2 17 3 17 16 0 44 -24 69 -36
38z"/>
<path d="M5727 2762 c-23 -26 -22 -52 3 -52 25 0 34 19 22 49 -8 22 -8 22 -25
3z"/>
<path d="M7130 3490 c0 -5 5 -10 11 -10 5 0 7 5 4 10 -3 6 -8 10 -11 10 -2 0
-4 -4 -4 -10z"/>
<path d="M7190 3395 c7 -9 15 -13 17 -11 7 7 -7 26 -19 26 -6 0 -6 -6 2 -15z"/>
<path d="M7210 3361 c0 -5 5 -13 10 -16 6 -3 10 -2 10 4 0 5 -4 13 -10 16 -5
3 -10 2 -10 -4z"/>
<path d="M7256 3275 c4 -8 8 -15 10 -15 2 0 4 7 4 15 0 8 -4 15 -10 15 -5 0
-7 -7 -4 -15z"/>
<path d="M4421 3311 c-8 -6 -9 -11 -3 -15 6 -3 14 -1 17 5 9 14 2 20 -14 10z"/>
<path d="M4257 3033 c-4 -3 -7 -11 -7 -17 0 -6 5 -5 12 2 6 6 9 14 7 17 -3 3
-9 2 -12 -2z"/>
<path d="M11442 2620 c-20 -9 -40 -36 -31 -44 2 -2 14 -7 27 -10 15 -5 22 -3
22 6 0 7 9 19 20 26 41 26 13 42 -38 22z"/>
<path d="M4140 2530 c0 -5 5 -10 10 -10 6 0 10 5 10 10 0 6 -4 10 -10 10 -5 0
-10 -4 -10 -10z"/>
<path d="M4061 2353 c-28 -60 -58 -121 -67 -137 -8 -16 -12 -31 -10 -34 10
-10 36 8 36 25 0 33 30 65 55 59 18 -5 28 3 54 45 30 46 35 79 12 79 -5 0 -17
-20 -27 -45 -9 -25 -23 -45 -30 -45 -23 0 -16 34 16 81 29 43 39 79 21 79 -4
0 -31 -48 -60 -107z"/>
<path d="M4062 2228 c-14 -14 -16 -38 -3 -38 5 0 14 7 21 15 17 20 0 41 -18
23z"/>
<path d="M4612 2610 c-5 -14 -20 -47 -31 -73 -22 -50 -27 -82 -13 -73 13 8 64
145 59 158 -3 8 -9 3 -15 -12z"/>
<path d="M6914 2148 c-4 -6 3 -19 16 -30 21 -17 25 -17 38 -4 13 12 13 18 2
30 -15 19 -46 21 -56 4z"/>
<path d="M6075 6351 c-52 -13 -175 -80 -175 -96 0 -21 36 -19 68 4 45 31 123
61 159 61 28 0 34 3 29 16 -3 9 -6 18 -6 20 0 6 -40 3 -75 -5z"/>
<path d="M6010 6132 c-39 -13 -74 -17 -124 -14 -63 4 -70 3 -87 -19 -30 -39
-23 -51 16 -28 29 18 40 19 66 10 38 -13 81 -14 95 -3 5 5 34 14 64 21 48 11
64 11 115 -3 81 -23 79 -22 84 -11 7 15 -78 54 -129 60 -29 3 -64 -1 -100 -13z"/>
<path d="M5366 6110 c-68 -22 -96 -44 -79 -61 8 -8 29 -5 77 11 l66 22 41 -21
c49 -26 64 -26 125 -2 27 11 70 22 97 26 26 3 47 11 47 16 0 18 -55 31 -105
24 -61 -7 -106 -8 -165 -1 -29 3 -66 -2 -104 -14z"/>
<path d="M3802 5681 c-42 -7 -82 -34 -69 -47 3 -3 20 -1 38 5 47 16 73 14 103
-10 23 -18 26 -26 20 -52 -7 -34 -12 -35 101 9 39 15 93 29 121 31 58 5 158
-17 217 -47 45 -24 47 -24 47 -5 0 21 -105 85 -168 103 -48 14 -59 13 -112 -1
-78 -22 -114 -21 -178 3 -29 11 -58 19 -65 19 -6 -1 -31 -5 -55 -8z"/>
<path d="M2884 5559 c-10 -17 13 -34 107 -82 97 -50 383 -276 368 -291 -3 -3
-30 -10 -59 -16 -121 -23 -150 -38 -131 -69 6 -8 15 -6 34 9 14 12 52 26 84
31 112 20 127 24 130 36 3 7 -13 23 -34 36 -62 39 -188 166 -177 177 12 12
184 -65 314 -142 52 -31 138 -81 190 -111 123 -72 180 -113 180 -132 0 -20 19
-19 27 1 7 18 -33 64 -57 64 -9 0 -29 14 -44 31 -15 17 -52 41 -81 54 -29 13
-78 40 -108 59 -31 20 -60 36 -65 36 -5 0 -29 15 -53 34 -47 35 -277 146 -304
146 -9 0 -32 8 -53 19 -20 10 -68 31 -106 46 -39 15 -87 38 -108 51 -43 27
-44 28 -54 13z"/>
<path d="M11190 5551 c0 -19 23 -35 34 -24 14 15 5 43 -14 43 -13 0 -20 -7
-20 -19z"/>
<path d="M4094 5321 c-41 -10 -54 -19 -54 -38 0 -11 6 -14 21 -10 27 7 129
-30 151 -56 22 -24 62 -17 79 14 15 30 88 60 112 47 23 -12 102 -16 113 -5 4
4 0 15 -9 24 -25 25 -126 29 -211 8 -71 -18 -72 -18 -113 4 -23 11 -46 21 -50
20 -4 -1 -22 -4 -39 -8z"/>
<path d="M10720 5050 c-76 -27 -215 -60 -253 -60 -34 0 -66 -15 -55 -25 14
-15 367 66 417 95 30 18 -51 10 -109 -10z"/>
<path d="M10758 4714 c-116 -114 -141 -144 -122 -144 8 0 256 239 267 257 5 8
3 13 -5 13 -7 0 -70 -57 -140 -126z"/>
<path d="M10580 4550 c0 -5 5 -10 10 -10 6 0 10 5 10 10 0 6 -4 10 -10 10 -5
0 -10 -4 -10 -10z"/>
<path d="M10504 4502 c-66 -49 -192 -171 -215 -210 -12 -20 -36 -52 -52 -69
-17 -18 -28 -36 -24 -39 9 -10 45 23 72 66 31 48 204 230 219 230 7 0 23 11
36 25 31 34 12 32 -36 -3z"/>
<path d="M8157 4158 c-14 -18 -34 -52 -46 -75 -11 -23 -33 -59 -47 -80 -33
-48 -104 -188 -104 -205 0 -16 55 66 105 157 22 39 53 93 71 120 46 73 66 115
55 115 -6 0 -21 -15 -34 -32z"/>
<path d="M9595 4130 c-3 -5 -1 -10 4 -10 6 0 11 5 11 10 0 6 -2 10 -4 10 -3 0
-8 -4 -11 -10z"/>
<path d="M3517 4103 c-11 -10 -8 -53 3 -53 6 0 10 6 10 14 0 23 20 30 37 13
12 -11 13 -19 4 -36 -9 -16 -9 -21 2 -21 42 0 51 65 11 80 -29 12 -58 13 -67
3z"/>
<path d="M8328 3958 c-50 -17 -29 -84 24 -76 18 2 24 10 26 39 3 42 -9 51 -50
37z m32 -34 c0 -8 -7 -14 -15 -14 -15 0 -21 21 -9 33 10 9 24 -2 24 -19z"/>
<path d="M1022 3708 c-6 -18 -12 -44 -15 -56 -11 -48 13 -138 63 -237 44 -89
50 -109 56 -185 7 -86 7 -86 -21 -104 -27 -18 -29 -18 -58 -1 -32 19 -88 22
-173 10 -68 -10 -127 19 -144 69 -6 19 -17 36 -24 39 -7 3 -22 32 -35 65 -28
77 -52 108 -74 96 -26 -15 -67 -76 -67 -100 0 -29 -50 -70 -128 -106 -67 -29
-97 -34 -121 -19 -22 14 -51 -5 -51 -33 0 -32 32 -57 140 -108 132 -63 161
-95 173 -189 6 -44 5 -48 -33 -82 -30 -26 -40 -43 -40 -66 0 -21 -6 -32 -20
-36 -11 -4 -34 -18 -51 -32 l-31 -26 -51 18 c-55 19 -136 69 -150 92 -10 17
-90 53 -133 60 -27 4 -34 2 -34 -11 0 -10 15 -19 45 -27 25 -6 64 -26 88 -44
103 -78 170 -112 234 -119 60 -7 63 -6 69 18 7 28 14 32 78 41 50 8 56 18 28
48 -14 17 -15 21 -2 25 8 3 27 17 42 32 l26 27 -13 65 c-24 114 -42 145 -104
188 -32 21 -74 45 -94 54 -46 19 -50 49 -8 70 16 9 31 12 35 9 3 -3 14 1 24
10 10 9 36 23 58 30 33 12 42 21 57 63 10 27 25 56 33 64 14 13 17 13 30 -4 8
-11 14 -26 14 -35 0 -8 7 -22 15 -31 8 -9 25 -36 38 -61 13 -24 41 -57 63 -72
34 -24 49 -27 99 -26 147 4 155 3 198 -27 44 -31 107 -125 107 -161 0 -12 34
-72 75 -134 41 -62 75 -121 75 -130 0 -12 12 -19 38 -24 54 -9 133 -47 174
-84 55 -48 123 -221 87 -221 -7 0 -43 9 -82 21 -91 27 -99 19 -83 -83 6 -37 4
-48 -6 -48 -17 0 -105 89 -122 121 -9 19 -26 26 -92 39 -46 9 -104 30 -135 47
-30 17 -85 43 -124 57 -117 45 -150 63 -238 136 -31 25 -68 64 -82 87 -15 24
-32 40 -37 37 -19 -12 6 -51 78 -124 73 -75 74 -76 62 -107 -11 -29 -10 -36
10 -63 12 -16 31 -43 42 -58 32 -43 18 -65 -34 -57 -112 18 -184 37 -209 56
-28 20 -160 79 -179 79 -4 0 -49 16 -98 35 -87 34 -145 69 -237 143 l-43 34 0
-34 c0 -32 6 -38 93 -96 90 -59 219 -122 251 -122 9 0 57 -20 108 -44 51 -24
104 -47 118 -51 14 -4 36 -14 49 -23 33 -20 158 -19 200 3 44 22 43 65 -4 116
-35 39 -43 63 -26 73 13 9 75 -16 213 -82 136 -66 183 -82 245 -82 38 0 44 -3
59 -36 15 -32 39 -55 113 -112 l24 -19 -27 -57 c-15 -31 -25 -60 -22 -65 3 -4
-1 -17 -9 -27 -8 -10 -15 -33 -15 -50 0 -21 -8 -36 -28 -51 -37 -27 -62 -80
-62 -130 0 -32 7 -45 45 -83 24 -25 63 -67 86 -93 23 -26 68 -67 99 -90 50
-38 65 -44 148 -56 58 -9 92 -18 92 -26 0 -13 -99 -42 -240 -71 -47 -9 -99
-25 -115 -34 -43 -23 -149 -54 -295 -86 -93 -20 -157 -27 -250 -28 -97 -1
-132 -6 -157 -19 -18 -10 -33 -22 -33 -28 0 -17 31 -23 64 -11 17 6 99 18 181
27 83 10 201 30 264 46 63 16 124 29 135 29 12 0 26 4 31 9 17 15 137 51 171
51 17 0 37 6 43 14 7 8 101 35 209 61 108 25 234 55 279 66 89 20 159 24 183
9 11 -7 9 -11 -13 -19 -16 -6 -41 -11 -56 -11 -15 0 -36 -7 -47 -15 -10 -8
-40 -15 -66 -15 -26 0 -62 -6 -80 -14 -33 -14 -148 -49 -203 -61 -16 -3 -68
-22 -115 -42 -148 -61 -174 -71 -210 -78 -19 -4 -48 -10 -65 -15 -16 -5 -61
-14 -100 -21 -38 -6 -82 -18 -98 -26 -26 -13 -93 -20 -267 -27 -42 -2 -86 -8
-98 -15 -12 -6 -35 -10 -51 -9 -16 1 -36 -4 -45 -11 -41 -34 1 -47 89 -26 36
8 96 15 132 15 60 0 104 8 308 55 39 9 81 18 95 20 14 3 48 11 75 19 28 7 76
21 107 30 32 8 77 24 100 35 54 24 194 71 212 71 15 0 107 27 141 40 79 33
335 68 590 81 22 1 63 8 90 15 28 7 88 17 135 23 226 27 282 33 372 38 104 6
134 16 108 33 -8 6 -24 8 -35 5 -11 -4 -49 -8 -85 -11 -214 -16 -317 -27 -416
-45 -61 -10 -126 -19 -145 -18 -19 0 -68 -4 -110 -9 -102 -14 -201 -9 -214 12
-14 23 4 36 56 41 49 5 181 20 309 35 47 5 115 10 152 10 60 0 127 14 117 25
-2 2 -63 0 -134 -5 -77 -5 -134 -5 -139 0 -6 6 -5 18 3 32 45 85 73 122 110
149 23 17 50 48 60 68 11 20 28 45 40 55 12 11 21 25 21 33 0 8 9 31 20 53 11
22 20 53 20 70 0 17 4 39 9 48 14 28 -7 78 -44 106 -19 15 -35 33 -35 40 0 8
-12 34 -26 60 -17 31 -32 46 -46 46 -11 0 -31 11 -44 25 -22 24 -50 30 -112
25 -13 -1 -30 4 -39 12 -9 7 -39 14 -67 15 -28 1 -97 5 -152 8 -79 6 -113 4
-157 -9 -30 -9 -75 -16 -100 -16 -24 0 -62 -7 -83 -16 -23 -10 -53 -14 -76
-11 -48 6 -134 -16 -162 -42 -11 -11 -34 -21 -50 -23 -32 -3 -31 -5 -66 132
-9 33 -26 58 -64 95 -58 55 -74 65 -159 96 -51 18 -65 30 -108 88 -62 83 -70
108 -39 133 34 27 70 22 143 -22 36 -22 77 -40 91 -40 27 0 66 41 66 70 0 9
-24 47 -52 84 -29 37 -62 84 -74 105 -11 20 -44 66 -72 102 -49 60 -162 262
-162 290 0 7 -13 33 -28 58 -16 25 -48 92 -73 148 -48 112 -70 129 -87 71z
m78 -132 c0 -13 9 -35 20 -49 11 -14 20 -31 20 -39 0 -7 18 -42 40 -78 22 -36
40 -72 40 -81 0 -9 11 -33 25 -53 14 -21 34 -54 44 -75 11 -20 27 -43 35 -51
9 -7 38 -49 66 -94 27 -44 67 -103 89 -130 43 -51 53 -94 27 -115 -11 -10 -32
-3 -98 33 -87 47 -115 54 -149 36 -28 -15 -55 3 -69 45 -15 45 -56 119 -75
135 -23 19 -18 30 20 46 l36 15 -6 77 c-7 86 -17 121 -53 202 -14 30 -25 58
-24 61 0 3 -6 28 -14 54 -19 66 -18 85 6 85 14 0 20 -7 20 -24z m1246 -1201
c-26 -19 -42 -19 -26 0 7 8 20 15 29 15 13 -1 13 -3 -3 -15z m-67 -4 c19 -12
7 -39 -43 -93 -42 -46 -77 -60 -91 -37 -4 5 0 18 10 29 9 10 19 30 24 45 4 17
20 35 41 47 40 21 40 21 59 9z m220 -5 c9 -11 6 -15 -14 -20 -27 -7 -45 -1
-45 14 0 7 14 14 41 19 4 0 12 -5 18 -13z m-490 -36 c-22 -14 -34 2 -13 17 13
10 20 10 23 2 2 -6 -3 -15 -10 -19z m411 12 c0 -11 -11 -24 -25 -30 -14 -6
-44 -29 -68 -51 -38 -35 -44 -38 -62 -25 -10 8 -14 14 -8 14 6 0 20 16 32 35
13 22 37 43 63 55 54 25 68 25 68 2z m-290 1 c0 -3 -7 -14 -16 -24 -14 -16
-14 -18 5 -24 26 -8 26 -17 2 -39 -21 -19 -35 -8 -24 19 4 13 2 16 -8 13 -8
-2 -15 -19 -17 -36 -4 -40 -17 -41 -37 -2 -21 41 -19 55 11 79 25 20 84 29 84
14z m418 -24 c2 -14 -54 -49 -78 -49 -22 0 -8 32 23 50 35 22 50 21 55 -1z
m77 11 c3 -5 -3 -10 -14 -10 -12 0 -21 5 -21 10 0 6 6 10 14 10 8 0 18 -4 21
-10z m-1062 -36 c26 -9 47 -20 47 -25 0 -5 -13 -17 -30 -27 -16 -10 -39 -30
-50 -45 -36 -45 -43 -37 -55 61 -7 50 -6 52 17 52 14 0 45 -7 71 -16z m1126 7
c12 -8 12 -15 4 -33 -9 -20 -18 -23 -64 -23 -47 0 -54 2 -54 20 0 30 82 56
114 36z m71 -12 c0 -12 -29 -24 -37 -16 -3 4 -3 13 0 21 6 16 37 11 37 -5z
m-346 -18 c9 -10 14 -25 10 -35 -8 -21 -20 -20 -33 1 -7 14 -12 15 -24 5 -22
-18 -29 1 -11 26 19 27 36 28 58 3z m-499 -21 c-5 -8 -11 -8 -17 -2 -6 6 -7
16 -3 22 5 8 11 8 17 2 6 -6 7 -16 3 -22z m631 1 c-8 -12 -46 -15 -46 -5 0 4
8 13 18 20 18 14 39 3 28 -15z m-566 -6 c0 -8 -4 -15 -10 -15 -5 0 -10 7 -10
15 0 8 5 15 10 15 6 0 10 -7 10 -15z m775 -15 c9 -14 -37 -31 -50 -19 -6 7 -5
13 5 19 20 13 37 12 45 0z m-960 -10 c3 -5 1 -10 -4 -10 -6 0 -11 5 -11 10 0
6 2 10 4 10 3 0 8 -4 11 -10z m785 -20 c8 -16 6 -22 -14 -35 -15 -10 -33 -14
-46 -10 -27 9 -20 30 11 31 42 2 45 4 25 19 -17 13 -17 15 -3 15 9 0 21 -9 27
-20z m-404 -11 c10 -17 -13 -36 -27 -22 -12 12 -4 33 11 33 5 0 12 -5 16 -11z
m490 -2 c17 6 17 1 2 -32 -19 -42 -88 -69 -88 -35 0 5 16 14 35 20 35 12 44
23 25 35 -5 3 -10 11 -10 18 0 8 3 8 11 0 6 -6 18 -9 25 -6z m-176 -33 c0 -13
-4 -24 -10 -24 -5 0 -10 14 -10 31 0 17 4 28 10 24 6 -3 10 -17 10 -31z m320
12 c0 -17 -22 -26 -65 -26 -44 0 -53 15 -18 28 42 15 83 14 83 -2z m-1041 -7
c45 -16 38 -29 -15 -29 -47 0 -84 13 -84 30 0 13 60 13 99 -1z m1095 -5 c15
-6 24 -44 10 -44 -18 0 -42 22 -38 35 7 17 7 17 28 9z m-1326 -37 c4 -19 -6
-21 -27 -8 -16 10 -5 34 12 28 7 -2 13 -11 15 -20z m52 4 c0 -11 -4 -23 -10
-26 -6 -4 -10 5 -10 19 0 14 5 26 10 26 6 0 10 -9 10 -19z m840 10 c0 -5 -7
-14 -15 -21 -13 -10 -15 -9 -15 9 0 12 6 21 15 21 8 0 15 -4 15 -9z m-956 -32
c-3 -5 -10 -7 -15 -3 -5 3 -7 10 -3 15 3 5 10 7 15 3 5 -3 7 -10 3 -15z m1241
11 c18 -7 18 -8 -8 -15 -30 -8 -43 -2 -32 14 7 13 12 13 40 1z m124 -10 c13
-7 17 -17 13 -36 -5 -25 -7 -26 -49 -20 -24 3 -54 11 -66 18 -22 13 -22 13 6
16 16 2 31 10 34 18 6 16 36 18 62 4z m-919 -31 c0 -6 -4 -7 -10 -4 -5 3 -10
11 -10 16 0 6 5 7 10 4 6 -3 10 -11 10 -16z m-235 -12 c17 -13 17 -15 -6 -30
-29 -21 -53 -22 -68 -3 -12 14 -2 27 29 39 23 8 25 8 45 -6z m775 -7 c0 -5 -7
-10 -15 -10 -8 0 -15 5 -15 10 0 6 7 10 15 10 8 0 15 -4 15 -10z m90 -50 c0
-10 -6 -21 -12 -23 -10 -4 -9 -8 2 -16 8 -5 11 -14 6 -18 -4 -4 -17 3 -28 17
-18 22 -18 25 -4 36 9 6 16 17 16 23 0 7 5 9 10 6 6 -3 10 -15 10 -25z m-819
7 c-1 -12 -15 -9 -19 4 -3 6 1 10 8 8 6 -3 11 -8 11 -12z m319 -3 c0 -8 -4
-12 -10 -9 -5 3 -10 10 -10 16 0 5 5 9 10 9 6 0 10 -7 10 -16z m600 12 c0 -11
-19 -15 -25 -6 -3 5 1 10 9 10 9 0 16 -2 16 -4z m-1165 -16 c-3 -5 -11 -10
-16 -10 -6 0 -7 5 -4 10 3 6 11 10 16 10 6 0 7 -4 4 -10z m725 -4 c0 -8 -4
-18 -10 -21 -5 -3 -10 3 -10 14 0 12 5 21 10 21 6 0 10 -6 10 -14z m620 -15
c5 -11 10 -33 10 -50 0 -39 -25 -42 -34 -3 -3 15 -8 37 -12 50 -8 28 21 31 36
3z m-1235 -1 c3 -5 1 -10 -4 -10 -6 0 -11 5 -11 10 0 6 2 10 4 10 3 0 8 -4 11
-10z m655 1 c0 -5 -7 -14 -15 -21 -16 -14 -18 -10 -9 14 6 17 24 22 24 7z
m234 0 c7 -10 -22 -37 -30 -28 -9 8 3 37 15 37 5 0 12 -4 15 -9z m276 -6 c17
-21 3 -36 -28 -29 -40 10 -63 24 -57 35 9 14 71 11 85 -6z m-740 -5 c0 -5 -4
-10 -10 -10 -5 0 -10 5 -10 10 0 6 5 10 10 10 6 0 10 -4 10 -10z m-190 -30 c0
-21 -15 -27 -25 -10 -7 12 2 30 16 30 5 0 9 -9 9 -20z m-105 0 c3 -5 -1 -10
-9 -10 -9 0 -16 5 -16 10 0 6 4 10 9 10 6 0 13 -4 16 -10z m885 -12 c0 -13
-23 -5 -28 10 -2 7 2 10 12 6 9 -3 16 -11 16 -16z m100 -9 c3 -3 19 -10 35
-16 47 -15 38 -37 -18 -41 -37 -2 -49 1 -54 14 -4 10 0 22 11 30 16 11 16 13
-5 16 -12 2 -24 9 -27 16 -3 10 2 10 25 0 15 -7 30 -15 33 -19z m-330 2 c0
-14 -23 -28 -60 -36 l-35 -7 24 26 c23 25 71 36 71 17z m154 0 c7 -10 -22 -37
-30 -28 -9 8 3 37 15 37 5 0 12 -4 15 -9z m110 -36 c3 -8 1 -15 -4 -15 -6 0
-10 7 -10 15 0 8 2 15 4 15 2 0 6 -7 10 -15z m-991 -30 c-3 -8 -9 -15 -14 -15
-10 0 -12 24 -3 33 11 11 24 -3 17 -18z m467 -12 c0 -20 -3 -24 -11 -16 -7 7
-9 19 -6 27 10 24 17 19 17 -11z m63 1 c-4 -10 -9 -12 -15 -6 -12 12 -1 35 12
27 5 -3 6 -13 3 -21z m59 -9 c-3 -16 -11 -25 -23 -25 -23 0 -24 9 -3 38 19 28
33 21 26 -13z m246 -24 c4 -27 -14 -28 -21 0 -3 12 -10 18 -16 15 -12 -8 -24
11 -16 25 10 15 49 -14 53 -40z m162 31 c37 -18 50 -46 27 -55 -18 -7 -100 51
-91 64 8 13 24 11 64 -9z m-318 -34 c-9 -9 -12 -7 -12 12 0 19 3 21 12 12 9
-9 9 -15 0 -24z m48 22 c0 -5 -2 -10 -4 -10 -3 0 -8 5 -11 10 -3 6 -1 10 4 10
6 0 11 -4 11 -10z m350 -21 c0 -5 -4 -9 -10 -9 -5 0 -10 7 -10 16 0 8 5 12 10
9 6 -3 10 -10 10 -16z m-1384 -25 c1 -16 6 -41 12 -56 9 -22 9 -28 -2 -28 -18
0 -36 44 -36 86 0 44 24 42 26 -2z m1217 -8 c9 -7 17 -23 17 -35 0 -18 -5 -22
-27 -19 -28 3 -40 25 -29 54 7 17 16 17 39 0z m-187 -10 c22 -17 11 -35 -13
-20 -19 12 -29 34 -16 34 5 0 18 -6 29 -14z m-906 0 c0 -3 -4 -8 -10 -11 -5
-3 -10 -1 -10 4 0 6 5 11 10 11 6 0 10 -2 10 -4z m70 0 c0 -3 -4 -8 -10 -11
-5 -3 -10 -1 -10 4 0 6 5 11 10 11 6 0 10 -2 10 -4z m1100 -16 c0 -11 -7 -20
-15 -20 -8 0 -15 9 -15 20 0 11 7 20 15 20 8 0 15 -9 15 -20z m-860 -10 c0 -5
-7 -10 -16 -10 -8 0 -12 5 -9 10 3 6 10 10 16 10 5 0 9 -4 9 -10z m-320 -29
c0 -17 -18 -21 -24 -6 -3 9 0 15 9 15 8 0 15 -4 15 -9z m1041 -10 c21 -16 22
-22 11 -45 -14 -30 -31 -33 -62 -8 -18 15 -20 21 -11 45 12 32 30 34 62 8z
m-911 -26 c0 -18 -5 -25 -19 -25 -11 0 -21 6 -24 13 -7 20 4 37 24 37 14 0 19
-7 19 -25z m630 -1 c0 -31 -23 -28 -28 4 -2 15 2 22 12 22 11 0 16 -9 16 -26z
m365 16 c8 -12 -25 -61 -36 -54 -5 3 -9 18 -9 35 0 22 5 29 19 29 11 0 23 -4
26 -10z m55 -10 c0 -11 -4 -20 -9 -20 -14 0 -23 18 -16 30 10 17 25 11 25 -10z
m-790 -15 c0 -17 -17 -28 -30 -20 -7 4 -7 13 0 26 12 21 30 17 30 -6z m540
-25 c0 -11 -4 -20 -8 -20 -15 0 -44 38 -37 49 10 17 45 -6 45 -29z m-305 -30
c3 -5 2 -10 -4 -10 -5 0 -13 5 -16 10 -3 6 -2 10 4 10 5 0 13 -4 16 -10z m379
0 c35 -13 34 -32 -1 -24 -37 9 -44 14 -38 25 8 11 8 11 39 -1z m-574 -67 c0
-8 -14 -13 -39 -13 -21 0 -43 6 -49 13 -8 9 1 12 39 12 33 0 49 -4 49 -12z
m75 -72 c-17 -15 -95 -18 -95 -4 0 9 16 13 52 13 31 0 48 -4 43 -9z"/>
<path d="M8236 3621 c-3 -5 0 -14 7 -19 9 -8 16 -6 25 9 11 16 9 19 -7 19 -11
0 -22 -4 -25 -9z"/>
<path d="M3976 3191 c-4 -7 -5 -15 -2 -18 9 -9 19 4 14 18 -4 11 -6 11 -12 0z"/>
<path d="M10509 2739 c-11 -6 -11 -11 -2 -20 12 -12 43 -6 43 10 0 14 -25 20
-41 10z"/>
<path d="M3177 2632 c-21 -22 -24 -31 -15 -40 19 -19 46 -14 64 13 13 20 14
28 4 40 -17 20 -22 19 -53 -13z"/>
<path d="M12215 2551 c-72 -18 -155 -55 -155 -70 0 -4 37 5 82 20 45 16 101
31 125 35 27 4 43 11 43 20 0 17 -6 17 -95 -5z"/>
<path d="M1400 2499 c0 -20 21 -49 35 -49 18 0 20 31 3 48 -15 15 -38 16 -38
1z"/>
<path d="M11993 2450 c-30 -18 -44 -40 -26 -40 11 0 73 44 73 53 0 12 -13 8
-47 -13z"/>
<path d="M12555 2438 c-55 -4 -120 -10 -145 -13 -25 -3 -85 -7 -135 -8 -94 -3
-174 -22 -158 -38 6 -6 19 -6 34 -1 13 5 87 10 164 11 364 4 385 6 385 35 0
19 -31 22 -145 14z"/>
<path d="M12035 2370 c-3 -6 5 -10 19 -10 14 0 28 5 31 10 3 6 -5 10 -19 10
-14 0 -28 -4 -31 -10z"/>
<path d="M12723 2360 c-57 -17 -79 -33 -69 -48 9 -16 136 29 136 47 0 18 -14
18 -67 1z"/>
<path d="M7418 2083 c6 -2 18 -2 25 0 6 3 1 5 -13 5 -14 0 -19 -2 -12 -5z"/>
<path d="M9964 1365 c-4 -8 -15 -15 -25 -15 -32 0 -106 -76 -123 -127 -17 -48
-13 -65 23 -97 34 -30 36 -70 7 -120 -30 -52 -26 -78 20 -106 37 -23 36 -45
-2 -54 -28 -7 -94 -71 -94 -91 0 -14 47 -31 104 -37 34 -3 49 -28 17 -28 -12
0 -21 -5 -21 -10 0 -16 27 -23 55 -16 19 5 25 13 25 35 0 27 -5 31 -62 48 -82
24 -85 47 -10 75 29 11 60 30 69 44 14 23 14 26 -1 43 -24 26 -20 38 16 50 53
19 20 31 -42 15 -88 -23 -91 6 -8 66 40 29 40 43 2 34 -28 -7 -33 16 -9 36 8
7 15 25 15 41 0 22 9 35 40 55 43 29 52 45 20 37 -23 -6 -56 -36 -87 -78 -21
-29 -22 -30 -37 -10 -24 32 -20 81 12 121 34 44 70 64 117 64 37 0 43 8 23 28
-16 16 -37 15 -44 -3z m-52 -447 c-9 -9 -12 -7 -12 12 0 19 3 21 12 12 9 -9 9
-15 0 -24z"/>
<path d="M4070 1020 c0 -5 5 -10 10 -10 6 0 10 5 10 10 0 6 -4 10 -10 10 -5 0
-10 -4 -10 -10z"/>
</g>
</svg>
