<?xml version="1.0" standalone="no"?>
<!DOCTYPE svg PUBLIC "-//W3C//DTD SVG 20010904//EN"
 "http://www.w3.org/TR/2001/REC-SVG-20010904/DTD/svg10.dtd">
<svg version="1.0" xmlns="http://www.w3.org/2000/svg"
 width="1280.000000pt" height="640.000000pt" viewBox="0 0 1280.000000 640.000000"
 preserveAspectRatio="xMidYMid meet">
<metadata>
Created by potrace 1.15, written by Peter Selinger 2001-2017
</metadata>
<g transform="translate(0.000000,640.000000) scale(0.100000,-0.100000)"
fill="#000000" stroke="none">
<path d="M8960 6190 c-184 -78 -259 -101 -395 -120 -77 -11 -170 -25 -206 -30
-37 -5 -122 -26 -190 -46 -68 -20 -144 -41 -169 -46 -106 -25 -249 -156 -291
-268 -11 -30 -28 -73 -38 -95 -10 -22 -26 -62 -36 -88 -9 -26 -28 -61 -41 -76
-24 -29 -122 -289 -148 -396 -39 -160 -40 -346 0 -487 69 -249 70 -268 23
-268 -38 0 -150 -69 -309 -190 -36 -27 -69 -49 -73 -50 -5 0 -22 -9 -37 -20
-42 -30 -169 -82 -181 -74 -21 13 -699 2 -742 -12 -10 -3 -30 2 -44 11 l-26
17 8 132 c10 167 10 163 -2 281 -15 144 -62 243 -135 281 -15 8 -36 14 -46 14
-35 0 -42 49 -15 105 16 34 16 36 -5 58 -32 34 -150 71 -197 63 -43 -8 -135
-91 -135 -122 0 -11 11 -31 25 -44 37 -34 28 -80 -15 -80 -26 0 -105 -55 -134
-93 l-26 -34 -6 -324 -6 -324 -24 -26 c-13 -14 -24 -33 -24 -43 0 -10 -13 -42
-30 -71 -30 -52 -30 -52 -14 -99 9 -26 23 -50 30 -53 8 -3 14 -13 14 -22 0
-37 23 -93 47 -116 l27 -24 -12 -114 c-17 -161 -16 -211 6 -229 65 -57 290
-138 383 -138 76 0 126 21 180 73 30 29 71 63 91 75 46 28 65 77 49 124 -13
38 -14 267 -1 288 7 12 17 12 57 2 26 -6 91 -16 143 -22 52 -6 113 -15 135
-20 22 -5 111 -13 197 -16 154 -7 333 9 424 37 17 5 38 9 48 9 20 0 19 -11 -7
-110 -23 -82 -55 -247 -62 -316 l-7 -61 -51 -7 c-29 -3 -99 -6 -157 -7 -174
-3 -255 -12 -255 -29 0 -21 71 -22 220 -4 156 20 248 16 253 -9 6 -30 -7 -67
-23 -67 -8 0 -23 -9 -34 -21 -15 -16 -39 -23 -100 -30 -78 -9 -191 -44 -231
-72 -24 -17 -86 -95 -129 -164 -33 -54 -73 -172 -116 -343 -24 -96 -59 -217
-120 -415 -49 -156 -63 -219 -54 -242 4 -11 9 -59 10 -107 l3 -87 -32 -19
c-31 -19 -92 -94 -92 -112 0 -22 -45 -71 -105 -113 -65 -47 -96 -56 -244 -75
-109 -14 -193 -37 -251 -69 -30 -17 -61 -31 -68 -31 -7 0 -37 -17 -68 -37 -67
-45 -70 -69 -6 -65 51 3 122 -14 122 -29 0 -6 -20 -34 -45 -61 -25 -28 -45
-53 -45 -58 0 -4 9 -15 19 -24 26 -23 275 -35 312 -15 14 7 72 14 134 16 60 2
151 9 200 15 50 6 127 13 172 15 73 4 85 3 109 -16 21 -17 35 -20 67 -14 32 5
43 2 53 -12 12 -16 20 -17 71 -8 37 7 363 10 898 9 655 -2 858 1 920 11 44 7
98 13 120 13 22 0 47 4 55 10 9 6 19 5 28 -3 12 -10 101 -16 317 -21 33 0 175
3 315 7 321 11 413 9 461 -7 31 -11 41 -11 49 -1 11 13 104 24 246 30 43 1 93
8 109 15 31 13 244 17 359 6 37 -3 65 -1 73 6 19 15 16 54 -4 64 -10 4 -135 9
-278 11 -143 1 -276 2 -296 3 -32 0 -38 4 -54 39 -9 22 -15 43 -12 48 3 5 -5
30 -18 56 -13 26 -24 59 -23 74 0 16 -7 82 -17 147 -14 94 -15 126 -6 151 6
17 11 45 11 61 0 16 5 45 10 64 13 46 -1 81 -48 114 -45 30 -127 66 -152 66
-10 0 -21 4 -24 8 -7 12 30 29 79 37 22 4 46 11 53 17 8 7 16 7 25 0 7 -6 121
-12 287 -16 419 -8 483 -19 550 -91 14 -15 58 -43 98 -61 109 -52 118 -54 137
-40 17 12 17 16 2 62 -9 27 -17 65 -19 84 -3 31 1 37 30 49 35 16 38 34 6 39
-10 1 -30 5 -44 8 -25 6 -25 6 -5 21 14 11 16 17 7 20 -31 12 -42 36 -42 94 0
40 4 59 13 60 6 1 60 3 118 4 107 2 134 8 123 26 -4 6 -47 7 -115 3 -84 -5
-112 -4 -125 7 -17 14 -17 7 1 439 1 36 6 118 10 182 5 77 3 177 -5 288 -13
160 -12 171 5 190 16 17 16 23 4 52 -7 18 -14 53 -15 78 0 39 -13 132 -53 385
-5 33 -17 95 -26 137 -22 103 -18 130 19 139 29 8 425 20 726 23 146 1 231 13
272 40 89 55 248 75 374 46 l61 -13 13 -89 c10 -71 10 -91 0 -103 -10 -12 -10
-21 -1 -41 8 -18 10 -70 6 -168 -3 -77 -7 -280 -10 -451 -2 -196 -9 -354 -19
-429 -9 -65 -13 -123 -10 -127 4 -8 15 -370 14 -464 -1 -22 -6 -43 -13 -47
-18 -11 -100 -20 -173 -18 -181 5 -575 -18 -592 -34 -3 -4 0 -12 7 -19 14 -14
290 -12 331 3 14 5 86 11 160 14 74 3 158 8 185 11 35 5 55 2 68 -7 18 -13 18
-16 -4 -63 -13 -28 -25 -52 -27 -55 -2 -3 -14 7 -25 22 -20 24 -63 48 -88 48
-20 0 -8 -31 16 -40 23 -9 82 -87 72 -96 -2 -3 -46 -13 -97 -22 -118 -22 -129
-40 -28 -44 66 -3 73 -5 76 -25 2 -15 -8 -30 -34 -50 -41 -31 -94 -98 -94
-120 0 -26 25 -12 58 33 27 37 38 45 60 42 27 -3 27 -4 32 -98 4 -76 8 -95 20
-95 11 0 16 13 17 45 5 95 11 108 51 120 53 14 58 13 81 -16 15 -19 21 -41 21
-80 0 -63 7 -84 28 -84 13 0 14 14 8 100 l-6 101 37 15 c25 11 50 14 80 9 35
-5 43 -3 43 9 0 17 -56 36 -107 36 -41 0 -63 9 -63 26 0 18 88 74 118 74 12 0
22 6 22 14 0 25 -41 26 -91 0 -58 -29 -69 -30 -69 -5 0 19 35 49 109 92 25 15
31 23 22 32 -8 8 -23 7 -59 -7 -68 -26 -75 -25 -95 14 -17 34 -17 35 4 52 13
11 36 17 60 16 78 -3 60 26 -23 37 l-49 7 2 202 c1 110 -2 256 -5 324 -5 98
-3 127 8 145 11 16 13 32 7 59 -5 20 -7 39 -4 41 3 4 13 750 13 1034 0 55 21
77 67 68 23 -4 55 1 97 15 74 24 96 50 127 144 l21 64 -21 64 c-31 92 -76 166
-103 170 -36 5 -32 30 12 78 24 27 40 55 40 70 0 30 -25 70 -44 70 -37 0 -266
-108 -363 -171 -61 -40 -62 -40 -195 -49 -73 -5 -205 -18 -293 -30 -190 -25
-270 -21 -361 19 -81 36 -384 97 -430 87 -36 -8 -262 10 -297 23 -14 6 -39 30
-57 55 -32 47 -119 111 -240 178 -70 39 -201 85 -320 113 -137 32 -207 55
-229 72 -13 11 -28 43 -37 78 -9 33 -19 65 -24 70 -11 14 -19 105 -13 138 5
25 9 27 33 22 20 -4 34 0 54 17 l25 23 -28 82 c-35 102 -50 181 -46 253 2 32
-2 61 -8 69 -17 20 -36 128 -24 140 5 5 3 34 -5 72 -13 60 -16 65 -55 84 -29
14 -41 25 -37 36 3 12 -7 19 -43 29 -62 17 -66 22 -52 53 14 31 -1 57 -32 57
-10 0 -23 9 -29 20 -14 26 -38 38 -121 61 -86 24 -142 24 -199 -1z m180 -70
c-8 -5 -28 -10 -45 -10 -23 0 -27 3 -15 10 8 5 29 10 45 10 23 0 27 -3 15 -10z
m-120 -24 c0 -16 -53 -31 -71 -20 -8 4 -4 11 12 20 32 18 59 17 59 0z m-235
-45 c-14 -12 -75 -22 -75 -12 0 12 19 19 55 20 17 1 25 -3 20 -8z m-85 -36 c0
-12 24 -14 155 -12 l156 2 29 -30 c22 -22 28 -36 23 -53 -4 -17 0 -27 16 -38
11 -8 21 -21 21 -29 0 -7 9 -16 20 -20 15 -5 18 -12 13 -35 -4 -22 -1 -31 11
-36 11 -4 16 -18 16 -44 0 -25 9 -50 30 -78 l29 -41 -35 -20 c-41 -25 -40 -45
2 -49 50 -5 62 -12 41 -24 -10 -5 -24 -8 -30 -5 -18 7 -57 -11 -57 -25 0 -7
23 -23 50 -35 28 -12 50 -27 50 -32 0 -6 -19 -11 -43 -11 -41 0 -67 -13 -67
-33 0 -5 20 -7 46 -4 38 4 44 2 39 -11 -7 -19 11 -32 50 -32 17 -1 64 -18 105
-38 82 -41 75 -30 95 -152 3 -19 13 -74 22 -123 17 -85 16 -88 -4 -115 -13
-17 -36 -31 -65 -38 -73 -19 -209 -94 -260 -145 -38 -38 -50 -59 -68 -120 -30
-105 -38 -121 -58 -117 -12 2 -19 16 -22 51 -8 62 -21 76 -49 48 -26 -26 -27
-48 -2 -56 25 -8 45 -63 30 -81 -6 -8 -22 -14 -34 -14 -26 0 -74 -35 -63 -46
5 -4 19 -2 33 4 40 19 75 15 75 -7 0 -10 -7 -24 -15 -31 -8 -7 -15 -19 -15
-27 0 -7 -9 -42 -19 -76 -42 -135 -49 -285 -25 -574 7 -87 -3 -94 -46 -27 -76
121 -114 268 -124 486 -6 115 -1 155 30 257 8 25 14 56 14 71 0 14 4 30 8 35
13 16 36 94 29 101 -4 4 2 19 13 34 24 33 27 80 5 80 -19 0 -60 -74 -74 -135
-23 -99 -26 -102 -94 -110 -98 -10 -179 -26 -214 -41 -17 -8 -47 -14 -67 -14
-56 0 -270 -84 -297 -116 -8 -9 -32 -28 -54 -42 -22 -13 -61 -41 -87 -60 -51
-38 -111 -60 -193 -69 -48 -5 -54 -3 -102 36 -60 47 -113 119 -113 153 1 23
-28 153 -59 263 -12 44 -16 97 -15 200 2 119 7 159 33 266 17 70 39 147 50
172 11 25 36 94 55 153 46 136 63 164 97 164 14 0 44 12 65 28 67 47 112 63
152 56 21 -4 42 -14 48 -21 9 -13 12 -13 23 1 17 20 0 43 -46 63 -55 22 -84
16 -162 -38 -82 -56 -107 -55 -79 4 23 49 108 177 117 177 4 0 27 18 50 39 24
22 57 43 75 47 17 3 36 9 41 12 15 9 36 14 73 17 19 1 37 7 40 12 12 18 106
40 252 57 67 8 165 25 225 40 80 19 105 19 105 1z m620 -225 c0 -5 -5 -10 -11
-10 -5 0 -7 5 -4 10 3 6 8 10 11 10 2 0 4 -4 4 -10z m-23 -426 c-3 -3 -12 -4
-19 -1 -8 3 -5 6 6 6 11 1 17 -2 13 -5z m398 -581 c77 -27 150 -54 162 -61 12
-6 33 -12 46 -12 36 0 152 -38 222 -71 106 -52 115 -58 115 -85 0 -30 36 -104
51 -104 6 0 38 -11 72 -24 59 -22 158 -38 436 -67 57 -6 113 -14 125 -19 12
-4 49 -11 82 -15 32 -3 88 -15 124 -25 36 -11 94 -28 130 -38 97 -29 222 -38
252 -18 25 17 151 46 198 46 l28 0 0 -78 c0 -53 5 -88 16 -110 9 -17 16 -37
16 -44 0 -23 -76 -58 -125 -58 -25 0 -65 -9 -89 -20 -40 -18 -67 -19 -337 -20
-162 0 -325 -2 -364 -6 -38 -3 -158 0 -265 6 -107 6 -283 12 -391 13 -148 2
-200 5 -212 16 -9 7 -37 14 -61 16 -27 2 -75 18 -120 40 -83 41 -111 42 -111
6 0 -40 62 -80 167 -108 115 -31 175 -38 456 -53 127 -8 228 -18 237 -24 10
-7 24 -76 45 -216 17 -113 39 -252 49 -310 14 -76 17 -120 11 -160 -5 -30 -4
-84 1 -120 11 -79 30 -430 24 -440 -2 -4 -7 -143 -10 -310 -3 -166 -8 -306
-10 -310 -7 -12 14 -268 26 -323 6 -26 9 -51 6 -54 -10 -10 -70 35 -131 97
-33 33 -63 60 -67 60 -4 0 -32 31 -63 69 -31 38 -67 72 -81 75 -13 3 -36 17
-52 30 -15 13 -41 30 -58 39 -16 8 -47 31 -69 51 -21 20 -54 46 -74 58 -19 12
-67 47 -106 77 -39 31 -82 64 -96 72 -49 32 -212 193 -268 266 -91 117 -150
205 -157 231 -8 33 -42 81 -162 230 -61 75 -119 162 -153 225 -29 56 -64 116
-76 132 -26 35 -64 192 -90 368 -20 137 -14 415 10 502 17 60 61 159 86 195
10 14 23 55 29 90 20 113 36 145 108 204 36 30 77 57 92 61 14 4 33 13 41 20
26 23 144 65 170 60 14 -2 88 -26 165 -52z m-3919 -58 c6 -2 16 -24 23 -49 10
-41 16 -48 73 -78 68 -36 86 -64 74 -112 -4 -18 -17 -31 -36 -38 -46 -16 -39
-40 9 -32 65 10 71 -7 71 -226 0 -102 7 -282 15 -400 12 -181 12 -218 1 -235
-10 -15 -11 -26 -4 -39 6 -10 12 -69 13 -130 1 -74 8 -126 19 -156 10 -27 13
-46 7 -48 -6 -2 -26 -26 -46 -53 -22 -30 -50 -56 -73 -65 -20 -9 -56 -25 -80
-35 -75 -33 -164 -25 -305 28 -95 35 -102 48 -90 168 11 103 22 125 62 125 15
0 37 8 51 17 13 9 61 24 107 34 96 20 119 32 164 89 18 22 38 40 45 40 44 0
81 104 50 143 -13 17 -17 17 -73 -11 -32 -16 -89 -39 -128 -52 -38 -12 -74
-26 -80 -30 -5 -4 -46 -10 -90 -13 -65 -4 -94 -1 -150 17 l-70 22 2 44 c2 70
13 107 39 131 33 31 51 13 28 -28 -17 -29 -17 -31 5 -61 28 -40 55 -47 140
-37 36 5 111 9 166 10 80 2 108 6 142 23 47 24 73 56 73 88 0 30 -13 32 -100
23 -119 -14 -355 16 -382 48 -10 12 -13 66 -12 228 l0 211 32 64 31 65 -24 13
c-27 14 -32 38 -12 62 20 26 83 60 109 60 37 0 48 19 54 96 8 99 4 95 76 88
35 -3 68 -7 74 -9z m6507 -313 c-90 -85 -144 -165 -179 -267 -15 -44 -33 -86
-40 -94 -14 -16 -72 -19 -155 -7 -47 6 -60 12 -80 39 -29 40 -38 127 -16 178
14 33 18 36 83 46 49 8 108 29 199 73 135 65 219 99 245 100 8 0 -17 -30 -57
-68z m-3595 -39 c36 16 42 -1 25 -73 -24 -97 -28 -299 -9 -408 14 -83 58 -216
88 -267 6 -11 38 -67 71 -125 33 -58 66 -112 74 -121 13 -16 87 -132 173 -271
25 -40 63 -93 86 -118 81 -88 163 -194 169 -219 3 -14 17 -42 29 -61 13 -19
36 -57 51 -85 16 -27 88 -111 161 -185 73 -74 147 -152 165 -173 18 -21 61
-59 97 -84 60 -43 63 -48 58 -77 -16 -82 -147 -224 -253 -275 -23 -12 -67 -37
-98 -56 l-55 -36 0 -54 c0 -49 3 -56 33 -78 17 -14 57 -32 87 -41 30 -8 65
-22 78 -31 42 -30 -1 -65 -103 -85 -163 -32 -225 -41 -335 -50 -69 -5 -192
-17 -275 -27 -82 -9 -197 -17 -255 -17 -684 0 -686 0 -770 14 -41 6 -113 17
-160 23 -80 11 -85 13 -85 37 0 20 6 25 40 32 22 5 51 6 65 2 14 -3 45 -8 70
-10 25 -2 90 -8 145 -14 108 -10 243 -15 249 -9 13 14 15 67 4 76 -8 7 -94 14
-203 17 -104 4 -208 9 -230 11 -22 3 -98 7 -170 9 -112 3 -143 8 -226 35 -114
37 -127 47 -105 89 20 39 56 218 56 280 0 29 -5 54 -13 61 -20 16 -27 3 -27
-53 -1 -99 -77 -375 -120 -436 -11 -16 -20 -33 -20 -40 0 -15 -122 -202 -170
-260 -27 -32 -50 -49 -81 -57 -45 -13 -394 -37 -408 -29 -5 3 -55 1 -112 -5
-149 -15 -289 -25 -289 -20 0 3 8 13 18 24 33 37 113 173 172 296 33 67 60
126 60 130 1 21 112 261 134 286 29 34 76 120 76 139 0 8 7 19 15 26 8 7 21
24 28 39 8 14 33 56 56 93 22 37 41 73 41 78 0 19 93 120 136 150 27 18 87 40
165 60 175 45 196 49 343 59 72 6 183 19 246 31 63 11 144 20 180 19 36 -1 83
2 105 8 61 16 197 41 350 63 75 11 141 23 146 25 5 3 128 6 273 7 238 0 267 2
281 18 18 20 7 33 -40 45 -29 7 -292 7 -515 1 -177 -6 -487 -52 -735 -111
-169 -40 -462 -66 -477 -42 -36 56 41 409 147 672 6 17 19 50 27 75 50 142
110 287 137 329 17 26 31 53 31 59 0 7 8 20 18 30 34 36 80 98 100 137 28 55
178 205 272 272 89 65 376 203 420 203 10 0 37 7 61 16 55 20 146 32 179 23
14 -3 35 -1 48 4z m3670 -73 c24 -46 40 -104 49 -178 5 -41 3 -46 -42 -88
l-46 -45 -18 22 -17 22 -37 -33 c-42 -37 -45 -33 -16 26 39 83 20 134 -33 85
-40 -38 -52 -28 -44 35 8 67 21 94 76 157 36 41 47 48 74 45 25 -2 35 -11 54
-48z m-4812 -105 c8 -20 -37 -99 -101 -175 -30 -36 -66 -86 -81 -112 -15 -27
-30 -48 -34 -48 -4 0 -31 -46 -60 -102 -29 -57 -59 -111 -68 -120 -8 -10 -40
-24 -71 -33 -31 -8 -78 -24 -106 -34 -147 -54 -195 -63 -359 -68 l-162 -6 -16
25 c-14 21 -29 26 -105 38 -48 7 -137 16 -198 19 l-110 6 -3 115 c-2 88 1 120
12 135 17 24 25 24 396 24 385 0 430 8 572 94 40 24 87 51 104 60 17 9 68 44
115 78 119 89 176 119 227 119 28 0 45 -5 48 -15z m127 -115 c39 -17 83 -30
107 -30 22 0 40 -3 40 -6 0 -4 -24 -32 -53 -63 -29 -32 -70 -84 -91 -116 -22
-32 -61 -87 -87 -122 -50 -65 -117 -197 -221 -433 -87 -197 -96 -221 -139
-377 -35 -127 -39 -155 -39 -256 0 -82 -4 -119 -14 -132 -14 -19 -15 -19 -35
-1 -28 25 -39 71 -46 186 -3 52 -8 123 -10 157 -4 48 -2 65 11 77 13 13 14 19
4 31 -10 12 -9 32 3 98 9 45 19 105 22 132 6 45 68 226 85 250 5 6 33 73 65
150 73 182 104 239 173 318 31 35 71 88 87 116 36 61 47 62 138 21z m-1975
-317 c185 -6 208 -12 150 -40 -52 -26 -366 -60 -397 -43 -23 12 -28 49 -10 82
9 16 17 19 42 14 18 -4 114 -9 215 -13z m202 -131 c0 -15 -76 -80 -119 -102
-67 -33 -149 -61 -216 -72 -53 -9 -67 -7 -117 11 -54 21 -78 47 -64 70 4 5 49
7 104 4 81 -5 110 -2 177 17 44 12 90 28 102 36 12 8 30 14 40 14 10 1 29 7
43 15 28 16 50 19 50 7z m-140 -150 c0 -11 -74 -52 -94 -52 -21 0 -20 19 2 26
9 3 28 12 42 19 28 16 50 19 50 7z m300 -364 c0 -5 -4 -8 -10 -8 -5 0 -10 10
-10 23 0 18 2 19 10 7 5 -8 10 -18 10 -22z m975 -360 c4 -21 24 -182 28 -236
2 -19 -6 -27 -38 -39 -22 -9 -72 -40 -111 -69 -60 -44 -87 -74 -159 -180 -48
-71 -101 -153 -118 -183 -17 -31 -49 -78 -70 -105 -21 -27 -44 -61 -52 -75
-14 -29 -85 -215 -85 -225 0 -19 -144 -305 -151 -300 -5 3 -7 69 -5 147 4 132
8 155 54 327 28 102 53 201 57 220 4 19 14 44 21 56 8 11 23 61 33 110 11 49
27 109 36 134 9 25 20 59 24 75 14 48 65 155 105 218 31 49 47 63 94 84 86 39
179 61 259 62 67 1 73 -1 78 -21z m3082 -741 c21 -18 81 -64 133 -102 101 -72
163 -132 154 -146 -6 -10 -2 -10 -199 -15 -403 -11 -465 -11 -465 -3 0 13 112
103 146 118 16 6 46 34 67 60 58 74 104 121 116 121 6 0 28 -15 48 -33z
m-2569 -524 c75 -14 142 -30 147 -35 7 -6 1 -16 -15 -30 -21 -17 -24 -28 -25
-78 0 -55 2 -60 49 -110 46 -49 48 -54 42 -93 -3 -23 -11 -89 -16 -147 -6 -58
-15 -121 -20 -140 -6 -19 -10 -51 -10 -70 0 -20 -4 -40 -9 -45 -11 -11 -222
-5 -511 15 -103 7 -234 8 -319 4 -139 -6 -144 -6 -135 12 5 11 9 67 9 126 0
102 1 108 30 150 l31 43 99 6 c55 4 116 13 135 22 70 30 188 172 254 307 24
47 49 95 56 107 l14 22 28 -20 c18 -13 78 -30 166 -46z m2167 -43 c3 -5 -1
-10 -10 -10 -9 0 -13 5 -10 10 3 6 8 10 10 10 2 0 7 -4 10 -10z m-50 -70 c14
-22 -102 -52 -250 -64 -27 -2 -75 -9 -105 -15 -74 -15 -121 -18 -710 -53 -256
-15 -538 -15 -610 0 -30 6 -91 16 -135 22 -44 7 -98 20 -120 29 -46 21 -72 46
-55 56 12 8 171 -42 185 -59 7 -7 50 -10 125 -9 82 1 122 -3 142 -13 22 -11
39 -12 95 -3 37 7 86 10 108 9 77 -6 330 3 355 13 8 4 116 8 240 10 224 4 297
13 620 71 97 18 108 18 115 6z m-3427 -79 c11 -26 11 -35 -7 -69 -25 -48 -96
-113 -157 -141 -47 -23 -51 -41 -8 -41 39 0 24 -22 -27 -42 -49 -19 -95 -23
-103 -9 -11 18 40 79 97 117 60 40 99 82 111 122 8 24 63 92 75 92 3 0 12 -13
19 -29z m3297 -62 c4 -12 4 -78 0 -148 -3 -74 -2 -147 4 -177 18 -92 19 -91
-137 -99 -76 -3 -180 -11 -232 -17 -52 -5 -255 -11 -450 -13 -195 -2 -387 -7
-426 -10 l-72 -6 -5 28 c-3 15 -3 105 0 200 l6 171 121 6 c67 4 261 13 431 21
171 8 344 20 385 26 153 21 286 37 327 38 34 1 43 -3 48 -20z m175 -204 c6
-60 13 -122 16 -137 9 -40 -12 -35 -25 5 -12 37 -31 218 -30 286 l0 46 15 -45
c8 -25 19 -94 24 -155z m-1725 135 c58 -13 64 -28 64 -149 0 -97 -19 -254 -33
-268 -9 -10 -140 -14 -153 -5 -12 8 -35 104 -34 141 3 69 32 265 41 277 14 16
57 18 115 4z m194 -174 c-1 -77 1 -162 5 -188 8 -45 7 -48 -13 -48 -20 0 -21
3 -15 63 3 34 2 73 -4 86 -6 17 -5 39 4 68 9 30 10 52 4 69 -11 29 -13 87 -4
97 20 19 25 -18 23 -147z m-1465 77 c4 -8 -13 -27 -40 -46 -80 -56 -83 -59
-49 -53 34 5 72 -9 45 -17 -8 -2 -31 -9 -51 -16 -46 -14 -59 -14 -59 2 0 9
-38 12 -160 10 -89 -1 -172 2 -185 7 -22 9 -23 12 -13 42 6 18 15 38 19 44 5
6 48 14 97 18 48 3 101 11 117 16 48 14 273 9 279 -7z m-934 -139 c0 -2 -7 -4
-15 -4 -8 0 -15 4 -15 10 0 5 7 7 15 4 8 -4 15 -8 15 -10z m1985 -130 c-3 -17
-12 -39 -21 -50 -14 -17 -15 -12 -11 62 3 45 11 92 18 105 13 23 14 21 17 -31
2 -30 1 -69 -3 -86z m1890 59 c4 -14 2 -23 -4 -23 -6 0 -11 3 -11 8 0 4 -3 18
-6 32 -8 31 11 16 21 -17z"/>
<path d="M8405 5540 c-16 -11 -39 -20 -51 -20 -45 0 -81 -21 -103 -61 -20 -34
-22 -48 -16 -104 8 -75 19 -83 86 -60 74 27 184 44 242 38 47 -5 58 -2 76 16
32 32 28 80 -13 133 -19 25 -50 53 -69 62 -48 22 -115 21 -152 -4z m139 -55
c34 -14 66 -57 66 -88 0 -15 -40 -25 -71 -19 -9 1 -21 13 -27 26 -23 52 -103
40 -122 -18 -8 -25 -19 -38 -36 -42 -30 -8 -54 1 -54 19 0 19 66 82 116 112
47 28 79 30 128 10z"/>
<path d="M7738 5438 c-49 -40 -77 -143 -47 -173 12 -12 26 -12 97 0 73 13 87
13 119 0 48 -20 63 -8 53 45 -9 51 -54 118 -86 130 -36 14 -117 12 -136 -2z
m131 -80 c17 -18 31 -36 31 -40 0 -18 -36 -6 -63 19 l-28 28 -39 -23 c-42 -24
-60 -28 -60 -12 0 12 54 41 95 51 17 4 31 7 32 8 1 1 16 -14 32 -31z"/>
<path d="M8088 5020 c-82 -63 -91 -66 -152 -49 -40 11 -40 12 -21 77 12 36
-19 27 -54 -15 -36 -43 -39 -80 -12 -114 15 -19 32 -24 97 -30 67 -6 81 -5 89
9 6 9 26 34 46 56 28 30 45 41 79 45 49 7 71 31 54 59 -20 31 -48 23 -126 -38z"/>
<path d="M9175 5004 c-33 -30 -79 -63 -103 -74 -61 -28 -158 -123 -178 -176
-9 -25 -14 -48 -10 -52 4 -4 28 16 52 43 121 133 155 165 203 185 27 12 57 30
67 41 9 10 23 19 31 19 7 0 22 9 34 21 16 16 18 23 8 35 -20 24 -42 15 -104
-42z"/>
<path d="M7702 4778 c-19 -19 -14 -56 8 -63 12 -4 32 -23 46 -44 19 -29 37
-42 87 -59 85 -30 120 -28 200 13 42 21 83 35 105 35 21 0 48 7 60 16 21 14
21 17 7 45 -12 23 -22 29 -48 29 -31 0 -117 -37 -167 -73 -16 -11 -43 -17 -81
-17 -68 0 -109 26 -109 68 0 43 -78 80 -108 50z"/>
<path d="M9180 4228 c-27 -44 -25 -62 6 -87 35 -27 39 -27 64 10 21 28 21 33
8 67 -19 51 -50 55 -78 10z"/>
<path d="M9133 3788 c-21 -27 -41 -104 -31 -121 16 -30 55 -20 83 20 30 45 30
47 4 84 -22 31 -41 37 -56 17z"/>
<path d="M9272 3316 c-17 -28 -18 -37 -8 -51 16 -23 44 -16 68 16 16 22 18 30
9 48 -17 31 -46 26 -69 -13z"/>
<path d="M9570 2998 c-25 -41 -25 -49 1 -82 38 -48 109 -24 109 36 0 35 -36
78 -66 78 -17 0 -30 -10 -44 -32z"/>
<path d="M9807 2582 c-33 -34 -34 -55 -5 -82 41 -38 118 -15 118 36 0 29 -41
74 -68 74 -10 0 -30 -13 -45 -28z"/>
<path d="M5707 4410 c-45 -8 -56 -18 -37 -31 18 -12 109 -2 128 13 11 9 11 13
0 19 -15 10 -38 10 -91 -1z"/>
<path d="M5525 4394 c22 -17 46 -15 53 4 2 8 -8 12 -35 12 -36 -1 -37 -1 -18
-16z"/>
<path d="M7946 3988 c-20 -28 -4 -58 30 -58 17 0 27 8 35 27 5 14 8 32 5 40
-8 21 -53 15 -70 -9z"/>
<path d="M7822 3809 c-29 -11 -50 -55 -35 -77 16 -26 55 -43 70 -30 17 13 17
92 1 106 -8 6 -22 6 -36 1z"/>
<path d="M7624 3525 c-10 -25 7 -40 23 -20 7 11 13 22 13 27 0 14 -30 9 -36
-7z"/>
<path d="M7516 3323 c-11 -12 -6 -63 7 -63 24 0 39 17 33 38 -7 21 -30 35 -40
25z"/>
<path d="M7515 3116 c-19 -28 -13 -46 14 -46 24 0 44 24 39 47 -5 28 -35 27
-53 -1z"/>
<path d="M7102 1948 c-26 -40 -73 -118 -104 -173 -31 -55 -80 -133 -110 -174
-29 -40 -64 -90 -77 -110 -13 -20 -38 -52 -56 -71 -41 -45 -107 -167 -95 -175
16 -10 29 3 54 54 26 50 100 150 178 237 26 30 59 77 74 106 14 29 46 85 70
124 24 39 44 74 44 79 0 4 14 23 31 43 34 39 71 111 63 124 -11 18 -26 5 -72
-64z"/>
<path d="M817 3846 c-15 -8 -51 -21 -80 -29 -28 -8 -72 -21 -97 -30 -25 -8
-84 -27 -132 -42 -49 -14 -100 -37 -115 -49 -16 -13 -42 -31 -60 -40 -18 -9
-37 -25 -43 -36 -16 -31 -25 -218 -24 -556 l0 -312 -71 -4 c-38 -3 -80 -1 -92
3 -27 10 -92 -8 -100 -27 -3 -8 1 -21 8 -30 14 -17 44 -16 216 2 56 6 59 4 42
-27 -8 -16 -7 -25 5 -37 18 -21 35 -92 36 -147 0 -45 33 -172 48 -187 7 -7 17
-6 31 2 12 6 34 10 49 8 26 -3 26 -3 -12 -23 -45 -23 -66 -49 -51 -64 15 -15
107 -16 218 -3 65 8 104 9 115 2 10 -5 13 -10 7 -10 -86 -9 -246 -37 -248 -45
-2 -8 145 -11 183 -3 8 2 16 -1 18 -7 7 -22 -84 -35 -231 -33 -128 3 -147 1
-147 -13 0 -36 25 -51 96 -56 38 -3 71 -7 74 -9 2 -3 -1 -14 -8 -24 -27 -44
-18 -50 73 -50 47 0 85 -4 85 -9 0 -12 -21 -18 -91 -26 -63 -8 -85 -18 -75
-34 5 -7 45 -11 109 -11 115 -1 116 -4 6 -60 -30 -16 -61 -35 -68 -44 -12 -14
-5 -16 70 -17 46 0 102 -4 124 -8 l40 -7 -38 -8 c-21 -4 -73 -7 -116 -8 -59 0
-87 -5 -110 -19 -17 -10 -31 -23 -31 -29 0 -10 26 -9 247 5 40 3 74 1 77 -3 3
-4 -64 -28 -147 -53 -145 -42 -193 -66 -184 -92 2 -7 23 -13 48 -15 24 -1 71
-9 104 -16 33 -8 77 -17 98 -21 38 -6 38 -7 22 -25 -16 -18 -15 -51 2 -50 4 1
28 19 53 41 43 38 44 41 26 54 -22 17 -141 45 -190 45 -53 0 -52 17 1 23 26 3
52 12 58 20 7 9 45 19 105 27 79 11 99 17 118 37 30 32 25 43 -26 62 -28 10
-42 21 -42 33 0 24 -30 38 -87 39 -26 1 -59 4 -73 8 l-25 7 25 16 c14 8 46 23
73 33 33 13 47 23 47 36 0 16 -8 19 -56 19 -59 0 -65 14 -11 25 91 20 85 51
-11 51 -53 -1 -67 2 -67 14 0 10 14 17 47 20 62 8 81 25 45 41 -33 15 -34 21
-4 34 14 7 22 19 22 35 0 21 8 27 49 41 58 18 65 30 35 58 -18 17 -36 21 -86
21 -35 0 -63 4 -63 10 0 6 11 10 24 10 14 0 28 5 31 10 4 6 -15 10 -49 10 -31
0 -56 3 -56 7 0 4 12 20 27 35 36 38 23 48 -70 52 -68 4 -81 1 -112 -19 -60
-41 -68 -38 -77 30 -4 33 -12 98 -18 144 -6 47 -7 88 -2 93 4 4 51 10 103 12
52 2 123 7 159 10 37 4 71 3 79 -2 9 -6 16 -39 21 -88 8 -94 24 -132 47 -113
12 10 13 24 8 64 -4 27 -7 57 -7 65 0 8 2 44 4 80 l3 64 35 8 c19 4 95 7 169
7 74 0 138 4 142 8 4 4 70 5 146 1 131 -6 307 2 320 15 3 4 1 12 -5 19 -8 10
-41 13 -119 12 -126 -1 -518 -21 -615 -30 -96 -10 -96 -10 -97 149 -1 204 33
460 84 632 53 179 58 198 59 250 1 46 -1 50 -24 53 -14 1 -37 -4 -53 -12z m-7
-87 c0 -5 -9 -38 -20 -72 -10 -34 -26 -114 -35 -177 -9 -63 -22 -149 -30 -190
-16 -82 -35 -368 -31 -467 2 -56 0 -62 -21 -72 -13 -6 -63 -11 -111 -12 -48 0
-109 -4 -137 -9 -66 -11 -90 4 -101 62 -12 64 -2 691 12 759 7 38 49 64 171
108 59 21 126 48 148 60 43 23 155 31 155 10z m-510 -489 c0 -5 -5 -10 -11
-10 -5 0 -7 5 -4 10 3 6 8 10 11 10 2 0 4 -4 4 -10z m379 -544 c10 -12 9 -17
-6 -24 -24 -12 -295 -23 -312 -12 -26 15 -1 28 57 30 31 0 86 4 122 9 101 13
127 12 139 -3z m-169 -635 c0 -9 -108 -21 -127 -14 -33 13 -6 23 57 23 39 0
70 -4 70 -9z m105 -1 c18 -1 18 -2 -3 -11 -27 -10 -75 -1 -66 13 4 5 16 7 28
4 11 -3 30 -6 41 -6z"/>
<path d="M6429 2956 c-2 -3 -47 -7 -99 -10 -91 -4 -188 -14 -371 -37 -87 -10
-357 -18 -733 -20 -136 -1 -216 -5 -227 -12 -14 -9 -22 -8 -31 1 -17 17 -192
16 -210 0 -17 -17 -45 -19 -86 -8 -19 5 -45 5 -63 0 -19 -6 -38 -6 -49 0 -22
12 -175 22 -395 26 -202 3 -309 -12 -318 -46 -8 -29 -100 -25 -137 7 -17 14
-37 22 -47 19 -17 -4 -108 -9 -463 -22 -85 -3 -158 -8 -162 -10 -5 -3 -261 -7
-571 -10 -566 -5 -830 -13 -844 -28 -18 -18 31 -36 86 -32 58 5 343 9 420 7
61 -1 47 -10 -25 -16 -32 -2 -79 -7 -104 -9 -25 -3 -89 -8 -143 -10 -118 -4
-159 -25 -54 -27 58 -1 362 13 442 21 55 5 152 9 215 8 111 -2 537 11 1090 33
343 14 398 17 500 29 75 9 352 19 980 34 107 3 249 9 315 15 67 6 196 8 291 4
95 -3 180 -2 190 2 11 5 28 9 39 10 11 1 49 4 85 8 36 4 131 9 213 13 81 3
162 10 179 15 18 5 51 9 73 9 45 0 71 12 61 29 -7 11 -38 15 -47 7z m-1994
-96 c3 -5 1 -10 -4 -10 -6 0 -11 5 -11 10 0 6 2 10 4 10 3 0 8 -4 11 -10z
m-738 -37 c-4 -3 -33 -8 -65 -11 -46 -3 -55 -2 -45 8 7 7 28 14 48 15 20 1 39
5 42 9 4 3 11 2 17 -4 5 -5 7 -13 3 -17z m198 16 c-7 -11 -35 -12 -35 -1 0 4
9 8 20 9 11 1 18 -2 15 -8z m-365 -18 c0 -11 -97 -24 -111 -15 -19 12 13 24
64 24 26 0 47 -4 47 -9z m-525 -21 c-3 -5 -10 -10 -16 -10 -5 0 -9 5 -9 10 0
6 7 10 16 10 8 0 12 -4 9 -10z m-735 -14 c0 -3 -4 -8 -10 -11 -5 -3 -10 -1
-10 4 0 6 5 11 10 11 6 0 10 -2 10 -4z m90 -5 c0 -4 -11 -6 -25 -3 -14 2 -25
6 -25 8 0 2 11 4 25 4 14 0 25 -4 25 -9z"/>
<path d="M1685 2740 c-11 -5 -37 -9 -58 -9 -59 -1 -34 -21 27 -21 48 0 76 12
76 32 0 10 -19 9 -45 -2z"/>
<path d="M1418 2732 c-16 -2 -28 -10 -28 -18 0 -9 -11 -14 -30 -14 -16 0 -30
-4 -30 -10 0 -14 74 -12 88 2 9 9 12 9 12 0 0 -8 22 -12 70 -12 40 0 70 4 70
10 0 6 -7 10 -15 10 -9 0 -12 6 -9 15 7 18 -27 21 -57 4 -16 -8 -23 -7 -32 3
-7 8 -24 12 -39 10z"/>
<path d="M995 2700 c-38 -4 -46 -7 -35 -15 22 -15 350 -20 350 -6 0 7 -6 13
-12 16 -21 6 -249 10 -303 5z"/>
<path d="M312 2154 c9 -9 24 -14 32 -11 27 11 17 27 -16 27 -30 0 -31 -1 -16
-16z"/>
<path d="M12421 2039 c-76 -10 -91 -15 -91 -29 0 -7 28 -11 78 -11 101 1 274
-7 340 -15 51 -7 52 -6 52 19 0 22 -6 26 -39 32 -21 3 -83 5 -137 3 -54 -1
-108 0 -119 3 -11 4 -49 3 -84 -2z"/>
<path d="M2477 1995 c-48 -17 -53 -21 -39 -38 8 -9 29 -12 69 -9 32 2 76 -1
99 -7 53 -14 149 -107 193 -186 40 -73 107 -138 189 -185 60 -34 61 -36 62
-78 0 -86 70 -179 165 -221 26 -11 60 -32 76 -45 32 -27 38 -30 122 -46 31 -6
57 -16 57 -21 0 -5 -6 -9 -13 -9 -15 0 -62 -47 -69 -70 -16 -49 60 -79 138
-55 27 8 72 15 101 15 65 0 97 12 118 44 15 23 15 27 0 50 -10 14 -26 26 -36
26 -24 0 -25 32 -1 52 9 8 40 24 67 34 28 10 70 31 94 46 54 34 105 45 126 28
26 -22 17 -29 -45 -36 -114 -13 -63 -25 86 -21 l147 4 32 -28 c19 -17 49 -31
76 -35 24 -3 69 -13 99 -20 63 -16 305 -19 392 -5 31 6 92 24 135 41 75 31 80
31 153 21 41 -6 97 -13 125 -17 56 -7 123 -37 132 -60 12 -31 -13 -55 -85 -85
-41 -16 -84 -29 -97 -29 -13 0 -46 -8 -72 -19 -61 -24 -275 -41 -608 -47 -137
-2 -356 -9 -485 -14 -129 -5 -325 -10 -435 -10 -110 -1 -254 -4 -320 -7 -356
-17 -771 -1 -833 31 -23 12 -23 13 -5 34 10 12 57 38 105 57 80 33 98 36 220
41 73 3 148 10 167 16 18 6 86 15 150 20 221 18 232 19 228 31 -6 18 -168 15
-442 -8 -188 -16 -340 -49 -409 -90 -36 -21 -93 -90 -115 -139 -2 -5 20 -30
48 -56 44 -41 51 -52 51 -85 0 -21 -4 -54 -9 -74 -6 -20 -17 -83 -27 -141 -9
-58 -28 -136 -40 -174 -35 -100 -32 -147 9 -193 l34 -36 94 12 c52 6 186 10
299 10 130 -1 228 3 267 11 34 7 72 10 84 7 13 -3 43 -2 68 3 25 6 116 15 201
20 205 14 262 22 295 44 21 14 47 18 119 18 88 0 129 8 114 24 -9 9 -496 13
-528 4 -35 -9 -100 0 -100 14 0 35 310 107 394 92 33 -6 280 16 386 35 36 6
71 11 78 10 35 -4 53 -3 122 9 68 11 89 21 90 43 0 10 -78 9 -85 -2 -3 -6 -78
-10 -167 -10 -89 -1 -178 -5 -197 -11 -43 -11 -100 -20 -201 -30 -41 -4 -106
-13 -145 -19 -38 -6 -88 -10 -109 -11 l-39 0 7 143 c8 175 13 205 37 217 11 7
68 7 161 1 275 -19 656 -11 948 19 58 6 142 13 187 16 l82 6 5 -34 c4 -18 10
-81 16 -139 6 -74 18 -128 36 -175 21 -54 27 -87 28 -152 1 -93 0 -92 86 -93
168 -2 297 3 426 17 82 8 221 19 309 24 88 5 198 14 245 20 47 7 121 15 166
19 44 4 85 10 91 14 5 3 129 7 274 8 289 1 319 4 319 25 0 14 -46 16 -565 18
-88 1 -166 5 -173 10 -8 4 -31 4 -55 -3 -37 -9 -550 -33 -755 -35 l-73 -1 -40
118 c-34 100 -61 205 -86 329 -11 59 2 76 77 99 39 11 73 27 78 34 4 6 25 23
47 37 56 36 76 61 85 108 7 36 4 45 -17 71 -14 16 -35 35 -46 41 -31 16 -153
38 -213 38 -35 0 -56 5 -65 16 -21 26 -64 43 -123 50 -53 6 -72 23 -46 39 12
7 90 159 90 175 0 5 -23 25 -50 42 -28 18 -49 39 -48 46 4 18 77 54 163 81 39
13 77 26 85 30 9 5 36 12 60 16 25 4 51 12 58 18 7 5 31 12 55 14 23 2 50 12
60 22 18 17 17 18 -29 36 -41 15 -54 16 -92 6 -67 -17 -162 -59 -311 -133
l-135 -68 -86 0 c-84 0 -233 -29 -253 -49 -17 -17 13 -22 42 -6 33 16 225 22
235 7 3 -5 -10 -23 -28 -41 l-33 -32 -119 4 c-65 3 -135 8 -155 12 -60 12 -66
-8 -30 -110 l31 -86 -28 -9 c-15 -6 -39 -17 -54 -25 -25 -14 -198 -23 -198
-10 0 3 7 16 15 29 13 20 13 25 0 42 -14 19 -15 18 -21 -3 -8 -30 -50 -31 -59
-3 -10 32 2 53 63 113 135 131 136 133 133 190 -1 28 -9 63 -17 78 -15 31 -60
69 -80 69 -7 0 -43 -23 -79 -50 -129 -98 -157 -101 -195 -19 -27 56 -68 96
-108 105 -50 10 -72 23 -72 42 0 11 -8 26 -17 34 -30 25 -93 58 -112 58 -28 0
-61 -43 -69 -90 -6 -36 -12 -45 -37 -53 -17 -6 -77 -39 -135 -75 -132 -81
-151 -92 -170 -92 -39 1 -96 43 -176 130 -81 88 -168 160 -194 160 -7 0 30
-44 80 -97 50 -54 102 -118 115 -143 13 -25 35 -56 49 -69 38 -36 34 -56 -6
-28 -45 30 -116 109 -165 182 -22 33 -63 78 -91 100 -56 44 -62 55 -32 55 11
0 20 5 20 10 0 6 -15 10 -34 10 -19 0 -38 5 -41 10 -9 15 -124 11 -168 -5z
m1068 -86 c4 -5 21 -9 38 -7 30 3 32 1 37 -37 5 -40 5 -40 55 -45 42 -4 53
-10 71 -38 12 -18 25 -51 29 -73 4 -24 20 -55 37 -75 17 -19 27 -38 23 -42
-11 -11 -514 -3 -575 9 -30 6 -58 13 -63 16 -4 2 21 36 55 75 94 106 223 160
256 108 7 -11 17 -20 22 -20 18 0 11 67 -10 93 -11 14 -20 30 -20 36 0 14 37
14 45 0z m556 -210 c16 -17 29 -39 29 -48 0 -32 -39 -98 -77 -131 l-37 -33 -7
26 c-4 14 -14 36 -23 49 -29 40 -21 86 23 129 21 22 44 39 51 39 7 0 25 -14
41 -31z m717 -126 c-3 -19 -71 -36 -118 -31 -23 3 -22 5 15 25 50 28 108 31
103 6z m-924 -42 c36 -38 32 -57 -34 -147 -61 -82 -85 -102 -167 -136 l-61
-27 -134 13 c-102 10 -144 18 -178 36 -69 35 -148 97 -163 128 -21 41 -41 122
-33 130 4 4 165 10 358 14 193 4 353 10 356 13 12 11 30 4 56 -24z m963 -32
c17 -17 -38 -121 -82 -155 -19 -14 -35 -32 -35 -40 0 -24 -38 -34 -132 -34
l-94 0 -35 38 c-63 65 -109 134 -109 161 l0 26 173 -3 c94 -2 192 1 217 6 63
14 84 14 97 1z m-455 -204 c32 -40 69 -54 142 -53 87 1 110 -18 32 -27 -107
-14 -271 8 -290 38 -9 14 -6 22 19 42 39 32 72 32 97 0z m491 -5 c4 -4 1 -12
-6 -19 -16 -13 -138 -41 -177 -40 -23 0 -22 1 9 15 19 8 44 26 57 39 20 22 29
25 66 19 24 -4 47 -10 51 -14z m-1204 -161 c17 -6 31 -17 31 -25 0 -17 14 -14
-110 -27 -162 -18 -195 -4 -89 40 60 24 119 29 168 12z m1276 -189 c3 -5 -2
-10 -12 -10 -10 0 -28 -3 -40 -6 -13 -4 -23 -2 -23 4 0 18 65 29 75 12z m-95
-20 c0 -5 -7 -10 -15 -10 -8 0 -15 5 -15 10 0 6 7 10 15 10 8 0 15 -4 15 -10z
m-92 -12 c-8 -23 -257 -39 -628 -40 -638 -1 -684 1 -665 32 6 10 43 11 169 5
198 -9 194 -9 286 -5 41 1 199 2 350 2 151 -1 304 2 340 7 104 13 152 13 148
-1z m-1323 -28 c-3 -5 -28 -10 -55 -10 -27 0 -52 5 -55 10 -4 6 17 10 55 10
38 0 59 -4 55 -10z m1526 -75 c3 -44 16 -120 29 -170 12 -49 33 -132 45 -183
l23 -93 -26 -10 c-45 -17 -67 2 -92 78 -13 37 -29 77 -36 88 -21 34 -44 169
-44 264 0 100 8 113 65 108 l30 -2 6 -80z m-2459 -13 c3 -31 -2 -90 -10 -132
-8 -41 -17 -142 -21 -225 -3 -82 -9 -155 -13 -161 -9 -14 -91 -28 -117 -19
-11 3 -22 13 -25 22 -10 25 13 124 35 155 13 19 19 41 17 70 -1 24 8 89 20
145 12 55 22 122 22 147 0 43 2 46 33 54 17 5 37 7 43 5 7 -2 14 -30 16 -61z
m425 48 c23 -6 101 -10 172 -10 l131 0 0 -28 c0 -15 -5 -43 -10 -62 -12 -40
-19 -115 -20 -215 -2 -118 -10 -173 -29 -180 -25 -10 -281 -34 -297 -28 -8 3
-14 -1 -14 -11 0 -10 8 -16 22 -16 14 0 18 -4 13 -9 -14 -13 -268 -34 -314
-26 -33 5 -40 11 -45 37 -9 47 -7 218 3 252 29 99 34 128 33 191 -3 85 3 113
24 117 35 7 291 -3 331 -12z m2103 -35 c0 -16 -27 -39 -33 -28 -3 4 -3 21 0
36 4 22 8 25 19 16 8 -6 14 -17 14 -24z m-1678 -7 c9 -16 -9 -48 -28 -48 -18
0 -64 44 -64 61 0 15 81 3 92 -13z"/>
<path d="M11123 1993 c-32 -6 -29 -31 4 -39 28 -7 73 11 81 34 4 12 -36 15
-85 5z"/>
<path d="M11017 1892 c-21 -6 -76 -15 -123 -18 -46 -4 -84 -11 -84 -15 0 -15
48 -22 98 -14 26 4 100 10 165 14 90 5 121 11 134 24 16 16 16 17 -2 18 -87 5
-156 2 -188 -9z"/>
<path d="M11678 1903 c-49 -2 -88 -8 -88 -13 0 -12 9 -13 132 -14 65 -1 99 3
102 11 7 16 -4 23 -33 21 -14 -1 -65 -4 -113 -5z"/>
<path d="M10823 1797 c-9 -15 4 -18 123 -23 93 -5 127 -3 153 9 29 12 31 16
15 20 -28 9 -285 3 -291 -6z"/>
<path d="M11295 1768 c-22 -5 -71 -12 -110 -15 -95 -7 -107 -22 -19 -25 123
-4 178 -1 208 11 23 9 26 14 16 26 -14 17 -35 17 -95 3z"/>
<path d="M5625 1713 c-148 -3 -385 -25 -385 -36 0 -5 130 -7 333 -3 182 3 357
5 388 5 38 0 60 5 69 15 7 9 11 17 9 17 -8 3 -316 4 -414 2z"/>
<path d="M6100 1700 c0 -5 4 -10 9 -10 6 0 13 5 16 10 3 6 -1 10 -9 10 -9 0
-16 -4 -16 -10z"/>
<path d="M2697 1534 c-8 -9 -377 -22 -770 -28 -153 -3 -290 -7 -305 -10 -15
-3 -101 -10 -192 -15 -183 -11 -405 -41 -520 -71 -41 -11 -118 -24 -170 -30
-52 -6 -122 -15 -155 -20 -33 -5 -145 -12 -250 -15 -288 -8 -335 -13 -335 -35
0 -13 11 -19 42 -23 25 -3 48 -1 56 5 18 16 38 17 262 24 107 3 201 9 210 13
8 4 60 7 115 6 71 -2 119 3 166 16 36 10 90 18 120 17 30 -1 104 4 164 11 61
6 135 13 165 15 30 3 104 9 163 15 59 6 176 13 260 16 84 4 231 12 327 19 96
8 186 14 200 14 78 0 249 15 271 24 15 5 73 10 128 10 56 1 104 5 107 10 3 4
16 8 30 8 13 0 24 5 24 10 0 6 -8 10 -17 10 -10 0 -34 3 -53 6 -19 3 -38 2
-43 -2z"/>
</g>
</svg>
