<?xml version="1.0" standalone="no"?>
<!DOCTYPE svg PUBLIC "-//W3C//DTD SVG 20010904//EN"
 "http://www.w3.org/TR/2001/REC-SVG-20010904/DTD/svg10.dtd">
<svg version="1.0" xmlns="http://www.w3.org/2000/svg"
 width="1280.000000pt" height="862.000000pt" viewBox="0 0 1280.000000 862.000000"
 preserveAspectRatio="xMidYMid meet">
<metadata>
Created by potrace 1.15, written by Peter Selinger 2001-2017
</metadata>
<g transform="translate(0.000000,862.000000) scale(0.100000,-0.100000)"
fill="#000000" stroke="none">
<path d="M9038 8592 c-55 -33 -137 -132 -174 -210 -114 -247 -149 -304 -294
-477 -27 -33 -63 -81 -79 -107 -17 -26 -45 -57 -64 -70 -75 -50 -135 -94 -203
-149 -108 -87 -143 -107 -249 -145 -54 -19 -110 -44 -126 -54 -15 -11 -49 -24
-76 -30 -58 -11 -208 -72 -237 -97 -149 -126 -326 -308 -416 -428 -91 -122
-124 -154 -207 -202 -124 -71 -128 -74 -125 -119 2 -21 5 -40 7 -42 2 -2 30 4
63 13 60 17 61 17 92 -5 31 -22 31 -22 24 -90 -6 -67 -6 -69 24 -97 23 -22 28
-33 22 -48 -5 -11 -9 -25 -9 -32 -2 -21 30 -43 60 -43 37 0 79 -40 79 -74 0
-28 41 -56 83 -56 24 0 117 63 117 80 0 5 14 18 31 31 29 21 34 21 127 9 53
-6 104 -14 112 -17 8 -3 29 -7 45 -8 48 -3 115 -25 115 -36 0 -6 -11 -24 -24
-40 -13 -16 -31 -57 -39 -91 -9 -35 -20 -77 -25 -94 -8 -26 -7 -34 10 -48 14
-12 18 -25 14 -41 -4 -14 0 -27 10 -36 23 -19 13 -62 -30 -133 -20 -33 -36
-69 -36 -80 0 -12 -11 -73 -25 -136 -13 -63 -32 -160 -42 -215 -16 -92 -20
-103 -56 -142 -22 -24 -44 -43 -50 -43 -6 0 -18 -6 -26 -13 -9 -8 -36 -19 -61
-26 -25 -7 -71 -26 -102 -42 -77 -39 -176 -76 -267 -99 -194 -49 -296 -100
-323 -161 -29 -65 -175 -74 -215 -12 -22 33 -108 55 -213 55 -132 0 -193 -40
-136 -89 24 -20 38 -23 109 -23 85 0 127 -15 127 -46 0 -8 -28 -32 -62 -53
-35 -22 -94 -60 -133 -84 -38 -25 -92 -56 -120 -70 -82 -41 -96 -92 -32 -118
29 -12 89 -17 262 -21 75 -1 186 17 195 33 5 8 10 8 14 1 11 -19 31 -8 170 94
61 45 143 84 177 84 14 0 43 -14 65 -33 97 -81 178 -126 236 -132 62 -8 173 9
217 31 14 8 30 14 34 14 20 0 110 71 230 180 156 142 272 388 297 631 5 56 10
107 10 115 0 7 9 18 21 24 17 9 31 7 71 -10 48 -21 51 -21 130 -5 143 30 236
4 319 -89 l28 -31 -21 -22 c-30 -32 -10 -63 42 -63 58 0 55 26 47 -450 -5
-277 -40 -403 -141 -510 -24 -25 -63 -72 -87 -105 -23 -33 -73 -95 -111 -138
-37 -42 -68 -83 -68 -91 0 -7 -18 -41 -40 -75 -22 -34 -40 -65 -40 -70 0 -8
-23 -60 -41 -93 -5 -10 -9 -24 -9 -32 0 -33 -120 -391 -150 -448 -11 -20 -20
-45 -20 -54 0 -10 -7 -40 -15 -68 -8 -28 -26 -94 -41 -146 -15 -52 -42 -132
-61 -177 -18 -45 -42 -120 -53 -168 -22 -94 -51 -159 -75 -168 -8 -4 -26 -31
-39 -62 -25 -55 -25 -55 -132 -105 -59 -28 -126 -65 -148 -84 -72 -58 -217
-140 -260 -146 -33 -4 -42 -10 -44 -27 -3 -17 3 -24 22 -29 52 -13 173 12 261
53 57 26 70 28 229 33 l169 5 10 30 c33 108 64 172 113 231 29 36 56 74 59 83
3 12 19 21 42 24 29 5 39 2 50 -13 8 -11 30 -22 51 -26 20 -4 51 -13 67 -20
17 -7 42 -10 57 -7 17 3 38 -1 53 -11 14 -9 44 -16 72 -15 26 0 70 -3 97 -8
46 -7 50 -11 63 -47 18 -53 40 -76 75 -76 16 0 45 -7 65 -15 19 -8 51 -15 71
-15 26 0 45 -9 73 -35 32 -28 47 -35 82 -35 31 0 52 -8 81 -30 26 -20 51 -30
74 -30 63 0 196 -32 259 -62 40 -18 79 -29 105 -29 24 1 85 -1 137 -4 51 -2
101 -1 109 4 10 6 31 3 56 -6 25 -8 56 -11 78 -8 24 4 46 1 67 -9 39 -21 100
-20 123 1 16 14 23 15 59 3 32 -11 45 -11 60 -2 26 16 61 15 85 -3 31 -23 74
-18 106 12 l28 27 44 -22 c24 -12 55 -22 69 -22 18 0 28 -7 33 -22 4 -13 35
-52 69 -88 46 -48 64 -75 69 -103 4 -21 24 -70 44 -108 35 -68 36 -72 36 -187
1 -113 0 -120 -32 -184 -18 -36 -49 -81 -69 -98 -31 -27 -42 -31 -74 -27 -49
6 -63 -9 -48 -51 12 -35 12 -35 99 -52 61 -12 68 -11 106 8 35 18 52 20 114
15 83 -7 309 13 390 34 30 8 116 16 190 19 74 3 187 10 250 16 63 6 149 12
190 14 41 1 115 10 164 18 49 9 99 16 112 16 13 0 41 9 61 20 20 10 56 22 79
26 24 3 51 15 60 25 23 26 80 25 94 -1 6 -10 27 -24 48 -30 55 -15 208 -12
282 6 36 9 88 17 117 19 29 2 61 6 73 10 25 8 26 41 3 53 -24 13 -157 -1 -213
-21 -25 -9 -70 -17 -100 -17 -30 -1 -75 -5 -100 -10 -48 -9 -75 2 -44 17 26
13 183 37 191 29 3 -3 11 -2 17 3 6 5 30 14 54 20 31 9 42 17 42 31 0 23 -6
24 -97 10 -38 -6 -122 -17 -187 -26 l-120 -16 -17 23 c-17 23 -17 23 -69 6
-29 -9 -78 -17 -109 -17 -31 0 -99 -9 -151 -20 -87 -19 -320 -45 -430 -49 -24
-1 -46 -4 -49 -7 -12 -12 23 -27 66 -29 93 -3 113 -5 113 -14 0 -13 -144 -34
-182 -27 -18 4 -40 7 -48 7 -16 0 -322 -29 -402 -38 -33 -3 -65 1 -108 16 -74
26 -86 26 -133 2 -45 -23 -47 -16 -15 73 17 49 37 77 105 147 73 76 83 91 83
122 0 28 -8 43 -32 66 -18 17 -39 31 -47 31 -8 0 -29 5 -47 12 l-32 11 -22
139 c-12 77 -18 152 -15 168 9 43 52 61 125 53 51 -5 61 -3 81 16 17 15 30 20
44 15 31 -11 114 -9 175 5 30 7 75 12 99 11 26 0 54 6 69 16 26 17 44 20 167
27 35 2 93 16 140 34 l79 30 -3 43 c-1 24 -6 53 -11 64 -8 21 -139 154 -252
257 -32 28 -77 81 -101 118 -24 36 -57 86 -73 110 -34 51 -98 169 -144 261
-17 36 -60 122 -95 192 -35 70 -85 180 -111 245 -25 65 -55 130 -66 145 -10
15 -28 53 -38 85 -11 32 -24 67 -29 78 -14 33 -58 146 -77 200 -9 28 -27 61
-40 75 -12 14 -26 37 -29 52 -4 14 -22 50 -41 79 -18 29 -41 76 -50 103 -39
118 -204 437 -254 491 -15 17 -35 44 -44 62 -9 17 -25 38 -36 46 -11 8 -45 48
-75 88 -30 41 -64 86 -75 101 -12 15 -66 58 -121 95 -56 37 -96 69 -91 71 5 1
51 -9 100 -23 50 -14 97 -25 105 -25 7 0 78 -33 158 -73 79 -40 171 -81 204
-91 33 -10 98 -36 145 -56 106 -47 177 -66 305 -80 55 -6 118 -17 140 -25 22
-7 63 -16 90 -19 28 -3 79 -10 115 -16 159 -26 293 -35 790 -55 91 -4 188 -26
310 -71 29 -11 89 -18 170 -21 117 -5 126 -4 148 16 29 29 28 59 -2 71 -54 20
-33 50 40 55 77 6 119 52 63 70 -11 4 -88 1 -172 -6 -182 -14 -329 -7 -415 21
-66 21 -225 45 -397 60 -55 5 -125 14 -155 20 -30 6 -181 15 -335 20 -232 8
-303 14 -415 36 -154 29 -149 28 -290 83 -58 22 -109 41 -115 41 -19 0 -118
50 -146 74 -16 13 -51 32 -78 41 -27 9 -84 34 -126 56 -42 21 -86 39 -97 39
-39 0 -139 33 -135 44 6 17 104 31 130 18 24 -12 560 -38 576 -28 5 4 40 11
78 16 75 10 123 24 258 71 140 48 155 50 403 58 l233 6 152 77 c202 102 232
114 370 142 66 14 127 32 136 40 10 9 29 16 44 16 14 0 54 12 89 26 35 14 73
30 86 35 16 6 22 17 22 39 0 37 -30 52 -102 53 -27 1 -48 3 -48 7 0 3 7 16 16
29 14 19 14 25 4 31 -13 8 -101 -30 -145 -63 -28 -22 -11 -33 19 -13 32 21 36
20 36 -4 0 -33 33 -43 80 -24 22 9 43 14 46 11 11 -10 -16 -45 -50 -67 -43
-26 -232 -90 -268 -90 -73 0 -214 -54 -313 -120 -49 -32 -152 -78 -191 -85
-16 -3 -126 -7 -244 -9 l-215 -3 -125 -41 c-280 -89 -441 -120 -548 -103 -61
9 -202 13 -454 14 -97 0 -243 -7 -390 -18 l-88 -7 -70 43 c-38 24 -70 47 -70
50 0 9 121 31 184 34 82 3 310 25 326 32 53 20 -228 19 -349 -2 -22 -4 -41 -3
-41 2 0 4 21 22 45 38 52 35 120 133 127 185 6 42 -22 114 -51 129 -29 16 -50
14 -137 -15 l-79 -25 -18 23 c-28 34 -68 58 -98 58 -15 0 -52 -11 -83 -25 -49
-22 -62 -34 -102 -95 -47 -73 -71 -90 -60 -42 3 15 13 78 21 140 9 62 20 124
25 138 6 14 10 40 10 58 0 51 16 58 85 36 33 -10 80 -23 105 -29 405 -101 421
-107 514 -190 22 -20 70 -50 106 -66 63 -29 69 -29 235 -30 133 0 182 4 225
17 82 26 161 80 209 143 40 54 141 242 141 262 0 6 8 21 19 34 10 13 24 41 30
61 7 20 36 61 64 91 50 52 54 54 118 60 44 4 78 1 105 -8 58 -21 138 -19 184
5 22 11 50 20 64 20 14 0 27 4 30 9 3 4 29 11 57 15 33 5 59 15 74 30 13 13
34 26 47 29 14 4 41 18 62 32 20 14 40 25 44 25 14 0 92 86 92 101 0 8 -5 20
-12 27 -18 18 -104 14 -146 -7 -46 -23 -353 -48 -397 -31 -64 24 -60 4 8 -43
28 -19 68 -38 87 -42 32 -5 220 14 295 31 28 6 29 5 14 -10 -25 -27 -115 -45
-251 -51 -126 -5 -178 -15 -178 -34 0 -6 12 -6 32 0 42 12 215 12 222 0 7 -11
-124 -31 -200 -31 -48 0 -57 -3 -61 -21 -5 -19 -11 -21 -57 -15 -148 19 -163
18 -193 -14 -48 -51 -57 -42 -49 53 5 71 10 85 32 105 29 26 47 28 64 7 7 -8
19 -15 28 -15 11 0 13 8 9 34 -5 33 -3 36 39 56 44 22 138 106 161 145 11 18
12 18 12 -11 1 -17 -6 -37 -14 -44 -16 -14 -20 -40 -6 -40 12 0 63 65 85 109
20 38 14 81 -11 81 -20 0 -113 -59 -113 -71 0 -18 -45 -71 -92 -108 -28 -23
-75 -47 -117 -60 -58 -18 -77 -30 -106 -65 -31 -38 -54 -52 -160 -97 -44 -19
-83 -31 -175 -55 -95 -25 -118 -35 -306 -125 -56 -27 -115 -49 -130 -49 -16 0
-50 11 -75 24 -25 13 -63 27 -84 31 -22 4 -60 13 -85 21 -25 7 -76 18 -115 24
-38 6 -117 24 -175 40 -166 45 -313 80 -340 80 -14 0 -47 -7 -74 -15 -27 -8
-60 -15 -73 -15 -20 0 -22 4 -17 25 4 18 -1 37 -20 65 -14 22 -26 44 -26 48 0
9 -85 64 -147 96 -40 20 -93 21 -93 2 0 -8 19 -18 45 -25 46 -11 147 -66 153
-82 2 -6 14 -22 27 -37 15 -19 20 -33 15 -47 -4 -11 -5 -33 -3 -50 6 -41 -31
-94 -82 -120 l-41 -20 1 -70 0 -70 -45 -5 c-40 -4 -45 -8 -48 -33 -3 -26 -6
-27 -39 -21 -33 6 -35 5 -28 -12 10 -24 10 -44 0 -66 -5 -12 -2 -20 9 -24 22
-8 46 13 46 41 0 16 7 25 24 29 14 3 28 15 31 26 3 11 18 22 33 26 53 11 57
17 57 90 0 66 1 68 32 87 18 10 35 27 38 38 6 19 64 50 146 79 45 16 209 0
297 -29 67 -22 201 -55 290 -71 83 -15 249 -63 289 -83 60 -32 104 -20 331 89
63 30 119 54 127 54 7 0 29 7 48 15 20 8 49 15 65 15 16 0 55 11 86 25 31 14
65 25 76 25 11 0 28 9 39 21 10 11 27 19 38 17 15 -3 19 -14 21 -65 4 -80 -9
-109 -102 -231 -87 -114 -185 -209 -224 -218 -46 -10 -146 -46 -172 -62 -31
-19 -154 -22 -172 -4 -15 15 -38 16 -38 2 0 -12 36 -28 90 -41 24 -5 62 -2
125 12 162 36 202 54 279 127 86 81 98 67 32 -37 -115 -178 -209 -223 -471
-225 -140 0 -153 2 -200 24 -58 29 -91 51 -149 100 -22 20 -53 41 -67 47 -28
12 -159 44 -254 63 -33 6 -78 20 -100 30 -22 10 -63 23 -90 29 -56 13 -83 27
-73 37 8 7 155 -12 204 -27 17 -5 42 -9 57 -9 42 0 184 -49 214 -73 32 -27
196 -107 218 -107 8 0 57 22 109 49 51 27 111 54 132 61 22 7 67 27 101 46 34
19 67 34 74 34 21 0 119 43 119 52 0 10 -48 1 -134 -24 -50 -15 -85 -19 -127
-15 -33 3 -68 3 -79 0 -34 -9 -3 -33 42 -33 56 0 44 -18 -31 -46 -56 -21 -69
-23 -129 -14 -119 18 -222 26 -222 19 0 -13 70 -29 153 -36 43 -3 80 -10 83
-14 8 -13 -52 -39 -89 -39 -41 0 -162 53 -170 75 -4 8 -13 15 -22 15 -8 0 -32
11 -53 25 -41 27 -116 52 -197 64 -168 27 -207 34 -272 47 -40 9 -83 13 -95 9
-90 -25 -99 -44 -37 -75 25 -13 39 -26 36 -35 -10 -26 -73 -377 -83 -459 -6
-56 -10 -63 -76 -132 -80 -84 -163 -143 -213 -151 -30 -5 -48 2 -121 47 -65
40 -99 54 -136 58 -26 2 -51 9 -54 13 -8 14 -107 10 -134 -6 -40 -23 -119 -19
-177 10 -40 20 -60 40 -97 95 -59 89 -60 115 -6 131 l40 12 74 -62 c74 -61 76
-62 101 -45 14 9 25 20 25 24 0 9 -106 120 -115 120 -3 0 -13 7 -22 15 -51 44
-84 66 -93 60 -21 -13 -31 7 -15 31 22 33 10 49 -21 29 -23 -15 -44 -13 -44 4
0 5 11 24 24 44 31 45 23 53 -21 20 -42 -32 -58 -22 -42 26 9 24 9 35 0 44
-19 19 -12 85 14 136 30 59 64 72 117 45 18 -10 40 -18 48 -19 8 -1 27 -6 41
-9 31 -9 48 9 28 29 -8 7 -48 27 -89 45 -41 17 -99 43 -129 57 -40 18 -82 27
-153 32 -72 6 -104 13 -116 25 -16 15 -15 19 7 62 13 25 42 59 63 76 25 20 36
34 30 40 -17 17 -49 -1 -87 -48 -44 -53 -83 -75 -126 -72 -35 3 -35 3 -79 -95
-41 -91 -112 -137 -126 -82 -4 14 -4 29 0 32 3 3 -2 18 -11 34 -16 27 -16 28
16 61 18 18 50 62 71 98 21 36 57 82 80 103 22 22 39 44 37 50 -8 24 -29 17
-69 -22 -22 -23 -45 -41 -49 -41 -5 0 -17 -10 -28 -21 -13 -14 -26 -19 -37
-15 -16 6 -15 8 1 26 17 19 17 20 -1 20 -28 0 -64 -28 -64 -50 0 -25 -8 -29
-79 -36 -71 -8 -82 3 -61 65 10 32 10 43 -4 68 -23 45 -4 56 96 58 66 1 83 5
94 20 18 25 18 40 -3 60 -11 11 -25 15 -42 11 -14 -3 -53 -11 -86 -16 -89 -16
-98 -19 -85 -35 7 -9 7 -15 -2 -22 -18 -14 -125 -25 -132 -14 -7 10 63 81 79
81 23 0 131 90 168 139 20 28 42 51 47 51 5 0 31 33 57 73 47 73 152 187 172
187 14 0 250 147 320 199 30 23 60 41 67 41 6 0 14 7 18 15 3 8 18 15 33 15
15 0 48 9 72 20 45 21 81 26 81 12 0 -5 -19 -15 -42 -22 -36 -12 -39 -15 -20
-18 13 -2 67 10 120 27 54 17 116 35 140 41 23 6 42 15 42 20 0 15 -17 12
-105 -15 -138 -43 -160 -27 -25 18 86 28 273 102 310 122 14 8 52 26 85 41 33
15 53 29 45 31 -13 3 -126 -27 -195 -52 -17 -6 -17 -4 4 14 13 12 35 24 50 27
40 8 161 56 168 66 12 20 -9 20 -59 -1 -71 -29 -86 -12 -24 27 26 17 71 40
101 52 55 22 76 48 31 36 -35 -9 -39 5 -13 41 23 33 80 65 135 77 35 8 44 26
12 26 -11 0 -20 5 -20 11 0 12 40 48 53 49 5 0 21 9 36 19 15 11 39 23 54 26
15 4 27 11 27 16 0 9 -21 7 -67 -7 -14 -4 -23 -2 -23 4 0 6 10 22 23 36 29 34
186 146 204 146 7 0 13 5 13 10 0 13 -13 13 -45 -2 -40 -18 -40 -3 2 36 38 36
163 106 189 106 8 0 14 5 14 10 0 6 -7 10 -15 10 -8 0 -15 5 -15 12 0 20 51
78 69 78 10 0 26 9 36 20 18 20 18 21 -1 35 -18 13 -24 9 -89 -58 -38 -40 -82
-88 -96 -107 -15 -19 -30 -32 -35 -27 -4 4 7 26 24 50 70 95 103 159 100 196
-3 33 -6 36 -38 39 -24 1 -50 -7 -82 -26z m42 -100 c-50 -88 -355 -485 -390
-507 -20 -13 -8 9 49 88 47 66 124 203 126 227 1 5 57 89 106 157 17 24 50 56
73 73 24 16 47 37 52 47 7 16 8 15 12 -5 2 -13 -10 -47 -28 -80z m-831 -978
c-15 -14 -34 -24 -43 -22 -28 5 9 48 42 48 l27 0 -26 -26z m-1068 -949 c1 -12
-59 -31 -68 -22 -3 4 0 14 7 22 14 17 60 17 61 0z m4199 -45 c0 -5 -9 -14 -20
-20 -22 -12 -240 -29 -246 -19 -6 11 23 19 69 20 23 0 69 6 102 14 74 17 95
18 95 5z m135 -10 c-3 -5 -13 -10 -21 -10 -8 0 -12 5 -9 10 3 6 13 10 21 10 8
0 12 -4 9 -10z m-4325 -261 c0 -13 -87 -52 -100 -44 -15 9 -2 25 34 41 38 16
66 18 66 3z m1995 -560 c4 -6 -2 -13 -13 -16 -23 -6 -126 -130 -150 -180 -18
-39 -26 -40 -46 -12 -21 31 -7 59 72 145 56 61 72 73 99 74 17 0 35 -5 38 -11z
m-1395 -19 c7 -14 7 -46 -1 -109 -11 -80 -10 -94 5 -136 10 -25 35 -66 56 -90
34 -40 38 -49 44 -123 7 -73 5 -89 -23 -174 -17 -51 -30 -102 -29 -113 2 -29
-61 -189 -106 -268 -26 -48 -73 -104 -154 -184 -126 -125 -141 -135 -252 -169
-100 -32 -188 -32 -255 0 -70 32 -161 110 -185 156 -11 22 -47 68 -80 104 -34
35 -57 67 -52 70 4 2 33 -15 63 -39 30 -24 61 -44 70 -45 9 0 22 -6 28 -14 16
-19 51 -27 51 -12 0 6 -26 24 -57 39 -62 29 -123 78 -123 99 0 28 105 71 284
118 62 16 183 59 270 95 86 36 160 65 165 65 4 0 33 25 64 56 66 65 71 81 86
244 15 154 33 234 61 272 16 22 24 48 26 85 3 46 17 93 29 93 2 0 9 -9 15 -20z
m1450 -26 c0 -8 -4 -14 -10 -14 -5 0 -10 9 -10 21 0 11 5 17 10 14 6 -3 10
-13 10 -21z m252 7 c11 -1 48 -68 48 -87 -1 -37 -66 -128 -125 -176 -68 -55
-113 -78 -150 -78 -36 0 -31 16 8 29 73 25 134 113 113 166 -11 29 -26 14 -26
-26 0 -55 -32 -83 -151 -133 l-92 -40 -35 20 c-19 11 -35 24 -36 28 0 5 28 19
63 31 78 29 120 68 161 151 26 54 40 69 82 93 39 22 60 28 92 26 22 -2 44 -4
48 -4z m-318 -63 c-6 -22 -107 -152 -126 -164 -18 -11 -19 4 -4 35 21 40 114
151 127 151 6 0 8 -9 3 -22z m26 -108 c-11 -20 -68 -55 -77 -47 -7 7 60 67 75
67 10 0 10 -5 2 -20z m-216 -131 l27 -40 -26 -35 c-14 -19 -30 -34 -35 -34 -5
0 -37 -22 -72 -48 -35 -27 -98 -68 -140 -91 -78 -43 -103 -46 -128 -16 -25 30
-2 59 95 124 53 36 102 73 109 82 11 17 102 82 128 92 7 3 14 6 14 6 1 1 13
-17 28 -40z m172 -135 c39 -24 79 -44 90 -44 20 0 98 -24 149 -46 202 -87 240
-108 400 -217 112 -77 260 -224 315 -311 19 -31 59 -93 88 -138 28 -44 52 -89
52 -98 0 -10 15 -41 34 -69 19 -28 38 -60 41 -71 4 -11 17 -33 30 -48 13 -15
30 -53 39 -83 9 -31 39 -91 66 -135 28 -43 56 -97 62 -119 6 -22 19 -49 29
-60 9 -11 36 -60 59 -110 112 -236 135 -287 175 -385 63 -153 100 -238 128
-295 13 -27 28 -61 32 -74 4 -13 20 -44 36 -69 16 -25 34 -61 40 -81 7 -20 31
-70 54 -111 23 -41 50 -99 60 -128 9 -29 26 -58 37 -65 11 -7 43 -43 71 -81
29 -38 68 -90 87 -116 19 -26 61 -73 92 -106 32 -32 58 -67 58 -76 0 -20 -42
-25 -295 -33 -193 -7 -267 -10 -555 -27 -113 -6 -229 -12 -258 -13 -60 -2 -81
-15 -57 -35 14 -12 23 -100 9 -100 -15 0 -75 55 -98 90 -14 22 -33 40 -41 40
-8 0 -15 4 -15 10 0 5 -16 27 -35 49 -23 26 -35 48 -35 68 0 16 -9 56 -21 89
-21 63 -113 394 -130 472 -6 26 -15 79 -19 117 -5 39 -14 99 -20 135 -5 36
-13 148 -16 250 -5 201 -27 380 -54 448 -14 38 -18 41 -29 28 -11 -13 -9 -31
9 -103 15 -56 24 -127 27 -193 2 -58 7 -188 12 -290 5 -102 8 -194 8 -205 0
-11 10 -69 21 -128 12 -59 22 -118 22 -131 0 -13 6 -29 14 -35 8 -6 16 -26 19
-44 4 -31 86 -354 109 -432 6 -22 20 -52 30 -67 10 -14 18 -29 18 -33 0 -11
-240 5 -295 20 -27 7 -88 14 -135 14 -47 0 -101 5 -120 11 -19 5 -47 10 -63
10 -15 0 -38 6 -50 14 -12 8 -51 20 -87 26 -36 7 -90 21 -120 32 -30 11 -73
25 -95 30 -22 6 -58 19 -80 28 -22 10 -76 28 -120 40 -129 35 -234 78 -325
132 -47 28 -88 55 -91 59 -3 5 -21 18 -40 28 -19 10 -72 40 -119 66 -79 45
-92 48 -195 60 -104 11 -192 36 -282 82 -30 15 -33 20 -33 61 0 24 6 58 14 75
7 18 21 66 31 107 10 41 26 91 35 110 37 74 100 249 120 330 30 121 38 145 83
235 69 140 74 149 102 180 15 16 65 77 112 135 48 58 102 121 122 141 60 60
83 98 108 173 37 113 51 203 52 326 1 63 5 142 11 175 5 33 10 101 10 152 0
50 4 102 9 115 9 25 40 48 158 117 39 23 82 52 95 64 73 67 148 118 162 110 6
-3 43 -26 82 -49z m617 -68 c53 -19 118 -38 145 -42 26 -3 72 -22 102 -40 30
-19 83 -45 117 -58 35 -13 75 -33 90 -44 47 -33 145 -79 208 -96 33 -10 69
-23 80 -30 66 -42 300 -96 444 -102 340 -14 518 -26 581 -39 42 -8 103 -15
136 -15 33 0 64 -4 70 -9 5 -5 50 -12 99 -14 50 -2 110 -10 135 -16 90 -24
126 -33 190 -43 76 -13 327 -11 352 3 15 8 18 6 18 -14 0 -22 -7 -26 -57 -36
-32 -6 -69 -12 -83 -13 -43 -5 -22 -23 30 -26 33 -2 50 -7 50 -16 0 -15 -16
-14 -177 3 -55 6 -122 18 -149 27 -52 18 -64 18 -379 28 -207 6 -313 14 -465
36 -36 5 -101 14 -145 20 -72 10 -196 31 -443 76 -45 8 -110 28 -145 44 -34
16 -111 45 -172 63 -132 42 -239 86 -292 121 -23 15 -93 40 -168 59 -72 19
-186 59 -255 89 -69 30 -133 58 -142 61 -32 11 -19 26 30 33 26 3 54 10 62 15
23 13 27 12 133 -25z m-3301 -543 c56 -32 94 -47 122 -49 55 -2 53 -1 60 -29
4 -14 10 -25 15 -25 15 0 35 31 36 53 0 41 34 31 91 -26 70 -70 70 -87 0 -108
-64 -19 -76 -12 -76 40 0 33 -1 33 -19 17 -16 -14 -17 -22 -8 -46 9 -25 8 -34
-8 -56 -42 -55 -245 -151 -245 -115 0 6 11 17 25 23 27 12 34 38 11 38 -8 0
-49 -14 -91 -31 -42 -16 -86 -29 -98 -27 -16 2 -10 7 23 18 50 16 180 90 180
102 0 15 -31 8 -68 -16 -20 -13 -55 -30 -77 -36 -22 -7 -57 -19 -78 -28 -64
-26 -52 -6 20 34 87 47 173 105 173 116 0 17 -53 7 -83 -16 -43 -32 -176 -98
-190 -93 -11 3 100 85 155 113 55 29 83 78 60 109 -12 17 -87 46 -113 44 -58
-5 -99 1 -99 16 0 11 19 15 88 18 48 1 93 4 100 5 7 1 50 -19 94 -45z m5912
-145 c-15 -7 -28 -7 -40 0 -14 8 -10 10 22 10 33 0 36 -2 18 -10z m-6189 -178
c-3 -5 -10 -10 -16 -10 -5 0 -9 5 -9 10 0 6 7 10 16 10 8 0 12 -4 9 -10z
m1690 -1684 c18 -13 18 -15 -8 -59 -15 -25 -27 -51 -27 -57 0 -14 -57 -70 -71
-70 -16 0 -10 40 18 121 22 66 30 79 48 79 12 0 30 -6 40 -14z m168 -43 c12
-7 8 -40 -8 -53 -8 -7 -20 -30 -25 -52 -12 -43 -41 -78 -66 -78 -14 0 -15 8
-9 48 4 26 11 51 16 57 12 12 12 48 0 40 -18 -11 -50 -113 -53 -171 -3 -52 -6
-58 -29 -66 -34 -11 -79 6 -79 29 0 10 11 38 25 63 14 25 38 72 54 105 41 89
53 98 115 90 28 -4 54 -9 59 -12z m131 -22 c13 -21 -63 -191 -99 -221 -24 -20
-30 14 -16 89 25 137 27 141 71 141 21 0 41 -4 44 -9z m88 -34 l27 -22 -24
-100 c-14 -55 -25 -108 -25 -118 0 -10 -7 -20 -16 -24 -29 -11 -45 21 -51 99
-5 67 -3 82 20 132 14 31 30 56 34 56 4 0 20 -10 35 -23z m124 -69 c39 -25 38
-15 16 -178 -14 -100 -48 -125 -97 -75 -22 21 -25 33 -25 96 0 70 14 142 33
167 14 18 33 15 73 -10z m151 -84 l64 -36 -7 -55 c-9 -76 -49 -185 -73 -202
-25 -16 -55 -7 -47 14 3 8 -5 26 -19 39 -22 23 -25 33 -25 106 0 87 16 170 33
170 5 0 39 -16 74 -36z m-523 -40 c9 -24 7 -72 -3 -78 -16 -10 -38 4 -50 31
-10 21 -9 29 5 44 21 23 40 24 48 3z m-234 -34 c26 -19 28 -23 18 -51 -8 -24
-15 -29 -30 -26 -36 10 -49 -2 -42 -38 5 -28 1 -39 -28 -71 -19 -22 -42 -52
-51 -67 -15 -24 -23 -27 -50 -22 -18 4 -44 2 -58 -3 -14 -6 -41 -7 -59 -3
l-33 6 24 16 c13 8 39 21 57 29 41 16 72 56 106 135 26 58 77 114 104 115 8 0
27 -9 42 -20z m350 -35 c0 -41 -2 -45 -25 -45 -19 0 -25 5 -25 23 0 25 26 67
41 67 5 0 9 -20 9 -45z m575 14 c63 -36 65 -44 36 -139 -12 -37 -17 -75 -14
-96 7 -41 -13 -47 -23 -6 -10 40 -13 43 -35 31 -55 -29 -86 38 -64 143 17 77
24 98 36 98 5 0 34 -14 64 -31z m162 -50 c11 -4 24 -12 27 -17 3 -6 -1 -54 -9
-108 -8 -55 -15 -105 -15 -111 0 -7 -7 -13 -15 -13 -10 0 -15 10 -15 30 0 32
-26 43 -35 15 -3 -8 -7 -22 -10 -30 -2 -8 -11 -12 -20 -9 -19 8 -21 105 -3
200 l13 65 30 -7 c16 -4 40 -10 52 -15z m-617 -19 c0 -14 -7 -20 -24 -20 -28
0 -54 25 -34 33 32 13 58 7 58 -13z m765 -37 c33 -16 35 -19 29 -52 -4 -20
-11 -44 -16 -54 -5 -11 -7 -29 -4 -42 8 -31 -9 -74 -31 -81 -10 -3 -26 -9 -35
-14 -13 -7 -23 -2 -43 22 -25 30 -26 36 -20 97 4 36 14 83 22 103 17 44 40 49
98 21z m150 -62 l40 -27 0 -70 c0 -87 -12 -104 -70 -104 -35 0 -46 5 -61 28
-20 28 -23 100 -9 175 7 35 10 38 33 32 14 -3 44 -19 67 -34z m177 -43 c10 -8
18 -37 22 -73 3 -33 9 -75 12 -92 5 -26 3 -33 -9 -33 -9 0 -23 -10 -32 -22
-19 -29 -38 -19 -79 42 -26 38 -28 46 -18 75 7 17 12 39 12 48 0 40 19 67 48
67 15 0 35 -6 44 -12z m2214 -34 c13 -19 14 -28 5 -37 -14 -14 -27 -1 -36 36
-9 35 9 36 31 1z m-325 -38 c13 -20 18 -45 17 -71 -3 -35 -6 -40 -29 -43 -20
-2 -28 2 -32 17 -3 12 -13 21 -25 21 -14 0 -21 9 -26 31 -9 46 -7 74 5 86 18
18 68 -5 90 -41z m-1811 -4 c0 -48 -15 -73 -23 -40 -9 30 -9 73 -1 81 13 13
24 -5 24 -41z m70 22 c15 -40 13 -124 -4 -124 -7 0 -19 -7 -26 -15 -25 -30
-33 0 -20 72 7 37 14 74 16 81 6 20 24 13 34 -14z m1454 20 c21 -8 21 -75 1
-113 -15 -30 -33 -41 -66 -41 -26 0 -51 59 -47 108 3 34 6 38 38 43 52 9 57
10 74 3z m136 -9 c6 -8 14 -32 17 -54 3 -23 12 -46 19 -52 23 -19 16 -27 -23
-26 -21 1 -45 -1 -52 -3 -16 -5 -34 36 -46 108 l-7 42 40 0 c22 0 45 -6 52
-15z m240 -10 c0 -28 -24 -34 -34 -9 -10 26 -7 34 14 34 15 0 20 -7 20 -25z
m-534 -25 c7 -20 14 -49 15 -65 4 -28 2 -30 -36 -35 -22 -3 -46 -9 -53 -14
-20 -12 -42 13 -42 49 0 20 -6 35 -15 39 -22 8 -18 33 8 51 14 10 38 15 67 13
42 -3 46 -6 56 -38z m-1188 -15 c35 -71 26 -125 -20 -125 -42 0 -67 96 -39
148 18 33 35 27 59 -23z m124 18 c25 -30 29 -54 13 -79 -13 -20 -19 -22 -44
-13 -29 10 -51 44 -51 79 0 32 57 41 82 13z m740 5 c10 -8 18 -37 22 -78 7
-79 -8 -110 -54 -110 -24 0 -33 7 -49 38 -26 52 -34 94 -22 125 9 24 16 27 77
36 5 0 17 -5 26 -11z m163 -42 c8 -65 2 -89 -30 -110 -23 -15 -26 -15 -44 3
-22 22 -55 126 -47 147 4 10 23 14 60 14 l55 0 6 -54z m-607 -33 c7 -49 6 -63
-5 -67 -7 -3 -13 -14 -13 -24 0 -25 -20 -42 -49 -42 -33 0 -58 15 -42 24 8 5
8 13 0 27 -6 12 -11 48 -12 82 l-2 62 50 5 c28 3 53 3 57 0 4 -3 11 -33 16
-67z m174 28 c6 -36 4 -48 -12 -69 -11 -13 -20 -40 -20 -58 0 -27 -5 -35 -24
-40 -30 -7 -66 11 -66 34 0 9 -7 26 -15 36 -15 20 -21 126 -8 140 4 4 36 6 72
4 l66 -3 7 -44z m-328 17 c3 -13 7 -37 10 -54 3 -18 8 -45 12 -60 7 -28 6 -28
-12 -12 -14 12 -24 14 -37 7 -9 -6 -22 -7 -28 -3 -18 11 -39 70 -39 109 0 35
0 35 45 35 38 0 45 -3 49 -22z m1506 -19 c0 -6 -4 -7 -10 -4 -5 3 -10 11 -10
16 0 6 5 7 10 4 6 -3 10 -11 10 -16z m-2470 -22 c0 -16 -35 -1 -38 16 -3 16
-1 17 17 5 12 -7 21 -17 21 -21z m160 -12 c7 -9 10 -19 6 -22 -8 -9 -38 9 -44
25 -5 17 23 15 38 -3z m1223 -26 c29 -24 37 -37 35 -58 -2 -20 -9 -27 -31 -29
-23 -3 -30 2 -42 32 -16 38 -20 86 -7 86 4 0 24 -14 45 -31z m-1044 -23 c31
-33 19 -51 -20 -31 -28 15 -37 34 -22 48 11 11 18 8 42 -17z m563 -37 c36 -29
38 -33 24 -47 -14 -14 -19 -14 -51 1 -25 12 -35 23 -35 40 0 22 7 37 18 37 2
0 22 -14 44 -31z m-139 3 c20 -22 13 -32 -23 -32 -15 0 -30 3 -33 7 -7 7 21
43 33 43 4 0 14 -8 23 -18z m905 -37 c25 -18 51 -98 57 -176 7 -98 42 -209 65
-209 5 0 17 -14 25 -31 16 -30 16 -30 -27 -69 -24 -22 -46 -39 -50 -40 -4 0
-9 21 -13 48 -14 109 -43 180 -125 304 -76 117 -79 123 -57 126 14 2 37 16 53
33 32 33 41 35 72 14z m1612 -686 c0 -5 -16 -9 -36 -9 -19 0 -33 3 -31 8 7 10
67 11 67 1z m-237 -50 c45 -12 41 -24 -10 -34 -21 -3 -48 -9 -60 -12 -14 -3
-23 -1 -23 6 0 6 7 11 15 11 8 0 15 9 15 20 0 23 10 24 63 9z"/>
<path d="M7742 4879 c-90 -163 -162 -206 -408 -240 -42 -6 -86 -14 -98 -18
-25 -10 -179 -7 -218 4 -19 5 -28 3 -28 -4 0 -23 58 -33 195 -33 125 -1 153 2
255 29 123 33 221 76 257 114 23 25 83 145 83 167 0 22 -21 12 -38 -19z"/>
<path d="M7022 4494 c22 -23 108 -32 108 -12 0 11 -15 17 -46 22 -75 10 -81 9
-62 -10z"/>
<path d="M9110 5138 c-64 -43 -45 -103 24 -74 39 16 48 46 23 80 -12 16 -15
16 -47 -6z"/>
<path d="M8842 5004 c-43 -30 -16 -64 52 -64 43 0 58 30 30 61 -21 23 -52 24
-82 3z"/>
<path d="M9300 4925 c-10 -12 -10 -21 -2 -40 9 -20 19 -25 46 -25 19 0 42 7
50 16 20 20 20 19 -6 44 -26 24 -70 26 -88 5z"/>
<path d="M9627 4812 c-20 -22 -22 -53 -5 -70 16 -16 23 -15 42 4 21 20 21 70
0 78 -21 8 -19 9 -37 -12z"/>
<path d="M8990 4651 c0 -38 0 -39 39 -39 46 -1 59 19 36 54 -11 16 -25 24 -45
24 -28 0 -30 -2 -30 -39z"/>
<path d="M9836 4649 c-29 -34 -34 -80 -12 -99 22 -17 72 9 69 35 -7 59 -16 95
-23 95 -5 0 -20 -14 -34 -31z"/>
<path d="M9451 4564 c-17 -12 -21 -24 -19 -52 4 -44 31 -54 68 -24 45 37 -1
109 -49 76z"/>
<path d="M9237 4237 c-17 -12 -15 -16 34 -54 55 -43 69 -42 69 3 0 42 -69 77
-103 51z"/>
<path d="M9586 4149 c-46 -55 -24 -90 37 -58 52 28 50 89 -3 89 -4 0 -20 -14
-34 -31z"/>
<path d="M10026 4138 c-18 -25 -20 -56 -7 -76 7 -11 17 -11 62 0 65 16 77 43
33 77 -35 27 -69 27 -88 -1z"/>
<path d="M8611 3949 c-22 -9 -50 -36 -50 -49 0 -3 6 -14 14 -24 13 -17 19 -18
55 -7 48 14 66 55 35 78 -22 15 -22 15 -54 2z"/>
<path d="M9004 3816 c-19 -48 29 -73 67 -35 21 21 21 23 4 36 -25 17 -64 17
-71 -1z"/>
<path d="M10002 3658 c-16 -16 -15 -35 3 -105 14 -54 38 -88 55 -78 4 3 11 22
14 42 18 105 18 114 1 133 -20 22 -55 26 -73 8z"/>
<path d="M8370 3600 c-7 -12 -9 -33 -6 -46 6 -21 12 -24 51 -24 34 0 47 5 55
19 20 38 8 52 -57 65 -26 6 -34 4 -43 -14z"/>
<path d="M10298 3544 c-2 -20 1 -43 9 -52 12 -16 14 -16 28 2 18 23 19 40 5
67 -17 31 -37 23 -42 -17z"/>
<path d="M8586 3384 c-7 -19 10 -54 27 -54 22 0 57 31 57 51 0 15 -7 19 -39
19 -26 0 -41 -5 -45 -16z"/>
<path d="M8742 3208 c-16 -16 -15 -60 1 -82 10 -14 21 -16 49 -11 29 6 39 13
47 38 9 25 8 34 -5 49 -19 20 -74 24 -92 6z"/>
<path d="M8211 3184 c-34 -43 -22 -84 25 -84 31 0 46 23 42 67 -4 49 -35 57
-67 17z"/>
<path d="M9602 3198 c-17 -17 -15 -38 3 -38 9 0 21 -11 27 -25 15 -33 46 -33
54 0 13 52 -49 98 -84 63z"/>
<path d="M10444 3136 c-9 -22 14 -46 43 -46 21 0 24 4 21 28 -2 21 -9 28 -31
30 -18 2 -29 -2 -33 -12z"/>
<path d="M10232 2994 c-15 -10 -22 -24 -20 -37 2 -18 9 -21 33 -19 34 4 46 18
43 47 -4 26 -27 30 -56 9z"/>
<path d="M8400 2860 c-42 -42 -16 -70 44 -50 47 15 54 29 26 52 -29 23 -45 23
-70 -2z"/>
<path d="M9353 2853 c-42 -8 -46 -28 -13 -57 60 -50 134 -19 95 40 -15 23 -31
27 -82 17z"/>
<path d="M9653 2835 c-3 -9 -3 -33 0 -55 3 -28 1 -40 -9 -44 -16 -6 -19 -52
-4 -61 5 -3 22 1 37 9 16 8 39 17 53 20 14 3 33 19 43 36 31 52 3 93 -71 104
-33 5 -44 3 -49 -9z"/>
<path d="M8728 2809 c-10 -5 -18 -21 -18 -33 0 -39 48 -48 103 -20 l31 17 -28
23 c-29 25 -60 30 -88 13z"/>
<path d="M10389 2667 c-27 -21 -41 -56 -34 -89 7 -28 10 -30 41 -25 56 9 89
30 92 58 5 44 -64 84 -99 56z m46 -58 c-10 -15 -25 -10 -19 6 4 8 10 12 15 9
5 -3 7 -10 4 -15z"/>
<path d="M10761 2634 c-25 -31 -26 -47 -7 -63 20 -16 65 6 72 36 14 55 -29 73
-65 27z"/>
<path d="M9123 2558 c-31 -15 -35 -33 -15 -68 19 -35 51 -47 80 -31 34 18 34
51 0 82 -33 32 -34 32 -65 17z"/>
<path d="M9573 2386 c-49 -23 -72 -53 -58 -76 14 -23 143 17 174 54 11 13 11
19 1 31 -18 21 -57 18 -117 -9z m44 -33 c-9 -9 -19 -14 -23 -11 -10 10 6 28
24 28 15 0 15 -1 -1 -17z"/>
<path d="M9813 2402 c-22 -14 11 -35 90 -59 27 -8 21 22 -9 46 -27 21 -60 27
-81 13z"/>
<path d="M10749 2364 c-20 -25 -24 -117 -5 -133 30 -25 147 14 163 55 8 22
-33 61 -85 78 -56 20 -57 20 -73 0z m108 -51 c6 -17 -37 -26 -67 -14 l-25 9
25 11 c31 13 62 10 67 -6z"/>
<path d="M10362 2278 c-20 -20 -14 -37 15 -44 32 -8 58 6 58 32 0 23 -53 32
-73 12z"/>
<path d="M6737 4513 c-4 -3 -7 -13 -7 -22 1 -13 3 -13 11 2 11 19 8 33 -4 20z"/>
<path d="M9535 8258 c-49 -28 -106 -58 -125 -68 -19 -10 -69 -44 -110 -75 -41
-31 -94 -71 -117 -88 -40 -29 -54 -47 -35 -47 5 0 32 20 61 45 29 25 56 45 61
45 4 0 31 18 58 39 49 39 289 171 311 171 6 0 11 -8 11 -18 0 -18 -29 -50 -81
-88 -14 -10 -77 -57 -140 -104 -63 -47 -134 -96 -159 -109 -25 -13 -72 -43
-105 -68 -33 -24 -102 -71 -154 -106 -51 -34 -119 -79 -150 -100 -85 -57 -201
-120 -208 -113 -8 7 -15 1 106 102 51 43 125 95 164 114 48 23 76 45 87 64 9
16 38 45 65 64 56 38 70 57 31 42 -44 -17 -271 -187 -372 -279 -176 -162 -289
-234 -519 -331 -49 -21 -119 -52 -155 -69 -36 -17 -75 -31 -87 -31 -57 0 -64
-82 -9 -109 34 -16 57 -11 216 44 173 61 229 75 365 89 137 14 215 14 304 1
43 -6 53 -5 49 6 -3 9 -25 15 -64 17 -32 2 -63 7 -68 12 -15 15 83 23 141 11
69 -13 83 -14 83 -1 0 5 -16 12 -35 16 -19 3 -35 10 -35 15 0 11 21 13 128 10
94 -2 145 6 136 21 -3 5 -21 7 -38 4 -50 -9 -52 6 -4 25 31 13 72 18 145 18
56 1 105 5 108 11 4 6 -11 10 -39 10 -25 0 -47 4 -50 9 -11 17 59 35 158 40
67 4 101 10 104 19 2 8 -10 12 -42 12 -25 0 -46 4 -46 9 0 10 73 21 141 21 49
0 79 7 79 19 0 4 -26 5 -59 3 -63 -5 -87 9 -49 29 12 7 54 18 93 25 89 15 126
30 120 46 -3 8 12 23 35 36 22 12 40 27 40 33 0 14 -47 30 -73 24 -12 -2 -41
-6 -63 -9 -77 -9 -185 -39 -261 -72 -17 -8 -61 -23 -97 -34 -36 -11 -68 -25
-71 -30 -3 -5 -31 -16 -63 -25 -65 -18 -157 -54 -267 -106 -196 -91 -408 -160
-550 -178 -94 -11 -209 -41 -315 -81 -94 -36 -102 -38 -107 -23 -8 21 242 134
363 164 27 7 69 21 94 32 25 11 67 23 94 28 63 11 91 34 29 25 -24 -3 -44 -2
-48 4 -3 6 0 12 7 14 7 2 30 9 51 15 21 7 65 17 99 21 33 5 66 14 72 20 8 9
-1 10 -36 5 -31 -5 -48 -4 -48 3 0 11 22 17 103 28 26 3 50 11 54 17 4 6 -3 8
-20 3 -14 -3 -28 -2 -32 3 -7 12 19 26 65 36 51 10 140 57 140 73 0 7 18 21
40 29 40 16 53 33 25 33 -8 0 -15 4 -15 8 0 17 25 32 53 32 39 0 107 21 107
32 0 5 -9 7 -19 3 -11 -3 -22 -1 -26 4 -9 16 55 51 93 51 34 0 43 14 15 24
-13 5 -8 11 23 26 21 11 57 23 79 28 34 7 40 12 40 32 0 22 6 26 40 30 33 4
40 9 40 28 0 13 10 28 21 35 12 7 41 25 65 41 24 16 61 41 82 54 47 32 63 58
46 78 -6 8 -20 14 -30 14 -11 0 -19 5 -19 10 0 19 -36 7 -125 -42z m253 -530
c-3 -7 -41 -27 -86 -43 -44 -17 -84 -34 -88 -38 -4 -3 -76 -40 -160 -82 -148
-73 -306 -132 -429 -160 -33 -7 -92 -23 -131 -34 -97 -28 -285 -60 -281 -48 3
10 86 43 197 79 36 11 99 37 141 58 41 21 128 59 193 85 65 25 132 53 150 62
17 9 47 15 67 15 21 -1 42 4 49 13 39 46 391 133 378 93z m-1307 -434 c-18 -8
-52 -14 -75 -12 l-41 3 45 12 c25 6 59 11 75 11 l30 0 -34 -14z"/>
<path d="M10080 7309 c-74 -9 -160 -22 -190 -28 -30 -6 -86 -15 -125 -20 -38
-5 -119 -16 -180 -24 -60 -9 -150 -21 -200 -26 -49 -6 -130 -17 -180 -25 -60
-9 -186 -15 -378 -15 -159 -1 -311 -6 -339 -11 -28 -6 -89 -10 -137 -10 -86 0
-255 -28 -305 -51 -51 -24 -23 -34 85 -32 57 1 145 -4 194 -11 50 -7 117 -11
150 -10 33 1 101 -8 150 -18 113 -25 110 -25 112 -13 3 17 -307 75 -404 75
-41 0 -63 13 -43 25 23 14 203 25 498 29 171 3 322 8 334 11 13 3 122 17 243
31 121 15 249 30 285 34 36 4 121 13 190 20 69 6 142 18 163 26 20 8 58 14 84
14 26 0 61 5 80 12 18 6 36 8 40 4 14 -14 -24 -32 -109 -49 -45 -10 -112 -26
-148 -37 -127 -37 -570 -97 -633 -85 -21 4 -52 1 -78 -8 -24 -8 -84 -16 -134
-18 -155 -7 -477 -1 -550 10 -38 6 -71 8 -74 6 -11 -12 17 -20 122 -36 62 -10
144 -25 182 -34 124 -30 233 -38 276 -21 34 14 56 14 142 1 19 -3 27 0 27 10
0 11 -12 15 -45 15 -25 0 -45 4 -45 10 0 15 47 23 91 16 21 -3 57 -9 79 -12
33 -6 40 -4 40 10 0 20 -4 20 81 0 75 -17 90 -14 69 12 -14 16 -8 16 93 -3 23
-4 29 -1 34 16 4 17 10 20 32 14 47 -13 106 -8 104 8 -2 12 15 13 97 11 66 -2
100 0 100 7 0 6 -9 11 -21 11 -42 0 -11 25 40 32 28 5 66 14 85 22 18 7 66 17
107 21 76 7 109 24 109 55 0 20 -16 35 -45 42 -11 3 -81 -3 -155 -13z"/>
<path d="M7650 7016 c0 -2 35 -40 78 -84 73 -75 141 -121 205 -136 40 -9 39
-11 -34 -81 -21 -20 -22 -47 -4 -102 14 -43 -17 -27 -58 31 -13 18 -16 17 -54
-20 -45 -44 -123 -91 -123 -75 0 6 25 30 55 54 34 26 49 43 40 45 -16 4 -137
-83 -155 -112 -13 -20 -6 -30 26 -40 16 -5 39 5 85 39 105 74 104 74 144 35
29 -29 35 -41 35 -77 0 -96 40 -131 233 -208 134 -53 153 -63 162 -88 12 -36
3 -50 -67 -107 -85 -70 -160 -160 -153 -185 9 -30 12 -186 4 -191 -13 -8 -59
49 -76 96 -10 25 -23 56 -30 70 -7 14 -13 31 -13 38 0 8 -6 12 -12 9 -37 -13
50 -201 128 -278 42 -41 54 -60 54 -84 0 -26 7 -34 46 -54 25 -14 54 -35 64
-49 11 -13 23 -21 28 -18 5 3 12 34 15 70 5 53 13 74 42 114 19 27 35 56 35
63 0 8 10 19 22 24 13 6 29 22 36 38 7 15 20 27 27 27 18 0 29 41 20 69 -9 29
-19 26 -36 -11 -9 -20 -23 -35 -39 -38 -18 -4 -26 -13 -28 -33 -2 -19 -9 -27
-23 -27 -10 0 -20 -4 -20 -10 -5 -37 -20 -70 -32 -70 -7 0 -21 -28 -32 -62
-11 -34 -25 -64 -32 -66 -7 -2 -19 12 -27 31 -8 19 -20 39 -28 43 -21 13 -51
126 -52 196 -2 104 9 135 71 200 61 63 78 70 87 36 5 -20 7 -21 20 -8 7 8 28
49 46 90 35 80 90 143 166 191 43 28 65 60 78 112 5 20 3 27 -9 27 -8 0 -21
-12 -29 -27 -19 -36 -76 -96 -84 -88 -3 3 5 23 17 45 32 58 10 49 -38 -15 -23
-30 -46 -55 -51 -55 -17 0 -11 77 10 132 26 68 25 71 -9 54 -31 -17 -53 -56
-71 -128 -7 -27 -17 -48 -22 -48 -5 0 -20 12 -33 28 -32 36 -33 99 -2 153 19
34 20 41 7 49 -12 8 -10 10 8 10 13 0 32 4 42 10 12 6 28 6 48 -1 24 -8 37 -7
62 6 34 17 49 10 50 -22 0 -7 7 -13 15 -13 8 0 15 5 15 12 0 6 7 20 16 30 16
16 15 18 0 24 -9 4 -38 3 -64 -1 -26 -4 -77 -9 -113 -10 -88 -5 -120 -20 -212
-102 -97 -87 -119 -100 -155 -87 -37 12 -66 72 -53 107 7 18 15 24 28 21 26
-7 134 23 165 46 16 12 43 20 65 20 75 0 213 51 213 79 0 29 -45 61 -85 61
-29 0 -45 8 -71 34 -22 22 -34 29 -34 19 0 -26 60 -73 102 -79 48 -8 32 -24
-25 -24 -21 0 -45 -7 -53 -15 -38 -38 -184 11 -204 68 -12 35 -9 41 30 57 16
7 30 16 30 20 0 8 -58 26 -73 22 -14 -4 -65 27 -114 70 -53 46 -178 108 -217
108 -14 0 -26 -2 -26 -4z m141 -74 c44 -30 119 -94 119 -102 0 -25 -116 41
-145 82 -28 41 -17 49 26 20z m139 -273 c0 -11 -4 -17 -10 -14 -5 3 -10 15
-10 26 0 11 5 17 10 14 6 -3 10 -15 10 -26z m290 -168 c-5 -11 -10 -42 -10
-70 0 -27 -3 -52 -8 -54 -4 -3 -37 -3 -75 0 -47 4 -67 10 -67 19 0 8 5 14 10
14 6 0 32 20 58 43 68 63 113 86 92 48z"/>
<path d="M7997 7014 c-9 -10 12 -34 30 -34 19 0 12 34 -8 38 -8 1 -18 0 -22
-4z"/>
<path d="M8807 6995 c43 -20 173 -32 173 -16 0 6 -12 12 -27 13 -16 0 -39 3
-53 4 -14 2 -47 6 -75 9 l-50 5 32 -15z"/>
<path d="M8142 6983 c2 -13 20 -21 67 -31 94 -18 105 -27 57 -47 -57 -24 -283
-18 -297 8 -11 19 -34 23 -44 7 -4 -6 17 -21 47 -35 47 -21 67 -24 158 -23 58
0 112 6 122 11 11 8 28 7 56 -1 22 -7 50 -12 63 -11 22 1 21 2 -8 15 -38 16
-46 39 -10 28 12 -3 38 -15 58 -25 42 -21 70 -78 62 -124 l-6 -30 22 19 c14
13 21 31 21 57 0 32 4 40 23 44 35 9 149 -21 214 -55 51 -27 59 -29 69 -15 16
22 24 20 95 -30 65 -45 94 -55 101 -33 3 8 30 4 91 -15 49 -16 97 -25 110 -22
13 4 46 -3 76 -14 41 -17 64 -20 109 -15 31 4 62 10 68 15 5 5 27 3 48 -3 28
-9 42 -9 56 0 15 9 26 8 53 -3 29 -12 37 -12 54 0 19 13 30 12 99 -10 64 -20
99 -25 186 -25 65 0 108 4 108 10 0 6 -31 10 -74 10 -89 0 -166 10 -166 21 0
5 73 8 163 8 89 0 187 4 217 8 50 7 55 10 55 33 0 22 -6 26 -45 32 -116 17
-229 27 -275 23 -73 -6 -326 -6 -336 1 -5 3 -66 9 -136 14 -186 14 -324 30
-344 41 -10 5 -39 9 -66 9 -26 0 -109 14 -183 30 -74 17 -173 37 -220 45 -47
8 -119 25 -160 36 -62 17 -302 58 -348 59 -8 0 -12 -8 -10 -17z m378 -78 l25
-14 -31 -1 c-17 0 -37 7 -44 15 -10 12 -9 15 6 15 11 -1 30 -7 44 -15z m230
-46 c30 -6 78 -14 105 -18 28 -4 70 -13 95 -20 25 -6 97 -18 160 -27 63 -8
162 -22 220 -30 194 -28 244 -32 440 -33 227 -1 408 -10 415 -21 3 -4 -2 -11
-11 -14 -21 -8 -410 -9 -423 -2 -5 4 -101 9 -213 12 -228 6 -249 8 -298 23
-19 6 -53 11 -75 11 -48 0 -147 22 -274 61 -52 16 -108 29 -125 29 -33 0 -156
37 -156 47 0 5 18 3 140 -18z m235 -119 c3 -5 1 -10 -4 -10 -6 0 -11 5 -11 10
0 6 2 10 4 10 3 0 8 -4 11 -10z"/>
<path d="M9012 6968 c5 -15 37 -18 41 -3 1 6 -9 12 -22 13 -16 3 -22 -1 -19
-10z"/>
<path d="M7395 6908 c-16 -6 -49 -19 -73 -29 -49 -22 -49 -44 -1 -27 22 8 37
7 55 -1 32 -14 110 -24 135 -16 36 12 22 41 -30 64 -27 11 -51 21 -53 20 -2
-1 -16 -6 -33 -11z"/>
<path d="M8280 6831 c0 -5 10 -17 22 -25 25 -18 118 -22 118 -6 0 6 -21 10
-48 10 -27 0 -57 7 -70 16 -12 8 -22 11 -22 5z"/>
<path d="M7192 6774 c-33 -23 -27 -54 21 -107 50 -53 73 -58 126 -26 31 19 33
22 17 31 -13 8 -15 13 -5 24 15 19 39 18 39 -1 0 -11 5 -13 15 -8 23 13 66 76
58 84 -5 4 -43 3 -86 -3 -67 -10 -83 -9 -113 5 -43 21 -44 21 -72 1z"/>
<path d="M8092 6749 c14 -23 82 -62 92 -52 12 12 6 23 -13 23 -11 0 -33 11
-49 25 -36 30 -46 32 -30 4z"/>
<path d="M10436 6075 c-6 -16 3 -19 28 -9 22 8 20 24 -3 24 -10 0 -21 -7 -25
-15z"/>
<path d="M8484 5895 c-4 -8 -3 -22 0 -31 5 -13 9 -14 21 -4 8 7 15 21 15 31 0
23 -28 25 -36 4z"/>
<path d="M11950 5688 c-47 -11 -114 -28 -150 -38 -36 -10 -126 -35 -200 -55
-74 -20 -139 -41 -145 -45 -32 -26 -147 -44 -295 -45 -145 -1 -159 -2 -222
-28 -37 -16 -84 -31 -105 -34 -21 -3 -50 -12 -65 -19 -39 -20 -231 -64 -323
-75 -44 -5 -104 -12 -133 -15 -29 -4 -87 -1 -128 6 -54 8 -79 9 -87 1 -19 -19
34 -29 163 -31 149 -2 136 -3 280 22 109 18 235 53 308 84 18 8 40 14 50 14 9
0 40 9 69 20 42 16 84 20 220 24 199 5 262 15 281 45 10 14 25 21 46 21 17 0
71 14 119 30 49 17 95 30 104 30 8 0 48 11 88 25 40 14 77 25 82 23 7 -1 31 5
131 34 34 10 44 29 15 27 -10 -1 -56 -10 -103 -21z"/>
<path d="M9852 5338 c5 -14 160 -23 188 -11 20 8 -58 21 -133 22 -43 1 -58 -2
-55 -11z"/>
<path d="M3828 4228 c-44 -15 -96 -39 -114 -53 -39 -30 -42 -53 -19 -127 l14
-48 -42 -62 c-41 -62 -43 -63 -94 -68 -48 -5 -58 -11 -113 -65 l-61 -60 -17
22 c-24 29 -75 39 -93 17 -7 -9 -30 -27 -49 -39 -38 -24 -54 -54 -89 -169 -27
-87 -19 -103 41 -79 46 18 67 8 49 -25 -14 -26 -14 -29 3 -35 9 -4 22 7 35 29
11 19 32 39 47 44 22 9 25 15 20 36 -10 38 29 97 123 187 69 66 86 77 115 77
66 0 84 14 126 102 22 45 40 88 40 95 0 7 -7 34 -16 60 l-16 47 30 28 c38 33
118 58 185 58 l50 0 -38 -33 c-54 -46 -42 -61 44 -54 65 5 66 5 43 -13 -12
-10 -44 -26 -70 -36 -55 -20 -106 -65 -131 -114 -10 -19 -37 -68 -61 -109 -54
-91 -63 -153 -31 -204 31 -50 26 -85 -23 -189 -24 -51 -52 -127 -62 -168 -10
-41 -28 -99 -41 -128 -13 -29 -23 -59 -23 -66 0 -23 -68 -145 -119 -213 -52
-68 -96 -104 -193 -154 -94 -48 -195 -35 -191 26 1 15 -6 40 -15 54 -49 71
-53 114 -14 131 82 34 106 70 117 172 3 37 10 70 14 73 5 2 38 6 75 7 64 3 69
1 88 -24 25 -36 73 -39 84 -6 5 16 0 26 -20 41 l-27 20 31 32 32 33 -23 15
c-17 11 -39 14 -77 10 -48 -5 -54 -9 -66 -38 -13 -31 -16 -32 -103 -44 -49 -7
-105 -12 -124 -12 -19 -1 -58 -7 -86 -15 -29 -8 -64 -12 -77 -8 -18 4 -48 -7
-113 -42 -48 -26 -99 -57 -112 -68 -34 -31 -84 -113 -105 -176 -10 -30 -32
-81 -47 -114 -16 -32 -29 -67 -29 -78 0 -12 -4 -37 -9 -57 -5 -20 -20 -85 -32
-146 -12 -60 -33 -148 -46 -195 -14 -47 -31 -105 -38 -130 -7 -25 -26 -76 -43
-115 -16 -38 -35 -95 -42 -125 -20 -83 -73 -204 -135 -301 -30 -47 -55 -91
-55 -95 0 -15 -118 -139 -125 -132 -4 3 9 48 27 98 20 53 33 103 30 117 -6 32
-48 61 -65 44 -9 -9 -7 -16 12 -30 23 -17 23 -20 12 -68 -8 -30 -30 -74 -57
-109 -24 -32 -46 -72 -50 -89 -8 -43 -72 -133 -119 -166 -40 -29 -194 -89
-227 -89 -9 0 -24 8 -33 17 -13 13 -21 14 -34 6 -10 -6 -46 -14 -82 -17 -60
-7 -67 -5 -119 27 -63 38 -108 96 -116 149 -6 35 -5 37 31 52 21 9 46 16 56
16 46 0 149 135 149 195 0 15 8 39 18 53 10 15 26 54 36 87 21 73 70 199 108
280 15 33 37 93 48 133 22 79 135 297 206 399 59 83 166 178 244 217 142 70
338 177 384 210 27 19 108 93 180 164 72 71 149 139 171 152 22 13 42 27 45
30 16 20 82 50 108 50 18 0 43 10 61 25 26 23 38 26 93 23 67 -3 73 -8 95 -83
7 -26 14 -30 46 -33 39 -3 47 7 21 29 -13 10 -15 24 -11 62 l6 48 -34 -7 c-23
-4 -41 -1 -57 10 -40 28 -136 13 -233 -37 -16 -9 -56 -28 -88 -43 -56 -27 -59
-27 -86 -11 -48 28 -136 -12 -102 -46 7 -7 19 -6 36 3 17 9 29 10 36 3 16 -16
-243 -275 -307 -307 -28 -14 -65 -37 -82 -51 -31 -26 -218 -89 -234 -79 -17
11 -37 63 -49 125 l-12 65 37 57 c45 69 76 82 113 45 l25 -25 -35 -69 c-64
-125 -72 -154 -45 -154 5 0 24 34 43 76 48 104 98 185 167 267 32 38 62 86 67
106 34 127 41 163 41 192 0 31 9 64 46 174 16 47 78 127 113 147 28 15 46 13
125 -14 58 -20 61 -20 93 -3 45 25 55 10 15 -23 -22 -19 -32 -36 -32 -54 0
-25 -2 -27 -30 -21 -27 5 -36 0 -70 -37 -69 -74 -150 -257 -150 -336 0 -52 34
-174 49 -174 11 0 12 15 6 83 -5 45 -8 97 -7 115 3 50 55 156 89 180 17 12 48
45 69 72 33 44 43 50 64 46 112 -26 149 -29 175 -12 14 9 25 21 25 26 0 19
-33 40 -85 56 -30 8 -57 19 -60 24 -3 5 22 30 56 55 33 26 64 57 69 69 19 50
-42 61 -119 21 -62 -33 -110 -41 -163 -26 -63 17 -137 2 -187 -38 -80 -63
-127 -185 -152 -386 -14 -119 -25 -151 -68 -199 -20 -23 -45 -53 -54 -68 -25
-41 -54 -36 -66 10 -6 20 -11 43 -11 50 0 29 -32 22 -76 -17 -37 -32 -55 -41
-84 -41 -22 0 -48 -8 -61 -19 -20 -16 -21 -21 -10 -35 8 -9 28 -16 47 -16 19
0 34 -3 34 -7 0 -5 -9 -39 -20 -78 -16 -58 -17 -78 -8 -120 6 -27 17 -59 24
-70 22 -31 17 -48 -24 -75 -71 -47 -228 -209 -263 -271 -19 -33 -46 -76 -61
-96 -16 -20 -28 -41 -28 -49 0 -7 -18 -47 -41 -90 -23 -42 -58 -130 -78 -194
-21 -64 -45 -127 -54 -141 -22 -34 -107 -296 -107 -331 0 -15 -4 -29 -9 -32
-5 -3 -20 -30 -35 -60 -34 -69 -77 -116 -107 -116 -13 0 -43 -7 -66 -16 -55
-21 -61 -44 -33 -128 16 -50 32 -74 70 -110 27 -26 61 -51 75 -56 37 -14 31
-26 -22 -40 -27 -6 -66 -18 -88 -25 -67 -22 -103 -27 -124 -15 -26 14 -51 61
-51 97 0 55 -14 61 -67 32 -58 -33 -116 -49 -133 -39 -16 10 -43 78 -41 105 3
71 20 173 31 191 7 11 31 33 54 47 22 15 58 41 78 59 64 56 215 267 278 388
33 63 85 156 115 205 53 87 97 200 125 325 7 30 16 65 20 77 14 34 0 131 -32
227 -20 63 -28 105 -26 140 3 45 6 52 33 65 17 8 65 17 107 19 65 4 79 2 84
-12 3 -8 21 -25 39 -36 19 -12 35 -31 38 -48 12 -52 20 -57 68 -42 62 21 72
34 65 94 -25 237 -43 302 -98 349 -21 18 -63 53 -93 80 -30 26 -65 47 -76 47
-36 0 -83 -28 -134 -80 -27 -28 -57 -50 -66 -50 -10 0 -26 -10 -36 -23 -10
-13 -23 -22 -29 -20 -15 5 -74 -75 -74 -100 0 -23 -134 -157 -156 -157 -9 0
-29 -10 -44 -22 -16 -13 -52 -39 -80 -58 -29 -19 -60 -43 -69 -53 -9 -10 -43
-46 -77 -80 -34 -34 -81 -91 -105 -127 -54 -79 -141 -246 -175 -338 -14 -37
-41 -96 -60 -132 -30 -58 -134 -363 -134 -395 0 -7 -7 -19 -16 -26 -14 -12
-80 -140 -117 -230 -16 -39 -88 -111 -113 -115 -21 -3 -64 -44 -64 -60 0 -23
43 -44 90 -44 25 0 63 -7 85 -15 22 -8 59 -14 82 -15 23 0 45 -5 48 -10 16
-27 -21 -85 -116 -179 -121 -121 -121 -130 -4 -152 28 -6 62 -12 76 -15 34 -7
42 6 28 44 -6 19 -22 35 -40 42 -20 9 -28 18 -25 27 4 8 6 17 6 19 0 2 8 4 18
4 14 0 27 -19 47 -67 15 -38 31 -71 34 -74 3 -4 39 -10 79 -13 l73 -7 35 38
c60 65 65 74 62 96 -3 20 -7 22 -79 19 -72 -3 -77 -2 -107 26 -38 35 -39 56
-13 138 22 64 20 74 -9 56 -16 -10 -20 -10 -20 1 0 17 125 67 167 67 24 0 37
-7 53 -29 11 -17 29 -32 39 -36 11 -3 27 -28 40 -64 31 -87 74 -140 132 -164
46 -20 49 -23 49 -57 0 -20 6 -45 14 -55 13 -19 15 -18 57 10 28 18 55 28 74
27 112 -8 110 -9 113 20 3 23 8 28 31 28 15 0 31 -4 37 -9 5 -6 38 -3 82 7 48
10 76 12 83 5 6 -6 4 -41 -7 -104 -17 -101 -14 -165 11 -203 16 -23 16 -23 68
-9 29 9 59 22 68 29 8 8 25 14 37 14 28 0 152 41 152 50 0 3 -25 17 -56 30
-68 28 -171 111 -180 144 -6 24 23 93 48 113 15 12 140 44 183 46 22 2 29 -2
26 -13 -2 -8 -3 -23 -3 -32 0 -10 -3 -20 -8 -23 -5 -3 -7 -58 -4 -123 10 -199
51 -274 160 -295 25 -5 36 -1 54 17 19 21 28 23 80 19 60 -6 211 12 243 29 13
7 22 4 36 -13 l17 -21 85 21 c46 12 126 32 177 43 86 19 94 20 110 4 12 -10
36 -16 63 -16 55 1 184 43 184 62 0 7 -7 11 -15 9 -8 -2 -36 -4 -61 -5 -25 -2
-51 -6 -58 -11 -9 -5 -17 -2 -23 9 -8 14 -22 16 -104 10 -79 -5 -94 -4 -94 9
0 26 -29 27 -123 6 -51 -11 -100 -22 -109 -24 -9 -2 -27 -9 -40 -16 -13 -7
-70 -16 -128 -20 -58 -4 -122 -11 -142 -14 -28 -5 -50 -1 -92 18 -62 29 -73
42 -25 32 50 -11 179 4 179 21 0 7 14 20 30 29 18 9 30 23 30 35 0 25 -17 25
-77 -1 -26 -12 -78 -23 -114 -26 -77 -5 -105 6 -158 60 l-34 36 11 70 c6 44
18 81 31 97 12 15 21 32 21 39 0 7 50 57 111 111 165 147 344 363 386 467 33
82 71 127 105 127 79 0 168 51 168 96 0 20 -5 18 -44 -17 -40 -35 -98 -48
-122 -28 -20 17 -14 54 32 179 36 99 52 169 60 255 7 70 102 469 127 533 21
53 80 132 98 132 5 0 19 -16 30 -35 30 -50 39 -35 22 35 -14 55 -14 62 2 86
20 30 95 68 109 54 16 -16 28 -376 16 -450 -21 -121 -21 -120 -41 -120 -39 0
-53 43 -53 174 -1 90 -5 127 -15 140 -8 9 -16 14 -19 11 -3 -3 -7 -74 -9 -158
-2 -140 -5 -160 -37 -267 -76 -251 -95 -328 -101 -400 -4 -45 -13 -82 -23 -92
-13 -16 -14 -33 -4 -140 13 -142 17 -134 -90 -205 -93 -61 -91 -79 4 -85 40
-3 88 -12 105 -22 29 -14 36 -15 55 -2 13 7 63 17 113 21 126 9 145 14 155 41
6 15 20 25 42 28 18 3 57 10 86 15 29 4 54 6 56 2 2 -3 16 -42 31 -85 24 -70
27 -90 22 -160 -3 -45 -8 -89 -12 -98 -11 -28 -39 -30 -104 -8 -102 34 -111
28 -111 -78 0 -59 19 -108 54 -141 41 -39 331 -78 407 -55 11 3 19 -3 23 -18
11 -44 6 -65 -39 -132 -25 -38 -45 -72 -45 -76 0 -4 -9 -15 -20 -25 -47 -43
-4 -52 91 -20 89 30 104 31 135 6 30 -24 92 -25 142 -4 23 10 62 14 116 12 45
-2 133 0 196 4 113 6 114 6 65 -9 -83 -25 -80 -23 -67 -36 14 -14 269 22 387
54 39 10 100 25 138 32 71 14 97 29 97 53 0 14 -25 15 -192 9 -116 -4 -241
-15 -313 -27 -218 -37 -285 -42 -306 -23 -12 11 -28 15 -48 11 -41 -8 -46 3
-12 24 39 24 58 57 36 65 -8 4 -28 3 -43 -1 -88 -22 -222 -9 -265 25 l-20 17
32 68 c17 38 53 92 79 120 26 29 58 71 72 94 36 61 92 119 120 124 14 3 51 11
82 18 56 12 59 11 142 -25 46 -20 94 -36 106 -36 36 0 35 29 -1 66 l-34 35 29
25 c15 14 41 27 57 31 15 3 36 14 45 24 26 29 4 48 -49 42 -60 -7 -116 26
-119 70 -2 47 -2 50 6 75 6 16 3 22 -8 22 -10 0 -26 -22 -41 -56 -43 -96 -112
-192 -161 -220 -53 -31 -84 -27 -60 8 9 12 16 35 16 50 0 16 22 88 49 162 78
211 86 265 74 459 -11 174 -29 247 -76 309 -34 46 -67 113 -67 138 0 12 7 53
16 91 12 53 25 80 54 113 20 24 47 66 60 93 28 63 61 125 72 140 11 13 116 33
180 33 24 0 47 3 50 6 13 13 -7 46 -39 62 l-34 18 39 17 c22 9 47 26 56 36 17
18 17 20 -2 39 -18 18 -29 19 -111 14 -92 -5 -92 -5 -124 25 -88 84 -171 78
-246 -17 -29 -36 -41 -46 -41 -33 0 24 51 178 74 221 15 29 21 33 56 30 102
-6 158 166 60 185 -17 4 -42 18 -56 32 -22 22 -24 31 -19 73 6 49 78 208 115
254 20 26 162 109 210 123 31 9 80 54 80 73 0 12 -13 14 -70 9 -38 -3 -70 -2
-70 2 0 4 9 16 20 26 43 39 23 52 -88 57 -47 2 -83 -4 -144 -24z m-486 -526
c16 -27 16 -29 -24 -87 -31 -47 -46 -60 -67 -61 -14 -1 -34 -4 -43 -9 -15 -6
-18 -2 -18 22 0 43 40 115 79 140 44 30 53 29 73 -5z m492 -158 c9 -3 16 -13
16 -21 0 -17 -58 -78 -67 -70 -8 8 17 97 27 97 5 0 15 -3 24 -6z m-2207 -258
c21 -14 47 -49 73 -99 37 -71 40 -84 40 -155 0 -42 -4 -83 -9 -91 -10 -15 -31
-7 -31 12 0 7 -5 19 -10 27 -8 13 -11 12 -24 -5 -12 -16 -18 -18 -33 -9 -20
12 -31 54 -14 54 6 0 11 5 11 10 0 6 -15 10 -34 10 -24 0 -35 -5 -38 -17 -2
-13 -17 -17 -82 -18 l-78 -1 -49 -51 c-59 -62 -68 -92 -45 -153 10 -25 29 -81
43 -125 23 -75 24 -86 14 -165 -17 -137 -105 -384 -166 -465 -12 -16 -41 -61
-63 -98 -23 -38 -68 -103 -99 -144 -75 -97 -240 -270 -249 -260 -4 4 -2 28 5
55 20 74 25 122 12 122 -6 0 -11 -7 -11 -17 0 -9 -13 -57 -29 -107 -36 -112
-51 -208 -51 -331 0 -57 -4 -95 -10 -95 -5 0 -10 7 -10 15 0 29 -40 94 -66
108 -21 11 -27 23 -30 58 -2 24 -10 49 -18 54 -20 15 -25 139 -9 210 21 90 21
100 -2 100 -17 0 -23 -12 -37 -75 -9 -41 -17 -123 -17 -182 l-1 -107 -42 -11
c-24 -6 -63 -17 -88 -25 -66 -21 -179 -25 -215 -7 -56 27 -56 30 -4 79 35 33
62 72 90 132 23 47 45 88 49 91 16 10 80 162 114 273 19 62 71 191 114 287 44
96 82 187 85 201 4 14 19 43 34 65 14 21 51 75 81 119 80 118 183 224 302 312
99 74 174 147 213 208 38 62 161 186 204 209 42 21 103 35 128 28 11 -2 34
-14 52 -26z m2289 -101 c24 -25 48 -45 54 -45 21 0 9 -16 -25 -34 -32 -18 -49
-56 -25 -56 6 0 -7 -17 -28 -38 -20 -20 -43 -56 -51 -79 -8 -23 -27 -54 -42
-69 -16 -15 -34 -43 -40 -62 -6 -19 -30 -64 -53 -101 -40 -64 -41 -68 -41
-153 0 -80 2 -89 26 -115 68 -73 106 -162 125 -298 21 -143 0 -289 -71 -495
-14 -41 -30 -104 -34 -140 -12 -94 -65 -216 -115 -265 -66 -64 -85 -76 -181
-117 -76 -33 -105 -40 -186 -45 -116 -7 -201 2 -229 25 -22 18 -46 100 -33
113 4 4 37 1 72 -8 l64 -16 28 31 c15 17 33 51 39 74 6 24 15 59 21 78 9 30 5
50 -21 135 -54 173 -49 292 22 521 25 83 55 147 117 255 124 217 183 313 212
346 35 41 113 195 132 260 9 29 19 85 22 125 9 95 22 137 54 172 32 35 55 45
104 45 33 1 45 -6 83 -44z m-821 -9 l50 -1 -2 -40 c-5 -118 -103 -241 -103
-129 0 28 -5 36 -25 44 -18 7 -25 17 -25 37 0 20 -3 24 -11 16 -13 -13 -8 -73
15 -196 22 -118 50 -186 87 -219 30 -25 31 -28 24 -86 -4 -33 -16 -80 -28
-105 -19 -41 -31 -51 -97 -84 -41 -21 -83 -51 -95 -66 -20 -28 -20 -29 0 -43
22 -16 81 -10 106 12 22 19 36 18 96 -10 43 -20 54 -22 63 -11 8 10 6 24 -11
56 -31 61 -23 151 19 235 28 56 35 63 81 78 73 24 75 23 67 -30 -4 -31 1 -72
15 -129 l21 -84 -28 -48 c-45 -79 -174 -343 -180 -371 -3 -15 -17 -64 -31
-109 -22 -76 -23 -89 -13 -160 8 -59 8 -78 -2 -84 -11 -7 -75 -16 -123 -18
-11 -1 -40 -4 -64 -7 -62 -9 -179 14 -218 43 -27 19 -34 35 -49 100 -25 112
-19 232 15 316 6 16 11 48 11 73 0 25 6 59 13 77 8 18 20 57 26 87 12 52 61
210 68 219 2 3 16 -8 31 -22 36 -34 48 -34 66 1 33 63 46 197 40 412 l-6 205
54 27 c32 16 61 24 73 21 11 -4 43 -7 70 -7z m546 -206 c-5 -38 -17 -84 -26
-102 -10 -18 -31 -60 -46 -93 -16 -33 -34 -67 -39 -75 -5 -8 -23 -37 -39 -65
-47 -78 -105 -139 -124 -132 -14 5 -17 22 -17 101 l0 95 90 92 c90 93 133 163
186 304 l19 50 3 -52 c2 -29 -1 -84 -7 -123z m-561 -572 c0 -17 -3 -19 -12
-10 -8 8 -18 5 -40 -13 -30 -25 -96 -36 -82 -14 7 13 103 59 122 59 6 0 12
-10 12 -22z m-472 -790 c7 -7 12 -25 12 -40 0 -34 -19 -36 -94 -9 l-50 17 55
21 c67 26 63 25 77 11z m1368 -132 c-10 -6 -34 -21 -52 -33 -18 -12 -36 -18
-38 -14 -3 4 11 39 31 76 l36 68 20 -43 c20 -42 20 -44 3 -54z m19 -59 c-4
-15 1 -32 15 -50 l21 -27 -20 0 c-19 0 -101 44 -101 54 0 7 65 46 78 46 8 0
10 -8 7 -23z m-3691 -323 c11 -28 6 -39 -9 -20 -8 11 -15 23 -15 28 0 14 18 9
24 -8z m636 -9 c0 -18 -46 -42 -58 -31 -7 8 33 46 49 46 5 0 9 -7 9 -15z m24
-72 c7 -17 1 -23 -46 -48 -34 -19 -35 -19 -48 5 -9 17 -6 23 22 40 40 24 64
25 72 3z m-584 -46 c0 -6 -9 -2 -20 8 -11 10 -20 23 -20 28 0 6 9 2 20 -8 11
-10 20 -23 20 -28z m990 -140 c0 -7 16 -32 35 -54 19 -23 35 -44 35 -47 0 -10
-69 -6 -75 4 -10 16 -12 110 -3 110 4 0 8 -6 8 -13z m123 -17 c46 -29 60 -50
34 -50 -18 0 -97 57 -97 70 0 16 13 12 63 -20z m1965 -26 c-4 -3 -25 -8 -47
-11 -48 -7 -53 6 -13 36 27 20 27 20 46 1 11 -11 17 -22 14 -26z m142 40 c0
-18 -23 -44 -40 -44 -27 0 -68 20 -74 36 -4 11 8 14 54 14 33 0 60 -3 60 -6z
m-1245 -114 c-3 -5 -15 -10 -26 -10 -11 0 -17 5 -14 10 3 6 15 10 26 10 11 0
17 -4 14 -10z"/>
<path d="M1490 3230 c-21 -39 15 -85 46 -59 19 16 18 65 -2 73 -25 10 -33 7
-44 -14z"/>
<path d="M1189 2853 c-36 -42 -60 -96 -49 -107 15 -14 103 77 98 102 -5 23
-31 26 -49 5z"/>
<path d="M1218 2639 c-28 -16 -21 -29 16 -29 29 0 36 -5 45 -30 29 -83 -50
-277 -198 -486 -47 -66 -220 -254 -235 -254 -12 0 -5 76 13 125 10 28 48 97
84 155 37 58 67 115 67 126 0 26 -23 47 -46 42 -22 -4 -31 -28 -10 -28 32 0 6
-89 -43 -145 -88 -101 -159 -353 -100 -355 10 0 193 194 267 283 60 72 68 78
94 73 33 -6 48 15 28 39 -9 11 -2 33 34 106 88 177 110 265 85 338 -16 47 -60
64 -101 40z"/>
<path d="M1059 2548 c-55 -37 -72 -43 -116 -43 -62 0 -72 -8 -48 -35 35 -39
126 -16 206 51 48 40 63 69 35 69 -7 0 -42 -19 -77 -42z"/>
<path d="M774 2153 c-21 -4 -52 -48 -42 -59 7 -7 64 22 73 37 10 15 -6 26 -31
22z"/>
<path d="M3770 3185 c-19 -21 -20 -24 -5 -39 32 -32 79 -16 87 28 2 15 -4 21
-29 27 -26 5 -36 2 -53 -16z"/>
<path d="M3619 2199 c-64 -70 -81 -83 -124 -94 -49 -12 -50 -13 -51 -51 -1
-22 -7 -79 -14 -129 -7 -49 -13 -137 -13 -195 0 -102 1 -109 47 -230 45 -116
69 -160 86 -160 11 0 47 88 56 135 4 22 17 60 30 85 22 43 50 158 93 382 35
177 24 338 -23 338 -7 0 -46 -36 -87 -81z m104 -19 c4 -25 5 -74 2 -110 -8
-94 -63 -353 -91 -430 -12 -36 -36 -100 -51 -144 -15 -43 -32 -78 -38 -78 -5
0 -28 49 -52 109 l-43 108 5 125 c8 214 16 300 28 300 35 0 101 48 147 106 61
77 81 80 93 14z"/>
<path d="M3810 4140 c-12 -23 -6 -40 15 -40 16 0 29 35 20 50 -10 16 -23 12
-35 -10z"/>
<path d="M5124 3936 c-18 -8 -82 -20 -144 -27 l-112 -13 -33 -44 c-44 -56 -61
-107 -47 -136 13 -26 23 -81 23 -121 0 -21 -11 -39 -35 -62 -33 -30 -38 -32
-101 -29 -52 2 -71 -1 -90 -15 -13 -11 -29 -19 -37 -19 -7 0 -26 -13 -41 -30
-28 -30 -86 -48 -108 -35 -7 5 -10 24 -6 55 7 60 -3 70 -68 70 -45 0 -55 -4
-82 -32 -51 -53 -143 -172 -143 -185 0 -23 19 -24 59 -3 57 29 80 26 94 -10 7
-17 25 -36 43 -45 52 -25 57 -37 35 -86 -25 -56 -61 -172 -61 -199 0 -11 6
-20 13 -20 14 0 37 40 37 66 0 32 64 177 91 209 16 18 29 39 29 47 0 22 80
117 104 124 12 4 28 13 37 21 9 8 52 23 95 33 135 33 149 45 179 145 9 29 18
41 35 43 41 6 44 -12 14 -96 l-28 -79 32 -50 c36 -56 38 -72 17 -114 -22 -41
-22 -276 0 -390 20 -106 -123 -355 -215 -375 -14 -3 -38 -11 -54 -17 -17 -6
-37 -12 -45 -13 -139 -15 -169 -15 -223 0 -51 15 -59 21 -78 61 -24 50 -30
151 -17 278 8 74 8 79 -9 75 -29 -5 -44 -132 -37 -300 5 -126 4 -140 -16 -180
-12 -25 -33 -51 -49 -58 -51 -26 -122 -82 -122 -96 0 -11 25 -14 133 -14 72 0
142 3 155 6 34 10 26 30 -22 53 -24 12 -51 30 -61 41 -17 19 -17 21 1 41 36
40 62 45 216 43 149 -1 178 -8 178 -40 0 -8 -11 -19 -24 -23 -28 -11 -90 -87
-81 -101 3 -5 44 -10 91 -10 50 0 84 -4 84 -10 0 -6 -36 -83 -79 -173 -43 -89
-86 -193 -95 -231 -9 -38 -23 -81 -30 -95 -8 -14 -21 -71 -30 -126 -19 -110
-36 -143 -84 -159 -64 -22 -63 -51 3 -119 l37 -38 -28 -30 c-18 -19 -52 -36
-98 -50 -117 -35 -141 -44 -141 -54 0 -17 68 -55 100 -55 21 0 39 -8 55 -25
21 -23 24 -23 51 -9 19 9 38 12 56 7 27 -7 27 -8 -10 -13 -21 -3 -37 -9 -37
-15 0 -6 49 -10 125 -10 85 0 125 -4 125 -11 0 -6 -26 -14 -58 -17 -66 -7 -92
-15 -92 -28 0 -14 128 -10 207 6 40 8 100 17 133 20 33 2 88 9 123 15 34 5 75
10 90 10 24 0 27 -3 22 -22 -7 -21 -6 -21 81 -13 138 12 144 12 237 13 65 2
88 5 85 14 -11 31 -253 59 -388 46 -52 -5 -111 -10 -130 -9 -87 1 -226 14
-235 21 -6 5 -51 14 -100 20 -50 7 -95 16 -102 22 -6 5 -17 31 -23 59 -16 64
-4 81 50 73 26 -4 47 -1 67 10 15 8 78 34 138 57 97 37 288 123 369 166 37 20
42 12 51 -86 7 -73 23 -125 65 -203 11 -20 20 -44 20 -52 0 -21 35 -20 85 3
23 10 67 21 100 26 32 4 64 9 72 12 18 7 17 49 -2 57 -19 7 -19 35 0 60 8 11
15 31 15 44 0 22 -3 23 -37 18 -99 -14 -251 -17 -258 -6 -4 7 -10 52 -12 100
l-5 89 135 135 c185 186 259 293 272 399 4 27 24 82 46 124 50 95 69 173 69
288 0 168 38 402 68 425 4 3 20 23 37 45 16 22 55 65 86 96 31 30 73 85 93
122 34 60 37 72 34 128 l-3 62 51 46 c63 57 101 123 79 141 -11 9 -23 6 -58
-14 -70 -41 -74 -33 -22 44 28 41 33 56 24 66 -6 8 -19 14 -28 14 -17 0 -88
-90 -157 -200 -40 -62 -43 -65 -77 -62 -30 3 -42 -4 -94 -52 -32 -30 -72 -78
-87 -106 -26 -47 -29 -65 -37 -207 -8 -136 -12 -158 -32 -185 -30 -41 -67 -58
-127 -58 -94 0 -346 -137 -482 -262 -38 -34 -68 -68 -68 -75 0 -17 16 -17 23
1 7 18 232 175 287 199 25 11 64 33 87 50 37 26 55 31 133 37 166 14 195 52
209 281 10 165 22 198 97 279 33 35 54 49 82 53 20 3 46 9 58 12 17 5 21 2 20
-17 -1 -18 4 -22 21 -20 37 5 40 -39 7 -95 -16 -27 -34 -59 -40 -73 -7 -14
-33 -49 -58 -78 -47 -55 -103 -144 -123 -197 -18 -46 -40 -177 -53 -310 -14
-142 -28 -204 -75 -350 -62 -191 -110 -275 -228 -395 -56 -58 -124 -123 -151
-145 -27 -22 -68 -57 -91 -77 -23 -21 -61 -45 -85 -53 -55 -19 -134 -68 -184
-112 -39 -36 -133 -83 -164 -83 -9 0 -57 -12 -105 -26 -88 -26 -137 -26 -137
-1 0 7 7 37 15 67 8 30 20 80 25 110 5 30 21 89 35 130 15 41 30 89 35 105 5
17 22 66 38 110 17 44 39 105 50 136 18 51 91 200 110 224 4 6 29 42 54 80 26
39 56 79 67 89 24 22 27 36 7 36 -8 0 -33 -22 -56 -50 -46 -55 -83 -65 -113
-32 -17 19 -24 72 -9 72 4 0 41 33 82 72 83 82 142 190 161 293 10 53 8 73
-14 174 -15 63 -24 118 -21 123 9 14 40 9 56 -9 9 -10 28 -42 42 -70 14 -29
32 -53 39 -53 6 0 24 23 39 50 45 81 66 248 38 300 -11 20 -17 22 -76 15 -59
-6 -65 -5 -89 19 -14 14 -25 31 -25 39 0 8 -7 20 -15 27 -22 19 -19 51 21 176
32 105 38 117 72 139 21 14 62 29 92 35 58 11 87 30 75 50 -5 8 -23 10 -57 6
-57 -8 -58 6 -3 24 46 15 65 48 39 67 -21 16 -21 16 -60 -1z m-54 -66 c0 -6
-10 -15 -23 -21 -25 -11 -67 -67 -67 -89 0 -26 -62 -80 -92 -80 -23 0 -28 4
-28 23 0 13 -7 32 -15 43 -21 28 -19 32 23 44 26 6 43 18 50 35 7 14 27 32 45
40 37 17 107 20 107 5z m-706 -392 c2 -18 4 -52 4 -76 0 -28 6 -50 18 -63 16
-17 16 -22 4 -29 -28 -18 -69 -10 -102 19 -49 42 -70 51 -92 39 -25 -14 -31
-3 -13 25 21 33 138 113 169 116 4 1 9 -14 12 -31z m750 -164 c20 -19 20 -20
1 -117 -16 -82 -29 -117 -45 -117 -11 0 -36 26 -64 65 -15 22 -24 26 -48 23
-30 -5 -30 -5 -26 37 3 23 11 54 19 71 12 25 21 30 66 34 28 3 55 9 59 13 11
11 21 9 38 -9z m-674 -1898 c-13 -13 -35 7 -25 24 5 8 11 8 21 -1 10 -8 12
-15 4 -23z m1025 -78 c-10 -48 -18 -52 -78 -34 -66 19 -82 43 -34 50 125 21
120 21 112 -16z m-52 -73 c43 -8 32 -21 -30 -35 -32 -6 -67 -14 -79 -17 -29
-7 -80 77 -64 106 10 19 13 19 78 -14 37 -19 79 -37 95 -40z m-1033 -70 c0
-22 -16 -26 -70 -19 -57 7 -55 19 5 32 46 10 65 6 65 -13z m88 -8 c3 -12 -3
-17 -22 -17 -28 0 -29 1 -20 25 8 20 38 15 42 -8z"/>
<path d="M2640 3822 c-51 -7 -77 -60 -50 -102 12 -20 38 -4 63 38 25 42 19 68
-13 64z"/>
<path d="M6731 3418 c-28 -62 -54 -129 -57 -148 -8 -42 -31 -90 -43 -90 -5 0
-34 -23 -65 -50 -47 -44 -56 -58 -66 -104 -10 -47 -8 -61 10 -112 70 -194 74
-244 22 -236 -31 4 -92 -21 -92 -39 0 -5 -22 -32 -49 -58 -27 -27 -74 -87
-104 -134 -62 -95 -77 -110 -77 -75 0 14 -6 32 -13 42 -13 17 -16 17 -63 -7
-59 -30 -110 -89 -143 -167 -35 -80 -96 -206 -132 -273 -27 -50 -30 -62 -20
-83 l11 -26 86 81 c81 77 114 97 114 69 0 -15 -45 -136 -88 -234 -66 -152 -60
-267 23 -420 25 -46 45 -94 45 -107 0 -55 -45 -137 -75 -137 -6 0 -21 -13 -32
-29 -12 -15 -42 -38 -67 -50 -39 -18 -46 -26 -46 -50 0 -26 4 -29 57 -40 77
-15 92 -14 136 9 32 18 38 18 43 5 4 -8 4 -21 1 -29 -8 -20 58 -30 103 -15 19
6 60 13 90 15 30 3 97 13 148 24 67 13 101 16 125 9 17 -5 43 -7 57 -5 14 3
43 2 65 -2 57 -10 53 -34 -9 -47 -68 -15 -77 -41 -12 -32 45 7 243 66 296 90
67 29 483 70 581 57 88 -12 337 -11 344 1 4 6 5 12 4 14 -6 5 -159 16 -319 22
-80 3 -147 7 -149 9 -12 11 26 14 255 19 137 3 257 8 267 11 9 3 17 12 17 20
0 12 32 14 195 14 187 0 195 1 205 21 20 36 7 48 -39 38 -22 -5 -50 -9 -63 -9
-109 1 -643 -11 -718 -16 -52 -3 -140 -8 -195 -9 -55 -2 -121 -6 -146 -10 -41
-6 -58 -2 -145 36 -85 37 -109 54 -167 113 -38 38 -78 90 -91 115 -12 25 -29
56 -36 68 -12 19 -12 28 -1 55 7 18 20 60 29 93 8 33 19 73 25 88 11 32 45 50
65 35 8 -8 12 -6 12 5 0 8 -7 17 -15 21 -16 6 -20 43 -6 65 5 7 14 11 19 7 7
-4 12 9 14 35 2 24 9 44 16 47 15 5 17 -84 3 -122 -7 -18 -6 -27 3 -35 11 -9
20 8 46 81 46 133 68 245 76 394 7 129 6 132 -15 144 -20 10 -26 7 -59 -29
-21 -23 -42 -41 -48 -41 -6 0 -21 11 -34 25 -26 27 -29 29 -48 17 -10 -7 -8
-23 9 -77 11 -37 19 -75 16 -85 -2 -9 0 -45 4 -80 8 -51 6 -66 -6 -80 -8 -9
-15 -27 -15 -39 0 -12 -18 -66 -40 -120 -22 -53 -40 -103 -40 -109 0 -29 -83
-220 -122 -279 -23 -37 -42 -73 -40 -80 2 -7 -1 -12 -7 -11 -5 2 -35 -24 -66
-56 -51 -53 -58 -58 -67 -42 -6 11 -8 46 -4 87 5 50 4 69 -4 69 -27 0 -71 -44
-105 -105 -30 -54 -45 -70 -86 -90 -53 -27 -62 -50 -31 -78 14 -13 26 -14 67
-6 28 5 60 7 72 4 30 -7 173 51 211 86 17 16 52 58 77 94 26 36 50 65 55 65 4
0 22 -30 41 -67 31 -63 33 -74 32 -158 -1 -49 -4 -117 -6 -149 l-4 -59 -69 3
c-101 5 -183 2 -234 -9 -25 -5 -66 -14 -92 -20 -48 -10 -78 -7 -78 9 0 5 5 12
10 15 23 14 6 34 -47 56 -83 33 -99 45 -117 90 -23 56 -20 78 9 89 32 12 32
23 0 44 -35 23 -111 140 -135 208 -35 101 -22 224 36 340 13 26 45 100 70 165
25 64 62 149 81 187 38 76 121 218 133 226 4 3 46 57 94 122 l87 116 52 7 c47
7 52 6 72 -19 17 -22 27 -26 48 -21 20 5 28 2 37 -17 7 -12 26 -37 43 -55 23
-24 31 -44 35 -83 4 -40 8 -50 21 -48 23 5 22 135 -2 171 -19 30 -22 73 -6
114 17 46 51 203 59 277 6 53 3 82 -10 126 -24 78 -20 127 19 243 19 57 31
107 27 121 -9 37 -45 76 -70 76 -19 0 -31 -17 -75 -112z m59 -24 c0 -40 -8
-74 -26 -116 l-27 -59 20 -22 c13 -13 24 -44 28 -77 4 -30 12 -66 17 -79 12
-32 1 -75 -27 -109 -38 -46 -58 -118 -57 -209 1 -46 -3 -83 -7 -83 -9 0 -103
38 -109 44 -1 2 -5 16 -7 32 -7 41 -24 101 -46 158 -12 29 -19 74 -19 112 0
62 1 64 48 112 26 27 57 52 69 56 24 8 28 15 47 99 17 72 72 197 86 197 6 0
10 -25 10 -56z m-626 -1041 c19 -68 18 -85 -8 -121 -13 -20 -34 -58 -45 -83
-15 -36 -36 -59 -95 -103 -41 -32 -86 -70 -100 -87 -49 -58 -50 -24 -1 48 19
29 32 58 29 66 -3 8 1 17 9 20 8 3 25 32 37 64 35 94 72 155 114 185 46 33 53
34 60 11z m790 -105 c1 -125 -21 -248 -45 -248 -11 0 -27 88 -33 186 -5 78 -3
93 12 106 46 41 65 28 66 -44z m-596 -943 c18 -38 15 -51 -13 -63 -32 -15 -62
-15 -70 -2 -6 10 52 90 65 90 4 0 12 -11 18 -25z m492 -104 c11 -16 16 -32 11
-35 -10 -6 -22 6 -40 42 -17 32 4 27 29 -7z m20 -133 c0 -14 -8 -18 -34 -18
-53 0 -63 25 -40 99 6 18 73 -57 74 -81z m890 63 c26 -7 0 -9 -105 -11 -77 -1
-187 -3 -243 -5 -57 -1 -100 1 -95 6 15 15 390 24 443 10z m-485 -11 c3 -5 -1
-10 -10 -10 -9 0 -13 5 -10 10 3 6 8 10 10 10 2 0 7 -4 10 -10z m-1235 -14 c0
-2 -3 -11 -6 -20 -9 -23 -24 -20 -24 4 0 11 7 20 15 20 8 0 15 -2 15 -4z
m1307 -42 c3 -7 -40 -13 -129 -18 -73 -4 -153 -11 -178 -16 -25 -4 -47 -6 -50
-4 -11 12 30 23 124 34 56 6 108 13 116 15 33 7 114 -1 117 -11z m-1213 -39
c15 -22 15 -26 2 -31 -22 -8 -36 4 -36 32 0 31 13 31 34 -1z m-127 -11 c4 -13
-40 -34 -72 -34 -30 0 -41 16 -24 36 14 17 90 16 96 -2z m863 -14 c0 -5 -4
-10 -10 -10 -5 0 -10 5 -10 10 0 6 5 10 10 10 6 0 10 -4 10 -10z"/>
<path d="M6667 3093 c-11 -10 -8 -61 4 -69 6 -3 20 3 31 14 16 16 18 23 9 41
-12 21 -31 27 -44 14z"/>
<path d="M5823 3368 c-24 -8 -32 -17 -36 -42 -6 -37 -1 -46 22 -46 32 0 72 40
69 68 -4 30 -12 33 -55 20z m17 -36 c0 -13 -12 -22 -22 -16 -10 6 -1 24 13 24
5 0 9 -4 9 -8z"/>
<path d="M3008 3349 c-33 -24 -35 -35 -9 -49 27 -14 88 35 70 56 -15 19 -29
17 -61 -7z"/>
<path d="M2310 2596 c-47 -18 -160 -83 -185 -106 -25 -24 -97 -50 -136 -50
-31 0 -79 -19 -79 -31 0 -14 47 -22 83 -15 34 7 68 23 207 100 47 25 106 56
133 68 70 32 50 61 -23 34z"/>
<path d="M2376 2522 c-3 -5 -12 -40 -20 -78 -15 -72 -80 -233 -114 -281 -10
-16 -24 -44 -31 -64 -14 -43 -64 -94 -84 -86 -8 3 -23 27 -33 52 -15 39 -16
56 -7 98 6 29 8 57 6 64 -11 28 -59 12 -124 -41 -37 -30 -76 -59 -87 -65 -28
-15 -18 -44 12 -35 11 3 30 15 42 25 11 11 25 19 31 19 6 0 16 7 23 15 24 29
38 17 45 -40 4 -32 16 -66 28 -81 27 -35 79 -56 109 -45 26 10 84 101 108 170
9 25 22 57 30 71 46 81 106 310 81 310 -5 0 -12 -4 -15 -8z"/>
<path d="M5275 2415 c-95 -48 -111 -53 -121 -40 -10 13 -13 14 -24 0 -15 -18
-7 -43 16 -52 16 -6 33 2 152 71 35 20 70 36 77 36 20 0 28 -36 16 -73 -5 -17
-13 -52 -17 -77 -19 -126 -131 -370 -169 -370 -38 0 -62 75 -50 155 5 37 3 45
-14 54 -28 16 -67 13 -81 -4 -15 -18 -5 -31 25 -37 15 -2 21 -14 27 -48 13
-86 73 -172 110 -157 22 8 110 156 134 225 12 37 27 92 32 122 6 31 20 79 31
108 33 83 25 142 -18 142 -9 0 -65 -25 -126 -55z"/>
<path d="M5520 1066 c0 -19 25 -27 39 -13 18 18 13 27 -14 27 -15 0 -25 -6
-25 -14z"/>
<path d="M12685 978 c-31 -18 -45 -41 -42 -67 2 -27 18 -34 105 -44 l52 -6 0
44 c0 35 -4 45 -16 45 -9 0 -27 9 -41 20 -30 23 -31 23 -58 8z"/>
<path d="M2858 726 c-16 -5 -28 -13 -28 -18 0 -4 -11 -8 -24 -8 -36 0 -78 -18
-71 -30 4 -6 16 -8 28 -4 12 4 60 10 106 13 64 5 86 10 95 23 5 9 8 19 6 21
-12 10 -88 13 -112 3z"/>
</g>
</svg>
