<?xml version="1.0" standalone="no"?>
<!DOCTYPE svg PUBLIC "-//W3C//DTD SVG 20010904//EN"
 "http://www.w3.org/TR/2001/REC-SVG-20010904/DTD/svg10.dtd">
<svg version="1.0" xmlns="http://www.w3.org/2000/svg"
 width="1280.000000pt" height="774.000000pt" viewBox="0 0 1280.000000 774.000000"
 preserveAspectRatio="xMidYMid meet">
<metadata>
Created by potrace 1.15, written by Peter Selinger 2001-2017
</metadata>
<g transform="translate(0.000000,774.000000) scale(0.100000,-0.100000)"
fill="#000000" stroke="none">
<path d="M9545 7731 c-11 -5 -45 -10 -75 -10 -30 -1 -89 -10 -130 -22 -41 -11
-85 -22 -97 -26 -33 -8 -108 -77 -123 -113 -7 -16 -16 -30 -20 -30 -12 0 -106
-182 -114 -220 -3 -19 -13 -41 -20 -49 -17 -19 -56 -119 -56 -144 0 -10 -7
-31 -15 -47 -14 -27 -21 -30 -63 -30 -26 0 -65 -5 -87 -11 -44 -12 -140 -32
-252 -54 -45 -8 -89 -24 -115 -42 -24 -16 -55 -34 -70 -41 -27 -11 -34 -22
-22 -34 3 -3 45 14 94 39 54 27 113 48 152 54 35 6 93 17 129 25 37 8 83 14
102 14 20 0 39 5 42 10 3 6 17 10 31 10 27 0 32 -21 9 -40 -8 -7 -12 -16 -9
-22 17 -26 96 104 145 237 18 50 45 109 61 131 26 39 98 193 98 210 0 4 11 22
25 40 44 57 86 64 360 59 321 -7 317 -7 329 5 5 5 20 10 33 10 48 0 75 -83
103 -315 26 -216 25 -296 -3 -365 -13 -33 -29 -56 -40 -58 -10 -2 -36 13 -61
36 -68 63 -113 81 -244 98 -89 12 -137 13 -197 6 -138 -17 -309 -50 -373 -71
-36 -13 -72 -18 -90 -15 -22 4 -51 -5 -120 -40 -50 -25 -130 -57 -176 -71 -47
-13 -98 -31 -113 -38 -64 -33 -334 -118 -353 -112 -28 9 -25 23 10 43 21 12
30 25 30 42 0 14 3 36 7 49 6 22 4 23 -23 17 -16 -4 -42 -18 -59 -30 -16 -13
-40 -26 -53 -30 -12 -4 -30 -19 -39 -33 -16 -24 -16 -26 2 -39 10 -8 24 -14
30 -14 7 0 20 -9 30 -20 27 -29 75 -25 167 15 83 36 197 69 206 60 8 -7 -26
-42 -80 -82 -44 -32 -63 -63 -37 -63 6 0 30 13 53 30 24 16 46 27 49 24 3 -3
11 -3 17 1 8 5 8 11 -1 21 -17 20 10 47 84 84 79 39 119 46 149 26 27 -19 73
-20 277 -4 l154 12 28 -32 c18 -20 30 -45 31 -65 1 -17 2 -50 3 -73 1 -22 10
-55 21 -72 20 -35 100 -94 179 -135 28 -14 64 -39 80 -57 38 -40 95 -70 135
-70 37 0 73 -33 100 -93 29 -62 26 -92 -9 -107 -22 -9 -34 -9 -50 0 -19 10
-21 8 -21 -23 0 -18 7 -55 16 -81 l16 -48 -30 -27 c-16 -16 -37 -42 -46 -59
-11 -22 -24 -32 -40 -32 -12 0 -33 -11 -46 -25 -13 -13 -53 -43 -89 -66 -36
-22 -82 -52 -101 -66 -19 -13 -42 -28 -50 -33 -28 -16 -2 -21 29 -6 20 11 32
13 37 5 3 -6 2 -14 -2 -18 -5 -4 -48 -42 -95 -83 -47 -42 -97 -81 -110 -88
-13 -7 -29 -19 -37 -26 -25 -25 -99 -84 -106 -84 -4 0 -6 37 -4 81 l3 82 53
13 c58 15 131 50 82 40 -202 -44 -198 -42 -181 -93 11 -33 10 -48 -4 -103 -22
-87 -41 -115 -124 -183 -39 -32 -71 -62 -71 -67 0 -15 -61 -80 -76 -80 -7 0
-34 11 -60 25 -28 15 -63 25 -87 25 -22 0 -55 5 -73 12 -24 8 -62 9 -146 2
-63 -6 -121 -7 -130 -2 -22 11 -24 66 -3 94 19 25 19 53 0 97 -8 20 -12 43 -9
51 3 8 -3 35 -14 59 -20 46 -65 196 -76 254 -3 21 1 47 14 75 11 24 20 57 20
73 0 38 87 212 129 260 29 33 41 65 24 65 -5 0 -46 -53 -93 -117 -137 -188
-135 -186 -239 -158 -41 11 -89 13 -190 8 -188 -7 -310 -8 -317 0 -12 12 24
54 58 66 18 7 45 19 59 26 14 8 79 26 145 40 126 28 203 56 172 63 -10 2 -46
-5 -80 -16 -35 -11 -112 -32 -173 -46 -121 -29 -217 -71 -255 -111 -23 -25
-24 -27 -8 -39 15 -11 158 -22 196 -15 39 7 463 -1 525 -10 14 -2 -23 -60 -53
-82 -35 -26 -54 -73 -40 -99 5 -10 25 -27 43 -38 28 -16 36 -28 41 -64 8 -51
-2 -84 -34 -113 -34 -30 -50 -68 -39 -88 8 -13 23 -17 65 -17 l55 0 19 -42
c22 -49 25 -79 8 -96 -14 -14 17 -88 43 -103 10 -5 68 -6 136 -3 132 8 167 -1
161 -39 -3 -20 -55 -54 -184 -116 -22 -11 -96 -77 -166 -148 -69 -70 -149
-147 -177 -171 -28 -24 -75 -78 -103 -120 -28 -42 -71 -99 -95 -126 -24 -26
-43 -52 -43 -56 0 -20 -349 -89 -560 -110 -102 -10 -224 -41 -303 -76 -46 -20
-84 -27 -180 -34 -123 -9 -197 -21 -252 -40 -24 -8 -15 -9 40 -4 39 4 84 7
100 9 17 1 62 6 101 10 l71 8 12 -33 c6 -18 11 -45 11 -60 0 -15 3 -30 7 -34
5 -4 13 -38 20 -74 13 -75 1 -180 -24 -219 -25 -38 -78 -65 -115 -58 -31 5
-36 2 -87 -60 -29 -36 -60 -65 -68 -65 -8 0 -13 3 -11 8 2 4 18 37 37 74 40
80 37 112 -5 50 -49 -73 -145 -186 -167 -199 -12 -6 -25 -9 -30 -6 -11 7 -1
35 59 158 52 105 64 145 45 145 -5 0 -38 -61 -75 -136 -36 -74 -75 -148 -86
-164 -16 -23 -19 -36 -12 -66 10 -48 27 -54 40 -14 13 35 15 36 38 13 16 -16
18 -15 46 20 23 28 37 37 60 37 24 0 46 15 102 68 55 53 84 73 126 86 30 10
64 26 75 36 11 9 40 29 65 43 44 26 47 26 90 11 34 -12 66 -14 135 -9 50 3
140 6 200 6 61 0 133 4 160 9 28 5 67 11 88 14 l37 5 0 -148 c0 -103 4 -161
14 -189 8 -22 18 -62 22 -89 14 -101 75 -268 145 -398 63 -118 81 -142 202
-270 150 -159 162 -169 273 -226 45 -23 86 -50 93 -60 10 -16 6 -21 -25 -34
-19 -8 -49 -25 -67 -37 -17 -13 -39 -27 -49 -33 -50 -30 -168 -128 -168 -141
0 -8 3 -14 6 -14 11 0 68 44 138 107 38 35 74 63 80 63 6 0 38 14 72 31 l61
32 52 -27 c55 -27 95 -33 106 -16 9 14 62 12 71 -2 4 -7 10 -28 13 -47 5 -30
11 -35 51 -47 25 -8 61 -14 81 -14 26 0 41 -6 51 -21 15 -23 121 -58 193 -64
22 -1 60 -8 85 -13 25 -6 81 -18 126 -27 45 -8 107 -23 138 -33 l56 -18 -28
-27 c-15 -15 -66 -42 -111 -61 -46 -18 -88 -41 -93 -50 -5 -9 -22 -16 -41 -16
-18 0 -63 -7 -102 -15 -38 -8 -131 -17 -205 -21 -74 -3 -157 -7 -185 -9 -58
-3 -147 -33 -219 -73 -62 -35 -166 -61 -266 -66 -41 -2 -95 -11 -120 -20 -41
-15 -195 -25 -207 -13 -2 3 1 24 7 46 18 67 -15 178 -73 247 -15 18 -27 37
-27 43 0 5 30 19 68 31 111 33 202 72 202 87 0 19 -14 16 -68 -11 -68 -34
-167 -63 -247 -71 -39 -4 -80 -13 -92 -21 -12 -8 -29 -14 -38 -14 -22 0 -135
58 -135 70 0 6 -7 10 -15 10 -24 0 -145 128 -152 160 -5 27 -39 60 -61 60 -6
0 -3 -19 6 -42 16 -48 41 -201 42 -263 0 -22 12 -71 27 -109 23 -60 38 -82
114 -155 91 -90 101 -103 117 -163 9 -32 7 -41 -14 -72 -19 -28 -31 -36 -55
-36 -40 0 -85 47 -100 103 -15 56 -60 155 -77 169 -7 7 -24 33 -38 60 -13 26
-35 55 -49 64 -31 20 -108 143 -129 207 -9 26 -16 64 -16 84 0 45 33 116 67
143 16 13 20 20 11 20 -20 0 -86 -68 -109 -112 -41 -79 -11 -204 70 -297 26
-31 56 -72 66 -91 10 -19 33 -53 52 -75 19 -22 53 -77 75 -123 22 -46 49 -89
59 -95 11 -7 19 -18 19 -25 0 -7 11 -17 25 -22 14 -5 42 -21 62 -35 l37 -24
50 36 c27 19 78 60 113 89 35 30 70 54 78 54 20 0 29 19 15 35 -9 11 -7 16 9
24 24 13 51 14 51 2 0 -5 -8 -12 -17 -15 -12 -5 -13 -10 -5 -18 8 -8 26 -8 68
1 32 6 80 11 108 11 28 0 67 5 86 11 19 6 85 12 146 14 123 5 176 20 329 95
94 47 143 56 353 65 84 4 178 14 210 22 31 8 82 20 113 28 82 18 215 72 280
111 55 33 60 34 159 34 96 0 106 -2 164 -32 37 -20 85 -58 121 -96 192 -204
261 -268 330 -303 39 -20 81 -40 94 -44 14 -4 50 -24 80 -43 31 -20 115 -62
186 -95 72 -32 137 -64 145 -71 8 -7 27 -17 41 -23 15 -6 42 -24 60 -40 19
-16 60 -48 93 -71 l59 -41 25 19 c37 29 47 25 68 -28 26 -67 24 -265 -5 -335
-6 -16 -11 -32 -11 -37 0 -18 -89 -119 -192 -220 -59 -58 -108 -113 -108 -121
0 -21 -32 -26 -183 -28 -70 -1 -139 -8 -170 -18 -41 -12 -115 -15 -339 -17
-282 -1 -287 -2 -318 -24 -22 -16 -37 -21 -53 -16 -12 4 -67 8 -122 10 -171 3
-319 16 -345 30 -26 13 -482 40 -500 29 -5 -3 -19 -1 -30 5 -12 7 -26 8 -33 3
-7 -5 -50 -7 -97 -5 -47 2 -127 4 -177 3 -69 -1 -99 2 -116 14 -18 12 -61 17
-168 20 -79 3 -154 8 -166 10 -12 3 -78 -5 -145 -16 -159 -29 -424 -28 -598 1
-157 26 -340 39 -494 33 -72 -3 -149 -2 -173 2 l-43 6 0 104 c0 57 5 116 11
132 6 16 12 119 14 238 2 116 10 271 16 345 15 160 14 404 -2 463 -8 31 -8 42
1 45 6 2 27 18 45 35 28 26 32 34 23 50 -6 11 -8 37 -5 59 4 31 1 41 -16 53
-12 8 -29 15 -38 15 -32 0 -39 23 -23 70 9 25 20 71 25 102 5 32 27 112 49
179 22 66 40 134 40 150 0 17 7 53 17 81 15 47 15 57 -1 150 -35 197 -87 257
-213 244 -67 -7 -71 -9 -179 -99 -50 -42 -83 -118 -90 -210 -4 -42 -10 -77
-14 -77 -7 0 -22 97 -21 135 0 11 0 41 0 67 0 39 4 50 26 64 18 12 25 25 25
50 0 18 -4 36 -10 39 -5 3 -10 -1 -10 -9 0 -9 -7 -16 -15 -16 -18 0 -19 12 -3
28 10 10 7 17 -10 35 -37 36 -143 23 -206 -26 -19 -14 -19 -15 2 -49 21 -34
22 -38 8 -109 -30 -159 -35 -197 -42 -284 -6 -77 -11 -98 -41 -150 -41 -72
-98 -146 -123 -160 -10 -5 -29 -26 -42 -45 -13 -19 -50 -72 -81 -116 -31 -45
-57 -86 -57 -90 0 -5 -12 -26 -26 -47 -14 -21 -35 -71 -46 -110 -10 -40 -25
-79 -32 -87 -15 -17 -27 -97 -32 -225 -2 -49 -11 -130 -20 -180 -8 -49 -17
-148 -19 -220 -3 -71 -11 -175 -19 -230 -14 -96 -29 -233 -42 -377 -3 -37 -10
-71 -16 -74 -5 -3 -62 -8 -126 -11 -65 -2 -123 -6 -131 -9 -7 -2 -39 2 -70 10
-31 8 -82 18 -113 21 -62 7 -80 25 -25 25 47 0 13 19 -38 21 -22 1 -52 4 -67
8 l-27 6 27 40 c36 54 43 62 138 159 45 45 90 98 99 117 10 19 28 48 41 64 12
17 36 66 52 110 16 44 40 100 53 124 50 96 11 348 -66 431 -12 14 -30 39 -38
56 -21 41 -148 180 -192 210 l-36 24 -9 -25 c-9 -24 -45 -45 -76 -45 -24 0
-12 35 13 38 12 2 34 19 49 39 26 34 26 37 9 49 -22 17 -82 38 -155 55 -34 8
-142 14 -285 16 -126 1 -288 5 -360 9 -152 8 -235 -5 -271 -42 -27 -26 -35
-65 -10 -45 9 8 16 8 20 2 8 -12 -64 -51 -93 -51 -26 0 -211 -88 -211 -100 0
-5 -15 -25 -32 -43 -54 -57 -95 -111 -103 -137 -4 -14 -20 -47 -35 -75 -40
-73 -63 -157 -50 -190 5 -14 10 -59 10 -98 1 -40 8 -90 16 -112 8 -22 24 -69
35 -105 37 -114 178 -294 283 -360 63 -39 67 -60 17 -76 -29 -9 -15 -12 100
-17 206 -10 256 -33 84 -38 -91 -3 -217 12 -238 29 -16 11 -111 16 -328 16
-144 0 -187 -3 -235 -18 -90 -29 -92 -30 -50 -34 22 -2 49 2 61 8 27 14 111 9
108 -7 -3 -13 75 -29 85 -18 4 4 1 10 -5 12 -17 6 -17 23 0 23 7 0 17 -9 24
-19 11 -17 30 -19 230 -23 144 -3 228 -9 248 -17 62 -27 462 -40 757 -25 93 4
98 3 124 -21 15 -14 34 -23 43 -21 30 9 516 21 746 19 275 -3 575 -18 630 -32
27 -7 61 -7 104 0 45 7 73 7 98 -2 22 -7 56 -8 96 -3 34 4 82 9 107 11 25 1
77 5 115 8 39 2 122 10 185 16 135 14 261 13 380 -3 47 -7 164 -13 260 -14 96
-1 216 -3 265 -4 87 -2 278 6 360 15 22 3 47 1 55 -5 13 -8 12 -11 -5 -24 -11
-9 -15 -16 -10 -16 6 0 15 4 20 9 27 27 137 43 332 48 110 3 213 3 227 -1 46
-11 28 -26 -33 -26 -33 0 -63 -5 -66 -10 -4 -6 23 -10 74 -10 47 0 81 4 81 10
0 6 -5 10 -11 10 -6 0 -9 5 -7 12 6 18 89 19 116 2 17 -11 27 -12 36 -5 9 7
16 7 25 -2 8 -8 50 -12 129 -12 182 0 476 -17 489 -27 7 -5 21 -7 33 -3 11 3
20 2 20 -4 0 -16 -38 -23 -88 -17 -26 4 -54 2 -62 -4 -11 -7 13 -10 80 -11
183 -2 276 2 375 18 105 17 239 20 1101 25 350 2 454 6 466 16 20 16 209 13
215 -4 2 -6 -32 -16 -87 -25 -50 -8 -89 -18 -88 -24 2 -5 14 -9 28 -9 14 1
105 7 203 14 126 8 186 9 208 1 17 -6 112 -10 222 -10 106 0 203 0 217 -1 35
-2 50 -2 170 5 58 3 115 3 128 0 41 -10 13 -25 -46 -25 -60 0 -171 -15 -180
-25 -3 -3 -1 -10 4 -15 10 -10 99 -4 269 16 77 9 84 12 60 32 -14 12 -20 29
-20 55 l0 39 -151 0 c-84 0 -177 -3 -207 -7 -31 -4 -60 -4 -67 0 -6 3 -88 7
-183 7 -154 0 -175 2 -204 19 -24 15 -48 20 -90 18 -32 -1 -146 2 -253 7 -107
5 -248 9 -312 9 -78 -1 -118 3 -118 10 0 6 21 27 48 47 47 37 154 154 215 238
18 25 50 87 72 138 32 78 46 100 84 130 91 73 131 118 131 147 0 15 8 37 18
50 30 38 48 104 34 123 -7 10 -16 26 -21 37 -5 11 -29 39 -54 63 -39 35 -51
41 -75 36 -24 -5 -32 -1 -48 25 -23 36 -81 81 -104 81 -24 0 -40 21 -40 52 0
18 -9 33 -26 45 -48 33 -159 135 -174 160 -8 13 -25 26 -37 29 -12 3 -25 15
-28 25 -4 12 -16 19 -31 19 -14 0 -23 4 -20 8 5 9 -98 112 -181 180 -100 83
-105 130 -37 355 13 43 24 84 24 90 0 7 8 28 19 47 10 19 26 59 36 89 10 30
27 69 39 87 11 18 47 79 80 136 32 57 81 140 108 186 50 83 202 386 227 452
57 149 121 356 148 480 14 67 20 193 14 312 -3 58 0 74 23 113 15 24 35 49 46
55 42 22 43 45 10 151 -20 63 -45 117 -66 144 -18 25 -47 73 -63 107 -29 65
-139 238 -185 294 -14 18 -26 37 -26 44 0 14 -205 220 -219 220 -5 0 -51 26
-102 59 -52 32 -141 80 -198 106 -57 26 -136 66 -175 90 -39 23 -93 50 -121
60 -27 11 -63 27 -80 37 -16 10 -37 18 -46 18 -9 0 -36 11 -60 24 -24 13 -63
29 -87 36 -34 9 -50 21 -75 58 -18 25 -48 64 -68 87 -20 22 -38 53 -41 68 -5
26 -1 31 41 49 65 29 212 36 282 14 28 -10 54 -15 57 -11 3 3 -9 21 -28 39
-41 44 -36 71 13 62 41 -7 66 6 49 27 -13 15 -45 24 -119 34 -45 5 -51 11 -32
30 25 25 15 86 -25 161 -44 84 -59 138 -45 164 14 25 28 22 40 -9 5 -15 13
-22 18 -17 12 13 30 91 35 145 2 25 11 60 21 79 24 46 14 81 -45 156 -55 71
-63 110 -35 177 39 94 -5 492 -61 558 -8 8 -14 21 -14 27 0 19 -83 78 -135 97
-57 20 -257 31 -290 16z m230 -30 c18 -4 31 -14 33 -24 4 -18 -6 -19 -155 -16
-87 1 -166 4 -175 6 -30 7 -20 31 15 36 52 6 249 5 282 -2z m-115 -718 c66
-13 185 -61 204 -82 9 -10 19 -40 22 -67 5 -48 5 -49 -31 -66 -20 -10 -40 -18
-45 -18 -5 0 -32 20 -59 44 -28 25 -67 50 -88 56 -48 14 -322 31 -389 23 -46
-5 -54 -3 -85 24 -19 16 -42 32 -51 36 -25 9 -22 26 5 31 50 10 200 25 207 21
5 -3 17 -2 29 2 26 10 224 7 281 -4z m-565 -115 c16 -15 -14 -26 -90 -33 -172
-16 -208 19 -50 48 31 6 129 -5 140 -15z m957 -28 c37 -47 50 -93 33 -116 -11
-16 -17 -11 -59 55 -46 71 -53 106 -20 99 9 -2 30 -19 46 -38z m-719 -132 c-3
-57 -6 -107 -7 -113 -7 -25 -28 43 -33 106 -5 58 -3 72 12 89 10 11 21 20 25
20 4 0 5 -46 3 -102z m122 82 c4 -7 11 -7 18 -2 7 5 21 6 32 1 11 -4 45 -8 75
-8 77 -1 125 -17 167 -54 42 -37 123 -145 123 -164 0 -29 -61 -7 -95 33 -17
21 -123 69 -132 61 -8 -8 34 -76 45 -72 6 3 18 7 25 10 16 7 79 -75 140 -184
51 -91 55 -122 14 -99 -44 24 -87 85 -102 142 -26 100 -74 146 -66 64 1 -10
-1 -18 -6 -18 -9 0 -31 33 -88 133 -22 39 -46 72 -52 75 -19 6 -15 -37 7 -87
23 -50 18 -68 -10 -31 -21 28 -40 86 -40 123 0 14 -4 28 -9 31 -13 8 -21 -19
-21 -66 0 -36 -2 -39 -16 -27 -8 7 -22 26 -30 41 -8 16 -31 47 -51 69 l-35 39
50 0 c28 0 54 -5 57 -10z m528 -30 c30 -35 42 -82 28 -107 -5 -11 -7 -38 -4
-60 5 -36 3 -42 -18 -48 -18 -6 -27 -3 -38 15 -9 13 -37 50 -63 83 -52 64 -58
84 -30 94 9 4 28 17 41 30 32 31 54 29 84 -7z m-569 -119 c8 -25 12 -49 9 -54
-11 -18 -33 26 -33 67 0 47 4 45 24 -13z m203 -243 c23 -26 36 -58 24 -58 -4
0 -15 8 -23 18 -22 25 -40 62 -30 62 5 0 18 -10 29 -22z m176 -538 c14 -11 34
-39 45 -63 27 -56 18 -102 -37 -189 -37 -57 -53 -72 -111 -102 -37 -20 -75
-36 -84 -36 -28 0 -154 -68 -229 -124 -40 -29 -81 -56 -92 -59 -38 -12 -290
-278 -364 -384 -24 -35 -55 -66 -72 -73 -16 -7 -38 -27 -49 -45 -12 -20 -36
-39 -60 -49 -21 -8 -60 -31 -85 -51 -25 -19 -76 -51 -113 -72 -37 -20 -86 -50
-109 -66 -52 -37 -72 -28 -32 16 17 17 37 47 44 64 9 22 19 31 28 27 11 -4 22
11 39 48 35 75 142 222 195 266 105 87 278 250 330 311 31 36 90 94 132 129
42 34 99 82 126 105 28 24 71 58 98 76 26 17 47 36 47 41 0 5 35 35 78 67 42
31 97 75 122 98 54 50 101 84 116 85 6 0 23 -9 37 -20z m-345 -186 c-24 -25
-38 -30 -38 -14 0 14 42 50 52 44 5 -3 -2 -16 -14 -30z m-1368 -3 c0 -35 -17
-49 -36 -29 -12 12 -12 17 2 36 21 30 34 28 34 -7z m2004 -55 c56 -29 110 -57
121 -63 45 -22 94 -48 168 -90 42 -23 85 -47 95 -53 9 -5 43 -21 75 -35 31
-15 57 -31 57 -36 0 -5 7 -9 15 -9 31 0 229 -146 296 -219 70 -76 194 -243
224 -302 10 -19 26 -43 36 -54 10 -11 25 -37 34 -57 8 -21 33 -65 54 -98 22
-34 43 -75 46 -93 4 -18 15 -46 26 -63 18 -29 18 -31 -3 -87 -16 -45 -41 -79
-108 -150 -144 -152 -230 -249 -230 -262 0 -7 -10 -20 -21 -31 -12 -10 -47
-50 -79 -89 -31 -38 -91 -104 -132 -145 -41 -41 -87 -94 -101 -117 -56 -89
-237 -268 -280 -278 -14 -2 -74 -31 -97 -44 -27 -17 -105 -49 -130 -54 -14 -3
-38 -10 -55 -15 -42 -15 -108 -31 -195 -49 -93 -20 -525 -24 -580 -7 -19 7
-62 17 -95 24 -53 10 -110 27 -348 101 -32 10 -75 31 -95 47 -20 15 -81 59
-134 96 -92 63 -123 95 -78 81 33 -10 23 8 -30 53 -43 37 -50 40 -50 23 0 -12
-4 -21 -8 -21 -14 0 -89 83 -106 118 -9 17 -21 32 -26 32 -13 0 -40 54 -40 79
0 30 16 34 40 9 l20 -22 -6 30 -6 30 146 67 c80 37 149 67 155 67 5 0 63 29
129 65 65 36 124 65 131 65 7 0 87 36 177 80 91 44 169 80 175 80 6 0 36 13
67 29 79 41 147 71 160 71 21 0 258 118 297 148 22 17 59 46 83 64 68 52 90
77 97 111 4 18 18 48 31 68 15 22 24 48 23 70 -1 19 4 64 11 101 12 62 11 72
-13 158 -25 88 -68 180 -92 200 -6 5 -37 16 -68 24 -50 13 -62 13 -98 0 -23
-7 -49 -14 -57 -14 -9 0 -45 -15 -81 -34 -39 -20 -89 -37 -123 -41 -43 -5 -84
-22 -165 -67 -60 -33 -121 -65 -138 -71 -16 -6 -50 -23 -74 -39 -25 -15 -50
-28 -55 -28 -6 0 -22 -9 -36 -20 -31 -24 -40 -25 -40 -4 0 33 145 163 351 314
26 19 81 60 121 91 81 62 114 81 184 105 71 24 119 58 199 140 56 58 77 74
100 74 15 0 74 -24 129 -54z m-1944 -250 c0 -15 -21 -26 -51 -26 -22 0 -24 11
-7 28 17 17 58 15 58 -2z m1742 -163 c21 -21 47 -60 60 -88 20 -44 23 -65 22
-177 0 -174 -16 -220 -104 -300 -58 -53 -63 -61 -48 -72 16 -12 16 -14 1 -35
-8 -13 -31 -30 -50 -38 -20 -8 -58 -30 -85 -49 -28 -19 -58 -34 -68 -34 -10 0
-32 -7 -49 -15 -17 -8 -45 -22 -62 -30 -39 -19 -63 -19 -79 0 -10 13 -17 12
-53 -7 -29 -15 -37 -23 -25 -26 9 -2 26 2 37 7 35 19 34 -7 -1 -29 -41 -25
-64 -25 -77 -3 -8 16 -21 12 -126 -42 -77 -39 -121 -68 -128 -83 -10 -22 -12
-22 -24 -7 -11 17 -16 16 -80 0 -37 -10 -78 -24 -90 -31 -12 -8 -31 -14 -42
-14 -11 0 -23 -4 -26 -10 -3 -5 -14 -10 -23 -10 -9 0 -35 -9 -57 -19 -22 -11
-53 -25 -70 -32 l-30 -13 27 -4 c15 -2 47 8 75 22 26 14 52 26 57 26 5 0 33
11 63 25 49 24 73 26 73 6 0 -7 -33 -31 -115 -83 -11 -7 -39 -25 -63 -40 -24
-16 -49 -28 -57 -28 -8 0 -16 -4 -19 -9 -3 -4 -34 -18 -68 -31 -35 -12 -93
-38 -130 -56 -37 -19 -76 -34 -87 -34 -11 0 -41 -11 -67 -25 -26 -14 -53 -25
-59 -25 -7 0 -43 -14 -79 -31 -46 -21 -76 -30 -98 -27 -17 3 -50 1 -72 -4 -23
-5 -126 -16 -231 -24 -104 -7 -250 -19 -324 -25 l-135 -12 -22 26 c-27 32 -39
124 -25 189 8 32 7 68 0 120 -6 40 -13 90 -16 111 l-5 37 46 0 c26 0 77 6 114
14 37 8 101 17 142 21 41 3 99 12 128 19 29 8 56 15 60 15 34 4 80 15 95 23
10 5 73 18 140 29 171 28 271 61 335 108 34 26 82 49 137 66 56 17 85 31 85
40 0 8 -9 15 -19 15 -62 0 -5 55 155 149 60 35 132 79 159 97 28 18 79 48 115
67 36 19 121 67 190 107 69 41 145 84 169 97 25 13 52 30 61 38 9 8 20 15 25
15 5 0 38 14 74 31 36 17 77 35 91 41 14 5 48 21 75 34 87 42 106 47 230 63 6
0 27 -16 47 -36z m-1228 -189 c33 -13 13 -47 -87 -152 -184 -190 -207 -222
-228 -324 -19 -92 -53 -132 -134 -158 -22 -7 -56 -20 -75 -30 -19 -10 -87 -26
-150 -35 -63 -9 -121 -18 -128 -21 -28 -9 -23 28 10 69 20 23 66 87 104 143
40 59 97 125 135 160 37 32 79 74 94 92 49 58 321 226 407 251 18 5 34 10 35
10 1 1 8 -2 17 -5z m621 -734 c3 -5 1 -10 -4 -10 -6 0 -11 5 -11 10 0 6 2 10
4 10 3 0 8 -4 11 -10z m2012 -233 c-3 -68 -12 -155 -21 -193 -8 -38 -20 -96
-27 -129 -6 -33 -19 -82 -29 -110 -10 -27 -34 -95 -54 -150 -20 -55 -36 -105
-36 -111 0 -6 -6 -17 -14 -23 -8 -7 -17 -24 -21 -38 -3 -15 -46 -99 -94 -188
-115 -209 -127 -229 -183 -313 -25 -38 -56 -89 -68 -111 -11 -23 -31 -46 -44
-51 -18 -7 -24 -18 -29 -55 -2 -26 -14 -60 -26 -76 -12 -15 -21 -37 -21 -48 0
-11 -13 -57 -30 -103 -16 -47 -36 -133 -44 -197 -16 -112 -15 -115 4 -136 11
-12 20 -30 20 -41 1 -31 66 -94 193 -189 102 -76 237 -205 237 -227 0 -4 29
-26 65 -49 l64 -41 -21 -42 c-11 -22 -26 -48 -32 -56 -7 -8 -20 -36 -29 -61
-10 -25 -34 -63 -54 -85 -22 -23 -38 -49 -38 -64 0 -37 -38 -29 -91 20 -24 22
-98 66 -166 100 -164 80 -221 112 -241 132 -10 9 -68 41 -130 71 -61 30 -121
64 -131 76 -11 11 -25 21 -32 21 -7 0 -54 36 -104 80 -49 44 -99 84 -110 90
-11 6 -31 30 -44 53 -32 54 -107 112 -210 163 -51 25 -59 26 -113 16 -68 -13
-159 -8 -223 12 -25 8 -83 17 -130 20 -171 13 -300 47 -300 77 0 33 40 147 65
183 14 20 25 41 25 46 0 5 13 24 28 42 15 18 40 51 55 73 15 22 52 69 82 105
30 36 55 71 55 78 0 18 -28 15 -45 -5 -41 -48 -72 -90 -78 -105 -4 -10 -13
-18 -20 -18 -8 0 -19 -10 -25 -22 -30 -60 -72 -131 -85 -146 -21 -23 -56 -114
-71 -182 -11 -52 -14 -55 -42 -54 -16 1 -103 34 -194 74 -91 40 -179 73 -196
74 -21 0 -31 5 -30 15 1 9 -37 35 -99 67 -101 52 -165 100 -278 207 -33 31
-64 57 -67 57 -4 0 -42 42 -85 93 -84 99 -148 219 -239 447 -70 174 -99 303
-94 422 2 54 9 103 15 109 6 6 46 15 89 20 44 5 136 15 205 23 69 8 135 13
146 10 12 -4 57 7 102 25 90 35 101 37 101 18 0 -7 7 -36 15 -64 23 -77 132
-204 284 -330 84 -70 385 -227 456 -238 22 -4 72 -13 110 -20 142 -29 244 -45
277 -45 18 0 75 -5 126 -12 77 -10 92 -15 92 -30 0 -11 -16 -26 -41 -38 -38
-20 -216 -188 -289 -272 -23 -28 -28 -38 -16 -38 9 0 69 53 133 119 83 83 142
133 198 166 44 27 91 56 105 66 17 11 60 21 127 27 56 6 115 17 130 25 15 8
53 22 83 32 30 9 132 49 225 87 137 56 183 81 235 123 97 80 153 142 199 222
31 54 60 87 112 130 58 46 106 99 171 188 4 6 19 24 32 40 14 17 42 51 61 77
19 26 43 49 53 52 10 3 26 21 36 38 25 44 98 118 115 118 12 0 13 -21 8 -123z
m-2303 104 c3 -5 -1 -11 -9 -15 -15 -6 -29 7 -18 18 9 9 21 8 27 -3z m-1804
-68 c6 -32 15 -74 20 -93 5 -19 5 -54 1 -77 -12 -63 1 -178 23 -202 32 -35 8
-48 -104 -56 -79 -6 -115 -4 -172 10 -40 10 -79 22 -85 28 -9 7 -11 29 -7 76
4 48 1 82 -12 126 -19 63 -21 150 -4 170 13 16 75 34 185 56 146 28 142 29
155 -38z m565 -1173 c3 -5 2 -10 -4 -10 -5 0 -13 5 -16 10 -3 6 -2 10 4 10 5
0 13 -4 16 -10z m-1730 -71 c20 -31 23 -150 9 -264 -21 -163 -7 -277 37 -288
11 -3 19 -14 19 -25 0 -16 -5 -19 -21 -15 -20 5 -20 4 -9 -18 7 -13 19 -32 27
-41 9 -10 13 -25 9 -34 -4 -9 -4 -32 0 -50 5 -27 11 -34 30 -34 29 0 42 -20
20 -32 -15 -8 -12 -15 23 -54 45 -47 47 -55 29 -84 -10 -15 -9 -22 5 -38 15
-16 15 -21 2 -38 -21 -28 -19 -30 20 -26 27 3 35 1 35 -12 0 -9 -4 -16 -9 -16
-5 0 -22 -5 -38 -11 -22 -8 -25 -12 -13 -20 13 -8 11 -12 -7 -26 -30 -21 -29
-37 1 -29 28 7 31 4 40 -40 7 -31 6 -32 -43 -44 -28 -7 -51 -17 -51 -22 0 -6
7 -7 18 -2 9 4 36 9 60 12 42 4 53 -7 34 -33 -20 -28 -727 -24 -756 5 -5 5 -8
40 -7 76 3 78 27 125 158 308 43 59 83 117 89 127 6 10 18 27 26 36 8 10 34
54 57 99 46 89 65 174 79 359 10 129 30 185 64 185 23 1 23 1 -3 15 -39 21
-43 52 -11 70 32 17 68 19 77 4z m371 -18 c-3 -5 -17 -12 -32 -15 -37 -10
-104 -56 -104 -72 0 -8 -9 -14 -20 -14 -36 0 -20 29 44 79 28 23 49 31 78 31
22 0 37 -4 34 -9z m111 -28 c71 -90 81 -303 22 -508 -51 -176 -69 -234 -89
-290 -12 -33 -24 -66 -26 -74 -2 -8 -7 -12 -9 -9 -7 7 29 183 53 253 51 155
79 281 88 398 5 62 4 87 -5 87 -6 0 -11 9 -11 20 0 34 -25 84 -59 117 -36 36
-38 43 -13 43 10 0 32 -17 49 -37z m-45 -20 c53 -57 63 -90 62 -198 -1 -127
-33 -272 -89 -405 -13 -30 -31 -85 -41 -122 -20 -76 -30 -76 -63 -4 -10 22
-37 64 -60 91 -52 62 -58 85 -37 138 9 24 16 50 16 59 0 29 -47 74 -91 87
l-41 13 6 71 c8 88 31 170 51 187 13 11 15 7 16 -31 1 -38 2 -40 8 -15 4 20
26 45 66 78 105 85 153 97 197 51z m-266 -408 c20 -30 24 -99 6 -117 -17 -17
-112 82 -112 117 0 23 4 25 45 25 37 0 47 -4 61 -25z m-11 -185 c3 -5 -6 -12
-20 -16 -29 -7 -41 -1 -30 15 8 14 42 14 50 1z m1215 -308 c60 -29 89 -37 145
-40 66 -4 72 -6 113 -45 43 -42 82 -124 82 -172 0 -18 -14 -35 -53 -63 -29
-22 -65 -55 -79 -74 -33 -43 -97 -84 -103 -65 -2 6 -6 28 -9 48 -8 47 -66 135
-144 221 -76 83 -89 108 -97 185 -9 79 -2 90 38 63 18 -11 66 -37 107 -58z
m-900 -105 c0 -14 -30 -47 -43 -47 -5 0 -7 14 -5 30 3 20 -1 35 -13 46 -10 9
-16 21 -13 25 6 11 74 -39 74 -54z m-2074 5 c167 -16 264 -39 264 -62 0 -15
-80 -40 -165 -51 -49 -7 -155 -11 -235 -10 -80 1 -159 -2 -176 -7 -38 -12
-286 19 -356 43 -49 17 -54 26 -41 73 5 21 10 23 47 19 23 -3 77 -2 121 1 121
10 405 7 541 -6z m-712 -102 c19 -11 75 -26 132 -35 132 -21 144 -25 144 -41
0 -8 -3 -14 -7 -14 -27 1 -353 60 -373 68 l-24 9 29 16 c40 22 61 21 99 -3z
m-81 -54 c18 -7 77 -19 132 -26 55 -6 123 -15 150 -20 147 -25 560 -11 720 25
133 30 123 31 161 -6 19 -18 34 -38 34 -44 0 -6 14 -24 31 -41 33 -31 163
-287 149 -292 -5 -2 -20 4 -34 13 -14 9 -30 14 -35 11 -17 -11 -22 -67 -14
-166 8 -92 9 -95 31 -92 13 2 30 -2 37 -8 13 -11 13 -15 0 -33 -8 -12 -15 -31
-15 -42 0 -24 -85 -158 -128 -201 -16 -16 -55 -44 -88 -62 -82 -46 -218 -162
-222 -191 -2 -12 4 -34 13 -47 9 -14 15 -27 13 -28 -22 -18 -80 -36 -116 -36
-38 0 -43 2 -32 15 10 12 8 15 -12 20 -12 3 -41 2 -63 -4 -39 -9 -39 -9 -8
-10 45 -1 53 -21 9 -21 -23 0 -43 7 -56 20 -15 15 -33 20 -73 20 -30 0 -115 3
-190 7 -123 5 -137 4 -137 -10 0 -14 -10 -17 -52 -17 -38 0 -49 3 -38 10 8 5
24 10 35 10 17 0 17 2 5 10 -8 5 -49 10 -90 10 -41 0 -92 3 -113 7 -34 5 -38
9 -34 30 3 18 -2 27 -22 37 -29 16 -176 170 -201 213 -114 190 -139 279 -135
474 2 124 3 128 38 191 19 35 40 82 46 104 13 48 72 109 156 159 64 38 83 40
148 11z m971 5 c3 -4 -32 -11 -77 -15 -45 -3 -91 -7 -102 -9 -34 -4 -28 18 7
24 51 10 166 10 172 0z m-235 -17 c10 -9 -10 -15 -73 -21 -57 -5 -66 -4 -66
10 0 9 6 14 13 12 6 -3 26 -1 42 4 27 9 73 6 84 -5z m-166 -9 c-4 -14 -193
-23 -193 -9 0 6 3 14 7 18 11 11 188 2 186 -9z m1267 -4 c0 -6 -4 -13 -10 -16
-5 -3 -10 1 -10 9 0 9 5 16 10 16 6 0 10 -4 10 -9z m2290 -71 c0 -5 -5 -10
-11 -10 -5 0 -7 5 -4 10 3 6 8 10 11 10 2 0 4 -4 4 -10z m-2170 -26 c0 -2 -7
-4 -15 -4 -8 0 -15 4 -15 10 0 5 7 7 15 4 8 -4 15 -8 15 -10z m467 10 c-3 -3
-12 -4 -19 -1 -8 3 -5 6 6 6 11 1 17 -2 13 -5z m-442 -43 c3 -5 1 -12 -5 -16
-5 -3 -10 1 -10 9 0 18 6 21 15 7z m70 -1 c3 -5 -3 -10 -15 -10 -12 0 -18 5
-15 10 3 6 10 10 15 10 5 0 12 -4 15 -10z m128 -12 c9 0 17 -4 17 -9 0 -16
-83 -6 -88 10 -4 11 2 12 24 6 16 -4 37 -7 47 -7z m-233 -23 c13 8 42 -14 34
-26 -10 -17 -63 -10 -74 10 -17 32 -12 46 9 27 11 -10 25 -15 31 -11z m203
-18 c47 7 88 -3 81 -21 -3 -8 4 -16 16 -19 38 -10 11 -27 -41 -27 -31 0 -48
-4 -44 -10 3 -5 15 -10 27 -10 17 0 19 -4 12 -27 -9 -33 -9 -53 1 -111 9 -48
25 -60 58 -44 21 10 21 11 -5 11 -26 1 -28 4 -28 42 0 28 6 46 18 55 16 12 16
13 0 19 -10 4 -18 18 -18 31 0 28 37 37 120 30 30 -3 65 -5 78 -6 18 0 22 -6
22 -30 0 -36 -28 -46 -92 -33 -48 10 -81 6 -73 -8 4 -5 28 -9 55 -9 27 0 52
-4 55 -10 6 -10 -17 -17 -75 -23 -22 -3 -15 -4 22 -5 31 -1 60 -7 63 -12 11
-18 -14 -38 -38 -32 -21 5 -21 5 3 -25 24 -30 26 -31 39 -12 7 10 19 19 26 19
14 0 30 -48 20 -59 -4 -3 -48 -10 -98 -16 -94 -10 -122 -30 -44 -31 23 0 49
-4 58 -8 10 -4 20 -3 24 3 3 6 17 11 31 11 19 0 24 -5 24 -25 0 -24 -3 -25
-57 -23 -38 1 -70 -5 -91 -16 -32 -17 -34 -17 -48 1 -7 10 -21 39 -29 66 -9
26 -21 47 -25 47 -5 0 -10 -24 -12 -52 -3 -53 -3 -53 -36 -53 -18 0 -37 -6
-41 -14 -7 -11 -19 -12 -53 -5 -39 8 -43 12 -43 39 0 27 3 30 38 33 20 2 35 7
32 11 -2 5 -20 7 -40 5 -25 -2 -38 3 -44 15 -13 24 -25 173 -17 215 7 35 8 36
51 36 24 0 47 5 51 12 5 8 -3 9 -30 5 -43 -7 -66 0 -66 19 0 10 13 13 56 9 68
-5 71 17 3 26 -37 4 -40 6 -19 12 47 12 65 13 76 6 5 -5 27 -6 47 -2z m167 -7
c0 -5 -9 -10 -20 -10 -11 0 -23 0 -27 -1 -4 0 -9 4 -11 10 -2 6 10 11 27 11
17 0 31 -4 31 -10z m5294 -47 c110 -56 197 -127 227 -185 23 -44 24 -61 5 -96
-8 -15 -19 -40 -25 -55 -6 -15 -25 -36 -43 -45 -86 -46 -209 -196 -249 -304
-33 -90 -143 -238 -177 -238 -9 0 -45 -28 -79 -62 -96 -96 -74 -46 30 68 127
139 156 201 170 369 9 107 7 133 -8 201 -10 44 -24 91 -31 106 -31 61 -13 111
79 231 31 40 40 41 101 10z m-5818 -75 c-2 -51 -4 -119 -5 -150 -1 -36 -7 -62
-16 -72 -9 -9 -11 -17 -5 -21 17 -10 11 -52 -7 -60 -17 -7 -17 -8 0 -14 27
-10 35 -101 9 -101 -15 0 -14 -3 4 -18 25 -20 48 -156 36 -212 -7 -31 -12 -36
-47 -41 -22 -4 -43 -5 -47 -2 -11 6 -10 137 2 208 5 33 12 122 15 198 3 77 8
143 11 148 3 6 10 42 15 82 13 112 20 147 30 147 4 0 6 -42 5 -92z m84 72 c0
-11 7 -20 15 -20 8 0 15 7 15 15 0 9 9 15 25 15 27 0 32 -9 13 -28 -10 -10
-10 -14 -1 -20 10 -6 10 -17 2 -43 -5 -18 -12 -45 -14 -59 -2 -14 -10 -39 -16
-57 -13 -33 -5 -59 11 -34 10 17 40 7 40 -13 0 -40 -40 -65 -54 -33 -3 8 -8 7
-16 -5 -6 -10 -22 -18 -35 -18 -31 0 -33 -20 -2 -21 108 -4 98 1 113 -54 7
-27 16 -80 19 -116 l6 -66 -47 -7 c-89 -12 -85 -15 -78 62 3 37 13 77 21 90
23 37 11 51 -36 45 l-40 -6 1 163 c1 123 5 163 15 167 7 3 13 15 13 27 0 13 3
26 7 29 12 13 23 7 23 -13z m578 8 c-5 -14 -106 -23 -145 -13 -51 12 -19 25
63 25 64 0 85 -3 82 -12z m212 -133 c0 -8 -7 -15 -15 -15 -8 0 -15 7 -15 15 0
8 7 15 15 15 8 0 15 -7 15 -15z m-220 -40 c0 -8 -4 -15 -9 -15 -13 0 -22 16
-14 24 11 11 23 6 23 -9z m-485 -13 c0 -18 -20 -15 -23 4 -3 10 1 15 10 12 7
-3 13 -10 13 -16z m-570 -2 c3 -5 1 -19 -5 -30 -9 -17 -14 -19 -26 -9 -21 17
-18 49 5 49 11 0 23 -4 26 -10z m1100 -50 c3 -5 1 -10 -4 -10 -6 0 -11 5 -11
10 0 6 2 10 4 10 3 0 8 -4 11 -10z m-1095 -39 c0 -35 -12 -51 -36 -51 -27 0
-28 3 -13 33 21 39 49 49 49 18z m1140 -101 c0 -5 -4 -10 -10 -10 -5 0 -10 5
-10 10 0 6 5 10 10 10 6 0 10 -4 10 -10z m-85 -19 c-3 -6 -11 -8 -17 -5 -6 4
-5 9 3 15 16 10 23 4 14 -10z m-50 -14 c0 -7 12 -13 26 -15 23 -3 26 -7 27
-48 0 -24 -4 -44 -10 -44 -7 0 -6 -5 1 -14 21 -25 -11 -35 -116 -35 l-102 0 0
37 c0 20 0 50 0 67 0 40 9 47 60 43 43 -3 44 -4 43 -38 0 -19 -4 -43 -8 -52
-7 -15 -3 -18 28 -18 20 0 36 5 36 10 0 6 -9 10 -20 10 -15 0 -20 7 -20 28 0
16 9 37 20 47 11 10 20 25 20 33 0 9 3 12 8 8 4 -4 7 -13 7 -19z m-535 -16 c0
-16 -5 -42 -10 -57 -9 -24 -13 -25 -25 -13 -16 16 -23 68 -12 87 5 6 17 12 28
12 14 0 19 -7 19 -29z m199 13 c28 -6 31 -10 31 -45 0 -33 -4 -40 -27 -45 -33
-9 -53 15 -53 63 0 35 1 36 49 27z m111 -24 c13 -24 3 -70 -16 -70 -8 0 -14
-4 -14 -10 0 -5 9 -10 20 -10 24 0 27 -25 4 -34 -20 -8 -59 -8 -67 0 -3 4 1
17 9 30 9 13 13 32 10 42 -9 26 10 72 28 72 9 0 20 -9 26 -20z m484 -9 c5 -8
-35 -31 -54 -31 -18 0 -10 17 13 28 28 13 35 14 41 3z m66 -38 c0 -14 -43 -63
-56 -63 -19 0 -18 6 7 46 12 21 25 31 35 27 7 -3 14 -7 14 -10z m-880 -68 c0
-14 -4 -25 -10 -25 -5 0 -10 4 -10 9 0 5 -3 16 -6 25 -4 11 -1 16 10 16 10 0
16 -9 16 -25z m235 5 c0 -10 -12 -16 -32 -18 -28 -3 -31 -1 -26 18 4 16 12 20
32 18 15 -2 26 -9 26 -18z m-19 -95 c-4 -14 -12 -25 -19 -22 -14 4 -21 41 -12
65 5 14 7 14 22 0 11 -11 13 -25 9 -43z m638 18 c-10 -56 -32 -105 -44 -98
-14 9 -12 47 4 86 26 61 50 68 40 12z m-706 -1 c2 -13 -2 -30 -9 -38 -9 -11
-9 -18 -1 -26 18 -18 14 -46 -7 -58 -11 -5 -47 -10 -80 -10 -57 0 -61 1 -61
23 0 13 3 27 7 31 4 4 6 25 4 46 -1 22 0 44 4 50 4 7 34 10 73 8 61 -3 67 -5
70 -26z m195 7 c10 -39 -2 -50 -52 -47 -35 2 -47 7 -49 21 -7 35 6 47 52 47
36 0 45 -4 49 -21z m258 0 c4 -7 3 -21 -2 -31 -8 -14 -22 -18 -65 -18 -47 0
-56 3 -63 22 l-8 22 -12 -22 c-21 -40 -84 -11 -68 32 6 14 21 15 108 12 68 -3
104 -9 110 -17z m55 -4 c7 -17 40 -20 50 -4 10 16 28 -6 21 -25 -9 -22 -95
-22 -103 -1 -8 19 2 45 16 45 6 0 13 -7 16 -15z m-57 -71 c5 -5 5 -20 0 -33
-9 -22 -14 -23 -65 -19 -57 5 -91 26 -82 50 6 15 133 17 147 2z m-254 -19 c0
-14 -9 -21 -34 -26 -45 -9 -81 5 -81 31 0 19 5 21 58 18 49 -3 57 -6 57 -23z
m89 16 c9 -14 -4 -41 -20 -41 -12 0 -34 29 -34 44 0 10 48 7 54 -3z m293 -8
c19 -9 37 -22 40 -30 11 -28 -12 -34 -78 -21 -59 12 -64 15 -67 41 -3 25 -1
27 33 27 20 0 53 -7 72 -17z m-527 -8 c0 -8 -7 -15 -15 -15 -16 0 -20 12 -8
23 11 12 23 8 23 -8z m675 -172 c0 -143 -10 -190 -27 -128 -13 48 4 275 21
275 4 0 7 -66 6 -147z m-330 107 c38 0 44 -3 50 -27 9 -39 -13 -52 -81 -47
-68 5 -74 8 -74 44 0 29 19 42 48 34 8 -2 33 -4 57 -4z m-575 -25 c0 -37 -12
-45 -66 -45 -46 0 -54 3 -54 19 0 25 19 39 60 43 44 4 60 0 60 -17z m184 17
c3 -5 0 -16 -7 -24 -14 -18 -167 -34 -167 -18 0 6 7 10 15 10 8 0 15 5 15 10
0 6 -7 10 -16 10 -8 0 -13 4 -10 9 7 11 163 14 170 3z m206 -9 c0 -37 -16 -46
-70 -41 -56 6 -76 18 -67 42 5 12 22 16 72 16 55 0 65 -3 65 -17z m60 0 c0
-10 -4 -24 -9 -31 -7 -11 -9 -11 -14 2 -7 19 1 46 14 46 5 0 9 -8 9 -17z m334
-9 c16 -8 35 -14 42 -14 20 0 28 -21 13 -31 -16 -10 -133 -12 -166 -3 -17 5
-23 14 -23 33 0 15 3 31 7 35 11 10 92 -2 127 -20z m-1537 -70 c-3 -3 -12 -4
-19 -1 -8 3 -5 6 6 6 11 1 17 -2 13 -5z m728 -4 c25 -10 10 -16 -52 -23 -41
-5 -56 7 -36 26 9 9 63 8 88 -3z m133 -2 c-5 -15 -62 -23 -86 -12 -13 6 -10 9
13 14 49 12 77 11 73 -2z m52 2 c0 -5 -7 -10 -15 -10 -8 0 -15 5 -15 10 0 6 7
10 15 10 8 0 15 -4 15 -10z m185 0 c3 -5 1 -10 -4 -10 -6 0 -11 5 -11 10 0 6
2 10 4 10 3 0 8 -4 11 -10z m453 -19 c10 -6 11 -13 1 -34 -13 -29 -29 -36 -29
-13 0 7 -7 19 -15 26 -25 21 14 40 43 21z m-1601 -63 c-3 -7 -5 -2 -5 12 0 14
2 19 5 13 2 -7 2 -19 0 -25z m728 11 c4 -5 -6 -29 -22 -51 -19 -29 -29 -36
-31 -25 -2 9 2 25 8 37 6 11 8 24 5 29 -3 5 1 12 7 14 20 8 26 8 33 -4z m895
-25 c0 -8 -5 -12 -10 -9 -6 4 -8 11 -5 16 9 14 15 11 15 -7z m-480 -29 c-7 -8
-16 -15 -21 -15 -5 0 -9 7 -9 15 0 9 9 15 21 15 18 0 19 -2 9 -15z m-1142 -32
c2 -9 -9 -13 -37 -13 -39 0 -50 8 -34 24 11 11 66 2 71 -11z m1082 -3 c0 -5
-11 -10 -24 -10 -14 0 -28 5 -31 10 -4 6 7 10 24 10 17 0 31 -4 31 -10z
m-1003 -6 c-3 -3 -12 -4 -19 -1 -8 3 -5 6 6 6 11 1 17 -2 13 -5z m-18 -43 c15
-10 -34 -17 -166 -24 -56 -3 -73 -1 -73 9 0 14 38 19 155 22 39 1 76 -2 84 -7z"/>
<path d="M8998 5116 c-95 -97 -213 -244 -203 -254 4 -4 21 11 38 33 18 21 44
52 60 67 15 16 27 33 27 38 0 5 28 29 63 54 50 36 127 121 127 141 0 21 -41
-8 -112 -79z"/>
<path d="M8762 4838 c-7 -7 -12 -19 -12 -27 0 -11 4 -10 20 4 21 19 26 35 12
35 -4 0 -13 -5 -20 -12z"/>
<path d="M8445 3600 c-8 -14 9 -34 23 -29 7 3 6 11 -3 22 -9 13 -15 15 -20 7z"/>
<path d="M8510 4010 c-13 -8 -12 -10 3 -10 9 0 17 5 17 10 0 12 -1 12 -20 0z"/>
<path d="M8410 3969 l-35 -20 33 5 c18 3 43 13 55 21 20 14 20 15 2 15 -11 -1
-36 -10 -55 -21z"/>
<path d="M8293 3943 l-32 -34 26 -10 c14 -5 27 -8 28 -7 27 39 35 56 35 70 0
27 -21 20 -57 -19z"/>
<path d="M8060 3880 c0 -12 44 -12 80 0 20 6 14 8 -27 9 -29 1 -53 -3 -53 -9z"/>
<path d="M7650 3830 c-33 -7 -32 -7 15 -9 28 0 57 4 65 9 18 12 -25 12 -80 0z"/>
<path d="M7538 3823 c6 -2 18 -2 25 0 6 3 1 5 -13 5 -14 0 -19 -2 -12 -5z"/>
<path d="M7792 3608 c-12 -12 -17 -38 -7 -38 17 0 65 32 60 40 -9 14 -39 12
-53 -2z"/>
<path d="M7793 3430 c-23 -14 -33 -27 -33 -45 0 -23 2 -25 23 -14 12 6 37 22
55 36 54 41 16 60 -45 23z"/>
<path d="M7830 3265 c-21 -23 -22 -25 -5 -31 21 -9 85 23 85 43 0 23 -54 15
-80 -12z"/>
<path d="M7860 3121 c-15 -29 -12 -68 6 -75 34 -13 81 37 69 74 -9 27 -60 27
-75 1z"/>
<path d="M7935 2954 c-25 -20 -28 -26 -20 -50 11 -31 35 -44 35 -20 0 9 11 21
25 26 29 11 34 45 7 59 -13 7 -25 3 -47 -15z"/>
<path d="M8036 2811 c-23 -25 -17 -55 12 -59 34 -5 72 24 72 53 0 22 -5 25
-33 25 -21 0 -41 -8 -51 -19z"/>
<path d="M8133 2685 c-30 -21 -29 -41 2 -61 22 -15 26 -14 49 3 26 20 50 52
43 59 -14 14 -74 14 -94 -1z"/>
<path d="M8265 2603 c-30 -7 -38 -19 -30 -42 5 -17 13 -20 46 -17 41 4 86 33
72 47 -12 10 -65 18 -88 12z"/>
<path d="M8385 2455 c-20 -15 -20 -15 -1 -30 37 -28 90 -11 70 22 -15 24 -44
27 -69 8z"/>
<path d="M8542 2397 c-17 -18 -19 -26 -10 -35 7 -7 15 -12 20 -12 9 0 58 52
58 62 0 17 -48 6 -68 -15z"/>
<path d="M8671 2344 c-12 -28 -7 -44 14 -44 16 0 48 54 38 64 -14 14 -41 4
-52 -20z"/>
<path d="M7031 3853 c0 -10 4 -27 9 -38 7 -16 9 -13 9 18 1 20 -3 37 -9 37 -5
0 -10 -8 -9 -17z"/>
<path d="M3366 1290 c-20 -22 -44 -56 -53 -75 -9 -19 -21 -35 -26 -35 -11 0 1
-56 19 -92 8 -16 23 -28 34 -28 10 0 22 -4 25 -10 3 -5 28 -10 55 -10 44 0 50
3 69 36 25 43 41 37 41 -17 0 -28 4 -39 15 -39 10 0 15 10 15 34 0 18 9 62 20
96 11 34 20 71 20 82 0 24 -17 58 -29 58 -11 0 -71 -105 -71 -124 0 -25 -49
-73 -92 -91 -40 -16 -43 -16 -55 1 -7 10 -13 36 -13 57 0 42 7 52 100 138 37
34 35 53 -7 57 -24 2 -37 -5 -67 -38z"/>
<path d="M3682 1231 c-7 -21 -12 -47 -12 -58 0 -11 -3 -23 -7 -27 -5 -4 -13
-43 -18 -87 -8 -59 -8 -79 1 -79 6 0 17 24 25 53 14 51 15 52 56 55 40 3 42 5
48 42 8 49 -8 80 -40 80 -25 0 -33 14 -15 25 17 10 11 35 -8 35 -13 0 -22 -12
-30 -39z m61 -77 c6 -33 -20 -45 -40 -18 -12 16 -11 20 4 31 24 18 30 16 36
-13z"/>
<path d="M4831 1178 c-29 -31 -31 -32 -44 -14 -14 19 -15 19 -26 -2 -6 -11
-11 -38 -12 -59 -1 -47 -32 -140 -45 -133 -5 3 -8 42 -6 87 3 91 -9 133 -34
112 -11 -9 -14 -39 -14 -124 0 -117 3 -125 45 -125 14 0 65 90 65 115 0 29 15
15 38 -35 46 -101 97 -134 137 -90 20 22 14 26 -14 8 -10 -6 -26 -8 -35 -5
-36 14 -83 127 -72 173 4 13 20 39 36 58 29 33 39 66 21 66 -6 0 -24 -15 -40
-32z"/>
<path d="M3831 1181 c-6 -11 -11 -34 -11 -51 0 -17 -7 -47 -15 -67 -17 -40
-19 -91 -5 -113 7 -11 11 -9 19 12 5 14 13 42 16 61 4 20 13 43 19 53 12 15
15 15 45 -1 18 -9 35 -14 38 -11 9 8 -40 45 -59 46 -26 0 -24 47 3 55 27 9 19
29 -14 33 -18 2 -29 -3 -36 -17z"/>
<path d="M4047 1193 c-4 -3 -7 -23 -7 -43 0 -20 -3 -40 -7 -44 -13 -12 -31
-160 -22 -170 13 -15 20 -3 32 63 6 34 15 61 19 61 15 0 28 -41 28 -92 1 -45
4 -56 26 -71 25 -18 26 -18 60 5 18 12 34 26 34 31 0 12 -10 8 -38 -13 -35
-28 -47 -13 -47 63 0 45 7 76 24 110 21 44 22 50 8 64 -9 9 -33 22 -54 29 -44
16 -47 16 -56 7z m81 -70 c3 -18 -2 -23 -17 -23 -21 0 -45 32 -34 44 15 15 48
0 51 -21z"/>
<path d="M4405 1178 c-30 -16 -85 -70 -85 -84 0 -6 14 -41 31 -78 37 -79 35
-101 -6 -101 -26 0 -30 4 -33 30 -5 43 -18 51 -26 15 -11 -59 29 -93 84 -70
44 18 49 67 11 136 -25 46 -28 58 -18 77 7 14 19 21 30 19 23 -5 61 34 53 54
-6 17 -14 17 -41 2z"/>
<path d="M4522 1168 c-7 -7 -12 -22 -12 -35 0 -13 -7 -40 -15 -60 -8 -19 -15
-44 -15 -54 0 -10 -7 -38 -15 -63 -15 -43 -12 -81 6 -71 5 3 13 23 19 44 6 24
19 42 34 49 30 13 36 7 36 -34 0 -48 9 -67 26 -53 19 16 18 95 -2 177 -28 113
-36 126 -62 100z m28 -128 c0 -11 -7 -20 -15 -20 -8 0 -15 9 -15 20 0 11 7 20
15 20 8 0 15 -9 15 -20z"/>
<path d="M3850 955 c0 -30 98 -47 107 -19 4 13 -48 34 -83 34 -15 0 -24 -6
-24 -15z"/>
<path d="M5798 1382 c-16 -2 -28 -8 -28 -14 0 -6 11 -7 27 -3 47 11 47 23 1
17z"/>
<path d="M5770 1065 c0 -27 3 -33 16 -28 8 3 13 12 10 20 -3 8 -6 21 -6 29 0
8 -4 14 -10 14 -5 0 -10 -16 -10 -35z"/>
<path d="M2746 7386 c-14 -47 -29 -105 -32 -130 -4 -25 -10 -46 -14 -46 -15 0
-31 55 -37 128 -6 68 -8 73 -15 44 -5 -20 -5 -55 2 -89 5 -31 10 -75 10 -97 1
-43 73 -392 84 -403 13 -14 13 5 0 67 -13 59 -11 220 3 207 2 -3 9 -37 14 -75
5 -39 15 -90 22 -113 10 -36 12 0 9 222 -2 161 -7 265 -13 267 -5 2 -7 24 -3
53 4 27 4 49 1 49 -2 0 -16 -38 -31 -84z m11 -148 c-3 -8 -6 -5 -6 6 -1 11 2
17 5 13 3 -3 4 -12 1 -19z"/>
<path d="M2810 7460 c0 -5 5 -10 10 -10 6 0 10 5 10 10 0 6 -4 10 -10 10 -5 0
-10 -4 -10 -10z"/>
<path d="M2802 7420 c0 -14 2 -19 5 -12 2 6 2 18 0 25 -3 6 -5 1 -5 -13z"/>
<path d="M2878 7320 c-33 -87 -58 -246 -54 -340 2 -36 4 -96 4 -134 2 -58 4
-67 16 -56 11 8 13 24 9 60 -6 54 3 104 17 95 13 -8 13 -82 0 -90 -17 -10 -11
-25 10 -25 21 0 37 43 60 170 7 36 25 92 41 125 15 33 30 68 33 78 3 10 15 17
31 17 29 0 32 8 9 25 -14 9 -14 16 -5 34 7 12 10 27 8 34 -2 7 -18 -14 -36
-45 -20 -35 -40 -58 -50 -58 -9 0 -22 -5 -29 -12 -19 -19 -45 21 -27 42 16 19
45 102 38 113 -6 11 -23 -2 -23 -17 0 -8 -6 -19 -14 -25 -12 -10 -15 -7 -18
21 l-3 33 -17 -45z"/>
<path d="M2495 7319 c8 -34 105 -309 132 -372 9 -20 23 -43 31 -50 14 -10 15
-9 7 8 -4 11 -14 40 -22 65 -8 25 -26 79 -40 120 -14 41 -39 117 -56 168 -19
56 -36 92 -45 92 -10 0 -12 -8 -7 -31z"/>
<path d="M3270 7293 c-19 -25 -41 -60 -48 -77 -16 -37 -91 -136 -104 -136 -5
0 -6 19 -2 45 4 28 2 45 -4 45 -14 0 -22 -25 -22 -73 0 -43 -20 -119 -40 -156
-22 -42 6 -20 34 27 57 92 120 176 124 164 2 -6 -10 -40 -27 -76 -17 -35 -34
-79 -37 -98 l-6 -33 31 45 c17 25 40 68 50 95 24 63 90 193 102 201 5 3 14 14
20 26 9 17 8 19 -9 14 -17 -6 -19 -3 -15 14 9 33 -10 22 -47 -27z m-13 -90
c-3 -10 -5 -4 -5 12 0 17 2 24 5 18 2 -7 2 -21 0 -30z"/>
<path d="M3142 7275 c-6 -14 -8 -25 -4 -25 12 0 32 23 32 37 0 22 -16 15 -28
-12z"/>
<path d="M3375 7267 c-4 -10 -5 -21 -1 -24 10 -10 18 4 13 24 -4 17 -4 17 -12
0z"/>
<path d="M2294 7218 c-6 -9 18 -44 41 -60 6 -4 18 -5 28 -2 10 3 17 0 17 -8 0
-8 24 -35 53 -60 34 -30 73 -81 116 -152 88 -146 122 -174 57 -46 -83 164
-101 191 -171 261 -57 57 -80 74 -104 75 -17 1 -34 -3 -37 -8z"/>
<path d="M3334 7204 c-40 -58 -85 -147 -110 -217 -15 -40 -30 -76 -35 -81 -5
-6 -9 -19 -8 -30 0 -19 1 -19 17 4 23 35 133 150 143 150 5 0 0 -21 -10 -47
-17 -46 -35 -133 -27 -133 2 0 14 26 27 58 12 31 44 103 70 159 87 184 76 203
-32 54 -37 -52 -76 -103 -88 -114 -20 -21 -21 -21 -21 -2 0 11 17 49 36 85 61
110 66 120 62 132 -2 6 -13 -2 -24 -18z"/>
<path d="M3490 7115 c-22 -30 -40 -57 -40 -60 0 -3 -20 -36 -44 -73 -65 -101
-122 -209 -114 -218 11 -10 46 24 63 60 21 44 62 92 71 84 4 -5 2 -27 -5 -50
-7 -24 -15 -51 -17 -60 -4 -13 0 -18 15 -18 15 0 19 -6 18 -27 -2 -21 4 -28
26 -34 15 -4 37 -19 47 -32 11 -13 33 -27 50 -30 24 -5 30 -12 30 -32 0 -14 9
-34 20 -45 16 -16 19 -28 14 -62 -3 -25 1 -67 10 -103 9 -32 16 -76 16 -97 0
-39 15 -57 33 -39 7 7 7 21 -1 48 -41 143 -36 195 20 208 29 7 30 9 10 12 -13
3 -21 10 -19 16 5 13 32 14 62 1 17 -7 18 -6 8 8 -11 12 -9 17 13 27 44 20 23
36 -41 33 -43 -3 -56 0 -53 10 6 16 41 26 100 27 50 1 74 19 39 28 -12 3 -21
12 -21 19 0 8 -9 14 -20 14 -17 0 -19 3 -11 19 14 26 -12 36 -42 16 -22 -14
-67 -10 -67 6 0 5 27 16 60 26 33 9 60 21 60 26 0 20 -113 -6 -195 -44 -47
-21 -90 -39 -95 -39 -58 0 123 91 197 99 35 4 58 11 61 20 8 25 -114 5 -182
-29 -41 -21 -63 -27 -70 -20 -15 15 48 75 114 109 54 28 120 78 90 68 -8 -3
-39 -16 -67 -28 -60 -26 -82 -18 -38 14 54 39 100 85 92 93 -4 4 -26 -8 -50
-26 -23 -18 -48 -38 -54 -43 -9 -6 -15 -4 -19 8 -5 12 8 32 45 69 55 56 66 78
25 51 -19 -12 -29 -14 -37 -6 -8 8 -21 1 -49 -26 -21 -20 -41 -33 -45 -29 -4
4 5 29 20 57 37 66 18 62 -33 -6z m0 -72 c0 -5 -4 -15 -10 -23 -11 -18 -25 -7
-17 15 6 15 27 21 27 8z m60 -68 c0 -8 -7 -15 -15 -15 -9 0 -12 6 -9 15 4 8
10 15 15 15 5 0 9 -7 9 -15z m150 -262 c0 -15 -91 -46 -102 -35 -7 7 -1 15 18
26 30 16 84 22 84 9z"/>
<path d="M3007 7117 c-21 -54 -31 -97 -23 -97 17 0 60 126 46 135 -4 2 -15
-14 -23 -38z"/>
<path d="M2160 7125 c0 -8 19 -27 43 -43 37 -26 107 -102 107 -116 0 -3 -15
-6 -33 -6 -21 0 -45 10 -67 29 -37 30 -112 71 -130 71 -23 0 -8 -21 30 -40 44
-22 51 -39 20 -47 -33 -9 -19 -24 45 -48 63 -23 91 -53 39 -41 -16 4 -72 10
-124 15 -75 6 -109 15 -160 40 -36 17 -71 31 -77 31 -25 0 -13 -22 17 -33 19
-7 33 -21 37 -35 4 -18 10 -22 28 -18 29 7 108 -20 131 -45 17 -19 15 -19
-113 -19 -128 0 -131 0 -147 25 -9 14 -23 25 -31 25 -19 0 -19 -9 1 -31 15
-17 14 -19 -12 -25 l-27 -7 23 -19 c21 -17 25 -17 40 -3 18 17 70 21 70 5 0
-5 -4 -10 -10 -10 -5 0 -10 -4 -10 -9 0 -9 54 -23 135 -36 54 -9 125 -51 125
-74 0 -21 -26 -31 -82 -31 -29 0 -38 4 -38 16 0 14 -8 16 -47 11 -34 -4 -84 3
-173 25 -142 33 -270 48 -270 29 0 -7 22 -11 61 -11 33 0 86 -8 117 -17 l57
-17 -40 -7 c-21 -3 -78 -7 -125 -8 -90 -2 -260 -28 -260 -41 0 -13 59 -20 167
-20 94 0 104 -2 101 -17 -2 -14 -18 -20 -63 -25 -33 -4 -80 -12 -105 -17 -36
-8 -27 -9 50 -5 52 3 118 9 145 14 108 19 151 20 170 6 17 -12 9 -15 -71 -25
-49 -7 -109 -16 -134 -21 -122 -24 -201 -34 -262 -35 -71 0 -87 -7 -69 -28 9
-11 22 -12 63 -4 69 14 237 15 240 2 2 -5 -35 -16 -82 -23 -91 -13 -246 -43
-347 -65 -36 -9 -75 -25 -93 -41 -27 -22 -38 -25 -71 -20 -31 5 -40 3 -45 -10
-13 -34 11 -40 88 -24 54 12 110 15 212 12 136 -4 201 -17 146 -27 -146 -29
-239 -50 -258 -58 -13 -5 -67 -14 -120 -19 -106 -12 -132 -18 -132 -29 0 -11
131 -1 175 14 52 18 217 24 222 9 5 -14 -29 -24 -78 -24 -20 0 -95 -9 -166
-20 -72 -11 -144 -17 -160 -14 -32 6 -57 -13 -44 -34 5 -9 15 -10 37 -2 37 12
301 50 353 50 21 0 73 7 114 16 81 16 187 10 194 -13 7 -21 -66 -31 -277 -37
-226 -7 -302 -20 -335 -60 -11 -13 -30 -27 -42 -31 -13 -3 -23 -13 -23 -22 0
-8 3 -13 8 -11 40 19 69 29 142 48 47 12 99 26 115 32 29 11 242 24 518 32
101 3 127 1 127 -10 0 -7 -4 -15 -9 -19 -9 -5 -128 -24 -178 -28 -12 -1 -25
-6 -30 -10 -4 -5 17 -7 47 -4 105 10 300 46 300 55 0 3 -8 10 -17 17 -15 11
-15 15 -4 29 7 9 18 16 24 16 6 0 20 9 31 19 12 11 55 36 96 57 66 32 80 36
128 31 48 -5 52 -4 47 12 -4 15 3 21 42 31 27 7 41 15 31 17 -9 2 -33 0 -52
-5 -31 -9 -36 -8 -41 9 -7 19 -8 19 -38 -4 -18 -13 -81 -47 -142 -76 -60 -29
-126 -61 -147 -71 -33 -18 -44 -18 -121 -9 -150 20 -145 45 11 55 65 5 101 11
99 18 -2 5 -36 17 -76 26 -39 8 -73 20 -74 25 -1 6 31 11 76 13 42 2 77 7 77
12 0 13 -123 12 -180 -1 -70 -17 -70 -17 -269 17 -50 8 -31 16 66 27 150 17
313 14 419 -8 20 -4 41 -2 55 6 23 13 21 14 -31 20 -60 7 -198 37 -213 46 -39
24 117 22 254 -4 83 -16 119 -14 119 6 0 14 -27 21 -109 27 -42 3 -113 15
-159 26 -46 11 -86 17 -89 15 -7 -8 -63 13 -63 24 0 11 18 14 145 28 125 14
113 14 161 0 35 -11 47 -10 75 3 19 9 69 22 111 29 83 14 98 31 20 23 -49 -6
-92 12 -78 34 10 17 111 26 147 13 41 -14 60 -2 24 16 -31 17 -26 25 24 42 49
16 57 14 92 -21 29 -30 31 -31 26 -9 -5 22 -4 23 40 16 31 -4 43 -3 38 4 -3 6
-24 14 -47 17 -38 6 -99 46 -88 57 3 3 39 -5 80 -18 41 -14 76 -22 78 -20 9 8
-10 25 -29 25 -28 0 -69 44 -69 75 0 29 13 31 63 10 69 -29 88 -11 43 42 -13
16 -34 49 -47 73 -12 25 -29 53 -37 63 -25 28 -7 30 26 2 41 -34 100 -115 138
-189 32 -64 54 -82 54 -45 0 68 -155 251 -260 307 -30 16 -81 43 -112 60 -42
23 -58 28 -58 17z m72 -272 c51 -18 70 -37 83 -82 6 -21 5 -23 -11 -17 -11 4
-47 15 -81 23 -47 12 -73 26 -110 60 l-48 44 59 -5 c32 -3 81 -13 108 -23z
m-158 -68 c81 -7 122 -22 156 -59 28 -31 23 -37 -43 -58 -34 -10 -40 -9 -61
11 -14 13 -22 29 -19 36 3 9 -9 17 -39 25 -70 18 -111 34 -116 48 -2 8 5 10
25 7 15 -2 59 -7 97 -10z m-196 -167 c-6 -19 -142 -30 -207 -18 -30 5 -74 10
-98 10 -24 0 -43 5 -43 10 0 6 65 10 176 10 136 0 175 -3 172 -12z m85 -38
c27 0 20 -16 -15 -31 -36 -15 -96 -13 -116 4 -19 16 34 38 78 32 19 -3 43 -5
53 -5z m-463 -220 c0 -10 -20 -14 -143 -30 -98 -13 -157 -13 -157 -1 0 6 21
13 48 16 26 3 67 10 92 14 64 12 160 13 160 1z m-340 -40 c0 -5 -5 -10 -11
-10 -5 0 -7 5 -4 10 3 6 8 10 11 10 2 0 4 -4 4 -10z m430 -115 c13 -15 16 -14
-82 -35 -38 -8 -61 -7 -108 7 -92 25 -62 40 86 42 69 1 95 -3 104 -14z"/>
<path d="M9085 7030 c-22 -16 -48 -29 -57 -30 -9 0 -20 -4 -23 -10 -12 -19 30
-10 79 18 27 15 51 33 54 40 6 19 -9 14 -53 -18z"/>
<path d="M2971 6974 c0 -11 3 -14 6 -6 3 7 2 16 -1 19 -3 4 -6 -2 -5 -13z"/>
<path d="M2652 6768 c6 -18 28 -21 28 -4 0 9 -7 16 -16 16 -9 0 -14 -5 -12
-12z"/>
<path d="M8576 6705 c-11 -8 -15 -15 -9 -15 19 0 43 12 43 21 0 13 -12 11 -34
-6z"/>
<path d="M8318 6538 c-18 -24 -37 -45 -42 -47 -5 -2 -17 -12 -27 -22 -24 -24
-29 -24 -29 1 0 22 -11 25 -38 11 -9 -6 -30 -13 -46 -16 -16 -3 -42 -22 -59
-41 -17 -18 -38 -34 -46 -34 -24 -1 -101 -38 -101 -48 0 -15 40 -22 65 -10 15
7 37 7 62 1 32 -7 39 -13 41 -38 5 -36 -16 -112 -39 -146 -10 -14 -34 -34 -53
-44 -39 -21 -46 -35 -18 -35 27 0 130 96 155 145 68 133 96 179 158 262 38 50
69 94 69 97 0 17 -22 1 -52 -36z m-118 -133 c0 -16 -9 -19 -34 -9 -25 9 -19
24 9 24 16 0 25 -6 25 -15z m-40 -111 c0 -8 -5 -12 -10 -9 -6 4 -8 11 -5 16 9
14 15 11 15 -7z"/>
<path d="M2215 6561 c-3 -6 2 -11 13 -11 20 0 52 -29 52 -47 0 -6 -12 -16 -27
-22 -26 -10 -25 -10 12 -6 89 11 126 18 131 26 3 5 -18 9 -45 9 -47 0 -65 10
-41 25 20 12 9 24 -22 22 -18 0 -40 3 -49 7 -10 4 -20 3 -24 -3z"/>
<path d="M2365 6541 c37 -17 105 -34 111 -28 10 10 -34 27 -83 32 -34 4 -42 3
-28 -4z"/>
<path d="M8463 6528 c-4 -7 -12 -20 -18 -29 -45 -71 -91 -138 -110 -159 -28
-31 -42 -135 -17 -125 12 4 13 -3 8 -42 l-7 -48 35 40 c19 22 35 43 36 46 0 4
19 19 43 35 37 26 40 29 20 32 -13 2 -23 7 -23 13 0 8 18 14 64 21 11 2 21 9
24 17 4 11 -6 13 -56 7 -92 -10 -94 16 -4 54 54 23 67 40 32 40 -25 0 -25 16
0 58 11 18 18 37 15 43 -9 13 -32 11 -42 -3z"/>
<path d="M1780 6480 c0 -5 5 -10 11 -10 5 0 7 5 4 10 -3 6 -8 10 -11 10 -2 0
-4 -4 -4 -10z"/>
<path d="M2140 6445 c-19 -14 -29 -25 -23 -25 20 0 93 37 86 43 -11 12 -27 7
-63 -18z"/>
<path d="M2345 6400 c-3 -5 3 -10 14 -10 12 0 21 5 21 10 0 6 -6 10 -14 10 -8
0 -18 -4 -21 -10z"/>
<path d="M2275 6370 c-3 -5 -1 -10 4 -10 6 0 11 5 11 10 0 6 -2 10 -4 10 -3 0
-8 -4 -11 -10z"/>
<path d="M2389 6348 c-6 -13 -26 -39 -43 -58 -32 -35 -49 -58 -86 -116 -11
-17 -31 -37 -45 -44 -16 -9 -25 -22 -25 -37 0 -14 -4 -32 -10 -42 -18 -35 -69
-246 -71 -298 -3 -56 7 -82 15 -42 42 209 63 292 88 342 16 31 34 57 39 57 12
0 2 -64 -16 -100 -34 -68 -104 -407 -105 -501 0 -71 -69 -151 -99 -115 -16 19
1 59 35 84 l28 20 -17 56 c-10 31 -16 60 -13 64 3 4 10 47 16 94 9 68 9 91 -1
110 -7 12 -15 36 -18 52 -4 16 -12 31 -19 34 -20 6 -14 -57 9 -89 19 -27 20
-34 9 -107 -6 -42 -17 -86 -24 -97 -7 -11 -11 -36 -9 -55 4 -42 -9 -65 -32
-56 -12 4 -15 13 -11 31 4 14 1 33 -6 44 -10 16 -7 37 16 118 16 54 26 108 24
118 -3 14 -8 6 -17 -25 -30 -113 -66 -210 -75 -207 -5 2 -13 11 -18 20 -14 29
-22 43 -41 70 -17 23 -17 33 -5 128 11 90 16 105 41 130 30 31 56 36 88 19 11
-6 19 -7 19 -1 0 5 -7 11 -15 15 -8 3 -20 17 -27 31 -6 14 -14 25 -18 25 -4 0
-27 -16 -51 -34 -49 -40 -69 -44 -226 -51 -62 -2 -174 -12 -249 -20 -75 -9
-138 -14 -141 -11 -12 12 11 24 69 36 116 23 147 37 118 55 -22 14 -336 -38
-457 -76 -46 -15 -41 -29 5 -18 47 12 206 45 250 53 46 8 39 -9 -10 -24 -73
-21 -75 -23 -43 -29 25 -5 27 -8 12 -14 -27 -10 -59 -9 -52 3 8 13 -14 13 -53
-1 -20 -7 -29 -16 -26 -24 4 -10 -11 -19 -53 -30 -157 -44 -269 -78 -277 -86
-17 -16 2 -21 36 -10 18 5 70 21 115 35 45 15 96 26 112 26 17 0 48 7 68 15
38 15 239 68 301 79 17 3 32 2 32 -3 0 -4 -62 -27 -137 -50 -76 -24 -176 -61
-223 -82 -76 -36 -115 -47 -290 -83 -41 -8 -56 -16 -58 -30 -3 -15 0 -18 20
-13 12 3 100 24 193 47 94 23 197 48 230 55 77 17 168 22 172 9 4 -13 -209
-111 -267 -123 -87 -18 -225 -53 -250 -64 -50 -22 13 -19 91 4 41 12 110 25
154 30 44 4 104 11 134 15 76 10 58 -10 -27 -30 -37 -9 -114 -30 -172 -47 -58
-16 -118 -33 -134 -37 -16 -4 -32 -14 -34 -21 -3 -10 0 -12 14 -7 11 5 46 14
79 21 33 8 100 23 149 35 84 19 124 17 94 -7 -26 -20 -224 -117 -294 -143 -17
-7 -24 -14 -18 -20 13 -13 135 21 222 62 37 17 85 34 107 38 22 4 47 9 55 11
8 2 15 -3 15 -11 0 -14 -120 -80 -362 -201 -100 -49 -114 -61 -93 -74 11 -7
113 39 141 62 15 12 302 113 323 113 5 0 1 -9 -9 -20 -29 -32 -8 -23 81 35 47
30 113 67 147 81 88 37 127 63 127 84 0 10 11 27 25 38 14 11 25 23 25 26 0
12 -28 6 -40 -9 -14 -16 -60 -21 -60 -6 0 5 17 19 38 32 45 27 82 59 82 71 0
5 -14 -1 -31 -13 -26 -19 -40 -21 -96 -16 -66 5 -88 14 -75 32 7 10 117 80
184 117 17 9 36 22 42 28 19 20 -47 -1 -69 -21 -24 -22 -80 -35 -88 -22 -6 10
169 93 195 93 7 0 30 9 50 20 45 24 55 13 31 -32 -25 -48 -22 -166 6 -214 12
-19 21 -45 21 -57 0 -33 -85 -124 -144 -154 -28 -14 -83 -45 -123 -69 -76 -47
-93 -52 -93 -31 0 20 112 100 213 152 48 25 87 50 87 55 0 6 -1 10 -3 10 -15
0 -274 -150 -362 -210 -22 -15 -82 -49 -134 -76 -52 -27 -116 -61 -144 -76
-27 -14 -75 -34 -106 -43 -72 -21 -151 -56 -151 -67 0 -14 27 -9 103 22 42 17
80 30 86 30 22 0 10 -20 -35 -56 -25 -21 -41 -40 -35 -42 21 -7 10 -29 -40
-78 -77 -75 -259 -323 -259 -353 0 -8 -11 -26 -24 -40 -13 -15 -32 -51 -41
-81 -10 -30 -29 -68 -41 -83 -13 -16 -24 -41 -24 -57 0 -16 -5 -30 -10 -32
-15 -5 -80 -147 -80 -174 0 -12 -6 -27 -13 -33 -8 -6 -20 -30 -27 -53 -8 -24
-17 -48 -22 -54 -11 -15 -98 -227 -98 -239 0 -5 -20 -53 -45 -105 -27 -58 -45
-109 -45 -131 0 -20 -7 -42 -15 -49 -8 -7 -15 -20 -15 -30 0 -10 -8 -42 -19
-72 -31 -89 -75 -302 -111 -541 -18 -120 -15 -411 4 -467 9 -25 16 -57 16 -71
0 -43 21 -58 110 -80 101 -24 170 -19 233 17 23 13 45 24 49 24 4 0 16 -20 26
-44 31 -69 86 -122 169 -162 40 -19 78 -32 83 -29 5 3 15 1 22 -5 7 -6 29 -19
48 -28 58 -29 75 -71 73 -182 -2 -52 -9 -127 -17 -167 -21 -112 5 -203 82
-280 34 -34 55 -44 151 -73 l73 -22 -7 -46 c-4 -26 -10 -54 -15 -62 -10 -20
-25 -265 -25 -411 l0 -116 -39 -57 c-22 -31 -49 -65 -61 -74 -30 -24 -45 -55
-45 -92 0 -60 23 -78 123 -95 28 -4 37 -11 37 -25 0 -17 -9 -19 -113 -20 -251
-4 -495 1 -537 10 -25 5 -85 14 -135 21 -82 12 -108 13 -170 11 -11 -1 -53 1
-93 4 -41 3 -85 3 -98 0 -22 -6 -24 -11 -24 -69 l0 -62 68 1 c37 1 97 4 132 8
36 4 133 2 215 -3 206 -14 358 -15 499 -2 107 10 122 10 145 -6 21 -14 54 -17
198 -18 165 -1 174 -2 204 -24 20 -15 49 -25 73 -26 23 -2 79 -6 126 -9 47 -4
209 -9 360 -11 151 -2 331 -6 400 -9 80 -4 183 -1 285 8 169 16 412 30 600 35
42 1 47 3 35 15 -12 10 -34 12 -105 5 -49 -4 -209 -12 -355 -18 -146 -5 -276
-14 -290 -19 -14 -5 -55 -7 -92 -4 -52 3 -68 8 -68 19 0 17 -65 83 -81 83 -6
0 -25 11 -42 24 -18 13 -48 27 -67 31 -19 4 -46 15 -60 25 -14 9 -36 20 -50
23 -63 13 -192 56 -215 71 -14 9 -25 23 -25 31 0 8 -8 15 -19 15 -10 0 -24 6
-30 14 -19 23 -91 258 -91 298 0 20 -5 49 -10 64 -6 15 -12 39 -15 53 -2 14
-8 58 -13 96 -6 39 -13 78 -17 88 -6 15 -1 17 46 17 30 1 88 6 129 12 41 6
104 12 140 13 167 5 149 0 170 47 10 24 52 106 93 184 41 78 79 154 85 170 6
16 22 60 36 98 14 38 26 82 26 98 0 16 7 62 15 104 12 55 13 88 7 125 -9 45
-7 54 10 71 18 18 19 32 16 211 -2 159 -6 198 -20 226 -10 19 -18 38 -18 44 0
5 -13 29 -30 54 -16 24 -30 48 -30 52 0 4 -13 26 -29 48 -16 22 -39 60 -51 84
-12 24 -33 58 -46 76 -35 46 -59 178 -50 274 10 108 13 110 83 72 136 -74 301
-135 453 -168 36 -7 105 -25 154 -39 56 -16 113 -26 155 -26 82 0 127 -12 160
-44 28 -26 76 -49 179 -85 52 -18 92 -22 230 -26 140 -3 180 -8 247 -28 44
-13 107 -27 140 -31 33 -4 77 -12 97 -17 33 -9 36 -12 26 -28 -9 -15 -4 -41
27 -133 20 -62 48 -127 61 -143 23 -29 25 -30 151 -36 70 -4 178 -12 240 -19
110 -11 112 -11 161 14 68 35 107 82 131 163 49 165 71 249 70 268 0 11 3 94
7 185 12 268 16 239 -38 271 -26 16 -67 33 -90 39 -24 7 -70 21 -103 32 -90
31 -294 41 -410 22 -49 -9 -97 -20 -105 -24 -10 -5 -24 -1 -39 11 -42 34 -121
15 -121 -29 0 -15 -26 -28 -70 -36 -20 -3 -60 -22 -89 -41 -30 -20 -77 -41
-104 -47 -70 -15 -180 -2 -246 28 -49 24 -53 28 -48 54 6 27 4 28 -43 34 -27
4 -79 20 -116 36 -36 17 -76 30 -88 30 -12 0 -46 7 -76 15 -30 8 -79 20 -109
26 -30 6 -84 26 -120 44 -36 18 -77 36 -91 40 -25 7 -177 87 -275 145 -27 16
-70 41 -95 55 -25 14 -73 47 -107 73 -33 26 -84 64 -112 85 -56 43 -61 60 -35
122 8 21 17 67 19 104 18 270 25 344 38 406 27 123 29 143 12 174 -8 17 -15
44 -15 61 0 37 -25 100 -39 100 -13 0 -14 8 4 -76 17 -83 14 -196 -9 -308 -9
-43 -16 -108 -15 -145 2 -76 -17 -224 -32 -252 -5 -11 -7 -28 -4 -38 9 -28
-33 -128 -63 -152 -15 -11 -52 -35 -82 -52 -57 -33 -78 -71 -46 -83 21 -8 102
40 149 88 43 45 55 45 118 -8 51 -42 156 -114 250 -170 37 -22 74 -46 82 -52
29 -24 206 -111 297 -145 52 -20 142 -46 200 -57 191 -38 197 -41 177 -102 -5
-15 -7 -35 -5 -45 2 -11 11 3 22 35 17 50 20 53 45 48 14 -4 43 -11 64 -15 58
-13 60 -17 47 -122 -7 -52 -16 -131 -19 -176 -8 -86 -29 -133 -59 -133 -9 0
-48 22 -87 48 -77 52 -85 69 -65 135 6 21 8 42 5 45 -10 10 -35 -29 -35 -54 0
-14 -12 -31 -32 -45 -42 -30 -86 -28 -219 10 -57 16 -124 33 -149 36 -25 4
-67 15 -95 25 -27 10 -86 29 -130 43 -119 37 -287 114 -312 142 -12 14 -32 25
-45 25 -32 0 -232 116 -314 183 -123 99 -209 188 -236 247 -32 67 -35 103 -24
250 11 142 11 156 2 200 -9 42 17 238 38 290 8 19 22 85 30 145 16 118 72 304
112 372 13 23 24 50 24 60 0 10 17 38 39 63 l38 44 44 -18 c24 -10 71 -29 104
-41 58 -22 60 -24 63 -63 3 -36 7 -42 55 -67 70 -38 145 -119 224 -242 36 -57
72 -103 80 -103 7 0 25 -24 38 -52 21 -45 25 -68 25 -148 0 -52 -5 -113 -10
-135 -20 -76 -42 -125 -55 -125 -18 0 -35 -31 -35 -65 0 -15 -8 -39 -19 -53
-10 -15 -26 -45 -35 -67 -10 -22 -29 -52 -43 -67 -32 -34 -25 -45 15 -24 30
15 80 85 115 161 10 21 19 41 21 42 6 6 147 -47 253 -96 62 -28 120 -51 128
-51 9 0 64 -16 123 -36 l107 -37 130 7 c109 5 146 11 225 38 52 17 106 40 119
50 13 10 30 18 38 18 21 0 153 70 153 81 0 14 -5 12 -123 -45 -237 -115 -416
-140 -587 -83 -41 13 -109 35 -150 47 -41 12 -125 44 -187 71 -62 27 -115 49
-118 49 -4 0 -27 12 -51 26 -40 24 -43 28 -31 43 8 9 25 44 37 79 20 55 22 75
17 161 -8 134 -50 263 -112 346 -13 17 -32 49 -44 72 -12 23 -49 72 -82 108
-64 68 -65 75 -5 50 20 -9 42 -13 47 -9 6 3 32 0 57 -7 36 -10 62 -28 109 -76
88 -88 102 -156 52 -239 -22 -36 -23 -44 -9 -44 7 0 65 80 106 148 2 2 34 -15
72 -37 119 -71 330 -94 413 -44 34 19 34 20 31 82 -3 56 -2 63 17 68 23 6 27
18 11 28 -6 4 -22 -1 -35 -9 -22 -14 -25 -24 -25 -75 0 -92 -26 -104 -188 -89
-137 12 -208 48 -344 173 -14 13 -47 38 -72 55 -25 17 -46 35 -46 40 0 5 16
44 36 87 28 63 33 82 25 100 -8 18 -19 23 -50 23 -38 0 -101 -27 -101 -42 0
-12 13 -10 54 7 20 9 41 13 46 10 26 -16 -10 -148 -43 -160 -7 -3 -32 1 -56
10 -24 8 -56 15 -72 15 -34 0 -161 60 -156 74 2 6 21 9 43 8 21 0 63 1 93 5
88 9 36 21 -68 16 -89 -5 -105 -3 -201 27 -126 39 -134 43 -138 62 -2 9 43 65
98 124 56 60 112 129 125 154 24 48 76 174 79 193 1 7 10 36 20 65 10 29 16
56 13 59 -10 9 -27 -8 -27 -26 0 -10 -8 -25 -17 -32 -15 -12 -16 -12 -11 6 3
11 15 54 26 95 12 41 28 92 37 113 8 20 11 37 6 37 -12 0 -66 -141 -86 -228
-10 -40 -26 -83 -36 -95 -23 -28 -24 -12 -4 68 9 33 27 118 41 189 24 122 47
186 67 186 4 0 5 23 1 51 -6 46 -5 51 15 56 27 7 27 23 1 30 -29 8 -25 26 18
77 69 84 102 128 102 137 0 17 -19 9 -31 -13z m-685 -446 c3 -5 -58 -35 -136
-67 -145 -60 -211 -74 -285 -60 -35 6 -37 8 -18 21 10 8 29 14 41 14 12 0 46
11 75 25 30 13 88 29 129 36 41 6 93 17 115 24 50 15 72 17 79 7z m-204 -156
c0 -24 -110 -84 -160 -88 -25 -2 -47 2 -50 7 -6 12 156 94 188 95 13 0 22 -6
22 -14z m22 -154 c-40 -31 -235 -104 -277 -104 -48 1 71 84 145 101 47 11 88
17 130 19 l25 2 -23 -18z m378 -52 c7 -13 7 -26 1 -37 -6 -11 -5 -23 2 -35 9
-14 6 -29 -18 -75 -66 -131 -131 -203 -182 -203 -12 0 -26 -7 -30 -15 -8 -14
-77 -59 -178 -116 -57 -33 -136 -98 -118 -99 6 0 59 31 117 70 118 78 185 114
194 106 6 -6 -16 -31 -112 -133 -28 -29 -47 -55 -44 -59 4 -3 32 8 62 26 56
31 77 50 57 50 -23 0 -9 27 33 69 46 45 70 49 83 14 13 -37 25 -45 42 -29 18
17 61 11 61 -8 0 -6 -27 -45 -60 -86 -103 -128 -140 -179 -140 -191 0 -19 26
8 40 41 7 17 19 30 27 30 17 0 16 -4 -16 -92 -29 -80 -71 -245 -71 -279 0 -16
-7 -46 -15 -66 -8 -19 -15 -51 -15 -70 0 -18 -7 -45 -16 -58 -13 -20 -16 -72
-19 -334 l-4 -310 43 -55 c24 -31 74 -81 112 -112 38 -31 70 -63 72 -70 2 -8
-12 -33 -31 -56 -19 -24 -50 -68 -70 -98 -19 -31 -50 -71 -68 -90 -18 -19 -41
-51 -50 -71 -9 -20 -33 -55 -53 -77 -20 -21 -36 -44 -36 -50 0 -6 -15 -26 -32
-45 -18 -18 -56 -58 -83 -88 -50 -54 -140 -123 -221 -170 -23 -13 -63 -39 -89
-57 -67 -47 -173 -98 -274 -134 -47 -16 -119 -49 -159 -71 -224 -128 -226
-129 -287 -134 -119 -10 -150 29 -148 185 2 104 18 219 38 272 30 75 64 251
75 380 16 200 38 332 60 365 4 6 10 25 14 44 10 53 32 72 76 65 32 -5 42 -2
74 26 32 28 37 38 34 69 -3 34 -6 36 -39 39 -31 3 -44 -4 -83 -37 -26 -23 -51
-41 -56 -41 -5 0 -14 -17 -20 -37 -7 -21 -21 -54 -31 -73 -38 -74 -79 -258
-79 -354 0 -85 -47 -369 -76 -454 -8 -23 -14 -53 -14 -67 0 -13 -5 -36 -11
-52 -10 -26 -12 -27 -19 -8 -31 74 17 470 81 683 10 34 19 72 19 84 0 46 72
232 105 270 27 33 33 49 38 104 4 51 15 87 52 162 26 54 51 104 56 112 24 40
69 145 69 160 0 10 9 29 20 43 11 14 27 44 34 65 8 22 44 93 79 159 36 65 82
157 102 205 20 47 51 104 69 125 18 21 42 56 54 78 11 22 38 57 61 77 23 20
41 44 41 53 0 22 55 102 99 143 76 72 307 200 325 182 17 -17 -134 -144 -306
-257 -54 -35 -98 -68 -98 -73 0 -6 2 -10 4 -10 13 0 205 126 264 173 95 75
119 89 168 94 56 6 58 -12 8 -57 -20 -17 -34 -34 -31 -36 3 -3 40 26 81 65 46
42 107 86 155 111 91 47 118 66 110 74 -3 4 -27 -5 -52 -20 -26 -14 -52 -24
-58 -22 -6 2 7 26 30 53 23 28 62 76 88 108 50 61 66 69 83 37z m-404 -35 c-7
-20 -289 -158 -313 -153 -13 3 -1 14 42 42 33 22 76 46 95 54 19 8 48 23 63
34 28 20 108 49 116 42 2 -2 1 -10 -3 -19z m709 15 c3 -5 2 -10 -4 -10 -5 0
-13 5 -16 10 -3 6 -2 10 4 10 5 0 13 -4 16 -10z m-54 -107 c-16 -32 -60 -92
-96 -133 -36 -41 -82 -96 -101 -122 -21 -28 -44 -48 -55 -48 -31 0 -22 33 16
59 19 13 48 44 64 70 16 25 56 76 89 113 33 37 71 86 83 109 36 63 36 21 0
-48z m-164 41 c3 -10 -2 -51 -11 -93 -10 -42 -20 -87 -23 -101 -5 -31 -101
-130 -125 -130 -26 0 -68 22 -68 36 0 7 25 36 55 65 39 37 54 58 50 70 -4 11
8 39 29 71 20 29 36 58 36 63 0 31 46 46 57 19z m-313 -76 c-38 -66 -115 -128
-159 -128 -30 0 -14 20 63 79 72 57 113 77 96 49z m336 -50 c0 -16 -3 -19 -11
-11 -6 6 -8 16 -5 22 11 17 16 13 16 -11z m372 -592 c-7 -12 -42 31 -42 53 0
11 7 7 24 -14 13 -16 22 -34 18 -39z m-497 -1372 c41 -27 32 -44 -24 -44 -57
0 -66 8 -45 38 18 26 36 28 69 6z m2790 -107 c28 -8 73 -25 100 -39 41 -20 50
-28 47 -48 -3 -31 -3 -31 -43 -20 -19 6 -91 10 -161 8 -78 -1 -131 2 -140 9
-7 6 -35 13 -63 15 -27 3 -77 17 -109 32 -64 29 -65 41 -4 57 50 12 315 3 373
-14z m-2622 -16 c23 -16 59 -45 79 -64 31 -28 37 -40 33 -63 -3 -16 -9 -72
-15 -124 -8 -83 -7 -102 10 -160 11 -36 40 -101 66 -145 25 -44 65 -121 89
-171 l44 -91 1 -184 c0 -194 -18 -344 -47 -388 -11 -18 -14 -49 -13 -135 1
-61 -1 -124 -5 -141 -8 -38 -41 -102 -72 -138 -13 -16 -23 -35 -23 -44 0 -8
-6 -27 -13 -41 -8 -15 -24 -48 -36 -73 -25 -52 -56 -73 -83 -55 -14 8 -24 5
-50 -20 -56 -52 -118 -87 -132 -75 -10 8 -18 6 -31 -9 -15 -16 -31 -20 -86
-20 -58 0 -77 5 -135 36 -37 20 -93 58 -124 85 -71 62 -173 109 -237 109 -92
1 -217 46 -263 95 -34 36 -43 120 -29 263 7 70 11 154 10 187 -2 56 -5 63 -44
102 -41 43 -157 109 -231 133 -48 15 -121 81 -147 132 l-20 38 27 35 c14 19
35 35 45 35 10 0 24 9 31 20 7 11 24 20 37 20 39 0 89 22 94 41 3 12 11 16 26
12 27 -7 113 25 105 39 -10 16 17 27 36 15 14 -8 27 -4 61 15 156 89 255 159
351 249 86 81 238 251 238 267 0 8 28 51 61 95 34 45 66 91 71 103 9 19 22 23
102 32 159 16 173 15 219 -17z m2097 -25 c0 -60 -9 -73 -40 -56 -16 9 -20 21
-20 60 0 49 1 50 30 50 30 0 30 -1 30 -54z m-100 -58 c121 -89 229 -138 176
-79 -29 32 -17 111 18 111 29 0 159 -28 193 -41 31 -12 310 -27 410 -22 59 3
61 2 70 -24 12 -36 -3 -293 -23 -393 -29 -149 -70 -283 -95 -315 -11 -13 -39
-33 -64 -45 -43 -21 -54 -22 -230 -16 -235 7 -263 18 -298 111 -16 42 -47 173
-47 199 0 12 10 16 35 16 20 0 46 6 58 14 12 8 45 17 72 21 88 11 160 28 175
40 23 20 131 75 145 75 14 0 40 28 33 35 -3 3 -20 -2 -38 -12 -19 -9 -68 -20
-109 -24 -102 -10 -143 -19 -138 -33 2 -6 15 -9 28 -7 48 7 72 6 76 -5 5 -15
-160 -54 -227 -54 -26 0 -92 9 -145 20 -116 24 -110 24 -95 5 7 -8 21 -15 30
-15 30 0 50 -11 50 -27 0 -11 -5 -13 -17 -7 -10 4 -29 7 -43 6 -28 -1 -119 18
-200 42 -30 9 -84 21 -120 27 -36 5 -74 12 -85 14 -143 28 -181 37 -189 45
-12 12 18 286 33 304 11 13 18 13 54 -1 30 -11 78 -16 167 -16 127 -1 161 7
187 42 9 13 60 32 104 40 3 1 25 -14 49 -31z m185 -469 c5 -5 -1 -9 -17 -9
-14 0 -40 -3 -57 -6 -27 -6 -31 -4 -31 15 0 21 3 22 48 15 26 -3 51 -10 57
-15z m-2805 -1490 c33 -28 76 -57 95 -65 19 -8 35 -18 35 -22 0 -5 16 -16 35
-25 26 -12 35 -23 35 -42 0 -13 6 -57 14 -97 8 -40 22 -120 31 -178 21 -129
64 -269 101 -321 33 -47 108 -105 149 -114 17 -4 39 -10 50 -15 11 -5 79 -32
150 -59 256 -100 261 -134 14 -110 -68 7 -226 13 -351 14 -196 1 -232 4 -267
20 -40 18 -41 19 -41 67 0 27 -7 80 -16 117 -14 62 -21 75 -73 127 -32 33 -77
88 -101 123 -41 61 -44 70 -52 165 -12 130 -5 349 13 401 8 23 24 45 39 52 47
24 76 16 140 -38z m540 -79 c0 -5 -5 -10 -11 -10 -5 0 -7 5 -4 10 3 6 8 10 11
10 2 0 4 -4 4 -10z m-675 -601 c59 -55 82 -106 90 -207 l6 -83 -33 17 c-18 9
-51 29 -73 44 -62 42 -162 90 -189 90 -25 0 -41 24 -29 43 37 63 87 118 116
126 54 16 66 12 112 -30z m-54 -260 c30 -16 16 -24 -45 -27 -59 -2 -77 13 -28
24 15 3 32 7 37 9 6 2 11 4 13 4 2 1 12 -4 23 -10z"/>
<path d="M1840 5430 c-23 -23 -26 -42 -6 -34 19 7 50 54 36 54 -5 0 -19 -9
-30 -20z"/>
<path d="M1720 5059 c0 -5 5 -7 10 -4 6 3 10 8 10 11 0 2 -4 4 -10 4 -5 0 -10
-5 -10 -11z"/>
<path d="M1745 5040 c-3 -5 -1 -10 4 -10 6 0 11 5 11 10 0 6 -2 10 -4 10 -3 0
-8 -4 -11 -10z"/>
<path d="M1678 4989 c-30 -17 -180 -169 -176 -179 2 -5 47 34 101 87 53 53 96
97 95 99 -2 1 -11 -2 -20 -7z"/>
<path d="M1315 4910 c-16 -16 -25 -30 -19 -30 10 1 64 46 64 55 0 13 -18 3
-45 -25z"/>
<path d="M1472 4898 c-24 -15 -31 -25 -27 -39 4 -11 -5 -37 -20 -63 -25 -43
-25 -45 -6 -51 17 -5 18 -10 10 -38 -15 -52 -12 -79 9 -75 13 2 19 17 23 58 4
30 10 63 14 73 5 13 3 16 -8 11 -30 -11 -27 17 8 72 20 31 35 60 33 65 -2 4
-18 -1 -36 -13z"/>
<path d="M1405 4849 c-11 -17 1 -21 15 -4 8 9 8 15 2 15 -6 0 -14 -5 -17 -11z"/>
<path d="M1631 4737 c-12 -20 -21 -45 -19 -54 3 -13 10 -6 27 25 28 55 22 78
-8 29z"/>
<path d="M4262 3038 c4 -11 44 -37 118 -77 35 -18 80 -34 133 -45 33 -8 36
-31 5 -40 -74 -19 -221 4 -315 50 -40 20 -77 34 -84 32 -20 -7 108 -68 178
-85 86 -21 367 -29 360 -10 -2 7 -13 13 -25 15 -11 2 -22 10 -24 19 -2 11 -28
22 -83 35 -44 10 -96 29 -115 42 -39 25 -135 76 -146 76 -3 0 -4 -5 -2 -12z"/>
<path d="M4040 2842 c0 -5 12 -12 28 -15 15 -3 37 -8 50 -12 13 -4 22 -3 22 3
0 6 -15 13 -32 17 -18 4 -41 9 -50 11 -10 3 -18 1 -18 -4z"/>
<path d="M4178 2803 c7 -3 16 -2 19 1 4 3 -2 6 -13 5 -11 0 -14 -3 -6 -6z"/>
<path d="M4265 2790 c27 -12 43 -12 25 0 -8 5 -22 9 -30 9 -10 0 -8 -3 5 -9z"/>
<path d="M3657 6234 c-3 -3 -14 -51 -24 -106 -15 -82 -22 -104 -41 -117 -63
-43 -75 -58 -82 -102 -4 -24 -10 -55 -14 -69 -6 -21 1 -36 36 -80 24 -30 46
-57 51 -58 17 -8 99 -125 132 -188 47 -90 44 -108 -16 -112 -34 -2 -68 6 -135
33 -71 29 -97 35 -131 31 -55 -7 -91 7 -99 39 -9 36 2 70 36 109 61 69 27 78
-37 10 -84 -91 -42 -170 97 -184 61 -6 57 3 44 -100 -4 -33 -1 -50 11 -65 15
-19 16 -17 10 32 -6 44 -3 56 16 82 25 34 48 34 128 0 24 -11 56 -19 72 -19
34 0 69 31 69 60 0 26 -47 120 -60 120 -6 0 -10 7 -10 16 0 9 -40 64 -89 123
-81 97 -88 109 -87 146 5 107 3 103 56 141 28 20 52 46 54 57 2 12 11 56 20
97 9 41 16 83 16 93 0 17 -11 23 -23 11z"/>
<path d="M3475 6203 c-11 -55 -46 -187 -50 -191 -3 -3 -11 0 -18 6 -9 8 -17 8
-23 2 -14 -14 -134 48 -188 98 -63 58 -153 74 -316 57 -124 -14 -240 -41 -240
-57 0 -14 86 -5 160 17 110 32 352 -2 379 -54 5 -9 61 -36 126 -60 99 -37 119
-41 130 -30 8 8 24 52 36 99 30 121 33 140 20 140 -6 0 -13 -12 -16 -27z"/>
<path d="M9465 6190 c-21 -22 -44 -40 -51 -40 -13 0 -40 -57 -31 -67 3 -3 40
29 82 71 55 54 71 76 58 76 -10 0 -37 -18 -58 -40z"/>
<path d="M9490 6085 c-36 -37 -35 -62 1 -29 23 21 43 53 37 60 -3 2 -20 -12
-38 -31z"/>
<path d="M1996 6054 c-15 -14 -25 -28 -22 -31 4 -4 19 5 33 20 35 34 27 43
-11 11z"/>
<path d="M3086 6035 c-54 -19 -115 -80 -98 -97 10 -10 17 -7 35 14 32 38 58
48 127 48 66 0 97 -14 125 -56 13 -20 14 -28 4 -40 -15 -18 -70 -18 -95 1 -27
20 -61 18 -95 -6 -47 -33 -37 -43 39 -35 37 4 86 8 110 10 91 6 93 52 4 130
-58 51 -86 56 -156 31z"/>
<path d="M9420 6013 c-27 -11 -120 -95 -114 -104 6 -10 134 88 134 102 0 5 -1
9 -2 8 -2 0 -10 -3 -18 -6z"/>
<path d="M9080 5933 c-50 -33 -80 -67 -75 -84 4 -12 0 -16 -11 -15 -31 2 -25
-21 9 -38 30 -14 39 -14 78 -2 24 8 60 17 80 20 40 7 67 30 49 41 -6 3 -25 -3
-44 -14 -42 -26 -58 -26 -81 -1 -20 22 -35 18 -35 -11 0 -11 -4 -17 -10 -14
-29 18 15 85 56 85 29 0 46 20 33 37 -15 17 -19 16 -49 -4z"/>
<path d="M898 5887 c-16 -6 -28 -15 -28 -20 0 -5 7 -6 16 -3 9 3 28 6 44 6 16
0 30 7 34 15 6 18 -24 19 -66 2z"/>
<path d="M2290 5739 c0 -5 5 -7 10 -4 6 3 10 8 10 11 0 2 -4 4 -10 4 -5 0 -10
-5 -10 -11z"/>
<path d="M9248 5599 c-45 -23 -51 -42 -9 -28 28 10 73 49 55 49 -5 -1 -26 -10
-46 -21z"/>
<path d="M6180 5542 c0 -26 46 -86 119 -156 33 -32 61 -62 61 -67 0 -5 9 -9
20 -9 35 0 19 32 -51 97 -94 88 -90 118 13 84 107 -36 151 -68 228 -166 39
-49 83 -109 98 -132 15 -23 32 -43 38 -43 6 0 23 -26 36 -57 14 -32 47 -85 74
-117 47 -59 48 -60 51 -140 6 -149 -17 -216 -71 -202 -55 14 -84 55 -125 176
-37 111 -42 118 -112 192 -58 61 -78 76 -94 71 -17 -5 -18 -4 -7 10 15 18 5
45 -29 82 -23 26 -37 85 -20 85 24 0 88 -40 143 -89 52 -48 88 -64 88 -41 0
15 -110 98 -165 124 -27 13 -66 27 -87 31 -74 14 -69 -49 13 -164 21 -30 39
-57 39 -61 0 -3 -73 -4 -162 -2 -165 4 -208 13 -208 46 0 20 128 39 213 31 55
-5 69 -4 61 5 -27 28 -225 20 -386 -16 -22 -5 -28 -3 -28 10 0 34 123 66 253
66 38 0 67 4 67 10 0 13 -108 13 -163 0 -23 -5 -77 -11 -119 -12 -68 -3 -78
-1 -78 14 0 18 36 32 110 43 83 13 80 27 -4 20 -84 -6 -101 -13 -153 -54 -45
-35 -42 -51 7 -51 49 0 53 -19 7 -40 -57 -26 -42 -45 38 -46 45 0 84 -7 110
-19 31 -14 79 -20 215 -26 222 -9 259 -18 305 -72 27 -31 35 -49 35 -80 0 -31
4 -40 20 -44 13 -4 32 -29 51 -69 39 -80 98 -135 170 -157 15 -5 15 -9 0 -54
-22 -65 -27 -70 -61 -78 -37 -8 -59 -42 -34 -52 9 -3 28 -5 43 -5 119 6 183 2
231 -12 30 -10 101 -21 158 -25 56 -5 108 -14 116 -20 11 -9 49 -12 131 -10
33 0 134 -20 192 -40 47 -16 56 -16 69 -4 20 20 18 24 -10 17 -14 -3 -42 2
-68 14 -24 10 -65 22 -91 26 -74 11 -61 24 48 49 44 10 -126 6 -177 -4 -48
-10 -65 -9 -113 6 -31 10 -59 24 -62 31 -2 6 8 45 23 86 21 54 28 93 29 148 0
41 4 81 9 88 9 15 220 7 271 -10 17 -5 82 -14 146 -18 64 -5 120 -10 125 -11
5 -1 74 -1 153 0 230 2 158 22 -125 35 -33 2 -76 8 -95 14 -19 6 -45 11 -59
10 -14 0 -74 12 -135 26 -60 15 -146 31 -190 36 -44 5 -91 12 -104 16 -16 5
-22 3 -18 -3 4 -6 19 -13 34 -16 16 -3 37 -13 48 -21 19 -15 18 -15 -21 -16
-32 0 -51 8 -88 36 l-46 37 -40 -18 c-49 -22 -51 -35 -5 -35 19 0 35 -4 35
-10 0 -5 -5 -10 -11 -10 -5 0 -7 -4 -4 -10 3 -5 21 -9 38 -7 30 2 32 0 36 -33
4 -46 -28 -258 -45 -291 -9 -18 -10 -29 -3 -36 8 -8 7 -13 0 -17 -6 -4 -11 -1
-11 7 0 11 -32 15 -157 20 -86 4 -158 9 -160 11 -2 2 7 26 20 53 24 47 79 214
92 281 5 23 15 36 32 43 24 9 24 10 -49 89 -45 50 -91 114 -123 173 -102 189
-292 389 -393 413 -15 4 -38 12 -52 19 -76 38 -150 46 -150 17z"/>
<path d="M4912 5400 c-26 -24 -41 -30 -78 -30 -26 0 -82 -10 -126 -22 -68 -18
-84 -20 -113 -9 -44 15 -76 7 -156 -41 -71 -42 -87 -68 -63 -102 21 -30 17
-63 -9 -81 -13 -8 -76 -23 -141 -32 -117 -16 -117 -16 -146 5 -16 12 -34 22
-40 22 -6 0 -25 8 -43 17 -26 14 -70 18 -242 23 -202 5 -210 6 -209 25 1 11 3
26 5 34 2 7 -1 15 -7 18 -7 2 -15 -8 -18 -22 -8 -33 -41 -45 -123 -45 -47 0
-72 -5 -91 -18 -15 -10 -35 -22 -44 -25 -10 -4 -22 -25 -29 -52 -6 -25 -15
-48 -20 -51 -5 -3 -9 -23 -9 -44 0 -32 6 -43 33 -64 19 -15 39 -26 46 -26 24
0 71 -44 71 -66 0 -23 -19 -48 -42 -57 -10 -4 -9 -8 2 -16 20 -14 60 29 60 65
0 34 18 38 76 18 99 -34 167 -43 260 -34 102 10 160 25 189 49 11 10 58 39
105 65 47 26 95 59 108 73 29 32 70 42 212 49 l115 6 34 -35 c32 -33 33 -37
21 -71 -6 -20 -9 -49 -5 -65 5 -25 1 -33 -32 -57 -21 -16 -57 -45 -79 -65 -54
-48 -86 -64 -159 -79 -63 -12 -327 -135 -380 -177 -11 -9 -107 -72 -165 -109
-19 -12 -47 -28 -61 -35 -65 -34 -169 -110 -164 -119 4 -6 9 -9 13 -7 73 41
361 217 399 245 99 70 275 153 384 180 97 25 124 21 152 -22 10 -14 24 -26 32
-26 13 0 65 -30 110 -64 20 -15 20 -16 -10 -41 -16 -14 -46 -39 -65 -55 -47
-40 -106 -83 -220 -159 -52 -35 -104 -72 -115 -81 -23 -20 -79 -55 -113 -70
-13 -5 -38 -21 -55 -34 -18 -14 -60 -38 -94 -55 -65 -32 -95 -59 -52 -46 55
17 206 102 327 184 45 31 102 67 126 81 23 14 94 65 157 114 63 49 120 94 126
99 7 5 47 21 90 36 72 24 81 31 134 94 61 73 89 136 89 200 0 29 9 52 34 86
45 62 63 100 76 156 13 57 53 128 87 155 14 11 41 22 62 25 20 3 61 10 91 16
30 6 116 16 190 24 117 12 139 12 164 -1 16 -8 38 -14 49 -14 30 0 77 49 77
80 0 74 -145 69 -435 -15 -78 -22 -106 -27 -160 -29 -47 -1 -50 0 -48 24 2 39
-17 104 -35 118 -28 21 -74 14 -110 -18z m86 -33 l32 -33 -10 -72 c-15 -105
-33 -142 -88 -178 -26 -17 -62 -36 -79 -42 -29 -10 -33 -9 -33 6 0 9 11 27 24
40 28 26 66 130 66 180 0 42 31 132 45 132 6 0 26 -15 43 -33z m-107 -39 c13
-20 -2 -110 -26 -163 l-23 -50 5 98 c5 71 3 97 -6 97 -7 0 -11 -13 -10 -32 2
-58 -18 -162 -44 -219 -29 -67 -45 -79 -64 -53 -11 14 -13 46 -11 126 2 59 -1
109 -6 110 -4 2 -24 -45 -43 -105 -19 -59 -38 -105 -42 -102 -5 2 -11 19 -15
36 -3 17 -18 63 -33 101 -27 69 -28 70 -39 42 -8 -18 -8 -39 -2 -61 5 -18 8
-57 6 -86 -3 -44 -6 -52 -23 -52 -13 0 -21 8 -23 20 -2 12 -14 34 -27 49 -25
29 -40 70 -51 137 -6 34 -4 37 42 66 67 41 102 48 125 27 20 -18 49 -16 139 9
102 28 156 30 171 5z m734 12 c21 -8 26 -16 23 -38 -2 -21 -7 -26 -23 -23 -11
2 -72 7 -135 10 -94 5 -111 8 -95 18 17 10 82 24 165 37 14 2 28 4 32 5 4 0
19 -4 33 -9z m-2215 -209 c0 -11 -47 -31 -71 -31 -31 0 -17 23 22 36 34 12 49
10 49 -5z m490 -22 c76 -12 170 -55 170 -78 -1 -64 -48 -90 -218 -121 -209
-38 -442 -20 -554 43 -104 58 11 140 220 156 50 4 95 10 98 13 7 8 207 -1 284
-13z m1040 -73 c0 -2 -12 -30 -26 -62 -34 -74 -91 -152 -126 -170 -49 -26
-219 -7 -254 28 -22 21 -20 89 3 128 21 36 28 37 44 8 18 -35 29 -39 89 -32
43 5 63 14 92 40 21 18 50 36 65 39 16 4 35 10 43 15 15 9 70 14 70 6z m-262
-48 c-4 -29 -38 -38 -38 -10 0 22 8 32 27 32 9 0 13 -8 11 -22z m-763 -98 c3
-6 -2 -13 -12 -16 -10 -3 -27 -10 -38 -14 -33 -14 -172 -33 -184 -26 -18 12
-12 26 11 26 25 0 128 18 173 30 42 11 43 11 50 0z m-447 -32 c-6 -18 -28 -21
-28 -4 0 9 7 16 16 16 9 0 14 -5 12 -12z m172 -8 c0 -5 -4 -10 -10 -10 -5 0
-10 5 -10 10 0 6 5 10 10 10 6 0 10 -4 10 -10z m960 -74 c41 -12 185 -16 220
-5 21 6 15 -24 -17 -89 -38 -76 -93 -132 -129 -132 -47 1 -125 32 -208 84 -91
57 -94 72 -28 123 49 37 88 42 162 19z"/>
<path d="M6238 5313 c-10 -2 -18 -9 -18 -15 0 -10 46 -3 85 13 16 6 12 8 -15
7 -19 0 -43 -2 -52 -5z"/>
<path d="M1152 5260 c-12 -10 -28 -20 -35 -23 -6 -2 -9 -7 -6 -11 8 -8 79 32
79 45 0 14 -13 10 -38 -11z"/>
<path d="M2615 4440 c-7 -12 -2 -14 92 -34 84 -19 93 -19 93 -6 0 11 -121 50
-155 50 -13 0 -27 -5 -30 -10z"/>
<path d="M2840 4386 c0 -10 24 -23 68 -36 101 -31 235 -82 252 -95 27 -22 134
-73 165 -78 17 -3 37 -2 45 3 11 7 2 14 -35 30 -28 12 -102 46 -165 75 -102
47 -218 89 -302 109 -21 5 -28 3 -28 -8z"/>
<path d="M7695 4350 c-3 -5 1 -10 9 -10 9 0 16 5 16 10 0 6 -4 10 -9 10 -6 0
-13 -4 -16 -10z"/>
<path d="M6348 4003 c7 -3 16 -2 19 1 4 3 -2 6 -13 5 -11 0 -14 -3 -6 -6z"/>
<path d="M6255 3983 c-11 -3 -24 -9 -29 -14 -16 -15 26 -10 54 6 25 14 14 17
-25 8z"/>
<path d="M6165 3950 c-4 -6 5 -10 19 -10 14 0 26 5 26 10 0 6 -9 10 -19 10
-11 0 -23 -4 -26 -10z"/>
<path d="M6100 3931 c-23 -6 -115 -49 -150 -70 -8 -5 -37 -19 -65 -31 -27 -13
-77 -41 -109 -62 -33 -21 -66 -38 -73 -38 -19 0 -28 -47 -12 -66 11 -14 27
-16 86 -11 39 3 80 10 90 17 14 8 1 9 -54 4 -48 -4 -73 -2 -73 4 0 30 188 156
321 214 38 17 69 35 69 39 0 5 -1 8 -2 8 -2 -1 -14 -4 -28 -8z"/>
<path d="M6200 3800 c-13 -8 -12 -10 3 -10 9 0 17 5 17 10 0 12 -1 12 -20 0z"/>
<path d="M6123 3778 c-23 -11 -31 -28 -14 -28 5 0 9 -35 8 -77 0 -43 5 -95 12
-116 7 -22 10 -54 6 -76 -3 -22 -2 -47 3 -57 5 -11 14 -32 19 -49 5 -19 18
-33 35 -39 31 -11 48 -2 30 16 -19 19 -14 42 23 93 19 27 37 61 40 77 4 15 11
30 16 33 5 4 9 19 9 34 0 16 7 48 15 71 17 47 20 90 6 90 -12 0 -50 -90 -60
-143 -21 -103 -73 -163 -87 -99 -3 15 -10 44 -16 66 -26 106 -28 145 -7 181
20 33 20 35 2 34 -10 0 -28 -5 -40 -11z"/>
<path d="M5962 3713 c-40 -14 -71 -28 -68 -31 9 -8 134 29 147 44 15 18 8 17
-79 -13z"/>
<path d="M3240 3115 c-7 -8 -19 -15 -26 -15 -20 0 -17 -23 6 -43 22 -19 23
-18 44 51 8 25 -5 29 -24 7z"/>
<path d="M11772 324 c-18 -7 -32 -17 -32 -21 0 -4 60 -9 133 -10 72 0 166 -6
208 -12 42 -6 170 -13 285 -16 261 -7 287 -11 322 -40 20 -17 32 -21 43 -14 8
5 26 6 42 3 27 -6 27 -5 27 51 l0 56 -72 -7 c-40 -4 -84 -11 -96 -15 -13 -5
-29 -6 -35 -2 -7 4 -75 8 -152 9 -77 1 -153 5 -168 9 -43 11 -107 16 -298 19
-130 3 -184 0 -207 -10z m1013 -64 c-3 -5 -11 -10 -16 -10 -6 0 -7 5 -4 10 3
6 11 10 16 10 6 0 7 -4 4 -10z"/>
<path d="M2885 310 c-7 -12 22 -12 50 0 17 7 15 9 -12 9 -17 1 -35 -3 -38 -9z"/>
<path d="M8530 220 c0 -5 5 -10 10 -10 6 0 10 5 10 10 0 6 -4 10 -10 10 -5 0
-10 -4 -10 -10z"/>
<path d="M8842 146 c-71 -7 -127 -18 -135 -25 -10 -10 -1 -12 43 -7 78 8 293
20 304 17 19 -4 86 11 86 20 0 12 -145 9 -298 -5z"/>
<path d="M12604 145 c-18 -14 -18 -14 9 -15 17 0 27 5 27 15 0 19 -11 19 -36
0z"/>
<path d="M3532 80 c-51 -8 -70 -15 -61 -24 2 -2 37 -2 77 1 52 4 72 10 72 19
0 15 -8 15 -88 4z"/>
<path d="M3347 49 c8 -8 16 -8 30 0 16 9 14 10 -11 11 -22 0 -27 -3 -19 -11z"/>
<path d="M3198 38 c9 -9 15 -9 24 0 9 9 7 12 -12 12 -19 0 -21 -3 -12 -12z"/>
<path d="M3090 30 c-12 -8 -10 -10 10 -9 14 0 34 4 45 9 17 7 16 9 -10 9 -16
0 -37 -4 -45 -9z"/>
<path d="M2957 20 c-20 -4 -41 -10 -45 -15 -11 -12 88 1 101 14 13 13 4 13
-56 1z"/>
</g>
</svg>
