<?xml version="1.0" standalone="no"?>
<!DOCTYPE svg PUBLIC "-//W3C//DTD SVG 20010904//EN"
 "http://www.w3.org/TR/2001/REC-SVG-20010904/DTD/svg10.dtd">
<svg version="1.0" xmlns="http://www.w3.org/2000/svg"
 width="1280.000000pt" height="684.000000pt" viewBox="0 0 1280.000000 684.000000"
 preserveAspectRatio="xMidYMid meet">
<metadata>
Created by potrace 1.15, written by Peter Selinger 2001-2017
</metadata>
<g transform="translate(0.000000,684.000000) scale(0.100000,-0.100000)"
fill="#000000" stroke="none">
<path d="M6480 6831 c-19 -4 -73 -27 -120 -50 -47 -24 -92 -47 -101 -52 -190
-93 -319 -162 -330 -175 -8 -10 -45 -37 -84 -62 -38 -24 -111 -83 -161 -131
-50 -47 -97 -91 -105 -97 -15 -12 -106 -119 -152 -178 -27 -35 -59 -47 -72
-26 -3 6 -20 17 -36 26 -74 38 -179 -59 -179 -165 0 -54 -54 -132 -156 -228
-145 -135 -134 -130 -196 -99 -48 24 -62 26 -180 26 -141 0 -154 -4 -290 -87
-32 -20 -69 -35 -82 -35 -34 0 -118 75 -133 118 -12 35 -2 138 28 284 28 134
12 274 -55 485 -35 109 -35 109 -16 130 34 36 26 61 -35 100 -30 19 -55 36
-55 38 0 2 25 21 55 41 36 24 55 43 55 56 0 24 -31 57 -65 70 -28 11 -130 -3
-192 -26 -40 -15 -46 -14 -95 4 -122 45 -410 36 -638 -20 -133 -33 -207 -63
-307 -126 l-62 -39 -73 25 c-81 27 -170 32 -208 12 -45 -23 -71 -52 -64 -73 3
-10 -2 -39 -11 -64 -23 -61 -14 -68 88 -68 l82 0 -2 -35 c-3 -37 -26 -134 -50
-213 -13 -43 -13 -57 0 -130 9 -45 19 -109 22 -142 7 -58 18 -82 141 -314 16
-29 24 -61 24 -91 0 -38 5 -51 22 -62 24 -16 24 -20 -31 -218 -16 -58 -39
-150 -51 -205 -12 -55 -31 -119 -41 -143 -16 -37 -22 -43 -41 -37 -51 14 -165
60 -190 77 -14 10 -66 30 -113 43 -48 14 -96 30 -106 35 -10 6 -27 10 -38 10
-12 0 -60 35 -108 78 -106 94 -206 147 -258 138 -72 -14 -83 -80 -34 -203 16
-43 32 -96 34 -118 2 -22 8 -69 14 -105 6 -36 11 -90 11 -120 0 -30 9 -84 20
-119 14 -42 24 -117 30 -225 6 -88 15 -181 20 -206 5 -25 9 -66 10 -91 0 -25
9 -72 19 -105 11 -32 31 -102 46 -154 14 -52 42 -127 61 -167 18 -39 34 -82
34 -95 0 -35 29 -129 50 -158 9 -14 20 -42 23 -63 3 -21 13 -52 21 -69 9 -17
16 -55 16 -83 l0 -53 -53 -21 c-108 -44 -159 -53 -334 -58 -161 -5 -173 -7
-173 -24 0 -22 -43 -51 -110 -75 -25 -9 -75 -28 -111 -41 -54 -20 -78 -24
-140 -21 -41 3 -99 12 -129 22 -30 9 -84 24 -120 32 -107 26 -105 25 -80 57
17 22 19 27 6 27 -15 0 -93 -28 -201 -72 -141 -58 -365 -128 -425 -133 -36 -3
-90 -10 -120 -16 -30 -6 -65 -13 -77 -15 -19 -4 -23 -11 -23 -39 0 -33 1 -34
33 -28 161 29 278 56 353 81 49 16 105 33 124 37 19 4 90 32 157 62 l123 55
35 -31 c20 -17 42 -31 50 -31 25 0 65 -23 65 -37 0 -8 -11 -13 -29 -13 -16 0
-34 -7 -41 -15 -11 -13 -3 -15 66 -15 44 1 99 5 124 10 47 10 142 -1 390 -42
151 -26 234 -29 450 -18 189 10 240 21 240 51 0 18 -4 20 -47 13 -27 -4 -59
-11 -73 -17 -46 -18 -355 -26 -459 -11 -104 15 -222 40 -261 56 -32 13 -14 23
56 31 28 3 77 18 110 33 109 50 204 73 324 79 125 5 243 20 268 34 12 6 24 22
28 36 4 14 17 28 36 34 26 9 33 7 54 -14 25 -25 74 -119 74 -142 0 -40 81
-157 165 -238 17 -16 37 -43 44 -60 7 -16 36 -50 64 -74 184 -156 286 -282
204 -252 -12 5 -71 11 -132 15 -107 7 -184 23 -235 51 -44 23 -133 36 -149 20
-11 -11 -10 -15 10 -28 13 -8 49 -20 79 -27 64 -15 93 -28 85 -39 -12 -21
-356 -38 -430 -21 -56 12 -206 2 -212 -15 -8 -24 129 -35 321 -26 104 5 195 7
202 4 7 -2 73 3 148 11 168 20 285 20 356 1 30 -8 69 -15 87 -15 37 0 62 -30
40 -48 -27 -22 -97 -36 -177 -37 -212 -3 -364 -16 -415 -38 -43 -18 -75 -21
-229 -25 -171 -4 -180 -3 -219 18 -22 13 -47 24 -56 24 -9 1 -34 7 -56 13
-167 48 -390 67 -446 37 -46 -23 -30 -38 47 -45 75 -7 154 -28 154 -40 0 -14
-91 -49 -215 -84 -87 -24 -153 -35 -240 -40 -66 -5 -136 -9 -155 -11 -117 -8
-534 -19 -697 -18 -153 0 -193 -3 -193 -13 0 -8 11 -13 28 -13 39 0 142 -33
138 -45 -1 -5 -12 -9 -24 -7 -13 2 -27 -6 -38 -22 -11 -18 -25 -26 -44 -26
-42 0 -60 -10 -60 -32 0 -13 4 -17 12 -12 7 5 36 11 64 15 29 4 91 24 139 44
76 33 93 37 138 31 53 -6 328 15 447 36 36 6 97 10 135 9 42 -1 87 4 114 13
78 28 145 15 109 -20 -22 -22 -115 -44 -189 -44 -45 0 -70 -5 -78 -14 -8 -10
-9 -16 -1 -21 14 -9 3 -24 -26 -35 -38 -15 -28 -30 19 -30 52 0 112 18 242 72
55 23 115 44 134 47 44 8 54 31 12 31 -29 0 -49 14 -33 24 4 3 51 1 103 -4 87
-8 216 0 259 18 18 7 -115 25 -188 25 -67 0 -55 12 37 37 40 12 90 29 112 40
21 11 56 20 77 20 50 0 144 -30 139 -44 -4 -14 -63 -43 -100 -51 -15 -3 -27
-9 -27 -15 0 -16 39 -21 62 -9 40 22 189 49 323 59 71 5 143 14 160 19 41 11
204 9 206 -4 4 -19 -79 -56 -156 -70 -42 -8 -86 -20 -98 -26 -11 -7 -48 -14
-81 -16 -34 -2 -90 -10 -126 -17 -56 -12 -91 -12 -225 0 -185 15 -361 18 -369
5 -8 -13 14 -19 112 -31 48 -6 96 -14 107 -17 11 -4 102 -7 202 -7 100 -1 185
-5 189 -9 12 -11 -16 -27 -48 -27 -15 0 -30 -5 -34 -11 -4 -7 -23 -9 -49 -6
-26 4 -46 2 -53 -5 -7 -7 -36 -15 -64 -19 -29 -4 -87 -14 -128 -23 -118 -26
-450 -60 -481 -48 -16 5 -49 6 -85 0 -32 -4 -119 -6 -191 -2 -88 4 -133 3
-133 -4 0 -25 63 -31 383 -36 186 -3 263 -8 273 -17 24 -19 4 -26 -157 -50
-201 -30 -483 -31 -653 0 -66 12 -122 19 -124 16 -11 -11 15 -22 96 -44 133
-35 406 -40 677 -11 116 12 213 24 217 26 3 2 37 10 75 18 37 8 102 24 143 35
41 11 83 21 94 21 10 0 47 14 82 31 67 33 77 33 154 3 36 -15 73 -18 180 -18
177 0 269 22 446 110 141 70 170 75 259 50 87 -25 179 -62 220 -88 22 -14 57
-29 78 -32 42 -8 56 -28 36 -52 -12 -15 -31 -15 -103 -2 -10 1 -21 -2 -23 -8
-5 -16 74 -65 100 -62 36 5 35 -16 -2 -28 -36 -12 -64 -41 -54 -57 3 -5 27 -7
56 -4 33 4 82 0 146 -14 83 -18 102 -20 147 -9 58 14 74 9 74 -24 0 -28 -15
-42 -55 -49 -16 -3 -55 -11 -84 -17 -63 -13 -135 -10 -203 10 -41 12 -53 12
-85 0 -84 -30 -571 -5 -665 34 -21 9 -57 16 -82 16 -49 0 -71 16 -34 25 13 2
88 9 167 15 79 6 146 12 150 14 3 2 96 0 206 -4 179 -8 201 -7 213 8 6 9 12
19 12 22 0 13 -204 17 -360 8 -789 -45 -750 -44 -849 -15 -111 33 -142 24 -79
-23 l32 -23 -45 -14 c-24 -8 -64 -15 -89 -16 -33 -2 -45 -6 -45 -17 0 -17 63
-17 211 1 116 13 349 -9 463 -45 25 -8 58 -17 73 -20 21 -5 27 -11 25 -28 -6
-33 -113 -57 -272 -58 -150 -2 -217 -10 -223 -27 -3 -10 29 -13 135 -15 231
-2 321 5 428 34 22 6 121 14 220 19 99 5 230 13 290 18 268 25 342 30 373 24
39 -6 42 -21 5 -28 -16 -3 -46 -11 -68 -16 -46 -13 -294 -31 -307 -23 -5 3
-16 0 -24 -7 -23 -19 1 -29 67 -29 60 0 91 -18 67 -38 -15 -12 -282 -17 -348
-7 -32 5 -57 3 -82 -8 -31 -13 -57 -14 -155 -6 -65 5 -147 13 -183 19 -36 6
-135 13 -221 16 -129 5 -160 4 -180 -9 -31 -19 -165 -31 -359 -32 -95 0 -156
-4 -158 -10 -3 -11 84 -20 328 -33 98 -6 168 -15 190 -24 41 -18 216 -33 224
-19 9 13 -41 29 -114 35 -36 2 -73 8 -83 11 -18 8 -23 30 -7 40 5 3 78 6 163
6 121 1 165 -3 208 -17 30 -9 60 -19 68 -21 37 -10 -16 -26 -105 -32 -58 -3
-99 -11 -101 -17 -2 -6 2 -14 10 -17 8 -3 121 -8 251 -12 202 -7 243 -11 274
-26 20 -11 46 -19 58 -19 13 0 34 -4 48 -10 14 -5 63 -12 108 -14 46 -3 115
-11 153 -17 39 -6 84 -12 100 -12 47 0 237 12 265 18 24 5 60 -9 49 -19 -11
-11 -266 -36 -464 -46 -115 -6 -300 -15 -410 -21 -110 -7 -321 -13 -468 -14
-233 -2 -271 -4 -285 -19 -31 -31 -1 -41 136 -44 70 -1 133 -5 141 -7 8 -3
101 2 208 11 143 12 207 14 245 6 29 -5 61 -6 72 -2 43 16 145 30 222 30 100
0 331 25 415 44 77 17 276 42 459 56 74 6 205 18 290 27 85 9 202 19 260 23
58 4 106 8 108 9 1 0 0 12 -4 25 -5 22 0 28 45 51 29 14 49 30 46 34 -6 10
-42 3 -135 -27 -102 -33 -254 -72 -278 -72 -13 0 -39 7 -59 15 -34 14 -35 16
-19 34 10 11 38 21 68 25 64 9 88 21 88 46 0 23 -50 34 -225 50 -79 8 -126 17
-137 27 -13 11 -29 13 -72 8 -52 -7 -56 -6 -56 13 0 19 -4 21 -47 16 -34 -4
-54 -1 -68 10 -36 27 -2 43 115 56 58 6 119 13 135 16 17 2 36 0 44 -5 23 -15
-2 -37 -56 -50 -25 -7 -44 -13 -42 -14 2 -2 76 2 164 7 123 9 167 15 188 28
33 23 44 23 51 0 7 -22 71 -42 135 -42 27 0 78 -9 113 -20 82 -26 245 -38 279
-20 13 8 64 19 113 27 49 7 109 22 133 34 49 24 55 23 213 -22 138 -39 190
-63 190 -88 0 -21 -15 -21 -205 7 -118 17 -232 19 -247 4 -6 -6 15 -12 53 -16
35 -4 72 -12 83 -18 22 -12 243 -34 476 -48 154 -9 278 -33 343 -67 23 -12 27
-17 16 -24 -8 -5 -26 -6 -41 -3 -21 4 -28 2 -28 -10 0 -9 8 -16 19 -16 12 0
18 -7 17 -17 -1 -15 8 -17 74 -15 41 2 93 8 115 14 28 7 76 7 165 -1 69 -6
148 -12 176 -14 32 -2 63 -12 81 -25 17 -12 68 -29 114 -38 46 -10 104 -26
129 -37 39 -17 42 -20 25 -27 -29 -12 -95 -12 -95 0 0 6 -11 16 -25 22 -22 10
-29 8 -50 -12 -23 -22 -28 -22 -137 -15 -62 4 -216 7 -343 7 -239 -1 -358 -14
-517 -54 -87 -22 -105 -43 -30 -34 26 3 91 8 145 12 53 3 100 10 103 15 3 5
87 6 187 3 100 -3 398 -6 662 -8 398 -3 490 -6 540 -19 33 -9 93 -16 134 -17
50 0 94 -7 135 -22 77 -27 81 -30 59 -55 -25 -28 -231 -49 -458 -46 -376 4
-709 12 -724 18 -9 4 -74 9 -146 12 -71 2 -136 8 -145 13 -8 5 -52 6 -97 3
-82 -5 -106 4 -78 27 22 18 18 28 -14 35 -18 4 -41 1 -58 -8 -15 -8 -80 -27
-143 -41 -108 -26 -128 -27 -320 -25 -113 1 -254 2 -315 3 -115 1 -168 -9
-263 -51 -29 -13 -65 -23 -81 -23 -16 0 -41 -10 -56 -22 -25 -20 -38 -21 -179
-20 -83 0 -176 2 -206 4 -30 1 -154 -3 -275 -10 -121 -7 -255 -15 -297 -17
-43 -2 -81 -6 -86 -9 -4 -2 -14 -1 -22 4 -11 7 -8 11 14 20 22 8 26 14 18 22
-9 9 -31 9 -89 -1 -43 -7 -86 -17 -96 -22 -43 -23 -261 -49 -470 -55 -193 -6
-217 -5 -212 8 4 10 26 18 65 22 59 7 95 28 87 50 -3 8 6 12 27 12 98 0 414
16 491 25 50 6 142 15 205 20 63 5 165 13 225 18 234 20 385 59 385 99 0 18
-3 19 -77 5 -64 -11 -394 -47 -545 -58 -20 -2 -67 -8 -105 -14 -37 -6 -154
-15 -259 -21 -106 -6 -227 -15 -270 -21 -44 -5 -121 -14 -172 -19 -51 -5 -97
-12 -102 -15 -17 -11 -11 -25 11 -25 12 0 19 -5 17 -12 -6 -16 -79 -29 -133
-25 l-40 3 47 14 c36 10 48 19 48 33 0 16 -5 18 -28 13 -15 -4 -56 -11 -92
-17 -36 -6 -99 -17 -140 -24 -41 -8 -112 -17 -158 -21 -68 -5 -87 -3 -108 11
-14 9 -31 14 -39 12 -7 -3 -32 -1 -55 5 -37 10 -41 13 -36 34 8 29 -4 30 -65
8 -55 -19 -121 -11 -187 22 -72 36 -126 27 -88 -15 22 -25 20 -33 -16 -68 -26
-24 -44 -32 -83 -36 -27 -2 -84 -11 -125 -20 -41 -9 -134 -19 -207 -23 -123
-6 -134 -5 -174 15 -40 21 -46 22 -192 11 -137 -9 -153 -12 -177 -34 -30 -28
-54 -34 -190 -46 -58 -5 -133 -14 -167 -19 -40 -7 -72 -7 -88 -1 -13 5 -54 7
-90 3 l-65 -6 0 -40 0 -40 258 5 c245 5 261 4 352 -18 113 -29 160 -30 203 -6
27 14 64 17 247 19 118 1 231 3 250 4 35 1 124 -12 215 -32 67 -15 112 -15
300 -1 165 13 319 35 368 54 31 12 70 56 61 69 -3 5 -16 9 -30 9 -21 0 -44 24
-33 34 3 2 86 -4 229 -17 19 -2 48 -4 64 -5 23 -2 27 -6 23 -22 -3 -11 0 -23
6 -27 13 -8 742 -27 922 -24 72 1 159 9 195 17 44 11 106 15 200 13 74 -2 150
1 168 5 24 6 33 4 38 -7 3 -10 26 -17 62 -21 61 -7 319 8 417 24 116 19 321
40 387 40 37 0 70 5 73 11 4 6 5 12 4 13 -13 11 -484 -27 -549 -44 -52 -13
-242 -8 -335 9 -73 13 -927 6 -995 -9 -65 -13 -233 -13 -228 1 6 18 77 41 153
50 135 15 211 28 310 52 97 23 101 23 125 6 22 -16 36 -17 135 -9 118 10 668
15 682 7 5 -3 69 1 141 8 128 14 206 33 322 80 118 49 124 49 378 38 245 -11
545 -4 616 15 25 7 46 7 57 1 10 -5 37 -9 60 -9 24 0 91 -5 149 -10 243 -24
335 -32 520 -46 107 -8 224 -16 260 -18 36 -1 119 -6 185 -10 74 -4 148 -3
195 4 41 7 122 15 180 19 125 10 162 19 214 54 21 15 53 29 72 33 33 6 53 4
164 -14 30 -6 93 -15 140 -21 47 -7 117 -16 155 -21 39 -6 129 -15 200 -20
221 -18 383 -49 369 -71 -6 -11 -111 -12 -117 -1 -2 4 -2 2 -1 -5 2 -6 -13
-14 -34 -17 -73 -10 -411 -9 -612 3 -225 13 -259 11 -364 -25 -169 -58 -253
-72 -476 -84 -118 -7 -251 -16 -294 -21 -43 -4 -83 -6 -88 -3 -21 13 -464 10
-538 -3 -90 -17 -229 -29 -490 -43 -208 -11 -237 -15 -400 -55 -58 -14 -148
-32 -201 -39 -104 -15 -224 -39 -303 -61 -28 -8 -52 -12 -55 -8 -4 3 0 8 7 11
8 2 28 17 45 32 18 15 55 35 82 46 28 10 64 26 80 35 35 20 118 45 295 90 129
32 183 55 161 69 -7 4 -29 3 -49 -1 -143 -32 -420 -82 -505 -90 -384 -37 -535
-46 -657 -37 -69 4 -138 13 -154 18 -37 13 -88 13 -66 1 25 -15 118 -30 290
-47 197 -20 320 -19 457 3 78 13 106 14 114 6 13 -13 9 -15 -91 -51 -266 -95
-329 -108 -610 -123 -230 -13 -217 -13 -325 6 -49 8 -105 13 -124 11 -19 -3
-40 -2 -45 3 -6 5 -26 12 -45 16 -26 5 -32 4 -29 -6 11 -34 266 -88 443 -94
110 -4 159 0 320 26 105 16 223 40 264 51 63 19 79 20 117 10 64 -17 120 -15
194 9 116 36 553 96 670 92 14 -1 79 5 145 13 214 24 515 38 725 34 271 -6
365 -5 615 9 217 12 286 23 495 80 164 46 178 49 250 56 39 4 83 2 110 -5 72
-18 172 -30 360 -41 257 -17 383 -2 537 62 27 11 53 11 170 -4 76 -10 199 -19
273 -21 274 -7 648 -26 750 -38 63 -8 236 -13 430 -13 295 0 335 2 435 22 180
36 641 32 738 -6 16 -6 46 -11 68 -11 22 0 49 -5 61 -11 26 -14 276 -40 443
-46 126 -4 218 3 415 32 52 8 132 19 178 26 l82 11 0 44 c0 48 -6 52 -52 28
-53 -27 -176 -43 -334 -44 -155 0 -214 6 -214 21 0 5 20 9 44 9 40 0 204 43
459 121 l97 30 0 40 c0 35 -3 40 -17 34 -10 -3 -58 -18 -108 -31 -173 -48
-261 -75 -372 -115 l-111 -40 -169 4 c-152 4 -193 9 -269 37 -20 8 -21 18 -28
192 -21 497 -32 644 -60 783 -8 39 -20 102 -27 140 -15 88 -29 115 -74 146
-68 46 -143 238 -210 540 -7 31 -20 79 -28 105 -30 94 -67 321 -67 410 0 34 7
98 15 141 8 43 15 92 15 108 -1 46 -34 111 -66 127 -18 8 -31 24 -36 43 -31
132 -26 123 -93 156 l-63 31 -58 -33 c-33 -18 -71 -41 -86 -51 -37 -26 -85
-101 -103 -164 -14 -48 -47 -86 -61 -71 -21 20 70 437 108 497 23 36 64 161
83 255 10 44 32 139 51 210 19 72 36 164 40 205 3 41 12 104 19 140 8 36 12
75 9 87 -3 12 2 72 11 135 21 132 20 251 -1 283 -9 14 -12 33 -8 52 3 18 1 33
-5 37 -6 4 -11 34 -11 66 0 32 -4 61 -8 64 -5 3 -14 63 -21 133 -7 70 -17 153
-22 183 -6 30 -14 93 -19 140 -5 47 -16 123 -25 170 -32 167 -22 524 17 624
27 70 44 321 26 391 -12 45 -16 50 -44 53 -52 5 -134 -34 -213 -100 -65 -55
-78 -72 -103 -133 -66 -160 -65 -153 -67 -400 -3 -334 8 -744 20 -766 10 -19
19 -112 39 -389 6 -80 15 -203 20 -275 10 -138 6 -193 -32 -385 -11 -58 -22
-118 -24 -135 -4 -49 -39 -164 -77 -258 -20 -48 -41 -113 -48 -145 -7 -31 -18
-69 -25 -83 -7 -14 -22 -63 -34 -109 -12 -46 -27 -95 -34 -109 -13 -23 -14
-24 -23 -5 -6 10 -14 42 -17 69 -4 28 -23 117 -42 198 -30 129 -42 164 -101
275 -36 70 -76 145 -87 167 -25 49 -159 227 -201 268 -26 26 -139 111 -272
207 -24 17 -54 35 -68 40 -31 12 -31 13 -49 118 -18 104 -63 187 -147 270 -34
33 -66 69 -73 80 -6 11 -19 33 -28 49 -9 16 -19 49 -23 73 -13 95 -29 151 -46
160 -19 11 -142 -24 -251 -71 -36 -16 -73 -26 -81 -23 -21 8 -37 56 -38 113
-2 79 -22 155 -42 159 -26 5 -113 -50 -298 -188 -89 -67 -170 -125 -178 -128
-16 -6 -128 -80 -211 -141 -79 -57 -124 -144 -226 -435 -13 -39 -36 -88 -51
-110 -14 -23 -29 -54 -33 -70 -3 -16 -11 -31 -17 -33 -6 -2 -45 38 -86 89 -41
51 -90 108 -109 126 l-34 32 -14 -25 c-13 -25 -11 -28 85 -125 55 -55 95 -100
90 -100 -6 0 -81 36 -169 80 -87 44 -162 80 -167 80 -14 0 -21 -41 -9 -55 6
-8 35 -21 63 -30 29 -9 99 -38 157 -64 58 -27 117 -53 133 -59 27 -12 38 -42
15 -42 -13 0 -268 87 -325 111 -37 15 -48 9 -38 -21 8 -25 30 -34 160 -66 194
-47 225 -62 225 -108 0 -23 -19 -20 -93 18 -82 41 -182 65 -200 47 -16 -16 -1
-24 88 -51 155 -47 249 -89 234 -105 -3 -2 -59 13 -125 34 -130 43 -167 51
-173 36 -7 -14 58 -55 88 -56 14 0 66 -15 116 -32 l89 -32 26 -65 c42 -109 49
-115 156 -134 43 -8 93 -18 109 -21 17 -3 44 -21 61 -40 40 -45 72 -57 131
-46 63 12 159 -17 208 -63 42 -40 43 -55 15 -211 -11 -60 -21 -130 -21 -155
-1 -105 13 -243 32 -312 11 -40 23 -94 26 -120 6 -60 8 -60 -174 -12 -128 34
-145 36 -236 31 -108 -7 -238 13 -269 40 -10 9 -23 32 -29 52 -7 20 -30 64
-52 99 -35 55 -47 66 -103 92 -35 16 -64 34 -64 40 0 5 14 35 31 65 27 47 30
62 25 99 -8 50 -21 63 -91 99 -70 35 -150 57 -207 57 -27 0 -64 6 -82 14 -44
18 -327 22 -506 6 -150 -13 -176 -23 -263 -102 -45 -40 -49 -48 -62 -121 -8
-43 -15 -92 -15 -108 0 -16 -2 -29 -5 -29 -7 0 -108 56 -153 83 -20 13 -136
68 -257 121 -121 53 -238 106 -260 116 -22 11 -79 37 -126 58 -47 22 -119 59
-160 84 -41 24 -108 56 -149 71 -97 33 -358 127 -387 138 l-22 8 19 43 c11 24
16 53 13 69 -3 18 3 40 23 70 15 24 30 46 34 49 4 3 31 34 60 70 94 117 137
238 185 525 13 82 64 207 167 415 93 188 98 203 105 365 l6 140 36 33 c48 43
44 39 99 107 65 79 404 395 447 416 19 9 51 31 72 48 47 39 62 39 95 1 14 -16
33 -30 42 -30 18 0 46 39 61 84 13 41 30 35 30 -12 0 -36 1 -37 42 -40 25 -2
51 3 65 12 13 8 63 22 112 31 52 9 98 23 109 33 29 25 55 91 55 139 1 60 -55
130 -132 166 -58 28 -75 30 -136 18z m139 -117 c56 -47 29 -103 -49 -102 -19
0 -79 -4 -133 -11 -54 -6 -103 -9 -108 -5 -9 5 -115 -31 -134 -46 -17 -14
-117 -51 -128 -47 -20 6 243 154 393 221 56 25 123 21 159 -10z m-2811 -180
c-5 -7 -24 -56 -42 -110 -18 -55 -45 -123 -60 -152 -29 -57 -38 -58 -83 -10
-26 27 -63 119 -63 154 0 18 -10 31 -37 47 l-38 22 41 5 c22 3 53 16 69 28 15
12 35 22 43 22 21 0 62 40 62 60 0 10 24 34 53 54 l52 37 6 -73 c3 -40 1 -78
-3 -84z m-439 21 c1 -2 0 -8 -3 -13 -7 -11 -116 8 -116 21 0 8 109 1 119 -8z
m-793 -10 c18 -14 17 -14 -13 -15 -39 0 -65 9 -57 21 8 14 48 11 70 -6z m874
-26 c0 -15 -4 -19 -16 -15 -9 3 -18 6 -20 6 -2 0 -4 7 -4 15 0 8 9 15 20 15
14 0 20 -7 20 -21z m-737 -21 c9 -11 17 -27 17 -35 0 -8 -22 -56 -49 -106 -27
-51 -59 -120 -72 -155 -18 -51 -24 -60 -32 -47 -14 25 0 109 37 218 28 86 31
100 19 117 -8 11 -11 25 -8 31 10 15 67 1 88 -23z m1254 -3 c12 -8 37 -41 55
-73 l33 -57 3 -190 c3 -151 0 -204 -13 -260 -9 -38 -19 -108 -21 -155 -3 -47
-12 -105 -19 -130 -7 -25 -16 -61 -19 -80 -3 -20 -19 -51 -35 -70 l-28 -34
-51 33 c-29 18 -52 38 -53 45 -3 85 -13 135 -34 170 -13 23 -36 72 -51 109
-25 63 -26 76 -21 170 6 120 22 184 88 354 65 168 106 210 166 168z m-662 -36
c99 -49 195 -125 211 -167 8 -20 21 -49 30 -64 8 -16 28 -66 45 -113 26 -75
29 -98 29 -202 0 -147 -20 -285 -50 -343 -12 -24 -49 -74 -81 -112 -32 -37
-66 -79 -74 -92 -42 -63 -184 -126 -220 -96 -8 6 -43 18 -78 25 -36 7 -84 23
-108 36 -69 35 -238 218 -283 307 -57 113 -80 384 -41 497 25 73 101 199 129
215 14 7 39 30 56 52 17 21 55 52 83 69 l52 30 120 -6 c107 -5 127 -9 180 -36z
m2713 3 c-18 -15 -45 -37 -59 -48 -14 -10 -127 -125 -251 -254 -243 -254 -299
-303 -323 -279 -25 25 13 86 106 169 46 41 140 128 209 195 209 201 265 242
328 244 21 1 20 -1 -10 -27z m4757 -239 c14 -14 16 -35 13 -142 -4 -160 -13
-175 -98 -184 -22 -2 -27 4 -42 48 -24 70 -25 251 -1 277 22 24 105 25 128 1z
m-5464 -333 c4 -36 13 -85 20 -110 7 -25 11 -49 9 -55 -2 -5 -4 -35 -5 -65 -3
-85 -15 -151 -31 -179 -14 -24 -14 -22 -9 39 9 95 -8 186 -45 238 -34 49 -35
56 -15 96 8 16 18 46 21 68 6 32 10 39 28 36 18 -3 22 -12 27 -68z m-1621
-133 c0 -7 9 -30 21 -52 15 -27 22 -59 23 -103 1 -57 -1 -65 -21 -72 -13 -6
-27 -4 -37 3 -14 11 -16 27 -10 125 4 61 11 112 16 112 4 0 8 -6 8 -13z m1508
-33 c14 -10 22 -25 22 -46 0 -34 -71 -118 -187 -221 -55 -49 -67 -56 -80 -45
-21 17 -63 85 -63 101 0 18 247 227 268 227 10 0 28 -7 40 -16z m216 -10 c3
-9 6 -37 5 -62 l-1 -47 -14 50 c-7 28 -14 56 -14 63 0 17 17 15 24 -4z m5415
-51 c13 -34 41 -205 41 -255 0 -30 -7 -42 -35 -66 -35 -28 -38 -29 -87 -17
-70 15 -85 46 -99 211 -12 141 -9 149 46 139 17 -2 37 0 45 5 8 5 29 10 46 10
25 0 34 -6 43 -27z m-5605 -171 c-4 -20 -8 -44 -9 -52 -2 -26 -24 -96 -50
-154 -25 -57 -113 -196 -124 -196 -20 1 -30 25 -46 111 -21 121 -20 123 109
246 123 117 137 122 120 45z m-1118 19 c21 -15 47 -37 57 -48 18 -20 17 -22
-36 -68 -30 -25 -129 -126 -220 -224 -159 -169 -313 -305 -412 -362 -117 -67
-212 -138 -279 -211 -41 -44 -79 -77 -84 -74 -5 3 -8 38 -6 78 4 64 1 79 -23
123 -14 28 -44 71 -66 98 -39 46 -41 47 -97 47 -31 0 -78 -7 -104 -16 -44 -15
-50 -21 -72 -73 -13 -31 -32 -72 -43 -91 -28 -52 -73 -352 -64 -420 2 -8 5
-82 7 -165 4 -119 2 -155 -10 -175 l-14 -25 2 27 c2 17 -6 36 -21 52 l-23 25
19 33 c16 27 20 53 21 136 1 101 -4 116 -28 87 -9 -11 -10 -38 -5 -101 6 -76
5 -85 -9 -82 -15 3 -17 30 -18 243 l-2 240 38 180 c21 99 56 230 77 290 21 61
45 136 54 168 13 49 19 57 40 57 37 0 60 -39 74 -129 6 -44 18 -93 26 -108 28
-53 8 -60 -33 -13 -15 17 -35 30 -45 30 -17 0 -17 -1 -1 -29 19 -32 52 -51 88
-51 13 0 54 -9 91 -21 55 -17 81 -19 139 -14 39 4 87 15 106 25 36 18 140 121
140 138 0 6 26 27 58 48 31 20 59 39 61 40 2 2 -4 15 -13 29 -16 25 -16 26 18
60 27 26 44 35 69 35 19 0 54 7 78 15 23 9 45 12 48 7 14 -19 65 -52 81 -52
23 0 41 43 49 113 3 32 11 59 16 60 6 1 20 -19 33 -45 12 -27 28 -48 35 -48
21 0 52 39 87 110 46 92 55 96 116 51z m594 19 c32 -17 43 -47 30 -84 -7 -23
-55 -71 -173 -173 -89 -77 -236 -212 -327 -298 -91 -87 -205 -191 -255 -231
-49 -39 -162 -143 -250 -230 -88 -88 -183 -180 -211 -205 -28 -26 -74 -73
-103 -106 l-52 -60 37 -64 c99 -171 119 -202 143 -217 14 -9 29 -21 32 -26 10
-13 -6 -61 -36 -112 -24 -41 -29 -44 -68 -44 -61 1 -138 24 -154 46 -32 41
-83 160 -83 192 0 18 -12 62 -26 98 -14 35 -23 68 -20 73 4 5 2 21 -4 36 -6
15 -15 80 -20 143 -8 103 -7 120 8 142 9 14 26 46 38 71 25 54 146 167 237
221 222 133 320 215 607 512 98 101 278 239 376 289 56 29 238 46 274 27z
m-1025 -96 c0 -12 -8 -20 -22 -22 -25 -4 -31 16 -11 36 17 17 33 10 33 -14z
m4989 17 c4 -5 3 -16 0 -25 -8 -21 -94 -23 -94 -2 0 24 82 47 94 27z m-3935
-98 c-35 -36 -118 -112 -184 -170 -66 -58 -138 -124 -160 -148 -116 -123 -215
-199 -215 -166 0 8 161 158 519 483 109 99 137 100 40 1z m553 42 c-6 -20 -11
-25 -16 -17 -11 18 2 68 14 56 5 -5 6 -23 2 -39z m-2424 -49 c31 -29 77 -66
101 -81 55 -34 203 -85 247 -85 35 0 43 -11 36 -48 -6 -30 -29 -39 -116 -47
-60 -6 -67 -9 -54 -21 11 -11 43 -16 116 -17 56 -1 102 -5 102 -9 0 -5 -18
-21 -40 -37 -35 -26 -52 -30 -137 -36 -121 -10 -186 6 -191 47 -2 20 4 30 32
46 20 12 36 27 36 34 0 7 -20 24 -45 37 -36 19 -51 36 -76 85 -17 34 -44 85
-61 113 -25 46 -30 73 -12 73 3 0 31 -24 62 -54z m1949 21 c-8 -13 -93 -98
-189 -188 -95 -90 -212 -204 -260 -254 -48 -49 -88 -84 -88 -76 0 7 14 30 31
50 45 51 513 500 518 495 2 -2 -3 -14 -12 -27z m3903 -8 c38 -20 54 -49 27
-49 -13 0 -98 -38 -147 -65 -14 -8 -50 -28 -80 -44 -30 -16 -68 -41 -85 -55
-51 -43 -3 -31 100 24 161 87 299 128 280 83 -4 -10 -8 -29 -9 -41 -2 -45 -75
-82 -161 -82 -50 -1 -107 -26 -165 -75 -25 -21 -66 -51 -92 -67 -27 -16 -48
-36 -48 -44 0 -17 37 -18 76 -4 15 6 30 8 33 4 3 -4 0 -9 -6 -11 -17 -6 -16
-30 1 -36 10 -4 11 -17 5 -58 -14 -90 12 -98 144 -47 60 24 105 34 167 38 68
4 85 8 88 22 2 13 -10 19 -54 28 -89 19 -104 28 -94 56 7 18 5 26 -7 32 -20
11 -9 32 17 32 11 0 27 9 37 19 10 11 31 24 46 30 15 6 32 23 39 38 56 137 76
168 130 201 114 68 168 30 168 -119 0 -46 -7 -68 -38 -125 l-37 -69 -54 -5
c-40 -4 -58 -12 -73 -29 -10 -14 -15 -27 -11 -31 12 -11 104 -40 125 -40 32 0
75 28 81 52 4 13 29 45 57 73 60 59 75 56 103 -21 10 -27 29 -59 43 -71 57
-52 72 -196 28 -289 -13 -29 -30 -54 -39 -57 -8 -4 -41 -2 -72 4 -66 12 -136
7 -158 -11 -14 -12 -14 -15 1 -31 21 -23 37 -24 54 -4 18 22 50 19 50 -5 0
-13 -14 -25 -47 -40 -26 -11 -55 -28 -65 -37 -12 -11 -25 -13 -45 -8 -26 7
-95 17 -118 17 -5 0 -23 -3 -40 -6 -37 -8 -68 9 -45 24 8 5 27 10 42 10 23 0
27 5 30 33 3 32 4 32 51 30 100 -6 40 40 -163 123 -80 33 -147 41 -175 21 -16
-13 -17 -17 -6 -31 7 -9 24 -16 36 -16 12 0 42 -7 65 -15 23 -8 51 -15 60 -15
10 0 40 -10 67 -22 l48 -21 -85 -13 c-276 -42 -319 -50 -339 -68 -22 -20 -31
-18 -176 35 -80 28 -218 30 -264 3 -26 -15 -31 -24 -29 -49 3 -27 7 -31 51
-39 29 -5 47 -13 47 -22 0 -16 -42 -28 -72 -21 -33 9 -108 -4 -108 -18 0 -7
14 -18 30 -24 17 -5 34 -21 39 -34 5 -14 36 -44 68 -69 54 -41 58 -47 61 -90
l3 -46 -58 -4 c-59 -5 -71 -1 -137 41 -36 23 -66 66 -66 95 0 9 12 18 28 22
46 10 53 14 47 24 -3 5 -24 14 -46 20 l-40 11 3 52 3 52 53 3 c58 3 67 22 16
33 -32 6 -94 36 -94 45 0 4 18 28 40 54 22 26 40 51 40 56 0 4 12 36 26 72 14
35 30 91 35 124 14 87 36 134 79 168 22 17 41 43 45 59 11 52 95 141 132 141
23 0 14 -19 -12 -26 -16 -4 -25 -13 -25 -26 0 -11 -15 -41 -34 -67 -24 -33
-31 -51 -26 -66 5 -13 -1 -45 -16 -86 -13 -37 -24 -83 -24 -103 l0 -37 28 15
c30 16 69 56 95 98 10 15 35 37 57 48 49 25 53 53 10 69 -21 7 -30 16 -30 32
0 28 49 104 94 147 44 42 55 71 30 89 -19 14 -19 15 13 32 32 17 48 15 33 -4
-28 -34 6 -35 69 -2 113 57 140 72 153 85 17 17 42 15 88 -9z m-3870 -38 c0
-11 -416 -418 -472 -463 -88 -70 -23 3 206 230 223 221 266 259 266 233z m-10
-86 c0 -19 -395 -422 -422 -431 -11 -3 -22 -3 -26 0 -6 7 427 446 440 446 5 0
8 -7 8 -15z m100 -75 c7 -27 13 -82 13 -122 2 -70 -1 -79 -68 -226 -71 -157
-127 -237 -186 -267 -16 -9 -52 -35 -81 -60 -106 -89 -124 -103 -154 -118 -34
-17 -234 -211 -234 -227 0 -5 -14 -22 -31 -38 -17 -15 -36 -38 -42 -49 -29
-51 -100 -134 -170 -200 -60 -55 -90 -76 -136 -91 -33 -11 -62 -18 -65 -14 -3
3 -6 30 -6 60 0 51 3 58 40 93 22 21 70 62 107 92 38 30 109 92 158 137 50 46
100 89 112 97 44 29 66 111 40 148 -27 35 -73 13 -176 -85 -54 -52 -105 -91
-121 -95 -16 -3 -34 -13 -41 -21 -16 -19 -65 -18 -73 2 -8 20 6 42 93 153 110
140 121 149 249 181 54 14 113 66 163 145 24 38 90 107 180 190 78 72 196 183
263 248 66 64 128 117 137 117 12 0 21 -15 29 -50z m5932 -54 c53 -1 56 -4 69
-76 29 -156 32 -189 21 -228 -15 -50 -33 -57 -82 -32 -22 11 -43 20 -48 20 -6
0 -33 15 -60 33 -55 34 -76 76 -71 141 1 17 -2 53 -6 80 -10 65 8 81 80 70 28
-4 71 -8 97 -8z m-9047 -26 c4 -6 34 -24 68 -41 34 -17 76 -41 92 -54 17 -12
55 -30 85 -40 30 -10 100 -35 156 -56 56 -21 139 -47 185 -59 110 -27 125 -34
132 -60 6 -22 4 -22 -57 -18 -34 3 -71 10 -82 16 -35 19 -159 61 -195 67 -20
3 -77 25 -127 49 -96 47 -198 83 -207 74 -14 -14 -23 -133 -14 -177 5 -25 18
-111 29 -191 11 -80 29 -179 39 -220 11 -41 27 -113 36 -160 24 -127 60 -246
166 -542 71 -195 132 -330 182 -401 24 -34 54 -81 66 -105 12 -24 31 -53 42
-65 11 -12 28 -31 38 -42 10 -11 33 -42 51 -70 39 -59 92 -110 137 -130 18 -7
52 -30 75 -49 24 -20 84 -60 133 -90 58 -35 89 -59 87 -69 -2 -10 11 -19 35
-27 33 -10 133 -53 238 -100 l30 -14 -27 -4 c-14 -2 -44 6 -65 17 -35 17 -228
82 -338 113 -22 6 -49 19 -60 28 -11 9 -51 38 -88 63 -65 45 -95 52 -83 21 7
-19 -14 -64 -30 -64 -7 0 -37 36 -68 79 -30 44 -75 103 -98 133 -24 29 -56 73
-72 98 -16 25 -37 51 -47 57 -31 23 -110 194 -179 393 -7 19 -25 69 -41 110
-93 246 -139 423 -168 650 -12 91 -26 199 -32 242 -5 42 -12 148 -15 235 -2
87 -13 212 -23 278 -10 66 -16 123 -14 128 6 10 21 9 28 -3z m3276 -262 c-12
-51 -29 -116 -37 -144 -8 -28 -14 -60 -14 -71 0 -38 -106 -237 -139 -261 -17
-12 -58 -57 -91 -99 -57 -72 -60 -78 -60 -132 1 -236 -10 -491 -23 -536 -9
-27 -20 -77 -27 -110 -18 -100 -21 -108 -30 -99 -4 5 -12 29 -17 54 -7 39 -12
45 -33 45 -35 0 -37 -39 -6 -172 38 -164 39 -170 26 -223 -13 -54 -20 -63 -44
-54 -40 15 -208 292 -221 367 -4 20 -11 40 -16 43 -15 9 -10 38 21 141 82 266
112 348 141 380 22 26 29 43 29 77 0 39 9 54 86 155 47 61 96 119 109 127 13
8 30 33 39 55 10 24 28 47 46 57 17 10 38 34 48 57 61 142 221 449 229 441 3
-3 -5 -47 -16 -98z m-3093 8 c67 -33 144 -57 197 -60 33 -2 55 -11 86 -35 25
-21 47 -31 60 -28 13 4 19 0 19 -13 0 -10 -9 -20 -20 -23 -12 -3 -20 -14 -20
-26 0 -37 -17 -22 -29 25 -15 60 -35 53 -39 -14 -4 -60 -17 -66 -37 -18 -20
46 -28 50 -60 24 l-27 -21 -25 27 c-23 26 -26 26 -49 12 -31 -21 -32 -21 -42
17 -13 49 -36 41 -44 -16 -9 -63 -14 -67 -27 -20 -14 49 -14 193 -1 193 6 0
32 -11 58 -24z m906 -60 c37 -10 55 -22 77 -51 62 -83 126 -305 116 -405 -5
-60 -46 -162 -78 -196 -52 -55 -105 -246 -128 -464 -5 -41 -11 -82 -14 -90 -3
-8 -8 -34 -11 -57 -5 -33 -3 -43 8 -43 20 0 36 54 36 123 0 33 4 74 9 91 11
37 40 188 51 269 5 33 15 66 23 76 8 9 17 25 19 36 5 30 38 32 38 3 1 -35 43
-131 82 -185 20 -26 50 -77 68 -112 18 -36 41 -77 52 -92 16 -21 18 -31 9 -47
-6 -11 -11 -33 -11 -48 0 -21 -4 -25 -20 -21 -11 3 -27 -1 -35 -9 -15 -15 -65
-166 -65 -196 0 -34 -52 -175 -79 -213 -46 -66 -63 -105 -56 -132 5 -23 3 -24
-27 -21 -33 3 -33 4 -35 58 -2 54 -2 56 40 85 23 17 46 40 52 52 6 11 16 27
22 34 14 17 20 120 8 139 -5 8 -8 33 -6 55 3 55 -19 77 -51 49 l-21 -19 8 60
c4 33 18 105 31 160 13 55 24 110 24 122 0 33 -19 38 -25 6 -4 -15 -10 -37
-15 -48 -5 -11 -16 -51 -25 -90 -9 -38 -20 -86 -25 -105 -9 -39 -61 -167 -87
-217 -17 -33 -36 -35 -31 -4 2 10 -4 26 -12 36 -12 15 -15 51 -15 179 0 153
-1 161 -20 161 -14 0 -21 -10 -27 -35 -15 -66 -20 -275 -10 -384 10 -104 8
-136 -8 -136 -11 0 -17 54 -36 325 l-17 240 43 125 c24 69 54 142 67 162 13
21 23 40 23 44 0 3 19 47 41 98 41 90 48 118 100 430 13 77 4 83 -16 10 -26
-98 -30 -107 -42 -111 -8 -3 -13 13 -15 49 -3 48 -4 50 -12 23 -4 -16 -17 -61
-28 -98 -11 -37 -22 -89 -24 -115 -16 -190 -42 -261 -75 -200 -14 26 -15 359
-1 433 9 46 19 90 43 188 11 42 27 46 113 23z m-456 -85 c65 -33 70 -44 70
-159 0 -56 -4 -104 -8 -107 -11 -7 -30 84 -30 142 l0 45 -34 -6 c-29 -6 -34
-3 -40 16 -7 29 -8 88 -1 88 3 0 22 -9 43 -19z m8385 -101 c86 -41 102 -66
102 -160 0 -97 -14 -189 -33 -217 -13 -21 -22 -23 -101 -23 l-87 0 -22 46
c-13 25 -20 53 -18 63 9 26 36 232 36 267 0 32 19 53 48 54 7 0 41 -13 75 -30z
m-6933 -97 c-37 -110 -61 -156 -120 -226 -22 -27 -47 -72 -55 -100 -17 -58
-20 -145 -5 -167 9 -12 16 -8 43 24 17 22 83 73 144 113 62 40 137 99 167 130
44 46 57 55 67 46 10 -10 -17 -42 -137 -158 -82 -79 -153 -145 -159 -145 -5 0
-24 -13 -42 -28 -26 -22 -37 -47 -67 -147 -19 -66 -38 -145 -41 -175 -10 -85
-46 -292 -57 -320 -5 -14 -21 -42 -36 -64 -24 -35 -27 -52 -34 -160 -6 -97
-24 -300 -27 -314 -1 -2 -5 0 -11 3 -14 9 -12 115 5 225 19 121 19 131 0 106
-8 -10 -19 -43 -25 -72 -34 -176 -33 -172 -41 -136 -10 46 6 158 31 221 26 67
25 81 -2 45 -34 -45 -35 -46 -41 -31 -3 8 8 43 24 77 48 102 141 397 153 486
4 27 9 119 11 204 4 198 18 250 107 385 36 55 87 145 112 199 34 72 49 97 57
89 8 -8 2 -38 -21 -110z m113 33 c8 -20 -20 -43 -35 -28 -14 14 -3 42 16 42 7
0 16 -6 19 -14z m5217 -1 c-7 -8 -16 -15 -21 -15 -5 0 -9 7 -9 15 0 9 9 15 21
15 18 0 19 -2 9 -15z m-6864 -136 c12 -68 36 -162 53 -209 17 -47 31 -93 31
-102 0 -36 -19 -17 -35 35 -10 28 -28 77 -40 107 -28 68 -70 263 -61 285 14
38 31 1 52 -116z m64 121 c13 -8 20 -50 33 -200 2 -19 7 -48 12 -64 6 -21 5
-28 -5 -24 -17 5 -56 116 -63 180 -3 29 -9 68 -13 86 -7 34 5 42 36 22z m5780
-19 c100 -11 193 -46 187 -70 -2 -9 -10 -14 -18 -12 -8 2 -43 12 -79 22 -36
10 -77 19 -91 19 -34 0 -119 30 -119 41 0 11 13 11 120 0z m1413 -13 c32 -16
19 -31 -20 -23 -40 7 -63 21 -63 37 0 10 54 2 83 -14z m-939 -14 c5 -13 15
-15 41 -11 21 3 33 2 30 -4 -7 -10 -65 -12 -89 -3 -9 3 -16 12 -16 20 0 19 26
18 34 -2z m-6410 -22 c8 -16 13 -38 10 -49 -3 -11 4 -52 15 -90 12 -39 21 -82
21 -96 0 -15 9 -49 20 -77 39 -98 16 -127 -26 -32 -28 62 -84 283 -84 330 0
50 22 57 44 14z m-72 -97 c6 -89 -16 -84 -38 9 -22 94 -11 134 17 61 10 -27
20 -59 21 -70z m7358 75 c0 -5 -4 -10 -10 -10 -5 0 -10 5 -10 10 0 6 5 10 10
10 6 0 10 -4 10 -10z m-7486 -64 c-5 -14 -9 -15 -15 -4 -5 7 -9 22 -9 33 0 17
2 18 15 4 9 -9 13 -23 9 -33z m446 13 c0 -11 -4 -17 -10 -14 -5 3 -10 15 -10
26 0 11 5 17 10 14 6 -3 10 -15 10 -26z m6500 21 c0 -5 -7 -10 -16 -10 -8 0
-12 5 -9 10 3 6 10 10 16 10 5 0 9 -4 9 -10z m-740 -12 c22 -7 40 -19 40 -25
0 -14 -170 -17 -225 -3 l-30 7 35 16 c42 20 126 22 180 5z m810 -4 c0 -9 -7
-14 -17 -12 -25 5 -28 28 -4 28 12 0 21 -6 21 -16z m50 6 c0 -5 -7 -10 -16
-10 -8 0 -12 5 -9 10 3 6 10 10 16 10 5 0 9 -4 9 -10z m-579 -33 c-8 -8 -16
-7 -27 5 -14 14 -14 15 11 10 19 -3 23 -8 16 -15z m-3991 8 c0 -3 -9 -23 -19
-43 -10 -20 -24 -55 -30 -77 -6 -22 -33 -92 -62 -155 -28 -63 -66 -164 -86
-225 -42 -134 -136 -327 -180 -371 -18 -18 -41 -57 -51 -86 -14 -40 -23 -52
-37 -50 -64 12 -181 -216 -145 -284 27 -50 97 -48 124 4 8 16 22 35 32 43 9 8
28 38 41 67 19 44 26 51 41 43 20 -10 50 -42 66 -70 6 -10 25 -36 41 -58 17
-22 43 -73 59 -114 15 -41 41 -108 57 -149 16 -41 40 -123 53 -181 34 -146 65
-208 82 -164 4 8 9 15 13 15 12 0 119 -231 130 -280 19 -88 20 -119 5 -135
-19 -19 -31 -19 -41 -1 -11 19 -47 36 -76 36 -30 0 -40 10 -26 26 8 9 5 16
-11 24 -12 6 -36 35 -54 63 -19 29 -43 61 -55 71 -11 11 -21 24 -21 30 0 6
-16 35 -36 64 -20 30 -52 85 -71 123 -40 79 -66 101 -83 69 -16 -30 30 -120
96 -190 28 -31 62 -76 74 -100 12 -25 38 -62 56 -83 58 -63 38 -95 -36 -57
-26 13 -54 20 -71 18 -25 -4 -33 1 -59 42 -17 26 -39 55 -49 64 -18 16 -20 15
-40 -20 -25 -41 -26 -41 -153 -6 -96 27 -119 44 -111 82 5 26 -1 39 -44 88
-27 31 -63 80 -79 107 -40 70 -108 167 -133 189 -11 10 -28 41 -37 70 -9 28
-23 56 -31 63 -12 9 -13 18 -5 45 6 18 13 80 17 138 4 65 16 139 32 193 30
106 67 148 153 173 91 27 152 76 199 159 16 28 47 68 70 90 45 43 51 69 22 85
-15 7 -32 4 -73 -14 -29 -13 -78 -31 -108 -40 -30 -9 -63 -22 -73 -27 -11 -6
-21 -8 -25 -5 -3 3 28 21 69 40 68 31 139 90 139 116 0 5 53 67 118 138 64 71
152 172 196 225 43 54 84 97 90 97 6 0 34 20 61 45 44 39 75 55 75 40z m3875
-5 c3 -5 -1 -10 -9 -10 -9 0 -16 5 -16 10 0 6 4 10 9 10 6 0 13 -4 16 -10z
m-6435 -21 c0 -11 -4 -17 -10 -14 -5 3 -10 13 -10 21 0 8 5 14 10 14 6 0 10
-9 10 -21z m7070 12 c0 -12 -20 -25 -27 -18 -7 7 6 27 18 27 5 0 9 -4 9 -9z
m500 -1 c0 -5 -9 -10 -20 -10 -11 0 -20 5 -20 10 0 6 9 10 20 10 11 0 20 -4
20 -10z m-7427 -96 c18 -89 17 -109 -7 -83 -14 15 -31 169 -18 169 4 0 15 -39
25 -86z m6877 77 c0 -5 -7 -22 -15 -37 -8 -16 -15 -37 -15 -46 0 -25 -20 -32
-34 -13 -10 14 -20 16 -42 11 l-29 -7 26 23 c14 13 33 35 43 51 16 26 66 40
66 18z m-690 -22 c0 -4 -13 -10 -29 -14 -43 -9 -261 -14 -261 -6 0 4 19 12 43
18 48 12 247 14 247 2z m406 -5 c18 -15 18 -15 -4 -11 -12 3 -38 1 -57 -4 -43
-12 -66 -2 -40 18 25 18 77 17 101 -3z m552 -7 c3 -14 -1 -17 -21 -12 -32 8
-43 -10 -24 -39 20 -30 75 -29 118 3 18 14 44 24 58 24 32 -1 121 -40 121 -53
0 -15 -37 -12 -71 6 -36 18 -84 15 -84 -6 0 -9 15 -19 38 -24 45 -11 47 -23 7
-37 -35 -13 -35 -12 -14 -44 16 -24 15 -25 -10 -35 -62 -23 -74 -23 -112 6
-35 27 -35 29 -15 38 27 12 27 22 -4 42 -18 12 -39 15 -82 11 -102 -9 -124
-17 -121 -41 2 -14 11 -22 29 -24 l27 -3 -20 -41 c-15 -30 -19 -54 -15 -86 6
-55 20 -71 47 -54 39 24 40 10 5 -43 -15 -20 -24 -39 -22 -41 8 -8 105 27 131
47 18 14 26 30 26 51 0 43 65 108 102 101 14 -3 43 3 63 13 33 15 46 16 102 7
88 -16 141 -53 98 -69 -22 -9 -56 2 -99 31 -41 28 -57 30 -88 14 -20 -11 -20
-11 3 -35 13 -14 40 -27 61 -30 23 -4 38 -12 38 -20 0 -17 0 -17 -45 1 -38 16
-65 8 -65 -19 0 -19 51 -62 93 -80 27 -11 37 -21 37 -37 0 -13 10 -33 22 -46
25 -27 18 -38 -32 -49 -60 -13 -130 -63 -130 -92 0 -21 91 -10 155 19 46 20
56 21 129 11 76 -10 80 -9 97 11 19 24 36 18 22 -7 -5 -8 -33 -36 -63 -62 -65
-55 -77 -72 -56 -80 13 -5 79 28 136 67 11 7 26 6 53 -5 41 -18 47 -31 17 -41
-16 -5 -20 -15 -20 -52 0 -41 -5 -50 -39 -82 -50 -47 -124 -145 -112 -149 14
-5 47 15 89 52 21 17 53 44 73 58 l37 27 38 -33 38 -32 -33 -70 c-38 -82 -53
-100 -106 -126 -22 -11 -49 -31 -61 -44 -22 -26 -103 -44 -301 -64 -111 -12
-113 -11 -113 61 0 25 -7 54 -15 65 -34 44 -53 101 -48 147 l5 46 -37 7 c-30
5 -40 13 -51 40 -20 48 -17 114 6 144 17 23 17 26 3 42 -9 10 -30 18 -49 18
-50 0 -50 18 0 40 47 20 58 36 31 46 -35 14 -125 -47 -105 -71 5 -6 5 -16 0
-25 -13 -20 -13 -112 0 -145 6 -15 22 -30 40 -36 16 -6 30 -14 30 -18 0 -5 -9
-34 -20 -66 -11 -32 -20 -80 -20 -107 0 -63 26 -195 45 -230 43 -76 71 -220
60 -305 -7 -54 -11 -61 -70 -119 -69 -67 -105 -83 -139 -60 -12 8 -53 17 -92
21 -47 5 -89 17 -134 40 -82 41 -146 66 -290 111 -63 20 -140 49 -170 64 -30
15 -73 33 -95 40 -22 7 -61 23 -87 36 -61 31 -94 30 -152 -2 -68 -38 -132 -18
-71 22 74 49 -24 87 -250 98 -65 3 -74 1 -154 -40 -47 -24 -89 -44 -94 -44
-17 0 1 81 27 120 40 61 75 75 242 96 39 5 66 1 113 -15 40 -14 105 -24 184
-30 67 -5 135 -14 152 -20 16 -7 59 -16 95 -21 161 -22 207 -32 259 -54 79
-33 203 -66 250 -66 77 0 79 47 4 127 -71 77 -94 109 -119 172 -38 95 -55 172
-55 256 1 101 21 180 72 273 44 83 45 87 22 96 -51 20 -163 -241 -163 -380 0
-100 52 -292 100 -368 38 -59 31 -71 -36 -56 -61 14 -89 32 -109 69 -20 40
-41 212 -28 236 7 12 6 31 -4 64 -27 84 -1 332 41 395 20 31 21 88 2 124 -20
37 -72 85 -125 113 -24 13 -53 30 -65 36 -11 7 -50 13 -86 14 -86 1 -115 10
-115 34 0 18 11 21 95 30 73 8 95 13 95 25 0 11 -15 16 -62 18 -55 3 -63 6
-63 22 0 13 -9 22 -27 26 -16 3 -33 7 -39 9 -13 4 -7 52 8 62 12 6 170 4 177
-3 14 -13 -25 -26 -83 -27 -57 -2 -64 -4 -49 -15 12 -9 36 -12 73 -8 68 6 126
-11 122 -37 -5 -26 16 -47 46 -47 34 0 62 -27 62 -60 0 -42 22 -54 89 -47 67
7 145 35 214 78 27 16 78 41 114 54 36 14 84 41 106 61 22 20 65 47 96 61 31
13 70 31 86 38 39 18 69 15 73 -8z m212 3 c12 -8 11 -10 -7 -10 -12 0 -25 5
-28 10 -8 13 15 13 35 0z m273 -16 c26 -9 47 -20 47 -26 0 -12 -29 -6 -83 17
-67 28 -39 35 36 9z m-43 -69 c8 -9 8 -15 2 -15 -18 0 -42 12 -42 21 0 14 26
10 40 -6z m-7030 -52 c0 -20 -3 -24 -11 -16 -7 7 -9 19 -6 27 10 24 17 19 17
-11z m5937 6 c-12 -7 -27 -7 -45 0 -25 9 -24 9 18 10 36 0 41 -2 27 -10z
m1020 -51 c15 -12 8 -28 -13 -28 -29 0 -86 29 -79 41 8 12 72 3 92 -13z m113
12 c0 -13 -11 -13 -30 0 -12 8 -11 10 8 10 12 0 22 -4 22 -10z m-7065 -18 c0
-18 -20 -15 -23 4 -3 10 1 15 10 12 7 -3 13 -10 13 -16z m7181 3 c16 -12 17
-14 2 -15 -23 0 -48 11 -48 21 0 14 24 11 46 -6z m-7625 -53 c7 -51 -2 -54
-24 -7 -22 45 -21 57 1 53 12 -2 19 -16 23 -46z m7449 18 c0 -19 -11 -26 -23
-14 -8 8 3 34 14 34 5 0 9 -9 9 -20z m933 -61 c23 -12 61 -35 84 -50 23 -16
48 -29 56 -29 51 0 59 -33 31 -135 -9 -33 -20 -80 -25 -103 -5 -24 -18 -61
-30 -82 -20 -35 -25 -38 -60 -35 -21 1 -50 12 -65 24 -15 11 -33 21 -41 21 -7
0 -16 6 -19 14 -8 20 -32 28 -52 17 -48 -24 -53 15 -17 150 32 123 54 201 60
217 6 18 30 15 78 -9z m-5696 -31 c15 -6 132 -58 258 -116 127 -57 250 -113
275 -124 25 -11 113 -53 195 -93 83 -40 168 -79 190 -85 22 -7 64 -26 93 -42
29 -15 59 -28 67 -28 8 0 43 -14 77 -31 151 -74 149 -72 125 -96 -13 -13 -26
-9 -113 36 -55 28 -144 67 -199 87 -55 19 -179 74 -275 121 -96 47 -227 103
-290 125 -110 38 -188 69 -277 109 -23 10 -45 19 -49 19 -5 0 -50 20 -101 45
-85 41 -105 60 -86 78 10 11 80 8 110 -5z m4818 -18 c3 -5 2 -10 -4 -10 -5 0
-13 5 -16 10 -3 6 -2 10 4 10 5 0 13 -4 16 -10z m-24 -67 c47 -17 62 -40 23
-36 -52 6 -144 37 -132 44 20 13 56 11 109 -8z m249 -33 c0 -5 -5 -10 -11 -10
-5 0 -7 5 -4 10 3 6 8 10 11 10 2 0 4 -4 4 -10z m-309 -40 c18 -10 27 -50 11
-50 -5 0 -21 14 -37 30 -23 24 -25 30 -11 30 9 0 26 -5 37 -10z m257 -28 c2
-7 -12 -5 -37 5 -23 9 -41 20 -41 24 0 12 73 -16 78 -29z m-60 -28 c12 -4 22
-13 22 -21 0 -11 -5 -13 -17 -8 -10 4 -30 10 -45 13 -16 2 -28 8 -28 13 0 10
34 12 68 3z m-2793 -74 l20 -1 -20 -8 c-34 -14 -212 -23 -219 -12 -9 14 127
33 179 25 11 -2 29 -4 40 -4z m-1696 -51 c35 -16 62 -31 60 -34 -3 -2 -29 2
-59 9 -30 8 -67 17 -82 20 -20 4 -28 13 -28 27 0 24 13 22 109 -22z m-142 -10
c106 -41 156 -69 122 -69 -17 0 -197 63 -229 80 -11 6 -18 15 -15 21 8 12 0
14 122 -32z m1589 34 c-6 -6 -178 -52 -199 -53 -5 0 -7 5 -5 12 2 6 35 19 74
29 72 17 142 24 130 12z m569 -14 c44 -16 60 -28 72 -54 15 -31 15 -36 0 -58
-35 -54 -343 -131 -512 -128 -109 2 -315 37 -315 54 0 5 10 6 23 3 12 -4 80
-12 150 -18 178 -16 312 -1 450 51 128 48 198 84 175 89 -24 5 -103 -13 -173
-39 -79 -29 -298 -39 -330 -16 -20 15 -20 15 5 21 14 3 80 12 147 20 72 9 141
23 169 35 26 12 55 21 65 21 11 0 19 5 19 10 0 6 -6 10 -14 10 -8 0 -18 5 -21
10 -10 16 30 11 90 -11z m-4016 -25 c36 -9 70 -20 74 -24 20 -18 -57 -233
-101 -283 -14 -16 -16 -16 -29 3 -8 11 -20 20 -28 20 -29 0 -36 71 -20 180 15
101 20 120 32 120 4 0 36 -7 72 -16z m547 -19 c-17 -25 -36 -33 -36 -15 0 14
40 53 47 46 3 -3 -2 -17 -11 -31z m6019 23 c46 -21 26 -44 -24 -27 -25 9 -29
14 -20 25 14 17 12 17 44 2z m-4775 -36 c101 -35 170 -68 170 -83 0 -6 -6 -9
-14 -6 -8 3 -67 24 -132 47 -136 48 -154 57 -154 72 0 12 17 9 130 -30z
m-1350 9 c0 -12 -20 -25 -27 -18 -7 7 6 27 18 27 5 0 9 -4 9 -9z m1276 -52 c8
-13 -6 -11 -59 7 -26 9 -45 20 -42 24 6 10 92 -17 101 -31z m-1216 14 c0 -10
-32 -43 -42 -43 -5 0 -1 11 8 25 15 23 34 33 34 18z m1106 -38 c56 -25 109
-45 117 -45 8 0 20 -7 27 -15 10 -13 9 -15 -11 -15 -25 0 -107 26 -124 39 -5
5 -35 16 -65 26 -61 20 -82 33 -74 46 9 15 21 11 130 -36z m1907 -3 c-13 -2
-33 -2 -45 1 -23 4 -23 4 2 14 18 8 31 7 45 0 20 -11 19 -12 -2 -15z m-1732
-2 c13 -10 19 -19 12 -20 -18 0 -63 22 -63 32 0 14 27 9 51 -12z m1554 10 c3
-6 -5 -10 -19 -10 -14 0 -28 5 -31 10 -3 6 5 10 19 10 14 0 28 -4 31 -10z
m-1863 -27 c38 -16 66 -32 64 -38 -1 -5 -12 -9 -22 -7 -31 6 -134 54 -134 63
0 15 22 10 92 -18z m-1095 -9 c-3 -3 -12 -4 -19 -1 -8 3 -5 6 6 6 11 1 17 -2
13 -5z m6726 -22 c15 -10 61 -51 102 -91 84 -82 87 -92 60 -206 -8 -33 -15
-96 -15 -140 0 -90 -14 -126 -50 -135 -14 -3 -26 -15 -30 -28 -8 -36 -25 -21
-22 18 3 33 0 37 -43 58 -25 12 -50 22 -54 22 -5 0 -28 12 -50 27 -46 30 -60
70 -43 125 6 18 14 56 17 83 20 159 40 229 73 268 19 21 21 21 55 -1z m-2998
-75 c11 -22 27 -44 35 -47 57 -25 78 -40 107 -78 56 -74 42 -162 -27 -162 -32
0 -131 -79 -163 -131 -12 -18 -33 -33 -55 -39 -21 -5 -77 -21 -127 -35 -49
-14 -103 -25 -120 -25 -16 0 -57 -12 -90 -26 -33 -14 -89 -35 -124 -46 -127
-40 -215 -148 -227 -279 -10 -100 25 -149 141 -199 41 -18 62 -21 122 -17 86
6 116 20 156 69 43 53 47 114 13 197 -14 36 -26 65 -26 67 0 9 188 57 252 64
52 6 98 18 128 34 42 22 54 24 106 16 56 -8 134 -34 134 -45 0 -8 -50 -26 -85
-30 -16 -2 -50 -8 -75 -14 -25 -6 -67 -14 -95 -18 -42 -7 -51 -12 -53 -31 -2
-13 -10 -26 -18 -29 -27 -10 -13 -23 26 -23 29 0 40 -4 40 -15 0 -8 11 -17 25
-21 37 -9 30 -24 -11 -24 -38 0 -101 -37 -87 -51 4 -4 25 -4 45 0 20 5 48 6
62 4 14 -3 69 0 123 6 70 8 99 9 107 1 23 -24 -24 -40 -118 -41 -98 -1 -177
-16 -184 -36 -6 -21 26 -27 81 -15 70 15 267 35 273 29 14 -14 -49 -30 -189
-48 -165 -22 -207 -33 -189 -51 8 -8 37 -6 104 5 114 18 188 21 188 8 0 -18
-75 -49 -146 -62 -89 -15 -114 -28 -55 -29 25 0 108 14 186 32 142 31 194 33
164 3 -18 -17 -286 -94 -356 -102 -29 -3 -53 -10 -53 -15 0 -15 181 11 333 46
38 9 76 16 85 16 36 0 -14 -28 -88 -50 -138 -40 -255 -70 -277 -70 -30 0 -40
-20 -11 -21 42 -2 72 3 143 22 76 21 105 24 105 10 0 -9 -89 -35 -155 -46 -71
-11 -77 -27 -7 -20 43 5 62 4 62 -4 0 -7 -6 -13 -12 -15 -7 -2 -38 -11 -68
-20 -30 -8 -68 -18 -84 -21 -17 -4 -25 -10 -20 -15 5 -5 29 -5 54 0 25 5 62 9
83 10 31 0 37 -3 37 -20 0 -18 -4 -20 -33 -15 -20 4 -43 1 -62 -9 -17 -9 -45
-19 -63 -22 -18 -3 -35 -11 -39 -16 -4 -7 19 -8 70 -4 83 8 110 -5 51 -24 -76
-26 -184 -81 -184 -95 0 -24 45 -18 80 11 25 22 42 27 88 28 l57 1 9 -73 c8
-63 7 -75 -9 -92 -18 -20 -18 -21 0 -34 17 -12 16 -14 -21 -20 -39 -6 -345
-11 -529 -8 -123 2 -323 26 -430 52 -44 10 -109 21 -145 25 -181 16 -361 39
-407 51 l-53 15 1 52 c0 29 5 77 10 107 5 30 13 161 18 290 6 129 17 289 26
355 9 66 20 156 24 200 13 136 51 294 89 370 50 102 126 191 187 221 17 8 44
25 62 38 27 20 49 25 137 31 60 4 112 3 122 -3 80 -39 350 -47 478 -13 44 12
90 21 104 21 13 0 33 5 45 12 26 14 160 46 167 41 3 -3 14 -23 25 -46z m-1788
27 c2 -6 -8 -25 -22 -42 -15 -18 -30 -54 -37 -88 -8 -41 -16 -58 -30 -62 -12
-3 -17 -10 -13 -22 3 -9 -1 -22 -9 -29 -8 -7 -17 -22 -20 -35 -6 -23 -51 -54
-62 -43 -10 10 17 105 37 131 10 13 19 31 19 40 0 9 16 26 35 38 24 16 35 31
35 47 l0 24 -102 -5 c-62 -3 -109 -1 -119 5 -12 8 -38 3 -99 -17 -72 -23 -86
-25 -115 -15 -25 9 -40 10 -57 2 -15 -7 -32 -7 -48 -1 l-25 10 25 10 c14 5 64
11 112 13 48 2 93 7 100 11 7 5 58 9 113 11 93 2 223 18 234 29 9 9 44 -1 48
-12z m-1358 -107 c55 -117 156 -273 215 -333 51 -50 88 -125 92 -185 1 -15 16
-58 33 -97 17 -39 31 -73 31 -77 0 -3 12 -32 26 -63 14 -31 36 -79 49 -107 29
-64 100 -292 115 -370 7 -33 17 -68 22 -79 15 -28 -3 -40 -44 -27 -18 6 -44
13 -58 15 -47 9 -61 30 -85 121 -13 50 -44 138 -69 197 -25 59 -46 117 -46
127 0 32 -17 66 -51 105 -24 28 -38 62 -60 144 -16 59 -35 118 -42 132 -8 14
-22 50 -32 80 -10 30 -39 93 -65 140 -26 47 -51 96 -55 110 -4 14 -18 49 -32
77 -34 75 -38 105 -19 142 9 17 21 31 27 31 6 0 27 -37 48 -83z m1061 20 c0
-7 -5 -18 -12 -25 -6 -6 -12 -36 -13 -66 -2 -53 -24 -106 -44 -106 -13 0 -31
57 -31 98 0 27 9 43 39 73 40 40 61 49 61 26z m-2500 -26 c0 -11 -4 -23 -10
-26 -6 -4 -10 5 -10 19 0 14 5 26 10 26 6 0 10 -9 10 -19z m8167 -18 c20 -49
13 -141 -12 -159 -21 -16 -104 -27 -165 -22 -40 3 -45 6 -47 28 -2 14 12 52
30 85 30 55 36 61 92 81 81 30 84 30 102 -13z m-5570 -20 c-50 -156 -77 -207
-99 -185 -9 9 -5 24 15 64 15 29 27 57 27 61 0 24 31 77 46 77 11 0 15 -6 11
-17z m-270 -52 c25 -37 39 -92 29 -117 -6 -16 -8 -16 -25 0 -10 9 -31 41 -46
70 -24 46 -27 57 -15 71 17 21 30 15 57 -24z m-127 19 c0 -5 -4 -10 -10 -10
-5 0 -10 5 -10 10 0 6 5 10 10 10 6 0 10 -4 10 -10z m4177 -16 c9 -25 -13 -40
-26 -16 -10 19 -6 32 11 32 5 0 11 -7 15 -16z m-6346 -47 c-16 -16 -26 0 -10
19 9 11 15 12 17 4 2 -6 -1 -17 -7 -23z m335 -148 c-25 -73 -43 -136 -40 -141
3 -4 12 -8 21 -8 26 0 111 -53 125 -79 7 -13 29 -34 48 -47 72 -49 115 -86
122 -105 4 -10 15 -19 24 -19 8 0 46 -27 84 -61 59 -52 68 -65 72 -100 2 -22
0 -43 -4 -45 -41 -26 -527 186 -618 270 -19 18 -52 45 -73 60 -31 23 -38 33
-35 56 1 17 -5 36 -15 48 -29 31 -14 81 39 133 39 38 44 40 44 21 0 -11 -9
-44 -20 -72 -27 -69 -25 -79 9 -46 l30 28 3 -38 3 -39 33 58 c31 53 63 80 47
40 -14 -35 -18 -83 -7 -83 19 0 50 54 66 116 17 65 53 161 69 182 23 30 16 -4
-27 -129z m5984 90 c0 -11 -4 -18 -10 -14 -5 3 -7 12 -3 20 7 21 13 19 13 -6z
m-5820 1 c0 -5 -5 -10 -11 -10 -5 0 -7 5 -4 10 3 6 8 10 11 10 2 0 4 -4 4 -10z
m6662 -7 c33 -29 22 -41 -44 -47 -35 -3 -91 -8 -125 -10 -69 -6 -77 1 -37 33
38 30 65 36 76 17 12 -22 41 -20 63 4 22 24 42 25 67 3z m-7347 -33 c-9 -14
-25 5 -25 30 0 12 3 12 16 -2 9 -9 13 -21 9 -28z m2593 -10 c-14 -22 -24 -19
-15 5 4 8 11 15 17 15 6 0 6 -7 -2 -20z m-1931 -22 c-3 -7 -5 -2 -5 12 0 14 2
19 5 13 2 -7 2 -19 0 -25z m7764 -19 c8 -50 -1 -109 -16 -109 -7 0 -20 11 -29
25 -23 35 -49 46 -83 36 -52 -16 -320 -54 -336 -48 -11 4 -17 18 -17 41 0 46
18 55 133 68 51 5 106 13 122 18 17 5 73 8 125 7 l95 -2 6 -36z m-7981 12 c0
-22 -16 -36 -24 -22 -8 12 3 41 15 41 5 0 9 -9 9 -19z m6160 -6 c0 -8 -4 -15
-10 -15 -5 0 -10 7 -10 15 0 8 5 15 10 15 6 0 10 -7 10 -15z m895 -50 l0 -50
-90 -17 c-49 -10 -110 -22 -135 -27 -25 -6 -119 -13 -210 -16 -91 -3 -211 -13
-268 -23 -114 -18 -135 -13 -140 31 -6 52 12 67 86 68 37 0 94 5 127 10 33 4
103 13 155 19 52 6 163 21 245 34 83 14 168 24 190 23 l40 -2 0 -50z m-7382
-62 c20 -28 24 -41 16 -55 -13 -24 -24 -23 -49 4 -20 22 -25 44 -14 72 9 24
18 20 47 -21z m2616 -28 l104 0 31 -42 c71 -95 114 -148 162 -201 70 -77 80
-100 119 -270 31 -134 33 -158 30 -272 -7 -235 -26 -338 -67 -364 -28 -17
-407 56 -568 110 -74 25 -139 49 -145 54 -5 4 -26 10 -46 14 -82 15 -100 51
-119 239 -13 127 -8 158 37 252 18 38 33 75 33 81 0 6 14 29 31 50 17 22 41
59 54 84 13 25 39 70 59 100 20 30 41 69 48 85 16 43 85 98 112 88 11 -4 68
-8 125 -8z m5543 -80 c7 -66 28 -205 48 -325 5 -30 12 -80 15 -110 4 -30 9
-59 12 -63 8 -13 33 -190 33 -238 0 -36 10 -65 49 -135 47 -84 50 -96 65 -214
8 -69 18 -170 22 -225 7 -110 15 -135 44 -135 40 0 53 41 45 144 -4 55 -3 96
3 99 5 4 23 -8 39 -26 34 -36 38 -52 68 -371 9 -88 18 -163 20 -166 6 -10 27
-333 31 -462 2 -92 0 -107 -14 -110 -10 -2 -73 -1 -142 3 -190 10 -475 2 -540
-16 -30 -8 -58 -15 -63 -15 -4 0 -7 30 -7 68 0 37 0 112 1 167 0 56 7 128 16
165 13 53 15 115 12 345 -5 450 -7 429 26 490 l29 53 -26 58 c-26 57 -27 66
-27 249 0 105 0 265 -1 356 -1 130 3 194 21 295 12 71 25 139 30 151 10 28 57
42 129 40 l55 -2 7 -70z m-3330 53 c-9 -9 -15 -9 -24 0 -9 9 -7 12 12 12 19 0
21 -3 12 -12z m3034 -14 c4 -15 1 -86 -5 -158 -7 -72 -13 -189 -15 -260 -3
-107 -6 -130 -20 -138 -10 -6 -16 -22 -16 -44 0 -31 -3 -35 -31 -41 -17 -3
-33 -12 -36 -19 -5 -13 -80 -63 -193 -128 -36 -20 -72 -42 -80 -47 -8 -5 -25
-14 -38 -19 -13 -6 -38 -21 -55 -34 -64 -48 -176 -95 -447 -185 -192 -65 -278
-91 -297 -91 -10 0 -34 -11 -54 -24 -20 -14 -62 -32 -95 -41 -32 -10 -63 -21
-68 -26 -6 -5 -22 -9 -36 -9 -14 0 -50 -7 -80 -15 -82 -22 -283 -62 -380 -75
-46 -6 -87 -13 -91 -15 -14 -9 -218 -35 -264 -34 -28 1 -156 -4 -285 -10 -521
-24 -502 -22 -486 -38 12 -12 678 -3 881 11 178 13 444 57 533 90 59 22 212
64 277 77 33 6 103 27 155 45 52 19 105 34 117 34 12 0 57 16 101 35 43 19
145 57 227 84 81 28 164 62 184 76 21 14 44 25 53 25 9 0 40 16 69 36 30 20
108 63 174 97 66 33 145 77 176 99 32 22 62 36 71 33 19 -7 33 -132 19 -167
-6 -15 -27 -30 -58 -42 -26 -10 -61 -31 -78 -47 -16 -15 -84 -55 -150 -89 -66
-34 -133 -72 -150 -85 -16 -12 -75 -47 -130 -77 -244 -136 -390 -205 -714
-337 -164 -67 -212 -81 -501 -146 -36 -8 -114 -26 -175 -39 -60 -14 -162 -32
-225 -41 -63 -9 -146 -20 -185 -26 -180 -25 -1074 -14 -1285 16 -121 17 -166
19 -174 6 -7 -11 18 -21 54 -21 16 0 32 -5 36 -11 4 -8 26 -9 64 -5 48 6 60 4
84 -15 25 -19 34 -21 124 -14 74 5 107 3 138 -8 33 -12 104 -14 395 -12 569 5
733 20 1084 100 105 24 210 46 235 50 85 14 682 224 815 287 72 34 137 67 146
75 8 7 31 18 50 25 19 6 54 24 78 40 24 15 48 25 52 22 11 -6 11 -68 2 -142
-6 -53 -7 -55 -65 -90 -33 -21 -82 -52 -110 -70 -27 -17 -55 -32 -62 -32 -8 0
-31 -14 -52 -31 -132 -106 -662 -293 -955 -339 -74 -11 -147 -23 -164 -26 -95
-17 -266 -36 -460 -50 -121 -8 -224 -19 -229 -24 -18 -18 28 -23 158 -16 72 3
175 8 229 11 54 2 107 7 117 10 10 3 21 1 25 -5 3 -5 0 -11 -7 -12 -7 0 -24
-2 -38 -4 -72 -7 -137 -18 -152 -26 -17 -8 -92 -16 -373 -39 -139 -12 -125
-12 -325 -1 -85 5 -168 14 -185 20 -16 7 -65 18 -107 26 -79 15 -138 39 -138
56 0 6 -34 10 -77 10 -126 0 -333 27 -520 66 -75 16 -97 34 -42 34 29 0 287
50 353 68 16 4 32 14 34 21 5 16 -22 13 -153 -18 -49 -11 -106 -21 -126 -21
-19 0 -73 -9 -118 -21 -89 -23 -159 -20 -181 6 -7 8 -11 16 -9 17 2 0 57 6
122 12 117 11 164 32 64 29 -322 -10 -354 -8 -314 21 23 17 23 41 0 31 -10 -4
-60 -12 -111 -18 -72 -9 -102 -8 -135 2 -23 7 -82 16 -132 21 -91 7 -149 25
-139 42 3 5 19 6 34 3 16 -3 31 -2 35 4 4 7 -17 11 -62 11 -38 0 -73 4 -78 9
-14 12 -158 41 -208 41 -22 0 -68 9 -101 19 -207 66 -259 81 -331 96 -44 9
-87 23 -95 30 -8 7 -53 16 -100 20 -47 3 -105 15 -129 26 -24 10 -50 19 -58
19 -33 0 -159 34 -173 47 -12 11 -12 15 2 29 14 14 18 14 46 0 29 -15 207 -54
437 -97 61 -11 139 -26 175 -34 86 -19 224 -46 280 -56 58 -10 133 -34 190
-62 31 -15 64 -22 110 -23 96 -1 181 -15 177 -28 -2 -6 -12 -13 -23 -14 -10
-2 -23 -8 -29 -14 -7 -6 14 -7 60 -3 72 8 105 19 105 35 0 11 -9 13 -135 36
-49 9 -111 25 -138 35 -49 20 -259 67 -397 89 -41 7 -172 37 -290 67 -118 30
-226 57 -240 60 -73 14 -263 57 -320 73 -36 10 -114 28 -175 40 -60 12 -120
26 -133 31 -13 5 -34 9 -47 9 -13 0 -68 22 -122 49 -101 50 -199 93 -243 106
-62 18 -228 106 -253 134 -17 19 -37 31 -53 31 -22 0 -24 3 -19 23 6 17 4 19
-4 11 -21 -19 -151 34 -151 61 0 8 5 15 10 15 6 0 10 4 10 9 0 5 -15 8 -32 7
-28 -1 -33 2 -30 20 4 33 -22 46 -105 54 -48 5 -81 13 -87 22 -6 8 -26 23 -44
32 -18 10 -43 33 -54 53 -14 22 -37 42 -63 53 -23 10 -98 63 -166 118 -176
141 -253 230 -254 295 0 15 0 27 1 27 1 0 28 -15 61 -34 116 -66 206 -106 240
-106 10 0 77 -23 148 -51 72 -28 156 -59 188 -69 32 -10 69 -26 82 -34 14 -9
35 -16 48 -16 14 0 30 -7 37 -15 7 -8 38 -22 69 -31 52 -15 174 -64 213 -85
10 -5 23 -9 29 -9 6 0 24 -11 40 -25 16 -13 46 -27 67 -31 20 -3 48 -14 62
-22 47 -31 154 -72 187 -72 18 0 33 -4 33 -9 0 -5 12 -13 28 -19 57 -22 360
-111 398 -117 21 -4 50 -10 64 -15 14 -5 42 -11 63 -15 20 -3 37 -11 37 -17 0
-18 -131 2 -295 47 -27 8 -86 23 -130 34 -44 12 -123 34 -175 50 -52 17 -96
28 -98 26 -6 -5 73 -54 142 -87 45 -21 73 -28 108 -26 37 1 53 -3 71 -20 33
-31 84 -45 91 -25 5 11 13 13 34 8 15 -4 54 -13 87 -21 88 -19 172 -41 344
-88 126 -35 161 -41 186 -33 24 7 48 4 114 -17 45 -14 100 -26 121 -26 23 0
83 -17 140 -40 69 -28 116 -40 149 -40 70 0 198 -18 250 -35 25 -8 67 -15 95
-15 28 0 92 -7 141 -15 50 -8 144 -20 210 -25 66 -6 170 -17 230 -25 61 -8
164 -19 230 -25 66 -7 124 -14 129 -17 4 -3 270 -8 590 -10 480 -3 599 -1 686
11 357 51 424 59 507 61 51 1 134 12 185 23 51 12 134 26 183 33 50 6 145 25
213 40 68 16 136 29 152 29 16 0 32 4 35 10 3 5 32 17 63 25 152 42 202 59
262 85 291 129 407 184 443 209 56 38 84 46 113 31 40 -22 120 23 95 54 -13
16 -3 26 49 47 19 7 64 35 99 62 36 27 76 54 89 60 32 15 56 62 43 85 -10 18
-6 341 5 421 10 79 56 121 70 65z m-3332 -6 c38 -53 -1 -80 -119 -83 -47 -1
-90 -7 -98 -13 -8 -7 -41 -21 -73 -32 -32 -12 -76 -32 -97 -46 -21 -13 -42
-22 -47 -19 -6 3 -10 2 -10 -3 0 -5 27 -34 59 -64 46 -42 61 -64 67 -93 6 -36
4 -41 -40 -83 -43 -40 -51 -44 -84 -39 -55 8 -149 53 -167 81 -14 21 -14 31
-1 96 9 40 21 79 28 87 19 24 110 79 216 132 118 59 149 69 255 85 45 8 85 14
89 15 4 0 14 -9 22 -21z m2846 -3 c5 -13 12 -115 16 -225 l7 -201 -30 -32
c-16 -18 -47 -59 -68 -92 -21 -33 -53 -77 -72 -98 -34 -38 -39 -52 -25 -61 18
-11 152 158 152 191 0 6 7 19 16 28 13 13 19 14 25 4 12 -19 -2 -191 -17 -216
-13 -21 -144 -90 -252 -132 -71 -28 -152 -70 -170 -87 -23 -24 -82 -49 -167
-73 -44 -12 -100 -28 -125 -36 -113 -36 -406 -95 -521 -105 -68 -6 -137 -15
-153 -21 -16 -5 -33 -9 -37 -9 -21 0 -5 33 36 77 25 25 45 48 45 50 0 2 -11 3
-23 3 -30 0 -50 -22 -77 -85 -11 -27 -28 -56 -37 -62 -19 -14 -71 -17 -90 -5
-20 13 3 75 47 129 22 26 35 50 29 52 -26 8 -117 -111 -126 -167 -5 -30 -8
-33 -32 -27 -38 9 -44 19 -36 62 5 30 26 57 101 132 88 87 102 111 69 111 -23
0 -167 -142 -207 -205 -35 -53 -43 -60 -71 -60 -25 0 -32 -4 -32 -20 0 -16 9
-21 40 -26 43 -7 41 -8 -17 -15 -20 -2 -56 -11 -79 -19 -57 -20 -209 -21 -209
0 0 24 22 65 35 65 7 0 22 8 34 18 20 15 22 28 25 150 3 127 2 132 -17 132
-33 0 -104 -47 -127 -86 -16 -25 -23 -54 -25 -97 -2 -34 -10 -81 -18 -104 -9
-23 -13 -50 -11 -60 8 -30 -19 -44 -99 -50 -108 -8 -225 5 -247 27 -51 51 -23
274 48 385 34 53 105 120 145 136 18 7 40 19 49 27 24 20 295 12 309 -9 10
-14 6 -74 -7 -117 -14 -46 23 -11 50 48 15 33 43 72 61 89 38 33 131 71 177
71 16 0 51 7 77 17 l47 16 63 -36 c68 -41 81 -44 81 -22 0 20 -22 65 -31 65
-15 0 -69 118 -69 150 0 17 7 45 16 62 14 27 19 30 50 25 19 -3 47 -15 63 -26
39 -28 216 -91 257 -91 51 0 142 38 162 67 9 14 32 40 51 57 18 17 50 67 71
111 20 44 43 85 51 92 53 43 174 65 524 93 149 12 202 22 240 43 40 22 44 21
55 -8z m938 -122 c6 -32 15 -92 21 -133 23 -163 51 -292 99 -455 77 -263 131
-385 199 -449 45 -42 65 -98 69 -196 1 -25 9 -103 17 -175 9 -71 19 -164 22
-207 3 -42 8 -87 11 -100 9 -36 12 -377 4 -433 -6 -46 -7 -48 -17 -25 -9 22
-22 193 -28 365 -1 33 -9 123 -19 200 -9 77 -23 201 -32 275 -24 216 -21 206
-70 252 -95 89 -143 169 -179 300 -8 25 -19 56 -25 69 -10 18 -36 141 -78 369
-33 179 -58 400 -48 426 7 18 8 18 25 -3 10 -12 23 -48 29 -80z m-2940 30 c73
-18 112 -38 112 -58 0 -21 -24 -25 -187 -27 -133 -2 -155 0 -170 15 -16 15
-16 19 -2 32 8 9 38 19 65 24 27 5 60 13 74 19 33 14 31 14 108 -5z m2235 -34
c97 -33 103 -41 112 -154 6 -73 5 -82 -15 -108 -18 -22 -25 -25 -37 -16 -11
10 -15 8 -20 -9 -5 -19 -10 -21 -42 -16 -30 5 -42 1 -75 -25 -43 -35 -49 -36
-63 -18 -11 13 -18 361 -8 377 7 12 47 4 148 -31z m-2713 1 c0 -5 -5 -10 -11
-10 -5 0 -7 5 -4 10 3 6 8 10 11 10 2 0 4 -4 4 -10z m146 -7 c3 -10 12 -30 20
-45 19 -35 18 -41 -6 -33 -16 5 -20 2 -20 -18 0 -14 -7 -30 -15 -37 -13 -11
-15 -8 -15 16 0 16 -5 46 -11 67 -6 22 -8 45 -5 53 8 20 46 17 52 -3z m-288
-75 c-6 -16 -46 -25 -111 -27 -35 -1 -47 3 -45 12 3 7 32 14 74 18 38 3 73 6
77 7 5 1 7 -4 5 -10z m77 -37 c-9 -8 -130 -36 -184 -43 -13 -2 -26 2 -28 9 -3
7 13 14 44 18 26 3 64 10 83 15 48 11 96 12 85 1z m42 -47 c-3 -3 -12 -4 -19
-1 -8 3 -5 6 6 6 11 1 17 -2 13 -5z m-183 -39 c-4 -8 -10 -12 -15 -9 -11 6 -2
24 11 24 5 0 7 -7 4 -15z m515 -24 c15 -10 8 -15 -32 -25 -35 -8 -52 1 -36 20
13 16 47 18 68 5z m391 -41 c0 -5 -2 -10 -4 -10 -2 0 -12 -3 -20 -6 -12 -5
-15 -2 -10 10 7 17 34 22 34 6z m87 -96 c-9 -9 -28 6 -21 18 4 6 10 6 17 -1 6
-6 8 -13 4 -17z m-172 6 c3 -5 -1 -10 -10 -10 -9 0 -13 5 -10 10 3 6 8 10 10
10 2 0 7 -4 10 -10z m-5477 -276 c86 -19 109 -18 117 6 8 25 53 18 112 -19 22
-14 55 -34 73 -43 22 -13 30 -23 26 -36 -5 -14 7 -23 59 -46 87 -38 87 -49 -1
-61 -48 -6 -54 -4 -76 20 -23 25 -33 27 -154 36 -71 5 -183 17 -248 27 -106
17 -122 22 -143 46 -30 35 -29 50 4 76 24 18 35 20 97 14 39 -3 99 -12 134
-20z m392 12 c0 -3 -4 -8 -10 -11 -5 -3 -10 -1 -10 4 0 6 5 11 10 11 6 0 10
-2 10 -4z m-796 -112 c24 -9 21 -69 -5 -95 -38 -38 -109 -62 -201 -67 -50 -2
-88 0 -88 5 0 5 24 21 53 35 30 14 84 49 122 77 66 50 87 57 119 45z m5677
-141 c12 -33 8 -110 -6 -103 -5 3 -9 19 -7 36 3 27 -1 33 -22 38 -30 7 -34 30
-8 45 26 16 32 13 43 -16z m-4612 -13 c35 -17 94 -52 131 -79 82 -60 104 -67
135 -47 33 22 48 20 40 -3 -5 -16 1 -22 31 -30 21 -6 48 -8 61 -5 16 4 23 2
23 -8 0 -15 52 -68 85 -86 18 -10 17 -11 -11 -12 -20 0 -54 15 -95 41 -85 55
-143 75 -175 60 -13 -6 -24 -16 -24 -22 0 -6 -17 0 -37 12 -30 19 -58 24 -147
30 -196 12 -335 50 -353 95 -3 9 -2 28 3 43 9 24 15 26 84 32 164 12 181 11
249 -21z m7091 -44 c0 -32 -23 -76 -41 -76 -13 0 -11 94 2 107 19 19 39 3 39
-31z m-8470 -13 c8 -3 -18 -13 -57 -23 -56 -15 -80 -17 -103 -9 -33 12 -40 35
-12 42 20 5 150 -2 172 -10z m8354 -40 c10 -25 -22 -121 -44 -133 -23 -12 -22
-13 -20 55 2 74 46 127 64 78z m-8869 -44 c5 -5 -1 -9 -18 -9 -28 0 -89 -13
-168 -35 -28 -7 -52 -9 -60 -4 -20 13 4 26 71 39 30 7 69 15 85 20 33 9 74 4
90 -11z m1620 -29 c-3 -5 -10 -10 -16 -10 -5 0 -9 5 -9 10 0 6 7 10 16 10 8 0
12 -4 9 -10z m7115 -63 c0 -56 -11 -87 -30 -87 -6 0 -5 15 6 108 8 64 24 50
24 -21z m-78 -58 c-2 -60 -15 -94 -33 -83 -12 7 -11 81 2 128 15 56 33 31 31
-45z m-6577 46 c130 -8 278 -55 252 -81 -12 -12 -118 -28 -185 -26 -42 0 -73
7 -90 18 -28 19 -28 19 31 29 30 5 36 9 28 19 -8 10 -41 13 -114 13 -57 0
-110 3 -117 8 -23 14 19 35 59 30 20 -2 81 -7 136 -10z m-230 -15 c3 -5 2 -10
-4 -10 -5 0 -13 5 -16 10 -3 6 -2 10 4 10 5 0 13 -4 16 -10z m985 -86 c13 -15
13 -16 -5 -11 -11 4 -32 9 -47 13 -16 3 -28 11 -28 16 0 15 62 1 80 -18z
m6098 -73 c1 -105 -11 -140 -41 -128 -18 7 -18 7 9 144 8 40 14 75 14 78 0 3
4 5 9 5 5 0 9 -45 9 -99z m-6407 73 c7 -9 22 -20 34 -25 11 -5 43 -23 70 -40
28 -18 67 -34 88 -37 61 -8 53 -22 -12 -22 -58 0 -111 15 -111 31 0 4 -17 17
-38 29 -43 24 -84 80 -59 80 8 0 21 -7 28 -16z m204 -4 c7 -12 -2 -12 -30 0
-19 8 -19 9 2 9 12 1 25 -3 28 -9z m-411 -26 c25 -10 19 -22 -9 -16 -14 2 -25
8 -25 13 0 10 12 11 34 3z m-213 -40 c21 -13 -21 -26 -101 -31 -80 -6 -98 1
-86 34 6 14 19 15 91 10 47 -3 90 -9 96 -13z m6715 3 c2 -7 -2 -35 -11 -62 -8
-28 -15 -67 -15 -88 0 -38 -26 -115 -35 -105 -8 7 14 198 26 236 11 33 26 42
35 19z m-6380 -28 c41 -25 43 -36 7 -50 -22 -8 -30 -7 -39 5 -6 9 -20 16 -30
16 -10 0 -25 4 -32 9 -15 9 0 26 33 34 11 2 22 5 24 6 2 0 19 -8 37 -20z
m-539 5 c-3 -3 -12 -4 -19 -1 -8 3 -5 6 6 6 11 1 17 -2 13 -5z m-1087 -64 c12
-8 11 -10 -7 -10 -13 0 -23 5 -23 10 0 13 11 13 30 0z m716 -121 c9 -15 -23
-39 -50 -39 -29 0 -50 15 -44 31 7 18 84 24 94 8z m6994 -4 c0 -3 -11 -46 -24
-97 -13 -51 -26 -105 -30 -120 -4 -16 -13 -28 -22 -28 -10 0 -13 6 -10 18 13
42 46 178 46 193 0 8 5 20 12 27 12 12 28 16 28 7z m-6450 -51 c107 -2 208 -9
224 -14 16 -6 44 -10 62 -10 57 0 46 -17 -19 -30 -65 -13 -419 -16 -440 -3 -6
3 -72 9 -148 12 -76 4 -141 10 -145 14 -4 4 1 16 12 28 18 21 25 21 139 14 66
-4 208 -9 315 -11z m6346 -31 c-2 -16 -8 -45 -11 -67 -4 -21 -19 -67 -35 -101
l-29 -63 -153 -76 c-142 -71 -333 -150 -438 -181 -65 -19 -168 -54 -220 -75
-56 -22 -253 -44 -340 -38 -36 3 -101 12 -145 21 -44 8 -170 30 -280 47 -110
17 -204 35 -209 40 -5 5 8 13 30 19 122 34 526 111 580 111 19 0 78 9 132 21
106 23 450 120 503 142 19 7 90 31 159 51 69 21 154 49 189 63 51 20 68 23 82
15 25 -16 43 -7 62 33 17 36 56 52 42 18 -12 -29 -18 -91 -11 -109 11 -28 34
2 42 54 7 53 29 102 45 102 6 0 8 -12 5 -27z m242 -15 c-2 -33 -8 -44 -22 -46
-16 -3 -18 0 -12 19 4 13 9 33 11 44 4 26 4 25 16 25 6 0 9 -17 7 -42z m-7237
20 c-16 -17 -208 -17 -236 -1 -16 10 5 12 115 13 107 0 131 -2 121 -12z m-644
-14 c-3 -3 -12 -4 -19 -1 -8 3 -5 6 6 6 11 1 17 -2 13 -5z m1033 -33 c191 -13
250 -21 250 -31 0 -4 -8 -11 -17 -15 -50 -19 -655 -49 -685 -34 -9 5 -52 9
-95 9 -43 0 -96 7 -118 15 -22 8 -57 14 -77 15 -41 0 -68 8 -68 20 0 12 94 29
159 29 30 1 55 2 57 3 6 7 463 -2 594 -11z m7090 -30 c-7 -17 -13 -69 -14
-115 -1 -47 -7 -90 -14 -98 -6 -8 -16 -38 -23 -66 -15 -73 -69 -100 -69 -35 0
42 31 196 45 223 7 14 15 42 19 63 8 45 42 85 58 69 8 -8 7 -20 -2 -41z
m-6660 -41 c0 -5 -7 -10 -15 -10 -8 0 -15 5 -15 10 0 6 7 10 15 10 8 0 15 -4
15 -10z m6499 -31 c5 -14 -1 -57 -15 -117 -13 -52 -26 -122 -30 -156 -8 -70
-17 -86 -50 -86 -28 0 -29 6 -9 47 8 16 19 61 25 100 5 39 14 83 20 97 5 15
10 36 10 48 0 20 28 88 36 88 3 0 8 -10 13 -21z m-6874 -9 c-3 -5 -10 -10 -16
-10 -5 0 -9 5 -9 10 0 6 7 10 16 10 8 0 12 -4 9 -10z m6753 -154 c-6 -11 -17
-51 -25 -90 -22 -105 -46 -154 -80 -162 -15 -4 -44 -15 -63 -24 -172 -86 -170
-85 -265 -84 -49 0 -117 6 -150 12 -33 6 -147 16 -254 21 -189 10 -226 17
-199 38 22 16 239 92 308 107 160 36 355 103 467 160 29 14 63 26 77 26 14 0
28 5 31 10 3 6 15 10 26 10 16 0 18 -4 10 -17 -5 -10 -10 -43 -12 -73 -4 -49
-2 -55 15 -55 10 0 22 7 26 15 3 8 17 34 29 58 12 24 20 51 16 61 -3 10 4 30
17 46 l22 29 7 -34 c4 -19 3 -43 -3 -54z m-2778 -161 c0 -9 -6 -12 -16 -8 -13
5 -13 7 -2 14 17 11 18 11 18 -6z m3060 -21 c0 -24 -56 -164 -73 -182 -22 -23
-23 -23 -202 -17 -99 3 -192 6 -207 7 -15 0 -25 5 -21 10 9 15 85 48 111 48
12 0 48 9 80 20 l57 20 17 -20 c20 -25 33 -20 73 28 19 22 35 32 56 32 18 0
41 11 61 30 32 28 48 37 48 24z m-8795 -149 c0 -15 -8 -21 -32 -23 -31 -3 -80
14 -69 25 7 8 68 21 86 19 8 0 15 -10 15 -21z m343 -51 c12 -8 22 -26 22 -40
0 -23 -31 -64 -48 -64 -5 0 -58 -9 -120 -20 -94 -17 -143 -19 -326 -16 -208 4
-216 4 -245 27 -16 13 -29 28 -27 34 5 20 104 47 226 62 106 13 198 19 460 31
20 1 46 -5 58 -14z m-1077 -64 c23 -16 31 -17 85 -5 102 23 134 26 134 16 0
-23 -115 -44 -237 -42 -113 1 -124 -1 -142 -21 -19 -20 -26 -20 -128 -14 -59
4 -112 11 -116 15 -19 19 63 50 183 70 71 12 191 2 221 -19z m11549 -10 c0 -5
-4 -10 -10 -10 -5 0 -10 5 -10 10 0 6 5 10 10 10 6 0 10 -4 10 -10z"/>
<path d="M3932 6478 c-7 -7 -12 -24 -12 -39 0 -43 -34 -140 -64 -184 -28 -39
-28 -42 -22 -140 3 -55 9 -148 12 -207 6 -84 11 -111 24 -123 16 -15 19 -14
39 11 17 22 20 38 19 103 -1 42 4 190 10 330 7 139 11 255 9 257 -2 2 -9 -2
-15 -8z m-47 -388 c0 -32 -3 -62 -6 -65 -8 -8 -21 104 -14 116 14 22 21 5 20
-51z"/>
<path d="M2943 6243 c-39 -35 -68 -86 -60 -107 5 -14 11 -14 53 -1 49 15 64
28 64 58 0 9 6 17 13 17 10 0 14 -19 14 -74 1 -71 3 -78 48 -150 26 -42 52
-79 59 -83 6 -4 35 -8 65 -8 71 0 89 -22 49 -62 -24 -24 -30 -25 -53 -15 -36
17 -59 15 -78 -6 -10 -10 -17 -21 -17 -24 0 -3 22 -15 49 -27 76 -32 127 -111
167 -258 2 -7 19 -13 38 -13 48 0 52 22 22 106 -23 63 -24 77 -17 168 5 56 4
120 -2 150 -5 28 -6 84 -3 123 4 48 2 82 -6 99 -15 33 -127 87 -213 104 -33 6
-76 16 -96 21 -53 13 -62 12 -96 -18z m307 -143 c6 -12 10 -33 8 -48 l-4 -27
-11 27 c-17 38 -29 42 -54 17 -18 -18 -21 -29 -16 -70 7 -54 1 -59 -32 -28
-34 32 -53 83 -42 112 12 31 23 35 88 36 43 1 54 -3 63 -19z"/>
<path d="M2877 6083 c-4 -3 -7 -12 -7 -20 0 -19 34 -16 61 7 l24 19 -36 1
c-20 0 -39 -3 -42 -7z"/>
<path d="M2895 6022 c-52 -18 -76 -52 -36 -52 33 0 101 31 101 45 0 23 -13 24
-65 7z"/>
<path d="M2933 5938 c-39 -27 -48 -47 -27 -55 17 -6 74 43 74 64 0 18 -11 16
-47 -9z"/>
<path d="M2996 5881 c-28 -30 -34 -61 -12 -61 13 0 66 58 66 72 0 19 -32 12
-54 -11z"/>
<path d="M3045 5820 c-20 -21 -26 -33 -19 -40 14 -14 50 16 59 48 9 30 -6 28
-40 -8z"/>
<path d="M3520 5064 c-51 -71 -126 -118 -222 -138 -16 -4 -28 -13 -28 -21 0
-19 -1 -19 59 5 43 17 198 60 215 60 3 0 6 -6 6 -14 0 -23 -79 -55 -152 -62
-71 -7 -82 -16 -47 -35 50 -26 173 18 239 86 26 27 31 39 26 59 -7 29 -23 33
-52 11 -10 -8 -30 -15 -44 -15 -24 0 -24 0 7 23 37 25 59 60 49 76 -12 19 -21
13 -56 -35z"/>
<path d="M8235 4782 c-75 -42 -165 -108 -165 -121 0 -10 10 -12 40 -8 39 5 42
3 66 -34 l25 -40 72 3 c56 2 72 6 72 18 0 9 -11 16 -26 18 -22 3 -28 9 -32 40
-8 43 -6 45 26 37 14 -4 37 -24 52 -47 35 -52 54 -39 34 24 -11 34 -22 47 -52
62 -28 13 -36 21 -28 29 36 36 -28 51 -84 19z"/>
<path d="M8613 4760 c-13 -5 -23 -13 -23 -19 0 -11 81 -24 101 -16 8 3 36 1
63 -4 57 -10 78 -5 74 18 -5 27 -162 42 -215 21z"/>
<path d="M8831 4675 c14 -14 155 -55 190 -55 22 0 32 25 14 40 -7 6 -37 13
-66 16 -161 14 -154 15 -138 -1z"/>
<path d="M2970 4654 c0 -8 5 -12 10 -9 6 4 8 11 5 16 -9 14 -15 11 -15 -7z"/>
<path d="M2920 4162 c-7 -48 -22 -105 -32 -128 -20 -41 -21 -78 -3 -77 10 1
56 119 49 125 -2 2 4 23 12 47 14 41 11 105 -6 116 -4 2 -13 -35 -20 -83z"/>
<path d="M3527 3243 c-10 -9 -9 -23 2 -23 5 0 11 7 15 15 5 15 -5 20 -17 8z"/>
<path d="M9218 3812 c-37 -23 -37 -46 0 -37 34 8 72 32 72 45 0 15 -42 10 -72
-8z"/>
<path d="M9239 3741 c-45 -14 -111 -63 -100 -74 10 -10 29 -5 149 44 49 20 5
46 -49 30z"/>
<path d="M8581 3564 c0 -11 3 -14 6 -6 3 7 2 16 -1 19 -3 4 -6 -2 -5 -13z"/>
<path d="M7410 2521 c0 -4 11 -6 25 -3 14 2 25 6 25 8 0 2 -11 4 -25 4 -14 0
-25 -4 -25 -9z"/>
<path d="M6303 2208 c-6 -7 -13 -30 -16 -52 -3 -21 -8 -41 -11 -43 -10 -10
-26 9 -26 31 0 33 -24 61 -45 52 -16 -6 -17 -18 -13 -127 4 -94 9 -124 22
-137 15 -15 17 -15 32 0 10 9 20 34 23 55 6 31 11 37 26 35 27 -5 28 -7 34
-54 7 -46 21 -57 45 -33 20 20 20 57 1 110 -8 22 -15 63 -15 92 0 28 -3 58 -6
67 -7 19 -38 21 -51 4z"/>
<path d="M6476 2157 c-21 -16 -35 -79 -36 -164 0 -51 4 -66 22 -83 26 -24 49
-25 88 -5 42 21 54 50 53 125 0 76 -12 104 -53 125 -36 18 -51 19 -74 2z m74
-127 c0 -32 -11 -50 -31 -50 -15 0 -19 7 -19 38 0 21 3 42 6 45 11 11 44 -13
44 -33z"/>
<path d="M7298 2128 c-34 -37 -41 -41 -49 -26 -13 23 -39 48 -50 48 -17 0 -22
-50 -6 -68 20 -24 56 -138 59 -192 3 -38 6 -45 26 -48 29 -4 54 50 45 101 -9
56 5 102 44 153 33 45 34 48 17 61 -29 21 -45 16 -86 -29z"/>
<path d="M6684 2135 c-3 -8 -2 -58 3 -112 7 -81 11 -98 26 -101 12 -3 19 5 23
28 10 45 27 33 79 -55 16 -26 48 -24 60 5 14 30 5 214 -11 230 -17 17 -44 0
-44 -29 0 -40 -11 -72 -24 -68 -6 2 -23 29 -38 60 -21 41 -34 57 -49 57 -11 0
-22 -7 -25 -15z"/>
<path d="M6980 2135 c-23 -28 8 -258 38 -282 23 -19 97 -16 113 3 11 14 10 18
-6 30 -10 8 -26 14 -35 14 -46 0 -53 53 -9 75 36 19 34 33 -9 60 -31 20 -43
55 -19 55 7 0 23 7 35 16 18 13 21 19 11 30 -16 19 -103 19 -119 -1z"/>
<path d="M7445 1714 c-84 -42 -115 -67 -101 -82 4 -3 44 13 89 36 45 23 87 42
92 42 6 0 21 7 34 16 18 13 20 18 10 25 -21 13 -27 11 -124 -37z"/>
<path d="M7525 1649 c-80 -31 -98 -39 -93 -45 9 -8 137 27 148 41 19 22 -3 24
-55 4z"/>
<path d="M3035 2380 c-3 -5 3 -15 15 -22 11 -7 20 -21 20 -30 0 -20 15 -24 25
-8 4 6 23 8 43 5 32 -5 35 -4 18 7 -10 7 -31 23 -46 36 -29 23 -64 29 -75 12z"/>
<path d="M3259 2270 c24 -21 51 -26 51 -12 0 10 -45 32 -63 32 -7 -1 -1 -10
12 -20z"/>
<path d="M3220 2130 c0 -5 4 -10 9 -10 6 0 13 5 16 10 3 6 -1 10 -9 10 -9 0
-16 -4 -16 -10z"/>
<path d="M4472 1789 c2 -7 24 -20 49 -29 24 -9 64 -26 89 -37 25 -12 68 -27
95 -33 28 -7 127 -36 220 -65 307 -97 528 -154 705 -180 57 -9 127 -22 155
-30 59 -17 189 -35 248 -35 22 0 79 -12 126 -26 56 -17 95 -24 117 -19 24 4
45 0 75 -15 28 -15 52 -20 73 -16 17 3 52 -1 79 -9 58 -17 292 -36 442 -35 61
1 153 -3 205 -9 159 -16 816 -26 825 -12 4 7 5 14 4 16 -2 2 -132 6 -289 9
-358 8 -784 24 -802 31 -19 7 -134 16 -193 15 -66 -2 -337 29 -400 45 -27 8
-93 20 -145 29 -52 8 -129 22 -170 30 -41 8 -131 24 -200 37 -69 12 -145 29
-170 39 -25 9 -65 18 -89 19 -25 0 -55 8 -67 16 -13 8 -35 15 -49 15 -28 0
-150 33 -300 80 -49 16 -119 36 -155 45 -36 9 -74 22 -85 28 -11 6 -38 14 -60
18 -88 17 -220 50 -230 58 -5 5 -23 11 -40 15 -16 4 -38 9 -49 13 -12 3 -17 1
-14 -8z"/>
<path d="M5306 1662 c12 -11 165 -52 193 -52 11 0 58 -11 103 -24 46 -13 144
-33 218 -45 74 -11 198 -30 275 -42 134 -21 249 -28 261 -16 4 3 -11 8 -32 12
-22 3 -109 19 -194 35 -201 38 -349 60 -408 60 -26 1 -65 7 -87 15 -22 8 -47
15 -55 15 -8 0 -26 6 -40 13 -14 7 -50 14 -80 15 -30 1 -71 6 -90 12 -42 12
-78 13 -64 2z"/>
<path d="M6520 1440 c0 -5 9 -10 21 -10 11 0 17 5 14 10 -3 6 -13 10 -21 10
-8 0 -14 -4 -14 -10z"/>
<path d="M6690 1422 c0 -20 244 -37 530 -37 162 0 300 -4 307 -8 7 -4 20 -3
30 2 10 5 29 14 43 20 19 8 -27 11 -190 11 -118 0 -298 4 -400 9 -240 12 -320
13 -320 3z"/>
<path d="M8854 1390 c-11 -4 -51 -11 -89 -14 -72 -7 -109 -21 -100 -37 9 -13
41 -11 136 10 96 22 119 30 119 42 0 11 -38 11 -66 -1z"/>
<path d="M8425 1303 c-11 -2 -44 -9 -72 -14 -29 -6 -53 -15 -53 -21 0 -7 18
-8 53 -4 85 12 147 27 147 37 0 9 -38 10 -75 2z"/>
<path d="M8118 1263 c-22 -6 -23 -22 -3 -29 23 -9 65 5 65 21 0 15 -25 18 -62
8z"/>
<path d="M6200 1140 c20 -13 73 -13 65 0 -3 6 -23 10 -43 10 -28 0 -33 -3 -22
-10z"/>
<path d="M6585 1100 c3 -5 21 -10 38 -10 24 0 28 3 17 10 -20 13 -63 13 -55 0z"/>
<path d="M6790 1050 c20 -13 53 -13 45 0 -3 6 -18 10 -33 10 -21 0 -24 -2 -12
-10z"/>
<path d="M7406 791 c-15 -24 36 -32 196 -27 242 8 266 24 38 25 -102 1 -195 4
-206 7 -12 3 -25 1 -28 -5z"/>
<path d="M7878 783 c7 -3 16 -2 19 1 4 3 -2 6 -13 5 -11 0 -14 -3 -6 -6z"/>
<path d="M10095 2651 c-17 -33 -25 -37 -42 -20 -15 15 -33 3 -33 -22 0 -16 5
-19 20 -14 28 9 27 -24 -2 -74 -24 -42 -19 -71 11 -71 11 0 22 -9 26 -20 3
-11 13 -20 22 -20 8 0 20 -13 26 -30 6 -16 15 -30 19 -30 12 0 49 80 42 91 -4
6 -15 4 -31 -7 -25 -15 -26 -15 -19 1 11 29 25 148 23 195 -2 38 -5 45 -24 48
-16 2 -26 -5 -38 -27z"/>
<path d="M9442 2425 c-33 -28 -108 -64 -133 -65 -9 0 -64 -16 -122 -35 -58
-19 -115 -35 -126 -35 -32 0 -25 -13 17 -33 47 -23 112 -15 119 14 3 12 27 25
67 39 90 30 231 103 231 119 0 24 -21 23 -53 -4z"/>
<path d="M9501 2328 c-24 -11 -67 -24 -95 -28 -42 -6 -138 -36 -156 -48 -9 -6
25 -21 40 -18 8 3 59 12 114 22 81 14 104 22 132 46 57 50 42 61 -35 26z"/>
<path d="M9495 2225 c-75 -26 -167 -47 -239 -55 -88 -9 -105 -14 -93 -26 14
-14 329 38 365 60 28 17 2 33 -33 21z"/>
<path d="M9385 2118 c-35 -11 -93 -21 -138 -22 -77 -2 -106 -14 -92 -36 15
-24 274 11 311 40 20 17 18 40 -3 39 -10 -1 -45 -10 -78 -21z"/>
<path d="M9437 2044 c-3 -3 -46 -9 -96 -12 -50 -4 -91 -11 -91 -17 0 -17 125
-18 164 -1 20 8 36 20 36 25 0 12 -4 14 -13 5z"/>
<path d="M8433 1959 c-32 -20 -42 -42 -25 -53 10 -6 72 48 72 63 0 16 -11 13
-47 -10z"/>
<path d="M9303 1963 c-55 -5 -55 -19 -1 -26 51 -7 94 1 109 19 12 15 -7 16
-108 7z"/>
<path d="M9361 1886 c-16 -9 -19 -14 -10 -18 23 -8 88 3 100 18 9 12 5 14 -27
14 -22 -1 -50 -7 -63 -14z"/>
<path d="M8352 1841 c-22 -51 -29 -125 -13 -150 12 -19 20 -2 27 65 3 33 13
70 21 83 13 20 13 25 0 38 -12 12 -17 8 -35 -36z"/>
<path d="M1104 3245 c-8 -19 4 -45 27 -56 8 -4 46 -12 84 -18 39 -6 119 -18
179 -27 96 -16 123 -16 240 -5 146 14 200 31 194 58 -2 10 -10 17 -18 16 -70
-10 -242 -20 -270 -17 -19 3 -80 12 -135 20 -55 8 -134 19 -175 24 -41 5 -85
12 -97 16 -17 4 -25 1 -29 -11z"/>
<path d="M880 3235 c-52 -19 -126 -35 -161 -35 -16 0 -47 -9 -69 -20 -23 -12
-59 -20 -86 -20 -25 0 -72 -7 -103 -14 -37 -10 -124 -16 -258 -18 l-203 -3 0
-35 0 -35 113 -4 c341 -11 524 1 678 44 80 22 105 34 145 70 49 42 49 43 30
64 -21 24 -36 25 -86 6z"/>
<path d="M1780 2536 c-12 -11 -337 -58 -459 -66 -217 -15 -616 -12 -801 6 -91
9 -210 20 -265 25 -55 4 -122 13 -150 18 -27 5 -62 10 -77 10 -26 1 -28 -2
-28 -36 l0 -38 148 -2 c85 -1 183 -8 232 -18 47 -8 128 -20 180 -26 91 -10
168 -39 155 -58 -2 -5 -37 -7 -77 -5 -40 1 -165 5 -278 8 -193 6 -282 16 -322
37 -31 16 -39 10 -36 -23 l3 -33 220 -13 c134 -8 305 -10 439 -7 145 4 237 2
275 -5 31 -7 66 -14 78 -16 36 -7 16 -32 -37 -48 -26 -8 -108 -19 -181 -26
-74 -6 -163 -18 -199 -26 -88 -19 -395 -21 -473 -4 -51 12 -60 12 -74 -3 -27
-26 -1 -43 80 -52 65 -8 130 -8 472 -1 135 3 254 20 331 47 33 11 81 24 107
29 26 5 82 23 124 40 42 17 83 28 90 25 8 -3 23 0 33 5 10 5 69 17 132 25 251
32 448 69 448 83 0 9 -6 12 -17 7 -10 -4 -62 -11 -116 -16 -54 -4 -101 -11
-106 -13 -4 -3 -37 -8 -72 -11 -35 -3 -84 -9 -109 -15 -67 -14 -136 -12 -176
5 -22 9 -65 14 -117 13 -153 -2 -228 2 -249 13 -36 19 -5 25 197 38 255 16
469 42 544 66 25 8 72 20 104 27 32 7 58 18 58 23 0 11 -24 19 -31 11z"/>
<path d="M840 2287 c0 -40 23 -51 61 -31 31 16 32 17 14 30 -10 8 -24 14 -31
14 -7 0 -19 3 -28 6 -12 5 -16 0 -16 -19z"/>
<path d="M1658 2293 c7 -3 16 -2 19 1 4 3 -2 6 -13 5 -11 0 -14 -3 -6 -6z"/>
<path d="M1355 1453 c-16 -2 -48 -11 -70 -18 -113 -41 -394 -75 -611 -75 -57
0 -114 -4 -128 -10 -28 -10 -82 -12 -176 -3 -99 8 -370 -7 -370 -21 0 -7 21
-12 52 -12 29 -1 100 -7 158 -13 105 -11 681 2 703 16 5 3 42 9 81 14 39 4
109 15 156 24 47 9 109 20 137 25 135 23 198 91 68 73z"/>
<path d="M3670 1250 c10 -18 40 -29 40 -14 0 10 -28 34 -40 34 -8 0 -8 -6 0
-20z"/>
<path d="M4665 1115 c-22 -8 -56 -14 -75 -14 -60 -2 -65 -16 -9 -29 64 -15
115 -15 195 0 78 14 84 29 9 23 -55 -5 -65 1 -43 23 16 16 -23 15 -77 -3z"/>
<path d="M972 940 c-24 -11 -67 -26 -95 -34 -63 -18 -225 -74 -249 -87 -10 -5
-102 -21 -205 -34 -147 -19 -195 -22 -228 -14 -36 9 -48 8 -88 -11 -49 -23
-52 -27 -39 -48 7 -10 29 -10 108 -1 54 6 133 12 174 14 41 2 116 9 165 15 50
7 99 12 110 12 11 0 47 11 80 23 33 13 89 31 125 40 35 9 82 27 105 40 22 12
57 28 77 35 34 10 41 9 69 -11 44 -31 189 -41 435 -29 152 7 205 13 269 32 51
15 81 29 83 39 2 14 -4 15 -45 8 -26 -5 -86 -13 -132 -19 -47 -6 -104 -15
-127 -21 -30 -8 -52 -8 -72 -1 -16 5 -49 8 -74 5 -55 -6 -244 14 -273 30 -11
6 -36 14 -55 18 -19 4 -44 10 -55 13 -11 3 -40 -3 -63 -14z"/>
<path d="M4725 930 l-90 -5 55 -8 c30 -4 112 -9 181 -11 70 -3 145 -10 167
-16 36 -9 41 -14 44 -43 l3 -32 65 -3 c36 -2 124 1 195 7 72 6 200 14 285 17
133 5 344 34 359 49 11 11 -79 4 -134 -11 -35 -9 -78 -13 -102 -10 -23 3 -115
0 -205 -6 -230 -16 -439 -13 -451 7 -5 10 -4 17 5 19 7 3 110 8 228 11 118 4
260 10 315 14 l100 6 -65 8 c-79 8 -829 14 -955 7z"/>
<path d="M465 690 c-38 -3 -66 -7 -61 -8 18 -4 -38 -52 -59 -52 -13 0 -43 -12
-69 -26 -65 -36 -161 -64 -223 -64 -49 0 -53 -2 -53 -24 l0 -24 142 35 c242
59 433 128 433 158 0 13 -22 14 -110 5z"/>
<path d="M5465 538 c-38 -11 -83 -23 -100 -28 -53 -16 -205 -30 -441 -40 -128
-5 -263 -16 -303 -25 -40 -8 -90 -15 -112 -15 -37 0 -62 -20 -45 -37 3 -4 81
6 174 21 152 24 182 26 332 20 177 -7 284 2 420 38 106 27 157 47 163 63 9 22
-14 23 -88 3z"/>
</g>
</svg>
