<?xml version="1.0" standalone="no"?>
<!DOCTYPE svg PUBLIC "-//W3C//DTD SVG 20010904//EN"
 "http://www.w3.org/TR/2001/REC-SVG-20010904/DTD/svg10.dtd">
<svg version="1.0" xmlns="http://www.w3.org/2000/svg"
 width="1249.000000pt" height="1280.000000pt" viewBox="0 0 1249.000000 1280.000000"
 preserveAspectRatio="xMidYMid meet">
<metadata>
Created by potrace 1.15, written by Peter Selinger 2001-2017
</metadata>
<g transform="translate(0.000000,1280.000000) scale(0.100000,-0.100000)"
fill="#000000" stroke="none">
<path d="M8343 12793 c-7 -2 -13 -15 -13 -29 0 -17 10 -29 39 -43 37 -19 39
-19 55 -2 21 23 20 44 -2 64 -18 16 -54 21 -79 10z"/>
<path d="M7653 12664 l-56 -56 -126 2 c-159 3 -146 4 -174 -26 -22 -24 -27
-25 -64 -15 -22 6 -52 20 -66 31 -34 27 -48 25 -92 -10 -21 -16 -41 -30 -46
-30 -5 0 -24 14 -42 30 -41 35 -52 37 -69 10 -14 -22 -81 -29 -93 -10 -21 35
-74 -40 -75 -105 0 -17 -7 -40 -15 -52 -20 -28 -52 -152 -61 -235 -6 -53 -12
-68 -39 -93 -35 -33 -114 -65 -161 -65 -17 0 -45 -11 -64 -25 -19 -14 -42 -25
-52 -25 -45 0 -158 77 -158 107 0 13 -37 18 -64 7 -10 -4 -16 -18 -16 -35 0
-27 -3 -29 -40 -29 -33 0 -40 -3 -40 -20 0 -19 -44 -40 -57 -27 -12 13 -45
-15 -40 -34 4 -15 0 -19 -19 -19 -21 0 -23 2 -12 25 8 19 8 28 -2 40 -11 13
-10 19 4 33 22 25 20 42 -4 42 -11 0 -20 -5 -20 -11 0 -24 -53 -79 -77 -79
-45 0 -81 27 -85 62 -2 24 -7 32 -18 29 -8 -2 -49 -7 -90 -10 -88 -7 -104 -15
-90 -41 13 -24 63 -41 100 -33 50 10 76 -3 89 -44 7 -21 14 -43 17 -49 3 -6
-5 -14 -17 -17 -16 -4 -29 1 -45 18 -13 14 -29 25 -35 25 -7 0 -20 6 -28 14
-40 34 -99 26 -87 -12 10 -31 -28 -65 -66 -60 -21 4 -32 0 -40 -15 -16 -32 5
-64 52 -78 67 -20 67 -33 1 -63 -32 -14 -61 -26 -65 -26 -6 0 -45 -23 -126
-76 -40 -26 -170 -75 -181 -69 -4 3 -36 -24 -73 -60 -46 -45 -71 -63 -82 -58
-14 5 -16 1 -10 -30 6 -31 2 -40 -24 -70 -34 -39 -43 -95 -12 -81 29 14 172
16 272 4 213 -26 291 -31 405 -30 66 0 126 -3 134 -9 11 -7 12 -20 1 -75 -7
-36 -17 -69 -22 -72 -5 -3 -24 11 -43 33 -18 21 -36 35 -40 32 -3 -4 2 -42 12
-85 11 -44 19 -114 18 -158 0 -81 -3 -86 -47 -100 -16 -5 -18 -21 -20 -138 -2
-203 1 -256 23 -349 17 -70 29 -96 65 -143 46 -58 95 -96 127 -96 39 0 13 -18
-43 -30 -33 -7 -60 -17 -60 -22 0 -12 63 -38 93 -38 13 0 28 5 34 11 5 5 46
11 89 12 l79 2 0 -160 c0 -150 7 -205 37 -304 6 -18 12 -95 14 -170 6 -186 27
-330 75 -518 59 -230 55 -210 37 -195 -9 7 -21 26 -28 43 -13 30 -24 31 -26 1
-3 -50 0 -48 -76 -40 -146 16 -284 39 -333 56 -16 6 -61 22 -99 36 -38 14 -80
26 -94 26 -14 0 -35 8 -46 19 -12 10 -50 24 -85 30 -35 7 -75 20 -88 28 -18
12 -66 17 -220 21 -208 5 -321 -4 -493 -40 -52 -11 -113 -22 -135 -24 -31 -2
-387 -3 -591 -1 -19 0 -52 -12 -81 -31 -29 -18 -63 -32 -81 -32 -17 0 -43 -5
-59 -11 -36 -13 -166 -90 -175 -104 -32 -44 50 -28 143 29 131 79 271 119 345
97 16 -4 84 -6 150 -2 66 4 138 2 162 -3 29 -6 65 -6 115 3 39 6 103 14 141
17 38 2 77 9 88 15 11 6 41 12 66 14 26 2 90 9 142 16 131 18 225 18 360 4 96
-11 150 -25 310 -79 203 -68 305 -92 528 -124 73 -11 134 -21 135 -23 1 -2 12
-18 24 -36 l23 -32 -30 -24 c-16 -14 -53 -33 -82 -42 -29 -10 -64 -24 -78 -31
-41 -22 -152 -65 -190 -74 -220 -52 -420 -77 -420 -51 0 24 223 85 275 75 48
-9 97 4 93 24 -4 20 -55 31 -145 31 -65 1 -126 -10 -203 -36 -110 -37 -149
-42 -369 -48 -124 -4 -243 -11 -264 -16 -46 -12 -187 -1 -187 15 0 6 -4 17 -9
25 -7 11 -19 8 -62 -19 -51 -31 -58 -32 -163 -34 -129 -2 -145 4 -115 45 27
38 13 37 -60 -6 -55 -32 -67 -36 -123 -33 -72 4 -87 21 -35 43 39 16 147 101
147 116 0 16 -20 10 -63 -20 -23 -16 -73 -43 -112 -60 -38 -18 -79 -41 -91
-52 -20 -19 -35 -21 -195 -21 -120 0 -190 -5 -227 -15 -29 -8 -65 -12 -79 -8
-24 6 -84 -3 -178 -26 -22 -6 -67 -16 -100 -24 -33 -7 -78 -20 -100 -29 -22
-8 -52 -15 -68 -16 -15 0 -35 -4 -45 -9 -65 -33 -109 -44 -197 -52 -117 -10
-220 -2 -236 17 -16 19 -94 18 -113 -2 -19 -18 -19 -24 -7 -57 9 -22 17 -25
93 -31 113 -9 109 -9 233 -1 148 9 297 45 450 108 28 11 68 22 90 23 22 2 58
8 80 13 71 16 397 33 409 21 7 -7 7 -13 1 -18 -157 -108 -175 -124 -175 -152
0 -31 -31 -60 -86 -80 -36 -14 -189 -112 -257 -165 -29 -23 -92 -68 -141 -100
-49 -33 -96 -64 -104 -70 -9 -5 -28 -24 -44 -42 -16 -18 -39 -35 -51 -39 -24
-8 -61 -32 -127 -85 -71 -57 -266 -202 -297 -221 -29 -18 -103 -75 -138 -107
-11 -10 -33 -26 -50 -36 -27 -17 -60 -44 -150 -120 -16 -14 -42 -33 -56 -43
-37 -24 -139 -125 -139 -138 0 -5 -14 -23 -30 -39 -28 -26 -36 -29 -91 -27
-34 2 -67 -2 -75 -9 -7 -6 -22 -8 -33 -4 -26 8 -86 -20 -111 -53 -22 -27 -27
-91 -9 -123 13 -26 6 -48 -36 -101 -19 -23 -35 -49 -35 -56 0 -7 -5 -21 -11
-31 -10 -14 -7 -26 11 -59 22 -39 22 -42 6 -67 -27 -41 -17 -77 26 -98 33 -16
36 -21 31 -51 -11 -69 42 -105 113 -79 21 8 53 18 69 23 17 4 57 22 89 40 51
27 63 29 89 20 46 -16 135 -12 207 9 36 10 91 21 123 25 82 11 281 71 331 101
22 13 56 31 73 40 39 18 50 52 30 91 -19 37 -67 190 -67 212 0 15 20 21 122
36 68 10 153 25 189 33 36 9 73 14 81 10 20 -7 61 -112 87 -219 22 -92 20
-118 -8 -118 -10 0 -50 -11 -89 -25 -58 -20 -91 -25 -170 -25 -111 0 -134 -10
-152 -65 -6 -19 -16 -35 -21 -35 -5 0 -9 -4 -9 -10 0 -5 14 -10 30 -10 17 0
30 4 30 9 0 5 16 19 37 31 27 16 45 20 72 15 21 -3 77 3 134 15 55 11 102 18
107 15 10 -6 168 23 200 37 45 20 154 39 235 42 44 2 125 8 180 14 55 6 150
16 210 23 74 7 138 21 195 41 47 17 101 33 120 36 19 2 42 10 50 17 8 7 38 23
67 35 29 12 58 28 64 36 6 8 18 14 25 14 8 0 41 18 73 40 32 22 76 47 97 56
48 20 81 47 239 194 67 63 153 140 189 170 74 61 156 107 156 89 0 -16 -48
-118 -72 -152 -34 -48 -99 -178 -125 -251 -14 -39 -54 -129 -87 -201 -72 -150
-95 -221 -132 -395 -14 -69 -37 -152 -50 -184 -13 -33 -24 -70 -24 -82 0 -12
-7 -35 -15 -51 -26 -49 -55 -121 -55 -136 0 -8 -9 -25 -19 -39 -11 -13 -23
-37 -26 -51 -4 -15 -11 -30 -17 -33 -5 -3 -19 -29 -32 -57 -21 -48 -55 -91
-217 -269 -75 -81 -86 -97 -124 -173 -19 -37 -37 -60 -47 -59 -10 1 -14 -5
-11 -17 7 -27 -26 -25 -112 7 -75 28 -203 49 -380 64 -151 12 -314 29 -347 35
-15 2 -43 -2 -62 -10 -20 -8 -53 -15 -75 -15 -22 0 -55 -6 -73 -14 -39 -16
-78 -30 -173 -63 -38 -13 -78 -32 -90 -42 -11 -10 -46 -35 -77 -55 -67 -44
-174 -156 -215 -224 -27 -46 -30 -63 -49 -253 -6 -63 -5 -70 39 -168 41 -92
45 -105 33 -124 -23 -36 -27 -147 -8 -179 16 -27 15 -29 -5 -43 -34 -24 -40
-153 -13 -275 12 -52 25 -111 29 -130 21 -91 158 -470 225 -618 25 -56 46
-106 46 -111 0 -19 198 -411 227 -447 16 -22 56 -82 88 -134 32 -52 89 -140
125 -195 88 -132 103 -163 102 -207 -1 -22 5 -45 17 -59 l18 -23 79 28 c101
37 284 118 333 148 15 9 23 9 36 -2 19 -16 95 -172 95 -195 0 -10 11 -31 26
-47 75 -90 97 -203 49 -248 -23 -21 -51 -58 -153 -197 -18 -24 -56 -88 -84
-141 -28 -54 -59 -106 -68 -117 -22 -24 -85 -151 -93 -185 -4 -14 -19 -39 -34
-55 -32 -33 -93 -144 -93 -168 0 -8 7 -20 15 -27 20 -16 73 16 144 88 30 30
79 68 110 84 31 16 69 43 85 60 17 16 47 38 68 49 21 10 47 32 59 48 11 15 41
41 65 56 25 16 50 37 55 46 14 27 220 160 257 166 42 7 43 -14 1 -62 -18 -20
-29 -38 -25 -42 7 -7 82 25 96 42 6 7 21 10 33 8 18 -4 31 4 52 29 19 23 35
32 51 30 17 -2 23 2 26 19 2 12 9 24 16 27 17 5 16 -58 -4 -183 -13 -85 -13
-124 -3 -260 9 -124 15 -163 27 -172 34 -28 37 -16 34 149 -3 124 0 180 12
231 9 38 16 89 16 115 0 71 19 256 37 355 8 49 17 105 18 125 16 195 28 294
40 332 7 25 16 79 19 120 8 95 19 135 63 239 47 110 100 296 113 396 12 84 60
242 85 278 8 12 15 34 15 49 0 15 4 29 9 32 5 4 38 61 74 129 64 120 108 193
166 272 16 22 37 54 45 70 19 36 87 90 132 105 19 6 34 18 34 26 0 8 7 14 16
14 9 0 44 21 77 46 34 25 77 55 97 65 19 11 42 23 50 28 8 5 49 25 91 45 42
19 82 42 89 51 7 8 18 15 26 15 7 0 19 8 26 18 12 17 49 42 62 42 17 0 1 -41
-31 -82 -21 -25 -63 -79 -93 -118 -30 -39 -81 -101 -112 -138 -32 -36 -58 -71
-58 -77 0 -6 -10 -22 -22 -35 -32 -34 -208 -302 -208 -316 0 -6 -18 -33 -40
-60 -22 -26 -58 -86 -81 -131 -23 -46 -45 -86 -50 -88 -4 -3 -15 -29 -25 -58
-9 -28 -27 -73 -41 -99 -13 -26 -30 -77 -39 -114 -8 -36 -19 -73 -24 -82 -20
-37 -63 -139 -71 -167 -4 -16 -18 -57 -30 -90 -12 -33 -26 -78 -31 -100 -26
-114 -51 -257 -54 -310 -8 -145 -13 -204 -19 -246 -3 -24 -8 -60 -10 -79 -2
-19 -9 -66 -15 -104 -15 -88 -8 -381 14 -546 17 -132 63 -275 88 -275 21 0 21
53 -1 114 -20 58 -34 240 -34 466 -1 156 41 575 72 734 11 53 22 119 26 146 4
28 18 82 31 121 13 39 34 107 45 150 11 44 36 117 54 164 19 47 41 121 49 165
17 84 105 276 151 325 12 14 26 36 30 50 4 14 23 42 41 62 18 21 40 54 49 74
8 21 39 74 68 118 30 45 76 119 103 165 27 46 64 100 82 119 17 19 32 38 32
42 0 4 9 15 20 25 11 10 17 21 15 25 -2 4 4 15 15 25 11 10 20 22 20 27 0 6
35 49 78 96 111 123 141 163 135 178 -6 15 27 63 44 64 12 0 50 36 155 148 36
39 79 77 95 85 16 9 61 49 100 91 39 42 75 76 81 76 6 0 27 13 45 30 19 16 40
30 47 30 7 0 29 14 50 30 21 17 60 40 87 52 26 11 64 34 83 49 19 16 40 29 46
29 7 0 40 21 75 47 164 121 275 192 397 254 73 38 143 75 155 84 12 8 31 15
42 15 29 0 134 52 188 93 44 33 187 107 208 107 5 0 27 9 47 20 20 11 75 33
122 51 47 17 113 44 147 59 34 16 87 34 118 41 31 7 58 16 61 21 3 4 15 8 27
8 13 0 61 16 107 36 47 20 110 40 140 45 76 11 159 28 195 41 17 6 46 14 65
18 19 5 67 16 105 25 39 9 124 23 190 31 66 8 145 19 175 25 30 5 134 10 230
10 96 0 218 3 270 8 52 4 109 4 125 -1 17 -5 67 -10 112 -12 45 -3 88 -8 95
-12 13 -8 47 -13 243 -33 108 -11 183 -26 248 -47 36 -12 51 -13 61 -5 10 9
15 8 19 -2 3 -9 29 -17 71 -21 36 -3 98 -17 138 -31 40 -13 111 -33 158 -45
179 -44 383 -121 511 -191 70 -38 132 -69 137 -69 31 0 197 -62 234 -88 24
-16 62 -39 85 -51 23 -11 77 -52 120 -89 125 -108 113 -106 113 -18 l0 76 -66
48 c-237 172 -623 369 -828 424 -39 10 -84 23 -101 28 -74 23 -308 80 -390 95
-49 9 -103 21 -120 27 -54 17 -192 47 -320 68 -38 6 -110 21 -160 32 -80 18
-125 20 -420 21 -209 0 -354 -4 -396 -11 -37 -7 -116 -14 -175 -17 -60 -3
-127 -10 -149 -16 -22 -6 -69 -14 -105 -19 -36 -5 -93 -15 -127 -24 -33 -9
-75 -16 -92 -16 -17 0 -78 -16 -135 -35 -58 -19 -121 -35 -141 -35 -20 0 -46
-5 -58 -12 -12 -6 -62 -22 -112 -34 -342 -84 -574 -170 -715 -265 -69 -47 -82
-54 -284 -148 -142 -67 -179 -77 -130 -33 28 25 104 82 143 107 9 6 31 25 48
42 18 17 75 57 125 88 51 32 122 79 158 105 68 49 91 63 177 105 29 13 78 45
108 70 63 51 105 75 132 75 10 0 37 9 58 21 42 21 166 65 270 94 33 9 76 23
95 31 19 8 60 19 90 23 30 5 68 15 85 21 16 6 61 18 100 26 38 8 104 25 145
39 130 42 380 75 615 81 407 11 872 0 949 -22 27 -8 68 -14 90 -14 23 -1 68
-7 101 -15 33 -8 80 -15 105 -15 28 0 56 -8 75 -20 17 -11 41 -20 55 -20 14 0
54 -9 88 -20 35 -11 75 -20 88 -20 14 0 47 -11 74 -25 27 -14 55 -25 63 -25 7
0 36 -11 63 -25 87 -46 252 -101 400 -134 69 -15 119 -35 202 -81 61 -33 132
-67 159 -76 26 -9 71 -29 99 -45 28 -16 54 -29 58 -29 3 0 6 21 6 48 0 40 -5
51 -28 70 -42 35 -337 164 -507 222 -82 28 -190 67 -240 85 -334 128 -564 185
-875 215 -352 35 -377 36 -765 40 -292 3 -467 -7 -575 -32 -25 -6 -67 -13 -95
-15 -27 -3 -65 -11 -84 -19 -18 -8 -43 -14 -54 -14 -28 0 -197 -39 -219 -51
-10 -5 -29 -9 -42 -9 -35 0 -154 -28 -196 -45 -19 -8 -68 -22 -108 -30 -40 -8
-91 -24 -114 -36 -56 -29 -118 -50 -128 -44 -5 3 18 33 50 68 56 61 215 254
235 286 6 9 25 34 44 55 70 81 179 358 217 551 9 50 18 147 19 220 2 88 8 146
19 180 18 56 123 239 155 270 12 12 21 28 21 38 0 23 16 21 51 -5 68 -54 91
-70 219 -156 74 -50 162 -111 195 -136 36 -27 79 -50 110 -57 109 -27 364 -4
502 45 40 14 85 26 100 26 16 0 55 12 88 27 105 45 188 70 306 92 63 12 143
29 180 37 36 8 90 19 120 24 29 5 86 19 124 33 39 13 102 30 140 36 38 7 85
19 104 28 20 8 88 19 151 24 157 13 226 34 283 87 18 17 27 36 27 55 l0 30 58
-6 c32 -4 85 -14 118 -22 96 -26 104 -27 214 -30 58 -1 118 -7 133 -14 16 -6
33 -9 38 -5 5 3 9 29 9 58 l0 53 -177 12 c-154 10 -323 13 -402 8 -28 -2 -32
15 -34 143 -1 75 3 94 31 161 18 42 45 87 60 101 31 29 197 128 256 152 39 16
86 21 86 9 0 -3 -22 -30 -50 -59 -27 -29 -50 -62 -50 -74 0 -25 26 -37 49 -23
11 7 22 6 36 -3 11 -7 59 -21 108 -32 l87 -19 0 24 c0 12 -6 23 -12 24 -88 6
-115 11 -153 28 -25 11 -45 24 -45 28 1 15 36 50 123 122 73 60 87 77 87 101
0 42 -33 58 -74 37 -117 -59 -212 -99 -283 -117 -44 -12 -114 -40 -155 -63
-69 -39 -73 -44 -78 -82 -8 -59 -60 -138 -60 -91 0 24 -28 26 -106 6 -43 -11
-89 -20 -104 -20 -14 0 -31 -5 -37 -11 -15 -15 -82 -29 -89 -18 -8 13 -35 11
-48 -4 -7 -8 -53 -18 -116 -25 -76 -8 -144 -24 -244 -56 -76 -26 -143 -46
-150 -46 -6 0 -28 -9 -49 -20 -20 -11 -43 -20 -51 -20 -8 0 -52 -12 -98 -26
-46 -15 -116 -33 -156 -40 -72 -12 -141 -31 -232 -61 -56 -19 -121 -33 -183
-40 -33 -3 -52 -11 -62 -26 -21 -31 -19 -47 8 -47 30 0 187 33 287 60 41 12
91 25 110 29 48 12 212 58 288 82 34 10 69 19 76 19 7 0 38 11 68 25 30 14 81
29 114 34 32 5 95 19 139 31 44 12 114 24 156 27 l76 6 23 -64 c13 -35 31 -73
40 -84 16 -19 80 -148 94 -189 8 -24 -12 -48 -34 -41 -28 9 -255 -46 -565
-135 -55 -16 -158 -43 -230 -60 -71 -18 -150 -40 -175 -50 -139 -54 -214 -80
-236 -80 -14 0 -52 -9 -85 -20 -84 -29 -224 -54 -284 -52 -120 5 -145 16 -334
150 -98 70 -194 136 -212 147 -49 29 -90 56 -143 93 -59 42 -145 79 -173 74
-32 -5 -35 -27 -7 -53 31 -29 30 -37 -5 -85 -16 -21 -45 -88 -65 -149 -21 -60
-41 -119 -46 -130 -20 -47 -23 -64 -31 -145 -13 -135 -27 -238 -34 -249 -3 -6
-17 -61 -31 -123 -13 -62 -28 -129 -33 -149 -4 -19 -26 -69 -49 -111 -23 -42
-42 -81 -42 -87 0 -7 -8 -24 -19 -39 -10 -15 -62 -94 -117 -177 -54 -82 -112
-165 -129 -185 -17 -19 -39 -47 -48 -62 -10 -16 -23 -28 -31 -28 -14 0 -106
-93 -106 -108 0 -4 -18 -21 -41 -38 -22 -16 -68 -51 -101 -79 -34 -27 -110
-81 -168 -120 -59 -38 -139 -92 -178 -120 -39 -27 -106 -72 -149 -98 -84 -53
-119 -77 -198 -136 -148 -111 -317 -231 -325 -231 -5 0 -21 -16 -36 -35 -14
-19 -35 -35 -45 -35 -11 0 -19 2 -19 5 0 3 29 44 65 90 68 89 112 169 151 270
30 80 79 197 93 221 6 10 29 69 52 129 23 61 52 137 64 170 12 32 27 61 32 62
17 6 -3 -101 -29 -157 -14 -30 -52 -113 -83 -185 -31 -71 -75 -169 -97 -216
-22 -48 -38 -93 -36 -100 3 -8 10 -2 20 16 8 17 22 44 31 60 20 38 79 169 98
215 7 19 37 79 66 133 29 54 53 100 53 102 0 2 10 25 22 52 12 26 27 66 34 88
6 22 26 78 44 125 38 103 40 113 18 118 -13 2 -18 -3 -18 -18 0 -12 -16 -55
-35 -96 -19 -40 -35 -78 -35 -82 0 -15 -28 -34 -39 -27 -7 4 -1 21 14 44 14
21 50 112 79 202 30 90 68 198 86 239 17 41 41 109 52 150 11 41 28 91 38 110
30 58 58 131 81 205 11 39 25 77 30 85 31 53 59 114 59 130 0 11 18 28 45 44
55 33 69 55 55 91 -10 27 1 59 41 116 10 14 32 61 49 104 40 100 102 208 137
235 15 11 46 60 70 108 54 109 94 176 116 199 10 10 43 52 73 93 31 41 73 93
94 115 50 51 108 148 121 202 l11 41 76 -5 c103 -7 162 -25 231 -71 48 -32 61
-37 80 -28 30 13 77 -12 157 -84 34 -30 89 -79 122 -107 33 -29 73 -73 89 -97
15 -24 51 -58 79 -76 28 -18 62 -49 75 -68 13 -19 63 -70 111 -113 98 -88 112
-92 202 -60 87 30 88 72 2 77 -47 3 -106 28 -106 44 0 5 -17 18 -37 27 -23 11
-58 46 -94 93 -31 41 -93 104 -138 140 -44 36 -80 69 -81 74 0 9 -49 54 -151
138 -93 76 -186 118 -260 118 -19 0 -68 16 -109 36 -59 29 -93 38 -160 44
-153 15 -224 37 -242 75 -6 14 -16 25 -22 25 -6 0 -45 -20 -87 -44 -82 -48
-162 -76 -220 -76 -46 0 -69 -8 -69 -25 0 -21 57 -38 105 -32 60 9 59 -5 -10
-73 -30 -30 -55 -58 -55 -63 0 -5 -15 -30 -34 -56 -52 -71 -256 -484 -256
-518 0 -11 -7 -26 -15 -33 -8 -7 -15 -20 -15 -29 0 -9 -9 -33 -20 -54 -11 -20
-20 -48 -20 -60 0 -34 -46 -240 -71 -317 -34 -105 -69 -252 -69 -288 0 -18 -6
-45 -14 -60 -8 -15 -24 -68 -35 -117 -12 -50 -39 -145 -61 -212 -22 -67 -40
-130 -40 -142 0 -11 -5 -23 -11 -27 -18 -11 -49 -86 -49 -120 0 -18 -16 -73
-35 -123 -19 -49 -35 -101 -35 -115 0 -14 -4 -27 -8 -30 -5 -3 -21 -45 -36
-93 -15 -48 -34 -104 -41 -123 -8 -19 -32 -88 -54 -152 -22 -64 -53 -143 -70
-176 -16 -32 -33 -76 -36 -98 -4 -21 -15 -52 -25 -69 -10 -16 -21 -41 -25 -55
-10 -34 -72 -133 -117 -187 -21 -24 -38 -48 -38 -53 0 -9 -52 -73 -111 -137
-16 -18 -29 -38 -29 -46 0 -16 -123 -115 -164 -132 -17 -7 -59 -13 -93 -13
-74 0 -188 -17 -262 -39 -50 -15 -60 -15 -135 0 -44 10 -90 17 -101 17 -11 0
-37 9 -58 20 -20 11 -52 20 -69 20 -18 1 -58 14 -88 30 -30 17 -68 30 -84 30
-27 0 -96 34 -304 149 -51 28 -97 51 -102 51 -5 0 -21 11 -37 24 -15 13 -46
32 -68 44 -22 11 -51 32 -65 47 -13 14 -54 40 -90 57 -45 22 -88 54 -141 107
-71 71 -76 79 -83 130 -7 57 -25 99 -49 120 -18 15 -16 73 4 97 23 28 129 323
129 360 0 23 31 107 61 166 5 10 9 27 9 38 0 19 11 48 56 148 13 29 24 61 24
71 0 10 7 22 16 25 8 3 13 10 10 15 -7 10 50 137 73 164 8 10 16 28 18 40 2
12 16 40 32 62 16 22 42 66 59 98 17 32 42 71 56 87 13 17 28 40 32 52 4 13
35 55 69 93 34 39 70 86 80 105 10 19 26 46 35 60 47 69 92 143 110 182 11 24
31 63 45 87 14 24 25 55 25 68 0 12 4 23 10 23 5 0 21 21 34 48 13 26 42 67
63 92 21 25 61 74 88 110 26 36 62 78 78 93 25 24 29 33 24 63 l-6 35 82 38
c84 39 124 71 112 90 -4 8 -13 6 -28 -4 -12 -8 -27 -15 -33 -15 -7 0 -52 -23
-101 -51 -48 -28 -131 -74 -183 -101 -52 -28 -112 -59 -132 -71 -21 -11 -40
-18 -44 -15 -19 19 73 100 151 132 45 19 87 55 79 67 -8 13 -36 11 -64 -6 -14
-8 -44 -23 -67 -35 -22 -12 -49 -30 -59 -41 -24 -26 -39 -24 -64 11 -17 24
-27 29 -55 26 -42 -3 -41 -1 -48 -54 -4 -35 -2 -47 14 -60 23 -20 27 -106 5
-119 -30 -18 -86 -67 -86 -76 0 -9 33 -6 79 9 26 8 26 22 1 -151 -17 -116 -24
-139 -42 -143 -12 -2 -14 4 -11 25 l4 28 -15 -25 c-8 -14 -20 -48 -27 -76 -10
-44 -9 -55 4 -74 17 -24 9 -69 -16 -99 -8 -9 -29 -45 -48 -81 -19 -36 -53 -84
-76 -108 -24 -23 -43 -46 -43 -50 0 -5 -11 -23 -25 -42 -14 -19 -25 -42 -25
-51 0 -10 -8 -24 -18 -31 -11 -7 -29 -35 -41 -62 -12 -28 -33 -64 -46 -82 -14
-18 -25 -38 -25 -44 0 -6 -20 -51 -45 -100 -25 -49 -45 -95 -45 -102 0 -6 -6
-19 -14 -27 -8 -9 -42 -90 -76 -181 -60 -159 -71 -191 -110 -310 -10 -30 -37
-102 -59 -160 -68 -175 -119 -375 -126 -490 -5 -85 -22 -157 -45 -195 -10 -16
-53 -62 -94 -102 -74 -70 -76 -71 -118 -66 -24 3 -50 9 -58 13 -8 4 -53 13
-100 19 -91 13 -223 68 -234 98 -4 9 2 24 14 37 51 51 113 134 130 174 10 23
26 45 34 48 23 9 111 124 124 162 6 18 20 45 32 59 11 14 20 32 20 39 0 8 15
31 34 51 44 49 96 135 96 158 0 10 15 48 34 84 36 72 35 67 76 296 18 102 46
214 78 310 58 173 193 485 256 589 24 39 57 98 74 132 17 33 55 90 84 125 66
82 205 212 249 235 42 21 150 124 143 135 -12 20 -37 5 -129 -76 -72 -63 -105
-85 -125 -85 -19 0 -33 -8 -44 -25 -12 -19 -23 -24 -37 -20 -12 4 -35 -4 -65
-24 -25 -17 -49 -31 -54 -31 -11 0 -256 -164 -286 -191 -11 -11 -25 -19 -31
-19 -18 0 -166 -116 -225 -177 -101 -103 -169 -187 -175 -216 -3 -15 -24 -43
-47 -63 -51 -44 -256 -144 -295 -144 -16 0 -46 -6 -68 -14 -22 -8 -94 -19
-161 -25 -67 -6 -132 -15 -144 -20 -13 -5 -84 -15 -158 -21 -74 -6 -146 -13
-160 -16 -63 -13 -180 -27 -230 -28 l-55 -1 -12 55 c-15 69 -60 190 -79 211
-8 8 -14 23 -14 31 0 16 13 21 95 34 91 14 201 37 217 46 24 12 208 58 233 58
12 0 61 13 110 29 50 16 116 34 148 40 31 6 66 15 76 21 11 5 31 10 44 10 13
0 63 18 110 40 47 22 89 40 95 40 5 0 33 25 60 55 28 30 77 71 111 90 33 20
65 44 70 54 5 9 40 42 77 72 38 30 111 95 163 145 53 50 125 111 161 135 36
23 88 64 115 90 28 26 71 62 97 81 82 57 192 144 206 161 8 9 30 21 50 28 40
13 107 52 117 69 3 5 18 10 32 10 29 0 79 20 168 67 11 6 49 21 85 33 199 68
277 96 290 105 29 18 192 54 262 57 l70 3 43 -96 c71 -158 202 -324 315 -400
31 -22 50 -41 50 -54 0 -11 -23 -67 -50 -124 -52 -107 -57 -125 -40 -136 18
-11 37 13 44 53 3 21 22 73 41 115 40 86 54 93 114 56 18 -11 52 -27 75 -36
22 -9 55 -27 73 -40 27 -21 38 -23 81 -17 27 3 58 2 68 -3 61 -29 484 54 484
96 0 17 -13 19 -34 6 -12 -8 -55 -19 -96 -26 -41 -6 -102 -20 -134 -30 -65
-21 -136 -25 -136 -9 0 6 6 10 13 10 15 0 176 42 282 75 44 13 98 29 120 36
61 18 128 68 210 157 71 76 91 112 62 112 -19 0 -38 -17 -99 -87 -69 -80 -200
-162 -276 -174 -30 -4 -62 -15 -71 -23 -10 -9 -27 -16 -38 -16 -12 0 -50 -7
-85 -16 -78 -21 -303 -14 -361 11 -20 8 -47 15 -61 15 -13 0 -46 11 -73 24
-26 14 -73 36 -104 50 -52 24 -108 75 -191 175 -17 19 -32 30 -39 25 -8 -4 -9
-3 -5 4 3 6 -5 33 -18 59 -14 26 -37 73 -51 103 -14 30 -44 84 -66 120 -40 63
-99 174 -99 185 0 13 20 2 60 -35 24 -22 66 -51 94 -64 28 -14 64 -38 80 -55
33 -34 46 -39 46 -16 0 22 9 19 54 -23 56 -52 117 -61 351 -53 55 2 165 1 245
-1 103 -3 156 0 184 9 21 7 57 13 80 13 45 1 87 30 122 85 10 17 23 35 27 40
5 6 17 25 28 43 10 18 27 35 37 39 9 3 63 27 119 54 103 50 143 87 143 136 0
21 -39 63 -57 63 -7 0 -13 26 -15 63 -9 127 -26 174 -94 259 -43 52 -65 89
-69 115 -4 21 -20 78 -37 128 -29 89 -29 90 -10 105 11 9 29 34 40 56 23 45
20 55 -36 118 l-35 39 6 86 c4 59 3 94 -6 110 -15 30 -29 28 -42 -7 -5 -15
-22 -48 -38 -73 -25 -43 -27 -52 -22 -125 3 -65 7 -78 20 -76 15 3 15 0 0 -28
-9 -17 -14 -47 -13 -67 3 -36 3 -36 -66 -64 -78 -33 -112 -36 -136 -14 -29 26
-77 36 -91 18 -7 -8 -32 -24 -56 -35 -24 -11 -49 -31 -56 -43 -16 -30 -113
-114 -146 -126 -123 -48 -232 -24 -243 51 -2 18 2 25 17 28 52 8 65 13 65 27
0 9 -13 18 -30 21 -16 4 -35 12 -41 20 -6 7 -14 56 -19 109 -8 94 -7 100 29
223 21 70 49 150 63 177 14 28 28 61 31 75 11 47 84 146 170 234 69 69 87 94
92 124 16 100 13 97 93 98 40 1 72 -1 72 -4 0 -3 -7 -14 -17 -24 -15 -17 -15
-19 1 -37 9 -10 37 -59 61 -109 65 -132 139 -208 253 -258 l87 -39 150 0 c139
0 157 2 240 29 92 30 130 54 141 89 16 52 111 156 176 192 105 60 102 60 273
57 87 -1 163 -6 167 -10 4 -4 -2 -44 -14 -88 l-21 -81 36 -122 c44 -143 45
-170 13 -208 -20 -23 -27 -26 -37 -15 -11 10 -17 4 -35 -30 -47 -90 -54 -108
-60 -162 -6 -46 -3 -60 10 -75 29 -32 64 -166 71 -274 2 -27 6 -51 10 -55 14
-15 39 18 56 74 28 99 41 124 64 124 27 0 115 89 115 117 0 12 8 24 18 27 21
7 84 108 118 191 55 132 144 451 144 519 0 20 -14 61 -35 100 -41 77 -41 80
-16 66 11 -5 57 -10 103 -10 l83 0 17 -48 c10 -26 29 -59 43 -72 l25 -23 0 26
c0 15 -9 44 -20 64 -23 43 -20 50 26 59 33 6 63 37 46 48 -4 2 -82 1 -172 -4
-176 -10 -190 -7 -190 37 0 15 -5 23 -12 21 -17 -6 -26 -28 -33 -80 -5 -41
-10 -49 -32 -54 -53 -14 -69 19 -80 164 -6 79 3 162 17 162 5 0 28 -25 50 -55
22 -30 47 -55 55 -55 8 0 30 -14 49 -30 20 -18 37 -26 41 -20 3 5 20 10 36 10
45 0 122 21 139 38 13 13 8 14 -42 8 -33 -3 -58 -2 -58 3 0 10 24 21 47 21 8
0 34 14 58 31 50 36 73 36 192 -2 54 -17 77 -20 94 -13 20 9 13 14 -67 45 -86
34 -89 36 -86 65 2 16 10 43 19 59 23 45 43 116 43 152 0 17 9 52 20 78 21 50
27 149 10 160 -6 4 -8 10 -5 15 28 45 -160 230 -235 230 -51 0 -60 9 -60 56 0
50 16 64 77 64 65 0 243 37 261 54 16 14 20 14 40 0 15 -10 33 -13 56 -9 20 4
43 2 56 -5 19 -10 26 -9 42 8 16 16 18 23 9 41 -6 11 -20 25 -31 31 -11 6 -32
32 -46 58 -15 26 -34 55 -43 66 -22 26 -129 96 -147 96 -8 0 -32 9 -54 20 -22
11 -44 20 -50 20 -12 0 -72 26 -185 81 -44 21 -93 41 -109 45 -16 4 -54 20
-85 35 -31 16 -64 29 -75 29 -10 0 -34 10 -54 22 -29 18 -40 20 -63 11 -21 -8
-38 -8 -67 2 -29 11 -56 11 -118 3 -56 -7 -98 -6 -144 2 -79 13 -98 23 -83 42
6 7 13 76 16 153 6 126 5 144 -13 184 -11 23 -18 47 -15 51 3 5 3 15 -1 23 -7
20 -85 28 -275 30 -136 2 -160 4 -177 20 -23 21 -145 45 -269 54 -65 4 -83 9
-83 21 0 13 17 14 119 9 144 -6 148 2 28 56 -112 50 -126 49 -194 -19z m-748
-164 c3 -5 1 -10 -4 -10 -6 0 -11 5 -11 10 0 6 2 10 4 10 3 0 8 -4 11 -10z
m995 -90 c0 -5 -2 -10 -4 -10 -3 0 -8 5 -11 10 -3 6 -1 10 4 10 6 0 11 -4 11
-10z m540 -50 c0 -22 -25 -27 -50 -10 -13 9 -13 11 0 20 25 17 50 12 50 -10z
m-661 -96 c-12 -14 -14 -14 -26 2 -11 15 -10 21 4 37 17 18 18 18 27 -2 6 -14
5 -26 -5 -37z m-799 -18 c0 -2 -7 -9 -15 -16 -12 -10 -15 -10 -15 4 0 9 7 16
15 16 8 0 15 -2 15 -4z m535 -36 c3 -5 1 -10 -4 -10 -6 0 -11 5 -11 10 0 6 2
10 4 10 3 0 8 -4 11 -10z m-440 -90 c-3 -5 -10 -10 -16 -10 -5 0 -9 5 -9 10 0
6 7 10 16 10 8 0 12 -4 9 -10z m5 -40 c0 -5 -4 -10 -10 -10 -5 0 -10 5 -10 10
0 6 5 10 10 10 6 0 10 -4 10 -10z m140 -29 c0 -6 -4 -13 -10 -16 -5 -3 -10 1
-10 9 0 9 5 16 10 16 6 0 10 -4 10 -9z m-45 -71 c3 -5 -1 -10 -10 -10 -9 0
-13 5 -10 10 3 6 8 10 10 10 2 0 7 -4 10 -10z m-936 -16 c2 -2 -8 -8 -23 -14
-49 -18 -71 -9 -44 18 10 10 54 7 67 -4z m641 -28 c0 -11 -19 -15 -25 -6 -3 5
1 10 9 10 9 0 16 -2 16 -4z m1230 -21 c0 -23 -2 -24 -21 -15 -16 9 -18 14 -8
26 17 21 29 17 29 -11z m-1780 -5 c0 -5 -2 -10 -4 -10 -3 0 -8 5 -11 10 -3 6
-1 10 4 10 6 0 11 -4 11 -10z m50 -29 c0 -13 -10 -21 -34 -25 -22 -4 -37 -14
-41 -26 -9 -27 -27 -25 -23 2 2 13 16 28 33 37 17 8 37 18 45 22 8 4 16 8 18
8 1 1 2 -7 2 -18z m280 9 c0 -5 -4 -10 -10 -10 -5 0 -10 5 -10 10 0 6 5 10 10
10 6 0 10 -4 10 -10z m340 -14 c0 -3 -4 -8 -10 -11 -5 -3 -10 -1 -10 4 0 6 5
11 10 11 6 0 10 -2 10 -4z m-1210 -36 c38 -19 41 -20 66 -4 18 12 28 14 36 6
18 -18 -65 -70 -125 -77 -141 -16 -226 2 -227 50 0 6 14 9 33 7 17 -2 59 6 92
16 77 26 79 26 125 2z m670 -34 c0 -3 -4 -8 -10 -11 -5 -3 -10 -1 -10 4 0 6 5
11 10 11 6 0 10 -2 10 -4z m-92 -21 c12 -3 22 -10 22 -15 0 -5 -7 -7 -16 -3
-9 3 -20 0 -24 -7 -7 -11 -11 -11 -24 -1 -22 18 -21 44 2 37 9 -2 27 -7 40
-11z m1107 -45 c9 -15 -16 -43 -27 -32 -10 10 0 42 12 42 5 0 12 -5 15 -10z
m-1085 -20 c0 -5 -4 -10 -10 -10 -5 0 -10 5 -10 10 0 6 5 10 10 10 6 0 10 -4
10 -10z m435 -40 c-3 -5 -11 -10 -16 -10 -6 0 -7 5 -4 10 3 6 11 10 16 10 6 0
7 -4 4 -10z m-305 -40 c0 -5 -7 -10 -15 -10 -8 0 -15 5 -15 10 0 6 7 10 15 10
8 0 15 -4 15 -10z m1360 0 c0 -5 -5 -10 -11 -10 -5 0 -7 5 -4 10 3 6 8 10 11
10 2 0 4 -4 4 -10z m384 -257 c39 -13 93 -30 120 -36 l50 -12 43 -105 c24 -58
50 -129 59 -157 8 -29 19 -55 25 -58 5 -3 27 -36 49 -73 73 -121 137 -189 157
-168 4 4 -1 22 -11 39 -62 105 -129 246 -142 300 -9 34 -25 79 -35 99 -23 45
-24 58 -5 58 18 0 56 -47 56 -70 0 -57 124 -265 236 -395 l69 -79 1 -106 c0
-121 16 -238 38 -292 9 -21 16 -48 16 -61 0 -24 -2 -24 -47 -15 -31 5 -82 4
-143 -3 -52 -7 -129 -11 -170 -9 -112 6 -171 4 -212 -5 -20 -4 -48 -5 -62 -1
-22 5 -26 12 -26 45 0 72 -20 145 -66 238 -43 89 -49 96 -117 142 -82 55 -110
65 -222 82 -110 16 -227 16 -307 -1 -73 -15 -95 -8 -63 18 11 10 33 38 47 63
29 50 83 84 115 72 10 -3 54 -30 98 -58 67 -44 88 -53 125 -52 25 0 76 -5 114
-12 53 -9 72 -9 83 1 13 10 12 14 -3 25 -10 7 -32 13 -50 13 -17 0 -43 9 -57
20 -14 11 -29 20 -35 20 -15 0 -95 45 -145 81 -80 60 -150 100 -164 95 -7 -3
-16 -14 -20 -23 -8 -21 -52 -79 -110 -146 -22 -26 -55 -71 -72 -100 -42 -70
-75 -118 -99 -142 -31 -32 -72 -117 -72 -150 0 -41 -82 -125 -123 -125 -15 0
-41 -7 -57 -15 -32 -17 -33 -16 -30 31 2 48 -48 224 -77 269 -47 71 -147 163
-186 170 -33 7 -36 9 -30 35 4 23 0 31 -23 46 -15 11 -44 18 -66 18 -41 -2
-47 9 -23 36 29 33 -7 70 -47 49 -12 -6 -49 -12 -82 -13 -56 -1 -61 -3 -58
-22 2 -15 -17 -38 -68 -83 -77 -68 -88 -93 -41 -89 54 5 37 -14 -32 -37 -68
-22 -80 -31 -199 -144 -34 -32 -61 -51 -68 -46 -8 5 -10 33 -5 99 4 54 3 101
-3 117 -8 20 -7 30 5 41 13 14 13 18 -2 42 -16 25 -16 29 15 118 17 51 37 116
43 143 l12 50 85 12 c101 14 287 50 300 58 4 3 46 12 92 20 46 8 116 26 157
40 41 14 90 25 110 25 19 0 62 6 95 14 34 8 122 24 196 36 74 12 149 26 165
32 63 22 121 25 469 21 352 -5 360 -5 430 -30z m-2564 -93 c21 -13 7 -22 -44
-27 -58 -7 -83 1 -66 22 14 17 86 20 110 5z m3810 -91 c61 -48 77 -81 81 -171
4 -72 -8 -87 -27 -32 -6 17 -20 45 -32 61 -19 26 -19 31 -6 45 13 13 11 19
-26 52 -22 20 -45 34 -51 30 -11 -6 -59 33 -59 48 0 4 15 8 34 8 25 0 48 -11
86 -41z m-135 -12 c0 -10 -12 -26 -27 -35 -26 -15 -29 -15 -44 0 -13 13 -14
20 -4 37 15 29 75 27 75 -2z m-342 -81 c7 -19 0 -25 -24 -19 -15 4 -17 8 -8
19 15 18 25 18 32 0z m404 -2 c2 -6 -8 -16 -22 -24 -20 -11 -28 -11 -38 -1 -9
10 -8 15 8 27 21 16 46 15 52 -2z m-517 -13 c0 -10 -84 -36 -119 -36 -39 0
-35 22 6 33 48 13 113 15 113 3z m606 -90 c3 -14 12 -41 20 -59 19 -45 17 -92
-5 -119 -11 -13 -22 -23 -26 -23 -4 0 -4 27 -1 61 7 55 5 65 -18 100 -26 39
-31 64 -19 95 6 15 8 15 25 -6 10 -12 21 -34 24 -49z m-588 -13 c-6 -17 -70
-27 -99 -15 -23 9 -23 9 -4 17 33 14 107 12 103 -2z m522 -188 c-15 -61 -35
-91 -49 -71 -6 9 -6 24 0 38 5 14 9 34 9 46 0 13 7 33 16 46 15 21 18 22 26 7
6 -11 6 -35 -2 -66z m-2732 3 c2 -14 -2 -23 -10 -23 -27 -1 -184 -19 -216 -26
-33 -7 -34 -6 -21 15 13 19 61 43 114 55 11 2 45 3 75 3 49 -2 55 -5 58 -24z
m-878 -13 c0 -21 -16 -26 -39 -11 -11 7 -10 11 5 20 27 15 34 14 34 -9z m3680
-67 c-14 -53 -52 -92 -87 -93 -30 0 -29 3 9 58 35 51 78 95 86 87 3 -2 -1 -26
-8 -52z m-3499 -6 c-13 -13 -26 -3 -16 12 3 6 11 8 17 5 6 -4 6 -10 -1 -17z
m746 8 c73 -21 107 -54 153 -148 72 -149 88 -273 51 -394 -18 -58 -31 -80 -67
-112 -24 -23 -49 -41 -56 -41 -7 0 -26 -16 -42 -36 -26 -33 -81 -74 -98 -74
-17 0 -5 18 52 79 46 50 60 71 60 95 0 17 7 58 15 91 28 116 15 197 -45 278
-19 26 -30 53 -30 74 0 29 -4 33 -37 42 -80 20 -120 21 -203 3 -66 -14 -100
-28 -148 -61 -34 -23 -69 -54 -78 -69 -9 -15 -25 -39 -35 -54 -11 -15 -19 -33
-19 -41 0 -24 25 -67 39 -67 32 0 93 25 102 42 13 25 103 90 172 126 55 27 62
29 100 17 24 -7 53 -26 72 -47 35 -41 77 -159 64 -179 -5 -8 -9 -39 -9 -69 0
-30 -4 -71 -10 -89 -11 -38 -60 -95 -100 -116 -42 -21 -131 -28 -169 -12 -38
16 -131 119 -151 167 l-13 32 -18 -23 c-15 -20 -19 -21 -33 -10 -15 13 -15 15
4 28 29 21 26 67 -7 93 -39 31 -47 14 -38 -85 5 -66 12 -92 29 -113 12 -15 29
-38 38 -52 25 -41 168 -120 215 -120 22 0 43 -3 46 -7 37 -36 -248 -50 -385
-19 -77 18 -78 18 -78 50 0 17 5 60 10 96 13 82 33 304 32 350 -1 27 7 43 34
71 30 31 33 37 20 48 -13 11 -21 9 -48 -7 -19 -12 -44 -32 -57 -46 -24 -25
-41 -26 -41 -2 0 18 127 174 153 187 12 7 40 27 62 44 22 18 50 38 63 44 26
14 106 30 169 35 24 1 45 4 47 7 12 12 166 7 213 -6z m2563 -16 c0 -23 -27
-36 -42 -21 -9 9 -7 17 7 32 20 22 35 18 35 -11z m-1372 -20 c98 -26 140 -48
189 -102 93 -100 124 -232 90 -377 -15 -61 -58 -153 -78 -165 -5 -4 -9 -22 -9
-41 0 -28 -4 -34 -21 -34 -12 0 -38 -13 -58 -29 -20 -15 -54 -34 -76 -41 -22
-7 -57 -21 -77 -31 -42 -21 -168 -26 -214 -9 -44 17 -15 30 41 19 63 -12 138
-3 168 21 28 22 114 159 123 197 4 16 16 47 26 71 24 53 17 138 -19 232 -31
80 -40 90 -106 113 -107 38 -154 47 -241 47 -81 0 -94 -3 -128 -26 -45 -31
-83 -88 -74 -111 4 -8 -8 -54 -25 -101 -30 -82 -31 -90 -25 -191 l6 -106 -20
25 c-11 14 -20 37 -20 53 0 20 -7 30 -25 37 -35 13 -56 71 -57 160 -1 71 1 80
46 168 28 53 62 104 81 120 63 51 174 112 208 113 17 0 41 4 52 9 29 13 158 1
243 -21z m1197 -14 c0 -24 -5 -31 -24 -33 -31 -5 -44 10 -35 42 5 22 11 27 33
24 22 -2 26 -8 26 -33z m-3444 -71 c7 -9 22 -14 36 -11 22 4 23 1 23 -49 0
-51 -15 -104 -31 -104 -4 0 -12 14 -18 30 -5 17 -14 30 -19 30 -13 0 -32 47
-32 79 0 42 17 53 41 25z m3639 -26 l35 -22 -40 -12 c-60 -19 -124 -18 -132 3
-9 23 31 53 71 53 17 0 47 -10 66 -22z m-210 -18 c0 -20 -15 -25 -44 -14 -21
8 -20 21 2 27 34 9 42 7 42 -13z m-3494 -86 c4 -14 4 -40 1 -59 -3 -18 -3 -36
1 -39 10 -11 32 -80 32 -103 0 -27 -10 -53 -20 -53 -21 0 -58 206 -46 255 8
32 24 32 32 -1z m340 -19 c4 -15 1 -32 -7 -41 -12 -14 -14 -14 -20 4 -9 23 -1
62 12 62 5 0 11 -11 15 -25z m-86 -34 c0 -5 -7 -11 -14 -14 -10 -4 -13 -1 -9
9 6 15 23 19 23 5z m1941 -16 c19 -13 50 -31 70 -40 20 -9 49 -34 65 -58 24
-36 28 -50 26 -105 -1 -39 -11 -85 -27 -124 -14 -34 -25 -65 -25 -69 0 -3 -20
-28 -44 -54 l-44 -48 -90 1 c-105 0 -132 11 -190 78 -88 99 -99 165 -47 266
14 26 25 54 25 62 0 7 9 24 19 37 16 19 22 21 32 12 10 -10 9 -17 -8 -35 -29
-31 -83 -138 -83 -163 0 -23 41 -91 86 -143 23 -26 40 -34 83 -41 59 -9 111
-1 144 23 12 9 39 27 59 41 50 33 59 53 63 146 l4 79 -37 36 c-20 20 -59 51
-86 68 -27 18 -51 37 -54 44 -6 20 23 14 59 -13z m-1511 -20 c10 -13 9 -15 -8
-15 -22 0 -36 13 -25 24 10 10 20 7 33 -9z m-400 -45 c0 -5 -7 -10 -16 -10 -8
0 -12 5 -9 10 3 6 10 10 16 10 5 0 9 -4 9 -10z m196 -22 c-3 -18 -12 -67 -21
-108 -8 -41 -15 -92 -15 -112 0 -41 -15 -88 -28 -88 -5 0 -7 57 -5 126 3 121
4 127 34 170 16 24 33 44 36 44 3 0 3 -15 -1 -32z m-326 -15 c0 -10 3 -28 6
-41 6 -22 4 -23 -26 -20 -28 2 -35 8 -41 32 -10 38 -5 46 32 46 21 0 29 -5 29
-17z m200 -39 c0 -21 -18 -54 -30 -54 -13 0 -13 26 0 51 13 23 30 25 30 3z
m3029 -75 c19 -4 53 -6 75 -3 40 6 43 4 61 -29 16 -30 17 -38 6 -51 -8 -9 -22
-16 -32 -16 -26 0 -32 -16 -16 -47 20 -39 30 -116 18 -144 -5 -13 -12 -35 -15
-49 -3 -14 -21 -44 -41 -67 -36 -43 -46 -83 -20 -83 24 0 18 -51 -11 -94 -15
-21 -39 -67 -55 -101 -25 -56 -58 -95 -81 -95 -5 0 -8 17 -8 38 0 50 -10 84
-23 79 -6 -2 -27 -34 -47 -72 -41 -81 -62 -98 -87 -72 -13 13 -17 31 -16 67 2
47 31 122 53 135 5 3 10 15 10 27 0 11 11 33 25 50 15 17 25 42 25 60 0 40
-25 133 -51 193 -18 40 -20 59 -15 110 10 94 32 160 58 172 25 11 132 7 187
-8z m-2703 -126 c-11 -11 -19 6 -11 24 8 17 8 17 12 0 3 -10 2 -21 -1 -24z
m-261 -103 c3 -5 -1 -10 -10 -10 -9 0 -13 5 -10 10 3 6 8 10 10 10 2 0 7 -4
10 -10z m715 -75 c0 -3 -18 -38 -40 -79 -22 -41 -49 -100 -60 -130 -11 -31
-30 -82 -42 -113 -18 -50 -21 -78 -21 -198 1 -286 3 -321 18 -378 8 -32 15
-78 15 -102 0 -24 5 -47 10 -50 15 -9 106 13 153 37 53 26 115 85 138 130 12
23 39 51 72 71 28 19 81 57 115 85 69 55 107 68 175 58 34 -5 54 -1 106 24 36
17 72 28 82 25 11 -4 23 -23 30 -48 35 -129 54 -174 92 -217 22 -25 53 -68 69
-97 16 -28 36 -57 43 -63 8 -7 15 -20 15 -30 0 -10 7 -23 14 -30 14 -11 44
-116 35 -124 -10 -9 -205 -16 -218 -7 -8 5 -19 42 -25 87 -7 48 -16 79 -24 82
-10 3 -13 -5 -10 -29 l3 -34 -135 1 c-74 0 -173 2 -220 3 -80 3 -115 0 -303
-30 -63 -10 -85 -10 -117 1 -35 11 -49 11 -100 -3 -59 -17 -61 -17 -89 4 -33
24 -51 19 -51 -16 0 -43 -40 -154 -59 -165 -19 -10 -75 3 -95 21 -6 5 -23 9
-39 9 -41 0 -127 86 -127 127 0 16 -9 54 -20 86 -11 31 -20 72 -20 91 0 18 -6
56 -14 82 -22 77 -36 187 -36 287 0 51 -9 144 -21 206 -17 93 -18 115 -7 128
9 11 12 45 9 117 -3 122 5 136 68 117 21 -6 78 -14 127 -17 49 -4 115 -9 146
-11 76 -6 178 18 258 61 58 32 100 45 100 31z m-720 -192 c0 -24 -4 -43 -9
-43 -20 0 -42 156 -24 174 10 9 32 -80 33 -131z m995 -1008 c0 -27 -3 -30 -30
-27 -16 2 -36 9 -44 15 -11 9 -9 14 10 30 34 27 64 19 64 -18z m153 -7 c-3
-33 -3 -33 -53 -29 -51 3 -65 12 -65 44 0 14 9 17 61 17 l60 0 -3 -32z m131
11 c15 -29 6 -44 -27 -47 -40 -4 -62 12 -62 43 0 21 4 23 41 21 24 -1 44 -8
48 -17z m181 -8 c0 -54 -48 -65 -100 -23 -39 31 -21 52 45 52 54 0 55 -1 55
-29z m-699 -2 c27 -14 14 -29 -25 -29 -36 0 -67 24 -44 33 22 9 48 8 69 -4z
m-122 -8 c21 -14 -25 -34 -57 -26 -26 6 -26 7 -8 21 22 16 45 18 65 5z m-123
-32 c8 -14 -11 -33 -25 -25 -11 7 -4 36 9 36 5 0 12 -5 16 -11z m-406 -70 c0
-6 -4 -7 -10 -4 -5 3 -10 11 -10 16 0 6 5 7 10 4 6 -3 10 -11 10 -16z m1360
-121 c0 -50 -22 -108 -48 -129 -32 -24 -42 -17 -42 31 0 29 8 48 35 80 19 23
35 46 35 52 0 5 5 6 10 3 6 -3 10 -20 10 -37z m-1064 -23 c1 -22 6 -53 13 -68
27 -69 7 -73 -72 -16 -49 35 -57 45 -57 73 0 44 17 57 70 54 l45 -3 1 -40z
m2179 -16 c17 -10 41 -29 54 -43 22 -24 23 -29 13 -65 -7 -21 -27 -60 -45 -85
-155 -219 -189 -266 -196 -266 -4 0 -13 -12 -20 -27 -14 -32 -55 -82 -128
-159 -52 -55 -52 -55 -77 -39 -24 16 -28 16 -57 -1 -38 -23 -40 -27 -72 -134
-35 -117 -91 -281 -106 -307 -6 -12 -27 -78 -47 -145 -38 -131 -74 -220 -81
-202 -2 7 12 65 30 130 41 140 58 210 59 244 4 139 21 208 100 410 44 113 86
212 93 220 17 21 102 175 110 200 3 11 11 20 16 20 5 0 14 11 19 24 5 13 30
47 55 76 31 35 45 59 42 71 -6 22 35 59 65 59 11 0 32 8 46 19 50 35 71 35
127 0z m-2467 -2 c6 -6 13 -24 17 -40 6 -22 4 -27 -10 -27 -10 0 -36 -9 -59
-19 -59 -28 -214 -91 -264 -107 -43 -13 -151 -57 -184 -75 -10 -5 -24 -9 -32
-9 -8 0 -27 -6 -43 -14 -15 -8 -73 -34 -128 -57 -140 -58 -365 -173 -410 -209
-21 -16 -42 -30 -46 -30 -13 0 -108 -68 -154 -110 -22 -20 -73 -60 -112 -90
-40 -30 -75 -62 -78 -71 -4 -10 -14 -20 -23 -24 -9 -3 -78 -66 -152 -141 -74
-75 -150 -143 -168 -151 -19 -8 -57 -38 -85 -67 -87 -88 -127 -106 -277 -122
-71 -7 -153 -21 -182 -29 -69 -22 -287 -95 -313 -105 -11 -5 -31 -11 -45 -14
-14 -2 -43 -10 -65 -16 -22 -6 -92 -20 -155 -32 -63 -11 -135 -24 -160 -29
-25 -5 -70 -13 -100 -18 -30 -5 -71 -16 -90 -24 -19 -8 -55 -18 -80 -22 -25
-4 -72 -21 -105 -38 -99 -50 -222 -47 -412 10 -45 13 -85 28 -88 34 -12 18
-44 8 -79 -25 -20 -18 -36 -41 -36 -50 0 -10 -8 -16 -24 -16 -29 0 -125 60
-125 78 -1 8 14 27 32 43 17 16 45 41 60 56 28 28 74 63 217 166 41 30 102 80
135 113 68 67 139 121 205 158 25 13 61 41 80 61 19 20 67 59 105 85 39 26
111 79 160 119 50 39 108 80 130 91 22 10 69 40 105 65 215 152 261 181 339
212 46 18 89 33 94 33 5 0 19 8 32 18 20 16 41 18 147 17 67 -1 146 -6 175
-10 48 -7 52 -6 69 19 9 15 43 40 75 56 32 16 61 34 64 40 4 6 44 36 90 66 85
56 109 62 175 45 52 -14 391 -22 433 -10 68 18 172 29 372 39 192 9 405 33
565 65 41 8 95 17 120 21 42 6 128 40 210 83 43 23 64 25 78 8z m1194 -34 c23
-21 26 -111 3 -119 -21 -8 -38 8 -54 51 -11 31 -10 39 3 60 19 29 24 30 48 8z
m-264 -15 c5 -7 18 -37 28 -65 24 -68 15 -78 -67 -76 -34 1 -64 4 -67 7 -3 3
-7 27 -10 54 -5 52 2 62 53 80 41 14 51 14 63 0z m169 -25 c9 -21 16 -54 17
-73 1 -34 0 -35 -43 -41 -40 -5 -45 -4 -62 25 -32 52 -35 87 -9 108 12 10 35
18 52 18 24 0 32 -6 45 -37z m-454 0 c15 -86 3 -123 -38 -123 -46 0 -65 68
-35 118 26 42 66 45 73 5z m111 5 c20 -33 28 -88 15 -104 -14 -17 -65 -18 -75
-2 -14 22 -15 111 -1 120 22 14 46 8 61 -14z m-300 -19 c49 -19 56 -25 56 -49
0 -37 -35 -53 -85 -37 -38 11 -65 48 -65 87 0 26 23 26 94 -1z m-2751 -85 c23
-7 22 -21 -3 -29 -11 -3 -20 -10 -20 -15 0 -5 -26 -20 -57 -35 -70 -32 -148
-33 -148 -1 0 13 22 30 75 57 74 39 88 41 153 23z m270 -25 c20 -5 37 -13 37
-18 0 -9 -85 -71 -98 -71 -5 0 -21 -11 -36 -25 -40 -37 -68 -40 -157 -15 -61
18 -79 27 -77 39 2 9 37 35 78 59 68 38 81 42 145 42 38 0 87 -5 108 -11z
m7597 -234 c7 -9 15 -50 18 -93 3 -42 11 -86 18 -97 8 -11 14 -35 14 -55 0
-19 7 -48 15 -64 8 -15 15 -32 15 -37 0 -14 -38 -30 -91 -38 -48 -8 -50 -7
-79 26 -17 18 -30 40 -30 47 0 8 -11 36 -25 63 -25 48 -45 130 -45 183 0 24 7
30 68 53 79 30 105 32 122 12z m-5650 -159 c0 -16 -14 -36 -25 -36 -7 0 -20
-11 -28 -24 -9 -13 -29 -26 -46 -29 -16 -3 -52 -27 -81 -52 -28 -25 -54 -45
-59 -45 -5 0 -11 10 -15 23 -8 28 24 54 143 119 78 42 111 55 111 44z m-120
-144 c0 -28 -123 -191 -128 -169 -4 21 33 87 83 145 41 47 45 49 45 24z m-169
-46 c-4 -6 -14 -36 -21 -66 -7 -30 -19 -66 -27 -80 -12 -22 -13 -16 -7 60 7
91 25 130 51 109 8 -7 10 -16 4 -23z m-27 -180 c-3 -9 -10 -13 -16 -10 -5 3
-4 12 3 20 15 18 22 13 13 -10z m-4033 -814 c41 -32 47 -34 104 -29 33 3 69 9
81 12 14 5 34 -4 65 -27 34 -27 44 -40 44 -64 0 -25 -4 -29 -30 -32 -16 -2
-34 -11 -40 -19 -19 -26 -138 -24 -210 3 -33 13 -86 30 -119 39 -91 25 -133
89 -89 137 20 22 31 23 54 2 17 -15 18 -14 24 20 l7 35 33 -22 c17 -12 52 -37
76 -55z m109 64 c0 -3 -4 -8 -10 -11 -5 -3 -10 -1 -10 4 0 6 5 11 10 11 6 0
10 -2 10 -4z m454 -42 c112 -17 143 -31 152 -72 17 -75 28 -110 44 -142 25
-50 33 -103 18 -123 -18 -23 -140 -67 -186 -67 -20 0 -60 -9 -88 -20 -47 -17
-186 -41 -239 -40 -20 1 -20 1 0 18 11 9 26 29 32 45 7 15 17 27 23 27 6 0 22
24 35 54 20 44 29 54 55 59 29 6 30 8 18 29 -13 25 -27 104 -32 178 -2 25 -6
57 -10 72 l-8 26 43 -14 c23 -8 88 -22 143 -30z m-424 6 c0 -5 -2 -10 -4 -10
-3 0 -8 5 -11 10 -3 6 -1 10 4 10 6 0 11 -4 11 -10z m85 0 c8 -13 -20 -24 -42
-16 -15 6 -15 8 -3 16 20 13 37 12 45 0z m-316 -195 c24 -12 36 -14 44 -6 15
15 27 14 27 -3 0 -21 76 -48 115 -40 42 8 55 -11 27 -39 -15 -14 -36 -21 -69
-22 -26 -1 -83 -8 -125 -14 -88 -14 -148 -3 -185 32 -25 22 -30 41 -10 34 21
-8 46 12 67 53 18 35 22 38 48 31 15 -5 43 -16 61 -26z m415 -42 c-1 -48 -11
-76 -24 -68 -11 7 -14 98 -3 109 15 15 28 -3 27 -41z m-94 -42 c0 -19 -99 -85
-146 -97 -30 -8 -40 -22 -25 -37 7 -7 15 -6 28 5 10 8 27 18 38 20 11 3 28 9
38 13 13 5 17 2 17 -13 0 -24 -46 -82 -64 -82 -7 0 -21 -9 -30 -19 -10 -11
-31 -23 -46 -26 -16 -3 -34 -13 -40 -20 -26 -31 -168 -45 -178 -17 -2 7 2 10
10 7 7 -3 20 8 30 24 20 37 72 64 116 63 34 -1 34 -1 27 37 -7 43 0 52 60 71
22 7 47 19 55 27 16 16 90 61 103 62 4 1 7 -7 7 -18z m40 -71 c0 -5 -2 -10 -4
-10 -3 0 -8 5 -11 10 -3 6 -1 10 4 10 6 0 11 -4 11 -10z m-302 -47 c-2 -17 -8
-27 -16 -25 -7 1 -23 -3 -35 -10 -12 -6 -33 -13 -47 -14 -14 -2 -41 -6 -60 -9
-43 -7 -66 6 -56 31 6 16 8 16 16 4 10 -16 14 -7 10 25 -2 16 0 17 14 6 12
-10 25 -11 57 -3 23 6 47 8 54 6 7 -3 16 -1 20 5 3 6 15 11 26 11 16 0 20 -6
17 -27z m231 -57 c-9 -8 -10 -7 -5 7 3 10 7 24 7 30 1 7 3 4 6 -7 3 -10 -1
-23 -8 -30z m26 -26 c3 -5 1 -10 -4 -10 -6 0 -11 5 -11 10 0 6 2 10 4 10 3 0
8 -4 11 -10z m2915 -909 c0 -108 81 -225 250 -361 66 -54 138 -100 153 -100 8
0 50 -24 93 -52 44 -29 99 -61 124 -72 25 -10 91 -41 147 -68 56 -27 131 -61
166 -77 65 -29 201 -59 312 -68 33 -3 65 -9 70 -13 6 -5 79 -12 163 -16 83 -4
152 -10 152 -13 0 -3 -17 -20 -37 -36 -20 -17 -44 -38 -52 -48 -9 -11 -36 -38
-61 -60 -25 -23 -99 -97 -166 -164 -67 -68 -126 -123 -131 -123 -5 0 -36 -23
-68 -51 -32 -28 -92 -73 -134 -101 -42 -28 -94 -65 -116 -83 -22 -17 -60 -42
-85 -55 -25 -12 -61 -35 -80 -50 -19 -15 -64 -42 -100 -60 -36 -18 -71 -41
-78 -51 -7 -11 -20 -19 -27 -19 -22 0 -123 -57 -196 -111 -36 -26 -78 -53 -95
-60 -16 -6 -103 -13 -194 -16 -160 -4 -264 4 -440 32 -47 8 -114 17 -150 20
-73 8 -246 60 -272 82 -9 8 -52 26 -95 39 -84 27 -186 73 -241 110 -19 13 -41
24 -49 24 -8 0 -35 14 -59 31 -79 54 -253 128 -319 134 -33 4 -77 13 -97 21
-35 13 -38 12 -53 -8 -16 -24 -22 -148 -7 -162 4 -4 7 -15 7 -24 0 -10 8 -42
18 -72 16 -49 28 -90 72 -240 8 -25 26 -88 40 -140 30 -105 108 -278 147 -325
14 -16 57 -77 97 -135 76 -112 148 -207 209 -279 20 -24 64 -81 97 -126 33
-45 93 -126 133 -179 l74 -97 -16 -46 c-20 -58 -20 -77 -1 -93 12 -10 21 -7
50 19 20 17 40 31 45 31 14 0 136 -139 185 -211 25 -35 45 -74 45 -86 0 -17
-28 -46 -102 -108 -111 -91 -150 -106 -163 -62 -4 12 -36 75 -71 139 -50 90
-68 134 -79 193 -15 75 -15 77 7 94 12 10 18 23 14 29 -9 15 -43 16 -51 2 -4
-7 -12 -7 -25 0 -28 15 -36 13 -47 -13 -8 -16 -31 -31 -75 -47 -34 -12 -67
-26 -73 -30 -5 -4 -26 -11 -45 -15 -19 -4 -47 -13 -61 -21 -15 -7 -38 -15 -52
-18 -14 -2 -34 -9 -45 -15 -12 -6 -32 -11 -47 -11 -22 0 -30 9 -52 58 -15 31
-50 100 -80 153 -29 53 -53 102 -53 110 0 8 -38 67 -84 133 -50 72 -124 199
-187 323 -57 113 -116 228 -132 256 -15 29 -34 72 -42 97 -8 25 -32 97 -54
160 -22 63 -55 158 -72 210 -17 52 -39 115 -50 140 -10 25 -24 68 -30 95 -6
28 -18 71 -26 96 -14 41 -15 75 -4 290 9 208 14 255 35 319 37 119 83 203 120
220 22 11 32 23 34 43 2 18 9 27 22 27 10 0 31 10 47 23 50 41 143 98 174 107
54 16 248 12 489 -10 156 -14 239 -30 377 -71 72 -22 132 -34 178 -35 43 -1
93 -10 130 -23 59 -22 206 -57 295 -70 25 -4 59 -14 75 -23 51 -26 232 -77
350 -100 61 -12 226 -10 239 2 16 16 -20 57 -51 58 -48 2 -246 30 -283 40 -19
5 -51 16 -70 25 -19 8 -69 25 -110 37 -41 11 -88 25 -105 31 -52 18 -138 41
-180 49 -22 4 -74 17 -116 29 -42 12 -105 26 -140 31 -135 20 -190 30 -261 50
-75 21 -170 38 -248 46 -25 2 -68 9 -96 14 -92 19 -432 12 -491 -11 -13 -5
-33 -9 -43 -9 -30 0 -182 -95 -250 -157 -30 -27 -40 -43 -40 -67 0 -18 -13
-50 -30 -76 -16 -24 -39 -68 -51 -97 -27 -67 -45 -68 -54 -5 -9 64 13 254 33
296 21 40 106 136 122 136 6 0 36 20 66 44 115 94 286 171 401 181 37 4 88 10
113 16 51 10 172 1 385 -30 77 -11 163 -21 191 -21 56 0 181 -34 203 -55 8 -8
27 -11 51 -8 27 4 60 -4 126 -30 49 -20 130 -46 179 -58 53 -13 101 -32 118
-46 36 -29 51 -29 121 2 47 21 56 29 56 50 0 18 5 25 20 25 27 0 109 76 126
117 8 18 14 45 14 61 0 15 9 62 19 103 10 41 25 111 32 157 14 91 29 108 29
33z m-830 -381 c0 -5 -2 -10 -4 -10 -3 0 -8 5 -11 10 -3 6 -1 10 4 10 6 0 11
-4 11 -10z m3150 -60 c0 -5 -2 -10 -4 -10 -3 0 -8 5 -11 10 -3 6 -1 10 4 10 6
0 11 -4 11 -10z m-643 -342 c-3 -8 -6 -5 -6 6 -1 11 2 17 5 13 3 -3 4 -12 1
-19z m-57 -9 c0 -6 -4 -7 -10 -4 -5 3 -10 11 -10 16 0 6 5 7 10 4 6 -3 10 -11
10 -16z m70 -18 c0 -6 -4 -13 -10 -16 -5 -3 -10 1 -10 9 0 9 5 16 10 16 6 0
10 -4 10 -9z m-3315 -726 c27 -9 56 -13 64 -10 8 3 29 1 46 -5 31 -10 34 -15
53 -103 12 -51 24 -130 27 -177 4 -47 18 -120 31 -163 13 -43 24 -88 24 -101
0 -13 20 -81 45 -152 50 -146 122 -271 231 -405 84 -104 258 -273 302 -294 41
-20 41 -41 -3 -62 -59 -28 -97 -9 -188 97 -43 50 -87 106 -98 125 -11 18 -36
46 -55 60 -44 33 -148 163 -175 219 -12 22 -41 67 -65 98 -25 31 -52 74 -62
95 -9 21 -27 54 -38 73 -12 19 -27 60 -34 90 -18 80 -75 287 -103 377 -66 206
-76 253 -59 253 4 0 29 -7 57 -15z m394 -145 c55 -27 126 -67 160 -88 33 -22
107 -56 163 -77 57 -21 121 -46 143 -56 69 -32 137 -51 215 -58 41 -5 124 -16
184 -25 85 -14 156 -17 326 -14 209 3 220 4 247 25 36 29 104 66 110 60 7 -8
-57 -129 -83 -157 -12 -14 -33 -47 -45 -74 -12 -27 -36 -72 -54 -100 -68 -107
-165 -334 -198 -461 -65 -258 -86 -327 -106 -355 -22 -31 -47 -128 -60 -230
-5 -41 -14 -93 -20 -115 -5 -22 -13 -62 -16 -90 -6 -44 -8 -47 -18 -28 -7 11
-27 33 -44 48 -28 22 -33 34 -33 68 0 74 -60 149 -207 263 -27 21 -27 22 -13
63 l14 42 -65 57 c-35 31 -78 71 -96 89 -17 18 -36 33 -40 33 -11 0 -227 220
-306 311 -31 36 -57 73 -57 81 0 9 -7 21 -16 29 -21 17 -57 91 -77 159 -35
120 -45 157 -57 215 -6 33 -20 98 -30 145 -10 47 -21 117 -24 155 -3 39 -8 85
-12 103 -4 21 -3 32 5 32 6 0 56 -22 110 -50z m-152 -172 c-3 -8 -6 -5 -6 6
-1 11 2 17 5 13 3 -3 4 -12 1 -19z m-977 -19 c0 -6 -4 -7 -10 -4 -5 3 -10 11
-10 16 0 6 5 7 10 4 6 -3 10 -11 10 -16z m1733 -1309 c14 -11 28 -35 31 -54 7
-38 55 -86 86 -86 24 0 33 -13 65 -95 15 -38 44 -90 63 -114 77 -94 82 -106
82 -184 0 -40 -5 -92 -11 -117 -17 -72 -99 -231 -147 -282 -38 -41 -47 -46
-64 -37 -11 6 -26 8 -34 5 -10 -4 -14 2 -14 19 0 16 19 45 50 80 28 30 75 89
105 130 47 63 55 80 55 117 0 63 -36 129 -140 256 -51 63 -96 128 -102 145 -5
20 -33 53 -73 87 -36 30 -65 58 -65 62 0 11 70 88 80 88 4 0 19 -9 33 -20z
m131 -520 c24 -59 20 -104 -16 -179 -32 -69 -76 -115 -319 -343 -57 -54 -136
-128 -174 -165 -123 -119 -156 -146 -166 -136 -13 13 24 128 56 176 20 29 25
45 20 67 -4 19 -3 30 4 30 6 0 11 -8 11 -17 1 -10 17 14 37 52 20 39 46 84 58
100 13 17 26 41 30 55 4 13 17 37 29 53 21 29 99 87 117 87 5 0 9 4 9 10 0 5
11 12 25 16 14 3 38 23 52 43 34 46 184 190 199 191 7 0 19 -18 28 -40z m-364
-80 c0 -5 -2 -10 -4 -10 -3 0 -8 5 -11 10 -3 6 -1 10 4 10 6 0 11 -4 11 -10z"/>
<path d="M6509 10398 c-54 -39 -106 -94 -115 -120 -3 -11 -19 -28 -36 -38
l-30 -18 85 -85 c94 -95 115 -104 215 -94 42 4 62 12 81 32 25 25 26 29 25
144 -1 111 -3 121 -27 153 -18 23 -40 37 -72 46 -65 17 -77 16 -126 -20z"/>
<path d="M6452 9578 c-7 -7 -12 -25 -12 -41 0 -15 -5 -38 -11 -49 -7 -12 -15
-47 -20 -77 -13 -93 -27 -145 -38 -149 -6 -2 -11 -20 -11 -40 0 -20 -7 -50
-15 -66 -8 -15 -15 -34 -15 -42 0 -7 -11 -47 -25 -89 -26 -82 -44 -187 -28
-170 5 6 26 55 46 110 20 55 65 172 100 260 60 151 65 160 93 165 35 6 41 37
7 32 -20 -3 -23 1 -23 27 0 16 4 41 10 56 7 19 6 34 -5 56 -16 31 -33 37 -53
17z"/>
<path d="M8005 12670 c-3 -6 3 -26 14 -44 20 -32 25 -34 89 -38 37 -3 69 -4
71 -2 13 11 -27 34 -60 34 -34 0 -38 3 -41 28 -2 22 -8 28 -35 30 -17 2 -34
-2 -38 -8z"/>
<path d="M9164 12610 c-22 -9 -74 -65 -74 -81 0 -5 9 -18 21 -30 19 -19 22
-19 43 -5 13 8 41 16 62 18 37 3 39 5 37 36 -2 57 -38 83 -89 62z m46 -35 c0
-8 -4 -15 -10 -15 -5 0 -10 7 -10 15 0 8 5 15 10 15 6 0 10 -7 10 -15z"/>
<path d="M6356 12509 c-14 -11 -26 -29 -26 -40 0 -20 15 -26 25 -9 3 6 14 10
24 10 9 0 26 6 36 14 16 12 17 16 6 30 -18 21 -33 20 -65 -5z"/>
<path d="M8735 12450 c-22 -36 89 -120 159 -120 43 0 66 24 37 39 -11 6 -27
11 -35 11 -9 0 -35 18 -57 40 -41 39 -89 54 -104 30z"/>
<path d="M6640 12405 c0 -16 17 -19 44 -9 26 10 18 24 -14 24 -20 0 -30 -5
-30 -15z"/>
<path d="M9021 12348 c-7 -19 -4 -25 18 -33 14 -6 40 -18 58 -28 41 -22 75
-22 104 2 20 16 22 21 10 35 -9 11 -27 16 -50 15 -20 -2 -45 2 -56 8 -11 6
-32 13 -48 17 -23 5 -29 3 -36 -16z"/>
<path d="M6323 12333 c-29 -6 -31 -39 -3 -48 22 -7 81 22 88 43 4 12 -36 15
-85 5z"/>
<path d="M6354 12189 c-7 -12 35 -60 71 -79 20 -11 27 -11 40 0 22 18 19 67
-4 80 -26 13 -98 13 -107 -1z"/>
<path d="M5500 12157 c0 -13 13 -21 93 -58 35 -16 58 0 37 26 -32 39 -130 63
-130 32z"/>
<path d="M5221 12003 c-14 -11 -24 -34 -28 -60 -5 -36 -2 -43 21 -58 25 -17
97 -17 114 0 10 10 -21 25 -41 19 -23 -7 -33 21 -17 50 26 50 -7 83 -49 49z"/>
<path d="M3293 11798 c-25 -8 -33 -17 -38 -47 -11 -60 -23 -74 -56 -67 -41 8
-59 -2 -59 -34 0 -22 6 -30 31 -39 40 -14 109 -14 109 -1 0 20 46 9 84 -20 22
-17 49 -30 60 -30 12 0 30 -7 40 -15 20 -15 56 -21 56 -9 0 3 -9 17 -20 31
-31 40 -26 71 14 88 19 8 38 19 41 25 7 11 -50 83 -74 94 -33 15 -95 -60 -85
-101 7 -26 -12 -39 -31 -23 -19 16 -19 53 -1 89 13 25 13 31 0 50 -17 23 -24
24 -71 9z"/>
<path d="M4524 11725 c-10 -24 2 -42 36 -53 27 -10 34 -8 52 10 l21 21 -23 19
c-27 22 -78 24 -86 3z"/>
<path d="M4723 11686 c-57 -28 -18 -67 42 -42 41 18 45 33 9 46 -14 6 -26 9
-27 9 -1 -1 -12 -6 -24 -13z"/>
<path d="M4913 11594 c-8 -21 7 -34 53 -45 60 -15 69 -15 69 1 0 14 -76 59
-103 60 -7 0 -15 -7 -19 -16z"/>
<path d="M4780 11506 c0 -18 17 -29 30 -21 8 5 7 11 -1 21 -15 18 -29 18 -29
0z"/>
<path d="M3063 11484 c-38 -19 -41 -36 -13 -64 36 -36 55 -26 57 30 1 28 -1
50 -5 50 -4 0 -22 -8 -39 -16z"/>
<path d="M3339 11485 c-23 -12 -25 -18 -20 -62 6 -51 19 -61 65 -49 30 7 56
87 36 111 -15 19 -47 19 -81 0z"/>
<path d="M4570 11446 c0 -33 54 -73 75 -56 21 17 19 33 -8 58 -32 31 -67 29
-67 -2z"/>
<path d="M2934 11365 c-9 -21 9 -39 68 -70 67 -35 84 -20 34 29 -20 20 -36 41
-36 46 0 16 -60 11 -66 -5z"/>
<path d="M4707 11373 c-13 -12 -7 -23 13 -23 13 0 18 5 14 15 -7 16 -17 19
-27 8z"/>
<path d="M4651 11301 c-12 -8 -10 -16 13 -45 32 -42 51 -46 60 -12 7 30 -2 56
-19 56 -7 0 -19 2 -27 5 -7 3 -19 1 -27 -4z"/>
<path d="M2912 11253 c2 -10 17 -21 33 -26 17 -5 44 -13 60 -18 45 -15 47 -15
51 -4 5 16 -81 65 -116 65 -24 0 -31 -4 -28 -17z"/>
<path d="M3446 11254 c-7 -18 21 -64 39 -64 6 0 20 9 29 19 14 15 15 24 6 40
-13 25 -65 29 -74 5z"/>
<path d="M3760 11250 c-17 -31 -7 -46 51 -75 89 -45 107 -14 29 50 -61 49 -66
51 -80 25z"/>
<path d="M4299 11143 c9 -34 51 -46 51 -16 0 24 -19 43 -41 43 -14 0 -16 -5
-10 -27z"/>
<path d="M3417 11143 c-14 -13 -7 -90 8 -103 24 -20 68 25 60 60 -9 37 -49 63
-68 43z"/>
<path d="M4521 11116 c-15 -18 -5 -56 13 -56 19 0 38 26 34 47 -4 23 -31 28
-47 9z"/>
<path d="M2831 11074 c-11 -42 -10 -49 14 -89 24 -42 72 -85 94 -85 6 0 11 9
11 20 0 11 -5 20 -11 20 -7 0 -8 14 -4 40 6 37 5 41 -20 50 -14 5 -38 10 -52
10 -19 0 -24 4 -19 16 14 36 18 64 8 64 -5 0 -15 -21 -21 -46z"/>
<path d="M4403 11064 c-3 -8 3 -25 15 -37 11 -12 29 -44 41 -71 15 -36 25 -47
37 -42 8 3 18 6 20 6 2 0 4 18 4 40 0 55 -23 95 -61 109 -42 14 -48 14 -56 -5z"/>
<path d="M5001 11045 c-25 -43 -43 -44 -71 -4 -17 23 -29 29 -49 27 -21 -2
-27 -9 -29 -36 -4 -40 24 -90 41 -73 15 15 40 14 98 -5 48 -16 99 -13 99 6 0
6 -6 10 -13 10 -7 0 -21 6 -31 13 -17 13 -17 15 -2 46 30 58 -9 73 -43 16z"/>
<path d="M3883 11054 c-10 -26 25 -44 84 -44 44 0 53 3 53 18 0 30 -22 42 -77
42 -41 0 -55 -4 -60 -16z"/>
<path d="M12018 11003 c-43 -17 -51 -48 -20 -76 24 -22 28 -21 59 3 26 20 26
20 58 0 60 -37 101 -18 76 36 -12 28 -66 54 -108 53 -15 0 -45 -7 -65 -16z"/>
<path d="M4175 10964 c-30 -63 -31 -111 -5 -139 13 -14 29 -25 36 -25 28 0 33
37 25 188 -2 27 -39 11 -56 -24z"/>
<path d="M3541 10981 c-22 -14 -2 -52 35 -67 56 -23 58 -16 11 38 -22 24 -37
34 -46 29z"/>
<path d="M4594 10975 c-10 -25 13 -67 34 -63 12 2 17 13 17 38 0 29 -4 36 -23
38 -13 2 -25 -3 -28 -13z"/>
<path d="M9765 10970 c-3 -5 11 -34 31 -64 31 -47 39 -54 55 -45 45 24 4 119
-51 119 -16 0 -31 -4 -35 -10z"/>
<path d="M3263 10923 c-22 -8 -15 -43 7 -43 13 0 20 7 20 19 0 22 -9 30 -27
24z"/>
<path d="M11192 10918 c-19 -19 -14 -34 23 -67 36 -31 76 -40 103 -22 12 7 11
13 -2 38 -27 53 -94 81 -124 51z"/>
<path d="M5385 10810 c-4 -7 -31 -8 -71 -4 -54 6 -65 4 -70 -10 -11 -27 12
-40 79 -44 53 -3 65 -1 81 17 10 11 16 27 13 36 -7 17 -23 20 -32 5z"/>
<path d="M5065 10794 c-11 -11 -13 -20 -6 -27 15 -15 41 0 41 23 0 24 -13 26
-35 4z"/>
<path d="M3143 10789 c-42 -12 -61 -45 -39 -67 14 -14 17 -14 34 1 45 41 93
11 107 -65 9 -47 27 -62 66 -54 19 4 42 0 61 -10 25 -13 32 -14 39 -2 13 19
11 30 -12 57 -17 21 -23 22 -45 12 -35 -15 -46 -6 -42 36 2 27 -2 38 -17 47
-11 6 -33 21 -48 34 -30 23 -52 26 -104 11z"/>
<path d="M12096 10792 c-24 -5 -19 -39 9 -58 46 -30 160 6 137 43 -7 11 -112
21 -146 15z"/>
<path d="M2638 10757 c-48 -33 -84 -80 -73 -97 14 -22 46 -9 71 30 31 46 63
53 86 18 14 -21 18 -22 41 -9 28 15 23 17 94 -35 21 -15 23 -15 29 0 11 29
-23 65 -67 72 -22 4 -43 13 -46 20 -4 11 -65 35 -83 33 -3 0 -26 -15 -52 -32z"/>
<path d="M12281 10761 c-22 -30 -28 -71 -11 -71 6 0 10 9 10 20 0 29 16 25 42
-11 29 -39 109 -80 131 -67 21 11 22 51 1 69 -8 7 -22 25 -30 40 -14 28 -23
33 -86 43 -32 6 -39 3 -57 -23z"/>
<path d="M9690 10757 c0 -17 22 -36 82 -71 38 -21 52 -25 68 -16 11 6 20 13
20 16 0 16 -23 44 -36 44 -8 0 -32 9 -54 20 -45 23 -80 26 -80 7z"/>
<path d="M11162 10693 c-5 -10 -6 -27 -1 -38 4 -11 8 -35 8 -53 1 -31 25 -92
37 -92 3 0 29 20 57 45 29 25 55 45 59 45 15 0 8 47 -9 62 -53 46 -135 63
-151 31z"/>
<path d="M11827 10696 c-10 -26 31 -66 66 -66 70 0 89 18 71 64 -8 22 -129 23
-137 2z"/>
<path d="M5140 10659 c-30 -16 -64 -39 -74 -49 -20 -19 -19 -20 17 -35 75 -31
144 -11 115 34 -11 18 -10 22 6 34 12 9 17 20 13 31 -8 21 -13 21 -77 -15z"/>
<path d="M12475 10610 c-3 -5 -1 -10 4 -10 6 0 11 5 11 10 0 6 -2 10 -4 10 -3
0 -8 -4 -11 -10z"/>
<path d="M2784 10586 c-8 -21 11 -43 57 -67 45 -23 49 -23 49 -6 0 8 -17 27
-37 43 -56 44 -62 47 -69 30z"/>
<path d="M2502 10564 c-22 -15 -23 -17 -6 -35 24 -27 78 -22 82 7 2 14 -5 24
-23 32 -32 15 -26 15 -53 -4z"/>
<path d="M9849 10544 c-15 -19 -2 -34 58 -66 61 -33 122 -46 133 -27 21 32
-34 73 -127 95 -44 10 -54 10 -64 -2z"/>
<path d="M3973 10543 c-27 -10 -13 -51 26 -82 52 -41 71 -41 71 2 0 48 -58 96
-97 80z"/>
<path d="M10333 10524 c-4 -10 6 -27 25 -47 26 -26 33 -28 46 -17 24 19 19 36
-18 59 -40 25 -45 26 -53 5z"/>
<path d="M10481 10496 c-10 -11 -9 -21 4 -46 20 -40 39 -46 70 -26 34 22 31
42 -7 66 -39 24 -52 25 -67 6z"/>
<path d="M10752 10490 c-18 -11 -41 -34 -50 -51 -9 -17 -32 -56 -49 -86 -18
-30 -30 -59 -27 -64 13 -22 44 -4 107 63 59 62 71 70 87 61 10 -7 27 -9 39 -6
34 9 24 52 -18 80 -41 28 -47 28 -89 3z"/>
<path d="M11567 10481 c-2 -11 4 -33 14 -50 17 -29 23 -31 74 -31 42 0 60 5
76 21 19 19 20 22 4 39 -10 11 -42 23 -79 29 -82 14 -83 14 -89 -8z"/>
<path d="M3752 10458 c-17 -17 -15 -35 9 -59 20 -20 22 -20 40 -3 31 28 19 74
-21 74 -9 0 -21 -5 -28 -12z"/>
<path d="M4860 10459 c-13 -6 -33 -17 -42 -26 -14 -13 -31 -15 -87 -9 -65 6
-71 4 -85 -16 -28 -39 -21 -51 24 -43 30 5 47 2 65 -9 34 -22 38 -21 85 22 23
20 55 44 72 52 17 8 31 20 32 25 1 14 -34 16 -64 4z"/>
<path d="M2766 10444 c-3 -9 -6 -17 -6 -19 0 -10 76 -55 92 -55 24 0 23 31 -3
64 -23 30 -73 36 -83 10z"/>
<path d="M5225 10447 c-12 -10 -14 -16 -7 -21 15 -9 54 12 47 25 -8 12 -18 11
-40 -4z"/>
<path d="M4996 10404 c-20 -20 -14 -29 36 -55 47 -24 108 -19 108 8 0 11 -7
14 -25 11 -14 -3 -25 -2 -25 2 0 3 -9 16 -20 28 -24 26 -52 28 -74 6z"/>
<path d="M4325 10384 c-27 -8 -70 -18 -95 -22 -50 -8 -63 -31 -36 -61 16 -17
15 -19 -8 -34 -13 -9 -27 -26 -31 -37 -10 -31 13 -86 48 -116 31 -26 31 -26
48 -6 12 16 14 31 9 68 -13 85 13 133 88 165 38 17 54 41 35 52 -5 3 -30 -2
-58 -9z"/>
<path d="M10433 10383 c-36 -14 16 -73 65 -73 31 0 82 18 82 29 -1 18 -21 30
-68 40 -57 12 -60 12 -79 4z"/>
<path d="M11278 10373 c-45 -11 12 -65 67 -65 77 0 132 38 88 60 -18 9 -122
12 -155 5z"/>
<path d="M3323 10354 c-4 -11 1 -23 16 -36 28 -22 32 -22 57 -4 15 12 17 18 8
33 -15 25 -72 30 -81 7z"/>
<path d="M2887 10343 c-11 -11 -8 -22 13 -43 22 -22 50 -17 50 9 0 31 -43 55
-63 34z"/>
<path d="M5283 10323 c-33 -6 -28 -35 11 -61 63 -43 156 -38 156 7 0 28 -26
44 -63 38 -20 -3 -40 0 -52 9 -10 8 -21 13 -24 13 -3 -1 -16 -4 -28 -6z"/>
<path d="M10054 10266 c-9 -23 22 -54 68 -68 21 -6 57 -30 80 -54 54 -55 87
-59 84 -11 -1 29 2 32 29 32 17 0 31 3 33 8 7 23 -3 38 -45 66 -42 28 -54 31
-113 29 -36 -1 -80 2 -97 6 -26 7 -34 5 -39 -8z"/>
<path d="M2061 10211 c-12 -22 -9 -27 47 -51 65 -29 84 -7 37 44 -28 31 -70
34 -84 7z"/>
<path d="M2666 10211 c-19 -21 -25 -15 59 -66 31 -19 65 -19 65 -1 0 17 -75
86 -93 86 -8 0 -22 -9 -31 -19z"/>
<path d="M11216 10217 c-17 -13 -17 -14 -1 -30 22 -23 45 -22 45 2 0 29 -23
43 -44 28z"/>
<path d="M1748 10208 c-6 -15 24 -79 89 -185 16 -27 31 -29 40 -7 3 9 -7 28
-27 49 -41 43 -37 68 13 76 20 3 46 14 57 24 l21 19 -23 13 c-37 20 -95 16
-108 -7 -15 -28 -34 -25 -46 8 -8 22 -11 24 -16 10z"/>
<path d="M9991 10196 c-9 -11 -2 -21 36 -49 43 -32 49 -34 60 -20 16 21 1 48
-37 68 -36 19 -44 19 -59 1z"/>
<path d="M4993 10193 c-23 -9 -14 -40 18 -67 24 -21 41 -26 82 -26 43 1 55 5
70 25 20 27 8 41 -22 25 -28 -14 -71 -13 -71 3 0 31 -44 54 -77 40z"/>
<path d="M5395 10160 c-6 -10 19 -72 43 -109 17 -24 52 4 52 42 0 38 -8 52
-35 59 -11 3 -27 9 -36 13 -10 3 -20 1 -24 -5z"/>
<path d="M11774 10157 c-28 -15 -34 -27 -34 -70 0 -30 5 -40 25 -49 19 -9 31
-8 49 1 18 10 28 10 45 1 27 -14 51 1 51 32 0 45 -98 106 -136 85z"/>
<path d="M11190 10130 c-10 -18 -7 -25 20 -50 38 -36 46 -37 71 -7 33 39 21
60 -43 71 -31 6 -39 3 -48 -14z"/>
<path d="M10572 10109 c-57 -10 -92 -24 -92 -39 0 -4 15 -18 34 -30 l34 -21
34 21 c18 11 45 20 59 20 14 0 34 7 45 15 19 15 19 15 0 30 -22 16 -35 17
-114 4z"/>
<path d="M3338 10075 c-53 -29 -26 -82 36 -71 41 8 59 27 54 58 -4 29 -50 35
-90 13z"/>
<path d="M10102 10038 c-9 -9 -1 -22 31 -55 36 -37 47 -43 84 -43 48 0 101 36
90 62 -13 35 -177 64 -205 36z"/>
<path d="M9594 10006 c-3 -8 9 -39 26 -70 37 -65 67 -75 77 -25 4 20 14 34 30
40 20 8 22 11 11 29 -23 36 -132 56 -144 26z"/>
<path d="M5312 9959 c-29 -11 -25 -25 19 -60 57 -46 118 -50 73 -5 -10 10 -13
24 -9 37 12 35 -31 49 -83 28z"/>
<path d="M9740 9876 c-5 -15 -10 -32 -10 -37 0 -18 -25 -19 -75 -4 -63 19
-104 19 -111 1 -8 -21 14 -56 34 -56 10 0 27 -7 38 -15 29 -22 125 -20 156 4
20 16 31 18 64 11 21 -5 60 -10 87 -10 37 0 47 3 47 16 0 19 -28 43 -51 44 -8
0 -34 14 -57 31 -22 16 -57 33 -76 36 -32 5 -37 3 -46 -21z"/>
<path d="M2062 9870 c-19 -8 -21 -13 -12 -29 15 -29 75 -38 100 -16 27 24 25
31 -11 44 -37 13 -46 13 -77 1z"/>
<path d="M5040 9855 l-23 -25 25 0 c14 0 39 -5 57 -11 24 -8 35 -8 46 1 14 11
12 15 -13 30 -51 31 -67 32 -92 5z"/>
<path d="M11454 9866 c-20 -15 -8 -43 32 -75 36 -28 62 -26 76 4 10 22 9 29
-8 46 -28 28 -78 40 -100 25z"/>
<path d="M2599 9852 c-62 -31 -43 -82 31 -82 41 0 60 14 60 46 0 41 -45 59
-91 36z"/>
<path d="M10023 9839 c-30 -11 -29 -21 6 -58 41 -44 111 -40 111 6 0 21 -91
62 -117 52z"/>
<path d="M2257 9753 c-20 -3 -27 -9 -25 -21 2 -13 16 -18 52 -20 57 -4 81 12
52 34 -20 14 -27 15 -79 7z"/>
<path d="M5383 9740 c-32 -13 -29 -27 10 -50 36 -22 77 -26 95 -8 18 18 15 27
-20 48 -36 22 -51 23 -85 10z"/>
<path d="M5083 9716 c-36 -13 -62 -42 -63 -68 0 -22 35 -41 63 -35 12 3 40 -1
62 -9 71 -25 101 -13 50 20 -17 11 -25 26 -25 45 0 27 -27 62 -46 60 -5 -1
-24 -7 -41 -13z"/>
<path d="M11040 9652 c0 -25 35 -56 55 -48 42 16 23 66 -26 66 -22 0 -29 -5
-29 -18z"/>
<path d="M4076 9631 c-22 -24 -14 -39 32 -58 33 -13 36 -13 55 6 18 17 19 24
9 46 -15 32 -70 35 -96 6z"/>
<path d="M10437 9573 c-11 -11 -8 -48 5 -61 11 -11 78 -18 78 -7 0 18 -26 55
-47 64 -28 13 -28 13 -36 4z"/>
<path d="M4835 9547 c-24 -20 -26 -26 -17 -44 12 -21 59 -43 93 -43 27 0 35
21 13 37 -10 7 -19 26 -20 41 -1 36 -33 41 -69 9z"/>
<path d="M5395 9520 c-11 -17 15 -40 44 -40 28 0 71 25 71 41 0 12 -107 12
-115 -1z"/>
<path d="M2975 9481 c-3 -5 6 -22 19 -38 24 -27 25 -27 43 -10 17 17 17 19 -7
37 -27 21 -46 25 -55 11z"/>
<path d="M1753 9463 c-35 -14 -2 -42 68 -58 42 -10 45 20 5 44 -33 21 -50 24
-73 14z"/>
<path d="M2692 9459 c-24 -9 -23 -18 6 -51 20 -23 64 -23 85 0 21 23 21 28 0
37 -44 18 -70 22 -91 14z"/>
<path d="M3190 9459 c-39 -16 -60 -40 -60 -71 0 -35 19 -36 58 -3 21 17 42 25
68 25 22 0 46 5 54 10 13 9 12 13 -9 30 -25 21 -70 25 -111 9z"/>
<path d="M5504 9425 c-19 -15 -19 -15 0 -30 24 -18 50 -19 79 -4 26 14 38 30
31 41 -9 14 -89 9 -110 -7z"/>
<path d="M4645 9404 c-32 -35 -36 -104 -6 -104 11 0 28 11 38 25 19 26 71 36
107 20 14 -6 17 -4 15 10 -4 18 -91 73 -117 74 -7 1 -24 -11 -37 -25z"/>
<path d="M3553 9390 c-33 -25 -43 -38 -43 -60 0 -44 19 -46 56 -6 34 37 40 39
136 40 97 2 94 26 -5 37 -34 4 -71 10 -82 14 -13 4 -34 -4 -62 -25z"/>
<path d="M1646 9397 c-27 -20 -10 -47 30 -47 41 0 45 20 10 43 -19 13 -27 14
-40 4z"/>
<path d="M5073 9388 c-57 -40 -51 -69 19 -90 49 -15 67 -2 50 37 -6 13 -9 32
-5 41 3 9 0 20 -8 25 -19 12 -20 12 -56 -13z"/>
<path d="M1902 9379 c-45 -18 -23 -42 61 -66 43 -12 84 -20 92 -17 21 9 19 34
-3 34 -11 0 -39 13 -63 30 -48 32 -53 33 -87 19z"/>
<path d="M5648 9333 c-48 -14 -62 -35 -32 -47 29 -11 100 -6 120 9 19 15 19
15 -5 35 -13 11 -26 20 -30 19 -3 -1 -27 -8 -53 -16z"/>
<path d="M2370 9311 c-8 -6 -27 -7 -42 -4 -23 5 -28 2 -28 -15 0 -11 6 -24 13
-29 14 -12 77 -22 95 -16 15 6 16 45 0 61 -14 14 -18 15 -38 3z m30 -41 c0 -5
-6 -10 -14 -10 -8 0 -18 5 -21 10 -3 6 3 10 14 10 12 0 21 -4 21 -10z"/>
<path d="M4806 9301 c-9 -13 35 -91 58 -103 15 -8 24 -5 45 17 16 17 22 29 14
32 -6 2 -30 17 -52 34 -43 31 -56 35 -65 20z"/>
<path d="M11393 9264 c-25 -11 -14 -51 17 -64 38 -16 62 1 58 39 -2 21 -9 26
-33 28 -16 1 -36 0 -42 -3z"/>
<path d="M10533 9223 c-36 -14 7 -83 51 -83 58 0 54 58 -5 79 -18 6 -32 11
-33 10 -1 0 -7 -3 -13 -6z"/>
<path d="M2110 9213 c-8 -2 -21 -7 -29 -9 -11 -3 -11 -7 -1 -19 20 -25 90 -17
90 10 0 20 -29 29 -60 18z"/>
<path d="M9423 9180 c-26 -11 -31 -46 -10 -74 13 -18 16 -17 78 4 81 29 86 33
60 59 -23 23 -86 28 -128 11z"/>
<path d="M9760 9180 c-19 -12 -4 -57 21 -65 26 -9 42 6 37 35 -3 25 -37 43
-58 30z"/>
<path d="M1447 9104 c-14 -15 -6 -34 14 -34 14 0 19 5 17 17 -3 18 -20 27 -31
17z"/>
<path d="M12012 9075 c-41 -18 -40 -44 2 -64 39 -18 77 -5 87 32 6 21 3 29
-11 37 -24 13 -38 12 -78 -5z"/>
<path d="M8650 8940 c-34 -37 -57 -94 -69 -175 -5 -33 -16 -85 -25 -115 -18
-62 -21 -120 -7 -120 18 0 42 45 67 128 14 46 22 91 19 103 -4 13 -1 27 9 38
9 10 20 39 25 65 5 26 18 57 30 70 26 28 26 36 0 36 -12 0 -34 -14 -49 -30z"/>
<path d="M2435 8827 c-21 -52 21 -85 64 -50 20 17 21 19 5 41 -11 17 -19 20
-28 13 -9 -7 -16 -7 -24 1 -8 8 -13 7 -17 -5z"/>
<path d="M9890 8815 c-11 -13 -9 -20 11 -41 42 -45 95 -9 53 37 -21 23 -47 25
-64 4z"/>
<path d="M10810 8782 c-43 -21 -49 -46 -19 -78 33 -35 46 -30 74 26 36 71 18
89 -55 52z"/>
<path d="M11683 8794 c-18 -8 -16 -51 3 -58 35 -13 73 -6 79 15 4 12 3 25 -2
30 -11 11 -64 20 -80 13z"/>
<path d="M1148 8644 c-50 -25 -59 -43 -33 -64 11 -9 23 -6 60 20 25 17 45 33
45 35 0 10 -13 35 -19 35 -3 -1 -27 -12 -53 -26z"/>
<path d="M3345 8597 c-11 -8 -37 -17 -59 -21 -58 -11 -106 -37 -106 -58 0 -22
5 -22 55 2 22 11 52 19 66 20 14 0 34 7 45 15 10 8 27 15 37 15 12 0 17 6 15
17 -4 23 -28 27 -53 10z"/>
<path d="M3085 8486 c-28 -13 -95 -54 -150 -90 -55 -36 -105 -66 -112 -66 -18
0 -73 -34 -73 -45 0 -5 -12 -11 -27 -12 -33 -1 -192 -44 -210 -56 -7 -5 -13
-14 -13 -22 0 -11 8 -11 48 2 26 7 85 25 132 39 46 13 95 32 109 42 38 27 43
30 109 58 34 15 62 30 62 35 0 4 9 11 20 14 11 3 26 12 32 18 7 7 39 24 70 40
60 29 76 43 61 58 -5 5 -29 -2 -58 -15z"/>
<path d="M11627 8363 c-16 -15 -4 -33 39 -58 70 -41 99 -19 45 36 -27 27 -69
38 -84 22z"/>
<path d="M11067 8303 c-13 -12 -7 -51 9 -57 21 -8 34 1 34 23 0 28 -28 50 -43
34z"/>
<path d="M1890 8215 c-15 -18 -4 -52 20 -60 25 -8 60 11 60 33 0 39 -55 57
-80 27z"/>
<path d="M1790 8180 c0 -11 5 -20 10 -20 6 0 10 9 10 20 0 11 -4 20 -10 20 -5
0 -10 -9 -10 -20z"/>
<path d="M7980 8129 c-64 -52 -90 -83 -90 -106 0 -13 4 -23 9 -23 13 0 141
124 141 137 0 23 -27 20 -60 -8z"/>
<path d="M6824 8090 c-57 -12 -114 -37 -114 -50 0 -21 33 -23 108 -6 66 15 94
16 197 7 124 -11 280 -47 350 -81 24 -12 43 -16 49 -10 12 12 -11 40 -33 40
-9 0 -50 16 -91 36 -41 19 -101 41 -135 49 -76 17 -277 27 -331 15z"/>
<path d="M12326 7981 c-6 -8 70 -34 132 -45 26 -4 32 -2 32 12 0 14 -14 21
-58 30 -69 14 -99 15 -106 3z"/>
<path d="M12338 7823 c-54 -5 -66 -23 -15 -23 17 0 62 -3 100 -7 64 -6 67 -5
67 16 0 22 -19 24 -152 14z"/>
<path d="M737 7773 c-3 -15 -9 -36 -12 -45 -5 -13 -2 -18 8 -18 19 0 35 66 20
81 -7 7 -12 1 -16 -18z"/>
<path d="M821 7781 c-18 -12 -6 -43 15 -39 9 2 20 13 25 26 7 17 5 22 -9 22
-9 0 -23 -4 -31 -9z"/>
<path d="M1544 7699 c-23 -25 -11 -49 25 -49 31 0 56 27 43 46 -14 21 -50 22
-68 3z"/>
<path d="M166 7537 c-11 -8 -17 -23 -14 -38 2 -20 8 -24 37 -22 44 2 54 13 42
46 -11 30 -37 35 -65 14z"/>
<path d="M35 7401 c-24 -5 -30 -11 -30 -31 0 -20 6 -26 30 -28 19 -3 33 2 42
14 27 37 11 55 -42 45z"/>
<path d="M6558 7378 c-8 -13 -18 -35 -21 -50 -15 -60 -283 -601 -319 -646 -6
-7 -18 -25 -27 -41 -35 -61 -59 -99 -126 -200 -100 -150 -125 -196 -125 -226
0 -16 -13 -38 -32 -59 -33 -33 -148 -244 -148 -271 0 -8 -9 -19 -20 -25 -11
-6 -20 -17 -20 -24 0 -7 -19 -46 -41 -87 -40 -71 -61 -130 -95 -264 -9 -33
-22 -80 -29 -105 -19 -62 -46 -256 -39 -275 10 -24 39 -13 42 15 1 14 7 49 14
77 10 46 9 55 -6 72 -17 18 -16 19 3 26 19 6 41 57 41 96 0 9 9 23 20 30 20
13 89 192 157 404 14 44 41 108 60 142 19 35 32 66 29 71 -3 5 10 27 28 48 18
21 50 75 71 119 20 44 45 89 55 100 28 31 128 182 135 205 3 11 10 20 15 20 5
0 18 21 30 47 11 26 31 61 44 77 13 17 33 51 46 76 12 25 32 59 45 75 12 17
30 54 39 83 10 29 33 75 53 103 19 28 40 67 48 87 7 20 27 67 44 104 17 36 31
76 31 88 0 12 5 30 10 41 8 14 7 19 -1 19 -7 0 -9 3 -5 8 4 4 13 7 19 7 15 0
16 47 1 52 -6 2 -18 -7 -26 -19z"/>
<path d="M765 7350 c-37 -41 10 -68 56 -31 20 16 21 21 10 35 -18 22 -44 20
-66 -4z"/>
<path d="M6847 7333 c-34 -4 -41 -9 -59 -46 -31 -67 -44 -87 -64 -101 -16 -12
-16 -16 -5 -30 13 -15 15 -15 33 1 10 9 27 31 38 48 20 32 85 75 114 75 9 0
16 -8 16 -20 0 -13 -19 -32 -60 -57 -32 -21 -58 -42 -56 -48 2 -5 20 -9 41 -9
30 1 46 10 83 47 50 50 59 92 26 128 -17 19 -28 20 -107 12z"/>
<path d="M15 7030 c-10 -11 -15 -26 -12 -35 9 -21 44 -19 57 4 14 26 13 29 -9
40 -14 8 -23 6 -36 -9z"/>
<path d="M1291 7027 c-18 -18 -13 -34 20 -61 33 -28 65 -34 72 -13 7 22 -5 47
-24 47 -11 0 -28 9 -38 19 -14 14 -22 16 -30 8z"/>
<path d="M6562 6858 c-6 -7 -10 -44 -11 -81 0 -52 -5 -77 -22 -104 -18 -29
-19 -37 -8 -44 42 -26 99 4 99 53 0 14 7 31 15 38 24 20 17 63 -17 108 -35 46
-40 48 -56 30z"/>
<path d="M10605 6850 c-3 -5 -3 -25 0 -44 12 -60 75 -68 75 -9 0 40 -58 81
-75 53z"/>
<path d="M1162 6774 c-19 -13 -22 -24 -20 -57 3 -37 6 -42 31 -45 23 -3 27 0
27 23 0 14 5 35 11 46 7 15 7 24 -2 35 -15 18 -19 18 -47 -2z"/>
<path d="M322 6756 c-6 -13 -8 -27 -5 -30 11 -11 49 -6 68 8 16 12 17 16 6 30
-20 24 -56 20 -69 -8z"/>
<path d="M10172 6727 c-10 -12 -9 -24 5 -62 32 -85 67 -86 108 -4 29 55 24 69
-21 69 -12 0 -35 3 -51 6 -19 4 -33 1 -41 -9z"/>
<path d="M7905 6690 c3 -5 8 -10 11 -10 2 0 4 5 4 10 0 6 -5 10 -11 10 -5 0
-7 -4 -4 -10z"/>
<path d="M7870 6621 c-16 -30 -12 -53 8 -49 11 2 18 14 20 36 4 35 -12 43 -28
13z"/>
<path d="M7815 6500 c-8 -16 -15 -40 -15 -53 0 -14 -21 -74 -46 -133 -48 -114
-79 -212 -70 -221 12 -12 36 8 36 30 0 36 33 124 77 203 22 39 43 89 46 110 4
22 9 51 13 67 9 38 -21 37 -41 -3z"/>
<path d="M302 6477 c-28 -30 -28 -45 2 -53 31 -7 76 21 76 49 0 18 -2 18 -24
-6 -17 -18 -31 -25 -42 -20 -15 6 -15 7 4 14 12 5 22 15 22 24 0 21 -13 19
-38 -8z"/>
<path d="M10921 6451 c-25 -46 -5 -70 43 -51 22 8 27 15 24 38 -4 35 -51 45
-67 13z"/>
<path d="M9748 6433 c-23 -6 -23 -35 0 -56 39 -36 75 -9 54 39 -11 24 -20 26
-54 17z"/>
<path d="M6397 6413 c-4 -3 -7 -26 -7 -49 0 -24 -4 -46 -10 -49 -15 -9 -12
-42 4 -48 20 -8 66 30 66 53 0 11 5 30 11 44 9 20 9 29 -1 41 -13 15 -51 20
-63 8z m28 -92 c3 -5 1 -12 -5 -16 -5 -3 -10 1 -10 9 0 18 6 21 15 7z"/>
<path d="M3800 6137 c0 -24 27 -57 47 -57 6 0 16 7 23 15 11 13 9 20 -10 40
-30 32 -60 33 -60 2z"/>
<path d="M6146 6063 c-32 -31 -38 -56 -28 -103 7 -32 11 -35 46 -38 21 -2 52
2 68 9 29 12 29 13 22 63 -13 94 -55 122 -108 69z m49 -63 c3 -5 -1 -10 -9
-10 -8 0 -18 5 -21 10 -3 6 1 10 9 10 8 0 18 -4 21 -10z"/>
<path d="M4409 5934 c-11 -13 -11 -20 2 -42 20 -37 53 -40 75 -7 16 24 16 27
-1 45 -22 24 -58 26 -76 4z"/>
<path d="M2612 5820 c-40 -16 -38 -52 4 -95 17 -16 53 -12 66 9 14 20 8 56
-12 76 -22 22 -25 23 -58 10z"/>
<path d="M2723 5735 c-8 -23 26 -55 59 -55 32 0 36 15 12 48 -18 25 -62 30
-71 7z"/>
<path d="M3451 5677 c-14 -14 -14 -30 1 -62 13 -29 43 -33 56 -7 11 20 5 45
-9 36 -5 -3 -9 4 -9 14 0 24 -23 35 -39 19z"/>
<path d="M921 5653 c-13 -3 -26 -13 -28 -24 -4 -15 -8 -17 -19 -8 -11 9 -14 7
-14 -9 0 -11 7 -26 16 -33 9 -7 20 -24 25 -37 5 -13 15 -22 22 -19 6 2 21 0
31 -6 18 -9 19 -6 13 37 -5 36 -3 48 8 52 30 12 9 59 -23 53 -4 -1 -18 -4 -31
-6z"/>
<path d="M4070 5616 c0 -8 -3 -21 -6 -30 -5 -13 1 -16 31 -16 l37 0 -24 29
c-25 33 -38 38 -38 17z"/>
<path d="M5907 5590 c-14 -11 -36 -37 -48 -57 -22 -35 -22 -36 -4 -49 26 -19
30 -18 68 16 19 17 39 30 45 30 19 0 23 19 11 42 -22 42 -36 46 -72 18z"/>
<path d="M2245 5150 c-37 -24 -38 -40 -5 -57 44 -23 84 -16 103 16 9 16 17 36
17 45 0 24 -77 21 -115 -4z"/>
<path d="M9985 5140 c-33 -4 -76 -12 -95 -17 -19 -6 -82 -14 -138 -18 -85 -5
-113 -3 -155 12 -73 24 -340 25 -447 1 -41 -9 -120 -24 -175 -34 -55 -9 -115
-25 -133 -36 -18 -10 -40 -18 -48 -18 -34 0 -315 -85 -384 -116 -42 -19 -81
-34 -87 -34 -6 0 -24 -7 -39 -15 -16 -8 -41 -15 -56 -15 -27 0 -115 -39 -178
-78 -19 -12 -64 -31 -98 -42 -35 -12 -92 -38 -127 -59 -34 -21 -73 -41 -86
-44 -13 -3 -60 -30 -104 -58 -44 -29 -100 -63 -124 -76 -24 -13 -69 -43 -100
-67 -31 -23 -103 -70 -161 -105 -122 -72 -263 -173 -370 -266 -41 -35 -82 -70
-92 -77 -9 -7 -33 -40 -54 -73 -20 -33 -92 -116 -159 -185 -66 -69 -131 -141
-143 -162 -12 -20 -29 -39 -37 -42 -8 -3 -15 -12 -15 -19 0 -8 -10 -22 -22
-33 -11 -10 -48 -52 -81 -93 -54 -68 -57 -76 -42 -88 24 -17 51 -1 69 40 7 18
23 40 34 51 20 18 22 18 51 -3 28 -20 44 -42 137 -189 52 -82 136 -181 245
-291 47 -47 105 -115 129 -151 85 -127 165 -226 260 -320 53 -52 164 -166 248
-252 84 -87 170 -167 192 -178 52 -26 202 -151 316 -262 50 -48 97 -88 103
-88 7 0 76 -60 154 -132 78 -73 166 -152 194 -176 52 -42 93 -55 93 -28 0 16
-135 154 -244 251 -37 33 -80 72 -95 86 -15 15 -42 36 -60 47 -19 11 -81 67
-140 124 -63 63 -147 132 -209 172 -108 72 -173 132 -365 338 -66 70 -127 130
-138 133 -10 4 -19 11 -19 16 0 5 -16 24 -36 41 -37 32 -100 117 -144 193 -34
58 -108 137 -116 123 -4 -7 -9 -6 -14 3 -5 7 -3 21 3 32 10 16 9 21 -8 31 -11
6 -33 26 -50 45 -16 19 -51 57 -76 85 -25 28 -76 91 -115 139 -38 49 -93 119
-122 155 -29 37 -61 83 -72 104 -19 35 -19 37 -2 58 l18 22 32 -27 c18 -15 50
-53 72 -84 21 -31 100 -118 176 -195 173 -173 179 -178 235 -213 49 -30 219
-203 219 -222 0 -6 11 -29 25 -51 14 -22 36 -64 49 -93 17 -39 60 -89 170
-199 136 -137 241 -253 326 -358 78 -97 346 -352 415 -395 17 -11 55 -42 87
-69 63 -57 113 -96 122 -96 4 0 0 13 -9 30 -8 16 -15 40 -15 54 0 16 -20 48
-52 86 -29 34 -64 80 -78 103 -21 37 -64 82 -177 188 -53 50 -163 174 -191
215 -188 282 -208 308 -261 358 -18 17 -51 57 -73 89 -28 41 -53 64 -84 79
-34 17 -43 26 -38 40 7 22 -48 104 -76 113 -11 3 -20 12 -20 20 0 7 -6 15 -14
18 -7 3 -23 25 -35 49 -12 24 -43 60 -71 81 -28 21 -50 45 -50 53 0 8 -9 14
-20 14 -11 0 -20 7 -20 15 0 33 -61 134 -113 187 -32 32 -58 68 -62 87 -3 17
-11 33 -16 37 -5 3 -18 22 -28 42 -11 21 -37 59 -59 86 -22 27 -50 75 -62 107
-11 32 -31 65 -42 74 l-22 15 22 23 c12 13 22 28 22 34 0 7 8 14 18 17 10 3
38 29 62 57 114 129 247 240 357 298 54 28 122 65 151 83 34 19 57 27 63 21 5
-5 18 -53 28 -106 17 -90 24 -107 98 -230 45 -73 97 -170 118 -217 20 -47 47
-105 60 -130 13 -25 26 -63 30 -85 4 -22 37 -115 73 -207 48 -125 69 -168 82
-168 26 0 32 -12 15 -30 -13 -14 -11 -26 19 -105 89 -235 402 -901 461 -980
12 -16 65 -115 117 -220 173 -347 239 -470 258 -484 29 -20 25 -1 -15 64 -19
32 -48 92 -66 134 -44 108 -200 414 -247 487 -22 34 -43 71 -47 84 -4 13 -20
44 -36 69 -47 77 -79 142 -79 161 0 9 -7 23 -15 30 -8 7 -15 21 -15 32 0 11
-7 26 -15 34 -8 8 -24 47 -36 87 -11 40 -33 95 -48 122 -16 28 -34 68 -41 90
-7 22 -16 45 -20 50 -5 6 -33 78 -63 161 -30 83 -62 165 -71 182 -9 17 -16 44
-16 59 -1 15 -19 80 -41 143 -49 138 -54 160 -41 160 5 0 17 -11 26 -25 17
-25 36 -33 36 -15 0 6 -20 41 -45 79 -43 64 -72 130 -115 263 -10 32 -33 81
-50 110 -33 53 -120 251 -120 272 0 6 -7 25 -16 41 -9 17 -25 64 -35 105 l-19
75 27 22 c45 37 109 67 126 60 24 -9 69 -114 117 -272 72 -243 110 -352 160
-465 16 -36 43 -103 60 -150 18 -47 45 -114 60 -150 16 -36 44 -105 63 -155
49 -125 76 -185 86 -185 5 0 11 -13 14 -28 3 -16 35 -90 71 -165 36 -74 66
-141 66 -147 0 -6 18 -52 39 -103 21 -51 44 -108 49 -127 6 -19 24 -66 41
-105 17 -38 54 -131 81 -205 81 -214 226 -524 241 -515 17 11 10 32 -57 167
-37 74 -81 182 -99 243 -18 61 -43 136 -54 167 -12 32 -21 64 -21 72 0 7 -18
56 -39 108 -22 51 -51 137 -65 190 -15 53 -34 111 -43 129 -15 30 -32 141 -20
129 13 -13 93 -223 121 -320 8 -25 26 -71 41 -104 15 -32 44 -106 64 -164 20
-58 43 -108 51 -110 10 -4 11 0 5 14 -4 11 -17 46 -27 79 -10 33 -48 139 -83
235 -35 96 -69 193 -76 215 -7 22 -18 49 -25 60 -6 11 -15 36 -19 55 -4 19
-20 62 -35 95 -16 33 -33 71 -39 85 -6 14 -15 32 -20 40 -5 8 -20 42 -34 75
-13 33 -34 83 -46 110 -11 28 -29 75 -39 105 -53 154 -66 187 -82 210 -15 23
-38 90 -101 295 -12 39 -31 88 -44 110 -12 22 -26 55 -30 73 -3 17 -10 32 -15
32 -4 0 -11 21 -15 48 -3 26 -17 71 -31 101 -13 29 -24 60 -24 68 0 21 -49
113 -60 113 -16 0 -13 -13 46 -183 30 -89 70 -207 88 -262 18 -55 38 -111 45
-123 7 -13 15 -35 17 -49 3 -14 12 -35 20 -48 9 -13 14 -32 12 -42 -2 -13 -12
-4 -39 32 -36 50 -49 86 -73 200 -7 33 -25 86 -40 118 -15 32 -50 121 -77 199
-27 78 -53 146 -57 152 -5 6 -14 31 -21 55 -7 23 -15 49 -18 57 -3 9 12 21 44
35 26 12 56 26 65 30 10 5 27 9 38 9 11 0 48 13 82 29 35 16 88 39 118 51 80
32 155 64 235 98 39 17 95 35 125 41 66 12 80 0 80 -63 0 -58 37 -247 65 -336
13 -41 41 -131 61 -200 55 -188 133 -409 164 -465 15 -27 32 -79 38 -114 7
-36 16 -69 22 -75 5 -5 10 -21 10 -35 0 -15 12 -50 25 -80 26 -55 43 -110 52
-169 3 -19 12 -36 19 -39 10 -4 11 -9 4 -18 -7 -8 -2 -34 16 -86 14 -41 36
-117 49 -169 46 -184 64 -246 98 -340 29 -80 56 -181 107 -390 4 -19 20 -75
35 -124 42 -139 77 -265 89 -330 7 -33 17 -61 24 -64 19 -6 15 39 -14 151 -15
56 -28 111 -29 122 -3 32 -32 119 -49 154 -9 17 -16 37 -15 44 3 18 -10 81
-38 182 -14 50 -28 108 -32 130 -4 22 -14 60 -23 85 -30 84 -47 145 -67 251
-11 59 -29 129 -40 157 -11 28 -27 90 -36 139 -9 48 -23 108 -30 133 -8 25
-26 97 -39 160 -30 144 -44 196 -56 218 -5 9 -18 42 -29 72 -10 30 -29 80 -41
110 -12 30 -26 76 -30 102 -5 25 -22 79 -39 119 -17 41 -31 84 -31 98 0 13
-18 66 -40 118 -23 52 -45 116 -50 141 -5 26 -18 74 -30 107 -11 33 -27 104
-35 158 -9 54 -22 114 -30 134 -8 19 -15 39 -15 44 0 16 104 74 126 71 12 -2
41 2 63 8 64 17 84 1 77 -58 -12 -87 19 -325 64 -502 23 -91 49 -177 56 -192
8 -15 11 -34 8 -43 -4 -9 0 -33 9 -53 8 -20 19 -55 25 -77 6 -22 19 -76 31
-120 11 -44 22 -93 25 -110 4 -30 27 -111 51 -175 7 -19 20 -75 30 -125 9 -49
25 -112 35 -140 23 -63 95 -327 114 -420 8 -39 19 -82 24 -95 5 -14 13 -49 17
-79 4 -30 16 -79 26 -110 11 -30 19 -68 19 -85 0 -17 9 -58 19 -92 11 -33 27
-120 36 -192 9 -73 26 -164 37 -204 11 -40 21 -95 22 -123 6 -115 46 -288 46
-197 0 19 7 35 17 41 16 8 16 16 5 80 -7 39 -12 90 -12 114 0 23 -6 69 -14
102 -19 83 -30 156 -27 183 2 13 -6 54 -18 90 -11 37 -27 114 -36 172 -10 58
-30 157 -45 220 -16 63 -34 144 -40 180 -6 36 -19 76 -28 90 -22 34 -45 122
-33 129 9 6 -24 199 -42 238 -5 11 -7 26 -3 31 3 5 1 34 -4 63 -36 186 -53
300 -60 414 -16 242 -62 543 -92 599 -6 11 -10 43 -9 71 1 27 -7 79 -18 115
-63 210 -73 247 -73 272 -1 37 17 56 61 64 20 3 72 14 116 24 103 23 207 30
212 13 3 -8 -4 -13 -16 -13 -24 0 -27 -12 -8 -29 10 -8 52 -7 158 4 79 8 155
18 169 21 14 3 72 8 130 10 58 1 142 6 188 10 l82 7 0 -25 c0 -14 -7 -45 -15
-68 -8 -23 -15 -55 -15 -71 0 -59 -22 -131 -41 -136 -25 -7 -24 -20 2 -28 19
-6 20 -12 15 -58 -14 -115 -21 -976 -11 -1237 11 -251 10 -725 -2 -1120 -11
-395 -9 -560 8 -560 14 0 18 36 23 215 3 94 8 217 10 275 3 58 8 238 11 401 3
162 9 310 15 328 5 19 5 42 0 55 -4 13 -4 72 1 136 5 63 6 122 3 132 -9 29 -6
217 10 633 9 215 18 467 21 560 7 216 22 390 41 461 8 30 14 66 14 79 0 33 34
41 120 26 38 -6 82 -11 98 -11 47 0 57 -21 38 -77 -24 -67 -66 -240 -66 -270
0 -15 -9 -76 -19 -137 -11 -61 -25 -158 -31 -216 -7 -58 -16 -136 -20 -175 -5
-38 -13 -123 -18 -187 -6 -64 -13 -121 -16 -126 -16 -26 -23 -700 -12 -1067 2
-55 0 -120 -5 -145 -5 -25 -10 -128 -13 -230 -4 -187 -18 -376 -36 -485 -6
-33 -15 -112 -21 -175 -6 -63 -13 -142 -16 -174 -6 -68 11 -72 20 -5 3 23 10
46 16 52 26 26 6 -240 -35 -468 -18 -101 -18 -108 -16 -150 l2 -29 23 22 c17
17 22 35 23 75 2 100 23 279 34 292 6 7 18 78 26 157 8 78 22 164 30 190 8 26
15 80 15 120 0 40 2 89 5 108 2 19 5 51 5 70 -1 19 7 73 15 120 9 47 16 119
15 160 0 41 6 116 14 165 9 50 15 110 14 135 -2 25 5 128 14 228 10 101 15
187 13 191 -17 26 20 586 41 626 6 11 10 50 11 86 0 36 8 94 17 130 9 35 27
136 40 224 13 88 26 167 29 175 3 8 8 42 10 75 2 33 9 78 14 100 6 22 18 85
27 140 9 55 22 120 30 145 7 25 16 63 20 85 4 21 14 53 22 69 9 16 21 50 27
75 10 40 14 46 36 44 51 -3 147 -31 195 -56 98 -51 404 -157 506 -176 57 -10
134 -37 156 -54 10 -7 7 -20 -12 -56 -41 -77 -85 -188 -85 -215 0 -14 -9 -49
-19 -78 -28 -77 -81 -280 -81 -311 0 -15 -18 -79 -40 -143 -37 -108 -49 -159
-84 -370 -7 -45 -17 -88 -21 -95 -5 -7 -14 -58 -21 -113 -8 -59 -32 -158 -59
-244 -26 -79 -51 -172 -56 -206 -5 -33 -16 -79 -24 -101 -8 -22 -28 -101 -45
-175 -16 -74 -35 -148 -42 -163 -6 -15 -12 -36 -12 -45 -2 -16 -16 -67 -52
-192 -9 -30 -25 -77 -36 -103 -10 -26 -28 -78 -40 -115 -11 -37 -33 -100 -50
-141 -27 -68 -88 -278 -88 -302 0 -6 5 -9 11 -7 6 2 35 71 65 153 30 83 63
168 74 190 18 38 37 95 90 275 12 41 29 89 37 107 9 17 19 49 23 70 29 141
149 578 200 733 43 127 154 555 166 638 4 26 14 63 24 82 10 19 25 71 35 115
22 105 43 190 61 245 7 25 25 85 39 135 15 49 35 104 46 121 10 17 19 38 19
46 0 9 6 21 14 27 7 6 23 37 34 69 40 108 36 108 145 0 58 -56 97 -102 97
-114 0 -11 -12 -37 -27 -59 -58 -85 -192 -375 -228 -491 -71 -233 -80 -259
-97 -289 -9 -17 -23 -57 -31 -90 -17 -73 -83 -283 -107 -345 -10 -25 -27 -77
-39 -116 -12 -39 -35 -104 -51 -144 -17 -40 -30 -82 -30 -93 0 -11 -13 -44
-30 -74 -16 -29 -30 -63 -30 -76 0 -12 -6 -31 -14 -42 -7 -11 -21 -53 -30 -94
-9 -40 -25 -90 -35 -110 -16 -31 -22 -50 -37 -106 -1 -5 -14 -45 -28 -88 -14
-43 -26 -84 -26 -91 0 -7 -7 -19 -15 -26 -8 -7 -15 -22 -15 -34 -1 -26 -37
-136 -79 -235 -17 -41 -31 -86 -31 -100 0 -14 -20 -80 -45 -146 l-45 -120 21
-17 c30 -25 34 -23 48 24 7 24 23 61 36 83 12 22 26 56 30 75 4 19 15 51 25
70 10 19 27 64 40 100 12 36 28 79 35 95 42 97 54 126 60 156 4 19 16 46 26
61 11 14 19 29 19 33 0 4 11 34 24 68 86 219 196 526 196 550 0 5 9 20 19 34
11 13 27 50 36 81 20 72 72 191 96 217 9 11 25 49 34 85 17 70 34 117 70 195
12 28 37 84 55 125 42 95 177 367 199 400 10 14 25 45 34 69 9 24 36 75 59
114 41 69 58 145 32 154 -14 5 -62 -72 -123 -197 -27 -58 -88 -184 -135 -280
-46 -96 -90 -195 -96 -220 -7 -25 -25 -67 -40 -95 -33 -57 -110 -251 -110
-275 0 -9 -4 -20 -9 -26 -10 -10 -144 -333 -156 -374 -3 -14 -21 -61 -40 -105
-18 -44 -49 -125 -70 -180 -20 -55 -45 -120 -55 -145 -10 -25 -26 -70 -36
-100 -9 -30 -24 -75 -34 -100 -10 -25 -25 -66 -35 -93 -9 -26 -20 -47 -25 -47
-15 0 18 115 85 295 36 96 65 178 65 181 0 4 24 67 54 143 30 75 73 197 95
271 23 74 47 146 55 160 7 14 19 45 26 70 8 25 17 50 21 55 4 6 22 64 39 130
17 66 48 158 70 205 21 47 50 118 65 159 27 79 72 189 104 256 11 22 46 97 79
166 32 69 64 129 71 133 6 4 11 16 11 27 0 11 7 22 15 25 8 3 20 24 26 45 10
33 16 39 40 39 20 0 30 -6 35 -22 4 -13 39 -77 79 -143 119 -197 155 -266 155
-290 0 -33 22 -47 65 -39 29 5 39 13 51 42 8 19 12 44 8 54 -3 11 -43 75 -87
143 -45 67 -95 146 -112 174 -16 28 -38 53 -47 57 -10 3 -18 10 -18 15 0 5
-16 26 -35 48 -19 21 -35 48 -35 60 0 18 -3 20 -19 12 -16 -9 -20 -7 -25 12
-3 12 -15 27 -28 32 -13 6 -33 31 -45 56 -15 32 -41 62 -85 95 -34 27 -84 68
-111 91 -26 24 -58 43 -70 43 -12 0 -44 11 -70 25 -50 27 -343 127 -572 195
-77 23 -158 50 -180 60 -91 42 -239 70 -499 95 -167 16 -241 17 -341 5z m615
-161 c11 -20 12 -20 31 -3 14 13 22 15 31 6 8 -8 3 -23 -16 -58 -14 -25 -26
-55 -26 -65 0 -10 -9 -42 -21 -71 -12 -29 -27 -84 -34 -123 -8 -38 -22 -104
-33 -145 -10 -41 -31 -147 -46 -235 -15 -88 -36 -189 -46 -225 -41 -141 -90
-533 -93 -737 -1 -90 -6 -142 -12 -140 -18 6 -24 89 -14 187 5 52 11 142 14
200 7 176 25 388 42 520 9 69 18 154 20 190 1 36 7 85 12 110 5 25 9 56 9 70
0 14 8 84 17 155 9 72 16 142 16 157 -2 42 15 108 44 171 25 53 29 57 60 57
25 0 38 -6 45 -21z m-1652 -126 c23 -162 34 -220 58 -299 13 -44 24 -87 24
-95 0 -8 11 -50 24 -94 29 -96 58 -226 61 -275 2 -20 10 -72 18 -115 9 -44 18
-114 22 -155 3 -41 10 -100 15 -130 6 -30 11 -80 11 -110 1 -30 10 -85 20
-121 11 -36 19 -80 19 -98 0 -17 9 -49 20 -71 21 -41 26 -80 11 -80 -5 0 -16
21 -25 48 -8 26 -24 72 -35 102 -10 30 -22 87 -25 125 -6 84 -20 169 -41 261
-9 38 -20 98 -25 134 -4 36 -18 93 -29 127 -12 35 -21 68 -21 75 0 7 -11 54
-24 103 -13 50 -34 137 -46 195 -12 58 -32 143 -45 190 -36 132 -45 185 -45
269 0 82 3 91 30 91 14 0 20 -15 28 -77z m-388 -3 c0 -5 -5 -10 -11 -10 -5 0
-7 5 -4 10 3 6 8 10 11 10 2 0 4 -4 4 -10z m-1135 -550 c3 -5 1 -10 -4 -10 -6
0 -11 5 -11 10 0 6 2 10 4 10 3 0 8 -4 11 -10z m45 -16 c0 -8 -5 -12 -10 -9
-6 4 -8 11 -5 16 9 14 15 11 15 -7z m-783 -634 c12 -25 29 -52 37 -60 8 -9 36
-54 61 -100 26 -47 71 -116 100 -155 29 -38 80 -112 115 -163 34 -51 115 -150
179 -220 64 -70 132 -147 151 -172 19 -25 79 -99 134 -165 55 -66 114 -140
130 -165 28 -41 150 -211 194 -270 11 -14 26 -39 35 -57 9 -17 37 -49 62 -70
106 -89 448 -446 438 -456 -14 -15 -29 -4 -108 76 -45 45 -122 118 -170 162
-131 118 -236 227 -270 278 -90 134 -193 241 -302 310 -24 15 -43 33 -43 40 0
7 -23 40 -51 72 -28 33 -63 87 -78 120 -31 67 -119 181 -204 265 -63 62 -131
120 -141 120 -4 0 -22 15 -40 33 -18 17 -52 47 -74 66 -23 18 -42 40 -42 49 0
9 -38 53 -85 99 -47 46 -85 88 -85 93 0 6 -27 47 -60 92 -33 45 -60 87 -60 94
0 17 128 136 143 132 6 -2 22 -24 34 -48z m1442 -105 c12 -20 16 -37 10 -40
-5 -4 -16 9 -24 29 -25 58 -18 64 14 11z m1151 -382 c0 -7 -4 -13 -10 -13 -5
0 -10 12 -10 28 0 21 2 24 10 12 5 -8 10 -21 10 -27z m1056 -41 c-4 -3 -12 0
-19 7 -9 9 -9 14 3 21 11 7 16 5 18 -6 2 -9 1 -18 -2 -22z m-1229 -274 c-3 -8
-6 -5 -6 6 -1 11 2 17 5 13 3 -3 4 -12 1 -19z m283 -228 c0 -11 7 -37 16 -59
8 -21 14 -56 12 -77 -4 -44 -9 -36 -32 58 -19 77 -20 98 -6 98 6 0 10 -9 10
-20z"/>
<path d="M810 5117 c0 -19 29 -57 44 -57 20 0 49 37 43 55 -8 19 -87 22 -87 2z"/>
<path d="M2087 5002 c-32 -3 -40 -9 -56 -41 -32 -62 -12 -72 112 -55 43 5 47
8 41 28 -3 11 -18 32 -33 46 -20 20 -34 25 -64 22z"/>
<path d="M1184 4886 c-3 -7 -4 -33 -2 -57 3 -41 5 -44 33 -44 28 0 30 3 33 38
2 26 -2 45 -14 58 -20 22 -42 25 -50 5z"/>
<path d="M11912 4638 c-13 -17 -4 -34 25 -45 22 -8 140 -114 312 -278 81 -78
99 -102 134 -175 39 -82 84 -150 100 -150 4 0 7 45 7 99 l0 99 -71 92 c-39 51
-92 106 -118 123 -25 17 -78 64 -118 104 -39 40 -75 73 -81 73 -5 0 -36 13
-68 30 -75 38 -107 45 -122 28z"/>
<path d="M550 4614 c0 -22 4 -25 32 -22 17 2 34 9 36 17 3 10 -1 12 -17 8 -17
-4 -21 -2 -17 9 3 9 -1 14 -14 14 -15 0 -20 -7 -20 -26z"/>
<path d="M1349 4423 c-20 -73 10 -103 102 -103 40 0 53 28 30 63 -10 15 -21
24 -25 20 -10 -10 -26 17 -26 44 0 17 -6 21 -34 20 -32 -1 -35 -4 -47 -44z"/>
<path d="M536 3864 c-8 -22 -7 -36 3 -53 8 -12 13 -11 30 10 25 29 26 45 5 53
-24 9 -31 7 -38 -10z"/>
<path d="M624 3786 c-3 -8 5 -29 17 -46 27 -36 72 -39 77 -5 3 19 -11 29 -81
63 -4 2 -10 -3 -13 -12z"/>
<path d="M1588 3717 c-21 -8 -28 -18 -28 -39 0 -25 4 -28 33 -28 41 0 77 24
77 52 0 17 -3 18 -15 8 -12 -10 -16 -9 -21 4 -7 18 -8 18 -46 3z"/>
<path d="M12419 3593 c-35 -42 -179 -305 -179 -327 0 -4 -29 -56 -64 -114 -34
-59 -74 -128 -87 -154 -13 -26 -51 -101 -83 -165 -33 -65 -81 -157 -107 -205
-25 -47 -50 -103 -53 -123 -4 -21 -16 -46 -26 -57 -10 -11 -20 -32 -23 -47 -3
-14 -19 -56 -36 -91 -16 -36 -35 -87 -41 -115 -7 -27 -20 -72 -30 -100 -10
-27 -26 -81 -35 -120 -10 -38 -28 -90 -40 -115 -13 -25 -26 -65 -30 -89 -4
-24 -16 -64 -27 -90 -10 -25 -23 -55 -27 -66 -31 -79 -87 -177 -140 -247 -12
-14 -21 -36 -21 -48 0 -12 -10 -40 -22 -61 -20 -36 -20 -41 -6 -55 14 -14 18
-13 42 12 14 16 26 34 26 40 0 7 15 31 34 53 19 23 40 58 47 79 6 20 31 72 55
114 24 43 44 81 44 86 0 13 95 156 115 172 9 8 31 34 48 59 16 25 46 64 66 87
20 22 54 65 76 94 22 29 49 62 60 74 11 11 25 28 30 37 42 72 81 131 110 169
19 25 39 55 45 68 6 13 21 38 35 56 14 18 25 36 25 39 0 4 29 49 64 101 35 52
67 105 71 118 4 13 15 32 25 43 20 23 60 99 60 115 0 27 -22 3 -64 -67 -26
-43 -51 -85 -57 -93 -5 -8 -17 -28 -27 -44 -49 -84 -328 -495 -398 -587 -45
-58 -92 -122 -105 -142 -19 -26 -29 -33 -39 -27 -13 8 -9 20 19 72 19 35 40
70 46 78 7 8 16 26 20 40 14 47 123 283 258 558 27 56 48 105 45 107 -14 14
-223 -368 -281 -510 -15 -38 -45 -106 -66 -150 -21 -44 -49 -110 -62 -145 -28
-75 -41 -52 -15 25 9 25 16 52 16 61 0 21 48 169 76 232 13 30 25 68 27 85 2
18 27 84 56 147 29 63 68 151 88 195 19 44 38 87 43 95 31 52 80 152 80 164 0
7 12 29 28 48 15 19 53 88 86 154 32 65 76 151 97 189 20 39 50 94 64 123 15
29 33 56 40 58 7 3 16 20 19 39 4 18 16 45 27 59 15 19 17 26 6 26 -8 0 -20
-8 -28 -17z"/>
<path d="M1390 3440 c-14 -27 27 -114 56 -118 25 -4 54 22 54 48 0 23 -62 90
-83 90 -9 0 -21 -9 -27 -20z m73 -57 c6 -33 3 -38 -18 -30 -19 8 -20 57 -1 57
7 0 16 -12 19 -27z"/>
<path d="M12440 3380 c-25 -47 -47 -92 -50 -100 -10 -27 -44 -95 -61 -120 -24
-36 -93 -200 -87 -206 6 -6 67 103 88 156 7 19 22 44 32 56 10 11 18 29 18 39
0 10 9 28 19 39 40 44 92 154 89 188 -3 31 -5 29 -48 -52z"/>
<path d="M6141 3203 c-23 -31 -41 -62 -41 -70 0 -7 -16 -27 -35 -44 -19 -17
-58 -60 -86 -96 -47 -58 -51 -66 -39 -87 6 -13 10 -32 8 -42 -4 -23 -38 -32
-38 -10 0 35 -34 12 -54 -35 -8 -20 -22 -41 -30 -49 -9 -7 -16 -23 -16 -36 0
-13 -8 -31 -18 -41 -10 -10 -30 -44 -45 -75 -15 -31 -31 -60 -37 -63 -5 -3
-14 -25 -21 -48 -6 -23 -18 -51 -28 -62 -9 -11 -25 -47 -36 -80 -10 -33 -24
-67 -30 -75 -19 -25 -55 -105 -55 -123 0 -10 -11 -40 -25 -67 -14 -27 -25 -60
-25 -72 0 -13 -9 -38 -21 -57 -11 -18 -18 -40 -15 -47 3 -8 -2 -33 -10 -56 -8
-24 -20 -67 -25 -96 -6 -28 -19 -71 -29 -95 -11 -23 -20 -56 -20 -72 0 -17
-11 -50 -24 -75 -13 -25 -26 -72 -29 -105 -3 -33 -13 -87 -22 -121 -11 -45
-16 -124 -18 -310 -2 -243 -1 -251 23 -317 28 -78 48 -96 75 -67 17 18 18 18
58 0 23 -10 78 -25 122 -33 44 -9 107 -21 140 -27 33 -7 89 -16 125 -20 59 -7
250 -46 341 -70 20 -6 54 -10 75 -10 22 0 57 -5 78 -10 22 -5 46 -5 54 -1 24
13 -11 38 -65 45 -95 14 -171 29 -348 72 -99 24 -200 44 -225 45 -52 2 -223
33 -262 48 -15 5 -42 7 -61 4 -26 -4 -36 -1 -41 12 -10 27 -8 336 3 380 6 22
11 65 11 95 0 30 11 91 25 135 14 44 28 102 31 130 3 27 14 73 24 101 11 28
28 100 40 160 26 135 49 226 60 238 5 5 25 -1 47 -15 76 -46 320 -208 388
-258 38 -28 75 -51 81 -51 7 0 34 -16 62 -35 28 -19 62 -37 76 -41 14 -3 30
-12 37 -20 6 -8 20 -14 30 -14 10 0 39 -18 64 -40 25 -22 54 -40 63 -40 18 0
212 -96 297 -147 28 -16 97 -62 154 -101 57 -40 109 -72 114 -72 6 0 18 -7 28
-16 22 -20 68 -46 139 -80 30 -15 62 -31 70 -36 8 -4 31 -16 50 -24 19 -9 42
-21 50 -28 8 -6 44 -25 80 -41 36 -16 74 -37 85 -46 34 -30 226 -99 274 -99
13 0 42 -9 65 -19 103 -48 133 -61 145 -61 7 0 30 -9 50 -19 20 -11 47 -22 61
-25 14 -3 34 -12 45 -21 20 -15 20 -15 1 -30 -32 -24 -8 -34 61 -26 115 14
102 31 -88 115 -149 66 -243 98 -342 116 -26 5 -89 31 -140 58 -130 70 -153
82 -325 166 -84 41 -170 88 -190 104 -20 16 -55 38 -77 50 -22 11 -83 51 -136
90 -53 38 -123 83 -155 99 -33 17 -126 68 -209 113 -82 45 -172 93 -200 106
-75 36 -169 92 -270 160 -49 34 -108 70 -130 82 -22 11 -63 38 -92 59 -28 21
-81 56 -118 78 -128 77 -127 75 -98 170 13 40 22 55 35 55 10 0 21 -7 24 -15
7 -17 124 -113 163 -134 14 -7 35 -21 46 -31 21 -17 132 -72 174 -85 17 -5 22
-4 19 6 -5 14 -57 59 -237 201 -58 46 -123 99 -145 120 l-40 36 26 49 c16 28
35 49 46 51 12 2 40 -14 71 -42 56 -50 144 -114 231 -166 31 -19 74 -48 95
-65 21 -16 56 -39 76 -50 21 -11 69 -46 106 -78 90 -76 235 -180 303 -216 30
-16 82 -50 115 -75 33 -26 76 -51 97 -56 20 -6 58 -30 85 -54 26 -24 73 -56
103 -71 70 -35 100 -62 100 -92 0 -19 4 -23 19 -18 11 3 33 -3 54 -17 19 -13
48 -31 63 -40 61 -37 223 -144 241 -160 10 -8 45 -31 78 -49 33 -18 78 -48 99
-66 22 -18 45 -33 52 -33 8 0 24 -9 36 -21 13 -12 66 -53 118 -91 52 -39 117
-92 145 -119 27 -27 59 -52 70 -55 11 -4 32 -18 48 -32 15 -14 27 -21 27 -14
0 17 -153 169 -178 176 -12 4 -24 16 -27 27 -4 11 -30 37 -58 58 -29 21 -81
64 -116 95 -36 31 -71 56 -79 56 -8 0 -35 17 -61 38 -25 20 -54 42 -63 47 -42
25 -127 86 -130 92 -1 5 -28 21 -58 37 -30 16 -82 50 -115 76 -33 26 -80 60
-105 75 -25 15 -58 40 -75 56 -38 35 -347 221 -440 264 -42 20 -104 62 -155
106 -47 41 -107 90 -134 109 -27 19 -69 53 -95 75 -25 22 -58 47 -72 54 -15 7
-62 40 -105 72 -44 32 -83 59 -89 59 -5 0 -48 36 -95 80 -47 44 -90 80 -97 80
-7 0 -28 14 -47 30 l-34 30 28 76 c16 42 40 94 54 115 14 21 26 47 26 58 0 11
12 23 30 31 32 13 38 28 18 48 -9 9 -7 16 7 32 10 11 24 20 32 20 8 0 27 15
44 32 22 25 28 39 24 59 -5 20 -2 28 13 31 11 3 22 18 26 34 4 16 21 43 37 59
62 62 129 151 129 171 0 12 7 27 15 34 21 17 19 30 -4 30 -13 0 -35 -21 -60
-57z m-281 -463 c0 -5 -2 -10 -4 -10 -3 0 -8 5 -11 10 -3 6 -1 10 4 10 6 0 11
-4 11 -10z m-135 -349 c3 -5 1 -12 -5 -16 -5 -3 -10 1 -10 9 0 18 6 21 15 7z
m465 -851 c0 -5 -2 -10 -4 -10 -3 0 -8 5 -11 10 -3 6 -1 10 4 10 6 0 11 -4 11
-10z"/>
<path d="M326 3108 c-20 -11 -20 -22 0 -42 20 -20 83 -21 112 0 28 20 29 37 0
29 -15 -6 -20 -4 -16 6 4 10 -6 14 -37 15 -24 0 -50 -3 -59 -8z"/>
<path d="M12474 2993 c-3 -10 -17 -42 -31 -71 -14 -29 -23 -55 -21 -58 3 -2
19 11 37 31 24 27 31 45 31 75 0 42 -7 52 -16 23z"/>
<path d="M12188 2876 c-28 -43 -35 -66 -20 -66 10 0 55 87 51 99 -2 6 -16 -9
-31 -33z"/>
<path d="M425 2900 c-10 -17 5 -30 35 -30 36 0 47 16 21 29 -25 14 -48 14 -56
1z"/>
<path d="M200 2794 c0 -39 18 -64 46 -64 24 0 25 3 19 28 -14 56 -65 85 -65
36z"/>
<path d="M12137 2777 c-11 -29 -9 -43 4 -30 6 6 9 19 7 29 -3 18 -4 18 -11 1z"/>
<path d="M1890 2747 c0 -8 10 -23 23 -35 24 -23 47 -29 47 -13 0 5 9 13 20 16
11 3 20 15 20 26 0 16 -7 19 -55 19 -39 0 -55 -4 -55 -13z"/>
<path d="M2340 2667 c-45 -12 -51 -22 -39 -67 3 -9 -4 -16 -18 -18 -13 -2 -23
-8 -23 -14 0 -16 87 -2 124 20 33 19 45 54 26 78 -14 16 -11 16 -70 1z"/>
<path d="M1011 2556 c-35 -36 -31 -48 19 -61 35 -9 80 36 60 60 -29 35 -46 36
-79 1z"/>
<path d="M1800 2567 c0 -34 65 -53 77 -22 7 20 6 21 -39 29 -29 5 -38 4 -38
-7z"/>
<path d="M785 2314 c-19 -19 -15 -38 8 -42 19 -4 60 35 52 48 -9 15 -42 12
-60 -6z"/>
<path d="M695 2210 c-30 -12 -46 -35 -39 -55 5 -13 14 -15 38 -11 44 9 61 28
47 55 -13 23 -16 24 -46 11z"/>
<path d="M6090 1821 c11 -22 36 -42 101 -84 24 -15 85 -54 134 -87 150 -99
202 -125 181 -92 -9 16 -144 102 -158 102 -8 0 -25 12 -39 26 -13 15 -61 51
-106 80 -46 30 -83 59 -83 64 0 6 -9 10 -20 10 -17 0 -19 -3 -10 -19z"/>
<path d="M9559 1690 c-1 -8 0 -25 1 -37 1 -13 -3 -23 -9 -23 -6 0 -11 5 -11
10 0 6 -5 10 -11 10 -21 0 -2 -100 23 -127 12 -13 23 -34 23 -46 1 -12 3 -49
4 -82 l3 -60 9 60 c10 69 -5 283 -21 299 -7 7 -10 5 -11 -4z"/>
<path d="M10011 1666 c-7 -16 -14 -90 -16 -163 -2 -74 -7 -138 -10 -142 -3 -5
-1 -20 4 -33 13 -33 18 -12 26 102 3 52 10 124 14 160 4 36 5 74 0 85 -6 18
-8 17 -18 -9z"/>
<path d="M8820 1627 c0 -8 9 -22 20 -32 22 -20 27 -7 10 26 -12 22 -30 25 -30
6z"/>
<path d="M9435 1571 c-3 -5 4 -58 16 -118 11 -59 23 -126 27 -148 5 -26 14
-41 25 -43 23 -5 22 16 -8 140 -14 57 -25 117 -25 134 0 31 -23 53 -35 35z"/>
<path d="M8870 1535 c0 -22 48 -115 60 -115 16 0 12 17 -15 70 -26 52 -45 71
-45 45z"/>
<path d="M6618 1460 c18 -17 41 -30 52 -30 27 0 26 3 -18 34 -52 36 -75 33
-34 -4z"/>
<path d="M6720 1409 c1 -16 78 -70 134 -93 45 -19 46 -19 46 -7 0 5 -30 26
-67 47 -38 20 -78 44 -90 52 -19 12 -23 12 -23 1z"/>
<path d="M8953 1361 c9 -43 43 -98 73 -118 38 -25 36 -12 -6 42 -22 28 -40 57
-40 66 0 9 -8 23 -17 30 -15 13 -16 11 -10 -20z"/>
<path d="M10771 1326 c-11 -17 -26 -51 -34 -76 -8 -25 -27 -65 -41 -90 -27
-47 -61 -138 -54 -145 2 -2 14 -2 26 2 22 5 42 41 83 150 11 29 31 61 44 71
23 18 65 87 65 107 0 5 -16 10 -35 11 -29 0 -39 -5 -54 -30z m-68 -231 c-3 -9
-8 -14 -10 -11 -3 3 -2 9 2 15 9 16 15 13 8 -4z"/>
<path d="M9524 1099 c12 -80 50 -179 68 -179 13 0 0 83 -30 190 -4 14 -16 26
-26 28 -17 4 -18 0 -12 -39z"/>
<path d="M10635 960 c4 -6 11 -8 16 -5 14 9 11 15 -7 15 -8 0 -12 -5 -9 -10z"/>
<path d="M10150 926 c0 -9 7 -16 16 -16 9 0 14 5 12 12 -6 18 -28 21 -28 4z"/>
<path d="M5240 473 c0 -16 154 -83 191 -83 10 0 51 -11 91 -24 40 -14 97 -28
126 -32 44 -6 52 -4 52 10 0 9 -11 18 -27 21 -16 3 -44 10 -64 15 -20 6 -50
10 -66 10 -16 0 -34 5 -40 11 -6 6 -58 24 -115 39 -57 15 -113 31 -125 35 -13
4 -23 3 -23 -2z"/>
<path d="M5070 442 c0 -26 25 -56 38 -48 18 11 14 37 -5 52 -24 18 -33 17 -33
-4z"/>
<path d="M6432 439 c2 -7 18 -16 34 -21 41 -11 216 -39 299 -48 39 -4 99 -13
135 -20 273 -51 381 -74 420 -91 25 -11 90 -27 145 -35 55 -8 112 -19 127 -25
14 -6 35 -9 45 -6 24 5 -57 43 -112 52 -45 7 -92 19 -180 46 -130 39 -308 79
-360 79 -22 1 -67 7 -100 15 -33 8 -81 15 -106 15 -25 0 -68 6 -95 14 -27 8
-76 17 -109 20 -33 4 -80 9 -104 13 -34 4 -43 3 -39 -8z"/>
<path d="M5831 367 c-9 -12 -25 -14 -67 -10 -47 5 -54 4 -48 -10 9 -24 95 -48
166 -46 74 2 183 -14 329 -47 58 -13 118 -24 134 -24 24 0 98 -18 155 -38 8
-3 47 -7 85 -9 39 -2 86 -10 105 -17 55 -22 168 -45 250 -51 77 -6 183 -23
350 -57 190 -38 257 -48 355 -53 55 -2 89 -2 75 1 -14 3 -32 11 -40 18 -13 11
-150 35 -200 35 -8 0 -40 7 -70 15 -30 7 -95 19 -145 26 -49 6 -114 15 -144
21 -30 5 -85 9 -122 9 -38 0 -83 6 -101 14 -18 8 -69 22 -113 31 -44 10 -93
21 -110 25 -16 5 -61 11 -100 15 -38 4 -108 17 -155 30 -47 13 -112 28 -145
34 -68 12 -287 47 -355 57 -27 3 -51 14 -61 26 -13 17 -17 18 -28 5z"/>
<path d="M5106 353 c-7 -8 12 -43 24 -43 15 0 12 37 -4 43 -8 3 -17 3 -20 0z"/>
<path d="M5283 210 c-113 -5 -160 -17 -140 -36 3 -3 95 -8 204 -10 198 -3 255
-6 283 -16 8 -3 95 -11 193 -17 98 -7 201 -16 230 -22 29 -5 97 -10 152 -9 55
0 123 1 150 1 47 0 136 -18 300 -61 88 -24 205 -36 205 -22 0 15 -27 23 -100
29 -63 5 -94 12 -230 55 -63 20 -304 40 -452 38 -32 -1 -97 5 -145 13 -48 8
-99 15 -113 15 -35 0 -338 35 -400 45 -8 2 -70 0 -137 -3z"/>
<path d="M6930 9 c0 -5 28 -9 62 -9 34 0 59 2 57 4 -10 8 -119 14 -119 5z"/>
</g>
</svg>
