<?xml version="1.0" standalone="no"?>
<!DOCTYPE svg PUBLIC "-//W3C//DTD SVG 20010904//EN"
 "http://www.w3.org/TR/2001/REC-SVG-20010904/DTD/svg10.dtd">
<svg version="1.0" xmlns="http://www.w3.org/2000/svg"
 width="1280.000000pt" height="640.000000pt" viewBox="0 0 1280.000000 640.000000"
 preserveAspectRatio="xMidYMid meet">
<metadata>
Created by potrace 1.15, written by Peter Selinger 2001-2017
</metadata>
<g transform="translate(0.000000,640.000000) scale(0.100000,-0.100000)"
fill="#000000" stroke="none">
<path d="M11701 6338 c-42 -19 -45 -19 -82 -2 -32 14 -46 15 -77 6 -45 -14
-167 -29 -287 -37 -188 -13 -251 -26 -328 -69 -39 -21 -83 -36 -119 -41 -31
-3 -62 -13 -69 -21 -6 -8 -19 -14 -27 -14 -9 0 -50 -17 -90 -37 -78 -40 -231
-169 -287 -242 -16 -22 -35 -41 -40 -43 -6 -2 -31 -26 -57 -54 -43 -46 -48
-55 -46 -95 0 -26 -8 -64 -20 -91 -18 -40 -30 -52 -79 -76 -56 -29 -165 -58
-247 -68 -22 -2 -56 -8 -75 -13 -20 -5 -88 -15 -151 -21 -63 -7 -140 -18 -170
-25 -139 -34 -390 -64 -390 -46 0 5 29 19 63 30 92 31 121 63 101 115 -12 32
-39 36 -115 20 -67 -14 -180 -22 -384 -27 l-70 -2 -6 37 c-7 43 -34 78 -60 78
-22 0 -105 -70 -138 -116 l-24 -33 -47 39 c-53 44 -106 70 -144 70 -38 0 -56
10 -72 41 -8 16 -20 29 -27 29 -7 0 -30 9 -51 21 -38 20 -40 20 -83 4 -25 -10
-68 -18 -96 -20 -54 -2 -105 -13 -122 -25 -5 -4 -30 -5 -55 -1 -30 4 -59 2
-85 -8 -52 -19 -50 -16 -30 -47 16 -26 19 -26 91 -19 51 5 74 3 74 -4 0 -12
-104 -156 -119 -165 -12 -8 -227 -29 -273 -27 -21 1 -38 -2 -38 -6 0 -5 -35
-9 -77 -10 -177 -4 -274 -4 -281 1 -4 2 -43 0 -86 -5 -44 -4 -129 -11 -190
-14 -119 -7 -135 -13 -156 -66 -10 -24 -10 -33 4 -54 9 -13 26 -27 39 -30 12
-3 127 -4 255 -3 205 3 235 2 242 -12 19 -35 -4 -42 -151 -52 -79 -5 -164 -11
-189 -13 -25 -2 -99 -6 -165 -9 -66 -4 -183 -11 -260 -17 -77 -5 -250 -12
-385 -14 -135 -2 -265 -6 -290 -8 -140 -12 -257 -18 -447 -22 -117 -3 -254 -9
-305 -14 -51 -5 -196 -8 -323 -6 -250 4 -388 -10 -435 -44 -68 -49 -124 -222
-134 -416 -3 -38 -8 -90 -12 -113 -13 -81 31 -266 108 -452 22 -52 43 -104 48
-115 15 -38 93 -116 139 -139 40 -20 54 -22 108 -16 55 7 174 49 243 86 55 29
138 64 153 64 9 0 31 9 49 19 18 11 58 26 89 34 65 18 129 39 184 63 42 18
151 44 196 47 14 1 33 8 41 14 37 31 280 117 403 143 59 12 120 29 180 48 17
6 57 18 90 27 33 9 94 27 135 40 41 14 98 29 125 34 47 9 62 13 145 41 19 7
55 16 80 21 64 12 199 56 216 70 8 6 14 22 14 35 0 29 10 30 44 3 30 -24 61
-21 156 12 30 11 100 31 155 44 55 14 111 30 125 35 14 5 39 12 55 14 41 7
178 44 246 67 31 11 65 19 75 19 10 0 43 11 73 25 45 21 59 24 85 15 72 -23
249 -52 351 -57 132 -6 159 -16 163 -60 4 -43 39 -69 110 -83 31 -6 75 -17 97
-24 22 -8 69 -19 105 -26 36 -6 94 -20 130 -30 36 -10 137 -33 225 -51 88 -17
175 -38 194 -45 18 -8 43 -14 55 -14 11 0 62 -11 111 -26 166 -47 230 -66 275
-80 63 -20 389 -104 615 -159 105 -25 196 -52 203 -59 20 -20 27 -187 13 -312
-13 -122 -2 -221 44 -384 13 -47 33 -123 45 -170 25 -99 112 -287 164 -355 56
-72 51 -83 -41 -89 -32 -3 -72 -12 -88 -20 -17 -9 -35 -16 -42 -16 -11 0 -52
-55 -104 -140 -9 -15 -20 -49 -23 -76 -6 -43 -1 -68 44 -199 93 -274 134 -419
145 -518 3 -21 7 -42 9 -46 3 -4 8 -64 11 -132 5 -94 10 -128 23 -142 27 -30
27 -134 -3 -500 -4 -43 -13 -102 -20 -130 -7 -28 -11 -55 -9 -59 17 -27 94 15
120 63 7 15 29 48 49 74 20 26 34 49 31 52 -3 4 1 11 9 17 8 6 20 38 26 71 6
33 13 70 15 83 3 13 22 41 43 61 60 59 62 90 9 148 -23 25 -20 47 8 49 75 3
70 -1 107 87 l35 82 -8 160 c-6 136 -12 171 -34 235 -33 90 -56 290 -37 314
27 33 119 23 256 -29 33 -12 76 -27 96 -34 44 -14 198 -15 235 -1 46 18 51 -1
21 -77 -31 -80 -53 -174 -61 -258 -4 -48 -1 -72 19 -120 13 -33 31 -98 39
-143 9 -46 23 -110 31 -142 8 -32 14 -73 14 -92 -2 -40 37 -168 78 -258 17
-36 36 -90 43 -120 10 -44 22 -64 59 -100 l47 -45 12 -155 c14 -189 6 -259
-40 -346 -27 -50 -46 -71 -98 -106 -116 -79 -119 -128 -7 -128 59 0 106 7 253
36 45 9 95 12 140 8 50 -4 87 -1 133 10 35 10 89 16 120 15 31 -1 149 4 264
12 l207 13 0 53 c0 51 -1 53 -28 53 -15 0 -33 -5 -39 -11 -23 -23 -165 -38
-308 -32 -152 6 -279 -7 -329 -34 -17 -8 -56 -19 -86 -23 -30 -5 -63 -11 -72
-15 -25 -10 -24 25 3 76 11 23 27 80 35 127 9 48 23 98 32 111 9 13 24 35 34
48 9 14 27 30 40 37 16 8 26 24 32 57 8 40 6 50 -14 77 -30 41 -28 84 6 129
l28 36 -14 71 c-7 39 -16 105 -20 146 -9 88 -27 168 -75 338 -20 67 -38 149
-42 182 -6 66 25 333 42 357 15 21 55 3 91 -42 74 -92 143 -159 198 -192 34
-20 72 -46 86 -58 52 -46 171 -125 189 -125 22 0 74 100 91 174 13 60 28 303
29 486 1 148 -8 239 -32 315 -57 184 -70 232 -93 330 -53 234 -75 315 -94 360
-10 22 -23 62 -29 89 -7 27 -19 58 -27 70 -7 11 -14 32 -14 47 0 15 -7 32 -15
39 -7 6 -17 33 -21 58 -4 26 -15 58 -25 71 -11 13 -19 37 -19 53 0 16 -9 46
-19 66 -10 20 -24 57 -31 81 -6 24 -20 60 -31 80 -10 20 -19 44 -19 54 0 10
-20 72 -45 138 -25 66 -45 126 -45 133 0 7 -9 30 -19 52 -10 21 -27 71 -36
109 -10 39 -28 94 -41 124 -13 29 -24 63 -24 75 0 11 -10 37 -21 56 -12 19
-30 60 -41 90 -10 30 -37 83 -60 118 -22 35 -48 76 -57 92 -42 74 -112 163
-152 191 -24 18 -45 33 -47 34 -2 2 0 15 4 29 5 20 10 24 19 16 9 -7 15 0 23
29 7 21 12 45 12 53 0 9 7 21 15 28 8 7 15 23 15 36 0 27 3 28 30 14 13 -7 21
-5 31 6 13 16 12 22 -18 152 -3 12 -1 22 5 22 5 0 15 -23 22 -50 12 -48 25
-68 37 -56 5 5 -14 106 -33 174 -3 12 -2 22 3 22 5 0 19 -35 32 -77 14 -43 28
-82 33 -87 14 -17 18 -1 8 34 -8 26 -6 37 5 50 13 15 13 23 -5 75 -11 33 -27
70 -36 83 -8 12 -14 37 -12 55 3 28 6 32 31 30 16 -1 49 -16 74 -32 50 -34 83
-31 39 3 -46 36 -161 138 -164 146 -2 4 5 11 14 14 12 5 30 -6 59 -34 22 -22
46 -40 53 -40 15 0 15 2 -3 36 -8 16 -15 37 -15 47 0 10 -12 22 -27 28 -22 8
-24 12 -13 19 23 15 34 12 74 -15 38 -26 66 -32 66 -16 0 6 -4 13 -10 16 -19
12 -10 25 18 25 15 1 42 13 61 30 33 28 35 50 5 50 -24 0 -10 25 15 28 37 6
18 27 -29 32 -64 7 -65 30 -1 30 28 0 51 5 51 10 0 6 -7 10 -16 10 -11 0 -14
5 -9 18 3 9 7 21 8 27 1 5 -31 13 -72 18 -59 7 -74 13 -78 28 -7 26 -33 32
-122 28 -97 -5 -112 14 -18 22 74 6 112 28 89 51 -10 10 -17 10 -33 0 -11 -7
-25 -10 -30 -6 -6 4 -29 1 -50 -6 -43 -15 -59 -9 -39 15 14 17 7 45 -12 44 -7
0 -33 -10 -57 -21z m-11 -108 c0 -5 -9 -10 -21 -10 -11 0 -17 5 -14 10 3 6 13
10 21 10 8 0 14 -4 14 -10z m214 -41 c-7 -12 24 -49 42 -49 7 0 14 5 16 10 4
13 88 2 88 -11 0 -5 -18 -12 -41 -15 -27 -5 -46 -15 -56 -30 -17 -27 -62 -32
-110 -13 l-28 12 40 13 c22 7 35 13 29 13 -7 1 -14 8 -17 15 -8 19 22 78 34
70 5 -3 7 -10 3 -15z m-790 -35 c7 -19 8 -17 -22 -33 -31 -16 -17 -34 22 -27
17 3 61 11 99 17 53 10 72 10 91 0 13 -7 33 -10 45 -6 15 5 21 2 21 -10 0 -9
-12 -18 -30 -22 -41 -8 -32 -29 9 -25 29 3 32 1 26 -17 -5 -17 -2 -21 14 -21
22 0 28 -14 11 -25 -6 -4 -8 -11 -4 -16 4 -6 35 -8 83 -3 64 5 79 4 90 -10 12
-14 9 -16 -22 -16 -39 0 -56 -15 -38 -33 8 -8 22 -8 50 -1 34 9 75 3 61 -9 -3
-2 -19 -13 -37 -25 -17 -13 -35 -33 -39 -45 -3 -12 -18 -34 -31 -49 -15 -15
-23 -33 -20 -42 3 -8 -1 -20 -9 -26 -19 -16 -18 -34 2 -51 14 -12 20 -9 44 19
23 28 29 30 39 18 9 -11 8 -29 -4 -80 -8 -37 -21 -79 -29 -94 -19 -37 -124
-134 -139 -129 -6 2 -14 17 -17 33 -7 41 -31 36 -48 -9 -14 -34 -13 -39 3 -57
35 -39 77 -26 166 52 60 52 103 120 114 181 16 82 53 3 54 -113 1 -52 -2 -70
-9 -60 -5 8 -10 32 -10 53 0 26 -4 37 -15 37 -18 0 -20 -38 -3 -126 10 -54 9
-66 -5 -88 -10 -14 -17 -39 -17 -55 0 -16 -5 -33 -11 -36 -6 -4 -9 -23 -7 -44
l3 -36 -65 -5 c-36 -3 -87 -13 -115 -22 -27 -10 -77 -22 -110 -28 -33 -7 -89
-19 -125 -28 -43 -10 -119 -17 -224 -19 -88 -1 -165 -4 -173 -7 -9 -4 -13 -24
-13 -61 l0 -55 -51 0 c-39 0 -68 8 -116 32 -68 35 -129 90 -119 106 7 11 126
52 151 52 17 0 243 107 287 136 27 18 28 17 85 -10 48 -22 69 -27 121 -24 75
4 86 21 17 28 -47 5 -117 33 -209 81 -25 14 -73 24 -140 31 -99 10 -102 12
-140 50 -47 47 -89 70 -119 66 -39 -6 -29 -32 24 -61 43 -24 50 -31 47 -55 -2
-19 -13 -32 -36 -43 -31 -16 -35 -16 -74 3 -23 11 -55 30 -70 41 -35 26 -89
24 -134 -4 -28 -17 -33 -25 -28 -44 7 -27 10 -26 -111 -45 -38 -6 -94 -16
-124 -21 -30 -5 -82 -9 -115 -9 -34 0 -96 -7 -139 -15 -43 -8 -107 -15 -142
-15 -34 0 -87 -5 -116 -10 -30 -6 -88 -12 -129 -15 -41 -2 -118 -13 -170 -24
-52 -12 -119 -21 -150 -21 -30 -1 -84 -7 -120 -15 -36 -8 -90 -14 -120 -15
-30 0 -89 -7 -130 -16 -41 -9 -114 -19 -162 -21 -80 -4 -87 -6 -90 -26 -2 -16
-12 -24 -38 -29 -235 -48 -268 -51 -281 -28 -53 91 -79 146 -75 157 3 7 20 13
38 13 18 0 49 5 68 10 19 6 76 15 125 20 117 12 314 43 440 70 177 37 343 62
595 90 52 5 147 19 210 30 63 12 149 25 190 30 41 5 117 19 169 30 52 11 125
20 162 20 58 0 72 4 98 26 17 14 31 31 31 38 0 7 14 25 31 42 36 34 74 104 83
156 4 20 17 45 29 55 13 10 32 34 44 54 27 42 219 222 271 253 15 9 116 47
242 92 83 29 224 34 234 8z m973 -20 c-3 -3 -12 -4 -19 -1 -8 3 -5 6 6 6 11 1
17 -2 13 -5z m-43 -80 c22 -8 20 -21 -4 -27 -22 -6 -35 7 -25 23 7 12 8 12 29
4z m-85 -20 c3 -2 0 -9 -6 -15 -13 -13 -67 7 -58 22 6 10 53 5 64 -7z m-163
-109 c16 -13 17 -16 4 -25 -20 -13 -23 -13 -46 5 -16 13 -17 16 -4 25 20 13
23 13 46 -5z m-144 -122 c24 -22 25 -58 1 -47 -10 4 -37 7 -60 6 -49 -2 -54 8
-17 37 32 25 51 26 76 4z m-3572 -208 c0 -3 -28 -19 -62 -36 -33 -17 -84 -52
-112 -78 -81 -75 -143 -121 -161 -121 -28 0 -9 48 44 108 41 48 60 60 142 92
84 34 149 49 149 35z m87 -71 c2 -7 -17 -22 -43 -35 -26 -12 -71 -42 -101 -66
-79 -64 -112 -57 -65 14 32 48 71 81 110 93 36 12 95 8 99 -6z m418 -39 c0
-16 -8 -21 -42 -23 -46 -3 -49 -1 -32 29 15 28 74 23 74 -6z m585 -25 c0 -17
-43 -50 -75 -56 -55 -10 -80 -2 -80 26 0 23 5 26 50 31 82 10 105 10 105 -1z
m-860 -14 c7 -8 -95 -73 -127 -81 -46 -11 -48 16 -4 56 33 33 43 37 82 34 24
-1 46 -5 49 -9z m-180 -19 c0 -22 -22 -37 -53 -37 -26 0 -28 2 -16 16 12 15
44 32 62 33 4 1 7 -5 7 -12z m808 -36 c10 -6 6 -12 -15 -26 -15 -10 -39 -28
-53 -41 -30 -27 -133 -53 -207 -51 -59 1 -62 7 -36 61 19 40 30 44 161 55 124
12 135 12 150 2z m-918 -36 c0 -8 -7 -15 -15 -15 -16 0 -20 12 -8 23 11 12 23
8 23 -8z m-170 -9 c0 -16 -21 -26 -56 -26 -29 0 -23 17 10 30 31 13 46 12 46
-4z m730 -12 c0 -65 -52 -103 -149 -109 -25 -2 -86 -9 -136 -16 -113 -16 -164
-15 -201 2 -34 17 -47 59 -17 59 10 0 47 14 81 30 51 24 78 30 135 31 40 0 95
7 122 14 28 7 76 13 108 14 55 1 57 0 57 -25z m-902 -16 c-3 -8 -33 -15 -79
-19 -41 -4 -105 -9 -144 -13 -65 -7 -68 -6 -51 8 13 11 42 16 85 17 36 0 86 4
111 8 68 13 82 12 78 -1z m-303 -28 c3 -5 -1 -10 -9 -10 -9 0 -16 5 -16 10 0
6 4 10 9 10 6 0 13 -4 16 -10z m639 -23 c10 -39 7 -77 -7 -77 -23 0 -107 32
-107 40 0 5 8 11 18 14 11 4 29 17 41 30 26 28 46 25 55 -7z m2396 18 c0 -15
-26 -20 -54 -9 -28 11 -17 24 19 24 24 0 35 -5 35 -15z m434 -1 c43 -5 56 -22
31 -40 -43 -32 -183 -95 -230 -103 -27 -5 -72 -18 -98 -28 l-49 -18 -24 29
c-19 21 -24 38 -22 65 l3 36 63 6 c51 5 70 12 100 37 37 32 38 32 117 26 44
-4 93 -8 109 -10z m-3569 -3 c10 -17 -12 -21 -152 -31 -160 -12 -343 -33 -425
-50 -31 -7 -64 -10 -72 -7 -29 11 -17 36 22 46 45 12 249 34 260 28 4 -3 75 1
157 8 201 16 203 16 210 6z m563 -7 c12 -4 22 -13 22 -20 0 -11 -21 -14 -99
-14 -129 0 -149 21 -31 33 63 7 85 7 108 1z m-282 -29 c-22 -17 -66 -20 -66
-6 0 11 23 18 60 20 24 0 24 0 6 -14z m-88 -23 c5 -16 -105 -93 -141 -97 -18
-2 -60 -7 -94 -9 l-63 -6 -18 38 c-19 41 -3 37 -169 41 -13 1 -23 5 -23 10 0
16 445 53 484 40 11 -3 22 -11 24 -17z m2919 -47 c12 -22 25 -65 28 -95 11
-98 9 -96 89 -134 41 -20 83 -47 94 -61 17 -21 28 -24 92 -27 58 -2 75 -7 84
-21 14 -24 -9 -42 -84 -63 -30 -9 -90 -30 -133 -47 -78 -30 -80 -30 -170 -19
-51 7 -138 25 -194 41 -116 34 -437 104 -593 130 -25 5 -79 17 -120 29 -119
32 -207 50 -320 62 -134 15 -216 32 -213 45 3 14 58 21 408 52 35 3 71 13 86
24 17 11 44 19 69 19 24 0 72 5 109 11 36 5 107 16 156 24 50 8 108 17 130 21
22 3 56 8 75 9 36 3 132 19 205 35 22 4 71 7 110 7 l69 -2 23 -40z m-2822 6
c-7 -12 -64 -25 -73 -16 -3 3 0 10 8 15 19 12 73 13 65 1z m384 -48 c21 -21
63 -81 93 -134 31 -52 62 -100 70 -106 19 -16 126 -53 178 -62 42 -7 80 -22
106 -42 6 -5 8 -25 5 -50 -5 -36 -10 -43 -44 -56 -35 -14 -41 -14 -85 5 -26
11 -83 23 -127 27 -137 12 -267 35 -342 62 l-73 25 -44 77 c-24 42 -51 93 -59
114 -13 31 -26 42 -77 63 -66 29 -85 61 -28 49 48 -11 111 -40 127 -59 21 -25
33 -19 29 17 -3 32 -2 32 43 35 46 3 47 2 80 -48 41 -63 60 -52 28 16 -13 27
-25 52 -27 57 -11 20 38 3 63 -23 49 -52 84 -32 41 24 -24 32 -25 46 -3 46 5
0 26 -17 46 -37z m-564 -73 c17 -11 38 -20 48 -20 33 0 115 -49 145 -87 33
-43 106 -182 98 -190 -2 -3 -44 -18 -91 -35 -80 -27 -88 -28 -104 -13 -15 13
-24 13 -47 4 -16 -6 -94 -28 -174 -49 -80 -21 -230 -62 -335 -90 -154 -42
-199 -50 -238 -45 -28 3 -56 1 -68 -6 -12 -6 -62 -17 -112 -24 -58 -9 -101
-21 -118 -34 -22 -16 -48 -21 -142 -25 -63 -3 -127 -10 -142 -16 -14 -5 -52
-10 -83 -10 -31 0 -113 -13 -182 -29 -69 -16 -147 -34 -175 -39 -78 -16 -179
-44 -189 -53 -15 -14 15 -11 70 6 59 18 87 19 82 3 -2 -6 -35 -19 -74 -29 -85
-21 -276 -78 -282 -84 -13 -13 43 -2 128 25 52 16 140 40 195 53 55 14 112 31
128 38 27 12 49 6 31 -10 -15 -14 -243 -82 -344 -102 -52 -11 -143 -36 -202
-56 -83 -28 -108 -40 -112 -56 -3 -12 -4 -22 -3 -24 4 -3 62 17 225 78 139 51
165 57 156 36 -2 -7 -35 -23 -72 -34 -37 -12 -116 -40 -177 -63 -60 -23 -126
-45 -145 -50 -19 -5 -45 -12 -57 -15 -37 -12 -26 3 14 20 20 8 34 18 30 21 -5
5 -97 -20 -192 -52 -23 -8 -47 -14 -55 -14 -7 0 -21 -6 -29 -14 -9 -7 -38 -19
-66 -25 -27 -7 -58 -14 -67 -17 -10 -3 -18 -1 -18 5 0 6 23 18 50 28 28 10 50
21 50 25 0 12 -13 10 -55 -8 -28 -12 -36 -12 -33 -2 5 13 43 28 173 67 135 41
360 113 380 122 40 19 -39 -1 -165 -41 -279 -87 -435 -122 -388 -86 9 7 43 18
75 25 32 7 90 24 128 37 39 13 107 33 153 45 46 12 81 24 78 26 -6 6 -222 -45
-261 -62 -44 -19 -130 -31 -121 -16 4 6 2 11 -4 11 -6 0 -14 -10 -19 -22 -14
-39 -23 -1 -33 136 -5 72 -15 167 -23 212 -8 44 -15 96 -15 115 0 45 -82 208
-162 324 -15 21 -26 41 -24 43 2 2 111 7 243 13 131 5 348 13 483 19 135 5
292 12 350 14 58 2 157 9 220 15 63 6 232 14 375 16 143 3 314 9 380 14 251
20 546 41 694 50 84 6 156 12 159 15 10 10 27 6 57 -14z m4233 -13 c52 -34
207 -259 239 -347 14 -35 28 -69 32 -75 15 -18 69 -148 106 -255 21 -58 50
-139 66 -180 15 -41 35 -102 44 -135 9 -33 23 -78 32 -100 44 -113 68 -182
110 -310 24 -77 65 -190 89 -252 24 -62 44 -119 44 -128 0 -8 11 -48 25 -88
14 -39 42 -135 61 -212 20 -77 43 -156 51 -175 8 -19 21 -60 28 -90 8 -30 26
-95 39 -145 14 -53 29 -148 36 -229 37 -447 37 -527 -6 -671 -15 -54 -17 -56
-42 -50 -15 3 -38 15 -52 25 -14 11 -45 32 -70 47 -25 14 -58 39 -75 54 -16
15 -48 36 -71 47 -22 11 -57 38 -76 60 -20 22 -60 59 -90 82 -159 126 -395
361 -530 530 -63 80 -166 236 -204 311 -20 41 -47 88 -60 105 -76 99 -278 486
-288 552 -3 23 -19 73 -36 110 -102 234 -141 357 -143 450 -2 69 0 75 25 97
15 13 71 37 125 54 98 30 122 37 308 84 133 34 211 63 252 94 42 32 60 62 44
73 -19 11 -135 -23 -203 -60 -10 -6 -25 -10 -35 -10 -9 0 -51 -17 -92 -39 -67
-34 -158 -69 -411 -156 -94 -32 -241 -56 -350 -57 -72 -1 -121 5 -205 26 -60
15 -139 34 -175 41 -36 7 -103 24 -150 38 -47 14 -130 37 -185 51 -137 37
-225 63 -323 97 -46 16 -107 33 -135 39 -29 5 -92 20 -142 34 -175 47 -281 75
-325 86 -25 7 -54 16 -65 21 -11 5 -56 13 -100 19 -160 18 -313 54 -322 76 -2
7 5 30 16 53 12 22 26 73 33 113 7 40 17 76 23 80 16 12 68 9 147 -8 40 -8
107 -17 148 -19 113 -5 190 -18 350 -58 180 -45 503 -107 559 -107 23 0 58 -7
78 -15 19 -8 47 -15 61 -15 14 0 53 -6 86 -14 34 -8 95 -19 136 -26 73 -12 99
-18 229 -60 36 -11 77 -20 93 -20 15 0 43 -7 62 -16 32 -16 36 -16 78 4 89 43
201 92 208 92 5 0 31 16 60 35 28 19 68 39 88 45 20 5 73 24 117 41 44 17 111
39 148 49 37 10 74 23 81 29 8 6 39 18 69 26 49 13 62 13 108 -1 65 -19 83 -8
52 33 -30 42 -71 50 -121 24 -23 -12 -88 -37 -144 -56 -57 -18 -134 -45 -172
-59 -105 -39 -108 -38 -135 44 -23 72 -22 90 7 90 9 0 59 13 111 30 53 16 141
43 196 60 56 16 143 50 195 75 114 54 171 57 238 12z m-460 -58 c-2 -7 -29
-18 -58 -26 -30 -7 -96 -27 -147 -44 -115 -38 -137 -36 -141 10 -2 19 2 37 8
41 7 4 63 8 124 9 61 0 127 5 146 10 50 13 72 13 68 0z m-2306 -10 c30 -16
195 -49 248 -49 25 0 63 -5 85 -11 22 -5 90 -21 150 -34 61 -14 151 -34 200
-46 102 -23 216 -39 228 -32 4 2 7 0 7 -5 0 -5 12 -12 28 -15 15 -3 54 -13 87
-21 33 -8 105 -24 160 -37 55 -12 104 -25 110 -30 5 -5 19 -9 31 -9 29 0 183
-38 211 -52 24 -12 72 2 241 72 56 24 105 40 109 36 4 -4 -14 -26 -40 -50 -37
-33 -47 -50 -47 -74 0 -38 -22 -54 -101 -72 -38 -8 -73 -10 -105 -4 -27 4 -56
7 -64 6 -8 -1 -44 7 -80 18 -95 28 -306 71 -560 114 -80 13 -163 29 -185 35
-22 6 -78 15 -125 21 -47 6 -114 19 -150 30 -36 10 -99 25 -140 33 -41 9 -113
23 -160 33 -78 15 -162 23 -405 39 -49 3 -107 11 -128 17 -28 8 -43 8 -62 0
-31 -14 -85 -16 -85 -3 0 12 86 41 119 41 26 0 194 35 241 50 38 12 159 11
182 -1z m-4484 -75 c61 -39 149 -211 185 -364 69 -289 73 -449 17 -643 -45
-156 -85 -186 -208 -155 -75 19 -117 68 -207 248 -34 67 -63 173 -75 275 -6
50 -15 117 -20 150 -6 36 -6 84 -1 120 20 132 24 152 38 210 18 73 41 112 84
144 56 42 134 47 187 15z m6467 -215 c0 -13 -22 -27 -104 -63 -70 -32 -62 4
15 64 43 33 52 36 69 25 11 -7 20 -19 20 -26z m-2457 -61 c-6 -16 -36 -34 -44
-26 -3 4 -4 14 -1 23 7 17 51 21 45 3z m-2323 -278 c3 -5 2 -10 -4 -10 -5 0
-13 5 -16 10 -3 6 -2 10 4 10 5 0 13 -4 16 -10z m-165 -4 c0 -11 -19 -15 -25
-6 -3 5 1 10 9 10 9 0 16 -2 16 -4z m76 -35 c-4 -6 -15 -11 -24 -11 -9 0 -73
-18 -142 -40 -69 -22 -133 -40 -143 -40 -10 0 -45 -9 -79 -21 -38 -12 -64 -17
-70 -11 -10 10 40 32 72 32 9 0 30 6 46 14 50 25 329 103 338 95 4 -4 5 -12 2
-18z m4867 -358 c-4 -97 -4 -100 46 -238 27 -77 64 -176 81 -220 18 -44 41
-105 52 -135 62 -173 223 -463 391 -702 32 -46 72 -112 89 -147 31 -62 31 -64
13 -77 -33 -24 -174 -15 -286 17 -142 42 -304 133 -352 198 -12 16 -48 63 -79
104 -32 40 -58 80 -58 88 0 8 -19 46 -43 84 -40 66 -87 183 -173 430 -34 96
-39 121 -39 202 0 84 2 94 25 118 17 18 21 30 15 39 -42 57 -43 62 -45 166 -1
58 -2 110 -1 115 0 6 31 11 69 12 37 1 108 11 157 22 50 10 102 20 116 20 l26
1 -4 -97z m-5853 48 c0 -12 -68 -38 -142 -56 -79 -18 -73 2 8 25 32 9 68 21
79 28 24 14 55 16 55 3z m-220 -82 c0 -5 -7 -9 -15 -9 -15 0 -20 12 -9 23 8 8
24 -1 24 -14z m6043 -1332 c28 -29 68 -65 87 -79 37 -28 253 -118 281 -118 10
0 21 -4 24 -10 3 -5 21 -10 38 -10 18 0 52 -7 77 -16 34 -12 74 -15 170 -12
l125 3 -2 -64 c-1 -35 -6 -68 -11 -73 -5 -5 -70 -12 -144 -15 -120 -5 -140 -4
-190 15 -80 30 -246 72 -284 72 -24 0 -34 5 -39 21 -6 19 -8 20 -26 3 -15 -14
-19 -30 -18 -90 1 -40 -2 -78 -6 -85 -15 -23 -6 -156 14 -210 33 -91 41 -148
43 -314 4 -200 0 -210 -75 -201 -28 4 -56 11 -62 16 -5 4 -34 16 -63 25 -79
26 -94 42 -98 106 -11 155 -28 262 -55 342 -16 49 -29 99 -29 111 0 12 -4 26
-9 32 -5 5 -16 36 -25 69 -8 33 -29 98 -46 145 -23 62 -33 107 -36 166 -3 72
-1 84 20 112 41 56 95 92 140 93 22 1 55 5 71 9 62 16 74 11 128 -43z m902
-358 c23 -42 86 -112 136 -151 18 -15 53 -44 77 -65 l43 -38 -15 -115 c-9 -63
-20 -142 -27 -174 -6 -33 -8 -79 -4 -103 9 -62 51 -226 63 -249 11 -21 45
-186 61 -301 15 -102 14 -140 -5 -147 -9 -3 -64 -6 -124 -6 l-108 0 -32 78
c-18 42 -47 109 -65 147 -29 63 -37 90 -50 175 -2 14 -13 68 -24 120 -11 52
-20 104 -21 116 0 11 -9 47 -19 80 -39 119 -44 332 -11 444 12 41 28 106 36
143 8 38 17 73 20 78 12 20 49 3 69 -32z m-946 -863 c7 -8 16 -37 20 -65 4
-27 13 -57 20 -64 9 -12 6 -17 -18 -26 -36 -16 -81 -11 -94 10 -16 25 1 147
21 152 31 8 39 7 51 -7z m-19 -265 c0 -25 -33 -53 -54 -45 -20 8 -23 83 -3
103 10 10 16 7 35 -14 12 -14 22 -34 22 -44z m1274 -307 c3 -9 6 -38 6 -66 0
-48 -3 -54 -53 -105 -30 -29 -59 -53 -65 -53 -17 0 -27 47 -26 121 2 99 15
114 100 118 21 1 34 -5 38 -15z m50 -197 c-1 -26 -9 -44 -31 -64 -45 -43 -60
-71 -77 -153 -16 -72 -53 -170 -65 -170 -22 1 -29 18 -22 57 5 23 6 64 3 91
-6 65 25 138 62 148 17 4 26 13 26 25 0 23 78 111 94 106 6 -2 10 -20 10 -40z"/>
<path d="M11379 5768 c-71 -131 -73 -138 -42 -138 8 0 22 18 30 40 14 36 43
56 43 30 0 -5 4 -10 9 -10 13 0 34 67 27 85 -9 23 -54 18 -67 -7z"/>
<path d="M10710 5750 c-154 -10 -193 -27 -226 -96 -10 -20 -27 -37 -47 -43
-24 -9 -28 -14 -19 -23 16 -16 152 -12 257 8 190 35 215 46 215 95 0 30 -33
70 -55 67 -5 -1 -62 -4 -125 -8z m95 -53 c22 -17 14 -22 -41 -32 -44 -7 -61 3
-50 30 7 19 66 20 91 2z m-237 -50 c2 -10 -3 -17 -12 -17 -9 0 -16 2 -16 4 0
2 -3 12 -6 21 -5 13 -2 16 12 13 10 -2 20 -11 22 -21z"/>
<path d="M5375 4275 c-160 -41 -294 -82 -270 -84 28 -3 355 85 355 94 0 8 -30
4 -85 -10z"/>
<path d="M5165 4269 c-22 -6 -83 -19 -135 -30 -52 -12 -133 -32 -179 -46 -69
-21 -81 -27 -67 -35 13 -8 21 -7 26 3 6 9 14 10 31 3 14 -6 34 -7 49 -2 114
37 281 87 310 93 19 4 42 11 50 16 20 11 -32 10 -85 -2z"/>
<path d="M4910 4040 c0 -5 7 -7 15 -4 8 4 15 8 15 10 0 2 -7 4 -15 4 -8 0 -15
-4 -15 -10z"/>
<path d="M11077 4034 c-39 -26 -40 -28 -16 -91 24 -63 103 -86 134 -39 14 22
14 28 -5 77 -20 52 -42 79 -65 79 -6 0 -27 -12 -48 -26z"/>
<path d="M11140 3583 c-33 -22 -40 -33 -40 -64 0 -33 39 -69 76 -69 16 0 35
-4 43 -9 20 -13 40 -3 56 30 21 39 20 44 -21 89 -40 45 -73 51 -114 23z"/>
<path d="M11347 3203 c-9 -11 -17 -34 -17 -52 0 -35 26 -87 46 -95 23 -9 92
34 105 65 11 28 10 33 -17 60 -39 38 -92 48 -117 22z"/>
<path d="M11547 2883 c-8 -10 -18 -34 -22 -53 -5 -32 -3 -37 28 -57 44 -30 52
-29 77 12 18 29 19 38 9 57 -18 36 -41 58 -59 58 -9 0 -24 -8 -33 -17z"/>
<path d="M11743 2599 c-22 -6 -33 -16 -33 -28 0 -21 39 -83 56 -88 21 -7 74
47 74 76 0 49 -28 60 -97 40z"/>
<path d="M11872 2388 c-15 -15 -15 -27 1 -61 14 -30 37 -41 68 -32 38 12 42
73 5 97 -17 12 -61 9 -74 -4z"/>
<path d="M4227 4874 c-44 -24 -86 -120 -104 -238 -23 -156 -7 -477 29 -571 19
-49 50 -108 61 -116 9 -6 15 -15 52 -79 37 -63 80 -100 116 -100 97 1 162 99
192 290 15 93 5 193 -43 445 -20 102 -96 268 -157 340 -33 40 -42 45 -78 45
-22 -1 -52 -8 -68 -16z m173 -138 c0 -16 -26 -46 -41 -46 -17 0 -9 29 13 44
27 19 28 19 28 2z m-220 -46 c0 -5 -4 -10 -10 -10 -5 0 -10 5 -10 10 0 6 5 10
10 10 6 0 10 -4 10 -10z m104 -52 c-9 -30 -12 -34 -24 -22 -14 14 -2 44 17 44
10 0 12 -6 7 -22z m80 -23 c-6 -16 -34 -21 -34 -7 0 13 11 22 26 22 8 0 11 -6
8 -15z m86 -12 c-1 -5 -7 -19 -15 -33 -12 -22 -14 -23 -20 -7 -9 23 1 47 20
47 8 0 15 -3 15 -7z m-178 -85 c-15 -15 -26 -4 -18 18 5 13 9 15 18 6 9 -9 9
-15 0 -24z m74 -15 c-2 -3 -9 -2 -15 2 -8 4 -7 13 1 28 l13 22 3 -23 c2 -13 1
-26 -2 -29z m134 -13 c0 -30 -13 -40 -25 -20 -8 13 4 50 16 50 5 0 9 -13 9
-30z m-70 -4 c0 -15 -18 -31 -26 -23 -7 7 7 37 17 37 5 0 9 -6 9 -14z m-120
-20 c0 -16 -21 -56 -30 -56 -11 0 -14 43 -3 53 7 8 33 10 33 3z m60 -51 c0 -8
-7 -15 -15 -15 -16 0 -20 12 -8 23 11 12 23 8 23 -8z m105 -4 c3 -5 1 -12 -5
-16 -5 -3 -10 1 -10 9 0 18 6 21 15 7z m-45 -68 c0 -38 6 -97 12 -133 17 -89
12 -200 -8 -207 -26 -9 -57 323 -35 380 18 47 31 31 31 -40z m-124 -39 c-4
-20 -13 -34 -21 -34 -20 0 -19 40 2 70 20 29 28 14 19 -36z m64 -9 c-5 -14
-14 -23 -20 -20 -13 8 -13 17 1 52 9 24 12 26 20 11 6 -10 5 -26 -1 -43z m110
-5 c0 -5 -4 -10 -10 -10 -5 0 -10 5 -10 10 0 6 5 10 10 10 6 0 10 -4 10 -10z
m64 -91 c7 30 10 32 18 17 30 -53 -32 -373 -69 -359 -12 5 -14 15 -9 45 4 26
3 37 -4 33 -5 -3 -10 -19 -10 -36 0 -16 -4 -29 -10 -29 -5 0 -18 -10 -30 -22
-11 -12 -20 -16 -20 -9 0 8 -7 10 -20 6 -21 -7 -21 -6 -24 97 -1 12 5 23 12
26 8 2 12 -8 12 -32 0 -19 5 -38 10 -41 6 -4 10 10 10 34 0 23 5 41 10 41 6 0
10 -21 10 -47 1 -35 3 -44 10 -32 8 14 15 63 19 133 1 11 6 16 15 13 11 -5 15
15 21 101 3 59 11 118 18 132 11 23 12 19 17 -40 5 -60 6 -63 14 -31z m-217
-26 c-8 -100 -28 -102 -35 -4 -5 67 13 118 30 86 6 -10 8 -47 5 -82z m52 -30
c1 -13 -3 -23 -9 -23 -5 0 -10 19 -9 43 0 32 2 37 9 22 5 -11 9 -30 9 -42z
m-69 -128 c0 -51 -13 -60 -45 -31 -22 20 -26 29 -17 38 7 7 12 28 12 48 0 20
3 40 8 44 10 11 41 -63 42 -99z m43 -58 c-4 -59 -10 -87 -18 -87 -19 0 -25 41
-16 101 21 122 43 114 34 -14z m43 66 c-6 -14 -9 -15 -16 -4 -11 19 -1 46 13
32 5 -5 7 -18 3 -28z"/>
<path d="M10523 3893 c-7 -18 15 -64 34 -70 20 -7 37 41 24 66 -14 25 -49 28
-58 4z"/>
<path d="M10549 3646 c-17 -36 -4 -78 23 -74 31 4 44 31 32 65 -13 37 -41 42
-55 9z"/>
<path d="M10625 3453 c-10 -15 -20 -46 -23 -70 -4 -40 -3 -43 20 -43 30 0 53
55 44 106 -8 41 -18 43 -41 7z"/>
<path d="M10722 3175 c-40 -50 -21 -101 27 -75 24 12 28 56 8 84 -13 18 -15
17 -35 -9z"/>
<path d="M10790 2949 c-13 -24 -7 -49 13 -49 23 0 36 23 26 48 -10 28 -25 28
-39 1z"/>
<path d="M10923 2793 c-6 -16 28 -53 48 -53 22 0 21 34 0 52 -29 22 -40 23
-48 1z"/>
<path d="M11050 2660 c0 -11 7 -20 15 -20 8 0 15 9 15 20 0 11 -7 20 -15 20
-8 0 -15 -9 -15 -20z"/>
<path d="M11260 2585 c7 -8 19 -15 26 -15 8 0 14 7 14 15 0 10 -10 15 -26 15
-22 0 -25 -2 -14 -15z"/>
<path d="M3126 4471 c-20 -33 -49 -70 -63 -81 -26 -20 -28 -20 -40 -4 -7 10
-13 32 -13 48 0 43 -13 60 -39 51 -51 -16 -54 -182 -5 -300 29 -69 29 -73 29
-259 0 -184 0 -189 -22 -204 -25 -16 -29 -42 -11 -72 9 -13 9 -27 3 -47 -10
-27 -50 -46 -171 -84 -18 -5 -42 -17 -55 -27 -23 -17 -74 -35 -146 -52 -38 -9
-43 -1 -43 78 0 75 -32 194 -64 240 -13 20 -28 49 -31 65 -6 22 -13 27 -36 27
-18 0 -32 7 -39 20 -8 15 -5 25 20 54 28 31 29 35 14 50 -17 18 -53 14 -91
-10 -29 -18 -30 -18 -36 6 -7 25 -35 25 -67 0 -34 -26 -60 -26 -53 0 5 20 -11
28 -22 10 -3 -6 -15 -5 -30 2 -21 9 -29 8 -48 -9 -12 -11 -43 -31 -69 -43 -41
-20 -49 -21 -64 -9 -15 12 -18 11 -28 -5 -6 -10 -37 -45 -69 -78 -44 -46 -63
-59 -79 -55 -19 5 -20 3 -14 -40 4 -29 0 -64 -9 -98 -10 -34 -13 -60 -7 -76 5
-13 7 -43 4 -66 -3 -37 -7 -42 -30 -45 -59 -7 -27 -75 38 -83 44 -6 59 -22 99
-102 19 -37 39 -74 44 -81 6 -7 11 -42 11 -79 l1 -66 -55 -58 -55 -59 -70 8
c-78 8 -90 20 -97 97 -3 35 0 41 25 53 34 16 36 36 2 28 -22 -6 -25 -2 -35 36
-20 75 -28 101 -68 213 -22 61 -48 149 -58 197 l-18 86 29 67 c26 61 27 68 12
83 -15 14 -22 14 -52 3 -43 -15 -69 -8 -82 22 -13 28 -133 89 -178 91 -24 1
-31 -4 -33 -20 -4 -26 78 -177 119 -219 16 -17 29 -40 29 -50 0 -28 44 -234
70 -325 25 -93 49 -232 54 -325 4 -80 30 -165 59 -196 16 -18 27 -20 61 -15
139 21 220 26 233 13 7 -7 31 -62 53 -122 22 -61 48 -125 57 -143 23 -46 81
-104 124 -124 48 -23 64 -43 89 -111 23 -60 92 -170 138 -219 64 -69 302 -176
364 -164 15 3 30 1 33 -4 9 -15 66 -12 97 4 17 9 30 11 34 5 4 -6 11 -6 20 2
11 9 14 9 14 -1 0 -9 13 -10 48 -6 111 15 139 2 187 -86 26 -46 30 -65 33
-153 3 -83 0 -119 -22 -209 -14 -59 -26 -132 -26 -161 0 -30 -5 -66 -12 -80
-10 -23 -10 -28 5 -36 11 -7 17 -23 17 -49 0 -44 5 -50 56 -54 26 -2 44 -11
63 -32 14 -17 46 -44 71 -60 25 -16 48 -32 51 -37 3 -4 20 -11 37 -16 28 -9
34 -7 52 19 23 33 26 50 6 50 -31 0 -113 128 -101 158 3 9 -2 31 -12 49 -16
31 -16 38 6 185 13 84 30 166 38 181 22 44 40 194 25 218 -7 10 -12 27 -12 38
0 21 -45 99 -97 170 -24 32 -30 48 -23 60 10 19 80 71 96 71 6 0 24 -15 40
-32 16 -18 50 -51 74 -74 25 -22 56 -55 70 -73 14 -18 40 -49 58 -69 53 -60
77 -166 90 -394 7 -115 11 -141 28 -159 13 -14 21 -41 24 -82 l5 -61 55 -21
c31 -12 80 -25 110 -28 71 -9 87 -24 66 -65 -20 -39 -73 -80 -114 -88 -17 -4
-37 -13 -43 -20 -16 -20 -3 -47 19 -39 11 3 57 7 103 10 46 2 118 13 159 23
48 12 101 18 145 16 152 -6 208 -6 410 0 289 9 405 25 405 55 0 5 -7 25 -15
44 -8 20 -12 42 -9 50 7 19 61 27 214 33 69 3 130 5 135 5 6 0 119 -1 253 -4
l242 -4 37 -26 c39 -28 57 -24 73 17 7 21 86 43 229 66 35 6 71 14 80 19 58
33 -117 11 -259 -32 -19 -6 -43 -10 -52 -8 -10 1 -25 -2 -35 -7 -12 -7 -26 -4
-52 13 -20 13 -49 27 -66 31 -33 8 -145 114 -145 137 0 12 35 14 234 12 129
-2 239 -6 245 -10 23 -14 8 -24 -79 -51 -49 -15 -90 -31 -90 -36 0 -10 7 -10
50 2 59 16 238 38 370 46 69 4 137 8 153 10 15 1 52 2 82 3 34 1 55 5 55 12 0
9 -32 10 -114 6 -152 -7 -316 2 -316 18 0 13 -73 45 -102 45 -27 0 -69 22 -65
34 5 15 123 14 177 -2 25 -8 66 -22 92 -32 44 -17 52 -17 120 -3 40 8 111 17
158 19 47 3 146 11 220 18 135 13 177 11 410 -14 218 -24 245 -26 263 -22 42
11 9 20 -90 25 -60 3 -144 11 -188 17 -193 26 -241 28 -395 15 -295 -25 -308
-26 -316 -13 -15 24 29 38 120 38 78 0 166 13 166 24 0 2 -7 17 -15 32 -20 39
-20 166 2 281 14 78 20 93 40 102 35 16 68 13 86 -7 21 -22 57 -134 57 -174 0
-16 11 -63 25 -104 14 -41 25 -78 25 -83 0 -5 -28 -13 -62 -17 l-63 -8 75 -12
c41 -6 76 -16 78 -23 2 -7 21 -9 55 -5 29 3 117 -2 197 -11 105 -12 235 -17
475 -18 408 -1 485 6 485 44 0 15 -37 10 -50 -6 -14 -17 -45 -21 -35 -5 3 6
-3 10 -15 10 -12 0 -18 -4 -15 -10 3 -5 2 -10 -4 -10 -5 0 -13 5 -16 11 -5 7
-11 5 -18 -5 -10 -12 -20 -13 -57 -4 -90 20 -140 21 -161 2 -17 -16 -19 -16
-19 -1 0 15 -14 17 -105 17 -87 0 -105 -3 -105 -15 0 -8 -7 -15 -15 -15 -8 0
-15 4 -15 10 0 5 -13 7 -32 3 -21 -4 -29 -3 -24 5 5 8 -25 10 -101 7 -60 -1
-139 0 -178 3 l-70 7 -23 47 c-13 26 -27 71 -32 100 -14 94 -53 232 -70 253
-25 29 -31 49 -46 162 -10 79 -21 118 -49 172 -19 39 -41 87 -49 108 -8 21
-24 64 -36 95 -13 33 -20 67 -16 81 6 25 43 47 77 47 27 0 185 68 200 86 6 8
21 14 33 14 19 0 59 19 205 96 55 29 91 72 91 112 0 31 -25 29 -118 -9 -124
-50 -380 -138 -466 -161 -60 -15 -94 -18 -141 -13 -60 6 -63 8 -69 38 -10 51
-42 77 -96 77 -55 0 -78 -19 -87 -73 -4 -27 0 -45 17 -72 28 -45 22 -58 -29
-73 -40 -12 -61 -35 -61 -67 0 -39 -49 -92 -122 -130 -45 -25 -67 -41 -56 -43
10 -2 46 13 82 33 63 35 107 80 136 139 17 35 55 44 70 16 18 -34 22 -94 7
-114 -14 -19 -92 -52 -149 -63 -16 -3 -28 -9 -28 -14 0 -13 14 -11 67 10 26
10 63 22 81 26 l33 7 -6 -49 c-4 -28 -2 -60 5 -78 7 -16 16 -85 20 -153 6 -97
12 -128 26 -143 23 -25 23 -67 1 -199 -46 -276 -42 -265 -102 -256 -23 4 -100
9 -170 11 -136 5 -147 9 -219 74 -36 33 -94 123 -112 175 -21 58 -44 163 -44
198 0 45 -29 234 -47 303 -31 121 -96 331 -115 370 -11 22 -32 74 -48 117 -47
124 -98 217 -147 265 l-46 44 52 48 c76 71 132 97 221 106 105 10 140 31 140
85 0 28 -32 41 -83 34 -35 -5 -45 -3 -50 10 -10 25 -35 19 -99 -24 -33 -22
-64 -40 -68 -40 -23 0 -138 -70 -215 -131 -49 -39 -100 -76 -112 -82 -13 -6
-23 -14 -23 -18 0 -4 -33 -24 -72 -44 -40 -21 -86 -47 -103 -59 -16 -12 -44
-28 -62 -35 -17 -7 -39 -21 -49 -32 -16 -18 -16 -19 0 -19 17 0 122 58 156 86
8 7 53 34 100 60 47 25 105 63 130 83 60 49 167 124 207 145 31 16 63 13 63
-6 0 -13 -119 -126 -151 -143 -28 -15 -79 -70 -79 -86 0 -5 13 -3 29 6 17 8
36 12 43 9 40 -16 186 -309 258 -517 54 -154 95 -335 105 -462 8 -99 50 -274
79 -330 35 -65 81 -127 126 -168 23 -21 39 -41 36 -44 -7 -7 -205 27 -242 42
-53 22 -90 88 -113 206 -12 57 -26 126 -31 152 -6 27 -8 53 -4 58 3 5 -2 44
-10 87 -8 42 -22 131 -31 197 -29 213 -127 498 -225 651 -16 27 -30 58 -30 70
0 34 -13 36 -51 8 -19 -14 -70 -44 -114 -66 -44 -22 -103 -56 -132 -75 l-52
-34 -43 22 c-69 35 -97 40 -129 23 -16 -8 -32 -15 -35 -17 -4 -1 -9 31 -11 72
-4 83 -15 111 -43 111 -25 0 -33 15 -15 30 21 18 8 32 -24 25 -25 -5 -28 -2
-57 67 -17 40 -34 85 -38 101 -6 24 -3 27 18 27 13 0 29 -7 36 -15 7 -8 16
-13 20 -10 12 7 -1 98 -17 117 -17 19 2 37 20 19 6 -6 25 -11 43 -11 17 0 37
-6 43 -14 10 -12 8 -17 -13 -28 -21 -11 -23 -16 -12 -30 6 -9 25 -18 41 -20
41 -4 55 -37 55 -128 0 -52 3 -70 10 -59 5 9 40 35 78 57 37 22 116 81 175
130 58 50 117 94 129 98 13 4 39 17 58 30 21 15 49 24 72 24 37 0 38 -1 38
-34 0 -32 -6 -39 -77 -88 -43 -30 -144 -101 -225 -159 -81 -57 -165 -116 -187
-131 -44 -30 -52 -48 -23 -48 16 0 73 37 417 274 66 45 129 96 140 114 11 17
32 34 47 37 28 7 45 22 34 32 -3 3 -12 0 -21 -7 -17 -14 -45 -7 -45 13 0 8 -9
22 -21 33 l-21 19 38 8 c22 4 59 10 84 14 44 6 45 5 28 -14 -19 -21 -24 -53
-9 -53 5 0 24 7 43 15 27 11 37 22 42 46 12 61 11 62 -50 54 -34 -4 -60 -3
-68 4 -22 19 -111 -13 -153 -54 -36 -35 -239 -175 -255 -175 -3 0 -14 24 -22
53 -9 30 -24 60 -33 69 -77 67 -143 4 -143 -136 0 -42 4 -76 9 -76 4 0 11 31
14 69 7 88 19 111 57 111 30 0 53 -24 79 -85 13 -30 12 -31 -50 -89 -73 -66
-116 -96 -141 -96 -15 0 -18 9 -18 45 0 50 -44 148 -92 203 -21 25 -28 42 -26
65 3 30 0 32 -30 35 -29 3 -41 -4 -89 -52 -39 -39 -64 -56 -82 -56 -35 0 -109
-29 -115 -46 -8 -20 40 -71 79 -86 32 -11 35 -15 35 -54 0 -24 4 -45 9 -49 5
-3 17 -31 26 -62 16 -55 16 -58 -5 -101 -24 -47 -23 -102 1 -156 20 -42 30
-30 23 27 -7 57 8 99 49 145 l21 22 38 -37 c28 -27 38 -45 38 -68 0 -47 -17
-96 -44 -124 -37 -39 -99 -191 -96 -234 6 -75 -8 -62 -90 81 -58 101 -86 138
-135 182 -90 79 -151 158 -179 233 -13 36 -31 76 -39 89 -7 13 -22 51 -33 86
-22 72 -50 104 -126 141 -29 14 -55 33 -59 41 -4 8 -20 45 -34 82 -15 37 -39
77 -52 90 -14 13 -35 39 -48 58 -21 34 -25 35 -88 38 -51 2 -75 -2 -104 -18
-21 -11 -43 -20 -50 -20 -20 0 -89 -87 -103 -130 -12 -36 -12 -45 3 -70 24
-40 21 -91 -9 -163 -15 -34 -29 -87 -31 -118 -5 -51 -1 -66 36 -150 23 -52 46
-101 52 -109 31 -50 53 -78 124 -166 44 -53 91 -102 105 -108 14 -6 49 -27 79
-45 l53 -34 -8 -61 c-22 -150 0 -725 31 -845 13 -49 14 -74 6 -110 -16 -75
-31 -188 -31 -234 0 -51 11 -70 34 -61 9 4 24 0 34 -9 16 -15 17 -5 16 156 -1
95 -6 190 -12 212 -12 44 -20 110 -27 225 -2 41 -9 122 -15 180 -22 210 -28
355 -18 455 9 88 13 103 35 123 l26 23 -22 15 c-28 20 -27 38 4 58 14 9 25 23
25 31 0 21 19 28 36 14 12 -9 23 -9 55 1 45 15 109 17 182 6 54 -8 66 8 15 22
-43 11 -47 30 -6 34 18 2 31 8 28 13 -3 6 -58 9 -142 7 -96 -2 -138 0 -138 8
0 6 7 25 16 41 8 17 14 42 12 57 -3 23 -6 19 -24 -28 -12 -30 -27 -73 -32 -95
-6 -22 -14 -50 -17 -63 -6 -20 -11 -22 -53 -18 -26 3 -50 5 -53 5 -21 3 -169
226 -169 257 0 6 -15 28 -33 50 -19 21 -39 49 -45 61 -15 27 -16 136 -2 183 6
19 21 75 34 123 13 48 26 91 30 94 22 23 74 -111 79 -204 2 -47 -15 -74 -21
-33 -6 35 -19 22 -26 -24 -11 -71 49 -197 140 -293 20 -21 41 -50 46 -65 16
-46 34 -33 49 35 7 34 12 65 11 69 -1 4 -3 42 -5 83 -3 64 -1 75 12 73 8 -2
18 -17 23 -35 13 -52 32 -54 25 -3 -6 50 -35 94 -64 98 -16 2 -22 -4 -27 -32
-5 -27 -12 -36 -26 -36 -11 0 -20 6 -20 13 0 7 -18 39 -40 72 -25 38 -40 72
-40 92 0 18 -4 42 -9 55 -5 13 -17 50 -26 83 -23 83 -42 125 -57 125 -12 -1
-56 -62 -73 -105 -8 -18 -9 -16 -13 10 -2 17 -10 36 -19 42 -14 11 -15 17 -3
53 14 42 60 90 85 90 8 0 19 -8 24 -19 6 -10 27 -22 47 -25 24 -5 38 -14 41
-27 6 -22 8 -22 32 -10 25 14 34 4 71 -81 29 -66 40 -82 87 -115 30 -21 66
-47 80 -57 30 -23 73 -114 73 -155 0 -15 17 -54 38 -87 21 -32 49 -81 62 -109
15 -30 57 -82 106 -130 149 -147 309 -428 354 -625 7 -30 17 -60 22 -67 5 -6
13 -49 18 -95 14 -119 25 -182 49 -276 24 -91 45 -238 36 -252 -3 -5 1 -42 10
-82 20 -96 32 -366 17 -395 -8 -14 -25 -22 -53 -26 -23 -3 -45 -10 -48 -15 -9
-14 -500 -23 -616 -11 -55 5 -121 10 -147 9 -59 -1 -61 11 -8 59 38 35 53 71
29 71 -6 0 -36 22 -66 50 -29 27 -81 66 -113 86 -33 20 -60 42 -60 49 0 15
-38 27 -46 14 -8 -13 -88 -11 -106 4 -24 18 -36 79 -37 188 -1 53 -6 112 -11
130 -15 53 -13 109 5 109 31 0 13 39 -47 105 -35 38 -114 122 -175 186 -126
131 -137 156 -76 188 18 9 32 7 76 -13 30 -13 72 -39 93 -58 22 -18 56 -46 77
-61 80 -60 104 -94 136 -195 26 -81 33 -123 41 -257 6 -88 15 -182 21 -208 10
-44 14 -48 35 -43 21 6 24 3 24 -21 0 -38 16 -61 30 -47 21 21 1 104 -33 135
-35 32 -44 77 -46 230 -2 97 -32 242 -67 316 -33 68 -226 219 -306 238 -48 12
-52 28 -24 87 50 105 57 136 51 227 -3 47 -9 95 -14 106 -5 11 -14 42 -20 68
-6 27 -22 63 -35 80 -13 18 -31 47 -41 66 -9 18 -42 62 -73 96 -32 35 -82 93
-112 129 -63 76 -149 145 -232 187 -31 16 -59 33 -62 38 -7 11 12 27 45 34 31
8 77 42 68 51 -3 4 -46 -12 -95 -33 -75 -33 -95 -39 -124 -32 -36 8 -168 6
-207 -4 -18 -4 -23 -1 -23 14 0 26 16 36 90 50 36 7 69 17 74 22 6 5 20 9 33
9 13 0 56 17 96 37 39 21 88 42 107 48 28 9 40 21 61 65 23 48 45 164 40 210
-1 8 -5 85 -9 171 -5 108 -11 161 -21 172 -20 25 3 47 50 47 70 0 73 -10 66
-212 -3 -97 -1 -194 4 -215 5 -21 11 -79 14 -129 l5 -92 -38 -33 c-21 -19 -52
-44 -68 -56 l-29 -22 26 0 c18 -1 44 16 87 58 77 73 76 73 32 326 -13 75 4
430 23 485 39 111 39 212 1 218 -16 2 -29 -11 -58 -57z m44 -74 c0 -33 -34
-114 -57 -134 -49 -46 -143 -21 -143 38 0 37 22 47 55 25 23 -15 25 -15 71 34
47 49 74 63 74 37z m-836 -488 c-13 -14 -21 -16 -28 -9 -8 8 -6 15 8 25 26 20
41 7 20 -16z m-96 -48 c34 -11 62 -17 62 -15 0 3 33 -18 73 -45 64 -43 77 -57
100 -108 61 -137 71 -275 23 -346 -26 -39 -137 -117 -180 -127 -30 -8 -30 -8
11 -9 23 -1 59 -8 80 -17 90 -39 169 -79 176 -91 5 -7 35 -27 67 -43 32 -16
61 -34 65 -40 4 -6 30 -22 58 -36 29 -15 63 -37 77 -50 14 -13 57 -50 95 -83
39 -33 82 -75 95 -93 50 -67 111 -216 119 -288 1 -8 4 -38 7 -65 7 -64 -19
-169 -52 -208 -25 -30 -31 -47 -15 -47 10 0 39 46 78 120 29 57 40 154 23 217
-26 100 -62 196 -91 243 -37 59 -233 241 -301 278 -27 15 -68 37 -90 49 -23
12 -71 42 -107 67 -36 24 -97 58 -134 75 -71 32 -81 49 -35 62 15 4 40 22 56
40 l31 34 132 -2 c102 -2 135 -6 149 -18 9 -8 26 -15 37 -15 63 0 353 -255
421 -370 14 -25 38 -62 53 -83 42 -58 96 -246 97 -337 1 -84 -18 -164 -48
-203 -11 -14 -20 -32 -20 -41 0 -9 -20 -30 -44 -47 -24 -17 -50 -42 -57 -55
-7 -14 -36 -43 -66 -65 -29 -23 -53 -49 -53 -59 0 -10 -10 -21 -22 -25 -13 -3
-18 -9 -11 -11 7 -3 21 0 33 6 17 9 26 6 55 -17 19 -15 35 -32 35 -38 0 -5 16
-33 36 -62 61 -88 60 -137 -2 -380 -19 -72 -34 -146 -34 -165 0 -18 -6 -55
-13 -83 l-13 -50 -62 -3 c-50 -2 -64 0 -68 13 -4 9 5 98 19 198 39 272 42 339
18 384 -10 21 -33 51 -50 67 -38 36 -39 52 -3 89 l27 29 -40 -5 c-22 -2 -65
-12 -95 -22 -74 -23 -314 -22 -402 1 -95 24 -126 44 -223 145 -119 124 -167
209 -201 361 -14 62 -27 134 -28 159 -1 26 -10 58 -19 72 -10 15 -22 75 -32
152 -8 70 -23 162 -31 206 -9 44 -14 82 -12 85 3 3 17 -1 31 -7 21 -9 30 -9
42 1 14 11 18 11 25 0 11 -18 93 -6 136 21 39 24 46 45 12 32 -13 -4 -73 -8
-134 -8 -105 0 -113 1 -152 28 -80 56 -120 100 -127 142 -5 24 -17 48 -32 60
-27 23 -28 31 -23 188 4 88 38 173 79 193 12 6 35 23 50 38 17 17 38 26 58 26
18 0 35 5 38 10 11 18 175 11 243 -9z m-935 -47 c12 -14 41 -39 64 -55 35 -24
46 -28 63 -19 17 9 20 8 20 -7 -1 -32 -24 -50 -72 -57 -64 -10 -83 3 -118 81
-17 36 -30 67 -30 69 0 2 25 10 43 13 4 0 17 -11 30 -25z m123 -192 c6 -4 15
-30 18 -57 4 -28 21 -88 37 -135 63 -178 81 -237 85 -285 9 -93 26 -200 37
-229 l10 -28 74 6 c41 4 84 11 97 16 21 8 89 72 119 114 18 25 49 17 65 -17 8
-16 18 -86 22 -155 9 -135 18 -184 48 -272 27 -76 38 -180 19 -180 -20 0 -127
115 -127 137 0 10 -6 27 -14 38 -7 11 -21 47 -30 80 -10 33 -22 74 -27 90 -8
25 -6 32 11 44 11 7 20 17 20 20 0 4 -77 6 -171 5 -142 -3 -175 -1 -195 13
-13 8 -24 24 -24 35 0 11 -6 43 -14 71 -8 29 -17 90 -21 137 -3 47 -12 110
-20 140 -8 30 -15 72 -15 94 0 21 -9 53 -21 72 -28 46 -50 231 -28 245 17 11
30 11 45 1z m314 -212 c0 -5 -9 -10 -21 -10 -11 0 -17 5 -14 10 3 6 13 10 21
10 8 0 14 -4 14 -10z m1927 -102 c-5 -29 -13 -61 -18 -70 -5 -10 -9 -43 -9
-73 0 -53 2 -59 49 -108 32 -35 54 -70 66 -107 10 -30 38 -81 62 -112 23 -31
43 -61 43 -67 0 -22 73 -91 104 -99 38 -10 49 -47 16 -57 -46 -15 -219 156
-296 294 -112 197 -118 227 -80 357 15 49 30 97 33 107 4 17 6 17 22 3 15 -14
16 -24 8 -68z m2187 -15 c9 -21 -1 -29 -45 -37 -28 -5 -39 -2 -54 14 -16 18
-16 20 -1 26 9 3 22 4 29 1 6 -2 21 -1 32 4 29 11 32 11 39 -8z m-1929 -147
c20 -29 46 -59 59 -66 20 -10 24 -22 28 -74 3 -33 2 -70 -2 -80 -6 -18 -12
-14 -54 30 -42 43 -106 155 -106 184 0 11 29 60 36 60 2 0 20 -24 39 -54z
m-1975 -25 c0 -24 -18 -37 -31 -24 -13 13 -1 43 17 43 8 0 14 -9 14 -19z
m3511 -266 c27 -44 49 -86 49 -93 0 -7 14 -43 31 -80 17 -37 39 -96 50 -132
11 -36 24 -73 30 -83 5 -10 14 -53 19 -95 5 -42 16 -115 25 -162 9 -47 21
-137 25 -200 12 -158 24 -224 53 -300 51 -133 64 -154 134 -214 37 -32 71 -64
75 -71 9 -15 -139 -38 -192 -29 -19 3 -63 8 -97 11 -78 6 -93 22 -130 142 -26
87 -35 135 -53 296 -6 50 -17 113 -25 142 -8 28 -15 60 -15 71 0 54 -87 298
-155 437 -75 153 -111 260 -101 301 10 37 170 145 210 141 12 -1 36 -31 67
-82z m1968 -34 c10 -6 5 -11 -18 -16 -18 -4 -37 -15 -44 -26 -6 -10 -20 -19
-31 -19 -10 0 -33 -8 -50 -19 -17 -10 -54 -26 -83 -35 -28 -10 -57 -23 -63
-31 -6 -8 -28 -19 -48 -25 -20 -6 -50 -17 -67 -25 -16 -7 -52 -18 -79 -24 -47
-11 -99 -43 -110 -68 -5 -11 26 -100 46 -133 4 -8 24 -49 43 -90 20 -41 42
-87 50 -102 19 -33 19 -92 1 -107 -8 -7 -17 -27 -20 -46 -11 -59 -33 -75 -121
-91 -150 -26 -185 -13 -185 69 0 69 -29 208 -49 240 -13 20 -17 37 -11 51 25
69 28 90 20 148 -4 35 -13 76 -19 91 -9 22 -8 33 3 49 13 19 13 24 -4 46 -24
30 -26 94 -4 116 18 19 45 21 62 4 15 -15 16 -73 1 -100 -14 -25 -4 -36 20
-21 12 8 45 10 93 6 95 -7 191 15 438 101 194 68 206 71 229 57z m-2411 -36
c17 -14 35 -25 41 -25 27 0 88 -79 111 -143 13 -37 27 -67 32 -67 4 0 8 -7 8
-15 0 -9 23 -59 50 -111 28 -52 50 -102 50 -110 0 -23 41 -143 50 -149 5 -3
12 -27 15 -53 3 -26 15 -85 25 -132 11 -47 22 -134 25 -195 8 -124 40 -255 88
-350 43 -86 102 -170 137 -195 52 -37 40 -46 -57 -40 -77 5 -196 2 -530 -13
l-82 -3 -6 75 c-3 42 -11 99 -17 126 -6 28 -12 91 -13 140 -3 124 -13 192 -36
248 -11 27 -19 56 -18 65 1 9 0 28 -4 42 -3 14 -11 61 -17 105 -28 194 -53
288 -107 401 -32 68 -33 73 -20 110 8 21 17 57 21 79 4 22 21 70 39 106 28 58
39 71 87 98 67 37 90 38 128 6z m-880 -27 c-7 -19 -38 -22 -38 -4 0 10 9 16
21 16 12 0 19 -5 17 -12z m2908 -839 c22 -57 46 -138 53 -179 16 -94 39 -178
52 -185 16 -11 10 -25 -12 -25 -23 0 -60 18 -71 34 -4 6 -8 23 -8 37 0 14 -7
34 -15 45 -8 10 -15 28 -15 39 -1 26 -44 191 -60 230 -15 35 3 119 23 112 7
-2 30 -51 53 -108z m-300 -51 c-3 -24 -9 -106 -12 -183 -4 -77 -11 -146 -17
-154 -10 -12 -80 -11 -93 1 -13 13 26 292 51 366 2 6 21 12 41 12 l36 0 -6
-42z m-276 -428 c-8 -5 -34 -10 -57 -10 -50 0 -70 20 -21 21 18 0 42 4 53 9
25 10 46 -7 25 -20z m-2591 -190 c65 -41 105 -85 97 -106 -4 -12 -13 -14 -29
-9 -12 3 -38 11 -57 17 -19 6 -60 13 -90 15 -30 3 -58 10 -62 17 -12 18 -9 84
5 89 36 15 92 6 136 -23z m-698 -80 c28 -8 38 -16 42 -38 3 -16 22 -52 41 -81
39 -58 43 -71 21 -71 -29 0 -66 24 -86 57 -23 38 -65 63 -104 63 -29 0 -33 23
-9 58 17 24 40 27 95 12z m1859 -10 c0 -5 -5 -10 -11 -10 -5 0 -7 5 -4 10 3 6
8 10 11 10 2 0 4 -4 4 -10z m-1020 -85 c15 -18 15 -17 -28 -39 -28 -14 -33
-15 -38 -2 -8 21 14 56 35 56 10 0 24 -7 31 -15z m-220 -135 c0 -5 -5 -10 -11
-10 -5 0 -7 5 -4 10 3 6 8 10 11 10 2 0 4 -4 4 -10z"/>
<path d="M2151 3814 c-17 -14 -31 -32 -31 -40 0 -20 10 -17 36 11 13 14 34 25
48 25 23 0 25 -4 23 -37 -2 -33 1 -38 22 -41 28 -4 41 12 41 51 0 23 -7 31
-35 43 -49 20 -69 18 -104 -12z"/>
<path d="M2109 3706 c12 -13 36 -27 54 -30 61 -12 90 -72 50 -102 -25 -17 -11
-27 21 -15 20 8 26 17 26 39 0 41 -32 77 -95 106 -67 32 -85 33 -56 2z"/>
<path d="M1900 3693 c-28 -10 -80 -67 -80 -87 0 -18 4 -16 29 12 35 37 56 40
80 11 21 -26 61 -18 61 12 0 40 -47 67 -90 52z"/>
<path d="M2287 3403 c-21 -3 -32 -14 -43 -39 -14 -34 -12 -54 6 -54 5 0 11 14
15 30 7 31 10 33 60 34 20 1 30 6 30 16 0 16 -22 20 -68 13z"/>
<path d="M2522 3028 c2 -15 11 -24 26 -26 20 -3 23 0 20 20 -2 15 -11 24 -26
26 -20 3 -23 0 -20 -20z"/>
<path d="M2692 2961 c-19 -11 -11 -45 11 -49 9 -2 20 4 23 13 9 21 -16 47 -34
36z"/>
<path d="M2814 2846 c-9 -24 3 -46 26 -46 17 0 21 5 18 27 -3 31 -34 44 -44
19z"/>
<path d="M2920 2715 c-15 -18 -6 -45 13 -45 8 0 20 7 27 15 10 12 10 18 0 30
-16 19 -24 19 -40 0z"/>
<path d="M3023 2573 c-18 -6 -16 -38 2 -53 17 -14 35 -5 35 19 0 22 -20 40
-37 34z"/>
<path d="M660 3649 c-47 -5 -96 -13 -110 -18 -14 -5 -50 -9 -80 -9 -31 1 -66
-4 -77 -11 -12 -6 -34 -11 -49 -11 -15 0 -45 -5 -67 -12 -33 -10 -43 -20 -58
-54 -13 -28 -27 -44 -44 -48 -26 -7 -51 -41 -37 -50 5 -3 30 1 57 9 49 15 142
19 183 9 29 -8 23 -29 -9 -31 -88 -5 -160 -22 -203 -47 -35 -20 -45 -31 -37
-39 8 -8 26 -4 66 16 43 21 70 27 120 27 53 0 63 -3 59 -15 -4 -11 -21 -15
-58 -15 -51 0 -136 -26 -158 -48 -22 -22 18 -24 82 -2 75 25 98 15 60 -25 -30
-31 -6 -35 33 -5 47 37 50 33 51 -70 1 -70 21 -123 48 -128 15 -3 17 2 11 30
-4 18 -7 44 -6 58 7 135 11 189 18 213 6 24 4 29 -14 34 -11 3 -21 8 -21 12 0
14 24 31 43 31 15 0 18 5 14 21 -4 15 6 31 36 61 68 66 111 91 159 90 121 -1
152 -16 205 -97 54 -82 63 -88 140 -90 68 -1 117 -18 142 -49 10 -12 9 -16 -5
-24 -10 -6 -27 -6 -39 -2 -15 6 -31 2 -53 -12 -18 -11 -32 -24 -32 -28 0 -13
-89 -62 -100 -55 -6 4 -6 15 0 31 6 14 10 35 10 47 0 19 -5 17 -40 -18 -49
-48 -60 -89 -32 -117 24 -24 56 -20 89 12 12 11 25 20 29 20 3 0 15 11 26 25
32 41 45 32 53 -39 7 -74 -6 -112 -55 -148 -18 -13 -30 -31 -30 -45 0 -29 33
-63 63 -63 26 0 87 -35 87 -50 0 -6 -7 -24 -15 -40 -12 -23 -22 -30 -46 -30
-17 0 -40 5 -51 11 -16 9 -26 7 -49 -10 -45 -33 -87 -24 -112 25 -13 26 -97
64 -139 64 -10 0 -33 16 -50 35 -33 38 -128 89 -141 76 -15 -15 4 -37 61 -71
31 -18 95 -56 140 -84 l84 -50 -6 -40 c-4 -23 -8 -52 -9 -66 -4 -39 -12 -46
-70 -59 -46 -12 -61 -11 -111 3 -44 13 -64 15 -89 6 -62 -20 -230 -28 -299
-14 -89 19 -228 19 -228 0 0 -16 21 -20 170 -32 138 -12 283 -13 315 -4 38 12
67 13 183 4 80 -6 97 -4 128 12 l36 19 15 -22 c27 -40 34 -26 27 56 -6 73 -5
80 14 90 19 10 21 7 27 -32 8 -45 28 -92 46 -102 5 -4 18 0 27 8 9 8 70 42
134 76 65 33 134 71 155 84 21 13 56 30 78 37 65 21 89 50 40 50 -22 0 -276
-124 -340 -166 -13 -8 -38 -14 -57 -12 -67 6 -35 78 35 78 50 0 97 26 112 64
8 20 15 41 15 48 0 18 -61 58 -88 58 -12 0 -29 11 -39 26 -15 23 -15 28 -2 38
79 59 74 49 74 159 l0 102 52 28 c29 16 58 37 63 47 15 29 -18 57 -77 65 -26
4 -61 10 -78 15 -16 5 -49 12 -72 15 -35 6 -46 13 -64 43 -12 20 -36 52 -53
70 -26 28 -46 37 -119 56 -7 2 -50 -1 -97 -5z m-276 -125 c9 -3 16 -10 16 -15
0 -10 -34 -12 -69 -2 -23 6 -23 7 -5 14 25 10 39 10 58 3z"/>
<path d="M680 3488 c-25 -53 -27 -63 -15 -72 13 -10 13 -18 -5 -65 -11 -30
-18 -57 -15 -59 9 -10 38 24 56 66 20 45 45 53 43 13 0 -11 5 -21 11 -21 21 0
36 45 33 96 -3 52 -6 53 -57 38 -25 -7 -26 0 -6 49 4 10 3 17 -4 17 -7 0 -25
-28 -41 -62z"/>
<path d="M4890 3225 c0 -9 5 -15 11 -13 6 2 11 8 11 13 0 5 -5 11 -11 13 -6 2
-11 -4 -11 -13z"/>
<path d="M4855 3151 c-7 -13 17 -24 40 -19 9 1 16 8 16 13 0 14 -48 19 -56 6z"/>
<path d="M4127 3127 c-3 -8 -1 -20 4 -28 6 -10 9 -7 9 14 0 29 -5 35 -13 14z"/>
<path d="M4132 3015 c0 -16 2 -22 5 -12 2 9 2 23 0 30 -3 6 -5 -1 -5 -18z"/>
<path d="M1360 2754 c-25 -17 -43 -23 -62 -19 -21 5 -29 1 -39 -17 -6 -13 -19
-32 -29 -43 -16 -18 -17 -31 -10 -115 8 -92 40 -209 65 -240 25 -30 135 -303
135 -334 0 -5 12 -28 28 -50 25 -36 27 -47 27 -137 1 -114 13 -139 85 -176 23
-12 50 -30 60 -40 9 -10 29 -27 45 -38 53 -37 83 -75 101 -128 31 -94 118
-266 183 -362 17 -25 31 -47 31 -49 0 -9 -93 -14 -114 -7 -32 13 -116 126
-132 177 -21 69 -70 157 -114 201 -45 46 -112 80 -229 119 -41 13 -113 45
-159 69 -46 25 -88 45 -93 45 -4 0 -23 -13 -41 -29 -18 -15 -46 -36 -63 -45
l-30 -17 35 6 c125 21 140 19 235 -28 50 -24 108 -50 130 -57 132 -42 210
-109 241 -205 24 -77 56 -133 100 -182 20 -21 39 -43 42 -49 4 -5 24 -23 45
-38 20 -16 37 -37 37 -47 0 -10 9 -42 20 -70 29 -72 24 -79 -55 -79 -88 0
-257 -20 -273 -33 -7 -6 -11 -16 -8 -24 4 -10 -3 -12 -36 -7 -32 6 -40 4 -36
-7 8 -23 283 -41 388 -25 51 7 140 7 152 0 5 -3 19 1 32 9 13 9 28 12 37 7 8
-4 65 -9 128 -11 99 -4 115 -2 124 13 6 9 8 21 3 25 -4 4 -77 8 -162 7 -85 -1
-154 2 -154 6 0 18 90 39 242 56 71 9 76 42 11 69 -19 8 -48 26 -64 39 -16 14
-39 28 -51 32 -58 18 -125 79 -180 163 -57 87 -128 233 -152 314 -23 76 -70
132 -174 206 -53 38 -104 77 -113 87 -11 13 -18 46 -22 99 -3 44 -12 98 -20
120 -8 22 -31 85 -51 140 -21 55 -62 149 -92 209 -57 115 -91 245 -92 352 -1
55 10 73 58 93 43 19 83 46 82 56 -1 17 -17 14 -52 -11z m768 -1856 c56 -30
97 -59 97 -68 0 -12 -24 -16 -125 -22 -141 -8 -149 -4 -170 72 -26 97 42 104
198 18z m-113 -169 c5 -6 4 -9 -5 -10 -154 -8 -320 -8 -320 0 0 26 299 35 325
10z"/>
<path d="M6 2562 c-7 -12 15 -22 74 -33 25 -5 97 -20 160 -34 96 -22 128 -25
195 -19 120 11 190 9 293 -8 51 -8 93 -17 95 -19 6 -8 37 -107 57 -182 18 -65
22 -114 26 -289 2 -125 0 -217 -6 -228 -5 -10 -33 -35 -62 -56 -135 -97 -159
-142 -183 -339 -8 -67 -37 -211 -60 -295 -8 -30 -20 -93 -25 -140 -11 -86 -54
-235 -71 -246 -5 -3 -7 -14 -4 -25 5 -14 2 -19 -14 -19 -11 0 -23 -5 -26 -11
-4 -5 -30 -21 -58 -33 -29 -13 -61 -31 -72 -40 l-20 -16 20 -16 c16 -12 33
-14 80 -9 57 7 149 9 198 4 12 -1 51 3 87 8 76 12 140 6 140 -12 0 -7 10 -15
23 -19 24 -6 197 3 209 10 4 3 116 5 248 5 131 0 242 4 245 8 9 15 -99 35
-200 36 -55 1 -107 4 -115 7 -55 20 -117 28 -277 34 -138 5 -183 10 -183 20 0
7 -12 21 -26 31 -25 19 -26 21 -13 57 11 29 11 41 1 56 -16 26 -15 45 3 60 8
7 22 38 31 69 8 31 24 85 34 121 11 36 30 121 45 190 36 179 42 197 82 241
l35 39 -29 0 c-47 0 -78 -49 -104 -160 -46 -197 -62 -262 -88 -350 -30 -100
-59 -218 -63 -260 -3 -22 -9 -25 -44 -28 -62 -5 -68 9 -50 115 9 48 16 102 16
120 0 18 7 58 16 90 9 32 20 78 24 103 5 25 14 61 20 80 5 19 13 69 16 110 3
41 10 90 15 108 6 18 9 43 6 54 -11 42 44 120 128 180 60 43 70 45 83 21 16
-27 32 17 39 107 7 97 16 107 78 90 24 -7 52 -9 62 -6 13 5 -1 14 -50 30 -81
27 -91 36 -89 78 1 18 1 83 1 143 0 102 -4 130 -31 210 -15 46 -36 149 -32
156 2 4 17 9 34 12 38 8 39 26 3 29 -112 6 -315 10 -398 7 -180 -6 -209 -4
-345 23 -74 15 -145 30 -156 33 -12 4 -24 2 -28 -3z m651 -1946 c13 -13 -25
-33 -87 -45 -33 -7 -80 -21 -105 -32 -25 -11 -56 -19 -68 -17 -18 2 -12 9 33
34 30 17 64 42 75 54 17 19 28 22 82 18 34 -2 66 -7 70 -12z m563 -86 c0 -5
-9 -10 -21 -10 -11 0 -17 5 -14 10 3 6 13 10 21 10 8 0 14 -4 14 -10z"/>
<path d="M6133 2328 c-32 -19 -46 -58 -20 -58 12 0 151 39 232 65 36 12 37 14
12 14 -15 1 -55 -8 -88 -19 -64 -22 -86 -20 -53 5 18 13 17 14 -16 14 -19 0
-50 -10 -67 -21z"/>
<path d="M1350 1959 c-14 -6 -34 -19 -45 -29 -18 -17 -64 -33 -137 -47 -43 -8
-34 -26 10 -20 60 8 152 47 185 78 31 30 29 34 -13 18z"/>
<path d="M8615 1509 c-38 -5 -87 -6 -107 -3 -43 7 -53 -11 -10 -18 38 -7 217
-2 231 6 17 11 3 26 -22 25 -12 -1 -53 -6 -92 -10z"/>
<path d="M965 1499 c-4 -6 -4 -13 -1 -16 8 -8 36 5 36 17 0 13 -27 13 -35 -1z"/>
<path d="M8310 1490 c0 -6 32 -10 76 -10 47 0 73 4 69 10 -3 6 -37 10 -76 10
-39 0 -69 -4 -69 -10z"/>
<path d="M8283 1344 c-135 -33 -173 -48 -173 -64 0 -15 36 -12 77 5 20 9 77
22 126 30 49 8 96 20 103 26 10 8 38 10 87 5 42 -3 78 -2 87 4 11 7 -6 10 -57
10 -39 0 -82 4 -95 9 -16 6 -62 -1 -155 -25z"/>
<path d="M8648 1353 c18 -2 45 -2 60 0 15 2 0 4 -33 4 -33 0 -45 -2 -27 -4z"/>
<path d="M6695 1340 c-3 -5 1 -10 9 -10 9 0 16 5 16 10 0 6 -4 10 -9 10 -6 0
-13 -4 -16 -10z"/>
<path d="M6535 1284 c-66 -7 -144 -17 -174 -23 -29 -6 -64 -8 -77 -5 -20 5
-24 2 -24 -16 0 -14 5 -20 13 -18 30 12 337 58 382 58 17 0 37 5 45 10 19 12
-6 12 -165 -6z"/>
<path d="M2835 949 c-138 -8 -217 -38 -181 -69 11 -8 20 -8 35 -1 31 17 76 13
95 -8 14 -15 33 -19 111 -20 78 -1 95 2 95 14 0 22 17 18 23 -5 6 -23 27 -27
27 -5 0 8 7 15 16 15 11 0 13 -6 9 -19 -6 -19 0 -20 120 -20 110 0 125 2 114
15 -10 12 -8 16 9 21 55 14 -1 44 -137 73 -88 19 -145 21 -336 9z m80 -69 c3
-5 1 -10 -4 -10 -6 0 -11 5 -11 10 0 6 2 10 4 10 3 0 8 -4 11 -10z m222 -26
c-3 -3 -12 -4 -19 -1 -8 3 -5 6 6 6 11 1 17 -2 13 -5z"/>
<path d="M8277 554 c-7 -7 -37 -9 -312 -19 -88 -3 -212 -12 -275 -21 -63 -8
-189 -20 -280 -25 -91 -5 -190 -14 -220 -19 -30 -5 -137 -16 -238 -25 -100 -8
-214 -22 -253 -30 -39 -8 -74 -13 -77 -11 -9 5 -142 -26 -159 -37 -8 -5 -13
-3 -13 4 0 9 -26 10 -107 4 -60 -5 -134 -8 -165 -8 -47 1 -58 -2 -58 -15 0
-14 -1 -14 -12 0 -25 31 -406 42 -688 19 -288 -23 -363 -31 -374 -40 -12 -10
-153 -29 -213 -29 -17 -1 -40 -5 -51 -11 -10 -5 -28 -7 -40 -4 -12 3 -43 0
-69 -5 -26 -6 -70 -14 -96 -17 -41 -5 -46 -9 -36 -21 6 -8 19 -12 28 -9 9 2
61 9 116 15 55 6 129 15 165 19 36 5 121 16 190 25 69 9 161 23 205 31 205 36
512 52 536 28 12 -12 -16 -17 -151 -28 -41 -3 -83 -11 -95 -19 -11 -7 -45 -16
-75 -19 -79 -10 -162 -25 -168 -32 -22 -21 83 -15 283 18 77 13 197 24 455 41
30 2 109 8 175 14 66 6 210 13 320 16 203 6 430 22 445 31 4 3 27 7 50 10 24
3 83 14 131 25 49 11 121 20 161 20 40 1 105 5 143 11 39 5 111 12 160 15 87
4 89 4 61 -12 -15 -9 -36 -14 -46 -11 -10 3 -47 -1 -82 -9 -35 -8 -88 -19
-118 -25 -30 -6 -66 -15 -80 -19 -14 -5 -53 -14 -87 -21 -40 -8 -63 -18 -63
-27 0 -9 7 -11 23 -6 12 4 33 9 47 11 14 1 45 7 70 13 75 18 140 24 140 12 0
-11 -28 -19 -105 -32 -27 -5 -63 -12 -80 -15 -85 -17 -81 -16 -63 -26 12 -6
66 0 170 22 235 47 293 56 423 67 66 6 129 11 140 11 11 -1 103 7 205 16 102
9 257 18 345 19 232 3 265 5 265 16 0 5 -47 11 -107 12 -74 2 -108 7 -111 16
-3 9 29 12 140 12 152 0 221 -7 212 -21 -3 -5 -30 -9 -59 -9 -41 0 -53 -3 -49
-13 5 -15 189 -32 454 -43 85 -3 199 -12 253 -20 62 -9 104 -11 115 -5 26 15
-51 31 -150 31 -53 0 -90 4 -94 11 -4 7 -24 9 -50 6 -25 -2 -61 1 -82 8 -20 7
-100 17 -177 21 -89 4 -130 10 -113 15 152 41 -121 65 -526 45 -118 -6 -177
-5 -173 1 4 6 29 13 56 17 53 7 72 20 45 30 -21 8 -79 8 -87 0z m-42 -54 c-3
-5 -19 -10 -36 -10 -16 0 -29 5 -29 10 0 6 16 10 36 10 21 0 33 -4 29 -10z
m85 -40 c0 -5 -4 -10 -9 -10 -5 0 -122 -7 -261 -16 -139 -8 -255 -13 -258 -10
-14 14 18 20 146 28 75 4 151 10 167 11 73 9 215 6 215 -3z m96 1 c-18 -7 -66
-3 -66 5 0 2 19 4 43 3 30 0 36 -3 23 -8z m-646 -41 c0 -5 -11 -10 -24 -10
-13 0 -39 -2 -57 -5 l-34 -5 30 14 c35 17 85 21 85 6z m-1915 -70 c3 -5 1 -10
-4 -10 -6 0 -11 5 -11 10 0 6 2 10 4 10 3 0 8 -4 11 -10z"/>
<path d="M1593 523 c-21 -8 -14 -20 14 -26 35 -7 47 1 32 19 -12 14 -24 16
-46 7z"/>
<path d="M1960 520 c-33 -18 -100 -32 -124 -26 -15 4 -41 0 -62 -9 -20 -8 -49
-15 -64 -15 -35 0 -60 -9 -60 -22 0 -12 34 -8 271 33 30 5 84 9 120 9 65 0
110 14 79 24 -38 12 -110 17 -110 7 0 -6 -5 -11 -11 -11 -5 0 -7 5 -4 10 7 12
-14 12 -35 0z"/>
<path d="M9848 355 c-3 -3 -55 -8 -114 -9 -210 -7 -430 -16 -489 -22 -91 -8
-160 -13 -274 -19 -57 -3 -121 -10 -143 -15 -21 -6 -53 -8 -72 -5 -18 4 -98
-3 -178 -14 -80 -12 -153 -18 -162 -15 -9 3 -23 1 -31 -6 -9 -8 -27 -10 -47
-6 -17 3 -58 1 -90 -6 -48 -10 -61 -10 -67 1 -6 9 -18 10 -47 3 -21 -6 -61
-11 -89 -11 -27 -1 -86 -6 -130 -11 -44 -6 -116 -13 -160 -16 -96 -8 -122 -18
-103 -41 10 -13 28 -15 94 -10 44 2 90 9 100 15 21 11 201 28 459 42 88 5 221
16 295 24 74 9 169 16 210 16 41 0 113 4 160 10 78 9 391 29 570 37 41 1 156
6 254 10 117 5 181 12 183 19 2 7 -14 14 -39 17 -24 3 -52 9 -63 12 -11 3 -23
3 -27 0z"/>
<path d="M10033 338 c-87 -18 -39 -27 137 -25 194 2 245 16 78 21 -57 2 -119
5 -138 8 -19 2 -54 1 -77 -4z"/>
<path d="M10645 272 c-2 -2 -57 -4 -122 -4 -86 0 -124 -4 -140 -14 -19 -12
-23 -12 -23 -1 0 11 -13 13 -52 11 -29 -2 -64 -7 -78 -10 -14 -3 -65 -8 -115
-9 -49 -2 -155 -9 -235 -15 -80 -6 -188 -15 -240 -19 -53 -4 -101 -10 -107
-14 -6 -4 -77 -12 -157 -17 -149 -10 -240 -26 -231 -40 6 -10 192 -5 360 10
72 7 146 12 165 12 19 0 71 6 115 13 44 8 167 19 274 25 106 6 197 13 202 16
14 9 367 17 416 9 88 -13 39 -38 -77 -39 -41 -1 -102 -7 -135 -13 -33 -7 -76
-15 -95 -18 -45 -7 -68 -21 -55 -34 7 -7 78 -3 210 10 420 42 702 48 871 19
38 -6 77 -7 100 -1 38 8 38 8 14 18 -44 18 -90 23 -90 11 0 -6 -8 -4 -18 5
-13 12 -47 19 -120 23 -104 7 -135 20 -60 26 51 4 61 24 16 34 -32 7 -586 13
-593 6z m245 -52 c-8 -5 -34 -10 -57 -10 -23 0 -53 -4 -67 -10 -23 -8 -26 -7
-26 10 0 18 7 20 83 20 56 0 77 -3 67 -10z m-1290 -40 c0 -5 -9 -10 -20 -10
-11 0 -20 5 -20 10 0 6 9 10 20 10 11 0 20 -4 20 -10z"/>
</g>
</svg>
