<?xml version="1.0" standalone="no"?>
<!DOCTYPE svg PUBLIC "-//W3C//DTD SVG 20010904//EN"
 "http://www.w3.org/TR/2001/REC-SVG-20010904/DTD/svg10.dtd">
<svg version="1.0" xmlns="http://www.w3.org/2000/svg"
 width="1280.000000pt" height="853.000000pt" viewBox="0 0 1280.000000 853.000000"
 preserveAspectRatio="xMidYMid meet">
<metadata>
Created by potrace 1.15, written by Peter Selinger 2001-2017
</metadata>
<g transform="translate(0.000000,853.000000) scale(0.100000,-0.100000)"
fill="#000000" stroke="none">
<path d="M8241 8507 c-28 -15 -48 -35 -57 -56 -7 -18 -22 -44 -33 -57 -11 -14
-27 -47 -36 -74 -9 -27 -23 -54 -31 -60 -7 -7 -14 -24 -14 -37 0 -14 -8 -38
-17 -54 -16 -26 -16 -34 -3 -86 l15 -58 130 -11 c214 -19 360 1 415 56 12 12
24 19 27 16 6 -6 -51 -148 -78 -191 -37 -62 -98 -193 -127 -275 -16 -47 -57
-156 -91 -242 -34 -87 -61 -162 -61 -168 0 -6 -13 -43 -29 -83 -16 -39 -38
-99 -49 -132 -11 -33 -39 -107 -62 -165 -23 -58 -45 -119 -49 -136 -5 -16 -15
-41 -24 -55 -20 -31 -61 -135 -96 -246 -45 -139 -122 -336 -140 -357 -9 -10
-28 -24 -43 -32 -41 -21 -53 -49 -29 -73 10 -10 24 -20 31 -23 16 -5 -10 -91
-46 -154 -13 -22 -24 -48 -24 -58 0 -16 -41 -124 -60 -158 -6 -10 -10 -25 -10
-33 0 -9 -11 -37 -25 -63 -14 -26 -25 -54 -25 -62 0 -28 -36 -75 -73 -95 -42
-22 -46 -34 -17 -42 24 -6 24 -9 1 -52 -10 -19 -33 -41 -52 -50 -23 -11 -38
-28 -48 -54 -13 -35 -13 -42 3 -72 17 -31 17 -34 -9 -121 -15 -49 -31 -99 -36
-111 -16 -42 -29 -24 -29 40 -1 34 -7 80 -15 102 -18 50 -18 133 0 209 11 45
12 87 5 187 -7 113 -13 140 -45 224 -26 68 -46 102 -66 117 -15 11 -30 31 -33
44 -4 14 -14 24 -24 24 -22 0 -122 46 -145 67 -9 9 -20 13 -23 10 -4 -4 -19 4
-35 17 -47 40 -218 46 -254 9 -17 -16 -59 -11 -144 18 -30 11 -64 19 -76 19
-25 0 -135 33 -270 80 -72 25 -107 32 -180 33 -113 2 -205 -17 -260 -54 -24
-16 -45 -29 -48 -29 -2 0 -17 19 -32 41 -22 35 -26 49 -21 82 5 28 2 47 -9 63
-12 19 -13 32 -4 76 22 105 52 135 156 162 78 20 76 19 127 49 50 28 64 50 47
71 -23 27 -71 20 -109 -16 l-34 -33 6 46 c5 35 3 49 -9 59 -13 11 -19 10 -33
-4 -25 -22 -31 -13 -25 35 7 49 -9 69 -53 69 -48 0 -60 -32 -43 -115 14 -69 7
-122 -20 -156 -10 -13 -21 -41 -25 -61 -7 -38 -40 -88 -51 -76 -3 3 3 57 14
119 12 62 21 120 21 129 0 27 -24 52 -43 44 -15 -5 -17 -22 -17 -123 0 -96 -3
-121 -19 -144 l-18 -29 -7 26 c-3 14 -19 32 -34 40 -16 8 -34 21 -41 29 -6 8
-41 23 -76 32 -62 17 -66 17 -84 1 -18 -17 -22 -17 -43 -2 -46 32 -90 9 -142
-73 -15 -22 -31 -41 -36 -41 -13 0 -23 44 -15 69 7 24 -10 61 -30 61 -18 0
-45 -39 -45 -65 0 -11 -5 -36 -10 -55 -8 -30 -14 -36 -37 -35 -23 0 -28 -5
-34 -33 -7 -37 -32 -68 -60 -77 -10 -3 -36 3 -58 15 -22 11 -59 20 -83 20 -54
0 -152 -23 -177 -41 -10 -8 -46 -33 -79 -56 -33 -23 -76 -65 -97 -93 -20 -27
-43 -50 -51 -50 -8 0 -24 -21 -35 -47 -12 -27 -27 -59 -34 -73 -7 -14 -18 -54
-25 -90 -7 -36 -17 -73 -22 -82 -15 -30 -37 -20 -47 20 -5 20 -15 57 -21 81
-17 65 -5 116 48 211 26 47 59 110 74 140 39 79 91 136 177 192 58 38 82 48
110 47 59 -4 81 8 81 43 0 30 -1 30 -39 24 -55 -8 -63 10 -20 45 27 22 32 30
21 40 -10 11 -23 8 -67 -14 -31 -15 -60 -27 -65 -27 -18 0 -11 18 10 25 10 3
29 22 41 41 l22 36 -21 20 -20 21 -34 -27 -35 -26 -33 25 c-43 32 -124 59
-154 51 -39 -10 -40 -46 -2 -128 30 -67 32 -77 20 -99 -7 -13 -13 -32 -14 -42
0 -10 -6 -28 -14 -40 -27 -43 -29 -65 -6 -72 23 -7 31 0 76 68 27 41 44 41 44
1 0 -32 -23 -76 -64 -122 -18 -20 -58 -85 -89 -144 -32 -58 -62 -108 -67 -110
-6 -2 -20 -42 -32 -90 -21 -85 -21 -89 -3 -127 22 -51 8 -104 -33 -120 -91
-37 -247 -192 -285 -283 -11 -25 -28 -43 -56 -57 l-40 -21 -96 50 c-53 27
-122 59 -153 70 -87 33 -108 52 -116 106 -7 54 23 180 53 223 39 54 45 56 108
23 75 -38 127 -52 215 -57 63 -3 87 1 181 32 104 35 108 38 138 84 17 27 37
72 44 101 13 47 26 83 64 168 6 14 27 47 46 74 19 26 35 58 35 70 0 19 -6 22
-52 24 -67 3 -76 12 -53 55 10 19 15 41 12 50 -3 8 -33 34 -66 56 -33 23 -65
50 -71 61 -6 11 -30 30 -53 41 -23 12 -53 30 -68 41 -24 18 -28 19 -64 4 -20
-9 -58 -16 -84 -16 -25 0 -64 -9 -86 -19 -58 -27 -212 -175 -224 -214 -10 -33
-27 -85 -42 -125 -14 -35 -25 -19 -38 50 -44 242 -21 369 75 414 38 18 60 53
51 78 -9 24 -30 19 -73 -15 -30 -24 -40 -28 -42 -16 -2 9 4 27 13 41 23 35 17
100 -10 104 -29 4 -55 -45 -66 -124 -9 -65 -26 -111 -36 -100 -3 3 0 50 7 106
13 106 8 130 -29 130 -33 0 -41 -22 -41 -111 0 -81 -10 -113 -28 -94 -4 4 -9
46 -11 93 -1 48 -8 93 -13 100 -12 14 -108 17 -108 2 0 -5 5 -10 10 -10 6 0
10 -10 10 -22 0 -13 12 -51 27 -86 14 -34 23 -65 20 -68 -3 -4 -23 7 -43 24
-35 29 -64 33 -64 9 0 -24 57 -90 104 -122 28 -19 67 -50 86 -70 l35 -36 -1
-157 c-1 -225 11 -206 -136 -210 -67 -1 -127 -7 -132 -12 -6 -6 -24 -10 -40
-10 -17 0 -80 -16 -141 -37 -151 -50 -161 -61 -278 -313 -14 -30 -42 -93 -61
-139 -20 -46 -47 -101 -60 -121 -13 -21 -29 -62 -35 -92 -5 -30 -21 -79 -34
-109 -24 -54 -26 -55 -78 -67 -68 -14 -209 -18 -364 -8 -122 7 -204 26 -225
52 -16 18 20 18 196 3 110 -10 128 -9 141 4 8 8 13 19 10 24 -3 4 -61 7 -129
7 -130 -2 -215 9 -260 32 -35 18 -37 44 -3 44 14 0 25 -6 25 -14 0 -27 78 -32
205 -14 66 10 126 18 133 18 6 0 12 7 12 15 0 17 4 17 -121 5 -88 -8 -176 0
-139 13 55 20 116 37 131 37 21 0 67 36 57 45 -3 4 -39 -4 -80 -18 -40 -14
-100 -29 -133 -33 -61 -9 -567 -14 -617 -7 -45 7 -32 20 27 28 30 3 57 11 60
16 4 5 23 9 43 9 38 1 150 24 160 34 3 3 -15 6 -40 6 -31 0 -50 6 -61 18 -25
27 -22 30 31 37 189 27 385 65 401 79 14 13 27 14 82 5 40 -7 114 -8 199 -4
74 4 148 7 164 6 42 -2 134 20 147 35 17 20 -7 26 -64 15 -28 -5 -117 -12
-197 -15 -119 -5 -168 -3 -270 14 -142 23 -162 28 -156 39 5 8 100 -2 171 -19
72 -16 321 -5 398 18 76 22 82 26 72 42 -5 9 -31 10 -89 6 -141 -11 -398 -9
-481 3 -89 14 -185 39 -185 49 1 20 20 34 40 29 13 -3 33 1 45 9 12 8 56 20
96 27 63 10 74 15 74 32 0 37 -59 42 -151 12 -43 -14 -97 -28 -119 -32 -22 -3
-61 -11 -87 -16 -61 -14 -147 -18 -458 -23 -272 -5 -343 1 -475 40 -102 30
-195 40 -224 25 -41 -22 -19 -91 29 -91 31 0 121 -12 260 -35 108 -19 310 -33
470 -34 126 -1 160 -6 160 -20 0 -13 -55 -22 -160 -27 -128 -7 -165 -10 -230
-19 -31 -4 -135 -2 -232 5 -183 12 -242 6 -268 -25 -10 -12 -10 -18 0 -30 10
-12 29 -14 89 -10 42 2 198 9 346 15 149 6 280 13 293 16 24 5 30 -10 10 -23
-7 -4 -74 -13 -148 -19 -135 -11 -224 -29 -216 -42 7 -12 368 -6 399 7 42 16
117 14 117 -3 0 -9 -12 -16 -33 -18 -57 -5 -29 -23 38 -24 36 -1 69 -4 73 -8
4 -5 -8 -20 -26 -36 -35 -29 -92 -40 -221 -40 -36 0 -133 -8 -216 -17 -82 -9
-201 -17 -263 -18 -116 -3 -145 -11 -117 -35 11 -9 37 -11 103 -5 115 10 234
9 324 -4 40 -5 118 -15 173 -21 55 -6 121 -15 146 -21 25 -6 81 -14 125 -19
108 -11 304 -84 304 -112 0 -18 -5 -19 -91 -12 -64 5 -115 16 -168 36 -41 16
-107 36 -146 44 -38 8 -82 23 -96 33 -35 26 -108 19 -399 -38 -63 -13 -155
-30 -204 -40 -59 -11 -93 -22 -100 -33 -18 -29 2 -33 72 -15 37 9 79 17 93 17
14 0 40 7 58 16 18 9 60 18 94 21 34 3 71 10 82 16 10 5 58 12 105 14 81 4 93
2 240 -47 85 -27 171 -59 190 -69 50 -27 132 -39 319 -46 93 -4 174 -11 185
-18 18 -10 314 -12 426 -4 31 2 31 -15 2 -91 -38 -98 -45 -105 -110 -98 -31 3
-111 10 -177 15 -66 5 -145 15 -175 21 -83 18 -127 26 -210 39 -41 6 -122 21
-180 32 -58 11 -156 29 -218 41 l-113 21 -22 -21 c-12 -11 -55 -27 -97 -36
-82 -18 -169 -42 -215 -59 -16 -7 -37 -10 -47 -9 -9 2 -58 -4 -110 -13 -106
-19 -268 -21 -347 -6 -29 6 -67 11 -82 11 -28 0 -29 -2 -29 -44 l0 -44 42 -6
c119 -18 178 -29 224 -42 28 -8 58 -14 66 -14 9 0 37 -9 62 -21 82 -36 319
-46 584 -25 l217 17 113 54 c61 30 112 59 112 66 0 7 -8 9 -22 4 -13 -4 -43
-10 -68 -15 -25 -5 -58 -14 -75 -20 -28 -11 -154 -30 -305 -47 -85 -9 -371 -8
-485 2 -61 6 -105 16 -135 31 -29 15 -40 24 -30 28 17 5 155 19 185 18 10 -1
46 8 80 19 33 11 74 22 90 23 32 3 105 25 193 58 29 11 58 18 66 15 7 -3 18
-1 23 4 15 15 68 11 223 -19 73 -15 224 -40 280 -47 25 -3 59 -10 75 -15 159
-47 324 -78 395 -73 45 4 77 0 102 -10 l37 -15 -21 -64 c-40 -126 -49 -164
-55 -236 l-6 -73 59 -56 c32 -30 70 -62 84 -71 33 -22 128 -97 160 -125 14
-13 48 -41 75 -62 71 -54 145 -127 145 -142 0 -24 -64 -46 -160 -53 -52 -4
-170 -15 -262 -25 -150 -15 -203 -16 -510 -5 -189 6 -371 14 -406 17 -35 3
-75 2 -90 -2 -27 -7 -27 -7 12 -20 21 -7 61 -17 90 -20 28 -4 60 -12 71 -18
13 -7 103 -12 248 -13 196 -1 230 -3 245 -18 24 -21 47 -20 101 4 32 15 80 22
190 29 80 5 152 6 160 1 9 -5 23 -2 35 5 12 8 102 24 201 36 l180 22 55 -33
c30 -19 65 -40 78 -47 12 -7 22 -19 22 -26 0 -26 -152 -89 -192 -79 -4 1 -56
-5 -115 -12 -59 -8 -163 -18 -230 -21 -106 -7 -123 -5 -123 7 0 9 -6 21 -14
27 -12 10 -18 7 -31 -18 -19 -38 -55 -43 -48 -8 3 14 -2 29 -12 37 -14 11 -18
11 -32 -3 -15 -15 -15 -18 2 -37 18 -20 18 -20 -36 -21 -30 -1 -70 0 -89 0
-34 1 -70 -13 -59 -23 3 -3 115 -6 249 -8 196 -1 261 2 325 15 44 9 130 21
190 26 69 6 138 18 185 34 116 39 130 41 130 18 0 -31 -38 -60 -109 -81 -51
-16 -105 -22 -255 -26 -190 -6 -222 -13 -193 -40 8 -8 32 -10 77 -4 36 4 121
13 190 20 69 6 177 24 241 40 64 16 127 26 140 23 55 -13 80 -66 36 -77 -27
-6 -203 -28 -232 -29 -11 0 -58 -4 -105 -9 -47 -4 -141 -12 -209 -17 -111 -9
-126 -8 -137 7 -10 13 -14 14 -27 3 -9 -7 -25 -10 -36 -6 -12 4 -30 0 -43 -9
-14 -10 -44 -16 -80 -16 -52 0 -58 -2 -58 -21 0 -15 5 -19 18 -15 28 9 349 12
358 4 15 -16 -7 -20 -105 -21 -99 -1 -119 -7 -83 -26 48 -26 711 14 792 48 75
31 210 33 210 3 0 -12 -86 -28 -230 -42 -63 -6 -128 -15 -145 -19 -16 -4 -63
-7 -102 -7 -48 1 -73 -3 -73 -10 0 -18 97 -25 195 -14 187 21 233 28 244 34 6
4 44 13 84 21 74 14 127 9 134 -12 5 -14 -98 -46 -237 -73 -149 -30 -411 -31
-525 -2 -120 31 -185 35 -600 37 -209 1 -423 7 -475 12 -110 12 -210 49 -253
94 -30 31 -67 38 -86 15 -17 -21 3 -62 33 -70 14 -3 26 -13 26 -22 0 -15 67
-49 118 -60 15 -3 34 -8 42 -11 71 -26 176 -33 555 -32 401 0 540 -8 645 -37
77 -21 243 -37 385 -37 114 0 125 2 211 35 50 20 109 45 130 56 68 34 131 36
207 7 37 -14 75 -29 84 -34 107 -57 325 -160 350 -165 18 -4 48 -18 68 -32 20
-13 54 -34 77 -45 22 -11 37 -24 32 -29 -8 -8 -146 -17 -374 -25 -41 -1 -145
-6 -230 -9 -85 -3 -299 -8 -475 -11 -176 -3 -339 -8 -362 -11 -99 -12 -37 -21
195 -28 332 -9 759 2 1083 28 101 8 204 14 229 12 52 -3 112 -26 107 -41 -4
-12 -161 -68 -287 -102 -52 -13 -117 -31 -145 -39 -67 -19 -244 -33 -570 -44
-295 -11 -487 -24 -503 -34 -6 -3 -140 -8 -298 -11 -239 -3 -291 -1 -308 11
-14 10 -50 14 -121 14 -100 0 -145 6 -145 19 0 4 46 26 102 49 122 50 134 56
131 68 -5 21 -49 13 -131 -22 -53 -23 -112 -41 -152 -45 -36 -4 -96 -13 -135
-19 -38 -6 -95 -15 -125 -20 -30 -5 -82 -14 -115 -19 -93 -16 -223 -32 -300
-37 -38 -2 -106 -9 -150 -14 -44 -6 -127 -12 -184 -14 -112 -5 -138 -15 -100
-40 22 -13 29 -13 72 1 39 13 56 14 85 5 39 -12 404 -10 567 3 87 8 145 25
145 45 0 6 10 10 23 10 21 1 249 -32 352 -50 28 -5 147 -14 266 -21 188 -10
230 -10 325 4 102 15 265 35 344 43 19 2 193 8 385 13 394 12 448 18 660 72
156 39 252 72 342 116 l53 26 103 -38 c56 -21 147 -60 203 -87 56 -26 111 -48
123 -48 14 0 21 -5 18 -12 -2 -7 -10 -12 -17 -10 -17 4 -41 4 -175 -2 -136 -5
-128 -4 -119 -17 5 -8 67 -10 217 -6 197 4 211 3 229 -15 10 -10 16 -22 14
-27 -6 -10 -148 -29 -278 -37 -54 -3 -98 -10 -98 -15 0 -5 11 -9 25 -9 18 0
25 -5 25 -20 0 -11 7 -20 15 -20 8 0 15 6 15 14 0 18 31 26 115 27 126 1 181
12 203 39 17 21 22 22 35 11 9 -7 36 -20 61 -30 40 -15 44 -19 34 -33 -10 -12
-38 -18 -113 -23 -55 -3 -120 -10 -145 -15 -25 -5 -84 -9 -132 -10 -48 0 -99
-5 -113 -10 -15 -6 -94 -13 -176 -17 -157 -6 -206 -23 -68 -23 44 0 88 -4 97
-8 9 -5 80 -5 156 0 142 9 184 6 156 -12 -8 -6 -55 -10 -105 -11 -49 0 -116
-4 -148 -8 -33 -4 -61 -3 -64 2 -3 5 -22 5 -42 1 -20 -4 -86 -8 -148 -8 -116
-1 -151 -12 -125 -38 9 -9 86 -9 345 1 182 7 345 14 362 14 20 2 30 -3 33 -14
3 -19 -30 -25 -168 -32 -41 -3 -138 -8 -215 -13 -77 -5 -272 -8 -433 -7 -160
1 -292 -1 -292 -5 1 -34 10 -34 446 -29 383 4 442 7 554 26 69 12 145 24 170
27 25 2 65 8 90 13 289 61 434 85 455 77 25 -9 17 -35 -12 -42 -16 -3 -39 -10
-53 -14 -79 -28 -404 -72 -625 -85 -38 -3 -97 -9 -130 -15 -33 -6 -87 -10
-120 -9 -33 1 -71 -1 -85 -5 -105 -26 -1013 -24 -1245 4 -38 4 -77 8 -85 8 -8
0 -73 3 -144 8 -103 6 -128 5 -121 -5 5 -10 2 -11 -14 -6 -26 8 -28 -10 -3
-24 9 -5 96 -12 192 -15 437 -13 537 -19 589 -33 36 -10 105 -16 210 -17 173
-1 621 12 662 20 14 3 99 11 190 19 360 32 479 50 643 99 48 14 118 31 155 36
36 6 83 15 104 21 31 8 44 7 75 -10 20 -11 62 -27 92 -37 74 -23 112 -42 132
-68 13 -16 28 -21 70 -22 55 -1 164 -26 180 -42 5 -5 0 -16 -12 -27 -11 -10
-20 -27 -20 -38 0 -17 -2 -18 -16 -6 -14 11 -19 10 -36 -11 -11 -14 -23 -25
-27 -26 -22 -2 -85 -19 -141 -39 -36 -12 -146 -39 -245 -59 -99 -20 -202 -41
-230 -46 -72 -15 -246 -39 -350 -50 -106 -11 -548 -3 -618 11 -27 5 -52 7 -57
4 -5 -3 -34 2 -66 10 -32 8 -82 15 -110 15 -28 0 -96 9 -150 20 -93 20 -205
37 -284 45 -19 2 -71 10 -115 19 -154 29 -210 37 -240 35 -16 -1 -59 8 -94 19
-46 15 -69 18 -77 11 -8 -6 -20 -7 -31 -1 -10 5 -45 9 -78 10 -33 1 -85 4
-116 8 -41 4 -66 1 -95 -11 -21 -10 -58 -17 -81 -16 -25 1 -58 -6 -82 -19 -22
-11 -48 -20 -59 -20 -10 0 -23 -5 -30 -12 -6 -6 -49 -12 -99 -14 -48 -1 -110
-7 -136 -13 -26 -6 -58 -9 -70 -6 -13 4 -66 8 -118 10 -52 3 -110 7 -129 10
-96 14 -247 26 -459 37 -233 12 -442 4 -631 -22 -86 -12 -276 -31 -373 -37
-81 -5 -239 9 -318 29 -58 14 -84 6 -68 -20 14 -22 115 -40 209 -38 36 1 79
-3 96 -10 54 -22 325 -16 340 7 3 5 22 9 42 9 20 0 52 4 71 10 39 11 468 16
494 5 9 -4 17 -11 17 -17 0 -5 -4 -7 -9 -4 -5 3 -28 -1 -52 -10 -46 -17 -80
-23 -302 -52 -140 -19 -164 -26 -132 -38 15 -6 211 8 302 22 17 2 34 0 38 -5
4 -7 17 -5 38 4 18 7 73 25 122 40 50 14 100 31 113 36 13 5 40 9 60 9 20 0
52 4 71 10 25 7 40 6 62 -5 15 -8 48 -15 73 -15 25 0 48 -5 51 -10 9 -14 -34
-28 -170 -55 -66 -13 -158 -32 -205 -41 -47 -9 -121 -21 -165 -26 -44 -5 -93
-11 -110 -13 -117 -15 -270 -25 -454 -29 -117 -2 -217 -8 -222 -13 -5 -5 7 -9
29 -10 129 -3 362 -2 447 3 55 3 122 6 148 8 34 2 51 -2 54 -11 4 -11 7 -11
17 1 6 7 31 16 56 19 25 3 72 11 105 17 33 6 85 16 115 21 30 6 75 17 100 24
25 8 90 21 145 30 55 8 124 22 153 31 56 16 187 11 198 -7 3 -5 21 -9 40 -9
21 0 33 -4 29 -10 -3 -5 -26 -10 -51 -10 -25 0 -61 -7 -80 -15 -20 -8 -62 -19
-93 -24 -31 -6 -94 -17 -141 -25 -47 -9 -108 -16 -135 -16 -30 0 -60 -7 -73
-16 -18 -13 -39 -15 -95 -11 -40 3 -81 8 -92 11 -14 5 -29 0 -44 -13 -24 -21
-34 -24 -62 -22 -9 1 -35 -2 -58 -8 -22 -5 -43 -5 -46 -1 -3 4 -24 2 -47 -6
-99 -30 -198 -37 -755 -48 -79 -1 -146 -5 -149 -9 -3 -3 -3 -11 1 -17 5 -7 50
-9 148 -4 78 3 225 7 327 9 159 3 327 9 525 20 28 1 104 9 170 18 66 8 129 15
140 15 101 3 212 24 262 51 10 5 65 15 123 22 58 7 110 16 116 20 6 5 42 18
80 30 38 12 108 41 155 66 60 31 106 47 150 53 98 13 251 47 284 64 41 20 233
38 276 26 19 -6 59 -10 89 -10 30 -1 73 -7 95 -15 22 -8 94 -20 160 -26 66 -7
142 -20 168 -30 26 -11 65 -19 87 -19 22 0 57 -6 77 -14 21 -8 74 -17 118 -20
44 -3 114 -14 155 -25 42 -10 132 -22 205 -26 72 -3 168 -11 215 -17 47 -6
121 -12 165 -13 44 -1 125 -7 180 -13 55 -6 161 -11 235 -11 308 -1 501 30
735 120 28 10 56 19 63 19 7 0 36 13 65 29 28 17 88 43 132 60 44 16 98 39
120 50 59 32 132 28 207 -9 43 -21 70 -29 88 -25 18 4 31 1 40 -10 7 -8 22
-15 35 -15 12 0 30 -9 40 -20 9 -10 34 -24 54 -31 20 -6 45 -17 56 -23 11 -7
43 -20 70 -30 28 -10 73 -31 101 -47 28 -16 61 -29 73 -29 35 0 61 19 61 44 0
32 7 36 41 24 36 -12 37 -26 2 -54 l-27 -21 54 -52 c30 -28 66 -53 80 -56 14
-3 41 -14 60 -24 19 -10 60 -26 91 -35 31 -9 94 -34 140 -57 46 -23 100 -43
119 -44 58 -4 60 -4 60 -20 0 -13 7 -15 34 -9 29 5 42 1 80 -29 25 -19 63 -38
83 -42 91 -16 209 -48 223 -60 19 -16 67 -30 150 -45 60 -10 171 -38 247 -61
17 -5 44 -12 60 -15 97 -16 142 -26 263 -58 175 -47 295 -65 510 -76 96 -5
211 -15 255 -21 51 -7 141 -8 250 -4 94 4 217 9 275 10 158 4 189 9 206 34
l15 21 28 -21 c22 -16 32 -18 53 -10 15 6 60 9 100 8 54 -1 81 2 99 14 13 9
49 22 79 28 30 6 87 17 125 25 109 22 188 46 205 61 20 18 52 19 67 4 8 -8 60
-10 161 -8 133 4 154 6 179 25 20 15 50 23 108 27 70 6 90 4 160 -19 78 -26
87 -27 330 -27 l250 0 135 42 c74 23 160 58 191 76 31 19 76 44 100 55 114 55
109 51 109 93 0 21 -3 37 -7 35 -5 -2 -26 -12 -48 -22 -22 -9 -68 -30 -101
-47 -34 -16 -68 -29 -76 -29 -8 0 -23 -7 -34 -15 -10 -8 -31 -15 -46 -15 -52
0 -221 -38 -318 -71 -60 -20 -156 -20 -300 0 -41 5 -78 7 -82 5 -4 -3 -17 0
-29 7 -22 11 -21 11 10 31 25 16 31 27 31 54 0 32 -2 34 -34 34 -36 0 -93 -23
-161 -65 -75 -47 -207 -74 -312 -66 -25 2 -14 46 16 64 16 9 31 25 33 35 8 28
-9 61 -35 71 -23 9 -24 12 -16 63 12 76 55 198 80 224 11 12 26 45 34 73 7 28
25 72 40 96 14 25 37 75 51 111 13 36 32 77 42 92 9 14 23 41 29 59 7 18 19
48 26 66 6 17 22 48 33 67 12 19 25 46 29 60 4 14 26 66 50 115 23 50 48 108
55 130 7 22 23 63 36 91 13 28 26 80 30 115 6 63 5 66 -34 129 -23 36 -60 89
-84 118 -45 55 -175 171 -192 173 -6 0 -31 25 -56 54 -63 75 -148 137 -390
284 -19 11 -64 34 -98 51 -35 16 -76 38 -90 48 -15 10 -70 34 -122 52 -52 18
-106 42 -119 52 -13 10 -29 18 -35 18 -6 0 -60 20 -119 45 -95 41 -143 53
-269 72 -49 7 -178 -15 -178 -31 0 -6 -7 -22 -16 -35 -12 -16 -19 -20 -27 -12
-7 7 -6 16 6 29 9 10 17 23 17 28 0 15 77 58 275 155 33 16 76 37 95 47 45 22
92 111 84 158 -5 28 -2 32 44 57 27 15 55 27 61 27 6 0 11 -17 11 -40 0 -33 3
-40 19 -40 26 0 51 -10 51 -21 0 -5 -10 -9 -23 -9 -13 0 -38 -11 -55 -24 -18
-13 -50 -26 -72 -30 -26 -4 -40 -12 -40 -21 0 -27 45 -27 126 0 61 20 83 24
101 16 31 -14 53 -4 53 25 0 17 6 24 18 24 10 0 29 11 42 25 36 38 15 54 -78
57 l-77 3 2 30 c1 17 14 53 29 82 17 34 23 57 17 67 -7 13 -15 11 -52 -14 -25
-16 -65 -50 -89 -77 -46 -49 -77 -65 -242 -120 -41 -14 -82 -31 -90 -38 -8 -7
-33 -17 -55 -22 -22 -6 -61 -19 -87 -29 -26 -10 -50 -15 -54 -11 -4 4 -2 25 5
47 9 30 17 40 32 40 34 0 59 19 59 45 0 20 -6 25 -35 31 -43 8 -46 24 -4 24
40 0 70 16 63 35 -4 8 -17 15 -31 15 -22 0 -23 3 -17 35 6 33 4 35 -19 35 -32
0 -43 16 -21 28 22 12 9 32 -20 32 -36 0 -36 8 1 45 53 53 222 105 346 105 64
0 68 1 65 21 -5 34 -48 59 -111 66 -67 7 -70 16 -32 103 22 50 22 56 8 67 -14
10 -20 10 -34 -3 -22 -19 -124 -68 -164 -78 -16 -4 -50 -20 -75 -36 -25 -16
-70 -40 -101 -54 -49 -21 -62 -23 -100 -15 -24 6 -49 15 -55 20 -7 5 -23 7
-36 4 -16 -4 -32 1 -49 14 -16 12 -34 18 -47 15 -16 -5 -21 -1 -24 18 -2 13
-9 22 -18 20 -71 -16 -73 -16 -65 7 4 15 2 21 -9 21 -8 0 -18 -4 -21 -10 -9
-15 -45 -12 -45 4 0 8 -5 18 -11 21 -12 8 -69 -14 -69 -26 0 -5 -19 -21 -42
-35 -24 -14 -48 -32 -53 -39 -6 -7 -29 -23 -52 -36 -65 -38 -159 -149 -178
-210 -19 -67 -19 -164 0 -219 23 -65 21 -70 -29 -70 -25 0 -48 5 -51 10 -4 6
7 10 24 10 26 0 31 4 31 24 0 18 -6 26 -22 28 -14 2 -24 12 -28 28 -4 19 -13
26 -39 28 -36 4 -38 25 -3 30 12 2 22 7 22 12 0 12 -27 20 -73 21 l-42 0 33
16 c17 9 32 22 32 29 0 15 -25 36 -33 27 -11 -11 -37 19 -37 43 0 42 -31 62
-86 57 l-49 -4 23 18 c21 17 22 21 8 32 -11 9 -24 10 -52 2 -60 -17 -72 1 -17
28 53 26 46 41 -21 41 -37 0 -38 1 -23 18 25 28 21 42 -13 42 -24 0 -31 5 -36
26 -6 23 -11 25 -40 22 -19 -2 -34 -3 -34 -2 0 2 4 14 10 28 8 23 7 26 -15 32
-14 3 -34 4 -45 1 -14 -3 -20 1 -22 17 -2 17 -11 22 -43 24 -117 8 -284 33
-310 46 -17 9 -45 16 -62 16 -41 0 -42 15 -5 34 38 20 55 41 48 63 -5 15 -14
17 -52 14 l-47 -3 17 23 c25 37 21 51 -16 47 -32 -3 -33 -1 -33 32 l0 34 -139
1 c-97 0 -141 4 -143 12 -6 18 45 160 98 271 27 56 49 105 49 110 0 4 7 15 14
24 12 17 18 15 81 -27 38 -24 102 -59 144 -76 84 -34 198 -86 221 -100 8 -5
26 -14 40 -20 14 -6 57 -26 95 -44 39 -19 99 -43 135 -54 202 -64 225 -70 272
-64 38 4 52 2 74 -16 15 -11 39 -21 55 -21 16 0 46 -6 66 -14 47 -17 116 -29
313 -56 207 -29 341 -51 362 -62 22 -11 217 -35 343 -43 55 -4 123 -11 150
-16 28 -5 86 -11 130 -14 81 -5 184 -15 420 -40 152 -16 402 -56 565 -90 63
-14 156 -31 205 -40 50 -8 110 -21 135 -29 25 -7 63 -19 85 -25 22 -6 63 -17
90 -25 150 -42 202 -49 391 -52 190 -3 191 -3 213 20 l23 24 -24 14 c-17 10
-73 13 -215 13 -167 0 -195 2 -209 17 -16 15 -15 18 19 32 55 23 159 133 196
207 48 98 66 206 75 454 3 76 7 86 66 199 l62 120 -7 85 c-5 58 -15 103 -32
141 -14 30 -34 82 -43 115 -10 33 -30 94 -45 135 -25 67 -27 83 -21 158 8 111
40 178 104 225 26 19 71 55 100 81 48 44 52 51 52 93 0 57 -36 126 -61 118
-17 -6 -33 0 -179 65 -128 58 -151 67 -195 79 -279 74 -391 92 -723 116 -214
16 -406 45 -425 64 -6 6 -34 11 -61 11 -28 1 -76 10 -106 21 -50 18 -166 51
-280 80 -25 6 -73 24 -107 41 -90 42 -115 49 -239 58 -61 4 -141 18 -179 29
-128 40 -243 52 -398 45 -78 -4 -155 -7 -172 -7 -16 1 -146 2 -287 2 -195 1
-276 5 -335 17 -80 16 -153 47 -153 65 0 24 34 59 57 59 44 0 93 30 93 56 0
19 -7 26 -30 30 -16 4 -34 12 -40 19 -18 22 5 84 61 165 28 41 58 95 65 120 7
25 20 54 28 65 9 11 16 27 16 35 0 8 20 45 45 82 59 88 53 93 -102 89 -72 -2
-119 1 -127 8 -9 8 -22 8 -38 2 -15 -6 -30 -6 -39 0 -8 5 -32 14 -54 20 -22 6
-52 19 -66 30 -60 42 -173 50 -238 16z m111 -116 c-1 -13 -13 -34 -27 -47 -14
-13 -25 -30 -25 -38 0 -27 -61 -140 -85 -158 -33 -25 -88 -28 -93 -6 -5 25 42
124 79 165 17 20 35 45 41 57 13 30 57 57 88 53 20 -1 24 -7 22 -26z m258 -58
c102 -20 107 -27 91 -105 -7 -35 -15 -66 -18 -71 -9 -15 -99 -54 -152 -67 -69
-16 -291 4 -291 27 0 7 16 36 35 64 19 28 35 57 35 65 0 8 5 14 10 14 6 0 24
23 41 51 l32 51 71 -7 c39 -4 105 -13 146 -22z m106 -744 c134 -36 260 -50
474 -53 113 -2 214 -3 225 -3 11 -1 103 -1 205 -2 208 -1 391 -17 429 -37 14
-8 38 -14 53 -14 38 0 115 -19 163 -40 107 -47 378 -130 424 -130 18 0 42 -5
54 -12 12 -6 38 -15 57 -19 19 -4 49 -12 65 -18 17 -6 64 -17 105 -25 67 -14
135 -24 375 -57 39 -6 95 -10 125 -10 30 0 71 -4 90 -9 19 -5 72 -10 118 -11
46 -2 95 -8 109 -16 14 -7 35 -13 47 -13 67 0 374 -79 444 -114 26 -13 63 -29
83 -35 l36 -12 -2 -54 c-3 -60 -11 -75 -59 -105 -55 -33 -134 -136 -152 -196
-21 -73 -20 -226 1 -285 17 -45 24 -68 47 -149 7 -25 28 -67 46 -93 32 -46 33
-50 29 -125 -8 -120 -19 -162 -61 -230 -57 -95 -67 -143 -81 -406 -3 -55 -12
-110 -20 -126 -8 -15 -19 -49 -26 -75 -9 -34 -28 -66 -66 -109 -86 -96 -131
-112 -257 -91 -45 7 -99 20 -121 28 -22 9 -71 21 -110 27 -38 6 -104 22 -145
35 -112 35 -345 73 -525 85 -88 6 -188 15 -221 20 -34 6 -85 10 -113 10 -29 0
-62 5 -73 11 -12 6 -59 13 -104 14 -64 3 -84 0 -88 -11 -8 -21 -31 -17 -64 11
-26 22 -39 25 -108 25 -44 0 -95 4 -114 10 -19 5 -71 11 -115 14 -44 2 -109 9
-144 15 -45 8 -67 9 -75 1 -15 -15 -23 -12 -28 8 -5 20 -11 21 -228 62 -58 10
-141 29 -185 41 -44 12 -98 23 -120 25 -22 1 -71 8 -110 14 -38 7 -84 12 -102
11 -18 -1 -58 7 -90 17 -32 11 -71 23 -87 26 -17 4 -46 14 -65 23 -20 8 -51
17 -69 19 -18 2 -55 19 -81 38 -26 19 -67 39 -91 45 -24 5 -55 19 -70 30 -17
12 -36 18 -49 14 -13 -3 -55 12 -115 41 -52 25 -98 46 -102 46 -21 0 -115 54
-132 75 l-21 26 21 47 c11 26 35 63 52 82 18 20 54 72 80 115 37 62 64 92 117
133 56 43 69 58 69 81 0 32 82 212 105 231 8 7 15 26 15 42 0 16 11 50 24 76
57 114 126 343 141 467 6 51 17 94 62 247 3 9 -2 41 -11 71 -26 91 -15 247 19
247 6 0 47 -9 91 -21z m-188 -216 c-8 -188 -95 -586 -156 -708 -16 -33 -35
-80 -42 -105 -14 -49 -22 -69 -105 -244 -50 -106 -64 -127 -125 -183 -38 -35
-72 -74 -76 -86 -12 -39 -99 -170 -102 -154 -2 9 6 33 17 55 39 77 79 188 91
253 6 35 16 73 22 84 6 11 17 40 24 65 7 25 30 92 52 150 22 58 59 166 82 240
50 161 135 393 160 435 10 17 41 93 70 170 28 77 57 143 63 147 24 14 29 -13
25 -119z m-4203 -949 c28 -18 36 -60 9 -50 -9 3 -20 6 -24 6 -13 0 -32 39 -25
50 8 13 12 13 40 -6z m-1115 -141 c0 -50 35 -246 49 -271 14 -26 -7 -55 -37
-50 -20 3 -21 8 -26 181 -3 108 -1 177 4 177 6 0 10 -17 10 -37z m530 -8 c19
-14 40 -25 47 -25 55 0 120 -74 87 -101 -8 -6 -14 -17 -14 -24 0 -20 31 -27
50 -10 19 17 60 20 60 4 0 -31 -22 -49 -59 -49 -51 0 -86 -28 -78 -61 17 -67
71 -82 127 -36 17 15 36 27 41 27 30 0 -10 -175 -58 -248 -41 -63 -75 -82
-172 -98 -112 -18 -187 -8 -271 35 -70 35 -72 38 -101 104 -18 44 -29 86 -29
115 0 86 27 215 55 264 33 59 110 118 155 118 31 0 32 -1 17 -18 -23 -25 -21
-35 5 -47 12 -6 27 -24 31 -42 8 -25 5 -38 -12 -66 -51 -83 6 -133 76 -65 36
35 45 86 19 107 -8 7 -17 28 -21 47 -3 20 -17 47 -30 60 -12 12 -20 25 -17 28
13 14 61 4 92 -19z m1586 -76 c11 -13 26 -18 38 -15 14 4 29 -4 48 -24 15 -17
37 -30 51 -30 32 0 113 -89 121 -134 l6 -34 -42 5 c-52 5 -108 -25 -108 -58 0
-18 4 -20 28 -14 15 4 56 8 92 9 l65 1 9 -42 c5 -23 5 -62 2 -87 -11 -71 -56
-119 -256 -270 -119 -90 -138 -113 -206 -253 -49 -100 -70 -133 -84 -133 -10
0 -62 9 -117 20 -54 11 -115 20 -135 20 -31 0 -44 7 -77 43 -22 23 -41 49 -41
57 0 14 76 70 96 70 9 0 54 41 112 103 42 44 74 48 99 11 21 -33 86 -74 115
-74 91 1 91 39 1 83 -94 45 -106 72 -113 242 -6 140 -20 184 -75 239 -30 30
-32 60 -5 103 18 30 22 32 44 22 21 -10 29 -8 55 12 17 13 47 50 66 81 l36 58
29 -15 c38 -19 50 -19 80 5 32 25 43 25 66 -1z m-511 -272 c51 -27 64 -41 92
-92 40 -75 59 -158 44 -191 -8 -19 -15 -22 -45 -17 -19 3 -48 1 -65 -5 -29
-10 -30 -9 -46 31 -34 86 -73 133 -127 157 -58 25 -98 21 -98 -10 0 -11 5 -20
11 -20 5 0 34 -11 63 -25 45 -21 58 -34 85 -84 32 -61 40 -108 19 -116 -7 -3
-33 1 -58 8 -37 11 -45 18 -50 42 -12 55 -27 73 -70 80 -26 4 -53 2 -72 -6
-28 -11 -30 -15 -25 -52 3 -22 14 -52 25 -66 18 -24 26 -26 89 -26 66 0 71 -2
97 -32 15 -18 30 -48 33 -68 3 -20 14 -41 24 -48 41 -29 -10 -53 -143 -67 -92
-10 -110 -9 -137 4 -16 9 -40 16 -53 16 -28 1 -94 45 -122 83 -19 25 -21 42
-21 150 l0 122 43 72 c61 104 148 163 240 163 28 0 62 6 76 14 48 25 125 18
191 -17z m1242 -32 c67 -8 128 -17 135 -20 66 -23 71 -26 60 -37 -8 -8 -23 -6
-54 7 -61 24 -215 22 -275 -5 -39 -17 -43 -22 -43 -53 0 -37 48 -113 78 -124
24 -10 52 -46 42 -56 -13 -14 -71 22 -125 77 -27 28 -62 59 -77 68 -54 35 -40
82 37 126 63 36 68 36 222 17z m-2804 -31 c47 -5 57 -9 57 -24 0 -11 -5 -22
-11 -25 -8 -6 -323 -18 -424 -17 -44 0 -196 -36 -222 -54 -19 -12 -23 -24 -23
-64 0 -27 5 -52 10 -55 6 -3 10 -15 10 -25 0 -12 12 -26 33 -35 36 -17 79 -42
152 -90 60 -40 297 -160 380 -194 238 -97 389 -177 401 -213 4 -15 16 -18 60
-18 55 0 116 -28 429 -194 17 -8 68 -32 115 -51 46 -20 100 -46 120 -59 19
-13 87 -43 150 -66 63 -23 138 -53 165 -65 28 -13 70 -28 95 -35 25 -6 70 -22
100 -35 30 -13 82 -35 115 -48 33 -14 137 -57 230 -97 262 -110 357 -148 520
-204 83 -29 164 -60 181 -69 17 -8 60 -23 97 -31 36 -9 130 -40 209 -70 79
-29 170 -59 203 -66 71 -14 196 -47 320 -84 50 -15 113 -34 142 -42 28 -9 69
-24 89 -35 21 -10 53 -19 71 -19 17 0 34 -4 38 -9 7 -12 139 -55 228 -76 37
-8 138 -42 225 -74 233 -89 229 -87 337 -116 55 -15 108 -31 117 -36 10 -5 25
-9 34 -9 17 0 166 -43 224 -65 19 -7 71 -21 115 -31 44 -10 97 -26 117 -36 58
-28 170 -48 274 -48 81 0 99 -3 123 -21 21 -15 52 -23 112 -29 46 -4 102 -15
124 -23 22 -9 54 -16 70 -17 17 0 38 -7 49 -15 10 -8 39 -17 65 -21 25 -4 60
-13 77 -20 36 -15 336 -89 404 -99 25 -4 97 -20 160 -35 181 -44 263 -60 295
-60 29 0 204 -26 375 -56 47 -8 193 -19 324 -25 131 -5 243 -12 247 -14 8 -6
156 15 278 39 40 8 80 21 88 29 12 12 22 13 44 5 64 -22 78 41 30 126 -45 76
-212 230 -298 275 -24 12 -43 25 -43 29 0 4 -21 19 -47 32 -135 70 -259 167
-239 187 3 3 38 -10 78 -30 40 -20 93 -45 118 -56 25 -12 63 -35 85 -51 22
-17 65 -47 95 -67 30 -20 111 -93 178 -162 96 -98 131 -141 157 -194 33 -67
33 -69 17 -99 -23 -39 -104 -69 -201 -74 -41 -2 -90 -9 -110 -15 -48 -15 -200
-30 -286 -29 -303 6 -392 11 -600 39 -38 6 -90 13 -115 16 -25 3 -58 8 -75 10
-16 3 -64 9 -105 14 -41 5 -82 12 -90 15 -8 3 -44 7 -80 10 -98 8 -254 40
-606 126 -67 17 -140 30 -162 30 -45 0 -72 8 -72 21 0 5 12 9 26 9 16 0 24 5
22 12 -5 13 -33 19 -173 37 -38 5 -88 16 -111 24 -23 9 -83 23 -135 32 -51 9
-131 27 -177 41 -47 13 -96 24 -111 24 -15 0 -31 4 -36 9 -9 9 -69 24 -205 52
-24 5 -49 14 -54 19 -6 6 -20 10 -31 10 -12 0 -41 6 -66 14 -24 8 -129 38
-234 66 -104 28 -212 57 -240 65 -27 8 -102 27 -165 41 -166 38 -411 100 -440
112 -14 6 -97 31 -185 57 -88 25 -180 52 -205 60 -25 8 -63 19 -85 24 -58 13
-576 192 -675 233 -47 20 -100 39 -118 43 -18 4 -74 25 -125 47 -50 22 -135
55 -187 73 -179 62 -322 121 -436 179 -29 14 -55 26 -60 26 -4 0 -100 43 -213
96 -284 133 -325 152 -410 191 -41 19 -85 43 -99 53 -13 11 -31 20 -39 20 -15
0 -29 5 -153 60 -69 31 -179 73 -220 85 -37 11 -487 235 -529 263 -20 14 -70
38 -111 55 -41 16 -84 38 -96 48 -11 11 -25 19 -30 19 -6 0 -35 17 -66 38 -68
46 -235 157 -345 230 -87 57 -123 93 -123 123 0 48 144 156 221 166 22 3 42
10 45 14 3 5 24 9 47 10 23 0 58 6 77 14 35 14 171 13 303 -1z m3047 -34 c0
-5 -7 -7 -15 -4 -8 4 -15 8 -15 10 0 2 7 4 15 4 8 0 15 -4 15 -10z m124 -32
c22 -6 50 -18 61 -25 11 -7 34 -13 53 -13 18 0 43 -5 54 -11 12 -6 66 -18 121
-25 55 -8 130 -25 166 -38 160 -59 206 -78 232 -99 15 -12 48 -35 74 -50 94
-59 113 -172 38 -222 -34 -23 -132 -36 -263 -35 -107 1 -270 33 -365 72 -119
49 -201 77 -239 82 -38 5 -129 47 -233 107 -41 23 -53 36 -53 55 0 13 2 24 4
24 2 0 37 -16 77 -35 41 -19 79 -35 85 -35 6 0 22 -8 35 -19 13 -10 42 -21 64
-25 22 -4 60 -14 85 -21 138 -43 226 -65 320 -80 58 -8 121 -20 140 -25 26 -7
40 -6 57 6 13 8 21 19 19 23 -3 4 -38 11 -78 14 -40 3 -118 18 -173 32 -55 15
-127 32 -160 37 -33 5 -79 18 -103 29 -23 10 -53 19 -65 19 -12 0 -33 9 -47
20 -25 20 -25 20 -5 35 27 21 125 10 191 -21 28 -13 63 -24 77 -24 15 0 27 -5
27 -11 0 -8 15 -10 44 -7 32 4 57 0 88 -14 68 -31 149 -58 175 -58 25 0 56
-20 115 -73 38 -33 69 -42 97 -27 29 15 27 56 -5 98 -18 23 -53 46 -111 73
-47 21 -91 39 -98 39 -13 0 -37 11 -110 48 -96 50 -129 63 -181 75 -33 8 -77
23 -99 34 -22 11 -70 31 -107 44 -38 13 -68 27 -68 31 0 11 16 10 64 -4z
m-645 -95 c35 -32 67 -68 72 -80 9 -25 68 -58 139 -79 25 -7 64 -29 87 -49 23
-19 44 -35 48 -35 4 0 33 -13 65 -29 54 -28 135 -53 228 -72 23 -5 51 -13 61
-19 11 -5 30 -10 43 -10 13 0 28 -4 33 -9 16 -14 164 -58 274 -81 80 -17 140
-22 268 -22 l164 -1 -3 -26 c-2 -19 -15 -32 -48 -49 -42 -22 -53 -23 -181 -19
-75 3 -146 10 -157 16 -12 6 -61 20 -109 30 -86 19 -299 87 -358 115 -16 7
-48 19 -70 26 -22 7 -67 25 -100 40 -33 15 -71 31 -85 35 -40 12 -133 61 -214
112 -83 54 -175 106 -193 111 -23 6 -13 -22 20 -60 24 -27 82 -60 227 -131
385 -186 477 -223 611 -246 31 -6 85 -25 120 -44 35 -18 75 -37 89 -41 19 -6
21 -9 8 -13 -9 -2 -38 5 -65 16 -26 10 -70 22 -97 25 -28 3 -53 11 -56 17 -4
6 -25 15 -46 20 -57 15 -66 15 -71 4 -5 -15 120 -85 151 -85 14 0 28 -4 31
-10 8 -13 93 -50 115 -50 25 0 50 -10 50 -21 0 -17 -49 -9 -130 21 -82 30
-153 39 -165 20 -13 -21 17 -39 115 -70 55 -18 100 -36 100 -41 0 -21 -56 -20
-135 1 -46 12 -88 19 -94 16 -18 -11 -13 -26 9 -26 11 0 37 -7 57 -15 29 -12
33 -18 24 -29 -7 -8 -35 -17 -62 -21 -45 -6 -113 -46 -99 -57 3 -2 37 -17 75
-33 80 -32 97 -43 89 -57 -3 -5 -12 -4 -21 3 -12 10 -16 10 -24 -2 -5 -8 -9
-17 -9 -20 0 -7 -150 -29 -197 -29 -27 0 -34 -5 -39 -25 -4 -14 -4 -28 -1 -31
3 -3 31 -1 63 5 84 16 125 14 168 -10 21 -11 44 -18 52 -15 7 3 16 1 19 -4 4
-6 -3 -10 -13 -10 -11 0 -22 -6 -25 -13 -15 -39 -144 -61 -215 -36 -17 6 -39
9 -49 7 -13 -3 -8 -9 20 -21 42 -18 44 -24 20 -43 -16 -12 -13 -13 27 -14 53
0 122 -18 132 -33 12 -19 -91 -60 -165 -65 -56 -4 -67 -8 -65 -21 2 -10 24
-21 63 -31 33 -8 67 -19 75 -25 21 -14 -42 -24 -153 -24 -66 -1 -88 -4 -85
-13 3 -7 13 -15 24 -17 10 -2 21 -6 24 -10 3 -4 41 -17 85 -30 119 -33 113
-31 92 -43 -10 -5 -45 -11 -78 -12 -85 -4 -96 -22 -17 -29 37 -3 66 -11 73
-20 6 -8 25 -18 44 -22 57 -12 19 -23 -49 -14 -78 11 -197 51 -257 86 -32 18
-52 24 -73 19 -22 -4 -54 5 -123 35 -90 40 -146 62 -338 132 -52 19 -104 39
-115 45 -22 13 -280 113 -336 131 -20 7 -42 19 -48 27 -7 7 -18 14 -26 14 -7
0 -22 13 -34 30 -18 25 -20 38 -15 92 9 85 33 194 50 229 8 15 15 40 15 54 0
39 27 96 65 135 22 22 45 65 64 118 52 140 78 188 118 214 20 13 44 28 52 33
9 6 42 27 73 48 82 53 214 191 234 244 9 24 18 43 19 43 1 0 30 -26 64 -57z
m-2804 38 c-16 -15 -65 -25 -65 -13 0 11 21 19 55 21 12 1 15 -3 10 -8z m68 2
c-7 -2 -19 -2 -25 0 -7 3 -2 5 12 5 14 0 19 -2 13 -5z m117 -3 c0 -13 -46 -24
-62 -14 -9 6 -4 11 17 15 45 10 45 10 45 -1z m-290 -28 c0 -19 -38 -42 -68
-42 -12 1 -7 9 18 30 40 35 50 37 50 12z m130 -51 c0 -11 -54 -31 -83 -31 -26
0 -14 12 26 27 40 14 57 16 57 4z m135 -51 c-3 -5 -13 -10 -21 -10 -8 0 -14 5
-14 10 0 6 9 10 21 10 11 0 17 -4 14 -10z m-1845 -9 c16 -5 24 -13 22 -24 -4
-21 17 -25 139 -29 64 -3 103 -9 114 -18 15 -13 13 -15 -22 -27 -38 -14 -89
-21 -193 -28 -30 -2 -91 -9 -135 -14 -111 -14 -125 -13 -125 4 0 8 10 17 23
19 21 5 217 26 237 26 6 0 10 5 10 10 0 10 -227 7 -370 -5 l-55 -5 24 21 c13
11 31 17 39 14 7 -3 35 4 60 16 89 39 180 55 232 40z m1780 0 c0 -5 -27 -19
-60 -31 -33 -12 -65 -28 -71 -36 -13 -15 -49 -19 -49 -5 0 15 29 33 93 57 68
25 87 29 87 15z m1836 -56 c14 -37 -43 -59 -80 -32 -17 13 -17 14 -1 30 21 21
74 22 81 2z m-2288 -82 c44 -34 92 -65 107 -69 18 -4 32 -18 40 -38 9 -22 40
-49 107 -92 195 -127 258 -163 413 -239 112 -55 153 -80 138 -82 -12 -2 -40 5
-62 16 -24 13 -42 17 -46 11 -10 -16 2 -27 48 -48 23 -11 90 -43 148 -71 58
-28 109 -51 114 -51 4 0 30 -14 58 -31 57 -35 173 -79 209 -79 14 0 51 -11 82
-25 31 -14 65 -25 74 -25 10 0 27 -7 38 -15 10 -8 29 -15 42 -15 12 0 47 -20
78 -45 30 -25 65 -45 78 -45 13 0 44 -11 70 -25 26 -14 68 -30 94 -36 26 -7
68 -23 94 -36 26 -13 71 -30 100 -37 29 -8 80 -29 113 -45 33 -17 71 -31 84
-31 13 0 48 -14 78 -30 29 -17 88 -42 130 -55 43 -14 117 -44 165 -66 52 -24
95 -38 107 -34 10 3 23 -1 31 -9 6 -9 49 -27 95 -41 45 -13 131 -46 191 -71
60 -25 143 -58 184 -74 41 -15 113 -46 159 -69 47 -23 99 -41 115 -41 17 -1
42 -7 56 -15 14 -8 33 -14 43 -15 10 0 64 -17 120 -39 56 -21 133 -48 171 -60
38 -12 76 -26 85 -31 10 -5 73 -25 142 -45 68 -20 165 -54 214 -76 85 -38 205
-74 391 -119 45 -10 104 -28 133 -40 28 -11 64 -20 79 -20 15 -1 38 -7 52 -15
14 -8 41 -14 60 -15 20 0 40 -4 45 -9 20 -17 141 -53 193 -57 34 -2 62 -10 79
-23 20 -17 40 -21 93 -21 37 0 83 -6 101 -14 47 -20 346 -96 376 -96 13 0 41
-9 61 -19 20 -11 57 -24 82 -30 25 -6 142 -36 260 -66 330 -83 341 -85 408
-85 35 0 73 -5 84 -11 24 -13 121 -33 289 -59 64 -10 133 -26 154 -34 21 -9
81 -21 134 -27 53 -6 114 -14 136 -19 22 -5 55 -10 73 -10 17 0 32 -4 32 -10
0 -5 13 -7 30 -4 42 9 122 -5 117 -19 -2 -7 -12 -14 -23 -16 -10 -1 -26 -10
-35 -17 -21 -19 -80 -28 -116 -19 l-28 7 30 23 c46 37 22 41 -47 7 -54 -26
-72 -30 -121 -26 -32 2 -62 6 -67 9 -10 6 -167 35 -193 35 -27 0 -12 -17 20
-23 16 -3 55 -13 88 -22 33 -9 76 -20 95 -24 50 -9 43 -25 -15 -32 -60 -7 -85
-17 -85 -34 0 -6 -29 -27 -64 -44 -57 -29 -67 -32 -102 -22 -102 27 -194 43
-211 37 -15 -6 -15 -8 -3 -16 8 -6 26 -10 40 -10 14 0 46 -8 72 -18 37 -14 45
-21 36 -30 -7 -7 -20 -12 -29 -12 -22 0 -43 -26 -35 -45 9 -26 98 -12 137 21
8 8 25 14 36 14 29 0 84 -21 78 -30 -11 -18 -159 -61 -199 -58 -38 3 -41 1
-41 -22 0 -19 -12 -32 -55 -58 -30 -18 -55 -38 -55 -44 0 -7 19 -17 42 -23 23
-5 45 -13 48 -17 9 -9 -23 -24 -70 -32 -80 -14 -82 -17 -29 -37 69 -27 91 -24
137 17 37 34 43 36 88 31 49 -6 59 -1 37 21 -15 15 -16 14 70 45 55 20 78 24
92 17 10 -5 35 -10 54 -10 59 0 42 -25 -41 -59 -63 -27 -81 -31 -100 -22 -34
15 -61 15 -45 -1 19 -19 15 -26 -22 -38 -25 -8 -46 -8 -72 -1 -44 12 -65 4
-39 -15 18 -13 18 -15 -4 -38 -13 -13 -34 -27 -47 -30 -13 -4 -24 -12 -24 -20
0 -17 72 -5 137 24 59 26 171 23 180 -6 3 -10 -101 -63 -152 -78 -11 -3 -54 1
-95 10 -141 29 -130 29 -130 1 0 -23 4 -26 60 -32 33 -4 60 -9 60 -12 0 -15
-54 -92 -68 -98 -9 -4 -57 -9 -107 -12 -49 -2 -103 -5 -120 -6 -63 -4 -37 19
39 35 88 18 117 37 96 62 -19 24 -42 20 -161 -29 -88 -36 -122 -45 -170 -45
-45 0 -61 -4 -66 -16 -10 -26 14 -38 82 -42 53 -4 70 -1 85 13 18 16 20 16 26
1 3 -9 18 -16 33 -16 25 -1 26 -1 6 -16 -11 -8 -32 -18 -47 -21 -16 -3 -28
-10 -28 -15 0 -5 8 -7 18 -4 9 3 42 6 72 7 30 1 73 9 96 19 43 18 224 27 224
10 0 -15 -122 -74 -216 -105 -49 -16 -91 -31 -94 -33 -10 -7 26 -22 45 -18 62
13 140 38 158 51 40 28 107 17 107 -17 0 -17 -5 -20 -31 -16 -24 4 -35 -1 -56
-26 -26 -31 -26 -31 -4 -34 12 -2 36 2 55 8 25 8 41 8 62 -1 16 -7 85 -20 154
-30 69 -9 153 -24 188 -33 34 -9 97 -17 140 -18 42 -1 87 -5 99 -9 12 -5 147
-11 300 -14 153 -3 279 -8 282 -11 11 -11 -14 -14 -135 -17 -74 -2 -138 -8
-150 -15 -35 -19 -725 4 -879 28 -33 6 -94 10 -135 10 -165 0 -460 49 -785
129 -22 6 -83 20 -135 31 -52 12 -117 28 -143 36 -26 9 -73 20 -105 25 -31 5
-84 13 -117 18 -89 15 -153 28 -220 46 -33 10 -85 20 -115 24 -30 5 -89 17
-130 29 -41 11 -106 23 -145 27 -166 16 -847 193 -1035 270 -30 12 -102 37
-160 55 -58 18 -110 37 -116 41 -6 5 -42 18 -80 29 -38 12 -83 28 -101 36 -17
8 -35 14 -41 14 -15 0 -215 61 -248 76 -18 8 -65 25 -105 40 -250 87 -345 122
-404 148 -16 8 -56 25 -88 40 -32 15 -86 36 -120 48 -34 11 -67 24 -72 29 -6
4 -33 15 -60 24 -28 9 -119 51 -204 92 -85 41 -178 84 -205 95 -28 10 -85 35
-126 55 -41 19 -91 41 -112 48 -77 28 -198 83 -485 221 -61 30 -114 54 -118
54 -4 0 -54 26 -113 59 -59 32 -163 87 -232 122 -124 64 -199 109 -374 225
-50 33 -103 67 -118 75 -49 25 -315 198 -403 262 -323 233 -424 315 -433 350
-9 33 8 129 30 170 6 12 17 42 23 67 16 57 42 132 66 190 11 25 32 88 48 140
27 88 57 171 111 310 12 30 34 89 49 130 15 41 42 104 60 138 29 58 34 62 50
50 10 -7 55 -41 99 -75z m472 67 c0 -5 -9 -10 -21 -10 -11 0 -17 5 -14 10 3 6
13 10 21 10 8 0 14 -4 14 -10z m1127 -112 l48 -83 85 -28 c46 -16 103 -30 125
-33 130 -12 145 -16 175 -51 16 -18 39 -52 51 -74 26 -53 40 -174 27 -253 -14
-93 -17 -180 -6 -193 6 -7 8 -20 4 -28 -5 -14 -9 -14 -33 -1 -16 7 -73 28
-128 46 -55 18 -151 55 -213 83 -105 46 -113 52 -107 74 3 13 -4 51 -16 86
-11 34 -26 96 -33 137 -12 71 -14 73 -25 47 -14 -36 -14 -108 0 -181 7 -31 9
-59 5 -63 -7 -8 -96 37 -96 49 0 4 5 8 10 8 16 0 12 29 -16 115 -17 53 -24 92
-20 115 6 37 -1 80 -14 80 -13 0 -30 -50 -30 -88 1 -52 23 -151 44 -189 20
-39 13 -40 -56 -9 -242 111 -224 100 -240 148 l-14 45 59 74 c82 104 97 119
161 164 79 56 136 84 172 85 29 0 36 -7 81 -82z m3488 -226 c15 -34 16 -47 7
-68 -20 -42 -14 -70 19 -99 33 -27 66 -30 62 -5 -6 37 -31 128 -41 152 -13 32
-6 58 15 58 27 0 105 -62 119 -95 7 -18 25 -47 39 -64 15 -17 23 -35 20 -41
-10 -16 -36 -143 -30 -148 19 -19 -65 -84 -125 -97 -59 -13 -92 -34 -159 -103
-66 -68 -100 -116 -146 -207 -36 -72 -36 -184 0 -237 17 -25 21 -39 14 -44 -6
-3 -48 -9 -94 -13 -45 -3 -90 -12 -99 -20 -21 -17 -21 -19 10 96 14 54 31 118
36 143 19 88 81 306 99 348 10 24 41 109 68 190 63 186 75 216 114 274 36 53
41 52 72 -20z m-2729 -123 c27 -7 51 -21 60 -34 13 -20 12 -30 -10 -101 -13
-44 -34 -124 -46 -179 -30 -140 -39 -165 -57 -165 -27 0 -88 21 -112 39 l-24
18 12 139 c12 139 29 272 38 287 6 11 88 9 139 -4z m2239 -19 c10 -16 -40 -30
-99 -29 -30 1 -58 -1 -62 -4 -9 -5 -144 20 -152 28 -3 2 53 4 123 4 70 0 130
3 133 6 9 9 51 5 57 -5z m-185 -100 c0 -16 -20 -22 -50 -15 -46 10 -38 31 10
27 22 -2 40 -8 40 -12z m220 -8 c0 -14 -48 -32 -85 -32 -28 0 -35 4 -35 20 0
18 7 20 60 20 33 0 60 -4 60 -8z m1048 -42 c97 -24 144 -57 176 -121 32 -62
36 -139 9 -139 -25 0 -123 -61 -175 -108 l-27 -25 -21 46 c-13 28 -19 54 -15
66 5 18 2 21 -25 21 -27 0 -30 2 -20 19 13 26 13 28 -6 35 -9 4 -23 1 -30 -5
-17 -14 -35 -3 -27 16 7 20 -12 19 -44 -2 l-26 -17 7 27 c6 24 4 27 -19 27
-18 0 -25 5 -25 20 0 24 -3 24 -40 5 l-30 -16 0 42 c0 50 26 86 82 115 49 25
139 23 256 -6z m1968 8 c4 -6 0 -16 -9 -23 -11 -8 -17 -27 -17 -54 0 -34 3
-41 20 -41 11 0 20 -4 20 -10 0 -5 -8 -10 -17 -10 -10 0 -29 -9 -43 -20 -14
-11 -34 -20 -44 -20 -11 0 -27 -6 -35 -14 -29 -25 -111 -47 -133 -35 -28 15
-60 49 -56 59 4 12 279 180 295 180 6 0 15 -5 19 -12z m-3386 -48 c0 -5 -4
-10 -10 -10 -5 0 -10 5 -10 10 0 6 5 10 10 10 6 0 10 -4 10 -10z m-123 -57
c62 -20 68 -33 15 -33 -21 0 -43 -5 -49 -11 -8 -8 -31 -6 -82 6 -105 26 -102
40 9 48 25 2 47 4 49 5 2 1 28 -6 58 -15z m2697 -22 c6 -9 74 -26 90 -22 6 1
19 -2 30 -7 12 -5 41 -15 66 -23 25 -7 50 -19 57 -27 10 -12 16 -11 39 7 45
35 75 23 34 -14 -30 -27 -24 -36 20 -29 47 8 51 -2 13 -32 -23 -18 -26 -25
-15 -36 10 -10 16 -10 32 0 27 17 30 16 30 -14 0 -22 4 -25 28 -22 22 2 33 -5
55 -36 19 -24 27 -46 23 -59 -3 -11 0 -30 6 -41 6 -12 10 -60 9 -110 -1 -70
-6 -97 -22 -122 -25 -41 -90 -100 -120 -109 -13 -4 -31 -13 -39 -20 -23 -20
-235 -23 -280 -5 -19 8 -37 17 -40 20 -3 3 -30 18 -60 34 -30 16 -61 34 -69
40 -7 6 -39 25 -69 41 -31 17 -64 42 -74 56 -45 61 -70 303 -39 377 16 38 49
43 88 12 14 -11 33 -20 43 -20 14 0 17 -10 16 -64 -1 -50 3 -68 18 -85 20 -22
70 -29 81 -11 10 16 -5 50 -21 50 -17 0 -34 40 -34 82 0 21 8 37 26 51 27 21
28 33 8 120 -6 26 -4 27 29 27 20 0 38 -4 41 -9z m-2184 -42 c0 -12 -7 -19
-18 -19 -10 0 -26 -6 -37 -14 -29 -19 -83 -25 -96 -10 -12 15 7 27 85 54 57
19 66 18 66 -11z m-300 11 c0 -14 -48 -43 -60 -35 -16 10 -12 21 13 33 28 14
47 15 47 2z m-2445 -40 c3 -5 1 -10 -4 -10 -6 0 -11 5 -11 10 0 6 2 10 4 10 3
0 8 -4 11 -10z m-3392 -57 c-7 -2 -19 -2 -25 0 -7 3 -2 5 12 5 14 0 19 -2 13
-5z m5651 -6 c17 -12 14 -15 -27 -31 -46 -17 -107 -12 -114 10 -9 27 110 44
141 21z m1175 3 c79 -16 112 -29 142 -59 15 -14 38 -35 52 -47 24 -20 25 -24
20 -110 -3 -51 -11 -99 -19 -112 -29 -45 -122 -92 -256 -130 -50 -14 -67 -14
-130 -3 -40 7 -93 15 -118 18 -83 8 -86 10 -109 63 -25 59 -19 101 29 204 34
71 62 97 162 147 77 38 138 46 227 29z m-931 -47 c-7 -37 -103 -58 -127 -29
-15 18 -1 28 54 37 69 11 77 10 73 -8z m209 -40 c-3 -2 -24 -7 -48 -10 -33 -5
-41 -3 -37 8 2 8 20 19 39 25 28 10 36 9 42 -3 5 -8 7 -17 4 -20z m1369 -14
c3 -5 14 -9 26 -9 11 0 29 -11 39 -25 11 -13 46 -34 79 -46 45 -16 61 -28 70
-50 12 -28 20 -33 47 -30 26 3 21 -19 -9 -44 -28 -24 -30 -28 -15 -37 18 -10
23 -53 7 -63 -24 -15 -9 -35 25 -35 43 0 46 -16 5 -25 -37 -8 -47 -23 -27 -42
11 -12 19 -12 35 -4 25 14 79 14 87 1 3 -5 -6 -17 -20 -26 -14 -9 -31 -28 -38
-42 -12 -27 -33 -35 -129 -47 -30 -4 -55 -15 -71 -30 -33 -33 -67 -142 -67
-213 0 -53 -4 -65 -45 -123 -48 -69 -55 -89 -28 -89 62 0 143 146 143 259 0
58 1 61 42 96 90 77 155 53 189 -70 10 -35 9 -45 -10 -77 -11 -20 -21 -50 -21
-65 0 -32 -61 -154 -82 -164 -7 -4 -44 -19 -83 -33 -38 -15 -90 -41 -114 -58
-44 -31 -44 -31 -60 -11 -9 11 -32 65 -50 121 -32 95 -39 106 -106 177 -43 45
-77 90 -85 114 -18 56 -199 213 -260 226 -34 8 -64 39 -57 59 3 8 30 27 59 42
87 43 122 86 147 181 8 29 18 44 33 49 13 4 50 35 83 69 42 44 73 66 100 74
22 6 51 17 64 25 21 12 28 11 58 -6 18 -11 36 -24 39 -29z m-1807 -33 c28 -16
29 -15 -82 -51 -65 -21 -93 -26 -105 -19 -42 27 -19 45 88 69 71 17 71 17 99
1z m265 -45 c9 -14 -16 -29 -95 -56 -117 -40 -211 -16 -111 29 65 29 195 46
206 27z m156 -25 c0 -8 -5 -18 -11 -22 -6 -3 -8 -15 -6 -26 4 -15 1 -19 -16
-16 -29 4 -36 47 -11 65 24 17 44 17 44 -1z m-506 -95 l49 -17 -53 -23 c-68
-29 -152 -37 -203 -19 -22 7 -40 17 -40 23 -2 11 48 29 118 43 69 13 74 13
129 -7z m284 -58 c-5 -27 -149 -63 -173 -43 -11 9 -13 16 -5 24 15 16 88 34
138 35 36 1 43 -2 40 -16z m192 -3 c0 -5 -13 -10 -30 -10 -16 0 -30 5 -30 10
0 6 14 10 30 10 17 0 30 -4 30 -10z m-70 -48 c-38 -6 -52 5 -40 29 l12 21 25
-24 c25 -23 25 -23 3 -26z m3254 -8 c9 -8 16 -22 16 -29 0 -26 -45 -62 -105
-85 -33 -13 -81 -36 -106 -51 -25 -16 -61 -34 -80 -40 -19 -7 -45 -20 -58 -31
-13 -10 -28 -18 -34 -18 -6 0 -32 -14 -59 -31 l-48 -31 -36 27 c-34 26 -38 27
-77 14 -23 -7 -46 -16 -52 -19 -22 -15 -111 -40 -142 -40 -29 0 -53 -9 -123
-49 -84 -47 -119 -51 -135 -13 -13 30 -38 28 -77 -7 -18 -15 -43 -33 -55 -40
-20 -10 -23 -9 -23 6 0 20 40 68 80 96 18 12 21 20 13 28 -19 19 -56 1 -86
-41 -31 -45 -47 -51 -47 -19 0 13 25 46 65 84 59 58 78 85 57 85 -4 0 -31 -18
-61 -40 -48 -36 -71 -48 -71 -36 0 14 48 84 67 99 26 21 30 37 8 37 -8 0 -20
-10 -26 -22 -18 -35 -59 -53 -59 -27 0 18 60 89 75 89 8 0 41 -16 74 -35 32
-19 65 -35 73 -35 7 0 27 -8 43 -18 101 -62 224 -78 325 -42 30 11 68 19 83
20 16 0 41 9 56 19 34 24 117 61 201 90 36 12 110 44 165 71 107 53 135 59
159 34z m-1233 -36 l21 -42 -33 -30 c-29 -26 -34 -28 -37 -12 -3 13 -10 16
-30 12 -15 -3 -34 -2 -42 3 -12 9 -11 14 8 34 27 29 28 37 2 37 -11 0 -20 5
-20 10 0 6 15 10 33 10 17 0 39 5 47 10 24 15 28 13 51 -32z m-2478 16 c53 -9
45 -34 -17 -49 -40 -10 -57 -10 -86 0 -19 7 -60 16 -90 20 -30 4 -59 10 -65
14 -19 12 199 24 258 15z m296 -60 c13 -12 -60 -33 -112 -34 -39 0 -30 22 14
37 29 10 85 9 98 -3z m799 -31 c86 -14 102 -19 102 -35 0 -22 -9 -23 -24 -3
-9 12 -17 13 -48 3 -21 -6 -46 -20 -55 -30 -15 -17 -15 -21 -3 -29 19 -11 80
-29 103 -29 23 0 22 -17 -3 -25 -11 -4 -47 6 -87 24 -38 16 -101 37 -140 46
-40 9 -88 27 -108 41 -20 13 -41 24 -46 24 -23 0 0 -26 43 -50 26 -14 65 -35
88 -48 44 -24 85 -81 71 -95 -13 -13 -87 2 -102 19 -12 15 -59 19 -59 5 0 -14
22 -27 76 -45 29 -9 60 -26 69 -36 10 -11 42 -28 72 -37 29 -9 53 -22 53 -29
0 -13 -250 65 -276 87 -11 9 -18 8 -29 -1 -36 -30 -14 -47 128 -96 109 -38
149 -61 85 -50 -43 8 -183 53 -282 90 -65 25 -102 27 -63 2 10 -6 55 -35 100
-63 45 -29 86 -53 92 -53 5 0 23 -7 39 -15 15 -8 53 -21 84 -29 64 -17 90 -36
50 -36 -15 0 -30 5 -33 10 -4 6 -15 8 -25 5 -11 -3 -30 -1 -42 6 -13 7 -39 16
-58 20 -19 4 -105 32 -190 62 -167 58 -188 74 -169 124 5 13 9 34 9 47 0 12 8
30 18 39 39 35 69 66 101 101 47 52 104 78 195 91 93 12 124 11 264 -12z
m-1138 -53 c0 -18 -7 -20 -57 -20 -32 0 -64 4 -72 9 -27 17 1 31 65 31 57 0
64 -2 64 -20z m65 0 c3 -5 -1 -10 -10 -10 -9 0 -13 5 -10 10 3 6 8 10 10 10 2
0 7 -4 10 -10z m2376 -63 c-17 -17 -22 -2 -9 29 11 28 12 29 16 5 2 -13 -1
-28 -7 -34z m-2137 24 c7 -10 -46 -31 -80 -31 -30 0 -39 16 -17 29 22 13 90
14 97 2z m166 -16 c16 -19 4 -35 -25 -35 -27 0 -39 14 -31 35 7 19 40 19 56 0z
m730 -120 c39 -24 -48 -35 -109 -14 -66 23 -14 54 56 33 24 -7 48 -16 53 -19z
m2030 26 c0 -5 -13 -11 -30 -13 -29 -4 -37 1 -23 15 10 10 53 8 53 -2z m123 3
c10 -10 -12 -44 -28 -44 -18 0 -19 5 -3 30 13 21 21 24 31 14z m-2934 -23 c21
-6 22 -8 8 -19 -9 -8 -18 -9 -21 -3 -4 6 -19 5 -40 -4 -33 -14 -76 -10 -76 6
0 23 77 35 129 20z m3064 -39 c-10 -15 -20 -45 -23 -67 -6 -45 -34 -61 -45
-26 -7 23 46 126 68 134 20 7 20 -12 0 -41z m72 -4 l-5 -33 15 33 c15 32 45
44 45 18 0 -8 -9 -35 -20 -61 -11 -26 -20 -53 -20 -62 0 -8 -9 -28 -21 -45
-12 -16 -18 -32 -15 -36 16 -15 43 20 76 98 37 88 80 135 80 88 0 -13 -16 -56
-35 -97 -40 -84 -40 -81 -20 -81 12 0 13 -4 3 -25 -6 -14 -17 -25 -25 -25 -9
0 -13 -16 -13 -59 0 -47 -5 -65 -23 -88 -13 -15 -38 -54 -55 -87 -29 -53 -31
-64 -25 -120 10 -108 101 -245 171 -259 39 -8 44 -37 8 -37 -14 0 -36 4 -50
10 -14 5 -54 10 -88 10 -104 2 -295 36 -454 81 -56 16 -114 29 -129 29 -29 0
-94 17 -200 52 -33 11 -67 20 -75 20 -8 0 -57 11 -109 24 -131 32 -162 65
-126 134 19 37 79 83 102 78 10 -2 25 -17 33 -34 8 -18 37 -52 63 -77 66 -62
167 -87 353 -87 161 0 223 16 208 54 -6 14 -14 17 -43 12 -110 -20 -238 -24
-303 -11 -87 19 -190 90 -213 148 -15 36 -14 41 1 58 10 11 31 19 49 19 44 0
95 19 95 36 0 18 -32 34 -68 34 -44 0 -57 21 -32 53 11 14 30 29 41 32 11 4
27 24 35 45 14 34 26 43 119 89 112 55 135 59 275 43 63 -8 67 -10 137 -76 91
-86 103 -115 99 -244 -3 -110 -23 -164 -71 -182 -28 -11 -34 -40 -7 -40 38 1
97 55 134 125 21 39 38 80 38 92 0 12 11 35 25 51 30 36 33 56 6 47 -16 -5
-21 1 -26 27 -4 18 -11 38 -16 44 -6 7 -5 22 1 38 5 15 17 56 25 92 18 77 21
84 40 84 11 0 13 -9 10 -32z m209 -24 c4 -10 -3 -23 -19 -36 -14 -11 -25 -30
-25 -44 0 -17 -5 -24 -20 -24 -23 0 -23 2 -10 52 6 21 21 44 33 53 27 19 33
19 41 -1z m82 -5 c3 -6 2 -14 -3 -18 -6 -3 -15 -16 -22 -28 -6 -13 -20 -27
-31 -33 -31 -17 -36 13 -10 55 21 35 52 46 66 24z m42 -31 c-4 -29 -38 -38
-38 -10 0 22 8 32 27 32 9 0 13 -8 11 -22z m-2623 -17 c54 -7 58 -12 16 -23
-23 -6 -105 18 -109 32 -3 9 1 11 14 5 11 -4 46 -11 79 -14z m1400 -1 c3 -5 1
-10 -4 -10 -6 0 -11 5 -11 10 0 6 2 10 4 10 3 0 8 -4 11 -10z m55 -20 c0 -5
-7 -10 -16 -10 -8 0 -12 5 -9 10 3 6 10 10 16 10 5 0 9 -4 9 -10z m-169 -36
c7 -9 23 -20 36 -25 40 -15 26 -96 -26 -143 -21 -19 -21 -19 -21 1 0 11 7 26
15 33 17 14 20 40 6 40 -6 0 -13 -4 -16 -10 -10 -17 -25 -11 -25 10 0 13 -7
20 -20 20 -26 0 -26 24 1 61 23 33 31 35 50 13z m-1012 -10 c1 -1 0 -8 -4 -14
-5 -8 -20 -9 -44 -5 -44 8 -53 14 -46 26 5 8 83 2 94 -7z m2506 -29 c17 0 44
-10 59 -23 16 -12 39 -22 52 -22 12 0 36 -11 52 -25 17 -14 35 -25 41 -25 6 0
11 -4 11 -10 0 -5 16 -28 36 -50 35 -39 36 -42 32 -105 -3 -48 -10 -72 -26
-92 -54 -67 -76 -108 -102 -185 -22 -66 -32 -84 -51 -89 -13 -3 -46 -18 -73
-33 -27 -14 -55 -26 -61 -26 -7 0 -18 -7 -25 -15 -25 -30 -113 -13 -215 42
-59 32 -114 85 -156 150 -37 56 -43 74 -43 117 0 55 13 85 92 226 l47 85 45
-1 c25 0 53 -4 62 -8 24 -11 34 18 18 50 -15 28 -17 25 33 52 37 20 41 20 90
4 29 -9 66 -16 82 -17z m-253 0 c0 -14 -29 -31 -38 -22 -9 8 16 39 28 35 5 -2
10 -8 10 -13z m-1355 -52 c-3 -3 -11 -2 -17 2 -8 5 -7 11 2 22 12 15 13 14 16
-1 2 -10 1 -20 -1 -23z m-1154 -35 c31 -6 57 -14 57 -19 0 -23 -159 -6 -167
18 -5 14 36 14 110 1z m1227 -11 c0 -7 -10 -23 -22 -34 -13 -11 -30 -34 -39
-50 -10 -18 -27 -32 -43 -35 -40 -8 -33 14 26 77 51 54 78 68 78 42z m50 -99
c0 -12 -12 -24 -34 -33 -18 -8 -48 -26 -65 -41 -32 -27 -61 -27 -61 0 0 9 11
18 24 22 13 3 43 25 66 49 34 34 47 42 57 33 7 -6 13 -19 13 -30z m-255 -48
c29 -30 57 -110 46 -129 -10 -16 -118 -16 -184 0 -29 8 -72 26 -96 41 -25 15
-58 28 -74 28 -56 0 -20 23 70 45 51 12 102 28 113 36 33 22 93 12 125 -21z
m-5814 11 c13 -11 22 -21 19 -23 -3 -3 -59 -17 -125 -33 -116 -27 -298 -42
-455 -39 -85 2 -90 3 -90 17 0 8 13 11 44 9 24 -2 88 3 143 12 55 9 117 16
138 16 39 0 127 23 180 46 45 20 118 18 146 -5z m7987 -78 c35 -6 51 -20 30
-28 -18 -7 -91 20 -97 36 -2 8 2 10 15 5 11 -4 34 -10 52 -13z m-4 -55 c62
-17 61 -23 -4 -23 -51 0 -60 2 -60 17 0 21 9 22 64 6z m91 -38 c3 -5 1 -10 -4
-10 -6 0 -11 5 -11 10 0 6 2 10 4 10 3 0 8 -4 11 -10z m-120 -30 c-3 -5 -11
-10 -16 -10 -6 0 -7 5 -4 10 3 6 11 10 16 10 6 0 7 -4 4 -10z m495 -496 c17 3
30 1 30 -4 0 -15 -62 -50 -89 -50 -13 0 -36 -11 -52 -25 -34 -28 -56 -24 -70
13 -16 43 11 70 73 74 29 2 59 -1 66 -6 6 -5 26 -6 42 -2z m-934 -25 c53 -14
47 -28 -21 -48 -88 -26 -201 14 -133 47 30 14 98 15 154 1z m664 -19 c25 -17
-46 -72 -83 -65 -16 3 -38 0 -49 -6 -41 -22 -40 7 2 44 31 29 48 37 78 37 20
0 44 -5 52 -10z m-410 -18 c0 -10 5 -12 18 -6 32 15 146 16 165 2 17 -13 15
-16 -27 -36 -44 -22 -46 -22 -98 -7 -29 9 -62 20 -73 24 -13 6 -25 4 -33 -5
-19 -20 -152 -19 -152 1 0 25 47 40 125 41 59 1 75 -2 75 -14z m-452 -60 c3
-9 -3 -13 -19 -10 -12 1 -24 9 -27 16 -3 9 3 13 19 10 12 -1 24 -9 27 -16z
m168 -29 c-10 -10 -19 5 -10 18 6 11 8 11 12 0 2 -7 1 -15 -2 -18z m-455 3
c-13 -15 -71 -19 -71 -5 0 10 20 17 54 18 24 1 26 -1 17 -13z m504 4 c3 -5 -1
-10 -9 -10 -9 0 -16 5 -16 10 0 6 4 10 9 10 6 0 13 -4 16 -10z m-290 -29 c0
-18 -97 -41 -133 -32 -67 18 -9 51 83 48 36 -1 50 -6 50 -16z m1105 -1 c-8 -5
-24 -10 -35 -10 -11 0 -27 5 -35 10 -11 7 -1 10 35 10 36 0 46 -3 35 -10z
m-360 -14 c0 -2 -9 -6 -20 -9 -11 -3 -20 -1 -20 4 0 5 9 9 20 9 11 0 20 -2 20
-4z m-1103 -22 c8 -21 -7 -46 -38 -61 -28 -14 -119 -6 -119 11 0 6 14 23 32
38 39 33 114 40 125 12z m573 2 c0 -20 -61 -38 -112 -34 -54 5 -59 30 -8 39
68 12 120 10 120 -5z m-423 -27 c46 -14 48 -24 9 -48 -33 -21 -72 -26 -113
-15 -30 8 -29 20 7 56 21 21 36 28 48 23 9 -4 31 -11 49 -16z m606 4 c11 -10
-47 -41 -83 -45 -19 -1 -35 2 -37 8 -7 22 102 56 120 37z m650 -48 c-13 -17
-28 -24 -52 -25 -19 0 -43 -7 -53 -17 -15 -13 -18 -14 -18 -1 0 33 53 64 113
67 28 1 28 1 10 -24z m137 5 c0 -14 -9 -21 -34 -26 -53 -9 -63 0 -25 23 43 27
59 28 59 3z m-1185 -4 c73 -15 83 -36 24 -54 -42 -13 -143 -8 -170 8 -24 15
29 59 71 59 8 0 42 -6 75 -13z m815 1 c0 -8 -9 -22 -20 -32 -16 -14 -26 -16
-52 -9 l-32 9 24 23 c26 24 80 30 80 9z m-5890 -20 c14 -4 28 -37 15 -37 -3 0
-61 -11 -128 -24 -67 -13 -131 -23 -142 -23 -11 0 -55 -3 -97 -8 -51 -5 -78
-4 -78 3 0 10 11 13 144 32 71 10 154 36 196 61 13 8 44 6 90 -4z m5317 -34
c3 -6 -10 -19 -27 -28 -37 -19 -105 -17 -105 4 0 30 123 53 132 24z m-579 -6
c22 -13 22 -14 5 -29 -23 -20 -126 -58 -157 -58 -13 0 -29 7 -36 15 -15 18 -2
31 65 65 45 23 89 25 123 7z m-4599 -16 c48 -13 -6 -31 -229 -75 -185 -36
-205 -38 -233 -25 -38 17 -34 27 16 33 89 11 114 15 182 25 39 6 99 19 135 30
71 20 92 23 129 12z m4796 -24 c22 -17 12 -37 -17 -37 -12 0 -32 -9 -43 -20
-20 -19 -28 -20 -85 -11 -34 6 -65 12 -67 15 -9 9 8 26 26 26 10 0 26 9 36 20
14 16 31 20 75 20 31 0 64 -6 75 -13z m755 -21 c0 -19 -20 -25 -50 -14 -20 7
-22 11 -10 18 23 15 60 12 60 -4z m412 -18 c-12 -12 -83 -14 -101 -4 -23 14
-2 21 54 18 39 -3 54 -7 47 -14z m-192 3 c0 -6 -4 -12 -9 -15 -13 -8 -42 4
-35 15 7 12 44 12 44 0z m-788 -43 c21 -23 38 -43 38 -46 0 -5 -101 5 -138 15
-31 7 -26 43 8 60 39 20 50 16 92 -29z m-634 -6 c4 -12 -78 -54 -133 -68 -22
-5 -25 -3 -25 20 0 38 51 67 109 64 25 -2 46 -9 49 -16z m798 -7 c-22 -17 -52
-20 -60 -6 -9 14 5 21 43 21 34 -1 35 -2 17 -15z m182 -31 c12 -8 20 -19 17
-24 -9 -14 -93 -22 -115 -10 -21 11 -21 12 -4 31 21 23 71 25 102 3z m242 -34
c0 -5 -9 -10 -21 -10 -11 0 -17 5 -14 10 3 6 13 10 21 10 8 0 14 -4 14 -10z
m230 2 c0 -9 -44 -32 -60 -32 -18 0 -10 17 13 28 27 13 47 15 47 4z m-1108
-13 c14 -8 23 -8 31 0 15 15 72 14 86 -2 8 -11 5 -13 -20 -9 -19 3 -36 -2 -49
-13 -32 -29 -160 -33 -160 -5 0 12 50 39 73 40 10 0 28 -5 39 -11z m1266 4
c18 -4 20 -8 10 -14 -22 -14 -94 -10 -108 6 -11 13 -6 15 31 15 24 0 55 -3 67
-7z m-969 -29 c38 -8 40 -26 5 -49 -22 -14 -31 -15 -55 -5 -16 7 -42 10 -58 7
-38 -8 -59 14 -36 37 17 17 85 21 144 10z m205 -25 l25 -12 -26 -26 c-23 -23
-31 -26 -81 -21 -31 3 -57 10 -58 15 -5 15 57 53 88 54 15 1 38 -4 52 -10z
m-630 -19 c11 0 28 -5 36 -10 13 -8 13 -11 -1 -25 -20 -20 -144 -24 -162 -5
-9 9 -9 14 -1 17 6 2 20 10 30 18 11 9 30 13 48 10 16 -3 38 -5 50 -5z m826
-20 c0 -5 -11 -10 -25 -10 -14 0 -37 -7 -50 -16 -13 -8 -36 -14 -52 -12 l-28
3 35 23 c36 23 120 31 120 12z m218 -12 c-11 -33 -112 -54 -129 -26 -5 8 2 16
24 24 45 16 110 17 105 2z m-812 -26 c21 -4 37 -12 34 -17 -6 -12 -142 -7
-154 6 -13 12 56 40 70 28 6 -5 28 -12 50 -17z m1022 4 c6 -29 -10 -37 -51
-25 -42 11 -44 16 -19 35 24 19 66 13 70 -10z m-728 -36 c0 -22 -34 -45 -52
-34 -6 4 -25 7 -42 8 -20 1 -31 6 -31 16 0 11 15 17 55 21 30 3 58 6 63 7 4 1
7 -7 7 -18z m-420 -38 l23 -18 -46 -27 c-34 -20 -59 -27 -99 -27 -111 0 -129
26 -45 64 65 30 136 33 167 8z m1140 -1 c0 -11 -54 -19 -86 -13 -44 8 -25 22
31 22 30 0 55 -4 55 -9z m-525 -11 c3 -5 -3 -10 -14 -10 -12 0 -21 5 -21 10 0
6 6 10 14 10 8 0 18 -4 21 -10z m-380 -24 l50 -13 -55 -25 c-47 -22 -67 -26
-133 -23 -43 1 -80 5 -83 8 -12 12 7 25 46 31 22 3 43 13 46 21 8 19 61 19
129 1z m263 -44 c5 -17 -33 -32 -75 -30 -21 1 -53 -2 -70 -7 -49 -11 -42 12 9
35 45 20 129 21 136 2z m-686 -18 c4 -3 8 -11 8 -18 0 -14 -29 -29 -100 -53
-25 -8 -52 -21 -60 -28 -8 -7 -37 -13 -63 -13 -42 1 -50 5 -63 29 -13 27 -13
29 8 42 13 8 39 24 58 36 31 20 43 21 120 16 46 -4 88 -9 92 -11z m818 -14 c0
-13 -7 -20 -19 -20 -27 0 -35 17 -14 29 26 15 33 13 33 -9z m110 -5 c-1 -13
-48 -26 -56 -14 -3 5 -2 14 1 20 8 13 56 8 55 -6z m159 6 c48 -13 33 -28 -31
-33 -58 -5 -88 3 -88 22 0 17 74 24 119 11z m81 -17 c0 -8 -5 -12 -10 -9 -6 4
-8 11 -5 16 9 14 15 11 15 -7z m217 0 c6 -18 -100 -28 -142 -14 -19 6 -33 16
-29 21 8 14 166 7 171 -7z m-7292 -14 c3 -5 1 -10 -4 -10 -6 0 -11 5 -11 10 0
6 2 10 4 10 3 0 8 -4 11 -10z m6144 -6 c11 -10 -12 -34 -32 -34 -13 0 -32 -9
-42 -20 -15 -17 -95 -38 -119 -32 -5 2 -34 4 -64 6 -31 2 -58 8 -60 14 -4 14
40 37 110 55 54 14 57 14 84 -9 38 -31 44 -30 44 5 0 29 1 30 38 24 20 -3 39
-7 41 -9z m221 -39 c0 -9 -11 -20 -25 -25 -14 -5 -25 -14 -25 -19 0 -5 -9 -13
-20 -16 -24 -8 -100 3 -100 14 0 4 23 19 52 34 59 30 118 36 118 12z m225 -6
c6 0 21 3 35 6 15 4 33 0 44 -8 19 -14 18 -15 -14 -32 -75 -39 -201 -51 -250
-24 -15 8 -17 7 95 52 22 8 49 13 60 11 11 -3 25 -5 30 -5z m-6110 -19 c4 -6
-7 -10 -24 -10 -17 0 -31 5 -31 10 0 6 11 10 24 10 14 0 28 -4 31 -10z m3155
0 c0 -5 -2 -10 -4 -10 -3 0 -8 5 -11 10 -3 6 -1 10 4 10 6 0 11 -4 11 -10z
m-3073 -6 c-3 -3 -12 -4 -19 -1 -8 3 -5 6 6 6 11 1 17 -2 13 -5z m133 -10 c0
-2 -9 -4 -21 -4 -11 0 -18 4 -14 10 5 8 35 3 35 -6z m6148 6 c26 0 30 -26 5
-34 -27 -9 -142 -5 -148 5 -10 15 49 39 85 34 19 -3 45 -5 58 -5z m123 -15 c0
-5 -9 -11 -21 -13 -20 -3 -27 8 -13 22 10 9 34 3 34 -9z m284 5 c17 -6 15 -8
-15 -13 -63 -11 -162 -15 -196 -10 -65 11 -33 22 69 26 56 1 107 3 112 4 6 1
19 -2 30 -7z m-1396 -41 l34 -12 -22 -19 c-38 -30 -131 -21 -131 13 0 11 -4
19 -10 19 -5 0 -10 -9 -10 -20 0 -15 -7 -20 -25 -20 -32 0 -31 4 4 39 27 26
33 28 77 20 27 -4 64 -13 83 -20z m-4709 17 c0 -3 -4 -8 -10 -11 -5 -3 -10 -1
-10 4 0 6 5 11 10 11 6 0 10 -2 10 -4z m4975 -46 c57 0 72 -13 33 -26 -28 -10
-168 -11 -168 -2 0 4 15 18 32 32 27 21 34 23 41 11 5 -10 25 -15 62 -15z
m274 -26 c31 -10 -9 -27 -63 -26 -65 0 -82 8 -66 27 11 13 87 12 129 -1z m846
-3 c8 -14 -6 -20 -61 -27 -110 -13 -226 -16 -237 -5 -6 6 -9 13 -6 15 2 2 64
6 136 8 73 3 136 7 140 11 9 10 21 9 28 -2z m-589 -10 c-7 -11 -73 -21 -92
-14 -13 5 -13 7 -2 14 17 11 101 11 94 0z m184 -6 c7 -8 8 -15 2 -15 -5 0 -24
-3 -41 -6 -24 -5 -31 -3 -31 9 0 28 50 36 70 12z m80 -10 c0 -9 -6 -12 -15 -9
-8 4 -15 10 -15 15 0 5 7 9 15 9 8 0 15 -7 15 -15z m-959 -25 c42 -12 111 -21
194 -25 77 -4 75 -3 75 -14 0 -5 -17 -15 -37 -23 -49 -19 -184 -17 -318 5 -55
9 -120 17 -145 17 -26 0 -52 6 -59 13 -25 25 215 48 290 27z m533 -40 c5 -5
-3 -11 -20 -15 -16 -3 -47 -10 -69 -16 -56 -15 -87 -16 -92 -3 -4 11 51 36
102 48 24 5 67 -2 79 -14z m180 -37 c-23 -17 -55 -17 -79 1 -21 15 -18 16 75
30 23 3 25 -15 4 -31z m191 17 c7 -12 -40 -25 -55 -15 -9 6 -9 10 1 16 19 12
46 11 54 -1z m155 0 c0 -5 -2 -10 -4 -10 -3 0 -8 5 -11 10 -3 6 -1 10 4 10 6
0 11 -4 11 -10z m-2671 -86 c42 -10 99 -15 170 -13 58 2 111 0 118 -4 7 -4 47
-9 90 -11 43 -2 102 -7 132 -12 49 -6 52 -8 36 -20 -11 -8 -26 -14 -35 -14 -9
0 -25 -7 -36 -15 -16 -13 -17 -16 -4 -25 21 -15 97 -6 120 15 14 12 23 14 37
6 11 -5 44 -7 76 -4 52 5 58 4 86 -24 26 -27 29 -36 25 -69 -10 -66 -5 -64
-101 -59 -137 8 -315 41 -379 72 -17 8 -35 13 -40 12 -13 -4 -112 19 -135 32
-11 6 -41 14 -67 19 -134 25 -173 38 -217 74 -25 21 -45 40 -45 44 0 14 106
11 169 -4z m2661 -2 c0 -10 -107 -8 -117 1 -3 4 21 7 55 7 34 0 62 -4 62 -8z"/>
<path d="M3712 5948 c-6 -6 -12 -20 -12 -30 0 -10 -9 -27 -20 -38 -24 -24 -26
-53 -5 -70 24 -20 55 -3 55 30 0 20 6 31 21 35 29 9 24 79 -6 83 -11 1 -26 -3
-33 -10z"/>
<path d="M5170 5976 c-21 -27 2 -49 51 -49 35 0 45 4 48 18 7 38 -72 62 -99
31z"/>
<path d="M5183 5858 c-35 -7 -43 -14 -48 -38 -10 -44 9 -70 50 -70 43 0 65 22
65 64 0 45 -15 55 -67 44z"/>
<path d="M5438 5848 c-33 -12 -36 -40 -8 -68 26 -26 51 -25 84 1 63 50 8 98
-76 67z"/>
<path d="M5296 5678 c-21 -30 0 -63 40 -63 33 0 40 18 25 58 -13 33 -44 35
-65 5z"/>
<path d="M5270 5575 c-30 -37 25 -62 62 -29 17 16 17 18 0 30 -23 18 -47 17
-62 -1z"/>
<path d="M4516 5468 c-12 -17 -24 -22 -51 -19 -31 2 -35 0 -35 -22 0 -27 23
-51 59 -62 18 -6 29 -1 52 25 48 52 52 66 27 84 -29 21 -34 20 -52 -6z"/>
<path d="M9580 2648 c21 -20 202 -63 226 -54 18 7 18 8 1 17 -20 12 -133 38
-197 46 -39 5 -43 4 -30 -9z"/>
<path d="M9845 2600 c3 -5 8 -10 11 -10 2 0 4 5 4 10 0 6 -5 10 -11 10 -5 0
-7 -4 -4 -10z"/>
<path d="M9610 4601 c-39 -9 -80 -41 -80 -62 0 -23 19 -24 67 -4 46 20 50 19
28 -5 -23 -25 -5 -50 35 -50 35 0 102 73 98 105 -3 17 -11 20 -63 21 -33 1
-71 -2 -85 -5z"/>
<path d="M9243 4458 c-13 -17 10 -74 36 -88 26 -13 71 4 71 27 0 20 -61 73
-83 73 -8 0 -19 -6 -24 -12z"/>
<path d="M7667 4486 c-15 -12 -16 -18 -7 -35 6 -12 17 -21 25 -21 19 0 37 34
29 54 -7 19 -23 20 -47 2z"/>
<path d="M7972 4484 c-33 -23 -27 -68 10 -72 20 -2 31 3 43 22 33 50 -4 85
-53 50z"/>
<path d="M7741 4371 c-39 -39 -19 -70 35 -57 21 6 25 12 22 39 -4 39 -28 47
-57 18z"/>
<path d="M7746 4261 c-14 -15 -14 -20 -3 -30 12 -9 18 -6 31 13 9 14 16 28 16
31 0 12 -28 4 -44 -14z"/>
<path d="M8353 4452 c-12 -7 -16 -25 -14 -55 2 -27 55 -19 59 9 3 23 -28 56
-45 46z"/>
<path d="M8602 4358 c-26 -26 -9 -68 28 -68 15 0 22 38 10 60 -12 23 -21 25
-38 8z"/>
<path d="M8330 4162 c-13 -11 -23 -33 -27 -59 -5 -39 -4 -42 22 -49 36 -9 54
3 72 49 15 36 14 38 -8 57 -30 24 -32 24 -59 2z"/>
<path d="M9561 3756 c-7 -8 -11 -30 -9 -48 3 -29 6 -33 33 -33 37 0 67 44 49
72 -14 23 -57 28 -73 9z"/>
<path d="M10700 3555 c-9 -23 -7 -30 12 -46 26 -21 86 -44 95 -35 11 11 -9 52
-36 73 -47 37 -60 38 -71 8z"/>
<path d="M10357 3536 c-32 -30 -34 -56 -8 -81 19 -16 21 -16 45 10 31 33 32
45 8 75 l-17 22 -28 -26z"/>
<path d="M10610 3428 c-25 -41 -25 -55 -1 -68 27 -14 37 -13 55 6 30 29 15 94
-21 94 -7 0 -22 -15 -33 -32z"/>
<path d="M10390 3295 c-14 -17 -10 -47 7 -52 15 -5 47 42 38 57 -9 14 -31 12
-45 -5z"/>
<path d="M10366 3181 c-15 -17 -15 -20 8 -44 29 -31 56 -34 79 -9 30 33 18 51
-44 65 -18 5 -31 1 -43 -12z"/>
<path d="M490 5471 c0 -12 6 -21 15 -21 8 0 15 4 15 9 0 5 -7 14 -15 21 -13
10 -15 9 -15 -9z"/>
<path d="M755 5408 c-16 -4 -102 -8 -190 -8 -145 -1 -203 -8 -179 -23 14 -8
350 0 442 11 112 12 133 32 31 30 -41 -1 -87 -5 -104 -10z"/>
<path d="M1415 5395 c-27 -8 -60 -15 -72 -15 -16 0 -23 -6 -23 -19 0 -18 3
-18 24 -7 14 7 67 13 123 14 113 2 156 9 150 25 -5 17 -145 18 -202 2z"/>
<path d="M1153 4758 c-35 -12 -42 -25 -18 -34 19 -8 98 19 103 34 5 15 -39 14
-85 0z"/>
<path d="M1010 4731 c0 -16 20 -23 46 -17 36 9 29 26 -11 26 -19 0 -35 -4 -35
-9z"/>
<path d="M822 4693 c2 -10 10 -18 18 -18 22 0 18 29 -3 33 -14 3 -18 -1 -15
-15z"/>
<path d="M11786 4361 c-10 -15 5 -41 23 -41 9 0 29 -7 45 -15 15 -8 44 -15 62
-15 19 0 34 -4 34 -9 0 -10 40 -23 170 -59 197 -53 237 -60 387 -67 202 -8
216 -10 245 -29 26 -17 27 -17 37 3 18 32 13 69 -11 85 -26 18 -83 20 -159 6
-64 -13 -221 0 -404 32 -142 24 -235 50 -329 89 -72 31 -91 35 -100 20z"/>
<path d="M12180 4141 c-19 -10 -55 -22 -80 -26 -25 -3 -90 -16 -145 -27 -183
-36 -489 -22 -683 33 -61 17 -76 18 -83 7 -20 -30 90 -78 181 -78 25 0 50 -4
56 -9 17 -17 108 -24 290 -24 149 1 196 5 265 22 46 12 123 28 170 35 132 23
182 51 131 73 -37 17 -61 15 -102 -6z"/>
<path d="M825 3861 c-39 -16 -221 -40 -334 -45 -62 -3 -115 -7 -117 -9 -3 -2
-1 -12 2 -22 7 -16 17 -17 113 -11 58 3 142 13 186 21 44 8 103 14 131 15 62
0 95 20 75 44 -15 18 -26 19 -56 7z"/>
<path d="M2238 3707 c-45 -8 -179 -25 -263 -33 -27 -2 -99 -9 -160 -14 -60 -6
-174 -11 -252 -11 -136 0 -180 -9 -131 -25 34 -11 293 -7 372 6 38 6 128 15
200 20 166 12 395 39 421 50 28 11 -132 17 -187 7z"/>
<path d="M1285 3650 c-10 -17 -4 -19 55 -22 36 -2 55 1 57 10 3 8 -8 12 -35
12 -22 0 -47 3 -55 6 -8 3 -18 0 -22 -6z"/>
<path d="M639 3510 c-24 -14 -178 -61 -213 -66 -17 -2 -62 -12 -101 -23 -38
-11 -94 -20 -122 -20 -73 -1 -67 -17 10 -26 94 -11 155 -7 232 12 63 16 74 17
110 4 75 -28 371 -8 382 25 6 18 -39 25 -114 19 -79 -7 -185 5 -190 21 -2 6
14 20 36 31 22 11 38 23 34 27 -9 9 -45 7 -64 -4z m-92 -76 c-3 -3 -12 -4 -19
-1 -8 3 -5 6 6 6 11 1 17 -2 13 -5z"/>
<path d="M11594 3509 c-9 -15 32 -46 71 -55 16 -4 43 -12 60 -19 90 -38 168
-65 173 -61 2 3 14 0 26 -6 20 -11 94 -26 161 -32 17 -1 41 -5 55 -8 107 -27
151 -30 296 -19 142 11 242 28 326 54 37 12 38 13 38 61 0 42 -2 47 -17 41
-134 -55 -240 -73 -475 -80 -215 -7 -337 12 -550 85 -159 56 -154 54 -164 39z"/>
<path d="M0 3229 l0 -30 73 1 c39 1 117 -3 172 -9 68 -7 112 -7 138 0 20 5 54
9 75 8 53 -3 86 9 72 26 -9 11 -44 12 -173 8 -128 -5 -178 -2 -241 11 -110 23
-116 22 -116 -15z"/>
<path d="M245 3120 c-8 -13 -9 -13 35 -27 36 -12 192 -5 206 10 16 16 -13 22
-121 25 -77 3 -115 0 -120 -8z"/>
<path d="M2210 3038 c-170 -52 -198 -58 -272 -58 -78 0 -96 10 -58 30 23 12
27 40 5 40 -8 0 -43 -15 -77 -34 -35 -18 -83 -37 -108 -40 -25 -4 -67 -18 -95
-31 -62 -31 -179 -64 -265 -76 -118 -16 -451 -29 -471 -19 -14 8 -21 6 -30 -8
-7 -11 -19 -18 -28 -16 -66 12 -91 12 -91 -1 0 -8 8 -19 19 -24 28 -15 442
-12 526 4 39 7 94 16 124 20 29 3 88 17 130 30 42 14 86 25 97 25 12 0 43 10
70 21 41 18 70 22 184 24 123 1 146 5 264 39 158 45 199 62 194 78 -7 20 -47
19 -118 -4z"/>
<path d="M2005 2880 c-27 -3 -72 -14 -100 -24 -46 -17 -75 -23 -210 -45 -27
-5 -75 -13 -105 -19 -95 -18 -242 -41 -335 -52 -49 -6 -121 -16 -160 -22 -38
-7 -90 -11 -114 -9 -44 2 -101 -14 -101 -29 0 -14 44 -18 95 -9 28 5 90 11
140 15 49 3 93 8 98 11 11 7 223 33 307 38 117 7 261 39 350 78 25 11 62 19
83 18 40 -1 137 35 137 50 0 10 -9 10 -85 -1z"/>
<path d="M4084 2329 c-10 -17 13 -36 27 -22 12 12 4 33 -11 33 -5 0 -12 -5
-16 -11z"/>
<path d="M302 2267 c-7 -8 -10 -21 -6 -30 5 -13 31 -15 192 -13 103 2 222 7
265 11 66 7 77 6 77 -7 0 -26 -28 -41 -65 -35 -25 4 -41 0 -60 -15 -23 -18
-40 -20 -175 -19 -82 0 -168 5 -191 11 -61 17 -123 -5 -71 -25 38 -15 373 -27
393 -14 7 4 23 3 37 -2 17 -6 51 -3 115 12 104 24 122 34 79 44 -21 4 -31 13
-35 31 -3 16 0 24 9 24 8 0 14 5 14 10 0 6 -29 10 -67 10 -149 0 -430 9 -464
15 -25 5 -39 3 -47 -8z"/>
<path d="M5545 2245 c-5 -2 -71 -17 -145 -33 -170 -38 -280 -56 -485 -82 -282
-35 -337 -40 -402 -40 -56 0 -73 -3 -73 -14 0 -21 119 -32 196 -17 34 6 95 11
137 11 42 0 88 5 103 10 14 6 47 12 73 13 25 2 52 6 58 10 17 10 132 36 213
47 36 5 79 14 95 19 17 6 71 18 120 26 110 20 165 35 165 47 0 8 -34 10 -55 3z"/>
<path d="M958 2149 c-3 -33 -5 -34 -63 -46 -153 -29 -208 -36 -268 -30 -41 4
-68 2 -75 -5 -8 -8 -19 -7 -41 1 -21 9 -35 10 -49 2 -19 -10 -158 -1 -180 13
-14 8 -35 -21 -28 -39 4 -13 37 -14 243 -9 295 7 288 6 458 44 77 17 149 29
159 26 20 -5 46 9 46 25 0 10 -86 35 -152 45 l-47 6 -3 -33z"/>
<path d="M5370 2124 c-36 -8 -85 -18 -110 -24 -25 -5 -85 -14 -135 -20 -49 -5
-117 -15 -150 -21 -33 -7 -73 -12 -90 -11 -69 0 -115 -9 -115 -24 0 -13 17
-15 128 -9 126 6 148 10 377 60 174 38 205 47 205 56 0 12 -32 10 -110 -7z"/>
<path d="M5535 2064 c-51 -14 -130 -27 -265 -44 -41 -5 -94 -14 -117 -20 -23
-5 -58 -10 -77 -10 -19 0 -38 -4 -41 -10 -8 -13 52 -13 124 0 31 5 101 14 156
20 98 11 251 46 269 62 18 14 1 15 -49 2z"/>
<path d="M5645 1999 c-71 -16 -182 -38 -245 -49 -63 -11 -134 -24 -158 -30
-23 -5 -66 -10 -95 -10 -72 0 -92 -15 -31 -24 80 -10 173 -7 211 9 19 8 49 15
65 15 28 0 275 56 361 82 21 6 46 17 55 24 15 12 15 13 -8 13 -14 0 -83 -14
-155 -30z"/>
<path d="M2800 1783 c-73 -5 -347 -50 -395 -64 -145 -43 -289 -78 -505 -119
-52 -10 -160 -33 -240 -50 -80 -17 -181 -33 -225 -37 -44 -3 -88 -10 -98 -15
-39 -20 -883 -7 -916 14 -14 9 -29 9 -53 1 -19 -5 -43 -6 -55 -2 -18 6 -95 12
-130 10 -17 -1 -17 -56 0 -68 6 -6 30 -14 52 -18 22 -4 51 -10 65 -13 14 -3
101 -6 194 -8 101 -1 178 -7 191 -14 14 -7 38 -8 78 -2 32 5 60 5 63 1 7 -12
175 -11 330 2 176 14 179 15 264 34 41 9 125 20 187 26 62 5 127 16 145 24 18
7 76 23 128 35 52 11 123 30 158 40 34 11 76 20 92 20 16 0 44 6 62 14 40 17
241 67 284 70 17 1 47 10 67 19 28 13 68 18 179 19 79 1 149 6 156 11 25 19 7
80 -22 75 -6 -1 -31 -3 -56 -5z m-2392 -328 c-3 -3 -9 2 -12 12 -6 14 -5 15 5
6 7 -7 10 -15 7 -18z"/>
<path d="M6708 1350 c17 -16 53 -39 82 -50 28 -11 59 -27 67 -35 8 -8 20 -15
27 -15 7 0 21 -9 31 -20 10 -11 23 -20 28 -20 6 0 22 -13 36 -28 14 -16 51
-39 81 -52 30 -12 72 -31 93 -42 36 -19 212 -78 230 -78 5 0 29 -18 54 -40 25
-22 52 -40 60 -40 19 0 139 -41 278 -95 61 -24 146 -48 190 -55 44 -7 113 -23
153 -36 40 -13 83 -24 97 -24 13 0 42 -7 63 -15 23 -9 115 -22 228 -30 104 -9
230 -20 279 -26 142 -16 526 -16 618 0 42 8 77 18 77 23 0 6 -11 7 -24 4 -14
-3 -49 -1 -78 5 -63 14 -49 22 52 33 160 16 250 30 250 39 0 6 -36 7 -92 3
-51 -4 -99 -2 -107 2 -21 15 0 21 75 23 97 2 384 44 479 70 44 12 109 30 145
39 40 11 65 23 65 31 0 24 -48 21 -163 -11 -62 -16 -123 -30 -136 -30 -13 0
-59 -9 -102 -19 -198 -48 -1152 -39 -1454 14 -47 8 -159 26 -250 40 -214 33
-344 54 -400 67 -25 5 -63 13 -85 18 -89 19 -154 40 -235 75 -47 20 -136 54
-199 76 -62 21 -134 50 -160 64 -25 13 -71 36 -101 50 -30 14 -89 45 -130 70
-52 30 -87 44 -113 44 l-39 1 30 -30z m43 4 c12 -14 11 -16 -5 -13 -11 2 -21
10 -24 17 -5 17 13 15 29 -4z m64 -35 c11 -17 -1 -21 -15 -4 -8 9 -8 15 -2 15
6 0 14 -5 17 -11z m2330 -549 c4 -6 -7 -10 -24 -10 -17 0 -31 5 -31 10 0 6 11
10 24 10 14 0 28 -4 31 -10z m305 0 c0 -5 -7 -10 -16 -10 -8 0 -12 5 -9 10 3
6 10 10 16 10 5 0 9 -4 9 -10z m-125 -10 c-3 -5 -10 -10 -16 -10 -5 0 -9 5 -9
10 0 6 7 10 16 10 8 0 12 -4 9 -10z m-10 -60 c4 -6 -30 -10 -92 -10 -54 0
-108 -3 -120 -6 -13 -4 -23 -2 -23 4 0 12 30 16 147 19 46 2 85 -2 88 -7z
m-255 -10 c0 -11 -50 -12 -130 0 -51 7 -49 7 38 9 55 0 92 -3 92 -9z"/>
<path d="M12745 1155 c-22 -14 -50 -25 -62 -25 -12 0 -24 -4 -27 -9 -10 -16
-181 -49 -296 -57 -63 -5 -182 -7 -265 -6 -135 2 -190 8 -368 43 -66 13 -69
12 -65 -13 3 -20 9 -23 43 -23 25 0 55 -9 77 -23 26 -16 62 -26 110 -31 67 -7
79 -11 148 -62 74 -53 78 -55 194 -74 111 -18 124 -18 195 -3 55 11 84 12 104
5 20 -6 41 -6 65 1 21 6 66 13 102 16 94 7 100 11 100 61 l0 43 -47 -5 c-27
-2 -75 -11 -108 -19 -135 -31 -408 -47 -475 -27 -25 8 -53 12 -62 9 -14 -3
-28 12 -28 30 0 3 39 5 88 4 162 -3 328 22 462 70 183 66 170 59 170 91 0 35
-4 35 -55 4z m-305 -235 c0 -5 -4 -10 -10 -10 -5 0 -10 5 -10 10 0 6 5 10 10
10 6 0 10 -4 10 -10z"/>
<path d="M11580 986 c0 -8 5 -18 10 -21 6 -3 10 3 10 14 0 12 -4 21 -10 21 -5
0 -10 -6 -10 -14z"/>
<path d="M11365 929 c-85 -27 -240 -41 -455 -41 -211 -1 -223 -2 -190 -16 54
-24 371 -38 480 -22 41 6 88 11 104 11 16 0 41 6 55 14 14 7 38 16 54 20 18 4
27 12 27 25 0 22 -24 25 -75 9z"/>
<path d="M7450 843 c0 -5 25 -17 56 -27 30 -10 84 -32 119 -51 35 -18 66 -30
69 -28 3 3 -11 15 -32 25 -20 11 -46 29 -58 39 -11 10 -40 23 -65 28 -24 5
-54 13 -66 16 -13 4 -23 3 -23 -2z"/>
<path d="M7717 725 c4 -20 9 -23 33 -19 21 5 32 0 47 -20 17 -21 26 -25 52
-20 17 4 37 2 44 -4 16 -13 134 -45 250 -68 107 -21 120 -41 22 -35 -54 3 -5
-16 85 -33 94 -18 281 -62 320 -75 22 -8 117 -37 283 -85 66 -20 144 -24 517
-30 268 -4 394 3 443 25 42 19 17 38 -46 34 -179 -12 -329 -14 -447 -5 -74 6
-180 13 -235 16 -55 3 -108 10 -118 16 -10 5 -42 14 -70 19 -29 5 -72 14 -97
19 -45 10 -199 38 -255 46 -16 3 -70 12 -120 19 -49 8 -105 16 -124 17 -19 2
-36 8 -38 14 -6 19 37 24 71 9 17 -8 85 -21 151 -30 66 -8 149 -19 185 -24
224 -34 602 -31 790 4 160 31 194 35 220 25 14 -5 54 -13 90 -19 36 -5 97 -17
135 -26 225 -53 469 -71 655 -47 194 24 216 28 242 46 27 18 177 58 190 50 3
-2 9 0 12 5 3 5 29 12 56 16 37 5 55 14 70 33 12 14 19 31 16 38 -3 8 0 11 8
8 23 -9 27 12 6 31 -21 19 -40 18 -140 -10 -60 -17 -419 -41 -454 -30 -11 3
-61 10 -111 15 -49 6 -112 12 -140 16 -45 5 -48 4 -32 -9 10 -9 62 -20 120
-27 56 -6 147 -19 202 -28 55 -9 135 -17 177 -17 45 0 78 -4 78 -10 1 -5 -10
-11 -22 -13 -13 -2 -52 -11 -88 -21 -162 -46 -309 -52 -564 -26 -81 9 -150 14
-154 11 -8 -4 -137 8 -267 25 -100 14 -179 13 -320 -2 -84 -9 -162 -9 -335 0
-124 7 -284 14 -355 17 -72 2 -146 9 -165 14 -19 6 -51 10 -70 10 -19 0 -66 7
-105 15 -38 8 -117 24 -175 36 -58 11 -125 25 -150 30 -25 6 -81 14 -125 19
-44 6 -91 14 -105 19 -26 10 -134 41 -143 41 -2 0 -2 -11 0 -25z"/>
<path d="M7678 703 c7 -3 16 -2 19 1 4 3 -2 6 -13 5 -11 0 -14 -3 -6 -6z"/>
<path d="M7800 639 c0 -4 7 -10 16 -13 24 -9 56 -7 50 3 -7 11 -66 20 -66 10z"/>
<path d="M8272 471 c-10 -6 -4 -10 18 -15 17 -3 43 -15 57 -26 14 -11 36 -20
50 -20 24 0 47 -7 328 -96 83 -26 200 -58 260 -71 61 -14 133 -30 160 -36 28
-6 89 -11 136 -11 l87 0 -16 -24 c-14 -22 -20 -24 -66 -17 -28 4 -60 6 -71 6
-11 0 -54 6 -95 13 -41 8 -97 18 -125 21 -27 4 -57 11 -66 16 -18 9 -122 34
-209 50 -30 5 -90 21 -132 36 -78 28 -105 26 -75 -4 13 -13 17 -14 17 -3 0 7
3 10 8 6 4 -4 7 -13 7 -19 0 -7 10 -13 23 -15 12 -2 22 -8 22 -13 0 -5 9 -9
20 -9 12 0 31 -7 43 -14 34 -23 274 -84 357 -91 41 -4 128 -18 194 -31 65 -13
122 -21 127 -18 14 8 50 -6 44 -17 -9 -14 -91 -11 -182 7 -52 11 -98 14 -127
10 -51 -8 -62 -26 -16 -26 17 0 30 -5 30 -11 0 -6 -9 -9 -20 -6 -11 3 -22 2
-25 -3 -8 -13 115 -32 199 -29 45 1 89 -2 99 -6 35 -15 189 1 242 25 60 26 83
36 109 44 21 7 11 25 -15 30 -8 1 -25 8 -38 15 -13 7 -59 15 -102 18 -67 5
-79 9 -79 24 0 28 11 29 106 13 95 -17 279 -13 298 6 5 5 30 10 54 10 35 0 43
-3 38 -15 -4 -10 1 -15 15 -15 15 0 19 5 15 15 -8 22 7 18 22 -5 12 -19 14
-19 42 -5 17 9 30 20 30 25 0 13 -17 13 -25 0 -3 -5 -13 -10 -22 -10 -15 0
-15 2 0 18 15 16 6 17 -161 17 -281 1 -488 20 -647 60 -38 10 -81 20 -95 21
-14 2 -54 10 -90 18 -36 8 -78 15 -95 16 -16 0 -82 14 -145 31 -63 17 -164 44
-225 60 -60 16 -123 34 -140 40 -39 14 -136 21 -153 10z"/>
<path d="M8990 49 c0 -5 5 -7 10 -4 6 3 10 8 10 11 0 2 -4 4 -10 4 -5 0 -10
-5 -10 -11z"/>
</g>
</svg>
