<?xml version="1.0" standalone="no"?>
<!DOCTYPE svg PUBLIC "-//W3C//DTD SVG 20010904//EN"
 "http://www.w3.org/TR/2001/REC-SVG-20010904/DTD/svg10.dtd">
<svg version="1.0" xmlns="http://www.w3.org/2000/svg"
 width="1280.000000pt" height="1036.000000pt" viewBox="0 0 1280.000000 1036.000000"
 preserveAspectRatio="xMidYMid meet">
<metadata>
Created by potrace 1.15, written by Peter Selinger 2001-2017
</metadata>
<g transform="translate(0.000000,1036.000000) scale(0.100000,-0.100000)"
fill="#000000" stroke="none">
<path d="M5050 10350 c0 -5 -14 -16 -30 -25 -42 -22 -210 -173 -363 -326 -94
-94 -135 -129 -153 -129 -21 0 -24 4 -24 38 1 35 26 186 49 296 6 26 8 52 5
58 -10 16 -33 -13 -45 -56 -6 -22 -35 -89 -65 -148 -36 -72 -57 -128 -64 -172
-5 -35 -21 -87 -34 -116 -13 -28 -32 -80 -42 -115 -13 -46 -25 -67 -41 -74
-24 -11 -79 -81 -95 -121 -5 -13 -24 -43 -42 -65 -18 -22 -43 -60 -56 -85 -13
-25 -40 -70 -61 -101 -21 -31 -51 -83 -67 -116 -29 -61 -61 -111 -142 -223
-26 -36 -79 -128 -119 -205 -39 -77 -87 -160 -106 -185 -138 -177 -549 -619
-585 -626 -73 -16 -403 -184 -505 -259 -109 -79 -184 -105 -301 -105 -43 1
-92 7 -109 14 l-30 12 116 115 c64 63 174 168 244 234 70 66 145 145 167 175
21 30 53 73 71 96 17 23 61 82 97 133 36 50 97 136 135 191 39 54 105 134 146
177 42 43 88 97 102 120 15 23 39 56 55 75 36 41 46 68 27 68 -8 0 -40 -33
-72 -72 -69 -87 -194 -220 -200 -214 -7 7 102 141 184 227 69 73 89 109 60
109 -16 0 -142 -136 -206 -222 -44 -59 -82 -88 -60 -45 20 38 101 138 172 213
90 93 103 114 73 114 -8 0 -27 -16 -42 -35 -31 -41 -79 -78 -95 -73 -6 2 13
34 41 70 55 71 71 129 39 136 -11 2 -40 -33 -90 -110 -79 -120 -174 -223 -342
-368 -95 -83 -134 -107 -307 -189 -47 -22 -118 -65 -158 -95 -40 -31 -93 -67
-116 -81 -24 -14 -64 -43 -88 -63 -23 -21 -61 -49 -83 -64 -22 -14 -82 -64
-134 -110 -52 -45 -122 -104 -156 -129 -33 -25 -92 -81 -130 -124 -39 -43 -96
-107 -127 -142 -32 -36 -58 -68 -58 -72 0 -4 -27 -27 -61 -52 -67 -48 -79 -64
-79 -104 0 -15 -13 -57 -29 -93 -16 -37 -34 -87 -41 -112 -6 -25 -23 -81 -36
-125 -23 -75 -24 -83 -11 -127 11 -36 12 -56 4 -87 -10 -36 -9 -44 9 -68 26
-35 68 -51 92 -37 9 6 34 9 55 6 32 -4 47 -15 95 -70 105 -123 127 -142 160
-142 18 0 43 11 62 27 28 23 39 26 98 24 58 -2 72 1 101 23 29 22 46 26 101
26 53 0 72 5 102 25 41 28 96 112 127 195 49 127 90 167 187 178 71 8 92 -2
104 -51 19 -72 61 -183 81 -216 22 -37 97 -87 154 -103 71 -19 247 20 311 71
39 31 74 26 145 -19 35 -23 76 -46 92 -53 38 -16 36 -35 -28 -272 -7 -27 -21
-83 -30 -124 -9 -40 -23 -88 -32 -105 -9 -17 -34 -83 -55 -146 -33 -98 -41
-138 -53 -272 -11 -121 -20 -168 -38 -210 -36 -80 -75 -206 -86 -273 -5 -33
-19 -105 -31 -159 -24 -114 -40 -288 -46 -501 -3 -82 -9 -164 -14 -180 -7 -20
-6 -42 0 -65 12 -40 16 -491 5 -627 -4 -48 -13 -113 -20 -143 -8 -30 -17 -82
-20 -115 -4 -33 -17 -96 -30 -140 -35 -118 -54 -189 -82 -300 -14 -55 -36
-129 -49 -165 -13 -36 -27 -100 -33 -143 -8 -71 -13 -82 -50 -122 -23 -25 -41
-54 -41 -66 0 -19 4 -20 35 -15 23 5 35 3 35 -4 0 -16 -27 -67 -60 -111 -15
-21 -32 -51 -39 -66 -6 -15 -39 -50 -74 -78 -85 -69 -124 -110 -149 -159 -11
-22 -88 -108 -170 -190 -137 -137 -208 -217 -313 -357 -40 -52 -79 -97 -154
-174 -65 -67 -219 -255 -284 -348 -190 -271 -224 -308 -322 -356 -57 -28 -97
-60 -219 -180 -97 -95 -151 -141 -154 -132 -3 10 -8 9 -16 -6 -15 -29 -304
-269 -381 -318 -35 -22 -67 -43 -71 -47 -4 -5 31 -8 78 -8 l85 0 89 69 c72 57
185 160 239 220 16 18 199 191 202 191 6 0 123 92 128 101 4 5 14 9 23 9 23 0
200 161 253 229 23 30 71 97 107 150 78 116 94 135 247 311 66 75 133 153 149
171 16 19 59 68 94 109 36 41 84 93 106 115 23 22 96 102 163 177 142 158 193
202 260 227 51 18 125 67 208 137 83 69 126 94 160 94 26 0 40 9 70 43 20 23
60 67 89 97 28 30 73 85 100 123 28 37 56 67 63 67 7 0 19 14 28 30 9 17 19
30 23 30 13 0 106 90 100 96 -10 10 -61 -23 -117 -75 -30 -28 -58 -51 -63 -51
-5 0 -16 17 -24 37 -15 34 -15 37 4 52 35 28 123 135 143 173 23 44 46 59 99
61 28 1 36 4 30 13 -12 13 -3 24 20 24 28 0 68 38 93 88 18 37 30 48 55 53 17
3 42 16 54 27 53 48 111 92 122 92 7 0 34 11 59 25 26 13 48 21 51 16 13 -21
-247 -281 -281 -281 -11 0 -38 -13 -60 -29 -52 -38 -173 -177 -173 -199 0 -12
6 -8 20 13 51 77 198 200 217 181 3 -3 -26 -48 -65 -100 -40 -52 -68 -98 -63
-101 11 -6 118 118 137 160 13 30 82 105 179 198 28 26 64 62 81 79 81 86 296
280 349 313 68 44 235 207 235 230 0 12 6 15 20 10 16 -5 20 -2 20 14 0 38
-18 27 -156 -99 -309 -281 -374 -333 -374 -302 0 4 20 25 45 45 38 32 43 41
35 57 -17 32 -12 37 66 79 93 51 132 86 140 128 7 40 15 46 84 72 39 15 75 40
126 90 76 74 134 101 216 101 52 0 48 -17 -13 -64 -28 -22 -74 -68 -101 -103
-27 -34 -54 -63 -59 -63 -10 0 -59 -51 -59 -62 0 -4 27 11 60 33 33 22 60 45
60 52 0 7 10 17 22 22 12 6 25 21 28 35 4 15 31 44 72 75 36 28 106 91 154
141 49 50 129 128 178 173 48 45 86 84 83 88 -8 7 -113 -83 -231 -199 -82 -81
-101 -96 -116 -88 -10 6 -27 7 -37 4 -10 -3 0 10 22 30 40 35 42 47 5 24 -26
-16 -36 -4 -22 27 10 22 18 25 60 25 46 0 49 2 130 83 82 83 101 114 61 104
-15 -4 -19 -1 -17 11 4 23 55 47 71 34 9 -8 40 13 111 74 54 46 101 84 105 84
4 0 37 28 73 63 62 58 67 66 70 111 l3 48 60 22 c82 30 145 75 189 136 22 30
77 81 139 126 109 81 287 241 287 257 0 6 -8 3 -18 -6 -21 -19 -32 -14 -25 12
2 10 19 23 38 30 49 17 110 89 118 138 5 32 16 48 51 77 42 34 45 41 48 89 2
41 7 53 22 55 35 7 39 -14 11 -67 -14 -29 -23 -56 -20 -61 4 -6 24 -10 46 -10
37 0 40 -2 34 -21 -6 -18 5 -12 54 25 48 37 61 53 61 74 1 34 138 197 184 219
17 8 49 25 71 38 22 14 51 29 65 35 14 6 91 78 171 160 81 81 154 152 162 156
14 9 55 41 136 109 20 17 50 39 66 50 17 10 64 46 105 80 41 34 107 83 145
110 39 27 84 60 100 75 29 26 83 59 259 157 79 44 103 62 247 177 88 71 269
246 269 261 0 12 46 61 87 91 118 88 499 343 576 386 6 4 66 37 132 73 128 72
182 113 304 236 60 60 103 92 192 141 147 82 182 107 357 258 79 69 192 162
251 208 58 46 148 128 200 183 51 55 107 107 125 116 17 9 65 48 106 88 41 40
90 80 108 89 18 9 38 28 44 41 6 14 22 32 35 40 12 9 23 24 23 35 0 23 16 35
24 18 3 -7 3 -3 1 9 -3 12 -1 24 5 28 5 3 10 1 10 -6 0 -8 6 -6 18 4 10 10 25
17 33 17 15 0 129 114 129 129 0 4 18 15 40 24 27 10 41 23 46 41 4 18 13 26
28 26 13 0 31 12 44 30 34 45 3 39 -64 -12 -30 -24 -77 -59 -104 -78 -62 -45
-226 -180 -318 -261 -39 -35 -106 -93 -148 -129 -166 -141 -200 -172 -215
-198 -8 -15 -38 -41 -65 -58 -27 -17 -58 -40 -69 -50 -12 -11 -53 -43 -92 -72
-70 -52 -133 -114 -133 -131 0 -5 -9 -7 -19 -4 -14 4 -24 -4 -36 -27 -11 -21
-20 -29 -24 -21 -5 8 -18 2 -42 -19 -59 -52 -169 -130 -205 -145 -19 -8 -34
-19 -34 -24 0 -6 -15 -17 -32 -26 -99 -45 -225 -129 -283 -189 -17 -17 -64
-56 -104 -86 -40 -30 -80 -63 -90 -73 -9 -10 -29 -25 -46 -33 -16 -8 -48 -28
-70 -44 -44 -33 -105 -75 -146 -100 -14 -8 -56 -36 -95 -61 -38 -25 -117 -76
-176 -113 -187 -117 -438 -337 -480 -419 -27 -53 -200 -199 -334 -282 -114
-70 -225 -148 -334 -233 -19 -16 -80 -59 -135 -96 -55 -38 -116 -83 -135 -101
-19 -17 -65 -53 -102 -79 -37 -26 -109 -87 -160 -136 -95 -92 -125 -108 -172
-90 -34 13 -193 13 -201 0 -12 -19 -99 -51 -125 -45 -30 6 -340 14 -640 15
-189 2 -226 5 -310 25 -52 13 -122 29 -155 36 -75 15 -167 62 -204 105 -16 17
-53 74 -83 126 -52 89 -87 148 -135 227 -12 20 -36 63 -53 95 -66 123 -208
245 -384 329 -117 56 -327 118 -385 114 -43 -3 -33 20 16 37 144 51 194 56
515 52 280 -3 306 -2 326 14 12 10 22 28 22 40 l0 22 -167 -6 c-93 -3 -206 -9
-253 -12 -71 -5 -88 -3 -99 10 -7 8 -10 20 -6 26 10 16 88 48 155 65 105 26
246 90 265 119 24 38 -21 25 -101 -29 -20 -14 -46 -25 -58 -25 -12 -1 -39 -8
-61 -16 -22 -8 -84 -26 -138 -39 -107 -27 -149 -45 -187 -81 -14 -13 -89 -50
-166 -83 -137 -58 -234 -84 -234 -64 0 14 112 63 143 63 33 0 133 37 172 63
45 30 95 79 95 93 0 14 -23 24 -56 24 -13 0 -60 -13 -104 -29 l-80 -30 -20 39
c-19 37 -21 38 -49 29 -16 -6 -77 -55 -134 -110 l-105 -99 -59 40 c-109 72
-117 99 -36 119 26 7 66 21 88 31 61 29 388 136 502 164 56 15 119 26 140 26
21 0 54 5 74 10 20 6 97 21 170 34 74 13 154 32 179 41 25 9 81 28 125 42 44
13 91 32 105 41 14 9 58 32 97 52 84 43 223 170 291 266 24 34 67 86 95 115
68 70 90 103 111 163 29 88 18 195 -36 360 -16 49 -27 95 -24 103 10 25 156
83 259 104 57 11 133 18 176 17 109 -2 256 17 293 39 18 10 41 33 51 52 16 27
18 37 8 58 -10 22 -17 25 -51 21 -22 -2 -40 -2 -40 -1 0 7 89 46 157 68 90 30
127 58 112 86 -14 27 -117 25 -253 -6 -60 -14 -111 -23 -113 -21 -6 6 269 176
284 176 8 0 18 12 24 27 8 20 6 30 -5 41 -24 24 -103 1 -267 -79 -139 -68
-351 -149 -390 -149 -26 0 -24 22 7 95 35 83 63 167 64 188 0 11 -8 17 -23 17
-25 0 -64 -42 -105 -113 -12 -21 -57 -81 -99 -133 -43 -52 -97 -123 -120 -156
-57 -83 -124 -149 -218 -216 -44 -31 -107 -76 -140 -99 -33 -24 -89 -61 -125
-83 -88 -55 -155 -103 -453 -327 -141 -106 -262 -193 -269 -193 -7 0 11 24 39
53 58 57 159 209 202 302 41 87 121 327 121 363 0 17 8 44 17 60 17 30 17 33
-11 117 -15 48 -42 109 -59 137 l-31 50 67 60 c37 33 67 66 67 74 0 8 3 14 8
14 4 0 31 21 60 46 46 41 52 50 52 85 0 30 8 50 32 80 17 21 37 39 43 39 7 0
29 21 50 46 21 25 60 69 87 97 67 69 84 95 71 108 -13 13 -78 -18 -107 -50
-11 -12 -29 -21 -41 -21 -18 0 0 23 91 118 98 101 112 119 98 129 -22 16 -47
5 -41 -19 4 -14 -23 -43 -111 -121 -64 -56 -131 -113 -150 -127 -34 -27 -222
-229 -222 -240 0 -3 6 -15 14 -25 12 -17 19 -13 98 62 111 104 226 196 237
188 11 -6 -159 -178 -240 -242 -33 -25 -69 -61 -80 -80 -11 -18 -25 -33 -30
-33 -6 0 -56 -45 -111 -100 -56 -55 -96 -100 -89 -100 25 0 182 123 207 162
24 38 43 45 52 19 4 -13 -183 -198 -229 -225 -28 -17 -29 -17 -75 26 -65 59
-79 95 -57 145 9 21 20 58 24 83 4 25 19 77 33 115 15 39 33 112 42 164 14 86
27 131 39 131 2 0 2 -35 -2 -79 -3 -44 -2 -81 3 -84 17 -10 108 44 164 97 30
29 113 110 184 180 117 114 156 143 156 117 0 -13 -29 -45 -76 -84 -23 -18
-64 -60 -90 -93 -26 -32 -76 -87 -110 -120 -34 -34 -70 -76 -78 -93 -16 -30
-16 -31 3 -31 19 0 118 77 255 197 39 35 99 84 134 110 35 27 56 49 48 51 -15
3 -94 -51 -160 -109 -36 -32 -86 -59 -86 -46 0 2 70 75 155 162 85 87 155 159
155 162 0 2 -5 13 -10 24 -11 20 -40 27 -40 9z m1275 -869 c-3 -6 -25 -21 -48
-33 -23 -11 -73 -42 -112 -69 -82 -55 -236 -133 -315 -159 -32 -10 -55 -23
-55 -31 0 -8 8 -13 20 -11 56 7 150 26 240 47 194 47 291 63 282 48 -4 -6 -35
-20 -69 -32 -35 -12 -77 -29 -94 -38 -17 -9 -89 -32 -160 -52 -91 -26 -129
-41 -129 -51 0 -22 68 -24 209 -6 149 19 136 20 136 -3 0 -22 -13 -26 -130
-40 -72 -9 -194 -13 -315 -10 -16 0 -66 -3 -110 -7 -64 -5 -85 -11 -103 -30
-40 -39 -159 -105 -218 -121 -66 -17 -144 -54 -163 -77 -18 -22 -7 -71 33
-153 19 -38 46 -94 61 -125 31 -68 104 -145 147 -156 l31 -8 -30 -34 c-16 -19
-48 -62 -71 -95 -125 -183 -231 -278 -384 -343 -229 -98 -306 -119 -637 -172
-150 -24 -398 -89 -436 -114 -13 -9 -31 -16 -40 -16 -16 0 -25 -4 -93 -39
-109 -56 -239 -82 -432 -84 -112 -1 -141 2 -168 16 -41 22 -48 39 -34 83 7 24
7 34 0 34 -20 0 -37 -35 -38 -74 0 -31 6 -45 35 -72 19 -18 35 -35 35 -38 0
-2 -25 -10 -56 -16 -47 -10 -67 -9 -126 5 -93 23 -128 53 -128 109 0 66 16 99
68 138 67 50 106 60 230 58 110 -3 265 10 362 30 73 15 174 71 295 161 53 41
166 121 250 179 83 58 192 135 241 171 49 36 120 88 158 115 38 27 103 75 145
107 232 177 306 231 404 296 60 39 115 71 121 71 7 0 21 9 32 21 10 12 55 46
99 77 44 31 111 83 148 116 77 66 221 242 270 326 40 70 49 44 13 -36 -14 -31
-26 -63 -26 -70 0 -25 46 -26 126 0 43 13 108 32 144 41 36 9 76 23 90 33 32
22 294 150 299 146 1 -1 0 -8 -4 -13z m-2003 -196 c160 -136 173 -156 172
-254 -1 -79 -29 -226 -45 -236 -5 -4 -9 -14 -9 -24 0 -24 -135 -287 -170 -331
-15 -19 -37 -53 -48 -75 -28 -56 -141 -195 -199 -244 -150 -129 -438 -288
-571 -317 -72 -15 -186 -18 -294 -8 -61 6 -67 9 -71 33 -3 14 0 35 6 46 15 29
222 261 425 476 45 48 82 93 82 100 0 7 11 24 24 38 21 23 105 161 161 266 11
22 55 92 97 155 94 143 236 369 272 433 15 26 31 47 36 47 5 0 64 -47 132
-105z m-1452 -1609 c0 -7 -6 -19 -14 -25 -34 -28 -49 -202 -22 -265 21 -50 82
-71 178 -62 71 7 108 25 160 77 25 25 89 4 127 -41 26 -32 50 -46 171 -104 19
-10 57 -37 84 -61 l49 -44 -34 -53 c-60 -93 -279 -332 -342 -373 -26 -17 -28
-17 -61 9 -19 14 -42 26 -51 26 -8 0 -47 16 -85 35 -86 43 -124 44 -193 5 -60
-34 -171 -53 -272 -48 l-60 3 -37 55 c-43 64 -81 167 -76 207 3 24 9 28 47 35
25 4 49 12 55 18 20 20 34 9 56 -45 27 -65 72 -107 148 -135 74 -28 101 -25
232 20 124 43 196 50 240 25 28 -16 60 -19 60 -6 0 4 -19 21 -42 37 -38 26
-52 29 -118 29 -59 0 -84 -5 -119 -23 -47 -25 -201 -47 -246 -36 -33 8 -111
94 -120 132 -7 34 2 57 46 112 15 19 39 64 53 100 13 36 43 109 65 163 23 55
41 106 41 115 1 10 7 34 14 55 21 57 66 101 66 63z m-160 -42 c0 -3 -9 -19
-21 -35 -23 -33 -12 -39 16 -9 26 28 35 25 34 -12 -1 -89 -101 -343 -156 -400
-61 -63 -120 -83 -249 -84 -206 -1 -241 -24 -339 -220 -55 -112 -70 -134 -99
-148 -37 -18 -82 -21 -90 -7 -3 5 1 26 10 46 19 46 15 89 -8 93 -22 4 -54 -46
-62 -98 -7 -46 -59 -110 -88 -110 -11 0 -31 9 -45 20 -37 29 -54 25 -98 -21
-22 -22 -48 -45 -58 -51 -29 -15 -63 15 -101 90 -41 81 -95 142 -126 142 -12
0 -31 12 -43 26 -17 22 -26 25 -54 21 -37 -6 -47 14 -15 32 14 8 15 12 5 22
-20 20 -15 64 10 86 12 12 62 51 112 87 72 53 96 66 127 66 20 0 39 4 43 9 3
5 20 12 38 16 17 4 63 23 101 42 41 21 89 37 122 40 34 4 60 13 70 24 10 11
25 19 35 19 9 0 47 25 83 56 l66 57 123 3 c150 3 293 31 366 70 30 16 72 39
95 50 23 12 48 29 55 38 7 9 23 16 35 16 11 1 32 7 46 15 26 15 60 20 60 9z
m1399 -250 c-29 -28 -105 -47 -97 -23 5 14 109 61 117 53 3 -3 -6 -16 -20 -30z
m-199 -2 c0 -21 -86 -107 -94 -93 -11 17 12 58 46 85 39 30 48 32 48 8z m-210
-202 c0 -29 -88 -152 -240 -335 -50 -61 -218 -200 -228 -190 -4 4 43 55 105
113 106 102 241 262 292 347 39 65 71 94 71 65z m166 -51 c33 -12 96 -23 144
-26 46 -2 93 -9 104 -15 12 -6 57 -21 101 -33 116 -32 216 -87 296 -162 38
-36 69 -72 69 -79 0 -8 4 -14 9 -14 4 0 26 -26 47 -57 112 -163 135 -201 145
-235 5 -20 13 -39 17 -42 4 -2 24 -38 46 -79 33 -65 49 -84 124 -142 98 -77
193 -125 272 -136 133 -18 150 -22 150 -33 -1 -21 -40 -99 -76 -147 -19 -27
-57 -81 -83 -121 -68 -103 -271 -366 -371 -482 -47 -54 -195 -207 -330 -340
-268 -265 -315 -309 -468 -442 -57 -49 -151 -131 -210 -182 -59 -51 -204 -166
-322 -254 -118 -89 -239 -183 -269 -209 -29 -26 -90 -73 -135 -105 -44 -32
-130 -98 -191 -147 -124 -100 -205 -148 -205 -121 0 9 16 60 36 113 38 98 48
162 61 356 9 126 8 159 -2 440 -11 300 -7 544 10 625 7 36 18 115 24 177 14
136 37 214 101 338 35 69 51 114 59 167 6 40 15 105 21 143 6 39 23 97 39 130
45 95 81 237 81 325 0 25 3 55 6 67 6 21 120 122 202 177 82 56 244 227 293
310 11 20 25 36 29 36 4 0 32 49 61 109 30 60 54 110 55 110 0 1 27 -8 60 -20z
m-126 2 c0 -41 -132 -250 -215 -340 -84 -91 -291 -261 -318 -261 -23 0 8 35
107 121 60 51 131 123 158 159 26 36 67 88 91 115 24 28 70 87 101 133 52 74
76 97 76 73z m1780 -1075 c0 -40 -88 -183 -260 -426 -98 -138 -146 -196 -261
-315 -47 -49 -113 -127 -147 -171 -34 -45 -77 -91 -96 -103 -18 -12 -46 -37
-61 -56 -80 -106 -631 -629 -805 -765 -32 -25 -104 -85 -160 -135 -110 -98
-366 -290 -470 -354 -36 -22 -91 -62 -124 -90 -32 -27 -73 -55 -90 -62 -17 -7
-50 -26 -74 -42 -97 -65 -272 -136 -272 -109 1 17 20 32 114 86 55 31 124 80
154 107 31 28 90 74 131 102 42 28 117 85 166 127 50 41 113 91 140 110 28 18
64 47 80 63 17 16 41 36 55 45 70 46 183 133 249 191 40 36 93 82 117 101 256
207 777 709 981 945 195 225 412 518 512 691 22 38 41 61 45 55 10 -16 29 -13
23 3 -7 18 12 26 36 14 9 -5 17 -10 17 -12z m270 0 c30 0 100 1 155 3 136 4
145 3 145 -14 0 -9 11 -21 25 -27 41 -18 29 -29 -25 -22 -30 4 -50 3 -50 -3 0
-5 21 -28 46 -51 45 -40 46 -42 31 -65 -10 -15 -33 -29 -61 -36 -25 -6 -46
-16 -46 -22 0 -5 12 -21 26 -34 22 -21 25 -27 14 -40 -7 -8 -18 -15 -24 -15
-6 0 -31 -9 -55 -21 l-45 -20 35 -29 c33 -27 33 -29 16 -47 -15 -16 -19 -16
-28 -3 -8 13 -13 10 -31 -14 -12 -15 -41 -36 -65 -47 -23 -10 -43 -21 -43 -25
0 -3 11 -15 25 -26 14 -11 25 -28 25 -38 0 -30 -53 -66 -122 -83 l-64 -16
-108 39 c-59 22 -120 47 -136 57 -49 32 -150 116 -150 125 0 12 77 126 110
163 33 37 109 168 150 259 l30 69 83 -9 c45 -4 107 -8 137 -8z m471 -23 c19
-11 29 -26 29 -40 0 -20 -5 -23 -35 -23 -26 0 -39 6 -51 25 -32 48 2 71 57 38z
m-32 -126 c20 -25 -66 -137 -106 -137 -8 0 -13 12 -13 30 0 19 5 30 14 30 24
0 46 29 46 61 0 24 4 29 24 29 13 0 29 -6 35 -13z m-901 -418 c101 -82 105
-84 202 -115 47 -15 92 -33 101 -41 8 -7 30 -13 47 -13 43 0 41 -21 -5 -56
-34 -26 -42 -28 -120 -25 -77 2 -84 1 -108 -23 -29 -29 -26 -42 12 -57 13 -5
23 -15 21 -22 -7 -19 -76 -62 -132 -82 -104 -37 -98 -33 -85 -54 18 -28 5 -46
-55 -76 -43 -21 -56 -32 -58 -52 -3 -30 -39 -46 -125 -58 l-51 -7 -77 79
c-117 118 -115 113 -64 173 40 47 59 61 59 42 0 -5 19 -29 43 -54 51 -53 181
-108 213 -90 15 9 11 12 -26 22 -25 7 -61 20 -80 30 -36 18 -130 111 -130 129
0 14 74 107 165 207 44 49 100 115 125 147 25 31 46 57 48 57 2 0 38 -27 80
-61z m282 -350 c-22 -18 -36 -25 -39 -17 -5 14 35 48 58 48 11 -1 5 -10 -19
-31z m-165 -129 c-3 -5 -11 -10 -16 -10 -6 0 -7 5 -4 10 3 6 11 10 16 10 6 0
7 -4 4 -10z m-595 -127 c45 -51 90 -95 99 -99 9 -4 39 -10 66 -13 45 -5 50 -9
53 -32 2 -19 -5 -33 -28 -52 -30 -26 -143 -67 -183 -67 -26 0 -113 67 -182
142 l-55 59 68 79 c37 43 70 78 73 77 3 -1 43 -43 89 -94z m494 58 c11 -18
-98 -86 -129 -80 -35 7 -24 24 38 56 66 34 83 38 91 24z m-690 -208 c24 -32
79 -87 120 -123 42 -36 78 -73 82 -83 14 -44 -114 -117 -206 -117 -58 0 -80
-11 -80 -41 0 -13 10 -19 38 -21 34 -3 37 -6 37 -33 0 -21 -7 -33 -27 -44 -25
-14 -28 -14 -47 9 -12 14 -50 69 -86 122 -46 70 -69 96 -80 92 -8 -3 -12 -11
-8 -18 42 -71 112 -179 135 -208 l30 -38 -27 -10 c-14 -5 -39 -10 -54 -10 -48
0 -92 -12 -98 -26 -3 -8 5 -23 18 -33 l24 -19 -42 -40 c-39 -38 -113 -65 -121
-45 -29 80 -113 248 -123 248 -21 0 -13 -37 33 -153 32 -80 39 -107 29 -110
-21 -7 -51 -40 -51 -56 0 -8 11 -17 25 -20 33 -8 32 -20 -8 -50 -43 -33 -113
-63 -164 -72 l-42 -6 -16 56 c-8 31 -22 81 -31 111 -16 56 -27 71 -44 60 -6
-4 -5 -16 1 -33 6 -15 21 -74 33 -131 17 -78 27 -107 42 -115 10 -6 21 -12 23
-14 8 -5 -93 -103 -121 -118 -40 -21 -75 -18 -92 9 -8 12 -25 63 -37 112 -25
104 -47 165 -60 165 -5 0 -9 -8 -9 -18 0 -34 40 -207 66 -285 l26 -79 -33 -35
c-19 -19 -46 -41 -61 -49 -38 -20 -85 -18 -92 4 -24 79 -96 342 -96 350 0 6
44 42 98 80 53 38 126 96 162 129 36 32 97 84 135 115 39 30 143 122 233 204
90 82 211 188 270 236 59 49 138 115 176 148 38 33 70 60 72 60 1 0 23 -26 48
-57z m-1224 -948 c0 -3 11 -42 24 -89 14 -46 34 -136 46 -200 20 -110 20 -118
4 -145 -21 -36 -90 -81 -126 -82 -15 0 -45 -1 -65 -2 l-38 0 -20 91 c-21 95
-39 130 -51 98 -4 -10 5 -72 20 -139 34 -157 33 -169 -5 -201 -28 -24 -61 -32
-116 -27 -12 1 -40 -7 -61 -18 -33 -17 -40 -27 -56 -79 -19 -66 -40 -101 -52
-89 -7 7 -21 235 -23 375 -1 41 -4 52 -17 52 -15 0 -16 -22 -9 -234 l7 -235
-36 -7 c-20 -3 -39 -4 -42 -1 -5 5 -6 95 -4 392 l0 160 136 70 c75 39 152 84
172 100 21 17 57 44 82 60 25 16 56 39 70 51 29 26 141 102 153 103 4 1 7 -1
7 -4z m-660 -487 c1 -79 -1 -251 -4 -413 -1 -31 -5 -40 -21 -43 -11 -3 -39
-22 -62 -43 -45 -41 -128 -87 -139 -77 -3 4 -1 37 6 75 6 37 14 88 17 113 3
25 9 50 14 56 5 5 15 37 23 70 8 32 26 100 40 149 15 50 32 112 39 138 11 46
28 60 80 66 4 1 7 -41 7 -91z m-130 -657 c0 -5 3 -16 6 -25 9 -22 -79 -113
-108 -111 -33 2 -36 52 -7 89 30 39 109 72 109 47z"/>
<path d="M1577 7014 c-6 -7 -109 -22 -212 -32 -52 -5 -70 -11 -70 -22 0 -10
16 -18 47 -25 25 -5 58 -21 72 -34 l25 -24 48 30 c26 17 60 33 74 37 26 6 54
49 44 67 -7 10 -19 12 -28 3z"/>
<path d="M3185 3577 c-3 -12 -2 -34 4 -47 9 -22 10 -19 10 23 1 51 -5 61 -14
24z"/>
<path d="M9119 7641 c-13 -10 -85 -56 -159 -101 -74 -46 -181 -111 -238 -146
-56 -34 -119 -76 -140 -92 -20 -16 -68 -50 -107 -75 -38 -26 -92 -63 -120 -82
-27 -20 -68 -46 -90 -57 -22 -11 -85 -53 -140 -93 -94 -68 -196 -132 -319
-200 -119 -66 -163 -105 -117 -105 23 0 72 29 143 85 65 51 110 79 175 111 28
13 57 31 63 39 7 8 16 15 21 15 14 0 114 64 127 83 7 9 28 25 45 34 18 9 52
33 77 53 25 20 86 61 135 90 50 29 118 72 152 96 34 24 73 48 88 54 15 6 46
25 68 44 36 28 115 80 323 211 45 28 67 55 46 55 -5 0 -20 -8 -33 -19z"/>
<path d="M8257 6938 c-235 -158 -329 -219 -431 -279 -50 -29 -145 -94 -212
-143 -66 -50 -166 -122 -220 -159 -252 -173 -285 -197 -372 -270 -45 -38 -80
-72 -78 -75 3 -3 41 22 84 56 43 33 102 74 131 92 108 63 223 143 284 196 34
31 92 73 129 95 36 21 79 49 95 62 37 31 152 105 236 151 37 20 67 41 67 46 0
6 9 10 20 10 10 0 23 6 27 13 4 6 20 18 36 26 15 8 51 35 80 59 28 25 68 55
87 67 203 127 253 165 217 165 -7 0 -88 -51 -180 -112z"/>
<path d="M7223 6317 c-18 -12 -33 -25 -33 -29 0 -9 68 30 76 43 9 15 -9 9 -43
-14z"/>
<path d="M7127 6253 c-4 -3 -7 -11 -7 -17 0 -6 5 -5 12 2 6 6 9 14 7 17 -3 3
-9 2 -12 -2z"/>
<path d="M7073 6210 c-17 -10 -34 -23 -37 -29 -4 -5 -48 -41 -100 -80 -51 -38
-98 -77 -106 -85 -23 -29 7 -17 52 19 24 19 81 65 128 102 104 81 105 82 99
87 -3 3 -19 -3 -36 -14z"/>
<path d="M10057 6054 c-20 -7 -61 -31 -90 -52 -85 -62 -100 -69 -162 -82 -61
-12 -105 -36 -162 -86 -18 -16 -49 -42 -68 -58 -44 -35 -102 -119 -139 -200
l-27 -60 29 -30 c20 -22 33 -49 41 -90 18 -94 51 -174 82 -199 16 -12 42 -32
59 -45 16 -13 65 -35 107 -49 43 -14 82 -29 86 -33 19 -17 -208 -109 -281
-114 -57 -4 -97 -24 -213 -103 -150 -102 -237 -221 -258 -352 -10 -59 -82
-233 -157 -376 -124 -236 -146 -290 -159 -390 -6 -53 0 -68 57 -153 22 -33 36
-42 77 -52 27 -6 54 -9 59 -6 5 3 63 1 130 -4 108 -8 127 -7 176 10 30 10 77
22 103 26 26 4 86 22 133 40 47 17 114 38 150 44 36 7 83 18 105 25 91 31 90
31 133 -32 61 -91 117 -208 176 -375 30 -84 56 -160 58 -168 1 -8 -7 -31 -19
-51 -34 -55 -51 -137 -59 -285 -7 -134 -5 -153 31 -357 16 -91 57 -168 123
-232 23 -23 42 -49 42 -58 0 -8 38 -51 85 -94 47 -43 88 -88 91 -100 14 -52
-75 -132 -366 -331 -36 -24 -78 -56 -95 -72 -16 -15 -50 -40 -74 -55 -47 -29
-46 -30 -76 20 -7 12 -17 16 -32 11 -18 -6 -20 -12 -15 -51 5 -49 1 -58 -75
-158 -23 -31 -43 -59 -43 -62 0 -15 26 0 56 32 19 20 37 33 40 30 4 -3 -5 -36
-19 -74 -23 -59 -67 -219 -114 -403 -52 -208 -66 -249 -86 -252 -13 -2 -25
-16 -33 -40 -18 -54 -44 -87 -70 -94 -24 -6 -214 66 -243 91 -11 11 -11 21 3
61 14 43 27 106 66 314 22 114 40 180 64 240 15 36 33 94 41 130 8 36 27 95
43 131 16 36 33 80 37 98 4 18 16 53 27 77 10 25 25 72 33 107 7 34 22 94 33
132 11 39 31 126 46 195 45 212 100 363 162 450 29 41 72 107 95 145 23 39 53
86 66 106 25 38 31 73 11 67 -7 -3 -23 -23 -36 -46 -13 -23 -28 -42 -33 -42
-14 0 -11 20 10 48 10 15 30 50 44 78 28 55 57 87 57 62 0 -7 -7 -24 -16 -36
-8 -12 -14 -28 -11 -35 6 -17 65 80 78 128 6 22 31 64 55 94 46 56 59 90 27
72 -30 -16 -207 -202 -259 -271 -27 -36 -63 -82 -81 -102 -40 -46 -154 -281
-180 -373 -12 -38 -29 -97 -38 -130 -26 -89 -45 -172 -56 -244 -6 -44 -16 -72
-31 -88 -22 -23 -38 -94 -54 -243 -7 -60 -41 -171 -81 -259 -14 -31 -38 -83
-53 -116 -15 -33 -39 -112 -54 -175 -15 -63 -34 -135 -41 -160 -8 -25 -19 -76
-25 -115 -6 -38 -18 -105 -27 -149 -10 -50 -13 -99 -9 -135 6 -54 5 -58 -21
-77 -16 -12 -46 -27 -68 -34 -22 -7 -96 -41 -165 -76 -69 -34 -163 -75 -210
-90 -65 -20 -95 -36 -127 -66 -59 -58 -78 -95 -64 -132 l12 -29 87 7 c87 7
111 10 297 39 55 9 155 23 223 32 l122 17 52 -22 c47 -20 59 -21 118 -12 36 6
124 11 197 11 73 1 176 8 230 16 130 20 573 55 695 55 87 0 122 9 104 27 -3 3
-51 5 -108 4 -157 -3 -243 37 -138 64 25 7 56 18 70 25 28 16 119 24 400 39
172 9 349 26 388 37 7 2 10 8 7 14 -8 13 -102 13 -183 0 -51 -9 -68 -8 -92 5
-26 13 -45 13 -177 1 -81 -8 -195 -24 -253 -35 -152 -29 -332 -51 -510 -62
-188 -11 -214 -15 -231 -36 -12 -14 -6 -15 69 -8 88 8 109 -3 45 -24 -58 -18
-298 -71 -322 -71 -14 0 -21 6 -21 19 0 16 10 21 58 26 70 8 105 18 109 32 3
7 -10 8 -39 3 -24 -5 -65 -10 -92 -12 l-50 -3 -38 77 c-37 74 -38 79 -24 106
21 40 60 55 61 23 1 -61 85 40 125 151 32 86 70 232 70 264 0 26 45 191 80
289 15 44 36 117 45 163 20 94 6 79 211 215 60 41 137 101 171 134 33 33 80
69 104 80 46 22 101 86 132 156 16 36 19 38 50 31 17 -5 81 -7 142 -6 165 3
174 -1 233 -106 27 -48 55 -104 61 -124 7 -20 26 -56 43 -80 57 -77 222 -239
269 -263 59 -31 64 -38 98 -138 43 -127 100 -217 171 -272 33 -25 60 -50 60
-54 0 -5 45 -45 99 -90 121 -98 169 -153 177 -200 4 -20 13 -44 22 -53 14 -16
13 -20 -1 -36 -10 -10 -17 -26 -17 -35 0 -29 -72 -113 -125 -146 -27 -17 -83
-47 -123 -66 -115 -57 -177 -134 -139 -172 23 -23 109 -28 190 -10 40 8 105
21 145 27 44 7 101 26 143 47 68 34 70 34 96 18 38 -26 127 -29 349 -15 210
14 230 15 362 18 l82 2 0 60 c0 65 -14 77 -52 43 -16 -14 -24 -14 -59 -4 -38
11 -45 11 -70 -8 -22 -17 -49 -22 -148 -27 l-121 -7 0 24 c0 13 7 46 15 73 11
35 12 59 5 89 -10 47 -32 67 -71 67 -45 0 -77 17 -94 49 -24 47 -19 76 16 103
48 37 79 66 79 77 0 20 -32 41 -63 41 l-32 0 3 64 c5 82 -20 180 -58 231 -74
99 -135 196 -190 300 -23 44 -55 96 -70 115 -28 36 -77 129 -100 190 -17 48
-102 237 -155 345 -24 50 -53 116 -64 147 -19 53 -19 59 -5 95 9 21 24 48 34
61 10 13 30 58 44 100 21 65 26 103 31 242 7 175 -3 301 -35 485 -11 61 -25
151 -31 200 -6 50 -15 99 -21 109 -6 11 -14 48 -18 83 -6 45 -17 78 -40 113
-29 45 -31 52 -20 82 10 28 8 50 -14 141 -14 60 -26 119 -26 132 0 13 -7 50
-15 82 -23 88 -22 90 50 125 36 18 67 40 70 49 3 9 19 22 35 29 62 26 150 202
129 257 -7 18 -6 42 1 75 17 80 13 101 -26 144 -46 51 -55 69 -98 192 -47 135
-100 223 -178 297 -69 67 -204 155 -236 155 -11 0 -37 6 -58 14 -22 7 -62 16
-89 20 -45 5 -59 2 -120 -28 -79 -38 -207 -81 -276 -91 -59 -9 -129 24 -129
61 0 12 -5 34 -11 48 -10 22 -7 36 25 100 30 63 36 85 36 140 0 41 -7 80 -19
108 -25 56 -114 138 -152 138 -15 0 -47 38 -65 78 -20 44 -91 87 -175 106 -37
9 -69 15 -71 15 -2 -1 -20 -7 -41 -15z m164 -83 c40 -43 83 -142 74 -172 -8
-25 -53 -59 -78 -59 -25 0 -121 63 -142 92 -37 54 -28 111 24 155 41 35 78 30
122 -16z m-233 -13 c5 -7 10 -42 9 -78 0 -92 19 -130 84 -168 30 -17 71 -33
92 -37 20 -4 39 -10 42 -14 7 -12 -23 -63 -58 -98 -28 -30 -37 -33 -87 -33
-42 0 -72 8 -125 33 -60 29 -76 43 -109 92 -34 52 -37 62 -33 106 5 43 14 58
73 124 78 87 92 96 112 73z m-158 -67 c0 -23 -14 -41 -31 -41 -33 0 -69 -78
-69 -148 l0 -60 52 -46 c32 -28 89 -62 147 -87 91 -40 97 -41 168 -35 56 4 73
3 73 -7 0 -7 -5 -18 -11 -24 -7 -7 -7 -13 -1 -17 20 -12 65 40 101 118 21 44
50 100 64 123 15 24 27 49 27 57 0 24 21 64 37 70 19 8 91 -34 99 -57 33 -102
12 -272 -45 -364 -24 -38 -184 -120 -291 -149 -79 -21 -206 -21 -275 0 -27 9
-58 16 -67 16 -10 0 -46 13 -81 30 -57 27 -70 39 -130 122 l-67 92 0 78 c0 58
5 89 19 116 28 54 88 120 130 142 44 25 69 40 100 63 26 18 51 23 51 8z m1370
-604 c71 -33 188 -153 242 -249 52 -92 86 -174 75 -184 -3 -4 -22 1 -41 10
-19 9 -56 19 -83 22 -67 9 -77 16 -113 78 -32 57 -66 79 -81 55 -5 -8 -6 -22
-3 -31 3 -10 1 -25 -5 -36 -6 -12 -5 -44 4 -97 7 -44 16 -122 20 -172 l6 -93
-27 -10 c-15 -6 -41 -10 -58 -8 -36 4 -44 26 -53 145 -5 83 -5 83 26 112 46
43 41 67 -11 62 -22 -3 -35 28 -43 102 -4 38 -11 57 -18 54 -7 -2 -11 -13 -9
-23 1 -10 5 -44 8 -74 6 -54 5 -55 -25 -73 -18 -10 -38 -16 -46 -13 -16 6 -35
68 -44 144 -10 89 -26 60 -27 -52 -1 -57 -5 -109 -8 -115 -4 -6 -18 -11 -32
-11 -14 0 -37 -6 -52 -14 -43 -22 -251 -80 -259 -72 -7 7 -19 76 -29 176 -5
41 -2 59 7 67 16 12 249 83 274 83 3 0 5 -31 5 -69 0 -39 5 -73 10 -76 6 -4
10 23 10 75 0 77 1 81 26 90 14 6 29 8 34 5 5 -3 19 -1 32 4 94 38 187 71 211
76 24 5 27 8 17 20 -10 12 -17 12 -33 3 -12 -6 -31 -12 -42 -14 -11 -1 -62
-14 -112 -29 -107 -30 -137 -30 -141 3 -4 29 -22 18 -22 -13 0 -32 -28 -49
-125 -76 -124 -34 -145 -35 -165 -9 l-17 23 -11 -31 c-6 -17 -24 -37 -41 -46
-24 -13 -212 -56 -243 -56 -5 0 -8 17 -8 38 0 47 -15 74 -24 44 -4 -11 -4 -31
-1 -44 12 -49 -10 -61 -193 -103 -71 -16 -85 -22 -77 -36 9 -14 58 -11 80 5
11 7 40 16 65 19 25 3 61 9 81 12 l36 7 7 -73 c4 -41 12 -100 18 -132 9 -48 8
-61 -3 -73 -23 -23 -286 -95 -358 -98 -22 -1 -27 6 -44 59 -10 33 -19 95 -20
139 l-2 79 31 9 c17 4 38 15 45 25 13 15 10 16 -33 10 -42 -6 -49 -4 -59 14
-11 21 -11 20 -29 -9 -16 -26 -29 -33 -97 -47 -109 -23 -146 -36 -136 -46 5
-5 34 -2 66 7 31 8 80 16 109 17 l51 2 29 -105 c16 -58 31 -121 34 -141 l6
-36 -68 -21 c-38 -11 -95 -28 -126 -37 -40 -11 -58 -21 -58 -33 0 -12 3 -13
12 -4 7 7 24 12 39 12 14 0 46 7 70 16 24 9 74 16 111 17 56 2 68 5 68 18 0
10 11 19 28 21 15 3 86 21 157 41 72 20 148 37 169 39 35 3 40 0 46 -22 7 -26
15 -17 22 24 2 11 14 23 28 27 151 45 235 69 245 69 8 0 18 -36 29 -104 27
-175 22 -188 -74 -206 -30 -6 -64 -17 -77 -25 -12 -8 -38 -15 -57 -15 -32 0
-35 2 -46 48 -11 48 -35 90 -46 80 -3 -3 2 -39 10 -79 17 -82 16 -84 -49 -95
-22 -3 -44 -10 -50 -14 -17 -12 -168 -60 -192 -60 -23 0 -75 74 -98 139 -12
35 -35 54 -35 29 0 -7 17 -51 37 -97 44 -99 45 -98 -75 -129 -146 -39 -137
-42 -219 78 -39 58 -71 115 -72 126 -1 12 -8 38 -16 58 -27 65 -46 179 -43
260 2 71 0 80 -20 96 -12 10 -22 25 -22 34 0 9 -4 16 -10 16 -5 0 -10 -26 -10
-57 -1 -35 -6 -66 -15 -77 -8 -11 -15 -30 -15 -43 0 -14 -13 -78 -30 -143 -34
-134 -33 -130 -21 -130 4 0 11 15 14 33 14 89 60 139 73 80 3 -16 19 -72 35
-126 19 -67 26 -104 20 -116 -5 -9 -17 -55 -25 -101 -9 -46 -17 -84 -19 -85
-1 -2 -29 -5 -62 -8 -75 -8 -131 9 -129 38 3 32 33 134 50 166 8 17 14 40 12
52 -2 14 -19 -16 -47 -86 -24 -60 -50 -111 -57 -114 -29 -11 -64 9 -95 53 -17
26 -29 53 -26 62 3 9 18 49 32 87 15 39 33 108 40 155 26 165 74 250 192 339
86 64 139 90 273 134 80 26 264 98 315 123 36 17 67 24 110 24 86 0 184 16
204 33 9 8 56 27 105 42 80 24 90 25 105 11 16 -15 19 -14 36 4 10 11 30 20
45 20 15 0 33 6 39 14 6 8 24 16 39 19 15 3 47 11 72 17 137 35 173 42 253 55
48 8 97 21 109 29 29 20 138 11 198 -17z m-716 -394 c3 -49 9 -108 12 -133 l6
-45 -113 -37 c-63 -21 -130 -39 -148 -40 -41 -4 -44 2 -61 135 -15 125 -9 137
95 160 44 9 98 23 120 31 80 27 81 27 89 -71z m765 -42 c20 -13 40 -132 41
-246 0 -107 13 -239 31 -319 9 -39 9 -50 -2 -57 -8 -5 -17 -9 -20 -9 -7 0 -35
175 -50 315 -14 128 -26 325 -19 325 3 0 11 -4 19 -9z m183 -1 c9 0 47 -26 83
-59 104 -92 142 -191 116 -303 -8 -34 -7 -37 16 -43 18 -4 22 -9 15 -18 -5 -7
-12 -24 -15 -38 -5 -18 -21 -33 -59 -51 -69 -34 -168 -62 -178 -52 -4 5 -15
91 -24 192 -9 100 -23 222 -31 270 -14 81 -13 88 3 100 9 7 26 11 37 8 11 -3
28 -6 37 -6z m-377 -177 c4 -102 3 -124 -11 -137 -11 -12 -20 -13 -33 -6 -21
10 -27 33 -41 135 -17 125 -18 118 20 137 52 26 58 13 65 -129z m-127 42 c7
-27 15 -83 18 -122 6 -72 5 -73 -22 -83 -38 -15 -49 -8 -52 34 -2 20 -7 47
-12 60 -13 35 -24 142 -15 156 4 6 21 10 38 8 29 -3 33 -7 45 -53z m-94 -76
c24 -145 25 -143 -35 -168 -29 -11 -57 -21 -64 -21 -7 0 -32 -9 -56 -20 -24
-11 -51 -20 -60 -20 -28 0 -46 58 -65 211 -8 58 3 66 126 99 47 12 94 26 105
30 26 10 30 3 49 -111z m391 -146 c4 -27 13 -84 21 -129 20 -117 19 -143 -10
-154 -56 -21 -60 -18 -73 40 -7 30 -20 78 -28 106 -31 106 -16 166 45 177 14
2 28 5 32 6 4 0 10 -20 13 -46z m-160 -25 c7 -29 55 -270 55 -274 0 -2 -9 -4
-20 -4 -16 0 -24 17 -49 98 -37 124 -44 157 -36 182 9 27 43 26 50 -2z m-85
-115 c38 -142 43 -191 19 -203 -29 -16 -67 -12 -73 8 -3 9 -10 60 -15 112 -6
52 -15 111 -21 130 -5 19 -10 36 -10 38 0 6 46 21 59 19 9 -1 24 -40 41 -104z
m-105 -21 c3 -37 11 -95 17 -129 5 -35 8 -69 5 -76 -6 -16 -184 -80 -202 -73
-6 2 -15 28 -18 58 -3 29 -15 75 -27 102 -12 26 -23 69 -23 93 l-2 46 65 25
c36 13 85 30 110 37 58 16 67 6 75 -83z m-276 -65 c13 -50 21 -91 36 -188 7
-45 7 -46 -29 -63 -20 -9 -71 -26 -113 -37 -74 -19 -78 -20 -90 -3 -7 10 -13
25 -13 35 0 9 -16 65 -36 124 -19 59 -34 108 -32 110 14 11 56 27 105 39 32 8
76 21 98 29 21 8 44 13 50 11 6 -3 16 -28 24 -57z m-307 -88 c23 -76 60 -211
62 -228 1 -10 -23 -20 -74 -32 -41 -11 -101 -28 -133 -40 -44 -15 -61 -18 -72
-9 -15 12 -85 156 -85 174 0 6 -9 29 -20 51 -11 21 -17 41 -15 44 12 11 296
100 310 97 6 -1 18 -27 27 -57z m1054 -60 c6 -36 20 -78 31 -95 12 -17 28 -67
37 -119 9 -49 21 -109 27 -132 9 -32 8 -63 -1 -123 -7 -44 -16 -80 -20 -80
-10 0 -67 254 -100 442 -25 148 -26 181 -2 176 13 -2 20 -20 28 -69z m-68 -30
c7 -28 12 -62 12 -76 0 -13 9 -59 19 -101 11 -43 25 -119 31 -171 7 -52 18
-112 26 -132 11 -34 11 -41 -5 -60 -16 -19 -18 -20 -31 -4 -12 15 -33 86 -75
252 -14 55 -7 73 27 73 11 0 15 5 12 15 -4 10 -14 13 -29 9 -27 -7 -45 18 -45
64 0 16 -4 42 -9 58 -5 16 -12 48 -15 71 -6 41 -6 42 26 46 18 2 36 5 39 5 3
1 11 -21 17 -49z m-1351 29 c4 -7 18 -38 29 -68 12 -30 32 -80 44 -110 41
-101 40 -104 -27 -124 l-58 -17 -111 108 c-104 102 -152 158 -142 168 6 6 209
53 235 54 12 1 25 -5 30 -11z m-854 -41 c26 -23 47 -48 47 -55 0 -19 -36 -86
-54 -101 -9 -8 -16 -23 -16 -35 0 -12 -7 -31 -15 -43 -13 -19 -19 -20 -57 -11
-69 17 -72 23 -49 109 22 80 70 179 86 179 6 0 32 -19 58 -43z m2076 11 c5
-13 14 -65 21 -117 13 -99 9 -110 -31 -111 -25 0 -29 21 -29 141 0 91 3 109
15 109 9 0 19 -10 24 -22z m-106 -65 c10 -38 18 -95 20 -128 l2 -59 -39 -13
c-21 -8 -41 -11 -44 -8 -8 8 -31 154 -31 203 -1 39 2 44 32 57 17 8 35 14 38
15 3 0 13 -30 22 -67z m-128 -10 c4 -16 10 -46 15 -68 5 -22 11 -65 13 -95 l3
-56 -50 -22 c-28 -12 -72 -25 -98 -28 l-47 -7 -6 39 c-4 22 -15 73 -25 114
-10 41 -16 78 -13 83 9 15 76 37 113 37 21 0 43 7 50 15 19 23 39 18 45 -12z
m-1627 -26 l82 -2 0 -37 c0 -46 -40 -98 -76 -98 -14 0 -37 -9 -52 -20 -49 -37
-182 -39 -182 -4 0 17 78 155 95 166 5 4 19 5 30 2 11 -3 57 -6 103 -7z m341
-11 c42 -38 25 -44 -56 -21 -96 28 -106 44 -24 41 42 -1 66 -7 80 -20z m1035
-38 c13 -21 56 -189 56 -221 0 -13 -178 -78 -213 -77 -21 0 -27 16 -57 153
-18 83 -21 110 -12 119 11 11 151 44 194 47 10 1 24 -9 32 -21z m-1192 -39
c52 -106 58 -149 23 -149 -9 0 -31 -11 -48 -24 -18 -13 -45 -26 -62 -30 -16
-4 -46 -17 -65 -30 -19 -13 -48 -26 -65 -29 -87 -19 -194 -37 -224 -37 l-34 0
7 55 c3 30 11 66 18 81 11 23 16 25 49 20 21 -3 72 -1 114 5 88 13 148 51 210
133 20 26 42 45 48 43 7 -2 20 -19 29 -38z m150 19 c15 -5 32 -7 38 -3 13 8
40 -23 80 -93 45 -78 40 -92 -45 -112 -38 -10 -90 -20 -114 -24 l-43 -7 6 33
c19 101 18 104 -7 154 -13 27 -22 54 -20 61 5 13 60 8 105 -9z m756 -62 c11
-29 26 -93 49 -207 6 -34 -6 -42 -108 -73 -112 -34 -137 -34 -145 2 -5 23 -33
99 -77 204 -16 39 -6 46 115 78 141 38 151 38 166 -4z m822 -19 c0 -2 12 -60
26 -128 32 -156 33 -182 2 -163 -7 5 -21 9 -32 9 -14 0 -22 15 -37 70 -37 133
-37 199 -1 208 23 6 42 8 42 4z m-2225 -52 c29 -28 31 -58 10 -99 -8 -15 -15
-39 -15 -52 0 -19 -5 -24 -25 -24 -15 0 -40 7 -57 16 -30 15 -30 17 -24 68 10
89 23 116 57 116 18 0 39 -10 54 -25z m1113 -47 c21 -40 44 -94 50 -119 7 -26
14 -53 18 -62 4 -10 -4 -21 -23 -31 l-28 -15 32 -1 c35 0 40 -11 58 -115 8
-46 13 -57 25 -50 4 2 1 37 -6 77 -18 95 -18 94 14 106 24 10 191 52 205 52 3
0 11 -25 17 -55 18 -88 66 -63 54 29 -5 34 -3 47 7 49 8 2 30 10 49 17 110 39
146 50 156 46 11 -4 27 -121 28 -215 l1 -55 -58 -23 c-32 -13 -79 -26 -103
-30 -40 -5 -46 -4 -51 16 -6 22 -19 26 -42 12 -8 -5 -12 -18 -8 -31 4 -15 0
-24 -16 -30 -19 -8 -219 -63 -283 -77 -18 -4 -22 1 -28 36 -8 52 -26 64 -26
17 0 -20 -4 -36 -9 -36 -7 0 -91 208 -91 225 0 3 9 5 20 5 13 0 20 7 20 19 0
19 -56 122 -92 170 -19 25 -43 100 -34 108 6 7 78 32 93 33 6 0 29 -33 51 -72z
m994 26 c15 -65 38 -201 38 -231 0 -25 -5 -33 -29 -41 -22 -8 -32 -7 -40 1
-11 14 -61 228 -61 263 0 18 8 26 33 33 43 12 51 9 59 -25z m-1170 -66 c17
-25 38 -48 48 -51 18 -5 66 -127 49 -127 -5 0 -9 4 -9 9 0 5 -37 60 -81 123
-45 62 -84 120 -87 128 -9 26 48 -33 80 -82z m1045 44 c15 -10 44 -241 33
-262 -9 -18 -85 -47 -146 -56 l-42 -6 -15 53 c-26 89 -39 178 -29 195 8 15
152 83 177 83 6 1 16 -3 22 -7z m-1437 -40 c0 -14 -12 -21 -45 -29 -58 -13
-63 7 -7 30 49 20 52 20 52 -1z m1966 -133 c4 -6 15 -61 26 -121 20 -117 16
-138 -24 -138 -27 0 -54 69 -62 163 -6 66 -5 77 9 77 9 0 18 7 21 15 7 18 20
19 30 4z m-81 -170 c16 -87 17 -102 4 -110 -8 -5 -17 -9 -20 -9 -8 0 -49 139
-49 164 0 19 26 56 40 56 4 0 15 -45 25 -101z m-259 4 c3 -16 12 -46 19 -69 8
-23 15 -58 17 -79 3 -34 -1 -41 -31 -62 -19 -13 -37 -23 -42 -23 -11 0 -37 85
-48 159 -13 80 -4 101 44 101 30 0 36 -4 41 -27z m-128 -83 c6 -30 13 -83 17
-117 l6 -62 -67 -20 c-111 -35 -111 -35 -144 101 -30 125 -31 122 48 146 82
26 115 30 123 17 4 -5 12 -35 17 -65z m-238 -4 c0 -2 6 -39 14 -82 27 -147 27
-145 -9 -160 -39 -16 -175 -48 -180 -42 -5 5 -55 232 -52 234 1 1 38 13 82 27
71 22 145 34 145 23z m510 -61 c0 -8 -9 -15 -20 -15 -22 0 -27 15 -7 23 21 9
27 7 27 -8z m257 -45 c18 -82 32 -223 24 -239 -12 -20 -41 25 -41 62 0 15 -12
69 -26 118 -21 73 -23 93 -13 105 23 28 43 11 56 -46z m-1034 3 c8 -21 22 -71
32 -111 20 -84 15 -96 -43 -105 -20 -3 -66 -13 -102 -21 -59 -13 -66 -13 -77
2 -7 9 -13 22 -13 31 0 8 -6 22 -13 30 -11 13 -37 124 -37 158 0 6 33 16 73
23 39 6 81 16 92 20 11 5 32 9 46 9 22 1 30 -6 42 -36z m968 -113 c33 -131 35
-158 14 -166 -33 -13 -44 13 -93 216 -12 51 -2 73 31 68 16 -2 25 -23 48 -118z
m-1220 -20 c16 -63 28 -122 29 -130 0 -13 -33 -27 -144 -58 -18 -5 -19 -1 -12
54 4 32 9 97 11 143 5 88 8 96 40 104 44 11 48 4 76 -113z m1054 -27 c-3 -71
-9 -136 -11 -146 -10 -35 -156 -82 -167 -53 -19 50 -37 249 -24 263 10 9 81
22 90 16 6 -4 7 -48 3 -109 -4 -61 -3 -104 3 -104 13 0 20 34 27 138 6 78 10
95 28 107 11 8 29 15 39 15 18 0 19 -7 12 -127z m92 -9 c28 -122 28 -121 2
-129 -31 -10 -37 7 -37 106 0 49 -4 98 -7 110 -5 15 -3 20 6 17 8 -3 23 -46
36 -104z m-359 9 c0 -5 1 -15 5 -23 12 -31 29 -202 21 -209 -17 -15 -136 -53
-149 -48 -15 7 -48 177 -43 227 3 33 6 36 53 47 59 13 116 16 113 6z m-203
-90 c4 -27 13 -71 21 -100 19 -71 18 -100 -6 -113 -21 -11 -201 -53 -205 -48
-8 10 -46 221 -43 240 3 20 15 26 83 45 44 12 94 22 112 22 31 1 32 -1 38 -46z
m-268 -73 c22 -96 28 -206 12 -216 -20 -12 -182 -45 -196 -39 -7 2 -13 17 -13
33 0 16 -6 51 -14 78 -8 27 -17 70 -21 96 -7 56 -3 59 100 78 39 8 74 17 80
22 22 19 40 1 52 -52z m-247 -118 c23 -89 30 -146 18 -158 -9 -8 -219 -36
-226 -30 -11 11 -14 229 -3 245 10 15 134 52 165 48 16 -2 24 -22 46 -105z
m1189 85 c15 -19 30 -135 22 -181 -5 -36 -10 -40 -51 -52 -61 -18 -87 -17 -99
4 -5 9 -12 58 -16 107 -8 100 -4 110 52 121 26 5 32 2 38 -15 9 -29 25 -26 25
4 0 28 12 32 29 12z m71 -7 c0 -11 -4 -20 -10 -20 -5 0 -10 9 -10 20 0 11 5
20 10 20 6 0 10 -9 10 -20z m-298 -77 c3 -16 2 -66 -1 -112 l-6 -84 -45 -13
c-25 -8 -48 -14 -51 -14 -9 0 -51 209 -44 220 3 5 18 10 33 11 15 0 36 4 47 9
40 17 62 12 67 -17z m-189 -40 c16 -58 28 -143 25 -168 -3 -26 -9 -31 -63 -47
-89 -26 -90 -26 -108 40 -37 139 -33 153 53 176 74 19 88 19 93 -1z m-206 -55
c8 -14 24 -113 26 -166 2 -32 0 -33 -68 -57 -38 -13 -78 -24 -88 -25 -9 0 -26
-6 -37 -12 -28 -18 -37 -4 -55 87 -23 120 -22 122 28 136 23 6 67 19 97 30 65
22 86 23 97 7z m-286 -95 c6 -16 15 -53 20 -83 5 -30 12 -65 14 -77 6 -27 -16
-41 -100 -61 -122 -28 -123 -28 -128 9 -3 19 -11 69 -17 112 -6 43 -10 80 -8
81 5 3 107 26 158 35 25 5 46 9 48 10 1 0 7 -11 13 -26z m-236 -53 c4 -16 6
-49 4 -72 -1 -24 1 -50 4 -58 14 -40 16 -69 5 -76 -7 -5 -37 -11 -66 -15 -60
-8 -71 -14 -55 -30 9 -9 43 -7 130 6 109 15 142 22 231 45 17 4 34 5 36 1 2
-3 7 -38 11 -77 l7 -71 -53 -17 c-42 -14 -70 -16 -126 -11 -50 5 -73 3 -73 -4
0 -6 11 -11 25 -11 16 0 25 -6 25 -16 0 -13 -6 -15 -32 -10 -87 19 -101 19
-96 5 3 -9 33 -18 83 -26 68 -10 86 -10 129 4 28 9 57 21 64 26 7 5 15 7 18 4
14 -14 -8 -38 -57 -64 -29 -16 -60 -36 -70 -45 -17 -16 -21 -16 -76 9 -71 32
-113 69 -113 101 0 50 -50 112 -91 112 -30 0 -33 7 -84 153 -27 78 -34 131
-21 145 8 8 100 18 183 20 49 2 52 1 58 -28z m1151 5 c12 -19 15 -37 10 -71
-5 -41 -4 -45 9 -34 8 7 15 27 15 46 0 38 16 54 25 24 8 -24 -11 -128 -26
-146 -18 -22 -35 -17 -86 27 -33 28 -52 55 -61 83 -15 51 -11 63 30 81 47 20
65 18 84 -10z m-215 -82 c5 -15 9 -41 7 -57 -3 -28 -8 -32 -47 -40 -38 -8 -46
-7 -58 10 -8 11 -13 36 -11 59 3 35 6 41 33 46 56 12 65 10 76 -18z m-157 -30
c19 -106 20 -101 -21 -112 -116 -29 -136 -22 -137 54 -1 47 -1 47 44 65 25 10
59 18 77 19 27 1 32 -3 37 -26z m-190 -95 c5 -41 4 -58 -6 -64 -20 -13 -158
-54 -204 -60 l-40 -6 -12 65 c-7 35 -12 69 -12 74 0 22 249 79 261 59 4 -6 10
-36 13 -68z m424 -83 c18 -33 42 -69 53 -81 26 -28 26 -57 -1 -49 -23 7 -140
-12 -157 -27 -8 -6 -18 -6 -31 1 -23 12 -38 105 -27 170 6 35 10 40 38 44 79
11 89 6 125 -58z m-204 -7 c2 -13 9 -50 15 -83 6 -32 7 -62 3 -65 -4 -4 -34
-14 -67 -22 -33 -9 -79 -21 -101 -27 -26 -7 -44 -18 -47 -30 -4 -15 -18 -19
-98 -24 -85 -5 -96 -4 -116 14 -28 28 -45 70 -41 105 5 44 75 73 216 91 34 4
46 1 56 -12 12 -16 13 -15 19 13 5 27 13 33 54 46 73 22 102 20 107 -6z m-484
-205 c24 -55 18 -63 -50 -62 -59 1 -95 12 -95 27 0 12 100 81 117 82 4 0 16
-21 28 -47z m794 15 c8 -13 20 -42 27 -66 7 -23 18 -47 26 -53 7 -6 13 -17 13
-23 0 -6 18 -37 39 -69 26 -38 42 -75 47 -105 6 -47 67 -173 145 -299 23 -37
60 -99 82 -138 22 -38 62 -103 89 -143 111 -166 137 -217 153 -315 9 -50 14
-106 10 -124 -5 -27 -12 -34 -45 -43 -24 -6 -57 -28 -85 -56 -25 -24 -50 -42
-55 -39 -5 3 -14 24 -21 47 -12 46 -75 112 -307 321 -93 84 -145 140 -185 199
-31 45 -53 86 -51 90 3 4 20 8 38 8 40 0 64 23 47 44 -8 10 -8 21 -1 41 22 57
-13 81 -130 92 -45 4 -86 16 -133 40 -63 31 -74 42 -158 155 -91 122 -149 222
-149 256 0 30 19 39 93 46 37 4 98 18 135 33 37 14 86 27 109 29 23 1 50 7 61
13 10 5 42 13 71 17 39 5 59 14 79 35 32 35 37 35 56 7z m-987 -104 c-3 -3
-12 -4 -19 -1 -8 3 -5 6 6 6 11 1 17 -2 13 -5z m1621 -1394 c2 -19 10 -57 19
-84 23 -71 18 -73 -126 -53 l-84 12 63 75 c71 86 78 91 105 88 15 -2 21 -12
23 -38z m-2896 -162 c85 -25 167 -129 168 -211 l0 -38 -37 7 c-21 3 -78 15
-128 25 -112 24 -132 24 -195 -1 -28 -11 -69 -20 -91 -20 -22 0 -88 -9 -147
-19 -227 -42 -332 -50 -333 -27 0 6 37 25 83 42 46 18 172 78 282 133 152 78
208 101 240 102 22 0 50 4 61 9 28 12 52 12 97 -2z m2846 -76 c51 -5 98 -14
105 -21 6 -6 21 -11 33 -11 33 0 37 -26 8 -49 -38 -30 -85 -36 -124 -16 -56
29 -250 18 -280 -16 -19 -22 -235 -93 -258 -84 -13 5 -5 12 33 33 73 40 144
90 195 136 45 41 45 41 120 40 41 -1 117 -7 168 -12z"/>
<path d="M11015 2130 c-3 -5 -1 -10 4 -10 6 0 11 5 11 10 0 6 -2 10 -4 10 -3
0 -8 -4 -11 -10z"/>
<path d="M6910 5995 c-8 -9 -8 -15 -2 -15 12 0 26 19 19 26 -2 2 -10 -2 -17
-11z"/>
<path d="M6718 5855 c-52 -37 -89 -73 -111 -108 -19 -28 -33 -54 -31 -56 2 -2
36 18 75 45 46 31 66 50 55 52 -25 5 -19 17 23 46 43 30 89 76 75 76 -5 0 -44
-25 -86 -55z"/>
<path d="M6749 5810 c-13 -10 -19 -19 -13 -20 7 0 22 9 35 20 13 10 19 19 13
20 -7 0 -22 -9 -35 -20z"/>
<path d="M6271 5506 c-8 -10 -9 -16 -1 -21 13 -8 30 3 30 21 0 18 -14 18 -29
0z"/>
<path d="M6340 5510 c0 -5 7 -10 15 -10 8 0 15 5 15 10 0 6 -7 10 -15 10 -8 0
-15 -4 -15 -10z"/>
<path d="M5985 5420 c-3 -5 -2 -10 4 -10 5 0 13 5 16 10 3 6 2 10 -4 10 -5 0
-13 -4 -16 -10z"/>
<path d="M5940 5390 c-8 -5 -12 -12 -9 -15 4 -3 12 1 19 10 14 17 11 19 -10 5z"/>
<path d="M6209 5327 c-24 -19 -91 -68 -149 -110 -123 -90 -201 -150 -297 -229
-39 -32 -75 -58 -80 -58 -6 0 -29 -20 -52 -45 -23 -25 -45 -45 -49 -45 -4 0
-28 -21 -52 -46 -25 -25 -81 -73 -125 -107 -44 -33 -132 -113 -195 -176 -64
-64 -132 -127 -153 -141 -27 -19 -35 -30 -31 -44 5 -14 2 -18 -9 -13 -18 7
-22 3 -123 -88 -140 -126 -249 -234 -243 -239 5 -6 87 58 271 214 62 53 131
110 154 127 22 18 52 53 65 78 13 25 29 45 36 45 12 0 96 69 223 185 42 39
105 93 139 120 35 28 104 90 154 138 51 48 130 114 177 147 47 32 110 81 140
107 30 27 84 70 120 95 80 56 149 117 134 118 -6 0 -31 -15 -55 -33z"/>
<path d="M5845 5210 c3 -5 8 -10 11 -10 2 0 4 5 4 10 0 6 -5 10 -11 10 -5 0
-7 -4 -4 -10z"/>
<path d="M5765 5112 c-91 -70 -233 -189 -297 -250 -44 -40 -63 -52 -78 -47
-14 4 -22 1 -26 -10 -4 -9 -17 -21 -30 -26 -20 -7 -35 -39 -19 -39 11 0 152
100 170 120 11 13 47 40 79 62 32 21 75 56 93 78 19 22 63 60 98 85 62 45 95
76 79 74 -5 0 -36 -22 -69 -47z"/>
<path d="M5423 4888 c-26 -33 -24 -40 5 -19 18 12 32 24 32 27 0 9 -28 3 -37
-8z"/>
<path d="M5215 4645 c-22 -19 -68 -58 -102 -87 -66 -57 -73 -68 -44 -68 23 0
201 155 201 176 0 21 -11 17 -55 -21z"/>
<path d="M5035 4470 c3 -5 10 -10 16 -10 5 0 9 5 9 10 0 6 -7 10 -16 10 -8 0
-12 -4 -9 -10z"/>
<path d="M4960 4415 c-44 -45 -27 -45 25 0 25 21 34 34 24 35 -8 0 -30 -16
-49 -35z"/>
<path d="M4795 4000 c-32 -33 -56 -62 -53 -66 7 -6 108 61 120 79 10 16 10 47
0 47 -4 0 -34 -27 -67 -60z"/>
<path d="M4595 3827 c-91 -72 -183 -156 -173 -157 4 0 26 17 50 38 24 20 83
66 131 102 79 58 101 80 79 80 -4 0 -43 -28 -87 -63z"/>
<path d="M4415 3791 c-6 -11 9 -23 19 -14 9 9 7 23 -3 23 -6 0 -12 -4 -16 -9z"/>
<path d="M4375 3770 c-3 -5 -1 -10 4 -10 6 0 11 5 11 10 0 6 -2 10 -4 10 -3 0
-8 -4 -11 -10z"/>
<path d="M4633 3711 c-49 -40 -100 -88 -213 -205 -36 -37 -86 -83 -113 -103
-58 -43 -74 -68 -49 -78 12 -5 28 6 57 37 22 25 77 73 122 107 45 34 94 78
108 97 14 19 50 52 78 73 70 53 97 79 97 96 0 26 -37 16 -87 -24z"/>
<path d="M4276 3692 c-50 -34 -63 -63 -17 -36 35 20 67 52 60 58 -2 3 -22 -8
-43 -22z"/>
<path d="M4365 3644 c-179 -150 -339 -301 -476 -446 -123 -130 -139 -153 -139
-190 0 -20 3 -18 22 14 12 21 34 42 50 47 15 6 28 16 28 23 0 22 105 119 121
113 9 -3 24 3 34 15 16 18 16 20 2 20 -42 0 -17 27 343 368 64 60 74 86 15 36z"/>
<path d="M4064 3602 c-5 -4 -17 -19 -27 -34 -10 -16 -24 -28 -32 -28 -8 0 -15
-6 -15 -12 -1 -12 -161 -148 -175 -148 -13 0 -289 -287 -407 -422 -65 -76
-128 -143 -140 -149 -19 -10 -20 -12 -4 -21 14 -8 30 3 83 57 36 37 94 89 129
117 35 27 74 64 86 81 25 36 154 186 231 269 28 31 101 101 160 155 99 88 135
128 125 138 -2 2 -8 1 -14 -3z"/>
<path d="M4080 3515 c-13 -14 -19 -25 -13 -25 12 0 48 38 41 45 -2 3 -15 -6
-28 -20z"/>
<path d="M4320 3505 c-7 -8 -8 -15 -2 -15 5 0 15 7 22 15 7 8 8 15 2 15 -5 0
-15 -7 -22 -15z"/>
<path d="M3865 3310 c-21 -22 -35 -40 -29 -40 5 0 28 18 49 40 21 22 35 40 29
40 -5 0 -28 -18 -49 -40z"/>
<path d="M4062 3279 c2 -6 8 -10 13 -10 5 0 11 4 13 10 2 6 -4 11 -13 11 -9 0
-15 -5 -13 -11z"/>
<path d="M3790 3235 c-11 -13 -10 -14 4 -9 9 3 16 10 16 15 0 13 -6 11 -20 -6z"/>
<path d="M3705 3160 c-3 -5 -2 -10 4 -10 5 0 13 5 16 10 3 6 2 10 -4 10 -5 0
-13 -4 -16 -10z"/>
<path d="M3801 2971 c-18 -23 -31 -44 -29 -46 8 -8 70 63 66 76 -2 7 -18 -6
-37 -30z"/>
<path d="M3660 2899 c0 -5 5 -7 10 -4 6 3 10 8 10 11 0 2 -4 4 -10 4 -5 0 -10
-5 -10 -11z"/>
<path d="M3707 2865 c-15 -19 -27 -40 -27 -47 0 -7 6 -4 12 7 6 11 20 30 31
42 11 13 18 25 16 27 -3 3 -17 -10 -32 -29z"/>
</g>
</svg>
