<?xml version="1.0" standalone="no"?>
<!DOCTYPE svg PUBLIC "-//W3C//DTD SVG 20010904//EN"
 "http://www.w3.org/TR/2001/REC-SVG-20010904/DTD/svg10.dtd">
<svg version="1.0" xmlns="http://www.w3.org/2000/svg"
 width="1280.000000pt" height="758.000000pt" viewBox="0 0 1280.000000 758.000000"
 preserveAspectRatio="xMidYMid meet">
<metadata>
Created by potrace 1.15, written by Peter Selinger 2001-2017
</metadata>
<g transform="translate(0.000000,758.000000) scale(0.100000,-0.100000)"
fill="#000000" stroke="none">
<path d="M10075 7573 c-51 -14 -255 -200 -255 -233 0 -10 -100 -20 -220 -21
-96 -2 -252 -30 -301 -55 -33 -17 -45 -32 -53 -70 -6 -27 -3 -35 21 -52 45
-31 70 -36 78 -13 3 11 18 21 39 25 37 7 96 -10 96 -28 0 -7 -20 -27 -44 -45
-24 -18 -54 -51 -67 -74 -12 -23 -43 -66 -66 -95 -24 -30 -57 -77 -74 -105
-16 -29 -43 -70 -59 -92 -91 -124 -126 -289 -80 -380 11 -22 20 -52 20 -68 0
-43 48 -146 88 -188 78 -84 256 -134 432 -122 l75 5 -116 -118 c-154 -158
-229 -249 -300 -369 -62 -104 -207 -317 -272 -398 -71 -90 -106 -114 -192
-132 -34 -7 -71 -18 -83 -24 -11 -6 -38 -11 -59 -11 -21 -1 -49 -7 -63 -15
-14 -8 -50 -14 -80 -15 -52 0 -168 28 -193 48 -7 4 -34 17 -62 27 -60 23 -176
23 -231 0 -20 -8 -49 -15 -64 -15 -19 0 -35 -11 -58 -39 -28 -34 -39 -40 -84
-46 -61 -8 -113 7 -104 30 10 26 -15 378 -35 489 -10 60 -19 124 -19 141 0 17
-11 46 -25 65 -26 36 -26 56 2 117 21 45 11 63 -32 63 -26 0 -50 11 -88 39
-29 21 -69 46 -89 55 -36 14 -49 38 -28 51 18 11 11 24 -15 31 -17 4 -32 1
-44 -11 -11 -9 -54 -25 -98 -36 -142 -36 -199 -89 -289 -271 l-46 -93 5 -100
c2 -55 10 -112 17 -127 11 -22 9 -40 -8 -110 -33 -132 -53 -238 -46 -249 3 -6
3 -21 0 -33 -5 -21 -14 -24 -78 -31 -125 -12 -706 -15 -804 -4 -76 9 -101 8
-153 -5 -74 -19 -252 -21 -651 -6 -146 5 -348 12 -450 16 -102 3 -282 8 -400
10 -118 2 -255 5 -305 8 -49 3 -207 10 -350 16 -143 6 -300 18 -350 27 -49 9
-121 18 -160 20 -88 5 -118 17 -150 58 -31 42 -32 55 -1 55 14 0 27 4 30 8 10
16 -22 86 -48 107 -28 23 -35 55 -11 55 29 0 14 21 -30 42 -49 24 -57 51 -17
56 53 8 14 38 -78 62 -79 20 -153 60 -112 60 12 0 39 -7 59 -15 45 -19 73 -19
73 0 0 8 8 15 18 15 9 0 24 5 32 10 27 17 -9 38 -115 66 -142 37 -162 40 -186
19 -10 -10 -22 -15 -27 -10 -4 4 -1 10 6 12 23 9 12 23 -17 23 -27 0 -49 15
-39 26 5 4 200 -23 230 -32 10 -3 26 -1 35 5 21 11 19 12 -57 34 -34 10 -46
18 -48 35 -3 19 1 22 27 22 32 0 51 18 31 30 -7 4 -53 14 -102 21 -76 11 -92
17 -100 35 -9 19 -21 22 -100 28 -50 3 -111 6 -136 6 -43 0 -44 1 -38 26 l7
27 -80 -7 c-53 -4 -81 -3 -81 4 0 5 10 10 23 10 12 0 29 5 37 10 12 8 13 11 1
19 -7 5 -21 6 -31 4 -26 -7 -35 16 -14 32 18 14 18 14 -3 15 -12 0 -24 -4 -27
-9 -3 -5 -33 -7 -67 -5 -46 3 -73 -1 -107 -16 -24 -11 -46 -20 -47 -20 -3 0
-15 166 -15 203 0 15 -7 38 -16 52 -10 16 -14 37 -11 57 6 44 -8 78 -33 78
-11 0 -52 -31 -94 -70 -40 -38 -78 -70 -85 -70 -14 0 -14 35 1 77 11 32 10 35
-20 65 -28 28 -34 31 -46 18 -29 -31 -127 -217 -142 -270 -36 -123 -39 -126
-150 -159 -95 -29 -199 -100 -328 -226 -103 -102 -114 -109 -215 -152 -58 -25
-129 -54 -158 -64 -28 -9 -61 -27 -72 -38 -11 -11 -33 -24 -48 -27 -15 -4 -50
-25 -76 -46 -27 -21 -56 -38 -64 -38 -9 0 -37 -19 -64 -42 -26 -24 -73 -63
-105 -88 -81 -64 -140 -127 -174 -187 -28 -50 -30 -59 -30 -161 0 -71 4 -114
13 -125 15 -21 116 -45 322 -76 65 -10 141 14 213 69 29 22 60 40 70 40 9 0
50 11 91 25 46 16 93 25 125 24 28 -1 78 1 111 5 33 4 134 8 225 10 91 1 174
6 185 9 15 5 32 -4 66 -36 45 -41 47 -45 85 -192 39 -149 39 -151 38 -335 -1
-162 -4 -194 -23 -255 -36 -113 -44 -481 -17 -717 13 -114 17 -126 71 -233 31
-63 69 -127 86 -143 55 -54 226 -136 359 -173 61 -17 68 -25 42 -52 -11 -12
-28 -39 -36 -58 -10 -24 -30 -45 -59 -62 -25 -15 -77 -53 -116 -85 -75 -62
-143 -92 -202 -92 -59 0 -68 -19 -75 -156 -7 -142 -22 -190 -104 -329 -32 -55
-74 -134 -93 -175 -83 -179 -126 -281 -156 -365 -51 -146 -100 -232 -146 -260
-49 -29 -120 -111 -141 -162 -9 -21 -34 -74 -56 -118 -23 -44 -44 -93 -47
-110 l-7 -30 -102 -2 c-82 -2 -108 1 -129 14 -17 11 -78 22 -191 35 -92 9
-201 22 -242 27 -122 16 -160 14 -160 -8 0 -17 10 -20 82 -25 211 -16 403 -46
422 -67 8 -9 2 -10 -29 -4 -22 4 -76 10 -120 12 -339 18 -355 17 -355 -21 0
-20 6 -24 46 -30 26 -3 74 -6 107 -6 33 0 105 -7 161 -15 97 -14 213 -26 266
-26 108 -1 400 -23 465 -35 44 -8 99 -12 121 -8 39 6 74 3 326 -28 74 -8 104
-8 123 0 61 28 11 48 -155 62 -69 7 -160 20 -204 30 -75 18 -105 30 -75 30 8
0 31 9 52 20 46 25 195 29 472 14 182 -11 277 -11 485 1 63 3 176 7 250 9 90
2 148 9 175 19 48 18 77 23 283 43 98 9 195 12 257 9 180 -12 518 -12 563 -1
40 10 45 9 60 -12 24 -31 53 -34 292 -23 118 5 312 9 430 9 118 -1 260 -1 315
0 107 2 270 -10 455 -33 220 -27 359 -38 411 -32 29 4 96 2 148 -3 53 -6 202
-14 332 -19 212 -8 239 -11 271 -31 33 -19 60 -22 304 -31 148 -6 352 -13 454
-16 102 -2 189 -9 194 -14 12 -11 -5 -16 -84 -24 -70 -7 -96 -17 -86 -33 4 -7
15 -7 34 0 20 8 50 5 125 -11 54 -12 102 -19 107 -16 5 3 113 6 242 6 171 1
257 -3 323 -14 256 -45 364 -59 412 -54 45 5 58 2 98 -24 25 -16 44 -33 41
-37 -10 -17 -202 7 -293 38 -95 31 -162 37 -207 20 -38 -14 -472 6 -571 26
-99 21 -315 27 -682 18 -207 -6 -273 -10 -273 -20 0 -17 102 -22 480 -23 362
0 542 -12 736 -46 72 -13 167 -27 210 -30 44 -4 102 -11 131 -16 34 -7 58 -7
70 0 13 6 47 2 118 -15 62 -16 117 -23 144 -21 60 6 232 -9 366 -32 107 -19
279 -40 380 -47 28 -2 76 -7 108 -10 52 -6 57 -5 57 14 0 11 7 25 15 32 12 10
20 9 42 -6 16 -10 33 -19 38 -19 6 -1 26 -4 45 -8 27 -6 50 -2 99 18 67 26 95
26 105 -2 6 -15 8 -15 19 1 11 15 24 16 148 6 74 -6 164 -11 199 -10 235 1
1223 -10 1260 -15 40 -5 113 -10 295 -19 33 -2 96 -8 140 -14 44 -7 121 -16
170 -22 50 -6 117 -15 150 -21 33 -6 87 -12 120 -14 33 -2 82 -8 110 -14 27
-5 52 -8 53 -6 12 11 -16 23 -80 34 -40 7 -89 17 -108 22 -127 33 -404 90
-505 104 -66 9 -149 21 -185 27 -62 11 -319 18 -865 22 -154 2 -306 -3 -395
-11 -80 -8 -170 -16 -200 -19 -74 -7 -246 8 -241 21 2 6 37 22 78 36 41 15 80
32 86 38 6 6 20 11 32 11 44 0 318 208 403 307 26 30 73 85 105 121 33 37 64
78 70 92 6 14 24 40 40 59 29 34 107 184 107 206 0 6 18 42 41 79 22 37 49 91
59 119 10 29 30 79 44 112 14 33 26 70 26 81 0 12 11 55 25 97 22 69 52 220
104 537 25 147 41 315 41 420 0 41 4 80 8 86 4 6 28 25 54 43 26 17 76 69 110
114 34 45 96 120 138 167 85 94 166 211 199 286 12 27 35 66 52 87 17 20 38
61 48 90 22 64 94 208 131 262 15 22 53 90 86 150 32 61 70 127 85 148 15 21
42 73 59 115 44 107 52 116 122 155 47 26 85 38 148 47 175 25 192 25 250 -5
77 -39 142 -54 193 -44 23 4 45 8 50 9 4 0 7 15 7 33 l0 34 -57 0 c-34 0 -71
7 -90 16 -18 10 -40 17 -50 17 -46 0 -94 22 -108 49 -30 60 -30 105 3 174 25
55 35 67 66 77 55 18 88 5 145 -55 l51 -53 -15 -43 c-17 -46 -12 -57 25 -61
25 -3 25 -3 28 98 3 101 3 102 -26 126 -19 16 -54 29 -98 37 -66 12 -73 11
-151 -14 -46 -14 -83 -28 -83 -32 0 -3 12 -2 26 1 44 11 25 -25 -24 -46 -43
-18 -44 -18 -49 2 -9 34 -49 23 -209 -57 -69 -34 -73 -38 -112 -112 -22 -42
-48 -100 -58 -130 -9 -30 -33 -77 -52 -105 -47 -70 -80 -138 -108 -219 -13
-38 -59 -130 -102 -205 -44 -75 -103 -186 -131 -246 -28 -60 -62 -123 -74
-140 -13 -17 -30 -44 -38 -61 -59 -118 -171 -310 -210 -360 -25 -33 -56 -78
-67 -100 -12 -22 -54 -75 -94 -118 -89 -95 -108 -97 -108 -8 -1 73 -42 326
-70 426 -33 118 -115 329 -162 414 -22 42 -53 100 -69 129 -15 29 -55 85 -89
123 -33 39 -60 74 -60 79 0 13 59 30 103 30 77 0 341 95 527 190 52 27 171 83
263 126 93 42 187 91 210 108 23 17 67 47 97 65 30 19 84 52 120 74 35 22 87
49 115 61 27 11 82 39 120 61 131 77 250 133 330 155 100 29 244 32 292 6 18
-9 35 -16 39 -16 13 0 -8 202 -27 257 -10 30 -41 96 -68 146 -27 51 -74 159
-105 242 l-56 149 -1 155 c0 207 32 362 74 348 5 -1 21 -50 36 -107 15 -58 54
-199 87 -313 l59 -209 3 133 c2 113 0 137 -16 168 -21 39 -74 206 -92 286 -16
73 -34 259 -31 340 2 94 -23 165 -94 261 -53 72 -62 78 -147 118 l-91 42 70
52 c96 71 173 154 173 187 0 37 -37 52 -78 31 -49 -25 -151 -112 -227 -192
l-70 -74 -70 -10 c-38 -5 -92 -10 -118 -10 l-49 0 58 83 c99 141 104 149 104
178 0 50 -33 36 -83 -33 -79 -111 -103 -152 -127 -211 -18 -47 -30 -62 -61
-77 -51 -27 -60 -26 -113 15 -26 19 -55 35 -65 35 -36 0 -41 22 -15 65 39 66
28 102 -20 64 -15 -12 -35 -38 -46 -60 -15 -28 -29 -41 -53 -47 -17 -5 -33 -5
-35 -1 -2 5 13 44 32 87 46 102 47 153 3 136 -21 -8 -79 -123 -111 -220 -18
-55 -38 -93 -59 -115 -29 -29 -35 -46 -46 -119 -15 -99 -11 -219 12 -379 22
-143 63 -250 119 -308 l41 -41 1 -144 c1 -132 3 -148 28 -203 25 -58 50 -128
103 -300 29 -92 188 -412 249 -499 23 -32 46 -65 51 -73 13 -18 -18 -44 -110
-93 -78 -42 -87 -36 -79 50 16 152 -77 458 -190 625 -14 20 -29 53 -32 73 -14
72 -118 260 -167 301 -14 11 -15 30 -10 126 5 87 2 130 -11 191 -28 124 -30
126 -51 69 -10 -28 -21 -54 -25 -58 -4 -4 -17 16 -30 45 -12 29 -33 67 -46 85
-15 20 -24 45 -24 67 0 20 -5 36 -10 36 -22 0 -60 -53 -60 -83 0 -22 -14 -46
-48 -86 -26 -31 -60 -75 -75 -98 -16 -23 -35 -44 -43 -47 -28 -11 -44 5 -44
43 0 20 -4 62 -10 94 -19 115 -145 248 -279 293 -35 12 -76 31 -90 42 -25 18
-25 21 -13 53 8 19 16 43 19 54 6 19 5 19 -13 3 -25 -21 -70 -33 -78 -19 -4 6
-24 8 -49 5 -47 -6 -137 21 -145 44 -3 11 6 12 43 6 35 -5 46 -4 41 5 -4 6
-16 11 -27 11 -30 0 -97 37 -113 63 -19 29 -31 77 -19 77 5 0 17 -16 26 -36
14 -28 31 -42 82 -66 45 -20 76 -29 97 -26 17 3 52 -3 77 -12 48 -18 71 -17
71 4 0 21 -69 94 -121 127 -51 34 -76 78 -48 88 7 2 30 19 49 38 19 18 48 43
63 56 54 43 55 161 2 217 l-27 29 82 92 c45 52 88 106 97 122 25 50 20 106
-17 176 -40 75 -83 114 -170 155 -60 28 -75 30 -185 33 -66 1 -129 -1 -140 -4z
m135 -63 c39 -12 86 -35 111 -55 24 -19 48 -35 53 -35 13 0 108 -70 128 -94
21 -25 22 -53 5 -82 -6 -12 -22 -40 -35 -63 -13 -23 -29 -44 -37 -48 -9 -3
-38 16 -74 50 -83 77 -194 128 -286 133 -108 6 -179 26 -183 51 -4 24 82 103
151 141 51 27 81 28 167 2z m-150 -225 c136 -29 202 -50 213 -70 4 -9 25 -24
45 -35 20 -11 54 -35 76 -54 l38 -35 -22 -30 c-24 -35 -45 -39 -80 -14 -14 10
-33 16 -42 15 -21 -4 -75 23 -108 53 -28 26 -105 67 -165 88 -155 56 -195 72
-195 78 0 11 51 27 90 28 19 1 87 -10 150 -24z m-722 -53 c5 -17 -27 -27 -41
-13 -9 9 -8 14 3 21 18 11 32 8 38 -8z m72 8 c0 -5 -7 -10 -16 -10 -8 0 -12 5
-9 10 3 6 10 10 16 10 5 0 9 -4 9 -10z m10 -39 c0 -12 -25 -21 -58 -21 -42 0
-4 24 46 29 6 0 12 -3 12 -8z m174 -1 c-14 -14 -106 -24 -140 -16 -47 12 -7
26 76 26 50 0 71 -3 64 -10z m345 -31 c78 -26 104 -41 162 -91 38 -32 73 -67
79 -78 22 -41 3 -117 -21 -79 -6 11 -9 10 -15 -4 -10 -28 -24 -19 -24 16 l0
32 -18 -23 c-21 -27 -34 -19 -25 16 4 17 2 23 -5 18 -15 -9 -21 -66 -26 -226
-3 -74 -7 -170 -10 -214 -7 -89 0 -126 21 -126 10 0 12 6 8 21 -10 30 16 20
35 -14 17 -31 8 -46 -16 -26 -16 13 -17 12 -11 -12 4 -15 1 -32 -6 -41 -6 -8
-60 -26 -119 -41 -140 -34 -263 -82 -302 -118 -26 -24 -29 -30 -16 -39 8 -5
38 -10 67 -10 41 0 58 -5 82 -26 35 -29 40 -59 14 -72 -10 -5 -49 -15 -87 -22
-117 -22 -288 2 -403 56 -55 26 -133 107 -133 138 0 14 -9 43 -20 64 -28 53
-52 170 -39 193 5 10 9 33 9 51 1 43 23 90 101 214 35 56 72 116 82 134 15 27
20 30 33 19 8 -7 20 -21 25 -32 9 -15 6 -22 -11 -34 -18 -13 -20 -17 -8 -24
25 -14 58 1 58 27 0 13 9 28 19 34 28 15 71 13 71 -4 0 -7 -48 -55 -106 -107
-152 -135 -195 -209 -141 -244 30 -19 97 -8 177 29 39 18 72 26 113 26 61 0
71 10 33 35 -36 24 -55 22 -128 -14 -79 -39 -170 -49 -176 -19 -3 18 64 89
201 213 64 59 91 105 70 126 -5 5 -41 12 -79 15 -120 10 -114 40 9 50 43 4 80
11 83 15 7 13 -40 22 -91 17 -30 -2 -45 1 -45 9 0 6 28 36 63 67 62 56 125 86
179 86 15 0 28 4 28 9 0 51 121 56 259 10z m2151 -153 c0 -3 -4 -8 -10 -11 -5
-3 -10 -1 -10 4 0 6 5 11 10 11 6 0 10 -2 10 -4z m377 -53 c12 -31 -148 -163
-198 -163 -18 0 154 179 174 179 10 1 21 -7 24 -16z m-917 -8 c0 -8 -4 -15
-10 -15 -5 0 -7 7 -4 15 4 8 8 15 10 15 2 0 4 -7 4 -15z m-1231 -80 c40 -20
47 -45 19 -67 l-23 -18 33 0 c48 0 50 -23 7 -75 -58 -71 -111 -55 -117 35 -3
44 -2 45 32 50 l34 5 -27 12 c-18 9 -27 20 -27 36 0 41 21 47 69 22z m-203
-102 c-10 -10 -19 5 -10 18 6 11 8 11 12 0 2 -7 1 -15 -2 -18z m1954 -32 c0
-5 -19 -24 -42 -42 -24 -18 -64 -53 -90 -77 l-47 -45 -20 24 c-26 30 -36 59
-24 69 4 4 39 24 76 44 66 35 147 49 147 27z m333 -45 c145 -99 207 -242 194
-441 -6 -88 -60 -253 -100 -307 -72 -97 -107 -115 -232 -125 -99 -7 -144 7
-182 59 -17 24 -49 66 -71 95 -54 69 -58 77 -88 185 -36 134 -47 268 -27 340
13 48 24 64 78 111 34 31 91 74 126 96 l64 40 90 -6 c83 -6 93 -9 148 -47z
m-693 9 c48 -31 51 -53 11 -103 -53 -68 -72 -141 -81 -307 -13 -236 10 -336
100 -440 47 -54 48 -58 55 -195 11 -224 14 -240 46 -327 61 -169 236 -452 331
-538 27 -24 47 -48 45 -52 -3 -5 -57 -35 -121 -67 -100 -51 -118 -57 -132 -45
-24 20 -83 115 -117 189 -17 36 -50 98 -74 138 -25 40 -62 119 -83 176 -21 57
-43 113 -49 125 -18 33 -71 307 -80 416 -9 105 -4 125 30 125 28 0 23 19 -8
31 -35 13 -43 26 -43 72 0 45 -18 49 -22 5 -4 -44 -35 -45 -60 -2 -15 25 -16
36 -7 62 11 33 23 40 34 22 15 -25 21 -6 12 35 -8 35 -7 48 2 58 15 15 49 -22
87 -95 22 -44 44 -62 44 -38 0 18 -30 73 -71 127 -46 61 -50 77 -14 61 28 -13
45 -4 27 14 -20 20 -14 38 12 38 36 0 42 18 9 26 -48 10 -53 13 -53 30 0 9 12
43 26 75 23 50 25 61 13 75 -12 15 -15 14 -31 -6 -10 -12 -18 -31 -18 -41 0
-11 -7 -19 -16 -19 -16 0 -16 20 3 100 6 22 4 23 -10 12 -24 -20 -34 -8 -42
48 -5 36 -17 62 -41 92 -19 22 -33 46 -31 52 2 7 31 11 71 11 68 0 83 -7 100
-49 5 -13 26 12 26 31 0 6 -23 24 -52 40 -87 47 -75 58 70 61 51 2 70 -3 102
-23z m126 -114 c25 -38 26 -45 23 -158 -5 -182 7 -273 51 -383 20 -52 40 -119
44 -149 4 -30 16 -71 26 -92 20 -37 20 -38 0 -44 -10 -3 -42 2 -71 12 -56 20
-107 71 -134 136 -8 19 -19 38 -24 41 -5 3 -26 50 -47 103 -37 93 -39 104 -38
203 1 153 28 288 66 334 40 49 70 48 104 -3z m-429 -31 c21 -46 63 -257 62
-316 0 -71 -21 -190 -38 -222 -25 -47 -48 -8 -50 85 -1 28 -10 89 -21 135 -22
91 -28 277 -10 323 12 33 40 30 57 -5z m-1269 -145 c-3 -3 -9 2 -12 12 -6 14
-5 15 5 6 7 -7 10 -15 7 -18z m222 -75 c0 -5 -5 -10 -11 -10 -5 0 -7 5 -4 10
3 6 8 10 11 10 2 0 4 -4 4 -10z m-295 -51 c11 -17 -56 -106 -115 -153 -93 -73
-88 -72 -164 -14 -36 28 -66 54 -66 59 0 15 45 39 83 46 20 3 40 10 43 14 3 5
15 9 27 9 12 0 56 11 97 24 91 29 87 29 95 15z m49 -24 c-15 -22 -34 -34 -34
-20 0 14 26 45 38 45 9 0 8 -7 -4 -25z m164 1 c10 -11 -7 -18 -53 -24 -27 -3
-44 -9 -42 -16 4 -13 -4 -13 119 -3 85 6 100 5 130 -12 18 -11 60 -25 93 -31
33 -7 72 -21 87 -31 14 -11 31 -19 37 -19 6 0 36 -24 67 -54 59 -58 99 -139
110 -220 7 -51 1 -57 -86 -75 -30 -7 -84 -25 -120 -41 -36 -15 -105 -47 -155
-69 -154 -68 -334 -103 -545 -105 -69 -1 -85 2 -85 14 0 8 59 63 130 123 101
85 152 119 230 156 55 27 111 51 125 55 55 16 81 29 70 36 -34 21 -258 -74
-366 -156 -122 -93 -294 -266 -363 -367 -38 -56 -84 -120 -102 -143 -165 -200
-251 -298 -305 -348 -36 -32 -71 -73 -78 -91 -12 -28 -34 -43 -164 -109 -203
-102 -435 -165 -527 -142 -25 6 -26 8 -10 20 17 12 17 14 -5 29 l-22 16 21 34
c11 19 24 55 27 80 7 52 12 55 95 64 l58 6 7 -37 c3 -21 4 -59 2 -87 -3 -27
-1 -49 3 -49 21 0 41 53 43 117 l3 68 44 21 c24 12 82 33 129 48 47 16 92 31
102 34 24 10 199 248 255 347 132 237 138 247 276 410 121 144 273 271 312
261 11 -3 30 -6 42 -6 11 0 49 -21 82 -46 34 -26 64 -44 66 -42 3 3 -11 25
-31 51 -43 55 -41 61 46 152 32 33 70 85 85 115 41 83 42 83 103 77 30 -3 57
-8 60 -11z m-8449 -153 c35 -133 40 -216 16 -263 -17 -33 -60 -68 -123 -99
l-44 -22 7 103 c6 81 14 118 37 173 30 73 75 145 89 145 5 0 13 -17 18 -37z
m-214 -26 c3 -12 5 -52 3 -87 l-3 -65 -47 -3 c-60 -4 -61 6 -13 106 36 75 51
87 60 49z m8325 -29 c0 -21 -61 -51 -74 -37 -8 8 -8 13 0 16 6 2 20 10 30 18
24 18 44 19 44 3z m1217 -134 c30 -55 32 -66 33 -158 0 -93 -2 -102 -37 -172
-45 -92 -36 -115 25 -60 22 20 45 36 51 36 42 0 163 -142 182 -214 16 -61 67
-174 105 -231 36 -55 67 -140 113 -317 27 -100 31 -133 30 -235 0 -66 -6 -133
-13 -152 -16 -45 -104 -98 -228 -139 -51 -17 -140 -53 -198 -80 -58 -27 -127
-57 -155 -65 -27 -8 -66 -22 -86 -31 -20 -8 -78 -25 -130 -36 -52 -12 -142
-35 -200 -51 -136 -37 -151 -37 -204 6 -24 20 -96 66 -162 103 -65 38 -119 74
-121 82 -4 22 62 62 111 67 58 7 87 -9 87 -48 l0 -30 31 23 c24 18 29 28 25
49 -6 33 42 178 90 269 41 78 48 81 126 54 33 -11 56 -28 81 -60 40 -51 99
-100 142 -119 17 -7 43 -24 58 -39 33 -30 45 -32 95 -10 l37 16 -60 17 c-84
24 -111 44 -211 149 -48 51 -103 101 -123 111 -85 43 -204 50 -287 15 -24 -10
-50 -13 -74 -9 -35 6 -40 4 -65 -29 -17 -22 -36 -36 -49 -36 -13 0 -58 -30
-106 -71 -115 -97 -124 -103 -149 -89 -20 10 -20 13 -6 39 20 39 109 117 233
204 185 130 152 119 347 113 94 -3 201 -12 240 -21 40 -9 73 -11 78 -6 11 11
-16 17 -150 34 -57 8 -105 16 -108 19 -3 2 0 19 6 36 11 32 11 32 82 32 143 0
297 57 395 145 60 54 71 81 15 37 -56 -44 -121 -74 -188 -88 -33 -7 -85 -18
-115 -25 -58 -12 -213 -6 -240 11 -11 7 -12 14 -4 32 30 65 34 91 17 110 -15
17 -28 18 -143 12 -144 -8 -123 -15 -272 94 -48 35 -105 83 -127 108 -34 39
-39 49 -30 70 5 14 9 50 9 80 l0 54 51 0 c80 0 232 36 425 101 324 108 377
118 428 78 14 -11 26 -26 26 -33 0 -15 27 -40 52 -49 15 -5 17 1 17 47 -1 46
7 70 51 157 61 121 88 161 104 156 6 -2 25 -30 43 -63z m-9575 -45 c18 -10 19
-17 13 -70 -6 -50 -4 -63 11 -80 9 -10 26 -19 36 -19 10 0 32 -9 47 -21 26
-19 33 -20 77 -9 121 29 235 43 247 30 9 -9 7 -15 -9 -26 -15 -10 -20 -22 -17
-35 5 -19 12 -21 82 -18 73 4 101 -2 101 -21 0 -14 -55 -40 -85 -40 -35 0 -31
-15 8 -27 28 -8 32 -13 30 -42 -2 -50 -31 -129 -69 -188 -19 -29 -34 -57 -34
-62 0 -5 -7 -17 -16 -25 -12 -12 -28 -15 -67 -10 -54 6 -113 -9 -102 -26 3 -5
33 -7 70 -3 48 4 65 3 65 -6 0 -27 -21 -49 -55 -55 -39 -8 -40 -9 -25 -37 21
-39 -98 -182 -203 -243 -43 -25 -53 -27 -107 -21 -45 5 -73 16 -108 40 -69 47
-83 49 -144 21 -90 -42 -158 -58 -198 -46 -19 5 -102 10 -185 11 -207 1 -199
-2 -203 88 -2 44 1 78 8 85 7 7 102 13 263 17 139 4 271 10 295 14 43 8 58 25
21 25 -11 0 -17 5 -14 10 3 6 20 10 37 10 16 0 56 7 88 15 90 23 214 43 241
39 30 -5 112 19 117 34 2 8 -14 12 -50 12 -72 -1 -312 -25 -428 -44 -52 -8
-135 -17 -185 -20 -49 -3 -179 -10 -288 -17 -220 -13 -227 -11 -262 44 -11 18
-27 32 -35 32 -24 1 -129 35 -135 44 -8 14 37 48 90 69 28 11 100 41 160 67
61 26 124 52 140 57 17 6 80 34 140 61 102 47 117 58 205 147 99 99 200 170
243 170 14 0 29 5 32 10 3 6 19 10 36 10 19 0 40 11 61 30 35 34 33 33 60 19z
m10558 -104 c70 -36 162 -21 244 37 67 48 71 44 73 -88 2 -104 7 -129 44 -247
40 -128 118 -301 163 -362 29 -39 96 -206 96 -239 l0 -26 -94 0 c-105 0 -186
-16 -320 -63 l-89 -31 -36 42 c-20 23 -60 81 -90 129 -30 48 -65 99 -77 113
-13 14 -30 45 -39 70 -8 24 -21 51 -29 60 -25 30 -115 236 -135 310 -39 149
-52 265 -31 286 7 7 25 4 58 -12 26 -13 71 -24 100 -26 48 -3 55 -1 69 23 15
24 14 28 -7 57 -35 47 -15 61 29 19 20 -19 52 -43 71 -52z m-853 -24 c5 -69 4
-81 -11 -87 -9 -4 -20 -3 -24 1 -8 8 -4 164 5 178 13 21 25 -16 30 -92z
m-9137 79 c0 -5 -3 -10 -7 -10 -5 0 -18 -3 -30 -6 -13 -4 -23 -2 -23 4 0 10
19 18 48 21 6 0 12 -3 12 -9z m5293 -22 c58 -32 56 -53 -6 -54 -37 -2 -61 -10
-103 -38 l-55 -37 -14 35 c-8 20 -15 53 -15 75 0 33 4 40 23 45 45 9 128 -3
170 -26z m-5433 -7 c0 -12 -74 -41 -105 -41 -26 0 -33 14 -13 26 27 17 118 29
118 15z m5200 -40 c12 -24 14 -131 1 -131 -5 0 -21 16 -35 35 -23 30 -30 33
-47 25 -26 -15 -50 -74 -43 -110 4 -16 22 -47 40 -69 19 -21 34 -48 34 -58 0
-24 -65 -151 -93 -180 -32 -36 1 -28 39 8 35 34 54 32 54 -7 0 -36 47 -123 73
-135 18 -8 35 -6 75 10 29 12 55 21 57 21 16 0 31 -59 24 -95 -20 -104 1 -306
58 -560 20 -90 28 -154 31 -257 1 -76 -1 -138 -5 -138 -13 0 -43 55 -43 79 0
11 -15 31 -33 45 -30 23 -37 24 -71 15 -21 -6 -44 -8 -51 -5 -27 10 -174 250
-264 431 -41 82 -65 223 -57 335 7 93 22 160 36 160 4 0 26 -21 48 -46 23 -27
44 -44 51 -40 7 5 2 15 -15 29 -40 35 -65 151 -70 329 l-4 146 51 81 c40 63
59 83 83 90 49 14 64 12 76 -8z m321 -44 c72 -55 41 -287 -58 -429 -14 -21
-32 -38 -39 -38 -7 0 -22 -13 -33 -28 -14 -21 -35 -32 -73 -41 -82 -20 -90
-16 -115 59 -31 92 -30 168 2 265 15 44 29 91 33 104 7 23 38 47 132 100 40
23 126 27 151 8z m2271 -209 c-2 -18 -11 -41 -19 -50 -14 -15 -5 -27 100 -131
63 -63 129 -123 146 -133 17 -10 33 -24 36 -32 13 -35 -100 -196 -240 -339
-63 -65 -115 -119 -115 -121 0 -5 55 32 99 67 41 33 108 107 246 270 33 39 68
74 79 77 13 4 31 -6 60 -34 61 -59 126 -99 234 -146 103 -44 117 -61 83 -95
-18 -18 -33 -21 -119 -21 l-98 0 -110 -77 c-202 -142 -310 -241 -328 -300 -9
-28 17 -79 43 -86 12 -3 37 6 63 23 69 44 199 147 215 169 20 29 37 27 29 -4
-4 -14 -2 -25 3 -25 5 0 13 16 18 36 4 21 15 40 23 44 135 65 181 74 220 42
l22 -18 -31 -49 c-16 -28 -42 -90 -56 -139 -14 -50 -28 -92 -30 -94 -3 -3 -20
3 -38 12 -32 18 -33 18 -100 -12 -37 -17 -89 -45 -114 -62 l-46 -31 -141 40
c-153 44 -223 57 -361 67 -77 5 -107 2 -205 -20 -63 -15 -137 -34 -165 -43
-72 -23 -268 -117 -284 -136 -7 -10 -24 -17 -36 -17 -12 0 -28 -7 -35 -15 -6
-7 -35 -27 -64 -44 -69 -39 -254 -179 -266 -201 -5 -10 -22 -31 -37 -47 -16
-16 -50 -57 -78 -92 -27 -35 -62 -77 -76 -95 -46 -55 -183 -278 -242 -394
-103 -201 -267 -654 -283 -782 -14 -110 -22 -120 -60 -79 -18 20 -18 21 5 38
20 15 23 26 24 99 l2 81 -66 68 c-86 89 -99 109 -99 160 0 35 6 48 38 78 l37
37 6 111 c6 109 8 118 77 297 39 102 85 235 101 296 53 196 136 369 216 450
49 49 52 51 160 73 61 12 124 26 140 31 17 4 75 13 130 20 101 12 195 29 295
55 30 7 96 24 145 36 50 12 112 30 138 40 26 11 62 19 79 19 33 0 53 5 158 39
51 16 90 21 180 21 123 0 165 11 117 29 -16 6 -46 11 -68 11 -25 0 -39 5 -39
13 0 13 101 69 150 83 26 7 244 214 235 223 -3 2 -24 -14 -48 -36 -23 -23 -75
-64 -116 -92 -71 -48 -111 -63 -111 -41 0 20 -32 9 -58 -19 -34 -37 -119 -68
-412 -152 -121 -34 -263 -82 -285 -95 -11 -7 -54 -18 -95 -25 -41 -7 -81 -17
-88 -22 -9 -7 -16 -7 -24 1 -8 8 -5 30 12 80 15 49 21 88 18 127 l-3 57 110
37 c129 44 180 66 216 92 48 34 161 68 252 74 56 4 87 11 87 18 0 7 -25 23
-55 36 -30 13 -55 29 -55 35 1 6 68 83 151 171 82 88 165 183 183 210 18 28
59 90 91 139 65 99 113 158 124 151 4 -2 6 -19 3 -37z m-7602 -11 c0 -40 -102
-249 -135 -277 -26 -22 -18 8 24 90 21 41 46 100 56 130 10 30 20 58 22 63 7
12 33 8 33 -6z m135 -18 c74 -22 75 -36 5 -41 -66 -4 -60 -29 10 -43 67 -14
147 -66 156 -102 4 -15 17 -29 35 -35 23 -8 29 -16 29 -39 0 -25 4 -29 28 -29
33 0 112 -35 112 -49 0 -6 -10 -10 -21 -8 -38 4 -32 -21 10 -43 45 -23 48 -28
25 -44 -20 -15 -11 -36 26 -61 18 -12 35 -36 42 -60 9 -28 23 -46 48 -60 45
-26 130 -111 130 -129 0 -10 -11 -14 -37 -14 -43 1 -362 25 -503 38 -52 5
-189 14 -305 20 -257 13 -306 18 -325 31 -12 7 0 24 65 87 44 43 95 98 114
122 62 77 179 280 216 374 34 83 48 105 66 106 4 0 37 -9 74 -21z m7545 9 c0
-7 -5 -20 -10 -28 -12 -19 -35 2 -27 24 7 19 37 21 37 4z m-2252 -51 c17 -20
37 -237 36 -382 -5 -563 -10 -691 -24 -719 -11 -23 -12 -30 -2 -34 17 -5 15
-40 -8 -115 -24 -78 -40 -95 -75 -79 -23 10 -25 17 -25 72 0 54 2 60 21 60 18
0 20 5 16 28 -19 99 -40 220 -53 302 -9 52 -26 143 -40 201 -39 170 -27 325
30 408 14 20 26 49 26 64 0 15 8 44 19 65 10 20 26 61 35 90 18 54 26 61 44
39z m-5078 -117 c0 -5 -2 -10 -4 -10 -3 0 -8 5 -11 10 -3 6 -1 10 4 10 6 0 11
-4 11 -10z m-2126 -135 c78 -18 150 -63 154 -95 2 -14 18 -40 35 -58 28 -29
32 -40 35 -102 6 -103 7 -103 -80 -79 -93 26 -110 41 -106 92 2 30 -2 43 -15
51 -21 13 -33 -2 -43 -54 -4 -19 -22 -51 -40 -70 -120 -129 -183 -190 -196
-190 -9 0 -30 12 -47 26 -45 38 -42 74 9 115 45 37 55 80 21 99 -29 15 -35 13
-53 -17 -17 -27 -17 -27 -18 -5 0 37 35 94 102 169 35 38 75 84 91 101 31 37
57 40 151 17z m581 -115 c3 -5 -1 -10 -9 -10 -9 0 -16 5 -16 10 0 6 4 10 9 10
6 0 13 -4 16 -10z m9433 -36 c33 -7 27 -22 -16 -35 -34 -10 -44 -8 -81 10 -23
12 -39 25 -37 30 5 8 87 5 134 -5z m-2165 -131 c20 -13 37 -27 37 -32 0 -5
-41 -14 -92 -20 -51 -7 -95 -15 -98 -18 -3 -3 45 -3 107 1 114 7 153 -3 96
-25 -15 -6 -44 -19 -64 -28 -32 -16 -50 -17 -144 -9 -107 9 -145 19 -145 39 0
28 35 72 68 86 52 22 153 42 177 36 11 -3 37 -17 58 -30z m-5023 -9 c64 -11
178 -17 350 -19 140 -2 325 -8 410 -14 177 -12 507 -17 516 -8 3 3 16 2 29 -3
36 -14 949 -29 1220 -20 11 0 124 0 250 -1 422 -1 599 3 704 17 146 20 171 19
171 -5 0 -16 -9 -21 -42 -25 -65 -9 -384 -26 -658 -36 -135 -5 -321 -11 -415
-15 -93 -3 -357 -8 -585 -10 -534 -6 -858 -14 -990 -24 -58 -4 -193 -9 -300
-10 -107 -2 -197 -4 -201 -7 -4 -2 -96 -3 -205 -3 -110 0 -249 0 -310 -1
l-112 -2 -11 35 c-7 20 -30 56 -52 81 -43 49 -37 57 24 31 56 -23 67 -20 67
20 0 42 2 42 140 19z m-2658 -74 c39 -11 60 -31 40 -38 -7 -2 -38 -23 -70 -47
-87 -65 -149 -88 -222 -83 -83 6 -90 16 -51 71 40 55 97 88 170 97 83 11 93
11 133 0z m7255 -6 c8 -22 -14 -33 -56 -27 -70 11 -67 43 5 43 32 0 46 -5 51
-16z m-6943 -3 c3 -5 -1 -12 -10 -15 -35 -13 -99 -2 -88 15 3 5 25 9 49 9 24
0 46 -4 49 -9z m7544 -41 c5 -32 -14 -94 -33 -110 -13 -10 -32 -8 -103 10
-114 30 -125 40 -77 70 39 24 157 60 190 57 13 -1 21 -11 23 -27z m-1513 -55
c27 -87 137 -305 204 -405 28 -41 51 -82 51 -91 0 -9 -13 -33 -30 -54 -16 -21
-30 -42 -30 -46 0 -5 23 -20 50 -34 28 -14 53 -32 56 -40 3 -8 14 -17 24 -20
10 -3 24 -20 30 -38 16 -45 24 -212 12 -277 -25 -145 -49 -254 -104 -470 -79
-309 -75 -291 -83 -402 -6 -81 -3 -108 15 -174 34 -124 100 -223 222 -332 106
-95 183 -152 206 -152 7 0 30 -9 51 -20 22 -11 74 -25 118 -33 l78 -13 2 -199
c1 -110 6 -220 11 -245 6 -25 20 -88 31 -140 33 -147 102 -373 121 -395 26
-30 45 -72 69 -150 11 -38 28 -80 36 -93 20 -27 130 -103 139 -95 14 14 4 52
-26 99 -36 56 -109 210 -128 269 -7 22 -21 54 -31 71 -60 100 -140 462 -109
499 15 18 10 114 -14 260 -8 55 -17 134 -18 175 l-3 75 35 -3 c45 -5 86 -27
106 -57 13 -20 16 -52 15 -175 -2 -145 -1 -150 19 -150 11 0 25 10 31 23 15
32 131 117 208 153 36 17 72 38 80 47 21 26 39 20 46 -15 6 -25 4 -35 -10 -43
-98 -57 -295 -208 -295 -225 0 -4 69 43 153 106 120 90 165 118 215 133 56 17
254 131 269 154 3 5 -2 14 -11 19 -15 8 -15 11 0 33 18 28 22 29 44 15 12 -7
11 -12 -5 -30 -19 -21 -19 -21 1 -14 10 4 34 20 53 36 22 19 37 26 43 20 17
-17 -1 -46 -47 -75 -25 -16 -45 -32 -45 -36 0 -4 -15 -12 -32 -19 -18 -7 -59
-31 -90 -55 -108 -79 -308 -222 -390 -277 -45 -30 -108 -80 -140 -110 l-58
-55 15 -50 c8 -27 33 -113 55 -190 112 -388 168 -522 266 -639 26 -30 31 -43
24 -57 -15 -27 -12 -48 3 -28 7 9 22 21 35 28 17 9 22 21 22 49 0 51 41 144
127 287 39 66 81 141 92 166 10 26 24 50 30 53 25 16 7 -35 -49 -143 -33 -63
-58 -116 -56 -118 8 -8 63 83 136 222 40 77 92 169 115 205 22 36 67 110 99
164 154 262 222 337 156 172 -40 -101 -76 -171 -149 -286 -79 -125 -410 -784
-418 -833 -6 -39 10 -53 20 -17 3 11 11 20 17 20 8 0 10 -9 6 -24 -10 -40 2
-54 93 -102 47 -26 109 -61 137 -79 138 -89 246 -125 379 -125 57 0 145 20
195 44 29 14 30 31 11 171 -7 50 -9 110 -6 133 6 42 7 43 26 27 16 -15 19 -16
24 -3 3 8 1 28 -5 44 -12 29 -30 326 -23 355 3 9 0 58 -6 110 -6 60 -7 154 -1
259 4 91 7 167 5 169 -4 3 -8 -11 -21 -77 -9 -43 -22 -12 -29 68 -10 108 10
246 36 261 27 14 39 -19 14 -37 -17 -12 -16 -15 9 -44 24 -29 26 -38 26 -128
0 -92 16 -260 39 -402 6 -36 15 -137 21 -225 6 -88 18 -243 27 -345 9 -102 17
-214 17 -250 1 -64 8 -90 26 -90 32 0 279 133 367 197 37 27 100 67 138 88 96
52 148 96 180 152 15 27 58 82 96 124 68 76 86 102 135 193 24 45 25 51 10 62
-15 11 -15 16 4 63 17 45 18 52 5 57 -8 4 -15 18 -15 34 0 30 23 56 40 45 5
-3 10 -1 10 5 0 6 -7 13 -16 17 -8 3 -30 25 -49 49 -85 112 -515 482 -723 623
-88 59 -132 100 -132 122 0 33 42 22 131 -34 140 -88 620 -417 684 -469 107
-87 169 -106 219 -67 l26 20 12 -27 c12 -26 13 -26 25 32 7 32 12 70 12 84 0
24 -1 23 -13 -6 -17 -38 -30 -47 -56 -39 -29 9 -24 33 10 53 17 9 33 28 36 42
3 14 9 43 15 65 5 22 16 90 24 150 10 73 20 114 30 121 13 10 13 13 2 17 -12
4 -13 35 -10 165 2 88 0 202 -6 253 -8 69 -8 119 1 191 11 88 10 101 -9 165
-19 60 -53 152 -72 192 -19 39 -52 37 -121 -9 -8 -5 -65 -32 -127 -59 -106
-47 -316 -167 -496 -285 -159 -103 -309 -164 -236 -96 32 30 111 86 199 142
67 42 87 61 70 66 -6 2 -58 -29 -116 -68 -59 -39 -112 -69 -120 -66 -7 3 -24
22 -37 43 -32 50 -91 110 -117 118 -18 6 -20 12 -14 38 3 18 15 50 26 71 19
38 60 145 118 311 16 44 45 123 65 175 20 52 54 150 76 218 29 88 46 126 62
136 12 7 75 19 140 25 144 14 156 9 227 -87 59 -80 167 -287 204 -391 23 -63
25 -79 16 -107 -6 -19 -22 -42 -34 -51 -12 -10 -21 -24 -18 -32 3 -8 0 -11 -7
-7 -6 4 -25 -4 -43 -19 -17 -14 -52 -37 -77 -51 -25 -13 -64 -39 -87 -57 -22
-17 -63 -47 -90 -66 -27 -19 -44 -36 -37 -38 13 -5 131 64 299 174 52 34 98
63 103 65 4 2 14 17 22 33 11 24 21 31 52 33 32 3 37 6 37 29 0 14 -8 42 -19
62 -10 20 -35 77 -56 126 -95 231 -235 410 -423 541 -140 98 -157 98 -205 7
-19 -38 -42 -92 -52 -120 -17 -54 -30 -67 -38 -35 -2 9 -11 -10 -21 -43 -40
-141 -80 -264 -103 -319 -13 -32 -48 -154 -78 -271 -60 -237 -85 -315 -121
-387 -24 -47 -37 -57 -48 -39 -4 5 -38 21 -76 36 -39 15 -75 35 -80 44 -26 49
-56 218 -91 501 -6 52 -24 155 -40 228 -15 73 -26 139 -23 146 4 9 35 15 107
19 56 3 169 11 251 17 95 7 153 7 159 1 6 -6 5 -34 -3 -78 -11 -61 -26 -121
-90 -343 -10 -36 -30 -121 -45 -190 -15 -69 -30 -131 -32 -137 -3 -7 -1 -13 5
-13 5 0 19 37 31 83 12 45 41 147 65 227 24 80 56 197 71 260 15 63 36 138 46
165 11 28 19 64 19 81 0 17 11 68 25 114 26 88 32 154 14 165 -5 4 -51 16
-101 26 -187 39 -420 15 -548 -57 -14 -8 -53 -28 -88 -44 -34 -16 -65 -36 -68
-44 -10 -25 16 -165 53 -286 19 -63 50 -191 69 -285 36 -178 74 -318 81 -298
2 6 -5 43 -16 81 -12 38 -21 79 -21 91 0 57 -60 323 -111 490 -10 35 -19 90
-19 122 0 56 1 59 25 59 14 0 25 -3 25 -6 0 -7 63 -349 111 -599 48 -254 62
-316 93 -420 13 -44 22 -83 19 -87 -2 -5 -14 -8 -25 -8 -11 0 -26 -7 -33 -17
-17 -23 -31 -10 -39 39 -4 24 -17 66 -31 93 -32 69 -99 245 -124 332 -12 40
-44 122 -71 184 -56 125 -110 298 -110 352 0 43 -13 54 -43 34 -56 -38 -293
-287 -361 -381 -90 -123 -186 -298 -186 -338 0 -27 30 -68 49 -68 5 0 58 -37
117 -82 60 -45 156 -110 214 -143 58 -34 142 -88 186 -121 44 -32 102 -74 127
-91 29 -20 47 -40 47 -52 0 -36 -18 -32 -70 14 -78 69 -281 195 -315 195 -7 0
-24 9 -38 20 -14 11 -34 20 -45 20 -12 0 -23 4 -26 9 -3 5 -69 41 -145 80
l-140 70 -20 -27 c-30 -43 -91 -165 -91 -183 0 -9 -11 -61 -26 -115 -36 -142
-74 -358 -74 -426 l0 -58 -57 32 c-97 53 -123 76 -123 108 0 39 42 211 98 405
39 136 63 193 159 385 129 258 182 347 322 534 114 152 232 268 415 405 297
224 524 279 861 209 105 -21 249 -65 300 -91 17 -8 46 -22 67 -30 46 -20 257
-158 282 -185 22 -25 14 -42 -20 -42 -14 0 -22 -4 -19 -10 3 -5 22 -10 41 -10
83 0 123 -39 283 -277 93 -138 198 -369 231 -508 94 -395 120 -754 71 -1000
-6 -27 -15 -81 -22 -120 -21 -130 -60 -319 -95 -460 -45 -184 -44 -182 -98
-310 -25 -60 -46 -114 -46 -119 0 -17 -78 -171 -104 -205 -14 -19 -26 -40 -26
-45 -1 -27 -173 -235 -239 -288 -25 -21 -66 -55 -91 -75 -74 -63 -152 -109
-275 -163 -66 -29 -178 -69 -213 -75 -18 -4 -59 -17 -90 -30 -50 -20 -81 -23
-252 -28 -273 -9 -485 15 -565 62 -16 10 -70 32 -120 50 -69 24 -113 49 -187
104 -197 147 -284 216 -323 256 -21 22 -44 41 -51 41 -28 0 6 -49 117 -170 66
-70 119 -131 119 -134 0 -10 -43 -6 -100 9 -47 13 -268 57 -432 85 -27 5 -92
12 -145 15 -152 10 -146 7 -140 68 3 29 8 65 12 80 11 43 -15 64 -88 72 -34 4
-69 11 -79 16 -28 15 -109 131 -149 214 -54 113 -65 209 -46 415 9 103 11 180
6 230 -25 224 -27 262 -18 290 7 19 7 35 0 48 -11 20 -104 57 -216 85 -62 16
-124 31 -187 47 -20 6 -51 18 -70 29 -18 11 -85 40 -148 66 -63 26 -124 55
-135 66 -18 18 -20 32 -19 157 0 84 7 172 18 227 50 260 58 324 58 455 0 220
-29 365 -114 558 l-32 72 22 16 c12 8 22 24 22 35 0 14 7 19 30 19 22 0 37
-10 61 -40 45 -55 68 -51 59 10 -1 9 10 4 29 -14 25 -24 31 -27 37 -13 4 10
-12 37 -45 77 -55 66 -60 77 -34 87 12 5 29 -7 58 -40 23 -26 44 -47 48 -47
16 0 4 38 -23 74 -30 40 -38 66 -20 66 13 0 50 -37 50 -49 0 -8 84 -61 96 -61
18 0 -6 36 -56 85 -83 83 -79 106 11 65 47 -21 95 -25 119 -10 10 6 20 4 30
-5 31 -28 45 -22 47 20 1 22 5 62 9 88 8 63 -6 95 -67 152 -66 62 -128 89
-190 83 -52 -5 -76 3 -64 22 6 9 31 11 96 7 49 -3 91 -2 94 3 3 4 -10 15 -29
24 -45 21 -161 21 -212 0 -84 -35 -186 -118 -250 -205 -62 -85 -129 -96 -349
-58 -66 11 -156 24 -200 29 -44 5 -138 25 -210 45 -71 20 -159 40 -195 44 -36
4 -166 24 -290 44 -124 20 -288 44 -365 52 -77 9 -167 20 -200 25 -122 20
-384 32 -565 26 -206 -7 -374 4 -435 30 -75 31 -355 224 -355 245 0 15 132 21
223 10 88 -10 139 -9 582 14 55 3 120 10 145 15 25 6 63 9 85 8 22 -1 182 1
355 5 173 4 518 9 765 12 248 3 464 8 480 10 17 3 102 7 190 9 189 6 541 24
675 35 52 5 135 8 184 7 l89 -1 22 -70z m1056 29 c33 -11 62 -13 119 -8 69 6
74 5 61 -10 -7 -9 -20 -16 -28 -16 -8 0 -13 -5 -11 -12 3 -7 35 -18 73 -25 92
-17 94 -18 65 -34 -19 -10 -63 -13 -190 -11 -145 3 -173 1 -232 -18 -54 -17
-69 -26 -74 -45 -10 -39 21 -87 73 -115 26 -14 82 -51 125 -82 43 -32 109 -73
148 -93 63 -32 69 -37 60 -55 -6 -11 -18 -20 -27 -20 -9 0 -47 -32 -85 -71
-51 -53 -82 -97 -117 -168 -27 -53 -52 -107 -56 -121 -4 -14 -13 -32 -20 -40
-6 -8 -27 -62 -45 -120 -18 -58 -47 -134 -65 -170 -17 -36 -56 -123 -85 -194
-30 -70 -60 -130 -67 -133 -17 -7 -43 14 -54 44 -8 23 47 268 72 315 20 38 61
87 122 146 31 30 57 61 57 68 0 19 -44 28 -68 15 -12 -6 -39 -11 -61 -11 -39
0 -41 1 -51 43 -6 23 -17 63 -25 89 -20 63 -20 66 14 129 25 46 84 225 112
339 5 19 9 117 9 218 l0 182 104 0 c68 0 118 -5 147 -16z m-6031 -18 c113 -9
349 -21 525 -27 468 -17 548 -24 571 -46 8 -8 14 -30 14 -49 0 -32 10 -45 96
-127 53 -51 106 -97 118 -103 11 -6 109 -26 216 -43 190 -32 199 -32 350 -22
182 12 508 0 650 -23 52 -9 194 -32 315 -51 121 -20 256 -47 300 -61 44 -14
130 -36 190 -49 61 -13 129 -30 152 -39 23 -8 63 -18 90 -21 26 -4 98 -15 158
-25 323 -53 405 -52 530 10 75 36 83 43 104 89 24 54 92 121 123 121 10 0 21
-8 25 -17 3 -10 17 -46 30 -81 19 -47 22 -66 14 -76 -9 -10 -8 -21 0 -40 16
-34 1 -53 -28 -37 -23 12 -43 -2 -43 -31 0 -13 -8 -18 -31 -18 -29 0 -30 -2
-24 -29 6 -28 5 -29 -37 -34 -50 -5 -149 -30 -167 -41 -9 -6 -2 -19 27 -50 41
-42 104 -176 136 -286 28 -100 46 -248 46 -382 0 -132 -5 -177 -41 -343 -49
-229 -59 -364 -35 -468 17 -71 30 -86 125 -141 239 -137 332 -175 486 -200 64
-11 163 -46 168 -60 3 -7 13 -62 23 -122 14 -91 16 -143 9 -314 -10 -278 -7
-343 16 -430 20 -73 72 -187 111 -243 36 -51 13 -49 -66 7 -43 31 -90 63 -106
71 -81 42 -99 123 -93 411 6 215 -3 319 -32 373 -9 19 -36 36 -97 60 -45 19
-112 50 -148 70 -36 21 -90 50 -120 66 -30 15 -72 41 -92 57 -56 43 -148 77
-256 93 -232 35 -377 72 -471 119 -27 14 -85 40 -128 56 -43 17 -83 37 -88 45
-6 7 -38 29 -70 49 -33 19 -72 45 -86 58 -43 37 -117 141 -125 173 -4 17 -16
50 -26 75 -11 25 -28 105 -39 179 -11 74 -26 157 -34 185 -8 28 -19 75 -25
104 -12 68 -79 181 -119 205 -27 16 -189 66 -213 67 -5 0 -8 -5 -8 -10 0 -16
62 -50 93 -50 50 0 85 -26 92 -68 4 -20 11 -51 15 -69 4 -18 6 -67 3 -110 -3
-46 1 -111 10 -158 8 -44 12 -83 10 -87 -4 -7 -92 -57 -163 -93 -25 -12 -81
-34 -125 -49 -44 -15 -110 -43 -146 -61 -64 -34 -180 -79 -290 -115 -31 -10
-88 -34 -127 -54 -39 -20 -80 -36 -90 -36 -11 0 -39 -7 -63 -15 -75 -27 -277
-55 -464 -65 -417 -23 -394 -23 -500 -2 -55 11 -118 23 -140 27 -101 16 -225
72 -265 120 -15 18 -14 18 82 34 36 6 73 8 82 5 9 -3 37 5 63 19 27 13 77 33
111 42 89 25 170 81 235 162 46 56 60 84 82 158 54 185 54 181 26 411 -11 88
-25 218 -31 289 -14 155 -22 188 -88 365 -28 75 -60 178 -72 231 -32 148 -73
274 -90 274 -9 0 -14 -8 -14 -20 5 -62 76 -429 92 -477 44 -123 56 -213 54
-403 -2 -144 2 -202 18 -289 24 -131 25 -193 5 -324 -18 -120 -34 -160 -87
-218 -88 -96 -178 -122 -431 -126 l-166 -2 -58 -42 c-78 -57 -289 -170 -333
-179 -19 -3 -77 -21 -128 -38 -94 -32 -94 -32 -182 -127 -48 -52 -96 -111
-107 -130 -28 -49 -56 -47 -65 5 -20 116 7 205 72 237 58 28 162 60 218 67 56
8 63 13 133 108 17 23 42 44 54 47 13 3 27 15 30 27 18 56 111 124 218 158 20
7 68 41 105 75 66 60 161 111 247 132 39 9 55 22 55 45 0 21 -28 39 -63 39
-36 0 -194 -47 -252 -75 -70 -34 -255 -183 -267 -215 -4 -12 -13 -8 -34 16
-22 24 -45 36 -98 48 -83 20 -104 31 -226 112 -160 106 -198 159 -225 316 -18
98 -20 269 -4 285 8 8 8 22 0 49 -15 53 -14 318 1 385 7 30 12 79 11 109 0 61
-1 178 -1 228 -1 51 -71 340 -92 380 -24 45 -25 51 -2 69 40 33 77 43 137 39
33 -2 152 -11 265 -20z m10470 -181 c-19 -19 -43 -35 -54 -35 -18 1 -16 6 16
35 52 48 84 48 38 0z m-4152 9 c1 -5 -7 -10 -18 -12 -27 -4 -36 -27 -22 -55
30 -62 22 -170 -14 -175 -41 -6 -290 143 -314 188 -14 26 -13 57 3 63 23 9
362 1 365 -9z m339 -21 c13 -20 18 -47 17 -103 -1 -117 0 -116 -155 -125 -99
-6 -133 -4 -139 5 -4 7 -1 33 7 59 8 26 13 69 10 99 -2 30 1 56 7 61 12 10
127 28 193 30 36 1 45 -3 60 -26z m-293 -19 c9 -23 7 -57 -3 -73 -8 -12 -12
-12 -25 -2 -16 13 -22 72 -9 84 11 12 31 7 37 -9z m4109 -36 c13 -54 17 -114
8 -127 -6 -10 -34 -15 -90 -16 -82 -2 -111 9 -77 29 51 31 52 36 6 29 -42 -6
-44 -5 -31 11 16 19 149 96 167 96 7 0 14 -10 17 -22z m-5580 -273 c32 -21 51
-85 36 -119 -7 -14 -19 -26 -28 -26 -9 0 -56 20 -105 45 -49 25 -106 48 -127
51 -42 7 -52 28 -19 39 14 4 50 -8 106 -35 60 -29 90 -38 97 -31 12 12 -53 81
-78 81 -9 0 -13 5 -9 11 9 15 96 5 127 -16z m363 -53 c-15 -15 -16 -15 -16 4
0 28 24 52 28 28 2 -9 -3 -24 -12 -32z m-517 -42 c29 0 111 -60 111 -81 0 -37
-53 -24 -113 29 -51 43 -65 71 -30 58 8 -3 22 -6 32 -6z m706 -12 c21 -20 26
-33 28 -89 2 -36 6 -70 10 -76 4 -6 -2 -22 -13 -34 l-20 -24 -20 25 c-11 14
-20 31 -20 39 0 8 -13 38 -30 68 -34 60 -38 88 -12 102 27 16 49 13 77 -11z
m2373 -4 c17 -11 21 -21 16 -32 -4 -9 -14 -52 -23 -95 -19 -91 -37 -111 -91
-103 -19 3 -100 1 -180 -4 -124 -8 -180 -14 -305 -32 -17 -3 -22 6 -31 52 -6
31 -14 79 -18 108 -7 51 -6 53 21 63 15 5 46 19 69 30 81 39 487 48 542 13z
m295 -88 c43 -18 94 -73 81 -86 -6 -6 -48 -11 -95 -13 -95 -2 -96 -1 -64 76
17 40 29 44 78 23z m-2543 -146 c0 -16 -4 -30 -10 -30 -5 0 -10 14 -10 30 0
17 5 30 10 30 6 0 10 -13 10 -30z m-82 -38 c4 -25 -13 -30 -22 -6 -9 25 -7 36
7 32 6 -3 13 -14 15 -26z m1430 -18 c7 -46 87 -291 108 -334 13 -27 24 -54 24
-61 0 -11 52 -172 104 -324 18 -53 83 -213 99 -245 12 -23 17 -25 78 -22 59 3
71 1 132 -33 44 -24 80 -54 102 -83 33 -42 65 -123 65 -163 0 -9 6 -35 14 -57
23 -64 -1 -215 -52 -331 -59 -135 -89 -181 -115 -181 -12 0 -40 -12 -62 -25
-56 -35 -142 -35 -177 -1 -27 28 -73 148 -64 171 4 10 20 15 53 15 52 0 172
23 216 41 27 11 36 34 16 41 -7 2 -3 29 10 78 24 86 27 176 7 224 -7 18 -31
47 -52 65 -39 33 -39 33 -124 28 -47 -3 -93 -9 -102 -12 -31 -12 -21 28 18 73
33 39 35 45 27 83 l-8 42 -45 -47 c-25 -26 -53 -52 -63 -58 -19 -10 -22 -8
-180 98 -32 21 -91 58 -130 81 -80 46 -221 134 -251 156 -19 14 -19 16 16 48
40 39 68 118 68 195 0 37 14 77 63 183 61 132 83 163 165 232 38 31 41 49 10
49 -45 -1 -74 -27 -198 -180 -71 -87 -100 -155 -110 -258 -5 -46 -14 -109 -20
-140 -7 -32 -14 -67 -16 -79 -2 -13 -9 -23 -15 -23 -21 0 -109 72 -109 88 0 9
16 40 36 69 30 44 34 55 24 73 -10 19 -4 34 52 118 64 98 112 161 222 287 130
149 156 168 164 119z m1006 11 c-4 -8 -8 -15 -10 -15 -2 0 -4 7 -4 15 0 8 4
15 10 15 5 0 7 -7 4 -15z m-2353 -17 c2 -22 -2 -43 -12 -52 -5 -6 -9 4 -9 27
0 33 18 55 21 25z m3 -256 c-1 -71 -23 -130 -63 -166 -20 -18 -21 -18 -21 -1
0 10 10 33 21 52 12 19 23 51 24 71 1 21 6 59 10 85 11 70 30 43 29 -41z m-92
53 c8 -19 8 -43 -1 -97 -17 -97 -20 -108 -35 -108 -25 0 -38 194 -14 218 19
19 37 14 50 -13z m-98 -325 c-3 -52 -12 -117 -19 -145 -7 -27 -13 -74 -14
-104 0 -30 -8 -103 -17 -162 l-17 -107 64 -137 c70 -151 119 -215 162 -215 36
0 34 21 -5 60 -31 32 -91 145 -86 162 2 5 33 -34 68 -86 36 -53 73 -98 83
-102 9 -3 56 -45 103 -94 59 -60 95 -90 113 -92 19 -2 27 -10 29 -27 6 -41
-10 -42 -114 -8 -129 44 -166 64 -240 129 -155 135 -213 226 -221 348 -9 125
33 549 68 681 5 20 9 46 9 57 0 11 5 33 12 49 11 26 12 24 20 -42 5 -38 6
-113 2 -165z m236 -140 c11 -21 20 -49 20 -60 0 -27 -28 -82 -39 -76 -18 11
-23 176 -5 176 2 0 13 -18 24 -40z m3099 -84 c8 -9 16 -85 22 -198 5 -101 13
-228 19 -283 13 -137 12 -172 -2 -185 -7 -5 -42 -29 -78 -52 -36 -23 -67 -45
-70 -48 -14 -17 -136 -71 -214 -95 -49 -15 -121 -40 -160 -56 -126 -51 -146
-50 -275 16 -61 31 -115 64 -120 73 -5 11 -1 45 11 92 13 48 21 117 23 194 3
116 3 119 30 136 15 10 47 20 72 24 28 4 82 26 137 57 50 29 127 72 170 95 44
24 86 50 95 57 9 8 52 33 96 57 44 24 94 53 110 65 31 22 105 64 116 65 4 0
12 -6 18 -14z m-3479 -132 c0 -8 -5 -12 -10 -9 -6 4 -8 11 -5 16 9 14 15 11
15 -7z m1194 -7 c12 -9 16 -20 12 -33 -8 -25 -103 -120 -112 -111 -8 8 13 90
33 130 15 29 39 35 67 14z m118 -86 c89 -78 362 -227 478 -262 45 -14 51 -26
16 -35 -33 -8 -61 -40 -87 -98 l-21 -48 20 -21 c18 -17 23 -18 36 -7 9 7 16
25 16 41 0 16 6 47 12 69 14 44 40 53 58 21 13 -25 13 -176 0 -201 -6 -10 -11
-30 -12 -44 -2 -18 -8 -24 -22 -23 -34 3 -31 -30 4 -48 32 -17 50 -49 50 -91
0 -14 10 -48 22 -76 l22 -52 -39 -70 c-21 -39 -67 -114 -102 -168 -34 -53 -63
-106 -63 -119 0 -21 1 -22 20 -4 11 10 22 27 26 39 4 11 26 50 49 86 23 36 57
93 75 128 35 68 46 80 62 64 7 -7 1 -24 -19 -54 -16 -23 -58 -92 -92 -153 -34
-60 -73 -120 -87 -132 -13 -12 -24 -30 -24 -41 0 -15 -6 -18 -29 -14 -33 5
-43 -8 -111 -133 -24 -44 -83 -143 -131 -221 -49 -78 -94 -153 -100 -168 -19
-41 -31 -34 -77 42 -59 96 -137 307 -126 337 6 15 -21 114 -61 219 -40 107
-35 121 57 169 43 22 113 69 155 104 43 35 123 98 178 140 55 43 120 96 145
118 25 23 66 53 92 68 75 43 74 91 0 114 -33 10 -47 10 -75 -2 -31 -13 -37
-13 -47 0 -7 8 -18 15 -25 15 -14 0 -162 -78 -335 -176 -128 -72 -220 -120
-247 -128 -21 -7 -23 -4 -23 33 0 22 4 73 9 113 6 40 15 113 21 162 6 49 22
115 34 145 13 31 29 86 36 124 9 51 19 72 39 90 14 12 44 45 66 72 47 59 95
104 112 105 7 0 27 -13 45 -29z m-3390 -148 c45 -131 58 -163 83 -214 41 -81
68 -113 153 -178 126 -96 131 -107 106 -242 -16 -89 -16 -89 -73 -139 -31 -27
-83 -64 -116 -82 -33 -17 -98 -56 -145 -86 -84 -55 -268 -162 -277 -162 -3 0
-18 -9 -34 -21 -16 -11 -59 -36 -95 -55 -207 -108 -364 -225 -411 -306 -36
-61 -43 -67 -62 -44 -10 11 -9 21 2 43 14 26 156 165 222 216 17 13 82 74 145
136 63 62 156 143 205 181 233 177 299 264 299 394 1 104 -24 165 -93 234 -81
81 -111 146 -111 239 0 86 11 101 88 120 88 21 96 19 114 -34z m2520 -10 c24
-28 31 -82 11 -90 -23 -9 -43 23 -43 69 0 42 9 47 32 21z m1693 -124 c44 -49
60 -86 70 -157 10 -72 -12 -180 -39 -194 -28 -15 -256 -15 -281 -1 -19 11 -18
13 12 23 20 7 44 29 63 58 39 59 40 113 4 193 -26 58 -27 60 -8 80 25 28 50
38 100 38 36 1 46 -4 79 -40z m-4535 -34 c24 -73 117 -234 163 -283 29 -30 31
-38 31 -105 1 -117 -9 -130 -260 -337 -43 -36 -140 -122 -216 -192 -75 -71
-141 -128 -145 -128 -4 0 -42 -39 -83 -87 -41 -47 -94 -107 -118 -134 -45 -49
-232 -189 -253 -189 -7 0 -20 7 -30 16 -10 9 -25 14 -33 11 -8 -3 -40 -44 -71
-91 -31 -47 -66 -92 -78 -101 -12 -8 -31 -34 -42 -57 -11 -23 -28 -46 -37 -52
-11 -7 -97 -6 -280 1 -481 21 -740 11 -850 -34 -21 -9 -48 -13 -62 -9 -14 3
-57 -2 -98 -14 -40 -11 -73 -20 -74 -20 -1 0 -18 23 -38 50 -46 64 -46 92 0
143 l37 40 -25 19 -26 18 24 62 c14 35 40 95 59 133 19 39 35 77 35 85 0 8 15
38 34 66 93 138 179 327 227 499 64 230 100 339 124 381 39 66 44 68 117 43
34 -12 106 -25 158 -29 52 -4 135 -18 185 -30 81 -20 102 -22 215 -15 69 5
161 9 205 10 93 2 274 27 430 59 142 30 162 37 302 114 244 133 418 221 435
222 11 0 23 -19 38 -65z m4922 19 c11 -37 -10 -208 -28 -231 -12 -16 -14 0
-13 112 1 72 4 136 7 143 7 20 25 8 34 -24z m-602 -83 c5 -11 10 -46 10 -78 0
-62 -19 -103 -47 -103 -13 0 -14 7 -7 43 5 23 8 68 7 100 -2 43 1 57 12 57 8
0 19 -9 25 -19z m-6676 -139 c-8 -21 -26 -48 -38 -62 -43 -46 -48 -65 -41
-168 l7 -97 -57 -110 c-32 -60 -68 -137 -81 -172 -28 -75 -88 -194 -138 -277
-19 -32 -45 -88 -57 -125 -12 -36 -39 -104 -60 -151 -21 -47 -41 -97 -44 -112
-8 -32 -37 -60 -95 -91 -51 -27 -99 -101 -126 -193 -12 -43 -21 -55 -40 -60
-17 -5 -318 0 -382 6 -2 0 6 70 13 105 3 11 24 33 49 48 24 15 52 40 62 55 10
15 23 32 30 39 14 14 19 52 34 223 8 88 20 150 40 210 16 47 34 112 40 145 13
65 34 104 116 207 30 36 62 89 73 117 51 135 196 321 274 352 18 6 59 25 91
40 33 16 64 29 71 29 26 0 198 61 223 79 40 29 56 11 36 -37z m8282 -149 c-6
-192 -32 -390 -55 -416 -15 -19 -44 -12 -136 37 -110 58 -162 90 -187 113 -13
12 -54 38 -93 58 -64 33 -133 82 -124 89 34 23 62 36 77 36 52 0 410 189 461
244 14 14 33 26 44 26 19 0 20 -5 13 -187z m-8058 143 c2 -9 -19 -76 -47 -149
-27 -72 -62 -175 -76 -227 -14 -52 -46 -142 -71 -200 -63 -147 -197 -404 -209
-401 -5 2 -9 8 -7 14 2 6 12 71 23 144 23 158 44 218 153 427 47 89 92 188
101 221 23 82 55 167 73 187 17 20 55 10 60 -16z m5953 -157 c-13 -11 -27 -17
-30 -13 -3 3 5 14 18 25 13 11 27 17 30 13 3 -3 -5 -14 -18 -25z m-3046 -28
c4 -14 19 -20 65 -24 33 -4 77 -15 98 -26 21 -11 85 -36 142 -56 96 -33 168
-47 326 -60 93 -8 131 -22 359 -136 121 -60 239 -114 262 -119 55 -14 100 -53
113 -98 13 -48 13 -203 -1 -277 -6 -32 -15 -103 -20 -159 -6 -56 -13 -123 -16
-150 -8 -72 10 -118 74 -186 59 -64 207 -180 282 -221 89 -48 63 -58 -104 -38
-49 6 -112 12 -140 14 -27 2 -72 9 -100 15 -27 7 -88 13 -135 15 -222 5 -532
29 -690 51 -96 14 -204 29 -240 34 -98 13 -580 32 -781 30 -120 0 -199 4 -250
14 -49 10 -175 17 -376 22 -192 4 -303 10 -303 17 0 5 20 31 45 58 33 35 46
59 51 90 6 35 19 55 78 113 39 39 98 94 131 121 33 27 98 85 145 128 46 43
121 104 165 135 184 130 381 259 443 292 37 19 87 49 112 66 25 17 74 46 110
64 36 18 85 46 108 62 36 25 43 34 37 52 -4 11 -8 30 -10 41 -1 11 -6 41 -10
67 -7 46 -2 68 15 68 5 0 11 -8 15 -19z m4175 -59 c21 -17 21 -19 5 -35 -17
-18 -80 -23 -89 -8 -8 12 32 61 49 61 7 0 23 -8 35 -18z m190 -158 c47 -42
128 -112 180 -154 53 -44 116 -107 143 -143 26 -36 89 -105 141 -154 51 -48
95 -99 99 -111 5 -23 -13 -80 -77 -232 -45 -110 -217 -309 -317 -369 -30 -17
-85 -56 -124 -86 -98 -77 -136 -92 -272 -112 -62 -8 -57 -31 -93 410 -6 67
-20 217 -31 332 -11 116 -22 248 -24 295 -1 47 -6 128 -9 180 l-7 95 34 45
c33 44 35 45 123 61 146 27 138 29 234 -57z m-616 -58 c36 9 46 -20 46 -129 0
-52 4 -150 10 -218 5 -68 14 -224 20 -346 9 -190 8 -232 -5 -297 -9 -41 -17
-126 -18 -189 -2 -99 1 -118 16 -135 12 -13 15 -22 8 -27 -6 -3 -11 -17 -11
-31 0 -23 -2 -24 -82 -24 -60 0 -105 7 -167 26 -47 15 -108 33 -134 41 -47 14
-157 78 -229 135 -37 29 -49 63 -29 83 6 6 27 53 49 105 22 52 51 122 65 155
41 94 128 325 142 375 7 25 37 87 67 138 31 51 61 114 67 140 21 84 44 152 62
181 17 28 20 29 59 20 22 -5 51 -7 64 -3z m-464 -411 c0 -13 -55 -115 -62
-115 -19 0 3 68 34 108 10 12 28 17 28 7z m-7468 -185 c-1 -25 -9 -72 -17
-105 -7 -33 -19 -84 -25 -112 -9 -38 -22 -62 -48 -88 -65 -62 -85 -41 -48 50
13 33 36 105 51 160 30 112 48 148 73 143 13 -3 16 -13 14 -48z m774 18 c13
-20 5 -85 -17 -143 -22 -59 -85 -141 -127 -164 l-25 -13 8 38 c9 54 125 294
141 294 7 0 16 -5 20 -12z m1864 -259 c0 -18 -43 -59 -62 -59 -27 0 -22 16 15
44 35 28 47 32 47 15z m84 -75 c13 -33 7 -45 -21 -42 -18 2 -29 10 -31 22 -6
32 41 50 52 20z m4346 -9 c0 -8 -4 -15 -9 -15 -5 0 -11 7 -15 15 -3 9 0 15 9
15 8 0 15 -7 15 -15z m-2770 -275 c11 -7 3 -10 -30 -9 -34 0 -40 2 -25 9 27
12 37 12 55 0z m3015 -50 c-5 -8 -11 -8 -17 -2 -6 6 -7 16 -3 22 5 8 11 8 17
2 6 -6 7 -16 3 -22z m-257 -207 c2 -9 -8 -13 -33 -13 -33 0 -36 2 -25 15 15
18 51 16 58 -2z m12 -153 c0 -23 -4 -24 -31 -10 -27 15 -24 30 6 30 18 0 25
-5 25 -20z"/>
<path d="M9780 7034 c-28 -10 -60 -27 -60 -33 0 -3 27 -6 61 -6 49 0 63 -4 76
-20 8 -11 23 -31 33 -45 23 -31 38 -19 20 15 -36 67 -89 103 -130 89z"/>
<path d="M9749 6928 c-24 -20 -59 -74 -59 -92 0 -21 18 -20 65 4 22 11 58 20
80 20 23 0 44 3 48 6 30 31 -99 90 -134 62z"/>
<path d="M9660 6431 c-41 -42 -74 -65 -114 -80 -60 -22 -138 -27 -180 -11 -34
13 -58 3 -54 -24 3 -19 10 -21 70 -24 84 -4 277 38 325 70 41 28 77 96 61 115
-20 25 -50 13 -108 -46z"/>
<path d="M12070 6470 c0 -14 -9 -45 -20 -69 -33 -71 -27 -128 19 -196 21 -31
53 -65 70 -76 17 -10 53 -48 78 -84 26 -35 49 -62 52 -60 2 3 -8 36 -24 74
l-28 70 32 38 c71 86 18 231 -96 262 -20 6 -47 23 -60 38 l-22 28 -1 -25z
m129 -115 c20 -23 31 -47 32 -68 2 -76 -3 -102 -23 -120 -20 -17 -21 -16 -60
42 -50 77 -57 117 -28 154 28 36 42 34 79 -8z"/>
<path d="M12137 6313 c-14 -13 -6 -29 23 -46 34 -21 41 -7 14 31 -16 23 -26
27 -37 15z"/>
<path d="M11530 6530 c-6 -11 -10 -31 -8 -43 3 -17 7 -14 16 17 13 45 9 58 -8
26z"/>
<path d="M11791 6388 c-5 -14 -15 -53 -22 -86 -11 -55 -11 -64 9 -110 12 -28
22 -58 22 -67 0 -9 6 -15 13 -13 16 6 17 254 0 283 -11 19 -12 19 -22 -7z m19
-110 c0 -7 -4 -19 -9 -27 -11 -17 -23 1 -15 23 7 19 24 21 24 4z"/>
<path d="M11394 6343 c4 -27 9 -74 13 -105 9 -91 20 -68 15 35 -4 104 -6 117
-23 117 -8 0 -10 -14 -5 -47z"/>
<path d="M10607 5543 c-35 -11 -47 -19 -45 -31 5 -27 62 -28 89 -1 21 21 23
21 49 5 32 -18 50 -21 50 -6 0 13 -61 50 -80 49 -8 -1 -37 -8 -63 -16z"/>
<path d="M11197 5346 c6 -61 -10 -145 -38 -193 -22 -40 -12 -42 18 -4 27 34
49 183 33 225 -15 40 -19 31 -13 -28z"/>
<path d="M11290 5329 c0 -28 -85 -187 -130 -244 -58 -73 -91 -100 -212 -176
-80 -49 -103 -69 -80 -69 4 0 53 27 108 59 100 60 160 113 229 206 60 80 123
235 96 235 -6 0 -11 -5 -11 -11z"/>
<path d="M10910 4692 c0 -5 19 -17 42 -27 36 -14 50 -15 110 -4 37 7 68 16 68
21 0 4 -29 8 -64 8 -35 0 -84 3 -110 6 -29 4 -46 3 -46 -4z"/>
<path d="M1403 5659 c-56 -21 -167 -115 -217 -181 -15 -21 -41 -45 -57 -54
-42 -21 -36 -37 9 -19 20 9 74 53 120 99 82 83 134 116 148 94 10 -16 5 -128
-7 -149 -5 -10 -28 -23 -52 -29 -179 -44 -257 -74 -238 -93 7 -7 21 -6 48 6
69 30 167 49 240 48 74 -2 101 11 70 34 -22 16 -21 38 2 59 21 19 34 49 51
114 10 38 13 42 35 36 35 -9 81 22 64 42 -18 22 -151 18 -216 -7z"/>
<path d="M1760 5110 c0 -5 16 -10 35 -10 19 0 35 5 35 10 0 6 -16 10 -35 10
-19 0 -35 -4 -35 -10z"/>
<path d="M1670 5100 c-13 -9 -13 -10 0 -11 25 -2 44 2 55 12 12 12 -36 12 -55
-1z"/>
<path d="M1406 5081 c-8 -13 32 -21 68 -14 31 7 31 7 6 14 -36 10 -68 10 -74
0z"/>
<path d="M7359 5595 c-15 -8 -35 -35 -48 -65 -24 -55 -46 -200 -36 -238 10
-39 30 -19 35 36 4 39 13 60 36 84 55 60 94 117 94 135 0 23 -27 63 -43 63 -7
-1 -24 -7 -38 -15z"/>
<path d="M9972 4887 c-12 -13 -22 -30 -22 -38 1 -15 50 35 50 52 0 13 -4 11
-28 -14z"/>
<path d="M9927 4833 c-4 -3 -7 -11 -7 -17 0 -6 5 -5 12 2 6 6 9 14 7 17 -3 3
-9 2 -12 -2z"/>
<path d="M9669 4680 l-24 -20 28 11 c15 7 27 16 27 21 0 12 -5 10 -31 -12z"/>
<path d="M2590 5139 c0 -5 5 -7 10 -4 6 3 10 8 10 11 0 2 -4 4 -10 4 -5 0 -10
-5 -10 -11z"/>
<path d="M9890 3934 c0 -8 5 -12 10 -9 6 3 10 10 10 16 0 5 -4 9 -10 9 -5 0
-10 -7 -10 -16z"/>
<path d="M9231 3048 c-1 -15 4 -30 9 -33 12 -7 12 12 0 40 -8 18 -9 17 -9 -7z"/>
<path d="M10821 1963 c-1 -6 -4 -20 -7 -30 -5 -17 -5 -17 6 0 6 10 9 23 6 30
-3 9 -5 9 -5 0z"/>
<path d="M10800 1878 c0 -7 -3 -24 -6 -38 -5 -17 -3 -22 3 -15 15 15 25 65 13
65 -5 0 -10 -6 -10 -12z"/>
<path d="M10691 1358 c-34 -119 -35 -125 -23 -113 9 9 62 169 62 188 0 4 -3 7
-8 7 -4 0 -18 -37 -31 -82z"/>
<path d="M10572 1216 c-13 -31 -8 -46 9 -29 6 6 9 21 7 34 -4 24 -5 23 -16 -5z"/>
<path d="M10635 1190 c-3 -5 -1 -10 4 -10 6 0 11 5 11 10 0 6 -2 10 -4 10 -3
0 -8 -4 -11 -10z"/>
<path d="M10550 1054 c-27 -42 -50 -78 -50 -80 0 -2 6 -4 13 -4 6 0 30 28 52
63 47 73 58 97 45 97 -5 0 -32 -34 -60 -76z"/>
<path d="M10458 913 c-8 -10 -18 -26 -21 -35 -10 -27 17 -11 37 22 19 33 8 41
-16 13z"/>
<path d="M10352 779 c-44 -48 -50 -59 -33 -59 23 0 94 82 89 104 -2 10 -21 -6
-56 -45z"/>
<path d="M10206 649 c-31 -28 -54 -54 -52 -57 6 -6 100 53 117 74 8 10 9 18 2
25 -7 7 -29 -7 -67 -42z"/>
<path d="M12015 4463 c-32 -17 -161 -105 -233 -160 -24 -18 -54 -36 -68 -39
-13 -3 -24 -12 -24 -20 0 -8 6 -11 18 -7 18 6 280 179 322 212 32 26 23 34
-15 14z"/>
<path d="M12785 4380 c-3 -5 -1 -10 4 -10 6 0 11 5 11 10 0 6 -2 10 -4 10 -3
0 -8 -4 -11 -10z"/>
<path d="M11578 4181 c-42 -28 -107 -65 -145 -85 -37 -19 -77 -42 -88 -50 -19
-16 -19 -16 10 -10 41 9 197 92 273 147 39 28 53 47 34 47 -4 0 -42 -22 -84
-49z"/>
<path d="M11085 3939 c-121 -50 -251 -97 -289 -105 -74 -16 -86 -21 -86 -33 0
-14 103 10 235 54 242 80 292 101 333 134 76 59 73 59 -193 -50z"/>
<path d="M3867 374 c-3 -3 -3 -12 0 -20 4 -11 29 -14 109 -14 56 0 125 -5 151
-10 26 -6 176 -19 333 -30 472 -33 551 -40 654 -56 54 -8 107 -19 117 -25 10
-5 91 -18 179 -29 89 -11 194 -29 233 -40 75 -21 137 -18 137 6 0 14 -1 14
-195 44 -71 11 -154 26 -183 34 -29 8 -83 17 -120 21 -37 4 -106 13 -154 22
-60 10 -92 12 -104 5 -13 -7 -21 -6 -29 3 -17 23 -240 50 -685 85 -146 11
-433 14 -443 4z"/>
<path d="M7925 165 c-41 -8 -103 -11 -195 -7 -127 4 -554 -17 -745 -38 -44 -5
-108 -6 -141 -3 -54 5 -64 3 -83 -16 -12 -12 -20 -28 -18 -34 4 -13 11 -13
232 2 83 6 247 15 365 21 118 5 258 14 310 20 52 6 168 11 257 11 168 1 193 8
179 44 -7 19 -75 19 -161 0z"/>
<path d="M6163 151 c-17 -11 -33 -25 -35 -32 -3 -9 -15 -9 -56 1 -38 10 -55
11 -63 3 -26 -26 22 -44 62 -23 15 8 19 7 19 -4 0 -17 18 -24 80 -28 l45 -3
-2 38 c-4 61 -13 70 -50 48z"/>
<path d="M5851 151 c-19 -12 17 -31 58 -31 36 0 41 16 9 25 -48 14 -53 14 -67
6z"/>
</g>
</svg>
