<?xml version="1.0" standalone="no"?>
<!DOCTYPE svg PUBLIC "-//W3C//DTD SVG 20010904//EN"
 "http://www.w3.org/TR/2001/REC-SVG-20010904/DTD/svg10.dtd">
<svg version="1.0" xmlns="http://www.w3.org/2000/svg"
 width="1280.000000pt" height="762.000000pt" viewBox="0 0 1280.000000 762.000000"
 preserveAspectRatio="xMidYMid meet">
<metadata>
Created by potrace 1.15, written by Peter Selinger 2001-2017
</metadata>
<g transform="translate(0.000000,762.000000) scale(0.100000,-0.100000)"
fill="#000000" stroke="none">
<path d="M783 7610 c-33 -14 -55 -74 -62 -175 l-6 -90 -30 5 c-122 20 -332
-18 -459 -82 -72 -36 -114 -50 -121 -38 -3 4 15 44 40 88 54 96 56 115 14 133
-28 11 -36 10 -68 -7 -20 -11 -39 -30 -42 -44 -41 -149 -49 -187 -49 -230 0
-56 7 -60 64 -36 19 8 60 20 93 26 32 7 79 23 105 36 26 13 63 24 81 24 19 0
54 11 78 23 88 47 208 63 294 40 78 -21 92 -34 106 -100 8 -36 21 -61 38 -76
26 -22 26 -24 20 -112 -4 -49 -8 -124 -8 -165 -1 -74 -2 -77 -41 -118 -22 -22
-40 -45 -40 -50 0 -14 -124 -4 -195 15 -128 33 -208 91 -270 197 -34 58 -49
60 -42 5 l5 -42 -74 5 -75 5 -70 74 -69 73 0 -65 c0 -57 5 -76 41 -145 22 -43
50 -97 61 -119 23 -45 35 -55 55 -48 29 11 12 75 -35 125 -37 40 -19 47 41 16
29 -15 77 -30 107 -33 76 -8 117 -22 175 -62 27 -18 55 -33 62 -33 6 0 27 -9
46 -20 35 -21 221 -46 252 -34 8 3 37 -2 64 -12 46 -16 52 -22 80 -84 17 -37
31 -71 31 -77 0 -6 18 -28 40 -49 23 -22 47 -58 56 -84 9 -25 32 -82 51 -127
19 -45 33 -88 30 -96 -3 -7 -23 -19 -45 -25 -22 -7 -42 -18 -44 -25 -7 -18 7
-122 26 -192 8 -33 15 -63 16 -67 0 -3 -23 -23 -50 -43 -62 -46 -94 -102 -80
-140 6 -15 10 -40 10 -56 0 -38 11 -58 73 -139 88 -114 123 -132 153 -81 20
33 34 32 34 -3 0 -12 17 -40 38 -62 20 -21 46 -52 57 -68 50 -71 57 -77 83
-74 33 4 53 49 34 78 -16 27 -16 29 13 40 30 11 32 34 5 57 -15 14 -20 30 -20
73 -1 30 -7 66 -15 80 -19 33 -19 124 -1 139 8 7 24 41 37 76 22 63 23 64 42
47 11 -9 70 -84 132 -167 152 -201 178 -227 335 -330 74 -48 171 -115 215
-148 79 -59 260 -237 293 -288 55 -84 263 -310 360 -391 121 -101 169 -138
181 -138 5 0 22 -10 38 -23 15 -13 80 -55 143 -92 137 -82 196 -134 222 -195
11 -25 32 -58 47 -75 16 -16 34 -48 41 -70 18 -56 48 -113 83 -160 104 -134
183 -218 255 -268 43 -30 86 -62 95 -71 8 -9 22 -16 29 -16 7 0 31 -14 52 -30
22 -17 48 -30 59 -30 10 0 51 -33 90 -72 69 -71 141 -127 162 -128 6 0 16 -9
23 -20 7 -11 23 -20 35 -20 13 0 50 -13 82 -30 32 -16 62 -27 66 -24 5 3 47
-13 94 -35 46 -23 90 -41 97 -41 7 0 63 -20 123 -45 61 -25 116 -45 123 -45
12 0 46 -13 157 -58 82 -34 196 -151 280 -287 11 -17 35 -49 53 -69 17 -20 32
-45 32 -56 0 -10 27 -70 60 -133 33 -62 60 -121 60 -131 0 -9 25 -66 55 -126
30 -60 55 -119 55 -130 0 -11 9 -37 20 -57 11 -21 20 -44 20 -51 0 -7 9 -30
20 -52 11 -22 20 -47 20 -57 0 -10 8 -34 19 -53 10 -19 22 -46 26 -59 4 -13
20 -44 36 -69 15 -24 33 -69 39 -98 6 -30 15 -56 20 -59 4 -3 11 -17 15 -32 3
-16 14 -36 23 -46 16 -18 39 -71 49 -116 6 -26 47 -98 104 -182 41 -62 262
-280 306 -303 17 -8 42 -31 57 -50 15 -20 31 -36 36 -36 15 0 100 -61 100 -71
0 -15 86 -53 104 -46 34 13 8 53 -74 116 -25 19 -79 66 -122 105 -42 39 -111
100 -153 136 -91 77 -165 160 -224 252 -45 71 -163 322 -175 373 -4 17 -29 82
-56 145 -65 153 -93 224 -141 354 -21 59 -45 120 -53 135 -67 128 -99 213 -78
210 4 -1 48 -45 98 -98 108 -116 159 -197 214 -346 23 -60 74 -164 113 -229
67 -114 137 -262 137 -291 0 -7 36 -84 80 -170 44 -86 80 -161 80 -166 0 -4
20 -50 44 -102 51 -108 108 -169 201 -219 33 -17 76 -44 95 -59 19 -16 58 -38
85 -50 28 -12 57 -27 65 -35 33 -28 68 -34 91 -15 22 18 22 19 6 45 -11 16
-27 26 -41 26 -35 0 -86 20 -133 52 -23 15 -45 28 -50 28 -18 1 -94 68 -132
116 -23 29 -66 101 -97 160 -31 60 -62 116 -68 124 -20 25 -68 138 -197 458
-16 40 -61 119 -99 176 -84 124 -190 326 -220 418 -12 37 -33 84 -47 105 -34
49 -52 99 -53 143 0 20 -6 45 -14 56 -8 11 -22 46 -31 78 -9 32 -26 78 -36
102 -23 50 -18 144 7 144 69 0 263 -129 392 -260 88 -89 292 -340 292 -359 0
-5 6 -14 14 -20 18 -15 116 -177 116 -192 0 -6 11 -24 25 -41 14 -16 25 -36
25 -45 0 -8 8 -32 19 -52 10 -20 42 -83 70 -141 61 -123 131 -250 149 -271 6
-8 31 -50 53 -94 73 -141 200 -322 327 -465 46 -52 86 -102 90 -110 9 -23 178
-198 230 -238 26 -19 52 -41 57 -47 6 -7 37 -31 70 -55 33 -23 77 -60 97 -81
40 -42 75 -50 102 -23 20 20 20 29 0 60 -9 13 -14 27 -11 31 7 7 122 -70 159
-107 14 -15 40 -33 57 -40 26 -10 35 -10 62 6 49 29 55 45 33 88 -17 33 -34
45 -140 94 -131 62 -273 150 -274 169 0 7 -28 35 -62 62 -35 27 -84 73 -109
103 -58 67 -120 188 -117 227 1 16 -3 35 -9 43 -6 7 -16 31 -23 53 -14 45
-106 213 -151 275 -16 22 -35 40 -42 40 -16 0 -67 96 -67 127 0 12 5 25 11 29
21 12 -1 88 -53 181 -28 51 -64 105 -80 120 -17 16 -55 55 -86 87 -32 33 -69
72 -84 88 -16 16 -28 33 -28 38 0 6 -15 27 -34 47 -18 21 -41 54 -51 73 -10
19 -36 61 -59 94 -48 69 -86 132 -121 202 -14 28 -43 71 -64 95 -21 24 -50 64
-66 89 -15 25 -41 62 -58 83 -16 21 -44 68 -62 105 -21 43 -54 88 -93 125 -56
55 -65 61 -153 84 -113 30 -145 48 -201 116 -149 182 -235 260 -343 315 -80
40 -170 137 -190 206 -29 97 6 128 315 277 114 55 140 64 160 56 37 -14 207
-57 270 -68 30 -5 77 -17 103 -25 26 -9 54 -14 61 -11 8 3 18 1 23 -4 10 -10
103 -36 178 -49 28 -5 82 -16 120 -25 76 -17 350 -71 430 -84 28 -5 68 -13 90
-19 22 -6 81 -15 130 -22 50 -6 124 -17 165 -25 120 -22 235 -29 680 -40 157
-4 288 -9 292 -11 8 -5 736 -15 943 -14 208 2 395 8 490 15 44 4 105 8 135 10
30 2 111 7 180 13 69 5 157 8 195 7 39 -1 185 4 325 11 321 18 504 11 656 -24
22 -5 55 -7 72 -4 17 2 40 1 49 -3 42 -18 88 -13 108 12 23 28 76 42 156 43
30 0 80 4 110 10 30 5 101 14 159 19 58 6 143 15 190 20 47 5 163 15 258 20
118 8 183 16 203 26 16 9 55 19 87 23 l57 7 3 47 c3 43 1 48 -20 52 -44 9
-165 16 -349 20 -194 4 -303 19 -296 39 2 7 21 21 43 33 48 25 162 101 228
150 60 46 145 159 211 283 38 70 56 95 71 96 12 1 42 19 68 39 43 36 46 41 46
87 l0 48 -65 -24 c-108 -41 -135 -35 -172 39 -50 100 -57 106 -122 106 -45 0
-62 -4 -75 -19 -23 -26 -13 -41 28 -41 35 0 66 -25 66 -54 0 -19 -79 -72 -125
-84 -41 -11 -185 0 -385 29 -103 15 -440 15 -496 0 -22 -6 -94 -17 -160 -26
-65 -8 -154 -21 -197 -29 -114 -21 -174 -5 -149 40 12 22 132 125 197 169 32
22 76 56 97 76 37 36 38 39 38 105 -1 79 -16 129 -55 180 -46 60 -79 74 -171
74 -81 0 -83 0 -215 -68 l-134 -69 -128 -13 c-75 -8 -132 -19 -138 -26 -20
-24 -5 -58 36 -82 36 -21 49 -22 125 -18 47 3 110 8 141 12 l56 6 37 -47 c20
-26 36 -54 36 -61 0 -20 -36 -40 -110 -63 -36 -12 -77 -29 -91 -38 -15 -10
-39 -27 -55 -37 -16 -11 -58 -47 -92 -80 -72 -69 -132 -181 -132 -245 0 -85
64 -230 147 -333 26 -34 53 -67 58 -75 20 -27 -16 -34 -150 -28 -71 3 -220 8
-330 11 -110 3 -249 9 -310 14 -60 5 -126 8 -145 7 -19 0 -100 4 -180 9 -161
11 -322 11 -570 -1 -120 -6 -184 -4 -235 5 -39 7 -115 14 -170 17 -160 7 -290
24 -343 44 -13 5 -33 9 -45 9 -44 -1 -432 101 -502 131 -40 17 -214 58 -276
65 -69 7 -164 24 -244 44 -396 97 -492 121 -635 161 -80 22 -165 51 -190 63
-25 13 -82 38 -128 56 -45 18 -85 36 -88 41 -3 5 -15 9 -27 9 -12 0 -75 36
-140 80 -64 44 -122 80 -127 80 -5 0 -38 20 -73 44 -36 24 -80 52 -98 61 -19
10 -53 33 -76 51 -23 19 -44 34 -48 34 -4 0 -55 34 -113 76 -59 42 -113 79
-122 82 -8 3 -26 15 -40 27 -14 11 -68 48 -120 80 -52 33 -102 67 -111 76 -9
9 -50 36 -90 60 -41 24 -92 62 -114 85 -58 60 -143 120 -200 142 -63 25 -251
118 -415 206 -120 64 -147 77 -270 133 -30 14 -113 53 -185 88 -71 35 -155 72
-185 83 -30 11 -91 34 -135 50 -44 17 -129 45 -190 62 -88 25 -126 42 -191 86
-45 30 -110 64 -144 75 -83 27 -156 60 -230 103 -34 20 -67 36 -73 36 -7 0
-28 8 -47 18 -19 10 -66 35 -105 56 -38 20 -97 48 -130 63 -33 14 -71 33 -85
43 -14 9 -40 22 -58 28 -19 7 -62 32 -97 57 -35 25 -67 45 -71 45 -13 0 -283
109 -359 145 -38 18 -80 36 -92 39 -21 7 -37 19 -127 99 -24 20 -47 37 -51 37
-4 0 -15 8 -24 18 -22 23 -43 36 -120 72 -59 28 -63 31 -57 57 33 145 32 242
-3 333 -33 89 -109 117 -177 65 -43 -33 -64 -32 -64 0 0 33 -28 75 -49 74 -9
0 -26 -4 -38 -9z m198 -130 c38 -21 52 -69 57 -197 4 -115 4 -122 -17 -134
-11 -8 -21 -21 -21 -30 0 -18 -28 -29 -71 -29 -28 0 -28 -2 -45 155 -10 86 34
245 68 245 5 0 18 -5 29 -10z m-151 -134 c0 -14 -4 -28 -10 -31 -6 -4 -10 7
-10 24 0 17 5 31 10 31 6 0 10 -11 10 -24z m347 -322 c19 -14 32 -28 29 -31
-7 -7 -64 29 -70 44 -8 19 3 16 41 -13z m-73 -30 c17 -20 51 -57 76 -83 42
-43 45 -44 48 -23 2 13 -4 34 -12 47 -37 57 -8 47 119 -40 193 -132 210 -144
235 -162 14 -11 52 -27 85 -36 33 -10 74 -24 90 -32 17 -8 43 -17 58 -20 16
-3 40 -17 54 -31 16 -16 31 -23 43 -19 11 3 38 -6 66 -24 27 -17 63 -38 79
-47 17 -9 77 -47 135 -84 114 -72 340 -193 433 -230 32 -12 68 -30 80 -39 12
-10 44 -26 72 -36 27 -10 103 -47 168 -82 65 -35 121 -63 125 -63 3 0 26 -13
51 -29 25 -16 75 -39 111 -51 42 -15 73 -32 88 -51 13 -16 33 -29 44 -29 17 0
20 -5 15 -28 -6 -28 -5 -29 61 -40 117 -21 262 -57 262 -64 0 -11 -22 -10 -96
4 -69 12 -85 8 -63 -18 8 -10 10 -19 4 -21 -5 -2 -17 -8 -25 -13 -23 -16 21
-47 76 -56 65 -9 78 8 28 38 l-39 23 31 3 c45 4 99 -11 99 -29 0 -41 24 -56
115 -74 50 -10 93 -21 95 -25 3 -5 -13 -11 -35 -15 -44 -7 -55 -32 -17 -39 12
-2 64 -11 116 -21 87 -15 151 -37 151 -51 0 -4 -39 -3 -86 1 -70 6 -86 4 -82
-7 3 -7 39 -20 88 -30 47 -9 95 -22 108 -27 12 -6 38 -11 56 -11 19 0 39 -7
47 -17 13 -15 11 -16 -21 -9 -69 14 -182 27 -187 22 -17 -16 19 -30 163 -61
67 -15 73 -19 124 -77 63 -71 60 -71 -105 7 -61 29 -136 58 -165 65 -29 7 -82
26 -117 41 -63 29 -98 36 -107 21 -10 -17 12 -30 79 -47 96 -23 181 -52 235
-80 184 -93 251 -125 264 -125 8 0 18 -5 22 -11 5 -8 -3 -10 -27 -6 -84 14
-146 30 -181 48 -20 10 -44 19 -52 19 -7 0 -59 18 -115 41 -96 38 -179 54
-181 35 0 -4 65 -30 146 -57 80 -27 157 -58 171 -69 14 -11 34 -20 44 -20 10
0 21 -4 24 -10 9 -15 -9 -12 -78 10 -122 39 -158 47 -163 39 -8 -14 5 -29 27
-29 11 0 36 -8 57 -19 20 -10 75 -31 121 -45 96 -31 161 -62 161 -76 0 -21
-52 -9 -102 23 -33 21 -93 44 -158 61 -58 15 -118 32 -134 37 -40 13 -56 11
-56 -5 0 -12 146 -66 179 -66 6 0 25 -9 43 -20 18 -11 43 -20 55 -20 28 0 113
-51 113 -67 0 -7 -6 -13 -13 -13 -24 0 -118 36 -220 84 -54 25 -103 43 -109
40 -10 -6 79 -52 133 -69 26 -9 40 -19 80 -58 16 -16 43 -33 62 -38 36 -10 75
-34 67 -42 -19 -19 -58 -16 -90 7 -19 14 -51 33 -70 41 -19 9 -46 22 -60 29
-38 21 -138 48 -150 41 -16 -10 -4 -22 29 -28 46 -9 201 -87 201 -100 0 -7 -5
-18 -11 -24 -19 -19 -1 -34 26 -21 35 16 64 4 125 -50 l55 -50 -60 -17 c-85
-24 -157 -51 -216 -80 -53 -28 -85 -25 -47 4 13 10 49 28 81 40 61 25 75 37
59 53 -11 11 -102 -33 -177 -86 -27 -20 -53 -36 -57 -36 -15 0 4 28 23 33 24
6 26 39 2 36 -10 -1 -26 2 -37 6 -11 5 -26 4 -35 -2 -26 -16 -88 -102 -127
-175 -19 -38 -40 -68 -46 -68 -14 0 -4 135 13 173 15 34 5 46 -21 22 -21 -19
-50 -106 -50 -152 -1 -21 -3 -24 -9 -13 -6 9 -6 42 0 80 5 36 13 95 18 131 4
37 17 81 27 98 25 42 9 60 -39 43 -18 -7 -41 -12 -49 -12 -10 0 -21 -14 -27
-32 -31 -99 -52 -212 -53 -281 0 -58 -3 -76 -12 -67 -20 20 -11 198 13 253 12
27 21 55 21 63 0 24 -30 16 -40 -11 -5 -14 -21 -30 -35 -35 -32 -12 -45 -45
-55 -145 -9 -84 3 -125 34 -125 8 0 21 -19 31 -42 18 -45 69 -97 96 -98 9 0
26 -8 37 -17 23 -20 157 -272 148 -280 -2 -3 -49 9 -103 27 -99 33 -228 104
-217 122 9 14 -14 36 -45 43 -15 3 -44 23 -63 43 -19 21 -60 50 -89 66 -80 42
-438 314 -453 345 -8 14 -41 57 -75 95 -34 38 -61 73 -61 78 0 6 -40 51 -89
102 -67 70 -92 103 -101 134 -21 80 -48 129 -95 173 -49 46 -85 104 -85 139 0
11 -4 20 -9 20 -17 0 -23 56 -21 205 2 169 5 237 15 295 5 27 3 46 -5 55 -30
36 -61 -1 -60 -69 1 -28 -3 -91 -9 -141 -6 -49 -8 -144 -5 -210 3 -66 2 -124
-3 -130 -16 -20 -75 -45 -107 -45 -21 0 -49 13 -85 40 -29 22 -56 40 -61 40
-9 0 -66 91 -75 122 -4 12 -16 37 -26 54 -11 17 -19 39 -19 48 0 41 -112 171
-192 223 -69 44 -83 63 -50 63 29 0 75 -26 127 -72 43 -38 47 -39 43 -17 -4
31 -121 119 -157 119 -50 -1 -133 -26 -147 -44 -7 -10 -16 -39 -20 -65 -9 -66
-53 -203 -71 -223 -32 -36 -45 14 -19 74 42 98 54 161 46 243 -9 88 -6 97 43
115 18 6 44 18 59 26 31 17 87 11 163 -16 49 -17 85 -13 85 9 0 14 -112 84
-146 91 -45 10 -129 -7 -173 -34 -45 -29 -86 -25 -133 14 -44 36 -111 149
-142 241 -20 58 -35 83 -70 114 -48 45 -66 73 -66 106 0 14 -23 46 -65 87 -72
71 -69 58 -44 185 5 26 9 77 9 112 l0 63 52 46 c29 25 59 46 67 46 7 0 28 -16
45 -36z m234 -1056 c14 -14 16 -38 4 -38 -5 0 -14 11 -20 25 -12 26 -4 33 16
13z m-26 -74 c35 -25 67 -53 72 -61 17 -30 -2 -102 -62 -234 -33 -74 -64 -147
-67 -162 -8 -29 -11 -29 -71 -6 -31 11 -58 75 -62 152 -4 59 -1 71 20 100 49
64 88 158 88 209 0 26 4 48 10 48 5 0 38 -21 72 -46z m2105 -44 c-1 -11 -4
-20 -8 -20 -4 0 -9 9 -12 20 -3 13 0 20 8 20 8 0 13 -9 12 -20z m-1799 -89
c20 -17 49 -36 64 -44 54 -28 104 -84 141 -159 41 -84 42 -88 26 -88 -5 0 -19
20 -30 45 -11 24 -24 47 -30 50 -5 4 -17 24 -25 45 -16 38 -44 62 -44 36 0 -8
21 -56 48 -108 66 -132 73 -148 58 -148 -14 0 -76 82 -76 100 0 6 -14 23 -30
37 -41 34 -114 158 -107 182 3 14 -2 21 -19 25 -17 5 -24 13 -24 31 0 32 3 31
48 -4z m2152 9 c13 -8 13 -10 -2 -10 -9 0 -20 5 -23 10 -8 13 5 13 25 0z
m-2155 -129 c-9 -8 -95 84 -95 101 1 7 23 -11 51 -41 27 -29 47 -56 44 -60z
m2255 89 c0 -5 -4 -10 -10 -10 -5 0 -10 5 -10 10 0 6 5 10 10 10 6 0 10 -4 10
-10z m115 -52 c10 -10 4 -9 -55 8 -11 3 -20 9 -20 14 0 10 60 -8 75 -22z m145
-78 c0 -5 -2 -10 -4 -10 -3 0 -8 5 -11 10 -3 6 -1 10 4 10 6 0 11 -4 11 -10z
m45 -30 c3 -5 1 -10 -4 -10 -6 0 -11 5 -11 10 0 6 2 10 4 10 3 0 8 -4 11 -10z
m-210 -30 c3 -5 -1 -10 -9 -10 -9 0 -16 5 -16 10 0 6 4 10 9 10 6 0 13 -4 16
-10z m255 0 c0 -5 -2 -10 -4 -10 -3 0 -8 5 -11 10 -3 6 -1 10 4 10 6 0 11 -4
11 -10z m55 -21 c12 -19 -5 -23 -22 -6 -16 16 -16 17 -1 17 9 0 20 -5 23 -11z
m-2859 -126 c22 -95 -4 -126 -44 -54 -26 46 -28 88 -5 113 22 25 32 13 49 -59z
m479 7 c3 -5 1 -10 -4 -10 -6 0 -11 5 -11 10 0 6 2 10 4 10 3 0 8 -4 11 -10z
m2505 -90 c0 -5 -7 -10 -15 -10 -8 0 -15 5 -15 10 0 6 7 10 15 10 8 0 15 -4
15 -10z m250 -45 c20 -24 5 -28 -21 -6 -19 16 -20 20 -8 21 9 0 22 -7 29 -15z
m-2426 -54 c18 -7 18 -8 3 -14 -19 -7 -22 -39 -7 -68 6 -10 7 -19 2 -19 -13 0
-122 80 -122 90 0 16 92 24 124 11z m2421 -31 c3 -5 1 -10 -4 -10 -6 0 -11 5
-11 10 0 6 2 10 4 10 3 0 8 -4 11 -10z m-2335 -79 c0 -11 -10 -5 -30 17 -39
42 -39 64 0 27 17 -16 30 -36 30 -44z m31 48 c11 -5 17 -14 14 -20 -7 -11 -45
7 -45 21 0 13 7 13 31 -1z m2209 -39 c11 -7 7 -10 -17 -10 -18 0 -33 5 -33 10
0 13 30 13 50 0z m200 -21 c0 -12 -47 -12 -54 0 -3 4 -3 10 0 13 7 8 54 -3 54
-13z m-133 -15 c-3 -3 -12 -4 -19 -1 -8 3 -5 6 6 6 11 1 17 -2 13 -5z m-44
-49 c33 -4 54 -11 51 -17 -4 -5 -15 -7 -27 -4 -11 3 -28 1 -38 -5 -13 -7 -27
-4 -49 9 -27 17 -31 38 -5 28 7 -2 37 -7 68 -11z m-143 -20 c17 -9 30 -17 30
-20 0 -7 -60 16 -66 26 -8 13 3 11 36 -6z m6561 -95 c-14 -46 -30 -57 -60 -40
-32 17 -25 46 16 75 47 31 61 21 44 -35z m-6244 15 c-4 -12 -101 -23 -141 -15
-16 3 -31 11 -33 17 -3 8 22 11 87 10 58 -1 89 -5 87 -12z m108 -5 c3 -5 -1
-10 -9 -10 -9 0 -16 5 -16 10 0 6 4 10 9 10 6 0 13 -4 16 -10z m-371 -6 c9 -3
16 -15 16 -25 0 -10 6 -19 14 -19 8 0 27 -5 43 -11 25 -9 26 -12 11 -20 -27
-15 -87 6 -133 46 l-40 34 37 1 c20 0 43 -3 52 -6z m6634 -21 c6 -10 13 -41
17 -69 5 -41 3 -54 -10 -68 -18 -18 -33 -20 -54 -7 -11 7 -10 21 5 85 18 78
26 89 42 59z m-5992 -18 c4 -8 13 -15 21 -15 8 0 11 -4 8 -10 -9 -14 -72 -13
-81 2 -4 6 1 17 11 25 24 17 34 17 41 -2z m-274 -14 c11 -12 10 -13 -5 -8 -11
4 -20 1 -23 -8 -11 -27 -176 -13 -182 15 -2 13 13 15 97 15 72 0 104 -4 113
-14z m476 0 c3 -8 -1 -12 -9 -9 -7 2 -15 10 -17 17 -3 8 1 12 9 9 7 -2 15 -10
17 -17z m5342 -1 c0 -5 -4 -10 -10 -10 -5 0 -10 5 -10 10 0 6 5 10 10 10 6 0
10 -4 10 -10z m-6271 -11 c30 -11 37 -19 25 -32 -9 -8 -64 21 -64 33 0 12 0
12 39 -1z m586 -11 c18 -8 25 -19 24 -37 0 -25 -1 -25 -9 -4 -5 12 -21 25 -35
29 -14 3 -25 10 -25 15 0 12 14 11 45 -3z m5942 -21 c-6 -20 -27 -19 -27 2 0
14 5 19 15 14 9 -3 14 -10 12 -16z m-6283 -44 c23 -33 26 -54 8 -53 -16 1 -83
70 -77 79 13 22 45 10 69 -26z m278 -5 c-6 -6 -16 -7 -22 -3 -9 6 -9 9 1 16
17 10 34 0 21 -13z m-422 -3 c0 -9 -6 -12 -15 -9 -8 4 -15 10 -15 15 0 5 7 9
15 9 8 0 15 -7 15 -15z m490 5 c0 -5 -5 -10 -11 -10 -5 0 -7 5 -4 10 3 6 8 10
11 10 2 0 4 -4 4 -10z m180 -37 c0 -7 -5 -13 -12 -13 -17 0 -48 31 -48 47 0
11 6 11 30 -4 17 -9 30 -23 30 -30z m-771 26 c25 -9 29 -14 20 -25 -6 -8 -17
-14 -23 -14 -19 1 -48 28 -41 39 8 13 5 13 44 0z m361 1 c0 -5 -2 -10 -4 -10
-3 0 -8 5 -11 10 -3 6 -1 10 4 10 6 0 11 -4 11 -10z m161 -21 c4 -8 7 -14 6
-15 -8 -6 -147 23 -140 30 12 12 125 0 134 -15z m324 -19 l29 -30 -26 0 c-22
0 -58 34 -58 55 0 15 30 1 55 -25z m-187 -12 c-6 -18 -28 -21 -28 -4 0 9 7 16
16 16 9 0 14 -5 12 -12z m-252 -8 c24 0 34 -5 34 -16 0 -13 -10 -15 -67 -9
-76 8 -78 9 -68 25 5 7 19 10 37 6 17 -3 46 -6 64 -6z m-197 -18 c8 -15 35
-22 138 -36 153 -21 163 -23 163 -42 0 -10 -7 -13 -22 -9 -104 22 -185 35
-228 35 -41 0 -56 5 -75 25 -14 13 -25 29 -25 35 0 17 39 11 49 -8z m-114 -12
c26 -17 27 -20 11 -26 -25 -10 -70 8 -74 29 -5 23 25 22 63 -3z m900 10 c3 -5
-1 -10 -9 -10 -9 0 -16 5 -16 10 0 6 4 10 9 10 6 0 13 -4 16 -10z m-416 -9
c18 -11 5 -31 -20 -31 -25 0 -59 17 -59 30 0 12 60 13 79 1z m221 -12 c0 -5
-7 -9 -15 -9 -8 0 -15 7 -15 15 0 9 6 12 15 9 8 -4 15 -10 15 -15z m-1539 -16
c-12 -37 -29 -127 -36 -185 -7 -53 -25 -75 -25 -31 0 43 27 185 41 216 16 35
30 35 20 0z m1614 6 c12 -19 -5 -23 -22 -6 -16 16 -16 17 -1 17 9 0 20 -5 23
-11z m-165 -52 c0 -6 -9 -2 -20 8 -11 10 -20 23 -20 28 0 6 9 2 20 -8 11 -10
20 -23 20 -28z m455 32 c4 -6 5 -13 2 -16 -9 -8 -87 8 -87 18 0 13 77 11 85
-2z m-361 -20 c24 -11 26 -39 2 -39 -12 1 -56 35 -56 44 0 10 27 7 54 -5z
m5628 -18 c-3 -25 1 -31 33 -47 l37 -17 -24 -13 c-28 -16 -112 -18 -139 -4
-48 26 0 110 64 110 31 0 33 -2 29 -29z m-6077 -6 l40 -13 -52 -1 c-57 -1 -86
6 -77 20 7 12 41 10 89 -6z m565 0 c30 -15 40 -35 19 -35 -18 0 -46 19 -53 35
-7 19 -2 19 34 0z m-289 -12 c32 -19 35 -26 16 -41 -9 -8 -21 -4 -45 14 -49
39 -27 60 29 27z m-201 -13 c0 -5 -4 -10 -10 -10 -5 0 -10 5 -10 10 0 6 5 10
10 10 6 0 10 -4 10 -10z m132 -27 c15 -7 37 -31 48 -53 l20 -40 -27 0 c-37 0
-106 43 -108 66 -2 11 -6 27 -10 37 -7 16 -4 17 21 11 16 -4 41 -13 56 -21z
m821 5 c15 -6 27 -14 27 -19 0 -12 -2 -12 -54 11 -75 32 -53 39 27 8z m-1057
-9 c47 -14 88 -62 80 -93 -3 -13 -15 -28 -27 -31 l-21 -7 23 -24 c12 -13 31
-24 41 -24 11 0 18 -7 18 -20 0 -16 -7 -20 -35 -20 -31 0 -38 6 -75 60 -22 33
-43 60 -47 60 -12 0 9 -106 24 -123 12 -13 14 -20 5 -29 -16 -16 -39 -3 -58
34 -18 36 -51 67 -73 68 -11 0 -10 -5 3 -24 10 -16 14 -36 10 -53 -4 -21 0
-33 15 -47 26 -24 27 -46 2 -46 -23 0 -34 14 -50 59 -12 36 -38 71 -52 71 -5
0 -6 -21 -3 -47 l5 -48 -23 28 c-38 44 -48 35 -47 -40 2 -119 22 -163 48 -106
12 27 13 27 28 8 9 -13 13 -37 11 -67 -2 -34 1 -49 11 -53 22 -8 40 14 43 53
3 32 7 37 31 40 26 3 27 2 27 -42 0 -25 3 -46 8 -46 21 1 31 20 34 65 3 48 4
50 33 50 28 0 30 -3 33 -42 2 -29 8 -43 18 -43 16 0 17 6 14 78 -1 28 1 52 4
52 4 0 25 -9 46 -20 30 -15 40 -26 40 -45 0 -13 5 -27 10 -30 17 -11 21 19 10
70 -9 40 -8 51 4 63 13 13 21 14 56 2 22 -7 43 -10 47 -6 4 3 6 25 4 48 l-2
41 38 -6 c72 -12 77 -53 20 -174 -52 -112 -128 -246 -157 -278 -56 -62 -78
-115 -47 -115 16 0 46 40 77 100 12 25 35 59 50 75 35 37 95 148 103 192 9 45
37 87 50 74 10 -10 3 -32 -44 -136 -10 -22 -28 -67 -39 -99 -11 -33 -36 -88
-55 -123 -39 -70 -40 -73 -25 -73 14 0 90 121 90 143 0 10 11 39 24 65 13 26
31 71 40 99 10 29 26 63 36 75 17 21 19 21 25 6 5 -13 14 -16 31 -12 36 9 31
-24 -6 -40 -27 -11 -28 -14 -14 -27 15 -16 14 -23 -27 -99 -5 -8 -32 -61 -60
-118 -29 -56 -62 -114 -75 -128 -28 -29 -29 -34 -10 -34 8 0 37 25 65 56 57
62 63 61 26 -5 -25 -43 -25 -72 -1 -38 14 18 36 23 36 8 0 -5 -22 -37 -50 -72
-53 -68 -59 -84 -35 -92 11 -5 12 -12 4 -37 -6 -16 -8 -38 -5 -46 6 -15 8 -15
27 2 21 19 21 19 17 -16 -2 -27 1 -35 15 -38 12 -2 20 4 24 17 5 21 14 26 26
14 4 -3 2 -12 -5 -20 -8 -10 -8 -17 1 -26 14 -14 31 6 31 40 0 28 10 53 21 53
5 0 9 -14 9 -31 0 -43 18 -73 35 -59 15 12 25 -6 25 -46 0 -16 4 -23 11 -18 7
4 9 30 4 78 -6 62 -5 69 8 56 19 -19 37 -75 37 -112 0 -40 17 -68 40 -68 16 0
20 7 20 30 0 44 16 36 24 -11 11 -70 46 -111 46 -54 0 30 16 33 25 4 5 -16 12
-19 31 -15 19 5 25 2 30 -18 3 -15 15 -27 30 -30 13 -4 24 -13 24 -20 0 -18
29 -48 40 -41 4 3 6 14 3 25 -8 29 6 25 47 -17 21 -21 44 -44 51 -51 8 -7 65
-64 128 -127 107 -106 119 -115 195 -144 107 -41 159 -90 220 -207 25 -49 69
-120 98 -159 28 -38 75 -101 103 -140 29 -38 58 -81 65 -95 24 -48 228 -355
319 -480 27 -36 72 -108 101 -160 29 -52 63 -111 75 -130 57 -91 121 -272 136
-383 5 -37 22 -102 39 -144 17 -42 29 -78 26 -80 -19 -19 -135 92 -217 208
-55 77 -77 119 -170 319 -69 149 -222 436 -260 492 -11 14 -19 30 -19 34 0 4
-19 37 -42 73 -157 244 -415 521 -608 653 -106 72 -678 361 -738 373 -10 2
-40 16 -67 32 -28 16 -92 47 -144 69 -55 23 -100 48 -108 62 -10 14 -25 22
-42 22 -15 0 -54 16 -87 36 -32 20 -88 52 -124 71 -235 122 -379 237 -564 447
-75 85 -141 158 -147 162 -6 3 -19 26 -30 51 -10 25 -34 63 -53 85 -20 22 -43
68 -56 108 -20 63 -21 73 -9 112 10 32 19 43 34 43 18 0 20 -7 22 -70 3 -107
24 -185 49 -185 12 0 13 10 7 53 -4 28 -7 87 -6 131 2 85 10 102 90 199 68 82
162 116 373 137 91 9 333 2 376 -11z m781 -7 c19 -12 21 -17 11 -35 -11 -21
-11 -20 -34 9 -26 31 -32 60 -11 48 6 -4 22 -14 34 -22z m-252 -17 c23 -22 34
-55 19 -55 -17 0 -44 24 -57 50 -14 26 -14 30 -1 30 8 0 26 -11 39 -25z m370
6 c10 -17 -12 -21 -25 -6 -10 12 -10 15 3 15 9 0 18 -4 22 -9z m-755 -11 c0
-5 -4 -10 -9 -10 -6 0 -13 5 -16 10 -3 6 1 10 9 10 9 0 16 -4 16 -10z m495
-10 c4 -6 -6 -10 -22 -10 -22 0 -25 2 -13 10 19 12 27 12 35 0z m405 -10 c0
-5 -4 -10 -10 -10 -5 0 -10 5 -10 10 0 6 5 10 10 10 6 0 10 -4 10 -10z m4913
-11 c39 -12 83 -18 98 -15 54 10 50 -42 -6 -95 -36 -35 -37 -44 -2 -44 18 0
22 -6 23 -36 2 -56 10 -69 43 -69 42 0 61 -9 61 -30 0 -16 -4 -17 -34 -9 -41
11 -106 8 -108 -6 0 -6 11 -16 26 -23 14 -7 26 -19 26 -26 0 -19 23 -26 77
-26 45 0 45 0 40 -29 -8 -36 12 -46 58 -30 18 7 40 9 49 6 16 -6 16 -9 -3 -33
-12 -15 -21 -33 -21 -40 0 -24 20 -15 38 16 9 17 28 33 42 37 14 3 32 11 40
18 8 6 67 22 130 35 63 13 120 26 125 30 10 7 134 5 260 -4 48 -3 74 -1 87 9
27 18 8 27 -66 30 -33 2 -106 6 -160 9 -94 6 -134 1 -191 -24 -27 -12 -167
-42 -172 -37 -9 10 28 25 107 45 47 12 117 31 155 41 39 11 93 20 122 20 72 1
155 20 150 34 -5 15 -124 11 -252 -8 -56 -9 -94 -10 -99 -4 -6 6 -3 9 10 9 21
0 78 18 169 54 33 13 92 31 132 40 39 9 97 30 128 46 64 34 98 39 93 14 -2 -9
-23 -24 -47 -33 -25 -9 -43 -20 -42 -26 2 -5 8 -9 14 -7 6 2 33 3 61 4 27 0
59 6 70 13 12 7 71 15 136 19 63 4 140 13 170 21 65 18 90 19 90 4 0 -21 -70
-39 -150 -39 -49 0 -95 -6 -117 -15 -19 -8 -48 -15 -63 -15 -22 0 -27 -4 -23
-18 4 -16 -7 -20 -85 -30 -49 -7 -101 -12 -116 -12 -14 0 -26 -5 -26 -11 0 -8
38 -10 138 -4 l137 7 46 -41 46 -40 69 4 c66 5 68 5 42 -10 -40 -22 -35 -28
17 -21 25 4 45 5 45 3 0 -9 -71 -47 -89 -47 -9 0 -25 -6 -36 -13 -17 -13 -16
-15 16 -26 l34 -13 -42 -13 c-23 -7 -54 -22 -69 -34 -15 -11 -34 -21 -42 -21
-8 0 -38 -11 -66 -24 -28 -13 -78 -27 -111 -30 -103 -12 -240 -37 -249 -46
-15 -15 78 -31 101 -17 6 4 14 3 18 -3 3 -5 -1 -10 -9 -10 -9 0 -16 -6 -16
-14 0 -9 -16 -17 -42 -21 -69 -10 -140 -26 -183 -41 -109 -37 -441 -39 -584
-3 -41 10 -82 19 -92 19 -19 0 -141 103 -147 123 -2 7 1 5 7 -3 9 -12 11 -12
11 -1 0 22 -38 77 -66 96 -26 17 -58 80 -73 144 -5 20 -10 43 -12 51 -5 20 56
23 72 4 15 -19 89 -19 89 0 0 8 -17 15 -47 19 -27 3 -61 10 -77 17 -28 10 -28
11 -10 25 18 13 18 14 -5 38 -33 36 -20 50 40 42 27 -4 49 -5 49 -2 0 3 -16
21 -35 40 -37 37 -48 90 -23 115 16 16 19 16 101 -9z m-5238 0 c4 -6 5 -12 2
-15 -7 -7 -37 7 -37 17 0 13 27 11 35 -2z m-347 -11 c7 -7 12 -21 12 -32 0
-18 -1 -19 -20 -1 -20 18 -27 45 -12 45 4 0 13 -5 20 -12z m582 -28 c0 -11 11
-22 28 -28 25 -10 24 -10 -17 -11 -37 -1 -42 1 -31 14 10 12 9 16 -4 20 -55
17 -53 15 -32 30 23 18 56 3 56 -25z m-1760 26 c0 -3 -4 -8 -10 -11 -5 -3 -10
-1 -10 4 0 6 5 11 10 11 6 0 10 -2 10 -4z m970 -15 c0 -16 -13 -20 -32 -10
-10 5 -16 14 -13 19 6 9 45 1 45 -9z m470 9 c0 -5 -2 -10 -4 -10 -3 0 -8 5
-11 10 -3 6 -1 10 4 10 6 0 11 -4 11 -10z m205 -19 c0 -36 -22 -37 -27 -1 -4
24 -1 30 11 28 9 -2 16 -13 16 -27z m265 9 c0 -5 -6 -10 -14 -10 -8 0 -18 5
-21 10 -3 6 3 10 14 10 12 0 21 -4 21 -10z m6660 1 c0 -12 -20 -25 -27 -18 -7
7 6 27 18 27 5 0 9 -4 9 -9z m-8990 -11 c0 -5 -5 -10 -11 -10 -5 0 -7 5 -4 10
3 6 8 10 11 10 2 0 4 -4 4 -10z m1968 -24 c3 -12 -1 -17 -10 -14 -7 3 -15 13
-16 22 -3 12 1 17 10 14 7 -3 15 -13 16 -22z m5992 15 c0 -12 -21 -19 -38 -13
-11 4 -11 6 0 13 17 11 38 11 38 0z m-87 -33 c-8 -44 -9 -45 -36 -20 -33 31
-47 28 -47 -12 0 -44 -42 -98 -61 -79 -10 10 -9 15 1 28 11 14 8 21 -20 50
l-33 34 24 5 c49 12 125 24 151 25 26 1 27 -1 21 -31z m-6343 7 c27 -14 41
-35 23 -35 -29 0 -83 23 -83 35 0 19 23 19 60 0z m265 -1 c9 -9 15 -29 13 -44
-1 -15 5 -34 15 -44 20 -20 22 -36 5 -36 -24 1 -48 27 -48 53 0 14 -4 29 -10
32 -13 8 -13 55 -1 55 5 0 17 -7 26 -16z m584 -3 c10 -6 10 -10 1 -16 -7 -4
-19 0 -28 9 -14 13 -14 16 -2 16 8 0 21 -4 29 -9z m-974 -11 c3 -5 1 -10 -4
-10 -6 0 -11 5 -11 10 0 6 2 10 4 10 3 0 8 -4 11 -10z m498 -5 c9 -22 -8 -26
-21 -4 -10 15 -10 19 2 19 8 0 16 -7 19 -15z m587 -10 c0 -3 -18 -5 -40 -5
-43 0 -55 16 -17 22 21 4 57 -7 57 -17z m5155 0 c29 -29 31 -42 8 -75 -30 -44
-74 -69 -53 -31 20 39 10 111 -16 111 -8 0 -14 5 -14 10 0 20 51 10 75 -15z
m883 14 c-12 -7 -24 -7 -35 0 -15 9 -12 10 17 10 29 0 32 -1 18 -10z m-970
-18 c3 -8 -1 -12 -9 -9 -7 2 -15 10 -17 17 -3 8 1 12 9 9 7 -2 15 -10 17 -17z
m1452 11 c0 -19 -27 -41 -55 -44 -42 -4 -39 21 5 37 44 16 50 17 50 7z m-6760
-12 c8 -5 11 -12 8 -15 -10 -10 -69 5 -62 16 7 12 35 11 54 -1z m5260 -1 c0
-57 -50 -123 -79 -105 -19 12 -12 36 21 77 30 38 58 51 58 28z m605 2 c3 -6
-4 -15 -16 -21 -24 -13 -73 -5 -63 11 3 6 12 8 18 6 7 -3 19 -1 27 4 18 11 26
11 34 0z m-6158 -23 c-3 -8 -6 -5 -6 6 -1 11 2 17 5 13 3 -3 4 -12 1 -19z
m393 13 c0 -5 29 -9 65 -10 36 -1 80 -8 98 -16 l32 -15 -42 3 c-50 3 -56 -10
-13 -26 39 -15 41 -40 3 -31 -58 14 -130 45 -151 64 -26 24 -28 40 -7 40 8 0
15 -4 15 -9z m220 -1 c0 -5 -7 -7 -15 -4 -8 4 -15 8 -15 10 0 2 7 4 15 4 8 0
15 -4 15 -10z m4820 -4 c0 -7 -7 -19 -15 -26 -16 -13 -20 -3 -9 24 8 20 24 21
24 2z m-5730 -6 c0 -5 -6 -10 -14 -10 -8 0 -18 5 -21 10 -3 6 3 10 14 10 12 0
21 -4 21 -10z m-1539 -13 c-1 -4 -1 -14 -1 -23 0 -8 -4 -12 -10 -9 -13 8 -13
48 1 43 6 -2 10 -7 10 -11z m2489 -2 c-7 -8 -14 -15 -15 -15 -2 0 -5 7 -9 15
-4 10 1 15 16 15 17 0 18 -2 8 -15z m-1165 -11 c25 -25 15 -49 -20 -47 -30 2
-55 25 -55 50 0 19 55 16 75 -3z m695 -19 c0 -7 7 -18 15 -25 25 -21 19 -50
-10 -50 -16 0 -25 6 -25 16 0 10 -6 14 -15 10 -8 -3 -15 -2 -15 3 0 5 -3 22
-6 39 -5 24 -2 31 12 34 22 5 44 -9 44 -27z m126 8 c3 -10 11 -30 19 -45 14
-27 13 -28 -14 -28 -34 0 -49 15 -57 58 -6 30 -4 32 20 32 17 0 29 -7 32 -17z
m5294 -4 c-7 -11 -14 -19 -16 -16 -7 7 7 37 17 37 6 0 5 -9 -1 -21z m-5615
-38 c9 -22 -2 -25 -30 -7 -14 9 -25 26 -25 37 0 19 1 19 25 2 13 -10 27 -24
30 -32z m7035 41 c0 -5 -12 -14 -26 -21 -34 -15 -23 -26 22 -22 18 1 34 -1 34
-5 0 -12 -42 -54 -54 -54 -6 0 -38 -11 -71 -24 -33 -14 -61 -23 -64 -21 -8 9
75 119 104 136 32 20 55 24 55 11z m-7320 -14 c6 -7 17 -22 24 -33 10 -14 18
-16 27 -9 24 16 100 9 115 -11 7 -10 11 -22 7 -28 -4 -6 -11 -3 -18 6 -7 10
-17 17 -23 17 -17 0 -32 -34 -25 -58 3 -14 0 -24 -10 -28 -20 -7 -87 22 -87
39 0 8 -9 22 -20 32 -12 11 -20 31 -20 52 0 34 11 42 30 21z m7134 -10 c10
-17 2 -48 -13 -48 -5 0 -7 9 -4 20 8 29 -10 24 -35 -10 -13 -16 -28 -30 -34
-30 -6 0 -19 -7 -28 -15 -14 -13 -20 -10 -55 21 -22 19 -51 37 -65 40 -64 14
-63 18 5 29 101 16 216 12 229 -7z m-7449 -29 c17 -17 -9 -31 -38 -20 -38 15
-37 46 1 36 15 -3 31 -11 37 -16z m685 11 c0 -5 -9 -10 -20 -10 -11 0 -20 5
-20 10 0 6 9 10 20 10 11 0 20 -4 20 -10z m737 -15 c19 -13 42 -17 112 -15 24
1 92 -39 86 -50 -8 -13 -275 57 -275 72 0 14 54 9 77 -7z m-258 -31 c9 -9
-102 -3 -120 7 -38 20 -9 26 53 12 35 -8 65 -16 67 -19z m-1285 4 c16 -23 22
-58 9 -58 -15 0 -53 45 -53 62 0 25 26 23 44 -4z m673 -23 c-1 -35 -10 -45
-22 -24 -9 13 3 59 14 59 5 0 9 -16 8 -35z m143 25 c0 -5 -9 -10 -20 -10 -11
0 -20 5 -20 10 0 6 9 10 20 10 11 0 20 -4 20 -10z m300 6 c0 -11 -19 -15 -25
-6 -3 5 1 10 9 10 9 0 16 -2 16 -4z m5240 -10 c0 -11 -19 -15 -25 -6 -3 5 1
10 9 10 9 0 16 -2 16 -4z m-6560 -27 c0 -6 -4 -7 -10 -4 -5 3 -10 11 -10 16 0
6 5 7 10 4 6 -3 10 -11 10 -16z m6758 -1 c7 -6 9 -14 5 -18 -14 -13 -120 -40
-156 -40 -19 0 -48 -5 -65 -11 -73 -25 -50 1 38 44 77 38 102 46 130 41 19 -3
41 -11 48 -16z m-4987 -7 c43 -7 43 -8 14 -14 -36 -8 -87 4 -93 22 -3 9 2 11
16 7 11 -4 40 -10 63 -15z m-481 0 c-1 -24 -20 -33 -59 -26 -58 10 -52 30 9
31 28 0 50 -2 50 -5z m119 -16 c4 -23 21 -37 38 -30 6 2 26 0 45 -5 55 -15
211 -23 203 -11 -3 6 -18 11 -33 12 -15 0 -36 4 -47 9 -15 6 -8 9 28 9 50 1
277 -36 287 -46 5 -5 -21 -3 -150 13 -34 5 -50 3 -50 -5 0 -6 13 -11 29 -11
24 0 51 -6 111 -27 11 -4 9 -7 -8 -14 -14 -5 -31 -5 -40 0 -9 5 -53 12 -98 16
-44 4 -86 10 -94 15 -7 4 -24 1 -39 -6 -34 -18 -56 -18 -85 1 -12 8 -44 18
-70 21 -44 6 -51 5 -67 -17 -16 -20 -20 -22 -29 -9 -5 8 -8 20 -6 26 3 6 1 28
-4 48 l-8 37 41 -3 c33 -2 43 -7 46 -23z m6540 -32 c-23 -54 -66 -102 -91
-103 -10 0 -36 -9 -58 -21 -33 -17 -40 -26 -40 -50 0 -28 -13 -39 -25 -19 -3
5 -12 7 -19 4 -10 -4 -14 6 -14 36 -1 30 4 42 16 46 9 3 25 10 34 15 10 5 25
6 34 2 14 -5 16 -2 11 18 -7 27 -4 30 93 86 77 44 83 42 59 -14z m-9154 27 c3
-5 1 -10 -4 -10 -6 0 -11 5 -11 10 0 6 2 10 4 10 3 0 8 -4 11 -10z m1295 0 c0
-5 -4 -10 -10 -10 -5 0 -10 5 -10 10 0 6 5 10 10 10 6 0 10 -4 10 -10z m948
-13 c28 -22 -7 -26 -66 -6 -34 11 -62 23 -62 26 0 8 115 -9 128 -20z m921 2
c23 -8 29 -14 21 -19 -8 -5 -24 -4 -37 1 -14 5 -34 9 -47 9 -12 0 -31 7 -42
16 -18 14 -16 15 26 9 25 -3 60 -10 79 -16z m161 11 c0 -5 -7 -7 -15 -4 -8 4
-15 8 -15 10 0 2 7 4 15 4 8 0 15 -4 15 -10z m115 0 c4 -6 -5 -10 -19 -10 -14
0 -26 5 -26 10 0 6 9 10 19 10 11 0 23 -4 26 -10z m-1439 -25 c-3 -9 -11 -13
-16 -10 -8 5 -7 11 1 21 14 18 24 11 15 -11z m1565 5 c52 -11 125 -27 164 -35
38 -8 83 -15 100 -15 16 0 52 -7 79 -15 59 -18 160 -20 206 -4 40 14 101 -4
200 -62 66 -37 259 -107 360 -129 30 -7 78 -18 105 -26 28 -7 73 -15 100 -18
28 -3 104 -12 170 -20 146 -18 334 -34 515 -42 74 -3 180 -8 235 -11 126 -5
163 -6 420 -5 291 0 500 0 698 -2 76 -1 107 -4 107 -13 0 -18 66 -33 147 -33
39 0 84 -5 100 -12 15 -6 57 -14 93 -17 l65 -6 -44 -16 c-25 -8 -47 -21 -49
-27 -6 -18 28 -27 49 -14 10 7 42 12 70 12 40 0 58 5 81 25 32 27 74 32 137
16 20 -5 62 -15 94 -21 60 -12 66 -23 20 -35 -15 -3 -33 -15 -41 -26 -7 -10
-22 -19 -33 -19 -28 0 -23 18 6 22 16 2 22 7 17 15 -6 9 -22 9 -72 -2 -134
-28 -222 -33 -495 -28 -532 8 -551 8 -750 -27 -187 -32 -222 -33 -760 -33
-503 1 -796 7 -835 17 -8 3 -98 7 -200 11 -257 8 -431 22 -525 40 -44 9 -119
20 -166 25 -47 4 -146 23 -220 40 -151 35 -185 42 -319 65 -52 9 -135 28 -185
42 -49 14 -106 29 -125 33 -19 4 -96 30 -172 58 -75 28 -167 59 -205 68 -75
19 -137 47 -150 67 -4 7 -23 19 -41 26 -45 19 -35 35 24 39 26 2 54 8 60 13
12 10 45 6 148 -19 65 -16 69 -16 82 2 11 16 22 18 72 13 99 -11 301 -64 362
-96 40 -21 196 -55 210 -46 25 15 5 33 -52 50 -118 33 -128 36 -134 47 -9 14
60 2 166 -29 47 -14 101 -29 120 -33 19 -4 50 -11 69 -15 27 -6 33 -5 29 6 -3
8 -48 24 -116 40 -139 33 -151 37 -133 48 10 6 -5 16 -48 31 -56 21 -86 40
-63 40 12 0 269 -66 342 -88 85 -25 26 -27 -74 -3 -95 24 -104 25 -90 12 11
-10 173 -51 203 -51 12 0 21 5 21 11 0 7 14 10 35 7 23 -3 35 0 35 8 0 14 -11
18 -95 34 -127 24 -366 91 -347 98 12 4 241 -49 367 -85 28 -8 70 -17 95 -20
41 -6 44 -5 31 10 -7 10 -20 17 -27 17 -7 0 -42 9 -76 19 -35 11 -102 29 -151
42 -48 12 -95 28 -105 35 -22 17 -21 17 89 -6z m-1195 -10 c13 0 24 -4 24 -10
0 -11 -39 -13 -64 -4 -9 3 -16 11 -16 16 0 6 7 7 16 4 9 -3 27 -6 40 -6z
m-315 -23 c-1 -12 -15 -9 -19 4 -3 6 1 10 8 8 6 -3 11 -8 11 -12z m89 -6 c0
-12 -40 -41 -57 -41 -19 0 -3 30 21 40 28 12 36 12 36 1z m-130 -21 c27 -20
26 -27 -5 -30 -36 -4 -45 0 -45 18 0 36 15 40 50 12z m198 -3 c2 -10 -3 -17
-12 -17 -10 0 -16 9 -16 21 0 24 23 21 28 -4z m991 9 c17 -9 20 -15 11 -21 -7
-4 -21 1 -33 14 -24 24 -14 27 22 7z m-871 -15 c3 -8 -1 -12 -9 -9 -7 2 -15
10 -17 17 -3 8 1 12 9 9 7 -2 15 -10 17 -17z m1012 -23 c36 -10 40 -13 20 -15
-32 -4 -112 19 -117 34 -3 9 3 9 24 2 15 -5 48 -15 73 -21z m-1020 -39 c0 -14
-51 -22 -62 -11 -8 8 -8 15 1 26 10 12 18 13 37 4 13 -6 24 -15 24 -19z m-208
-6 c7 -15 24 -30 37 -33 32 -7 36 -22 11 -45 -11 -10 -20 -28 -20 -40 0 -14
-8 -25 -20 -28 -14 -4 -20 0 -20 13 0 23 -23 42 -43 34 -17 -6 -37 22 -37 52
0 21 48 74 66 74 7 0 19 -12 26 -27z m97 18 c11 -7 9 -11 -8 -21 -27 -14 -51
-7 -51 15 0 17 36 20 59 6z m-224 -31 c-3 -5 -15 -10 -26 -10 -10 0 -19 5 -19
10 0 6 12 10 26 10 14 0 23 -4 19 -10z m520 -10 c3 -5 -1 -10 -9 -10 -9 0 -16
5 -16 10 0 6 4 10 9 10 6 0 13 -4 16 -10z m6505 0 c0 -5 -4 -10 -10 -10 -5 0
-10 5 -10 10 0 6 5 10 10 10 6 0 10 -4 10 -10z m-130 -27 c0 -10 -17 -28 -39
-40 -37 -21 -67 -31 -166 -53 -22 -5 -58 -16 -80 -24 -42 -16 -75 -20 -75 -10
0 11 45 43 62 44 10 0 32 6 50 14 18 8 80 30 138 49 58 19 106 35 108 36 1 0
2 -7 2 -16z m-6939 -3 c22 -12 25 -33 5 -49 -17 -15 -44 -5 -51 20 -11 35 9
48 46 29z m331 -5 c0 -5 -5 -11 -11 -13 -6 -2 -11 4 -11 13 0 9 5 15 11 13 6
-2 11 -8 11 -13z m105 -1 c7 -18 -23 -47 -38 -38 -10 6 11 54 23 54 5 0 11 -7
15 -16z m100 -21 c-3 -3 -11 -2 -17 2 -8 5 -7 11 2 22 12 15 13 14 16 -1 2
-10 1 -20 -1 -23z m164 -26 c-7 -7 -20 -6 -41 3 -40 16 -20 32 22 18 20 -7 26
-14 19 -21z m-2342 -13 c22 -9 52 -31 66 -49 14 -19 52 -62 85 -96 45 -46 57
-65 50 -75 -12 -13 -8 -17 39 -41 13 -7 28 -13 35 -13 6 0 28 -12 49 -26 27
-18 46 -24 65 -19 15 3 48 1 74 -3 38 -8 60 -21 113 -70 78 -73 193 -162 210
-162 7 0 25 -10 40 -22 32 -25 57 -38 360 -191 236 -119 379 -187 450 -215 22
-8 44 -21 48 -28 4 -8 25 -18 46 -24 40 -11 176 -106 241 -169 47 -45 96 -141
115 -226 9 -36 22 -80 29 -98 8 -17 28 -75 44 -127 17 -52 37 -112 46 -133 20
-45 9 -47 -47 -6 -43 31 -166 179 -194 234 -9 17 -31 51 -49 78 -19 26 -34 52
-34 57 0 6 -9 19 -21 31 -15 15 -18 24 -10 32 18 18 12 45 -15 64 -14 10 -40
30 -57 44 -63 52 -355 193 -443 215 -16 4 -45 15 -64 26 -19 10 -42 18 -51 18
-9 0 -44 18 -78 40 -34 22 -95 57 -134 76 -145 73 -209 117 -309 212 -58 55
-134 116 -173 139 -120 69 -132 76 -219 137 -95 65 -263 234 -326 328 -56 84
-54 91 19 62z m1930 -5 c-7 -14 -14 -18 -21 -11 -13 13 -2 32 18 32 12 0 13
-4 3 -21z m221 13 c0 -5 -6 -16 -13 -27 -10 -13 -16 -15 -21 -6 -4 6 -2 18 4
26 13 16 30 20 30 7z m127 -8 c-3 -3 -12 -4 -19 -1 -8 3 -5 6 6 6 11 1 17 -2
13 -5z m201 -15 c35 -13 27 -32 -10 -24 -58 11 -98 26 -98 36 0 10 69 2 108
-12z m6067 2 c-3 -6 -16 -11 -28 -11 -21 1 -21 1 3 15 27 14 36 13 25 -4z
m-6928 -16 c3 -9 3 -19 -1 -22 -7 -7 -36 16 -36 28 0 15 30 10 37 -6z m133 7
c0 -15 -68 -74 -79 -68 -12 8 -4 33 17 59 15 17 62 24 62 9z m275 -12 c-3 -5
-15 -15 -26 -20 -15 -8 -19 -7 -19 4 0 13 14 21 43 25 5 0 5 -3 2 -9z m-1817
-46 c91 -24 172 -76 172 -109 0 -19 -2 -19 -84 5 -71 20 -137 58 -162 94 -19
28 -18 40 4 31 9 -4 41 -13 70 -21z m1602 7 c0 -6 -4 -13 -10 -16 -5 -3 -10 1
-10 9 0 9 5 16 10 16 6 0 10 -4 10 -9z m-246 -7 c21 -8 20 -28 -1 -50 -17 -17
-18 -16 -24 12 -8 42 -3 49 25 38z m322 -25 c8 -14 -18 -31 -30 -19 -9 9 0 30
14 30 5 0 12 -5 16 -11z m-212 -18 c3 -5 -1 -12 -10 -15 -20 -8 -29 -1 -19 13
8 13 22 14 29 2z m6807 -21 c40 0 48 -3 52 -22 4 -12 5 -23 4 -24 -1 -1 -80
-4 -174 -7 -95 -3 -177 -8 -182 -11 -14 -9 -41 4 -41 20 0 20 30 30 41 13 8
-12 11 -11 22 2 20 26 151 50 202 37 16 -4 51 -8 76 -8z m-6741 -20 c0 -5 -4
-10 -10 -10 -5 0 -10 5 -10 10 0 6 5 10 10 10 6 0 10 -4 10 -10z m6360 -41 c0
-5 -16 -9 -35 -9 -40 0 -46 12 -12 27 22 11 47 1 47 -18z m-7675 -39 c16 -14
20 -36 7 -44 -26 -16 -162 54 -162 84 0 11 136 -25 155 -40z m6775 36 c0 -7
-6 -19 -14 -25 -11 -9 -15 -8 -20 5 -4 10 -1 21 6 26 19 12 28 10 28 -6z
m-5578 -11 c0 -5 -5 -11 -11 -13 -6 -2 -11 4 -11 13 0 9 5 15 11 13 6 -2 11
-8 11 -13z m7228 6 c0 -13 -49 -23 -81 -16 -16 4 -27 11 -23 16 7 12 104 12
104 0z m-570 -21 c30 -19 -15 -25 -150 -21 -69 2 -80 4 -60 13 14 5 52 7 85 5
34 -3 67 -2 75 3 19 12 31 12 50 0z m-267 -54 c9 -7 17 -16 17 -20 0 -13 -28
-5 -45 14 -21 24 -1 28 28 6z m-643 -16 c0 -5 -4 -10 -10 -10 -5 0 -10 5 -10
10 0 6 5 10 10 10 6 0 10 -4 10 -10z m603 -7 c-7 -2 -21 -2 -30 0 -10 3 -4 5
12 5 17 0 24 -2 18 -5z m-1493 -18 c0 -12 -14 -15 -67 -15 -78 0 -76 17 2 23
28 2 53 4 58 5 4 1 7 -5 7 -13z m-155 -14 c-15 -13 -85 -23 -85 -12 0 9 26 16
75 20 11 0 15 -3 10 -8z m-6029 -138 c-4 -4 -11 -1 -16 7 -16 25 -11 35 7 17
9 -9 13 -20 9 -24z m78 -34 c22 -12 47 -25 55 -28 8 -4 17 -13 19 -20 4 -11
-102 40 -122 60 -17 15 4 10 48 -12z m1406 -63 c0 -3 -4 -8 -10 -11 -5 -3 -10
-1 -10 4 0 6 5 11 10 11 6 0 10 -2 10 -4z m-1148 -106 c69 -64 40 -64 -32 0
-35 32 -49 50 -38 50 9 0 41 -22 70 -50z m182 -145 c11 -8 17 -17 14 -21 -3
-3 -21 9 -40 26 -32 30 -14 27 26 -5z m1810 -294 c16 -16 26 -35 24 -42 -3 -8
-10 -6 -24 8 -10 11 -29 26 -41 32 -13 6 -23 16 -23 21 0 20 37 9 64 -19z
m-578 -63 c50 -31 53 -35 54 -73 0 -44 -12 -71 -28 -61 -6 3 -18 28 -28 54 -9
26 -28 57 -41 70 -22 22 -30 42 -17 42 3 0 30 -15 60 -32z m764 -238 c0 -5 -2
-10 -4 -10 -3 0 -8 5 -11 10 -3 6 -1 10 4 10 6 0 11 -4 11 -10z m679 -960 c43
-72 60 -125 39 -118 -13 5 -127 214 -127 233 0 16 46 -44 88 -115z m196 -501
c20 -28 40 -62 46 -76 5 -14 25 -58 44 -98 37 -75 44 -115 22 -115 -29 0 -97
97 -132 190 -34 89 -55 145 -55 147 0 2 9 3 19 3 12 0 34 -20 56 -51z m86 -46
c6 -16 15 -41 19 -58 4 -16 11 -39 15 -50 7 -19 7 -19 -10 -3 -9 9 -21 33 -25
55 -5 21 -12 48 -15 61 -10 31 3 27 16 -5z m80 -355 c46 -61 58 -88 39 -88
-18 0 -90 90 -90 113 0 18 28 4 51 -25z m179 -220 c104 -67 137 -94 128 -103
-15 -16 -248 131 -248 156 0 19 27 7 120 -53z"/>
<path d="M1040 6955 c0 -30 40 -59 70 -50 26 8 25 26 -3 53 -33 31 -67 29 -67
-3z"/>
<path d="M1250 6238 c0 -7 11 -33 25 -57 14 -23 25 -53 25 -65 0 -28 34 -60
55 -53 8 4 15 11 15 17 0 5 14 10 30 10 40 0 38 18 -4 35 -33 14 -53 32 -44
40 2 2 33 -5 68 -16 36 -11 76 -19 90 -17 37 4 31 30 -10 40 -75 18 -176 52
-191 65 -20 17 -59 17 -59 1z"/>
<path d="M1999 6018 c-22 -23 -50 -60 -61 -83 -23 -44 -35 -158 -24 -220 7
-34 9 -36 39 -33 l32 3 6 72 c8 89 35 145 94 202 51 48 55 63 23 85 -37 26
-65 19 -109 -26z"/>
<path d="M3985 4753 c-67 -47 -175 -151 -175 -169 0 -28 27 -13 96 52 38 36
88 79 112 95 40 29 56 60 30 58 -7 0 -35 -16 -63 -36z"/>
<path d="M4065 4671 c-57 -33 -107 -81 -84 -81 19 0 142 81 147 98 6 18 -8 15
-63 -17z"/>
<path d="M3292 4664 c-19 -13 -23 -23 -20 -62 3 -40 6 -47 25 -50 15 -2 23
-11 25 -30 2 -21 9 -28 29 -30 21 -2 27 -10 35 -43 5 -22 14 -40 19 -40 12 0
40 175 31 198 -11 27 -36 -6 -43 -56 -3 -25 -10 -40 -17 -38 -6 3 -9 11 -7 18
3 8 6 33 9 57 3 32 1 42 -10 42 -8 0 -20 11 -26 25 -14 29 -20 30 -50 9z"/>
<path d="M4357 4224 c-12 -12 -8 -59 7 -80 21 -27 38 -6 34 42 -3 37 -23 56
-41 38z"/>
<path d="M10615 4360 c22 -23 41 -36 43 -30 5 15 -48 70 -67 70 -9 0 0 -15 24
-40z"/>
<path d="M10690 4300 c0 -5 7 -10 16 -10 8 0 12 5 9 10 -3 6 -10 10 -16 10 -5
0 -9 -4 -9 -10z"/>
<path d="M10565 4100 c4 -6 10 -8 15 -5 5 3 11 1 15 -5 3 -5 11 -10 17 -10 7
0 6 6 -2 15 -14 17 -55 21 -45 5z"/>
<path d="M11974 4005 c-10 -8 -27 -15 -36 -15 -18 0 -24 -11 -12 -22 4 -5 35
0 152 27 41 10 22 25 -31 25 -31 0 -61 -6 -73 -15z"/>
<path d="M11211 3946 c-18 -33 -5 -53 20 -30 22 20 25 54 6 54 -8 0 -19 -11
-26 -24z"/>
<path d="M11537 3793 c-20 -19 4 -23 88 -14 6 1 3 6 -5 11 -17 11 -73 13 -83
3z"/>
<path d="M10950 4260 c0 -5 5 -10 10 -10 6 0 10 5 10 10 0 6 -4 10 -10 10 -5
0 -10 -4 -10 -10z"/>
<path d="M12400 4209 c0 -5 5 -7 10 -4 6 3 10 8 10 11 0 2 -4 4 -10 4 -5 0
-10 -5 -10 -11z"/>
<path d="M6765 4000 c3 -5 11 -10 16 -10 6 0 7 5 4 10 -3 6 -11 10 -16 10 -6
0 -7 -4 -4 -10z"/>
<path d="M6220 3981 c21 -12 191 -43 198 -37 10 11 -5 16 -82 31 -89 17 -140
20 -116 6z"/>
<path d="M5384 3925 c-7 -17 4 -37 17 -30 12 8 12 45 -1 45 -6 0 -13 -7 -16
-15z"/>
<path d="M11943 3693 c-29 -2 -53 -8 -53 -12 0 -14 123 -8 127 7 3 6 -1 11 -9
10 -7 -1 -37 -3 -65 -5z"/>
<path d="M370 7170 c0 -20 52 -55 64 -43 3 4 23 -10 44 -30 63 -62 171 -87
206 -48 16 17 16 25 6 56 -16 48 -45 65 -124 70 -212 15 -196 16 -196 -5z
m270 -66 c0 -2 -9 -4 -20 -4 -11 0 -20 4 -20 9 0 5 9 7 20 4 11 -3 20 -7 20
-9z"/>
</g>
</svg>
