<?xml version="1.0" standalone="no"?>
<!DOCTYPE svg PUBLIC "-//W3C//DTD SVG 20010904//EN"
 "http://www.w3.org/TR/2001/REC-SVG-20010904/DTD/svg10.dtd">
<svg version="1.0" xmlns="http://www.w3.org/2000/svg"
 width="1280.000000pt" height="640.000000pt" viewBox="0 0 1280.000000 640.000000"
 preserveAspectRatio="xMidYMid meet">
<metadata>
Created by potrace 1.15, written by Peter Selinger 2001-2017
</metadata>
<g transform="translate(0.000000,640.000000) scale(0.100000,-0.100000)"
fill="#000000" stroke="none">
<path d="M5005 6313 c-96 -4 -194 -22 -285 -53 -76 -25 -97 -28 -195 -26 -60
2 -132 8 -160 15 -133 32 -203 21 -247 -39 -17 -23 -17 -30 -6 -64 14 -42 59
-83 77 -71 8 4 4 14 -14 30 -30 29 -32 58 -5 85 29 29 72 25 138 -12 48 -28
67 -33 124 -33 37 0 72 -5 78 -11 7 -7 -4 -29 -35 -74 -46 -65 -51 -77 -81
-205 -33 -138 6 -404 63 -426 23 -8 20 -13 -74 -92 -106 -91 -229 -222 -283
-302 -76 -113 -190 -234 -290 -308 -152 -112 -178 -134 -198 -164 -32 -47 -35
-74 -14 -113 19 -34 19 -35 -6 -90 -23 -52 -24 -61 -17 -184 7 -138 5 -146
-43 -146 -13 0 -36 7 -52 16 -26 16 -31 16 -83 -6 l-55 -23 -27 22 c-34 26
-49 26 -86 0 -30 -21 -38 -21 -76 6 -17 13 -23 14 -32 3 -6 -7 -22 -26 -35
-43 l-24 -30 -29 28 c-41 38 -61 35 -80 -13 -9 -22 -19 -40 -23 -40 -4 0 -17
23 -30 51 -12 28 -33 63 -46 76 l-25 25 -25 -23 c-37 -34 -64 -83 -84 -147
-10 -32 -24 -57 -31 -57 -8 0 -29 23 -49 52 -19 29 -40 52 -47 53 -17 0 -63
-58 -63 -80 0 -28 -14 -32 -67 -19 -27 7 -137 13 -248 14 -110 2 -256 6 -325
10 -79 5 -145 4 -180 -3 -30 -6 -76 -13 -101 -17 -31 -4 -56 -15 -78 -35 -37
-34 -35 -34 -59 -19 -14 9 -28 6 -68 -14 -27 -13 -80 -30 -119 -36 -105 -18
-127 -26 -294 -115 -143 -75 -159 -87 -233 -166 -92 -98 -115 -133 -159 -250
-31 -79 -33 -93 -33 -210 0 -150 10 -188 69 -266 24 -32 45 -64 45 -71 0 -6
-30 -21 -67 -33 -95 -30 -154 -73 -224 -163 l-60 -77 -165 -80 c-92 -45 -164
-87 -164 -94 0 -18 188 65 324 143 69 39 109 70 135 103 92 114 158 145 344
157 75 5 140 12 145 15 5 3 44 12 87 21 112 23 215 81 215 119 0 8 -37 39 -83
70 -72 48 -86 62 -110 113 -15 32 -27 61 -27 65 0 4 16 34 36 68 20 33 34 63
31 67 -8 7 -86 -61 -109 -96 -24 -35 -23 -116 1 -161 10 -19 34 -44 53 -55 45
-26 90 -80 86 -102 -4 -21 -44 -36 -175 -64 -79 -18 -100 -19 -147 -9 -46 9
-62 19 -90 52 -51 59 -68 116 -73 248 -6 133 5 192 60 310 29 62 52 92 134
172 97 96 100 98 222 148 68 27 127 47 132 44 5 -3 -2 -33 -15 -68 l-24 -64
25 -37 c13 -20 31 -52 39 -71 15 -35 34 -46 34 -19 0 23 48 18 97 -11 24 -14
48 -22 53 -19 6 3 10 22 10 41 0 32 2 34 35 34 21 0 51 -10 75 -26 48 -32 64
-25 55 27 -4 21 -4 42 -1 48 7 11 82 -10 140 -39 22 -10 44 -16 49 -13 9 5 5
71 -9 141 -6 28 -4 32 14 32 12 0 24 -5 27 -10 15 -24 87 -51 116 -45 26 6 35
2 68 -34 30 -32 41 -38 49 -29 7 9 6 20 -3 38 -17 29 -19 76 -5 85 18 11 95
-19 134 -52 48 -40 65 -30 36 20 -27 45 -23 81 8 85 37 6 132 -27 157 -54 34
-37 46 -23 39 45 -8 68 2 79 47 56 17 -9 41 -14 54 -11 15 4 35 -3 59 -19 20
-14 38 -25 39 -25 1 0 2 42 2 92 0 75 3 93 15 96 9 1 24 -11 34 -28 10 -17 30
-37 44 -43 15 -6 32 -19 39 -27 16 -20 24 -9 58 80 15 41 32 79 36 85 12 12
109 -83 109 -106 0 -19 26 -44 33 -32 3 4 11 37 17 73 7 36 15 67 17 69 2 3
16 -8 32 -23 l30 -28 31 36 c38 43 54 45 76 11 16 -24 18 -25 35 -9 10 9 21
24 24 34 3 9 16 22 30 28 19 9 28 7 48 -9 30 -23 43 -24 92 -4 29 13 43 14 71
5 20 -7 56 -9 86 -5 l53 7 49 -58 c63 -72 140 -110 268 -131 132 -21 138 -23
138 -31 0 -4 -12 -13 -27 -20 -41 -18 -87 -46 -95 -57 -4 -5 -8 -25 -8 -42 0
-43 -18 -60 -132 -122 -98 -52 -108 -63 -108 -110 0 -38 24 -68 78 -95 57 -29
65 -37 132 -149 68 -112 116 -157 169 -157 42 0 101 39 101 66 0 17 -5 17 -30
4 -31 -16 -66 36 -85 127 -8 43 -22 91 -30 106 -20 39 -19 59 6 91 l21 26 35
-21 c29 -18 45 -21 93 -16 77 7 145 39 253 120 85 64 210 130 442 233 121 54
177 100 209 171 18 41 18 44 1 90 -10 26 -38 69 -63 95 -35 37 -58 52 -115 71
-73 24 -99 47 -52 47 14 0 43 9 65 20 22 11 49 20 60 20 12 0 35 7 52 16 30
15 32 15 137 -39 58 -30 117 -58 131 -62 14 -4 43 -15 65 -25 22 -10 51 -21
65 -24 18 -4 34 -22 57 -64 35 -63 106 -136 148 -152 14 -5 53 -12 88 -16 64
-6 65 -6 106 31 46 42 54 80 21 110 -14 12 -18 25 -14 41 11 44 -48 117 -162
199 -57 41 -119 81 -139 89 -41 17 -125 74 -125 84 0 4 39 25 88 46 48 21 121
62 162 91 41 28 104 66 139 84 103 51 271 182 271 211 0 5 10 12 23 15 12 4
42 24 67 45 45 37 116 80 134 80 4 0 47 22 95 49 47 27 106 55 131 61 25 6 79
22 120 35 46 14 114 25 175 29 165 10 228 20 260 42 55 38 385 184 416 184 5
0 32 11 61 24 29 13 127 54 218 91 228 93 261 107 290 125 14 9 84 45 155 80
72 35 160 80 196 100 92 52 132 64 160 50 29 -16 21 -64 -20 -122 -61 -88
-350 -371 -566 -555 -206 -175 -230 -196 -399 -352 -93 -86 -185 -167 -205
-180 -20 -14 -75 -55 -123 -93 -120 -93 -215 -154 -333 -211 -185 -90 -285
-116 -285 -73 0 7 18 34 41 60 70 80 37 73 -67 -14 -176 -148 -234 -202 -234
-216 0 -21 19 -17 57 12 28 21 42 25 76 22 81 -9 241 50 551 202 124 61 239
125 294 165 51 36 117 81 149 101 77 47 146 95 167 117 10 9 23 17 29 17 7 0
35 19 62 43 28 24 66 53 86 65 19 12 54 42 77 67 22 25 46 45 53 45 7 0 37 21
68 46 31 26 79 60 107 76 47 26 80 55 239 207 84 80 306 251 327 251 60 0
-298 -366 -910 -928 -100 -92 -128 -113 -146 -108 -33 8 -57 -14 -120 -106
-83 -122 -114 -159 -259 -311 -73 -77 -162 -160 -199 -185 -36 -26 -102 -81
-145 -123 -98 -94 -227 -201 -273 -224 -19 -9 -78 -59 -130 -110 -78 -76 -110
-100 -180 -133 -47 -22 -103 -46 -125 -53 -22 -7 -45 -17 -51 -21 -36 -26
-176 -86 -285 -124 -143 -48 -200 -75 -245 -114 -17 -15 -67 -47 -110 -70 -44
-24 -94 -54 -111 -67 -18 -13 -66 -41 -105 -62 -40 -21 -104 -56 -143 -78 -83
-48 -295 -143 -318 -143 -9 0 -60 -11 -112 -25 -104 -27 -310 -55 -403 -55
-41 0 -63 -5 -72 -15 -19 -22 -4 -31 70 -44 77 -13 196 -1 281 28 30 10 87 26
125 34 38 9 123 28 189 44 161 38 264 36 430 -7 68 -18 146 -45 180 -64 33
-19 125 -59 205 -91 80 -31 206 -82 280 -112 174 -70 229 -86 236 -68 3 7 1
23 -6 34 -13 26 4 28 57 6 73 -31 94 -11 47 45 -15 17 -24 33 -21 36 2 3 25 0
51 -7 54 -13 85 -6 66 15 -19 24 24 41 69 27 92 -27 547 -33 599 -8 15 8 68
20 117 27 50 7 116 21 147 31 32 11 65 19 74 19 9 0 73 18 143 39 69 22 140
42 156 45 139 25 148 27 345 93 56 18 480 166 535 187 22 8 79 22 125 30 47 9
108 21 135 27 73 15 343 31 552 33 100 0 184 4 188 8 11 11 -51 38 -88 38 -18
0 -53 6 -78 14 -55 18 -367 47 -474 45 -44 -1 -90 1 -103 5 -35 12 -399 -32
-462 -56 -30 -11 -98 -28 -150 -39 -52 -10 -139 -28 -192 -39 -54 -11 -137
-23 -185 -25 -49 -3 -107 -8 -129 -11 -24 -3 -44 -2 -48 4 -3 6 -31 8 -66 5
-37 -4 -65 -2 -73 5 -10 9 -19 7 -36 -4 -20 -14 -26 -14 -59 -1 -34 14 -40 13
-72 -4 -46 -24 -74 -24 -91 1 -12 17 -19 18 -53 10 -32 -7 -42 -6 -51 7 -10
13 -19 13 -74 2 -58 -11 -64 -11 -91 10 -27 20 -32 20 -64 7 -31 -13 -35 -12
-52 5 -17 17 -22 17 -59 4 -60 -21 -84 -19 -97 10 -11 25 -15 26 -65 19 -49
-6 -53 -5 -53 15 0 20 -3 21 -84 15 -79 -6 -84 -5 -95 15 -9 17 -21 21 -56 21
-34 0 -47 5 -55 20 -8 15 -21 20 -50 20 -36 0 -40 2 -40 26 0 23 -4 25 -32 24
-53 -3 -58 -1 -68 25 -8 20 -16 25 -44 25 -77 0 -44 26 101 81 54 21 182 100
243 151 19 16 61 50 92 76 173 143 210 175 297 258 53 50 121 107 151 126 57
36 180 160 281 283 32 39 135 142 228 229 94 87 171 162 171 165 0 4 30 33 68
64 37 32 128 118 202 190 74 73 185 178 245 232 186 169 534 525 568 582 52
89 -54 65 -200 -45 -122 -93 -162 -117 -174 -105 -8 8 -7 17 1 32 9 18 7 27
-10 51 -12 17 -18 34 -15 40 8 13 52 13 60 0 4 -6 11 -8 16 -4 6 3 4 15 -5 30
-25 36 -20 46 18 39 38 -8 55 7 36 30 -20 24 -2 36 30 20 16 -8 37 -15 47 -15
14 1 10 7 -16 30 -18 15 -30 33 -27 39 11 17 23 13 61 -20 l35 -31 0 39 c0 21
-7 49 -16 62 -13 18 -15 36 -10 81 5 46 3 61 -9 74 -40 40 -94 29 -270 -52
-116 -53 -324 -155 -375 -182 -47 -26 -140 -63 -225 -89 -38 -12 -137 -48
-220 -81 -82 -32 -213 -81 -290 -108 -77 -27 -178 -66 -225 -85 -99 -42 -133
-50 -295 -73 -66 -10 -133 -24 -150 -32 -16 -9 -46 -19 -65 -23 -80 -17 -112
-28 -128 -41 -9 -8 -51 -35 -92 -59 -41 -25 -104 -63 -140 -84 -36 -21 -69
-44 -75 -50 -5 -6 -32 -29 -60 -51 -27 -21 -73 -61 -102 -89 -65 -63 -121
-108 -153 -125 -14 -7 -41 -25 -60 -40 -19 -14 -70 -39 -113 -54 -68 -24 -83
-26 -114 -15 -77 25 -204 91 -219 114 -29 44 -46 147 -49 287 -2 119 -6 142
-24 173 -12 20 -21 40 -21 44 0 5 30 22 68 39 92 41 116 69 109 123 -9 65 42
188 90 220 59 39 64 56 23 87 -19 15 -47 38 -63 52 l-28 25 29 63 c35 74 32
104 -17 181 -38 58 -146 129 -248 162 -139 45 -140 46 -92 80 42 30 65 32 88
8 21 -23 51 -20 51 5 0 24 -50 56 -84 54 -17 -1 -58 -3 -91 -5z m-27 -144
c146 -29 296 -102 342 -166 42 -58 48 -107 21 -161 -28 -55 -27 -97 4 -127 13
-14 30 -25 38 -25 17 0 49 -34 40 -43 -3 -4 -28 -7 -55 -7 -26 0 -68 -5 -93
-12 -49 -13 -65 -7 -45 17 8 10 10 19 4 25 -12 12 -58 -55 -49 -71 5 -8 25 -9
61 -5 29 3 55 2 58 -3 3 -4 -12 -33 -34 -64 -22 -30 -40 -60 -40 -66 0 -18 32
-12 57 11 l23 22 -6 -80 c-8 -94 -17 -114 -49 -114 -14 0 -42 -7 -64 -16 -37
-14 -42 -14 -76 1 -55 27 -100 88 -140 190 -40 103 -58 127 -73 98 -8 -13 -1
-40 24 -102 42 -106 43 -121 6 -121 -32 0 -150 36 -170 52 -10 9 -10 14 2 27
13 15 5 16 -92 16 -90 1 -114 4 -148 22 -45 24 -66 61 -62 110 1 17 -4 38 -11
47 -21 25 -25 133 -8 211 8 39 33 111 55 160 37 82 46 94 100 132 96 67 197
78 380 42z m3388 -742 c19 -17 25 -29 21 -42 -7 -16 -10 -15 -32 9 -13 14 -33
26 -45 26 -11 0 -20 7 -20 15 0 23 45 18 76 -8z m-3670 -42 c61 -25 133 -49
160 -54 29 -6 55 -18 66 -31 15 -18 24 -20 60 -15 37 5 49 2 90 -25 25 -17 54
-43 64 -58 24 -36 30 -167 13 -292 -7 -52 -14 -136 -16 -187 -5 -111 13 -157
80 -200 23 -16 74 -53 114 -84 43 -34 104 -70 152 -90 44 -18 82 -38 85 -45 8
-21 -72 -124 -97 -124 -33 0 -300 111 -312 129 -3 5 -29 23 -58 39 -28 16 -75
54 -104 83 -67 69 -121 119 -156 144 l-28 20 1 170 c0 94 4 188 10 210 5 22
10 58 10 80 0 22 9 57 20 78 24 44 26 69 5 61 -8 -3 -28 -36 -46 -72 -39 -83
-53 -209 -46 -409 5 -133 4 -145 -16 -170 -31 -42 -90 -103 -99 -103 -5 0 -26
-12 -47 -26 -61 -40 -197 -49 -511 -35 -299 14 -346 21 -378 57 l-22 25 19 28
c20 28 57 57 204 165 42 31 77 61 77 67 0 17 -108 -52 -242 -153 -79 -60 -92
-66 -103 -48 -18 29 110 139 173 149 28 5 42 15 64 48 16 23 37 45 48 48 23 7
247 261 348 394 94 124 185 216 242 246 25 13 49 24 55 25 5 0 59 -20 121 -45z
m3631 -41 c3 -8 0 -21 -6 -27 -10 -9 -16 -8 -27 7 -8 11 -14 23 -14 28 0 15
41 8 47 -8z m-83 -54 c16 -15 17 -22 7 -34 -7 -8 -19 -12 -27 -9 -13 5 -44 53
-44 68 0 11 44 -7 64 -25z m-76 -42 c14 -14 16 -58 3 -58 -11 0 -51 48 -51 61
0 13 34 11 48 -3z m-109 -109 c21 -17 22 -22 10 -30 -29 -18 -59 -1 -59 33 0
24 19 22 49 -3z m-79 -94 c0 -8 -4 -15 -9 -15 -13 0 -22 16 -14 24 11 11 23 6
23 -9z m-113 -46 c17 -17 5 -43 -13 -28 -15 12 -19 39 -6 39 4 0 13 -5 19 -11z
m-81 -74 c23 -18 35 -6 -159 -151 -131 -97 -219 -154 -239 -154 -16 0 41 59
74 76 15 8 84 66 153 129 70 63 132 115 139 115 7 0 21 -7 32 -15z m-2543
-248 c26 -25 79 -58 130 -82 47 -22 86 -45 87 -51 0 -17 -95 -57 -122 -51 -13
4 -50 30 -83 60 -56 50 -58 55 -63 110 -2 31 -2 57 1 57 4 0 26 -19 50 -43z
m-383 -208 c62 -49 66 -58 45 -98 -31 -60 -226 -186 -277 -179 -13 2 -26 -6
-36 -21 l-16 -24 54 8 c111 16 191 12 250 -14 70 -30 133 -81 150 -121 19 -46
0 -100 -52 -144 -23 -20 -120 -74 -217 -122 -184 -89 -246 -125 -322 -184 -57
-45 -193 -115 -237 -124 -47 -8 -81 13 -139 86 -91 115 -94 135 -25 174 87 50
160 99 171 116 9 14 6 21 -13 33 -20 14 -31 14 -67 5 -57 -16 -189 -6 -270 19
-161 51 -229 162 -229 376 0 72 3 88 20 105 24 24 23 24 135 -1 64 -14 159
-22 335 -30 211 -8 258 -8 339 6 101 17 227 68 252 101 18 24 78 74 89 74 4 0
31 -18 60 -41z m835 -244 c48 -22 75 -39 72 -47 -2 -7 -13 -12 -23 -10 -10 1
-35 5 -54 8 -33 5 -31 3 20 -24 56 -30 103 -72 81 -72 -7 0 -26 7 -42 16 -59
30 -52 7 14 -45 59 -46 75 -71 47 -71 -5 0 -34 23 -65 51 -30 29 -58 49 -62
46 -3 -4 18 -33 47 -67 45 -52 49 -60 30 -60 -13 0 -46 23 -81 57 -64 61 -72
60 -34 -2 29 -46 30 -55 11 -55 -18 0 -114 105 -134 147 -15 33 -15 34 15 66
16 17 40 47 52 65 12 17 24 32 26 32 2 0 38 -16 80 -35z m-3187 -381 c17 -3
22 -10 20 -26 -5 -33 -30 -44 -67 -28 -41 17 -83 49 -76 60 4 7 74 4 123 -6z
m-444 -8 c83 -1 164 2 179 7 19 6 32 6 39 -1 12 -12 16 -98 5 -108 -12 -12
-68 9 -118 43 -59 40 -64 37 -74 -39 -6 -41 -10 -48 -29 -48 -26 0 -50 23 -65
63 -6 15 -16 27 -23 27 -21 0 -69 -68 -75 -105 -8 -47 -29 -46 -115 6 -38 23
-75 39 -83 35 -11 -4 -15 -23 -15 -80 0 -57 -4 -75 -15 -80 -20 -7 -58 8 -101
40 -19 15 -36 25 -38 23 -2 -2 -13 -23 -25 -46 -12 -24 -25 -43 -30 -43 -5 0
-30 9 -56 20 -26 11 -51 20 -55 20 -5 0 -13 -19 -17 -42 -9 -41 -10 -43 -44
-40 -19 1 -42 11 -52 21 -18 17 -18 20 -3 49 21 40 21 40 -9 44 -24 3 -24 4
23 60 37 45 53 57 77 58 54 1 119 20 178 51 42 23 65 29 86 24 17 -4 32 -2 36
5 4 6 20 10 35 8 16 -1 36 5 47 14 15 14 24 15 60 5 34 -9 45 -8 65 6 12 8 31
13 42 10 10 -3 87 -6 170 -7z m1934 -302 l23 -35 -23 -42 c-33 -60 -64 -62
-112 -5 -48 55 -44 77 14 99 64 24 72 23 98 -17z m-168 -63 c11 -17 46 -54 76
-83 50 -48 59 -63 85 -143 33 -102 35 -125 15 -125 -22 0 -66 62 -82 116 -17
56 -36 79 -86 105 -41 21 -75 60 -85 97 -4 19 0 30 17 44 30 24 35 23 60 -11z
m2165 -371 c4 -6 -6 -27 -22 -47 -31 -39 -80 -124 -112 -191 -26 -55 -46 -47
-37 14 7 55 -9 58 -24 5 -8 -32 -6 -50 16 -117 14 -44 33 -87 41 -97 9 -9 14
-19 11 -22 -6 -6 -145 28 -155 38 -3 4 -15 7 -26 7 -27 0 -75 55 -83 96 -10
55 4 99 52 164 42 55 98 99 111 87 2 -3 -18 -52 -46 -109 -53 -108 -63 -158
-38 -193 12 -16 15 -11 20 46 13 126 122 284 215 313 59 18 69 18 77 6z m96
-40 c29 -16 23 -46 -16 -76 -68 -51 -135 -174 -135 -246 0 -30 62 -108 86
-108 22 0 16 15 -16 38 -35 27 -46 73 -28 124 7 20 46 80 86 132 79 104 93
111 153 81 33 -18 34 -14 -26 -100 -51 -74 -103 -185 -113 -245 l-8 -45 -68 2
c-67 1 -69 2 -107 44 -58 64 -55 103 17 247 72 144 116 183 175 152z m3197
-89 c15 -8 13 -10 -8 -14 -14 -3 -92 -11 -175 -17 -175 -13 -170 -12 -299 -34
-54 -9 -111 -23 -125 -31 -15 -7 -51 -20 -81 -29 -30 -8 -89 -27 -130 -41 -41
-15 -109 -37 -150 -50 -41 -13 -108 -36 -149 -50 -53 -18 -78 -22 -85 -15 -18
18 -13 117 6 136 26 26 49 2 46 -49 -4 -62 18 -58 32 6 6 30 19 62 28 70 10 9
53 23 97 32 44 9 107 27 140 39 59 23 124 37 260 55 87 12 569 5 593 -8z
m-2928 -17 c22 -9 40 -21 40 -27 0 -5 -20 -33 -44 -62 -25 -28 -52 -69 -61
-91 -10 -21 -24 -53 -32 -70 -13 -28 -13 -38 0 -90 8 -33 13 -61 11 -63 -2 -3
-20 3 -39 12 -20 9 -46 17 -58 17 -12 0 -33 9 -46 19 -22 17 -23 23 -17 74 5
40 18 73 47 117 21 33 39 64 39 69 0 4 9 16 20 26 11 10 20 23 20 29 0 24 32
56 55 56 14 0 43 -7 65 -16z m-769 -75 c-26 -78 -26 -94 0 -130 l20 -29 -40 0
c-22 0 -52 5 -66 10 -25 9 -27 14 -20 48 3 20 14 51 24 67 25 43 95 118 99
107 2 -6 -6 -38 -17 -73z m935 16 l36 -15 -42 -47 c-81 -91 -115 -213 -74
-271 21 -30 36 -28 24 4 -14 35 -12 102 4 144 7 20 32 62 55 93 l43 57 65 0
c78 0 86 -12 44 -70 -65 -90 -97 -233 -67 -304 9 -21 16 -41 16 -44 0 -5 -63
2 -189 21 -96 15 -109 26 -136 111 -14 44 -15 63 -6 105 15 71 46 132 94 185
45 51 71 57 133 31z m-1036 -22 c-1 -5 -7 -19 -15 -33 -8 -14 -14 -39 -15 -55
0 -17 -5 -36 -12 -43 -14 -14 -168 -17 -168 -4 0 15 54 59 108 87 29 16 57 34
63 42 12 14 39 18 39 6z m1377 -46 c3 -4 -16 -38 -43 -77 -44 -65 -49 -77 -52
-141 -5 -79 3 -119 22 -119 10 0 12 15 8 69 -3 53 -1 76 13 102 10 19 30 60
46 91 16 31 36 61 46 66 22 12 149 0 164 -15 7 -7 2 -20 -19 -44 -16 -19 -47
-59 -69 -89 l-40 -55 7 -90 c4 -49 4 -93 1 -96 -3 -4 -68 -4 -143 0 -165 7
-170 11 -170 97 0 33 2 77 5 99 4 45 54 139 98 186 27 29 34 31 75 26 25 -2
48 -7 51 -10z m1176 -40 c-3 -26 1 -57 10 -80 16 -37 16 -37 -11 -44 -107 -27
-138 16 -87 117 23 45 29 50 59 50 l34 0 -5 -43z m-127 -5 c-10 -20 -11 -42
-5 -86 9 -69 7 -76 -25 -76 -20 0 -25 6 -30 44 -7 43 12 100 46 143 18 22 28
3 14 -25z m-680 7 c3 -5 -11 -28 -30 -51 -21 -24 -36 -53 -36 -67 0 -14 -7
-34 -14 -43 -18 -24 -6 -98 22 -133 17 -22 23 -24 28 -12 3 9 1 24 -5 36 -26
47 -4 155 46 224 31 42 39 47 73 47 50 0 57 -13 27 -49 -36 -43 -71 -159 -60
-202 15 -56 39 -49 46 13 4 29 7 67 7 83 0 18 15 55 35 87 l36 56 64 7 c96 11
117 -16 74 -89 -14 -24 -21 -57 -23 -103 l-3 -68 -39 -13 c-101 -35 -253 -62
-431 -78 l-73 -7 0 50 c0 95 17 152 65 217 62 83 103 113 149 108 20 -2 39 -8
42 -13z m529 -101 l0 -103 -30 -6 c-16 -4 -47 -7 -67 -8 -36 -1 -37 0 -43 44
-4 24 -2 58 3 74 6 17 7 33 3 36 -27 16 -51 -87 -31 -135 15 -36 3 -55 -28
-46 -28 9 -35 52 -19 106 15 49 62 130 76 130 5 0 16 -11 25 -25 13 -20 14
-30 5 -46 -12 -23 -4 -69 11 -69 6 0 8 11 4 24 -5 23 15 86 37 113 6 7 21 13
33 13 20 0 21 -5 21 -102z m67 10 c5 -76 -6 -102 -29 -71 -23 30 -9 143 17
143 4 0 10 -33 12 -72z m-2242 -39 c69 -16 139 -36 155 -43 31 -14 151 -37
290 -56 88 -13 280 -88 325 -127 l25 -22 -24 -1 c-13 0 -67 19 -120 41 -99 43
-180 62 -167 40 4 -6 47 -31 94 -55 48 -24 98 -53 112 -64 43 -35 12 -37 -53
-4 -34 18 -68 32 -74 32 -23 0 -14 -18 22 -47 36 -29 44 -43 24 -43 -6 0 -48
17 -93 39 -44 21 -121 51 -171 66 -87 26 -180 61 -238 91 -16 8 -33 14 -38 14
-5 0 -26 11 -47 24 -43 28 -331 107 -394 108 -64 1 -81 7 -68 23 16 20 40 22
185 17 99 -3 160 -11 255 -33z"/>
<path d="M5097 5903 c-4 -3 -48 -9 -99 -13 -78 -6 -94 -10 -110 -29 -10 -13
-18 -27 -18 -32 0 -14 20 -11 36 6 18 18 137 9 172 -13 14 -9 34 -12 52 -9 41
9 45 -6 15 -50 -39 -58 -33 -76 15 -48 14 8 44 14 68 15 36 0 42 3 42 20 0 12
-7 34 -15 50 -8 16 -13 35 -10 42 11 28 -126 84 -148 61z"/>
<path d="M4518 5735 c-21 -18 -38 -39 -38 -45 0 -26 32 -70 56 -76 32 -8 111
14 119 34 4 12 -2 14 -38 9 -78 -11 -119 46 -57 78 17 9 28 20 25 25 -11 17
-29 11 -67 -25z"/>
<path d="M5012 5727 c-9 -11 -10 -17 -2 -22 15 -9 23 -1 18 21 -3 15 -4 16
-16 1z"/>
<path d="M3969 4641 c-33 -33 -36 -49 -12 -58 21 -8 75 50 67 72 -9 22 -22 19
-55 -14z"/>
<path d="M7442 2717 c-29 -35 -40 -176 -14 -185 9 -3 12 12 12 55 0 32 5 75
11 96 11 42 8 55 -9 34z"/>
<path d="M8336 5742 c-48 -33 -65 -57 -50 -72 21 -21 114 33 114 66 0 30 -25
32 -64 6z"/>
<path d="M8223 5683 c-14 -5 -18 -69 -7 -97 5 -13 14 -15 43 -10 66 12 76 43
14 44 -19 0 -23 6 -23 29 0 32 -7 41 -27 34z"/>
<path d="M6695 4893 c-32 -11 -49 -12 -83 -3 -56 14 -75 7 -138 -45 -50 -43
-74 -90 -74 -144 0 -27 26 -38 53 -22 11 7 35 22 54 32 19 11 58 37 86 58 29
21 70 48 92 59 47 23 80 56 70 71 -7 13 -8 13 -60 -6z m-98 -58 c6 -18 -21
-51 -59 -71 -40 -21 -44 -17 -14 11 15 14 26 35 26 50 0 18 5 25 20 25 11 0
23 -7 27 -15z"/>
<path d="M6840 4780 c0 -24 -81 -97 -120 -109 -23 -7 -40 -18 -40 -26 0 -8 1
-15 3 -15 15 1 106 33 122 44 11 7 33 37 48 65 27 49 28 51 8 51 -12 0 -21 -5
-21 -10z"/>
<path d="M10380 4646 c-19 -8 -45 -15 -57 -15 -26 -1 -99 -63 -108 -91 -3 -11
-21 -28 -39 -39 -30 -19 -43 -40 -77 -129 -8 -22 -10 -22 -39 -7 -34 18 -37
11 -18 -42 10 -28 9 -38 -9 -70 -12 -21 -27 -76 -34 -122 -10 -62 -21 -98 -46
-139 -34 -56 -37 -69 -27 -96 9 -23 24 -20 24 5 0 14 5 19 17 17 10 -2 22 -22
31 -56 23 -84 73 -132 189 -181 105 -45 213 -122 237 -169 8 -16 16 -46 18
-66 2 -32 -2 -42 -24 -59 -24 -18 -40 -20 -135 -18 -115 2 -178 14 -204 37 -9
8 -47 25 -85 38 -38 13 -92 33 -119 44 -28 11 -82 27 -121 35 -39 8 -82 21
-95 30 -67 42 -499 38 -525 -5 -15 -25 34 -45 124 -51 103 -8 165 -25 170 -48
1 -9 -15 -38 -37 -64 -50 -61 -58 -94 -34 -143 16 -34 24 -38 88 -54 56 -14
81 -16 130 -8 102 17 96 19 110 -25 20 -68 72 -161 106 -189 37 -32 200 -112
247 -121 17 -4 32 -10 32 -15 0 -22 -106 -97 -205 -145 -127 -61 -188 -83
-264 -95 -30 -5 -66 -18 -80 -28 -25 -19 -26 -24 -23 -99 4 -107 -7 -133 -53
-133 -20 0 -53 -8 -73 -19 -20 -10 -59 -29 -86 -42 -26 -12 -53 -34 -59 -47
-9 -20 -7 -26 19 -48 l29 -24 -25 -18 c-114 -79 -250 -193 -250 -209 1 -21 22
-35 88 -58 86 -30 142 -32 191 -6 20 11 84 42 142 69 95 44 108 48 125 35 15
-12 46 -14 145 -11 l127 5 -20 -66 c-19 -63 -28 -186 -29 -372 -1 -177 87
-451 235 -732 64 -123 76 -153 82 -211 8 -81 16 -86 135 -86 85 0 112 -8 129
-40 32 -60 -102 -180 -201 -180 -33 0 -46 29 -36 80 8 38 -11 50 -35 20 -12
-15 -18 -39 -18 -73 l0 -52 -26 26 c-19 19 -28 44 -37 96 -12 67 -13 70 -34
60 -31 -14 -49 -78 -45 -158 3 -37 71 -80 142 -88 38 -5 67 -16 92 -35 60 -45
109 -54 305 -56 98 -1 207 -3 243 -3 36 -1 90 0 120 2 30 1 160 1 289 -1 193
-2 235 -1 239 11 4 11 -2 12 -23 7 -15 -4 -41 -3 -59 2 -48 15 -236 32 -396
36 l-145 4 -6 53 c-4 30 -12 82 -19 116 -23 110 -16 115 194 133 116 10 150
23 166 66 7 18 6 33 -4 52 -35 70 -52 197 -61 472 -3 90 -8 174 -11 185 -3 11
-6 54 -8 95 -4 93 -23 242 -38 295 -12 44 -13 55 -23 240 -9 170 18 370 80
580 20 66 45 169 55 225 5 25 18 95 31 155 17 82 23 154 26 282 5 229 -17 325
-110 489 -13 23 -26 51 -30 62 -3 12 -21 31 -41 43 -20 11 -36 28 -36 37 0 8
-7 23 -15 32 -9 10 -18 33 -22 53 -6 38 -9 35 73 56 80 21 184 153 184 234 0
61 -38 216 -59 244 -12 16 -43 57 -70 93 -41 55 -60 71 -131 108 -46 25 -111
49 -149 57 -36 7 -82 20 -102 28 -52 23 -176 30 -219 13z m255 -63 c91 -22
125 -38 210 -99 124 -88 185 -193 193 -333 5 -98 -6 -135 -57 -194 -45 -51
-105 -71 -188 -64 -75 7 -128 30 -211 92 -52 38 -132 131 -132 154 0 4 -32 61
-70 125 -75 124 -125 244 -115 275 8 28 28 41 82 56 63 18 186 13 288 -12z
m-405 -136 c0 -8 11 -36 26 -63 14 -27 34 -71 45 -99 74 -184 237 -360 375
-405 38 -13 74 -27 80 -32 7 -5 22 -36 35 -70 l23 -61 -39 -34 c-61 -52 -140
-87 -211 -91 -34 -2 -70 1 -81 6 -15 8 -25 7 -42 -4 -21 -15 -25 -13 -84 35
-36 30 -85 59 -118 70 -32 11 -82 38 -112 60 -50 38 -55 46 -68 104 -32 144
-13 313 45 406 12 20 31 59 40 86 38 106 37 105 62 105 13 0 24 -6 24 -13z
m660 -796 c14 -10 30 -28 35 -42 6 -13 27 -57 48 -98 63 -122 81 -217 79 -408
-1 -105 -8 -186 -18 -230 -8 -37 -18 -95 -20 -128 -3 -33 -9 -69 -14 -80 -19
-42 -59 -173 -75 -245 -10 -41 -23 -94 -31 -116 -8 -23 -18 -81 -24 -130 -5
-49 -14 -119 -19 -156 -12 -91 2 -366 27 -513 12 -66 25 -201 31 -300 17 -296
31 -437 47 -485 8 -25 18 -79 21 -120 5 -62 3 -78 -11 -89 -9 -8 -62 -17 -133
-22 -192 -15 -280 -13 -368 9 -44 10 -132 27 -195 37 -63 10 -121 22 -127 28
-8 5 -13 32 -13 64 0 41 -10 79 -46 162 -25 60 -59 131 -76 157 -49 78 -115
224 -132 294 -22 92 -34 203 -42 381 -6 140 -4 164 17 258 l23 103 49 27 c112
60 316 202 369 257 42 44 63 76 80 124 13 36 48 99 78 140 29 41 60 98 68 125
8 28 21 57 28 66 8 8 18 35 23 60 5 24 27 97 50 162 23 65 41 128 41 141 0 13
6 41 14 62 27 79 28 269 1 242 -4 -3 -10 -46 -15 -95 -10 -99 -69 -340 -90
-368 -4 -5 -22 -48 -40 -95 -34 -90 -36 -94 -95 -210 -92 -182 -126 -228 -262
-360 -85 -83 -154 -141 -195 -163 -132 -74 -363 -121 -401 -83 -30 31 -37 88
-34 301 l3 210 59 7 c75 8 136 32 295 114 85 44 142 82 178 117 61 59 153 179
177 229 8 18 28 54 44 79 16 25 32 57 36 70 4 13 27 62 52 109 35 66 66 106
139 178 52 50 94 94 94 97 0 11 -37 4 -57 -10 -22 -16 -37 -7 -28 17 3 7 45
25 93 40 58 18 105 41 141 68 57 43 73 45 121 11z m-1332 -117 c61 -8 72 -29
78 -157 5 -102 4 -107 -18 -121 -29 -18 -183 -32 -192 -17 -4 6 -2 20 5 32 9
18 8 24 -5 31 -23 13 -20 29 14 75 17 22 33 55 36 72 6 28 3 32 -29 46 -20 8
-56 16 -79 16 -58 2 -108 14 -88 22 33 14 168 14 278 1z m457 -148 c149 -57
180 -64 264 -59 52 4 80 2 85 -5 4 -6 -2 -31 -12 -54 -11 -24 -22 -52 -26 -63
-7 -19 -90 -163 -143 -247 -12 -21 -36 -44 -51 -52 -26 -13 -36 -13 -87 0
-164 43 -268 148 -310 310 -20 79 -47 263 -40 274 5 8 151 -39 320 -104z
m-534 -1168 c0 -40 4 -99 8 -132 l7 -59 -39 -28 c-46 -33 -129 -74 -172 -85
-27 -7 -29 -6 -17 9 8 9 34 28 58 42 42 25 57 45 33 45 -6 0 -48 -22 -94 -50
-77 -46 -115 -61 -115 -42 0 7 12 15 108 75 23 15 42 32 42 37 0 13 -55 -10
-137 -56 -66 -37 -83 -41 -83 -21 0 12 29 33 170 122 83 53 99 70 100 103 0
19 -5 22 -35 22 -61 0 -41 25 48 58 120 45 117 46 118 -40z m1024 -1784 c9 -9
14 -23 11 -31 -3 -8 -6 -23 -6 -33 0 -27 -53 -84 -106 -115 -61 -36 -162 -68
-190 -61 -35 9 -29 21 15 34 57 18 122 80 160 156 31 62 35 66 66 66 19 0 41
-7 50 -16z m129 -48 c-3 -7 2 -47 11 -90 13 -62 14 -84 5 -112 -9 -27 -16 -34
-29 -29 -9 4 -55 8 -102 10 -87 3 -133 17 -126 38 2 7 22 22 45 35 28 16 56
45 88 95 60 92 72 102 95 81 10 -9 16 -21 13 -28z"/>
<path d="M10567 4513 c-22 -6 -57 -73 -57 -110 1 -61 79 -177 143 -210 17 -8
62 -26 100 -39 83 -28 111 -21 139 36 22 43 24 140 4 178 -46 87 -200 167
-255 133 -9 -6 -19 -4 -28 5 -15 15 -16 15 -46 7z m71 -44 l26 -20 8 21 8 22
37 -23 c102 -60 149 -135 134 -213 -16 -87 -36 -93 -144 -43 -61 28 -78 42
-109 88 -78 116 -50 239 40 168z"/>
<path d="M10330 4082 c0 -43 -19 -59 -54 -46 -20 8 -21 -14 -2 -38 32 -43 89
8 84 76 -4 54 -28 61 -28 8z"/>
<path d="M9960 2520 c-25 -16 -60 -41 -79 -55 -19 -14 -42 -25 -51 -25 -9 0
-32 -12 -51 -26 -19 -14 -41 -29 -49 -34 -8 -5 -12 -11 -9 -15 8 -7 89 24 107
42 7 7 19 13 26 13 11 0 90 47 144 85 21 15 31 45 15 45 -5 0 -28 -14 -53 -30z"/>
<path d="M9944 2235 c-104 -53 -165 -97 -152 -111 6 -6 36 10 184 98 45 26 86
48 92 48 6 0 14 5 17 10 15 24 -40 6 -141 -45z"/>
<path d="M11576 4443 c-61 -7 -117 -21 -145 -35 -41 -20 -52 -34 -96 -118 -28
-52 -74 -130 -102 -173 -28 -42 -59 -99 -68 -127 -35 -104 -37 -300 -3 -363
51 -98 164 -190 271 -222 69 -21 144 -71 173 -116 13 -21 24 -42 24 -47 0 -5
-30 -21 -67 -36 -123 -50 -173 -98 -214 -206 -37 -99 -41 -184 -15 -322 13
-68 33 -147 45 -177 22 -58 110 -211 122 -211 16 0 169 -204 169 -225 0 -9
-60 -35 -81 -35 -12 0 -40 -19 -65 -44 -41 -41 -44 -47 -44 -97 0 -30 7 -82
15 -116 13 -57 13 -66 -5 -119 -28 -80 -25 -152 11 -280 17 -60 39 -146 50
-192 10 -46 28 -101 39 -122 11 -22 27 -72 35 -112 18 -93 56 -200 73 -206 9
-3 12 17 12 75 0 67 -7 101 -50 232 -27 85 -50 161 -50 170 0 19 -34 136 -61
206 -23 60 -23 83 -5 208 22 145 68 235 132 262 32 13 39 13 72 -3 20 -9 44
-31 54 -48 17 -29 17 -37 3 -138 -11 -79 -13 -123 -6 -164 25 -146 34 -187 43
-193 6 -4 11 -28 12 -55 2 -33 24 -104 68 -215 36 -91 74 -197 83 -237 l18
-72 -27 -41 c-23 -34 -30 -38 -42 -28 -22 18 -44 64 -44 92 0 14 -7 30 -15 37
-23 19 -41 -2 -55 -63 -22 -90 -17 -87 -138 -86 -59 1 -118 4 -131 8 -17 4
-37 28 -63 76 -38 68 -39 73 -34 142 5 65 4 74 -14 83 -15 8 -21 6 -29 -8 -30
-56 -54 -287 -35 -337 17 -44 136 -64 238 -41 37 9 89 16 115 16 47 0 48 -1
60 -40 12 -41 33 -54 83 -51 13 1 147 2 298 1 289 -1 340 -7 340 -41 0 -30 25
-33 88 -10 31 12 85 22 119 24 l63 2 0 58 c0 51 -3 60 -21 64 -14 4 -18 11
-14 22 4 9 12 30 18 46 14 37 21 1210 7 1180 -5 -11 -9 -36 -9 -55 -1 -33 -5
-38 -58 -64 -104 -51 -232 -44 -275 15 -12 16 -48 45 -80 65 -32 20 -58 41
-58 46 0 6 20 7 51 3 58 -8 60 4 6 31 -23 13 -46 15 -94 11 -35 -4 -63 -2 -63
3 0 12 68 33 91 27 13 -3 19 0 19 10 0 14 -12 15 -80 9 -44 -3 -80 -4 -80 -1
0 13 64 35 104 35 60 0 85 -11 153 -66 67 -55 116 -78 146 -68 12 4 46 25 75
48 64 50 46 61 -34 21 -49 -25 -57 -26 -85 -15 -17 7 -49 28 -71 46 -42 36
-120 64 -176 64 -19 0 -80 -18 -134 -40 -107 -43 -185 -53 -207 -26 -15 18
-127 71 -169 81 -41 9 -45 24 -22 95 17 53 18 71 9 143 -5 45 -15 102 -21 127
-23 93 -51 284 -52 355 -1 28 3 83 7 123 8 68 7 73 -9 70 -11 -2 -26 -23 -37
-53 -17 -46 -18 -61 -7 -200 6 -82 18 -170 25 -195 36 -115 57 -341 33 -356
-7 -4 -25 9 -45 32 -18 21 -51 58 -73 81 -22 22 -40 47 -40 55 0 7 -20 41 -44
75 -29 43 -49 87 -64 140 -57 218 -61 305 -18 431 34 102 70 145 151 184 72
34 78 34 150 6 44 -16 54 -25 49 -37 -4 -9 -9 -61 -12 -116 -4 -102 9 -185 30
-185 8 0 9 30 5 100 -3 56 -1 102 4 106 5 3 9 -7 9 -23 0 -43 28 -169 47 -208
17 -35 43 -48 43 -20 0 8 -9 32 -20 54 -25 46 -34 148 -23 241 l8 65 35 0 35
0 6 -125 c4 -84 14 -149 28 -197 23 -77 49 -102 37 -35 -37 206 -40 302 -10
350 30 47 64 13 93 -92 25 -90 84 -225 99 -226 19 0 15 26 -13 80 -14 27 -25
58 -25 68 0 11 -7 25 -15 32 -7 6 -17 33 -20 58 -3 26 -13 66 -21 89 -19 52
-7 83 33 83 15 0 36 9 48 20 20 19 23 19 91 4 38 -9 89 -20 114 -24 99 -19
141 -30 172 -46 40 -20 153 -137 175 -179 8 -16 22 -37 30 -47 8 -9 25 -43 39
-75 l24 -58 0 71 c0 66 -3 75 -39 132 -63 97 -177 201 -247 225 -21 8 -75 19
-119 26 -44 7 -102 17 -128 22 -26 5 -75 9 -107 9 l-59 0 -45 56 c-56 68 -59
99 -16 175 83 151 108 223 114 333 l4 79 42 24 c33 20 48 39 71 90 19 42 36
67 49 70 24 6 34 41 27 92 -8 61 -29 93 -81 126 -47 28 -55 30 -156 30 -82 0
-112 4 -131 17 -14 9 -56 19 -95 23 -38 3 -82 10 -99 15 -56 15 -110 16 -209
3z m204 -48 c113 -24 294 -99 343 -142 32 -29 57 -94 57 -150 0 -41 -5 -58
-25 -80 l-25 -28 -42 43 c-52 53 -171 132 -198 132 -10 0 -21 4 -24 9 -13 20
-107 44 -206 51 -187 15 -260 32 -260 60 0 103 168 149 380 105z m455 -85 c44
0 80 -58 68 -108 -11 -48 -37 -53 -58 -13 -8 17 -34 48 -57 69 -43 40 -45 69
-4 58 11 -3 35 -6 51 -6z m-750 -90 c47 -6 122 -14 168 -20 132 -15 200 -41
315 -120 113 -79 116 -84 115 -190 0 -83 -40 -205 -99 -303 -65 -107 -59 -154
28 -259 22 -26 38 -56 36 -65 -2 -10 -26 -30 -53 -45 -44 -24 -58 -26 -130
-23 -117 5 -158 24 -205 99 -52 83 -96 114 -228 162 -79 29 -158 81 -171 114
-6 14 -20 36 -31 50 -14 17 -24 52 -32 115 -20 154 18 331 92 431 58 77 68 86
90 74 11 -6 57 -15 105 -20z m315 -2221 c80 -36 102 -76 61 -113 -17 -16 -21
-15 -72 19 -35 23 -65 35 -88 35 -20 0 -39 7 -47 18 -11 14 -13 14 -14 2 -1
-24 -36 -64 -49 -56 -9 6 -8 14 4 33 22 32 10 43 -17 16 -15 -15 -23 -38 -26
-77 -5 -61 -17 -73 -27 -27 -14 66 29 142 91 161 53 15 137 11 184 -11z m305
-91 c56 -13 116 -50 145 -89 56 -76 107 -156 119 -186 8 -20 24 -35 42 -42 16
-5 32 -18 35 -28 7 -21 27 -74 46 -121 19 -47 33 -33 32 31 -1 39 -10 74 -33
122 -38 82 -40 100 -8 91 67 -18 97 -17 163 4 37 13 78 33 91 46 50 50 48 74
37 -546 -1 -107 -8 -213 -14 -235 -6 -22 -13 -56 -16 -76 -6 -44 -51 -154 -80
-193 -26 -36 -73 -45 -236 -45 -105 -1 -124 2 -197 29 -142 52 -136 46 -165
162 -34 138 -70 256 -95 314 -12 25 -21 48 -21 50 0 12 30 1 45 -16 19 -21 35
-26 35 -11 0 5 -16 32 -35 61 -19 29 -38 64 -41 79 -4 14 -13 36 -21 49 -63
101 -103 286 -83 379 15 65 66 143 94 143 11 0 27 9 33 19 13 20 48 32 73 23
8 -2 33 -9 55 -14z m-630 -1185 c32 -48 31 -55 -2 -51 -31 3 -57 45 -47 72 9
24 21 19 49 -21z m444 -73 c19 -28 32 -52 29 -55 -3 -3 -22 -2 -43 3 -29 6
-40 14 -45 33 -7 26 4 69 17 69 4 0 23 -23 42 -50z m177 9 c71 -18 64 -31 -14
-26 -74 5 -96 12 -87 28 8 12 46 11 101 -2z"/>
<path d="M11404 4063 c-10 -49 -13 -53 -39 -63 -30 -11 -61 -70 -51 -96 6 -16
9 -16 29 8 12 15 39 34 60 42 40 16 45 34 31 105 -8 38 -22 40 -30 4z"/>
<path d="M11636 4043 c-11 -12 -36 -73 -36 -90 0 -8 5 -11 10 -8 12 7 50 79
50 95 0 12 -13 13 -24 3z"/>
<path d="M11661 3944 c-38 -48 -20 -64 36 -32 51 29 50 28 29 44 -28 20 -42
18 -65 -12z"/>
<path d="M11555 3800 c-9 -15 4 -30 26 -30 17 0 18 3 9 20 -12 22 -25 26 -35
10z"/>
<path d="M11482 3778 c7 -19 38 -22 38 -4 0 10 -9 16 -21 16 -12 0 -19 -5 -17
-12z"/>
<path d="M11483 3710 c-36 -22 -53 -48 -53 -82 0 -46 20 -50 62 -13 49 45 85
46 143 4 72 -52 104 -18 42 44 -66 65 -136 83 -194 47z"/>
<path d="M3472 3683 c-40 -77 -66 -270 -52 -375 9 -67 38 -168 52 -185 12 -14
32 -7 22 8 -3 5 -15 42 -26 82 -31 109 -28 264 6 384 14 51 26 94 26 97 0 13
-20 5 -28 -11z"/>
<path d="M3605 3657 c-40 -97 -40 -219 3 -327 31 -82 36 -86 69 -70 l28 14
-32 4 c-29 3 -33 8 -47 55 -36 129 -37 147 -11 247 28 110 28 110 14 110 -5 0
-16 -15 -24 -33z"/>
<path d="M3185 3607 c-19 -41 -44 -105 -55 -143 -12 -38 -29 -82 -38 -99 -13
-23 -18 -65 -20 -191 -5 -188 5 -246 55 -345 20 -38 34 -71 32 -74 -3 -2 -41
2 -84 10 -44 7 -116 16 -160 20 -129 10 -122 5 -130 82 -28 286 -21 415 31
558 6 18 5 18 -9 5 -8 -8 -30 -60 -47 -115 l-32 -100 6 -190 c3 -104 9 -200
12 -212 l6 -23 -128 1 c-182 2 -186 3 -201 64 -7 28 -16 86 -19 130 -5 69 -2
91 21 163 14 46 24 87 20 90 -10 11 -34 -28 -45 -73 -6 -22 -15 -56 -21 -76
-8 -27 -8 -68 1 -159 7 -68 8 -125 4 -130 -5 -4 -67 -10 -139 -12 l-130 -3 -3
99 c-3 113 8 178 43 254 24 52 21 67 -7 35 -44 -50 -78 -192 -78 -323 l0 -67
-91 -7 c-50 -4 -93 -5 -95 -3 -2 2 3 24 12 48 33 93 3 174 -109 297 -66 71
-104 145 -94 182 6 25 -5 26 -26 2 -22 -24 -21 -80 1 -117 10 -16 44 -59 75
-95 74 -84 91 -121 91 -195 -1 -73 -15 -102 -95 -196 -78 -90 -131 -129 -177
-129 l-35 0 78 80 c43 44 75 83 72 86 -3 4 -46 -29 -95 -72 -72 -63 -108 -87
-178 -116 -180 -75 -260 -111 -287 -131 -29 -20 -107 -113 -107 -127 0 -15 91
-109 143 -147 35 -26 46 -39 35 -41 -26 -5 -77 25 -146 86 -76 66 -97 105 -88
156 6 29 15 40 48 57 23 12 60 27 82 33 26 7 42 19 44 30 4 20 0 19 -98 -17
-93 -34 -142 -108 -125 -186 6 -27 95 -111 117 -111 6 0 21 -9 35 -20 l26 -20
-49 -21 c-27 -11 -70 -29 -96 -41 -25 -11 -53 -18 -61 -15 -8 3 -19 23 -25 44
-5 21 -20 64 -31 95 -34 92 -22 207 26 260 11 13 13 22 6 29 -13 13 -59 -40
-81 -91 -24 -57 -11 -149 37 -271 22 -58 41 -108 41 -112 0 -43 -94 123 -131
232 -21 61 -24 113 -8 142 5 11 8 28 6 37 -3 12 -11 3 -25 -28 -32 -67 -29
-140 8 -218 17 -35 30 -65 30 -67 0 -1 -19 -5 -42 -8 -23 -3 -73 -22 -111 -41
-37 -20 -70 -36 -72 -36 -22 0 22 133 79 242 25 48 41 90 37 92 -15 9 -37 -26
-125 -199 -83 -164 -151 -273 -163 -261 -3 3 20 55 51 116 31 61 64 139 72
173 28 109 44 148 81 193 48 60 32 70 -21 14 -44 -46 -50 -61 -107 -239 -35
-108 -65 -160 -76 -131 -3 8 -27 35 -53 60 -27 25 -55 59 -64 77 -9 18 -32 44
-52 59 -42 32 -41 32 70 68 83 26 171 85 195 129 22 41 6 43 -41 4 -72 -58
-120 -86 -188 -108 -35 -11 -95 -36 -132 -55 -61 -31 -68 -37 -68 -64 0 -28 2
-29 26 -20 40 15 89 12 106 -7 9 -10 23 -33 32 -51 9 -18 27 -37 39 -41 25
-10 59 -45 76 -78 18 -36 13 -80 -20 -159 -17 -41 -28 -81 -25 -89 11 -31 42
-14 87 48 81 108 126 153 199 196 203 121 305 87 286 -95 -6 -59 -5 -64 12
-64 28 0 40 19 70 110 l27 81 79 35 c88 38 123 41 187 19 44 -16 92 -13 117 7
18 15 -2 36 -48 48 -40 11 -163 123 -175 160 -5 15 1 34 19 60 31 47 140 105
291 156 l99 34 156 -6 c149 -6 158 -8 226 -40 39 -19 84 -34 100 -34 33 0 322
-47 333 -55 4 -2 68 -11 142 -19 124 -15 347 -41 429 -51 19 -2 92 0 162 6
106 9 146 8 240 -5 62 -9 169 -21 238 -26 268 -20 406 -45 620 -111 36 -11
114 -29 173 -39 116 -20 152 -36 168 -76 15 -42 -5 -93 -86 -213 -72 -108 -90
-149 -97 -221 -2 -25 1 -35 12 -37 24 -4 55 28 114 119 30 47 62 91 71 98 9 7
49 19 91 26 68 12 80 11 137 -6 95 -30 120 -53 211 -195 59 -93 88 -130 102
-130 44 0 25 89 -67 313 -17 41 -5 52 59 52 60 0 86 -16 202 -125 56 -52 107
-95 112 -95 7 0 8 21 4 58 -7 56 -50 155 -102 232 -13 19 -24 38 -24 42 0 11
68 3 135 -16 59 -16 115 -21 115 -10 0 37 -190 190 -310 249 -41 21 -86 45
-100 54 -40 27 -137 58 -236 75 -50 9 -111 24 -135 34 -53 22 -197 62 -334 92
-242 53 -276 63 -318 101 l-41 36 93 89 c212 202 323 321 411 442 43 59 54 82
58 122 4 44 1 54 -29 92 -18 24 -39 49 -48 56 -24 19 -89 34 -122 27 -34 -8
-29 -25 7 -25 31 0 93 -31 119 -60 30 -33 27 -97 -8 -146 -97 -138 -125 -172
-268 -319 -74 -76 -93 -94 -166 -151 -43 -33 -93 -111 -93 -145 0 -19 10 -34
34 -52 43 -33 201 -85 294 -97 79 -10 114 -19 214 -51 35 -11 133 -35 218 -54
230 -50 376 -109 573 -232 77 -48 104 -73 79 -73 -4 0 -61 27 -126 60 -168 86
-283 122 -274 87 2 -8 28 -35 58 -61 81 -69 86 -73 166 -169 72 -86 121 -163
110 -175 -3 -3 -50 40 -104 95 -122 126 -263 216 -406 260 -22 7 -23 10 36
-78 48 -73 188 -388 188 -424 0 -36 -25 5 -100 159 -107 222 -177 306 -267
321 -39 6 -46 4 -73 -23 -19 -20 -30 -41 -30 -59 0 -47 -78 -194 -149 -283
-17 -21 -20 -22 -21 -7 0 23 21 64 75 142 24 35 46 78 50 97 4 18 13 52 21 76
24 73 21 78 -53 103 -38 12 -139 51 -226 85 -163 66 -177 71 -177 54 0 -12 83
-55 135 -69 23 -6 49 -17 59 -24 16 -12 13 -13 -30 -7 -77 10 -205 60 -248 96
-25 22 -73 44 -135 65 -53 17 -123 42 -156 54 -33 13 -94 31 -135 39 -91 19
-234 86 -250 117 -14 25 -8 86 11 121 42 76 267 317 336 359 32 20 43 39 23
39 -28 0 -161 -103 -259 -201 -63 -62 -124 -115 -143 -121 -30 -11 -33 -9 -60
23 -61 72 -81 133 -87 263 -11 224 15 377 90 535 27 57 49 105 49 107 0 2 -7
4 -16 4 -9 0 -28 -28 -49 -73z m-763 -871 c26 -53 98 -136 119 -136 27 0 24
13 -10 37 -28 21 -81 101 -81 122 0 12 247 16 287 5 13 -4 39 -32 62 -68 46
-73 95 -121 111 -111 8 5 -2 21 -30 50 -23 23 -47 60 -55 81 -12 36 -12 40 5
48 17 8 398 -39 409 -50 2 -2 -8 -28 -22 -58 -15 -30 -27 -67 -27 -81 0 -34
56 -92 96 -100 43 -9 79 -29 79 -45 0 -28 -101 -40 -310 -39 -110 1 -213 1
-230 1 -16 -1 -50 3 -75 8 -25 5 -119 17 -210 25 -192 18 -243 36 -310 112
-47 54 -115 185 -107 207 6 16 40 20 193 22 l91 2 15 -32z m-355 12 c7 -5 31
-48 53 -95 26 -53 58 -100 86 -127 24 -23 44 -46 44 -49 0 -13 -67 -6 -175 18
-60 14 -150 30 -200 36 -165 20 -188 24 -191 34 -1 6 23 31 54 57 31 26 74 62
95 79 21 17 54 37 73 44 43 15 144 16 161 3z m3052 -641 c52 -27 61 -43 28
-49 -18 -3 -35 5 -65 34 -48 44 -32 50 37 15z m-434 -67 c32 -20 115 -118 115
-136 0 -5 -60 -9 -133 -9 l-132 0 40 82 c44 91 55 97 110 63z m258 -44 c68
-44 74 -66 19 -66 -30 0 -41 5 -50 23 -6 12 -21 37 -34 56 -27 41 -17 39 65
-13z"/>
<path d="M4965 3620 c-11 -18 6 -112 28 -155 28 -57 91 -146 118 -171 22 -19
89 -44 118 -44 6 0 11 7 11 15 0 9 -27 28 -64 45 -48 23 -73 43 -103 84 -42
56 -85 166 -81 206 3 24 -16 38 -27 20z"/>
<path d="M4715 3560 c-8 -16 -24 -34 -35 -40 -32 -17 -27 -32 57 -208 29 -58
122 -151 183 -182 53 -27 70 -29 70 -9 0 4 -29 24 -65 44 -110 61 -187 185
-189 303 -1 37 3 79 8 95 11 37 -9 36 -29 -3z"/>
<path d="M4525 3421 c-3 -5 0 -13 5 -16 15 -9 60 3 60 15 0 13 -57 13 -65 1z"/>
<path d="M4650 3300 c0 -5 9 -10 21 -10 11 0 17 5 14 10 -3 6 -13 10 -21 10
-8 0 -14 -4 -14 -10z"/>
<path d="M12236 2960 c-42 -106 -5 -311 94 -515 27 -56 53 -119 59 -140 5 -22
15 -58 20 -80 14 -54 13 -102 -3 -147 -13 -35 -12 -38 5 -38 56 0 91 156 55
250 -7 19 -22 60 -32 90 -10 30 -31 82 -47 114 -16 33 -38 84 -48 114 -10 30
-24 61 -30 68 -32 39 -51 213 -28 256 13 24 4 68 -15 68 -8 0 -21 -18 -30 -40z"/>
</g>
</svg>
