<?xml version="1.0" standalone="no"?>
<!DOCTYPE svg PUBLIC "-//W3C//DTD SVG 20010904//EN"
 "http://www.w3.org/TR/2001/REC-SVG-20010904/DTD/svg10.dtd">
<svg version="1.0" xmlns="http://www.w3.org/2000/svg"
 width="1280.000000pt" height="653.000000pt" viewBox="0 0 1280.000000 653.000000"
 preserveAspectRatio="xMidYMid meet">
<metadata>
Created by potrace 1.15, written by Peter Selinger 2001-2017
</metadata>
<g transform="translate(0.000000,653.000000) scale(0.100000,-0.100000)"
fill="#000000" stroke="none">
<path d="M7140 6519 c-25 -5 -57 -9 -71 -9 -15 0 -62 -7 -105 -15 -44 -8 -97
-15 -119 -15 -56 0 -249 -34 -380 -66 -60 -14 -124 -28 -142 -29 -36 -4 -65
-11 -108 -30 -16 -7 -57 -20 -90 -29 -33 -10 -79 -26 -103 -37 -23 -10 -47
-19 -52 -19 -5 0 -119 -54 -253 -119 -135 -66 -261 -126 -280 -134 -19 -8 -53
-31 -75 -51 -22 -20 -43 -36 -48 -36 -5 -1 -43 -30 -84 -65 -41 -36 -100 -82
-130 -104 -63 -45 -113 -103 -141 -165 -22 -51 -31 -59 -84 -74 -23 -6 -68
-31 -102 -54 -73 -52 -259 -225 -250 -234 7 -7 76 47 167 131 128 118 256 160
318 103 27 -25 55 -81 77 -154 l14 -46 -30 -10 c-18 -6 -29 -17 -29 -29 0 -27
-36 -46 -111 -57 -74 -11 -136 -39 -190 -86 -103 -88 -118 -97 -181 -107 -35
-5 -105 -17 -156 -25 -60 -10 -97 -13 -103 -7 -17 17 57 125 131 192 38 34 70
67 70 72 0 33 -167 -123 -226 -212 -44 -66 -68 -89 -80 -76 -3 3 12 58 34 124
22 65 50 160 61 212 l22 93 -20 22 c-11 12 -27 38 -36 59 -21 51 -56 64 -108
41 -41 -19 -111 -99 -101 -116 3 -5 -1 -17 -10 -27 -9 -10 -30 -54 -47 -97
-17 -43 -45 -103 -63 -134 -19 -30 -37 -66 -41 -80 -4 -14 -25 -58 -46 -98
-22 -41 -39 -80 -39 -87 0 -13 -103 -52 -207 -79 -28 -7 -67 -22 -86 -33 -19
-11 -72 -35 -118 -52 -46 -17 -115 -44 -154 -60 -38 -16 -73 -27 -77 -25 -16
10 -8 47 21 98 16 28 31 65 34 82 3 17 17 55 31 85 51 112 41 151 -45 189 -44
19 -57 20 -100 11 -28 -6 -62 -17 -77 -25 -48 -25 -121 -120 -143 -186 -7 -19
-20 -46 -29 -60 -10 -14 -40 -79 -67 -145 -43 -103 -50 -129 -48 -180 1 -33 4
-66 6 -73 6 -19 -155 -102 -195 -102 -17 0 -49 5 -71 10 -22 5 -103 19 -180
30 -77 11 -183 34 -235 49 -255 78 -273 79 -346 9 -30 -28 -64 -67 -75 -85
-12 -19 -32 -38 -44 -43 -30 -11 -119 -118 -149 -178 -30 -60 -61 -151 -76
-224 -6 -31 -23 -74 -37 -95 -16 -24 -25 -50 -25 -74 1 -43 -8 -53 -59 -67
-49 -13 -195 -114 -239 -166 -43 -49 -180 -254 -180 -268 0 -6 -20 -38 -44
-73 l-45 -62 -48 8 c-93 15 -136 11 -194 -21 -60 -32 -99 -77 -99 -112 0 -38
27 -68 61 -68 22 0 29 -5 29 -20 0 -11 6 -20 14 -20 19 0 46 44 46 74 0 28 39
63 79 72 14 3 37 10 50 15 38 16 44 -2 22 -59 -23 -58 -128 -222 -190 -298
-37 -44 -41 -54 -41 -104 0 -44 -5 -63 -25 -90 -14 -19 -25 -39 -25 -45 0 -7
-17 -25 -38 -42 -25 -20 -43 -45 -50 -72 -18 -59 -68 -94 -142 -99 -52 -4 -59
-2 -70 18 -12 23 -66 50 -100 50 -17 0 -20 -6 -20 -44 0 -35 4 -45 20 -49 11
-3 20 -12 20 -21 0 -8 -9 -20 -20 -26 -14 -8 -20 -21 -20 -46 l0 -36 28 30
c45 48 67 49 112 8 22 -20 51 -36 63 -36 26 0 165 93 174 116 11 29 -6 25 -44
-9 -46 -41 -75 -57 -102 -57 -35 0 -24 27 22 53 50 30 158 142 207 216 36 54
94 124 88 106 -15 -46 -104 -208 -129 -237 -45 -53 -28 -61 20 -10 36 40 67
95 123 219 14 32 29 52 40 53 49 1 217 280 253 421 9 35 22 69 30 75 9 7 38 8
89 2 91 -11 123 2 163 65 14 23 48 74 75 114 27 40 59 95 72 123 13 29 33 62
45 74 12 12 27 42 34 67 11 36 20 48 56 67 24 12 53 29 64 37 18 12 19 15 4
15 -24 0 -99 -30 -122 -50 -11 -9 -54 -36 -95 -60 -50 -30 -106 -76 -170 -142
-101 -103 -139 -126 -183 -109 -37 14 -34 34 12 89 21 26 58 79 81 117 55 92
94 132 155 159 28 13 56 30 64 39 7 10 20 17 28 17 8 0 29 6 46 14 63 27 214
59 295 62 77 3 82 2 73 -15 -6 -10 -40 -37 -76 -61 -65 -43 -74 -53 -54 -66 7
-4 2 -16 -14 -33 -13 -14 -40 -54 -60 -88 -19 -33 -62 -95 -95 -137 -52 -64
-65 -90 -92 -178 -31 -102 -32 -103 -108 -177 -42 -40 -101 -87 -130 -104 -30
-16 -56 -35 -58 -42 -3 -7 6 -29 20 -49 20 -30 23 -42 16 -62 -6 -14 -10 -34
-10 -44 0 -10 -23 -56 -51 -102 -56 -93 -56 -93 -28 -287 l12 -85 -64 -58
c-35 -32 -73 -61 -84 -64 -26 -8 -86 -65 -79 -76 10 -15 51 -8 110 21 78 38
114 44 163 31 51 -13 146 -102 157 -145 9 -42 28 -60 79 -80 25 -9 45 -21 45
-25 0 -5 -16 -35 -35 -67 -33 -54 -34 -58 -15 -61 11 -2 34 8 52 21 29 22 144
67 170 67 6 0 43 -13 85 -30 41 -16 92 -30 113 -30 21 0 41 -4 44 -8 13 -21
-141 -107 -317 -177 -69 -28 -97 -58 -97 -104 0 -51 -160 -115 -315 -126 -156
-11 -230 -22 -280 -40 -39 -15 -46 -23 -55 -56 -6 -22 -20 -44 -33 -50 -36
-20 -319 -89 -363 -89 -23 0 -70 11 -105 24 -86 32 -119 22 -119 -35 0 -36 2
-39 28 -39 52 0 56 -15 12 -44 l-41 -27 3 -127 3 -127 29 -3 c48 -6 55 14 16
46 -31 26 -33 31 -27 72 4 32 15 53 41 79 35 35 36 35 81 23 59 -16 84 -15
136 4 24 8 66 19 93 25 27 5 90 30 140 54 l91 46 25 -31 c14 -16 30 -30 35
-30 16 0 228 71 240 80 6 4 46 15 90 24 92 20 248 91 301 139 35 30 43 32 138
38 118 7 202 32 310 92 177 99 304 190 454 324 71 64 99 83 122 83 16 0 51 4
77 9 26 5 93 17 148 26 147 24 268 54 277 68 4 7 8 20 8 29 0 10 15 25 36 35
20 10 35 22 33 28 -2 5 -8 8 -14 6 -5 -3 -68 -25 -140 -49 -71 -24 -132 -47
-135 -51 -3 -4 -14 -7 -25 -7 -11 0 -60 -9 -108 -18 -67 -14 -109 -17 -175
-11 -139 11 -152 10 -257 -13 -148 -32 -318 -33 -412 -3 -39 12 -105 26 -146
30 -84 8 -149 41 -240 122 -106 94 -163 127 -243 140 -48 8 -74 16 -74 25 0
15 38 44 60 44 38 1 41 13 21 106 -10 49 -21 116 -25 150 -6 59 -5 64 44 157
34 67 50 109 50 135 0 32 7 45 51 87 28 28 60 68 70 90 10 22 32 53 49 70 47
45 115 170 151 275 17 52 40 111 50 130 10 19 30 60 44 90 15 30 48 78 74 105
26 28 59 66 73 85 48 65 113 122 158 139 25 9 49 26 54 37 5 11 20 27 32 35
13 8 81 57 153 109 72 52 162 118 201 145 39 28 94 67 123 88 72 52 591 311
595 297 2 -6 -16 -30 -40 -53 -59 -56 -113 -136 -100 -149 6 -6 18 6 35 34 38
65 197 223 262 260 77 45 257 128 320 148 39 12 81 28 95 35 26 13 287 99 328
108 33 8 27 -9 -16 -40 -78 -57 -160 -164 -218 -282 -27 -56 -37 -90 -41 -146
-10 -127 15 -184 152 -358 33 -42 92 -122 130 -177 39 -56 79 -111 90 -123 21
-23 38 -49 54 -82 14 -31 40 -50 52 -38 7 7 -15 48 -71 129 -145 213 -215 310
-258 361 -61 74 -112 186 -112 248 0 49 12 110 30 150 4 11 13 35 19 53 17 55
99 170 154 215 28 23 64 57 81 76 43 47 71 56 236 80 80 12 188 29 240 37 113
19 414 24 430 8 8 -8 -5 -21 -46 -45 -58 -34 -104 -83 -91 -96 4 -4 24 10 44
31 20 21 69 54 107 73 64 32 78 35 146 34 99 -2 143 -15 177 -51 15 -17 35
-30 44 -30 9 0 33 -13 54 -30 21 -16 46 -30 56 -30 11 0 28 -9 39 -20 16 -16
33 -20 88 -20 37 0 77 -3 90 -6 23 -7 23 -7 -8 -36 -18 -16 -30 -31 -28 -34
16 -15 340 147 395 197 26 24 52 39 68 39 29 0 28 1 11 -65 l-13 -50 -49 -1
c-27 0 -60 -6 -73 -13 -13 -7 -74 -31 -135 -53 -113 -40 -186 -75 -186 -90 0
-4 24 2 53 13 96 39 103 40 130 30 15 -6 33 -22 39 -37 15 -33 24 -32 279 30
103 26 195 46 205 46 35 0 -8 -27 -172 -109 -181 -89 -176 -84 -192 -206 l-7
-59 -73 -31 c-40 -18 -78 -38 -85 -45 -10 -10 -8 -11 8 -5 56 23 233 79 330
105 143 37 143 37 147 68 4 38 33 35 35 -3 0 -16 3 -39 5 -50 3 -17 -2 -19
-39 -16 -24 1 -55 -4 -72 -14 -17 -9 -57 -20 -89 -26 -102 -18 -312 -93 -312
-111 0 -13 25 -9 75 12 26 11 51 17 57 14 5 -3 8 -31 6 -63 -3 -60 10 -78 29
-41 18 36 35 41 161 50 167 13 387 54 532 99 153 47 381 129 395 141 6 5 60
30 120 55 60 25 134 59 163 76 29 16 86 44 125 62 99 44 213 110 199 115 -6 2
-51 -17 -99 -42 -49 -25 -171 -85 -273 -135 -173 -84 -228 -108 -450 -191 -47
-18 -107 -41 -135 -52 -59 -23 -214 -58 -305 -68 -36 -5 -110 -15 -165 -23
-163 -25 -232 -28 -238 -13 -8 22 3 54 21 61 70 28 244 71 275 67 30 -3 41 1
67 26 34 35 37 57 13 92 -37 55 -78 55 -125 1 -28 -33 -46 -43 -123 -65 -49
-14 -93 -22 -97 -18 -13 13 2 90 23 116 17 21 240 166 256 166 6 0 180 77 233
103 14 7 26 21 28 31 5 22 13 23 -183 -29 -77 -20 -160 -42 -185 -47 -25 -5
-76 -19 -115 -30 -93 -27 -192 -29 -230 -4 -27 18 -28 19 -10 32 37 27 126 55
159 49 25 -5 40 0 73 24 50 36 61 67 39 110 -31 58 -90 50 -166 -24 -30 -29
-68 -53 -115 -71 -72 -27 -172 -44 -162 -26 9 13 218 163 374 268 l128 86 55
-7 c30 -4 177 -9 327 -10 149 -2 280 -8 290 -13 17 -9 52 -14 323 -44 125 -14
108 -14 295 1 194 15 261 30 425 96 74 29 153 56 175 60 142 24 130 50 -16 34
-137 -15 -258 -6 -399 29 -118 30 -275 85 -365 127 -27 13 -77 35 -110 48 -33
14 -60 31 -60 39 0 15 3 15 140 -7 178 -28 934 -7 1100 30 42 10 303 72 407
97 84 21 90 21 123 5 20 -9 37 -17 39 -17 10 0 26 67 26 104 0 49 -44 207 -68
245 -51 81 -135 161 -302 288 -78 59 -117 101 -99 107 8 3 88 21 179 40 91 20
199 45 240 56 l75 20 -77 -4 c-42 -2 -107 -13 -145 -25 -93 -27 -247 -61 -309
-68 -43 -5 -57 -2 -90 20 -21 14 -51 29 -67 32 -15 4 -30 11 -33 16 -3 5 -18
9 -33 9 -15 0 -36 9 -46 20 -10 11 -30 20 -44 20 -14 0 -42 4 -61 10 -19 5
-75 14 -125 20 -49 7 -119 16 -155 20 -201 27 -453 36 -540 19z m495 -49 c265
-30 378 -51 437 -81 20 -10 58 -23 84 -29 27 -6 54 -16 61 -22 18 -14 16 -38
-2 -38 -29 0 -343 -109 -605 -210 -263 -101 -581 -260 -870 -437 -159 -97
-519 -334 -597 -393 -36 -27 -79 -52 -97 -54 -56 -9 -348 -21 -476 -19 -142 2
-274 19 -290 38 -7 8 -26 11 -53 8 -23 -3 -54 0 -68 5 -23 9 -27 17 -32 72 -7
81 -47 162 -97 197 -22 16 -40 36 -40 47 0 10 12 40 27 67 19 36 40 57 77 78
64 36 164 120 172 143 3 10 11 18 18 18 7 0 33 16 57 35 24 19 49 35 55 35 6
0 16 11 22 24 7 16 22 26 49 31 41 7 103 41 103 56 0 5 13 9 29 9 16 0 34 7
41 15 7 8 23 15 36 15 13 0 32 9 41 20 10 11 23 20 30 20 7 0 34 14 60 30 26
17 52 30 58 30 7 0 56 22 111 49 54 28 122 55 149 62 28 6 79 22 115 35 36 12
85 25 110 27 25 3 85 13 134 21 49 9 91 14 94 12 2 -3 16 1 31 8 14 7 56 17
93 20 44 5 68 12 72 22 4 12 9 12 24 3 15 -9 34 -9 83 1 175 36 562 51 754 30z
m752 -243 c85 -57 274 -251 321 -329 39 -65 81 -181 82 -221 0 -20 -7 -30 -23
-36 -22 -9 -245 -30 -367 -35 -30 -2 -71 -8 -90 -14 -19 -6 -84 -16 -145 -22
-60 -6 -153 -16 -206 -22 -53 -6 -106 -8 -117 -5 -12 2 -26 -1 -31 -7 -8 -9
-48 -12 -141 -10 -101 2 -132 0 -136 -10 -3 -9 -19 -12 -48 -10 -23 2 -157 5
-297 8 -141 3 -278 8 -306 12 -28 3 -58 2 -67 -3 -15 -8 -12 -13 21 -36 22
-15 46 -27 54 -27 7 0 28 -9 44 -20 17 -11 85 -47 152 -80 126 -62 425 -160
556 -183 37 -7 68 -16 68 -22 1 -10 -130 -33 -318 -56 -76 -9 -119 -9 -175 -1
-83 13 -185 20 -373 27 -71 2 -170 9 -220 14 -49 6 -162 18 -250 27 -88 9
-164 20 -168 25 -5 4 11 21 35 38 120 88 640 421 656 421 5 0 29 15 53 33 82
63 400 229 559 292 52 21 154 65 225 97 288 131 533 222 564 210 9 -4 48 -29
88 -55z m-997 -262 c0 -8 -73 -53 -99 -60 -42 -12 -13 14 42 40 62 28 57 26
57 20z m-150 -74 c0 -13 -19 -26 -72 -49 -64 -28 -61 -11 5 27 55 32 67 36 67
22z m-150 -81 c0 -5 -19 -19 -41 -31 -23 -11 -60 -34 -82 -50 -22 -16 -45 -29
-52 -29 -7 0 -32 -15 -56 -33 -24 -18 -73 -51 -109 -72 -94 -56 -517 -338
-640 -426 -58 -42 -163 -116 -235 -165 -71 -49 -181 -126 -243 -171 -110 -80
-143 -97 -141 -70 0 15 209 168 381 280 71 45 194 130 275 189 200 144 559
374 828 530 104 60 115 65 115 48z m-2894 -385 c32 -21 48 -69 36 -102 -10
-32 -68 -115 -123 -177 -38 -44 -116 -151 -169 -231 -38 -58 -57 -75 -82 -75
-28 0 -22 24 27 109 60 103 175 346 175 368 0 25 49 92 79 108 33 18 32 18 57
0z m39 -232 c-3 -10 -13 -45 -22 -77 -22 -86 -79 -206 -97 -206 -21 0 -20 10
3 62 11 24 27 63 36 88 25 67 68 150 78 150 5 0 6 -8 2 -17z m1035 -52 c102
-15 197 -21 388 -23 138 -1 256 -4 261 -8 8 -4 -374 -276 -463 -330 -21 -12
-32 -12 -78 -1 -82 21 -164 66 -185 102 -10 17 -36 40 -58 52 -35 18 -65 25
-175 42 -14 2 -69 7 -122 11 -54 4 -98 11 -98 16 0 17 121 86 173 99 50 12
105 34 156 63 16 10 31 11 45 6 12 -5 82 -18 156 -29z m-1150 -74 c0 -12 -81
-166 -92 -174 -19 -15 -78 -24 -78 -12 0 13 80 119 91 119 4 0 11 9 14 20 8
26 33 50 51 50 8 0 14 -1 14 -3z m-926 -68 c38 -30 34 -59 -34 -265 -59 -175
-62 -181 -96 -197 -19 -9 -37 -17 -41 -17 -3 0 -4 62 -1 138 4 117 8 146 26
183 21 43 21 44 3 63 -18 18 -18 21 -3 52 16 35 39 43 60 22 8 -8 14 -5 23 15
15 32 28 34 63 6z m-199 -111 c-4 -24 -18 -65 -31 -93 -12 -27 -30 -84 -40
-125 -9 -41 -23 -87 -30 -102 -8 -15 -14 -37 -14 -49 0 -31 -48 -104 -82 -124
-26 -15 -29 -15 -34 0 -4 9 -4 32 0 53 8 49 107 307 136 352 12 19 35 56 51
83 36 60 53 62 44 5z m3285 -187 c0 -10 -30 -24 -37 -17 -3 3 -2 9 2 15 8 13
35 15 35 2z m-3320 -148 c0 -66 -1 -69 -32 -86 -17 -10 -35 -14 -39 -10 -5 5
5 35 21 67 17 32 30 67 30 77 0 11 5 19 10 19 6 0 10 -29 10 -67z m-1034 -202
c60 -18 178 -40 299 -55 110 -15 219 -29 243 -32 23 -4 45 -10 47 -15 14 -22
-56 -44 -209 -66 -154 -22 -165 -22 -256 -8 -52 9 -147 17 -210 19 -192 5
-221 29 -138 114 81 83 86 84 224 43z m-309 -177 c2 -6 -10 -27 -26 -47 -17
-22 -44 -84 -66 -150 -21 -61 -53 -145 -71 -186 -41 -89 -43 -105 -11 -96 20
6 20 6 7 -8 -17 -18 -106 -44 -116 -34 -3 3 12 39 34 80 22 40 51 105 63 143
65 203 165 362 186 298z m263 -24 c58 -5 131 -16 163 -24 45 -11 78 -12 150
-5 164 15 171 11 75 -47 -66 -40 -181 -121 -379 -266 -130 -95 -155 -104 -302
-113 -111 -6 -119 -1 -99 64 6 20 23 77 37 126 37 127 71 205 107 249 31 38
32 38 87 32 31 -4 103 -11 161 -16z m-580 -774 c0 -8 -4 -17 -9 -21 -5 -3 -17
-28 -26 -56 -10 -28 -36 -79 -60 -113 -23 -34 -50 -79 -60 -100 -18 -37 -80
-94 -91 -83 -6 6 25 62 58 106 10 13 18 33 19 45 0 11 19 59 42 106 30 59 52
91 76 107 39 27 51 29 51 9z m-157 -112 c11 -11 -33 -107 -89 -191 -30 -46
-56 -83 -58 -83 -2 0 -21 7 -41 16 -65 27 -148 -3 -125 -46 20 -38 -77 -266
-162 -377 -49 -63 -105 -92 -145 -74 -28 13 -29 23 -3 53 51 58 111 147 143
212 50 102 87 185 87 197 0 6 15 44 34 85 32 69 37 74 66 74 23 0 33 -5 37
-20 15 -56 154 22 213 119 25 41 32 46 43 35z m-603 -293 c0 -5 -9 -19 -20
-32 -15 -19 -19 -21 -20 -7 0 27 11 48 26 48 8 0 14 -4 14 -9z m-56 -57 c26
-10 18 -24 -14 -24 -29 0 -38 9 -23 23 8 9 17 9 37 1z m643 -172 c-23 -23 -29
-25 -37 -12 -13 21 -8 33 21 47 38 19 48 -2 16 -35z m1032 -1132 c-60 -75
-272 -221 -419 -287 -59 -27 -190 -68 -263 -83 -52 -10 -61 -10 -77 5 -11 10
-26 15 -35 12 -28 -12 -17 30 13 42 46 20 94 66 106 102 15 45 83 95 225 165
112 56 116 57 230 65 64 5 143 15 176 22 33 8 64 10 69 6 4 -4 -7 -26 -25 -49z
m-719 -212 c0 -11 -49 -58 -61 -58 -4 0 -14 -3 -23 -6 -12 -4 -16 0 -16 15 0
13 14 29 38 45 35 22 62 24 62 4z m-160 -183 c17 -20 -2 -41 -85 -95 -52 -34
-90 -48 -216 -79 -85 -21 -183 -50 -218 -65 -36 -14 -70 -26 -77 -26 -18 0
-29 67 -15 84 7 8 44 20 84 26 65 11 163 37 225 61 13 5 38 9 57 9 21 0 44 9
64 26 28 24 133 73 157 74 6 0 17 -7 24 -15z m-347 -54 c15 -6 16 -9 5 -17
-18 -15 -161 -54 -219 -61 -43 -5 -49 -4 -49 13 0 29 36 47 120 60 89 14 119
15 143 5z m-333 -156 c0 -8 -7 -15 -17 -15 -9 0 -37 -13 -62 -29 -44 -28 -195
-82 -271 -96 -19 -4 -43 -9 -52 -11 -13 -4 -23 5 -35 30 -9 20 -15 38 -12 40
2 3 47 12 99 20 52 9 142 29 200 45 123 34 150 37 150 16z"/>
<path d="M8885 6430 c-14 -6 -2 -9 42 -9 34 -1 65 4 68 9 8 12 -81 12 -110 0z"/>
<path d="M12772 6068 c-13 -7 -21 -17 -18 -25 3 -7 1 -13 -4 -13 -6 0 -10 5
-10 10 0 6 -15 10 -32 10 -18 0 -42 0 -53 2 -55 5 -77 -3 -119 -46 -24 -25
-55 -48 -69 -51 -34 -9 -43 -21 -51 -74 -10 -67 -50 -129 -148 -233 -35 -37
-195 -264 -242 -343 -19 -33 -54 -96 -76 -140 -53 -103 -57 -107 -82 -72 -23
31 -77 57 -120 57 -37 0 -86 -21 -144 -61 l-47 -32 -126 42 c-164 54 -267 64
-340 32 -27 -11 -62 -21 -76 -21 -60 0 -187 -163 -210 -270 -4 -19 -18 -61
-31 -93 -49 -116 -42 -287 20 -502 13 -44 29 -99 35 -122 6 -23 23 -55 36 -71
14 -17 25 -38 25 -48 0 -9 19 -73 41 -141 37 -109 40 -127 30 -151 -29 -63
-106 -308 -162 -514 -21 -80 -77 -398 -90 -517 -15 -134 -49 -321 -66 -360
-69 -159 -86 -236 -25 -111 l37 75 53 3 c59 3 86 -10 77 -39 -4 -10 -8 -49
-10 -86 -3 -37 -5 -70 -5 -73 0 -3 -5 2 -10 10 -5 8 -10 43 -10 78 0 34 -4 62
-10 62 -15 0 -23 -68 -17 -144 11 -123 17 -181 22 -193 9 -27 24 -11 29 30 20
165 31 236 42 261 7 19 10 58 7 105 -3 52 1 100 12 151 10 41 23 102 31 135 7
33 23 121 34 195 12 74 37 198 56 275 19 77 33 150 31 163 -4 23 15 140 28
175 11 26 19 21 39 -20 27 -57 75 -132 119 -186 l40 -49 -26 -131 c-34 -171
-41 -316 -27 -505 10 -130 10 -156 -2 -175 -8 -12 -58 -114 -110 -227 -53
-113 -108 -225 -122 -250 -42 -74 -29 -104 27 -60 14 11 31 20 37 20 12 0 12
-7 -5 -86 -12 -54 17 4 46 95 30 96 28 133 -5 86 -39 -54 -74 -90 -81 -83 -9
8 -10 5 54 118 30 52 54 85 63 84 22 -2 87 -55 94 -77 3 -10 -1 -26 -10 -36
-9 -10 -16 -23 -16 -30 0 -7 -19 -90 -41 -183 -43 -176 -43 -202 0 -179 11 6
25 28 30 49 19 68 62 301 68 367 3 36 9 68 13 70 7 4 14 -101 26 -425 11 -286
23 -414 57 -610 33 -185 60 -272 95 -312 27 -32 12 -176 -51 -471 -18 -87 -25
-103 -58 -137 -20 -21 -35 -41 -32 -44 9 -9 255 4 291 16 18 5 40 7 49 4 9 -4
55 0 102 8 140 24 346 39 383 28 47 -15 440 -26 602 -17 l136 7 0 68 0 68
-102 7 c-79 5 -140 2 -263 -15 -88 -12 -178 -25 -200 -30 -22 -5 -67 -10 -100
-10 -33 0 -114 -7 -180 -14 -66 -8 -159 -17 -207 -21 l-88 -7 0 24 c0 25 49
179 69 216 6 12 23 28 37 35 22 12 27 22 30 70 3 37 -1 69 -11 94 -9 21 -13
48 -10 62 5 20 10 23 38 18 18 -3 39 -8 48 -12 10 -4 19 3 28 21 10 22 9 30
-4 44 -18 20 -14 78 22 318 8 57 12 109 9 117 -3 8 0 29 5 47 15 50 29 266 40
628 6 179 11 341 11 360 1 19 1 67 -1 105 -1 39 1 114 5 168 4 58 2 132 -4
180 -9 69 -19 202 -36 527 -2 25 -4 50 -6 55 -6 24 2 35 24 35 14 0 28 -4 31
-10 10 -16 25 -11 25 9 0 10 -5 32 -11 50 -10 29 -14 31 -40 26 -19 -4 -29 -3
-29 5 0 32 82 162 142 225 67 71 92 81 64 27 -15 -28 -14 -31 7 -45 l22 -15
-27 -56 c-15 -31 -25 -56 -22 -56 11 0 64 31 64 38 0 4 18 29 40 55 49 60 93
151 85 177 -9 29 -40 42 -82 34 -53 -10 -183 -137 -241 -236 -24 -43 -51 -83
-58 -89 -16 -13 -20 -6 -28 64 -6 48 -53 168 -126 322 -20 44 -45 112 -54 151
l-17 70 30 112 c22 82 49 150 103 255 87 168 103 204 134 317 27 95 29 148 12
230 -11 57 -11 57 28 120 21 34 55 74 76 87 38 26 72 66 98 116 8 16 36 44 62
63 47 35 49 35 98 25 72 -16 110 -14 110 4 0 11 12 15 45 15 25 0 45 5 45 10
0 6 -17 10 -37 10 -21 1 -57 5 -80 9 -29 6 -44 5 -46 -3 -2 -6 -8 -8 -12 -3
-11 9 16 30 80 63 83 43 153 102 157 131 2 15 9 28 16 31 7 2 10 -2 6 -12 -7
-19 2 -20 45 -5 17 6 31 17 31 25 0 17 -5 17 -30 2 -15 -10 -24 -10 -39 -1
-15 9 -25 8 -51 -8 -22 -14 -36 -17 -43 -10 -11 11 47 51 76 51 13 0 18 6 15
23 -3 20 -8 22 -62 20 -43 -2 -64 -7 -81 -23 -23 -22 -45 -26 -61 -10 -21 21
-145 -175 -162 -258 -6 -29 -17 -43 -53 -67 -28 -18 -56 -48 -70 -74 -12 -24
-41 -57 -62 -75 -22 -17 -49 -51 -62 -76 -13 -25 -31 -56 -42 -69 l-19 -23
-18 41 -19 41 28 62 c32 70 81 146 130 198 18 19 55 76 81 125 43 79 104 167
192 273 15 18 41 40 57 49 17 8 45 29 63 44 31 27 38 29 121 29 72 0 91 3 104
18 13 14 14 21 5 30 -17 17 -8 22 51 29 l51 6 0 88 c0 49 -1 89 -2 88 -2 0
-13 -5 -26 -11z m-82 -97 c-22 -31 -58 -57 -67 -48 -2 3 15 23 39 45 49 46 60
47 28 3z m-115 -471 c-19 -30 -237 -160 -270 -160 -18 0 -19 9 -2 49 11 25 16
28 26 18 10 -9 15 -8 27 8 8 11 21 19 29 17 8 -1 20 6 27 18 8 12 23 20 40 20
15 0 30 5 33 11 4 6 17 14 29 19 30 12 68 12 61 0z m-1268 -416 c137 -31 142
-33 215 -102 79 -75 98 -109 98 -180 0 -62 18 -115 36 -108 18 7 23 -4 44 -87
13 -57 16 -105 14 -226 -5 -195 -21 -285 -85 -474 -48 -143 -77 -197 -105
-197 -21 0 -23 27 -13 157 5 71 12 245 15 388 7 285 -3 436 -35 513 -11 26
-22 59 -25 73 -8 37 -148 182 -196 204 -26 12 -40 25 -40 37 0 22 -6 21 77 2z
m527 -26 c20 -23 36 -50 36 -60 0 -10 9 -31 19 -46 24 -34 52 -149 53 -216 1
-34 -11 -85 -35 -154 -33 -93 -107 -254 -127 -275 -4 -5 -10 54 -13 130 -3 93
-12 164 -26 218 -12 44 -26 109 -32 145 -7 43 -24 90 -50 138 -22 41 -38 80
-35 87 10 28 104 74 153 75 13 0 35 -16 57 -42z m-679 -24 c43 -7 99 -39 154
-87 48 -41 121 -128 121 -144 0 -18 -68 -91 -92 -99 -16 -5 -30 5 -64 44 -24
28 -64 60 -88 71 -41 21 -46 21 -83 6 -22 -9 -47 -28 -57 -45 -9 -17 -21 -30
-26 -30 -6 0 -24 -28 -41 -62 -26 -52 -31 -70 -27 -117 3 -39 11 -66 27 -88
20 -27 23 -38 16 -80 -4 -26 -11 -55 -15 -64 -5 -9 -18 -62 -30 -119 -24 -118
-25 -121 -45 -114 -37 15 -85 163 -116 362 -17 111 3 244 63 407 21 57 89 154
116 164 26 10 108 8 187 -5z m131 -445 c29 -33 98 -77 130 -85 16 -3 39 -12
51 -20 21 -13 21 -16 17 -231 -2 -120 -9 -288 -15 -374 -7 -116 -7 -168 2
-203 14 -56 8 -65 -66 -101 -49 -24 -58 -25 -146 -19 -157 10 -196 41 -259
207 -45 115 -62 282 -40 379 5 24 15 70 21 103 16 80 26 97 49 90 13 -4 24 4
39 29 26 41 53 39 72 -6 11 -26 9 -53 -10 -173 -24 -149 -23 -178 10 -195 31
-17 41 -2 18 29 -20 27 -20 30 -4 135 8 60 21 131 26 158 9 41 8 58 -6 94 -16
43 -16 46 0 64 16 17 16 20 2 26 -24 9 -53 -12 -98 -71 -41 -54 -59 -67 -59
-42 1 37 83 131 144 166 29 16 58 36 65 45 18 22 34 20 57 -5z m398 -782 c4
-24 38 -106 77 -182 77 -153 108 -260 91 -306 -17 -44 -167 -128 -189 -106 -3
4 3 53 15 109 26 131 42 241 36 248 -9 9 -43 -44 -58 -90 -8 -25 -24 -97 -36
-160 -22 -118 -87 -386 -115 -475 -118 -370 -156 -474 -212 -588 -57 -116 -65
-127 -82 -117 -29 15 -64 69 -64 99 0 14 14 49 31 76 33 53 105 290 117 385 4
30 20 114 35 185 49 223 100 483 100 510 0 56 -18 10 -35 -90 l-18 -105 -51 0
c-28 0 -61 -3 -72 -6 -30 -8 -98 55 -131 120 -20 38 -28 75 -34 145 -9 99 -6
119 16 101 14 -12 153 -30 233 -30 61 0 72 5 154 68 49 37 67 58 94 116 19 39
34 79 34 89 0 10 7 32 16 49 15 29 18 30 29 14 7 -9 16 -36 19 -59z m-650
-168 l35 -52 -19 -41 c-33 -70 -90 -235 -105 -299 -110 -479 -112 -491 -99
-573 4 -31 -4 -81 -31 -193 -37 -148 -38 -151 -64 -151 -15 0 -35 6 -44 13
-15 11 -15 24 3 178 11 92 24 186 29 210 6 24 22 109 36 189 37 211 71 349
121 490 24 69 47 141 50 160 8 49 35 120 45 120 5 0 24 -23 43 -51z m1231 -38
c9 -31 -53 -147 -69 -130 -2 2 -2 34 1 71 6 67 10 73 50 77 6 0 14 -8 18 -18z
m-372 -653 c4 -150 10 -358 14 -463 10 -252 10 -321 0 -440 -5 -55 -12 -208
-17 -340 -7 -211 -31 -462 -46 -486 -3 -5 -11 -9 -18 -9 -8 0 -19 -6 -25 -14
-7 -8 -20 -12 -30 -9 -13 3 -21 -2 -25 -15 -8 -24 -23 -29 -146 -47 -124 -19
-186 -19 -243 1 -63 21 -71 47 -88 286 -7 84 -13 176 -15 203 -3 28 -6 142 -8
255 l-4 205 70 145 c90 185 211 512 287 775 37 128 37 129 72 137 49 13 188
69 195 79 17 28 21 -17 27 -263z m-544 199 c12 -15 10 -28 -32 -217 -15 -63
-33 -155 -42 -205 -20 -116 -48 -222 -63 -237 -9 -9 -12 30 -13 173 -1 233 -1
236 18 344 18 105 31 131 76 144 44 13 43 13 56 -2z m-184 -993 c43 -33 47
-45 28 -93 -19 -50 -40 -52 -85 -12 -32 29 -32 30 -19 68 13 37 29 63 38 63 2
0 19 -11 38 -26z m725 -955 c0 -41 -22 -217 -41 -329 -10 -63 -20 -133 -22
-155 -2 -37 -4 -40 -35 -43 l-33 -3 1 138 c1 181 11 333 21 333 5 0 9 -66 9
-147 0 -191 16 -220 22 -42 4 119 8 142 33 202 29 67 45 84 45 46z m-152 -306
c2 -186 0 -224 -13 -236 -18 -19 -134 -21 -214 -6 -60 12 -131 68 -149 117
-11 31 -39 189 -48 275 l-7 57 30 0 c57 0 62 -13 51 -130 -9 -97 -4 -199 9
-186 3 3 7 61 8 130 4 169 3 166 76 166 46 0 59 -3 59 -15 0 -23 17 -18 23 7
14 50 22 -1 19 -115 -2 -95 0 -118 9 -103 7 11 9 36 6 60 -7 45 10 164 25 184
6 6 20 12 31 12 18 0 19 -4 13 -52 -15 -119 -19 -291 -8 -284 7 4 12 34 12 73
0 87 20 244 33 261 27 34 32 2 35 -215z m-253 -275 c21 -10 25 -17 20 -40 -3
-15 -8 -41 -11 -58 -6 -34 -32 -40 -59 -13 -13 13 -15 26 -10 62 10 67 14 70
60 49z m125 -45 c0 -16 -18 -109 -39 -208 -21 -99 -41 -197 -45 -218 -7 -35
-9 -37 -46 -37 -42 0 -50 12 -27 39 7 9 33 70 57 136 42 113 44 126 42 212 -1
79 1 92 16 96 36 10 42 7 42 -20z m96 -41 c-4 -3 -11 -1 -17 5 -7 7 -6 19 3
39 l13 29 3 -34 c2 -18 1 -36 -2 -39z"/>
<path d="M11355 4413 c-35 -37 -85 -163 -85 -217 0 -31 6 -48 21 -62 20 -18
21 -18 35 1 8 10 14 22 14 27 0 4 11 10 25 14 35 9 32 40 -5 59 -46 24 -52 45
-27 90 26 45 43 54 52 26 12 -40 28 -23 22 25 -7 63 -18 71 -52 37z"/>
<path d="M11012 4277 c-19 -23 -25 -73 -12 -98 13 -23 13 -23 32 14 18 36 40
47 53 27 9 -15 25 -2 25 19 0 24 -19 39 -57 47 -19 4 -33 1 -41 -9z"/>
<path d="M11131 3841 c-12 -8 -12 -21 -2 -87 7 -43 18 -87 23 -100 11 -24 47
-44 80 -44 20 0 21 3 14 108 -5 82 -10 110 -23 120 -19 14 -72 16 -92 3z"/>
<path d="M11430 3460 c0 -5 5 -10 10 -10 6 0 10 5 10 10 0 6 -4 10 -10 10 -5
0 -10 -4 -10 -10z"/>
<path d="M11255 3338 c9 -117 24 -150 25 -53 0 86 -9 145 -23 145 -6 0 -7 -33
-2 -92z"/>
<path d="M11448 1054 c-5 -4 -7 -62 -7 -128 l2 -121 9 85 c9 93 7 176 -4 164z"/>
<path d="M11530 939 c0 -51 4 -78 10 -74 6 3 10 40 10 81 0 43 -4 74 -10 74
-6 0 -10 -34 -10 -81z"/>
<path d="M11526 804 c-9 -24 -7 -97 4 -114 7 -10 10 7 10 58 0 73 -3 85 -14
56z"/>
<path d="M11582 750 c0 -14 2 -19 5 -12 2 6 2 18 0 25 -3 6 -5 1 -5 -13z"/>
<path d="M11655 741 c-3 -5 -1 -12 5 -16 5 -3 10 1 10 9 0 18 -6 21 -15 7z"/>
<path d="M9871 5734 c-45 -57 -48 -123 -22 -379 13 -128 13 -448 0 -482 -6
-15 -19 -75 -30 -133 -28 -156 -38 -191 -66 -239 -23 -39 -27 -42 -41 -27 -14
13 -14 26 -3 108 7 51 14 121 15 155 2 34 9 69 15 77 7 8 10 20 6 26 -4 6 -1
17 5 25 10 13 8 15 -14 15 -32 0 -32 7 -4 37 18 20 19 23 5 23 -24 0 -21 19 4
28 28 11 7 29 -40 34 -44 5 -50 22 -17 44 21 13 29 14 41 4 29 -24 29 0 0 30
-19 19 -39 30 -57 30 -15 0 -28 5 -28 10 0 6 4 10 8 10 5 0 17 7 28 14 18 14
18 15 -13 26 -18 7 -33 16 -33 21 0 18 -94 69 -125 69 -18 0 -39 8 -49 18 -13
16 -24 18 -64 11 -54 -8 -90 -3 -114 19 -16 14 -20 12 -43 -13 -19 -19 -33
-26 -50 -23 -16 3 -31 -2 -41 -13 -10 -11 -27 -19 -40 -19 -13 0 -25 -4 -29
-10 -3 -5 -12 -7 -20 -4 -8 4 -30 -11 -53 -35 -21 -23 -46 -41 -55 -41 -16 0
-18 -9 -31 -103 -3 -22 -17 -54 -31 -72 -29 -39 -30 -43 -10 -65 13 -15 14
-33 6 -126 -5 -60 -10 -149 -10 -197 0 -49 -5 -114 -11 -145 -6 -31 -15 -120
-20 -197 -5 -77 -16 -165 -24 -195 -29 -100 -41 -275 -28 -402 13 -123 41
-265 67 -341 10 -29 22 -125 30 -240 8 -106 19 -219 24 -252 15 -90 41 -410
40 -491 0 -83 17 -134 64 -182 47 -49 81 -64 140 -61 44 3 53 0 68 -21 19 -27
19 -41 -11 -350 -6 -58 -14 -172 -19 -255 -5 -82 -14 -193 -20 -245 -6 -52
-11 -140 -13 -195 l-3 -99 32 -21 c39 -24 40 -40 9 -136 -22 -67 -46 -239 -46
-326 0 -24 10 -44 34 -70 l34 -38 66 18 c37 10 70 16 75 13 26 -17 144 -22
318 -14 106 5 113 4 119 -15 6 -18 12 -19 73 -12 36 3 150 9 253 11 103 2 198
8 210 13 13 4 59 6 103 3 44 -2 137 -3 208 -2 70 1 133 -2 140 -7 7 -6 44 -7
97 -1 47 5 92 8 100 8 79 -6 213 8 236 25 28 20 -152 31 -452 27 -164 -2 -254
0 -258 7 -9 15 76 25 149 17 64 -6 99 -1 89 15 -7 12 -566 10 -629 -2 -27 -5
-84 -14 -125 -19 -41 -6 -102 -14 -135 -19 -75 -12 -192 -14 -198 -3 -2 4 2
59 9 122 8 63 14 151 13 195 0 75 10 120 38 171 21 36 41 232 53 494 16 383
24 452 66 567 19 54 40 103 45 108 6 6 58 10 117 10 80 1 113 5 132 17 14 9
57 26 95 38 39 12 77 29 86 37 21 18 31 176 18 283 -5 41 -16 143 -24 225 -21
200 -41 314 -70 408 -14 43 -25 89 -25 102 0 14 -11 66 -24 118 -13 51 -33
151 -44 223 -44 274 -52 321 -67 388 -8 38 -27 96 -41 130 -42 99 -42 102 21
180 66 83 145 227 174 316 27 87 51 200 51 242 0 19 7 57 15 84 8 27 15 61 15
76 0 15 12 58 26 95 14 38 34 95 45 127 11 33 23 64 28 70 4 6 11 22 14 36 4
14 40 70 82 125 81 108 105 165 105 250 0 45 -4 55 -33 83 -61 59 -91 38 -146
-101 -38 -95 -79 -159 -100 -155 -10 2 -19 25 -28 68 -15 72 -24 87 -42 66
-19 -23 -30 -114 -24 -206 5 -75 2 -93 -21 -153 -30 -80 -13 -88 19 -9 30 74
37 79 79 52 20 -12 36 -29 36 -38 0 -9 -12 -44 -26 -77 -33 -77 -59 -176 -84
-317 -42 -236 -57 -295 -109 -420 -43 -103 -97 -201 -144 -261 l-29 -38 25
-52 c29 -59 72 -234 86 -352 18 -143 41 -279 61 -353 11 -40 20 -86 20 -103 0
-27 -2 -30 -15 -19 -8 7 -12 16 -9 21 7 12 -50 215 -82 292 -14 34 -41 107
-59 162 -18 55 -64 170 -103 255 -38 85 -81 193 -96 240 -15 47 -35 99 -44
117 -28 55 -6 47 38 -14 54 -73 121 -144 131 -137 5 2 -5 27 -21 55 -17 27
-30 55 -30 62 0 7 16 24 35 40 71 57 169 275 225 502 39 160 19 153 -29 -10
-59 -198 -82 -265 -92 -265 -6 0 -7 15 -2 38 7 34 11 421 5 517 -1 22 1 78 5
125 7 76 13 93 51 154 46 77 46 75 32 96 -12 20 -38 5 -65 -38 -11 -17 -25
-31 -31 -32 -17 0 -23 104 -11 203 10 82 9 89 -9 107 -10 10 -33 21 -50 25
-27 5 -35 2 -53 -21z m9 -180 c0 -51 25 -106 47 -102 15 2 19 -5 21 -39 3 -47
4 -48 33 -33 17 9 19 7 19 -18 0 -59 -54 -84 -67 -31 -4 14 -11 18 -22 14 -32
-13 -35 -9 -42 35 -12 70 -11 222 1 215 6 -3 10 -22 10 -41z m585 14 c-3 -18
-18 -66 -32 -106 -14 -40 -23 -75 -19 -79 7 -8 5 -11 50 65 21 35 40 62 42 60
15 -16 -68 -173 -110 -207 -15 -13 -23 -12 -63 10 -60 32 -89 98 -37 85 20 -5
27 -3 31 13 3 11 15 21 27 23 15 2 32 25 61 85 42 86 61 105 50 51z m-497
-401 c-3 -139 9 -638 16 -644 7 -7 -20 -59 -50 -100 -14 -18 -45 -47 -70 -64
-50 -34 -46 -35 -91 29 -14 21 -14 26 0 60 43 97 126 501 139 667 10 136 25
184 50 169 5 -3 8 -56 6 -117z m-688 64 c0 -5 -7 -14 -15 -21 -13 -10 -15 -9
-15 9 0 12 6 21 15 21 8 0 15 -4 15 -9z m310 -41 c0 -5 -7 -10 -15 -10 -8 0
-15 5 -15 10 0 6 7 10 15 10 8 0 15 -4 15 -10z m-370 -20 c0 -5 -4 -10 -10
-10 -5 0 -10 5 -10 10 0 6 5 10 10 10 6 0 10 -4 10 -10z m400 -19 c0 -7 -14
-16 -62 -39 -5 -2 -8 3 -8 12 0 8 12 22 27 30 27 14 43 13 43 -3z m-447 -11
c-3 -11 -7 -20 -9 -20 -2 0 -4 9 -4 20 0 11 4 20 9 20 5 0 7 -9 4 -20z m97
-20 c0 -5 -4 -10 -10 -10 -5 0 -10 5 -10 10 0 6 5 10 10 10 6 0 10 -4 10 -10z
m107 -4 c11 3 37 -2 58 -10 39 -16 53 -12 56 19 0 6 5 -5 10 -23 7 -24 19 -36
40 -44 17 -6 42 -28 57 -51 15 -22 35 -51 44 -66 10 -14 18 -38 18 -52 0 -15
7 -46 16 -70 12 -35 14 -64 9 -139 -9 -124 -7 -311 4 -378 12 -75 4 -101 -43
-150 -84 -89 -148 -121 -296 -148 -105 -20 -197 -19 -272 2 -70 20 -101 49
-129 123 -20 52 -22 78 -27 363 -7 450 2 478 176 559 59 28 96 39 130 39 28 0
59 7 77 19 17 10 35 15 41 10 5 -4 19 -6 31 -3z m-247 -11 c0 -8 -9 -15 -20
-15 -22 0 -27 15 -7 23 21 9 27 7 27 -8z m-200 -149 c0 -11 -19 -15 -25 -6 -3
5 1 10 9 10 9 0 16 -2 16 -4z m830 -796 c7 -30 31 -95 53 -145 22 -49 53 -128
69 -175 16 -47 37 -103 48 -125 31 -66 70 -162 70 -173 0 -6 20 -77 44 -159
60 -198 63 -224 36 -295 -34 -92 -136 -170 -305 -233 -168 -62 -344 -71 -525
-26 -188 47 -175 36 -251 202 -90 195 -132 332 -175 568 -15 84 -15 113 -5
255 11 150 39 286 60 286 16 0 51 -32 51 -47 0 -13 17 -40 56 -92 2 -2 36 -11
76 -20 l73 -17 2 -99 c5 -310 23 -409 111 -620 17 -40 142 -215 193 -270 15
-16 39 -50 51 -74 26 -49 48 -64 48 -33 0 20 -10 36 -96 142 -169 211 -225
336 -254 571 -8 69 -15 300 -11 367 1 8 18 12 52 12 28 0 104 12 168 27 91 21
128 35 173 65 31 21 65 38 76 38 14 0 27 19 51 72 17 39 35 67 39 62 5 -5 14
-34 22 -64z m-810 -1139 c0 -5 20 -51 44 -102 24 -52 49 -112 56 -134 21 -69
56 -117 149 -209 107 -104 113 -120 88 -242 -43 -207 -48 -224 -70 -224 -52 0
-129 35 -167 76 -37 41 -38 43 -44 140 -7 127 -37 427 -42 436 -3 4 -9 42 -14
85 -5 43 -12 105 -16 137 -5 44 -4 57 4 52 7 -4 12 -11 12 -15z m1255 -58 c4
-37 15 -99 25 -137 17 -67 30 -158 35 -251 1 -22 5 -89 8 -150 4 -68 4 -98 -2
-80 -16 57 -40 180 -46 240 -3 33 -12 105 -20 160 -21 150 -30 299 -18 292 6
-4 14 -37 18 -74z m-111 41 c20 -53 -11 -301 -56 -443 -10 -31 -12 -33 -24
-17 -17 23 -34 12 -34 -22 0 -56 -63 -258 -112 -360 -58 -123 -94 -214 -108
-277 -13 -56 -26 -218 -40 -465 -12 -220 -26 -365 -42 -427 -7 -30 -7 -51 2
-78 11 -35 11 -39 -13 -63 -25 -25 -26 -25 -100 -12 -41 7 -80 16 -87 20 -9 6
-11 25 -6 66 3 33 10 138 16 234 5 96 14 222 20 280 6 58 13 218 15 355 4 258
22 421 62 558 12 42 13 61 5 69 -8 8 -13 3 -17 -18 -4 -16 -14 -54 -22 -84
-47 -175 -54 -225 -58 -425 -5 -270 -13 -449 -31 -640 -7 -88 -16 -189 -19
-225 -10 -127 -17 -160 -30 -160 -7 0 -16 12 -19 26 l-7 27 -27 -26 c-21 -19
-34 -24 -60 -20 -18 3 -38 13 -44 23 -7 11 -19 15 -34 12 -24 -4 -24 -3 -24
77 0 45 6 146 14 224 22 213 27 290 31 427 7 284 24 434 75 672 43 195 44 188
-40 244 -71 46 -115 98 -140 164 -7 19 -20 50 -28 68 -22 49 -6 57 58 32 103
-41 207 -58 330 -55 68 2 131 9 155 18 22 7 45 12 52 10 6 -2 72 25 146 61
108 53 142 75 178 115 49 55 54 58 63 35z m136 -714 c5 -36 10 -84 10 -107 l0
-42 -52 -16 c-73 -20 -185 -35 -219 -28 -48 9 -53 25 -29 89 11 32 30 70 41
85 56 80 114 247 139 404 6 39 14 81 17 95 5 22 55 -239 93 -480z m-881 -1471
c15 -44 14 -71 -5 -98 l-16 -22 -24 22 c-13 12 -26 38 -30 58 -3 20 -8 44 -11
54 -4 14 2 17 35 17 36 0 41 -3 51 -31z m123 4 c13 -12 18 -30 18 -70 0 -47
-2 -53 -21 -53 -19 0 -21 -4 -15 -32 3 -18 9 -57 12 -87 2 -31 10 -82 16 -114
7 -38 8 -61 1 -68 -6 -6 -39 -7 -81 -3 l-72 7 0 34 c0 51 41 245 57 270 8 12
17 47 20 77 5 48 9 56 26 56 11 0 29 -7 39 -17z m156 -21 c10 -7 10 -19 2 -58
-18 -80 -60 -80 -55 0 4 63 19 79 53 58z m852 -402 c0 -5 -7 -10 -15 -10 -8 0
-15 5 -15 10 0 6 7 10 15 10 8 0 15 -4 15 -10z"/>
<path d="M9370 5035 c-43 -32 -50 -43 -49 -80 l0 -30 19 36 c18 35 71 66 90
54 18 -11 22 19 5 32 -25 17 -26 17 -65 -12z"/>
<path d="M9097 5010 c-45 -28 -66 -54 -54 -66 3 -3 26 11 52 30 71 55 95 47
110 -37 8 -41 19 -47 35 -18 17 32 11 66 -15 95 -32 35 -69 34 -128 -4z"/>
<path d="M9056 4859 c-14 -17 -26 -43 -26 -58 0 -27 1 -27 64 -28 35 -1 74 -7
86 -13 18 -10 42 -7 29 3 -32 26 -103 67 -115 67 -21 0 -17 18 7 30 16 9 26 8
45 -5 13 -8 24 -20 24 -25 0 -6 7 -10 15 -10 20 0 19 12 -6 44 -31 39 -88 37
-123 -5z"/>
<path d="M9355 4866 c-17 -12 -21 -27 -23 -107 -2 -51 -5 -97 -8 -101 -9 -15
-45 -8 -75 14 -26 19 -31 20 -39 8 -13 -21 -12 -26 6 -44 9 -10 33 -16 60 -16
60 0 84 25 84 85 0 39 4 47 25 57 19 8 31 8 51 -1 40 -18 41 -5 4 34 -25 25
-31 38 -23 46 20 20 53 -1 77 -49 20 -38 26 -44 31 -29 11 28 -25 87 -62 103
-41 18 -83 18 -108 0z"/>
<path d="M9385 4370 c19 -71 27 -75 23 -10 -2 42 -7 56 -20 58 -15 3 -15 -1
-3 -48z"/>
<path d="M9223 4375 c-51 -21 -63 -49 -63 -142 0 -97 5 -103 99 -103 l60 0 12
43 c9 32 9 56 0 102 -20 99 -49 125 -108 100z"/>
<path d="M9625 4275 c-7 -59 -3 -86 9 -74 11 11 18 139 8 139 -6 0 -14 -29
-17 -65z"/>
<path d="M9210 3824 c0 -17 22 -14 28 4 2 7 -3 12 -12 12 -9 0 -16 -7 -16 -16z"/>
<path d="M9310 3371 c0 -6 5 -13 10 -16 6 -3 10 1 10 9 0 9 -4 16 -10 16 -5 0
-10 -4 -10 -9z"/>
<path d="M9386 3221 c-3 -5 0 -14 8 -20 10 -9 15 -8 19 3 9 22 -15 37 -27 17z"/>
<path d="M12650 5465 c0 -21 -8 -27 -57 -42 -44 -13 -52 -18 -34 -21 36 -6
109 18 114 37 3 9 8 24 12 34 5 13 2 17 -14 17 -16 0 -21 -6 -21 -25z"/>
<path d="M9480 5458 c-36 -5 -74 -9 -85 -9 -46 -2 -358 -63 -457 -90 -155 -43
-315 -96 -375 -124 -138 -65 -160 -75 -188 -81 -28 -6 -73 -25 -175 -73 -25
-12 -83 -44 -130 -71 -47 -27 -146 -81 -220 -121 -208 -110 -299 -169 -264
-169 11 0 192 99 332 182 73 43 135 78 138 78 2 0 4 -6 4 -12 -1 -13 -55 -50
-120 -83 -40 -20 -255 -144 -380 -220 -47 -28 -110 -61 -140 -74 -30 -13 -77
-37 -104 -54 -118 -75 -227 -130 -349 -178 -56 -21 -106 -39 -111 -39 -6 0
-39 -13 -73 -29 -56 -27 -165 -61 -293 -92 -25 -6 -58 -15 -75 -20 -16 -6 -97
-21 -179 -35 -219 -36 -320 -60 -379 -89 -64 -33 -61 -29 -46 -53 17 -27 2
-77 -52 -167 -48 -82 -86 -125 -109 -125 -19 0 -138 -120 -216 -220 -32 -41
-88 -106 -124 -144 l-65 -68 -60 -1 c-70 0 -110 17 -143 63 -35 46 -37 86 -11
176 15 51 23 107 23 159 1 119 -31 175 -189 332 -79 79 -131 139 -146 170 -13
26 -33 62 -44 80 -12 17 -37 73 -55 125 -44 125 -45 181 -2 272 33 71 38 86
24 86 -12 0 -47 -64 -72 -134 -36 -94 -26 -161 40 -293 94 -186 161 -274 301
-394 79 -68 109 -134 109 -237 0 -58 -6 -97 -20 -134 -27 -71 -26 -134 3 -189
29 -55 105 -109 153 -109 19 0 34 -4 34 -8 0 -12 -30 -37 -65 -54 -21 -10 -29
-20 -28 -35 2 -14 -10 -30 -33 -48 -45 -34 -57 -24 -19 15 49 51 14 36 -60
-26 -41 -34 -152 -119 -178 -137 -12 -8 -19 -18 -16 -21 8 -8 88 44 148 96 41
36 71 48 71 30 0 -4 -35 -52 -78 -105 -59 -75 -113 -126 -229 -220 -84 -67
-190 -145 -235 -173 -46 -29 -125 -78 -176 -110 -51 -33 -106 -66 -121 -74
-15 -9 -50 -32 -77 -52 -70 -52 -246 -139 -409 -202 -77 -30 -162 -63 -190
-75 -27 -11 -108 -43 -180 -72 -71 -28 -139 -59 -150 -70 -13 -11 -29 -16 -42
-13 -12 4 -32 -1 -45 -10 -12 -9 -32 -16 -43 -16 -11 0 -44 -11 -73 -25 -30
-14 -62 -25 -72 -25 -10 0 -23 -6 -29 -14 -16 -19 8 -37 40 -30 48 11 215 67
244 82 17 9 57 23 90 33 83 24 145 47 177 64 14 8 31 15 37 15 43 0 -50 -69
-189 -140 -47 -24 -115 -59 -151 -77 -128 -66 -172 -119 -144 -174 12 -23 13
-38 6 -67 -18 -64 -131 -233 -235 -350 -33 -38 -69 -78 -78 -90 -17 -21 -147
-111 -254 -175 -33 -20 -87 -43 -120 -51 -229 -55 -279 -77 -313 -141 -20 -37
-31 -47 -74 -61 -44 -15 -60 -15 -137 -4 -125 18 -243 -4 -294 -55 -26 -26
-20 -73 13 -106 35 -34 57 -37 66 -8 5 16 10 18 21 8 8 -6 14 -22 14 -35 0
-14 8 -25 20 -29 28 -9 40 2 40 33 0 51 116 118 167 97 16 -6 15 -8 -6 -16
-13 -5 -22 -11 -19 -14 7 -7 560 15 572 23 6 3 58 10 116 14 190 13 245 18
275 29 16 5 77 12 135 15 102 5 234 30 226 43 -2 3 -66 3 -143 -1 -76 -3 -217
-9 -313 -13 -97 -3 -211 -10 -254 -14 -44 -4 -80 -3 -83 2 -8 14 29 58 65 77
22 12 69 20 150 25 86 6 111 10 93 16 -13 5 -45 6 -72 3 -41 -6 -50 -4 -56 12
-5 13 4 27 35 55 67 59 218 159 241 159 28 0 26 -14 -4 -34 -14 -9 -25 -21
-25 -28 0 -19 69 -1 102 27 17 14 37 24 44 21 7 -3 29 0 48 5 30 8 35 13 27
26 -6 12 -1 31 20 68 32 57 72 168 83 230 4 22 15 58 26 80 10 22 26 62 37 90
16 42 23 50 50 56 18 3 59 30 92 58 46 40 65 50 83 46 19 -5 34 5 79 52 37 38
59 69 63 91 3 18 22 49 42 70 60 62 147 166 187 224 38 54 101 98 142 98 9 0
69 26 132 57 l115 57 17 -23 c10 -13 39 -78 65 -144 27 -67 58 -132 69 -144
11 -13 21 -33 22 -45 1 -21 8 -23 58 -26 76 -4 82 -16 61 -124 -33 -179 -66
-303 -95 -359 -42 -79 -37 -97 34 -134 40 -21 76 -52 121 -105 72 -86 114
-126 121 -118 3 3 -33 47 -80 99 -47 51 -85 102 -85 112 0 44 60 25 120 -38
62 -67 229 -193 285 -216 50 -21 74 -44 59 -58 -3 -3 -28 -6 -55 -5 -36 0 -69
11 -123 38 -41 21 -81 36 -88 34 -16 -6 58 -55 107 -72 53 -19 42 -31 -23 -28
-31 1 -75 -2 -97 -7 -22 -6 -186 -13 -365 -16 -360 -5 -492 -13 -484 -27 4 -5
25 -9 48 -7 71 3 117 -1 112 -10 -3 -5 -63 -12 -132 -16 -119 -7 -127 -6 -154
14 -31 23 -50 27 -50 11 0 -5 7 -10 15 -10 8 0 15 -4 15 -8 0 -5 -13 -9 -30
-9 -18 0 -30 6 -30 14 0 18 -88 17 -133 -2 -26 -11 -72 -15 -156 -15 -79 0
-155 -7 -223 -20 -57 -11 -140 -23 -186 -27 -45 -3 -85 -10 -88 -15 -3 -4 -24
-8 -47 -9 -39 0 -40 -1 -17 -11 16 -6 76 -8 170 -3 168 8 441 17 585 19 212 3
260 6 245 16 -8 5 -34 10 -58 10 -24 0 -41 4 -38 9 3 5 39 8 81 8 67 -1 74 -3
69 -19 -7 -22 23 -25 40 -4 18 23 75 31 82 12 8 -21 44 -21 44 0 0 13 6 15 32
9 44 -10 335 -7 473 5 154 14 618 3 670 -15 22 -7 54 -17 70 -21 27 -7 25 -9
-25 -14 -30 -3 -61 -1 -68 4 -8 6 -17 4 -25 -6 -7 -10 -36 -18 -72 -22 -134
-13 -313 -41 -322 -49 -16 -17 12 -15 148 7 79 13 151 24 159 25 157 11 432
22 444 18 14 -5 15 -11 6 -27 -18 -33 22 -25 48 9 20 27 27 29 114 36 141 10
295 14 598 14 349 1 620 11 620 22 0 5 -100 8 -222 7 -415 -2 -1126 19 -1144
33 -9 8 -166 27 -231 29 -7 0 -13 6 -13 13 0 26 257 72 319 57 31 -8 40 -30
12 -30 -39 0 -30 -18 12 -24 53 -8 24 -7 402 -7 176 1 372 -1 435 -4 63 -3
167 -2 230 2 74 5 172 3 275 -5 105 -8 167 -9 180 -3 16 8 10 10 -30 10 -47 1
-48 2 -32 18 16 16 47 18 340 19 286 1 559 14 610 30 10 3 17 10 15 16 -4 11
-133 13 -293 4 -55 -3 -217 2 -360 10 -143 8 -341 17 -440 20 -99 3 -223 9
-275 13 -52 5 -117 5 -145 2 -49 -7 -48 -7 35 -14 47 -4 150 -10 230 -13 141
-6 190 -17 190 -44 0 -6 -130 -10 -352 -11 -194 0 -387 -5 -428 -10 -41 -6
-171 -13 -289 -16 l-214 -5 -39 42 -38 43 -118 -6 c-64 -3 -139 -12 -167 -21
-48 -15 -54 -14 -154 11 -154 38 -264 95 -411 212 -68 54 -126 104 -128 109
-2 6 11 18 27 27 37 18 38 35 10 103 -20 49 -21 52 -4 144 9 51 19 138 22 193
4 85 2 109 -16 160 -12 33 -21 84 -21 116 0 82 -25 114 -130 166 -87 43 -178
122 -164 144 3 6 27 19 51 30 25 11 63 33 83 49 21 17 41 30 45 30 4 0 31 20
60 45 48 42 59 46 131 55 52 7 81 7 88 0 5 -5 21 -10 33 -10 13 0 86 -15 161
-34 75 -19 180 -42 232 -51 52 -9 114 -21 137 -27 34 -8 53 -7 105 10 35 11
76 23 91 26 16 4 32 17 39 32 12 25 42 38 75 32 23 -4 57 -133 78 -298 35
-264 35 -265 75 -311 35 -41 37 -42 69 -31 28 10 44 8 100 -10 36 -11 73 -25
81 -30 8 -4 29 -15 46 -23 17 -7 36 -21 44 -29 7 -9 18 -16 24 -16 7 0 39 -16
72 -37 55 -34 165 -94 326 -178 37 -19 77 -35 88 -35 12 0 33 -6 48 -14 38
-19 88 -27 237 -36 158 -11 251 -24 305 -46 34 -14 40 -21 40 -45 0 -37 35
-41 51 -5 9 19 8 32 -7 62 -29 59 -68 75 -228 96 -129 17 -186 35 -186 57 0
16 31 34 73 42 23 5 66 13 96 18 69 13 99 6 107 -25 4 -16 16 -26 33 -30 14
-3 34 -8 44 -11 10 -2 36 -29 59 -59 22 -30 46 -53 52 -51 6 2 11 30 11 67 0
53 -4 65 -23 79 -12 9 -38 28 -57 42 -27 21 -52 29 -103 33 -57 6 -88 2 -207
-28 l-140 -35 -58 29 c-31 17 -66 30 -77 30 -21 0 -196 76 -285 124 -28 14
-55 26 -62 26 -7 0 -48 30 -92 67 -43 38 -110 93 -149 125 -66 54 -80 71 -194
250 -15 24 -32 50 -37 58 -6 8 -25 49 -44 90 -19 41 -57 103 -85 136 -29 34
-52 68 -52 76 0 18 -113 38 -215 38 -40 0 -85 4 -98 9 -25 10 -182 24 -252 24
-116 -2 -305 11 -305 19 0 6 26 37 58 70 l58 60 68 4 c38 2 89 13 114 24 24
11 53 20 63 20 10 0 49 12 86 26 37 14 83 30 101 35 18 6 70 29 115 53 78 40
86 42 167 42 84 -1 86 -1 170 -53 47 -28 115 -78 150 -110 36 -32 97 -83 135
-113 39 -29 97 -79 130 -110 33 -31 76 -65 95 -75 19 -10 41 -23 49 -29 16
-13 176 -72 236 -87 120 -31 412 -38 520 -13 39 8 97 20 130 25 33 5 69 13 80
18 11 5 52 13 90 19 39 5 86 15 105 22 242 90 361 142 410 179 19 14 42 31 51
36 9 6 27 17 40 26 13 9 66 42 118 74 73 46 106 74 150 129 31 39 77 91 102
116 66 64 93 104 127 190 59 149 62 169 57 375 -2 117 -10 221 -19 271 -21
108 -80 330 -98 374 -21 48 -87 150 -97 150 -41 0 -115 -95 -171 -218 -21 -48
-60 -125 -86 -172 -25 -47 -67 -123 -92 -170 -41 -77 -114 -170 -134 -170 -17
0 -6 29 56 155 35 72 69 148 77 169 9 25 38 61 79 99 74 68 63 69 -70 2 -79
-40 -210 -124 -369 -237 -169 -119 -429 -251 -566 -286 -22 -5 -71 -19 -110
-31 -38 -12 -104 -26 -145 -32 -41 -5 -96 -17 -121 -25 -36 -11 -92 -14 -245
-13 -429 5 -502 4 -589 -9 -49 -8 -117 -22 -151 -33 -58 -18 -104 -25 -104
-14 0 5 11 27 31 65 5 8 45 73 90 143 85 135 138 250 139 304 0 35 20 60 53
68 12 3 87 21 167 40 80 19 159 35 177 35 163 0 739 206 974 347 46 28 192
109 324 181 132 71 290 160 350 197 254 156 503 290 636 340 38 15 71 31 75
36 24 40 313 122 559 159 28 4 75 12 105 18 30 6 100 16 155 22 114 13 135 18
135 31 0 10 -29 10 -120 -3z m-1235 -388 c-3 -5 -11 -10 -16 -10 -6 0 -7 5 -4
10 3 6 11 10 16 10 6 0 7 -4 4 -10z m-125 -69 c0 -13 -28 -22 -35 -11 -3 4 1
11 7 13 20 8 28 8 28 -2z m262 -618 c21 -25 54 -117 79 -221 11 -48 30 -125
41 -172 22 -93 30 -320 15 -440 -27 -226 -60 -294 -222 -455 -183 -183 -355
-290 -639 -395 -364 -134 -516 -174 -724 -190 -123 -10 -262 -1 -302 19 -8 5
-30 11 -49 15 -72 13 -254 114 -346 191 -49 41 -119 99 -154 127 -34 29 -82
70 -105 90 -54 47 -198 131 -278 163 -46 17 -48 37 -8 75 56 52 36 120 -51
178 -28 18 -49 38 -46 45 3 11 63 34 172 66 29 8 156 11 450 9 484 -3 606 6
777 56 151 44 369 122 433 153 57 29 180 113 275 188 36 28 83 62 104 75 22
13 62 43 88 67 62 54 108 80 108 59 0 -8 -27 -61 -60 -118 -33 -57 -80 -143
-104 -193 -36 -74 -58 -103 -122 -166 -94 -89 -126 -114 -239 -179 -90 -52
-256 -123 -315 -135 -58 -11 -70 -16 -70 -27 0 -6 10 -7 28 -3 15 4 45 11 67
15 109 21 321 120 482 226 46 30 90 57 99 61 8 3 20 16 24 29 5 13 29 35 52
50 89 56 161 146 239 297 40 78 84 160 99 182 15 22 43 74 63 115 33 70 99
160 116 160 4 0 15 -8 23 -17z m-2824 -1012 c50 -26 102 -76 102 -98 0 -27
-35 -80 -67 -99 -15 -10 -52 -40 -80 -67 -58 -52 -113 -80 -241 -121 -81 -25
-197 -36 -190 -17 18 50 390 421 423 421 9 0 32 -9 53 -19z m-706 -706 c35 -8
86 -17 113 -20 50 -6 432 -16 556 -15 73 0 81 -6 72 -54 -7 -33 -58 -70 -130
-91 -28 -8 -53 -22 -57 -30 -12 -32 -225 -11 -406 40 -156 44 -239 57 -312 50
-37 -4 -68 -4 -68 0 0 15 143 135 162 135 4 0 35 -7 70 -15z m844 -103 c25
-17 73 -102 93 -167 13 -38 49 -125 82 -192 51 -107 68 -132 134 -197 41 -41
75 -81 75 -90 0 -30 -100 -44 -219 -29 -49 6 -54 9 -68 42 -22 52 -63 240 -63
288 0 53 -46 259 -66 295 -7 14 -14 33 -14 42 0 16 27 21 46 8z m-1425 -335
c135 -101 169 -150 169 -242 0 -54 -60 -89 -99 -58 -27 22 -171 312 -164 330
9 23 36 14 94 -30z m204 -137 c-3 -5 -10 -10 -16 -10 -5 0 -9 5 -9 10 0 6 7
10 16 10 8 0 12 -4 9 -10z m-820 -83 c-39 -46 -360 -357 -408 -394 -20 -15
-27 -29 -25 -45 3 -20 -2 -23 -30 -26 -33 -3 -34 -3 -27 27 9 40 -9 41 -30 1
-9 -17 -24 -30 -35 -30 -24 0 -50 26 -50 50 0 21 59 111 80 121 8 3 38 16 65
29 74 32 106 50 145 80 19 15 45 32 57 39 13 6 67 49 122 95 106 91 151 119
165 106 5 -5 -8 -28 -29 -53z m884 -113 c6 -15 17 -62 22 -105 9 -67 8 -95
-11 -200 -12 -67 -32 -146 -46 -176 -13 -30 -21 -59 -18 -64 8 -14 26 -11 39
8 11 15 13 15 24 -5 7 -13 10 -26 7 -31 -3 -5 -42 -14 -87 -21 -77 -12 -83
-12 -96 5 -27 38 -5 152 46 235 11 19 21 51 21 71 0 19 6 58 14 85 8 27 17 83
21 124 4 41 11 81 17 88 17 19 34 14 47 -14z m1725 -73 c104 -67 173 -102 303
-156 50 -20 106 -50 124 -65 30 -24 32 -29 20 -44 -12 -14 -25 -16 -79 -10
-68 7 -222 73 -327 139 -82 52 -208 127 -237 142 -37 19 -35 33 5 34 17 0 41
4 52 9 35 15 46 11 139 -49z m-2874 -175 c0 -3 -4 -8 -10 -11 -5 -3 -10 -1
-10 4 0 6 5 11 10 11 6 0 10 -2 10 -4z m3405 -82 c15 -6 15 -8 0 -24 -16 -17
-14 -19 37 -29 29 -6 66 -12 81 -13 15 -2 29 -7 30 -12 2 -9 -174 -9 -199 1
-17 6 -18 24 -2 58 11 25 24 30 53 19z m-3715 -54 c19 -10 18 -14 -14 -84 -19
-41 -41 -107 -50 -147 -29 -131 -57 -202 -99 -251 -56 -67 -89 -64 -89 8 0 40
-1 40 -36 16 -59 -41 -109 -29 -59 14 26 22 84 92 138 164 49 66 107 169 124
219 21 64 46 82 85 61z m-402 -554 c-1 -1 -35 -27 -74 -58 -114 -91 -223 -161
-278 -179 -31 -10 -55 -25 -61 -38 -16 -34 -125 -28 -125 6 0 9 8 22 18 30 35
27 129 81 163 92 19 6 106 49 194 96 124 66 161 81 163 69 2 -9 2 -17 0 -18z
m2435 -78 c60 -18 46 -33 -29 -30 -49 3 -75 10 -100 27 -31 21 -33 25 -17 33
11 7 32 5 62 -4 25 -8 63 -19 84 -26z m1653 2 c31 0 12 -16 -21 -17 -34 -1
-43 6 -28 21 4 3 13 4 21 1 7 -3 20 -5 28 -5z m184 -10 c0 -5 -13 -10 -29 -10
-17 0 -33 5 -36 10 -4 6 8 10 29 10 20 0 36 -4 36 -10z m-3425 -50 c3 -5 -3
-10 -15 -10 -12 0 -18 5 -15 10 3 6 10 10 15 10 5 0 12 -4 15 -10z m42 -43
c-2 -8 -54 -12 -168 -14 -90 0 -220 -4 -289 -7 -81 -4 -121 -3 -115 3 22 22
579 39 572 18z m1853 -12 c11 -13 5 -15 -41 -15 -52 1 -53 1 -29 15 33 19 55
19 70 0z m-3252 -7 c-5 -15 -97 -66 -121 -67 -32 -1 -12 23 42 51 57 30 85 36
79 16z m3354 0 c-8 -8 -17 -8 -34 0 -22 10 -21 11 12 11 26 1 31 -2 22 -11z
m-3242 -132 c0 -15 -37 -32 -48 -22 -6 6 27 35 41 36 4 0 7 -6 7 -14z m-325
-15 c-15 -15 -65 -25 -65 -13 0 13 17 20 50 21 15 1 20 -3 15 -8z m234 0 c19
-12 1 -21 -40 -19 -19 0 -58 -2 -86 -7 -44 -6 -53 -4 -53 8 0 9 6 18 13 20 21
9 151 7 166 -2z m-484 -11 c-3 -5 -12 -10 -20 -10 -8 0 -35 -18 -60 -40 -45
-39 -87 -51 -100 -29 -11 16 33 57 79 73 48 17 110 21 101 6z"/>
<path d="M12450 5360 c0 -5 15 -12 33 -15 41 -8 103 -3 100 8 -4 11 -133 18
-133 7z"/>
<path d="M10175 5108 c-4 -18 -14 -46 -22 -61 -8 -16 -13 -40 -10 -55 3 -25 4
-24 24 18 25 53 39 130 25 130 -6 0 -14 -15 -17 -32z"/>
<path d="M5100 4810 c0 -5 15 -16 34 -24 35 -15 66 -50 66 -76 0 -48 27 -98
93 -172 40 -44 91 -106 115 -137 24 -31 58 -72 77 -91 18 -19 45 -63 59 -98
23 -54 26 -75 24 -150 -5 -142 1 -302 11 -302 5 0 14 24 20 53 5 28 17 88 27
132 9 44 17 91 17 105 -2 113 -135 328 -295 474 -89 81 -133 145 -124 181 10
40 -21 91 -64 104 -46 14 -60 14 -60 1z"/>
<path d="M5057 4623 c-15 -14 -6 -23 24 -23 30 0 31 -1 25 -34 -9 -46 12 -63
54 -46 44 18 52 32 33 59 -25 37 -115 66 -136 44z"/>
<path d="M4960 4551 c-14 -27 -13 -51 3 -51 13 0 37 40 37 60 0 18 -29 10 -40
-9z"/>
<path d="M2792 4158 c-5 -7 -15 -33 -22 -58 -6 -25 -17 -54 -24 -65 -7 -11
-18 -39 -24 -62 -10 -33 -34 -64 -102 -131 -50 -48 -90 -95 -90 -105 0 -25 12
-21 45 13 16 17 34 30 41 30 7 0 26 11 42 25 32 27 83 33 100 12 6 -7 15 -31
20 -52 12 -50 62 -158 96 -208 54 -79 59 -95 40 -125 -9 -15 -28 -39 -41 -54
-33 -35 -26 -58 7 -26 14 13 34 37 46 53 l21 30 59 -54 c32 -30 59 -59 59 -65
0 -5 -18 -14 -40 -18 -61 -13 -165 -48 -215 -73 -87 -44 -143 -68 -159 -68 -9
0 -23 -5 -31 -12 -20 -16 -50 -26 -50 -17 0 12 23 32 36 32 7 0 42 21 78 48
35 26 84 60 108 76 25 17 38 31 30 34 -7 2 -60 -28 -118 -67 -59 -39 -152 -93
-208 -122 -132 -67 -280 -162 -284 -183 -5 -24 26 -20 88 14 92 50 200 100
300 140 52 21 136 58 185 83 80 39 237 87 289 87 46 0 156 -83 205 -155 48
-69 53 -97 29 -157 -37 -90 -84 -154 -203 -277 -89 -92 -112 -120 -99 -125 17
-7 126 66 199 134 22 21 61 49 86 64 40 23 50 25 72 15 44 -20 62 -80 60 -193
-3 -130 13 -158 106 -191 62 -21 101 -20 101 3 0 26 -25 46 -91 75 l-57 25 -7
99 c-7 110 -25 163 -68 199 -37 31 -62 30 -116 -5 -25 -17 -48 -28 -53 -25 -5
3 7 25 27 48 19 23 46 69 60 101 23 51 25 66 19 122 -6 59 -11 70 -61 131 -29
37 -68 77 -85 89 -56 39 -205 191 -244 249 -106 153 -174 282 -174 329 0 8 11
17 25 21 32 8 32 22 0 30 -27 7 -45 31 -45 60 0 11 6 15 19 11 21 -5 51 9 51
24 0 6 -11 25 -24 42 -22 29 -24 37 -15 72 20 76 21 85 16 85 -2 0 -9 -6 -15
-12z"/>
<path d="M5389 4067 c-55 -36 -98 -142 -63 -154 7 -2 14 14 18 38 8 48 61 109
96 109 19 0 21 -4 15 -30 -8 -35 1 -70 18 -70 7 1 22 9 35 20 27 23 24 44 -13
84 -30 32 -61 33 -106 3z"/>
<path d="M4060 3511 c0 -4 19 -48 41 -97 l42 -88 -6 -111 c-4 -60 -11 -126
-17 -145 -17 -59 -12 -164 11 -225 17 -46 30 -62 72 -90 50 -34 77 -43 77 -27
0 4 -19 16 -42 27 -83 38 -119 165 -85 298 8 34 21 96 27 137 11 71 10 80 -15
160 -15 47 -35 94 -45 105 -10 11 -23 30 -29 43 -11 22 -31 30 -31 13z"/>
<path d="M12096 3485 c-3 -8 -1 -15 3 -15 5 0 11 7 15 15 3 8 1 15 -3 15 -5 0
-11 -7 -15 -15z"/>
<path d="M12026 3390 c-25 -38 -46 -74 -46 -80 0 -16 29 1 35 21 4 10 17 22
31 25 19 5 23 11 18 26 -3 10 1 30 10 43 18 28 20 35 7 35 -4 0 -29 -31 -55
-70z"/>
<path d="M12212 3399 c-34 -17 -62 -35 -62 -40 0 -14 16 -11 60 12 22 11 66
23 97 26 50 5 61 2 77 -16 36 -40 17 -95 -46 -127 -16 -8 -57 -14 -98 -14 -70
0 -94 -14 -42 -26 15 -3 33 -8 41 -10 25 -8 115 25 153 56 62 51 60 111 -5
150 -47 29 -103 25 -175 -11z"/>
<path d="M12238 3343 c-19 -5 -24 -18 -9 -27 14 -9 63 12 56 24 -6 10 -17 11
-47 3z"/>
<path d="M12160 3309 c0 -5 5 -7 10 -4 6 3 10 8 10 11 0 2 -4 4 -10 4 -5 0
-10 -5 -10 -11z"/>
<path d="M12060 3204 c0 -3 11 -20 24 -37 38 -51 86 -148 86 -173 0 -39 -25
-27 -48 24 -26 56 -68 109 -78 99 -4 -4 0 -15 8 -24 9 -10 27 -40 40 -68 14
-27 52 -102 85 -165 33 -64 64 -131 68 -150 13 -60 95 -208 134 -243 42 -36
111 -134 134 -189 20 -49 52 -66 78 -42 24 22 24 35 -1 84 -23 44 -108 181
-138 220 -10 14 -40 63 -67 110 -26 47 -69 119 -96 162 -48 75 -76 155 -60
171 12 12 69 -39 105 -94 55 -82 117 -163 157 -204 22 -22 62 -66 91 -97 50
-57 78 -75 60 -40 -5 9 -13 40 -16 67 -7 43 -15 58 -65 110 -52 53 -132 159
-223 292 -43 64 -115 122 -195 159 -74 35 -83 38 -83 28z m179 -136 c58 -54
137 -155 128 -164 -5 -6 -217 204 -217 215 0 23 25 9 89 -51z m171 -538 c0 -5
-4 -10 -10 -10 -5 0 -10 5 -10 10 0 6 5 10 10 10 6 0 10 -4 10 -10z"/>
<path d="M12010 3160 c0 -5 5 -10 10 -10 6 0 10 5 10 10 0 6 -4 10 -10 10 -5
0 -10 -4 -10 -10z"/>
<path d="M4630 2844 c-139 -88 -203 -114 -277 -114 -25 0 -43 -5 -43 -11 0
-17 111 -2 174 22 173 68 296 143 296 180 0 16 -12 9 -150 -77z"/>
<path d="M10547 2061 c-10 -29 -16 -56 -13 -59 9 -8 37 68 34 92 -2 14 -9 5
-21 -33z"/>
<path d="M10521 1974 c0 -11 3 -14 6 -6 3 7 2 16 -1 19 -3 4 -6 -2 -5 -13z"/>
<path d="M10577 1983 c-4 -3 -7 -11 -7 -17 0 -6 5 -5 12 2 6 6 9 14 7 17 -3 3
-9 2 -12 -2z"/>
<path d="M10488 1919 c-10 -17 -18 -38 -18 -47 0 -8 -6 -23 -13 -31 -8 -9 -21
-35 -30 -59 -17 -42 -16 -43 7 -81 28 -45 73 -62 92 -37 6 9 14 34 18 56 3 22
24 74 46 116 23 42 38 79 35 82 -8 8 -31 -26 -67 -100 -22 -46 -39 -68 -50
-68 -23 0 -23 0 13 71 16 33 28 68 26 77 -2 11 -16 -9 -35 -50 -17 -36 -36
-69 -42 -73 -18 -11 -11 26 16 85 29 66 30 110 2 59z"/>
<path d="M3045 1930 c-3 -5 3 -10 14 -10 11 0 23 5 26 10 3 6 -3 10 -14 10
-11 0 -23 -4 -26 -10z"/>
<path d="M10646 1830 c-25 -60 -46 -115 -46 -122 0 -26 21 11 60 107 23 55 44
106 47 113 3 6 1 12 -5 12 -5 0 -31 -49 -56 -110z"/>
<path d="M2978 1903 c-16 -2 -28 -9 -28 -14 0 -14 34 -11 56 6 10 8 15 14 9
13 -5 0 -22 -3 -37 -5z"/>
<path d="M11097 1873 c-10 -17 -48 -155 -44 -160 3 -2 17 32 32 77 15 45 25
84 22 86 -3 3 -7 2 -10 -3z"/>
<path d="M11017 1653 c-8 -21 -18 -57 -22 -81 -11 -65 -29 -41 -21 29 3 33 2
59 -2 59 -12 0 -44 -103 -40 -131 2 -20 8 -24 36 -22 18 0 36 4 39 7 9 9 40
176 32 176 -4 0 -14 -17 -22 -37z"/>
<path d="M5415 860 c3 -5 13 -10 21 -10 8 0 14 5 14 10 0 6 -9 10 -21 10 -11
0 -17 -4 -14 -10z"/>
<path d="M3675 840 c3 -5 15 -10 25 -10 10 0 22 5 25 10 4 6 -7 10 -25 10 -18
0 -29 -4 -25 -10z"/>
</g>
</svg>
