<?xml version="1.0" standalone="no"?>
<!DOCTYPE svg PUBLIC "-//W3C//DTD SVG 20010904//EN"
 "http://www.w3.org/TR/2001/REC-SVG-20010904/DTD/svg10.dtd">
<svg version="1.0" xmlns="http://www.w3.org/2000/svg"
 width="1280.000000pt" height="834.000000pt" viewBox="0 0 1280.000000 834.000000"
 preserveAspectRatio="xMidYMid meet">
<metadata>
Created by potrace 1.15, written by Peter Selinger 2001-2017
</metadata>
<g transform="translate(0.000000,834.000000) scale(0.100000,-0.100000)"
fill="#000000" stroke="none">
<path d="M5440 8328 c-30 -5 -86 -11 -125 -12 -49 -2 -90 -11 -135 -30 -187
-79 -259 -111 -295 -136 -22 -15 -79 -46 -127 -68 -76 -36 -102 -55 -186 -139
-102 -102 -178 -206 -208 -283 -9 -25 -21 -49 -25 -55 -4 -5 -14 -39 -23 -75
-20 -80 -9 -233 22 -302 26 -59 122 -169 215 -248 119 -100 113 -124 -36 -135
-272 -19 -441 -58 -552 -128 -74 -46 -221 -192 -271 -269 -24 -37 -60 -107
-79 -155 -20 -49 -52 -113 -71 -145 -19 -31 -34 -68 -34 -83 0 -14 -7 -40 -16
-56 -8 -17 -13 -34 -9 -37 8 -8 511 -5 638 3 63 5 126 3 175 -5 76 -12 87 -12
382 14 59 6 841 28 1005 30 50 0 189 -1 310 -2 320 -4 804 15 950 37 39 5 255
12 482 14 317 3 416 7 428 17 22 18 171 8 216 -15 19 -10 51 -32 71 -49 21
-17 50 -41 65 -52 l28 -22 -55 -6 c-134 -15 -615 -21 -815 -11 -115 6 -248 10
-295 8 -47 -1 -191 -1 -320 -1 -354 2 -651 -1 -661 -7 -5 -3 -245 -8 -534 -10
-346 -3 -591 -10 -716 -20 -169 -14 -411 -20 -539 -13 -195 10 -1544 -1 -1665
-13 -102 -10 -273 -17 -279 -11 -3 2 7 22 21 43 l26 39 116 1 c64 0 134 2 156
4 22 2 168 3 324 4 240 0 287 3 307 16 20 13 32 14 64 5 27 -7 46 -7 59 -1 19
11 51 54 51 69 0 6 -59 7 -142 4 -157 -6 -285 -5 -423 3 -120 7 -151 13 -166
31 -6 8 -48 40 -91 70 -68 48 -88 57 -143 64 -35 4 -67 10 -72 13 -5 3 -69 20
-143 37 -181 43 -352 52 -425 22 -28 -11 -94 -33 -148 -48 -67 -20 -113 -41
-146 -65 -39 -30 -61 -38 -112 -44 -35 -4 -72 -14 -81 -22 -13 -12 -36 -14
-105 -10 -48 3 -153 0 -233 -7 -80 -7 -161 -12 -180 -13 -19 0 -85 -3 -146 -8
-69 -5 -177 -3 -290 4 -174 12 -264 8 -389 -16 -39 -8 -40 -9 -43 -56 l-3 -47
73 0 c40 0 240 -5 443 -11 204 -7 377 -12 385 -12 8 0 169 3 356 7 l341 7 32
-26 c61 -52 62 -52 -357 -53 -473 -1 -718 -9 -745 -24 -22 -11 -474 -13 -509
-2 -15 4 -18 -1 -18 -30 l0 -35 133 0 c72 0 175 -3 227 -6 52 -3 306 -8 565
-10 259 -1 525 -6 593 -10 106 -7 122 -6 122 8 0 19 -12 23 -83 32 -32 4 -57
11 -57 16 0 5 34 10 75 11 41 1 83 2 92 2 12 1 30 -21 52 -61 34 -62 63 -85
84 -64 7 7 2 41 -16 113 -14 57 -31 141 -37 188 -12 88 -26 115 -68 131 -13 5
-22 15 -20 22 5 15 177 73 283 93 73 15 90 15 186 1 58 -9 125 -23 150 -31 24
-9 53 -16 65 -16 33 0 84 -21 84 -33 0 -7 -14 -41 -31 -77 -67 -143 -129 -203
-129 -126 0 19 5 38 10 41 16 10 0 87 -22 110 -19 20 -19 20 -44 -8 -13 -15
-24 -34 -24 -41 0 -7 -16 -43 -35 -80 -32 -62 -35 -74 -35 -157 0 -87 0 -89
-24 -89 -13 0 -26 6 -29 13 -10 26 1 183 17 244 20 76 20 102 1 109 -46 18
-72 -66 -121 -381 l-6 -40 -13 25 c-8 14 -12 33 -9 42 3 10 -2 55 -11 100 -12
58 -15 105 -11 158 12 147 -39 126 -68 -28 -19 -106 -20 -128 -5 -138 7 -4 9
-27 5 -63 -13 -116 44 -186 165 -200 141 -18 210 22 276 157 20 42 39 79 41
82 2 3 52 6 110 6 124 2 508 12 731 19 84 3 157 8 163 11 5 3 148 8 316 10
228 3 340 0 435 -11 71 -8 133 -17 138 -20 4 -3 20 2 35 11 21 15 56 18 214
20 104 1 276 8 382 14 157 8 1032 23 1423 23 493 0 720 -1 890 -4 202 -4 382
-2 820 7 153 3 250 2 267 -5 18 -7 36 -28 52 -59 26 -52 40 -62 84 -62 34 0
112 35 112 50 0 6 6 10 13 9 6 -1 19 0 27 4 8 3 42 13 75 22 33 9 90 33 128
52 37 19 84 37 105 40 20 3 393 7 827 10 435 2 918 5 1075 6 157 1 290 5 296
9 6 4 50 3 99 -3 76 -8 309 -10 680 -5 61 0 187 -1 280 -3 94 -2 288 -3 433
-1 l262 2 0 39 0 39 -47 -6 c-27 -3 -53 -7 -60 -9 -7 -2 -33 3 -59 12 l-47 16
34 18 c19 10 40 21 47 25 7 3 16 3 20 -1 4 -4 1 -10 -5 -12 -24 -9 -13 -23 17
-23 20 0 30 5 30 15 0 8 9 15 19 15 33 0 51 11 51 32 0 19 -6 19 -222 14 -452
-13 -547 -15 -743 -21 -110 -4 -319 -1 -465 5 -146 7 -294 12 -330 13 -107 1
-603 -13 -627 -18 -12 -3 -42 -1 -65 4 -68 16 -341 22 -504 11 -82 -5 -259
-12 -394 -15 -135 -4 -298 -11 -363 -16 -65 -5 -123 -6 -129 -3 -5 3 -7 15 -5
26 14 52 -46 96 -84 62 -26 -23 -36 -16 -45 32 -12 61 -47 89 -112 89 -32 0
-59 8 -85 23 -21 13 -55 26 -77 29 -34 5 -44 1 -80 -29 -36 -31 -48 -36 -116
-42 -67 -5 -81 -3 -111 15 -30 19 -39 20 -86 10 -28 -7 -79 -25 -112 -41 -33
-16 -72 -32 -86 -34 -14 -3 -38 -15 -53 -27 -21 -17 -26 -27 -21 -48 l5 -26
-122 3 c-68 1 -134 5 -148 8 -14 4 -79 7 -145 9 -66 1 -127 3 -136 4 -11 1
-16 13 -17 44 -2 48 -68 185 -137 282 -23 33 -96 112 -162 176 -107 104 -126
118 -191 142 -40 15 -91 27 -112 27 -39 0 -189 32 -210 45 -6 4 -41 10 -78 13
-63 7 -67 8 -70 34 -3 22 10 39 69 95 60 57 80 86 126 178 48 95 56 120 63
190 7 85 -11 299 -28 331 -6 11 -27 63 -48 118 -37 97 -104 200 -144 221 -10
6 -35 29 -55 53 -25 29 -63 55 -118 82 -95 45 -143 59 -247 70 -41 5 -95 15
-120 22 -25 8 -92 20 -150 27 -58 7 -118 17 -134 22 -34 10 -60 10 -136 -3z
m490 -124 c94 -19 242 -88 320 -150 102 -80 157 -181 227 -414 22 -74 36 -146
39 -200 l6 -85 -43 -70 c-51 -84 -176 -231 -222 -263 -32 -21 -151 -74 -242
-108 -42 -16 -183 -47 -290 -64 -102 -16 -475 -14 -590 4 -258 41 -358 72
-434 135 -28 24 -54 53 -57 66 -3 13 -17 33 -30 46 -13 12 -24 27 -24 33 0 5
-28 66 -62 134 l-63 125 1 86 c1 63 7 102 23 146 13 33 26 77 31 98 10 52 51
108 145 202 74 74 90 85 205 136 188 85 302 114 500 130 63 5 140 13 170 17
100 14 311 12 390 -4z m295 -1344 c3 -5 -2 -53 -11 -107 -18 -110 -58 -189
-159 -319 -68 -88 -63 -83 -176 -168 -157 -118 -263 -166 -409 -186 -68 -9
-89 -8 -153 8 -105 27 -271 100 -318 140 -56 48 -144 169 -186 254 -51 104
-93 347 -60 349 37 3 104 -4 119 -12 12 -6 25 -6 38 1 15 8 31 6 67 -9 27 -11
89 -25 138 -31 50 -6 119 -20 154 -31 170 -52 511 -10 811 100 58 21 135 27
145 11z m465 -80 c0 -5 -2 -10 -4 -10 -3 0 -8 5 -11 10 -3 6 -1 10 4 10 6 0
11 -4 11 -10z m-225 -20 c16 -5 77 -16 135 -24 222 -33 218 -32 284 -90 90
-79 167 -156 202 -201 33 -43 144 -252 144 -273 0 -15 -16 -18 -158 -30 -63
-6 -119 -15 -125 -21 -6 -6 -30 -11 -53 -11 -24 0 -45 -3 -48 -8 -2 -4 -80 -7
-173 -5 -92 1 -235 -4 -318 -11 -82 -8 -208 -12 -280 -10 -71 1 -151 3 -177 3
-65 1 -63 20 10 70 61 41 114 104 175 207 20 33 47 66 61 72 25 11 122 133
148 187 9 17 18 44 22 60 4 17 12 47 17 69 l10 39 47 -7 c25 -3 60 -10 77 -16z
m-1843 -28 c11 -11 76 -171 93 -227 15 -52 96 -181 167 -266 21 -25 70 -70
108 -100 38 -30 70 -57 70 -61 0 -4 -96 -5 -212 -4 -117 2 -280 0 -363 -5 -82
-5 -231 -11 -330 -14 -99 -4 -220 -8 -270 -11 -308 -17 -342 -17 -348 1 -5 11
8 32 43 68 66 68 133 155 159 205 25 50 266 292 324 326 46 27 154 53 282 66
44 5 103 16 130 24 48 15 131 13 147 -2z m3976 -517 c38 -39 42 -49 42 -92 0
-87 -119 -274 -164 -257 -9 4 -15 14 -12 23 2 9 12 41 21 72 17 58 18 223 1
260 -10 23 20 51 48 44 11 -4 40 -26 64 -50z m-354 -6 c15 -12 26 -30 26 -45
0 -23 -2 -24 -74 -24 -40 0 -87 -3 -102 -6 -21 -4 -37 1 -57 17 -34 26 -27 37
41 61 68 24 133 23 166 -3z m534 -29 c5 -54 -14 -102 -58 -145 -22 -21 -42
-36 -45 -33 -4 3 0 32 8 64 9 33 18 81 22 107 6 47 7 48 38 45 29 -3 32 -7 35
-38z m-365 -5 c43 -54 49 -79 33 -138 -8 -29 -17 -68 -20 -88 -7 -39 -51 -89
-65 -73 -13 15 -22 142 -10 150 7 4 10 39 9 88 -2 44 -2 84 -1 89 3 17 28 4
54 -28z m-5808 -55 c43 -21 83 -66 70 -78 -4 -4 -55 -7 -113 -7 -120 0 -120 0
-86 82 14 33 18 35 50 30 20 -3 55 -15 79 -27z m5877 8 c-7 -7 -12 -8 -12 -2
0 14 12 26 19 19 2 -3 -1 -11 -7 -17z m408 -23 c0 -16 -17 -19 -44 -9 -26 10
-18 24 14 24 20 0 30 -5 30 -15z m3477 -45 c12 -7 26 -23 31 -34 5 -11 11 -15
15 -9 3 5 -3 20 -14 31 -16 17 -17 22 -5 22 19 0 39 -37 32 -57 -5 -12 -15
-14 -44 -8 -20 4 -188 6 -372 4 -805 -7 -1099 -9 -1155 -6 -33 1 -109 1 -170
1 -60 -1 -384 -2 -720 -3 -558 -1 -954 -12 -1062 -27 -51 -7 -55 5 -18 51 l25
30 552 -4 c800 -6 924 -6 1218 2 146 5 290 7 320 5 69 -3 97 -3 459 6 162 3
297 9 300 12 3 2 136 3 296 2 233 -2 294 -6 312 -18z m-3527 -8 c0 -15 -38
-44 -49 -37 -17 10 6 45 29 45 11 0 20 -4 20 -8z m3640 -8 c0 -2 -7 -4 -15 -4
-8 0 -15 4 -15 10 0 5 7 7 15 4 8 -4 15 -8 15 -10z m60 -6 c0 -16 -3 -19 -11
-11 -6 6 -8 16 -5 22 11 17 16 13 16 -11z"/>
<path d="M5501 8128 c-129 -18 -175 -61 -70 -66 142 -6 264 -23 306 -42 77
-34 176 -122 237 -210 54 -78 56 -84 57 -150 1 -48 -3 -75 -15 -91 -9 -13 -16
-31 -16 -41 0 -10 -27 -36 -62 -61 -205 -144 -362 -183 -611 -152 -137 17
-230 55 -310 127 -43 39 -48 49 -62 116 -19 93 -19 125 1 203 15 59 84 179
102 179 5 0 17 9 29 19 18 17 124 71 139 71 3 0 19 10 36 21 47 34 20 43 -52
19 -123 -41 -212 -101 -290 -192 -85 -99 -93 -114 -93 -181 0 -106 19 -172 65
-224 22 -26 45 -59 50 -75 24 -68 253 -148 424 -148 153 0 319 33 424 83 88
42 232 140 266 180 15 17 41 61 57 97 27 59 29 70 22 135 -9 100 -23 140 -67
190 -50 57 -242 168 -333 194 -46 13 -142 12 -234 -1z"/>
<path d="M5930 6735 c-58 -19 -115 -34 -127 -34 -36 -1 -74 -23 -71 -40 3 -13
18 -16 83 -14 70 2 175 15 228 30 26 7 51 61 36 79 -16 19 -28 17 -149 -21z"/>
<path d="M4907 6742 c-23 -25 -21 -39 4 -53 27 -14 178 -37 304 -45 88 -6 102
-4 115 10 19 24 5 31 -105 51 -49 9 -122 25 -161 36 -89 24 -136 24 -157 1z"/>
<path d="M5302 6510 c-14 -6 -32 -31 -47 -64 -13 -30 -29 -57 -34 -61 -6 -3
-11 -15 -11 -26 0 -10 -5 -28 -12 -38 -21 -35 5 -51 81 -51 36 0 95 -8 131
-18 58 -17 79 -18 187 -8 143 12 150 17 112 98 -21 44 -22 53 -11 94 25 93 9
105 -68 54 -69 -46 -105 -55 -137 -35 -19 13 -163 68 -167 64 -1 0 -11 -4 -24
-9z m74 -106 c68 -31 83 -35 109 -26 87 30 116 34 135 17 10 -9 24 -30 31 -46
17 -41 4 -51 -78 -60 -59 -6 -76 -4 -125 17 -41 17 -76 24 -123 24 -78 0 -86
10 -55 69 11 23 22 41 24 41 2 0 39 -16 82 -36z"/>
<path d="M9300 5849 c-36 -3 -120 -3 -187 -1 -81 3 -123 1 -123 -5 0 -16 31
-22 175 -34 109 -10 141 -9 200 4 51 10 64 17 50 22 -11 3 -27 10 -35 13 -8 4
-44 5 -80 1z"/>
<path d="M6979 5846 c-2 -3 -121 -6 -264 -7 -143 -1 -271 -6 -285 -10 -14 -4
-79 -12 -145 -18 -151 -12 -337 -40 -350 -52 -12 -12 35 -11 110 1 196 34 404
50 710 55 149 2 281 7 295 11 l25 7 -25 7 c-29 9 -65 12 -71 6z"/>
<path d="M5808 5753 c-21 -5 -24 -22 -5 -24 35 -4 87 9 87 21 0 10 -49 12 -82
3z"/>
<path d="M4171 5705 c-47 -18 -87 -25 -154 -26 -49 -1 -106 -6 -126 -11 -20
-5 -49 -9 -65 -9 -15 1 -35 -4 -43 -10 -8 -7 -33 -16 -56 -20 -90 -16 -250
-58 -261 -69 -19 -19 15 -31 79 -26 33 3 159 14 280 25 121 11 252 20 291 20
75 1 105 16 82 39 -9 9 2 18 43 37 30 13 66 25 80 25 15 0 37 9 50 20 l24 19
-67 1 c-36 0 -72 2 -80 4 -7 3 -42 -6 -77 -19z m4 -85 c3 -5 -1 -10 -9 -10 -8
0 -18 5 -21 10 -3 6 1 10 9 10 8 0 18 -4 21 -10z"/>
<path d="M9481 5709 c-62 -8 -1098 -15 -1681 -12 -151 0 -282 1 -290 1 -8 0
-96 0 -195 1 -99 1 -256 -1 -350 -4 -213 -6 -903 -15 -1522 -20 -260 -2 -477
-6 -482 -10 -5 -3 -74 -5 -153 -6 -79 0 -179 -4 -223 -9 -44 -5 -130 -12 -191
-15 -119 -7 -147 -16 -127 -36 10 -10 40 -10 140 1 70 7 200 14 288 16 87 1
191 5 230 8 76 6 532 16 960 22 149 2 324 7 389 12 66 5 160 5 210 2 50 -4
177 -6 281 -4 105 1 246 2 315 2 222 0 341 0 545 2 110 1 417 1 683 1 266 -1
486 1 491 3 4 3 50 1 101 -5 64 -6 100 -15 113 -27 15 -12 21 -14 24 -4 6 15
27 15 69 0 27 -10 37 -8 66 9 50 29 276 42 493 27 95 -6 127 -7 170 -5 73 3
378 -9 475 -19 52 -6 119 -20 147 -32 42 -17 57 -19 76 -11 13 6 29 8 35 4 7
-4 40 -4 74 -1 79 8 199 3 232 -9 18 -7 28 -6 36 4 22 26 4 43 -52 49 -226 25
-562 44 -868 51 -224 5 -392 12 -430 19 -8 2 -44 0 -79 -5z"/>
<path d="M6812 2200 c-59 -9 -250 -12 -706 -11 -254 0 -315 -2 -345 -15 -23
-10 -65 -15 -121 -14 -158 2 -1044 -9 -1155 -15 -60 -3 -265 0 -455 6 -306 9
-969 22 -1090 22 -393 -2 -1279 -15 -1290 -19 -31 -11 -1439 -16 -1492 -5 -29
5 -77 13 -105 16 l-53 7 0 -39 0 -38 158 -5 c192 -6 1011 -4 1452 4 179 3 507
9 730 13 603 10 620 10 823 19 124 5 187 4 187 -3 0 -6 -48 -13 -112 -17 -268
-18 -247 -23 87 -24 187 0 441 -6 565 -12 124 -6 232 -11 240 -11 451 4 915 0
956 -9 28 -6 84 -12 125 -13 56 -2 74 -6 77 -17 2 -13 -30 -15 -250 -12 -512
5 -1019 4 -1060 -3 -90 -13 -101 -17 -87 -26 8 -5 57 -7 109 -4 52 3 420 7
817 8 481 1 719 5 712 12 -5 6 -38 12 -72 15 -46 4 -63 9 -65 21 -3 14 14 17
120 22 210 11 383 15 650 18 191 1 260 5 268 14 17 20 141 26 557 26 295 0
398 -3 415 -12 18 -10 174 -13 663 -15 352 -1 710 -7 795 -13 193 -13 1010
-23 1010 -12 0 4 -46 8 -102 8 -218 1 -777 13 -865 19 -51 3 -93 10 -93 14 0
12 37 22 58 16 9 -3 253 -7 542 -10 775 -9 1235 -23 1478 -47 56 -5 107 -7
112 -4 11 7 332 6 405 -1 62 -6 325 -5 335 1 5 3 120 7 256 10 213 4 332 0
679 -19 28 -2 67 -6 88 -11 l37 -7 0 56 0 56 -32 1 c-18 0 -211 2 -428 5 -217
3 -428 6 -469 7 -51 2 -75 -2 -78 -10 -7 -18 -43 -16 -57 2 -9 12 -53 14 -286
13 -151 -1 -360 -1 -465 -1 -458 0 -603 0 -805 0 -621 -1 -1340 6 -1450 14
-69 4 -271 11 -450 14 -1253 24 -1403 26 -1468 15z m-255 -57 c6 -16 -166 -26
-299 -18 -127 7 -151 12 -142 27 9 14 437 5 441 -9z m-1194 -124 c-13 -13 -55
-8 -60 8 -3 6 8 13 24 15 33 4 52 -7 36 -23z"/>
<path d="M529 1970 c-81 -87 -109 -106 -109 -75 0 34 -33 11 -70 -47 -22 -35
-52 -81 -68 -103 -16 -22 -39 -62 -51 -89 l-21 -48 -87 2 c-116 3 -123 2 -123
-14 0 -10 25 -15 100 -21 113 -8 107 -1 86 -100 l-13 -60 -86 4 c-74 2 -87 1
-87 -13 0 -12 16 -16 87 -18 l88 -3 3 -52 3 -53 -51 0 c-67 0 -64 -24 4 -28
40 -3 48 -7 56 -28 7 -16 6 -32 0 -44 -8 -15 -5 -24 15 -44 14 -14 25 -31 25
-39 0 -17 39 -101 80 -172 39 -68 48 -89 43 -97 -13 -24 -187 6 -248 41 -16
10 -47 28 -67 40 -37 22 -38 22 -38 3 0 -15 21 -30 83 -60 45 -22 91 -44 102
-48 16 -7 13 -9 -17 -12 -20 -2 -49 3 -65 11 -15 8 -45 17 -66 21 l-38 7 3
-32 c2 -27 8 -34 33 -41 17 -4 44 -21 59 -37 l29 -30 -29 -6 c-73 -17 -94 -27
-94 -46 0 -16 7 -19 44 -19 32 0 68 12 134 45 49 25 96 45 104 45 22 0 58 30
68 56 17 43 36 39 90 -16 27 -28 50 -53 50 -56 0 -13 -142 -95 -181 -103 -26
-6 -59 -15 -75 -22 -60 -23 -135 -29 -157 -14 -30 21 -35 19 -57 -17 -14 -23
-20 -51 -20 -88 l0 -55 25 30 c13 17 24 34 25 39 1 24 38 46 106 62 40 10 77
15 80 11 3 -3 -14 -39 -38 -79 l-44 -73 -60 -8 c-32 -4 -67 -6 -77 -3 -14 3
-17 -3 -17 -34 l0 -38 173 0 c94 -1 180 2 190 4 15 5 17 19 18 107 0 131 11
163 69 198 25 15 55 28 66 28 23 1 353 -156 382 -182 9 -8 35 -20 57 -26 22
-6 58 -20 80 -32 79 -43 242 -83 441 -108 34 -5 66 -11 71 -14 26 -16 226 -37
388 -42 81 -2 132 3 195 17 137 31 202 49 252 69 26 11 91 28 143 39 53 11
106 25 118 31 12 7 69 49 127 94 157 122 158 123 320 115 74 -4 169 -4 210 -1
41 4 104 6 140 4 135 -5 190 -3 208 6 10 5 24 6 32 1 7 -5 48 -6 89 -3 42 3
195 4 341 3 146 -1 297 -2 335 -1 59 1 193 -9 335 -25 111 -12 160 -14 184 -4
46 17 21 27 -91 34 -59 4 -139 9 -178 12 -38 3 -74 9 -80 15 -13 13 354 6 414
-8 36 -9 49 -8 68 4 20 13 30 14 67 3 33 -9 143 -11 429 -7 211 2 389 7 396
11 6 4 11 13 11 20 0 16 95 25 320 32 85 2 178 9 205 14 64 13 261 24 478 28
72 1 106 5 102 12 -9 14 -433 -1 -695 -25 -30 -3 -143 -7 -250 -10 -179 -6
-199 -8 -242 -30 l-47 -23 -408 4 c-224 2 -519 6 -655 9 -214 4 -252 3 -290
-12 -38 -15 -87 -17 -403 -15 -208 2 -394 -2 -440 -8 -50 -6 -121 -7 -190 -2
-60 4 -132 5 -159 0 -26 -4 -108 -8 -181 -10 -162 -4 -175 3 -124 59 19 21 42
49 51 62 15 21 28 24 170 37 157 13 495 20 505 10 4 -3 12 -1 19 5 18 14 453
21 1429 21 554 0 774 3 761 10 -21 12 -1859 14 -2051 3 -60 -4 -157 -8 -215
-10 -58 -2 -210 -6 -339 -11 l-234 -7 7 28 c4 15 20 56 35 90 l28 62 74 7
c175 16 689 34 889 30 91 -1 408 -6 705 -10 1276 -16 1552 -14 1539 8 -4 7
-189 9 -503 7 -273 -2 -692 -1 -931 3 -414 7 -1207 9 -1335 3 -315 -14 -426
-15 -430 -3 -2 7 -1 28 3 47 l7 33 203 1 c111 1 202 4 202 8 0 9 -108 19 -201
19 -125 0 -101 17 34 24 141 7 1515 0 1597 -8 48 -5 52 -4 30 6 -22 11 -13 13
75 18 101 5 557 -2 961 -15 153 -5 228 -4 240 4 14 8 -21 11 -141 11 -88 0
-230 5 -315 10 -85 6 -312 10 -505 10 -424 -1 -1705 -8 -1974 -12 -148 -2
-195 0 -198 10 -3 7 4 12 16 12 12 0 21 5 21 10 0 6 -13 10 -30 10 -20 0 -30
5 -30 15 0 21 7 23 154 30 77 4 123 11 115 16 -8 4 -39 6 -69 4 -192 -15 -198
-15 -214 1 -9 8 -16 19 -16 24 0 4 114 10 253 13 138 3 405 12 592 21 187 8
358 16 380 16 30 0 36 3 25 11 -17 11 -502 4 -698 -11 -175 -14 -572 -14 -585
-1 -27 27 14 33 245 37 564 8 757 16 769 31 8 8 15 10 18 4 4 -6 21 -7 45 -1
21 4 123 12 228 16 329 12 181 23 -237 17 -381 -6 -402 -5 -430 13 -36 24
-193 25 -475 5 -185 -14 -257 -11 -246 8 9 14 83 22 112 11 16 -7 67 -8 132
-4 97 7 107 9 138 37 19 16 34 37 34 47 0 24 -47 80 -67 80 -9 0 -31 10 -50
21 -34 21 -39 21 -118 9 -126 -20 -253 -1 -239 34 3 8 0 24 -6 36 l-12 22 184
-3 c158 -3 187 -1 216 14 17 10 32 19 32 20 0 1 -106 2 -237 2 -215 0 -238 1
-260 18 -12 10 -23 22 -23 27 0 5 33 8 73 7 88 -2 490 13 496 19 14 13 -26 18
-167 18 -86 0 -222 -1 -302 -3 l-145 -4 -54 34 -54 34 44 7 c24 4 224 10 444
13 220 3 401 8 403 10 13 13 -82 15 -403 12 -198 -3 -463 -10 -590 -15 -126
-6 -311 -9 -410 -6 -438 11 -884 14 -889 6 -8 -14 166 -22 624 -28 228 -4 417
-8 419 -11 3 -2 -5 -14 -17 -26 -21 -21 -31 -22 -185 -23 -89 -1 -163 -6 -165
-10 -1 -5 51 -10 115 -12 65 -1 122 -7 127 -12 6 -6 -1 -21 -19 -40 -27 -29
-33 -30 -111 -30 -46 0 -86 -4 -89 -10 -4 -6 13 -10 43 -10 27 0 64 -3 81 -6
l32 -7 -18 -26 c-9 -14 -27 -47 -40 -73 -13 -27 -28 -48 -34 -48 -7 0 -34 16
-62 36 -28 21 -71 46 -95 56 -55 25 -243 57 -397 69 -66 5 -133 11 -150 14
-312 55 -412 66 -603 66 -78 0 -149 2 -157 5 -8 4 -15 15 -15 25 0 17 8 19 59
19 41 0 64 5 76 16 24 25 3 41 -61 46 -60 5 -74 16 -66 54 2 13 2 24 0 24 -3
0 -42 -41 -89 -90z m2263 -107 c15 -16 19 -26 12 -33 -14 -14 -186 -20 -201
-8 -7 6 -30 7 -50 4 -72 -12 -208 -24 -216 -19 -12 7 33 53 65 67 17 7 90 12
197 11 163 0 171 -1 193 -22z m51 -73 c44 0 42 -3 -72 -152 -12 -14 -21 -33
-21 -42 0 -19 21 -66 30 -66 3 0 20 -13 36 -29 17 -16 42 -33 57 -36 15 -4 35
-20 44 -36 10 -16 21 -29 25 -29 10 0 11 -30 1 -30 -5 0 -139 -3 -300 -6
l-291 -6 -38 35 -38 35 54 8 c30 4 75 8 100 10 228 10 348 18 365 25 32 12
-272 10 -364 -3 -81 -11 -85 -11 -102 10 -22 28 -49 29 -49 2 0 -27 -37 -26
-67 2 -13 12 -23 25 -23 28 0 10 141 22 279 25 l114 2 30 36 c16 21 38 37 49
37 11 0 16 4 12 11 -3 6 -1 29 7 51 11 35 11 44 -4 70 -9 16 -17 34 -17 38 0
9 100 19 135 13 11 -1 32 -3 48 -3z m-1683 -23 c290 -21 317 -24 430 -51 52
-13 121 -29 152 -35 66 -14 99 -41 52 -42 -16 0 -38 -4 -49 -9 -19 -8 -18 -9
5 -11 14 -1 50 -1 81 0 57 3 129 -19 129 -38 0 -6 9 -11 20 -11 11 0 20 -6 20
-13 0 -16 -155 -26 -429 -29 l-156 -1 115 -7 c63 -4 208 -5 322 -3 203 4 207
3 227 -19 12 -12 21 -27 21 -34 0 -8 -91 -13 -347 -18 -348 -6 -631 -13 -903
-21 -155 -5 -364 -7 -497 -6 l-83 1 0 50 c0 28 6 66 14 84 13 32 16 33 87 41
67 8 324 11 1082 14 172 1 258 4 255 11 -3 10 -1098 16 -1315 8 -46 -2 -83 -2
-83 0 0 21 37 105 52 119 44 41 391 49 798 20z m1270 10 c0 -7 -7 -23 -16 -35
-10 -15 -14 -38 -12 -65 3 -47 10 -44 -85 -30 -21 3 -51 0 -68 -7 -16 -7 -32
-10 -35 -7 -11 10 28 110 52 134 20 20 33 23 94 23 50 0 70 -4 70 -13z m205
-29 c31 -37 31 -53 1 -83 -30 -30 -73 -42 -97 -27 -10 7 -25 9 -34 6 -19 -8
-55 23 -55 46 0 33 105 102 142 92 10 -2 29 -18 43 -34z m675 -111 c56 -20 65
-26 65 -47 l0 -25 -165 4 c-91 2 -173 7 -182 12 -10 5 -50 14 -89 18 -77 10
-89 15 -71 33 10 10 102 17 342 26 19 1 64 -9 100 -21z m-871 -51 c10 -9 24
-16 31 -16 11 0 11 -3 2 -12 -10 -10 -17 -10 -31 -1 -12 8 -32 9 -57 3 -22 -4
-76 -10 -121 -13 -68 -4 -83 -2 -88 10 -3 9 3 25 12 36 16 18 27 19 126 14 80
-3 112 -9 126 -21z m490 -40 c16 -20 -2 -29 -39 -21 -29 6 -37 15 -23 28 11
12 50 7 62 -7z m779 -78 c-5 -15 -53 -23 -76 -12 -13 6 -11 9 13 14 48 12 67
11 63 -2z m-98 -12 c0 -10 -31 -15 -137 -20 -239 -11 -394 -13 -399 -5 -9 15
36 19 276 28 129 4 241 9 248 9 6 1 12 -4 12 -12z m127 -22 c-3 -3 -12 -4 -19
-1 -8 3 -5 6 6 6 11 1 17 -2 13 -5z m-1597 -39 c13 -14 21 -28 17 -31 -13 -14
-512 -48 -1014 -70 l-153 -7 0 57 0 56 108 0 c194 1 617 12 621 16 2 2 93 4
201 4 l197 0 23 -25z m-1196 -21 c9 -35 -12 -94 -34 -94 -26 0 -26 -16 1 -23
16 -4 20 -12 17 -34 -3 -24 -7 -28 -33 -26 -58 4 -310 2 -330 -2 -11 -3 -58
-9 -105 -15 -47 -5 -94 -12 -106 -15 -15 -5 -23 0 -32 20 -25 54 -18 65 46 67
31 1 68 2 82 3 14 1 53 2 88 3 34 1 62 6 62 10 0 5 -58 7 -128 4 -81 -3 -136
-1 -148 6 -23 12 -45 74 -33 93 9 15 186 25 466 24 175 0 182 -1 187 -21z
m2098 -52 c20 -15 38 -30 38 -34 0 -16 -87 -20 -533 -22 -261 -2 -480 -6 -486
-11 -26 -15 8 -20 91 -13 104 8 454 8 613 -2 66 -3 99 -7 73 -8 -27 -1 -48 -6
-48 -12 0 -16 78 -12 112 6 17 9 42 14 56 11 14 -3 36 2 48 10 26 17 75 14 82
-4 2 -9 -10 -13 -42 -13 -25 0 -46 -4 -46 -10 0 -5 22 -10 50 -10 40 0 51 -4
60 -21 24 -43 15 -45 -242 -52 -329 -9 -488 -18 -488 -28 0 -5 123 -6 273 -2
334 8 348 8 358 -8 7 -11 13 -11 36 2 17 10 38 13 53 9 22 -5 25 -11 25 -50
l0 -45 -135 -13 c-74 -7 -164 -17 -200 -22 -251 -36 -405 -44 -900 -47 l-505
-3 -90 30 c-82 27 -183 89 -185 113 -1 23 87 27 638 27 692 -1 621 -2 599 11
-9 5 -56 9 -105 8 -48 -2 -179 0 -292 4 -113 4 -257 9 -320 11 -63 3 -162 -1
-220 -7 -154 -16 -332 -10 -347 10 -7 9 -13 22 -13 28 0 14 239 42 430 50 244
10 452 24 459 31 3 3 -48 3 -114 0 -66 -3 -217 -10 -335 -16 -118 -6 -268 -15
-332 -21 -64 -6 -122 -8 -127 -4 -6 3 -11 17 -11 30 0 17 7 26 23 29 12 3 139
10 282 16 143 6 301 15 350 20 159 16 557 31 569 22 21 -17 67 -19 105 -6 23
8 110 16 213 19 95 4 223 10 283 14 132 10 148 8 197 -27z m-2078 -174 c19
-31 -6 -38 -144 -43 -77 -2 -138 -9 -144 -15 -8 -8 6 -11 49 -9 33 1 69 -3 80
-8 30 -16 87 -18 112 -5 26 15 50 15 66 2 7 -5 34 -28 60 -50 71 -59 250 -176
289 -189 80 -26 302 -63 403 -68 84 -4 125 -1 174 12 36 9 88 16 118 16 33 0
51 4 47 10 -3 6 2 17 12 25 17 14 16 14 -21 10 -157 -21 -433 0 -403 30 4 3
123 8 265 11 168 2 284 9 333 18 83 16 189 29 355 45 61 6 135 15 165 20 75
12 314 24 335 16 12 -4 14 -10 7 -19 -5 -6 -22 -34 -37 -62 -15 -27 -39 -62
-53 -77 -25 -27 -28 -28 -141 -29 -116 0 -236 -8 -406 -28 -49 -5 -177 -12
-283 -16 -106 -3 -203 -10 -215 -14 l-22 -8 23 -7 c31 -10 468 13 561 29 42 7
79 11 83 9 3 -2 80 0 169 6 105 6 167 6 173 0 13 -13 -21 -49 -89 -95 -51 -36
-51 -36 -181 -39 -194 -6 -546 -26 -556 -32 -4 -3 -8 -9 -8 -13 0 -8 7 -8 329
8 237 12 321 9 321 -14 0 -34 -151 -122 -262 -151 -49 -14 -104 -32 -121 -40
-16 -9 -69 -23 -116 -31 -256 -46 -520 -28 -845 57 -65 17 -137 38 -160 46
-22 8 -62 21 -88 29 -48 13 -310 146 -339 171 -8 8 -31 19 -50 25 -104 36
-225 140 -364 312 -50 63 -42 71 83 75 53 2 102 8 107 14 7 7 -34 9 -128 6
-139 -5 -139 -5 -150 19 -18 41 -39 38 407 59 43 2 80 5 82 7 2 1 26 0 55 -3
34 -3 56 -11 63 -22z m676 -258 c0 -5 -7 -10 -15 -10 -8 0 -15 5 -15 10 0 6 7
10 15 10 8 0 15 -4 15 -10z m-1310 -367 c0 -34 -37 -135 -53 -145 -17 -11 -85
-10 -91 1 -9 13 42 98 82 137 43 41 62 44 62 7z"/>
<path d="M2515 1700 c-9 -29 4 -40 33 -29 29 11 26 43 -5 47 -15 2 -23 -4 -28
-18z"/>
<path d="M730 1270 c0 -5 18 -10 40 -10 22 0 40 5 40 10 0 6 -18 10 -40 10
-22 0 -40 -4 -40 -10z"/>
<path d="M1978 1243 c6 -2 18 -2 25 0 6 3 1 5 -13 5 -14 0 -19 -2 -12 -5z"/>
<path d="M2300 1210 c0 -12 293 -13 355 -2 24 5 -41 8 -157 10 -125 1 -198 -2
-198 -8z"/>
<path d="M2728 1213 c7 -3 16 -2 19 1 4 3 -2 6 -13 5 -11 0 -14 -3 -6 -6z"/>
<path d="M2800 1090 c-58 -5 -176 -11 -262 -14 -86 -4 -215 -11 -285 -16 -70
-5 -168 -10 -218 -10 -49 -1 -99 -6 -110 -11 -13 -6 21 -8 100 -4 66 3 230 10
365 15 135 6 297 14 360 20 63 5 130 10 148 10 17 0 32 5 32 10 0 6 -6 9 -12
9 -7 -1 -60 -5 -118 -9z"/>
<path d="M1710 1040 c0 -6 37 -10 93 -9 64 1 83 4 62 9 -45 12 -155 12 -155 0z"/>
<path d="M9990 2051 c41 -4 89 -4 105 0 17 4 -17 7 -75 6 -103 0 -103 0 -30
-6z"/>
<path d="M7211 2030 c-30 -4 -158 -11 -285 -14 -426 -10 -616 -19 -616 -28 0
-5 48 -7 113 -4 61 3 258 8 437 11 528 8 744 16 755 26 5 5 -20 9 -66 9 -42 0
-123 2 -180 4 -57 3 -128 1 -158 -4z"/>
<path d="M8290 2031 c-197 -8 -141 -11 320 -15 300 -4 428 -13 403 -29 -7 -5
-16 -6 -20 -4 -5 3 -21 -1 -38 -8 l-30 -13 30 -1 c17 -1 57 4 90 9 60 10 526
24 705 20 52 0 111 -5 130 -10 51 -13 241 -22 254 -11 27 21 130 25 574 26
259 0 472 3 472 6 0 12 -494 24 -855 21 -943 -8 -1296 -8 -1360 -1 -108 11
-492 17 -675 10z m1825 -41 c8 -13 -35 -13 -55 0 -11 7 -7 10 17 10 17 0 35
-4 38 -10z"/>
<path d="M7680 2020 c0 -11 152 -11 325 0 97 6 84 7 -107 8 -140 1 -218 -2
-218 -8z"/>
<path d="M11228 2003 c6 -2 18 -2 25 0 6 3 1 5 -13 5 -14 0 -19 -2 -12 -5z"/>
<path d="M8368 1982 c-82 -1 -148 -7 -148 -11 0 -9 290 -4 299 5 9 8 -7 9
-151 6z"/>
<path d="M7828 1969 c-80 -5 -116 -13 -140 -27 -36 -21 -119 -42 -172 -42 -33
0 -136 -45 -136 -60 0 -4 -16 -17 -35 -29 -25 -14 -35 -27 -35 -45 0 -14 -4
-28 -10 -31 -5 -3 -10 -30 -10 -59 0 -67 -9 -75 -68 -64 -26 5 -83 11 -127 14
-70 5 -83 4 -104 -13 -37 -30 -23 -65 36 -95 44 -21 58 -23 185 -20 136 3 138
3 163 -22 32 -32 33 -62 2 -70 -37 -9 -494 -5 -592 6 -49 5 -124 11 -165 13
-41 2 -113 7 -158 11 -68 5 -95 3 -140 -12 -44 -15 -84 -19 -174 -17 -65 0
-118 -3 -118 -8 0 -10 -2 -10 65 -15 284 -21 624 -33 955 -35 65 0 192 15 223
27 20 8 58 14 82 14 41 0 45 -2 45 -24 0 -15 -14 -37 -37 -58 -21 -19 -43 -43
-49 -54 -10 -17 -24 -19 -170 -19 -87 0 -199 2 -248 5 -66 4 -90 2 -93 -8 -4
-9 8 -12 39 -12 23 1 136 -2 251 -6 148 -5 207 -10 207 -18 0 -13 -32 -13
-357 -1 -94 3 -163 2 -163 -4 0 -18 28 -31 66 -30 21 1 111 1 199 -1 88 -1
165 -1 170 0 6 1 26 2 45 1 l35 -1 2 -103 1 -103 -296 -12 c-164 -7 -498 -15
-745 -18 -246 -4 -450 -10 -453 -15 -6 -11 1062 -1 1236 11 208 15 264 13 283
-8 10 -10 17 -25 17 -33 0 -31 123 -166 213 -234 136 -103 134 -105 -75 -100
-917 22 -1344 29 -1364 21 -53 -20 41 -28 444 -37 235 -5 481 -9 547 -9 66 1
125 1 130 1 6 -1 37 -3 70 -6 124 -11 350 -5 374 10 6 3 54 -14 105 -39 51
-25 102 -46 112 -46 11 0 60 -13 109 -29 121 -40 264 -73 355 -82 41 -4 108
-12 149 -19 71 -11 197 -9 311 5 82 10 285 9 365 -2 56 -8 86 -19 145 -55 67
-40 193 -88 233 -88 8 0 17 -6 20 -14 7 -19 73 -10 116 15 38 23 78 18 46 -5
-17 -12 -14 -14 29 -20 26 -4 63 -18 83 -32 20 -13 40 -24 44 -24 5 0 6 -6 4
-13 -4 -8 7 -12 32 -13 21 -1 41 -8 48 -18 7 -9 19 -16 27 -16 9 0 21 -7 28
-15 13 -16 60 -21 60 -7 0 11 -54 62 -65 62 -17 0 -135 84 -135 96 0 7 11 15
25 18 25 6 31 21 17 42 -15 24 -125 45 -246 48 -81 1 -154 9 -221 24 -187 41
-246 52 -288 52 -76 0 -77 15 -5 49 72 34 110 37 263 21 140 -16 187 -26 201
-44 30 -41 276 -105 448 -116 115 -8 132 -12 169 -36 38 -25 43 -26 66 -13 14
8 27 22 29 32 5 23 -42 67 -72 67 -43 0 -129 38 -174 77 -41 37 -42 39 -32 73
10 37 66 90 135 131 34 20 44 49 14 40 -8 -3 -29 -5 -48 -5 -24 -1 -37 -7 -43
-21 -11 -26 -87 -68 -157 -89 -29 -9 -73 -27 -97 -40 -24 -13 -77 -32 -118
-42 -73 -17 -78 -17 -233 5 -87 13 -160 25 -162 27 -8 8 13 21 54 34 22 7 58
23 81 36 22 13 53 24 68 24 20 0 27 4 23 14 -6 14 38 54 103 93 19 12 59 45
89 73 90 84 119 97 246 104 212 12 440 16 454 7 23 -15 1 -32 -37 -30 -87 6
-383 -2 -378 -9 3 -5 243 -7 533 -6 290 1 578 -1 640 -6 61 -5 124 -5 140 0
53 16 -6 19 -462 25 -209 3 -387 8 -395 11 -13 4 -13 6 0 14 19 12 824 4 866
-8 45 -14 196 -13 191 1 -2 6 -19 15 -38 19 -47 11 -1290 15 -1466 4 -163 -9
-162 -10 -114 66 27 43 32 46 82 52 30 3 185 6 344 7 313 1 408 6 399 21 -4 6
-19 7 -35 4 -32 -6 -739 -10 -745 -3 -2 2 5 25 16 51 l21 46 622 -5 c1032 -9
1429 -14 1497 -19 142 -9 275 -9 278 0 1 5 -40 10 -90 11 -51 1 -201 7 -334
13 -132 6 -398 10 -590 10 -373 -1 -904 2 -994 4 -30 1 -127 3 -216 4 l-161 2
7 43 c3 23 9 47 13 53 4 7 149 13 419 18 524 10 586 12 738 20 239 14 496 26
620 30 362 12 466 17 503 25 43 10 133 8 231 -4 46 -6 56 -5 56 7 0 12 -26 16
-137 21 -193 10 -358 8 -427 -3 -32 -5 -165 -14 -295 -20 -300 -13 -388 -18
-525 -30 -99 -8 -498 -15 -601 -9 -45 2 -63 1 -120 -5 -22 -3 -105 -7 -185
-10 -80 -3 -161 -8 -180 -11 -19 -3 -48 -2 -64 3 -28 8 -30 11 -33 68 -6 115
-51 291 -85 332 -7 8 -8 16 -1 23 10 10 210 11 780 5 273 -4 344 -2 353 9 8
10 5 14 -12 18 -13 3 -270 4 -573 3 -302 -1 -562 1 -577 5 -15 4 -45 21 -66
39 -35 28 -42 30 -66 19 -19 -9 -26 -20 -26 -40 0 -15 -5 -31 -12 -35 -12 -8
-134 -17 -448 -33 -107 -6 -224 -15 -260 -20 -36 -5 -97 -9 -136 -9 -39 0 -76
-2 -82 -6 -5 -3 -68 -10 -138 -16 -119 -9 -328 -35 -484 -59 -36 -6 -92 -11
-125 -12 -33 0 -71 -5 -85 -10 -43 -15 251 -1 300 15 25 7 124 21 220 31 96 9
205 21 242 26 37 5 98 9 135 9 38 0 104 4 148 10 44 5 134 12 200 15 66 3 168
9 226 14 167 15 272 16 277 3 2 -7 -12 -34 -32 -60 -40 -56 -99 -88 -143 -79
-15 4 -69 -3 -119 -15 l-91 -21 -119 33 c-116 33 -123 34 -314 34 -189 0 -259
-6 -420 -40 -106 -22 -359 -83 -395 -95 -42 -14 -194 -23 -240 -15 l-37 7 7
47 c7 49 42 112 62 112 27 0 64 47 76 94 16 63 21 64 307 96 99 11 126 17 118
25 -7 8 -252 -22 -341 -41 -67 -15 -80 -15 -87 -3 -57 100 -101 134 -218 169
-45 14 -70 26 -64 32 5 5 111 12 236 15 125 3 228 9 230 12 6 9 -254 9 -376 0z
m1 -115 c103 -47 116 -73 87 -180 -15 -56 -36 -94 -77 -139 -18 -20 -29 -43
-31 -70 -4 -50 -13 -53 -188 -54 l-135 -1 -20 37 c-12 23 -37 45 -64 60 -40
21 -57 23 -182 23 -139 0 -194 10 -186 33 5 15 158 15 237 0 35 -7 59 -8 65
-2 6 6 13 54 16 108 9 153 43 188 204 208 130 15 205 9 274 -23z m2102 -272
c50 -99 64 -155 60 -242 -4 -65 -13 -80 -55 -81 l-31 -2 35 -6 c32 -5 35 -9
32 -36 -2 -16 -8 -34 -13 -39 -5 -6 -4 -15 2 -22 19 -23 0 -34 -59 -36 l-57
-1 45 -6 c38 -5 46 -10 49 -31 1 -14 -5 -39 -15 -57 -16 -30 -21 -33 -66 -33
-30 0 -47 -4 -43 -10 3 -5 19 -10 34 -10 36 0 42 -7 30 -39 -14 -36 -56 -78
-87 -86 -23 -6 -25 -8 -9 -16 14 -9 10 -16 -33 -54 -28 -25 -63 -51 -80 -60
-16 -8 -33 -21 -37 -29 -13 -22 -103 -88 -132 -96 -14 -4 -71 -4 -126 1 -171
13 -1198 8 -1283 -7 l-47 -8 65 -6 c36 -4 300 -4 588 -2 544 5 736 -1 729 -21
-2 -7 -30 -27 -63 -45 -55 -31 -63 -32 -128 -27 -64 6 -72 4 -135 -28 -85 -44
-146 -64 -257 -82 -219 -36 -513 4 -784 108 -64 25 -89 47 -51 47 11 0 23 5
26 10 4 6 -19 10 -63 10 -69 0 -159 29 -273 87 -42 21 -129 96 -129 111 0 15
151 19 289 8 82 -6 124 -5 147 3 20 7 40 8 55 3 13 -5 132 -12 264 -16 132 -4
321 -10 420 -13 185 -7 244 -7 330 0 28 3 65 5 83 6 32 1 47 21 15 21 -9 0
-25 8 -35 17 -16 14 -53 17 -308 18 -269 2 -313 5 -297 21 3 3 98 30 211 60
113 29 234 64 268 78 35 14 77 28 93 31 28 6 138 38 245 70 25 7 63 16 85 20
126 20 180 37 206 67 18 19 25 37 21 50 -6 23 -63 51 -86 42 -22 -9 -9 -24 20
-24 33 0 43 -28 17 -50 -11 -9 -58 -24 -104 -34 -191 -42 -333 -80 -484 -130
-271 -89 -448 -126 -598 -126 -93 1 -109 4 -182 34 -84 36 -111 60 -121 113
-6 28 -3 33 27 49 19 9 57 18 84 19 66 3 65 3 65 19 0 22 -30 28 -84 15 -78
-17 -96 -27 -114 -59 -11 -20 -25 -30 -41 -30 -27 0 -50 -25 -51 -56 0 -12 -7
-27 -16 -34 -23 -20 -45 8 -51 64 -5 38 -8 44 -19 35 -20 -16 -17 -45 7 -88
26 -48 72 -78 154 -102 37 -11 64 -23 61 -26 -3 -3 -69 -7 -148 -9 -79 -2
-183 -8 -231 -15 -51 -6 -119 -8 -162 -4 l-73 7 -25 56 c-27 64 -24 72 33 72
26 0 31 3 20 10 -8 5 -31 10 -51 10 -44 0 -51 8 -72 86 -18 65 -22 130 -9 138
5 3 39 1 77 -5 39 -5 72 -6 77 -1 9 9 -77 24 -130 24 -31 0 -22 23 9 24 21 1
132 -11 307 -32 34 -5 52 -3 52 4 0 23 -32 28 -252 39 -132 6 -127 2 -108 85
5 24 12 55 15 69 l4 25 148 -4 c143 -4 149 -5 183 -32 81 -63 115 -63 324 1
127 39 132 39 290 40 89 1 201 -4 250 -10 49 -6 93 -8 98 -5 5 3 48 -4 96 -15
48 -11 134 -22 192 -25 58 -3 139 -8 180 -12 65 -6 73 -5 63 7 -12 15 -164 43
-227 42 -17 0 -35 3 -41 7 -21 16 -213 29 -510 35 -82 1 -152 3 -155 4 -12 3
84 41 105 41 12 0 39 7 58 15 46 19 211 29 462 29 178 0 209 -3 279 -23 69
-20 91 -22 165 -15 47 4 102 7 121 5 19 -1 65 7 101 18 56 18 71 28 103 68 21
27 46 63 57 81 33 56 56 42 110 -66z m66 -18 c-10 -10 -37 16 -37 34 0 13 4
12 22 -5 12 -13 19 -25 15 -29z m43 -256 c0 -7 -5 -20 -10 -28 -8 -12 -10 -9
-10 13 0 15 5 27 10 27 6 0 10 -6 10 -12z m-10 -85 c0 -10 -5 -25 -10 -33 -7
-11 -10 -7 -10 18 0 17 5 32 10 32 6 0 10 -8 10 -17z m-2630 -119 c0 -16 -16
-19 -25 -4 -8 13 4 32 16 25 5 -4 9 -13 9 -21z m30 -158 c-13 -13 -35 7 -25
24 5 8 11 8 21 -1 10 -8 12 -15 4 -23z m15 -32 c8 -4 22 -22 30 -41 17 -41 19
-53 6 -53 -11 0 -61 72 -61 88 0 14 2 14 25 6z m1025 -124 c0 -5 -7 -10 -16
-10 -8 0 -12 5 -9 10 3 6 10 10 16 10 5 0 9 -4 9 -10z m-280 -9 c0 -15 -18
-22 -25 -11 -4 7 -20 9 -38 5 -24 -5 -28 -4 -17 4 19 13 80 14 80 2z m55 -1
c3 -5 -1 -10 -10 -10 -9 0 -13 5 -10 10 3 6 8 10 10 10 2 0 7 -4 10 -10z m45
-4 c0 -2 -7 -7 -16 -10 -8 -3 -12 -2 -9 4 6 10 25 14 25 6z m1744 -282 c3 -9
2 -33 -4 -54 -9 -33 -7 -44 10 -73 24 -40 15 -52 -25 -37 -14 5 -39 10 -54 10
-16 0 -59 11 -95 25 -37 14 -78 25 -92 25 -38 0 -24 24 18 31 19 3 64 19 99
36 56 27 109 48 130 52 4 1 10 -6 13 -15z m-844 -64 c0 -5 -9 -10 -20 -10 -11
0 -20 5 -20 10 0 6 9 10 20 10 11 0 20 -4 20 -10z m274 -165 c28 -8 81 -17
119 -21 61 -5 76 -11 61 -26 -3 -3 -22 -2 -42 3 -29 6 -39 5 -45 -7 -8 -14
-11 -14 -25 -1 -10 8 -44 23 -77 33 -33 10 -64 21 -69 26 -15 13 22 9 78 -7z
m395 -38 c28 -13 30 -33 3 -30 -69 6 -174 22 -179 26 -3 3 -2 11 2 18 10 14
135 5 174 -14z m-192 -53 c-9 -9 -28 6 -21 18 4 6 10 6 17 -1 6 -6 8 -13 4
-17z m152 -3 c10 -6 10 -10 1 -16 -7 -4 -19 0 -28 9 -14 13 -14 16 -2 16 8 0
21 -4 29 -9z"/>
<path d="M7566 1782 c-38 -21 -78 -50 -89 -65 -19 -25 -20 -28 -4 -45 9 -10
17 -28 17 -39 0 -11 9 -32 21 -47 40 -50 136 -30 202 43 47 52 49 91 7 149
-38 53 -62 54 -154 4z m124 -22 c45 -64 -10 -150 -105 -163 -54 -8 -60 -5 -68
24 -4 15 4 31 29 55 34 35 38 43 35 77 -2 10 8 21 21 26 42 17 66 12 88 -19z"/>
<path d="M9330 1335 c0 -8 72 -24 87 -18 12 5 12 7 1 14 -13 9 -88 13 -88 4z"/>
<path d="M9655 1280 c8 -13 55 -13 75 0 11 7 2 10 -33 10 -30 0 -46 -4 -42
-10z"/>
<path d="M9760 1275 c7 -8 26 -15 43 -15 29 0 30 1 11 15 -10 8 -30 15 -43 15
-20 0 -21 -2 -11 -15z"/>
<path d="M9850 1262 c0 -4 9 -8 20 -9 11 -1 20 2 20 8 0 5 -9 9 -20 9 -11 0
-20 -4 -20 -8z"/>
<path d="M7880 1177 c3 -3 30 -7 60 -10 30 -3 62 -8 70 -10 34 -11 100 -17
100 -8 0 5 -26 11 -57 15 -124 14 -178 18 -173 13z"/>
<path d="M5565 1959 c-77 -4 -390 -10 -695 -13 -305 -3 -600 -9 -655 -11 -234
-13 -358 -24 -368 -34 -14 -14 37 -14 158 -1 119 13 839 29 1605 36 338 3 616
7 618 8 6 7 -174 15 -337 16 -95 0 -176 1 -180 3 -3 1 -69 -1 -146 -4z"/>
<path d="M10515 1960 c-16 -4 107 -8 275 -9 168 -1 334 -3 370 -5 36 -2 146
-6 245 -10 99 -3 198 -9 220 -12 65 -9 757 -32 793 -27 20 3 32 1 32 -6 0 -7
10 -11 23 -9 12 1 60 -1 107 -5 201 -19 220 -18 220 12 0 15 -22 19 -167 30
-526 40 -672 45 -1378 46 -390 1 -723 -1 -740 -5z"/>
<path d="M10228 1953 c6 -2 18 -2 25 0 6 3 1 5 -13 5 -14 0 -19 -2 -12 -5z"/>
<path d="M10363 1953 c20 -2 54 -2 75 0 20 2 3 4 -38 4 -41 0 -58 -2 -37 -4z"/>
<path d="M8830 1930 c-12 -8 -9 -10 13 -10 15 0 27 5 27 10 0 13 -20 13 -40 0z"/>
<path d="M8512 1920 c-78 -4 -145 -10 -149 -13 -8 -9 195 -9 275 -1 34 4 59
11 56 15 -3 5 -13 8 -22 7 -9 0 -81 -4 -160 -8z"/>
<path d="M9488 1923 c-76 -2 -118 -8 -118 -14 0 -6 7 -8 16 -5 9 3 81 6 160 6
89 0 144 4 144 10 0 6 -19 9 -42 8 -24 -1 -96 -4 -160 -5z"/>
<path d="M9813 1923 c26 -2 68 -2 95 0 26 2 4 3 -48 3 -52 0 -74 -1 -47 -3z"/>
<path d="M9203 1909 c-67 -4 -175 -10 -240 -13 -303 -12 -550 -36 -623 -60
-60 -19 -31 -19 90 -1 112 17 284 30 570 45 297 15 365 21 349 31 -8 5 -16 8
-19 7 -3 0 -60 -4 -127 -9z"/>
<path d="M8115 1900 c-26 -11 113 -12 175 -1 37 7 27 9 -55 9 -55 0 -109 -3
-120 -8z"/>
<path d="M5630 1884 c-58 -2 -310 -8 -560 -14 -504 -11 -604 -15 -1060 -36
-340 -15 -456 -26 -490 -44 -34 -18 -19 -21 61 -10 384 51 1684 92 2604 83
810 -9 833 -9 846 4 9 9 -46 12 -227 12 -132 0 -426 2 -654 4 -228 2 -462 3
-520 1z"/>
<path d="M11138 1873 c34 -2 88 -2 120 0 31 2 3 3 -63 3 -66 0 -92 -1 -57 -3z"/>
<path d="M9625 1859 c-38 -4 -133 -11 -210 -15 -77 -3 -147 -11 -155 -16 -9
-5 36 -6 115 -3 146 7 384 31 393 39 7 7 -52 5 -143 -5z"/>
<path d="M9850 1858 c0 -8 320 0 329 8 3 3 -70 4 -162 3 -92 -1 -167 -6 -167
-11z"/>
<path d="M9045 1820 c-21 -5 -2 -8 62 -9 52 0 95 3 98 9 7 12 -114 12 -160 0z"/>
<path d="M8735 1808 c-71 -5 -141 -13 -155 -18 -21 -9 -18 -9 15 -5 22 3 119
8 215 11 96 4 182 10 190 15 19 10 -89 9 -265 -3z"/>
<path d="M5356 1753 c-1 -2 -118 -4 -259 -5 -145 0 -257 -5 -257 -10 0 -5 -5
-6 -11 -2 -10 6 -134 6 -304 -1 -44 -2 -156 -6 -250 -10 -93 -3 -213 -10 -265
-16 -52 -5 -160 -13 -240 -19 -159 -11 -285 -29 -273 -40 4 -4 40 -4 78 1 39
5 115 11 170 13 55 3 143 10 195 16 52 5 129 12 170 15 169 10 1003 35 1240
37 288 2 1197 1 1336 -2 57 -1 94 2 98 9 5 8 -59 11 -216 11 -123 1 -445 2
-716 3 -271 2 -494 2 -496 0z"/>
<path d="M5023 1591 c-281 -4 -515 -9 -519 -13 -7 -7 229 -13 381 -10 33 1
227 2 432 3 204 1 377 6 385 10 8 5 -11 9 -48 9 -34 0 -74 1 -90 3 -16 2 -259
1 -541 -2z"/>
<path d="M5750 1590 c-11 -7 -5 -10 23 -10 20 0 37 5 37 10 0 13 -40 13 -60 0z"/>
<path d="M11859 1376 c-2 -3 -162 -7 -355 -11 -193 -3 -378 -10 -410 -15 -33
-6 -80 -10 -106 -10 -26 0 -49 -4 -52 -9 -10 -15 9 -17 127 -9 62 3 175 9 252
12 135 6 205 9 420 20 55 3 115 6 133 6 20 0 31 4 27 10 -6 10 -28 14 -36 6z"/>
<path d="M3965 1319 c-55 -3 -98 -6 -95 -7 5 -3 492 -16 550 -15 19 0 348 1
730 3 699 3 790 5 790 20 0 5 -10 7 -22 4 -13 -3 -174 -4 -358 -4 -184 1 -596
2 -915 3 -319 1 -625 -1 -680 -4z"/>
<path d="M3595 1303 c-49 -2 -94 -8 -100 -14 -12 -12 326 0 340 12 9 9 -41 9
-240 2z"/>
<path d="M12416 1228 c-60 -4 -227 -12 -370 -17 -359 -12 -381 -28 -34 -24
150 2 305 3 343 3 39 -1 90 3 114 9 27 6 51 6 62 1 20 -11 226 -15 252 -5 27
11 20 24 -15 29 -64 10 -244 12 -352 4z"/>
<path d="M4158 1122 c-112 -6 -56 -18 90 -19 184 0 620 -12 857 -22 99 -4 182
-6 184 -4 11 8 -13 11 -134 16 -71 4 -179 11 -240 17 -105 11 -638 19 -757 12z"/>
<path d="M3638 1113 c12 -2 32 -2 45 0 12 2 2 4 -23 4 -25 0 -35 -2 -22 -4z"/>
<path d="M3738 1113 c7 -3 16 -2 19 1 4 3 -2 6 -13 5 -11 0 -14 -3 -6 -6z"/>
<path d="M3820 1110 c0 -13 50 -13 70 0 11 7 4 10 -27 10 -24 0 -43 -4 -43
-10z"/>
<path d="M6178 1093 c-27 -2 -48 -8 -48 -14 0 -5 21 -9 48 -9 26 0 99 -6 162
-13 63 -8 138 -12 165 -11 28 2 169 4 315 5 145 1 276 5 290 10 31 9 -42 11
-345 10 -121 -1 -272 4 -335 9 -168 15 -200 17 -252 13z"/>
<path d="M6688 1033 c-177 -3 -248 -7 -248 -15 0 -8 45 -9 167 -5 91 4 230 8
307 8 102 1 130 4 101 10 -22 4 -49 7 -60 6 -11 -1 -131 -3 -267 -4z"/>
<path d="M7075 1020 c4 -6 11 -8 16 -5 14 9 11 15 -7 15 -8 0 -12 -5 -9 -10z"/>
<path d="M10880 1010 l-55 -7 70 -2 c354 -10 701 -26 830 -37 44 -3 89 -6 100
-6 11 0 54 -4 97 -10 50 -7 82 -7 94 0 34 19 -24 36 -131 38 -55 1 -212 7
-350 13 -350 15 -591 19 -655 11z"/>
<path d="M4780 961 c0 -12 142 -12 161 0 9 5 -19 9 -73 9 -49 0 -88 -4 -88 -9z"/>
<path d="M4975 960 c-12 -5 40 -9 138 -9 103 -1 156 2 152 9 -8 12 -261 12
-290 0z"/>
<path d="M5325 960 c-4 -7 51 -10 162 -9 92 1 157 5 143 10 -39 11 -298 11
-305 -1z"/>
<path d="M5700 960 c0 -12 287 -13 345 -1 27 6 -23 9 -152 10 -123 1 -193 -3
-193 -9z"/>
<path d="M5112 593 c-10 -4 -10 -9 4 -24 13 -14 21 -16 36 -8 15 8 17 13 7 25
-12 14 -24 16 -47 7z"/>
</g>
</svg>
