<?xml version="1.0" standalone="no"?>
<!DOCTYPE svg PUBLIC "-//W3C//DTD SVG 20010904//EN"
 "http://www.w3.org/TR/2001/REC-SVG-20010904/DTD/svg10.dtd">
<svg version="1.0" xmlns="http://www.w3.org/2000/svg"
 width="1280.000000pt" height="1143.000000pt" viewBox="0 0 1280.000000 1143.000000"
 preserveAspectRatio="xMidYMid meet">
<metadata>
Created by potrace 1.15, written by Peter Selinger 2001-2017
</metadata>
<g transform="translate(0.000000,1143.000000) scale(0.100000,-0.100000)"
fill="#000000" stroke="none">
<path d="M3974 11378 c-62 -59 -224 -252 -224 -268 0 -21 19 -9 51 33 18 23
69 81 113 130 78 86 116 110 101 65 -4 -13 -11 -48 -15 -78 -13 -84 -27 -120
-71 -180 -22 -30 -55 -78 -73 -105 -19 -28 -41 -57 -50 -64 -18 -15 -22 -41
-6 -41 5 0 22 16 37 36 111 145 107 112 -7 -50 -49 -71 -90 -135 -90 -142 0
-7 -21 -36 -46 -66 -33 -39 -52 -53 -72 -53 -23 -1 -27 -5 -27 -30 0 -15 6
-30 13 -33 33 -11 258 260 334 402 26 49 54 96 61 105 31 35 65 184 69 301 3
81 2 85 -19 88 -16 2 -39 -12 -79 -50z"/>
<path d="M3937 11228 c-15 -23 -27 -49 -27 -57 0 -8 14 7 30 33 17 27 30 52
28 57 -2 5 -16 -9 -31 -33z"/>
<path d="M3653 11092 c-18 -26 -33 -55 -33 -65 0 -24 -15 -21 -27 5 -9 21 -11
21 -43 -22 -18 -25 -41 -65 -52 -90 -11 -25 -42 -89 -70 -143 -27 -54 -48
-100 -46 -103 7 -6 135 195 185 289 15 28 22 35 22 22 0 -11 -6 -31 -14 -45
-8 -14 -14 -29 -15 -33 -1 -20 22 9 63 81 25 42 54 86 66 96 23 21 28 56 9 56
-7 0 -28 -21 -45 -48z"/>
<path d="M2413 11097 c-22 -11 -46 -30 -51 -43 -18 -38 -101 -142 -132 -164
-38 -27 -67 -75 -80 -133 -6 -27 -19 -60 -30 -75 -38 -54 -98 -392 -108 -607
-2 -55 1 -129 7 -165 6 -36 18 -137 27 -226 l17 -161 -57 -97 c-34 -58 -56
-106 -54 -119 3 -20 5 -19 23 11 10 17 22 32 26 32 3 0 11 -17 16 -37 14 -50
8 -176 -12 -254 -16 -59 -15 -64 0 -75 16 -12 16 -18 -1 -91 -9 -43 -30 -103
-45 -133 -15 -30 -43 -89 -62 -130 -20 -41 -54 -106 -77 -143 -23 -38 -39 -71
-36 -74 11 -12 48 46 122 194 69 138 78 151 95 140 15 -10 23 -7 49 18 l30 29
-25 10 c-18 8 -22 15 -16 25 6 9 6 22 0 33 -8 15 -5 23 11 36 17 14 24 35 30
92 12 103 12 207 0 230 -7 14 -4 40 11 97 19 68 21 94 16 208 -9 175 6 383 33
459 22 66 24 76 12 76 -12 0 -32 -47 -32 -75 0 -14 -4 -25 -10 -25 -14 0 -12
38 4 96 8 27 17 69 20 94 12 84 48 224 92 362 63 196 53 214 -14 28 -33 -90
-116 -427 -137 -553 -3 -21 -10 -35 -15 -32 -16 10 -20 79 -10 160 46 377 71
512 107 580 18 34 23 37 29 22 5 -15 13 -6 36 42 16 33 42 70 58 81 17 12 30
27 30 33 0 7 13 28 28 47 15 19 36 54 46 77 12 28 26 43 41 46 40 7 46 -4 35
-68 -5 -33 -10 -89 -10 -124 0 -48 -6 -78 -25 -118 -14 -29 -30 -78 -36 -108
-5 -30 -19 -81 -30 -112 -12 -32 -24 -83 -29 -113 -4 -30 -18 -90 -30 -134
-30 -112 -8 -122 25 -10 9 28 22 59 30 70 14 19 14 19 15 -1 0 -11 -23 -87
-50 -169 -28 -82 -54 -176 -60 -208 -5 -33 -20 -87 -34 -121 -29 -74 -42 -137
-28 -137 5 0 12 8 15 18 3 9 34 103 69 207 36 105 72 219 81 255 10 36 29 108
43 160 19 71 24 110 20 155 -3 47 3 87 29 191 19 72 39 144 45 160 11 27 22
121 23 186 0 31 -24 73 -50 86 -13 7 -31 3 -60 -11z m-353 -1692 c0 -8 -4 -17
-10 -20 -6 -4 -10 5 -10 20 0 15 4 24 10 20 6 -3 10 -12 10 -20z m-20 -399 c0
-3 -4 -8 -10 -11 -5 -3 -10 -1 -10 4 0 6 5 11 10 11 6 0 10 -2 10 -4z"/>
<path d="M5159 11064 c-41 -31 -85 -67 -100 -80 -14 -13 -29 -24 -33 -24 -5 0
-36 -24 -70 -53 -34 -29 -78 -63 -98 -76 -21 -12 -46 -33 -57 -47 -10 -13 -22
-24 -25 -24 -9 0 -246 -169 -277 -197 -15 -13 -48 -31 -75 -39 -37 -11 -67
-32 -119 -83 -110 -106 -231 -201 -258 -201 -42 0 -181 -116 -253 -210 -26
-34 -55 -57 -92 -75 -69 -33 -139 -105 -204 -211 -28 -46 -54 -84 -58 -84 -10
0 -32 -51 -25 -58 3 -3 20 12 37 34 17 21 64 72 105 111 40 40 73 75 73 79 0
3 -9 4 -20 1 -33 -9 -23 9 35 59 39 33 59 44 66 37 8 -8 8 -17 0 -31 -6 -11
-11 -31 -11 -44 0 -17 8 -9 31 32 32 58 125 184 158 214 30 27 38 -1 9 -32
-47 -51 -90 -120 -86 -138 3 -14 15 -2 47 46 59 88 110 140 137 140 16 0 36
19 69 65 49 69 69 85 108 85 26 0 94 65 120 117 18 34 100 113 119 114 7 0 28
2 46 3 22 3 32 -1 32 -10 0 -24 10 -16 77 56 36 39 73 70 83 70 10 0 42 26 70
59 34 40 61 61 82 65 19 4 58 33 107 81 43 41 83 75 91 75 7 0 23 11 36 25 13
14 32 25 43 25 11 0 28 12 38 26 16 25 89 64 119 64 27 0 17 -82 -16 -131 -16
-24 -30 -52 -30 -61 0 -10 -9 -42 -20 -72 -21 -55 -47 -86 -180 -213 -87 -82
-120 -124 -120 -149 0 -9 -7 -25 -16 -35 -9 -10 -14 -23 -12 -30 6 -19 65 38
71 69 3 16 16 33 29 39 80 36 353 320 364 379 3 19 15 46 26 59 24 30 18 52
-14 57 -21 3 -23 7 -20 59 4 64 -17 119 -47 119 -9 0 -51 -25 -92 -56z"/>
<path d="M3718 11063 c-21 -24 -41 -64 -35 -70 5 -4 44 44 61 75 11 18 -9 15
-26 -5z"/>
<path d="M3400 10858 c-11 -18 -20 -36 -20 -40 0 -5 -11 -8 -24 -8 -46 0 -58
-13 -103 -109 -24 -53 -57 -109 -72 -126 -31 -33 -67 -160 -49 -171 6 -4 16
-20 23 -37 l13 -30 65 135 c66 137 159 305 198 358 21 28 20 60 -1 60 -6 0
-19 -15 -30 -32z"/>
<path d="M5084 10866 c-10 -8 -16 -17 -13 -20 3 -3 14 1 25 8 10 8 16 17 13
20 -3 3 -14 -1 -25 -8z"/>
<path d="M3632 10785 c-17 -27 -28 -52 -25 -55 3 -3 8 1 10 8 3 7 16 26 30 42
13 17 23 36 20 42 -2 7 -18 -9 -35 -37z"/>
<path d="M4981 10761 c-11 -15 -25 -41 -31 -56 -6 -15 -13 -25 -17 -22 -13 14
-70 -30 -160 -121 -149 -152 -157 -162 -133 -162 8 0 90 67 213 175 9 8 17 25
17 38 0 18 8 25 43 34 33 10 50 23 80 64 35 47 42 79 18 79 -5 0 -19 -13 -30
-29z"/>
<path d="M3561 10686 c-12 -18 -45 -64 -76 -102 -54 -69 -65 -97 -21 -55 25
24 136 174 136 185 0 17 -21 2 -39 -28z"/>
<path d="M3507 10492 c-49 -50 -56 -62 -33 -62 17 0 89 86 84 100 -2 6 -25
-11 -51 -38z"/>
<path d="M4414 10455 c-11 -27 1 -33 19 -9 16 21 16 24 2 24 -9 0 -18 -7 -21
-15z"/>
<path d="M3390 10445 c0 -8 5 -15 10 -15 6 0 10 7 10 15 0 8 -4 15 -10 15 -5
0 -10 -7 -10 -15z"/>
<path d="M3483 10383 c-21 -25 -63 -76 -94 -112 -30 -36 -75 -95 -99 -131 -24
-36 -78 -111 -119 -166 -42 -56 -91 -124 -109 -150 -18 -27 -48 -71 -67 -99
-60 -88 -151 -246 -210 -365 -31 -63 -63 -122 -70 -130 -7 -8 -20 -40 -30 -70
-24 -76 -41 -100 -70 -100 -14 0 -48 -9 -77 -20 -29 -11 -54 -20 -55 -20 -5 0
-3 58 3 87 4 21 18 38 45 54 45 28 49 46 14 55 -32 8 -33 34 -1 34 20 0 36 16
36 37 0 6 -92 -5 -115 -13 -19 -8 -19 -28 0 -44 17 -14 20 -75 5 -85 -5 -3
-10 -19 -10 -34 0 -15 -9 -54 -20 -86 -25 -74 -26 -98 -2 -69 9 12 48 34 86
49 57 22 79 26 120 20 56 -7 86 -20 86 -38 0 -7 -34 -55 -76 -107 -42 -52 -90
-118 -107 -146 -18 -28 -44 -58 -59 -67 -30 -17 -88 -123 -88 -160 0 -14 -9
-31 -20 -38 -13 -9 -26 -38 -36 -79 -9 -36 -20 -69 -23 -73 -4 -4 -32 4 -62
18 -30 13 -64 25 -77 25 -27 0 -62 17 -62 29 0 5 41 57 90 117 50 59 90 114
90 122 0 8 13 31 29 51 32 40 101 152 101 164 0 4 -7 7 -15 7 -8 0 -15 -6 -15
-14 0 -8 -9 -24 -20 -37 -27 -34 -27 -2 1 45 12 20 16 36 10 36 -6 0 -15 -9
-22 -21 -7 -14 -14 -18 -21 -11 -6 6 -2 34 12 80 28 91 24 141 -5 63 -18 -49
-24 -55 -70 -73 -58 -22 -91 -48 -62 -48 10 0 32 7 49 16 19 10 34 12 40 6 12
-12 -7 -84 -37 -137 -12 -22 -30 -64 -40 -93 -9 -29 -31 -74 -49 -100 -18 -26
-42 -67 -54 -92 -40 -81 -46 -86 -95 -72 -23 7 -68 17 -99 23 -36 7 -58 16
-58 24 0 8 22 57 50 111 48 93 61 132 41 119 -5 -3 -17 -27 -27 -53 -18 -47
-74 -147 -133 -234 -18 -26 -29 -53 -25 -59 4 -7 14 1 26 20 13 21 26 30 37
27 9 -3 48 -10 86 -16 163 -25 257 -57 320 -107 39 -31 42 -44 19 -98 -17 -41
-13 -65 10 -65 25 0 45 52 61 162 9 57 20 121 26 143 l11 39 17 -23 c18 -23
18 -23 24 38 4 34 16 78 27 99 l21 37 -6 -47 c-4 -27 -4 -48 -1 -48 9 0 33 53
40 90 3 19 17 51 30 70 13 19 27 46 31 59 7 24 53 89 154 216 81 103 113 135
134 135 18 0 19 -5 14 -68 -3 -37 -11 -80 -18 -95 -10 -21 -10 -30 -1 -39 16
-16 15 -49 -1 -73 -8 -11 -28 -63 -46 -115 -18 -52 -48 -120 -67 -151 -19 -31
-34 -61 -34 -67 0 -15 38 -22 49 -8 22 27 100 206 111 256 7 30 24 83 37 116
l24 62 45 -14 c24 -7 79 -33 122 -57 l77 -43 -3 -57 c-3 -44 -1 -57 11 -57 20
0 67 116 78 192 5 35 13 83 18 108 6 25 10 71 11 103 0 43 4 57 14 57 8 0 18
-5 21 -10 12 -20 24 1 15 25 -10 27 -3 85 11 85 5 0 9 -9 9 -20 0 -11 4 -20
10 -20 12 0 17 24 25 120 7 78 23 110 57 110 12 0 27 19 48 61 35 72 47 88 76
99 12 5 43 40 69 79 25 39 56 76 67 82 26 14 118 5 129 -12 4 -7 0 -23 -8 -36
-15 -22 -14 -23 15 -23 63 0 83 -27 37 -48 -36 -16 -32 -35 5 -27 22 5 30 3
30 -8 0 -17 -31 -47 -49 -47 -19 0 -121 -101 -121 -119 0 -10 -6 -23 -12 -29
-10 -10 -10 -15 2 -22 13 -9 13 -11 0 -20 -12 -7 -12 -12 -3 -21 10 -10 9 -17
-4 -31 -25 -28 -10 -31 28 -5 36 24 83 88 94 127 l7 25 -29 -27 c-27 -26 -60
-39 -51 -20 20 41 48 71 75 81 39 14 133 106 133 130 0 9 -9 22 -20 29 -14 9
-20 23 -20 50 0 34 5 42 43 69 23 17 65 42 94 56 28 15 54 31 58 37 9 14 -29
12 -43 -2 -10 -10 -15 -10 -21 1 -7 11 -17 8 -47 -15 -22 -16 -50 -41 -64 -57
-23 -26 -28 -27 -57 -17 -22 8 -33 18 -33 32 0 18 -4 19 -42 13 -72 -12 -136
-45 -169 -87 -17 -21 -50 -52 -74 -68 -25 -17 -60 -57 -84 -94 -22 -36 -56
-77 -76 -93 -24 -19 -42 -46 -55 -83 -36 -98 -73 -160 -96 -160 -18 0 -22 -7
-27 -52 -3 -29 -12 -84 -20 -123 -9 -38 -20 -97 -26 -129 -6 -32 -13 -61 -16
-64 -8 -8 -53 15 -128 65 -52 34 -75 44 -97 41 -34 -5 -44 10 -30 48 12 32 13
44 1 44 -5 0 -12 -13 -16 -30 -4 -16 -11 -30 -17 -30 -6 0 -7 9 -3 23 18 56
16 72 -10 100 -14 15 -29 27 -33 27 -3 0 -27 -21 -53 -46 -46 -45 -48 -46 -83
-34 -20 6 -36 17 -36 24 0 39 140 322 210 427 21 30 45 71 54 90 8 19 24 45
34 59 11 14 38 57 61 96 23 40 51 80 61 89 11 10 20 24 20 31 0 7 19 36 43 65
44 54 77 100 151 209 24 36 78 105 119 153 80 96 114 147 98 147 -5 0 -27 -21
-48 -47z m307 -1053 c0 -5 -7 -10 -16 -10 -8 0 -12 5 -9 10 3 6 10 10 16 10 5
0 9 -4 9 -10z m-1450 -535 c-8 -37 -26 -65 -41 -65 -4 0 1 23 13 50 24 58 40
66 28 15z m-40 -127 c-1 -15 -58 -84 -63 -77 -9 9 35 89 48 89 8 0 15 -6 15
-12z"/>
<path d="M3422 10393 c-27 -24 -172 -212 -172 -224 0 -21 18 -4 75 68 33 42
75 96 94 120 36 46 38 66 3 36z"/>
<path d="M3066 10356 c-13 -13 -32 -50 -42 -82 -10 -32 -26 -68 -36 -80 -22
-24 -98 -214 -98 -244 0 -27 -39 -136 -83 -230 -57 -124 -152 -460 -145 -516
2 -23 10 -10 36 65 19 52 38 118 42 145 10 58 26 102 97 266 28 63 60 147 72
185 15 48 35 84 60 112 25 26 42 58 50 89 15 62 92 276 103 289 29 32 -24 34
-56 1z"/>
<path d="M4350 10365 c0 -8 4 -15 9 -15 5 0 14 7 21 15 10 13 9 15 -9 15 -12
0 -21 -6 -21 -15z"/>
<path d="M4530 10340 c-14 -11 -34 -20 -45 -20 -22 0 -204 -120 -204 -135 -1
-5 4 -17 9 -25 7 -12 19 -8 67 26 32 23 77 51 101 63 23 12 42 25 42 30 0 5
16 19 35 31 19 12 35 28 35 36 0 19 -10 17 -40 -6z"/>
<path d="M6450 10330 c-41 -9 -111 -29 -155 -43 -82 -26 -167 -41 -290 -52
-38 -3 -95 -16 -125 -29 -30 -13 -82 -29 -115 -35 -64 -12 -180 -64 -285 -128
-59 -36 -65 -44 -68 -76 -2 -25 -9 -38 -22 -42 -10 -3 -35 -19 -55 -35 -21
-17 -47 -30 -58 -30 -18 0 -17 2 7 21 15 12 26 30 26 45 0 29 -6 30 -61 4 -24
-11 -56 -20 -71 -20 -15 0 -72 -23 -125 -52 -54 -28 -125 -65 -158 -81 -33
-16 -76 -41 -95 -56 -19 -14 -53 -37 -76 -51 -59 -36 -144 -100 -144 -110 0
-25 24 -13 99 46 74 60 211 144 233 144 5 0 6 -9 3 -20 -9 -28 -2 -26 62 24
62 47 142 76 182 66 23 -5 20 -9 -43 -55 -37 -27 -62 -51 -56 -53 6 -2 53 22
104 53 52 31 113 61 136 66 23 5 72 31 110 58 84 58 188 101 200 81 6 -9 36 4
119 54 61 37 113 71 117 77 14 24 -8 18 -60 -15 -54 -35 -119 -66 -137 -66
-22 0 -5 19 31 35 23 10 77 40 122 66 77 45 114 55 87 23 -16 -19 9 -19 36 0
11 7 51 20 88 29 57 13 69 13 74 2 4 -11 16 -9 61 11 31 14 64 32 73 40 21 19
154 65 192 66 39 1 44 -9 16 -38 -22 -24 -22 -26 -4 -20 157 46 325 37 325
-19 0 -18 -43 -34 -189 -71 -110 -27 -140 -39 -165 -63 -17 -16 -44 -33 -61
-37 -48 -11 -177 -66 -215 -91 -19 -13 -41 -23 -48 -23 -7 0 -34 -11 -59 -25
-27 -14 -56 -22 -68 -19 -22 5 -104 -34 -232 -113 -40 -25 -112 -60 -160 -79
-94 -37 -121 -54 -86 -54 16 0 20 -5 16 -20 -3 -11 -3 -20 0 -20 14 0 167 81
167 89 0 5 -8 12 -17 14 -13 3 -12 5 5 6 13 0 54 19 90 40 37 21 87 44 111 51
24 6 53 21 66 34 13 13 65 35 136 55 63 19 152 47 199 63 47 17 112 32 145 35
113 8 122 11 128 42 5 23 16 32 63 51 34 14 75 23 104 22 44 -1 49 2 60 29 16
38 40 51 79 43 42 -9 42 19 1 36 -16 7 -38 26 -49 43 -18 29 -65 53 -123 64
-15 3 -33 11 -39 19 -15 18 -65 16 -159 -6z m100 -20 c0 -5 -5 -10 -11 -10 -5
0 -7 5 -4 10 3 6 8 10 11 10 2 0 4 -4 4 -10z"/>
<path d="M3292 10308 c-12 -18 -18 -35 -16 -38 7 -6 54 47 54 61 0 19 -19 8
-38 -23z"/>
<path d="M4787 10333 c-12 -11 -8 -23 8 -23 8 0 15 7 15 15 0 16 -12 20 -23 8z"/>
<path d="M4679 10297 c-6 -13 -24 -31 -39 -41 -47 -27 -64 -47 -48 -57 27 -17
68 -9 102 22 41 35 53 64 36 84 -18 22 -39 18 -51 -8z"/>
<path d="M3234 10223 c-59 -80 -72 -100 -112 -170 -43 -73 -50 -93 -32 -93 6
0 10 5 10 12 0 15 77 143 96 159 19 15 77 119 71 125 -3 3 -18 -12 -33 -33z"/>
<path d="M4485 10160 c-16 -11 -25 -20 -18 -20 19 0 63 22 63 32 0 13 -13 10
-45 -12z"/>
<path d="M6475 10160 c-8 -13 15 -13 35 0 12 8 11 10 -7 10 -12 0 -25 -4 -28
-10z"/>
<path d="M2620 10093 c-54 -50 -117 -131 -150 -193 -18 -34 -62 -282 -52 -292
14 -14 28 16 37 77 9 60 21 95 39 109 7 6 34 39 61 74 26 35 58 68 71 74 26
12 32 28 12 28 -7 1 -2 9 11 20 12 11 28 17 33 14 6 -4 5 -10 -3 -15 -24 -15
38 -10 76 5 48 20 59 46 40 94 -17 41 -48 62 -90 62 -15 0 -46 -21 -85 -57z
m148 -13 c2 -11 -16 -20 -59 -33 -72 -21 -139 -79 -190 -163 -31 -51 -49 -67
-49 -44 0 6 5 10 10 10 6 0 10 9 10 19 0 11 5 23 10 26 6 4 19 24 31 46 24 49
84 116 124 141 36 22 108 21 113 -2z"/>
<path d="M4200 10136 c-6 -6 -10 -18 -10 -28 0 -19 -5 -22 -52 -32 -18 -4 -29
-16 -37 -38 -6 -17 -9 -33 -7 -36 5 -4 179 126 184 137 4 10 -68 7 -78 -3z"/>
<path d="M6410 10140 c-9 -6 -10 -10 -3 -10 6 0 15 5 18 10 8 12 4 12 -15 0z"/>
<path d="M4495 10120 c-11 -5 -55 -23 -99 -41 -51 -21 -101 -51 -143 -86 -35
-31 -62 -57 -60 -59 8 -9 102 28 134 52 18 14 50 33 71 42 54 24 131 75 137
89 5 15 -11 16 -40 3z"/>
<path d="M6270 10111 c-8 -5 -31 -12 -50 -15 -33 -7 -68 -21 -133 -52 -16 -8
-35 -14 -43 -14 -9 0 -13 -4 -10 -9 3 -5 30 0 58 11 29 11 93 31 142 44 108
30 136 43 86 43 -19 0 -42 -3 -50 -8z"/>
<path d="M1500 9977 c0 -2 12 -37 26 -78 23 -65 25 -84 20 -162 -5 -68 -3 -88
6 -85 20 7 47 61 57 114 8 43 6 57 -23 129 -28 70 -35 80 -59 83 -15 2 -27 2
-27 -1z"/>
<path d="M5905 9970 c-3 -5 1 -10 9 -10 8 0 18 5 21 10 3 6 -1 10 -9 10 -8 0
-18 -4 -21 -10z"/>
<path d="M2722 9935 c-69 -32 -134 -93 -126 -117 3 -12 1 -18 -8 -16 -7 2 -14
-7 -16 -19 -3 -18 2 -23 17 -23 11 0 23 5 26 10 3 6 15 10 25 10 14 0 7 -12
-30 -46 -58 -54 -67 -81 -20 -57 17 8 28 18 25 23 -6 10 66 76 94 85 36 11 18
30 -28 29 -22 0 -41 3 -41 7 0 11 60 46 93 54 15 4 27 11 27 16 0 14 -17 11
-61 -12 -44 -22 -67 -17 -34 7 11 8 46 24 77 36 32 11 58 25 58 29 0 15 -22
10 -78 -16z"/>
<path d="M3050 9935 c-8 -9 -8 -15 -2 -15 12 0 26 19 19 26 -2 2 -10 -2 -17
-11z"/>
<path d="M5825 9935 c-16 -8 -95 -40 -175 -70 -80 -31 -209 -90 -287 -131 -93
-48 -154 -74 -176 -74 -18 0 -41 -6 -52 -13 -11 -7 -60 -30 -110 -51 -179 -76
-312 -144 -317 -163 -3 -10 -9 -26 -13 -35 -4 -11 31 2 112 42 65 31 136 63
158 70 39 12 469 223 491 241 6 5 41 20 78 34 82 31 336 151 336 159 0 9 -12
6 -45 -9z"/>
<path d="M1336 9914 c-15 -38 -3 -94 20 -94 20 0 47 -47 41 -71 -3 -11 4 -40
14 -65 19 -41 20 -53 10 -151 -6 -58 -8 -109 -5 -114 11 -19 -21 -170 -68
-317 -52 -164 -78 -273 -78 -325 1 -43 14 -19 33 58 22 87 193 603 221 668 6
12 4 17 -7 17 -13 0 -41 -47 -64 -105 -14 -38 -14 56 0 148 17 105 10 157 -33
232 -22 39 -29 61 -24 79 11 44 -44 81 -60 40z"/>
<path d="M4135 9900 c-3 -5 -1 -10 4 -10 6 0 11 5 11 10 0 6 -2 10 -4 10 -3 0
-8 -4 -11 -10z"/>
<path d="M4085 9869 c-4 -6 -5 -13 -2 -16 7 -7 27 6 27 18 0 12 -17 12 -25 -2z"/>
<path d="M2992 9848 c-14 -14 -16 -38 -4 -38 5 0 14 11 20 25 12 26 4 33 -16
13z"/>
<path d="M2946 9749 c-18 -44 -15 -65 3 -31 20 38 31 72 22 72 -5 0 -16 -19
-25 -41z"/>
<path d="M2655 9710 c-3 -5 3 -10 14 -10 12 0 21 5 21 10 0 6 -6 10 -14 10 -8
0 -18 -4 -21 -10z"/>
<path d="M2623 9655 c-29 -13 -53 -29 -53 -35 0 -14 13 -13 36 5 10 8 36 19
57 25 20 6 37 15 37 20 0 16 -21 12 -77 -15z"/>
<path d="M2907 9667 c-4 -10 -7 -26 -7 -35 1 -15 2 -15 11 1 6 10 9 25 7 35
-3 16 -4 15 -11 -1z"/>
<path d="M4825 9650 c-3 -5 1 -10 9 -10 9 0 16 5 16 10 0 6 -4 10 -9 10 -6 0
-13 -4 -16 -10z"/>
<path d="M5405 9630 c-3 -5 1 -10 9 -10 9 0 16 5 16 10 0 6 -4 10 -9 10 -6 0
-13 -4 -16 -10z"/>
<path d="M2627 9590 c-70 -36 -81 -37 -72 -9 5 15 4 19 -4 15 -30 -19 -62
-128 -41 -141 6 -4 21 2 33 12 12 11 34 24 50 31 29 13 39 39 10 27 -29 -11
-35 -11 -40 1 -2 6 26 25 62 42 36 18 65 36 65 42 0 13 5 14 -63 -20z"/>
<path d="M3787 9593 c-52 -37 -46 -48 8 -15 25 15 45 30 45 34 0 14 -14 9 -53
-19z"/>
<path d="M5330 9568 c-52 -16 -117 -38 -145 -48 -27 -10 -86 -26 -130 -35 -97
-22 -117 -30 -88 -39 11 -4 48 0 82 8 33 8 61 10 61 5 0 -5 -12 -11 -27 -14
-49 -10 -286 -87 -353 -116 -36 -15 -112 -42 -170 -60 -57 -18 -147 -54 -200
-79 -52 -26 -113 -53 -135 -60 -50 -16 -150 -66 -190 -94 -16 -11 -37 -25 -46
-31 -9 -5 -27 -17 -40 -26 -32 -22 -69 -33 -69 -20 0 5 25 24 55 41 30 17 81
51 112 74 32 23 90 60 128 81 39 21 79 45 90 55 18 15 220 113 356 173 53 23
83 47 60 47 -15 0 -257 -110 -366 -166 -88 -45 -324 -177 -356 -198 -108 -72
-179 -126 -234 -174 -36 -32 -93 -75 -128 -96 -58 -35 -66 -37 -117 -31 -30 4
-77 18 -103 32 -27 13 -51 23 -53 20 -2 -2 -15 -24 -27 -48 -87 -164 -171
-292 -221 -340 -35 -32 -70 -88 -61 -97 8 -8 99 91 158 173 24 33 65 101 92
152 26 51 54 94 62 97 7 3 31 -12 52 -33 22 -22 49 -44 60 -51 12 -6 43 -57
72 -118 28 -59 61 -127 74 -152 12 -25 26 -59 29 -77 7 -30 5 -32 -50 -57 -32
-15 -65 -25 -73 -23 -21 4 -206 -122 -261 -178 -55 -56 -38 -59 26 -4 27 22
76 53 109 68 33 15 68 40 78 54 9 15 23 24 30 21 7 -2 43 9 80 26 77 35 77 35
77 16 0 -8 -8 -17 -19 -21 -21 -6 -57 -43 -50 -50 3 -2 30 11 61 29 30 19 66
37 79 41 13 4 33 18 45 32 24 29 122 65 220 82 140 24 241 43 309 58 39 9 93
19 120 23 28 4 88 15 135 24 56 11 124 16 200 14 63 -1 167 3 230 9 218 23
479 35 577 29 89 -6 432 -49 493 -62 14 -2 61 -11 105 -20 188 -35 469 -112
510 -141 11 -7 29 -13 40 -13 11 0 38 -9 60 -20 22 -11 45 -20 51 -20 7 0 31
-16 54 -35 43 -36 85 -53 98 -40 9 9 -57 65 -77 65 -8 0 -22 6 -30 14 -23 21
-167 78 -311 124 -113 37 -170 53 -380 106 -36 9 -117 23 -180 32 -63 8 -140
21 -171 29 -31 8 -86 15 -121 15 -92 0 -188 11 -188 22 0 5 89 8 208 7 143 -1
221 2 252 11 63 18 277 6 454 -25 159 -28 156 -28 156 -17 0 12 -111 38 -305
73 -288 52 -708 51 -757 -1 -22 -23 -23 -23 -156 -6 -110 15 -562 11 -562 -5
0 -16 42 -19 280 -16 237 2 380 -6 380 -22 0 -10 -145 -25 -280 -29 -451 -12
-533 -18 -659 -48 -57 -13 -174 -36 -259 -49 -85 -14 -158 -27 -161 -30 -4 -2
-42 -11 -85 -20 -42 -9 -117 -30 -166 -46 -121 -41 -126 -36 -89 77 21 64 26
70 98 117 68 43 47 62 -30 27 -93 -42 -168 -16 -203 70 -19 49 -11 71 34 90
22 9 33 22 40 49 10 38 55 90 67 78 3 -4 -2 -16 -12 -27 -29 -32 -2 -23 48 15
26 20 75 49 109 66 35 17 92 46 128 65 36 19 92 43 125 53 181 59 238 89 150
77 -31 -4 -46 -3 -40 3 15 14 194 82 330 124 97 30 252 90 315 122 25 12 90
38 144 56 64 22 110 44 130 63 17 17 39 29 49 27 10 -1 24 2 30 6 7 5 51 25
99 44 49 19 88 37 88 42 0 10 -5 9 -110 -25z"/>
<path d="M3343 9544 c-10 -15 -35 -45 -56 -68 -21 -22 -53 -60 -70 -83 -16
-24 -41 -50 -54 -58 -21 -14 -33 -55 -15 -55 4 0 32 29 62 65 30 36 69 77 87
91 18 14 33 34 33 43 0 10 11 28 25 41 25 24 33 50 15 50 -5 0 -17 -12 -27
-26z"/>
<path d="M3610 9438 c-58 -69 -121 -184 -150 -273 -7 -22 -37 -96 -66 -164
-49 -113 -56 -141 -36 -141 11 0 38 48 57 100 38 101 87 237 97 266 6 18 48
84 94 148 46 64 84 121 84 126 0 23 -21 6 -80 -62z"/>
<path d="M4310 9427 c-236 -119 -408 -228 -671 -426 -14 -11 -38 -26 -53 -32
-29 -14 -35 -29 -10 -29 19 0 184 107 184 119 0 14 360 238 513 319 67 36 77
39 72 22 -8 -26 1 -25 41 5 18 14 39 22 48 19 15 -6 106 60 106 77 0 27 -78 2
-230 -74z"/>
<path d="M6640 9500 c-123 -6 -154 -11 -206 -33 -34 -15 -92 -31 -130 -37 -38
-6 -73 -15 -78 -21 -6 -5 -24 -9 -41 -9 -35 0 -129 -25 -265 -70 -74 -25 -98
-30 -112 -21 -22 14 -64 14 -193 1 -55 -5 -158 -14 -228 -20 -138 -12 -324
-58 -414 -103 -26 -13 -66 -30 -88 -37 -53 -17 -252 -116 -260 -130 -14 -22 3
-20 51 6 132 71 167 87 283 125 69 23 142 50 161 59 19 10 62 23 95 30 33 7
66 15 75 18 35 13 -15 -30 -52 -45 -21 -8 -38 -19 -38 -24 0 -15 20 -10 56 11
18 12 56 27 86 34 89 23 397 71 405 63 12 -13 -9 -21 -104 -40 -145 -30 -287
-67 -298 -78 -14 -14 -3 -12 140 21 72 17 177 39 235 50 58 10 132 26 165 34
32 9 70 16 84 16 14 0 41 11 61 25 38 27 186 64 356 90 54 8 115 20 134 26 19
6 85 12 146 14 73 3 125 10 153 21 23 9 45 13 49 9 13 -13 -39 -44 -114 -66
-41 -12 -77 -26 -80 -31 -8 -13 18 -9 82 12 79 26 187 38 265 28 35 -4 145
-12 244 -17 99 -5 188 -12 197 -16 23 -9 39 2 31 21 -4 12 -15 15 -39 11 -19
-3 -36 -2 -39 2 -2 5 -35 11 -72 15 -164 15 -230 25 -265 40 -27 11 -63 16
-125 14 -49 0 -106 1 -128 4 -22 3 -105 2 -185 -2z"/>
<path d="M2547 9424 c-48 -37 -58 -50 -53 -67 3 -12 6 -28 6 -34 0 -19 12 -16
45 13 l30 25 -27 -6 c-16 -3 -28 -2 -28 3 0 13 41 48 78 66 31 16 44 46 20 46
-7 0 -39 -21 -71 -46z"/>
<path d="M4865 9435 l-30 -13 27 -1 c15 -1 30 4 33 10 11 17 2 18 -30 4z"/>
<path d="M1514 9375 c-16 -38 -19 -75 -5 -59 9 10 31 94 24 94 -2 0 -11 -16
-19 -35z"/>
<path d="M1863 9382 c-23 -15 -121 -194 -144 -264 -18 -55 -24 -95 -24 -163 0
-86 1 -90 23 -93 25 -4 26 -3 11 35 -8 22 -7 30 6 39 9 7 20 38 25 70 5 33 23
86 39 119 44 91 61 132 61 146 0 7 11 32 26 56 24 42 25 63 1 63 -7 0 -17 -4
-24 -8z m-74 -238 c-13 -34 -24 -16 -14 23 4 17 10 22 16 16 6 -6 6 -20 -2
-39z m-49 -174 c0 -5 -4 -10 -10 -10 -5 0 -10 5 -10 10 0 6 5 10 10 10 6 0 10
-4 10 -10z"/>
<path d="M855 9320 c-25 -39 -33 -80 -17 -80 5 0 17 18 27 40 10 22 24 45 32
51 17 15 17 29 -2 29 -8 0 -26 -18 -40 -40z"/>
<path d="M941 9302 c-6 -11 -13 -39 -16 -63 -6 -42 -6 -43 9 -19 l14 25 5 -25
c2 -14 5 -40 5 -58 1 -18 5 -40 11 -49 10 -19 25 107 19 167 -4 40 -31 53 -47
22z"/>
<path d="M6615 9293 c-194 -9 -610 -56 -750 -84 -55 -11 -122 -24 -150 -29
-27 -5 -140 -29 -250 -53 -110 -25 -248 -55 -307 -66 -131 -26 -158 -36 -158
-57 0 -11 5 -14 18 -9 25 10 120 31 262 59 69 14 224 45 345 70 121 25 256 48
300 51 44 4 143 15 220 26 202 27 394 42 520 39 260 -7 420 -5 420 5 0 6 -13
11 -30 12 -16 2 -88 10 -160 18 -164 19 -205 22 -280 18z"/>
<path d="M1649 9259 c-6 -12 -26 -41 -44 -65 -18 -24 -43 -69 -55 -101 -12
-32 -25 -62 -30 -68 -11 -14 -45 -133 -67 -230 -12 -55 -17 -125 -18 -224 0
-114 -3 -145 -14 -149 -11 -4 -13 7 -9 52 6 67 -5 73 -21 12 -7 -30 -21 -52
-42 -68 -16 -13 -78 -64 -137 -114 -166 -140 -221 -179 -256 -179 -25 0 -31
-5 -38 -32 -6 -23 -21 -40 -51 -57 -46 -28 -184 -157 -209 -196 -9 -14 -71
-84 -139 -156 -92 -97 -140 -158 -186 -235 -34 -57 -83 -123 -108 -147 -54
-51 -133 -168 -147 -220 -5 -19 -18 -47 -28 -61 -13 -19 -19 -53 -24 -133 -3
-60 -11 -117 -18 -128 -12 -18 -9 -24 24 -55 20 -19 39 -49 43 -67 30 -137
325 -497 560 -682 55 -43 129 -106 165 -141 110 -105 304 -205 655 -339 17 -6
40 -17 52 -24 12 -7 26 -12 31 -12 15 0 210 158 222 180 9 17 87 70 103 70 4
0 25 -29 47 -64 100 -159 244 -239 517 -291 134 -25 259 -79 323 -138 57 -53
132 -143 197 -237 21 -30 49 -67 63 -81 14 -15 52 -75 84 -135 92 -171 146
-243 291 -390 68 -69 98 -90 190 -137 150 -76 143 -69 93 -102 -24 -15 -56
-41 -73 -57 -16 -16 -59 -51 -95 -79 -94 -72 -186 -165 -231 -233 -43 -64 -47
-85 -24 -120 15 -23 14 -28 -31 -102 -74 -126 -95 -173 -115 -257 -11 -43 -37
-113 -59 -156 -22 -43 -40 -87 -40 -99 0 -40 -166 -213 -320 -335 -59 -46
-146 -176 -136 -202 8 -23 50 -35 120 -35 57 0 65 -3 98 -34 20 -19 57 -46 83
-61 l47 -28 -7 -56 c-3 -31 -13 -87 -21 -126 -39 -178 -58 -445 -34 -460 6 -4
4 -12 -5 -21 -13 -14 -21 -72 -18 -139 4 -79 2 -130 -6 -195 -35 -271 -44
-307 -95 -368 -18 -20 -37 -32 -53 -32 -33 0 -175 -61 -327 -140 -119 -62
-119 -62 -194 -58 -62 2 -76 0 -86 -14 -18 -29 4 -49 80 -77 61 -22 85 -25
204 -25 109 0 151 4 217 22 45 12 95 22 112 22 17 0 51 5 76 12 40 11 49 10
90 -10 30 -14 65 -22 103 -23 75 -1 124 -19 140 -52 18 -36 30 -34 72 11 l35
39 304 7 c248 5 331 3 445 -10 236 -26 205 -35 -143 -39 -49 -1 -76 -5 -79
-13 -2 -7 3 -15 12 -18 8 -3 165 2 348 11 237 12 397 15 556 10 142 -5 222 -4
222 2 0 14 -124 23 -307 23 -144 0 -192 10 -124 25 33 7 439 -3 452 -11 5 -3
17 0 26 5 10 6 16 11 13 11 -9 2 -63 7 -190 19 -256 23 -974 50 -1338 51 -95
0 -180 4 -190 9 -9 5 -24 12 -33 14 -10 3 -19 27 -26 77 -9 54 -20 84 -43 116
-37 52 -38 59 -11 144 20 68 45 156 63 225 5 22 19 60 30 85 12 25 25 64 30
88 21 110 26 129 37 157 12 28 42 205 61 360 11 85 26 131 46 139 19 7 68 -17
86 -42 7 -11 28 -27 46 -36 41 -21 110 -13 148 16 28 23 39 20 104 -28 32 -23
41 -25 96 -20 53 5 63 4 79 -14 10 -11 34 -24 54 -30 55 -15 188 -12 253 6 57
16 59 16 81 -3 34 -32 61 -36 157 -23 l90 12 41 -32 c51 -41 113 -50 170 -25
39 18 40 18 63 -4 32 -31 117 -39 170 -17 38 16 40 15 61 -4 17 -16 35 -20 86
-20 41 0 72 -5 86 -15 43 -30 212 -367 243 -485 7 -25 18 -56 25 -70 8 -14 19
-59 25 -100 6 -41 17 -104 25 -140 8 -36 15 -78 15 -95 0 -16 13 -82 29 -146
28 -116 97 -269 148 -329 l23 -28 -28 -7 c-15 -3 -49 -24 -77 -45 -44 -33 -58
-38 -115 -41 -55 -3 -65 -1 -68 13 -3 15 2 17 25 13 59 -11 69 29 36 145 -15
54 -79 156 -123 195 -38 34 -96 145 -130 250 -52 157 -96 253 -144 308 -24 29
-51 68 -61 87 -10 19 -33 52 -52 73 -40 45 -116 161 -139 214 -9 21 -19 70
-23 108 -3 39 -10 69 -16 68 -5 0 -16 -18 -23 -40 -27 -77 11 -171 167 -413
52 -79 111 -181 131 -225 34 -72 51 -112 116 -265 10 -24 53 -90 94 -146 78
-105 138 -211 142 -253 3 -20 -7 -30 -52 -56 -30 -17 -99 -66 -154 -109 -54
-42 -124 -90 -155 -106 -31 -16 -83 -49 -116 -74 -33 -25 -74 -51 -92 -56 -31
-11 -51 -49 -37 -72 14 -22 130 -1 339 61 39 12 112 28 164 35 51 8 98 19 104
25 6 6 23 11 39 11 15 0 39 5 54 12 24 11 28 10 46 -15 l21 -28 106 6 c58 3
136 10 173 16 36 5 119 16 185 24 65 9 156 23 203 32 82 15 289 26 788 39 122
3 222 10 222 15 0 5 -15 9 -34 9 -19 0 -37 4 -40 9 -6 8 86 21 155 21 21 0 41
4 44 10 9 14 -40 23 -88 16 -23 -4 -127 -9 -232 -11 -254 -6 -358 -14 -327
-28 12 -5 22 -14 22 -19 0 -14 -163 -9 -225 8 -42 10 -110 15 -225 16 -183 0
-326 12 -365 30 -15 7 -25 20 -25 32 0 29 -80 104 -131 121 -54 19 -69 32 -69
59 0 12 -21 57 -46 100 -37 63 -49 95 -60 165 -8 47 -21 115 -29 151 -9 36
-28 126 -44 200 -59 280 -104 415 -178 532 -23 35 -59 100 -81 144 l-40 80 76
-1 c68 0 81 3 116 28 21 15 48 27 60 27 12 0 39 9 61 20 22 11 51 20 66 20 37
0 44 12 69 120 28 120 36 230 19 273 -7 18 -16 75 -20 127 -4 52 -12 138 -19
190 -19 154 1 349 50 470 42 104 112 295 117 320 3 14 17 37 31 53 18 19 23
30 15 38 -13 13 -5 49 55 244 28 88 53 186 57 219 4 32 15 77 24 100 18 41 44
175 56 296 4 36 15 79 24 95 13 25 16 64 15 250 0 214 -3 242 -44 474 -5 30
-30 99 -55 155 -24 55 -41 104 -37 108 4 4 73 -15 152 -43 217 -76 252 -86
441 -125 154 -32 258 -48 354 -56 50 -5 44 29 -15 90 -29 28 -49 56 -46 61 4
5 19 12 35 16 32 7 56 29 47 43 -3 5 -36 13 -73 17 -176 18 -507 110 -535 150
-23 31 16 63 97 80 99 20 236 51 335 75 140 34 171 40 260 49 89 10 159 19
198 27 28 6 30 39 3 54 -11 5 -32 10 -48 10 -29 0 -73 24 -73 40 0 5 14 16 30
25 32 16 35 22 21 43 -10 17 -35 10 -276 -73 -195 -67 -498 -155 -535 -155
-17 0 -20 4 -15 22 7 21 7 21 -31 -2 -52 -32 -59 -35 -134 -66 -145 -59 -170
-65 -226 -58 -30 3 -54 10 -54 14 0 15 166 107 335 186 116 53 135 68 135 102
0 19 -4 23 -17 17 -10 -4 -34 -11 -53 -15 -49 -10 -202 -70 -220 -86 -9 -7
-38 -23 -65 -35 -28 -12 -62 -33 -77 -47 -16 -14 -28 -21 -28 -15 0 5 9 18 20
28 21 19 18 35 -6 35 -8 0 -38 -16 -67 -35 -105 -71 -106 -28 -1 75 150 149
235 315 195 379 -16 25 -122 27 -173 3 -24 -11 -54 -23 -68 -27 -25 -7 -110
-82 -110 -97 0 -20 38 0 113 59 42 34 130 57 175 46 32 -7 37 -13 40 -39 3
-30 -23 -102 -50 -138 -22 -28 -38 -12 -28 26 6 18 6 37 0 47 -10 18 -14 11
-24 -47 -8 -44 -81 -191 -111 -221 -61 -62 -77 39 -23 141 17 32 45 71 62 85
41 34 52 53 27 46 -35 -9 -101 -74 -129 -127 -24 -46 -27 -61 -27 -156 0 -88
4 -114 24 -163 l23 -57 -26 -40 c-14 -22 -33 -40 -41 -40 -24 0 -18 44 10 70
l24 23 -23 28 c-13 15 -29 52 -36 81 -7 29 -21 68 -31 86 -26 46 -24 82 11
159 17 37 29 72 26 77 -2 6 -19 -22 -37 -61 -20 -43 -40 -73 -49 -73 -8 0 -44
25 -79 55 -69 61 -158 110 -284 156 -83 31 -176 79 -298 154 -38 23 -101 56
-142 74 l-75 33 14 26 c8 15 14 37 14 50 0 12 10 30 22 40 83 66 128 116 133
151 3 20 10 55 16 79 13 57 0 80 -49 84 -30 2 -37 7 -37 25 0 11 -3 25 -7 29
-5 4 -8 2 -8 -5 0 -7 -23 -37 -52 -67 -28 -30 -49 -56 -47 -58 2 -3 31 9 64
25 67 33 108 38 103 13 -2 -10 -26 -23 -64 -35 -68 -21 -154 -88 -154 -120 0
-22 11 -23 78 -8 41 10 53 9 71 -4 l22 -15 -23 -16 c-12 -9 -29 -16 -37 -16
-28 0 -151 -41 -151 -50 0 -12 22 -13 53 -1 29 11 55 0 35 -16 -41 -32 -176
-71 -199 -57 -5 3 11 30 36 61 68 83 54 86 -27 7 -40 -39 -91 -83 -113 -99
-122 -89 -271 -253 -370 -405 -35 -52 -72 -103 -83 -113 -23 -21 -29 -16 -47
47 -9 29 -18 42 -34 44 -11 2 -21 -1 -21 -5 0 -17 39 -89 54 -103 18 -14 21
-46 6 -55 -14 -9 -100 32 -132 62 -27 26 -28 29 -23 117 4 90 28 196 44 196 4
0 14 -33 21 -72 15 -88 25 -108 50 -108 22 0 25 18 11 68 -11 36 -5 62 13 62
6 0 31 -14 55 -30 25 -17 57 -30 74 -30 l30 0 -20 23 c-11 12 -23 34 -27 49
-3 14 -29 52 -58 84 -41 44 -71 65 -138 96 -47 22 -96 45 -110 51 -13 7 -58
45 -98 85 -95 95 -121 106 -244 103 -113 -3 -112 -3 -68 77 31 58 48 136 32
146 -6 3 -34 -35 -63 -86 -28 -51 -67 -111 -85 -133 -92 -109 -428 -593 -469
-676 -14 -27 -29 -49 -33 -49 -5 0 -28 13 -53 28 -24 16 -57 33 -74 38 -29 10
-132 5 -235 -11 l-45 -7 -19 49 c-28 72 -94 159 -221 294 -168 179 -365 328
-493 373 -24 9 -73 31 -110 51 -85 44 -328 114 -522 151 -137 26 -154 31 -260
82 -118 56 -243 88 -368 96 -46 2 -86 7 -89 10 -3 3 13 23 36 43 30 27 63 76
109 165 59 112 88 153 240 333 106 125 180 205 191 205 10 0 44 9 77 21 53 18
73 19 189 13 72 -3 150 -10 175 -14 81 -14 383 -102 434 -126 27 -13 54 -24
58 -24 5 0 31 -15 58 -32 61 -41 131 -86 182 -116 35 -22 159 -140 317 -304
37 -38 76 -68 91 -72 37 -7 205 -143 333 -268 144 -141 190 -235 211 -428 8
-78 15 -105 25 -105 56 0 21 271 -52 411 -8 16 -40 58 -71 93 -31 36 -56 70
-56 77 0 16 61 51 130 76 163 58 202 69 277 78 45 5 99 13 120 18 21 5 72 15
113 22 41 6 104 18 140 25 36 8 97 17 135 20 39 3 126 15 193 27 68 11 189 28
268 37 84 9 143 20 142 26 -3 12 -2 12 -138 -4 -58 -6 -188 -18 -289 -26 -101
-9 -227 -24 -280 -35 -256 -51 -332 -63 -341 -54 -5 5 -12 27 -16 50 l-6 41
113 64 c66 37 107 65 97 67 -18 4 -90 -31 -158 -77 -25 -17 -52 -31 -61 -31
-11 0 -26 24 -46 73 -17 40 -44 93 -62 117 -17 23 -31 47 -31 51 0 16 208 139
234 139 9 0 31 8 49 17 l32 18 -55 6 c-37 5 -70 2 -102 -8 -41 -13 -48 -18
-48 -41 -1 -37 -82 -88 -340 -212 -102 -50 -150 -81 -150 -97 0 -18 7 -16 43
11 18 12 66 41 107 63 125 67 205 91 171 50 -8 -11 -6 -18 9 -32 34 -31 138
-209 140 -240 4 -51 2 -53 -57 -65 -83 -18 -225 -74 -302 -120 l-66 -40 -115
114 c-63 62 -145 136 -182 165 -68 53 -78 66 -56 73 20 7 -1 26 -47 41 -47 16
-111 64 -205 153 -90 85 -330 228 -440 262 -19 6 -62 19 -95 29 -70 21 -69 17
-40 163 9 47 18 99 20 115 2 17 11 75 20 130 9 55 21 129 26 165 9 62 48 242
70 323 11 40 8 54 -10 43 -10 -7 -47 -158 -80 -331 -12 -60 -30 -155 -41 -210
-11 -55 -24 -145 -30 -200 -14 -124 -26 -165 -48 -165 -29 1 -105 20 -137 35
-67 30 -312 48 -427 30 -56 -8 -62 3 -25 47 23 27 164 138 176 138 4 0 40 33
82 73 41 39 93 81 115 92 21 11 52 30 67 43 33 25 77 30 77 7 0 -8 4 -15 10
-15 5 0 9 6 7 13 -5 28 27 9 40 -23 11 -31 12 -15 7 128 -3 90 -2 162 3 162 5
0 14 -5 21 -12 9 -9 11 20 10 125 -1 93 2 141 10 149 9 9 13 4 18 -20 11 -56
19 -35 20 56 1 48 6 98 12 112 l11 25 0 -27 c2 -55 17 -34 35 49 11 49 25 87
33 90 8 3 12 12 9 20 -4 8 3 27 14 43 21 30 26 60 10 60 -5 0 -14 -10 -21 -21z
m-1380 -2240 c10 -15 21 -17 57 -12 40 5 44 4 44 -15 0 -21 -62 -82 -84 -82
-8 0 -16 17 -20 41 -6 35 -9 39 -21 29 -19 -16 -19 -34 -1 -50 8 -6 16 -32 18
-58 3 -50 28 -73 28 -25 0 22 13 39 64 81 63 51 95 62 125 43 11 -7 1 -23 -45
-70 -32 -34 -69 -75 -82 -91 -13 -17 -30 -30 -38 -30 -8 0 -14 -8 -14 -18 0
-26 -61 -102 -82 -102 -10 0 -18 6 -18 14 0 8 -3 22 -6 31 -5 11 0 18 14 21
13 4 18 12 15 24 -3 10 0 27 6 39 10 18 9 21 -9 21 -11 0 -20 -6 -20 -14 0 -8
-8 -24 -18 -36 -21 -26 -16 -105 6 -105 18 0 32 -25 32 -57 0 -16 4 -28 9 -28
5 0 17 -3 26 -7 15 -5 16 -3 5 17 -10 20 -10 25 3 35 10 7 14 20 10 33 -4 16
3 30 26 51 17 16 31 33 31 38 0 13 57 66 67 61 4 -1 8 10 8 26 1 32 38 69 64
64 10 -2 21 7 28 24 9 22 19 28 43 28 16 0 30 -4 30 -10 0 -5 -22 -32 -50 -60
-27 -28 -50 -54 -50 -58 0 -5 -16 -16 -35 -25 -27 -13 -35 -23 -35 -42 0 -14
-11 -37 -24 -50 -13 -13 -27 -36 -30 -51 -4 -15 -16 -40 -26 -55 -11 -14 -17
-29 -13 -32 3 -4 -2 -9 -11 -13 -15 -6 -15 -9 -3 -23 8 -9 18 -30 21 -47 5
-21 13 -31 24 -30 13 1 16 -6 14 -29 -2 -16 -5 -32 -7 -34 -6 -6 -92 69 -110
95 -9 14 -17 38 -17 54 -1 19 -5 27 -14 23 -8 -3 -20 9 -31 31 -9 20 -22 36
-29 36 -12 0 -44 121 -44 166 0 12 -4 26 -10 29 -15 9 -12 51 4 64 10 8 12 24
9 52 -5 33 -1 44 18 66 48 52 118 63 148 22z m455 -99 c23 -8 25 -12 15 -34
-16 -35 -64 -69 -77 -53 -13 17 -25 74 -17 87 8 13 46 13 79 0z m-89 -74 l17
-45 -27 -36 c-16 -19 -40 -45 -55 -55 -28 -20 -58 -80 -40 -80 5 0 28 25 50
56 47 62 63 72 87 53 15 -13 16 -11 10 10 -4 18 3 32 33 64 l38 41 11 -39 c6
-22 11 -54 11 -71 0 -17 7 -38 16 -45 15 -12 16 -10 10 19 -6 25 -4 32 8 32 8
0 20 -8 26 -17 9 -15 10 -12 6 14 -5 28 0 37 45 77 55 49 95 59 123 30 23 -23
19 -51 -9 -70 -14 -9 -35 -30 -46 -45 -18 -25 -18 -29 -4 -29 9 0 29 14 43 30
15 17 32 30 39 30 7 0 20 11 29 26 25 37 54 28 72 -23 13 -34 13 -44 3 -57
-21 -25 -48 -19 -56 12 -4 15 -10 21 -12 14 -3 -7 0 -26 6 -42 9 -27 6 -34
-39 -89 -27 -32 -63 -64 -79 -71 -17 -7 -32 -22 -35 -36 -7 -25 -25 -31 -42
-14 -7 7 -9 1 -6 -20 5 -37 -21 -80 -48 -80 -14 0 -20 -7 -20 -21 0 -12 -16
-41 -35 -65 -19 -23 -35 -52 -35 -63 0 -30 -21 -71 -37 -71 -9 0 -13 -13 -13
-39 0 -22 -8 -48 -18 -61 l-17 -21 -28 21 c-44 35 -49 52 -35 125 7 36 18 65
24 65 6 0 14 14 18 30 3 17 17 42 30 55 13 13 28 35 31 47 4 13 17 39 28 58
l20 35 -32 -30 c-18 -16 -42 -47 -52 -68 -11 -20 -28 -43 -39 -49 -12 -8 -20
-24 -20 -39 0 -15 -7 -32 -15 -39 -9 -8 -15 -29 -15 -56 0 -23 -5 -46 -11 -49
-16 -10 -56 33 -80 85 -17 38 -25 46 -43 43 -15 -3 -28 7 -50 37 -26 38 -27
42 -12 59 9 10 16 25 16 35 0 9 11 27 25 40 13 12 29 35 35 50 8 23 15 27 34
22 23 -6 24 -4 23 39 -1 25 -5 45 -9 45 -4 0 -19 -18 -33 -40 -14 -22 -30 -40
-35 -40 -5 0 -12 -11 -16 -25 -3 -13 -13 -30 -21 -37 -22 -18 -43 15 -43 65 0
30 4 40 19 44 14 3 19 13 19 32 -1 33 18 71 36 71 7 0 16 14 20 31 7 39 43 89
62 89 8 0 17 8 21 18 8 23 64 71 85 72 10 0 22 -16 33 -44z m250 34 c8 -12
-81 -104 -93 -96 -15 9 -22 78 -10 93 12 15 94 18 103 3z m4013 -62 c-4 -27
-48 -51 -86 -46 -26 3 -25 4 22 36 59 38 68 39 64 10z m-3690 -11 c10 -8 9
-14 -4 -28 -23 -25 -39 -24 -58 6 -20 30 -20 33 2 37 20 5 41 -1 60 -15z
m-1143 -28 c11 -17 -1 -21 -15 -4 -8 9 -8 15 -2 15 6 0 14 -5 17 -11z m1291
-20 c50 -19 91 -54 113 -96 15 -29 -4 -61 -52 -86 -19 -11 -40 -30 -46 -45
-11 -24 -11 -24 6 -11 10 7 37 31 61 52 31 27 48 36 62 32 15 -5 20 -2 20 14
0 11 5 23 11 26 15 10 96 -23 103 -42 7 -17 -80 -119 -121 -143 -25 -15 -30
-30 -10 -30 7 0 44 29 81 65 37 36 72 65 77 65 19 0 89 -51 89 -64 0 -8 -18
-29 -40 -46 -22 -17 -40 -36 -40 -42 0 -5 19 5 43 23 23 18 47 36 53 41 7 5
22 -1 38 -13 21 -16 26 -27 22 -45 -6 -21 -4 -23 17 -15 30 11 87 -22 87 -50
0 -10 7 -19 15 -19 23 0 85 -59 78 -76 -3 -8 1 -14 9 -14 25 0 51 -36 43 -60
-6 -19 -4 -21 13 -16 22 7 50 -21 72 -74 12 -30 12 -31 -76 -116 -49 -48 -104
-98 -124 -113 -19 -14 -78 -64 -131 -111 -103 -91 -212 -181 -262 -217 -32
-24 -91 -31 -102 -13 -3 6 -17 10 -31 10 -24 0 -189 83 -200 101 -3 5 2 19 10
31 18 26 20 38 6 38 -5 0 -10 -6 -10 -14 0 -8 -9 -21 -20 -29 -18 -13 -28 -10
-93 21 -94 45 -226 138 -237 168 -5 13 -15 22 -22 19 -13 -4 -175 132 -191
161 -7 12 1 33 33 84 5 8 11 27 14 42 4 15 13 33 21 42 8 8 15 25 15 39 0 30
45 81 65 73 11 -4 15 2 15 19 0 25 31 65 50 65 6 0 10 11 10 24 0 15 11 34 28
48 16 13 39 40 51 61 24 40 53 48 71 20 9 -15 10 -12 5 14 -7 36 8 73 31 73 8
0 20 12 26 26 7 15 23 27 40 31 15 3 30 13 33 23 3 9 14 25 25 35 19 17 21 17
42 -1 l21 -19 -6 33 c-8 38 -11 37 89 1z m2119 -123 c19 -8 77 -57 128 -109
50 -52 105 -102 120 -112 43 -28 47 -43 26 -110 -14 -42 -20 -87 -19 -150 1
-126 20 -163 116 -224 54 -34 73 -52 73 -68 1 -28 12 -29 35 -4 22 24 48 17
69 -19 13 -22 17 -54 17 -152 0 -155 10 -216 52 -313 57 -133 134 -192 289
-221 46 -9 85 -17 87 -19 9 -8 -27 -56 -97 -129 -130 -137 -169 -174 -199
-190 -28 -14 -31 -13 -108 30 -77 45 -141 105 -208 198 -34 48 -166 204 -249
296 -77 84 -192 186 -238 210 -20 10 -60 44 -90 75 -58 61 -95 85 -129 85 -12
0 -49 24 -82 55 -38 34 -79 60 -111 71 -27 9 -73 30 -101 47 -28 17 -61 37
-73 44 -43 26 -35 41 138 254 42 52 89 114 104 139 16 25 46 68 67 96 21 28
38 55 38 61 0 5 14 22 30 38 17 16 30 35 30 44 0 24 41 61 69 61 14 1 40 7 56
15 40 18 118 18 160 1z m1250 -96 c-10 -11 -41 -33 -68 -49 -40 -23 -55 -27
-72 -19 -18 8 -41 0 -129 -47 -142 -76 -147 -91 -6 -20 134 68 171 61 42 -7
-107 -57 -219 -100 -227 -87 -4 5 5 14 19 21 15 6 25 17 24 24 -8 41 148 173
205 175 18 0 52 6 77 13 25 8 69 14 99 15 54 1 54 1 36 -19z m41 -156 c-2 -21
287 -156 489 -228 111 -39 214 -96 271 -148 26 -24 60 -73 86 -123 l42 -83
-33 -63 c-34 -64 -111 -164 -160 -207 -14 -12 -54 -38 -89 -58 -39 -22 -67
-45 -73 -61 -16 -41 -41 -25 -60 40 -10 32 -24 66 -32 75 -8 10 -20 34 -27 55
-12 40 -52 72 -122 102 -32 13 -38 13 -38 1 0 -8 16 -24 35 -36 19 -12 46 -40
59 -63 27 -47 61 -155 52 -165 -7 -6 -156 44 -170 58 -5 5 -11 55 -15 111 -4
72 -10 104 -19 107 -11 3 -12 -16 -6 -102 5 -75 3 -106 -4 -106 -36 0 -218 42
-228 52 -14 14 -84 176 -84 193 0 6 -14 38 -30 72 -25 51 -29 69 -24 103 4 23
14 50 23 62 21 25 95 35 145 18 21 -7 40 -10 43 -7 13 13 -53 40 -110 44 -53
4 -67 2 -96 -19 -49 -33 -72 -69 -78 -120 -5 -45 -2 -55 98 -306 39 -97 38
-105 -35 -274 -37 -89 -47 -103 -69 -106 -47 -6 -149 59 -247 157 -69 69 -134
204 -133 276 1 28 -5 78 -13 113 -8 34 -13 66 -10 70 3 5 10 37 15 72 12 71
65 163 106 182 35 16 39 37 9 48 -32 13 -44 13 -44 0 0 -6 -24 -37 -54 -69
-30 -32 -59 -68 -65 -80 -12 -22 -41 -19 -41 6 0 25 80 152 106 170 14 9 83
44 154 79 138 67 189 74 65 8 -135 -70 -78 -62 70 10 80 39 143 76 141 82 -2
6 26 43 62 82 l67 72 36 -40 c20 -22 36 -47 35 -56z m-176 16 c-19 -17 -62
-43 -95 -59 -160 -76 -302 -141 -308 -141 -4 0 -7 6 -7 14 0 20 65 59 152 90
43 15 120 50 170 76 107 56 139 63 88 20z m-2372 -410 c27 -16 31 -23 23 -38
-9 -17 -1 -21 87 -41 53 -12 109 -28 125 -36 30 -16 52 -11 61 12 12 31 -14
46 -71 39 -45 -5 -61 -2 -106 21 l-52 26 35 15 c22 10 68 16 125 16 88 1 92 0
157 -39 56 -33 67 -44 63 -61 -7 -30 4 -35 31 -17 22 14 28 14 66 -2 24 -9 50
-23 59 -31 9 -8 61 -33 115 -55 142 -58 182 -105 139 -165 -8 -12 -28 -59 -45
-104 -50 -140 -78 -154 -236 -122 -132 27 -201 54 -272 107 -62 45 -109 100
-93 109 4 3 36 -6 70 -19 33 -14 65 -25 71 -25 20 0 10 17 -17 29 -38 17 -162
90 -195 116 -39 29 -122 139 -108 143 6 2 37 -14 68 -35 31 -22 95 -55 141
-74 47 -19 89 -35 93 -37 4 -2 8 2 8 10 0 16 -62 53 -116 67 -22 6 -58 26 -80
44 -48 42 -69 53 -115 61 -46 8 -67 -11 -48 -46 29 -55 122 -190 135 -195 16
-6 19 -43 4 -43 -30 0 -125 47 -211 106 -100 67 -117 72 -159 44 -12 -8 -8
-16 25 -51 50 -52 133 -119 148 -119 6 0 -24 32 -66 71 -42 39 -75 75 -71 80
11 18 38 8 112 -45 43 -30 107 -69 145 -87 59 -29 70 -32 88 -21 24 15 16 20
127 -85 54 -51 80 -68 146 -92 45 -16 117 -36 162 -44 122 -23 147 -37 191
-104 20 -32 61 -84 90 -116 65 -72 186 -240 206 -287 21 -51 163 -243 243
-329 86 -93 261 -244 314 -271 46 -24 51 -42 15 -58 -38 -18 -53 -15 -78 14
-12 14 -58 44 -102 66 -85 43 -127 75 -234 178 -83 80 -109 102 -142 124 -17
10 -42 50 -68 106 -23 50 -54 105 -69 123 -15 17 -46 57 -68 87 -59 80 -293
315 -334 335 -19 10 -45 26 -58 36 -34 26 -195 77 -282 89 -125 17 -240 60
-329 124 -52 37 -193 202 -189 222 3 15 275 294 286 294 4 0 22 -9 40 -20z
m4092 -5 c-12 -15 -153 -75 -175 -75 -28 0 -6 19 58 52 92 46 145 57 117 23z
m479 -91 c-9 -8 -38 -21 -65 -29 -27 -7 -76 -25 -109 -39 -33 -14 -70 -26 -82
-26 -13 0 -83 -15 -155 -34 -121 -31 -290 -66 -317 -66 -6 0 -11 4 -11 8 0 5
37 18 83 30 45 12 116 31 157 43 194 53 268 71 305 76 22 2 49 8 60 14 33 15
140 47 144 43 3 -3 -2 -11 -10 -20z m-772 -49 c-15 -14 -35 -25 -44 -25 -19 0
-14 6 24 31 41 26 52 22 20 -6z m-179 -37 c-6 -18 -28 -21 -28 -4 0 9 7 16 16
16 9 0 14 -5 12 -12z m62 -68 c0 -10 -6 -20 -14 -23 -9 -4 -12 -14 -9 -28 6
-22 8 -22 139 -16 155 6 219 -5 334 -57 82 -38 302 -99 418 -117 78 -12 92
-27 41 -46 -36 -14 -32 -24 22 -59 43 -27 55 -61 17 -50 -28 9 -156 35 -223
46 -69 11 -127 27 -215 60 -41 15 -120 41 -175 59 -443 137 -425 131 -425 156
0 15 10 31 26 42 14 9 30 27 35 40 10 27 29 22 29 -7z m-255 -200 c-57 -58
-75 -70 -75 -51 0 4 23 38 51 76 47 62 53 66 67 51 15 -15 11 -21 -43 -76z
m-2465 45 c0 -26 -28 -105 -38 -105 -15 0 -42 36 -42 56 0 44 21 74 52 74 23
0 28 -4 28 -25z m2652 -5 c78 -22 155 -162 193 -349 34 -170 34 -181 -15 -225
-56 -51 -67 -47 -75 22 -11 97 -34 181 -70 264 -19 43 -35 83 -35 88 0 5 14
25 30 44 17 19 26 37 21 40 -5 3 -23 -10 -40 -29 l-30 -35 -33 45 c-44 59 -56
57 -21 -5 l28 -49 -21 -28 c-32 -43 -165 -134 -186 -127 -12 3 -18 0 -18 -9 0
-25 -167 -137 -205 -137 -18 0 -16 12 21 130 21 68 28 78 74 113 28 20 55 37
61 37 10 0 24 -30 33 -72 4 -16 10 -28 15 -28 4 0 2 29 -4 65 l-12 65 51 38
c28 22 71 65 96 96 49 61 66 67 142 46z m-2454 -70 c39 -28 76 -60 83 -71 15
-30 4 -94 -30 -166 -37 -77 -49 -85 -75 -48 -12 15 -46 59 -78 98 l-56 70 28
56 c15 31 30 68 34 84 3 15 10 27 15 27 4 0 40 -23 79 -50z m1590 -81 c5 -34
19 -45 27 -20 4 14 15 21 30 21 35 0 133 -39 143 -56 12 -21 -4 -141 -34 -258
-26 -103 -72 -205 -120 -268 -16 -20 -47 -62 -69 -94 -22 -31 -65 -77 -95
-103 -30 -25 -116 -100 -191 -166 -151 -132 -226 -183 -309 -214 -108 -38
-163 -49 -245 -45 -70 4 -91 10 -174 50 -82 39 -109 59 -199 147 -57 56 -122
123 -144 150 l-40 47 20 43 c23 49 65 97 85 97 7 0 26 -14 43 -31 36 -38 153
-111 214 -135 74 -28 75 -31 44 -110 -15 -38 -36 -81 -46 -96 -23 -33 -24 -61
-2 -56 9 2 36 47 64 108 42 92 51 105 72 103 12 -1 54 -5 92 -9 60 -6 80 -3
157 21 125 40 135 27 103 -120 -30 -143 -30 -132 -7 -112 12 10 23 28 26 40
25 99 33 147 29 179 -2 19 1 45 7 56 6 11 58 48 116 83 88 52 122 80 201 166
53 57 101 102 107 100 23 -7 48 -55 55 -102 4 -26 12 -47 17 -47 17 3 8 87
-14 132 -27 56 -26 82 3 133 27 47 91 235 83 243 -10 10 -67 -100 -93 -181
-36 -113 -37 -113 -98 -60 -58 52 -117 83 -171 92 -36 6 -37 7 -31 42 3 20 20
65 39 101 19 36 40 90 47 120 7 30 18 60 26 66 10 8 41 6 121 -11 99 -20 108
-24 111 -46z m-1867 41 c24 -14 24 -41 -1 -90 -21 -41 -37 -49 -58 -28 -18 18
-15 44 11 88 25 45 22 43 48 30z m492 -167 c36 -38 83 -91 104 -119 68 -92
205 -257 235 -283 32 -27 121 -81 175 -106 44 -21 99 -19 115 3 7 9 39 35 72
57 57 38 59 38 73 20 46 -64 44 -63 38 -25 -14 81 -14 82 60 149 39 35 81 80
95 100 14 20 36 37 48 39 56 8 170 -57 231 -131 l24 -29 -94 -94 c-126 -128
-279 -234 -315 -220 -10 4 -14 23 -14 64 0 38 -5 64 -14 71 -11 9 -15 4 -20
-26 -3 -21 -6 -63 -6 -94 l0 -56 -77 -28 c-48 -18 -99 -29 -133 -30 -30 0 -60
-4 -67 -8 -7 -4 -27 0 -44 9 l-32 16 8 71 c11 115 11 122 -4 122 -15 0 -41
-73 -41 -120 0 -16 -4 -36 -8 -43 -24 -38 -237 95 -297 186 -16 25 -37 50 -46
55 -27 16 -49 1 -49 -33 0 -36 -37 -104 -76 -141 l-26 -24 -19 25 c-50 64
-193 267 -202 287 -7 16 -7 30 1 48 17 36 16 37 -17 30 -36 -8 -54 10 -122
123 -45 73 -46 77 -31 101 36 58 66 92 77 89 15 -4 144 -163 155 -192 6 -16 2
-36 -10 -64 -11 -23 -15 -42 -9 -42 5 0 14 11 19 25 7 17 17 25 34 25 24 0 31
-8 92 -108 24 -39 41 -52 66 -52 13 0 -1 25 -52 92 -39 51 -70 98 -70 105 0
21 48 159 67 192 10 17 23 31 29 31 6 0 41 -30 77 -67z m1713 36 c-29 -23 -36
-24 -36 -6 0 15 40 37 53 30 4 -3 -3 -13 -17 -24z m534 -54 c48 -111 77 -318
50 -351 -33 -39 -255 -133 -273 -115 -5 5 -10 48 -11 95 -2 123 -20 114 -24
-11 -2 -71 -7 -105 -16 -113 -8 -6 -83 -26 -167 -45 -85 -19 -159 -37 -166
-39 -35 -14 -20 51 55 234 31 77 44 98 68 109 16 7 58 33 94 56 99 66 116 64
125 -10 11 -83 31 -65 27 23 l-4 71 48 33 c26 18 70 50 98 71 28 20 56 37 64
37 7 0 21 -20 32 -45z m-470 -8 c0 -2 -13 -43 -30 -92 -39 -115 -52 -135 -91
-135 -27 0 -31 3 -26 23 3 12 13 58 23 102 10 44 22 86 27 93 8 10 97 19 97 9z
m-80 -272 c0 -3 -11 -31 -24 -63 -13 -31 -38 -99 -56 -150 -18 -51 -40 -97
-49 -101 -9 -5 -51 -14 -93 -21 -95 -16 -106 -35 -15 -27 35 3 70 7 78 9 23 5
8 -62 -36 -157 -7 -16 -16 -42 -20 -57 -12 -49 -26 -53 -128 -39 -87 13 -137
27 -137 40 0 3 7 15 15 25 8 11 15 31 15 45 -1 25 -2 24 -38 -17 -37 -42 -62
-54 -62 -29 0 22 78 79 99 72 21 -6 35 8 84 90 20 33 64 92 99 131 35 39 85
107 112 150 27 44 56 85 64 92 15 12 92 18 92 7z m781 -40 c4 -17 7 -61 8 -98
1 -60 4 -70 21 -74 11 -3 20 -11 20 -17 0 -6 -9 -19 -20 -29 -11 -9 -20 -25
-20 -36 0 -10 -7 -24 -16 -31 -8 -8 -20 -23 -26 -34 -11 -20 -11 -20 17 -2
l27 18 -7 -64 c-3 -34 -13 -108 -21 -163 -9 -55 -19 -129 -25 -165 -14 -97
-39 -159 -76 -189 -39 -31 -44 -51 -8 -27 14 9 29 14 34 12 12 -8 -11 -107
-67 -291 -27 -88 -52 -177 -56 -198 -4 -22 -16 -43 -29 -51 -50 -32 -377 -79
-471 -68 l-38 4 6 51 c4 27 20 79 37 115 16 36 29 70 29 77 0 7 15 59 34 116
l34 104 88 8 c145 12 209 13 207 2 -1 -5 -4 -27 -8 -47 -6 -31 -4 -38 9 -38
11 0 18 13 22 40 8 52 20 66 79 98 48 27 78 63 39 48 -68 -26 -215 -55 -306
-61 -98 -7 -108 -6 -108 10 0 23 38 181 55 230 8 22 19 67 25 100 5 32 14 63
19 68 9 9 236 76 271 80 9 1 15 -6 14 -18 -2 -35 -43 -238 -61 -302 -16 -60
-13 -87 7 -67 15 15 58 187 68 275 10 79 30 131 65 163 16 16 17 21 6 24 -23
8 -26 20 -18 70 4 26 8 81 8 122 2 133 15 188 58 231 44 45 65 46 74 4z m-169
-142 c7 -79 -14 -299 -29 -314 -27 -27 -273 -92 -290 -76 -3 4 2 73 13 154 21
162 30 184 92 203 20 7 57 24 82 38 64 35 114 61 121 62 3 0 9 -30 11 -67z
m-332 -120 c0 -53 -18 -199 -31 -255 -9 -35 -12 -36 -62 -43 -75 -10 -97 -28
-24 -20 46 5 58 4 63 -9 7 -18 -35 -224 -68 -335 l-22 -73 -196 6 c-205 7
-310 20 -322 39 -11 17 1 48 31 82 14 17 44 72 65 122 63 146 58 142 206 144
134 2 211 16 105 20 -33 1 -95 1 -137 -1 l-78 -2 0 31 c0 18 18 74 40 126 22
52 40 98 40 103 0 26 93 56 267 87 47 8 88 17 91 20 3 3 11 5 19 5 9 0 13 -14
13 -47z m-836 -276 c16 -11 13 -18 -32 -82 -28 -39 -79 -102 -114 -140 -35
-39 -74 -85 -87 -103 -12 -18 -30 -32 -39 -31 -9 0 -54 12 -99 28 -51 16 -83
23 -83 16 0 -12 82 -55 106 -55 8 0 28 -7 45 -16 l30 -15 -43 -51 c-24 -28
-65 -85 -93 -128 -120 -187 -186 -281 -201 -287 -17 -6 -141 25 -150 38 -3 5
-17 9 -31 9 -31 0 -163 59 -163 72 0 5 5 18 10 29 14 25 2 24 -19 -2 l-17 -21
-91 55 c-49 31 -107 75 -127 97 -42 47 -40 57 23 111 23 19 58 49 80 66 37 32
76 51 215 109 47 19 72 36 79 52 l11 25 126 -6 c99 -5 136 -2 177 10 56 18 79
12 47 -11 -24 -18 -13 -30 19 -22 32 8 156 90 284 187 58 43 108 79 112 79 4
0 15 -6 25 -13z m216 -51 c82 -11 85 -13 81 -36 -4 -33 -37 -97 -72 -141 -16
-20 -29 -42 -29 -49 0 -13 -46 -97 -68 -122 -19 -22 -65 -23 -157 -2 -38 9
-90 19 -115 23 -62 8 -62 28 -1 90 27 28 64 72 82 98 18 26 53 74 77 106 43
57 46 59 81 52 20 -4 74 -13 121 -19z m-265 -373 c138 -27 155 -33 155 -50 0
-9 -24 -62 -54 -117 -29 -56 -62 -126 -74 -156 -11 -31 -35 -84 -52 -119 l-33
-64 -111 6 c-122 7 -306 33 -319 47 -5 4 -6 17 -3 28 11 33 214 332 269 394
49 57 50 57 96 52 25 -2 82 -12 126 -21z m538 -59 c98 -4 180 -11 183 -15 5
-8 -106 -378 -130 -434 l-13 -29 -99 3 c-54 1 -102 5 -107 8 -4 3 -85 7 -178
9 -94 2 -175 6 -180 10 -18 11 -8 66 25 132 19 37 41 91 50 121 9 30 24 66 33
80 10 14 29 48 43 75 29 59 46 65 135 55 33 -4 140 -11 238 -15z m-1676 -169
c48 -41 101 -81 119 -90 33 -15 49 -39 38 -56 -3 -6 -3 -17 0 -26 6 -14 9 -14
22 5 19 27 39 28 85 3 20 -11 63 -24 95 -30 95 -17 198 -54 202 -72 1 -8 -22
-53 -53 -98 -30 -46 -55 -89 -55 -95 0 -6 -9 -28 -20 -49 -11 -20 -20 -43 -20
-49 0 -28 -63 -210 -74 -214 -17 -7 -271 51 -339 76 -72 27 -84 42 -69 84 7
18 12 38 12 45 0 7 9 20 20 29 12 10 41 62 66 117 25 55 61 119 80 141 28 35
31 43 17 48 -38 15 -133 -130 -209 -319 -19 -48 -39 -81 -48 -83 -9 -2 -66 24
-126 58 -99 56 -110 65 -110 90 0 26 95 238 130 290 10 14 27 51 39 84 29 79
91 186 108 186 2 0 42 -34 90 -75z m813 -286 c47 -5 120 -12 162 -15 42 -4 82
-10 88 -14 9 -6 -1 -40 -38 -126 -27 -66 -52 -130 -55 -144 -5 -25 -17 -62
-43 -130 -7 -19 -16 -53 -20 -74 -9 -54 10 -39 26 21 7 27 16 53 21 58 4 6 17
44 29 85 12 41 30 89 41 106 10 17 28 60 39 95 24 79 42 105 76 112 15 2 108
0 208 -6 99 -5 204 -11 231 -12 134 -5 132 -3 105 -91 -12 -38 -30 -89 -40
-114 -48 -115 -58 -188 -26 -177 17 6 36 48 36 82 0 17 6 40 14 51 8 11 24 57
36 102 35 139 20 128 183 136 78 3 153 7 167 9 14 1 24 -2 24 -8 -1 -5 -7 -66
-14 -135 -6 -69 -18 -156 -26 -193 -17 -83 -18 -128 -2 -162 6 -14 9 -27 6
-30 -16 -17 -216 -43 -351 -46 l-92 -2 -3 52 c-3 58 -22 70 -22 14 0 -68 0
-68 -187 -65 -219 4 -395 23 -673 71 -237 41 -320 61 -320 76 0 20 36 116 64
171 14 29 26 56 26 60 0 5 28 67 62 137 l63 129 60 -7 c33 -3 98 -10 145 -16z
m1460 -4 c0 -12 -52 -160 -83 -235 -19 -47 -49 -128 -67 -180 -52 -149 -80
-167 -80 -50 0 46 7 88 20 122 11 29 20 76 21 103 0 51 22 201 30 209 4 4 127
34 147 35 6 1 12 -1 12 -4z m-2587 -288 c20 -11 37 -25 37 -29 0 -5 -17 -6
-37 -2 -34 6 -36 5 -23 -9 19 -19 105 -47 144 -47 50 0 56 -10 49 -68 -3 -28
-11 -56 -17 -62 -13 -10 -136 48 -214 102 -42 29 -43 31 -37 71 13 87 17 89
98 44z m292 -137 c64 -19 118 -33 290 -77 33 -8 98 -18 145 -22 104 -10 278
-40 303 -53 10 -5 17 -12 15 -16 -2 -4 -16 -31 -32 -60 -26 -47 -33 -52 -63
-52 -39 0 -42 -10 -8 -30 23 -15 24 -17 9 -44 -8 -16 -13 -34 -11 -40 2 -6 14
9 26 33 l23 44 81 -7 c45 -3 99 -6 120 -6 45 0 46 -10 11 -76 -50 -94 -116
-278 -130 -363 -8 -50 -11 -112 -8 -151 8 -81 -2 -92 -104 -113 -91 -18 -108
-14 -123 30 -20 61 -9 267 18 348 10 28 17 52 18 55 0 3 15 40 33 82 35 84 41
112 18 88 -22 -24 -106 -240 -106 -273 0 -17 -5 -57 -12 -88 -9 -42 -9 -80 -1
-141 5 -46 7 -86 4 -90 -3 -3 -31 9 -61 28 -30 19 -74 43 -97 54 -54 26 -63
44 -63 119 0 87 24 177 84 316 73 168 97 209 124 213 18 3 21 8 16 28 -4 15 0
34 10 49 9 13 16 32 16 42 -1 18 -12 7 -75 -71 -19 -24 -23 -25 -75 -15 -30 5
-69 12 -86 14 -26 5 -31 9 -27 25 6 24 -15 27 -31 4 -11 -14 -20 -14 -95 7
-52 14 -86 29 -92 41 -7 14 -13 15 -27 7 -13 -8 -30 -4 -74 16 -68 31 -74 38
-54 66 10 15 12 28 6 45 -9 23 -4 54 9 54 3 0 38 -9 76 -20z m-367 -7 c15 -9
42 -30 60 -45 18 -15 41 -28 52 -28 10 0 32 -12 49 -26 l30 -25 -29 -41 c-17
-23 -30 -46 -30 -52 0 -6 -9 -17 -20 -24 -23 -14 -93 -119 -133 -198 -32 -64
-84 -215 -93 -271 -8 -51 -20 -53 -59 -13 -16 17 -47 36 -68 42 -36 11 -38 14
-33 42 7 37 42 109 91 190 41 68 44 82 12 61 -23 -14 -36 -38 -102 -178 -15
-32 -34 -61 -43 -64 -20 -8 -82 59 -82 90 0 81 292 428 398 473 38 16 34 34
-8 34 -32 0 -45 13 -36 35 7 19 11 19 44 -2z m-128 -123 c-45 -39 -62 -39 -25
0 16 17 36 30 44 30 10 -1 4 -11 -19 -30z m463 -49 l48 -21 -16 -30 c-20 -38
-2 -40 29 -3 l23 27 60 -16 c32 -10 71 -22 86 -27 l27 -10 -61 -107 c-78 -138
-132 -260 -154 -354 -10 -41 -22 -83 -27 -92 -5 -10 -4 -36 2 -64 16 -69 3
-74 -70 -30 -70 41 -76 42 -102 20 -14 -14 -20 -15 -33 -4 -21 17 -12 77 29
195 18 50 32 95 32 100 0 6 7 26 16 45 9 19 31 69 49 110 18 41 43 89 56 106
23 31 30 54 15 54 -10 0 -62 -72 -86 -117 -35 -69 -139 -350 -145 -392 -11
-82 -57 -77 -96 9 -18 40 -41 50 -62 29 -33 -33 -38 50 -6 110 7 14 13 32 13
39 0 7 11 35 25 62 14 27 25 56 25 63 0 8 18 41 40 73 22 33 40 64 40 71 0 6
16 30 35 53 19 23 35 48 35 55 0 7 18 29 41 49 44 38 38 38 132 -3z m1027 -8
c47 -7 118 -17 158 -22 40 -4 77 -12 82 -17 13 -13 -27 -73 -54 -80 -12 -3
-55 -4 -96 -2 l-75 3 3 28 c3 34 -11 35 -32 2 -16 -24 -21 -25 -119 -25 -126
0 -148 10 -127 59 7 18 22 43 33 57 19 24 23 25 81 19 33 -4 99 -14 146 -22z
m1079 -22 c-6 -16 -19 -37 -29 -46 -13 -12 -17 -26 -14 -44 3 -14 -2 -46 -10
-70 -18 -50 -19 -54 -7 -47 4 3 18 34 31 68 36 101 60 117 60 42 0 -25 10 -68
23 -97 26 -61 28 -144 7 -327 -7 -63 -13 -153 -14 -200 -2 -93 -17 -128 -62
-148 -43 -20 -53 -15 -69 42 -31 107 -34 196 -13 354 30 220 31 230 18 210
-13 -22 -38 -156 -52 -283 -9 -89 -8 -111 11 -200 24 -117 17 -139 -45 -151
-66 -12 -85 35 -104 271 -15 185 -15 274 -1 320 7 22 14 51 15 65 4 49 18 95
36 115 9 11 20 40 23 64 3 24 12 50 19 57 13 13 96 30 160 33 26 1 26 -1 17
-28z m-211 -16 c2 -2 -30 -63 -44 -83 -1 -2 -30 -7 -65 -12 -48 -7 -69 -6 -84
4 -16 10 -25 10 -45 -1 -26 -13 -118 -17 -157 -7 -29 8 -31 46 -3 74 15 15 34
20 83 21 34 1 109 5 167 8 91 6 137 5 148 -4z m-443 -5 l25 -10 -23 -37 c-22
-35 -28 -38 -77 -41 -98 -6 -116 8 -85 68 15 28 19 30 75 30 32 0 70 -4 85
-10z m-1022 -52 c36 -8 38 -12 32 -36 -3 -14 -26 -65 -49 -112 -100 -198 -151
-420 -110 -478 8 -12 12 -27 9 -32 -12 -19 -85 -10 -135 15 -47 24 -52 24 -74
9 -23 -15 -25 -14 -42 10 -12 20 -15 39 -11 79 10 86 26 160 37 171 5 5 10 22
10 37 0 15 4 30 8 33 5 3 21 35 37 71 15 37 47 96 71 133 24 36 44 76 44 88 0
12 6 25 13 27 16 7 111 -2 160 -15z m769 -57 c3 -3 -9 -44 -28 -91 -53 -131
-94 -267 -105 -353 -9 -69 -7 -87 12 -154 20 -75 21 -76 2 -95 -15 -15 -36
-19 -89 -21 -96 -3 -122 6 -140 48 -26 64 -9 278 31 375 8 19 19 55 26 80 17
67 96 218 116 223 24 5 166 -4 175 -12z m192 -7 c20 -8 20 -28 1 -62 -8 -15
-29 -70 -47 -122 -30 -91 -42 -193 -39 -320 2 -53 29 -140 61 -190 37 -60 46
-90 26 -90 -8 0 -20 9 -26 19 -9 17 -18 19 -85 14 -92 -7 -103 0 -142 101 -22
56 -27 87 -27 151 0 112 14 214 35 255 9 20 21 54 25 75 4 22 22 70 41 108
l33 67 64 0 c36 0 71 -3 80 -6z m445 -3 c7 -5 11 -13 8 -18 -12 -19 -45 -199
-51 -273 -4 -41 -2 -109 4 -150 19 -138 31 -272 25 -290 -6 -20 -67 -50 -110
-53 -25 -2 -31 3 -41 33 -15 44 -46 279 -51 390 -4 69 1 109 25 213 16 70 33
131 36 135 4 3 31 9 59 13 78 9 81 9 96 0z m-200 -10 c15 -9 10 -37 -29 -166
-34 -110 -33 -136 17 -483 17 -122 13 -144 -25 -121 -17 11 -30 10 -72 -3 -29
-9 -58 -14 -66 -11 -20 7 -58 74 -90 158 -23 62 -27 85 -27 195 -1 108 3 139
27 230 16 58 39 129 52 158 l23 52 88 0 c48 0 94 -4 102 -9z m-2337 -44 c-11
-12 -30 -46 -42 -75 -25 -58 -43 -72 -89 -72 -25 0 -31 4 -31 21 0 25 99 131
143 153 38 18 48 4 19 -27z m201 -423 l58 -46 29 27 c30 29 50 27 50 -6 0 -11
20 -40 46 -64 l45 -44 -2 -123 c-2 -164 -42 -435 -73 -498 -7 -14 -19 -54 -26
-90 -7 -36 -30 -110 -51 -165 -20 -55 -47 -141 -60 -192 -20 -79 -22 -97 -11
-126 28 -78 7 -95 -67 -57 -43 21 -83 64 -111 119 -18 36 -18 38 10 196 18
106 30 218 35 330 4 104 17 233 33 330 28 167 32 252 18 347 -8 54 -3 108 11
108 4 0 33 -21 66 -46z m-169 -1339 c21 -31 16 -40 -17 -31 -32 8 -65 55 -46
67 17 10 42 -4 63 -36z m1456 -285 c0 -5 -4 -10 -9 -10 -6 0 -13 5 -16 10 -3
6 1 10 9 10 9 0 16 -4 16 -10z m2895 -350 c-3 -5 -26 -10 -50 -10 -24 0 -47 5
-50 10 -4 6 15 10 50 10 35 0 54 -4 50 -10z m-1825 -4 c0 -3 -4 -8 -10 -11 -5
-3 -10 -1 -10 4 0 6 5 11 10 11 6 0 10 -2 10 -4z m-75 -66 c-3 -5 -10 -10 -16
-10 -5 0 -9 5 -9 10 0 6 7 10 16 10 8 0 12 -4 9 -10z"/>
<path d="M160 6907 c0 -25 -22 -52 -33 -40 -4 3 -7 -12 -7 -35 0 -23 5 -42 10
-42 6 0 10 11 10 24 0 24 24 41 42 30 5 -4 8 11 6 37 -3 45 -28 69 -28 26z"/>
<path d="M850 6671 c0 -36 -6 -38 -33 -13 -19 16 -19 16 -12 -8 10 -31 10 -49
0 -73 -6 -16 -4 -18 16 -15 16 2 24 10 25 23 1 11 2 24 3 29 2 14 41 -25 41
-41 0 -7 5 -13 10 -13 14 0 13 6 -6 42 -12 24 -14 36 -5 55 14 30 14 36 1 28
-6 -4 -17 -1 -25 5 -13 11 -15 7 -15 -19z"/>
<path d="M689 6669 c-9 -17 -7 -24 8 -38 18 -17 18 -16 19 21 2 42 -9 49 -27
17z"/>
<path d="M597 6563 c-10 -10 -8 -43 2 -43 9 0 21 24 21 41 0 11 -14 12 -23 2z"/>
<path d="M756 6544 c-22 -21 -20 -47 5 -70 20 -18 20 -18 14 7 -3 13 -1 37 4
52 12 30 1 35 -23 11z"/>
<path d="M504 6497 c3 -10 6 -31 6 -45 0 -16 8 -32 19 -39 18 -12 19 -10 14
25 -3 20 -15 46 -26 57 -18 18 -19 18 -13 2z"/>
<path d="M460 6386 c0 -22 11 -46 21 -46 5 0 9 14 9 30 0 20 -5 30 -15 30 -8
0 -15 -6 -15 -14z"/>
<path d="M646 6217 c3 -10 9 -15 12 -12 3 3 0 11 -7 18 -10 9 -11 8 -5 -6z"/>
<path d="M1295 6690 c3 -5 8 -10 11 -10 2 0 4 5 4 10 0 6 -5 10 -11 10 -5 0
-7 -4 -4 -10z"/>
<path d="M1205 6638 c9 -28 32 -54 41 -46 10 11 -7 48 -28 59 -18 10 -19 8
-13 -13z"/>
<path d="M1150 6554 c0 -12 7 -27 15 -34 19 -16 19 -10 0 26 -13 25 -15 26
-15 8z"/>
<path d="M1070 6496 c0 -8 5 -18 10 -21 6 -3 10 3 10 14 0 12 -4 21 -10 21 -5
0 -10 -6 -10 -14z"/>
<path d="M1310 6481 c-16 -30 -13 -46 6 -31 26 22 37 50 20 50 -9 0 -20 -9
-26 -19z"/>
<path d="M1090 6451 c0 -6 5 -13 10 -16 6 -3 10 1 10 9 0 9 -4 16 -10 16 -5 0
-10 -4 -10 -9z"/>
<path d="M982 6390 c1 -13 9 -25 16 -28 17 -5 15 23 -4 39 -14 11 -15 10 -12
-11z"/>
<path d="M1226 6384 c-4 -15 -5 -29 -2 -32 10 -9 36 20 36 39 0 29 -27 23 -34
-7z"/>
<path d="M1605 6350 c-10 -11 -14 -20 -8 -20 5 0 18 9 28 20 10 11 14 20 8 20
-5 0 -18 -9 -28 -20z"/>
<path d="M1160 6315 c0 -17 9 -29 30 -40 l30 -15 -12 27 c-24 57 -48 71 -48
28z"/>
<path d="M1400 6329 c0 -5 5 -7 10 -4 6 3 10 8 10 11 0 2 -4 4 -10 4 -5 0 -10
-5 -10 -11z"/>
<path d="M917 6299 c-13 -24 -21 -29 -38 -24 -18 6 -21 4 -15 -10 8 -21 -39
-95 -60 -95 -8 0 -14 -11 -14 -25 0 -35 10 -31 43 16 16 23 37 43 47 46 11 3
20 16 22 32 2 15 12 30 26 36 12 5 22 17 22 27 0 29 -15 28 -33 -3z"/>
<path d="M1725 6309 c-11 -17 1 -21 15 -4 8 9 8 15 2 15 -6 0 -14 -5 -17 -11z"/>
<path d="M1521 6270 c-24 -22 -41 -43 -37 -47 7 -7 63 42 77 70 14 24 9 22
-40 -23z"/>
<path d="M1306 6273 c-10 -10 -7 -53 4 -53 8 0 30 31 30 43 0 8 -28 16 -34 10z"/>
<path d="M1660 6239 c0 -5 5 -7 10 -4 6 3 10 8 10 11 0 2 -4 4 -10 4 -5 0 -10
-5 -10 -11z"/>
<path d="M1092 6217 c-24 -25 -28 -37 -12 -37 11 0 45 48 38 55 -2 3 -14 -5
-26 -18z"/>
<path d="M970 6221 c0 -5 5 -13 10 -16 6 -3 10 -2 10 4 0 5 -4 13 -10 16 -5 3
-10 2 -10 -4z"/>
<path d="M1796 6214 c-5 -14 -4 -15 9 -4 17 14 19 20 6 20 -5 0 -12 -7 -15
-16z"/>
<path d="M1597 6182 c-35 -37 -36 -64 -1 -31 29 27 49 59 36 59 -4 0 -20 -13
-35 -28z"/>
<path d="M1955 6199 c-12 -19 5 -23 22 -6 16 16 16 17 1 17 -9 0 -20 -5 -23
-11z"/>
<path d="M1253 6185 c-3 -9 -3 -18 0 -21 9 -9 27 6 27 22 0 19 -19 18 -27 -1z"/>
<path d="M1005 6151 c4 -12 -1 -32 -11 -50 -10 -17 -14 -36 -10 -47 6 -15 13
-8 37 35 27 50 38 83 23 68 -4 -3 -15 -2 -26 4 -17 9 -19 8 -13 -10z"/>
<path d="M1678 6098 c-89 -93 -121 -134 -116 -150 2 -6 18 8 35 33 17 24 56
71 88 104 73 78 79 85 70 85 -4 0 -39 -33 -77 -72z"/>
<path d="M1910 6145 c-8 -9 -8 -15 -2 -15 12 0 26 19 19 26 -2 2 -10 -2 -17
-11z"/>
<path d="M2037 6153 c-10 -9 -9 -23 2 -23 5 0 11 7 15 15 5 15 -5 20 -17 8z"/>
<path d="M1176 6079 c-15 -22 -26 -47 -24 -55 2 -9 18 7 40 40 21 33 31 56 23
56 -7 0 -24 -18 -39 -41z"/>
<path d="M1535 6111 c-6 -11 9 -23 19 -14 9 9 7 23 -3 23 -6 0 -12 -4 -16 -9z"/>
<path d="M750 6080 c0 -5 4 -10 9 -10 6 0 13 5 16 10 3 6 -1 10 -9 10 -9 0
-16 -4 -16 -10z"/>
<path d="M1337 6083 c-4 -3 -7 -11 -7 -17 0 -6 5 -5 12 2 6 6 9 14 7 17 -3 3
-9 2 -12 -2z"/>
<path d="M1797 6033 c-4 -3 -7 -11 -7 -17 0 -6 5 -5 12 2 6 6 9 14 7 17 -3 3
-9 2 -12 -2z"/>
<path d="M1913 6025 c-9 -25 4 -29 17 -6 7 15 7 21 0 21 -6 0 -13 -7 -17 -15z"/>
<path d="M1436 5988 c-9 -12 -14 -24 -11 -26 6 -7 24 8 35 29 15 27 -5 25 -24
-3z"/>
<path d="M1762 5998 c-7 -7 -12 -17 -12 -23 0 -5 -9 -16 -20 -23 -20 -12 -27
-32 -11 -32 10 0 66 79 59 85 -2 3 -10 -1 -16 -7z"/>
<path d="M1110 5975 c0 -8 2 -15 4 -15 2 0 6 7 10 15 3 8 1 15 -4 15 -6 0 -10
-7 -10 -15z"/>
<path d="M916 5941 c-4 -7 -5 -15 -2 -18 9 -9 19 4 14 18 -4 11 -6 11 -12 0z"/>
<path d="M1340 5858 l-21 -43 31 35 c31 35 37 50 20 50 -5 0 -19 -19 -30 -42z"/>
<path d="M1493 5878 c-32 -37 -66 -89 -60 -94 5 -5 39 36 72 89 21 33 16 35
-12 5z"/>
<path d="M1657 5873 c-4 -3 -7 -11 -7 -17 0 -6 5 -5 12 2 6 6 9 14 7 17 -3 3
-9 2 -12 -2z"/>
<path d="M1735 5810 c-3 -5 -1 -10 4 -10 6 0 11 5 11 10 0 6 -2 10 -4 10 -3 0
-8 -4 -11 -10z"/>
<path d="M1598 5793 c-30 -36 -30 -47 0 -19 18 17 32 31 32 33 0 9 -19 1 -32
-14z"/>
<path d="M4841 5781 c-15 -10 -8 -12 133 -36 72 -12 101 -23 153 -56 65 -41
97 -47 52 -10 -43 36 -135 80 -185 90 -83 16 -139 20 -153 12z"/>
<path d="M2175 5580 c3 -5 11 -10 16 -10 6 0 7 5 4 10 -3 6 -11 10 -16 10 -6
0 -7 -4 -4 -10z"/>
<path d="M2255 5530 c3 -5 16 -10 28 -10 18 0 19 2 7 10 -20 13 -43 13 -35 0z"/>
<path d="M3745 5051 c-6 -11 9 -23 19 -14 9 9 7 23 -3 23 -6 0 -12 -4 -16 -9z"/>
<path d="M5996 4589 c-11 -11 -17 -21 -14 -24 2 -3 13 4 23 15 24 26 16 33 -9
9z"/>
<path d="M5686 3696 c-19 -63 -20 -92 -5 -101 16 -10 22 0 30 53 4 26 11 59
15 75 5 21 3 27 -9 27 -10 0 -21 -19 -31 -54z"/>
<path d="M4125 4105 c-16 -14 -35 -25 -41 -25 -20 0 -111 -89 -157 -153 -25
-34 -59 -75 -77 -92 -36 -34 -65 -83 -55 -93 4 -4 19 9 34 28 14 19 50 59 80
89 29 31 74 84 99 119 35 50 57 69 101 91 31 14 57 34 59 44 5 23 -7 21 -43
-8z"/>
<path d="M736 9241 c-9 -10 -21 -44 -26 -75 -6 -36 -18 -68 -34 -87 -29 -34
-26 -71 4 -44 15 14 18 13 33 -3 10 -10 17 -24 17 -30 0 -7 7 -12 16 -12 11 0
14 5 9 18 -4 9 -9 43 -12 74 -5 45 -1 68 16 107 25 59 25 57 7 64 -8 3 -21 -2
-30 -12z"/>
<path d="M7125 9249 c-10 -15 3 -25 16 -12 7 7 7 13 1 17 -6 3 -14 1 -17 -5z"/>
<path d="M7239 9236 c11 -13 33 -16 103 -16 88 0 90 -1 85 -22 -3 -12 -2 -30
4 -40 12 -23 75 -25 107 -2 17 11 35 13 80 8 47 -5 62 -3 75 11 24 23 21 44
-5 50 -29 6 -130 13 -318 21 -132 6 -143 5 -131 -10z"/>
<path d="M1695 9210 c-3 -5 -1 -10 4 -10 6 0 11 5 11 10 0 6 -2 10 -4 10 -3 0
-8 -4 -11 -10z"/>
<path d="M3683 9198 c-37 -14 -65 -34 -97 -70 -40 -46 -63 -88 -49 -88 8 0 69
47 91 69 9 10 33 23 52 30 47 16 80 39 80 55 0 23 -23 24 -77 4z"/>
<path d="M1027 9190 c-5 -16 -37 -219 -37 -235 0 -5 9 4 19 20 26 41 48 176
34 207 -8 17 -12 19 -16 8z"/>
<path d="M1665 9157 c-22 -53 -17 -70 6 -18 11 24 17 46 14 49 -2 3 -12 -11
-20 -31z"/>
<path d="M3041 9109 c-25 -57 -40 -130 -24 -114 18 18 63 149 54 158 -4 4 -18
-15 -30 -44z"/>
<path d="M7295 9146 c-81 -14 -111 -28 -120 -56 -5 -17 -15 -19 -68 -18 -109
2 -468 -15 -472 -22 -3 -4 40 -13 96 -20 65 -8 99 -16 96 -24 -4 -12 -22 -13
-347 -2 -332 11 -565 11 -565 0 0 -5 20 -10 45 -10 56 -2 127 -21 136 -36 5
-8 0 -9 -17 -4 -35 11 -391 20 -436 11 l-38 -8 33 -9 c17 -5 32 -13 32 -18 0
-17 -61 -11 -86 9 -20 16 -30 17 -62 9 -20 -5 -75 -11 -122 -14 -128 -5 -255
-22 -334 -45 -39 -11 -127 -24 -196 -29 -180 -13 -355 -38 -431 -60 -36 -11
-79 -20 -95 -19 l-29 0 30 13 c37 17 325 111 383 126 25 6 42 17 42 25 0 8 -6
15 -12 15 -24 -1 -184 -49 -298 -89 -142 -51 -500 -227 -500 -247 0 -15 21 -9
88 25 41 21 181 68 302 101 99 27 438 83 458 75 20 -7 244 12 347 30 185 33
235 37 480 40 171 2 260 6 268 14 8 8 -20 11 -107 11 -90 0 -117 3 -113 13 5
15 229 14 323 -2 48 -9 70 -9 86 0 14 8 60 9 153 4 106 -6 142 -4 185 9 37 11
94 16 184 16 165 0 258 13 319 45 40 21 63 25 129 25 47 0 93 6 111 14 18 8
50 20 72 27 57 17 155 67 155 79 0 12 -14 11 -105 -4z"/>
<path d="M1067 9080 c-4 -8 -18 -59 -32 -113 -14 -53 -35 -118 -47 -143 -14
-33 -17 -49 -9 -57 13 -13 61 85 61 125 0 15 5 30 10 33 6 3 10 -3 10 -15 0
-36 -31 -164 -46 -187 -8 -12 -14 -27 -14 -33 0 -6 -10 -24 -22 -40 -16 -23
-19 -33 -10 -42 8 -8 14 -4 23 15 19 41 31 32 14 -10 -9 -20 -19 -41 -24 -47
-12 -15 -51 -135 -51 -158 0 -29 18 -12 25 25 4 17 20 57 35 88 16 30 45 95
65 145 34 83 35 94 30 164 -4 41 -11 90 -17 108 -7 23 -6 47 2 82 12 48 9 93
-3 60z"/>
<path d="M3552 9014 c-12 -8 -22 -19 -22 -25 0 -16 24 -9 55 16 26 22 27 25
10 25 -11 0 -31 -7 -43 -16z"/>
<path d="M4874 8986 c-18 -14 -18 -15 -1 -22 19 -7 67 13 67 28 0 13 -45 9
-66 -6z"/>
<path d="M656 8912 c-4 -11 -2 -41 5 -66 9 -36 9 -56 -1 -92 -11 -38 -10 -54
5 -109 9 -36 21 -65 26 -65 9 0 4 34 -12 78 -15 40 -11 54 12 47 20 -7 21 -4
14 34 -4 27 -3 47 5 56 9 11 8 25 -6 62 -23 64 -40 82 -48 55z"/>
<path d="M4248 8892 c-27 -13 -46 -28 -43 -33 7 -10 107 33 107 46 -1 16 -15
13 -64 -13z"/>
<path d="M4130 8825 c-19 -14 -38 -25 -43 -25 -5 0 -20 -9 -34 -20 -24 -18
-24 -20 -6 -20 11 0 25 6 31 13 6 7 34 24 62 37 27 13 50 27 50 32 0 15 -26 8
-60 -17z"/>
<path d="M382 8828 c-33 -16 -37 -44 -37 -228 1 -154 3 -173 33 -281 32 -117
87 -239 138 -306 15 -20 30 -31 32 -25 2 6 -8 26 -22 44 -36 47 -95 191 -112
272 -8 38 -20 78 -25 88 -16 30 -25 313 -10 323 7 4 14 5 15 4 2 -2 11 -88 20
-191 13 -150 22 -206 46 -277 41 -125 64 -167 95 -173 29 -6 29 -5 14 42 -5
19 -14 73 -19 120 -5 47 -16 130 -25 185 -9 55 -19 131 -22 169 -4 42 -9 63
-14 54 -7 -13 1 -176 17 -330 10 -99 -11 -87 -26 15 -6 45 -18 109 -25 142
-18 81 -27 268 -15 300 7 18 7 33 0 46 -12 21 -24 23 -58 7z"/>
<path d="M2817 8817 c-19 -29 -22 -47 -7 -47 13 0 32 38 28 58 -2 12 -7 10
-21 -11z"/>
<path d="M3910 8690 c0 -5 7 -10 15 -10 8 0 15 5 15 10 0 6 -7 10 -15 10 -8 0
-15 -4 -15 -10z"/>
<path d="M791 8562 c-15 -117 -14 -142 4 -163 14 -15 14 -18 0 -32 -21 -21
-22 -253 -1 -282 13 -18 14 -18 19 1 4 10 6 57 5 104 0 47 5 150 11 229 9 102
9 147 2 154 -6 6 -11 26 -11 44 0 65 -18 31 -29 -55z"/>
<path d="M644 8563 c4 -21 11 -93 15 -160 4 -67 10 -125 14 -129 4 -4 7 9 7
28 0 20 6 51 14 69 13 31 12 41 -10 109 -13 41 -24 85 -24 98 0 12 -5 22 -11
22 -8 0 -9 -12 -5 -37z"/>
<path d="M1046 8560 c-11 -57 -57 -176 -102 -260 -38 -73 -43 -91 -15 -66 15
13 20 14 24 4 6 -16 6 -14 46 102 16 47 36 105 45 129 10 25 16 64 14 90 l-3
46 -9 -45z"/>
<path d="M558 8574 c-9 -13 -5 -98 12 -254 16 -153 20 -153 14 0 -8 175 -17
268 -26 254z"/>
<path d="M6170 8560 c0 -5 7 -10 15 -10 8 0 15 5 15 10 0 6 -7 10 -15 10 -8 0
-15 -4 -15 -10z"/>
<path d="M6230 8560 c-14 -9 1 -15 65 -26 22 -3 54 -14 70 -24 17 -10 100 -30
185 -45 85 -14 196 -36 245 -47 107 -24 138 -44 53 -34 -76 10 -81 -7 -7 -23
33 -6 102 -31 152 -55 51 -24 100 -46 110 -49 10 -4 17 -16 17 -30 0 -32 26
-54 153 -127 l109 -63 -31 -30 c-28 -29 -32 -30 -69 -19 -22 7 -48 12 -58 12
-38 -1 13 -27 76 -39 33 -7 76 -19 95 -26 46 -20 100 -19 120 1 14 14 14 19 2
38 -20 30 -126 115 -164 132 -17 7 -34 22 -38 33 -3 10 -39 44 -80 75 -41 31
-81 69 -89 85 -27 52 -237 147 -387 176 -45 8 -106 22 -137 30 -32 8 -113 21
-182 30 -69 9 -141 20 -161 24 -21 5 -43 5 -49 1z"/>
<path d="M4922 8419 c6 -17 188 -26 188 -9 0 5 -15 10 -34 10 -18 0 -61 3 -96
7 -51 5 -62 4 -58 -8z"/>
<path d="M5156 8411 c-7 -11 56 -23 78 -15 14 5 15 9 4 15 -17 11 -75 11 -82
0z"/>
<path d="M5285 8412 c-13 -13 -2 -22 28 -22 36 -1 111 -15 297 -56 69 -15 142
-26 163 -25 34 1 196 -43 322 -89 134 -48 195 -62 240 -56 54 9 94 -7 215 -88
46 -31 91 -55 98 -54 27 6 -231 176 -368 243 -75 37 -181 68 -192 57 -12 -12
-9 -14 74 -41 72 -24 129 -57 136 -80 8 -25 -70 -4 -223 59 -79 33 -206 76
-282 96 -76 19 -154 39 -173 44 -63 16 -158 22 -181 10 -11 -6 -28 -8 -37 -5
-21 9 -110 14 -117 7z m242 -28 c-3 -3 -12 -4 -19 -1 -8 3 -5 6 6 6 11 1 17
-2 13 -5z m88 -14 c3 -5 1 -10 -4 -10 -6 0 -11 5 -11 10 0 6 2 10 4 10 3 0 8
-4 11 -10z"/>
<path d="M1755 8370 c-3 -5 -1 -10 4 -10 6 0 11 5 11 10 0 6 -2 10 -4 10 -3 0
-8 -4 -11 -10z"/>
<path d="M2630 8273 c-30 -48 -71 -107 -92 -131 -41 -47 -49 -69 -20 -57 54
23 70 12 213 -154 64 -74 93 -42 42 47 -32 57 -77 106 -121 134 -58 35 -59 59
-6 138 25 39 50 72 55 76 13 8 11 34 -3 34 -7 -1 -38 -40 -68 -87z"/>
<path d="M4410 8347 c-143 -28 -160 -38 -357 -218 -91 -84 -143 -140 -164
-177 -45 -80 -217 -247 -270 -264 -28 -8 -48 -22 -58 -40 -9 -15 -25 -29 -36
-32 -43 -11 -199 -90 -184 -93 8 -2 51 12 96 31 111 47 522 163 546 153 8 -3
54 3 103 12 49 10 161 26 249 35 88 9 203 22 255 29 116 15 779 14 890 -1 41
-6 120 -15 175 -22 55 -6 152 -18 215 -27 63 -8 144 -19 180 -23 36 -5 94 -13
130 -19 36 -6 200 -20 365 -31 165 -12 327 -26 360 -31 33 -6 71 -10 85 -10
59 2 113 -1 235 -10 72 -6 207 -12 300 -14 95 -1 216 -10 274 -19 72 -12 129
-15 180 -10 42 3 101 1 132 -4 32 -6 135 -16 230 -22 404 -25 767 -74 1079
-145 36 -9 117 -25 180 -36 112 -20 354 -75 630 -143 245 -60 331 -79 558
-121 40 -7 83 -20 96 -28 12 -8 78 -22 146 -32 69 -9 193 -28 275 -42 83 -13
195 -29 250 -33 55 -5 145 -16 200 -25 55 -9 141 -20 190 -25 50 -5 153 -16
230 -24 77 -8 187 -21 245 -27 58 -6 164 -22 235 -35 156 -29 145 -28 145 -6
0 15 -14 21 -77 31 -43 7 -96 14 -118 16 -22 2 -62 9 -90 15 -27 6 -102 18
-166 25 -64 8 -129 19 -145 25 -33 13 -290 45 -439 55 -55 4 -108 9 -117 11
-42 12 -11 22 85 27 56 4 145 11 197 16 52 5 192 19 310 30 118 12 240 26 270
31 30 5 108 12 173 15 80 5 117 11 117 19 0 16 -150 11 -400 -14 -209 -21
-321 -31 -578 -53 -169 -15 -382 -13 -442 3 -19 6 -75 10 -125 10 -98 1 -254
21 -298 39 -16 6 -43 11 -61 11 -19 0 -53 7 -77 15 -24 9 -97 25 -164 35 -157
26 -355 66 -362 74 -13 13 6 14 127 6 185 -13 333 -21 350 -19 8 0 130 1 270
0 220 -1 253 1 237 13 -14 10 -76 15 -275 19 -141 3 -268 5 -282 5 -67 -2
-250 11 -262 18 -7 5 -71 12 -143 15 -188 10 -454 38 -477 50 -11 6 -45 15
-77 19 -142 22 -230 39 -276 54 -49 16 -89 23 -255 45 -47 7 -121 18 -165 26
-44 7 -116 19 -160 25 -44 6 -109 16 -145 22 -36 7 -110 12 -166 13 -55 1
-105 4 -111 8 -6 4 -71 9 -144 12 -202 9 -379 22 -429 34 -25 6 -66 10 -91 11
-26 0 -100 11 -165 25 -137 29 -157 31 -131 11 9 -7 17 -16 17 -20 0 -10 -111
-7 -170 4 -29 5 -116 12 -194 14 -77 3 -195 12 -261 20 -66 8 -201 18 -300 21
-213 8 -459 29 -496 44 -15 5 -35 8 -45 5 -11 -3 -57 0 -104 6 -425 55 -1068
86 -1260 60 -41 -5 -167 -17 -280 -26 -113 -8 -241 -22 -285 -30 -44 -8 -111
-18 -150 -24 -81 -11 -224 -47 -309 -79 -32 -12 -70 -21 -84 -19 -19 2 23 25
158 87 174 78 233 111 201 111 -7 0 -21 -5 -33 -11 -19 -10 -20 -9 -13 31 18
107 68 191 121 204 13 4 24 12 24 19 0 20 53 67 76 67 10 0 51 25 89 56 85 68
144 103 208 125 56 19 42 29 -23 16z"/>
<path d="M4673 8332 c-35 -14 -63 -31 -63 -38 0 -9 14 -6 46 11 26 14 60 25
76 25 19 0 28 5 26 12 -7 19 -19 17 -85 -10z"/>
<path d="M4519 8336 c-57 -15 -135 -60 -149 -86 -15 -28 -5 -25 38 10 24 19
61 35 107 45 99 22 103 24 85 35 -19 12 -24 12 -81 -4z"/>
<path d="M5970 8335 c28 -16 70 -20 70 -6 0 9 -48 21 -79 21 -11 -1 -8 -5 9
-15z"/>
<path d="M1408 8279 c-8 -24 8 -103 21 -107 10 -3 12 0 8 12 -4 10 -7 38 -7
62 0 40 -13 60 -22 33z"/>
<path d="M3834 8256 c-28 -13 -55 -29 -59 -36 -5 -8 -3 -11 6 -7 16 6 68 22
129 37 22 6 40 15 40 20 0 18 -64 10 -116 -14z"/>
<path d="M4702 8266 c-46 -15 -97 -45 -89 -52 3 -3 21 2 42 10 48 20 135 32
135 18 0 -5 -14 -15 -31 -21 -42 -15 -27 -31 30 -31 42 0 51 -4 86 -40 21 -22
43 -40 47 -40 19 0 6 38 -22 65 -16 16 -30 34 -30 40 0 22 -46 54 -85 59 -22
3 -59 -1 -83 -8z"/>
<path d="M3871 8196 c-8 -10 -8 -16 4 -26 19 -16 19 -69 0 -97 -16 -23 -260
-146 -325 -163 -21 -6 -47 -21 -57 -35 -10 -13 -60 -45 -110 -70 -51 -24 -93
-47 -93 -49 0 -7 71 14 132 40 32 13 88 44 125 69 61 41 126 65 139 52 4 -3
-17 -17 -44 -31 -87 -44 -183 -115 -141 -104 41 10 259 130 253 139 -8 14 20
44 70 73 23 14 61 48 85 76 l43 51 -18 36 c-23 43 -47 58 -63 39z"/>
<path d="M4305 8199 c-10 -15 3 -25 16 -12 7 7 7 13 1 17 -6 3 -14 1 -17 -5z"/>
<path d="M6510 8177 c0 -19 26 -40 80 -65 25 -12 69 -40 98 -62 59 -45 75 -49
95 -20 12 17 16 18 34 5 14 -10 19 -22 16 -40 -5 -22 1 -28 52 -50 57 -26 101
-24 51 2 -14 7 -26 18 -26 23 0 13 6 13 41 -6 17 -8 40 -14 52 -12 18 2 11 10
-38 40 -32 21 -75 41 -95 44 -19 4 -46 15 -59 25 -13 11 -33 19 -44 19 -10 0
-71 25 -133 55 -63 30 -116 55 -119 55 -3 0 -5 -6 -5 -13z"/>
<path d="M6928 8094 c46 -30 86 -53 89 -51 6 7 -100 85 -132 97 -48 18 -40 10
43 -46z"/>
<path d="M3107 8057 c-73 -64 -135 -145 -155 -204 -18 -53 4 -38 38 26 20 37
65 92 121 146 49 48 89 89 89 91 0 15 -30 -5 -93 -59z"/>
<path d="M4591 8103 c-55 -9 -131 -33 -232 -74 -188 -76 -354 -153 -364 -169
-11 -17 18 -7 173 61 73 32 190 80 260 105 110 40 141 47 232 53 59 3 105 10
105 16 0 17 -88 21 -174 8z"/>
<path d="M7149 8069 c77 -49 108 -62 116 -49 6 10 -144 90 -167 90 -7 0 16
-19 51 -41z"/>
<path d="M3560 8081 c-65 -20 -100 -38 -100 -50 0 -5 38 6 85 23 47 17 85 34
85 39 0 10 -7 9 -70 -12z"/>
<path d="M2438 8035 c-21 -20 -48 -35 -61 -35 -42 0 -198 -213 -212 -289 -4
-20 -18 -48 -32 -63 -17 -17 -23 -33 -19 -44 6 -15 8 -15 27 2 12 10 28 32 36
48 8 16 35 50 59 75 42 43 94 134 94 163 0 27 41 73 91 103 54 32 94 75 68 75
-8 0 -31 -16 -51 -35z"/>
<path d="M4867 8029 c-32 -17 -82 -33 -110 -36 -29 -3 -59 -11 -67 -18 -8 -7
-42 -22 -75 -35 -33 -12 -76 -29 -95 -37 -19 -8 -48 -17 -65 -19 -16 -2 -57
-8 -90 -14 -33 -6 -84 -14 -114 -18 -30 -4 -56 -13 -59 -20 -5 -17 60 -16 183
4 55 9 115 15 134 15 29 -2 178 27 190 36 2 1 -2 9 -9 18 -22 26 12 52 78 60
32 4 87 22 126 41 39 19 76 34 83 34 7 0 13 5 13 10 0 20 -66 8 -123 -21z"/>
<path d="M7030 8022 c0 -11 134 -92 152 -92 9 0 33 -6 54 -14 52 -18 134 -29
134 -19 0 5 -28 15 -62 22 -35 7 -106 35 -159 62 -93 48 -119 57 -119 41z"/>
<path d="M2912 7976 c-18 -24 -65 -111 -105 -193 -40 -81 -79 -158 -87 -170
-17 -27 -6 -42 18 -25 9 7 30 20 46 30 49 29 71 50 63 58 -4 4 -13 2 -19 -4
-16 -16 -38 -15 -38 0 0 24 114 243 148 285 30 38 35 63 13 63 -4 0 -22 -20
-39 -44z"/>
<path d="M3339 7986 c-41 -18 -104 -49 -140 -70 -35 -21 -71 -41 -79 -46 -31
-16 -195 -122 -204 -130 -5 -5 -7 -13 -3 -17 4 -3 28 9 55 28 45 33 143 87
342 191 52 27 99 54 104 59 23 21 -5 16 -75 -15z"/>
<path d="M3156 7983 c-6 -14 -5 -15 5 -6 7 7 10 15 7 18 -3 3 -9 -2 -12 -12z"/>
<path d="M5135 7975 c-141 -14 -211 -27 -228 -44 -20 -20 1 -22 51 -7 95 28
374 40 637 28 132 -7 278 -16 325 -22 223 -27 261 -32 345 -46 50 -8 153 -27
230 -41 155 -28 305 -41 305 -26 0 5 -66 22 -147 37 -196 37 -323 62 -408 80
-38 9 -91 16 -116 16 -26 0 -82 6 -125 14 -97 17 -51 15 -424 20 -204 2 -361
-1 -445 -9z"/>
<path d="M582 7948 c3 -7 13 -15 24 -17 16 -3 17 -1 5 13 -16 19 -34 21 -29 4z"/>
<path d="M7095 7920 c3 -5 13 -10 21 -10 8 0 12 5 9 10 -3 6 -13 10 -21 10 -8
0 -12 -4 -9 -10z"/>
<path d="M2753 7808 c-11 -13 -29 -39 -38 -58 -10 -19 -33 -61 -53 -93 -35
-58 -40 -91 -5 -42 10 14 27 38 39 53 33 43 86 141 82 153 -2 5 -13 0 -25 -13z"/>
<path d="M6852 7798 c3 -7 20 -16 39 -19 19 -4 68 -14 109 -23 103 -21 214
-31 207 -19 -4 6 -35 14 -69 17 -35 4 -105 18 -157 32 -105 27 -135 30 -129
12z"/>
<path d="M7245 7720 c11 -5 34 -9 50 -9 26 0 27 2 10 9 -11 5 -33 9 -50 9 -26
0 -27 -2 -10 -9z"/>
<path d="M5337 7644 c-4 -4 -221 -17 -482 -29 -44 -2 -116 -9 -160 -15 -279
-38 -374 -55 -408 -71 -21 -11 -59 -19 -87 -19 -46 0 -50 2 -50 24 0 31 -15
42 -70 50 -33 5 -64 1 -111 -14 -36 -11 -99 -22 -140 -24 -49 -2 -94 -12 -134
-29 -33 -13 -80 -28 -105 -32 -72 -11 -120 -25 -120 -35 0 -6 9 -10 20 -10 39
0 19 -20 -59 -60 -44 -22 -83 -45 -86 -51 -10 -16 27 -3 95 32 30 16 61 29 68
29 7 0 64 27 127 60 110 58 169 74 177 48 3 -9 26 -4 79 17 51 20 97 31 147
33 73 4 74 4 70 -19 -2 -17 -17 -32 -50 -49 -53 -28 -63 -46 -20 -35 107 27
217 24 266 -9 14 -9 35 -34 46 -55 l20 -39 -36 -31 c-22 -19 -46 -31 -64 -31
-16 0 -32 -5 -35 -10 -11 -17 -181 -99 -243 -116 -46 -14 -103 -16 -298 -15
-257 1 -369 -11 -185 -22 94 -5 121 -10 110 -21 -2 -2 -76 -9 -164 -14 -151
-9 -161 -8 -174 9 -18 25 -41 24 -41 0 0 -24 -12 -28 -127 -41 -105 -12 -260
-57 -246 -71 6 -6 26 -4 53 6 25 9 102 23 171 32 l127 16 64 -38 c34 -21 73
-47 85 -57 24 -22 32 -23 305 -15 121 3 184 1 200 -7 13 -6 44 -47 70 -91 79
-132 186 -237 308 -300 43 -22 133 -20 154 4 17 19 15 21 -58 56 -76 36 -91
56 -65 82 22 22 4 35 -21 15 l-24 -20 -61 41 c-99 68 -227 209 -207 229 5 5
74 22 153 38 303 62 587 133 709 176 58 20 121 40 140 44 19 4 62 15 95 24
112 31 303 66 417 76 196 17 648 7 873 -19 206 -24 404 -53 462 -66 34 -8 72
-15 85 -15 12 0 36 -7 52 -15 16 -9 57 -20 90 -24 124 -18 365 -79 561 -140
50 -16 126 -38 170 -51 85 -23 493 -180 535 -205 47 -29 245 -128 320 -160 41
-18 129 -56 195 -84 66 -28 163 -72 215 -97 164 -79 192 -92 315 -140 142 -55
407 -144 430 -144 21 0 136 -49 155 -66 10 -8 28 -11 50 -8 22 4 79 -5 155
-24 159 -40 523 -111 599 -118 34 -2 93 -9 131 -14 239 -34 463 -61 620 -75
256 -24 386 -48 580 -110 94 -30 206 -64 250 -75 153 -38 372 -132 430 -184
l40 -36 3 37 c3 34 -1 42 -50 88 -29 27 -68 63 -86 78 -18 16 -31 34 -29 40 5
15 46 24 115 26 41 1 52 4 52 17 0 14 -7 15 -37 10 -21 -3 -82 -6 -135 -6 -90
0 -98 -2 -98 -19 0 -11 10 -27 22 -35 30 -22 16 -31 -29 -19 -110 30 -326 97
-378 119 -33 13 -67 24 -75 24 -8 0 -35 6 -60 14 -78 26 -231 55 -345 66 -60
6 -148 15 -195 21 -107 12 -272 30 -325 34 -22 1 -60 7 -85 13 -25 5 -99 17
-165 26 -216 30 -612 106 -764 148 -81 22 -120 38 -134 55 -17 19 -30 23 -79
23 -117 0 -442 102 -640 202 -32 15 -192 86 -355 157 -164 71 -381 167 -483
213 -102 47 -212 96 -245 108 -33 12 -89 35 -125 50 -91 39 -410 140 -442 140
-7 0 -104 27 -214 59 -110 33 -260 69 -333 80 -72 12 -144 27 -159 33 -32 13
-92 25 -182 37 -36 5 -96 16 -135 24 -38 8 -149 20 -245 26 -96 6 -238 16
-315 21 -286 19 -637 6 -773 -29 -42 -11 -120 -29 -172 -41 -52 -12 -160 -44
-240 -70 -295 -98 -749 -199 -833 -186 -27 5 -42 2 -53 -9 -11 -11 -38 -15
-97 -16 -481 -4 -460 -5 -502 17 -64 34 -53 48 45 57 47 4 121 9 166 10 54 1
87 7 99 17 12 10 38 14 89 12 77 -2 223 25 305 58 51 20 126 56 281 135 104
53 192 80 302 95 45 6 173 24 283 40 364 52 385 54 975 53 443 -1 583 -4 693
-17 77 -9 172 -16 212 -16 40 0 91 -7 114 -15 24 -8 101 -19 172 -25 71 -6
139 -15 152 -20 31 -13 208 -48 297 -59 41 -6 109 -24 150 -40 41 -17 87 -31
101 -31 49 0 421 -135 744 -269 100 -42 364 -176 505 -257 41 -23 112 -56 157
-73 46 -17 154 -65 240 -107 195 -94 323 -146 365 -148 62 -2 36 25 -57 60
-104 40 -243 103 -265 121 -21 16 -229 113 -244 113 -7 0 -32 10 -57 23 -76
40 -462 248 -514 277 -27 16 -77 36 -110 46 -33 9 -100 36 -150 59 -49 23
-135 59 -190 79 -55 21 -138 59 -185 85 -47 26 -96 51 -110 54 -35 9 -56 24
-46 34 4 4 146 7 314 6 237 -1 348 -6 487 -22 317 -36 487 -60 610 -85 66 -14
156 -30 200 -36 44 -7 161 -32 260 -57 99 -24 241 -57 315 -74 270 -58 380
-93 670 -209 190 -76 413 -134 655 -170 77 -12 196 -35 265 -53 l125 -32 340
0 c187 0 358 -4 379 -9 35 -8 37 -10 22 -21 -25 -19 -10 -25 102 -40 143 -21
162 -20 162 8 0 20 -9 26 -57 41 -32 9 -78 26 -103 36 -78 32 -213 50 -375 49
-200 -2 -365 10 -390 27 -11 8 -32 14 -48 14 -15 0 -47 4 -70 10 -23 5 -114
14 -202 20 -196 13 -264 22 -335 48 -30 11 -91 28 -135 37 -43 9 -93 22 -110
29 -16 7 -70 26 -120 41 -49 16 -101 39 -115 51 -24 22 -181 74 -222 74 -11 0
-34 6 -51 14 -18 8 -79 29 -137 46 -58 17 -127 42 -155 54 -27 13 -95 37 -150
54 -55 17 -149 46 -210 65 -60 19 -141 42 -180 52 -67 17 -97 23 -280 60 -44
8 -125 20 -180 25 -55 5 -154 16 -220 25 -456 60 -651 73 -1090 74 -181 1
-377 6 -435 11 -58 5 -184 10 -280 10 -96 0 -229 7 -295 15 -66 8 -162 15
-214 15 -51 0 -175 11 -275 24 -299 40 -368 46 -671 56 -159 5 -304 12 -322
14 -17 2 -33 2 -36 0z m-72 -54 c126 8 319 2 630 -19 94 -6 201 -13 239 -16
38 -2 73 -8 79 -14 6 -6 -71 -9 -214 -9 -315 -1 -797 -33 -974 -66 -144 -27
-248 -45 -377 -65 -73 -12 -145 -29 -168 -41 -23 -12 -51 -20 -63 -18 -18 2
-22 10 -23 43 -1 22 -2 47 -3 56 0 8 -21 25 -47 37 -25 12 -43 26 -40 30 6 9
118 27 261 42 179 18 291 32 320 40 17 4 100 5 185 2 85 -3 173 -4 195 -2z
m2950 -161 c207 -9 559 -40 605 -54 20 -6 220 -26 295 -30 153 -7 528 -80 653
-127 56 -21 111 -38 122 -38 20 0 36 -16 23 -23 -5 -2 -53 6 -108 18 -55 12
-145 30 -200 40 -55 10 -119 24 -143 31 -23 8 -53 14 -66 14 -13 0 -68 9 -122
19 -54 11 -155 27 -224 36 -69 9 -201 27 -295 39 -93 13 -186 24 -205 24 -19
0 -118 5 -220 11 -102 6 -196 11 -210 11 -14 0 -92 5 -175 12 -82 6 -193 10
-245 9 -60 -1 -91 2 -85 8 6 5 21 11 35 13 37 5 293 -1 565 -13z"/>
<path d="M12485 7350 c-11 -5 -64 -9 -118 -9 -63 -1 -110 -6 -134 -16 -19 -8
-53 -15 -74 -15 -21 0 -41 -5 -44 -10 -4 -6 -15 -8 -25 -5 -10 3 -21 2 -24 -4
-8 -12 74 -18 153 -10 63 7 259 30 406 49 39 5 76 9 83 10 6 0 12 5 12 10 0
12 -206 12 -235 0z"/>
<path d="M12760 7340 c20 -13 40 -13 40 0 0 6 -12 10 -27 10 -22 0 -25 -2 -13
-10z"/>
<path d="M11526 7282 c-88 -2 -145 -7 -154 -14 -12 -10 -11 -13 5 -19 32 -13
138 -10 224 7 65 12 87 13 105 4 13 -8 42 -10 75 -6 30 3 90 6 134 6 44 0 87
4 95 10 8 5 11 10 5 11 -22 3 -359 4 -489 1z"/>
<path d="M12785 7237 c-4 -10 -5 -21 -1 -24 10 -10 18 4 13 24 -4 17 -4 17
-12 0z"/>
<path d="M4591 7002 c-24 -9 -46 -23 -49 -30 -3 -11 3 -10 26 2 22 11 33 13
38 5 9 -15 -62 -76 -102 -87 -38 -12 -114 -59 -114 -72 0 -18 21 -11 81 26 71
44 136 55 163 28 15 -14 17 -28 13 -68 -4 -28 -9 -62 -13 -76 -6 -24 -6 -24
12 -7 15 14 20 35 22 95 l4 78 66 40 c57 34 79 58 55 59 -5 1 -18 6 -30 13
-18 10 -28 10 -44 1 -16 -8 -28 -8 -46 0 -30 14 -28 14 -82 -7z m109 -33 c0
-14 -55 -69 -69 -69 -26 0 -8 38 27 58 44 25 42 25 42 11z"/>
<path d="M4465 6951 c-99 -25 -255 -160 -255 -221 0 -7 17 10 39 37 21 27 60
68 87 92 39 34 54 42 75 37 20 -4 38 3 68 24 56 41 54 47 -14 31z"/>
<path d="M9915 6400 c-10 -17 1 -24 85 -54 104 -36 596 -139 715 -150 39 -3
111 -13 160 -21 121 -20 332 -45 376 -45 36 0 236 -36 369 -66 36 -8 133 -25
216 -39 83 -14 189 -36 235 -49 46 -13 100 -27 119 -31 19 -4 62 -15 95 -25
33 -10 114 -33 180 -50 66 -18 129 -36 140 -41 17 -7 54 -18 173 -54 16 -5 22
-2 22 9 0 9 -6 16 -12 16 -7 0 -38 13 -68 28 -30 15 -77 34 -105 42 -27 7 -59
19 -70 26 -19 11 -38 16 -200 50 -38 8 -102 28 -142 44 -39 17 -100 34 -135
40 -34 5 -92 16 -128 25 -36 8 -101 19 -146 24 -44 5 -112 18 -150 29 -102 29
-286 61 -389 67 -109 6 -214 19 -320 38 -44 8 -114 18 -155 22 -41 4 -104 13
-140 20 -36 8 -108 21 -160 29 -52 8 -153 31 -224 51 -70 19 -138 35 -150 35
-24 0 -142 25 -167 35 -10 3 -20 1 -24 -5z"/>
<path d="M6395 6201 c-103 -32 -241 -98 -270 -131 l-20 -23 25 8 c14 4 66 27
115 51 119 57 242 94 285 85 73 -15 63 -59 -39 -181 -34 -40 -59 -76 -55 -79
7 -7 146 139 175 184 24 38 24 77 1 98 -27 25 -111 20 -217 -12z"/>
<path d="M10305 790 c-16 -4 -56 -8 -87 -9 -57 -1 -58 -2 -58 -29 l0 -29 -106
-6 c-61 -4 -113 -3 -123 3 -10 5 -33 7 -52 4 -19 -2 -72 -1 -119 3 -68 6 -78
8 -50 13 20 4 -6 7 -65 7 -178 0 -203 2 -220 19 -15 15 -18 16 -32 1 -15 -15
-14 -17 13 -27 16 -7 83 -16 149 -20 66 -5 165 -14 220 -20 96 -11 287 -9 580
6 120 6 139 4 245 -22 165 -39 184 -41 203 -13 30 42 -6 57 -188 84 -60 9
-132 20 -160 25 -88 16 -119 19 -150 10z"/>
<path d="M4165 750 c-67 -26 151 -43 580 -45 194 -1 319 -6 355 -14 64 -15
182 -11 187 5 3 7 -12 11 -39 11 -24 0 -108 7 -187 16 -96 11 -264 18 -503 21
-197 3 -362 7 -366 9 -4 3 -16 1 -27 -3z"/>
<path d="M6305 700 c45 -11 85 -11 85 0 0 6 -25 9 -57 9 -48 -1 -53 -3 -28 -9z"/>
<path d="M8783 691 c-29 -25 -29 -29 4 -42 50 -19 10 -34 -95 -35 -53 0 -128
-7 -167 -14 -38 -8 -100 -13 -137 -12 -70 1 -99 -11 -49 -21 28 -6 285 7 383
19 33 4 68 16 93 33 22 15 48 31 58 34 12 5 17 15 15 29 -2 19 -10 23 -43 25
-28 2 -47 -3 -62 -16z"/>
<path d="M6445 690 c7 -12 69 -12 105 0 18 6 6 8 -43 9 -43 1 -66 -3 -62 -9z"/>
<path d="M9026 684 c-32 -32 -13 -49 44 -39 48 8 53 25 8 25 -30 0 -31 1 -12
15 19 14 19 14 -3 15 -12 0 -29 -7 -37 -16z"/>
<path d="M9286 691 c-36 -4 -61 -11 -64 -19 -4 -14 -8 -14 160 3 32 4 60 11
63 16 7 10 -59 10 -159 0z"/>
<path d="M6695 680 c3 -5 10 -10 16 -10 5 0 9 5 9 10 0 6 -7 10 -16 10 -8 0
-12 -4 -9 -10z"/>
<path d="M5804 645 c-3 -8 -3 -18 0 -23 8 -14 351 -25 826 -27 239 -1 444 -5
456 -9 12 -3 32 -2 45 2 22 9 21 10 -16 16 -40 6 -213 19 -475 36 -195 13
-467 12 -491 -1 -16 -8 -30 -7 -60 5 -54 22 -277 23 -285 1z"/>
<path d="M4054 538 c-13 -3 -74 -8 -134 -10 -60 -3 -113 -7 -116 -11 -29 -29
186 -36 368 -12 96 13 153 14 334 5 121 -5 228 -10 240 -10 11 0 28 -6 38 -13
16 -11 -3 -14 -120 -15 -123 -1 -338 -16 -402 -28 -13 -3 -20 -9 -17 -14 8
-13 95 -13 170 1 33 6 141 12 240 14 99 3 185 5 190 5 6 0 2 7 -8 14 -28 21
-4 29 63 22 33 -4 61 -3 64 2 9 15 -29 22 -139 27 -55 3 -129 10 -165 16 -74
11 -568 17 -606 7z"/>
<path d="M7894 529 c-3 -6 -15 -7 -26 -3 -28 9 -293 -27 -276 -37 19 -12 96
-10 232 6 89 10 146 12 225 5 68 -6 109 -6 115 0 10 10 -5 15 -28 11 -25 -5
-85 12 -79 22 4 7 0 8 -13 3 -39 -15 -72 -18 -107 -8 -23 7 -39 7 -43 1z"/>
<path d="M8550 529 c-25 -4 -88 -8 -140 -9 -52 -1 -104 -5 -115 -10 -20 -8
-20 -8 -1 -16 21 -8 279 9 308 21 16 7 16 27 0 24 -4 -1 -27 -5 -52 -10z"/>
<path d="M7370 489 c0 -15 37 -20 97 -13 35 3 61 10 58 14 -6 9 -155 8 -155
-1z"/>
<path d="M7485 453 c-61 -4 -178 -25 -195 -34 -20 -11 10 -10 250 4 111 7 251
9 325 6 129 -7 145 -6 131 9 -16 15 -374 26 -511 15z"/>
<path d="M4930 406 c0 -9 5 -16 10 -16 6 0 10 4 10 9 0 6 -4 13 -10 16 -5 3
-10 -1 -10 -9z"/>
<path d="M7913 373 c-101 -4 -130 -14 -76 -28 25 -6 152 0 201 11 12 2 22 9
22 14 0 6 -10 9 -22 8 -13 -1 -69 -4 -125 -5z"/>
<path d="M6863 363 c-13 -2 -23 -9 -23 -14 0 -13 924 -3 928 10 4 11 -853 14
-905 4z"/>
<path d="M7460 291 c26 -15 327 -20 346 -7 13 10 -24 13 -172 14 -104 0 -182
-3 -174 -7z"/>
<path d="M7250 200 c-12 -8 -9 -10 13 -10 16 0 26 4 22 10 -8 12 -16 12 -35 0z"/>
<path d="M7055 188 c-18 -11 -117 -18 -247 -18 -49 0 -88 -4 -88 -9 0 -15 114
-23 175 -12 32 6 86 11 119 11 66 0 106 8 106 20 0 12 -47 18 -65 8z"/>
</g>
</svg>
