<?xml version="1.0" standalone="no"?>
<!DOCTYPE svg PUBLIC "-//W3C//DTD SVG 20010904//EN"
 "http://www.w3.org/TR/2001/REC-SVG-20010904/DTD/svg10.dtd">
<svg version="1.0" xmlns="http://www.w3.org/2000/svg"
 width="1280.000000pt" height="668.000000pt" viewBox="0 0 1280.000000 668.000000"
 preserveAspectRatio="xMidYMid meet">
<metadata>
Created by potrace 1.15, written by Peter Selinger 2001-2017
</metadata>
<g transform="translate(0.000000,668.000000) scale(0.100000,-0.100000)"
fill="#000000" stroke="none">
<path d="M499 6650 c-31 -16 -67 -43 -80 -61 -13 -17 -40 -47 -59 -66 -19 -18
-49 -57 -66 -86 -26 -45 -42 -59 -122 -103 -50 -28 -110 -67 -132 -87 -38 -34
-40 -39 -40 -92 l0 -57 24 15 c28 19 38 13 30 -18 -3 -13 -1 -39 4 -58 7 -24
7 -50 0 -77 -9 -36 -8 -50 12 -96 14 -34 20 -64 16 -79 -4 -14 0 -41 9 -62 9
-21 13 -49 10 -64 -5 -20 -1 -33 12 -46 46 -46 63 -89 63 -160 0 -106 23 -168
84 -230 54 -54 99 -74 119 -54 9 9 -1 23 -44 61 -65 57 -98 122 -106 209 -7
72 7 59 37 -34 13 -38 32 -83 44 -99 30 -41 119 -126 132 -126 6 0 29 -14 50
-31 27 -21 45 -29 61 -25 13 3 34 9 48 12 19 5 41 -4 90 -36 62 -40 165 -141
165 -161 0 -5 15 -15 33 -23 18 -7 49 -32 69 -55 24 -28 43 -41 60 -41 14 0
31 -7 38 -15 9 -11 16 -12 32 -2 17 10 22 9 35 -10 14 -21 24 -23 99 -23 73 0
89 -3 131 -28 71 -42 80 -44 178 -43 50 0 117 -4 150 -10 53 -9 106 -16 143
-18 6 -1 12 -5 12 -10 0 -5 -54 -10 -120 -13 -120 -4 -157 -15 -133 -39 6 -6
82 -20 169 -31 182 -22 255 -37 337 -68 69 -26 76 -44 10 -23 -27 8 -91 17
-143 20 -78 4 -99 2 -115 -11 l-20 -16 20 -13 c11 -6 43 -12 70 -13 123 -2
123 -2 127 -31 3 -22 13 -30 73 -55 39 -15 75 -28 81 -28 28 0 149 -47 248
-96 77 -38 121 -54 149 -54 35 0 39 -2 34 -20 -4 -17 5 -26 51 -49 32 -15 84
-36 117 -45 33 -10 87 -28 121 -41 108 -42 177 -55 261 -51 87 4 128 -7 206
-55 27 -17 61 -32 76 -34 40 -7 175 -50 281 -90 52 -20 111 -41 130 -47 19 -6
51 -18 70 -28 44 -23 110 -36 110 -22 0 5 -17 17 -37 26 l-38 16 32 -5 c45 -6
185 -74 202 -98 8 -10 39 -30 70 -44 31 -14 67 -35 81 -48 14 -12 68 -42 120
-65 301 -135 740 -368 835 -443 97 -77 255 -152 505 -242 102 -36 223 -81 270
-99 47 -19 110 -39 140 -45 67 -14 213 -57 258 -77 18 -8 39 -14 47 -14 8 0
15 -4 15 -10 0 -12 -33 -13 -96 -1 -80 15 -304 25 -304 13 0 -5 47 -13 108
-17 59 -3 168 -15 242 -25 74 -10 172 -21 217 -25 87 -7 261 -39 272 -51 3 -4
-23 -4 -59 0 -36 4 -101 11 -145 16 -44 4 -116 13 -160 19 -227 29 -545 42
-545 22 0 -9 120 -21 224 -21 71 0 288 -20 441 -39 224 -30 415 -51 450 -51
55 0 85 -10 85 -27 0 -9 -7 -12 -17 -9 -10 2 -52 7 -93 10 -349 27 -583 47
-627 52 -35 3 -53 2 -53 -5 0 -6 11 -11 24 -11 34 0 76 -17 76 -31 0 -7 -13
-9 -40 -4 -21 4 -49 3 -62 -1 l-23 -7 24 -9 c14 -5 104 -15 200 -23 190 -16
218 -22 203 -37 -6 -6 -40 -5 -93 1 -147 17 -208 21 -214 12 -6 -11 18 -14
355 -46 246 -23 329 -30 610 -54 111 -10 233 -38 224 -53 -8 -13 -103 -9 -174
8 -100 23 -360 53 -720 84 -153 12 -193 13 -186 1 4 -5 56 -13 116 -16 84 -6
110 -11 110 -22 0 -21 29 -27 48 -10 15 14 34 13 192 -4 96 -10 197 -19 223
-19 34 0 49 -5 54 -16 12 -33 -11 -35 -168 -20 -85 8 -221 20 -304 26 -82 6
-222 20 -310 30 -137 16 -347 28 -529 30 -37 0 -47 3 -39 11 13 13 281 14 459
3 60 -4 108 -3 119 3 33 19 -124 25 -700 29 -313 2 -631 8 -705 13 -74 5 -139
7 -144 4 -13 -8 16 -23 47 -23 20 0 27 -5 27 -20 0 -12 9 -22 23 -25 44 -11
326 -20 580 -19 231 1 288 -5 242 -22 -35 -14 -8 -19 102 -21 110 -2 118 -4
142 -27 18 -19 22 -29 14 -37 -8 -8 -21 -5 -49 10 -29 15 -73 23 -174 31 -74
6 -157 15 -185 20 -27 5 -185 10 -350 11 -300 2 -300 2 -389 -25 -49 -15 -127
-43 -173 -63 -71 -31 -86 -35 -94 -22 -14 23 -11 26 30 33 21 3 41 13 45 21 3
8 37 29 76 46 38 18 70 36 70 40 0 14 -14 11 -82 -15 -99 -38 -131 -46 -177
-46 -46 0 -49 19 -3 21 15 0 67 15 117 32 87 31 89 33 91 65 1 17 -3 32 -8 32
-17 0 -112 -32 -213 -71 -92 -36 -195 -60 -195 -46 0 9 78 42 142 61 70 21 88
33 69 45 -10 6 -32 2 -65 -11 -133 -53 -212 -79 -235 -76 -18 2 3 13 74 37 97
32 136 54 122 67 -3 3 -45 -8 -93 -25 -64 -23 -112 -33 -181 -38 -112 -7 -123
6 -30 36 80 26 176 66 189 79 17 17 -16 26 -42 12 -12 -7 -74 -30 -138 -52
-138 -48 -222 -58 -282 -34 -22 9 -54 16 -71 16 -18 0 -67 10 -110 22 -44 11
-82 18 -85 15 -27 -26 95 -75 194 -78 29 -1 56 -7 59 -12 12 -19 -31 -37 -87
-37 -58 0 -211 17 -243 26 -14 5 -18 1 -15 -12 2 -11 16 -21 38 -26 29 -7 192
-16 313 -18 15 0 27 -5 27 -11 0 -8 -15 -9 -45 -5 -26 4 -45 3 -45 -2 0 -5 41
-15 90 -22 50 -7 90 -16 90 -20 0 -9 -205 -2 -358 11 -89 8 -127 8 -135 0 -6
-6 -8 -13 -6 -16 3 -3 100 -9 215 -15 232 -10 394 -27 409 -42 7 -7 -36 -8
-125 -3 -74 3 -148 6 -165 7 -16 0 -77 5 -133 10 -74 7 -107 7 -115 -1 -18
-18 -1 -23 85 -25 46 -1 89 -5 96 -10 7 -4 26 -5 42 -1 17 4 47 1 67 -6 21 -7
77 -12 126 -11 69 2 87 -1 87 -12 0 -12 -21 -14 -117 -10 -214 9 -302 18 -336
36 -12 6 -23 6 -31 -2 -10 -7 -22 -7 -41 0 -30 12 -45 6 -28 -11 6 -6 57 -15
114 -20 170 -15 224 -23 222 -34 -2 -5 -7 -10 -12 -10 -5 0 -13 -3 -17 -7 -4
-5 0 -8 10 -8 10 0 14 -5 11 -11 -4 -6 -26 -9 -49 -8 -23 2 -47 -1 -54 -5 -8
-5 -12 0 -12 13 0 38 -100 38 -128 -1 -12 -16 -15 -17 -42 -3 -36 19 -163 65
-179 65 -6 0 -11 -9 -11 -20 0 -22 -20 -18 -59 12 -27 21 -51 24 -51 6 0 -20
40 -71 76 -98 42 -31 42 -40 2 -40 -60 0 -81 19 -96 85 -7 33 -22 70 -34 82
-19 20 -20 29 -14 105 6 74 5 90 -18 150 -22 59 -25 77 -19 145 5 67 3 80 -12
93 -15 13 -19 12 -31 -5 -18 -24 -12 -188 9 -263 12 -46 13 -60 1 -99 -19 -62
-18 -79 10 -197 13 -55 29 -133 36 -173 8 -49 21 -86 42 -117 16 -25 28 -53
26 -63 -3 -10 4 -40 15 -68 40 -104 19 -210 -60 -300 -84 -95 -94 -105 -108
-105 -7 0 -42 -15 -78 -34 -35 -19 -109 -48 -164 -65 -62 -19 -117 -43 -144
-64 -24 -18 -62 -44 -84 -57 -22 -13 -61 -41 -87 -62 -26 -21 -80 -57 -120
-80 -40 -22 -98 -57 -128 -78 -214 -143 -286 -189 -379 -245 -18 -11 -50 -31
-70 -44 -52 -35 -142 -81 -159 -81 -8 0 -33 -20 -56 -44 -23 -25 -54 -47 -71
-51 -16 -4 -51 -15 -78 -26 -47 -20 -97 -32 -192 -49 -244 -44 -238 -43 -713
-45 -353 -1 -465 1 -472 10 -18 21 51 27 229 20 114 -5 175 -4 195 4 24 10 31
9 41 -5 16 -23 49 -11 40 15 -4 12 0 21 12 25 40 16 176 30 293 32 125 1 125
1 235 48 61 25 122 46 138 46 15 0 27 4 27 10 0 6 9 6 24 0 33 -12 88 4 124
38 16 15 40 33 54 39 13 6 53 34 88 63 36 28 82 60 103 71 20 11 37 24 37 29
0 5 44 31 98 59 402 205 424 220 728 476 216 181 291 255 300 292 3 15 12 51
19 78 11 39 14 184 6 227 0 4 -28 40 -60 81 -33 41 -69 93 -80 116 -12 22 -25
41 -30 41 -11 0 -224 271 -218 277 9 9 42 -15 62 -46 21 -32 41 -45 55 -36 8
5 -44 99 -73 134 -8 9 -27 41 -44 71 -95 175 -143 249 -199 304 -105 106 -134
160 -75 141 10 -3 23 1 30 9 10 11 1 20 -47 50 -56 34 -60 39 -76 94 -19 69
-20 103 -5 188 12 68 18 76 64 91 21 7 29 16 28 29 -9 72 39 94 182 84 75 -6
121 -16 185 -40 61 -23 109 -33 170 -37 81 -5 89 -8 165 -56 137 -88 305 -144
305 -103 0 14 -32 29 -82 40 -37 8 -250 129 -249 141 4 29 114 21 279 -21 102
-25 152 -30 152 -14 0 9 -62 30 -92 30 -10 0 -18 5 -18 10 0 14 24 13 120 -6
45 -8 95 -12 111 -9 31 7 169 -23 169 -36 0 -5 -18 -9 -41 -9 -37 0 -127 -30
-157 -53 -23 -18 4 -31 36 -18 43 18 68 21 267 32 125 7 204 7 260 0 44 -6
123 -13 175 -16 52 -3 128 -10 167 -17 70 -11 97 -8 77 11 -5 6 -84 24 -176
41 -91 17 -181 36 -200 41 -65 21 -174 35 -233 29 -36 -3 -78 0 -105 8 -88 25
-295 63 -399 73 -58 6 -140 16 -181 24 -41 7 -122 19 -180 25 -58 6 -146 15
-197 20 -121 13 -281 13 -340 -1 -147 -33 -300 -96 -350 -142 -27 -24 -28 -35
-7 -59 16 -16 16 -21 0 -61 -23 -62 -21 -197 5 -294 12 -43 25 -83 29 -88 5
-6 18 -35 30 -65 24 -62 202 -332 299 -455 68 -87 88 -121 77 -132 -4 -4 -21
0 -37 10 -17 9 -37 17 -46 17 -31 0 -193 93 -254 146 -35 31 -88 72 -117 92
-45 30 -60 35 -102 33 l-49 -2 -11 42 c-13 49 -37 74 -144 149 -43 30 -97 69
-120 87 -22 18 -58 41 -78 53 -20 11 -39 24 -43 30 -3 6 -30 26 -60 44 -29 19
-95 74 -147 122 -51 48 -147 137 -213 198 -189 176 -410 398 -437 441 -63 97
-189 235 -244 266 -37 21 -69 50 -96 88 -23 31 -101 115 -175 188 -89 88 -133
138 -131 150 2 9 17 24 33 33 17 8 50 31 75 51 25 19 50 39 57 43 7 4 51 -5
98 -19 80 -25 86 -29 101 -63 20 -49 45 -75 129 -134 76 -53 270 -238 280
-266 3 -9 28 -32 56 -50 47 -31 50 -36 42 -60 -4 -15 -8 -59 -7 -98 1 -83 28
-140 91 -193 81 -69 112 -106 143 -173 23 -50 37 -68 49 -66 19 4 18 32 -4
118 -9 36 -11 84 -8 141 l6 86 33 12 c42 15 45 41 6 41 -36 0 -54 -20 -77 -85
-23 -64 -33 -75 -47 -52 -7 13 -17 17 -34 13 -33 -9 -44 18 -44 106 0 51 6 86
21 117 31 69 37 74 66 55 37 -24 53 -12 53 39 0 44 31 101 74 136 10 8 24 28
33 45 9 17 38 56 65 86 144 163 166 198 139 215 -6 3 -32 -15 -60 -39 -82 -73
-126 -73 -103 1 10 31 9 41 -7 67 -26 42 -42 126 -35 178 5 35 2 48 -16 71
-13 16 -31 27 -46 27 -32 0 -30 -16 5 -34 l28 -15 -12 -78 c-7 -43 -18 -100
-25 -128 -7 -31 -9 -81 -5 -131 l7 -80 -31 -27 c-17 -14 -58 -36 -91 -48 -33
-12 -65 -28 -71 -35 -8 -10 -16 -11 -30 -3 -26 13 -24 27 6 41 18 8 25 18 23
32 -3 18 -10 21 -48 19 -82 -2 -173 -14 -191 -23 -30 -17 -66 -12 -72 9 -4 16
3 20 52 26 31 4 93 18 139 31 45 13 86 24 90 24 5 0 15 -12 22 -26 15 -27 48
-50 57 -40 4 3 -2 24 -12 46 -14 32 -15 42 -5 55 10 12 9 20 -4 40 -9 13 -16
45 -16 70 0 31 -9 61 -29 98 -16 28 -34 82 -40 118 -14 84 -14 86 5 93 23 9
54 -11 54 -35 0 -25 17 -59 31 -59 5 0 15 12 21 28 7 15 18 35 26 44 20 24 6
40 -29 33 -23 -5 -37 0 -68 24 -21 17 -50 31 -64 31 -41 0 -50 -21 -43 -102 6
-68 6 -72 -9 -53 -9 11 -20 26 -24 33 -6 10 -14 10 -35 2 l-27 -10 21 -29 c36
-52 64 -151 41 -151 -4 0 -27 27 -50 60 -27 38 -57 68 -82 80 -41 21 -54 46
-19 37 36 -9 30 9 -18 49 -81 68 -145 92 -282 105 -124 12 -182 0 -262 -54
-51 -35 -68 -54 -97 -110 -44 -84 -128 -177 -159 -177 -15 0 -33 15 -55 46
l-32 46 -3 -48 c-2 -35 1 -50 12 -56 20 -11 20 -37 0 -59 -9 -10 -14 -30 -12
-50 l3 -32 55 49 c30 27 76 66 102 87 82 65 138 128 168 187 32 64 85 110 127
110 16 0 33 4 38 9 6 5 24 7 41 4 22 -3 33 -12 41 -34 10 -25 16 -29 36 -24
17 5 37 -1 63 -18 44 -27 166 -81 204 -90 37 -9 102 -68 140 -127 32 -50 50
-63 50 -35 0 28 18 15 34 -25 27 -67 25 -70 -52 -70 -80 0 -204 30 -233 56
-11 10 -45 64 -75 121 -58 107 -99 153 -140 153 -13 0 -24 -2 -24 -5 0 -3 18
-23 40 -44 49 -47 50 -61 6 -61 -50 0 -89 17 -82 35 3 8 9 22 12 30 13 32 -26
13 -66 -32 -36 -41 -43 -46 -60 -35 -18 11 -22 7 -40 -29 -18 -33 -24 -38 -36
-28 -12 9 -22 3 -55 -35 -23 -26 -60 -56 -83 -68 -22 -11 -60 -36 -83 -56 -32
-26 -49 -33 -67 -28 -22 5 -24 2 -31 -40 -3 -25 -13 -63 -20 -85 -10 -28 -14
-94 -14 -236 l1 -198 24 30 c49 61 59 94 44 155 -23 103 -23 116 5 187 31 78
80 153 99 153 15 0 114 -103 176 -184 87 -113 173 -205 201 -215 32 -11 35
-21 17 -50 -18 -29 16 -74 162 -214 82 -79 142 -146 164 -183 19 -33 48 -76
65 -97 16 -21 33 -48 37 -60 10 -33 144 -198 155 -191 22 13 73 -11 126 -59
31 -29 84 -72 118 -97 34 -25 85 -63 112 -85 28 -22 63 -48 79 -57 71 -42 285
-185 306 -205 13 -11 43 -31 68 -43 25 -12 65 -37 90 -55 25 -18 70 -45 100
-60 30 -15 66 -40 81 -56 61 -65 178 -150 268 -194 53 -26 105 -55 116 -65 11
-10 47 -24 80 -31 85 -18 128 -42 172 -96 21 -26 47 -56 59 -68 11 -12 36 -44
56 -71 20 -27 50 -62 67 -78 18 -17 31 -40 31 -54 0 -13 5 -32 11 -43 8 -16 7
-25 -4 -37 -8 -9 -18 -39 -21 -67 -14 -104 -35 -145 -110 -221 -39 -39 -97
-86 -129 -104 -31 -17 -57 -38 -57 -46 0 -18 -38 -53 -75 -69 -16 -8 -46 -30
-64 -49 -19 -20 -41 -36 -48 -36 -7 0 -13 -4 -13 -10 0 -14 -101 -80 -123 -80
-9 0 -37 -18 -60 -39 -23 -22 -78 -57 -122 -78 -107 -53 -212 -115 -314 -186
-47 -33 -92 -62 -100 -65 -9 -3 -43 -27 -76 -52 -74 -57 -141 -90 -184 -90
-19 0 -74 -21 -134 -51 -93 -47 -109 -52 -182 -55 -75 -3 -137 -12 -247 -35
-40 -9 -52 -7 -87 11 -23 11 -41 24 -41 28 1 40 106 63 315 66 168 3 215 10
215 31 0 33 -26 37 -202 29 -117 -4 -190 -3 -226 5 -43 9 -59 8 -92 -5 -38
-15 -89 -68 -103 -107 -11 -29 10 -56 48 -63 34 -6 47 -28 22 -37 -6 -2 -57
-2 -113 1 -66 3 -108 1 -122 -7 -17 -9 -40 -8 -103 5 -88 18 -182 13 -228 -11
-40 -20 -83 -64 -76 -76 5 -7 16 -2 31 12 24 22 24 22 24 2 0 -12 2 -28 5 -35
4 -10 -7 -18 -35 -27 -25 -7 -40 -18 -40 -28 0 -13 13 -15 97 -9 115 8 116 8
213 1 303 -23 1039 17 1149 61 18 8 44 14 58 14 13 0 47 12 76 27 45 22 74 28
202 38 99 8 156 9 169 2 15 -7 23 -5 35 11 15 20 21 21 121 11 58 -5 125 -6
150 -2 25 4 48 6 52 5 4 -1 211 -4 460 -7 249 -3 517 -10 595 -16 78 -6 155
-9 170 -6 15 3 37 0 48 -6 11 -5 40 -10 65 -9 65 2 73 2 210 -3 69 -3 181 -7
250 -8 69 -2 229 -7 355 -11 730 -21 929 -23 1165 -12 85 4 241 9 345 11 105
2 307 7 450 11 305 8 293 9 370 -6 62 -11 473 -15 507 -4 30 9 6 29 -61 48
-72 20 -177 23 -496 14 -137 -4 -421 -10 -630 -14 -346 -5 -384 -4 -430 12
-37 12 -88 18 -190 20 -137 2 -215 12 -265 33 -18 8 115 10 462 7 415 -4 487
-2 492 10 8 20 23 17 29 -5 3 -14 17 -21 53 -27 60 -9 584 -10 827 -1 136 4
197 2 254 -9 42 -8 85 -12 95 -8 10 3 60 1 111 -5 50 -6 220 -13 377 -16 157
-2 305 -9 330 -14 25 -5 94 -9 154 -10 60 -1 125 -5 145 -11 41 -10 508 -6
559 5 23 5 32 13 30 24 -3 14 -25 16 -204 12 -174 -3 -201 -1 -213 13 -7 9
-10 23 -7 32 5 13 9 14 21 4 12 -10 51 -11 163 -6 241 11 479 7 526 -9 37 -13
42 -13 54 2 19 26 14 43 -15 54 -17 6 -209 12 -505 14 -263 2 -482 6 -488 10
-5 3 -83 8 -172 10 -90 2 -221 9 -293 15 -71 7 -159 10 -195 7 -64 -5 -232 3
-425 22 -55 5 -166 12 -247 16 -128 5 -148 4 -148 -9 0 -21 33 -29 205 -47 61
-7 137 -13 170 -14 159 -5 248 -22 254 -50 2 -14 -1 -16 -15 -11 -11 4 -145
14 -299 22 -154 8 -345 19 -425 25 -80 5 -218 9 -307 9 -158 -2 -163 -1 -163
19 0 13 -15 29 -47 47 l-46 28 -316 3 c-293 3 -322 2 -406 -18 -49 -11 -109
-29 -132 -39 -38 -18 -80 -19 -665 -20 -378 -1 -645 3 -680 9 -119 21 -255 22
-598 7 -195 -9 -443 -18 -550 -21 -107 -3 -208 -7 -225 -10 -16 -3 -136 -7
-266 -10 l-237 -5 -17 26 c-16 24 -15 27 10 59 14 19 47 47 73 62 26 15 63 41
83 59 52 46 185 134 203 134 8 0 32 15 55 33 81 64 97 75 150 102 30 15 74 33
97 40 24 7 80 35 124 61 101 61 101 61 240 130 63 31 125 64 136 73 12 9 61
46 108 84 47 37 91 67 96 67 5 0 28 23 50 51 59 74 56 103 -20 203 -33 44 -60
84 -60 88 0 5 7 31 16 59 9 27 14 63 12 79 -7 45 15 53 103 39 39 -6 86 -8
103 -4 17 3 69 10 115 15 53 6 90 15 102 26 13 12 48 18 128 24 74 6 125 15
156 29 56 25 149 47 230 56 33 3 71 13 84 22 13 8 42 17 63 19 22 1 44 7 51
12 7 5 37 15 67 21 30 7 66 19 79 28 27 17 35 18 233 29 87 4 165 2 215 -5 43
-6 134 -16 203 -22 178 -16 193 -18 310 -35 105 -15 156 -21 390 -44 69 -7
194 -23 278 -36 84 -13 172 -24 195 -24 23 -1 78 -7 122 -16 44 -8 123 -19
175 -24 52 -5 140 -16 195 -24 158 -24 502 -55 719 -66 109 -6 244 -16 300
-24 55 -8 121 -15 146 -15 25 -1 107 -8 182 -16 117 -13 202 -14 552 -5 227 5
420 12 427 14 8 3 160 10 339 16 179 6 359 15 400 21 41 5 113 14 160 19 47 5
126 16 175 24 50 8 94 12 98 9 5 -3 -14 -26 -43 -52 l-51 -46 10 -59 c12 -68
35 -100 67 -92 19 5 23 0 33 -40 11 -42 33 -65 48 -50 4 4 10 30 14 59 13 100
59 187 99 187 9 0 27 -11 40 -25 29 -31 70 -34 70 -5 0 11 -6 36 -14 54 -13
31 -12 35 11 65 17 21 33 31 51 31 15 0 74 7 132 15 304 42 449 56 695 65 297
11 317 13 424 41 50 13 109 19 178 19 101 0 103 0 103 23 0 16 -8 26 -27 34
l-28 10 28 11 c24 10 27 17 27 56 0 41 -2 44 -22 39 -70 -15 -152 -48 -190
-76 -25 -18 -63 -35 -93 -40 -90 -15 -321 -20 -408 -7 -156 22 -253 31 -422
38 -139 6 -165 10 -145 19 43 19 209 43 380 54 91 5 190 12 220 15 30 2 127 8
215 14 88 5 219 15 290 21 72 6 140 11 153 11 19 0 22 5 22 45 0 28 -4 42 -10
38 -32 -20 -434 -65 -580 -65 -58 0 -134 -4 -170 -9 -36 -5 -112 -12 -170 -15
l-105 -6 48 44 c26 24 60 47 76 51 56 12 120 65 188 158 38 50 77 109 88 130
19 37 27 42 114 72 51 18 97 39 102 46 24 38 -4 59 -51 39 -39 -16 -54 -5 -34
25 8 13 14 36 12 52 l-3 28 -175 -4 c-134 -2 -184 0 -215 11 -301 108 -460
152 -665 182 -190 28 -431 38 -558 22 -54 -7 -83 -6 -112 4 -43 14 -122 7
-250 -24 -84 -20 -235 -80 -280 -111 -50 -34 -128 -67 -141 -59 -8 5 -10 30
-6 78 l7 71 98 95 c54 52 104 109 110 125 24 60 18 134 -15 207 -44 94 -61
103 -199 103 -111 0 -112 0 -160 -34 -27 -19 -70 -52 -96 -73 -37 -30 -67 -44
-130 -60 -109 -27 -120 -33 -116 -66 5 -42 38 -52 180 -52 l127 0 16 -30 c22
-43 18 -99 -10 -145 -47 -77 -127 -250 -142 -309 -28 -110 6 -217 98 -301 135
-125 220 -202 246 -222 15 -11 25 -24 22 -28 -12 -12 -614 74 -841 121 -43 8
-81 13 -85 11 -10 -6 -185 20 -233 34 -19 5 -75 14 -125 20 -49 5 -126 13
-170 19 -44 5 -127 14 -185 20 -57 6 -124 16 -147 22 -24 6 -67 8 -95 6 -28
-3 -106 3 -172 13 -67 10 -146 19 -176 19 -38 0 -64 6 -85 20 -20 13 -47 20
-81 20 -61 0 -329 62 -394 92 -97 43 -358 120 -450 132 -25 4 -52 11 -60 17
-18 12 89 4 160 -13 104 -24 339 -90 385 -108 28 -11 121 -37 208 -60 181 -46
297 -55 297 -22 0 43 -85 86 -195 99 -60 7 -286 64 -319 80 -32 16 -125 43
-171 48 -16 2 -55 11 -85 19 -90 24 -198 46 -320 67 -350 58 -535 96 -625 129
-192 70 -404 167 -445 205 -47 41 -315 185 -346 185 -25 0 -227 72 -309 109
-49 23 -117 54 -150 69 -33 14 -72 34 -87 44 -15 10 -46 25 -70 34 -45 16
-243 117 -268 138 -51 41 -247 142 -303 156 -39 10 -205 83 -318 140 -46 23
-115 55 -154 70 -38 16 -128 56 -200 90 -71 34 -152 70 -180 80 -27 10 -122
48 -210 84 -211 88 -324 132 -377 146 -24 7 -50 18 -58 25 -9 8 -66 32 -127
54 -62 22 -127 47 -144 56 -17 9 -33 14 -36 11 -3 -3 -19 2 -35 10 -70 36
-289 97 -451 124 -494 84 -596 114 -737 219 -78 57 -421 246 -503 276 -66 25
-142 98 -158 153 -12 40 -11 45 10 65 20 20 31 22 149 23 70 0 146 6 170 13
57 16 166 7 222 -18 80 -36 193 -23 323 38 56 26 70 29 127 24 38 -4 94 -18
133 -35 83 -35 112 -34 112 4 -1 21 6 30 28 38 19 6 28 15 25 27 -4 21 -141
60 -246 70 -56 5 -82 16 -69 29 2 2 40 11 83 20 67 13 94 13 172 3 107 -14
126 -7 98 35 -16 26 -18 26 -155 26 -128 0 -141 -2 -185 -25 -26 -14 -56 -25
-67 -25 -35 0 -78 29 -103 69 -14 21 -50 60 -82 87 -49 42 -64 64 -105 151
-37 80 -59 113 -99 149 -30 29 -50 55 -50 69 0 11 16 68 35 125 40 119 43 145
16 160 -29 15 -48 4 -130 -73 -64 -61 -75 -67 -88 -54 -13 13 -12 23 6 84 27
92 27 128 -1 147 -33 23 -76 19 -139 -14z m75 -78 c2 -4 -15 -52 -39 -107 -24
-55 -51 -130 -60 -167 -17 -66 -17 -68 4 -97 38 -54 91 -47 91 11 0 31 29 78
48 78 33 0 122 -61 161 -109 21 -27 61 -94 89 -148 28 -54 60 -110 70 -125 16
-25 120 -117 216 -191 50 -39 45 -87 -10 -87 -35 0 -111 37 -123 59 -6 11 -27
37 -45 58 -30 32 -45 39 -118 54 -46 10 -100 18 -121 19 -73 0 -247 -75 -247
-107 0 -23 36 -14 96 22 78 47 118 58 190 52 83 -8 94 -11 94 -22 0 -6 -26 -9
-63 -7 -42 2 -72 -2 -92 -12 -17 -9 -38 -16 -47 -16 -10 0 -18 -7 -18 -16 0
-18 14 -17 92 11 27 10 55 14 65 10 14 -6 7 -10 -27 -19 -30 -7 -46 -17 -48
-29 -3 -14 1 -18 15 -14 60 17 138 18 177 2 79 -32 146 -69 143 -80 -6 -19
-57 -17 -90 4 -30 18 -44 19 -207 14 -405 -13 -457 -1 -520 119 -15 27 -20 57
-20 111 0 40 -3 76 -6 79 -3 4 -22 -5 -41 -18 -20 -13 -42 -24 -49 -24 -21 0
-28 47 -14 89 9 29 10 43 1 60 -12 22 1 127 20 163 21 39 67 11 104 -60 17
-36 94 -78 121 -68 25 10 15 35 -20 51 -34 16 -56 54 -56 97 0 59 86 232 154
307 42 48 115 77 130 53z m184 -134 c18 -18 14 -73 -7 -92 -21 -19 -62 -14
-82 10 -10 12 -5 22 26 54 43 44 46 45 63 28z m-588 -709 c0 -52 -24 -48 -28
4 -2 28 1 37 12 37 12 0 16 -11 16 -41z m-39 -92 c-10 -9 -11 -8 -5 6 3 10 9
15 12 12 3 -3 0 -11 -7 -18z m1337 -14 c53 -20 56 -38 5 -29 -76 12 -174 42
-166 50 11 11 109 -2 161 -21z m-1227 -13 c5 0 9 -7 9 -15 0 -9 -9 -15 -25
-15 -19 0 -25 5 -25 21 0 15 4 19 16 15 9 -3 20 -6 25 -6z m574 -970 c3 -5 1
-10 -4 -10 -6 0 -11 5 -11 10 0 6 2 10 4 10 3 0 8 -4 11 -10z m1481 -156 c18
-15 18 -15 -6 -10 -14 3 -31 6 -37 6 -7 0 -13 5 -13 10 0 15 34 12 56 -6z
m-1169 -46 c-3 -8 -6 -5 -6 6 -1 11 2 17 5 13 3 -3 4 -12 1 -19z m1263 -9 c25
-12 39 -23 33 -26 -19 -7 -114 27 -107 38 8 13 24 11 74 -12z m106 -46 c-8 -8
-36 5 -36 17 0 7 6 7 21 0 11 -7 18 -14 15 -17z m-1776 -30 c0 -7 -9 -13 -20
-13 -16 0 -20 7 -20 32 0 30 0 31 20 13 11 -10 20 -24 20 -32z m-10 -63 c0 -5
-4 -10 -10 -10 -5 0 -10 5 -10 10 0 6 5 10 10 10 6 0 10 -4 10 -10z m1923 -40
c58 -22 112 -40 119 -40 8 0 18 -4 23 -9 6 -5 33 -16 61 -25 28 -9 60 -23 70
-31 18 -14 17 -15 -11 -8 -16 3 -56 17 -88 30 -32 13 -99 35 -149 48 -90 24
-138 47 -138 65 0 13 -7 15 113 -30z m93 14 c34 -16 46 -34 22 -34 -7 1 -38
14 -68 31 -49 27 -51 29 -22 25 19 -3 49 -13 68 -22z m-1766 -34 c0 -5 -9 -10
-20 -10 -11 0 -20 5 -20 10 0 6 9 10 20 10 11 0 20 -4 20 -10z m147 -4 c7 -7
-60 -18 -87 -14 -13 1 -25 8 -27 13 -3 11 104 11 114 1z m2069 -51 c10 -8 14
-15 8 -15 -5 0 -19 7 -30 15 -10 8 -14 15 -8 15 5 0 19 -7 30 -15z m-25 -72
c54 -20 99 -41 99 -46 0 -10 -7 -9 -100 23 -102 35 -110 39 -110 50 0 14 1 14
111 -27z m-2031 -33 c0 -11 -5 -29 -12 -40 -16 -25 -6 -33 37 -34 19 -1 35 -4
35 -7 0 -18 -34 -30 -77 -27 -48 3 -48 3 -51 42 -3 29 2 44 19 62 27 29 49 31
49 4z m-124 -5 c-23 -17 -36 -19 -36 -6 0 11 18 19 40 20 11 0 10 -3 -4 -14z
m2526 -42 c48 -20 85 -39 83 -41 -8 -8 -146 41 -168 59 -33 27 -11 23 85 -18z
m-182 7 c0 -5 -2 -10 -4 -10 -3 0 -8 5 -11 10 -3 6 -1 10 4 10 6 0 11 -4 11
-10z m237 -86 c-7 -8 -57 15 -57 26 0 6 13 4 31 -5 17 -9 29 -19 26 -21z m193
-104 c12 -8 12 -10 -5 -10 -11 0 -27 5 -35 10 -12 8 -12 10 5 10 11 0 27 -5
35 -10z m-2574 -108 c-12 -12 -18 8 -10 35 l8 28 4 -28 c2 -16 1 -31 -2 -35z
m1823 -429 c66 -12 65 -33 -1 -33 -60 0 -198 30 -198 44 0 9 122 2 199 -11z
m6652 -46 c-11 -30 -31 -33 -31 -4 0 28 7 37 25 30 9 -3 11 -11 6 -26z m160
-10 c-8 -8 -11 -3 -11 19 1 25 2 27 11 11 8 -14 8 -22 0 -30z m-6261 23 c0 -5
-4 -10 -10 -10 -5 0 -10 5 -10 10 0 6 5 10 10 10 6 0 10 -4 10 -10z m50 -6 c0
-2 -9 -4 -21 -4 -11 0 -18 4 -14 10 5 8 35 3 35 -6z m6180 -15 c0 -11 -4 -17
-10 -14 -5 3 -10 15 -10 26 0 11 5 17 10 14 6 -3 10 -15 10 -26z m-4355 -109
c12 -13 15 -20 7 -20 -20 0 -65 26 -87 50 l-20 22 40 -16 c22 -9 49 -26 60
-36z m68 -32 c15 -7 27 -16 27 -20 0 -9 -58 11 -66 23 -7 13 7 11 39 -3z m107
-59 c0 -12 -43 6 -48 20 -3 9 2 9 22 0 14 -7 26 -16 26 -20z m-30 -73 c0 -3
-4 -8 -10 -11 -5 -3 -10 -1 -10 4 0 6 5 11 10 11 6 0 10 -2 10 -4z m5377 -49
c-1 -6 21 -15 48 -20 198 -34 506 -105 577 -134 37 -15 39 -17 23 -30 -16 -11
-21 -10 -35 2 -18 17 -50 20 -50 6 0 -5 6 -11 13 -14 19 -7 -40 -27 -83 -27
-50 0 -141 -20 -160 -35 -25 -20 -111 -37 -152 -30 -41 7 -43 25 -2 25 28 0
33 17 7 22 -14 3 -12 7 12 20 17 9 40 27 52 40 19 20 21 27 10 41 -10 15 -40
18 -232 22 -181 4 -221 7 -228 20 -10 19 -131 22 -125 3 3 -8 20 -12 44 -10
21 1 45 -2 53 -7 22 -14 -75 -26 -102 -12 -12 6 -35 16 -52 22 -16 6 -24 13
-17 16 26 10 10 23 -28 23 -22 0 -40 -4 -40 -10 0 -5 10 -10 21 -10 18 0 19
-3 9 -15 -10 -12 -7 -15 17 -21 46 -11 48 -16 18 -40 -37 -29 -28 -38 35 -36
45 1 51 -2 56 -24 8 -29 23 -30 124 -5 138 34 288 55 308 42 21 -12 -3 -26
-107 -61 -52 -18 -107 -38 -124 -45 -52 -22 -13 -25 57 -4 37 11 70 18 72 16
3 -3 -9 -15 -27 -28 -38 -27 -131 -38 -154 -19 -12 10 -28 9 -82 -3 -38 -9
-97 -18 -133 -22 -111 -10 -170 -26 -170 -46 0 -13 10 -19 43 -23 54 -7 220
-16 367 -22 140 -5 258 -29 408 -82 77 -28 81 -36 27 -57 -48 -18 -49 -31 -5
-37 16 -2 24 -9 21 -18 -17 -64 -7 -78 30 -44 14 13 16 21 8 36 -14 27 -3 37
51 44 37 5 49 2 67 -15 12 -12 27 -21 33 -21 31 0 112 -45 121 -66 12 -34 1
-54 -60 -108 l-53 -47 -82 1 c-44 1 -256 1 -471 1 -348 -1 -613 9 -685 25 -50
11 -239 126 -311 189 -41 36 -91 71 -111 77 -49 15 -137 93 -159 142 -20 44
-24 102 -9 126 8 13 15 13 58 -3 60 -21 108 -22 153 -3 19 8 46 12 61 9 22 -4
35 2 63 30 19 19 35 41 35 49 0 45 146 89 300 92 73 1 81 7 53 38 -29 32 -4
32 36 0 50 -40 61 -40 61 -2 l0 31 178 -7 c122 -4 172 -2 162 5 -28 19 0 24
60 8 57 -14 60 -14 60 4 0 21 -47 33 -110 27 -38 -3 -48 1 -33 15 12 12 183 6
180 -6z m-517 -58 c0 -6 -4 -7 -10 -4 -5 3 -10 11 -10 16 0 6 5 7 10 4 6 -3
10 -11 10 -16z m-666 -40 c17 -13 26 -30 26 -48 0 -16 5 -43 11 -60 10 -27 9
-35 -5 -49 -15 -15 -19 -15 -51 2 -18 10 -44 29 -56 42 -22 24 -22 25 -5 79
19 62 36 69 80 34z m1817 -15 c68 -20 91 -32 84 -44 -5 -8 -160 42 -174 56
-10 9 38 3 90 -12z m-5021 -84 c0 -5 -2 -10 -4 -10 -3 0 -8 5 -11 10 -3 6 -1
10 4 10 6 0 11 -4 11 -10z m5435 0 c3 -5 -3 -10 -14 -10 -12 0 -21 5 -21 10 0
6 6 10 14 10 8 0 18 -4 21 -10z m-275 -10 c0 -11 -7 -13 -67 -15 -71 -2 -31
17 50 24 9 0 17 -3 17 -9z m-155 -20 c-3 -5 -10 -10 -16 -10 -5 0 -9 5 -9 10
0 6 7 10 16 10 8 0 12 -4 9 -10z m630 0 c3 -6 -1 -13 -10 -16 -19 -8 -30 0
-20 15 8 14 22 14 30 1z m-115 -5 c0 -9 -44 -23 -54 -18 -4 3 -2 9 5 14 15 10
49 12 49 4z m-261 -24 c11 -7 10 -11 -7 -20 -11 -6 -28 -11 -36 -11 -8 0 -20
-9 -26 -21 -9 -16 -14 -18 -26 -8 -9 7 -30 9 -57 6 -46 -7 -79 5 -62 22 13 13
120 39 165 40 19 0 41 -3 49 -8z m-312 -26 c44 -19 38 -27 -45 -59 -47 -19
-62 -21 -62 -11 0 8 5 17 11 21 6 3 9 15 6 25 -5 19 15 38 41 39 7 0 29 -7 49
-15z m503 5 c0 -5 -2 -10 -4 -10 -3 0 -8 5 -11 10 -3 6 -1 10 4 10 6 0 11 -4
11 -10z m106 -2 c24 1 33 -3 37 -17 2 -11 15 -21 28 -23 23 -4 23 -5 -5 -13
-18 -5 -36 -4 -47 3 -26 17 -46 6 -80 -44 -31 -46 -29 -55 9 -28 13 9 26 13
29 10 12 -12 -70 -118 -114 -149 -26 -18 -65 -48 -88 -68 -48 -43 -161 -103
-181 -95 -9 3 -14 21 -14 49 0 29 -6 49 -17 59 -20 17 -106 58 -122 58 -6 0
-11 5 -11 10 0 6 2 10 5 10 35 0 248 56 305 81 88 37 179 93 182 111 0 7 2 18
3 23 2 6 3 16 4 23 1 9 8 11 24 6 12 -5 36 -7 53 -6z m-1039 -9 c6 -6 44 -15
84 -20 90 -11 106 -16 113 -34 9 -25 -42 -30 -113 -10 -37 11 -97 21 -135 24
-59 5 -67 8 -53 19 15 13 59 29 83 31 5 1 15 -4 21 -10z m868 -13 c49 -21 45
-40 -13 -70 -33 -17 -34 -17 -57 8 -18 20 -34 26 -64 26 -55 0 -59 15 -9 33
56 20 100 21 143 3z m-5295 -12 l25 -15 -35 6 c-39 6 -66 25 -34 25 10 -1 30
-8 44 -16z m4700 6 c0 -5 -13 -10 -29 -10 -17 0 -33 5 -36 10 -4 6 8 10 29 10
20 0 36 -4 36 -10z m-4610 -30 c12 -8 12 -10 -5 -10 -11 0 -27 5 -35 10 -12 8
-12 10 5 10 11 0 27 -5 35 -10z m-50 -20 c11 -7 7 -10 -17 -10 -18 0 -33 5
-33 10 0 13 30 13 50 0z m5115 -14 c18 -13 17 -14 -11 -32 -16 -10 -32 -23
-35 -28 -4 -5 -14 -6 -23 -3 -8 3 -22 0 -30 -8 -10 -11 -37 -15 -91 -15 -62 0
-81 -4 -105 -21 -21 -16 -36 -20 -56 -15 -34 9 -23 19 46 41 30 9 80 32 110
50 30 18 62 35 70 38 29 11 107 7 125 -7z m-485 -30 c30 3 96 12 145 20 50 8
103 14 120 14 l29 0 -23 -16 c-30 -21 -172 -71 -225 -79 -35 -6 -53 0 -123 35
-94 47 -109 66 -30 39 38 -14 67 -17 107 -13z m-4245 -46 c3 -5 2 -10 -4 -10
-5 0 -13 5 -16 10 -3 6 -2 10 4 10 5 0 13 -4 16 -10z m75 -36 c0 -2 -7 -4 -15
-4 -8 0 -15 4 -15 10 0 5 7 7 15 4 8 -4 15 -8 15 -10z m253 -44 c9 0 17 -4 17
-10 0 -11 -39 -13 -64 -4 -25 9 -19 27 7 20 12 -3 30 -6 40 -6z m-654 -20 c53
-5 126 -10 164 -10 67 0 74 -3 58 -29 -7 -11 -29 -11 -127 -1 -66 7 -145 14
-177 17 -31 3 -60 10 -63 15 -9 13 17 29 35 22 8 -2 58 -9 110 -14z m569 -39
c96 -6 178 -14 183 -17 16 -9 76 -15 205 -18 107 -2 124 -5 149 -24 30 -24 35
-25 59 -16 20 8 11 24 -15 24 -10 0 -19 5 -19 11 0 8 13 9 43 3 23 -4 98 -9
167 -10 140 -2 297 -16 440 -38 52 -8 126 -18 164 -21 46 -5 87 -17 124 -36
30 -16 64 -29 76 -29 11 0 27 -4 35 -9 18 -12 -2 -23 -31 -17 -13 3 -95 10
-183 16 -106 7 -190 19 -250 35 -159 42 -445 87 -445 71 0 -19 72 -38 149 -40
47 -2 101 -9 119 -17 31 -13 16 -14 -155 -11 -103 3 -196 8 -205 13 -9 5 -39
9 -67 9 -60 0 -81 7 -81 27 0 11 -5 13 -17 8 -24 -10 -93 -7 -243 10 -69 8
-126 15 -128 15 -2 0 0 -4 3 -10 3 -5 16 -10 28 -10 12 0 29 -5 37 -11 11 -7
-12 -8 -80 -3 -52 4 -138 10 -190 13 -75 5 -95 9 -95 21 0 8 5 14 10 14 6 -1
53 -5 105 -9 68 -5 92 -4 84 4 -5 6 -59 16 -120 21 -153 14 -174 18 -174 37 0
13 11 14 73 10 39 -3 150 -11 245 -16z m4292 5 c0 -11 -19 -15 -25 -6 -3 5 1
10 9 10 9 0 16 -2 16 -4z m-4546 -57 c19 -17 -3 -21 -80 -12 -50 5 -79 13 -82
21 -3 11 11 13 74 7 44 -4 83 -11 88 -16z m-1016 -49 c4 -11 -68 -12 -404 -7
-247 3 -419 9 -434 16 -18 7 100 9 404 7 345 -2 431 -5 434 -16z m-1068 0 c0
-5 -7 -10 -15 -10 -8 0 -15 5 -15 10 0 6 7 10 15 10 8 0 15 -4 15 -10z m2545
0 c3 -5 -3 -10 -15 -10 -12 0 -18 5 -15 10 3 6 10 10 15 10 5 0 12 -4 15 -10z
m160 -10 c3 -5 -1 -10 -10 -10 -9 0 -13 5 -10 10 3 6 8 10 10 10 2 0 7 -4 10
-10z m-2761 -10 c-5 -5 -25 -12 -44 -16 -33 -5 -34 -5 -16 10 22 17 77 23 60
6z m4029 -19 c81 -21 147 -31 237 -35 69 -3 140 -10 157 -15 17 -5 116 -10
220 -11 103 -1 220 -5 258 -11 39 -5 77 -10 85 -10 8 -1 21 -6 28 -12 7 -5 29
-11 50 -12 20 -1 64 -14 97 -28 33 -15 74 -27 91 -27 17 0 48 -7 67 -15 20 -8
53 -15 74 -15 49 0 203 -32 203 -42 0 -4 -12 -8 -27 -8 -44 0 -9 -17 63 -30
35 -7 71 -18 81 -26 17 -12 16 -13 -9 -14 -15 0 -56 7 -93 15 -71 17 -106 10
-59 -11 25 -11 9 -12 -116 -9 -194 6 -290 15 -320 30 -14 8 -42 16 -63 20 -20
4 -37 13 -37 20 0 10 33 15 125 20 110 7 128 5 152 -10 15 -10 54 -22 87 -26
34 -4 77 -11 96 -14 l35 -6 -30 17 c-16 9 -38 26 -48 38 -16 20 -18 20 -31 4
-18 -24 -31 -23 -56 4 -18 19 -31 22 -127 23 -60 1 -121 5 -138 9 -16 4 -57
14 -90 23 -78 20 -178 31 -343 38 -74 3 -179 11 -235 19 -56 8 -147 20 -202
26 -55 7 -115 20 -135 30 -19 10 -68 27 -107 39 -40 12 -73 26 -73 31 0 14 10
13 133 -19z m-4645 -3 c-3 -8 -23 -13 -53 -13 -30 0 -50 5 -52 13 -4 9 11 12
52 12 41 0 56 -3 53 -12z m1886 3 c6 -9 -26 -21 -60 -21 -12 0 -24 7 -28 15
-4 12 4 15 39 15 24 0 46 -4 49 -9z m5527 -1 c27 0 24 -15 -6 -28 -28 -13 -75
-16 -75 -5 0 15 35 43 48 38 7 -3 22 -5 33 -5z m-7231 -11 c0 -11 -43 -19 -68
-13 -12 4 -19 10 -17 15 6 9 85 8 85 -2z m335 1 c-3 -5 -13 -10 -21 -10 -8 0
-12 5 -9 10 3 6 13 10 21 10 8 0 12 -4 9 -10z m1260 0 c-3 -5 -10 -10 -16 -10
-5 0 -9 5 -9 10 0 6 7 10 16 10 8 0 12 -4 9 -10z m555 -10 c52 -6 136 -17 185
-25 108 -17 534 -50 623 -47 63 2 78 -8 42 -28 -21 -11 -420 16 -640 44 -114
15 -303 29 -390 31 -150 2 -200 6 -200 15 0 6 17 10 38 11 20 0 46 4 57 9 23
10 146 6 285 -10z m1212 4 c9 -6 237 -15 343 -14 160 2 345 -19 417 -46 76
-29 83 -35 65 -56 -10 -13 -30 -14 -127 -7 -63 5 -137 13 -165 19 -27 5 -124
12 -215 16 -91 4 -170 10 -176 15 -6 5 -64 27 -130 49 -95 32 -109 39 -69 34
28 -3 53 -8 57 -10z m-277 -41 c44 -11 86 -14 159 -9 94 6 121 2 194 -25 43
-16 25 -31 -30 -25 -76 8 -118 12 -253 24 -174 16 -204 24 -205 55 0 9 48 2
135 -20z m-3265 -3 c0 -13 -40 -13 -60 0 -11 7 -5 10 23 10 20 0 37 -4 37 -10z
m85 0 c4 -6 -7 -10 -27 -10 -25 0 -29 3 -18 10 19 13 37 13 45 0z m2203 -21
c40 -5 102 -9 137 -9 38 0 67 -5 71 -12 7 -11 -2 -11 -306 8 l-105 7 19 -22
c22 -24 15 -26 -52 -10 -58 14 -69 23 -53 43 10 12 32 14 114 10 56 -3 135
-10 175 -15z m2292 1 c162 -14 313 -44 358 -70 18 -11 51 -20 73 -20 22 0 39
-5 39 -11 0 -8 -30 -9 -107 -3 -60 4 -148 9 -198 10 -122 2 -206 19 -251 49
-20 14 -40 25 -45 25 -4 0 -20 4 -34 10 -31 12 -23 34 9 27 11 -3 82 -11 156
-17z m1225 10 c3 -5 -1 -10 -9 -10 -8 0 -18 5 -21 10 -3 6 1 10 9 10 8 0 18
-4 21 -10z m-5408 -18 c29 -17 -2 -20 -107 -10 -152 14 -149 14 -157 23 -10
10 244 -2 264 -13z m1288 9 c45 -10 17 -18 -44 -13 -36 3 -49 7 -40 13 16 10
40 10 84 0z m-1670 -21 c3 -5 -3 -10 -14 -10 -12 0 -21 5 -21 10 0 6 6 10 14
10 8 0 18 -4 21 -10z m90 -10 c3 -5 1 -10 -4 -10 -6 0 -11 5 -11 10 0 6 2 10
4 10 3 0 8 -4 11 -10z m2635 -6 c86 -5 221 -22 228 -29 15 -14 -19 -14 -149 0
-79 9 -174 19 -212 22 -37 3 -70 10 -74 16 -4 7 17 8 63 3 38 -4 103 -9 144
-12z m-760 -19 c36 -8 92 -18 124 -22 33 -5 61 -13 63 -19 5 -17 -176 -9 -219
9 -19 8 -64 17 -100 21 -36 4 -74 14 -85 22 -16 14 -10 15 67 10 47 -3 114
-12 150 -21z m1545 5 c66 -5 157 -10 201 -10 64 0 106 -7 194 -34 62 -19 116
-39 119 -44 3 -6 22 -12 40 -14 19 -2 36 -9 39 -16 3 -9 -6 -11 -35 -8 -21 3
-166 8 -323 11 -408 8 -868 41 -1215 86 -49 7 -109 12 -132 13 -24 0 -43 5
-43 10 0 10 160 2 285 -14 112 -15 256 -28 500 -45 248 -17 282 -18 270 -6 -6
5 -106 16 -224 25 -118 9 -217 19 -220 22 -9 8 23 24 39 19 8 -2 78 -9 155
-15 77 -5 150 -13 163 -16 16 -5 22 -2 22 10 0 12 -10 16 -39 16 -40 0 -62 14
-39 24 7 3 38 3 68 1 30 -3 109 -10 175 -15z m-3265 0 c0 -5 -13 -10 -30 -10
-16 0 -30 5 -30 10 0 6 14 10 30 10 17 0 30 -4 30 -10z m2015 0 c-3 -5 -12 -7
-20 -3 -21 7 -19 13 6 13 11 0 18 -4 14 -10z m65 0 c12 -8 9 -10 -12 -10 -16
0 -28 5 -28 10 0 13 20 13 40 0z m2119 4 c48 -10 37 -24 -19 -24 -38 0 -50 4
-50 15 0 16 19 19 69 9z m976 -38 c69 -5 170 -27 182 -40 4 -4 -99 -6 -229 -4
-184 4 -241 8 -254 19 -9 8 -48 21 -87 29 -39 8 -72 20 -74 25 -2 7 67 4 199
-7 112 -9 230 -19 263 -22z m-1365 16 c14 -3 48 -7 75 -8 298 -13 625 -53 777
-98 31 -9 62 -16 69 -16 23 0 -4 16 -49 29 -58 16 -50 37 14 34 147 -6 317
-23 379 -37 86 -20 85 -20 85 -1 0 17 25 20 35 5 3 -5 24 -10 46 -10 27 0 42
-5 46 -16 4 -10 13 -13 32 -9 24 5 91 -18 91 -32 0 -3 -80 -3 -177 1 -98 3
-272 8 -388 11 -115 3 -257 10 -314 15 -58 6 -181 10 -275 10 -108 1 -195 6
-236 15 -107 23 -210 52 -261 74 -26 12 -59 21 -73 21 -16 0 -26 6 -26 15 0
12 11 14 63 9 34 -3 73 -8 87 -12z m-3566 2 c29 -11 17 -22 -34 -33 -92 -20
-119 -9 -57 22 34 17 66 21 91 11z m6530 -2 c12 -19 -66 -32 -175 -30 -90 2
-125 -1 -164 -15 -56 -21 -286 -44 -327 -34 -15 4 -35 16 -45 26 -10 10 -26
20 -36 22 -65 13 23 19 346 22 202 3 371 7 374 11 9 8 21 8 27 -2z m-5599 -12
c3 -5 -3 -10 -15 -10 -12 0 -18 5 -15 10 3 6 10 10 15 10 5 0 12 -4 15 -10z
m-685 -10 c0 -19 -31 -23 -48 -6 -15 15 -14 16 16 16 18 0 32 -5 32 -10z
m1590 0 c0 -5 -4 -10 -10 -10 -5 0 -10 5 -10 10 0 6 5 10 10 10 6 0 10 -4 10
-10z m-803 -6 c-3 -3 -12 -4 -19 -1 -8 3 -5 6 6 6 11 1 17 -2 13 -5z m693 -4
c0 -5 -4 -10 -10 -10 -5 0 -10 5 -10 10 0 6 5 10 10 10 6 0 10 -4 10 -10z
m275 -1 c103 -14 233 -26 485 -45 124 -9 272 -19 330 -24 58 -5 272 -15 475
-24 467 -19 512 -22 538 -41 12 -8 32 -15 44 -15 31 0 103 -30 103 -42 0 -7
-33 -8 -97 -4 -54 4 -165 9 -248 12 -82 2 -194 9 -248 14 -140 14 -354 13
-359 -2 -6 -17 -28 0 -28 22 0 10 -8 21 -17 24 -35 11 -190 27 -303 32 -63 3
-121 7 -129 10 -7 2 -57 7 -110 9 -53 3 -134 9 -181 14 -47 6 -151 16 -232 22
-82 7 -148 16 -148 20 0 9 31 28 45 28 6 0 42 -4 80 -10z m4645 -9 c0 -5 -2
-10 -4 -10 -3 0 -8 5 -11 10 -3 6 -1 10 4 10 6 0 11 -4 11 -10z m-6895 -30
c-3 -5 -12 -10 -20 -10 -8 0 -17 5 -20 10 -4 6 5 10 20 10 15 0 24 -4 20 -10z
m2000 0 c3 -5 -1 -10 -9 -10 -9 0 -16 5 -16 10 0 6 4 10 9 10 6 0 13 -4 16
-10z m5205 -9 c52 -5 132 -13 178 -17 80 -6 100 -15 65 -29 -33 -13 -302 -26
-336 -17 -18 5 -41 6 -52 2 -31 -12 -315 -20 -315 -9 0 5 27 9 60 9 33 0 60 4
60 10 0 6 -37 10 -90 10 -88 0 -108 -8 -72 -29 14 -9 12 -10 -14 -11 -21 0
-37 -7 -47 -22 -8 -13 -18 -20 -22 -16 -12 11 5 47 25 53 13 4 19 14 17 28 -2
19 3 22 33 22 19 1 47 7 62 15 32 18 294 18 448 1z m-5110 -1 c0 -5 -4 -10 -9
-10 -6 0 -13 5 -16 10 -3 6 1 10 9 10 9 0 16 -4 16 -10z m168 -16 c72 -5 100
-10 93 -17 -7 -7 -34 -7 -88 1 -43 7 -93 12 -110 12 -18 0 -33 5 -33 11 0 6 8
8 18 5 9 -3 63 -8 120 -12z m3522 6 c0 -5 -2 -10 -4 -10 -3 0 -8 5 -11 10 -3
6 -1 10 4 10 6 0 11 -4 11 -10z m-6100 -12 c0 -4 -20 -8 -45 -8 -25 0 -45 5
-45 10 0 6 20 9 45 8 25 0 45 -5 45 -10z m2960 -27 c52 -5 185 -14 295 -21
110 -7 204 -17 209 -22 6 -4 1 -8 -12 -8 -13 0 -25 -6 -27 -12 -6 -15 -126 -8
-320 17 -60 8 -157 19 -215 25 -136 14 -160 19 -160 32 0 7 22 8 68 4 37 -4
110 -11 162 -15z m-3240 -11 c0 -5 -7 -10 -15 -10 -8 0 -15 5 -15 10 0 6 7 10
15 10 8 0 15 -4 15 -10z m4967 -14 c77 -3 235 -8 350 -11 114 -4 242 -11 283
-17 43 -6 254 -11 493 -11 229 0 417 -4 417 -8 0 -5 -10 -9 -22 -9 -12 0 -18
-3 -14 -7 12 -13 190 -2 206 12 13 11 19 10 39 -6 l23 -19 -31 -6 c-17 -4 -31
-12 -31 -19 0 -15 -28 -28 -42 -19 -5 3 -1 12 9 21 16 13 15 14 -17 8 -19 -3
-125 -8 -234 -12 -147 -4 -197 -3 -192 6 4 6 29 11 56 11 27 0 52 5 56 12 5 8
-25 9 -122 2 -71 -5 -390 -9 -709 -9 l-580 0 -75 35 c-41 19 -77 36 -79 37 -1
1 0 7 4 13 4 6 20 8 38 5 18 -2 96 -7 174 -9z m2019 -9 c-11 -7 -27 -19 -37
-28 -21 -21 -89 -33 -109 -19 -12 8 -9 10 12 10 15 0 30 5 33 10 4 6 -11 10
-36 10 -27 0 -39 4 -33 9 10 10 60 17 139 19 42 1 47 -1 31 -11z m-336 -27 c0
-5 -4 -10 -10 -10 -5 0 -10 5 -10 10 0 6 5 10 10 10 6 0 10 -4 10 -10z m420
-30 c-12 -23 -30 -27 -30 -7 0 17 10 27 27 27 11 0 11 -5 3 -20z m-3100 6 c0
-11 -19 -15 -25 -6 -3 5 1 10 9 10 9 0 16 -2 16 -4z m135 -6 c4 -6 -5 -10 -20
-10 -15 0 -24 4 -20 10 3 6 12 10 20 10 8 0 17 -4 20 -10z m252 -10 c29 0 53
-3 53 -7 0 -14 -240 -7 -253 7 -10 10 3 11 67 6 43 -3 103 -6 133 -6z m2593 0
c27 -17 0 -24 -113 -27 -127 -4 -123 10 8 25 44 5 82 10 85 10 3 1 12 -2 20
-8z m-2460 -14 c0 -11 -19 -15 -25 -6 -3 5 1 10 9 10 9 0 16 -2 16 -4z m87 -2
c-3 -3 -12 -4 -19 -1 -8 3 -5 6 6 6 11 1 17 -2 13 -5z m224 -7 c25 4 39 2 39
-6 0 -7 -22 -11 -61 -11 -54 0 -60 2 -49 15 8 10 17 12 23 6 5 -5 26 -6 48 -4z
m-991 -7 c0 -5 -10 -10 -22 -9 -22 0 -22 1 -3 9 11 5 21 9 23 9 1 1 2 -3 2 -9z
m165 -11 c5 -5 -17 -9 -52 -9 -62 0 -94 15 -51 23 30 5 90 -3 103 -14z m672
15 c-3 -3 -12 -4 -19 -1 -8 3 -5 6 6 6 11 1 17 -2 13 -5z m637 0 c40 -15 -6
-23 -139 -23 -120 0 -145 3 -145 15 0 11 24 14 134 14 74 0 141 -3 150 -6z
m784 -1 c-10 -2 -26 -2 -35 0 -10 3 -2 5 17 5 19 0 27 -2 18 -5z m968 -74
c-19 -83 -41 -139 -54 -139 -5 0 -15 7 -22 15 -10 12 -7 29 16 87 25 67 61
124 72 114 2 -3 -3 -37 -12 -77z m-2076 67 c0 -9 -30 -14 -35 -6 -4 6 3 10 14
10 12 0 21 -2 21 -4z m507 -2 c-3 -3 -12 -4 -19 -1 -8 3 -5 6 6 6 11 1 17 -2
13 -5z m-1342 -14 c8 -12 -61 -12 -90 0 -15 6 -6 9 32 9 28 1 55 -3 58 -9z
m445 -11 c52 -4 121 -9 153 -9 33 0 57 -4 57 -11 0 -7 -66 -8 -212 -4 -330 9
-408 16 -408 37 0 11 238 4 410 -13z m1960 11 c0 -16 -32 -19 -340 -30 -162
-5 -338 -14 -390 -20 -205 -20 -311 -25 -465 -20 -88 3 -155 8 -150 11 6 4
134 10 285 14 151 4 283 11 293 17 18 9 333 26 587 31 74 1 145 4 158 5 12 1
22 -2 22 -8z m75 0 c-3 -5 -13 -10 -21 -10 -8 0 -14 5 -14 10 0 6 9 10 21 10
11 0 17 -4 14 -10z m525 -4 c0 -17 -14 -29 -23 -20 -8 8 3 34 14 34 5 0 9 -6
9 -14z m-7465 -22 c70 -18 68 -15 90 -121 9 -46 -3 -93 -23 -93 -32 0 -128 96
-156 155 -14 31 -26 60 -26 65 0 15 42 12 115 -6z m5200 -4 c-3 -5 -15 -10
-26 -10 -11 0 -17 5 -14 10 3 6 15 10 26 10 11 0 17 -4 14 -10z m115 -20 c0
-5 -7 -10 -15 -10 -8 0 -15 5 -15 10 0 6 7 10 15 10 8 0 15 -4 15 -10z m1960
-176 c0 -8 -5 -12 -10 -9 -6 4 -8 11 -5 16 9 14 15 11 15 -7z m-7174 -150 l34
-26 -32 -40 c-32 -41 -105 -94 -116 -84 -3 3 2 14 11 24 10 10 17 23 17 29 0
6 9 22 21 37 15 19 19 34 14 56 -8 38 5 39 51 4z m-6 -173 c0 -13 -40 -61 -51
-61 -16 0 -10 23 13 47 22 24 38 30 38 14z m-180 -90 c0 -36 -242 -183 -635
-387 -49 -26 -119 -65 -155 -87 -36 -22 -99 -60 -140 -84 -41 -25 -88 -57
-105 -72 -61 -55 -281 -195 -294 -187 -4 3 -23 -9 -41 -26 -19 -17 -50 -37
-69 -45 -32 -14 -35 -13 -55 7 -19 19 -20 22 -4 31 9 5 36 25 60 44 24 19 68
46 98 60 30 14 63 33 73 43 20 18 69 48 132 83 22 11 51 31 65 44 14 12 37 29
52 36 14 8 47 28 73 44 193 125 246 156 365 216 74 37 175 83 223 103 115 48
208 95 282 145 62 42 75 48 75 32z m3000 -811 c16 -12 30 -26 30 -31 0 -6 -32
-9 -77 -7 -66 3 -78 6 -81 21 -10 51 66 61 128 17z m1670 -60 c0 -5 -7 -10
-15 -10 -8 0 -15 5 -15 10 0 6 7 10 15 10 8 0 15 -4 15 -10z m205 -21 c10 -10
-95 -12 -120 -3 -13 5 -14 9 -4 15 15 9 110 0 124 -12z m455 -8 c21 -4 35 -13
35 -21 0 -12 -20 -15 -115 -12 -109 2 -331 20 -339 27 -1 2 0 8 3 13 7 11 358
5 416 -7z m-3840 -42 c0 -9 4 -8 14 0 28 23 399 0 376 -23 -11 -11 -443 -13
-478 -2 -11 4 -22 13 -25 20 -4 10 10 14 54 15 39 1 59 -2 59 -10z m2093 -46
c-13 -2 -35 -2 -50 0 -16 2 -5 4 22 4 28 0 40 -2 28 -4z"/>
<path d="M382 6385 c-29 -36 -47 -82 -66 -167 -5 -23 -3 -28 14 -28 13 0 22 9
26 28 18 81 28 110 46 139 11 18 18 41 16 50 -2 13 -11 8 -36 -22z"/>
<path d="M536 6055 c-17 -13 -16 -16 14 -61 l33 -47 66 8 c36 4 91 10 121 14
46 5 55 9 58 27 4 25 -53 78 -75 70 -7 -3 -38 -13 -68 -21 -51 -15 -56 -15
-92 4 -33 16 -41 17 -57 6z"/>
<path d="M10406 2694 c-32 -14 -98 -32 -145 -41 -91 -16 -119 -29 -102 -46 22
-22 290 60 322 99 17 21 -5 17 -75 -12z"/>
<path d="M10530 2670 c-23 -7 -22 -8 10 -9 19 0 42 4 50 9 12 8 10 10 -10 9
-14 -1 -36 -5 -50 -9z"/>
<path d="M9770 1940 c0 -5 7 -10 16 -10 8 0 12 5 9 10 -3 6 -10 10 -16 10 -5
0 -9 -4 -9 -10z"/>
<path d="M10365 1830 c-15 -6 -8 -9 28 -9 26 -1 47 4 47 9 0 12 -47 12 -75 0z"/>
<path d="M3650 3747 c0 -8 40 -27 98 -46 53 -18 153 -57 222 -86 169 -72 323
-114 304 -84 -11 18 -132 71 -352 153 -197 74 -272 91 -272 63z"/>
<path d="M1313 3719 c-19 -23 -44 -108 -41 -137 2 -15 10 -28 19 -30 13 -2 19
13 29 71 14 85 12 118 -7 96z"/>
<path d="M1490 3455 c-20 -24 -40 -106 -40 -165 0 -45 4 -61 21 -76 17 -16 22
-16 29 -4 13 19 12 43 0 75 -8 20 -6 38 5 71 25 74 16 136 -15 99z"/>
<path d="M4545 3048 c-106 -17 -86 -28 51 -28 71 0 171 -5 222 -10 52 -5 100
-6 108 -3 23 9 11 27 -27 40 -41 14 -267 15 -354 1z"/>
<path d="M3580 3020 c7 -13 17 -19 27 -16 8 3 40 0 71 -8 75 -19 184 -30 211
-21 13 4 21 13 19 23 -2 13 -13 16 -45 14 -24 -2 -66 1 -95 7 -29 5 -86 13
-126 17 -74 6 -74 6 -62 -16z"/>
<path d="M5940 2682 c0 -18 12 -42 21 -42 14 0 10 26 -6 40 -9 8 -15 8 -15 2z"/>
<path d="M5852 2588 c6 -16 127 -26 213 -18 84 9 51 17 -94 25 -99 5 -122 4
-119 -7z"/>
<path d="M5025 2461 c-14 -24 29 -30 345 -47 145 -7 359 -31 414 -46 35 -9 49
-9 58 0 6 6 9 14 6 18 -12 11 -295 45 -543 64 -294 23 -272 22 -280 11z"/>
<path d="M5164 2363 c4 -5 31 -14 59 -21 53 -14 135 -17 712 -26 182 -2 376
-8 433 -12 68 -5 102 -3 102 4 0 5 -8 13 -17 17 -10 4 -259 11 -553 16 -294 4
-578 13 -630 18 -115 13 -115 13 -106 4z"/>
<path d="M4030 2141 c0 -17 18 -21 24 -6 3 9 0 15 -9 15 -8 0 -15 -4 -15 -9z"/>
<path d="M3760 2070 c0 -5 10 -10 23 -10 18 0 19 2 7 10 -19 13 -30 13 -30 0z"/>
</g>
</svg>
