<?xml version="1.0" standalone="no"?>
<!DOCTYPE svg PUBLIC "-//W3C//DTD SVG 20010904//EN"
 "http://www.w3.org/TR/2001/REC-SVG-20010904/DTD/svg10.dtd">
<svg version="1.0" xmlns="http://www.w3.org/2000/svg"
 width="1280.000000pt" height="640.000000pt" viewBox="0 0 1280.000000 640.000000"
 preserveAspectRatio="xMidYMid meet">
<metadata>
Created by potrace 1.15, written by Peter Selinger 2001-2017
</metadata>
<g transform="translate(0.000000,640.000000) scale(0.100000,-0.100000)"
fill="#000000" stroke="none">
<path d="M253 5973 c-23 -9 -14 -55 21 -107 18 -28 61 -108 95 -178 57 -118
126 -231 174 -285 11 -13 18 -25 15 -28 -6 -6 -131 46 -218 90 -30 15 -76 46
-102 69 -26 22 -90 67 -140 99 l-93 58 -3 -82 -3 -82 99 -101 c117 -120 159
-172 198 -245 19 -35 62 -84 122 -140 51 -47 128 -131 170 -186 42 -55 102
-127 132 -160 139 -150 196 -214 212 -238 10 -14 55 -50 100 -80 46 -30 99
-70 118 -89 34 -33 34 -33 10 -36 -13 -2 -42 1 -63 8 -30 9 -46 9 -68 0 -25
-11 -38 -9 -94 14 -36 14 -71 26 -78 26 -19 0 -119 49 -142 69 -40 35 -133 51
-179 29 -57 -26 -35 -77 51 -119 23 -11 43 -24 43 -28 0 -9 -212 -22 -407 -27
-115 -2 -124 -4 -158 -29 -19 -15 -35 -32 -35 -38 0 -6 14 -32 30 -58 30 -46
55 -62 116 -74 18 -3 40 -15 50 -26 9 -10 30 -19 45 -19 18 0 32 -7 39 -19 9
-18 26 -20 177 -26 93 -3 215 -5 273 -5 102 1 107 0 150 -29 25 -17 53 -31 63
-31 10 0 28 -7 42 -16 21 -13 68 -27 250 -74 22 -5 61 -12 86 -15 26 -3 54
-12 64 -19 15 -11 16 -17 6 -48 -15 -46 0 -236 23 -290 9 -21 16 -45 16 -55 0
-44 74 -166 183 -301 29 -35 59 -74 67 -86 8 -12 29 -40 46 -62 17 -21 52 -80
77 -131 25 -51 69 -123 98 -160 29 -37 63 -93 77 -123 14 -30 39 -75 55 -99
42 -62 49 -104 32 -192 -18 -95 -28 -421 -15 -524 17 -140 42 -377 47 -460 7
-104 13 -115 59 -108 49 8 54 -5 38 -90 -24 -126 -21 -142 37 -196 47 -43 52
-53 57 -100 4 -50 -10 -121 -31 -148 -15 -21 -88 -25 -247 -12 -185 15 -323
16 -406 5 -58 -8 -64 -7 -96 18 -32 24 -43 26 -129 26 -52 0 -148 -5 -214 -11
-66 -6 -151 -12 -190 -15 -38 -2 -113 -9 -165 -15 -86 -11 -125 -12 -230 -6
-32 2 -35 0 -38 -28 -3 -27 2 -33 33 -48 46 -22 187 -23 385 -2 94 10 235 15
400 15 299 -1 282 -1 390 4 59 3 100 -1 133 -11 29 -9 62 -12 80 -9 18 4 114
11 214 16 99 6 194 14 209 20 15 6 131 13 258 15 469 9 719 17 799 25 336 34
305 33 361 9 56 -24 24 -24 438 1 152 9 198 18 198 42 0 8 -28 9 -97 3 -54 -5
-123 -9 -153 -11 -31 -1 -77 -5 -103 -9 -30 -5 -47 -4 -47 3 0 6 9 12 20 14
12 2 21 8 20 13 0 12 -395 16 -450 5 -45 -9 -60 -3 -60 23 0 11 -14 35 -31 51
-38 38 -93 118 -118 171 -10 22 -46 73 -79 114 -36 44 -70 99 -83 133 -22 60
-23 70 -13 253 5 93 2 128 -19 230 -25 120 -47 275 -47 333 0 36 29 58 58 44
81 -42 233 -27 391 38 86 35 121 38 145 11 17 -19 17 -20 -8 -36 -28 -18 -34
-52 -16 -85 8 -16 1 -28 -45 -73 -56 -55 -65 -79 -45 -118 15 -27 37 -24 54 9
8 16 22 34 31 42 14 11 18 10 31 -8 19 -28 33 -28 74 3 19 14 37 25 42 25 14
0 35 -53 91 -221 82 -247 164 -386 308 -525 80 -77 107 -91 139 -74 25 13 82
-16 117 -60 48 -60 43 -64 -103 -94 -78 -16 -274 -93 -274 -107 0 -17 51 -9
99 15 26 14 114 44 193 67 l146 41 30 -22 c34 -25 67 -21 77 11 4 10 10 19 14
19 4 0 36 -18 71 -41 l63 -41 34 36 c19 20 42 36 52 36 26 0 56 -37 86 -105
28 -64 60 -105 82 -105 7 0 13 -4 13 -10 0 -17 -209 -12 -270 6 l-54 16 -21
-25 c-11 -14 -31 -27 -44 -29 -40 -5 -38 -28 3 -28 35 0 36 -1 36 -40 0 -42
12 -50 48 -31 9 6 29 12 44 16 17 3 34 17 43 35 19 36 31 38 313 44 169 3 212
1 212 -9 0 -8 -21 -16 -61 -20 -43 -5 -68 -14 -87 -31 -26 -23 -27 -24 -8 -39
27 -20 30 -20 71 16 34 30 40 32 138 35 357 13 442 20 471 39 17 12 48 20 75
20 117 3 252 18 248 29 -4 12 -211 13 -527 2 -390 -13 -565 -15 -580 -6 -12 8
-10 14 12 37 55 57 73 117 73 238 0 95 -4 122 -28 192 -17 49 -27 97 -25 119
3 33 9 41 48 64 25 14 66 34 92 43 102 39 150 94 192 224 41 124 11 297 -88
516 -20 43 -40 83 -46 90 -20 23 -81 112 -98 142 -9 16 -35 46 -56 65 -22 19
-69 62 -106 96 -37 33 -93 73 -124 90 -55 28 -56 30 -49 64 14 75 8 323 -10
400 -17 74 -82 195 -160 296 -18 23 -48 68 -67 99 -44 73 -171 200 -290 291
-36 27 -69 55 -73 62 -4 6 -12 12 -17 12 -5 0 -41 21 -78 48 -38 26 -97 66
-130 90 -34 23 -66 42 -71 42 -5 0 -11 6 -14 13 -6 17 -244 135 -288 143 -19
4 -47 14 -64 22 -40 20 -203 81 -415 154 -128 45 -186 70 -215 94 -22 19 -64
54 -94 79 -30 24 -75 52 -100 60 -53 18 -238 111 -324 162 -40 24 -64 47 -77
74 -12 23 -28 39 -38 39 -18 0 -52 55 -52 83 0 7 -10 31 -22 52 -12 22 -49 94
-83 160 -58 115 -62 120 -90 118 -23 -2 -39 7 -71 38 -67 66 -83 36 -35 -66
38 -78 24 -92 -31 -30 -23 26 -69 70 -101 97 -54 44 -61 48 -75 34 -14 -14
-14 -19 3 -56 10 -23 27 -46 37 -51 10 -5 18 -16 18 -23 0 -7 8 -24 19 -37 27
-35 81 -168 70 -175 -16 -10 -74 33 -128 96 -56 64 -88 79 -77 35 7 -27 47
-91 113 -177 38 -49 52 -78 39 -78 -4 0 -116 51 -251 115 -49 23 -114 62 -144
86 -104 85 -111 89 -173 89 -31 0 -60 4 -63 10 -3 5 -46 30 -95 56 -49 25
-106 59 -126 75 -20 16 -41 29 -45 29 -17 0 -171 154 -224 225 -30 40 -72 92
-95 116 -22 24 -40 47 -40 51 0 4 -7 8 -15 8 -21 0 -19 -17 6 -52 12 -16 18
-32 14 -36 -4 -4 -12 1 -19 12 -26 43 -109 134 -152 166 -26 19 -60 48 -77 63
-25 24 -32 26 -43 15 -11 -11 15 -41 149 -178 218 -222 404 -396 506 -472 177
-133 248 -181 309 -208 39 -18 85 -51 120 -85 31 -31 82 -74 112 -96 30 -22
75 -55 100 -74 103 -80 207 -134 265 -138 44 -4 30 17 -26 38 -31 12 -83 41
-117 64 -33 22 -66 41 -72 41 -5 0 -36 24 -68 53 -31 29 -93 80 -137 114 -126
98 -180 149 -161 156 10 4 46 -17 98 -55 46 -34 115 -75 153 -91 39 -15 88
-39 110 -51 22 -13 58 -29 80 -36 57 -18 297 -141 380 -195 133 -85 220 -136
245 -141 14 -3 54 -16 90 -29 36 -13 83 -27 105 -30 21 -4 52 -13 67 -21 27
-14 156 -50 283 -80 33 -8 87 -25 120 -39 89 -37 248 -92 355 -125 106 -32
187 -65 210 -84 8 -8 36 -17 61 -20 63 -9 166 -60 283 -140 53 -36 119 -77
147 -92 69 -34 282 -199 345 -266 28 -29 64 -74 79 -98 15 -25 46 -65 69 -90
82 -89 173 -250 214 -380 19 -61 28 -181 24 -297 -2 -49 -26 -60 -42 -18 -8
20 -16 25 -44 25 -24 0 -35 5 -38 18 -3 9 -30 34 -62 56 -51 35 -59 37 -84 27
-20 -9 -36 -9 -56 -1 -50 19 -100 12 -141 -19 -22 -16 -45 -27 -52 -24 -7 3
-21 2 -30 -2 -17 -6 -17 -7 0 -19 15 -12 15 -15 3 -25 -11 -10 -16 -8 -25 6
-9 16 -11 17 -23 2 -7 -9 -38 -34 -68 -56 -30 -22 -60 -46 -66 -54 -19 -23
-44 -124 -44 -177 0 -28 -3 -58 -6 -67 -8 -21 -106 -70 -183 -91 -60 -17 -81
-34 -41 -34 11 0 20 -3 20 -6 0 -17 -95 -154 -107 -154 -8 0 -33 11 -56 24
-70 40 -107 41 -186 6 -105 -45 -208 -57 -318 -36 -280 54 -421 122 -567 272
-111 114 -123 133 -151 231 -15 52 -42 127 -61 166 -19 39 -34 77 -34 84 0 6
-38 68 -84 137 -88 130 -120 212 -99 250 8 15 20 8 82 -50 40 -37 93 -98 117
-134 24 -37 70 -89 101 -117 78 -68 203 -193 288 -290 48 -55 85 -87 119 -102
27 -13 69 -45 95 -72 78 -82 202 -120 383 -117 94 2 98 1 185 -40 60 -29 108
-44 151 -48 69 -8 89 9 25 21 -60 10 -254 104 -303 146 -114 98 -172 140 -188
137 -10 -2 -19 -18 -25 -46 -10 -53 -33 -60 -125 -38 -126 32 -159 54 -288
187 -65 68 -172 178 -239 244 -66 67 -176 183 -245 259 -123 135 -187 196
-280 266 -226 170 -280 213 -280 227 0 11 5 13 18 8 9 -4 42 -11 72 -16 31 -4
82 -15 114 -23 32 -9 101 -23 154 -32 54 -9 108 -22 122 -29 14 -7 66 -51 115
-97 120 -111 305 -251 402 -303 133 -71 174 -99 260 -179 74 -70 101 -103 133
-166 38 -73 67 -108 151 -186 60 -56 204 -103 273 -90 40 8 151 113 158 149 3
15 2 27 -1 26 -3 0 -28 -29 -55 -64 -30 -38 -62 -69 -79 -75 -101 -35 -215 19
-315 148 -13 18 -22 35 -19 38 3 3 38 -17 78 -45 40 -28 77 -51 82 -51 5 0 15
-7 22 -17 7 -9 15 -12 18 -7 3 6 -20 28 -50 49 -73 52 -176 140 -283 241 -87
82 -133 120 -200 164 -20 14 -57 38 -81 54 -24 16 -82 54 -129 85 -47 30 -109
75 -139 100 -125 107 -207 185 -225 212 -22 36 -85 70 -114 62 -12 -3 -43 0
-70 7 -27 6 -74 15 -103 20 -30 5 -99 20 -154 34 -55 14 -113 26 -130 26 -16
0 -52 9 -80 19 -27 10 -89 26 -136 35 -47 9 -111 25 -141 35 -31 10 -107 29
-169 40 -125 24 -306 71 -384 102 -28 10 -57 19 -65 19 -32 1 -55 29 -51 66 1
19 -3 42 -10 50 -11 13 -14 11 -25 -15 l-13 -31 -118 0 c-65 0 -169 -3 -230
-7 -99 -5 -113 -4 -113 10 0 18 13 23 85 32 51 6 149 24 174 31 8 3 11 7 7 11
-9 9 -74 5 -181 -12 -105 -17 -195 -19 -195 -5 0 14 3 15 173 40 108 16 147
26 147 36 0 17 1 17 -75 4 -33 -6 -112 -15 -175 -20 -63 -5 -139 -13 -167 -16
-43 -5 -53 -4 -53 9 0 18 103 35 270 44 63 3 124 10 135 15 21 9 -182 3 -292
-8 -42 -4 -63 -3 -63 4 0 6 15 14 33 16 131 22 218 31 322 31 131 2 190 13
190 35 0 8 -27 29 -60 47 -49 26 -56 33 -41 39 42 16 268 -67 275 -101 2 -11
8 -23 13 -26 7 -4 6 -14 -2 -28 -6 -12 -10 -32 -8 -44 3 -19 8 -16 37 26 32
43 38 47 77 47 55 0 137 -18 160 -34 17 -13 16 -18 -19 -102 -21 -49 -37 -102
-37 -119 0 -24 10 -11 50 70 27 55 49 105 50 112 0 24 28 27 200 25 195 -2
215 -4 350 -39 52 -14 113 -29 135 -34 59 -13 145 -45 158 -58 6 -6 22 -11 35
-11 13 0 41 -9 61 -19 122 -65 209 -92 328 -102 65 -5 129 -14 143 -19 65 -23
176 -37 165 -21 -14 24 -151 56 -335 78 -25 3 -85 23 -135 45 -380 166 -597
222 -872 223 -127 0 -132 1 -160 26 -15 14 -44 36 -63 49 -19 13 -54 40 -77
61 -22 21 -58 47 -80 57 -37 20 -108 88 -152 147 -12 17 -60 71 -106 120 -79
86 -107 119 -130 156 -16 27 -126 160 -175 214 -26 28 -75 88 -109 135 -35 47
-92 114 -126 150 -69 72 -228 256 -233 271 -2 5 8 9 23 9 26 0 52 -18 129 -85
19 -17 109 -69 199 -115 198 -100 252 -139 589 -425 159 -135 276 -228 308
-245 65 -35 150 -102 170 -135 17 -27 28 -35 51 -35 34 0 64 -14 165 -76 69
-43 72 -44 132 -38 34 4 62 11 62 15 0 5 -7 9 -16 9 -31 0 -233 105 -233 121
-1 11 -13 18 -41 22 -43 6 -263 141 -373 229 -32 25 -68 53 -80 61 -12 8 -19
18 -15 22 12 12 136 -51 253 -129 61 -40 130 -84 155 -98 25 -15 56 -38 69
-52 14 -14 32 -26 42 -26 9 0 22 -7 29 -16 8 -8 33 -27 57 -41 33 -19 47 -23
56 -14 8 8 5 17 -11 34 -35 37 -26 51 15 22 21 -14 43 -25 49 -25 6 0 54 -18
107 -40 99 -42 131 -48 143 -28 9 15 -23 38 -53 38 -31 0 -292 138 -361 190
-67 51 -84 51 -38 0 20 -22 36 -47 36 -55 0 -20 -28 -8 -35 15 -3 11 -23 29
-43 41 -20 12 -60 39 -88 61 -50 37 -74 47 -74 29 0 -5 10 -16 23 -24 15 -11
17 -16 7 -16 -8 -1 -50 21 -93 49 -42 27 -110 65 -150 83 -39 18 -110 63 -157
98 -88 68 -214 159 -303 219 -95 64 -115 82 -121 109 -3 14 -28 51 -57 81 -50
54 -139 214 -139 251 0 10 -11 39 -24 66 -32 65 -41 119 -21 127 26 9 17 32
-30 75 -42 38 -69 48 -102 34z m-128 -523 c3 -5 1 -10 -4 -10 -6 0 -11 5 -11
10 0 6 2 10 4 10 3 0 8 -4 11 -10z m2110 -383 c75 -145 102 -161 45 -29 -34
80 -36 92 -16 92 8 0 28 -38 51 -97 20 -54 52 -131 71 -172 19 -40 34 -82 34
-93 0 -23 -39 -41 -139 -65 l-69 -16 -31 25 c-16 14 -43 32 -58 39 -38 18
-126 114 -121 133 2 11 16 7 61 -21 42 -27 61 -33 69 -25 15 15 -11 92 -69
209 -43 86 -50 115 -24 99 5 -4 30 -37 55 -74 24 -37 60 -85 79 -107 l35 -40
7 25 c4 16 -3 51 -18 95 -35 99 -41 128 -25 123 7 -2 36 -47 63 -101z m270
-408 c50 -29 114 -65 143 -81 29 -17 76 -45 103 -64 27 -18 67 -36 87 -40 51
-9 142 -62 152 -88 4 -11 7 -22 6 -23 -6 -7 -319 81 -396 112 -30 12 -77 30
-103 39 -26 10 -60 28 -75 41 -31 26 -109 73 -134 82 -10 3 -18 9 -18 12 0 8
84 48 115 54 11 3 22 5 25 6 3 0 46 -22 95 -50z m-797 -17 c2 -7 -3 -12 -12
-12 -9 0 -16 7 -16 16 0 17 22 14 28 -4z m-107 -936 c47 -14 103 -28 124 -31
27 -3 54 -19 99 -58 33 -30 117 -95 186 -146 69 -50 134 -100 145 -110 11 -10
33 -26 48 -36 38 -24 52 -56 67 -145 14 -90 42 -151 110 -245 28 -38 75 -117
104 -175 47 -92 68 -154 120 -340 9 -35 10 -87 2 -230 -11 -197 -13 -500 -6
-822 l5 -198 -29 -10 c-40 -14 -82 -13 -151 6 -33 8 -89 16 -125 18 -36 2 -76
8 -90 14 l-26 10 -18 268 c-24 347 -18 637 15 770 10 39 8 47 -51 165 -35 68
-76 143 -92 166 -16 23 -54 91 -84 149 -59 113 -182 304 -254 395 -23 29 -73
116 -111 194 -73 149 -96 230 -99 345 -2 84 -2 83 13 77 6 -2 51 -16 98 -31z
m3044 -966 c3 -5 -3 -10 -14 -10 -11 0 -27 -7 -35 -16 -22 -21 -35 -14 -25 14
6 16 16 22 38 22 16 0 33 -4 36 -10z m-117 -30 c-15 -24 -38 -34 -38 -17 0 17
20 37 37 37 11 0 11 -4 1 -20z m162 -6 c0 -17 -22 -14 -28 4 -2 7 3 12 12 12
9 0 16 -7 16 -16z m-40 -3 c0 -6 -4 -13 -10 -16 -5 -3 -10 1 -10 9 0 9 5 16
10 16 6 0 10 -4 10 -9z m250 -58 c-1 -18 -18 -35 -24 -24 -4 6 -4 16 -1 21 7
12 25 13 25 3z m-522 -55 c-2 -22 -9 -34 -20 -36 -20 -4 -24 19 -8 49 16 30
32 22 28 -13z m552 2 c0 -5 -4 -10 -10 -10 -5 0 -10 5 -10 10 0 6 5 10 10 10
6 0 10 -4 10 -10z m-430 -34 c0 -3 -4 -8 -10 -11 -5 -3 -10 -1 -10 4 0 6 5 11
10 11 6 0 10 -2 10 -4z m467 -36 c53 -16 188 -132 245 -210 26 -36 65 -83 87
-105 44 -45 104 -152 152 -270 51 -128 59 -175 47 -269 -6 -44 -11 -116 -12
-158 -2 -71 -5 -80 -32 -109 -43 -45 -120 -85 -189 -97 -102 -19 -163 -23
-170 -12 -3 5 -17 10 -29 10 -41 0 -195 129 -274 230 -87 109 -195 282 -218
348 -23 66 -32 142 -16 142 16 0 32 -25 32 -51 0 -14 10 -41 23 -60 13 -19 33
-55 45 -81 13 -25 30 -52 38 -58 25 -22 16 8 -25 84 -22 39 -54 121 -72 181
-27 92 -33 125 -32 203 0 64 -3 92 -10 89 -16 -5 -26 -63 -20 -104 7 -39 -9
-44 -25 -8 -16 35 -15 63 4 119 11 32 24 50 40 57 14 5 52 31 85 59 33 27 70
55 82 62 50 28 166 31 244 8z m-707 -10 c0 -5 -2 -10 -4 -10 -3 0 -8 5 -11 10
-3 6 -1 10 4 10 6 0 11 -4 11 -10z m290 -10 c0 -5 -5 -10 -11 -10 -5 0 -7 5
-4 10 3 6 8 10 11 10 2 0 4 -4 4 -10z m-56 -9 c3 -4 -3 -16 -13 -25 -22 -20
-40 -4 -21 19 14 17 26 19 34 6z m101 -21 c7 -11 -12 -50 -24 -50 -4 0 -8 14
-8 30 0 29 19 41 32 20z m-1167 -18 c5 -17 -27 -27 -41 -13 -9 9 -8 14 3 21
18 11 32 8 38 -8z m82 -57 c22 -14 40 -30 40 -35 0 -16 -158 -10 -233 8 -88
22 -87 38 1 34 37 -2 78 1 92 7 39 15 57 13 100 -14z m-761 -139 l63 -64 9
-153 c5 -85 14 -185 19 -224 6 -38 15 -144 20 -235 11 -190 25 -327 35 -353 4
-9 18 -20 31 -23 24 -6 24 -7 25 -158 1 -217 8 -230 100 -207 50 13 54 13 69
-7 9 -11 25 -53 35 -94 9 -40 24 -85 31 -100 8 -15 14 -29 14 -32 0 -7 -73
-15 -212 -21 l-128 -5 -26 52 c-15 29 -41 69 -58 90 -82 96 -151 208 -178 291
l-22 67 37 36 c46 45 53 72 39 144 -18 86 -12 1021 7 1043 7 10 16 17 20 17 4
0 35 -29 70 -64z m1429 17 c-2 -9 -12 -20 -23 -23 -66 -17 -156 -112 -188
-197 -27 -73 -43 -88 -53 -49 -4 19 3 42 29 88 54 96 109 154 170 177 65 25
69 25 65 4z m15 -88 c25 -52 23 -85 -6 -85 -72 0 -109 -108 -63 -183 6 -10 26
-27 44 -39 30 -19 35 -19 49 -5 25 25 9 50 -26 42 -24 -5 -32 -2 -41 16 -14
25 -5 98 15 125 12 16 17 17 34 7 12 -7 27 -13 34 -13 8 0 19 -22 27 -52 13
-52 70 -172 100 -213 26 -35 115 -103 143 -110 17 -5 44 -29 70 -64 37 -48 52
-59 107 -79 57 -20 77 -36 170 -129 122 -124 180 -156 298 -168 39 -4 72 -9
72 -10 0 -2 -4 -15 -9 -28 -7 -18 -4 -47 10 -104 23 -86 35 -256 25 -326 -9
-56 -37 -87 -80 -87 -41 0 -66 26 -101 102 -14 32 -31 60 -36 63 -5 4 -9 19
-9 35 0 27 -4 30 -70 50 -89 27 -136 65 -126 104 5 19 15 28 36 33 16 3 27 9
24 14 -11 18 -47 8 -77 -22 l-31 -31 -58 16 c-68 19 -68 19 -68 7 0 -5 17 -15
38 -22 20 -6 53 -20 73 -30 46 -23 159 -117 159 -132 0 -7 -9 -23 -20 -37
l-19 -25 -38 36 c-49 45 -109 89 -122 89 -7 0 -9 -14 -5 -40 5 -32 3 -41 -11
-47 -13 -4 -25 2 -42 23 -73 89 -162 167 -228 199 -152 75 -259 218 -359 480
-26 66 -60 152 -77 190 -17 39 -41 94 -52 123 l-20 53 21 15 c15 10 22 26 22
46 0 31 39 119 68 152 28 31 113 96 126 96 7 0 20 -16 29 -35z m337 -25 c28
-28 27 -53 -2 -44 -26 8 -38 22 -38 47 0 23 15 22 40 -3z m-1453 -114 c46 -15
86 -32 89 -38 4 -6 8 -40 10 -77 7 -153 17 -240 34 -311 10 -41 21 -127 25
-190 6 -97 5 -118 -8 -128 -8 -7 -52 -17 -98 -22 -46 -5 -108 -15 -136 -21
-29 -5 -57 -8 -61 -5 -5 3 -12 58 -16 123 -4 65 -11 186 -16 268 -5 83 -15
202 -24 265 -16 123 -20 213 -9 223 3 4 34 -8 67 -27 34 -18 98 -46 143 -60z
m813 -96 c0 -17 -26 -30 -63 -30 -29 0 -18 43 13 50 33 9 50 2 50 -20z m13
-86 c9 -10 -14 -64 -28 -64 -23 0 -28 20 -11 45 16 25 27 30 39 19z m-133 -64
c-12 -22 -40 -27 -40 -7 0 19 10 27 32 27 16 0 17 -3 8 -20z m-570 -587 c6
-16 15 -36 20 -45 6 -10 10 -28 10 -42 0 -44 47 -130 100 -181 93 -90 179
-234 159 -266 -7 -11 -12 -9 -26 11 -10 14 -28 36 -41 49 l-24 24 -36 -36
c-20 -19 -48 -38 -62 -42 -14 -4 -35 -13 -47 -21 -29 -18 -41 -2 -53 74 -13
77 -35 128 -61 142 -12 7 -41 9 -73 5 l-53 -7 -13 46 c-9 34 -10 53 -1 77 6
18 11 67 11 109 0 74 1 79 28 96 23 16 74 28 135 33 11 0 21 -9 27 -26z m-709
-129 c21 -11 28 -23 34 -61 15 -104 58 -175 171 -287 44 -43 84 -102 84 -123
0 -42 -88 23 -105 76 -12 38 -35 25 -35 -19 0 -43 -26 -76 -68 -87 -13 -3 -65
-2 -115 3 l-92 9 -3 45 c-2 25 2 68 8 96 16 64 6 85 -55 114 -30 15 -47 30
-51 47 -6 21 21 186 33 206 7 11 164 -4 194 -19z m944 -423 c7 -12 -17 -20
-67 -23 -52 -3 -56 7 -11 30 37 19 63 17 78 -7z m589 -60 c6 -10 -26 -21 -61
-21 -25 0 -31 15 -10 23 21 9 66 7 71 -2z m1853 -37 c-9 -9 -28 6 -21 18 4 6
10 6 17 -1 6 -6 8 -13 4 -17z m-307 7 c0 -12 -29 -18 -53 -13 -15 4 -16 7 -5
13 18 12 58 11 58 0z m175 -2 c-4 -5 -19 -8 -33 -5 -15 3 -33 2 -41 -3 -15
-10 -51 -3 -51 10 0 5 30 9 66 9 43 0 63 -4 59 -11z m-831 -24 c0 -5 -13 -14
-28 -20 -21 -7 -29 -6 -36 5 -5 8 -6 18 -3 23 7 11 68 4 67 -8z"/>
<path d="M4990 2377 c-30 -15 -47 -48 -60 -118 -12 -62 -8 -92 31 -219 22 -75
40 -110 81 -165 52 -68 73 -83 105 -71 13 5 7 14 -26 42 -95 81 -163 231 -165
363 -1 71 9 93 58 132 37 29 51 21 131 -79 71 -88 89 -128 105 -230 15 -90 -4
-210 -34 -222 l-21 -9 21 0 c12 -1 33 11 48 25 23 24 26 34 26 98 0 123 -16
193 -70 303 -49 100 -51 102 -112 132 -68 34 -82 36 -118 18z"/>
<path d="M4810 2306 c0 -48 63 -275 92 -328 33 -62 52 -78 70 -60 7 7 4 13 -9
20 -29 16 -79 133 -109 257 -26 105 -44 150 -44 111z"/>
<path d="M4606 2267 c-11 -49 0 -142 24 -212 38 -112 137 -271 156 -252 9 8 6
14 -39 70 -16 20 -48 80 -73 134 -34 76 -44 111 -45 153 0 30 -4 75 -8 100
l-8 45 -7 -38z"/>
<path d="M4691 2265 c0 -47 21 -144 38 -171 10 -16 11 -14 8 16 -7 51 -28 152
-38 175 -6 15 -8 10 -8 -20z"/>
<path d="M4740 2061 c0 -20 59 -127 81 -147 24 -22 25 -4 0 27 -10 13 -32 49
-49 79 -18 30 -32 49 -32 41z"/>
<path d="M4740 1720 c0 -5 5 -10 11 -10 5 0 7 5 4 10 -3 6 -8 10 -11 10 -2 0
-4 -4 -4 -10z"/>
<path d="M4590 1367 c11 -74 38 -110 100 -129 29 -10 56 -15 59 -12 13 12 -20
40 -70 59 -54 21 -54 21 -59 70 -4 35 -10 51 -21 53 -13 2 -15 -4 -9 -41z"/>
<path d="M7635 5723 c-19 -25 -38 -58 -41 -72 -4 -14 -21 -80 -39 -146 -71
-255 -93 -373 -94 -495 -1 -123 12 -197 48 -253 11 -17 32 -52 47 -77 14 -25
46 -60 70 -78 l44 -33 0 -67 c-1 -87 -22 -174 -55 -224 -21 -32 -31 -39 -49
-34 -17 4 -31 -3 -56 -29 -38 -39 -52 -37 -48 8 3 28 0 32 -24 35 l-28 3 0 85
c0 78 -2 87 -25 109 -18 16 -24 30 -21 47 15 70 16 174 2 193 -12 16 -16 17
-30 6 -9 -7 -16 -24 -16 -37 0 -26 -51 -173 -79 -224 -10 -19 -26 -61 -35 -92
-9 -31 -21 -60 -27 -64 -16 -10 -69 -126 -69 -152 0 -12 -17 -57 -39 -100 -39
-79 -95 -224 -106 -277 -4 -16 -13 -43 -20 -60 -48 -106 -73 -199 -74 -270 -3
-124 0 -149 15 -166 26 -29 50 -31 95 -9 56 26 68 14 41 -42 -65 -134 -104
-319 -99 -467 6 -148 81 -317 174 -395 27 -23 38 -26 68 -20 32 6 41 3 73 -28
45 -42 166 -122 217 -144 23 -9 61 -14 98 -13 69 3 82 -9 49 -44 -12 -13 -18
-28 -14 -34 5 -9 22 -1 56 25 73 55 89 82 94 155 3 52 -1 70 -22 110 -14 26
-26 62 -26 80 -1 45 -17 113 -42 173 l-21 52 72 72 c39 40 77 70 84 67 6 -2
20 -44 31 -93 10 -49 29 -114 41 -144 33 -83 55 -155 55 -182 0 -13 16 -55 35
-93 35 -70 36 -85 8 -85 -15 0 -14 -2 0 -18 23 -25 22 -26 -20 -73 -65 -72
-95 -81 -252 -78 -357 8 -428 5 -450 -15 -12 -11 -21 -22 -21 -26 0 -15 129
-19 227 -7 80 10 107 10 125 1 19 -10 36 -10 83 2 88 20 142 18 157 -6 15 -24
32 -25 86 -6 56 20 212 33 212 18 0 -7 -11 -14 -25 -18 -31 -8 -33 -24 -2 -24
12 0 108 7 212 17 105 9 202 14 216 10 25 -6 27 -11 32 -79 6 -92 28 -161 68
-221 41 -63 70 -62 81 1 9 56 11 58 76 91 91 46 143 99 197 200 39 74 56 96
94 120 25 17 68 53 96 81 27 27 52 50 56 50 12 0 -9 -74 -44 -156 -64 -149
-78 -174 -98 -174 -11 0 -28 -17 -45 -45 -16 -27 -54 -66 -96 -98 -57 -42 -82
-54 -131 -62 -61 -10 -92 -35 -43 -35 32 0 34 -20 4 -47 -33 -30 -57 -35 -164
-34 -81 0 -98 -3 -115 -20 -24 -24 -24 -44 1 -69 31 -31 65 -25 115 21 40 37
55 44 138 61 50 10 107 16 125 13 21 -4 40 -1 54 10 15 10 46 15 94 15 66 0
72 2 82 25 12 25 36 33 47 15 9 -14 63 -12 170 6 114 19 150 17 150 -11 0 -15
-8 -21 -30 -23 -55 -6 -47 -19 15 -25 35 -4 70 -3 80 3 27 15 66 12 80 -5 18
-22 41 -19 80 10 19 14 46 25 61 25 16 0 32 8 42 22 13 20 18 22 44 12 18 -7
67 -8 136 -4 88 6 114 11 137 29 31 23 50 27 50 11 0 -5 -5 -10 -11 -10 -6 0
-8 -9 -3 -22 6 -19 4 -21 -7 -11 -11 9 -19 8 -33 -3 -35 -25 -6 -34 59 -19 65
16 90 7 54 -19 -23 -16 -23 -16 14 -16 29 0 37 -4 37 -18 0 -10 -5 -23 -12
-30 -15 -15 13 -26 47 -18 17 4 25 13 25 29 0 12 13 39 30 58 28 35 33 37 107
42 43 4 113 9 155 13 63 5 82 4 103 -10 22 -14 34 -15 82 -6 68 12 123 13 123
2 0 -32 -90 -71 -163 -72 -27 0 -69 -9 -95 -20 -26 -11 -78 -26 -116 -34 -38
-8 -72 -20 -77 -27 -17 -28 10 -32 88 -15 43 9 121 26 173 37 52 10 117 28
143 40 26 11 52 17 58 13 16 -9 -29 -52 -83 -80 -52 -27 -65 -41 -50 -56 29
-29 173 53 208 118 l17 31 169 13 c124 9 173 9 181 1 6 -6 9 -13 6 -15 -8 -7
-183 -26 -249 -26 -70 0 -93 -8 -81 -28 11 -18 211 -24 904 -25 589 -2 598 -2
595 18 -2 13 -14 21 -36 26 -18 4 -36 9 -39 13 -15 15 10 16 78 5 41 -6 116
-14 167 -16 l92 -5 0 55 c0 49 -3 55 -23 61 -31 7 -514 8 -612 1 -201 -16
-275 -16 -297 0 -13 8 -33 15 -46 15 -34 0 -74 44 -66 74 7 28 -11 67 -59 124
-25 29 -37 56 -42 89 -8 65 -9 594 -1 713 l7 95 -66 80 c-36 44 -87 114 -112
155 -25 41 -55 88 -66 104 -23 34 -21 56 21 239 18 78 39 142 54 165 47 71
126 207 155 267 16 33 46 88 66 123 20 35 53 106 72 159 20 52 47 112 61 133
14 21 47 90 74 153 27 64 64 137 83 164 19 26 49 76 67 111 39 75 116 146 335
312 252 191 395 311 395 331 0 15 -14 9 -71 -33 -39 -29 -103 -80 -143 -113
-96 -82 -197 -159 -226 -175 -28 -15 -81 -56 -144 -111 -22 -20 -56 -40 -73
-44 -62 -13 -128 -113 -300 -454 -66 -133 -86 -179 -157 -363 -57 -149 -167
-354 -212 -394 -21 -19 -34 -40 -34 -55 0 -14 -11 -41 -25 -61 -14 -20 -25
-39 -25 -42 0 -3 -18 -46 -40 -95 -22 -49 -40 -92 -40 -95 0 -19 24 12 56 72
19 37 32 56 30 42 -37 -178 -57 -256 -81 -315 -31 -77 -51 -205 -41 -259 4
-19 25 -56 47 -83 29 -35 38 -53 33 -68 -3 -11 -7 -30 -8 -42 0 -13 -5 -23 -9
-23 -4 0 -12 -10 -17 -22 -8 -17 -9 -8 -4 34 6 65 -5 93 -39 102 -34 8 -83 75
-92 124 -8 51 -35 88 -58 79 -14 -5 -15 -10 -5 -32 10 -22 8 -29 -12 -50 -13
-14 -35 -25 -48 -25 -21 0 -23 -2 -12 -15 7 -9 11 -17 9 -19 -17 -17 -289
-189 -419 -265 -89 -52 -166 -103 -171 -113 -5 -10 -16 -18 -23 -18 -8 0 -19
-7 -27 -16 -33 -40 -180 -95 -309 -115 -86 -13 -110 -24 -164 -74 -52 -48 -38
-57 18 -11 37 30 55 37 105 42 52 6 62 4 67 -10 10 -27 -13 -205 -30 -231 -17
-26 -111 -100 -177 -138 -48 -28 -152 -47 -163 -29 -3 5 10 43 28 83 55 118
111 339 87 339 -14 0 -31 -34 -31 -62 0 -37 -58 -216 -96 -296 -32 -65 -37
-72 -64 -72 -35 0 -34 -4 -16 94 21 108 32 251 18 243 -5 -4 -24 -44 -40 -90
-33 -89 -98 -235 -113 -253 -5 -7 -19 -9 -31 -6 -23 6 -23 -10 2 215 15 135
18 140 94 176 75 37 169 108 160 122 -3 5 -23 -6 -44 -25 -44 -40 -129 -86
-158 -86 -64 0 -140 76 -161 159 -26 108 -33 207 -21 291 7 47 13 96 14 110 4
48 17 105 42 176 46 130 242 352 381 430 90 50 136 98 157 164 10 30 26 65 37
78 10 14 19 30 19 36 0 6 18 38 40 71 22 33 40 65 40 71 0 6 9 19 20 29 11 10
20 26 20 37 0 10 15 39 34 65 18 27 51 80 74 118 32 55 80 109 229 251 240
230 292 276 381 335 39 26 89 61 110 77 84 66 498 299 510 287 9 -9 -17 -72
-51 -123 -44 -68 -88 -112 -111 -112 -12 0 -28 -5 -36 -10 -11 -7 -6 -10 21
-10 21 0 46 -8 57 -17 19 -17 19 -22 7 -79 -14 -65 -43 -135 -80 -194 -12 -19
-37 -69 -55 -110 -18 -41 -42 -86 -55 -100 -12 -14 -48 -68 -80 -120 -32 -52
-70 -110 -86 -128 -30 -34 -38 -56 -16 -50 10 4 127 167 196 275 27 43 120
210 163 293 54 106 73 205 43 230 -30 25 -15 52 93 157 114 112 154 142 216
163 35 11 41 11 52 -5 11 -15 10 -24 -3 -54 -8 -20 -18 -45 -20 -56 -10 -37
27 8 42 51 16 49 35 56 35 14 0 -58 -51 -203 -108 -305 -31 -55 -75 -135 -98
-178 -51 -93 -132 -207 -215 -302 -53 -61 -136 -158 -232 -272 -16 -18 -23
-33 -16 -33 7 0 31 21 53 47 23 25 84 94 136 152 197 219 296 358 412 577 52
100 128 308 128 353 0 39 -28 61 -88 68 -67 8 -77 15 -61 41 14 23 671 462
691 462 8 0 23 7 35 15 12 8 24 11 27 6 6 -10 -77 -151 -135 -228 -21 -29 -39
-56 -39 -61 0 -11 -83 -135 -184 -277 -36 -49 -82 -117 -102 -150 -21 -33 -48
-73 -61 -88 -13 -16 -23 -33 -23 -37 0 -5 -20 -40 -44 -78 -25 -38 -101 -178
-169 -313 -301 -592 -416 -769 -643 -994 -39 -38 -80 -84 -93 -102 -24 -35
-211 -192 -270 -227 -20 -11 -43 -28 -51 -36 -40 -40 -150 -90 -223 -102 -93
-14 -119 -2 -135 64 -18 72 20 188 133 403 95 180 146 308 147 365 0 80 -49
142 -87 110 -22 -18 -18 -27 15 -39 27 -9 30 -15 30 -50 0 -65 -100 -328 -169
-445 -94 -159 -129 -275 -110 -363 18 -77 60 -113 134 -113 62 0 153 31 180
60 10 11 22 20 27 20 27 0 279 195 398 308 47 44 86 79 88 77 2 -2 -14 -43
-35 -92 -30 -71 -38 -100 -37 -148 1 -76 41 -217 55 -192 6 11 6 47 -2 100
-14 103 -3 182 41 275 35 74 36 84 13 75 -21 -8 -27 -17 103 153 130 171 214
304 316 504 49 96 100 189 113 205 12 17 46 81 74 142 28 62 75 154 104 205
30 51 64 113 77 137 21 42 243 364 278 404 9 10 72 49 140 88 182 103 206 119
194 131 -7 7 -21 2 -44 -15 -18 -13 -58 -37 -88 -52 -29 -15 -66 -36 -81 -47
-47 -35 -52 -11 -10 45 21 29 48 72 60 97 36 76 105 176 195 285 47 57 86 111
86 119 0 22 -29 32 -49 18 -9 -7 -34 -21 -56 -33 -36 -20 -91 -54 -214 -135
-25 -16 -61 -38 -81 -50 -20 -11 -109 -71 -197 -131 -88 -61 -173 -118 -189
-126 -16 -8 -73 -53 -128 -99 -126 -106 -137 -113 -216 -138 -36 -11 -92 -36
-125 -54 -33 -19 -91 -51 -130 -70 -88 -44 -198 -114 -299 -188 -72 -54 -96
-66 -96 -53 0 3 11 31 24 63 13 31 31 82 41 112 10 30 40 92 66 137 54 92 64
121 50 143 -8 12 -17 9 -56 -18 -46 -32 -65 -39 -65 -23 0 4 47 60 105 122
301 327 384 470 313 537 -26 24 -69 42 -101 42 -31 0 -146 -73 -197 -126 -25
-25 -63 -57 -84 -71 -22 -14 -64 -53 -95 -87 -31 -33 -96 -102 -146 -152 -49
-49 -144 -145 -209 -212 -66 -67 -123 -119 -128 -114 -4 4 8 34 28 66 35 58
35 60 16 78 -18 18 -19 18 -73 -23 -30 -23 -74 -61 -99 -84 -70 -65 -307 -234
-358 -256 -26 -11 -60 -31 -77 -43 -16 -13 -40 -26 -53 -30 -12 -4 -30 -18
-38 -31 -14 -21 -149 -122 -289 -215 -27 -18 -71 -52 -96 -74 -26 -23 -77 -66
-114 -96 -86 -70 -100 -85 -193 -199 -128 -156 -178 -223 -203 -270 -13 -25
-34 -60 -46 -76 -27 -38 -83 -228 -83 -283 0 -66 25 -116 65 -131 39 -14 44
-34 20 -80 -16 -32 -70 -81 -89 -81 -6 0 -30 -18 -51 -40 -21 -22 -47 -40 -56
-40 -20 0 -49 -36 -49 -61 0 -9 -16 -52 -36 -95 -62 -137 -76 -261 -51 -474
15 -125 37 -173 95 -213 28 -19 42 -36 42 -50 0 -29 -37 -147 -52 -164 -13
-16 -60 -17 -75 -2 -10 10 -104 16 -290 18 -65 1 -101 29 -110 85 l-6 38 73
-7 c40 -4 112 -17 160 -29 99 -26 139 -21 120 14 -9 16 -21 20 -68 20 -31 0
-89 9 -129 19 -39 10 -83 16 -97 14 -35 -7 -82 14 -106 47 -11 15 -31 61 -46
101 -15 41 -37 94 -49 119 -12 25 -26 65 -30 90 -8 48 -53 192 -80 253 l-16
39 39 66 c22 37 54 96 72 132 18 36 34 67 35 68 2 2 25 -12 51 -32 60 -46 87
-53 129 -33 73 35 132 175 191 452 64 299 95 450 104 510 6 39 15 92 21 118 5
27 9 67 9 89 0 22 7 66 15 97 8 31 14 83 14 116 0 33 6 105 14 160 14 96 10
125 -14 125 -4 0 -20 -21 -35 -47 -15 -27 -41 -68 -57 -92 -17 -24 -47 -99
-68 -167 -21 -67 -49 -145 -63 -173 -14 -27 -37 -94 -51 -148 -23 -91 -28
-101 -71 -141 -43 -39 -88 -61 -100 -49 -3 3 -1 21 5 41 7 26 5 62 -5 129 -8
50 -19 117 -24 147 -4 30 -14 87 -20 125 -14 79 -8 288 10 345 6 19 15 104 20
188 9 153 9 153 -25 297 -42 178 -117 335 -162 335 -21 0 -15 -24 23 -96 l36
-67 1 -169 c0 -92 -2 -170 -5 -173 -3 -3 -11 22 -17 55 -7 33 -30 131 -52 218
-37 146 -80 371 -80 417 0 11 -4 35 -10 53 -16 49 -49 44 -94 -15z m3673 -46
c34 -27 -19 -163 -97 -253 -20 -23 -67 -79 -106 -125 -38 -46 -86 -97 -105
-114 -90 -77 -274 -273 -311 -331 -23 -35 -45 -64 -49 -64 -4 0 -46 -49 -94
-109 -48 -61 -91 -111 -95 -113 -4 -2 -47 -52 -95 -113 -49 -60 -99 -119 -113
-131 -26 -22 -40 -89 -20 -101 5 -3 19 7 31 23 48 65 163 197 461 523 142 156
245 248 264 237 5 -3 -22 -52 -59 -108 -118 -181 -171 -271 -215 -365 -36 -76
-55 -103 -111 -155 -37 -35 -88 -85 -113 -113 -25 -27 -59 -61 -75 -75 -107
-91 -213 -226 -272 -343 -30 -59 -105 -183 -146 -240 -14 -21 -30 -52 -34 -70
-14 -67 -104 -184 -161 -209 -24 -10 -43 -23 -43 -28 0 -5 -15 -17 -32 -26
-18 -8 -46 -30 -63 -49 -104 -115 -186 -219 -217 -275 -46 -83 -88 -237 -100
-364 -8 -87 -14 -109 -49 -177 -47 -89 -162 -226 -216 -256 -65 -35 -78 -36
-92 -7 -6 15 -32 52 -56 84 -54 71 -90 85 -183 77 -58 -6 -64 -5 -69 14 -8 30
-26 18 -43 -29 -8 -23 -18 -42 -21 -42 -10 0 -59 107 -66 142 -3 16 0 35 7 43
14 17 66 20 75 5 12 -20 26 -9 45 32 27 59 25 82 -9 120 -27 30 -35 33 -85 32
-65 0 -69 8 -49 96 7 30 12 71 13 91 1 99 64 194 192 290 75 56 143 82 278
104 116 20 180 19 251 -5 34 -12 64 -19 66 -16 13 13 -9 33 -56 50 -44 15 -72
18 -179 13 -73 -3 -154 -12 -190 -22 -35 -9 -66 -15 -69 -12 -3 3 4 26 16 50
11 24 21 49 21 55 0 6 11 40 24 74 14 35 43 115 66 178 70 192 156 363 224
441 17 20 51 64 76 99 59 83 190 216 265 268 63 45 158 115 296 221 46 35 96
78 111 96 37 44 181 164 253 211 33 21 68 49 77 60 17 21 75 51 83 43 2 -3
-28 -45 -67 -94 -38 -50 -92 -121 -119 -160 -26 -38 -58 -82 -69 -97 -13 -17
-17 -29 -10 -33 8 -5 630 613 860 855 9 8 37 31 63 49 26 19 53 44 61 56 17
26 117 94 154 105 30 9 70 3 90 -13z m-3610 -169 c7 -40 13 -89 15 -108 l3
-35 10 35 11 35 6 -55 c3 -30 9 -94 13 -143 3 -48 10 -90 14 -92 5 -3 6 20 3
50 -10 91 13 64 32 -37 9 -51 31 -138 50 -193 18 -55 39 -129 45 -165 6 -36
16 -87 20 -115 26 -146 31 -397 11 -532 -8 -51 -12 -95 -9 -99 4 -3 16 -1 27
6 18 9 22 8 30 -12 19 -52 22 -116 7 -152 -18 -44 -81 -77 -130 -69 -39 6 -64
-20 -95 -99 -25 -61 -25 -113 -1 -113 11 0 14 10 13 35 -2 22 6 50 20 75 21
36 28 40 68 43 24 2 51 9 59 17 8 7 48 27 89 43 147 62 203 119 222 228 6 39
27 100 47 139 19 39 43 97 53 130 26 92 92 235 108 235 10 0 12 -8 7 -32 -4
-18 -11 -89 -16 -158 -13 -184 -42 -399 -64 -475 -24 -80 -35 -125 -50 -200
-50 -254 -106 -464 -142 -537 -27 -52 -66 -88 -99 -88 -28 0 -75 43 -75 68 0
23 -35 56 -50 47 -6 -3 -25 -37 -44 -74 -43 -87 -94 -167 -164 -255 -116 -149
-142 -167 -195 -139 -40 21 -237 26 -244 6 -3 -9 21 -12 89 -11 84 2 99 -1
152 -28 56 -28 60 -32 83 -93 13 -36 23 -86 23 -116 0 -36 8 -66 25 -100 33
-62 43 -147 22 -198 -21 -50 -42 -47 -63 11 -22 57 -73 132 -91 132 -18 0 -17
-3 17 -57 53 -83 39 -99 -66 -77 -52 10 -88 27 -151 69 -73 48 -83 59 -83 84
0 39 -11 44 -85 42 l-63 -2 -31 46 c-48 72 -58 94 -90 216 -19 71 -31 138 -31
178 0 65 29 195 54 241 8 14 26 62 40 108 14 46 33 96 41 112 40 77 1 106 -60
45 -39 -38 -91 -69 -104 -61 -5 3 -14 26 -21 52 -11 37 -11 56 -2 91 7 24 12
59 12 77 0 19 25 98 55 175 30 78 55 150 55 161 0 29 38 125 61 154 12 15 40
82 64 149 23 68 54 145 69 172 14 28 26 55 26 62 0 7 11 37 25 68 13 31 27 71
31 90 3 20 12 35 20 35 17 0 11 -64 -16 -162 -10 -38 -14 -68 -9 -68 5 0 9 3
9 8 0 4 11 21 25 37 21 25 26 28 35 15 16 -24 12 -163 -5 -186 -8 -10 -15 -27
-15 -36 0 -30 19 -29 35 2 8 16 23 30 31 30 23 0 11 -59 -27 -137 -34 -66 -36
-111 -3 -56 10 17 31 52 46 77 18 31 34 46 48 46 11 0 20 -3 20 -6 0 -30 -26
-158 -41 -201 -13 -39 -16 -61 -9 -78 10 -28 59 -61 102 -70 35 -8 43 -36 23
-76 -23 -43 -5 -60 24 -23 49 62 37 93 -56 143 -63 34 -73 63 -44 123 11 24
21 58 21 74 0 17 11 53 25 80 14 27 25 54 25 59 0 6 20 44 45 85 73 120 90
189 89 355 0 112 -4 156 -22 218 -50 181 -64 585 -27 755 11 46 31 22 43 -50z
m266 -333 c28 -96 35 -231 22 -394 -7 -78 -10 -91 -22 -80 -7 8 -18 55 -24
104 -12 108 -13 453 -2 440 5 -6 17 -37 26 -70z m-394 28 c0 -13 -3 -13 -16
-3 -14 12 -14 5 -8 -66 7 -83 30 -214 40 -223 3 -3 3 26 -1 64 -7 79 5 72 25
-15 6 -30 23 -90 36 -133 24 -79 32 -177 14 -177 -5 0 -12 10 -14 23 -20 104
-41 189 -48 193 -11 7 -10 -11 7 -81 8 -33 15 -73 15 -89 l0 -30 -31 30 c-16
16 -44 58 -62 94 l-32 65 0 160 c1 133 4 166 18 193 15 28 21 31 37 22 11 -6
20 -18 20 -27z m9 -76 c0 -27 -2 -29 -9 -12 -12 28 -12 57 0 50 6 -3 10 -21 9
-38z m2058 -622 c-4 -8 -14 -15 -23 -15 -16 0 -16 2 1 20 20 22 31 20 22 -5z
m-128 -91 c-13 -14 -38 -32 -57 -41 -33 -16 -162 -152 -162 -171 0 -6 -6 -15
-14 -19 -7 -4 -26 -26 -42 -49 -16 -23 -50 -70 -75 -105 -26 -35 -57 -84 -71
-109 -14 -25 -36 -61 -50 -82 -23 -33 -137 -293 -153 -345 -10 -37 -94 -133
-116 -133 -17 0 -19 7 -19 73 0 244 162 501 530 841 14 13 63 50 110 81 47 32
96 66 109 77 33 25 40 14 10 -18z m1932 -1406 c16 -33 27 -63 24 -68 -12 -19
-79 -11 -109 13 l-28 23 17 56 c17 54 19 56 42 45 15 -6 37 -35 54 -69z m-77
-103 c19 -14 46 -25 64 -25 34 0 30 4 115 -125 l52 -80 1 -350 c0 -218 5 -378
12 -425 14 -87 7 -102 -37 -71 -30 22 -47 17 -30 -9 29 -48 -5 -56 -127 -30
-53 11 -99 20 -101 20 -1 0 -3 -8 -3 -18 0 -19 13 -23 178 -59 110 -24 91 -37
-40 -28 -62 5 -165 9 -228 9 l-115 1 -3 26 c-4 35 52 242 94 349 18 47 54 144
79 215 26 72 60 159 75 195 48 110 48 131 4 196 -32 50 -38 67 -42 130 -4 69
0 104 13 104 4 0 21 -11 39 -25z m-150 -220 l69 -65 -6 -51 c-7 -55 -83 -322
-124 -434 -14 -38 -41 -113 -60 -165 -19 -52 -50 -127 -69 -167 -30 -62 -39
-73 -68 -81 -42 -12 -447 -5 -460 8 -18 18 51 25 232 23 112 -2 182 1 182 7 0
6 -6 10 -12 10 -7 1 -49 7 -93 15 -62 11 -108 12 -205 5 -70 -5 -173 -6 -234
-1 -109 8 -110 8 -139 42 -51 61 -60 87 -52 148 5 31 9 89 10 128 1 40 5 76 8
80 4 4 38 17 75 29 83 28 159 61 167 74 10 16 152 110 235 156 178 98 218 122
270 162 30 24 84 65 119 92 35 28 69 50 75 50 6 0 42 -30 80 -65z m-2576 -117
c21 -21 11 -108 -12 -108 -8 0 -12 20 -12 60 1 62 4 68 24 48z m710 -203 c7
-14 12 -36 12 -48 0 -29 71 -155 104 -186 31 -29 32 -37 5 -198 -11 -70 -18
-138 -16 -151 8 -43 -23 -62 -105 -63 -40 0 -109 -4 -153 -8 -44 -4 -86 -6
-93 -3 -14 5 -52 73 -52 93 0 7 15 30 33 53 19 23 39 50 45 61 23 45 95 252
100 290 5 45 32 104 69 153 29 39 36 40 51 7z m-529 -91 c18 -4 46 -20 62 -37
41 -41 89 -126 89 -159 0 -31 -31 -103 -59 -138 -28 -34 -26 -12 4 71 13 38
20 69 15 69 -15 0 -183 -200 -232 -276 -25 -40 -51 -74 -56 -78 -12 -7 -37 52
-53 130 -11 52 -9 71 9 154 19 88 40 161 63 218 16 40 85 60 158 46z m-781
-140 c15 -10 22 -25 22 -48 0 -29 -4 -34 -31 -40 -41 -8 -94 -8 -102 0 -6 6
72 103 83 104 3 0 16 -7 28 -16z m-158 -134 c0 -5 -4 -10 -9 -10 -6 0 -13 5
-16 10 -3 6 1 10 9 10 9 0 16 -4 16 -10z m368 -2 c-3 -7 -23 -14 -46 -16 -33
-2 -42 0 -42 12 0 12 11 16 46 16 32 0 44 -4 42 -12z m112 2 c-20 -13 -70 -13
-70 0 0 6 19 10 43 10 31 0 38 -3 27 -10z m1286 -147 c-4 -31 -9 -67 -12 -80
-6 -23 -36 -39 -53 -29 -9 6 56 166 67 166 3 0 2 -26 -2 -57z m514 -52 c0 -55
-2 -59 -26 -65 -15 -4 -29 -4 -32 -1 -11 11 38 125 53 125 3 0 5 -27 5 -59z
m-60 43 c0 -4 -16 -26 -35 -50 -24 -30 -51 -49 -88 -62 -55 -21 -147 -28 -147
-12 0 6 9 10 20 10 24 0 115 45 180 89 43 29 70 39 70 25z m145 -74 c0 -10 -8
-14 -24 -12 -30 3 -35 7 -26 22 10 16 50 8 50 -10z m-1215 -40 c0 -23 -4 -30
-20 -30 -24 0 -26 17 -3 42 21 24 23 23 23 -12z m775 -10 c4 -6 -5 -10 -19
-10 -14 0 -26 5 -26 10 0 6 9 10 19 10 11 0 23 -4 26 -10z m-210 -10 c3 -5 1
-10 -4 -10 -6 0 -11 5 -11 10 0 6 2 10 4 10 3 0 8 -4 11 -10z m195 -18 c0 -13
-12 -22 -22 -16 -10 6 -1 24 13 24 5 0 9 -4 9 -8z m285 -2 c-3 -5 -15 -10 -26
-10 -10 0 -19 5 -19 10 0 6 12 10 26 10 14 0 23 -4 19 -10z m1423 -20 c36 0
62 -3 59 -6 -23 -24 -240 -34 -262 -13 -19 19 19 30 79 25 32 -4 88 -6 124 -6z
m-2590 -8 c21 -14 2 -41 -36 -51 -60 -17 -72 7 -19 39 36 23 37 23 55 12z
m2847 -14 c19 -15 47 -23 93 -27 51 -5 62 -9 51 -17 -13 -11 -475 -27 -465
-17 9 9 182 43 218 43 21 0 38 5 38 10 0 6 -7 10 -16 10 -8 0 -12 5 -9 10 11
17 61 11 90 -12z m-585 -8 c0 -5 -22 -10 -50 -10 -27 0 -50 5 -50 10 0 6 23
10 50 10 28 0 50 -4 50 -10z m-2145 -10 c-3 -5 -15 -10 -25 -10 -10 0 -22 5
-25 10 -4 6 7 10 25 10 18 0 29 -4 25 -10z m547 -2 c-9 -9 -15 -9 -24 0 -9 9
-7 12 12 12 19 0 21 -3 12 -12z m2588 -8 c0 -5 -9 -10 -21 -10 -11 0 -17 5
-14 10 3 6 13 10 21 10 8 0 14 -4 14 -10z m325 0 c-4 -6 -63 -10 -145 -10 -82
0 -141 4 -145 10 -4 6 47 10 145 10 98 0 149 -4 145 -10z m305 -10 c0 -5 -15
-10 -32 -10 -25 0 -29 3 -18 10 20 13 50 13 50 0z m-785 -40 c-3 -5 -14 -10
-23 -9 -14 0 -13 2 3 9 27 11 27 11 20 0z m402 -1 c-14 -8 -22 -8 -30 0 -8 8
-3 11 19 11 25 -1 27 -2 11 -11z"/>
<path d="M8990 2558 c-46 -32 -71 -68 -77 -115 -5 -36 -1 -45 28 -77 23 -24
44 -37 64 -39 58 -4 124 137 80 173 -36 30 -130 -40 -118 -88 4 -18 2 -23 -8
-20 -16 5 -23 40 -15 74 8 30 89 84 126 84 39 0 70 -34 70 -76 0 -47 24 -40
28 8 3 30 -3 40 -33 67 -44 39 -96 42 -145 9z"/>
<path d="M7700 5248 c0 -45 3 -59 10 -48 13 20 13 110 0 110 -6 0 -10 -27 -10
-62z"/>
<path d="M7700 5144 c0 -8 5 -12 10 -9 6 3 10 10 10 16 0 5 -4 9 -10 9 -5 0
-10 -7 -10 -16z"/>
<path d="M7707 5084 c-5 -10 8 -307 18 -388 7 -58 23 -120 61 -236 38 -118 43
-83 5 43 -17 56 -35 124 -41 151 -11 50 -32 394 -25 406 2 3 0 12 -4 19 -5 7
-11 9 -14 5z"/>
<path d="M7791 4988 c-1 -21 4 -38 9 -38 12 0 12 27 0 55 -7 16 -9 13 -9 -17z"/>
<path d="M7805 4880 c2 -19 7 -62 10 -95 4 -33 12 -85 20 -115 8 -30 17 -68
20 -84 4 -17 10 -25 15 -20 6 6 4 28 -4 56 -8 25 -22 93 -31 149 -16 101 -40
188 -30 109z"/>
<path d="M7814 4236 c-7 -31 4 -55 17 -35 12 19 11 59 -1 59 -5 0 -12 -11 -16
-24z"/>
<path d="M7456 2598 c-25 -38 -29 -73 -11 -88 22 -18 59 0 79 39 15 29 15 30
-13 50 -36 26 -37 26 -55 -1z"/>
<path d="M12735 5446 c-33 -23 -77 -59 -98 -79 -21 -21 -43 -37 -48 -37 -5 0
-9 -4 -9 -10 0 -15 36 -12 50 5 7 8 48 40 91 70 53 38 79 62 79 75 0 11 -1 20
-2 19 -2 0 -30 -20 -63 -43z"/>
<path d="M2258 4558 c-43 -35 -16 -88 45 -88 37 0 57 15 57 42 0 33 -76 67
-102 46z"/>
<path d="M5131 4394 c-18 -23 -20 -35 -15 -127 3 -56 10 -129 15 -162 6 -33
12 -71 14 -85 2 -14 9 -75 14 -136 11 -113 41 -208 92 -291 16 -26 25 -66 35
-152 7 -64 19 -136 28 -161 9 -25 16 -54 16 -65 0 -18 -1 -18 -16 3 -24 35
-51 28 -65 -17 -10 -34 -8 -51 19 -142 17 -57 40 -156 51 -219 23 -131 62
-254 113 -355 20 -38 39 -81 43 -95 10 -32 61 -144 133 -289 50 -101 69 -127
156 -218 l99 -103 -23 -88 c-12 -48 -27 -112 -32 -142 -5 -30 -12 -66 -14 -79
-7 -35 -58 -81 -89 -81 -20 0 -26 -4 -23 -17 5 -24 36 -20 109 13 l58 26 39
-32 c22 -17 66 -40 98 -50 33 -10 67 -21 77 -25 11 -5 17 -2 17 7 0 8 9 23 20
33 11 10 20 24 20 31 0 16 -31 34 -60 34 -17 0 -19 4 -14 25 6 24 5 25 -49 25
-31 0 -79 5 -107 11 l-51 11 7 56 c8 70 41 203 53 215 5 5 55 -14 112 -41 57
-27 125 -59 151 -70 31 -14 55 -33 71 -59 25 -39 70 -148 82 -195 11 -45 33
-55 135 -62 179 -13 215 -12 215 4 0 8 -11 17 -24 20 -27 6 -41 30 -19 30 8 0
23 7 34 15 33 25 0 34 -69 19 -116 -25 -237 -15 -237 19 0 7 -20 47 -45 91
-25 43 -45 82 -45 87 0 5 47 9 105 9 81 0 114 4 147 19 24 10 75 29 115 41 40
12 77 28 83 35 20 25 63 26 123 5 74 -26 97 -20 97 26 0 28 4 34 20 34 12 0
32 -7 45 -16 24 -16 25 -16 25 10 0 24 -59 129 -84 151 -7 6 -20 34 -30 64
-19 58 -59 123 -97 157 -34 29 -172 84 -213 84 -53 0 -52 -17 1 -33 197 -62
283 -139 283 -254 0 -36 4 -44 34 -62 29 -18 46 -39 46 -57 0 -10 -25 -3 -42
13 -25 23 -76 6 -151 -50 -31 -23 -92 -58 -135 -77 -73 -33 -84 -35 -207 -38
-77 -2 -142 1 -158 7 l-28 11 26 23 27 23 -118 -1 c-112 0 -122 2 -174 29 -76
39 -174 114 -242 183 -42 43 -71 87 -112 171 -31 62 -56 116 -56 121 0 4 -11
24 -24 43 -47 70 -136 300 -136 353 0 16 -11 71 -24 120 -17 70 -22 110 -19
175 8 181 -1 262 -39 349 -14 31 -23 83 -28 159 -8 104 -12 119 -54 210 -48
103 -60 149 -76 298 -5 49 -15 116 -21 149 -13 74 -19 235 -8 235 17 0 38 -58
54 -146 9 -49 23 -127 31 -173 9 -47 24 -106 35 -133 17 -44 52 -214 69 -333
3 -27 14 -68 24 -90 10 -22 35 -116 57 -209 21 -93 41 -172 44 -174 19 -19
-15 163 -61 324 -24 86 -46 206 -48 259 0 28 -4 55 -7 60 -4 6 -9 28 -13 50
-3 22 -19 69 -35 105 -36 81 -54 160 -49 225 l3 50 18 -33 c23 -42 67 -171 67
-196 0 -11 7 -47 15 -80 8 -34 30 -133 50 -221 19 -88 51 -207 70 -265 19 -58
46 -142 60 -188 37 -123 79 -210 108 -223 20 -9 26 -22 32 -63 12 -79 17 -137
16 -178 0 -20 11 -61 24 -90 14 -29 25 -61 25 -70 0 -16 102 -300 137 -381 24
-55 107 -126 205 -176 136 -69 199 -71 257 -8 37 40 21 53 -23 18 -46 -37 -75
-39 -151 -10 -37 14 -60 29 -69 47 -8 15 -37 53 -64 85 -58 69 -136 207 -123
220 5 5 25 0 49 -12 23 -11 47 -18 55 -15 9 3 16 -3 20 -15 6 -23 27 -29 27
-8 0 20 -23 77 -63 157 -20 41 -50 122 -67 180 -48 162 -56 188 -94 293 -24
69 -36 124 -41 185 l-6 87 33 -54 c18 -29 57 -87 86 -127 28 -41 52 -81 52
-88 0 -8 20 -38 43 -68 24 -29 85 -111 136 -183 51 -71 128 -172 170 -223 122
-151 160 -202 172 -240 15 -45 5 -175 -16 -205 -8 -12 -15 -30 -15 -40 0 -17
2 -18 17 -6 57 48 72 207 28 295 -14 27 -79 114 -146 194 -67 80 -156 197
-197 260 -41 63 -88 130 -104 149 -16 18 -34 44 -39 58 -5 13 -41 69 -80 125
-40 55 -80 121 -89 147 -47 119 -70 165 -97 187 -70 58 -108 9 -106 -141 0
-49 7 -112 15 -140 15 -55 13 -98 -5 -92 -22 7 -55 67 -67 120 -6 29 -26 102
-45 162 -52 167 -135 500 -142 569 -3 34 -14 83 -24 109 -11 26 -19 55 -19 63
0 9 -25 78 -55 154 -30 76 -58 152 -61 169 -8 38 -46 81 -73 81 -11 0 -29 -12
-40 -26z m619 -1078 c0 -11 -19 -15 -25 -6 -3 5 1 10 9 10 9 0 16 -2 16 -4z
m-20 -92 c0 -13 -5 -33 -12 -44 -10 -16 -8 -25 19 -58 17 -21 37 -59 43 -83 7
-24 20 -69 31 -100 14 -44 16 -64 9 -90 -15 -52 -12 -129 9 -210 11 -42 23
-97 27 -125 6 -45 6 -48 -9 -35 -15 12 -17 11 -17 -7 0 -12 9 -44 20 -72 24
-60 24 -66 6 -50 -8 6 -38 81 -66 165 -57 172 -82 305 -101 540 -11 141 -11
156 5 180 19 30 36 25 36 -11z m-425 -87 c4 -17 15 -61 26 -96 21 -71 26 -152
8 -134 -6 6 -17 37 -24 70 -7 32 -20 86 -29 121 -16 59 -15 89 4 77 5 -3 11
-20 15 -38z m85 -391 c6 -27 5 -36 -5 -36 -7 0 -16 16 -19 36 -4 19 -10 43
-13 52 -5 16 -4 16 11 1 10 -9 21 -33 26 -53z m508 -83 c6 -16 16 -50 22 -78
7 -27 18 -66 27 -87 19 -46 12 -74 -9 -33 -13 25 -68 205 -68 220 0 16 19 0
28 -22z m18 -409 c25 -55 28 -77 6 -51 -19 23 -52 107 -42 107 6 0 22 -25 36
-56z m968 -469 c7 -20 -3 -45 -19 -45 -7 0 -23 9 -36 19 l-24 20 25 10 c35 14
47 13 54 -4z m-826 -420 c12 -3 22 -11 22 -16 0 -16 -34 -9 -60 12 -26 21 -24
22 38 4z"/>
<path d="M2078 4389 c-10 -5 -18 -20 -18 -33 0 -18 12 -30 54 -52 47 -24 58
-27 80 -16 35 16 33 27 -13 73 -39 40 -70 48 -103 28z"/>
<path d="M2896 3801 c-3 -5 22 -23 57 -41 93 -50 363 -254 440 -334 38 -39 89
-96 113 -127 25 -31 74 -78 109 -104 35 -25 98 -82 139 -126 42 -43 78 -79 81
-79 3 0 5 6 5 13 0 26 -83 123 -153 180 -40 31 -76 61 -80 66 -25 26 -56 57
-95 94 -24 23 -50 54 -57 68 -19 35 -214 205 -290 253 -33 21 -69 46 -80 56
-31 28 -145 90 -165 90 -11 0 -21 -4 -24 -9z"/>
<path d="M10315 3400 c-3 -5 1 -10 9 -10 9 0 16 5 16 10 0 6 -4 10 -9 10 -6 0
-13 -4 -16 -10z"/>
<path d="M10287 3373 c-4 -3 -7 -11 -7 -17 0 -6 5 -5 12 2 6 6 9 14 7 17 -3 3
-9 2 -12 -2z"/>
<path d="M10226 3315 c-35 -35 -45 -55 -27 -55 12 0 75 79 68 86 -3 3 -21 -11
-41 -31z"/>
<path d="M2685 3129 c-3 -8 -2 -25 2 -37 8 -21 9 -21 20 -3 9 15 9 23 -2 37
-12 17 -14 17 -20 3z"/>
<path d="M2620 3083 c0 -16 6 -38 14 -49 14 -18 16 -18 32 -2 15 15 15 17 -5
27 -11 7 -21 18 -21 26 0 7 -4 17 -10 20 -6 4 -10 -6 -10 -22z"/>
<path d="M5480 3026 c0 -8 5 -18 10 -21 6 -3 10 1 10 9 0 8 -4 18 -10 21 -5 3
-10 -1 -10 -9z"/>
<path d="M2904 2845 c-16 -24 -16 -28 1 -66 22 -49 47 -64 76 -48 38 20 11
101 -43 130 -13 7 -21 3 -34 -16z m74 -73 c4 -26 -22 -31 -32 -6 -10 26 -7 36
12 32 9 -2 18 -13 20 -26z"/>
<path d="M9639 2767 c-19 -12 -35 -31 -37 -40 -3 -14 5 -12 44 13 26 16 54 30
61 30 7 0 13 5 13 10 0 18 -46 11 -81 -13z"/>
<path d="M3148 2714 c-23 -12 -28 -21 -28 -52 0 -45 19 -86 43 -90 20 -4 22
15 3 37 -7 9 -17 26 -20 39 -6 19 -4 22 18 22 21 0 26 -6 32 -35 7 -41 21 -46
30 -10 6 25 -22 97 -41 102 -5 1 -22 -5 -37 -13z"/>
<path d="M9620 2650 l-25 -20 29 0 c16 0 38 -7 48 -17 10 -9 20 -14 23 -12 5
5 -37 69 -45 69 -3 0 -16 -9 -30 -20z"/>
<path d="M9560 2581 c-15 -28 -12 -67 5 -81 37 -31 89 34 65 80 -14 26 -56 26
-70 1z"/>
<path d="M9704 2568 c3 -13 6 -31 6 -40 0 -10 5 -18 10 -18 11 0 13 39 4 64
-9 25 -27 19 -20 -6z"/>
<path d="M9535 2476 c-13 -29 7 -71 35 -75 24 -3 24 -2 9 15 -9 11 -21 33 -27
49 -8 26 -11 28 -17 11z"/>
<path d="M9709 2416 c-3 -3 -30 -12 -60 -20 l-54 -15 50 0 c54 -1 80 9 74 28
-3 7 -7 10 -10 7z"/>
<path d="M6602 2123 c-11 -10 -23 -30 -26 -44 -8 -39 18 -57 79 -55 43 1 50 4
53 23 3 23 -51 93 -73 93 -7 0 -22 -8 -33 -17z m68 -53 c0 -5 -4 -10 -10 -10
-5 0 -10 5 -10 10 0 6 5 10 10 10 6 0 10 -4 10 -10z"/>
<path d="M6987 1642 c-23 -25 -21 -39 4 -52 25 -14 74 3 83 27 16 39 -56 59
-87 25z"/>
<path d="M8740 1530 c0 -6 -12 -9 -27 -8 -21 2 -30 -3 -41 -26 -16 -32 -6 -46
34 -46 28 0 76 52 68 73 -7 18 -34 23 -34 7z"/>
<path d="M9694 1465 c-25 -38 -15 -60 26 -59 30 2 54 7 139 31 10 2 11 7 4 14
-7 7 -22 7 -45 1 -29 -8 -38 -6 -64 14 -36 30 -40 30 -60 -1z"/>
<path d="M9915 1461 c-3 -5 -1 -12 4 -15 13 -8 42 4 35 15 -7 12 -31 12 -39 0z"/>
<path d="M9169 1445 c-25 -14 -44 -47 -51 -90 -3 -18 -12 -20 -73 -21 -39 -1
-116 -9 -173 -18 -57 -9 -107 -14 -111 -12 -4 3 -56 0 -116 -5 -91 -9 -118 -8
-160 5 -33 10 -86 15 -160 14 -60 -1 -139 4 -175 11 -52 10 -122 11 -340 1
-453 -19 -579 -31 -588 -59 -4 -11 11 -12 83 -6 71 6 86 4 83 -7 -3 -7 -13
-14 -24 -16 -10 -2 -26 -5 -34 -8 -30 -10 10 -21 53 -14 70 12 210 41 243 51
17 5 54 9 82 9 28 0 72 7 97 16 58 19 163 11 144 -12 -6 -8 -19 -14 -28 -14
-9 0 -36 -7 -60 -16 -25 -8 -54 -13 -66 -10 -25 6 -61 -16 -51 -32 4 -6 22 -8
44 -5 53 7 235 41 252 47 8 2 52 7 98 11 77 6 82 5 82 -13 0 -32 22 -43 61
-32 46 14 188 28 399 40 96 5 212 17 257 26 67 14 85 15 98 4 10 -8 15 -9 15
-1 0 6 7 11 15 11 8 0 15 -7 15 -15 0 -9 -9 -15 -24 -15 -14 0 -28 -5 -31 -11
-13 -20 4 -22 45 -5 22 9 57 16 76 16 34 0 36 2 30 26 -5 18 -2 32 9 44 13 14
14 23 6 38 -13 24 -5 32 31 32 35 0 36 13 3 34 -29 19 -24 19 -56 1z m-1164
-145 c3 -5 1 -10 -4 -10 -6 0 -11 5 -11 10 0 6 2 10 4 10 3 0 8 -4 11 -10z"/>
<path d="M9946 1411 c-34 -36 -29 -61 19 -91 42 -26 76 -19 110 22 43 51 26
82 -51 92 -46 6 -52 4 -78 -23z m94 -37 c0 -8 -5 -12 -10 -9 -6 4 -8 11 -5 16
9 14 15 11 15 -7z"/>
<path d="M7050 1412 c-25 -20 -19 -48 13 -58 15 -5 26 0 39 16 22 27 20 40
-10 51 -14 6 -28 3 -42 -9z"/>
<path d="M9452 1408 c-14 -14 -16 -44 -3 -52 8 -6 129 11 143 20 4 3 3 14 -2
25 -9 15 -22 19 -68 19 -32 0 -63 -5 -70 -12z"/>
<path d="M9276 1324 c-14 -37 1 -46 29 -18 13 14 14 19 3 25 -19 12 -25 11
-32 -7z"/>
<path d="M6925 1258 c-77 -11 -86 -15 -65 -28 25 -16 146 -12 160 5 13 16 6
36 -13 34 -7 -1 -43 -6 -82 -11z"/>
<path d="M4791 737 c-20 -25 -24 -72 -7 -86 23 -19 89 -5 117 26 l24 25 -28
24 c-31 27 -88 32 -106 11z m80 -18 c29 -15 14 -29 -32 -29 -43 0 -52 16 -16
30 29 11 25 12 48 -1z"/>
<path d="M4587 642 c-33 -35 -34 -62 -3 -91 25 -24 80 -31 98 -13 19 19 27
102 11 118 -24 24 -76 17 -106 -14z m78 -42 c0 -18 -6 -26 -22 -28 -20 -3 -23
1 -23 28 0 27 3 31 23 28 16 -2 22 -10 22 -28z"/>
<path d="M6765 589 c-22 -4 -69 -8 -105 -9 -36 -1 -87 -5 -115 -10 -27 -5 -81
-14 -120 -20 -38 -5 -124 -18 -189 -28 -70 -10 -121 -22 -123 -29 -8 -22 43
-25 143 -9 55 8 135 20 178 26 44 7 86 14 93 17 7 3 17 -6 23 -21 9 -26 10
-26 117 -26 60 1 142 7 183 14 73 13 76 13 96 -9 18 -19 34 -23 132 -28 68 -3
130 -12 157 -23 38 -14 49 -15 75 -4 19 8 30 20 30 33 0 18 -5 19 -43 14 -44
-6 -49 -4 -137 46 -44 25 -195 31 -314 12 -138 -22 -279 -29 -274 -13 6 16 64
25 215 36 62 5 116 11 119 15 25 25 -55 34 -141 16z m369 -90 c-3 -5 -10 -7
-15 -3 -5 3 -7 10 -3 15 3 5 10 7 15 3 5 -3 7 -10 3 -15z m-59 1 c3 -5 1 -10
-4 -10 -6 0 -11 5 -11 10 0 6 2 10 4 10 3 0 8 -4 11 -10z"/>
</g>
</svg>
