<?xml version="1.0" standalone="no"?>
<!DOCTYPE svg PUBLIC "-//W3C//DTD SVG 20010904//EN"
 "http://www.w3.org/TR/2001/REC-SVG-20010904/DTD/svg10.dtd">
<svg version="1.0" xmlns="http://www.w3.org/2000/svg"
 width="1280.000000pt" height="764.000000pt" viewBox="0 0 1280.000000 764.000000"
 preserveAspectRatio="xMidYMid meet">
<metadata>
Created by potrace 1.15, written by Peter Selinger 2001-2017
</metadata>
<g transform="translate(0.000000,764.000000) scale(0.100000,-0.100000)"
fill="#000000" stroke="none">
<path d="M5520 7582 c-28 -31 -62 -78 -75 -103 -13 -25 -31 -51 -39 -58 -9 -8
-16 -18 -16 -24 0 -6 -17 -33 -38 -61 -21 -28 -45 -62 -52 -76 -7 -14 -20 -34
-30 -45 -10 -11 -20 -31 -24 -45 -3 -14 -26 -52 -51 -85 -25 -33 -45 -63 -45
-68 0 -9 -96 -138 -114 -152 -7 -5 -21 -26 -31 -45 -10 -19 -32 -55 -50 -80
-17 -25 -38 -61 -45 -80 -8 -19 -41 -63 -74 -98 -33 -35 -69 -78 -81 -97 -30
-49 -201 -306 -222 -334 -26 -34 -45 -62 -68 -100 -11 -18 -46 -69 -78 -112
-32 -44 -92 -132 -134 -197 -42 -64 -91 -135 -110 -157 -50 -61 -151 -198
-216 -294 -89 -131 -83 -126 -153 -106 -75 22 -366 43 -454 32 -125 -15 -185
-31 -248 -64 l-62 -33 -143 136 c-138 131 -418 364 -524 436 -53 35 -84 60
-321 260 -67 56 -173 145 -235 196 -61 52 -152 131 -202 176 -112 102 -325
288 -387 339 -26 21 -103 94 -172 163 -69 69 -130 123 -136 119 -5 -3 -10 -22
-10 -40 0 -25 6 -37 22 -46 12 -6 49 -38 82 -70 34 -32 67 -59 74 -59 6 0 12
-6 12 -14 0 -8 19 -30 42 -48 23 -18 60 -52 83 -75 22 -24 45 -43 49 -43 5 0
46 -35 90 -77 45 -43 102 -89 126 -103 24 -14 57 -39 74 -56 17 -16 51 -45 76
-64 25 -19 82 -66 127 -105 44 -38 119 -99 165 -135 47 -36 97 -82 112 -103
15 -20 46 -47 69 -59 23 -11 78 -54 122 -95 44 -41 100 -87 125 -101 51 -30
101 -67 174 -132 28 -25 83 -71 121 -101 39 -31 93 -78 121 -105 28 -27 92
-84 143 -127 50 -43 91 -82 91 -88 0 -6 -30 -41 -67 -78 -94 -93 -150 -169
-177 -237 -24 -63 -35 -70 -117 -73 -28 -1 -40 5 -57 29 -13 17 -29 30 -36 30
-8 0 -47 16 -87 35 -41 19 -80 35 -87 35 -8 0 -26 6 -40 14 -36 18 -42 20
-452 157 -195 66 -361 119 -370 119 -8 0 -86 24 -175 54 -88 30 -187 61 -220
70 -33 8 -82 26 -110 39 -27 13 -75 30 -105 37 -30 7 -125 36 -210 65 -85 29
-173 56 -194 60 -22 3 -77 22 -122 41 -46 19 -89 34 -96 34 -7 0 -24 9 -38 20
-14 11 -34 20 -44 20 -22 0 -74 16 -123 37 -44 18 -53 17 -53 -11 0 -21 10
-27 88 -51 48 -14 127 -42 176 -62 49 -19 98 -36 110 -38 11 -1 46 -12 76 -24
30 -12 79 -26 109 -31 30 -5 62 -17 72 -26 10 -9 25 -14 33 -11 8 3 45 -7 83
-23 37 -15 88 -34 113 -40 25 -7 74 -22 110 -34 36 -13 139 -47 230 -76 91
-29 190 -63 220 -76 30 -12 82 -29 115 -38 166 -43 252 -68 272 -82 12 -7 31
-14 41 -14 11 0 39 -7 63 -16 24 -8 87 -28 139 -44 52 -16 145 -47 205 -70 61
-23 121 -45 135 -49 54 -17 131 -62 124 -73 -5 -7 -56 -9 -168 -5 -89 3 -417
1 -731 -5 -415 -7 -593 -6 -655 2 -88 11 -193 19 -585 44 -126 8 -249 17 -272
19 -39 4 -74 -6 -62 -18 3 -3 48 -8 100 -10 124 -7 256 -13 297 -14 17 -1 32
-5 32 -11 0 -6 -87 -7 -235 -4 l-235 5 0 -29 c0 -29 2 -30 58 -35 70 -6 789
-13 1122 -10 1180 8 1446 13 1502 29 12 4 22 -3 30 -20 12 -28 35 -34 44 -12
11 28 65 37 189 31 197 -9 682 -12 790 -5 67 4 117 2 150 -6 30 -7 56 -9 66
-4 9 5 124 7 255 4 236 -6 709 -9 1019 -6 88 0 178 0 200 0 22 -1 112 2 200 5
260 10 562 17 1035 21 301 3 446 8 448 15 2 7 -31 12 -95 13 -54 1 -163 3
-243 4 -128 3 -866 4 -1195 3 -350 -2 -815 1 -815 5 0 6 89 46 102 46 17 0
327 119 351 134 13 9 48 24 78 35 29 10 115 43 189 73 74 31 187 77 250 102
63 26 149 62 190 80 41 18 104 43 140 54 53 17 271 93 405 141 17 5 71 22 120
37 112 32 326 108 381 134 23 11 53 20 67 20 58 0 113 44 84 68 -8 7 -33 0
-82 -23 -38 -19 -86 -36 -105 -40 -82 -14 -458 -131 -543 -169 -32 -14 -62
-26 -68 -26 -5 0 -29 -9 -52 -21 -23 -12 -67 -29 -97 -39 -129 -42 -285 -101
-315 -120 -18 -11 -37 -20 -43 -20 -7 0 -41 -13 -77 -30 -36 -17 -69 -30 -73
-30 -4 0 -25 -9 -46 -21 -25 -13 -51 -19 -70 -16 -34 5 -109 -23 -141 -53 -11
-10 -31 -18 -45 -18 -14 0 -74 -21 -135 -47 -60 -26 -130 -53 -155 -60 -25 -7
-71 -25 -103 -39 -32 -14 -63 -26 -70 -26 -7 0 -50 -16 -97 -36 -197 -82 -272
-106 -345 -107 -171 -2 -781 14 -843 23 -37 5 -150 10 -252 10 -102 0 -191 4
-198 9 -24 15 6 48 93 105 87 57 154 88 255 118 137 41 377 6 441 -65 16 -17
32 -27 36 -23 5 5 -18 31 -49 60 -54 47 -64 52 -146 69 -130 25 -211 22 -307
-12 -149 -54 -167 -61 -223 -97 -74 -47 -109 -80 -132 -125 l-19 -36 -138 -7
c-76 -4 -153 -9 -170 -12 -43 -8 -52 14 -27 69 23 50 206 253 237 262 12 4 31
17 42 29 25 28 195 82 285 91 64 6 272 -7 382 -24 33 -5 82 -23 115 -42 78
-44 177 -145 208 -211 37 -80 31 -131 -8 -70 l-18 27 6 -40 c4 -22 17 -50 29
-63 l23 -24 16 35 c10 19 17 46 17 59 0 79 -85 212 -175 274 -75 50 -79 70
-26 112 23 18 60 61 83 95 23 34 78 111 122 171 44 60 103 144 130 187 123
188 211 316 249 364 23 29 51 68 62 86 61 103 206 317 265 394 26 33 64 87 86
120 21 33 45 67 52 75 55 63 173 237 307 451 39 61 84 128 101 148 18 20 39
54 48 75 9 22 23 47 31 55 12 13 112 139 157 198 6 8 3 15 -11 22 -17 9 -26 3
-71 -47z"/>
<path d="M2885 7109 c-15 -24 10 -109 62 -213 75 -148 139 -305 154 -375 7
-31 16 -61 21 -67 11 -15 127 -359 189 -564 28 -91 61 -192 74 -225 12 -33 28
-80 34 -105 17 -65 73 -180 88 -180 8 0 16 7 20 16 6 17 -47 183 -104 324 -81
198 -169 461 -184 553 -5 33 -16 69 -24 81 -17 26 -65 150 -72 186 -2 14 -8
34 -13 45 -5 11 -11 29 -13 40 -5 18 -32 83 -131 315 -20 46 -36 99 -36 116 0
18 -3 39 -6 48 -7 18 -49 22 -59 5z"/>
<path d="M2156 7081 c-8 -12 8 -53 33 -89 10 -15 40 -61 66 -102 78 -123 113
-174 137 -200 13 -13 39 -45 58 -71 85 -115 132 -176 150 -195 11 -12 20 -26
20 -31 0 -6 9 -18 21 -29 12 -10 28 -32 36 -48 8 -16 34 -50 58 -75 23 -25 54
-64 69 -86 14 -22 62 -78 106 -125 246 -262 294 -320 362 -432 49 -81 128
-188 128 -173 0 12 -105 185 -162 267 -55 79 -94 126 -238 287 -85 95 -217
257 -275 337 -16 23 -57 75 -90 117 -33 42 -80 104 -105 138 -25 35 -64 85
-87 113 -24 27 -43 54 -43 59 0 4 -11 23 -24 40 -13 18 -52 89 -85 159 -34 70
-70 132 -81 138 -23 12 -47 13 -54 1z"/>
<path d="M9155 7061 c-16 -10 -62 -48 -102 -85 -87 -81 -133 -162 -238 -419
-40 -100 -85 -208 -99 -239 -14 -32 -40 -113 -57 -180 -17 -68 -40 -139 -52
-158 -12 -19 -42 -75 -67 -124 -45 -89 -46 -91 -95 -105 -39 -11 -59 -11 -92
-2 -23 6 -49 8 -58 5 -24 -10 -30 -54 -12 -86 15 -26 14 -31 -13 -92 -16 -35
-41 -81 -56 -103 -20 -30 -24 -46 -20 -74 4 -27 1 -43 -13 -60 -37 -49 -44
-69 -31 -99 9 -21 9 -33 0 -50 -14 -27 6 -62 47 -82 47 -23 43 -33 -101 -327
-17 -35 -40 -70 -51 -77 -27 -19 -265 -20 -265 -1 -2 87 -53 272 -95 342 -67
109 -188 229 -225 223 -23 -5 -24 -62 -2 -162 13 -57 23 -149 26 -244 4 -85 8
-159 9 -165 1 -9 -39 -12 -147 -12 -110 0 -150 -3 -153 -12 -5 -13 102 -20
233 -14 41 2 63 -1 70 -11 10 -12 27 -115 40 -243 3 -33 12 -107 20 -165 12
-90 34 -428 34 -527 0 -21 -5 -33 -13 -33 -19 0 -120 107 -142 150 -10 19 -39
62 -65 95 -25 33 -62 83 -80 110 -19 28 -53 73 -75 101 -23 28 -60 90 -83 137
-23 48 -57 110 -77 139 -19 29 -35 61 -35 70 0 28 -28 21 -44 -9 -7 -16 -19
-53 -25 -83 -46 -227 -61 -313 -61 -351 0 -72 26 -146 79 -227 47 -73 91 -190
91 -242 0 -27 -3 -27 -161 29 -64 23 -192 59 -285 82 -93 22 -214 51 -269 65
-55 14 -156 34 -225 44 -69 11 -152 25 -185 31 -36 8 -184 14 -373 16 -255 2
-327 0 -389 -13 -71 -14 -82 -14 -182 5 -58 11 -151 28 -206 37 -55 9 -118 23
-140 31 -22 8 -74 18 -115 23 -41 6 -106 14 -145 20 -38 6 -176 13 -305 15
-129 2 -296 8 -370 14 -74 6 -193 13 -265 15 -71 3 -204 10 -295 16 -91 7
-262 14 -380 15 -271 3 -517 13 -595 25 -199 30 -287 40 -345 40 -109 0 -392
28 -445 45 -118 36 -646 66 -775 43 -36 -6 -92 -12 -125 -13 -124 -6 -412 -15
-448 -15 -30 0 -37 -4 -37 -20 0 -11 5 -20 10 -20 6 0 10 5 10 11 0 7 8 9 22
4 55 -18 256 -25 354 -13 69 9 337 13 552 9 69 -1 75 -3 103 -33 l29 -33 178
-2 c97 -1 206 -7 242 -13 36 -6 115 -12 175 -15 61 -2 191 -13 290 -24 99 -11
223 -23 275 -26 168 -10 342 -26 450 -40 58 -8 143 -19 190 -25 47 -5 100 -13
117 -16 45 -9 84 2 77 21 -5 13 6 20 28 16 4 0 85 -3 180 -6 95 -3 220 -10
278 -16 58 -6 200 -13 315 -15 290 -4 681 -21 695 -29 27 -17 -11 -25 -118
-25 -121 0 -157 -9 -135 -31 9 -9 80 -13 250 -14 137 -2 255 -7 278 -13 22 -7
112 -18 199 -27 88 -8 161 -17 163 -19 2 -1 -72 -6 -164 -11 -342 -15 -378
-19 -378 -35 0 -16 10 -17 265 -10 139 4 537 -26 554 -42 6 -4 -13 -8 -42 -8
-44 0 -178 -16 -299 -36 -21 -3 -33 -11 -33 -20 0 -13 14 -14 98 -9 53 4 115
11 137 15 33 8 42 6 59 -11 13 -15 25 -19 45 -14 14 3 87 11 161 16 125 10
196 8 403 -7 53 -4 77 -2 77 5 0 15 -32 26 -131 46 -46 9 -104 21 -129 27 -25
6 -83 14 -130 17 -64 5 -93 13 -115 29 -17 12 -52 26 -80 33 -118 27 -134 32
-139 45 -9 24 39 27 293 20 256 -7 384 -24 611 -81 52 -13 194 -47 314 -77
174 -42 220 -57 224 -71 8 -32 25 -38 347 -122 50 -13 142 -40 205 -60 141
-46 207 -65 240 -72 14 -2 34 -9 45 -14 41 -18 204 -69 222 -69 10 0 29 -7 41
-15 21 -15 126 -51 237 -80 54 -15 128 -40 160 -55 11 -5 58 -21 105 -36 47
-14 99 -34 115 -44 17 -10 46 -21 65 -25 41 -9 177 -75 235 -115 22 -15 69
-42 105 -60 36 -18 98 -52 138 -77 40 -24 112 -65 160 -90 48 -25 96 -54 108
-64 11 -11 24 -19 30 -19 5 0 23 -15 39 -34 19 -21 61 -48 112 -71 123 -54
302 -181 421 -298 88 -87 109 -114 141 -182 26 -56 58 -102 108 -156 38 -41
84 -103 102 -136 18 -33 57 -91 86 -129 65 -82 175 -218 227 -280 84 -100 137
-195 159 -284 7 -30 18 -62 24 -70 28 -35 83 -148 89 -180 4 -26 27 -58 85
-119 97 -103 171 -230 207 -357 13 -49 29 -101 35 -115 11 -29 113 -122 123
-112 20 20 -20 139 -79 235 -45 73 -45 88 0 88 37 0 44 -10 20 -30 -15 -12
-12 -30 5 -30 5 0 25 13 43 30 37 32 117 70 148 70 10 0 19 -7 19 -15 0 -22
20 -19 91 14 35 16 105 37 154 46 50 9 118 23 153 32 35 8 65 13 68 11 6 -6
-112 -59 -183 -82 -59 -20 -90 -46 -53 -46 34 0 176 46 277 89 93 39 201 75
266 86 20 4 39 11 42 15 9 15 -34 21 -57 8 -16 -8 -73 -13 -178 -13 -137 -1
-167 -4 -260 -29 -118 -32 -177 -45 -203 -46 -25 0 -10 25 51 86 61 61 107
138 181 302 64 141 76 178 122 362 34 136 43 186 59 330 5 52 19 172 29 265
18 156 46 581 45 665 -1 19 -9 103 -19 185 -22 190 -30 365 -18 365 6 0 18 -9
29 -21 10 -12 42 -33 69 -46 28 -14 91 -52 140 -83 94 -61 173 -90 303 -111
84 -14 98 -8 87 40 -5 22 -19 38 -56 61 -27 16 -53 30 -57 30 -5 0 -17 6 -27
14 -17 12 -16 15 21 40 30 20 51 26 94 26 86 0 130 10 130 29 0 9 5 22 12 29
20 20 -6 57 -57 81 -50 23 -51 36 -4 46 34 8 38 41 4 38 -25 -2 -163 -29 -276
-54 -104 -23 -109 -23 -109 -4 0 8 5 15 10 15 19 0 100 121 100 150 0 31 -48
80 -78 80 -26 0 -113 -28 -129 -41 -25 -21 -28 2 -5 41 27 48 28 85 1 129 -19
32 -22 33 -68 29 -57 -6 -130 -53 -163 -106 -11 -19 -24 -30 -29 -25 -15 15
-29 112 -40 260 -5 85 -17 165 -28 200 -50 156 -55 181 -38 206 21 32 183 110
303 147 56 16 105 30 108 30 20 0 -17 -25 -122 -84 -127 -70 -164 -95 -144
-96 17 0 254 119 267 135 11 14 169 86 315 145 52 21 116 48 143 60 l47 21 0
60 0 61 -56 -50 c-31 -28 -65 -52 -77 -55 -58 -14 -170 -52 -347 -119 -107
-41 -228 -85 -268 -98 -57 -18 -86 -34 -128 -73 -31 -28 -60 -47 -68 -44 -8 3
-20 23 -26 44 -48 148 -246 418 -357 488 -25 16 -49 39 -54 52 -13 34 -52 54
-130 67 -87 13 -102 30 -144 156 -34 102 -38 199 -10 230 26 28 57 25 194 -20
120 -40 122 -40 273 -40 84 0 191 5 238 10 185 23 393 78 470 125 57 35 143
118 200 195 19 25 51 65 72 88 38 44 84 151 147 339 23 68 33 119 37 195 8
127 -3 185 -58 297 -42 88 -110 165 -193 219 -22 15 -52 36 -67 48 -37 30
-158 47 -301 41 -64 -2 -120 -7 -124 -10 -3 -4 -21 -7 -39 -7 -18 0 -66 -7
-106 -16 -81 -18 -182 -19 -267 -5 -31 5 -96 15 -146 21 -49 6 -115 19 -145
27 -103 30 -304 17 -448 -28 -48 -15 -245 -28 -427 -29 -240 -1 -344 -28 -430
-115 -80 -79 -99 -170 -55 -258 l23 -46 -29 -66 c-16 -40 -48 -88 -76 -119
-26 -28 -64 -82 -84 -121 -21 -38 -54 -84 -74 -102 -44 -38 -61 -87 -70 -206
l-7 -88 -65 -60 c-41 -36 -85 -90 -114 -137 -80 -131 -79 -129 -60 -168 19
-42 30 -40 155 17 46 22 86 37 89 34 3 -3 0 -81 -7 -173 -11 -136 -11 -176 0
-211 16 -55 59 -91 107 -91 61 1 184 26 235 50 61 27 109 22 252 -26 55 -19
107 -36 115 -39 8 -3 48 -13 89 -23 67 -17 75 -22 92 -54 32 -63 91 -99 144
-88 17 3 90 19 118 26 20 5 33 1 47 -11 28 -26 26 -35 -25 -89 -24 -26 -50
-61 -57 -78 l-13 -29 -230 3 -230 4 -105 43 c-60 25 -133 47 -170 52 -99 13
-132 22 -310 83 -162 55 -231 93 -238 130 -3 12 4 16 25 16 15 0 35 5 43 10
11 7 0 10 -37 10 l-52 0 -30 63 c-30 64 -84 148 -145 227 -19 25 -49 79 -67
120 -49 117 -148 277 -215 350 -42 44 -66 79 -73 107 -6 23 -27 63 -46 88 -19
25 -35 49 -35 54 0 4 -22 29 -49 54 -55 52 -112 72 -177 62 -25 -3 -45 -2 -48
4 -9 15 47 121 91 174 51 59 60 69 113 116 49 43 48 68 -1 32 -45 -33 -60 -20
-19 17 19 18 40 32 46 32 6 0 19 9 29 20 16 17 16 20 2 26 -8 3 -27 -2 -42
-12 -51 -33 -39 -1 20 52 47 42 57 56 47 66 -10 10 -7 17 15 33 32 26 24 49
-13 35 -38 -15 -46 -13 -35 9 6 10 26 28 45 39 29 17 35 27 38 59 3 33 8 40
41 56 46 21 48 37 5 37 l-33 1 48 43 c49 42 49 42 27 57 -21 14 -21 15 29 66
28 29 51 60 51 68 0 9 12 27 28 41 18 17 23 27 15 31 -22 9 -15 40 11 47 35 9
108 146 79 146 -5 0 -21 -8 -38 -19z m2084 -483 c2 -7 15 -23 28 -36 13 -13
22 -26 19 -29 -12 -13 -61 11 -99 48 l-42 41 45 -7 c25 -3 47 -11 49 -17z
m-91 -45 c43 -43 52 -58 52 -88 0 -19 -4 -35 -10 -35 -18 0 -140 60 -140 69 0
13 -62 71 -77 71 -23 0 -14 -19 22 -51 46 -41 81 -97 67 -111 -23 -23 -50 4
-91 88 -23 47 -41 90 -41 94 0 14 31 19 101 17 65 -2 66 -3 117 -54z m1036 48
c28 -11 8 -20 -62 -27 -42 -5 -61 -3 -67 6 -4 7 -2 16 6 21 17 11 96 11 123 0z
m-808 -17 c66 -13 85 -22 116 -52 20 -19 35 -38 33 -42 -6 -10 -117 1 -141 14
-37 19 -118 96 -101 96 8 0 50 -7 93 -16z m911 -6 c-3 -8 -6 -5 -6 6 -1 11 2
17 5 13 3 -3 4 -12 1 -19z m-269 0 c-11 -32 -108 -54 -149 -35 -12 6 -18 2
-22 -12 -4 -18 -13 -21 -61 -21 -49 0 -56 2 -56 20 0 16 5 19 29 14 16 -3 39
0 52 7 13 7 58 18 99 25 102 16 112 16 108 2z m-1292 -26 c23 -5 60 -24 83
-42 47 -38 121 -151 158 -242 14 -35 33 -76 42 -93 9 -16 16 -48 17 -70 1 -22
9 -60 19 -85 15 -35 19 -74 19 -180 1 -187 -14 -212 -30 -50 -17 173 -32 250
-55 285 l-21 30 7 -30 c30 -127 37 -173 42 -271 6 -115 -2 -204 -18 -204 -5 0
-9 21 -9 48 0 26 -9 124 -20 217 -11 94 -20 196 -20 228 0 35 -4 57 -11 57
-13 0 -5 -229 12 -335 5 -33 9 -115 9 -182 0 -99 -3 -123 -14 -123 -29 0 -35
56 -29 277 6 205 -1 343 -15 328 -3 -3 -7 -86 -9 -183 -2 -193 -8 -246 -25
-236 -7 5 -9 50 -6 143 3 75 2 150 -2 166 -9 35 -9 36 -18 -75 -19 -230 -3
-371 50 -427 l21 -22 -27 -12 c-23 -11 -31 -10 -54 7 -69 51 -98 203 -66 344
14 60 17 132 19 358 1 155 -2 282 -5 282 -8 0 -20 -76 -20 -124 0 -17 -9 -62
-21 -101 -11 -38 -25 -86 -29 -105 -5 -19 -18 -66 -30 -104 -11 -38 -20 -90
-20 -115 0 -25 -4 -73 -9 -106 -17 -117 26 -278 90 -341 37 -36 45 -39 114
-45 41 -3 81 -12 90 -19 14 -11 9 -17 -42 -45 -75 -42 -80 -60 -9 -35 81 29
96 17 96 -81 0 -61 -39 -120 -125 -189 -56 -44 -74 -54 -109 -54 -44 -1 -48 6
-33 67 11 41 -16 35 -36 -8 -22 -46 -21 -58 3 -80 23 -21 26 -45 6 -45 -23 0
-114 -113 -143 -176 -14 -33 -27 -60 -27 -61 -4 -6 -140 28 -211 53 -170 58
-240 61 -370 17 -166 -56 -203 -52 -242 26 -21 42 -22 52 -17 220 5 173 14
221 41 221 17 0 16 -20 -2 -44 -8 -11 -15 -37 -15 -58 0 -32 5 -41 33 -58 45
-28 80 -25 120 10 40 35 55 36 115 13 41 -15 47 -15 97 1 58 18 70 28 61 51
-4 12 -12 12 -53 0 -64 -20 -93 -19 -145 4 -67 30 -153 95 -153 116 0 26 64
46 159 49 69 2 81 5 98 26 12 15 18 35 16 57 -3 38 -20 45 -28 11 -4 -16 -8
-19 -14 -10 -19 31 -134 2 -203 -51 -127 -98 -201 -152 -241 -178 -47 -29 -86
-37 -97 -19 -3 5 17 55 45 110 47 91 60 108 153 191 56 50 118 103 137 117 51
37 60 52 60 93 0 20 7 42 15 49 22 18 18 33 -14 55 -23 15 -27 22 -19 33 8 9
8 16 0 24 -7 7 -12 20 -12 30 0 25 33 88 66 127 35 42 49 29 59 -52 10 -77 7
-111 -12 -160 -16 -40 -6 -71 14 -45 27 33 36 97 34 238 -1 81 3 158 7 171 9
24 11 24 138 24 71 0 158 4 194 8 64 9 220 54 220 64 0 8 -92 -7 -113 -19 -10
-5 -84 -13 -166 -19 -132 -9 -154 -8 -201 8 -33 11 -61 29 -74 46 -18 25 -19
33 -9 92 6 37 25 88 43 120 l32 55 51 -1 c29 -1 77 6 107 15 30 9 107 21 170
26 151 13 162 13 158 -2 -3 -8 -32 -16 -74 -19 -113 -11 -302 -47 -337 -66
-49 -26 -11 -28 76 -4 87 25 93 25 78 7 -6 -7 -31 -19 -56 -26 -24 -7 -59 -23
-76 -36 -18 -13 -56 -30 -84 -39 -29 -8 -58 -22 -65 -30 -18 -22 0 -20 84 9
39 13 107 30 151 36 44 7 124 21 177 31 53 11 104 19 112 19 20 0 70 20 64 25
-3 3 -40 -1 -84 -10 -88 -16 -282 -45 -298 -45 -19 1 39 29 80 39 22 5 92 28
157 50 65 23 130 41 145 41 15 0 34 5 42 10 12 8 11 10 -7 10 -12 0 -25 5 -29
11 -7 12 37 9 122 -9z m945 -28 c16 -20 -2 -34 -46 -34 -32 0 -42 5 -64 33
-12 16 -9 17 42 17 37 0 59 -5 68 -16z m595 -10 c9 -33 -10 -46 -56 -39 -19 2
-47 5 -62 5 -28 0 -55 31 -43 50 3 6 40 10 80 10 72 0 75 -1 81 -26z m156 -10
c27 -14 68 -59 68 -76 0 -20 -34 -19 -78 3 -66 33 -82 48 -82 76 0 22 3 24 33
18 17 -4 44 -14 59 -21z m-362 -12 c0 -20 -56 -52 -90 -52 -16 0 -48 37 -38
44 19 16 50 25 86 26 34 0 42 -3 42 -18z m-716 -12 c33 -12 83 -87 69 -101
-15 -15 -122 10 -132 30 -5 9 -12 31 -16 49 -6 31 -5 32 24 32 16 0 41 -4 55
-10z m566 -41 c0 -8 -53 -19 -96 -19 -23 0 -34 5 -34 14 0 20 17 29 65 36 38
6 65 -7 65 -31z m-332 -5 c48 -34 20 -64 -60 -64 -30 0 -42 6 -62 33 -15 19
-26 37 -26 40 0 15 126 7 148 -9z m132 7 c0 -5 -9 -19 -19 -32 -19 -23 -19
-24 -40 -5 -33 30 -27 46 19 46 22 0 40 -4 40 -9z m35 -11 c3 -5 1 -10 -4 -10
-6 0 -11 5 -11 10 0 6 2 10 4 10 3 0 8 -4 11 -10z m525 -5 c14 -9 12 -89 -2
-103 -15 -15 -72 -16 -98 -2 -24 13 -37 85 -19 106 10 13 25 15 61 11 27 -4
53 -9 58 -12z m-1088 -24 c39 -13 57 -39 36 -53 -30 -19 -71 -1 -92 41 -16 29
-11 47 8 32 6 -5 27 -14 48 -20z m907 -8 c6 -21 11 -43 11 -50 0 -30 -87 -45
-109 -19 -20 24 -31 74 -18 84 15 12 43 19 79 21 23 1 29 -4 37 -36z m474 -17
c5 -20 6 -40 2 -44 -11 -11 -35 30 -35 61 0 41 22 29 33 -17z m-626 -10 c14
-44 2 -56 -53 -56 -48 0 -74 19 -74 55 0 25 14 30 86 34 27 1 32 -3 41 -33z
m501 14 c35 -21 38 -31 21 -79 -12 -34 -23 -37 -80 -19 -38 11 -39 12 -39 58
0 26 3 50 7 53 13 13 58 7 91 -13z m-1354 -25 c14 -13 26 -31 26 -39 0 -8 3
-22 7 -32 5 -14 2 -16 -18 -12 -13 3 -32 9 -41 13 -39 16 -15 -13 30 -38 53
-29 67 -50 77 -122 7 -46 7 -47 -16 -40 -36 11 -74 51 -107 114 -30 56 -49
138 -38 166 8 23 50 18 80 -10z m692 -7 c13 -43 -65 -68 -86 -27 -18 33 -5 49
39 49 32 0 41 -4 47 -22z m-330 -19 c8 -6 14 -18 14 -27 0 -12 -11 -14 -66 -9
-68 5 -103 24 -89 47 9 15 121 6 141 -11z m188 -1 c21 -29 7 -38 -65 -38 -55
0 -69 8 -69 40 0 10 30 17 82 19 28 1 41 -5 52 -21z m-417 -23 c23 -16 52 -90
40 -101 -8 -8 -64 14 -83 33 -8 8 -14 30 -14 49 0 39 20 45 57 19z m1433 -34
c0 -14 -5 -33 -10 -41 -15 -23 -26 2 -22 50 3 33 7 39 18 29 8 -6 14 -23 14
-38z m-102 6 c24 -36 27 -62 12 -101 -13 -34 -22 -33 -52 9 -25 35 -25 37 -9
80 9 25 18 45 21 45 3 0 15 -15 28 -33z m-594 -20 c6 -17 6 -37 0 -54 -9 -26
-14 -28 -64 -28 l-55 0 -3 52 -3 52 48 4 c65 5 67 4 77 -26z m144 21 c7 -7 12
-26 12 -43 0 -17 -5 -36 -12 -43 -13 -13 -66 -16 -92 -6 -19 7 -21 54 -3 76
20 26 76 35 95 16z m161 -7 c15 -9 12 -41 -8 -93 -8 -20 -17 -28 -35 -28 -49
0 -56 8 -56 71 l0 59 43 0 c23 0 48 -4 56 -9z m-469 -20 c12 -23 13 -71 2 -87
-10 -16 -60 -26 -67 -14 -8 13 -15 102 -8 113 9 15 62 7 73 -12z m-328 -3 c23
-18 34 -94 15 -101 -23 -9 -141 22 -154 40 -7 9 -13 29 -13 45 0 28 0 28 68
28 39 0 75 -5 84 -12z m198 -9 c6 -11 12 -39 13 -62 l2 -42 -68 -3 c-64 -3
-68 -2 -77 22 -12 34 -1 94 19 99 9 3 35 5 58 6 33 1 45 -3 53 -20z m742 -16
c21 -18 17 -71 -8 -110 -17 -27 -34 -29 -76 -7 -27 14 -30 19 -25 52 3 21 10
50 16 66 10 25 15 28 43 22 17 -3 40 -14 50 -23z m-1131 -71 c13 -14 27 -102
17 -108 -5 -3 -24 -3 -43 0 -31 6 -34 11 -44 57 -6 27 -11 59 -11 70 0 18 2
19 38 4 20 -9 40 -19 43 -23z m1233 -14 c9 -12 16 -33 16 -45 0 -34 -30 -103
-45 -103 -7 0 -24 15 -38 34 l-26 34 21 51 c24 56 47 65 72 29z m-412 -46 c-2
-29 -9 -72 -16 -95 -12 -41 -13 -42 -51 -39 -22 2 -44 7 -49 12 -9 9 10 133
26 163 7 14 19 17 51 15 l42 -3 -3 -53z m538 33 c7 -17 5 -35 -6 -60 -20 -49
-44 -46 -44 6 0 69 31 104 50 54z m-684 -51 c-10 -96 -17 -106 -74 -102 l-47
3 3 60 c5 84 21 105 79 105 l46 0 -7 -66z m267 44 c24 -12 22 -34 -12 -114
-26 -63 -30 -69 -56 -67 -15 1 -29 4 -31 6 -3 2 1 48 8 101 l12 97 31 -7 c16
-3 38 -10 48 -16z m-793 -4 c70 -16 80 -24 80 -69 0 -53 -9 -58 -79 -44 -69
13 -81 28 -81 95 0 39 -4 38 80 18z m382 1 c5 -5 -9 -122 -17 -134 -2 -4 -18
-6 -35 -3 -30 4 -30 5 -30 67 0 52 3 64 18 68 25 7 58 8 64 2z m-1055 -133
c-3 -70 -10 -139 -16 -152 -5 -14 -13 -56 -16 -94 -10 -105 -25 -61 -25 74 0
74 6 136 15 170 9 30 18 72 22 93 3 20 10 37 16 37 7 0 8 -44 4 -128z m932
114 c12 -8 14 -57 5 -93 -6 -21 -12 -23 -75 -23 l-68 0 -6 34 c-10 53 -3 79
25 87 29 8 103 4 119 -5z m636 -20 c44 -19 45 -38 4 -123 -30 -63 -31 -64 -62
-58 -57 12 -61 24 -34 96 14 35 28 72 31 82 7 21 16 21 61 3z m-1137 -39 c6
-5 12 -20 12 -33 0 -13 5 -24 10 -24 6 0 10 7 10 15 0 19 34 19 50 0 6 -8 22
-13 33 -12 16 1 23 -4 25 -21 7 -51 -12 -56 -105 -27 -13 4 -23 3 -23 -3 0 -5
30 -20 68 -33 63 -22 67 -26 70 -56 3 -32 -10 -44 -23 -23 -4 6 -12 5 -20 -4
-8 -8 -20 -17 -27 -19 -9 -4 -6 -11 10 -24 21 -17 21 -20 7 -41 -9 -12 -26
-22 -38 -22 l-22 -1 23 -18 c26 -22 28 -40 7 -67 -14 -19 -15 -18 -35 6 -18
21 -20 34 -15 85 8 78 -14 184 -54 263 -40 79 -41 96 -3 80 15 -7 33 -16 40
-21z m1491 -34 c-5 -21 -14 -65 -20 -98 -16 -93 -41 -185 -50 -185 -14 0 -19
34 -10 67 7 23 5 34 -6 46 -19 19 -10 64 23 112 13 20 31 49 39 65 22 42 35
37 24 -7z m-109 -37 c0 -62 -21 -92 -39 -57 -15 26 -14 37 5 77 23 48 34 42
34 -20z m-119 6 l22 -19 -37 -61 c-43 -72 -49 -76 -76 -62 -40 22 -42 44 -8
104 35 62 58 70 99 38z m-977 -17 c27 -12 36 -21 36 -39 0 -26 -16 -36 -60
-36 -53 0 -80 19 -80 57 0 31 2 33 34 33 18 0 50 -7 70 -15z m204 -14 c18 -11
12 -61 -9 -74 -9 -6 -36 -7 -63 -3 -36 6 -50 13 -58 31 -19 42 -5 55 59 55 32
0 64 -4 71 -9z m103 -1 c10 0 12 -50 3 -74 -4 -10 -18 -16 -40 -16 -33 0 -34
1 -34 40 0 40 21 64 48 55 8 -3 18 -5 23 -5z m133 -36 c-3 -66 -61 -108 -94
-69 -10 12 -10 24 0 61 13 45 13 45 54 42 39 -3 41 -5 40 -34z m143 22 c1 -1
-2 -19 -8 -39 -13 -49 -66 -109 -92 -105 -37 6 -42 31 -17 89 12 30 27 57 33
61 8 5 75 0 84 -6z m-943 -11 c3 -8 1 -15 -4 -15 -6 0 -10 7 -10 15 0 8 2 15
4 15 2 0 6 -7 10 -15z m1036 -27 c0 -40 -77 -148 -106 -148 -6 0 -17 7 -24 15
-10 12 -4 27 32 84 36 59 47 70 71 71 21 0 27 -5 27 -22z m359 -14 c10 -22 8
-31 -8 -58 -39 -63 -81 -83 -81 -38 0 17 60 122 71 122 3 0 11 -12 18 -26z
m-249 -19 c9 -10 6 -23 -12 -52 -13 -21 -32 -55 -42 -76 -11 -20 -25 -42 -33
-48 -19 -17 -62 -2 -75 26 -9 20 -7 29 16 55 14 17 26 36 26 41 0 5 11 27 25
49 23 37 26 38 54 29 17 -6 35 -17 41 -24z m-772 0 c15 -5 16 -39 1 -67 -9
-17 -17 -19 -47 -13 -58 11 -72 22 -72 59 l0 33 53 -4 c28 -3 58 -6 65 -8z
m135 -21 c46 -8 53 -21 34 -67 l-15 -35 -53 11 c-59 11 -80 22 -74 40 23 66
25 69 48 64 12 -3 39 -9 60 -13z m127 -29 c21 -25 -11 -85 -45 -85 -33 0 -37
34 -9 78 17 26 36 28 54 7z m594 -7 c14 -23 -6 -57 -74 -130 -59 -62 -75 -69
-85 -39 -4 13 12 47 51 106 44 67 60 85 76 83 12 -2 26 -11 32 -20z m-1189
-108 c-3 -30 -8 -64 -11 -77 -6 -23 -28 -31 -38 -14 -6 9 22 179 32 195 11 19
23 -49 17 -104z m688 88 c5 -14 -20 -69 -36 -79 -12 -8 -47 1 -47 12 0 4 8 24
17 44 17 36 56 49 66 23z m707 -16 c0 -35 -163 -252 -215 -286 -31 -21 -55
-15 -55 14 0 22 16 28 22 8 2 -6 10 -8 16 -4 8 5 9 13 3 25 -8 14 0 29 36 70
38 43 50 51 69 47 20 -5 24 -2 24 14 0 25 14 52 48 98 27 35 52 42 52 14z
m-1140 -12 c11 -7 12 -12 3 -21 -12 -12 -53 4 -53 21 0 13 30 13 50 0z m517
-10 c10 -11 28 -20 41 -20 37 0 38 -28 1 -66 -35 -36 -66 -44 -75 -19 -4 8
-14 15 -24 15 -10 0 -23 6 -29 14 -10 12 -7 23 15 55 30 46 46 50 71 21z
m-3188 -18 c46 -33 46 -42 7 -143 -58 -150 -88 -185 -176 -208 -83 -22 -83
-22 -97 47 -12 59 -11 68 9 115 11 29 30 60 41 70 11 10 18 20 15 22 -3 3 -36
12 -73 20 -73 15 -91 25 -82 48 4 10 28 17 74 21 37 3 95 9 128 12 33 3 64 10
70 15 13 13 53 3 84 -19z m-376 11 c7 -7 -21 -43 -33 -43 -11 0 -21 30 -14 41
6 10 38 12 47 2z m1438 -11 c-5 -10 -17 -24 -25 -32 -26 -21 -18 -34 9 -16 24
16 26 16 35 -9 6 -15 10 -30 10 -35 0 -9 -79 -70 -92 -70 -4 0 -8 32 -8 70 0
76 19 110 60 110 17 0 19 -3 11 -18z m1754 -17 c0 -15 -8 -21 -32 -23 -30 -3
-33 -1 -33 23 0 24 3 26 33 23 24 -2 32 -8 32 -23z m845 9 c0 -19 -32 -66 -87
-129 -36 -40 -45 -46 -58 -35 -26 21 -17 40 52 111 65 68 93 84 93 53z m-788
-39 c-12 -26 -42 -35 -42 -12 0 7 7 23 16 36 22 31 43 13 26 -24z m-226 21
c10 -8 16 -18 12 -22 -10 -9 -58 12 -58 26 0 14 23 12 46 -4z m315 -6 c6 0 7
-9 3 -22 -4 -13 -8 -32 -9 -42 -1 -11 -9 -25 -19 -30 -14 -9 -22 -5 -42 18
l-25 29 27 29 c16 15 34 26 42 23 7 -3 18 -5 23 -5z m872 -41 c-1 -25 -11 -42
-36 -64 -19 -16 -43 -46 -55 -66 -24 -40 -144 -159 -161 -159 -32 0 -2 58 64
126 41 42 116 132 144 172 28 40 47 36 44 -9z m-1196 -25 c8 -20 -22 -83 -43
-91 -28 -10 -46 26 -40 75 3 24 8 48 11 53 8 12 64 -18 72 -37z m118 23 c23
-19 25 -26 16 -50 -13 -35 -23 -34 -55 4 -50 59 -18 96 39 46z m537 -33 c-9
-26 -23 -49 -30 -51 -16 -7 -42 15 -42 36 1 18 68 73 81 66 4 -3 0 -26 -9 -51z
m-223 21 c50 -31 55 -39 40 -67 -16 -32 -79 -108 -88 -108 -4 0 -22 18 -40 41
-39 47 -37 66 11 121 18 21 34 38 36 38 1 0 20 -11 41 -25z m301 -3 c0 -5 -11
-19 -25 -32 l-25 -23 0 25 c0 13 3 28 7 31 9 10 43 9 43 -1z m-3718 -70 c15
-37 32 -94 38 -127 13 -81 17 -184 6 -185 -5 -1 -24 34 -43 77 -19 43 -48 95
-64 117 -33 46 -39 108 -14 156 25 49 47 38 77 -38z m63 48 c10 -15 -5 -50
-20 -50 -14 0 -35 29 -35 49 0 14 47 14 55 1z m2768 -22 c7 -21 -15 -58 -34
-58 -29 0 -40 30 -23 62 12 23 18 27 33 18 11 -5 21 -15 24 -22z m937 2 c13
-9 10 -14 -15 -35 -16 -14 -35 -25 -41 -25 -6 0 -17 -7 -24 -15 -13 -16 -60
-21 -60 -6 0 10 101 91 115 91 6 0 17 -5 25 -10z m-3279 -63 c17 -29 46 -71
65 -95 19 -24 34 -50 34 -58 0 -16 -31 -19 -46 -4 -6 6 -18 8 -27 4 -15 -5
-15 -9 -2 -41 16 -37 20 -103 8 -103 -7 0 -45 23 -85 52 -26 19 -32 3 -14 -41
12 -33 14 -51 6 -93 -20 -104 -28 -108 -55 -30 -43 123 -47 234 -10 324 34 83
74 150 86 142 5 -3 23 -29 40 -57z m2563 28 l26 -34 -31 -36 c-33 -37 -59 -44
-78 -21 -9 11 -6 26 16 70 15 31 30 56 34 56 4 0 18 -16 33 -35z m177 13 c25
-31 24 -37 -16 -81 -39 -42 -47 -41 -77 10 -16 28 -16 31 2 61 24 39 63 43 91
10z m316 -23 c35 -35 35 -35 18 -63 -35 -53 -83 -107 -113 -124 l-30 -18 -16
41 c-13 31 -14 45 -5 62 20 38 94 136 103 136 4 1 24 -15 43 -34z m-837 5 c0
-5 -4 -10 -10 -10 -5 0 -10 5 -10 10 0 6 5 10 10 10 6 0 10 -4 10 -10z m1120
-19 c14 -27 15 -24 -36 -60 -48 -35 -63 -36 -45 -3 21 40 10 37 -28 -7 -37
-43 -39 -44 -46 -22 -9 28 5 43 72 82 59 33 69 34 83 10z m-920 -40 c0 -25
-29 -61 -49 -61 -10 0 -22 12 -27 28 -9 23 -7 31 15 54 24 24 27 25 44 11 9
-9 17 -23 17 -32z m-152 27 c22 -22 12 -52 -30 -95 -49 -50 -65 -53 -98 -18
-27 29 -28 26 27 54 23 11 50 32 60 46 21 28 25 29 41 13z m538 -23 c12 -8 27
-29 34 -46 13 -31 13 -33 -26 -66 -36 -31 -79 -51 -89 -41 -2 2 -11 21 -20 41
l-15 37 41 45 c23 25 44 45 48 45 4 0 16 -7 27 -15z m-183 -27 c9 -7 19 -25
22 -39 5 -22 0 -32 -32 -58 -43 -35 -72 -37 -84 -4 -6 17 0 31 29 67 41 51 41
51 65 34z m-3200 -30 c38 -51 73 -127 91 -199 17 -70 21 -149 7 -149 -4 0 -18
30 -30 67 -12 37 -37 89 -56 114 -50 70 -75 124 -75 164 0 46 29 48 63 3z
m3706 19 c6 -8 14 -27 17 -43 7 -35 -1 -43 -110 -108 -91 -54 -117 -51 -71 10
23 31 32 35 56 30 26 -5 29 -3 24 17 -4 15 4 35 25 65 34 45 42 49 59 29z
m256 -7 c13 -20 -7 -49 -55 -80 -57 -37 -102 -44 -108 -17 -4 20 24 57 42 57
7 0 27 11 46 25 37 26 65 31 75 15z m-1067 -21 c19 -30 6 -56 -42 -84 -50 -29
-62 -31 -70 -9 -4 11 9 32 41 63 27 26 50 48 53 49 3 1 11 -7 18 -19z m142
-14 c0 -17 -9 -29 -30 -40 -38 -20 -40 -19 -40 9 0 15 11 32 27 44 32 24 43
20 43 -13z m-2631 -28 c-6 -21 -16 -37 -25 -37 -12 0 -10 8 6 41 25 49 33 47
19 -4z m1261 -17 c-7 -13 -21 -20 -40 -20 -40 0 -38 17 3 29 47 13 49 13 37
-9z m1800 -20 c17 -40 4 -55 -85 -95 -126 -57 -196 -78 -265 -79 -66 -1 -116
18 -253 95 -49 27 -36 46 28 41 41 -4 48 -8 57 -33 12 -35 28 -29 28 12 0 22
8 34 33 49 42 26 55 25 69 -6 13 -28 14 -27 -39 -61 -15 -10 -11 -11 25 -6 49
6 57 -9 16 -30 l-27 -14 44 -7 c26 -4 45 -3 47 3 2 5 32 19 68 31 51 17 68 19
79 10 11 -9 15 -7 20 12 6 22 124 119 136 112 4 -2 12 -17 19 -34z m-212 8
c16 -16 15 -55 0 -65 -20 -13 -81 -33 -100 -33 -13 0 -18 8 -18 25 0 14 6 25
13 25 7 0 26 14 42 30 31 33 45 36 63 18z m732 -3 c11 -13 8 -21 -16 -46 -38
-40 -113 -89 -136 -89 -21 0 -24 36 -5 61 16 20 118 89 133 89 6 0 17 -7 24
-15z m-219 -27 c10 -19 7 -25 -27 -55 -40 -34 -38 -35 24 -18 14 4 18 -2 18
-35 1 -37 -1 -40 -42 -56 -48 -18 -143 -24 -143 -9 -1 6 13 15 30 20 17 6 35
18 40 27 7 13 -9 10 -78 -15 -49 -17 -93 -38 -99 -46 -9 -12 -33 -13 -140 -7
-71 4 -133 11 -137 15 -4 4 14 16 40 25 82 30 147 58 168 72 11 8 27 14 37 14
36 0 16 -22 -42 -47 -32 -14 -57 -29 -55 -33 3 -4 31 3 62 16 32 13 64 24 71
24 17 0 137 62 192 99 53 37 66 38 81 9z m-3466 1 c4 -5 21 -9 38 -7 36 3 29
21 66 -182 12 -63 26 -128 31 -144 6 -16 10 -52 10 -80 0 -40 9 -67 40 -126
22 -41 40 -77 40 -80 0 -3 -148 -5 -329 -5 l-328 0 7 26 c10 34 38 86 50 94 5
3 10 16 10 27 0 11 20 65 45 120 25 55 45 106 45 114 0 26 20 14 37 -21 35
-74 94 -17 71 68 -10 40 -9 48 7 73 10 16 21 44 24 63 5 31 11 36 56 51 62 22
72 23 80 9z m-360 -15 c23 -23 47 -73 40 -84 -18 -30 -105 16 -105 54 0 14 8
30 18 35 23 14 28 14 47 -5z m763 -28 c45 -23 68 -56 124 -173 36 -73 72 -130
105 -167 29 -31 58 -75 67 -101 26 -78 105 -201 165 -258 82 -78 175 -120 382
-172 211 -52 258 -67 324 -103 l50 -27 250 0 c285 0 274 4 236 -85 -21 -48
-20 -80 3 -80 7 0 21 28 32 63 l20 62 101 -4 c66 -2 103 1 107 8 4 6 20 11 36
11 42 0 59 9 75 40 9 18 25 30 45 33 17 4 48 23 68 42 20 19 67 58 104 85 58
44 68 56 83 105 11 33 23 55 32 55 15 0 113 -97 113 -112 0 -5 13 -21 30 -36
47 -43 183 -275 219 -373 32 -87 79 -286 96 -404 8 -60 22 -150 31 -200 8 -49
15 -110 15 -135 0 -65 -44 -99 -181 -139 -99 -29 -240 -45 -256 -29 -3 4 8 67
24 140 17 73 35 162 41 198 5 36 13 83 16 105 4 22 8 73 11 114 2 41 9 80 16
88 8 10 8 17 0 25 -7 7 -12 41 -13 78 -1 111 -11 128 -106 175 -70 34 -83 44
-83 65 l-1 25 -22 -26 c-29 -34 -85 -46 -103 -22 -12 17 -13 16 -14 -4 0 -12
-12 -31 -27 -42 -24 -17 -25 -20 -9 -21 17 0 18 -6 12 -67 -4 -38 -9 -83 -12
-100 -4 -20 -2 -33 4 -33 6 0 13 24 17 53 17 139 34 177 82 177 22 0 23 0 16
-112 -4 -74 -3 -109 4 -105 5 4 13 47 16 96 7 111 12 121 54 109 32 -8 33 -9
25 -56 -10 -67 -9 -121 3 -124 6 -2 11 27 13 70 2 39 6 72 11 72 14 0 39 -25
60 -60 35 -58 27 -208 -24 -465 -8 -38 -19 -97 -25 -130 -7 -33 -18 -80 -25
-105 -7 -25 -16 -62 -19 -83 -3 -22 -10 -45 -17 -53 -6 -7 -12 -51 -14 -96 -2
-81 -26 -279 -45 -368 -5 -25 -14 -76 -20 -115 -19 -120 -32 -168 -58 -220
-14 -27 -35 -80 -48 -117 -43 -127 -177 -328 -218 -328 -9 0 -28 -19 -42 -43
-34 -54 -163 -180 -256 -251 -70 -53 -172 -106 -203 -106 -17 0 -55 39 -94 95
-44 64 -45 73 -8 89 81 33 228 189 253 268 7 22 177 240 212 271 11 10 26 33
33 50 7 18 23 44 37 59 22 24 25 36 28 140 2 77 11 148 29 223 22 92 28 148
35 338 8 208 17 279 50 422 12 50 40 330 40 405 1 53 23 148 51 217 15 38 4
57 -17 29 -35 -49 -68 -180 -95 -381 -5 -38 -19 -121 -30 -183 -24 -126 -34
-135 -77 -72 -13 19 -62 78 -109 130 -123 138 -126 144 -127 322 -1 107 -4
148 -13 148 -21 0 -25 -20 -27 -109 l-1 -86 -129 2 c-294 4 -482 48 -881 205
-55 21 -127 56 -160 77 -71 46 -170 97 -205 106 -125 34 -257 182 -444 496
-69 117 -83 159 -62 191 16 25 56 166 56 198 0 25 1 25 47 0 72 -38 92 -23 75
57 -14 65 -9 72 36 49z m2065 -98 c-7 -40 -10 -45 -24 -31 -14 14 -1 63 17 63
10 0 12 -9 7 -32z m-2795 2 c65 -17 52 -31 -25 -28 -54 2 -68 6 -71 20 -3 16
21 28 43 22 6 -2 29 -8 53 -14z m-716 -8 c72 -48 178 -269 178 -373 0 -16 11
-59 26 -96 14 -38 30 -88 35 -113 6 -25 19 -63 29 -85 72 -152 79 -181 85
-392 3 -109 10 -223 15 -253 5 -30 12 -129 15 -220 3 -91 11 -208 17 -260 16
-138 19 -134 -81 -99 -46 16 -91 29 -100 29 -9 0 -29 7 -45 15 -15 8 -33 15
-40 15 -31 1 -38 19 -41 116 -11 266 -15 326 -24 409 -6 50 -11 137 -11 195 0
58 -7 146 -15 195 -8 50 -19 133 -25 185 -6 52 -20 149 -30 215 -10 66 -21
179 -25 250 -5 114 -13 180 -31 263 -3 18 0 22 18 22 13 0 35 -8 50 -18z
m2308 -63 c0 -3 -16 -14 -34 -24 -34 -19 -35 -19 -57 0 -29 27 -41 62 -29 85
10 18 13 18 65 -17 30 -21 55 -40 55 -44z m1179 -58 c11 -21 34 -81 51 -133
39 -119 101 -201 178 -237 54 -25 82 -22 44 5 -12 8 -22 19 -22 25 0 16 36 10
54 -10 23 -25 8 -61 -49 -118 -32 -33 -50 -44 -65 -40 -11 3 -20 2 -20 -2 0
-4 -16 -26 -36 -49 -28 -33 -40 -41 -58 -36 -17 4 -25 -1 -34 -20 -7 -15 -23
-28 -39 -31 -15 -3 -46 -15 -68 -25 -42 -20 -132 -33 -140 -20 -6 10 52 87 71
94 8 3 25 1 36 -5 11 -6 23 -8 26 -4 9 9 -87 94 -115 101 -29 8 -29 29 2 96
26 57 34 143 15 178 -6 11 -38 38 -72 61 -57 39 -60 43 -42 56 10 7 40 20 66
28 57 17 153 76 168 104 16 30 27 26 49 -18z m-2839 -195 c0 -3 -4 -8 -10 -11
-5 -3 -10 -1 -10 4 0 6 5 11 10 11 6 0 10 -2 10 -4z m2572 -17 c67 -17 82 -69
53 -178 -9 -37 -26 -66 -52 -93 -32 -33 -43 -38 -83 -38 -75 0 -105 31 -120
126 -13 77 -3 110 46 162 47 48 50 49 156 21z m-2603 -40 c-13 -26 -23 -18
-14 10 3 12 11 19 16 16 5 -4 5 -14 -2 -26z m-33 -67 c-14 -14 -16 -14 -16 -1
0 20 23 44 29 28 2 -6 -4 -18 -13 -27z m-124 -129 c-2 -40 0 -73 5 -73 5 0 38
29 73 65 l64 65 330 0 c181 0 339 -3 352 -6 14 -4 44 -36 76 -82 29 -43 68
-94 87 -115 55 -61 194 -164 284 -208 45 -23 106 -57 135 -75 65 -42 189 -104
262 -131 30 -12 91 -34 135 -51 225 -85 323 -110 450 -117 50 -2 131 -11 180
-18 50 -8 116 -12 147 -9 47 4 59 1 64 -12 3 -9 12 -16 20 -16 8 0 14 -4 14
-10 0 -5 -7 -10 -15 -10 -8 0 -15 -3 -15 -6 0 -18 67 -134 96 -167 19 -20 34
-42 34 -48 0 -52 -193 -247 -356 -360 -197 -136 -404 -317 -430 -377 -8 -19
-20 -31 -27 -28 -7 2 -37 12 -67 21 -48 15 -93 31 -290 105 -19 7 -64 20 -99
30 -39 10 -68 24 -74 36 -7 12 -13 171 -17 435 -6 404 -7 416 -28 450 -12 20
-37 44 -56 54 -33 18 -34 20 -38 91 -4 82 -25 115 -82 133 -32 10 -291 33
-406 36 -36 1 -83 5 -105 9 -39 8 -237 49 -325 67 -64 14 -234 13 -305 -1
-107 -21 -113 -18 -167 85 -59 113 -122 279 -114 300 5 13 23 15 108 13 l103
-3 -3 -72z m3338 -36 c0 -7 -7 -23 -16 -36 -24 -34 -40 -11 -19 28 15 30 35
34 35 8z m-66 -56 c7 -10 -31 -61 -45 -61 -14 0 -11 23 7 48 16 23 29 28 38
13z m-130 -127 c-11 -17 -20 -22 -27 -15 -12 12 8 41 29 41 12 0 11 -5 -2 -26z
m-4112 -87 c45 -54 108 -178 108 -212 0 -15 20 -83 44 -153 23 -70 49 -152 55
-182 31 -136 54 -227 67 -257 7 -18 10 -33 6 -33 -16 0 -160 52 -175 63 -11 8
-20 39 -27 86 -12 88 -37 146 -91 219 -75 99 -80 120 -69 278 12 175 21 234
38 234 4 0 24 -19 44 -43z m4018 30 c0 -8 -9 -22 -20 -32 -18 -16 -20 -16 -26
-1 -7 19 12 46 32 46 8 0 14 -6 14 -13z m-100 -36 c0 -16 -30 -33 -46 -27 -13
5 -14 9 -4 21 13 16 50 21 50 6z m-2565 -66 c66 -14 145 -32 175 -40 76 -20
256 -35 431 -35 l147 0 4 -25 c3 -14 3 -107 0 -208 -4 -177 1 -268 33 -532 8
-66 19 -183 25 -260 14 -182 38 -373 51 -397 6 -11 8 -26 5 -33 -4 -11 -17 -8
-58 14 -101 52 -223 122 -240 137 -24 22 -38 122 -38 265 0 82 5 137 15 164
30 84 22 121 -66 294 -66 131 -90 170 -135 213 -65 63 -96 80 -132 76 -30 -3
-53 -42 -74 -125 -7 -27 -19 -59 -28 -73 -9 -14 -31 -68 -49 -120 -31 -90 -32
-98 -21 -150 6 -30 27 -83 46 -118 39 -71 41 -87 17 -97 -15 -7 -14 -9 7 -14
20 -6 26 -14 28 -44 2 -26 -1 -39 -11 -43 -8 -3 -54 11 -101 30 -47 20 -92 36
-99 36 -28 0 -250 79 -258 91 -5 8 -9 32 -9 54 0 22 -7 69 -15 105 -9 39 -15
123 -15 210 0 80 -7 208 -15 284 -15 151 -6 299 19 324 20 21 104 40 176 41
36 1 119 -10 185 -24z m-409 -225 c11 -444 13 -487 28 -565 20 -103 21 -195 2
-195 -8 0 -16 10 -19 23 -14 60 -38 390 -53 727 -6 144 4 236 27 228 5 -2 11
-96 15 -218z m1214 111 c0 -11 -4 -23 -10 -26 -6 -4 -10 5 -10 19 0 14 5 26
10 26 6 0 10 -9 10 -19z m57 -107 c3 -138 -16 -120 -24 23 -5 79 -4 95 8 91
11 -4 15 -31 16 -114z m-1968 -17 c78 -133 150 -229 228 -303 l85 -81 -4 -106
c-2 -76 -7 -108 -16 -112 -18 -7 -154 32 -164 47 -45 66 -82 161 -94 242 -8
50 -20 116 -28 146 -37 141 -56 218 -56 226 0 13 22 -13 49 -59z m1929 -30
c-1 -18 6 -99 15 -182 15 -138 36 -343 58 -555 4 -47 13 -128 18 -180 13 -120
14 -393 2 -386 -28 18 -63 203 -76 406 -4 52 -15 174 -25 270 -11 96 -24 226
-31 289 -11 109 -8 328 6 363 11 27 34 10 33 -25z m159 -79 c15 -29 18 -69 20
-313 1 -154 6 -427 9 -607 4 -180 4 -334 1 -342 -4 -9 -13 -13 -20 -10 -17 6
-25 126 -32 484 -3 135 -8 271 -11 303 -5 55 -16 276 -15 307 0 8 -5 52 -11
96 -6 45 -8 89 -5 98 11 27 45 19 64 -16z m-97 -81 c16 -60 39 -438 25 -434
-10 4 -14 39 -35 301 -7 83 -14 156 -17 163 -3 7 -1 13 5 13 5 0 15 -19 22
-43z m-598 -10 c24 -18 54 -53 66 -77 85 -161 172 -340 172 -354 0 -9 -22 -54
-48 -100 -42 -74 -50 -95 -61 -178 -6 -52 -11 -101 -9 -108 5 -24 -27 -21
-109 10 -122 47 -119 43 -98 129 22 92 17 140 -29 238 -19 43 -40 97 -45 121
-9 45 -7 56 34 197 13 44 26 90 30 102 7 25 31 53 45 53 5 0 28 -15 52 -33z
m2158 -269 c0 -5 -9 -8 -20 -8 -23 0 -26 10 -8 28 9 9 14 9 20 -1 4 -6 8 -15
8 -19z m46 -93 c7 -33 12 -61 11 -61 -8 -6 -108 -54 -112 -54 -4 0 -6 15 -5
33 1 17 1 41 1 52 -2 20 -2 20 -16 1 -8 -11 -15 -29 -15 -40 0 -12 -11 -39
-25 -61 -13 -22 -25 -48 -25 -57 0 -13 -14 -18 -67 -24 -90 -9 -99 -13 -195
-86 -88 -66 -183 -158 -230 -222 -47 -64 -23 -54 46 21 107 115 246 222 324
248 50 17 72 20 86 13 16 -9 5 -18 -82 -62 -89 -46 -115 -66 -224 -174 -67
-66 -119 -124 -116 -128 4 -3 36 22 70 57 128 128 257 229 293 229 18 0 -2
-21 -43 -47 -27 -17 -60 -45 -74 -64 -35 -47 -110 -190 -103 -197 3 -3 24 16
48 43 23 27 75 84 115 126 66 69 83 81 165 115 93 38 103 55 20 35 -25 -7 -48
-10 -50 -7 -13 13 10 36 46 46 57 15 66 35 13 26 -24 -3 -42 -2 -42 3 0 23
158 141 189 141 27 0 29 -10 35 -210 l6 -165 -46 -120 c-63 -162 -164 -461
-164 -485 0 -11 -3 -20 -6 -20 -4 0 -35 26 -69 58 -89 84 -269 217 -345 256
-118 60 -260 141 -260 147 0 11 59 81 138 163 89 91 186 173 311 261 47 33
109 89 139 125 43 51 71 74 136 108 44 23 88 41 96 40 9 -2 19 -26 26 -63z
m1330 41 c3 -8 1 -23 -5 -33 -9 -17 -10 -16 -19 7 -5 14 -8 28 -5 33 7 12 23
8 29 -7z m-86 -4 c0 -5 -11 -19 -25 -32 -56 -53 -120 -199 -96 -223 9 -9 16
-9 32 1 33 21 32 8 -1 -23 -40 -38 -64 -26 -68 33 -3 34 6 58 49 135 45 83 72
114 102 116 4 1 7 -3 7 -7z m-18 -145 c-74 -107 -96 -103 -43 9 16 33 41 71
57 83 l29 23 3 -22 c2 -13 -15 -48 -46 -93z m-3602 77 c0 -8 -4 -14 -10 -14
-5 0 -10 9 -10 21 0 11 5 17 10 14 6 -3 10 -13 10 -21z m3874 -100 c14 -14 14
-19 -4 -53 -53 -105 -114 -141 -231 -139 -44 1 -82 5 -84 8 -2 4 18 12 46 18
50 12 153 70 177 100 6 9 12 26 12 39 0 17 8 25 33 32 17 5 33 10 34 10 1 1 9
-6 17 -15z m-134 -44 c0 -12 -64 -53 -107 -68 -42 -14 -42 0 0 32 50 38 107
58 107 36z m-334 -34 c-4 -18 -16 -28 -43 -35 -20 -6 -40 -8 -44 -6 -10 7 -39
-5 -39 -16 0 -5 24 -9 54 -9 89 0 107 -17 64 -57 -55 -50 -137 -78 -358 -123
-30 -6 -65 -13 -77 -16 -31 -9 -43 21 -36 90 6 55 8 59 41 73 19 8 78 20 131
27 117 16 236 51 276 81 35 27 40 25 31 -9z m743 -120 c13 -14 35 -26 50 -28
34 -4 35 -38 1 -55 -38 -19 -427 -11 -502 10 -142 40 -138 45 42 46 144 0 176
4 250 25 109 32 131 32 159 2z m-675 -171 c2 -66 10 -203 17 -305 15 -227 15
-353 0 -473 -6 -51 -15 -146 -21 -212 -7 -66 -22 -190 -35 -275 -13 -85 -29
-191 -35 -235 -18 -125 -66 -313 -100 -395 -17 -41 -44 -119 -60 -172 -34
-115 -86 -198 -155 -249 -25 -19 -61 -46 -78 -62 -17 -15 -39 -30 -49 -33 -9
-3 -20 -13 -23 -23 -10 -34 -131 -71 -229 -71 -52 0 -89 29 -154 122 -26 37
-75 103 -109 148 -64 82 -70 98 -103 247 -23 108 -70 206 -132 278 -49 56
-168 211 -168 218 0 24 40 61 99 92 66 35 191 130 191 146 0 15 108 119 124
119 8 0 34 -28 57 -62 24 -35 57 -81 74 -103 17 -22 52 -83 78 -135 54 -110
99 -171 117 -154 8 8 2 28 -24 77 -19 37 -37 80 -41 96 -6 27 -163 303 -185
325 -22 22 -8 53 46 106 79 77 172 206 180 249 4 20 22 63 39 96 18 33 38 87
44 120 7 33 22 94 34 135 15 55 22 110 24 204 2 72 7 134 12 139 5 5 63 18
128 28 215 33 276 53 373 118 24 17 48 27 51 23 4 -4 10 -61 13 -127z m-1479
35 c-10 -11 -20 -18 -23 -15 -3 3 3 14 13 25 10 11 20 18 23 15 3 -3 -3 -14
-13 -25z m-1603 -30 c4 -46 -6 -41 -15 8 -4 17 -3 32 2 32 5 0 11 -18 13 -40z
m3378 30 c11 -6 61 -12 112 -14 51 -3 94 -8 95 -13 2 -5 -12 -15 -31 -21 -51
-19 -36 -38 45 -63 64 -19 98 -39 67 -39 -48 0 -346 138 -331 153 9 10 21 9
43 -3z m-2665 -95 c73 -30 144 -55 157 -55 12 0 40 -6 63 -14 175 -63 228 -85
285 -122 36 -23 101 -60 145 -83 140 -72 213 -133 352 -290 64 -73 73 -88 68
-112 -3 -15 -1 -30 4 -34 20 -12 11 -25 -61 -96 -71 -68 -72 -70 -72 -121 0
-49 -2 -54 -51 -102 -29 -28 -74 -70 -100 -93 -56 -49 -62 -47 -100 28 -13 25
-42 65 -64 88 -23 24 -41 51 -41 61 0 10 -15 27 -34 38 -20 12 -42 38 -56 68
-39 79 -255 293 -365 360 -49 30 -97 59 -105 64 -8 5 -44 28 -80 50 -122 75
-112 57 -111 216 2 148 8 204 22 204 5 0 70 -25 144 -55z m1324 -107 c-4 -29
-13 -69 -18 -88 -14 -49 -33 -207 -30 -255 2 -45 -20 -94 -69 -149 -37 -42
-49 -45 -57 -13 -12 46 60 300 124 437 11 25 21 53 21 62 0 27 19 70 29 64 4
-3 4 -29 0 -58z"/>
<path d="M10585 6340 c-27 -10 -62 -19 -76 -19 -15 -1 -42 -7 -60 -15 -33 -13
-218 -29 -361 -30 -40 -1 -67 -5 -65 -11 1 -6 60 -9 155 -8 83 1 152 -2 152
-7 0 -9 -60 -20 -112 -20 -33 0 -57 -14 -45 -26 5 -5 122 12 217 31 36 7 97
19 135 26 71 12 165 51 165 69 0 14 -4 13 -42 -9 -18 -11 -51 -23 -73 -26 -22
-4 -49 -9 -60 -11 -19 -5 -19 -5 -1 10 10 8 43 21 72 27 30 7 59 18 65 26 16
18 -3 16 -66 -7z"/>
<path d="M10212 5586 c-61 -15 -67 -19 -58 -42 5 -13 15 -15 49 -10 23 4 81 9
129 12 144 10 227 -32 291 -145 43 -76 49 -41 6 39 -38 71 -112 138 -167 151
-53 12 -188 9 -250 -5z"/>
<path d="M10128 5493 c0 -10 0 -26 0 -36 1 -10 -8 -27 -20 -38 l-23 -18 22 -1
c28 0 37 -14 18 -30 -23 -19 -18 -33 10 -26 27 7 34 -11 13 -32 -17 -17 -2
-28 17 -12 14 11 19 7 16 -12 -2 -12 13 -9 36 7 30 21 41 -1 13 -27 -28 -26
-19 -34 15 -12 23 15 28 15 36 3 8 -12 12 -11 23 4 14 18 15 18 25 0 9 -17 11
-17 23 -2 7 9 34 20 60 24 26 3 50 10 53 15 7 11 -16 16 -92 24 -29 3 -66 12
-83 21 -28 14 -31 20 -25 47 7 29 6 30 -18 24 -14 -3 -32 -9 -40 -12 -20 -7
-42 31 -42 71 0 34 -34 51 -37 18z"/>
<path d="M11106 6121 c-4 -5 -2 -12 3 -15 5 -4 12 -2 15 3 4 5 2 12 -3 15 -5
4 -12 2 -15 -3z"/>
<path d="M11460 4455 c0 -3 11 -28 25 -57 14 -28 25 -61 25 -72 0 -12 4 -27 9
-35 6 -10 3 -20 -12 -32 -25 -20 -15 -40 11 -21 9 7 25 15 35 18 22 8 22 16
-3 37 -11 9 -20 24 -20 32 0 17 -57 135 -65 135 -3 0 -5 -2 -5 -5z"/>
<path d="M11250 4285 c0 -27 25 -44 40 -29 15 15 0 54 -21 54 -14 0 -19 -7
-19 -25z"/>
<path d="M10974 4099 c-3 -6 1 -18 9 -27 13 -12 19 -13 31 -3 8 7 12 19 9 27
-6 17 -39 19 -49 3z"/>
<path d="M11683 3994 c-9 -24 11 -38 37 -24 17 9 19 14 9 26 -15 19 -38 18
-46 -2z"/>
<path d="M11717 3758 c-21 -11 -23 -38 -3 -38 25 0 46 12 46 25 0 18 -23 25
-43 13z"/>
<path d="M11632 3358 c-14 -14 -16 -44 -3 -52 16 -10 35 23 25 45 -7 16 -12
17 -22 7z"/>
<path d="M10730 1910 c-9 -17 -6 -20 30 -30 49 -13 142 -9 147 6 2 7 -20 13
-63 17 -36 2 -71 10 -77 16 -16 16 -25 14 -37 -9z"/>
<path d="M10705 2994 c-146 -114 -249 -224 -223 -240 6 -4 15 2 21 12 15 28
128 143 157 159 40 23 147 125 130 124 -8 0 -46 -25 -85 -55z"/>
<path d="M11790 2851 c0 -11 5 -23 11 -27 14 -8 29 14 22 33 -8 20 -33 16 -33
-6z"/>
<path d="M11490 2815 c-19 -23 -4 -47 26 -43 34 4 56 34 34 48 -22 14 -46 12
-60 -5z"/>
<path d="M11775 2710 c-15 -16 -15 -22 -5 -35 27 -32 70 -3 50 34 -13 26 -22
26 -45 1z"/>
<path d="M11497 2532 c-21 -23 -21 -36 -3 -51 12 -10 18 -7 32 14 15 23 15 28
2 41 -13 13 -16 12 -31 -4z"/>
<path d="M11720 2430 c-13 -24 2 -60 25 -60 15 0 45 26 45 40 0 14 -30 40 -45
40 -8 0 -19 -9 -25 -20z"/>
<path d="M11457 2282 c-18 -4 -37 -39 -37 -68 0 -24 54 -17 80 10 34 37 10 70
-43 58z"/>
<path d="M11863 2194 c-3 -8 2 -23 11 -32 15 -15 17 -15 33 0 13 14 14 20 3
32 -16 20 -39 20 -47 0z"/>
<path d="M11678 2164 c-58 -31 -15 -79 44 -48 29 15 32 22 22 48 -8 20 -31 20
-66 0z"/>
<path d="M11236 1941 c-18 -19 -18 -22 -2 -46 19 -29 33 -31 61 -9 18 14 19
17 5 42 -20 34 -41 38 -64 13z"/>
<path d="M11833 1938 c-39 -27 -37 -44 3 -39 39 4 44 8 44 37 0 30 -7 30 -47
2z"/>
<path d="M11557 1869 c-23 -14 -48 -64 -41 -83 15 -38 114 1 114 44 0 10 -10
26 -22 34 -26 19 -27 19 -51 5z"/>
<path d="M11772 1728 c-15 -15 -15 -45 -1 -53 10 -7 49 21 49 36 0 16 -36 29
-48 17z"/>
<path d="M11276 1650 c-42 -50 -16 -76 44 -45 31 16 39 42 18 63 -19 19 -34
14 -62 -18z"/>
<path d="M10878 1588 c-45 -35 -11 -110 42 -93 30 9 34 41 10 75 -24 34 -29
35 -52 18z"/>
<path d="M11505 1510 c-53 -20 -59 -78 -7 -65 38 9 51 23 45 46 -7 25 -13 28
-38 19z"/>
<path d="M10694 1456 c-3 -8 -4 -31 -2 -52 3 -33 7 -39 28 -42 30 -3 93 34 87
51 -5 18 -67 57 -89 57 -10 0 -21 -6 -24 -14z"/>
<path d="M11704 1366 c-21 -54 31 -89 62 -42 13 21 14 29 4 41 -16 19 -59 19
-66 1z"/>
<path d="M10996 1298 c-21 -29 -20 -35 3 -48 24 -12 42 -6 59 21 27 43 -33 69
-62 27z"/>
<path d="M11472 1217 c-44 -47 -13 -88 45 -60 39 18 46 35 27 62 -20 27 -45
27 -72 -2z"/>
<path d="M10892 1078 c-20 -20 -14 -46 14 -65 25 -16 27 -16 41 3 22 30 13 68
-17 72 -14 2 -31 -3 -38 -10z"/>
<path d="M11177 1064 c-17 -18 -4 -84 17 -84 20 0 58 47 54 67 -3 18 -56 31
-71 17z"/>
<path d="M11532 903 c-22 -9 -35 -43 -21 -59 19 -23 34 -16 58 26 l22 40 -23
-1 c-13 0 -29 -3 -36 -6z"/>
<path d="M11401 716 c-24 -26 -25 -61 -1 -61 14 0 60 59 60 76 0 18 -37 8 -59
-15z"/>
<path d="M11166 713 c-10 -26 7 -35 33 -17 18 13 20 18 10 25 -21 13 -36 11
-43 -8z"/>
<path d="M9915 2646 c-18 -13 -18 -14 8 -40 14 -14 31 -26 37 -26 16 0 12 47
-6 64 -19 19 -16 19 -39 2z"/>
<path d="M9740 2495 c-19 -22 -8 -50 21 -53 26 -3 46 19 33 39 -13 21 -42 29
-54 14z"/>
<path d="M10074 2445 c-9 -23 3 -45 24 -45 29 0 48 26 32 45 -7 8 -21 15 -32
15 -10 0 -21 -7 -24 -15z"/>
<path d="M10312 2405 c-46 -20 -40 -49 10 -53 33 -3 38 0 44 22 6 25 -1 46
-14 46 -4 -1 -22 -7 -40 -15z"/>
<path d="M10057 2264 c-23 -23 7 -64 47 -64 17 0 32 38 19 50 -12 13 -58 22
-66 14z"/>
<path d="M10445 2164 c-20 -21 -23 -30 -13 -41 6 -8 23 -13 37 -11 20 2 27 9
29 29 2 14 -4 31 -12 38 -13 11 -20 8 -41 -15z"/>
<path d="M10244 2095 c-12 -29 4 -46 38 -43 45 4 49 32 7 47 -40 14 -39 14
-45 -4z"/>
<path d="M6782 6920 c-7 -11 -20 -20 -30 -20 -10 0 -31 -14 -48 -31 -16 -17
-54 -49 -84 -72 -30 -23 -80 -64 -110 -92 -78 -71 -224 -193 -295 -247 -33
-25 -82 -67 -110 -93 -27 -25 -68 -63 -90 -83 -207 -186 -384 -358 -500 -486
-50 -54 -110 -112 -135 -129 -25 -17 -146 -128 -270 -248 -124 -119 -265 -252
-315 -295 -162 -140 -245 -219 -245 -233 0 -7 30 14 68 48 37 34 131 115 208
181 78 65 145 123 149 129 3 6 43 42 88 80 45 37 125 111 178 162 52 52 140
132 194 179 53 47 145 135 204 196 123 128 492 474 601 564 41 34 106 87 144
118 38 31 96 82 130 113 82 75 162 136 208 160 21 11 47 28 57 37 11 9 31 25
45 35 15 10 23 23 20 32 -9 22 -47 18 -62 -5z"/>
<path d="M5085 5470 c-27 -17 -77 -50 -110 -75 -33 -24 -100 -72 -149 -106
-49 -34 -97 -70 -105 -78 -15 -15 -136 -108 -345 -266 -118 -89 -206 -164
-206 -176 0 -18 19 -8 66 35 27 24 96 74 154 111 95 63 218 152 310 227 227
183 287 231 300 236 28 11 123 82 137 102 19 27 7 25 -52 -10z"/>
<path d="M12195 4740 c-27 -4 -201 -11 -385 -15 -184 -4 -337 -9 -340 -11 -2
-3 2 -9 10 -15 20 -13 648 -4 763 11 69 9 95 9 118 0 18 -8 93 -14 197 -15
188 -2 242 2 242 20 0 9 -45 14 -167 18 -93 4 -217 9 -278 11 -60 3 -132 1
-160 -4z"/>
<path d="M9630 4640 c0 -5 16 -10 35 -10 19 0 35 5 35 10 0 6 -16 10 -35 10
-19 0 -35 -4 -35 -10z"/>
<path d="M12765 4348 c-11 -7 -58 -28 -105 -47 -94 -40 -290 -148 -290 -161 0
-5 -19 -19 -43 -32 -54 -30 -180 -129 -173 -136 3 -2 34 13 68 35 81 51 236
143 242 143 2 0 79 36 170 80 149 72 166 83 166 105 0 28 -6 30 -35 13z"/>
<path d="M12730 4210 c-86 -61 -138 -86 -261 -125 -134 -43 -240 -92 -289
-133 -40 -34 -34 -55 8 -29 151 96 230 129 358 146 29 4 59 13 67 20 20 16
112 41 155 41 25 0 32 4 32 20 0 15 -7 20 -27 20 l-28 1 28 22 c25 21 38 58
20 56 -5 0 -33 -18 -63 -39z"/>
<path d="M12680 4056 c-206 -73 -270 -103 -478 -228 -17 -11 -30 -24 -26 -29
3 -5 17 -1 32 10 93 66 529 247 549 228 4 -4 -9 -23 -27 -42 -45 -47 -32 -55
24 -14 41 29 46 37 46 71 0 24 -5 38 -12 38 -7 0 -56 -15 -108 -34z"/>
<path d="M12093 3892 c-23 -15 -42 -30 -43 -34 0 -12 58 13 76 33 27 30 13 30
-33 1z"/>
<path d="M12720 3891 c-36 -15 -96 -47 -135 -72 -38 -26 -98 -63 -132 -83 -46
-27 -63 -43 -63 -58 0 -21 0 -21 23 -2 32 28 77 58 122 83 22 12 73 39 114 61
40 22 91 45 112 50 29 8 39 16 39 30 0 25 -1 25 -80 -9z"/>
<path d="M3770 3174 c-36 -7 -87 -18 -115 -23 -88 -16 -288 -71 -302 -82 -35
-30 15 -40 70 -15 19 9 82 17 157 20 69 3 157 10 195 16 39 5 111 14 160 19
50 5 119 14 155 20 36 6 116 9 178 6 106 -5 112 -4 112 15 0 10 -9 24 -19 30
-30 16 -511 11 -591 -6z"/>
<path d="M2880 3028 c-30 -5 -150 -11 -265 -13 -116 -2 -256 -8 -310 -13 -55
-5 -160 -7 -234 -4 -137 5 -223 -3 -396 -38 -109 -22 -145 -35 -145 -52 0 -26
19 -40 61 -49 38 -7 46 -5 61 12 10 12 23 19 30 16 7 -2 28 2 47 9 18 8 55 14
81 14 26 0 65 6 86 14 47 16 224 31 224 19 0 -5 -13 -19 -30 -31 -30 -23 -40
-52 -17 -52 29 1 105 28 137 48 19 12 49 24 65 26 17 2 75 11 130 19 99 14
185 12 185 -3 0 -5 -25 -21 -56 -36 -53 -26 -74 -47 -60 -61 3 -3 12 0 20 6 8
7 20 10 25 7 11 -7 121 27 155 48 11 8 47 16 79 20 31 3 76 13 100 21 25 9 99
17 182 20 159 7 159 4 13 -56 -84 -34 -108 -53 -90 -71 8 -8 26 -5 69 11 32
13 80 29 107 37 26 7 53 18 60 23 19 15 173 51 220 51 42 0 66 13 51 28 -3 4
-48 5 -99 4 -62 -2 -109 1 -142 12 -59 18 -268 26 -344 14z"/>
<path d="M3590 2970 c-116 -28 -282 -86 -317 -113 -28 -21 0 -23 54 -5 32 11
94 28 138 39 43 11 82 24 85 29 3 5 56 17 118 27 61 10 112 21 112 26 0 9
-145 7 -190 -3z"/>
<path d="M3924 2919 c-120 -9 -271 -40 -340 -70 l-49 -21 40 -20 c40 -21 63
-27 190 -48 96 -17 251 -5 345 27 8 3 42 7 75 9 33 3 80 14 103 26 l44 21 -21
20 c-18 19 -24 19 -61 8 -127 -38 -548 -73 -551 -46 -1 13 133 44 192 45 25 0
68 7 95 15 27 8 82 15 122 15 39 0 72 4 72 9 0 8 -104 23 -139 20 -9 -1 -62
-5 -117 -10z"/>
<path d="M1445 2900 c-8 -26 8 -46 40 -53 21 -3 25 0 25 19 0 12 -10 30 -22
38 -29 21 -35 20 -43 -4z"/>
<path d="M3510 2810 c0 -5 7 -10 16 -10 8 0 12 5 9 10 -3 6 -10 10 -16 10 -5
0 -9 -4 -9 -10z"/>
<path d="M8969 2261 c-26 -4 -54 -13 -63 -20 -23 -20 -20 -56 9 -87 50 -54 18
-100 -95 -135 -156 -50 -172 -88 -166 -400 5 -266 13 -364 33 -411 9 -21 19
-38 22 -39 3 0 15 -2 26 -3 11 -2 45 -13 75 -26 107 -43 512 -60 635 -26 28 8
79 17 114 21 61 6 132 33 146 54 11 19 -31 29 -100 24 -105 -8 -100 -26 -100
327 l0 297 -30 48 c-38 61 -166 142 -241 151 -63 8 -92 27 -110 71 -19 43 -12
63 20 63 30 0 40 24 24 58 -19 39 -82 49 -199 33z m69 -43 c-5 -15 -42 -22
-64 -14 -25 10 -5 26 32 26 24 0 34 -4 32 -12z m35 -95 c35 -81 91 -131 147
-133 39 -1 111 -38 152 -77 39 -38 41 -46 52 -175 l4 -56 -46 1 c-42 2 -47 -1
-50 -20 -4 -26 -27 -31 -36 -8 -20 53 -58 -42 -62 -157 -3 -76 -1 -89 15 -97
28 -16 41 6 41 71 0 45 3 58 15 58 17 0 30 -28 46 -98 12 -56 24 -72 54 -72
27 0 35 -22 35 -98 0 -37 -4 -54 -15 -58 -18 -7 -244 22 -314 41 -43 11 -51
11 -51 -1 0 -21 29 -32 108 -39 50 -5 72 -12 72 -21 0 -20 -260 -18 -359 2
-41 9 -85 14 -99 11 -47 -9 -52 19 -57 274 -2 129 -7 271 -11 316 -9 106 3
136 65 167 25 13 66 30 91 37 67 19 100 46 127 106 28 61 56 71 76 26z m357
-585 l0 -103 -26 45 c-14 25 -35 55 -47 68 l-21 22 34 35 c54 56 60 49 60 -67z"/>
<path d="M8803 1673 l-22 -4 18 -47 c10 -26 21 -76 25 -111 5 -54 3 -66 -12
-77 -26 -19 -3 -36 56 -42 34 -3 52 0 57 9 5 7 4 14 -1 16 -29 10 -38 28 -49
104 -10 68 -10 89 0 111 20 42 -2 55 -72 41z"/>
<path d="M8984 1645 c-18 -44 -18 -65 2 -93 10 -15 12 -27 6 -38 -11 -19 4
-92 23 -113 21 -22 38 -3 31 38 -23 138 -16 178 20 109 14 -27 86 -140 101
-157 2 -3 8 0 13 5 6 6 7 60 2 139 -6 106 -10 130 -22 130 -9 0 -18 -15 -24
-42 -5 -24 -12 -43 -17 -43 -4 0 -16 15 -27 33 -18 28 -68 67 -87 67 -3 0 -13
-16 -21 -35z"/>
<path d="M12375 751 c-6 -5 -46 -23 -90 -39 -44 -16 -111 -42 -150 -56 -86
-32 -185 -88 -167 -94 8 -2 28 3 45 12 18 9 75 32 127 52 52 20 103 42 114 50
11 8 31 14 44 14 31 0 102 40 102 57 0 15 -12 17 -25 4z"/>
<path d="M12415 512 c-24 -4 -129 -40 -170 -57 -16 -7 -41 -16 -55 -20 -14 -4
-41 -15 -60 -25 -19 -10 -56 -26 -82 -35 -50 -17 -63 -35 -28 -35 11 0 60 15
108 34 139 54 181 64 240 56 37 -5 61 -2 80 7 40 21 45 29 33 51 -11 21 -35
30 -66 24z"/>
</g>
</svg>
