<?xml version="1.0" standalone="no"?>
<!DOCTYPE svg PUBLIC "-//W3C//DTD SVG 20010904//EN"
 "http://www.w3.org/TR/2001/REC-SVG-20010904/DTD/svg10.dtd">
<svg version="1.0" xmlns="http://www.w3.org/2000/svg"
 width="1280.000000pt" height="902.000000pt" viewBox="0 0 1280.000000 902.000000"
 preserveAspectRatio="xMidYMid meet">
<metadata>
Created by potrace 1.15, written by Peter Selinger 2001-2017
</metadata>
<g transform="translate(0.000000,902.000000) scale(0.100000,-0.100000)"
fill="#000000" stroke="none">
<path d="M10173 8957 c-103 -63 -208 -151 -463 -392 -74 -71 -189 -173 -255
-229 -67 -56 -163 -146 -214 -201 -346 -373 -747 -784 -896 -919 -97 -89 -630
-609 -770 -752 l-70 -72 -116 1 c-63 0 -123 -4 -132 -9 -9 -5 -33 -36 -53 -69
-30 -51 -35 -64 -26 -86 5 -15 6 -33 2 -39 -4 -7 -63 -23 -129 -36 -74 -14
-152 -37 -199 -57 -42 -19 -97 -39 -122 -46 -81 -20 -302 -63 -305 -59 -10 10
29 137 75 243 52 123 57 140 40 150 -15 9 -37 -11 -44 -41 -4 -14 -22 -57 -40
-97 -19 -40 -41 -99 -51 -132 -9 -33 -23 -70 -31 -83 -8 -12 -12 -27 -9 -31 8
-14 -29 -124 -58 -174 -32 -54 -90 -107 -118 -107 -11 0 -39 -10 -61 -21 -37
-19 -54 -21 -138 -17 -107 6 -262 33 -302 54 -14 8 -44 14 -66 14 -21 0 -110
18 -196 40 -86 22 -158 40 -161 40 -2 0 -10 6 -17 13 -7 6 -54 32 -103 57 -87
44 -128 77 -304 250 -69 68 -226 277 -251 333 -10 23 -23 85 -30 138 -12 85
-11 107 7 212 20 122 15 143 -14 51 -18 -60 -37 -72 -94 -60 -36 7 -119 -9
-177 -35 -55 -25 -129 -31 -136 -12 -4 8 -6 41 -6 73 0 57 1 60 50 108 62 61
64 84 14 177 -34 64 -35 71 -29 134 6 64 5 70 -24 112 -35 51 -122 137 -166
164 -16 10 -60 38 -97 63 l-67 45 -118 -7 c-65 -3 -131 -8 -148 -11 -16 -2
-70 -9 -120 -15 -118 -15 -192 -38 -211 -67 -25 -40 -94 -83 -131 -83 -44 0
-166 -43 -204 -72 -102 -78 -319 -277 -319 -293 0 -12 -122 -149 -147 -166
-27 -18 -66 -63 -106 -122 -25 -37 -25 -39 -10 -90 27 -94 31 -97 131 -97 59
1 93 5 106 15 13 10 24 11 37 5 24 -13 66 -13 91 1 12 6 24 7 29 2 5 -5 -14
-34 -48 -69 -45 -47 -72 -65 -120 -83 -41 -14 -63 -28 -63 -38 0 -12 7 -14 30
-9 55 10 180 68 190 86 5 10 49 53 96 95 48 43 112 107 142 144 99 119 175
192 287 276 130 97 153 121 137 137 -9 9 -38 -7 -117 -61 -59 -40 -108 -71
-111 -69 -2 3 40 41 94 86 122 101 139 119 125 133 -9 9 -26 -2 -65 -38 -29
-27 -133 -111 -230 -187 -188 -146 -218 -175 -218 -212 0 -20 -5 -24 -29 -24
-32 0 -131 -46 -131 -61 0 -14 20 -11 69 11 24 11 51 20 60 20 9 0 38 20 64
45 49 46 67 55 67 32 0 -19 -141 -154 -173 -166 -50 -19 -141 -14 -171 10 -54
42 -22 125 65 170 22 11 39 26 39 34 0 23 -11 18 -70 -30 -74 -61 -102 -108
-97 -163 4 -34 1 -45 -14 -53 -31 -16 -93 6 -123 45 -48 63 -28 113 51 124 48
7 48 8 54 50 7 53 36 94 77 106 22 7 33 18 37 38 4 15 15 30 26 33 11 4 30 22
43 41 25 38 107 111 169 152 34 23 48 42 29 42 -4 0 -32 -18 -61 -40 -54 -41
-66 -45 -56 -19 7 15 121 104 170 131 34 19 59 23 50 8 -12 -19 32 -10 50 10
10 11 29 20 42 20 21 0 19 -5 -29 -66 -29 -37 -81 -100 -116 -140 -57 -67 -69
-94 -42 -94 5 0 52 51 105 114 57 69 123 136 166 168 39 29 93 72 121 96 65
56 83 62 184 62 83 0 112 -13 57 -26 -47 -10 -305 -134 -353 -169 -55 -41
-166 -152 -158 -160 3 -3 31 19 63 49 31 30 70 59 86 65 36 12 38 -1 6 -32
-74 -70 -315 -285 -339 -304 -46 -34 -108 -93 -108 -103 0 -5 4 -11 8 -14 9
-5 178 128 252 198 25 23 74 65 110 93 36 28 76 63 90 78 43 47 181 150 265
198 103 59 303 137 369 144 41 4 62 0 104 -20 29 -14 61 -32 70 -41 9 -9 37
-32 62 -52 69 -55 82 -85 75 -170 l-6 -71 45 -71 c25 -39 46 -81 46 -94 0 -27
-35 -88 -50 -88 -5 0 -10 -6 -10 -14 0 -18 -64 -27 -120 -16 -25 5 -62 9 -83
10 -81 0 2 59 86 60 35 0 47 4 47 15 0 24 -103 20 -156 -6 -46 -22 -114 -90
-114 -113 0 -22 16 -28 30 -11 26 31 89 38 168 19 40 -10 77 -23 83 -30 5 -6
14 -38 20 -70 l11 -59 -43 -38 c-24 -21 -70 -54 -102 -73 -65 -38 -178 -125
-211 -163 -12 -13 -40 -42 -62 -65 -49 -48 -146 -170 -194 -241 -18 -27 -49
-68 -69 -91 -20 -22 -60 -74 -89 -115 -28 -41 -62 -88 -75 -106 -12 -17 -44
-60 -70 -95 -27 -35 -60 -83 -74 -108 -14 -25 -52 -87 -84 -138 -33 -51 -59
-95 -59 -98 0 -3 -36 -90 -80 -193 -44 -103 -80 -195 -80 -205 0 -9 -8 -31
-17 -49 -15 -30 -40 -105 -65 -202 -6 -22 -22 -76 -35 -120 -14 -44 -33 -111
-43 -150 -29 -111 -88 -314 -111 -380 -11 -33 -25 -87 -29 -120 -5 -33 -16
-94 -26 -135 -20 -91 -32 -152 -40 -205 -4 -22 -10 -44 -14 -50 -15 -22 -17
-122 -7 -435 7 -216 17 -323 42 -455 15 -75 24 -128 45 -265 5 -30 17 -100 26
-155 23 -137 23 -366 0 -465 -25 -113 -66 -250 -140 -470 -24 -71 -34 -119
-57 -255 -6 -39 -20 -75 -40 -103 l-30 -42 21 -58 c21 -55 21 -59 5 -117 -9
-33 -30 -89 -46 -125 -16 -36 -35 -94 -43 -129 -12 -57 -12 -67 1 -88 8 -13
16 -23 17 -24 2 -2 208 -19 336 -28 69 -5 148 -16 175 -24 83 -25 154 -37 290
-47 72 -6 154 -14 184 -20 30 -5 71 -10 91 -10 20 0 41 -5 48 -12 15 -15 123
-23 325 -22 147 0 166 -2 150 -14 -16 -12 -10 -13 47 -9 36 3 94 10 130 17 80
15 298 7 372 -14 29 -8 88 -17 130 -21 43 -4 78 -10 78 -15 0 -8 33 -13 165
-24 132 -12 182 -18 236 -32 64 -16 359 -20 374 -5 6 5 66 5 149 0 117 -8 148
-7 194 6 37 11 71 14 107 10 44 -6 191 -10 570 -15 35 -1 431 0 560 0 50 1
106 2 125 3 19 1 95 -2 167 -7 121 -7 133 -7 139 9 10 25 -13 35 -81 34 -33 0
-89 4 -125 10 -36 5 -153 15 -260 21 -107 6 -260 16 -340 22 -80 6 -165 13
-190 14 -159 12 -208 18 -230 29 -17 9 -31 10 -42 4 -15 -8 -514 -23 -715 -21
-34 0 -107 10 -162 21 -55 12 -123 21 -150 21 -28 0 -97 7 -154 16 -78 13
-179 17 -427 17 -318 0 -328 0 -455 -27 -71 -15 -140 -33 -153 -39 -29 -14
-50 4 -27 23 41 34 -7 69 -200 146 -77 30 -158 66 -180 79 -92 55 -127 70
-264 112 -79 24 -166 55 -194 69 -48 25 -147 108 -147 125 0 4 13 10 29 14 40
9 49 22 82 118 16 45 38 105 48 132 11 28 24 79 31 115 7 41 25 89 49 130 21
36 50 88 64 116 14 27 32 56 41 63 8 7 31 42 51 77 19 34 40 66 45 69 14 9 30
-39 41 -125 23 -189 49 -310 72 -338 15 -18 122 -72 143 -72 10 0 25 -7 35
-16 17 -16 17 -18 -12 -60 -54 -78 -70 -138 -53 -200 5 -20 14 -21 177 -28 95
-4 176 -11 181 -16 6 -6 21 -10 34 -10 13 0 78 -16 145 -36 192 -57 332 -90
477 -113 53 -9 67 -8 79 4 12 12 11 19 -14 55 -16 22 -56 60 -89 83 -46 32
-81 70 -141 154 -75 104 -84 113 -142 138 -67 29 -76 41 -67 90 11 60 -14 144
-73 242 -64 107 -77 151 -63 222 5 28 7 57 4 65 -3 8 2 50 11 94 22 110 10
181 -46 274 -39 64 -141 170 -199 206 -14 9 -36 25 -50 37 -14 12 -45 33 -70
47 -25 15 -58 40 -74 57 -31 33 -32 39 -5 181 6 30 13 129 16 220 2 91 8 171
13 179 11 21 79 41 141 41 31 0 59 3 63 7 9 9 111 31 147 32 14 1 60 19 101
41 41 21 96 44 122 50 26 6 73 28 104 50 81 57 204 110 225 99 15 -9 12 -16
-21 -67 -29 -43 -42 -78 -55 -143 -19 -96 -22 -279 -7 -347 14 -61 14 -237 0
-297 -23 -100 -33 -203 -32 -339 0 -76 5 -143 10 -148 11 -11 193 31 274 63
57 22 60 20 76 -81 11 -64 2 -244 -13 -282 -10 -26 13 -85 42 -108 31 -24 84
-26 143 -5 23 8 51 15 61 15 10 0 55 22 101 48 46 26 97 53 113 59 105 41 286
65 390 53 73 -9 257 20 316 50 21 11 44 20 52 20 19 0 147 98 147 113 0 2 26
30 58 63 39 40 72 64 99 72 43 13 67 34 77 69 9 29 -8 37 -43 19 -38 -20 -234
-44 -286 -35 -79 14 -298 10 -385 -8 -47 -9 -97 -13 -112 -10 -66 17 -200 132
-197 171 0 6 28 25 62 42 88 44 79 72 -15 49 -25 -7 -28 -4 -39 36 -17 60 -12
479 5 508 3 4 5 63 7 131 1 69 8 157 16 195 22 107 34 203 33 275 -1 140 -12
231 -31 276 -11 24 -22 53 -24 62 -9 50 -49 149 -71 177 -23 31 -113 73 -132
61 -4 -2 -43 3 -87 12 -102 20 -266 19 -375 -1 -183 -35 -283 -47 -474 -57
-194 -11 -226 -10 -226 8 0 14 98 84 185 132 54 30 105 70 157 122 66 67 87
97 139 201 33 67 69 131 79 142 26 30 160 235 160 246 0 5 6 9 14 9 8 0 28 16
46 37 27 31 31 41 26 72 -10 67 1 68 116 13 58 -28 134 -59 169 -70 35 -11
109 -41 164 -65 123 -55 269 -107 299 -107 13 0 38 -7 56 -17 19 -9 68 -20
109 -25 104 -11 162 -21 256 -46 44 -12 132 -31 195 -42 122 -21 228 -47 245
-59 6 -5 33 -14 60 -20 28 -7 82 -30 120 -52 97 -55 102 -59 230 -150 81 -58
162 -94 245 -108 62 -11 239 -7 335 8 68 10 84 16 108 43 21 22 27 36 22 52
-4 11 -8 37 -9 56 -1 29 -5 35 -26 38 -15 2 -32 14 -42 32 -12 22 -30 33 -71
45 -44 13 -56 21 -68 48 -12 28 -20 33 -60 38 -26 4 -69 17 -95 29 -37 17 -73
23 -149 26 l-100 4 -73 76 c-40 42 -70 80 -65 84 4 4 40 12 78 18 89 14 223
57 255 82 24 18 24 21 10 47 -22 40 -77 51 -265 53 -88 1 -198 5 -244 8 -82 7
-85 8 -92 35 -11 41 -25 54 -67 62 -20 4 -50 15 -67 25 -80 48 -315 120 -489
149 -38 7 -92 21 -120 32 -28 10 -60 19 -71 19 -11 1 -31 7 -45 14 l-25 14 40
6 c22 4 83 15 135 26 52 10 122 22 155 25 90 9 205 33 350 71 72 19 184 47
250 63 66 15 155 42 198 60 97 38 108 39 74 3 -15 -15 -27 -32 -27 -36 0 -13
72 35 125 83 28 25 85 70 127 100 42 30 86 67 98 83 22 30 50 38 50 13 0 -24
14 -18 59 25 75 72 99 45 52 -56 -33 -71 -120 -198 -155 -227 -11 -9 -49 -34
-84 -54 -52 -31 -65 -44 -74 -76 -6 -21 -20 -43 -30 -48 -22 -12 -58 -3 -58
14 0 15 68 130 82 138 6 4 9 12 7 18 -3 9 -62 -55 -102 -112 -12 -17 -14 -17
-60 2 -47 20 -50 25 -48 71 l2 25 -26 -28 c-29 -32 -31 -51 -9 -69 8 -7 23
-21 32 -31 9 -11 40 -34 69 -52 49 -32 54 -33 110 -25 32 5 73 14 91 20 31 12
32 13 17 30 -16 17 -15 19 3 29 11 6 56 53 100 104 93 110 261 277 277 277 6
0 22 11 35 24 12 14 36 28 51 31 16 4 42 17 57 30 16 13 53 35 84 48 38 17 58
33 63 49 4 12 20 37 35 53 15 17 32 39 38 50 19 38 32 138 22 179 l-9 39 282
281 c155 154 320 322 367 372 47 49 130 128 185 173 171 143 319 293 349 355
21 42 76 105 232 262 112 114 204 211 204 215 0 12 167 179 179 179 16 0 129
98 135 117 3 10 18 26 33 35 99 60 179 123 358 283 50 44 111 97 138 119 52
42 56 58 32 126 -8 23 -15 57 -15 75 0 27 -32 75 -51 75 -2 0 -50 -28 -106
-63z m-93 -207 c0 -5 -5 -10 -11 -10 -5 0 -7 5 -4 10 3 6 8 10 11 10 2 0 4 -4
4 -10z m-30 -28 c0 -4 -18 -26 -40 -47 -27 -27 -38 -45 -34 -57 3 -10 1 -18
-5 -18 -6 0 -11 5 -11 10 0 6 -4 10 -9 10 -4 0 -6 -10 -4 -22 3 -18 -9 -33
-57 -71 -33 -26 -65 -45 -71 -42 -17 11 -39 -16 -39 -47 l0 -29 29 20 c35 25
41 26 41 6 0 -8 -6 -15 -12 -15 -28 0 -234 -186 -505 -455 -224 -222 -243
-243 -249 -283 -6 -38 -13 -47 -61 -79 -30 -19 -84 -70 -121 -111 -37 -42 -83
-92 -103 -111 -19 -20 -49 -54 -64 -76 -45 -62 -246 -265 -263 -265 -22 0 -52
-30 -52 -52 0 -14 -5 -18 -18 -14 -14 5 -53 -28 -157 -131 -76 -76 -154 -147
-172 -159 -38 -23 -213 -213 -213 -231 0 -6 -15 -28 -34 -47 -31 -34 -37 -36
-94 -36 -33 0 -64 4 -67 10 -10 17 14 49 70 91 32 24 55 49 55 60 0 15 98 130
177 207 12 13 23 31 23 42 0 22 192 217 405 411 294 267 816 805 872 898 11
20 41 50 65 67 46 32 260 209 369 306 43 37 75 58 92 58 18 0 28 8 36 29 15
34 89 111 108 111 7 0 13 4 13 9 0 11 71 60 88 60 6 1 12 -3 12 -7z m-6445
-1172 c-3 -5 -12 -10 -20 -10 -8 0 -17 5 -20 10 -4 6 5 10 20 10 15 0 24 -4
20 -10z m916 -900 c5 -125 9 -153 31 -203 14 -31 32 -65 40 -75 8 -9 24 -36
36 -60 68 -133 319 -373 492 -469 30 -17 72 -36 93 -43 20 -6 37 -15 37 -20 0
-13 -158 -150 -173 -150 -14 0 -74 76 -100 126 -8 16 -33 49 -54 74 -22 25
-68 88 -103 140 -146 218 -324 394 -508 502 -52 31 -90 34 -169 16 -74 -17
-68 -35 11 -34 52 1 69 -3 88 -20 13 -12 49 -38 81 -58 31 -20 57 -40 57 -44
0 -4 45 -47 100 -97 56 -49 125 -123 156 -163 30 -39 77 -96 104 -124 28 -29
50 -55 50 -59 0 -3 15 -22 33 -41 31 -34 110 -153 140 -213 22 -44 65 -79 132
-110 33 -15 67 -31 75 -36 119 -71 506 -205 739 -255 121 -26 134 -31 143 -54
6 -17 6 -37 -2 -63 -6 -20 -8 -52 -5 -70 5 -30 -36 -274 -51 -298 -16 -26
-264 18 -463 82 -69 22 -140 45 -157 50 -18 5 -40 19 -50 30 -9 11 -43 26 -73
35 -95 26 -194 64 -231 88 -20 13 -99 43 -175 66 -162 49 -206 69 -229 104
-23 35 -62 59 -95 58 -53 -1 -181 118 -420 391 -66 76 -97 105 -105 97 -15
-15 18 -71 87 -147 31 -35 57 -67 57 -71 0 -5 38 -48 85 -98 46 -49 91 -96 98
-104 74 -80 228 -186 341 -234 36 -16 66 -33 66 -40 0 -6 -11 -31 -25 -56 -14
-25 -43 -81 -65 -125 -23 -48 -65 -109 -105 -153 -36 -40 -65 -79 -65 -87 0
-8 -8 -19 -17 -24 -10 -5 -26 -31 -35 -58 -9 -26 -25 -57 -35 -68 -10 -11 -40
-49 -67 -85 -27 -36 -62 -79 -79 -96 l-29 -32 -51 13 c-130 33 -302 71 -367
80 -46 7 -195 54 -264 83 -215 93 -368 190 -475 300 -48 50 -162 217 -163 240
-1 9 17 62 39 117 22 55 44 111 48 125 13 43 193 336 275 446 16 23 30 45 30
51 0 5 15 27 33 49 19 21 50 64 70 94 19 30 48 67 64 83 15 15 41 49 58 76
110 179 343 444 515 586 25 21 51 46 58 56 7 10 32 24 55 30 23 7 47 16 52 20
15 10 122 49 180 64 28 8 73 13 100 12 l50 -2 6 -145z m3096 -226 c-54 -51
-68 -41 -17 11 25 25 46 41 48 35 2 -6 -12 -27 -31 -46z m45 -86 c69 -9 85
-14 80 -26 -4 -12 1 -14 24 -8 55 13 59 12 63 -14 1 -14 -2 -48 -8 -76 -19
-84 -89 -131 -150 -100 -15 8 -64 20 -107 25 -162 21 -322 74 -311 104 6 19
53 12 177 -26 102 -30 284 -57 265 -39 -3 3 -52 14 -108 23 -103 17 -306 78
-307 92 0 10 68 9 105 -2 54 -15 191 -24 179 -12 -6 7 -39 16 -75 22 -90 14
-169 38 -169 51 0 13 203 5 342 -14z m-281 -182 c19 -7 88 -23 154 -36 146
-27 167 -35 163 -58 -4 -23 -45 -26 -148 -8 -187 32 -314 74 -303 102 7 18 89
19 134 0z m-191 -41 c10 -12 10 -18 0 -30 -11 -14 -10 -41 4 -90 4 -15 -9 -36
-49 -80 l-54 -59 -38 30 c-46 37 -81 102 -89 166 l-6 46 53 11 c119 23 163 25
179 6z m-257 -99 c18 -73 56 -137 92 -156 14 -7 25 -17 25 -21 0 -28 -154
-124 -273 -170 -135 -52 -591 -165 -762 -189 -33 -4 -114 -18 -180 -31 -66
-12 -136 -23 -156 -24 -20 -1 -41 -5 -47 -9 -34 -21 -239 34 -372 99 -25 12
-56 25 -70 29 -14 3 -36 14 -49 24 -21 17 -22 21 -10 41 14 23 67 62 152 113
49 29 76 35 92 19 9 -8 67 -20 356 -71 174 -31 263 -38 350 -25 137 20 204 64
269 174 21 36 42 78 45 93 4 15 14 29 23 33 9 3 91 22 184 41 92 19 198 48
235 64 37 15 71 29 74 29 3 1 13 -28 22 -63z m385 48 c20 -9 53 -20 72 -25
134 -31 175 -45 178 -61 6 -29 -78 -23 -191 14 -96 32 -143 60 -132 79 9 13
31 11 73 -7z m-1083 -914 c43 -22 87 -40 97 -40 24 0 141 -49 149 -62 13 -20
20 -194 11 -263 -11 -79 -41 -151 -62 -148 -8 1 -44 8 -80 16 -36 9 -112 24
-169 34 -57 10 -110 23 -118 28 -12 9 -11 27 8 120 12 61 21 128 21 150 0 22
6 62 14 89 9 31 10 54 5 65 -10 17 12 51 34 51 6 0 47 -18 90 -40z m-1440
-160 c3 -5 1 -10 -4 -10 -6 0 -11 5 -11 10 0 6 2 10 4 10 3 0 8 -4 11 -10z
m2005 -6 c107 0 210 -4 228 -8 33 -8 41 -26 20 -44 -25 -20 -194 -64 -261 -67
-38 -2 -70 -5 -73 -7 -13 -13 158 -225 220 -272 28 -22 94 -77 146 -124 52
-46 118 -101 147 -121 64 -44 69 -65 16 -57 -21 3 -62 8 -92 12 -30 3 -79 15
-110 25 -30 11 -62 19 -73 19 -10 0 -35 15 -55 34 -61 54 -231 155 -298 176
-22 7 -59 21 -82 31 l-42 18 15 37 c23 56 45 190 44 274 -1 41 -1 79 -1 84 1
4 13 5 29 0 15 -4 115 -9 222 -10z m-3890 -193 c30 -58 57 -92 103 -132 97
-85 151 -127 177 -138 14 -6 32 -15 40 -19 47 -27 63 -32 79 -27 13 4 20 0 24
-14 5 -19 99 -61 138 -61 11 0 30 -6 42 -14 12 -8 40 -17 62 -20 22 -4 90 -19
150 -32 212 -49 271 -62 337 -74 97 -17 99 -27 19 -82 -37 -26 -98 -74 -135
-108 -43 -39 -73 -59 -84 -56 -9 3 -66 19 -125 36 -59 18 -115 29 -125 25 -9
-4 -35 -9 -57 -11 -22 -3 -74 -14 -115 -24 -41 -10 -86 -20 -100 -22 -14 -2
-25 -9 -25 -18 0 -12 12 -14 65 -11 36 2 72 7 81 12 33 17 145 13 248 -10 56
-13 112 -20 124 -17 11 3 27 1 36 -3 9 -5 87 -5 174 0 87 5 223 10 302 13 79
3 178 12 222 20 234 47 325 55 406 37 23 -5 76 -15 117 -21 121 -20 136 -29
171 -106 66 -145 77 -225 65 -479 -14 -295 -18 -375 -22 -430 -2 -33 -6 -103
-9 -155 -2 -52 -9 -126 -14 -165 -15 -98 -13 -154 5 -224 8 -34 16 -80 17
-102 2 -39 1 -41 -53 -69 -30 -16 -60 -33 -66 -39 -20 -17 -85 -41 -110 -41
-48 0 -178 -43 -306 -102 -199 -90 -208 -93 -232 -68 -17 17 -21 35 -23 103
-1 45 4 111 12 147 34 163 43 280 32 425 -21 273 -8 485 33 548 11 18 26 44
32 60 12 26 55 47 100 47 27 0 48 11 48 26 0 18 -76 9 -144 -18 -27 -10 -71
-24 -98 -29 -28 -6 -110 -42 -184 -80 -158 -80 -287 -124 -410 -139 -49 -6
-138 -18 -199 -27 -116 -17 -324 -20 -353 -4 -9 5 -39 12 -67 16 -56 8 -104
21 -154 42 -23 9 -37 11 -44 4 -18 -18 22 -62 79 -87 31 -13 68 -34 83 -45 29
-21 144 -43 212 -40 30 1 38 -3 43 -21 12 -48 6 -323 -10 -408 -9 -47 -19
-114 -24 -150 -16 -128 -31 -206 -49 -250 -10 -25 -23 -58 -29 -75 -51 -146
-155 -353 -260 -515 -88 -137 -177 -322 -212 -445 -5 -16 -21 -66 -37 -110
l-29 -80 -70 -1 c-38 -1 -127 -5 -199 -11 -94 -7 -146 -6 -186 2 -73 15 -82
21 -69 45 6 10 21 68 35 127 24 100 82 271 125 369 43 97 116 410 99 428 -5 5
2 19 16 32 24 22 25 26 19 131 -3 59 -10 131 -15 158 -5 28 -16 93 -25 145 -8
52 -21 118 -28 145 -8 28 -19 79 -24 115 -6 36 -18 108 -27 160 -9 52 -15 149
-15 215 1 150 1 213 -2 445 -1 124 2 205 11 245 8 33 17 85 22 115 13 91 43
226 82 370 8 30 17 75 21 99 4 24 13 56 21 72 8 15 15 42 15 59 0 17 13 56 29
88 16 31 41 107 56 167 24 95 37 140 60 203 11 30 37 7 75 -67z m4242 -192
c11 -6 41 -14 67 -18 31 -4 47 -11 49 -23 5 -25 -49 -32 -144 -19 -78 11 -104
26 -104 58 0 16 102 18 132 2z m248 -119 c22 -34 3 -41 -119 -41 -99 0 -130
12 -118 45 11 28 219 25 237 -4z m-1 -59 c11 -7 8 -12 -12 -25 -51 -34 -147
-28 -147 8 0 11 15 16 53 19 28 2 61 4 72 5 11 1 26 -2 34 -7z m85 -67 c24 -9
19 -33 -10 -44 -37 -14 -81 -12 -114 5 -32 16 -38 30 -17 38 18 8 123 8 141 1z
m-3803 -2046 c38 -29 69 -56 69 -60 0 -4 12 -14 28 -22 52 -27 171 -155 202
-217 l30 -61 -3 -231 -2 -232 41 -85 c30 -61 47 -113 59 -183 22 -125 20 -131
-48 -122 -185 25 -526 125 -561 164 -28 33 -37 93 -48 338 -11 227 -10 256 4
281 25 43 85 220 103 302 31 145 41 180 52 180 3 0 37 -24 74 -52z m1574 -80
c15 -7 34 -26 42 -42 28 -54 94 -125 127 -135 44 -15 205 -16 240 -2 16 6 43
9 60 6 17 -3 96 -8 176 -11 249 -10 272 -12 282 -22 32 -32 -126 -136 -292
-192 -49 -16 -107 -24 -240 -31 -225 -13 -344 -41 -490 -115 -108 -54 -191
-81 -270 -86 l-45 -3 -3 60 c-2 33 2 96 8 140 16 102 17 190 3 238 -10 33 -9
39 8 47 27 15 118 32 162 31 41 -1 86 25 162 93 22 19 41 35 42 36 1 0 14 -5
28 -12z m-1400 -1159 c50 -6 128 -12 175 -14 160 -5 229 -43 287 -155 19 -36
45 -82 59 -104 17 -25 22 -42 16 -48 -13 -13 -108 7 -197 42 -94 37 -247 68
-429 86 -83 8 -157 17 -165 19 -28 11 7 114 58 168 23 25 31 28 66 23 22 -3
81 -11 130 -17z m-1084 -245 c15 -8 72 -58 126 -112 84 -84 108 -102 167 -125
37 -15 102 -34 143 -42 93 -18 161 -48 238 -107 33 -25 75 -53 93 -62 63 -33
41 -40 -105 -32 -156 7 -419 43 -673 90 -77 14 -322 36 -411 36 -21 0 -47 8
-59 18 -22 18 -23 21 -11 68 7 27 22 65 35 84 12 19 33 68 46 108 16 53 29 76
44 82 12 4 93 8 181 8 118 0 166 -3 186 -14z"/>
<path d="M9735 8400 c-10 -11 -13 -20 -8 -20 13 0 38 29 31 35 -3 3 -13 -4
-23 -15z"/>
<path d="M5542 8185 c-29 -8 -66 -22 -82 -30 -17 -9 -56 -15 -97 -15 -37 0
-108 -5 -157 -10 -93 -10 -124 -22 -278 -107 -43 -24 -84 -43 -91 -43 -25 0
-91 -60 -127 -115 -19 -29 -60 -84 -91 -122 -78 -94 -158 -251 -163 -318 -3
-48 31 -181 44 -174 12 6 50 -24 50 -39 0 -10 21 -33 48 -52 44 -32 53 -34
142 -38 94 -4 135 3 315 52 114 31 279 106 355 161 25 18 68 44 96 58 27 14
56 33 63 41 8 9 21 16 30 16 10 0 33 16 52 36 18 20 47 43 64 51 16 9 35 21
42 27 7 6 37 29 65 51 28 22 98 86 155 143 l103 102 71 -12 c65 -10 73 -14 91
-45 13 -22 28 -33 43 -33 65 0 178 -82 298 -215 87 -97 106 -133 114 -221 8
-85 -14 -226 -41 -267 -24 -36 -119 -97 -151 -97 -40 0 -77 42 -86 99 -9 61
-12 66 -34 57 -13 -5 -15 -15 -9 -53 11 -77 40 -121 95 -141 24 -10 26 -15 32
-99 4 -48 14 -113 22 -143 30 -110 18 -151 -74 -258 -50 -58 -59 -73 -46 -78
11 -4 29 6 53 28 20 19 46 38 56 42 10 3 16 9 13 12 -3 4 9 36 27 73 41 81 52
147 27 160 -32 18 -53 168 -31 225 5 14 27 34 51 46 45 23 46 23 51 -4 2 -14
-5 -21 -26 -27 -66 -18 -85 -73 -45 -138 11 -18 18 -40 15 -47 -9 -24 15 -26
40 -3 31 29 30 54 -3 83 -24 21 -26 26 -13 41 9 11 24 15 43 12 l30 -4 -6 88
c-6 84 -5 90 26 156 31 65 32 73 32 195 0 125 0 127 -31 171 -17 24 -37 60
-43 80 -27 81 -94 142 -231 208 -36 17 -72 40 -80 51 -9 10 -54 40 -100 66
-74 41 -85 51 -85 75 -1 17 -10 34 -24 45 -33 24 -109 69 -148 86 -18 8 -48
26 -65 40 -37 27 -110 56 -146 56 -13 0 -31 4 -40 9 -34 18 -155 21 -210 6z
m313 -111 c28 -18 59 -34 70 -34 11 0 40 -18 65 -40 53 -46 48 -64 -15 -50
-66 16 -202 12 -236 -6 -17 -8 -49 -18 -71 -22 -23 -4 -43 -13 -45 -19 -7 -20
43 -26 97 -13 68 16 259 17 288 2 17 -10 20 -17 13 -30 -12 -23 -126 -134
-173 -169 -20 -16 -90 -69 -155 -118 -65 -50 -153 -111 -196 -135 -43 -25
-103 -60 -135 -79 -89 -52 -337 -150 -437 -172 -64 -15 -111 -19 -162 -16 -64
5 -79 10 -133 47 -59 40 -117 110 -106 128 3 5 12 44 21 88 37 177 125 374
167 374 5 0 34 26 63 59 56 60 82 75 148 86 27 4 37 11 37 24 0 10 9 26 19 35
27 25 231 63 381 71 69 4 129 10 134 13 14 8 102 3 156 -9 41 -9 46 -8 59 11
13 19 21 21 55 15 23 -3 64 -22 91 -41z"/>
<path d="M11070 7670 c-36 -10 -108 -30 -160 -44 -52 -14 -106 -29 -119 -32
-21 -6 -22 -5 -12 14 6 12 23 25 36 28 13 3 29 12 36 20 21 26 -20 28 -75 4
-28 -12 -69 -29 -91 -37 -54 -19 -86 -58 -74 -90 5 -13 9 -26 9 -28 0 -2 -37
-22 -82 -44 -103 -50 -140 -73 -146 -89 -9 -28 54 -7 125 40 35 24 49 27 83
22 26 -4 45 -2 56 6 15 13 63 23 194 39 128 16 345 0 372 -27 7 -7 19 -12 27
-12 33 0 182 -81 235 -128 19 -17 51 -38 71 -48 27 -13 48 -37 90 -109 l55
-93 77 -4 c43 -2 89 1 103 6 22 8 19 10 -35 22 -33 7 -74 13 -92 14 -17 0 -34
4 -37 9 -15 24 104 30 124 6 17 -20 42 -19 38 2 -5 25 -63 53 -126 61 -33 4
-57 13 -60 21 -4 11 11 13 74 10 l79 -4 1 45 c1 40 -4 50 -38 86 -31 32 -47
41 -69 40 -22 -2 -29 2 -29 15 0 10 6 19 13 22 9 4 9 7 0 18 -10 10 -30 10
-109 0 -54 -7 -103 -15 -111 -18 -7 -3 -13 1 -13 10 0 20 52 37 115 37 57 0
86 18 62 38 -17 15 -103 7 -204 -19 -103 -26 -124 -20 -55 15 36 18 77 29 123
33 38 3 77 12 87 19 16 12 16 13 -2 20 -34 13 -204 -22 -245 -51 -38 -26 -61
-32 -61 -16 0 10 48 51 60 51 4 0 33 11 63 26 39 17 54 29 50 40 -8 21 -41 17
-111 -11 -75 -30 -78 -31 -85 -4 -5 17 -11 20 -34 16 -60 -12 -180 -46 -215
-61 -42 -18 -65 -3 -24 16 14 6 26 14 26 18 0 3 27 19 60 35 38 19 59 36 60
48 0 21 -6 20 -90 -3z m640 -334 c0 -3 -4 -8 -10 -11 -5 -3 -10 -1 -10 4 0 6
5 11 10 11 6 0 10 -2 10 -4z m87 -72 c2 -7 -6 -10 -22 -6 -35 6 -44 24 -9 20
15 -2 29 -8 31 -14z"/>
<path d="M2925 7340 c-3 -5 -2 -10 4 -10 5 0 13 5 16 10 3 6 2 10 -4 10 -5 0
-13 -4 -16 -10z"/>
<path d="M10328 7317 c-7 -7 -25 -21 -40 -31 -16 -10 -28 -24 -28 -31 0 -6 -9
-23 -21 -36 -11 -13 -27 -36 -35 -51 -8 -16 -19 -28 -24 -28 -5 0 -10 -15 -12
-32 -4 -41 -24 -40 -84 2 -22 16 -53 32 -67 35 -23 6 -27 4 -27 -14 0 -22 4
-25 51 -35 15 -3 37 -15 50 -26 l24 -20 -21 -17 c-12 -10 -30 -34 -39 -53 -10
-19 -38 -57 -61 -84 -24 -26 -44 -54 -44 -61 0 -7 -15 -31 -32 -53 -18 -21
-44 -58 -58 -82 -14 -23 -32 -50 -42 -60 -24 -27 -148 -216 -148 -227 0 -6
-13 -28 -29 -51 -57 -77 -90 -148 -120 -257 -17 -60 -47 -153 -67 -205 -40
-107 -62 -196 -63 -255 -1 -52 37 -332 55 -414 9 -36 26 -88 39 -116 18 -41
21 -59 15 -91 -4 -21 -19 -93 -33 -159 -33 -155 -37 -191 -43 -430 -2 -110 -7
-290 -10 -400 -4 -169 -8 -209 -26 -260 -29 -84 -30 -165 0 -202 12 -15 33
-44 46 -63 30 -45 88 -89 140 -108 73 -25 248 -32 418 -17 86 8 90 6 103 -72
4 -24 14 -48 23 -53 14 -8 14 -10 2 -9 -59 6 -53 -28 18 -93 39 -35 99 -113
179 -233 123 -183 179 -243 244 -258 14 -4 47 -26 74 -49 88 -78 222 -147 305
-157 30 -4 66 -13 78 -20 13 -7 66 -15 118 -18 55 -4 98 -11 104 -18 7 -8 5
-26 -6 -56 -29 -77 -24 -517 8 -709 41 -250 37 -214 54 -480 3 -52 12 -120 20
-151 23 -94 19 -141 -21 -217 -20 -36 -42 -73 -49 -82 -8 -8 -22 -34 -31 -58
-19 -47 -10 -72 26 -72 29 0 44 -37 25 -64 -23 -36 -162 -144 -226 -176 -85
-43 -245 -93 -335 -106 -27 -3 -65 -13 -84 -20 -18 -8 -44 -14 -58 -14 -48 0
-133 -78 -133 -122 0 -21 18 -27 52 -16 16 6 55 6 100 0 40 -6 132 -7 203 -3
l130 6 0 43 c0 48 16 64 55 55 38 -9 40 -12 40 -46 0 -65 0 -65 370 -91 113
-8 215 -18 226 -21 12 -4 48 0 80 8 33 8 96 18 142 22 53 5 82 12 82 20 0 6
11 22 24 34 19 18 31 21 58 16 27 -5 37 -3 41 9 5 14 -3 16 -56 16 -37 0 -71
6 -82 13 -17 13 -17 15 5 45 13 18 41 44 62 58 67 47 185 185 197 232 7 24 8
49 4 57 -5 8 -35 36 -67 62 -32 27 -68 65 -80 85 l-21 36 24 54 c13 29 25 64
27 78 7 54 45 142 75 176 11 11 27 59 38 105 10 47 23 95 30 106 6 12 11 30
11 41 0 11 6 25 14 31 15 13 76 195 105 316 22 89 34 129 89 295 43 126 53
163 82 290 25 111 39 168 52 205 5 17 16 50 23 75 8 25 21 64 29 88 9 24 21
73 26 110 5 38 18 88 29 113 33 74 42 290 28 674 -4 116 -10 296 -12 400 -4
148 -9 204 -24 255 -11 36 -30 119 -42 185 -12 66 -41 179 -64 250 -45 137
-75 256 -75 292 0 12 -9 60 -20 106 -15 62 -22 133 -25 267 -3 99 -9 190 -15
200 -5 10 -10 31 -10 47 1 72 -64 410 -86 455 -8 15 -14 42 -14 61 0 32 -19
66 -67 118 -12 13 -45 52 -72 85 -53 65 -66 72 -206 118 -149 49 -200 65 -232
71 -36 7 -40 21 -22 73 22 64 4 69 -30 7 -33 -60 -50 -100 -114 -275 -48 -132
-126 -516 -112 -553 12 -30 -70 -199 -115 -237 -3 -3 -37 -46 -74 -96 -69 -94
-153 -170 -254 -232 -121 -73 -233 -132 -251 -132 -11 0 -29 -12 -40 -26 -12
-15 -21 -21 -21 -14 0 15 -69 7 -133 -16 -23 -8 -71 -15 -107 -15 -36 -1 -105
-10 -155 -21 -153 -34 -202 -38 -324 -27 -64 6 -120 15 -126 20 -5 5 -24 9
-41 9 -28 0 -42 11 -106 84 -59 67 -78 98 -99 157 -14 41 -29 82 -34 92 -5 13
-2 17 13 17 35 0 45 24 24 59 -10 17 -22 28 -25 25 -15 -15 -57 29 -75 78 -54
146 -53 273 3 467 19 69 35 134 35 145 0 12 21 64 46 116 26 52 53 113 60 135
8 21 21 46 28 55 7 8 31 49 52 90 21 41 57 102 79 134 42 62 71 109 104 167
11 19 46 71 79 116 33 44 65 90 71 101 7 14 21 22 36 22 22 0 25 -4 25 -35 0
-48 21 -54 70 -20 54 38 100 46 204 35 96 -10 116 -4 116 32 0 51 -47 97 -143
140 -32 15 -39 15 -43 3 -8 -21 2 -32 34 -38 41 -8 94 -55 90 -80 -3 -17 -11
-21 -58 -23 -93 -5 -127 4 -165 44 -29 31 -35 44 -35 84 0 25 3 53 6 62 12 30
245 79 260 55 3 -5 24 -13 47 -20 50 -13 71 -30 109 -88 64 -101 9 -280 -143
-463 -97 -117 -130 -210 -91 -258 16 -19 28 -22 97 -24 52 0 106 6 153 19 l74
19 18 -23 c10 -15 23 -22 33 -18 26 10 69 74 65 99 -5 35 -34 34 -53 -1 l-16
-31 -83 6 c-66 5 -93 3 -125 -10 -23 -9 -59 -16 -81 -16 l-40 0 0 41 c0 22 5
50 11 62 10 19 91 131 179 247 60 79 97 253 71 333 -8 23 -34 56 -72 90 -58
51 -65 54 -152 70 -69 13 -102 15 -132 7 -22 -5 -43 -10 -47 -10 -20 0 -3 30
42 78 27 29 45 52 40 52 -4 0 -15 -6 -22 -13z m1551 -1048 c83 -35 118 -56
167 -102 60 -56 76 -80 121 -192 55 -135 100 -390 102 -574 l1 -85 28 27 c16
15 31 24 35 20 4 -3 7 -65 7 -137 0 -72 5 -158 10 -191 18 -120 49 -281 64
-340 16 -62 29 -134 47 -265 6 -41 26 -121 45 -177 41 -123 42 -165 7 -234
-38 -77 -272 -379 -293 -379 -4 0 -43 -32 -86 -71 -44 -39 -106 -84 -139 -100
-33 -16 -82 -45 -110 -64 -27 -19 -66 -37 -85 -40 -19 -3 -48 -10 -65 -16 -16
-6 -84 -31 -150 -56 -133 -49 -321 -99 -435 -114 -206 -27 -635 -15 -725 21
-16 7 -63 18 -102 25 -102 18 -137 43 -163 112 -11 31 -19 61 -17 67 3 7 40
22 83 35 44 13 99 30 123 37 25 8 52 14 61 14 10 0 34 13 54 29 41 32 121 50
153 32 11 -5 41 -33 69 -61 27 -28 60 -53 74 -57 14 -3 68 -28 120 -54 125
-64 168 -72 279 -49 47 10 93 21 101 24 8 3 28 10 43 16 16 5 26 14 22 19 -3
6 -19 4 -40 -5 -49 -20 -146 -17 -227 7 -38 11 -78 17 -89 14 -45 -15 -222
130 -233 190 -4 17 -17 42 -30 54 -19 18 -30 21 -64 15 -32 -5 -56 -1 -107 20
-75 30 -146 34 -166 10 -11 -13 -26 -15 -93 -9 -49 4 -87 13 -96 21 -13 13 -8
21 42 65 31 27 67 66 80 87 12 20 30 45 39 55 23 25 48 93 39 107 -4 6 -27 17
-51 24 -24 7 -45 20 -47 28 -1 8 17 27 40 42 39 25 49 28 105 23 37 -3 78 -13
100 -26 130 -73 208 -103 311 -120 59 -10 120 -18 135 -18 16 -1 37 -9 49 -19
33 -30 17 -124 -36 -214 -28 -47 -56 -111 -56 -125 0 -26 27 -16 63 24 26 28
38 53 43 87 4 26 15 61 24 78 10 17 32 75 49 130 18 54 38 110 45 125 25 47
116 299 116 319 0 10 13 44 30 75 30 56 61 150 104 317 13 47 28 94 34 105 6
11 21 52 33 90 12 39 36 99 54 135 18 36 37 83 43 105 29 111 36 133 49 175 8
25 19 65 24 90 17 82 90 242 141 309 10 13 18 31 18 41 0 9 13 37 30 61 29 43
40 76 21 64 -15 -8 -124 -172 -163 -245 -50 -91 -103 -229 -129 -335 -11 -49
-25 -99 -29 -110 -5 -11 -14 -38 -21 -60 -6 -22 -22 -60 -34 -85 -12 -25 -37
-90 -54 -145 -18 -55 -37 -113 -43 -130 -5 -16 -19 -57 -30 -90 -24 -71 -56
-158 -74 -200 -7 -16 -42 -122 -79 -234 -59 -180 -108 -311 -117 -311 -2 0
-27 9 -56 20 -29 11 -76 20 -108 20 -98 0 -196 20 -239 48 -106 70 -211 122
-246 122 -15 0 -46 -7 -69 -15 -23 -8 -61 -15 -83 -15 -29 0 -68 -15 -148 -57
-59 -32 -111 -55 -114 -51 -7 6 5 89 31 228 18 96 18 90 10 225 -4 81 -2 108
12 142 15 36 22 43 54 48 21 4 40 11 44 16 3 5 9 7 13 5 4 -3 34 -1 67 5 32 5
105 13 161 18 77 7 119 17 175 41 40 18 111 45 158 62 47 17 90 34 95 38 6 4
28 13 50 20 22 7 56 22 75 34 19 11 38 21 42 21 3 0 17 10 30 23 46 44 114 98
142 112 30 15 86 83 152 185 21 33 46 65 55 72 8 6 36 42 61 80 35 52 53 95
78 183 17 63 40 142 50 175 26 84 38 154 44 271 3 55 13 123 21 150 8 27 15
63 15 80 0 49 15 55 73 29 29 -12 99 -42 156 -66z m-2240 -1408 c32 -33 73
-67 90 -76 34 -17 51 -49 51 -93 0 -15 5 -44 11 -66 l11 -39 21 22 c18 17 21
32 20 81 l-1 59 36 -15 c21 -8 49 -16 65 -16 l27 -1 -1 -86 c-1 -47 4 -121 11
-164 10 -60 10 -90 2 -130 -53 -245 -54 -257 -15 -299 13 -14 32 -18 96 -18
63 0 94 -6 146 -26 36 -15 69 -31 73 -37 3 -5 -1 -33 -9 -61 -20 -69 -69 -117
-159 -157 -99 -43 -98 -65 4 -89 28 -6 52 -17 52 -24 0 -7 -14 -25 -31 -42
-17 -16 -40 -46 -50 -67 -11 -21 -25 -40 -32 -42 -25 -9 -263 -33 -287 -28
-14 2 -35 4 -47 4 -31 -1 -172 66 -179 84 -4 8 -12 15 -18 15 -7 0 -29 18 -49
41 -35 38 -37 44 -37 109 0 38 5 72 10 75 6 4 22 0 35 -9 32 -21 41 -5 26 43
-9 27 -10 135 -2 456 6 231 15 452 19 490 12 89 32 165 44 165 5 0 35 -27 67
-59z m2934 -993 c19 -78 26 -210 23 -408 -6 -337 -16 -569 -27 -623 -5 -26 -9
-76 -9 -110 0 -41 -6 -75 -18 -98 -10 -20 -24 -76 -31 -125 -7 -49 -24 -113
-37 -142 -13 -29 -24 -61 -24 -72 0 -10 -5 -31 -11 -47 -6 -15 -17 -48 -24
-73 -29 -97 -124 -337 -151 -377 -9 -14 -14 -44 -13 -80 1 -34 -7 -92 -20
-138 -12 -44 -27 -98 -33 -120 -17 -67 -50 -157 -74 -206 -30 -61 -63 -156
-57 -163 3 -3 -2 -8 -11 -12 -9 -3 -16 -10 -16 -16 0 -14 -118 -218 -150 -258
-27 -36 -120 -213 -120 -231 0 -20 30 -8 49 20 30 41 107 59 135 31 18 -18 18
-22 5 -47 -8 -15 -32 -46 -55 -68 -22 -22 -46 -51 -54 -65 -32 -61 -106 -167
-134 -192 -53 -47 -69 -37 -55 36 6 35 5 68 -6 120 -21 100 -21 99 33 116 28
9 48 22 50 31 3 15 -8 17 -80 17 -62 0 -95 5 -128 20 -25 11 -67 23 -93 27
-68 10 -89 59 -47 112 11 14 20 40 20 57 1 59 28 171 58 242 30 70 62 180 62
211 0 9 -7 21 -17 28 -17 13 -10 35 12 35 16 0 22 24 31 121 6 65 4 81 -15
117 -11 23 -21 45 -21 49 0 5 18 35 40 68 22 33 40 70 40 83 0 12 9 55 20 95
11 39 27 106 35 147 19 93 86 217 130 240 17 8 32 16 34 17 2 2 -2 9 -8 17
-17 20 4 47 83 106 33 25 61 51 64 58 8 24 -25 11 -59 -24 -18 -19 -57 -51
-86 -70 -56 -37 -103 -87 -103 -110 0 -8 -8 -22 -17 -32 -25 -25 -83 -121 -83
-136 0 -7 -11 -45 -25 -84 -14 -39 -25 -78 -25 -87 0 -8 -18 -68 -39 -132 -22
-65 -45 -156 -51 -203 -6 -47 -17 -125 -25 -175 -7 -49 -17 -125 -20 -167 -6
-74 -15 -92 -31 -66 -4 6 -9 64 -10 127 -2 89 -8 139 -29 216 -22 82 -28 133
-35 288 -9 214 -6 351 9 420 6 26 15 66 19 90 5 23 19 59 31 80 l23 37 114 0
c101 0 122 3 196 30 56 21 100 30 141 30 62 0 175 25 192 42 7 7 -4 8 -35 3
-25 -4 -88 -8 -141 -10 -53 -1 -101 -5 -107 -9 -5 -3 -72 -4 -148 -1 -101 3
-153 9 -191 23 -43 15 -64 17 -125 10 -40 -5 -93 -6 -118 -2 -79 10 -214 45
-251 65 -20 10 -46 19 -58 19 -12 0 -29 4 -39 9 -9 6 -29 12 -44 15 -15 4 -47
23 -71 45 -25 21 -82 60 -127 87 -46 27 -96 66 -114 88 -56 70 -96 134 -96
154 0 11 -16 39 -35 63 -53 66 -49 73 38 65 39 -4 104 -11 142 -17 217 -31
365 -37 425 -18 19 7 89 15 155 20 226 16 350 40 435 85 25 13 74 33 110 44
36 11 77 28 91 37 15 10 51 35 80 55 30 20 81 44 113 53 33 8 76 26 95 39 20
13 59 37 86 52 117 67 241 175 303 264 45 65 130 160 143 160 4 0 9 -10 12
-22z m-2087 -233 c20 -8 34 -20 32 -27 -3 -7 -40 -26 -84 -42 -43 -15 -95 -34
-114 -42 -19 -7 -65 -16 -102 -19 -66 -6 -68 -6 -68 17 0 33 36 87 66 98 14 6
46 10 72 11 26 1 58 5 72 9 40 13 88 11 126 -5z m2134 -755 c0 -5 -4 -10 -10
-10 -5 0 -10 5 -10 10 0 6 5 10 10 10 6 0 10 -4 10 -10z m-1292 -482 c7 -7 12
-19 12 -26 0 -19 -52 -102 -64 -102 -12 0 2 97 17 121 14 22 19 23 35 7z m195
-1884 c26 -3 50 -10 52 -14 3 -4 -4 -43 -16 -86 -16 -63 -19 -95 -14 -160 5
-58 3 -84 -5 -89 -30 -19 -247 -10 -387 15 -160 29 -191 44 -158 80 10 11 24
20 31 20 6 0 22 11 35 25 13 13 28 25 32 25 18 0 96 62 167 132 l75 74 70 -7
c39 -4 91 -11 118 -15z m511 -27 c14 -56 -14 -116 -102 -214 -95 -106 -167
-146 -227 -123 -26 10 -26 10 67 105 61 62 103 114 121 152 16 32 32 65 36 73
9 17 71 50 86 46 6 -1 14 -19 19 -39z m-404 -221 c0 -66 -18 -122 -33 -107
-20 20 3 179 23 166 6 -4 10 -30 10 -59z"/>
<path d="M12212 5363 c-5 -10 -38 -101 -72 -203 -34 -102 -73 -205 -85 -230
-25 -52 -40 -102 -55 -182 -6 -32 -15 -60 -19 -63 -5 -2 -14 -33 -21 -67 -8
-35 -23 -79 -35 -98 -32 -53 -103 -222 -137 -324 -43 -130 -94 -236 -128 -265
-18 -16 -37 -49 -49 -86 -18 -55 -47 -128 -99 -246 -11 -26 -32 -66 -47 -89
-29 -46 -25 -70 6 -30 11 14 32 39 48 55 16 17 36 44 45 62 9 18 29 51 45 75
16 24 38 63 49 88 79 173 222 538 222 567 0 8 9 32 19 52 29 53 85 178 106
236 10 28 26 61 35 75 19 29 75 189 84 238 3 18 22 60 41 93 36 62 42 83 25
94 -16 10 -12 40 14 114 30 85 42 151 27 151 -6 0 -14 -8 -19 -17z"/>
<path d="M12101 5248 c-29 -68 -63 -148 -76 -178 -43 -103 -113 -325 -124
-395 -7 -38 -17 -85 -22 -103 -7 -21 -8 -37 -2 -43 6 -6 16 22 28 73 10 46 28
110 40 143 13 33 28 85 35 115 7 30 26 84 41 119 16 35 29 69 29 75 0 6 16 44
35 85 19 40 35 83 35 96 0 13 5 27 11 31 9 5 49 87 49 100 0 2 -6 4 -13 4 -7
0 -37 -55 -66 -122z"/>
<path d="M10985 4940 c-3 -5 -2 -10 4 -10 5 0 13 5 16 10 3 6 2 10 -4 10 -5 0
-13 -4 -16 -10z"/>
<path d="M10798 4749 c-57 -64 -88 -107 -87 -121 l0 -23 17 25 c9 13 52 66 95
117 42 51 77 95 77 98 0 16 -24 -7 -102 -96z"/>
<path d="M11370 3409 c0 -5 5 -7 10 -4 6 3 10 8 10 11 0 2 -4 4 -10 4 -5 0
-10 -5 -10 -11z"/>
<path d="M3307 7077 c-83 -59 -327 -278 -471 -424 -109 -109 -159 -152 -221
-187 -44 -25 -91 -46 -106 -46 -26 0 -57 -25 -46 -37 4 -3 32 -1 63 6 91 18
93 15 24 -54 -44 -45 -61 -68 -54 -75 11 -11 131 61 201 122 58 50 119 86 129
75 14 -14 -11 -47 -70 -95 -35 -29 -69 -52 -75 -52 -6 0 -11 -4 -11 -10 0 -5
2 -10 5 -10 17 0 166 92 205 128 27 23 51 42 54 42 17 0 1 -31 -39 -77 -47
-53 -55 -73 -31 -73 25 0 321 304 311 320 -10 16 -22 12 -60 -21 -20 -18 -38
-29 -41 -26 -16 16 15 50 94 102 124 83 192 134 192 145 0 20 -30 9 -97 -36
-170 -116 -215 -145 -219 -141 -3 3 -2 17 2 31 7 28 110 111 226 183 55 34 75
63 44 63 -7 0 -56 -28 -107 -62 -172 -115 -178 -118 -111 -48 20 21 51 56 67
78 17 22 72 73 123 113 85 67 111 99 79 99 -8 0 -35 -15 -60 -33z m-277 -437
c0 -5 -5 -10 -11 -10 -5 0 -7 5 -4 10 3 6 8 10 11 10 2 0 4 -4 4 -10z"/>
<path d="M5653 7075 c-63 -32 -91 -61 -75 -77 9 -9 17 -7 34 10 29 26 106 61
136 62 30 0 89 -30 140 -73 41 -34 44 -47 13 -47 -24 0 -141 -122 -141 -146 0
-13 17 -33 46 -53 45 -33 46 -33 127 -26 l82 6 0 31 c0 25 5 33 28 40 45 16
57 5 45 -36 -6 -20 -8 -39 -4 -43 14 -14 38 26 49 85 11 57 13 61 44 67 58 11
37 45 -28 45 -37 0 -156 53 -189 85 -14 12 -56 39 -93 59 -85 45 -140 48 -214
11z m348 -145 c27 -15 23 -32 -14 -55 -27 -17 -57 -59 -70 -99 -4 -11 -59 17
-77 39 -11 14 -8 21 21 51 31 33 92 72 112 74 5 0 17 -5 28 -10z"/>
<path d="M11712 7027 c-8 -10 -7 -26 3 -61 17 -56 12 -70 -21 -62 -32 8 -31
-9 3 -93 21 -51 26 -80 25 -131 -3 -80 7 -160 19 -160 5 0 6 14 3 30 -4 18 -2
30 4 30 5 0 17 20 25 45 12 35 14 63 7 136 -5 57 -5 99 1 110 13 25 11 61 -6
83 -38 50 0 48 69 -4 53 -40 96 -52 96 -26 0 17 -60 58 -134 90 -67 30 -79 31
-94 13z m184 -77 c8 0 14 -4 14 -10 0 -5 -4 -10 -8 -10 -12 0 -32 22 -31 35 0
5 3 4 6 -2 2 -7 11 -13 19 -13z"/>
<path d="M4597 7003 c-10 -9 -9 -23 2 -23 5 0 11 7 15 15 5 15 -5 20 -17 8z"/>
<path d="M11213 6989 c-23 -4 -74 -21 -113 -37 -67 -29 -72 -30 -121 -17 -49
13 -79 11 -79 -5 0 -15 26 -28 80 -39 51 -11 90 -34 90 -53 0 -15 -38 -8 -44
9 -11 28 -32 -4 -50 -78 -20 -81 -20 -94 0 -124 15 -23 23 -25 85 -25 47 0 89
-7 136 -25 37 -13 69 -22 71 -20 10 10 -13 23 -97 55 -50 19 -93 42 -96 50 -7
21 17 102 31 107 7 2 14 -6 17 -19 6 -21 7 -21 26 -4 55 50 154 -47 197 -193
3 -9 8 -11 14 -5 6 6 5 31 -3 69 -9 44 -20 67 -46 92 -19 18 -32 36 -28 39 10
10 65 -7 102 -32 44 -30 65 -31 39 -3 -55 62 -153 99 -260 99 -31 0 -51 7 -73
26 -17 14 -31 32 -31 39 0 26 49 45 129 50 88 6 125 -3 248 -61 81 -39 83 -39
83 -20 0 24 -108 115 -143 120 -74 11 -124 13 -164 5z"/>
<path d="M3891 6827 c-34 -17 -49 -43 -34 -58 15 -15 83 -15 111 0 21 11 30
45 15 54 -23 13 -71 15 -92 4z"/>
<path d="M3766 6744 c-3 -8 7 -28 22 -45 21 -24 39 -32 75 -36 38 -5 47 -3 47
10 0 8 -15 20 -32 26 -18 7 -49 23 -70 36 -30 20 -37 21 -42 9z"/>
<path d="M3282 6694 c-12 -8 -50 -52 -84 -97 -33 -45 -106 -129 -160 -187
-163 -173 -180 -192 -174 -197 3 -3 22 7 42 23 20 16 49 38 65 49 71 50 149
123 161 150 13 31 161 229 178 240 12 7 13 35 2 35 -4 0 -18 -7 -30 -16z"/>
<path d="M3710 6663 c0 -18 50 -53 75 -53 29 0 22 18 -16 43 -48 32 -59 33
-59 10z"/>
<path d="M11450 6664 c0 -8 5 -12 10 -9 6 4 8 11 5 16 -9 14 -15 11 -15 -7z"/>
<path d="M6086 6469 c-30 -36 -31 -38 -10 -67 19 -27 69 -30 112 -5 28 16 30
16 64 -5 42 -26 64 -28 72 -6 9 24 8 28 -14 52 -26 28 -77 29 -130 2 -22 -11
-46 -20 -54 -20 -25 0 -28 18 -6 37 11 10 20 23 20 30 0 23 -28 14 -54 -18z"/>
<path d="M10046 6395 c4 -8 11 -15 17 -15 6 0 28 -17 49 -37 32 -32 38 -34 38
-17 0 26 -60 84 -88 84 -15 0 -20 -5 -16 -15z"/>
<path d="M9953 6343 c-25 -10 -11 -29 48 -65 87 -55 99 -50 52 21 -15 23 -34
41 -44 41 -10 0 -23 2 -31 4 -7 3 -19 2 -25 -1z"/>
<path d="M9838 6233 c-16 -2 -28 -8 -28 -13 0 -9 86 -24 99 -16 5 3 11 -1 15
-9 3 -8 16 -15 29 -15 14 0 30 -7 37 -15 14 -17 40 -20 40 -5 0 6 -7 22 -16
35 -24 37 -89 51 -176 38z"/>
<path d="M6225 6196 c-39 -17 -52 -33 -115 -136 -76 -123 -98 -198 -68 -228
13 -13 146 -17 163 -4 47 33 135 195 135 247 0 49 -19 103 -43 120 -26 18 -33
18 -72 1z"/>
<path d="M2805 6179 c-16 -10 -39 -19 -50 -19 -28 -1 -186 -55 -194 -67 -3 -5
-19 -16 -36 -25 -136 -69 -167 -89 -227 -150 -38 -37 -89 -98 -114 -135 -25
-37 -65 -97 -89 -133 -24 -36 -69 -99 -99 -141 -31 -42 -56 -81 -56 -87 0 -5
-11 -30 -25 -53 -14 -24 -25 -60 -25 -80 0 -51 -16 -66 -100 -95 -41 -14 -82
-32 -90 -39 -8 -7 -51 -24 -95 -39 -44 -14 -97 -37 -117 -51 -20 -14 -39 -25
-42 -25 -2 0 -63 -31 -135 -70 -72 -38 -136 -70 -142 -70 -6 0 -67 -27 -135
-60 -68 -33 -128 -60 -134 -60 -6 0 -32 -11 -58 -24 -26 -13 -75 -32 -107 -41
-33 -10 -85 -30 -115 -45 -30 -15 -86 -37 -125 -50 -93 -30 -304 -136 -312
-157 -3 -8 -2 -23 4 -32 9 -13 27 -15 114 -12 l104 4 -98 -93 c-116 -110 -183
-214 -165 -259 5 -14 16 -34 25 -43 14 -15 13 -20 -6 -51 -26 -42 -26 -59 -3
-80 24 -22 43 -21 97 4 30 14 67 22 109 23 55 1 70 6 121 40 84 55 142 113
242 237 48 61 96 111 107 114 12 2 63 11 114 20 82 14 189 48 247 78 11 5 51
20 90 33 38 12 102 35 140 49 148 57 178 66 219 63 l41 -3 -1 -46 c0 -26 -5
-64 -12 -85 -36 -121 -61 -215 -70 -259 -58 -295 -89 -424 -143 -590 -16 -49
-29 -99 -29 -110 0 -11 -12 -40 -26 -65 -15 -26 -23 -52 -20 -65 5 -18 -33
-148 -71 -246 -19 -47 -31 -279 -22 -399 20 -250 -2 -329 -175 -617 -32 -54
-71 -117 -87 -141 -16 -23 -29 -45 -29 -48 0 -8 -189 -259 -247 -329 -27 -33
-90 -103 -139 -156 -77 -83 -94 -107 -122 -178 -17 -45 -32 -89 -32 -97 0 -19
-50 -116 -89 -174 -17 -25 -31 -50 -31 -56 0 -6 -7 -17 -15 -24 -22 -18 -19
-27 15 -39 22 -7 30 -16 30 -33 0 -13 -32 -81 -70 -152 -73 -133 -79 -162 -37
-171 42 -8 163 -15 322 -18 155 -3 162 -4 237 -36 42 -18 82 -39 89 -47 33
-40 -71 -68 -261 -69 -74 0 -178 -6 -230 -12 -52 -7 -149 -18 -215 -23 -177
-16 -199 -21 -203 -46 -4 -27 24 -35 98 -28 30 4 80 1 112 -4 40 -8 87 -8 165
0 157 16 236 13 293 -11 44 -19 57 -20 138 -12 58 6 105 6 133 -1 68 -15 150
-16 198 -1 24 7 79 13 122 13 43 0 89 4 103 10 14 5 85 12 158 15 135 6 340
30 568 66 131 21 382 28 535 15 l80 -6 -75 20 c-148 40 -368 58 -772 64 -259
4 -333 8 -355 20 -15 7 -54 40 -87 71 -32 32 -95 81 -140 111 -44 29 -119 81
-166 114 -46 33 -105 67 -130 74 -65 19 -66 48 -5 98 26 20 59 55 75 76 15 22
69 82 119 134 50 53 91 100 91 105 0 5 10 19 22 30 13 11 43 44 68 73 25 30
63 72 86 94 75 75 194 225 243 308 35 58 66 96 105 127 76 60 215 257 253 361
9 25 31 70 49 100 43 72 89 207 109 322 9 51 23 118 30 148 17 68 28 250 16
269 -19 30 -44 -37 -57 -157 -28 -259 -84 -464 -164 -602 -20 -36 -59 -103
-86 -150 -26 -47 -60 -101 -74 -120 -26 -37 -34 -46 -129 -150 -33 -36 -77
-92 -98 -126 -54 -86 -130 -179 -158 -194 -37 -20 -245 -259 -245 -281 0 -5
-6 -9 -13 -9 -7 0 -35 -28 -63 -62 -27 -33 -61 -73 -75 -87 -14 -14 -45 -60
-67 -101 -48 -87 -121 -170 -150 -170 -11 0 -35 6 -53 14 -19 8 -68 17 -109
21 -42 4 -103 12 -135 19 -54 11 -60 14 -63 39 -4 32 0 31 -45 12 -59 -25
-113 11 -70 46 38 32 129 157 144 199 40 110 69 157 142 231 41 42 85 92 98
110 13 19 33 41 44 50 11 9 38 43 59 75 22 33 63 88 92 124 28 36 70 99 94
140 23 41 47 82 55 90 12 14 37 56 142 235 55 93 108 272 99 335 -10 69 -6
421 4 455 37 117 61 201 66 236 4 22 14 43 22 47 16 6 91 -30 132 -64 37 -31
102 -62 165 -79 30 -7 61 -18 68 -22 6 -4 50 -9 97 -9 110 -2 239 -17 267 -32
12 -7 59 -12 105 -11 81 0 82 1 48 14 -19 7 -52 14 -72 14 -21 1 -68 12 -104
26 -75 28 -162 51 -274 71 -41 7 -90 16 -109 20 -40 8 -173 77 -191 99 -7 9
-33 24 -57 35 l-45 20 7 42 c4 24 17 68 30 98 12 30 26 71 30 90 4 19 18 67
30 105 13 39 28 102 34 140 6 39 22 124 36 190 14 66 32 157 41 203 8 46 19
94 24 108 6 14 10 38 10 53 0 15 7 36 15 47 9 11 14 42 15 77 0 61 22 97 59
97 25 0 209 67 246 90 16 10 53 28 81 39 29 11 82 38 118 60 36 23 72 41 80
41 7 0 21 9 32 21 10 11 40 37 67 56 26 19 60 47 76 62 15 14 57 46 92 70 35
25 59 46 52 48 -14 5 -73 -31 -188 -117 -96 -71 -152 -102 -384 -209 -152 -70
-237 -100 -362 -126 -112 -23 -316 -85 -385 -115 -102 -46 -241 -100 -257
-100 -8 0 -30 -6 -48 -14 -19 -7 -67 -17 -107 -20 l-74 -7 6 28 c4 15 11 73
16 128 9 97 22 159 38 181 4 6 45 25 92 44 47 18 195 90 330 158 226 115 346
169 507 227 47 16 85 42 156 105 52 45 137 112 188 147 52 36 119 88 149 117
82 78 138 120 207 154 61 32 81 48 69 60 -13 12 -132 -56 -241 -138 -22 -17
-79 -57 -126 -89 -99 -68 -214 -154 -247 -184 -60 -56 -33 64 33 142 31 37 70
97 153 241 127 219 277 338 535 424 58 19 137 21 137 3 0 -12 -64 -37 -95 -37
-22 0 -75 -28 -75 -40 0 -15 20 -12 67 11 59 29 128 20 137 -16 8 -31 36 -33
43 -4 5 19 11 21 52 15 25 -3 61 -14 81 -25 19 -10 52 -24 73 -31 21 -6 54
-26 73 -42 19 -17 34 -26 33 -22 -1 23 -47 99 -57 97 -7 -2 -12 4 -12 12 0 10
-24 27 -60 43 -32 15 -63 36 -69 48 -11 24 -48 34 -129 34 -35 0 -59 5 -66 14
-9 12 -16 11 -41 -5z m-2020 -1511 c9 -26 12 -263 3 -307 -6 -33 -19 -57 -48
-86 -22 -22 -40 -47 -40 -54 0 -15 -103 -117 -160 -159 -19 -15 -50 -39 -68
-54 -24 -20 -44 -28 -72 -28 -67 0 -60 10 123 170 53 46 97 91 97 98 0 18 -27
2 -65 -38 -16 -18 -64 -58 -105 -90 -41 -32 -111 -90 -155 -129 -79 -70 -128
-93 -105 -51 15 28 62 74 154 150 78 64 236 241 236 264 0 6 -4 17 -9 25 -7
10 -27 -9 -79 -75 -93 -117 -240 -244 -284 -244 -56 0 -17 74 104 193 84 83
178 197 178 216 0 6 -5 11 -11 11 -11 0 -132 -17 -183 -25 l-30 -5 23 24 c33
35 145 91 217 109 34 9 88 30 121 46 50 26 107 45 146 50 4 1 10 -5 12 -11z
m-125 -3896 c137 -20 256 -57 295 -91 11 -10 58 -43 105 -74 87 -57 221 -170
248 -208 22 -31 2 -39 -103 -39 -49 0 -99 -3 -111 -6 -15 -4 -34 6 -68 36 -81
69 -225 130 -309 130 -22 0 -57 5 -79 12 -29 9 -41 9 -50 0 -15 -15 -89 -15
-182 -2 -84 13 -97 21 -86 59 11 41 99 189 118 201 10 6 33 8 52 6 19 -3 96
-14 170 -24z"/>
<path d="M10689 6124 c-17 -21 7 -37 34 -22 11 5 35 8 53 5 39 -7 54 7 25 22
-30 17 -97 13 -112 -5z"/>
<path d="M9828 6124 c-4 -3 -26 -7 -50 -9 -62 -4 -48 -20 20 -21 31 -1 74 -5
95 -9 30 -6 37 -5 37 8 0 9 -13 18 -32 22 -18 4 -40 8 -49 11 -8 2 -18 2 -21
-2z"/>
<path d="M10744 6065 c-18 -13 -15 -14 28 -15 52 0 158 -38 158 -57 0 -7 -26
-14 -65 -18 -62 -7 -91 -20 -63 -29 7 -2 63 -7 123 -10 99 -5 108 -4 90 10
-11 8 -40 34 -65 58 -25 24 -59 51 -77 60 -40 20 -103 21 -129 1z"/>
<path d="M10860 5842 c0 -26 7 -30 67 -42 26 -5 58 -12 71 -16 12 -3 22 -2 22
3 0 10 -44 33 -95 51 -16 5 -38 13 -47 17 -14 5 -18 2 -18 -13z"/>
<path d="M7190 5830 c0 -5 7 -7 15 -4 8 4 15 8 15 10 0 2 -7 4 -15 4 -8 0 -15
-4 -15 -10z"/>
<path d="M7090 5711 c0 -6 -14 -24 -32 -40 -18 -17 -29 -34 -24 -38 4 -4 23
10 42 31 35 40 42 56 24 56 -5 0 -10 -4 -10 -9z"/>
<path d="M9922 5647 c-37 -14 -52 -32 -52 -63 0 -12 -11 -47 -25 -78 -23 -53
-24 -56 -6 -56 20 0 44 25 73 79 18 33 38 39 60 18 25 -25 55 -36 94 -35 21 1
60 -8 86 -19 39 -18 56 -35 98 -100 50 -76 51 -79 45 -133 -11 -100 -11 -105
5 -105 8 0 28 20 44 45 17 25 38 51 48 58 10 7 18 26 18 41 0 40 25 59 48 37
26 -22 41 -20 53 8 9 18 8 33 0 57 -6 17 -11 43 -11 56 0 33 -26 40 -66 18
-39 -21 -60 -15 -115 33 -19 16 -52 39 -75 50 -48 24 -163 47 -201 39 -39 -7
-53 2 -53 34 0 33 -13 35 -68 16z"/>
<path d="M10734 5329 c-6 -11 13 -39 27 -39 5 0 9 9 9 19 0 21 -26 36 -36 20z"/>
<path d="M9675 5220 c-14 -44 14 -167 45 -195 26 -24 26 -7 -2 58 -14 32 -23
72 -23 104 0 54 -9 68 -20 33z"/>
<path d="M9760 4975 c0 -8 7 -15 16 -15 14 0 14 3 4 15 -7 8 -14 15 -16 15 -2
0 -4 -7 -4 -15z"/>
<path d="M9790 4944 c0 -3 24 -16 54 -30 45 -20 72 -25 169 -27 64 -2 121 -1
128 3 15 10 -39 17 -151 19 -70 2 -106 7 -136 22 -40 19 -64 24 -64 13z"/>
<path d="M8150 170 c-52 -4 -138 -11 -190 -13 -115 -7 -220 -25 -220 -39 0
-11 370 -4 530 10 47 5 123 5 170 1 147 -12 433 -20 775 -20 182 -1 392 -5
467 -10 141 -9 168 -7 168 17 0 10 -12 14 -38 14 -21 0 -42 4 -47 9 -13 13
-241 22 -560 24 -143 1 -417 5 -610 9 -192 3 -393 3 -445 -2z"/>
<path d="M12375 112 c-204 -17 -324 -29 -363 -38 -61 -12 -28 -28 65 -30 50
-1 115 -7 145 -13 31 -7 86 -8 133 -4 44 3 144 5 222 4 78 -2 160 0 182 4 41
7 41 7 41 50 l0 42 -137 -1 c-76 0 -205 -7 -288 -14z"/>
</g>
</svg>
