<?xml version="1.0" standalone="no"?>
<!DOCTYPE svg PUBLIC "-//W3C//DTD SVG 20010904//EN"
 "http://www.w3.org/TR/2001/REC-SVG-20010904/DTD/svg10.dtd">
<svg version="1.0" xmlns="http://www.w3.org/2000/svg"
 width="1280.000000pt" height="872.000000pt" viewBox="0 0 1280.000000 872.000000"
 preserveAspectRatio="xMidYMid meet">
<metadata>
Created by potrace 1.15, written by Peter Selinger 2001-2017
</metadata>
<g transform="translate(0.000000,872.000000) scale(0.100000,-0.100000)"
fill="#000000" stroke="none">
<path d="M12358 8697 c-15 -12 -41 -33 -58 -46 -31 -24 -33 -35 -14 -85 4 -10
1 -16 -9 -16 -31 0 -37 -73 -9 -123 l17 -32 3 63 c3 61 4 64 26 58 32 -8 36 0
20 40 -14 33 -14 35 12 44 16 7 24 16 21 24 -3 8 3 30 13 50 22 44 14 52 -22
23z"/>
<path d="M12446 8712 c-3 -5 -10 -51 -17 -103 -19 -154 -61 -232 -221 -406
-21 -24 -45 -43 -53 -43 -17 0 -20 16 -5 25 13 8 33 84 26 100 -3 8 -13 11
-24 8 -14 -3 -21 -17 -26 -49 -8 -58 -65 -167 -119 -225 -23 -26 -95 -95 -160
-154 -70 -64 -138 -137 -169 -181 -31 -44 -61 -77 -75 -80 -12 -3 -118 -1
-235 4 -177 8 -219 8 -247 -4 -43 -18 -81 -17 -105 1 -32 24 -169 20 -223 -6
-56 -27 -121 -112 -172 -223 -26 -56 -46 -86 -60 -91 -12 -3 -36 -30 -55 -58
-18 -29 -43 -61 -56 -72 -12 -11 -41 -47 -63 -80 -22 -33 -48 -69 -57 -80 -10
-11 -20 -32 -24 -47 -3 -15 -34 -56 -68 -90 -43 -44 -68 -81 -84 -122 -13 -32
-33 -75 -45 -95 -12 -20 -25 -49 -30 -66 -4 -16 -15 -50 -24 -75 -9 -24 -27
-98 -41 -163 -13 -64 -28 -125 -33 -135 -36 -67 -55 -152 -56 -242 0 -108 7
-127 80 -208 68 -76 154 -118 271 -133 52 -6 94 -15 94 -19 0 -4 -28 -13 -62
-20 -33 -6 -86 -23 -117 -37 -133 -60 -335 -133 -366 -133 -53 0 -238 -30
-259 -42 -25 -13 -201 -37 -331 -45 -74 -4 -154 1 -310 20 -115 14 -246 28
-290 31 -164 10 -322 27 -395 41 -41 7 -101 17 -134 21 -43 5 -67 14 -90 34
-17 15 -46 35 -65 45 -41 21 -200 55 -257 55 -35 0 -47 6 -73 35 -17 19 -49
69 -71 110 -46 83 -83 120 -156 156 -42 20 -64 24 -149 24 -72 0 -100 4 -99
13 1 7 2 17 3 23 2 16 107 59 144 59 18 0 54 -7 81 -15 62 -19 116 -20 116 -2
0 20 -44 37 -129 49 -73 11 -78 10 -138 -16 -34 -16 -72 -39 -84 -52 -16 -18
-33 -24 -62 -24 -35 0 -72 -8 -175 -38 -14 -5 -40 -36 -70 -87 -43 -73 -70
-97 -79 -69 -2 6 15 34 37 62 l41 51 -21 21 c-15 15 -33 20 -72 20 -29 1 -84
5 -123 10 -111 16 -234 30 -308 35 -38 3 -78 10 -90 17 -12 6 -67 13 -122 14
-132 5 -267 20 -390 45 -67 14 -101 17 -103 10 -5 -16 -22 -13 -22 4 0 10 -10
15 -29 15 -16 0 -56 6 -88 14 -32 7 -94 19 -138 26 -81 12 -361 98 -426 130
-19 10 -63 23 -97 30 -33 6 -85 22 -114 35 -113 52 -407 144 -547 171 -85 17
-145 33 -148 41 -3 7 9 34 26 59 16 25 33 66 37 89 9 64 -12 202 -40 259 -22
44 -23 51 -10 81 12 29 12 43 -2 107 -9 40 -22 83 -28 95 -21 42 -137 153
-184 177 -82 41 -203 69 -280 63 -102 -8 -200 -33 -238 -62 l-34 -26 -127 12
c-133 12 -301 6 -382 -13 -55 -13 -190 -67 -282 -114 -55 -27 -67 -38 -72 -63
-6 -26 -18 -36 -86 -70 -43 -22 -96 -52 -116 -66 -21 -14 -46 -25 -56 -25 -18
0 -251 -150 -264 -169 -3 -6 -38 -27 -77 -47 -117 -59 -400 -277 -543 -418
-44 -43 -105 -99 -135 -123 -80 -65 -307 -324 -405 -463 -22 -30 -56 -75 -76
-100 -93 -114 -194 -305 -223 -423 -13 -50 -31 -117 -40 -148 l-17 -56 -133
-7 c-73 -4 -149 -4 -170 -1 -33 7 -36 6 -36 -17 0 -23 5 -26 69 -37 84 -13
144 -14 208 -2 107 21 283 34 305 24 14 -6 32 -7 46 -2 13 5 175 10 360 11
473 3 561 -13 630 -116 30 -46 49 -92 41 -101 -2 -2 -107 -6 -234 -10 -126 -3
-306 -8 -400 -11 -101 -3 -208 0 -265 7 -52 7 -106 12 -120 11 -14 -1 -77 -3
-140 -5 -63 -3 -143 -8 -177 -12 -61 -8 -63 -7 -72 19 -13 31 -15 32 -40 5
-19 -21 -116 -48 -173 -49 -27 0 -27 0 -12 35 21 51 18 144 -6 175 l-20 25 0
-137 0 -138 28 -2 c15 -1 37 -1 50 0 12 0 22 -1 22 -3 0 -2 -11 -26 -25 -53
-29 -57 -31 -78 -10 -86 8 -3 15 -12 15 -21 0 -35 75 -16 228 58 l94 44 -5
-27 c-8 -39 -43 -266 -61 -395 -15 -111 -14 -181 3 -213 5 -9 25 -32 44 -51
31 -29 45 -34 104 -40 105 -11 170 14 311 119 91 68 150 151 162 229 5 31 25
101 44 156 18 55 38 135 44 178 12 96 28 117 88 117 24 0 45 -4 49 -9 10 -17
7 -382 -5 -479 -6 -59 -7 -99 -1 -111 6 -11 5 -73 -5 -176 -8 -87 -14 -174
-13 -194 2 -76 -21 -473 -28 -484 -5 -7 -11 -228 -15 -492 -6 -410 -13 -591
-33 -810 -2 -22 -6 -213 -10 -425 -3 -213 -13 -447 -21 -524 -19 -186 -19
-245 2 -253 28 -11 34 18 34 175 0 88 8 224 20 320 13 114 21 256 24 447 2
154 11 341 19 415 9 82 16 245 17 415 2 393 7 619 19 850 5 110 15 317 20 460
6 143 16 316 21 385 6 69 15 186 21 260 7 97 15 142 27 160 9 14 17 34 17 44
0 23 32 34 95 30 l45 -2 -4 -178 c-2 -99 -7 -204 -12 -234 -5 -30 -9 -107 -9
-170 0 -63 -5 -194 -10 -290 -6 -96 -12 -425 -15 -730 -5 -683 -19 -982 -60
-1320 -42 -338 -36 -1007 10 -1077 18 -27 40 -30 49 -7 15 40 -8 295 -30 331
-19 31 -17 87 4 111 17 20 20 20 147 7 276 -29 450 -86 502 -164 18 -26 23
-48 23 -94 0 -51 -2 -58 -14 -47 -12 9 -19 5 -38 -24 -16 -25 -42 -44 -88 -65
-72 -32 -265 -84 -405 -108 -118 -20 -431 -28 -569 -13 -96 10 -126 18 -232
62 -68 29 -133 60 -146 70 -20 15 -21 20 -10 38 8 13 10 34 7 54 -6 27 -1 39
30 77 47 55 64 66 205 136 84 41 131 57 174 62 83 8 88 31 7 31 -72 0 -135
-24 -286 -107 -118 -66 -136 -81 -182 -153 -27 -41 -37 -71 -44 -123 -5 -38
-13 -86 -19 -106 -21 -76 -14 -101 41 -153 28 -27 63 -51 78 -55 14 -3 35 -12
46 -19 12 -7 61 -12 125 -13 58 -1 141 -5 184 -10 44 -5 89 -6 100 -1 12 4 31
4 43 -1 12 -4 163 -6 335 -4 596 9 632 10 923 36 132 12 326 25 595 38 96 5
211 13 256 17 67 5 85 4 106 -10 18 -12 32 -14 49 -7 13 5 65 14 114 20 50 6
159 20 243 31 84 11 210 20 280 21 70 0 195 5 277 10 326 22 448 25 644 17
180 -7 207 -6 229 8 16 10 21 19 14 26 -5 5 -124 9 -303 7 -162 -1 -314 -1
-339 -1 -25 0 -103 5 -175 12 -90 8 -205 10 -375 5 -303 -9 -1030 -24 -1165
-24 -55 0 -192 -5 -305 -11 -113 -7 -236 -13 -275 -15 -38 -1 -83 -6 -99 -10
l-29 -8 7 49 c4 27 21 82 37 123 42 104 45 144 20 216 -23 67 -50 95 -126 130
-110 52 -254 83 -492 105 -118 11 -130 18 -139 76 -10 71 3 350 21 439 9 44
18 98 19 120 1 22 6 51 10 65 3 14 8 57 10 95 4 66 12 167 37 465 9 114 14
647 7 765 -4 71 -2 197 5 370 3 83 9 233 12 335 4 102 11 237 16 300 6 63 12
177 14 252 4 147 16 212 41 222 9 3 42 6 74 6 75 0 85 -12 85 -103 0 -80 10
-91 49 -53 36 37 64 34 71 -6 11 -59 10 -230 -2 -368 -15 -179 -6 -259 36
-325 35 -55 48 -63 103 -64 31 -1 37 3 47 29 5 17 14 30 20 30 15 0 143 175
193 265 75 133 128 243 128 266 0 12 9 40 20 63 10 23 24 59 30 81 13 52 17
57 67 88 23 14 54 43 70 64 38 51 41 53 96 53 26 0 62 8 80 17 18 9 37 15 42
13 6 -2 46 -6 90 -9 82 -6 85 -8 74 -50 -7 -28 28 -22 81 15 l52 36 162 9
c364 21 366 22 388 49 17 21 19 34 15 87 -8 83 -37 137 -87 163 -46 23 -163
26 -365 10 -113 -10 -123 -9 -195 14 -41 13 -95 28 -120 33 l-45 9 40 21 c23
12 59 41 81 65 44 48 148 218 169 277 22 63 52 115 74 128 12 8 20 23 20 40 0
60 14 104 36 119 28 18 95 125 95 151 0 11 7 28 15 39 8 10 15 26 15 36 0 9
16 35 35 58 20 24 35 50 34 59 -1 9 2 25 6 36 10 23 55 87 69 97 15 10 66 -2
102 -23 17 -11 39 -19 47 -19 16 0 69 31 119 70 19 15 35 19 50 15 13 -4 196
-93 408 -198 212 -105 414 -201 450 -213 83 -28 244 -95 340 -141 41 -20 144
-62 229 -94 85 -32 162 -65 171 -74 9 -8 23 -15 31 -15 8 0 28 -8 44 -18 17
-10 64 -30 105 -46 41 -16 100 -39 130 -52 70 -29 294 -104 312 -104 7 0 26
-7 42 -15 59 -31 151 -55 208 -55 64 0 98 -12 98 -35 0 -7 -38 -49 -85 -92
-47 -43 -85 -84 -85 -91 0 -21 50 11 105 68 28 28 67 60 88 71 l38 20 41 -23
c50 -28 67 -52 53 -74 -6 -9 -55 -41 -110 -71 -186 -103 -238 -143 -186 -143
38 0 30 -18 -22 -51 -56 -37 -74 -69 -37 -69 12 0 30 5 40 10 10 6 21 6 24 1
8 -13 -32 -126 -60 -166 -28 -41 -29 -45 -11 -45 7 0 26 13 42 30 16 16 30 28
33 26 9 -10 -24 -55 -75 -102 -40 -36 -54 -56 -50 -68 9 -22 44 -20 59 4 7 12
36 35 63 52 28 17 67 42 88 56 20 14 40 22 44 18 4 -4 2 -37 -4 -73 -13 -73
-11 -83 17 -83 14 0 22 11 30 43 18 70 44 138 56 148 8 7 14 -1 18 -27 9 -44
26 -84 38 -84 12 0 10 50 -8 166 -14 85 -14 109 -4 134 7 16 18 30 25 30 14 0
49 -76 60 -130 9 -44 33 -83 46 -74 6 3 8 18 4 33 -4 14 -13 66 -21 115 -8 49
-24 110 -35 135 -12 29 -16 48 -10 54 14 14 54 -15 82 -60 21 -34 24 -35 27
-16 2 12 -11 56 -27 98 -17 42 -31 83 -31 91 0 35 72 -3 105 -56 14 -22 29
-40 35 -40 14 0 21 18 10 25 -15 10 -61 105 -67 140 -3 17 -9 35 -13 40 -5 6
-5 17 0 25 8 13 10 13 10 0 0 -8 23 -40 51 -70 27 -30 62 -79 77 -110 30 -60
62 -79 62 -36 0 14 -4 28 -10 31 -12 7 -14 35 -2 35 4 0 17 -16 30 -35 24 -37
29 -40 52 -25 12 8 10 14 -13 38 -37 38 -34 48 8 23 42 -24 56 -10 20 21 -32
28 -32 48 3 82 26 24 30 25 42 11 8 -9 27 -23 44 -32 17 -9 74 -47 127 -84 53
-38 101 -69 106 -69 5 0 17 -6 27 -13 16 -12 14 -17 -28 -72 -25 -32 -46 -67
-46 -76 0 -24 89 -76 290 -172 52 -25 113 -51 135 -57 22 -7 51 -18 65 -25 51
-25 221 -77 277 -85 32 -4 123 -19 203 -33 388 -68 398 -69 632 -69 123 0 242
5 266 10 26 6 56 6 80 1 53 -13 500 0 596 17 43 8 103 14 134 14 30 0 78 6
106 14 28 8 98 22 156 32 57 9 110 18 117 21 6 3 21 -13 32 -36 30 -58 57 -79
120 -92 31 -7 67 -21 80 -31 13 -10 30 -18 38 -18 7 0 18 -11 24 -24 9 -18 7
-31 -7 -57 -23 -47 -132 -184 -188 -239 -25 -24 -46 -49 -46 -55 0 -6 -24 -29
-52 -50 -80 -61 -184 -159 -229 -216 -23 -28 -61 -65 -87 -82 -120 -84 -175
-132 -319 -276 -91 -92 -157 -151 -160 -143 -8 20 -31 14 -70 -21 -95 -85
-214 -141 -332 -158 -35 -4 -70 -14 -78 -21 -12 -10 -11 -13 9 -24 34 -19 62
-17 131 12 96 39 125 55 218 117 47 31 89 57 92 57 24 0 3 -29 -158 -224 -77
-93 -84 -99 -175 -142 -52 -24 -102 -49 -110 -54 -8 -6 -37 -21 -65 -35 -27
-13 -71 -39 -96 -58 -26 -19 -99 -52 -170 -76 -68 -24 -145 -56 -170 -72 -25
-16 -49 -29 -54 -29 -8 0 -53 -31 -132 -93 -97 -75 -197 -169 -243 -230 -27
-36 -59 -72 -70 -80 -11 -7 -33 -31 -49 -53 -136 -182 -167 -218 -476 -551
-38 -42 -90 -89 -114 -104 -41 -27 -46 -28 -62 -13 -29 26 -53 10 -46 -31 5
-30 1 -38 -38 -74 -23 -21 -62 -52 -86 -67 -24 -15 -80 -57 -124 -93 -44 -37
-103 -83 -132 -104 -77 -56 -113 -101 -113 -142 0 -30 -5 -37 -36 -50 -20 -8
-49 -26 -66 -40 -16 -14 -36 -25 -44 -25 -8 0 -22 -4 -32 -9 -37 -20 -264 -70
-452 -100 -90 -14 -91 8 -4 77 66 52 111 109 119 153 9 49 -10 64 -74 56 -40
-5 -51 -2 -65 14 -14 17 -27 19 -79 17 l-62 -3 -3 -37 -3 -38 55 0 c51 0 56
-2 62 -25 8 -31 -42 -184 -63 -192 -22 -9 -39 15 -60 83 -10 33 -22 60 -28 60
-6 -1 -10 -35 -10 -81 0 -44 -4 -86 -9 -94 -6 -10 -23 -12 -66 -7 -89 10 -253
-19 -329 -59 -27 -14 -32 -21 -29 -47 l3 -31 131 -2 c72 -1 137 -5 143 -10 7
-4 120 -9 250 -11 163 -2 255 -8 292 -18 30 -8 47 -16 39 -19 -25 -8 -232 -27
-297 -27 -66 0 -128 -18 -174 -50 -24 -18 -27 -25 -19 -41 6 -10 23 -21 38
-25 15 -3 39 -12 53 -19 29 -16 118 -33 234 -45 44 -4 106 -13 139 -20 38 -7
143 -11 295 -9 259 3 394 -6 412 -27 6 -8 25 -14 41 -14 16 0 42 -10 59 -22
l30 -23 42 24 c87 49 101 54 161 54 33 1 111 -5 171 -13 69 -8 190 -13 325
-11 375 3 541 1 680 -10 120 -9 609 0 780 15 25 2 106 9 180 15 210 19 310 20
310 5 0 -14 -29 -19 -170 -30 -192 -15 -224 -19 -228 -31 -2 -9 7 -13 28 -13
17 0 41 -6 53 -14 17 -10 38 -12 92 -5 39 4 194 8 345 9 151 0 340 5 420 10
80 5 219 12 310 15 91 3 212 11 270 16 137 14 560 13 629 0 29 -6 81 -19 115
-30 87 -27 258 -53 316 -49 28 1 50 0 50 -3 0 -4 21 -9 47 -13 26 -3 70 -14
99 -23 57 -18 77 -14 93 16 17 31 -8 39 -165 50 -76 6 -186 20 -244 30 -184
35 -172 31 -165 59 l6 25 -68 -6 c-110 -10 -574 -9 -586 2 -12 9 -511 18 -702
13 -79 -3 -97 -1 -88 9 15 15 648 31 768 19 102 -11 1004 -7 1028 4 42 20 13
27 -75 19 -176 -15 -871 6 -893 28 -7 7 -4 15 9 25 17 12 68 13 315 8 163 -3
321 -7 351 -8 30 -2 183 -4 340 -5 167 -2 305 -7 333 -14 40 -9 50 -8 63 5 14
14 13 17 -13 38 -28 22 -32 22 -283 18 -140 -1 -374 1 -520 6 -146 5 -278 10
-295 10 -16 0 -99 -3 -184 -7 l-154 -8 24 21 24 21 -190 -5 c-104 -3 -260 -15
-345 -26 -85 -11 -195 -25 -245 -31 -57 -7 -168 -9 -305 -5 -201 6 -332 0
-560 -25 -225 -24 -594 -39 -925 -37 -546 3 -1053 -5 -1153 -18 -41 -5 -43 -4
-56 28 -8 18 -17 49 -21 69 -7 36 -5 38 47 78 30 23 58 41 62 41 4 0 33 23 64
51 79 70 367 259 394 259 13 -1 50 -8 83 -16 55 -15 162 -28 310 -40 33 -3 70
-10 81 -15 15 -8 43 -8 95 1 60 9 836 26 991 22 20 -1 40 3 43 8 3 5 18 5 36
0 18 -5 76 -5 137 0 59 5 168 12 242 15 153 6 278 30 459 86 68 22 131 39 141
39 23 0 50 31 50 57 0 12 -9 50 -20 85 -28 89 -25 122 18 234 21 55 55 142 76
195 20 53 49 116 65 141 16 24 34 62 41 84 7 21 25 62 40 90 16 28 42 88 58
135 17 46 57 138 90 204 153 310 232 473 232 482 0 5 20 39 44 75 37 57 166
339 166 364 0 5 18 54 39 110 21 56 44 125 51 155 7 30 28 88 46 130 18 41 38
96 43 121 6 26 20 61 30 80 11 18 29 76 40 127 20 91 33 122 44 104 2 -4 26
-78 52 -163 25 -85 63 -184 83 -220 19 -36 55 -103 78 -150 34 -66 63 -105
131 -173 76 -77 91 -88 117 -85 27 3 31 7 31 33 0 24 -5 31 -26 35 -30 6 -90
70 -66 70 32 0 84 -24 110 -51 33 -34 38 -34 83 -13 21 10 34 24 34 35 0 10
-24 47 -53 81 -160 189 -271 353 -369 547 -53 103 -75 158 -69 164 17 17 135
-74 302 -233 20 -19 58 -51 84 -70 27 -19 64 -49 84 -66 20 -17 54 -41 77 -52
22 -11 46 -28 53 -36 9 -10 30 -16 58 -16 36 0 55 -7 93 -35 26 -19 53 -35 59
-35 7 0 23 -7 37 -16 19 -13 32 -15 57 -8 53 16 45 37 -29 75 -90 46 -93 59
-12 60 96 2 112 8 116 49 3 34 2 36 -80 77 -46 23 -127 62 -180 87 -53 24
-137 70 -185 101 -216 140 -273 181 -271 193 2 10 30 14 98 17 124 5 278 52
355 110 17 13 47 30 67 38 25 11 48 32 68 64 46 71 48 92 16 120 -25 21 -34
23 -90 18 -68 -7 -184 -29 -261 -50 -91 -24 -129 -33 -210 -49 -44 -8 -118
-23 -165 -32 -147 -28 -151 -18 -21 55 105 60 232 151 239 171 2 5 31 31 65
58 46 37 77 73 120 142 62 102 69 135 34 168 -29 27 -39 27 -111 2 -85 -29
-160 -85 -389 -292 -51 -47 -87 -73 -90 -65 -2 6 2 32 9 57 8 25 14 70 14 100
0 30 5 73 11 95 5 22 11 99 14 170 3 120 17 254 31 298 3 10 1 39 -5 65 -6 26
-13 90 -15 142 -4 86 -8 103 -45 177 -61 125 -105 181 -152 193 -28 8 -39 16
-39 30 0 21 36 110 45 110 3 0 29 -17 58 -38 76 -57 110 -72 175 -78 63 -7 86
0 136 45 72 64 85 83 136 201 52 118 55 129 55 207 -1 78 1 82 25 94 32 14
176 65 256 88 72 22 137 69 222 161 l62 68 0 86 0 86 -29 0 c-28 0 -102 50
-143 97 -24 26 -80 151 -114 251 -27 81 -27 86 -15 170 11 82 14 89 55 131 40
40 45 42 67 30 49 -26 100 -74 120 -113 11 -23 29 -52 39 -66 l20 -25 0 77 c0
75 -1 78 -32 101 -18 14 -52 34 -76 46 -24 12 -60 39 -82 61 -52 52 -81 65
-171 78 -85 13 -467 8 -564 -7 -33 -5 -61 -8 -63 -6 -12 11 26 47 107 100 116
78 243 175 249 193 7 22 -17 13 -55 -22 -21 -18 -90 -67 -154 -109 -64 -41
-132 -89 -152 -106 -19 -18 -38 -27 -41 -22 -6 9 154 172 226 228 20 16 49 44
64 62 15 18 46 44 68 59 74 46 218 186 268 260 49 72 50 76 63 190 17 138 19
202 6 202 -6 0 -12 -4 -15 -8z m38 -1086 c28 -7 51 -17 53 -22 1 -5 -13 -19
-33 -32 -46 -30 -86 -116 -92 -196 -10 -132 30 -298 92 -381 12 -16 28 -44 35
-62 13 -31 85 -105 146 -150 l30 -21 -45 -47 c-86 -90 -176 -140 -416 -230
-51 -19 -103 -35 -116 -35 -25 0 -108 78 -155 145 -60 87 -123 231 -123 284 0
34 -42 205 -68 273 -11 30 -28 90 -37 133 -9 44 -32 114 -51 158 -18 43 -34
84 -34 92 0 41 179 94 325 96 50 1 119 5 155 9 83 10 270 2 334 -14z m-955
-94 c31 -23 57 -88 71 -179 6 -38 21 -99 34 -138 13 -38 34 -106 46 -150 12
-44 33 -105 45 -135 13 -30 33 -86 44 -125 13 -44 36 -90 61 -123 22 -29 51
-69 64 -90 13 -20 66 -80 118 -133 60 -61 97 -107 101 -125 4 -16 9 -81 13
-144 5 -99 3 -120 -13 -149 -25 -48 -41 -50 -48 -4 -9 54 -27 91 -74 151 -33
42 -46 51 -64 47 -18 -5 -26 2 -45 35 -13 23 -67 87 -121 143 -128 134 -229
251 -271 312 -18 28 -53 75 -76 105 -45 59 -61 85 -148 251 -31 58 -69 125
-85 150 -21 32 -34 67 -42 119 -6 41 -19 94 -29 117 -20 46 -13 63 30 63 14 1
36 7 50 16 20 12 53 14 169 10 122 -3 147 -7 170 -24z m-7876 -181 c17 -17 -2
-41 -52 -69 -53 -30 -91 -85 -91 -132 0 -57 45 -136 93 -164 48 -28 134 -46
164 -35 24 9 53 46 53 68 0 9 -10 3 -26 -14 -22 -24 -30 -27 -66 -21 -58 9
-116 42 -139 79 -22 34 -22 96 0 150 9 24 16 27 54 27 37 0 44 3 53 26 l9 26
28 -22 c42 -33 33 -62 -21 -75 -51 -13 -64 -31 -60 -83 3 -34 5 -37 30 -34 14
1 29 -2 33 -8 8 -12 45 -13 64 -1 7 5 19 31 26 59 17 65 5 114 -38 154 -31 29
-31 30 -7 23 35 -9 108 -93 117 -135 7 -33 7 -90 1 -200 -3 -37 0 -46 19 -55
59 -30 102 -100 103 -167 0 -45 -11 -49 -27 -9 -14 39 -54 63 -115 69 -39 4
-50 2 -46 -9 2 -7 19 -17 37 -22 26 -6 37 -18 57 -60 29 -64 38 -107 30 -149
-11 -55 -29 -71 -73 -63 -21 3 -45 12 -55 19 -15 11 -15 16 3 68 17 52 17 60
3 114 -18 73 -42 107 -126 181 -48 43 -90 68 -159 97 -129 53 -139 60 -139 98
0 54 -22 106 -67 159 -23 28 -43 54 -43 57 0 4 33 22 73 40 70 31 76 32 180
28 63 -2 113 -8 120 -15z m7336 -19 c41 -7 46 -11 74 -62 16 -30 47 -77 68
-104 29 -36 39 -58 39 -85 0 -20 15 -92 34 -161 19 -69 46 -185 60 -258 55
-283 119 -431 224 -517 51 -42 92 -94 92 -119 0 -8 -12 -17 -26 -20 -14 -4
-38 -15 -53 -25 -14 -10 -38 -26 -53 -35 -34 -20 -40 -66 -9 -66 11 0 23 9 26
20 6 19 52 50 75 50 21 0 22 -30 1 -74 -28 -58 -74 -81 -142 -72 -46 6 -49 5
-55 -19 -5 -19 -11 -24 -23 -20 -72 29 -116 7 -109 -52 5 -44 -10 -52 -164
-87 -138 -31 -248 -34 -418 -11 -161 22 -289 44 -329 57 l-34 11 31 26 c20 16
43 53 62 101 17 41 54 106 82 145 35 48 54 84 59 115 4 25 11 61 15 80 7 32 6
34 -9 21 -10 -7 -40 -50 -67 -95 -27 -44 -62 -100 -78 -124 l-28 -42 -22 23
c-31 33 -42 75 -49 192 -9 155 -44 195 -122 140 -31 -21 -44 -41 -65 -96 -46
-124 -30 -175 28 -85 19 29 39 57 46 61 17 11 57 -3 66 -22 4 -10 8 -79 9
-153 l2 -135 38 -1 c21 0 40 -5 42 -10 4 -11 -72 -134 -82 -134 -3 0 -31 13
-63 29 -94 48 -141 88 -162 137 -18 42 -19 49 -4 117 8 40 21 95 30 122 8 28
19 84 25 125 13 93 62 292 94 383 27 73 72 140 158 233 30 33 61 73 70 89 49
97 217 273 302 317 30 16 75 60 75 74 0 7 8 15 18 17 27 7 172 6 221 -1z m86
-2 c3 -5 1 -10 -4 -10 -6 0 -11 5 -11 10 0 6 2 10 4 10 3 0 8 -4 11 -10z
m-7929 -51 c94 -20 174 -109 174 -193 0 -53 -8 -68 -32 -55 -24 13 -20 16 -48
-45 -12 -27 -42 -76 -66 -109 -24 -34 -44 -65 -44 -70 0 -5 -22 -48 -50 -96
-31 -54 -55 -112 -65 -156 -31 -135 -66 -222 -157 -395 -50 -93 -53 -98 -110
-157 -79 -84 -153 -200 -215 -337 -31 -67 -76 -157 -102 -201 -102 -174 -308
-328 -466 -346 -33 -4 -87 -10 -120 -14 -34 -4 -76 -3 -97 3 -43 12 -78 6 -78
-13 0 -7 13 -15 29 -18 34 -7 86 -85 83 -124 -1 -13 3 -23 8 -23 14 0 26 -35
34 -102 6 -50 5 -58 -9 -58 -20 0 -46 61 -49 111 -1 20 -6 43 -12 51 -5 7 -16
25 -23 40 -41 81 -138 130 -213 107 -19 -6 -177 -12 -368 -14 -184 -2 -357 -9
-385 -14 -27 -5 -54 -6 -58 -2 -22 22 73 120 191 196 40 26 71 49 69 51 -2 3
-23 -1 -45 -9 -43 -15 -112 -68 -204 -156 l-57 -54 -88 -3 c-48 -2 -107 -6
-130 -9 l-42 -6 20 53 c10 29 33 73 51 98 107 151 141 206 167 269 16 38 39
83 52 100 13 16 38 51 54 76 133 207 213 311 340 444 194 203 235 242 380 360
27 23 59 57 71 76 12 20 32 47 45 62 33 36 159 117 244 158 39 18 78 41 85 50
46 55 228 145 294 145 56 0 111 -45 127 -103 6 -23 29 -60 55 -87 57 -61 57
-76 1 -72 -37 3 -62 -7 -189 -72 -81 -41 -165 -87 -187 -101 -46 -31 -104 -41
-143 -26 -36 13 -35 24 3 58 40 36 111 61 176 62 54 1 67 9 57 35 -11 29 -42
27 -139 -11 -105 -41 -150 -73 -161 -117 -11 -45 23 -71 94 -70 48 0 72 8 147
47 50 25 104 55 120 67 22 15 46 20 95 20 36 0 72 5 80 10 11 7 7 10 -17 10
-61 0 -45 29 27 50 75 21 79 -41 11 -154 -67 -111 -151 -206 -327 -371 -212
-200 -283 -260 -424 -362 -69 -50 -159 -117 -201 -149 -43 -33 -90 -67 -105
-76 -16 -10 -36 -22 -44 -27 -29 -18 -157 -80 -260 -126 -168 -75 -176 -101
-14 -44 187 66 492 229 559 299 16 17 34 30 40 30 6 0 22 12 36 26 13 15 58
51 99 80 141 101 185 139 315 270 72 72 142 139 158 149 34 22 135 146 195
240 25 39 60 87 79 108 54 60 43 129 -38 233 -22 29 -43 68 -46 88 -4 25 -18
48 -49 76 -24 22 -48 40 -54 40 -5 0 -10 6 -10 14 0 13 56 46 78 46 5 0 45 24
88 54 44 29 98 63 121 75 23 11 50 30 60 40 24 25 130 69 195 80 59 11 270 4
334 -10z m614 -158 c0 -6 -4 -13 -10 -16 -5 -3 -10 1 -10 9 0 9 5 16 10 16 6
0 10 -4 10 -9z m-430 -170 c0 -6 -4 -12 -9 -15 -14 -9 -71 -135 -71 -157 0
-15 -7 -19 -31 -19 -27 0 -30 3 -24 23 12 40 55 107 79 123 13 8 26 24 29 34
5 20 27 28 27 11z m146 -104 c34 -46 44 -68 44 -98 0 -21 -4 -39 -10 -39 -5 0
-32 9 -60 20 -28 11 -68 20 -90 20 -48 0 -90 15 -90 32 0 26 50 119 76 143
l26 25 30 -22 c17 -11 50 -48 74 -81z m64 61 c41 -18 94 -48 116 -66 38 -30
94 -114 94 -140 0 -6 -34 3 -75 20 -83 34 -142 84 -174 147 -12 22 -29 42 -40
46 -11 3 -25 13 -33 22 -11 14 -10 16 12 11 14 -3 59 -21 100 -40z m7845 -148
c4 -12 2 -27 -4 -34 -15 -18 20 -136 87 -301 66 -161 96 -219 128 -244 30 -23
27 -39 -3 -22 -31 16 -89 107 -153 238 -36 73 -116 375 -105 393 9 15 42 -5
50 -30z m-8165 -34 c0 -3 -4 -8 -10 -11 -5 -3 -10 -1 -10 4 0 6 5 11 10 11 6
0 10 -2 10 -4z m436 -50 c83 -31 109 -54 100 -91 -7 -27 -9 -27 -57 -21 -27 4
-61 12 -74 18 -34 15 -52 5 -59 -37 -6 -32 -3 -41 29 -76 20 -22 33 -44 29
-50 -3 -6 -24 -7 -49 -3 -41 6 -44 4 -58 -23 -8 -15 -25 -37 -37 -48 -39 -35
-189 -221 -239 -298 -73 -110 -201 -359 -201 -391 0 -39 -52 -191 -94 -273
-65 -130 -148 -208 -274 -258 -37 -14 -73 -34 -80 -43 -10 -14 -16 -14 -30 -4
-49 35 -63 37 -102 15 -32 -19 -42 -21 -74 -11 -28 9 -42 9 -56 1 -14 -10 -22
-7 -46 18 -15 16 -37 29 -48 29 -18 0 -17 -3 9 -30 24 -25 30 -41 33 -91 8
-111 -36 -98 -69 21 -11 41 -27 85 -34 97 -14 21 -11 24 73 79 48 31 107 75
132 96 68 60 144 168 174 247 15 38 36 81 47 95 10 13 19 28 19 34 0 16 108
181 152 232 24 27 54 71 67 97 31 61 88 150 102 158 14 9 74 140 88 193 14 50
26 52 103 17 42 -20 69 -25 131 -25 106 0 133 13 197 99 46 63 51 74 38 87
-12 13 -21 12 -67 -7 -51 -22 -53 -22 -108 -5 -73 23 -119 68 -127 124 l-6 42
32 0 c50 0 208 -29 255 -47 47 -17 73 -8 73 27 0 37 17 38 106 6z m-516 -60
c12 -30 38 -73 57 -96 19 -22 33 -44 29 -47 -3 -3 -27 -8 -53 -10 -57 -6 -74
9 -91 75 -8 34 -7 53 5 88 8 24 18 44 23 44 4 0 18 -24 30 -54z m8451 -128
c34 -38 59 -73 57 -78 -5 -17 -82 45 -112 90 -14 22 -31 40 -36 40 -12 0 -40
54 -40 77 0 13 10 8 36 -22 19 -22 62 -70 95 -107z m-7606 52 c-18 -39 -29
-48 -39 -32 -6 11 44 86 51 78 4 -3 -2 -24 -12 -46z m-160 -75 c39 -13 92 -26
119 -30 64 -9 232 -54 386 -105 69 -22 163 -53 210 -68 47 -14 92 -32 100 -39
8 -6 38 -17 65 -24 70 -17 273 -85 321 -108 21 -10 84 -26 139 -35 162 -28
363 -65 463 -87 52 -10 151 -24 220 -29 189 -15 232 -19 287 -30 99 -19 221
-34 283 -33 34 0 62 -1 62 -2 0 -2 -27 -31 -60 -66 -34 -35 -63 -75 -67 -89
-3 -14 -14 -42 -25 -62 -27 -54 -58 -194 -58 -261 0 -56 -1 -58 -22 -51 -38
11 -223 86 -273 110 -16 7 -68 23 -115 33 -47 11 -103 28 -125 37 -22 10 -58
23 -80 30 -70 21 -159 57 -205 84 -25 14 -121 57 -215 94 -93 38 -192 80 -218
93 -27 13 -79 35 -115 48 -176 62 -317 122 -427 179 -66 34 -142 71 -170 81
-27 10 -75 33 -105 52 -30 18 -59 33 -64 33 -5 0 -17 6 -25 14 -9 8 -76 44
-149 80 -72 36 -132 70 -132 75 0 6 -19 19 -42 31 -54 26 -107 62 -108 74 0
11 60 -1 145 -29z m-395 -9 c0 -19 -17 -31 -74 -50 -67 -22 -128 -21 -157 3
l-24 20 40 17 c30 12 56 15 105 10 36 -3 72 -1 80 4 21 13 30 12 30 -4z m279
-85 c30 -23 21 -37 -32 -52 -58 -15 -120 3 -115 34 2 17 12 23 43 28 67 10 79
9 104 -10z m7894 -61 c19 -27 26 -47 22 -60 -10 -30 -19 -25 -43 25 -39 80
-26 101 21 35z m72 30 c3 -5 1 -10 -4 -10 -6 0 -11 5 -11 10 0 6 2 10 4 10 3
0 8 -4 11 -10z m-8025 -74 c0 -3 -4 -8 -10 -11 -5 -3 -10 -1 -10 4 0 6 5 11
10 11 6 0 10 -2 10 -4z m3428 -403 c16 -16 63 -49 105 -75 70 -44 80 -55 160
-176 48 -70 91 -141 97 -157 12 -32 4 -222 -10 -230 -4 -2 -29 10 -55 27 -50
33 -99 100 -110 148 -10 44 -30 56 -69 42 -50 -18 -227 -15 -276 4 -42 17 -63
13 -42 -8 33 -33 -20 -39 -55 -6 -13 12 -26 18 -30 15 -11 -12 20 -58 51 -74
27 -14 33 -14 62 2 29 16 42 16 112 6 55 -8 93 -9 123 -2 76 18 81 16 112 -50
27 -57 50 -80 149 -150 l23 -16 -25 -49 c-35 -68 -58 -69 -135 -4 -33 28 -73
58 -89 68 -16 9 -44 30 -63 46 -29 24 -33 33 -28 57 6 27 5 29 -27 29 -26 0
-43 -9 -73 -41 -39 -39 -41 -40 -90 -33 -72 9 -83 17 -77 54 4 27 -2 39 -41
78 l-46 47 13 45 c25 79 87 233 118 293 42 78 71 107 106 107 16 0 35 7 42 15
18 22 36 19 68 -12z m-522 -24 c3 -6 -7 -25 -23 -42 -52 -55 -110 -151 -127
-208 -9 -29 -19 -96 -23 -147 -10 -156 -25 -119 -21 54 3 143 5 164 27 207 29
60 66 104 106 128 34 22 51 24 61 8z m785 -56 c82 -68 160 -148 191 -196 36
-56 53 -64 145 -72 114 -10 130 -14 136 -34 9 -38 171 -91 275 -91 34 0 73 -5
89 -11 31 -12 142 -27 248 -34 39 -2 135 -13 215 -24 80 -12 192 -26 250 -32
58 -6 141 -16 185 -21 113 -15 208 -13 295 5 41 9 125 21 185 27 187 20 346
55 451 100 166 71 246 96 346 110 74 10 106 11 134 2 34 -10 37 -9 51 17 l16
27 216 0 c247 0 298 8 439 74 47 22 94 40 105 40 12 0 33 11 47 25 17 16 46
29 76 35 27 4 58 11 69 14 12 4 28 -1 40 -12 67 -59 76 -118 65 -434 -5 -139
-13 -266 -19 -283 -5 -16 -14 -70 -21 -120 -18 -136 -74 -341 -120 -444 -23
-51 -39 -95 -37 -98 27 -27 123 181 167 362 65 271 87 444 86 690 -1 171 -3
197 -25 263 -19 60 -29 75 -54 88 -26 14 -28 18 -14 26 28 15 64 -19 134 -123
l65 -98 10 -148 c18 -258 1 -463 -58 -703 -61 -247 -63 -260 -42 -260 13 0 18
-8 18 -29 0 -52 -34 -76 -182 -125 -76 -25 -145 -46 -154 -46 -10 0 -45 -6
-78 -14 -148 -34 -206 -40 -385 -38 -114 1 -189 6 -197 13 -7 6 -18 8 -24 4
-7 -4 -10 27 -10 93 0 116 -13 141 -89 174 -77 32 -130 100 -88 112 194 59
258 81 323 114 44 22 97 42 118 46 l39 7 -7 -43 c-13 -83 -120 -281 -217 -404
-33 -41 -56 -74 -52 -74 27 0 74 54 159 181 102 152 143 244 144 319 0 43 2
46 40 62 22 9 42 12 45 7 3 -5 -4 -55 -16 -111 -22 -107 -100 -296 -161 -391
-33 -52 -34 -68 -1 -37 26 24 148 237 162 283 6 17 20 59 32 92 12 33 24 93
28 134 l6 75 50 29 c28 16 52 33 53 38 7 19 32 8 38 -17 22 -88 -106 -444
-193 -535 -18 -19 -21 -29 -12 -34 22 -14 97 98 173 257 44 93 57 132 65 196
10 81 4 129 -20 158 -10 12 -7 19 11 36 41 39 83 144 88 223 4 70 3 76 -41
166 -25 52 -53 111 -61 132 l-15 37 -115 0 c-118 0 -226 -22 -350 -71 -27 -10
-64 -19 -82 -19 -19 0 -87 -18 -151 -39 -65 -22 -149 -46 -188 -54 -77 -16
-329 -91 -560 -167 -220 -71 -609 -168 -733 -181 -103 -11 -111 -10 -217 16
-203 50 -349 96 -435 137 -47 22 -128 55 -180 73 -127 44 -206 74 -322 124
-53 22 -127 46 -165 51 -37 6 -111 21 -162 34 l-95 23 -18 43 c-45 106 -149
246 -205 278 -13 7 -23 17 -23 22 0 20 27 9 71 -27z m-621 -2 c13 -25 13 -138
0 -146 -16 -10 -48 -90 -60 -152 -17 -88 -19 -90 -48 -96 -15 -2 -49 -13 -75
-23 l-49 -19 -20 25 c-16 20 -19 33 -13 77 6 53 53 194 77 234 20 32 141 117
170 119 4 0 12 -9 18 -19z m1140 -301 c0 -5 -4 -10 -9 -10 -6 0 -13 5 -16 10
-3 6 1 10 9 10 9 0 16 -4 16 -10z m3215 1 c3 -5 1 -12 -5 -16 -14 -9 -2 -25
19 -25 28 0 69 -51 76 -95 4 -24 0 -67 -9 -105 -9 -36 -16 -80 -16 -99 0 -27
-9 -42 -47 -78 -27 -24 -75 -63 -108 -87 -76 -54 -292 -167 -365 -191 -30 -10
-80 -28 -111 -41 -30 -12 -84 -27 -120 -33 -35 -5 -147 -23 -249 -40 -102 -16
-243 -35 -315 -41 -129 -12 -166 -23 -130 -36 32 -13 440 29 555 56 25 6 68
15 95 19 64 11 302 89 310 101 4 6 16 10 28 10 12 0 38 11 57 24 19 13 79 45
133 71 76 37 119 67 197 137 81 73 100 95 100 118 0 15 7 62 16 104 14 69 14
81 0 129 -9 30 -28 66 -43 81 -22 22 -24 29 -13 36 19 11 39 -1 83 -49 38 -42
51 -77 68 -184 12 -77 9 -95 -28 -187 -46 -111 -52 -116 -273 -218 -154 -71
-551 -203 -685 -227 -49 -9 -137 -27 -195 -40 -58 -13 -152 -28 -210 -34 -400
-41 -453 -44 -770 -43 -355 0 -540 16 -815 67 -77 15 -176 33 -220 40 -109 20
-231 57 -345 106 -151 65 -160 69 -174 69 -7 0 -25 9 -38 20 -14 11 -59 32
-99 46 -103 38 -106 42 -66 90 51 59 117 176 137 243 11 33 22 93 26 134 l7
74 71 -18 c39 -10 150 -48 246 -84 96 -37 231 -85 300 -107 69 -22 152 -51
185 -63 103 -39 246 -83 355 -110 58 -15 132 -36 165 -47 52 -18 75 -19 168
-14 102 6 150 13 352 52 101 19 236 60 440 133 295 106 520 170 710 201 39 6
90 18 115 26 25 7 110 34 190 58 80 24 161 51 180 59 42 18 57 20 65 8z
m-4423 -146 c-8 -42 -61 -145 -76 -145 -13 0 -94 118 -85 124 15 9 137 45 149
43 9 -2 14 -11 12 -22z m-3827 -229 c19 -8 35 -17 35 -20 0 -4 -41 -6 -91 -6
-61 0 -88 3 -84 11 19 29 88 36 140 15z m-671 -59 c18 -24 22 -46 24 -136 3
-87 1 -110 -12 -120 -11 -9 -20 -10 -35 -1 -18 9 -21 20 -21 72 0 66 -31 148
-69 182 -29 27 -17 37 41 34 42 -2 55 -8 72 -31z m-208 2 c10 -12 29 -25 42
-30 36 -14 62 -82 62 -164 l0 -70 -78 0 -77 0 -7 80 c-5 55 -15 95 -33 128
-14 27 -25 51 -25 53 0 8 45 23 71 23 14 1 34 -8 45 -20z m564 -21 c16 -26 20
-51 20 -122 0 -81 -3 -95 -35 -162 -36 -74 -61 -98 -49 -46 4 15 11 32 15 38
5 6 13 44 19 85 6 41 13 81 16 90 2 9 0 36 -6 60 -6 24 -14 54 -17 67 -8 33
14 27 37 -10z m-883 -8 c35 -20 55 -39 59 -56 10 -41 -2 -38 -46 10 -28 30
-56 50 -81 56 -46 13 -50 20 -11 20 15 0 51 -14 79 -30z m1870 12 c13 -7 25
-26 28 -45 10 -50 11 -125 2 -133 -4 -4 -80 -11 -170 -15 -89 -5 -173 -11
-185 -14 -13 -3 -32 -3 -43 0 -17 6 -19 17 -19 105 0 77 3 101 15 107 24 14
347 9 372 -5z m-670 -11 c51 -24 88 -84 97 -160 l7 -54 -28 7 c-56 14 -204 19
-216 7 -18 -18 -45 -13 -58 11 -14 27 -3 189 14 200 24 15 141 8 184 -11z
m-411 -5 c16 -12 19 -27 19 -95 -1 -45 -5 -85 -10 -90 -6 -5 -38 -12 -72 -16
l-62 -7 24 62 c14 35 27 79 31 99 3 20 7 42 9 49 6 16 37 15 61 -2z m615 -28
c14 -27 1 -108 -18 -108 -11 0 -13 7 -8 31 6 25 2 36 -20 59 -15 16 -25 33
-21 38 9 15 56 1 67 -20z m3489 16 c0 -23 -32 -74 -46 -74 -7 0 -17 14 -23 31
-9 26 -13 29 -30 20 -22 -12 -37 1 -18 17 19 15 39 20 80 21 27 1 37 -3 37
-15z m-220 -78 c0 -3 -4 -8 -10 -11 -5 -3 -10 -1 -10 4 0 6 5 11 10 11 6 0 10
-2 10 -4z m160 -36 c-6 -11 -13 -20 -15 -20 -3 0 -5 9 -5 20 0 11 7 20 15 20
13 0 14 -4 5 -20z m-90 -111 c0 -5 -7 -9 -15 -9 -15 0 -20 12 -9 23 8 8 24 -1
24 -14z m5954 3 c3 -5 -10 -42 -29 -82 -28 -56 -52 -88 -112 -144 -42 -39 -99
-86 -127 -104 -28 -19 -62 -44 -76 -57 -25 -22 -105 -75 -115 -75 -17 0 3 21
60 63 60 44 116 104 250 267 28 33 51 64 53 69 5 14 -26 21 -52 11 -25 -9
-186 -202 -186 -223 0 -27 -203 -197 -218 -182 -2 2 -1 27 3 55 7 51 25 80 50
80 8 0 21 12 29 28 8 15 58 62 113 104 54 42 118 93 143 112 84 67 196 107
214 78z m-9916 -36 c6 -7 -45 -170 -80 -257 -19 -46 -43 -108 -52 -138 -20
-61 -108 -225 -164 -305 -21 -29 -63 -81 -94 -116 -53 -60 -58 -63 -82 -52
-31 14 -42 54 -51 187 -5 77 -2 121 12 190 24 122 22 244 -5 315 -25 62 -28
118 -9 143 8 11 32 17 82 19 70 3 70 3 66 -22 -1 -14 -12 -42 -22 -62 -10 -20
-19 -42 -19 -48 0 -15 37 -12 43 4 3 8 32 22 64 31 37 11 76 32 108 59 75 64
84 67 144 61 30 -3 57 -7 59 -9z m-258 -4 c0 -5 -11 -19 -25 -32 -24 -22 -25
-22 -25 -4 0 11 5 25 12 32 14 14 38 16 38 4z m-1156 -28 c13 -34 -64 -375
-100 -447 -9 -17 -57 -73 -105 -122 -71 -73 -104 -98 -168 -130 l-80 -38 -65
32 -66 32 0 58 c0 32 3 60 6 64 4 3 24 -8 45 -25 25 -20 53 -32 83 -35 41 -5
53 -1 140 51 146 87 222 185 243 314 9 52 -13 38 -36 -23 -44 -118 -82 -167
-173 -223 -21 -13 -38 -27 -38 -31 0 -16 -89 -51 -128 -51 -95 0 -131 56 -117
183 4 39 8 90 9 112 4 65 27 157 50 199 15 29 18 40 9 43 -21 7 -15 33 10 43
12 5 124 9 248 9 198 1 228 -1 233 -15z m826 9 c0 -5 -7 -17 -15 -27 -14 -19
-15 -19 -15 7 0 17 5 27 15 27 8 0 15 -3 15 -7z m-1414 -16 c16 -15 -25 -39
-107 -63 -114 -32 -120 -32 -112 9 11 57 23 64 122 63 49 -1 93 -5 97 -9z
m5859 -27 c3 -5 1 -10 -4 -10 -6 0 -11 5 -11 10 0 6 2 10 4 10 3 0 8 -4 11
-10z m6295 -356 c22 -9 40 -20 40 -24 0 -51 -227 -163 -405 -199 -94 -20 -317
-27 -357 -12 -18 7 -15 9 23 16 24 5 63 7 86 6 23 -2 74 6 115 17 40 11 116
25 168 31 101 11 120 22 120 68 0 34 -24 38 -104 20 -39 -9 -107 -22 -151 -28
-44 -6 -111 -19 -150 -29 -75 -19 -205 -26 -205 -10 0 5 17 12 38 15 20 3 87
15 147 26 61 12 146 28 189 36 43 7 83 16 88 19 17 11 253 61 295 63 13 0 41
-6 63 -15z m-887 -55 c-3 -11 -15 -25 -27 -30 -121 -50 -310 -116 -391 -136
-55 -13 -112 -31 -127 -39 -15 -8 -65 -19 -110 -24 -127 -15 -462 -24 -481
-14 -14 8 -11 15 18 56 l34 46 136 -5 c171 -8 348 10 484 48 58 16 156 41 218
55 63 14 133 34 156 44 23 10 54 19 69 19 22 1 25 -2 21 -20z m-103 -183 c0
-7 -7 -19 -15 -26 -25 -21 -15 -54 18 -58 24 -3 27 -8 27 -38 0 -19 -7 -67
-16 -107 -22 -95 -230 -692 -306 -877 -33 -80 -64 -163 -69 -185 -6 -22 -21
-59 -35 -82 -13 -23 -24 -46 -24 -52 0 -6 -21 -48 -47 -93 -26 -46 -65 -119
-88 -163 -23 -44 -63 -112 -88 -152 -26 -40 -87 -150 -136 -245 -49 -95 -105
-197 -125 -227 -20 -29 -36 -58 -36 -65 0 -6 -9 -30 -20 -51 -11 -22 -32 -78
-46 -125 -14 -47 -36 -98 -48 -115 -13 -16 -31 -45 -40 -62 l-17 -33 -109 0
c-60 0 -142 -4 -182 -9 -40 -6 -124 -15 -186 -22 -105 -11 -114 -10 -133 7
-20 18 -21 17 -42 -9 -19 -23 -31 -28 -92 -32 -111 -8 -625 -35 -675 -35 -25
0 -147 -3 -272 -6 l-228 -5 -10 25 c-12 33 -33 33 -48 1 -11 -24 -15 -25 -110
-25 -86 0 -103 3 -126 21 -25 19 -31 20 -64 10 -20 -7 -64 -11 -97 -9 -76 4
-85 25 -26 63 23 14 41 30 41 35 0 21 -33 9 -97 -35 -36 -25 -68 -43 -71 -41
-2 3 38 58 90 123 52 65 136 174 187 243 51 69 117 150 146 180 28 30 97 111
152 180 179 223 237 268 532 405 88 41 173 83 188 93 16 11 53 36 83 55 143
94 280 209 280 233 0 8 -3 14 -7 14 -5 0 -70 -49 -146 -108 -128 -101 -157
-118 -425 -252 -340 -170 -418 -226 -567 -404 -51 -61 -105 -122 -120 -136
-15 -14 -43 -47 -61 -75 -113 -164 -249 -339 -350 -450 l-82 -90 -70 5 c-39 3
-73 8 -77 12 -4 4 -1 15 6 26 23 32 156 176 310 336 202 210 286 301 349 376
30 36 61 72 70 80 54 50 132 141 126 147 -4 4 -36 -24 -72 -62 -36 -39 -111
-119 -167 -180 -56 -60 -178 -189 -272 -286 -179 -185 -340 -357 -374 -401
-21 -26 -64 -43 -82 -32 -6 4 -6 11 2 20 9 11 7 14 -9 14 -12 0 -24 -4 -27
-10 -7 -12 -45 -13 -63 -2 -9 6 19 41 95 120 133 137 249 268 307 347 24 33
99 119 165 190 67 72 158 172 203 224 98 112 214 207 272 222 22 5 106 43 186
84 80 40 190 92 245 115 55 22 111 48 124 57 14 9 26 12 28 7 15 -41 22 -38
115 52 51 49 123 114 161 143 37 29 69 63 71 74 18 90 -13 54 329 377 82 77
157 140 167 140 9 0 23 -7 31 -16 24 -29 109 5 109 43 0 8 -12 25 -26 39 l-25
26 98 95 c54 52 128 119 164 148 37 30 81 72 98 94 l33 41 101 1 c56 0 143 4
192 8 50 4 91 7 93 5 2 -1 -4 -9 -13 -17 -33 -34 2 -59 43 -30 40 29 43 30
137 47 50 10 164 41 255 71 220 71 330 92 330 61z m213 -43 c4 -2 7 -13 7 -23
0 -19 -1 -19 -45 2 -25 12 -45 26 -45 30 0 8 65 1 83 -9z m251 -40 c115 -139
257 -245 463 -347 l128 -63 -42 -21 -42 -22 -75 48 c-41 26 -143 94 -225 150
-146 101 -211 158 -211 186 0 21 -58 66 -84 66 -22 0 -46 17 -46 32 0 4 23 8
51 8 48 0 54 -3 83 -37z m-179 -335 c21 -35 47 -76 59 -93 13 -16 49 -75 81
-130 33 -55 74 -120 92 -144 44 -59 44 -72 -4 -59 -20 5 -47 17 -61 26 -36 24
-192 343 -206 425 -4 20 -5 37 -2 37 3 0 21 -28 41 -62z m-1167 -2090 c-24
-51 -52 -109 -61 -128 l-16 -35 0 29 c-1 39 99 250 112 237 7 -7 -5 -42 -35
-103z m-253 -311 c-4 -12 -10 -67 -14 -122 -4 -55 -11 -108 -15 -117 -6 -14
-3 -18 13 -18 25 0 50 -36 58 -82 l5 -35 -48 -6 c-27 -3 -64 -9 -81 -13 -42
-8 -42 5 -3 49 29 34 38 57 22 57 -5 0 -18 -13 -30 -30 -26 -35 -38 -38 -47
-11 -4 13 14 60 50 134 66 134 76 176 47 194 -22 13 -23 13 -84 -90 -24 -40
-32 -67 -35 -117 -5 -71 -25 -114 -88 -187 -40 -47 -55 -52 -80 -26 -13 13
-16 30 -13 79 3 53 11 73 57 148 44 72 54 97 58 146 l6 59 61 3 c166 9 169 9
161 -15z m-255 -7 c0 -11 -15 -40 -34 -65 -36 -47 -68 -123 -80 -189 -9 -49
-17 -60 -84 -119 -57 -51 -89 -58 -117 -27 -14 15 -17 31 -13 77 4 57 23 103
82 206 27 46 28 49 10 68 -25 28 -10 38 82 53 122 21 154 20 154 -4z m-2740 6
c0 -3 -30 -25 -68 -49 -99 -66 -237 -192 -294 -269 l-50 -68 -59 0 c-32 0 -59
4 -59 8 0 20 185 179 240 207 19 9 46 27 60 40 72 66 230 155 230 131z m114
-45 c-58 -98 -133 -178 -222 -237 -52 -35 -109 -65 -130 -68 -20 -4 -51 -9
-68 -12 -18 -3 -34 -1 -38 4 -8 13 53 93 102 135 20 17 51 46 68 63 31 32 192
140 228 154 12 4 33 3 48 -2 27 -10 28 -11 12 -37z m2343 13 c11 -29 -17 -117
-58 -186 l-40 -68 11 -62 c7 -34 16 -71 22 -82 12 -23 -6 -38 -38 -30 -12 3
-39 1 -60 -5 -54 -15 -67 1 -28 37 38 34 69 80 60 89 -3 3 -24 -15 -46 -40
-48 -54 -98 -87 -132 -87 -49 0 -108 88 -108 160 0 14 26 64 59 113 33 48 62
99 65 112 5 20 14 25 54 30 26 3 83 12 127 19 106 18 105 18 112 0z m-2121 -6
c9 -10 -48 -82 -100 -127 -26 -23 -59 -55 -74 -72 -50 -61 -162 -149 -187
-149 -32 0 -32 17 0 85 18 36 54 81 118 142 50 49 100 99 110 112 17 21 25 23
73 19 30 -3 57 -7 60 -10z m267 -23 c33 -4 57 -11 57 -18 0 -7 -14 -39 -32
-72 -28 -53 -32 -72 -37 -165 l-6 -105 -34 -3 c-45 -5 -81 5 -81 21 0 7 16 28
37 46 28 25 33 35 24 44 -10 9 -19 5 -41 -22 -35 -42 -113 -71 -167 -62 -34 6
-38 10 -41 38 -2 18 6 49 18 72 32 63 120 180 140 186 10 3 21 12 24 21 7 17
45 34 66 29 8 -2 41 -6 73 -10z m-453 -11 c0 -8 -5 -12 -10 -9 -6 4 -8 11 -5
16 9 14 15 11 15 -7z m1910 6 c0 -6 -13 -39 -29 -74 -16 -35 -32 -82 -36 -103
-3 -21 -12 -48 -18 -60 -17 -31 -183 -162 -215 -169 -15 -3 -42 -10 -60 -14
-40 -10 -54 2 -72 64 -12 44 -12 47 33 138 24 51 53 116 63 143 9 28 20 54 24
58 4 4 58 11 121 16 167 12 189 12 189 1z m845 -61 c-10 -21 -22 -36 -27 -33
-11 7 -2 40 20 74 23 36 28 7 7 -41z m-1229 37 c3 -8 -13 -47 -35 -88 -22 -40
-45 -96 -51 -124 -9 -44 -19 -58 -67 -100 -81 -70 -104 -84 -141 -84 -72 0
-93 32 -82 127 7 53 14 69 48 108 41 47 72 102 72 128 0 26 20 32 130 38 58 3
109 6 113 7 4 1 10 -4 13 -12z m-684 -13 c12 -7 -25 -72 -91 -158 -34 -44 -77
-101 -96 -126 -45 -59 -78 -74 -133 -59 -23 6 -43 14 -46 18 -4 7 1 44 24 170
8 46 17 61 67 112 l58 58 105 -5 c58 -3 108 -7 112 -10z m368 -1 c0 -3 -15
-28 -34 -57 -19 -28 -47 -82 -62 -120 -33 -81 -77 -129 -158 -169 -77 -39
-121 -39 -153 -1 -23 26 -25 35 -19 83 6 54 45 136 108 229 l29 42 127 3 c125
3 162 1 162 -10z m750 -21 c-6 -12 -17 -21 -26 -21 -11 0 -10 7 8 31 24 32 37
25 18 -10z m620 12 c0 -5 -9 -19 -20 -33 -21 -26 -27 -12 -10 21 10 19 30 26
30 12z m-2450 -121 c0 -4 -8 -19 -17 -32 -10 -14 -20 -45 -23 -70 l-5 -45 -50
0 c-75 0 -73 24 6 96 59 54 89 71 89 51z m-345 -79 c-18 -73 -24 -78 -103 -79
-40 -1 -70 2 -65 6 4 4 35 22 68 39 33 18 67 39 75 47 22 22 33 17 25 -13z
m2076 -71 c6 -20 18 -49 26 -64 7 -15 13 -30 13 -34 0 -3 -49 -7 -110 -8 -128
-3 -135 4 -62 57 26 20 60 49 76 66 16 17 33 28 37 26 4 -3 13 -22 20 -43z
m-1101 -59 c7 -17 5 -22 -13 -27 -29 -7 -107 5 -107 17 0 5 21 30 47 56 l47
46 9 -35 c5 -19 13 -45 17 -57z m1720 51 c15 -45 5 -56 -45 -52 -48 4 -53 17
-20 57 35 40 51 39 65 -5z m191 -5 c-18 -14 -27 -17 -35 -9 -8 8 -4 16 14 30
35 26 54 6 21 -21z m-4004 -25 c7 -18 -91 -123 -104 -111 -8 9 13 95 29 114
15 19 67 16 75 -3z m2436 -11 c7 -35 -8 -53 -44 -53 -41 0 -45 18 -13 50 37
36 50 36 57 3z m342 -24 c6 -23 3 -27 -19 -33 -32 -8 -76 2 -76 18 0 6 14 23
32 38 37 30 51 24 63 -23z m-1897 1 c15 -9 14 -10 -6 -16 -89 -25 -450 -201
-499 -244 -9 -8 -16 -1 -28 26 -8 20 -15 40 -15 43 0 17 61 63 120 90 36 16
83 44 105 61 69 56 89 61 203 55 57 -3 111 -9 120 -15z m465 -11 c26 -5 79 -9
117 -9 61 0 68 -2 63 -18 -2 -10 -12 -22 -22 -27 -10 -6 -46 -25 -81 -43 -83
-45 -198 -133 -290 -224 l-76 -75 -109 4 c-166 7 -207 22 -172 64 6 9 64 54
127 101 63 47 158 122 210 166 105 89 99 87 233 61z m-5583 -40 c0 -105 -195
-259 -327 -259 -12 0 -48 -7 -79 -15 -49 -13 -104 -13 -378 -5 -373 12 -601
26 -669 41 -49 11 -87 46 -87 79 0 9 7 38 16 63 21 63 46 69 123 29 128 -67
279 -93 536 -94 107 0 186 5 240 16 44 9 96 16 115 16 19 0 94 16 165 36 72
20 145 40 163 44 19 5 42 16 53 26 29 26 113 73 122 67 4 -2 7 -22 7 -44z
m5320 38 c0 -27 -152 -155 -334 -281 -98 -68 -126 -70 -210 -15 -36 24 -66 48
-66 54 0 12 168 104 220 121 19 6 67 26 105 44 165 76 285 108 285 77z m-826
-209 c42 -48 45 -62 14 -55 -19 5 -26 -1 -38 -26 -15 -31 -17 -32 -70 -29 -50
3 -225 68 -254 94 -21 18 14 27 154 41 80 8 148 15 152 16 3 0 23 -18 42 -41z
m210 -84 c33 -23 36 -28 22 -36 -12 -7 -27 -3 -51 12 -35 22 -41 31 -28 43 10
11 16 9 57 -19z m-90 -47 c-8 -21 -34 -22 -60 -1 -18 14 -17 15 18 9 33 -5 37
-4 31 12 -4 13 -3 15 6 7 6 -6 9 -18 5 -27z m281 -87 c16 -14 26 -16 45 -8 32
12 254 3 298 -13 34 -12 41 -29 19 -47 -9 -8 -108 -12 -288 -14 l-274 -2 -85
31 c-47 17 -78 33 -70 36 79 25 261 49 310 40 14 -2 34 -13 45 -23z m4160 -20
c-3 -5 -19 -10 -36 -10 -16 0 -29 5 -29 10 0 6 16 10 36 10 21 0 33 -4 29 -10z
m-1335 -90 c0 -5 -5 -10 -11 -10 -5 0 -7 5 -4 10 3 6 8 10 11 10 2 0 4 -4 4
-10z m173 -87 c-7 -2 -21 -2 -30 0 -10 3 -4 5 12 5 17 0 24 -2 18 -5z m797
-13 c0 -5 -11 -10 -24 -10 -14 0 -28 5 -31 10 -4 6 7 10 24 10 17 0 31 -4 31
-10z"/>
<path d="M10587 7135 c-4 -9 9 -31 35 -57 52 -55 79 -129 83 -233 1 -44 6 -93
9 -110 11 -51 -3 -58 -62 -30 -58 28 -77 52 -87 110 -5 29 -20 53 -55 88 -27
27 -54 46 -59 42 -6 -3 -11 -27 -11 -53 -1 -26 -7 -58 -15 -72 -8 -14 -14 -48
-15 -76 0 -40 5 -55 23 -71 35 -32 92 -46 169 -41 58 5 68 3 66 -10 -4 -18
-176 -79 -263 -93 -33 -6 -79 -21 -102 -35 -39 -23 -43 -28 -43 -64 0 -22 5
-40 10 -40 6 0 19 -9 30 -20 16 -16 20 -33 20 -86 0 -75 20 -127 58 -152 39
-25 69 -1 102 80 24 58 26 69 13 80 -11 9 -21 8 -44 -6 -32 -19 -49 -14 -49
12 0 35 -22 92 -45 121 -14 16 -25 31 -25 34 0 3 33 13 73 22 89 22 215 71
242 94 11 9 39 25 62 35 51 22 101 72 87 86 -6 6 -7 39 -3 85 4 42 6 120 5
173 -2 79 -7 106 -27 147 l-24 50 -76 3 c-61 2 -78 0 -82 -13z m-53 -401 c1
-46 -14 -52 -50 -20 -23 20 -25 25 -11 26 11 0 17 8 17 23 0 58 42 31 44 -29z"/>
<path d="M10886 6422 c-10 -16 22 -53 101 -117 64 -52 99 -92 162 -183 45 -64
87 -125 95 -134 16 -21 36 -24 36 -5 0 32 -59 177 -92 227 -59 88 -155 175
-218 199 -59 23 -76 25 -84 13z"/>
<path d="M10797 6389 c-17 -10 -18 -12 -1 -30 16 -18 15 -19 -10 -29 -15 -5
-34 -10 -42 -10 -25 0 -39 -45 -26 -87 6 -21 13 -50 17 -65 8 -43 50 -83 127
-121 58 -29 87 -37 138 -39 54 -3 65 0 68 14 2 12 -13 27 -48 49 -61 38 -102
110 -122 215 -17 94 -53 131 -101 103z m76 -210 c31 -56 30 -67 -3 -49 -22 12
-40 48 -40 81 0 32 13 22 43 -32z"/>
<path d="M2876 7135 c-93 -26 -165 -127 -153 -216 6 -46 46 -110 86 -135 18
-13 53 -19 112 -22 l86 -4 36 37 c104 107 114 243 25 320 -36 30 -48 35 -92
34 -28 0 -73 -7 -100 -14z m114 -31 c39 -8 65 -47 75 -110 5 -36 2 -52 -20
-92 -37 -68 -82 -96 -146 -90 -73 7 -133 51 -137 101 -5 56 28 120 85 161 49
36 79 42 143 30z"/>
<path d="M2900 7032 c-47 -38 19 -88 77 -60 29 14 33 39 11 66 -15 18 -62 15
-88 -6z"/>
<path d="M1000 5120 c-19 -5 -61 -12 -92 -15 -32 -4 -58 -11 -58 -17 0 -6 16
-7 43 -3 133 21 167 28 167 36 0 10 -12 10 -60 -1z"/>
<path d="M11420 5678 c0 -7 7 -38 15 -68 9 -30 18 -89 21 -130 3 -41 8 -92 11
-113 8 -55 -15 -314 -38 -442 -12 -60 -34 -155 -51 -210 -30 -102 -95 -272
-110 -290 -4 -5 -8 -15 -8 -23 0 -30 26 8 59 85 19 43 51 117 72 166 22 48 39
93 39 100 0 8 8 38 19 69 10 30 29 110 42 179 31 165 34 502 6 586 -25 72 -77
134 -77 91z"/>
<path d="M11747 5273 c-3 -48 -16 -142 -27 -208 -12 -66 -25 -142 -30 -170 -4
-27 -17 -85 -29 -128 -11 -43 -23 -113 -27 -155 -4 -42 -13 -92 -20 -111 -15
-36 -19 -81 -6 -81 11 1 92 257 97 310 3 25 8 83 11 130 2 47 14 123 26 170
23 94 37 305 21 321 -7 7 -12 -21 -16 -78z"/>
<path d="M11287 3953 c-4 -3 -7 -15 -7 -25 0 -11 -11 -23 -25 -28 -22 -8 -24
-13 -15 -30 9 -16 21 -20 61 -20 69 0 89 13 89 55 0 24 -6 38 -19 45 -22 11
-74 14 -84 3z m63 -43 c0 -5 -5 -10 -11 -10 -5 0 -7 5 -4 10 3 6 8 10 11 10 2
0 4 -4 4 -10z"/>
<path d="M10899 3679 c-14 -14 -19 -30 -17 -52 3 -28 7 -32 35 -35 23 -2 40 4
64 26 l33 29 -27 27 c-31 31 -60 33 -88 5z"/>
<path d="M10331 3656 c-16 -19 -7 -46 14 -46 22 0 30 29 13 46 -13 13 -16 13
-27 0z"/>
<path d="M11173 3444 c-3 -8 2 -23 11 -32 14 -15 18 -15 31 -1 9 9 13 23 9 32
-8 21 -43 22 -51 1z"/>
<path d="M10499 3419 c-25 -48 46 -107 78 -64 20 28 16 51 -12 69 -33 22 -52
20 -66 -5z"/>
<path d="M10937 3233 c-18 -17 -5 -40 30 -51 50 -15 60 -5 27 29 -27 29 -44
35 -57 22z"/>
<path d="M9893 3124 c-7 -20 12 -63 32 -70 18 -7 45 12 45 32 0 17 -39 54 -57
54 -8 0 -16 -7 -20 -16z"/>
<path d="M10402 3048 c-17 -17 -15 -38 8 -76 18 -29 22 -31 43 -21 12 7 25 17
29 23 32 47 -41 113 -80 74z"/>
<path d="M10973 2868 c-23 -11 -40 -44 -29 -55 3 -4 18 -1 33 6 23 11 29 10
40 -6 11 -14 17 -15 31 -7 22 14 27 41 12 59 -14 17 -55 18 -87 3z"/>
<path d="M10701 2824 c-12 -14 -12 -17 0 -25 20 -13 34 -6 37 19 4 26 -16 29
-37 6z"/>
<path d="M9335 2714 c-11 -11 -13 -20 -6 -27 13 -13 41 -2 41 17 0 23 -17 28
-35 10z"/>
<path d="M9723 2693 c-18 -7 -16 -38 3 -57 22 -22 67 -20 90 5 19 21 18 21 -5
40 -22 18 -61 23 -88 12z"/>
<path d="M10271 2661 c-22 -40 73 -83 107 -49 22 22 13 46 -19 57 -47 16 -77
13 -88 -8z"/>
<path d="M10752 2514 c-35 -24 -30 -70 11 -94 41 -25 41 -25 55 5 35 75 -7
131 -66 89z"/>
<path d="M10452 2331 c-38 -34 -39 -42 -11 -67 17 -15 22 -16 29 -4 5 8 6 18
4 22 -3 5 9 13 26 19 24 9 30 17 28 33 -5 32 -40 31 -76 -3z"/>
<path d="M10158 2284 c-21 -13 -38 -32 -38 -42 0 -21 18 -42 36 -42 20 0 75
76 68 94 -8 21 -22 19 -66 -10z"/>
<path d="M9783 2264 c-16 -25 -16 -27 8 -45 36 -27 49 -24 49 14 0 31 -14 57
-32 57 -4 0 -15 -12 -25 -26z"/>
<path d="M9435 2246 c-26 -19 -13 -46 23 -46 33 0 57 22 48 45 -7 19 -46 20
-71 1z"/>
<path d="M8880 2080 c-24 -24 -26 -57 -4 -88 l15 -22 26 20 c14 11 36 20 49
20 33 0 57 27 44 50 -23 43 -96 54 -130 20z"/>
<path d="M10222 2003 c-10 -4 -10 -8 0 -20 11 -14 10 -15 -8 -9 -19 6 -22 2
-28 -40 -7 -52 -3 -64 23 -64 26 0 37 18 45 71 7 48 -5 71 -32 62z"/>
<path d="M10530 1949 c0 -12 -8 -23 -20 -26 -27 -7 -25 -21 4 -35 39 -17 56
-4 56 42 0 33 -3 40 -20 40 -14 0 -20 -7 -20 -21z"/>
<path d="M8541 1675 c-63 -73 -19 -110 64 -54 71 48 72 74 4 85 -31 5 -39 2
-68 -31z"/>
<path d="M9272 1674 c-45 -31 -19 -84 41 -84 38 0 53 24 33 55 -24 37 -49 47
-74 29z"/>
<path d="M8900 1425 c-19 -23 -4 -45 30 -45 32 0 36 9 20 41 -13 23 -33 25
-50 4z"/>
<path d="M12520 8670 c-9 -17 -6 -26 16 -53 34 -42 43 -46 81 -40 47 7 49 30
4 74 -44 44 -84 52 -101 19z"/>
<path d="M12590 8527 c-31 -16 -88 -91 -95 -125 -3 -15 -9 -39 -14 -54 -10
-30 -1 -41 37 -51 34 -8 52 2 52 27 0 15 9 27 25 34 19 9 25 19 25 42 0 16 7
48 16 70 25 63 8 84 -46 57z"/>
<path d="M12186 8428 c-9 -12 -16 -28 -16 -34 0 -16 52 -95 58 -89 2 2 7 29 9
60 7 77 -19 109 -51 63z"/>
<path d="M12408 8236 c-30 -24 -61 -53 -69 -64 -8 -11 -41 -50 -73 -86 -32
-37 -56 -69 -53 -72 3 -3 51 35 107 85 89 80 105 91 138 91 58 0 82 39 46 74
-23 24 -37 20 -96 -28z"/>
<path d="M4845 573 c-134 -8 -175 -15 -175 -29 0 -22 262 -20 281 2 10 13 10
17 -2 25 -8 5 -23 8 -34 7 -11 -1 -42 -3 -70 -5z"/>
<path d="M4403 522 c-76 -6 -186 -16 -245 -20 -110 -9 -130 -14 -111 -33 14
-14 593 36 593 52 0 13 -97 14 -237 1z"/>
<path d="M12480 245 c-36 -8 -180 -21 -320 -30 -140 -8 -275 -20 -300 -24 -25
-5 -48 -7 -52 -5 -4 2 -10 -1 -14 -7 -7 -12 174 -7 426 11 85 6 137 5 200 -6
110 -18 145 -17 160 2 16 19 2 68 -20 70 -8 1 -44 -4 -80 -11z"/>
</g>
</svg>
