<?xml version="1.0" standalone="no"?>
<!DOCTYPE svg PUBLIC "-//W3C//DTD SVG 20010904//EN"
 "http://www.w3.org/TR/2001/REC-SVG-20010904/DTD/svg10.dtd">
<svg version="1.0" xmlns="http://www.w3.org/2000/svg"
 width="1280.000000pt" height="872.000000pt" viewBox="0 0 1280.000000 872.000000"
 preserveAspectRatio="xMidYMid meet">
<metadata>
Created by potrace 1.15, written by Peter Selinger 2001-2017
</metadata>
<g transform="translate(0.000000,872.000000) scale(0.100000,-0.100000)"
fill="#000000" stroke="none">
<path d="M6326 8695 c-84 -30 -90 -35 -104 -83 -7 -21 -21 -47 -32 -57 -11
-10 -20 -27 -20 -38 0 -33 23 -100 42 -126 10 -13 18 -30 18 -38 0 -9 12 -37
26 -63 l26 -48 -70 -88 c-38 -49 -110 -152 -159 -229 -100 -156 -142 -217
-224 -326 -30 -41 -81 -123 -114 -184 -32 -60 -73 -131 -92 -158 -35 -47 -38
-77 -9 -77 26 0 26 -17 0 -65 -19 -33 -23 -50 -16 -57 16 -16 34 2 82 82 43
74 145 200 161 200 22 0 5 -35 -40 -83 -27 -29 -63 -74 -80 -102 -16 -27 -47
-77 -67 -110 -19 -33 -45 -70 -56 -81 -11 -12 -15 -24 -10 -28 5 -3 18 5 29
17 30 34 103 142 103 153 0 17 95 104 113 104 35 0 19 -50 -36 -114 -30 -34
-57 -70 -60 -80 -8 -21 -10 -22 64 37 52 42 89 49 89 17 0 -34 89 -232 121
-268 17 -19 35 -44 41 -56 5 -11 40 -45 76 -73 101 -80 195 -106 372 -105 154
1 215 -10 206 -36 -44 -132 -55 -158 -73 -167 -10 -5 -49 -39 -85 -75 -36 -36
-107 -101 -158 -145 -107 -93 -107 -92 -224 -219 -49 -53 -109 -126 -133 -162
-29 -42 -55 -70 -76 -78 -75 -32 -237 -77 -297 -83 -36 -3 -82 -12 -104 -20
-56 -19 -309 -17 -412 3 -78 15 -86 15 -201 -5 -65 -12 -166 -23 -224 -25
-105 -4 -163 -20 -188 -50 -18 -21 -34 -10 -21 14 14 26 -12 43 -69 44 -27 1
-56 7 -65 15 -23 20 -77 114 -106 186 -29 73 -47 105 -125 220 -34 50 -79 124
-101 165 -66 123 -231 380 -245 380 -5 0 -9 7 -9 16 0 9 -20 40 -44 68 -23 28
-65 85 -91 126 -26 41 -68 98 -93 125 -25 28 -59 71 -76 96 -107 159 -162 235
-214 295 -32 38 -106 141 -164 229 -58 88 -117 171 -132 184 -14 14 -26 30
-26 37 0 6 -19 34 -43 60 -24 27 -67 78 -96 114 -57 69 -140 148 -343 322 -71
60 -148 136 -173 168 -51 66 -83 80 -123 54 -55 -36 -115 -126 -126 -189 -4
-22 -21 -83 -37 -135 -17 -52 -40 -126 -52 -165 -44 -143 -97 -216 -273 -373
-68 -61 -100 -97 -124 -144 -66 -126 -108 -204 -145 -272 -21 -38 -53 -105
-71 -148 -18 -43 -47 -96 -65 -119 -28 -36 -93 -149 -151 -262 -10 -21 -66
-89 -124 -150 -121 -128 -146 -173 -175 -312 -11 -55 -27 -124 -36 -153 -8
-29 -18 -74 -22 -100 -5 -26 -25 -103 -45 -172 -31 -104 -39 -151 -47 -275
-12 -178 -20 -215 -59 -258 -34 -39 -125 -186 -135 -219 -7 -21 -75 -121 -109
-160 -9 -10 -28 -20 -43 -24 -48 -10 -125 -43 -175 -75 -44 -28 -50 -37 -69
-100 -11 -37 -18 -73 -14 -78 8 -15 -27 -92 -54 -115 -16 -15 -21 -30 -21 -70
l0 -51 36 40 c55 63 94 127 94 155 0 46 29 126 54 151 34 34 114 65 129 50 8
-8 5 -17 -11 -34 -29 -31 -29 -59 0 -55 20 3 35 22 102 139 12 20 39 63 61 95
22 33 45 67 50 76 33 54 108 158 133 185 78 84 100 145 108 302 6 113 36 276
74 396 10 33 29 93 40 134 12 40 32 96 45 125 12 28 26 78 29 111 11 91 35
131 144 245 75 78 110 124 141 185 23 44 68 116 101 160 70 94 99 146 140 251
17 42 39 87 49 100 9 12 34 62 54 111 66 159 88 186 231 294 123 93 175 141
176 165 0 6 20 52 45 103 25 51 45 99 45 108 0 8 16 63 35 120 19 58 33 108
30 112 -7 12 23 100 45 131 40 56 59 46 220 -118 80 -81 187 -196 239 -255 51
-59 97 -107 102 -107 5 0 9 -6 9 -13 0 -13 104 -147 148 -192 35 -35 160 -203
232 -310 38 -57 80 -110 92 -119 13 -9 43 -49 68 -90 59 -99 216 -330 330
-486 50 -69 116 -163 147 -210 31 -47 74 -108 94 -136 21 -29 41 -65 45 -80
10 -38 71 -161 99 -199 12 -17 32 -53 45 -80 12 -28 34 -63 47 -80 13 -16 58
-81 99 -144 75 -114 75 -114 55 -135 -23 -25 -67 -120 -90 -196 -23 -74 -25
-76 -461 -302 -63 -33 -155 -84 -205 -113 -49 -29 -160 -91 -245 -137 -85 -47
-274 -154 -420 -238 -146 -84 -310 -176 -365 -205 -55 -28 -111 -58 -125 -66
-14 -9 -63 -37 -110 -64 -47 -26 -114 -67 -150 -90 -56 -36 -162 -94 -395
-214 -27 -15 -61 -33 -75 -42 -14 -9 -61 -38 -105 -64 -160 -95 -191 -114
-218 -135 l-28 -22 -142 45 c-168 54 -273 77 -342 77 -28 0 -105 7 -170 16
-130 17 -262 13 -350 -10 -27 -8 -63 -17 -80 -21 -19 -4 -57 -35 -103 -81 -73
-75 -73 -75 -70 -124 l3 -50 77 89 c103 118 121 126 262 116 61 -4 131 -7 156
-7 98 3 284 -27 370 -59 47 -17 108 -38 135 -46 140 -42 245 -126 293 -234 20
-46 54 -76 179 -157 37 -23 44 -34 53 -80 10 -46 9 -62 -10 -125 -12 -40 -28
-79 -35 -87 -7 -8 -17 -28 -21 -44 -9 -36 -68 -96 -95 -96 -11 0 -62 20 -112
44 -130 62 -167 72 -302 85 -180 18 -356 64 -472 124 -106 56 -348 172 -386
186 -43 16 -32 31 24 31 73 0 124 -15 308 -87 89 -35 173 -63 185 -61 14 2 22
11 24 29 3 23 -4 29 -55 51 -106 47 -187 77 -249 91 -33 8 -70 19 -82 26 -11
6 -51 18 -88 27 -67 15 -69 15 -116 -7 l-48 -22 0 -64 c0 -42 4 -63 12 -63 7
0 107 -47 223 -104 115 -57 239 -112 275 -122 36 -10 96 -30 134 -46 38 -15
82 -28 98 -28 16 0 38 -5 50 -11 11 -6 70 -17 132 -24 188 -23 210 -30 390
-120 94 -47 180 -85 189 -85 21 0 93 -35 102 -50 4 -6 -5 -24 -19 -41 -14 -17
-26 -40 -26 -53 0 -78 73 -215 145 -273 34 -27 46 -53 25 -53 -6 0 -27 -7 -48
-16 -35 -15 -36 -16 -18 -30 17 -12 23 -12 42 1 50 32 195 9 254 -40 8 -7 49
-27 90 -44 140 -59 190 -85 187 -95 -2 -6 -27 -27 -55 -46 -28 -19 -66 -56
-83 -82 -17 -26 -65 -80 -107 -119 -68 -64 -75 -72 -59 -84 9 -7 17 -15 17
-18 0 -13 -82 -48 -127 -54 -26 -3 -80 -21 -120 -40 -39 -18 -81 -33 -92 -33
-11 0 -48 20 -83 44 -35 24 -103 62 -151 84 -75 35 -91 47 -117 88 -39 62 -39
86 3 108 88 47 129 77 217 163 53 52 106 100 118 109 23 16 29 39 12 49 -14 9
-66 -21 -133 -77 -32 -27 -94 -66 -136 -87 -102 -52 -193 -152 -207 -228 -6
-31 -69 -131 -93 -149 -12 -9 -16 -31 -16 -95 l0 -84 34 -3 c28 -3 41 3 75 36
22 22 50 42 61 46 39 11 44 -3 33 -102 -17 -149 9 -177 90 -97 24 25 46 45 48
45 2 0 4 -20 4 -44 0 -27 7 -52 18 -66 17 -21 18 -21 82 -5 55 13 81 14 175 5
111 -11 276 -14 568 -10 87 2 160 0 164 -3 12 -13 -21 -68 -49 -83 -40 -21
-54 -55 -38 -93 11 -28 10 -34 -18 -76 -28 -43 -30 -51 -30 -147 -1 -108 6
-130 54 -187 32 -39 66 -41 91 -5 10 14 37 47 59 74 23 26 44 54 47 62 3 9 8
10 15 3 13 -13 42 -133 36 -149 -3 -7 2 -18 10 -25 12 -10 23 -7 61 15 59 34
73 24 56 -41 -12 -50 -2 -85 25 -85 8 0 38 14 67 30 57 32 103 37 155 19 27
-9 37 -8 66 11 31 18 54 21 193 25 87 3 257 10 378 16 121 6 351 13 510 15
245 4 290 6 293 19 3 12 8 11 30 -5 24 -18 46 -20 232 -23 113 -1 210 -5 215
-9 6 -3 93 -5 195 -4 102 1 193 -2 203 -7 12 -5 32 -3 57 7 22 9 46 13 54 10
19 -7 194 14 217 27 11 5 19 20 19 34 0 22 -3 24 -77 27 -43 2 -203 -3 -357
-10 -267 -13 -348 -10 -283 8 27 8 182 19 362 25 50 1 150 8 224 15 94 9 150
9 190 2 34 -6 214 -9 461 -7 332 3 415 6 463 19 32 9 83 16 114 16 l56 0 -7
-41 c-9 -54 5 -71 45 -57 16 5 34 19 40 29 17 32 29 29 254 -82 33 -16 68 -29
77 -29 10 0 57 -12 105 -26 63 -18 100 -23 130 -19 45 6 61 -4 104 -65 l15
-23 31 33 c38 41 64 35 86 -20 9 -23 22 -40 31 -40 9 0 16 4 16 10 0 17 124
90 142 84 10 -3 40 7 66 21 65 35 133 33 142 -5 7 -31 46 -39 65 -14 10 15 24
18 69 15 172 -10 1375 4 1434 17 30 6 32 9 19 26 -11 15 -33 20 -123 27 -60 5
-167 15 -239 23 -231 26 -295 28 -615 16 -310 -12 -608 -14 -643 -4 -12 4 -16
11 -12 22 4 10 9 37 12 62 4 43 -7 87 -87 336 -8 24 -6 46 11 100 31 101 35
104 141 104 62 0 98 5 120 16 17 9 39 13 50 11 10 -3 35 1 53 9 40 16 148 19
176 4 23 -13 25 -47 5 -87 -29 -59 -56 -140 -56 -170 0 -17 8 -40 18 -52 16
-20 23 -21 86 -14 l69 8 83 120 c55 78 89 140 101 178 9 32 23 63 30 69 7 6
60 14 117 18 57 4 109 11 116 15 6 4 51 13 98 20 48 7 108 18 133 25 25 7 53
10 62 7 32 -12 107 -144 141 -249 18 -57 50 -136 70 -177 20 -41 36 -79 36
-85 0 -12 80 -199 110 -256 10 -19 21 -46 25 -60 4 -14 18 -50 32 -80 14 -30
34 -82 44 -115 60 -198 69 -228 65 -232 -2 -3 -14 1 -26 7 -45 24 -70 -15 -28
-44 28 -20 103 -21 195 -3 81 16 295 15 388 -3 41 -8 75 -9 92 -3 38 12 857
-4 905 -17 29 -8 45 -7 75 5 20 9 44 13 52 9 9 -4 93 -8 187 -10 142 -3 174
-1 184 11 13 16 61 20 74 8 4 -5 51 -9 103 -10 81 -2 98 0 109 15 9 12 9 21 2
29 -8 10 -5 13 10 13 11 0 22 -8 25 -19 5 -21 33 -19 72 5 28 17 166 27 200
14 18 -7 39 -7 64 0 28 7 69 6 151 -5 150 -20 142 -21 138 18 -3 31 -5 32 -58
39 -95 13 -473 23 -653 18 -143 -4 -176 -8 -198 -23 -24 -16 -49 -17 -328 -11
-210 5 -300 10 -298 18 4 12 258 15 459 5 122 -6 179 4 87 15 -89 11 -584 26
-638 19 -59 -7 -79 -23 -29 -23 32 0 67 -14 58 -24 -10 -9 -310 -10 -319 -1
-5 6 -11 35 -13 65 -4 71 15 76 74 18 l43 -43 -27 -3 c-16 -2 -28 -7 -28 -11
0 -8 132 -4 155 4 6 2 0 7 -12 10 -32 10 -29 20 22 72 25 25 45 51 45 59 0 7
-11 48 -25 91 -14 43 -25 86 -25 95 0 20 -61 175 -113 288 -40 87 -117 211
-159 256 -16 17 -36 45 -46 62 -9 17 -45 64 -80 104 -209 243 -252 294 -252
301 0 20 37 17 103 -7 40 -14 83 -26 96 -26 14 0 34 -8 45 -19 24 -21 165 -76
223 -87 20 -4 56 -15 78 -25 38 -17 222 -44 370 -55 39 -3 115 -10 170 -15
196 -21 400 -21 520 0 218 39 385 98 385 137 0 17 -23 18 -125 1 -91 -16 -156
-15 -235 1 -30 6 -93 19 -139 27 -88 17 -219 56 -415 125 -132 46 -184 70
-235 109 -39 29 -96 64 -192 115 -37 19 -95 55 -130 79 -137 95 -276 157 -384
172 -43 6 -143 33 -153 41 -2 1 19 32 47 69 28 36 51 72 51 78 0 7 20 45 45
85 137 220 167 336 129 505 -25 113 -75 197 -161 274 -50 45 -76 76 -80 96 -3
16 -15 33 -29 39 -12 6 -52 57 -90 114 -37 57 -88 124 -114 148 -65 61 -104
71 -221 58 -152 -17 -250 0 -335 58 -24 17 -90 53 -146 81 -57 28 -114 57
-128 65 -68 37 -307 114 -358 115 -54 1 -86 13 -90 31 -2 9 10 61 27 115 52
168 70 286 76 488 1 33 9 97 19 141 13 62 15 107 11 185 -3 57 -7 158 -8 224
-3 141 -25 251 -63 319 -31 55 -37 100 -53 396 -6 110 -15 177 -25 202 -9 21
-16 50 -16 67 0 16 -13 57 -30 92 -16 35 -38 99 -50 143 -19 70 -54 153 -72
166 -3 3 -23 43 -43 90 -20 47 -42 99 -49 116 -8 17 -52 76 -97 133 -46 56
-111 136 -144 177 -34 43 -86 93 -121 117 -34 23 -82 59 -106 79 -49 41 -95
61 -188 79 -33 6 -62 15 -64 18 -3 4 2 38 10 76 19 90 8 133 -52 195 -24 25
-58 66 -75 92 -44 67 -116 146 -151 164 -26 13 -29 19 -23 42 22 85 5 232 -35
317 -16 33 -51 85 -77 116 -26 31 -75 89 -107 128 -108 131 -158 170 -310 239
-75 34 -149 62 -162 62 -31 0 -72 -21 -150 -76 -34 -24 -68 -44 -77 -44 -8 0
-43 20 -76 45 -147 108 -225 129 -335 90z m244 -102 c98 -51 121 -69 113 -90
-6 -16 -79 -51 -127 -62 -18 -4 -36 -18 -45 -35 -23 -41 -81 -62 -131 -47 -40
12 -66 41 -90 100 -12 29 -11 34 3 43 10 5 17 21 17 38 0 48 9 60 47 60 26 0
41 7 55 25 24 31 43 28 158 -32z m528 -17 c28 -14 52 -29 54 -33 1 -4 22 -21
46 -37 63 -43 262 -260 321 -350 48 -73 67 -136 41 -136 -5 0 -42 19 -82 43
-130 77 -362 322 -455 480 -50 85 -38 90 75 33z m-133 -37 c17 -31 42 -71 56
-90 14 -19 33 -48 42 -64 24 -48 270 -299 345 -351 36 -27 89 -54 116 -61 27
-7 53 -18 58 -25 8 -14 2 -80 -13 -138 -12 -45 -72 -127 -104 -142 -19 -9 -43
-5 -127 22 -188 59 -231 86 -392 244 -138 135 -201 214 -290 363 -31 52 -35
66 -26 83 6 11 14 20 19 20 5 0 37 28 72 62 82 79 168 140 194 136 13 -2 31
-23 50 -59z m-419 -227 c6 -4 39 -50 74 -102 79 -121 156 -217 185 -233 12 -6
49 -42 81 -79 122 -137 302 -236 503 -274 107 -21 139 -14 155 31 6 17 19 42
29 57 l19 27 46 -23 c47 -24 132 -116 132 -143 0 -7 11 -30 24 -51 23 -34 37
-78 50 -160 4 -26 0 -39 -23 -64 -28 -31 -33 -33 -126 -39 l-98 -6 -136 69
c-75 39 -138 73 -141 78 -3 4 -30 20 -60 35 -132 66 -301 195 -484 371 -71 68
-132 124 -137 124 -5 0 -15 13 -24 29 -8 16 -39 58 -68 93 -64 77 -157 221
-157 244 0 14 7 16 43 11 23 -3 51 -1 62 3 26 11 37 11 51 2z m-208 -163 c9
-17 35 -54 57 -81 22 -27 64 -79 93 -116 101 -127 258 -295 342 -366 47 -39
87 -73 90 -76 3 -3 22 -17 42 -33 30 -22 38 -35 44 -75 4 -26 15 -63 25 -82
44 -82 -40 -51 -199 73 -117 91 -152 114 -185 121 -23 6 -29 2 -38 -21 -16
-41 5 -121 50 -190 64 -99 139 -149 248 -164 91 -13 103 -21 103 -72 0 -23 3
-70 5 -104 2 -35 -2 -85 -10 -115 -12 -49 -12 -53 6 -66 25 -17 26 -83 2 -104
-50 -44 -123 -69 -214 -73 -55 -2 -107 1 -132 9 -23 7 -58 11 -78 8 -66 -7
-290 27 -351 55 -111 49 -197 172 -252 358 -37 128 -46 224 -42 436 3 148 7
192 20 215 39 70 104 166 185 274 47 64 102 139 121 168 19 29 39 52 43 52 4
0 16 -14 25 -31z m-518 -744 c-7 -9 -15 -13 -17 -11 -7 7 7 26 19 26 6 0 6 -6
-2 -15z m1300 -30 c0 -8 -4 -15 -10 -15 -5 0 -10 7 -10 15 0 8 5 15 10 15 6 0
10 -7 10 -15z m-243 -67 c61 -40 119 -78 129 -85 17 -10 17 -13 4 -22 -63 -44
-150 -30 -228 36 -47 40 -92 96 -92 113 0 5 46 23 71 29 4 0 56 -32 116 -71z
m323 42 c30 -15 40 -27 40 -44 0 -33 -31 -69 -52 -61 -30 12 -61 99 -41 118 9
10 9 10 53 -13z m208 -96 c58 -21 101 -42 99 -48 -2 -6 -18 -19 -35 -29 -25
-15 -42 -17 -87 -12 -65 9 -90 27 -75 55 13 25 13 30 -5 30 -9 0 -20 -11 -25
-25 -12 -33 -40 -33 -40 0 0 13 5 36 12 50 14 31 11 31 156 -21z m-262 -57
c32 -28 27 -57 -9 -57 -29 0 -47 17 -47 45 0 41 18 45 56 12z m786 -17 c122
-27 146 -41 300 -172 37 -31 76 -62 87 -67 10 -6 38 -41 62 -78 23 -38 61 -90
85 -116 24 -26 71 -103 105 -170 34 -67 72 -138 84 -157 25 -40 91 -233 105
-306 5 -27 19 -83 30 -124 24 -87 32 -126 60 -305 23 -153 24 -165 8 -165 -27
0 -40 -20 -69 -104 -16 -48 -75 -179 -129 -291 -55 -112 -103 -217 -106 -234
-15 -71 57 5 102 109 6 14 34 74 62 133 29 59 52 116 52 126 0 10 11 39 24 64
14 25 30 64 37 86 9 29 18 41 31 41 22 0 22 0 37 -110 40 -283 63 -530 56
-605 -3 -33 -8 -112 -10 -175 -10 -237 -18 -290 -54 -360 -19 -36 -93 -154
-165 -262 -72 -108 -158 -243 -191 -300 -60 -103 -61 -103 -98 -102 -60 2 -65
16 -19 66 58 63 153 199 146 209 -11 19 -26 6 -93 -83 -38 -51 -86 -110 -108
-131 l-39 -37 -65 19 c-35 11 -91 25 -124 31 -94 17 -250 65 -250 77 0 6 35
40 79 76 43 36 92 83 109 104 17 21 51 61 76 88 25 28 69 79 96 113 28 35 92
114 142 175 86 103 108 146 85 161 -5 3 -27 -21 -49 -52 -22 -31 -67 -86 -99
-122 -33 -36 -70 -81 -83 -100 -14 -19 -50 -63 -81 -96 -31 -34 -72 -82 -90
-108 -46 -63 -238 -229 -259 -223 -54 17 -156 56 -226 87 -42 18 -235 166
-235 179 0 20 269 161 306 161 8 0 35 16 61 36 25 19 69 47 97 61 43 22 149
119 224 205 46 53 63 144 72 393 12 301 11 553 -1 561 -6 3 -7 18 -4 33 3 15
1 40 -5 56 -29 77 -43 268 -36 524 3 145 2 270 -4 290 -5 20 -14 69 -20 109
-21 132 -116 239 -244 276 -76 22 -98 20 -169 -15 -136 -69 -184 -122 -306
-339 -21 -36 -134 -276 -151 -320 -10 -26 -26 -77 -35 -112 -9 -34 -32 -88
-50 -118 -44 -71 -112 -235 -125 -296 -39 -188 -49 -314 -26 -314 18 0 32 38
51 135 27 143 77 310 101 340 13 16 26 27 28 24 3 -3 10 -64 16 -135 6 -71 17
-150 25 -175 55 -176 75 -284 75 -403 -1 -209 -19 -244 -144 -276 -42 -10
-109 -35 -149 -53 -39 -19 -88 -38 -107 -42 -19 -4 -53 -17 -75 -29 -240 -134
-328 -185 -371 -218 -81 -61 -167 -83 -217 -56 -43 22 -109 82 -140 127 -36
51 -60 118 -46 127 5 3 9 21 9 41 0 51 34 158 72 225 69 121 328 396 416 442
16 8 41 32 57 53 91 122 130 164 150 161 21 -3 23 -13 10 -98 -6 -42 -5 -44 9
-25 8 11 21 26 28 34 7 8 11 30 9 48 -1 20 5 46 18 67 12 19 30 58 40 87 43
122 71 188 110 259 29 53 41 87 41 116 0 76 116 306 225 447 33 42 81 112 107
155 66 108 76 120 230 277 189 192 198 203 198 240 0 21 11 46 30 70 17 21 30
40 30 42 0 21 -100 -93 -130 -147 -8 -15 -43 -55 -78 -89 -56 -55 -66 -61
-103 -61 -33 0 -42 4 -46 21 -6 20 -6 20 -30 -3 -35 -32 -65 -96 -111 -230
-32 -95 -50 -130 -103 -202 -35 -47 -80 -117 -100 -154 -20 -37 -43 -67 -50
-67 -16 0 -15 14 5 75 8 25 25 79 37 120 23 78 199 439 244 500 14 19 78 88
142 153 l117 117 140 0 c102 0 165 -6 228 -20z m-688 -39 c10 -16 -6 -42 -23
-39 -9 2 -17 13 -19 26 -3 16 2 22 17 22 11 0 22 -4 25 -9z m120 -17 c26 -10
19 -27 -39 -84 -43 -42 -58 -51 -67 -42 -9 9 -8 20 5 47 9 20 17 44 17 54 0
10 3 21 7 24 8 9 56 9 77 1z m-245 -33 c5 -9 6 -22 4 -29 -7 -18 -43 15 -43
39 0 22 26 15 39 -10z m100 -20 c9 -6 11 -18 6 -40 -9 -41 -51 -45 -61 -6 -10
41 21 67 55 46z m-26 -120 c9 -34 -20 -43 -47 -15 -24 23 -19 34 13 34 20 0
30 -6 34 -19z m-29 -78 c11 -35 -34 -181 -73 -236 -41 -60 -91 -203 -106 -302
-13 -88 -146 -459 -206 -576 -22 -42 -53 -88 -69 -104 -27 -26 -30 -26 -36
-10 -4 10 1 59 11 109 19 91 21 149 16 386 -3 141 11 224 56 335 l29 69 75 27
c145 53 192 77 206 103 10 20 11 31 3 47 -15 27 4 119 33 157 14 18 55 15 61
-5z m664 -319 c29 -20 102 -119 102 -138 0 -8 10 -39 22 -68 21 -51 21 -65 20
-438 0 -335 -3 -391 -17 -430 -13 -34 -19 -94 -24 -252 -3 -113 -3 -223 1
-245 4 -21 7 -90 7 -154 1 -111 0 -119 -30 -175 -92 -175 -169 -278 -244 -325
l-30 -19 28 0 c57 0 15 -44 -58 -60 -28 -6 -68 -24 -90 -39 -22 -16 -51 -32
-65 -36 -14 -4 -36 -17 -50 -30 -15 -14 -43 -25 -70 -28 -25 -2 -67 -15 -95
-27 -48 -21 -49 -22 -27 -34 17 -9 20 -14 10 -24 -7 -7 -16 -12 -20 -12 -5 0
-50 -20 -101 -44 -111 -52 -305 -122 -378 -136 -94 -18 -108 -15 -158 38 -60
63 -162 264 -169 332 l-5 50 44 20 c24 11 71 35 104 55 33 19 84 46 114 60 29
14 67 37 85 50 17 13 58 34 91 46 33 12 69 28 80 35 11 7 51 20 88 28 41 10
86 29 111 46 51 37 128 51 234 44 60 -5 81 -3 97 9 35 27 4 41 -98 47 l-92 5
42 29 c29 19 50 26 66 23 17 -5 33 3 67 34 l45 40 -50 -6 c-99 -14 -90 -25
-91 107 -2 167 -18 271 -66 407 -27 79 -51 391 -37 479 7 37 11 85 10 107 0
22 6 63 15 90 28 85 114 259 143 290 16 17 41 55 56 85 36 72 51 88 95 100 21
6 55 22 76 37 64 43 169 57 212 27z m-1205 -281 c8 -32 0 -506 -10 -625 -14
-160 -32 -191 -214 -379 -133 -136 -247 -177 -558 -200 -79 -5 -148 -12 -152
-15 -24 -14 -450 44 -604 83 -33 8 -80 19 -104 24 -54 11 -91 43 -91 78 0 39
42 244 53 258 7 10 91 12 347 12 373 -1 399 1 515 38 126 41 154 55 260 140
109 87 163 141 214 218 19 28 51 68 71 90 21 22 48 56 61 76 43 65 179 219
194 219 7 0 16 -8 18 -17z m-1859 -789 c21 -8 21 -62 0 -92 -22 -31 -53 -28
-65 7 -12 34 -40 49 -94 53 -22 2 -40 8 -40 13 0 17 165 32 199 19z m-415 -90
c28 -35 26 -53 -8 -87 -36 -35 -101 -54 -101 -28 1 23 25 87 44 116 21 32 39
32 65 -1z m241 -24 c0 -27 -37 -74 -142 -176 -107 -105 -127 -121 -205 -159
l-32 -15 -21 39 c-28 57 -26 66 24 85 24 9 70 40 102 70 33 29 85 69 116 89
31 20 62 45 68 56 8 16 21 21 50 21 22 0 40 -5 40 -10z m210 -67 c0 -27 -38
-83 -56 -83 -12 0 -15 6 -10 23 3 12 6 27 6 34 0 16 29 43 46 43 8 0 14 -8 14
-17z m-216 -62 c10 -16 -52 -97 -164 -214 l-113 -118 -28 27 c-24 23 -38 53
-26 54 1 0 27 9 57 19 41 13 61 27 78 52 12 19 38 51 57 73 19 21 35 42 35 47
0 10 78 69 91 69 4 0 10 -4 13 -9z m-444 -46 c0 -2 -10 -10 -22 -16 -21 -11
-22 -11 -9 4 13 16 31 23 31 12z m-80 -53 c0 -5 -11 -14 -25 -20 -31 -14 -33
1 -2 16 28 14 27 13 27 4z m550 -3 c0 -20 -73 -143 -104 -177 -40 -43 -85 -67
-99 -53 -7 7 2 23 29 53 22 24 53 61 69 83 59 81 105 123 105 94z m331 -28
c63 -16 159 -44 214 -61 95 -30 167 -41 385 -56 132 -9 382 15 548 53 109 25
111 12 17 -89 -42 -46 -95 -115 -118 -153 l-42 -69 -70 -17 c-38 -9 -83 -22
-100 -29 -23 -9 -66 -9 -191 0 -191 14 -307 0 -469 -58 -16 -6 -68 -23 -115
-38 -92 -29 -264 -116 -325 -164 -31 -25 -40 -27 -56 -17 -16 10 -25 9 -48 -4
-16 -10 -34 -13 -42 -9 -21 12 -336 -22 -370 -40 -11 -7 -78 -20 -147 -31
-146 -23 -518 -112 -577 -139 -41 -18 -99 -36 -215 -65 -98 -25 -261 -91 -300
-123 -62 -49 -287 -149 -375 -166 -44 -9 -105 -22 -135 -31 -30 -8 -70 -15
-88 -15 -39 0 -162 -32 -223 -58 -106 -46 -376 -243 -393 -288 -4 -10 0 -21 9
-28 15 -11 14 -18 -6 -81 -30 -94 -38 -103 -86 -86 -83 30 -274 241 -257 284
3 8 51 43 107 77 173 107 322 202 444 283 65 42 121 77 125 77 4 0 69 36 143
81 75 45 155 88 178 97 23 9 53 23 67 33 14 9 59 33 100 54 41 20 98 55 126
76 28 21 55 39 61 39 5 0 36 16 69 36 32 20 86 51 119 69 33 17 114 61 180 97
66 36 155 80 197 98 43 17 115 54 160 82 158 95 284 166 460 257 l176 92 25
-55 c26 -56 110 -156 131 -156 6 0 31 -11 56 -24 63 -33 110 -38 219 -22 82
11 98 17 118 40 33 39 61 31 96 -26 28 -45 29 -50 17 -92 -16 -58 -7 -82 37
-97 74 -24 191 18 213 77 13 33 13 80 0 105 -12 22 -60 49 -88 49 -57 0 -182
217 -145 253 13 14 72 6 184 -22z m-245 -11 c-3 -17 -17 -45 -30 -63 -13 -18
-31 -50 -40 -72 -9 -21 -24 -47 -33 -57 -20 -22 -79 -42 -100 -34 -14 6 -10
13 19 44 20 20 41 48 48 62 33 64 103 150 122 150 17 0 20 -4 14 -30z m-780
-41 c-32 -17 -60 -28 -63 -25 -7 6 88 55 107 55 8 0 -11 -14 -44 -30z m-128
-74 c-20 -14 -40 -25 -43 -25 -4 0 -30 -15 -58 -33 -67 -43 -198 -110 -204
-104 -6 7 50 45 101 68 25 11 48 24 51 30 8 13 156 88 175 89 8 0 -2 -11 -22
-25z m-318 -175 c0 -5 -7 -10 -16 -10 -8 0 -12 5 -9 10 3 6 10 10 16 10 5 0 9
-4 9 -10z m2413 -188 c3 -4 8 -49 12 -101 l8 -94 -74 8 c-64 7 -383 12 -877
14 -95 1 -131 4 -126 12 19 32 346 146 391 137 12 -2 17 -11 15 -26 -4 -27 -5
-27 52 -2 62 26 180 40 356 41 80 1 156 5 170 9 33 11 68 12 73 2z m1937 -210
c0 -4 -19 -28 -43 -54 -31 -34 -47 -44 -57 -38 -11 7 -4 19 35 54 49 44 65 54
65 38z m-1914 -37 c35 -6 184 -142 177 -163 -12 -32 -56 -40 -209 -38 -123 1
-155 4 -176 18 -21 14 -42 16 -105 12 -116 -7 -329 -14 -593 -18 -245 -4 -364
-18 -457 -55 -31 -12 -77 -19 -129 -20 -45 -1 -96 -6 -114 -11 -18 -5 -69 -14
-114 -21 -45 -6 -121 -25 -171 -44 -49 -18 -105 -37 -123 -43 -32 -11 -159
-85 -298 -175 -38 -24 -106 -63 -151 -85 -45 -23 -84 -46 -88 -52 -11 -17 -40
-11 -76 16 -54 40 -155 88 -262 123 -108 36 -135 54 -115 78 13 16 107 66 148
78 14 4 36 15 50 25 31 21 223 80 260 80 40 0 224 55 262 78 44 27 155 58 258
72 47 6 126 20 175 31 50 11 109 24 133 30 23 5 61 9 83 9 23 0 91 9 153 19
325 57 523 69 1026 65 234 -3 439 -7 456 -9z m443 -247 c12 -50 46 -134 86
-212 46 -89 63 -132 56 -140 -6 -7 -50 -33 -98 -58 -216 -114 -438 -124 -417
-20 3 16 -1 80 -11 142 -9 62 -13 127 -9 144 11 54 44 106 72 117 59 24 150
63 197 85 27 13 61 24 76 24 25 0 28 -5 48 -82z m-533 17 c96 -10 101 -14 83
-62 l-15 -38 -120 -9 c-149 -10 -212 1 -289 52 -93 61 -81 68 108 66 89 -1
194 -5 233 -9z m-536 -4 c0 -4 -57 -46 -126 -92 -137 -90 -207 -159 -226 -220
-10 -35 -9 -43 10 -68 17 -24 19 -31 8 -40 -13 -11 -148 -61 -164 -61 -5 0
-25 35 -45 78 -33 70 -48 87 -157 186 -102 92 -131 123 -117 127 1 0 39 4 85
8 51 5 89 14 100 24 25 22 157 47 259 48 48 0 108 4 133 8 62 12 240 13 240 2z
m94 -90 c8 -13 -24 -36 -72 -51 -39 -12 -82 -49 -82 -71 0 -4 18 -27 41 -50
48 -50 63 -37 -119 -101 -110 -38 -115 -39 -134 -21 -32 29 -40 51 -28 74 15
27 85 90 124 111 17 9 58 40 91 68 77 69 110 83 147 64 15 -8 29 -18 32 -23z
m-975 -68 c86 -44 184 -126 250 -208 22 -28 61 -105 61 -121 0 -19 -55 -44
-211 -92 -68 -22 -191 -65 -274 -97 -402 -154 -385 -148 -476 -152 l-86 -4
-45 63 c-45 62 -125 143 -203 204 l-40 31 40 13 c22 6 121 16 220 21 99 5 197
14 218 20 20 5 42 7 47 4 5 -3 69 2 142 11 73 9 145 17 160 19 41 4 54 16 35
30 -11 8 -34 9 -74 4 -32 -5 -106 -11 -165 -13 -59 -3 -173 -13 -252 -22 -227
-25 -228 -25 -36 114 89 64 181 127 206 140 59 30 264 80 334 81 47 1 69 -6
149 -46z m1475 -18 c3 -11 9 -56 12 -100 8 -104 0 -113 -85 -95 -33 7 -65 10
-73 8 -7 -3 -30 3 -50 13 -21 11 -49 19 -62 19 -41 0 -102 29 -114 55 -8 17
-22 25 -54 30 -96 14 -108 18 -119 31 -11 14 8 26 91 57 8 4 113 5 232 4 208
-2 217 -3 222 -22z m1404 -79 c99 -92 272 -182 507 -262 105 -36 210 -69 235
-74 93 -19 172 -39 177 -44 4 -3 -7 -45 -22 -93 -25 -75 -36 -96 -80 -139 -83
-84 -163 -124 -390 -197 -207 -67 -516 -90 -745 -54 -58 9 -160 19 -227 23
-107 6 -137 4 -239 -17 -99 -20 -118 -27 -127 -47 -6 -12 -7 -25 -4 -29 4 -3
44 4 89 17 106 30 237 30 360 1 47 -12 97 -21 111 -21 14 0 67 -9 118 -19 52
-10 113 -22 137 -25 24 -3 48 -9 54 -12 6 -4 52 -8 102 -10 50 -1 127 -10 171
-19 177 -37 528 -192 640 -283 102 -83 238 -157 390 -212 97 -35 100 -37 103
-70 5 -44 -18 -109 -72 -205 -77 -138 -159 -267 -173 -272 -8 -3 -21 1 -31 9
-31 27 -191 119 -269 155 -43 20 -143 57 -223 84 -80 26 -179 63 -220 82 -41
19 -101 40 -132 46 -31 5 -76 20 -100 32 -24 12 -99 39 -168 60 -201 61 -372
122 -420 152 -46 28 -131 56 -305 99 -93 24 -172 52 -271 99 -22 10 -47 19
-55 19 -23 0 -430 209 -479 246 -65 50 -137 141 -160 202 -28 75 -53 227 -45
279 7 46 71 141 127 188 70 59 205 104 224 74 4 -7 10 -39 13 -72 8 -80 22
-89 95 -58 34 14 92 26 148 31 93 9 146 21 248 58 96 35 243 81 294 92 27 6
68 20 92 30 23 11 49 20 56 20 7 0 28 9 46 20 18 11 43 20 55 20 13 0 27 4 33
8 5 5 30 16 56 26 26 9 59 27 74 39 29 23 119 65 142 66 7 1 34 -19 60 -43z
m1546 -38 c8 -13 2 -27 -30 -65 -22 -26 -44 -57 -48 -68 -4 -11 -31 -63 -61
-115 -59 -104 -89 -140 -106 -123 -10 10 18 64 91 173 21 31 56 93 79 138 41
82 54 92 75 60z m-5921 -47 c83 -29 248 -116 293 -155 l39 -34 -25 -10 c-47
-18 -165 -31 -335 -37 -222 -8 -326 -20 -463 -51 -119 -28 -157 -49 -227 -130
l-31 -35 -150 -4 c-82 -2 -166 -6 -187 -10 -37 -7 -37 -7 -37 27 0 45 49 122
92 144 18 9 53 31 78 49 100 70 173 97 335 120 117 17 274 56 356 89 36 14 74
26 85 26 11 0 29 7 40 15 26 20 71 19 137 -4z m6114 8 c209 -48 285 -73 413
-136 204 -100 310 -181 310 -233 0 -24 3 -24 -45 0 -22 11 -48 20 -59 20 -10
0 -70 27 -133 61 -62 33 -142 71 -176 84 -34 13 -95 40 -135 59 -40 20 -77 36
-83 36 -5 0 -31 11 -57 25 -57 30 -72 31 -72 5 0 -16 32 -36 150 -95 82 -41
167 -81 189 -88 43 -15 322 -167 361 -197 l25 -20 -147 0 c-147 0 -193 -12
-99 -25 28 -4 59 -4 70 0 22 7 217 -19 270 -36 19 -7 67 -45 111 -88 70 -68
79 -82 89 -129 14 -70 14 -114 -3 -185 -21 -90 -102 -195 -170 -221 -32 -11
-75 45 -96 128 -10 39 -39 118 -64 177 -43 98 -53 112 -146 207 -92 93 -130
120 -130 91 0 -13 63 -90 110 -132 70 -64 86 -86 117 -163 38 -93 64 -184 57
-196 -3 -5 -25 9 -48 30 -24 22 -54 45 -67 52 -25 14 -96 70 -166 132 -23 20
-69 51 -102 67 -67 34 -183 108 -249 158 -24 18 -50 33 -58 33 -8 0 -36 11
-62 24 -26 13 -76 33 -112 44 -36 11 -103 34 -150 52 -47 18 -93 34 -102 37
-11 3 -18 15 -18 30 0 24 2 25 33 17 17 -4 70 -8 117 -9 l85 0 6 35 c3 19 19
56 35 81 17 26 39 75 49 109 16 53 22 62 47 67 34 7 48 23 19 23 -26 0 -30 8
-24 48 5 27 9 32 34 32 16 0 50 -5 76 -11z m-3347 -48 c69 -17 141 -31 160
-31 45 0 69 -15 53 -31 -13 -13 -80 -17 -308 -20 -151 -2 -305 17 -329 41 -17
17 14 39 85 60 85 25 177 20 339 -19z m-660 -79 c0 -10 -150 -56 -157 -49 -5
6 72 36 119 47 18 4 34 8 36 9 1 1 2 -3 2 -7z m280 -32 c63 -11 150 -23 193
-26 53 -4 77 -10 77 -18 0 -8 -23 -35 -51 -61 l-50 -47 -72 7 c-40 3 -81 10
-92 15 -11 5 -114 13 -230 17 -130 5 -209 12 -209 18 2 13 260 113 294 114 14
1 77 -8 140 -19z m-560 -69 c0 -8 -19 -15 -205 -80 -44 -16 -165 -62 -270
-103 -175 -70 -342 -128 -366 -128 -30 0 14 24 124 66 67 26 176 69 242 97
127 52 200 78 355 126 106 32 120 35 120 22z m-1353 -80 c85 -60 155 -137 151
-165 -3 -18 -14 -23 -87 -33 -46 -6 -104 -16 -130 -22 -25 -6 -89 -19 -141
-30 -212 -44 -205 -44 -269 -25 -37 10 -81 15 -113 12 -65 -5 -166 -50 -204
-89 -30 -31 -54 -38 -54 -15 0 19 -131 141 -177 165 -67 36 -67 36 -49 64 19
28 37 36 142 66 46 14 101 21 155 21 142 1 505 46 584 73 101 35 112 34 192
-22z m1423 33 c0 -14 -33 -74 -40 -74 -5 0 -25 -24 -46 -52 -21 -29 -41 -54
-45 -56 -3 -1 -88 -93 -190 -204 -271 -296 -357 -384 -429 -438 -80 -58 -102
-66 -122 -43 -28 32 -67 117 -87 188 -10 39 -38 122 -60 185 -23 63 -41 117
-41 121 0 3 30 16 68 28 37 12 123 44 192 71 69 27 181 65 250 85 69 19 217
71 330 114 211 82 220 85 220 75z m270 -43 c47 -5 101 -16 120 -24 26 -11 58
-14 127 -10 111 7 114 3 89 -91 -14 -50 -17 -96 -14 -224 l3 -160 -44 -28
c-24 -15 -66 -56 -94 -92 -27 -35 -68 -75 -89 -88 -34 -21 -52 -54 -30 -54 5
0 43 33 85 74 43 40 80 69 83 64 3 -5 -3 -19 -14 -31 -11 -12 -32 -47 -47 -77
-15 -30 -40 -73 -55 -95 -29 -42 -96 -187 -125 -268 -9 -26 -22 -46 -28 -44
-27 9 -42 295 -22 386 11 49 -16 37 -33 -15 -7 -21 -19 -46 -27 -54 -13 -14
-13 -19 0 -36 11 -14 14 -52 15 -154 0 -86 6 -155 15 -190 8 -30 15 -67 15
-82 0 -17 18 -51 48 -90 70 -91 78 -109 58 -123 -23 -17 -155 15 -265 64 -48
21 -104 44 -126 50 -22 7 -56 21 -75 31 -19 10 -66 30 -103 44 -98 37 -216
100 -342 184 -164 109 -187 138 -152 186 11 15 30 18 139 18 136 1 166 8 134
33 -16 12 -45 14 -147 10 -75 -2 -131 0 -134 6 -4 5 -2 9 4 9 5 0 36 24 68 54
32 29 78 63 102 75 43 22 44 22 137 6 52 -10 104 -15 116 -11 13 3 57 -1 98
-9 131 -24 170 -27 170 -10 0 8 -12 17 -27 20 -16 4 -47 10 -70 16 -23 5 -60
9 -82 9 -22 0 -42 4 -45 9 -3 4 -22 11 -43 13 -71 10 -153 39 -153 54 0 15
104 129 132 145 13 7 38 -1 100 -32 78 -39 109 -56 257 -144 57 -34 101 -45
101 -25 0 5 -21 21 -47 36 -60 35 -237 171 -283 219 -25 26 -32 39 -25 49 6 8
35 45 66 82 30 38 79 103 107 144 79 113 98 134 116 127 9 -4 16 -15 16 -26 0
-57 45 -234 76 -301 78 -166 109 -220 124 -217 9 1 16 -8 18 -23 2 -14 7 -29
12 -33 8 -9 14 22 25 123 5 51 5 54 -10 36 -8 -11 -15 -33 -15 -50 l0 -30 -20
20 c-12 12 -29 54 -40 103 -11 45 -35 119 -54 165 -42 101 -88 255 -80 268 10
16 48 27 74 23 14 -3 63 -9 110 -14z m5057 6 c30 -17 131 -143 156 -194 12
-24 25 -43 29 -43 4 0 8 -9 8 -19 0 -16 -9 -20 -62 -23 -63 -4 -186 19 -231
43 -62 34 -217 199 -217 233 0 18 286 21 317 3z m-1475 -171 c186 -66 228 -85
267 -115 44 -35 189 -123 296 -181 44 -24 115 -69 158 -99 42 -31 97 -70 122
-87 77 -53 104 -84 73 -84 -14 0 -104 40 -191 86 -49 26 -90 39 -140 45 -55 7
-93 20 -160 55 -52 26 -95 43 -105 39 -14 -5 -13 -8 4 -24 36 -35 177 -99 234
-106 82 -10 361 -138 417 -191 27 -25 43 -49 43 -64 0 -42 -40 -108 -99 -162
-71 -66 -238 -138 -320 -138 -49 0 -51 1 -66 36 -12 30 -14 61 -9 158 7 128
-10 234 -41 266 -21 20 -20 -2 1 -42 14 -26 15 -50 10 -133 -8 -119 -15 -165
-27 -165 -17 0 -195 193 -210 229 -9 20 -34 49 -55 63 -22 15 -87 73 -147 130
-103 99 -113 106 -245 166 -75 35 -148 70 -162 78 -14 7 -44 23 -68 34 -24 11
-42 24 -40 29 4 12 81 73 158 125 36 24 76 55 89 70 34 37 68 34 213 -18z
m-6537 -72 c16 -18 31 -24 62 -24 23 0 45 -5 48 -10 13 -22 -54 -30 -239 -30
-237 0 -282 12 -243 63 16 22 144 37 262 30 80 -4 92 -7 110 -29z m1460 -8 c0
-16 -17 -25 -85 -47 -47 -15 -157 -50 -245 -78 -248 -79 -391 -118 -499 -137
l-99 -18 -18 23 c-22 27 -26 103 -6 119 20 17 96 40 165 51 49 8 84 7 144 -4
72 -12 86 -12 122 2 130 49 159 56 256 64 58 4 132 17 165 28 73 24 100 23
100 -3z m160 -26 c-3 -5 -11 -10 -16 -10 -6 0 -7 5 -4 10 3 6 11 10 16 10 6 0
7 -4 4 -10z m6572 -29 c29 -6 56 -22 93 -57 28 -27 67 -57 85 -66 18 -10 36
-26 40 -37 3 -11 17 -26 30 -35 14 -9 31 -29 38 -44 16 -32 41 -162 32 -170
-17 -17 -318 21 -382 49 -23 10 -58 21 -78 25 -19 3 -35 9 -35 13 0 3 -2 47
-4 96 -2 50 -9 113 -16 140 -20 83 -22 79 50 86 100 9 102 9 147 0z m-6782
-37 c-20 -15 -107 -44 -133 -44 -30 0 0 15 71 36 89 27 86 26 62 8z m-1082
-47 c29 -13 43 -27 59 -64 11 -26 23 -66 26 -88 l4 -40 -92 -23 c-50 -12 -96
-20 -101 -17 -5 4 -9 27 -9 53 0 65 -9 92 -30 92 -29 0 -42 -24 -30 -54 28
-74 0 -119 -71 -114 l-44 3 -6 80 c-3 44 -13 96 -22 116 -18 41 -15 49 23 49
14 0 35 7 46 15 25 21 192 15 247 -8z m1239 -59 c38 -88 78 -222 78 -261 0
-22 -34 -71 -147 -207 -122 -148 -450 -310 -628 -310 -69 0 -128 47 -208 165
-87 128 -109 187 -106 280 2 38 0 80 -4 91 -10 28 20 47 104 69 35 9 105 29
154 45 50 16 124 36 165 45 41 9 116 30 165 47 50 17 119 39 155 49 36 10 101
29 145 43 44 14 83 25 86 25 3 1 22 -36 41 -81z m4511 61 c12 -7 36 -24 54
-40 17 -15 46 -30 65 -34 18 -4 63 -25 100 -46 36 -22 73 -39 82 -39 30 0 328
-268 340 -306 3 -10 19 -26 34 -35 27 -15 167 -181 190 -225 6 -11 12 -37 14
-58 2 -32 -2 -42 -24 -58 l-26 -21 -60 37 c-34 20 -85 44 -114 52 -29 8 -75
24 -103 34 -27 10 -88 31 -134 45 -93 28 -229 98 -298 154 -25 20 -89 77 -142
127 -53 50 -109 100 -126 111 -42 29 -223 98 -325 124 -94 25 -121 39 -72 39
17 0 51 5 74 10 190 47 243 63 317 99 89 43 118 49 154 30z m-6563 -142 c-24
-108 -79 -215 -129 -252 -50 -36 -69 -33 -36 6 34 41 55 84 95 194 18 50 44
113 59 140 21 42 26 46 29 27 2 -12 -6 -64 -18 -115z m231 87 c75 -73 110
-129 116 -187 7 -64 7 -64 -105 -73 -65 -5 -196 7 -208 19 -2 2 7 48 21 103
14 54 25 115 25 135 0 20 3 39 8 43 4 4 29 6 55 3 39 -3 56 -11 88 -43z m199
4 c21 -46 27 -152 10 -163 -5 -3 -15 5 -23 17 -7 13 -28 47 -46 77 -18 30 -35
67 -38 83 -5 27 -4 28 36 28 40 0 43 -2 61 -42z m1297 36 c-19 -20 -334 -109
-317 -91 5 5 230 79 275 90 31 7 49 8 42 1z m-372 -114 c-3 -5 -14 -10 -23 -9
-14 0 -13 2 3 9 27 11 27 11 20 0z m-99 -25 c-33 -25 -186 -62 -164 -39 5 5
163 52 178 53 3 0 -4 -6 -14 -14z m2546 -42 c8 -10 23 -32 33 -50 18 -31 18
-33 -1 -75 -10 -23 -43 -79 -73 -123 -64 -96 -111 -194 -111 -233 0 -18 -11
-40 -27 -58 -15 -16 -28 -31 -28 -34 0 -3 -8 -16 -17 -30 -8 -14 -19 -49 -22
-79 -6 -48 -39 -131 -51 -131 -3 0 -18 27 -35 60 -34 67 -37 106 -14 173 17
50 41 77 32 36 -3 -13 -9 -39 -13 -58 -12 -50 12 -36 53 30 27 45 31 60 26 93
-5 34 -4 37 13 32 15 -5 23 3 40 36 11 24 24 58 28 76 6 29 4 34 -14 39 -27 7
-27 23 0 57 29 37 53 35 46 -4 -9 -43 9 -37 24 8 6 20 31 63 56 96 24 32 42
60 40 62 -2 2 -15 0 -30 -4 -27 -7 -77 -65 -77 -89 0 -7 -4 -13 -10 -13 -18 0
-10 26 26 86 20 32 44 71 53 86 19 32 32 35 53 11z m-2886 -52 c-3 -4 -25 -11
-49 -14 -23 -3 -51 -9 -60 -13 -9 -3 -17 -2 -17 4 0 5 19 14 43 19 54 14 90
15 83 4z m13 -64 c6 -7 13 -45 15 -84 3 -39 11 -84 19 -100 8 -15 26 -59 40
-98 14 -38 51 -108 82 -155 l56 -85 -88 -6 c-48 -4 -124 -10 -168 -14 -69 -6
-91 -3 -160 18 -133 41 -161 57 -204 116 -38 50 -39 55 -27 80 8 14 36 51 63
82 26 30 64 85 83 122 31 60 39 68 75 77 22 6 72 21 110 34 87 29 90 29 104
13z m-339 -12 c0 -11 -11 -15 -37 -15 -36 1 -37 2 -19 15 26 19 56 19 56 0z
m7946 -1 c22 -9 73 -23 114 -31 41 -8 98 -19 125 -24 28 -5 86 -7 130 -4 44 3
86 1 94 -4 22 -14 -39 -204 -111 -343 -57 -111 -68 -125 -184 -238 -71 -69
-132 -120 -143 -120 -12 0 -28 16 -45 44 -14 24 -43 66 -65 94 -49 61 -250
220 -326 258 -38 18 -55 32 -55 45 0 20 33 59 51 59 25 0 213 146 270 210 68
76 81 81 145 54z m-8216 -34 c0 -16 -23 -22 -71 -18 -42 4 -43 4 -19 15 32 15
90 16 90 3z m3838 -54 c42 -7 97 -25 122 -39 25 -14 97 -40 160 -57 63 -17
144 -43 180 -58 36 -14 99 -36 140 -48 l75 -22 -3 -183 c-3 -197 -18 -366 -35
-386 -5 -7 -15 -13 -21 -13 -20 0 -93 132 -115 208 -12 39 -30 105 -42 145
-11 39 -32 92 -46 116 -14 25 -31 65 -38 90 -16 63 -45 70 -45 11 0 -22 7 -57
15 -77 8 -20 24 -84 36 -142 35 -183 64 -253 148 -364 31 -41 45 -67 37 -70
-15 -6 -276 18 -423 39 -62 9 -125 14 -139 11 -86 -16 -529 50 -579 87 -19 14
-18 16 25 56 49 45 183 145 229 171 16 8 43 28 61 43 18 15 51 36 74 48 22 11
50 28 61 38 11 9 85 54 165 100 156 89 183 107 174 122 -10 15 -51 0 -112 -41
-31 -21 -82 -51 -112 -66 -30 -15 -86 -49 -125 -75 -38 -26 -91 -57 -117 -70
-39 -19 -180 -121 -280 -202 -15 -12 -30 -19 -34 -16 -3 4 8 35 24 70 104 220
132 282 132 293 0 6 13 29 29 51 16 22 39 64 51 94 24 62 51 108 92 162 l29
37 65 -25 c35 -13 99 -30 142 -38z m-3935 -12 c120 -7 115 -2 83 -77 -14 -33
-15 -38 -2 -43 17 -7 123 75 146 112 22 35 110 61 110 32 0 -7 -28 -44 -61
-83 -33 -38 -70 -89 -80 -112 l-20 -43 -60 0 c-63 0 -102 16 -249 100 -59 33
-85 45 -145 65 -19 6 -19 7 -2 16 11 7 16 17 12 29 -4 12 2 23 15 33 19 13 28
13 83 -4 34 -10 111 -22 170 -25z m1982 -66 c13 -58 44 -108 113 -177 89 -90
221 -186 336 -244 51 -26 101 -56 111 -67 10 -11 29 -20 42 -20 26 0 31 -21 7
-41 -8 -7 -22 -26 -31 -43 -9 -17 -46 -65 -82 -106 -83 -93 -177 -210 -220
-272 -28 -43 -36 -48 -69 -48 -20 0 -68 12 -107 26 -38 14 -97 34 -130 44 -33
10 -73 23 -90 28 -16 6 -52 15 -79 22 -27 6 -94 34 -150 63 -97 50 -104 56
-181 153 -48 61 -100 115 -130 134 -27 19 -69 49 -93 68 -40 33 -42 36 -26 53
10 12 31 19 52 19 66 0 155 30 192 65 19 18 55 42 80 53 25 10 83 51 130 91
47 39 91 71 99 71 15 0 26 9 118 99 71 70 98 77 108 29z m-2030 -178 c49 -16
109 -30 134 -30 66 0 78 -11 63 -53 -17 -48 -15 -58 17 -98 39 -47 110 -84
217 -113 97 -26 141 -43 311 -117 62 -27 141 -53 175 -59 103 -17 131 -25 135
-37 2 -6 -15 -25 -39 -43 -41 -30 -46 -31 -108 -25 -36 3 -140 26 -231 50
-168 44 -221 67 -619 270 -90 46 -230 194 -230 244 0 15 3 31 7 34 14 15 84 5
168 -23z m4880 -40 c39 -15 85 -31 103 -35 19 -4 79 -26 135 -50 56 -23 128
-50 161 -59 32 -9 68 -28 80 -41 17 -18 26 -21 39 -13 14 7 44 1 120 -25 56
-19 133 -43 171 -53 61 -15 70 -20 82 -50 8 -18 14 -52 14 -74 0 -45 -23 -110
-39 -110 -17 0 -62 67 -76 112 -14 43 -14 43 -14 10 -1 -38 19 -92 49 -129 11
-15 17 -30 12 -35 -4 -4 -50 -12 -102 -18 -52 -5 -122 -17 -155 -25 -33 -8
-84 -14 -113 -15 -44 0 -57 4 -76 25 -28 31 -41 31 -86 4 -39 -24 -47 -25
-312 -21 -149 2 -178 4 -178 17 0 8 9 19 20 25 58 31 430 388 430 413 0 30
-71 -18 -175 -118 -68 -66 -202 -175 -215 -175 -3 0 -4 53 -2 117 2 65 -2 153
-8 195 -7 43 -9 98 -5 123 6 46 7 46 38 39 18 -3 64 -19 102 -34z m3055 -69
c147 -85 200 -123 246 -176 24 -29 44 -55 44 -58 0 -3 18 -35 40 -71 22 -36
40 -68 40 -70 0 -2 -57 -41 -127 -87 -115 -75 -479 -269 -504 -269 -11 0 -28
17 -110 111 -31 36 -98 94 -149 129 -51 36 -110 77 -131 92 l-38 28 16 37 c24
58 35 174 17 194 -17 19 -18 35 -1 42 6 2 62 5 122 6 61 1 128 7 150 12 57 16
217 92 234 112 22 28 62 20 151 -32z m-903 -54 c25 -25 -2 -118 -92 -312 -18
-38 -53 -115 -78 -170 -26 -55 -64 -145 -84 -199 -21 -55 -43 -101 -49 -103
-20 -7 -59 198 -49 257 3 21 29 75 56 121 28 46 58 97 67 112 9 16 30 50 47
75 19 30 30 62 31 87 1 34 11 83 30 144 6 18 100 9 121 -12z m-5956 -103 c14
-7 47 -32 75 -56 27 -25 60 -52 73 -61 23 -15 23 -17 6 -23 -19 -8 -160 7
-306 32 -100 17 -251 64 -251 79 2 41 332 65 403 29z m1746 -201 c19 -41 39
-101 45 -133 6 -36 18 -66 30 -77 20 -18 21 -18 14 22 -3 22 -9 79 -12 128
l-6 87 25 0 c15 0 41 -7 59 -15 49 -21 409 -128 488 -144 25 -5 71 -12 103
-16 l59 -7 -7 -36 c-16 -84 -55 -158 -116 -218 l-60 -59 -217 2 c-119 0 -266
6 -327 12 -60 7 -175 16 -255 22 -80 5 -165 14 -190 19 -25 5 -48 9 -52 10
-18 1 42 102 107 179 39 47 84 107 98 133 15 26 41 55 57 65 17 9 30 20 30 23
0 16 73 89 82 84 6 -4 26 -40 45 -81z m3207 15 c59 -30 113 -74 102 -85 -8 -8
-226 -44 -235 -38 -11 6 -2 124 10 147 12 23 40 17 123 -24z m2626 -2 c151
-43 344 -124 406 -171 17 -13 56 -36 85 -50 88 -42 134 -69 157 -90 33 -32
230 -131 306 -154 38 -12 74 -25 80 -30 31 -23 307 -100 381 -106 125 -10 164
-33 104 -62 -29 -14 -242 -4 -444 21 -71 9 -168 21 -215 27 -170 21 -306 57
-510 134 -63 24 -142 51 -175 59 -56 14 -160 49 -333 110 -41 14 -82 26 -93
26 -10 0 -47 11 -81 24 -35 12 -80 26 -100 30 -46 8 -48 20 -8 35 17 5 30 15
30 20 0 6 6 11 13 11 7 0 71 45 143 99 89 69 135 98 149 95 11 -2 58 -15 105
-28z m-7299 -33 c18 -11 36 -34 46 -62 11 -28 41 -67 85 -110 56 -53 84 -72
149 -98 102 -40 109 -46 109 -97 0 -53 -17 -77 -133 -195 -96 -98 -119 -132
-131 -187 -4 -18 -32 -71 -62 -119 -30 -48 -62 -102 -71 -119 -8 -17 -28 -42
-44 -56 -15 -14 -35 -41 -43 -62 -13 -32 -12 -39 1 -58 14 -20 14 -27 -1 -76
-14 -45 -21 -53 -47 -59 -39 -9 -64 12 -54 44 5 16 12 20 25 16 20 -6 70 20
70 37 0 7 -13 8 -32 3 -18 -4 -73 -9 -122 -11 -77 -4 -95 -1 -130 17 -27 14
-51 19 -73 16 -21 -4 -36 -1 -44 9 -6 8 -46 38 -89 68 -42 30 -89 68 -103 86
-47 55 -45 69 23 166 45 65 60 94 55 111 -3 12 4 46 15 75 11 29 27 80 36 112
20 77 81 226 103 251 10 11 29 40 44 65 14 25 65 84 114 131 71 69 97 89 135
99 26 7 53 10 61 7 8 -3 20 -1 28 4 21 13 48 11 80 -8z m4494 -43 c7 -23 -10
-50 -31 -50 -17 0 -18 42 -2 58 17 17 26 15 33 -8z m1537 -142 c81 -79 153
-157 162 -174 18 -36 29 -28 -104 -77 -250 -93 -422 -130 -436 -94 -2 7 9 46
26 86 16 41 35 92 41 115 6 22 28 76 50 118 21 43 39 83 39 90 0 21 44 78 61
78 8 0 81 -64 161 -142z m-1066 76 c27 -14 88 -42 136 -61 49 -19 91 -40 95
-47 10 -15 38 -121 60 -220 16 -76 16 -79 -3 -93 -11 -8 -27 -11 -39 -7 -11 3
-76 10 -144 15 -68 4 -130 10 -137 13 -6 2 -15 24 -19 48 -3 24 -15 68 -25 98
-23 66 -43 219 -34 255 8 33 45 33 110 -1z m-222 -6 c-4 -7 -17 -26 -29 -43
-32 -44 -75 -124 -74 -138 0 -7 3 -7 6 2 7 19 55 60 69 61 22 0 46 -40 75
-122 36 -103 37 -134 7 -141 -13 -4 -97 -4 -188 -1 -91 3 -172 5 -180 5 -85 0
-487 35 -492 44 -4 5 -8 60 -8 122 l0 112 38 6 c123 19 169 27 183 31 11 3 24
-8 38 -31 23 -39 41 -39 41 0 0 34 20 42 145 54 61 7 157 20 215 31 129 23
164 24 154 8z m-5354 -23 c36 -8 84 -18 107 -22 l43 -8 -51 -75 c-58 -87 -124
-214 -164 -318 -21 -53 -34 -73 -49 -76 -121 -22 -156 -27 -165 -22 -20 13
-220 7 -303 -9 -116 -21 -291 -17 -296 7 -5 25 32 56 75 63 86 14 215 60 268
95 55 36 125 125 125 160 1 41 76 111 165 153 28 14 61 36 75 51 27 30 38 30
170 1z m3421 -42 c376 -18 453 -20 509 -13 19 2 124 3 233 2 l198 -2 25 -54
c38 -84 28 -110 -69 -164 l-76 -44 -228 -3 c-125 -2 -255 1 -288 5 -130 20
-390 29 -515 19 -273 -21 -370 -23 -370 -7 0 8 10 23 21 34 30 26 65 108 74
172 9 71 26 86 85 78 25 -3 206 -14 401 -23z m4033 -75 c49 -33 57 -38 151
-93 84 -48 174 -126 207 -179 46 -74 112 -144 177 -192 70 -51 226 -229 267
-304 17 -30 35 -64 41 -75 51 -93 113 -232 113 -255 0 -23 -11 -34 -67 -70
-69 -43 -77 -44 -156 -24 -27 6 -29 5 -25 -22 4 -35 -27 -54 -90 -54 -24 0
-57 -7 -75 -17 -18 -9 -52 -17 -77 -18 -76 -4 -134 -17 -161 -38 -22 -16 -130
-51 -228 -74 -14 -3 -38 1 -55 10 -17 9 -49 23 -71 31 -43 14 -47 26 -31 91
l7 30 -27 -30 -27 -29 -18 23 c-22 27 -34 65 -26 84 8 21 143 12 197 -12 45
-21 150 -29 150 -12 0 4 -32 11 -71 15 -39 3 -75 9 -80 12 -13 8 1 33 22 39
10 4 19 13 19 21 0 11 -7 10 -29 -7 l-29 -21 -46 21 c-49 21 -76 62 -76 117 0
21 4 25 18 19 36 -14 80 -17 101 -6 33 18 26 33 -14 25 -54 -10 -135 51 -135
102 0 13 7 15 36 9 21 -3 48 -14 62 -23 14 -9 53 -20 86 -23 34 -4 71 -10 83
-14 21 -7 21 -6 10 20 -11 24 -15 26 -52 20 -82 -13 -94 -8 -76 31 16 35 10
38 -33 20 -32 -13 -37 -13 -51 0 -21 21 -19 33 10 76 14 20 25 39 25 42 0 4
-22 6 -49 6 -28 0 -53 5 -56 11 -4 5 -31 21 -60 33 -51 23 -89 61 -79 78 7 12
48 10 61 -3 15 -15 160 -32 179 -21 11 6 -4 11 -49 14 -47 4 -79 14 -115 34
-59 34 -172 156 -172 185 0 26 18 15 31 -17 13 -35 83 -65 132 -57 26 4 50 0
78 -12 46 -21 114 -12 114 15 0 12 -11 14 -51 12 -48 -3 -52 -2 -58 22 -5 19
-13 26 -30 26 -19 0 -26 8 -36 45 -14 51 -26 57 -40 20 -5 -14 -11 -25 -14
-25 -2 0 -18 18 -36 40 -30 38 -31 40 -15 70 14 26 14 30 1 30 -28 0 -76 -57
-76 -91 0 -17 -8 -44 -17 -60 -17 -28 -17 -30 25 -110 23 -44 42 -89 42 -100
0 -11 11 -42 25 -69 14 -27 22 -55 19 -63 -8 -22 22 -127 44 -151 42 -46 55
-102 27 -112 -35 -14 -11 -86 49 -143 43 -41 45 -51 11 -51 -19 0 -31 9 -43
31 -9 17 -44 73 -78 124 -41 63 -73 128 -99 202 -62 178 -148 366 -214 467
-33 52 -61 101 -61 108 0 14 108 66 302 147 48 20 98 45 110 56 43 37 123 75
159 75 23 0 51 -11 83 -32z m-8776 -161 c3 -12 -9 -23 -40 -37 -24 -11 -51
-20 -61 -20 -15 0 -14 5 10 41 22 34 31 40 57 37 20 -2 32 -9 34 -21z m2727
-21 c61 -8 164 -20 230 -26 66 -6 192 -20 280 -30 257 -32 787 -41 1355 -25
189 5 305 4 370 -4 52 -6 140 -12 195 -13 165 -2 455 11 476 22 12 7 26 7 37
2 25 -13 170 -34 182 -27 20 12 985 -21 1285 -44 l80 -6 6 -37 c3 -20 3 -42
-1 -48 -10 -16 -226 -16 -275 0 -32 10 -119 12 -425 7 -313 -6 -416 -4 -550 9
-120 11 -268 15 -543 15 -224 -1 -393 3 -415 8 -20 6 -183 13 -362 15 -472 8
-713 15 -817 26 -51 6 -123 10 -160 10 -37 0 -124 7 -192 17 -93 12 -131 13
-153 5 -21 -8 -51 -7 -116 3 -48 7 -94 15 -102 18 -16 5 -107 18 -315 43 -114
13 -156 21 -214 40 -11 3 -11 7 -1 19 15 18 11 18 145 1z m1 -91 c27 -8 65
-15 85 -15 20 0 42 -6 48 -13 16 -20 -245 -11 -277 9 -12 8 -20 19 -17 24 9
15 106 12 161 -5z m5294 4 c0 -5 -30 -24 -67 -42 -64 -30 -76 -32 -201 -35
-118 -4 -133 -6 -143 -23 -5 -11 -20 -19 -34 -19 -20 0 -25 5 -25 25 0 31 32
45 98 44 74 -2 221 19 287 40 71 23 85 25 85 10z m-7880 -19 c0 -12 -28 -25
-36 -17 -9 9 6 27 22 27 8 0 14 -5 14 -10z m160 -54 c0 -12 -82 -87 -88 -81
-9 8 -22 126 -16 136 6 11 104 -41 104 -55z m2045 -17 c202 -43 251 -47 560
-50 599 -4 906 -13 1020 -27 33 -4 148 -3 255 1 107 4 217 8 244 8 27 -1 63 3
80 8 35 9 242 -3 326 -19 88 -17 98 -18 794 -34 137 -4 172 -7 184 -20 19 -19
12 -34 -78 -161 -32 -44 -63 -91 -70 -105 -11 -23 -30 -52 -108 -173 -22 -33
-29 -37 -56 -32 -17 3 -53 1 -81 -6 -28 -6 -198 -15 -385 -19 -463 -11 -664
-19 -740 -30 -36 -5 -110 -10 -166 -10 -55 0 -125 -4 -155 -9 -30 -5 -200 -12
-378 -16 -179 -3 -327 -8 -331 -10 -3 -2 -82 2 -176 9 -93 8 -252 14 -353 15
-101 1 -189 5 -195 8 -13 9 -112 25 -150 26 -16 0 -35 -8 -41 -17 -17 -22 -42
-20 -55 4 -12 23 -73 30 -64 7 4 -11 -24 -13 -150 -11 -85 1 -161 6 -170 11
-12 7 -7 19 31 68 54 73 75 112 103 195 12 35 34 82 50 105 l29 42 92 11 c51
6 97 8 103 4 6 -3 106 -5 221 -4 203 3 211 4 230 25 17 19 28 22 66 19 35 -3
48 0 52 12 13 33 19 32 -398 44 -159 5 -291 10 -292 11 -16 9 32 103 65 129 9
7 23 9 32 6 8 -4 33 -10 55 -15z m6143 -12 c38 -35 18 -77 -24 -49 -18 12 -36
53 -30 68 6 17 19 12 54 -19z m-2311 -99 c6 -7 8 -30 5 -51 -4 -32 -10 -41
-38 -55 -19 -8 -34 -18 -34 -22 0 -3 14 -25 31 -49 22 -30 35 -39 42 -32 8 8
4 18 -11 34 -27 28 -21 53 14 61 34 9 42 2 55 -50 7 -27 17 -44 26 -44 11 0
13 5 8 18 -21 51 -12 67 74 124 36 25 44 22 25 -7 -23 -36 1 -32 36 5 25 27
60 41 60 24 0 -3 -13 -23 -30 -44 -16 -21 -30 -43 -30 -48 0 -6 -13 -20 -30
-32 -16 -12 -30 -28 -30 -37 0 -14 3 -14 25 1 41 27 57 21 54 -19 -3 -25 2
-38 16 -48 18 -14 18 -15 -8 -41 -16 -16 -24 -32 -20 -42 4 -11 -3 -23 -18
-35 -24 -18 -24 -18 -57 14 -32 30 -34 31 -47 14 -9 -13 -20 -17 -33 -13 -28
9 -35 36 -15 58 23 26 4 45 -26 26 -20 -12 -25 -9 -62 30 -22 23 -41 42 -43
42 -2 0 -6 -9 -9 -20 -3 -13 2 -25 16 -35 16 -11 18 -17 8 -29 -11 -13 -8 -15
16 -13 24 2 28 -2 26 -20 -2 -17 3 -23 16 -23 10 0 25 -8 34 -18 15 -16 15
-20 -3 -50 -15 -24 -27 -32 -49 -32 -25 0 -28 -3 -24 -21 9 -31 -21 -51 -53
-37 -15 7 -23 17 -19 26 3 7 5 17 5 22 0 5 14 11 30 15 17 4 30 9 30 11 0 20
-25 43 -51 49 -18 4 -35 16 -41 31 -10 21 -8 28 17 54 16 17 24 30 18 30 -6 0
-16 -7 -23 -15 -13 -16 -55 -20 -64 -6 -3 4 1 17 9 27 8 10 15 22 15 27 0 13
-23 8 -41 -9 -17 -15 -19 -15 -30 9 -11 23 -9 29 11 45 14 11 20 24 16 31 -6
9 -14 7 -32 -10 -23 -22 -24 -22 -24 -3 0 11 5 25 12 32 9 9 8 12 -6 12 -10 0
-37 -16 -60 -35 -39 -32 -66 -44 -66 -30 0 11 53 85 61 85 5 0 18 18 29 40 24
47 44 58 72 41 10 -6 24 -8 31 -4 6 4 24 6 40 5 16 -2 36 3 43 9 23 19 29 1
11 -31 -23 -39 -4 -50 28 -16 13 14 31 26 40 26 17 0 20 16 5 25 -12 8 -13 35
-1 35 5 0 13 -6 18 -12z m424 -35 c1 -15 1 -288 0 -335 0 -27 -5 -48 -9 -48
-11 0 -22 276 -15 343 3 26 10 47 14 47 5 0 9 -3 10 -7z m-281 -17 c0 -18 -76
-70 -89 -61 -18 11 38 75 65 75 14 0 24 -6 24 -14z m168 -99 c5 -25 -28 -34
-44 -12 -7 10 -11 22 -8 27 10 15 49 4 52 -15z m-608 -92 c-16 -19 -50 -19
-50 0 0 8 12 21 28 29 24 13 27 13 30 0 2 -8 -2 -21 -8 -29z m55 -25 c9 -15
-23 -62 -38 -57 -14 4 -21 32 -13 53 6 16 42 19 51 4z m-120 -20 c3 -10 28
-35 56 -55 27 -20 49 -40 49 -45 0 -5 11 -21 24 -37 26 -31 24 -45 -16 -91
-43 -52 -94 -39 -62 15 10 18 0 11 -29 -19 -25 -27 -48 -48 -51 -48 -10 0 -7
177 4 204 l10 26 -43 -21 c-23 -12 -54 -33 -69 -47 -15 -14 -31 -23 -35 -19
-8 9 26 47 44 47 7 0 13 8 13 18 0 22 64 92 84 92 8 0 17 -9 21 -20z m163 -62
c2 -20 7 -25 22 -21 27 7 38 -24 16 -45 -16 -16 -18 -15 -42 16 -14 17 -32 32
-40 32 -17 0 -18 22 -2 38 19 19 43 9 46 -20z m-4774 -29 c34 -40 41 -72 26
-109 -14 -34 -83 -100 -105 -100 -19 0 -35 31 -35 69 0 57 54 171 81 171 4 0
19 -14 33 -31z m5125 -33 c10 -12 7 -18 -13 -31 -14 -10 -26 -23 -26 -30 0
-26 -57 -34 -67 -9 -4 11 6 27 33 50 44 37 56 41 73 20z m54 -60 c-1 -11 6
-26 15 -32 11 -9 14 -16 7 -23 -15 -15 -80 41 -72 63 10 25 53 17 50 -8z
m-388 -49 c-7 -18 -16 -40 -19 -49 -7 -23 -42 -23 -50 -2 -4 9 -1 24 6 33 32
43 51 59 63 54 12 -4 12 -10 0 -36z m-4576 -16 c-3 -8 -10 -8 -23 2 -12 8 -16
19 -11 26 6 10 11 10 22 -2 9 -8 14 -20 12 -26z m4800 13 c36 -30 38 -43 12
-75 l-19 -24 -26 24 c-32 30 -40 55 -26 81 14 26 22 25 59 -6z m149 -32 c-2
-9 -16 -23 -31 -30 -38 -18 -42 -33 -21 -87 19 -51 12 -69 -27 -63 -22 3 -24
8 -27 65 -3 53 0 64 17 75 14 8 19 19 15 34 -3 12 -1 32 6 43 l11 22 30 -22
c17 -12 29 -28 27 -37z m142 54 c0 -3 -4 -8 -10 -11 -5 -3 -10 -1 -10 4 0 6 5
11 10 11 6 0 10 -2 10 -4z m-30 -34 c0 -5 -6 -17 -14 -28 -12 -15 -17 -16 -27
-7 -10 10 -9 15 1 28 13 16 40 21 40 7z m-4925 -32 c15 -17 16 -24 5 -50 -20
-48 -40 -38 -40 20 0 54 7 61 35 30z m4612 -46 c23 -36 8 -56 -52 -71 -27 -7
-51 -10 -53 -8 -8 8 20 96 35 111 18 17 46 5 70 -32z m273 -4 c0 -15 -61 -60
-81 -60 -30 0 -23 40 13 78 l33 33 17 -22 c10 -11 18 -25 18 -29z m-4770 -46
c0 -8 -4 -14 -10 -14 -5 0 -10 9 -10 21 0 11 5 17 10 14 6 -3 10 -13 10 -21z
m8071 -95 c3 -24 9 -56 13 -71 5 -18 4 -28 -2 -28 -6 0 -13 13 -17 29 -3 16
-13 35 -21 42 -12 9 -14 6 -14 -20 0 -28 -3 -31 -29 -31 -35 0 -77 31 -67 49
12 18 109 80 121 77 6 -1 13 -22 16 -47z m-1991 31 c-9 -6 -111 -9 -245 -8
-132 1 -209 4 -180 8 81 11 442 11 425 0z m1766 -88 c29 -18 50 -162 24 -162
-4 0 -24 14 -45 30 -21 17 -41 30 -45 30 -9 0 -33 80 -26 87 4 4 49 17 76 22
3 0 10 -3 16 -7z m-212 -69 c9 -44 6 -143 -5 -143 -17 0 -87 55 -103 82 -25
41 -20 55 27 71 62 23 75 21 81 -10z m536 -10 c17 -29 18 -38 8 -44 -21 -14
-25 -11 -32 22 -7 36 -8 59 -2 59 2 0 14 -16 26 -37z m-145 17 c-3 -5 -11 -10
-16 -10 -6 0 -7 5 -4 10 3 6 11 10 16 10 6 0 7 -4 4 -10z m-260 -99 c22 -27
50 -54 63 -60 34 -16 28 -41 -10 -41 -18 0 -43 -3 -54 -6 -19 -5 -24 3 -46 73
-35 111 -23 119 47 34z m-346 7 c16 -53 24 -108 15 -108 -16 0 -109 75 -112
90 -1 9 13 22 35 32 51 22 50 22 62 -14z m-452 2 c3 -16 -13 -47 -21 -40 -2 3
-8 18 -12 34 -6 24 -4 27 12 24 10 -2 20 -10 21 -18z m185 -34 c60 -16 104
-36 143 -64 69 -50 69 -50 -125 -55 -74 -2 -145 -7 -158 -12 -21 -7 -23 -5
-17 21 14 63 37 123 48 128 19 7 17 7 109 -18z m438 -106 c-8 -6 -22 -9 -30
-7 -20 3 -42 51 -34 72 6 14 12 11 43 -19 30 -31 33 -38 21 -46z m1613 -27
c-7 -2 -19 -2 -25 0 -7 3 -2 5 12 5 14 0 19 -2 13 -5z"/>
<path d="M6179 7862 c-19 -32 -43 -75 -53 -97 -16 -38 -16 -44 -1 -90 10 -28
24 -58 34 -69 20 -23 76 -51 118 -61 44 -9 48 -19 15 -40 -55 -36 -123 -98
-138 -127 -9 -16 -19 -68 -24 -114 -13 -123 8 -172 117 -281 45 -45 94 -85
108 -89 31 -8 148 19 182 42 13 8 29 27 36 41 10 22 8 28 -13 45 l-24 19 -44
-45 c-56 -59 -81 -60 -154 -5 -53 39 -133 136 -159 192 -18 39 4 61 46 47 17
-5 42 -12 58 -15 18 -4 39 -22 63 -55 23 -32 43 -50 56 -50 29 0 88 63 88 94
0 33 -10 33 -40 1 -13 -14 -27 -25 -30 -25 -4 0 -15 21 -25 46 l-18 46 -41 -6
c-22 -3 -57 -9 -77 -12 -31 -5 -36 -3 -47 20 -12 28 -7 76 14 117 13 26 101
96 187 149 67 42 69 55 14 104 -25 22 -60 68 -78 101 -43 77 -97 153 -118 164
-13 7 -23 -2 -52 -47z m142 -127 c15 -21 37 -58 50 -82 24 -44 24 -45 5 -59
-27 -19 -84 -18 -125 4 -32 16 -60 56 -76 110 -6 20 -3 22 29 22 26 0 40 7 53
25 23 31 32 28 64 -20z"/>
<path d="M8547 6129 c-24 -14 -53 -72 -38 -77 6 -2 11 -8 11 -14 0 -6 -6 -6
-15 2 -8 7 -21 10 -29 7 -26 -10 -131 -188 -119 -201 17 -16 37 0 90 72 31 42
81 106 111 141 41 49 51 66 40 72 -17 11 -29 11 -51 -2z"/>
<path d="M8284 5743 c-21 -32 -42 -71 -47 -88 -6 -16 -20 -55 -33 -85 -27 -66
-38 -116 -29 -130 9 -15 35 20 78 105 20 39 45 84 56 100 12 17 21 46 21 66 0
19 7 44 15 55 20 26 19 34 -5 34 -13 0 -32 -19 -56 -57z"/>
<path d="M8645 5646 c-12 -8 -16 -19 -12 -30 8 -19 22 -14 37 14 13 24 -2 33
-25 16z"/>
<path d="M8563 5518 c-4 -7 -18 -34 -30 -60 -20 -43 -21 -58 -2 -58 8 0 79
109 79 122 0 13 -38 9 -47 -4z"/>
<path d="M8459 5318 c-31 -49 -99 -204 -99 -228 0 -5 4 -10 9 -10 10 0 141
258 141 278 0 25 -18 11 -51 -40z"/>
<path d="M6503 5218 c-64 -31 -15 -113 52 -88 32 12 33 49 2 78 -26 25 -24 24
-54 10z"/>
<path d="M8336 5045 c-8 -23 -8 -35 3 -35 13 0 23 32 13 42 -6 6 -12 3 -16 -7z"/>
<path d="M6377 5043 c-4 -3 -7 -25 -7 -49 0 -43 10 -54 50 -54 21 0 40 28 40
58 0 35 -60 68 -83 45z"/>
<path d="M6180 4845 c-19 -23 -4 -64 26 -71 33 -8 64 20 64 58 0 26 -3 28 -39
28 -22 0 -44 -6 -51 -15z"/>
<path d="M8494 4783 c-4 -16 -12 -35 -19 -43 -7 -8 -61 -87 -120 -175 -59 -88
-115 -169 -126 -181 -21 -22 -24 -34 -10 -34 13 0 131 120 131 133 0 6 25 43
55 83 60 80 138 221 129 235 -11 18 -34 8 -40 -18z"/>
<path d="M8737 4618 c-14 -18 -35 -53 -47 -78 -41 -82 -267 -422 -321 -483
-80 -90 -119 -142 -119 -160 0 -29 14 -18 101 78 124 136 429 607 429 660 0
24 -17 17 -43 -17z"/>
<path d="M6177 4613 c-23 -22 12 -73 51 -73 25 0 37 32 22 60 -10 19 -58 28
-73 13z"/>
<path d="M8743 4358 c-12 -13 -54 -86 -94 -163 -40 -77 -91 -165 -114 -195
-23 -30 -56 -77 -74 -103 -18 -27 -53 -71 -77 -98 -39 -45 -57 -89 -36 -89 18
0 117 122 230 284 38 55 201 348 205 370 4 19 -20 15 -40 -6z"/>
<path d="M8820 4339 c0 -29 -67 -173 -130 -278 -66 -109 -87 -168 -58 -159 17
6 172 277 198 346 24 63 26 102 5 102 -8 0 -15 -5 -15 -11z"/>
<path d="M8097 4220 c-29 -23 -52 -58 -44 -67 8 -7 47 16 47 29 0 6 7 16 16
23 9 6 15 17 13 24 -3 9 -13 6 -32 -9z"/>
<path d="M6987 4020 c-60 -15 -111 -31 -115 -35 -10 -10 21 -26 38 -19 13 5
147 40 223 58 15 3 27 11 27 16 0 17 -59 10 -173 -20z"/>
<path d="M8785 3819 c-4 -6 -5 -12 -2 -15 2 -3 7 2 10 11 7 17 1 20 -8 4z"/>
<path d="M5166 3399 c-24 -68 -51 -199 -63 -302 -4 -39 -2 -46 10 -41 9 3 17
26 21 61 6 50 14 89 47 232 6 30 6 48 0 54 -7 7 -12 6 -15 -4z"/>
<path d="M4775 3177 c-8 -19 10 -47 31 -47 19 0 17 10 -6 40 -17 22 -19 23
-25 7z"/>
<path d="M4826 3102 c-8 -14 46 -76 62 -71 7 2 -2 20 -22 43 -20 25 -35 35
-40 28z"/>
<path d="M4767 2643 c-12 -11 -8 -23 8 -23 8 0 15 7 15 15 0 16 -12 20 -23 8z"/>
<path d="M4854 2635 c-18 -14 -17 -15 15 -13 19 2 36 9 39 16 5 17 -30 15 -54
-3z"/>
<path d="M4365 2607 c-24 -18 -11 -37 26 -37 33 0 51 26 28 41 -19 12 -32 11
-54 -4z"/>
<path d="M4476 2611 c-8 -13 21 -34 39 -27 25 9 18 36 -9 36 -14 0 -27 -4 -30
-9z"/>
<path d="M5440 2013 c0 -7 -5 -13 -12 -13 -8 0 -8 -3 -2 -9 11 -12 139 -28
279 -36 55 -3 121 -8 148 -11 41 -4 47 -2 47 14 0 24 -34 32 -129 32 -36 0
-95 5 -131 11 -136 22 -200 26 -200 12z"/>
<path d="M7180 1712 c0 -9 91 -79 135 -104 31 -18 65 -23 64 -10 0 4 -27 20
-61 36 -33 15 -75 41 -93 57 -33 30 -45 35 -45 21z"/>
<path d="M10345 779 c-22 -10 -61 -19 -86 -19 -26 0 -53 -7 -65 -16 -18 -14
-14 -15 46 -10 70 6 172 37 178 55 5 16 -28 12 -73 -10z"/>
<path d="M7200 1135 c-24 -25 -21 -47 3 -27 10 9 16 9 25 0 9 -9 18 -8 39 1
27 13 27 14 7 21 -12 5 -25 13 -29 19 -10 16 -19 13 -45 -14z"/>
<path d="M7430 985 c7 -9 15 -13 17 -11 7 7 -7 26 -19 26 -6 0 -6 -6 2 -15z"/>
<path d="M7520 975 c0 -17 2 -18 24 -9 18 7 12 24 -10 24 -8 0 -14 -7 -14 -15z"/>
<path d="M7600 931 c0 -10 30 -24 37 -17 3 3 2 9 -2 15 -8 13 -35 15 -35 2z"/>
<path d="M7060 814 c0 -8 5 -12 10 -9 6 3 10 10 10 16 0 5 -4 9 -10 9 -5 0
-10 -7 -10 -16z"/>
<path d="M420 3587 c-37 -19 -72 -76 -65 -107 11 -45 39 -72 100 -95 33 -12
77 -34 97 -47 77 -52 149 -42 189 27 24 41 66 50 116 24 65 -33 100 22 47 75
-23 22 -35 26 -85 26 -32 0 -70 -5 -84 -10 -15 -6 -77 -11 -139 -13 -93 -2
-116 1 -139 16 -32 21 -34 40 -7 74 30 38 16 53 -30 30z"/>
<path d="M5623 593 c-7 -3 -13 -17 -13 -31 l0 -27 118 1 c64 0 136 4 159 8 45
8 63 30 35 45 -17 9 -277 13 -299 4z"/>
</g>
</svg>
