<?xml version="1.0" standalone="no"?>
<!DOCTYPE svg PUBLIC "-//W3C//DTD SVG 20010904//EN"
 "http://www.w3.org/TR/2001/REC-SVG-20010904/DTD/svg10.dtd">
<svg version="1.0" xmlns="http://www.w3.org/2000/svg"
 width="1089.000000pt" height="1280.000000pt" viewBox="0 0 1089.000000 1280.000000"
 preserveAspectRatio="xMidYMid meet">
<metadata>
Created by potrace 1.15, written by Peter Selinger 2001-2017
</metadata>
<g transform="translate(0.000000,1280.000000) scale(0.100000,-0.100000)"
fill="#000000" stroke="none">
<path d="M4406 12775 c-13 -14 -38 -53 -56 -87 -18 -35 -38 -66 -44 -70 -20
-14 -62 -8 -162 22 -54 16 -124 33 -154 36 -30 3 -120 16 -200 29 -329 54
-595 68 -789 39 -105 -15 -375 -95 -449 -133 -21 -10 -95 -40 -167 -66 -156
-56 -277 -115 -339 -164 -115 -91 -150 -117 -176 -131 -37 -20 -62 -52 -106
-139 -42 -84 -40 -83 -178 -42 -109 33 -121 40 -144 90 -17 34 -19 36 -127 59
-238 51 -576 20 -575 -52 2 -73 62 -159 149 -213 31 -19 74 -48 96 -63 22 -15
103 -59 181 -98 199 -100 351 -224 373 -307 6 -22 17 -148 26 -280 l14 -240
44 -120 c73 -199 147 -555 148 -715 0 -47 -5 -146 -12 -220 -17 -164 -16 -228
4 -266 8 -16 17 -59 21 -96 3 -37 18 -97 32 -135 22 -58 25 -76 18 -123 -4
-30 -7 -142 -5 -249 2 -166 6 -207 26 -285 13 -50 27 -136 30 -191 6 -88 12
-111 49 -195 24 -52 56 -135 71 -185 42 -130 144 -326 267 -510 104 -157 169
-274 181 -326 4 -14 20 -42 36 -62 40 -51 102 -174 156 -306 24 -62 56 -127
70 -145 14 -18 25 -44 25 -57 0 -14 11 -45 24 -69 27 -49 35 -66 158 -320 47
-96 101 -200 120 -230 19 -30 60 -106 91 -167 31 -62 83 -153 116 -202 62 -92
111 -190 111 -221 0 -18 -86 -87 -149 -120 -21 -10 -73 -44 -115 -74 -42 -30
-102 -67 -134 -82 -31 -15 -68 -36 -81 -46 -13 -10 -30 -18 -37 -18 -17 0
-137 88 -194 143 -25 24 -53 48 -61 53 -8 5 -27 30 -42 55 -40 71 -298 390
-340 422 -42 32 -112 127 -152 206 -26 51 -27 60 -20 145 5 77 3 102 -14 157
-28 89 -84 170 -179 261 -97 92 -148 114 -253 105 -77 -7 -105 -19 -174 -77
-88 -73 -328 -180 -510 -226 -513 -130 -730 -228 -814 -367 -80 -134 -107
-252 -76 -334 32 -87 158 -347 183 -380 13 -18 38 -41 56 -52 46 -29 195 -81
231 -81 34 0 75 24 75 44 0 18 -39 52 -80 69 -40 16 -90 70 -90 96 0 19 29 51
46 51 5 0 47 -45 93 -100 46 -55 99 -110 118 -121 41 -26 94 -28 146 -6 33 14
37 20 37 51 0 29 -4 36 -19 36 -20 0 -167 72 -185 90 -6 6 -2 17 10 31 24 27
133 109 144 109 5 0 26 -32 47 -72 49 -93 144 -193 198 -207 70 -19 123 -14
150 14 36 35 31 56 -18 84 -73 41 -115 80 -127 117 -12 36 -12 36 46 90 33 30
67 54 76 54 9 0 42 -22 74 -50 62 -54 91 -67 250 -107 15 -3 29 4 47 23 23 25
25 30 12 44 -8 9 -39 24 -68 33 -86 27 -93 36 -79 93 36 148 61 233 76 263 22
41 172 186 194 186 20 0 68 -120 81 -205 11 -68 31 -111 64 -137 22 -17 170
-209 234 -303 17 -25 56 -92 88 -150 78 -141 276 -471 392 -652 101 -158 134
-190 188 -181 17 3 64 -2 105 -10 106 -21 217 -4 330 53 30 15 72 30 93 34 54
10 228 99 312 160 39 28 105 69 148 90 67 34 78 37 93 25 16 -12 70 -94 266
-396 104 -161 587 -708 740 -839 113 -96 272 -241 416 -379 89 -85 272 -299
272 -318 0 -5 -10 -7 -23 -4 -12 4 -78 13 -146 22 -68 9 -178 32 -245 52 -173
51 -215 60 -356 78 -141 18 -341 66 -540 130 -74 24 -229 67 -345 94 -115 28
-244 60 -285 71 -41 11 -100 23 -130 26 -30 4 -104 22 -165 41 -60 19 -168 45
-240 59 -71 14 -177 34 -235 45 -58 12 -138 32 -178 45 -40 13 -88 24 -107 24
-20 0 -65 15 -103 34 -66 33 -397 146 -429 146 -13 0 -15 -9 -10 -47 4 -42 2
-50 -24 -75 -42 -42 -56 -98 -40 -156 7 -26 14 -64 16 -84 3 -21 12 -52 22
-70 9 -18 19 -44 21 -57 2 -14 7 -32 11 -40 5 -9 5 -25 0 -36 -14 -36 -9 -99
10 -132 11 -17 23 -48 27 -68 3 -20 22 -54 40 -76 24 -28 34 -51 34 -74 0 -18
6 -37 13 -43 6 -5 46 -15 87 -22 41 -7 131 -28 200 -47 69 -19 192 -45 275
-59 82 -14 179 -32 215 -40 214 -49 327 -79 425 -114 61 -21 223 -73 360 -115
138 -41 345 -107 460 -144 225 -74 323 -96 478 -105 111 -7 445 -59 523 -81
28 -8 101 -21 162 -29 122 -16 139 -23 194 -72 37 -33 101 -69 168 -94 83 -31
169 -73 174 -87 3 -7 0 -40 -8 -72 -18 -77 -9 -97 86 -188 85 -82 107 -93 181
-93 65 0 123 26 165 74 48 55 39 99 -13 62 -11 -7 -52 -31 -91 -54 l-72 -40
-43 28 c-52 35 -95 97 -104 150 -5 31 -2 45 16 70 13 17 26 52 29 78 4 39 9
48 28 50 18 3 27 -6 47 -50 14 -29 25 -59 25 -66 0 -20 105 -64 173 -72 70 -8
259 28 286 54 8 9 25 42 36 74 l21 57 69 -3 c112 -5 286 -30 309 -45 11 -8 52
-17 90 -22 88 -9 121 -37 132 -111 9 -60 71 -245 154 -459 67 -171 86 -234
119 -386 21 -98 182 -522 246 -648 40 -79 88 -147 145 -207 l42 -44 292 2 291
3 30 60 30 60 0 320 c-1 203 -6 351 -13 405 -23 153 -93 534 -103 558 -5 13
-23 28 -39 34 -29 10 -57 44 -46 55 13 13 756 -150 1126 -247 296 -78 597
-150 624 -150 12 0 27 5 33 11 7 7 21 3 48 -15 20 -14 53 -28 74 -31 76 -11
137 -29 235 -67 85 -34 392 -117 434 -118 9 0 12 120 12 565 l0 565 -23 9
c-13 5 -50 12 -83 16 -32 4 -117 22 -189 41 -71 18 -168 38 -215 44 -52 7 -96
19 -112 31 -21 15 -68 24 -200 39 -203 23 -251 32 -378 70 -52 16 -122 32
-155 35 -79 9 -169 29 -263 60 -42 14 -99 25 -126 25 -29 0 -67 8 -90 20 -68
33 -477 127 -596 137 -107 9 -109 12 -120 177 -5 67 -16 156 -24 197 -34 164
-99 427 -118 472 -10 27 -18 52 -16 56 3 8 126 -65 312 -184 49 -31 134 -82
190 -113 55 -30 164 -95 241 -143 233 -144 284 -169 555 -264 36 -12 187 -77
335 -145 270 -122 329 -146 525 -216 58 -20 144 -54 191 -75 49 -22 102 -39
123 -39 41 0 116 27 116 43 0 6 -38 61 -85 124 -85 113 -135 159 -298 275 -46
32 -86 74 -127 130 -34 46 -129 156 -213 246 -139 149 -201 218 -386 432 -72
83 -153 203 -200 297 -20 40 -55 85 -96 125 -50 47 -79 87 -118 161 -29 54
-90 146 -135 205 -151 194 -206 285 -305 507 -283 639 -437 1008 -568 1358
-33 89 -74 193 -90 231 -17 39 -44 108 -60 153 -16 45 -72 164 -124 265 -51
101 -134 280 -184 399 -49 120 -108 254 -131 298 -22 45 -68 144 -101 219 -65
146 -162 335 -240 466 -117 197 -112 190 -174 222 -58 29 -59 31 -80 99 -34
112 -82 193 -210 360 -34 44 -88 123 -120 175 -32 52 -111 169 -175 260 -65
91 -157 233 -205 315 -48 83 -104 173 -124 200 -89 124 -205 267 -241 295 -65
51 -206 238 -325 430 -79 126 -158 232 -275 365 -148 169 -247 310 -321 457
-39 79 -147 244 -211 323 -26 33 -48 66 -48 74 0 7 -17 33 -37 56 -21 23 -51
64 -68 90 -16 27 -38 61 -49 77 -15 24 -19 56 -24 196 l-5 168 62 102 c95 157
95 157 115 186 10 15 29 56 42 91 l24 65 -216 0 -215 0 -23 -25z m-748 -1560
c81 -35 109 -81 118 -198 l7 -85 -44 -46 c-24 -25 -56 -59 -70 -75 -50 -56
-156 -63 -295 -20 -63 19 -91 42 -118 96 -22 44 -21 46 22 39 88 -14 203 43
250 123 23 39 27 57 26 114 l-1 67 34 0 c18 0 50 -7 71 -15z m-223 -11 c19
-20 16 -53 -7 -68 -13 -8 -22 -6 -37 8 -24 21 -27 46 -9 64 16 16 34 15 53 -4z
m-897 -185 c82 -17 172 -112 172 -182 0 -33 -30 -118 -49 -141 -14 -16 -26
-18 -111 -12 -141 10 -243 22 -262 30 -23 11 -23 26 0 26 10 0 41 12 70 26 65
32 100 96 106 194 3 36 5 66 5 68 2 4 20 2 69 -9z m-154 -45 c19 -19 20 -26 4
-42 -21 -21 -55 -14 -60 12 -8 42 26 60 56 30z m4092 -9099 c-6 -18 -60 -32
-181 -49 l-96 -13 -20 39 c-24 47 -13 55 58 39 51 -10 73 -7 178 27 l60 20 3
-25 c2 -14 1 -31 -2 -38z"/>
</g>
</svg>
