<?xml version="1.0" standalone="no"?>
<!DOCTYPE svg PUBLIC "-//W3C//DTD SVG 20010904//EN"
 "http://www.w3.org/TR/2001/REC-SVG-20010904/DTD/svg10.dtd">
<svg version="1.0" xmlns="http://www.w3.org/2000/svg"
 width="1280.000000pt" height="1208.000000pt" viewBox="0 0 1280.000000 1208.000000"
 preserveAspectRatio="xMidYMid meet">
<metadata>
Created by potrace 1.15, written by Peter Selinger 2001-2017
</metadata>
<g transform="translate(0.000000,1208.000000) scale(0.100000,-0.100000)"
fill="#000000" stroke="none">
<path d="M7493 12066 c-23 -7 -77 -38 -121 -69 -43 -30 -110 -71 -148 -90 -38
-19 -92 -55 -119 -79 -28 -24 -111 -91 -185 -149 -227 -175 -699 -643 -1135
-1124 -303 -335 -567 -594 -573 -563 -5 25 39 113 137 273 71 116 91 157 89
180 -3 25 -8 30 -33 33 -25 2 -70 -28 -290 -194 -143 -108 -325 -242 -405
-297 -80 -56 -226 -163 -325 -238 -99 -75 -361 -257 -583 -404 -221 -147 -426
-288 -455 -315 -29 -26 -108 -87 -177 -136 -229 -161 -413 -289 -586 -407
-166 -114 -241 -169 -496 -367 -194 -151 -237 -189 -347 -311 -296 -326 -544
-644 -783 -1003 -136 -206 -294 -522 -336 -676 -49 -178 -65 -290 -59 -405 13
-238 97 -355 256 -355 l63 0 -7 -42 c-3 -24 -16 -63 -29 -88 -19 -39 -37 -54
-126 -108 -212 -128 -438 -326 -532 -466 -66 -99 -128 -218 -164 -314 l-24
-62 0 -816 0 -815 36 -57 c50 -78 75 -104 177 -179 90 -67 107 -86 107 -123 0
-11 -32 -114 -70 -228 -78 -229 -132 -463 -134 -582 -1 -62 8 -105 47 -245 53
-184 96 -279 176 -385 72 -95 176 -194 195 -187 19 8 21 70 5 165 -16 89 -3
128 69 200 53 54 85 76 289 206 155 99 288 256 374 443 56 123 137 260 162
279 12 8 65 42 117 76 70 45 133 99 238 204 78 79 142 136 142 128 0 -50 -47
-234 -84 -329 -45 -114 -231 -521 -248 -542 -6 -7 -19 -13 -29 -13 -35 0 -67
-22 -89 -64 -70 -128 -99 -162 -186 -217 -144 -91 -286 -199 -354 -269 -76
-78 -147 -193 -159 -256 -9 -49 3 -133 25 -176 28 -55 49 -29 57 70 11 136 66
215 260 374 l99 81 -7 -44 c-4 -24 -16 -80 -26 -124 -23 -97 -24 -184 -4 -252
19 -64 49 -103 65 -86 7 6 25 83 41 170 16 87 39 184 51 217 21 57 100 176
117 176 17 0 34 -127 36 -265 2 -175 0 -165 29 -165 29 0 70 46 102 115 41 88
29 197 -41 359 -49 112 -47 141 15 213 90 105 128 157 163 228 52 104 247 648
258 719 25 166 33 197 69 271 21 44 69 125 106 180 60 86 73 100 100 103 17 2
35 -3 41 -10 5 -7 24 -69 42 -138 49 -188 168 -411 287 -540 61 -65 71 -95 55
-171 -11 -59 -76 -668 -86 -814 -6 -93 17 -453 36 -560 13 -76 13 -67 -1 -152
-15 -88 -9 -127 31 -182 66 -89 170 -108 286 -51 50 25 71 43 94 78 26 41 29
55 29 128 l0 81 88 154 c90 157 221 397 262 479 12 25 47 84 78 133 53 85 85
164 202 502 l38 110 194 163 c106 90 205 170 220 178 17 9 76 16 161 21 131 6
135 5 157 -17 22 -22 22 -28 17 -117 -12 -174 -48 -436 -69 -491 -30 -81 -108
-153 -331 -307 -222 -153 -276 -181 -362 -191 -66 -7 -89 -16 -122 -47 -26
-23 -30 -62 -9 -70 19 -8 283 81 364 122 34 17 132 79 217 137 85 57 155 100
155 94 0 -6 -32 -82 -71 -168 -39 -86 -86 -191 -105 -233 -44 -97 -60 -180
-43 -221 16 -38 29 -32 57 28 65 136 310 575 337 602 2 2 48 -34 102 -80 54
-46 155 -130 226 -186 70 -57 135 -115 144 -130 23 -36 35 -43 50 -30 37 31
-13 124 -123 228 -183 173 -264 263 -297 330 -30 60 -32 72 -32 165 0 72 6
117 20 160 17 51 20 86 19 227 l-1 168 126 39 c216 68 471 209 636 351 174
149 295 229 659 432 439 245 472 267 824 532 346 261 354 266 379 263 13 -1
87 -66 182 -160 192 -191 202 -207 182 -326 -54 -325 -264 -1032 -448 -1506
-38 -99 -92 -241 -119 -315 -27 -74 -86 -209 -130 -301 -78 -159 -107 -199
-154 -214 -10 -3 -28 -25 -40 -48 -50 -96 -113 -177 -170 -221 -85 -64 -152
-86 -310 -102 -219 -22 -254 -30 -347 -72 -68 -31 -133 -50 -288 -82 -173 -35
-203 -44 -222 -66 -59 -65 10 -114 117 -84 19 5 88 19 152 30 65 11 146 31
180 45 37 16 134 38 238 56 211 35 308 59 392 94 123 52 143 58 171 51 26 -6
26 -8 14 -36 -16 -39 -101 -108 -197 -160 -85 -46 -188 -122 -197 -147 -11
-28 33 -53 91 -53 86 0 225 76 385 209 83 70 117 109 163 190 51 89 104 157
143 181 79 49 222 43 420 -16 164 -49 191 -62 229 -107 25 -29 38 -38 51 -33
15 5 17 14 12 56 -7 59 -26 98 -74 151 -64 71 -112 87 -341 120 -113 16 -211
34 -219 40 -21 18 -33 76 -22 112 5 17 23 44 41 59 29 23 34 36 44 100 12 81
79 341 126 488 17 52 76 214 132 360 57 146 131 346 166 445 35 99 90 243 122
320 173 411 228 610 188 685 -7 14 -48 78 -91 142 -42 64 -82 132 -87 150 -6
18 -14 87 -18 153 -16 230 -8 305 34 305 23 0 80 -35 116 -72 47 -46 84 -60
179 -67 104 -8 86 9 210 -193 48 -78 112 -177 141 -219 58 -83 93 -163 107
-249 5 -34 4 -279 -4 -640 -6 -322 -12 -709 -11 -860 0 -258 2 -283 26 -396
31 -141 54 -338 45 -375 -10 -38 -54 -78 -95 -85 -22 -4 -95 3 -191 19 -182
30 -424 52 -473 43 -37 -7 -118 -69 -118 -90 0 -7 6 -21 14 -31 13 -17 15 -18
55 -2 39 16 46 16 134 -3 50 -12 180 -39 287 -61 137 -27 199 -44 208 -56 17
-24 15 -77 -5 -102 -10 -11 -84 -50 -165 -85 -81 -36 -165 -74 -186 -85 -65
-33 -126 -118 -115 -159 8 -31 30 -27 106 18 114 69 646 270 714 270 33 0 90
-8 313 -45 267 -44 300 -52 350 -85 14 -9 35 -19 48 -23 19 -4 22 -1 22 21 0
33 -36 93 -72 122 -38 29 -122 62 -280 110 -180 54 -194 69 -173 191 11 69
-40 169 -138 270 -64 65 -78 87 -106 160 -57 148 -60 174 -62 539 0 184 2 403
6 487 5 102 4 191 -5 275 -11 107 -10 134 4 207 12 62 16 143 16 315 0 149 5
273 15 346 11 81 12 124 5 150 -6 23 -52 87 -126 176 -227 270 -306 379 -426
590 -41 71 -93 157 -116 192 -55 86 -61 131 -33 247 13 49 56 237 96 416 73
324 90 379 146 449 73 92 350 561 429 725 42 88 110 216 152 285 119 196 157
280 243 530 56 162 85 225 182 395 43 77 110 214 147 305 96 230 185 404 284
550 47 69 111 177 143 240 55 111 63 121 211 271 160 163 241 229 1023 838
549 427 1087 864 1130 917 22 27 169 178 327 335 l288 285 0 142 c0 78 -2 142
-5 142 -20 0 -229 -103 -342 -168 -549 -317 -686 -403 -1045 -654 -353 -247
-870 -588 -891 -588 -16 0 85 190 213 400 79 129 176 291 217 359 73 122 158
234 318 421 164 192 178 219 134 274 -34 43 -83 36 -160 -23 -35 -27 -145 -92
-244 -146 -391 -212 -737 -426 -1335 -825 -515 -344 -782 -545 -1027 -772 -97
-90 -157 -123 -322 -179 -135 -47 -651 -299 -914 -448 -98 -56 -280 -168 -405
-249 -304 -198 -386 -250 -390 -247 -6 5 83 214 266 627 191 428 251 581 239
612 -11 28 -64 19 -131 -21 -33 -20 -108 -68 -164 -105 -98 -64 -143 -84 -126
-55 42 70 170 220 364 428 233 250 443 494 641 745 26 33 65 95 87 139 22 44
57 105 77 135 43 67 57 116 56 198 -1 78 -18 119 -76 180 -83 90 -235 133
-342 98z m-4307 -10588 c-4 -29 -29 -195 -56 -368 -27 -173 -54 -354 -61 -402
-7 -49 -15 -88 -18 -88 -3 0 -24 12 -46 25 -56 35 -113 33 -194 -5 -35 -17
-65 -29 -66 -28 -15 17 414 918 437 918 7 0 8 -17 4 -52z m-256 -1012 c-18
-23 -30 -20 -30 7 0 32 11 40 29 23 12 -12 12 -18 1 -30z"/>
<path d="M1919 637 c-59 -22 -98 -55 -129 -110 -47 -82 -40 -176 19 -269 34
-53 81 -82 160 -96 70 -13 111 -2 172 44 62 48 106 112 115 170 14 94 -44 212
-123 249 -49 24 -166 30 -214 12z m141 -162 c16 -19 4 -35 -26 -35 -19 0 -24
5 -24 25 0 29 29 35 50 10z"/>
<path d="M180 530 c-70 -13 -130 -60 -164 -127 -21 -42 -22 -184 -1 -244 20
-57 67 -105 130 -135 66 -31 107 -30 180 4 69 33 119 85 134 139 15 51 14 146
-1 197 -13 44 -85 124 -134 149 -37 18 -100 26 -144 17z m98 -162 c5 -7 13
-23 16 -35 7 -20 4 -23 -23 -23 -29 0 -31 3 -31 35 0 36 18 47 38 23z"/>
<path d="M3915 511 c-46 -27 -81 -74 -101 -133 -46 -136 -5 -235 125 -302 83
-44 226 33 261 139 7 20 10 66 8 101 -5 87 -41 137 -128 181 -74 37 -121 41
-165 14z m141 -158 c15 -20 19 -53 6 -53 -15 0 -32 24 -32 47 0 27 8 29 26 6z"/>
<path d="M4595 501 c-54 -24 -119 -100 -135 -156 -24 -85 8 -190 72 -238 50
-37 102 -50 176 -44 152 12 230 146 183 315 -14 51 -64 110 -108 128 -46 20
-140 17 -188 -5z m145 -136 c0 -14 0 -28 1 -32 0 -5 -7 -9 -15 -11 -17 -4 -21
22 -10 52 9 25 24 19 24 -9z"/>
</g>
</svg>
