<?xml version="1.0" standalone="no"?>
<!DOCTYPE svg PUBLIC "-//W3C//DTD SVG 20010904//EN"
 "http://www.w3.org/TR/2001/REC-SVG-20010904/DTD/svg10.dtd">
<svg version="1.0" xmlns="http://www.w3.org/2000/svg"
 width="1280.000000pt" height="863.000000pt" viewBox="0 0 1280.000000 863.000000"
 preserveAspectRatio="xMidYMid meet">
<metadata>
Created by potrace 1.15, written by Peter Selinger 2001-2017
</metadata>
<g transform="translate(0.000000,863.000000) scale(0.100000,-0.100000)"
fill="#000000" stroke="none">
<path d="M11750 8604 c-64 -54 -110 -209 -110 -371 0 -129 -32 -178 -129 -198
l-34 -7 7 48 c4 27 19 66 32 87 42 65 46 84 29 144 l-16 55 -41 -7 c-22 -4
-63 -18 -92 -31 -28 -13 -67 -25 -86 -26 -34 -3 -35 -2 -38 34 -2 24 7 58 27
103 17 37 31 69 31 71 0 1 -24 6 -54 9 -64 8 -115 -14 -166 -71 -38 -43 -80
-128 -80 -162 0 -39 -18 -61 -61 -72 -23 -6 -43 -9 -45 -7 -3 2 -9 33 -15 68
-18 111 -28 136 -64 168 -47 41 -110 44 -147 6 -24 -23 -30 -41 -58 -151 -13
-55 -44 -92 -94 -115 -87 -40 -94 -19 -45 129 21 64 29 103 25 125 -19 101
-126 169 -194 121 -12 -8 -34 -39 -49 -67 -23 -46 -26 -68 -32 -193 -7 -164
-14 -179 -72 -171 -55 7 -78 30 -174 168 -48 71 -97 131 -111 138 -14 6 -49
11 -79 11 -46 0 -56 -4 -77 -28 -35 -42 -53 -156 -41 -271 6 -63 6 -90 -2 -88
-5 2 -30 32 -55 67 -74 105 -142 170 -177 170 -33 0 -105 -47 -122 -79 -19
-34 -12 -89 19 -159 39 -85 37 -123 -6 -135 -19 -6 -46 -5 -72 2 -33 9 -45 19
-56 45 -22 52 -60 76 -121 76 -38 0 -61 -6 -86 -23 -34 -23 -34 -24 -33 -96 2
-59 6 -79 23 -100 36 -44 53 -89 41 -110 -19 -36 -240 -201 -269 -201 -7 0
-65 46 -129 103 -473 416 -477 420 -559 433 -49 7 -163 -13 -185 -33 -15 -13
-18 -33 -18 -112 0 -110 8 -132 80 -221 25 -31 88 -118 140 -195 52 -76 112
-157 133 -180 40 -46 46 -75 25 -132 -15 -41 -28 -42 -138 -2 -47 17 -110 37
-141 46 -54 14 -58 14 -98 -7 -58 -29 -68 -56 -43 -113 22 -51 40 -62 147 -97
78 -25 94 -35 79 -50 -8 -8 -124 -30 -245 -45 -61 -8 -89 -34 -89 -85 0 -88
63 -103 288 -65 84 14 186 25 228 25 l76 0 -27 -32 c-38 -46 -100 -86 -159
-103 -28 -8 -177 -48 -331 -90 -154 -41 -291 -84 -305 -94 -41 -29 -70 -80
-70 -121 0 -35 3 -39 40 -54 39 -16 45 -15 263 33 257 57 300 57 278 -1 -9
-25 -108 -68 -271 -119 -77 -25 -155 -70 -174 -102 -9 -14 -6 -22 14 -38 72
-59 135 -70 255 -44 103 22 247 20 275 -3 36 -29 21 -75 -58 -173 -107 -134
-169 -221 -196 -275 -35 -71 -81 -112 -141 -129 -27 -7 -189 -30 -360 -50
-349 -41 -362 -44 -613 -157 -175 -79 -298 -121 -707 -243 -574 -170 -1139
-313 -1371 -345 -336 -46 -450 -71 -562 -121 -63 -28 -389 -102 -767 -174
-264 -50 -313 -61 -447 -101 -217 -63 -413 -151 -623 -278 -116 -71 -220 -110
-441 -165 -233 -59 -333 -75 -454 -75 -139 0 -208 16 -340 81 -79 39 -109 60
-180 132 -68 69 -96 107 -139 188 -29 56 -79 132 -110 169 -129 153 -203 282
-232 404 -31 132 -5 365 62 557 91 258 305 591 474 736 229 198 558 317 722
263 66 -22 122 -71 172 -151 110 -174 123 -319 55 -633 -51 -240 -116 -380
-232 -504 -86 -91 -159 -138 -215 -138 -58 0 -119 61 -142 143 -17 57 -28 241
-17 275 2 7 47 36 99 64 119 64 147 88 168 142 14 37 15 51 5 80 -15 47 -100
123 -153 137 -58 16 -181 5 -247 -21 -123 -49 -247 -157 -301 -262 -45 -88
-84 -337 -77 -490 7 -162 63 -246 214 -319 189 -92 392 -91 641 3 135 51 193
91 311 213 312 322 472 737 472 1223 0 229 -32 418 -89 530 -92 181 -272 302
-478 322 -150 15 -382 12 -502 -6 -220 -32 -362 -98 -564 -261 -242 -196 -465
-444 -663 -738 l-94 -141 0 -859 0 -860 78 -105 c85 -114 235 -285 344 -392
124 -122 297 -222 469 -272 174 -50 344 -55 779 -23 209 16 230 13 255 -38 19
-37 20 -61 21 -340 1 -381 19 -512 109 -795 72 -228 46 -364 -114 -590 -280
-397 -350 -539 -399 -810 -34 -189 -34 -201 2 -272 30 -61 36 -67 181 -165 83
-56 192 -123 243 -150 89 -46 98 -48 174 -48 78 0 80 1 110 34 30 33 30 36 25
108 -5 72 -5 74 16 67 38 -12 80 -35 157 -89 41 -29 89 -60 107 -69 39 -20
106 -21 122 -2 14 16 19 110 8 149 l-7 27 64 0 c136 0 198 63 146 147 -22 38
-97 113 -159 162 -62 49 -84 105 -83 206 4 222 116 403 312 504 47 24 99 54
115 66 97 72 215 150 245 163 47 20 465 31 498 13 40 -21 53 -58 82 -228 16
-92 36 -208 45 -258 8 -49 24 -162 35 -250 17 -141 24 -169 54 -230 108 -218
359 -395 560 -395 115 0 152 53 119 173 -4 16 9 17 182 17 207 0 233 6 281 63
22 26 25 38 21 75 -6 57 -41 93 -131 135 l-70 34 86 27 c127 40 180 96 148
156 -21 40 -48 44 -282 50 -210 5 -229 7 -255 26 -38 28 -57 70 -56 126 1 37
15 78 66 185 68 144 97 233 97 301 0 23 7 49 18 62 17 21 26 22 327 31 308 9
606 19 1115 39 258 11 500 34 880 86 544 74 890 145 1683 345 539 137 497 133
557 46 16 -23 91 -132 166 -242 226 -329 329 -469 504 -685 227 -279 337 -429
436 -597 76 -128 88 -143 129 -163 38 -18 59 -21 126 -18 78 3 82 4 114 40 25
27 36 50 41 86 9 71 16 79 50 57 16 -10 49 -37 74 -60 58 -54 80 -65 129 -65
55 0 79 11 129 59 23 22 44 41 46 41 2 0 44 -18 94 -40 136 -60 201 -53 255
29 15 23 30 41 34 41 3 0 39 -18 79 -40 108 -59 174 -52 253 26 32 32 92 47
168 42 51 -3 71 -10 116 -41 59 -41 99 -47 147 -22 31 16 60 61 60 92 0 21
-35 135 -50 163 -10 19 -7 20 57 20 94 1 145 24 167 79 29 75 2 113 -137 189
-42 23 -101 62 -130 86 -114 93 -197 131 -374 171 -56 12 -115 32 -132 44 -38
27 -194 234 -344 456 -30 45 -73 129 -97 190 -63 159 -198 424 -276 540 -36
55 -111 156 -167 225 -162 201 -310 439 -326 525 -5 29 -6 69 -1 95 17 89 24
94 97 60 48 -21 83 -70 83 -113 0 -57 74 -136 113 -121 15 5 88 123 123 197
10 20 21 37 24 37 4 0 26 -35 50 -77 98 -176 121 -203 170 -203 15 0 36 10 47
23 49 54 54 92 31 245 -8 50 -13 92 -11 92 1 0 44 -27 95 -61 51 -33 93 -57
95 -52 1 4 5 57 8 116 l7 109 25 -7 c13 -3 66 -24 116 -47 123 -54 148 -58
176 -23 11 15 21 33 21 39 -1 25 -50 130 -86 182 -46 66 -51 116 -15 145 21
17 44 19 262 19 131 0 239 3 239 8 0 23 -24 90 -38 106 -14 15 -196 112 -244
129 -25 8 -1 17 93 33 65 11 111 25 148 47 l54 30 -37 31 c-92 77 -114 103
-126 146 -15 55 0 138 40 225 31 67 55 96 123 142 106 73 114 159 26 261 -38
43 -37 78 4 138 58 85 70 116 83 222 7 57 31 161 53 235 23 73 61 225 86 338
24 112 51 226 60 253 39 126 26 254 -35 361 -44 77 -49 71 78 90 l42 7 0 103
0 104 -60 33 c-33 18 -60 35 -60 39 0 3 27 14 60 24 l60 18 0 117 0 118 -30
12 c-16 7 -30 19 -30 26 0 8 14 17 30 21 l30 6 0 123 0 123 -52 3 -53 3 52 40
52 40 0 112 c1 110 0 113 -22 118 -42 11 -229 -77 -335 -156 -65 -49 -147 -89
-185 -89 -15 0 -41 7 -56 15 -34 17 -91 102 -102 153 -5 20 -21 87 -38 147
-16 61 -46 182 -66 270 -50 216 -97 298 -176 311 -29 5 -41 1 -69 -22z m-1330
-5761 c46 -41 63 -69 132 -213 74 -155 159 -337 275 -595 67 -148 452 -824
544 -955 72 -101 149 -231 149 -251 0 -20 -41 -7 -88 29 -137 103 -657 583
-765 706 -178 203 -315 429 -411 676 -21 52 -74 177 -118 278 -45 100 -79 184
-77 186 2 2 58 45 124 95 146 110 159 113 235 44z"/>
</g>
</svg>
