<?xml version="1.0" standalone="no"?>
<!DOCTYPE svg PUBLIC "-//W3C//DTD SVG 20010904//EN"
 "http://www.w3.org/TR/2001/REC-SVG-20010904/DTD/svg10.dtd">
<svg version="1.0" xmlns="http://www.w3.org/2000/svg"
 width="652.000000pt" height="1280.000000pt" viewBox="0 0 652.000000 1280.000000"
 preserveAspectRatio="xMidYMid meet">
<metadata>
Created by potrace 1.15, written by Peter Selinger 2001-2017
</metadata>
<g transform="translate(0.000000,1280.000000) scale(0.100000,-0.100000)"
fill="#000000" stroke="none">
<path d="M3362 12765 c-45 -23 -102 -65 -157 -116 -82 -76 -89 -81 -119 -73
-79 19 -95 13 -176 -73 -41 -44 -94 -94 -118 -112 -50 -39 -77 -93 -92 -185
-13 -81 0 -207 32 -308 12 -37 19 -71 15 -74 -4 -4 -27 -7 -52 -6 -25 0 -47
-3 -50 -8 -2 -4 15 -51 39 -105 33 -74 43 -105 40 -133 -6 -48 0 -55 69 -85
34 -16 57 -32 57 -42 0 -8 11 -32 24 -53 13 -21 31 -67 40 -103 20 -78 38
-104 101 -147 l49 -33 3 -64 c2 -36 -1 -84 -8 -107 l-11 -43 -22 28 c-27 33
-42 34 -97 2 -24 -14 -60 -25 -79 -25 -19 0 -62 -12 -95 -25 -33 -14 -75 -25
-93 -25 -20 0 -40 -8 -50 -19 -10 -10 -36 -26 -59 -34 -23 -9 -67 -32 -98 -52
-53 -35 -72 -60 -101 -140 -8 -21 -8 -24 -23 -158 -12 -104 -14 -112 -53 -197
-51 -110 -105 -269 -134 -390 -25 -110 -81 -247 -125 -310 -34 -50 -39 -63
-45 -141 -3 -48 -3 -89 2 -92 17 -10 117 15 182 45 39 18 67 27 69 21 2 -6 19
-36 38 -68 19 -32 35 -63 35 -71 0 -9 -17 -14 -52 -16 -31 -2 -51 -7 -48 -13
3 -6 34 -9 71 -7 l66 3 32 -47 c17 -26 31 -51 31 -55 0 -5 -25 -27 -55 -50
-88 -66 -68 -74 28 -11 44 29 50 26 76 -45 21 -57 67 -120 94 -129 9 -3 17 -8
16 -12 0 -4 -29 -31 -65 -60 -41 -34 -64 -61 -64 -74 0 -24 24 -66 92 -160 38
-54 46 -72 38 -85 -13 -24 -65 -158 -80 -207 -14 -44 -79 -174 -113 -224 -40
-59 -179 -246 -203 -272 -12 -14 -37 -56 -55 -93 -37 -81 -36 -114 10 -181 17
-25 31 -51 31 -59 0 -30 84 -128 145 -167 99 -65 180 -93 242 -86 42 5 53 3
53 -8 0 -8 18 -30 41 -50 l41 -35 -20 -63 c-11 -35 -24 -82 -27 -105 -7 -46
-11 -48 -66 -33 -55 15 -55 28 -8 193 12 42 11 49 -1 57 -11 7 -20 4 -32 -11
-18 -21 -55 -134 -65 -196 -3 -19 -15 -41 -27 -49 -64 -44 -175 -114 -181
-114 -3 0 -13 7 -21 15 -39 39 -43 -6 -7 -81 24 -50 58 -73 123 -83 63 -10 77
-7 86 22 6 19 7 19 22 -9 8 -16 20 -32 26 -36 19 -13 69 -9 118 9 43 15 49 15
65 1 12 -11 40 -16 87 -16 38 -1 74 -6 80 -12 7 -7 1 -28 -22 -69 -18 -32 -32
-68 -32 -80 0 -12 16 -47 35 -77 20 -30 33 -60 29 -65 -3 -6 9 -29 27 -52 18
-23 37 -48 43 -56 9 -12 1 -13 -54 -8 l-65 5 25 -20 c19 -15 33 -18 63 -14 46
8 46 10 3 -109 -36 -99 -36 -192 0 -234 14 -17 21 -31 16 -31 -6 0 -12 5 -14
12 -3 8 -15 2 -34 -16 -16 -15 -43 -34 -60 -42 -41 -17 -89 -73 -75 -87 6 -6
21 2 44 24 19 19 51 47 73 62 l39 28 6 -23 c40 -132 64 -207 75 -228 7 -14 18
-52 24 -85 7 -33 16 -78 20 -100 5 -22 10 -70 11 -106 3 -58 0 -72 -23 -105
-14 -22 -28 -51 -32 -65 -4 -19 -14 -28 -35 -32 -16 -3 -36 -13 -45 -22 -37
-37 -207 -296 -226 -345 -31 -78 -18 -85 18 -10 17 36 57 98 87 139 31 41 74
99 95 130 73 108 99 114 110 23 4 -37 1 -56 -17 -89 -13 -23 -23 -51 -23 -63
0 -11 -9 -38 -20 -60 -11 -22 -20 -46 -20 -53 0 -8 -10 -21 -22 -29 -20 -13
-21 -17 -9 -45 10 -24 22 -34 57 -43 48 -14 53 -27 29 -74 -17 -32 -19 -83 -5
-106 5 -9 5 -19 -2 -27 -8 -10 -6 -18 6 -31 9 -10 16 -24 16 -30 0 -17 18 -24
37 -13 17 10 17 10 0 11 -10 0 -15 5 -12 11 5 7 39 8 103 3 190 -15 323 -11
370 10 l43 19 -7 75 -7 75 29 -8 c16 -4 47 -11 69 -15 22 -4 58 -17 80 -28 22
-11 58 -23 80 -27 66 -11 66 -11 53 -45 -20 -59 -9 -61 207 -44 243 19 235 17
235 56 0 17 10 46 21 65 l21 34 -22 21 c-20 19 -21 26 -14 77 5 31 9 81 9 111
0 48 -5 61 -36 101 -32 41 -37 58 -53 161 l-19 116 22 31 c12 17 30 31 40 31
22 0 64 39 58 54 -3 6 -8 18 -12 27 -4 12 4 25 29 44 43 33 45 53 10 94 -51
61 -105 33 -140 -72 -23 -71 -52 -127 -66 -127 -8 0 -9 43 -4 158 13 276 16
306 26 316 7 7 10 6 10 -2 0 -14 77 -72 97 -72 24 0 14 17 -18 30 -16 7 -42
29 -57 48 -35 46 -34 87 6 212 42 132 41 130 71 131 26 0 26 0 4 11 -27 13
-30 48 -7 84 16 24 16 50 -2 126 -5 23 -2 29 20 38 37 14 33 31 -4 20 -28 -8
-33 -6 -56 30 -34 52 -29 80 21 106 31 15 44 31 56 64 19 52 13 77 -37 152
-19 27 -34 54 -34 59 0 5 13 9 29 9 15 0 44 11 63 23 23 16 40 21 53 16 26
-10 87 -11 101 -1 6 4 15 27 20 52 9 44 10 45 74 68 46 16 66 20 69 11 10 -31
42 -49 89 -49 64 0 87 17 79 59 -10 50 -42 86 -94 110 -27 12 -54 25 -61 29
-7 4 -27 50 -45 104 l-32 96 22 20 c16 14 23 32 23 55 0 44 18 98 38 114 8 7
25 10 37 7 16 -4 110 32 134 52 9 8 -65 198 -105 269 -64 114 -83 156 -94 215
-5 28 -22 79 -36 113 -14 34 -46 112 -71 172 -25 61 -55 120 -66 132 -11 13
-19 24 -16 26 2 2 23 15 46 30 50 32 61 63 43 117 -8 23 -10 57 -7 84 4 29 1
60 -8 87 -8 23 -15 54 -15 70 0 20 -20 52 -69 112 -38 47 -76 98 -85 114 -8
15 -57 72 -108 126 -92 96 -93 98 -74 116 18 19 18 20 -3 47 -11 14 -21 32
-21 38 0 6 -18 40 -41 75 l-40 64 31 100 c18 54 40 107 51 118 10 10 14 21 9
24 -6 3 -5 16 1 33 15 37 46 187 65 307 11 73 23 111 42 140 14 22 27 42 28
43 6 10 124 -23 154 -43 19 -13 46 -26 60 -30 14 -5 41 -18 60 -30 54 -33 118
-56 154 -53 40 2 56 -7 56 -34 0 -11 15 -35 34 -54 38 -38 80 -45 121 -18 19
12 28 13 46 4 15 -8 28 -9 43 -2 11 5 33 15 49 21 24 10 26 13 15 31 -11 18
-9 23 17 45 17 14 51 39 78 57 67 45 71 70 24 188 -27 69 -35 80 -59 80 -31 0
-32 -27 -4 -89 37 -82 35 -114 -9 -141 -19 -12 -35 -25 -35 -29 0 -13 -108
-81 -128 -81 -10 0 -44 5 -76 11 -54 11 -58 14 -81 59 -13 26 -35 54 -49 63
-29 19 -45 68 -39 113 3 18 -2 45 -11 63 -12 22 -16 52 -14 110 3 69 0 83 -19
110 -29 38 -29 41 7 130 39 96 39 119 -6 162 -19 18 -47 53 -62 76 -15 23 -37
48 -49 54 -13 7 -49 43 -80 81 -31 37 -65 68 -74 68 -30 0 -152 152 -224 280
-70 124 -85 144 -85 115 0 -44 139 -298 172 -316 10 -5 18 -16 18 -23 0 -8 30
-42 68 -76 37 -34 67 -66 67 -71 0 -4 17 -28 38 -53 20 -25 37 -47 37 -50 0
-15 -56 -4 -102 20 -59 30 -122 49 -192 59 -27 4 -81 18 -122 31 -80 27 -239
46 -266 32 -15 -7 -16 -12 -6 -28 8 -12 19 -18 29 -15 23 8 46 -3 52 -25 8
-29 50 -50 136 -67 45 -9 81 -19 81 -22 0 -4 -45 -30 -100 -59 -55 -29 -102
-58 -106 -63 -3 -5 0 -17 7 -26 11 -12 26 -14 76 -10 95 9 89 0 -79 -112 -106
-72 -130 -97 -106 -113 14 -9 24 -8 125 13 35 7 65 10 69 7 19 -20 -32 -61
-190 -156 -44 -26 -79 -51 -78 -57 1 -5 16 -12 34 -15 43 -7 46 -30 7 -57 -38
-26 -136 -147 -155 -190 -16 -37 -25 -45 -43 -34 -10 7 -11 13 -1 30 21 40 4
110 -53 221 -73 143 -102 190 -193 313 -106 142 -184 256 -184 267 0 5 9 12
20 15 11 3 24 15 30 25 10 18 17 134 9 160 -5 18 6 17 81 -4 30 -9 91 -16 135
-16 107 0 129 -7 120 -34 -19 -55 -17 -101 5 -129 13 -16 26 -25 31 -20 4 4
15 36 23 70 12 45 13 68 6 88 -13 35 -14 32 19 40 16 3 35 13 42 21 7 8 21 20
32 26 17 9 19 8 14 -6 -7 -17 5 -93 25 -158 9 -30 14 -36 25 -27 10 9 13 7 13
-7 0 -23 -20 -102 -53 -214 -14 -47 -30 -112 -37 -145 -6 -33 -25 -112 -41
-175 -31 -125 -35 -164 -18 -207 l11 -28 29 60 c16 33 29 66 29 73 0 7 16 61
35 120 48 144 118 480 113 535 -2 26 -7 32 -25 30 -18 -2 -22 4 -26 45 -14
127 -14 127 60 201 99 99 101 101 128 181 25 72 25 120 1 120 -19 0 -68 -104
-73 -155 -5 -39 -14 -52 -68 -105 -35 -33 -68 -60 -74 -60 -6 0 -47 -25 -91
-55 -44 -30 -84 -55 -89 -55 -4 0 -20 14 -36 30 -16 17 -35 30 -42 30 -7 0
-20 15 -29 33 -22 43 -64 87 -84 87 -9 0 -31 13 -50 30 -40 33 -50 36 -50 15
0 -17 67 -65 90 -65 18 0 60 -51 60 -73 0 -17 28 -43 58 -51 47 -15 20 -26
-50 -21 -137 10 -159 15 -231 45 -39 16 -80 30 -90 30 -10 0 -20 7 -23 15 -3
8 -14 17 -23 20 -12 4 -25 31 -40 82 -13 43 -31 93 -41 113 -17 33 -99 117
-133 136 -10 6 -20 33 -26 72 -6 35 -22 83 -36 107 -36 62 -33 73 21 81 l46 7
-7 43 c-5 35 -3 44 8 44 21 0 29 42 18 92 -5 24 -9 90 -9 148 0 163 35 217
166 256 89 25 174 16 257 -30 37 -20 70 -34 74 -31 6 7 -21 30 -91 77 -27 17
-48 35 -48 40 0 12 41 10 95 -7 49 -14 72 -12 45 5 -25 16 -4 22 37 11 88 -24
182 -121 191 -197 7 -62 27 -51 26 13 -1 41 -8 59 -35 94 -66 87 -194 171
-281 185 -21 4 -38 10 -38 14 0 5 22 13 50 20 51 12 127 3 172 -21 11 -6 22
-8 25 -6 3 3 -15 16 -39 28 l-43 22 27 8 c43 11 138 -17 138 -42 0 -5 44 -53
99 -107 71 -70 102 -108 111 -137 22 -70 50 -88 50 -32 -1 76 -84 188 -189
252 -61 36 -118 91 -108 101 10 10 65 -16 121 -58 28 -21 55 -38 62 -38 19 0
138 -131 189 -207 26 -40 56 -75 66 -78 16 -5 19 -16 19 -62 0 -41 4 -59 17
-68 16 -12 16 -20 5 -84 -7 -39 -12 -94 -12 -122 l0 -51 -39 33 c-39 35 -77
87 -68 95 3 3 20 -4 38 -15 51 -31 57 -25 17 17 -19 20 -42 51 -49 67 -14 31
-62 60 -114 71 -23 4 -41 -2 -75 -25 -25 -17 -53 -31 -62 -31 -24 0 -23 -42 1
-64 18 -17 21 -16 61 4 59 30 62 18 3 -16 -26 -16 -77 -55 -113 -88 -36 -32
-75 -65 -87 -74 -30 -19 -29 -30 6 -67 16 -16 42 -55 58 -85 32 -59 80 -92
156 -104 33 -6 37 -9 37 -36 0 -16 -11 -50 -25 -76 -14 -26 -25 -60 -25 -75 0
-29 -22 -40 -36 -18 -3 6 -45 29 -93 51 -125 57 -163 56 -294 -12 -56 -29
-107 -58 -112 -65 -6 -7 -18 -14 -27 -16 -11 -3 -15 -9 -9 -17 8 -14 57 -2 55
14 -1 5 19 15 45 22 25 7 68 20 96 29 87 29 192 18 295 -29 86 -40 150 -68
155 -68 13 0 39 72 43 120 7 85 7 93 -2 118 -7 20 -4 22 31 22 22 0 49 9 63
19 24 19 24 20 5 41 -11 12 -31 43 -45 68 -16 30 -32 46 -43 46 -9 -1 -17 2
-17 6 0 13 -126 80 -149 80 -25 0 -27 -17 -4 -42 14 -15 14 -21 4 -27 -10 -6
-9 -12 4 -24 9 -9 21 -20 28 -24 7 -5 20 -20 30 -35 14 -23 15 -28 3 -28 -49
0 -109 46 -173 133 l-36 49 65 61 c56 53 205 155 213 145 1 -2 15 -27 30 -55
20 -38 50 -70 104 -112 70 -55 95 -81 213 -231 27 -34 80 -80 137 -119 l93
-63 -6 -47 c-4 -25 -2 -53 4 -61 7 -11 10 -3 10 33 0 57 10 59 68 17 27 -19
42 -38 42 -51 0 -16 3 -19 13 -11 7 6 18 7 25 3 25 -15 172 -154 172 -162 0
-5 -18 -19 -40 -31 -22 -13 -40 -26 -40 -30 0 -12 7 -10 50 12 l40 20 30 -22
c27 -20 119 -156 175 -259 11 -20 37 -61 57 -92 55 -82 67 -109 83 -187 32
-151 18 -177 -98 -197 -60 -10 -87 -10 -161 3 -98 17 -130 13 -105 -12 9 -8
37 -23 65 -34 27 -10 48 -24 46 -31 -4 -15 80 -199 90 -199 14 0 8 24 -20 85
-16 33 -32 75 -35 93 -6 30 -5 32 21 32 44 1 139 27 174 47 18 11 40 18 48 16
11 -2 22 10 34 38 19 43 18 80 -4 184 -18 87 -121 273 -238 433 -26 35 -59 82
-74 104 -14 21 -49 64 -77 94 -35 37 -48 59 -44 71 5 12 2 15 -10 10 -12 -4
-38 8 -76 36 -50 35 -60 48 -64 77 -3 32 -5 33 -12 12 -9 -27 -17 -25 -79 20
-39 28 -45 38 -44 65 2 18 -1 35 -5 39 -4 4 -7 -5 -7 -19 0 -21 -5 -27 -21
-27 -33 0 -118 61 -182 131 -32 35 -73 80 -90 98 -37 40 -78 107 -70 115 3 3
7 32 9 65 1 33 8 79 15 103 6 23 12 84 12 133 0 75 -5 107 -31 189 -18 55 -47
119 -65 144 -42 59 -139 125 -214 147 -49 14 -67 26 -119 82 -50 54 -65 64
-83 58 -14 -4 -31 -1 -46 9 -34 22 -43 21 -123 -19z m93 -15 c4 -7 -8 -8 -37
-4 -57 9 -61 14 -10 14 22 0 44 -5 47 -10z m-265 -210 c0 -5 -5 -10 -11 -10
-5 0 -7 5 -4 10 3 6 8 10 11 10 2 0 4 -4 4 -10z m679 -48 c23 -15 47 -37 55
-47 13 -20 31 -85 23 -85 -2 0 -21 25 -42 56 -21 31 -55 67 -74 80 -20 14 -29
24 -20 24 9 0 35 -13 58 -28z m-614 -12 c3 -5 -3 -10 -14 -10 -12 0 -21 5 -21
10 0 6 6 10 14 10 8 0 18 -4 21 -10z m742 -322 c-3 -8 -6 -5 -6 6 -1 11 2 17
5 13 3 -3 4 -12 1 -19z m-236 -69 c-18 -11 -41 -17 -50 -14 -13 5 -12 9 9 20
14 8 36 14 50 15 24 0 23 -1 -9 -21z m29 -34 c-27 -14 -36 -13 -25 4 3 6 16
11 28 11 21 -1 21 -1 -3 -15z m0 -355 c0 -5 -9 -10 -20 -10 -11 0 -20 5 -20
10 0 6 9 10 20 10 11 0 20 -4 20 -10z m30 -65 c10 -13 9 -15 -9 -15 -12 0 -21
6 -21 15 0 8 4 15 9 15 5 0 14 -7 21 -15z m424 -756 c16 -5 41 -9 55 -9 14 0
44 -7 66 -15 22 -8 63 -14 91 -15 61 0 79 -15 64 -54 -5 -14 -14 -26 -20 -26
-5 0 -10 -14 -10 -31 0 -22 -12 -45 -45 -82 -25 -29 -45 -57 -45 -63 0 -15 23
-24 61 -24 42 0 69 -17 69 -43 0 -12 -18 -49 -40 -82 -22 -33 -40 -65 -40 -72
0 -18 41 -43 72 -43 16 0 28 -1 28 -3 0 -14 -34 -114 -41 -121 -5 -6 -35 4
-76 25 -63 32 -72 34 -157 32 -64 -2 -96 -8 -115 -20 l-26 -17 28 -11 27 -11
-25 -24 c-43 -41 -63 -82 -90 -186 -14 -54 -29 -106 -34 -114 -4 -8 -16 -42
-25 -74 -10 -32 -19 -56 -22 -53 -7 7 44 213 58 237 11 17 11 22 0 29 -10 6
-11 19 -7 47 7 36 6 38 -9 23 -9 -8 -27 -63 -40 -126 -13 -61 -27 -116 -31
-123 -5 -7 -10 -29 -12 -49 -2 -20 -14 -72 -28 -116 -47 -156 -55 -190 -58
-234 -2 -48 15 -66 28 -29 7 21 8 19 12 -12 3 -19 9 -41 15 -48 6 -7 9 -14 7
-15 -61 -44 -75 -42 -81 8 -5 49 -23 24 -24 -33 -1 -50 -4 -55 -35 -74 -19
-11 -52 -35 -74 -53 -77 -61 -174 -125 -192 -125 -24 0 -68 30 -113 77 -51 53
-141 128 -183 153 -34 20 -36 23 -40 93 -3 40 -12 105 -21 146 -12 56 -13 77
-5 88 9 10 8 16 -4 26 -8 7 -17 23 -19 36 -6 46 -24 33 -24 -16 0 -27 -5 -56
-11 -66 -8 -16 -18 1 -56 100 -26 65 -64 145 -86 178 -21 33 -44 84 -51 113
-14 63 -30 77 -30 28 0 -62 123 -371 183 -460 13 -18 30 -49 37 -66 12 -29 11
-37 -6 -68 -10 -19 -23 -36 -29 -36 -5 -1 -13 24 -16 54 -6 51 -59 189 -92
242 -9 13 -22 47 -31 75 -8 29 -30 81 -49 115 -19 35 -38 74 -42 88 -4 14 -21
49 -38 78 -24 39 -37 52 -52 50 -48 -7 -83 -305 -50 -435 9 -37 22 -78 28 -90
17 -37 0 -39 -47 -5 -24 18 -51 32 -60 32 -8 0 -28 -16 -43 -35 -30 -38 -47
-44 -57 -20 -3 8 -16 20 -30 26 -22 10 -30 6 -90 -45 -67 -57 -84 -64 -102
-46 -7 7 -45 -7 -120 -44 -86 -42 -116 -53 -142 -49 -27 5 -32 9 -32 33 0 41
17 81 38 87 24 6 81 107 99 173 7 30 27 79 43 109 17 30 30 64 30 76 0 36 40
175 62 219 12 22 21 47 19 54 -3 19 29 114 45 133 8 8 14 24 14 35 0 10 12 39
26 63 18 32 24 57 23 90 -1 25 2 80 6 121 8 67 12 77 42 104 18 16 33 37 33
45 0 20 132 67 210 75 48 5 52 4 30 -6 -35 -17 -42 -31 -25 -48 20 -19 133
-25 209 -11 33 6 61 9 64 6 7 -7 -60 -75 -91 -91 -38 -21 -53 -61 -31 -85 21
-23 50 -24 97 -4 83 34 86 14 12 -68 -30 -33 -55 -66 -55 -73 0 -29 37 -34
102 -15 35 11 87 22 116 26 l54 7 -16 -30 c-19 -37 -21 -73 -4 -90 7 -7 39
-12 73 -12 67 0 85 -11 85 -50 0 -15 12 -45 28 -67 25 -39 99 -107 123 -115 7
-2 6 -12 -3 -29 -11 -22 -11 -56 3 -215 10 -104 22 -220 28 -259 5 -38 13
-114 16 -167 5 -75 11 -103 27 -123 24 -30 44 -32 58 -4 13 24 -2 272 -26 409
-7 47 -14 100 -14 119 0 19 -7 61 -17 94 l-16 59 26 24 c14 13 44 61 65 107
31 66 51 93 96 132 31 27 63 60 72 73 15 22 14 25 -5 46 -12 12 -21 25 -21 28
0 4 20 17 45 29 55 28 157 112 167 139 13 36 -18 53 -80 45 -30 -4 -61 -9 -69
-12 -7 -3 -13 0 -13 5 0 6 39 38 88 71 108 74 145 111 136 136 -6 15 -16 17
-67 12 -53 -5 -58 -4 -44 10 8 8 59 37 113 63 104 50 137 55 218 29z m-1179
-141 c43 -73 106 -168 139 -211 54 -69 147 -218 141 -225 -1 -1 -19 5 -40 14
-25 10 -50 13 -76 9 -50 -9 -59 10 -29 66 32 63 23 73 -58 64 -37 -3 -84 -11
-106 -16 -73 -19 -74 -4 -6 67 61 63 62 65 44 85 -15 16 -25 19 -58 13 -21 -3
-54 -13 -72 -20 -74 -31 -74 -1 0 57 68 53 86 83 64 105 -14 14 -27 15 -104 4
-48 -6 -105 -8 -127 -4 l-40 6 109 59 c60 32 116 59 125 59 9 0 46 -51 94
-132z m1497 -50 c-22 -78 -40 -101 -71 -93 -36 9 -37 12 -14 38 11 12 34 43
52 70 18 26 36 45 41 42 4 -3 1 -29 -8 -57z m-2 -257 c0 -5 -3 -23 -6 -40 -5
-24 -12 -31 -30 -31 -30 0 -30 5 -1 47 21 32 37 42 37 24z m-1142 -234 c23
-34 42 -67 42 -74 0 -6 7 -19 16 -28 9 -9 14 -19 10 -22 -14 -14 -126 136
-126 170 0 30 14 19 58 -46z m1167 -27 c3 -10 19 -30 36 -44 30 -26 24 -45
-10 -26 -26 14 -64 67 -56 80 10 16 23 12 30 -10z m-1805 -225 c7 -22 24 -62
38 -90 14 -27 33 -77 43 -110 27 -91 64 -197 83 -232 20 -39 21 -71 2 -92 -18
-20 -56 -116 -56 -141 0 -14 18 -29 58 -51 105 -56 132 -74 137 -91 9 -26 45
-68 60 -68 8 0 15 12 17 28 3 27 3 27 68 -33 36 -33 82 -74 103 -91 l38 -31
-90 -68 c-50 -37 -91 -70 -91 -74 0 -3 9 -23 20 -44 11 -21 18 -42 15 -47 -3
-4 9 -20 26 -35 28 -23 34 -24 47 -12 12 13 12 20 -4 53 -10 22 -27 52 -38 68
-19 28 -19 30 -1 40 10 6 36 25 59 41 23 17 55 37 73 44 18 7 38 19 44 27 15
18 39 18 39 1 0 -8 9 -22 20 -32 11 -10 20 -21 20 -24 0 -4 -26 -25 -58 -48
-72 -53 -151 -133 -131 -133 8 0 37 19 64 43 28 24 73 57 101 74 l50 30 27
-19 c16 -12 27 -29 27 -43 0 -13 4 -26 9 -29 5 -4 3 -27 -5 -53 -19 -60 -9
-102 46 -208 22 -42 40 -85 40 -94 0 -10 -11 -30 -25 -45 -20 -21 -33 -26 -73
-26 -31 0 -54 -5 -61 -14 -19 -22 -103 -37 -153 -27 -24 5 -77 24 -118 43 -96
44 -167 65 -255 75 l-70 8 3 33 c3 37 24 99 71 211 18 42 34 102 38 135 3 37
15 78 29 103 28 48 32 72 10 54 -17 -14 -223 -313 -232 -336 -4 -9 -1 -15 8
-15 8 0 41 38 72 85 31 46 61 87 66 90 26 16 -2 -66 -33 -100 -11 -11 -35 -45
-55 -75 -31 -47 -36 -63 -37 -115 0 -45 -4 -60 -15 -62 -8 -2 -53 18 -100 45
-59 33 -94 60 -117 92 -19 25 -54 71 -79 103 l-46 59 124 126 c193 198 295
337 272 374 -11 17 -32 7 -43 -19 -6 -16 -27 -46 -45 -68 l-34 -40 -11 28
c-14 35 -14 74 -1 82 15 9 12 35 -5 35 -21 0 -36 62 -19 76 19 15 17 24 -5 24
-25 0 -39 19 -49 66 -6 29 -13 39 -27 39 -18 0 -20 -6 -17 -47 3 -46 2 -48
-22 -48 -15 0 -26 -4 -26 -10 0 -5 8 -10 18 -10 10 0 26 -6 36 -13 21 -16 39
-97 25 -114 -7 -7 -6 -14 3 -20 7 -4 23 -36 35 -70 l21 -61 -50 -66 c-27 -36
-53 -66 -58 -66 -5 0 -18 -10 -30 -22 -11 -12 -21 -20 -23 -17 -25 35 -60 98
-86 153 -27 55 -31 70 -20 78 8 4 26 16 42 25 44 28 34 47 -13 23 -46 -24 -60
-25 -60 -6 0 8 -11 28 -25 44 -14 17 -25 35 -25 41 0 6 -6 11 -14 11 -7 0 -24
24 -36 53 -12 28 -29 60 -37 69 -14 16 -13 18 11 28 15 5 52 33 82 62 l55 52
23 -28 c31 -39 71 -38 108 3 15 17 31 31 34 31 3 0 19 -11 36 -25 16 -14 39
-25 51 -25 12 -1 33 -7 47 -14 17 -10 30 -11 42 -5 23 12 24 49 2 49 -13 0
-15 7 -11 33 3 17 -3 68 -13 112 -19 80 -23 144 -21 285 1 78 10 83 31 15z
m2043 18 c-7 -2 -19 -2 -25 0 -7 3 -2 5 12 5 14 0 19 -2 13 -5z m-1807 -610
c41 -27 43 -30 38 -68 -3 -22 -7 -45 -9 -51 -5 -18 -115 38 -115 58 0 18 30
88 38 88 2 0 24 -12 48 -27z m990 -78 c23 -35 11 -69 -33 -100 -21 -14 -42
-25 -48 -25 -13 0 -48 86 -40 100 8 13 75 49 92 50 7 0 20 -11 29 -25z m-770
-51 c21 -15 72 -60 113 -100 40 -41 77 -71 82 -69 7 5 49 -28 49 -39 0 -3 -15
-17 -34 -31 l-35 -26 -123 111 c-68 61 -126 121 -129 133 -14 53 17 61 77 21z
m610 -37 c3 -13 4 -41 2 -61 -3 -36 -8 -41 -118 -112 -165 -106 -155 -102
-184 -71 -14 15 -32 27 -41 27 -8 0 -15 5 -15 10 0 6 16 10 35 10 24 0 35 5
35 15 0 8 19 28 43 45 23 16 57 40 75 52 18 13 58 42 88 66 31 23 60 42 65 42
5 0 11 -11 15 -23z m199 -27 c-14 -23 10 -75 64 -138 32 -37 56 -72 54 -78 -2
-7 4 -11 13 -10 10 0 49 -38 100 -100 l82 -102 6 -108 c3 -60 7 -121 7 -136 1
-16 8 -28 15 -28 8 0 14 -6 14 -14 0 -17 -55 -51 -93 -58 -34 -7 -57 21 -142
167 -31 55 -96 158 -143 228 l-86 129 -4 92 c-5 101 -5 99 67 143 40 24 55 28
46 13z m-189 -164 c-3 -29 -15 -74 -26 -99 -33 -74 -36 -126 -10 -177 13 -25
31 -56 41 -70 22 -29 49 -145 49 -211 0 -33 6 -54 21 -70 l20 -24 -6 115 c-4
63 -6 131 -4 150 1 19 3 72 3 118 1 45 3 82 6 82 3 0 22 -26 43 -58 21 -31 53
-77 72 -102 18 -25 55 -79 81 -120 26 -41 60 -92 76 -113 29 -37 29 -39 12
-52 -11 -7 -39 -19 -64 -26 -25 -7 -61 -20 -80 -29 -19 -10 -61 -20 -93 -23
-33 -3 -86 -19 -124 -36 -36 -17 -72 -31 -81 -31 -19 0 -92 69 -92 87 0 6 11
29 25 49 45 66 43 92 -14 216 -28 61 -57 119 -65 129 -21 31 1 87 47 115 43
28 46 41 15 53 -13 5 -31 18 -42 30 -15 17 -16 23 -6 36 7 8 18 15 25 15 7 0
32 15 56 33 46 36 98 66 113 67 5 0 6 -24 2 -54z m-201 -157 c-10 -16 -31 -10
-54 15 -22 23 -22 25 -4 35 15 8 22 6 41 -15 12 -14 20 -30 17 -35z m-1012
-403 c45 -34 173 -96 197 -96 18 0 20 -7 22 -77 1 -43 1 -130 -1 -194 -2 -80
1 -128 10 -154 13 -34 12 -40 -10 -78 -13 -23 -44 -80 -69 -127 -25 -47 -71
-128 -102 -180 -91 -151 -91 -152 -84 -224 l7 -64 -64 17 c-94 25 -228 107
-255 155 -23 41 -22 66 2 66 8 0 14 7 14 15 0 9 18 34 39 57 22 22 42 52 46
65 9 36 114 183 137 192 18 6 18 8 4 20 -22 19 -49 0 -116 -84 -30 -37 -71
-84 -92 -105 -20 -21 -43 -51 -52 -68 -8 -16 -23 -38 -32 -47 -15 -15 -18 -15
-40 6 -38 36 -40 71 -5 142 17 34 42 78 56 97 13 19 35 50 47 68 13 19 35 48
49 65 14 18 34 48 44 67 10 19 27 47 39 61 20 23 72 154 142 352 14 42 29 77
31 77 2 0 19 -11 36 -24z m548 -151 c138 -59 190 -68 265 -41 22 7 68 16 104
19 l65 7 40 -38 c73 -70 110 -77 191 -38 69 35 134 56 170 56 17 0 76 19 131
43 92 40 101 42 131 30 34 -14 60 -56 85 -138 8 -27 31 -81 50 -120 35 -68 67
-171 67 -214 0 -38 98 -214 149 -266 60 -62 71 -98 40 -131 -13 -14 -34 -24
-49 -24 -15 0 -48 -11 -73 -25 l-47 -24 -13 22 c-8 12 -32 54 -54 92 -60 103
-152 200 -203 213 -33 8 -43 7 -55 -5 -18 -18 -11 -33 15 -33 13 0 41 -31 83
-92 73 -105 90 -136 122 -222 12 -34 26 -69 30 -78 5 -13 -5 -22 -48 -42 -30
-14 -63 -26 -74 -26 -11 0 -32 -9 -47 -21 -43 -34 -83 -21 -100 33 -8 26 -36
11 -43 -24 -7 -37 -29 -48 -98 -48 l-56 0 18 33 c14 25 18 55 18 132 0 95 -3
108 -53 252 -28 84 -52 159 -52 167 0 24 -19 29 -46 11 -30 -19 -30 -18 28
-215 47 -160 54 -256 25 -331 -15 -38 -17 -51 -7 -69 7 -14 8 -26 2 -32 -5 -5
-69 -14 -143 -19 -74 -6 -170 -20 -214 -31 -95 -23 -206 -28 -229 -9 -14 12
-14 18 8 60 29 56 66 170 66 202 0 42 31 241 52 337 11 51 18 95 15 98 -20 20
-68 -69 -90 -166 -32 -142 -55 -255 -68 -327 -14 -85 -45 -144 -80 -157 -20
-7 -34 -2 -73 23 -80 50 -126 60 -286 63 l-145 3 -13 75 c-7 41 -15 87 -19
103 -3 17 1 37 13 55 28 42 109 203 144 284 17 40 38 90 47 111 15 36 17 36
35 20 10 -9 28 -32 39 -50 28 -45 45 -42 52 10 3 23 16 64 27 91 19 42 20 54
11 91 -6 24 -11 55 -11 70 0 14 -17 60 -39 103 -32 65 -61 155 -61 192 0 6 28
10 61 10 53 0 81 -8 190 -55z m-217 -233 c19 -37 32 -132 19 -132 -21 0 -30
26 -36 93 -2 37 -3 67 -1 67 2 0 10 -13 18 -28z m1468 -985 c43 -80 100 -167
111 -167 5 0 15 7 21 15 25 33 138 -50 122 -90 -8 -23 -63 -20 -71 4 -13 40
-30 44 -97 22 -74 -25 -86 -26 -109 -5 -11 10 -25 13 -38 9 -25 -8 -27 -24 -6
-51 17 -22 20 -70 4 -79 -19 -12 -54 4 -95 44 l-42 40 -75 -4 c-79 -3 -118
-11 -129 -28 -4 -6 -17 -2 -33 12 -15 11 -36 21 -46 21 -21 0 -25 15 -6 24 15
7 -34 2 -138 -14 -110 -17 -114 -18 -92 -34 13 -10 29 -11 63 -4 53 12 60 8
42 -22 -11 -19 -10 -24 11 -41 13 -10 31 -19 40 -19 9 0 -4 -14 -29 -30 -55
-36 -78 -38 -90 -5 -12 30 -27 31 -79 5 -21 -12 -56 -24 -76 -27 l-37 -6 17
34 c10 19 28 48 41 66 16 20 24 45 24 70 0 41 -15 138 -24 163 -8 21 113 53
166 44 33 -6 37 -11 48 -50 14 -48 23 -59 44 -51 11 4 11 14 2 47 -10 39 -9
43 13 61 13 10 33 19 45 19 12 0 46 9 76 20 65 24 90 19 90 -18 0 -15 12 -51
25 -81 14 -30 24 -59 22 -65 -2 -6 -26 -15 -53 -22 -47 -11 -46 -11 32 -6 55
3 83 1 88 -7 7 -11 66 -16 66 -6 0 3 -4 13 -8 23 -7 14 -33 87 -68 194 -7 21
20 30 103 33 35 1 66 5 70 8 15 16 30 4 55 -46z m-1569 12 c18 -5 53 -9 80 -9
27 0 73 -10 107 -24 32 -13 81 -29 109 -35 27 -6 68 -18 90 -28 l40 -17 3 -81
c2 -44 0 -85 -5 -92 -5 -6 -7 -24 -5 -40 3 -26 6 -28 44 -25 35 3 45 -1 63
-24 27 -35 27 -89 0 -134 l-21 -35 -32 36 c-17 19 -48 48 -69 63 -20 15 -43
42 -51 60 -17 42 -34 52 -52 34 -12 -12 -12 -20 3 -57 20 -50 11 -61 -48 -61
-62 0 -109 69 -56 85 21 6 20 7 -12 21 -45 20 -46 18 -49 -58 -2 -32 -6 -37
-33 -43 -49 -11 -125 51 -104 85 3 5 1 19 -5 30 -13 25 -56 27 -64 2 -3 -10
-19 -26 -36 -35 -26 -16 -32 -16 -57 -3 -15 8 -39 25 -52 39 -32 35 -55 25
-46 -20 8 -42 -6 -60 -51 -69 -42 -8 -62 7 -66 49 -4 42 -27 45 -75 13 -43
-29 -98 -34 -129 -11 -17 13 -17 14 -1 15 9 0 17 4 17 8 0 5 30 30 66 56 36
26 63 50 60 53 -6 7 -93 -48 -130 -82 -23 -21 -26 -22 -26 -6 0 23 20 41 94
82 34 18 76 34 100 35 23 2 60 6 84 10 42 7 49 1 33 -25 -6 -9 1 -22 24 -42
40 -36 49 -36 82 -3 l27 27 50 -16 c68 -22 71 -13 6 16 l-54 23 -15 69 c-13
54 -14 83 -7 128 l10 59 64 -7 c35 -4 77 -11 95 -16z m1327 -88 c-1 -13 -3
-13 -15 3 -19 26 -19 42 0 26 8 -7 15 -20 15 -29z m-655 -33 c3 -7 7 -35 8
-63 2 -27 11 -67 20 -87 14 -34 14 -39 -2 -60 -29 -38 -81 -137 -81 -153 0
-24 26 -29 75 -15 53 15 84 8 65 -15 -9 -11 -10 -22 -3 -38 6 -12 8 -48 5 -79
-6 -73 1 -100 38 -142 27 -30 29 -37 19 -65 -13 -36 -29 -39 -76 -10 -36 22
-56 21 -28 -2 68 -54 73 -64 71 -117 -2 -37 -9 -58 -24 -75 -29 -31 -28 -41 3
-21 14 9 27 15 29 13 1 -2 19 -42 38 -89 27 -64 37 -105 41 -166 l6 -82 -29
-12 c-31 -13 -56 -37 -48 -46 3 -3 21 4 39 15 19 12 37 21 42 21 4 0 7 -96 7
-213 0 -161 4 -226 15 -263 8 -27 15 -64 15 -81 0 -28 -4 -33 -22 -33 -47 0
-53 -13 -50 -105 3 -98 -8 -131 -63 -189 l-36 -39 -90 5 c-93 6 -128 20 -108
44 8 10 3 16 -25 28 -21 9 -36 22 -37 33 -1 10 -2 52 -4 93 -2 43 -11 97 -22
125 -15 41 -24 51 -48 55 -28 5 -30 8 -42 85 -16 96 -20 221 -10 330 3 44 10
132 14 195 9 117 28 177 75 239 23 30 23 48 -2 96 -11 22 -20 48 -20 60 0 11
-9 38 -19 60 l-17 40 30 10 c38 12 96 95 96 137 0 16 -8 46 -18 67 l-19 38 29
16 c39 22 61 78 63 159 2 70 -4 83 -40 90 -19 3 -20 10 -16 98 1 52 5 97 8
100 2 3 32 8 66 11 34 3 66 7 70 7 4 1 10 -4 12 -10z m412 -183 c8 -23 -26
-44 -69 -45 -46 0 -51 22 -10 44 35 20 71 20 79 1z m253 3 c0 -7 -21 -30 -47
-51 -43 -34 -51 -37 -88 -31 -90 14 -78 34 43 70 92 27 92 27 92 12z m33 -64
c-5 -14 -62 -35 -75 -27 -4 2 7 17 25 33 32 29 62 26 50 -6z m-279 -17 c11 -8
15 -19 10 -30 -10 -26 -28 -20 -41 13 -13 34 -1 40 31 17z m155 -79 c45 -102
51 -120 51 -151 0 -29 -4 -33 -41 -45 -23 -7 -45 -9 -49 -5 -6 7 -29 89 -34
122 -2 8 -7 16 -13 18 -17 6 -23 -22 -13 -59 5 -18 10 -69 12 -113 l3 -80 -65
-16 c-42 -11 -59 -19 -49 -24 9 -3 42 0 73 9 l57 14 10 -26 c6 -15 11 -66 12
-114 1 -72 -2 -91 -17 -107 -17 -19 -17 -21 -2 -27 23 -9 20 -53 -6 -78 -13
-12 -42 -43 -66 -69 -24 -26 -49 -47 -55 -47 -20 0 -101 90 -132 145 -15 28
-36 57 -46 65 -12 9 -23 39 -30 77 -10 56 -9 66 8 95 11 19 28 33 39 33 31 1
44 14 44 44 0 32 -13 46 -52 56 -39 10 -49 26 -58 101 -10 81 0 114 33 114 14
0 44 17 70 40 25 22 49 40 53 40 4 0 18 -9 30 -21 31 -29 90 -18 113 22 14 25
22 29 59 29 40 0 43 -2 61 -42z m-419 -8 c0 -23 -17 -25 -43 -6 -14 11 -15 15
-5 19 29 12 48 7 48 -13z m-596 -31 c25 -6 42 -6 51 1 6 5 32 13 56 16 39 5
47 3 68 -20 26 -27 22 -48 -4 -26 -11 9 -19 10 -26 3 -13 -13 8 -58 39 -86 32
-29 37 -87 13 -135 -35 -68 -61 -62 -84 19 -8 26 -19 44 -27 44 -23 0 -16 -55
24 -185 25 -79 36 -134 36 -177 0 -59 -3 -65 -47 -124 -27 -33 -65 -71 -85
-82 -36 -22 -36 -22 -58 -2 -12 11 -47 52 -76 91 l-54 71 20 104 c10 57 27
123 36 146 17 42 17 43 -7 62 -13 11 -47 31 -76 45 -41 20 -53 32 -63 60 -11
35 -8 56 10 56 5 0 12 -16 16 -35 10 -55 24 -52 17 4 -5 40 -2 56 17 85 12 20
25 36 30 36 5 0 15 6 22 13 20 19 71 36 93 30 11 -2 37 -9 59 -14z m-166 -322
c10 -52 -23 -56 -52 -6 l-18 30 33 -3 c23 -2 35 -9 37 -21z m1108 -382 c-9
-14 -21 -25 -27 -25 -6 0 -1 14 11 31 26 36 40 31 16 -6z m-1042 -40 c21 -25
32 -45 26 -45 -12 0 -80 70 -80 83 0 18 20 4 54 -38z m903 -58 c-7 -22 -26
-17 -41 11 -8 15 -22 34 -30 41 -9 8 -16 18 -16 23 0 5 20 -7 45 -28 25 -20
44 -42 42 -47z m-934 3 c10 -16 26 -34 36 -39 14 -8 17 -25 19 -100 1 -65 -2
-91 -11 -91 -7 0 -27 46 -45 103 -43 136 -43 202 1 127z m1066 -12 c-4 -24 -8
-49 -9 -56 0 -21 -40 6 -40 27 0 19 36 71 49 71 5 0 5 -19 0 -42z m-69 9 c0
-7 -6 -22 -14 -33 -22 -28 -41 -6 -20 24 17 24 34 29 34 9z m-830 -6 c0 -14
-18 -23 -30 -16 -6 4 -8 11 -5 16 8 12 35 12 35 0z m46 -83 c-14 -131 -21
-172 -32 -175 -7 -2 -14 22 -18 69 -4 40 -10 83 -13 95 -3 15 3 30 21 47 41
42 50 34 42 -36z m692 -58 c3 -100 -8 -131 -34 -96 -10 14 -14 49 -14 119 l0
99 23 -14 c20 -14 22 -25 25 -108z m69 44 c3 -9 1 -42 -4 -73 -8 -39 -8 -60 0
-69 18 -22 28 2 29 71 1 75 7 90 32 81 14 -5 16 -15 11 -53 -14 -110 -14 -109
-47 -116 -45 -10 -58 12 -58 102 0 59 3 73 15 73 9 0 18 -7 22 -16z m-870 -16
c-3 -8 -6 -5 -6 6 -1 11 2 17 5 13 3 -3 4 -12 1 -19z m23 -92 c0 -14 -4 -28
-10 -31 -6 -4 -10 7 -10 24 0 17 5 31 10 31 6 0 10 -11 10 -24z m1140 -257 c7
-11 10 -21 8 -22 -2 -1 -15 -12 -29 -25 l-26 -22 4 32 c8 64 23 76 43 37z
m-45 -139 c0 -8 -10 -16 -22 -18 -18 -3 -23 2 -23 18 0 16 5 21 23 18 12 -2
22 -10 22 -18z m-265 -40 c0 -5 -4 -10 -10 -10 -5 0 -10 5 -10 10 0 6 5 10 10
10 6 0 10 -4 10 -10z m103 -128 c-31 -38 -58 -49 -58 -22 0 14 76 72 84 64 3
-2 -9 -21 -26 -42z m-133 -22 c24 0 24 -1 -9 -21 -18 -11 -34 -19 -35 -17 0 2
-7 14 -14 27 -13 23 -13 24 10 18 12 -4 34 -7 48 -7z m207 -81 c8 -66 16 -89
44 -127 l34 -47 0 -126 0 -125 -80 -15 c-44 -7 -123 -14 -175 -14 -52 0 -98
-4 -101 -9 -4 -4 -25 -5 -48 -1 -67 11 -53 47 47 123 44 32 100 54 123 47 10
-4 28 0 40 9 13 9 33 12 55 9 25 -4 35 -1 40 10 3 8 2 72 -3 142 -13 199 2
282 24 124z m-298 50 c22 -37 61 -148 61 -177 0 -16 5 -33 10 -38 14 -14 -9
-126 -24 -121 -6 2 -14 48 -18 111 -4 59 -12 114 -18 124 -7 12 -8 -22 -3
-109 6 -121 5 -127 -14 -133 -24 -8 -67 -67 -84 -115 -15 -41 -27 -40 -159 22
-52 24 -113 50 -135 57 -22 6 -51 17 -65 24 -26 12 -38 42 -22 58 12 12 173
-30 188 -50 8 -11 33 -17 81 -20 l69 -4 0 -46 c-1 -25 4 -47 10 -49 7 -2 11
10 10 34 -1 35 2 40 38 57 l39 19 -7 89 c-9 112 3 288 18 288 6 0 17 -10 25
-21z m149 -12 c2 -10 -3 -17 -12 -17 -18 0 -29 16 -21 31 9 14 29 6 33 -14z
m77 -14 c-7 -47 -9 -48 -25 -18 -11 20 -11 27 0 40 21 26 32 17 25 -22z m-120
-42 c-8 -27 -21 -27 -35 0 -9 15 -8 24 1 35 11 13 14 13 27 1 9 -9 11 -23 7
-36z m85 -26 c0 -12 -20 -35 -31 -35 -12 0 -17 55 -6 68 9 11 13 11 24 -4 7
-10 13 -23 13 -29z m-57 -42 c7 -35 1 -41 -20 -21 -8 9 -13 24 -10 32 10 25
24 19 30 -11z m-838 7 c-3 -5 -22 -10 -41 -10 -21 0 -33 4 -29 10 3 6 22 10
41 10 21 0 33 -4 29 -10z m135 0 c0 -5 -2 -10 -4 -10 -3 0 -8 5 -11 10 -3 6
-1 10 4 10 6 0 11 -4 11 -10z m796 -39 c-11 -18 -36 -13 -36 7 0 10 3 22 7 26
10 10 37 -20 29 -33z m-288 -93 l8 -88 -26 0 c-14 0 -78 20 -142 44 -190 72
-204 90 -25 30 69 -23 112 -33 118 -27 6 6 -7 16 -38 27 -26 10 -55 20 -63 23
-10 4 -5 8 15 13 38 8 72 26 110 58 16 13 30 20 32 16 1 -5 6 -48 11 -96z
m-615 75 c-7 -2 -19 -2 -25 0 -7 3 -2 5 12 5 14 0 19 -2 13 -5z m205 -11 c32
-9 30 -24 -6 -44 -30 -16 -31 -16 -71 14 -23 16 -41 32 -41 34 0 6 92 3 118
-4z m695 -82 c-14 -13 -72 -20 -79 -9 -8 14 25 49 46 49 10 0 21 10 25 23 7
19 9 16 12 -17 3 -21 1 -42 -4 -46z m-846 55 c17 -3 37 -13 44 -21 14 -18 13
-18 -47 2 -49 17 -89 42 -49 31 11 -3 34 -8 52 -12z m-167 -19 c0 -8 -8 -17
-19 -21 -10 -3 -26 -14 -36 -25 -21 -23 -35 -26 -35 -7 0 14 60 66 78 67 6 0
12 -6 12 -14z m65 -57 c96 -31 94 -43 -5 -35 -101 8 -119 16 -95 39 21 21 23
21 100 -4z m188 -15 c15 -8 27 -19 27 -24 0 -17 -13 -14 -110 33 l-35 17 45
-6 c25 -4 57 -13 73 -20z m-51 -148 c31 -7 79 -45 110 -88 l21 -31 -119 7
c-65 3 -143 6 -171 6 -65 -1 -68 11 -13 65 29 28 51 40 82 45 24 3 48 5 53 4
6 -1 22 -5 37 -8z m165 8 c-3 -3 -12 -4 -19 -1 -8 3 -5 6 6 6 11 1 17 -2 13
-5z"/>
<path d="M3860 10402 c0 -5 11 -14 25 -20 36 -16 32 -48 -16 -139 -37 -70 -71
-166 -86 -246 -14 -71 50 -193 95 -182 21 5 22 3 22 -55 0 -36 4 -60 11 -60 7
0 10 34 9 98 0 53 0 126 0 162 0 36 -5 94 -12 129 -12 61 -11 65 15 115 50 95
24 206 -47 206 -9 0 -16 -4 -16 -8z m29 -424 c0 -7 -4 -22 -9 -33 -7 -17 -9
-15 -9 13 -1 17 4 32 9 32 6 0 10 -6 9 -12z"/>
<path d="M3055 10248 c-11 -28 -12 -48 -2 -107 8 -54 8 -96 0 -162 -9 -71 -9
-96 2 -126 8 -21 16 -50 20 -65 7 -33 27 -36 72 -8 39 24 51 69 30 120 -9 19
-18 58 -22 85 -5 28 -16 61 -26 74 -11 13 -19 34 -19 47 0 12 -4 26 -10 29 -5
3 -10 35 -10 70 0 74 -14 91 -35 43z"/>
<path d="M2577 9304 c-4 -4 -7 -11 -7 -16 0 -13 50 -6 53 7 2 12 -36 19 -46 9z"/>
<path d="M2420 9271 c0 -20 24 -51 39 -51 5 0 14 7 21 16 11 13 10 16 -8 20
-11 4 -23 12 -26 20 -8 21 -26 17 -26 -5z"/>
<path d="M2546 9101 c-3 -5 1 -14 8 -20 16 -13 32 2 21 19 -8 12 -22 13 -29 1z"/>
<path d="M2897 8974 c-84 -93 -239 -301 -254 -340 -3 -8 1 -14 11 -14 8 0 50
50 93 113 79 113 198 261 247 306 29 27 33 41 12 41 -8 0 -57 -48 -109 -106z"/>
<path d="M3986 8192 c-14 -23 -5 -104 18 -170 23 -63 25 -77 15 -111 -6 -20
-10 -78 -8 -127 4 -82 7 -96 47 -171 23 -46 47 -106 52 -134 17 -90 41 -101
71 -34 17 38 18 51 9 85 -6 21 -8 50 -5 62 4 16 -9 54 -41 118 -25 52 -52 102
-59 110 -7 8 -15 53 -18 100 -4 68 -10 95 -32 133 -19 33 -28 63 -28 98 -1 45
-9 61 -21 41z m149 -572 c3 -5 1 -10 -4 -10 -6 0 -11 5 -11 10 0 6 2 10 4 10
3 0 8 -4 11 -10z"/>
<path d="M3131 7878 c1 -47 -13 -90 -53 -158 -44 -75 -51 -100 -50 -205 1 -60
-5 -120 -13 -149 -14 -46 -13 -51 6 -82 11 -19 24 -34 27 -34 18 2 83 71 97
103 22 52 19 78 -16 143 -28 53 -30 65 -25 119 6 69 18 111 51 175 27 54 23
122 -8 128 -15 3 -18 -3 -16 -40z m-11 -483 c0 -8 -7 -15 -15 -15 -26 0 -18
20 13 29 1 1 2 -6 2 -14z"/>
<path d="M4346 7054 c-8 -20 -8 -122 0 -151 13 -49 23 -19 22 68 -2 87 -9 116
-22 83z"/>
<path d="M3895 6213 c4 -10 14 -37 22 -59 13 -39 48 -83 57 -73 7 7 -65 149
-76 149 -6 0 -7 -8 -3 -17z"/>
<path d="M3818 6112 c-28 -17 -36 -32 -18 -32 15 0 60 31 60 41 0 13 -11 11
-42 -9z"/>
<path d="M3865 6090 c3 -5 11 -10 16 -10 6 0 7 5 4 10 -3 6 -11 10 -16 10 -6
0 -7 -4 -4 -10z"/>
<path d="M3905 6030 c-16 -16 -24 -30 -18 -30 14 0 63 39 63 51 0 17 -16 9
-45 -21z"/>
<path d="M3022 6118 c6 -18 28 -21 28 -4 0 9 -7 16 -16 16 -9 0 -14 -5 -12
-12z"/>
<path d="M3115 6100 c3 -5 13 -10 21 -10 8 0 12 5 9 10 -3 6 -13 10 -21 10 -8
0 -12 -4 -9 -10z"/>
<path d="M3030 6015 c7 -8 16 -12 21 -9 13 8 1 24 -18 24 -13 0 -13 -3 -3 -15z"/>
<path d="M3080 5940 c0 -5 7 -10 15 -10 8 0 15 5 15 10 0 6 -7 10 -15 10 -8 0
-15 -4 -15 -10z"/>
<path d="M4017 4559 c-66 -7 -86 -14 -75 -24 8 -8 178 17 178 26 0 10 -5 10
-103 -2z"/>
<path d="M3336 12553 c-14 -14 -3 -24 65 -58 89 -44 126 -70 134 -95 4 -11 15
-20 25 -20 33 0 60 -47 60 -106 0 -58 15 -72 27 -26 13 47 7 108 -12 134 -61
80 -270 200 -299 171z"/>
<path d="M3328 12243 c6 -2 18 -2 25 0 6 3 1 5 -13 5 -14 0 -19 -2 -12 -5z"/>
<path d="M3420 12180 c0 -5 5 -10 11 -10 5 0 7 5 4 10 -3 6 -8 10 -11 10 -2 0
-4 -4 -4 -10z"/>
<path d="M3110 12120 c-8 -5 -39 -19 -69 -30 -32 -12 -70 -37 -93 -60 l-38
-40 30 0 c17 0 60 14 97 30 66 30 68 30 108 15 22 -9 57 -33 78 -53 31 -30 37
-33 37 -17 0 11 -9 34 -20 50 -27 41 -25 48 10 30 16 -8 34 -15 40 -15 17 0
11 17 -7 24 -10 3 -45 21 -78 41 -65 38 -72 40 -95 25z"/>
<path d="M3070 11946 c-25 -12 -56 -29 -70 -39 l-25 -18 24 -20 c18 -14 32
-18 56 -13 18 3 42 1 53 -5 15 -8 28 -8 47 1 20 9 34 9 58 0 44 -17 54 -1 27
42 -39 64 -102 83 -170 52z"/>
<path d="M3042 11749 c0 -38 -5 -58 -23 -82 -16 -22 -24 -49 -27 -89 -6 -79 2
-101 49 -139 40 -32 41 -32 60 -12 11 10 22 35 25 54 5 28 0 41 -26 74 -31 38
-32 43 -26 105 6 66 -7 140 -24 140 -5 0 -9 -23 -8 -51z"/>
<path d="M3405 11773 c-16 -9 -42 -26 -57 -39 -16 -12 -36 -25 -46 -28 -22 -7
-43 -82 -31 -112 11 -30 56 -74 76 -74 30 0 40 13 45 57 8 54 -10 72 -53 56
-49 -19 -32 4 28 36 l56 31 40 -23 c22 -12 43 -29 45 -37 4 -12 2 -13 -9 -2
-18 17 -46 15 -53 -4 -6 -16 18 -43 38 -44 5 0 3 -7 -4 -15 -10 -12 -7 -17 15
-27 32 -14 56 -3 69 35 13 37 -10 84 -55 114 -23 15 -44 39 -51 59 -14 39 -13
39 -53 17z"/>
<path d="M3937 11544 c-12 -12 4 -24 31 -24 26 1 26 1 8 15 -22 17 -30 18 -39
9z"/>
<path d="M3425 11295 c-17 -13 -18 -16 -5 -25 21 -14 60 -24 67 -16 4 4 -4 18
-18 31 -23 23 -26 24 -44 10z"/>
<path d="M4292 11269 c1 -12 9 -24 16 -27 9 -3 13 3 10 19 -1 12 -9 24 -16 27
-9 3 -13 -3 -10 -19z"/>
<path d="M4415 11240 c3 -5 8 -10 11 -10 2 0 4 5 4 10 0 6 -5 10 -11 10 -5 0
-7 -4 -4 -10z"/>
<path d="M4525 11159 c-4 -11 -4 -23 0 -27 7 -7 25 17 25 36 0 20 -18 14 -25
-9z"/>
<path d="M4370 11160 c0 -5 5 -10 11 -10 5 0 7 5 4 10 -3 6 -8 10 -11 10 -2 0
-4 -4 -4 -10z"/>
<path d="M3376 10893 c-9 -10 -7 -111 3 -117 13 -8 21 19 21 69 0 42 -10 62
-24 48z"/>
<path d="M4906 10274 c-3 -9 -6 -40 -6 -69 0 -55 7 -85 20 -85 9 0 21 136 13
156 -7 19 -19 18 -27 -2z"/>
<path d="M4722 10263 c36 -80 92 -173 103 -173 11 0 7 15 -15 63 -34 71 -66
117 -81 117 -6 0 -9 -3 -7 -7z"/>
<path d="M1355 6752 l-60 -3 -22 -87 c-12 -48 -37 -148 -56 -222 -20 -74 -76
-295 -126 -490 -50 -195 -104 -407 -121 -470 -82 -312 -143 -551 -271 -1055
-228 -902 -384 -1508 -493 -1915 -36 -135 -66 -252 -66 -260 0 -13 233 -15
2023 -18 1112 -1 2102 -2 2199 -2 164 0 178 -1 187 -19 8 -14 6 -25 -10 -45
l-20 -26 -287 -1 c-158 0 -296 -4 -307 -9 -11 -5 -15 -10 -10 -11 6 -1 151 -1
323 1 222 1 317 -1 326 -9 11 -9 12 -18 3 -40 l-10 -29 -486 -7 c-436 -6 -964
5 -980 20 -2 3 245 6 550 7 l554 3 -500 5 c-643 6 -1656 1 -1630 -10 13 -5
-18 -10 -85 -14 -58 -3 -208 -12 -335 -20 -159 -9 -201 -14 -137 -15 68 -1 94
-5 98 -15 4 -11 11 -11 42 0 29 10 131 13 452 12 228 -1 387 -3 353 -5 -103
-6 -72 -23 40 -22 69 0 96 3 82 9 -13 6 17 8 85 6 79 -3 92 -2 50 4 -39 6 -18
7 75 5 107 -2 138 -6 175 -24 48 -22 95 -27 105 -11 11 17 1088 19 1135 2 16
-6 -122 -11 -390 -15 -228 -4 -433 -11 -455 -17 -31 -7 -18 -8 55 -4 130 8
558 11 705 4 l120 -5 -90 -8 c-49 -4 -123 -10 -164 -13 -40 -3 -69 -10 -65
-14 18 -16 599 -16 589 0 -4 6 -60 10 -136 10 -79 0 -129 4 -129 10 0 6 9 10
20 10 15 0 20 7 20 24 0 22 -6 25 -42 30 -24 3 -95 12 -158 19 l-115 14 291 2
291 1 -5 -26 c-5 -29 10 -44 45 -44 12 0 26 -8 32 -18 28 -50 38 49 16 156 -7
29 -5 32 18 32 14 0 27 4 29 9 2 6 43 7 103 3 66 -4 90 -8 70 -12 -16 -4 -55
-5 -85 -3 -41 4 -51 2 -40 -6 8 -6 29 -11 45 -11 17 0 39 -7 49 -15 21 -16 91
-21 82 -6 -10 16 34 19 227 16 106 -3 184 -2 175 1 -10 3 -18 12 -18 20 0 13
-28 15 -177 14 -98 -1 -190 1 -204 5 -14 3 -91 9 -170 13 -143 7 -144 7 -147
31 -8 53 -40 51 980 51 714 0 948 3 948 12 0 6 -14 97 -30 202 -50 319 -78
500 -79 516 -1 19 -33 233 -61 400 -11 69 -43 278 -70 465 -28 187 -62 412
-75 500 -33 213 -67 445 -105 700 -17 116 -42 280 -55 365 -13 85 -33 218 -44
295 -114 786 -140 955 -151 980 -7 18 -8 17 -15 -10 -8 -27 10 -186 51 -450 8
-55 28 -185 44 -290 51 -339 100 -666 130 -860 16 -104 45 -300 64 -435 20
-135 45 -306 56 -380 12 -74 25 -164 30 -200 5 -36 14 -94 19 -130 54 -356
109 -729 156 -1045 30 -209 63 -427 71 -484 14 -87 14 -105 3 -112 -11 -7
-458 -16 -544 -11 -11 0 -1298 1 -2860 1 -1633 1 -2846 5 -2854 10 -12 8 -7
37 28 178 65 261 59 243 85 243 26 0 63 34 47 44 -6 4 -19 1 -30 -6 -11 -7
-23 -9 -26 -6 -6 5 69 320 96 405 l10 31 58 -19 59 -20 37 25 c42 29 71 36
167 40 l66 2 76 77 c41 42 71 79 66 82 -6 4 -42 -25 -81 -64 -40 -39 -74 -71
-78 -72 -3 -1 -36 -3 -73 -5 -37 -2 -83 -10 -103 -19 -42 -17 -55 -13 -54 18
0 17 14 29 62 51 65 31 62 50 -3 21 -44 -20 -69 -15 -77 15 -3 11 -10 20 -16
20 -6 0 -7 -17 -2 -47 15 -98 15 -98 -33 -97 -23 0 -48 6 -54 12 -8 8 -1 52
30 169 23 87 122 478 221 868 99 391 204 805 235 920 112 425 124 472 155 590
18 66 61 233 97 370 66 249 123 464 150 562 l14 52 318 -3 c174 -2 323 -1 330
1 20 8 14 32 -10 38 -26 6 -522 11 -613 7z m3251 -4709 c-10 -10 -19 5 -10 18
6 11 8 11 12 0 2 -7 1 -15 -2 -18z m-871 -32 c39 -5 -87 -9 -360 -9 -231 0
-412 2 -403 6 26 10 694 13 763 3z m885 -17 c0 -9 -10 -14 -27 -14 -25 0 -26
1 -8 20 19 21 35 18 35 -6z"/>
<path d="M4584 6719 c-14 -24 30 -29 261 -29 132 0 396 -5 586 -10 191 -5 359
-6 375 -1 28 7 27 8 -21 21 -36 9 -151 14 -400 16 -192 2 -450 6 -572 8 -154
4 -224 2 -229 -5z"/>
<path d="M4381 6583 c6 -16 18 -36 27 -46 15 -17 14 -20 -12 -45 -26 -25 -27
-25 -16 -4 6 13 9 26 6 29 -9 10 -36 -18 -36 -37 0 -10 -9 -39 -20 -65 -16
-37 -20 -67 -19 -158 1 -62 7 -143 15 -182 8 -38 14 -82 14 -96 0 -28 37 -69
63 -69 22 0 47 50 47 94 0 19 -12 67 -26 108 -14 40 -29 91 -34 113 -4 22 -15
60 -24 84 -15 41 -15 46 3 85 10 22 32 58 50 80 17 21 31 44 31 50 -1 11 -66
86 -75 86 -2 0 0 -12 6 -27z m19 -507 c0 -28 -16 -8 -24 29 -6 28 -5 29 9 11
8 -11 15 -29 15 -40z"/>
<path d="M2551 6383 c-29 -35 -35 -64 -28 -131 3 -32 2 -66 -2 -77 -4 -11 -4
-36 0 -56 7 -28 4 -52 -11 -94 -20 -57 -20 -58 -1 -100 22 -50 60 -80 91 -70
37 12 52 59 48 154 -3 77 -6 90 -32 124 -16 21 -29 51 -30 67 -1 16 -7 32 -13
35 -18 6 -16 99 2 135 20 38 2 48 -24 13z m31 -415 c-2 -10 -8 -18 -13 -18
-11 0 -12 31 -2 56 6 16 7 16 13 -2 4 -10 5 -27 2 -36z"/>
<path d="M1177 5645 c-3 -11 -24 -85 -46 -164 -38 -136 -45 -177 -23 -134 15
30 84 293 79 306 -2 7 -7 3 -10 -8z"/>
<path d="M1200 5578 c-57 -188 -149 -513 -146 -516 6 -6 72 201 121 382 25 92
44 170 42 172 -2 2 -10 -15 -17 -38z"/>
<path d="M2577 5483 c-3 -10 -8 -86 -12 -169 -5 -128 -9 -159 -30 -210 -14
-32 -25 -65 -25 -72 0 -24 39 -90 67 -112 l28 -22 11 64 c5 34 16 73 22 85 18
32 15 95 -7 155 -19 51 -33 239 -21 277 3 8 -2 16 -12 18 -9 3 -18 -3 -21 -14z
m43 -368 c0 -21 -22 -65 -32 -65 -5 0 -6 10 -3 23 4 12 9 30 11 40 6 21 24 23
24 2z"/>
<path d="M2196 5121 c-11 -17 28 -58 79 -83 22 -11 57 -36 78 -55 22 -19 41
-32 44 -29 12 12 -48 73 -98 100 -30 16 -63 40 -75 54 -15 18 -23 22 -28 13z"/>
<path d="M4459 5076 c-2 -2 -3 -36 -1 -75 3 -62 6 -71 22 -71 14 0 22 -11 30
-42 6 -24 13 -49 16 -57 7 -21 -27 -174 -42 -192 -8 -8 -14 -27 -14 -42 0 -14
-5 -29 -11 -33 -12 -7 -3 -123 12 -138 15 -17 86 24 101 58 16 38 16 198 -1
279 -20 98 -70 269 -86 294 -16 24 -19 26 -26 19z"/>
<path d="M1790 5001 c0 -5 10 -11 23 -15 12 -3 49 -28 82 -55 76 -63 104 -67
45 -5 -60 61 -150 106 -150 75z"/>
<path d="M2200 4803 c0 -3 23 -39 50 -80 64 -95 104 -173 135 -269 28 -87 33
-144 11 -144 -16 0 -31 -34 -22 -49 3 -5 38 -9 77 -9 68 1 71 0 110 -38 36
-35 50 -64 32 -64 -15 0 -148 -112 -165 -138 -19 -28 -24 -87 -9 -96 5 -3 12
-18 16 -33 3 -16 13 -36 22 -45 14 -15 12 -18 -24 -27 -21 -5 -59 -13 -85 -16
-39 -6 -48 -4 -48 7 0 8 -22 30 -50 49 -27 19 -50 37 -50 41 0 3 14 11 31 17
49 17 31 36 -35 37 -56 0 -75 11 -76 40 0 14 55 24 133 24 67 0 112 18 151 59
27 28 27 30 12 58 -12 25 -23 31 -61 36 -71 10 -111 39 -67 50 16 4 15 5 -2
12 -14 6 -24 2 -38 -14 -10 -13 -18 -27 -18 -31 0 -7 30 -17 118 -40 50 -13
55 -34 17 -70 -27 -25 -99 -38 -218 -39 -43 -1 -59 -5 -64 -17 -8 -22 28 -84
55 -95 12 -5 22 -16 22 -26 0 -11 24 -33 61 -55 33 -21 57 -42 54 -48 -4 -6
-24 -19 -45 -30 -38 -19 -39 -19 -93 -1 -30 11 -65 25 -77 31 -29 16 -47 -1
-23 -22 10 -8 31 -20 47 -25 17 -5 31 -14 33 -20 2 -6 -12 -31 -32 -57 -34
-45 -43 -66 -27 -66 11 0 53 47 75 83 10 15 24 27 32 27 18 0 19 -5 3 -29 -10
-16 -7 -24 15 -51 31 -36 34 -66 11 -98 -13 -18 -19 -20 -36 -11 -23 12 -98
-6 -98 -24 0 -5 7 -6 16 -3 38 14 62 17 68 7 11 -18 44 -12 66 11 26 29 27 87
0 121 -30 38 -18 83 31 107 53 27 59 26 52 -15 -5 -28 -3 -34 9 -30 8 3 18 20
24 38 5 20 16 33 29 35 11 2 27 6 35 9 8 3 30 7 49 9 66 7 102 54 50 67 -10 3
-23 18 -29 34 -6 15 -15 38 -21 50 -16 29 14 76 82 128 126 97 130 105 78 149
-31 27 -31 46 0 46 11 0 29 8 41 18 19 16 21 22 11 40 -24 45 -102 37 -121
-13 -20 -52 -90 -22 -90 38 0 47 -35 161 -75 246 -48 102 -165 253 -165 214z
m405 -503 c-3 -5 -13 -10 -21 -10 -8 0 -12 5 -9 10 3 6 13 10 21 10 8 0 12 -4
9 -10z"/>
<path d="M2417 4803 c-4 -3 -3 -11 1 -17 5 -6 19 -40 32 -76 23 -66 124 -255
142 -266 23 -14 14 10 -42 121 -33 66 -69 147 -81 182 -19 57 -34 74 -52 56z"/>
<path d="M5083 4598 c-78 -65 -157 -146 -240 -243 -93 -109 -133 -148 -267
-262 -69 -58 -94 -74 -113 -70 -18 3 -23 0 -21 -12 2 -9 13 -17 26 -19 31 -5
164 107 302 252 200 211 317 323 358 342 23 10 42 25 42 32 0 23 -49 12 -87
-20z"/>
<path d="M2147 4553 c15 -21 44 -59 65 -84 20 -25 57 -76 81 -112 24 -37 46
-64 50 -61 18 18 -178 294 -209 294 -11 0 -8 -9 13 -37z"/>
<path d="M4320 4426 c0 -2 14 -21 31 -42 17 -22 44 -64 59 -95 48 -94 87 -111
44 -19 -32 69 -100 160 -119 160 -8 0 -15 -2 -15 -4z"/>
<path d="M2683 4295 c-44 -43 -54 -58 -45 -67 9 -9 21 -3 54 27 78 75 92 95
63 95 -9 0 -41 -25 -72 -55z"/>
<path d="M5130 4269 c-69 -21 -135 -39 -147 -39 -12 0 -34 -10 -50 -23 -27
-22 -88 -65 -341 -238 l-113 -77 -45 25 c-24 14 -70 32 -102 40 -31 8 -80 28
-108 44 -56 31 -64 34 -64 20 0 -15 99 -68 172 -91 37 -12 95 -39 128 -61 70
-45 94 -50 59 -13 -16 18 -20 28 -12 31 11 4 68 43 291 201 35 24 65 42 68 39
3 -3 -27 -45 -66 -93 -39 -49 -88 -120 -110 -159 -98 -175 -147 -250 -166
-253 -53 -8 -68 -16 -121 -70 -32 -31 -67 -62 -78 -68 -19 -11 -19 -12 7 -50
63 -93 91 -110 193 -116 50 -4 57 -26 21 -73 -18 -23 -38 -36 -61 -41 -20 -3
-37 -10 -40 -14 -9 -15 26 -40 56 -40 24 0 29 -4 29 -25 0 -31 -24 -90 -40
-100 -7 -4 -37 -2 -66 5 -30 7 -57 11 -60 7 -3 -3 3 -19 15 -35 27 -38 27 -67
-1 -86 -28 -20 -18 -30 15 -15 14 6 34 9 44 5 15 -6 13 -10 -15 -32 -18 -14
-32 -29 -32 -33 0 -4 18 -17 40 -30 47 -26 69 -63 77 -129 6 -53 -17 -122 -40
-122 -7 0 -24 12 -38 26 -13 14 -44 37 -68 52 -36 21 -47 23 -63 13 -10 -6
-23 -9 -28 -6 -18 11 -10 42 29 121 22 43 38 80 36 83 -13 12 -105 -144 -105
-178 0 -31 59 -117 140 -204 75 -80 85 -87 118 -86 l37 1 -35 15 c-39 17 -80
51 -80 67 0 6 17 19 38 29 37 18 39 18 106 -4 100 -33 114 -25 149 81 60 183
51 210 -72 210 -59 0 -87 6 -127 24 -28 13 -54 28 -58 34 -17 28 121 103 201
110 60 5 64 9 98 113 12 37 16 67 11 91 -7 40 -90 155 -134 187 -51 36 -62 92
-36 179 10 34 -12 26 -27 -10 -20 -48 -18 -122 5 -147 l19 -20 -69 5 c-81 7
-100 17 -138 73 l-29 41 67 65 c36 36 72 65 79 66 6 1 23 2 36 2 21 2 38 24
98 127 40 69 87 151 104 182 17 31 74 109 126 173 80 98 97 114 110 104 12
-10 16 -10 24 2 5 8 9 17 9 22 0 4 5 7 12 7 23 0 288 85 288 92 0 15 -46 6
-170 -33z m-448 -1030 c44 -57 49 -68 45 -104 -7 -57 -26 -127 -40 -143 -13
-17 -110 -12 -146 7 -20 11 -21 13 -4 49 24 53 23 102 -2 116 -11 6 -21 11
-22 12 -2 0 17 22 42 47 29 31 45 56 45 73 0 36 21 21 82 -57z m-222 -250 c0
-16 -32 -23 -40 -8 -5 7 -7 16 -4 20 6 10 44 -1 44 -12z m89 -18 c9 -6 0 -14
-33 -26 -53 -20 -68 -15 -41 15 19 21 51 26 74 11z m150 -225 c18 -12 13 -62
-15 -133 -15 -38 -31 -79 -36 -92 -8 -21 -13 -23 -54 -17 -68 9 -87 22 -79 54
13 49 17 142 7 170 l-9 28 87 -2 c48 -1 93 -5 99 -8z m-294 -172 c48 -43 49
-45 31 -59 -29 -22 -46 -19 -83 17 -24 23 -33 41 -33 64 0 42 18 37 85 -22z"/>
<path d="M3680 4230 c-58 -5 -157 -13 -220 -19 -63 -6 -225 -12 -360 -13 -204
-1 -227 -3 -135 -8 61 -4 128 -8 149 -9 37 -1 39 -2 20 -16 -18 -13 -16 -14
24 -15 23 0 42 4 42 8 0 10 183 32 266 32 35 0 74 -6 90 -15 40 -20 167 -20
184 0 10 12 38 15 129 15 l116 0 109 -55 c60 -31 129 -73 152 -95 38 -35 64
-49 64 -36 0 15 -107 102 -164 133 -37 21 -77 43 -88 50 -11 6 -62 14 -112 18
-50 4 -93 11 -96 16 -10 14 -60 17 -170 9z"/>
<path d="M4226 4211 c-3 -5 7 -17 22 -26 15 -10 50 -43 79 -74 28 -31 55 -53
59 -49 8 9 -58 99 -97 133 -31 26 -54 32 -63 16z"/>
<path d="M1833 4070 c-26 -15 -33 -27 -33 -50 0 -35 7 -38 115 -64 79 -18 131
-21 140 -6 8 13 -68 67 -106 75 -46 10 -46 -1 1 -25 48 -24 47 -38 -1 -21 -18
6 -49 11 -71 11 -27 0 -41 5 -45 16 -10 27 12 49 46 48 33 -2 38 5 19 24 -16
16 -28 15 -65 -8z"/>
<path d="M3710 3989 c-88 -14 -120 -16 -137 -8 -15 8 -58 9 -155 1 -95 -7
-108 -10 -46 -8 48 1 85 -1 82 -6 -3 -4 -23 -8 -44 -8 -50 0 -61 -16 -12 -18
44 -2 259 24 450 54 33 5 45 -11 15 -20 -10 -3 0 -3 22 0 45 7 55 11 55 25 0
14 -103 9 -230 -12z"/>
<path d="M3022 3985 c-46 -20 -31 -35 31 -33 50 1 51 2 10 5 -24 2 -43 8 -43
14 0 5 6 9 14 9 8 0 18 5 21 10 8 12 7 12 -33 -5z"/>
<path d="M4069 3963 c23 -43 98 -116 142 -138 54 -28 59 -29 59 -16 0 5 -24
22 -52 39 -29 16 -72 53 -96 81 -42 50 -72 69 -53 34z"/>
<path d="M3158 3963 c12 -2 32 -2 45 0 12 2 2 4 -23 4 -25 0 -35 -2 -22 -4z"/>
<path d="M4656 3881 c-11 -12 -16 -24 -12 -28 9 -9 39 22 34 37 -2 7 -10 4
-22 -9z"/>
<path d="M1914 3780 c-33 -13 -93 -77 -100 -106 -5 -18 0 -32 17 -50 16 -17
20 -27 12 -35 -14 -14 -64 -14 -91 0 -46 24 -86 -12 -80 -72 l3 -32 -115 -1
c-99 -1 -118 1 -139 17 -13 11 -30 19 -37 19 -7 0 -29 14 -47 30 -39 34 -51
36 -100 15 -50 -21 -105 -19 -182 6 -65 22 -66 22 -107 3 -24 -10 -62 -36 -86
-56 -24 -21 -47 -38 -52 -38 -6 0 -21 -22 -34 -49 -14 -26 -36 -62 -50 -79
-31 -36 -33 -46 -7 -33 10 6 35 35 55 66 20 30 48 63 62 72 14 10 40 32 57 48
18 17 47 37 65 44 30 12 40 12 80 -1 79 -27 143 -39 155 -30 11 7 86 32 99 32
3 0 18 -11 34 -25 16 -14 33 -25 38 -25 4 0 23 -13 42 -29 42 -37 90 -51 176
-51 79 0 98 -6 98 -31 0 -45 164 -74 220 -39 25 16 4 22 -38 11 -22 -6 -46 -9
-53 -7 -8 3 -33 10 -56 16 -32 8 -47 19 -58 40 -13 26 -21 30 -58 31 -52 1
-139 16 -112 19 11 1 56 3 100 4 75 1 80 2 80 23 0 11 3 25 8 29 11 11 9 26
-3 19 -5 -3 -10 1 -10 9 0 23 11 25 63 13 39 -9 53 -8 82 6 40 19 46 48 14 71
-25 17 -19 50 12 66 10 6 19 17 19 25 0 20 32 35 61 28 24 -6 24 -6 5 15 -11
12 -20 22 -20 21 -1 0 -11 -4 -22 -9z"/>
<path d="M3065 3742 c22 -24 114 -34 386 -41 251 -6 289 -9 313 -25 26 -17 27
-18 10 -37 -19 -22 -183 -87 -299 -119 -44 -12 -84 -27 -90 -32 -11 -11 -13
-12 105 22 113 33 274 97 298 121 33 30 15 55 -50 69 -29 6 -163 13 -298 16
-216 5 -317 13 -370 32 -10 3 -12 2 -5 -6z"/>
<path d="M1954 3655 c-7 -17 4 -37 17 -30 12 8 12 45 -1 45 -6 0 -13 -7 -16
-15z"/>
<path d="M2230 3660 c-13 -8 -12 -10 3 -10 9 0 17 5 17 10 0 12 -1 12 -20 0z"/>
<path d="M1048 3493 c-21 -2 -38 -9 -38 -15 0 -7 17 -9 46 -5 44 5 47 3 66
-29 19 -33 50 -45 63 -24 3 6 -1 10 -9 10 -8 0 -20 9 -26 19 -15 28 -40 51
-53 49 -7 -1 -29 -3 -49 -5z"/>
<path d="M950 3411 c0 -18 48 -38 160 -65 63 -16 121 -31 128 -33 6 -3 12 -1
12 4 0 16 -48 33 -148 53 -52 10 -105 26 -118 35 -27 17 -34 19 -34 6z"/>
<path d="M1396 3354 c-26 -19 -41 -34 -32 -34 21 0 96 47 96 60 0 16 -12 11
-64 -26z"/>
<path d="M4552 2384 c-35 -15 -36 -74 -2 -74 23 0 35 16 18 23 -23 10 15 27
42 20 41 -11 93 -8 128 6 36 15 45 37 10 24 -27 -10 -123 -10 -158 -1 -14 4
-31 4 -38 2z"/>
<path d="M145 2177 c-4 -13 -5 -38 -3 -56 l3 -32 975 1 c907 0 1011 3 988 25
-3 3 -431 6 -950 5 -1013 0 -962 -3 -970 50 -4 34 -35 39 -43 7z"/>
<path d="M5547 2133 c-9 -3 -15 -9 -12 -14 4 -5 167 -9 393 -9 213 0 397 -3
410 -6 16 -5 21 -11 17 -23 -4 -9 -11 -86 -16 -171 -4 -85 -13 -236 -19 -335
-5 -99 -15 -288 -20 -420 -6 -132 -13 -276 -15 -320 -11 -211 -27 -612 -28
-715 -2 -96 0 -115 13 -115 19 0 26 64 33 337 5 158 4 208 -6 212 -9 3 -9 6 1
13 9 7 16 100 27 339 8 181 24 505 35 719 11 215 20 409 20 432 l0 42 63 3
c47 2 62 7 62 18 0 13 -59 15 -470 16 -258 1 -478 -1 -488 -3z"/>
<path d="M5465 2110 c-3 -5 -1 -107 4 -227 6 -120 13 -282 16 -360 l5 -143
-227 -1 c-126 -1 -310 -3 -410 -5 -129 -1 -185 1 -191 9 -10 13 -48 275 -41
281 2 2 42 -1 88 -6 53 -6 87 -6 94 1 6 6 -12 12 -49 16 -106 11 -134 17 -134
26 0 5 33 9 73 9 94 0 147 9 147 25 0 14 -37 22 -147 33 -50 5 -68 11 -69 22
-1 8 -2 25 -3 38 -1 12 -7 22 -16 22 -8 0 -15 5 -15 10 0 6 -31 9 -77 8 -77
-2 -77 -2 -15 -5 l62 -4 0 -70 0 -71 -222 2 c-487 4 -918 0 -918 -9 0 -9 252
-18 775 -27 187 -3 346 -7 352 -9 18 -6 5 -32 -18 -38 -18 -5 -19 -11 -13 -84
9 -106 9 -145 2 -164 -6 -14 -73 -15 -690 -13 -375 2 -1063 3 -1526 3 -835 1
-844 1 -849 21 -3 11 -9 20 -14 20 -5 0 -9 -9 -9 -20 0 -18 -7 -20 -71 -20
l-70 0 7 84 c4 51 3 86 -3 89 -6 4 -12 -24 -16 -73 -3 -43 -8 -83 -12 -89 -3
-6 -31 -11 -61 -11 l-55 0 3 182 c2 128 0 182 -8 185 -20 7 -24 -25 -30 -196
-2 -91 -9 -260 -14 -376 -12 -255 -12 -688 -1 -681 4 3 11 90 15 193 4 103 13
295 19 426 l12 237 1679 0 c923 0 1682 -3 1687 -6 5 -3 19 -23 30 -46 15 -29
19 -50 14 -77 -6 -35 -4 -38 27 -52 18 -8 32 -19 32 -24 -1 -6 -5 -25 -9 -42
-5 -26 -3 -33 9 -33 29 0 40 42 40 160 l1 115 413 1 c227 0 415 -3 417 -7 6
-8 23 -495 33 -896 5 -199 11 -296 19 -304 25 -25 31 25 23 211 -5 102 -13
361 -20 575 -6 215 -13 426 -16 470 -3 44 -8 217 -11 385 -3 168 -9 313 -15
323 -10 19 -24 22 -33 7z m-732 -360 c31 0 57 -4 57 -9 0 -13 -150 -25 -162
-13 -16 16 2 34 26 28 11 -3 47 -6 79 -6z m-177 -49 c-6 -8 -586 -4 -595 4 -2
3 132 5 298 5 168 0 300 -4 297 -9z m54 -224 c13 -96 9 -111 -31 -105 -24 3
-24 5 -21 98 2 52 8 113 14 135 l11 40 8 -40 c4 -22 13 -80 19 -128z m8 -202
c-3 -83 -19 -100 -29 -32 -4 25 -12 54 -18 65 -17 33 -13 42 19 42 l31 0 -3
-75z"/>
<path d="M5249 2051 c-3 -7 -78 -13 -197 -18 -107 -3 -188 -9 -180 -13 7 -4
70 -10 139 -13 140 -5 195 -20 119 -32 -25 -3 -117 -10 -205 -14 l-160 -8 130
-1 c137 -2 293 12 307 26 12 12 -11 29 -47 35 -16 2 -1 5 35 6 78 2 112 10
107 25 -5 15 -44 20 -48 7z"/>
<path d="M295 2009 c-4 -6 -2 -54 4 -107 11 -89 37 -478 47 -682 2 -47 8 -164
14 -260 5 -96 12 -242 15 -325 15 -392 26 -543 41 -549 15 -6 28 9 19 23 -3 6
-10 115 -15 243 -5 128 -12 276 -15 328 -2 52 -11 232 -20 400 -8 168 -19 368
-25 445 -5 77 -14 220 -21 318 -9 133 -15 177 -25 177 -7 0 -16 -5 -19 -11z"/>
<path d="M2328 1962 c-9 -4 110 -8 265 -8 167 -1 262 2 232 6 -62 10 -474 11
-497 2z"/>
<path d="M2035 1950 c-71 -4 -204 -8 -295 -9 -115 -1 -177 -6 -205 -16 -22 -8
-72 -15 -111 -15 -81 0 -164 -10 -164 -19 0 -3 21 -4 47 -2 43 3 46 2 34 -13
-19 -22 -6 -20 29 6 28 21 34 21 252 15 123 -4 246 -9 273 -12 69 -7 28 10
-50 21 l-60 8 80 6 c139 10 409 -24 431 -55 14 -19 24 -19 24 -1 0 15 -55 38
-130 54 -38 8 -26 10 80 10 91 1 132 -3 150 -13 24 -14 23 -14 -30 -16 -30 -2
62 -5 205 -9 186 -4 267 -9 283 -19 13 -7 27 -10 30 -6 11 11 -19 22 -82 31
-53 8 -38 10 114 14 169 5 172 5 80 12 -52 3 -198 7 -325 8 -126 1 -275 6
-330 11 -180 16 -199 16 -330 9z m-300 -30 c4 -6 -20 -9 -67 -8 l-73 1 55 7
c30 4 60 7 67 8 6 1 15 -2 18 -8z"/>
<path d="M4330 1940 c0 -6 49 -10 137 -10 75 0 134 2 132 4 -11 9 -269 16
-269 6z"/>
<path d="M3228 1903 c-71 -2 -128 -7 -128 -11 0 -8 216 -5 480 7 l175 8 -200
-1 c-110 0 -257 -2 -327 -3z"/>
<path d="M5056 1851 c-27 -28 -32 -29 -169 -37 l-142 -9 190 -3 c202 -3 259 2
252 21 -5 17 -65 21 -83 6 -20 -16 -31 -2 -16 21 19 31 -3 32 -32 1z"/>
<path d="M85 1850 c-18 -20 -18 -23 8 -113 46 -159 34 -277 -29 -277 -17 0
-24 -6 -24 -18 0 -11 -9 -27 -20 -37 -11 -10 -20 -25 -20 -34 1 -11 7 -7 21
12 11 15 26 27 32 27 18 1 53 33 69 65 l15 29 8 -25 c4 -13 16 -37 27 -52 41
-57 15 -144 -39 -134 -13 2 -23 0 -23 -4 0 -5 -9 -9 -20 -9 -16 0 -20 -7 -20
-33 0 -32 14 -57 33 -57 5 0 6 18 2 40 -7 39 -6 40 22 40 27 0 70 22 85 44 15
22 7 73 -22 131 -29 57 -30 66 -30 187 0 125 0 128 -22 125 -17 -2 -23 5 -29
30 -4 22 -2 39 7 50 7 10 14 21 14 26 0 14 -27 7 -45 -13z"/>
<path d="M4270 1863 c-36 -2 -69 -8 -74 -13 -11 -11 143 -1 164 11 12 7 11 8
-5 7 -11 -1 -49 -3 -85 -5z"/>
<path d="M4683 1863 c26 -2 68 -2 95 0 26 2 4 3 -48 3 -52 0 -74 -1 -47 -3z"/>
<path d="M3238 1853 c-116 -3 -168 -7 -168 -15 0 -8 27 -9 92 -4 50 3 140 6
200 6 65 0 108 4 108 10 0 6 -15 9 -32 8 -18 -1 -108 -4 -200 -5z"/>
<path d="M2624 1833 c7 -7 77 -5 85 2 2 3 -17 5 -44 5 -27 0 -45 -3 -41 -7z"/>
<path d="M2805 1819 c-33 -4 -168 -7 -300 -7 -523 2 -796 0 -820 -6 -41 -10
-28 -26 21 -26 27 0 43 4 39 10 -4 6 43 10 132 11 340 2 450 -4 421 -22 -8 -5
18 -9 65 -9 62 0 77 -3 77 -15 0 -12 -18 -15 -97 -17 -62 -1 -23 -4 102 -9
420 -16 480 -56 105 -71 -218 -8 -271 -15 -267 -33 3 -13 155 -7 181 7 11 6
52 7 101 3 56 -4 85 -3 90 4 3 6 27 11 53 10 34 0 41 -3 27 -8 -30 -12 202
-25 313 -17 101 7 172 -5 172 -29 0 -12 -16 -15 -72 -16 -196 -2 -419 -16
-430 -27 -9 -9 2 -12 51 -12 34 0 70 4 80 9 10 6 104 11 210 13 105 1 197 6
204 10 9 6 8 8 -3 8 -9 0 -16 10 -16 24 -2 20 5 24 44 32 103 20 35 45 -117
43 -94 -2 -53 -16 54 -18 60 -2 67 -4 47 -14 -18 -8 -57 -7 -155 3 -73 7 -167
13 -211 14 -70 1 -80 3 -86 22 -10 27 -80 41 -246 50 -119 7 -121 7 -111 28 9
19 17 21 83 18 40 -2 87 1 106 7 18 6 105 11 192 12 137 2 157 4 141 15 -20
15 -84 16 -180 3z m107 -181 c-45 -7 -67 -7 -75 1 -8 8 9 11 64 10 l74 -2 -63
-9z"/>
<path d="M3844 1820 c-5 -4 -140 -8 -381 -10 -13 0 -31 -1 -40 -1 -10 0 -72 0
-138 1 -99 1 -129 -3 -170 -19 l-50 -20 170 -1 c513 -2 668 1 694 14 18 9 42
11 76 6 58 -8 47 -15 -44 -29 -35 -6 -66 -13 -70 -17 -3 -3 12 -4 34 0 22 3
61 8 86 12 90 12 92 39 4 50 -28 3 -57 8 -65 12 -19 8 -99 10 -106 2z"/>
<path d="M1206 1809 c-2 -8 -9 -63 -15 -124 -7 -60 -14 -130 -18 -155 -3 -25
-2 -42 2 -38 4 4 11 40 16 80 4 40 13 111 19 157 6 46 9 86 6 89 -3 3 -7 -1
-10 -9z"/>
<path d="M1235 1792 c-9 -44 -25 -184 -32 -291 -4 -69 -3 -92 6 -87 6 4 11 33
11 69 0 34 7 122 16 196 14 125 14 180 -1 113z"/>
<path d="M2208 1773 c12 -2 30 -2 40 0 9 3 -1 5 -23 4 -22 0 -30 -2 -17 -4z"/>
<path d="M2075 1731 c-55 -3 -91 -8 -80 -11 31 -9 215 1 215 11 0 5 -8 8 -17
7 -10 -1 -63 -4 -118 -7z"/>
<path d="M1248 1657 c-5 -10 -7 -73 -7 -140 l2 -122 8 115 c10 129 9 177 -3
147z"/>
<path d="M3477 1656 c16 -9 15 -11 -12 -17 -16 -4 58 -7 165 -7 l195 0 -120
13 c-188 20 -249 23 -228 11z"/>
<path d="M2138 1653 c7 -3 16 -2 19 1 4 3 -2 6 -13 5 -11 0 -14 -3 -6 -6z"/>
<path d="M3378 1560 c51 -5 100 -11 110 -15 48 -20 -47 -29 -331 -33 -220 -3
-297 -7 -294 -15 4 -13 70 -13 377 -4 202 6 314 26 288 53 -14 13 -88 23 -163
22 l-80 -1 93 -7z"/>
<path d="M3662 1541 c-7 -4 67 -11 165 -14 98 -4 223 -9 278 -11 75 -4 88 -3
50 3 -27 5 -131 12 -230 15 -99 4 -196 9 -215 11 -19 2 -41 1 -48 -4z"/>
<path d="M1350 1476 c0 -28 13 -76 19 -72 10 6 0 86 -10 86 -5 0 -9 -6 -9 -14z"/>
<path d="M3885 1463 c13 -13 162 -33 243 -33 109 0 67 17 -60 24 -68 4 -139 9
-158 12 -23 4 -32 3 -25 -3z"/>
<path d="M1510 1420 c0 -5 5 -10 11 -10 5 0 7 5 4 10 -3 6 -8 10 -11 10 -2 0
-4 -4 -4 -10z"/>
<path d="M68 1313 c5 -21 7 -23 10 -9 2 10 0 22 -6 28 -6 6 -7 0 -4 -19z"/>
<path d="M64 1027 c-3 -8 2 -34 11 -58 40 -106 45 -139 36 -229 -7 -65 -17
-103 -40 -148 -28 -56 -29 -84 -1 -67 7 4 10 -13 8 -48 -2 -55 11 -87 37 -87
20 0 33 -23 25 -45 -5 -13 -2 -26 8 -37 23 -27 32 -22 32 18 0 36 16 94 51
189 l19 50 -28 70 c-21 54 -31 70 -44 67 -22 -4 -23 -1 8 -56 28 -49 28 -74 5
-165 -16 -61 -29 -81 -51 -81 -29 0 -40 31 -40 111 0 71 8 110 36 177 22 52 8
203 -23 244 -14 20 -23 46 -23 70 0 37 -15 52 -26 25z"/>
<path d="M4572 683 c-17 -39 -20 -65 -18 -143 4 -112 -9 -185 -35 -211 -20
-20 -25 -39 -10 -39 21 0 60 63 67 105 10 70 24 60 39 -28 8 -49 -7 -68 -45
-60 -25 5 -30 2 -36 -22 -7 -28 14 -63 23 -37 3 7 22 21 43 32 21 11 42 25 45
31 10 16 -15 131 -33 152 -9 10 -16 39 -17 70 -1 29 -5 60 -10 70 -4 10 0 38
9 66 19 58 19 61 7 61 -5 0 -18 -21 -29 -47z"/>
</g>
</svg>
