<?xml version="1.0" standalone="no"?>
<!DOCTYPE svg PUBLIC "-//W3C//DTD SVG 20010904//EN"
 "http://www.w3.org/TR/2001/REC-SVG-20010904/DTD/svg10.dtd">
<svg version="1.0" xmlns="http://www.w3.org/2000/svg"
 width="1018.000000pt" height="1280.000000pt" viewBox="0 0 1018.000000 1280.000000"
 preserveAspectRatio="xMidYMid meet">
<metadata>
Created by potrace 1.15, written by Peter Selinger 2001-2017
</metadata>
<g transform="translate(0.000000,1280.000000) scale(0.100000,-0.100000)"
fill="#000000" stroke="none">
<path d="M5470 12794 c-288 -24 -479 -52 -695 -100 -800 -178 -1568 -578
-2275 -1182 -177 -151 -523 -499 -682 -684 -390 -457 -711 -939 -986 -1481
-946 -1863 -1095 -4073 -392 -5827 81 -203 257 -559 362 -735 422 -704 961
-1242 1613 -1611 111 -62 1411 -686 1731 -830 805 -361 1674 -439 2581 -228
1132 262 2221 986 3066 2039 183 227 249 339 312 528 61 184 86 399 66 567
-32 257 -116 445 -271 600 -67 67 -104 95 -175 132 -89 45 -1413 675 -1490
708 -160 69 -383 66 -569 -9 -185 -74 -305 -174 -501 -416 -608 -753 -1345
-1216 -2155 -1354 -187 -32 -423 -45 -591 -32 l-144 11 -112 115 c-416 428
-722 1053 -847 1735 -73 399 -89 897 -41 1311 156 1364 883 2623 1920 3325
575 389 1244 587 1843 544 l142 -10 70 -59 c90 -75 75 -68 925 -471 515 -244
743 -348 800 -362 115 -30 296 -22 410 16 329 112 597 398 720 769 49 148 66
245 72 397 6 159 -11 285 -58 425 -72 215 -167 333 -475 590 -214 177 -450
336 -684 458 -211 111 -1679 802 -1826 860 -300 119 -624 200 -974 242 -127
16 -584 28 -690 19z"/>
</g>
</svg>
