<?xml version="1.0" standalone="no"?>
<!DOCTYPE svg PUBLIC "-//W3C//DTD SVG 20010904//EN"
 "http://www.w3.org/TR/2001/REC-SVG-20010904/DTD/svg10.dtd">
<svg version="1.0" xmlns="http://www.w3.org/2000/svg"
 width="1280.000000pt" height="960.000000pt" viewBox="0 0 1280.000000 960.000000"
 preserveAspectRatio="xMidYMid meet">
<metadata>
Created by potrace 1.15, written by Peter Selinger 2001-2017
</metadata>
<g transform="translate(0.000000,960.000000) scale(0.100000,-0.100000)"
fill="#000000" stroke="none">
<path d="M5970 7844 c-447 -38 -728 -102 -1085 -243 -200 -80 -556 -272 -630
-340 -16 -16 -75 -61 -130 -101 -303 -222 -586 -511 -801 -816 -624 -891 -789
-2034 -444 -3075 90 -271 241 -584 381 -791 44 -64 45 -68 23 -68 -30 0 -9
-35 33 -55 30 -15 64 -50 129 -135 113 -148 434 -469 584 -584 388 -300 838
-522 1289 -636 508 -128 1104 -137 1609 -24 695 155 1313 508 1793 1025 111
119 132 143 239 280 83 107 97 128 190 284 150 251 268 515 364 808 23 70 45
125 48 121 4 -3 4 4 1 16 -4 16 0 28 15 39 15 11 24 34 30 74 5 32 6 60 1 62
-8 6 -4 70 16 225 8 58 17 152 20 210 3 58 8 133 10 167 7 85 -12 407 -31 545
-90 649 -369 1277 -789 1773 -111 131 -324 342 -451 447 -521 430 -1154 698
-1834 778 -97 11 -499 21 -580 14z m-390 -134 c0 -5 -5 -10 -11 -10 -5 0 -7 5
-4 10 3 6 8 10 11 10 2 0 4 -4 4 -10z m590 -3410 c0 -5 -4 -10 -10 -10 -5 0
-10 5 -10 10 0 6 5 10 10 10 6 0 10 -4 10 -10z m1635 -890 c3 -5 1 -10 -4 -10
-6 0 -11 5 -11 10 0 6 2 10 4 10 3 0 8 -4 11 -10z"/>
</g>
</svg>
