<?xml version="1.0" standalone="no"?>
<!DOCTYPE svg PUBLIC "-//W3C//DTD SVG 20010904//EN"
 "http://www.w3.org/TR/2001/REC-SVG-20010904/DTD/svg10.dtd">
<svg version="1.0" xmlns="http://www.w3.org/2000/svg"
 width="1280.000000pt" height="870.000000pt" viewBox="0 0 1280.000000 870.000000"
 preserveAspectRatio="xMidYMid meet">
<metadata>
Created by potrace 1.15, written by Peter Selinger 2001-2017
</metadata>
<g transform="translate(0.000000,870.000000) scale(0.100000,-0.100000)"
fill="#000000" stroke="none">
<path d="M6520 8693 c-13 -3 -30 -13 -37 -23 -14 -19 -122 -60 -159 -60 -12 0
-40 -15 -62 -33 -32 -27 -52 -35 -100 -40 -77 -8 -136 -32 -157 -63 -13 -20
-21 -23 -58 -18 -44 5 -57 0 -130 -59 -21 -17 -56 -31 -93 -38 -42 -8 -74 -22
-111 -50 -50 -37 -55 -39 -128 -39 -75 0 -76 0 -86 -29 -10 -28 -15 -30 -97
-41 -70 -10 -97 -19 -137 -45 -35 -23 -67 -35 -106 -40 -31 -3 -65 -13 -75
-20 -11 -8 -25 -15 -33 -15 -7 0 -22 -11 -33 -25 -16 -21 -28 -25 -73 -25 -69
0 -103 -13 -115 -44 -9 -26 -15 -28 -122 -41 -36 -5 -57 -15 -84 -41 -20 -19
-41 -34 -45 -34 -5 0 -9 -3 -9 -7 0 -5 -33 -9 -73 -11 -54 -2 -74 -7 -82 -19
-28 -47 -51 -60 -118 -67 -71 -7 -118 -21 -116 -33 4 -25 -6 -32 -53 -38 -61
-9 -103 -25 -141 -55 -22 -17 -50 -25 -115 -31 -53 -6 -95 -16 -110 -27 -44
-31 -87 -51 -110 -52 -34 0 -91 -29 -108 -55 -15 -23 -59 -39 -136 -50 -32 -5
-59 -17 -87 -41 -31 -27 -48 -34 -83 -34 -33 0 -56 -8 -96 -35 -37 -25 -77
-41 -135 -54 -66 -14 -88 -23 -113 -49 -24 -23 -44 -33 -83 -38 -33 -4 -66
-17 -93 -36 -29 -22 -64 -34 -122 -45 -107 -20 -106 -19 -106 -41 0 -28 -21
-42 -83 -52 -31 -5 -77 -22 -106 -40 -36 -22 -71 -35 -113 -39 -51 -6 -66 -13
-88 -38 -15 -17 -38 -33 -51 -36 -101 -25 -129 -36 -168 -65 -24 -17 -55 -32
-67 -32 -41 0 -114 -24 -114 -37 0 -15 -71 -53 -99 -53 -32 0 -97 -38 -109
-64 -18 -39 -31 -496 -32 -1103 -1 -216 -2 -218 -95 -233 -33 -6 -77 -10 -98
-10 -31 0 -45 -7 -75 -39 -36 -38 -38 -39 -124 -44 -91 -5 -122 -17 -142 -59
-8 -17 -27 -27 -69 -37 -47 -11 -63 -21 -88 -52 -17 -22 -35 -39 -41 -39 -6 0
-27 -14 -48 -30 -21 -17 -59 -40 -84 -51 -25 -11 -46 -24 -46 -30 0 -5 -20
-29 -45 -53 -25 -25 -45 -53 -45 -63 0 -21 -39 -63 -59 -63 -10 0 -45 -66 -65
-123 -3 -9 -17 -22 -30 -27 -18 -6 -28 -21 -37 -52 -6 -24 -22 -63 -35 -88
-13 -25 -24 -52 -24 -60 0 -8 -7 -24 -15 -34 -10 -14 -15 -45 -15 -97 0 -89
-18 -179 -37 -186 -7 -3 -13 -12 -13 -20 0 -9 -8 -22 -17 -29 -11 -8 -13 -13
-5 -14 14 0 16 -46 2 -55 -15 -9 -12 -25 5 -25 13 0 14 -4 4 -22 -8 -14 -11
-55 -10 -108 4 -108 4 -126 -5 -173 -5 -30 -2 -45 13 -65 28 -38 43 -109 43
-199 0 -66 6 -93 36 -173 46 -121 64 -160 87 -186 10 -12 21 -34 26 -50 4 -17
21 -38 39 -49 20 -12 35 -31 39 -49 3 -16 18 -36 35 -46 16 -10 39 -36 50 -59
13 -26 47 -64 89 -97 37 -30 74 -66 83 -79 9 -14 24 -25 33 -25 9 0 51 -20 93
-44 42 -25 88 -48 102 -51 14 -4 41 -21 61 -40 27 -25 47 -34 88 -40 82 -11
116 -28 123 -63 7 -28 9 -29 83 -36 42 -3 231 -6 420 -6 370 0 413 5 413 49 0
22 -2 21 119 46 78 15 98 26 111 61 6 15 20 23 49 27 23 3 62 19 88 37 27 17
69 41 96 53 26 12 47 27 47 34 0 45 79 54 264 31 77 -10 100 -16 103 -29 5
-19 96 -41 160 -38 54 1 327 -19 349 -27 11 -4 30 -19 44 -34 l25 -28 232 -10
c235 -11 270 -17 302 -56 8 -9 26 -16 42 -16 16 0 48 -4 71 -10 24 -5 122 -13
218 -18 182 -9 204 -14 252 -60 24 -22 40 -26 125 -33 54 -4 135 -8 181 -9 72
0 95 -5 169 -36 88 -36 210 -58 266 -47 28 6 67 45 67 69 0 8 9 14 19 14 11 0
47 22 80 50 32 27 71 52 86 56 14 3 38 22 53 40 16 21 42 38 64 44 29 8 37 16
40 37 2 22 11 28 50 40 29 8 54 23 64 38 9 13 40 36 69 50 33 15 59 35 67 52
7 15 33 37 58 50 25 13 47 28 48 33 2 6 9 10 15 10 6 0 18 7 27 15 10 9 37 26
61 38 29 14 45 30 47 44 2 15 14 26 37 33 22 7 35 18 37 32 2 16 19 27 68 45
73 28 89 38 100 68 5 13 24 26 50 34 25 7 45 21 51 34 5 12 30 30 53 40 56 23
166 108 183 141 9 16 37 37 76 55 34 15 71 38 81 49 11 12 27 22 36 22 21 0
59 35 70 66 8 20 17 24 47 24 65 0 82 -9 93 -49 13 -48 13 -98 -1 -107 -7 -4
-9 -21 -4 -48 3 -22 5 -113 4 -201 -2 -88 -3 -200 -3 -250 0 -49 1 -199 2
-332 1 -147 -2 -252 -8 -269 -8 -19 -7 -44 1 -83 8 -38 9 -89 3 -156 -4 -55
-8 -197 -9 -315 -1 -118 -4 -334 -7 -480 -3 -146 -1 -287 4 -315 4 -27 9 -204
11 -392 2 -329 3 -343 23 -370 11 -15 33 -34 49 -42 43 -21 143 -25 198 -8 26
8 47 11 47 6 0 -13 117 -11 143 2 12 7 34 22 48 33 23 20 39 22 195 24 186 4
335 22 362 44 37 31 80 38 285 48 l212 11 29 35 c38 46 61 58 87 44 15 -8 65
-8 185 -1 161 11 167 12 231 47 l66 35 186 10 c180 9 186 10 206 34 27 33 94
45 261 45 139 0 188 9 178 34 -3 8 -1 17 4 20 15 9 306 34 334 29 43 -8 52 22
52 187 -1 80 0 161 0 180 3 121 -2 232 -11 241 -7 7 -95 11 -241 12 -225 2
-231 2 -259 -21 -43 -35 -70 -45 -90 -37 -10 5 -24 7 -31 6 -8 -1 -19 5 -26
15 -12 16 -14 15 -29 -6 -15 -22 -21 -23 -289 -32 -150 -5 -279 -11 -285 -13
-7 -3 -13 -14 -13 -26 0 -15 -4 -19 -16 -15 -8 3 -25 0 -37 -6 -16 -9 -133
-14 -407 -19 -384 -7 -440 -12 -530 -47 -34 -14 -72 -18 -155 -18 l-110 1 -16
68 c-9 37 -24 78 -33 92 -17 26 -24 322 -29 1355 -2 323 -3 348 -22 385 -16
31 -20 59 -19 127 0 52 -3 85 -9 81 -9 -5 -7 22 7 126 3 19 0 44 -6 55 -8 15
-7 22 6 32 16 11 16 14 0 46 -15 27 -19 72 -25 258 -5 126 -4 276 1 340 6 63
10 122 10 130 0 9 13 21 29 27 16 6 41 29 56 53 14 23 32 40 39 37 6 -3 20 1
31 9 10 8 27 14 37 14 11 0 15 5 12 14 -7 18 52 66 82 66 19 0 29 8 39 34 12
28 25 38 71 56 68 25 157 91 181 134 5 10 25 21 44 25 23 5 41 18 59 45 14 20
44 46 65 56 49 23 69 40 78 63 3 9 13 17 22 17 28 0 65 31 65 55 0 26 17 35
65 35 23 0 37 7 48 24 9 13 40 39 70 59 30 20 57 44 61 52 3 9 23 23 43 31 21
9 46 23 56 32 9 8 20 12 23 9 4 -4 15 5 26 18 10 13 34 30 53 36 28 10 36 20
41 46 7 38 15 45 64 53 27 4 36 11 38 28 4 27 34 48 85 56 26 5 40 14 46 29
11 29 32 46 66 56 39 10 61 75 58 171 -1 41 -5 165 -9 275 -3 110 -7 261 -8
335 -1 74 -6 143 -10 153 -5 10 0 52 14 106 l22 89 100 7 c96 6 101 8 116 35
22 39 43 47 147 55 51 5 118 18 154 31 49 18 68 21 78 12 19 -15 82 -19 105
-7 16 8 25 6 41 -9 13 -11 51 -25 91 -32 57 -11 75 -19 100 -45 17 -18 47 -41
66 -50 19 -9 71 -54 115 -99 44 -46 88 -86 98 -89 10 -4 23 -20 28 -36 6 -17
26 -39 45 -50 27 -16 34 -26 34 -52 0 -18 15 -60 35 -95 l34 -63 13 -228 c15
-264 16 -461 3 -692 l-8 -165 -34 -37 c-31 -34 -35 -46 -43 -126 -6 -51 -15
-92 -23 -98 -22 -17 -57 -81 -57 -105 0 -12 -13 -38 -30 -56 -16 -19 -36 -58
-45 -87 -8 -28 -31 -71 -49 -95 -20 -24 -37 -60 -41 -83 -5 -27 -16 -46 -34
-60 -23 -17 -30 -33 -41 -92 -18 -103 -24 -120 -45 -123 -31 -5 -43 -30 -50
-113 -7 -76 -11 -88 -60 -157 -19 -27 -20 -47 -23 -394 -5 -423 3 -519 42
-555 14 -13 26 -27 26 -30 0 -3 5 -39 11 -78 13 -87 30 -122 66 -139 18 -8 29
-24 34 -44 8 -42 17 -54 38 -54 12 0 22 -13 30 -39 6 -22 22 -48 35 -58 13
-10 27 -29 30 -41 4 -13 25 -34 46 -49 22 -14 42 -33 45 -42 3 -10 22 -27 43
-39 20 -11 52 -34 70 -51 18 -17 48 -33 67 -36 19 -3 51 -7 70 -10 22 -4 41
-15 51 -29 18 -28 37 -32 254 -48 139 -10 161 -10 225 7 38 9 76 22 84 28 22
19 83 37 141 43 82 8 100 13 100 27 0 8 10 23 23 35 19 18 35 22 95 22 68 0
72 1 86 29 21 40 58 61 108 61 51 1 76 14 112 56 14 18 37 35 51 38 18 5 27
15 32 37 7 34 25 45 95 54 37 5 51 13 72 39 14 19 53 61 87 95 l62 62 4 97 c5
120 1 134 -37 149 -22 8 -28 16 -24 28 4 9 2 26 -4 38 -6 12 -18 39 -26 60 -9
21 -22 37 -31 37 -9 0 -25 16 -36 35 -25 43 -49 45 -72 6 -9 -16 -31 -35 -47
-43 -19 -8 -32 -22 -35 -40 -4 -16 -20 -35 -41 -47 -19 -11 -37 -29 -40 -38
-13 -41 -21 -48 -57 -45 -33 3 -37 1 -45 -30 -8 -31 -13 -34 -73 -48 -81 -19
-89 -25 -89 -60 0 -26 -3 -29 -52 -35 -81 -10 -125 -24 -132 -40 -3 -8 -12
-15 -21 -15 -9 0 -26 -7 -38 -15 -15 -9 -62 -17 -127 -21 -89 -5 -111 -10
-142 -31 -27 -18 -45 -24 -64 -19 -17 5 -23 3 -19 -4 13 -22 -15 -9 -30 14
-19 28 -61 42 -81 25 -8 -6 -26 -9 -41 -6 -16 3 -53 11 -83 18 -30 6 -75 12
-100 13 -56 1 -66 8 -80 51 -8 25 -18 35 -37 37 -14 2 -30 10 -34 18 -102 194
-111 236 -89 450 12 127 19 160 42 191 12 16 26 67 38 135 19 113 41 179 61
186 7 2 18 44 25 94 9 60 19 93 30 101 9 7 18 22 20 35 9 60 28 118 62 185 28
57 34 77 26 90 -8 13 -5 25 13 51 13 19 23 41 23 48 0 7 8 15 18 18 20 7 52
59 52 85 0 10 10 26 21 37 26 23 58 90 59 121 0 13 11 30 25 39 26 17 36 43
59 168 12 59 22 84 41 102 14 13 25 26 25 29 0 3 9 59 21 123 15 89 27 129 51
167 l30 50 -6 240 c-4 132 -7 289 -8 348 -1 73 -5 110 -13 115 -27 16 -47 77
-54 170 -8 96 -18 128 -61 182 -11 14 -25 54 -32 90 -11 54 -17 66 -34 68 -17
2 -27 18 -44 65 -12 34 -33 76 -46 94 -13 17 -28 43 -34 58 -6 15 -22 30 -40
37 -18 6 -37 23 -47 42 -23 45 -128 147 -146 141 -9 -4 -17 5 -23 27 -6 22
-20 38 -39 47 -17 7 -41 23 -55 36 -34 30 -89 61 -122 69 -18 4 -30 15 -34 30
-6 24 -41 46 -74 46 -10 0 -21 4 -24 9 -3 4 -25 11 -49 13 -24 3 -56 12 -73
21 -100 55 -74 52 -440 52 l-342 0 -40 -32 c-31 -25 -51 -33 -82 -33 -50 0
-130 -19 -130 -31 0 -12 -42 -49 -50 -44 -12 7 -30 86 -39 170 -5 44 -20 107
-32 140 -22 57 -23 78 -30 425 -7 368 -12 428 -42 471 -10 13 -17 29 -17 37 0
7 -9 32 -20 54 -11 23 -20 47 -20 54 0 18 -17 27 -32 17 -20 -12 -216 -3 -267
13 -25 8 -65 14 -89 14 -34 0 -48 6 -67 26 -14 15 -25 31 -25 35 0 5 -46 9
-102 9 -241 1 -391 21 -533 72 -32 12 -191 28 -264 27 -24 0 -95 5 -158 11
-88 9 -119 16 -133 30 -10 10 -35 22 -55 26 -19 3 -38 11 -41 16 -4 7 -9 6
-14 -1 -5 -9 -19 -9 -51 -2 -24 5 -118 13 -209 17 -168 7 -276 26 -342 60 -27
14 -68 17 -238 20 -113 1 -216 0 -230 -3z m285 -337 c162 -6 266 -23 309 -51
20 -13 30 -15 38 -7 8 8 18 7 37 -3 14 -7 46 -16 71 -20 60 -9 322 -26 386
-25 42 1 55 -4 80 -28 34 -32 22 -31 421 -51 122 -6 157 -11 171 -25 11 -9 26
-14 36 -10 11 4 16 1 16 -10 0 -24 32 -32 145 -40 176 -11 195 -15 195 -41 0
-27 -13 -38 -60 -54 -19 -6 -48 -24 -65 -40 -16 -16 -52 -36 -80 -45 -27 -9
-63 -30 -81 -47 -22 -21 -50 -35 -95 -45 -49 -11 -69 -22 -87 -44 -18 -23 -36
-32 -83 -41 -61 -12 -89 -29 -89 -55 0 -9 -11 -14 -30 -14 -42 0 -106 -28
-123 -54 -11 -16 -37 -28 -92 -41 -60 -15 -81 -25 -94 -45 -20 -32 -31 -40
-57 -40 -29 0 -73 -24 -90 -49 -9 -12 -42 -29 -83 -41 -56 -16 -70 -25 -75
-44 -5 -20 -17 -27 -71 -39 -44 -10 -76 -25 -99 -45 -19 -17 -48 -33 -65 -36
-17 -3 -44 -9 -60 -12 -21 -4 -32 -14 -40 -34 -7 -22 -19 -31 -53 -40 -56 -16
-88 -30 -113 -51 -11 -9 -44 -24 -73 -33 -30 -8 -70 -29 -89 -46 -39 -34 -51
-40 -133 -64 -38 -11 -59 -23 -65 -38 -7 -16 -26 -26 -65 -36 -30 -7 -70 -25
-88 -39 -18 -14 -48 -29 -66 -34 -19 -5 -50 -22 -70 -39 -34 -27 -89 -49 -159
-65 -24 -5 -27 -8 -17 -20 10 -12 6 -18 -23 -30 -20 -8 -43 -15 -50 -15 -8 0
-30 -11 -50 -24 -19 -13 -44 -27 -55 -30 -11 -4 -26 -13 -32 -21 -7 -8 -24
-15 -38 -15 -35 0 -92 -22 -92 -35 0 -23 -46 -53 -107 -71 -44 -13 -63 -23
-63 -35 0 -18 -57 -45 -114 -53 -23 -3 -57 -19 -84 -41 -29 -22 -56 -35 -75
-35 -22 0 -40 -11 -68 -40 l-38 -40 -198 0 c-263 0 -400 13 -468 45 -28 14
-63 25 -76 25 -13 0 -40 4 -59 9 -19 6 -111 12 -205 16 -321 11 -437 21 -451
39 -10 14 -16 15 -38 5 -20 -9 -29 -9 -41 1 -24 20 -177 35 -600 58 -129 8
-169 13 -205 30 -27 13 -65 22 -95 22 -28 0 -56 5 -63 12 -9 9 -86 15 -252 20
-136 4 -249 12 -260 18 -41 22 -10 80 44 80 45 0 107 24 119 46 15 29 38 44
69 44 39 0 89 22 120 53 21 21 38 26 106 32 68 6 82 10 87 26 10 30 45 48 110
55 75 9 105 19 105 38 0 24 41 46 85 46 77 0 114 11 117 34 4 26 81 55 151 56
41 0 49 3 57 24 14 38 54 58 126 64 57 4 67 8 74 28 12 31 42 45 130 60 61 11
80 19 100 42 20 23 39 31 95 41 54 9 77 19 100 41 25 25 44 31 110 41 66 9 85
16 117 44 37 31 74 45 123 45 13 0 36 16 57 39 31 34 42 40 94 46 77 10 95 17
129 54 24 25 39 31 94 37 73 7 88 13 126 48 17 16 49 28 92 36 43 9 75 21 89
35 29 29 76 45 130 45 37 0 51 6 85 38 35 31 54 39 113 49 61 10 75 16 101 46
27 32 37 36 100 42 78 8 105 19 105 40 0 20 27 32 93 40 45 6 70 16 105 43 39
30 59 37 115 43 93 11 109 17 102 39 -6 20 22 32 100 45 74 11 103 25 109 50
5 21 13 24 73 30 79 7 113 19 113 39 0 7 6 19 13 25 16 13 111 29 147 25 14
-2 93 -5 175 -8z m2300 -630 c18 -13 20 -34 27 -283 4 -147 10 -335 14 -418 6
-140 8 -151 30 -170 23 -20 23 -20 34 -420 15 -546 21 -618 48 -655 24 -31 32
-120 11 -120 -6 0 -9 -6 -6 -12 2 -7 -5 -26 -17 -43 -11 -16 -21 -36 -21 -44
0 -16 -18 -27 -56 -35 -17 -4 -31 -16 -39 -36 -9 -21 -27 -36 -57 -50 -26 -11
-47 -28 -50 -40 -4 -14 -21 -24 -62 -35 -74 -21 -85 -28 -89 -54 -2 -14 -16
-28 -35 -36 -18 -7 -42 -25 -55 -40 -12 -14 -43 -35 -68 -46 -26 -10 -60 -34
-76 -52 -17 -17 -44 -37 -61 -43 -22 -7 -33 -19 -39 -41 -9 -33 -46 -53 -99
-53 -20 0 -32 -8 -47 -33 -12 -22 -31 -37 -53 -43 -24 -7 -38 -19 -48 -42 -11
-24 -23 -33 -49 -38 -20 -4 -55 -25 -83 -50 -28 -24 -55 -44 -62 -44 -7 0 -28
-18 -48 -41 -20 -23 -44 -43 -55 -44 -32 -2 -62 -24 -66 -47 -2 -17 -18 -28
-65 -46 -48 -18 -64 -29 -71 -51 -8 -22 -19 -30 -46 -35 -20 -4 -36 -13 -36
-20 0 -28 -99 -90 -126 -79 -9 3 -18 -5 -25 -26 -8 -23 -23 -37 -54 -51 -24
-11 -45 -28 -48 -40 -3 -11 -23 -28 -49 -39 -23 -10 -52 -28 -62 -40 -11 -11
-27 -21 -37 -21 -10 0 -21 -5 -25 -11 -3 -6 -21 -17 -39 -25 -23 -9 -34 -21
-38 -44 -5 -24 -13 -32 -37 -36 -19 -4 -37 -17 -47 -35 -11 -18 -40 -38 -86
-58 -43 -19 -71 -38 -74 -50 -5 -20 -42 -41 -74 -41 -11 0 -22 -8 -26 -17 -13
-38 -76 -83 -120 -87 -6 -1 -21 -13 -33 -29 -12 -15 -37 -34 -56 -42 -19 -8
-34 -20 -34 -28 0 -19 -40 -53 -71 -60 -14 -4 -31 -18 -39 -32 -13 -25 -71
-58 -123 -71 -17 -4 -29 -15 -33 -30 -4 -14 -20 -32 -38 -41 -17 -8 -49 -30
-71 -48 -50 -40 -78 -55 -103 -55 -11 0 -24 -12 -33 -32 -10 -23 -25 -35 -54
-45 -32 -11 -43 -21 -57 -53 -13 -31 -22 -40 -41 -40 -14 0 -30 -7 -37 -15 -7
-8 -18 -15 -24 -15 -7 0 -23 -12 -37 -26 -13 -14 -41 -35 -61 -47 -21 -11 -40
-28 -43 -37 -3 -10 -24 -25 -46 -35 -22 -10 -44 -26 -49 -36 -6 -9 -30 -25
-55 -35 -36 -13 -51 -15 -70 -6 -26 12 -45 48 -45 83 0 11 -12 46 -27 76 -25
54 -26 60 -14 116 9 45 9 66 0 95 -9 28 -9 37 0 40 9 3 10 34 5 123 -5 93 -4
126 7 145 12 23 11 28 -3 38 -13 10 -15 20 -7 60 5 29 5 84 -1 139 -5 51 -10
181 -10 290 0 109 -4 206 -9 215 -6 11 -6 37 0 65 10 56 10 66 7 572 -3 329
-5 385 -20 415 -22 47 -32 160 -17 197 6 15 15 37 19 48 5 11 11 36 14 54 8
45 32 81 54 81 9 0 41 16 71 35 30 19 73 37 96 41 35 5 45 11 58 40 11 22 26
36 44 40 66 14 92 26 117 54 18 21 36 30 56 30 36 0 78 25 113 66 14 17 44 36
65 42 22 7 45 19 52 27 7 8 40 28 74 44 33 16 69 38 78 50 10 12 40 25 78 33
49 10 65 18 86 45 15 20 30 30 40 26 8 -3 22 1 32 10 9 8 32 18 50 22 21 4 36
15 41 29 6 15 28 28 80 44 55 18 71 27 71 42 0 27 39 50 97 58 43 7 50 11 66
45 9 20 23 37 30 38 6 1 31 2 54 3 32 2 48 9 70 33 16 17 48 36 71 42 26 7 43
19 47 31 8 25 30 37 93 51 37 7 61 21 96 55 32 30 55 44 74 44 33 0 45 8 61
37 8 15 31 28 74 41 50 15 63 22 65 41 4 24 53 51 92 51 29 0 93 35 107 58 7
11 26 23 42 27 17 3 41 19 53 33 13 15 42 33 66 40 24 7 60 28 80 46 25 22 56
37 95 45 47 10 60 18 72 41 12 22 30 33 87 52 58 18 74 27 76 45 3 21 29 36
87 49 17 4 35 15 42 24 6 8 37 29 70 45 32 16 64 38 72 48 16 23 87 56 118 57
12 0 30 12 40 26 30 41 179 69 218 40z m1209 -847 c7 11 38 5 83 -15 17 -8 81
-18 141 -23 111 -9 147 -20 170 -53 7 -10 31 -27 53 -39 22 -11 42 -26 45 -34
7 -16 99 -85 114 -85 6 0 10 -4 10 -10 0 -14 -53 -60 -70 -60 -31 0 -122 50
-127 70 -6 23 -19 26 -115 34 -77 6 -117 23 -143 62 l-17 27 -127 -7 c-69 -4
-152 -11 -183 -15 -52 -7 -60 -5 -78 14 -28 30 -27 73 3 79 12 3 47 10 77 16
30 6 71 19 90 30 24 12 40 15 52 9 10 -5 19 -5 22 0z m-254 -134 c0 -18 -33
-65 -45 -65 -14 0 -45 26 -45 39 0 17 26 31 57 31 18 0 33 -2 33 -5z m868
-212 c2 -8 -5 -13 -17 -13 -21 0 -35 13 -24 24 10 10 36 3 41 -11z m-8923
-512 c28 -4 49 -12 48 -18 -1 -6 3 -16 10 -22 13 -10 450 -41 590 -41 42 0 77
-4 77 -8 0 -5 14 -18 30 -30 27 -20 49 -24 218 -33 103 -6 212 -13 242 -15 30
-1 84 -5 120 -7 36 -2 80 -12 100 -22 51 -26 142 -42 360 -60 152 -13 211 -22
268 -42 39 -14 79 -22 87 -19 23 8 223 -32 273 -54 41 -19 69 -19 57 0 -13 21
90 27 174 9 39 -8 50 -15 53 -32 3 -19 13 -23 83 -34 44 -7 105 -15 135 -18
30 -3 61 -9 68 -14 26 -16 31 -277 21 -1141 -8 -625 -8 -893 1 -995 6 -77 12
-179 14 -226 1 -47 6 -90 9 -96 4 -6 2 -13 -4 -15 -6 -2 -11 -56 -13 -148 -4
-185 -8 -197 -78 -202 -55 -4 -84 3 -130 34 -17 12 -29 15 -33 8 -9 -15 -36
-12 -49 5 -15 21 -111 35 -246 35 -127 1 -305 15 -323 27 -7 4 -21 9 -32 10
-96 9 -130 19 -133 38 -3 19 -12 20 -255 23 -211 2 -259 5 -294 20 -24 9 -43
23 -43 30 0 14 -16 16 -25 2 -6 -10 -33 -3 -55 16 -8 7 -62 15 -122 19 -126 9
-144 17 -128 60 13 34 26 45 57 45 13 0 30 11 38 24 9 13 36 34 61 47 29 16
54 39 70 67 21 36 30 42 57 42 18 0 42 7 54 15 12 8 32 14 45 13 17 -2 24 3
26 20 2 13 10 22 20 22 43 0 212 132 212 165 0 8 16 26 35 41 19 14 35 30 35
34 0 19 81 129 100 135 11 3 20 12 20 19 0 15 49 116 66 137 15 17 34 136 36
222 1 41 7 65 20 82 16 21 17 31 9 85 -6 33 -13 66 -18 73 -4 6 -8 87 -9 179
l-1 167 -27 23 c-20 17 -31 42 -43 93 -8 39 -24 82 -34 97 -11 14 -19 33 -19
41 0 8 -9 17 -20 20 -13 3 -20 14 -20 30 0 18 -10 31 -35 46 -19 11 -35 27
-35 35 0 8 -15 34 -34 59 -19 24 -37 53 -40 64 -4 12 -22 25 -46 32 -24 7 -41
19 -45 32 -4 11 -19 25 -33 31 -15 7 -45 29 -67 50 -30 28 -59 43 -108 57 -37
10 -84 30 -105 45 -42 28 -116 46 -198 46 -64 0 -100 13 -137 48 -27 26 -33
27 -175 33 l-147 6 -30 -27 c-39 -36 -79 -47 -195 -55 -81 -5 -102 -10 -140
-34 -62 -39 -78 -43 -210 -50 l-115 -6 -3 -27 c-2 -20 -9 -28 -23 -28 -11 0
-28 -5 -38 -12 -29 -18 -92 1 -109 32 -9 18 -12 69 -10 195 2 94 0 175 -4 181
-4 6 -3 26 1 45 5 19 14 80 21 136 l13 102 76 -5 c42 -4 99 -9 126 -13z m9427
-698 c16 -15 18 -36 18 -254 0 -203 -2 -240 -16 -253 -8 -9 -21 -16 -29 -16
-17 0 -23 -19 -35 -99 -5 -36 -14 -67 -21 -70 -14 -4 -59 -100 -59 -127 0 -11
-10 -29 -21 -40 -12 -10 -31 -39 -42 -64 -31 -71 -55 -100 -83 -100 -30 0 -54
41 -36 63 6 7 16 35 22 62 15 70 30 105 46 105 15 0 20 15 39 116 17 96 39
160 54 157 14 -4 19 22 26 155 7 121 17 158 47 167 21 7 21 8 8 56 -8 28 -7
43 5 65 8 16 15 41 15 55 0 43 28 53 62 22z m-8524 -19 c12 -8 20 -19 17 -24
-7 -12 21 -26 70 -34 22 -4 64 -24 92 -43 42 -29 62 -36 94 -35 22 1 45 4 49
7 13 8 78 -34 85 -56 4 -12 -2 -29 -14 -45 -12 -15 -21 -37 -21 -50 0 -28 30
-37 158 -52 89 -10 112 -22 112 -57 0 -12 9 -30 20 -40 12 -11 20 -28 18 -39
-3 -18 -10 -21 -58 -21 -30 0 -61 -4 -67 -8 -19 -12 -16 -76 2 -84 40 -15 45
-62 44 -387 0 -320 -6 -377 -40 -384 -27 -5 -47 24 -54 80 -9 66 -28 121 -56
159 -20 29 -22 45 -25 237 -4 244 -8 273 -40 301 -13 11 -24 29 -24 40 0 24
-65 31 -306 31 -167 0 -186 -2 -203 -19 -10 -10 -21 -25 -25 -32 -4 -10 -8
-10 -11 -3 -4 7 -23 10 -50 6 -41 -4 -45 -3 -45 17 0 14 6 21 20 21 28 0 62
33 54 53 -9 25 30 38 142 46 79 6 108 12 124 26 25 23 25 37 1 59 -14 13 -29
16 -62 11 -24 -4 -87 -8 -140 -8 -79 -2 -101 -5 -117 -20 -11 -11 -18 -25 -16
-32 7 -19 -28 -25 -147 -25 -73 0 -111 4 -124 14 -17 13 -16 15 21 39 21 14
59 31 83 37 29 8 45 18 48 31 3 11 10 18 17 17 6 -1 20 3 32 9 12 7 69 15 128
19 l106 7 35 38 c29 32 34 44 29 71 -8 53 -27 108 -36 108 -18 0 -7 19 15 23
39 8 42 7 65 -9z m-1752 -169 c7 -17 45 -20 60 -5 6 6 27 8 50 4 l40 -6 -1
-51 c0 -52 0 -52 -34 -55 -19 -2 -43 -9 -55 -17 -12 -7 -52 -15 -90 -18 -64
-5 -71 -7 -108 -45 -30 -32 -50 -43 -85 -48 -25 -4 -52 -14 -59 -23 -60 -70
-63 -72 -94 -41 -32 32 -25 69 24 123 24 26 52 47 61 47 10 0 34 19 55 41 37
41 40 42 114 47 71 4 76 6 76 27 0 32 36 47 46 20z m403 -246 c25 -9 31 -16
28 -30 -7 -27 15 -35 103 -42 76 -5 74 -4 280 -106 8 -4 24 -22 35 -39 12 -18
32 -33 50 -37 53 -12 96 -37 110 -65 9 -17 25 -30 43 -33 23 -5 33 -15 46 -47
9 -22 16 -47 16 -56 0 -8 21 -35 46 -59 26 -24 43 -48 40 -53 -4 -6 7 -26 23
-44 22 -25 31 -50 39 -101 12 -73 33 -117 57 -117 8 0 14 -8 13 -17 -1 -10 1
-47 5 -83 4 -36 4 -199 -1 -362 l-8 -298 -29 -30 c-28 -29 -53 -83 -59 -127
-5 -34 -59 -133 -73 -133 -7 0 -43 -36 -80 -79 -56 -67 -74 -82 -120 -97 -36
-12 -53 -24 -53 -35 0 -23 -21 -38 -61 -45 -94 -15 -118 -25 -121 -53 -3 -22
-10 -28 -53 -38 -27 -6 -90 -12 -140 -12 -59 -1 -100 -6 -119 -16 -15 -8 -40
-15 -54 -15 -13 0 -30 -8 -37 -17 -11 -14 -18 -15 -56 -4 -39 10 -56 10 -94 0
-10 -2 -72 8 -109 18 -14 4 -15 7 -6 13 14 9 -24 15 -148 25 -90 7 -137 25
-178 70 -19 21 -42 35 -55 35 -33 1 -103 27 -107 40 -7 19 -45 50 -62 50 -9 0
-29 18 -46 40 -16 22 -35 40 -43 40 -20 0 -51 30 -51 50 0 9 -14 29 -31 46
-16 16 -39 49 -50 73 -11 25 -32 61 -47 80 -23 31 -28 47 -31 116 -2 44 -6 82
-10 85 -3 3 -17 25 -30 49 -23 43 -23 44 -19 304 l4 260 27 21 c15 12 27 28
27 36 0 8 10 39 22 68 18 43 20 58 11 82 -12 32 5 69 55 118 16 15 27 33 25
39 -5 14 42 109 60 120 7 4 23 22 35 40 13 17 31 34 40 37 10 4 24 22 31 41 7
20 24 41 39 49 15 8 41 30 59 49 26 28 43 37 98 47 38 7 62 16 55 20 -8 5 -1
16 21 33 25 18 55 28 116 36 61 8 93 18 129 41 l48 30 156 0 c91 0 171 -5 189
-11z m1082 -1505 c8 -10 26 -50 40 -90 25 -71 25 -74 7 -86 -15 -10 -22 -38
-35 -129 -16 -115 -17 -117 -47 -130 -34 -15 -43 -39 -45 -111 -1 -47 -1 -48
-54 -72 -32 -16 -59 -37 -71 -57 -22 -38 -70 -59 -132 -59 -49 0 -84 20 -84
48 0 8 38 52 85 97 47 45 85 86 85 91 0 5 21 27 46 49 29 25 47 50 49 66 2 14
14 44 27 65 37 60 41 72 47 181 6 89 10 106 31 128 28 29 33 30 51 9z m8213
-849 c3 -9 23 -23 43 -32 44 -18 131 -95 153 -135 10 -18 38 -39 78 -58 45
-21 62 -34 62 -49 0 -28 59 -36 265 -36 171 1 230 11 220 37 -9 22 46 38 131
38 l83 0 -6 34 c-6 41 4 49 71 52 66 2 88 -10 84 -44 -3 -24 -9 -28 -53 -34
-91 -15 -95 -17 -95 -43 0 -26 -17 -37 -75 -50 -16 -4 -46 -24 -66 -46 -34
-37 -43 -41 -111 -50 -78 -11 -84 -14 -102 -51 -22 -45 -170 -56 -293 -21 -34
9 -53 20 -53 30 0 8 -6 13 -12 10 -7 -2 -26 7 -41 19 -17 15 -42 24 -62 24
-52 0 -95 11 -95 25 0 8 -21 31 -46 53 -44 38 -46 42 -54 110 -6 55 -14 78
-34 102 -30 37 -41 70 -32 105 7 28 31 33 40 10z m-3254 -547 c4 -49 11 -571
10 -713 -2 -127 1 -160 18 -210 15 -43 23 -107 30 -228 11 -183 21 -217 67
-217 28 0 111 -37 139 -62 26 -24 56 -32 68 -20 6 6 19 1 36 -15 23 -21 24
-25 10 -39 -9 -9 -35 -18 -59 -19 -236 -18 -365 -25 -383 -19 -23 7 -67 50
-59 57 2 3 -1 14 -8 24 -9 16 -8 39 5 112 11 58 14 97 8 104 -5 7 -10 29 -10
51 -1 21 -4 47 -8 58 -3 11 1 27 9 36 21 24 31 293 12 319 -7 10 -11 31 -8 49
3 18 0 34 -6 38 -14 9 -15 53 -1 61 16 10 12 140 -6 185 -25 62 -16 182 19
245 15 26 27 60 27 75 0 41 21 92 49 122 32 33 38 34 41 6z m2400 -1199 c33
-10 37 -15 36 -42 -2 -39 -21 -45 -181 -53 -66 -3 -138 -12 -160 -19 -22 -8
-71 -18 -108 -24 -38 -5 -75 -15 -83 -22 -9 -7 -75 -15 -162 -20 -274 -16
-342 -25 -367 -49 -30 -28 -98 -25 -104 4 -4 25 24 46 62 46 25 0 28 3 25 29
-3 37 16 59 61 67 20 4 47 11 61 17 14 6 53 9 88 8 39 -2 62 1 62 8 0 23 53
44 128 51 128 12 600 11 642 -1z"/>
<path d="M6608 8248 c-16 -5 -28 -16 -28 -24 0 -18 -51 -44 -88 -44 -41 0 -70
-24 -56 -47 16 -26 106 -38 144 -18 20 11 30 11 32 3 6 -16 28 0 28 20 0 11
19 26 50 41 59 28 61 30 53 59 -5 19 -12 22 -57 21 -28 0 -63 -5 -78 -11z"/>
<path d="M6245 8076 c-26 -19 -10 -37 36 -39 30 -2 34 1 34 23 0 19 -6 26 -25
28 -14 2 -34 -4 -45 -12z"/>
<path d="M6677 8083 c-4 -3 -7 -14 -7 -23 0 -24 -41 -40 -126 -47 -73 -6 -75
-7 -89 -39 -13 -31 -16 -32 -82 -39 -113 -10 -131 -15 -138 -34 -10 -34 -42
-52 -111 -63 -75 -11 -138 -38 -147 -63 -4 -9 -19 -15 -38 -15 -51 0 -134 -29
-159 -55 -15 -16 -39 -27 -69 -31 -25 -4 -50 -10 -56 -13 -5 -4 -21 -8 -34 -9
-14 0 -34 -13 -45 -27 -18 -22 -33 -28 -100 -36 -90 -11 -94 -13 -106 -43 -6
-18 -23 -25 -96 -39 -71 -13 -93 -22 -118 -46 -39 -38 -94 -61 -144 -61 -23 0
-45 -6 -52 -15 -7 -8 -18 -15 -25 -15 -6 0 -20 -9 -29 -19 -13 -14 -35 -20
-87 -23 -63 -3 -73 -7 -100 -36 -16 -18 -33 -32 -37 -32 -10 0 -133 -19 -165
-26 -20 -4 -32 -15 -39 -35 -5 -16 -15 -29 -21 -29 -71 -1 -139 -21 -181 -53
-39 -30 -57 -37 -116 -43 -55 -5 -71 -10 -75 -25 -7 -21 -92 -55 -164 -65 -39
-5 -51 -11 -51 -24 0 -9 -12 -23 -27 -30 -37 -17 -188 -50 -229 -50 -21 0 -38
-7 -47 -20 -16 -24 -58 -40 -101 -40 -38 0 -59 -19 -50 -44 9 -23 65 -35 225
-46 79 -5 145 -10 146 -10 1 0 10 -9 20 -19 14 -15 36 -20 98 -24 44 -3 105
-9 135 -15 30 -6 193 -15 362 -21 168 -6 314 -14 325 -18 10 -4 30 -15 45 -26
23 -17 48 -20 177 -24 l151 -4 31 36 c17 19 38 35 45 35 8 0 30 16 49 34 27
27 48 38 95 47 43 8 66 19 79 35 11 13 28 24 38 24 11 0 23 3 27 7 4 5 26 12
49 18 35 8 43 15 47 39 4 26 11 31 55 43 28 7 62 13 77 13 17 0 33 8 40 21 16
26 83 59 119 59 20 0 32 9 47 34 17 29 29 36 76 47 31 7 70 22 88 33 68 45 86
54 119 61 41 9 58 22 70 52 7 19 16 23 52 23 34 0 53 7 81 29 21 17 54 35 74
41 75 23 112 43 112 61 0 20 12 25 85 35 40 5 60 16 99 51 30 27 67 49 94 56
26 7 47 19 49 28 6 20 38 36 90 44 76 12 83 15 83 34 0 27 18 38 88 52 51 9
65 16 72 35 11 29 33 40 96 49 42 5 59 14 90 46 21 21 44 39 52 39 22 0 72 30
72 43 0 8 -17 23 -39 35 -33 19 -54 22 -144 22 -118 0 -206 15 -214 36 -3 8
-13 14 -22 14 -9 0 -34 6 -56 14 -22 7 -85 17 -140 20 -120 9 -145 14 -145 32
0 29 -82 59 -103 37z"/>
<path d="M7663 7993 c-12 -2 -27 -10 -33 -18 -15 -18 19 -40 75 -49 61 -10 93
-26 99 -49 7 -28 1 -36 -50 -57 -46 -20 -53 -34 -30 -65 20 -28 123 -16 151
18 28 34 54 46 119 53 60 7 88 26 68 46 -7 7 -12 19 -12 28 0 21 -82 74 -135
89 -38 10 -205 13 -252 4z"/>
<path d="M7688 7744 c-3 -3 -28 -8 -55 -12 -45 -7 -48 -9 -51 -40 -3 -32 -3
-32 43 -32 79 0 132 41 96 74 -19 17 -25 19 -33 10z"/>
<path d="M7476 7624 c-9 -22 1 -34 28 -34 27 0 51 24 41 40 -10 16 -62 12 -69
-6z"/>
<path d="M3462 6978 c-30 -30 -1 -68 53 -68 32 0 55 41 35 65 -15 18 -71 20
-88 3z"/>
<path d="M3555 6900 c-3 -5 -1 -10 4 -10 6 0 11 5 11 10 0 6 -2 10 -4 10 -3 0
-8 -4 -11 -10z"/>
<path d="M3257 6883 c-13 -12 -7 -32 13 -43 30 -16 60 -3 60 26 0 21 -5 24
-33 24 -19 0 -37 -3 -40 -7z"/>
<path d="M3345 6869 c-11 -17 1 -21 15 -4 8 9 8 15 2 15 -6 0 -14 -5 -17 -11z"/>
<path d="M3027 6775 c-29 -29 -44 -35 -79 -36 -76 -1 -108 -18 -140 -77 -16
-29 -26 -57 -23 -61 8 -13 219 -33 269 -26 74 11 84 39 24 69 -18 9 -23 20
-23 51 0 39 1 40 47 52 25 6 54 15 63 20 29 16 -8 43 -59 43 -36 0 -49 -6 -79
-35z"/>
<path d="M4681 6438 c-80 -30 -27 -53 145 -64 l112 -7 17 27 c10 14 24 26 33
26 12 0 13 3 5 11 -17 17 -270 22 -312 7z"/>
<path d="M5048 6438 c-34 -12 -36 -31 -6 -52 28 -20 70 -20 123 -2 48 17 53
29 23 50 -25 18 -97 20 -140 4z"/>
<path d="M8825 7284 c-88 -21 -87 -21 -75 -44 7 -13 25 -22 51 -26 72 -12 79
-24 86 -157 5 -103 9 -120 26 -132 18 -13 23 -13 39 2 15 13 18 32 18 108 0
59 -4 95 -12 103 -10 10 -10 15 1 21 18 11 9 120 -11 132 -18 12 -52 9 -123
-7z"/>
<path d="M8633 6988 c-21 -32 -38 -45 -66 -51 -21 -5 -51 -23 -69 -43 -18 -19
-42 -34 -53 -34 -38 -1 -100 -29 -118 -55 -12 -16 -28 -25 -47 -25 -15 0 -33
-7 -40 -15 -6 -8 -50 -32 -96 -55 -60 -29 -88 -49 -99 -69 -12 -24 -23 -30
-66 -36 -39 -5 -61 -16 -91 -43 -30 -27 -49 -36 -88 -40 -50 -5 -90 -30 -90
-57 0 -8 -19 -23 -42 -33 -24 -10 -49 -26 -57 -35 -7 -10 -19 -17 -27 -17 -7
0 -17 -7 -22 -17 -6 -10 -30 -19 -68 -24 -51 -7 -63 -13 -87 -43 -20 -25 -40
-37 -65 -42 -40 -7 -87 -32 -78 -41 8 -9 -61 -43 -86 -43 -32 0 -45 -11 -49
-40 -3 -21 -11 -26 -44 -31 -55 -8 -107 -33 -141 -67 -16 -15 -48 -33 -70 -40
-23 -7 -53 -24 -67 -38 -15 -15 -48 -38 -74 -52 -27 -14 -61 -35 -78 -48 -32
-24 -108 -54 -137 -54 -11 0 -18 -8 -18 -19 0 -26 -21 -41 -67 -48 -23 -3 -51
-18 -70 -36 -23 -21 -50 -34 -90 -42 -52 -10 -58 -14 -65 -42 -9 -33 -46 -54
-120 -67 -20 -4 -39 -13 -42 -21 -6 -18 -78 -55 -106 -55 -12 0 -32 -11 -46
-25 l-25 -25 4 -203 c4 -208 22 -365 53 -447 14 -38 17 -96 19 -380 2 -371 11
-460 51 -497 13 -12 24 -29 24 -37 0 -38 65 -63 77 -28 9 24 54 72 70 72 7 0
26 15 43 34 20 21 45 37 68 41 20 4 54 23 79 45 24 20 55 40 71 43 15 3 49 24
75 47 26 23 63 46 83 51 26 8 38 18 46 40 11 31 35 49 65 49 10 0 40 18 67 40
26 22 57 40 67 40 12 0 28 14 40 34 16 28 30 37 71 46 35 9 52 18 55 31 3 11
11 19 18 19 6 0 20 8 29 19 9 10 30 21 46 25 21 4 33 15 42 37 13 31 68 61
111 60 10 0 17 8 17 19 0 22 45 60 72 60 19 0 61 23 87 48 7 7 30 21 51 32 22
11 51 36 66 55 17 22 35 35 49 35 38 0 55 11 55 35 0 23 45 55 77 55 8 0 30
16 50 35 20 20 48 38 62 41 47 10 52 14 67 49 8 20 18 34 23 31 4 -3 25 4 47
14 21 11 45 20 54 20 8 0 22 15 30 33 9 19 25 34 39 37 13 3 27 12 31 20 22
48 29 55 56 58 71 6 104 22 119 57 12 31 18 35 52 35 31 0 43 6 66 35 19 24
41 38 72 46 50 13 62 23 67 59 2 20 10 26 34 28 21 2 45 17 75 48 25 26 52 44
65 44 35 0 55 11 64 36 5 13 28 35 51 50 l42 26 -5 197 c-4 183 -6 200 -28
246 -14 28 -23 55 -21 60 1 6 4 39 6 75 2 47 -3 74 -15 95 -14 26 -17 68 -19
314 -1 156 -4 288 -7 292 -3 5 -34 9 -69 9 l-64 0 -28 -42z m-448 -688 c0 -23
-5 -26 -57 -34 -62 -10 -88 0 -88 34 0 27 11 31 80 28 62 -3 65 -4 65 -28z
m-177 -52 c16 -16 15 -55 0 -64 -7 -4 -35 -13 -63 -19 -39 -9 -51 -16 -53 -32
-4 -28 -17 -37 -78 -57 -28 -9 -60 -27 -71 -40 -11 -12 -41 -33 -67 -46 -27
-13 -51 -32 -56 -45 -7 -17 -24 -28 -67 -40 -35 -10 -71 -29 -90 -47 -22 -22
-49 -34 -90 -42 -47 -10 -60 -17 -71 -39 -10 -21 -23 -28 -55 -34 -32 -5 -52
-17 -84 -50 -31 -31 -50 -43 -71 -43 -17 0 -37 -9 -48 -21 -35 -40 -97 -79
-125 -79 -22 0 -35 -10 -59 -45 -25 -36 -37 -45 -61 -45 -21 0 -42 -12 -73
-40 -27 -25 -53 -40 -69 -40 -21 0 -30 -8 -41 -34 -8 -20 -28 -42 -46 -51 -17
-9 -35 -27 -40 -40 -5 -14 -16 -25 -25 -25 -22 0 -48 -46 -41 -74 8 -32 38
-41 92 -26 31 9 48 21 57 38 8 18 25 29 54 37 23 5 48 16 55 23 6 6 18 12 25
12 7 0 19 14 28 30 13 25 22 30 51 30 28 0 38 6 52 30 9 17 28 33 42 37 14 3
31 10 38 16 6 5 27 13 45 16 24 6 32 12 30 28 -2 16 7 23 38 32 23 7 58 29 78
50 27 27 49 40 80 45 28 4 53 17 75 39 23 23 52 38 99 51 58 16 67 21 67 41 0
20 7 25 53 34 28 5 77 13 107 16 44 6 61 13 85 38 27 29 35 32 85 30 30 -1 70
-4 88 -8 34 -8 43 -32 15 -41 -10 -3 -26 -10 -35 -15 -10 -5 -24 -6 -32 -3
-17 6 -56 -29 -56 -51 0 -20 -63 -45 -111 -45 -38 0 -39 -1 -39 -36 0 -31 -4
-37 -37 -50 -21 -8 -46 -19 -55 -24 -10 -6 -27 -10 -38 -10 -13 0 -22 -9 -26
-25 -5 -19 -15 -26 -43 -30 -79 -14 -114 -30 -131 -60 -13 -24 -24 -31 -54
-33 -30 -3 -41 -10 -54 -33 -10 -16 -26 -32 -37 -35 -11 -3 -29 -9 -40 -14
-11 -4 -27 -11 -37 -13 -9 -3 -22 -18 -30 -34 -9 -20 -22 -29 -43 -31 -49 -5
-88 -23 -115 -53 -19 -22 -37 -31 -75 -35 -57 -8 -75 -18 -75 -45 0 -29 -36
-59 -71 -59 -25 0 -32 -6 -44 -34 -9 -22 -25 -37 -44 -44 -16 -6 -34 -19 -39
-29 -6 -10 -12 -117 -14 -238 -3 -121 -8 -228 -12 -237 -4 -9 -15 -19 -24 -23
-31 -12 -42 23 -42 129 l0 101 -37 36 c-21 20 -46 48 -56 62 -15 23 -25 27
-70 27 -64 1 -92 19 -83 54 3 14 18 31 34 38 15 7 34 27 43 45 9 18 30 46 48
62 26 24 31 37 31 73 0 55 -13 68 -65 68 -46 0 -72 -15 -77 -44 -4 -26 -53
-42 -84 -27 -28 12 -29 29 -9 99 12 39 23 56 45 67 19 10 32 27 38 48 6 22 19
38 45 52 24 13 37 28 39 45 2 19 10 26 31 28 32 4 33 6 42 87 6 50 12 65 40
90 18 18 40 45 48 62 9 16 27 37 40 46 23 15 25 15 36 -9 6 -14 11 -38 11 -54
0 -16 11 -41 24 -57 l24 -27 58 31 c39 20 64 41 73 60 13 29 57 53 97 53 10 0
32 16 47 35 19 24 36 35 55 36 42 1 101 31 115 59 8 16 25 27 51 34 23 5 50
21 63 37 13 15 45 35 71 45 51 19 92 50 92 70 0 7 23 15 62 19 71 8 114 40
103 76 -6 18 -5 19 14 7 16 -10 27 -10 54 0 18 7 41 12 50 12 9 0 29 13 43 29
18 21 50 37 112 56 48 15 94 32 102 39 20 17 67 34 105 39 17 2 32 5 36 6 3 0
10 -4 17 -11z"/>
<path d="M8972 5852 c-7 -22 -12 -83 -12 -136 l0 -96 -39 6 c-35 6 -39 4 -45
-21 -11 -44 1 -65 38 -65 69 0 116 100 116 244 0 53 -4 96 -9 96 -5 0 -16 2
-23 5 -10 4 -18 -6 -26 -33z"/>
<path d="M6005 5730 c-11 -4 -33 -22 -49 -39 -17 -17 -40 -31 -52 -31 -30 0
-66 -38 -59 -61 7 -21 -21 -39 -62 -39 -82 0 -92 -66 -76 -488 5 -136 10 -177
21 -189 14 -14 17 -14 27 1 19 25 34 167 41 385 l6 204 32 45 c23 34 42 48 71
56 32 9 41 18 49 43 7 26 17 35 50 46 35 12 41 18 41 42 0 31 -10 38 -40 25z"/>
<path d="M8802 5528 c-22 -22 -14 -57 13 -64 33 -8 55 11 55 47 0 25 -4 29
-28 29 -15 0 -33 -5 -40 -12z"/>
<path d="M5786 3868 c-16 -60 5 -188 30 -188 15 0 21 15 29 83 9 67 -8 127
-35 127 -10 0 -20 -10 -24 -22z"/>
<path d="M5796 3637 c-11 -36 -3 -154 11 -168 6 -6 29 -13 52 -16 70 -10 92
29 46 80 -18 18 -36 27 -57 27 -30 0 -31 1 -14 19 19 21 14 41 -9 41 -7 0 -15
10 -18 23 -3 21 -4 20 -11 -6z"/>
<path d="M1969 5768 c-5 -9 -9 -69 -9 -133 0 -131 0 -132 76 -120 36 5 55 16
85 46 35 36 43 39 92 39 63 0 117 16 117 35 0 15 59 55 81 55 13 0 59 42 59
53 0 14 -55 21 -263 31 -211 10 -230 10 -238 -6z"/>
<path d="M2528 5733 c7 -3 16 -2 19 1 4 3 -2 6 -13 5 -11 0 -14 -3 -6 -6z"/>
<path d="M4632 5469 c-30 -11 -25 -43 7 -47 26 -4 111 19 111 29 0 9 -57 29
-79 28 -9 0 -26 -4 -39 -10z"/>
<path d="M4710 5420 c0 -5 7 -10 15 -10 8 0 15 5 15 10 0 6 -7 10 -15 10 -8 0
-15 -4 -15 -10z"/>
<path d="M3780 5393 c0 -38 9 -50 53 -68 31 -13 36 -19 32 -38 -5 -19 0 -25
37 -38 33 -12 44 -22 50 -46 5 -18 18 -34 34 -42 15 -7 32 -27 41 -51 12 -29
22 -40 41 -42 20 -2 28 -10 33 -33 14 -59 47 -130 63 -133 18 -4 22 -19 31
-117 5 -50 16 -87 37 -127 l30 -56 -4 -309 -3 -308 -32 -70 c-18 -38 -40 -98
-49 -132 -11 -42 -24 -67 -40 -78 -15 -9 -25 -29 -29 -52 -12 -76 -16 -83 -55
-108 -24 -15 -40 -33 -40 -44 0 -27 -27 -51 -55 -51 -20 0 -26 -7 -35 -40 -9
-35 -15 -40 -39 -40 -32 0 -55 -23 -65 -62 -5 -22 -12 -28 -32 -28 -38 0 -28
-39 16 -64 28 -17 61 -22 165 -28 192 -10 323 -26 353 -42 46 -23 122 -37 239
-43 l112 -6 7 28 c4 15 3 66 0 114 -8 91 -9 402 -5 1190 3 461 2 484 -15 497
-17 12 -18 23 -12 122 9 151 4 167 -49 182 -24 7 -56 25 -71 41 -33 35 -48 37
-233 42 l-145 4 -30 36 c-31 36 -32 36 -158 52 -176 21 -178 21 -178 -12z"/>
<path d="M4862 3428 c-7 -9 -16 -86 -23 -199 -6 -101 -15 -194 -20 -206 -6
-17 -17 -23 -39 -23 -29 0 -70 -29 -70 -50 0 -40 166 -37 192 3 4 7 8 109 8
228 0 194 -2 219 -18 239 -15 19 -20 20 -30 8z"/>
<path d="M860 4515 c-11 -13 -11 -18 2 -31 20 -20 50 -7 46 20 -4 26 -30 32
-48 11z"/>
<path d="M1398 4523 c-20 -2 -42 -11 -48 -19 -7 -8 -17 -14 -23 -14 -6 0 -20
-9 -32 -20 -11 -11 -39 -23 -60 -28 -28 -5 -44 -15 -52 -33 -7 -14 -28 -34
-47 -44 -20 -11 -40 -31 -47 -46 -6 -16 -23 -32 -41 -38 -26 -9 -29 -15 -26
-43 2 -27 8 -34 30 -36 29 -4 69 18 108 59 24 24 32 26 148 32 106 4 127 8
145 25 31 29 62 39 148 47 61 6 82 4 107 -9 39 -20 40 -28 6 -59 -32 -30 -29
-67 7 -84 15 -7 55 -16 89 -20 58 -6 62 -8 81 -44 10 -21 29 -44 42 -50 32
-17 67 -51 67 -66 0 -7 -10 -19 -22 -27 -19 -12 -40 -13 -123 -4 -97 10 -125
19 -175 58 -20 15 -48 20 -150 25 -130 7 -175 0 -187 -31 -10 -26 8 -33 116
-43 94 -9 106 -12 125 -35 17 -21 37 -28 116 -42 95 -16 140 -34 140 -57 0 -6
21 -23 47 -37 26 -14 53 -36 60 -50 6 -13 22 -32 35 -42 20 -15 21 -20 10 -35
-7 -10 -15 -26 -18 -35 -10 -28 -47 -21 -69 12 -23 35 -66 50 -147 50 -31 0
-60 5 -63 10 -3 6 -17 10 -30 10 -14 0 -32 11 -45 27 -17 21 -33 29 -78 34
-72 9 -255 11 -276 3 -32 -12 -16 -85 40 -184 16 -29 20 -204 5 -242 -5 -13
-21 -30 -36 -38 -25 -13 -28 -13 -46 10 -10 14 -19 37 -19 51 0 14 -9 34 -21
45 -40 36 -62 76 -65 120 -1 25 -11 55 -22 69 -12 15 -22 49 -27 89 -6 61 -9
66 -46 90 -55 37 -53 87 5 97 13 3 25 21 36 54 9 28 20 58 24 67 6 13 -1 21
-31 37 -21 11 -53 31 -72 45 -24 18 -38 23 -47 16 -14 -12 -34 -86 -34 -127 0
-15 -10 -48 -21 -73 -37 -80 -37 -275 0 -373 6 -16 11 -45 11 -65 0 -39 26
-100 59 -142 12 -14 27 -50 34 -80 11 -42 21 -58 43 -70 16 -9 31 -27 34 -41
4 -20 19 -28 83 -49 55 -19 85 -34 101 -55 29 -36 79 -42 321 -40 173 2 223
12 253 48 7 7 31 19 54 26 24 7 54 16 68 20 15 4 24 14 24 24 -1 9 2 17 7 17
18 0 99 62 99 76 0 8 13 27 29 42 15 15 33 42 39 60 6 17 27 57 47 87 l37 55
7 172 c4 95 6 220 4 277 -2 100 -4 107 -38 162 -19 32 -38 72 -42 89 -4 22
-33 60 -89 118 -46 48 -82 93 -79 99 6 17 -26 33 -65 33 -34 0 -79 20 -99 44
-8 9 -23 16 -35 16 -12 0 -27 5 -33 11 -12 12 -293 21 -365 12z"/>
<path d="M765 4430 c-4 -7 -3 -16 3 -22 14 -14 45 -2 40 15 -6 16 -34 21 -43
7z"/>
<path d="M586 4175 c-10 -28 -7 -80 8 -100 13 -18 14 -17 30 8 25 37 18 101
-10 105 -13 2 -24 -4 -28 -13z"/>
<path d="M830 2990 c0 -8 25 -20 41 -20 20 0 7 18 -16 22 -14 3 -25 2 -25 -2z"/>
</g>
</svg>
