<?xml version="1.0" standalone="no"?>
<!DOCTYPE svg PUBLIC "-//W3C//DTD SVG 20010904//EN"
 "http://www.w3.org/TR/2001/REC-SVG-20010904/DTD/svg10.dtd">
<svg version="1.0" xmlns="http://www.w3.org/2000/svg"
 width="1273.000000pt" height="1280.000000pt" viewBox="0 0 1273.000000 1280.000000"
 preserveAspectRatio="xMidYMid meet">
<metadata>
Created by potrace 1.15, written by Peter Selinger 2001-2017
</metadata>
<g transform="translate(0.000000,1280.000000) scale(0.100000,-0.100000)"
fill="#000000" stroke="none">
<path d="M10000 12789 c-106 -12 -259 -46 -365 -81 -126 -41 -333 -146 -445
-226 -105 -74 -317 -278 -402 -387 -190 -243 -383 -579 -503 -877 l-51 -128
-70 62 c-346 308 -867 561 -1363 663 -225 47 -351 59 -611 59 -247 1 -333 -7
-541 -45 -771 -141 -1417 -619 -1714 -1269 -124 -271 -177 -508 -177 -790 -1
-745 391 -1324 1158 -1708 262 -131 519 -224 1101 -396 561 -167 783 -246
1048 -375 264 -129 478 -282 685 -490 391 -393 631 -869 717 -1421 28 -183 24
-550 -9 -790 -46 -327 -111 -565 -218 -799 -81 -178 -42 -160 73 34 72 122
194 385 227 490 18 59 317 637 533 1030 696 1271 1370 2350 2248 3606 414 593
550 827 647 1116 39 117 86 312 104 428 17 119 17 473 -1 590 -70 471 -275
875 -605 1193 -390 376 -947 570 -1466 511z m399 -114 c505 -74 955 -364 1241
-800 64 -98 170 -313 204 -416 73 -218 106 -414 106 -641 0 -249 -37 -473
-114 -695 -82 -233 -175 -407 -388 -721 -353 -522 -760 -1134 -863 -1297 -672
-1061 -1244 -2070 -1798 -3172 -89 -177 -162 -321 -163 -320 -1 1 2 23 6 49 5
26 14 117 19 201 65 1028 -480 2007 -1395 2511 -293 161 -549 253 -1409 505
-370 108 -598 191 -830 301 -455 215 -815 548 -972 899 -220 493 -199 1022 58
1521 485 939 1670 1387 2870 1085 402 -101 763 -274 1133 -543 71 -51 134 -91
140 -89 7 3 47 76 90 163 263 538 573 951 873 1166 342 245 781 352 1192 293z"/>
<path d="M1617 6650 c-396 -38 -778 -221 -1072 -515 -339 -338 -519 -750 -541
-1240 -19 -416 87 -848 320 -1300 213 -414 402 -671 1059 -1438 367 -430 529
-637 810 -1040 141 -202 259 -401 379 -640 44 -87 81 -157 83 -155 2 2 10 40
20 86 83 414 295 868 569 1222 271 350 555 608 1132 1026 285 206 514 377 639
477 713 570 1075 1156 1111 1795 28 507 -227 1033 -656 1351 -385 286 -912
401 -1390 305 -196 -40 -420 -124 -579 -219 -176 -105 -369 -271 -478 -410
l-31 -39 -22 44 c-70 137 -237 330 -370 427 -276 201 -633 296 -983 263z m454
-109 c348 -70 632 -259 855 -570 32 -45 61 -81 65 -81 5 0 63 52 130 115 152
143 267 225 439 314 219 113 407 170 649 197 300 35 628 -20 906 -150 441
-208 751 -594 857 -1066 33 -148 32 -424 -1 -580 -81 -381 -275 -729 -592
-1064 -225 -238 -433 -407 -1049 -851 -474 -341 -654 -488 -875 -709 -208
-209 -335 -379 -473 -632 -161 -296 -282 -660 -324 -967 -6 -48 -15 -84 -18
-80 -4 5 -22 51 -40 103 -43 123 -147 364 -221 511 -202 404 -340 592 -949
1299 -502 582 -686 820 -875 1134 -583 970 -566 1915 46 2570 262 280 618 467
994 522 119 18 351 10 476 -15z"/>
<path d="M10570 3691 c-380 -81 -695 -377 -830 -779 -30 -90 -60 -247 -60
-315 l0 -39 -52 47 c-285 256 -718 339 -1095 211 -469 -160 -783 -601 -783
-1101 0 -549 369 -1044 1020 -1369 593 -295 1301 -395 2290 -321 490 36 686
59 1150 131 228 36 437 68 463 71 26 3 49 9 52 12 2 4 -37 47 -87 96 -222 219
-382 467 -507 782 -92 236 -143 447 -217 903 -108 670 -197 958 -383 1245 -57
87 -186 223 -267 281 -199 142 -455 195 -694 145z m366 -111 c260 -67 494
-303 622 -630 102 -259 127 -374 247 -1120 77 -478 148 -715 288 -953 122
-206 301 -412 481 -551 l78 -61 -58 -2 c-33 -2 -237 -7 -454 -13 -277 -6 -473
-17 -655 -34 -790 -76 -1216 -83 -1660 -26 -529 68 -976 229 -1320 475 -254
182 -414 364 -527 601 -291 609 37 1322 687 1494 320 84 645 20 941 -185 l93
-64 11 57 c41 210 69 302 134 430 166 328 456 552 781 601 79 13 222 4 311
-19z"/>
</g>
</svg>
