<?xml version="1.0" standalone="no"?>
<!DOCTYPE svg PUBLIC "-//W3C//DTD SVG 20010904//EN"
 "http://www.w3.org/TR/2001/REC-SVG-20010904/DTD/svg10.dtd">
<svg version="1.0" xmlns="http://www.w3.org/2000/svg"
 width="1280.000000pt" height="900.000000pt" viewBox="0 0 1280.000000 900.000000"
 preserveAspectRatio="xMidYMid meet">
<metadata>
Created by potrace 1.15, written by Peter Selinger 2001-2017
</metadata>
<g transform="translate(0.000000,900.000000) scale(0.100000,-0.100000)"
fill="#000000" stroke="none">
<path d="M12035 8915 c-88 -47 -168 -85 -178 -85 -28 0 -1394 -859 -1441 -906
-23 -22 -534 -374 -1136 -781 -602 -407 -2449 -1657 -4105 -2777 l-3010 -2037
-700 -692 c-567 -560 -769 -752 -1055 -1005 -203 -179 -364 -329 -377 -351
-32 -53 -40 -139 -19 -196 20 -51 66 -85 115 -85 20 0 148 58 371 170 320 160
1298 607 2000 915 283 124 327 147 430 220 63 45 846 572 1740 1171 893 599
1847 1242 2120 1430 272 187 1326 912 2342 1612 1016 699 1887 1298 1935 1330
177 117 1423 1044 1423 1058 0 7 44 50 97 94 106 88 152 145 183 228 71 188 1
422 -177 595 -89 87 -173 138 -268 163 -96 26 -117 21 -290 -71z"/>
</g>
</svg>
