<?xml version="1.0" standalone="no"?>
<!DOCTYPE svg PUBLIC "-//W3C//DTD SVG 20010904//EN"
 "http://www.w3.org/TR/2001/REC-SVG-20010904/DTD/svg10.dtd">
<svg version="1.0" xmlns="http://www.w3.org/2000/svg"
 width="1280.000000pt" height="1204.000000pt" viewBox="0 0 1280.000000 1204.000000"
 preserveAspectRatio="xMidYMid meet">
<metadata>
Created by potrace 1.15, written by Peter Selinger 2001-2017
</metadata>
<g transform="translate(0.000000,1204.000000) scale(0.100000,-0.100000)"
fill="#000000" stroke="none">
<path d="M5549 12017 c-50 -33 -82 -100 -74 -158 3 -30 0 -58 -10 -82 -19 -46
-19 -114 0 -151 9 -16 12 -33 8 -37 -4 -4 -66 -53 -138 -109 -71 -56 -131
-105 -133 -109 -1 -4 57 -45 130 -91 73 -46 134 -84 136 -86 2 -1 -14 -37 -36
-79 l-39 -78 -45 59 c-63 83 -104 149 -207 336 -50 91 -99 173 -110 182 -18
17 -19 16 -26 -4 -16 -49 25 -249 74 -368 43 -104 115 -221 181 -294 l57 -62
-58 -121 c-72 -153 -130 -308 -208 -560 -34 -110 -63 -204 -65 -209 -4 -16
-111 124 -211 274 l-93 140 -31 -37 c-18 -21 -41 -64 -53 -95 l-21 -58 -86 0
c-141 0 -169 -29 -192 -196 -28 -211 24 -658 157 -1354 48 -248 152 -752 157
-757 2 -1 27 105 55 236 l53 240 -16 108 c-9 59 -18 115 -20 123 -3 8 1 47 9
85 12 63 14 67 21 40 4 -16 14 -56 21 -88 64 -259 235 -536 412 -672 l48 -36
-8 -97 c-9 -100 4 -290 23 -338 5 -15 8 -28 7 -29 -2 -2 -97 35 -213 81 -210
84 -439 164 -471 164 -10 0 -38 13 -63 29 -81 52 -219 79 -249 49 -16 -16 -15
-61 2 -103 l15 -35 -35 -16 c-20 -9 -49 -34 -66 -55 -23 -29 -40 -39 -72 -44
-78 -13 -147 -56 -242 -150 -88 -88 -204 -246 -260 -356 -13 -27 -28 -49 -32
-49 -4 0 -653 436 -1441 968 l-1435 968 0 105 c-1 94 -4 109 -29 157 -34 65
-93 123 -155 154 -39 19 -63 23 -142 23 -83 0 -101 -3 -145 -27 -62 -32 -129
-103 -158 -166 -31 -68 -31 -199 1 -263 37 -75 87 -125 160 -161 59 -29 75
-33 147 -32 59 1 93 6 128 22 27 12 54 19 60 15 24 -14 2902 -1956 2910 -1963
5 -4 -7 -41 -26 -81 -18 -41 -57 -146 -86 -234 -141 -435 -210 -852 -198
-1199 10 -303 73 -497 186 -572 l39 -25 -25 -77 c-52 -163 -157 -537 -213
-757 -126 -498 -182 -834 -184 -1100 -1 -216 21 -312 86 -372 24 -22 535 -276
893 -443 257 -120 436 -196 620 -266 l140 -53 6 -143 c7 -162 29 -315 63 -443
l23 -86 -23 -57 c-34 -87 -47 -194 -41 -339 7 -180 26 -234 139 -402 57 -83
187 -126 360 -118 67 3 105 9 122 20 36 24 93 132 116 222 37 143 66 606 42
652 -9 16 -5 46 17 134 16 63 35 158 41 212 7 53 15 97 19 97 4 0 47 -9 96
-19 140 -30 190 -34 246 -21 27 7 52 11 54 9 2 -2 8 -42 14 -89 7 -47 25 -140
42 -207 24 -98 28 -127 19 -144 -21 -38 -9 -329 21 -559 13 -95 46 -198 88
-268 37 -63 77 -75 231 -69 169 7 236 36 314 139 89 118 126 241 126 419 0
129 -18 244 -49 314 l-20 46 24 92 c39 147 56 270 62 454 l6 172 133 55 c167
70 498 220 814 370 272 129 302 151 338 247 44 119 54 193 59 464 5 259 -4
464 -32 725 -8 68 -12 126 -10 128 4 4 1649 -1100 1675 -1125 8 -8 -37 9 -100
37 -63 28 -173 76 -244 107 -275 118 -303 117 -124 -5 202 -137 1280 -792
1693 -1029 414 -238 959 -518 1225 -632 284 -121 483 -168 530 -126 27 24 25
43 -8 96 -84 132 -393 354 -1203 866 -217 137 -639 411 -939 608 -807 530
-950 622 -949 608 0 -4 77 -73 171 -153 165 -140 518 -474 518 -491 0 -4 -35
16 -77 45 -43 29 -557 376 -1143 771 -586 395 -1066 718 -1066 719 -1 1 -11
62 -23 136 -18 123 -19 140 -6 184 8 26 26 105 40 174 109 554 95 1261 -40
1928 -142 702 -411 1204 -675 1259 -43 9 -80 41 -80 71 0 12 -8 32 -19 45 -18
22 -25 23 -182 26 -138 3 -180 1 -264 -17 -90 -19 -387 -113 -547 -174 l-63
-23 1 236 0 236 63 65 c163 167 285 406 340 670 11 52 20 88 21 80 2 -8 6 -1
9 15 l8 30 12 -44 c11 -38 9 -67 -14 -225 -40 -271 -47 -217 89 -746 12 -46
25 -80 29 -74 9 16 120 689 167 1019 97 684 120 1075 73 1255 -19 73 -59 115
-127 131 -28 6 -64 18 -79 26 -15 7 -32 11 -37 8 -5 -3 -20 14 -34 37 -32 55
-93 115 -104 102 -5 -5 -39 -53 -76 -106 -36 -53 -98 -136 -138 -184 l-71 -86
-67 193 c-94 273 -142 390 -236 578 l-83 165 50 54 c154 168 269 433 269 615
0 67 -10 84 -33 59 -10 -10 -62 -104 -118 -208 -90 -170 -216 -375 -238 -388
-8 -5 -85 114 -93 142 -2 6 64 56 145 111 l149 99 -54 39 c-29 21 -97 70 -151
108 -72 51 -96 73 -91 84 19 48 16 102 -10 154 -16 33 -26 71 -26 97 0 121
-127 200 -221 137z"/>
</g>
</svg>
