<?xml version="1.0" standalone="no"?>
<!DOCTYPE svg PUBLIC "-//W3C//DTD SVG 20010904//EN"
 "http://www.w3.org/TR/2001/REC-SVG-20010904/DTD/svg10.dtd">
<svg version="1.0" xmlns="http://www.w3.org/2000/svg"
 width="1167.000000pt" height="1280.000000pt" viewBox="0 0 1167.000000 1280.000000"
 preserveAspectRatio="xMidYMid meet">
<metadata>
Created by potrace 1.15, written by Peter Selinger 2001-2017
</metadata>
<g transform="translate(0.000000,1280.000000) scale(0.100000,-0.100000)"
fill="#000000" stroke="none">
<path d="M3965 12790 c-228 -14 -374 -28 -670 -65 -390 -49 -522 -59 -740 -52
-224 8 -316 16 -690 62 -355 43 -458 50 -570 36 -132 -16 -198 -35 -312 -91
-130 -64 -235 -143 -354 -268 -147 -153 -242 -309 -294 -487 -22 -74 -27 -110
-28 -205 0 -173 27 -242 174 -441 147 -199 183 -327 144 -512 -28 -132 -97
-245 -305 -497 -228 -277 -297 -658 -210 -1164 51 -298 165 -667 323 -1047 32
-74 57 -140 57 -145 0 -5 -27 -67 -59 -139 -201 -444 -337 -957 -398 -1505
-22 -196 -25 -806 -5 -1005 31 -315 91 -663 161 -942 l29 -113 -25 -62 c-115
-283 -35 -712 239 -1289 l60 -126 -228 -474 c-255 -533 -246 -504 -260 -785
-12 -247 29 -445 122 -585 72 -108 156 -170 347 -254 235 -104 224 -189 -43
-332 -175 -94 -204 -118 -175 -147 27 -27 125 -38 325 -38 212 1 319 7 870 52
416 34 549 43 1400 102 l615 43 575 -1 c540 -1 1354 -22 1715 -44 88 -5 259
-12 380 -15 394 -11 1076 -42 2190 -100 472 -25 482 -26 620 -60 962 -236
1897 -20 2619 605 83 72 84 75 61 172 -64 274 -215 525 -420 696 -44 37 -92
74 -105 83 l-25 17 140 133 c77 73 185 177 239 230 l99 96 -249 269 c-138 148
-253 274 -257 281 -5 7 51 70 150 170 444 444 570 730 375 854 -46 29 -77 40
-270 93 -51 14 -108 34 -126 44 l-34 17 80 95 c239 285 368 594 398 953 8 101
8 103 -30 222 -132 411 -210 889 -210 1279 0 263 29 489 120 941 80 403 85
439 85 675 0 213 -8 278 -51 451 -72 289 -168 490 -433 902 -187 290 -228 443
-175 651 37 144 114 248 282 383 193 154 282 261 354 425 166 375 136 893 -77
1318 -127 254 -351 483 -554 566 -117 47 -191 58 -396 57 -104 0 -260 -8 -345
-17 -85 -9 -274 -30 -420 -46 -645 -71 -1160 -114 -1820 -152 -301 -17 -1323
-17 -1525 0 -326 27 -531 55 -866 118 -540 100 -667 114 -1109 119 -184 2
-402 -1 -485 -5z"/>
</g>
</svg>
