<?xml version="1.0" standalone="no"?>
<!DOCTYPE svg PUBLIC "-//W3C//DTD SVG 20010904//EN"
 "http://www.w3.org/TR/2001/REC-SVG-20010904/DTD/svg10.dtd">
<svg version="1.0" xmlns="http://www.w3.org/2000/svg"
 width="1280.000000pt" height="876.000000pt" viewBox="0 0 1280.000000 876.000000"
 preserveAspectRatio="xMidYMid meet">
<metadata>
Created by potrace 1.15, written by Peter Selinger 2001-2017
</metadata>
<g transform="translate(0.000000,876.000000) scale(0.100000,-0.100000)"
fill="#000000" stroke="none">
<path d="M10000 8750 c-480 -31 -880 -132 -1290 -326 l-122 -58 -56 33 c-329
189 -697 291 -1057 291 -416 0 -862 -143 -1197 -383 l-75 -54 -59 24 c-212 87
-493 174 -759 236 -817 191 -1675 179 -2495 -35 -85 -22 -162 -40 -170 -40 -8
0 -71 23 -139 51 -210 88 -432 145 -660 171 -150 18 -428 8 -564 -19 -472 -95
-782 -354 -878 -732 -26 -104 -37 -357 -20 -468 7 -45 8 -78 2 -85 -22 -28
-126 -225 -175 -334 -360 -797 -379 -1678 -54 -2510 l40 -104 -17 -126 c-23
-171 -31 -577 -15 -723 23 -214 80 -409 155 -533 l35 -58 -24 -67 c-34 -96
-82 -271 -105 -386 -131 -652 -30 -1270 284 -1740 223 -334 530 -559 955 -701
l115 -38 450 -7 c571 -8 2662 -24 3110 -23 187 0 500 6 695 12 394 13 1125 27
2285 42 424 6 966 15 1205 21 271 7 692 9 1120 5 829 -8 958 0 1176 74 170 57
297 140 444 289 126 127 214 254 305 436 111 225 178 436 227 721 19 109 22
167 22 374 0 212 -3 262 -23 375 -44 246 -104 445 -200 656 l-58 127 37 48
c67 88 158 230 210 327 28 52 58 98 66 101 8 3 27 31 41 62 72 158 19 497
-163 1042 l-85 254 44 86 c225 439 268 945 120 1407 -85 266 -256 552 -455
761 l-59 61 -10 89 c-44 400 -189 712 -439 948 -232 218 -521 345 -925 406
-161 25 -564 35 -795 20z m-9225 -6020 c3 -5 2 -10 -4 -10 -5 0 -13 5 -16 10
-3 6 -2 10 4 10 5 0 13 -4 16 -10z"/>
</g>
</svg>
