<?xml version="1.0" standalone="no"?>
<!DOCTYPE svg PUBLIC "-//W3C//DTD SVG 20010904//EN"
 "http://www.w3.org/TR/2001/REC-SVG-20010904/DTD/svg10.dtd">
<svg version="1.0" xmlns="http://www.w3.org/2000/svg"
 width="1280.000000pt" height="1244.000000pt" viewBox="0 0 1280.000000 1244.000000"
 preserveAspectRatio="xMidYMid meet">
<metadata>
Created by potrace 1.15, written by Peter Selinger 2001-2017
</metadata>
<g transform="translate(0.000000,1244.000000) scale(0.100000,-0.100000)"
fill="#000000" stroke="none">
<path d="M5522 12420 c-18 -30 -15 -67 9 -91 l21 -21 -31 7 c-17 4 -31 3 -31
-1 0 -31 221 -258 335 -345 144 -109 173 -124 340 -172 179 -50 473 -117 760
-172 804 -153 939 -183 1153 -251 168 -53 372 -134 677 -269 479 -212 597
-258 915 -361 522 -168 948 -375 1420 -687 173 -115 256 -154 465 -217 284
-85 381 -123 452 -176 17 -13 34 -24 38 -24 18 0 -71 108 -164 200 -77 76 -93
95 -58 70 78 -56 199 -189 230 -253 l29 -59 -171 -451 c-93 -249 -244 -648
-334 -887 -90 -239 -215 -574 -277 -744 -62 -170 -127 -337 -145 -370 -19 -34
-102 -209 -185 -391 -84 -181 -173 -366 -200 -410 -342 -572 -655 -1202 -843
-1695 -60 -157 -127 -348 -127 -358 1 -4 12 13 25 38 13 25 24 42 25 38 0 -13
-70 -146 -79 -150 -5 -2 -56 -104 -115 -228 -128 -273 -123 -263 -217 -397
-155 -221 -267 -419 -325 -570 -30 -79 -64 -216 -64 -256 0 -16 -11 -43 -24
-60 -13 -18 -44 -75 -69 -127 -24 -52 -56 -115 -70 -139 l-25 -44 -16 37 c-19
45 -15 46 -131 -53 -238 -204 -471 -544 -734 -1068 -28 -57 -54 -103 -57 -103
-3 0 -19 11 -34 24 -116 97 -651 302 -1085 415 -104 27 -266 76 -360 109 -232
82 -265 95 -265 106 0 19 -72 96 -132 141 -91 68 -189 114 -393 184 -237 81
-320 115 -396 159 -74 44 -165 125 -214 193 -28 38 -66 67 -173 132 -486 297
-1152 613 -1897 900 -1149 442 -1343 519 -1670 659 -413 177 -533 246 -596
346 -55 87 -35 172 60 250 46 37 57 42 104 42 29 0 84 -9 122 -20 l70 -20 42
44 c24 25 41 51 38 58 -3 8 -24 25 -46 38 -56 35 -71 62 -70 127 1 103 89 251
236 398 92 92 207 183 243 192 15 3 53 -3 93 -16 41 -13 78 -19 93 -15 33 8
66 49 66 82 0 37 -79 107 -179 160 l-82 44 27 36 c15 21 42 55 59 77 113 141
301 428 436 664 111 193 150 238 235 269 83 30 102 28 194 -18 91 -46 132 -50
154 -18 21 29 20 91 0 134 -9 18 -62 76 -119 129 -125 116 -145 153 -125 237
21 87 84 195 183 309 l41 48 42 -39 c84 -77 151 -91 204 -42 86 77 16 238
-112 259 -23 3 -37 10 -35 17 2 6 30 90 62 186 90 275 141 360 239 406 64 30
92 30 225 -1 113 -26 145 -24 198 10 34 23 63 74 63 113 0 46 -29 71 -159 136
-64 33 -116 65 -123 78 -8 14 -12 53 -12 98 3 168 100 330 199 330 17 0 91
-29 166 -64 75 -34 147 -66 162 -70 24 -6 25 -4 18 21 -29 98 -68 148 -163
210 -43 27 -72 53 -79 71 -22 58 17 156 119 301 114 161 142 212 142 255 0 39
-23 49 -93 43 -83 -8 -130 -23 -166 -52 -16 -14 -32 -25 -35 -25 -11 0 -6 90
5 113 19 36 60 76 139 134 41 31 88 67 104 82 l29 26 -27 -42 c-14 -24 -26
-44 -26 -47 0 -2 23 -6 50 -10 34 -5 104 -34 212 -88 193 -98 239 -107 313
-64 25 15 52 38 61 52 22 32 13 94 -18 134 -32 41 -129 113 -206 152 -36 20
-60 38 -57 45 2 7 28 45 58 85 29 40 94 129 143 197 49 68 116 152 149 187
l60 64 98 0 c95 0 97 1 97 23 0 13 -13 44 -30 70 -16 26 -30 49 -30 51 0 2 32
36 70 75 39 40 115 133 171 207 128 172 135 177 259 168 63 -4 108 -13 133
-26 52 -26 78 -20 99 22 20 40 24 121 7 153 -7 12 -44 56 -85 98 -89 92 -95
109 -69 212 6 21 1 27 -37 45 -189 90 -800 18 -977 -115 -71 -55 -93 -173 -57
-323 50 -212 43 -274 -38 -355 -47 -47 -61 -54 -171 -90 -198 -63 -236 -89
-295 -207 -37 -75 -40 -86 -39 -162 0 -44 3 -112 8 -149 12 -112 -23 -164
-136 -207 -110 -41 -176 -102 -224 -205 -58 -126 -73 -290 -40 -450 l18 -90
-63 -94 -63 -95 -103 -1 c-80 -1 -115 -6 -159 -23 -80 -32 -142 -90 -181 -170
-33 -66 -33 -68 -31 -202 2 -187 5 -183 -186 -301 -51 -31 -122 -113 -157
-181 -8 -15 -30 -83 -50 -150 l-35 -122 16 -82 c31 -154 21 -164 -187 -199
-213 -35 -286 -74 -331 -175 -41 -92 -30 -252 28 -400 25 -64 84 -170 95 -170
7 0 84 116 105 159 32 64 45 126 45 216 l0 90 64 33 c36 19 95 61 133 95 59
54 65 58 46 27 -11 -19 -80 -138 -153 -265 -211 -367 -263 -454 -402 -668
-194 -301 -198 -297 -14 13 63 107 114 196 112 197 -1 2 -58 -15 -127 -38
-156 -51 -302 -127 -378 -195 -57 -52 -59 -55 -76 -137 -24 -117 -18 -250 17
-334 22 -55 65 -121 78 -122 3 -1 20 25 37 57 53 95 66 103 22 13 -31 -63 -48
-119 -69 -221 -30 -149 -54 -213 -91 -246 -22 -19 -199 -115 -199 -108 0 2 13
24 30 50 16 26 27 50 25 54 -3 5 -34 13 -70 19 -178 31 -356 -71 -441 -254
-77 -167 -56 -354 54 -468 56 -58 70 -63 83 -30 11 28 11 28 24 -22 7 -27 13
-50 12 -51 -1 0 -19 -10 -40 -22 -47 -27 -51 -27 -36 -1 11 22 11 22 -107 16
-133 -5 -193 -21 -274 -69 -64 -39 -110 -95 -141 -175 -19 -49 -23 -78 -23
-183 -1 -122 0 -127 32 -193 45 -91 63 -101 161 -93 l78 6 44 -47 c62 -67 109
-126 168 -212 l51 -74 -28 -17 c-40 -24 -51 -42 -61 -92 -28 -152 112 -497
265 -653 104 -107 198 -153 476 -234 753 -219 1352 -498 2430 -1132 606 -357
1520 -828 2358 -1216 1092 -507 1824 -763 2177 -763 80 0 85 -1 130 -36 42
-32 223 -130 223 -120 0 2 -24 45 -54 95 -37 63 -52 98 -48 113 4 17 2 20 -11
15 -35 -13 -22 24 29 82 29 34 74 91 100 126 25 36 47 65 49 65 2 0 -32 -60
-76 -134 -43 -74 -79 -141 -79 -148 0 -20 82 -85 169 -135 42 -24 79 -43 82
-43 4 0 19 35 35 78 308 868 528 1356 1366 3037 453 910 664 1345 862 1780 51
110 139 283 197 385 237 413 405 737 572 1105 42 94 156 323 253 510 378 729
531 1101 600 1460 16 82 24 100 87 195 128 192 177 326 145 393 -20 43 -109
153 -262 325 -67 75 -176 202 -242 282 -200 241 -277 302 -583 468 -183 99
-236 131 -486 292 -919 593 -1943 1060 -2925 1335 -269 75 -399 105 -943 216
-360 73 -450 90 -387 69 114 -36 578 -174 807 -239 607 -174 1004 -304 1288
-423 167 -70 386 -170 382 -175 -2 -2 -58 19 -123 48 -338 144 -2080 693
-2859 899 -161 43 -184 51 -120 45 42 -4 34 0 -50 25 -208 62 -458 156 -658
249 -49 23 -90 41 -91 41 0 0 -7 -9 -14 -20z m-1110 -526 c59 -14 119 -35 133
-46 50 -39 23 -104 -85 -201 l-54 -48 -15 25 c-9 14 -19 26 -22 26 -4 0 -42
-56 -85 -125 -42 -69 -79 -125 -81 -125 -3 0 14 35 37 78 50 92 104 223 125
300 16 65 15 67 -60 119 -35 25 -42 33 -25 29 14 -3 73 -18 132 -32z m51 -491
c-228 -264 -435 -536 -603 -788 -106 -159 -128 -187 -80 -100 55 99 197 312
289 434 121 161 491 591 508 591 2 0 -49 -62 -114 -137z m-463 -434 c-22 -65
-91 -179 -129 -213 -21 -19 -21 -19 -21 0 0 10 5 37 10 58 7 32 6 37 -5 25 -7
-8 -129 -187 -271 -399 -141 -212 -262 -389 -267 -395 -6 -5 -4 1 5 15 347
569 368 604 460 733 40 56 108 146 152 201 79 98 81 100 84 70 2 -17 -7 -60
-18 -95z m-986 -1616 c-57 -130 -150 -278 -158 -252 -33 113 -33 126 0 190 23
46 33 54 97 85 40 18 75 33 79 34 4 0 -4 -26 -18 -57z m9226 -23 c0 -5 -2 -10
-4 -10 -3 0 -8 5 -11 10 -3 6 -1 10 4 10 6 0 11 -4 11 -10z m73 -96 c-8 -176
-87 -442 -280 -939 -137 -353 -182 -485 -252 -745 l-59 -215 -345 -670 -346
-670 6 -85 5 -85 -46 -69 c-25 -38 -46 -66 -46 -63 0 3 6 36 14 74 8 37 26
172 41 298 39 346 80 592 120 729 24 79 18 74 -35 -33 -46 -91 -303 -491 -316
-491 -3 0 5 19 19 43 122 208 306 566 442 861 78 170 99 204 197 335 321 424
528 805 771 1416 89 225 95 244 93 308 0 41 3 66 9 63 6 -2 9 -30 8 -62z
m-9703 -548 c0 -3 -17 -33 -37 -68 -33 -57 -130 -165 -139 -155 -2 2 24 54 58
115 56 100 66 112 91 112 15 0 27 -2 27 -4z m-11 -373 c-121 -236 -198 -379
-292 -543 -95 -166 -559 -944 -570 -955 -14 -14 -14 -15 110 200 148 254 646
1137 763 1352 52 95 96 170 98 168 2 -2 -47 -102 -109 -222z m8081 -2187 c-29
-58 -56 -109 -61 -112 -5 -3 16 46 48 110 31 63 59 114 61 112 2 -2 -20 -52
-48 -110z m-9377 -54 c-15 -27 -190 -326 -388 -665 -197 -339 -361 -614 -363
-612 -6 6 131 285 202 410 123 216 560 915 573 915 3 0 -8 -22 -24 -48z m-327
-207 c12 -18 14 -35 9 -62 -12 -68 -97 -216 -153 -266 -19 -18 -20 -17 -46 34
-38 76 -36 143 6 225 28 55 38 66 73 78 62 22 92 20 111 -9z m9531 -122 c-12
-31 -22 -52 -24 -46 -4 10 33 103 40 103 3 0 -5 -25 -16 -57z m-10008 -562
c-17 -34 -34 -59 -36 -57 -3 3 10 32 28 65 17 34 34 59 36 57 3 -3 -10 -32
-28 -65z m-100 -236 c-61 -179 -92 -221 -53 -72 15 59 81 203 89 195 3 -2 -14
-58 -36 -123z m9677 -261 c-58 -115 -105 -206 -105 -202 -1 11 203 418 207
414 2 -2 -44 -98 -102 -212z m312 124 c-22 -34 -174 -295 -262 -450 -43 -76
-80 -138 -83 -138 -17 0 237 454 314 562 35 48 58 68 31 26z m188 -231 c-8
-29 -31 -78 -51 -111 -36 -60 -157 -227 -161 -223 -1 1 4 27 12 57 8 30 13 79
12 107 l-3 53 -50 -62 c-76 -93 -78 -95 -69 -78 34 68 198 285 278 368 l41 43
3 -51 c2 -28 -4 -75 -12 -103z m-633 -22 c-3 -9 -8 -14 -10 -11 -3 3 -2 9 2
15 9 16 15 13 8 -4z m-20 -40 c-3 -9 -8 -14 -10 -11 -3 3 -2 9 2 15 9 16 15
13 8 -4z m-20 -40 c-3 -9 -8 -14 -10 -11 -3 3 -2 9 2 15 9 16 15 13 8 -4z
m196 -811 c-27 -81 -54 -155 -60 -166 -6 -11 -9 -21 -7 -24 3 -2 44 68 93 156
49 87 91 158 92 156 5 -5 -215 -467 -562 -1181 -298 -613 -735 -1489 -740
-1483 -2 2 41 109 96 238 55 129 125 296 156 370 31 74 88 203 126 285 53 116
69 163 72 205 3 49 20 87 148 327 150 285 279 551 378 787 50 117 241 476 254
476 2 0 -18 -66 -46 -146z m-8764 -259 c77 -31 253 -92 390 -136 522 -169 634
-210 927 -343 312 -141 709 -346 1188 -613 118 -66 283 -157 365 -203 83 -46
155 -88 160 -93 18 -18 -424 213 -845 441 -640 348 -1046 541 -1365 650 -66
22 -217 72 -335 111 -265 85 -459 157 -571 211 -103 50 -92 46 86 -25z m2650
-573 c-3 -3 -11 0 -18 7 -9 10 -8 11 6 5 10 -3 15 -9 12 -12z m85 -32 c8 -5
11 -10 5 -10 -5 0 -17 5 -25 10 -8 5 -10 10 -5 10 6 0 17 -5 25 -10z m100 -45
c14 -8 21 -14 15 -14 -5 0 -21 6 -35 14 -14 8 -20 14 -15 14 6 0 21 -6 35 -14z
m893 -395 c449 -200 816 -365 814 -367 -4 -3 -477 204 -1167 512 -421 187
-527 236 -480 222 8 -3 383 -168 833 -367z m3852 89 c-4 -6 0 -16 9 -22 14
-11 12 -14 -14 -29 -30 -17 -30 -17 -18 5 7 12 13 27 14 32 3 21 4 25 10 25 3
0 2 -5 -1 -11z m5 -416 c-47 -84 -127 -196 -275 -388 -237 -305 -372 -526
-409 -671 -20 -78 -20 -109 0 -167 8 -25 14 -56 12 -69 -3 -18 -8 -10 -22 31
-25 72 -18 180 18 280 52 148 146 300 355 576 66 88 171 229 232 313 61 83
113 152 116 152 3 0 -10 -26 -27 -57z m-4515 -41 c-3 -3 -11 0 -18 7 -9 10 -8
11 6 5 10 -3 15 -9 12 -12z m1535 -22 c19 -11 31 -19 25 -19 -5 0 -26 8 -45
19 -19 11 -30 19 -25 19 6 0 26 -8 45 -19z m90 -40 c19 -11 31 -19 25 -19 -5
0 -26 8 -45 19 -19 11 -30 19 -25 19 6 0 26 -8 45 -19z m80 -35 c14 -8 21 -14
15 -14 -5 0 -21 6 -35 14 -14 8 -20 14 -15 14 6 0 21 -6 35 -14z m-715 -147
c44 -16 116 -41 160 -54 44 -14 62 -22 40 -18 -52 8 -240 71 -285 96 -39 21
-31 19 85 -24z m3038 -65 c-20 -32 -49 -77 -65 -100 -29 -44 -35 -58 -18 -48
6 4 -4 -17 -23 -47 -63 -98 -165 -292 -211 -400 -42 -99 -58 -147 -85 -254 -7
-25 -17 -41 -26 -41 -18 0 -20 23 -4 33 18 10 5 114 -20 163 -12 23 -38 60
-58 81 l-35 40 48 -22 c95 -42 83 -51 235 185 75 117 134 214 132 217 -3 3
-31 -23 -64 -58 -103 -110 -85 -84 174 245 27 35 51 63 53 63 2 0 -13 -26 -33
-57z m-1705 -375 c86 -57 213 -131 282 -166 69 -35 114 -61 100 -58 -214 47
-219 50 -410 211 -53 44 -107 88 -120 97 -14 9 -22 17 -17 17 4 1 78 -45 165
-101z m1190 -412 c15 -8 38 -27 52 -42 21 -23 19 -23 -19 7 -38 30 -50 34
-101 34 -32 0 -53 3 -47 7 20 13 86 9 115 -6z m-294 -37 c20 0 21 -1 1 -9 -41
-18 -81 -12 -93 14 l-11 25 41 -15 c22 -8 50 -14 62 -15z m-478 -149 c96 -33
294 -113 290 -117 -4 -5 -241 82 -316 116 -59 26 -48 26 26 1z"/>
<path d="M11270 7224 c-54 -130 -92 -235 -88 -240 3 -2 32 66 66 153 63 162
79 224 22 87z"/>
<path d="M9946 3302 c-26 -53 -117 -227 -201 -387 -170 -324 -338 -655 -330
-655 6 0 178 290 259 438 113 205 335 686 323 698 -1 2 -25 -40 -51 -94z"/>
<path d="M6551 12076 c5 -6 276 -76 292 -76 7 0 7 3 2 9 -6 5 -71 23 -144 40
-134 31 -158 35 -150 27z"/>
<path d="M6506 10386 c-67 -25 -88 -48 -169 -182 -168 -276 -256 -417 -395
-634 -211 -328 -211 -328 -378 -653 -176 -342 -258 -474 -355 -570 -38 -37
-69 -75 -69 -85 1 -33 39 -102 86 -153 108 -114 285 -206 708 -368 395 -151
702 -323 1036 -580 168 -129 184 -141 266 -189 133 -79 289 -125 559 -166 213
-33 290 -49 440 -93 107 -32 133 -36 241 -37 113 -1 119 -2 88 -15 l-34 -13
42 -39 c42 -39 43 -39 13 -32 -152 39 -500 -61 -1025 -293 -204 -90 -675 -324
-925 -459 -212 -114 -581 -328 -652 -377 -24 -16 -43 -27 -43 -24 0 3 16 27
36 53 32 42 84 134 84 148 0 4 -5 3 -11 -1 -6 -3 -3 5 6 20 27 41 14 39 -37
-5 -125 -107 -383 -253 -593 -337 -223 -89 -512 -167 -933 -253 -136 -27 -255
-52 -265 -55 -17 -5 -17 -3 2 33 35 69 62 169 64 235 4 176 -78 271 -364 418
-261 135 -329 182 -369 260 -47 91 -38 163 29 229 124 124 452 235 1096 371
260 54 259 54 511 128 243 71 358 94 510 99 147 6 239 -9 328 -53 80 -41 110
-68 172 -156 72 -103 103 -177 104 -244 0 -147 -115 -238 -422 -329 -347 -104
-525 -175 -1339 -533 -192 -84 -183 -77 -124 -103 176 -78 598 8 1227 252 310
120 452 201 586 335 46 46 76 71 66 56 -9 -15 -28 -42 -40 -61 -13 -19 -22
-36 -20 -38 9 -9 136 42 184 73 214 141 154 423 -158 735 -228 228 -391 313
-657 341 -297 31 -754 -63 -1338 -277 -55 -20 -192 -63 -305 -95 -369 -106
-548 -179 -626 -255 -22 -22 -78 -105 -124 -185 -121 -210 -142 -239 -308
-412 -83 -87 -161 -177 -173 -200 -72 -138 -26 -282 163 -514 156 -193 355
-324 576 -380 259 -66 481 -55 1012 47 85 16 162 30 170 30 14 1 76 15 112 25
10 3 -9 -21 -41 -53 -51 -52 -60 -67 -71 -117 -20 -97 3 -214 56 -283 71 -93
164 -127 344 -127 362 1 989 231 1535 564 737 450 871 518 1240 631 398 121
574 218 639 353 18 36 15 41 -14 26 -21 -11 -21 -11 -6 19 9 16 16 34 16 40 0
5 -33 -3 -72 -19 -92 -34 -198 -67 -568 -174 -457 -132 -586 -181 -825 -316
-446 -253 -510 -283 -677 -326 -53 -14 -111 -24 -129 -22 -31 3 -34 8 -81 117
-27 63 -45 117 -41 121 4 4 62 31 128 60 66 29 325 154 575 277 472 233 657
320 895 418 77 32 271 119 430 195 160 75 340 158 402 186 61 27 110 50 109
51 -1 2 -36 -8 -77 -22 -41 -14 -191 -61 -334 -105 -143 -44 -307 -95 -364
-115 -176 -59 -123 -32 86 45 109 40 318 119 464 175 232 88 269 100 285 88
33 -24 88 -16 145 23 75 51 79 55 40 48 l-33 -7 43 41 c31 28 45 36 47 26 2
-8 4 -14 5 -14 1 0 75 28 164 63 l163 62 187 -15 188 -15 -142 -7 c-160 -7
-231 -24 -415 -95 -122 -47 -150 -64 -63 -37 145 44 386 75 448 57 l27 -8 -47
-70 c-98 -147 -239 -264 -578 -482 -183 -118 -272 -180 -240 -169 11 4 40 11
65 16 66 13 306 99 455 164 276 121 500 260 630 391 98 98 137 171 143 262 4
56 0 72 -27 128 -28 57 -38 67 -88 91 -50 25 -67 28 -152 28 -107 -1 -178 -13
-296 -51 -170 -55 -315 -138 -386 -220 -17 -21 -28 -29 -24 -18 16 41 18 85 4
85 -12 0 -113 -32 -174 -55 -11 -4 7 10 40 32 146 96 219 215 371 601 117 294
152 361 329 622 318 470 425 697 426 902 0 96 -14 143 -60 204 -141 187 -485
337 -1313 575 -315 90 -670 209 -1052 354 -78 29 -190 72 -251 95 -60 22 -189
80 -285 129 -96 48 -204 100 -240 114 -84 33 -172 42 -224 23z m109 -476 c-74
-11 -134 -29 -188 -57 -27 -13 -46 -19 -42 -12 9 14 119 65 155 72 14 2 48 4
75 4 l50 1 -50 -8z m-721 -637 c-105 -160 -210 -385 -268 -578 l-15 -50 3 96
c2 95 3 96 59 202 53 101 117 203 194 310 37 50 58 66 27 20z m3491 -775 c-51
-106 -146 -312 -210 -458 -112 -254 -325 -703 -331 -697 -2 2 22 81 52 177 58
182 146 381 281 635 96 180 294 535 298 535 2 0 -38 -87 -90 -192z m-3758
-186 l32 -52 -62 40 c-40 26 -62 46 -61 57 1 10 12 55 25 100 l24 82 5 -88 c4
-77 9 -95 37 -139z m553 -292 c8 -5 11 -10 5 -10 -5 0 -17 5 -25 10 -8 5 -10
10 -5 10 6 0 17 -5 25 -10z m-245 -1149 c74 -42 88 -66 18 -30 -35 18 -81 32
-116 36 -65 7 -59 23 8 23 26 0 58 -10 90 -29z m-1920 -456 c-29 -12 -380
-103 -383 -101 -8 9 334 104 373 104 11 0 16 -1 10 -3z m2379 -205 c0 -30 -4
-63 -9 -72 -7 -12 -10 10 -10 72 0 62 3 84 10 72 5 -9 9 -42 9 -72z m-2990
-37 c-10 -22 -13 -49 -10 -67 9 -45 68 -129 122 -173 26 -21 59 -49 73 -61
l26 -24 -40 23 c-139 79 -213 150 -222 215 -4 32 1 46 26 82 17 23 33 42 36
42 2 0 -3 -17 -11 -37z m168 -390 c98 -47 199 -121 417 -307 87 -75 161 -136
164 -136 11 0 -15 87 -39 129 -13 24 -17 38 -9 31 7 -6 24 -32 36 -58 25 -51
36 -203 19 -257 -8 -24 -9 -18 -4 28 3 31 3 57 1 57 -3 0 -36 -50 -73 -112
-77 -124 -175 -233 -243 -268 -42 -21 -49 -22 -120 -10 -196 31 -393 126 -583
279 -107 86 -151 141 -151 189 0 45 99 248 165 337 111 150 247 181 420 98z
m2406 -452 c-12 -24 -27 -67 -35 -95 l-13 -51 3 67 c3 59 7 72 32 98 16 16 30
28 31 27 2 -2 -6 -23 -18 -46z m-1831 -203 c-3 -8 -6 -5 -6 6 -1 11 2 17 5 13
3 -3 4 -12 1 -19z m1715 -8 c39 -11 58 -34 58 -69 0 -18 -3 -19 -26 -11 -32
13 -115 13 -223 0 -47 -5 -86 -8 -88 -6 -6 6 129 67 180 81 65 17 55 17 99 5z
m-462 -105 c-25 -13 -49 -24 -55 -24 -5 0 10 11 35 24 25 13 50 24 55 24 6 0
-10 -11 -35 -24z m479 -147 c-63 -121 -271 -266 -469 -328 -95 -29 -97 -24 -5
13 102 41 246 118 311 167 28 21 77 68 110 104 32 36 60 65 62 66 1 0 -3 -10
-9 -22z m-501 -51 c44 -62 49 -89 21 -134 l-23 -37 -24 55 c-35 79 -42 159
-14 159 5 0 23 -19 40 -43z m-304 14 c24 -10 84 -97 73 -107 -3 -3 -28 9 -55
26 -28 17 -74 39 -103 49 l-51 19 28 10 c37 13 76 14 108 3z m251 -241 c-3 -5
-13 -10 -21 -10 -8 0 -14 5 -14 10 0 6 9 10 21 10 11 0 17 -4 14 -10z"/>
</g>
</svg>
