<?xml version="1.0" standalone="no"?>
<!DOCTYPE svg PUBLIC "-//W3C//DTD SVG 20010904//EN"
 "http://www.w3.org/TR/2001/REC-SVG-20010904/DTD/svg10.dtd">
<svg version="1.0" xmlns="http://www.w3.org/2000/svg"
 width="986.000000pt" height="1280.000000pt" viewBox="0 0 986.000000 1280.000000"
 preserveAspectRatio="xMidYMid meet">
<metadata>
Created by potrace 1.15, written by Peter Selinger 2001-2017
</metadata>
<g transform="translate(0.000000,1280.000000) scale(0.100000,-0.100000)"
fill="#000000" stroke="none">
<path d="M4854 12786 c-288 -66 -521 -364 -676 -866 -126 -411 -158 -986 -74
-1383 l13 -64 -116 -12 c-1357 -141 -2609 -839 -3341 -1861 -130 -182 -206
-308 -311 -515 -141 -280 -229 -524 -305 -840 -62 -262 -53 -408 37 -590 51
-102 131 -206 226 -295 l75 -70 3 -407 c2 -406 10 -535 50 -846 157 -1222 649
-2402 1349 -3237 206 -246 490 -502 781 -704 429 -297 976 -572 1598 -805 220
-82 627 -218 752 -250 255 -67 667 -46 1000 50 215 62 495 189 725 329 453
274 1003 750 1436 1242 758 858 1257 1827 1459 2831 100 495 111 944 36 1386
l-17 103 85 87 c98 98 151 182 186 295 55 172 42 328 -47 566 -387 1030 -1007
1871 -1837 2489 -654 487 -1440 826 -2251 971 -96 17 -187 33 -201 36 l-27 5
-6 127 c-10 186 7 462 33 536 65 183 184 320 456 522 263 195 303 235 333 323
34 97 -14 206 -148 340 -240 241 -580 430 -890 496 -106 23 -309 28 -386 11z
m257 -360 c146 -14 354 -100 534 -220 113 -76 228 -172 223 -186 -2 -5 -66
-55 -143 -112 -350 -261 -531 -490 -600 -763 -23 -93 -34 -238 -34 -479 l-1
-199 -77 7 c-43 3 -178 9 -301 12 -122 4 -224 10 -227 14 -2 3 -13 53 -24 111
-102 525 -7 1184 228 1587 47 82 126 171 179 204 36 22 112 37 162 32 14 -2
50 -5 81 -8z m-436 -5186 c861 -27 1636 -102 2410 -231 1013 -170 1601 -382
1899 -685 140 -142 194 -269 235 -557 40 -273 50 -532 31 -728 -62 -612 -235
-1195 -532 -1789 -311 -623 -706 -1160 -1239 -1686 -328 -324 -593 -545 -884
-739 -482 -320 -871 -456 -1303 -456 -195 0 -214 3 -407 62 -1028 313 -1880
738 -2440 1218 -311 267 -632 669 -885 1111 -342 596 -601 1335 -724 2065 -66
387 -90 678 -90 1080 0 429 22 616 87 725 83 142 221 237 451 315 249 83 524
128 1311 215 707 78 1353 103 2080 80z"/>
</g>
</svg>
