<?xml version="1.0" standalone="no"?>
<!DOCTYPE svg PUBLIC "-//W3C//DTD SVG 20010904//EN"
 "http://www.w3.org/TR/2001/REC-SVG-20010904/DTD/svg10.dtd">
<svg version="1.0" xmlns="http://www.w3.org/2000/svg"
 width="1280.000000pt" height="1280.000000pt" viewBox="0 0 1280.000000 1280.000000"
 preserveAspectRatio="xMidYMid meet">
<metadata>
Created by potrace 1.15, written by Peter Selinger 2001-2017
</metadata>
<g transform="translate(0.000000,1280.000000) scale(0.100000,-0.100000)"
fill="#000000" stroke="none">
<path d="M5628 12279 c-255 -27 -541 -150 -622 -266 -26 -37 -52 -133 -37
-133 4 0 14 15 24 33 10 17 29 45 42 61 l24 30 12 -27 c10 -22 10 -30 -3 -44
-25 -29 -48 -80 -48 -107 l0 -25 -35 20 c-112 67 -318 64 -442 -5 -39 -22 -44
-23 -94 -10 -105 27 -117 17 -77 -66 15 -32 22 -65 23 -115 0 -38 4 -82 8 -96
8 -24 6 -27 -26 -33 -39 -7 -82 -45 -91 -81 -15 -57 39 -105 118 -105 30 0 36
-4 50 -40 9 -22 27 -58 41 -80 22 -35 24 -45 16 -78 -6 -20 -12 -61 -15 -89
-6 -69 9 -69 75 -2 l50 52 65 -18 c45 -12 74 -27 93 -47 l28 -30 20 26 c12 14
29 26 39 26 35 1 104 39 154 86 28 26 53 45 55 42 3 -3 -18 -44 -46 -91 l-52
-86 -66 -6 c-36 -4 -82 -11 -101 -17 -80 -24 -130 -89 -130 -170 0 -44 21
-165 40 -228 5 -19 10 -73 10 -120 0 -77 -3 -90 -26 -121 -36 -48 -86 -148
-79 -159 3 -5 -7 -16 -22 -24 -52 -28 -125 -108 -154 -171 -62 -133 -72 -260
-39 -540 23 -196 24 -235 9 -322 l-11 -64 -22 19 c-34 31 -62 42 -110 42 -122
0 -192 -184 -109 -288 48 -60 104 -85 200 -90 133 -7 211 36 249 138 25 67 28
230 10 432 -9 97 -16 209 -15 250 l0 73 24 -100 c28 -121 78 -278 114 -360
l26 -60 -3 -282 c-2 -236 -5 -283 -16 -283 -22 0 -25 -19 -35 -205 -18 -303
-74 -931 -100 -1111 -12 -81 -16 -136 -10 -151 13 -35 -1 -250 -22 -328 -29
-105 -34 -230 -15 -372 9 -67 16 -161 16 -210 0 -155 20 -301 65 -478 67 -263
134 -435 193 -497 25 -27 25 -28 18 -152 -7 -140 -36 -272 -156 -711 -104
-384 -234 -815 -287 -951 -4 -10 3 -14 21 -14 14 0 26 -4 26 -10 0 -11 -43
-223 -66 -325 -28 -123 -44 -322 -41 -525 l2 -195 90 -16 c50 -10 93 -14 96
-11 3 4 21 47 39 95 33 89 43 103 59 93 7 -5 -91 -286 -106 -305 -8 -11 -153
70 -236 131 -90 66 -167 114 -167 104 0 -3 21 -31 46 -62 41 -50 44 -56 23
-51 -13 4 -34 7 -46 7 -19 0 -23 5 -23 33 0 18 -6 41 -13 51 -18 25 -29 9 -60
-83 -14 -40 -31 -77 -39 -82 -11 -7 -11 -12 0 -29 7 -12 11 -29 8 -38 -3 -9
-17 -123 -31 -252 -40 -364 -42 -375 -54 -398 -6 -12 -28 -30 -49 -41 -85 -44
-173 -171 -205 -297 -8 -35 -23 -62 -45 -82 -79 -74 -9 -190 163 -273 35 -17
76 -29 100 -29 l40 0 -3 49 c-2 27 1 59 8 71 l12 22 25 -24 c14 -12 49 -59 78
-103 29 -44 63 -90 76 -102 36 -32 115 -63 163 -63 66 0 192 36 262 75 34 19
69 35 78 35 32 0 24 -19 -17 -43 -23 -14 -51 -34 -61 -46 l-19 -21 53 16 c29
9 64 20 77 25 14 5 42 9 64 9 32 0 41 4 48 23 8 20 4 24 -37 44 -26 12 -47 28
-47 34 0 7 -37 29 -83 49 -151 67 -219 162 -209 293 4 57 13 86 59 180 33 66
72 129 96 155 45 46 101 154 190 367 56 135 60 140 90 143 23 2 32 9 34 25 3
19 -6 25 -61 44 -123 44 -236 101 -235 120 1 10 38 113 82 228 102 269 287
821 303 903 l12 64 41 -6 c60 -8 357 -34 536 -47 239 -16 1470 -24 1680 -10
192 13 383 33 530 57 145 23 438 84 500 104 30 10 100 32 155 49 56 16 126 44
158 61 48 25 72 31 157 36 55 4 100 10 100 13 -1 3 -7 33 -15 66 -18 76 -19
72 5 80 11 3 20 10 20 14 0 5 -21 45 -46 89 -25 45 -69 146 -98 224 -29 79
-81 211 -116 293 -78 183 -370 772 -434 875 -25 41 -46 78 -46 83 0 23 97 130
152 168 177 120 350 293 454 456 20 32 90 112 156 179 l119 122 -56 77 c-31
43 -126 196 -212 339 -208 346 -316 505 -408 600 -41 43 -97 108 -122 144
l-47 65 22 15 c12 8 22 20 22 26 0 16 -158 308 -247 454 -107 177 -222 352
-355 538 -63 87 -142 200 -175 249 -34 50 -84 115 -110 145 -27 30 -70 84 -95
121 -47 66 -125 145 -135 135 -3 -3 7 -26 22 -51 l27 -46 -31 15 c-43 23 -45
20 -18 -16 25 -33 77 -131 77 -144 0 -4 -9 1 -20 11 -18 17 -21 16 -58 -13
-31 -25 -42 -29 -52 -19 -10 10 -11 8 -6 -9 6 -18 -18 -55 -27 -43 -2 2 -25
56 -52 119 -118 283 -372 757 -452 846 -44 49 -47 46 -25 -16 4 -10 -2 -9 -18
5 l-23 20 7 -20 c5 -17 0 -23 -29 -34 -25 -9 -37 -20 -41 -39 -17 -76 -21 -78
-27 -9 -3 37 -11 75 -16 84 -18 33 -26 -58 -24 -284 3 -379 29 -622 94 -877
14 -55 17 -82 10 -89 -18 -18 -12 -46 13 -62 21 -14 52 -72 43 -81 -4 -5 -182
-42 -185 -39 -2 1 22 16 52 33 30 17 57 35 60 40 3 5 -6 58 -19 118 -40 176
-66 384 -75 609 -10 231 -16 285 -35 300 -7 6 -12 34 -11 72 1 43 -4 67 -15
80 -9 10 -21 42 -26 71 l-10 52 44 11 c54 14 65 29 21 29 -54 0 -76 10 -86 39
l-10 26 -7 -27 c-6 -23 -10 -26 -26 -17 -28 15 -25 59 4 59 185 3 256 17 317
60 15 11 43 20 62 20 40 0 76 23 88 56 12 32 -7 90 -49 146 -50 67 -81 118
-73 118 9 0 108 -66 146 -97 23 -19 31 -21 36 -11 18 32 70 447 70 554 0 69
-18 125 -52 161 l-21 23 29 0 c20 0 42 11 65 33 20 17 46 41 60 53 39 34 119
135 119 150 0 8 10 14 21 14 21 0 22 3 15 79 -3 43 -12 99 -20 123 -13 43 -12
45 16 76 53 61 45 78 -98 192 -69 56 -132 104 -138 106 -7 3 -25 -11 -40 -31
-17 -22 -35 -35 -50 -35 -20 0 -23 7 -34 78 -7 42 -18 93 -24 112 -27 85 -118
191 -233 270 -147 101 -182 122 -244 141 -108 33 -343 52 -473 38z m284 -63
c152 -29 325 -100 386 -159 19 -18 81 -90 138 -160 l103 -128 -26 -72 c-14
-40 -27 -74 -29 -76 -6 -7 -44 83 -44 107 0 18 -6 22 -30 22 l-30 0 -1 -97
c-1 -80 -3 -91 -10 -60 -5 20 -18 55 -29 77 -25 49 -25 49 10 88 l30 32 51
-25 51 -26 -19 31 c-61 104 -253 289 -359 345 l-55 30 -27 -32 -27 -32 -40 24
c-87 53 -115 64 -210 87 l-98 23 64 6 c110 10 125 9 201 -5z m-122 -241 c0 -2
-20 -17 -45 -34 -51 -35 -55 -32 -20 15 18 23 30 31 45 27 11 -3 20 -7 20 -8z
m16 -32 c-18 -33 -21 -26 -6 13 6 15 13 24 16 21 3 -3 -1 -18 -10 -34z m124
-219 c0 -3 -36 27 -79 67 -44 40 -78 76 -75 80 4 7 154 -135 154 -147z m-139
-9 c13 -29 15 -41 6 -44 -7 -2 -19 -13 -28 -24 -15 -18 -18 -19 -37 -5 -20 14
-20 16 -5 38 15 21 15 24 -1 36 -16 12 -16 14 0 45 16 32 17 32 31 13 9 -10
23 -37 34 -59z m-1343 34 c-2 -6 -8 -10 -13 -10 -5 0 -11 4 -13 10 -2 6 4 11
13 11 9 0 15 -5 13 -11z m771 -22 c28 6 51 8 51 6 0 -2 -10 -18 -22 -36 -13
-18 -24 -33 -25 -35 0 -2 -15 4 -32 12 -16 9 -38 16 -48 16 -10 0 -24 9 -30
19 -11 18 -9 20 15 23 15 2 30 -1 34 -6 3 -5 27 -5 57 1z m811 -219 c70 -105
115 -197 125 -257 8 -52 -1 -61 -62 -61 -40 0 -41 1 -57 47 -16 48 -14 74 3
32 9 -21 10 -19 10 19 1 30 5 42 15 42 8 0 17 4 20 9 10 15 -5 41 -23 41 -11
0 -26 22 -45 65 -16 36 -48 87 -72 114 -36 40 -73 103 -92 156 -10 28 128
-132 178 -207z m305 113 c26 -55 27 -63 13 -77 -13 -14 -17 -9 -37 45 -12 33
-26 63 -32 67 -6 4 -6 11 2 20 16 19 20 14 54 -55z m217 7 c-8 -8 -9 -4 -5 13
4 13 8 18 11 10 2 -7 -1 -18 -6 -23z m199 -5 c13 -15 12 -15 -8 -4 -24 12 -29
21 -14 21 5 0 15 -7 22 -17z m-1561 -3 c12 -8 12 -13 -1 -41 l-16 -33 -10 42
c-11 44 -5 52 27 32z m1507 -86 c-3 -3 -12 -4 -19 -1 -8 3 -5 6 6 6 11 1 17
-2 13 -5z m243 -69 c0 -29 -16 -22 -37 16 l-21 39 29 -21 c16 -11 29 -27 29
-34z m-554 17 c-7 -20 -34 -37 -44 -27 -3 3 5 16 18 30 26 28 35 27 26 -3z
m-107 -36 c-11 -23 -97 -93 -104 -84 -1 2 -13 24 -28 51 -27 49 -23 61 8 27
24 -26 31 -25 85 9 25 16 46 27 48 26 1 -1 -3 -14 -9 -29z m-1859 -25 c0 -16
3 -36 6 -45 9 -23 -47 -21 -77 3 l-23 18 27 27 c36 36 67 35 67 -3z m687 -37
c-7 -45 -68 -173 -74 -157 -2 6 3 25 11 41 9 17 20 52 26 78 14 66 18 74 31
74 8 0 10 -12 6 -36z m71 -94 c-15 -23 -63 -47 -56 -28 3 7 13 38 23 68 l18
55 13 -38 c10 -30 11 -43 2 -57z m1179 -2 c-3 -8 -6 -5 -6 6 -1 11 2 17 5 13
3 -3 4 -12 1 -19z m-172 -177 c7 -43 7 -44 -16 -37 -13 4 -50 12 -81 19 -77
16 -75 32 8 55 23 7 48 19 55 28 12 14 14 14 20 -3 3 -10 10 -38 14 -62z m25
-137 c0 -34 0 -34 -46 -34 l-45 0 38 38 c21 20 41 36 46 34 4 -2 7 -19 7 -38z
m258 -1 c22 -30 28 -44 17 -39 -9 3 -46 6 -81 6 -62 0 -64 1 -64 25 0 14 6 27
13 29 6 2 26 8 42 14 17 5 32 10 35 10 3 1 20 -20 38 -45z m-1412 11 c-4 -9
-9 -15 -11 -12 -3 3 -3 13 1 22 4 9 9 15 11 12 3 -3 3 -13 -1 -22z m1490 -5
c19 -22 19 -22 -3 -10 -13 6 -23 16 -23 21 0 15 5 12 26 -11z m-293 -102 c4
-11 -28 -13 -176 -9 -100 2 -186 8 -191 13 -6 5 67 9 176 9 146 0 187 -3 191
-13z m252 2 c102 -19 154 -56 170 -122 7 -25 6 -25 -43 -24 -31 1 -57 9 -69
19 -30 27 -142 74 -208 88 -84 17 -85 18 -79 35 7 19 138 21 229 4z m-1455
-137 c0 -4 14 -16 31 -26 26 -15 33 -16 40 -5 5 8 9 20 9 28 0 18 96 6 153
-19 23 -11 46 -15 50 -11 12 12 57 1 57 -14 0 -8 -18 -16 -42 -20 -71 -12
-132 -36 -151 -58 -16 -21 -18 -21 -31 -4 -16 21 -30 22 -46 2 -17 -20 -30
-19 -30 4 0 14 -11 22 -43 30 l-44 10 2 53 c2 29 3 54 4 56 2 6 41 -19 41 -26z
m1630 -109 c0 -20 -3 -24 -11 -16 -7 7 -9 19 -6 27 10 24 17 19 17 -11z m-197
-93 c4 -16 0 -20 -23 -20 -28 0 -29 1 -18 30 8 23 13 28 23 20 7 -6 15 -20 18
-30z m-1696 -57 c-3 -10 -5 -2 -5 17 0 19 2 27 5 18 2 -10 2 -26 0 -35z m1189
-172 l33 -30 -52 -5 c-104 -11 -166 -12 -161 -4 3 4 11 8 18 8 7 0 37 13 67
30 30 16 56 30 58 30 2 0 18 -13 37 -29z m660 -28 c-4 -31 -8 -59 -10 -61 -5
-4 -136 81 -136 89 0 3 17 6 38 7 21 2 51 7 67 11 17 5 34 10 39 10 5 1 6 -24
2 -56z m-1883 -140 c5 -7 5 -13 1 -13 -13 0 -75 42 -71 49 1 3 11 24 21 46
l19 40 11 -55 c6 -30 15 -61 19 -67z m1415 62 c2 -2 -4 -15 -14 -29 -20 -31
-19 -31 -27 12 -6 31 -5 33 16 26 12 -3 23 -8 25 -9z m87 -37 c15 -7 33 -24
41 -40 8 -15 28 -38 44 -50 17 -12 30 -30 30 -40 0 -23 -55 -85 -92 -104 -28
-15 -29 -14 -19 5 6 11 8 27 5 35 -7 19 -10 19 -33 7 -16 -9 -18 -5 -17 32 1
34 -3 44 -21 52 -24 10 -24 18 3 83 14 35 21 38 59 20z m-1514 -87 c24 -11 66
-36 94 -55 l50 -36 -47 0 c-36 0 -50 4 -57 19 -6 10 -7 21 -4 25 10 9 -12 7
-22 -3 -6 -4 -23 -11 -39 -15 -23 -6 -27 -4 -22 8 3 9 9 23 12 31 5 11 2 13
-10 9 -12 -4 -16 0 -16 15 0 26 6 26 61 2z m1414 -1 c4 -6 -6 -10 -22 -10 -22
0 -25 2 -13 10 19 12 27 12 35 0z m-605 -30 c0 -5 -4 -10 -10 -10 -5 0 -10 5
-10 10 0 6 5 10 10 10 6 0 10 -4 10 -10z m998 -43 c-2 -12 -10 -23 -19 -25
-14 -3 -15 2 -6 38 8 30 13 36 20 25 4 -9 7 -26 5 -38z m-918 -245 c0 -5 -17
-51 -39 -104 -21 -52 -46 -119 -56 -149 -23 -70 -38 -87 -29 -32 3 23 3 90 -1
148 -7 102 -8 105 -31 105 -18 0 -26 -8 -33 -32 l-9 -33 -1 36 -1 36 73 15
c86 18 127 21 127 10z m-227 -21 c4 -4 3 -28 -2 -52 -5 -24 -14 -87 -20 -139
-19 -160 -9 -146 -106 -153 -47 -3 -93 -11 -104 -16 -10 -6 -44 -14 -75 -17
l-56 -7 0 30 c0 17 -3 50 -6 75 l-6 45 93 14 94 14 5 50 5 50 29 -77 c16 -43
32 -78 36 -78 8 0 20 126 20 218 l0 65 43 -7 c23 -4 46 -11 50 -15z m-637
-436 l4 -60 -34 100 c-50 151 -54 185 -10 95 25 -53 37 -92 40 -135z m583 28
c-1 -22 -17 -63 -18 -46 -2 22 -39 24 -92 3 -32 -12 -57 -16 -62 -11 -6 6 5
12 27 16 60 12 41 25 -36 25 -56 1 -69 3 -55 11 10 6 28 9 40 6 12 -3 40 -2
62 3 22 4 61 8 88 9 39 1 47 -2 46 -16z m-209 -58 c0 -2 -13 -11 -30 -20 -16
-9 -30 -11 -30 -6 0 7 22 19 58 30 1 1 2 -1 2 -4z m-83 -57 c-3 -7 -5 -2 -5
12 0 14 2 19 5 13 2 -7 2 -19 0 -25z m1528 -383 c64 -236 127 -496 121 -502
-6 -7 -72 167 -100 265 -24 83 -85 376 -100 477 l-6 40 16 -40 c8 -22 39 -130
69 -240z m-1295 174 c-16 -98 -20 -110 -30 -104 -5 3 -31 -4 -59 -15 -49 -19
-51 -19 -51 -1 0 10 -3 39 -6 65 -6 41 -5 46 12 46 11 0 28 7 38 15 11 8 27
15 36 15 9 0 27 12 39 26 12 14 25 24 27 21 3 -3 0 -34 -6 -68z m-135 41 c-3
-5 -10 -10 -16 -10 -5 0 -9 5 -9 10 0 6 7 10 16 10 8 0 12 -4 9 -10z m-795
-40 c74 -74 59 -130 -36 -130 -55 0 -57 16 -12 72 l32 40 -35 -17 c-53 -27
-79 -55 -79 -87 0 -65 121 -83 200 -28 14 9 41 22 60 29 19 6 49 25 67 42 l31
31 -9 -43 c-13 -56 -36 -96 -72 -123 -24 -18 -43 -21 -115 -21 -102 0 -153 20
-189 74 -54 81 -4 201 84 201 25 0 43 -10 73 -40z m906 -167 c-2 -10 -8 -54
-11 -98 -6 -73 -50 -225 -66 -225 -3 0 -9 44 -13 98 -3 53 -9 120 -12 148 l-6
51 48 20 c61 27 67 27 60 6z m-142 -193 c4 -47 14 -114 22 -150 13 -60 13 -69
-5 -115 l-19 -49 -3 81 c-4 74 -7 85 -37 121 -32 41 -40 62 -23 62 12 0 41 29
41 41 0 5 -13 9 -30 9 -38 0 -38 9 3 68 38 57 41 53 51 -68z m193 -42 l-12
-106 -59 -81 c-33 -44 -61 -79 -62 -78 -2 2 29 87 69 189 40 103 73 186 74
184 1 -1 -4 -49 -10 -108z m2042 -350 c53 -69 136 -197 186 -284 144 -252 192
-317 344 -474 77 -79 139 -145 138 -146 -35 -24 -111 -59 -178 -82 -189 -67
-316 -148 -385 -248 -32 -46 -40 -53 -45 -37 -7 16 -102 239 -115 270 -6 12
179 77 256 89 23 4 44 13 47 19 2 7 -8 33 -23 57 -40 62 -76 145 -128 294 -54
156 -139 366 -270 672 -53 123 -96 226 -96 229 0 2 39 -49 86 -114 48 -65 130
-175 183 -245z m-588 -179 c9 -38 14 -69 12 -69 -2 0 -13 5 -25 11 -11 6 -34
12 -52 12 -48 3 -48 39 0 88 21 21 40 36 43 33 3 -3 13 -36 22 -75z m-419 46
c6 -30 -5 -41 -21 -21 -8 10 -23 13 -47 9 -26 -4 -34 -2 -34 10 0 17 18 24 66
26 26 1 32 -3 36 -24z m74 9 c-3 -9 -6 -21 -6 -27 0 -16 -20 14 -20 31 0 6 7
12 16 12 11 0 14 -5 10 -16z m-234 -30 c-2 -14 -15 -30 -28 -36 -13 -6 -24
-19 -26 -28 -2 -14 -8 -16 -25 -9 -19 7 -23 16 -23 48 0 43 7 48 71 50 34 1
36 -1 31 -25z m-612 -54 c9 -32 9 -32 -22 -26 -17 3 -39 6 -49 6 -30 0 -22 17
11 24 17 3 33 13 36 21 8 20 12 16 24 -25z m-442 -80 c7 0 37 -18 67 -41 30
-23 80 -49 112 -59 34 -10 58 -24 58 -31 0 -8 -4 -13 -10 -13 -42 7 -312 69
-318 74 -4 4 -3 30 3 58 l11 51 32 -20 c18 -10 38 -19 45 -19z m8 -151 c46
-12 83 -23 81 -26 -2 -2 -44 3 -92 12 -48 8 -92 15 -96 15 -5 0 -9 5 -9 10 0
15 21 13 116 -11z m764 -54 c0 -14 -4 -25 -10 -25 -5 0 -10 11 -10 25 0 14 5
25 10 25 6 0 10 -11 10 -25z m-363 -61 c-3 -3 -12 -4 -19 -1 -8 3 -5 6 6 6 11
1 17 -2 13 -5z m388 -91 c3 -32 10 -88 16 -125 5 -37 9 -90 9 -117 0 -44 -3
-51 -20 -51 -23 0 -26 18 -35 171 -3 58 -9 119 -13 135 -12 44 -5 66 18 54 13
-7 20 -26 25 -67z m-283 -27 c-2 -51 -8 -86 -14 -86 -6 0 -8 10 -4 23 3 12 6
53 6 90 0 38 3 66 8 64 4 -3 6 -44 4 -91z m1068 80 c-51 -27 -70 -29 -70 -7 0
18 6 21 48 21 45 -1 46 -1 22 -14z m-954 -194 c-2 -1 -17 1 -34 4 -32 6 -32 7
-32 68 l1 61 33 -65 c19 -36 33 -66 32 -68z m1474 103 c-15 -18 1 -20 18 -3 8
8 14 4 22 -18 27 -69 24 -74 -82 -116 l-96 -38 -47 21 c-36 16 -61 20 -102 17
l-54 -5 46 43 c40 37 59 45 148 67 57 15 114 31 127 36 34 13 34 13 20 -4z
m-730 -125 c0 -5 -2 -10 -4 -10 -3 0 -8 5 -11 10 -3 6 -1 10 4 10 6 0 11 -4
11 -10z m1624 -45 l16 -25 -40 -1 c-22 -1 -45 -2 -52 -3 -23 -2 -17 20 9 36
38 23 48 22 67 -7z m-600 0 c3 -8 1 -15 -4 -15 -6 0 -10 7 -10 15 0 8 2 15 4
15 2 0 6 -7 10 -15z m-2634 -25 c0 -19 -11 -26 -23 -14 -8 8 3 34 14 34 5 0 9
-9 9 -20z m950 -62 c0 -5 -16 -8 -35 -8 -33 0 -35 2 -29 28 15 67 15 66 40 26
13 -22 24 -42 24 -46z m-850 46 c0 -2 -12 -4 -26 -4 -14 0 -23 4 -20 9 6 8 46
4 46 -5z m2210 -73 c-21 -13 -125 -38 -185 -45 -48 -6 -49 -6 -20 7 17 8 36
21 44 30 10 13 31 17 95 17 51 0 76 -4 66 -9z m-2224 -78 c-10 -10 -19 5 -10
18 6 11 8 11 12 0 2 -7 1 -15 -2 -18z m901 -20 c8 -38 8 -52 -3 -68 -23 -33
-17 -81 14 -116 23 -26 38 -33 80 -37 58 -5 62 -14 38 -81 l-12 -34 -58 67
c-33 37 -60 65 -62 63 -2 -2 11 -60 30 -128 44 -163 45 -171 37 -193 -6 -15
-12 -8 -36 38 -24 48 -34 58 -67 67 -33 8 -44 7 -71 -9 -18 -11 -67 -28 -111
-37 -66 -15 -80 -15 -87 -4 -5 8 -9 17 -9 21 0 4 44 30 98 57 100 51 156 94
149 114 -2 7 -16 11 -29 10 -18 -1 -29 6 -37 23 -9 21 -8 24 8 24 10 0 24 7
32 16 20 24 -5 34 -76 31 -46 -2 -78 -12 -140 -42 -84 -42 -98 -52 -90 -72 7
-20 -5 -15 -43 18 -20 18 -59 42 -86 55 -47 21 -49 23 -21 24 21 0 26 3 16 9
-10 7 -8 10 10 16 33 10 69 45 69 67 0 11 7 18 19 18 11 0 27 3 36 7 14 5 16
3 8 -13 -14 -27 -1 -115 18 -127 26 -16 62 0 87 38 26 41 28 81 5 107 -14 16
-14 18 0 18 8 0 22 3 30 6 12 4 15 -3 14 -31 -1 -45 17 -61 81 -71 57 -9 75 2
86 53 7 35 5 44 -13 62 -11 11 -21 25 -21 29 0 7 75 50 90 51 3 1 10 -20 17
-46z m79 -15 c-22 -15 -36 -8 -36 17 0 26 0 26 24 8 16 -12 20 -20 12 -25z
m-1129 2 c-6 -16 -13 -27 -15 -25 -7 7 8 55 17 55 5 0 4 -13 -2 -30z m53 0 c0
-16 -4 -30 -10 -30 -11 0 -14 43 -3 53 11 12 13 8 13 -23z m121 -20 c28 -15
24 -40 -6 -40 -20 0 -25 5 -25 25 0 28 3 29 31 15z m-61 -15 c0 -8 -2 -15 -4
-15 -2 0 -6 7 -10 15 -3 8 -1 15 4 15 6 0 10 -7 10 -15z m804 -12 c7 -17 -9
-33 -31 -33 -16 0 -17 22 -1 38 16 16 25 15 32 -5z m-551 -13 c20 0 30 -7 37
-24 5 -13 18 -31 30 -39 21 -14 19 -15 -32 -21 -29 -4 -82 -9 -117 -12 l-65
-6 31 35 c17 20 34 45 38 57 5 16 12 20 28 16 12 -3 34 -6 50 -6z m2963 -6
c47 -22 45 -50 -3 -58 -69 -11 -73 -9 -73 28 0 32 -3 35 -32 39 -22 2 -15 4
20 5 32 1 68 -5 88 -14z m-2188 -41 c-15 -18 -21 -9 -13 18 6 16 9 18 16 8 4
-8 3 -19 -3 -26z m-999 -3 c42 -6 44 -7 19 -14 -38 -11 -75 0 -89 27 -11 20
-11 21 5 7 10 -8 39 -17 65 -20z m1031 -20 c8 -5 12 -12 8 -15 -10 -10 -49 5
-43 16 8 11 16 11 35 -1z m-1130 -15 c11 -13 8 -15 -21 -15 -32 1 -33 1 -15
15 24 18 21 18 36 0z m2065 -6 c-22 -4 -53 -8 -70 -8 -26 0 -27 2 -10 9 11 5
43 8 70 8 l50 0 -40 -9z m-2235 -48 c0 -3 -11 -19 -25 -36 -25 -31 -29 -27
-19 23 5 23 10 28 25 25 10 -3 19 -8 19 -12z m3036 -35 c-5 -27 -13 -37 -38
-45 -17 -6 -39 -11 -49 -11 -11 0 -19 -4 -19 -10 0 -5 -7 -10 -15 -10 -20 0
-19 22 3 44 18 19 114 74 121 70 2 -2 0 -19 -3 -38z m-1566 -132 c0 -36 -5
-61 -15 -71 -14 -13 -17 -10 -34 29 -11 23 -23 55 -26 70 -6 24 -4 27 27 30
18 2 36 2 41 0 4 -2 7 -28 7 -58z m-1167 -14 c-3 -11 -10 -23 -16 -27 -7 -4
-8 0 -4 11 4 10 7 22 7 27 0 5 4 9 9 9 5 0 7 -9 4 -20z m208 10 c5 0 9 -4 9
-10 0 -5 -13 -10 -30 -10 -22 0 -28 4 -23 16 3 8 12 13 20 10 8 -3 19 -6 24
-6z m409 -165 c0 -8 -2 -15 -4 -15 -2 0 -6 7 -10 15 -3 8 -1 15 4 15 6 0 10
-7 10 -15z m370 -46 c0 -6 -4 -7 -10 -4 -16 10 -12 -1 39 -103 48 -97 117
-290 106 -300 -3 -3 -25 15 -49 41 -40 44 -43 45 -38 19 8 -47 -5 -20 -37 76
-17 52 -46 127 -65 167 l-34 73 37 24 c36 24 51 26 51 7z m2577 -131 c-3 -8
-6 -5 -6 6 -1 11 2 17 5 13 3 -3 4 -12 1 -19z m307 -157 l48 -69 -52 -50 c-50
-48 -51 -49 -44 -20 8 38 7 185 -1 198 -3 6 -4 10 -2 10 2 0 25 -31 51 -69z
m-3268 41 c6 -4 8 -16 4 -27 -7 -19 -7 -19 -18 2 -18 33 -12 43 14 25z m1683
-205 c1 -5 -3 -5 -9 -2 -5 3 -10 16 -9 28 0 21 1 21 9 2 5 -11 9 -24 9 -28z
m-1120 -52 l43 -27 -4 -76 c-2 -50 -9 -85 -19 -100 -16 -22 -17 -21 -12 41 6
73 -6 118 -43 162 -25 29 -26 29 -20 5 3 -14 9 -45 11 -70 5 -44 5 -44 -13 15
-10 33 -26 78 -36 100 l-17 40 33 -31 c18 -18 53 -44 77 -59z m-59 -240 c-10
-30 -16 -35 -41 -35 -17 0 -40 5 -51 11 -19 10 -16 14 38 44 33 19 60 30 62
24 2 -5 -2 -25 -8 -44z m880 -169 c0 -6 -71 -29 -75 -24 -2 2 5 23 16 48 l20
44 19 -32 c11 -18 20 -34 20 -36z m-1194 -68 c-6 -4 -26 -8 -43 -8 -32 0 -33
1 -33 46 l0 45 44 -38 c29 -25 40 -41 32 -45z m2044 1 c-18 -43 -24 -28 -8 23
8 27 14 36 16 25 2 -10 -2 -32 -8 -48z m-355 11 c-10 -11 -20 -18 -22 -16 -2
2 1 16 7 31 8 21 14 25 22 17 9 -9 7 -17 -7 -32z m424 -80 c9 -7 41 -58 41
-65 0 -3 -20 11 -44 31 -39 32 -43 40 -34 57 10 20 11 20 21 1 6 -10 13 -21
16 -24z m-48 -77 c12 -27 30 -70 41 -98 l19 -50 -66 65 c-73 71 -72 72 -35
-48 20 -65 17 -78 -10 -42 l-20 25 0 -22 c0 -36 -25 -27 -40 15 -8 20 -14 39
-15 42 0 3 -6 14 -12 25 -10 17 -14 18 -38 7 -14 -7 -36 -12 -48 -12 -15 0 1
13 45 36 37 20 84 51 105 70 21 18 42 33 46 34 4 0 17 -21 28 -47z m-202 -3
c16 -8 -121 -68 -176 -77 -34 -6 -35 -5 -22 16 8 11 18 21 24 21 5 0 35 14 65
30 52 27 73 29 109 10z m-2593 -125 c25 -38 11 -41 -28 -6 -31 28 -31 30 -11
31 13 0 29 -11 39 -25z m1919 -210 c-60 -30 -55 -29 -55 -6 0 19 6 21 90 29 8
1 -7 -10 -35 -23z m-77 -20 c2 -15 -14 -29 -68 -59 -39 -22 -69 -45 -66 -51 2
-7 0 -18 -5 -26 -6 -10 -9 -4 -9 19 0 25 -4 32 -20 32 -11 0 -20 -5 -20 -11 0
-6 -10 -9 -22 -7 -21 3 -23 8 -20 48 2 25 5 46 5 47 4 4 193 31 207 29 8 -1
16 -10 18 -21z m-258 -55 l0 -40 -70 0 c-59 0 -70 -3 -70 -17 0 -11 -3 -14
-10 -7 -6 6 -5 24 2 51 11 45 14 46 116 51 31 2 32 1 32 -38z m-1630 15 c-7
-8 -16 -15 -21 -15 -5 0 -9 7 -9 15 0 9 9 15 21 15 18 0 19 -2 9 -15z m-8 -50
c-2 -14 -6 -25 -8 -25 -2 0 -4 11 -4 25 0 14 4 25 9 25 4 0 6 -11 3 -25z m73
13 c-32 -103 -39 -124 -44 -128 -4 -3 -12 -16 -19 -30 -11 -23 -12 -21 -8 20
3 25 10 69 16 98 10 45 15 52 36 52 14 0 22 -5 19 -12z m71 -34 c-3 -26 -6
-60 -6 -75 0 -46 -26 -36 -34 14 -4 23 -9 57 -12 75 -6 31 -5 32 26 32 l33 0
-7 -46z m58 38 c9 -15 24 -126 19 -139 -3 -7 -19 -13 -35 -13 l-30 0 7 53 c3
28 8 64 11 80 6 27 18 35 28 19z m1704 -29 c-10 -2 -28 -2 -40 0 -13 2 -5 4
17 4 22 1 32 -1 23 -4z m-1403 -163 c6 -9 -75 -424 -81 -417 -1 1 0 98 3 215
l6 212 33 0 c18 0 36 -5 39 -10z m274 -56 c7 -6 -70 -339 -81 -349 -8 -7 -9
-5 -5 6 3 9 9 93 12 187 l8 171 31 -6 c17 -3 33 -7 35 -9z m-112 -796 c-3 -8
-6 -5 -6 6 -1 11 2 17 5 13 3 -3 4 -12 1 -19z m309 -53 c-4 -18 -14 -36 -22
-39 -11 -4 -15 -2 -11 8 3 8 11 34 18 58 14 49 25 28 15 -27z m1265 -26 c-18
-7 -27 21 -16 49 5 14 9 11 19 -13 11 -26 11 -31 -3 -36z m-1756 -85 c-22 -54
-27 -37 -7 26 11 36 18 47 20 33 2 -11 -4 -38 -13 -59z m-319 -141 l-26 -23
-6 24 c-4 16 5 56 23 108 l28 83 3 -84 c3 -79 1 -86 -22 -108z m3277 131 l18
-25 -56 -24 c-30 -14 -59 -25 -63 -25 -5 0 -18 21 -31 48 -21 43 -21 45 -4 29
19 -17 22 -17 64 2 55 25 51 25 72 -5z m-207 -70 c19 -15 34 -30 34 -34 0 -9
-59 -25 -65 -18 -7 7 -17 78 -10 78 3 0 22 -12 41 -26z m-64 -29 c6 -28 13
-25 -121 -49 -47 -9 -86 -14 -88 -12 -2 2 23 13 54 25 32 11 76 31 98 44 46
27 51 27 57 -8z m589 -63 c6 -31 5 -32 -25 -32 -17 0 -41 -3 -53 -6 -15 -4
-24 0 -32 15 -10 18 -7 22 31 40 56 26 71 23 79 -17z m-1331 10 c0 -5 13 -29
29 -53 21 -31 26 -46 18 -50 -14 -7 -248 -42 -252 -37 -1 2 -5 17 -8 34 -8 41
13 59 73 68 25 4 63 15 85 26 46 21 55 23 55 12z m375 -41 c-37 -15 -95 -22
-95 -12 0 8 25 13 100 19 8 0 6 -3 -5 -7z m830 -1 c3 -5 2 -10 -4 -10 -5 0
-16 -3 -25 -6 -11 -4 -16 -1 -16 10 0 18 35 22 45 6z m-1562 -7 c-13 -2 -35
-2 -50 0 -16 2 -5 4 22 4 28 0 40 -2 28 -4z m1507 -2 c0 -10 -24 -21 -43 -21
-7 0 -3 7 7 15 22 17 36 19 36 6z m-3872 -49 c-18 -8 -25 4 -15 28 l10 25 6
-25 c4 -14 4 -26 -1 -28z m3822 -2 c-20 -13 -43 -13 -35 0 3 6 16 10 28 10 18
0 19 -2 7 -10z m-1336 -16 c10 -25 -2 -34 -46 -34 l-41 0 34 24 c41 30 45 30
53 10z m-864 -85 c0 -5 -11 -9 -25 -9 -26 0 -34 15 -12 23 16 5 37 -3 37 -14z
m1480 -67 c0 -17 -16 -21 -122 -36 -160 -22 -402 -46 -453 -45 -22 1 32 12
120 25 88 13 216 34 285 47 160 31 170 32 170 9z m-3156 -67 c-7 -18 -8 -18
-64 -1 l-45 15 57 0 c47 1 56 -2 52 -14z m287 -2 c5 -5 -5 -35 -21 -68 -16
-33 -30 -66 -30 -74 0 -8 -6 -11 -16 -7 -9 3 -20 6 -24 6 -5 0 -10 23 -12 51
l-3 51 -85 29 -85 29 134 -5 c74 -2 138 -8 142 -12z m-839 -1198 c0 -120 1
-115 -28 -115 -23 0 -25 3 -20 28 3 15 8 47 11 72 11 80 17 101 27 98 5 -2 10
-39 10 -83z m174 61 c57 -19 214 -106 192 -106 -20 0 -268 115 -268 125 0 7 0
7 76 -19z m121 -132 c46 -20 41 -26 -7 -9 -50 18 -88 40 -51 29 13 -3 39 -13
58 -20z m250 -79 c37 -9 78 -17 89 -20 22 -5 21 -5 -10 -81 l-31 -76 -15 48
c-10 33 -30 65 -62 97 -26 26 -45 47 -43 47 2 0 34 -7 72 -15z m-302 -121
c109 -36 136 -46 132 -50 -1 -2 -27 4 -56 12 -58 17 -118 13 -165 -11 -16 -8
-29 -15 -30 -15 -1 0 0 37 3 81 1 16 6 20 19 15 9 -3 53 -17 97 -32z m80 -63
l20 -8 -20 -6 c-43 -12 -175 -19 -175 -9 0 25 127 42 175 23z m75 -77 c0 -43
-1 -45 -22 -38 -44 15 -81 6 -119 -32 -37 -36 -37 -36 -49 -14 -14 26 -16 24
40 41 33 10 51 24 69 52 19 28 31 37 53 37 27 0 28 -2 28 -46z m-228 -67 c13
-21 -1 -20 -34 3 l-33 22 30 -7 c16 -4 33 -12 37 -18z m-13 -40 l41 -24 -33
-44 c-18 -24 -41 -57 -51 -73 l-19 -29 -14 27 c-15 28 -10 86 8 86 5 0 9 18 9
40 0 22 4 40 9 40 5 0 27 -11 50 -23z m298 -69 c17 -38 -14 -110 -69 -158 -63
-55 -127 -182 -135 -267 l-6 -60 -43 24 c-24 14 -46 28 -48 32 -3 4 23 37 58
72 47 49 68 79 81 119 10 30 27 73 38 95 20 39 21 39 27 15 5 -22 7 -23 13 -7
4 10 7 30 7 44 0 24 48 112 61 113 3 0 10 -10 16 -22z m-697 -208 c0 -19 -36
-47 -47 -36 -6 6 29 55 40 56 4 0 7 -9 7 -20z m0 -207 c0 -14 -19 -38 -25 -32
-8 8 5 39 16 39 5 0 9 -3 9 -7z m303 -93 c-3 -11 -8 -20 -12 -20 -3 0 -12 9
-19 20 -11 18 -10 20 12 20 19 0 23 -4 19 -20z m-115 -142 c-3 -21 -4 -21 -22
6 -18 29 -18 30 0 43 17 13 19 12 22 -6 2 -12 2 -31 0 -43z m66 -13 c-7 -41
13 -80 52 -97 29 -13 29 -16 5 -47 l-18 -24 -48 77 -48 77 23 24 c32 34 42 31
34 -10z m-234 -39 c0 -26 -13 -34 -43 -24 -27 10 -29 12 -11 19 21 8 54 11 54
5z"/>
<path d="M8775 3463 c8 -32 43 -138 79 -236 36 -98 66 -181 66 -185 -1 -15
-40 69 -75 163 -43 115 -121 275 -134 275 -5 0 -47 -16 -94 -36 l-85 -35 23
-67 c25 -72 127 -354 140 -387 11 -28 -157 211 -232 330 -76 121 -112 167
-113 143 -1 -41 48 -137 134 -265 50 -76 139 -208 196 -294 58 -85 132 -197
165 -248 51 -80 60 -90 63 -68 2 17 12 29 30 35 15 5 51 19 79 31 l53 21 19
-38 19 -38 -195 -129 c-107 -72 -196 -132 -198 -135 -2 -3 3 -13 10 -23 12
-17 16 -17 74 12 33 17 63 31 65 31 3 0 -6 -16 -19 -36 -14 -20 -25 -43 -25
-51 0 -7 -21 -27 -47 -44 -45 -28 -49 -29 -60 -12 -7 10 -19 27 -28 38 -15 19
-16 18 -10 -20 3 -22 19 -68 35 -102 36 -77 205 -337 258 -395 21 -24 49 -60
61 -81 23 -37 23 -39 5 -58 -18 -20 -18 -20 8 -10 25 10 29 7 66 -52 51 -82
68 -115 75 -154 4 -18 16 -42 27 -53 11 -11 20 -29 20 -40 0 -17 7 -20 46 -20
50 0 132 18 139 31 3 4 -4 25 -15 46 -12 23 -20 57 -20 86 0 48 0 48 48 70 78
35 222 29 725 -28 27 -3 69 -3 94 1 l46 7 -7 116 c-6 104 -18 186 -28 196 -2
2 -24 -1 -48 -6 -131 -30 -329 36 -548 183 -62 42 -133 84 -158 94 -42 16 -47
16 -80 1 l-34 -17 15 30 c21 41 19 92 -5 118 -29 30 -31 28 -14 -14 11 -25 12
-44 6 -62 -9 -26 -9 -25 -17 16 -4 27 -18 54 -36 73 -22 23 -27 35 -23 58 9
45 -12 45 -40 -2 l-27 -42 6 50 c4 28 9 59 11 70 4 15 -8 30 -41 59 -55 45
-107 53 -134 19 -10 -11 -30 -24 -47 -27 -16 -4 -40 -15 -53 -25 -19 -15 -29
-16 -52 -8 -27 11 -27 11 39 44 37 18 91 51 121 74 31 23 59 38 68 35 10 -4
13 -2 10 8 -3 8 3 22 13 31 17 15 20 13 53 -42 19 -32 60 -108 90 -168 32 -63
72 -125 93 -145 34 -33 36 -34 29 -10 -14 53 -186 387 -218 424 -30 35 -35 38
-56 26 -13 -6 -27 -8 -31 -3 -14 13 -102 242 -195 503 -90 254 -143 376 -175
405 -18 16 -18 15 -5 -42z m164 -1162 c11 -7 8 -12 -12 -26 -14 -9 -31 -14
-36 -11 -5 4 -17 -4 -25 -16 -20 -28 -21 -16 -1 22 13 24 24 32 55 39 3 0 11
-3 19 -8z m111 -110 c0 -37 -17 -49 -35 -25 -11 16 -11 22 2 37 23 25 33 21
33 -12z m-266 -77 c20 -19 21 -44 3 -44 -11 0 -37 39 -37 55 0 10 19 4 34 -11z
m490 -57 c9 -16 5 -23 -24 -48 l-35 -30 -3 30 c-6 60 35 92 62 48z m-94 -59
c0 -59 13 -65 60 -30 34 25 47 29 62 21 17 -9 14 -14 -33 -57 -56 -50 -69 -59
-69 -44 0 5 -18 36 -39 70 -34 51 -37 61 -23 65 37 10 42 7 42 -25z m532 -159
c148 -95 345 -158 460 -147 35 4 48 1 53 -9 3 -8 5 -57 5 -109 l0 -94 -77 6
c-43 4 -121 12 -172 18 -94 11 -95 11 -69 28 23 15 30 15 73 2 75 -22 112 -18
146 15 21 21 29 39 29 65 0 42 -20 60 -21 19 0 -26 -1 -26 -9 -7 -12 29 -23
35 -74 38 -30 2 -52 -3 -67 -15 -23 -17 -24 -17 -41 13 -13 21 -45 42 -111 73
-163 76 -192 88 -205 86 -10 -2 -12 4 -7 20 7 21 6 21 -15 6 -15 -10 -34 -14
-54 -10 -41 8 -41 8 -17 39 12 16 21 41 21 62 l0 36 35 -41 c19 -23 72 -65
117 -94z m-217 -210 c22 -11 90 -38 150 -59 l110 -39 -100 5 c-106 6 -207 -6
-255 -29 -16 -8 -31 -12 -34 -9 -15 14 -3 43 25 59 29 17 31 25 14 65 -4 11
-1 18 12 21 32 8 38 7 78 -14z m-156 -340 c-8 -5 -27 -8 -44 -8 l-30 1 35 12
c36 14 62 10 39 -5z"/>
</g>
</svg>
