<?xml version="1.0" standalone="no"?>
<!DOCTYPE svg PUBLIC "-//W3C//DTD SVG 20010904//EN"
 "http://www.w3.org/TR/2001/REC-SVG-20010904/DTD/svg10.dtd">
<svg version="1.0" xmlns="http://www.w3.org/2000/svg"
 width="1280.000000pt" height="640.000000pt" viewBox="0 0 1280.000000 640.000000"
 preserveAspectRatio="xMidYMid meet">
<metadata>
Created by potrace 1.15, written by Peter Selinger 2001-2017
</metadata>
<g transform="translate(0.000000,640.000000) scale(0.100000,-0.100000)"
fill="#000000" stroke="none">
<path d="M11050 4477 c0 -7 11 -29 25 -49 23 -35 24 -36 5 -41 -32 -8 -25 -55
31 -194 81 -201 149 -415 149 -469 0 -7 -57 -13 -167 -17 -493 -19 -1512 -162
-5183 -727 -3958 -609 -5067 -800 -5690 -980 -171 -50 -222 -69 -214 -82 7
-11 48 -8 364 28 299 34 1048 142 2515 364 330 50 717 108 860 130 448 68
2460 376 2900 445 231 36 621 97 866 135 1685 262 3290 528 3647 603 77 16
115 20 117 13 9 -28 17 -159 24 -353 5 -145 11 -216 20 -227 10 -12 9 -20 -3
-45 -20 -37 -21 -81 -3 -81 20 0 86 50 237 179 338 290 515 416 872 617 244
138 288 164 316 190 15 13 36 31 47 39 19 14 19 16 2 29 -20 16 -54 23 -392
90 -417 82 -639 152 -1145 360 -132 55 -200 69 -200 43z m665 -439 c214 -73
413 -113 625 -126 l115 -7 -95 -34 c-276 -100 -570 -290 -789 -510 -52 -53
-91 -87 -87 -76 18 46 37 136 47 220 28 225 -34 485 -155 655 l-33 45 131 -65
c72 -36 181 -82 241 -102z"/>
</g>
</svg>
