<?xml version="1.0" standalone="no"?>
<!DOCTYPE svg PUBLIC "-//W3C//DTD SVG 20010904//EN"
 "http://www.w3.org/TR/2001/REC-SVG-20010904/DTD/svg10.dtd">
<svg version="1.0" xmlns="http://www.w3.org/2000/svg"
 width="956.000000pt" height="1280.000000pt" viewBox="0 0 956.000000 1280.000000"
 preserveAspectRatio="xMidYMid meet">
<metadata>
Created by potrace 1.15, written by Peter Selinger 2001-2017
</metadata>
<g transform="translate(0.000000,1280.000000) scale(0.100000,-0.100000)"
fill="#000000" stroke="none">
<path d="M1071 12789 c-65 -13 -163 -61 -211 -105 -153 -138 -274 -433 -389
-944 -197 -881 -251 -1753 -156 -2520 18 -142 25 -191 65 -415 16 -88 31 -182
35 -210 13 -100 46 -305 82 -495 l36 -196 -35 -54 c-46 -71 -95 -169 -124
-247 -13 -34 -44 -92 -69 -129 -184 -268 -282 -672 -301 -1234 -6 -180 8 -586
23 -669 5 -30 7 -31 16 -15 9 17 287 476 291 481 1 1 0 -82 -2 -185 -6 -271
27 -513 113 -830 100 -370 303 -858 537 -1288 l33 -62 0 97 c1 112 21 177 84
275 40 60 181 210 181 191 0 -6 -6 -37 -14 -70 -102 -445 144 -1064 704 -1773
60 -75 120 -150 134 -167 l26 -30 -15 38 c-20 50 -21 145 -1 232 18 76 134
322 146 308 4 -4 28 -60 53 -123 196 -496 524 -1034 896 -1470 44 -52 109
-133 143 -180 173 -237 293 -365 456 -483 47 -34 119 -91 161 -126 86 -73 230
-170 311 -211 118 -58 345 -143 438 -162 182 -38 322 -7 517 112 93 56 215
152 317 248 46 43 99 90 120 103 94 63 239 194 322 290 50 58 132 150 181 205
379 416 702 884 924 1339 65 132 166 365 195 450 7 18 10 16 32 -20 46 -74 74
-135 103 -223 39 -115 46 -182 27 -252 -8 -30 -13 -56 -12 -58 2 -1 48 54 103
123 412 516 662 975 744 1366 34 164 31 380 -8 524 -8 32 133 -112 178 -181
63 -97 83 -163 84 -275 l0 -96 24 41 c99 174 295 592 386 826 198 507 281 904
273 1309 -1 105 -3 191 -2 191 1 0 68 -112 150 -249 82 -138 151 -250 154
-250 3 -1 6 7 6 17 1 9 7 127 14 262 42 807 -80 1405 -355 1735 -23 28 -65 98
-93 158 -28 59 -64 126 -81 150 l-30 42 15 70 c8 38 24 121 35 185 11 63 36
180 55 260 196 807 243 1562 149 2389 -70 610 -218 1275 -354 1592 -102 236
-245 365 -436 392 -93 14 -226 -7 -380 -58 -268 -90 -387 -181 -915 -700 -173
-171 -462 -452 -642 -626 l-326 -316 -117 46 -117 46 74 12 c40 7 96 15 123
19 l50 8 -55 8 c-30 5 -127 11 -215 12 -143 3 -172 7 -275 35 -63 17 -125 31
-137 31 -33 0 -29 12 20 57 63 59 139 84 272 91 l110 6 -85 12 c-140 20 -402
28 -530 15 -159 -16 -337 -54 -482 -101 l-122 -40 -175 2 -175 3 40 37 c53 51
138 95 226 117 l73 19 -90 7 c-119 10 -362 0 -455 -19 -257 -52 -467 -150
-684 -320 -33 -25 -56 -46 -51 -46 4 0 39 9 77 21 82 24 103 19 26 -7 -29 -9
-83 -30 -120 -45 l-67 -28 -151 156 c-82 86 -150 159 -150 163 0 10 -874 866
-1004 983 -217 196 -363 287 -551 346 -174 55 -301 70 -404 50z"/>
</g>
</svg>
