<?xml version="1.0" standalone="no"?>
<!DOCTYPE svg PUBLIC "-//W3C//DTD SVG 20010904//EN"
 "http://www.w3.org/TR/2001/REC-SVG-20010904/DTD/svg10.dtd">
<svg version="1.0" xmlns="http://www.w3.org/2000/svg"
 width="1280.000000pt" height="1280.000000pt" viewBox="0 0 1280.000000 1280.000000"
 preserveAspectRatio="xMidYMid meet">
<metadata>
Created by potrace 1.15, written by Peter Selinger 2001-2017
</metadata>
<g transform="translate(0.000000,1280.000000) scale(0.100000,-0.100000)"
fill="#000000" stroke="none">
<path d="M5656 11949 c16 -17 16 -22 4 -29 -20 -13 -40 -12 -40 0 0 6 -7 10
-15 10 -8 0 -35 7 -60 16 -36 12 -53 13 -79 4 -24 -8 -47 -8 -81 0 -33 7 -51
8 -59 0 -13 -13 -96 -13 -130 0 -18 6 -29 6 -38 -3 -14 -13 -96 -16 -115 -4
-6 4 -14 3 -18 -3 -3 -5 -36 -8 -75 -5 -52 3 -74 0 -85 -11 -10 -10 -30 -14
-70 -11 -31 2 -55 0 -55 -6 0 -5 -18 -7 -45 -3 -36 6 -45 4 -45 -8 0 -21 -16
-23 -72 -12 -45 9 -52 8 -64 -9 -16 -22 -48 -23 -121 -3 -33 8 -46 8 -58 -2
-10 -8 -23 -9 -47 -2 -45 14 -97 12 -92 -3 3 -6 -1 -12 -8 -12 -7 -1 -50 -4
-95 -8 -66 -6 -82 -11 -86 -26 -3 -13 -19 -19 -62 -24 -36 -5 -63 -14 -73 -26
-9 -10 -19 -16 -24 -13 -4 3 -23 0 -42 -7 -25 -9 -32 -17 -28 -31 4 -15 -2
-18 -31 -18 -23 0 -37 -6 -41 -16 -4 -11 -13 -14 -27 -11 -22 6 -79 -10 -79
-23 0 -4 -26 -20 -57 -36 -145 -72 -442 -314 -450 -367 -3 -16 5 -12 37 17 22
20 49 36 60 36 10 0 24 9 30 20 12 23 58 55 66 47 9 -9 -53 -66 -79 -72 -12
-4 -33 -24 -47 -46 -14 -23 -32 -39 -45 -40 -16 -1 -17 -2 -2 -6 22 -6 22 -19
0 -32 -17 -10 -17 -10 -1 -11 9 0 20 5 23 11 4 6 13 8 21 5 8 -3 14 -1 14 4 0
6 -7 10 -15 10 -8 0 -15 3 -15 6 0 11 30 35 38 31 13 -9 74 22 70 35 -3 7 16
26 40 43 25 16 52 35 59 40 10 7 16 6 23 -5 7 -12 12 -12 29 4 12 11 21 25 21
33 0 8 5 11 10 8 6 -4 8 -11 5 -16 -9 -14 11 -11 49 9 20 9 36 22 36 29 0 14
64 52 101 60 30 6 67 39 55 50 -4 4 -23 6 -44 5 -32 -3 -35 -1 -22 11 23 22
76 37 88 25 7 -7 18 -5 34 6 13 8 39 17 58 20 19 2 60 8 90 11 30 4 64 12 75
18 10 5 41 16 67 23 41 10 48 10 48 -2 0 -8 6 -14 13 -15 51 -3 126 1 145 7
21 6 22 4 17 -26 -5 -30 -4 -32 20 -28 50 10 24 -9 -37 -26 -35 -10 -81 -25
-103 -35 -74 -33 -104 -43 -113 -37 -5 3 -15 -1 -22 -9 -7 -8 -21 -15 -31 -15
-10 0 -21 -4 -24 -10 -3 -5 -15 -10 -25 -10 -10 0 -21 -8 -23 -17 -4 -14 -5
-12 -6 5 -1 23 -8 26 -35 16 -13 -5 -12 -9 7 -25 l22 -20 -42 6 c-40 6 -43 5
-43 -17 0 -16 -3 -19 -9 -10 -6 10 -16 5 -41 -18 -18 -17 -38 -32 -44 -33 -6
-1 -17 -8 -24 -15 -11 -10 -10 -16 5 -35 24 -28 40 -31 69 -12 13 8 30 15 39
15 9 0 15 9 15 23 0 15 3 18 8 9 10 -15 57 -1 64 19 3 9 9 9 27 -1 15 -7 26
-8 30 -2 3 5 19 8 35 6 20 -2 34 4 47 19 16 19 18 20 19 5 0 -24 21 -23 27 1
4 16 10 18 34 11 16 -5 31 -5 34 -1 2 5 19 12 37 16 18 4 38 9 43 10 6 2 27 6
49 9 21 3 43 9 50 13 6 4 21 6 32 5 12 -2 24 4 27 12 4 9 13 16 22 16 19 0 85
64 85 82 0 15 -75 42 -132 48 -22 2 -22 2 2 9 17 5 24 13 22 27 -2 18 -2 18
12 1 14 -18 14 -18 21 2 3 12 14 21 24 21 9 0 21 4 26 9 12 12 177 31 311 37
64 2 112 9 130 19 37 19 90 19 144 0 23 -8 52 -15 64 -15 11 0 34 -7 50 -15
15 -8 43 -15 60 -15 18 0 57 -7 87 -16 34 -10 73 -14 105 -11 35 4 61 1 79 -9
32 -16 44 -11 25 11 -11 13 -8 15 19 15 17 0 31 -4 31 -9 0 -11 38 -24 63 -21
10 1 24 -3 31 -9 15 -13 69 -15 120 -5 24 4 37 3 33 -2 -7 -11 62 -12 80 -1 6
4 14 0 17 -9 5 -13 9 -14 21 -4 12 10 24 9 62 -5 66 -25 102 -26 124 -4 16 16
19 17 19 3 0 -10 6 -14 14 -11 8 3 17 -1 20 -9 7 -18 21 -18 41 2 13 14 23 15
49 7 21 -7 37 -6 49 1 13 8 19 7 29 -7 18 -25 67 -36 101 -23 24 9 31 8 41 -6
10 -13 15 -15 24 -6 7 7 12 17 12 23 0 24 41 11 83 -26 25 -21 48 -39 51 -39
4 0 -1 17 -10 38 -9 20 -18 43 -21 50 -12 29 19 9 34 -23 9 -19 21 -35 27 -35
6 0 5 5 -2 12 -13 13 -17 68 -4 68 4 0 18 -7 30 -16 22 -15 42 -12 42 6 0 5
-7 7 -15 4 -9 -4 -15 0 -15 10 0 9 -5 16 -11 16 -6 0 -9 7 -5 15 3 9 0 15 -8
15 -8 0 -16 9 -19 20 -3 11 -13 20 -22 20 -9 0 -13 5 -10 10 3 6 1 10 -4 10
-14 0 -14 -27 0 -35 18 -12 31 -57 19 -69 -7 -7 -10 -1 -10 20 0 21 -10 40
-30 59 -16 16 -30 34 -30 40 0 6 -9 21 -20 33 -17 18 -18 25 -8 42 11 16 10
23 -5 37 -15 15 -17 16 -17 1 0 -9 -7 -19 -16 -22 -24 -9 -26 -8 -19 13 3 11
1 22 -5 26 -5 3 -10 1 -10 -4 0 -6 -9 -11 -20 -11 -13 0 -17 5 -14 14 3 9 -4
19 -18 27 -13 6 -25 16 -28 20 -4 5 -20 12 -38 15 -38 8 -41 -5 -12 -54 28
-45 26 -52 -11 -42 -18 5 -36 7 -41 4 -4 -3 -31 17 -59 45 -28 28 -56 51 -63
52 -27 2 -52 7 -70 14 -16 7 -18 5 -11 -26 9 -43 13 -49 29 -49 8 0 19 -7 26
-15 10 -12 10 -15 -3 -15 -9 0 -19 5 -23 11 -3 6 -19 9 -35 5 -16 -3 -29 -2
-29 3 0 5 -15 25 -33 44 -29 32 -37 35 -62 29 -19 -5 -25 -11 -17 -16 23 -14
12 -24 -13 -13 -14 7 -25 15 -25 20 0 4 -7 7 -16 7 -9 0 -22 7 -29 17 -15 20
-35 9 -35 -18 0 -18 -7 -16 -78 20 -88 46 -116 53 -86 20z m924 -299 c0 -5 -5
-10 -11 -10 -5 0 -7 5 -4 10 3 6 8 10 11 10 2 0 4 -4 4 -10z m-2760 -10 c0 -5
-12 -10 -27 -9 l-28 1 25 8 c14 4 26 8 28 9 1 1 2 -3 2 -9z m80 0 c0 -5 -12
-10 -27 -9 -25 0 -26 1 -8 9 27 12 35 12 35 0z m1830 -15 c0 -8 -7 -15 -15
-15 -8 0 -15 7 -15 15 0 8 7 15 15 15 8 0 15 -7 15 -15z m320 -41 c0 -8 -4
-12 -10 -9 -5 3 -10 10 -10 16 0 5 5 9 10 9 6 0 10 -7 10 -16z m465 -4 c3 -5
1 -10 -4 -10 -6 0 -11 5 -11 10 0 6 2 10 4 10 3 0 8 -4 11 -10z"/>
<path d="M6305 11930 c3 -5 8 -10 11 -10 2 0 4 5 4 10 0 6 -5 10 -11 10 -5 0
-7 -4 -4 -10z"/>
<path d="M6495 11860 c3 -5 8 -10 11 -10 2 0 4 5 4 10 0 6 -5 10 -11 10 -5 0
-7 -4 -4 -10z"/>
<path d="M6795 11739 c2 -61 6 -113 9 -116 3 -4 6 -24 6 -45 0 -40 23 -98 39
-98 19 0 23 125 7 190 -29 112 -47 169 -55 175 -5 2 -7 -45 -6 -106z"/>
<path d="M9860 11700 c-9 -6 -10 -10 -3 -10 6 0 15 5 18 10 8 12 4 12 -15 0z"/>
<path d="M9840 11667 c-22 -19 -73 -40 -64 -26 10 16 -17 29 -37 18 -10 -5
-21 -18 -24 -29 -7 -22 -35 -26 -52 -9 -9 9 -18 8 -38 -5 -15 -10 -41 -18 -58
-18 -18 -1 -39 -9 -47 -18 -8 -10 -30 -21 -48 -24 -17 -4 -32 -12 -32 -17 0
-5 -5 -9 -10 -9 -6 0 -27 -10 -48 -23 -20 -12 -48 -24 -62 -26 -14 -1 -27 -6
-30 -10 -10 -12 -86 -60 -125 -78 -22 -10 -42 -21 -45 -24 -3 -3 -21 -14 -40
-25 -19 -10 -47 -29 -62 -42 -14 -14 -31 -21 -37 -18 -5 4 -23 -6 -38 -23 -15
-16 -46 -36 -67 -45 -22 -9 -59 -32 -82 -51 -23 -19 -52 -39 -64 -43 -67 -25
-313 -262 -344 -332 -6 -14 -16 -29 -23 -33 -7 -4 -13 -21 -13 -38 0 -21 -6
-32 -22 -39 -13 -5 -19 -9 -14 -9 5 -1 3 -8 -4 -16 -6 -8 -8 -20 -4 -27 6 -10
4 -10 -8 0 -15 12 -17 10 -16 -18 1 -18 -5 -36 -12 -40 -8 -5 -15 -28 -16 -52
0 -24 -2 -43 -3 -43 -2 0 -3 -21 -4 -47 -1 -38 -5 -49 -20 -54 -14 -4 -18 -13
-14 -30 2 -13 0 -24 -6 -24 -6 0 -8 -3 -5 -6 4 -3 15 -1 27 5 16 9 22 8 31 -8
11 -22 -2 -37 -21 -25 -6 3 -3 -5 6 -20 10 -15 15 -29 11 -33 -3 -3 -6 -1 -6
5 0 7 -7 12 -15 12 -8 0 -15 -7 -15 -15 0 -9 -7 -18 -15 -21 -8 -3 -17 -21
-21 -39 -3 -18 -19 -47 -34 -64 -16 -17 -24 -31 -19 -31 6 0 7 -4 4 -10 -3 -5
6 -12 19 -16 21 -5 24 -9 16 -24 -14 -26 -12 -43 3 -34 9 6 9 4 -1 -8 -10 -12
-10 -25 -3 -50 9 -31 10 -31 16 -10 4 12 11 22 16 22 5 0 9 9 9 20 0 11 7 20
15 20 9 0 27 11 41 25 14 14 20 25 14 25 -5 0 -10 5 -10 10 0 6 15 10 33 8 36
-2 49 4 97 45 19 16 30 33 27 42 -4 8 -1 12 6 9 7 -2 30 5 51 16 51 25 60 17
12 -11 -20 -11 -36 -25 -36 -31 0 -5 -11 -24 -24 -41 -40 -56 -41 -60 -6 -42
17 9 34 14 37 12 7 -8 -70 -87 -84 -87 -19 0 -16 -17 9 -42 14 -14 18 -23 10
-26 -7 -2 -10 -7 -7 -12 3 -5 -17 -32 -45 -61 -49 -51 -60 -67 -40 -54 6 3 10
1 10 -5 0 -7 6 -8 18 -2 19 10 42 5 42 -9 0 -5 -6 -9 -14 -9 -8 0 -21 -8 -28
-18 -7 -10 -28 -29 -45 -42 -31 -23 -47 -70 -23 -70 6 0 10 4 10 9 0 10 36 21
44 13 3 -3 -4 -22 -16 -43 -24 -44 -17 -66 9 -28 29 41 61 69 80 69 14 0 12
-3 -7 -13 -27 -14 -40 -47 -17 -47 19 0 128 45 209 86 37 18 87 39 112 45 26
6 46 15 46 20 0 5 9 9 19 9 11 0 21 4 23 9 4 12 224 81 279 88 29 3 49 1 53
-6 5 -7 -4 -11 -27 -11 -31 0 -119 -24 -142 -39 -5 -4 -20 -6 -32 -5 -13 0
-23 -2 -23 -7 0 -5 -7 -6 -15 -3 -8 4 -15 2 -15 -4 0 -6 -8 -8 -19 -5 -11 3
-27 -4 -37 -15 -11 -10 -53 -32 -94 -47 -72 -27 -204 -86 -281 -126 -20 -11
-46 -19 -56 -19 -11 0 -28 -9 -38 -20 -10 -11 -21 -17 -25 -15 -4 3 -13 -1
-19 -9 -9 -11 -5 -15 24 -20 20 -4 33 -11 30 -17 -11 -16 7 -10 21 9 11 14 16
15 33 5 15 -10 20 -10 24 0 2 7 14 0 29 -18 18 -21 23 -32 15 -37 -9 -6 -8
-11 3 -18 8 -5 15 -22 15 -37 0 -23 5 -29 28 -31 15 -2 27 1 27 7 0 6 10 11
21 11 18 0 19 2 9 15 -11 13 -8 15 18 15 30 0 30 1 22 33 l-9 32 17 -24 c39
-57 50 -62 22 -11 -38 71 -38 79 5 76 19 -2 35 1 35 6 0 5 5 6 10 3 6 -3 10
-11 10 -16 0 -6 -4 -7 -10 -4 -15 9 -12 -7 5 -29 8 -11 15 -25 15 -30 0 -6
-12 6 -27 27 -35 50 -41 32 -9 -26 23 -40 25 -53 21 -118 -7 -107 -7 -107 -65
-106 -31 1 -47 5 -44 11 3 6 -1 3 -9 -7 -15 -18 -17 -18 -54 1 -38 20 -83 70
-83 93 0 7 -3 9 -7 6 -3 -4 -13 -1 -22 5 -10 8 -9 4 3 -10 35 -40 3 -23 -47
26 -26 26 -45 39 -41 29 5 -13 2 -16 -9 -11 -9 3 -14 11 -11 19 3 7 -4 15 -16
18 -16 4 -20 11 -16 25 8 23 -23 94 -38 89 -6 -2 -11 -12 -12 -23 0 -24 26
-97 39 -105 5 -4 6 -12 3 -18 -4 -6 -3 -11 3 -11 6 0 8 -7 5 -15 -4 -8 -2 -15
4 -15 6 0 9 -12 7 -27 -1 -16 5 -40 15 -54 10 -14 17 -37 16 -52 -2 -14 1 -24
5 -21 5 3 9 -4 9 -16 0 -30 18 -60 35 -60 19 0 19 15 0 34 -8 8 -15 28 -15 45
0 16 -6 36 -12 43 -7 7 -14 31 -16 52 -1 22 -7 45 -13 53 -9 10 -8 13 3 13 19
0 98 -77 98 -95 0 -8 9 -15 20 -15 11 0 20 -6 20 -13 0 -7 25 -26 57 -41 31
-16 64 -37 75 -48 17 -17 17 -18 -2 -18 -11 0 -20 -7 -20 -15 0 -8 -4 -15 -9
-15 -4 0 -7 -14 -5 -32 2 -18 -1 -35 -8 -40 -10 -6 -10 -8 0 -8 6 0 12 -8 12
-17 0 -14 2 -15 9 -4 7 11 10 9 15 -7 5 -14 13 -19 26 -17 14 3 20 -2 20 -13
0 -9 12 -23 28 -29 15 -7 43 -32 62 -56 19 -24 60 -63 92 -86 32 -24 58 -47
58 -52 0 -5 7 -9 15 -9 8 0 15 -6 15 -14 0 -8 10 -16 22 -18 14 -2 24 -12 28
-28 4 -17 14 -26 30 -28 26 -4 161 -60 170 -71 3 -3 12 -7 20 -9 8 -2 78 -37
155 -78 137 -74 218 -104 281 -104 35 0 64 21 65 48 0 19 148 -265 148 -286 1
-8 10 -26 20 -40 25 -36 72 -152 65 -163 -3 -5 1 -9 10 -9 8 0 16 -3 19 -7 2
-5 2 -1 -1 7 -2 8 -5 26 -7 40 -13 92 -71 274 -130 405 -21 47 -53 155 -61
205 -3 25 -12 56 -18 70 -29 59 -6 207 36 233 10 7 18 20 18 29 0 10 5 18 11
18 5 0 7 4 4 10 -3 5 -1 19 5 30 9 17 14 19 26 9 9 -7 14 -8 14 -1 0 6 -4 14
-10 17 -16 10 -11 25 6 18 14 -5 14 -3 3 15 -11 18 -10 24 5 41 11 12 16 21
12 21 -3 0 5 23 19 50 22 44 45 65 45 42 0 -9 13 -16 90 -50 91 -40 148 -53
134 -30 -5 8 -2 9 12 3 44 -18 111 -24 162 -13 l52 11 -37 17 -38 17 60 7 c71
8 198 37 192 43 -3 2 -32 -3 -65 -11 -70 -19 -227 -22 -238 -5 -5 9 6 10 38 5
48 -7 217 9 230 22 4 4 -51 6 -123 4 -88 -3 -134 -1 -142 7 -8 8 6 11 55 11
37 0 70 5 73 10 4 6 -11 10 -37 10 -30 0 -39 3 -28 10 10 6 -1 11 -39 16 -29
4 -58 13 -66 20 -7 8 -20 14 -29 14 -8 0 -21 6 -28 14 -8 7 -23 16 -35 20 -33
10 -103 65 -103 80 0 7 7 27 16 44 14 30 26 132 14 132 -7 0 -10 52 -3 70 4
12 7 11 13 -5 5 -13 7 -1 6 33 -2 28 1 52 6 52 4 0 8 9 8 19 0 11 5 32 12 48
6 15 12 30 12 33 2 7 39 59 57 79 9 10 16 25 16 33 0 9 7 32 17 52 22 46 36
133 35 216 -3 317 -4 335 -27 410 -35 114 -52 148 -94 188 -49 48 -66 62 -73
62 -4 0 -21 11 -39 25 -18 14 -40 25 -49 25 -9 0 -18 4 -21 9 -8 12 -110 38
-181 46 -33 4 -63 12 -67 19 -6 8 -10 7 -17 -2 -11 -19 -24 -15 -38 11 -9 16
-12 18 -13 6 0 -10 -8 -16 -20 -15 -25 1 -25 4 -9 39 9 20 17 26 31 21 12 -4
18 0 18 11 0 11 5 15 15 11 20 -7 19 11 -1 22 -11 6 -13 11 -5 16 6 4 11 16
11 27 0 18 10 23 39 20 7 -2 10 2 7 7 -7 12 18 35 27 25 4 -3 7 -1 7 5 0 7 9
12 20 12 13 0 20 7 20 20 0 11 7 23 15 26 10 4 13 13 9 26 -4 14 -2 18 5 14
14 -9 15 -46 1 -46 -21 0 -8 -16 22 -28 41 -15 59 0 25 23 -17 10 -23 22 -20
35 5 19 5 19 26 0 21 -20 37 -18 37 4 0 12 54 36 83 36 9 0 17 5 17 11 0 8 5
7 15 -1 12 -10 19 -10 27 -2 16 16 29 15 26 0 -2 -7 3 -12 11 -10 7 1 19 -3
27 -9 20 -16 28 -5 15 19 -10 19 -6 32 11 32 4 0 8 -9 8 -19 0 -11 5 -23 10
-26 6 -4 8 -10 5 -15 -9 -14 8 -18 34 -9 14 6 21 15 18 23 -3 8 1 17 9 20 8 3
13 2 10 -3 -3 -5 6 -8 20 -8 31 0 43 -11 24 -23 -9 -6 -16 -6 -18 0 -5 15 -19
12 -19 -5 0 -18 24 -28 33 -13 4 7 9 6 14 -2 12 -19 40 -4 40 22 0 18 5 23 28
23 15 0 36 -5 46 -12 19 -10 19 -11 -2 -22 -11 -6 -28 -8 -36 -5 -29 11 -16
-20 17 -41 29 -19 33 -27 44 -100 6 -44 12 -82 12 -84 1 -2 8 -1 16 3 13 4 13
2 5 -14 -13 -25 -13 -43 1 -34 8 5 10 -1 7 -20 -5 -25 5 -36 16 -18 7 12 27
120 31 163 1 20 6 42 10 49 6 10 2 12 -13 8 -12 -4 -22 -2 -22 2 0 5 -5 21
-11 37 -7 15 -13 35 -14 44 -1 9 -14 32 -29 51 -28 38 -23 55 15 43 19 -6 20
-5 8 17 -27 50 -42 69 -49 58 -4 -7 -13 -3 -25 10 -16 18 -16 20 -2 20 21 0
21 9 1 38 -15 22 -44 30 -44 12 0 -5 -4 -10 -10 -10 -5 0 -10 7 -10 15 0 11
-9 15 -29 13 -16 -1 -36 4 -45 11 -9 7 -16 10 -16 5 0 -5 -7 2 -16 14 -15 21
-44 29 -58 15 -14 -14 -40 -11 -53 5 -18 24 -16 32 7 32 11 0 20 -6 20 -13 0
-9 10 -12 32 -9 l31 5 -38 34 c-29 26 -40 31 -47 21 -6 -10 -10 -10 -16 -1
-10 17 -86 32 -105 22 -10 -6 -17 -4 -21 6 -7 19 -56 20 -76 2z m-80 -46 c0
-5 -7 -11 -14 -14 -10 -4 -13 -1 -9 9 6 15 23 19 23 5z m70 -5 c0 -3 -4 -8
-10 -11 -5 -3 -10 -1 -10 4 0 6 5 11 10 11 6 0 10 -2 10 -4z m-185 -16 c3 -5
1 -10 -4 -10 -6 0 -11 5 -11 10 0 6 2 10 4 10 3 0 8 -4 11 -10z m235 -109 c0
-5 -11 -8 -25 -8 -29 0 -34 14 -7 20 20 4 32 0 32 -12z m322 -26 c20 -14 41
-25 46 -25 5 0 17 -9 27 -20 14 -16 20 -17 27 -8 6 10 8 10 8 -1 0 -8 7 -23
17 -33 9 -10 13 -21 9 -25 -3 -4 -26 13 -50 36 -24 24 -49 40 -55 37 -6 -4
-11 -2 -11 3 0 6 -7 11 -15 11 -9 0 -18 7 -22 16 -3 8 -12 13 -19 10 -15 -6
-27 7 -17 18 10 10 16 8 55 -19z m178 -92 c0 -12 -2 -12 -15 1 -8 8 -15 17
-15 20 0 3 7 3 15 0 8 -4 15 -13 15 -21z m-100 -33 c0 -5 -4 -10 -10 -10 -5 0
-10 5 -10 10 0 6 5 10 10 10 6 0 10 -4 10 -10z m40 -31 c0 -6 -4 -7 -10 -4 -5
3 -10 11 -10 16 0 6 5 7 10 4 6 -3 10 -11 10 -16z m-595 -67 c-3 -3 -11 0 -18
7 -9 10 -8 11 6 5 10 -3 15 -9 12 -12z m682 -29 c11 -60 15 -128 8 -121 -4 4
-9 18 -10 30 -2 13 -8 43 -13 67 -6 25 -8 49 -5 54 7 12 15 1 20 -30z m-807
20 c0 -13 -17 -35 -25 -35 -11 0 -25 25 -19 34 6 10 44 11 44 1z m-30 -58 c-7
-8 -14 -15 -15 -15 -2 0 -5 7 -9 15 -4 10 1 15 16 15 17 0 18 -2 8 -15z m880
-61 c0 -14 -4 -22 -10 -19 -5 3 -10 17 -10 31 0 14 4 22 10 19 6 -3 10 -17 10
-31z m-1162 -84 c-13 -29 -31 -39 -42 -21 -3 5 1 12 10 15 13 5 14 9 4 21 -10
12 -9 15 5 15 10 0 15 3 12 7 -4 3 -1 13 6 21 10 13 12 12 15 -7 2 -12 -2 -35
-10 -51z m16 -476 c-6 16 -1 17 62 11 38 -3 73 -10 78 -15 6 -6 14 -2 22 8 12
16 13 16 19 -1 7 -17 8 -17 20 0 13 17 14 17 20 1 8 -20 45 -24 46 -5 0 9 2 9
6 0 3 -8 14 -11 29 -7 22 6 29 -1 26 -27 -1 -3 9 -4 22 -2 13 3 27 -1 31 -8 5
-8 4 -10 -3 -5 -7 4 -12 3 -12 -3 0 -5 14 -8 31 -6 32 4 69 -22 69 -49 0 -8 5
-18 12 -22 8 -5 9 -2 5 9 -10 27 11 19 30 -10 23 -36 44 -52 60 -46 7 3 13 1
13 -5 0 -5 9 -12 19 -15 11 -3 22 -17 26 -36 4 -17 10 -31 15 -31 7 0 21 -36
25 -65 0 -5 5 -40 9 -78 5 -37 12 -70 17 -73 5 -3 7 -10 3 -15 -10 -16 7 -69
22 -69 8 0 14 -9 13 -22 0 -21 -1 -21 -8 -4 -6 17 -8 17 -14 4 -3 -9 3 -32 14
-53 23 -43 18 -72 -17 -87 -19 -9 -28 -8 -41 3 -10 8 -29 20 -43 26 -14 5 -54
23 -88 39 -38 17 -76 27 -94 25 -20 -2 -38 4 -54 20 -13 12 -24 18 -24 12 0
-15 -37 -4 -44 13 -3 7 1 20 9 28 22 22 19 26 -20 26 -24 0 -35 -5 -35 -15 0
-8 5 -15 11 -15 5 0 7 -4 4 -10 -14 -23 -237 9 -232 34 1 6 -14 12 -38 13 -22
1 -49 4 -60 6 -11 3 -42 6 -68 6 -31 1 -46 5 -42 12 4 6 13 8 21 5 7 -3 16 -1
19 5 4 5 10 7 15 4 5 -3 11 -1 15 4 4 7 15 7 31 1 20 -8 25 -7 21 2 -2 9 -23
13 -58 13 -103 -1 -201 -9 -206 -18 -2 -4 -12 -5 -22 -2 -9 3 -38 1 -64 -4
-26 -5 -50 -5 -52 -1 -3 5 0 10 7 12 9 3 8 9 -5 22 -21 21 -22 37 -2 30 8 -4
22 -1 30 6 10 9 15 9 15 1 0 -16 90 -5 108 13 16 16 8 36 -14 36 -9 0 -14 7
-12 17 2 12 16 20 41 24 48 8 56 16 24 24 -14 4 -36 1 -49 -6 -26 -15 -78 -19
-78 -7 0 4 9 8 20 8 10 0 31 12 45 26 23 23 33 26 72 21 25 -3 40 -1 33 3 -15
10 -5 16 43 24 21 4 53 16 71 27 18 11 41 17 50 13 10 -4 16 -1 16 9 0 18 33
26 130 31 78 3 127 -14 104 -36 -3 -4 -19 -2 -35 2 -33 10 -62 3 -53 -11 3 -5
10 -7 15 -3 5 3 16 0 24 -6 8 -7 15 -9 15 -4 0 5 36 9 81 9 44 0 83 3 85 7 2
4 -6 14 -18 22 -22 16 -22 16 -1 16 26 0 49 25 32 35 -6 4 -14 2 -18 -4 -4 -6
-15 -9 -24 -5 -10 3 -27 -4 -44 -20 -28 -26 -43 -33 -43 -18 0 12 -52 30 -105
37 -104 13 -177 30 -182 42 -3 7 -10 10 -16 6 -6 -4 -21 -8 -33 -9 -38 -4
-227 -45 -237 -51 -12 -7 -179 -53 -194 -53 -7 0 -13 5 -13 10 0 6 8 10 18 10
18 0 128 42 139 54 3 3 14 6 23 6 10 0 22 6 28 13 6 7 28 14 49 15 42 3 48 6
39 20 -3 6 -20 7 -41 2 -59 -13 -39 6 28 26 34 10 64 17 66 15 2 -1 7 3 11 9
4 7 34 14 66 17 33 3 66 9 74 13 10 6 22 3 33 -8 17 -15 17 -15 11 2z m-383
-99 c0 -6 -11 -11 -23 -11 -12 -1 -24 -7 -26 -13 -2 -6 -8 -9 -13 -6 -4 3 -21
-1 -36 -8 -15 -8 -39 -17 -53 -21 -14 -3 11 12 55 34 78 39 97 44 96 25z m945
-63 c-10 -10 -29 15 -21 28 6 9 10 8 17 -4 6 -10 7 -20 4 -24z m-266 -6 c0 -3
-4 -8 -10 -11 -5 -3 -10 -1 -10 4 0 6 5 11 10 11 6 0 10 -2 10 -4z m-865 -46
c-3 -5 -12 -10 -18 -10 -7 0 -6 4 3 10 19 12 23 12 15 0z m-245 -134 c0 -3 -4
-8 -10 -11 -5 -3 -10 -1 -10 4 0 6 5 11 10 11 6 0 10 -2 10 -4z m380 -18 c-14
-6 -29 -12 -35 -14 -5 -1 -37 -14 -70 -27 -80 -33 -113 -42 -100 -29 14 15
186 81 210 81 17 0 16 -2 -5 -11z m-420 -8 c0 -5 -2 -10 -4 -10 -3 0 -8 5 -11
10 -3 6 -1 10 4 10 6 0 11 -4 11 -10z m494 -9 c-5 -5 -25 -11 -44 -14 l-35 -6
40 18 c39 18 58 19 39 2z m-329 -71 c-3 -5 -14 -10 -23 -9 -14 0 -13 2 3 9 27
11 27 11 20 0z m-265 -9 c0 -6 -4 -13 -10 -16 -5 -3 -10 1 -10 9 0 9 5 16 10
16 6 0 10 -4 10 -9z m180 -21 c-8 -5 -19 -10 -25 -10 -5 0 -3 5 5 10 8 5 20
10 25 10 6 0 3 -5 -5 -10z m585 -41 c-39 -9 -70 -10 -63 -4 3 3 18 8 34 11 16
3 30 7 33 9 2 3 9 1 15 -3 6 -4 -2 -9 -19 -13z m200 -59 c3 -5 -1 -10 -10 -10
-9 0 -13 5 -10 10 3 6 8 10 10 10 2 0 7 -4 10 -10z m75 -6 c0 -2 -15 -4 -32
-4 -23 0 -29 3 -19 9 12 8 51 4 51 -5z m15 -34 c-3 -5 -22 -14 -43 -20 -45
-12 -52 -12 -52 -2 0 5 21 13 48 19 26 6 48 11 50 12 2 0 1 -3 -3 -9z m137
-42 c29 0 65 -7 80 -15 16 -7 45 -14 65 -16 21 -1 47 -10 57 -19 11 -10 25
-18 31 -18 6 0 21 -9 33 -20 12 -12 22 -16 22 -11 0 17 42 8 69 -14 48 -39 71
-68 71 -91 0 -13 -4 -24 -10 -24 -5 0 -10 6 -10 14 0 8 -4 17 -8 20 -7 4 -8
-14 -3 -64 1 -12 3 -13 10 -1 5 7 14 12 21 9 9 -3 8 -8 -4 -20 -9 -9 -16 -30
-16 -47 0 -16 -4 -33 -10 -36 -5 -3 -10 -2 -10 3 0 13 -40 54 -73 75 -15 10
-25 23 -21 29 4 7 3 8 -4 4 -14 -9 -55 18 -44 28 4 5 0 6 -8 5 -23 -5 -134 32
-146 49 -6 9 -16 12 -24 7 -7 -4 -16 -2 -21 6 -7 11 -9 10 -9 -3 0 -25 -19
-22 -29 3 -10 28 -53 33 -77 10 -11 -9 -28 -17 -39 -18 -19 -1 -61 -5 -187
-19 -48 -5 -59 -3 -64 10 -3 9 -12 16 -20 16 -8 0 -11 6 -8 15 4 8 3 15 -1 15
-10 0 -38 -30 -28 -30 10 0 -19 -20 -31 -20 -4 0 -5 7 -2 16 5 13 1 15 -18 10
-14 -3 -28 -2 -31 4 -3 6 -20 8 -37 5 -27 -5 -29 -4 -19 9 7 8 38 17 69 21 31
3 64 10 72 14 9 5 34 9 55 10 41 1 70 5 115 15 13 3 39 7 58 8 18 1 36 6 38
10 7 10 -78 10 -133 -1 -23 -5 -40 -5 -38 0 3 4 23 10 45 14 22 4 40 10 40 15
0 10 137 29 162 23 10 -2 41 -5 70 -5z m-329 -39 c-4 -15 -9 -16 -24 -8 -11 5
-24 7 -29 4 -6 -3 -10 -2 -10 4 0 8 23 16 56 17 6 0 9 -7 7 -17z m-258 -105
c-18 -13 -35 -11 -35 5 0 5 12 9 27 9 25 0 25 -1 8 -14z m560 -14 c3 -6 -1 -7
-9 -4 -18 7 -21 14 -7 14 6 0 13 -4 16 -10z m-1050 -70 c-3 -5 -11 -10 -16
-10 -6 0 -7 5 -4 10 3 6 11 10 16 10 6 0 7 -4 4 -10z m270 -180 c-5 -8 -11 -8
-17 -2 -6 6 -7 16 -3 22 5 8 11 8 17 2 6 -6 7 -16 3 -22z m-192 -16 c59 -46
64 -70 10 -47 -42 17 -70 39 -84 65 -17 31 24 21 74 -18z m1417 -259 c9 -10 9
-15 1 -15 -6 0 -11 4 -11 9 0 5 -8 12 -17 14 -15 4 -15 5 -2 6 9 0 22 -6 29
-14z m215 -75 c7 -12 -2 -12 -30 0 -19 8 -19 9 2 9 12 1 25 -3 28 -9z"/>
<path d="M9670 10395 c-11 -13 -8 -16 19 -21 25 -5 29 -9 20 -20 -10 -12 -8
-13 12 -6 30 12 107 -13 130 -42 10 -12 21 -18 25 -13 4 4 -4 20 -18 35 -14
15 -28 35 -32 46 -4 11 -12 16 -21 12 -8 -3 -30 1 -49 9 -45 19 -70 19 -86 0z
m150 -19 c0 -3 -4 -8 -10 -11 -5 -3 -10 -1 -10 4 0 6 5 11 10 11 6 0 10 -2 10
-4z"/>
<path d="M9350 10289 c0 -5 5 -7 10 -4 6 3 10 8 10 11 0 2 -4 4 -10 4 -5 0
-10 -5 -10 -11z"/>
<path d="M9288 10283 c-10 -2 -18 -9 -18 -14 0 -15 43 -7 48 9 4 12 0 13 -30
5z"/>
<path d="M9383 10275 c-21 -15 0 -30 23 -17 9 5 25 7 35 5 11 -3 19 -1 19 5 0
15 -58 20 -77 7z"/>
<path d="M9330 10270 c0 -5 5 -10 11 -10 5 0 7 5 4 10 -3 6 -8 10 -11 10 -2 0
-4 -4 -4 -10z"/>
<path d="M9153 10258 c-29 -5 -53 -14 -53 -20 0 -12 59 -5 120 16 39 13 41 15
15 14 -16 0 -54 -5 -82 -10z"/>
<path d="M9220 10240 c0 -6 12 -10 27 -10 29 0 24 12 -7 17 -11 2 -20 -2 -20
-7z"/>
<path d="M9294 10239 c-3 -5 6 -9 20 -9 31 0 34 6 6 13 -11 3 -23 1 -26 -4z"/>
<path d="M9315 10080 c4 -6 11 -8 16 -5 14 9 11 15 -7 15 -8 0 -12 -5 -9 -10z"/>
<path d="M9491 10031 c-18 -11 0 -22 34 -19 24 2 25 4 9 15 -21 15 -25 16 -43
4z"/>
<path d="M9384 10019 c-2 -4 7 -9 21 -11 15 -3 25 -1 25 6 0 12 -39 16 -46 5z"/>
<path d="M9725 9950 c3 -5 13 -10 21 -10 8 0 12 5 9 10 -3 6 -13 10 -21 10 -8
0 -12 -4 -9 -10z"/>
<path d="M9428 9853 c6 -2 18 -2 25 0 6 3 1 5 -13 5 -14 0 -19 -2 -12 -5z"/>
<path d="M9548 9853 c7 -3 16 -2 19 1 4 3 -2 6 -13 5 -11 0 -14 -3 -6 -6z"/>
<path d="M9587 9846 c-4 -10 -1 -13 8 -9 8 3 12 9 9 14 -7 12 -11 11 -17 -5z"/>
<path d="M10100 11664 c0 -28 46 -75 66 -67 16 6 6 33 -11 33 -8 0 -16 4 -19
9 -4 5 4 7 16 4 22 -4 22 -3 -2 11 -25 16 -50 21 -50 10z"/>
<path d="M6755 11620 c-3 -5 3 -10 14 -10 12 0 21 5 21 10 0 6 -6 10 -14 10
-8 0 -18 -4 -21 -10z"/>
<path d="M10230 11590 c19 -16 37 -24 38 -19 6 16 -17 36 -45 42 -27 5 -27 4
7 -23z"/>
<path d="M6881 11444 c0 -11 3 -14 6 -6 3 7 2 16 -1 19 -3 4 -6 -2 -5 -13z"/>
<path d="M3340 11320 c-8 -5 -11 -12 -7 -16 4 -4 13 -2 19 4 15 15 7 24 -12
12z"/>
<path d="M3295 11280 c-3 -5 1 -10 9 -10 9 0 16 5 16 10 0 6 -4 10 -9 10 -6 0
-13 -4 -16 -10z"/>
<path d="M3640 11271 c0 -6 5 -13 10 -16 6 -3 10 1 10 9 0 9 -4 16 -10 16 -5
0 -10 -4 -10 -9z"/>
<path d="M3615 11250 c3 -5 8 -10 11 -10 2 0 4 5 4 10 0 6 -5 10 -11 10 -5 0
-7 -4 -4 -10z"/>
<path d="M5234 11240 c-253 -13 -388 -36 -648 -111 -345 -100 -561 -184 -682
-266 -57 -39 -174 -153 -174 -170 0 -4 -14 -23 -30 -42 -16 -18 -27 -37 -24
-42 3 -5 -2 -12 -10 -15 -9 -3 -16 -12 -16 -20 0 -8 -7 -14 -15 -14 -9 0 -12
-6 -8 -15 3 -9 -2 -22 -13 -30 -18 -13 -18 -14 -1 -15 9 0 17 3 17 8 0 7 73
42 89 42 5 0 14 7 21 15 7 8 16 12 21 9 5 -3 9 0 9 5 0 6 9 11 20 11 11 0 20
4 20 9 0 5 10 13 22 17 12 3 30 16 39 28 15 17 21 19 37 9 21 -13 35 -7 45 20
4 9 17 17 30 17 13 0 29 6 35 12 10 10 15 10 22 -2 5 -8 10 -23 10 -34 0 -12
5 -16 16 -12 9 3 20 6 25 6 5 0 9 5 9 10 0 6 -7 10 -16 8 -10 -2 -19 3 -21 10
-6 16 37 15 59 -1 18 -14 13 -30 -14 -40 -32 -11 -21 -29 13 -22 22 5 29 4 25
-4 -4 -6 -2 -11 3 -11 6 0 11 5 11 11 0 5 4 7 10 4 5 -3 21 2 36 12 30 19 64
25 64 10 0 -5 7 -4 15 3 8 7 15 9 15 4 0 -4 7 1 15 12 8 11 14 14 15 6 0 -9 5
-10 18 -3 10 5 24 6 32 1 8 -5 33 -5 55 -1 56 10 118 7 122 -6 2 -6 -2 -11 -9
-10 -7 0 -26 -1 -42 -1 -25 -2 -27 -4 -15 -19 13 -15 11 -16 -14 -9 -41 10
-66 0 -60 -24 4 -14 0 -20 -11 -20 -9 0 -19 -6 -22 -14 -3 -8 -13 -12 -26 -8
-20 5 -20 6 -3 19 22 15 12 17 -16 3 -14 -8 -18 -17 -13 -35 5 -20 1 -26 -22
-36 -16 -6 -37 -15 -46 -20 -10 -5 -27 -9 -38 -9 -11 0 -20 -4 -20 -8 0 -10
-67 -32 -94 -32 -10 0 -14 5 -11 10 3 6 1 10 -4 10 -6 0 -11 -4 -11 -9 0 -5
-9 -11 -20 -14 -11 -3 -20 -13 -20 -23 0 -10 -14 -29 -32 -44 -19 -16 -28 -31
-24 -38 8 -14 48 -16 62 -3 17 16 136 33 147 22 15 -15 50 -14 65 1 9 9 12 9
12 -2 1 -11 3 -11 11 3 14 24 32 22 19 -3 -6 -12 -21 -20 -36 -20 -33 0 -94
-26 -94 -40 0 -6 -4 -8 -10 -5 -19 11 -88 -14 -93 -35 -7 -26 16 -26 65 -2 19
10 43 17 53 16 10 -2 15 3 12 11 -4 9 1 11 14 8 12 -3 19 0 19 8 0 9 3 10 11
2 11 -11 52 -3 90 17 9 5 25 7 35 6 22 -3 32 -26 11 -26 -8 0 -17 -7 -21 -15
-3 -8 -1 -15 4 -15 21 0 8 -16 -22 -29 -18 -7 -46 -20 -62 -27 -16 -8 -37 -14
-46 -14 -19 0 -54 -45 -46 -59 10 -15 -45 -29 -154 -41 -138 -14 -269 -40
-285 -57 -8 -7 -18 -13 -23 -13 -5 0 -19 -9 -32 -20 -13 -11 -28 -20 -35 -20
-7 0 -20 -9 -30 -20 -10 -11 -29 -20 -43 -20 -23 0 -24 -2 -20 -45 3 -25 2
-45 -2 -45 -8 0 -40 -56 -40 -68 0 -3 10 4 23 15 28 26 109 43 161 35 40 -7
39 -7 -37 -26 -42 -11 -77 -22 -77 -26 0 -4 46 -8 102 -9 56 -1 105 -4 109 -7
4 -2 43 -5 86 -6 84 -1 111 -11 92 -34 -6 -8 -18 -14 -26 -14 -11 0 -13 -7 -9
-24 4 -15 1 -26 -7 -30 -6 -3 1 -2 17 1 22 4 27 2 24 -8 -3 -8 -19 -14 -37
-15 -23 -1 -42 -11 -64 -34 -22 -22 -26 -29 -11 -22 11 6 26 18 34 26 7 9 19
16 27 16 12 0 9 -8 -9 -32 -43 -58 -42 -64 2 -18 27 28 44 40 47 32 3 -7 -1
-20 -8 -29 -8 -8 4 -4 25 11 64 43 115 26 60 -21 -26 -21 -26 -23 -5 -12 l24
12 -22 -38 c-12 -21 -20 -39 -18 -41 2 -2 21 14 42 36 42 43 59 49 69 25 3
-10 -9 -29 -32 -51 -26 -25 -29 -31 -11 -20 14 9 29 13 32 9 4 -3 18 4 32 17
15 14 25 18 25 11 0 -8 8 -11 19 -8 12 3 27 -3 36 -13 15 -16 14 -20 -16 -49
-37 -37 -32 -52 8 -24 48 34 71 44 78 33 3 -5 -9 -16 -27 -25 -18 -8 -25 -13
-15 -10 10 3 37 8 60 12 40 6 41 5 26 -13 -29 -34 -33 -49 -6 -25 43 39 54 19
14 -26 -50 -54 -47 -62 7 -19 41 34 66 45 66 29 0 -4 -19 -27 -42 -51 l-43
-44 48 36 c27 20 53 36 58 36 5 0 -3 -25 -16 -57 -14 -31 -24 -57 -22 -59 2
-2 29 15 62 37 32 21 60 37 63 34 3 -3 -3 -12 -14 -20 -26 -19 -4 -19 24 1 12
8 22 11 22 6 0 -6 -6 -12 -14 -15 -8 -3 -20 -16 -27 -29 -12 -22 -11 -22 24 5
34 26 36 26 42 7 3 -11 11 -20 16 -20 6 0 7 5 3 12 -5 7 -3 8 5 3 9 -5 7 -13
-8 -29 -37 -39 -22 -40 25 -1 25 20 48 35 51 32 3 -3 0 -20 -6 -38 -17 -49
-12 -58 9 -17 11 20 25 40 31 43 6 4 3 -7 -6 -25 -22 -43 -15 -46 21 -10 16
16 32 30 37 30 15 0 6 -30 -19 -59 -16 -20 -20 -29 -10 -25 9 4 16 1 16 -6 0
-10 3 -10 15 0 19 15 38 3 32 -21 -7 -28 -2 -23 22 17 21 35 49 42 43 10 -4
-20 11 -21 28 -1 19 23 30 18 31 -12 1 -23 2 -24 6 -6 5 24 30 49 40 39 3 -3
0 -18 -7 -34 -24 -47 -23 -48 9 -12 19 22 31 29 31 20 0 -13 1 -13 11 0 8 11
9 8 5 -15 l-7 -30 21 25 20 25 0 -48 c0 -30 4 -46 10 -42 6 3 10 20 10 37 0
38 14 29 15 -9 0 -15 6 -28 14 -31 10 -3 12 3 6 26 -4 19 -2 33 6 37 13 9 30
-13 28 -35 -1 -8 4 -30 11 -48 11 -30 13 -31 26 -15 13 17 13 17 14 -4 0 -28
-26 -24 -52 8 -17 21 -19 22 -16 4 4 -21 -36 -45 -74 -45 -13 0 -17 -4 -12
-12 5 -8 0 -7 -11 2 -11 9 -16 10 -11 3 4 -8 2 -13 -5 -13 -6 0 -22 -11 -35
-26 -16 -17 -24 -20 -24 -10 0 8 -8 16 -17 18 -18 4 -69 -17 -78 -31 -7 -12
110 -19 157 -11 34 7 39 5 44 -14 5 -20 10 -21 82 -18 42 2 81 8 87 13 5 5 32
9 60 9 28 0 58 7 69 15 11 8 16 15 10 15 -10 0 17 20 29 20 4 0 6 -6 5 -12 -2
-7 6 -13 17 -13 11 -1 25 -4 31 -8 13 -8 24 1 24 19 0 8 -12 17 -27 21 l-28 6
30 9 c42 11 58 3 53 -27 -4 -19 -1 -25 13 -25 19 0 38 26 37 50 -7 99 84 129
161 53 28 -28 56 27 29 56 -10 10 -10 15 -1 18 6 2 24 15 40 29 34 29 66 31
103 4 25 -18 29 -18 40 -4 11 12 9 20 -8 44 -12 16 -22 33 -22 38 0 16 51 44
70 39 21 -5 33 14 24 38 -4 10 0 15 14 15 12 0 24 5 28 11 4 7 21 9 40 6 36
-6 43 3 19 23 -9 7 -15 20 -14 29 1 9 -1 24 -5 33 -17 38 1 39 47 4 54 -41 70
-47 38 -13 -13 15 -19 30 -15 40 7 19 20 22 29 7 3 -5 11 -10 16 -10 6 0 -1
14 -15 31 -32 37 -34 64 -6 56 24 -6 25 1 4 24 -19 21 -20 21 89 19 69 -1 85
10 46 30 -16 9 -18 14 -8 26 6 8 23 14 36 14 21 0 23 2 13 15 -6 8 -9 19 -5
26 4 6 1 15 -6 20 -9 6 -10 9 -2 9 6 0 15 -4 18 -10 7 -12 35 -13 35 -2 0 4
-20 18 -45 30 -41 20 -60 42 -35 42 16 0 52 78 37 83 -9 3 -9 7 -1 18 24 30
37 147 36 325 -2 164 -27 285 -79 379 -13 22 -28 51 -35 65 -7 14 -25 35 -40
48 -15 13 -25 29 -22 36 6 16 -43 40 -52 25 -4 -8 -9 -7 -15 2 -7 11 -9 9 -9
-5 0 -17 -4 -15 -27 11 -23 25 -34 30 -60 27 -26 -3 -33 0 -33 14 0 13 2 14 9
3 5 -8 11 -9 15 -3 3 5 -3 19 -14 32 -17 20 -21 21 -35 7 -8 -9 -15 -21 -15
-27 0 -6 -4 -8 -10 -5 -5 3 -10 2 -10 -4 0 -6 -7 -8 -16 -4 -8 3 -13 12 -10
19 3 8 1 14 -4 14 -5 0 -7 8 -4 18 5 14 4 15 -5 2 -10 -13 -12 -13 -21 0 -9
13 -10 12 -8 -4 4 -23 -20 -34 -27 -12 -3 9 -7 23 -10 32 -4 12 -9 14 -18 5
-10 -7 -17 -7 -24 0 -8 8 -17 7 -33 -1 -17 -9 -24 -9 -33 4 -17 22 -66 10 -60
-14 3 -10 13 -18 23 -17 10 1 17 4 14 8 -2 4 0 10 5 13 5 4 12 -3 16 -14 5
-16 12 -19 28 -15 17 5 19 4 7 -4 -8 -5 -12 -12 -9 -15 8 -9 49 6 43 15 -3 5
2 9 12 9 14 0 15 -2 3 -17 -8 -10 -16 -20 -19 -23 -10 -9 -40 -59 -40 -66 0
-3 18 -4 40 -2 28 2 40 0 40 -9 0 -7 -5 -13 -11 -13 -6 0 -17 -7 -25 -15 -22
-22 -1 -18 29 5 27 21 67 27 67 9 0 -5 -5 -7 -11 -3 -8 5 -8 1 0 -14 6 -11 11
-32 11 -46 0 -16 8 -30 21 -37 15 -8 18 -13 10 -19 -9 -5 -8 -9 6 -15 10 -5
20 -9 23 -9 3 -1 11 -5 18 -9 6 -5 16 -6 21 -3 15 10 -1 -38 -17 -50 -12 -9
-12 -17 5 -55 20 -45 21 -109 1 -109 -6 0 -8 -7 -4 -15 3 -8 1 -15 -4 -15 -5
0 -7 -13 -5 -29 3 -25 1 -29 -13 -24 -14 5 -15 3 -4 -8 19 -21 14 -48 -15 -76
-15 -16 -21 -29 -15 -31 17 -5 -13 -33 -35 -33 -34 1 -128 13 -143 18 -8 3
-28 7 -45 8 -74 6 -171 23 -285 50 -8 2 -22 5 -30 7 -8 1 -17 6 -20 10 -3 3
-46 9 -95 12 -50 3 -92 5 -95 6 -3 0 6 10 19 20 13 11 19 20 13 20 -6 0 -18 3
-28 7 -10 4 -15 2 -11 -3 3 -5 -10 -9 -29 -9 -19 0 -34 3 -34 8 0 4 -5 7 -11
7 -5 0 -8 -4 -5 -9 5 -8 -92 -26 -100 -18 -2 2 -5 14 -6 28 -3 21 2 24 30 27
19 2 48 -1 65 -7 23 -9 33 -8 40 1 6 9 7 7 3 -5 -5 -15 -2 -17 16 -11 12 4 28
13 35 20 20 20 55 28 63 14 9 -14 20 10 20 43 0 13 3 17 8 11 8 -13 44 -15 36
-2 -3 4 6 8 20 8 13 0 37 5 53 12 22 9 24 12 11 15 -10 3 -18 11 -18 19 0 12
9 14 43 10 23 -3 60 -8 82 -10 22 -3 59 -8 83 -12 28 -4 42 -3 42 5 0 6 -9 11
-21 11 -11 0 -41 6 -67 14 -26 8 -69 18 -96 21 -31 4 -57 15 -71 29 -19 19
-38 24 -121 30 -144 11 -143 11 -157 26 -10 12 -9 12 6 1 11 -9 17 -10 17 -2
0 6 18 11 44 11 25 0 48 5 52 12 5 8 2 9 -9 5 -10 -3 -17 -3 -17 2 0 4 -10 13
-22 18 -22 10 -22 11 -4 19 17 6 14 9 -20 20 -35 11 -36 12 -11 13 40 1 33 19
-8 19 -23 0 -35 -5 -35 -14 0 -8 -4 -14 -10 -14 -6 0 -9 6 -8 12 3 15 -159 18
-302 6 -47 -4 -76 -4 -65 1 20 8 132 21 233 26 30 2 59 8 65 14 15 15 54 14
60 -1 4 -10 8 -10 15 1 7 9 11 10 15 2 3 -7 5 -7 3 1 -3 15 -191 19 -329 9
-80 -6 -99 2 -47 20 38 14 29 29 -16 29 -53 0 -40 17 24 30 31 7 77 20 102 30
25 9 51 15 58 13 6 -3 12 0 12 5 0 6 25 16 54 23 60 13 84 38 38 40 -15 1 -31
1 -35 0 -4 -1 -18 5 -30 14 -12 8 -37 15 -57 15 -19 0 -53 5 -75 10 -26 6 -44
5 -52 -2 -10 -8 -13 -6 -13 6 0 19 41 38 83 39 15 0 27 4 27 9 0 4 5 8 10 8 6
0 10 -7 10 -15 0 -8 4 -15 10 -15 5 0 9 10 7 23 -1 16 3 21 16 19 10 -2 17 3
17 13 0 8 8 16 18 16 9 1 30 2 46 3 16 1 31 7 34 14 2 7 8 12 13 12 6 0 7 -4
4 -10 -3 -6 5 -10 19 -10 13 0 26 4 28 9 5 15 43 18 41 4 -2 -7 2 -13 8 -13 6
0 9 7 5 15 -5 14 18 21 48 16 38 -7 76 -6 76 3 0 6 8 2 17 -9 15 -20 15 -20
10 3 -4 19 -1 22 23 22 28 0 55 -21 43 -33 -3 -4 -1 -7 5 -7 6 0 13 4 17 9 10
17 65 40 80 34 8 -3 12 -9 9 -14 -3 -5 0 -9 5 -9 6 0 11 4 11 8 0 13 80 14
132 0 33 -8 48 -18 52 -32 4 -13 9 -17 13 -11 5 6 15 10 23 9 8 0 23 -2 33 -2
10 -1 17 -11 18 -24 1 -17 2 -19 6 -5 6 22 9 21 34 -4 17 -17 23 -19 30 -8 6
10 9 11 9 2 0 -8 13 -13 29 -13 16 0 31 -6 35 -15 3 -8 15 -15 27 -15 12 0 30
-10 40 -22 11 -11 22 -18 25 -15 4 4 19 -2 34 -13 16 -11 32 -20 38 -20 16 0
35 -29 35 -55 0 -14 3 -25 7 -25 10 0 20 37 12 45 -5 5 -8 18 -14 62 -1 7 -8
15 -16 18 -8 3 -12 12 -8 21 5 13 2 15 -13 11 -22 -6 -51 29 -51 62 0 12 -6
18 -17 17 -12 -1 -17 5 -15 17 2 9 -2 17 -8 17 -15 0 -12 32 6 58 15 21 14 24
-18 56 -24 24 -49 37 -88 45 -69 16 -403 21 -616 11z m-524 -326 c0 -8 -4 -12
-10 -9 -5 3 -10 10 -10 16 0 5 5 9 10 9 6 0 10 -7 10 -16z m1263 -268 c4 -9
-3 -16 -17 -18 -16 -3 -22 1 -23 14 -2 22 32 25 40 4z m-849 -67 c-6 -11 -24
-2 -24 11 0 5 7 7 15 4 8 -4 12 -10 9 -15z m-269 -174 c-38 -7 -82 -16 -97
-20 -17 -4 -28 -3 -28 3 0 11 89 29 150 30 40 0 37 -1 -25 -13z m-138 -21 c-3
-3 -12 -4 -19 -1 -8 3 -5 6 6 6 11 1 17 -2 13 -5z m-357 -14 c0 -5 -9 -10 -21
-10 -11 0 -17 5 -14 10 3 6 13 10 21 10 8 0 14 -4 14 -10z m185 -570 c-10 -11
-23 -20 -29 -20 -6 0 0 9 14 20 32 25 38 25 15 0z m150 -61 c-63 -65 -59 -69
12 -11 37 29 44 32 49 18 4 -11 -3 -27 -19 -44 l-26 -27 29 0 c15 0 28 2 27 5
-1 3 3 6 8 7 6 2 10 -22 10 -57 0 -35 3 -56 9 -50 16 16 55 -25 90 -94 18 -37
29 -69 24 -72 -7 -5 -21 20 -42 80 -5 14 -9 16 -19 7 -10 -8 -17 -7 -26 2 -7
6 0 -7 15 -31 33 -51 44 -93 18 -72 -8 8 -37 15 -62 16 -70 3 -72 3 -72 14 0
6 9 10 20 10 28 0 25 19 -4 30 -13 5 -40 23 -60 40 -33 29 -35 35 -30 71 5 28
3 39 -6 39 -7 0 -10 7 -6 15 3 9 0 15 -10 15 -25 0 -12 26 51 100 39 46 63 66
69 60 7 -7 -10 -31 -49 -71z m-255 39 c-13 -13 -19 -16 -15 -8 14 25 28 41 32
36 3 -3 -5 -15 -17 -28z m60 -12 c0 -2 -8 -10 -17 -17 -16 -13 -17 -12 -4 4
13 16 21 21 21 13z m27 -48 c-3 -8 -6 -5 -6 6 -1 11 2 17 5 13 3 -3 4 -12 1
-19z m79 -22 c-14 -19 -26 -42 -26 -50 0 -9 -3 -16 -8 -16 -13 0 -62 -50 -62
-64 0 -7 16 -30 35 -50 19 -21 35 -39 35 -41 0 -2 -15 2 -32 10 -18 8 -32 19
-30 26 2 7 -4 9 -13 5 -9 -3 -18 1 -21 9 -4 8 -10 12 -15 9 -5 -3 -19 2 -31
10 -17 12 -19 16 -6 16 9 0 18 -6 21 -12 3 -9 9 -7 20 7 14 18 14 21 -5 28
-17 6 -18 10 -8 22 7 8 18 15 24 15 7 0 41 25 76 55 36 30 67 55 69 55 2 0 -8
-15 -23 -34z m-166 -21 c-7 -8 -17 -15 -22 -15 -6 0 -5 7 2 15 7 8 17 15 22
15 6 0 5 -7 -2 -15z m-50 -25 c0 -5 -5 -10 -11 -10 -5 0 -7 5 -4 10 3 6 8 10
11 10 2 0 4 -4 4 -10z m1741 -177 c13 -16 12 -17 -3 -4 -10 7 -18 15 -18 17 0
8 8 3 21 -13z m-1621 -156 c0 -2 -15 -14 -32 -27 l-33 -23 24 26 c21 23 41 35
41 24z m280 -131 c0 -2 -8 -10 -17 -17 -16 -13 -17 -12 -4 4 13 16 21 21 21
13z m410 -73 c0 -10 3 -28 6 -40 5 -17 2 -23 -10 -23 -12 0 -16 10 -16 40 0
22 5 40 10 40 6 0 10 -8 10 -17z m234 -24 c-3 -5 -10 -7 -15 -3 -5 3 -7 10 -3
15 3 5 10 7 15 3 5 -3 7 -10 3 -15z m-339 -179 c3 -5 1 -10 -4 -10 -6 0 -11 5
-11 10 0 6 2 10 4 10 3 0 8 -4 11 -10z"/>
<path d="M4802 9540 c7 -10 14 -18 15 -16 6 6 -9 36 -18 36 -5 0 -4 -9 3 -20z"/>
<path d="M10453 11220 c0 -16 4 -30 8 -30 8 0 5 47 -3 55 -3 3 -5 -8 -5 -25z"/>
<path d="M10125 11220 c3 -5 10 -10 16 -10 5 0 9 5 9 10 0 6 -7 10 -16 10 -8
0 -12 -4 -9 -10z"/>
<path d="M3190 11200 c0 -5 5 -10 11 -10 5 0 7 5 4 10 -3 6 -8 10 -11 10 -2 0
-4 -4 -4 -10z"/>
<path d="M9706 11141 c-17 -6 -17 -8 -4 -14 9 -3 24 1 35 8 14 11 15 14 3 14
-8 0 -24 -4 -34 -8z"/>
<path d="M5703 10995 c0 -14 3 -25 8 -25 5 0 6 -7 3 -15 -4 -8 -1 -15 5 -15 6
0 11 6 11 13 0 9 2 9 8 0 6 -10 12 -10 28 2 18 14 17 14 -13 15 -26 0 -33 4
-33 19 0 11 -4 22 -9 25 -5 3 -8 -6 -8 -19z"/>
<path d="M4950 10910 c0 -5 5 -10 10 -10 6 0 10 5 10 10 0 6 -4 10 -10 10 -5
0 -10 -4 -10 -10z"/>
<path d="M5027 10900 c9 -11 19 -17 21 -15 6 6 -18 35 -29 35 -5 0 -1 -9 8
-20z"/>
<path d="M5120 10899 c0 -5 5 -7 10 -4 6 3 10 8 10 11 0 2 -4 4 -10 4 -5 0
-10 -5 -10 -11z"/>
<path d="M5070 10890 c0 -5 9 -10 21 -10 11 0 17 5 14 10 -3 6 -13 10 -21 10
-8 0 -14 -4 -14 -10z"/>
<path d="M5650 10830 c0 -11 5 -20 10 -20 6 0 10 -11 10 -25 0 -18 -4 -23 -15
-19 -8 4 -15 2 -15 -4 0 -13 52 -22 66 -11 6 5 14 5 18 1 4 -4 6 -1 4 7 -1 8
5 17 14 19 14 2 16 -1 11 -14 -4 -12 -3 -15 5 -10 19 12 14 36 -8 36 -11 0
-20 5 -20 10 0 6 -7 10 -15 10 -8 0 -24 9 -35 20 -11 11 -22 20 -25 20 -3 0
-5 -9 -5 -20z"/>
<path d="M6107 10813 c-4 -3 -7 -11 -7 -17 0 -6 5 -5 12 2 6 6 9 14 7 17 -3 3
-9 2 -12 -2z"/>
<path d="M5640 10790 c0 -5 5 -10 11 -10 5 0 7 5 4 10 -3 6 -8 10 -11 10 -2 0
-4 -4 -4 -10z"/>
<path d="M6145 10770 c-3 -5 1 -10 10 -10 9 0 13 5 10 10 -3 6 -8 10 -10 10
-2 0 -7 -4 -10 -10z"/>
<path d="M5655 10730 c-3 -5 -1 -10 4 -10 6 0 11 5 11 10 0 6 -2 10 -4 10 -3
0 -8 -4 -11 -10z"/>
<path d="M4015 10670 c-4 -6 -10 -8 -15 -5 -4 3 -13 -2 -20 -10 -16 -19 -1
-19 35 -1 14 8 22 17 16 20 -5 4 -12 2 -16 -4z"/>
<path d="M5178 10643 c7 -3 16 -2 19 1 4 3 -2 6 -13 5 -11 0 -14 -3 -6 -6z"/>
<path d="M5495 10620 c3 -5 10 -10 16 -10 5 0 9 5 9 10 0 6 -7 10 -16 10 -8 0
-12 -4 -9 -10z"/>
<path d="M4391 10604 c0 -11 3 -14 6 -6 3 7 2 16 -1 19 -3 4 -6 -2 -5 -13z"/>
<path d="M5535 10610 c3 -5 8 -10 11 -10 2 0 4 5 4 10 0 6 -5 10 -11 10 -5 0
-7 -4 -4 -10z"/>
<path d="M6365 10500 c3 -5 8 -10 11 -10 2 0 4 5 4 10 0 6 -5 10 -11 10 -5 0
-7 -4 -4 -10z"/>
<path d="M5695 10430 c-3 -5 -1 -10 4 -10 6 0 11 5 11 10 0 6 -2 10 -4 10 -3
0 -8 -4 -11 -10z"/>
<path d="M6400 10388 c0 -16 5 -28 10 -28 13 0 13 20 0 40 -8 12 -10 9 -10
-12z"/>
<path d="M5660 10380 c0 -5 12 -10 26 -10 14 0 23 4 19 10 -3 6 -15 10 -26 10
-10 0 -19 -4 -19 -10z"/>
<path d="M6421 10284 c0 -11 3 -14 6 -6 3 7 2 16 -1 19 -3 4 -6 -2 -5 -13z"/>
<path d="M5195 10280 c-3 -5 -1 -10 4 -10 6 0 11 5 11 10 0 6 -2 10 -4 10 -3
0 -8 -4 -11 -10z"/>
<path d="M5245 10270 c4 -6 11 -8 16 -5 14 9 11 15 -7 15 -8 0 -12 -5 -9 -10z"/>
<path d="M5360 10260 c0 -5 5 -10 11 -10 5 0 7 5 4 10 -3 6 -8 10 -11 10 -2 0
-4 -4 -4 -10z"/>
<path d="M5318 10253 c7 -3 16 -2 19 1 4 3 -2 6 -13 5 -11 0 -14 -3 -6 -6z"/>
<path d="M4025 10229 c-4 -6 -5 -13 -2 -16 7 -7 27 6 27 18 0 12 -17 12 -25
-2z"/>
<path d="M4000 10223 c0 -6 -14 -16 -30 -23 -35 -14 -48 -30 -26 -30 20 0 73
46 64 56 -5 4 -8 3 -8 -3z"/>
<path d="M6425 10220 c3 -5 8 -10 11 -10 2 0 4 5 4 10 0 6 -5 10 -11 10 -5 0
-7 -4 -4 -10z"/>
<path d="M6429 10188 c-6 -21 -5 -39 2 -44 5 -3 9 6 9 20 0 21 -7 36 -11 24z"/>
<path d="M6428 10114 c-5 -4 -8 -39 -7 -78 1 -67 2 -69 10 -31 11 45 8 121 -3
109z"/>
<path d="M6417 9953 c-4 -3 -7 -13 -7 -22 1 -13 3 -13 11 2 11 19 8 33 -4 20z"/>
<path d="M3506 9871 c-3 -4 6 -8 20 -9 13 -1 24 0 24 2 0 7 -40 14 -44 7z"/>
<path d="M6557 9846 c-4 -10 -5 -21 -2 -24 9 -9 17 6 13 25 -3 17 -4 17 -11
-1z"/>
<path d="M6590 9815 c0 -14 -4 -33 -9 -43 -5 -9 -16 -32 -23 -50 -7 -18 -21
-35 -30 -38 -10 -3 -18 -9 -18 -14 0 -11 30 -21 41 -14 12 7 41 64 33 64 -4 0
-1 7 6 15 7 8 10 22 6 30 -3 8 -1 15 4 15 6 0 10 14 10 30 0 17 -4 30 -10 30
-5 0 -10 -11 -10 -25z"/>
<path d="M6544 9793 c-4 -10 -6 -22 -5 -27 1 -4 -4 -14 -10 -22 -13 -16 -4
-33 10 -18 10 10 26 84 18 84 -3 0 -8 -8 -13 -17z"/>
<path d="M3827 9730 c-20 -4 -40 -10 -43 -13 -10 -10 70 5 81 14 5 5 7 8 5 8
-3 -1 -22 -5 -43 -9z"/>
<path d="M8300 9730 c0 -5 5 -10 10 -10 6 0 10 5 10 10 0 6 -4 10 -10 10 -5 0
-10 -4 -10 -10z"/>
<path d="M8193 9673 c-16 -6 -17 -65 -1 -81 7 -7 8 -12 4 -12 -5 0 -3 -7 4
-15 17 -20 29 -19 25 3 -2 9 -4 17 -5 17 0 0 -3 20 -5 43 -4 49 -5 51 -22 45z"/>
<path d="M6482 9619 c2 -6 8 -10 13 -10 5 0 11 4 13 10 2 6 -4 11 -13 11 -9 0
-15 -5 -13 -11z"/>
<path d="M8216 9514 c-5 -12 -2 -15 10 -10 8 3 18 6 20 6 2 0 4 5 4 10 0 16
-27 11 -34 -6z"/>
<path d="M8380 9350 c-8 -5 -12 -12 -9 -15 8 -8 39 5 39 16 0 11 -11 11 -30
-1z"/>
<path d="M4808 8923 c7 -3 16 -2 19 1 4 3 -2 6 -13 5 -11 0 -14 -3 -6 -6z"/>
<path d="M5000 8892 c-36 -5 -45 -18 -22 -31 16 -8 21 -7 26 4 6 17 36 21 36
4 0 -5 5 -7 10 -4 6 3 10 12 10 20 0 13 -7 14 -60 7z"/>
<path d="M4874 8856 c-10 -8 -16 -18 -11 -22 4 -4 7 -2 7 4 0 7 7 12 15 12 8
0 15 5 15 10 0 13 -3 13 -26 -4z"/>
<path d="M8475 7260 c10 -33 25 -49 25 -26 0 9 -7 25 -16 34 -15 15 -16 14 -9
-8z"/>
<path d="M8514 7208 c1 -45 6 -73 14 -76 7 -2 10 -13 6 -28 -7 -26 2 -29 44
-18 25 7 31 51 10 73 -10 11 -10 14 0 18 19 7 14 24 -5 21 -13 -2 -24 10 -38
40 -11 23 -22 42 -26 42 -3 0 -6 -32 -5 -72z"/>
<path d="M8484 7109 c-3 -6 -1 -16 5 -22 8 -8 11 -5 11 11 0 24 -5 28 -16 11z"/>
<path d="M8570 7060 c0 -5 5 -10 11 -10 5 0 7 5 4 10 -3 6 -8 10 -11 10 -2 0
-4 -4 -4 -10z"/>
<path d="M9366 6778 c3 -4 9 -8 15 -8 5 0 9 4 9 8 0 5 -7 9 -15 9 -8 0 -12 -4
-9 -9z"/>
<path d="M9353 6731 c3 -14 1 -18 -9 -14 -9 3 -14 -2 -14 -15 0 -11 -3 -22 -7
-24 -11 -4 -63 -86 -63 -97 0 -6 -6 -14 -13 -18 -6 -4 -25 -25 -40 -45 -28
-38 -51 -51 -41 -23 4 9 0 15 -10 15 -9 0 -13 -6 -10 -13 3 -8 -2 -19 -10 -26
-12 -10 -14 -9 -9 8 3 12 1 21 -6 21 -6 0 -11 -7 -11 -16 0 -8 -4 -13 -9 -9
-6 3 -14 -3 -20 -12 -6 -10 -11 -14 -11 -9 0 4 -24 -17 -52 -47 -29 -30 -82
-71 -117 -90 -55 -31 -61 -36 -45 -46 18 -10 18 -10 -2 -11 -12 0 -24 -7 -28
-15 -3 -8 -14 -15 -25 -15 -11 0 -32 -11 -47 -25 -15 -14 -33 -25 -40 -25 -8
0 -14 -4 -14 -10 0 -5 -8 -10 -17 -10 -15 0 -16 -2 -3 -10 15 -10 13 -10 -52
-15 -9 0 -30 -11 -45 -23 -30 -24 -43 -28 -43 -12 0 6 -5 10 -11 10 -5 0 -7
-4 -4 -10 3 -5 -3 -10 -14 -10 -20 0 -51 -24 -51 -41 0 -5 8 -9 18 -10 11 0
12 -2 4 -6 -7 -3 -19 1 -27 7 -12 10 -15 9 -15 -3 0 -17 57 -48 75 -40 8 3 15
-12 19 -41 4 -25 11 -46 17 -46 5 0 9 -7 9 -15 0 -8 6 -15 13 -15 8 0 20 -12
28 -27 8 -16 42 -62 76 -103 35 -41 77 -101 94 -133 50 -94 219 -282 265 -293
38 -10 57 2 44 26 -6 12 -10 35 -8 53 2 24 10 35 33 46 72 33 98 85 113 226
10 93 2 195 -26 350 -52 280 -55 247 37 410 34 58 61 109 61 111 0 13 41 94
51 99 6 4 8 13 5 20 -3 8 -1 15 4 17 16 5 25 68 10 68 -7 0 -10 -8 -7 -19z"/>
<path d="M8077 6534 c-2 -2 -23 -6 -47 -9 -24 -3 -49 -10 -57 -16 -7 -6 -13
-8 -13 -5 0 4 -13 -2 -28 -13 -16 -11 -40 -23 -55 -26 -15 -4 -29 -11 -32 -15
-2 -4 -30 -20 -62 -36 -31 -16 -71 -43 -88 -59 -16 -17 -55 -48 -85 -70 l-55
-40 35 -6 c51 -8 104 3 185 36 17 7 55 18 85 25 30 7 72 19 92 27 26 11 68 15
145 14 247 -4 240 -5 277 17 24 14 36 17 36 9 0 -7 7 1 16 18 15 29 14 31 -11
52 -21 19 -23 23 -8 23 45 0 -65 42 -114 44 -29 0 -53 4 -53 7 0 4 -10 7 -22
7 -13 0 -49 4 -81 9 -31 5 -58 8 -60 7z m223 -44 c13 -9 13 -10 0 -10 -8 0
-22 5 -30 10 -13 9 -13 10 0 10 8 0 22 -5 30 -10z"/>
<path d="M8430 6455 c0 -10 10 -15 33 -15 l32 0 -29 15 c-35 18 -36 18 -36 0z"/>
<path d="M8470 5539 c0 -5 5 -7 10 -4 6 3 10 8 10 11 0 2 -4 4 -10 4 -5 0 -10
-5 -10 -11z"/>
<path d="M7905 5270 c-3 -5 -1 -10 4 -10 6 0 11 5 11 10 0 6 -2 10 -4 10 -3 0
-8 -4 -11 -10z"/>
<path d="M8480 5256 c0 -9 7 -16 16 -16 17 0 14 22 -4 28 -7 2 -12 -3 -12 -12z"/>
<path d="M8718 5243 c-26 -14 -45 -30 -42 -34 3 -5 1 -9 -5 -9 -5 0 -12 6 -14
13 -4 9 -8 8 -16 -3 -8 -12 -6 -17 12 -24 12 -4 29 -11 37 -16 8 -4 30 -5 49
-2 36 5 51 -8 51 -45 0 -16 9 -25 37 -33 l36 -13 -38 -13 c-23 -7 -45 -9 -54
-5 -10 6 -31 -2 -67 -26 -41 -27 -59 -34 -81 -29 -37 8 -84 -22 -130 -83 -32
-42 -90 -81 -123 -81 -8 -1 -33 -12 -55 -25 -60 -37 -66 -39 -86 -27 -10 7
-29 12 -42 12 -13 0 -28 5 -34 11 -8 8 -17 8 -33 -1 -12 -7 -36 -9 -52 -6 -17
3 -41 0 -57 -9 -26 -13 -31 -12 -62 10 -28 21 -42 24 -90 21 -35 -2 -69 -11
-86 -22 -15 -10 -53 -31 -83 -47 -30 -16 -59 -35 -63 -43 -4 -8 -17 -14 -27
-14 -11 0 -20 -6 -20 -14 0 -8 -9 -17 -20 -21 -24 -8 -153 -108 -189 -147 -8
-10 -23 -18 -33 -18 -10 0 -18 -4 -18 -10 0 -5 -6 -10 -12 -10 -7 -1 -29 -14
-48 -30 -19 -17 -39 -30 -46 -30 -6 0 -19 -9 -29 -20 -10 -11 -23 -20 -29 -20
-6 0 -17 -9 -24 -20 -7 -12 -17 -18 -22 -15 -6 3 -15 -5 -22 -19 -6 -14 -17
-26 -24 -26 -7 0 -19 -8 -26 -18 -7 -10 -26 -25 -43 -34 -16 -8 -57 -29 -90
-46 -35 -19 -60 -38 -60 -47 0 -11 -22 -25 -60 -40 -33 -13 -96 -37 -141 -55
-110 -43 -186 -57 -258 -48 -32 4 -65 13 -72 19 -8 7 -17 9 -20 6 -4 -3 11
-23 32 -44 l39 -38 -32 -3 c-52 -5 -38 -22 17 -22 74 0 61 -18 -16 -22 -54 -2
-68 0 -75 14 -6 11 -5 18 4 21 15 5 0 35 -27 51 -13 9 -20 7 -31 -8 -15 -19
-12 -36 6 -36 6 0 8 4 4 9 -3 5 0 13 6 17 6 3 15 0 20 -7 5 -8 3 -16 -4 -21
-8 -5 -6 -13 7 -27 20 -22 15 -27 -33 -33 -40 -5 -36 -26 6 -34 21 -3 57 -17
80 -30 23 -13 48 -24 57 -24 8 0 32 -11 52 -25 21 -15 49 -24 65 -23 30 2 30
18 0 18 -10 0 -29 8 -42 19 -13 10 -46 30 -74 44 -27 15 -55 30 -61 34 -7 4
35 9 93 10 76 2 109 6 117 16 15 20 56 28 78 16 14 -8 18 -6 18 7 0 13 3 14
15 4 8 -7 26 -10 40 -8 14 3 25 1 25 -3 0 -5 5 -9 10 -9 6 0 10 7 10 15 0 11
7 14 24 9 13 -3 27 -1 30 5 4 6 16 11 27 11 11 0 22 7 25 15 4 8 12 15 20 15
8 0 14 4 14 10 0 5 11 12 25 16 13 3 29 12 36 20 6 8 18 14 25 14 8 0 32 11
53 24 21 14 42 22 45 19 3 -3 14 1 23 9 18 15 71 36 193 76 67 23 252 34 279
18 7 -4 94 -9 194 -11 100 -2 193 -6 207 -9 30 -6 222 -18 268 -17 17 1 41 -3
51 -8 13 -7 49 -7 112 0 52 5 110 11 129 13 19 1 45 7 57 14 12 7 28 12 37 12
8 0 17 6 20 13 5 10 7 10 12 0 8 -19 24 -16 24 5 0 14 2 15 10 2 5 -8 10 -10
10 -4 0 10 53 29 72 25 4 0 19 4 34 9 20 8 31 6 54 -10 15 -11 38 -20 49 -20
18 0 20 3 11 19 -10 20 2 24 28 8 6 -5 17 -5 22 -2 6 4 9 1 8 -7 -2 -9 10 -14
36 -16 35 -3 38 -2 26 12 -11 15 -10 15 11 8 28 -11 33 -47 7 -47 -27 0 -32
-13 -13 -32 10 -9 13 -19 7 -21 -12 -4 22 -42 61 -67 25 -16 26 -19 12 -35 -8
-9 -15 -24 -15 -32 0 -9 -10 -23 -22 -32 -21 -14 -22 -16 -5 -26 10 -7 17 -23
17 -41 0 -16 5 -38 12 -48 9 -15 9 -23 -2 -36 -9 -11 -15 -47 -16 -104 -3
-108 -2 -101 -15 -101 -5 0 -7 6 -3 13 4 6 -2 4 -13 -6 -11 -10 -28 -32 -38
-50 -23 -44 -58 -68 -106 -73 -36 -5 -55 9 -26 19 6 2 9 7 6 11 -4 4 -17 -5
-30 -19 -13 -15 -41 -38 -62 -51 -36 -24 -40 -24 -62 -10 -14 9 -46 16 -72 16
-27 0 -58 7 -70 15 -14 10 -32 13 -47 9 -18 -4 -27 -1 -34 13 -8 14 -21 18
-54 18 -45 -1 -77 -18 -126 -66 -36 -35 -104 -69 -161 -79 -288 -52 -384 -62
-526 -56 -139 6 -188 12 -220 25 -58 24 -135 51 -172 61 -29 7 -40 15 -37 24
5 14 -15 26 -53 33 -13 2 -23 -1 -23 -7 0 -5 5 -10 10 -10 6 0 10 -6 10 -14 0
-19 79 -76 96 -69 8 3 14 0 14 -6 0 -6 7 -11 15 -11 8 0 15 -4 15 -8 0 -9 118
-63 243 -112 43 -17 97 -40 118 -51 53 -27 129 -49 334 -100 154 -38 185 -42
325 -46 85 -2 208 -8 272 -13 64 -6 182 -10 263 -10 166 0 203 -10 235 -62 26
-42 55 -136 51 -167 -2 -15 1 -21 8 -17 7 4 11 -1 11 -13 0 -12 4 -21 10 -21
5 0 7 -7 4 -15 -4 -8 -2 -15 3 -15 14 0 36 76 99 339 64 269 70 288 131 431
82 188 97 241 118 394 15 111 20 302 9 344 -4 12 -12 22 -20 22 -26 0 -42 44
-43 115 -1 144 -31 284 -102 491 -64 188 -110 272 -191 349 -37 36 -72 64 -77
61 -5 -3 -20 4 -35 15 -21 17 -45 21 -124 25 -53 2 -106 6 -117 9 -11 2 -41
-8 -67 -22z m-1808 -1073 c0 -5 -5 -10 -11 -10 -5 0 -7 5 -4 10 3 6 8 10 11
10 2 0 4 -4 4 -10z m-170 -230 c0 -5 -4 -10 -10 -10 -5 0 -10 5 -10 10 0 6 5
10 10 10 6 0 10 -4 10 -10z m-300 -4 c0 -2 -7 -7 -16 -10 -8 -3 -12 -2 -9 4 6
10 25 14 25 6z"/>
<path d="M8615 5250 c-3 -5 1 -10 9 -10 9 0 16 5 16 10 0 6 -4 10 -9 10 -6 0
-13 -4 -16 -10z"/>
<path d="M7548 5090 c-26 -8 -147 -86 -214 -137 -16 -13 -46 -35 -66 -50 -113
-84 -167 -125 -252 -193 -133 -106 -207 -164 -236 -182 -14 -8 -36 -26 -50
-40 -14 -13 -45 -39 -70 -58 -47 -36 -71 -62 -64 -69 2 -2 27 14 56 36 29 21
71 52 92 69 122 90 257 199 302 242 7 6 16 12 21 12 4 0 21 11 37 25 16 14 33
25 37 25 4 0 14 6 21 13 21 20 89 70 137 100 24 16 49 34 56 41 7 7 37 28 67
47 29 18 61 41 70 49 9 8 35 26 57 40 56 35 56 47 -1 30z"/>
<path d="M8610 3799 c0 -8 4 -20 9 -27 7 -11 9 -11 14 1 3 9 -1 21 -9 27 -11
10 -14 10 -14 -1z"/>
<path d="M7770 3781 c0 -6 5 -13 10 -16 6 -3 10 1 10 9 0 9 -4 16 -10 16 -5 0
-10 -4 -10 -9z"/>
<path d="M7930 3772 c0 -19 -3 -21 -19 -13 -23 13 -31 5 -31 -27 0 -16 -5 -22
-13 -19 -10 4 -12 -3 -9 -24 3 -24 1 -28 -12 -23 -16 6 -21 21 -17 62 1 12 -3
22 -9 22 -5 0 -10 -4 -10 -10 0 -5 -6 -10 -14 -10 -7 0 -16 -14 -20 -31 -7
-34 -26 -30 -26 5 0 27 -24 51 -40 41 -5 -3 -10 -20 -10 -37 0 -26 -2 -29 -15
-18 -11 9 -15 9 -15 1 0 -7 -4 -9 -10 -6 -5 3 -10 16 -10 28 -1 16 -6 10 -21
-21 -11 -24 -18 -50 -15 -59 8 -19 26 -7 26 18 0 10 5 19 10 19 6 0 10 -13 10
-29 0 -17 5 -33 10 -36 6 -3 10 1 10 11 0 13 5 11 25 -10 28 -31 34 -32 51 -8
12 16 14 16 35 -7 19 -21 23 -21 31 -7 8 15 11 15 31 1 12 -8 40 -15 63 -15
38 0 44 4 58 31 14 28 14 37 2 78 -8 25 -21 62 -30 81 -13 29 -15 31 -16 12z
m-155 -131 c3 -5 1 -12 -5 -16 -5 -3 -10 1 -10 9 0 18 6 21 15 7z"/>
<path d="M7810 3770 c0 -5 5 -10 11 -10 5 0 7 5 4 10 -3 6 -8 10 -11 10 -2 0
-4 -4 -4 -10z"/>
<path d="M8535 3750 c10 -11 20 -20 23 -20 3 0 -3 9 -13 20 -10 11 -20 20 -23
20 -3 0 3 -9 13 -20z"/>
<path d="M8470 3731 c0 -11 5 -23 10 -26 6 -4 10 5 10 19 0 14 -4 26 -10 26
-5 0 -10 -9 -10 -19z"/>
<path d="M8620 3728 c0 -16 -4 -28 -10 -28 -5 0 -10 5 -10 12 0 6 -3 9 -6 6
-3 -4 -1 -16 6 -27 7 -15 8 -21 0 -21 -14 0 -9 -30 10 -53 8 -10 15 -28 15
-40 0 -39 29 -25 38 18 14 70 13 80 -5 79 -10 -1 -18 2 -18 7 0 5 9 9 20 9 11
0 20 7 20 15 0 8 -7 15 -16 15 -9 0 -23 8 -30 18 -12 15 -13 14 -14 -10z m40
-98 c0 -5 -4 -10 -10 -10 -5 0 -10 5 -10 10 0 6 5 10 10 10 6 0 10 -4 10 -10z"/>
<path d="M8066 3725 c4 -8 8 -15 10 -15 2 0 4 7 4 15 0 8 -4 15 -10 15 -5 0
-7 -7 -4 -15z"/>
<path d="M8108 3711 c2 -16 -1 -32 -7 -35 -6 -4 -11 0 -11 8 0 9 -4 16 -10 16
-5 0 -10 -7 -10 -15 0 -9 -7 -15 -17 -13 -12 2 -19 -6 -23 -29 -10 -43 1 -58
26 -35 11 10 25 17 32 14 6 -2 12 3 12 12 0 9 5 16 10 16 6 0 10 -7 10 -15 0
-8 4 -15 8 -15 10 0 8 53 -3 93 -10 36 -23 35 -17 -2z"/>
<path d="M7552 3685 c0 -16 2 -22 5 -12 2 9 2 23 0 30 -3 6 -5 -1 -5 -18z"/>
<path d="M8556 3685 c-3 -9 -6 -28 -6 -41 0 -14 -5 -35 -11 -46 -12 -23 5 -53
19 -32 4 7 16 13 26 15 11 2 21 10 24 17 2 7 -2 10 -12 6 -12 -4 -15 3 -14 36
0 45 -15 73 -26 45z"/>
<path d="M8481 3650 c1 -39 14 -104 19 -90 11 35 9 98 -4 115 -14 19 -15 17
-15 -25z"/>
<path d="M8700 3653 c0 -22 2 -25 10 -13 13 20 13 40 0 40 -5 0 -10 -12 -10
-27z"/>
<path d="M7996 3601 c-4 -7 -5 -15 -2 -18 9 -9 19 4 14 18 -4 11 -6 11 -12 0z"/>
<path d="M7058 3463 c7 -3 16 -2 19 1 4 3 -2 6 -13 5 -11 0 -14 -3 -6 -6z"/>
</g>
</svg>
