<?xml version="1.0" standalone="no"?>
<!DOCTYPE svg PUBLIC "-//W3C//DTD SVG 20010904//EN"
 "http://www.w3.org/TR/2001/REC-SVG-20010904/DTD/svg10.dtd">
<svg version="1.0" xmlns="http://www.w3.org/2000/svg"
 width="1280.000000pt" height="682.000000pt" viewBox="0 0 1280.000000 682.000000"
 preserveAspectRatio="xMidYMid meet">
<metadata>
Created by potrace 1.15, written by Peter Selinger 2001-2017
</metadata>
<g transform="translate(0.000000,682.000000) scale(0.100000,-0.100000)"
fill="#000000" stroke="none">
<path d="M9613 6810 c-183 -23 -419 -85 -628 -165 l-120 -46 -15 23 c-55 82
-137 133 -246 150 -72 11 -90 6 -268 -64 -115 -46 -171 -76 -243 -135 -47 -38
-54 -41 -84 -33 -64 19 -276 31 -322 20 -128 -34 -192 -66 -257 -126 -95 -89
-119 -217 -85 -454 l17 -119 -88 -128 c-335 -489 -548 -764 -688 -888 -53 -47
-96 -89 -96 -93 0 -4 -20 -20 -44 -35 -25 -15 -82 -68 -127 -118 -45 -49 -95
-99 -110 -110 l-29 -20 -142 26 c-421 77 -753 223 -920 404 -60 65 -75 74
-353 220 l-290 153 -90 9 c-164 18 -318 -5 -427 -63 -113 -60 -210 -202 -253
-368 -9 -36 -19 -69 -22 -74 -3 -5 -5 -46 -4 -92 2 -84 2 -84 -26 -95 -130
-50 -275 -13 -346 88 -80 113 -13 238 152 283 40 12 87 28 103 36 103 53 88
129 -37 186 -39 17 -68 22 -135 22 -78 1 -90 -2 -148 -33 -83 -45 -190 -145
-227 -212 -39 -73 -47 -187 -17 -272 31 -86 102 -185 203 -281 101 -96 106
-99 274 -169 99 -41 135 -51 208 -57 48 -4 89 -9 91 -11 2 -2 31 -40 63 -84
151 -204 286 -292 463 -302 99 -6 192 11 299 54 l72 29 77 -37 c42 -21 158
-67 257 -104 99 -37 182 -69 184 -71 8 -7 -116 -148 -214 -243 -344 -331 -816
-657 -1061 -730 -98 -30 -306 -34 -417 -8 -48 12 -77 23 -75 30 2 7 64 41 137
77 101 50 149 81 203 130 127 115 177 197 243 397 33 102 34 108 25 194 -11
107 -46 196 -123 311 -109 162 -251 295 -392 364 -70 34 -83 37 -203 45 -71 4
-180 15 -244 23 l-115 16 -103 -36 c-127 -44 -281 -120 -377 -186 -87 -60
-195 -173 -242 -252 -47 -79 -81 -201 -81 -290 0 -40 -3 -75 -6 -78 -3 -4 -37
7 -76 23 -88 36 -287 85 -399 99 -141 17 -256 -8 -344 -76 -70 -53 -150 -188
-200 -338 -25 -75 -25 -78 -15 -233 15 -234 19 -277 41 -398 54 -293 191 -473
441 -576 77 -31 118 -35 200 -18 111 24 196 89 240 184 32 69 32 232 1 317
-60 161 -161 222 -239 144 l-34 -34 0 -104 c0 -127 -6 -139 -49 -103 -97 83
-173 419 -117 524 17 32 19 33 71 29 45 -4 71 -16 168 -77 64 -40 139 -81 167
-92 61 -23 151 -25 210 -4 24 8 44 14 45 13 1 -2 44 -59 96 -128 254 -340 550
-538 979 -657 86 -24 110 -26 250 -24 167 1 552 26 664 42 225 31 768 223
1081 381 154 78 158 79 134 47 -14 -19 -56 -77 -94 -129 -228 -316 -405 -538
-516 -647 -145 -142 -376 -296 -638 -428 -104 -52 -180 -69 -451 -101 -178
-22 -577 -25 -725 -6 -254 33 -442 81 -664 171 -82 34 -194 72 -248 86 -180
45 -381 49 -520 9 -156 -45 -316 -156 -424 -296 -98 -128 -205 -231 -280 -269
-52 -26 -79 -33 -144 -37 -94 -5 -163 15 -254 74 -145 94 -254 322 -255 534 0
116 14 180 65 288 34 71 47 87 92 116 68 45 129 63 162 48 29 -13 48 -49 86
-157 48 -139 51 -145 77 -145 30 0 77 49 93 98 7 20 13 73 13 117 1 73 -2 87
-36 157 -44 88 -123 180 -182 210 -58 31 -164 31 -230 0 -159 -72 -287 -244
-341 -456 -72 -284 -55 -550 51 -775 85 -182 247 -357 397 -431 196 -96 356
-74 664 92 212 114 367 191 451 223 134 50 248 27 502 -104 80 -40 199 -102
266 -135 66 -34 149 -72 185 -84 35 -12 169 -64 297 -116 269 -110 444 -169
563 -191 46 -8 118 -24 159 -35 578 -153 1359 126 2342 836 321 233 618 539
963 994 90 118 175 226 189 239 25 24 27 24 60 9 138 -66 301 -34 491 96 102
70 149 84 504 156 343 69 431 140 486 395 10 44 23 86 30 93 10 11 55 -30 241
-216 154 -153 280 -269 384 -351 85 -68 175 -141 200 -163 63 -56 158 -98 435
-190 132 -44 265 -90 295 -103 156 -67 671 -107 885 -70 315 55 550 234 725
550 18 33 38 63 44 67 14 10 74 10 79 1 3 -5 -26 -57 -64 -118 -139 -222 -172
-344 -129 -483 38 -122 144 -248 256 -303 60 -30 76 -33 153 -33 98 0 126 11
182 71 44 46 89 113 89 131 0 25 -94 113 -169 159 -42 26 -86 56 -99 67 l-22
20 21 23 c19 20 81 52 315 164 128 62 244 201 303 365 39 107 36 151 -15 253
-103 206 -428 393 -687 395 -100 0 -89 -12 -107 121 -48 349 -212 705 -435
944 -69 74 -239 209 -300 237 -27 13 -114 37 -193 53 -133 28 -151 30 -236 21
-207 -21 -351 -102 -447 -252 -101 -156 -126 -436 -64 -713 34 -152 67 -238
155 -415 l72 -143 -40 32 c-22 17 -54 52 -70 79 -31 48 -38 62 -111 234 -50
120 -246 542 -460 992 -89 186 -160 340 -159 341 2 1 41 -3 88 -8 61 -8 126
-7 226 1 389 32 636 147 784 363 188 274 255 390 319 550 86 218 76 405 -26
501 -27 25 -121 78 -140 78 -5 0 -41 48 -80 108 -216 327 -461 506 -795 578
-87 19 -333 27 -435 14z"/>
</g>
</svg>
