<?xml version="1.0" standalone="no"?>
<!DOCTYPE svg PUBLIC "-//W3C//DTD SVG 20010904//EN"
 "http://www.w3.org/TR/2001/REC-SVG-20010904/DTD/svg10.dtd">
<svg version="1.0" xmlns="http://www.w3.org/2000/svg"
 width="674.000000pt" height="1280.000000pt" viewBox="0 0 674.000000 1280.000000"
 preserveAspectRatio="xMidYMid meet">
<metadata>
Created by potrace 1.15, written by Peter Selinger 2001-2017
</metadata>
<g transform="translate(0.000000,1280.000000) scale(0.100000,-0.100000)"
fill="#000000" stroke="none">
<path d="M3830 12789 c-258 -22 -523 -93 -747 -199 -351 -167 -603 -407 -764
-731 -28 -57 -71 -136 -94 -174 -175 -290 -268 -610 -295 -1009 -21 -324 -43
-1832 -36 -2541 3 -379 9 -740 12 -801 l6 -110 -463 -11 c-402 -10 -477 -14
-558 -32 -284 -61 -449 -195 -780 -634 -115 -153 -125 -175 -98 -225 10 -17
11 -41 4 -100 -19 -148 20 -434 103 -771 75 -303 136 -367 365 -378 104 -5
175 2 520 56 271 43 405 53 700 54 242 1 408 -11 426 -31 4 -4 3 -56 -1 -117
-24 -317 -50 -1325 -50 -1925 0 -415 15 -1123 30 -1435 41 -839 111 -1341 218
-1554 61 -123 5 -112 628 -114 580 -2 640 2 785 50 102 33 166 83 204 158 29
57 30 64 31 199 1 78 7 267 14 421 9 194 11 438 7 795 -8 654 -30 1170 -103
2390 -34 585 -74 1267 -74 1282 0 19 219 7 904 -47 369 -29 615 -32 735 -10
79 15 81 15 110 -6 49 -36 90 -22 175 57 559 529 641 646 640 914 -1 145 -23
265 -118 647 -41 164 -77 332 -80 373 -7 88 -23 114 -90 151 -112 62 -337 89
-731 89 -375 0 -789 -26 -1337 -84 -135 -14 -208 -18 -208 -11 0 5 -5 120 -10
255 -5 135 -19 506 -30 825 -11 319 -27 740 -35 935 -29 683 -16 956 49 1052
62 93 133 9 210 -244 55 -185 113 -546 131 -823 10 -144 17 -166 72 -209 25
-20 54 -36 65 -36 48 0 1020 53 1298 70 603 39 603 39 630 59 14 10 36 21 48
26 36 11 204 185 285 294 243 326 266 621 89 1141 -132 388 -306 783 -422 960
-322 491 -813 845 -1406 1014 -315 90 -646 123 -964 95z m182 -248 c10 -30 17
-55 15 -57 -1 -1 -37 1 -79 3 l-78 6 -13 46 -13 46 31 6 c16 4 50 6 74 5 l44
-1 19 -54z m357 39 c41 -6 76 -11 78 -13 2 -2 -3 -17 -11 -32 -8 -16 -18 -45
-21 -67 -4 -22 -12 -38 -20 -38 -12 0 -65 10 -141 25 -17 4 -23 14 -27 47 -3
24 -9 53 -13 66 -6 20 -3 22 37 22 24 0 77 -5 118 -10z m-720 -51 c6 -18 11
-35 11 -39 0 -4 -39 -10 -87 -13 -102 -8 -270 -39 -362 -67 -36 -11 -67 -18
-68 -16 -15 15 414 163 479 165 9 1 21 -12 27 -30z m1102 -31 c22 -6 39 -14
39 -18 0 -4 -11 -17 -25 -30 -13 -12 -36 -40 -50 -60 -26 -37 -27 -37 -65 -26
-21 6 -42 14 -45 18 -14 13 16 75 41 86 13 7 27 19 30 27 7 18 24 19 75 3z
m380 -147 l104 -49 -63 -30 c-35 -17 -71 -37 -81 -46 -15 -14 -25 -12 -109 22
-50 20 -90 42 -89 47 4 11 117 105 128 105 4 0 53 -22 110 -49z m-961 -85
c272 -40 549 -121 820 -239 225 -97 340 -165 340 -199 0 -27 53 -78 82 -78 41
0 176 -177 298 -393 71 -125 73 -130 61 -163 -22 -62 10 -124 74 -140 16 -4
32 -34 72 -137 136 -349 208 -632 240 -946 19 -190 10 -327 -29 -456 -21 -69
-25 -75 -53 -80 -57 -8 -1211 -76 -1562 -91 -84 -4 -156 -7 -160 -8 -5 -1 -11
35 -15 79 -24 265 -31 333 -49 455 -66 442 -178 719 -314 776 -88 36 -193 -4
-297 -114 -55 -58 -68 -80 -90 -148 -113 -345 -111 -1182 7 -2906 19 -277 37
-557 41 -623 7 -125 19 -166 55 -186 16 -8 161 -8 573 1 303 7 692 10 864 7
l313 -6 31 -27 c25 -21 40 -25 74 -22 l42 3 6 -75 c19 -234 37 -665 34 -790
-3 -120 -7 -153 -25 -191 -47 -105 -107 -117 -460 -95 -142 9 -418 20 -613 26
-1015 27 -944 29 -975 -30 -25 -49 -19 -79 23 -120 l39 -36 27 -595 c30 -663
52 -1236 96 -2499 6 -162 19 -529 30 -815 11 -286 20 -525 20 -531 0 -6 -14
-17 -30 -24 -32 -13 -60 -55 -60 -87 0 -10 18 -68 39 -128 21 -61 42 -137 45
-170 4 -33 9 -79 12 -102 l5 -41 -48 -16 c-143 -47 -475 -77 -1030 -92 l-242
-7 -11 27 c-29 78 -75 434 -100 776 -47 671 -85 2204 -69 2860 4 179 15 455
24 615 10 170 15 366 13 475 -5 210 -20 269 -86 342 -81 90 -176 113 -457 111
-216 -1 -287 -6 -997 -73 -229 -22 -418 -40 -421 -40 -13 0 -55 172 -72 290
-25 180 -48 432 -61 662 l-7 126 42 21 c127 65 593 71 1286 15 105 -8 231 -19
280 -24 134 -14 241 -12 274 5 49 25 55 58 41 203 -7 70 -12 159 -12 197 1 39
-5 216 -13 395 -81 1795 -7 2771 336 4464 12 57 17 64 123 171 61 61 149 138
195 170 215 150 487 248 791 285 106 13 465 4 590 -14z m1354 -153 c67 -49 78
-63 51 -63 -9 0 -37 -11 -64 -25 l-49 -24 -82 54 -83 55 36 15 c20 8 42 15 50
15 7 0 22 7 33 15 24 18 30 16 108 -42z m287 -260 c19 -21 46 -51 59 -66 l25
-29 -27 -23 c-14 -12 -48 -31 -73 -41 -44 -16 -48 -16 -57 -1 -5 9 -33 47 -63
84 -30 38 -55 71 -55 75 0 4 26 10 58 13 31 4 64 11 72 16 22 12 23 12 61 -28z
m247 -325 c21 -35 48 -81 60 -104 l21 -41 -77 -32 c-42 -18 -81 -32 -87 -32
-10 2 -105 166 -105 181 0 5 15 13 33 19 18 6 49 25 68 41 18 16 37 29 41 30
3 0 24 -28 46 -62z m216 -451 c50 -127 50 -127 37 -127 -4 0 -41 -18 -80 -39
-71 -40 -72 -40 -80 -18 -5 12 -28 69 -50 126 -23 57 -39 106 -37 109 13 13
152 77 157 72 3 -3 27 -58 53 -123z m168 -441 l46 -133 -56 -7 c-31 -4 -75
-16 -99 -28 -24 -12 -45 -20 -47 -17 -2 2 -17 55 -34 116 l-30 113 82 44 c44
25 83 45 87 45 3 1 26 -59 51 -133z m92 -348 c3 -13 6 -35 6 -50 0 -25 -4 -28
-32 -28 -28 0 -85 -12 -157 -31 -10 -3 -17 8 -21 34 -7 37 -6 37 34 48 23 6
47 16 54 22 8 6 32 14 55 18 23 3 45 7 48 8 4 0 9 -9 13 -21z m-30 -350 c-27
-74 -86 -184 -123 -228 l-20 -25 -1 141 0 141 63 21 c34 12 72 21 84 22 l23 0
-26 -72z m-1668 -2756 c-19 -27 -67 -100 -106 -163 -69 -111 -72 -114 -113
-120 -23 -4 -43 -5 -45 -4 -2 2 12 25 31 52 67 94 147 234 147 258 0 24 3 25
61 25 l61 0 -36 -48z m328 -14 c-103 -106 -191 -213 -198 -241 -5 -22 -12 -27
-36 -27 -17 0 -30 2 -30 5 0 13 124 188 165 235 25 28 45 60 45 70 0 18 7 20
57 20 l57 0 -60 -62z m-624 47 c0 -12 -106 -163 -168 -240 -49 -61 -72 -82
-99 -89 -19 -4 -37 -6 -40 -2 -7 7 73 139 147 244 47 65 61 78 90 83 49 9 70
10 70 4z m1429 -22 c-31 -81 -128 -180 -268 -272 -102 -67 -125 -76 -159 -64
-22 8 -21 11 39 93 87 119 147 186 199 225 49 36 68 42 147 44 l53 1 -11 -27z
m-2050 -75 c-22 -34 -47 -84 -57 -110 -9 -26 -20 -48 -24 -48 -5 0 -8 47 -8
104 l0 105 38 4 c20 2 49 4 64 5 l28 2 -41 -62z m1552 27 c-17 -20 -63 -85
-103 -145 l-72 -110 -54 0 c-62 0 -63 -5 28 99 54 61 205 191 223 191 5 0 -5
-16 -22 -35z m-3961 -133 c0 -4 -49 -83 -110 -176 -60 -93 -110 -173 -110
-178 0 -7 -139 0 -149 8 -2 2 25 34 61 72 65 69 170 218 183 260 6 20 13 22
66 22 32 0 59 -3 59 -8z m260 2 c0 -3 -45 -81 -100 -173 -59 -100 -100 -179
-100 -195 0 -18 -5 -26 -17 -26 -46 1 -40 17 58 170 55 85 107 172 117 192 9
21 23 38 30 38 6 0 12 -2 12 -6z m-610 -15 c0 -6 -66 -78 -147 -160 l-148
-150 -50 3 -49 3 147 149 c81 82 147 153 147 158 0 4 23 8 50 8 29 0 50 -5 50
-11z m4860 -141 c0 -9 -9 -19 -19 -23 -11 -3 -63 -35 -115 -70 -79 -52 -96
-60 -96 -45 0 13 25 36 73 69 39 27 88 63 107 79 35 30 50 27 50 -10z m-1980
22 c0 -5 -2 -10 -4 -10 -3 0 -8 5 -11 10 -3 6 -1 10 4 10 6 0 11 -4 11 -10z
m-2096 -112 c4 -62 10 -130 13 -151 l6 -38 -34 5 c-19 3 -64 8 -101 11 l-66 6
81 140 c45 76 85 139 88 139 3 0 9 -51 13 -112z m-1383 -22 c-6 -14 -8 -33 -5
-41 5 -12 -2 -15 -30 -15 l-37 0 37 45 c41 49 50 52 35 11z m5509 -117 c0 -17
-91 -127 -173 -208 l-75 -74 -7 46 c-7 46 -7 47 46 95 75 68 108 95 154 125
45 29 55 32 55 16z m115 -506 c-27 -90 -157 -263 -312 -415 l-59 -58 4 40 c3
32 10 43 36 58 20 12 47 45 70 86 21 37 60 97 88 134 59 78 179 214 184 209 2
-2 -3 -26 -11 -54z m-335 -38 c-7 -9 -15 -13 -18 -10 -3 2 1 11 8 20 7 9 15
13 18 10 3 -2 -1 -11 -8 -20z"/>
</g>
</svg>
