<?xml version="1.0" standalone="no"?>
<!DOCTYPE svg PUBLIC "-//W3C//DTD SVG 20010904//EN"
 "http://www.w3.org/TR/2001/REC-SVG-20010904/DTD/svg10.dtd">
<svg version="1.0" xmlns="http://www.w3.org/2000/svg"
 width="1280.000000pt" height="770.000000pt" viewBox="0 0 1280.000000 770.000000"
 preserveAspectRatio="xMidYMid meet">
<metadata>
Created by potrace 1.15, written by Peter Selinger 2001-2017
</metadata>
<g transform="translate(0.000000,770.000000) scale(0.100000,-0.100000)"
fill="#000000" stroke="none">
<path d="M4183 7693 l-53 -4 0 -54 c0 -39 -3 -53 -12 -50 -34 12 -81 -60 -200
-303 -165 -341 -225 -486 -274 -672 -14 -52 -34 -104 -44 -115 -36 -39 -83
-227 -189 -745 -108 -527 -151 -663 -266 -842 -50 -76 -147 -199 -184 -232
l-21 -19 0 54 c0 30 -9 96 -20 146 l-19 93 48 48 c93 93 143 242 181 536 12
92 20 177 18 189 -3 21 -4 21 -22 -5 -24 -37 -35 -89 -36 -170 0 -50 -8 -89
-31 -150 -16 -46 -31 -102 -31 -126 -1 -23 -7 -47 -14 -53 -7 -6 -25 -46 -39
-88 -14 -43 -36 -88 -50 -101 l-23 -22 -15 29 c-9 16 -34 92 -56 169 -22 77
-47 157 -56 177 -16 38 -15 39 14 76 23 29 41 78 79 222 27 101 63 212 81 246
32 64 40 116 20 129 -6 3 -15 0 -20 -7 -12 -20 -51 -132 -109 -314 -27 -88
-60 -182 -73 -209 l-22 -49 -79 128 c-43 70 -100 149 -125 176 l-46 47 34 39
c18 21 44 61 56 88 44 98 48 147 41 495 -6 266 -4 346 8 441 20 150 58 296
100 384 77 163 140 194 486 235 202 24 240 33 240 61 0 16 7 19 38 18 30 -2
32 -3 10 -6 -27 -4 -41 -33 -15 -33 34 1 150 31 184 48 34 18 40 18 49 6 8
-12 21 -13 88 -4 82 12 238 53 265 71 40 26 -362 -12 -599 -56 -187 -34 -687
-149 -731 -168 -29 -12 -61 -37 -47 -37 6 0 93 28 112 36 35 14 7 -16 -49 -51
-52 -33 -53 -35 -88 -142 -20 -59 -49 -153 -64 -208 l-28 -100 3 -376 c2 -291
-1 -394 -12 -458 -14 -81 -56 -183 -94 -230 l-19 -24 -55 41 c-30 22 -67 55
-82 73 -15 18 -44 40 -64 51 -21 10 -66 47 -101 82 l-63 63 12 97 c11 81 10
130 -5 311 -10 118 -15 246 -13 284 6 79 47 179 103 247 62 75 196 152 360
208 58 19 70 27 69 45 -1 24 1 25 25 11 14 -7 23 -4 37 12 l19 21 -59 -7 c-33
-4 -110 -27 -173 -52 -63 -24 -137 -49 -164 -54 -34 -7 -64 -21 -90 -43 -21
-19 -82 -55 -135 -80 -110 -54 -165 -91 -364 -239 -196 -147 -274 -220 -310
-290 -21 -40 -43 -66 -71 -84 -28 -17 -39 -30 -35 -41 4 -10 -11 -34 -42 -67
-71 -75 -83 -97 -80 -147 l3 -44 -45 -12 c-25 -6 -72 -12 -106 -12 -60 -1 -60
-1 -92 -46 -17 -24 -73 -75 -125 -114 -101 -74 -113 -86 -97 -96 22 -14 9 -27
-20 -22 -28 6 -34 1 -103 -91 -164 -217 -255 -381 -296 -532 -28 -103 -43
-246 -35 -341 7 -77 6 -80 -21 -106 -37 -38 -55 -77 -105 -226 -33 -100 -51
-138 -81 -173 -60 -69 -73 -146 -44 -257 8 -32 25 -77 37 -100 11 -23 27 -73
34 -111 16 -83 57 -171 112 -244 l40 -54 -5 -128 c-9 -194 9 -287 122 -625 35
-104 68 -210 75 -234 6 -24 29 -67 50 -95 21 -28 71 -105 110 -171 123 -205
214 -328 275 -374 30 -23 72 -65 93 -92 31 -43 65 -67 207 -151 94 -56 233
-143 310 -194 l140 -92 225 -61 c343 -94 520 -120 706 -106 71 5 94 10 90 20
-2 7 2 22 10 34 15 20 14 21 -23 21 -28 1 -34 3 -22 10 20 12 229 30 347 30
74 0 92 3 92 15 0 17 30 35 62 35 13 1 37 7 53 14 27 13 24 13 -46 9 -88 -6
-111 8 -47 29 42 13 64 38 33 38 -9 0 -48 -14 -87 -30 -71 -30 -121 -37 -148
-20 -8 5 -12 11 -10 12 3 2 43 26 90 52 194 110 399 284 513 433 71 93 130
197 237 419 79 164 99 214 105 265 12 105 17 112 71 106 55 -6 92 -31 117 -78
58 -108 -41 -395 -275 -797 l-83 -144 -70 -24 c-38 -14 -83 -23 -100 -21 -20
3 -40 -4 -66 -23 -20 -14 -75 -41 -122 -59 -98 -38 -129 -64 -116 -98 18 -49
140 -18 251 64 49 35 126 69 136 59 11 -11 -49 -48 -203 -127 -155 -80 -251
-137 -242 -145 7 -8 122 37 235 91 275 132 495 314 811 670 68 77 177 199 241
270 70 78 120 142 124 160 4 17 31 77 60 134 51 104 52 105 124 148 305 180
480 449 537 828 8 55 15 137 15 183 0 83 6 96 31 65 21 -25 126 -91 157 -98
31 -6 73 -66 150 -215 84 -160 148 -354 176 -530 10 -67 9 -79 -7 -110 -26
-51 -19 -98 61 -390 77 -282 100 -396 109 -545 l6 -100 -169 -164 c-342 -332
-546 -498 -829 -671 -134 -82 -201 -116 -274 -141 -72 -25 -101 -45 -101 -69
0 -11 2 -20 5 -20 2 0 39 14 82 31 186 74 404 206 623 377 57 45 134 99 169
120 41 23 125 96 230 197 155 149 240 225 255 225 11 0 6 -59 -5 -65 -6 -4 -8
-26 -4 -58 5 -38 -2 -94 -24 -207 -21 -105 -31 -185 -31 -247 0 -85 -2 -94
-27 -123 -23 -27 -26 -40 -24 -86 2 -43 -3 -65 -28 -111 -16 -32 -33 -76 -37
-98 -22 -139 -70 -238 -197 -408 -81 -109 -106 -134 -168 -176 -102 -66 -183
-141 -169 -155 7 -7 19 -5 40 7 29 18 30 18 30 -2 0 -11 5 -32 10 -46 10 -27
11 -27 36 -10 14 9 35 14 48 11 16 -4 25 2 37 22 10 18 30 32 57 40 23 7 42
16 42 20 0 28 23 139 32 155 9 18 11 19 20 3 6 -11 4 -26 -6 -48 -9 -17 -16
-43 -16 -57 1 -24 4 -23 50 26 45 49 48 55 39 85 -14 50 -11 85 7 92 15 6 16
0 10 -49 -5 -47 -4 -55 10 -55 25 0 67 52 88 109 10 29 27 56 40 62 32 17 66
51 66 66 0 11 -5 11 -20 3 -48 -26 -53 19 -7 62 l32 31 5 -33 c3 -19 10 -35
17 -37 8 -3 10 13 6 55 -4 43 -1 67 11 90 18 35 40 42 50 16 9 -23 -3 -36 -25
-29 -22 7 -27 -16 -6 -33 9 -8 19 -5 37 8 l25 19 -18 52 c-17 47 -17 53 -3 61
9 5 16 16 16 23 0 8 4 15 8 15 5 0 8 -19 8 -41 -2 -67 20 -58 33 14 6 35 11
78 11 96 0 37 23 39 28 3 2 -11 10 -26 18 -32 28 -24 15 31 -16 67 -29 33 -40
73 -20 73 5 0 17 -11 26 -25 9 -14 20 -25 25 -25 16 0 10 31 -11 57 -21 27
-27 63 -10 63 5 0 14 -9 21 -21 7 -14 14 -18 21 -11 7 7 5 18 -6 33 -9 13 -16
29 -16 36 0 24 16 13 31 -19 8 -17 19 -33 26 -36 24 -7 37 184 20 296 -8 55 2
69 21 27 6 -14 15 -25 19 -25 10 0 1 141 -10 157 -5 8 5 26 27 49 20 21 36 43
36 50 0 7 -13 29 -30 47 -17 20 -30 46 -30 61 0 33 13 33 28 1 12 -26 32 -34
32 -12 0 6 -16 37 -35 67 -19 30 -35 66 -35 81 0 30 31 59 62 59 14 0 17 5 12
24 -6 26 7 58 39 93 18 21 20 34 18 140 -2 78 -7 128 -17 148 -14 30 -13 33
28 99 87 137 104 160 135 183 l32 25 26 -83 c14 -45 39 -150 55 -233 16 -83
37 -168 47 -189 16 -36 16 -45 0 -145 -21 -129 -21 -189 -2 -222 22 -38 18
-192 -10 -465 -14 -132 -25 -265 -25 -295 0 -76 -21 -149 -84 -298 -30 -70
-60 -150 -67 -177 -6 -28 -17 -57 -24 -65 -7 -8 -24 -38 -38 -66 -14 -27 -33
-56 -41 -63 -9 -8 -30 -42 -47 -77 -53 -113 -211 -286 -291 -322 -29 -12 -39
-42 -14 -42 43 0 112 43 226 144 30 26 71 58 90 71 l34 22 18 -21 c17 -20 17
-20 18 35 0 45 4 60 23 77 34 33 47 28 47 -18 0 -29 4 -40 15 -40 13 0 15 12
13 66 -3 79 14 96 37 40 15 -35 35 -49 35 -23 0 6 -7 34 -15 61 -11 37 -12 52
-4 63 18 20 39 15 39 -9 0 -35 11 -68 22 -68 6 0 8 15 4 38 -18 114 -18 118
-3 130 12 11 17 8 26 -19 6 -18 11 -45 11 -60 0 -35 13 -43 33 -21 15 17 15
23 -13 78 -33 67 -36 86 -15 104 13 10 17 7 30 -23 8 -20 15 -48 15 -62 0 -18
5 -25 20 -25 11 0 20 2 20 4 0 2 -14 33 -31 69 -27 59 -29 70 -19 105 13 49
38 62 62 32 24 -29 24 -4 2 44 -9 19 -14 41 -11 50 11 28 37 17 54 -22 11 -25
18 -32 20 -20 2 9 -3 30 -11 47 -22 41 -21 83 1 79 10 -2 23 -23 32 -52 9 -27
21 -51 27 -53 16 -5 68 112 60 134 -6 15 -12 9 -33 -30 -13 -27 -27 -46 -30
-43 -13 12 -2 90 14 108 15 17 15 21 0 54 -12 25 -14 40 -7 52 9 16 9 16 10 0
0 -10 9 -22 20 -28 26 -14 26 -1 0 69 -12 29 -19 55 -17 57 2 2 16 -9 31 -25
20 -21 30 -43 33 -75 6 -53 16 -58 32 -18 11 25 7 38 -30 116 l-42 87 20 26
c10 15 24 28 30 30 12 4 23 -29 23 -73 0 -17 6 -37 14 -43 12 -10 20 -5 41 28
35 52 42 108 20 150 -9 18 -14 35 -11 38 2 3 12 -9 21 -26 23 -45 39 -40 31
12 -3 23 -2 48 3 56 7 10 -1 28 -25 59 -24 31 -34 55 -34 80 0 30 2 33 15 22
9 -7 17 -11 18 -9 2 2 0 54 -4 114 -4 61 -9 156 -10 212 -3 97 -1 103 25 138
16 20 26 38 25 39 -2 2 -14 9 -27 15 -23 12 -25 38 -2 33 15 -3 40 17 40 33 0
7 -14 29 -30 50 -27 34 -29 40 -15 55 21 24 19 35 -12 59 l-28 21 25 20 25 20
-29 26 c-29 26 -27 34 9 47 6 2 -5 16 -23 31 -18 16 -37 37 -42 47 -9 17 -7
18 20 13 25 -6 30 -3 30 14 0 11 -15 33 -33 49 -52 46 -55 55 -13 48 54 -11
46 19 -14 51 -26 13 -31 19 -17 22 9 2 17 7 17 10 -1 4 -27 38 -60 76 -49 57
-57 71 -45 80 8 6 19 24 25 40 l10 29 108 -104 c107 -104 113 -113 141 -216
12 -45 31 -58 31 -23 0 29 30 38 47 14 10 -13 13 -35 10 -67 -6 -69 29 -59 62
17 12 28 4 45 -21 46 -4 0 -10 10 -13 22 -4 11 -18 31 -30 42 l-23 21 21 126
c13 80 17 132 12 145 -8 16 -10 13 -13 -16 -5 -47 -22 -64 -22 -21 0 18 -5 42
-12 54 -7 12 -15 46 -18 76 l-5 54 -32 -27 c-35 -29 -50 -77 -39 -122 8 -32
23 -21 29 21 2 17 5 -6 6 -51 1 -80 -12 -144 -30 -144 -5 0 -9 20 -9 45 0 49
-6 55 -26 28 -7 -10 -15 -15 -19 -12 -11 12 -18 115 -11 163 8 51 29 64 24 15
-2 -17 1 -32 6 -33 5 0 10 17 12 39 2 22 11 70 20 108 16 66 13 117 -6 117 -6
0 -10 -20 -10 -44 0 -50 -7 -76 -22 -76 -5 0 -6 24 -2 58 5 46 3 60 -10 71
-13 11 -16 9 -21 -12 -4 -13 -7 -82 -8 -153 -2 -92 -6 -138 -17 -159 -19 -37
-34 -38 -38 -3 -2 17 -8 25 -16 22 -19 -7 -51 46 -47 79 1 15 -7 42 -18 61
l-21 34 25 53 c30 66 31 72 3 109 -27 37 -38 25 -38 -46 0 -46 -21 -97 -34
-84 -3 3 2 54 11 114 13 84 14 119 6 159 -6 29 -7 57 -3 62 5 6 23 55 40 110
52 163 70 208 97 243 34 45 80 72 125 72 30 0 37 4 40 23 2 18 10 23 46 25 53
4 141 -21 173 -48 l24 -21 -49 3 c-32 2 -51 -1 -53 -9 -3 -8 5 -13 21 -13 13
0 28 -4 31 -10 8 -14 -44 -13 -98 2 -39 10 -88 5 -75 -7 3 -3 59 -16 125 -29
114 -23 193 -52 209 -77 5 -9 0 -10 -17 -5 -49 16 -89 18 -89 6 0 -7 -8 -2
-18 10 -14 18 -32 24 -75 28 -67 5 -119 -4 -96 -19 7 -5 28 -9 44 -9 40 0 59
-14 53 -38 -5 -18 1 -20 86 -25 50 -2 99 -8 109 -12 14 -6 17 -2 17 20 0 21
12 57 25 73 1 1 28 -9 60 -24 32 -14 80 -28 106 -31 35 -4 49 -10 52 -24 3
-11 14 -19 24 -19 27 0 35 10 22 27 -9 9 -8 13 0 13 6 0 11 -4 11 -10 0 -23
41 -50 75 -50 29 0 35 -4 35 -22 0 -12 7 -30 17 -40 9 -10 14 -20 12 -23 -3
-2 -43 10 -89 28 -58 22 -97 44 -123 70 -34 34 -42 37 -72 31 -49 -9 -44 -28
17 -61 51 -28 78 -56 66 -68 -3 -4 -20 1 -38 10 -31 16 -67 14 -56 -4 3 -5 27
-14 53 -21 75 -18 101 -50 41 -50 -30 0 -31 -1 -14 -19 10 -11 37 -22 59 -26
23 -3 55 -9 70 -11 27 -6 28 -5 15 15 -10 17 -10 25 0 41 11 17 10 20 -7 20
-19 0 -38 17 -29 26 8 7 149 -23 160 -34 17 -17 4 -24 -25 -13 -19 8 -28 6
-37 -4 -13 -16 -10 -18 40 -29 31 -6 112 -75 90 -75 -8 0 -26 6 -40 14 -14 8
-35 14 -48 15 -19 0 -22 -4 -17 -20 5 -15 2 -20 -10 -20 -12 0 -15 5 -11 16 5
13 2 15 -16 10 -13 -3 -36 -6 -51 -6 -25 0 -27 -3 -21 -22 4 -13 7 -31 6 -41
-1 -19 35 -41 84 -51 30 -7 51 -23 68 -54 10 -18 -76 17 -222 90 -103 51 -123
64 -118 80 3 10 9 27 12 37 5 16 -5 25 -54 50 -33 16 -62 28 -65 25 -3 -3 -1
-19 5 -36 15 -42 0 -52 -45 -28 -50 27 -68 25 -35 -4 15 -13 51 -32 80 -41 49
-16 108 -58 108 -77 0 -19 -60 -6 -99 23 -24 17 -52 29 -64 27 -16 -2 7 -18
78 -53 134 -67 200 -125 143 -125 -18 0 -8 -14 55 -72 76 -72 92 -98 61 -98
-10 0 -55 -21 -101 -46 l-85 -46 -20 22 c-27 29 -71 46 -138 54 -42 5 -51 4
-37 -4 26 -17 20 -30 -13 -30 -16 0 -30 -2 -30 -4 0 -3 14 -18 30 -34 39 -40
40 -66 3 -59 -16 2 -42 10 -59 17 -17 8 -39 10 -49 6 -17 -6 -15 -9 13 -26 18
-11 32 -26 32 -34 0 -12 6 -13 30 -4 23 7 39 7 61 -2 36 -15 56 -45 34 -54 -8
-3 -34 -36 -58 -73 -49 -77 -64 -91 -103 -102 -23 -6 -30 -16 -42 -60 -11 -37
-12 -61 -6 -80 7 -18 5 -47 -8 -101 -63 -263 -36 -741 51 -935 25 -54 37 -68
102 -113 85 -59 104 -86 114 -162 12 -97 22 -112 43 -65 15 32 15 85 2 121 -9
22 -7 29 10 41 20 14 28 63 10 63 -5 0 -20 -5 -33 -11 -49 -22 -155 58 -204
154 -67 133 -86 284 -80 649 l4 257 35 58 c20 32 39 78 43 103 9 56 35 93 139
196 44 44 90 93 101 108 l20 27 48 -26 c52 -28 90 -28 67 0 -7 8 -18 15 -24
15 -6 0 -22 9 -36 20 -41 32 2 25 58 -10 55 -34 83 -38 103 -14 18 21 -3 36
-82 60 -32 10 -59 21 -59 25 0 8 40 39 51 39 4 0 33 -20 65 -45 55 -43 87 -55
98 -37 3 5 -17 19 -44 32 -27 13 -60 34 -72 48 l-23 25 32 -6 c17 -3 54 -20
82 -37 61 -38 111 -48 140 -28 20 14 20 15 -23 46 -49 35 -100 45 -75 15 13
-15 11 -16 -21 -9 -19 3 -41 13 -49 21 -12 12 -9 17 20 34 19 12 58 29 88 37
l53 16 42 -41 c23 -23 49 -41 59 -41 25 0 21 10 -20 49 l-38 35 30 7 c50 11
110 10 123 -3 12 -12 17 -58 6 -58 -3 0 -15 5 -26 11 -16 9 -19 8 -16 -3 2 -7
33 -20 68 -28 61 -15 83 -31 61 -45 -26 -16 -10 -46 34 -65 48 -21 54 -30 30
-50 -22 -18 -19 -24 20 -43 41 -20 53 -41 34 -63 -11 -14 -10 -18 6 -30 60
-44 67 -54 50 -70 -14 -15 -9 -23 55 -90 38 -41 70 -78 70 -82 0 -5 -10 -8
-22 -8 -29 1 -30 -25 -2 -39 30 -15 54 -36 54 -46 0 -5 -16 -9 -35 -9 -32 0
-35 -2 -26 -19 6 -10 28 -26 50 -35 43 -17 61 -40 61 -78 0 -13 20 -57 45 -98
24 -41 45 -80 45 -87 0 -6 -11 -25 -25 -41 -19 -22 -25 -41 -25 -75 0 -25 -9
-74 -20 -109 -11 -34 -23 -92 -26 -128 -4 -36 -17 -94 -30 -130 -50 -143 -88
-318 -109 -500 -18 -153 -19 -441 -1 -574 l13 -98 -51 -33 c-161 -102 -243
-129 -310 -101 -29 12 -41 13 -56 4 -13 -8 -23 -9 -32 -2 -287 220 -380 331
-423 504 -8 36 -24 81 -35 101 -11 20 -26 66 -35 102 -23 99 -25 104 -42 81
-17 -23 -16 -102 2 -134 8 -14 14 -39 15 -55 0 -17 7 -40 14 -51 8 -12 29 -55
45 -98 93 -234 197 -370 298 -391 20 -4 42 -20 59 -43 49 -64 117 -122 145
-122 89 0 297 83 400 160 l54 40 5 78 5 77 42 3 c36 3 48 10 90 56 103 114
159 243 224 516 92 391 96 411 86 417 -5 3 -6 26 -2 57 15 116 -2 231 -49 324
-27 54 -102 128 -139 137 -19 5 -31 22 -52 78 -16 39 -65 148 -110 242 -45 94
-93 200 -105 235 -13 36 -33 76 -46 90 -12 14 -31 44 -42 66 -12 23 -33 56
-48 73 -17 20 -24 39 -21 52 4 16 -3 25 -29 41 -19 11 -34 23 -35 26 -7 68
-15 82 -88 147 l-44 40 28 5 c41 7 33 24 -17 33 -71 15 -94 47 -33 47 38 0 44
13 19 41 -25 27 -9 41 29 25 18 -7 57 -19 87 -26 65 -15 118 -40 141 -66 10
-12 19 -47 23 -96 4 -43 12 -91 17 -108 17 -47 32 -25 25 36 -6 51 5 73 18 38
5 -13 9 -14 21 -4 11 9 15 5 20 -27 12 -76 21 -98 37 -95 18 3 23 -10 33 -81
7 -51 25 -59 36 -16 5 22 7 20 14 -14 5 -26 15 -41 30 -47 17 -7 21 -14 18
-34 -3 -14 -2 -34 2 -43 6 -16 8 -15 18 7 11 24 11 23 15 -17 4 -50 20 -57 29
-13 3 17 10 33 14 36 12 7 29 -39 29 -76 0 -20 5 -27 17 -26 13 1 19 -9 23
-33 6 -41 24 -50 40 -22 17 34 29 24 32 -26 2 -36 7 -49 21 -51 11 -2 17 3 17
16 0 25 19 40 57 48 l29 6 12 -69 c7 -37 13 -94 14 -127 3 -53 6 -59 32 -73
27 -14 31 -14 42 2 12 15 14 16 19 3 3 -8 7 -32 8 -54 3 -34 7 -40 40 -53 21
-8 40 -11 43 -9 3 3 -2 23 -10 43 -24 57 -21 73 9 45 15 -14 27 -39 31 -68 5
-32 15 -53 38 -73 37 -34 46 -36 46 -10 0 11 -13 29 -30 41 -20 14 -30 30 -30
47 0 13 3 23 8 21 4 -1 70 -35 147 -75 152 -78 210 -121 240 -177 22 -41 44
-45 102 -21 72 30 102 76 134 208 11 45 27 99 36 119 23 54 12 227 -27 443
-18 100 -34 230 -38 315 l-8 145 -46 75 c-48 78 -78 154 -78 195 0 16 -11 30
-35 45 -21 13 -46 43 -65 78 -45 84 -118 177 -208 264 -77 75 -80 77 -109 66
-26 -10 -33 -9 -53 10 -12 11 -37 24 -54 27 -92 19 -104 25 -115 56 -10 30
-12 31 -53 25 -106 -17 -126 -18 -132 -7 -5 7 6 11 33 11 30 0 41 4 41 15 0
12 -13 15 -58 15 -61 0 -102 19 -102 47 0 13 9 15 60 10 32 -4 62 -3 65 2 3 5
-30 13 -72 17 -69 6 -74 8 -46 16 40 11 50 25 30 46 -12 11 -46 18 -117 22
-56 4 -106 12 -111 17 -6 6 10 8 44 5 43 -3 57 0 72 14 18 19 16 19 -88 24
-59 3 -111 10 -117 16 -20 20 6 26 104 25 67 -1 97 2 111 13 18 14 8 15 -109
16 l-129 0 19 21 19 21 -54 -7 c-47 -6 -53 -5 -48 8 5 12 -6 18 -51 28 -75 15
-140 48 -121 60 9 6 -3 9 -36 9 -85 1 -137 16 -163 45 -21 25 -28 27 -70 22
-37 -4 -52 -1 -71 14 -16 13 -39 19 -72 19 -26 0 -118 18 -203 40 -85 22 -170
40 -188 40 -18 0 -49 9 -68 19 -19 11 -84 44 -145 74 -78 39 -122 67 -151 99
-34 37 -55 49 -111 66 -75 23 -97 41 -109 86 l-7 29 94 -6 c152 -11 328 -44
462 -86 68 -22 173 -47 233 -55 121 -17 294 -67 314 -91 9 -11 16 -12 26 -4 9
7 20 6 38 -7 20 -12 29 -14 40 -5 11 9 15 7 20 -11 3 -13 6 -32 6 -44 0 -20
116 -154 133 -154 5 0 6 22 2 49 -5 40 -4 49 11 55 17 6 44 -9 44 -25 0 -5 -7
-9 -15 -9 -8 0 -15 -7 -15 -15 0 -8 5 -15 11 -15 6 0 8 -9 4 -20 -10 -32 2
-55 50 -89 48 -35 85 -35 85 -1 0 10 -16 51 -35 91 -19 41 -35 86 -35 101 0
26 3 28 44 28 29 0 63 10 100 30 l56 29 33 -28 c151 -131 363 -224 672 -295
156 -35 253 -69 304 -105 20 -15 45 -21 79 -21 49 0 52 -2 106 -62 77 -84 100
-135 104 -230 3 -63 7 -78 22 -83 9 -3 25 -14 35 -25 26 -29 32 -25 31 21 -1
25 4 44 11 46 20 7 33 -42 33 -121 0 -71 10 -96 37 -96 7 0 13 9 13 19 0 11 5
23 10 26 6 3 10 -2 10 -12 0 -34 45 -183 55 -180 5 2 12 14 15 28 9 37 22 5
14 -35 -7 -41 2 -62 20 -47 10 9 13 -2 12 -49 -1 -66 16 -82 24 -23 l6 38 8
-48 c4 -26 14 -71 22 -98 12 -40 18 -48 28 -40 11 9 16 2 25 -34 6 -25 27 -77
46 -114 35 -69 45 -130 26 -160 -7 -11 -4 -18 12 -26 20 -10 22 -19 22 -85 l0
-75 27 2 c26 2 27 1 27 -70 1 -49 10 -105 31 -176 16 -57 30 -110 30 -117 0
-21 18 -17 45 11 l25 24 0 266 c0 303 -2 317 -85 605 -147 505 -314 856 -510
1067 -62 68 -73 93 -40 93 8 0 26 5 42 11 l28 11 -27 14 c-16 8 -28 21 -28 29
0 15 -57 35 -100 35 -14 0 -32 5 -40 10 -13 8 -12 11 4 23 17 13 11 15 -62 21
-86 8 -106 21 -47 32 19 3 38 10 41 15 8 14 -32 10 -76 -7 -40 -16 -96 -12
-85 6 3 6 26 15 51 21 24 6 47 15 50 20 9 15 -43 10 -86 -7 -39 -16 -77 -13
-66 5 4 5 19 12 35 16 79 17 15 71 -73 62 -28 -3 -62 -8 -76 -12 -24 -6 -24
-6 5 19 40 35 12 35 -55 1 -51 -26 -80 -32 -80 -16 0 13 22 29 52 36 15 4 34
15 44 26 16 18 16 19 -1 19 -9 0 -48 -17 -85 -37 -38 -21 -72 -34 -77 -30 -4
5 13 28 39 53 57 54 40 58 -54 14 -70 -33 -90 -36 -107 -16 -9 11 -3 15 36 21
60 9 67 13 52 31 -19 23 -68 16 -126 -17 -64 -37 -81 -33 -23 5 22 14 40 31
40 36 0 16 -10 12 -61 -21 -32 -20 -57 -29 -76 -27 -27 4 -26 5 20 26 42 19
67 45 56 57 -3 2 -29 -12 -59 -31 -62 -39 -79 -41 -111 -15 l-24 20 38 15 c20
9 37 21 37 26 0 15 -26 12 -40 -5 -18 -22 -39 -19 -33 5 8 32 -20 24 -47 -12
l-24 -32 -12 48 c-7 27 -10 55 -7 64 5 11 2 14 -10 9 -9 -4 -24 -10 -32 -13
-8 -3 -15 -2 -15 4 0 5 10 13 23 17 l22 8 -22 4 c-27 5 -27 7 -11 33 20 31 3
34 -45 6 -49 -29 -65 -33 -47 -11 24 28 -18 30 -57 2 -40 -29 -56 -28 -30 1
21 23 22 42 3 42 -7 0 -35 -12 -60 -26 -48 -27 -77 -26 -38 2 23 16 30 44 11
44 -6 0 -24 -11 -41 -25 -43 -36 -66 -32 -32 6 15 17 12 39 -6 39 -5 0 -23
-12 -40 -26 -17 -15 -34 -23 -38 -20 -3 4 0 11 8 16 23 14 5 22 -24 10 -35
-13 -79 -13 -71 0 3 6 15 10 25 10 23 0 36 18 22 32 -7 7 -31 4 -76 -10 -36
-11 -66 -16 -66 -11 0 4 5 11 10 14 6 3 10 12 10 20 0 11 -6 12 -30 3 -17 -5
-41 -7 -54 -4 -14 3 -36 2 -50 -4 -30 -11 -33 -4 -9 22 27 30 11 29 -56 -3
-67 -31 -96 -33 -42 -2 40 23 39 33 -1 33 -18 0 -56 6 -84 14 l-51 14 -43 -34
c-56 -44 -83 -45 -43 -2 23 26 10 32 -26 14 -55 -29 -135 -30 -307 -2 -116 19
-200 26 -296 26 -127 0 -347 -21 -415 -39 -30 -9 -34 -6 -68 37 -37 48 -49 78
-43 108 3 20 90 47 123 38 12 -3 43 6 71 20 27 13 69 30 94 37 69 20 245 14
435 -14 94 -14 198 -28 231 -32 61 -7 61 -7 73 -46 11 -36 35 -59 62 -59 8 0
10 14 5 48 l-6 47 97 0 c95 -1 98 -1 113 -28 8 -15 21 -29 27 -32 20 -7 15 20
-7 40 -11 10 -20 24 -20 31 0 21 30 4 41 -22 9 -25 39 -33 39 -11 0 8 -9 22
-20 32 -27 24 -25 35 5 35 19 0 31 -9 43 -31 31 -55 38 -63 57 -55 16 6 15 10
-15 41 -35 36 -36 54 -2 36 33 -17 47 -14 29 7 -35 38 -13 62 27 31 26 -21 28
-21 41 -3 13 18 15 18 43 2 38 -23 40 -23 44 5 3 20 8 22 58 20 30 -2 114 -21
187 -42 72 -22 166 -43 209 -47 69 -6 88 -13 168 -59 50 -29 145 -80 211 -115
66 -35 190 -105 276 -156 188 -113 301 -168 391 -191 66 -17 68 -17 104 4 l37
21 55 -39 c41 -29 65 -39 94 -39 21 0 38 -4 38 -8 0 -16 -24 -32 -48 -32 -21
0 -23 -2 -12 -15 10 -12 10 -24 1 -54 -17 -57 -15 -60 37 -63 43 -3 47 -5 50
-30 3 -28 25 -49 81 -80 20 -11 31 -25 31 -40 1 -31 16 -57 68 -112 l43 -47
19 23 19 23 9 -25 c8 -22 6 -26 -17 -36 -14 -6 -32 -18 -39 -27 -11 -13 -10
-19 7 -36 12 -12 21 -32 21 -45 0 -17 8 -27 29 -35 15 -7 45 -29 65 -50 l36
-37 -15 -43 c-20 -58 -19 -62 10 -51 22 8 25 7 25 -14 0 -13 7 -43 15 -67 9
-24 13 -55 11 -69 -5 -20 1 -29 26 -45 48 -30 67 -73 85 -184 16 -102 29 -125
39 -71 4 16 12 35 20 41 22 18 31 -39 11 -74 -24 -40 -21 -53 13 -77 22 -16
30 -29 30 -53 0 -18 9 -52 20 -76 23 -49 26 -91 8 -109 -9 -9 -10 -15 -2 -20
23 -15 36 -57 45 -148 4 -52 16 -108 25 -126 l16 -32 17 30 c23 42 22 378 -3
519 -21 123 -108 517 -143 645 -73 270 -120 372 -306 673 -124 199 -227 319
-320 376 l-56 33 -35 -21 c-47 -29 -129 -121 -163 -181 -24 -43 -32 -50 -59
-50 -17 0 -46 5 -65 11 -69 24 -328 172 -388 222 -45 38 -126 84 -296 167
-253 124 -254 125 -240 197 9 49 60 97 119 112 25 6 82 11 127 11 74 0 84 -2
105 -25 14 -15 34 -25 51 -25 36 0 55 -13 48 -31 -4 -12 14 -18 83 -31 54 -11
133 -36 203 -67 63 -27 126 -53 142 -56 20 -5 27 -13 27 -30 0 -17 8 -26 30
-33 16 -6 73 -39 125 -73 86 -56 99 -61 121 -50 32 14 34 14 34 -4 0 -12 28
-35 44 -35 2 0 4 24 3 54 l-1 55 -43 12 c-23 6 -51 9 -62 6 -12 -3 -19 0 -18
7 1 6 -8 10 -21 8 -21 -3 -22 -1 -10 17 16 26 6 36 -21 21 -27 -14 -47 -4 -30
16 10 12 6 13 -21 8 -29 -6 -32 -5 -26 13 3 10 0 28 -8 39 -14 19 -15 19 -50
0 -45 -24 -57 -14 -25 20 l24 27 -27 -7 c-21 -5 -26 -3 -22 7 2 7 -5 22 -16
32 -20 18 -22 18 -67 -4 -45 -22 -67 -21 -45 1 21 21 13 29 -13 12 -21 -14
-28 -14 -41 -3 -14 12 -13 14 8 23 l23 9 -22 4 c-13 3 -23 11 -23 18 0 11 -8
13 -28 9 -19 -4 -32 -1 -41 10 -8 9 -24 16 -37 16 -13 0 -34 10 -45 21 -20 20
-26 21 -67 11 -25 -5 -51 -8 -59 -5 -15 6 -18 23 -3 23 6 0 10 5 10 10 0 6
-10 8 -24 4 -20 -5 -25 -2 -28 18 -3 21 -9 24 -88 31 -49 4 -96 3 -112 -2 -24
-8 -37 -3 -103 41 -41 27 -83 60 -93 73 -16 20 -25 23 -63 18 -40 -6 -43 -5
-30 11 8 9 12 18 10 20 -9 6 -139 26 -177 26 -22 0 -44 -5 -47 -10 -5 -8 -12
-7 -22 2 -9 7 -25 11 -36 10 -11 -2 -31 2 -44 9 -20 11 -26 10 -46 -9 -29 -27
-37 -28 -37 -2 0 26 -14 25 -52 -2 -27 -21 -32 -21 -41 -7 -9 14 -17 14 -86
-8 -42 -13 -112 -26 -156 -29 l-80 -6 63 37 c106 62 334 152 657 261 582 196
861 274 1218 339 49 9 104 26 123 37 38 23 110 32 519 67 604 53 1014 72 1693
78 451 4 602 9 602 17 0 7 -6 21 -14 31 -11 15 -19 17 -52 9 -24 -6 -114 -7
-229 -3 -402 16 -781 11 -1685 -21 -577 -20 -860 -68 -1447 -246 -120 -36
-243 -68 -273 -71 -35 -4 -64 -14 -81 -28 -15 -12 -95 -42 -185 -69 -403 -120
-497 -150 -604 -193 -180 -71 -315 -138 -334 -167 -21 -33 -46 -33 -76 -1 -47
50 -101 77 -232 115 -132 38 -398 153 -388 167 3 5 32 8 65 9 100 1 103 3 55
57 -45 52 -151 73 -228 46 -25 -8 -36 -8 -53 4 -12 9 -26 14 -33 12 -6 -2 -24
-6 -41 -10 -24 -5 -28 -4 -17 6 17 18 15 34 -2 20 -19 -16 -176 -10 -176 7 0
21 -48 14 -55 -9 -6 -17 -12 -19 -38 -14 -106 21 -249 86 -457 208 -75 44 -94
59 -90 74 3 10 4 45 3 78 -1 33 -3 105 -3 160 -1 82 -5 109 -24 151 -45 97
-132 160 -304 219 -53 18 -153 56 -222 84 -99 41 -142 53 -213 61 -49 5 -94
13 -101 19 -6 5 -29 10 -51 10 -22 -1 -60 7 -85 16 -80 30 -261 46 -585 49
-170 2 -334 2 -362 -1z m219 -48 c46 -12 104 -15 261 -13 145 2 212 -1 238
-10 25 -9 48 -10 77 -4 50 12 136 -1 211 -31 61 -24 74 -50 29 -55 -16 -2 -28
-8 -28 -13 0 -5 2 -9 4 -9 2 0 11 -3 19 -6 9 -3 31 9 52 27 l36 32 172 -48
c182 -51 364 -111 435 -143 50 -22 49 -22 -55 -77 -65 -33 -71 -39 -60 -56 10
-16 7 -23 -23 -48 -43 -36 -33 -49 23 -32 91 27 86 28 80 -18 -8 -55 13 -54
28 2 6 23 13 48 15 55 5 16 43 15 74 -3 14 -8 35 -14 46 -15 20 0 22 -7 29
-124 4 -68 4 -135 0 -148 -10 -32 -35 -58 -56 -58 -28 0 -36 26 -41 133 -6
104 -18 135 -38 97 -9 -17 -9 -40 1 -101 10 -63 10 -82 0 -92 -20 -20 -31 11
-31 91 0 39 -4 72 -9 72 -14 0 -21 -41 -15 -100 4 -41 2 -60 -10 -75 -16 -20
-16 -20 -31 -1 -10 13 -13 33 -9 65 l5 46 -26 -53 c-33 -64 -55 -78 -92 -58
-23 12 -32 12 -54 1 l-26 -14 5 57 c4 52 3 56 -12 43 -9 -7 -16 -20 -16 -28 0
-11 -7 -13 -25 -9 -20 5 -25 3 -25 -12 0 -10 5 -23 11 -29 25 -25 2 -43 -56
-43 -30 0 -55 4 -55 8 0 17 49 73 140 160 52 49 93 92 90 95 -13 14 -79 -34
-191 -139 -124 -117 -165 -144 -110 -75 44 56 112 118 216 200 50 39 104 82
120 96 29 26 29 26 5 20 -96 -27 -260 -159 -414 -333 -172 -195 -285 -344
-301 -396 -8 -28 -34 -80 -56 -118 -38 -62 -66 -138 -50 -138 3 0 35 55 71
122 97 181 189 317 276 407 42 45 79 79 81 77 3 -2 -16 -29 -41 -60 -140 -172
-286 -427 -557 -975 -115 -233 -212 -421 -215 -418 -12 12 19 88 67 168 28 46
64 116 79 155 15 39 41 92 59 117 30 44 141 311 141 338 0 8 -12 -6 -27 -31
-43 -72 -492 -974 -488 -979 10 -9 40 27 61 74 16 36 23 44 23 27 1 -32 -21
-81 -67 -149 -50 -74 -82 -137 -82 -161 0 -10 -10 -27 -22 -38 -11 -10 -43
-53 -70 -94 -26 -41 -48 -67 -48 -57 0 24 40 100 99 192 48 73 78 141 68 152
-8 7 -65 -74 -99 -142 -16 -33 -45 -76 -62 -95 -18 -19 -47 -69 -66 -110 -42
-96 -142 -273 -232 -412 -76 -118 -107 -142 -39 -31 33 55 38 69 25 71 -24 6
-62 -36 -79 -87 -21 -64 -76 -130 -313 -378 -196 -204 -215 -221 -357 -316
-82 -55 -180 -124 -217 -153 -37 -30 -69 -54 -72 -54 -4 0 -6 9 -6 19 0 11 16
32 35 46 19 15 37 35 40 45 3 10 50 46 103 78 53 33 147 100 207 149 125 100
525 499 525 523 0 9 20 45 45 80 25 35 45 71 45 79 0 20 -27 -10 -224 -254
-164 -203 -290 -332 -371 -379 -27 -16 -94 -67 -150 -112 -91 -76 -191 -142
-200 -132 -13 13 52 79 139 140 238 169 417 346 624 619 120 159 243 347 232
354 -27 17 -70 -27 -70 -71 0 -15 -158 -228 -281 -379 -160 -198 -335 -367
-477 -462 -46 -30 -85 -53 -88 -51 -2 3 119 125 270 271 150 147 305 304 343
349 61 72 154 203 177 248 20 39 -140 -139 -224 -250 -117 -155 -164 -205
-315 -338 -66 -58 -150 -135 -187 -171 -58 -56 -68 -62 -68 -43 0 45 31 80
167 194 150 126 256 232 320 318 69 94 213 301 213 306 0 2 -4 4 -9 4 -21 0
-71 -64 -105 -133 -32 -63 -63 -100 -234 -273 -174 -176 -322 -303 -322 -276
0 55 15 75 105 142 105 79 175 151 175 179 0 12 29 45 71 83 47 41 80 82 99
118 15 31 55 92 87 135 176 239 261 371 341 531 90 180 230 535 286 729 45
152 78 238 108 282 36 53 133 266 167 366 19 59 41 96 85 150 32 40 72 99 88
131 16 33 67 114 111 180 45 67 90 140 101 163 13 29 26 43 45 48 35 9 71 44
71 69 -1 18 -4 17 -29 -12 l-28 -33 -5 25 c-8 42 25 98 93 159 35 31 67 57 70
57 6 0 130 145 143 168 4 7 1 12 -8 12 -24 0 -286 -268 -336 -345 -26 -38 -90
-131 -144 -205 -86 -118 -206 -332 -206 -366 0 -6 -40 -89 -88 -185 -104 -204
-159 -337 -294 -704 -111 -303 -210 -556 -258 -658 l-32 -68 -22 20 c-28 26
-42 26 -56 1 -9 -17 -7 -22 14 -31 14 -7 27 -17 30 -24 8 -22 -204 -352 -352
-549 -152 -201 -380 -446 -394 -424 -15 25 -8 108 13 153 14 29 57 77 124 140
85 79 106 104 120 144 8 26 47 89 84 139 59 77 111 177 111 213 0 6 -8 9 -17
7 -12 -2 -25 -24 -38 -64 -14 -43 -50 -103 -120 -199 -108 -149 -255 -328
-269 -329 -17 -1 -26 58 -20 130 6 66 8 71 36 83 34 15 215 252 275 360 32 57
93 194 93 209 0 3 -9 -3 -20 -13 -25 -22 -84 -123 -149 -252 -28 -56 -59 -107
-70 -112 -10 -6 -41 -41 -69 -78 -45 -61 -88 -101 -97 -91 -2 2 -9 34 -15 71
l-10 68 68 82 c140 167 238 341 291 517 54 180 191 755 216 909 18 115 30 160
44 175 27 28 34 51 92 270 28 105 62 220 76 256 47 118 130 284 169 334 31 41
35 51 23 60 -24 18 -12 47 18 44 25 -3 26 -1 27 53 1 49 6 64 41 113 22 31 49
73 60 95 18 36 22 38 39 26 25 -19 56 -3 116 60 41 43 70 63 94 64 4 1 35 -6
68 -14z m-980 -77 c-9 -9 -15 -9 -24 0 -9 9 -7 12 12 12 19 0 21 -3 12 -12z
m-882 -243 c-7 -8 -21 -15 -32 -15 -17 0 -18 3 -8 15 7 8 21 15 32 15 17 0 18
-3 8 -15z m3493 -30 c-2 -11 -69 -25 -78 -17 -3 3 0 11 7 19 13 16 74 14 71
-2z m-3837 -130 c-22 -17 -36 -19 -36 -7 0 14 12 22 34 22 21 -1 21 -1 2 -15z
m-62 -32 c4 -9 -4 -31 -18 -52 -52 -75 -60 -113 -60 -301 -1 -96 3 -240 8
-320 5 -80 6 -172 2 -204 l-8 -58 -34 7 c-20 3 -97 29 -172 57 -181 67 -259
80 -380 66 -97 -11 -168 -5 -196 15 -16 12 -14 18 24 74 40 60 314 331 450
445 88 74 186 145 260 190 33 21 68 51 78 68 19 33 37 39 46 13z m3945 -324
c25 -11 93 -55 151 -99 119 -89 169 -114 261 -133 60 -12 64 -15 70 -45 4 -18
18 -41 33 -53 14 -11 26 -29 26 -40 0 -22 16 -24 -196 16 -67 13 -151 35 -188
50 l-66 26 -58 -35 c-84 -51 -147 -110 -172 -161 -12 -24 -30 -47 -41 -50 -53
-17 -117 -104 -133 -182 -6 -26 -15 -34 -52 -47 -24 -8 -80 -35 -123 -59 -147
-83 -204 -88 -363 -31 -151 53 -196 64 -265 64 -35 0 -63 2 -63 5 0 2 59 105
132 227 139 237 234 383 315 487 l50 64 104 -1 c57 -1 138 3 179 7 41 4 138 9
215 9 121 1 146 -1 184 -19z m895 -308 c33 -27 0 -35 -152 -35 -125 -1 -152 2
-175 17 -15 9 -27 21 -27 25 0 4 76 7 168 7 130 0 173 -3 186 -14z m-764 -66
c0 -14 -4 -25 -10 -25 -5 0 -10 9 -10 19 0 11 -6 22 -12 24 -7 3 -3 6 10 6 17
1 22 -5 22 -24z m-89 -18 c-8 -8 -11 -7 -11 4 0 9 3 19 7 23 4 4 9 2 11 -4 3
-7 -1 -17 -7 -23z m1089 -42 c63 -30 130 -58 149 -61 31 -7 33 -8 16 -21 -30
-21 -69 -16 -162 23 -80 34 -100 37 -223 45 -196 11 -205 17 -74 49 60 15 125
25 144 23 19 -2 87 -29 150 -58z m-441 46 c28 -18 2 -28 -48 -17 -32 6 -46 13
-38 18 16 10 69 10 86 -1z m-178 -36 c282 -38 519 -82 609 -113 37 -13 73 -18
105 -15 67 6 115 -23 115 -68 0 -27 -2 -30 -22 -22 -13 4 -43 8 -67 8 -35 -1
-48 -6 -67 -28 -44 -52 -23 -97 61 -133 l40 -17 -30 -9 c-43 -13 -112 -2 -250
37 -66 19 -165 39 -220 45 -151 17 -202 27 -232 49 -17 12 -99 37 -206 61 -98
23 -208 50 -245 61 -76 24 -192 78 -192 90 0 4 11 19 24 33 l23 26 82 -21 c99
-25 141 -20 173 21 13 16 26 29 29 29 3 1 125 -15 270 -34z m834 -105 c-3 -5
-10 -10 -16 -10 -5 0 -9 5 -9 10 0 6 7 10 16 10 8 0 12 -4 9 -10z m-5805 -20
c227 -26 419 -113 573 -258 20 -20 37 -39 37 -43 0 -3 -42 -9 -92 -12 -204
-14 -361 -86 -552 -253 -107 -93 -194 -202 -315 -391 -52 -81 -123 -186 -156
-233 -34 -47 -91 -130 -128 -185 -79 -120 -205 -252 -306 -323 -65 -45 -133
-73 -146 -60 -3 3 -14 39 -24 80 -21 82 -66 178 -136 291 l-45 71 0 106 c0
181 26 292 108 455 69 139 147 248 266 372 171 178 332 288 508 347 133 45
245 55 408 36z m4437 -26 c86 -27 93 -31 104 -62 17 -51 77 -107 139 -129 30
-11 118 -28 195 -38 77 -9 164 -26 195 -38 55 -20 124 -79 117 -101 -2 -6 -28
-28 -59 -48 -63 -42 -79 -75 -53 -114 23 -35 19 -61 -10 -68 -33 -8 -56 5 -99
57 -58 71 -324 187 -429 187 -14 0 -48 14 -74 30 -26 17 -106 49 -178 72 -71
22 -132 42 -133 44 -2 1 11 33 29 71 37 73 127 176 150 170 8 -3 56 -17 106
-33z m1519 1 c38 -20 80 -35 99 -35 24 0 38 -6 45 -20 6 -10 29 -24 53 -31 48
-13 67 -25 67 -45 0 -24 -67 -16 -130 16 -58 29 -113 39 -124 21 -8 -12 14
-28 51 -36 18 -3 41 -17 51 -30 18 -23 25 -24 160 -27 162 -3 192 -15 110 -42
-78 -26 -194 -35 -369 -29 l-156 6 42 41 c74 75 82 177 17 225 -26 20 -26 20
-5 21 13 0 52 -16 89 -35z m-1061 -126 c143 -33 271 -64 285 -67 22 -5 19 -7
-19 -15 -31 -8 -58 -7 -95 2 -28 7 -105 16 -171 21 -206 15 -243 24 -284 76
-28 36 -27 56 2 50 12 -3 139 -33 282 -67z m985 0 c0 -18 -25 -37 -36 -27 -2
3 0 17 6 32 11 30 30 27 30 -5z m-85 -16 c40 -19 43 -31 17 -63 -17 -21 -22
-22 -54 -11 l-36 12 16 39 c10 22 18 40 19 40 1 0 18 -8 38 -17z m1068 -20
c-7 -2 -13 -13 -13 -24 0 -24 40 -34 82 -20 27 10 34 8 51 -10 17 -18 27 -20
64 -15 41 5 43 5 33 -14 -10 -18 -8 -20 30 -20 37 0 39 -1 28 -20 -17 -27 -5
-34 33 -21 79 27 87 6 34 -93 -19 -37 -35 -79 -35 -95 0 -25 -5 -30 -47 -41
-44 -13 -51 -12 -159 24 l-112 38 -334 -2 c-183 -1 -364 -2 -403 -3 -72 -2
-171 25 -159 44 3 5 74 9 159 9 177 0 210 8 201 46 -6 22 -5 24 12 15 22 -12
32 -5 32 21 0 27 10 23 57 -24 28 -28 43 -37 43 -26 0 8 -7 21 -15 28 -16 14
-21 60 -5 60 5 0 22 -16 37 -35 15 -19 34 -35 42 -35 10 0 7 8 -9 25 -34 36
-18 42 25 9 33 -25 37 -26 34 -8 -4 24 8 44 26 44 8 0 26 5 42 11 l28 11 -24
19 c-19 15 -39 19 -107 19 -46 0 -86 5 -89 10 -21 34 203 77 272 52 23 -7 36
-6 64 9 18 10 48 18 64 18 17 0 24 -3 18 -6z m-1438 -84 c10 -15 4 -17 -37
-11 -21 2 -35 8 -32 13 7 13 61 11 69 -2z m-1908 -33 c81 -27 164 -86 282
-203 l110 -108 -103 -183 c-139 -248 -177 -304 -265 -393 -85 -85 -149 -121
-227 -127 -71 -6 -138 31 -213 118 -81 93 -164 176 -181 182 -12 4 15 66 118
278 73 151 158 315 188 366 49 83 59 93 87 96 51 5 148 -8 204 -26z m793 -30
c110 -38 154 -57 152 -67 -16 -63 -13 -80 27 -166 22 -50 41 -93 41 -98 0 -25
-169 41 -249 98 -32 23 -75 40 -141 56 -94 23 -149 46 -203 83 -31 22 -30 41
4 89 28 40 75 59 149 59 53 0 94 -10 220 -54z m1060 34 c64 -7 169 -9 270 -5
125 5 194 3 284 -9 65 -9 122 -19 127 -22 5 -3 9 -19 9 -36 l0 -31 -72 6
c-333 28 -590 32 -697 11 -25 -5 -38 2 -92 52 l-62 57 64 -6 c35 -3 111 -11
169 -17z m1109 6 c-2 -2 -79 -23 -171 -45 -92 -23 -174 -44 -182 -47 -12 -5
-16 0 -16 20 0 28 32 50 97 65 38 9 280 15 272 7z m-5712 -112 l91 -55 95
-147 c52 -81 106 -169 120 -197 23 -46 71 -186 65 -190 -2 0 -52 -9 -113 -19
-144 -24 -292 -73 -440 -146 -170 -83 -249 -139 -430 -302 -323 -289 -388
-335 -697 -491 -194 -99 -534 -244 -545 -233 -3 3 0 66 7 140 7 74 10 153 7
176 l-5 41 61 31 c244 123 390 290 712 813 179 291 314 425 550 542 108 54
157 72 246 88 119 23 169 14 276 -51z m3031 26 c10 -17 10 -20 -6 -20 -19 0
-42 18 -42 32 0 16 36 7 48 -12z m2485 -25 c4 -8 2 -17 -4 -21 -12 -7 -69 15
-69 27 0 16 67 10 73 -6z m-483 -5 c37 -6 76 -17 86 -25 16 -11 12 -14 -41
-22 -33 -4 -160 -8 -282 -7 -123 0 -223 -3 -223 -7 0 -25 52 -30 298 -28 201
2 265 -1 296 -12 52 -19 55 -35 11 -56 -35 -17 -40 -16 -148 5 -176 34 -247
42 -385 42 -92 0 -132 4 -139 13 -5 6 -8 32 -5 57 l4 45 229 3 c144 2 256 -1
299 -8z m-1173 -38 c12 -7 40 -12 62 -12 47 0 192 -82 253 -142 34 -34 74 -96
66 -103 -2 -2 -38 28 -82 66 -93 81 -135 103 -241 125 -112 23 -188 64 -155
84 14 8 65 -1 97 -18z m-532 -94 c50 -20 188 -81 308 -137 119 -55 251 -115
291 -132 83 -35 88 -49 33 -95 -48 -41 -120 -31 -245 32 -96 49 -98 49 -187
47 -49 0 -148 -13 -220 -27 -130 -25 -255 -38 -255 -26 0 25 178 70 302 77
104 6 106 6 111 32 3 14 9 38 13 53 5 24 2 29 -21 38 -45 17 -168 9 -249 -16
-14 -5 -18 -2 -13 9 10 27 -12 83 -58 151 -25 36 -45 67 -45 69 0 7 134 -36
235 -75z m2305 2 c-28 -21 -33 -20 -24 4 3 9 16 16 28 16 20 0 20 -1 -4 -20z
m-1806 0 c45 -17 102 -78 134 -142 45 -92 45 -104 2 -99 -19 1 -63 18 -96 37
-58 32 -62 37 -67 79 -4 25 -16 63 -27 85 -11 21 -20 42 -20 45 0 8 47 6 74
-5z m1524 -7 c-5 -26 -38 -29 -38 -4 0 15 6 21 21 21 14 0 19 -5 17 -17z m117
7 c9 -15 -11 -37 -42 -45 -35 -8 -46 6 -27 33 16 23 58 30 69 12z m85 -11 c0
-12 -61 -49 -72 -43 -15 10 -8 22 25 42 32 19 47 20 47 1z m-1493 -60 c62 -30
136 -100 146 -139 7 -28 1 -26 -68 20 -33 22 -74 43 -92 46 -22 4 -35 14 -44
35 -6 16 -26 41 -43 54 l-31 25 35 -6 c19 -3 63 -19 97 -35z m1230 15 c-9 -9
-28 6 -21 18 4 6 10 6 17 -1 6 -6 8 -13 4 -17z m-1857 -113 c0 -51 -45 -69
-192 -80 -68 -5 -132 -13 -143 -17 -19 -8 -19 -7 -4 16 30 46 72 61 202 75 67
7 125 13 130 14 4 0 7 -3 7 -8z m670 -41 c33 -17 86 -36 118 -44 38 -9 76 -27
108 -51 91 -70 147 -90 250 -90 91 1 91 1 102 -27 7 -20 26 -35 64 -53 29 -13
54 -20 56 -15 2 6 -6 25 -17 44 -29 46 -27 53 15 54 20 1 43 7 51 14 13 10 19
8 35 -12 75 -94 110 -116 153 -100 28 11 29 13 14 42 -18 33 -3 31 47 -7 57
-44 83 -55 130 -55 27 0 34 -4 34 -19 0 -10 7 -24 15 -31 12 -10 15 -10 15 3
0 8 -7 31 -15 50 -19 45 -19 57 0 57 19 0 38 -35 44 -85 l6 -40 55 -1 c74 0
84 -7 76 -56 -5 -29 -3 -40 9 -44 8 -4 15 -10 15 -15 0 -16 -29 -22 -45 -9 -8
6 -37 13 -64 14 -29 2 -65 12 -86 25 -26 15 -85 29 -197 46 -87 14 -196 34
-241 46 -51 13 -103 19 -140 17 -55 -3 -58 -2 -64 22 -9 41 -46 110 -58 110
-7 0 -17 -11 -23 -25 -22 -47 -87 -32 -205 48 -38 25 -107 60 -153 76 -116 42
-142 57 -164 94 -35 57 -25 60 60 17z m641 -80 c22 -12 22 -12 -12 -34 -30
-18 -48 -21 -139 -20 -58 1 -116 6 -130 11 -22 9 -19 12 40 31 36 11 76 23 90
26 39 7 126 -1 151 -14z m330 -15 c79 -16 214 -59 239 -75 13 -9 13 -11 0 -21
-28 -19 -150 -3 -263 34 -85 29 -117 35 -152 30 -58 -8 -95 2 -95 26 0 11 6
22 13 25 20 9 177 -2 258 -19z m426 -12 c-9 -9 -19 -14 -23 -11 -10 10 6 28
24 28 15 0 15 -1 -1 -17z m-1934 -3 c22 0 67 -43 67 -64 0 -27 -194 -72 -512
-119 -178 -27 -174 -29 -134 52 24 47 27 49 78 55 29 4 105 19 168 33 146 33
269 53 295 47 11 -2 28 -4 38 -4z m547 -16 c54 -22 51 -34 -8 -34 -55 0 -62 4
-55 31 6 23 12 23 63 3z m1252 -9 c0 -5 -5 -11 -11 -13 -6 -2 -11 4 -11 13 0
9 5 15 11 13 6 -2 11 -8 11 -13z m68 -10 c-7 -8 -17 -15 -22 -15 -6 0 -5 7 2
15 7 8 17 15 22 15 6 0 5 -7 -2 -15z m85 -22 c11 -14 19 -15 70 -5 81 16 96
16 93 -5 -3 -20 11 -21 91 -7 41 7 43 6 32 -13 -5 -11 -7 -23 -4 -27 11 -11
52 -6 87 11 30 14 38 14 51 3 15 -12 14 -15 -10 -27 -14 -8 -23 -18 -20 -23
10 -16 31 -11 50 10 25 27 33 25 27 -6 -5 -29 4 -28 40 4 23 19 41 7 26 -18
-19 -30 -5 -32 40 -8 42 24 64 20 42 -7 -10 -12 -10 -15 4 -15 9 0 28 7 42 16
28 19 43 12 24 -11 -23 -27 3 -38 33 -15 15 12 27 16 27 10 0 -8 15 -10 50 -5
46 6 50 5 50 -13 0 -14 5 -19 18 -16 9 2 37 1 62 -4 l44 -7 -59 -45 c-77 -59
-121 -117 -129 -172 -9 -59 -26 -77 -83 -92 -62 -16 -86 -9 -115 34 -35 51
-98 95 -190 130 -67 26 -95 44 -148 94 -67 65 -163 126 -262 167 -60 25 -68
37 -42 63 20 21 44 20 59 -1z m-1732 -43 c38 -22 41 -22 160 -11 67 7 157 19
200 28 75 15 78 15 130 -7 198 -85 257 -114 257 -125 0 -29 -40 -48 -120 -56
l-80 -8 -51 35 c-99 67 -121 69 -524 66 -366 -2 -426 5 -243 29 93 13 130 28
153 63 13 20 21 23 48 16 18 -4 49 -17 70 -30z m3991 -14 c132 -85 245 -244
417 -591 85 -173 120 -254 125 -290 l6 -50 -32 55 c-18 30 -48 87 -67 125
l-34 70 5 -47 c6 -47 40 -126 78 -180 11 -16 16 -33 13 -39 -12 -18 -62 39
-75 87 -7 24 -33 77 -57 116 -65 105 -88 169 -46 127 6 -6 16 -8 23 -4 7 4 -9
44 -50 120 -33 62 -60 121 -60 129 0 9 -5 16 -11 16 -16 0 -4 -67 23 -127 12
-26 24 -52 26 -58 9 -21 -53 43 -105 108 l-55 69 -24 -23 c-19 -18 -26 -20
-39 -9 -10 8 -15 9 -15 2 0 -6 9 -16 20 -22 27 -15 26 -33 -2 -25 -23 6 -88
71 -88 86 0 5 14 0 31 -9 26 -14 32 -15 36 -3 3 7 13 21 23 31 17 17 15 21
-37 86 -105 133 -118 141 -159 103 -32 -30 -54 -19 -54 27 0 25 12 54 42 100
49 75 55 76 142 20z m-2780 18 c10 -25 -1 -29 -14 -5 -6 12 -7 21 -1 21 5 0
12 -7 15 -16z m602 -104 c66 -37 122 -87 148 -130 l18 -32 -23 7 c-47 15 -125
59 -225 126 -55 37 -113 73 -127 78 -30 12 -42 33 -33 56 4 12 23 6 97 -30 50
-24 116 -58 145 -75z m-5201 -12 c29 -42 64 -175 85 -324 26 -185 58 -382 66
-410 6 -24 -17 -34 -276 -109 -142 -42 -435 -174 -660 -298 -244 -134 -514
-264 -567 -272 -26 -4 -106 -31 -178 -60 -155 -63 -254 -85 -431 -92 -144 -6
-280 6 -408 38 -43 10 -80 19 -82 19 -2 0 26 45 60 100 35 55 76 129 92 165
27 62 31 66 79 81 155 51 415 166 577 255 228 125 366 223 613 434 195 166
297 245 365 283 81 45 416 178 480 191 30 6 64 13 75 15 57 11 94 6 110 -16z
m3719 -9 c91 -22 108 -33 104 -68 -3 -24 -7 -26 -48 -25 -112 1 -173 11 -189
31 -15 18 -26 19 -256 12 -132 -3 -242 -5 -243 -4 -2 2 7 10 20 19 91 59 431
79 612 35z m-1959 5 c14 -9 63 -60 109 -113 46 -53 96 -103 110 -110 68 -37
-36 -47 -205 -21 -74 12 -146 19 -161 16 -32 -6 -34 1 -13 52 19 44 117 191
128 192 4 0 19 -7 32 -16z m1295 -23 c0 -28 -36 -67 -77 -84 -50 -19 -148 -34
-317 -48 -76 -6 -171 -19 -210 -29 -39 -10 -74 -16 -79 -13 -4 2 25 40 65 83
84 91 64 85 338 99 261 14 280 14 280 -8z m1162 -61 c3 -16 3 -30 1 -30 -9 0
-34 51 -28 60 10 16 22 3 27 -30z m923 -2 c8 -18 14 -29 15 -23 0 5 4 5 10 -1
8 -8 7 -19 -1 -37 -21 -47 -43 -28 -53 46 -9 56 8 64 29 15z m-990 -8 c16 -18
17 -37 12 -237 -5 -189 -26 -437 -38 -447 -2 -2 -47 3 -99 10 -52 7 -117 13
-145 14 l-50 1 -52 108 c-61 126 -146 225 -239 281 -66 38 -74 47 -67 66 6 15
65 54 82 54 6 0 28 -16 50 -35 42 -38 51 -42 51 -21 0 8 -12 23 -27 34 -16 11
-25 24 -20 28 4 4 27 -11 50 -34 24 -23 46 -42 50 -42 15 0 6 24 -23 57 -37
42 -37 51 -2 59 73 16 109 27 135 40 18 10 27 11 27 3 0 -6 9 -22 20 -36 20
-25 20 -26 20 -3 0 14 5 20 13 17 144 -61 227 -82 227 -59 0 22 -49 43 -136
59 -87 16 -124 36 -124 68 0 23 63 19 152 -10 50 -16 88 -22 108 -19 38 8 38
19 0 33 -16 5 -30 15 -30 20 0 18 36 12 55 -9z m1955 10 c0 -12 -28 -25 -36
-17 -9 9 6 27 22 27 8 0 14 -5 14 -10z m-2519 -31 c102 -17 92 -38 -45 -90
-61 -22 -116 -63 -116 -84 0 -21 -62 -38 -94 -25 -25 9 -106 82 -106 94 0 2 9
6 20 8 12 2 30 17 41 35 l20 32 -25 16 c-32 21 -47 12 -40 -23 3 -16 -1 -35
-9 -47 -15 -19 -16 -19 -35 -2 -11 10 -43 21 -71 26 -84 13 -90 38 -16 63 35
11 403 9 476 -3z m2708 -51 c42 -17 98 -36 126 -43 38 -9 51 -17 55 -34 l5
-23 26 21 c28 22 39 19 39 -11 0 -18 2 -18 22 -4 24 17 58 21 58 8 0 -5 -11
-14 -25 -20 -44 -20 -27 -27 55 -22 44 3 80 2 80 -2 0 -5 -6 -8 -14 -8 -16 0
-31 -18 -23 -27 3 -2 22 1 42 8 33 12 38 12 46 -4 7 -12 23 -17 57 -17 56 0
92 -9 92 -22 0 -5 -9 -12 -20 -15 -11 -3 -20 -9 -20 -14 0 -5 12 -4 26 1 14 6
39 10 56 10 26 0 29 -2 18 -15 -6 -8 -27 -20 -46 -27 -19 -6 -34 -16 -34 -20
0 -14 39 -8 77 12 39 21 83 27 83 11 0 -5 -19 -16 -42 -24 -38 -14 -40 -16
-15 -16 15 -1 39 6 52 15 44 29 72 -6 45 -57 -13 -24 -12 -24 41 1 24 11 52
20 63 20 34 0 -3 -30 -45 -36 -21 -4 -47 -12 -56 -19 -17 -13 -16 -14 10 -24
16 -6 48 -11 73 -11 41 0 44 -2 35 -19 -6 -10 -28 -26 -50 -35 -25 -9 -46 -27
-56 -45 -34 -68 -93 -68 -218 -3 -58 31 -117 54 -160 62 -45 8 -71 18 -77 30
-10 19 -78 35 -195 45 -94 9 -187 31 -233 54 -20 11 -80 52 -132 91 -52 40
-105 77 -117 83 -26 12 -35 44 -27 97 5 32 11 40 28 40 11 0 43 13 69 29 44
26 53 27 99 19 28 -5 85 -23 127 -40z m-3230 -17 c49 -26 21 -36 -34 -12 -25
11 -45 22 -45 25 0 12 47 4 79 -13z m2465 -20 c109 -56 156 -96 156 -131 0
-16 -4 -31 -9 -34 -19 -12 -111 49 -186 124 -93 94 -83 104 39 41z m-1134 -28
c47 -25 87 -47 89 -49 15 -14 -21 -14 -113 -3 l-106 13 0 49 c0 45 1 48 23 42
12 -4 60 -27 107 -52z m-1408 17 c85 -21 195 -73 247 -118 32 -26 33 -30 20
-49 -8 -11 -34 -37 -59 -58 -25 -20 -50 -47 -57 -59 -11 -20 -18 -21 -130 -18
-65 2 -134 8 -153 14 -19 6 -82 41 -140 78 -58 36 -122 76 -142 89 -37 22 -98
84 -98 100 0 4 44 16 98 25 53 10 104 19 112 21 35 9 231 -7 302 -25z m4416
12 c2 -7 -3 -12 -12 -12 -9 0 -16 7 -16 16 0 17 22 14 28 -4z m-2049 -5 c33
-14 32 -27 -4 -27 -21 0 -45 17 -45 32 0 11 13 10 49 -5z m-2913 -56 c21 -15
48 -38 59 -51 11 -13 54 -48 95 -78 41 -31 80 -63 87 -73 13 -17 175 -81 253
-98 25 -6 75 -11 111 -11 62 0 67 -2 79 -27 7 -16 16 -42 20 -60 6 -26 4 -32
-13 -37 -32 -8 -79 5 -115 31 -31 23 -255 112 -552 220 -69 25 -192 62 -274
83 -172 42 -172 40 24 85 58 13 116 28 130 34 39 16 54 13 96 -18z m4504 21
c0 -12 -33 -29 -70 -37 -40 -8 -33 4 15 29 32 17 55 20 55 8z m-5247 -32 c14
-12 -97 -22 -126 -11 -31 12 -35 28 -9 33 22 5 124 -12 135 -22z m305 -24 c3
-16 -1 -17 -40 -11 -51 9 -57 13 -38 26 25 15 74 6 78 -15z m2279 -36 c18 0
22 -7 25 -37 2 -28 8 -39 22 -41 15 -3 18 0 12 21 -3 14 -2 28 3 31 12 8 75
-64 101 -114 18 -35 25 -40 55 -40 51 0 45 17 -23 72 -23 18 -30 58 -11 58 22
0 47 -21 53 -45 4 -16 19 -30 41 -39 19 -8 61 -36 94 -63 l60 -48 0 -65 c2
-97 16 -173 62 -315 22 -70 39 -129 37 -131 -9 -8 -145 69 -226 129 -143 107
-218 144 -324 162 -21 3 -38 7 -38 8 0 1 7 58 15 127 17 143 20 320 5 320 -5
0 -12 -11 -16 -25 -10 -41 -24 -28 -24 23 0 61 9 70 35 38 12 -14 30 -26 42
-26z m-2377 -15 c58 -20 117 -45 132 -55 20 -14 43 -20 85 -20 146 0 252 -31
484 -140 92 -43 207 -91 255 -106 60 -18 101 -38 125 -60 20 -17 82 -55 137
-83 55 -29 116 -67 135 -86 20 -19 61 -44 91 -56 62 -23 175 -94 183 -115 7
-20 -21 -59 -57 -81 -20 -12 -43 -42 -67 -88 -19 -38 -39 -74 -43 -79 -5 -5
-35 8 -72 32 -70 46 -108 62 -142 62 -18 0 -39 21 -86 86 -36 49 -88 106 -122
132 -52 41 -59 50 -54 73 5 25 0 31 -49 58 -29 17 -68 45 -87 64 -20 21 -70
50 -132 76 -54 23 -162 74 -240 113 -278 139 -463 219 -625 270 -46 14 -60 22
-50 29 28 17 96 8 199 -26z m-310 13 c0 -5 -18 -8 -41 -8 -24 0 -38 4 -34 10
7 11 75 9 75 -2z m2977 -8 c13 -10 91 -56 171 -100 81 -45 160 -92 175 -104
26 -21 28 -25 16 -44 -8 -12 -26 -27 -41 -33 -43 -18 -103 18 -231 141 -63 59
-124 113 -136 119 -18 10 -20 15 -10 27 15 19 26 18 56 -6z m-6994 -49 c54
-71 79 -134 76 -189 -3 -39 1 -52 22 -74 22 -23 27 -40 32 -100 12 -171 -22
-382 -83 -512 -31 -65 -95 -156 -109 -156 -16 0 -120 136 -141 183 -37 83 -36
121 4 237 57 162 58 258 6 305 -25 23 -25 60 0 135 32 94 121 233 144 224 7
-3 29 -26 49 -53z m4157 -32 c36 -12 118 -42 183 -66 115 -43 151 -49 111 -17
-52 41 79 -17 191 -86 94 -58 176 -97 217 -105 23 -4 40 -15 49 -31 19 -37 66
-69 192 -129 62 -30 119 -61 126 -68 13 -17 -5 -37 -106 -124 -39 -34 -66 -65
-73 -88 -18 -55 -35 -47 -139 68 -32 37 -202 108 -452 190 -140 46 -289 101
-330 121 -88 45 -108 61 -61 51 20 -4 32 -3 32 4 0 11 -13 15 -82 26 -40 6
-71 30 -65 49 2 7 29 11 67 11 42 0 65 4 67 13 5 14 0 15 -87 16 -61 1 -65 3
-68 25 -4 23 -2 24 42 18 25 -4 46 -3 46 1 0 19 -27 32 -64 32 -30 0 -37 3
-26 10 8 5 25 10 38 10 24 0 30 15 10 23 -7 3 -34 2 -60 -1 -47 -5 -48 -4 -48
23 0 15 9 42 20 61 l21 32 92 -24 c51 -14 121 -34 157 -45z m1738 39 c101 -37
187 -125 270 -272 23 -42 42 -77 42 -79 0 -6 -244 13 -335 27 -55 8 -133 18
-173 22 -67 6 -74 9 -87 35 -37 71 -12 143 80 233 64 62 67 64 108 59 23 -3
66 -15 95 -25z m4027 1 c8 -23 1 -34 -14 -24 -13 8 -15 45 -2 45 5 0 13 -9 16
-21z m59 5 c23 -22 20 -37 -4 -24 -11 6 -20 17 -20 25 0 19 5 19 24 -1z
m-5769 -24 c-3 -5 -10 -10 -16 -10 -5 0 -9 5 -9 10 0 6 7 10 16 10 8 0 12 -4
9 -10z m5860 -102 c20 -24 67 -104 105 -178 37 -75 78 -144 89 -154 12 -11 21
-27 21 -38 0 -22 25 -24 34 -3 9 25 31 17 44 -17 14 -38 8 -47 -19 -29 -27 16
-33 9 -25 -34 8 -38 25 -47 33 -15 11 41 32 14 57 -74 21 -72 13 -85 -14 -22
-22 48 -47 57 -30 10 14 -36 12 -54 -5 -54 -20 0 -42 36 -61 99 -8 30 -26 63
-40 76 -13 12 -24 29 -24 36 0 8 -13 39 -30 69 -16 30 -29 68 -30 83 0 20 -6
30 -20 34 -19 5 -22 11 -34 65 -4 15 -30 63 -59 105 -75 110 -73 107 -49 94
11 -6 37 -30 57 -53z m-2625 -3 c30 -8 72 -15 93 -15 35 0 48 -12 27 -25 -20
-12 -9 -24 31 -36 28 -9 44 -21 50 -37 7 -19 14 -23 32 -18 69 20 77 19 77 -4
0 -21 2 -22 73 -14 88 10 137 8 150 -5 13 -13 -18 -20 -97 -23 l-58 -3 41 -33
41 -33 85 11 c85 11 155 6 155 -11 0 -4 -32 -11 -71 -15 -79 -8 -80 -21 -3
-33 l49 -8 -33 -13 c-55 -21 -33 -35 54 -35 43 0 82 -4 86 -10 13 -18 9 -53
-8 -59 -31 -12 -1 -26 57 -26 56 0 59 -1 59 -25 0 -35 17 -39 115 -24 78 11
86 11 105 -6 36 -33 25 -42 -62 -48 -46 -4 -112 -7 -148 -7 -60 0 -63 -1 -47
-17 15 -15 23 -15 82 -4 66 13 83 11 70 -8 -3 -6 -33 -11 -65 -11 -59 0 -85
-14 -59 -32 8 -5 43 -7 79 -4 l65 4 -40 -13 c-22 -7 -48 -14 -59 -14 -31 -2 1
-31 34 -31 15 0 47 7 70 15 45 16 100 20 99 8 0 -5 -27 -21 -59 -36 -68 -32
-152 -105 -205 -177 -46 -63 -113 -199 -160 -325 -20 -55 -38 -101 -39 -102
-7 -7 -137 33 -226 69 -90 37 -105 46 -102 65 3 19 -30 55 -61 66 -9 3 -9 10
1 31 16 37 3 53 -55 68 -39 9 -44 13 -39 33 5 18 -3 30 -38 59 -33 27 -46 45
-48 68 -3 26 -9 33 -43 45 -54 19 -61 27 -46 59 10 23 9 30 -3 42 -13 13 -18
13 -41 -2 -15 -10 -32 -15 -38 -13 -19 7 -93 154 -122 242 -38 113 -86 345
-71 345 26 0 59 -35 102 -110 45 -79 92 -130 120 -130 21 0 17 18 -17 88 -17
35 -28 66 -25 69 11 11 66 -59 78 -99 9 -30 9 -47 0 -72 -17 -46 -17 -46 28
-43 l40 2 0 60 c0 47 -8 77 -36 140 -20 44 -42 101 -50 128 -16 60 -20 65 -58
88 l-31 19 30 0 c17 0 55 -7 85 -15z m2560 -23 c0 -24 -1 -25 -16 -10 -10 9
-14 24 -10 33 9 23 26 9 26 -23z m-6145 -2 c8 -16 24 -69 35 -117 12 -49 26
-99 32 -113 11 -24 18 -210 8 -210 -3 0 -37 18 -75 41 -38 22 -82 43 -97 46
-23 5 -29 12 -38 59 -13 61 -6 126 21 199 19 50 72 125 89 125 5 0 16 -13 25
-30z m2775 10 c0 -5 -7 -10 -16 -10 -8 0 -12 5 -9 10 3 6 10 10 16 10 5 0 9
-4 9 -10z m-2900 -17 c0 -5 -11 -21 -25 -38 -27 -33 -34 -18 -9 20 16 24 34
33 34 18z m4028 -54 c-11 -6 -29 -6 -50 0 -32 9 -31 9 17 10 38 0 46 -2 33
-10z m1975 -30 c32 -17 32 -17 12 -39 -18 -20 -18 -21 14 -63 116 -155 216
-327 236 -410 5 -19 20 -34 46 -47 48 -25 65 -53 43 -71 -22 -18 -10 -72 32
-141 42 -70 56 -115 89 -283 34 -181 49 -227 85 -258 l30 -27 -1 -133 c0 -72
-4 -141 -8 -152 -8 -19 -8 -19 -20 3 -7 13 -11 58 -10 115 2 81 -1 100 -25
157 -15 36 -43 112 -62 170 -19 58 -58 148 -87 200 -82 152 -107 206 -120 260
-11 49 -13 51 -39 46 -30 -6 -38 10 -17 31 15 15 2 51 -21 58 -12 4 -24 21
-30 44 -11 41 -59 118 -139 221 -28 36 -56 78 -62 93 -9 21 -17 27 -31 23 -10
-3 -27 -9 -38 -12 -16 -5 -20 -2 -20 15 0 11 -4 21 -9 21 -22 0 -20 33 4 52
14 11 37 39 51 64 22 37 58 74 72 74 2 0 13 -5 25 -11z m-3123 -58 c0 -27 -14
-70 -21 -65 -16 9 -11 74 6 74 8 0 15 -4 15 -9z m1450 -21 c0 -13 -45 -24 -66
-16 -8 3 -12 10 -9 16 8 13 75 13 75 0z m-4455 -52 c-7 -25 -20 -59 -29 -75
-13 -26 -120 -173 -154 -213 -24 -28 30 74 93 175 34 55 70 115 79 133 23 45
28 36 11 -20z m-3841 -32 c17 -36 18 -47 8 -107 -12 -72 -30 -119 -44 -119 -4
0 -17 15 -28 33 -25 40 -27 139 -4 197 21 51 42 50 68 -4z m4294 17 c16 -10
22 -21 19 -34 -4 -16 0 -19 27 -19 50 0 124 -29 160 -64 30 -28 38 -31 86 -27
70 4 130 -13 130 -39 0 -16 6 -19 38 -17 36 2 37 1 37 -35 0 -44 15 -62 44
-53 28 8 27 33 -1 44 -21 8 -20 9 13 16 41 8 86 -8 153 -54 25 -17 49 -31 55
-31 16 0 24 -66 18 -139 -3 -36 -27 -147 -52 -246 -81 -313 -173 -470 -378
-643 -95 -80 -115 -92 -155 -92 -16 0 -42 -10 -57 -22 -23 -18 -47 -23 -134
-29 -58 -4 -135 -14 -171 -23 -102 -25 -197 -21 -274 11 -65 26 -80 50 -25 39
17 -3 29 -1 29 5 0 12 -12 16 -67 22 -41 5 -43 4 -37 -19 6 -24 5 -24 -67 -24
-55 0 -82 5 -105 19 -32 19 -33 19 -155 -5 -108 -22 -282 -34 -296 -21 -2 2 4
18 14 35 10 17 15 34 11 38 -4 3 -103 10 -220 14 -167 5 -222 11 -255 24 l-42
18 14 39 c32 91 93 154 249 261 49 34 109 81 134 105 25 23 50 43 56 43 6 0
29 11 51 25 22 13 50 25 61 25 14 0 36 19 62 53 23 28 97 105 165 169 108 102
164 165 227 255 14 21 18 22 97 11 92 -13 101 -28 16 -28 -50 0 -55 -2 -50
-20 3 -11 1 -20 -4 -20 -5 0 -9 -4 -9 -9 0 -16 40 -23 87 -16 39 6 43 8 28 19
-16 12 -14 15 19 35 33 21 36 26 36 69 0 44 13 82 24 72 9 -10 10 -68 2 -171
-10 -129 -4 -152 70 -260 45 -66 54 -86 54 -123 0 -40 4 -48 39 -75 21 -17 42
-31 46 -31 3 0 3 20 -1 45 -4 30 -2 50 6 60 21 25 37 18 32 -15 -3 -18 0 -30
7 -30 6 0 11 12 11 28 l0 27 20 -25 21 -25 -6 30 -6 30 25 -28 c21 -22 26 -38
26 -79 l0 -50 31 6 c17 3 43 12 58 19 25 12 26 15 23 91 -3 93 -23 155 -68
219 -19 26 -34 49 -34 52 0 3 26 2 57 -2 l57 -6 -23 37 c-13 20 -21 45 -18 56
3 11 -3 26 -16 37 -11 10 -35 50 -53 88 -19 39 -39 78 -46 88 -11 15 -10 20 6
32 10 7 15 18 11 24 -3 7 2 11 14 11 20 0 33 -11 78 -69 30 -37 211 -78 227
-52 7 11 -27 20 -79 22 -22 0 -51 5 -65 9 -27 9 -19 13 19 10 41 -3 18 24 -30
36 -37 9 -43 14 -41 32 3 19 -2 22 -30 23 -18 1 -25 3 -15 6 27 7 20 21 -15
28 -35 8 -58 22 -58 36 0 5 47 6 105 2 74 -4 105 -3 105 5 0 19 -32 30 -114
37 -64 6 -84 12 -103 31 -23 23 -30 54 -16 68 10 9 52 -1 81 -21z m2112 -11
l215 -27 3 -28 c4 -34 24 -35 77 -2 22 13 48 25 58 25 16 0 18 -7 15 -52 -2
-35 1 -53 10 -55 8 -3 12 7 12 32 0 32 3 36 23 33 24 -4 24 -5 5 -58 -10 -26
-18 -34 -32 -32 -23 5 -36 -14 -36 -54 0 -29 -33 -214 -46 -257 -3 -9 -22 -26
-43 -37 -45 -22 -86 -67 -132 -144 -19 -30 -38 -54 -44 -53 -12 4 -38 55 -60
118 -21 61 -116 204 -200 302 -83 97 -220 210 -326 270 -76 42 -79 46 -53 50
60 11 347 -6 554 -31z m-635 18 c3 -5 -1 -10 -9 -10 -8 0 -18 5 -21 10 -3 6 1
10 9 10 8 0 18 -4 21 -10z m1069 -26 c8 -20 -1 -34 -21 -34 -10 0 -13 6 -9 16
3 9 6 20 6 25 0 15 17 10 24 -7z m1644 -20 c4 -29 -22 -37 -65 -19 -30 13 -34
17 -23 31 20 24 84 15 88 -12z m-5672 -12 c12 -8 2 -135 -37 -464 l-22 -188
-156 -109 c-301 -211 -420 -269 -661 -325 -177 -40 -495 -72 -822 -82 -211 -7
-225 -6 -263 13 -23 12 -69 22 -110 26 -81 5 -279 68 -455 144 l-115 50 -7 59
c-4 32 -11 81 -16 107 -9 43 -8 48 7 42 198 -77 470 -90 736 -35 302 62 679
212 998 397 220 127 490 246 762 333 126 41 143 44 161 32z m4102 -37 c-14
-13 -30 -34 -33 -46 -10 -29 -24 -6 -17 27 4 24 30 42 62 43 10 1 6 -8 -12
-24z m1662 -11 c0 -8 15 -21 34 -29 56 -24 53 -35 -10 -35 -48 0 -55 2 -44 14
9 12 4 19 -29 36 -23 11 -41 23 -41 25 0 3 20 5 45 5 34 0 45 -4 45 -16z
m-4652 -10 c17 -5 15 -44 -2 -44 -7 0 -19 7 -26 15 -9 11 -16 12 -31 2 -29
-18 -23 -33 19 -43 28 -7 38 -15 40 -32 3 -21 1 -23 -30 -17 -39 7 -109 -6
-109 -20 0 -5 15 -12 33 -15 31 -5 32 -6 10 -14 -13 -4 -34 -5 -48 -2 -21 6
-24 3 -24 -24 0 -28 2 -30 40 -30 22 0 40 -4 40 -10 0 -6 -28 -10 -65 -10 -53
0 -65 3 -65 16 0 27 67 146 111 196 41 49 47 51 107 32z m3073 -18 c-21 -22
-21 -25 -5 -34 12 -7 30 -6 57 4 52 18 54 18 31 -7 -21 -24 -94 -60 -106 -53
-4 3 -8 14 -8 25 0 25 -9 24 -50 -6 -54 -40 -68 -28 -30 25 19 26 119 84 129
74 3 -2 -6 -15 -18 -28z m-2957 -56 c117 -66 182 -165 192 -293 7 -73 7 -73
-25 -100 -18 -15 -39 -27 -47 -27 -9 0 -12 -5 -9 -11 4 -5 -5 -28 -19 -49 -14
-22 -26 -49 -26 -60 0 -29 -17 -25 -51 12 -34 38 -35 45 -9 53 11 3 20 10 20
15 0 5 -9 12 -20 15 -11 3 -20 12 -20 20 0 8 7 11 20 8 18 -5 20 0 20 55 0 33
-3 74 -6 91 -6 28 -10 31 -42 31 l-35 0 7 -42 c15 -97 19 -171 8 -164 -25 15
-46 112 -46 211 0 93 20 265 32 265 2 0 28 -13 56 -30z m3136 -5 c11 -13 9
-15 -13 -15 -13 0 -44 -7 -67 -15 -58 -20 -61 -13 -8 19 49 30 70 32 88 11z
m1544 -4 c8 -12 -48 -24 -74 -16 -11 3 -20 11 -20 16 0 12 87 12 94 0z m-1906
-29 c2 -7 -6 -12 -17 -12 -21 0 -27 11 -14 24 9 9 26 2 31 -12z m3420 -31 c4
-28 -13 -20 -21 9 -3 14 -1 20 6 17 7 -2 14 -14 15 -26z m-3113 0 c-3 -6 -14
-11 -23 -11 -15 1 -15 2 2 15 21 16 32 13 21 -4z m-1539 -12 c46 -28 74 -70
74 -112 0 -23 9 -46 25 -65 15 -18 25 -42 25 -61 0 -24 6 -34 25 -43 21 -9 25
-18 25 -51 0 -52 24 -100 66 -132 27 -21 32 -30 25 -44 -7 -13 -4 -27 10 -50
16 -27 18 -39 10 -62 -11 -31 -6 -52 33 -146 14 -35 26 -77 26 -95 l1 -33 19
24 c26 31 25 51 -9 162 -34 115 -43 159 -31 159 12 0 48 -100 66 -180 8 -36
17 -112 21 -169 6 -100 5 -104 -13 -97 -71 28 -145 38 -230 33 l-91 -5 -7 64
c-10 96 -60 282 -102 381 -45 104 -98 195 -166 280 l-49 62 27 53 c69 138 138
178 220 127z m1273 -49 c1 -45 -13 -70 -30 -53 -10 10 -9 25 1 69 15 61 28 53
29 -16z m441 29 c19 -9 62 -40 95 -68 33 -27 86 -70 117 -94 l56 -44 -28 -22
c-35 -25 -40 -26 -83 -5 -27 13 -33 21 -29 40 5 29 -27 44 -93 44 -35 0 -45 4
-50 20 -9 28 -33 39 -122 56 -42 8 -79 17 -82 20 -9 9 61 64 94 73 37 10 79 4
125 -20z m-245 1 c-4 -6 -34 -24 -68 -41 -34 -17 -70 -38 -80 -47 -26 -23 -30
-9 -6 22 24 31 70 57 119 67 19 4 36 7 38 8 2 0 0 -4 -3 -9z m3233 -55 c14
-31 15 -55 3 -55 -9 0 -12 8 -27 63 -8 26 11 20 24 -8z m-6754 -27 c-9 -18
-64 -82 -123 -142 -63 -65 -100 -111 -93 -114 26 -8 96 55 169 151 41 54 77
96 80 93 13 -13 -18 -59 -96 -141 -48 -49 -96 -102 -106 -118 -14 -19 -32 -29
-60 -33 -25 -4 -61 -22 -95 -48 -30 -23 -120 -87 -200 -141 -157 -106 -284
-204 -277 -212 9 -8 46 17 103 67 48 44 97 70 109 58 10 -10 -65 -74 -157
-135 -53 -35 -111 -80 -127 -100 -17 -20 -34 -34 -37 -30 -12 12 15 51 51 76
33 22 47 51 25 51 -42 0 37 81 128 131 158 86 410 300 616 523 54 59 100 105
103 102 2 -2 -3 -19 -13 -38z m7031 -17 c5 -17 4 -22 -6 -19 -8 3 -15 15 -17
27 -2 15 -9 21 -18 17 -14 -5 -20 15 -7 28 9 9 39 -24 48 -53z m-3771 43 c13
-5 14 -9 5 -20 -16 -20 -29 -17 -29 6 0 22 1 23 24 14z m-546 -46 c7 -7 12
-23 12 -36 0 -16 15 -37 43 -62 46 -42 76 -93 141 -250 39 -94 47 -106 72
-110 16 -3 29 -11 28 -18 -1 -6 -2 -22 -2 -34 -2 -20 -3 -21 -22 -3 -17 16
-20 16 -20 2 0 -27 11 -46 25 -41 9 4 14 -10 18 -48 5 -47 1 -60 -28 -113 -18
-33 -36 -78 -40 -100 -4 -22 -44 -107 -90 -190 -45 -82 -124 -229 -175 -325
-93 -174 -114 -203 -137 -195 -8 3 -13 -4 -13 -18 0 -37 -38 -90 -60 -84 -15
4 -20 0 -20 -14 0 -29 -27 -77 -74 -134 -58 -68 -59 -72 -42 -97 9 -12 16 -28
16 -35 0 -22 -29 -14 -46 12 -13 20 -14 34 -6 88 13 85 -1 157 -72 365 -66
196 -96 327 -96 426 0 58 3 75 16 80 29 11 191 29 207 23 9 -3 37 -34 63 -69
43 -58 46 -66 41 -111 -4 -51 5 -69 22 -40 9 16 12 16 21 3 13 -20 38 -136 49
-228 5 -41 12 -77 16 -80 11 -11 45 38 45 65 0 14 -7 52 -16 86 -8 33 -13 69
-11 78 3 10 -8 39 -24 64 -75 118 -80 146 -54 292 34 194 -39 446 -203 701
-27 42 29 27 103 -28 37 -27 78 -50 90 -50 18 0 30 -17 68 -99 90 -189 159
-437 173 -618 6 -73 25 -133 42 -133 10 0 -4 171 -23 290 -32 193 -105 401
-175 499 -20 28 -20 31 -4 78 26 75 50 118 86 148 23 20 32 35 30 51 -4 26 7
31 26 12z m2865 -18 c27 0 28 -2 21 -37 -7 -35 -6 -36 17 -29 58 18 94 24 99
19 3 -3 1 -7 -5 -10 -25 -9 -37 -22 -31 -32 10 -16 52 -14 87 5 40 20 56 13
65 -30 4 -26 11 -36 25 -36 10 0 21 5 24 10 10 16 22 3 28 -30 5 -25 11 -30
34 -30 25 0 28 -4 28 -32 0 -26 5 -34 21 -36 16 -2 20 -8 17 -26 -3 -15 2 -31
14 -42 10 -11 27 -32 36 -47 11 -16 30 -30 48 -34 26 -5 30 -9 24 -30 -4 -16
2 -41 17 -69 19 -38 20 -48 9 -66 -15 -24 -8 -33 26 -33 22 0 30 -11 64 -85
38 -84 49 -158 30 -188 -9 -15 23 -112 42 -125 8 -5 5 -13 -10 -24 -30 -20
-29 -38 2 -75 33 -39 32 -76 -1 -103 l-26 -21 35 -35 c41 -41 55 -83 38 -111
-9 -14 -8 -25 4 -48 19 -37 19 -79 0 -86 -19 -8 -19 -33 0 -58 19 -26 19 -50
-1 -67 -11 -9 -15 -25 -12 -53 3 -33 0 -44 -18 -59 -12 -9 -32 -45 -43 -79
-23 -68 -45 -98 -73 -98 -13 0 -18 7 -18 26 0 14 -18 71 -40 125 -22 55 -40
115 -40 134 0 28 -5 37 -30 50 -35 18 -39 35 -10 42 12 3 19 11 17 17 -4 11
-12 12 -56 5 -13 -2 -26 1 -28 8 -2 6 6 13 19 15 15 2 23 10 23 23 0 18 -6 20
-55 17 l-55 -2 30 27 c16 14 25 28 20 30 -6 2 -74 34 -152 72 -114 56 -144 67
-153 56 -8 -10 2 -21 47 -48 81 -50 132 -106 153 -168 20 -58 35 -71 45 -40
11 35 25 24 25 -19 0 -39 5 -44 41 -41 10 1 33 -34 69 -104 29 -58 51 -108 48
-110 -7 -7 -104 28 -165 58 -120 61 -288 217 -402 373 -26 36 -22 69 9 77 23
6 23 5 39 -45 8 -23 33 -56 68 -88 31 -29 65 -68 76 -88 25 -48 43 -69 91
-103 43 -32 56 -36 56 -15 0 22 -40 66 -60 66 -14 0 -23 12 -32 42 -14 47 -66
105 -103 114 -19 5 -25 13 -25 33 0 17 -11 38 -30 56 -16 16 -30 32 -30 36 0
4 16 10 35 13 41 8 43 15 12 44 -17 16 -44 25 -97 31 -73 9 -100 25 -100 57 0
16 -22 33 -51 37 -18 3 -25 12 -30 37 -5 22 -25 50 -63 85 -41 38 -56 58 -56
78 0 32 -24 36 -40 7 -18 -34 -30 -22 -30 31 0 28 -5 59 -11 71 -11 20 -11 20
-38 -6 -15 -15 -30 -23 -34 -19 -4 3 -7 28 -7 54 0 33 -4 49 -16 53 -26 10
-34 7 -34 -15 0 -34 -24 -16 -35 27 -14 55 -24 68 -40 54 -8 -7 -19 -9 -26 -5
-18 11 -39 71 -39 109 0 51 28 116 50 116 35 0 50 12 61 52 8 32 14 39 29 35
16 -4 18 -1 13 24 -5 28 -4 29 27 23 27 -6 31 -4 28 12 -2 15 2 18 20 16 26
-4 29 6 5 24 -24 17 -8 32 17 16 11 -7 22 -12 25 -12 11 0 4 24 -11 41 -26 28
-8 41 31 22 43 -20 56 -11 24 16 l-24 20 27 1 c20 0 27 6 30 23 2 16 9 21 26
20 23 -3 26 0 37 51 5 26 9 28 40 23 30 -5 35 -3 35 13 0 10 9 25 21 33 18 13
28 13 77 1 31 -7 70 -13 85 -14z m941 -36 c3 -9 6 -25 6 -36 0 -17 -3 -18 -15
-8 -16 13 -21 60 -6 60 5 0 12 -7 15 -16z m596 -24 c0 -27 3 -30 27 -28 19 2
28 -2 31 -14 2 -11 -3 -18 -12 -18 -20 0 -20 -1 4 -80 11 -36 20 -78 20 -95
l-1 -30 -19 35 c-23 41 -65 169 -73 223 -4 28 -2 37 9 37 9 0 14 -11 14 -30z
m-3375 -10 c18 -7 19 -8 3 -15 -21 -8 -48 0 -48 15 0 12 17 12 45 0z m-1503
-27 c19 -17 25 -53 9 -53 -12 0 -41 40 -41 57 0 17 10 16 32 -4z m-1735 -55
c-3 -7 -5 -2 -5 12 0 14 2 19 5 13 2 -7 2 -19 0 -25z m3663 -18 c0 -5 -9 -10
-20 -10 -11 0 -20 5 -20 10 0 6 9 10 20 10 11 0 20 -4 20 -10z m-1020 -30 c0
-23 -9 -35 -45 -60 -58 -40 -60 -20 -4 44 22 25 43 46 45 46 2 0 4 -13 4 -30z
m-847 2 c20 -22 67 -122 66 -142 0 -19 -78 66 -90 98 -11 29 -12 62 -1 62 5 0
16 -8 25 -18z m-1548 -62 c22 -25 44 -87 45 -127 0 -62 -31 -34 -82 74 -20 43
-30 74 -24 76 18 6 44 -4 61 -23z m2422 -25 c7 -20 -2 -29 -21 -22 -9 4 -13
13 -10 22 8 19 23 19 31 0z m-2493 -24 c7 -11 -22 -23 -35 -15 -5 3 -9 9 -9
15 0 12 37 12 44 0z m2439 -12 c3 -11 -3 -35 -13 -52 -10 -18 -23 -49 -30 -70
-10 -31 -14 -36 -26 -26 -22 18 -17 66 13 120 28 52 47 62 56 28z m-3476 -84
c-32 -30 -63 -55 -70 -55 -7 0 13 25 45 55 31 30 62 55 70 55 7 -1 -13 -25
-45 -55z m-513 -126 c-20 -62 -58 -161 -85 -218 -31 -66 -47 -111 -43 -125 3
-12 21 -41 40 -65 18 -24 34 -50 34 -57 0 -18 -140 -144 -245 -219 -115 -83
-266 -160 -341 -175 -32 -6 -117 -31 -189 -55 -159 -52 -189 -59 -212 -47 -13
7 -30 5 -58 -8 -57 -25 -170 -33 -325 -21 -264 21 -370 40 -410 75 -8 7 -38
16 -66 18 -35 3 -65 14 -97 36 -29 21 -58 32 -80 32 -18 0 -37 3 -40 6 -8 9
-77 11 -77 3 0 -16 41 -39 100 -56 63 -19 65 -20 102 -83 20 -36 39 -78 43
-95 l6 -30 -25 28 c-14 15 -26 39 -26 53 0 27 -34 35 -44 9 -9 -25 -31 -17
-44 18 -13 36 -57 95 -66 87 -13 -14 40 -97 111 -173 43 -45 122 -135 175
-198 55 -67 115 -128 142 -145 36 -23 45 -34 43 -53 -2 -22 8 -29 87 -63 95
-40 120 -41 71 -3 -25 21 -27 25 -12 31 26 10 64 -3 119 -41 30 -21 62 -35 80
-35 l29 0 -20 26 c-16 20 -18 31 -10 45 5 11 6 19 1 19 -5 0 -24 3 -41 6 -25
5 -31 3 -31 -11 0 -14 -7 -12 -37 12 -21 15 -70 49 -108 75 -78 52 -98 75
-144 166 -32 63 -86 132 -103 132 -21 0 5 -57 56 -125 72 -96 75 -105 28 -105
-20 0 -44 5 -52 10 -13 8 -12 11 5 24 19 14 19 15 2 21 -9 4 -26 5 -37 2 -16
-4 -29 7 -59 46 -51 69 -64 94 -51 102 21 13 9 63 -25 106 -51 64 -47 72 28
67 74 -5 157 -40 214 -92 49 -43 56 -45 48 -8 l-6 28 73 -8 c88 -10 172 -33
216 -58 25 -15 32 -16 32 -5 0 7 -9 17 -20 20 -11 3 -20 13 -20 21 0 10 13 14
48 14 81 0 262 20 367 41 324 65 667 239 897 457 43 41 62 53 75 47 10 -4 79
-11 153 -15 123 -7 144 -11 230 -45 66 -26 117 -39 167 -42 l71 -6 -5 -36
c-30 -195 -105 -370 -241 -560 -61 -86 -75 -99 -159 -150 -101 -62 -218 -150
-210 -158 11 -10 189 92 266 153 44 35 101 90 128 123 26 33 49 58 52 56 6 -7
-61 -103 -109 -158 -96 -109 -227 -180 -475 -259 -88 -28 -185 -63 -215 -78
-80 -39 -130 -54 -142 -42 -16 16 29 39 111 56 41 9 79 20 85 26 20 20 -111
10 -267 -20 -228 -43 -270 -46 -353 -23 -78 22 -128 16 -104 -12 21 -25 6 -27
-56 -10 -33 9 -104 19 -159 22 l-100 6 19 -22 19 -21 -36 0 c-20 0 -52 -8 -72
-17 -19 -9 -38 -14 -41 -10 -3 3 -1 22 6 43 12 36 11 37 -21 63 -26 20 -46 26
-94 28 -87 4 -161 44 -267 148 -84 80 -87 85 -68 98 25 17 13 30 -46 50 -26 9
-44 25 -57 48 -11 19 -36 53 -57 75 -41 44 -70 94 -70 117 0 8 -16 27 -35 41
-45 35 -59 60 -46 85 9 16 1 26 -49 65 -41 32 -57 51 -53 62 4 11 13 14 30 9
21 -5 24 -3 21 16 -2 16 -14 25 -43 33 -27 8 -41 18 -43 31 -2 11 -17 59 -34
108 -28 79 -29 91 -19 130 11 38 10 47 -15 100 -20 46 -24 64 -16 80 10 22 10
22 20 -3 5 -14 16 -38 23 -55 l13 -30 4 25 c6 35 -29 181 -42 177 -6 -2 -15
-18 -20 -35 -19 -69 -76 -14 -76 73 l0 34 38 -13 c20 -8 79 -34 130 -60 108
-54 204 -79 284 -74 39 3 59 0 62 -8 2 -6 26 -19 53 -29 26 -9 62 -23 78 -30
26 -11 35 -10 60 3 24 12 37 13 72 3 63 -16 189 -14 380 8 92 11 204 22 248
26 263 21 465 65 638 141 44 19 152 81 240 138 155 99 219 137 224 132 1 -1
-14 -54 -33 -117z m5316 -23 c41 -17 23 -30 -27 -19 -21 4 -41 6 -45 5 -10 -2
-10 12 -1 21 10 11 38 8 73 -7z m2395 -4 c0 -18 -20 -15 -23 4 -3 10 1 15 10
12 7 -3 13 -10 13 -16z m-2508 -7 c34 -14 36 -17 20 -32 -14 -14 -22 -15 -57
-4 -39 11 -53 34 -27 44 20 9 26 8 64 -8z m-1199 -47 c3 -38 -20 -70 -39 -51
-13 13 11 95 26 90 5 -2 11 -19 13 -39z m1042 -21 c62 -23 110 -68 110 -103 0
-34 45 -33 73 2 16 21 27 25 53 22 41 -5 48 18 9 28 -14 3 -25 12 -25 20 0 18
15 18 46 -2 19 -13 30 -14 47 -6 21 10 21 11 -10 23 -42 17 -43 30 -1 18 42
-12 55 -26 40 -41 -7 -7 -12 -34 -12 -60 l0 -48 -52 0 c-29 0 -80 -7 -113 -15
-79 -19 -127 -19 -151 1 -18 15 -18 15 9 11 26 -4 27 -3 12 14 -9 9 -34 30
-56 45 -43 29 -48 41 -21 46 12 2 4 11 -27 28 -57 32 -67 55 -20 45 19 -4 59
-17 89 -28z m826 -158 c49 -64 95 -99 131 -99 17 0 23 -8 28 -42 8 -48 18 -58
56 -58 17 0 29 -8 36 -23 6 -13 52 -70 102 -126 50 -57 91 -108 91 -113 0 -7
18 -8 47 -3 40 6 45 5 35 -7 -6 -8 -34 -27 -60 -41 l-49 -27 -40 29 c-51 37
-90 86 -193 241 -46 69 -118 161 -160 205 -76 79 -110 122 -110 138 0 19 42
-18 86 -74z m-1955 -35 c7 -9 18 -26 24 -38 7 -13 18 -20 30 -18 15 3 17 1 7
-10 -8 -11 -7 -21 8 -43 22 -34 18 -45 -18 -45 -32 0 -141 -50 -161 -73 -7
-10 -17 -17 -22 -17 -20 0 -6 46 41 138 28 54 50 103 50 110 0 17 25 15 41 -4z
m869 -124 c30 -10 55 -23 54 -29 -1 -6 -2 -16 -2 -21 -1 -6 -16 -19 -33 -29
-31 -19 -31 -19 -70 7 -38 25 -53 47 -25 36 21 -8 32 17 13 31 -9 7 -14 15
-10 18 9 9 10 9 73 -13z m-419 -145 c-16 -72 -41 -95 -30 -27 5 26 12 74 16
107 l7 60 10 -43 c6 -29 5 -60 -3 -97z m1585 99 c17 -41 10 -59 -12 -30 -14
19 -20 66 -8 66 3 0 12 -16 20 -36z m-1947 -104 c14 -25 31 -49 38 -53 9 -6
10 -13 3 -27 -8 -14 -4 -25 15 -48 30 -36 31 -42 5 -42 -12 0 -25 10 -32 25
-11 24 -38 35 -38 15 0 -6 26 -38 57 -72 35 -38 52 -63 44 -66 -7 -2 -25 8
-40 22 -35 34 -42 33 -29 -4 6 -18 29 -43 54 -61 38 -26 64 -56 64 -73 0 -15
-41 -4 -50 14 -6 11 -18 20 -27 20 -14 0 -14 -2 2 -20 10 -12 34 -30 52 -41
43 -27 60 -57 37 -66 -11 -4 -23 2 -36 20 -19 26 -48 37 -48 18 0 -6 23 -33
52 -61 52 -51 61 -79 12 -41 -55 43 -62 -18 -8 -70 34 -33 64 -78 64 -97 0
-22 -32 -20 -52 3 -16 19 -24 22 -30 13 -15 -25 -8 -46 32 -94 40 -49 51 -84
26 -84 -7 0 -19 7 -26 15 -7 8 -21 15 -31 15 -23 0 -25 -36 -4 -64 24 -32 19
-54 -10 -48 -15 3 -47 -7 -85 -27 -33 -17 -81 -34 -106 -38 l-46 -6 6 69 c10
118 10 125 -7 299 -20 204 -24 220 -90 360 -47 99 -52 117 -52 179 0 62 2 70
26 88 14 10 61 28 105 39 43 11 83 25 89 30 18 18 40 4 64 -41z m-3060 -7 c22
-6 23 -9 18 -69 -4 -50 -17 -89 -60 -181 -31 -65 -71 -159 -90 -209 -52 -136
-80 -184 -137 -238 -29 -27 -76 -86 -105 -130 -28 -45 -70 -101 -93 -127 -43
-48 -410 -299 -511 -349 -33 -17 -62 -38 -66 -49 -5 -15 -15 -19 -53 -18 -88
2 -119 -10 -152 -58 -25 -36 -37 -45 -61 -45 -27 0 -29 2 -19 21 29 53 -49 66
-120 19 -25 -16 -56 -30 -69 -30 -23 0 -23 1 -8 18 21 24 21 32 0 32 -12 0
-14 3 -6 11 6 6 47 14 90 18 75 7 77 8 48 20 -16 7 -100 17 -185 22 -182 10
-233 20 -294 60 -53 33 -57 46 -18 52 15 2 -18 5 -73 7 -55 1 -113 5 -130 9
-28 6 -30 9 -28 50 1 24 5 46 7 49 3 2 24 -3 48 -13 74 -31 388 -30 551 1 41
8 35 -19 -9 -40 -20 -9 -34 -19 -31 -22 7 -8 158 21 301 57 213 53 411 138
563 240 94 63 224 191 278 274 101 154 169 345 190 537 l6 58 47 14 c50 16
131 20 171 9z m794 -34 c8 -12 2 -27 -26 -63 -20 -26 -44 -68 -53 -94 -11 -28
-43 -74 -78 -112 -34 -36 -148 -167 -254 -292 -128 -149 -204 -231 -225 -239
-17 -7 -57 -39 -89 -71 -97 -97 -104 -50 -14 87 69 104 76 118 76 154 0 19 12
45 35 73 54 68 72 108 78 178 3 36 19 106 36 156 18 54 31 112 31 142 l0 49
133 6 c72 3 170 15 217 25 99 23 119 23 133 1z m-1056 -76 c-2 -16 -4 -5 -4
22 0 28 2 40 4 28 2 -13 2 -35 0 -50z m-17 -107 c-7 -7 -10 4 -9 30 1 39 1 39
10 9 5 -18 5 -33 -1 -39z m-54 -175 c-20 -43 -36 -85 -36 -92 0 -8 -15 -28
-33 -45 -47 -45 -64 -52 -39 -16 31 43 107 199 123 252 14 45 14 45 17 13 2
-21 -9 -60 -32 -112z m5824 -42 c0 -24 -4 -38 -10 -34 -17 10 -11 75 7 75 2 0
3 -18 3 -41z m-3014 -208 c-34 -85 -40 -119 -24 -138 10 -13 10 -17 1 -20 -7
-3 -13 -16 -13 -29 0 -29 -14 -30 -84 -9 -26 8 -52 12 -57 9 -24 -15 -4 31 42
92 59 80 72 109 64 141 -5 21 -2 23 29 23 19 0 38 5 42 11 5 8 10 7 16 -4 6
-11 0 -36 -16 -76z m761 34 c3 -9 3 -19 -1 -22 -7 -7 -36 16 -36 28 0 15 30
10 37 -6z m-865 -30 c0 -5 -5 -11 -11 -13 -6 -2 -11 4 -11 13 0 9 5 15 11 13
6 -2 11 -8 11 -13z m2794 -200 c27 -11 40 -27 60 -70 56 -122 66 -298 28 -510
-21 -122 -88 -415 -113 -495 -21 -68 -78 -171 -97 -177 -18 -6 -47 154 -42
235 4 81 -9 93 -52 47 -29 -31 -36 -31 -42 0 -3 13 -1 22 4 19 13 -8 48 25 48
45 0 9 -8 28 -18 42 -64 96 -61 88 -46 132 8 23 21 48 29 57 13 14 13 19 1 35
-12 17 -11 24 5 54 10 19 26 69 35 110 9 42 25 92 34 111 10 19 21 59 25 89 6
43 40 163 80 279 6 16 18 15 61 -3z m-2816 -40 c41 -21 57 -75 34 -115 -14
-23 -16 -32 -6 -42 15 -15 16 -58 2 -58 -7 0 -8 -18 -4 -50 5 -41 3 -54 -12
-71 -18 -20 -18 -22 -1 -51 20 -35 22 -58 5 -58 -12 0 -17 -19 -20 -83 -1 -21
-4 -25 -14 -16 -11 9 -18 6 -34 -12 -24 -30 -24 -32 0 -54 11 -10 20 -30 20
-45 0 -24 -3 -27 -25 -22 -30 5 -31 -3 -10 -70 14 -48 14 -48 -10 -48 -24 0
-28 -6 -40 -67 -4 -18 -13 -37 -22 -41 -13 -8 -13 -13 -3 -31 15 -29 4 -41
-14 -15 -14 18 -15 18 -22 0 -4 -11 0 -30 10 -47 18 -31 16 -35 -15 -19 -15 8
-19 7 -19 -4 0 -8 5 -18 10 -21 19 -11 10 -51 -16 -76 -32 -29 -54 -71 -54
-100 0 -18 -4 -20 -25 -15 -23 6 -24 5 -15 -19 8 -22 7 -27 -14 -35 -14 -5
-37 -30 -51 -55 -26 -43 -51 -65 -74 -65 -6 0 5 26 24 58 52 87 98 209 176
465 65 215 70 242 79 367 17 246 34 361 65 455 27 80 41 88 95 60z m802 -261
c2 -60 0 -84 -9 -84 -6 0 -15 9 -18 20 -8 24 -35 27 -35 3 0 -9 14 -40 30 -70
28 -49 38 -92 24 -106 -3 -3 -17 -2 -30 3 -31 12 -31 -2 1 -44 33 -43 32 -60
-1 -53 -23 4 -25 2 -18 -17 32 -89 -44 -326 -225 -698 -39 -79 -89 -172 -111
-208 -42 -64 -156 -190 -172 -190 -4 0 30 75 77 168 47 92 91 191 98 220 8 37
23 66 48 93 35 38 35 38 22 81 -11 38 -10 50 8 103 41 118 67 283 87 540 6 76
10 90 24 90 10 0 23 6 30 13 9 9 8 12 -9 12 -33 0 -41 48 -27 153 l6 45 52 7
c28 3 65 12 81 19 49 22 63 1 67 -100z m72 54 c27 -37 18 -57 -9 -23 -14 17
-25 33 -25 38 0 15 19 6 34 -15z m-5410 -44 c25 -9 21 -43 -4 -37 -11 3 -20
14 -20 24 0 21 1 22 24 13z m1820 -43 c-5 -5 -22 -13 -38 -17 -22 -5 -28 -4
-24 7 3 8 18 17 34 20 33 6 42 3 28 -10z m-124 -51 c0 -13 -34 -30 -61 -30
-21 0 -22 1 -4 20 18 20 65 28 65 10z m3715 -100 c8 -25 8 -25 -14 -6 -11 11
-21 28 -21 40 0 18 2 18 14 6 8 -8 17 -26 21 -40z m-4073 -13 c37 -1 63 -6 59
-10 -16 -16 -79 -24 -155 -19 -61 4 -74 7 -65 18 12 15 45 22 74 17 11 -2 50
-4 87 -6z m4061 -112 c3 -7 -2 -24 -12 -36 l-18 -23 -5 37 c-3 30 -1 37 13 37
9 0 19 -7 22 -15z m-822 -193 c5 -14 7 -28 3 -31 -8 -8 -54 50 -48 60 8 14 35
-3 45 -29z m2489 -264 c0 -30 -9 -35 -28 -16 -13 13 -16 60 -5 72 12 11 33
-25 33 -56z m28 -121 c26 -53 -15 -172 -44 -126 -3 6 -10 39 -14 72 -6 51 -5
64 8 75 21 16 34 11 50 -21z m-3154 -565 c-9 -43 -24 -30 -24 21 0 37 2 40 15
26 11 -10 13 -25 9 -47z"/>
<path d="M4056 7415 c-15 -14 -24 -30 -20 -36 3 -6 9 -7 13 -2 3 4 17 20 30
36 31 34 13 36 -23 2z"/>
<path d="M5110 7398 c0 -19 2 -20 10 -8 13 19 13 30 0 30 -5 0 -10 -10 -10
-22z"/>
<path d="M4960 7282 c-65 -32 -81 -65 -30 -60 24 2 42 14 68 46 19 23 31 42
26 42 -5 0 -34 -13 -64 -28z"/>
<path d="M5992 7078 c2 -13 8 -23 13 -23 6 0 11 10 13 23 2 15 -2 22 -13 22
-11 0 -15 -7 -13 -22z"/>
<path d="M5676 6993 c8 -46 15 -55 33 -44 19 12 6 57 -20 71 -19 11 -20 9 -13
-27z"/>
<path d="M5992 6974 c2 -15 9 -29 16 -32 10 -3 13 4 10 24 -2 15 -9 29 -16 32
-10 3 -13 -4 -10 -24z"/>
<path d="M5770 6746 c0 -10 13 -16 37 -18 29 -2 40 -9 53 -33 9 -16 26 -31 38
-33 33 -5 28 33 -7 69 -24 24 -38 29 -75 29 -33 0 -46 -4 -46 -14z"/>
<path d="M6006 6748 c-2 -7 -18 -59 -36 -116 -18 -56 -30 -105 -27 -108 10
-11 48 17 77 57 47 66 54 179 9 179 -11 0 -21 -6 -23 -12z"/>
<path d="M5430 6719 c0 -33 43 -43 134 -31 88 12 153 34 111 39 -11 1 -71 4
-132 5 -98 3 -113 1 -113 -13z"/>
<path d="M5805 6413 c-49 -25 -65 -44 -65 -75 0 -21 -6 -31 -25 -38 -18 -7
-28 -23 -40 -65 -15 -49 -20 -57 -46 -62 -16 -3 -28 -10 -26 -16 8 -25 31 -15
90 42 35 34 69 61 75 61 17 0 15 25 -3 40 -14 11 -9 19 35 62 66 65 68 85 5
51z"/>
<path d="M5050 6173 c0 -24 10 -37 38 -52 32 -17 35 -11 14 30 -19 38 -52 52
-52 22z"/>
<path d="M5130 6167 c0 -22 34 -47 73 -54 27 -4 39 -1 56 16 12 12 21 27 19
33 -2 5 -36 12 -76 14 -57 4 -72 2 -72 -9z"/>
<path d="M5302 6142 c2 -18 8 -26 19 -24 9 1 21 -9 27 -23 17 -36 46 -34 37 2
-9 37 -20 49 -56 62 -29 10 -30 9 -27 -17z"/>
<path d="M5543 6113 c-23 -9 -14 -33 12 -33 18 0 25 5 25 20 0 19 -12 24 -37
13z"/>
<path d="M5414 6086 c-18 -14 -18 -15 9 -25 39 -15 77 -14 77 2 0 35 -51 48
-86 23z"/>
<path d="M7240 5289 c0 -18 -2 -19 -15 -9 -23 19 -29 5 -14 -28 12 -27 15 -29
38 -19 41 17 44 23 26 51 -21 32 -35 33 -35 5z"/>
<path d="M10114 5255 c15 -44 72 -126 136 -193 37 -40 71 -72 74 -72 4 0 -7
26 -24 58 -32 58 -197 243 -186 207z"/>
<path d="M6499 4942 c13 -24 40 -46 47 -39 4 3 -1 13 -10 22 -9 9 -16 21 -16
26 0 5 -7 9 -15 9 -12 0 -13 -4 -6 -18z"/>
<path d="M6620 4948 c0 -9 5 -20 10 -23 13 -8 13 5 0 25 -8 13 -10 13 -10 -2z"/>
<path d="M9855 4700 c-3 -5 3 -10 14 -10 11 0 23 5 26 10 3 6 -3 10 -14 10
-11 0 -23 -4 -26 -10z"/>
<path d="M7140 4748 c0 -19 26 -42 34 -30 3 5 -3 17 -14 27 -17 15 -20 16 -20
3z"/>
<path d="M8037 4383 c-4 -3 -7 -17 -7 -30 0 -18 5 -23 25 -23 17 0 25 5 25 18
0 28 -28 51 -43 35z"/>
<path d="M8130 4310 c0 -23 4 -24 31 -10 27 15 24 30 -6 30 -18 0 -25 -5 -25
-20z"/>
<path d="M8502 4291 c-10 -6 -6 -10 15 -14 17 -3 33 0 43 9 12 12 10 14 -15
14 -17 0 -36 -4 -43 -9z"/>
<path d="M8227 4253 c-28 -7 -14 -28 19 -28 19 0 30 6 32 18 3 17 -12 20 -51
10z"/>
<path d="M8618 4183 c6 -2 18 -2 25 0 6 3 1 5 -13 5 -14 0 -19 -2 -12 -5z"/>
<path d="M8375 4170 c-3 -5 -3 -10 1 -10 3 0 -4 -9 -17 -20 l-24 -19 26 -1
c29 0 49 17 49 42 0 19 -25 25 -35 8z"/>
<path d="M7972 4138 c-21 -21 -13 -28 31 -28 23 0 49 -5 57 -10 13 -8 12 -11
-5 -24 -23 -17 -16 -28 36 -54 24 -12 35 -25 37 -44 3 -25 7 -28 43 -28 39 0
40 -1 34 -28 -5 -26 -3 -29 34 -41 25 -7 42 -19 46 -32 7 -21 7 -21 31 2 29
27 27 41 -6 46 -31 5 -57 28 -64 59 -5 17 -13 24 -31 24 -16 0 -35 13 -56 40
-18 22 -39 40 -46 40 -11 0 -13 8 -8 29 6 27 4 29 -53 45 -70 19 -65 19 -80 4z"/>
<path d="M8462 4094 c-27 -19 -28 -34 -3 -34 11 0 23 9 26 21 9 28 3 31 -23
13z"/>
<path d="M8510 4004 c0 -11 8 -14 27 -12 39 4 42 28 4 28 -21 0 -31 -5 -31
-16z"/>
<path d="M8570 3929 c-11 -19 -9 -20 17 -17 17 2 29 10 31 21 5 25 -35 22 -48
-4z"/>
<path d="M8380 3730 c0 -16 38 -50 56 -50 12 0 15 6 10 23 -3 12 -6 25 -6 30
0 11 -60 8 -60 -3z"/>
<path d="M10041 4421 c-12 -8 -12 -12 -2 -25 8 -9 21 -16 31 -16 22 0 44 25
35 40 -8 12 -45 13 -64 1z"/>
<path d="M4750 4095 c0 -10 11 -15 35 -15 39 0 47 14 13 24 -36 9 -48 7 -48
-9z"/>
<path d="M4459 4086 c16 -19 55 -22 49 -3 -3 6 -17 14 -33 15 -25 3 -27 2 -16
-12z"/>
<path d="M4916 4071 c-7 -11 22 -23 35 -15 5 3 9 9 9 15 0 12 -37 12 -44 0z"/>
<path d="M4529 4046 c8 -10 23 -15 33 -12 11 2 45 -4 76 -15 68 -24 110 -26
141 -10 16 9 41 11 77 6 35 -4 54 -3 54 4 0 20 -80 31 -197 29 -65 -2 -136 1
-158 6 -37 9 -39 8 -26 -8z"/>
<path d="M4490 4000 c23 -43 160 -64 193 -31 8 8 -9 11 -59 11 -48 0 -81 6
-107 19 -34 17 -36 17 -27 1z"/>
<path d="M5020 3992 c0 -10 34 -25 80 -37 l25 -6 -24 20 c-13 12 -29 21 -36
21 -7 0 -20 3 -29 6 -9 3 -16 2 -16 -4z"/>
<path d="M4822 3969 c3 -9 26 -16 59 -20 30 -3 69 -12 87 -19 25 -9 36 -10 47
0 25 20 9 27 -77 34 -46 4 -91 10 -102 13 -12 3 -17 1 -14 -8z"/>
<path d="M3802 3927 c-10 -12 -1 -15 54 -20 70 -7 84 -4 84 16 0 19 -123 22
-138 4z"/>
<path d="M4567 3923 c-14 -14 -6 -21 37 -32 91 -23 139 -6 75 26 -26 13 -101
18 -112 6z"/>
<path d="M4577 3873 c-13 -12 -7 -33 8 -33 8 0 15 9 15 20 0 20 -11 26 -23 13z"/>
<path d="M4810 3873 c0 -17 24 -33 51 -33 25 0 47 15 37 25 -9 10 -88 17 -88
8z"/>
<path d="M3787 3864 c-13 -13 5 -24 38 -24 39 0 65 8 65 21 0 10 -93 12 -103
3z"/>
<path d="M3952 3838 c6 -18 61 -30 70 -15 14 22 8 27 -33 27 -27 0 -39 -4 -37
-12z"/>
<path d="M3650 3825 c0 -10 11 -15 35 -15 24 0 35 5 35 15 0 10 -11 15 -35 15
-24 0 -35 -5 -35 -15z"/>
<path d="M5078 3833 c7 -3 16 -2 19 1 4 3 -2 6 -13 5 -11 0 -14 -3 -6 -6z"/>
<path d="M3758 3822 c-22 -4 -23 -28 -2 -36 32 -12 66 -7 62 10 -3 19 -34 32
-60 26z"/>
<path d="M4552 3803 c2 -12 14 -19 36 -21 28 -3 33 0 30 15 -2 12 -14 19 -36
21 -28 3 -33 0 -30 -15z"/>
<path d="M4887 3803 c-16 -15 -5 -24 25 -21 41 4 50 28 11 28 -17 0 -33 -3
-36 -7z"/>
<path d="M4988 3803 c-40 -10 -10 -33 42 -33 19 0 33 7 40 20 10 18 8 20 -27
19 -21 -1 -46 -3 -55 -6z"/>
<path d="M4764 3733 c3 -22 46 -31 46 -10 0 14 -20 27 -40 27 -4 0 -7 -8 -6
-17z"/>
<path d="M3850 3731 c0 -21 30 -34 55 -23 37 17 30 32 -15 32 -22 0 -40 -4
-40 -9z"/>
<path d="M4854 3729 c-10 -17 13 -36 27 -22 12 12 4 33 -11 33 -5 0 -12 -5
-16 -11z"/>
<path d="M3676 3717 c-19 -14 -19 -15 2 -26 34 -18 54 -14 50 11 -4 27 -27 34
-52 15z"/>
<path d="M4730 3695 c0 -26 85 -51 124 -36 24 9 16 14 -53 35 -67 20 -71 20
-71 1z"/>
<path d="M3580 3685 c0 -8 7 -15 15 -15 8 0 15 7 15 15 0 8 -7 15 -15 15 -8 0
-15 -7 -15 -15z"/>
<path d="M3480 3640 c-19 -12 -15 -14 48 -28 70 -16 97 -15 111 2 10 12 3 16
-39 25 -62 13 -100 14 -120 1z"/>
<path d="M4760 3632 c0 -16 28 -34 47 -30 31 6 21 33 -14 36 -18 2 -33 -1 -33
-6z"/>
<path d="M3505 3593 c-70 -14 -72 -16 -30 -24 61 -12 85 -11 85 5 0 11 -26 30
-33 25 -1 -1 -11 -3 -22 -6z"/>
<path d="M3417 3511 c-16 -10 -51 -22 -78 -25 -86 -12 -88 -20 -9 -31 72 -10
76 -9 93 13 10 12 27 22 38 22 17 0 18 3 9 20 -13 25 -18 25 -53 1z"/>
<path d="M4340 3511 c0 -12 5 -21 10 -21 6 0 10 6 10 14 0 8 -4 18 -10 21 -5
3 -10 -3 -10 -14z"/>
<path d="M3216 3421 c-5 -8 71 -21 128 -21 24 0 27 2 16 15 -14 17 -135 22
-144 6z"/>
<path d="M3175 3383 c-46 -10 -48 -17 -5 -23 163 -25 156 -24 141 -7 -7 9 -29
19 -50 23 -20 3 -43 7 -51 9 -8 1 -24 1 -35 -2z"/>
<path d="M3183 3303 c-45 -9 -13 -33 45 -33 13 0 22 6 22 15 0 8 -4 15 -9 15
-5 0 -15 2 -23 4 -7 2 -23 1 -35 -1z"/>
<path d="M3054 3205 c-18 -14 -16 -15 25 -13 25 2 46 9 49 16 5 17 -50 16 -74
-3z"/>
<path d="M2940 3151 c-22 -15 -6 -23 52 -29 48 -4 52 -3 38 12 -19 20 -70 30
-90 17z"/>
<path d="M2930 3066 c0 -10 9 -16 21 -16 24 0 21 23 -4 28 -10 2 -17 -3 -17
-12z"/>
<path d="M3300 3046 c0 -10 9 -16 21 -16 24 0 21 23 -4 28 -10 2 -17 -3 -17
-12z"/>
<path d="M4002 3053 c-7 -3 -19 -17 -27 -33 -14 -26 -13 -28 6 -23 11 3 26 15
34 26 23 33 19 43 -13 30z"/>
<path d="M6797 4304 c-4 -4 -2 -13 4 -20 7 -9 4 -24 -13 -53 -21 -37 -22 -41
-7 -57 16 -15 19 -11 52 47 26 45 33 66 24 70 -24 13 -54 19 -60 13z"/>
<path d="M4210 3841 c0 -5 7 -14 15 -21 13 -10 15 -9 15 9 0 12 -6 21 -15 21
-8 0 -15 -4 -15 -9z"/>
<path d="M7273 4107 c2 -7 16 -18 32 -26 35 -17 155 -28 155 -14 0 19 -27 33
-76 38 -27 3 -64 8 -82 10 -23 3 -32 0 -29 -8z"/>
<path d="M5974 2973 c1 -48 5 -61 30 -85 29 -29 29 -29 8 -44 l-21 -14 24 -43
c13 -23 30 -80 39 -126 10 -57 25 -98 43 -125 l28 -41 3 30 c2 16 8 33 14 36
5 3 -1 21 -15 42 -13 19 -39 89 -57 154 -17 65 -39 131 -47 146 -13 26 -13 30
2 41 16 11 15 14 -9 29 -14 10 -26 24 -26 32 0 7 -4 16 -8 19 -4 2 -8 -21 -8
-51z"/>
<path d="M6152 2664 c2 -11 11 -20 22 -22 13 -3 17 1 14 14 -2 11 -11 20 -22
22 -13 3 -17 -1 -14 -14z"/>
<path d="M6090 2472 c0 -12 9 -26 20 -32 16 -8 20 -8 20 3 0 8 -9 22 -20 32
-19 18 -20 17 -20 -3z"/>
<path d="M9522 3753 c4 -39 28 -42 28 -4 0 21 -5 31 -16 31 -11 0 -14 -8 -12
-27z"/>
<path d="M9244 3699 c-10 -17 10 -30 57 -36 l44 -4 -28 25 c-29 27 -61 34 -73
15z"/>
<path d="M9102 3648 c-7 -7 -12 -18 -12 -25 0 -19 27 -16 38 4 9 15 12 14 41
-6 32 -23 61 -25 68 -4 10 30 -108 58 -135 31z"/>
<path d="M9012 3608 c-23 -23 -13 -38 23 -38 22 0 35 5 35 13 0 16 -20 37 -35
37 -6 0 -16 -5 -23 -12z"/>
<path d="M9340 3601 c0 -5 6 -14 14 -20 11 -9 15 -7 19 9 4 15 0 20 -14 20
-10 0 -19 -4 -19 -9z"/>
<path d="M9297 3546 c-7 -17 11 -36 35 -36 23 0 24 35 2 44 -24 9 -31 7 -37
-8z"/>
<path d="M9423 3543 c-29 -19 -29 -39 -2 -53 27 -15 31 -10 27 33 -3 34 -4 34
-25 20z"/>
<path d="M9162 3496 c-39 -12 -40 -39 -2 -44 18 -2 34 6 55 28 l29 30 -25 -1
c-13 -1 -39 -7 -57 -13z"/>
<path d="M9023 3454 c-8 -20 14 -35 47 -32 17 2 26 10 28 26 3 19 -1 22 -33
22 -23 0 -38 -5 -42 -16z"/>
<path d="M9335 3419 c-4 -6 -14 -8 -22 -5 -10 4 -13 0 -11 -12 7 -37 67 -23
68 16 0 15 -26 16 -35 1z"/>
<path d="M9179 3384 c-19 -23 1 -50 37 -47 32 3 70 36 60 52 -11 17 -82 13
-97 -5z"/>
<path d="M9408 3321 c-38 -36 -68 -69 -68 -74 0 -4 11 -7 24 -7 16 0 32 11 46
30 17 23 27 29 45 24 13 -3 37 2 54 11 l31 16 -26 34 c-14 19 -29 34 -33 34
-3 -1 -36 -31 -73 -68z"/>
<path d="M9263 3263 c-18 -3 -23 -11 -23 -35 0 -29 2 -30 32 -24 38 7 45 14
50 41 3 21 -16 27 -59 18z"/>
<path d="M9552 3211 c-20 -12 -10 -46 13 -49 32 -4 52 14 39 35 -13 21 -33 27
-52 14z"/>
<path d="M9450 3171 c0 -21 25 -51 41 -51 6 0 19 5 31 11 20 11 20 11 -3 35
-28 30 -69 33 -69 5z"/>
<path d="M9644 3176 c-12 -31 1 -51 34 -54 17 -2 32 1 32 7 0 5 2 16 5 23 4 9
-4 19 -20 26 -34 16 -44 15 -51 -2z"/>
<path d="M9350 3120 c0 -10 12 -30 26 -44 22 -20 30 -22 45 -13 25 15 24 23
-6 52 -30 31 -65 33 -65 5z"/>
<path d="M9640 3056 c0 -37 21 -62 45 -52 21 8 19 42 -5 66 -29 29 -40 25 -40
-14z"/>
<path d="M9553 3040 c-23 -10 -46 -43 -36 -54 11 -11 50 -7 61 7 14 17 19 49
7 53 -5 1 -20 -1 -32 -6z"/>
<path d="M9443 2983 c-22 -8 -14 -32 12 -39 32 -8 43 1 29 23 -12 19 -23 24
-41 16z"/>
<path d="M9626 2928 c-7 -27 16 -53 38 -45 19 7 21 38 4 55 -18 18 -35 14 -42
-10z"/>
<path d="M9604 2328 c-8 -12 22 -38 43 -38 7 0 13 5 13 10 0 6 0 13 0 18 -1
12 -49 21 -56 10z"/>
<path d="M504 2943 c6 -65 42 -135 100 -199 l45 -49 -35 85 c-20 47 -42 101
-50 121 -9 19 -27 49 -40 65 l-25 29 5 -52z"/>
<path d="M500 2792 c0 -19 18 -42 32 -42 15 0 8 48 -8 54 -23 9 -24 8 -24 -12z"/>
<path d="M1496 2334 c-4 -9 -4 -19 -1 -22 7 -8 35 19 29 29 -8 14 -21 11 -28
-7z"/>
<path d="M1592 2263 c2 -17 10 -29 21 -31 25 -5 22 35 -4 48 -19 11 -20 9 -17
-17z"/>
<path d="M1787 2267 c-7 -20 1 -27 30 -27 18 0 24 5 21 18 -4 21 -43 28 -51 9z"/>
<path d="M1390 2202 c0 -23 19 -42 41 -42 29 0 33 22 8 41 -31 24 -49 24 -49
1z"/>
<path d="M1940 2162 c0 -14 24 -32 43 -32 13 0 17 5 13 16 -3 9 -6 18 -6 20 0
2 -11 4 -25 4 -14 0 -25 -4 -25 -8z"/>
<path d="M1740 2026 c0 -14 21 -26 46 -26 19 0 18 26 -2 34 -26 10 -44 7 -44
-8z"/>
<path d="M1820 1984 c0 -12 34 -33 53 -34 20 0 22 11 5 28 -12 12 -58 17 -58
6z"/>
<path d="M1940 1916 c0 -9 9 -14 20 -13 11 1 20 7 20 14 0 7 -9 13 -20 13 -11
0 -20 -6 -20 -14z"/>
<path d="M2676 1917 c-22 -7 -41 -18 -43 -24 -5 -14 83 13 93 28 7 11 -1 11
-50 -4z"/>
<path d="M1580 1900 c12 -23 33 -35 75 -43 60 -11 58 9 -3 36 -73 33 -87 34
-72 7z"/>
<path d="M1460 1865 c0 -8 7 -15 15 -15 8 0 15 7 15 15 0 8 -7 15 -15 15 -8 0
-15 -7 -15 -15z"/>
<path d="M1442 1811 c2 -7 7 -12 11 -12 12 1 9 15 -3 20 -7 2 -11 -2 -8 -8z"/>
<path d="M6770 2840 c0 -11 7 -23 15 -27 21 -8 28 1 20 26 -8 27 -35 27 -35 1z"/>
<path d="M1905 1720 c3 -5 10 -10 16 -10 5 0 9 5 9 10 0 6 -7 10 -16 10 -8 0
-12 -4 -9 -10z"/>
<path d="M2065 1705 c-22 -8 -56 -14 -75 -15 -19 -1 11 -8 67 -15 56 -8 175
-30 265 -50 129 -29 186 -37 273 -39 l110 -1 3 28 c5 41 -22 45 -79 14 -26
-15 -59 -27 -73 -27 -23 0 -25 2 -16 19 5 11 10 22 10 24 0 2 -60 7 -132 10
-130 5 -258 32 -273 57 -8 13 -30 11 -80 -5z"/>
<path d="M6040 1885 c0 -25 14 -34 24 -16 8 12 -3 41 -15 41 -5 0 -9 -11 -9
-25z"/>
<path d="M6027 1694 c-4 -4 -7 -23 -7 -41 0 -42 23 -41 28 1 4 29 -9 52 -21
40z"/>
<path d="M6722 1538 c-18 -18 -14 -28 8 -28 11 0 20 6 20 14 0 21 -15 27 -28
14z"/>
<path d="M6723 1457 c-8 -16 -9 -29 -3 -32 12 -8 23 17 18 41 -2 14 -6 12 -15
-9z"/>
<path d="M6780 1313 c0 -5 7 -18 15 -29 15 -18 15 -18 13 5 -3 23 -28 44 -28
24z"/>
<path d="M6660 1241 c0 -11 4 -21 9 -21 18 0 21 18 6 30 -13 10 -15 9 -15 -9z"/>
<path d="M6664 1135 c-9 -35 0 -41 14 -10 7 14 8 27 2 30 -5 3 -12 -6 -16 -20z"/>
<path d="M9095 5150 c-12 -4 -27 -15 -35 -25 -12 -15 -11 -16 16 -9 39 9 64
23 64 34 0 12 -17 12 -45 0z"/>
<path d="M7188 3998 c8 -8 17 -8 34 0 22 10 21 11 -11 11 -27 1 -32 -2 -23
-11z"/>
<path d="M7537 3804 c-11 -11 -8 -44 3 -44 15 0 24 30 13 41 -5 5 -12 6 -16 3z"/>
<path d="M7359 3762 c15 -28 78 -81 104 -87 63 -15 71 -12 77 28 4 20 6 37 4
37 -27 0 -163 24 -177 32 -16 8 -17 7 -8 -10z"/>
<path d="M7422 3518 c5 -15 37 -18 41 -3 1 6 -9 12 -22 13 -16 3 -22 -1 -19
-10z"/>
<path d="M7151 3478 c-14 -41 0 -59 28 -34 25 23 33 53 14 60 -25 10 -31 7
-42 -26z"/>
<path d="M7700 3492 c0 -10 99 -46 107 -39 9 9 -60 47 -84 47 -13 0 -23 -4
-23 -8z"/>
<path d="M7482 3418 c5 -17 87 -58 115 -58 37 0 26 14 -30 37 -79 32 -89 35
-85 21z"/>
<path d="M7430 3392 c0 -13 23 -37 53 -56 20 -12 26 -22 22 -36 -5 -15 4 -24
43 -44 58 -30 117 -42 126 -27 4 7 -11 16 -40 23 -36 10 -49 19 -56 40 -6 17
-33 41 -74 67 -69 43 -74 46 -74 33z"/>
<path d="M7250 3385 c0 -3 7 -19 15 -35 11 -21 23 -30 40 -30 27 0 35 30 13
47 -16 12 -68 26 -68 18z"/>
<path d="M6910 3253 c1 -51 12 -44 25 15 5 25 3 32 -9 32 -12 0 -16 -11 -16
-47z"/>
<path d="M6950 3255 c0 -45 12 -60 24 -29 12 31 7 74 -9 74 -11 0 -15 -12 -15
-45z"/>
<path d="M7386 3261 c-14 -22 6 -39 38 -34 39 6 64 -6 121 -58 42 -39 93 -65
104 -53 3 4 2 8 -4 11 -36 13 -60 31 -63 45 -3 15 2 15 55 3 69 -17 83 -18 83
-6 0 14 -77 39 -155 51 -44 7 -78 18 -91 31 -21 19 -78 26 -88 10z"/>
<path d="M7286 3161 c-7 -11 81 -74 93 -66 12 7 -57 75 -75 75 -7 0 -15 -4
-18 -9z"/>
<path d="M8049 3112 c14 -25 31 -38 64 -46 49 -12 29 26 -26 49 -46 19 -50 19
-38 -3z"/>
<path d="M8616 3088 c-3 -10 -8 -25 -11 -33 -2 -8 1 -28 7 -43 11 -27 11 -27
19 17 9 46 -4 94 -15 59z"/>
<path d="M8666 2994 c-12 -30 -7 -74 8 -74 22 0 29 17 22 56 -7 36 -20 44 -30
18z"/>
<path d="M7250 2940 c-17 -70 5 -237 28 -218 31 26 54 97 47 141 -8 43 -38
111 -54 121 -5 3 -14 -16 -21 -44z"/>
<path d="M7339 2768 c-12 -23 -12 -23 10 -4 23 21 26 26 11 26 -5 0 -15 -10
-21 -22z"/>
<path d="M7623 2733 c-37 -87 -38 -93 -9 -93 22 0 26 4 26 30 0 17 7 42 17 56
14 22 14 27 1 40 -13 14 -17 10 -35 -33z"/>
<path d="M7560 2572 c0 -65 44 -87 56 -27 7 40 -7 65 -37 65 -15 0 -19 -7 -19
-38z"/>
<path d="M7540 2479 c0 -15 21 -53 34 -61 29 -19 36 30 8 55 -21 19 -42 22
-42 6z"/>
<path d="M7546 2371 c-19 -21 -19 -82 0 -88 22 -7 45 28 42 65 -4 42 -18 50
-42 23z"/>
<path d="M7527 2253 c-4 -3 -7 -30 -7 -59 0 -47 2 -52 20 -47 45 12 58 72 22
101 -18 14 -26 15 -35 5z"/>
<path d="M9540 2166 c0 -29 17 -43 33 -27 8 8 9 16 1 28 -17 27 -34 27 -34 -1z"/>
<path d="M9620 2130 c0 -23 5 -30 19 -30 26 0 34 15 21 40 -17 31 -40 25 -40
-10z"/>
<path d="M7534 2078 c-4 -13 -6 -52 -4 -88 1 -36 3 -80 3 -97 0 -27 5 -33 21
-33 42 0 47 12 35 69 -6 29 -8 73 -4 98 5 37 3 47 -12 59 -25 19 -31 17 -39
-8z"/>
<path d="M7536 1783 c9 -53 22 -75 42 -71 27 5 27 56 1 84 -35 37 -51 32 -43
-13z"/>
<path d="M5837 1745 c-9 -13 -13 -26 -8 -30 5 -3 17 5 25 17 29 42 13 54 -17
13z"/>
<path d="M7550 1638 c0 -53 51 -91 65 -49 6 21 -10 71 -24 71 -5 0 -16 3 -25
6 -13 5 -16 -1 -16 -28z"/>
<path d="M7590 1485 c0 -8 9 -15 20 -15 24 0 27 15 4 24 -22 9 -24 8 -24 -9z"/>
<path d="M2820 1433 c-97 -9 -123 -15 -109 -24 19 -12 76 -11 121 1 36 10 63
32 36 28 -7 0 -29 -3 -48 -5z"/>
<path d="M6910 1011 c0 -20 23 -45 33 -35 7 8 -14 54 -25 54 -4 0 -8 -8 -8
-19z"/>
</g>
</svg>
