<?xml version="1.0" standalone="no"?>
<!DOCTYPE svg PUBLIC "-//W3C//DTD SVG 20010904//EN"
 "http://www.w3.org/TR/2001/REC-SVG-20010904/DTD/svg10.dtd">
<svg version="1.0" xmlns="http://www.w3.org/2000/svg"
 width="1280.000000pt" height="1014.000000pt" viewBox="0 0 1280.000000 1014.000000"
 preserveAspectRatio="xMidYMid meet">
<metadata>
Created by potrace 1.15, written by Peter Selinger 2001-2017
</metadata>
<g transform="translate(0.000000,1014.000000) scale(0.100000,-0.100000)"
fill="#000000" stroke="none">
<path d="M10560 10085 c0 -25 5 -45 10 -45 6 0 10 20 10 45 0 25 -4 45 -10 45
-5 0 -10 -20 -10 -45z"/>
<path d="M825 10044 c-203 -19 -375 -49 -511 -90 -65 -19 -133 -35 -150 -36
-26 -1 -36 -10 -69 -61 -61 -94 -75 -147 -87 -346 -14 -233 -4 -734 18 -911
18 -142 22 -270 9 -331 -5 -25 -1 -62 13 -115 28 -110 42 -290 63 -819 8 -209
13 -275 25 -293 10 -16 18 -70 24 -175 15 -235 22 -279 86 -507 8 -30 15 -94
15 -143 -1 -164 35 -304 123 -488 26 -54 51 -123 57 -155 19 -109 126 -294
169 -294 14 0 21 -12 29 -52 15 -67 55 -115 174 -208 l95 -74 -59 -56 c-53
-50 -75 -90 -50 -90 23 0 -10 -50 -129 -198 -152 -191 -198 -262 -288 -452
-100 -211 -142 -313 -142 -349 0 -28 -3 -31 -30 -31 -23 0 -30 -4 -30 -20 0
-13 10 -24 25 -30 22 -8 25 -15 25 -57 -1 -27 -7 -93 -14 -148 -16 -114 -7
-315 20 -449 16 -84 24 -103 59 -151 13 -16 61 -98 108 -180 149 -264 378
-602 488 -721 65 -70 85 -101 171 -256 117 -213 272 -391 428 -492 165 -106
185 -123 237 -191 67 -88 107 -155 106 -177 -2 -24 73 -87 192 -162 136 -86
242 -138 352 -174 107 -35 195 -89 317 -196 107 -93 188 -149 271 -187 126
-57 318 -91 518 -91 100 0 123 3 158 21 22 12 45 19 50 16 16 -10 44 4 113 54
35 26 84 53 108 60 24 6 116 15 205 20 187 10 214 19 350 117 206 149 351 300
452 474 70 118 133 187 217 236 49 29 103 77 200 179 172 182 273 300 289 339
7 17 23 43 35 58 36 47 94 184 179 423 45 127 106 289 136 360 30 72 67 163
83 203 15 40 33 74 38 74 12 0 45 -86 72 -188 22 -86 78 -216 113 -265 12 -17
32 -34 45 -39 14 -6 24 -18 24 -30 0 -26 8 -25 32 5 11 14 30 25 43 25 32 0
67 45 124 159 55 110 91 208 91 249 0 36 16 52 52 52 21 0 35 -10 58 -41 33
-46 87 -178 99 -244 4 -23 19 -58 34 -76 31 -42 108 -220 151 -350 17 -53 38
-104 45 -113 9 -11 11 -29 7 -61 -7 -42 -5 -46 18 -55 16 -6 28 -20 32 -37 13
-63 27 -94 63 -150 20 -32 55 -91 76 -132 46 -88 205 -258 349 -376 102 -82
160 -150 226 -265 66 -114 115 -177 209 -270 90 -88 197 -166 276 -201 63 -28
158 -46 309 -59 71 -6 145 -18 164 -26 20 -8 59 -37 89 -65 61 -58 163 -109
278 -140 123 -34 315 -31 450 5 55 14 127 40 160 56 84 40 222 155 259 214 17
28 52 71 78 97 52 51 181 123 240 133 73 13 199 117 451 375 144 146 203 194
287 233 80 37 161 101 286 230 124 127 176 194 247 318 27 47 62 100 78 118
16 18 29 40 29 48 0 25 49 88 190 249 104 119 153 186 238 325 226 370 289
538 311 833 30 398 -93 904 -269 1117 -29 33 -61 82 -72 108 -14 31 -53 79
-115 139 -51 50 -93 97 -93 103 0 6 -18 36 -39 67 -22 30 -37 61 -35 68 3 7
39 41 79 74 76 62 139 132 344 384 117 144 132 167 111 167 -23 0 -7 38 44
104 80 106 131 203 96 181 -18 -11 -10 18 26 94 31 65 38 91 44 176 5 55 15
116 24 137 24 55 35 116 51 276 8 80 20 161 26 180 12 35 9 70 -11 167 -16 79
-7 588 16 855 12 137 17 321 18 615 1 284 6 438 14 474 24 109 53 360 59 516
13 339 -51 580 -171 649 -41 24 -186 68 -306 92 -117 24 -578 37 -871 26 -292
-12 -454 -35 -703 -97 -78 -20 -184 -45 -236 -56 -52 -12 -137 -34 -189 -51
-201 -64 -608 -253 -806 -373 -132 -81 -166 -96 -219 -98 -31 -2 -43 -7 -52
-25 -28 -56 -120 -133 -424 -357 -281 -206 -435 -326 -655 -510 -99 -83 -238
-198 -310 -255 -138 -112 -558 -523 -669 -655 -125 -149 -171 -230 -316 -558
-45 -103 -84 -187 -85 -185 -2 2 8 50 22 108 33 139 35 238 5 305 -28 60 -49
85 -74 85 -10 0 -22 8 -25 18 -9 22 -23 32 -50 32 -24 0 -48 33 -39 56 3 8 15
14 26 14 28 0 25 14 -7 36 l-27 17 39 11 c38 11 40 14 47 60 13 95 157 349
207 368 11 4 29 28 40 53 11 26 49 86 84 133 35 48 69 98 76 110 12 22 11 23
-11 17 -20 -6 -18 -2 13 31 65 70 303 413 378 546 44 77 152 192 205 218 105
50 203 217 152 259 -22 18 -61 -3 -133 -72 -106 -100 -211 -240 -428 -566
-111 -168 -242 -360 -290 -426 -103 -140 -299 -433 -373 -556 -58 -96 -96
-139 -124 -139 -10 0 -30 -11 -44 -25 -32 -32 -50 -31 -106 4 -77 49 -142 126
-313 371 -188 268 -230 340 -221 375 5 19 3 23 -9 18 -10 -3 -27 4 -41 18 -32
30 -172 237 -294 434 -111 179 -167 252 -261 339 -130 121 -223 164 -258 122
-28 -34 27 -112 241 -333 195 -204 311 -344 359 -433 18 -34 50 -76 70 -92 21
-17 41 -42 44 -57 3 -14 32 -64 65 -111 33 -47 72 -107 86 -135 15 -27 50 -79
79 -115 85 -106 188 -249 275 -381 74 -114 92 -158 62 -151 -22 4 -70 -27
-144 -94 -90 -81 -151 -124 -176 -124 -25 0 -68 48 -169 190 -46 63 -111 147
-145 186 -76 86 -325 315 -468 433 -143 117 -323 270 -590 505 -321 282 -515
436 -549 436 -8 0 -30 17 -50 38 -20 20 -51 45 -70 55 -28 14 -32 21 -27 42 5
19 3 23 -9 19 -17 -7 -125 41 -192 87 -73 49 -134 111 -128 130 4 13 0 15 -18
12 -30 -6 -95 27 -256 129 -256 162 -740 375 -1006 442 -316 79 -1050 198
-1208 195 -34 -1 -125 -7 -202 -15z m538 -114 c199 -14 479 -56 615 -91 279
-73 763 -250 848 -311 24 -17 56 -33 70 -34 59 -6 275 -133 499 -294 72 -51
149 -102 173 -113 32 -16 42 -27 42 -45 0 -17 9 -26 38 -38 68 -26 87 -39 90
-62 3 -17 8 -21 21 -17 29 9 70 -12 127 -64 29 -27 65 -52 80 -55 47 -12 199
-123 310 -227 59 -54 112 -99 119 -99 15 0 145 -111 303 -260 67 -63 144 -127
170 -143 66 -41 210 -168 393 -345 178 -172 295 -304 324 -365 12 -24 28 -43
40 -45 47 -9 175 -168 175 -219 0 -30 21 -72 71 -142 39 -54 48 -81 29 -81 -6
0 -45 18 -87 40 -42 22 -78 39 -80 37 -11 -12 18 -44 91 -96 154 -112 155
-138 4 -76 -14 5 -18 2 -18 -12 0 -25 29 -54 101 -101 30 -20 71 -50 90 -65
l34 -28 -45 6 c-78 12 -191 44 -244 69 -110 51 -327 271 -549 556 -67 85 -179
223 -250 305 -149 172 -190 231 -181 258 5 16 3 17 -15 8 -27 -15 -64 4 -138
71 -72 65 -188 139 -342 219 -68 35 -141 81 -162 101 -23 23 -44 35 -53 32 -9
-3 -39 5 -68 19 -29 14 -118 45 -198 70 -163 50 -214 70 -235 91 -9 8 -37 18
-63 21 -26 4 -99 15 -163 26 -125 20 -229 25 -229 9 0 -10 63 -30 97 -30 60 0
447 -132 748 -254 276 -113 410 -184 520 -276 55 -46 136 -115 181 -152 147
-123 461 -469 471 -521 10 -50 392 -459 484 -519 51 -33 123 -127 136 -176 5
-21 -1 -31 -33 -59 l-39 -33 54 0 c44 0 64 -6 103 -31 27 -18 70 -36 96 -41
26 -4 53 -14 60 -22 24 -24 -18 -36 -156 -46 -86 -5 -148 -15 -192 -30 -134
-46 -449 -207 -481 -247 -31 -37 74 2 378 141 160 73 283 101 283 63 0 -7 -11
-29 -25 -50 -30 -43 -23 -46 54 -16 60 22 81 20 81 -11 0 -24 -41 -52 -123
-82 -31 -11 -56 -22 -54 -24 2 -2 33 1 70 7 119 19 120 17 39 -86 -39 -49 -88
-123 -108 -165 -122 -242 -478 -426 -1054 -544 -69 -14 -292 -48 -495 -75
-403 -55 -735 -103 -1257 -181 -447 -66 -559 -74 -1033 -67 -437 6 -520 14
-720 63 -201 50 -235 62 -235 85 0 14 -7 19 -29 19 -41 0 -115 62 -208 173
-144 173 -228 320 -243 426 -7 53 -22 101 -106 336 -22 62 -25 83 -22 180 3
98 5 111 23 120 41 21 26 112 -31 193 -92 128 -102 254 -34 437 26 71 24 88
-31 203 -52 112 -58 161 -29 230 38 88 127 148 156 106 27 -38 36 -44 102 -64
153 -46 459 -78 477 -51 8 14 -50 28 -185 47 -312 43 -495 127 -559 256 -35
70 -37 84 -15 109 14 16 13 21 -6 59 -23 45 -23 48 13 162 15 45 15 47 -11 95
-24 44 -27 58 -27 158 0 99 2 113 22 139 21 27 22 30 7 64 -8 21 -21 47 -29
58 -32 50 -55 143 -55 226 0 93 19 146 65 188 24 23 34 25 108 23 129 -3 425
-51 1082 -177 187 -35 356 -65 375 -66 59 -3 80 0 80 11 0 17 -61 37 -150 49
-47 6 -213 40 -370 75 -360 80 -612 130 -765 150 -181 24 -225 34 -281 66 -28
16 -62 29 -76 29 -25 0 -56 27 -77 67 -9 18 -8 24 10 37 19 13 21 24 20 78 -2
101 33 141 144 165 56 11 56 43 1 61 -50 16 -63 27 -86 71 -17 34 -24 65 -21
103 2 37 95 97 153 99 18 1 60 -4 93 -10 69 -13 334 -15 353 -2 18 11 0 24
-63 46 -52 17 -75 31 -75 46 0 28 149 63 335 78 157 12 222 12 378 1z m10337
-9 c25 -6 133 -10 240 -11 272 -1 384 -23 423 -84 12 -18 37 -31 85 -45 85
-26 115 -56 147 -147 32 -89 33 -139 3 -155 -13 -7 -109 -15 -237 -20 -216 -8
-311 -17 -491 -44 -411 -62 -777 -161 -1115 -300 -107 -44 -156 -59 -206 -63
-42 -3 -69 -1 -73 6 -14 23 150 122 203 122 17 0 35 6 40 13 6 6 22 26 36 43
13 17 37 34 53 37 15 3 99 53 187 110 88 58 171 108 185 112 14 4 42 20 63 37
55 43 103 60 148 53 34 -6 37 -5 32 14 -4 16 5 27 43 51 84 53 246 97 494 136
58 9 111 19 119 23 24 14 -127 20 -222 10 -257 -28 -498 -130 -929 -392 -111
-68 -268 -163 -348 -210 -80 -46 -165 -104 -189 -127 -37 -36 -42 -46 -39 -76
5 -39 -2 -43 -20 -14 -7 11 -21 20 -31 20 -56 0 -267 -186 -437 -386 -57 -67
-117 -134 -134 -147 -32 -27 -33 -28 -302 -116 -211 -69 -462 -166 -623 -241
-61 -28 -124 -52 -142 -53 -19 -2 -44 -14 -60 -29 -15 -14 -75 -59 -133 -98
-206 -143 -299 -220 -610 -509 -85 -79 -172 -155 -192 -168 -22 -13 -38 -31
-38 -42 0 -66 -273 -358 -445 -476 -46 -32 -59 -37 -74 -28 -14 9 -20 7 -30
-9 -32 -52 -188 -83 -217 -43 -14 18 -13 20 6 25 33 8 89 58 136 122 24 33 44
64 44 69 0 25 -35 1 -103 -71 -41 -44 -80 -80 -87 -80 -28 0 23 145 134 375
117 242 230 400 375 520 50 41 74 69 78 88 4 21 50 69 162 172 206 189 246
221 312 255 31 16 103 73 168 134 61 58 118 103 125 100 6 -2 43 27 80 66 37
38 69 70 71 70 2 0 1 -10 -2 -22 -9 -37 74 49 97 99 22 49 107 120 172 143 31
11 44 22 46 38 2 16 10 22 27 22 14 0 49 20 82 48 117 97 231 162 285 162 27
0 29 4 42 62 4 17 16 29 36 37 17 5 88 54 157 107 70 54 164 119 210 146 47
26 110 66 141 88 46 32 71 42 125 49 59 8 81 18 155 67 190 129 603 268 731
248 33 -5 41 -3 50 15 11 19 19 21 100 20 71 -2 97 2 132 19 71 34 370 68 455
53 83 -16 157 -14 180 4 19 15 31 15 114 -4z m850 -527 c17 -4 33 -12 35 -18
2 -6 6 -23 9 -38 4 -19 13 -28 25 -28 36 0 42 -63 11 -103 -33 -42 -94 -57
-330 -82 -638 -68 -1497 -236 -1620 -316 -24 -16 -96 -45 -160 -65 -189 -58
-310 -99 -404 -139 -93 -39 -197 -57 -210 -36 -4 6 4 31 17 54 28 46 94 114
84 85 -11 -30 12 -20 58 27 29 28 45 53 45 69 0 27 16 36 69 36 57 0 151 20
191 40 36 19 60 54 60 90 0 17 7 20 50 20 48 0 76 9 330 103 52 19 118 40 145
45 28 5 115 33 195 60 270 94 751 178 1115 195 131 7 254 7 285 1z m44 -330
c34 -34 12 -276 -35 -383 -27 -61 -24 -75 21 -144 53 -78 51 -107 -5 -123 -48
-13 -54 -32 -24 -80 23 -37 23 -56 2 -233 -4 -40 -2 -55 8 -62 21 -13 17 -239
-6 -299 -20 -53 -32 -238 -18 -290 8 -28 14 -34 31 -32 28 4 28 -10 1 -107
-17 -61 -20 -91 -15 -161 20 -289 22 -256 -18 -357 -20 -51 -36 -100 -36 -109
0 -9 16 -42 35 -74 19 -32 35 -69 35 -82 0 -13 -12 -58 -26 -99 -23 -64 -27
-92 -29 -214 -3 -155 -26 -278 -77 -424 -41 -115 -64 -160 -103 -196 -23 -22
-35 -43 -40 -75 -11 -66 -58 -148 -148 -256 -127 -152 -274 -265 -400 -306
-18 -6 -125 -14 -238 -17 -153 -5 -210 -10 -223 -20 -13 -11 -36 -12 -104 -7
-159 12 -508 55 -659 80 -286 48 -393 58 -888 86 -412 22 -370 19 -788 65
-297 33 -422 53 -570 90 -477 121 -1082 414 -1301 631 -87 86 -124 162 -133
272 -7 97 -27 89 177 67 289 -32 437 -68 665 -160 284 -115 626 -203 1144
-295 569 -100 802 -120 1413 -120 343 0 654 14 671 29 12 12 -275 21 -683 21
-408 0 -698 12 -885 36 -272 34 -873 145 -1070 197 -49 13 -171 45 -270 71
-133 34 -207 60 -281 96 -183 90 -347 141 -530 165 -76 10 -116 20 -136 35
-34 25 -68 25 -118 0 -88 -45 -130 -3 -67 68 15 16 32 22 64 22 24 0 94 11
155 25 233 53 968 147 1148 148 74 0 201 -13 425 -46 641 -92 828 -96 1355
-26 378 50 497 59 980 69 486 10 627 16 635 30 17 28 -220 44 -535 36 -388 -9
-567 -22 -1055 -80 -277 -33 -467 -46 -673 -46 -324 0 -726 55 -784 107 -11 9
-18 30 -18 50 0 39 -11 41 -99 18 -167 -43 -910 -134 -1378 -168 -74 -6 -89 5
-68 47 26 49 66 90 154 155 55 41 235 213 496 476 483 486 593 586 765 698
160 103 435 238 710 349 150 61 1796 612 1995 668 229 65 354 87 830 145 486
59 593 65 619 39z m-6052 -1790 c139 -58 216 -133 233 -226 6 -29 3 -40 -14
-57 -39 -39 -93 -23 -157 47 l-43 47 -32 -19 c-35 -21 -49 -12 -49 34 0 28
-25 70 -41 70 -6 0 -15 -14 -21 -31 l-11 -31 -16 26 c-8 14 -21 28 -28 30 -19
8 -58 -29 -78 -73 -10 -23 -22 -41 -26 -41 -4 0 -9 28 -11 63 l-3 62 -34 -62
c-44 -83 -90 -96 -91 -27 0 76 189 232 202 167 3 -15 10 -11 38 18 53 56 57
56 182 3z m-262 -417 c0 -19 -21 -37 -42 -37 -18 0 -25 29 -11 43 12 12 53 7
53 -6z m328 -36 c-2 -28 -8 -37 -25 -39 -14 -2 -27 4 -35 17 -20 32 -28 25
-28 -22 0 -54 13 -71 73 -96 60 -26 61 -48 5 -95 l-43 -35 28 -10 c21 -8 27
-17 27 -40 0 -32 -11 -44 -55 -58 -44 -14 -44 -45 -1 -78 25 -19 36 -35 36
-53 0 -32 -27 -62 -56 -62 -20 0 -54 -23 -54 -36 0 -18 35 -66 62 -85 35 -24
58 -48 58 -61 0 -16 -37 -7 -70 17 -43 32 -58 20 -42 -33 7 -22 19 -45 27 -52
20 -17 19 -56 -1 -64 -24 -9 -28 -1 -14 26 10 19 6 17 -21 -9 l-33 -33 47 -48
c26 -26 47 -51 47 -56 0 -4 -11 -17 -25 -28 -52 -41 -17 -89 70 -96 30 -2 55
-8 55 -11 0 -10 -60 -70 -81 -82 -15 -7 -23 -3 -40 21 -28 37 -39 25 -39 -45
0 -80 -1 -80 -130 -62 -62 9 -129 24 -149 34 -45 22 -52 53 -17 77 38 24 32
50 -24 98 -27 24 -50 50 -50 58 0 8 16 25 35 38 19 12 35 28 35 35 0 8 -18 28
-40 46 -22 17 -40 38 -40 45 0 7 37 30 82 52 45 21 84 44 85 49 2 6 -20 23
-47 38 -28 16 -50 35 -50 44 0 8 19 37 41 65 24 28 38 53 33 57 -5 5 -26 14
-46 20 -52 17 -88 48 -88 76 0 24 6 28 67 40 46 9 97 59 90 87 -4 12 1 32 12
47 27 38 33 65 22 95 -9 22 -6 31 21 61 l31 36 -33 28 -34 28 28 7 c21 5 26
11 21 26 -8 24 20 40 72 41 21 0 67 6 103 13 88 17 102 13 98 -33z m332 -271
c0 -13 -81 -102 -87 -96 -3 2 3 16 11 30 9 14 23 37 31 51 15 25 45 35 45 15z
m-969 -100 c21 -12 25 -40 8 -57 -8 -8 -23 -8 -57 2 -53 16 -67 28 -59 49 7
19 77 22 108 6z m940 -729 c24 -15 77 -63 118 -105 40 -41 77 -74 81 -71 5 3
44 -13 88 -36 88 -45 172 -117 172 -148 0 -31 32 -42 155 -51 115 -9 147 -18
175 -52 9 -11 36 -22 68 -27 69 -11 85 -26 54 -51 -31 -26 -112 -34 -208 -21
-188 26 -344 91 -344 143 0 24 -12 23 -39 -6 -30 -32 -125 -74 -208 -91 -86
-18 -101 -18 -137 0 -24 13 -31 13 -37 3 -19 -30 23 -88 64 -88 11 0 88 16
171 36 169 40 176 40 326 -6 126 -40 205 -48 386 -42 145 4 152 4 163 -16 6
-11 25 -22 46 -26 19 -4 86 -30 147 -57 168 -76 323 -110 356 -77 16 16 15 60
-2 83 -17 24 -46 14 -39 -14 4 -16 -1 -22 -22 -27 -64 -16 -209 17 -252 58
-24 22 -31 62 -13 73 10 6 495 -34 720 -60 69 -8 231 -21 360 -29 617 -41 798
-58 845 -83 18 -9 52 -15 85 -14 30 1 137 -10 237 -24 280 -39 444 -54 748
-65 394 -15 558 -27 597 -43 41 -18 72 -51 93 -100 9 -22 30 -46 53 -61 28
-17 42 -35 51 -66 9 -30 22 -47 47 -62 30 -17 35 -25 32 -51 -3 -26 1 -32 28
-41 40 -15 91 -52 105 -78 9 -17 6 -25 -15 -47 -14 -15 -26 -39 -26 -53 0 -35
44 -86 83 -96 111 -29 261 -628 187 -750 -11 -17 -24 -32 -30 -32 -18 0 -50
-63 -50 -98 0 -24 9 -43 35 -69 30 -31 35 -43 35 -82 0 -90 -57 -245 -153
-414 -68 -121 -147 -214 -213 -253 -48 -28 -64 -50 -64 -84 0 -36 -55 -129
-146 -245 -101 -128 -155 -208 -247 -361 -86 -143 -166 -248 -274 -357 -100
-100 -169 -150 -247 -177 -99 -34 -157 -81 -346 -284 -100 -107 -213 -219
-250 -249 -61 -49 -75 -55 -156 -71 -121 -23 -220 -72 -278 -137 -25 -28 -43
-56 -40 -61 4 -5 -10 -24 -31 -41 -20 -16 -45 -50 -56 -73 -13 -31 -25 -45
-44 -49 -14 -3 -37 -8 -52 -11 -14 -3 -44 -21 -66 -40 -81 -69 -217 -99 -417
-92 -155 6 -198 21 -352 125 -62 41 -130 82 -152 89 -22 8 -103 19 -181 24
-151 10 -183 18 -259 62 -26 16 -77 42 -111 57 -117 53 -321 289 -416 481 -39
79 -101 146 -201 217 -224 158 -337 335 -548 863 -56 140 -126 307 -155 370
-173 378 -255 762 -255 1195 0 223 7 324 39 580 39 309 45 446 46 1008 0 530
1 549 20 563 29 22 67 17 116 -15z m-941 -33 c30 -50 27 -143 -9 -248 -16 -47
-32 -114 -36 -150 -4 -36 -16 -83 -28 -105 -20 -37 -22 -54 -22 -235 1 -239
19 -386 100 -792 153 -769 142 -1071 -59 -1663 -178 -527 -309 -794 -507
-1040 -97 -120 -231 -248 -322 -309 -103 -67 -153 -121 -254 -272 -273 -406
-478 -544 -769 -514 -115 12 -148 3 -274 -74 -57 -34 -105 -56 -123 -56 -18 0
-36 -8 -47 -22 -18 -22 -23 -23 -212 -23 l-193 0 -155 69 c-170 75 -246 121
-331 201 -30 29 -81 69 -113 90 -80 51 -369 185 -399 185 -65 0 -299 208 -395
351 -61 92 -121 147 -236 217 -219 134 -416 349 -416 454 0 12 -30 67 -67 124
-38 56 -79 121 -92 143 -14 22 -48 56 -76 75 -90 59 -189 240 -206 377 -12 94
-19 105 -75 114 -73 11 -91 21 -121 67 -42 67 -141 292 -184 418 -48 143 -50
188 -9 265 35 67 36 74 11 117 -55 97 -54 247 4 409 20 57 42 126 48 153 9 45
15 52 73 88 68 43 84 70 84 142 0 53 38 132 84 175 20 19 36 44 36 56 0 27 98
147 248 304 l118 124 104 -36 c179 -61 284 -71 750 -72 461 0 471 1 1010 91
407 67 555 86 972 124 183 16 410 37 503 47 224 24 276 23 350 -6 46 -18 86
-25 170 -29 126 -5 208 11 277 54 53 33 53 33 46 40 -3 3 -44 -7 -90 -21 -88
-27 -188 -32 -195 -8 -5 14 66 57 158 94 117 48 123 47 232 -9 53 -28 117 -65
143 -82 41 -29 52 -32 102 -28 60 5 177 47 227 82 l30 21 -30 6 c-17 4 -45 7
-62 8 -27 1 -33 -3 -33 -19 0 -44 -122 -32 -229 22 -110 56 -131 115 -47 129
31 5 55 24 139 111 56 57 123 118 149 136 32 21 54 46 70 79 26 53 70 83 126
83 26 0 36 -7 52 -32z m450 -304 c65 -19 121 -46 140 -69 12 -14 5 -25 -56
-86 l-68 -69 67 0 c37 0 67 -3 67 -6 0 -3 -9 -19 -21 -35 -11 -16 -18 -36 -15
-44 9 -24 61 -18 95 11 17 14 31 22 31 18 0 -15 -54 -100 -83 -131 -53 -56
-12 -86 53 -38 41 30 58 20 37 -21 -20 -38 -103 -118 -145 -138 -28 -14 -31
-19 -22 -36 7 -12 21 -20 37 -20 26 0 26 -1 19 -57 l-7 -58 59 63 c32 34 61
62 65 62 15 0 5 -22 -46 -97 -70 -101 -87 -135 -87 -173 0 -36 18 -39 66 -9
39 24 40 20 19 -60 -48 -185 -50 -230 -47 -887 4 -688 1 -726 -55 -896 -45
-137 -89 -213 -122 -213 -39 0 -36 23 8 63 l41 38 -67 11 c-82 14 -113 43
-140 130 -15 48 -18 95 -17 263 0 206 9 267 36 258 7 -3 17 -21 23 -41 13 -46
31 -65 46 -50 8 8 8 28 0 75 -6 36 -11 83 -11 105 0 58 -18 103 -47 114 -38
14 -50 59 -83 305 -35 268 -38 282 -96 523 -25 101 -44 195 -42 208 l3 23 36
-25 c19 -14 50 -27 68 -30 48 -6 82 -56 121 -180 16 -53 20 -83 15 -122 -5
-38 -1 -73 14 -128 26 -92 26 -113 4 -138 -33 -36 -27 -257 7 -257 5 0 14 8
19 19 14 26 34 361 29 484 -4 90 -9 111 -40 182 -36 79 -52 125 -83 238 -8 31
-19 57 -23 57 -4 -1 -18 -24 -32 -53 -32 -66 -60 -71 -72 -13 -5 21 -25 61
-45 88 -35 49 -89 175 -78 186 3 3 23 -9 44 -26 89 -72 135 -66 78 9 -47 61
-57 83 -57 119 0 27 3 30 19 25 28 -9 51 40 51 107 0 49 -3 55 -41 90 -61 56
-30 79 51 38 61 -31 70 -27 70 26 0 37 6 53 30 81 17 18 30 42 30 53 0 35 -22
69 -52 79 -25 9 -29 15 -26 43 2 28 8 34 33 38 36 7 119 -5 195 -26z m1674
-245 c26 -21 34 -53 16 -64 -6 -3 -14 5 -20 20 -6 16 -26 33 -52 45 l-43 19
36 0 c22 1 46 -7 63 -20z"/>
<path d="M1960 9725 c-21 -26 -7 -48 43 -66 26 -10 67 -33 90 -52 52 -42 80
-57 107 -57 47 0 323 -158 410 -235 26 -23 60 -45 76 -49 33 -9 137 -81 174
-121 22 -24 23 -27 5 -23 -30 5 -30 -26 0 -40 14 -7 43 -12 65 -12 47 0 80
-35 80 -86 0 -31 2 -33 29 -28 60 12 185 -84 266 -205 54 -82 65 -92 96 -89
21 3 25 -3 34 -47 13 -63 18 -71 54 -78 17 -4 55 -29 86 -57 30 -27 60 -50 65
-50 21 0 8 40 -32 100 -81 121 -456 489 -608 596 -41 29 -85 64 -97 78 -12 14
-50 39 -83 56 -71 36 -102 64 -94 85 4 9 1 15 -7 15 -27 0 -140 60 -316 166
-215 130 -375 214 -407 214 -13 0 -29 -7 -36 -15z"/>
<path d="M834 9719 c-13 -22 34 -50 129 -78 54 -15 106 -36 117 -46 12 -11 29
-16 45 -13 20 4 29 0 40 -21 22 -43 94 -66 78 -26 -8 23 6 19 120 -35 59 -28
148 -64 199 -81 138 -45 389 -183 597 -326 118 -81 131 -109 50 -106 -52 2
-147 34 -274 91 -124 55 -183 76 -310 108 -55 14 -120 36 -144 50 -28 16 -59
24 -90 24 -25 0 -122 16 -216 35 -233 48 -320 46 -165 -4 36 -11 178 -50 315
-86 413 -109 721 -207 896 -286 100 -45 165 -52 193 -20 17 19 17 21 -12 63
-48 70 -174 183 -234 210 -31 14 -95 49 -143 77 -112 67 -332 177 -460 231
-55 23 -144 62 -197 87 -90 42 -97 48 -100 77 -3 27 -6 30 -28 27 -73 -11
-151 -3 -249 27 -111 34 -146 39 -157 21z"/>
<path d="M490 9422 c29 -17 280 -84 295 -78 8 3 15 16 15 30 0 27 -11 30 -155
41 -44 3 -100 8 -125 11 -29 3 -40 2 -30 -4z"/>
<path d="M2510 8816 c0 -17 73 -66 205 -136 144 -77 205 -117 246 -161 36 -38
80 -52 93 -30 8 12 -60 98 -113 143 -54 46 -257 150 -345 177 -81 25 -86 25
-86 7z"/>
<path d="M2025 8660 c-9 -15 33 -28 138 -44 77 -11 98 -18 120 -40 22 -22 35
-26 84 -26 68 0 285 -24 363 -41 30 -6 81 -22 114 -36 32 -13 65 -22 72 -19
17 7 18 40 2 53 -23 18 -111 42 -277 73 -90 17 -186 40 -215 51 -84 32 -386
54 -401 29z"/>
<path d="M333 8499 c30 -17 219 -56 562 -114 345 -59 509 -92 635 -127 60 -16
375 -128 463 -163 16 -7 18 -4 15 16 -2 18 -20 32 -75 60 -85 42 -335 127
-484 163 -194 47 -1000 176 -1096 176 -31 -1 -35 -3 -20 -11z"/>
<path d="M2325 8005 c28 -23 121 -70 361 -180 235 -109 359 -176 456 -247 38
-27 104 -65 148 -84 106 -44 363 -175 422 -214 26 -17 55 -30 65 -28 61 14
-347 271 -702 444 -334 162 -672 309 -737 320 -32 5 -32 5 -13 -11z"/>
<path d="M315 7955 c50 -41 89 -55 155 -55 35 0 169 -13 299 -30 283 -36 848
-93 911 -93 78 0 155 17 155 32 0 24 -47 30 -312 46 -371 22 -692 54 -1036
105 -76 11 -152 20 -170 20 l-32 -1 30 -24z"/>
<path d="M2050 7835 c0 -19 188 -85 244 -85 16 0 35 -8 42 -17 10 -15 33 -19
144 -22 153 -4 220 4 220 24 0 18 6 17 -301 65 -232 36 -349 48 -349 35z"/>
<path d="M1171 7357 c10 -12 147 -27 701 -77 304 -28 607 -57 673 -66 202 -26
225 -28 225 -16 0 35 -135 60 -530 97 -478 44 -1085 79 -1069 62z"/>
<path d="M3054 7192 c8 -13 133 -54 266 -87 58 -14 113 -28 123 -31 28 -9 20
24 -11 40 -63 32 -392 100 -378 78z"/>
<path d="M3890 7170 c49 -41 151 -100 172 -100 53 0 -20 58 -136 109 -66 29
-78 26 -36 -9z"/>
<path d="M381 7056 c-9 -10 -7 -19 8 -37 15 -19 28 -23 72 -24 71 0 79 24 16
54 -50 24 -80 27 -96 7z"/>
<path d="M4171 7024 c13 -15 89 -69 169 -122 80 -53 189 -129 242 -169 53 -40
108 -78 122 -85 22 -9 26 -18 26 -53 0 -45 12 -55 67 -55 12 0 37 -9 55 -19
32 -19 61 -24 198 -36 l65 -5 -120 59 c-66 32 -176 97 -245 143 -69 46 -197
133 -284 192 -211 143 -357 216 -295 150z"/>
<path d="M1320 6959 c0 -4 405 -73 488 -82 17 -2 32 0 32 4 0 16 -59 49 -106
60 -50 12 -414 28 -414 18z"/>
<path d="M647 6860 c-53 -9 -65 -16 -53 -27 10 -10 426 -10 450 0 15 6 17 10
7 20 -14 14 -331 20 -404 7z"/>
<path d="M2106 6842 c-12 -19 9 -24 231 -56 236 -34 313 -67 270 -114 -17 -19
-17 -20 5 -26 13 -3 66 -6 119 -6 98 0 177 -18 200 -46 18 -22 29 -17 45 21
19 45 19 45 -17 45 -18 0 -45 11 -66 27 -28 22 -47 27 -98 29 -45 1 -81 10
-122 29 -32 15 -78 33 -103 40 -128 39 -451 78 -464 57z"/>
<path d="M3775 6589 c-152 -11 -295 -30 -295 -39 0 -16 235 -22 636 -18 477 5
558 18 343 53 -103 16 -483 19 -684 4z"/>
<path d="M3220 6533 c-44 -16 -80 -36 -80 -45 0 -16 130 -4 173 17 20 9 37 21
37 26 0 10 -105 11 -130 2z"/>
<path d="M5144 6485 c-4 -10 1 -25 15 -38 21 -21 32 -22 236 -25 136 -2 215 0
215 6 0 15 -31 20 -230 42 -99 11 -192 23 -205 26 -18 4 -27 1 -31 -11z"/>
<path d="M2880 6430 c0 -5 16 -10 36 -10 21 0 33 4 29 10 -3 6 -19 10 -36 10
-16 0 -29 -4 -29 -10z"/>
<path d="M2545 6405 c-36 -7 -54 -15 -45 -19 21 -9 232 -2 249 8 41 26 -94 34
-204 11z"/>
<path d="M693 6400 c-125 -11 -184 -45 -107 -61 56 -11 757 21 772 35 11 11
-7 18 -75 27 -79 10 -470 9 -590 -1z"/>
<path d="M1740 6370 c-67 -4 -23 -7 154 -8 137 -1 247 0 245 2 -9 7 -308 12
-399 6z"/>
<path d="M4889 5927 c-45 -24 -60 -55 -24 -49 24 4 95 51 95 63 0 15 -25 10
-71 -14z"/>
<path d="M4362 5840 c-88 -40 -218 -58 -658 -95 -362 -30 -531 -49 -688 -76
-405 -68 139 -37 979 56 435 48 675 89 675 115 0 13 -22 13 -115 -1 -65 -10
-78 -9 -100 5 -30 20 -39 19 -93 -4z"/>
<path d="M2130 5644 c-25 -2 -56 -7 -70 -10 l-25 -6 25 -11 c30 -12 410 -22
475 -13 51 8 58 21 18 30 -34 8 -361 15 -423 10z"/>
<path d="M1445 5625 c-150 -15 -253 -33 -275 -46 -35 -23 482 17 600 45 55 14
55 14 -70 14 -69 0 -183 -6 -255 -13z"/>
<path d="M10410 9666 c-87 -36 -153 -72 -201 -108 -64 -49 -66 -50 -90 -37
-19 10 -21 9 -15 -6 7 -20 -26 -55 -225 -232 -211 -187 -688 -662 -726 -723
-19 -30 -45 -66 -56 -80 -34 -40 119 106 383 366 413 406 606 576 708 621 30
13 87 46 129 74 88 60 148 88 184 89 31 0 54 23 45 45 -8 22 -71 18 -136 -9z"/>
<path d="M12236 8538 c-186 -39 -289 -88 -185 -88 47 0 79 14 79 35 0 12 10
14 54 9 94 -11 260 35 241 66 -9 14 -31 11 -189 -22z"/>
<path d="M11655 8376 c-396 -101 -887 -256 -1103 -347 -215 -91 -222 -135 -8
-50 204 82 630 212 1085 331 280 73 341 95 341 121 0 19 -74 6 -315 -55z"/>
<path d="M12075 7951 c-55 -10 -176 -39 -270 -64 -220 -60 -322 -80 -595 -117
-352 -48 -573 -89 -620 -117 -24 -13 -23 -14 20 -9 25 2 236 32 470 65 423 61
586 90 774 137 158 40 284 64 381 73 88 9 145 26 145 43 0 14 -201 7 -305 -11z"/>
<path d="M10250 7871 c-30 -10 -119 -48 -197 -84 -78 -37 -151 -67 -162 -67
-12 0 -21 -6 -21 -13 0 -21 -27 -41 -121 -90 -186 -97 -592 -390 -645 -466
-27 -38 3 -22 98 52 186 147 505 343 837 514 174 90 281 153 281 166 0 10 -7
9 -70 -12z"/>
<path d="M12467 7413 c-11 -10 -8 -63 3 -63 14 0 24 50 13 61 -5 5 -12 6 -16
2z"/>
<path d="M12075 7368 c-38 -5 -232 -29 -430 -54 -406 -50 -1069 -140 -1147
-154 -88 -17 -68 -23 52 -16 241 14 404 32 1165 130 430 55 571 78 589 96 12
12 -131 11 -229 -2z"/>
<path d="M9800 7059 c-169 -15 -471 -77 -506 -104 -11 -8 -14 -15 -8 -15 19 0
668 111 673 115 2 3 -7 5 -22 5 -14 0 -31 2 -39 4 -7 2 -51 0 -98 -5z"/>
<path d="M8902 6969 c-48 -45 -113 -102 -144 -127 -61 -47 -70 -62 -39 -62 43
0 227 165 265 238 9 18 14 32 11 32 -3 0 -44 -37 -93 -81z"/>
<path d="M11846 6561 c13 -15 220 -67 300 -76 63 -7 86 2 60 24 -35 30 -387
80 -360 52z"/>
<path d="M9710 6302 c0 -9 88 -44 180 -71 75 -22 217 -41 304 -40 l91 0 -135
29 c-74 15 -173 40 -220 55 -93 29 -220 45 -220 27z"/>
<path d="M10710 6191 c-159 -18 160 -46 405 -35 195 9 176 18 -55 28 -80 4
-179 8 -220 10 -41 2 -100 1 -130 -3z"/>
<path d="M11426 6172 c-7 -12 31 -25 139 -46 222 -44 645 -82 645 -58 0 25
-112 45 -430 77 -140 14 -276 28 -301 31 -28 4 -49 2 -53 -4z"/>
<path d="M11322 5682 c-68 -19 2 -53 111 -54 89 -1 130 7 124 25 -8 27 -171
47 -235 29z"/>
<path d="M11920 5610 c0 -6 33 -10 80 -10 47 0 80 4 80 10 0 6 -33 10 -80 10
-47 0 -80 -4 -80 -10z"/>
<path d="M6940 5020 c0 -21 44 -97 145 -250 201 -303 488 -659 962 -1193 169
-190 221 -243 231 -233 13 14 -186 295 -244 345 -123 107 -592 676 -652 791
-10 19 -49 67 -86 105 -37 39 -127 153 -200 254 -123 172 -156 210 -156 181z"/>
<path d="M8653 4866 c12 -76 130 -274 223 -374 41 -44 56 -54 92 -59 33 -4 42
-2 42 9 0 20 -38 53 -80 71 -54 22 -180 190 -242 323 -16 35 -32 64 -35 64 -3
0 -3 -15 0 -34z"/>
<path d="M8870 4842 c0 -19 45 -27 255 -47 183 -17 264 -19 285 -5 22 14 9 20
-76 36 -102 19 -464 31 -464 16z"/>
<path d="M9630 4760 c-25 -4 -35 -8 -22 -8 12 -1 181 -31 375 -66 477 -87 440
-82 435 -60 -11 61 -613 163 -788 134z"/>
<path d="M10612 4632 c-25 -8 -11 -22 23 -22 19 0 35 4 35 9 0 10 -40 19 -58
13z"/>
<path d="M10960 4593 c1 -29 50 -53 106 -53 43 0 43 15 2 40 -32 19 -108 28
-108 13z"/>
<path d="M11418 4450 c18 -11 77 -42 131 -69 223 -112 352 -156 310 -104 -18
21 -173 93 -321 149 -127 48 -175 57 -120 24z"/>
<path d="M9360 4371 c-25 -3 -40 -9 -34 -13 7 -4 82 -19 168 -33 269 -43 658
-126 706 -150 14 -7 102 -40 196 -73 202 -72 766 -288 943 -361 68 -28 125
-51 127 -51 2 0 4 11 4 23 0 17 -10 29 -32 40 -52 26 -449 193 -493 207 -22 7
-157 57 -301 111 -291 109 -454 161 -684 219 -264 66 -491 97 -600 81z"/>
<path d="M7111 4274 c-3 -105 153 -1066 188 -1155 8 -21 10 -22 16 -7 11 27
-157 1051 -189 1158 l-14 45 -1 -41z"/>
<path d="M9152 4223 c10 -94 68 -209 102 -202 14 4 13 9 -9 40 -17 23 -29 58
-35 98 -14 101 -68 160 -58 64z"/>
<path d="M9310 3793 c0 -5 5 -35 10 -68 5 -34 14 -132 18 -218 9 -151 13 -179
29 -163 13 12 16 198 5 287 -11 87 -37 169 -53 169 -5 0 -9 -3 -9 -7z"/>
<path d="M10541 3580 c-21 -12 53 -64 207 -146 79 -42 162 -93 185 -112 51
-43 95 -62 142 -62 45 0 44 10 -5 37 -21 13 -67 46 -101 75 -91 75 -158 118
-185 118 -12 0 -58 19 -101 41 -90 48 -125 60 -142 49z"/>
<path d="M11700 3581 c0 -28 500 -364 517 -348 12 12 -8 37 -64 82 -151 121
-453 297 -453 266z"/>
<path d="M9571 3454 c35 -38 130 -101 204 -136 60 -28 85 -30 85 -7 0 20 -261
169 -297 169 -13 0 -12 -5 8 -26z"/>
<path d="M8427 3279 c11 -11 514 -209 585 -231 73 -22 86 12 19 50 -59 33
-368 152 -450 173 -83 21 -172 26 -154 8z"/>
<path d="M9150 3161 c-14 -26 -13 -44 4 -66 13 -18 16 -18 72 -2 33 9 78 21
102 27 48 12 56 35 16 50 -14 6 -61 10 -104 10 -68 0 -81 -3 -90 -19z"/>
<path d="M10030 3163 c0 -14 69 -76 125 -113 28 -19 85 -60 127 -92 78 -59
124 -85 133 -76 14 14 -16 45 -104 112 -166 126 -281 195 -281 169z"/>
<path d="M11250 3133 c0 -18 261 -263 356 -335 145 -109 3 52 -181 206 -122
103 -175 142 -175 129z"/>
<path d="M7290 2999 c0 -116 87 -702 129 -869 32 -128 83 -295 92 -305 18 -18
9 71 -22 215 -91 433 -111 541 -134 729 -26 212 -41 291 -56 291 -5 0 -9 -27
-9 -61z"/>
<path d="M9541 2978 c139 -165 664 -697 676 -684 20 20 -669 735 -710 736 -5
0 11 -23 34 -52z"/>
<path d="M7911 2929 c-1 -14 20 -100 46 -190 31 -111 47 -184 47 -226 1 -51 4
-63 17 -63 26 0 36 -19 59 -108 37 -149 369 -1302 420 -1463 53 -167 117 -329
130 -329 17 0 -22 148 -179 663 -28 92 -62 213 -76 267 -13 55 -43 152 -65
216 -23 63 -48 148 -55 187 -23 118 -110 406 -230 757 -85 250 -113 322 -114
289z"/>
<path d="M10530 2802 c0 -14 131 -135 173 -161 68 -42 58 1 -15 61 -58 47
-158 111 -158 100z"/>
<path d="M10940 2473 c0 -4 57 -71 126 -148 146 -162 202 -233 233 -292 27
-54 46 -57 38 -6 -9 56 -89 165 -207 284 -104 105 -190 178 -190 162z"/>
<path d="M9167 2223 c8 -24 56 -96 184 -278 234 -331 493 -748 629 -1010 102
-196 145 -265 165 -265 20 0 20 -2 -20 96 -106 256 -410 775 -570 974 -135
166 -287 395 -290 434 -1 13 -16 29 -41 43 -48 28 -66 29 -57 6z"/>
<path d="M8881 1803 c40 -47 59 -59 59 -39 0 13 -70 76 -85 76 -4 0 8 -17 26
-37z"/>
<path d="M10512 1818 c104 -158 131 -204 154 -256 43 -100 62 -72 23 33 -41
110 -108 202 -170 236 -23 12 -23 12 -7 -13z"/>
<path d="M7540 1668 c0 -32 3 -39 10 -28 13 20 13 70 0 70 -5 0 -10 -19 -10
-42z"/>
<path d="M9022 1504 c9 -69 78 -205 78 -155 0 28 -52 171 -67 182 -15 13 -16
10 -11 -27z"/>
<path d="M9120 1266 c0 -49 139 -296 167 -296 18 0 -7 65 -69 176 -54 99 -98
152 -98 120z"/>
<path d="M9415 683 c10 -74 35 -166 51 -190 16 -25 44 -31 44 -9 0 43 -79 246
-96 246 -4 0 -3 -21 1 -47z"/>
<path d="M5553 4928 c-39 -46 -136 -171 -216 -279 -80 -107 -190 -246 -244
-308 -90 -103 -149 -172 -235 -275 -18 -22 -96 -96 -173 -164 -77 -69 -203
-182 -280 -252 -229 -208 -252 -221 -532 -295 -95 -25 -208 -56 -250 -70 -119
-37 -159 -41 -184 -19 -55 49 -369 -9 -369 -68 0 -18 111 -3 179 25 l63 25 66
-35 c36 -19 80 -35 97 -35 16 0 89 22 160 50 150 57 260 87 383 103 48 6 99
17 113 25 77 39 396 324 684 610 298 296 386 400 573 672 197 286 246 362 239
368 -3 3 -36 -32 -74 -78z"/>
<path d="M4233 4963 c-15 -5 -17 -39 -4 -47 5 -3 20 3 32 14 21 17 22 21 9 30
-16 11 -19 11 -37 3z"/>
<path d="M4039 4873 c-27 -23 -42 -27 -95 -28 -50 -1 -71 -7 -103 -28 -59 -40
-53 -51 24 -45 115 10 272 82 251 116 -12 20 -43 14 -77 -15z"/>
<path d="M3660 4743 c0 -30 -45 -113 -124 -232 -42 -63 -76 -119 -76 -125 0
-16 64 49 171 174 59 69 99 124 99 137 0 12 -12 31 -26 42 -33 26 -44 26 -44
4z"/>
<path d="M3440 4720 c0 -5 16 -10 35 -10 19 0 35 5 35 10 0 6 -16 10 -35 10
-19 0 -35 -4 -35 -10z"/>
<path d="M3160 4693 c-14 -2 -108 -15 -210 -29 -420 -58 -683 -132 -1085 -306
-234 -101 -572 -285 -619 -337 -11 -12 -15 -21 -11 -21 5 0 142 65 304 144
607 296 856 379 1368 456 317 48 402 68 388 91 -6 9 -84 10 -135 2z"/>
<path d="M5652 4363 c-6 -43 -14 -112 -17 -153 -15 -194 -40 -357 -101 -663
-53 -267 -71 -382 -64 -403 10 -28 31 51 84 318 25 125 52 255 61 288 40 156
84 690 56 690 -5 0 -13 -35 -19 -77z"/>
<path d="M3355 4296 c-29 -50 -44 -116 -26 -116 19 0 81 115 81 151 0 25 -32
4 -55 -35z"/>
<path d="M3097 4234 c-48 -13 -136 -42 -195 -65 -123 -47 -502 -229 -502 -240
0 -10 29 0 310 114 129 52 282 110 340 127 120 37 183 66 175 80 -9 14 -29 12
-128 -16z"/>
<path d="M3261 3948 c-32 -100 -70 -259 -76 -324 -6 -59 -6 -59 11 -30 33 58
112 416 91 416 -3 0 -15 -28 -26 -62z"/>
<path d="M2058 3746 c-343 -206 -522 -353 -971 -796 -265 -261 -301 -300 -275
-300 19 0 101 73 413 365 380 356 481 443 615 532 63 42 140 92 170 112 63 42
168 137 160 145 -4 3 -54 -23 -112 -58z"/>
<path d="M775 3753 c-69 -35 -123 -79 -141 -115 -9 -16 -13 -32 -11 -35 11
-11 207 109 247 152 l23 25 -34 0 c-19 -1 -56 -13 -84 -27z"/>
<path d="M4882 3259 c-7 -19 -62 -171 -123 -337 -60 -167 -181 -487 -268 -710
-87 -224 -162 -418 -166 -432 l-7 -25 17 23 c93 127 434 1008 545 1405 23 83
24 133 2 76z"/>
<path d="M2853 3120 c-90 -78 -213 -211 -213 -230 0 -18 18 -11 75 29 31 22
79 48 107 58 53 19 69 36 49 56 -19 19 -13 32 44 96 30 34 55 64 55 66 0 19
-39 -6 -117 -75z"/>
<path d="M3429 3110 c-9 -14 -41 -72 -71 -130 -31 -58 -99 -175 -152 -260 -95
-151 -116 -194 -101 -208 10 -10 41 32 145 200 140 229 202 351 198 390 l-3
33 -16 -25z"/>
<path d="M2514 2779 c-123 -107 -434 -402 -563 -533 -177 -181 -167 -193 29
-33 82 68 550 534 591 590 31 42 8 32 -57 -24z"/>
<path d="M1505 2598 c-173 -174 -345 -384 -345 -420 0 -27 39 4 111 90 46 53
139 158 206 232 123 136 182 208 183 223 1 23 -37 -7 -155 -125z"/>
<path d="M5330 2567 c0 -2 -12 -37 -26 -78 -40 -112 -150 -459 -190 -594 -19
-66 -37 -129 -40 -140 -4 -13 -3 -17 4 -10 25 26 272 761 272 811 0 8 -4 14
-10 14 -5 0 -10 -1 -10 -3z"/>
<path d="M3873 2438 c-55 -62 -162 -273 -146 -289 7 -7 18 -1 32 19 48 68 153
292 136 292 -1 0 -11 -10 -22 -22z"/>
<path d="M2952 2393 c-35 -45 -92 -137 -92 -148 0 -5 14 4 31 21 32 29 109
140 109 156 0 18 -20 6 -48 -29z"/>
<path d="M2689 2042 c-83 -88 -269 -317 -322 -397 -19 -28 -24 -42 -16 -50 14
-14 59 38 224 255 129 172 161 218 153 226 -3 2 -20 -13 -39 -34z"/>
<path d="M3663 2057 c-67 -71 -315 -557 -285 -557 23 0 324 561 309 576 -2 2
-13 -6 -24 -19z"/>
<path d="M5021 1590 c-37 -83 -55 -153 -38 -147 14 4 72 136 82 185 11 55 -11
36 -44 -38z"/>
<path d="M4232 1543 c-55 -107 -167 -349 -271 -588 -106 -243 -115 -264 -109
-270 6 -6 185 354 298 600 86 188 138 321 128 331 -3 2 -24 -30 -46 -73z"/>
<path d="M2253 1506 c-26 -25 -43 -46 -37 -46 17 0 100 77 92 85 -4 4 -28 -13
-55 -39z"/>
<path d="M3224 1233 c-118 -182 -218 -377 -212 -415 2 -19 11 -11 47 47 46 72
188 341 216 408 25 60 3 43 -51 -40z"/>
</g>
</svg>
