<?xml version="1.0" standalone="no"?>
<!DOCTYPE svg PUBLIC "-//W3C//DTD SVG 20010904//EN"
 "http://www.w3.org/TR/2001/REC-SVG-20010904/DTD/svg10.dtd">
<svg version="1.0" xmlns="http://www.w3.org/2000/svg"
 width="1064.000000pt" height="1280.000000pt" viewBox="0 0 1064.000000 1280.000000"
 preserveAspectRatio="xMidYMid meet">
<metadata>
Created by potrace 1.15, written by Peter Selinger 2001-2017
</metadata>
<g transform="translate(0.000000,1280.000000) scale(0.100000,-0.100000)"
fill="#000000" stroke="none">
<path d="M6263 12765 c3 -11 15 -57 27 -102 21 -86 59 -192 180 -502 151 -390
181 -634 111 -901 -11 -41 -18 -76 -16 -78 2 -2 53 -21 114 -43 62 -21 124
-45 139 -53 32 -16 112 -94 112 -107 0 -5 -37 -69 -81 -142 -233 -379 -307
-616 -268 -857 l12 -68 148 -122 c82 -67 149 -126 149 -131 0 -13 -107 -96
-179 -139 -36 -22 -139 -73 -229 -114 -197 -91 -285 -141 -375 -213 -67 -54
-135 -131 -163 -185 -8 -15 -18 -28 -23 -28 -13 0 -76 145 -119 276 -22 65
-68 243 -102 394 -33 151 -65 292 -71 313 l-10 37 -90 0 c-209 0 -387 -66
-749 -277 -372 -217 -515 -275 -725 -297 -67 -7 -157 3 -320 33 -348 66 -605
185 -798 371 l-84 80 -41 -103 c-23 -56 -42 -105 -42 -108 0 -10 294 -148 405
-190 319 -119 679 -179 990 -165 77 4 157 9 177 13 l38 6 0 -62 c0 -33 3 -61
7 -61 13 0 312 159 413 220 144 88 351 226 488 327 88 66 117 82 123 72 12
-18 55 -158 74 -240 28 -123 54 -333 79 -644 29 -344 37 -422 68 -606 l20
-126 -36 -66 c-142 -253 -170 -562 -69 -748 29 -54 26 -69 -23 -123 l-36 -38
-60 12 c-79 17 -186 69 -270 131 -37 28 -158 145 -269 260 -216 224 -286 284
-389 333 -60 29 -72 31 -170 30 -155 -1 -162 -5 -347 -195 -308 -316 -601
-532 -985 -725 -471 -237 -1026 -389 -1638 -449 -140 -14 -474 -35 -554 -35
l-38 0 56 -60 c61 -66 75 -99 59 -141 l-11 -27 47 34 c173 123 372 172 791
194 427 22 517 36 590 91 112 84 290 170 473 228 54 17 218 63 364 101 147 39
314 86 372 106 223 76 432 206 548 341 62 71 155 216 179 278 15 42 18 44 48
38 58 -10 157 -64 228 -124 39 -33 147 -137 239 -233 258 -266 392 -346 584
-346 70 0 71 0 114 -44 29 -30 41 -49 35 -58 -72 -120 -259 -252 -424 -297
-193 -54 -384 -50 -867 19 -365 52 -572 67 -730 52 -101 -10 -297 -50 -307
-63 -1 -2 -24 -62 -51 -134 -247 -668 -625 -1299 -1101 -1835 -112 -127 -394
-407 -519 -515 -44 -39 -118 -105 -164 -147 -196 -182 -403 -293 -881 -473
-182 -68 -272 -104 -402 -159 l-37 -16 41 -120 c23 -66 45 -120 48 -120 4 0
38 27 76 60 170 149 399 278 794 450 355 155 549 259 607 328 73 86 170 190
474 507 163 171 340 360 393 420 204 231 387 498 484 705 88 188 159 445 178
640 6 74 7 76 56 121 101 94 232 133 381 111 46 -7 164 -35 263 -62 259 -73
327 -80 522 -52 249 35 420 43 848 40 l400 -3 -13 -80 c-18 -108 -62 -198
-116 -233 -38 -25 -48 -27 -152 -27 -106 0 -114 -1 -160 -30 -58 -36 -92 -95
-102 -173 -3 -29 -6 -52 -7 -52 -1 0 -44 10 -96 22 -131 30 -424 32 -545 4
-370 -87 -696 -305 -1081 -723 -102 -111 -617 -720 -686 -812 -45 -59 -250
-693 -327 -1011 -140 -578 -140 -1062 1 -1490 73 -221 241 -526 385 -698 164
-197 367 -364 562 -462 143 -72 375 -107 581 -90 294 26 513 113 1030 407 135
77 257 146 272 154 16 8 70 64 120 125 51 61 178 210 282 330 235 272 336 401
451 574 198 296 284 511 340 850 14 85 50 273 80 417 70 335 92 465 110 633
36 332 0 610 -108 832 -39 80 -62 109 -280 343 l-238 255 43 19 c24 10 68 29
98 41 30 13 59 27 65 32 13 11 -6 77 -55 191 -81 190 -74 262 32 339 l28 19
82 -62 c111 -84 281 -257 399 -404 52 -66 196 -259 319 -430 305 -425 437
-582 648 -776 l93 -86 -76 -84 c-306 -337 -492 -733 -604 -1284 -40 -197 -51
-270 -111 -715 -50 -369 -93 -641 -129 -811 -20 -98 -24 -70 79 -644 73 -411
109 -669 110 -790 0 -33 4 -65 8 -72 6 -10 39 -9 150 4 78 9 142 20 142 23 0
4 -24 58 -54 121 -369 786 -380 1936 -28 2979 147 434 360 841 601 1146 l71
89 0 92 0 93 -609 715 -609 714 -7 138 c-8 141 2 252 27 312 l13 30 65 -51
c222 -174 498 -303 767 -358 203 -41 379 -48 600 -24 l61 7 31 -54 c74 -129
103 -257 126 -549 17 -233 21 -266 40 -370 8 -41 19 -205 25 -365 6 -159 17
-411 25 -560 17 -316 19 -839 5 -1022 -24 -291 -69 -542 -142 -788 -24 -80
-34 -94 -95 -133 -23 -15 -43 -29 -43 -32 0 -3 17 -4 38 -2 80 8 162 -32 188
-92 7 -17 13 -24 14 -16 0 21 34 351 74 735 59 558 77 784 91 1165 7 182 -8
578 -30 795 l-14 140 44 45 45 45 -106 605 c-58 333 -108 608 -112 611 -4 4
-133 28 -286 54 -286 47 -447 80 -571 116 -227 66 -432 163 -572 271 -50 38
-53 43 -53 85 0 95 69 160 220 207 212 66 270 115 270 227 0 30 -7 79 -16 108
-18 60 -20 57 96 135 208 139 443 201 970 256 188 20 393 50 472 69 l78 18 36
-43 35 -44 -124 -557 -124 -558 43 -3 42 -3 7 -72 c39 -432 151 -777 353
-1082 74 -112 222 -288 282 -335 l40 -31 55 16 c30 8 55 17 55 19 0 3 -35 29
-77 59 -268 188 -443 451 -511 767 -62 288 -50 593 47 1210 43 268 76 523 85
652 l6 77 -48 15 c-172 57 -379 86 -612 86 -235 0 -420 -25 -585 -78 -33 -11
-61 -19 -63 -17 -1 1 5 58 14 126 12 94 15 171 11 319 -6 218 -20 334 -78 654
-32 176 -38 221 -27 227 7 5 35 9 61 9 38 0 74 -12 160 -52 191 -89 248 -80
403 65 207 194 357 440 503 830 l11 27 57 -39 c110 -74 207 -93 327 -62 100
26 171 66 371 205 261 183 341 224 479 247 133 22 275 -20 411 -124 55 -42 61
-44 78 -30 11 11 17 31 17 64 l0 47 -72 26 c-40 14 -108 32 -150 41 -99 19
-319 20 -429 0 -208 -36 -421 -122 -473 -190 -97 -127 -236 -180 -371 -140
-50 14 -70 28 -126 84 -162 166 -201 245 -299 621 -75 285 -151 432 -279 539
-47 38 -76 53 -142 72 -75 21 -104 24 -264 24 -205 -1 -237 -6 -556 -90 -254
-66 -345 -84 -474 -92 -100 -6 -212 7 -284 32 l-35 12 3 104 c6 252 -52 532
-177 844 -35 90 -69 167 -200 458 -38 86 -60 122 -49 82z"/>
<path d="M9060 6345 c37 -38 40 -40 40 -25 0 15 -46 60 -62 60 -6 0 3 -16 22
-35z"/>
<path d="M9101 6237 c-2 -66 11 -103 41 -112 57 -16 57 -17 51 4 -3 13 2 24
16 33 20 12 19 15 -36 70 -32 32 -60 58 -63 58 -4 0 -8 -24 -9 -53z"/>
</g>
</svg>
