<?xml version="1.0" standalone="no"?>
<!DOCTYPE svg PUBLIC "-//W3C//DTD SVG 20010904//EN"
 "http://www.w3.org/TR/2001/REC-SVG-20010904/DTD/svg10.dtd">
<svg version="1.0" xmlns="http://www.w3.org/2000/svg"
 width="657.000000pt" height="1280.000000pt" viewBox="0 0 657.000000 1280.000000"
 preserveAspectRatio="xMidYMid meet">
<metadata>
Created by potrace 1.15, written by Peter Selinger 2001-2017
</metadata>
<g transform="translate(0.000000,1280.000000) scale(0.100000,-0.100000)"
fill="#000000" stroke="none">
<path d="M430 12780 c-11 -11 -20 -27 -20 -35 0 -26 -23 -65 -42 -70 -10 -4
-23 -15 -29 -26 -8 -16 -5 -26 15 -50 16 -19 26 -43 26 -63 0 -25 13 -47 60
-99 75 -85 94 -120 86 -161 -4 -17 -6 -43 -6 -57 0 -40 58 -160 134 -278 38
-60 66 -116 66 -131 0 -14 38 -102 85 -194 47 -93 85 -177 85 -188 0 -31 56
-129 114 -199 29 -35 61 -79 70 -97 16 -32 16 -35 0 -53 -25 -28 -13 -85 36
-170 48 -81 160 -324 160 -346 0 -24 -49 9 -150 101 -52 47 -99 84 -104 83
-27 -9 -9 -37 84 -131 73 -75 121 -114 173 -142 65 -36 74 -45 104 -102 36
-70 41 -112 17 -136 -23 -24 -55 -19 -107 14 -55 34 -70 37 -65 13 2 -10 26
-33 53 -51 28 -17 52 -37 53 -42 2 -6 -14 -34 -36 -63 -83 -108 -225 -370
-291 -534 -22 -54 -55 -132 -74 -173 -49 -108 -74 -191 -92 -310 -9 -58 -37
-208 -61 -335 -56 -283 -64 -416 -40 -677 9 -97 18 -183 21 -191 7 -17 -11
-32 -47 -41 -53 -12 -29 -46 32 -46 54 0 68 -77 20 -111 -15 -11 -66 -25 -124
-34 -117 -18 -193 -57 -157 -79 5 -3 22 -1 37 4 16 6 89 23 162 39 134 28 134
28 141 7 5 -13 0 -38 -14 -71 l-22 -50 -112 -9 c-139 -11 -146 -30 -12 -33 51
0 94 -3 96 -5 6 -6 -43 -100 -61 -118 -12 -12 -45 -15 -166 -15 -108 0 -152
-3 -155 -12 -9 -25 42 -37 157 -38 63 0 121 -4 127 -8 10 -6 8 -17 -6 -46 -24
-46 -80 -97 -152 -138 -61 -35 -106 -78 -91 -87 5 -3 36 3 67 14 32 11 61 18
63 15 3 -3 -3 -18 -14 -33 -12 -17 -67 -50 -151 -92 -73 -36 -133 -71 -133
-77 0 -22 45 -14 123 22 42 19 91 35 110 35 42 0 122 27 138 47 11 12 10 21
-4 46 -18 30 -18 31 13 91 18 34 54 99 81 146 27 47 65 126 85 175 50 124 136
305 189 395 24 41 48 94 53 117 6 24 23 64 39 90 17 27 42 71 58 98 28 50 92
125 107 125 16 0 7 -52 -17 -100 -14 -27 -36 -78 -50 -115 -13 -36 -53 -123
-89 -193 -70 -140 -149 -320 -160 -367 -4 -16 -18 -52 -31 -80 -40 -86 -75
-174 -75 -187 0 -20 -146 -303 -196 -380 -34 -54 -49 -68 -68 -68 -43 0 -76
18 -76 40 0 26 -17 60 -30 60 -16 0 -40 -57 -40 -92 0 -19 -7 -58 -15 -88 -52
-185 -67 -256 -75 -345 -5 -55 -19 -140 -31 -190 -20 -78 -23 -118 -23 -300
-1 -115 3 -244 8 -285 7 -63 5 -88 -14 -160 -12 -47 -28 -125 -37 -175 -8 -49
-17 -102 -20 -118 -3 -17 3 -47 16 -76 19 -45 20 -58 12 -138 -5 -48 -15 -110
-22 -136 -6 -27 -9 -75 -6 -109 4 -49 -1 -88 -28 -193 -18 -73 -40 -145 -48
-161 -8 -16 -26 -67 -41 -113 -15 -51 -36 -95 -52 -112 -29 -30 -25 -49 11
-49 39 0 55 -11 55 -37 0 -38 28 -82 56 -89 48 -12 90 18 128 94 l35 69 -17
45 c-14 41 -15 60 -4 170 7 67 12 149 12 181 0 53 3 61 41 102 l40 44 -3 223
c-3 198 -5 227 -21 252 -17 25 -23 28 -58 22 -31 -5 -41 -3 -46 9 -12 33 66
421 94 464 15 23 16 24 29 6 8 -10 14 -40 14 -67 0 -73 -29 -259 -47 -300 -8
-20 -13 -44 -10 -52 8 -19 41 -21 55 -4 5 7 20 94 32 193 14 122 31 211 51
277 26 81 29 103 20 130 -5 18 -13 137 -17 263 -7 239 6 500 30 593 l13 47 41
-3 c35 -3 42 0 42 15 1 10 14 42 29 72 26 51 29 53 40 34 6 -12 11 -33 11 -47
0 -33 45 -155 64 -174 26 -26 30 -6 12 60 -10 35 -26 102 -36 150 -10 48 -21
92 -25 97 -7 12 37 102 59 120 23 19 31 8 55 -76 24 -84 43 -119 60 -108 19
11 12 69 -19 161 -17 49 -31 105 -32 124 -1 63 85 294 106 287 6 -2 38 -55 72
-118 33 -63 92 -167 132 -231 39 -65 119 -204 178 -310 58 -106 124 -219 145
-252 22 -32 39 -63 39 -70 0 -16 -67 -129 -121 -203 -24 -33 -73 -109 -109
-169 -80 -133 -192 -253 -300 -324 -69 -45 -101 -77 -219 -219 -75 -91 -145
-177 -154 -191 -25 -36 -22 -60 6 -60 17 0 51 28 113 90 48 50 94 90 101 90
21 0 55 -128 60 -225 5 -85 3 -96 -26 -164 -37 -88 -51 -156 -30 -149 20 7 46
56 60 113 6 28 21 74 32 103 l20 53 43 -73 c24 -40 44 -80 44 -89 0 -21 -54
-152 -80 -194 -23 -37 -26 -65 -7 -65 19 0 41 26 68 80 36 71 58 100 74 94 22
-9 65 -108 65 -152 0 -21 -13 -87 -30 -145 -34 -121 -37 -147 -15 -147 18 0
40 42 49 95 11 60 43 125 61 125 9 0 28 -21 43 -46 15 -25 71 -113 126 -195
l98 -149 -77 -123 c-43 -67 -111 -174 -150 -237 -40 -63 -95 -151 -123 -196
-87 -139 -168 -313 -207 -444 -35 -115 -38 -137 -42 -281 -9 -272 30 -464 146
-739 84 -197 93 -230 111 -380 9 -79 8 -108 -5 -170 -36 -171 -83 -289 -166
-417 -44 -69 -71 -124 -96 -201 -37 -116 -37 -145 2 -182 33 -31 60 -21 49 18
-25 79 2 178 86 317 148 247 194 398 195 635 0 176 -9 208 -105 400 -76 152
-91 196 -120 355 -16 89 -20 154 -20 336 0 220 1 228 25 283 14 31 25 63 25
71 0 34 138 284 232 420 57 83 144 215 192 295 49 80 94 151 100 158 10 10 26
-3 79 -62 111 -123 111 -124 104 -287 -4 -76 -3 -139 2 -139 11 0 29 46 36 93
15 104 16 107 35 107 10 0 31 -16 45 -35 40 -52 56 -116 49 -195 -5 -48 -3
-69 6 -75 19 -12 33 10 45 72 15 75 33 79 77 16 26 -38 32 -56 30 -88 -7 -92
-6 -130 3 -133 5 -2 15 14 22 35 8 21 21 45 29 53 13 13 19 11 51 -24 l36 -39
-7 -83 c-3 -45 -10 -94 -15 -107 -5 -13 -6 -30 -1 -37 13 -21 40 30 55 106 8
36 20 73 26 80 16 20 39 17 39 -3 0 -25 -27 -171 -50 -268 -10 -44 -21 -107
-24 -140 -3 -33 -13 -139 -21 -235 -25 -276 -33 -349 -50 -440 -9 -47 -17
-122 -18 -166 -2 -86 7 -108 49 -124 53 -21 44 -214 -17 -368 -16 -40 -27 -78
-24 -83 4 -5 25 -9 49 -9 23 0 47 -5 54 -12 9 -9 12 -69 12 -210 0 -168 -2
-198 -15 -198 -8 0 -22 11 -31 25 -14 21 -15 46 -9 185 5 113 4 160 -3 160
-19 0 -29 -32 -40 -125 -21 -171 -24 -272 -11 -297 28 -52 27 -87 -7 -290 -27
-159 -34 -229 -34 -334 0 -128 -1 -133 -26 -164 -53 -62 -122 -76 -196 -39
-46 23 -67 15 -49 -20 16 -29 41 -40 109 -47 47 -5 66 -3 100 15 22 11 46 21
52 21 5 0 10 -21 10 -47 1 -103 26 -153 76 -153 25 0 37 14 87 99 30 51 36 56
101 77 75 26 96 39 96 62 0 12 -10 14 -55 8 -85 -10 -85 -10 -121 409 -5 55
-2 85 15 141 18 61 21 97 21 243 0 94 -6 215 -12 269 -21 164 -18 199 22 262
l35 54 0 141 c0 77 -2 169 -5 205 l-5 65 75 11 c84 12 88 19 38 71 -28 29 -29
34 -19 65 10 32 13 98 11 314 -1 73 3 112 16 143 14 37 15 48 4 82 -14 41 -7
67 32 121 9 13 8 25 -7 58 -18 39 -18 43 -2 70 21 35 21 62 1 102 -14 27 -14
39 -4 90 11 48 10 72 0 129 -7 38 -10 72 -7 75 3 4 24 -8 46 -25 49 -39 111
-66 111 -50 0 7 -29 40 -63 73 -82 79 -97 103 -100 163 -4 55 -35 116 -89 173
-59 62 -98 112 -98 126 0 8 10 14 25 14 28 0 33 21 10 40 -13 11 -26 11 -68 1
-46 -10 -54 -10 -77 7 -14 10 -35 34 -47 52 -18 25 -20 36 -12 52 9 16 17 19
43 14 23 -5 37 -2 45 8 22 27 2 36 -80 36 -77 0 -81 1 -110 33 -53 56 -65 77
-48 88 8 5 26 9 40 9 41 0 89 12 89 21 0 17 -39 28 -119 35 l-82 7 -54 66
c-75 90 -72 115 10 86 57 -19 85 -19 85 0 0 22 -33 35 -111 43 -52 5 -75 12
-83 24 -8 14 2 55 47 191 75 226 86 286 93 502 7 188 -3 289 -56 605 -19 109
-19 116 -2 128 26 20 61 25 76 12 8 -6 18 -37 22 -68 7 -65 28 -122 44 -122
19 0 21 25 5 91 -30 127 -28 131 82 236 54 50 101 89 104 85 10 -11 40 -106
69 -222 37 -143 72 -234 180 -461 122 -259 118 -252 233 -424 146 -218 219
-309 306 -377 119 -93 119 -95 66 -206 -50 -105 -60 -148 -41 -177 21 -32 48
-39 89 -21 75 31 145 115 162 194 9 45 40 58 97 44 46 -12 57 -11 154 18 97
29 108 22 117 -81 5 -53 52 -127 93 -150 34 -18 91 -15 115 7 29 26 24 84 -17
185 -21 52 -33 96 -30 107 4 11 25 32 47 48 145 100 339 382 442 641 25 61 66
149 92 195 68 118 133 252 193 401 7 15 15 27 19 27 5 0 40 -32 78 -71 164
-168 249 -234 388 -305 73 -37 150 -79 172 -94 l41 -28 -8 -88 c-14 -162 8
-386 47 -479 14 -35 14 -36 -13 -46 -15 -6 -56 -15 -91 -20 -36 -5 -67 -12
-70 -15 -12 -12 27 -24 77 -24 64 0 67 -14 15 -60 -53 -47 -83 -56 -252 -80
-147 -20 -201 -33 -201 -46 0 -9 183 5 270 22 99 19 110 18 110 -6 0 -22 -142
-215 -170 -230 -10 -5 -53 -10 -94 -10 -58 0 -76 -3 -76 -14 0 -18 22 -26 75
-26 24 0 47 -5 50 -11 9 -14 -53 -115 -91 -148 -27 -24 -43 -29 -110 -34 -44
-3 -96 -12 -116 -21 -21 -9 -54 -16 -75 -16 -51 0 -71 -13 -54 -34 17 -21 36
-20 123 4 40 11 92 20 115 20 62 0 57 -21 -32 -128 -56 -69 -83 -93 -112 -102
-70 -23 -158 -62 -223 -100 -36 -21 -89 -46 -118 -55 -48 -15 -73 -37 -59 -51
10 -11 136 40 227 92 94 54 130 65 130 41 0 -19 -93 -105 -195 -179 -97 -72
-142 -114 -132 -125 4 -3 31 10 60 30 62 43 71 44 91 15 22 -31 20 -87 -4
-148 -28 -70 -27 -106 4 -114 41 -10 38 -33 -9 -86 -25 -28 -45 -54 -45 -59 0
-18 14 -19 42 -5 36 19 45 13 51 -33 5 -44 -11 -90 -42 -117 -11 -11 -21 -28
-21 -39 0 -16 5 -19 30 -14 42 9 39 -10 -9 -82 -64 -94 -68 -149 -5 -74 20 24
35 34 43 28 20 -12 6 -58 -34 -117 -51 -76 -47 -128 5 -73 13 14 28 25 33 25
20 0 -2 -93 -42 -170 -22 -44 -41 -85 -41 -91 0 -6 16 -1 35 11 19 12 39 19
45 15 16 -10 12 -94 -11 -200 -11 -54 -22 -102 -25 -107 -3 -4 -2 -17 1 -28 5
-15 12 -18 35 -13 25 4 30 2 34 -18 12 -55 28 -409 22 -479 -4 -53 -1 -104 10
-166 21 -112 25 -483 7 -559 -12 -47 -25 -194 -40 -438 -7 -130 -14 -139 -81
-114 -55 19 -70 10 -50 -30 9 -19 26 -33 58 -43 63 -21 69 -27 91 -79 22 -51
42 -71 74 -71 25 0 60 34 70 70 4 14 23 52 41 86 39 71 40 82 15 155 -45 131
-70 458 -42 532 6 16 11 60 11 100 0 43 7 89 17 115 15 40 15 58 4 181 -7 75
-17 208 -21 296 -10 185 -25 315 -46 399 -21 82 -16 128 17 143 l26 13 9 287
c17 531 10 699 -37 945 -21 106 -19 162 4 139 7 -7 19 -35 27 -63 9 -28 21
-53 28 -56 20 -6 26 27 11 70 l-13 40 42 40 c24 22 50 38 60 36 32 -6 54 -154
32 -214 -13 -33 -3 -71 13 -55 17 17 22 205 6 269 l-13 54 57 55 c80 77 98 73
152 -32 25 -47 49 -81 59 -83 15 -3 17 1 11 30 -4 18 -25 71 -46 117 -22 48
-37 92 -34 102 4 10 20 30 37 44 35 30 48 24 78 -35 46 -89 78 -66 36 26 -14
31 -26 66 -26 78 0 13 19 40 44 65 57 56 76 51 76 -18 0 -50 15 -76 26 -47 3
9 1 54 -6 102 l-11 87 36 51 c21 28 65 93 98 143 34 51 64 93 67 93 3 0 32
-67 64 -148 33 -81 101 -230 152 -332 111 -223 149 -314 202 -485 89 -289 110
-442 86 -639 -17 -153 -18 -155 -55 -268 -34 -105 -68 -174 -147 -299 -33 -52
-72 -119 -87 -149 -15 -30 -58 -98 -95 -151 -96 -137 -116 -174 -140 -263 -18
-65 -21 -99 -18 -200 3 -119 4 -122 45 -206 53 -105 56 -109 177 -214 111 -97
238 -181 261 -172 42 16 5 61 -153 190 -136 111 -180 164 -222 267 -59 142
-63 167 -44 261 19 93 28 114 94 213 25 39 59 93 75 120 15 28 48 76 72 107
55 72 103 161 197 368 102 226 110 266 101 540 -6 206 -8 222 -47 380 -48 196
-126 424 -173 500 -57 94 -154 307 -221 484 l-64 168 19 27 c10 14 28 35 40
45 22 20 22 20 43 -1 11 -12 26 -43 33 -70 10 -38 15 -44 21 -29 4 11 -1 45
-14 85 -28 86 -28 93 8 155 39 70 65 93 84 77 22 -19 46 -88 54 -159 4 -34 12
-62 17 -62 18 1 5 130 -20 203 -14 39 -25 83 -25 99 0 15 22 66 49 113 26 46
54 106 61 132 16 59 25 71 67 88 18 8 33 19 33 24 0 22 29 10 50 -19 23 -32
93 -74 113 -67 6 2 -6 16 -26 31 -20 15 -58 64 -84 109 -36 61 -84 116 -194
226 -117 116 -163 171 -229 270 -45 69 -98 145 -117 170 -19 25 -32 52 -30 61
3 8 21 74 40 145 20 72 47 163 62 203 14 40 35 113 45 163 14 65 35 119 75
197 81 154 99 169 135 110 41 -67 38 -107 -19 -241 -63 -147 -72 -181 -45
-175 13 2 31 32 59 100 39 95 59 128 76 128 14 0 61 -100 62 -134 1 -43 -12
-205 -24 -303 -11 -79 -7 -123 11 -123 11 0 26 73 44 217 17 125 29 161 51
143 8 -6 19 -26 24 -43 12 -37 55 -261 81 -427 40 -248 91 -534 98 -544 4 -6
7 -128 7 -271 0 -143 4 -290 9 -327 7 -52 5 -92 -9 -174 -16 -89 -17 -115 -7
-163 16 -78 15 -91 -10 -118 -19 -20 -23 -43 -34 -190 -19 -241 -24 -254 -119
-291 -85 -33 -66 -87 22 -63 61 17 69 14 82 -29 15 -49 48 -74 82 -61 32 12
64 49 76 86 8 24 17 31 47 36 63 10 67 25 18 67 l-42 37 -26 155 c-14 85 -26
185 -27 222 -1 60 2 72 31 111 33 47 35 54 53 239 8 88 8 129 0 163 -9 38 -8
51 9 96 19 47 20 60 10 152 -6 56 -15 129 -20 162 -14 85 -12 135 6 170 20 39
20 102 -1 151 -37 87 -56 154 -71 249 -16 106 -34 178 -55 217 -18 33 -78 261
-89 338 -5 36 -16 85 -24 109 -26 72 -16 131 22 131 10 0 26 6 36 13 15 11 12
20 -45 102 -70 100 -102 166 -93 188 5 15 43 28 74 25 33 -3 50 3 50 17 0 14
-11 18 -81 30 -21 3 -49 15 -63 26 -36 29 -68 94 -64 132 3 32 4 32 58 32 30
0 65 -4 77 -8 17 -6 23 -5 23 6 0 24 -33 45 -95 62 -87 22 -112 34 -130 62
-37 55 7 102 75 82 54 -16 60 -6 22 34 -38 40 -41 73 -12 167 11 36 20 81 20
100 0 19 9 67 20 105 81 282 115 743 75 1025 -34 241 -106 522 -186 722 -103
258 -273 548 -451 768 -129 160 -138 172 -138 191 0 20 90 109 151 150 48 31
65 54 48 64 -11 8 -62 -24 -159 -98 -51 -38 -65 -45 -77 -35 -17 14 -11 59 12
95 9 12 51 48 95 79 53 37 80 62 80 75 0 26 -11 24 -67 -11 -45 -29 -83 -39
-83 -22 0 5 7 30 16 56 20 57 94 141 180 202 64 46 86 74 58 74 -25 0 -80 -29
-105 -56 -12 -13 -28 -24 -36 -24 -35 0 5 139 61 213 19 24 26 43 21 56 -9 28
51 119 136 206 37 39 92 103 121 142 29 39 88 101 131 138 48 41 95 92 121
133 27 42 71 91 119 130 81 68 95 91 124 192 13 47 33 86 75 140 119 157 181
211 151 129 -9 -24 -9 -31 2 -35 23 -9 34 4 51 64 9 31 27 78 40 104 29 58 30
78 4 106 -27 29 -58 28 -111 -3 -39 -22 -51 -24 -111 -18 -82 7 -91 -8 -23
-37 25 -11 45 -24 45 -29 0 -5 -38 -66 -85 -136 -62 -95 -86 -139 -91 -173 -6
-38 -16 -55 -68 -106 -33 -34 -77 -85 -96 -113 -20 -30 -47 -57 -62 -62 -15
-5 -41 -29 -57 -53 -122 -173 -144 -198 -169 -198 -27 0 -49 -21 -256 -244
-65 -71 -145 -170 -178 -222 -48 -74 -65 -94 -83 -94 -22 0 -65 45 -65 68 0
13 -40 62 -51 62 -16 0 -9 -44 16 -98 14 -30 25 -62 25 -73 0 -27 -40 -172
-51 -184 -16 -16 -36 15 -91 144 -29 69 -60 127 -67 129 -27 9 -5 -82 58 -232
45 -108 61 -159 59 -185 -2 -24 -8 -36 -18 -36 -15 0 -19 7 -67 110 -18 37
-36 61 -47 63 -17 4 -18 -1 -13 -33 3 -21 29 -84 57 -140 45 -92 49 -106 39
-129 -15 -33 -27 -33 -97 3 -83 42 -99 58 -130 136 -16 43 -33 70 -42 70 -16
0 -17 -18 -5 -72 6 -26 4 -34 -10 -39 -22 -9 -221 52 -400 123 -87 34 -186 64
-260 79 -100 20 -144 36 -265 94 -218 104 -361 123 -517 69 -74 -25 -206 -98
-281 -154 -44 -33 -69 -45 -95 -45 -61 0 -235 -47 -437 -119 -308 -109 -406
-148 -540 -219 -130 -68 -174 -97 -251 -168 -25 -23 -55 -47 -67 -53 -21 -11
-22 -10 -16 16 4 15 22 77 40 136 37 118 41 141 22 135 -7 -3 -27 -44 -44 -92
-18 -48 -34 -90 -38 -93 -19 -20 -66 83 -66 146 0 14 12 66 26 114 27 94 27
150 -1 127 -8 -7 -15 -20 -15 -30 0 -32 -33 -120 -45 -120 -15 0 -24 20 -74
175 -47 148 -74 200 -97 191 -27 -11 -64 43 -116 169 -114 275 -104 257 -150
248 -85 -17 -141 30 -219 183 -46 88 -52 106 -39 114 19 13 59 4 84 -18 45
-40 76 -96 92 -170 18 -85 29 -105 44 -82 35 55 -25 205 -121 301 -39 39 -65
75 -74 102 -20 63 -92 222 -119 265 -32 49 -90 315 -80 366 3 20 24 58 45 84
22 25 39 52 39 58 0 13 -22 24 -48 24 -9 0 -46 14 -80 30 -75 35 -86 36 -112
10z m78 -72 c-2 -13 -10 -23 -18 -23 -8 0 -16 10 -18 23 -3 17 2 22 18 22 16
0 21 -5 18 -22z m28 -120 c4 -6 13 -52 21 -101 9 -67 10 -94 2 -104 -18 -21
-27 -16 -53 35 -14 27 -41 70 -60 95 -55 72 -52 77 61 85 12 1 25 -3 29 -10z
m44 -348 c0 -5 -4 -10 -10 -10 -5 0 -10 5 -10 10 0 6 5 10 10 10 6 0 10 -4 10
-10z m5580 -85 c0 -31 -65 -105 -91 -105 -23 0 -24 15 -3 55 36 71 94 101 94
50z m-5518 -22 c41 -47 77 -153 52 -153 -21 0 -94 110 -94 142 0 32 19 37 42
11z m5278 -267 c0 -15 -82 -86 -99 -86 -21 0 -11 23 28 61 39 39 71 51 71 25z
m-202 -188 c3 -34 -2 -43 -65 -104 -121 -118 -307 -278 -311 -266 -6 20 26 67
128 182 149 167 213 231 230 228 9 -2 16 -17 18 -40z m-4702 -270 c49 -45 71
-83 99 -167 10 -30 30 -75 46 -99 27 -44 29 -72 4 -72 -17 0 -48 44 -63 88 -6
19 -30 55 -52 82 -125 150 -151 276 -34 168z m4331 -295 c-3 -19 -20 -69 -36
-112 -17 -44 -40 -122 -51 -175 -12 -53 -27 -111 -35 -129 -21 -52 -61 -202
-84 -317 -11 -58 -43 -166 -70 -240 -27 -75 -54 -163 -61 -195 -7 -33 -21 -82
-32 -109 -10 -27 -30 -91 -43 -142 -33 -128 -48 -154 -86 -154 -17 0 -32 6
-35 15 -7 16 30 124 54 162 7 12 18 68 23 125 20 210 28 266 63 398 20 74 45
196 56 270 23 160 32 194 105 418 61 185 78 212 139 212 17 0 40 7 50 15 29
22 50 1 43 -42z m-1769 -28 c63 -15 155 -57 222 -101 59 -40 149 -159 244
-324 106 -186 141 -265 203 -458 41 -130 46 -157 46 -237 0 -120 -17 -188 -55
-220 -16 -14 -35 -25 -42 -25 -7 0 -58 -22 -114 -50 -56 -27 -134 -61 -174
-74 -95 -31 -296 -51 -513 -50 l-170 0 -205 53 c-237 61 -329 101 -466 198
-92 65 -124 101 -124 140 0 71 110 354 180 463 26 41 66 107 88 145 39 69 219
296 304 385 35 37 66 55 162 94 65 27 141 55 170 62 70 17 169 17 244 -1z
m-2317 -84 c50 -32 58 -50 128 -278 33 -106 112 -297 226 -543 37 -80 77 -172
90 -205 13 -33 44 -104 70 -157 46 -97 66 -168 48 -168 -16 0 -59 52 -98 120
-74 128 -237 454 -272 544 -19 50 -70 165 -113 256 -43 91 -87 191 -99 222
-11 32 -35 83 -52 114 -31 55 -32 56 -16 90 9 19 22 34 29 34 7 0 34 -13 59
-29z m2939 -176 c49 -14 132 -37 183 -51 128 -35 373 -141 396 -171 11 -13 34
-58 51 -101 18 -42 38 -84 46 -92 27 -31 42 -82 33 -118 -12 -56 -24 -59 -56
-12 -39 59 -71 92 -83 85 -20 -12 -9 -44 47 -130 l57 -87 -13 -77 c-15 -93
-32 -117 -54 -75 -8 16 -24 59 -36 96 -25 75 -52 115 -69 104 -20 -12 -14 -34
43 -175 81 -203 85 -291 10 -208 l-30 32 -3 -31 c-2 -22 7 -48 27 -82 40 -64
40 -97 1 -117 -35 -18 -68 -12 -215 39 -55 20 -113 36 -128 36 -35 0 -43 20
-29 78 8 37 7 54 -4 81 -8 18 -14 56 -14 83 0 46 -56 291 -81 355 -21 53 -90
248 -109 308 -11 33 -42 94 -70 135 -53 80 -57 89 -38 108 17 17 35 15 138
-13z m-1380 -24 c0 -5 -62 -103 -137 -218 -200 -302 -305 -531 -307 -667 l-1
-60 49 -37 c27 -21 54 -45 59 -55 14 -25 -15 -78 -55 -97 -36 -17 -40 -16
-205 15 l-113 22 -73 -37 c-123 -62 -134 -55 -210 126 -63 148 -69 193 -42
283 8 27 15 55 15 63 0 25 -28 -8 -46 -55 -9 -24 -21 -44 -25 -44 -14 0 -36
40 -64 114 -14 38 -33 82 -41 98 -15 30 -15 31 18 59 18 15 38 28 45 29 6 0
62 34 124 76 61 42 148 94 193 115 119 55 534 216 645 249 96 28 171 38 171
21z m2108 -254 c19 -23 23 -61 8 -82 -14 -19 -15 -19 -35 -1 -26 24 -38 75
-20 87 20 12 35 11 47 -4z m310 -270 c-4 -25 -67 -72 -80 -59 -11 11 16 82 34
93 20 12 50 -10 46 -34z m72 -57 c22 -12 78 -93 130 -185 18 -33 52 -85 76
-116 24 -31 58 -83 77 -115 60 -102 224 -455 250 -539 27 -87 70 -301 87 -435
17 -134 22 -422 12 -705 -8 -227 -13 -275 -37 -380 -41 -183 -57 -229 -78
-233 -22 -4 -63 32 -122 108 -49 64 -68 99 -101 187 -30 80 -20 87 67 49 105
-48 133 -20 36 36 -138 79 -210 154 -205 213 3 27 11 34 86 69 45 22 82 46 82
53 0 17 -41 33 -83 33 -17 0 -72 16 -122 35 -156 60 -439 118 -625 130 -137 8
-166 17 -179 58 -20 65 -41 188 -41 245 0 33 -9 85 -20 116 -11 32 -29 106
-40 165 -11 58 -32 142 -45 185 -24 73 -35 160 -23 172 3 3 51 7 106 10 91 4
108 8 188 45 107 50 131 70 145 123 14 54 22 62 90 97 62 31 101 71 75 77 -8
2 -28 -4 -45 -12 -39 -21 -61 -20 -61 2 0 29 28 60 93 103 63 42 157 127 157
141 0 17 -25 6 -74 -30 -69 -53 -113 -75 -121 -61 -14 22 8 66 53 107 l47 42
-22 19 c-13 11 -23 28 -23 39 0 24 69 95 129 134 50 31 54 32 81 18z m-3773
-197 c28 -54 63 -121 79 -150 16 -28 26 -55 22 -58 -11 -12 -49 2 -112 40 -71
43 -101 49 -101 20 0 -15 22 -31 95 -67 52 -25 109 -50 125 -55 20 -6 40 -24
60 -56 17 -26 49 -77 73 -114 23 -37 42 -78 42 -93 0 -32 54 -85 98 -97 29 -7
265 -9 349 -2 82 6 82 5 34 -193 -23 -95 -54 -209 -67 -253 -14 -44 -41 -147
-60 -230 -47 -208 -52 -223 -73 -235 -12 -6 -94 -7 -223 -4 -168 5 -216 3
-278 -10 -41 -10 -104 -21 -140 -27 -186 -27 -212 -36 -282 -91 -42 -33 -48
-48 -18 -48 26 0 26 -26 -1 -65 -11 -16 -33 -55 -48 -85 -38 -73 -62 -94 -98
-86 -102 26 -126 13 -61 -31 70 -47 59 -114 -22 -147 -50 -20 -67 -13 -79 33
-36 134 -15 701 35 951 28 138 76 323 106 409 34 98 178 399 234 493 66 109
237 348 249 348 7 0 35 -44 62 -97z m1073 -348 c0 -8 -15 -43 -34 -77 -22 -39
-37 -84 -41 -118 -4 -30 -23 -108 -42 -173 -38 -130 -37 -128 -28 -209 3 -32
1 -91 -4 -131 -6 -42 -7 -87 -2 -103 10 -36 -20 -312 -48 -438 -29 -129 -71
-376 -82 -476 -6 -58 -15 -94 -29 -112 -15 -20 -18 -35 -13 -59 l6 -32 -46 5
c-32 4 -50 1 -58 -8 -15 -18 -3 -34 26 -34 13 0 35 -4 48 -9 l25 -10 -2 -154
c-2 -124 -6 -160 -19 -180 -14 -22 -14 -27 -2 -37 11 -9 15 -37 15 -109 1
-150 18 -380 39 -519 11 -70 22 -181 25 -247 3 -75 13 -150 26 -200 12 -44 30
-116 40 -160 10 -44 31 -111 45 -150 15 -38 35 -109 46 -156 10 -48 28 -108
40 -135 12 -27 50 -134 86 -239 67 -197 130 -337 198 -440 106 -160 274 -274
468 -317 47 -11 67 -8 201 29 11 3 44 28 74 56 29 28 88 70 130 92 76 40 78
42 164 170 48 72 110 174 138 227 28 53 69 121 90 150 22 29 40 62 40 73 0 11
15 52 33 90 19 39 37 82 40 97 4 14 19 41 34 58 23 28 25 36 16 61 -13 34 -2
139 23 227 25 85 73 204 92 225 9 11 18 33 19 50 8 147 15 225 29 302 8 50 19
142 24 205 10 145 21 175 66 190 45 15 46 42 2 38 l-33 -3 0 65 c1 36 3 135 5
220 7 241 -6 547 -30 695 -6 33 -22 146 -36 250 -14 105 -33 217 -44 250 -10
33 -21 83 -24 110 -7 51 -48 191 -84 280 -11 28 -23 82 -27 120 -4 41 -19 98
-36 137 -35 80 -37 132 -9 243 12 44 24 126 29 183 9 107 24 142 61 142 25 0
36 -18 54 -87 9 -34 32 -103 51 -153 19 -51 35 -103 35 -116 0 -27 -21 -32
-40 -9 -14 17 -30 20 -30 5 0 -19 42 -52 61 -47 26 7 35 -9 48 -88 7 -38 32
-153 56 -255 24 -102 49 -225 56 -275 6 -49 20 -143 30 -209 10 -65 19 -143
19 -173 0 -30 12 -105 27 -166 24 -103 26 -130 27 -332 1 -340 -13 -786 -30
-930 -9 -71 -29 -202 -45 -290 -16 -88 -33 -191 -39 -230 -19 -123 -48 -231
-98 -362 -27 -70 -57 -153 -67 -183 -45 -141 -311 -685 -382 -782 -23 -31 -50
-74 -58 -95 -34 -80 -178 -197 -347 -280 -106 -53 -107 -53 -202 -53 -129 0
-183 13 -304 73 -134 67 -186 115 -318 291 -118 158 -154 219 -341 584 l-124
243 -29 151 c-16 83 -41 190 -54 238 -14 47 -30 119 -36 159 -7 40 -25 111
-41 159 -16 47 -29 106 -29 131 0 25 -5 64 -10 86 -23 93 -42 303 -44 490 -1
129 -7 214 -15 240 -11 35 -10 68 8 220 12 99 26 260 31 358 7 125 16 195 29
235 10 31 24 104 31 162 8 69 25 144 50 220 22 63 44 147 51 185 6 39 26 124
44 190 18 66 47 181 65 255 17 74 39 158 49 185 10 28 21 66 25 86 7 41 75
152 103 168 27 15 63 14 63 -4z m130 -54 c0 -10 -13 -50 -29 -87 -16 -38 -39
-118 -51 -179 -34 -169 -89 -299 -119 -281 -6 4 -11 22 -11 39 0 32 53 209 84
281 17 37 17 39 -3 60 -26 28 -26 46 0 99 32 64 58 87 96 87 26 0 33 -4 33
-19z m-484 -6 c125 -16 144 -22 144 -40 0 -18 -20 -24 -101 -31 -95 -9 -90
-28 10 -36 49 -4 49 -23 -1 -44 -30 -12 -78 -19 -161 -22 -191 -7 -257 8 -257
58 0 35 167 129 230 130 14 0 75 -7 136 -15z m1892 -15 c17 -32 11 -156 -9
-187 -18 -30 -40 -29 -72 5 -31 32 -33 53 -11 128 24 85 63 108 92 54z m397
-5 c113 -27 156 -44 193 -78 28 -26 28 -43 -1 -62 -32 -21 -161 -30 -214 -16
-44 12 -103 54 -92 66 4 3 31 2 60 -4 78 -14 79 0 1 33 -37 16 -78 36 -91 44
-23 14 -24 15 -6 28 25 18 26 18 150 -11z m-1705 -81 c25 -69 163 -274 222
-331 24 -23 72 -63 108 -90 72 -54 104 -102 121 -182 24 -118 -17 -85 -307
243 -85 97 -123 150 -153 210 -49 102 -63 150 -51 182 16 40 37 28 60 -32z
m94 40 c9 -8 16 -25 16 -38 0 -41 143 -246 171 -246 17 0 9 18 -35 82 -36 53
-96 162 -96 175 0 2 9 3 20 3 11 0 27 -12 37 -27 9 -16 32 -46 49 -68 40 -50
84 -154 84 -197 0 -19 7 -44 16 -56 19 -28 12 -54 -13 -45 -44 16 -153 130
-221 233 -43 65 -86 166 -78 186 7 19 31 18 50 -2z m970 -26 c-5 -8 -40 -42
-79 -75 -65 -56 -119 -111 -189 -194 -44 -52 -42 -21 5 83 69 150 74 155 189
194 65 21 90 19 74 -8z m-671 -46 c24 -26 43 -88 51 -164 8 -68 21 -88 31 -45
3 12 6 58 7 101 2 51 7 81 15 83 18 6 35 -69 31 -140 -4 -89 13 -366 23 -373
23 -14 28 56 20 273 -4 126 -6 233 -3 240 7 20 43 26 59 10 12 -12 13 -37 5
-168 -5 -85 -9 -183 -9 -219 0 -48 -8 -90 -32 -162 -19 -54 -39 -102 -46 -108
-39 -32 -63 102 -54 300 3 57 -8 100 -24 100 -25 0 -56 44 -107 153 -42 87
-50 110 -40 122 17 20 54 19 73 -3z m385 -29 c3 -29 -45 -170 -83 -243 -29
-55 -37 -24 -26 99 10 118 24 155 64 171 32 13 42 7 45 -27z m345 -63 c-4
-149 -6 -155 -87 -239 -204 -213 -326 -407 -405 -644 -36 -106 -50 -102 -71
18 l-13 73 43 119 c88 246 196 421 417 676 109 126 119 125 116 -3z m-1201
-16 c-9 -111 -7 -118 68 -271 l74 -148 145 -149 c80 -82 180 -184 222 -225 42
-42 82 -86 88 -98 15 -30 14 -53 -3 -53 -16 0 -51 34 -281 274 -174 181 -336
386 -353 445 -13 48 -8 236 7 255 22 26 36 13 33 -30z m1312 -32 c20 -32 56
-120 56 -137 0 -13 -32 -2 -68 25 -46 33 -58 62 -48 115 9 46 30 45 60 -3z
m-1213 -109 c20 -21 70 -79 112 -130 42 -50 122 -140 178 -200 105 -113 184
-227 195 -281 5 -25 3 -32 -9 -32 -19 0 -173 134 -221 193 -20 24 -70 73 -111
107 -41 35 -75 67 -75 72 0 6 -26 65 -59 131 -32 67 -61 134 -65 150 -9 39 12
35 55 -10z m1216 -85 c135 -141 137 -222 2 -91 -67 64 -88 100 -74 122 12 20
30 11 72 -31z m-1408 -50 c13 -43 41 -235 41 -287 0 -22 -6 -58 -14 -78 -8
-21 -22 -76 -32 -123 -9 -47 -24 -107 -34 -135 -20 -54 -36 -204 -46 -439 -6
-127 -10 -152 -26 -168 -26 -26 -31 -42 -77 -230 -44 -182 -51 -204 -88 -267
-23 -39 -27 -42 -41 -28 -13 14 -13 29 -3 123 17 152 61 310 136 495 36 87 65
168 65 180 0 47 -29 4 -90 -137 -61 -139 -86 -174 -104 -146 -7 12 11 121 30
180 8 26 58 136 111 244 65 134 97 212 101 245 5 43 4 47 -11 35 -9 -8 -23
-35 -32 -61 -19 -57 -79 -157 -100 -165 -35 -13 -16 45 108 329 110 253 118
275 85 262 -12 -4 -78 -126 -93 -172 -6 -20 -7 -20 -21 -1 -9 13 -14 46 -14
101 0 77 2 83 29 109 16 15 37 49 47 74 20 54 43 92 54 92 5 0 13 -15 19 -32z
m1301 -50 c15 -85 13 -88 -98 -242 -104 -145 -261 -385 -297 -456 -18 -36 -47
-110 -65 -165 -18 -55 -35 -107 -38 -115 -6 -20 -16 20 -37 156 -9 61 -15 122
-13 135 2 20 25 39 61 51 4 2 28 57 53 123 95 251 243 488 343 550 31 19 61
35 68 35 6 0 16 -31 23 -72z m-1144 -135 c87 -124 129 -170 230 -249 147 -115
234 -227 318 -410 33 -70 65 -198 53 -210 -9 -9 -333 320 -424 431 -102 125
-121 154 -187 283 -44 85 -70 156 -83 225 -10 54 25 27 93 -70z m1252 73 c29
-15 98 -85 126 -126 18 -27 22 -75 6 -85 -25 -15 -150 134 -165 198 -8 31 -4
32 33 13z m-63 -158 c8 -29 16 -83 17 -119 l3 -65 -101 -120 c-146 -174 -282
-355 -353 -471 -35 -57 -66 -103 -70 -103 -5 0 -12 10 -18 22 -7 17 5 55 62
194 40 94 81 185 92 200 11 16 58 94 103 174 130 227 209 340 236 340 8 0 20
-24 29 -52z m112 -46 c67 -54 141 -136 157 -174 15 -35 11 -58 -10 -58 -19 0
-170 137 -194 175 -20 33 -27 95 -11 95 5 0 31 -17 58 -38z m-1327 -72 c0 -5
-4 -10 -10 -10 -5 0 -10 5 -10 10 0 6 5 10 10 10 6 0 10 -4 10 -10z m60 -108
c32 -67 184 -249 324 -387 67 -66 143 -149 168 -185 89 -126 148 -260 115
-260 -31 0 -431 442 -524 580 -62 92 -149 291 -136 312 8 14 30 -10 53 -60z
m-80 -44 c62 -149 199 -345 385 -553 188 -209 315 -390 334 -475 19 -84 -15
-123 -53 -60 -9 17 -29 38 -42 47 -14 9 -37 36 -51 61 -15 25 -78 104 -141
176 -129 150 -222 284 -348 506 -89 156 -117 222 -129 304 -10 66 16 62 45 -6z
m1392 15 c102 -88 148 -138 148 -160 0 -28 -22 -30 -58 -5 -15 10 -42 24 -60
31 -17 8 -46 29 -62 48 -24 27 -30 43 -30 78 0 25 4 45 10 45 5 0 29 -17 52
-37z m-102 -54 c17 -63 5 -97 -67 -179 -169 -195 -328 -411 -388 -530 -15 -30
-36 -68 -47 -83 -28 -39 -45 -21 -53 57 l-7 64 73 126 c40 70 103 166 139 214
36 48 77 105 90 127 25 41 105 137 176 212 49 51 69 49 84 -8z m-1299 -191
c98 -238 219 -434 385 -623 53 -60 138 -163 190 -227 52 -64 115 -141 140
-170 25 -29 59 -78 74 -109 26 -51 80 -235 80 -273 0 -28 -18 -17 -51 32 -18
26 -63 79 -99 117 -37 39 -118 131 -180 205 -62 74 -141 164 -175 200 -124
129 -250 312 -339 495 -88 180 -136 300 -136 341 0 42 33 155 45 151 5 -2 35
-65 66 -139z m-843 106 c90 -5 118 -11 137 -26 33 -26 32 -39 -2 -36 -25 3
-28 -1 -31 -29 -2 -20 -11 -37 -23 -43 -16 -9 -21 -7 -28 14 -14 34 -26 39
-61 21 -37 -19 -40 -54 -9 -104 18 -30 23 -33 52 -26 95 20 97 20 97 -8 0 -35
-28 -52 -118 -72 -52 -12 -80 -14 -100 -7 -21 7 -35 6 -56 -5 -25 -13 -43 -13
-155 2 -69 9 -161 20 -204 24 -48 5 -85 15 -96 25 -18 17 -51 104 -51 136 0
26 30 46 90 60 30 7 90 26 134 42 95 37 160 48 246 43 36 -3 116 -7 178 -11z
m2306 -66 c55 -37 105 -91 116 -122 14 -45 41 -236 35 -247 -11 -17 -20 -9
-49 42 -15 28 -55 83 -88 122 -76 91 -98 134 -98 193 0 45 1 46 27 39 15 -3
41 -16 57 -27z m771 -19 c44 -10 98 -19 119 -19 43 0 292 -77 358 -111 l42
-21 -34 -18 c-19 -10 -60 -23 -91 -29 -64 -13 -94 -39 -84 -70 9 -29 -13 -35
-66 -20 -29 8 -107 12 -230 10 l-186 -2 -43 36 c-23 19 -48 35 -56 35 -8 0
-14 7 -14 15 0 9 9 15 25 15 16 0 25 6 25 15 0 10 -10 15 -31 15 -27 0 -31 3
-26 23 19 83 19 82 -13 94 -29 11 -40 39 -22 57 12 13 242 -5 327 -25z m-915
-48 c5 -11 10 -50 10 -87 0 -64 -2 -70 -34 -104 -42 -44 -217 -287 -288 -401
-30 -47 -89 -154 -132 -237 -43 -83 -82 -150 -85 -147 -4 2 -6 65 -5 139 l2
135 52 98 c106 197 270 435 391 567 55 60 72 67 89 37z m142 -188 c36 -39 136
-180 160 -226 22 -45 37 -177 20 -177 -6 0 -33 33 -60 73 -27 39 -75 100 -106
135 -30 34 -58 72 -60 85 -20 94 -17 137 8 137 7 0 24 -12 38 -27z m-1553 -25
c12 -12 51 -80 88 -152 110 -214 222 -367 468 -641 39 -44 99 -116 133 -160
34 -44 93 -117 131 -163 38 -46 98 -127 134 -180 65 -97 65 -97 71 -182 l5
-85 -32 36 c-18 19 -67 77 -110 128 -43 50 -118 125 -167 167 -58 49 -122 118
-185 200 -53 69 -124 157 -159 197 -139 161 -178 221 -257 402 -29 66 -69 145
-90 176 -45 67 -79 162 -79 222 0 63 14 73 49 35z m2751 3 c15 -29 12 -41 -9
-41 -28 0 -47 26 -31 45 17 20 27 19 40 -4z m-4033 -6 c25 -17 21 -46 -20
-135 -39 -87 -41 -100 -20 -100 22 0 37 23 75 114 35 85 53 106 89 106 42 0
51 -26 34 -94 -19 -72 -19 -96 0 -96 19 0 33 27 41 81 5 28 17 54 36 72 25 26
33 28 71 22 68 -12 77 -20 77 -70 0 -24 5 -47 12 -51 15 -10 38 24 38 57 0 48
28 69 107 81 106 17 107 15 99 -142 -3 -69 -11 -145 -16 -169 -6 -24 -12 -87
-13 -140 -2 -109 20 -728 29 -809 7 -64 2 -72 -78 -111 -67 -34 -235 -150
-320 -223 l-57 -49 -14 23 c-8 13 -34 55 -59 93 -24 39 -79 133 -122 210 -86
153 -222 387 -294 505 -25 41 -63 108 -84 149 -35 68 -37 76 -23 90 15 15 18
14 31 -4 25 -33 57 -98 64 -130 4 -21 12 -31 28 -33 31 -5 28 13 -20 115 -37
77 -43 97 -43 155 0 50 4 72 17 84 16 16 18 15 35 -16 21 -40 58 -80 73 -80
26 0 20 35 -14 90 -43 69 -53 114 -33 150 11 21 19 25 50 22 27 -2 37 1 37 12
0 8 -4 18 -10 21 -40 25 42 156 125 199 37 20 45 20 72 1z m2703 -114 l0 -109
-42 -55 c-211 -275 -264 -351 -358 -502 -45 -72 -65 -84 -94 -56 l-21 22 26
47 c14 26 59 106 101 177 41 72 91 162 111 200 20 39 62 106 92 150 31 44 80
117 111 163 30 45 59 80 64 77 6 -3 10 -55 10 -114z m695 37 c19 -17 33 -48
51 -112 26 -93 68 -186 83 -186 24 0 20 47 -13 143 -20 56 -36 113 -36 124 0
27 27 43 74 43 35 0 36 -1 93 -112 36 -70 65 -114 76 -116 24 -5 22 10 -19 99
-19 44 -36 92 -37 107 -2 26 0 27 53 30 52 3 82 -5 180 -52 17 -8 31 -28 44
-66 17 -51 18 -66 7 -190 -6 -74 -21 -168 -32 -209 -20 -73 -16 -103 11 -86
16 10 49 84 50 110 0 33 20 95 30 95 5 0 17 -11 26 -25 23 -35 21 -126 -5
-249 -24 -110 -26 -136 -11 -136 13 0 49 57 55 88 3 12 7 33 10 47 7 35 31 31
55 -7 26 -43 25 -64 -3 -98 -13 -15 -48 -92 -77 -171 -29 -79 -61 -161 -72
-182 -11 -22 -17 -42 -13 -45 15 -15 49 45 105 188 34 85 65 161 69 169 14 26
30 23 47 -10 25 -50 64 -169 64 -198 0 -44 -59 -132 -141 -213 -69 -68 -92
-98 -74 -98 3 0 22 7 41 15 20 8 40 13 44 10 11 -7 -3 -55 -70 -235 -32 -85
-65 -191 -75 -235 -13 -63 -63 -225 -69 -225 0 0 -84 81 -186 180 -102 100
-216 204 -255 234 -38 29 -86 69 -107 89 -34 35 -68 48 -68 27 0 -18 287 -288
395 -372 61 -48 225 -218 306 -318 24 -30 80 -113 124 -184 56 -90 110 -161
179 -235 161 -172 202 -231 161 -231 -9 0 -33 9 -55 20 -46 23 -75 25 -110 5
-44 -25 -67 -17 -147 48 -110 89 -143 109 -273 163 -63 27 -150 70 -193 97
-43 26 -112 64 -153 82 -89 41 -170 101 -282 209 -106 103 -117 122 -103 188
26 120 65 118 138 -6 38 -65 67 -85 141 -96 77 -11 85 -16 78 -50 -6 -31 13
-53 53 -63 19 -5 25 0 34 24 6 16 18 29 26 29 24 0 51 -32 51 -60 0 -15 7 -33
16 -40 8 -8 21 -28 29 -47 13 -29 18 -33 54 -33 31 0 43 6 60 28 17 24 22 25
40 15 31 -19 51 -16 51 8 0 13 -8 23 -21 26 -11 3 -25 16 -30 29 -12 32 -35
30 -67 -6 -40 -45 -72 -37 -72 20 0 10 -7 20 -15 24 -20 7 -19 25 2 48 15 17
15 19 -2 38 -22 24 -33 25 -56 4 -17 -15 -20 -15 -47 5 -26 18 -82 83 -82 94
0 3 14 10 31 16 l30 10 -24 41 c-15 26 -40 49 -66 62 -23 11 -46 29 -52 39
-12 24 -1 24 46 2 26 -12 38 -14 46 -6 15 15 3 33 -23 33 -11 0 -31 9 -45 20
-24 19 -28 19 -47 5 -12 -8 -31 -22 -43 -31 -15 -11 -32 -14 -53 -9 -42 9 -33
29 16 35 37 5 39 7 39 40 0 19 -4 34 -10 34 -5 -1 -25 -4 -43 -8 -32 -6 -33
-5 -27 27 4 20 0 47 -11 72 l-16 40 -22 -28 c-45 -56 -46 -35 -6 133 40 168
73 436 71 581 -1 64 3 255 9 425 6 214 6 330 -1 377 -10 60 -9 71 7 88 22 24
27 24 59 -3z m693 -45 c16 -32 56 -130 87 -218 32 -88 90 -230 130 -315 40
-85 83 -186 95 -225 13 -38 40 -104 60 -145 55 -110 140 -368 140 -424 0 -49
-17 -93 -45 -116 -28 -24 -26 -27 -162 290 -24 58 -49 127 -55 154 -6 27 -24
81 -40 120 -16 39 -43 111 -59 160 -16 49 -72 196 -124 327 -126 315 -142 380
-109 427 26 37 48 27 82 -35z m-1244 -95 c14 -13 63 -81 110 -153 62 -94 86
-139 86 -162 0 -17 -5 -35 -11 -38 -14 -9 -37 12 -140 132 -74 86 -89 109 -99
156 -20 86 2 111 54 65z m-1493 -211 c82 -165 135 -257 181 -314 18 -23 58
-72 88 -110 31 -37 82 -106 115 -153 33 -46 143 -170 245 -275 102 -105 206
-218 232 -253 73 -97 143 -260 136 -315 -4 -35 -12 -28 -132 113 -54 63 -128
142 -165 174 -228 204 -388 368 -485 496 -56 74 -116 158 -134 185 -45 73
-147 281 -166 340 -24 76 -45 245 -34 275 l10 25 20 -25 c11 -14 51 -87 89
-163z m-1824 157 c7 -19 -20 -49 -36 -40 -15 10 -14 43 2 49 21 9 27 7 34 -9z
m1653 -220 l0 -113 -55 -139 c-54 -138 -95 -275 -120 -400 -13 -64 -28 -92
-42 -78 -13 13 -9 287 5 356 8 36 24 85 37 110 13 25 32 75 44 112 11 37 27
81 36 97 8 17 22 63 30 102 18 87 33 109 52 83 9 -12 13 -54 13 -130z m1534
130 c9 -25 7 -105 -5 -147 -6 -24 -31 -58 -67 -95 -32 -31 -74 -77 -93 -102
-47 -60 -170 -243 -203 -302 -41 -73 -71 -58 -82 40 -6 46 -3 50 89 192 53 80
115 171 139 203 24 32 64 89 90 125 26 37 57 75 69 85 26 21 55 22 63 1z m188
-166 c102 -108 160 -238 128 -288 -13 -20 -42 9 -142 142 -79 107 -101 159
-85 203 11 27 30 16 99 -57z m-181 -124 c11 -13 10 -17 -4 -25 -13 -8 -14 -15
-7 -34 8 -22 3 -31 -49 -83 -36 -36 -76 -91 -106 -147 -27 -50 -63 -112 -80
-140 -18 -27 -49 -83 -70 -122 -20 -40 -43 -73 -50 -73 -24 0 -37 54 -28 117
9 60 45 128 123 231 19 26 48 73 66 105 35 67 148 187 174 187 10 0 24 -7 31
-16z m1677 -12 c4 -25 -13 -30 -22 -6 -9 25 -7 36 7 32 6 -3 13 -14 15 -26z
m-1511 -79 c20 -27 51 -64 68 -83 44 -51 87 -174 83 -240 -2 -30 -8 -55 -14
-57 -7 -2 -47 45 -89 104 -43 59 -91 123 -106 141 -25 28 -29 41 -29 95 0 100
28 113 87 40z m-1579 -10 c11 -16 36 -62 57 -103 44 -87 122 -208 174 -266
252 -284 361 -400 457 -484 313 -277 366 -364 393 -645 6 -60 16 -135 23 -167
9 -46 9 -61 0 -70 -18 -18 -26 -2 -65 120 -30 97 -37 110 -113 201 -45 53
-169 189 -277 302 -107 112 -263 285 -347 384 -128 153 -160 198 -213 300
-134 262 -126 241 -133 353 -6 89 -5 102 9 102 9 0 24 -12 35 -27z m-124 -45
c3 -13 6 -74 6 -136 0 -102 -4 -127 -39 -250 -56 -194 -78 -286 -91 -372 -16
-108 -38 -156 -53 -116 -3 7 -8 49 -12 92 -12 143 36 414 122 688 37 120 54
142 67 94z m1514 -74 c2 -17 -7 -55 -19 -85 -12 -30 -29 -76 -39 -103 -10 -27
-29 -58 -43 -70 -14 -11 -48 -64 -75 -116 -67 -130 -125 -225 -137 -222 -5 1
-11 24 -13 51 -4 60 22 124 131 328 120 225 187 300 195 217z m144 -101 c27
-30 108 -149 151 -224 32 -55 38 -122 10 -117 -10 2 -45 42 -78 89 -33 48 -79
109 -102 138 -47 58 -57 82 -49 117 8 32 36 31 68 -3z m-1534 -135 c5 -7 42
-74 82 -148 39 -74 93 -160 119 -190 26 -30 67 -82 91 -115 24 -33 139 -159
255 -280 117 -121 265 -276 329 -344 l116 -124 30 -97 c30 -97 59 -241 60
-292 0 -57 -27 -29 -134 136 -152 235 -252 352 -386 456 -81 62 -255 244 -338
353 -57 75 -181 279 -212 349 -29 67 -54 308 -31 308 5 0 13 -6 19 -12z m1386
-59 c-2 -101 -49 -225 -128 -336 -25 -36 -56 -97 -70 -141 -42 -125 -65 -141
-86 -60 -21 74 3 163 85 322 40 78 78 158 84 178 12 38 86 111 106 104 6 -1
10 -32 9 -67z m149 -21 c18 -24 58 -81 87 -128 47 -74 55 -93 58 -145 4 -61
-12 -145 -27 -145 -5 0 -19 25 -32 57 -13 33 -54 94 -100 149 -43 51 -80 102
-84 113 -6 20 9 91 26 124 15 27 35 20 72 -25z m-1638 -85 c3 -27 10 -78 15
-115 15 -103 12 -144 -19 -271 -23 -88 -71 -365 -71 -403 0 -3 -4 -2 -10 1
-13 8 -28 69 -40 160 -10 81 -2 169 41 440 21 128 52 235 69 235 5 0 11 -21
15 -47z m1594 -160 c24 -31 59 -87 78 -125 22 -46 42 -72 58 -78 30 -11 29 -3
9 -115 -23 -132 -39 -142 -79 -51 -12 28 -53 89 -89 136 -37 46 -69 95 -73
108 -7 29 3 129 16 165 13 34 26 28 80 -40z m-2143 25 c14 -22 22 -92 13 -116
-10 -26 -29 -21 -29 9 0 25 -25 25 -42 0 -8 -11 -26 -23 -41 -26 -31 -8 -30
-6 -15 -40 10 -22 8 -29 -12 -50 -20 -22 -22 -28 -12 -50 9 -19 9 -32 2 -46
-15 -28 -26 -24 -47 19 -15 30 -23 36 -43 34 -33 -5 -43 -16 -71 -86 -18 -45
-30 -61 -51 -68 -35 -12 -36 -35 -3 -48 25 -9 25 -11 9 -35 -20 -31 -27 -31
-44 -1 -23 45 -59 41 -60 -6 0 -10 -10 -20 -25 -24 -18 -5 -28 -16 -36 -46 -9
-36 -8 -43 10 -62 12 -12 21 -32 21 -45 0 -35 25 -20 28 17 2 21 12 38 28 49
23 14 26 14 43 -1 44 -40 82 -9 101 82 7 32 19 56 30 62 26 14 33 -2 21 -45
-11 -39 -3 -45 24 -15 14 15 16 29 11 61 -6 35 -3 46 15 65 30 32 39 30 39
-10 0 -26 5 -36 21 -41 34 -11 43 8 30 60 -13 52 -9 65 20 65 11 0 28 14 39
32 l20 33 -28 22 -27 23 34 31 c28 26 36 29 46 17 18 -17 20 -35 11 -80 -6
-30 -4 -44 13 -71 25 -41 27 -70 5 -88 -9 -7 -30 -37 -46 -66 -43 -77 -123
-143 -293 -244 -82 -48 -176 -110 -209 -136 -32 -27 -79 -62 -105 -80 -25 -17
-60 -44 -78 -58 -44 -35 -136 -216 -143 -279 -3 -27 -10 -51 -17 -53 -7 -3
-27 18 -45 46 -44 67 -95 95 -175 96 -71 1 -122 28 -110 57 3 9 46 44 94 76
175 119 214 161 330 357 36 61 79 128 97 150 18 22 46 60 61 85 48 76 163 205
206 231 23 13 61 41 85 62 52 47 263 187 280 187 7 0 16 -5 20 -12z m-1614
-167 c-7 -38 -12 -143 -12 -233 0 -90 -5 -192 -10 -228 -7 -43 -6 -115 1 -214
6 -81 8 -159 5 -173 -7 -27 -47 -46 -81 -37 -39 10 -44 45 -34 255 14 268 52
513 107 672 24 69 38 45 24 -42z m3602 61 c4 -10 -7 -58 -24 -106 -28 -85 -82
-292 -95 -368 -10 -61 -68 -75 -82 -20 -31 126 165 609 201 494z m2021 -178
c8 -28 15 -63 15 -76 0 -12 14 -75 30 -138 17 -63 37 -151 46 -195 8 -44 23
-114 34 -155 10 -41 26 -115 36 -165 9 -52 26 -105 39 -126 36 -56 36 -79 1
-103 -14 -9 -32 -13 -41 -10 -24 10 -45 58 -45 105 0 43 -52 328 -95 519 -13
58 -26 130 -30 160 -3 30 -17 90 -31 133 -27 87 -30 123 -11 130 17 7 34 -19
52 -79z m-3241 -18 c42 -61 108 -136 215 -240 85 -83 178 -175 206 -205 27
-30 107 -111 176 -180 105 -105 137 -144 192 -237 89 -151 115 -205 123 -251
6 -43 -9 -93 -29 -93 -8 0 -37 35 -65 79 -42 64 -72 95 -167 170 -135 108
-379 342 -469 450 -68 82 -173 237 -211 312 -30 57 -65 194 -65 249 0 63 25
49 94 -54z m-151 -47 c21 -99 18 -184 -13 -339 -11 -58 -23 -144 -27 -192 -8
-115 -24 -115 -63 -3 -23 66 -24 99 -10 205 6 41 19 141 30 221 19 147 34 202
54 196 6 -2 19 -41 29 -88z m1480 41 c87 -95 140 -269 104 -340 -21 -42 -45
-37 -68 15 -11 25 -47 87 -80 138 -64 99 -73 140 -44 197 21 41 46 38 88 -10z
m-2303 -31 c0 -36 -17 -72 -31 -64 -13 9 -11 79 3 93 17 17 28 5 28 -29z
m2816 -33 c21 -16 14 -29 -22 -40 -24 -7 -38 13 -28 39 8 19 25 19 50 1z m-24
-108 c-9 -9 -15 -9 -24 0 -10 10 -10 15 2 22 20 12 38 -6 22 -22z m-486 -184
c54 -109 67 -178 40 -219 -9 -14 -21 -25 -26 -25 -6 0 -44 68 -85 151 -77 154
-86 190 -64 246 l11 28 38 -43 c21 -24 60 -86 86 -138z m-2403 120 c8 -9 -11
-44 -23 -44 -6 0 -10 8 -10 18 0 27 18 41 33 26z m2967 -14 c0 -5 -4 -10 -10
-10 -5 0 -10 5 -10 10 0 6 5 10 10 10 6 0 10 -4 10 -10z m72 -64 c13 -31 4
-56 -21 -56 -22 0 -31 27 -20 58 11 29 27 28 41 -2z m-1935 -68 c85 -118 289
-361 349 -418 32 -31 102 -88 154 -127 111 -84 225 -205 281 -300 36 -62 39
-72 34 -118 -9 -71 -32 -150 -49 -164 -17 -15 -28 -1 -45 59 -31 106 -73 165
-184 258 -45 38 -104 91 -131 118 -71 71 -275 329 -321 404 -21 36 -56 92 -78
124 -47 70 -111 212 -102 227 14 22 46 1 92 -63z m-113 -181 c-2 -361 -4 -405
-19 -417 -11 -9 -17 -6 -28 12 -22 34 -47 158 -47 232 0 74 34 319 50 361 10
27 12 27 28 11 15 -15 17 -39 16 -199z m1332 36 c65 -139 79 -198 51 -222 -17
-13 -37 7 -57 59 -8 19 -31 71 -52 114 -29 61 -38 92 -38 131 0 100 15 87 96
-82z m-164 -4 c-3 -70 -8 -109 -18 -118 -11 -12 -15 -10 -25 15 -22 56 4 221
34 211 9 -3 11 -31 9 -108z m-2178 -134 c33 -291 36 -322 36 -395 0 -187 -58
-512 -121 -678 -11 -30 -18 -25 -79 56 -46 61 -49 68 -33 79 9 7 23 13 31 13
18 0 11 34 -8 37 -85 11 -88 12 -129 74 -23 34 -38 65 -35 70 3 5 47 9 99 9
70 0 101 -4 124 -17 32 -19 45 -15 35 10 -13 34 -56 49 -164 58 -59 5 -119 13
-133 18 -33 13 -83 98 -98 168 -10 44 -10 59 4 90 9 21 18 61 20 89 6 74 67
184 102 184 20 0 36 -51 45 -138 8 -79 28 -132 50 -132 19 0 19 22 -1 137 -30
172 -33 198 -19 222 22 41 52 23 79 -46 26 -66 51 -83 51 -35 0 15 -9 51 -20
80 -24 62 -25 95 -6 112 35 28 142 88 147 82 4 -4 14 -70 23 -147z m2239 67
c9 -10 33 -54 53 -97 20 -44 46 -92 57 -107 20 -27 20 -29 4 -63 -19 -40 -27
-42 -50 -17 -29 32 -97 181 -103 226 -10 71 6 94 39 58z m-1058 -118 c15 -25
52 -76 84 -112 31 -37 72 -87 91 -112 63 -81 179 -201 253 -259 99 -79 156
-146 202 -235 33 -64 37 -80 29 -107 -14 -48 -34 -56 -84 -34 -32 14 -54 37
-90 89 -63 92 -174 201 -280 274 -97 67 -138 123 -159 218 -7 33 -26 100 -42
149 -54 172 -56 218 -4 129z m-94 -71 c12 -41 25 -116 30 -188 5 -66 13 -172
19 -235 5 -63 10 -123 10 -132 1 -74 -85 98 -100 200 -17 121 -10 422 11 422
5 0 18 -30 30 -67z m1164 -98 c31 -78 37 -101 29 -123 -15 -42 -44 -34 -82 22
-44 66 -66 144 -52 182 26 69 52 49 105 -81z m-3055 -81 c6 -14 10 -46 10 -70
0 -35 13 -71 55 -156 52 -103 69 -164 44 -156 -6 2 -48 77 -95 167 -98 191
-108 241 -47 241 16 0 27 -8 33 -26z m150 -10 c17 -20 66 -109 109 -198 43
-88 100 -190 126 -225 26 -35 67 -97 91 -138 24 -41 70 -107 102 -146 88 -108
114 -151 110 -184 -3 -26 -6 -28 -55 -31 l-51 -3 -48 63 c-27 35 -82 99 -124
143 -107 112 -269 388 -270 459 0 10 -18 57 -41 105 -43 90 -53 147 -30 175
21 25 46 19 81 -20z m2840 -52 c36 -66 37 -91 8 -143 -38 -68 -56 -59 -77 39
-14 69 -14 155 1 170 16 16 31 2 68 -66z m1418 23 c85 -36 226 -141 237 -176
5 -13 -2 -34 -19 -59 -27 -40 -189 -204 -217 -220 -15 -8 -19 5 -38 104 -26
139 -29 366 -5 366 3 0 21 -7 42 -15z m-2408 -64 c5 -11 10 -35 10 -54 0 -32
67 -245 91 -290 6 -10 33 -43 60 -73 50 -56 60 -83 35 -103 -11 -10 -21 -9
-44 3 -32 17 -95 85 -117 127 -33 62 -86 356 -72 393 9 22 24 20 37 -3z m3334
-86 c29 -115 25 -250 -8 -284 -31 -30 -38 3 -32 152 3 76 8 143 11 148 11 16
23 10 29 -16z m-2438 -46 c17 -48 17 -105 -1 -143 -18 -37 -82 -103 -91 -94
-5 6 22 147 47 241 12 45 28 44 45 -4z m1944 -35 c20 -52 -22 -167 -79 -218
-32 -29 -27 0 9 53 17 25 29 49 27 55 -9 28 -31 7 -92 -91 -37 -59 -102 -155
-145 -213 -43 -58 -100 -143 -128 -190 -75 -128 -269 -377 -447 -576 -311
-347 -351 -384 -415 -384 -84 0 -91 25 -27 96 150 168 299 362 437 569 51 77
134 196 184 264 81 111 96 126 144 147 52 23 62 44 21 44 -10 0 -19 3 -19 6 0
9 204 245 250 289 23 22 55 60 72 84 34 48 109 89 166 90 26 1 34 -4 42 -25z
m-2635 -51 c129 -96 277 -247 294 -300 17 -53 10 -70 -33 -78 -85 -16 -149 33
-226 174 -25 45 -69 122 -97 171 -29 49 -53 92 -53 95 0 16 35 -3 115 -62z
m-2811 -177 c10 -70 -1 -238 -18 -262 -17 -22 -42 -13 -58 21 -9 20 -8 44 5
113 10 48 17 99 17 114 0 38 18 80 33 76 6 -3 16 -30 21 -62z m5316 -94 c0
-22 -59 -122 -100 -168 -16 -19 -30 -39 -30 -44 0 -5 -28 -46 -63 -92 -35 -46
-121 -164 -192 -263 -70 -99 -155 -214 -188 -255 -63 -79 -410 -428 -453 -456
-61 -40 -29 6 83 119 227 231 585 670 687 843 19 34 53 84 74 110 21 27 55 76
76 109 40 63 84 115 98 115 4 0 8 -8 8 -18z m631 -34 c9 -33 9 -67 0 -146 -13
-110 -24 -152 -41 -152 -21 0 -23 36 -6 119 12 62 15 105 10 154 -6 58 -5 67
9 67 11 0 20 -15 28 -42z m-4836 -310 c60 -80 156 -209 212 -285 56 -76 165
-210 242 -297 78 -87 141 -166 141 -175 0 -20 -216 194 -318 314 -41 50 -108
124 -147 165 -98 102 -188 227 -241 332 -24 48 -44 90 -44 93 0 4 10 5 22 3
15 -2 57 -49 133 -150z m1690 92 c14 -15 16 -29 10 -65 -14 -100 -48 -160
-106 -191 -49 -25 -51 8 -9 138 43 135 66 161 105 118z m582 -38 c23 -34 47
-129 41 -160 -8 -40 -83 10 -119 80 -23 46 -24 81 -3 103 24 24 55 15 81 -23z
m-3453 -78 c-1 -94 -22 -281 -33 -303 -9 -17 -9 -30 0 -56 10 -27 10 -38 1
-47 -9 -9 -20 -4 -48 23 -55 52 -56 57 -23 131 31 71 59 187 59 247 0 38 16
64 35 58 5 -2 10 -26 9 -53z m1496 -81 c34 -38 70 -84 80 -103 10 -19 49 -69
86 -110 36 -41 102 -119 145 -172 44 -53 86 -101 95 -106 33 -18 156 -147 180
-187 13 -24 27 -66 31 -93 5 -45 3 -53 -20 -76 -14 -14 -34 -26 -44 -26 -34 0
-92 60 -167 173 -42 62 -109 149 -150 194 -41 45 -92 108 -114 140 -22 32 -68
90 -103 128 -155 169 -209 242 -209 283 0 20 4 22 64 22 l64 0 62 -67z m4472
-326 c14 -102 3 -160 -30 -165 -16 -3 -25 4 -31 22 -12 30 -2 233 12 260 9 18
10 18 24 -8 8 -14 19 -64 25 -109z m-6032 -118 c0 -22 -5 -29 -20 -29 -24 0
-38 44 -20 65 18 21 40 1 40 -36z m6028 -153 c-2 -13 -10 -21 -23 -21 -23 0
-32 30 -14 51 16 19 41 -1 37 -30z m-1752 -271 c13 -20 15 -39 9 -103 -6 -72
-4 -84 17 -128 15 -29 26 -70 27 -99 1 -27 7 -65 13 -84 7 -23 8 -74 4 -150
-4 -64 -7 -184 -6 -266 1 -90 -3 -168 -10 -194 -9 -34 -9 -63 1 -129 11 -77
11 -87 -6 -118 -21 -39 -93 -97 -108 -87 -6 4 -7 50 -1 132 13 194 11 545 -6
766 -19 253 -19 409 -1 453 16 39 44 42 67 7z m-2068 -110 c17 -37 14 -193
-10 -470 -11 -132 -19 -268 -19 -303 1 -62 0 -63 -29 -69 -35 -7 -37 -20 -10
-70 24 -46 25 -57 3 -93 -15 -25 -15 -35 -3 -83 7 -31 10 -65 7 -77 -3 -12 -1
-31 6 -41 17 -27 0 -38 -77 -50 -82 -13 -91 -7 -107 69 -10 50 -9 70 9 157 27
127 30 147 42 335 18 262 30 380 56 515 24 122 28 132 62 167 44 44 55 46 70
13z m-112 -1494 c-1 -186 -2 -201 -22 -228 -12 -15 -28 -29 -37 -31 -21 -4
-31 46 -18 95 6 21 13 101 17 178 6 140 18 185 48 185 10 0 13 -41 12 -199z
m2202 -17 c36 -208 37 -288 7 -311 -47 -33 -62 41 -70 332 -2 87 -1 163 2 168
17 27 31 -18 61 -189z m7 -426 c7 -18 16 -55 20 -83 3 -27 13 -87 21 -132 16
-85 10 -123 -20 -123 -26 0 -57 113 -71 256 -10 102 20 152 50 82z m-2258
-508 c4 -46 2 -58 -14 -73 -19 -16 -21 -16 -34 -1 -18 22 -18 141 1 174 l13
25 15 -35 c8 -19 16 -60 19 -90z m2274 5 c7 -89 -13 -127 -47 -93 -13 12 -13
23 -3 64 19 80 45 94 50 29z m-2346 -191 c28 -28 46 -73 39 -98 -3 -14 -1 -40
4 -58 6 -18 13 -97 17 -176 l7 -143 -32 -12 c-25 -9 -30 -16 -24 -32 22 -69 9
-111 -32 -103 -33 6 -40 35 -19 73 17 32 17 42 7 81 -7 25 -10 49 -7 53 11 18
15 302 5 347 -16 71 0 103 35 68z m2325 -134 c0 -58 8 -142 20 -202 11 -57 20
-116 20 -132 0 -28 -1 -28 -40 -23 -70 9 -73 17 -66 137 8 147 22 282 31 303
4 9 13 17 21 17 11 0 14 -21 14 -100z m-20 -420 c17 -32 24 -116 11 -125 -18
-11 -50 23 -57 61 -13 68 20 112 46 64z"/>
<path d="M3274 10971 c-96 -33 -201 -89 -262 -138 -48 -39 -60 -59 -44 -75 12
-12 57 10 131 65 71 53 223 105 328 114 70 5 88 2 175 -27 82 -27 107 -40 159
-87 67 -59 93 -61 69 -4 -18 44 -72 88 -154 127 -133 63 -270 72 -402 25z"/>
<path d="M3230 10705 c-8 -10 -17 -60 -21 -128 -4 -62 -17 -168 -28 -237 -11
-69 -25 -179 -31 -245 -7 -66 -16 -142 -21 -169 -10 -56 -12 -127 -3 -150 3
-9 15 -16 25 -16 16 0 19 8 19 58 0 31 7 86 16 122 8 36 22 119 30 185 8 66
21 155 30 199 10 48 16 139 17 234 2 157 -4 182 -33 147z"/>
<path d="M3640 10686 c0 -13 13 -66 29 -117 36 -119 79 -389 93 -584 5 -82 12
-152 14 -154 12 -13 37 34 41 76 10 114 -84 634 -138 761 -20 46 -39 55 -39
18z"/>
<path d="M3744 10636 c-3 -9 14 -96 39 -193 52 -203 73 -317 82 -453 10 -148
29 -199 55 -151 22 42 -73 612 -127 755 -19 52 -39 69 -49 42z"/>
<path d="M3132 10585 c-7 -14 -23 -89 -37 -167 -14 -78 -28 -145 -31 -149 -2
-4 -17 -83 -34 -176 -16 -92 -37 -201 -47 -241 -15 -66 -15 -74 -1 -89 34 -34
61 17 88 168 11 62 20 134 20 159 0 26 11 102 25 168 14 66 25 134 25 150 0
16 7 62 16 101 16 68 14 101 -4 101 -5 0 -14 -11 -20 -25z"/>
<path d="M2991 10478 c-27 -66 -48 -148 -81 -327 -17 -91 -40 -196 -50 -233
-20 -73 -15 -118 14 -118 22 0 35 23 52 96 9 38 27 114 41 169 18 76 63 391
63 447 0 23 -23 2 -39 -34z"/>
<path d="M3880 10427 c0 -13 16 -93 35 -178 19 -85 39 -203 46 -264 13 -123
22 -155 44 -155 11 0 15 11 15 44 0 67 -60 366 -105 524 -16 54 -35 70 -35 29z"/>
<path d="M3955 10390 c4 -30 31 -148 60 -262 29 -114 50 -219 47 -233 -3 -17
1 -27 13 -31 32 -13 39 11 25 88 -20 114 -119 461 -136 478 -14 14 -15 10 -9
-40z"/>
<path d="M2856 10368 c-26 -72 -98 -298 -120 -380 -16 -60 -18 -80 -9 -89 31
-31 70 55 107 231 9 41 28 114 43 162 24 82 26 118 4 118 -5 0 -16 -19 -25
-42z"/>
<path d="M2714 10225 c-7 -19 -14 -48 -14 -64 0 -17 -11 -65 -25 -107 -29 -90
-30 -100 -9 -108 23 -9 24 -8 35 22 13 30 59 247 59 275 0 30 -30 18 -46 -18z"/>
<path d="M4284 9464 c-19 -44 -15 -69 10 -69 23 0 41 45 32 80 -9 35 -25 31
-42 -11z"/>
<path d="M4250 9225 c-17 -20 -8 -59 14 -63 26 -5 40 12 32 41 -7 30 -30 41
-46 22z"/>
<path d="M4366 9143 c-11 -26 13 -42 29 -19 8 10 12 23 9 27 -9 15 -31 10 -38
-8z"/>
<path d="M4322 8983 c2 -10 10 -18 18 -18 8 0 16 8 18 18 2 12 -3 17 -18 17
-15 0 -20 -5 -18 -17z"/>
<path d="M4367 8834 c-14 -14 -7 -35 11 -32 9 2 17 10 17 17 0 16 -18 25 -28
15z"/>
<path d="M4383 8635 c-3 -9 -2 -19 1 -23 8 -8 38 10 44 26 6 18 -38 14 -45 -3z"/>
<path d="M2283 8609 c-49 -45 -41 -99 14 -99 15 0 30 11 42 31 18 30 18 34 3
65 -8 19 -18 34 -21 34 -3 0 -21 -14 -38 -31z"/>
<path d="M4430 8470 c0 -5 5 -10 10 -10 6 0 10 5 10 10 0 6 -4 10 -10 10 -5 0
-10 -4 -10 -10z"/>
<path d="M2290 8350 c0 -5 5 -10 10 -10 6 0 10 5 10 10 0 6 -4 10 -10 10 -5 0
-10 -4 -10 -10z"/>
<path d="M2244 8275 c-9 -23 3 -45 26 -45 25 0 37 25 20 45 -16 19 -39 19 -46
0z"/>
<path d="M4470 8255 c-10 -13 -9 -15 9 -15 11 0 21 4 21 9 0 18 -18 21 -30 6z"/>
<path d="M4495 8120 c3 -5 8 -10 11 -10 2 0 4 5 4 10 0 6 -5 10 -11 10 -5 0
-7 -4 -4 -10z"/>
<path d="M2225 8100 c-4 -7 -3 -16 3 -22 14 -14 57 -6 57 12 0 18 -50 26 -60
10z"/>
<path d="M2227 8014 c-9 -10 2 -24 19 -24 8 0 14 7 14 15 0 15 -21 21 -33 9z"/>
<path d="M4495 7980 c-9 -29 8 -46 25 -25 11 13 11 19 -2 32 -14 14 -17 13
-23 -7z"/>
<path d="M2194 7945 c-9 -22 22 -53 37 -38 15 15 7 47 -14 51 -9 2 -20 -4 -23
-13z"/>
<path d="M4553 7933 c-19 -7 -16 -28 8 -49 17 -15 22 -16 29 -4 15 23 -13 62
-37 53z"/>
<path d="M4520 7729 c0 -30 26 -57 40 -43 6 6 0 21 -15 39 l-24 30 -1 -26z"/>
<path d="M2215 7640 c-3 -5 -1 -10 4 -10 6 0 11 5 11 10 0 6 -2 10 -4 10 -3 0
-8 -4 -11 -10z"/>
<path d="M2147 7445 c-4 -8 -2 -17 4 -21 12 -7 41 15 33 27 -8 14 -31 11 -37
-6z"/>
<path d="M2190 7380 c0 -5 5 -10 10 -10 6 0 10 5 10 10 0 6 -4 10 -10 10 -5 0
-10 -4 -10 -10z"/>
<path d="M2202 7271 c2 -7 7 -12 11 -12 12 1 9 15 -3 20 -7 2 -11 -2 -8 -8z"/>
<path d="M4560 7215 c0 -8 5 -15 10 -15 6 0 10 7 10 15 0 8 -4 15 -10 15 -5 0
-10 -7 -10 -15z"/>
<path d="M2215 7179 c-11 -17 1 -21 15 -4 8 9 8 15 2 15 -6 0 -14 -5 -17 -11z"/>
<path d="M2225 7000 c-3 -5 -1 -10 4 -10 6 0 11 5 11 10 0 6 -2 10 -4 10 -3 0
-8 -4 -11 -10z"/>
<path d="M2242 6795 c2 -14 8 -26 13 -26 6 0 11 12 13 26 2 18 -1 25 -13 25
-12 0 -15 -7 -13 -25z"/>
<path d="M4500 6785 c-10 -12 -10 -19 -2 -27 16 -16 42 -2 42 22 0 24 -22 26
-40 5z"/>
<path d="M2245 6639 c-10 -31 12 -49 30 -26 15 21 10 47 -10 47 -8 0 -17 -9
-20 -21z"/>
<path d="M4495 6530 c-4 -6 -3 -16 3 -22 6 -6 12 -6 17 2 4 6 3 16 -3 22 -6 6
-12 6 -17 -2z"/>
<path d="M2273 6434 c-8 -20 8 -36 26 -25 15 10 8 41 -9 41 -6 0 -13 -7 -17
-16z"/>
<path d="M2310 6170 c0 -24 26 -38 42 -22 8 8 8 15 -2 27 -18 21 -40 19 -40
-5z"/>
<path d="M4375 6080 c3 -5 8 -10 11 -10 2 0 4 5 4 10 0 6 -5 10 -11 10 -5 0
-7 -4 -4 -10z"/>
<path d="M4350 5995 c0 -9 5 -15 11 -13 6 2 11 8 11 13 0 5 -5 11 -11 13 -6 2
-11 -4 -11 -13z"/>
<path d="M2395 5901 c-3 -5 -1 -12 5 -16 5 -3 10 1 10 9 0 18 -6 21 -15 7z"/>
<path d="M2440 5691 c0 -11 26 -22 34 -14 3 3 3 10 0 14 -7 12 -34 11 -34 0z"/>
<path d="M1775 8340 l-16 -31 -29 21 -30 21 -26 -20 c-15 -12 -41 -21 -58 -21
-55 0 -61 -14 -21 -48 47 -42 67 -42 59 -2 -5 23 -3 30 9 30 9 0 23 -13 32
-30 17 -34 27 -37 45 -15 13 15 50 21 50 7 0 -4 12 -20 26 -35 34 -37 52 -22
29 23 -11 21 -15 44 -11 63 4 21 1 36 -10 49 -23 25 -31 23 -49 -12z"/>
<path d="M1490 8270 c0 -5 5 -10 10 -10 6 0 10 5 10 10 0 6 -4 10 -10 10 -5 0
-10 -4 -10 -10z"/>
<path d="M4766 8292 c-3 -5 6 -19 19 -31 21 -18 24 -27 19 -59 -8 -50 9 -65
57 -52 47 14 147 12 191 -4 21 -7 40 -11 43 -8 10 11 5 21 -15 27 -13 4 -19
14 -17 28 2 19 -4 22 -42 25 -25 2 -50 10 -55 17 -13 17 -140 65 -172 65 -12
0 -25 -4 -28 -8z"/>
<path d="M5177 8176 c-7 -17 11 -36 35 -36 23 0 23 12 0 33 -23 21 -28 21 -35
3z"/>
<path d="M5022 6008 c-22 -22 -14 -40 16 -36 19 2 27 9 27 23 0 23 -25 31 -43
13z"/>
<path d="M5130 5941 c0 -5 6 -14 14 -20 16 -13 32 2 21 19 -8 12 -35 13 -35 1z"/>
<path d="M5240 5850 c0 -5 5 -10 10 -10 6 0 10 5 10 10 0 6 -4 10 -10 10 -5 0
-10 -4 -10 -10z"/>
<path d="M5000 5770 c0 -5 5 -10 10 -10 6 0 10 5 10 10 0 6 -4 10 -10 10 -5 0
-10 -4 -10 -10z"/>
<path d="M5310 5655 c0 -20 70 -96 81 -89 14 8 10 58 -7 82 -18 26 -74 31 -74
7z"/>
<path d="M5537 5483 c-12 -11 -8 -23 8 -23 8 0 15 7 15 15 0 16 -12 20 -23 8z"/>
<path d="M1850 6470 c0 -5 5 -10 11 -10 5 0 7 5 4 10 -3 6 -8 10 -11 10 -2 0
-4 -4 -4 -10z"/>
<path d="M1494 5983 c-3 -10 -31 -35 -64 -56 -52 -34 -78 -62 -66 -74 6 -6
120 53 133 69 18 21 26 65 13 73 -7 4 -13 -1 -16 -12z"/>
<path d="M1310 5795 c-13 -16 -7 -45 9 -45 14 0 33 38 26 50 -9 14 -21 12 -35
-5z"/>
</g>
</svg>
