<?xml version="1.0" standalone="no"?>
<!DOCTYPE svg PUBLIC "-//W3C//DTD SVG 20010904//EN"
 "http://www.w3.org/TR/2001/REC-SVG-20010904/DTD/svg10.dtd">
<svg version="1.0" xmlns="http://www.w3.org/2000/svg"
 width="1280.000000pt" height="800.000000pt" viewBox="0 0 1280.000000 800.000000"
 preserveAspectRatio="xMidYMid meet">
<metadata>
Created by potrace 1.15, written by Peter Selinger 2001-2017
</metadata>
<g transform="translate(0.000000,800.000000) scale(0.100000,-0.100000)"
fill="#000000" stroke="none">
<path d="M6480 6828 c-21 -35 -27 -93 -10 -103 6 -3 10 -29 10 -57 0 -39 -6
-57 -25 -80 -37 -44 -42 -74 -15 -110 20 -27 20 -31 6 -47 -18 -20 -20 -44 -6
-72 21 -38 -30 -117 -148 -230 -123 -120 -210 -181 -285 -203 -63 -18 -92 -45
-82 -76 6 -20 12 -21 68 -16 57 6 60 5 29 -6 -47 -18 -193 -124 -289 -210
-266 -238 -411 -496 -453 -808 -11 -80 -7 -241 8 -279 5 -14 -239 200 -281
246 -14 16 -18 44 -23 143 -2 68 -7 127 -10 131 -7 12 -41 11 -49 -1 -3 -6 -8
-67 -10 -136 -4 -149 -4 -150 -138 -229 -141 -84 -216 -169 -264 -302 -13 -36
-26 -98 -30 -139 l-6 -73 -54 -27 c-57 -28 -75 -50 -52 -65 13 -8 34 -6 97 8
l22 5 0 -211 0 -211 -92 -1 c-51 0 -167 -8 -258 -18 -91 -10 -167 -17 -169
-15 -3 2 3 124 11 272 9 153 12 274 7 283 -5 9 -12 43 -15 75 -4 33 -12 62
-17 66 -21 13 -37 -5 -37 -41 0 -20 -7 -49 -16 -66 -13 -24 -15 -48 -10 -117
l7 -88 -25 0 c-52 0 -56 6 -56 94 1 44 5 128 10 185 7 77 6 109 -3 125 -6 11
-12 30 -13 41 0 11 -1 39 -2 63 -1 28 -7 45 -18 49 -24 9 -39 -13 -40 -62 -1
-25 -9 -61 -19 -81 -15 -33 -16 -57 -10 -213 5 -140 4 -174 -5 -164 -7 6 -15
35 -18 62 -4 46 -7 51 -28 51 -22 0 -24 -5 -25 -47 -3 -76 -3 -79 -16 -94 -9
-11 -9 -30 -1 -74 7 -39 12 -502 15 -1327 l4 -1268 -370 0 -369 0 -6 28 c-3
15 -8 190 -12 389 l-7 363 32 0 c30 0 31 1 31 45 0 44 0 45 -33 45 l-34 0 -6
217 c-4 120 -7 282 -7 361 l0 142 25 0 c23 0 25 4 25 45 0 43 -1 45 -29 45
l-29 0 -6 238 c-3 130 -7 293 -9 362 l-2 125 38 3 c37 3 37 4 37 46 0 46 -12
56 -67 56 -23 0 -23 1 -23 156 l0 156 25 -6 c27 -7 52 21 57 64 3 21 -2 25
-32 30 l-35 5 -6 70 c-3 39 -13 85 -23 103 -18 35 -69 72 -100 72 -17 0 -18 6
-13 50 4 29 2 52 -4 56 -6 4 -6 11 2 20 9 11 9 17 0 28 -8 10 -9 16 -1 21 32
20 -14 64 -49 45 -16 -8 -19 -20 -18 -62 1 -90 -13 -157 -35 -164 -11 -3 -34
-19 -53 -35 -38 -34 -61 -108 -51 -164 7 -33 6 -34 -31 -40 -61 -10 -65 -13
-58 -37 15 -51 33 -68 65 -61 l30 6 0 -157 0 -156 -27 0 c-62 0 -73 -9 -73
-56 l0 -44 51 0 51 0 -6 -92 c-3 -51 -8 -199 -11 -328 -3 -129 -8 -252 -11
-272 -5 -35 -8 -38 -40 -38 -34 0 -34 0 -34 -45 0 -40 3 -45 23 -45 50 0 50 4
38 -300 -6 -155 -11 -314 -11 -351 l0 -69 -40 0 -40 0 0 -45 0 -45 37 0 36 0
-7 -213 c-3 -116 -9 -292 -13 -389 l-6 -178 -344 0 -343 0 0 80 c0 80 -15 659
-24 922 l-5 138 32 0 c51 0 59 11 55 71 l-3 54 -41 3 -42 3 -6 142 c-3 78 -8
266 -11 417 -3 151 -8 308 -11 348 l-6 72 41 0 41 0 0 60 0 60 -40 0 -40 0 0
53 c0 28 -5 183 -10 342 -5 160 -10 360 -11 445 l-2 155 52 3 52 3 -3 57 -3
57 -63 9 -62 10 0 214 0 214 45 -6 c44 -7 44 -7 60 30 33 80 32 82 -23 90
l-49 6 -6 86 c-10 140 -77 242 -158 242 -24 0 -29 5 -35 34 -3 19 -3 49 1 66
5 22 2 36 -9 49 -15 17 -15 19 -1 24 8 4 15 16 15 27 0 11 -7 23 -15 27 -14 5
-14 8 2 25 24 27 6 53 -37 53 -43 0 -61 -26 -37 -53 16 -17 16 -20 2 -25 -20
-8 -20 -46 0 -54 14 -5 14 -8 2 -22 -8 -9 -18 -46 -22 -82 -6 -64 -7 -67 -37
-73 -44 -9 -113 -82 -128 -135 -6 -24 -10 -75 -8 -113 3 -76 9 -71 -76 -82
-22 -3 -43 -9 -47 -13 -4 -4 2 -32 13 -61 l21 -52 49 6 48 7 -2 -214 -3 -213
-65 -11 -65 -10 -3 -57 -3 -57 67 -3 67 -3 -2 -80 c-4 -199 -22 -720 -27 -812
l-6 -103 -49 0 -50 0 3 -57 3 -58 47 -3 48 -3 -6 -137 c-4 -75 -11 -294 -18
-487 l-11 -350 -50 -5 -50 -5 -3 -54 c-4 -62 4 -71 61 -71 28 0 37 -4 37 -17
0 -62 -31 -955 -36 -1030 l-6 -93 -54 0 c-48 0 -54 -3 -58 -22 -9 -45 -36
-237 -36 -257 l0 -21 5584 0 c3072 0 5587 4 5590 8 2 4 -11 72 -31 150 l-35
142 -49 0 -49 0 0 69 c0 78 -16 696 -25 923 l-5 148 33 0 c51 0 59 10 55 71
l-3 54 -41 3 -42 3 -6 132 c-3 73 -8 256 -11 407 -3 151 -8 312 -11 358 l-6
82 41 0 41 0 0 60 0 60 -40 0 -40 0 -1 53 c0 28 -6 250 -13 492 -7 242 -11
443 -9 448 2 4 27 7 54 7 l50 0 -3 58 -3 57 -62 9 -63 10 0 214 0 214 44 -6
43 -7 22 52 c12 29 18 56 14 60 -5 4 -27 11 -51 16 l-43 8 -3 70 c-5 119 -38
198 -98 235 -18 11 -45 20 -60 20 -23 0 -28 5 -34 34 -3 19 -3 49 1 66 5 22 2
36 -9 49 -15 17 -15 19 -1 24 8 4 15 16 15 27 0 11 -7 23 -15 27 -14 5 -14 8
2 25 24 27 6 53 -37 53 -43 0 -61 -26 -37 -53 16 -17 16 -20 2 -25 -8 -4 -15
-16 -15 -27 0 -11 7 -23 15 -27 14 -5 14 -8 2 -22 -8 -9 -18 -46 -22 -83 -5
-51 -10 -68 -22 -68 -33 0 -96 -46 -121 -90 -24 -40 -27 -55 -27 -138 0 -103
6 -94 -79 -106 -22 -3 -43 -9 -48 -14 -5 -5 1 -32 13 -60 l22 -52 49 6 48 7
-2 -214 -3 -213 -65 -11 -65 -10 -3 -57 -3 -58 66 0 65 0 0 -97 c0 -69 -27
-865 -30 -900 0 -2 -22 -3 -50 -3 l-50 0 0 -60 0 -60 51 0 51 0 -6 -72 c-3
-40 -10 -251 -16 -468 -6 -217 -13 -405 -16 -417 -3 -18 -12 -22 -52 -25 l-47
-3 -3 -54 c-4 -62 4 -71 62 -71 l39 0 -7 -142 c-3 -79 -11 -289 -16 -468 -6
-179 -13 -371 -16 -428 l-6 -102 -361 2 -362 3 -6 220 c-4 121 -7 294 -9 385
l-2 165 31 3 c30 3 31 5 31 48 0 43 -1 44 -33 44 l-34 0 -6 203 c-4 111 -7
273 -7 360 l0 157 25 0 c23 0 25 4 25 45 0 43 -1 45 -29 45 l-29 0 -6 228 c-3
125 -7 288 -9 362 l-2 135 38 3 c37 3 37 4 37 46 0 46 -12 56 -67 56 -23 0
-23 1 -23 156 l0 156 25 -6 c27 -7 52 21 57 64 3 21 -2 25 -32 30 l-35 5 -6
70 c-3 39 -13 85 -23 103 -18 35 -69 72 -100 72 -16 0 -18 6 -14 44 3 24 2 50
-3 57 -4 7 -3 19 3 26 7 9 7 17 -1 27 -8 10 -9 16 -1 21 33 20 -15 64 -50 45
-16 -9 -20 -20 -18 -63 3 -87 -12 -156 -34 -163 -11 -3 -34 -19 -53 -35 -37
-33 -61 -108 -52 -164 6 -34 5 -34 -39 -41 -24 -3 -47 -10 -50 -15 -3 -5 3
-26 13 -47 16 -33 22 -37 51 -34 l32 4 0 -156 0 -156 -27 0 c-62 0 -73 -9 -73
-56 l0 -44 44 0 c25 0 47 -3 49 -7 4 -6 -18 -709 -22 -720 -1 -2 -17 -3 -36
-3 -35 0 -35 0 -35 -45 0 -40 3 -45 23 -45 50 0 49 3 38 -294 -6 -152 -11
-311 -11 -352 l0 -74 -40 0 -40 0 0 -45 0 -45 37 0 36 0 -7 -203 c-3 -111 -9
-286 -13 -389 l-6 -188 -344 0 -345 0 5 1248 c3 905 8 1270 17 1332 12 82 11
85 -10 102 -12 10 -18 18 -12 18 14 0 12 96 -2 115 -7 10 -18 13 -29 9 -15 -6
-22 -44 -20 -111 1 -7 -4 -13 -11 -13 -8 0 -11 53 -11 182 -1 192 -10 317 -25
332 -19 19 -40 -3 -42 -46 -3 -75 -3 -79 -14 -86 -25 -16 -36 -53 -25 -84 6
-17 11 -97 11 -178 0 -126 -2 -149 -16 -154 -22 -8 -64 -8 -64 2 1 4 5 38 10
76 6 47 5 77 -2 95 -6 14 -14 50 -17 80 -4 35 -12 58 -23 65 -27 16 -37 -2
-39 -69 -1 -32 -8 -69 -14 -82 -7 -13 -11 -43 -8 -66 4 -45 31 -491 29 -493
-1 -1 -77 7 -171 17 -93 10 -209 18 -257 18 l-88 1 0 204 c0 154 -3 206 -12
210 -13 6 47 -1 87 -10 27 -6 49 10 42 30 -4 10 -31 28 -60 42 l-54 24 -6 78
c-9 129 -60 243 -148 331 -39 39 -57 51 -189 134 -33 21 -67 49 -75 61 -17 25
-27 144 -13 152 4 3 5 10 1 17 -3 6 -6 29 -5 51 3 51 -8 69 -39 64 -22 -3 -25
-9 -30 -68 -4 -36 -3 -70 2 -76 5 -6 4 -15 -3 -22 -8 -8 -8 -15 2 -27 9 -11
10 -18 1 -29 -6 -7 -9 -20 -7 -27 3 -8 -39 -54 -101 -109 -58 -52 -124 -113
-147 -135 l-42 -40 4 146 c6 200 -25 342 -110 514 -107 215 -337 459 -577 614
-66 42 -68 47 -13 32 24 -7 35 -6 47 5 28 28 -2 60 -110 118 -119 65 -224 146
-336 264 -106 112 -107 114 -88 133 21 21 24 50 9 78 -7 13 -4 29 9 55 22 42
18 66 -15 97 -20 18 -24 32 -24 76 0 30 7 67 16 84 17 33 13 55 -17 93 -27 34
-35 33 -59 -6z"/>
<path d="M961 978 c-11 -31 -45 -504 -37 -523 5 -13 610 -15 5578 -15 3065 0
5579 4 5585 8 10 6 6 65 -21 269 -18 144 -37 266 -40 272 -5 8 -1548 11 -5532
11 l-5524 0 -9 -22z"/>
</g>
</svg>
