<?xml version="1.0" standalone="no"?>
<!DOCTYPE svg PUBLIC "-//W3C//DTD SVG 20010904//EN"
 "http://www.w3.org/TR/2001/REC-SVG-20010904/DTD/svg10.dtd">
<svg version="1.0" xmlns="http://www.w3.org/2000/svg"
 width="1280.000000pt" height="853.000000pt" viewBox="0 0 1280.000000 853.000000"
 preserveAspectRatio="xMidYMid meet">
<metadata>
Created by potrace 1.15, written by Peter Selinger 2001-2017
</metadata>
<g transform="translate(0.000000,853.000000) scale(0.100000,-0.100000)"
fill="#000000" stroke="none">
<path d="M9871 8053 c-23 -8 -49 -12 -57 -9 -8 3 -14 1 -14 -5 0 -5 -17 -17
-37 -25 -21 -9 -56 -24 -79 -35 -22 -10 -48 -19 -58 -19 -9 0 -43 -12 -74 -26
-31 -15 -61 -27 -67 -28 -5 -2 -30 -8 -55 -15 -248 -71 -258 -73 -330 -77 -36
-1 -85 -10 -110 -19 -86 -32 -580 -16 -798 25 -43 8 -125 6 -177 -4 -39 -7
-152 -26 -255 -42 -58 -9 -110 -20 -116 -25 -6 -5 -35 -8 -65 -8 -140 3 -433
-12 -510 -25 -52 -9 -200 -17 -370 -21 -156 -4 -287 -9 -290 -11 -3 -2 -141
-6 -305 -9 -449 -8 -494 -13 -749 -80 -147 -39 -215 -53 -295 -61 -30 -3 -75
-10 -100 -15 -25 -5 -103 -16 -175 -24 -289 -32 -386 -56 -650 -159 -78 -31
-205 -69 -330 -101 -55 -14 -173 -52 -262 -85 -89 -33 -171 -60 -182 -60 -10
0 -73 -23 -138 -51 -372 -159 -590 -335 -829 -671 -79 -112 -157 -318 -171
-458 -3 -25 -10 -50 -15 -57 -5 -7 -7 -17 -3 -23 3 -5 -1 -20 -9 -32 -9 -12
-16 -37 -16 -56 0 -18 -6 -45 -14 -60 -8 -15 -17 -50 -21 -77 -4 -28 -14 -62
-21 -77 -49 -96 -75 -485 -55 -813 16 -251 21 -697 10 -840 -9 -127 -34 -300
-49 -350 -6 -16 -17 -70 -25 -120 -14 -90 -68 -348 -80 -385 -4 -11 -10 -55
-15 -98 -15 -129 -25 -159 -66 -208 -67 -79 -86 -112 -92 -159 -13 -121 97
-97 179 39 36 60 46 92 95 312 29 135 54 260 54 277 0 37 20 117 48 198 21 58
56 226 67 314 10 80 24 185 34 249 6 33 13 111 17 173 5 85 10 113 20 113 16
0 15 6 18 -280 1 -116 8 -233 20 -315 47 -339 57 -398 80 -510 14 -66 33 -147
42 -180 11 -38 19 -104 20 -180 2 -66 5 -142 8 -170 3 -27 1 -88 -4 -135 -5
-47 -15 -137 -21 -200 -6 -63 -17 -137 -25 -165 -35 -136 -55 -206 -78 -275
-22 -70 -36 -118 -50 -180 -4 -21 -12 -25 -43 -28 -52 -3 -122 -49 -146 -95
-28 -54 -40 -180 -33 -352 6 -137 8 -155 34 -205 22 -45 36 -59 77 -80 l49
-25 3746 0 3745 0 42 22 c95 51 108 93 108 358 0 265 -13 307 -108 358 -40 21
-56 22 -298 25 l-257 3 -6 32 c-13 59 -12 162 0 177 6 8 14 29 17 45 3 17 12
66 20 110 32 169 37 392 12 530 -23 127 -47 658 -31 683 4 7 3 12 -3 12 -7 0
-8 28 -5 78 6 75 -8 347 -25 527 -9 85 -31 191 -81 385 -12 47 -23 105 -25
130 -1 25 -6 79 -9 120 -7 66 -4 84 19 150 14 41 32 123 40 182 10 80 20 116
37 140 13 18 24 35 25 37 3 5 91 -39 95 -48 2 -5 12 -11 23 -15 15 -4 36 5 71
32 28 21 65 44 82 51 28 12 35 10 84 -21 110 -71 134 -85 178 -100 90 -32 146
-46 208 -52 35 -4 76 -12 90 -18 15 -5 68 -14 117 -19 165 -16 209 -26 224
-51 8 -13 42 -50 77 -83 34 -33 71 -80 82 -105 22 -46 99 -161 131 -194 45
-45 90 22 101 154 4 47 3 114 -2 150 -5 36 -11 170 -13 298 -4 209 -2 234 12
239 11 4 22 -1 31 -15 8 -12 19 -22 24 -22 5 0 34 -21 65 -47 42 -37 63 -65
89 -122 19 -40 34 -79 34 -85 0 -7 9 -29 20 -51 11 -22 20 -49 20 -61 0 -21
40 -136 59 -171 15 -27 41 -127 41 -157 0 -14 4 -26 9 -26 5 0 12 -19 16 -42
4 -24 16 -55 27 -70 10 -15 22 -44 25 -63 3 -20 10 -38 14 -41 14 -8 11 -52
-3 -57 -7 -2 -29 4 -50 14 -121 61 -236 14 -321 -132 -40 -69 -50 -147 -44
-336 5 -182 21 -256 75 -357 35 -64 184 -212 202 -201 5 3 21 0 37 -6 37 -16
207 -38 213 -29 3 5 30 15 60 24 77 22 207 98 253 148 35 37 127 169 127 182
0 3 13 27 28 53 37 63 73 183 74 247 0 17 4 36 9 42 5 6 9 35 10 65 1 30 6 61
10 70 21 41 7 465 -21 629 -5 30 -14 83 -19 117 -5 34 -13 68 -18 75 -4 7 -9
33 -10 58 -6 142 -10 179 -22 194 -7 8 -11 22 -8 30 6 14 -7 63 -24 98 -5 10
-9 29 -9 43 0 14 -12 44 -26 66 -23 37 -24 43 -11 57 19 21 9 82 -21 131 -11
19 -18 39 -15 44 3 5 1 19 -5 30 -6 12 -13 43 -17 69 -3 26 -10 50 -16 53 -5
4 -7 10 -5 14 3 4 -4 31 -14 60 -11 28 -20 59 -20 69 0 10 -8 27 -17 38 -23
26 -43 61 -43 75 0 6 -13 39 -29 73 -15 33 -36 90 -45 126 -21 78 -39 131 -61
184 -9 21 -14 45 -11 52 3 8 -5 44 -18 80 -13 36 -23 82 -21 102 6 84 -16 236
-41 283 -13 26 -24 55 -24 66 0 11 -14 33 -31 49 -43 41 -149 183 -149 200 0
8 -5 14 -10 14 -10 0 -35 50 -77 150 -36 87 -119 246 -168 320 -27 41 -94 120
-149 176 -56 55 -121 123 -146 151 -49 54 -138 102 -225 122 -27 6 -95 13
-150 15 -55 3 -107 7 -115 10 -39 13 -168 13 -209 -1z m-1961 -4210 c7 -16 18
-39 24 -53 16 -37 115 -160 134 -167 10 -4 37 -23 62 -44 48 -39 67 -83 115
-269 10 -36 23 -87 30 -115 8 -27 21 -84 29 -125 8 -41 22 -109 30 -150 9 -41
25 -124 36 -185 22 -118 50 -250 81 -382 10 -45 19 -97 19 -115 0 -19 6 -57
14 -84 15 -51 20 -82 31 -199 4 -38 10 -74 14 -80 21 -27 61 -150 61 -184 0
-78 64 -71 -679 -71 l-666 0 -19 52 c-10 29 -31 74 -47 100 -68 112 -75 165
-29 206 17 15 30 30 30 35 0 4 8 20 19 35 88 128 131 229 160 375 15 72 20 82
40 85 13 2 33 -5 44 -16 37 -32 93 -62 118 -62 25 0 31 -5 120 -125 107 -142
221 -224 358 -260 116 -30 139 -43 143 -78 3 -28 7 -32 34 -35 28 -3 35 2 57
40 l27 43 -34 30 c-18 17 -78 53 -132 80 -137 70 -214 146 -278 277 -26 53
-49 102 -50 110 -2 7 -9 27 -15 43 -7 17 -13 41 -13 55 0 14 -5 31 -12 39 -6
8 -10 16 -8 18 1 2 -5 19 -13 39 -8 20 -15 41 -15 46 0 6 -6 22 -13 36 -43 85
-67 166 -67 229 0 43 -53 166 -88 205 -22 24 -24 34 -19 80 3 29 19 93 36 142
17 49 31 98 31 109 0 10 12 51 26 91 22 64 29 74 59 85 19 7 69 41 112 76 43
35 81 64 84 64 3 1 11 -11 19 -26z m-3917 -451 c16 -24 40 -47 53 -52 13 -5
24 -13 24 -17 0 -5 20 -33 45 -63 25 -30 45 -64 45 -74 0 -11 5 -35 10 -53 6
-18 14 -48 20 -65 19 -64 12 -312 -10 -343 -10 -14 -36 -115 -59 -226 -28
-134 -62 -228 -117 -317 -97 -158 -116 -201 -122 -268 -4 -54 -1 -71 20 -116
14 -29 28 -70 31 -91 5 -34 3 -39 -31 -62 l-37 -25 -381 0 -381 0 3 323 c2
288 11 419 31 467 4 8 8 31 10 50 5 62 9 80 21 92 7 7 12 22 12 35 0 13 9 40
20 60 11 21 20 44 20 51 0 28 112 152 138 152 6 0 12 6 12 14 0 8 16 27 36 43
20 15 52 46 72 68 20 22 76 79 124 126 49 48 88 92 88 98 0 6 32 44 70 83 39
38 78 83 87 99 19 32 68 60 98 56 10 -1 32 -21 48 -45z m93 -1299 c-19 -164
-19 -190 2 -225 12 -19 24 -52 28 -75 5 -36 4 -42 -15 -48 -28 -8 -127 40
-148 72 -21 32 -19 98 5 153 23 54 107 170 123 170 7 0 9 -16 5 -47z m1594 2
c0 -40 -54 -413 -66 -457 -5 -16 -22 -18 -179 -18 l-173 0 -5 33 c-2 17 -1 42
4 55 5 13 9 41 9 63 0 54 38 113 81 125 50 14 74 55 72 120 -2 64 -9 60 126
84 132 24 131 24 131 -5z m637 -17 c29 -27 29 -39 2 -58 -12 -8 -39 -30 -61
-47 -61 -50 -67 -46 -44 31 28 94 59 116 103 74z"/>
</g>
</svg>
