<?xml version="1.0" standalone="no"?>
<!DOCTYPE svg PUBLIC "-//W3C//DTD SVG 20010904//EN"
 "http://www.w3.org/TR/2001/REC-SVG-20010904/DTD/svg10.dtd">
<svg version="1.0" xmlns="http://www.w3.org/2000/svg"
 width="1280.000000pt" height="1262.000000pt" viewBox="0 0 1280.000000 1262.000000"
 preserveAspectRatio="xMidYMid meet">
<metadata>
Created by potrace 1.15, written by Peter Selinger 2001-2017
</metadata>
<g transform="translate(0.000000,1262.000000) scale(0.100000,-0.100000)"
fill="#000000" stroke="none">
<path d="M6105 12614 c-516 -31 -863 -83 -1310 -196 -807 -203 -1584 -575
-2260 -1080 -1343 -1003 -2235 -2494 -2469 -4130 -49 -335 -60 -507 -60 -898
0 -391 11 -563 59 -896 235 -1637 1127 -3129 2470 -4132 904 -676 1974 -1103
3095 -1236 270 -32 425 -40 770 -40 346 -1 495 7 770 40 1121 133 2190 560
3095 1236 1344 1004 2235 2495 2470 4132 48 333 59 505 59 896 0 391 -11 563
-60 898 -286 1998 -1549 3757 -3368 4693 -761 391 -1537 615 -2406 695 -155
14 -723 26 -855 18z"/>
</g>
</svg>
