<?xml version="1.0" standalone="no"?>
<!DOCTYPE svg PUBLIC "-//W3C//DTD SVG 20010904//EN"
 "http://www.w3.org/TR/2001/REC-SVG-20010904/DTD/svg10.dtd">
<svg version="1.0" xmlns="http://www.w3.org/2000/svg"
 width="1280.000000pt" height="1256.000000pt" viewBox="0 0 1280.000000 1256.000000"
 preserveAspectRatio="xMidYMid meet">
<metadata>
Created by potrace 1.15, written by Peter Selinger 2001-2017
</metadata>
<g transform="translate(0.000000,1256.000000) scale(0.100000,-0.100000)"
fill="#000000" stroke="none">
<path d="M10118 12525 c-2 -2 -60 -6 -128 -10 -179 -8 -247 -14 -294 -26 -22
-6 -54 -13 -71 -16 -16 -3 -34 -9 -40 -13 -5 -4 -50 -20 -100 -34 -124 -38
-238 -77 -251 -87 -36 -28 -259 -99 -324 -104 -14 0 -52 -7 -85 -14 -33 -8
-65 -14 -72 -15 -7 -1 -15 -5 -19 -8 -3 -4 -11 -5 -18 -2 -7 3 -26 -2 -42 -11
-16 -8 -35 -15 -42 -15 -7 0 -20 -4 -30 -9 -9 -5 -48 -21 -87 -37 -38 -15
-125 -61 -193 -103 -68 -42 -138 -85 -157 -96 -29 -18 -84 -72 -140 -137 -22
-26 -71 -128 -108 -223 -39 -102 -47 -127 -47 -150 0 -17 -7 -28 -22 -34 -13
-5 -33 -17 -45 -27 -43 -38 -60 -49 -96 -68 -20 -11 -37 -23 -37 -28 0 -4 -4
-8 -10 -8 -5 0 -30 -16 -56 -35 -25 -19 -52 -35 -60 -35 -8 0 -17 -7 -20 -15
-3 -8 -14 -17 -24 -20 -22 -7 -54 -54 -53 -77 1 -10 -2 -20 -7 -23 -5 -3 -7
-19 -3 -35 5 -25 -1 -36 -41 -75 -26 -25 -58 -52 -71 -61 -14 -9 -25 -21 -25
-27 0 -6 -7 -18 -16 -28 -13 -14 -16 -43 -18 -137 -1 -116 -2 -119 -40 -193
-39 -74 -95 -159 -169 -254 -40 -52 -276 -307 -289 -313 -5 -2 -23 -18 -41
-35 -18 -18 -51 -47 -72 -65 -57 -49 -195 -183 -195 -191 0 -12 -92 -61 -136
-72 -25 -7 -51 -20 -57 -30 -7 -11 -20 -19 -30 -19 -20 0 -101 -44 -131 -72
-11 -10 -28 -18 -38 -18 -9 0 -22 -9 -28 -20 -6 -11 -21 -20 -34 -20 -13 0
-38 -13 -55 -29 -18 -17 -42 -33 -53 -37 -12 -3 -26 -11 -32 -16 -21 -17 -129
-67 -136 -63 -4 3 -34 -4 -65 -15 -32 -11 -68 -20 -80 -20 -11 0 -54 -21 -95
-46 -41 -26 -97 -58 -125 -71 -77 -37 -109 -56 -151 -89 -21 -17 -47 -34 -57
-37 -9 -4 -21 -17 -26 -29 -21 -54 -187 -182 -384 -295 -142 -82 -214 -145
-273 -241 -68 -111 -331 -372 -394 -391 -25 -7 -72 -29 -104 -48 -66 -38 -176
-122 -176 -133 0 -7 -126 -108 -179 -142 -40 -27 -218 -206 -267 -270 -24 -31
-48 -68 -53 -81 -11 -29 -84 -133 -176 -252 -33 -44 -73 -100 -86 -125 -42
-73 -88 -149 -155 -251 -35 -52 -80 -129 -99 -170 -20 -41 -40 -82 -46 -91 -5
-10 -22 -55 -38 -101 -16 -46 -49 -119 -74 -163 -24 -43 -47 -89 -51 -101 -20
-63 -165 -371 -216 -459 -60 -103 -118 -227 -140 -299 -6 -22 -15 -49 -20 -60
-41 -92 -137 -390 -165 -515 -7 -30 -22 -82 -33 -115 -11 -33 -32 -98 -47
-145 -15 -47 -36 -102 -47 -123 -21 -42 -68 -197 -68 -225 0 -19 -34 -62 -49
-62 -4 0 -16 9 -26 20 -10 11 -24 20 -32 20 -7 0 -13 5 -13 11 0 15 -116 139
-151 162 -15 10 -38 20 -51 21 -13 2 -31 7 -41 11 -10 4 -26 9 -35 10 -10 1
-30 7 -47 15 -16 7 -32 14 -35 15 -51 19 -70 28 -70 34 0 19 -136 52 -167 40
-16 -6 -34 -4 -59 9 -34 16 -37 16 -49 -1 -13 -18 -40 -23 -50 -8 -6 10 -87 7
-104 -4 -6 -3 -11 -13 -11 -21 0 -8 -6 -14 -14 -14 -8 0 -21 -3 -30 -6 -11 -4
-19 2 -25 19 -5 13 -19 27 -30 30 -12 3 -21 12 -21 21 0 20 -50 29 -164 30
-63 1 -91 -3 -94 -12 -2 -7 -13 -10 -28 -6 -15 4 -24 2 -24 -5 0 -7 -6 -11
-13 -10 -30 4 -47 -2 -47 -17 0 -12 -7 -15 -27 -11 -35 7 -93 -21 -93 -45 0
-12 -7 -18 -24 -18 -26 0 -70 -45 -60 -61 3 -5 -2 -9 -10 -9 -9 0 -16 -7 -16
-15 0 -8 -4 -15 -10 -15 -5 0 -10 -8 -10 -18 0 -9 -12 -35 -26 -56 -20 -28
-23 -40 -14 -46 9 -6 9 -9 -1 -12 -8 -3 -15 -20 -16 -39 -8 -125 -9 -217 -2
-248 5 -20 11 -58 14 -86 6 -56 32 -180 45 -210 5 -11 14 -37 20 -57 6 -21 16
-40 21 -43 5 -4 9 -15 9 -26 0 -11 6 -22 14 -25 18 -7 36 -51 39 -95 1 -19 12
-51 25 -72 12 -21 22 -42 22 -46 0 -5 6 -14 13 -20 8 -6 19 -36 26 -67 7 -30
19 -58 27 -61 8 -3 12 -9 9 -13 -2 -4 4 -15 15 -25 11 -10 20 -23 20 -29 0 -7
23 -32 50 -56 28 -25 60 -54 73 -65 30 -28 77 -57 77 -49 0 4 8 0 18 -9 27
-25 78 -33 85 -14 11 28 60 6 73 -33 27 -81 331 -367 454 -427 36 -17 88 -40
115 -51 28 -11 142 -59 255 -107 229 -96 310 -122 420 -129 41 -3 95 -9 120
-14 44 -8 182 -81 196 -103 3 -6 61 -54 128 -107 66 -53 127 -105 135 -115 21
-30 184 -102 296 -132 62 -16 155 -53 245 -97 95 -46 191 -84 280 -109 74 -22
173 -53 219 -69 46 -17 95 -30 109 -30 43 0 234 -59 308 -95 40 -19 81 -35 91
-35 22 0 166 -122 201 -170 13 -16 31 -30 42 -30 14 0 20 -7 20 -21 0 -11 13
-37 29 -57 31 -39 52 -90 32 -78 -10 7 -12 3 -15 -31 -1 -6 -9 -20 -19 -31
-13 -14 -15 -22 -7 -27 6 -4 8 -14 6 -23 -11 -33 -14 -197 -5 -208 11 -13 8
-36 -5 -46 -18 -12 28 -71 67 -84 21 -7 50 -22 64 -34 51 -40 91 -43 189 -14
133 40 187 52 324 75 111 18 150 20 345 14 125 -3 317 -17 445 -31 212 -24
234 -25 381 -13 192 15 393 7 514 -19 64 -15 140 -22 264 -25 l175 -4 30 -36
c37 -42 87 -59 168 -58 62 1 82 9 150 62 36 29 139 71 178 73 14 1 31 5 38 9
6 5 17 5 22 2 6 -3 10 -2 10 3 0 5 12 14 26 21 19 8 25 17 21 32 -3 12 0 22 8
25 8 3 17 19 20 35 4 16 14 33 23 38 9 5 14 13 10 17 -4 4 2 20 13 36 23 32
29 122 10 141 -6 6 -11 23 -11 39 0 30 -28 63 -84 98 -20 12 -42 28 -49 35
-26 25 -173 123 -227 150 -243 123 -603 162 -835 91 -111 -34 -194 -46 -316
-45 -75 1 -116 -3 -149 -15 -59 -23 -191 -46 -260 -46 -88 0 -247 40 -277 70
-20 20 -22 26 -10 28 12 2 14 8 8 20 -26 52 -51 111 -51 121 0 6 -5 11 -10 11
-15 0 -6 187 10 225 7 17 20 46 28 65 8 19 23 46 33 59 11 13 19 34 19 46 0
12 14 36 30 53 17 18 30 41 30 53 0 15 5 19 15 15 16 -6 19 6 16 64 -3 34 -2
34 13 15 16 -19 16 -19 10 8 -4 18 -2 27 6 27 8 0 10 8 7 22 -9 35 34 68 91
70 52 1 52 1 104 11 43 9 92 47 113 88 23 43 20 156 -5 204 -11 22 -20 44 -20
50 0 6 -9 29 -21 50 -26 51 -29 103 -6 120 10 7 70 14 154 18 291 13 452 44
811 158 181 57 355 92 420 84 58 -7 92 -31 92 -66 0 -11 12 -40 26 -65 14 -24
24 -53 21 -64 -3 -10 1 -27 9 -38 7 -11 11 -32 8 -47 -4 -21 3 -37 26 -66 16
-21 30 -44 30 -51 0 -7 9 -24 19 -37 20 -27 17 -73 -5 -64 -14 5 -16 -20 -3
-42 13 -22 19 -65 9 -65 -13 0 0 -61 17 -78 7 -7 13 -19 13 -25 0 -14 17 -30
72 -67 40 -27 47 -39 85 -145 14 -38 58 -135 98 -215 40 -80 96 -193 125 -253
64 -128 138 -216 214 -252 78 -37 205 -183 267 -307 38 -76 58 -104 95 -132
69 -53 138 -119 201 -194 135 -160 164 -189 272 -271 187 -142 190 -144 233
-144 21 0 54 9 73 19 29 16 39 16 68 6 18 -7 43 -12 55 -12 36 0 86 37 92 67
6 34 41 53 97 53 50 0 156 46 205 88 40 36 77 52 118 52 33 0 60 31 53 60 -3
11 -16 30 -30 44 l-24 24 28 14 c43 20 41 46 -7 90 -30 28 -41 45 -37 58 3 14
-4 28 -24 45 -17 13 -44 55 -61 92 -37 78 -184 282 -225 311 -53 37 -128 71
-193 87 -36 9 -86 27 -111 41 -26 13 -51 24 -57 24 -5 0 -38 19 -73 42 -57 38
-100 78 -164 150 -12 13 -45 46 -75 75 -62 58 -149 164 -180 215 -21 37 -34
94 -45 198 -11 110 -35 251 -54 320 -11 36 -29 101 -41 145 -12 44 -28 97 -36
117 -27 74 -105 345 -124 433 -10 50 -24 108 -29 130 -20 81 -31 256 -31 498
0 136 -2 268 -6 295 -4 30 0 72 11 117 10 39 18 81 20 95 7 82 27 109 55 75 7
-8 19 -15 26 -15 16 0 32 -30 73 -133 17 -41 53 -115 81 -164 28 -48 74 -135
102 -192 97 -201 169 -289 284 -353 89 -49 220 -191 273 -295 26 -53 54 -92
77 -110 100 -77 176 -144 219 -194 111 -125 182 -197 220 -222 22 -14 72 -48
110 -76 167 -122 184 -128 261 -89 39 19 47 20 83 8 60 -20 126 9 136 59 7 38
24 49 83 57 63 7 172 57 224 102 44 39 71 52 105 52 57 0 70 48 27 99 l-26 31
25 9 c13 5 27 19 30 31 6 22 0 30 -57 77 -15 12 -26 32 -26 45 0 15 -11 32
-28 45 -15 11 -44 53 -65 94 -21 41 -59 101 -85 133 -26 32 -63 79 -82 104
-45 59 -150 116 -250 138 -41 8 -99 27 -128 40 -29 13 -57 24 -63 24 -5 0 -22
8 -37 19 -15 10 -54 36 -86 57 -33 21 -67 53 -78 70 -10 16 -41 49 -70 73 -78
62 -206 209 -233 266 -13 28 -31 97 -40 155 -9 58 -23 141 -31 185 -18 96 -52
203 -194 619 -39 115 -70 216 -68 224 2 8 12 20 23 26 22 12 45 38 40 46 -2 3
10 5 26 6 34 1 76 41 71 68 -3 12 0 16 8 11 13 -8 52 23 45 36 -6 8 33 49 47
49 4 0 5 6 3 13 -3 6 13 31 35 55 22 24 40 49 40 57 0 8 5 15 10 15 6 0 10 6
10 13 0 7 16 26 36 42 20 17 43 39 52 49 38 44 78 76 94 76 10 0 18 7 18 15 0
8 10 20 23 26 12 6 45 29 73 50 28 22 56 39 62 39 6 0 17 18 23 40 7 22 17 40
24 40 12 0 41 60 49 102 2 15 7 32 11 37 10 17 13 95 4 118 -6 16 -4 25 8 31
10 6 16 26 18 58 2 27 4 49 5 49 2 0 4 27 6 60 6 101 10 130 16 141 4 5 3 16
-1 23 -5 7 -7 45 -5 85 2 39 6 118 8 176 2 58 7 112 10 120 3 8 8 45 10 81 2
37 9 76 15 88 28 54 29 59 20 68 -6 6 -6 19 0 36 6 15 8 34 4 43 -3 8 -1 25 5
37 27 53 41 111 29 119 -11 7 -2 12 16 9 4 -1 3 8 -3 19 -6 11 -7 20 -1 20 10
0 21 57 12 66 -7 7 -9 74 -2 74 12 0 -2 390 -15 424 -4 11 -2 21 7 27 12 8 11
11 -3 20 -11 6 -18 22 -18 39 0 17 -4 30 -9 30 -5 0 -8 16 -7 35 2 20 -1 38
-6 41 -5 3 -7 12 -4 20 3 8 -1 17 -9 20 -9 4 -13 16 -11 35 2 19 -2 33 -13 39
-10 6 -11 10 -3 10 13 0 17 30 4 30 -4 0 -8 10 -9 22 -2 25 -42 60 -58 51 -5
-4 -7 -3 -3 2 4 4 3 14 -4 22 -8 10 -6 19 12 38 18 19 22 32 17 59 -4 25 0 39
14 55 10 11 19 24 19 30 0 11 89 91 101 91 4 0 20 5 36 11 15 6 53 11 85 10
45 -2 58 1 67 16 10 17 10 17 11 -1 0 -19 0 -19 21 0 11 10 44 24 72 29 42 8
52 15 58 35 5 21 8 22 13 8 6 -13 14 -14 38 -8 16 5 35 13 41 18 7 5 25 12 40
16 16 4 46 18 68 31 21 14 44 25 51 25 7 0 19 9 26 20 7 11 18 20 26 20 7 0
27 7 45 16 17 9 38 13 46 10 9 -3 15 0 15 8 0 14 35 36 64 40 10 1 24 10 31
19 7 9 22 17 34 17 11 0 21 4 21 8 0 16 39 54 48 48 6 -3 12 1 15 9 9 21 87
40 98 23 7 -10 9 -9 9 5 0 9 7 17 15 17 8 0 15 4 15 9 0 5 13 14 29 21 34 14
58 4 90 -36 12 -15 21 -22 21 -17 0 5 -16 24 -35 43 -31 30 -33 34 -17 46 10
8 21 9 26 3 14 -13 29 -11 20 2 -5 8 1 10 19 6 21 -6 24 -4 20 11 -3 13 2 18
22 20 25 2 116 64 178 120 15 14 27 22 27 17 0 -6 9 6 19 25 11 19 24 34 31
32 6 -1 9 2 5 8 -3 5 -1 10 4 10 6 0 11 6 11 14 0 8 7 17 16 20 8 3 13 10 9
16 -11 18 26 60 54 61 l26 1 -25 7 -24 7 24 17 c13 9 33 17 43 17 10 0 15 5
12 10 -3 6 4 10 17 11 13 0 18 3 11 5 -12 5 56 84 72 84 10 0 45 40 45 51 0 4
11 20 25 35 14 15 25 39 25 53 0 14 8 40 19 56 13 22 16 37 10 54 -5 12 -7 26
-4 31 3 4 -1 28 -9 53 -8 25 -12 48 -9 50 2 3 -5 21 -16 41 -12 20 -22 50 -23
67 -1 17 -12 41 -23 54 -25 28 -42 53 -57 85 -7 14 -21 33 -32 42 -16 14 -18
18 -6 19 8 0 4 4 -10 8 -19 5 -25 14 -25 34 1 25 0 25 -17 10 -17 -15 -20 -14
-43 11 -14 15 -25 33 -25 40 0 7 -9 21 -20 31 -10 9 -19 20 -18 24 2 22 -5 31
-24 31 -20 0 -20 1 -4 19 17 19 17 20 -10 23 -21 2 -30 10 -36 33 -21 70 -78
186 -94 192 -6 2 -12 33 -13 71 -3 121 -32 242 -61 262 -4 3 -10 15 -14 27 -8
25 26 63 56 63 11 0 17 4 14 9 -3 5 1 14 9 21 15 13 21 50 7 50 -14 0 -34 43
-37 83 -2 22 -8 43 -13 46 -5 3 -15 28 -23 55 -10 36 -20 51 -39 57 -30 11
-64 26 -108 47 -19 9 -47 15 -63 14 -39 -3 -158 94 -223 183 -17 22 -36 44
-43 48 -7 4 -19 20 -27 35 -8 15 -26 39 -40 54 -14 15 -26 30 -26 33 0 4 -6
12 -12 20 -7 7 -31 34 -53 59 -52 61 -187 196 -196 196 -3 0 -19 10 -35 22
-15 12 -34 23 -41 24 -8 1 -26 10 -41 20 -15 10 -32 17 -39 16 -6 -1 -14 2
-18 8 -3 5 -13 10 -22 10 -9 0 -24 7 -33 15 -10 9 -27 17 -38 20 -12 2 -31 13
-43 24 -12 11 -26 18 -30 15 -5 -3 -19 2 -31 9 -50 32 -220 66 -349 71 -70 3
-129 3 -131 1z m2200 -2730 c-3 -3 -9 2 -12 12 -6 14 -5 15 5 6 7 -7 10 -15 7
-18z m-11100 -5414 c10 -6 8 -10 -9 -14 -26 -7 -34 -3 -24 12 7 13 15 14 33 2z"/>
</g>
</svg>
