<?xml version="1.0" standalone="no"?>
<!DOCTYPE svg PUBLIC "-//W3C//DTD SVG 20010904//EN"
 "http://www.w3.org/TR/2001/REC-SVG-20010904/DTD/svg10.dtd">
<svg version="1.0" xmlns="http://www.w3.org/2000/svg"
 width="990.000000pt" height="1280.000000pt" viewBox="0 0 990.000000 1280.000000"
 preserveAspectRatio="xMidYMid meet">
<metadata>
Created by potrace 1.15, written by Peter Selinger 2001-2017
</metadata>
<g transform="translate(0.000000,1280.000000) scale(0.100000,-0.100000)"
fill="#000000" stroke="none">
<path d="M2386 12769 c-16 -17 -45 -41 -66 -54 -79 -50 -110 -115 -75 -161 22
-30 18 -52 -20 -104 -26 -36 -35 -58 -35 -88 0 -40 -1 -41 -37 -47 -326 -56
-574 -152 -822 -319 l-115 -76 -30 29 c-23 21 -44 30 -83 34 -63 7 -93 25 -93
55 0 13 -12 34 -26 49 -27 27 -19 27 -210 7 l-62 -6 -6 -62 c-20 -191 -20
-183 7 -210 15 -14 36 -26 49 -26 30 0 46 -27 54 -87 4 -36 13 -57 37 -81 23
-24 29 -36 22 -47 -196 -279 -313 -533 -364 -792 -10 -54 -22 -115 -26 -135
-6 -37 -7 -38 -47 -38 -29 0 -52 -8 -77 -27 -20 -15 -37 -31 -39 -35 -6 -13
-56 -8 -76 7 -32 24 -72 18 -111 -16 -20 -18 -42 -44 -50 -58 -7 -14 -30 -43
-49 -65 l-36 -39 37 -42 c21 -24 51 -62 66 -85 17 -25 42 -47 64 -57 34 -14
40 -13 72 3 46 22 67 19 110 -17 28 -23 45 -29 83 -29 47 0 47 0 53 -37 53
-338 182 -653 367 -901 l32 -42 -31 -33 c-23 -25 -32 -44 -36 -86 -7 -59 -20
-81 -49 -81 -11 0 -33 -14 -50 -31 -30 -29 -30 -32 -24 -97 4 -37 10 -92 13
-123 l5 -57 77 -7 c144 -14 167 -12 195 14 14 14 26 34 26 46 0 22 31 58 46
53 30 -8 104 16 128 41 l27 28 122 -81 c134 -89 284 -166 420 -216 108 -39
293 -86 375 -96 l62 -7 0 -45 c0 -34 7 -54 27 -81 15 -20 31 -37 35 -39 13 -6
9 -42 -9 -72 -26 -45 -9 -96 47 -137 25 -18 64 -49 87 -68 23 -19 45 -35 50
-35 5 0 20 12 34 26 13 14 47 41 76 60 76 51 103 127 57 165 -19 15 -10 42 32
102 24 33 34 58 34 85 l0 37 123 22 c238 43 495 145 700 279 56 36 112 75 125
87 l22 21 33 -31 c28 -28 50 -36 117 -46 29 -5 46 -22 56 -57 6 -23 21 -41 43
-54 31 -18 40 -19 103 -8 37 7 89 12 113 12 l45 0 0 45 c0 24 5 76 12 113 11
63 10 72 -8 103 -13 22 -31 37 -54 43 -46 13 -57 29 -64 97 -5 44 -13 62 -36
84 -30 28 -30 29 -11 49 10 12 49 67 85 123 134 206 235 459 279 701 l24 127
43 3 c27 2 59 14 84 31 51 35 82 43 96 26 36 -43 114 -17 159 54 17 25 44 60
61 76 16 16 30 33 30 38 0 5 -16 27 -35 50 -19 23 -50 62 -68 87 -41 56 -92
74 -139 47 -42 -24 -58 -22 -103 18 -34 29 -48 35 -87 35 -45 0 -48 2 -48 26
0 53 -42 233 -85 362 -56 168 -128 314 -231 469 l-81 122 28 27 c25 24 49 98
41 128 -5 15 31 46 53 46 12 0 32 12 46 26 26 28 28 51 14 195 l-7 76 -67 7
c-194 20 -177 21 -211 -12 -16 -17 -30 -39 -30 -50 0 -29 -22 -42 -81 -49 -42
-4 -61 -13 -86 -36 l-33 -31 -37 28 c-161 119 -364 224 -543 283 -105 35 -183
54 -367 89 -20 4 -23 11 -23 47 0 33 -7 50 -35 81 -42 48 -46 70 -21 116 17
33 17 38 3 72 -9 22 -32 48 -57 65 -23 15 -61 45 -85 66 -23 20 -44 37 -46 37
-2 -1 -17 -15 -33 -31z m-196 -950 c0 -6 14 -27 30 -46 35 -40 37 -60 10 -138
-25 -73 -26 -120 -2 -137 32 -23 36 -39 13 -54 -25 -18 -26 -27 -5 -49 15 -15
15 -17 -5 -31 -27 -19 -27 -61 -1 -137 11 -31 20 -70 20 -85 0 -16 -9 -41 -20
-55 -11 -14 -20 -38 -20 -54 0 -23 -7 -31 -42 -46 -41 -17 -42 -17 -67 6 -14
13 -37 24 -50 25 -33 1 -59 28 -93 97 -39 78 -55 95 -88 95 -21 0 -29 6 -34
25 -5 20 -13 25 -36 25 -30 0 -34 7 -30 43 3 30 -26 63 -77 87 -26 12 -63 33
-80 47 -28 20 -33 30 -33 67 0 23 -5 47 -12 54 -14 14 -19 10 67 65 129 82
264 141 419 182 102 27 136 30 136 14z m575 -8 c109 -26 213 -65 319 -118 126
-63 197 -112 192 -132 -3 -9 -7 -36 -10 -61 -6 -50 -11 -56 -109 -107 -67 -35
-72 -43 -79 -103 -2 -19 -10 -26 -33 -30 -21 -4 -31 -11 -33 -28 -3 -17 -10
-22 -32 -22 -36 0 -53 -18 -89 -89 -40 -79 -61 -101 -100 -106 -18 -2 -43 -13
-55 -23 -21 -19 -22 -19 -63 0 -39 17 -43 22 -43 53 0 19 -4 35 -8 35 -5 0
-14 10 -19 23 -12 26 -4 85 21 156 21 58 20 77 -5 102 -15 15 -18 24 -10 32
16 16 14 47 -4 53 -21 8 -19 18 10 52 29 34 30 51 9 107 -8 22 -18 60 -23 84
-8 41 -7 48 20 80 16 20 29 41 29 48 0 17 21 16 115 -6z m-1470 -590 c50 -2
65 -16 110 -102 36 -68 60 -92 93 -88 35 3 42 -2 42 -31 0 -23 5 -31 25 -36
19 -5 25 -13 25 -34 0 -33 17 -49 95 -88 69 -34 96 -60 97 -93 1 -13 12 -36
25 -50 23 -25 23 -26 6 -67 -15 -35 -23 -42 -46 -42 -16 0 -40 -9 -54 -20 -14
-11 -39 -20 -55 -20 -15 0 -54 9 -85 20 -76 26 -118 26 -137 -1 -14 -20 -16
-20 -31 -5 -22 21 -31 20 -49 -5 -15 -23 -31 -19 -54 13 -17 24 -64 23 -137
-2 -78 -27 -98 -25 -138 10 -19 17 -40 30 -46 30 -16 0 -14 24 14 131 40 157
90 275 178 416 39 63 54 80 66 74 9 -4 34 -9 56 -10z m2369 -48 c87 -136 168
-328 195 -468 7 -33 15 -68 17 -77 3 -11 0 -18 -9 -18 -7 0 -29 -13 -47 -30
-40 -35 -57 -37 -142 -10 -82 26 -104 25 -139 -5 -30 -24 -30 -24 -49 -5 -24
24 -34 25 -50 5 -12 -14 -15 -13 -32 5 -24 25 -56 25 -136 0 -81 -25 -118 -25
-139 0 -11 12 -30 20 -49 20 -28 0 -34 5 -48 41 -16 40 -16 43 2 63 11 11 22
37 26 57 7 39 36 64 129 108 51 25 72 51 64 82 -4 13 0 19 13 19 25 0 43 25
35 50 -6 20 4 25 47 21 32 -4 55 18 87 81 49 98 59 107 114 109 26 1 50 6 53
11 9 14 13 10 58 -59z m-2481 -994 c63 -25 83 -24 119 6 34 29 44 31 52 10 6
-18 37 -20 53 -4 8 8 17 5 32 -10 25 -25 44 -26 102 -5 87 30 131 34 160 13
15 -10 41 -19 58 -19 26 0 33 -6 49 -42 19 -42 19 -43 0 -64 -10 -12 -21 -37
-23 -55 -5 -39 -27 -60 -106 -100 -71 -36 -89 -53 -89 -89 0 -22 -5 -29 -22
-32 -17 -2 -24 -12 -28 -33 -4 -23 -11 -31 -30 -33 -61 -7 -67 -12 -110 -93
-47 -86 -56 -93 -132 -101 l-47 -5 -40 61 c-86 132 -161 313 -196 469 -17 76
-17 79 1 92 11 7 32 24 48 38 33 29 66 28 149 -4z m2106 -1 c69 -23 94 -23
116 2 13 14 22 17 29 10 15 -15 53 -12 60 5 8 21 19 19 50 -10 32 -29 48 -31
107 -9 24 8 63 19 86 23 39 8 46 6 82 -25 21 -19 44 -34 50 -34 7 0 9 -10 5
-27 -49 -226 -115 -388 -222 -551 -23 -34 -39 -49 -46 -43 -6 4 -30 11 -54 14
-55 7 -67 18 -104 91 -40 80 -55 96 -92 96 -40 0 -51 9 -51 40 0 20 -6 26 -26
28 -21 2 -26 8 -22 22 8 32 -15 58 -88 96 -74 39 -109 73 -109 107 0 11 -9 31
-21 43 -21 22 -21 24 -4 68 16 42 21 46 52 46 20 0 42 8 54 19 24 22 59 20
148 -11z m-1119 -414 c34 -14 40 -21 40 -46 0 -16 9 -41 20 -55 11 -14 20 -38
20 -53 0 -15 -9 -53 -20 -85 -25 -74 -25 -109 0 -133 18 -17 19 -20 5 -32 -20
-16 -19 -26 5 -50 19 -19 19 -19 -5 -49 -30 -35 -31 -57 -5 -139 27 -85 25
-103 -10 -143 -16 -19 -30 -40 -30 -46 0 -7 -4 -13 -9 -13 -22 0 -213 53 -276
77 -156 58 -354 174 -338 196 6 7 11 32 12 57 2 52 13 63 109 111 63 32 85 55
81 87 -4 43 1 53 21 47 25 -8 50 10 50 35 0 13 6 17 19 13 31 -8 57 13 82 64
45 95 69 123 110 129 21 4 46 15 55 25 21 23 15 23 64 3z m574 -3 c10 -10 33
-22 51 -25 39 -8 67 -40 109 -123 27 -55 56 -78 86 -70 14 4 20 -1 22 -22 2
-20 8 -26 28 -26 31 0 40 -11 40 -51 0 -37 16 -52 96 -92 76 -38 84 -48 93
-119 9 -66 17 -58 -103 -129 -129 -77 -313 -145 -483 -179 -28 -6 -33 -4 -33
12 -1 10 -14 33 -29 51 -25 29 -27 37 -20 75 4 23 15 62 23 86 22 59 20 75 -9
107 -29 31 -31 42 -10 50 17 7 20 45 5 60 -7 7 -4 16 10 29 24 22 25 48 4 106
-30 87 -34 131 -13 160 10 15 19 40 19 57 0 24 6 32 38 45 50 20 56 20 76 -2z"/>
<path d="M7449 8794 c-13 -14 -50 -44 -81 -65 -32 -22 -62 -49 -68 -60 -16
-29 -15 -74 2 -101 16 -26 11 -58 -14 -88 -10 -11 -18 -25 -18 -30 0 -6 -4
-10 -10 -10 -5 0 -10 -22 -10 -50 0 -56 9 -51 -120 -71 -246 -38 -530 -156
-773 -322 l-88 -60 -32 30 c-20 19 -45 31 -67 32 -61 5 -68 7 -84 20 -9 8 -16
22 -16 33 0 11 -14 33 -30 50 -30 29 -33 30 -93 24 -34 -4 -90 -9 -123 -12
l-61 -6 -8 -82 c-14 -142 -12 -162 14 -190 14 -15 34 -26 46 -26 33 0 52 -29
58 -89 5 -42 13 -62 37 -86 l30 -31 -41 -55 c-160 -214 -293 -523 -342 -796
l-22 -123 -43 0 c-35 0 -52 -7 -83 -34 -49 -42 -79 -48 -109 -24 -46 37 -105
12 -154 -65 -19 -29 -46 -63 -60 -76 -14 -14 -26 -29 -26 -34 0 -5 17 -29 38
-52 20 -23 50 -61 65 -83 38 -56 94 -75 135 -46 29 22 58 20 90 -6 35 -28 62
-40 105 -46 l42 -6 22 -122 c28 -154 88 -338 158 -484 53 -110 165 -293 209
-340 l21 -24 -32 -28 c-26 -23 -34 -40 -39 -82 -7 -55 -30 -102 -45 -93 -16
11 -66 -24 -79 -55 -10 -25 -11 -45 -2 -95 7 -34 12 -83 12 -107 l0 -45 78 -8
c157 -15 181 -13 208 18 13 15 24 39 24 51 0 23 17 36 50 41 55 7 89 21 116
46 l30 29 55 -41 c143 -107 372 -224 554 -282 102 -33 268 -71 340 -79 27 -3
31 -7 36 -48 7 -54 19 -90 29 -90 4 0 15 -16 25 -36 15 -31 15 -38 2 -52 -39
-46 -25 -109 35 -149 22 -15 61 -46 85 -67 31 -28 48 -37 57 -30 7 5 35 25 62
44 89 63 124 104 124 143 0 19 -7 40 -15 47 -25 21 -18 62 20 104 29 32 35 48
35 83 0 26 5 45 13 47 6 2 57 12 112 21 271 47 559 170 785 334 l68 50 27 -29
c19 -20 44 -31 88 -40 72 -14 87 -24 87 -55 0 -14 13 -34 32 -50 29 -25 37
-27 88 -21 30 4 83 9 116 12 l62 6 6 62 c20 187 20 181 -5 209 -13 15 -35 28
-49 29 -34 4 -50 28 -57 90 -4 40 -13 61 -35 84 l-29 31 77 114 c164 241 263
499 318 820 6 35 9 37 54 44 40 6 96 34 112 56 10 14 47 14 65 -1 26 -21 89
-19 115 5 12 11 36 40 53 65 16 25 44 60 61 78 30 32 30 32 10 46 -11 8 -33
34 -49 58 -70 105 -128 138 -180 104 -25 -17 -71 -22 -77 -8 -1 4 -19 20 -39
35 -25 19 -48 27 -77 27 -40 0 -41 1 -47 38 -53 327 -172 625 -347 863 -26 37
-48 70 -48 75 0 4 13 22 29 39 22 21 31 43 35 78 8 62 24 87 58 87 17 0 34 10
48 28 23 29 23 34 4 215 -6 57 -7 57 -40 57 -19 0 -64 5 -102 12 -37 6 -80 8
-95 4 -37 -9 -67 -41 -67 -71 0 -15 -9 -29 -22 -37 -25 -13 -33 -15 -90 -21
-26 -3 -45 -13 -59 -31 -11 -14 -24 -26 -29 -26 -5 0 -59 35 -122 77 -62 42
-171 105 -243 139 -185 88 -308 126 -592 180 -20 4 -23 11 -23 46 0 29 -8 51
-27 77 -15 20 -31 38 -35 39 -14 6 -9 59 7 72 20 16 19 70 -1 98 -8 12 -49 47
-90 77 -41 30 -74 60 -74 65 0 17 -16 11 -41 -16z m-209 -953 c0 -5 16 -26 35
-47 39 -44 39 -49 2 -167 -14 -46 -18 -72 -12 -81 49 -66 50 -68 32 -78 -20
-11 -22 -39 -5 -56 9 -9 6 -18 -12 -37 -22 -24 -23 -28 -12 -68 46 -161 46
-157 23 -188 -12 -15 -21 -42 -21 -59 0 -27 -6 -33 -42 -49 -41 -18 -44 -18
-63 -1 -11 10 -37 21 -57 24 -41 7 -58 27 -101 112 -34 66 -52 84 -87 84 -22
0 -29 5 -32 23 -2 16 -10 22 -28 22 -31 0 -40 11 -40 52 0 39 -16 56 -89 93
-80 40 -91 51 -96 88 -2 18 -6 46 -10 61 -6 26 -1 32 57 68 131 83 282 149
432 188 101 26 126 29 126 16z m640 -28 c126 -36 242 -86 344 -148 127 -76
121 -71 110 -87 -6 -7 -12 -31 -13 -53 -3 -50 -20 -69 -103 -111 -67 -34 -91
-59 -87 -92 4 -40 -1 -48 -28 -47 -20 0 -31 -7 -38 -22 -6 -16 -18 -23 -36
-23 -32 0 -48 -18 -88 -96 -32 -66 -71 -104 -104 -104 -11 0 -30 -9 -42 -20
-21 -20 -23 -20 -63 -3 -35 15 -42 23 -42 46 0 16 -9 40 -20 54 -25 32 -25 55
0 135 26 82 26 123 0 141 -18 13 -19 16 -5 27 21 17 19 36 -5 53 -21 14 -21
15 5 45 30 36 32 70 5 147 -27 78 -25 98 10 138 17 19 30 40 30 47 0 15 54 7
170 -27z m-1529 -573 c43 0 48 -3 72 -39 14 -21 32 -55 41 -74 23 -55 50 -77
97 -77 36 0 40 -2 34 -20 -8 -25 10 -50 35 -50 13 0 17 -6 13 -19 -8 -32 13
-57 84 -94 92 -50 102 -59 109 -98 4 -19 16 -44 27 -56 20 -22 20 -24 2 -63
-15 -32 -23 -40 -45 -40 -15 0 -37 -9 -50 -20 -13 -11 -37 -20 -55 -20 -18 0
-58 9 -90 20 -74 25 -107 25 -130 0 -13 -14 -22 -17 -29 -10 -15 15 -47 12
-60 -6 -11 -14 -15 -13 -43 10 -37 31 -62 32 -138 6 -79 -27 -106 -25 -146 10
-19 16 -40 30 -47 30 -8 0 -10 9 -6 28 54 237 105 365 207 525 35 55 53 75 60
68 6 -6 32 -11 58 -11z m2455 -205 c75 -157 143 -394 115 -403 -7 -2 -28 -17
-46 -33 -39 -34 -68 -36 -145 -9 -74 26 -104 25 -136 -5 -31 -29 -40 -31 -48
-10 -7 18 -52 20 -59 3 -3 -9 -10 -6 -22 10 -20 28 -54 28 -130 2 -32 -11 -73
-20 -90 -20 -18 0 -44 9 -58 20 -14 11 -38 20 -54 20 -23 0 -31 7 -46 42 -17
41 -17 42 6 67 13 14 24 37 25 50 1 33 23 54 95 91 82 43 97 58 97 92 0 21 5
28 20 28 23 0 39 26 33 51 -5 20 2 23 45 19 32 -2 59 24 94 95 44 87 53 95
109 95 26 0 51 5 55 11 9 15 85 -102 140 -216z m-2369 -835 c10 0 24 5 29 10
7 7 16 4 29 -10 23 -25 47 -25 120 0 69 24 128 26 149 5 8 -8 28 -15 44 -15
33 0 42 -9 62 -58 12 -30 11 -35 -9 -56 -11 -12 -21 -32 -21 -43 0 -34 -39
-72 -111 -108 -70 -36 -95 -63 -86 -96 4 -13 0 -19 -13 -19 -25 0 -43 -25 -35
-50 6 -18 2 -20 -38 -20 -52 0 -62 -10 -106 -97 -35 -71 -61 -93 -111 -93 -20
0 -41 -5 -46 -10 -8 -8 -23 8 -51 52 -93 145 -148 270 -187 421 -36 140 -38
147 -25 147 6 0 27 14 46 30 40 36 67 37 155 10 82 -26 94 -25 131 6 28 23 32
24 43 10 6 -9 20 -16 31 -16z m2159 5 c33 -30 53 -31 129 -5 83 29 118 26 155
-10 17 -16 35 -30 40 -30 15 0 12 -30 -15 -136 -35 -132 -93 -267 -167 -391
-61 -102 -71 -113 -83 -93 -3 6 -19 10 -35 10 -55 0 -75 16 -114 89 -47 90
-59 101 -108 101 -34 0 -40 3 -35 19 6 25 -10 51 -33 51 -15 0 -20 7 -20 29 0
37 -17 54 -89 90 -79 40 -101 61 -106 100 -2 18 -13 43 -23 55 -19 21 -19 22
0 64 16 37 23 42 51 42 18 0 41 7 51 15 27 21 76 19 143 -5 73 -26 98 -25 125
2 14 14 23 18 26 10 5 -17 52 -15 58 3 8 21 19 19 50 -10z m-1369 -422 c38
-16 43 -22 43 -51 0 -19 8 -42 20 -55 24 -25 21 -61 -11 -156 -24 -69 -24 -84
1 -106 14 -13 17 -22 10 -29 -15 -15 -12 -53 5 -60 21 -8 19 -19 -10 -50 -30
-32 -31 -46 -6 -117 35 -103 35 -120 -4 -162 -18 -21 -35 -42 -37 -48 -7 -21
-238 45 -378 108 -41 19 -111 57 -156 85 l-81 51 5 46 c7 72 21 92 93 130 88
48 99 58 99 95 0 40 9 51 40 51 19 0 26 6 28 26 3 22 7 25 28 21 33 -6 59 19
96 93 39 78 54 93 94 101 18 3 40 15 50 25 21 23 19 23 71 2z m567 -2 c9 -10
34 -21 55 -25 40 -6 73 -43 105 -119 19 -46 50 -77 79 -77 14 0 26 -9 32 -22
7 -16 18 -23 38 -23 27 1 32 -7 28 -47 -4 -33 20 -58 87 -93 95 -49 101 -55
103 -106 1 -24 6 -49 11 -56 20 -25 -219 -159 -381 -213 -70 -24 -214 -60
-237 -60 -2 0 -4 6 -4 13 0 7 -13 29 -30 47 -35 40 -37 61 -10 137 27 76 25
109 -5 145 -26 30 -26 31 -5 45 24 17 26 36 5 53 -14 11 -13 14 5 27 26 18 26
59 0 141 -25 80 -25 103 0 135 11 14 20 38 20 55 0 24 6 32 38 45 49 20 46 20
66 -2z"/>
<path d="M2404 4809 c-10 -12 -45 -39 -76 -60 -31 -22 -64 -49 -72 -61 -20
-29 -20 -82 -1 -102 21 -20 10 -61 -27 -106 -22 -27 -28 -45 -28 -82 0 -47 0
-47 -37 -53 -336 -53 -630 -171 -884 -355 l-67 -48 -31 32 c-21 22 -43 33 -64
35 -62 4 -72 6 -95 22 -14 10 -20 22 -16 32 4 11 -5 28 -25 48 -30 30 -35 31
-89 25 -31 -3 -85 -9 -119 -12 l-63 -7 0 -53 c0 -29 -5 -75 -11 -103 -8 -41
-7 -55 5 -80 17 -33 44 -51 74 -51 23 0 43 -35 46 -81 2 -19 4 -39 5 -46 0 -7
15 -28 31 -47 l30 -34 -75 -111 c-152 -225 -263 -493 -308 -747 l-22 -124 -46
0 c-35 0 -52 -6 -73 -25 -15 -14 -31 -25 -37 -25 -5 0 -9 -4 -9 -9 0 -19 -52
-19 -72 1 -16 16 -29 19 -55 15 -44 -7 -56 -18 -103 -87 -21 -30 -47 -63 -58
-73 l-21 -19 42 -55 c81 -106 111 -133 150 -133 19 0 40 7 47 15 21 25 59 17
103 -20 34 -29 48 -35 87 -35 l46 0 18 -107 c52 -309 168 -574 381 -869 7 -10
1 -22 -22 -46 -24 -25 -34 -46 -38 -82 -7 -56 -30 -97 -51 -89 -23 8 -61 -23
-73 -60 -8 -24 -9 -47 -2 -78 6 -24 11 -67 11 -95 l0 -52 52 -5 c29 -3 81 -9
116 -13 43 -5 70 -3 86 6 26 14 48 53 41 72 -8 19 76 52 127 50 20 0 34 8 48
29 12 16 25 29 30 29 5 0 43 -25 86 -55 226 -163 525 -286 797 -331 l107 -17
0 -44 c0 -33 8 -56 29 -87 39 -56 47 -89 27 -105 -22 -19 -20 -73 5 -105 11
-14 45 -42 75 -62 30 -20 61 -45 69 -57 14 -20 15 -20 57 19 24 22 60 50 81
63 63 38 85 103 48 140 -13 13 -18 27 -14 43 8 29 53 98 64 98 5 0 9 21 9 48
l0 47 138 27 c290 56 573 180 799 349 l42 32 36 -32 c20 -17 43 -31 53 -32 83
-3 122 -22 122 -60 0 -18 9 -35 28 -49 28 -23 38 -23 203 -4 l56 6 7 62 c3 33
9 84 12 113 6 49 5 54 -25 84 -20 19 -38 29 -50 26 -11 -2 -23 4 -32 17 -14
22 -15 26 -21 89 -2 27 -12 47 -34 68 l-32 31 82 121 c147 218 250 465 296
707 12 63 23 125 26 138 4 19 11 22 53 22 27 0 51 4 53 8 5 14 72 59 94 64 14
4 28 -1 38 -13 17 -21 66 -25 96 -9 11 6 37 36 59 68 21 31 48 66 60 76 27 25
27 37 -5 67 -14 13 -41 47 -60 75 -48 72 -111 96 -148 55 -16 -17 -63 -18 -76
-1 -24 30 -82 60 -118 60 -46 0 -43 -6 -62 110 -47 280 -181 595 -348 814
l-45 60 33 27 c27 23 33 36 37 80 6 64 27 99 59 99 29 0 61 30 70 67 4 15 2
52 -4 83 -7 31 -12 75 -12 97 l0 41 -60 6 c-33 3 -87 9 -119 12 -55 6 -62 4
-85 -19 -14 -15 -26 -36 -26 -49 0 -35 -48 -59 -120 -60 -8 0 -31 -16 -51 -35
l-37 -35 -58 45 c-211 159 -503 288 -765 337 -63 12 -124 24 -136 26 -19 4
-23 11 -23 45 0 36 -31 96 -61 119 -15 11 -12 57 5 83 28 42 9 95 -46 133 -24
15 -61 45 -84 66 l-40 39 -20 -22z m-175 -999 c17 -19 31 -43 31 -52 0 -10
-11 -52 -25 -95 -14 -43 -25 -81 -25 -84 0 -3 14 -23 30 -44 35 -45 37 -51 10
-58 -24 -6 -27 -42 -3 -55 15 -9 14 -11 -5 -21 -33 -18 -35 -45 -8 -131 31
-97 31 -108 6 -140 -11 -14 -20 -39 -20 -57 0 -28 -5 -34 -47 -53 -46 -20 -47
-20 -67 -1 -12 10 -37 21 -57 25 -40 7 -61 31 -107 123 -32 61 -45 73 -87 73
-17 0 -25 6 -27 23 -2 17 -10 22 -33 22 -26 0 -30 4 -33 30 -6 67 -11 74 -74
106 -102 52 -114 63 -117 117 -1 25 -6 51 -12 58 -12 15 8 32 121 98 106 63
256 125 375 154 110 28 129 30 137 12 3 -8 20 -31 37 -50z m516 49 c162 -32
397 -137 539 -240 5 -4 5 -13 0 -20 -5 -8 -9 -33 -10 -57 -2 -52 -18 -71 -92
-107 -76 -36 -92 -52 -92 -89 0 -43 -14 -60 -47 -61 -22 0 -28 -4 -27 -22 0
-19 -5 -23 -31 -23 -38 0 -51 -14 -95 -97 -38 -72 -58 -93 -94 -97 -14 -1 -36
-12 -49 -24 -23 -22 -23 -22 -72 -3 -45 17 -50 22 -53 52 -2 18 -10 42 -18 53
-19 28 -18 73 6 148 25 80 25 100 0 123 -14 13 -17 22 -10 29 15 15 12 46 -5
52 -22 9 -18 27 10 58 30 33 31 54 4 131 -26 74 -21 124 15 160 14 14 26 33
26 41 0 10 6 14 18 10 9 -2 44 -10 77 -17z m918 -636 c87 -132 155 -288 197
-452 22 -89 25 -131 9 -131 -6 0 -27 -13 -46 -30 -40 -36 -68 -37 -148 -10
-77 27 -107 26 -133 -5 -25 -28 -47 -32 -56 -10 -7 18 -37 20 -54 3 -10 -10
-16 -7 -28 10 -19 27 -49 28 -132 2 -80 -25 -113 -25 -145 0 -14 11 -38 20
-54 20 -25 0 -31 6 -46 47 -17 45 -17 47 2 67 10 12 22 35 25 52 9 40 35 64
113 103 65 32 86 57 81 94 -2 14 2 21 11 19 22 -5 43 20 37 44 -6 23 2 27 84
37 8 1 31 33 51 70 46 88 65 105 119 112 25 3 49 10 54 15 6 6 11 10 12 10 1
0 23 -30 47 -67z m-2363 43 c51 -6 68 -22 107 -101 35 -69 51 -85 87 -85 42 0
60 -13 52 -37 -8 -24 17 -48 39 -39 12 4 15 -1 13 -23 -3 -37 14 -57 76 -88
86 -43 116 -70 116 -105 0 -19 9 -41 21 -55 22 -22 22 -23 5 -68 -16 -41 -21
-45 -51 -45 -20 0 -38 -6 -43 -15 -14 -27 -75 -29 -150 -6 -88 27 -106 26
-133 -1 -15 -16 -23 -19 -26 -10 -7 17 -50 15 -57 -3 -8 -21 -20 -19 -54 10
-36 30 -59 31 -132 5 -80 -28 -113 -26 -148 10 -17 17 -38 30 -46 30 -21 0
-20 7 8 126 30 121 59 201 116 314 62 123 118 202 138 196 9 -3 37 -7 62 -10z
m60 -1026 c13 -24 33 -26 50 -5 11 14 14 13 27 -5 18 -26 59 -26 141 0 80 25
103 25 135 0 14 -11 38 -20 55 -20 25 0 31 -6 46 -43 20 -54 20 -60 -4 -82
-11 -10 -20 -30 -20 -45 0 -33 -28 -59 -106 -98 -72 -36 -89 -54 -86 -94 2
-22 -1 -29 -11 -25 -22 8 -41 -10 -42 -40 0 -26 -3 -28 -42 -31 -47 -4 -55
-11 -104 -101 -38 -71 -64 -91 -119 -91 -20 0 -41 -5 -46 -10 -19 -19 -127
163 -189 318 -36 91 -85 266 -85 303 0 11 7 19 16 19 8 0 29 13 47 30 38 35
54 37 139 10 85 -27 116 -26 144 5 28 30 40 31 54 5z m2178 -5 c34 -29 76 -32
127 -11 19 8 54 18 78 21 40 6 47 4 78 -24 18 -17 42 -31 51 -31 14 0 17 -6
13 -22 -3 -13 -9 -45 -15 -73 -31 -151 -123 -367 -210 -496 -31 -44 -45 -58
-53 -50 -6 6 -26 11 -43 11 -61 0 -79 14 -123 99 -43 83 -48 87 -116 93 -26 3
-30 7 -27 29 3 28 -17 52 -39 47 -8 -2 -13 3 -11 11 8 36 -10 62 -60 87 -100
51 -127 73 -134 113 -4 20 -15 45 -25 56 -17 19 -17 23 -1 68 15 43 20 47 49
47 20 0 41 8 53 20 25 25 52 25 132 0 81 -25 120 -25 143 0 16 18 19 18 30 4
14 -19 55 -11 55 12 0 21 15 17 48 -11z m-1318 -479 c0 -17 9 -42 20 -56 25
-32 25 -44 -5 -137 -31 -97 -31 -99 0 -127 22 -21 23 -25 10 -36 -21 -17 -19
-37 5 -50 27 -14 25 -21 -10 -58 -16 -18 -30 -36 -30 -41 0 -4 11 -43 25 -85
14 -42 25 -85 25 -95 0 -9 -16 -36 -35 -58 -19 -23 -35 -46 -35 -52 0 -14 5
-14 -81 4 -160 34 -342 109 -491 204 -67 42 -77 54 -58 66 6 3 10 25 10 49 0
52 17 69 115 123 l70 38 5 50 c5 47 6 49 35 50 23 0 31 5 33 22 3 17 11 23 40
25 34 3 39 8 75 73 46 85 77 118 110 118 14 0 36 10 47 22 l22 23 49 -20 c44
-18 49 -24 49 -52z m573 26 c37 1 58 -20 97 -95 43 -81 58 -97 91 -97 21 0 28
-5 31 -22 2 -18 10 -23 31 -23 33 -1 47 -18 47 -61 0 -36 16 -52 85 -87 84
-42 98 -58 99 -110 1 -25 4 -49 9 -53 15 -15 6 -25 -60 -68 -136 -88 -299
-156 -468 -197 -94 -22 -105 -23 -105 -6 0 6 -14 27 -30 46 -36 41 -38 74 -10
156 26 76 25 96 -5 129 -28 30 -33 56 -10 56 17 0 21 40 5 56 -7 7 -4 16 10
29 25 23 25 47 0 120 -24 69 -26 124 -5 151 8 10 15 33 15 50 0 27 6 33 48 51
l47 20 25 -23 c14 -12 38 -22 53 -22z"/>
</g>
</svg>
