<?xml version="1.0" standalone="no"?>
<!DOCTYPE svg PUBLIC "-//W3C//DTD SVG 20010904//EN"
 "http://www.w3.org/TR/2001/REC-SVG-20010904/DTD/svg10.dtd">
<svg version="1.0" xmlns="http://www.w3.org/2000/svg"
 width="1280.000000pt" height="1249.000000pt" viewBox="0 0 1280.000000 1249.000000"
 preserveAspectRatio="xMidYMid meet">
<metadata>
Created by potrace 1.15, written by Peter Selinger 2001-2017
</metadata>
<g transform="translate(0.000000,1249.000000) scale(0.100000,-0.100000)"
fill="#000000" stroke="none">
<path d="M7005 11844 c-179 -24 -293 -57 -410 -117 -156 -81 -285 -208 -342
-337 -14 -30 -26 -57 -28 -58 -2 -2 -39 8 -82 23 -187 63 -490 102 -694 91
l-117 -7 -58 37 c-377 241 -916 271 -1330 75 -232 -110 -376 -247 -470 -444
-20 -43 -39 -77 -43 -77 -4 0 -41 12 -82 26 -499 172 -1149 160 -1646 -30
-977 -373 -1347 -1268 -821 -1984 l39 -53 -30 -85 c-90 -249 -132 -548 -111
-803 29 -357 144 -688 347 -996 152 -230 304 -396 567 -617 l28 -24 -67 -170
c-76 -191 -255 -565 -365 -759 -223 -395 -263 -509 -264 -750 0 -151 19 -236
83 -363 147 -292 483 -522 858 -587 156 -27 284 -15 464 45 207 69 374 167
517 304 299 287 362 652 177 1031 -24 50 -78 143 -119 208 -102 157 -276 467
-276 491 0 2 54 -14 120 -35 251 -82 551 -147 850 -184 173 -22 666 -31 855
-16 171 14 398 44 524 70 73 15 91 15 116 5 64 -28 276 -94 359 -113 48 -10
90 -21 93 -24 11 -11 -140 -518 -219 -736 -110 -304 -285 -676 -458 -981 -197
-345 -247 -499 -237 -734 5 -136 22 -207 73 -315 142 -301 503 -549 886 -607
123 -19 221 -13 358 22 339 85 641 300 785 558 157 281 128 619 -83 946 -298
463 -435 762 -658 1439 -68 206 -124 374 -124 375 0 1 25 -1 56 -2 31 -2 124
1 208 8 461 35 865 185 1175 435 66 53 67 54 110 44 222 -50 468 -73 766 -73
360 0 611 30 947 114 l87 22 73 -57 c237 -186 532 -296 875 -327 l132 -12 -73
-141 c-40 -77 -116 -216 -169 -310 -160 -284 -208 -433 -208 -650 0 -111 3
-143 26 -220 91 -311 362 -564 737 -689 287 -95 540 -70 843 84 241 122 404
273 511 474 63 119 86 214 86 361 1 212 -52 357 -232 645 -161 256 -333 592
-400 782 l-14 37 85 89 c347 367 344 860 -9 1234 -88 93 -212 185 -343 253
-106 55 -108 56 -99 83 38 110 57 362 41 528 -63 646 -476 1211 -1169 1598
-56 31 -135 72 -176 91 l-73 33 8 49 c23 141 4 354 -46 508 -124 379 -467 726
-917 927 -306 137 -643 207 -1000 210 -151 1 -154 1 -223 33 -78 37 -180 68
-270 84 -66 12 -263 22 -310 15z"/>
<path d="M9137 4180 c-45 -39 -58 -73 -157 -415 -85 -290 -111 -371 -185 -565
-100 -263 -264 -606 -420 -881 -149 -262 -199 -380 -229 -539 -78 -410 132
-783 564 -1000 259 -130 507 -166 740 -106 244 63 461 185 630 355 188 189
270 392 257 636 -11 197 -66 337 -251 630 -132 209 -310 566 -409 820 -41 105
-125 343 -187 530 -150 458 -195 547 -282 561 -29 5 -41 1 -71 -26z"/>
</g>
</svg>
