<?xml version="1.0" standalone="no"?>
<!DOCTYPE svg PUBLIC "-//W3C//DTD SVG 20010904//EN"
 "http://www.w3.org/TR/2001/REC-SVG-20010904/DTD/svg10.dtd">
<svg version="1.0" xmlns="http://www.w3.org/2000/svg"
 width="1280.000000pt" height="744.000000pt" viewBox="0 0 1280.000000 744.000000"
 preserveAspectRatio="xMidYMid meet">
<metadata>
Created by potrace 1.15, written by Peter Selinger 2001-2017
</metadata>
<g transform="translate(0.000000,744.000000) scale(0.100000,-0.100000)"
fill="#000000" stroke="none">
<path d="M1608 7422 c-16 -10 -28 -25 -28 -35 0 -10 -4 -26 -9 -35 -5 -9 -12
-38 -16 -63 -5 -36 -3 -49 10 -62 25 -26 16 -71 -15 -75 -14 -2 -29 -8 -34
-13 -6 -5 -26 -9 -46 -9 -20 0 -45 -7 -56 -15 -10 -8 -26 -15 -35 -15 -21 0
-49 -32 -49 -56 0 -11 -16 -35 -35 -54 -19 -19 -35 -42 -35 -51 0 -10 -13 -27
-30 -39 -16 -12 -30 -28 -30 -36 0 -8 -9 -27 -20 -42 -32 -43 -36 -94 -12
-145 12 -25 28 -47 36 -50 9 -4 16 -15 16 -26 0 -11 16 -32 35 -47 19 -14 35
-35 35 -45 0 -10 5 -21 11 -25 12 -7 8 -93 -9 -264 -4 -36 -6 -74 -4 -86 3
-22 50 -44 95 -44 14 0 29 -5 32 -10 9 -14 -49 -70 -73 -70 -25 0 -65 -33
-178 -147 -70 -70 -93 -99 -98 -127 -4 -19 -14 -40 -23 -45 -11 -6 -18 -27
-21 -66 -4 -48 -8 -58 -28 -65 -20 -8 -23 -14 -17 -42 6 -30 8 -156 4 -202 -1
-10 7 -27 18 -38 16 -14 21 -31 21 -69 0 -42 3 -52 20 -56 11 -3 20 -14 20
-25 0 -11 9 -22 20 -25 11 -3 20 -9 20 -13 0 -5 11 -21 24 -37 13 -15 25 -37
27 -48 3 -11 12 -20 21 -20 9 0 20 -4 24 -8 4 -4 16 -7 26 -7 12 0 18 -7 18
-21 0 -12 8 -23 20 -26 10 -3 22 -14 25 -24 4 -10 11 -19 17 -19 6 0 21 -11
34 -25 13 -14 34 -25 47 -25 13 0 32 -9 42 -20 10 -11 30 -20 45 -20 19 0 30
-7 38 -24 7 -17 19 -24 34 -24 67 4 96 -2 101 -22 4 -17 14 -20 59 -20 47 0
57 -4 80 -30 14 -16 21 -30 14 -30 -18 0 -136 -79 -143 -96 -3 -8 -11 -14 -18
-14 -28 0 -55 -56 -55 -113 0 -31 -4 -58 -9 -61 -5 -4 -12 -25 -16 -49 -4 -23
-11 -46 -15 -52 -6 -8 -17 -103 -20 -180 -1 -23 13 -81 23 -93 6 -7 11 -43 12
-80 1 -37 7 -80 13 -95 7 -16 12 -36 12 -46 0 -9 4 -21 9 -26 5 -6 11 -21 13
-35 2 -19 10 -26 33 -30 29 -5 30 -8 37 -70 3 -36 4 -72 2 -82 -6 -20 -45 -31
-80 -22 -18 5 -31 1 -47 -14 -18 -17 -40 -21 -117 -26 -52 -2 -96 -5 -96 -5
-1 -1 -4 -10 -7 -20 -4 -15 -16 -20 -62 -23 -31 -1 -59 1 -62 6 -10 15 -3 250
8 261 5 5 9 19 9 30 0 12 9 30 20 40 11 10 20 24 20 32 0 7 11 31 25 53 14 22
25 46 25 55 0 8 5 15 10 15 6 0 10 9 10 20 0 11 5 20 10 20 6 0 10 9 10 19 0
11 4 23 10 26 5 3 10 21 10 39 0 18 7 47 16 65 20 39 11 119 -17 155 -10 13
-19 31 -19 40 0 9 -4 16 -10 16 -5 0 -10 7 -10 15 0 8 -4 23 -9 33 -34 62 -61
136 -61 166 0 20 -4 36 -10 36 -5 0 -10 12 -10 27 0 32 -67 100 -108 109 -15
3 -37 10 -50 15 -13 5 -38 9 -57 9 -19 0 -35 5 -35 10 0 6 -9 10 -20 10 -11 0
-20 6 -20 13 0 8 -7 29 -17 47 -16 33 -16 34 11 55 26 21 28 26 23 86 -9 134
-37 204 -90 229 -58 28 -112 26 -139 -5 -12 -14 -29 -25 -38 -25 -9 0 -21 -14
-28 -33 -15 -40 -16 -253 -2 -262 6 -3 10 -24 10 -46 0 -37 -2 -39 -30 -39
-16 0 -30 -4 -30 -10 0 -5 -24 -10 -54 -10 -30 0 -58 -4 -61 -10 -3 -6 -27
-10 -52 -10 -39 0 -50 -5 -78 -35 -23 -24 -32 -41 -28 -55 4 -15 -4 -31 -25
-53 -30 -32 -62 -87 -62 -107 0 -6 -16 -24 -35 -41 -19 -17 -35 -39 -35 -49 0
-10 -7 -20 -15 -23 -31 -13 -57 -87 -57 -165 0 -41 4 -77 10 -81 5 -3 12 -16
16 -29 4 -12 16 -27 27 -32 10 -6 19 -17 19 -26 0 -28 38 -90 64 -104 16 -8
26 -22 26 -35 0 -12 9 -30 21 -41 17 -15 20 -26 15 -64 -3 -25 -8 -128 -11
-230 -4 -102 -11 -189 -16 -195 -16 -16 -10 -54 10 -65 11 -5 49 -10 84 -10
40 0 68 -5 75 -12 5 -7 10 -73 10 -147 l1 -135 -107 -111 c-213 -220 -321
-433 -352 -693 -20 -161 11 -345 80 -482 15 -30 31 -79 35 -108 5 -36 13 -55
26 -63 10 -5 19 -16 19 -24 0 -8 7 -15 15 -15 8 0 24 -20 35 -45 11 -25 25
-45 30 -45 6 0 10 -8 10 -17 0 -16 15 -28 82 -69 10 -6 29 -21 42 -33 12 -11
27 -21 33 -21 7 0 15 -9 18 -20 3 -11 12 -20 20 -20 7 0 20 -11 29 -25 11 -17
26 -25 46 -25 19 0 33 -7 40 -20 8 -14 21 -20 46 -20 24 0 37 -5 41 -17 9 -24
23 -33 51 -33 13 0 35 -9 49 -20 16 -12 41 -20 66 -20 30 0 46 -6 63 -25 19
-20 33 -25 72 -25 34 0 54 -5 65 -18 13 -14 35 -18 107 -20 74 -2 97 -7 119
-23 26 -19 43 -21 212 -22 166 0 266 0 429 3 40 0 59 5 68 18 10 13 35 18 123
23 93 6 114 10 133 28 17 16 35 21 73 21 37 0 54 5 68 20 14 15 31 20 71 20
43 0 56 4 66 20 9 14 24 20 50 20 48 0 88 16 88 35 0 11 11 15 39 15 31 0 41
4 46 20 4 12 15 20 28 20 37 0 67 12 67 26 0 7 9 18 20 24 11 6 20 17 20 25 0
11 11 15 36 15 30 0 43 8 78 45 25 26 52 45 65 45 11 0 31 11 43 25 12 14 28
25 35 25 7 0 13 5 13 11 0 12 69 79 82 79 4 0 8 5 8 11 0 6 40 51 90 100 74
72 90 94 90 118 0 20 7 34 20 41 11 6 20 20 20 32 0 11 11 31 25 44 16 15 25
34 25 53 0 20 7 34 20 41 14 7 20 21 20 45 0 22 7 39 20 48 17 12 21 32 30
153 5 76 7 203 3 282 -6 131 -8 144 -30 168 -17 18 -23 37 -23 69 0 34 -5 47
-20 55 -13 7 -20 21 -20 40 0 20 -8 35 -25 46 -14 9 -25 21 -25 28 0 6 -9 22
-20 36 -11 14 -20 31 -20 38 0 14 -157 172 -170 172 -4 0 -10 6 -13 13 -6 18
10 262 23 332 19 107 23 172 11 179 -6 4 -11 26 -11 48 0 23 -4 55 -10 72 -5
17 -12 43 -15 59 -3 15 -14 36 -25 47 -11 11 -20 26 -20 34 0 8 -9 21 -19 28
-18 13 -16 16 29 41 70 40 82 68 81 204 0 62 -5 122 -11 132 -5 11 -10 33 -10
50 0 28 -5 32 -62 53 -68 24 -138 79 -138 108 0 20 26 76 52 109 10 13 18 33
18 44 0 11 5 35 12 53 10 28 18 34 52 40 23 3 46 14 53 24 8 11 31 19 64 22
34 4 55 11 61 22 5 9 22 16 39 16 23 0 32 6 36 20 3 11 16 23 29 26 14 4 29
14 34 24 5 10 24 21 42 24 30 6 88 46 88 61 0 11 67 75 79 75 6 0 11 6 11 13
0 6 20 28 45 47 35 28 44 41 45 66 0 20 9 38 25 52 16 14 25 32 25 52 0 18 7
33 19 39 17 9 18 25 18 181 1 157 -1 171 -18 181 -11 5 -19 19 -19 30 0 29
-18 59 -35 59 -11 0 -15 12 -15 45 0 33 -4 45 -15 45 -8 0 -19 9 -25 20 -6 11
-17 20 -26 20 -8 0 -17 8 -21 18 -4 9 -26 36 -50 59 -24 22 -43 46 -43 52 0 6
-19 11 -45 11 -38 0 -45 3 -45 20 0 10 -6 23 -14 27 -12 6 -13 20 -6 68 5 33
12 73 16 89 8 32 -14 194 -28 202 -4 3 -8 14 -8 25 0 11 -10 33 -22 49 l-21
29 43 42 43 42 -1 94 c-1 61 -7 104 -17 123 -14 28 -47 46 -63 36 -11 -7 -68
53 -76 80 -4 13 3 32 19 54 25 34 33 84 15 95 -5 3 -10 16 -10 29 0 26 -28 56
-53 56 -9 0 -17 4 -17 9 0 15 -49 19 -61 5 -6 -8 -19 -14 -28 -14 -21 0 -41
-19 -41 -39 0 -9 -7 -28 -14 -43 -17 -32 -5 -95 20 -105 42 -16 -28 -53 -101
-53 -64 0 -85 -19 -85 -78 0 -22 -4 -44 -10 -47 -6 -3 -10 -49 -10 -103 0 -85
3 -102 23 -132 21 -33 22 -41 15 -135 -4 -55 -11 -120 -15 -145 -7 -42 -11
-45 -40 -48 -24 -2 -33 1 -33 11 0 17 -21 27 -56 27 -32 0 -40 22 -24 73 19
62 16 283 -6 447 -11 87 -47 134 -151 200 -29 18 -53 36 -53 39 0 2 10 15 22
28 18 19 21 34 20 95 -1 68 -4 75 -32 101 -24 21 -40 27 -78 27 -42 0 -52 -4
-81 -35 -32 -35 -33 -38 -32 -121 0 -77 -2 -87 -19 -91 -11 -3 -20 -9 -20 -14
0 -5 -7 -9 -15 -9 -20 0 -95 -47 -95 -60 0 -6 -9 -10 -20 -10 -23 0 -39 -32
-47 -95 -3 -22 -12 -52 -19 -67 -8 -15 -14 -50 -14 -78 0 -28 -5 -60 -10 -70
-7 -13 -7 -25 0 -37 25 -45 40 -99 40 -144 0 -26 5 -51 10 -54 6 -3 10 -19 10
-36 0 -19 5 -29 15 -29 8 0 20 -10 26 -22 7 -13 17 -26 23 -30 6 -4 -38 -8
-97 -8 -111 0 -147 -9 -147 -37 0 -12 -7 -14 -31 -9 -17 3 -42 6 -55 6 -22 0
-24 4 -24 56 0 47 5 64 33 103 17 25 43 69 56 96 12 28 27 58 32 67 5 10 9 31
9 47 0 17 5 33 10 36 6 3 10 17 10 30 0 13 -4 27 -10 30 -5 3 -10 17 -10 30 0
13 -11 40 -25 61 -13 20 -30 51 -37 70 -6 19 -16 34 -20 34 -4 0 -8 15 -8 34
0 19 -4 38 -10 41 -5 3 -10 15 -10 25 0 25 -51 60 -88 60 -17 0 -34 5 -37 10
-3 6 -16 10 -28 10 -33 0 -67 28 -67 55 0 13 4 26 9 30 6 3 13 25 16 50 5 32
3 50 -9 67 -9 12 -16 35 -16 50 0 57 -108 88 -172 50z m738 -1219 c-4 -27 -11
-175 -16 -331 -5 -155 -13 -294 -16 -308 -4 -15 1 -48 12 -81 19 -54 19 -55
-3 -92 -21 -36 -21 -44 -12 -132 6 -52 13 -152 15 -222 4 -105 8 -129 21 -134
37 -14 390 53 429 82 17 12 17 15 0 71 -10 33 -22 104 -26 159 -4 55 -10 110
-15 122 -5 15 -2 31 9 48 13 20 25 25 58 25 39 0 40 -1 25 -18 -19 -21 -6 -42
25 -42 23 0 44 -43 85 -175 18 -60 38 -114 43 -119 9 -9 121 7 142 20 13 8 8
155 -7 224 -19 85 -18 174 0 228 9 24 22 121 31 215 21 239 52 367 91 367 47
-1 47 -1 55 -322 4 -167 8 -387 10 -490 2 -102 6 -189 10 -193 3 -3 40 -9 82
-12 65 -5 76 -9 76 -24 0 -11 -5 -19 -10 -19 -6 0 -26 -15 -45 -34 -45 -45
-146 -105 -262 -155 l-92 -40 -43 24 c-80 46 -155 25 -199 -56 -27 -49 -28
-49 -209 -74 -116 -16 -449 -23 -489 -10 -21 6 -21 7 4 49 25 42 25 46 13 115
-11 67 -15 75 -53 102 -36 27 -47 30 -99 27 l-60 -3 -15 82 c-16 82 -24 97
-76 141 -23 19 -26 27 -21 60 3 20 17 150 31 287 14 138 33 308 44 378 19 125
20 130 55 162 27 24 36 41 36 64 0 17 6 34 13 36 15 6 292 43 330 44 29 1 29
1 23 -46z m585 11 c69 -16 71 -17 64 -42 -4 -15 -11 -71 -15 -125 -5 -64 -28
-177 -66 -326 l-57 -228 -45 -13 c-41 -12 -46 -12 -59 6 -10 13 -12 31 -7 59
3 22 7 92 8 155 1 75 8 134 19 170 21 69 47 238 47 308 0 61 1 61 111 36z
m-1494 -954 c24 -61 28 -102 25 -262 -2 -86 -5 -108 -16 -108 -28 0 -172 105
-243 177 -53 54 -83 96 -115 159 -39 79 -42 94 -46 178 -5 111 8 178 50 265
37 74 160 210 253 279 l60 44 5 -338 c5 -318 7 -342 27 -394z m2236 483 c46
-92 61 -159 54 -252 -5 -74 -36 -178 -61 -204 -6 -6 -25 -30 -41 -52 -36 -49
-112 -125 -125 -125 -13 0 -13 51 0 160 14 133 19 365 9 470 -5 52 -12 124
-15 160 l-6 65 76 -77 c49 -50 87 -100 109 -145z m-1988 -2435 c-3 -57 -10
-249 -15 -428 -6 -179 -15 -351 -21 -382 -9 -46 -9 -61 1 -73 8 -9 14 -48 15
-93 2 -61 -2 -85 -18 -114 -14 -25 -18 -45 -13 -65 13 -56 29 -251 31 -401 4
-210 1 -202 79 -202 34 0 85 7 112 15 27 8 64 15 83 15 43 0 298 67 327 85 19
12 21 19 14 57 -5 24 -14 57 -20 73 -18 44 -32 159 -31 245 1 51 -4 87 -15
113 -16 35 -16 40 -1 71 13 28 23 35 56 41 47 8 67 0 51 -20 -21 -25 -2 -55
34 -55 32 0 35 -4 65 -70 17 -39 31 -76 31 -83 0 -27 70 -251 82 -263 21 -20
39 -20 103 0 114 35 105 26 105 113 0 73 -24 232 -50 333 -13 49 -6 176 11
196 19 23 39 152 49 320 12 188 31 336 56 419 l16 55 38 -21 c20 -12 50 -31
65 -43 l28 -22 4 -360 c2 -197 8 -382 14 -411 8 -41 7 -58 -4 -80 -11 -23 -13
-71 -8 -253 4 -124 10 -230 14 -236 4 -8 41 -12 98 -12 50 0 93 -3 96 -6 3 -2
-1 -22 -8 -43 -37 -114 -311 -338 -574 -470 -208 -105 -389 -165 -605 -202
-500 -86 -950 -30 -1331 166 -144 74 -242 150 -337 263 -204 240 -247 333
-258 560 -6 106 -4 125 25 240 51 209 159 397 312 547 l64 62 1 -327 c2 -331
10 -446 40 -524 9 -24 18 -63 21 -88 2 -25 9 -55 15 -66 7 -16 7 -28 -3 -45
-19 -35 -26 -363 -9 -385 26 -31 454 -1 574 41 57 20 61 23 59 51 -6 88 -26
206 -43 255 -11 30 -20 67 -20 82 0 38 -19 73 -47 88 -57 31 -88 124 -60 182
11 22 25 144 47 397 31 365 50 539 71 638 9 45 16 56 49 77 22 14 44 33 49 43
16 29 320 99 439 101 l53 1 -6 -102z m793 40 c84 -25 80 -10 57 -196 -21 -171
-48 -306 -106 -531 -27 -106 -49 -201 -49 -211 0 -19 -19 -30 -54 -30 -12 0
-27 -5 -33 -11 -6 -6 -21 -9 -34 -7 -36 5 -59 76 -39 121 10 22 16 90 20 217
4 143 11 205 28 272 23 91 52 292 52 357 0 21 3 41 7 45 9 9 56 1 151 -26z"/>
<path d="M8947 6860 c-16 -13 -33 -43 -43 -75 -17 -52 -17 -58 -1 -108 22 -70
22 -87 -2 -87 -11 0 -23 -4 -26 -10 -3 -5 -31 -10 -60 -10 -79 0 -130 -29
-156 -90 -12 -27 -29 -56 -40 -66 -10 -9 -19 -23 -19 -31 0 -7 -16 -29 -35
-47 -19 -19 -35 -40 -35 -48 0 -7 -9 -24 -20 -38 -14 -18 -20 -41 -20 -78 0
-57 13 -82 78 -148 17 -18 32 -38 32 -44 0 -7 12 -26 26 -43 23 -27 25 -36 19
-81 -4 -28 -8 -90 -9 -138 -3 -87 -14 -118 -42 -118 -8 0 -14 -9 -14 -20 0
-11 -7 -20 -15 -20 -9 0 -21 -11 -27 -25 -6 -14 -17 -25 -24 -25 -7 0 -18 -9
-24 -20 -6 -11 -17 -20 -25 -20 -7 0 -16 -9 -20 -19 -3 -11 -15 -23 -26 -26
-16 -5 -19 -16 -19 -67 0 -49 -4 -63 -21 -77 -20 -16 -21 -20 -9 -53 8 -21 10
-43 5 -54 -4 -11 -9 -51 -11 -91 -2 -63 0 -72 17 -76 16 -4 19 -14 19 -61 0
-42 4 -57 18 -65 9 -5 30 -35 47 -66 16 -32 38 -63 47 -69 10 -6 18 -17 18
-24 0 -7 8 -16 18 -19 20 -8 67 -56 76 -78 3 -8 15 -15 26 -15 11 0 20 -6 20
-14 0 -8 8 -21 18 -28 10 -7 21 -21 25 -30 3 -10 13 -18 22 -18 8 0 20 -11 25
-25 11 -30 30 -33 30 -4 0 11 5 17 10 14 6 -4 8 -21 4 -41 -10 -56 -3 -63 59
-52 59 10 46 15 206 -72 163 -89 417 -178 625 -220 38 -8 66 -20 77 -34 22
-25 23 -37 7 -71 -9 -20 -18 -25 -49 -25 -21 0 -41 -4 -44 -10 -3 -5 -31 -10
-61 -10 -30 0 -54 -4 -54 -10 0 -5 -20 -10 -43 -10 -60 0 -97 -46 -97 -120 0
-32 -4 -40 -18 -40 -13 0 -25 -15 -38 -46 -10 -25 -31 -55 -46 -66 -16 -11
-28 -29 -28 -41 0 -12 -9 -28 -20 -35 -37 -23 -70 -105 -70 -174 0 -63 26
-128 50 -128 5 0 10 -7 10 -15 0 -27 39 -94 65 -111 14 -9 25 -24 25 -33 0
-10 11 -28 25 -41 24 -22 25 -29 25 -140 0 -87 -4 -125 -16 -149 -13 -26 -14
-41 -6 -74 6 -23 8 -77 5 -119 -6 -90 3 -111 51 -107 41 3 76 -9 76 -27 0 -9
-11 -14 -35 -14 -28 0 -35 -4 -35 -20 0 -13 -7 -20 -20 -20 -15 0 -26 -13 -40
-45 -11 -25 -24 -45 -30 -45 -6 0 -15 -11 -20 -25 -5 -14 -16 -25 -25 -25 -9
0 -18 -12 -21 -29 -4 -17 -15 -38 -25 -47 -11 -10 -19 -30 -19 -49 0 -19 -8
-39 -20 -50 -15 -13 -20 -31 -20 -65 0 -33 -6 -55 -21 -75 -23 -28 -34 -80
-20 -89 5 -3 7 -65 6 -138 -2 -111 0 -136 13 -151 11 -12 18 -43 20 -89 4 -59
8 -71 23 -75 16 -5 19 -15 19 -64 0 -47 4 -60 19 -68 11 -6 21 -26 25 -49 4
-28 12 -41 26 -45 15 -4 20 -13 20 -38 0 -25 10 -41 45 -75 34 -32 45 -49 45
-72 0 -22 6 -32 19 -37 11 -3 23 -15 26 -26 4 -10 11 -19 17 -19 5 0 32 -23
59 -52 49 -52 54 -66 61 -168 l3 -35 76 -5 c67 -4 79 -8 105 -35 17 -16 33
-38 37 -47 4 -10 17 -18 30 -18 13 0 32 -9 42 -20 10 -11 23 -20 29 -20 7 0
29 -20 51 -45 32 -36 47 -45 73 -45 25 0 35 -5 42 -25 6 -15 17 -25 29 -25 22
0 84 -39 114 -71 10 -10 29 -19 44 -19 14 0 31 -7 37 -15 6 -9 29 -18 51 -22
22 -3 50 -14 62 -25 11 -11 40 -22 62 -25 26 -4 45 -13 52 -24 7 -14 21 -19
54 -19 53 0 75 -8 75 -26 0 -10 13 -13 48 -13 54 2 92 -14 92 -36 0 -12 16
-15 80 -15 67 0 83 -3 101 -21 18 -18 31 -20 125 -18 97 2 107 1 137 -22 28
-21 43 -24 127 -25 52 0 103 3 114 9 12 6 22 5 29 -2 7 -7 53 -11 113 -11 93
0 103 2 109 19 8 25 38 31 145 30 75 -1 86 1 98 20 12 18 24 21 83 21 59 0 68
3 74 20 5 15 15 20 40 20 26 0 39 6 51 25 11 17 26 25 44 25 15 0 35 9 45 20
10 11 28 20 41 20 31 0 54 10 54 24 0 6 20 29 45 51 25 22 45 45 45 52 0 7 9
13 20 13 14 0 20 7 20 23 0 13 15 41 33 63 147 173 217 382 202 604 -4 58 -6
144 -5 191 1 77 -1 89 -20 106 -25 24 -42 78 -34 110 5 19 2 25 -15 30 -15 4
-21 13 -21 35 0 18 -9 38 -25 52 -17 15 -25 34 -25 55 0 20 -6 34 -17 38 -28
11 -72 67 -73 91 0 24 -98 132 -119 132 -6 0 -11 6 -11 14 0 8 -8 21 -17 28
-52 40 -85 88 -98 143 -7 32 -11 64 -8 72 3 7 -1 49 -8 94 -10 65 -10 106 0
227 7 81 13 159 13 174 -1 14 5 32 13 38 21 17 21 217 1 245 -7 11 -16 36 -19
55 -12 77 -26 125 -36 128 -15 5 -43 71 -35 83 3 5 14 9 25 9 29 0 79 53 79
84 0 13 5 28 10 31 6 3 10 35 10 71 0 36 -4 64 -10 64 -6 0 -10 31 -10 73 0
84 -15 107 -67 107 -17 0 -36 7 -43 15 -7 8 -20 15 -29 15 -9 0 -33 16 -53 34
l-38 35 24 48 c41 81 66 142 66 161 0 9 -14 45 -30 80 -30 60 -69 100 -89 88
-5 -3 -11 1 -15 9 -3 8 -12 15 -20 15 -21 0 -86 -32 -86 -42 0 -4 -7 -8 -16
-8 -22 0 -41 -54 -49 -137 -7 -66 -6 -74 17 -105 14 -18 23 -40 21 -48 -6 -25
-54 -40 -139 -44 -86 -4 -77 3 -116 -78 -4 -10 -8 -32 -8 -50 0 -18 -7 -42
-15 -52 -22 -29 -21 -248 0 -270 8 -8 15 -21 15 -29 0 -8 10 -29 23 -48 18
-28 22 -46 20 -102 -1 -37 -6 -74 -12 -80 -5 -7 -12 -66 -15 -132 -7 -169 -15
-257 -26 -280 -5 -11 -12 -42 -15 -68 -6 -44 -9 -48 -28 -43 -12 3 -25 6 -28
6 -4 0 -9 9 -12 20 -4 16 -14 20 -47 20 -33 0 -43 4 -47 19 -2 10 -16 24 -30
30 l-26 12 7 106 c4 58 12 117 18 132 5 14 14 49 19 76 6 28 12 62 15 76 4 16
0 30 -10 38 -14 12 -14 15 1 38 19 28 19 147 2 293 -6 47 -13 120 -15 163 -3
42 -10 77 -15 77 -5 0 -9 11 -9 24 0 14 -4 28 -10 31 -5 3 -10 13 -10 21 0 21
-68 85 -143 134 -77 49 -88 73 -61 126 11 20 26 50 35 68 15 27 15 34 3 58 -8
15 -14 43 -14 63 0 27 -8 44 -34 70 -36 36 -54 43 -121 47 -44 3 -57 31 -17
36 13 2 33 20 49 43 14 21 30 39 35 39 4 0 13 11 19 24 6 13 20 27 30 29 14 4
19 14 19 40 0 21 7 41 20 52 18 17 20 31 20 186 0 158 -1 169 -20 179 -16 9
-20 21 -20 61 0 46 -4 54 -42 92 -32 30 -43 48 -43 71 0 23 -6 34 -23 41 -12
5 -25 18 -28 27 -3 10 -12 18 -20 18 -8 0 -18 8 -21 18 -10 25 -45 62 -70 72
-13 5 -23 16 -23 24 0 8 -9 17 -19 21 -11 3 -23 15 -26 25 -4 13 -17 20 -43
22 l-37 3 3 95 c1 52 9 144 18 203 12 81 14 111 5 120 -6 6 -11 26 -11 43 0
18 -4 36 -10 39 -5 3 -10 19 -10 35 0 20 -8 35 -25 46 -28 18 -33 42 -10 50 8
4 29 19 45 34 29 27 30 30 30 128 0 90 -2 101 -24 125 -13 14 -40 30 -60 35
-42 12 -101 58 -86 67 5 3 10 14 10 24 0 10 11 28 25 41 26 24 35 83 15 95 -5
3 -10 16 -10 29 0 28 -29 56 -58 56 -12 0 -22 4 -22 9 0 20 -32 19 -71 -2 -38
-20 -44 -29 -61 -85 l-20 -62 21 -36 c12 -20 21 -37 19 -38 -2 0 -13 -7 -25
-13 -13 -7 -47 -13 -76 -13 -60 0 -87 -19 -87 -61 -1 -13 -7 -35 -15 -49 -10
-17 -14 -57 -15 -122 0 -96 0 -97 34 -132 18 -20 29 -39 24 -42 -5 -3 -7 -11
-5 -18 2 -6 0 -40 -5 -76 -14 -92 -15 -111 -17 -190 -1 -68 -13 -91 -26 -50
-5 17 -15 20 -58 20 -77 0 -80 4 -72 101 19 258 11 481 -21 555 -21 48 -75
101 -127 124 -58 26 -67 43 -38 74 19 20 21 33 19 100 l-2 78 -38 24 c-54 34
-108 32 -150 -5 -31 -28 -32 -30 -31 -115 1 -83 0 -87 -27 -106 -15 -11 -33
-20 -39 -20 -7 0 -14 -6 -17 -14 -3 -8 -11 -13 -18 -10 -6 2 -23 -7 -36 -21
-13 -14 -32 -25 -42 -25 -11 0 -18 -7 -18 -19 0 -11 -4 -23 -10 -26 -5 -3 -10
-26 -10 -51 0 -25 -7 -56 -16 -69 -9 -13 -15 -39 -13 -57 1 -18 -3 -53 -10
-77 -9 -31 -9 -47 -2 -54 6 -6 11 -19 11 -29 0 -10 7 -21 15 -24 11 -5 15 -23
15 -78 0 -43 5 -77 12 -84 27 -27 -8 -36 -139 -33 -70 1 -129 4 -132 6 -2 2
10 26 27 52 67 106 93 174 95 248 1 67 -16 135 -33 135 -4 0 -11 11 -14 25 -4
14 -11 25 -16 25 -6 0 -10 8 -10 18 0 30 -44 148 -62 166 -9 9 -24 16 -32 16
-9 0 -16 5 -16 10 0 6 -20 10 -44 10 -29 0 -46 5 -49 14 -3 8 -18 16 -34 18
-25 3 -28 7 -24 33 1 17 7 38 12 47 14 26 11 74 -6 88 -11 9 -14 22 -9 46 14
74 -104 125 -169 74z m709 -1112 c3 -4 0 -167 -6 -365 -14 -421 -14 -421 -5
-495 4 -31 3 -69 -2 -85 -6 -16 -6 -41 -2 -58 5 -16 12 -102 15 -190 4 -88 11
-168 16 -177 6 -13 21 -18 55 -18 42 0 45 -1 38 -22 -3 -13 -9 -58 -12 -100
-5 -63 -9 -78 -22 -78 -58 0 -442 109 -466 131 -6 6 -5 17 3 29 7 11 10 30 8
43 -49 247 -52 257 -103 286 -26 14 -34 84 -18 153 8 35 19 115 25 178 17 168
38 358 51 446 11 68 16 80 50 114 l39 38 0 93 0 92 165 -5 c91 -2 167 -7 171
-10z m597 -144 l69 -27 -7 -76 c-10 -110 -31 -216 -76 -382 -21 -81 -39 -167
-39 -191 0 -25 -3 -47 -6 -50 -6 -7 -75 37 -85 54 -12 19 1 320 16 373 21 74
45 221 45 276 0 27 3 49 7 49 4 0 39 -12 76 -26z m-1559 -66 c11 1 28 -4 39
-10 19 -10 20 -18 14 -257 -7 -315 4 -517 31 -591 26 -70 36 -130 23 -130 -6
0 -41 26 -78 58 -155 134 -265 303 -292 447 -32 170 7 300 127 427 58 61 69
68 91 62 14 -4 35 -6 45 -6z m1883 -90 c21 -12 40 -23 43 -26 4 -3 20 -417 21
-547 0 -22 0 -98 0 -169 1 -177 0 -176 93 -176 l74 0 11 33 c27 86 43 539 23
640 -5 26 -6 47 -2 47 11 0 93 -91 140 -155 105 -142 153 -315 124 -453 -62
-300 -448 -512 -934 -512 l-105 0 -1 48 c0 26 -5 61 -12 77 -6 17 -17 51 -25
77 -16 55 -13 60 52 78 l44 11 -6 56 c-3 31 -11 61 -16 66 -6 6 -11 53 -11
107 0 55 -5 101 -11 107 -6 6 -9 23 -7 39 2 22 9 30 33 35 17 4 38 10 49 14
16 7 17 6 6 -15 -13 -24 -6 -36 25 -42 27 -5 61 -74 89 -179 30 -117 35 -122
110 -114 34 4 67 12 74 17 17 14 15 120 -3 209 -21 98 -22 204 -2 254 9 24 22
118 31 220 16 186 31 275 46 275 5 0 26 -10 47 -22z m83 -2768 c52 -6 97 -14
100 -18 9 -11 -8 -668 -21 -829 -10 -119 -10 -152 2 -200 19 -77 17 -145 -5
-178 -17 -26 -17 -31 -2 -91 11 -44 18 -131 22 -282 6 -272 8 -280 41 -288 14
-4 69 1 122 10 53 10 125 22 161 28 36 5 80 16 98 24 18 8 43 14 55 14 12 0
49 11 82 25 71 29 74 41 38 145 -19 54 -23 86 -23 190 -1 89 -5 132 -15 150
-16 28 -19 78 -6 98 9 15 121 44 121 31 0 -4 -4 -11 -10 -14 -5 -3 -10 -15
-10 -25 0 -14 10 -21 36 -26 32 -6 39 -13 60 -60 13 -30 29 -75 34 -101 6 -27
15 -55 20 -64 4 -8 16 -49 25 -90 21 -85 40 -129 58 -129 6 0 50 11 97 23 l85
23 3 84 c2 57 -5 126 -20 210 -25 138 -30 298 -10 322 17 20 39 180 51 372 6
88 11 167 11 178 0 10 3 18 8 18 4 0 46 -30 95 -66 l87 -65 0 -204 c0 -114 5
-236 12 -275 9 -54 9 -77 0 -102 -9 -25 -9 -84 -1 -238 5 -112 11 -205 12
-206 1 -1 46 -4 99 -7 103 -6 127 2 128 41 1 27 10 115 15 147 8 47 22 207 22
240 -1 17 0 88 1 159 2 148 3 148 75 37 63 -97 110 -183 113 -208 1 -12 16
-66 33 -120 48 -157 54 -191 52 -317 -3 -152 -24 -237 -98 -388 -54 -113 -83
-151 -150 -200 -114 -84 -163 -123 -163 -130 0 -5 -42 -29 -94 -53 -489 -229
-1205 -172 -1826 146 -155 79 -400 238 -400 260 0 6 114 19 300 35 97 8 108
24 71 107 -11 23 -22 72 -26 109 -3 36 -13 88 -21 114 -8 26 -14 63 -14 82 0
29 -9 44 -55 88 -30 30 -55 55 -55 57 0 3 -4 28 -10 56 -8 42 -7 57 5 75 8 12
13 25 10 28 -3 3 -1 25 4 49 5 24 24 197 41 384 30 336 52 515 71 588 7 27 20
44 49 62 44 28 56 56 46 116 -4 22 -4 44 -1 50 8 12 244 11 365 -1z m880 -255
c106 -53 105 -49 65 -215 -14 -58 -41 -175 -60 -260 -51 -229 -78 -314 -101
-318 -10 -2 -29 -8 -42 -14 -19 -10 -26 -8 -48 13 -23 21 -25 29 -20 74 4 27
10 138 15 245 7 147 14 213 30 270 12 41 27 114 33 162 8 61 16 88 25 88 7 0
54 -20 103 -45z m-1984 -128 c-10 -191 -8 -713 4 -841 9 -104 31 -196 53 -224
5 -7 7 -29 4 -49 -4 -20 -2 -42 3 -48 11 -13 -6 -174 -19 -188 -17 -17 -178
208 -245 342 -172 343 -168 667 10 937 45 69 172 204 191 204 3 0 3 -60 -1
-133z"/>
<path d="M5758 6684 c-7 -9 -25 -29 -40 -44 -27 -27 -28 -32 -28 -134 0 -58 5
-116 11 -130 15 -33 -2 -56 -42 -56 -16 0 -29 -4 -29 -10 0 -6 -28 -10 -65
-10 -49 0 -67 -4 -71 -15 -4 -10 -20 -15 -50 -15 -41 0 -45 -2 -64 -41 -11
-23 -17 -45 -15 -49 6 -9 -48 -78 -75 -97 -11 -8 -20 -22 -20 -31 0 -9 -20
-34 -45 -56 -25 -21 -45 -45 -45 -53 0 -7 -10 -27 -22 -43 -15 -20 -23 -49
-26 -88 -4 -50 0 -65 21 -98 14 -21 34 -48 45 -60 11 -11 23 -30 26 -41 4 -12
25 -38 46 -57 22 -20 40 -42 40 -50 0 -7 6 -19 14 -25 10 -8 13 -36 11 -105
-1 -51 -5 -98 -9 -104 -4 -7 -9 -66 -11 -133 -5 -156 2 -169 85 -169 93 0 90
4 90 -127 l0 -114 -34 -34 c-21 -22 -42 -35 -59 -35 -16 0 -30 -8 -37 -20 -8
-14 -21 -20 -46 -20 -27 0 -37 -5 -46 -25 -6 -14 -17 -25 -24 -25 -7 0 -18 -9
-24 -20 -9 -16 -21 -20 -65 -20 -44 0 -56 4 -65 20 -8 15 -21 20 -56 20 -35 0
-50 5 -68 25 -14 15 -34 25 -51 25 -16 0 -36 7 -44 15 -9 8 -34 20 -55 27 -51
17 -50 32 1 39 23 3 50 12 60 21 10 8 47 18 82 22 35 3 65 7 67 9 1 1 4 20 6
42 l3 40 -120 3 c-109 2 -122 5 -145 26 -25 22 -29 23 -289 25 -235 2 -266 4
-277 19 -10 14 -34 18 -143 20 l-131 4 0 -39 c0 -35 8 -48 75 -118 41 -43 75
-86 75 -95 0 -10 7 -23 15 -30 8 -7 15 -18 15 -25 0 -7 9 -15 20 -18 11 -3 20
-12 20 -20 0 -9 9 -19 20 -22 11 -3 20 -13 20 -22 0 -8 9 -17 20 -20 11 -3 30
-24 40 -47 28 -57 38 -71 92 -128 47 -49 47 -49 105 -46 l58 3 3 82 c2 72 5
83 23 88 32 10 103 -6 117 -26 8 -11 25 -19 42 -19 19 0 33 -7 40 -20 7 -12
25 -22 49 -26 27 -4 41 -12 44 -25 4 -14 14 -19 37 -19 22 0 41 -9 63 -31 l31
-32 -22 -15 c-15 -10 -22 -24 -22 -47 0 -22 -7 -37 -22 -47 -18 -12 -23 -27
-26 -84 -4 -53 -9 -72 -23 -82 -21 -15 -24 -47 -8 -89 8 -21 7 -42 -2 -81 -11
-49 -11 -55 9 -82 15 -19 23 -48 26 -85 3 -40 10 -63 25 -79 12 -13 21 -36 21
-54 0 -21 6 -35 20 -42 16 -9 20 -21 20 -61 0 -55 -2 -57 -75 -63 -42 -3 -51
-7 -53 -25 -3 -19 -10 -21 -67 -21 -55 0 -65 -3 -70 -20 -5 -17 -15 -20 -60
-20 -46 0 -56 -4 -72 -26 -12 -17 -24 -23 -35 -19 -19 8 -23 56 -15 210 l2 50
-57 3 c-46 2 -59 -1 -70 -16 -7 -10 -21 -21 -30 -25 -10 -3 -18 -13 -18 -22 0
-8 -11 -20 -25 -25 -14 -5 -25 -16 -25 -25 0 -8 -7 -15 -15 -15 -9 0 -20 -11
-25 -25 -5 -14 -16 -25 -24 -25 -8 0 -18 -9 -21 -20 -3 -11 -13 -20 -21 -20
-8 0 -19 -11 -24 -25 -5 -14 -16 -25 -24 -25 -8 0 -18 -9 -21 -20 -3 -11 -13
-20 -21 -20 -8 0 -17 -7 -20 -15 -9 -22 -56 -70 -76 -78 -10 -3 -18 -13 -18
-21 0 -8 -9 -17 -19 -21 -11 -3 -23 -14 -26 -24 -3 -11 -15 -21 -25 -24 -11
-3 -20 -12 -20 -20 0 -9 -9 -18 -19 -22 -11 -3 -23 -15 -26 -26 -4 -10 -13
-19 -21 -19 -8 0 -18 -8 -21 -17 -4 -10 -15 -24 -25 -31 -21 -15 -22 -29 -6
-64 15 -31 43 -38 113 -29 28 3 73 5 100 4 165 -6 1005 -9 1015 -3 6 4 10 24
8 46 -3 35 -6 39 -38 45 -19 4 -41 17 -49 28 -10 16 -24 21 -54 21 -27 0 -48
7 -62 20 -12 11 -36 22 -54 24 -66 7 -51 36 19 36 38 0 52 4 59 19 8 14 27 21
70 26 47 5 62 11 66 26 5 15 16 19 50 19 35 0 46 5 60 26 14 22 21 25 54 19
29 -5 43 -1 65 16 l28 22 62 -67 c51 -54 68 -66 94 -66 22 0 32 -6 37 -20 3
-11 14 -20 23 -20 9 0 46 -20 82 -45 55 -38 73 -45 113 -45 34 0 47 -4 47 -15
0 -8 14 -17 36 -21 21 -4 41 -16 51 -30 13 -20 24 -24 68 -24 38 0 56 -5 69
-19 12 -14 38 -21 94 -26 53 -5 80 -12 88 -24 10 -13 38 -17 176 -19 143 -3
165 -6 183 -22 18 -17 36 -19 154 -18 118 1 136 3 153 20 17 17 35 19 164 19
134 0 147 2 151 19 4 15 19 19 86 25 63 6 85 12 95 26 10 14 26 19 64 19 41 0
51 3 55 20 4 16 14 20 45 20 28 0 45 7 61 24 13 14 36 28 51 32 15 3 30 13 33
20 3 8 11 14 18 14 7 0 20 11 29 25 9 14 26 25 38 25 12 0 33 11 47 24 35 33
64 26 125 -30 28 -25 59 -44 72 -44 13 0 28 -9 34 -20 7 -13 21 -20 40 -20 20
0 35 -8 46 -25 12 -19 25 -25 51 -25 59 0 34 -25 -28 -27 -110 -5 -159 -14
-159 -29 0 -9 -10 -14 -28 -14 -44 0 -64 -20 -60 -60 3 -34 4 -35 64 -45 34
-5 69 -16 78 -24 12 -10 53 -17 126 -20 82 -5 112 -10 127 -23 15 -14 45 -18
153 -22 117 -5 137 -8 150 -25 13 -17 29 -19 130 -20 106 -1 116 -3 133 -23
17 -20 26 -21 125 -19 58 1 110 5 114 7 4 3 8 22 8 42 0 27 -8 44 -28 64 -15
15 -36 44 -47 65 -22 41 -117 143 -134 143 -6 0 -11 18 -11 40 0 34 -4 42 -25
50 -14 5 -25 16 -25 24 0 8 -9 18 -20 21 -11 3 -20 13 -20 21 0 8 -11 19 -25
24 -14 5 -25 14 -25 20 0 5 -9 19 -20 30 -11 11 -20 30 -20 41 0 21 -141 169
-161 169 -5 0 -14 12 -19 26 -9 22 -15 25 -47 22 l-38 -3 0 -130 c0 -125 -1
-130 -21 -133 -16 -2 -23 4 -28 22 -4 18 -13 26 -27 26 -28 0 -106 50 -112 73
-4 12 -15 17 -41 17 -25 0 -38 6 -46 20 -7 13 -21 20 -40 20 -20 0 -35 8 -46
25 -9 14 -23 25 -30 25 -10 0 -14 12 -14 39 0 30 4 40 20 44 17 4 20 14 20 57
0 42 4 56 23 70 19 15 22 25 19 76 -1 33 -5 75 -8 95 -3 20 -1 53 5 74 9 33 7
43 -14 80 -15 25 -25 57 -25 81 0 27 -6 45 -20 57 -11 9 -20 27 -20 40 0 13
-11 38 -25 57 -14 19 -25 42 -25 51 0 10 -9 21 -20 24 -11 3 -20 13 -20 21 0
7 -9 19 -20 26 -12 8 -23 28 -26 50 -4 24 -13 38 -25 41 -11 3 -19 12 -19 19
0 8 -11 20 -25 26 -14 6 -25 18 -25 26 0 7 -9 16 -21 19 -33 9 -17 32 24 35
24 2 41 10 47 23 15 28 34 23 64 -15 23 -30 26 -44 26 -111 l0 -76 66 3 66 3
47 77 c43 71 149 188 171 188 5 0 15 18 21 41 7 22 28 57 46 77 18 20 33 39
33 43 0 4 10 9 23 11 13 2 22 10 22 20 0 10 8 23 18 31 14 9 18 23 15 52 l-3
40 -440 3 c-242 2 -443 6 -446 10 -4 4 -3 66 2 137 5 72 6 156 3 189 -6 77 0
96 35 96 30 0 71 29 71 50 0 7 16 35 35 61 24 33 35 60 35 83 0 19 5 38 10 41
6 3 10 19 10 36 0 16 3 29 8 29 10 0 33 68 39 116 4 38 -15 98 -37 114 -4 3
-21 25 -39 50 -18 25 -54 68 -82 96 -27 29 -49 56 -49 62 0 6 -13 22 -30 35
-16 14 -30 32 -30 40 0 8 -7 20 -15 27 -8 7 -15 18 -15 25 0 15 -54 45 -81 45
-24 0 -30 24 -35 148 -6 186 -12 207 -77 268 -50 49 -60 54 -100 54 -25 0 -55
-6 -68 -13 -43 -23 -97 -81 -123 -134 -22 -45 -26 -65 -26 -146 0 -103 -8
-118 -77 -148 -18 -8 -33 -17 -33 -21 0 -5 -18 -8 -39 -8 -36 0 -42 -4 -70
-49 -18 -28 -29 -55 -25 -64 3 -10 -5 -27 -20 -44 -14 -15 -26 -36 -26 -45 0
-10 -4 -18 -10 -18 -5 0 -10 -5 -10 -11 0 -6 -10 -24 -21 -41 -80 -112 -91
-203 -40 -331 32 -80 87 -189 121 -242 11 -16 25 -40 31 -52 8 -16 21 -23 40
-23 15 0 31 -4 34 -10 3 -5 15 -10 25 -10 36 0 36 -32 -5 -315 -18 -125 -19
-130 -40 -129 -11 1 -72 9 -135 19 -63 10 -198 21 -300 24 -102 3 -184 9 -184
14 1 4 5 39 9 78 7 70 8 71 44 86 73 30 73 28 65 208 l-7 162 56 84 c69 105
137 234 137 259 0 11 7 41 16 67 11 33 13 48 5 51 -6 2 -11 16 -11 32 0 15 -7
33 -15 40 -8 7 -25 32 -37 56 -12 24 -24 44 -28 44 -3 0 -12 21 -19 48 -51
180 -75 221 -133 222 -15 0 -30 5 -33 10 -3 6 -28 10 -56 10 -27 0 -49 5 -49
10 0 6 -8 10 -18 10 -53 0 -98 101 -51 113 19 5 21 11 15 46 -3 22 -2 42 4 46
5 3 1 19 -10 38 -11 18 -20 47 -20 65 0 40 -26 82 -51 82 -10 0 -21 5 -24 10
-3 6 -35 10 -70 10 -47 0 -68 -4 -77 -16z m717 -1964 c146 -20 245 -42 245
-55 0 -22 -106 -432 -164 -634 -31 -107 -56 -204 -56 -215 0 -37 -24 -70 -65
-92 -65 -33 -53 -60 43 -95 22 -8 32 -18 32 -33 0 -25 59 -195 75 -216 7 -8
22 -54 35 -103 33 -126 30 -124 131 -103 46 9 100 17 119 19 35 2 35 3 34 47
-1 52 -26 185 -54 280 -10 36 -22 81 -27 100 -9 35 -9 35 -73 41 -58 5 -60 6
-18 7 58 2 93 15 102 37 5 14 106 608 106 624 0 3 27 -21 59 -53 l59 -59 48
17 c26 9 53 16 60 16 16 0 9 -357 -8 -437 -8 -39 -8 -62 1 -95 17 -62 21 -113
27 -386 l5 -244 75 -35 c76 -34 85 -45 42 -47 -16 -1 -24 -8 -26 -24 -4 -27
-45 -47 -186 -93 -332 -108 -807 -111 -1166 -8 -134 38 -271 89 -363 135 -94
47 -259 148 -281 173 -17 19 -17 20 11 34 15 8 65 27 111 42 45 16 82 32 82
37 0 4 -11 15 -25 24 -14 9 -25 22 -25 28 0 6 -26 40 -57 74 l-58 63 -65 -22
c-36 -12 -69 -25 -75 -29 -5 -4 -34 -13 -63 -21 -53 -13 -54 -13 -73 11 -32
41 -88 144 -113 208 -64 164 -59 367 14 513 44 88 83 149 95 149 6 0 60 -23
120 -50 l110 -50 21 24 c11 13 27 27 35 32 8 5 34 30 58 56 l43 47 -76 35
c-41 20 -86 38 -100 42 -52 13 -50 29 6 67 56 37 218 121 222 115 2 -1 -1 -43
-5 -93 -4 -49 -4 -187 1 -305 8 -201 11 -221 39 -305 35 -101 40 -180 20 -310
-14 -87 -18 -329 -6 -359 7 -17 16 -18 135 -11 70 4 130 10 134 14 4 3 1 20
-8 36 -8 16 -20 52 -26 79 -8 41 -8 56 5 80 8 17 18 42 21 56 3 14 10 32 16
40 17 26 41 -18 36 -65 -3 -22 -6 -76 -8 -120 l-3 -80 35 -11 c22 -7 44 -8 58
-3 13 5 35 9 49 9 14 0 40 7 59 16 31 15 34 20 34 58 0 22 -5 57 -10 77 -5 19
-11 65 -12 102 -2 37 -6 67 -10 67 -10 0 -10 32 -2 55 4 9 27 25 51 36 24 10
46 26 50 34 9 24 -14 59 -61 92 -55 39 -77 103 -52 151 9 17 16 53 16 79 0 26
5 75 10 108 6 33 17 139 25 235 17 191 33 322 42 347 6 14 24 15 147 9 78 -3
173 -10 211 -16z m1001 -393 c53 -41 143 -137 187 -200 113 -160 158 -287 159
-447 1 -110 -18 -192 -62 -280 l-31 -61 -115 61 c-113 60 -115 60 -145 44 -17
-8 -32 -14 -34 -12 -2 2 -9 33 -17 69 -16 82 -15 161 6 309 16 117 23 440 10
506 -7 40 1 42 42 11z"/>
</g>
</svg>
