<?xml version="1.0" standalone="no"?>
<!DOCTYPE svg PUBLIC "-//W3C//DTD SVG 20010904//EN"
 "http://www.w3.org/TR/2001/REC-SVG-20010904/DTD/svg10.dtd">
<svg version="1.0" xmlns="http://www.w3.org/2000/svg"
 width="1280.000000pt" height="640.000000pt" viewBox="0 0 1280.000000 640.000000"
 preserveAspectRatio="xMidYMid meet">
<metadata>
Created by potrace 1.15, written by Peter Selinger 2001-2017
</metadata>
<g transform="translate(0.000000,640.000000) scale(0.100000,-0.100000)"
fill="#000000" stroke="none">
<path d="M475 4892 c-94 -42 -147 -76 -252 -163 -111 -91 -154 -140 -192 -219
l-26 -55 0 -1316 0 -1317 40 -58 c22 -32 67 -78 99 -103 33 -25 81 -65 107
-88 61 -53 125 -90 206 -120 l64 -23 5011 0 5010 0 60 32 c33 18 104 71 157
118 53 48 161 139 241 202 80 64 282 228 450 365 681 555 1012 815 1135 893
167 106 163 103 192 145 l25 37 -34 29 c-18 16 -71 57 -118 91 -47 34 -166
124 -265 202 -99 77 -223 172 -276 211 -187 137 -297 221 -519 395 -124 97
-333 261 -465 363 -132 103 -301 236 -375 295 l-135 107 -5040 2 -5040 2 -60
-27z"/>
</g>
</svg>
