<?xml version="1.0" standalone="no"?>
<!DOCTYPE svg PUBLIC "-//W3C//DTD SVG 20010904//EN"
 "http://www.w3.org/TR/2001/REC-SVG-20010904/DTD/svg10.dtd">
<svg version="1.0" xmlns="http://www.w3.org/2000/svg"
 width="1250.000000pt" height="1280.000000pt" viewBox="0 0 1250.000000 1280.000000"
 preserveAspectRatio="xMidYMid meet">
<metadata>
Created by potrace 1.15, written by Peter Selinger 2001-2017
</metadata>
<g transform="translate(0.000000,1280.000000) scale(0.100000,-0.100000)"
fill="#000000" stroke="none">
<path d="M5745 12469 c-113 -37 -540 -176 -810 -264 -148 -48 -316 -102 -373
-121 -56 -19 -113 -34 -127 -34 -13 0 -26 -4 -30 -9 -3 -6 -60 -28 -128 -50
-1228 -398 -1264 -410 -1277 -425 -6 -8 -14 -30 -17 -50 -7 -44 -6 -45 328
-343 125 -111 233 -208 240 -215 8 -8 57 -52 109 -98 52 -46 122 -109 155
-139 33 -31 160 -146 283 -255 122 -110 221 -200 220 -202 -2 -1 -127 40 -278
92 -151 52 -412 142 -579 199 l-304 105 7 -483 c3 -265 9 -540 12 -612 5 -95
4 -127 -5 -120 -6 6 -69 143 -141 305 -72 162 -140 314 -150 337 -22 47 -229
512 -322 723 -124 281 -124 280 -185 280 -38 -1 -50 -12 -122 -110 -181 -249
-339 -466 -358 -494 -12 -17 -65 -89 -117 -161 -53 -71 -143 -196 -201 -277
-59 -82 -113 -148 -121 -148 -8 0 -14 -8 -14 -18 0 -19 -11 -35 -235 -342 -77
-105 -149 -204 -160 -220 -56 -79 -165 -229 -385 -530 -71 -96 -82 -129 -60
-170 21 -39 -4 -35 625 -101 259 -27 436 -45 655 -69 102 -10 263 -27 358 -36
94 -10 172 -20 172 -23 0 -4 -132 -46 -292 -95 -669 -203 -863 -265 -861 -275
3 -11 244 -335 552 -741 93 -123 168 -226 166 -229 -3 -2 -66 32 -142 77 -76
44 -309 179 -518 299 -209 121 -468 271 -575 333 -107 62 -225 129 -262 149
l-68 36 -37 -20 c-22 -12 -40 -30 -44 -46 -3 -14 -7 -347 -8 -740 -1 -393 -2
-723 -3 -734 0 -11 2 -350 4 -753 l3 -734 28 -24 c52 -44 39 -50 437 181 102
59 304 176 450 260 146 84 348 201 450 260 281 163 294 170 285 154 -5 -7
-171 -229 -368 -492 -198 -262 -358 -479 -356 -481 4 -3 124 -40 884 -272 138
-42 256 -80 264 -84 15 -8 -18 -15 -124 -25 -33 -3 -168 -17 -300 -31 -427
-44 -617 -64 -760 -79 -628 -64 -576 -56 -605 -87 -37 -40 -27 -77 48 -179 38
-52 219 -301 402 -554 184 -253 344 -473 357 -488 13 -16 23 -37 23 -47 0 -11
8 -24 19 -29 10 -6 45 -47 77 -92 33 -45 84 -116 115 -158 31 -42 147 -202
259 -356 351 -484 413 -566 432 -576 26 -14 71 -3 95 24 11 12 48 87 83 167
35 80 76 172 91 205 15 33 145 326 289 650 144 325 267 595 272 600 7 7 9 -33
4 -125 -8 -184 -20 -1090 -15 -1090 8 0 454 152 808 275 183 63 336 114 338
111 4 -4 -249 -236 -636 -581 -37 -33 -115 -102 -172 -154 -57 -52 -144 -131
-194 -175 -49 -45 -115 -103 -145 -131 -141 -127 -180 -169 -180 -197 0 -49
36 -74 165 -116 66 -22 248 -81 405 -131 157 -51 344 -112 415 -136 72 -23
195 -64 274 -89 80 -25 153 -53 162 -62 10 -9 23 -13 29 -9 8 5 278 -78 645
-200 407 -135 727 -235 753 -235 35 0 82 39 82 69 0 15 -43 223 -120 581 -17
74 -66 306 -110 515 -44 209 -92 432 -105 495 -14 63 -27 126 -30 140 l-5 25
20 -24 c11 -13 97 -134 192 -270 359 -513 492 -701 498 -701 6 0 139 188 498
701 95 136 181 257 192 270 l20 24 -5 -25 c-3 -14 -16 -77 -30 -140 -13 -63
-61 -286 -105 -495 -44 -209 -93 -441 -110 -515 -77 -358 -120 -566 -120 -581
0 -30 47 -69 82 -69 26 0 346 100 753 235 367 122 637 205 645 200 6 -4 19 0
29 9 9 9 82 37 162 62 79 25 203 66 274 89 72 24 258 85 415 136 157 50 339
109 405 131 129 42 165 67 165 116 0 28 -39 70 -180 197 -30 28 -96 86 -145
131 -50 44 -137 123 -194 175 -57 52 -135 121 -172 154 -387 345 -640 577
-636 581 2 3 155 -48 338 -111 354 -123 800 -275 808 -275 5 0 -7 906 -15
1090 -5 92 -3 132 4 125 5 -5 128 -275 272 -600 144 -324 274 -617 289 -650
15 -33 56 -125 91 -205 68 -157 88 -186 131 -195 53 -12 27 -42 479 580 112
154 228 314 259 356 31 42 82 113 115 158 32 45 67 86 77 92 11 5 19 18 19 29
0 10 10 31 23 47 13 15 173 235 357 488 183 253 364 502 402 554 75 102 85
139 48 179 -29 31 23 23 -605 87 -143 15 -333 35 -760 79 -132 14 -267 28
-300 31 -106 10 -139 17 -124 25 8 4 127 42 264 84 760 232 880 269 884 272 2
2 -158 219 -356 481 -197 263 -363 485 -368 492 -9 16 4 9 285 -154 102 -59
304 -176 450 -260 146 -84 348 -201 450 -260 398 -231 385 -225 437 -181 l28
24 3 734 c2 403 4 742 4 753 -1 11 -2 341 -3 734 -1 393 -5 726 -8 740 -4 16
-22 34 -44 46 l-37 20 -68 -36 c-37 -20 -155 -87 -262 -149 -107 -62 -366
-212 -575 -333 -209 -120 -442 -255 -518 -299 -76 -45 -139 -79 -142 -77 -2 3
73 106 166 229 308 406 549 730 552 741 2 10 -192 72 -860 275 -161 49 -293
91 -293 95 0 3 78 13 173 23 94 9 255 26 357 36 219 24 396 42 655 69 629 66
604 62 625 101 22 41 11 74 -60 170 -220 301 -329 451 -385 530 -11 16 -83
115 -160 220 -224 307 -235 323 -235 342 0 10 -6 18 -14 18 -8 0 -62 66 -121
148 -58 81 -148 206 -201 277 -52 72 -105 144 -117 161 -19 28 -177 245 -358
494 -72 98 -84 109 -122 110 -61 0 -61 1 -185 -280 -93 -211 -300 -676 -322
-723 -10 -23 -78 -175 -150 -337 -72 -162 -135 -299 -141 -305 -9 -7 -10 25
-5 120 3 72 9 347 12 612 l7 483 -304 -105 c-167 -57 -428 -147 -579 -199
-151 -52 -276 -93 -278 -92 -1 2 98 92 220 202 123 109 250 224 283 255 33 30
103 93 155 139 52 46 101 90 109 98 7 7 115 104 240 215 334 298 335 299 328
343 -3 20 -11 42 -17 50 -13 15 -49 27 -1277 425 -68 22 -125 44 -128 50 -4 5
-17 9 -30 9 -14 0 -71 15 -127 34 -57 19 -224 73 -373 121 -148 48 -378 123
-510 166 -362 117 -367 119 -391 119 -24 0 -74 -52 -74 -76 0 -9 20 -111 45
-227 82 -382 114 -530 150 -702 41 -197 92 -433 141 -659 19 -87 33 -160 31
-162 -3 -3 -65 84 -519 733 -101 144 -185 262 -188 262 -3 0 -87 -118 -188
-262 -454 -649 -516 -736 -519 -733 -2 2 12 75 31 162 49 226 100 462 141 659
36 172 68 320 150 702 25 116 45 218 45 227 0 8 -12 28 -26 45 -30 37 -53 38
-139 10z"/>
</g>
</svg>
