<?xml version="1.0" standalone="no"?>
<!DOCTYPE svg PUBLIC "-//W3C//DTD SVG 20010904//EN"
 "http://www.w3.org/TR/2001/REC-SVG-20010904/DTD/svg10.dtd">
<svg version="1.0" xmlns="http://www.w3.org/2000/svg"
 width="1278.000000pt" height="1280.000000pt" viewBox="0 0 1278.000000 1280.000000"
 preserveAspectRatio="xMidYMid meet">
<metadata>
Created by potrace 1.15, written by Peter Selinger 2001-2017
</metadata>
<g transform="translate(0.000000,1280.000000) scale(0.100000,-0.100000)"
fill="#000000" stroke="none">
<path d="M2818 12790 c-733 -71 -1368 -361 -1881 -859 -882 -857 -1169 -2131
-740 -3291 44 -120 166 -374 234 -488 449 -751 1201 -1282 2049 -1447 236 -45
391 -58 665 -52 288 6 432 24 686 88 1001 251 1814 995 2153 1969 216 621 228
1293 35 1925 -96 313 -274 661 -470 923 -507 675 -1232 1101 -2074 1217 -129
18 -532 27 -657 15z"/>
<path d="M9490 12794 c-409 -38 -703 -112 -1035 -258 -347 -153 -651 -362
-925 -636 -248 -247 -429 -499 -585 -815 -109 -219 -171 -387 -226 -603 -108
-429 -124 -859 -48 -1292 228 -1301 1260 -2307 2576 -2511 197 -30 583 -38
783 -15 263 31 516 90 737 172 1372 511 2193 1901 1978 3347 -225 1508 -1540
2630 -3065 2615 -85 -1 -171 -3 -190 -4z"/>
<path d="M2357 6315 c-698 -95 -1280 -585 -1495 -1256 -169 -527 -90 -1101
215 -1564 316 -480 834 -781 1411 -821 56 -4 102 -11 102 -15 0 -5 -108 -225
-240 -489 -132 -264 -240 -486 -240 -492 0 -19 582 -1528 590 -1528 3 0 19 28
36 62 l31 62 33 -82 c19 -45 37 -82 40 -82 3 0 188 413 410 918 222 504 413
937 425 962 l23 45 29 -65 c16 -36 215 -492 443 -1013 l415 -948 25 57 26 57
19 -42 c10 -23 22 -38 26 -34 4 4 98 229 209 498 111 270 240 582 287 695 70
170 83 209 76 230 -6 14 -231 519 -502 1123 l-492 1098 50 139 c54 149 152
523 177 679 31 195 13 400 -52 586 -19 55 -94 275 -166 489 -145 433 -145 432
-262 508 -140 90 -319 108 -503 51 l-52 -16 -78 36 c-301 141 -679 197 -1016
152z"/>
<path d="M9625 6174 c-11 -3 -46 -12 -79 -20 -127 -34 -128 -34 -372 -311
-125 -142 -265 -298 -311 -346 -99 -105 -153 -206 -179 -337 -21 -105 -14
-305 14 -425 12 -52 90 -244 221 -543 l202 -463 -482 -972 c-265 -534 -482
-976 -482 -982 0 -9 558 -1466 572 -1493 5 -8 18 11 36 48 16 33 32 60 35 60
4 0 20 -32 35 -71 16 -38 32 -72 35 -74 5 -3 497 1102 791 1778 23 53 45 97
48 97 3 0 114 -247 245 -548 132 -301 326 -745 432 -987 l193 -439 25 54 25
55 18 -43 c10 -23 20 -42 23 -42 5 1 562 1349 568 1375 2 8 -218 506 -487
1108 l-491 1094 41 119 c57 170 135 449 167 594 22 106 26 149 26 280 -1 170
-13 244 -65 390 -17 47 -88 258 -159 470 l-129 385 -59 55 c-97 92 -224 141
-362 139 -41 -1 -84 -3 -95 -5z m25 -584 c118 -19 331 -99 329 -124 0 -6 -58
-126 -128 -266 l-129 -255 -15 35 c-32 75 -111 249 -147 326 -35 74 -76 191
-94 267 l-6 27 62 0 c35 0 92 -5 128 -10z"/>
</g>
</svg>
