<?xml version="1.0" standalone="no"?>
<!DOCTYPE svg PUBLIC "-//W3C//DTD SVG 20010904//EN"
 "http://www.w3.org/TR/2001/REC-SVG-20010904/DTD/svg10.dtd">
<svg version="1.0" xmlns="http://www.w3.org/2000/svg"
 width="1280.000000pt" height="640.000000pt" viewBox="0 0 1280.000000 640.000000"
 preserveAspectRatio="xMidYMid meet">
<metadata>
Created by potrace 1.15, written by Peter Selinger 2001-2017
</metadata>
<g transform="translate(0.000000,640.000000) scale(0.100000,-0.100000)"
fill="#000000" stroke="none">
<path d="M2518 6339 c-20 -6 -54 -26 -76 -45 -62 -53 -72 -94 -72 -311 l0
-183 -550 0 -550 0 0 -28 c0 -19 11 -39 36 -63 l35 -34 118 -3 118 -4 99 -99
99 -99 60 0 60 0 35 -62 c19 -34 68 -95 108 -135 l72 -74 0 -523 c0 -287 -2
-525 -5 -527 -2 -3 -37 -2 -77 3 -333 36 -982 50 -1320 28 -161 -11 -474 -43
-618 -63 l-85 -12 -3 -1829 c-2 -1461 0 -1827 10 -1823 679 285 1328 462 1983
541 72 9 148 18 170 21 300 38 943 55 1320 36 505 -26 1002 -89 1497 -191 109
-22 201 -40 205 -39 36 3 -482 160 -757 229 -527 133 -1142 238 -1547 266 -57
4 -103 11 -103 17 0 10 422 2 660 -14 209 -14 591 -87 1006 -194 464 -120
1017 -307 1498 -506 104 -43 191 -77 193 -76 7 8 -323 188 -567 311 -460 230
-922 419 -1407 577 -56 18 -101 34 -99 36 4 5 340 -72 516 -118 378 -98 713
-207 1049 -341 742 -296 1166 -440 1666 -568 531 -136 999 -210 1650 -262 242
-19 933 -16 1165 5 1082 101 1914 411 2508 936 90 79 185 188 157 178 -17 -6
-17 -4 3 9 17 13 22 26 22 61 l0 45 -132 -70 c-929 -490 -1836 -660 -2773
-522 -945 139 -1965 582 -3255 1413 -102 66 -329 217 -505 337 -363 247 -515
343 -768 488 -693 397 -1411 690 -2159 882 l-168 43 0 611 0 611 68 67 c38 37
86 97 106 133 l39 65 61 0 61 0 100 100 100 100 103 0 c112 0 145 10 181 56
12 15 21 37 21 50 l0 24 -549 0 -549 0 -4 198 c-3 178 -5 201 -25 237 -11 22
-29 47 -39 56 -52 46 -132 65 -196 48z"/>
<path d="M8300 3534 c-207 -54 -373 -217 -436 -429 -24 -81 -24 -239 0 -320
25 -83 78 -181 131 -241 96 -111 254 -189 405 -201 l75 -6 0 51 0 50 -66 6
c-129 12 -237 65 -326 159 -61 65 -86 105 -114 187 -29 87 -30 218 -1 310 116
361 578 469 840 196 99 -103 142 -209 142 -352 0 -186 -97 -350 -263 -444
l-57 -32 0 -49 c0 -27 4 -49 9 -49 23 0 110 45 168 86 112 80 201 215 233 354
16 69 17 200 1 270 -7 30 -31 93 -54 139 -99 204 -308 332 -541 330 -50 0
-116 -7 -146 -15z"/>
<path d="M9618 3534 c-181 -43 -353 -197 -418 -372 -24 -63 -41 -142 -31 -142
3 -1 25 -5 49 -9 40 -8 43 -7 48 18 86 408 558 561 850 276 203 -198 203 -522
0 -720 -34 -33 -83 -71 -109 -84 -50 -24 -67 -50 -67 -102 0 -39 16 -38 104 8
90 47 209 163 254 250 43 81 72 199 72 288 0 89 -29 207 -72 288 -71 136 -240
266 -389 302 -79 18 -215 18 -291 -1z"/>
<path d="M10930 3535 c-209 -57 -382 -229 -434 -431 -21 -82 -21 -81 17 -89
17 -4 39 -9 48 -11 13 -4 18 5 23 41 12 78 78 194 148 262 253 242 644 170
801 -146 l42 -84 0 -131 c0 -130 0 -131 -37 -208 -60 -127 -164 -222 -294
-269 -46 -17 -81 -22 -164 -22 -117 0 -185 18 -271 74 -98 63 -197 195 -215
289 -5 25 -13 32 -48 40 -22 6 -47 13 -55 16 -10 3 -12 -4 -6 -33 49 -269 283
-473 560 -490 246 -14 467 113 579 335 81 160 79 377 -4 543 -66 130 -203 250
-341 299 -84 29 -267 37 -349 15z"/>
<path d="M9080 2944 l0 -54 53 0 c196 -1 404 -163 456 -356 9 -35 16 -42 50
-52 61 -19 72 -16 65 16 -29 133 -80 228 -171 319 -107 107 -232 163 -395 177
l-58 5 0 -55z"/>
<path d="M10400 2944 l0 -54 54 0 c115 0 261 -70 346 -167 43 -49 110 -173
110 -204 0 -22 21 -35 73 -44 34 -7 37 -5 37 16 -1 39 -43 151 -80 213 -47 78
-162 185 -242 224 -72 35 -154 58 -240 65 l-58 6 0 -55z"/>
<path d="M8885 2951 c-186 -75 -329 -244 -370 -438 -56 -265 77 -544 317 -663
137 -67 254 -83 396 -54 182 37 342 160 420 324 40 85 67 179 54 191 -4 4 -26
9 -49 13 l-41 6 -12 -53 c-62 -263 -330 -438 -587 -384 -108 23 -178 62 -258
142 -81 81 -119 151 -142 264 -43 206 71 442 258 536 51 27 63 47 57 102 l-3
31 -40 -17z"/>
<path d="M10155 2930 c-100 -49 -170 -110 -233 -204 -69 -103 -93 -178 -99
-306 -9 -188 43 -327 172 -456 125 -125 251 -178 425 -178 72 0 124 6 165 18
166 49 303 162 375 308 36 75 71 191 59 201 -2 3 -25 7 -50 11 l-47 7 -6 -46
c-4 -25 -25 -81 -47 -124 -111 -222 -369 -329 -604 -252 -248 82 -395 353
-330 606 35 132 139 266 249 320 51 25 54 28 60 72 3 26 3 50 -2 55 -4 4 -43
-10 -87 -32z"/>
<path d="M9170 2839 c0 -36 39 -143 75 -205 94 -162 316 -293 498 -294 l47 0
0 48 0 48 -87 11 c-196 27 -351 151 -417 335 -21 60 -23 62 -69 74 l-47 12 0
-29z"/>
<path d="M12720 2304 c-95 -80 -385 -271 -536 -353 -382 -209 -859 -366 -1334
-440 -757 -118 -1619 -63 -2485 159 -276 71 -615 177 -747 234 -21 9 -38 15
-38 12 0 -8 617 -331 770 -401 647 -300 1217 -470 1830 -546 210 -26 636 -36
840 -20 622 49 1194 230 1660 524 l115 72 3 408 c1 224 -1 407 -5 406 -5 0
-37 -25 -73 -55z"/>
</g>
</svg>
