<?xml version="1.0" standalone="no"?>
<!DOCTYPE svg PUBLIC "-//W3C//DTD SVG 20010904//EN"
 "http://www.w3.org/TR/2001/REC-SVG-20010904/DTD/svg10.dtd">
<svg version="1.0" xmlns="http://www.w3.org/2000/svg"
 width="1280.000000pt" height="678.000000pt" viewBox="0 0 1280.000000 678.000000"
 preserveAspectRatio="xMidYMid meet">
<metadata>
Created by potrace 1.15, written by Peter Selinger 2001-2017
</metadata>
<g transform="translate(0.000000,678.000000) scale(0.100000,-0.100000)"
fill="#000000" stroke="none">
<path d="M935 6765 c-443 -82 -794 -463 -907 -988 -32 -147 -32 -446 0 -593
74 -345 241 -621 484 -804 85 -64 252 -151 330 -172 42 -11 45 -13 26 -22 -54
-27 -18 -59 93 -82 101 -22 367 -22 468 0 83 18 123 39 115 61 -8 19 -106 55
-135 49 -13 -3 11 11 55 30 180 82 368 238 489 408 100 140 180 331 223 528
27 123 27 467 0 595 -139 664 -678 1094 -1241 990z"/>
<path d="M7907 6739 c-486 -51 -880 -469 -984 -1044 -23 -125 -22 -378 1 -509
87 -484 386 -862 793 -1002 59 -20 87 -34 70 -34 -32 0 -46 -25 -26 -45 71
-70 579 -71 674 -1 19 14 19 15 1 35 -10 11 -43 26 -72 32 l-55 12 79 37 c364
171 619 525 699 970 22 127 22 382 0 505 -38 209 -127 429 -236 582 -232 327
-585 500 -944 462z"/>
<path d="M4345 6724 c-254 -38 -456 -142 -633 -328 -176 -186 -295 -427 -348
-706 -24 -131 -24 -389 0 -525 88 -488 382 -853 811 -1007 44 -15 68 -26 53
-23 -35 7 -51 -31 -22 -52 69 -51 411 -68 576 -29 59 14 108 39 108 56 0 15
-55 40 -103 46 l-44 6 109 55 c249 125 419 300 549 568 178 366 193 808 42
1190 -86 218 -233 417 -402 546 -91 69 -268 154 -371 179 -83 19 -264 33 -325
24z"/>
<path d="M11390 6720 c-284 -40 -561 -222 -736 -485 -333 -502 -315 -1200 43
-1677 83 -109 164 -187 272 -261 78 -53 208 -117 278 -137 37 -11 40 -14 27
-28 -44 -43 32 -77 212 -94 204 -19 463 16 472 64 4 22 -43 46 -103 55 l-46 6
75 33 c275 119 514 376 631 679 234 604 58 1301 -416 1655 -200 149 -474 223
-709 190z"/>
<path d="M4485 2910 c-133 -21 -279 -79 -405 -162 -86 -56 -253 -224 -314
-317 -253 -381 -311 -876 -156 -1316 129 -363 395 -642 724 -756 44 -16 73
-29 64 -29 -18 0 -33 -33 -23 -50 24 -38 290 -68 463 -51 134 13 181 24 213
50 19 15 21 21 11 34 -14 17 -98 43 -127 39 -11 -2 30 22 92 52 195 97 341
226 463 408 332 497 314 1198 -44 1674 -65 87 -205 218 -294 275 -90 58 -193
102 -300 130 -89 23 -277 33 -367 19z"/>
<path d="M7920 2909 c-365 -56 -703 -351 -855 -747 -126 -328 -134 -694 -23
-1026 125 -375 401 -665 740 -781 40 -13 65 -25 56 -25 -18 0 -33 -33 -23 -50
11 -17 105 -39 219 -51 167 -17 382 3 445 42 17 10 31 24 31 29 0 16 -89 53
-124 52 -23 -1 -9 10 62 43 133 63 224 127 327 230 192 191 317 440 372 740
26 137 23 389 -5 532 -100 505 -424 884 -850 994 -91 23 -277 32 -372 18z"/>
<path d="M928 2855 c-444 -84 -798 -479 -905 -1010 -27 -136 -24 -434 5 -571
103 -476 388 -827 786 -966 45 -15 74 -28 65 -28 -27 0 -44 -27 -29 -45 60
-72 569 -79 677 -9 13 8 20 20 17 29 -8 19 -106 55 -135 49 -13 -3 11 11 55
30 302 136 549 417 661 751 52 154 66 239 72 435 4 158 2 202 -15 305 -51 294
-176 541 -371 735 -148 148 -291 231 -479 282 -101 26 -298 33 -404 13z"/>
<path d="M11330 2851 c-198 -44 -349 -124 -499 -266 -519 -489 -557 -1410 -81
-1950 134 -152 321 -278 493 -331 48 -15 55 -19 38 -26 -35 -12 -26 -44 17
-61 142 -57 548 -52 639 8 13 9 23 22 21 28 -6 19 -75 49 -114 50 -32 1 -28 4
54 42 359 169 607 503 694 940 29 143 31 412 5 550 -68 351 -241 644 -492 834
-88 66 -246 144 -350 171 -116 31 -312 36 -425 11z"/>
</g>
</svg>
