<?xml version="1.0" standalone="no"?>
<!DOCTYPE svg PUBLIC "-//W3C//DTD SVG 20010904//EN"
 "http://www.w3.org/TR/2001/REC-SVG-20010904/DTD/svg10.dtd">
<svg version="1.0" xmlns="http://www.w3.org/2000/svg"
 width="1280.000000pt" height="902.000000pt" viewBox="0 0 1280.000000 902.000000"
 preserveAspectRatio="xMidYMid meet">
<metadata>
Created by potrace 1.15, written by Peter Selinger 2001-2017
</metadata>
<g transform="translate(0.000000,902.000000) scale(0.100000,-0.100000)"
fill="#000000" stroke="none">
<path d="M0 8903 l0 -118 67 67 68 68 -50 50 c-78 79 -85 73 -85 -67z"/>
<path d="M185 8970 l-49 -50 124 -125 125 -125 -125 -125 -125 -125 125 -125
125 -125 -128 -128 -128 -127 -65 68 -64 67 0 -132 0 -132 65 64 65 65 124
-124 125 -124 58 51 c32 28 89 82 127 121 l70 70 -124 131 -123 131 119 120
c65 65 123 119 129 119 13 0 245 -232 245 -245 0 -5 -55 -65 -122 -132 l-123
-123 120 -120 c66 -66 124 -120 130 -120 5 0 65 55 132 122 l123 123 120 -120
c66 -66 120 -124 120 -130 0 -5 -55 -65 -122 -132 l-123 -123 125 -125 125
-125 -125 -125 -125 -125 125 -125 125 -125 -128 -127 -127 -128 -125 125
-125 125 -125 -125 -125 -125 -127 127 -126 126 129 126 129 125 -127 128
-128 128 -125 -125 -125 -125 -65 65 -65 64 0 -129 0 -129 65 64 65 65 33 -35
c18 -19 73 -77 122 -128 l89 -93 -124 -124 -125 -125 128 -127 127 -128 125
125 125 125 125 -125 125 -125 125 125 125 125 123 -123 c67 -67 127 -122 132
-122 13 0 245 232 245 245 0 5 -55 65 -122 132 l-123 123 120 120 c66 66 124
120 130 120 5 0 65 -55 132 -122 l123 -123 125 125 125 125 125 -125 125 -125
125 125 125 125 -125 125 -125 125 -125 -125 -125 -125 -125 125 -125 125
-125 -125 -125 -125 -127 128 -128 127 124 124 c106 106 122 126 113 142 -6
11 -60 68 -121 129 l-111 110 125 125 125 125 -125 125 -125 125 -125 -125
-125 -125 -125 125 -125 125 125 125 125 125 125 -125 125 -125 125 125 125
125 127 -128 128 -127 -125 -125 -125 -125 125 -125 125 -125 -128 -128 -127
-127 125 -125 125 -125 125 125 125 125 125 -125 125 -125 127 127 127 127
-124 126 -124 125 124 125 125 125 -125 125 -125 125 125 125 124 124 -114
118 c-63 65 -117 122 -122 128 -5 5 -58 -40 -131 -113 -67 -67 -127 -122 -133
-122 -7 0 -64 54 -127 120 -64 66 -120 120 -124 120 -4 0 -63 -55 -130 -122
l-123 -123 -101 100 c-55 55 -110 113 -121 128 l-21 29 124 124 123 124 -49
50 -49 50 -150 0 -150 0 -52 -51 -52 -51 -50 51 -51 51 -153 0 -154 0 -49 -50
-49 -50 124 -125 125 -125 -125 -125 -125 -125 -125 125 -125 125 125 125 124
125 -49 50 -49 50 -151 0 -151 0 -49 -50z m1087 -181 l120 -121 -126 -127
-126 -126 -127 128 -128 129 125 119 c69 65 129 119 134 119 4 0 62 -55 128
-121z m998 -754 l-125 -125 125 -125 125 -125 -127 -127 c-70 -70 -129 -125
-130 -122 -2 2 -57 60 -123 127 l-120 122 125 125 125 125 -125 125 -125 125
125 125 125 125 125 -125 125 -125 -125 -125z"/>
<path d="M1695 8970 l-50 -50 125 -125 125 -125 125 125 124 125 -49 50 -49
50 -151 0 -151 0 -49 -50z"/>
<path d="M2197 8970 l-52 -49 127 -128 128 -128 125 125 125 125 125 -125 125
-125 125 125 125 125 124 -124 c106 -106 126 -122 142 -113 11 6 68 60 129
121 l109 111 -54 55 -54 55 -145 0 -145 0 -53 -52 -53 -52 -53 52 -53 52 -144
0 -144 0 -53 -52 -53 -52 -53 52 -53 52 -148 0 -147 0 -52 -50z"/>
<path d="M3710 8965 l-55 -55 125 -125 125 -125 -125 -125 -125 -125 125 -125
125 -125 -125 -125 c-69 -69 -127 -125 -131 -125 -3 0 -59 57 -124 126 l-118
126 124 124 124 124 -127 127 -127 127 -95 -94 c-51 -52 -108 -108 -125 -125
l-31 -29 -125 124 -125 125 -127 -128 -128 -127 125 -125 125 -125 -125 -125
-125 -125 128 -127 127 -128 125 125 125 125 125 -125 125 -125 125 125 125
125 124 -124 125 -124 126 118 c69 65 124 122 123 126 -2 4 -57 65 -122 134
l-119 127 119 119 c65 65 123 119 129 119 5 0 65 -55 132 -122 l123 -123 125
125 125 125 125 -125 125 -125 125 125 125 125 127 -127 128 -128 -60 -61
c-33 -33 -91 -88 -128 -121 l-68 -61 -125 124 -124 124 -123 -123 c-67 -67
-127 -122 -132 -122 -6 0 -63 55 -127 122 l-117 123 -128 -127 -128 -128 120
-120 c66 -66 124 -120 130 -120 5 0 64 54 130 120 l120 120 125 -125 125 -125
-125 -125 -125 -125 125 -125 125 -125 -125 -125 -124 -125 44 -47 c25 -27 80
-84 122 -128 l78 -80 -125 -125 -125 -125 -125 125 -125 125 -125 -125 -125
-125 -125 125 -125 125 127 127 128 128 -128 127 -127 128 -125 -125 -125
-125 -125 125 -125 125 125 125 125 125 124 -124 125 -124 125 118 c69 64 126
120 126 124 0 3 -56 62 -125 131 l-125 125 -125 -125 -125 -125 -125 125 -125
125 -125 -125 -125 -125 -125 125 -125 124 -32 -29 c-82 -74 -218 -211 -218
-220 0 -5 55 -65 122 -132 l122 -122 -122 -117 c-67 -63 -122 -121 -122 -127
0 -7 55 -67 122 -134 l123 -123 -120 -120 c-66 -66 -124 -120 -130 -120 -5 0
-65 55 -132 122 l-123 123 -125 -125 -125 -125 -125 125 -125 125 -125 -125
-125 -125 83 -85 c45 -47 100 -104 122 -128 l39 -42 -124 -125 -125 -125 125
-125 125 -125 -125 -125 -125 -125 125 -125 125 -125 125 125 125 125 -125
125 -125 125 125 125 125 125 -125 125 -125 125 128 128 129 127 124 -130 124
-130 128 128 129 129 122 -128 121 -128 -125 -126 -125 -125 -124 124 -124
124 -126 -119 c-69 -65 -126 -121 -126 -124 0 -3 56 -61 125 -130 l125 -125
125 125 125 125 125 -125 125 -125 125 125 125 125 125 -125 125 -125 -125
-125 -125 -125 -125 125 -125 125 -125 -125 -125 -125 -124 124 -124 124 -126
-119 c-69 -65 -126 -121 -126 -124 0 -3 56 -61 125 -130 l125 -125 125 125
125 125 125 -125 125 -125 125 125 125 125 124 -124 124 -124 29 21 c15 11 73
66 128 121 l100 101 -123 123 c-67 67 -122 125 -122 129 0 3 54 59 120 124 66
64 120 122 120 128 0 6 -54 65 -120 131 -66 66 -119 122 -118 125 2 3 58 59
126 124 l123 120 124 -124 125 -125 125 125 125 125 125 -125 125 -125 125
125 125 125 127 -128 128 -127 -125 -125 -125 -125 125 -125 125 -125 -128
-128 -128 -127 -126 128 -126 128 -126 -125 -126 -126 125 -125 125 -125 -125
-125 -125 -125 -125 125 -125 125 125 125 124 125 -119 122 c-66 68 -122 124
-125 126 -3 1 -61 -54 -130 -123 l-125 -125 125 -125 125 -125 -125 -125 -125
-125 125 -125 125 -125 -127 -127 -126 -126 -121 122 c-67 67 -121 125 -121
129 0 4 55 62 122 129 l123 123 -128 127 -127 128 -123 -123 c-67 -67 -127
-122 -132 -122 -5 0 -62 55 -127 123 l-117 122 -128 -127 -128 -128 125 -125
125 -125 -125 -125 -125 -125 128 -127 127 -128 120 120 c66 66 120 124 120
130 0 5 -55 65 -122 132 l-123 123 126 126 125 125 128 -127 128 -127 -126
-126 -126 -126 125 -125 125 -125 125 125 125 125 124 -124 125 -124 125 118
c69 64 126 122 126 126 0 5 -55 66 -122 135 l-122 125 119 119 c66 66 124 120
130 120 13 0 245 -232 245 -245 0 -5 -55 -65 -122 -132 l-123 -123 120 -120
c66 -66 124 -120 130 -120 6 0 64 54 130 120 l119 119 -19 23 c-11 13 -65 70
-122 128 l-103 105 125 125 125 125 125 -125 125 -125 125 125 125 125 126
-126 126 -127 -78 -78 c-44 -44 -101 -99 -127 -123 l-48 -45 -125 125 -124
124 -127 -128 -128 -127 125 -125 125 -125 -125 -125 -125 -125 125 -125 125
-125 -124 -124 -124 -124 121 -129 122 -128 -125 -125 -125 -125 -125 125
-125 125 -125 -125 -125 -125 -128 128 -127 128 130 124 130 124 -127 128
-128 128 -125 -125 -125 -125 73 -75 c40 -41 95 -99 122 -128 l49 -52 -124
-125 -125 -125 128 -127 127 -128 125 125 125 125 125 -125 125 -125 125 125
125 125 123 -123 c67 -67 127 -122 132 -122 5 0 64 54 130 120 l120 120 125
-125 125 -125 -125 -125 -125 -125 125 -125 125 -125 -127 -127 -127 -127 -32
29 c-17 17 -72 74 -122 128 l-90 98 124 125 124 124 -125 125 -125 125 -125
-125 -125 -125 125 -125 125 -125 -128 -128 -129 -127 -124 130 -124 130 -127
-127 -128 -128 125 -125 125 -125 -125 -125 -125 -125 -125 125 -125 125 124
124 124 124 -119 126 c-65 69 -121 126 -124 126 -3 0 -61 -56 -130 -125 l-125
-125 125 -125 125 -125 -125 -125 -125 -125 125 -125 125 -125 -123 -123 c-67
-67 -122 -127 -122 -132 0 -6 54 -64 120 -130 l120 -120 123 123 c67 67 126
122 129 122 4 0 60 -54 124 -120 64 -66 122 -120 128 -120 6 0 65 54 131 120
66 66 122 119 125 118 3 -2 59 -58 124 -126 l120 -123 -124 -124 -125 -125
125 -125 125 -125 -55 -55 -54 -55 109 0 109 0 -54 55 -55 55 125 125 125 125
-125 125 -125 125 127 126 126 127 126 -129 126 -129 128 128 127 127 125
-125 125 -125 -123 -123 c-67 -67 -122 -126 -122 -130 0 -5 54 -63 120 -130
l120 -122 127 127 128 128 -125 125 -125 125 125 125 125 125 -125 125 -125
125 125 125 124 125 -29 32 c-16 18 -71 76 -122 128 l-93 95 125 125 125 125
125 -125 125 -125 125 125 125 125 124 -124 125 -124 98 90 c54 50 111 105
128 122 l29 32 -127 127 -127 127 -125 -125 -125 -125 -125 125 -125 125 -125
-125 -125 -125 -124 124 -125 124 -98 -90 c-54 -50 -111 -105 -128 -122 l-29
-31 122 -123 c67 -67 122 -127 122 -133 0 -5 -57 -63 -126 -128 l-126 -119
-124 124 -124 124 -125 -125 -125 -125 -125 125 -125 125 -125 -125 -125 -125
-127 128 -128 127 90 91 c50 50 107 104 128 121 l39 31 124 -124 124 -124 125
125 125 125 125 -125 125 -125 127 128 128 127 -125 125 -125 125 125 125 125
125 -125 125 -125 125 128 127 127 128 128 -128 127 -127 125 125 125 125 125
-125 125 -125 125 125 125 125 -125 125 -125 125 125 125 125 125 -125 125
-125 125 125 125 c69 69 128 124 131 123 4 -2 60 -58 125 -126 l117 -123 -124
-125 -124 -124 125 -125 125 -125 -125 -125 -125 -125 125 -125 125 -125 120
120 c66 66 125 120 130 120 5 0 65 -55 132 -122 l123 -123 125 125 125 125
125 -125 125 -125 125 125 125 125 127 -128 128 -127 -90 -91 c-50 -50 -107
-104 -128 -121 l-39 -31 -124 124 -124 124 -125 -125 -125 -125 -125 125 -125
125 -127 -128 -128 -127 120 -120 c66 -66 124 -120 130 -120 5 0 65 55 132
122 l123 123 125 -125 125 -125 125 125 125 125 128 -128 127 -128 -129 -126
-128 -126 126 -126 126 -126 125 125 125 125 125 -125 125 -125 127 128 128
127 -125 125 -125 125 125 125 125 125 -125 125 -125 125 123 123 c67 67 122
127 122 132 0 6 -54 64 -120 130 l-120 120 -123 -123 c-67 -67 -127 -122 -132
-122 -13 0 -245 232 -245 245 0 5 55 65 122 132 l123 123 -125 125 -125 125
125 125 125 125 -125 125 -125 125 125 125 125 125 127 -127 128 -128 127 128
128 127 -125 125 -125 125 125 125 125 125 125 -125 125 -125 -125 -125 -125
-125 125 -125 125 -125 -123 -123 c-67 -67 -122 -127 -122 -132 0 -6 54 -64
120 -130 l120 -120 123 123 c67 67 126 122 131 122 5 0 61 -54 123 -120 63
-66 118 -120 122 -120 5 0 65 55 135 122 124 118 128 121 145 102 10 -10 64
-68 121 -127 l104 -108 -124 -124 -125 -125 125 -125 125 -125 -125 -125 -125
-125 125 -125 125 -125 85 83 c47 45 104 100 128 122 l42 39 125 -124 125
-125 125 125 125 125 125 -125 125 -125 125 125 125 125 127 -127 127 -127
-20 -22 c-10 -12 -68 -67 -127 -122 l-108 -100 -125 124 -124 124 -125 -125
-125 -125 125 -125 125 -125 125 125 125 125 128 -128 127 -129 -130 -123
-130 -124 127 -128 128 -128 125 125 125 125 125 -125 125 -125 125 125 125
125 -68 70 c-37 38 -92 96 -122 128 l-55 57 125 125 125 125 -125 125 -125
125 125 125 125 125 -125 125 -125 125 127 127 128 128 55 -55 55 -54 0 109 0
109 -55 -54 -55 -55 -125 125 -125 125 -125 -125 -125 -125 78 -80 c42 -44 97
-101 122 -128 l44 -47 -119 -120 c-66 -66 -124 -120 -130 -120 -6 0 -64 54
-130 120 l-120 120 123 123 c67 67 122 127 122 132 0 13 -232 245 -245 245 -6
0 -64 -54 -130 -120 l-120 -120 80 -82 c44 -46 100 -104 124 -130 53 -56 63
-38 -102 -191 l-108 -100 -125 124 -124 124 -125 -125 -125 -125 -125 125
-125 125 -125 -125 -125 -125 -127 128 -128 127 125 125 125 125 -125 125
-125 125 128 127 127 128 125 -125 125 -125 125 125 125 125 127 -128 128
-127 -124 -124 -124 -124 119 -126 c65 -69 121 -126 124 -126 3 0 61 56 130
125 l125 125 -125 125 -125 125 125 125 125 125 -125 125 -125 125 124 124
c113 113 123 126 111 143 -8 10 -62 68 -122 128 l-108 110 125 125 125 125
125 -125 125 -125 125 125 125 125 126 -127 127 -126 -129 -125 -129 -126 128
-128 127 -128 127 127 128 128 -125 125 -125 125 125 125 125 125 -125 125
-126 126 -24 -22 c-14 -12 -71 -67 -128 -123 l-102 -101 -125 125 -125 125
-125 -125 -125 -125 -125 125 -125 125 -122 -120 c-67 -66 -125 -121 -127
-123 -3 -1 50 -58 117 -125 67 -67 122 -127 122 -133 0 -12 -233 -244 -245
-244 -4 0 -61 54 -126 120 -65 66 -121 120 -126 120 -4 0 -63 -55 -130 -122
l-123 -123 -125 125 -125 125 -125 -125 -125 -125 -125 125 c-69 69 -125 127
-125 130 0 3 57 59 126 124 l126 119 124 -124 124 -124 125 125 125 125 -62
65 c-34 36 -89 93 -122 128 l-61 62 125 125 125 125 -123 123 c-67 67 -122
127 -122 134 0 6 55 63 122 127 l123 116 -123 123 c-67 67 -122 127 -122 132
0 9 96 106 208 210 l42 39 125 -124 125 -125 125 125 125 125 125 -125 125
-125 125 125 125 125 127 -127 127 -127 -20 -22 c-10 -12 -68 -67 -127 -122
l-108 -100 -125 124 -124 124 -125 -125 -125 -125 -125 125 -125 125 -127
-128 -128 -127 120 -120 c66 -66 124 -120 130 -120 5 0 65 55 132 122 l123
123 125 -125 125 -125 125 125 125 125 127 -128 128 -127 -128 -128 -127 -127
125 -125 125 -125 125 125 125 125 123 -123 c67 -67 127 -122 132 -122 13 0
245 233 245 245 0 5 -55 65 -122 132 l-123 123 125 125 125 125 -125 125 -125
125 125 125 125 125 -125 125 -125 125 -120 -120 c-66 -66 -125 -120 -130
-120 -6 0 -64 54 -130 120 l-120 120 128 128 128 127 115 -122 c64 -68 121
-123 127 -123 7 0 67 55 134 122 l123 122 50 -49 50 -49 0 99 0 99 -50 -49
-50 -49 -125 124 -125 125 -125 -125 -125 -125 -123 123 c-67 67 -127 122
-132 122 -6 0 -64 -54 -129 -119 l-119 -120 90 -98 c50 -54 105 -111 122 -127
17 -17 31 -33 31 -37 0 -4 -57 -60 -126 -125 l-125 -118 -125 125 -124 124
-125 -125 -125 -125 -125 125 -125 125 -125 -125 -125 -125 -128 128 -127 129
123 117 c67 64 122 121 122 127 0 5 -55 64 -122 131 l-123 123 128 127 127
128 123 -123 c67 -67 127 -122 133 -122 5 0 64 54 129 120 l119 121 125 -125
126 -126 -124 -124 -124 -125 80 -88 c45 -48 100 -106 122 -128 l41 -39 128
127 127 127 -125 125 -125 125 125 125 125 125 -125 125 -125 125 124 124 124
125 -90 98 c-50 54 -105 111 -122 127 l-31 30 -123 -122 c-68 -67 -128 -122
-134 -122 -5 0 -60 54 -122 120 -62 66 -118 120 -124 120 -7 0 -67 -55 -134
-122 l-123 -123 -125 125 -125 125 -125 -125 -125 -125 -125 125 c-69 69 -125
127 -125 130 0 3 57 59 126 124 l126 119 124 -124 124 -124 127 128 128 127
-125 125 -125 125 125 125 125 125 -65 65 -64 65 -124 0 -124 0 -59 -60 c-32
-33 -59 -63 -59 -67 0 -4 55 -63 122 -130 l123 -123 -128 -128 -128 -127 -125
129 -125 130 -127 -127 -127 -127 125 -125 125 -125 -125 -125 -125 -125 125
-125 125 -125 -123 -123 c-67 -67 -122 -127 -122 -132 0 -13 232 -245 245
-245 5 0 64 54 130 120 l120 120 125 -125 125 -125 -125 -125 -125 -125 125
-125 125 -125 -124 -124 -124 -125 122 -127 122 -128 -125 -125 -126 -126
-125 125 -125 125 -125 -125 -125 -125 -124 124 c-106 106 -126 122 -142 113
-11 -6 -68 -60 -129 -121 l-110 -111 128 -127 127 -128 125 125 125 125 125
-125 125 -125 125 125 125 125 125 -125 125 -125 -125 -125 -125 -125 -125
125 -125 125 -125 -125 -125 -125 -124 124 -124 124 -29 -21 c-15 -11 -73 -66
-128 -121 l-100 -101 128 -127 127 -128 125 125 125 125 125 -125 125 -125
125 125 125 125 128 -128 127 -127 -128 -127 -128 -128 -124 130 -124 130
-128 -127 -128 -128 125 -125 125 -125 -125 -125 -125 -125 125 -125 125 -125
-125 -125 -125 -125 -125 125 -125 125 125 125 125 125 -125 125 -125 125 124
124 124 125 -118 125 c-64 69 -120 126 -124 126 -3 0 -60 -54 -126 -120 -66
-66 -124 -120 -130 -120 -5 0 -65 55 -132 122 l-123 123 -125 -125 -125 -125
-125 125 -125 125 -125 -125 -125 -125 -127 128 -128 127 125 125 124 124
-120 123 c-65 68 -121 124 -124 126 -3 1 -61 -54 -130 -123 l-125 -125 125
-125 125 -125 -125 -125 -125 -125 -125 125 -125 125 125 125 124 125 -119
122 c-66 68 -122 124 -125 126 -3 1 -61 -54 -130 -123 l-125 -125 125 -125
125 -125 -125 -125 -125 -125 125 -125 125 -125 120 120 c66 66 125 120 130
120 13 0 245 -232 245 -245 0 -5 -55 -65 -122 -132 l-123 -123 125 -125 125
-125 -125 -125 -125 -125 125 -125 125 -125 -124 -124 -124 -124 119 -126 c65
-69 121 -126 124 -126 3 0 61 56 130 125 l125 125 -125 125 -125 125 125 125
125 125 -125 125 -125 125 124 124 c113 113 123 126 111 143 -8 10 -62 68
-122 128 l-108 110 125 125 125 125 125 -125 125 -125 125 125 125 125 128
-128 127 -128 -125 -119 c-69 -66 -128 -119 -132 -120 -3 0 -60 55 -127 123
l-120 122 -128 -127 -128 -128 125 -125 125 -125 -125 -125 -125 -125 125
-125 125 -125 -124 -124 -124 -124 121 -129 122 -128 -125 -125 -125 -125
-125 125 -125 125 -125 -125 -125 -125 -128 128 -127 128 129 125 130 125
-127 127 -127 127 -127 -127 -128 -128 125 -125 125 -125 -125 -125 -125 -125
-125 125 -125 125 125 125 125 125 -125 125 -125 125 128 127 127 128 124
-124 125 -124 123 117 c68 65 124 121 126 125 1 3 -54 62 -123 131 l-125 125
-125 -125 -125 -125 -125 125 -125 125 -125 -125 -125 -125 -125 125 -125 125
125 125 125 125 125 -125 125 -125 125 125 125 125 124 -124 125 -124 123 118
c68 65 124 122 126 126 4 10 -228 249 -242 249 -6 0 -66 -55 -133 -122 l-123
-123 -125 125 -125 125 -125 -125 -125 -125 -127 128 -128 127 120 120 c66 66
124 120 130 120 5 0 65 -55 132 -122 l123 -123 128 128 127 127 -128 127 -127
128 -128 -128 -128 -128 -122 128 -121 128 -128 -127 -128 -128 125 -125 125
-125 -125 -125 -125 -125 125 -125 125 -125 -125 -125 -125 -125 -125 125
-125 125 125 125 125 125 -125 125 -125 125 124 124 124 125 -118 126 c-65 69
-122 124 -126 123 -5 -2 -62 -56 -127 -120 -66 -65 -124 -118 -130 -118 -5 0
-61 54 -122 120 -62 66 -118 120 -124 120 -6 0 -66 -55 -133 -122 l-123 -123
-125 125 -125 125 -125 -125 -125 -125 -127 128 -128 127 100 101 c55 55 113
110 128 121 l29 21 124 -124 124 -124 123 123 c67 67 127 122 132 122 5 0 64
-54 130 -120 l120 -120 125 125 125 125 -125 125 -125 125 125 125 125 125
-125 125 -125 125 128 128 129 127 124 -130 125 -129 127 127 127 127 -127
127 -128 128 -125 -125 -125 -125 -125 125 -125 125 -123 -123 c-67 -67 -127
-122 -132 -122 -13 0 -245 232 -245 245 0 5 55 65 122 132 l123 123 -125 125
-125 125 125 125 125 125 -125 125 -125 125 128 128 127 127 128 -128 127
-129 -130 -124 -129 -125 127 -127 127 -127 125 125 125 125 125 -125 125
-125 127 128 128 127 -125 125 -125 125 125 125 125 125 -125 125 -125 125
125 125 124 124 -109 113 c-60 62 -115 120 -122 128 -11 12 -30 -2 -136 -108
-67 -67 -127 -122 -133 -122 -7 0 -64 54 -127 120 -64 66 -120 120 -124 120
-4 0 -63 -55 -130 -122 l-123 -123 -125 125 -125 125 -125 -125 -125 -125
-123 123 c-67 67 -127 122 -132 122 -5 0 -64 -54 -130 -120 l-120 -120 -125
125 -125 125 125 125 125 125 -55 55 -54 55 -141 0 -141 0 -54 -55z m-433
-932 l-127 -128 -127 127 -127 127 127 128 128 127 127 -127 127 -127 -128
-127z m2513 -8 l-125 -125 125 -125 125 -125 -127 -127 c-70 -70 -129 -125
-130 -122 -2 2 -57 60 -123 127 l-120 122 125 125 125 125 -125 125 -125 125
125 125 125 125 125 -125 125 -125 -125 -125z m4527 -267 l123 -123 125 125
125 125 125 -125 125 -125 125 125 125 125 127 -128 128 -127 -120 -120 c-66
-66 -124 -120 -130 -120 -5 0 -65 55 -132 122 l-123 123 -125 -125 -125 -125
-125 125 -125 125 -125 -125 -125 -125 -127 127 -127 128 124 119 c69 66 127
120 130 120 3 1 60 -54 127 -121z m-7044 -476 c64 -64 117 -122 117 -127 0
-13 -232 -245 -245 -245 -6 0 -64 54 -130 120 l-120 120 125 125 c69 69 127
125 130 125 3 0 58 -53 123 -118z m-3 -757 l-125 -125 125 -125 125 -125 -128
-127 -127 -128 -120 120 c-66 66 -120 124 -120 130 0 5 55 65 122 132 l123
123 -125 125 -125 125 125 125 125 125 125 -125 125 -125 -125 -125z m503 251
c64 -69 117 -128 117 -133 0 -5 -54 -62 -120 -128 l-120 -120 -127 128 -128
127 125 125 c69 69 127 125 130 125 3 0 58 -56 123 -124z m1507 -761 l-125
-125 125 -125 125 -125 -125 -125 -125 -125 -125 125 -125 125 125 125 125
125 -125 125 -125 125 125 125 125 125 125 -125 125 -125 -125 -125z m7040
-20 l-125 -125 125 -125 125 -125 -128 -127 -127 -128 -91 90 c-50 50 -104
107 -121 128 l-31 39 124 124 124 124 -125 125 -125 125 125 125 125 125 125
-125 125 -125 -125 -125z m-6540 -1490 l-125 -125 125 -125 125 -125 -124
-124 -124 -125 51 -58 c28 -32 82 -89 121 -128 l71 -70 124 124 c68 68 128
122 134 120 5 -2 62 -58 125 -125 l116 -121 -125 -124 -124 -124 -125 125
-125 125 -125 -125 -125 -125 -124 124 -125 124 -123 -117 c-68 -65 -124 -121
-126 -125 -1 -3 54 -62 123 -131 l125 -125 125 125 125 125 125 -125 125 -125
125 125 125 125 127 -128 128 -127 -120 -120 c-66 -66 -124 -120 -130 -120 -5
0 -65 55 -132 122 l-123 123 -125 -125 -125 -125 -125 125 -125 125 -123 -123
c-67 -67 -127 -122 -132 -122 -13 0 -245 232 -245 245 0 5 55 65 122 132 l123
123 -125 125 -125 125 125 125 125 125 -125 125 -125 125 128 128 127 127 128
-128 127 -128 -129 -125 -130 -125 127 -127 127 -127 127 127 128 128 -125
125 -125 125 125 125 125 125 -123 123 c-67 67 -122 125 -122 129 0 4 55 62
122 128 l122 121 125 -126 126 -125 -125 -125z m4527 -267 l123 -123 125 125
125 125 125 -125 125 -125 125 125 125 125 127 -128 128 -127 -120 -120 c-66
-66 -124 -120 -130 -120 -5 0 -65 55 -132 122 l-123 123 -125 -125 -125 -125
-125 125 -125 125 -125 -125 -125 -125 -127 127 -127 128 124 119 c69 66 127
120 130 120 3 1 60 -54 127 -121z m-1517 -1753 l-125 -125 125 -125 125 -125
-127 -127 -127 -127 -32 29 c-17 17 -72 74 -122 128 l-90 98 124 125 124 124
-125 125 -125 125 125 125 125 125 125 -125 125 -125 -125 -125z m3520 -10
l-125 -125 125 -125 125 -125 -127 -127 -127 -127 -22 20 c-12 10 -67 68 -122
127 l-100 108 124 125 124 124 -125 125 -125 125 125 125 125 125 125 -125
125 -125 -125 -125z m-8045 -1235 l120 -120 -125 -125 -125 -125 -125 125
-125 125 120 120 c66 66 124 120 130 120 6 0 64 -54 130 -120z m502 -2 l123
-123 125 125 125 125 125 -125 125 -125 125 125 125 125 127 -128 128 -127
-120 -120 c-66 -66 -124 -120 -130 -120 -5 0 -65 55 -132 122 l-123 123 -125
-125 -125 -125 -125 125 -125 125 -125 -125 -125 -125 -128 128 -127 128 122
119 c67 66 126 120 130 120 4 0 63 -55 130 -122z"/>
<path d="M4210 8965 l-55 -55 125 -125 125 -125 110 108 c60 60 118 114 128
122 17 12 30 2 143 -111 l124 -124 127 127 128 128 -55 55 -54 55 -140 0 -140
0 -58 -57 -58 -57 -58 57 -58 57 -140 0 -140 0 -54 -55z"/>
<path d="M5220 8965 l-55 -55 125 -125 125 -125 125 125 125 125 -55 55 -54
55 -141 0 -141 0 -54 -55z"/>
<path d="M5720 8965 l-55 -55 128 -128 127 -127 125 125 125 125 125 -125 125
-125 125 125 125 125 128 -128 127 -127 -128 -127 -128 -128 -125 129 -126
129 -126 -126 -127 -127 125 -125 125 -125 -125 -125 -125 -125 125 -125 125
-125 -123 -123 c-67 -67 -122 -127 -122 -132 0 -13 232 -245 245 -245 5 0 65
55 132 122 l123 123 120 -120 c66 -66 120 -124 120 -130 0 -5 -55 -65 -122
-132 l-123 -123 125 -125 125 -125 -125 -125 -125 -125 125 -125 125 -125
-128 -127 -127 -128 -125 125 -125 125 -125 -125 -125 -125 -124 124 -125 124
-88 -80 c-48 -45 -106 -100 -128 -122 l-39 -41 127 -128 127 -127 125 125 125
125 125 -125 125 -125 125 125 125 125 125 -125 125 -125 -125 -125 -125 -125
-125 125 -125 125 -125 -125 -125 -125 -124 124 -125 124 -88 -80 c-48 -45
-106 -100 -128 -122 l-39 -41 127 -128 127 -127 125 125 125 125 125 -125 125
-125 125 125 125 125 124 -124 125 -124 98 90 c54 50 111 105 128 122 l29 31
-122 123 c-67 67 -122 127 -122 133 0 5 54 61 120 123 66 62 120 118 120 124
0 7 -54 66 -120 132 -66 66 -120 122 -120 126 0 3 57 59 126 124 l126 118 124
-124 124 -124 125 125 125 125 125 -125 125 -125 125 125 125 125 127 -128
128 -127 -90 -91 c-50 -50 -107 -104 -128 -121 l-39 -31 -124 124 -124 124
-125 -125 -125 -125 -125 125 -125 125 -125 -125 -125 -125 125 -125 125 -125
125 125 125 125 125 -125 125 -125 125 125 125 125 128 -128 127 -128 -129
-126 -129 -125 127 -126 126 -127 125 125 125 125 125 -125 125 -125 127 128
128 127 -125 125 -125 125 125 125 125 125 -125 125 -125 125 128 128 129 127
124 -130 125 -129 127 127 127 127 -125 125 -125 125 125 125 125 125 -128
127 -127 128 -125 -125 -125 -125 -125 125 -125 125 -125 -125 -125 -125 125
-125 125 -125 125 125 125 125 127 -127 c70 -70 125 -129 122 -130 -2 -2 -60
-57 -127 -123 l-122 -120 -125 125 -125 125 -123 -123 c-67 -67 -127 -122
-132 -122 -6 0 -64 54 -130 120 l-120 120 123 123 c67 67 122 127 122 132 0
13 -232 245 -245 245 -6 0 -64 -54 -130 -120 l-119 -120 49 -52 c27 -29 84
-88 125 -130 l75 -78 -80 -81 c-44 -44 -102 -99 -128 -121 l-49 -41 -124 124
-124 124 -125 -125 -125 -125 -125 125 -125 125 -125 -125 -125 -125 -127 128
-128 127 123 123 c67 67 122 127 122 132 0 5 -54 64 -120 130 l-120 120 125
125 125 125 124 -124 125 -124 123 118 c68 65 124 121 126 124 1 4 -54 62
-123 131 l-125 125 -125 -125 -125 -125 -125 125 -125 125 -125 -125 -125
-125 -125 125 -125 125 125 125 125 125 125 -125 125 -125 125 125 125 125
124 -124 125 -124 123 118 c68 65 123 122 123 126 0 13 -226 249 -238 249 -7
0 -67 -55 -134 -122 l-123 -123 -120 120 c-66 66 -120 124 -120 130 0 5 55 65
122 132 l123 123 -125 125 -125 125 125 125 125 125 -60 60 -59 60 -135 0
-135 0 -58 -57 -58 -57 -58 57 -58 57 -134 0 -134 0 -58 -57 -58 -57 -58 57
-58 57 -140 0 -140 0 -54 -55z m1078 -698 l122 -122 -125 -125 -125 -125 -125
126 -126 125 123 122 c68 67 125 122 128 122 3 0 60 -55 128 -123z m2002
-2262 l-125 -125 125 -125 125 -125 -128 -127 -127 -128 -101 100 c-55 55
-110 113 -121 128 l-21 29 124 124 124 124 -125 125 -125 125 125 125 125 125
125 -125 125 -125 -125 -125z"/>
<path d="M7235 8960 l-60 -60 125 -125 125 -125 -125 -125 -125 -125 125 -125
125 -125 100 98 c55 54 113 109 128 122 l28 24 124 -124 125 -125 125 125 125
125 125 -125 125 -125 125 125 125 125 125 -125 c69 -69 125 -127 125 -131 0
-3 -57 -59 -126 -124 l-126 -118 -124 124 -124 124 -127 -128 -128 -127 125
-125 125 -125 -125 -125 -125 -125 125 -125 125 -125 125 125 125 125 -125
125 -125 125 128 127 127 128 128 -128 127 -127 125 125 125 125 -125 125
-125 125 125 125 124 124 -120 123 c-65 68 -122 123 -126 123 -3 0 -63 -54
-133 -119 l-127 -119 -124 124 -124 124 -125 -125 -125 -125 -125 125 -125
125 -125 -125 -125 -125 -127 128 -128 127 125 125 125 125 -60 60 -59 60
-131 0 -131 0 -59 -60z"/>
<path d="M7735 8960 l-60 -60 128 -128 127 -127 125 125 125 125 125 -125 125
-125 123 123 c67 67 126 122 130 122 4 0 54 -46 111 -102 57 -57 113 -112 125
-122 l22 -20 119 119 c66 66 120 124 120 130 0 6 -26 36 -58 68 l-58 57 -129
0 -129 0 -61 -60 -61 -61 -62 61 -62 60 -127 0 -127 0 -63 -62 -63 -62 -63 62
-63 62 -130 0 -130 0 -59 -60z"/>
<path d="M9248 8956 l-57 -62 124 -124 125 -125 125 125 125 125 125 -125 125
-124 51 49 c29 28 85 84 126 124 l74 75 -63 63 -62 63 -125 0 -125 0 -63 -62
-63 -62 -63 62 -63 62 -129 -1 -130 -1 -57 -62z"/>
<path d="M10760 8955 l-65 -65 125 -125 125 -125 -125 -125 -125 -125 125
-125 125 -125 125 125 125 125 -125 125 -125 125 125 125 125 125 -65 65 -64
65 -121 0 -121 0 -64 -65z"/>
<path d="M11260 8955 l-65 -65 128 -128 127 -127 125 125 125 125 125 -125
125 -125 125 125 125 125 123 -123 c67 -67 127 -122 132 -122 13 0 245 232
245 245 0 6 -28 39 -63 73 l-63 62 -119 0 -119 0 -68 -67 -68 -67 -68 67 -68
67 -114 0 -114 0 -68 -67 -68 -67 -68 67 -68 67 -120 0 -120 0 -64 -65z"/>
<path d="M12752 8927 l-42 -43 45 -44 45 -44 0 87 c0 48 -1 87 -3 87 -2 0 -22
-19 -45 -43z"/>
<path d="M9310 8515 l-125 -125 125 -125 125 -125 -125 -125 -125 -125 125
-125 125 -125 -126 -126 -125 -125 -119 121 c-65 66 -124 120 -129 120 -6 0
-67 -54 -136 -120 l-125 -119 127 -128 128 -128 125 125 125 125 125 -125 125
-125 127 128 128 127 -125 125 -125 125 125 125 125 125 -125 125 -125 125
124 124 124 125 -118 123 c-65 68 -121 124 -124 126 -4 1 -62 -54 -131 -123z"/>
<path d="M11322 8508 l-124 -121 126 -126 126 -126 125 125 125 125 125 -125
125 -125 125 125 125 125 126 -127 127 -126 -129 -125 -129 -126 128 -128 127
-128 127 127 128 128 -125 125 -125 125 125 125 125 125 -126 126 -127 127
-126 -124 -127 -123 -124 124 -125 125 -125 -125 -125 -125 -123 123 c-67 67
-124 122 -127 122 -3 0 -60 -55 -128 -122z"/>
<path d="M0 8420 l0 -135 67 68 68 67 -68 67 -67 68 0 -135z"/>
<path d="M12750 8425 l-44 -45 47 -48 47 -47 0 93 c0 50 -1 92 -3 92 -2 0 -23
-20 -47 -45z"/>
<path d="M7800 8015 l-125 -125 125 -125 125 -125 -125 -125 -125 -125 125
-125 125 -125 -124 -124 -124 -125 80 -88 c45 -48 100 -106 122 -128 l41 -39
128 127 127 127 -125 125 -125 125 125 125 125 125 -125 125 -125 125 125 125
124 125 -49 52 c-115 122 -190 198 -195 198 -3 0 -61 -56 -130 -125z"/>
<path d="M11820 8005 l-125 -125 125 -125 125 -125 -125 -125 -125 -125 125
-125 125 -125 125 125 125 125 -125 125 -125 125 125 125 124 125 -44 47 c-97
104 -195 203 -200 203 -3 0 -61 -56 -130 -125z"/>
<path d="M12750 7925 l-44 -45 47 -48 47 -47 0 93 c0 50 -1 92 -3 92 -2 0 -23
-20 -47 -45z"/>
<path d="M253 7538 l-123 -123 -65 65 -65 64 0 -129 0 -129 65 64 65 65 124
-124 125 -124 58 51 c32 28 89 82 128 121 l70 71 -125 125 c-69 69 -127 125
-130 125 -3 0 -60 -55 -127 -122z"/>
<path d="M760 7535 l-125 -125 125 -125 125 -125 -124 -124 -124 -125 71 -78
c38 -43 93 -100 121 -128 l51 -50 128 128 127 127 -125 125 -125 125 125 125
125 125 -125 125 -125 125 -125 -125z"/>
<path d="M4280 7525 l-125 -125 125 -125 125 -125 -124 -124 -124 -125 80 -88
c45 -48 100 -106 122 -128 l41 -39 128 127 127 127 -125 125 -125 125 125 125
125 125 -125 125 -125 125 -125 -125z"/>
<path d="M12317 7500 l-122 -120 127 -127 128 -128 125 125 125 124 50 -49 50
-49 0 99 0 99 -50 -49 -50 -49 -123 122 c-67 67 -126 122 -130 122 -4 0 -62
-54 -130 -120z"/>
<path d="M5281 7019 l-125 -120 127 -127 127 -127 125 125 125 125 125 -125
125 -125 125 125 125 125 -125 125 -125 125 -125 -125 -125 -125 -123 123
c-67 67 -124 122 -127 122 -3 -1 -61 -55 -129 -121z"/>
<path d="M6287 7022 c-64 -64 -117 -122 -117 -127 0 -5 55 -65 122 -132 l123
-123 -124 -124 -124 -124 119 -126 c65 -69 121 -126 124 -126 3 0 61 56 130
125 l125 125 -125 125 -125 125 125 125 125 125 -125 125 c-69 69 -127 125
-130 125 -3 0 -58 -53 -123 -118z"/>
<path d="M7292 7017 l-122 -122 124 -130 124 -130 129 127 128 128 -125 125
c-69 69 -127 125 -130 125 -3 0 -60 -55 -128 -123z"/>
<path d="M9810 7005 l-125 -125 125 -125 125 -125 -124 -124 -124 -125 117
-123 c65 -68 121 -124 125 -126 3 -1 62 54 131 123 l125 125 -125 125 -125
125 125 125 125 125 -125 125 -125 125 -125 -125z"/>
<path d="M10817 7002 l-127 -127 125 -125 125 -125 128 128 127 127 -125 125
-125 125 -128 -128z"/>
<path d="M0 6410 l0 -125 62 63 63 62 -63 62 -62 63 0 -125z"/>
<path d="M12745 6420 l-49 -50 46 -47 c26 -26 50 -44 53 -41 3 3 4 47 3 97
l-3 92 -50 -51z"/>
<path d="M252 6027 l-122 -122 125 -125 125 -125 125 125 125 125 124 -124
124 -124 126 118 c69 65 126 121 126 124 0 4 -56 62 -125 131 l-125 125 -125
-125 -125 -125 -123 123 c-67 67 -125 122 -127 122 -3 0 -60 -55 -128 -123z"/>
<path d="M1260 6025 l-125 -125 125 -125 125 -125 -128 -128 -128 -127 -126
128 -126 128 -126 -125 -126 -126 125 -125 125 -125 -125 -125 -125 -125 125
-125 125 -125 -123 -123 c-67 -67 -122 -127 -122 -132 0 -13 232 -245 245
-245 5 0 64 54 130 120 l120 120 125 -125 125 -125 -125 -125 -125 -125 125
-125 125 -125 -125 -125 -125 -125 125 -125 125 -125 -128 -127 -127 -128
-125 125 -125 125 -125 -125 -125 -125 -127 127 -126 126 129 126 129 125
-127 128 -128 128 -125 -125 -125 -125 -60 60 -60 59 0 -119 0 -119 60 59 60
59 31 -29 c17 -17 72 -74 122 -128 l90 -98 -124 -125 -124 -124 126 -126 126
-126 127 123 127 123 125 -125 124 -124 125 125 125 125 125 -125 125 -124
123 119 c68 66 125 124 126 130 0 5 -54 65 -121 132 l-123 123 120 120 c66 66
124 120 130 120 5 0 65 -55 132 -122 l123 -123 125 125 125 125 125 -125 125
-125 125 125 125 125 125 -125 c69 -69 125 -127 125 -130 0 -3 -57 -59 -126
-124 l-126 -119 -124 124 -124 124 -125 -125 -125 -125 -125 125 -125 125
-125 -125 -125 -125 120 -120 c66 -66 120 -125 120 -130 0 -5 -55 -65 -122
-132 l-123 -123 125 -125 125 -125 -125 -125 -125 -125 125 -125 125 -125 125
125 125 125 -125 125 -125 125 125 125 125 125 -125 125 -125 125 128 127 127
128 125 -125 125 -125 125 125 125 125 128 -128 127 -127 125 125 125 125
-125 125 -125 125 125 125 125 125 125 -125 125 -125 -125 -125 -125 -125 125
-125 125 -125 -128 -127 -127 -128 -125 125 -125 125 -125 -125 -125 -125
-128 128 -127 127 -125 -125 -125 -125 128 -127 127 -128 125 125 125 125 125
-125 125 -125 125 125 125 125 125 -125 125 -125 -125 -125 -125 -125 -125
125 -125 125 -125 -125 -125 -125 -124 124 -124 124 -126 -119 c-69 -65 -126
-121 -126 -124 0 -3 56 -61 125 -130 l125 -125 125 125 125 125 125 -125 125
-125 125 125 125 125 124 -124 124 -124 29 21 c15 11 73 66 128 121 l100 101
-123 123 c-67 67 -122 125 -122 129 0 3 54 59 120 124 66 64 120 122 120 128
0 6 -55 66 -122 133 l-123 123 125 125 125 125 -125 125 -125 125 123 123 c67
67 122 127 122 132 0 5 -54 64 -120 130 l-120 120 125 125 125 125 124 -124
125 -125 125 118 c69 65 126 121 126 125 0 3 -56 62 -125 131 l-125 125 -125
-125 -125 -125 -125 125 -125 125 -125 -125 -125 -125 -124 124 -125 124 -68
-61 c-37 -33 -95 -88 -128 -121 l-59 -61 29 -32 c16 -18 72 -77 125 -130 93
-97 94 -98 75 -116 -11 -10 -69 -65 -128 -122 l-108 -104 -124 124 -125 125
-125 -125 -125 -125 -125 125 -125 125 -125 -125 -125 -125 -127 128 -128 127
120 120 c66 66 124 120 130 120 5 0 65 -55 132 -122 l123 -123 127 128 128
127 -125 125 -125 125 125 125 125 125 -123 123 c-67 67 -122 127 -122 132 0
6 54 64 120 130 l120 120 127 -128 128 -127 -125 -125 -125 -125 125 -125 125
-125 -124 -124 -124 -125 51 -58 c28 -32 82 -89 121 -128 l71 -70 128 128 127
127 -125 125 -125 125 125 125 125 125 -125 125 -125 125 124 124 124 124
-118 126 c-65 69 -120 126 -122 126 -3 0 -62 -54 -131 -120 -70 -66 -130 -120
-133 -120 -4 0 -58 54 -119 120 -62 66 -118 120 -124 120 -6 0 -66 -55 -133
-122 l-123 -123 -125 125 -125 125 -125 -125 -125 -125 -127 127 -127 127 29
32 c17 17 74 72 128 122 l98 90 125 -124 124 -124 127 128 128 127 -125 125
-125 125 125 125 125 125 -125 125 -125 125 -125 -125z m-3 -1257 l123 -123
125 125 125 125 125 -125 125 -125 -125 -125 -125 -125 -125 125 -125 125
-124 -124 c-68 -68 -128 -122 -132 -120 -5 2 -63 60 -129 128 l-120 123 125
119 c69 65 127 119 130 119 3 0 60 -55 127 -122z m503 -503 l125 -125 -128
-128 -127 -127 -127 127 -128 128 125 125 c69 69 127 125 130 125 3 0 61 -56
130 -125z m1503 -503 c64 -64 117 -122 117 -127 0 -13 -232 -245 -245 -245 -6
0 -64 54 -130 120 l-120 120 125 125 c69 69 127 125 130 125 3 0 58 -53 123
-118z"/>
<path d="M3772 6017 l-122 -122 125 -125 125 -125 125 125 125 125 125 -125
124 -124 123 120 c68 65 124 121 126 124 1 3 -54 61 -123 130 l-125 125 -125
-125 -125 -125 -123 123 c-67 67 -125 122 -127 122 -3 0 -60 -55 -128 -123z"/>
<path d="M0 5905 l0 -129 60 59 c33 33 60 64 60 70 0 6 -27 37 -60 70 l-60 59
0 -129z"/>
<path d="M12745 5920 l-50 -50 53 -53 52 -52 0 103 c0 56 -1 102 -3 102 -1 0
-25 -23 -52 -50z"/>
<path d="M250 5525 l-125 -125 125 -125 125 -125 -125 -125 -125 -125 125
-125 125 -125 -128 -127 -127 -128 -59 65 -60 65 -1 -125 0 -124 60 59 60 60
125 -125 125 -125 126 126 126 126 -123 127 -123 127 125 125 124 124 -125
125 -125 125 125 125 124 125 -119 123 c-66 68 -122 125 -125 126 -3 0 -61
-55 -130 -124z"/>
<path d="M10810 5495 l-125 -125 125 -125 125 -125 -123 -123 c-67 -67 -122
-126 -122 -131 0 -5 54 -63 121 -129 l121 -120 126 126 127 127 -125 125 -125
125 125 125 125 125 -125 125 -125 125 -125 -125z"/>
<path d="M11310 5495 l-125 -125 128 -127 127 -128 120 120 c66 66 120 124
120 129 0 8 -226 246 -240 254 -3 1 -61 -54 -130 -123z"/>
<path d="M0 5400 l0 -125 62 63 63 62 -63 62 -62 63 0 -125z"/>
<path d="M12750 5419 c-19 -22 -38 -43 -42 -47 -5 -4 15 -30 42 -57 l50 -49 0
97 c0 53 -3 97 -7 96 -5 0 -24 -18 -43 -40z"/>
<path d="M0 4900 l0 -125 62 63 63 62 -63 62 -62 63 0 -125z"/>
<path d="M12745 4910 l-50 -50 53 -53 52 -52 0 103 c0 56 -1 102 -3 102 -1 0
-25 -23 -52 -50z"/>
<path d="M11810 4485 l-125 -125 125 -125 125 -125 -125 -125 -125 -125 125
-125 125 -125 125 125 125 125 -125 125 -125 125 123 123 c67 67 122 126 122
131 0 10 -230 246 -240 246 -3 0 -61 -56 -130 -125z"/>
<path d="M12745 4410 l-50 -50 53 -53 52 -52 0 103 c0 56 -1 102 -3 102 -1 0
-25 -23 -52 -50z"/>
<path d="M243 4018 l-123 -123 -60 60 -60 59 0 -119 0 -119 60 59 60 60 124
-124 125 -124 58 51 c32 28 89 82 128 121 l70 71 -125 125 c-69 69 -127 125
-130 125 -3 0 -60 -55 -127 -122z"/>
<path d="M750 4015 l-125 -125 125 -125 125 -125 -124 -124 -124 -124 118
-126 c65 -69 121 -126 124 -126 4 0 62 56 131 125 l125 125 -125 125 -125 125
125 125 125 125 -125 125 -125 125 -125 -125z"/>
<path d="M4270 4005 l-125 -125 125 -125 125 -125 -124 -124 -124 -124 118
-126 c65 -69 121 -126 124 -126 4 0 62 56 131 125 l125 125 -125 125 -125 125
125 125 125 125 -125 125 -125 125 -125 -125z"/>
<path d="M8790 3990 l-125 -119 127 -128 128 -128 125 125 125 125 -122 122
c-68 68 -125 123 -128 123 -3 0 -61 -54 -130 -120z"/>
<path d="M12308 3981 l-123 -120 127 -128 128 -128 125 125 125 125 55 -55 55
-54 0 109 0 109 -55 -54 -55 -55 -123 123 c-67 67 -125 122 -129 122 -4 0 -63
-54 -130 -119z"/>
<path d="M8790 3490 l-125 -119 127 -128 128 -128 125 125 125 125 125 -125
125 -125 125 125 125 125 -125 125 -125 125 -125 -125 -125 -125 -123 123
c-67 67 -124 122 -127 122 -3 0 -61 -54 -130 -120z"/>
<path d="M9797 3492 c-64 -64 -117 -122 -117 -127 0 -5 55 -65 122 -132 l123
-123 -125 -125 -125 -125 125 -125 125 -125 -128 -127 -127 -128 -124 124
c-106 106 -126 122 -142 113 -11 -6 -68 -60 -129 -121 l-110 -111 128 -127
127 -128 125 125 125 125 125 -125 125 -125 125 125 125 125 124 -124 124
-124 126 119 c69 65 126 121 126 124 0 3 -56 61 -125 130 l-125 125 -125 -125
-125 -125 -120 120 c-66 66 -120 124 -120 130 0 5 55 65 122 132 l123 123
-125 125 -125 125 125 125 125 125 -125 125 c-69 69 -127 125 -130 125 -3 0
-58 -53 -123 -118z"/>
<path d="M10800 3485 l-125 -125 128 -128 127 -127 127 127 128 128 -125 125
c-69 69 -127 125 -130 125 -3 0 -61 -56 -130 -125z"/>
<path d="M9293 2988 l-123 -123 127 -128 127 -128 125 126 126 125 -125 125
c-69 69 -127 125 -130 125 -3 0 -60 -55 -127 -122z"/>
<path d="M0 2890 l0 -115 57 58 58 57 -58 57 -57 58 0 -115z"/>
<path d="M12740 2905 l-55 -55 58 -58 57 -57 0 113 c0 61 -1 112 -3 112 -1 0
-27 -25 -57 -55z"/>
<path d="M235 2510 l-120 -120 128 -127 127 -128 125 125 125 125 125 -125
125 -125 125 125 125 125 -125 125 -125 125 -125 -125 -125 -125 -123 123
c-67 67 -127 122 -132 122 -6 0 -64 -54 -130 -120z"/>
<path d="M1247 2512 c-64 -64 -117 -122 -117 -127 0 -5 55 -65 122 -132 l123
-123 -128 -128 -129 -127 -124 130 -124 130 -127 -127 -128 -128 125 -125 125
-125 -125 -125 -125 -125 125 -125 125 -125 -125 -125 -125 -125 -125 125
-125 125 125 125 125 125 -125 125 -125 125 124 124 124 124 -119 126 c-65 69
-121 126 -124 126 -3 0 -61 -56 -130 -125 l-125 -125 125 -125 125 -125 -125
-125 -125 -125 125 -125 125 -125 -124 -124 c-106 -106 -122 -126 -113 -142 6
-11 60 -68 121 -129 l111 -110 123 123 c67 67 125 122 129 122 3 0 59 -54 124
-120 64 -66 122 -120 127 -120 6 0 64 53 129 117 65 65 122 118 126 118 4 0
61 -55 126 -123 l120 -123 -124 -124 -125 -125 125 -125 125 -125 -60 -60 -59
-60 119 0 119 0 -59 60 -60 60 125 125 125 125 -125 125 -125 125 128 127 127
128 125 -125 125 -125 125 125 125 125 127 -128 128 -127 -124 -124 -125 -125
118 -125 c65 -69 121 -126 125 -126 3 0 62 56 131 125 l125 125 -125 125 -125
125 125 125 125 125 -125 125 -125 125 124 124 124 125 -61 68 c-33 37 -88 95
-121 128 l-61 59 -83 -79 c-45 -44 -103 -100 -129 -124 l-48 -45 -116 122
c-64 67 -121 122 -127 122 -7 0 -67 -55 -134 -122 l-123 -123 -125 125 -125
125 -125 -125 -125 -125 -127 127 -127 127 29 32 c17 17 74 72 128 122 l98 90
125 -124 124 -124 127 128 128 127 -125 125 -125 125 125 125 125 125 -125
125 c-69 69 -127 125 -130 125 -3 0 -58 -53 -123 -118z m0 -1264 l123 -123
125 125 125 125 125 -125 125 -125 125 125 125 125 127 -127 128 -128 -50 -51
c-28 -28 -85 -83 -128 -121 l-78 -71 -125 124 -124 124 -125 -125 -125 -125
-125 125 -125 125 -125 -125 -125 -125 -128 128 -127 128 125 120 c69 65 127
119 130 119 3 0 60 -55 127 -122z"/>
<path d="M3762 2497 l-122 -122 125 -125 125 -125 125 125 125 125 125 -125
124 -124 123 120 c68 65 124 121 126 124 1 3 -54 61 -123 130 l-125 125 -125
-125 -125 -125 -123 123 c-67 67 -125 122 -127 122 -3 0 -60 -55 -128 -123z"/>
<path d="M5770 2491 l-125 -119 127 -129 128 -128 125 125 125 125 125 -125
125 -125 125 125 125 125 124 -124 125 -124 98 90 c54 50 111 105 128 122 l29
32 -127 127 -127 127 -125 -125 -125 -125 -125 125 -125 125 -125 -125 -125
-125 -123 123 c-67 67 -125 122 -127 122 -3 0 -61 -54 -130 -119z"/>
<path d="M10800 2475 l-125 -125 120 -120 c66 -66 124 -120 130 -120 13 0 245
232 245 245 0 10 -230 245 -240 245 -3 0 -61 -56 -130 -125z"/>
<path d="M0 2392 c0 -61 3 -112 8 -111 4 1 29 26 56 56 l50 54 -57 57 -57 57
0 -113z"/>
<path d="M12740 2405 l-55 -55 58 -58 57 -57 0 113 c0 61 -1 112 -3 112 -1 0
-27 -25 -57 -55z"/>
<path d="M7280 1985 l-125 -125 125 -125 125 -125 -125 -125 -125 -125 125
-125 125 -125 120 120 c66 66 125 120 130 120 13 0 245 -232 245 -245 0 -6
-54 -64 -120 -130 l-120 -119 -123 122 c-67 67 -127 122 -132 122 -5 0 -65
-55 -132 -122 l-123 -123 -125 125 -125 125 -125 -125 -125 -125 -127 128
-128 127 124 124 124 125 -51 58 c-28 32 -82 89 -121 128 l-71 70 -128 -128
-127 -127 125 -125 125 -125 -125 -125 -125 -125 125 -125 125 -125 -124 -124
-124 -125 121 -129 121 -128 -52 -52 -52 -52 105 0 104 0 -49 50 -49 50 124
125 c69 69 128 125 131 125 4 0 60 -56 125 -125 l117 -126 -48 -49 -49 -50 99
0 99 0 -49 50 -50 50 128 128 127 127 124 -124 125 -124 123 117 c68 65 124
121 126 125 1 3 -54 62 -123 131 l-125 125 -125 -125 -125 -125 -125 125 -125
125 -125 -125 -125 -125 -125 125 -125 125 125 125 125 125 125 -125 125 -125
125 125 125 125 125 -125 125 -125 97 96 c117 115 156 150 163 147 3 -2 59
-58 124 -126 l120 -123 -124 -124 -125 -125 125 -125 124 -125 -49 -50 -49
-50 99 0 99 0 -49 50 -49 50 124 125 125 125 -125 125 -125 125 125 125 c69
69 127 124 130 123 3 -2 59 -58 125 -126 l119 -123 -124 -124 -125 -125 125
-125 124 -125 -49 -50 -49 -50 99 0 99 0 -49 50 -49 50 124 125 125 125 -125
125 -125 125 127 126 126 127 125 -129 126 -129 128 127 128 128 -123 123
c-67 67 -122 127 -122 132 0 6 54 64 120 130 l120 120 127 -128 128 -127 -125
-125 -125 -125 125 -125 125 -125 -128 -127 -127 -128 -124 124 -125 125 -125
-118 c-69 -65 -126 -121 -126 -125 0 -3 56 -62 125 -131 l125 -125 125 125
125 125 125 -125 125 -125 123 123 c67 67 127 122 134 122 6 0 62 -54 123
-120 62 -66 116 -120 120 -120 4 0 63 54 133 120 69 66 127 120 130 120 3 0
58 -56 123 -125 l117 -126 -43 -44 -44 -45 89 0 89 0 -44 45 -45 45 128 128
128 127 117 -123 c64 -67 121 -122 127 -122 5 0 65 55 132 122 l123 123 127
-127 128 -128 -45 -45 -44 -45 89 0 89 0 -44 45 -44 45 124 125 125 125 -125
125 -125 125 125 125 c69 69 127 124 130 123 3 -2 59 -58 125 -126 l119 -123
-125 -125 -124 -124 125 -125 125 -125 125 125 125 125 -125 125 -125 125 127
126 126 127 125 -129 126 -129 128 127 128 128 -125 125 -125 125 125 125 125
125 57 -57 58 -57 0 114 0 114 -53 -52 c-29 -29 -57 -52 -62 -52 -5 0 -65 55
-132 122 l-123 123 -125 -125 -125 -125 -125 125 -125 125 -125 -125 -125
-125 -127 128 -128 127 124 124 124 124 -118 126 c-65 69 -121 126 -124 126
-4 0 -62 -56 -131 -125 l-125 -125 125 -125 125 -125 -125 -125 -125 -125 123
-123 c67 -67 122 -127 122 -133 0 -5 -54 -63 -120 -129 -66 -65 -120 -121
-120 -124 0 -3 55 -61 122 -128 l123 -123 -120 -120 c-66 -66 -124 -120 -130
-120 -5 0 -65 55 -132 122 l-123 123 -125 -125 -125 -125 -125 125 -125 125
-125 -125 -125 -125 -125 125 c-69 69 -125 127 -125 130 0 3 57 59 126 124
l126 119 124 -124 124 -124 125 125 125 125 125 -125 125 -125 125 125 125
125 -125 125 -125 125 -125 -125 -125 -125 -125 125 -125 125 -125 -125 -125
-125 -127 128 -128 127 124 124 124 124 -41 49 c-22 26 -77 84 -121 128 l-81
80 -127 -128 -128 -127 125 -125 125 -125 -125 -125 -125 -125 125 -125 125
-125 -125 -125 -125 -125 -125 125 -125 125 125 125 125 125 -125 125 -125
125 125 125 124 125 -29 32 c-16 18 -71 76 -122 128 l-93 95 125 125 125 125
125 -125 125 -125 125 125 125 125 124 -124 124 -124 126 119 c69 65 126 121
126 124 0 3 -56 61 -125 130 l-125 125 -125 -125 -125 -125 -125 125 -125 125
-125 -125 -125 -125 -124 124 -124 124 -29 -21 c-15 -11 -73 -66 -128 -121
l-100 -101 124 -124 c68 -68 122 -128 120 -132 -2 -5 -59 -63 -127 -129 l-122
-119 -125 124 -125 125 -125 -125 -125 -125 -125 125 -125 125 -125 -125 -125
-125 -127 128 -128 127 124 124 124 124 -118 126 c-65 69 -121 126 -124 126
-4 0 -62 -56 -131 -125 l-125 -125 125 -125 125 -125 -125 -125 -125 -125
-125 125 -125 125 125 125 125 125 -125 125 -125 125 -125 -125z m1007 -757
l123 -123 125 125 125 125 125 -125 125 -125 -125 -125 -125 -125 -125 125
-125 125 -125 -125 -125 -125 -125 125 -125 125 122 122 c68 68 125 123 128
123 2 0 60 -55 127 -122z m3520 -10 l123 -123 125 125 125 125 125 -125 c69
-69 124 -127 123 -131 -2 -3 -58 -59 -126 -124 l-123 -118 -125 124 -124 124
-125 -125 -125 -125 -125 125 -125 125 122 122 c68 68 125 123 128 123 2 0 60
-55 127 -122z"/>
<path d="M10800 1975 l-125 -125 125 -125 125 -125 -127 -127 -126 -126 -126
129 -125 129 -128 -127 -128 -128 127 -127 128 -128 125 125 125 125 125 -125
125 -125 127 128 128 127 -125 125 -125 125 125 125 125 125 -125 125 -125
125 -125 -125z"/>
<path d="M0 1880 l0 -115 57 58 58 57 -58 57 -57 58 0 -115z"/>
<path d="M12743 1908 c-29 -30 -53 -58 -53 -64 0 -13 98 -109 105 -102 3 3 4
53 3 112 l-3 107 -52 -53z"/>
<path d="M2750 1495 l-125 -125 125 -125 125 -125 -125 -125 -125 -125 125
-125 125 -125 125 125 125 125 -125 125 -125 125 125 125 124 125 -29 32 c-54
61 -210 218 -215 218 -3 0 -61 -56 -130 -125z"/>
<path d="M3250 1495 l-125 -125 125 -125 125 -125 -125 -125 -125 -125 128
-127 127 -128 125 125 125 125 -126 126 -125 126 128 126 128 126 -125 126
c-69 69 -127 125 -130 125 -3 0 -61 -56 -130 -125z"/>
<path d="M6770 1485 l-125 -125 128 -128 127 -127 127 127 128 128 -125 125
c-69 69 -127 125 -130 125 -3 0 -61 -56 -130 -125z"/>
<path d="M0 1380 l0 -115 57 58 58 57 -58 57 -57 58 0 -115z"/>
<path d="M0 873 l0 -108 57 57 58 58 -50 50 c-27 27 -53 50 -57 50 -4 0 -8
-48 -8 -107z"/>
<path d="M12741 896 l-54 -55 47 -55 c26 -31 52 -56 57 -56 5 0 9 49 9 110 0
61 -1 110 -3 110 -1 0 -27 -25 -56 -54z"/>
<path d="M233 498 l-123 -123 -55 55 -55 54 0 -109 0 -109 55 54 55 55 124
-124 125 -124 43 38 c24 22 81 77 128 123 l84 83 -124 124 c-69 69 -127 125
-130 125 -3 0 -60 -55 -127 -122z"/>
<path d="M770 526 c-52 -52 -108 -108 -125 -125 l-29 -31 124 -125 125 -125
-60 -60 -59 -60 119 0 119 0 -59 60 -60 60 125 125 125 125 -125 125 -125 125
-95 -94z"/>
<path d="M1740 495 l-125 -125 128 -128 127 -127 127 127 128 128 -125 125
c-69 69 -127 125 -130 125 -3 0 -61 -56 -130 -125z"/>
<path d="M2746 491 l-119 -120 124 -132 124 -132 -60 -53 -60 -54 115 0 114 0
-54 55 -55 55 123 123 c67 67 122 127 122 132 0 13 -232 245 -245 245 -6 0
-64 -54 -129 -119z"/>
<path d="M3253 488 l-122 -122 121 -128 121 -129 -53 -54 -54 -55 109 0 109 0
-54 55 -55 55 128 128 127 127 124 -124 125 -125 125 118 c69 65 126 121 126
125 0 3 -56 62 -125 131 l-125 125 -125 -125 -125 -125 -123 123 c-67 67 -124
122 -127 122 -3 0 -60 -55 -127 -122z"/>
<path d="M4260 485 l-125 -125 125 -125 125 -125 -55 -55 -54 -55 109 0 109 0
-54 55 -55 55 125 125 125 125 -125 125 -125 125 -125 -125z"/>
<path d="M5261 479 l-125 -120 127 -127 127 -127 126 126 125 125 -122 122
c-68 67 -125 122 -128 122 -3 -1 -62 -55 -130 -121z"/>
<path d="M12298 461 l-123 -120 127 -128 128 -128 125 125 125 125 60 -60 60
-59 0 119 0 119 -60 -59 -60 -60 -123 123 c-67 67 -125 122 -129 122 -4 0 -63
-54 -130 -119z"/>
<path d="M295 60 l-59 -60 124 0 124 0 -59 60 c-33 33 -62 60 -65 60 -3 0 -32
-27 -65 -60z"/>
<path d="M1810 55 l-54 -55 114 0 114 0 -54 55 c-30 30 -57 55 -60 55 -3 0
-30 -25 -60 -55z"/>
<path d="M2310 55 l-54 -55 114 0 114 0 -54 55 c-30 30 -57 55 -60 55 -3 0
-30 -25 -60 -55z"/>
<path d="M3820 55 l-54 -55 114 0 114 0 -54 55 c-30 30 -57 55 -60 55 -3 0
-30 -25 -60 -55z"/>
<path d="M5335 50 l-49 -50 104 0 104 0 -49 50 c-27 28 -52 50 -55 50 -3 0
-28 -22 -55 -50z"/>
<path d="M5835 50 l-49 -50 104 0 104 0 -49 50 c-27 28 -52 50 -55 50 -3 0
-28 -22 -55 -50z"/>
<path d="M7345 50 l-49 -50 104 0 104 0 -49 50 c-27 28 -52 50 -55 50 -3 0
-28 -22 -55 -50z"/>
<path d="M8860 45 l-44 -45 94 0 94 0 -44 45 c-24 25 -47 45 -50 45 -3 0 -26
-20 -50 -45z"/>
<path d="M9360 45 l-44 -45 94 0 94 0 -44 45 c-24 25 -47 45 -50 45 -3 0 -26
-20 -50 -45z"/>
<path d="M9860 45 l-44 -45 94 0 94 0 -44 45 c-24 25 -47 45 -50 45 -3 0 -26
-20 -50 -45z"/>
<path d="M10870 45 l-44 -45 87 0 c48 0 87 1 87 3 0 2 -19 22 -43 45 l-43 42
-44 -45z"/>
<path d="M11875 40 l-39 -40 89 0 89 0 -39 40 c-21 22 -44 40 -50 40 -6 0 -29
-18 -50 -40z"/>
<path d="M12380 40 l-45 -40 90 0 89 0 -39 40 c-21 22 -42 40 -45 40 -3 -1
-25 -19 -50 -40z"/>
</g>
</svg>
