<?xml version="1.0" standalone="no"?>
<!DOCTYPE svg PUBLIC "-//W3C//DTD SVG 20010904//EN"
 "http://www.w3.org/TR/2001/REC-SVG-20010904/DTD/svg10.dtd">
<svg version="1.0" xmlns="http://www.w3.org/2000/svg"
 width="811.000000pt" height="1280.000000pt" viewBox="0 0 811.000000 1280.000000"
 preserveAspectRatio="xMidYMid meet">
<metadata>
Created by potrace 1.15, written by Peter Selinger 2001-2017
</metadata>
<g transform="translate(0.000000,1280.000000) scale(0.100000,-0.100000)"
fill="#000000" stroke="none">
<path d="M3560 12790 c-182 -26 -298 -59 -438 -126 -81 -39 -223 -87 -627
-214 -49 -16 -148 -47 -220 -70 -71 -23 -188 -59 -260 -80 -412 -122 -817
-312 -1116 -526 -112 -80 -268 -231 -317 -307 -71 -109 -199 -452 -248 -664
-24 -104 -28 -139 -28 -298 -1 -193 7 -243 61 -414 32 -99 82 -202 217 -441
55 -96 135 -251 179 -345 122 -261 158 -309 337 -443 294 -221 578 -530 688
-747 29 -59 65 -165 58 -172 -2 -2 -29 27 -59 65 -101 122 -290 294 -434 393
l-46 32 6 -29 c4 -16 16 -67 27 -114 169 -716 302 -1487 369 -2145 37 -356 43
-399 72 -488 57 -176 236 -489 419 -732 322 -429 702 -728 1107 -868 86 -30
129 -42 258 -73 134 -31 415 -43 575 -24 128 15 404 71 418 84 1 2 -39 43 -89
92 -352 344 -594 816 -688 1339 -55 313 -54 765 4 1300 50 459 143 976 252
1398 68 262 71 306 29 391 -92 187 -340 316 -716 371 -52 8 -115 15 -140 15
-49 0 -289 60 -440 110 -260 86 -566 227 -745 344 -294 191 -469 389 -593 672
-93 211 -127 378 -119 578 11 270 56 359 375 736 141 168 381 404 502 495 58
43 146 97 195 121 211 99 653 172 1305 215 l184 12 276 155 c151 85 279 158
283 162 16 14 -125 100 -253 155 -150 64 -249 86 -410 90 -80 2 -174 0 -210
-5z"/>
<path d="M4842 12470 c-156 -22 -352 -89 -534 -182 -142 -73 -153 -83 -101
-92 159 -29 628 -157 878 -240 263 -88 329 -117 880 -381 498 -238 646 -308
649 -304 18 19 -67 389 -105 462 -46 85 122 -102 212 -237 74 -110 167 -300
208 -424 56 -171 75 -289 75 -462 -1 -139 -4 -164 -28 -244 -52 -172 -117
-279 -250 -411 -147 -146 -290 -234 -581 -355 -594 -247 -1115 -548 -1522
-878 -155 -125 -234 -228 -334 -435 -165 -345 -311 -979 -325 -1417 l-5 -165
33 75 c197 441 541 835 1083 1242 143 107 423 291 610 398 827 478 1153 711
1637 1172 179 170 259 277 352 472 116 241 227 583 286 876 47 237 24 298
-145 376 -245 112 -307 147 -428 237 -69 53 -141 101 -159 107 -29 11 -36 20
-51 70 -61 209 -333 434 -753 624 -145 66 -250 92 -414 105 -169 13 -1089 22
-1168 11z"/>
<path d="M3630 12099 c-390 -28 -1005 -142 -1150 -211 -72 -35 -128 -89 -359
-343 -265 -294 -438 -520 -517 -679 -57 -115 -67 -187 -62 -440 3 -176 4 -182
30 -228 39 -65 121 -152 192 -203 64 -45 81 -51 426 -145 85 -23 193 -53 240
-65 46 -13 86 -22 88 -21 1 2 -21 17 -50 34 -131 75 -249 201 -314 336 -50
103 -67 195 -62 329 4 97 9 126 43 222 200 578 427 822 858 920 405 93 613
102 1096 49 400 -44 465 -68 776 -290 199 -142 389 -264 516 -331 206 -110
283 -111 492 -3 126 64 184 55 272 -42 123 -137 204 -310 241 -513 16 -90 18
-299 4 -360 -5 -22 -7 -41 -5 -43 6 -7 81 37 143 83 206 155 270 458 151 715
-27 60 -73 121 -82 109 -29 -42 -81 -98 -105 -111 l-30 -18 -4 83 c-5 93 -27
152 -79 212 -62 71 -956 497 -1469 700 -591 234 -853 286 -1280 254z"/>
<path d="M3420 11514 c-14 -2 -65 -9 -115 -15 -232 -28 -336 -53 -437 -106
-255 -133 -470 -515 -568 -1006 -26 -127 -25 -130 10 -205 112 -238 542 -460
1004 -519 133 -17 228 -10 262 18 76 63 -186 337 -484 505 -52 30 -88 57 -97
75 -8 15 -20 71 -26 124 -12 109 -21 140 -51 173 -53 56 -172 -1 -353 -169
-73 -68 -75 -62 -19 39 106 189 294 384 489 507 99 62 160 87 294 120 212 53
333 156 375 320 24 90 21 123 -10 135 -24 9 -218 12 -274 4z"/>
<path d="M3890 11475 c0 -16 98 -198 135 -250 119 -167 225 -211 550 -224 163
-7 186 -10 235 -33 130 -60 169 -159 119 -306 -61 -181 -230 -332 -450 -402
-263 -84 -530 -104 -976 -74 l-93 7 0 -32 c0 -26 15 -47 83 -117 45 -48 132
-129 193 -180 129 -109 112 -105 328 -74 152 23 219 37 350 75 144 42 216 84
336 198 169 161 319 261 650 432 222 114 238 129 206 189 -20 38 -46 57 -176
131 -158 90 -424 270 -655 445 -168 127 -200 138 -485 160 -74 6 -155 16 -180
21 -65 15 -132 30 -152 36 -10 2 -18 2 -18 -2z"/>
<path d="M5945 10731 c-53 -24 -127 -107 -177 -198 -22 -40 -59 -90 -83 -111
-23 -20 -112 -73 -196 -117 -266 -139 -439 -267 -735 -546 -121 -114 -139
-127 -220 -161 -333 -138 -645 -189 -974 -158 -58 5 -172 14 -255 20 -264 19
-494 66 -1295 266 -42 11 72 -99 174 -168 255 -171 578 -277 1256 -412 347
-70 413 -85 500 -117 150 -55 306 -159 380 -251 22 -28 40 -55 40 -59 0 -21
17 -5 35 34 42 91 289 307 555 484 298 198 768 453 1114 604 93 40 128 72 151
136 50 142 18 452 -66 633 -35 76 -62 107 -106 126 -41 18 -50 17 -98 -5z"/>
<path d="M7045 8938 c-81 -44 -657 -379 -860 -501 -611 -367 -1018 -635 -1244
-821 -127 -105 -401 -409 -563 -624 -205 -274 -338 -539 -384 -764 -14 -68
-16 -116 -11 -263 19 -529 145 -1035 341 -1368 132 -225 310 -398 510 -496
122 -59 135 -60 247 -16 292 117 542 287 799 544 168 169 267 291 407 501 233
349 397 694 488 1020 33 122 43 198 55 440 44 887 131 1782 216 2213 14 71 24
132 22 137 -2 5 -12 4 -23 -2z"/>
<path d="M7635 5679 c-199 -21 -469 -69 -625 -110 -117 -31 -174 -49 -186 -57
-5 -4 -63 -86 -128 -182 -278 -410 -591 -804 -826 -1038 -256 -256 -686 -463
-1107 -534 -40 -6 -73 -14 -73 -17 1 -10 151 -126 211 -164 77 -49 208 -114
277 -138 240 -84 619 -90 915 -15 305 78 510 221 705 493 187 261 1086 1376
1232 1528 118 123 105 196 -40 229 -74 17 -221 19 -355 5z"/>
<path d="M1195 5499 c-181 -16 -519 -61 -710 -94 -160 -28 -469 -86 -472 -89
-2 -2 26 -6 62 -10 500 -51 883 -230 1235 -578 265 -261 482 -532 710 -888 51
-80 117 -177 147 -217 140 -187 295 -275 603 -344 230 -51 426 -44 634 22 210
67 475 222 641 373 l60 55 -92 1 c-51 0 -156 9 -235 21 -654 94 -1211 396
-1583 859 -29 36 -165 247 -303 470 -146 235 -261 410 -274 417 -26 14 -275
16 -423 2z"/>
<path d="M4406 3751 c-11 -4 -45 -39 -76 -77 -97 -120 -304 -272 -578 -425
-96 -53 -131 -78 -128 -89 3 -8 16 -47 30 -85 112 -317 181 -1210 202 -2603
l7 -472 489 0 c463 0 490 1 483 18 -17 42 -26 231 -20 402 14 405 86 1038 200
1755 8 50 26 162 40 250 30 191 77 469 111 654 13 74 24 141 24 150 0 11 -25
25 -73 43 -159 60 -312 172 -483 352 -58 61 -115 116 -127 123 -25 14 -72 16
-101 4z"/>
</g>
</svg>
