<?xml version="1.0" standalone="no"?>
<!DOCTYPE svg PUBLIC "-//W3C//DTD SVG 20010904//EN"
 "http://www.w3.org/TR/2001/REC-SVG-20010904/DTD/svg10.dtd">
<svg version="1.0" xmlns="http://www.w3.org/2000/svg"
 width="1280.000000pt" height="823.000000pt" viewBox="0 0 1280.000000 823.000000"
 preserveAspectRatio="xMidYMid meet">
<metadata>
Created by potrace 1.15, written by Peter Selinger 2001-2017
</metadata>
<g transform="translate(0.000000,823.000000) scale(0.100000,-0.100000)"
fill="#000000" stroke="none">
<path d="M480 7360 l0 -729 -141 -3 -140 -3 565 -495 c312 -272 573 -494 580
-494 13 1 1118 963 1131 985 4 5 -48 9 -129 9 l-136 0 0 730 0 730 -865 0
-865 0 0 -730z"/>
<path d="M2920 7360 l0 -729 -137 -3 -138 -3 564 -494 c310 -271 570 -494 578
-495 7 0 268 222 579 494 l566 495 -141 3 -141 3 0 729 0 730 -865 0 -865 0 0
-730z"/>
<path d="M5330 7360 l0 -729 -139 -3 -139 -3 565 -495 c311 -272 572 -495 579
-495 7 0 267 223 578 495 l565 495 -140 3 -139 3 0 729 0 730 -865 0 -865 0 0
-730z"/>
<path d="M7760 7360 l0 -729 -141 -3 -141 -3 566 -495 c311 -272 572 -494 579
-494 8 1 268 224 578 495 l564 494 -137 3 -138 3 0 729 0 730 -865 0 -865 0 0
-730z"/>
<path d="M10855 7583 c-142 -247 -258 -453 -258 -459 0 -5 116 -211 258 -457
l258 -447 525 2 525 3 249 430 c137 237 254 439 259 451 9 17 -28 88 -249 470
l-260 449 -524 3 -525 2 -258 -447z"/>
<path d="M11102 6003 c-10 -16 -130 -220 -265 -455 l-246 -428 240 -417 c132
-230 252 -435 265 -455 l24 -38 519 0 518 0 262 455 c145 250 261 458 258 462
-2 4 -120 209 -262 456 l-258 447 -518 0 -518 0 -19 -27z"/>
<path d="M1135 5390 c-593 -93 -1005 -652 -910 -1236 65 -400 335 -724 719
-860 61 -21 83 -34 97 -58 11 -17 47 -116 81 -221 69 -215 96 -282 126 -308
43 -39 76 10 131 191 111 365 105 354 183 372 178 41 385 164 519 308 369 395
392 997 53 1420 -147 184 -351 313 -589 373 -93 23 -316 33 -410 19z"/>
<path d="M3615 5390 c-282 -44 -540 -199 -708 -425 -316 -425 -282 -1006 81
-1387 127 -133 261 -221 425 -280 72 -25 93 -38 108 -62 11 -17 47 -116 81
-221 69 -215 96 -282 126 -308 47 -42 82 21 161 288 54 185 73 236 93 252 7 6
41 18 74 27 348 90 651 385 753 733 61 210 57 457 -11 658 -121 352 -402 609
-773 705 -92 24 -313 35 -410 20z"/>
<path d="M6095 5390 c-235 -37 -466 -158 -628 -329 -539 -571 -309 -1502 435
-1766 63 -22 82 -34 99 -61 11 -18 51 -127 88 -241 72 -220 87 -257 119 -286
44 -40 80 18 143 230 93 314 92 313 169 332 75 19 201 71 272 113 251 145 431
382 509 668 27 97 37 329 19 438 -68 430 -388 775 -816 882 -101 25 -309 35
-409 20z"/>
<path d="M8552 5386 c-280 -54 -518 -199 -683 -415 -70 -92 -154 -267 -186
-386 -23 -88 -26 -119 -27 -260 0 -180 11 -244 67 -393 49 -132 118 -240 224
-352 132 -139 260 -223 435 -285 63 -22 82 -34 98 -60 11 -19 51 -127 89 -242
71 -220 87 -257 119 -286 47 -43 78 13 162 294 33 112 69 215 78 228 12 17 47
33 117 56 385 122 660 422 744 810 26 116 28 305 6 422 -79 418 -394 749 -810
853 -114 28 -326 36 -433 16z"/>
<path d="M10854 3574 c-141 -246 -257 -452 -257 -458 0 -6 116 -213 258 -459
l259 -447 524 2 524 3 260 450 c218 378 258 452 249 470 -5 11 -122 214 -259
450 l-249 430 -525 3 -526 2 -258 -446z"/>
<path d="M479 2176 c-125 -35 -234 -128 -296 -252 -37 -76 -38 -80 -38 -188 0
-92 4 -121 23 -169 47 -117 152 -221 270 -269 l57 -23 1945 -3 c1914 -2 1946
-2 2010 17 223 68 365 287 330 508 -29 182 -176 342 -351 382 -71 17 -3891 13
-3950 -3z"/>
<path d="M5350 2176 c-188 -53 -327 -221 -338 -408 -3 -45 1 -105 8 -137 26
-121 120 -246 226 -303 114 -62 -14 -58 2090 -58 1901 0 1923 0 1987 20 142
44 266 163 307 296 27 89 27 210 0 289 -43 125 -123 214 -248 273 l-77 37
-1955 2 c-1546 1 -1964 -1 -2000 -11z"/>
<path d="M10853 1566 l-263 -455 259 -448 259 -448 529 0 528 0 257 445 c148
256 255 451 252 460 -3 8 -120 214 -261 458 l-255 442 -522 0 -521 0 -262
-454z"/>
<path d="M458 1037 c-186 -64 -304 -219 -316 -414 -11 -196 107 -379 296 -455
l57 -23 1935 -3 c1456 -2 1949 0 1990 9 233 50 397 284 360 516 -25 153 -116
275 -258 346 l-85 42 -1956 2 -1956 3 -67 -23z"/>
<path d="M5328 1037 c-78 -27 -166 -84 -209 -136 -17 -20 -47 -70 -67 -110
-36 -73 -37 -77 -37 -191 0 -114 1 -117 38 -194 66 -132 185 -228 320 -255 36
-8 632 -10 1987 -9 l1935 3 57 23 c122 49 226 150 270 262 32 82 37 229 9 311
-43 128 -123 216 -251 278 l-75 36 -1955 2 -1955 3 -67 -23z"/>
</g>
</svg>
