<?xml version="1.0" standalone="no"?>
<!DOCTYPE svg PUBLIC "-//W3C//DTD SVG 20010904//EN"
 "http://www.w3.org/TR/2001/REC-SVG-20010904/DTD/svg10.dtd">
<svg version="1.0" xmlns="http://www.w3.org/2000/svg"
 width="1280.000000pt" height="853.000000pt" viewBox="0 0 1280.000000 853.000000"
 preserveAspectRatio="xMidYMid meet">
<metadata>
Created by potrace 1.15, written by Peter Selinger 2001-2017
</metadata>
<g transform="translate(0.000000,853.000000) scale(0.100000,-0.100000)"
fill="#000000" stroke="none">
<path d="M5780 6324 c-128 -46 -234 -157 -285 -295 l-22 -62 -35 54 c-54 84
-111 142 -169 174 -47 26 -64 30 -134 30 -72 0 -86 -3 -145 -35 -86 -46 -203
-164 -257 -261 -44 -76 -83 -204 -83 -268 l0 -36 -67 0 c-83 0 -143 -26 -206
-91 -85 -86 -137 -228 -137 -372 l0 -75 -47 7 c-268 34 -539 3 -626 -74 l-33
-28 -46 52 c-80 91 -220 150 -429 182 -146 22 -467 14 -592 -15 -112 -26 -201
-66 -233 -104 -25 -29 -27 -30 -57 -18 -202 84 -321 106 -531 98 -178 -6 -302
-34 -433 -96 -122 -59 -215 -156 -200 -211 4 -15 -7 -18 -92 -23 -114 -8 -190
-27 -288 -72 -191 -88 -301 -241 -264 -367 16 -52 71 -111 132 -142 l49 -24
-27 -22 c-87 -67 -109 -175 -55 -261 66 -103 232 -206 402 -250 88 -23 249
-31 302 -16 l28 7 0 -55 c0 -49 4 -59 37 -96 108 -119 450 -209 751 -196 144
6 219 24 273 67 l37 29 45 -43 c84 -81 218 -127 421 -145 255 -22 587 33 774
128 54 27 112 86 112 112 0 16 5 20 18 16 9 -2 69 -19 132 -36 179 -50 397
-166 831 -443 433 -277 669 -403 669 -357 0 27 -206 277 -415 504 -291 317
-357 432 -311 545 20 50 20 92 2 129 l-15 28 87 11 c48 7 97 15 110 18 19 5
22 2 22 -20 0 -69 60 -150 142 -192 83 -42 169 -57 308 -51 141 5 218 26 282
77 l38 31 11 -28 c58 -153 88 -376 114 -858 8 -159 20 -337 26 -395 32 -333
47 -321 124 95 15 77 39 192 55 255 16 63 49 215 74 336 79 383 97 418 226
439 25 4 81 21 124 38 100 38 172 103 182 165 l6 40 47 -29 c28 -18 73 -34
111 -40 36 -6 75 -13 87 -15 29 -5 37 -37 36 -134 0 -80 -14 -142 -69 -312
-19 -59 -34 -112 -34 -118 0 -24 27 -5 122 84 124 117 182 151 241 142 23 -4
81 -9 129 -12 80 -6 91 -4 132 19 l44 25 12 -45 c24 -97 175 -205 334 -240
l75 -16 -63 -51 c-35 -28 -141 -113 -237 -188 -192 -151 -279 -232 -264 -247
17 -17 151 36 425 169 341 165 459 216 677 290 246 85 350 110 451 110 89 0
100 -4 170 -57 61 -46 142 -86 232 -115 61 -19 96 -23 190 -23 99 1 122 4 162
24 50 24 108 81 108 106 0 28 15 15 34 -31 47 -115 185 -211 336 -235 291 -45
658 136 694 343 l7 37 53 -28 c29 -16 59 -30 66 -33 12 -4 12 -10 0 -39 -13
-34 -182 -412 -315 -704 -76 -168 -103 -241 -91 -252 15 -16 140 127 367 421
107 139 269 309 325 342 42 25 46 25 114 14 149 -25 259 31 278 141 l7 40 43
-65 c72 -110 162 -165 269 -166 213 -1 377 191 341 396 l-8 42 37 -19 c102
-52 224 14 262 142 26 86 7 208 -46 291 -31 51 -32 56 -4 71 96 49 88 204 -20
383 -75 123 -212 238 -262 218 -12 -4 -17 -1 -17 12 0 40 -49 121 -99 166 -58
52 -133 85 -210 91 -49 4 -53 6 -92 60 -50 71 -109 107 -172 107 -26 0 -47 1
-47 3 0 1 7 34 15 72 17 81 19 162 4 224 -53 230 -304 392 -587 379 -140 -7
-234 -48 -287 -126 l-22 -33 -36 76 c-88 185 -276 285 -536 285 -211 0 -395
-85 -446 -206 l-15 -36 -27 22 c-124 96 -223 138 -343 147 -219 15 -470 -141
-540 -338 l-13 -36 -87 -5 c-97 -6 -165 -31 -251 -93 -56 -40 -59 -41 -59 -20
0 9 -18 35 -40 59 -115 124 -395 150 -584 54 -56 -28 -130 -101 -151 -148
l-18 -41 -27 50 c-64 117 -107 151 -188 151 -51 0 -51 0 -42 26 18 46 28 183
19 253 -23 185 -135 330 -311 403 -78 32 -242 33 -313 0 -64 -29 -136 -100
-165 -163 l-23 -49 -23 90 c-43 171 -145 309 -272 372 -60 30 -76 33 -167 35
-72 2 -113 -2 -145 -13z"/>
</g>
</svg>
