<?xml version="1.0" standalone="no"?>
<!DOCTYPE svg PUBLIC "-//W3C//DTD SVG 20010904//EN"
 "http://www.w3.org/TR/2001/REC-SVG-20010904/DTD/svg10.dtd">
<svg version="1.0" xmlns="http://www.w3.org/2000/svg"
 width="1280.000000pt" height="960.000000pt" viewBox="0 0 1280.000000 960.000000"
 preserveAspectRatio="xMidYMid meet">
<metadata>
Created by potrace 1.15, written by Peter Selinger 2001-2017
</metadata>
<g transform="translate(0.000000,960.000000) scale(0.100000,-0.100000)"
fill="#000000" stroke="none">
<path d="M6103 9590 c-48 -15 -109 -91 -122 -151 -7 -33 -9 -153 -5 -357 9
-418 -10 -575 -102 -852 -72 -218 -160 -383 -514 -975 -93 -154 -188 -311
-212 -348 l-44 -68 -114 128 c-139 156 -413 431 -575 575 -243 216 -515 428
-900 703 -328 234 -508 388 -778 664 -88 90 -161 161 -163 159 -6 -7 -53 -405
-68 -588 -54 -625 -45 -1180 30 -1925 4 -40 -10 -10 -71 150 -41 110 -96 255
-121 323 -29 75 -58 135 -76 154 -26 28 -30 29 -51 16 -95 -63 -141 -594 -96
-1102 5 -60 8 -111 5 -113 -2 -2 -80 39 -174 92 l-170 96 -17 72 c-24 103 -25
107 -35 107 -5 0 -17 -26 -26 -57 -9 -32 -18 -60 -20 -62 -6 -6 -275 161 -394
246 -412 294 -714 624 -946 1034 -72 127 -101 148 -167 118 -37 -17 -45 -39
-66 -186 -56 -390 -56 -802 0 -1203 65 -466 217 -988 418 -1433 17 -38 31 -72
31 -75 0 -11 -73 116 -177 307 -143 265 -166 291 -249 291 -46 0 -97 -48 -116
-111 -17 -57 -17 -354 1 -504 46 -395 151 -908 271 -1326 231 -800 664 -1475
1279 -1990 241 -203 630 -475 890 -624 505 -288 1126 -538 1720 -691 215 -56
343 -72 616 -80 645 -19 1103 88 1531 359 105 66 165 88 307 111 l88 14 97
-45 c224 -105 492 -172 835 -207 681 -71 1275 16 1947 284 233 93 565 266 810
422 467 298 1027 766 1309 1093 406 471 693 1031 850 1664 193 774 285 1675
194 1903 -41 103 -155 119 -220 31 -12 -17 -82 -151 -156 -299 -127 -254 -187
-367 -187 -353 0 4 18 51 39 105 218 553 357 1115 415 1689 31 301 41 845 15
845 -4 0 -47 -44 -96 -97 -401 -444 -824 -817 -1248 -1100 -100 -66 -390 -243
-399 -243 -2 0 -6 79 -9 176 -8 191 -29 413 -52 551 -35 201 -94 365 -135 378
-39 12 -54 -8 -100 -135 -20 -53 -20 -53 -16 -15 31 259 32 1142 2 1475 -27
312 -39 421 -46 418 -4 -2 -70 -73 -147 -158 -164 -181 -409 -424 -573 -566
-316 -275 -543 -442 -945 -694 -115 -72 -255 -164 -310 -203 -214 -153 -482
-396 -663 -600 -79 -89 -98 -106 -103 -90 -4 10 -35 99 -69 198 -108 310 -307
759 -590 1330 -191 386 -305 593 -446 815 -165 262 -323 446 -432 503 -58 31
-137 42 -189 27z"/>
</g>
</svg>
