<?xml version="1.0" standalone="no"?>
<!DOCTYPE svg PUBLIC "-//W3C//DTD SVG 20010904//EN"
 "http://www.w3.org/TR/2001/REC-SVG-20010904/DTD/svg10.dtd">
<svg version="1.0" xmlns="http://www.w3.org/2000/svg"
 width="1280.000000pt" height="800.000000pt" viewBox="0 0 1280.000000 800.000000"
 preserveAspectRatio="xMidYMid meet">
<metadata>
Created by potrace 1.15, written by Peter Selinger 2001-2017
</metadata>
<g transform="translate(0.000000,800.000000) scale(0.100000,-0.100000)"
fill="#000000" stroke="none">
<path d="M8775 7820 c-160 -12 -286 -48 -464 -131 -372 -174 -691 -526 -898
-989 -74 -165 -90 -208 -129 -351 -44 -165 -71 -294 -89 -438 -16 -134 -39
-208 -91 -291 -34 -55 -36 -65 -31 -113 3 -29 19 -84 36 -122 24 -52 31 -82
31 -130 0 -62 1 -63 53 -117 59 -62 130 -178 176 -287 44 -105 94 -182 136
-210 l35 -24 -42 -46 c-24 -25 -49 -45 -55 -43 -28 6 -115 -239 -158 -441 -30
-140 -34 -277 -9 -301 8 -9 11 -16 5 -16 -27 0 79 -222 140 -291 37 -43 31
-12 -20 93 -31 63 -44 104 -49 150 -5 53 -7 59 -13 34 -4 -16 -6 -43 -3 -60 4
-30 4 -30 -6 -6 -30 68 -43 209 -18 194 8 -5 9 4 5 29 -3 21 -2 37 4 37 5 0 9
-7 9 -15 0 -8 3 -15 8 -15 4 0 8 24 9 54 2 62 22 106 87 189 25 32 48 67 51
78 11 33 24 21 14 -13 -5 -18 -9 -49 -9 -70 0 -37 41 -254 60 -318 6 -19 15
-64 20 -99 5 -38 18 -77 30 -93 l21 -28 -31 -43 c-120 -167 -123 -171 -175
-257 -11 -18 -36 -58 -56 -89 -20 -31 -48 -77 -62 -102 l-26 -46 -103 -22
c-102 -21 -437 -63 -449 -55 -3 2 -48 62 -98 134 -104 146 -151 192 -223 216
-78 26 -151 21 -248 -16 -76 -29 -93 -41 -160 -110 -61 -62 -80 -75 -95 -69
-35 13 -218 10 -271 -5 -27 -8 -81 -19 -121 -25 -39 -6 -92 -20 -118 -31 -28
-12 -69 -20 -103 -20 -31 0 -97 -7 -147 -15 -49 -8 -93 -15 -97 -15 -4 0 -17
18 -28 40 -33 65 -213 280 -319 382 -218 210 -495 352 -786 404 -158 28 -405
24 -565 -9 -134 -28 -362 -102 -499 -161 -314 -136 -618 -379 -802 -639 -51
-73 -134 -230 -164 -310 -10 -26 -28 -53 -39 -59 -33 -17 -130 -93 -271 -211
-137 -116 -187 -167 -162 -167 25 0 89 30 157 74 102 66 226 136 238 136 9 0
10 -16 5 -57 -14 -107 -8 -351 11 -443 55 -259 173 -482 356 -674 313 -327
760 -472 1395 -453 314 10 626 69 965 185 80 27 170 59 200 71 48 20 53 20 38
4 -22 -26 -21 -81 3 -96 10 -6 19 -16 19 -20 0 -5 9 -22 20 -37 19 -26 26 -29
113 -35 l93 -7 120 47 c119 48 119 48 274 55 161 7 183 12 232 58 38 35 43 71
22 168 -15 73 -16 93 -5 155 7 39 29 102 48 140 34 68 36 70 110 104 150 69
353 122 491 128 l63 2 85 -205 c47 -113 119 -288 161 -390 93 -230 189 -418
246 -488 128 -155 342 -234 519 -193 31 7 40 5 55 -11 10 -11 52 -48 93 -82
360 -299 765 -389 1148 -255 388 137 629 413 673 771 24 199 -34 440 -160 659
-45 79 -48 89 -53 174 -6 99 -47 262 -128 510 -28 83 -68 222 -89 309 -34 134
-52 182 -120 323 -45 91 -101 194 -126 229 -49 69 -84 138 -85 167 0 14 4 16
19 7 29 -15 38 -12 15 4 -17 13 -18 17 -4 39 8 14 38 50 67 81 l52 56 16 -27
c16 -27 16 -24 0 22 -3 11 6 -2 20 -28 15 -27 24 -56 20 -65 -3 -9 -3 -13 1
-9 6 6 144 -233 144 -249 0 -3 -5 -2 -11 2 -6 3 -3 -5 6 -20 17 -25 34 -38 19
-14 -4 7 -3 8 4 4 6 -4 9 -12 7 -19 -9 -22 292 -376 416 -491 71 -66 334 -261
368 -273 31 -12 -22 38 -121 114 -54 40 -98 76 -98 79 0 2 33 -17 73 -44 135
-91 129 -73 -10 25 -171 122 -350 299 -422 416 -13 22 -27 34 -34 30 -7 -3 -9
-3 -5 2 11 12 -11 47 -25 39 -7 -4 -9 -4 -5 1 10 10 -10 47 -22 40 -5 -3 -12
0 -16 6 -5 8 -3 9 6 4 8 -5 11 -3 8 6 -3 8 -10 13 -16 12 -5 -1 -9 5 -8 15 0
9 -4 16 -11 15 -8 -2 -10 4 -6 14 5 12 3 14 -7 8 -8 -5 -11 -4 -6 3 4 6 -9 42
-27 79 -48 96 -109 238 -105 249 1 5 -6 23 -15 41 -9 18 -17 35 -17 40 0 11
71 -105 74 -120 2 -12 93 -164 145 -242 42 -63 393 -425 428 -442 18 -8 31
-19 28 -23 -2 -4 5 -16 17 -26 12 -11 18 -13 13 -5 -5 9 -3 12 6 9 8 -3 14 -9
14 -14 0 -17 16 -34 26 -28 5 3 16 1 24 -6 10 -9 13 -8 11 5 -1 8 -6 16 -12
16 -16 2 -64 40 -60 48 6 9 -288 304 -295 296 -3 -3 -16 7 -30 23 l-24 27 28
-24 c37 -33 35 -12 -3 24 -38 36 -40 58 -2 23 33 -31 343 -269 415 -319 66
-46 240 -138 209 -110 -13 11 -57 40 -98 63 -41 23 -74 46 -74 50 0 5 14 1 31
-7 17 -9 32 -15 34 -13 7 7 -33 46 -80 78 -96 66 -433 371 -456 413 -8 15 42
-20 232 -163 26 -19 94 -74 151 -122 132 -110 248 -190 266 -183 7 2 10 0 7
-5 -5 -9 97 -61 147 -75 23 -6 23 -6 3 10 -11 8 -94 64 -185 124 -91 60 -176
121 -190 137 -29 32 -20 27 75 -37 96 -64 162 -100 283 -154 112 -49 112 -49
112 -35 0 5 -22 17 -49 27 -38 13 -48 21 -46 35 2 10 0 16 -6 13 -5 -4 -9 -2
-9 4 0 6 -7 7 -17 4 -10 -4 -14 -2 -10 4 4 6 -17 20 -51 34 -65 26 -207 119
-267 174 -37 33 -37 35 -7 15 19 -13 50 -26 70 -30 l37 -8 -59 51 c-33 29
-102 92 -153 140 -52 48 -97 85 -102 83 -5 -3 -17 4 -27 16 -12 13 -13 18 -4
13 8 -5 20 -10 25 -11 10 -2 79 -47 154 -102 49 -36 77 -44 40 -11 l-24 20 25
-12 c14 -7 34 -14 45 -16 11 -2 30 -5 43 -8 35 -8 26 4 -15 22 -21 8 -66 38
-100 65 -64 50 -79 67 -44 48 11 -5 28 -7 38 -4 14 5 15 4 4 -4 -10 -7 5 -16
60 -33 41 -12 108 -39 149 -60 87 -43 150 -70 150 -64 0 3 -23 16 -51 31 -35
17 -48 29 -41 36 7 7 19 4 37 -8 34 -22 88 -27 81 -7 -4 10 0 13 12 9 68 -19
69 -19 27 19 -22 20 -40 41 -40 46 0 5 -7 14 -15 20 -21 15 18 3 109 -32 41
-16 76 -27 78 -25 4 3 -48 37 -148 95 -31 18 -73 48 -95 66 -36 30 -37 32 -14
31 14 -1 24 -7 23 -14 -2 -6 4 -9 11 -6 8 3 24 -4 36 -16 28 -28 107 -63 126
-56 8 3 13 2 10 -3 -8 -12 50 -32 69 -25 8 4 29 1 47 -5 18 -6 28 -8 23 -3
-20 18 -149 92 -161 92 -6 0 -14 6 -17 14 -5 13 -1 13 35 0 50 -17 71 -18 39
0 -17 9 -20 15 -10 18 8 3 -4 11 -25 18 l-40 13 127 42 c203 69 308 127 452
252 75 65 255 261 255 278 0 17 -63 -36 -170 -145 -162 -164 -305 -256 -462
-297 -57 -15 -68 -15 -83 -3 -15 12 -4 19 102 60 165 65 280 138 386 248 77
79 39 69 -54 -14 -104 -93 -197 -152 -324 -205 l-98 -41 -56 16 c-31 8 -82 20
-114 27 -56 10 -70 29 -21 29 43 0 296 89 399 140 55 27 118 66 140 85 34 30
27 27 -47 -19 -82 -50 -256 -131 -265 -123 -2 3 22 15 54 27 69 27 239 125
249 142 6 10 4 11 -7 1 -16 -16 -33 -17 -23 -2 4 8 0 7 -15 -1 -12 -6 -18 -16
-15 -22 5 -8 1 -9 -10 -5 -11 5 -15 3 -10 -5 5 -8 2 -9 -10 -5 -9 4 -15 3 -11
-2 9 -15 -55 -49 -151 -80 -49 -16 -107 -36 -129 -44 -22 -8 -53 -17 -70 -21
l-30 -6 25 15 25 16 -25 -7 c-14 -3 -27 -6 -30 -6 -23 0 -30 4 -25 13 4 6 14
8 22 5 9 -4 11 -2 7 6 -5 8 -1 9 12 4 10 -4 15 -4 11 0 -12 12 123 83 209 110
46 14 84 28 84 31 0 5 -47 -2 -99 -14 -22 -5 -22 -4 -10 18 7 13 28 40 46 60
19 20 50 63 69 95 l34 59 -54 -59 c-53 -57 -55 -59 -142 -77 -48 -10 -89 -17
-91 -15 -2 1 16 12 40 24 24 12 52 32 63 45 12 13 48 39 80 57 70 40 137 90
130 98 -3 3 -1 11 5 19 7 7 -19 0 -57 -17 -38 -17 -98 -39 -134 -49 -36 -10
-119 -37 -185 -60 -114 -40 -127 -42 -255 -45 -117 -3 -139 -1 -170 15 -19 11
-42 19 -51 19 -44 0 -25 23 63 73 73 42 67 52 -7 11 -54 -30 -71 -35 -88 -27
-13 6 -31 7 -46 2 -47 -18 -139 24 -108 49 14 12 141 19 210 12 l38 -3 -45
-25 c-72 -40 -44 -39 31 1 37 19 71 36 76 36 4 0 42 17 85 37 84 40 175 101
167 113 -4 7 118 101 131 101 3 0 2 -6 -2 -12 -5 -10 -3 -10 7 0 8 7 14 18 14
24 0 6 20 25 44 42 25 18 47 38 49 46 3 8 -11 1 -30 -16 -20 -18 -58 -47 -84
-65 -45 -30 -46 -31 -28 -7 10 15 32 34 48 44 40 23 105 83 118 107 6 12 -14
1 -52 -28 l-62 -48 17 34 16 34 -28 -35 c-39 -49 -54 -62 -173 -147 -120 -86
-225 -140 -290 -148 l-45 -6 25 18 c14 10 43 34 65 54 22 20 53 39 68 43 61
15 135 56 203 112 39 32 92 73 117 91 25 17 54 44 63 60 10 15 27 39 40 53 12
14 24 39 28 55 l6 30 -22 -30 c-31 -43 -111 -120 -202 -195 -94 -78 -126 -100
-146 -100 -8 0 -2 9 15 20 17 11 30 23 30 28 0 4 17 28 39 52 21 25 33 36 25
25 -7 -11 -22 -30 -33 -42 -28 -33 -5 -28 26 5 59 63 262 377 218 337 -26 -23
-26 -6 0 45 11 22 16 40 10 40 -5 0 -32 -46 -59 -103 -47 -98 -55 -109 -180
-230 -138 -134 -192 -169 -280 -185 -42 -8 -51 -7 -47 4 3 7 45 73 94 146 123
185 192 305 277 482 182 382 259 642 289 976 40 458 -63 850 -313 1187 -227
308 -544 475 -971 513 -63 5 -122 9 -130 8 -8 0 -60 -4 -115 -8z m112 -535
c240 -39 414 -148 517 -324 158 -271 184 -606 77 -1031 -19 -76 -85 -242 -150
-376 -101 -209 -230 -408 -405 -623 l-60 -74 -9 29 c-44 148 -60 177 -151 278
-114 125 -189 176 -263 176 -33 0 -69 -8 -103 -24 -64 -30 -150 -118 -150
-153 0 -13 -11 -39 -25 -57 -14 -18 -25 -37 -25 -43 0 -6 -12 -25 -27 -44 -25
-30 -33 -34 -68 -31 -22 1 -65 -4 -95 -12 -30 -8 -56 -13 -57 -12 -1 1 15 58
37 126 85 273 95 317 94 430 -1 136 -15 183 -109 349 -48 85 -89 173 -112 240
-34 103 -35 110 -31 226 5 135 21 190 93 336 144 294 382 501 677 590 131 40
212 46 345 24z m-68 -2345 c0 -8 -7 1 -14 20 -18 46 -17 64 0 25 8 -16 14 -37
14 -45z m-1287 -382 c-7 -7 -12 -8 -12 -2 0 14 12 26 19 19 2 -3 -1 -11 -7
-17z m-28 -148 c-9 -30 -17 -77 -18 -105 -1 -44 -9 -61 -60 -135 -32 -47 -63
-89 -68 -95 -12 -13 10 46 24 62 5 7 8 19 5 28 -4 8 1 36 9 62 8 27 17 59 20
73 3 14 17 51 31 83 15 32 26 65 26 73 0 8 3 14 7 14 4 0 13 12 21 28 l13 27
3 -30 c2 -16 -4 -55 -13 -85z m2269 99 c-6 -6 -30 -12 -54 -14 l-44 -4 38 8
c20 4 40 11 44 14 3 4 11 7 17 7 6 0 6 -4 -1 -11z m-108 -134 c-33 -30 -60
-45 -80 -46 -30 -1 -30 -1 -5 -9 19 -6 9 -8 -38 -9 l-64 -1 32 40 c17 22 37
43 43 47 15 9 80 20 127 22 l35 1 -50 -45z m295 15 c-29 -22 -149 -88 -137
-74 13 14 141 92 152 93 6 0 -1 -8 -15 -19z m-210 -65 c-9 -11 -30 -15 -74
-14 l-61 2 63 7 c34 4 65 10 69 13 13 13 15 7 3 -8z m-60 -45 c-20 -13 -113
-13 -105 0 3 6 32 10 63 10 41 0 53 -3 42 -10z m-2334 -127 c-18 -58 -21 -31
-4 35 7 26 14 40 16 30 2 -9 -4 -38 -12 -65z m2074 21 c0 -2 -9 0 -20 6 -11 6
-20 13 -20 16 0 2 9 0 20 -6 11 -6 20 -13 20 -16z m875 10 c-11 -8 -31 -17
-45 -20 -14 -3 -59 -17 -100 -30 -41 -13 -80 -24 -85 -24 -21 0 23 21 90 41
39 12 88 27 110 34 52 17 54 17 30 -1z m-896 -21 c2 -2 -5 -3 -17 -3 -14 0
-22 6 -22 16 0 14 3 15 18 3 9 -7 19 -15 21 -16z m851 -19 c0 -6 -65 -34 -77
-33 -4 0 10 9 32 19 48 22 45 21 45 14z m-601 -50 c57 -16 108 -24 162 -24 96
0 105 -16 27 -50 -104 -46 -325 -18 -392 50 -17 16 -28 32 -25 34 8 9 103 11
129 3 l25 -8 -25 16 c-18 12 -20 15 -5 10 11 -4 58 -17 104 -31z m491 16 c-8
-5 -19 -10 -25 -10 -5 0 -3 5 5 10 8 5 20 10 25 10 6 0 3 -5 -5 -10z m39 -39
c-13 -11 -66 -41 -117 -67 -84 -42 -102 -48 -175 -52 -102 -5 -95 8 23 42 47
13 130 42 185 64 55 21 102 37 104 36 2 -2 -7 -12 -20 -23z m-139 -1 c-8 -5
-19 -10 -25 -10 -5 0 -3 5 5 10 8 5 20 10 25 10 6 0 3 -5 -5 -10z m65 -125
c-89 -43 -174 -72 -130 -44 27 18 197 89 210 88 6 0 -30 -20 -80 -44z m-478 9
c-3 -3 -12 -4 -19 -1 -8 3 -5 6 6 6 11 1 17 -2 13 -5z m213 -24 c0 -5 -17 -10
-37 -10 -28 0 -34 3 -23 10 20 13 60 13 60 0z m-37 -42 c-15 -7 -33 -7 -60 0
-38 10 -37 10 22 10 49 1 56 -1 38 -10z m220 -34 c-17 -7 -51 -16 -75 -19 -40
-5 -39 -4 17 14 70 23 104 26 58 5z m-438 -32 c-3 -3 -11 0 -18 7 -9 10 -8 11
6 5 10 -3 15 -9 12 -12z m312 2 c-3 -3 -12 -4 -19 -1 -8 3 -5 6 6 6 11 1 17
-2 13 -5z m3 -44 c-38 -21 -77 -25 -99 -11 -23 15 18 30 79 30 l55 0 -35 -19z
m-243 4 c-3 -3 -12 -4 -19 -1 -8 3 -5 6 6 6 11 1 17 -2 13 -5z m533 -14 c-8
-5 -19 -10 -25 -10 -5 0 -3 5 5 10 8 5 20 10 25 10 6 0 3 -5 -5 -10z m-165
-20 c-11 -5 -27 -9 -35 -9 -9 0 -8 4 5 9 11 5 27 9 35 9 9 0 8 -4 -5 -9z m-58
-26 c-3 -3 -12 -4 -19 -1 -8 3 -5 6 6 6 11 1 17 -2 13 -5z m-758 -86 c27 -40
32 -51 14 -31 -28 32 -68 93 -60 93 2 0 23 -28 46 -62z m716 22 c39 -13 84
-20 136 -20 78 0 112 -14 64 -26 -35 -9 -137 4 -194 23 -43 15 -65 20 -84 22
-10 1 1 21 12 21 4 0 34 -9 66 -20z m-188 4 c-3 -3 -12 -4 -19 -1 -8 3 -5 6 6
6 11 1 17 -2 13 -5z m-441 -36 l29 -33 -32 29 c-31 28 -38 36 -30 36 2 0 16
-15 33 -32z m570 2 c36 -17 68 -29 72 -26 4 2 30 -2 57 -8 53 -14 50 -18 -30
-32 -55 -11 -68 -8 -159 38 -58 29 -75 42 -65 49 25 15 58 10 125 -21z m-546
-46 c0 5 7 3 15 -4 8 -7 12 -16 10 -21 -8 -12 98 -96 203 -164 51 -31 92 -59
92 -61 0 -6 -76 31 -162 79 -69 39 -97 62 -139 115 -71 89 -78 101 -46 73 15
-14 27 -21 27 -17z m-380 6 c6 -11 8 -20 6 -20 -3 0 -10 9 -16 20 -6 11 -8 20
-6 20 3 0 10 -9 16 -20z m581 -105 c52 -49 76 -77 54 -61 -22 16 -48 37 -57
48 -9 10 -21 19 -25 18 -4 0 -8 6 -8 13 0 6 -7 12 -15 12 -8 1 -14 6 -13 12 2
7 -10 22 -25 34 -15 12 -22 20 -16 18 6 -2 54 -44 105 -94z m659 85 c0 -3 -20
-11 -45 -17 -27 -6 -42 -6 -38 0 3 5 -8 7 -28 3 l-34 -6 33 13 c36 14 112 19
112 7z m-1331 -59 c0 -14 -1 -14 -6 -1 -3 8 -10 24 -15 35 -9 20 -9 20 6 1 9
-11 16 -27 15 -35z m119 24 c-3 -3 -9 2 -12 12 -6 14 -5 15 5 6 7 -7 10 -15 7
-18z m-179 -40 c0 -5 -6 1 -14 15 -8 14 -14 30 -14 35 0 6 6 -1 14 -15 8 -14
14 -29 14 -35z m1198 39 c-3 -3 -12 -4 -19 -1 -8 3 -5 6 6 6 11 1 17 -2 13 -5z
m-977 -66 c0 -14 -19 1 -31 25 -12 22 -12 22 10 3 11 -11 21 -23 21 -28z
m-110 -83 c0 -5 -5 -3 -10 5 -5 8 -10 20 -10 25 0 6 5 3 10 -5 5 -8 10 -19 10
-25z m1195 -1 c28 -13 39 -21 25 -18 -29 7 -100 43 -85 43 6 0 33 -11 60 -25z
m-1136 -129 c0 -5 -13 15 -29 45 -16 30 -29 60 -29 65 0 6 13 -15 29 -45 16
-30 29 -59 29 -65z m132 68 c13 -16 12 -17 -3 -4 -10 7 -18 15 -18 17 0 8 8 3
21 -13z m1079 7 c8 -5 11 -10 5 -10 -5 0 -17 5 -25 10 -8 5 -10 10 -5 10 6 0
17 -5 25 -10z m-349 -27 c13 -16 12 -17 -3 -4 -10 7 -18 15 -18 17 0 8 8 3 21
-13z m-166 -3 c3 -6 -1 -7 -9 -4 -18 7 -21 14 -7 14 6 0 13 -4 16 -10z m-534
-17 c13 -16 12 -17 -3 -4 -10 7 -18 15 -18 17 0 8 8 3 21 -13z m844 -63 c10
-17 -8 -11 -62 20 -73 42 -77 57 -5 21 33 -17 63 -35 67 -41z m45 13 c0 -7
-39 17 -46 28 -3 6 5 3 20 -6 14 -10 26 -19 26 -22z m-855 7 c10 -11 16 -20
13 -20 -3 0 -13 9 -23 20 -10 11 -16 20 -13 20 3 0 13 -9 23 -20z m37 -135
c21 -29 20 -29 -16 5 -21 19 -52 53 -69 75 l-31 40 48 -45 c26 -25 57 -58 68
-75z m369 -72 l34 -38 -35 30 c-19 16 -39 33 -44 37 -6 5 -6 8 0 8 6 0 26 -17
45 -37z m-136 -164 c77 -78 131 -137 120 -131 -18 9 -272 272 -263 272 2 0 66
-63 143 -141z m-5310 68 c257 -54 253 -53 235 -60 -8 -4 -87 -22 -176 -42
-183 -40 -337 -47 -441 -20 -31 8 -72 15 -90 15 -34 0 -113 27 -113 39 0 11
164 75 250 97 47 12 99 20 115 17 17 -3 116 -23 220 -46z m5885 -127 c8 -5 11
-10 5 -10 -5 0 -17 5 -25 10 -8 5 -10 10 -5 10 6 0 17 -5 25 -10z m-6681 -124
c36 -25 78 -40 148 -56 150 -34 183 -56 255 -170 52 -81 98 -121 147 -127 57
-8 89 9 157 80 94 99 176 117 530 117 156 0 212 -4 255 -16 30 -9 74 -20 99
-23 53 -9 66 0 -135 -85 -71 -30 -199 -86 -283 -125 -347 -161 -638 -231 -962
-231 -263 0 -360 23 -442 104 -59 57 -72 91 -73 176 0 110 39 186 157 303 48
48 90 87 92 87 2 0 27 -15 55 -34z m1702 -1390 c-15 -18 -81 -50 -88 -43 -3 3
17 17 44 31 57 30 59 30 44 12z"/>
<path d="M7400 4190 c-6 -11 -8 -20 -6 -20 3 0 10 9 16 20 6 11 8 20 6 20 -3
0 -10 -9 -16 -20z"/>
<path d="M9630 4081 c8 -5 33 -12 55 -15 28 -4 33 -3 15 2 -46 16 -86 23 -70
13z"/>
<path d="M9768 4053 c23 -2 61 -2 85 0 23 2 4 4 -43 4 -47 0 -66 -2 -42 -4z"/>
<path d="M10337 3882 c-37 -13 -66 -26 -64 -28 5 -5 110 31 134 45 29 17 3 11
-70 -17z"/>
<path d="M7342 3862 c0 -21 4 -44 9 -52 8 -11 9 -9 4 9 -5 16 -4 21 4 17 6 -4
11 -14 11 -23 0 -9 2 -14 5 -11 8 8 -16 98 -25 98 -4 0 -8 -17 -8 -38z"/>
<path d="M7312 3810 c0 -14 2 -19 5 -12 2 6 2 18 0 25 -3 6 -5 1 -5 -13z"/>
<path d="M10140 3810 c-8 -5 -10 -10 -5 -10 6 0 17 5 25 10 8 5 11 10 5 10 -5
0 -17 -5 -25 -10z"/>
<path d="M8800 3406 c0 -11 50 -106 55 -106 3 0 -7 24 -21 53 -28 55 -34 65
-34 53z"/>
<path d="M9967 3399 c7 -7 15 -10 18 -7 3 3 -2 9 -12 12 -14 6 -15 5 -6 -5z"/>
<path d="M10205 3403 c-14 -4 -7 -10 29 -24 59 -22 83 -14 35 12 -19 10 -36
18 -39 17 -3 0 -14 -3 -25 -5z"/>
<path d="M8895 3220 c9 -16 18 -30 21 -30 2 0 -2 14 -11 30 -9 17 -18 30 -21
30 -2 0 2 -13 11 -30z"/>
<path d="M9680 3181 c0 -5 12 -17 28 -26 l27 -18 -24 27 c-26 28 -31 31 -31
17z"/>
</g>
</svg>
