<?xml version="1.0" standalone="no"?>
<!DOCTYPE svg PUBLIC "-//W3C//DTD SVG 20010904//EN"
 "http://www.w3.org/TR/2001/REC-SVG-20010904/DTD/svg10.dtd">
<svg version="1.0" xmlns="http://www.w3.org/2000/svg"
 width="1065.000000pt" height="1280.000000pt" viewBox="0 0 1065.000000 1280.000000"
 preserveAspectRatio="xMidYMid meet">
<metadata>
Created by potrace 1.15, written by Peter Selinger 2001-2017
</metadata>
<g transform="translate(0.000000,1280.000000) scale(0.100000,-0.100000)"
fill="#000000" stroke="none">
<path d="M4680 12013 c-19 -1 -87 -8 -150 -14 -323 -30 -517 -98 -706 -247
-99 -79 -183 -210 -225 -353 -37 -127 -40 -627 -4 -662 10 -11 11 -32 4 -103
-18 -169 -52 -243 -129 -281 -41 -20 -52 -21 -125 -13 -297 35 -570 43 -622
18 -67 -32 -32 -83 132 -194 79 -53 117 -86 126 -106 10 -24 9 -53 -5 -151
-21 -156 -20 -201 4 -272 29 -83 26 -131 -10 -188 -55 -87 -222 -177 -530
-287 -378 -134 -493 -181 -539 -222 -65 -56 -76 -75 -62 -104 24 -54 100 -53
429 10 94 18 172 31 172 29 0 -19 -123 -178 -220 -284 -96 -105 -144 -169
-231 -308 l-110 -176 2 -70 2 -70 -95 -145 c-231 -351 -336 -572 -476 -1000
-136 -416 -172 -629 -172 -1011 0 -294 25 -483 92 -684 42 -129 143 -331 236
-471 98 -150 167 -275 182 -334 7 -24 23 -67 37 -93 21 -43 25 -65 28 -180 7
-199 38 -292 114 -342 20 -13 73 -36 119 -50 101 -33 133 -59 171 -138 47
-101 72 -216 81 -382 5 -82 16 -176 24 -208 54 -199 185 -325 531 -509 377
-201 487 -261 695 -380 233 -134 264 -154 220 -144 -14 3 -83 13 -155 21 -71
8 -174 21 -228 29 -203 31 -427 40 -672 27 -570 -29 -785 -62 -954 -144 -251
-122 -422 -580 -278 -744 57 -65 145 -97 304 -113 99 -10 205 -7 1168 26 248
9 689 18 980 21 l530 5 12 -45 c24 -90 102 -144 248 -173 68 -13 135 -15 450
-9 204 3 568 13 810 21 242 9 692 20 1000 24 837 13 936 24 981 111 40 78 -8
254 -104 381 -66 88 -203 185 -330 234 -68 26 -73 30 -84 68 -6 23 -13 91 -14
151 -1 62 -9 135 -18 168 -13 48 -14 67 -4 105 46 188 160 321 566 660 277
232 411 359 440 423 18 37 22 64 22 151 0 127 12 196 46 266 42 86 73 100 339
156 419 89 516 319 549 1304 l5 133 84 79 c80 76 85 83 134 197 98 230 135
390 153 666 5 84 15 213 21 287 19 229 0 503 -57 830 -57 325 -194 823 -261
948 -106 197 -262 339 -447 408 l-49 18 54 11 c94 19 139 59 139 125 l0 36
-127 17 c-71 10 -175 22 -233 28 -274 26 -370 52 -404 110 -35 59 -5 230 51
291 9 10 42 33 72 50 31 17 71 45 89 61 28 27 32 37 32 81 l-1 51 -82 61 c-45
33 -114 82 -153 107 -80 52 -121 94 -184 187 -47 70 -83 104 -172 167 -99 69
-184 90 -453 113 -218 19 -293 47 -355 132 -17 22 -30 45 -30 50 0 20 158 -5
540 -86 267 -56 536 -94 552 -78 6 6 13 44 16 85 4 71 3 75 -26 108 -20 23
-78 58 -174 106 -117 58 -158 73 -223 83 -272 41 -556 120 -715 200 -84 42
-236 141 -317 208 -38 30 -43 39 -43 76 0 112 -53 341 -101 438 -129 263 -351
432 -670 512 -136 35 -414 78 -614 96 -100 9 -561 12 -645 3z m403 -8703 c192
-461 315 -680 456 -812 113 -107 223 -150 427 -167 65 -6 133 -18 165 -30 127
-48 239 -192 400 -512 45 -91 48 -99 28 -99 -11 0 -98 11 -192 25 -231 33
-394 45 -611 45 -338 0 -798 -61 -1006 -134 l-72 -25 -72 60 c-71 60 -191 126
-275 150 l-44 13 7 120 c18 328 47 538 92 669 106 309 347 678 536 821 57 43
76 52 85 43 7 -7 41 -82 76 -167z"/>
</g>
</svg>
