<?xml version="1.0" standalone="no"?>
<!DOCTYPE svg PUBLIC "-//W3C//DTD SVG 20010904//EN"
 "http://www.w3.org/TR/2001/REC-SVG-20010904/DTD/svg10.dtd">
<svg version="1.0" xmlns="http://www.w3.org/2000/svg"
 width="859.000000pt" height="1280.000000pt" viewBox="0 0 859.000000 1280.000000"
 preserveAspectRatio="xMidYMid meet">
<metadata>
Created by potrace 1.15, written by Peter Selinger 2001-2017
</metadata>
<g transform="translate(0.000000,1280.000000) scale(0.100000,-0.100000)"
fill="#000000" stroke="none">
<path d="M4680 12521 c-19 -6 -107 -47 -117 -55 -1 -1 5 -28 13 -61 33 -143 9
-240 -82 -326 -64 -60 -105 -87 -304 -199 -453 -254 -519 -339 -520 -667 l0
-122 -37 -7 c-57 -10 -110 -43 -128 -80 -47 -99 17 -341 119 -452 48 -52 77
-68 153 -85 57 -13 58 -15 86 -71 l28 -58 -54 -67 c-108 -132 -152 -216 -162
-309 -6 -55 -5 -59 38 -122 l44 -65 -161 -80 c-198 -98 -311 -172 -405 -266
-170 -170 -271 -384 -407 -859 -36 -123 -70 -227 -76 -231 -7 -4 -38 -12 -69
-18 -32 -5 -69 -17 -83 -26 -34 -22 -68 -115 -101 -270 -38 -181 -96 -343
-135 -375 -17 -14 -30 -32 -30 -41 0 -9 42 -56 93 -106 l93 -90 -48 -59 c-59
-72 -88 -146 -95 -239 -14 -188 107 -296 453 -407 l135 -43 -6 -50 c-3 -27
-28 -160 -55 -295 -27 -135 -58 -294 -70 -355 -11 -60 -26 -139 -34 -175 -8
-36 -17 -114 -21 -175 -7 -123 -127 -1480 -150 -1706 -9 -81 -22 -173 -30
-205 -8 -33 -56 -140 -106 -239 -112 -221 -350 -711 -680 -1401 -183 -383
-249 -531 -249 -558 0 -25 8 -45 28 -68 l29 -31 -19 -60 c-21 -69 -22 -102 -6
-197 10 -59 10 -83 -3 -146 l-16 -76 36 -24 c57 -38 161 -76 222 -81 61 -6 50
-13 128 87 l23 31 82 -79 c201 -195 358 -268 601 -279 146 -7 262 12 339 55
63 36 107 112 114 198 4 53 3 56 -35 93 -50 47 -117 67 -274 82 -132 13 -140
18 -194 115 -32 56 -80 110 -159 177 l-30 24 13 58 c9 40 30 84 67 138 126
187 132 337 18 455 l-51 53 171 153 c321 287 547 534 664 722 155 250 218 436
307 904 48 258 84 381 190 660 86 227 156 385 202 463 22 36 52 99 67 141 16
42 31 76 36 76 17 0 363 -968 520 -1455 126 -391 279 -1071 369 -1645 44 -277
111 -818 111 -892 0 -77 11 -98 40 -81 11 7 21 13 22 13 2 0 4 -32 5 -70 3
-81 22 -124 64 -148 l29 -17 -7 -79 -6 -79 49 8 c109 16 457 135 548 188 22
12 48 34 59 49 20 27 20 29 4 63 -9 20 -17 37 -17 39 0 2 44 9 98 16 173 21
294 95 515 310 131 128 197 207 197 236 0 23 -56 78 -114 113 -56 33 -57 34
-121 23 -73 -12 -169 -58 -330 -157 -174 -108 -215 -121 -275 -90 -19 10 -31
26 -35 47 -4 18 -12 38 -17 45 -6 8 -4 44 6 104 30 175 22 234 -59 414 -73
163 -85 244 -70 495 5 79 2 164 -9 274 -9 88 -16 219 -16 291 0 151 -26 563
-41 647 -15 90 -44 162 -121 307 -184 348 -206 403 -252 621 -84 394 -151
1340 -126 1770 20 332 49 498 146 828 30 101 63 228 74 281 24 118 50 390 50
523 l0 96 28 6 c159 31 359 -4 652 -115 216 -81 312 -109 378 -109 48 0 58 4
88 34 27 27 34 42 34 73 0 41 -37 130 -63 152 -36 29 -15 51 51 51 123 1 280
65 379 155 178 161 383 599 460 982 14 68 18 139 18 314 l0 227 61 5 c83 6
144 36 215 104 161 153 362 557 400 803 4 30 13 80 20 110 14 66 2 106 -36
120 -22 8 -25 15 -25 58 0 57 -21 92 -56 92 -17 0 -24 6 -24 19 0 27 -26 44
-55 37 -17 -4 -31 -1 -41 9 -21 21 -46 19 -78 -6 -15 -12 -28 -20 -29 -18 -1
2 -9 18 -17 34 -32 62 -96 40 -194 -66 -71 -76 -103 -124 -155 -229 -25 -51
-79 -133 -135 -203 l-94 -117 -7 92 c-16 201 -66 278 -180 278 -40 0 -52 -5
-81 -34 -29 -29 -34 -41 -34 -83 0 -60 23 -129 79 -242 l43 -84 -21 -26 c-73
-91 -106 -195 -99 -303 6 -83 37 -149 114 -242 l56 -68 -16 -87 c-57 -290
-115 -416 -263 -572 -103 -108 -245 -232 -252 -220 -3 5 -85 25 -181 45 -96
19 -185 38 -197 42 -19 5 -27 -3 -58 -50 -23 -36 -45 -58 -61 -62 -40 -10
-114 2 -143 23 -41 31 -154 176 -249 318 -110 166 -190 247 -301 304 -73 38
-96 45 -165 50 l-81 6 -3 73 -3 73 89 87 c99 99 195 236 242 349 134 322 97
611 -149 1161 -74 167 -75 168 -40 262 75 206 47 357 -91 499 -138 141 -295
207 -410 172z"/>
</g>
</svg>
