<?xml version="1.0" standalone="no"?>
<!DOCTYPE svg PUBLIC "-//W3C//DTD SVG 20010904//EN"
 "http://www.w3.org/TR/2001/REC-SVG-20010904/DTD/svg10.dtd">
<svg version="1.0" xmlns="http://www.w3.org/2000/svg"
 width="1280.000000pt" height="864.000000pt" viewBox="0 0 1280.000000 864.000000"
 preserveAspectRatio="xMidYMid meet">
<metadata>
Created by potrace 1.15, written by Peter Selinger 2001-2017
</metadata>
<g transform="translate(0.000000,864.000000) scale(0.100000,-0.100000)"
fill="#000000" stroke="none">
<path d="M9430 8089 c-1169 -164 -2126 -298 -2127 -298 -2 -1 -3 -64 -3 -141
0 -137 0 -140 -22 -144 -13 -3 -140 -21 -283 -41 -142 -20 -261 -37 -263 -39
-1 -2 12 -13 31 -25 51 -31 131 -121 163 -182 26 -48 29 -64 29 -144 0 -74 -5
-101 -26 -150 -31 -74 -82 -152 -149 -227 -28 -32 -50 -58 -47 -58 2 0 262 36
577 80 315 44 577 80 582 80 4 0 8 61 8 135 0 74 2 135 5 135 12 0 3022 421
3048 426 l27 6 0 -137 c0 -125 1 -136 18 -131 9 2 269 39 577 82 308 42 561
78 563 80 2 1 -32 37 -76 81 -98 98 -133 164 -140 267 -8 126 41 239 164 374
l61 68 -266 -38 c-146 -21 -274 -38 -283 -38 -16 0 -18 13 -18 140 0 106 -3
140 -12 139 -7 -1 -969 -135 -2138 -300z"/>
<path d="M1560 8130 l0 -140 -536 0 -536 0 75 -74 c56 -55 85 -95 114 -152 35
-72 38 -84 38 -164 0 -80 -3 -92 -39 -164 -27 -55 -61 -103 -114 -157 l-75
-79 1137 0 1136 0 0 130 0 130 425 0 425 0 0 -130 0 -130 1135 0 1135 0 -61
61 c-121 121 -174 235 -167 362 5 104 48 187 148 289 l77 78 -533 0 -534 0 0
140 0 140 -1625 0 -1625 0 0 -140z"/>
<path d="M11843 6957 l-563 -82 0 -177 c0 -116 -4 -178 -10 -178 -6 0 -832
-124 -1837 -275 -1004 -151 -1830 -275 -1835 -275 -4 0 -8 -182 -8 -405 l0
-404 33 -6 c17 -2 153 -18 301 -34 147 -17 270 -32 272 -33 2 -2 -261 -44
-584 -92 -323 -49 -590 -90 -594 -93 -5 -2 -8 -85 -8 -183 0 -162 -2 -179 -17
-184 -10 -2 -139 -21 -287 -42 l-268 -38 28 -20 c56 -38 150 -142 174 -191 21
-42 25 -65 25 -145 0 -89 -2 -100 -36 -170 -41 -84 -84 -147 -147 -214 -24
-25 -39 -46 -35 -46 4 -1 268 36 586 81 l577 82 0 179 c0 98 2 178 4 178 13 0
3664 551 3674 555 9 3 12 94 12 405 0 313 -3 400 -12 400 -31 1 -609 68 -613
71 -2 3 267 45 598 95 l602 90 3 181 2 182 28 5 c15 3 142 22 282 42 140 19
256 37 258 39 2 1 -13 12 -32 24 -50 31 -140 132 -167 188 -20 40 -24 63 -24
143 0 86 3 101 32 162 40 85 83 148 146 216 45 47 48 52 26 51 -13 -1 -277
-38 -586 -82z"/>
<path d="M2855 6679 c-359 -12 -791 -56 -1135 -114 -81 -14 -150 -25 -154 -25
-3 0 -7 -73 -8 -162 l-3 -163 -130 -11 c-152 -14 -324 -37 -485 -64 -140 -24
-450 -93 -450 -100 0 -3 19 -16 41 -30 64 -39 135 -123 159 -188 18 -47 21
-71 17 -140 -4 -70 -11 -95 -44 -165 -22 -45 -70 -122 -106 -170 -37 -49 -67
-90 -67 -92 0 -2 15 1 33 6 17 5 120 27 227 49 519 105 1134 162 1745 160
l260 -1 0 179 0 180 50 6 c67 8 618 8 723 -1 l82 -6 0 -177 0 -177 403 -6
c555 -8 899 -36 1362 -112 116 -19 276 -50 357 -68 81 -18 143 -28 139 -23
-121 150 -192 276 -211 377 -27 137 34 275 159 360 28 19 51 37 51 40 0 7
-240 63 -385 89 -134 25 -441 66 -550 75 -139 11 -125 -9 -125 174 l0 159 -62
11 c-434 75 -824 115 -1277 131 -298 10 -303 10 -616 -1z"/>
<path d="M1238 4708 l-3 -143 -370 -3 -370 -2 76 -79 c51 -52 88 -102 110
-147 31 -63 34 -76 33 -159 0 -70 -5 -101 -22 -138 -31 -68 -76 -132 -146
-205 l-59 -62 972 2 973 3 -1 133 -2 132 765 0 765 0 3 -132 3 -133 974 -3
973 -2 -79 83 c-104 110 -145 191 -151 299 -3 47 1 96 8 124 18 64 77 150 151
222 l63 62 -372 0 -371 0 -3 143 -3 142 -1957 3 -1957 2 -3 -142z"/>
<path d="M11647 4390 c-295 -43 -544 -81 -554 -84 -14 -6 -15 -25 -10 -176 5
-169 5 -170 -16 -175 -12 -2 -854 -129 -1872 -281 -1017 -151 -1854 -279
-1858 -283 -10 -10 -88 -794 -79 -802 4 -4 152 -17 329 -30 178 -12 321 -24
319 -26 -2 -2 -151 -26 -332 -53 -180 -28 -331 -53 -335 -57 -9 -11 -84 -791
-76 -799 3 -4 147 -17 319 -30 172 -13 320 -25 328 -27 8 -1 -135 -25 -317
-52 -183 -27 -338 -52 -344 -56 -6 -3 -18 -84 -28 -182 -9 -97 -19 -178 -21
-180 -3 -2 -140 -23 -305 -46 -165 -23 -301 -44 -303 -46 -2 -1 13 -12 32 -24
50 -31 140 -132 167 -188 20 -40 24 -63 24 -143 0 -86 -3 -102 -32 -163 -36
-76 -86 -148 -152 -219 -34 -38 -40 -48 -25 -47 11 0 273 37 584 82 l565 82 3
178 c1 97 3 177 5 177 36 1 3742 561 3748 567 10 11 85 790 76 799 -4 4 -163
16 -355 25 -191 10 -353 20 -361 21 -8 2 151 28 352 57 202 30 372 58 378 62
11 6 95 796 86 805 -2 2 -161 11 -353 21 -192 9 -352 19 -356 22 -4 3 156 30
355 60 199 29 365 56 368 60 4 3 15 85 24 181 10 96 18 176 19 177 1 1 136 21
301 44 165 23 302 44 305 46 3 3 -4 9 -15 16 -51 28 -147 134 -178 196 -28 57
-32 75 -31 141 1 117 59 242 172 370 l53 60 -33 -1 c-18 -1 -275 -36 -571 -79z"/>
<path d="M1065 3238 c-3 -7 -6 -71 -7 -143 l-3 -130 -283 0 c-155 0 -282 0
-282 0 0 0 35 -36 78 -80 207 -211 201 -422 -18 -647 -33 -34 -60 -63 -60 -65
0 -1 262 -2 583 0 l582 2 3 133 3 132 1544 0 1545 0 0 -135 0 -135 580 0 c319
0 580 3 580 6 0 3 -31 40 -70 81 -205 219 -200 440 12 645 l60 58 -281 0 -280
0 -3 143 -3 142 -2138 3 c-1705 2 -2139 0 -2142 -10z"/>
<path d="M2153 1770 c-191 -13 -405 -47 -540 -86 l-53 -15 0 -203 0 -202 -177
-27 c-226 -35 -321 -45 -502 -53 l-145 -7 35 -31 c61 -54 126 -142 149 -202
56 -152 6 -334 -138 -502 l-46 -55 204 6 c240 7 322 18 775 97 187 33 391 67
452 75 177 23 420 38 511 30 l82 -6 0 162 0 162 93 -7 c136 -10 654 -55 712
-61 l50 -6 0 -127 0 -126 180 -2 c99 -2 243 -10 320 -19 131 -15 233 -32 740
-119 261 -46 460 -66 641 -66 l146 0 -55 61 c-106 117 -164 266 -154 393 8 92
49 174 132 263 l64 70 -147 6 c-165 8 -331 26 -534 59 l-138 22 0 221 c0 122
-2 224 -5 227 -3 3 -36 -1 -73 -8 -177 -34 -382 -47 -657 -41 -262 6 -343 12
-965 76 -458 47 -704 58 -957 41z"/>
</g>
</svg>
