<?xml version="1.0" standalone="no"?>
<!DOCTYPE svg PUBLIC "-//W3C//DTD SVG 20010904//EN"
 "http://www.w3.org/TR/2001/REC-SVG-20010904/DTD/svg10.dtd">
<svg version="1.0" xmlns="http://www.w3.org/2000/svg"
 width="1280.000000pt" height="880.000000pt" viewBox="0 0 1280.000000 880.000000"
 preserveAspectRatio="xMidYMid meet">
<metadata>
Created by potrace 1.15, written by Peter Selinger 2001-2017
</metadata>
<g transform="translate(0.000000,880.000000) scale(0.100000,-0.100000)"
fill="#000000" stroke="none">
<path d="M1467 8610 c-22 -26 -27 -27 -38 -14 -36 43 -80 40 -104 -7 l-16 -29
-28 21 c-38 28 -61 22 -86 -23 -19 -33 -22 -35 -40 -22 -41 30 -95 4 -95 -45
0 -18 -4 -22 -17 -16 -66 25 -103 9 -103 -46 0 -29 -1 -29 -40 -23 -51 8 -70
-7 -70 -55 0 -36 0 -37 -39 -33 -33 3 -42 0 -56 -21 -10 -16 -14 -34 -9 -51 6
-24 3 -26 -24 -26 -16 0 -40 -8 -53 -19 -21 -17 -22 -22 -12 -55 10 -32 9 -36
-7 -36 -11 0 -31 -5 -45 -12 -27 -12 -34 -52 -15 -87 8 -15 3 -20 -30 -30 -47
-14 -57 -38 -35 -81 9 -18 15 -33 13 -33 -70 -35 -82 -58 -53 -104 18 -27 18
-28 -27 -54 -25 -13 -23 -58 3 -85 l22 -23 -32 -26 c-38 -33 -39 -49 -2 -85
l28 -29 -23 -22 c-32 -30 -30 -62 5 -91 28 -24 28 -25 10 -47 -25 -31 -24 -66
3 -85 18 -13 19 -16 5 -16 -15 0 -17 -11 -17 -80 0 -44 -2 -80 -5 -80 -15 0
-300 -42 -303 -44 -2 -2 15 -18 37 -35 108 -85 106 -220 -5 -350 -20 -23 -35
-44 -32 -46 4 -5 628 82 635 89 3 2 14 -5 25 -16 15 -15 28 -19 54 -15 30 5
34 3 34 -16 0 -13 7 -33 16 -46 15 -20 22 -23 60 -17 41 5 44 4 44 -18 0 -44
60 -72 99 -47 11 7 19 1 30 -22 24 -47 45 -55 84 -34 30 18 32 18 42 1 32 -55
65 -64 107 -27 16 14 20 12 44 -16 32 -38 50 -39 86 -4 l28 26 20 -26 c28 -35
62 -35 92 2 l24 28 28 -23 c38 -34 63 -30 87 11 l21 35 25 -20 c14 -11 33 -20
43 -20 20 0 45 26 55 58 6 21 8 21 28 7 12 -8 34 -15 49 -15 28 0 35 9 51 61
5 14 11 15 47 5 37 -9 43 -9 56 9 8 10 14 31 14 47 0 27 1 27 43 22 50 -7 70
9 70 57 0 27 3 29 38 29 50 0 73 23 66 67 -6 32 -5 33 27 33 48 0 72 30 59 73
l-10 33 51 12 c28 6 168 28 311 48 143 19 262 37 263 39 2 2 -14 20 -37 40
-49 44 -81 108 -81 161 0 50 38 130 85 183 21 23 36 43 33 46 -2 2 -67 -5
-143 -15 -77 -11 -144 -20 -150 -20 -6 0 -10 29 -10 72 l0 73 -56 -3 c-69 -4
-79 8 -45 49 29 34 25 53 -18 86 -23 19 -23 19 -5 42 30 37 24 68 -16 93 -34
19 -35 22 -20 38 25 28 15 72 -20 90 -16 8 -32 16 -33 17 -2 1 2 17 9 37 11
31 11 38 -5 55 -10 11 -31 23 -47 26 -24 6 -27 9 -19 25 24 45 -3 90 -53 90
-25 0 -27 3 -27 45 0 49 -16 65 -68 65 -26 0 -28 3 -24 29 6 43 -29 75 -74 66
-31 -5 -34 -4 -34 17 0 13 -7 34 -16 47 -15 20 -22 23 -60 17 -41 -5 -44 -4
-44 18 0 46 -44 65 -100 42 -10 -4 -20 4 -30 26 -22 46 -41 54 -80 35 -31 -16
-34 -16 -46 1 -7 9 -14 20 -14 24 0 4 -9 12 -21 18 -16 9 -27 7 -55 -9 l-35
-21 -26 30 c-30 36 -43 37 -81 5 l-29 -24 -23 24 c-31 33 -63 32 -93 -5z"/>
<path d="M4637 8610 c-22 -26 -27 -27 -38 -14 -36 43 -80 40 -105 -7 l-15 -30
-26 21 c-14 11 -33 20 -43 20 -20 0 -45 -26 -55 -58 -6 -22 -8 -22 -31 -7 -40
26 -77 16 -91 -25 -6 -19 -17 -34 -25 -33 -7 1 -25 5 -39 9 -33 7 -59 -17 -59
-57 0 -28 -1 -29 -43 -23 -51 7 -71 -10 -70 -61 1 -32 0 -33 -36 -28 -50 7
-75 -17 -68 -64 5 -31 4 -33 -21 -33 -57 0 -87 -44 -62 -89 8 -16 4 -19 -30
-25 -51 -8 -66 -33 -46 -80 l14 -33 -38 -12 c-47 -14 -57 -39 -36 -83 19 -38
19 -38 2 -38 -7 0 -25 -9 -40 -21 -29 -23 -28 -47 2 -82 15 -17 15 -19 -2 -29
-25 -14 -56 -46 -56 -57 0 -5 12 -23 26 -40 l26 -31 -31 -26 c-38 -32 -39 -50
-5 -85 l27 -28 -27 -31 c-29 -35 -25 -53 18 -87 23 -19 23 -19 5 -42 -25 -31
-24 -66 3 -85 18 -13 19 -16 5 -16 -15 0 -17 -11 -17 -74 0 -41 -4 -77 -9 -80
-8 -5 -269 -46 -293 -46 -7 0 10 -20 36 -46 101 -97 101 -197 0 -327 -25 -33
-44 -60 -42 -62 4 -5 629 83 635 89 3 2 14 -5 25 -16 15 -15 28 -19 54 -15 32
5 34 4 34 -22 0 -40 30 -63 76 -59 32 2 39 0 42 -17 9 -48 48 -64 102 -42 10
5 20 -3 30 -25 8 -17 23 -36 32 -42 15 -9 22 -8 80 22 3 2 9 -6 13 -18 4 -11
17 -28 31 -36 22 -15 26 -15 59 5 l36 21 26 -30 c30 -37 52 -38 83 -5 l24 25
26 -25 c34 -33 63 -32 93 5 22 26 27 27 38 14 36 -43 80 -40 105 7 l15 30 26
-21 c14 -11 33 -20 43 -20 20 0 45 26 55 58 6 21 8 21 28 7 46 -32 96 -9 97
44 0 18 4 22 18 16 65 -25 102 -9 102 46 0 29 1 29 40 23 51 -8 70 7 70 55 0
36 0 36 38 33 52 -4 67 9 66 58 -1 39 0 40 31 40 47 0 71 30 58 73 l-10 33 51
12 c46 10 543 82 569 82 6 0 -10 21 -35 48 -105 106 -104 214 4 337 22 25 39
48 36 50 -2 2 -67 -5 -143 -15 -77 -11 -145 -20 -152 -20 -9 0 -13 21 -13 76
l0 75 -44 -6 c-24 -4 -54 -4 -66 0 l-22 7 26 27 c34 36 33 65 -3 92 l-30 22
21 28 c26 35 18 70 -19 89 -16 8 -29 15 -31 16 -2 1 4 14 13 28 23 35 16 67
-20 86 -16 8 -32 16 -33 17 -2 1 2 17 9 37 11 31 11 38 -5 55 -10 11 -31 23
-46 26 -27 6 -27 8 -17 40 9 29 7 38 -8 55 -10 11 -31 20 -47 20 -26 0 -28 3
-28 39 0 48 -20 71 -63 71 -30 0 -32 2 -33 36 -1 47 -26 67 -71 59 -30 -5 -33
-3 -33 17 0 13 -7 34 -16 47 -15 20 -22 23 -60 17 -38 -5 -44 -3 -44 12 0 10
-7 28 -16 41 -16 23 -43 25 -85 7 -12 -5 -19 0 -27 23 -15 43 -45 56 -85 36
-29 -15 -33 -15 -44 2 -7 9 -13 19 -13 23 0 3 -9 11 -21 18 -17 11 -26 10 -54
-7 l-34 -20 -30 29 c-36 36 -41 37 -80 5 l-30 -26 -25 26 c-33 33 -59 32 -89
-5z"/>
<path d="M7826 8614 l-24 -27 -27 22 c-39 30 -62 27 -86 -14 l-21 -35 -25 20
c-14 11 -34 20 -44 20 -19 0 -59 -45 -59 -67 0 -12 -4 -12 -22 1 -12 9 -35 16
-51 16 -24 0 -31 -6 -44 -40 -13 -31 -20 -39 -32 -34 -9 4 -29 8 -46 8 -26 1
-32 -4 -44 -40 -14 -40 -16 -41 -51 -37 -31 4 -40 1 -54 -18 -9 -13 -16 -35
-16 -49 0 -24 -3 -26 -33 -22 -45 5 -70 -20 -65 -65 4 -31 2 -33 -28 -33 -47
0 -67 -25 -60 -71 6 -36 5 -37 -29 -43 -44 -9 -60 -36 -46 -78 6 -17 10 -32 9
-32 -2 -1 -20 -9 -40 -19 -42 -18 -50 -48 -23 -83 18 -24 19 -34 1 -34 -8 0
-28 -11 -43 -25 l-28 -24 21 -40 21 -39 -24 -11 c-13 -6 -28 -22 -34 -35 -10
-20 -8 -30 11 -56 l22 -31 -26 -24 c-33 -31 -33 -52 2 -88 18 -20 23 -31 14
-34 -11 -4 -42 -54 -42 -68 0 -4 14 -20 31 -36 30 -28 31 -31 15 -48 -20 -22
-21 -65 0 -82 14 -11 14 -13 0 -21 -12 -7 -16 -26 -16 -83 0 -41 -2 -75 -4
-75 -14 0 -292 -42 -294 -45 -2 -2 17 -22 42 -45 100 -92 99 -188 -5 -327 -21
-29 -35 -54 -31 -56 6 -4 594 76 617 84 6 2 22 -5 37 -15 19 -12 36 -16 58
-11 28 6 30 5 30 -23 0 -44 25 -65 71 -59 35 5 37 3 53 -35 14 -37 18 -40 48
-36 18 3 40 8 48 12 12 5 19 -3 28 -28 16 -43 42 -52 84 -32 31 16 47 10 48
-16 0 -4 11 -15 25 -24 23 -15 27 -15 59 4 l33 20 26 -29 c31 -35 47 -36 85
-4 l29 24 23 -24 c30 -32 63 -32 89 1 l20 26 31 -22 c37 -27 71 -21 90 15 15
28 27 31 54 10 32 -24 55 -18 78 21 15 25 25 33 37 28 42 -18 69 -16 85 7 9
13 16 32 16 42 0 13 5 17 16 13 65 -25 104 -8 104 45 0 26 2 27 40 22 50 -7
70 8 70 53 0 33 2 34 38 34 48 0 62 14 62 62 0 34 3 38 26 38 54 0 79 29 65
78 -8 28 -8 29 48 41 55 12 532 81 561 81 8 0 -5 20 -32 48 -59 61 -78 100
-78 159 0 60 25 114 79 177 23 26 40 50 38 52 -2 3 -66 -5 -141 -16 -75 -11
-144 -20 -152 -20 -11 0 -14 16 -14 75 l0 75 -54 -6 c-63 -8 -79 6 -47 40 29
31 26 61 -8 87 l-30 22 21 28 c27 36 18 73 -22 94 -29 15 -30 16 -14 40 22 34
14 67 -21 85 -16 8 -32 16 -34 17 -2 1 2 16 8 34 14 41 -5 74 -48 84 -27 6
-29 8 -20 38 12 42 -10 75 -53 79 -31 3 -33 5 -30 39 4 46 -18 69 -64 69 -32
0 -34 2 -34 34 0 47 -24 70 -67 63 -29 -5 -33 -3 -33 16 0 13 -7 33 -16 46
-15 20 -22 23 -60 17 -38 -5 -44 -3 -44 12 0 49 -54 77 -100 52 -15 -8 -20 -5
-29 20 -15 43 -52 58 -88 35 -26 -17 -27 -17 -38 0 -32 56 -65 65 -107 28 -16
-14 -20 -12 -44 16 -32 38 -50 39 -86 4 l-28 -26 -20 26 c-27 34 -62 35 -94 1z"/>
<path d="M10987 8610 c-22 -26 -27 -27 -38 -14 -36 43 -80 40 -105 -7 l-15
-30 -26 21 c-14 11 -33 20 -43 20 -20 0 -45 -26 -55 -58 -6 -21 -8 -21 -28 -7
-44 31 -97 6 -97 -44 0 -18 -4 -22 -17 -16 -66 25 -103 9 -103 -46 0 -29 -1
-29 -40 -23 -50 8 -70 -7 -70 -52 0 -33 -1 -34 -39 -34 -53 0 -75 -22 -66 -67
6 -31 4 -33 -23 -33 -17 0 -40 -8 -53 -19 -21 -17 -22 -22 -12 -55 10 -32 9
-36 -7 -36 -30 0 -68 -21 -73 -40 -2 -9 1 -31 8 -47 13 -30 13 -31 -25 -42
-47 -14 -57 -39 -36 -83 20 -38 20 -38 1 -38 -9 0 -27 -11 -40 -24 -26 -26
-25 -46 4 -79 14 -17 14 -20 -3 -29 -25 -14 -56 -46 -56 -57 0 -5 12 -23 26
-40 l26 -31 -31 -26 c-38 -32 -39 -50 -4 -86 l27 -28 -22 -23 c-12 -13 -22
-33 -22 -45 0 -21 35 -62 53 -62 4 0 -1 -12 -12 -26 -27 -35 -27 -69 1 -88 18
-13 19 -16 5 -16 -15 0 -17 -11 -17 -79 l0 -79 -82 -12 c-46 -6 -116 -16 -156
-22 l-74 -11 51 -51 c27 -28 55 -64 60 -79 26 -69 4 -152 -64 -239 -24 -32
-41 -59 -37 -62 8 -4 622 81 629 88 3 2 14 -5 25 -16 15 -15 28 -19 54 -15 32
5 34 4 34 -22 0 -40 30 -63 76 -59 34 3 38 0 45 -26 5 -16 14 -33 21 -37 19
-13 62 -11 76 3 6 6 13 10 14 7 2 -2 10 -17 18 -33 8 -16 23 -34 32 -39 16
-10 21 -9 80 21 3 2 9 -6 13 -18 4 -11 17 -28 31 -36 22 -15 26 -15 59 5 l36
21 26 -30 c30 -37 52 -38 83 -5 l24 25 26 -25 c33 -32 57 -32 91 1 l27 26 31
-23 c26 -19 35 -21 55 -11 13 6 27 20 31 31 8 26 15 26 54 4 36 -21 58 -12 79
31 10 20 18 25 30 20 10 -4 33 -8 52 -8 31 -1 36 3 47 34 6 19 17 34 24 32 70
-17 88 -11 98 39 7 32 9 34 44 31 48 -5 67 11 67 54 0 33 1 34 39 34 53 0 75
22 66 67 -6 32 -5 33 28 33 47 0 70 27 62 72 -6 34 -6 34 42 46 26 6 165 28
308 48 143 20 262 37 263 39 2 2 -14 20 -37 40 -49 44 -81 108 -81 161 0 50
38 130 85 183 21 23 36 44 33 46 -3 3 -67 -4 -142 -15 -75 -11 -144 -20 -152
-20 -11 0 -14 16 -14 75 l0 75 -54 -6 c-63 -8 -79 6 -47 40 29 31 26 60 -8 88
-28 24 -28 25 -10 47 30 37 24 69 -16 93 -33 19 -35 22 -20 38 31 35 13 85
-39 104 -13 4 -16 11 -11 24 24 55 9 88 -45 98 -26 6 -27 8 -17 40 9 28 7 37
-8 54 -10 11 -31 20 -47 20 -27 0 -28 2 -28 45 0 49 -16 65 -68 65 -26 0 -28
3 -24 29 6 43 -29 75 -74 66 -31 -5 -34 -4 -34 17 0 13 -7 34 -16 47 -15 20
-22 23 -60 17 -41 -5 -44 -4 -44 18 0 46 -44 65 -100 42 -10 -4 -20 4 -30 26
-22 46 -41 54 -80 34 -32 -16 -49 -10 -50 16 0 4 -11 15 -25 24 -23 15 -27 15
-60 -5 l-36 -21 -26 30 c-30 36 -43 37 -81 5 l-29 -24 -23 24 c-31 33 -63 32
-93 -5z"/>
<path d="M1410 5948 c-235 -17 -506 -73 -727 -149 -121 -41 -300 -115 -318
-131 -11 -10 -10 -38 11 -248 25 -259 92 -694 150 -977 l6 -31 -56 -7 -56 -7
0 -93 0 -92 -47 -6 c-27 -4 -78 -9 -115 -13 -38 -4 -68 -11 -68 -15 0 -5 13
-15 29 -23 15 -8 42 -31 60 -51 27 -31 31 -43 31 -91 0 -66 -15 -105 -74 -189
-41 -58 -43 -65 -25 -70 10 -4 22 -4 26 -2 7 5 235 29 374 41 53 4 56 3 65
-22 8 -21 50 -48 195 -126 101 -54 303 -166 448 -249 146 -83 270 -150 275
-150 6 0 133 69 281 154 149 85 350 196 446 248 141 76 178 100 186 122 10 27
12 27 74 22 109 -8 353 -34 377 -40 12 -3 22 -3 22 1 0 3 -22 39 -49 81 -92
141 -85 245 22 312 48 30 40 37 -48 47 -33 4 -79 9 -102 12 l-42 6 -3 92 -3
91 -53 9 c-54 9 -54 9 -48 40 57 276 124 708 151 974 18 184 19 237 3 249 -7
5 -56 28 -108 51 -300 128 -624 206 -965 232 -154 11 -160 11 -325 -2z"/>
<path d="M4575 5949 c-221 -17 -472 -66 -685 -134 -114 -36 -346 -130 -365
-146 -30 -28 67 -766 161 -1226 l6 -31 -56 -7 -56 -7 0 -89 c0 -48 -4 -90 -9
-94 -5 -3 -57 -10 -115 -17 -58 -6 -106 -15 -106 -19 0 -5 12 -15 28 -23 50
-26 84 -71 89 -120 8 -71 -4 -110 -61 -196 -48 -71 -51 -80 -35 -85 10 -4 22
-4 26 -2 7 5 235 29 374 41 53 4 56 3 65 -23 9 -21 47 -46 190 -122 98 -53
300 -165 448 -249 149 -84 275 -153 280 -153 6 0 133 69 281 154 149 85 350
197 447 249 138 75 177 100 185 121 10 27 12 27 74 22 109 -8 353 -34 377 -40
12 -3 22 -3 22 1 0 3 -22 39 -49 81 -93 142 -86 244 21 311 49 31 42 38 -47
48 -33 4 -79 9 -102 12 l-42 6 -3 92 -3 91 -53 9 c-54 9 -54 9 -48 40 71 343
144 848 162 1116 5 75 4 98 -7 106 -24 19 -199 91 -322 133 -231 79 -491 131
-752 151 -154 11 -161 11 -320 -1z"/>
<path d="M7745 5949 c-321 -25 -651 -105 -947 -231 l-118 -51 5 -51 c3 -28 12
-121 20 -206 25 -252 114 -827 151 -975 5 -21 1 -23 -53 -31 l-58 -9 -3 -91
-3 -92 -37 -5 c-20 -3 -70 -9 -110 -13 -40 -4 -71 -10 -70 -15 2 -4 19 -18 38
-31 107 -72 105 -188 -5 -338 -26 -36 -32 -49 -21 -53 7 -3 56 1 109 8 52 7
142 16 199 20 56 3 113 8 126 11 17 3 25 -2 32 -21 5 -14 22 -33 37 -41 16 -8
116 -63 223 -121 107 -58 300 -165 428 -239 l234 -133 267 152 c146 84 351
197 454 252 124 66 187 105 187 116 0 9 6 21 13 26 14 11 189 0 356 -21 58 -8
108 -13 110 -11 2 2 -12 26 -32 52 -47 65 -75 123 -83 171 -9 58 23 123 80
164 53 37 49 42 -39 52 -33 4 -79 9 -102 13 l-43 5 0 82 c0 44 -4 86 -8 92 -4
6 -29 14 -56 18 -48 7 -48 8 -43 39 3 18 22 118 41 224 55 297 105 665 122
900 l7 91 -51 26 c-265 134 -673 239 -1037 266 -154 11 -161 11 -320 -1z"/>
<path d="M10935 5949 c-343 -27 -695 -117 -987 -251 l-68 -31 0 -42 c0 -137
66 -639 130 -984 22 -121 40 -222 40 -225 0 -2 -25 -8 -55 -11 l-55 -7 0 -94
c0 -69 -3 -94 -12 -94 -25 0 -193 -21 -207 -26 -10 -3 -1 -14 29 -34 111 -74
111 -189 0 -336 -27 -36 -35 -54 -26 -57 7 -3 59 1 117 9 57 7 149 16 204 19
55 4 110 8 122 11 18 3 24 -1 29 -21 4 -18 24 -35 68 -59 33 -18 138 -75 231
-126 94 -51 269 -149 389 -218 121 -69 224 -125 230 -125 6 0 121 63 256 139
135 77 335 189 446 249 163 87 203 113 211 136 10 27 12 27 74 22 109 -8 353
-34 377 -40 12 -3 22 -2 22 2 0 4 -20 37 -45 74 -55 84 -65 110 -65 173 0 63
27 109 83 145 48 30 40 37 -48 47 -33 4 -79 9 -102 12 l-42 6 -3 92 -3 91 -53
9 c-47 8 -53 11 -48 30 10 41 76 414 95 541 35 229 63 483 64 588 l2 102 -60
29 c-375 180 -937 287 -1340 255z"/>
<path d="M1400 2523 c-112 -274 -204 -499 -205 -500 0 -1 -219 -18 -485 -37
-591 -43 -592 -44 -583 -60 5 -8 156 -139 337 -292 l330 -278 -35 -11 -34 -12
-3 -110 -3 -111 -107 -17 c-59 -9 -158 -19 -219 -22 -62 -3 -113 -8 -113 -10
0 -2 19 -27 41 -56 51 -63 61 -89 60 -149 0 -55 -27 -123 -71 -178 -16 -21
-30 -40 -30 -43 0 -23 215 -11 409 22 58 11 107 18 109 17 1 -2 -24 -109 -55
-239 -31 -130 -54 -239 -51 -242 3 -3 209 120 458 274 249 154 458 278 464
274 6 -3 211 -130 454 -280 244 -151 446 -272 450 -269 3 3 -20 110 -51 238
-32 127 -55 233 -53 235 2 3 62 -5 133 -17 125 -21 393 -39 393 -27 0 4 -20
36 -44 71 -84 123 -80 232 13 320 17 17 31 33 31 37 0 3 -48 10 -107 14 -60 4
-157 14 -218 23 l-110 17 -7 40 c-4 22 -7 78 -7 124 l-1 83 -47 -6 c-40 -5
-45 -4 -33 6 141 117 667 565 672 572 4 6 5 12 3 14 -2 2 -243 21 -536 43
-293 22 -534 41 -535 42 -1 1 -93 225 -204 497 -111 272 -203 496 -205 498 -1
1 -93 -222 -205 -495z"/>
<path d="M4771 2987 c-16 -41 -393 -962 -395 -964 -1 -1 -220 -18 -486 -37
-267 -20 -509 -39 -538 -42 l-54 -6 21 -21 c11 -12 162 -141 335 -287 173
-146 315 -268 315 -272 1 -4 -14 -11 -31 -16 l-33 -8 -3 -111 -3 -111 -32 -6
c-90 -16 -276 -36 -338 -36 -38 0 -69 -4 -69 -8 0 -5 12 -19 26 -33 35 -33 71
-96 79 -141 10 -52 -17 -133 -65 -196 -22 -29 -40 -54 -40 -56 0 -22 226 -9
410 23 58 10 107 17 108 15 2 -1 -22 -109 -53 -239 -32 -130 -55 -238 -52
-241 3 -3 205 118 449 268 243 151 448 277 454 281 6 4 215 -119 464 -273 249
-154 454 -280 456 -280 10 0 0 50 -50 255 -30 121 -53 221 -51 223 2 2 63 -6
137 -18 176 -29 388 -39 388 -18 0 8 -10 24 -23 36 -59 56 -92 181 -68 255 7
19 30 56 51 80 22 25 40 47 40 50 0 3 -48 8 -107 12 -60 4 -157 15 -218 24
l-110 16 -5 120 -5 120 -49 -3 c-27 -1 -48 0 -45 2 2 2 155 130 339 286 184
155 338 288 343 295 9 18 7 18 -578 60 -263 19 -483 39 -487 43 -4 4 -96 223
-204 487 -107 264 -200 484 -204 489 -6 6 -13 -2 -19 -17z"/>
<path d="M7927 2998 c-34 -88 -398 -972 -400 -975 -2 -1 -243 -20 -536 -42
-293 -22 -535 -42 -538 -44 -5 -5 121 -114 469 -407 108 -91 197 -168 197
-172 1 -4 -14 -11 -31 -16 l-33 -8 -3 -111 -3 -111 -62 -11 c-79 -13 -245 -30
-321 -34 l-59 -2 38 -45 c46 -55 74 -114 75 -157 0 -48 -36 -134 -75 -180 -19
-23 -35 -43 -35 -46 0 -23 230 -11 411 22 57 10 106 17 108 15 2 -2 -22 -110
-53 -240 -32 -129 -56 -238 -53 -241 3 -3 210 122 460 276 l454 281 434 -268
c455 -282 479 -296 484 -290 2 2 -23 109 -55 238 -32 129 -57 236 -55 238 2 2
63 -6 137 -18 139 -23 354 -38 383 -26 15 5 13 11 -15 43 -47 54 -80 129 -80
186 0 57 18 99 67 156 19 23 34 43 32 45 -2 2 -67 9 -144 15 -77 7 -174 18
-215 24 l-75 12 -3 124 -3 123 -51 -6 -51 -7 334 281 c184 155 340 290 347
300 17 23 42 20 -573 66 -264 19 -483 38 -487 42 -4 4 -95 223 -203 487 -108
264 -200 484 -204 488 -5 5 -11 2 -14 -5z"/>
<path d="M10935 2519 c-110 -270 -203 -493 -206 -495 -3 -2 -222 -19 -485 -39
-538 -39 -584 -43 -584 -54 0 -4 151 -135 336 -292 l335 -283 -33 -12 -33 -11
-5 -109 -5 -109 -60 -12 c-82 -16 -243 -33 -315 -33 -70 0 -76 -11 -29 -56 89
-83 90 -206 4 -324 -19 -26 -35 -50 -35 -53 0 -23 206 -12 405 22 61 11 111
18 112 18 0 -1 -25 -110 -57 -242 -32 -132 -57 -241 -55 -244 5 -5 -2 -9 493
297 l423 262 455 -281 c250 -155 457 -279 460 -277 2 3 -21 110 -52 237 -31
128 -54 235 -51 237 3 3 61 -4 129 -16 127 -22 354 -38 382 -27 13 5 9 15 -24
59 -89 118 -91 217 -4 319 l47 54 -139 12 c-129 11 -256 28 -296 39 -16 5 -18
20 -18 126 l0 120 -47 -6 -48 -7 25 23 c14 13 168 144 343 291 174 147 317
272 317 277 0 13 -32 16 -575 55 -336 25 -492 39 -497 48 -4 6 -96 229 -204
494 -108 266 -199 483 -203 483 -3 0 -96 -221 -206 -491z"/>
</g>
</svg>
