<?xml version="1.0" standalone="no"?>
<!DOCTYPE svg PUBLIC "-//W3C//DTD SVG 20010904//EN"
 "http://www.w3.org/TR/2001/REC-SVG-20010904/DTD/svg10.dtd">
<svg version="1.0" xmlns="http://www.w3.org/2000/svg"
 width="851.000000pt" height="1280.000000pt" viewBox="0 0 851.000000 1280.000000"
 preserveAspectRatio="xMidYMid meet">
<metadata>
Created by potrace 1.15, written by Peter Selinger 2001-2017
</metadata>
<g transform="translate(0.000000,1280.000000) scale(0.100000,-0.100000)"
fill="#000000" stroke="none">
<path d="M4213 12689 c-22 -57 -107 -279 -188 -492 -82 -213 -152 -386 -156
-385 -4 2 -141 188 -304 413 -163 226 -302 416 -308 423 -10 9 -24 -98 -67
-513 -30 -289 -57 -525 -60 -525 -3 0 -189 149 -412 330 -224 182 -409 330
-411 330 -1 0 34 -231 80 -512 45 -282 82 -518 80 -525 -1 -7 -60 15 -147 54
-80 36 -295 132 -479 215 -183 82 -335 148 -337 146 -2 -2 93 -220 211 -483
118 -263 213 -480 212 -482 -2 -2 -102 13 -223 32 -120 20 -304 49 -409 66
-104 17 -239 39 -300 49 -60 10 -111 17 -113 16 -1 -2 146 -186 328 -409 181
-224 330 -411 330 -417 0 -5 -14 -10 -30 -10 -26 0 -971 -96 -1009 -103 -8 -1
41 -42 110 -91 137 -99 603 -437 688 -499 l53 -39 -308 -118 c-170 -64 -390
-148 -489 -185 -99 -38 -184 -71 -188 -75 -4 -4 41 -25 100 -48 59 -22 275
-105 478 -183 204 -78 379 -145 389 -148 15 -6 -72 -73 -415 -321 l-433 -314
499 -53 c275 -28 512 -52 528 -52 15 -1 27 -5 27 -10 0 -4 -148 -190 -328
-412 -180 -222 -323 -405 -317 -407 9 -2 118 14 799 123 125 20 230 35 232 33
2 -3 -93 -220 -211 -483 -118 -263 -213 -480 -212 -482 2 -2 219 94 482 212
263 118 480 213 483 211 2 -2 -34 -239 -80 -525 -46 -287 -83 -521 -81 -521 1
0 111 88 244 196 132 108 242 194 243 193 2 -2 -624 -1090 -1391 -2418 -766
-1328 -1392 -2416 -1390 -2417 2 -2 419 246 928 551 721 433 925 551 928 538
2 -9 -2 -292 -8 -627 -6 -336 -13 -804 -16 -1041 -3 -237 -8 -443 -11 -460 -3
-19 -1 -26 5 -20 6 6 550 945 1210 2088 659 1143 1202 2078 1206 2078 7 0 324
-547 1732 -2991 367 -635 672 -1162 680 -1170 12 -13 13 -11 9 15 -3 17 -8
223 -11 460 -3 237 -10 705 -16 1041 -6 335 -10 618 -8 627 3 14 206 -104 928
-538 509 -305 926 -553 928 -551 2 1 -624 1089 -1391 2417 -766 1328 -1392
2416 -1390 2418 1 1 111 -85 243 -193 159 -129 241 -190 241 -179 0 10 -36
244 -80 522 -44 277 -79 505 -77 507 2 2 77 -29 168 -70 629 -283 793 -355
796 -352 2 2 -93 219 -211 482 -118 264 -211 480 -207 482 4 1 109 -14 232
-33 595 -96 785 -125 795 -123 6 2 -137 185 -317 408 -181 222 -329 408 -329
412 0 4 9 8 19 8 10 0 212 20 447 45 236 24 465 47 508 51 l79 7 -24 20 c-13
10 -208 152 -433 315 -369 267 -406 296 -385 304 13 5 186 71 384 147 198 76
411 158 473 181 62 24 109 46 105 50 -4 4 -225 89 -490 190 -266 101 -483 187
-483 190 0 4 192 146 427 316 234 170 420 310 412 311 -37 7 -982 103 -1009
103 -16 0 -30 4 -30 9 0 6 149 193 330 417 182 224 329 408 328 409 -2 1 -124
-17 -273 -41 -634 -103 -768 -124 -771 -121 -2 2 93 218 211 482 119 263 213
480 211 482 -2 2 -64 -23 -137 -56 -423 -191 -824 -369 -827 -366 -2 1 33 231
78 510 45 278 80 512 78 519 -2 7 -184 -134 -408 -315 -222 -181 -407 -329
-410 -329 -3 0 -28 213 -54 473 -26 259 -51 497 -55 527 l-6 55 -116 -160
c-64 -88 -202 -279 -308 -425 -105 -146 -195 -266 -199 -268 -5 -1 -88 208
-187 465 -98 258 -184 479 -190 492 -11 23 -15 18 -52 -80z"/>
</g>
</svg>
