<?xml version="1.0" standalone="no"?>
<!DOCTYPE svg PUBLIC "-//W3C//DTD SVG 20010904//EN"
 "http://www.w3.org/TR/2001/REC-SVG-20010904/DTD/svg10.dtd">
<svg version="1.0" xmlns="http://www.w3.org/2000/svg"
 width="1280.000000pt" height="1169.000000pt" viewBox="0 0 1280.000000 1169.000000"
 preserveAspectRatio="xMidYMid meet">
<metadata>
Created by potrace 1.15, written by Peter Selinger 2001-2017
</metadata>
<g transform="translate(0.000000,1169.000000) scale(0.100000,-0.100000)"
fill="#000000" stroke="none">
<path d="M6045 11009 c-1318 -69 -2403 -376 -2826 -799 -170 -170 -222 -353
-152 -536 22 -58 70 -130 124 -189 39 -43 118 -191 167 -315 203 -514 336
-1309 383 -2295 15 -323 6 -1214 -15 -1465 -58 -672 -84 -888 -147 -1217 -48
-251 -138 -602 -161 -630 -6 -7 -22 -13 -36 -13 -15 0 -128 -16 -252 -36
-1008 -160 -1649 -387 -1746 -620 -18 -43 -18 -105 1 -150 20 -49 108 -133
191 -183 865 -513 4009 -798 6914 -626 1349 80 2483 255 3108 481 201 73 353
155 438 239 114 112 123 192 33 306 -17 21 -69 65 -117 97 -318 212 -1035 393
-2091 527 -69 9 -128 18 -132 20 -3 3 -9 15 -12 27 -2 13 -18 73 -35 133 -62
224 -141 624 -157 790 -6 68 -75 1302 -75 1351 0 23 -5 33 -20 37 -19 5 -20
14 -20 329 0 1493 230 2778 582 3249 74 99 102 158 118 250 36 204 -93 410
-373 596 -521 348 -1491 582 -2657 643 -222 11 -811 11 -1035 -1z"/>
</g>
</svg>
