<?xml version="1.0" standalone="no"?>
<!DOCTYPE svg PUBLIC "-//W3C//DTD SVG 20010904//EN"
 "http://www.w3.org/TR/2001/REC-SVG-20010904/DTD/svg10.dtd">
<svg version="1.0" xmlns="http://www.w3.org/2000/svg"
 width="1280.000000pt" height="699.000000pt" viewBox="0 0 1280.000000 699.000000"
 preserveAspectRatio="xMidYMid meet">
<metadata>
Created by potrace 1.15, written by Peter Selinger 2001-2017
</metadata>
<g transform="translate(0.000000,699.000000) scale(0.100000,-0.100000)"
fill="#000000" stroke="none">
<path d="M1670 5895 l0 -1065 1308 2 1307 3 3 1000 c2 550 0 1028 -3 1063 l-7
62 -1304 0 -1304 0 0 -1065z"/>
<path d="M4475 6948 c-3 -7 -4 -485 -3 -1063 l3 -1050 1308 -3 1307 -2 -2
1062 -3 1063 -1303 3 c-1037 2 -1304 0 -1307 -10z"/>
<path d="M7280 5895 l0 -1065 1308 2 1307 3 3 1000 c2 550 0 1028 -3 1063 l-7
62 -1304 0 -1304 0 0 -1065z"/>
<path d="M10100 5895 l0 -1065 1305 0 1305 0 0 1065 0 1065 -1305 0 -1305 0 0
-1065z"/>
<path d="M467 6860 c-75 -13 -185 -49 -252 -82 -82 -41 -177 -109 -171 -122 2
-6 43 -102 91 -213 80 -186 89 -202 106 -192 11 5 23 8 27 5 4 -3 27 10 50 28
51 41 166 102 209 111 17 3 50 1 72 -5 34 -9 41 -15 41 -36 0 -76 -97 -173
-463 -463 l-117 -93 0 -173 0 -173 63 -7 c34 -3 294 -5 577 -3 l515 3 3 195
c2 107 0 214 -3 238 l-6 42 -92 1 c-51 0 -100 4 -110 8 -16 6 -16 9 9 31 44
42 114 146 141 212 31 76 42 221 24 310 -39 187 -191 330 -396 373 -75 16
-238 18 -318 5z"/>
<path d="M529 5120 c-209 -33 -370 -175 -445 -389 -90 -259 -57 -613 76 -806
78 -113 201 -199 331 -230 82 -19 228 -19 318 0 186 39 326 170 391 366 54
164 63 415 20 584 -60 238 -211 407 -411 461 -69 18 -208 25 -280 14z m150
-506 c11 -28 15 -86 15 -204 1 -166 -8 -225 -39 -265 -15 -20 -15 -20 -30 0
-25 32 -36 84 -42 200 -6 126 8 235 38 284 24 40 40 36 58 -15z"/>
<path d="M1670 3526 l0 -1063 61 -7 c80 -8 2486 -8 2528 0 l31 6 0 1018 c0
559 -3 1038 -6 1064 l-7 46 -1303 0 -1304 0 0 -1064z"/>
<path d="M4475 4578 c-3 -7 -4 -485 -3 -1063 l3 -1050 50 -7 c64 -8 2492 -10
2534 -2 l31 7 -2 1061 -3 1061 -1303 3 c-1037 2 -1304 0 -1307 -10z"/>
<path d="M7280 3526 l0 -1063 68 -6 c113 -11 2498 -8 2526 3 l26 10 0 1007 c0
555 -3 1032 -6 1061 l-7 52 -1303 0 -1304 0 0 -1064z"/>
<path d="M10100 3526 l0 -1063 61 -7 c80 -8 2476 -8 2518 0 l31 7 0 1063 0
1064 -1305 0 -1305 0 0 -1064z"/>
<path d="M345 3264 c-121 -52 -220 -96 -222 -97 -1 -1 18 -92 42 -202 24 -109
45 -208 47 -219 3 -18 9 -20 43 -18 22 2 71 17 108 34 38 16 72 27 75 23 4 -4
8 -190 10 -414 l3 -408 61 -7 c77 -8 415 -8 445 0 l23 6 0 668 c0 367 -3 682
-6 699 l-6 31 -202 -1 -201 0 -220 -95z"/>
<path d="M1670 1156 l0 -1064 63 -7 c34 -3 622 -5 1307 -3 l1245 3 3 995 c2
547 0 1028 -3 1068 l-7 72 -1304 0 -1304 0 0 -1064z"/>
<path d="M4477 2213 c-4 -3 -7 -482 -7 -1064 l0 -1057 63 -7 c34 -3 622 -5
1307 -3 l1245 3 0 1065 0 1065 -1301 3 c-715 1 -1304 -1 -1307 -5z"/>
<path d="M7280 1156 l0 -1065 53 -6 c28 -3 617 -5 1307 -3 l1255 3 3 995 c2
547 0 1028 -3 1068 l-7 72 -1304 0 -1304 0 0 -1064z"/>
<path d="M10100 1156 l0 -1063 38 -7 c20 -3 607 -6 1305 -6 l1267 0 -2 1067
-3 1068 -1302 3 -1303 2 0 -1064z"/>
<path d="M60 1380 l0 -240 250 0 c157 0 250 -4 250 -10 0 -5 -115 -210 -256
-456 -140 -245 -253 -449 -249 -452 4 -4 141 -8 305 -10 l298 -3 19 28 c11 15
36 62 57 103 21 41 61 118 88 170 103 193 138 260 264 500 l129 245 3 120 c2
66 1 148 -3 183 l-7 62 -574 0 -574 0 0 -240z"/>
</g>
</svg>
