<?xml version="1.0" standalone="no"?>
<!DOCTYPE svg PUBLIC "-//W3C//DTD SVG 20010904//EN"
 "http://www.w3.org/TR/2001/REC-SVG-20010904/DTD/svg10.dtd">
<svg version="1.0" xmlns="http://www.w3.org/2000/svg"
 width="1280.000000pt" height="1015.000000pt" viewBox="0 0 1280.000000 1015.000000"
 preserveAspectRatio="xMidYMid meet">
<metadata>
Created by potrace 1.15, written by Peter Selinger 2001-2017
</metadata>
<g transform="translate(0.000000,1015.000000) scale(0.100000,-0.100000)"
fill="#000000" stroke="none">
<path d="M5619 10020 c-312 -38 -520 -275 -569 -651 -20 -155 -5 -337 40 -484
73 -235 248 -404 465 -450 90 -19 230 -19 320 0 208 44 380 203 456 422 66
192 75 450 23 658 -21 84 -94 230 -147 293 -134 162 -353 241 -588 212z m145
-585 c43 -176 18 -482 -43 -519 -17 -11 -48 50 -62 123 -16 81 -16 296 0 371
6 31 21 71 32 89 20 33 21 34 39 15 11 -10 26 -46 34 -79z"/>
<path d="M3760 9991 c-126 -27 -241 -76 -341 -143 -49 -32 -89 -62 -89 -66 0
-21 201 -467 210 -465 5 2 45 29 88 61 99 74 169 104 252 109 87 5 115 -10
114 -60 -2 -75 -109 -183 -451 -456 l-193 -153 0 -194 0 -194 640 0 640 0 0
265 0 265 -141 0 -141 0 64 69 c71 77 118 150 156 243 30 74 41 229 23 319
-37 179 -174 323 -365 386 -111 35 -336 43 -466 14z"/>
<path d="M7010 9894 c-134 -58 -247 -107 -249 -110 -4 -4 11 -80 71 -360 l30
-142 122 53 121 54 5 -472 5 -472 293 -3 292 -2 0 780 0 780 -222 0 -223 -1
-245 -105z"/>
<path d="M8200 9735 l0 -265 284 0 284 0 -262 -457 c-144 -252 -277 -484 -295
-515 l-32 -58 338 0 338 0 313 596 312 595 0 185 0 184 -640 0 -640 0 0 -265z"/>
<path d="M110 4140 l0 -4010 1525 0 1525 0 0 4010 0 4010 -1525 0 -1525 0 0
-4010z"/>
<path d="M3310 4140 l0 -4010 1520 0 1520 0 0 4010 0 4010 -1520 0 -1520 0 0
-4010z"/>
<path d="M6480 4140 l0 -4010 1520 0 1520 0 0 4010 0 4010 -1520 0 -1520 0 0
-4010z"/>
<path d="M9650 4140 l0 -4010 1520 0 1520 0 0 4010 0 4010 -1520 0 -1520 0 0
-4010z"/>
</g>
</svg>
