<?xml version="1.0" standalone="no"?>
<!DOCTYPE svg PUBLIC "-//W3C//DTD SVG 20010904//EN"
 "http://www.w3.org/TR/2001/REC-SVG-20010904/DTD/svg10.dtd">
<svg version="1.0" xmlns="http://www.w3.org/2000/svg"
 width="1280.000000pt" height="1106.000000pt" viewBox="0 0 1280.000000 1106.000000"
 preserveAspectRatio="xMidYMid meet">
<metadata>
Created by potrace 1.15, written by Peter Selinger 2001-2017
</metadata>
<g transform="translate(0.000000,1106.000000) scale(0.100000,-0.100000)"
fill="#000000" stroke="none">
<path d="M5965 10819 c-1238 -72 -2392 -426 -3240 -992 -558 -373 -961 -807
-1204 -1298 -160 -321 -217 -538 -260 -985 -20 -202 -96 -460 -231 -779 -35
-82 -181 -384 -325 -670 -323 -642 -374 -767 -362 -897 6 -71 30 -114 86 -153
39 -27 50 -30 119 -29 57 0 103 9 177 32 406 127 804 190 1135 179 396 -13
643 -85 1275 -370 505 -228 978 -363 1505 -431 551 -72 1821 -90 2485 -36
1217 100 2374 486 3185 1063 244 174 528 431 692 627 341 406 535 835 589
1300 16 145 7 433 -20 575 -92 496 -340 943 -751 1356 -862 865 -2302 1416
-3944 1509 -204 11 -705 11 -911 -1z"/>
<path d="M8755 3900 c-752 -66 -1409 -299 -1880 -668 -107 -84 -283 -267 -355
-369 -204 -290 -285 -603 -235 -910 133 -817 1120 -1465 2419 -1588 189 -18
974 -21 1187 -5 419 32 684 100 1089 278 337 148 471 182 710 182 164 0 310
-22 521 -80 158 -44 191 -44 233 -5 35 33 42 84 21 162 -10 37 -90 210 -181
391 -231 462 -291 621 -314 838 -25 232 -63 363 -157 546 -141 272 -411 544
-739 744 -400 243 -886 401 -1449 470 -151 18 -712 27 -870 14z"/>
<path d="M3780 3864 c-14 -2 -65 -9 -115 -15 -361 -45 -725 -205 -946 -416
-168 -161 -245 -308 -274 -525 -19 -144 -38 -195 -165 -458 -60 -124 -111
-240 -115 -258 -9 -45 15 -82 55 -82 16 0 74 12 127 27 84 23 118 27 243 27
164 1 193 -6 395 -94 319 -138 500 -166 1005 -157 291 5 389 15 570 57 453
106 805 338 947 625 59 117 68 159 68 300 0 115 -3 138 -27 203 -43 118 -102
208 -207 313 -215 216 -538 365 -941 435 -90 15 -555 29 -620 18z"/>
</g>
</svg>
