<?xml version="1.0" standalone="no"?>
<!DOCTYPE svg PUBLIC "-//W3C//DTD SVG 20010904//EN"
 "http://www.w3.org/TR/2001/REC-SVG-20010904/DTD/svg10.dtd">
<svg version="1.0" xmlns="http://www.w3.org/2000/svg"
 width="1280.000000pt" height="1040.000000pt" viewBox="0 0 1280.000000 1040.000000"
 preserveAspectRatio="xMidYMid meet">
<metadata>
Created by potrace 1.15, written by Peter Selinger 2001-2017
</metadata>
<g transform="translate(0.000000,1040.000000) scale(0.100000,-0.100000)"
fill="#000000" stroke="none">
<path d="M6275 10393 c-551 -10 -1103 -113 -1640 -305 -60 -21 -119 -43 -130
-48 -11 -5 -76 -32 -145 -61 -394 -164 -845 -431 -1179 -699 -51 -41 -110 -88
-130 -103 -129 -100 -421 -390 -602 -597 -340 -391 -664 -922 -865 -1415 -113
-278 -236 -686 -283 -935 -6 -30 -13 -66 -16 -80 -12 -55 -55 -363 -67 -480
-19 -182 -16 -802 5 -990 14 -130 48 -365 62 -430 2 -14 12 -61 21 -105 133
-663 431 -1355 826 -1919 417 -596 961 -1107 1573 -1476 133 -81 153 -91 359
-196 568 -288 1149 -458 1816 -531 204 -23 836 -23 1040 0 667 73 1248 243
1816 531 206 105 226 115 359 196 375 226 725 506 1045 836 377 389 660 789
909 1284 211 422 358 842 445 1275 9 44 19 91 21 105 14 65 48 300 62 430 21
188 24 808 5 990 -12 117 -55 425 -67 480 -3 14 -10 50 -16 80 -6 30 -22 102
-35 160 -245 1018 -775 1925 -1536 2627 -79 73 -159 145 -179 160 -20 15 -79
62 -130 103 -334 268 -785 535 -1179 699 -69 29 -134 56 -145 61 -11 5 -69 27
-130 48 -617 221 -1213 317 -1890 305z"/>
</g>
</svg>
