<?xml version="1.0" standalone="no"?>
<!DOCTYPE svg PUBLIC "-//W3C//DTD SVG 20010904//EN"
 "http://www.w3.org/TR/2001/REC-SVG-20010904/DTD/svg10.dtd">
<svg version="1.0" xmlns="http://www.w3.org/2000/svg"
 width="985.000000pt" height="1280.000000pt" viewBox="0 0 985.000000 1280.000000"
 preserveAspectRatio="xMidYMid meet">
<metadata>
Created by potrace 1.15, written by Peter Selinger 2001-2017
</metadata>
<g transform="translate(0.000000,1280.000000) scale(0.100000,-0.100000)"
fill="#000000" stroke="none">
<path d="M4775 12749 c-189 -37 -340 -121 -471 -262 -87 -94 -147 -199 -197
-345 -36 -104 -40 -128 -45 -243 -10 -247 40 -415 179 -598 90 -120 233 -227
372 -279 68 -26 178 -52 218 -52 l29 0 0 -91 0 -90 -55 60 c-163 175 -412 229
-610 131 -107 -53 -186 -146 -238 -283 -27 -73 -31 -94 -31 -187 0 -136 22
-196 104 -284 82 -87 149 -119 260 -124 68 -3 96 0 141 17 113 43 198 159 207
283 5 68 -11 128 -34 128 -41 0 -74 -14 -74 -31 0 -11 -4 -19 -10 -19 -5 0
-10 -19 -10 -42 0 -56 -28 -100 -83 -132 -59 -35 -121 -42 -189 -22 -59 17
-138 78 -162 125 -59 114 6 309 129 386 75 47 120 58 221 54 75 -4 100 -9 157
-36 130 -62 222 -180 248 -318 7 -34 9 -99 5 -153 -8 -133 -48 -217 -153 -321
-102 -102 -160 -129 -393 -187 -240 -58 -327 -85 -485 -149 -372 -149 -690
-360 -975 -645 -147 -146 -230 -247 -345 -420 -230 -344 -376 -729 -443 -1163
-16 -104 -17 -357 -17 -3712 l0 -3600 2903 -3 2902 -2 0 3608 c0 3097 -2 3624
-15 3718 -39 301 -124 570 -271 864 -395 788 -1136 1339 -2046 1519 -114 23
-163 38 -218 67 -127 66 -229 180 -272 303 -24 66 -37 224 -19 235 6 4 11 26
11 50 0 102 109 245 235 307 66 32 74 34 180 34 97 0 116 -3 160 -24 66 -33
131 -100 163 -169 22 -47 27 -71 27 -138 0 -71 -3 -85 -28 -123 -34 -51 -100
-95 -169 -111 -115 -28 -240 40 -253 138 -10 72 -25 100 -58 106 -47 10 -57 7
-57 -14 0 -11 -5 -20 -11 -20 -22 0 -5 -143 25 -204 35 -71 119 -149 186 -171
79 -26 199 -18 273 18 78 39 153 115 191 196 29 62 31 73 31 181 0 122 -10
161 -71 282 -83 165 -291 263 -487 230 -93 -16 -219 -77 -286 -140 l-51 -48 0
66 0 66 92 22 c196 46 366 157 493 322 176 229 225 542 129 830 -125 375 -415
604 -779 615 -60 2 -132 0 -160 -6z m290 -184 c213 -44 419 -220 509 -433 82
-194 74 -424 -21 -605 -45 -86 -187 -234 -275 -285 -335 -197 -771 -92 -983
237 -77 118 -105 219 -105 372 0 276 159 533 404 654 50 25 120 52 156 59 86
19 228 19 315 1z m-145 -2495 c0 -5 25 -45 55 -90 l54 -80 -119 0 -120 0 44
60 c24 33 50 73 58 90 12 29 28 40 28 20z m-70 -1988 l0 -1619 -46 43 c-147
135 -388 164 -565 67 -60 -32 -131 -99 -169 -160 l-30 -47 0 490 c0 644 21
955 91 1372 28 174 38 218 85 407 111 439 300 832 468 970 42 34 143 94 159
95 4 0 7 -728 7 -1618z m228 1589 c178 -90 366 -388 496 -786 69 -209 145
-551 180 -810 52 -377 57 -484 62 -1130 l5 -600 -35 60 c-93 160 -238 245
-420 245 -129 0 -225 -34 -318 -112 l-48 -39 0 1600 c0 1090 3 1601 10 1601 6
0 36 -13 68 -29z m-646 -123 c-110 -165 -223 -426 -307 -713 -93 -318 -126
-491 -185 -959 -26 -206 -40 -556 -40 -1011 l0 -470 -29 51 c-35 61 -133 154
-193 182 -182 88 -404 59 -544 -70 l-44 -41 0 334 c0 460 14 658 67 934 81
425 220 775 438 1105 181 273 407 492 649 629 56 33 224 111 237 111 4 0 -18
-37 -49 -82z m1108 12 c253 -128 475 -322 672 -590 241 -328 425 -783 507
-1255 36 -205 43 -310 48 -780 l6 -480 -66 63 c-79 75 -163 117 -269 133 -168
27 -348 -42 -445 -169 l-33 -44 0 434 c0 425 -9 710 -30 918 -49 493 -136 906
-265 1266 -55 153 -175 402 -239 497 -25 37 -46 70 -46 72 0 7 91 -30 160 -65z
m-1683 -104 c-398 -356 -716 -968 -841 -1621 -56 -294 -66 -428 -66 -927 0
-230 -2 -418 -4 -418 -2 0 -23 18 -47 40 -196 179 -523 165 -689 -29 l-40 -46
0 340 c0 484 14 648 80 915 195 788 798 1464 1591 1784 46 19 88 34 92 35 4 1
-30 -32 -76 -73z m2158 39 c180 -69 456 -224 629 -354 234 -176 438 -388 598
-621 261 -378 400 -771 437 -1229 13 -153 15 -861 3 -861 -4 0 -16 16 -26 35
-46 84 -167 170 -283 200 -140 37 -315 -1 -422 -90 l-31 -27 0 294 c0 448 -18
698 -71 973 -51 272 -129 522 -239 770 -151 343 -377 666 -607 871 -48 43 -79
74 -68 70 11 -4 47 -18 80 -31z m-2115 -5986 l0 -2191 -35 26 c-53 40 -98 56
-163 56 -67 0 -153 -37 -179 -77 l-16 -24 -36 34 c-53 51 -96 69 -165 70 -72
1 -136 -25 -184 -72 l-32 -33 0 1682 0 1682 38 -30 c101 -80 244 -137 317
-126 181 27 246 247 139 471 -39 82 -78 113 -140 113 -81 0 -136 -66 -165
-198 -14 -61 -10 -67 48 -77 32 -5 44 -3 47 7 2 7 9 32 15 55 19 69 76 82 106
24 23 -46 39 -152 26 -183 -26 -69 -124 -74 -240 -13 -96 51 -151 99 -151 134
0 84 103 201 359 406 92 73 201 169 242 213 70 73 159 202 159 230 0 7 2 12 5
12 3 0 5 -986 5 -2191z m1920 -26 l0 -2208 -30 37 c-44 53 -120 88 -192 88
-71 0 -121 -20 -169 -66 l-35 -34 -30 31 c-88 93 -246 98 -336 12 l-28 -27 0
1656 0 1656 68 -45 c112 -76 166 -97 254 -97 69 -1 80 2 120 29 66 46 98 117
98 220 0 132 -57 278 -123 311 -60 32 -145 14 -179 -38 -25 -39 -58 -137 -58
-173 0 -31 3 -35 34 -40 51 -10 71 -3 74 25 5 43 23 79 43 85 56 18 90 -39 93
-154 1 -70 0 -74 -27 -95 -63 -47 -216 0 -323 99 -39 37 -44 46 -38 71 21 93
123 204 354 389 203 162 319 282 380 393 25 45 46 82 48 82 1 0 2 -993 2
-2207z m1865 -2151 c-3 -3 -15 4 -28 16 -30 29 -100 52 -155 52 -67 0 -121
-20 -165 -61 l-39 -38 -29 34 c-65 74 -187 90 -289 37 l-60 -31 0 1645 c0 904
3 1644 6 1644 3 0 20 -11 37 -24 18 -14 68 -42 111 -62 127 -60 218 -52 292
28 62 66 80 136 63 247 -25 167 -95 271 -183 271 -83 0 -142 -68 -169 -196
-13 -63 -9 -69 50 -79 l41 -6 16 55 c17 58 42 82 75 71 27 -8 61 -95 64 -160
2 -53 0 -59 -31 -86 -25 -22 -42 -29 -75 -29 -72 0 -243 94 -283 155 -16 24
-15 28 16 92 43 87 129 173 347 346 189 151 290 253 349 354 l39 67 3 -2169
c1 -1192 0 -2171 -3 -2173z m-3558 4188 c48 -69 176 -188 298 -275 211 -150
297 -220 361 -289 l65 -69 -3 -71 -3 -70 -50 -38 c-116 -89 -225 -113 -282
-64 -26 23 -28 29 -27 95 3 157 99 211 133 75 l12 -46 42 7 c23 4 45 9 50 12
12 7 8 48 -12 107 -39 112 -77 148 -158 148 -60 0 -91 -23 -125 -92 -127 -255
-21 -518 195 -486 43 7 159 59 205 92 l22 16 0 -1641 0 -1642 -34 35 c-73 78
-196 99 -293 51 -28 -14 -59 -37 -68 -52 l-17 -25 -36 35 c-55 52 -98 70 -167
70 -63 0 -138 -26 -164 -56 -7 -10 -17 -17 -22 -17 -5 0 -9 931 -9 2168 l0
2167 28 -50 c15 -27 42 -70 59 -95z m1946 -43 c47 -56 142 -135 287 -237 250
-176 378 -298 400 -380 10 -36 8 -44 -10 -70 -25 -36 -138 -111 -202 -135 -58
-21 -111 -15 -144 16 -48 45 -23 231 33 245 33 9 60 -19 70 -70 6 -28 14 -42
27 -44 30 -6 84 8 90 23 5 15 -26 120 -49 165 -26 50 -62 73 -119 78 -52 4
-56 3 -95 -34 -78 -74 -121 -260 -87 -377 44 -151 184 -208 336 -136 35 16 86
46 112 65 l48 34 0 -1661 0 -1661 -37 32 c-54 48 -109 70 -176 70 -70 0 -120
-20 -168 -66 l-37 -36 -15 22 c-68 97 -229 113 -332 34 l-45 -34 0 2156 0
2156 37 -53 c20 -30 54 -76 76 -102z m-3868 91 c62 -94 202 -223 355 -328 176
-119 308 -231 361 -304 24 -32 29 -49 29 -98 l0 -58 -67 -50 c-72 -53 -155
-90 -202 -90 -15 0 -43 10 -62 23 l-34 23 0 87 c0 71 4 91 21 114 12 15 29 30
38 31 26 6 55 -27 68 -75 9 -38 14 -43 39 -43 15 0 40 5 55 10 22 9 26 15 21
38 -12 61 -51 147 -83 181 -30 34 -36 36 -94 36 -58 0 -64 -2 -94 -36 -54 -59
-79 -137 -84 -260 -3 -94 -1 -111 18 -150 45 -89 105 -129 193 -129 67 0 114
16 200 69 l67 41 0 -1630 c0 -897 -3 -1630 -7 -1630 -3 0 -14 7 -24 16 -28 25
-89 43 -150 44 -64 0 -150 -37 -176 -77 l-16 -24 -36 34 c-92 88 -211 96 -321
22 l-50 -34 0 2145 c0 1179 2 2144 4 2144 2 0 16 -19 31 -42z m3615 -4828 l0
-110 -40 26 c-130 86 -278 -10 -280 -179 0 -67 10 -76 71 -58 34 10 39 16 39
41 0 59 67 90 117 55 12 -8 27 -31 33 -51 11 -32 10 -40 -7 -63 -63 -85 -207
-75 -271 20 -21 29 -23 42 -18 93 7 71 42 136 88 164 18 11 64 33 101 47 47
19 83 42 115 75 26 26 48 48 50 49 1 1 2 -49 2 -109z m-974 -97 c-2 -3 -18 5
-35 18 -17 13 -49 24 -78 26 -110 10 -192 -82 -193 -214 0 -70 2 -72 71 -51
33 9 39 15 39 40 0 57 63 86 115 52 31 -20 50 -76 36 -103 -46 -85 -189 -91
-267 -10 -26 27 -29 37 -29 97 0 114 47 173 178 222 35 13 78 40 110 70 l52
48 3 -95 c1 -53 1 -98 -2 -100z m-1617 90 c98 -42 125 -60 153 -99 52 -76 61
-165 21 -218 -62 -84 -216 -91 -268 -12 -34 51 12 126 76 126 43 0 69 -27 69
-71 0 -23 6 -28 44 -39 25 -7 49 -9 55 -5 18 11 12 101 -10 160 -39 104 -144
146 -242 96 l-37 -19 0 90 0 90 41 -37 c23 -21 67 -48 98 -62z m3541 2 l0 -94
-46 24 c-133 71 -262 -27 -263 -199 l-1 -59 41 7 c63 10 78 21 77 57 -3 88
131 73 148 -17 5 -30 2 -40 -21 -64 -94 -98 -285 -30 -285 101 0 95 65 184
160 220 70 26 128 60 159 93 14 14 26 26 28 26 2 0 3 -43 3 -95z m-4476 -1
c28 -13 56 -24 62 -24 29 0 94 -62 119 -114 23 -46 26 -65 22 -107 -14 -129
-175 -189 -277 -103 -38 32 -40 71 -4 113 49 59 134 34 134 -40 0 -23 6 -28
46 -39 59 -17 68 -8 62 67 -6 75 -41 147 -87 179 -42 28 -119 33 -165 9 -15
-8 -30 -15 -32 -15 -2 0 -4 36 -4 81 l0 81 37 -32 c20 -18 59 -43 87 -56z
m1606 2 l0 -84 -37 19 c-49 25 -99 24 -153 -3 -36 -18 -50 -34 -71 -77 -31
-62 -41 -110 -32 -152 6 -32 17 -35 74 -17 33 9 39 15 39 40 0 33 31 68 60 68
61 0 116 -72 91 -119 -48 -89 -195 -91 -272 -4 -29 34 -31 40 -27 99 3 47 11
74 34 110 30 49 59 68 190 126 22 10 53 31 69 47 17 16 31 29 33 30 1 1 2 -37
2 -83z m286 -16 c32 -11 70 -30 86 -41 72 -52 110 -186 70 -251 -59 -95 -222
-108 -278 -23 -33 51 12 125 77 125 43 0 60 -17 62 -61 2 -29 7 -34 45 -47 65
-21 75 -13 70 61 -5 79 -40 154 -88 185 -30 20 -44 23 -95 19 -33 -2 -68 -7
-77 -12 -16 -6 -18 0 -18 64 l0 71 45 -34 c24 -19 70 -44 101 -56z m954 4 c36
-14 77 -35 92 -46 68 -48 108 -180 74 -246 -49 -96 -225 -113 -281 -28 -34 51
12 126 76 126 43 0 69 -27 69 -71 0 -23 6 -28 44 -39 25 -7 49 -9 54 -6 19 11
19 72 1 132 -21 70 -48 108 -89 129 -37 19 -117 19 -152 1 l-28 -15 0 75 0 75
38 -30 c20 -17 66 -42 102 -57z m972 -5 c86 -35 109 -55 143 -123 48 -96 26
-185 -56 -227 -81 -41 -186 -20 -217 44 -10 22 -10 32 2 61 34 81 146 74 146
-9 0 -30 4 -33 44 -45 25 -7 49 -9 55 -5 6 3 11 32 11 64 0 72 -39 156 -89
188 -40 27 -120 31 -163 9 l-28 -15 0 75 0 76 39 -31 c22 -18 72 -45 113 -62z
m893 23 c22 -10 56 -25 76 -31 43 -14 101 -69 126 -120 11 -22 18 -58 18 -93
0 -51 -3 -60 -35 -93 -68 -70 -178 -78 -242 -17 -31 29 -35 59 -13 101 16 32
33 41 74 41 39 0 59 -20 63 -59 3 -31 8 -36 46 -49 60 -20 72 -12 72 45 0 88
-46 179 -104 207 -38 18 -118 21 -147 6 -18 -10 -19 -7 -19 56 l0 67 23 -20
c12 -11 40 -30 62 -41z m685 -12 c0 -38 -2 -70 -3 -70 -2 0 -19 7 -36 16 -44
22 -118 14 -161 -16 -53 -38 -101 -163 -86 -224 7 -29 21 -31 77 -14 34 10 39
15 39 41 0 57 50 84 103 55 45 -24 60 -74 36 -120 -13 -25 -84 -58 -124 -58
-43 0 -107 32 -138 69 -38 45 -38 117 1 192 30 60 77 97 149 118 25 8 64 29
87 47 22 18 44 33 49 33 4 1 7 -30 7 -69z m-4740 -1 c0 -54 -2 -60 -17 -54
-69 28 -174 4 -207 -48 -32 -48 -58 -138 -51 -179 7 -42 15 -45 76 -26 33 9
39 15 39 40 0 54 53 83 103 56 34 -17 46 -39 47 -80 0 -28 -7 -42 -30 -62 -65
-54 -178 -40 -240 30 -25 29 -30 43 -30 87 0 108 68 192 185 231 28 9 64 27
80 41 17 13 33 24 38 25 4 0 7 -27 7 -61z"/>
</g>
</svg>
