<?xml version="1.0" standalone="no"?>
<!DOCTYPE svg PUBLIC "-//W3C//DTD SVG 20010904//EN"
 "http://www.w3.org/TR/2001/REC-SVG-20010904/DTD/svg10.dtd">
<svg version="1.0" xmlns="http://www.w3.org/2000/svg"
 width="985.000000pt" height="1280.000000pt" viewBox="0 0 985.000000 1280.000000"
 preserveAspectRatio="xMidYMid meet">
<metadata>
Created by potrace 1.15, written by Peter Selinger 2001-2017
</metadata>
<g transform="translate(0.000000,1280.000000) scale(0.100000,-0.100000)"
fill="#000000" stroke="none">
<path d="M4445 12516 c-212 -49 -389 -225 -450 -449 -17 -64 -19 -67 -49 -67
-17 0 -56 7 -86 15 -30 8 -109 18 -175 21 -245 13 -439 -60 -632 -240 -76 -71
-125 -140 -192 -274 -118 -234 -161 -428 -161 -714 1 -317 71 -596 252 -1001
72 -161 190 -366 360 -627 182 -279 203 -332 195 -495 -5 -123 -29 -224 -83
-361 -49 -124 -53 -175 -20 -247 49 -109 54 -183 21 -327 -29 -129 -49 -173
-102 -231 -29 -31 -53 -62 -53 -68 0 -6 -4 -11 -10 -11 -16 0 -50 -77 -50
-112 0 -19 9 -59 20 -91 11 -31 20 -74 20 -96 0 -33 -45 -263 -95 -481 -8 -36
-58 -267 -110 -515 -53 -247 -120 -562 -150 -700 -63 -293 -112 -526 -161
-755 -19 -91 -41 -194 -49 -230 -36 -163 -225 -1041 -255 -1190 -74 -358 -161
-757 -172 -782 -14 -37 -66 -68 -113 -68 -38 0 -354 67 -563 119 -312 79 -612
144 -658 145 -69 0 -99 -22 -135 -97 -27 -59 -79 -278 -94 -398 -9 -74 9 -109
70 -139 64 -31 424 -119 515 -126 100 -8 153 17 191 91 25 48 27 50 68 49 26
0 52 -9 69 -21 26 -20 27 -24 25 -104 -3 -99 -16 -181 -50 -303 -38 -138 -64
-176 -120 -176 -57 0 -73 15 -73 65 0 27 -10 66 -26 99 -34 72 -54 81 -314
147 -237 59 -340 68 -387 33 -40 -30 -77 -130 -112 -300 -32 -157 -38 -232
-21 -264 20 -37 80 -59 360 -135 423 -114 569 -154 625 -170 28 -8 101 -28
164 -45 126 -34 167 -57 187 -106 18 -43 18 -78 -2 -183 -30 -157 -8 -222 91
-274 56 -29 198 -36 259 -13 76 29 102 64 126 174 12 53 41 185 65 292 53 236
99 445 160 730 25 118 61 285 80 370 19 85 59 272 90 415 30 143 67 310 80
370 13 61 65 299 115 530 49 231 94 438 100 460 10 41 25 111 87 405 19 91 47
226 63 300 16 74 49 227 74 340 59 270 136 630 211 985 20 94 45 211 56 260
28 126 44 199 79 365 17 80 35 163 40 185 6 22 12 51 15 65 15 83 59 288 77
365 21 86 25 92 89 160 71 75 99 120 99 157 0 13 -11 58 -25 101 -31 97 -31
129 0 286 40 196 49 223 105 288 61 71 74 109 99 288 42 295 72 387 159 494
35 43 133 127 162 139 8 3 32 16 52 30 27 18 41 21 54 14 12 -6 23 -6 34 0 12
8 37 -2 105 -43 214 -125 308 -207 362 -313 48 -95 102 -328 103 -442 0 -87
24 -138 95 -200 105 -93 169 -247 181 -434 6 -83 4 -102 -16 -155 -26 -69 -35
-124 -26 -160 3 -13 33 -53 65 -87 32 -35 63 -72 69 -83 6 -12 101 -385 212
-830 180 -726 630 -2533 872 -3505 61 -246 89 -374 85 -392 -4 -15 -22 -35
-39 -46 -32 -20 -326 -96 -563 -146 -271 -57 -652 -149 -686 -166 -24 -13 -44
-35 -62 -70 -42 -80 -42 -109 -8 -255 51 -217 67 -264 97 -296 24 -26 35 -29
87 -29 32 0 131 16 220 35 321 70 377 93 423 171 22 37 25 52 19 89 -6 45 -6
46 29 60 49 21 89 19 119 -5 46 -36 126 -311 142 -486 6 -67 5 -73 -16 -88
-53 -37 -112 -9 -153 73 -44 86 -76 88 -364 27 -282 -60 -327 -79 -368 -149
-53 -89 -53 -117 -8 -287 75 -282 86 -300 173 -300 26 0 171 24 321 54 151 30
352 69 445 86 523 100 512 99 561 73 45 -23 84 -91 110 -193 39 -155 93 -206
211 -197 119 9 254 95 282 180 10 31 5 62 -43 258 -29 123 -73 303 -96 399
-23 96 -110 454 -195 795 -84 341 -197 798 -250 1015 -104 425 -323 1312 -596
2410 -94 377 -199 802 -235 945 -35 143 -71 285 -79 315 -36 133 -123 500
-129 545 -6 41 -2 64 20 125 28 80 34 153 14 191 -16 29 -41 63 -100 133 -49
59 -69 111 -115 303 l-27 112 21 89 c23 99 19 154 -21 259 -10 29 -33 99 -49
155 -65 225 -72 306 -39 427 27 97 55 149 172 325 97 145 137 216 251 441 170
336 254 582 314 915 22 122 25 481 5 585 -36 186 -109 387 -191 525 -79 133
-255 289 -418 369 -158 79 -341 95 -559 52 -67 -13 -128 -22 -137 -18 -8 3
-35 48 -59 99 -95 198 -209 313 -357 358 -85 27 -218 34 -296 16z m255 -221
c30 -8 63 -17 73 -20 28 -7 96 -64 137 -116 21 -27 46 -77 60 -118 31 -99 23
-121 -89 -246 l-89 -100 -151 -59 -150 -59 -66 29 c-55 24 -77 42 -133 108
-194 228 -195 231 -167 311 31 89 139 226 164 210 7 -3 10 -1 9 5 -2 6 8 19
22 28 13 9 21 11 16 5 -10 -17 4 -16 50 4 102 44 202 50 314 18z m1015 -724
c145 -67 271 -242 326 -451 30 -111 37 -360 15 -505 -35 -229 -95 -424 -196
-646 -33 -72 -60 -131 -60 -133 0 -1 -27 -53 -60 -114 -78 -146 -339 -529
-395 -581 -54 -50 -108 -66 -167 -51 -55 15 -208 88 -208 100 0 4 53 50 118
102 392 310 682 697 805 1073 62 188 87 385 68 531 -30 230 -164 508 -316 653
l-66 63 38 -6 c21 -4 65 -20 98 -35z m-2090 11 c-6 -5 -43 -35 -83 -66 -94
-74 -159 -156 -226 -286 -107 -208 -133 -328 -123 -560 10 -215 67 -421 175
-635 120 -238 368 -525 666 -770 96 -80 97 -80 75 -98 -31 -25 -125 -50 -162
-43 -77 15 -143 85 -306 326 -251 371 -355 590 -455 955 -58 211 -71 301 -71
475 0 196 13 255 86 408 81 167 197 268 337 292 66 11 98 12 87 2z m1580 -307
c82 -22 131 -48 189 -103 78 -76 126 -159 140 -247 24 -147 25 -166 16 -246
-32 -259 -172 -514 -435 -788 -121 -126 -437 -391 -543 -455 -8 -5 -48 18
-110 62 -343 246 -713 665 -807 917 -74 194 -74 414 -2 577 63 142 210 228
395 231 98 2 96 4 169 -138 60 -119 78 -142 113 -150 38 -8 101 20 160 73 l46
40 54 -39 c175 -125 178 -126 229 -84 41 36 65 77 105 183 18 50 46 112 60
137 l27 45 67 0 c37 0 95 -7 127 -15z m-651 -2386 c-3 -5 -10 -7 -15 -3 -5 3
-7 10 -3 15 3 5 10 7 15 3 5 -3 7 -10 3 -15z"/>
<path d="M4310 12249 c0 -5 5 -7 10 -4 6 3 10 8 10 11 0 2 -4 4 -10 4 -5 0
-10 -5 -10 -11z"/>
</g>
</svg>
