<?xml version="1.0" standalone="no"?>
<!DOCTYPE svg PUBLIC "-//W3C//DTD SVG 20010904//EN"
 "http://www.w3.org/TR/2001/REC-SVG-20010904/DTD/svg10.dtd">
<svg version="1.0" xmlns="http://www.w3.org/2000/svg"
 width="985.000000pt" height="1280.000000pt" viewBox="0 0 985.000000 1280.000000"
 preserveAspectRatio="xMidYMid meet">
<metadata>
Created by potrace 1.15, written by Peter Selinger 2001-2017
</metadata>
<g transform="translate(0.000000,1280.000000) scale(0.100000,-0.100000)"
fill="#000000" stroke="none">
<path d="M2415 12439 c-286 -37 -564 -225 -802 -540 -82 -108 -92 -132 -68
-159 12 -13 13 -20 5 -25 -27 -16 -40 55 -19 98 10 21 10 21 -5 3 -20 -25 -21
-90 -2 -106 8 -6 13 -17 10 -24 -2 -6 -6 -28 -7 -48 -3 -30 2 -39 25 -54 16
-11 36 -33 44 -49 19 -41 93 -87 248 -155 254 -112 401 -145 601 -137 196 7
333 60 524 201 83 61 89 64 171 74 142 20 437 27 454 12 10 -7 27 -10 43 -6
18 4 23 3 15 -2 -9 -6 10 -11 55 -16 127 -12 387 -68 521 -112 201 -65 438
-185 521 -263 32 -30 32 -30 16 -68 l-15 -38 21 25 c26 32 26 31 -53 -130
-150 -306 -222 -637 -198 -916 5 -54 7 -101 4 -103 -13 -14 -20 28 -25 172 -5
124 -5 113 -2 -48 2 -115 5 -224 6 -242 0 -18 5 -29 10 -26 6 4 7 -8 3 -29
-15 -81 106 -439 199 -588 12 -19 34 -57 48 -83 24 -42 25 -46 8 -37 -11 5
-28 10 -38 10 -13 0 -9 -6 14 -20 17 -10 37 -28 42 -39 13 -23 15 -78 3 -85
-4 -2 -6 13 -4 34 3 32 -1 44 -23 66 l-26 26 -222 -5 c-249 -5 -306 -16 -447
-85 -105 -51 -211 -158 -269 -269 -51 -101 -65 -104 -143 -37 -115 98 -282
187 -424 225 -113 31 -275 31 -364 0 -77 -27 -150 -71 -186 -113 -22 -27 -25
-38 -21 -89 2 -35 0 -56 -6 -52 -5 3 -6 -4 -2 -18 16 -50 16 -53 1 -29 -8 14
-15 21 -16 16 -1 -22 45 -157 73 -213 56 -116 220 -299 308 -343 21 -11 41
-25 44 -31 4 -6 -8 -29 -26 -52 -32 -42 -32 -42 -3 -14 49 44 49 31 1 -25 -24
-29 -70 -89 -102 -133 -32 -44 -84 -105 -116 -135 -39 -38 -62 -71 -75 -105
-10 -27 -39 -90 -65 -140 -109 -206 -145 -341 -134 -505 4 -58 4 -102 0 -98
-4 3 -13 44 -20 90 l-14 83 7 -85 c4 -47 6 -103 5 -124 -1 -22 2 -34 5 -29 4
6 8 -10 9 -35 1 -55 42 -175 85 -250 25 -44 27 -53 14 -58 -9 -3 -13 -10 -11
-15 6 -9 -3 -12 -115 -29 -304 -48 -710 -280 -796 -456 -22 -46 -25 -62 -20
-104 7 -53 1 -65 -14 -27 -5 13 -9 16 -9 6 -1 -8 6 -24 14 -35 16 -21 21 -79
6 -69 -17 10 6 -53 31 -86 70 -95 128 -126 283 -153 48 -9 90 -18 93 -21 3 -3
-14 -29 -38 -57 l-43 -53 53 50 54 50 -38 -45 c-20 -25 -74 -90 -120 -145
-219 -265 -397 -567 -529 -900 -125 -313 -174 -543 -203 -944 -3 -51 -9 -89
-13 -83 -3 6 -6 -74 -5 -176 1 -164 0 -172 -5 -67 l-7 120 -5 -110 c-4 -69 -5
-45 -3 65 4 181 30 447 65 648 10 63 17 117 15 119 -6 6 -54 -253 -73 -394
-26 -189 -25 -653 2 -813 10 -63 18 -135 18 -160 -2 -35 0 -41 8 -25 7 15 8
12 4 -15 -3 -22 6 -83 24 -155 155 -635 504 -1201 986 -1600 307 -254 729
-458 1126 -543 210 -46 323 -57 589 -57 389 1 553 31 970 180 108 39 185 33
350 -30 147 -56 338 -106 505 -131 167 -26 588 -26 755 0 827 128 1519 590
1952 1303 291 479 431 1051 415 1692 -5 228 -33 481 -49 446 -5 -13 -6 -4 -3
25 4 32 2 41 -5 30 -8 -12 -10 -11 -10 8 0 53 -65 317 -115 467 -141 430 -349
804 -639 1150 -51 61 -96 115 -100 122 -10 18 19 30 134 53 208 42 278 111
296 287 5 49 4 64 -4 59 -8 -5 -12 5 -12 31 0 22 -11 62 -25 89 -27 55 -122
155 -195 205 -39 27 -41 27 -10 2 133 -107 221 -225 219 -292 -1 -19 -4 -13
-14 21 -18 66 -44 104 -122 180 -156 150 -427 284 -677 334 -64 12 -84 20 -70
25 13 5 14 8 4 8 -43 3 -44 16 -7 102 41 97 64 202 68 309 5 112 0 202 -10
196 -4 -3 -11 18 -15 48 -10 86 -51 201 -131 361 -40 83 -77 163 -81 180 -4
17 -33 55 -70 90 -34 33 -104 116 -156 185 -108 144 -109 126 9 204 107 70
191 166 252 289 61 120 76 190 66 302 -8 94 -26 137 -69 167 -30 22 -30 21 6
-20 43 -48 54 -80 40 -119 -9 -26 -10 -25 -9 14 3 96 -123 185 -300 214 -201
32 -477 -63 -690 -237 -42 -35 -74 -54 -87 -52 -14 2 -33 26 -58 72 -79 145
-166 228 -303 291 -115 53 -182 66 -390 75 -218 9 -204 7 -185 20 12 8 9 10
-12 10 -16 0 -28 2 -28 5 0 3 27 60 61 126 130 260 190 528 188 839 -1 122
-13 268 -19 230 -1 -8 -9 28 -17 80 -31 206 -93 401 -193 608 -65 135 -66 145
-14 194 16 15 67 50 114 78 232 140 485 230 790 279 69 11 155 26 193 32 37 6
67 15 67 20 0 12 105 11 275 -3 77 -6 164 -11 192 -12 49 -1 61 -7 160 -77
166 -116 241 -153 373 -184 76 -17 246 -19 340 -4 141 22 328 88 505 176 98
48 145 88 170 139 8 18 20 36 25 39 6 3 10 33 10 66 0 43 -3 58 -12 53 -7 -5
-8 -3 -4 5 17 28 -7 83 -76 173 -123 159 -304 335 -403 392 -30 17 -30 17 -5
-1 147 -108 288 -251 412 -416 47 -64 58 -85 57 -115 l-1 -37 -9 43 c-16 82
-245 344 -409 469 -109 82 -260 156 -375 184 -211 51 -478 15 -775 -103 -61
-24 -104 -33 -225 -44 -353 -34 -597 -100 -891 -243 -261 -127 -448 -258 -665
-468 -83 -80 -146 -133 -158 -133 -11 0 -56 36 -108 88 -48 49 -119 116 -158
150 -38 34 -65 62 -59 62 6 0 79 -65 162 -145 83 -80 157 -145 164 -145 7 0 2
8 -12 18 -14 10 -66 59 -117 109 -104 103 -313 277 -313 260 0 -2 25 -24 56
-47 30 -23 54 -44 51 -46 -2 -3 -43 24 -91 60 -187 140 -436 271 -665 350
-198 69 -368 104 -621 130 -130 13 -161 20 -303 70 -242 85 -439 116 -602 95z
m4247 -509 c24 -7 56 -31 97 -76 34 -35 61 -69 61 -74 0 -6 -19 -10 -42 -11
l-43 0 52 -20 c28 -11 54 -26 56 -34 4 -10 -5 -9 -37 6 -86 37 -215 51 -446
47 -180 -3 -233 4 -100 13 19 2 -1 5 -44 8 l-79 6 106 39 c101 37 335 104 367
105 8 1 31 -4 52 -9z m-2937 -45 c133 -41 275 -95 275 -104 0 -3 -30 -5 -67
-4 -50 1 -59 -1 -33 -6 19 -4 -66 -5 -190 -3 -175 3 -247 0 -324 -12 -54 -9
-101 -15 -103 -12 -3 2 17 11 44 19 l48 15 -37 1 c-21 1 -38 4 -38 7 0 16 71
91 110 116 42 28 50 29 120 25 47 -3 121 -19 195 -42z m252 -131 c-3 -3 -12
-4 -19 -1 -8 3 -5 6 6 6 11 1 17 -2 13 -5z m-407 -74 c-91 -4 -190 -10 -220
-15 -30 -4 -52 -4 -49 -1 13 13 137 23 284 23 l150 0 -165 -7z m3170 -9 c21
-9 16 -10 -25 -5 -27 4 -126 10 -220 15 l-170 7 195 -3 c114 -2 205 -8 220
-14z m-2907 2 c-7 -2 -19 -2 -25 0 -7 3 -2 5 12 5 14 0 19 -2 13 -5z m2420 0
c-7 -2 -19 -2 -25 0 -7 3 -2 5 12 5 14 0 19 -2 13 -5z m-902 -734 c16 -34 29
-63 27 -65 -2 -2 -18 26 -36 61 -17 36 -30 65 -27 65 3 0 19 -27 36 -61z m68
-154 c0 -5 -6 1 -14 15 -8 14 -14 30 -14 35 0 6 6 -1 14 -15 8 -14 14 -29 14
-35z m-290 -23 c77 -82 155 -248 193 -412 11 -47 24 -94 29 -105 22 -53 20
-198 -6 -410 -2 -22 2 -11 10 25 8 36 17 111 21 167 4 56 10 101 13 99 12 -8
-8 -233 -29 -330 -43 -198 -132 -409 -246 -583 -75 -116 -100 -112 -181 27
-35 61 -22 47 31 -31 51 -77 74 -85 106 -37 l23 33 -27 -28 c-35 -36 -52 -27
-104 56 -131 207 -217 440 -229 616 -23 329 24 545 171 795 94 160 155 192
225 118z m321 -57 c0 -5 -5 -3 -10 5 -5 8 -10 20 -10 25 0 6 5 3 10 -5 5 -8
10 -19 10 -25z m37 -127 c-3 -8 -6 -5 -6 6 -1 11 2 17 5 13 3 -3 4 -12 1 -19z
m-87 -428 c0 -5 -4 -10 -10 -10 -5 0 -10 5 -10 10 0 6 5 10 10 10 6 0 10 -4
10 -10z m-870 -270 c0 -5 -2 -10 -4 -10 -3 0 -8 5 -11 10 -3 6 -1 10 4 10 6 0
11 -4 11 -10z m365 -560 c9 -16 13 -30 11 -30 -3 0 -12 14 -21 30 -9 17 -13
30 -11 30 3 0 12 -13 21 -30z m-477 -638 c9 -6 5 -15 -14 -33 -14 -13 -30 -33
-36 -44 -6 -11 9 -2 32 20 24 22 36 30 28 17 -8 -12 -60 -61 -114 -108 -54
-48 -137 -121 -183 -163 -47 -42 -93 -77 -103 -77 -10 -1 -46 -31 -79 -68 -56
-60 -89 -82 -89 -56 0 6 5 9 12 8 7 -2 15 15 19 43 9 63 46 195 63 227 44 84
165 179 264 208 97 28 179 39 200 26z m1402 -2 c88 -14 148 -35 204 -70 73
-47 133 -157 152 -280 6 -34 9 -40 14 -25 5 13 10 -8 15 -58 11 -118 0 -120
-94 -17 -43 47 -123 123 -177 170 -204 177 -265 232 -275 252 -6 12 -7 18 -1
14 5 -3 12 1 16 9 6 18 53 19 146 5z m-691 -55 c70 -24 183 -123 144 -125 -5
-1 -21 -12 -38 -26 l-30 -26 33 16 c47 24 39 14 -22 -27 -30 -20 -79 -61 -108
-91 -30 -31 -63 -56 -73 -56 -10 0 -46 26 -79 58 -34 32 -74 68 -91 80 l-30
23 32 -15 c17 -9 59 -43 92 -76 33 -33 65 -60 70 -60 5 0 19 9 32 21 l24 20
-28 -17 -28 -17 -52 50 c-29 27 -73 67 -99 87 -29 23 -45 43 -41 52 7 20 124
111 164 129 44 18 76 19 128 0z m881 -309 c47 -46 110 -115 140 -154 30 -39
64 -75 75 -81 11 -5 14 -10 7 -10 -26 -2 -52 20 -89 76 -49 75 -166 192 -333
335 -74 64 -144 126 -155 139 -35 40 266 -219 355 -305z m-2816 214 c74 -11
206 -52 296 -93 30 -13 67 -29 81 -35 39 -16 99 -71 99 -92 0 -10 4 -20 10
-22 5 -1 13 -31 16 -64 7 -61 6 -62 -22 -72 -28 -10 -28 -10 14 -11 23 -1 42
-5 42 -11 0 -16 -53 -12 -116 10 -32 12 -124 37 -203 56 -248 61 -380 120
-456 205 -28 30 -26 30 16 -7 26 -21 62 -47 80 -57 31 -16 32 -16 9 0 -58 40
-130 120 -124 137 8 21 54 45 107 56 58 11 72 11 151 0z m3939 -12 c15 -6 27
-14 27 -18 0 -5 -16 -30 -36 -57 l-35 -48 40 42 c23 23 41 38 41 33 0 -5 -26
-36 -57 -68 -96 -96 -207 -144 -519 -221 -89 -22 -170 -43 -180 -46 -10 -3 -5
2 11 10 l30 16 -30 -5 c-17 -3 -37 -1 -45 5 -9 5 -10 9 -3 9 6 0 16 22 23 49
18 76 90 138 243 210 67 32 147 66 178 75 108 33 245 39 312 14z m-773 -43
c-19 -19 -41 -35 -49 -35 -9 0 -3 8 14 18 17 11 36 26 44 35 7 10 16 17 19 17
3 0 -9 -16 -28 -35z m-2606 -34 c-2 -3 -12 3 -22 13 -16 17 -16 18 5 5 12 -7
20 -15 17 -18z m234 -209 c-25 -26 -58 -67 -73 -90 -15 -23 -30 -40 -32 -38
-7 7 54 93 101 144 21 23 41 40 44 37 3 -2 -15 -26 -40 -53z m760 -72 c54 -23
122 -90 122 -120 0 -9 5 -21 11 -27 12 -12 -3 -80 -28 -122 l-15 -26 21 25
c11 14 26 40 32 58 6 18 13 31 16 29 2 -3 -5 -28 -17 -56 -26 -58 -83 -115
-146 -143 -59 -26 -201 -56 -301 -64 -76 -6 -85 -5 -125 19 -24 14 -81 67
-128 119 l-83 93 94 -91 c52 -51 104 -97 116 -103 12 -6 57 -10 100 -9 l78 1
-80 7 c-44 4 -92 12 -106 19 -14 7 -64 54 -111 105 -100 108 -101 115 -9 170
222 135 421 176 559 116z m969 -15 c104 -35 234 -95 266 -123 17 -15 15 -18
-30 -66 -26 -28 -37 -41 -23 -30 84 71 65 41 -39 -61 -167 -163 -157 -158
-266 -151 -49 3 -130 15 -178 26 -85 19 -193 66 -188 83 1 5 -9 23 -23 42 -47
61 -31 138 45 220 103 111 229 129 436 60z m738 -95 c-3 -5 -12 -10 -18 -10
-7 0 -6 4 3 10 19 12 23 12 15 0z m-2605 -104 c0 -2 -7 -6 -15 -10 -8 -3 -15
-1 -15 4 0 6 7 10 15 10 8 0 15 -2 15 -4z m2270 -6 c0 -5 -5 -10 -11 -10 -5 0
-7 5 -4 10 3 6 8 10 11 10 2 0 4 -4 4 -10z m125 0 c3 -6 -1 -7 -9 -4 -18 7
-21 14 -7 14 6 0 13 -4 16 -10z m895 -190 c37 -52 89 -113 115 -134 44 -36 63
-67 79 -126 4 -14 -6 1 -22 32 -15 32 -49 75 -75 98 -25 22 -69 73 -98 113
-29 40 -70 95 -93 122 -37 46 -37 48 -7 20 18 -16 64 -73 101 -125z m-360 40
c54 -28 198 -187 214 -236 7 -24 -43 -78 -68 -72 -26 5 -286 322 -272 331 16
10 85 -2 126 -23z m-3376 -2 c-27 -44 -257 -308 -268 -308 -24 0 -34 23 -25
56 11 39 177 217 228 244 41 22 76 26 65 8z m3313 -93 c38 -44 95 -112 126
-152 75 -93 82 -95 137 -49 20 17 19 14 -4 -12 -46 -50 -60 -45 -136 48 -25
30 -76 91 -113 135 -67 78 -126 155 -95 125 9 -8 47 -51 85 -95z m-3334 27
c-210 -256 -225 -272 -252 -271 -12 0 -11 2 5 9 11 4 47 41 79 81 71 88 205
239 211 239 3 0 -17 -26 -43 -58z m646 -14 c76 -78 186 -283 211 -393 6 -27
16 -52 22 -56 11 -7 0 -109 -16 -154 -7 -20 -7 -20 8 -1 9 11 19 35 22 54 5
24 9 30 15 20 7 -11 9 -11 9 1 0 8 2 12 5 9 11 -10 -25 -77 -55 -102 -29 -24
-39 -26 -117 -26 -160 0 -283 50 -393 160 -55 55 -133 170 -116 170 3 0 15
-19 27 -42 25 -48 147 -174 197 -201 48 -27 39 -17 -29 33 -108 79 -202 228
-201 319 2 70 21 136 47 161 26 24 222 78 291 79 34 1 47 -5 73 -31z m2288 5
c108 -6 119 -11 139 -70 25 -71 11 -161 -42 -265 -14 -27 -22 -48 -19 -48 10
0 49 88 76 170 29 90 40 81 13 -11 -29 -97 -84 -190 -159 -265 -113 -114 -236
-165 -395 -163 -47 1 -76 4 -66 6 17 4 15 7 -12 18 l-31 14 3 73 c2 40 12 96
21 123 34 101 177 345 234 399 32 31 105 50 128 33 6 -4 56 -11 110 -14z
m-1150 -195 c59 -24 99 -32 162 -36 53 -3 86 -1 90 6 7 11 218 39 227 29 3 -3
0 -25 -7 -48 -20 -70 -17 -435 4 -422 14 8 7 -15 -8 -27 -9 -7 -13 -15 -10
-18 3 -3 14 3 25 13 11 10 20 13 20 7 0 -14 -42 -36 -99 -52 -24 -6 -57 -25
-73 -41 -29 -29 -29 -29 -24 -121 6 -92 5 -93 -9 -48 l-15 45 5 -40 c3 -22 8
-51 11 -65 4 -20 3 -22 -5 -10 -32 45 17 -125 65 -226 100 -210 251 -381 443
-499 34 -21 61 -41 61 -46 0 -4 -15 -19 -32 -34 l-33 -26 35 16 c43 21 37 16
-70 -67 -144 -110 -260 -247 -311 -365 -25 -58 -35 -133 -21 -159 5 -10 6 -28
2 -39 -6 -17 -8 -16 -18 10 -7 22 -11 24 -11 10 0 -11 6 -31 14 -45 20 -35 19
-39 -17 -55 l-33 -14 28 -1 c53 0 18 -17 -50 -24 -150 -15 -273 -66 -339 -139
-32 -34 -35 -44 -30 -76 3 -20 1 -43 -4 -51 -8 -13 -10 -12 -10 4 0 11 -3 16
-6 13 -4 -4 3 -29 15 -56 26 -62 27 -77 0 -31 l-20 35 7 -35 c20 -103 82 -230
160 -326 24 -29 44 -56 44 -59 0 -3 -25 -19 -55 -36 -30 -17 -55 -32 -55 -34
0 -2 19 4 43 15 23 10 58 21 77 25 23 4 7 -6 -44 -29 -75 -34 -133 -69 -220
-136 -21 -17 -42 -30 -46 -30 -3 0 -37 25 -75 55 -38 30 -98 70 -134 90 -36
20 -55 33 -41 29 43 -11 116 -54 176 -105 57 -47 87 -59 98 -40 4 5 -2 7 -12
4 -12 -3 -35 10 -63 33 -24 20 -79 59 -121 86 -87 56 -87 57 -35 139 102 160
142 283 131 404 -8 84 -22 114 -71 152 -40 31 -82 56 -49 29 87 -70 111 -110
101 -164 -4 -24 -9 -31 -15 -23 -4 7 -5 22 -3 32 14 52 -34 112 -126 158 -71
36 -112 49 -203 65 -69 13 -70 14 -28 16 l45 2 -40 12 -40 12 -3 67 c-2 40 -7
65 -12 62 -6 -4 -10 9 -10 29 0 19 -10 64 -23 99 -48 131 -169 278 -340 411
l-87 68 22 17 c13 10 55 38 94 63 103 66 207 160 281 252 78 99 158 256 178
351 17 81 20 219 5 210 -6 -4 -10 13 -10 45 0 87 -28 121 -128 154 -28 10 -50
21 -47 26 3 4 10 54 16 111 7 75 7 104 -1 109 -8 5 -12 54 -13 143 l-2 135 90
-5 c56 -3 106 -13 132 -24 74 -33 172 -21 295 36 70 33 111 31 205 -7z m497
-69 c-10 -48 -13 -100 -10 -149 4 -52 3 -67 -4 -50 -6 18 -8 5 -5 -45 l4 -70
-10 55 c-14 71 -6 198 17 278 9 34 19 61 20 59 2 -2 -3 -37 -12 -78z m1690 -5
c3 -8 2 -12 -4 -9 -6 3 -10 10 -10 16 0 14 7 11 14 -7z m67 -125 c16 -34 29
-63 27 -65 -2 -2 -18 26 -36 61 -17 36 -30 65 -27 65 3 0 19 -27 36 -61z
m-3989 -16 c8 -10 34 -51 58 -92 23 -40 74 -107 113 -148 68 -71 70 -76 52
-89 -10 -8 -24 -14 -29 -14 -7 0 -7 -3 0 -8 7 -4 -29 -29 -90 -60 -69 -36 -91
-45 -71 -27 30 25 30 25 3 14 -42 -18 -54 -6 -72 73 -9 40 -31 111 -49 158
-28 72 -31 92 -24 127 13 68 75 105 109 66z m3327 -8 l30 -26 -34 -74 c-18
-40 -36 -84 -39 -97 -4 -13 7 6 24 41 40 85 48 73 10 -16 -16 -39 -39 -111
-50 -159 -11 -49 -25 -99 -30 -111 -12 -28 -39 -29 -71 -4 -13 10 -49 32 -79
49 -30 18 -51 32 -47 32 11 0 87 -39 119 -61 14 -11 33 -19 42 -19 19 0 36 31
35 62 -1 18 -3 16 -10 -10 -6 -18 -15 -35 -22 -38 -12 -4 -166 81 -189 104 -6
6 13 37 50 83 33 41 74 101 92 134 48 87 70 115 94 125 33 14 42 12 75 -15z
m711 -90 c0 -5 -5 -3 -10 5 -5 8 -10 20 -10 25 0 6 5 3 10 -5 5 -8 10 -19 10
-25z m-1813 -107 c-3 -7 -5 -2 -5 12 0 14 2 19 5 13 2 -7 2 -19 0 -25z m-2290
-110 c-3 -8 -6 -5 -6 6 -1 11 2 17 5 13 3 -3 4 -12 1 -19z m1184 -31 c18 -12
39 -34 46 -47 15 -30 17 -89 3 -110 -7 -11 -10 3 -10 46 0 52 -4 64 -25 84
-14 14 -38 30 -53 36 -16 7 -20 13 -11 13 9 1 31 -9 50 -22z m-1126 -125 c-3
-3 -11 0 -18 7 -9 10 -8 11 6 5 10 -3 15 -9 12 -12z m741 -1033 c161 -128 315
-342 313 -439 0 -14 -7 -1 -15 30 -36 135 -177 308 -362 443 -55 41 -71 62
-24 32 15 -10 54 -40 88 -66z m-1457 -514 c0 -29 -2 -36 -9 -25 -5 8 -9 51 -8
95 l1 80 7 -55 c5 -30 8 -73 9 -95z m-39 106 c0 -9 5 -56 11 -106 6 -49 12
-115 14 -145 8 -152 124 -407 259 -569 l37 -44 -38 -41 c-21 -22 -29 -33 -18
-25 11 9 31 22 45 29 15 7 10 -1 -15 -21 -101 -84 -131 -130 -114 -176 4 -11
3 -26 -2 -34 -7 -12 -9 -12 -9 0 0 8 -3 12 -6 9 -3 -4 1 -19 9 -35 8 -15 18
-44 21 -63 7 -35 7 -35 -9 -10 l-15 25 6 -30 c17 -83 145 -231 250 -287 138
-74 349 -101 503 -63 62 15 75 15 86 4 7 -8 29 -72 50 -144 49 -172 81 -231
185 -335 112 -113 145 -141 208 -180 75 -46 77 -53 30 -124 l-40 -61 41 45
c36 39 32 30 -28 -62 -76 -115 -75 -114 -196 -168 -192 -86 -365 -237 -442
-386 -61 -118 -77 -180 -70 -283 4 -54 3 -79 -3 -66 -8 19 -9 18 -11 -5 -2
-14 -6 16 -9 65 l-6 90 -2 -96 c-1 -61 3 -113 13 -145 18 -61 18 -66 -1 -34
-11 19 -14 20 -10 5 3 -11 10 -42 17 -70 18 -80 76 -188 134 -252 95 -104 229
-167 383 -179 l89 -7 37 -61 c21 -33 67 -111 103 -172 77 -133 173 -263 265
-360 38 -39 68 -74 68 -76 0 -3 -14 -11 -31 -18 -20 -9 -26 -16 -18 -20 7 -5
-10 -14 -42 -23 -113 -33 -204 -42 -424 -41 -183 0 -242 4 -350 23 -503 89
-964 332 -1341 706 -158 157 -332 382 -418 540 -31 57 -29 55 80 -111 184
-277 432 -531 699 -716 44 -30 87 -58 95 -62 16 -7 5 1 -110 83 -180 128 -385
320 -514 481 -147 184 -296 430 -381 630 -86 202 -162 465 -170 592 -3 38 -9
107 -15 152 -15 120 -13 442 5 590 39 329 146 656 310 943 156 273 450 634
676 827 94 81 129 99 129 67z m4859 -33 c85 -58 134 -103 244 -223 144 -158
282 -331 373 -467 86 -129 209 -371 259 -512 39 -107 91 -303 101 -379 4 -26
9 -47 13 -47 3 0 7 -10 7 -22 1 -13 6 -48 12 -78 26 -140 24 -471 -4 -686 -4
-27 -4 -47 -1 -44 11 10 37 296 38 417 1 87 3 107 9 78 17 -88 -13 -436 -55
-639 -114 -547 -390 -1045 -794 -1428 -402 -382 -913 -622 -1446 -679 -184
-20 -499 -1 -618 37 -14 4 -16 8 -7 14 9 6 7 10 -9 15 -11 3 -21 12 -21 18 0
7 25 41 56 77 102 119 194 250 279 400 26 47 68 113 92 146 l45 61 64 6 c189
18 387 151 464 312 16 33 35 87 43 120 17 66 32 252 19 220 -6 -14 -10 2 -14
56 -17 215 -169 451 -373 574 -40 25 -23 8 47 -44 167 -125 289 -321 304 -485
3 -39 0 -30 -15 35 -26 119 -86 231 -175 326 -98 105 -181 165 -321 234 -127
62 -149 79 -208 172 -54 83 -37 70 22 -16 27 -41 61 -81 75 -90 38 -25 42 -20
7 9 -17 14 -55 63 -86 110 -68 104 -66 112 47 191 199 139 277 255 350 522 36
130 60 139 298 117 171 -16 357 45 475 156 75 70 111 137 120 223 3 33 8 71
11 83 3 15 1 21 -6 17 -6 -4 -10 12 -10 45 0 51 -2 54 -70 124 l-70 73 50 57
c92 105 150 202 197 324 37 99 52 183 63 346 6 81 13 153 16 158 9 15 52 0
103 -34z m635 -258 c98 -127 232 -333 296 -452 28 -54 49 -98 46 -98 -3 0 -19
27 -36 59 -96 191 -256 423 -458 663 l-54 63 67 -70 c36 -38 99 -113 139 -165z
m-3636 -47 c-10 -2 -28 -2 -40 0 -13 2 -5 4 17 4 22 1 32 -1 23 -4z m1077 2
c-23 -8 -85 -10 -85 -3 0 4 21 8 48 7 26 0 43 -2 37 -4z m-940 -25 c13 -6 15
-9 5 -9 -8 0 -22 4 -30 9 -18 12 -2 12 25 0z m755 1 c-8 -5 -26 -11 -40 -15
-21 -5 -20 -3 5 9 32 15 60 20 35 6z m-1701 -118 c22 -23 32 -53 60 -176 18
-82 30 -151 27 -154 -3 -3 -1 -15 5 -27 6 -11 -3 -5 -20 14 -69 80 -153 300
-132 346 14 31 26 30 60 -3z m2696 -17 c-12 -58 -48 -161 -76 -218 -31 -62
-48 -80 -43 -45 2 12 8 60 14 107 17 121 49 187 94 187 14 0 16 -6 11 -31z
m15 -64 c-25 -75 -97 -229 -112 -238 -5 -3 6 25 25 63 19 37 50 115 68 172 19
57 35 96 37 87 2 -9 -6 -47 -18 -84z m-1774 43 l71 -33 -3 -38 c-1 -22 -16
-57 -34 -83 -30 -44 -30 -45 -3 -16 15 17 36 41 46 55 11 15 9 8 -5 -19 -65
-125 -296 -290 -468 -334 -69 -18 -90 -11 -153 54 -63 63 -53 63 18 -1 30 -27
60 -50 66 -50 5 0 -26 32 -70 72 -45 40 -78 74 -73 77 4 3 7 12 8 19 1 6 2 18
3 25 3 31 83 138 119 161 22 13 90 46 153 72 63 26 125 56 139 66 34 24 95 15
186 -27z m974 37 c0 -11 56 -37 165 -77 50 -18 106 -40 126 -49 37 -15 79 -63
101 -113 7 -15 16 -30 20 -33 11 -9 -9 -74 -33 -106 -20 -28 -20 -28 7 2 16
17 35 39 42 50 11 17 12 17 6 -6 -6 -26 -130 -150 -175 -175 -23 -12 -34 -12
-85 1 -67 18 -190 76 -261 125 -59 41 -148 124 -175 164 -12 16 4 5 33 -26 56
-59 123 -114 174 -143 30 -17 30 -17 5 1 -71 52 -145 119 -180 164 -35 44 -38
53 -29 77 6 15 29 46 52 70 22 23 35 42 27 42 -24 0 -1 13 47 26 55 14 133 18
133 6z m-1974 -104 c15 -46 40 -109 56 -140 15 -32 26 -58 23 -58 -13 0 -115
244 -115 276 0 19 13 -9 36 -78z m4868 -284 c3 -8 2 -12 -4 -9 -6 3 -10 10
-10 16 0 14 7 11 14 -7z m55 -119 c0 -5 -11 10 -24 35 -13 25 -24 50 -24 55 0
6 11 -10 24 -35 13 -25 24 -49 24 -55z m-1368 -29 c21 -34 25 -91 9 -101 -7
-4 -9 2 -4 18 9 39 -4 66 -60 126 l-51 55 44 -34 c24 -18 52 -47 62 -64z
m-2811 -16 c-8 -5 -19 -10 -25 -10 -5 0 -3 5 5 10 8 5 20 10 25 10 6 0 3 -5
-5 -10z m4210 -25 c0 -5 -5 -3 -10 5 -5 8 -10 20 -10 25 0 6 5 3 10 -5 5 -8
10 -19 10 -25z m-4270 1 c-31 -16 -88 -31 -77 -19 9 8 73 30 92 32 6 0 -1 -6
-15 -13z m1454 -17 c6 -5 -4 -5 -24 1 -18 5 -35 12 -39 16 -9 10 53 -6 63 -17z
m-1611 -6 c-7 -2 -19 -2 -25 0 -7 3 -2 5 12 5 14 0 19 -2 13 -5z m52 -3 c-27
-12 -35 -12 -35 0 0 6 12 10 28 9 24 0 25 -1 7 -9z m1625 0 c0 -12 -8 -12 -35
0 -18 8 -17 9 8 9 15 1 27 -3 27 -9z m47 4 c-3 -3 -12 -4 -19 -1 -8 3 -5 6 6
6 11 1 17 -2 13 -5z m-1107 -60 c0 -2 -13 2 -30 11 -16 9 -30 18 -30 21 0 2
14 -2 30 -11 17 -9 30 -18 30 -21z m505 20 c-28 -21 -55 -36 -55 -29 0 6 62
45 70 45 3 -1 -4 -8 -15 -16z m-1825 -5 c36 -5 108 -23 160 -39 52 -16 108
-31 123 -35 38 -8 44 -31 16 -62 -23 -24 -23 -25 -2 -15 11 7 31 24 43 39 13
18 17 21 11 7 -6 -12 -26 -35 -45 -52 -30 -26 -45 -31 -112 -37 -108 -11 -317
1 -389 20 -58 16 -135 51 -135 61 0 2 9 0 19 -6 37 -19 36 -10 -1 15 -41 28
-41 44 -2 70 59 39 195 54 314 34z m3391 1 c29 -6 64 -17 77 -26 l24 -16 -28
-31 -29 -31 30 19 c30 18 30 18 12 -2 -23 -27 -112 -69 -189 -91 -49 -13 -103
-17 -248 -17 -195 0 -224 6 -261 52 -10 12 -5 11 15 -5 16 -12 38 -22 50 -21
21 0 21 0 1 9 -38 15 -47 35 -26 54 31 28 243 89 381 110 52 7 139 6 191 -4z
m1799 -85 c0 -5 -5 -3 -10 5 -5 8 -10 20 -10 25 0 6 5 3 10 -5 5 -8 10 -19 10
-25z m-4016 6 c112 -49 204 -136 226 -217 10 -36 9 -48 -9 -89 -14 -31 -16
-43 -7 -36 8 6 19 25 26 42 7 16 15 28 17 25 11 -10 -40 -87 -81 -123 -58 -51
-138 -78 -212 -70 -55 6 -172 52 -161 64 4 3 -24 38 -61 77 -85 90 -137 189
-122 233 15 41 56 58 186 78 60 10 118 21 129 26 11 4 21 8 22 8 1 1 22 -8 47
-18z m973 -6 c216 -7 222 -12 175 -125 -17 -38 -28 -70 -26 -70 2 0 22 35 43
78 50 96 53 89 6 -14 -43 -93 -110 -190 -167 -238 -110 -94 -247 -118 -359
-63 -32 15 -63 35 -70 44 -10 12 -4 10 18 -5 47 -33 49 -26 2 18 -40 37 -41
42 -37 87 3 26 19 77 36 113 17 36 32 72 34 80 5 23 46 56 112 89 48 23 64 27
85 20 13 -6 80 -12 148 -14z m-1592 -159 c33 -50 222 -592 211 -604 -20 -20
-201 110 -258 186 -54 71 -67 113 -57 193 17 139 52 249 79 249 5 0 17 -11 25
-24z m251 -43 c21 -38 66 -96 100 -130 34 -35 58 -63 54 -63 -17 0 -137 141
-168 199 -18 34 -31 61 -29 61 3 0 22 -30 43 -67z m1806 40 c19 -23 48 -97 48
-123 0 -11 5 -20 10 -20 28 0 0 -156 -41 -230 -19 -35 -19 -35 0 -12 21 24 61
122 61 148 0 8 4 13 9 9 5 -3 11 0 14 7 2 7 2 2 0 -12 -8 -49 -72 -169 -115
-216 -23 -25 -70 -65 -103 -89 -67 -47 -105 -68 -63 -35 65 51 69 58 14 25
-33 -19 -63 -35 -67 -35 -9 0 -1 27 46 149 20 52 55 164 77 250 52 196 71 229
110 184z m-2365 -29 c-3 -3 -12 -4 -19 -1 -8 3 -5 6 6 6 11 1 17 -2 13 -5z
m2630 0 c-3 -3 -12 -4 -19 -1 -8 3 -5 6 6 6 11 1 17 -2 13 -5z m-2879 -21
c-10 -2 -26 -2 -35 0 -10 3 -2 5 17 5 19 0 27 -2 18 -5z m79 1 c-3 -3 -12 -4
-19 -1 -8 3 -5 6 6 6 11 1 17 -2 13 -5z m3061 -1 c-10 -2 -26 -2 -35 0 -10 3
-2 5 17 5 19 0 27 -2 18 -5z m-2864 -303 c5 -17 4 -20 -2 -10 -5 8 -13 26 -16
40 -5 17 -4 20 2 10 5 -8 13 -26 16 -40z m254 -103 c65 -67 220 -170 245 -163
14 3 17 2 9 -6 -5 -5 -19 -7 -31 -3 -38 12 -172 105 -221 154 -45 45 -110 143
-110 166 0 6 14 -15 31 -45 16 -30 51 -77 77 -103z m655 56 c-13 -2 -33 -2
-45 0 -13 2 -3 4 22 4 25 0 35 -2 23 -4z m790 0 c-13 -2 -33 -2 -45 0 -13 2
-3 4 22 4 25 0 35 -2 23 -4z m-232 -127 c127 -62 213 -81 310 -70 43 5 59 3
59 -5 0 -7 5 -9 12 -5 13 8 5 -73 -9 -87 -6 -6 -48 9 -104 35 -110 52 -162 66
-244 64 -59 -1 -59 -1 -15 -7 68 -9 -206 -19 -310 -11 -58 5 -71 7 -40 9 35 2
41 4 25 11 -11 5 -38 9 -60 10 l-40 1 55 27 c30 15 67 36 83 46 42 29 99 46
133 42 17 -2 82 -29 145 -60z m3356 -48 c-3 -8 -6 -5 -6 6 -1 11 2 17 5 13 3
-3 4 -12 1 -19z m-3987 -74 c-95 -45 -120 -50 -128 -25 -3 8 0 11 6 7 6 -4 12
5 14 21 4 34 26 41 128 41 l75 1 -95 -45z m1042 -12 c-6 -76 -23 -82 -109 -38
-81 42 -75 47 9 9 59 -26 61 -26 74 -8 8 10 14 29 14 41 0 21 10 58 14 52 1
-2 0 -27 -2 -56z m-1061 -22 c-46 -22 -93 -40 -105 -39 -15 1 -13 3 9 9 17 4
59 21 95 39 36 17 70 31 75 31 6 0 -28 -18 -74 -40z m-3364 -547 c-2 -16 -4
-3 -4 27 0 30 2 43 4 28 2 -16 2 -40 0 -55z m10 -65 c-3 -7 -5 -2 -5 12 0 14
2 19 5 13 2 -7 2 -19 0 -25z m10 -100 c-3 -8 -6 -5 -6 6 -1 11 2 17 5 13 3 -3
4 -12 1 -19z m2657 -363 c-4 -56 -1 -151 6 -215 7 -63 14 -144 16 -180 3 -57
26 -160 49 -212 11 -27 -17 -32 -78 -14 -116 34 -225 134 -267 245 -16 40 -17
59 -9 122 13 104 48 167 150 272 69 70 91 87 112 85 l27 -2 -6 -101z m30 -62
c4 -93 3 -153 -2 -153 -15 0 -24 139 -16 229 3 45 8 80 9 79 1 -2 5 -72 9
-155z m2395 138 c70 -36 161 -166 161 -231 0 -11 5 -20 10 -20 27 0 0 -162
-41 -242 -31 -61 -114 -144 -172 -173 -52 -26 -117 -34 -117 -14 0 6 9 54 20
107 26 132 41 324 33 453 -3 59 -3 114 0 123 9 22 59 20 106 -3z m-4515 -278
c25 -51 44 -93 41 -93 -5 0 -95 176 -95 186 0 13 7 1 54 -93z m3307 56 c28
-28 66 -113 80 -179 7 -30 16 -59 21 -65 13 -15 9 -187 -7 -271 -8 -43 -13
-79 -11 -82 5 -5 24 87 42 198 l13 85 -5 -89 c-8 -140 -65 -329 -136 -453 -46
-81 -73 -93 -103 -45 l-18 27 26 -24 c22 -20 29 -22 42 -11 9 7 21 23 26 34 8
17 7 16 -9 -3 -12 -15 -25 -22 -35 -18 -21 8 -80 125 -111 219 -30 91 -43 272
-26 368 23 136 79 272 126 309 34 27 58 27 85 0z m-1672 -159 c0 -9 -4 -8 -9
5 -5 11 -9 27 -9 35 0 9 4 8 9 -5 5 -11 9 -27 9 -35z m3071 -35 c-32 -97 -93
-179 -187 -255 -71 -56 -78 -66 -60 -71 20 -4 18 -6 -12 -17 -53 -19 -68 -16
-46 8 20 22 14 26 -16 10 -10 -6 -19 -9 -19 -7 0 2 37 27 83 55 138 85 232
206 252 324 5 27 10 37 17 30 7 -7 3 -32 -12 -77z m-2583 43 c-3 -7 -5 -2 -5
12 0 14 2 19 5 13 2 -7 2 -19 0 -25z m-235 -219 c28 -27 97 -77 154 -110 57
-34 101 -65 98 -70 -7 -13 -23 -11 -85 7 -40 12 -49 18 -35 23 15 6 9 14 -37
50 -100 77 -183 180 -202 251 -3 14 8 -3 26 -38 18 -34 54 -85 81 -113z m235
99 c-3 -8 -6 -5 -6 6 -1 11 2 17 5 13 3 -3 4 -12 1 -19z m2525 -145 c-11 -16
-35 -41 -54 -58 -37 -34 -36 -32 24 36 48 55 59 63 30 22z m-2777 -33 c21 -22
37 -40 34 -40 -3 0 -23 18 -44 40 -21 22 -37 40 -34 40 3 0 23 -18 44 -40z"/>
<path d="M5322 9738 c-7 -28 -11 -53 -8 -55 2 -2 9 19 16 47 7 28 10 53 8 55
-3 3 -10 -18 -16 -47z"/>
<path d="M5292 9633 c-6 -20 -10 -39 -8 -41 2 -2 9 13 16 33 7 20 10 38 8 41
-3 2 -10 -13 -16 -33z"/>
<path d="M5256 9535 c-9 -26 -7 -32 5 -12 6 10 9 21 6 23 -2 3 -7 -2 -11 -11z"/>
<path d="M5232 9475 c-17 -37 -14 -45 4 -12 9 16 14 31 11 33 -2 2 -9 -7 -15
-21z"/>
<path d="M5160 9330 c-6 -11 -8 -20 -6 -20 3 0 10 9 16 20 6 11 8 20 6 20 -3
0 -10 -9 -16 -20z"/>
<path d="M4069 8343 c-13 -16 -12 -17 4 -4 16 13 21 21 13 21 -2 0 -10 -8 -17
-17z"/>
<path d="M5839 7843 l-24 -28 28 24 c15 14 27 26 27 28 0 8 -8 1 -31 -24z"/>
<path d="M5260 7825 c0 -2 15 -12 33 -20 l32 -16 -25 20 c-24 20 -40 26 -40
16z"/>
<path d="M5746 7763 c-4 -4 -44 -10 -89 -14 l-82 -6 76 -1 c53 -2 81 2 95 13
10 8 16 15 13 15 -3 0 -9 -3 -13 -7z"/>
<path d="M6369 7303 c-13 -16 -12 -17 4 -4 16 13 21 21 13 21 -2 0 -10 -8 -17
-17z"/>
<path d="M6329 7253 l-24 -28 28 24 c15 14 27 26 27 28 0 8 -8 1 -31 -24z"/>
<path d="M6279 7203 c-13 -16 -12 -17 4 -4 9 7 17 15 17 17 0 8 -8 3 -21 -13z"/>
<path d="M5471 6934 c-12 -15 -21 -32 -21 -38 0 -6 6 -2 12 9 6 11 18 28 26
38 8 9 12 17 9 17 -3 0 -15 -12 -26 -26z"/>
<path d="M5442 6845 c0 -16 2 -22 5 -12 2 9 2 23 0 30 -3 6 -5 -1 -5 -18z"/>
<path d="M5775 5698 l-50 -53 53 50 c48 46 57 55 49 55 -1 0 -25 -24 -52 -52z"/>
<path d="M5689 5603 c-13 -16 -12 -17 4 -4 16 13 21 21 13 21 -2 0 -10 -8 -17
-17z"/>
<path d="M5610 5479 c-7 -11 -10 -23 -7 -25 2 -2 9 7 15 21 14 30 7 33 -8 4z"/>
<path d="M5575 5390 c-4 -17 -5 -34 -2 -36 2 -3 7 10 11 27 3 18 4 34 2 36 -2
3 -7 -10 -11 -27z"/>
<path d="M5570 5196 c0 -9 5 -16 10 -16 6 0 10 4 10 9 0 6 -4 13 -10 16 -5 3
-10 -1 -10 -9z"/>
<path d="M5134 4975 c-9 -14 -15 -27 -13 -30 3 -2 12 10 21 26 21 36 15 39 -8
4z"/>
<path d="M5111 4914 c0 -11 3 -14 6 -6 3 7 2 16 -1 19 -3 4 -6 -2 -5 -13z"/>
<path d="M5104 4258 l-19 -23 23 19 c12 11 22 21 22 23 0 8 -8 2 -26 -19z"/>
<path d="M6681 6994 c0 -11 3 -14 6 -6 3 7 2 16 -1 19 -3 4 -6 -2 -5 -13z"/>
<path d="M6671 6954 c0 -11 3 -14 6 -6 3 7 2 16 -1 19 -3 4 -6 -2 -5 -13z"/>
<path d="M2859 4403 c-13 -16 -12 -17 4 -4 9 7 17 15 17 17 0 8 -8 3 -21 -13z"/>
<path d="M2830 4361 c-5 -11 -9 -35 -9 -53 1 -32 2 -32 8 7 4 22 10 46 14 53
5 6 6 12 3 12 -3 0 -10 -9 -16 -19z"/>
<path d="M2830 4211 c0 -5 5 -13 10 -16 6 -3 10 -2 10 4 0 5 -4 13 -10 16 -5
3 -10 2 -10 -4z"/>
<path d="M4080 2910 c-6 -11 -8 -20 -6 -20 3 0 10 9 16 20 6 11 8 20 6 20 -3
0 -10 -9 -16 -20z"/>
<path d="M3600 2575 c-24 -25 -42 -45 -39 -45 3 0 25 20 49 45 24 25 42 45 39
45 -3 0 -25 -20 -49 -45z"/>
<path d="M3529 2493 c-13 -16 -12 -17 4 -4 16 13 21 21 13 21 -2 0 -10 -8 -17
-17z"/>
<path d="M3421 2299 c-6 -18 -11 -37 -10 -43 0 -6 7 7 15 28 8 22 12 41 10 43
-2 2 -9 -10 -15 -28z"/>
<path d="M3401 2224 c0 -11 3 -14 6 -6 3 7 2 16 -1 19 -3 4 -6 -2 -5 -13z"/>
<path d="M8522 2865 c0 -16 2 -22 5 -12 2 9 2 23 0 30 -3 6 -5 -1 -5 -18z"/>
<path d="M8506 2789 c-4 -23 -5 -44 -2 -46 2 -2 7 14 11 37 4 23 5 43 2 46 -2
3 -7 -14 -11 -37z"/>
<path d="M8492 2710 c0 -14 2 -19 5 -12 2 6 2 18 0 25 -3 6 -5 1 -5 -13z"/>
<path d="M8481 2664 c0 -11 3 -14 6 -6 3 7 2 16 -1 19 -3 4 -6 -2 -5 -13z"/>
<path d="M8471 2624 c0 -11 3 -14 6 -6 3 7 2 16 -1 19 -3 4 -6 -2 -5 -13z"/>
<path d="M8456 2574 c-4 -14 -5 -28 -3 -31 3 -2 8 8 11 23 4 14 5 28 3 31 -3
2 -8 -8 -11 -23z"/>
<path d="M8412 2433 c-12 -37 -20 -69 -18 -71 2 -2 14 27 26 63 12 36 20 68
18 70 -2 3 -14 -26 -26 -62z"/>
<path d="M8376 2335 c-9 -26 -7 -32 5 -12 6 10 9 21 6 23 -2 3 -7 -2 -11 -11z"/>
<path d="M8336 2235 c-9 -26 -7 -32 5 -12 6 10 9 21 6 23 -2 3 -7 -2 -11 -11z"/>
<path d="M8272 2095 c-23 -47 -40 -85 -37 -85 7 0 87 161 83 166 -2 2 -23 -35
-46 -81z"/>
<path d="M8190 1940 c-6 -11 -8 -20 -6 -20 3 0 10 9 16 20 6 11 8 20 6 20 -3
0 -10 -9 -16 -20z"/>
<path d="M8160 1890 c-6 -11 -8 -20 -6 -20 3 0 10 9 16 20 6 11 8 20 6 20 -3
0 -10 -9 -16 -20z"/>
<path d="M8029 1693 c-13 -16 -12 -17 4 -4 16 13 21 21 13 21 -2 0 -10 -8 -17
-17z"/>
<path d="M7999 1653 c-13 -16 -12 -17 4 -4 16 13 21 21 13 21 -2 0 -10 -8 -17
-17z"/>
<path d="M7919 1553 c-13 -16 -12 -17 4 -4 16 13 21 21 13 21 -2 0 -10 -8 -17
-17z"/>
<path d="M7844 1468 l-19 -23 23 19 c21 18 27 26 19 26 -2 0 -12 -10 -23 -22z"/>
<path d="M5949 4487 c-14 -12 -32 -31 -39 -42 -8 -11 5 -2 28 20 38 36 47 45
40 45 -2 0 -15 -10 -29 -23z"/>
<path d="M6064 3588 l-19 -23 23 19 c12 11 22 21 22 23 0 8 -8 2 -26 -19z"/>
<path d="M6014 3538 l-19 -23 23 19 c12 11 22 21 22 23 0 8 -8 2 -26 -19z"/>
<path d="M5157 1458 c-9 -29 -15 -54 -13 -56 2 -2 12 20 21 48 9 28 15 53 13
55 -2 3 -12 -19 -21 -47z"/>
<path d="M5126 1375 c-9 -26 -7 -32 5 -12 6 10 9 21 6 23 -2 3 -7 -2 -11 -11z"/>
<path d="M3870 1591 c0 -10 30 -24 37 -17 3 2 -5 9 -16 16 -12 6 -21 7 -21 1z"/>
<path d="M1679 12013 l-24 -28 28 24 c25 23 32 31 24 31 -2 0 -14 -12 -28 -27z"/>
<path d="M1619 11943 c-13 -16 -12 -17 4 -4 16 13 21 21 13 21 -2 0 -10 -8
-17 -17z"/>
<path d="M1589 11903 c-13 -16 -12 -17 4 -4 16 13 21 21 13 21 -2 0 -10 -8
-17 -17z"/>
<path d="M4470 11907 c0 -2 26 -21 58 -41 31 -20 45 -27 30 -14 -30 26 -88 62
-88 55z"/>
<path d="M5209 11613 c-13 -16 -12 -17 4 -4 16 13 21 21 13 21 -2 0 -10 -8
-17 -17z"/>
<path d="M5085 11488 l-40 -43 43 40 c39 36 47 45 39 45 -2 0 -21 -19 -42 -42z"/>
<path d="M4699 10939 c-16 -34 -29 -63 -27 -65 2 -2 18 26 36 61 17 36 30 65
27 65 -3 0 -19 -27 -36 -61z"/>
<path d="M4636 10805 c-9 -26 -7 -32 5 -12 6 10 9 21 6 23 -2 3 -7 -2 -11 -11z"/>
<path d="M4616 10755 c-9 -26 -7 -32 5 -12 6 10 9 21 6 23 -2 3 -7 -2 -11 -11z"/>
<path d="M4556 10574 c-4 -14 -5 -28 -3 -31 3 -2 8 8 11 23 4 14 5 28 3 31 -3
2 -8 -8 -11 -23z"/>
<path d="M4541 10514 c0 -11 3 -14 6 -6 3 7 2 16 -1 19 -3 4 -6 -2 -5 -13z"/>
<path d="M4532 10470 c0 -14 2 -19 5 -12 2 6 2 18 0 25 -3 6 -5 1 -5 -13z"/>
<path d="M4522 10420 c0 -14 2 -19 5 -12 2 6 2 18 0 25 -3 6 -5 1 -5 -13z"/>
<path d="M4512 10365 c0 -16 2 -22 5 -12 2 9 2 23 0 30 -3 6 -5 -1 -5 -18z"/>
<path d="M4503 10295 c0 -22 2 -30 4 -17 2 12 2 30 0 40 -3 9 -5 -1 -4 -23z"/>
<path d="M6060 8904 c63 -44 177 -173 209 -237 19 -37 40 -72 47 -78 15 -13
41 -1 69 33 l20 23 -27 -23 c-14 -13 -34 -22 -43 -20 -9 1 -31 28 -47 58 -63
113 -137 195 -223 244 -29 17 -29 17 -5 0z"/>
<path d="M3885 8808 l-50 -53 53 50 c48 46 57 55 49 55 -1 0 -25 -24 -52 -52z"/>
<path d="M2661 8734 c-12 -15 -21 -32 -21 -38 0 -6 6 -2 12 9 6 11 18 28 26
38 8 9 12 17 9 17 -3 0 -15 -12 -26 -26z"/>
<path d="M3520 8738 c0 -3 24 -21 53 -40 29 -20 74 -54 101 -77 27 -23 53 -40
59 -38 6 2 17 14 25 28 12 21 12 22 -1 7 -22 -27 -33 -23 -111 36 -79 59 -126
91 -126 84z"/>
<path d="M3800 8700 c-6 -11 -8 -20 -6 -20 3 0 10 9 16 20 6 11 8 20 6 20 -3
0 -10 -9 -16 -20z"/>
<path d="M2631 8664 c0 -11 3 -14 6 -6 3 7 2 16 -1 19 -3 4 -6 -2 -5 -13z"/>
<path d="M3775 8659 c-4 -6 -5 -12 -2 -15 2 -3 7 2 10 11 7 17 1 20 -8 4z"/>
<path d="M2984 7848 l-19 -23 23 19 c21 18 27 26 19 26 -2 0 -12 -10 -23 -22z"/>
<path d="M2949 7803 c-13 -16 -12 -17 4 -4 9 7 17 15 17 17 0 8 -8 3 -21 -13z"/>
<path d="M2919 7763 c-13 -16 -12 -17 4 -4 9 7 17 15 17 17 0 8 -8 3 -21 -13z"/>
<path d="M2762 7588 c-21 -23 -46 -77 -38 -85 2 -2 9 11 15 29 6 17 21 42 33
55 12 13 19 23 16 23 -2 0 -14 -10 -26 -22z"/>
<path d="M2634 7329 c-19 -39 -34 -73 -32 -75 2 -2 21 30 41 71 20 41 35 75
32 75 -3 0 -21 -32 -41 -71z"/>
<path d="M2541 7094 c0 -11 3 -14 6 -6 3 7 2 16 -1 19 -3 4 -6 -2 -5 -13z"/>
<path d="M2531 7054 c0 -11 3 -14 6 -6 3 7 2 16 -1 19 -3 4 -6 -2 -5 -13z"/>
<path d="M2522 6995 c0 -16 2 -22 5 -12 2 9 2 23 0 30 -3 6 -5 -1 -5 -18z"/>
<path d="M8060 6136 c0 -3 9 -10 20 -16 11 -6 20 -8 20 -6 0 3 -9 10 -20 16
-11 6 -20 8 -20 6z"/>
<path d="M1769 5963 l-34 -38 38 34 c20 19 37 36 37 38 0 8 -8 0 -41 -34z"/>
<path d="M1685 5849 c-9 -17 -15 -34 -13 -39 2 -5 11 9 20 30 20 47 15 53 -7
9z"/>
<path d="M1662 5770 c0 -14 2 -19 5 -12 2 6 2 18 0 25 -3 6 -5 1 -5 -13z"/>
<path d="M1969 5203 c-13 -16 -12 -17 4 -4 16 13 21 21 13 21 -2 0 -10 -8 -17
-17z"/>
<path d="M1919 5143 c-13 -16 -12 -17 4 -4 16 13 21 21 13 21 -2 0 -10 -8 -17
-17z"/>
<path d="M1630 4720 c-6 -11 -8 -20 -6 -20 3 0 10 9 16 20 6 11 8 20 6 20 -3
0 -10 -9 -16 -20z"/>
<path d="M1585 4640 c-9 -16 -13 -30 -11 -30 3 0 12 14 21 30 9 17 13 30 11
30 -3 0 -12 -13 -21 -30z"/>
<path d="M1482 4435 c-17 -37 -14 -45 4 -12 9 16 14 31 11 33 -2 2 -9 -7 -15
-21z"/>
<path d="M1446 4355 c-9 -26 -7 -32 5 -12 6 10 9 21 6 23 -2 3 -7 -2 -11 -11z"/>
<path d="M1416 4285 c-9 -26 -7 -32 5 -12 6 10 9 21 6 23 -2 3 -7 -2 -11 -11z"/>
<path d="M1386 4205 c-9 -26 -7 -32 5 -12 6 10 9 21 6 23 -2 3 -7 -2 -11 -11z"/>
<path d="M1311 3974 c0 -11 3 -14 6 -6 3 7 2 16 -1 19 -3 4 -6 -2 -5 -13z"/>
<path d="M1291 3904 c0 -11 3 -14 6 -6 3 7 2 16 -1 19 -3 4 -6 -2 -5 -13z"/>
<path d="M1281 3864 c0 -11 3 -14 6 -6 3 7 2 16 -1 19 -3 4 -6 -2 -5 -13z"/>
</g>
</svg>
