<?xml version="1.0" standalone="no"?>
<!DOCTYPE svg PUBLIC "-//W3C//DTD SVG 20010904//EN"
 "http://www.w3.org/TR/2001/REC-SVG-20010904/DTD/svg10.dtd">
<svg version="1.0" xmlns="http://www.w3.org/2000/svg"
 width="1280.000000pt" height="904.000000pt" viewBox="0 0 1280.000000 904.000000"
 preserveAspectRatio="xMidYMid meet">
<metadata>
Created by potrace 1.15, written by Peter Selinger 2001-2017
</metadata>
<g transform="translate(0.000000,904.000000) scale(0.100000,-0.100000)"
fill="#000000" stroke="none">
<path d="M5630 6141 c-159 -49 -269 -221 -316 -491 -23 -135 -15 -385 15 -490
32 -107 102 -251 170 -345 79 -110 79 -110 44 -92 -16 9 -45 18 -65 22 -30 6
-47 21 -103 91 -97 122 -165 165 -262 165 -101 0 -196 -74 -266 -209 -45 -86
-71 -173 -93 -306 -20 -123 -15 -122 -114 -20 -88 91 -167 129 -251 121 -134
-12 -242 -126 -304 -319 -20 -65 -23 -68 -78 -97 l-56 -29 -21 54 c-43 116
-70 353 -70 618 -1 454 -42 650 -174 828 -112 150 -251 240 -382 246 -98 5
-159 -16 -228 -79 -187 -171 -220 -527 -81 -880 5 -14 -5 -17 -77 -21 -62 -3
-98 -11 -141 -31 -186 -85 -301 -353 -267 -619 9 -75 8 -92 -5 -118 -18 -35
-44 -38 -114 -13 -44 15 -49 15 -81 0 -18 -9 -36 -17 -40 -17 -8 0 -66 80 -99
135 -12 22 -55 96 -93 165 -167 298 -309 441 -451 457 -111 13 -278 -59 -381
-163 -121 -122 -186 -290 -186 -479 0 -68 -5 -117 -16 -146 -10 -28 -13 -60
-10 -86 6 -46 49 -137 90 -192 14 -19 24 -36 23 -38 -2 -1 -32 2 -67 9 -49 8
-79 8 -127 -2 -74 -14 -126 -8 -206 25 l-59 23 5 -21 c3 -12 9 -40 13 -62 16
-97 98 -142 237 -131 40 4 133 9 207 11 l135 6 -25 -21 c-48 -39 -176 -99
-243 -114 -70 -16 -151 -62 -196 -110 -23 -24 -23 -27 -11 -85 8 -37 21 -68
35 -81 l22 -21 64 56 c51 44 80 60 144 81 44 14 90 32 102 39 l21 14 -19 -67
c-47 -165 -45 -343 7 -480 14 -37 27 -78 29 -91 2 -13 7 -27 12 -30 4 -3 27
-31 50 -62 84 -109 188 -160 333 -161 223 -2 366 129 487 447 17 44 56 154 88
245 60 172 137 348 182 413 31 45 66 65 116 69 36 2 46 -3 113 -65 l32 -29 7
31 c8 37 72 101 101 101 11 0 51 -18 88 -41 97 -59 145 -72 226 -67 90 7 177
48 339 163 68 48 144 98 169 111 44 24 112 33 112 15 0 -5 29 -43 64 -84 59
-70 116 -167 116 -199 0 -7 11 0 23 16 23 28 27 29 97 27 41 -1 82 -6 91 -11
9 -5 28 -44 44 -87 46 -131 104 -232 171 -298 71 -71 131 -104 309 -175 152
-60 235 -107 341 -193 115 -94 158 -126 170 -126 22 -2 41 44 63 147 36 167
105 352 226 602 159 330 186 413 205 639 11 134 22 153 84 150 41 -2 109 -30
121 -49 12 -20 22 -9 28 29 5 44 33 87 60 97 19 6 53 -12 88 -48 34 -36 113
-157 148 -226 34 -68 60 -102 76 -102 11 0 42 45 121 175 60 99 191 262 239
299 20 15 49 31 66 36 27 8 31 6 48 -28 10 -20 24 -60 31 -89 l13 -52 34 28
c31 26 38 27 81 20 50 -10 62 -21 62 -60 0 -50 31 -191 61 -282 17 -49 69
-173 115 -275 47 -102 100 -229 119 -282 43 -124 84 -307 92 -412 5 -67 9 -82
25 -86 10 -2 18 -11 18 -18 0 -31 58 -3 208 98 127 87 234 137 402 186 167 49
243 80 315 127 125 83 215 228 279 448 50 175 78 196 158 116 27 -27 51 -49
52 -49 2 0 7 12 10 26 8 29 92 112 135 131 76 35 193 -15 416 -178 287 -209
400 -232 613 -123 64 32 110 50 115 45 5 -5 12 -30 14 -55 3 -25 8 -46 12 -46
3 1 21 13 39 29 23 19 40 27 57 23 14 -2 43 3 65 12 22 9 54 16 70 16 88 0
180 -177 290 -554 64 -220 88 -284 152 -409 58 -113 122 -188 203 -236 50 -31
69 -36 173 -46 132 -14 233 -5 292 25 112 57 236 211 259 320 38 179 33 292
-19 469 -17 55 -30 103 -30 106 0 11 22 4 67 -24 27 -16 72 -37 102 -46 40
-13 71 -33 115 -77 33 -32 68 -57 76 -56 19 4 43 75 36 104 -15 58 -157 177
-227 190 -40 8 -144 56 -179 83 -30 24 -20 38 36 52 62 14 120 11 213 -12 139
-34 258 -12 280 51 15 46 14 80 -5 87 -11 4 -13 13 -9 34 l6 29 -44 -20 c-69
-31 -141 -42 -190 -29 -23 6 -57 13 -74 16 -18 3 -33 7 -33 10 0 3 16 37 35
77 53 110 69 287 39 434 -20 100 -59 184 -129 277 -71 94 -129 144 -226 195
-149 78 -266 86 -388 29 -90 -41 -218 -174 -353 -364 -156 -220 -284 -361
-296 -325 -3 8 -20 30 -39 49 -32 32 -37 33 -83 28 -33 -4 -50 -2 -53 6 -2 7
-2 64 1 127 7 173 -21 282 -100 401 -85 127 -179 196 -305 221 l-61 13 15 40
c81 219 103 345 85 485 -15 110 -40 180 -94 260 -56 84 -119 144 -186 177 -51
25 -67 28 -152 27 -80 0 -105 -4 -159 -27 -205 -86 -338 -236 -405 -457 -35
-116 -52 -221 -71 -445 -17 -201 -35 -333 -61 -452 -15 -69 -18 -74 -57 -95
-30 -17 -49 -37 -68 -75 l-26 -51 -21 27 c-11 16 -39 38 -63 49 -29 15 -61 46
-108 109 -78 103 -132 147 -208 169 -108 32 -231 -9 -344 -113 -32 -30 -59
-51 -59 -47 0 28 -32 198 -46 244 -36 122 -124 253 -213 320 -58 44 -133 65
-198 56 -104 -14 -235 -119 -317 -255 -33 -54 -41 -61 -70 -61 l-32 0 35 103
c36 102 36 102 36 282 0 293 -49 465 -182 642 -88 117 -173 172 -279 181 -150
12 -283 -93 -378 -299 -38 -82 -25 -88 -104 46 -134 228 -305 340 -452 296z"/>
</g>
</svg>
