<?xml version="1.0" standalone="no"?>
<!DOCTYPE svg PUBLIC "-//W3C//DTD SVG 20010904//EN"
 "http://www.w3.org/TR/2001/REC-SVG-20010904/DTD/svg10.dtd">
<svg version="1.0" xmlns="http://www.w3.org/2000/svg"
 width="1280.000000pt" height="1004.000000pt" viewBox="0 0 1280.000000 1004.000000"
 preserveAspectRatio="xMidYMid meet">
<metadata>
Created by potrace 1.15, written by Peter Selinger 2001-2017
</metadata>
<g transform="translate(0.000000,1004.000000) scale(0.100000,-0.100000)"
fill="#000000" stroke="none">
<path d="M8730 9694 c-112 -50 -141 -66 -174 -94 -20 -18 -36 -36 -36 -40 0
-4 125 -10 278 -11 l279 -4 89 -82 c49 -44 700 -693 1447 -1441 l1357 -1360 0
-253 c0 -140 4 -260 9 -267 16 -26 131 133 131 182 0 8 5 16 11 18 9 3 11 422
10 1647 l-2 1644 -38 38 -38 39 -1644 0 c-1466 0 -1648 -2 -1679 -16z"/>
<path d="M4460 9471 l0 -98 96 -5 96 -5 1332 -1329 c732 -731 1365 -1364 1406
-1407 l75 -78 3 -90 4 -89 99 0 99 0 0 1600 0 1600 -1605 0 -1605 0 0 -99z"/>
<path d="M590 9410 l0 -110 98 0 97 0 1393 -1392 1394 -1393 5 -107 6 -108 98
0 99 0 0 1568 0 1567 -37 40 -37 40 -1558 3 -1558 2 0 -110z"/>
<path d="M9202 5888 l3 -103 90 -3 90 -3 1413 -1412 1412 -1412 0 -87 0 -88
105 0 105 0 0 688 0 687 -917 918 -918 917 -693 0 -693 0 3 -102z"/>
<path d="M6090 5851 c0 -5 -13 -12 -30 -16 -51 -11 -194 -114 -179 -129 2 -3
132 -8 288 -12 271 -7 286 -8 307 -28 47 -46 2646 -2642 2747 -2744 l107 -109
0 -261 c0 -143 4 -263 8 -266 16 -10 81 69 121 148 l41 79 0 733 c0 638 -2
735 -15 748 -8 8 -15 20 -15 27 0 20 -77 113 -148 179 -37 34 -240 234 -452
443 -1077 1067 -1185 1171 -1234 1187 -20 6 -36 16 -36 21 0 5 -301 9 -755 9
-453 0 -755 -4 -755 -9z"/>
<path d="M1600 5813 c-114 -37 -260 -129 -244 -154 3 -5 131 -9 286 -9 l281 0
170 -167 c94 -93 1137 -1133 2317 -2313 l2147 -2145 6 -94 c4 -52 7 -172 7
-268 0 -95 4 -173 8 -173 23 0 122 147 122 181 0 9 7 19 15 23 23 8 23 1506 0
1550 -8 15 -15 33 -15 38 0 5 -21 42 -46 81 -37 58 -378 404 -1687 1713 -1621
1620 -1643 1642 -1718 1678 -42 20 -83 36 -91 36 -9 0 -29 7 -44 15 -25 13
-130 15 -764 14 -404 0 -742 -3 -750 -6z"/>
</g>
</svg>
