<?xml version="1.0" standalone="no"?>
<!DOCTYPE svg PUBLIC "-//W3C//DTD SVG 20010904//EN"
 "http://www.w3.org/TR/2001/REC-SVG-20010904/DTD/svg10.dtd">
<svg version="1.0" xmlns="http://www.w3.org/2000/svg"
 width="1280.000000pt" height="1280.000000pt" viewBox="0 0 1280.000000 1280.000000"
 preserveAspectRatio="xMidYMid meet">
<metadata>
Created by potrace 1.15, written by Peter Selinger 2001-2017
</metadata>
<g transform="translate(0.000000,1280.000000) scale(0.100000,-0.100000)"
fill="#000000" stroke="none">
<path d="M6095 12794 c-27 -2 -115 -8 -195 -14 -1261 -93 -2502 -583 -3500
-1384 -715 -573 -1298 -1291 -1709 -2106 -374 -738 -587 -1484 -668 -2335 -24
-254 -24 -859 0 -1110 34 -353 91 -692 168 -997 247 -988 722 -1894 1395
-2664 141 -160 451 -471 604 -604 1509 -1315 3526 -1848 5490 -1450 1091 221
2089 718 2950 1468 124 108 426 409 544 542 771 868 1289 1909 1505 3020 409
2113 -242 4251 -1755 5764 -1068 1069 -2434 1707 -3959 1852 -150 14 -756 27
-870 18z m615 -104 c908 -48 1740 -268 2533 -670 1521 -771 2667 -2127 3173
-3753 130 -419 217 -865 260 -1337 24 -255 24 -805 0 -1060 -76 -831 -280
-1556 -643 -2280 -318 -635 -681 -1139 -1182 -1641 -557 -557 -1182 -988
-1894 -1305 -1093 -488 -2324 -651 -3517 -468 -502 77 -987 213 -1475 414
-197 82 -618 296 -818 417 -1624 986 -2715 2633 -2982 4503 -45 322 -58 518
-58 890 0 370 12 563 58 890 241 1706 1176 3239 2592 4247 1146 817 2550 1226
3953 1153z"/>
<path d="M6085 12499 c-689 -39 -1323 -176 -1935 -419 -1836 -729 -3211 -2296
-3689 -4206 -73 -289 -131 -641 -163 -979 -17 -184 -17 -844 0 -1020 84 -852
279 -1534 643 -2255 873 -1728 2532 -2952 4436 -3270 573 -96 1200 -110 1768
-39 2150 266 3983 1630 4863 3620 251 567 412 1182 483 1844 30 280 33 902 6
1170 -35 345 -82 619 -158 924 -494 1987 -1957 3597 -3899 4290 -735 262
-1579 384 -2355 340z m835 -65 c645 -56 1262 -209 1857 -460 165 -69 512 -243
668 -334 1032 -604 1854 -1480 2386 -2541 341 -682 535 -1362 616 -2159 25
-247 25 -862 0 -1110 -48 -475 -136 -899 -273 -1321 -391 -1203 -1145 -2247
-2174 -3011 -1359 -1009 -3101 -1397 -4783 -1067 -1580 310 -2987 1256 -3882
2609 -493 746 -821 1606 -944 2480 -37 260 -52 450 -58 745 -11 573 44 1068
182 1615 422 1673 1555 3102 3092 3897 797 413 1632 633 2563 677 144 7 576
-5 750 -20z"/>
<path d="M6130 12200 c-1054 -61 -1956 -344 -2825 -888 -347 -216 -772 -557
-1025 -820 -283 -295 -429 -470 -628 -752 -53 -74 -123 -169 -156 -210 -119
-150 -237 -358 -301 -530 -15 -41 -54 -135 -86 -208 -376 -847 -545 -1716
-508 -2616 30 -746 190 -1448 481 -2106 33 -74 75 -180 95 -235 74 -213 186
-414 327 -587 44 -55 121 -155 170 -222 204 -280 400 -508 648 -753 283 -280
548 -497 868 -708 1169 -774 2543 -1097 3935 -925 882 110 1724 422 2470 915
330 219 575 417 859 695 268 263 464 489 662 765 44 61 110 146 148 190 147
172 284 413 360 630 19 55 61 161 94 235 476 1077 608 2319 371 3490 -81 398
-215 821 -376 1180 -36 80 -80 184 -98 232 -78 204 -167 364 -295 533 -42 55
-120 163 -175 240 -692 976 -1659 1713 -2779 2120 -472 170 -1031 288 -1541
324 -213 16 -533 20 -695 11z m-400 -109 c-414 -149 -773 -433 -1004 -793 -41
-65 -34 -62 -196 -78 -393 -38 -760 -188 -1065 -435 -154 -125 -322 -312 -414
-463 l-33 -52 -74 0 c-158 0 -427 -56 -605 -126 -186 -73 -399 -193 -521 -295
-26 -21 -49 -39 -53 -39 -8 0 102 144 215 280 361 433 781 808 1261 1123 727
478 1521 775 2404 897 193 27 204 24 85 -19z m590 31 c0 -36 -103 -174 -225
-301 -248 -257 -560 -439 -900 -525 -126 -31 -308 -58 -370 -54 l-47 3 64 89
c73 104 241 283 343 366 213 174 470 304 734 371 161 41 401 71 401 51z m324
-7 c530 -69 1028 -371 1317 -797 l42 -61 -84 7 c-405 34 -769 177 -1070 422
-127 103 -332 332 -378 422 -11 21 -10 22 23 22 19 0 87 -7 150 -15z m498 -5
c1430 -183 2754 -911 3677 -2019 104 -125 221 -276 221 -286 0 -3 -26 16 -57
42 -200 163 -504 310 -769 374 -107 25 -274 49 -350 49 l-61 0 -37 60 c-103
167 -276 362 -431 487 -325 262 -719 414 -1130 439 l-116 7 -61 89 c-231 337
-571 598 -963 738 -61 21 -102 39 -93 39 10 1 86 -8 170 -19z m-696 -124 c58
-122 117 -303 146 -447 20 -100 23 -143 23 -344 -1 -176 -5 -252 -18 -322 -35
-183 -111 -409 -166 -492 l-29 -44 -35 69 c-212 423 -245 954 -88 1418 43 125
104 256 119 256 2 0 23 -42 48 -94z m-275 -257 c-91 -338 -86 -716 14 -1061
14 -47 28 -93 31 -101 3 -8 -41 31 -98 87 -251 249 -540 414 -889 510 l-119
32 133 36 c319 86 624 260 852 484 50 49 91 88 93 88 1 -1 -6 -35 -17 -75z
m694 -149 c211 -158 461 -277 701 -335 38 -9 76 -19 84 -22 8 -2 -27 -16 -78
-29 -325 -85 -617 -250 -875 -494 l-84 -80 18 66 c10 36 28 122 40 192 29 162
31 452 5 607 -15 92 -56 268 -73 311 -4 11 33 -19 83 -65 49 -46 130 -113 179
-151z m1585 -430 c499 -102 916 -373 1202 -783 31 -45 57 -86 58 -91 0 -16
-230 3 -355 28 -207 43 -419 126 -600 234 -221 132 -447 356 -580 578 -19 32
-35 60 -35 64 0 10 211 -10 310 -30z m-442 20 c-11 -33 -147 -208 -226 -291
-270 -284 -625 -480 -1010 -559 -119 -24 -292 -38 -292 -23 0 18 68 123 128
195 290 355 726 602 1187 672 109 17 218 20 213 6z m-3393 -47 c-67 -104 -210
-268 -315 -360 -313 -277 -704 -446 -1104 -479 l-89 -7 32 46 c207 302 525
558 857 691 186 75 431 132 578 135 l58 1 -17 -27z m380 13 c317 -49 591 -160
848 -343 144 -103 347 -310 446 -455 l32 -48 -58 0 c-66 0 -204 20 -308 44
-276 64 -564 209 -791 398 -128 107 -284 281 -347 388 l-18 30 53 0 c29 0 94
-7 143 -14z m-220 -107 c45 -89 109 -274 133 -390 70 -326 51 -682 -53 -994
-45 -133 -115 -287 -129 -282 -20 6 -100 179 -139 297 -148 457 -120 947 80
1372 53 114 49 114 108 -3z m3365 -27 c211 -488 211 -1029 0 -1512 -53 -122
-49 -120 -104 -40 -57 82 -95 181 -136 345 -43 176 -53 287 -47 508 4 153 11
217 31 313 30 144 81 294 143 423 43 90 45 93 60 71 8 -12 32 -61 53 -108z
m-3641 -202 c-59 -189 -84 -396 -76 -629 7 -198 19 -270 83 -511 5 -19 -17 -2
-88 66 -208 200 -447 346 -728 442 -63 22 -142 45 -175 52 -77 17 -86 26 -35
34 67 11 228 64 340 114 240 105 436 240 614 421 44 44 81 79 83 78 1 -2 -7
-32 -18 -67z m3355 5 c-105 -346 -108 -765 -7 -1110 3 -12 -27 11 -73 55 -231
220 -546 395 -844 470 -47 11 -92 23 -100 26 -8 3 26 16 75 29 299 78 590 236
827 449 59 53 113 106 119 117 18 34 19 16 3 -36z m-2662 -190 c227 -172 484
-292 773 -361 29 -7 29 -7 -20 -21 -161 -45 -290 -92 -403 -148 -209 -103
-351 -204 -526 -374 -49 -47 -86 -77 -82 -66 63 177 104 487 91 680 -11 178
-53 410 -91 510 -4 11 30 -17 77 -63 46 -46 127 -116 181 -157z m3308 12 c216
-174 470 -303 731 -371 l94 -24 -45 -11 c-124 -31 -279 -89 -405 -151 -206
-101 -368 -215 -526 -371 -38 -37 -69 -66 -69 -64 0 2 13 55 29 117 81 315 83
661 5 970 -13 53 -24 99 -24 101 0 3 30 -26 68 -65 37 -39 101 -97 142 -131z
m-2180 -430 c0 -23 -67 -125 -134 -206 -265 -318 -652 -552 -1057 -640 -107
-23 -316 -47 -325 -38 -17 17 137 219 260 341 293 293 668 479 1090 541 123
18 166 18 166 2z m348 -2 c221 -31 414 -90 597 -182 296 -148 588 -401 686
-595 45 -89 52 -83 -86 -68 -551 64 -1078 383 -1369 833 l-18 27 43 0 c24 0
90 -7 147 -15z m-3739 -57 c-140 -208 -357 -414 -574 -548 -97 -60 -294 -152
-390 -183 -168 -54 -382 -96 -493 -97 l-44 0 48 68 c244 345 574 593 961 722
160 53 358 92 506 99 l28 1 -42 -62z m426 37 c478 -75 924 -342 1217 -730 51
-68 82 -124 74 -133 -4 -3 -60 0 -125 7 -552 57 -1045 346 -1369 805 -23 33
-42 64 -42 69 0 11 110 3 245 -18z m6705 -1 c487 -75 957 -366 1241 -768 27
-38 48 -71 46 -72 -2 -2 -55 1 -118 7 -514 47 -975 291 -1271 674 -67 86 -108
152 -108 175 0 11 57 7 210 -16z m-390 10 c0 -15 -135 -180 -215 -263 -308
-320 -703 -515 -1155 -571 -102 -12 -140 -13 -140 -2 0 22 144 197 239 293
298 297 632 465 1081 542 38 7 190 8 190 1z m149 -117 c122 -246 185 -598 161
-897 -13 -161 -46 -332 -90 -462 -35 -102 -119 -288 -130 -288 -12 0 -96 189
-129 290 -18 52 -44 151 -58 220 -25 114 -27 145 -28 355 0 234 6 298 46 455
29 118 67 226 117 332 35 76 48 96 58 87 7 -5 31 -47 53 -92z m-6731 -4 c183
-398 224 -840 117 -1264 -37 -146 -142 -409 -164 -409 -14 0 -91 176 -131 299
-71 217 -85 312 -85 586 1 221 3 250 28 366 14 69 43 172 63 230 39 114 113
279 124 279 4 0 25 -39 48 -87z m3362 -5 c125 -275 177 -538 167 -852 -8 -265
-65 -513 -157 -696 -56 -109 -52 -109 -108 10 -202 428 -227 917 -71 1385 37
111 102 245 119 245 4 0 26 -42 50 -92z m415 -379 c215 -165 458 -284 708
-349 62 -15 105 -31 97 -33 -8 -3 -46 -13 -85 -22 -331 -84 -656 -269 -904
-516 -41 -41 -71 -65 -67 -54 16 42 56 224 67 305 19 127 16 413 -4 546 -15
98 -68 310 -92 369 -5 11 43 -30 106 -90 63 -61 141 -131 174 -156z m2671 149
c-94 -325 -95 -738 -2 -1060 l23 -78 -86 83 c-166 160 -336 278 -536 373 -120
57 -284 115 -382 135 -35 7 -63 16 -63 20 0 3 19 9 43 13 76 12 310 96 423
151 197 97 478 304 575 422 13 17 25 29 27 28 1 -1 -8 -40 -22 -87z m-6720
-22 c-50 -174 -70 -324 -70 -536 0 -217 19 -359 73 -543 l29 -98 -96 93 c-259
251 -571 425 -900 504 -59 14 -114 28 -122 31 -8 3 37 18 100 33 295 74 565
211 800 408 52 43 120 106 150 138 30 33 56 59 58 58 2 -1 -8 -41 -22 -88z
m677 -150 c212 -165 472 -294 717 -356 47 -12 92 -24 100 -27 8 -3 -32 -18
-90 -33 -248 -66 -493 -187 -705 -349 -33 -25 -111 -95 -174 -156 -63 -60
-109 -101 -104 -90 15 30 59 206 79 315 24 131 25 476 1 610 -15 87 -57 262
-72 301 -3 9 32 -20 78 -66 47 -45 123 -112 170 -149z m2672 127 c-58 -224
-75 -539 -41 -763 15 -92 60 -286 82 -345 3 -11 -31 16 -77 61 -160 155 -302
257 -485 351 -154 80 -251 115 -474 174 l-45 12 93 23 c326 83 652 268 888
501 43 43 80 78 81 78 1 0 -9 -42 -22 -92z m4077 -150 c197 -147 488 -281 706
-323 34 -7 62 -15 62 -19 0 -3 -35 -14 -78 -24 -302 -72 -627 -257 -876 -496
-55 -53 -96 -87 -92 -76 74 203 113 557 87 800 -11 97 -52 309 -69 354 -3 9
37 -24 90 -73 53 -48 129 -113 170 -143z m-2236 -390 c-40 -104 -349 -426
-516 -540 -296 -200 -582 -302 -948 -338 -63 -6 -64 -6 -57 17 14 45 36 79
115 176 298 371 742 621 1220 687 52 7 117 13 144 14 41 1 47 -1 42 -16z m384
-4 c314 -51 642 -196 885 -392 103 -83 266 -251 337 -347 58 -78 93 -139 85
-146 -8 -8 -218 16 -327 37 -130 25 -315 86 -437 144 -318 150 -620 411 -729
627 -24 48 -44 91 -44 94 0 8 138 -3 230 -17z m2930 -64 c-267 -395 -713 -689
-1190 -784 -101 -20 -301 -43 -309 -35 -6 5 43 77 118 174 129 167 316 332
511 453 243 150 600 262 843 266 l78 1 -51 -75z m-6670 49 c0 -24 -131 -188
-238 -298 -319 -325 -728 -521 -1182 -565 -52 -5 -97 -8 -99 -6 -2 2 19 35 45
74 257 368 670 647 1113 750 153 36 361 62 361 45z m338 -9 c234 -33 418 -91
622 -196 275 -141 516 -349 683 -589 56 -81 63 -76 -92 -60 -423 45 -818 226
-1118 513 -97 93 -227 244 -261 306 l-23 41 43 0 c24 0 89 -7 146 -15z m-3359
-20 c375 -53 735 -220 1006 -467 125 -114 314 -332 315 -363 0 -8 -28 -8 -87
-3 -529 49 -1024 328 -1347 758 -31 41 -56 78 -56 82 0 12 53 9 169 -7z m9840
-73 c117 -232 181 -518 181 -807 0 -291 -65 -576 -182 -809 l-41 -81 -48 100
c-60 125 -113 283 -145 434 -20 90 -27 158 -31 301 -7 244 13 402 79 610 25
81 135 330 145 330 1 0 21 -35 42 -78z m-10046 -50 c188 -445 209 -901 62
-1338 -38 -113 -113 -284 -125 -284 -12 0 -86 174 -124 293 -67 203 -81 302
-81 572 0 275 15 374 86 587 47 141 115 292 128 284 5 -3 29 -54 54 -114z
m3346 50 c76 -151 142 -374 167 -567 20 -146 14 -423 -10 -560 -31 -170 -113
-416 -170 -510 l-25 -40 -45 95 c-230 488 -231 1071 -2 1573 21 44 40 75 46
72 6 -4 23 -32 39 -63z m3360 -8 c86 -124 158 -371 183 -628 31 -332 -55 -768
-195 -985 -38 -59 -42 -62 -55 -45 -45 61 -111 224 -152 376 -44 167 -60 296
-60 483 0 297 55 544 180 808 17 37 35 67 39 67 4 0 31 -34 60 -76z m-6264
-446 c192 -143 453 -268 678 -324 l108 -28 -120 -32 c-209 -57 -399 -143 -580
-262 -109 -71 -184 -133 -305 -251 -54 -53 -96 -87 -92 -77 47 135 89 365 101
546 11 180 -30 496 -85 654 l-20 59 112 -109 c62 -60 154 -140 203 -176z
m2634 143 c-87 -343 -78 -733 25 -1055 l25 -78 -97 94 c-179 174 -327 278
-544 382 -141 68 -267 114 -389 142 -83 19 -90 14 76 59 313 86 644 281 874
519 30 30 56 54 57 53 1 -1 -11 -53 -27 -116z m3345 29 c-51 -174 -67 -299
-67 -520 -1 -220 11 -320 58 -498 14 -52 25 -96 25 -98 0 -3 -30 25 -67 62
-234 232 -560 419 -874 500 -57 14 -111 28 -119 31 -8 2 35 17 95 33 144 37
236 70 370 136 192 93 407 247 549 393 28 28 51 49 52 48 1 -1 -9 -40 -22 -87z
m-2664 -140 c218 -166 478 -293 722 -352 54 -12 98 -25 98 -28 0 -4 -26 -11
-57 -18 -32 -7 -100 -26 -152 -43 -288 -94 -541 -244 -748 -443 -57 -54 -103
-96 -103 -93 0 3 13 59 29 124 42 171 55 287 55 473 0 184 -18 323 -62 492
l-28 106 85 -80 c48 -44 120 -106 161 -138z m6019 158 c-106 -352 -100 -750
18 -1133 3 -11 -37 21 -89 71 -109 104 -177 158 -300 238 -168 110 -447 229
-623 266 l-60 13 35 10 c254 70 373 115 529 202 163 90 338 223 456 344 27 28
50 51 51 51 1 0 -6 -28 -17 -62z m-2838 -14 c57 -61 200 -177 290 -236 182
-120 393 -214 592 -264 l108 -28 -118 -32 c-116 -32 -296 -100 -384 -144 -151
-78 -339 -211 -467 -333 -47 -45 -82 -73 -78 -62 4 11 18 61 31 112 73 283 74
648 2 933 -13 50 -20 90 -17 90 3 0 22 -16 41 -36z m3449 -469 c233 -638 343
-1264 344 -1965 1 -600 -74 -1118 -241 -1674 -47 -156 -148 -441 -183 -517
l-20 -44 5 40 c25 183 14 448 -26 645 -35 172 -109 378 -182 512 l-31 57 57
118 c240 503 258 1066 49 1581 -27 66 -62 142 -78 170 l-30 51 58 118 c148
303 217 664 189 987 -6 77 -14 152 -17 166 -9 46 46 -83 106 -245z m-10721
208 c-5 -27 -11 -118 -15 -203 -13 -322 56 -642 201 -930 l47 -93 -56 -116
c-260 -544 -260 -1164 0 -1698 l55 -112 -56 -114 c-138 -285 -204 -604 -192
-917 4 -80 9 -163 12 -185 l5 -40 -20 45 c-33 71 -144 383 -183 515 -365 1228
-321 2512 125 3700 79 210 92 234 77 148z m2216 -324 c207 -24 491 -118 673
-222 274 -157 517 -382 665 -616 l21 -34 -101 6 c-338 20 -723 168 -1008 386
-83 63 -246 222 -315 306 -57 71 -130 174 -130 186 0 7 67 3 195 -12z m3015
16 c0 -16 -48 -97 -89 -150 -63 -83 -212 -236 -297 -306 -237 -194 -532 -334
-830 -394 -124 -25 -304 -44 -304 -31 0 32 103 173 215 294 244 264 635 480
998 552 140 28 307 47 307 35z m390 -21 c469 -72 926 -345 1210 -724 23 -30
48 -68 57 -84 l15 -29 -86 6 c-437 34 -888 251 -1202 580 -87 91 -214 250
-214 269 0 10 77 4 220 -18z m-3740 10 c0 -14 -106 -157 -179 -241 -320 -366
-774 -590 -1295 -638 l-69 -6 18 28 c135 211 331 409 550 555 262 174 640 302
908 307 37 0 67 -2 67 -5z m6700 -1 c0 -4 -32 -49 -72 -101 -258 -339 -636
-587 -1053 -691 -94 -23 -275 -51 -334 -51 l-41 0 21 43 c30 58 118 167 214
262 282 281 650 466 1050 530 89 14 215 19 215 8z m368 -8 c436 -65 844 -287
1142 -620 75 -84 167 -211 159 -220 -8 -7 -173 13 -287 35 -371 73 -762 293
-1014 571 -73 81 -188 228 -188 242 0 11 82 8 188 -8z m-240 -62 c210 -421
244 -940 92 -1403 -40 -123 -115 -290 -130 -290 -24 0 -126 254 -164 408 -45
180 -51 237 -51 472 0 257 15 360 85 571 41 125 117 299 131 299 5 0 22 -26
37 -57z m-3325 -78 c192 -433 216 -900 71 -1353 -35 -108 -119 -262 -143 -262
-12 0 -86 171 -128 295 -110 328 -122 713 -32 1060 29 114 93 279 130 337 39
61 42 59 102 -77z m-3341 -93 c101 -252 147 -546 128 -817 -11 -147 -21 -213
-57 -350 -41 -157 -130 -375 -153 -375 -12 0 -90 177 -125 285 -40 122 -70
260 -84 397 -35 316 25 671 165 976 l36 77 30 -59 c16 -32 43 -93 60 -134z
m3703 -241 c226 -180 459 -299 726 -370 61 -17 113 -32 115 -34 2 -2 -31 -12
-74 -22 -315 -73 -642 -252 -884 -484 -43 -40 -78 -68 -78 -61 0 7 7 40 16 73
34 132 46 229 51 412 7 250 -13 393 -93 672 -4 15 19 -2 68 -51 41 -40 110
-101 153 -135z m2700 119 c-51 -179 -69 -319 -68 -535 0 -215 17 -344 66 -512
13 -46 23 -83 22 -83 -1 0 -38 36 -83 79 -250 243 -565 419 -904 506 -81 20
-89 24 -63 30 389 90 733 280 994 549 30 30 56 54 57 53 2 -1 -8 -41 -21 -87z
m-6696 10 c-11 -35 -32 -121 -46 -190 -25 -115 -27 -143 -27 -365 -1 -260 14
-381 68 -550 13 -41 22 -75 19 -75 -3 0 -14 12 -26 26 -43 55 -227 209 -342
287 -187 125 -393 218 -614 276 l-103 27 99 26 c345 91 651 267 902 522 47 47
86 84 88 83 1 -2 -7 -32 -18 -67z m7442 -202 c207 -148 441 -255 689 -317 l75
-18 -45 -12 c-139 -36 -173 -46 -260 -78 -256 -95 -483 -238 -682 -431 l-97
-94 20 68 c100 344 104 733 9 1071 -11 40 -20 76 -20 79 0 3 49 -40 108 -97
60 -57 151 -134 203 -171z m-6772 13 c213 -162 455 -280 707 -346 54 -14 99
-27 102 -29 2 -2 -16 -7 -40 -11 -90 -15 -298 -89 -423 -150 -207 -100 -347
-198 -509 -354 -54 -53 -96 -88 -93 -78 4 10 16 53 27 95 85 335 76 731 -25
1050 l-23 73 98 -94 c54 -52 135 -122 179 -156z m2660 154 c-98 -352 -80 -798
48 -1153 3 -9 -45 33 -108 94 -174 169 -339 284 -552 384 -104 49 -317 122
-395 135 -24 4 -41 9 -39 12 3 2 47 15 98 28 321 81 622 249 874 488 50 47 91
84 92 83 1 -1 -7 -33 -18 -71z m1841 -540 c0 -3 -13 -32 -30 -64 -61 -122
-250 -323 -425 -453 -287 -214 -614 -335 -1007 -373 l-57 -5 31 67 c40 87 91
154 203 268 262 263 577 436 947 519 134 30 338 55 338 41z m268 -6 c433 -47
814 -222 1123 -516 134 -128 315 -361 295 -380 -11 -12 -246 16 -361 42 -423
96 -812 334 -1066 655 -58 73 -129 184 -129 203 0 9 23 9 138 -4z m3077 -26
c-267 -418 -712 -725 -1205 -831 -107 -24 -318 -48 -327 -38 -10 9 96 160 179
254 249 285 610 502 985 593 107 25 250 47 327 48 l58 1 -17 -27z m-9631 -29
c392 -70 758 -269 1038 -563 79 -83 217 -256 218 -273 0 -12 -52 -9 -171 7
-435 57 -810 242 -1114 549 -104 104 -245 278 -245 301 0 13 148 2 274 -21z
m2910 4 c-9 -18 -43 -67 -74 -108 -308 -403 -790 -673 -1302 -729 -54 -6 -106
-11 -118 -11 l-20 0 20 40 c27 53 164 221 237 291 314 302 711 490 1133 538
41 5 90 9 108 10 l33 1 -17 -32z m366 11 c480 -65 945 -341 1249 -742 80 -106
79 -105 18 -100 -461 35 -905 244 -1229 581 -80 83 -218 257 -218 275 0 8 38
5 180 -14z m-222 -109 c169 -368 216 -790 131 -1185 -37 -177 -151 -465 -184
-469 -16 -2 -97 170 -134 283 -18 57 -45 158 -59 225 -24 111 -26 141 -26 361
0 222 2 249 27 365 27 131 73 276 114 370 31 71 72 140 82 140 4 0 27 -41 49
-90z m3339 22 c72 -130 139 -349 167 -543 33 -222 17 -512 -41 -734 -39 -152
-132 -381 -162 -399 -22 -14 -104 157 -156 326 -51 170 -66 271 -72 483 -8
282 24 482 116 722 35 94 94 203 110 203 3 0 21 -26 38 -58z m3362 -24 c181
-392 220 -839 111 -1262 -16 -61 -38 -136 -50 -166 -45 -114 -103 -240 -111
-240 -14 0 -94 176 -128 280 -67 206 -91 359 -91 585 0 243 32 425 112 645 32
88 104 240 114 240 3 0 22 -37 43 -82z m-10072 -15 c53 -115 106 -280 135
-423 20 -100 23 -144 23 -345 0 -257 -11 -343 -71 -542 -35 -117 -121 -323
-134 -323 -11 0 -79 153 -117 265 -63 186 -84 316 -90 545 -4 159 -2 229 11
315 18 118 63 302 97 387 32 84 92 208 99 208 4 0 25 -39 47 -87z m403 -376
c206 -165 472 -299 730 -367 58 -15 98 -30 90 -33 -8 -3 -53 -15 -100 -27
-318 -80 -629 -260 -883 -511 -60 -59 -106 -101 -103 -94 56 146 106 446 106
635 0 194 -48 480 -107 636 -4 10 36 -24 88 -76 52 -52 132 -126 179 -163z
m3401 -14 c125 -94 210 -145 354 -213 139 -67 208 -91 360 -130 61 -16 103
-31 95 -33 -8 -3 -40 -11 -70 -17 -88 -19 -267 -79 -365 -123 -200 -90 -389
-216 -548 -368 l-105 -99 19 62 c30 100 57 254 70 401 19 217 -9 474 -76 696
-14 47 -25 85 -25 86 0 2 44 -41 98 -94 55 -54 141 -129 193 -168z m6004 165
c-60 -189 -90 -425 -82 -633 8 -185 28 -304 83 -500 4 -12 -21 6 -62 46 -280
270 -566 427 -964 530 l-45 11 75 19 c360 90 681 271 929 523 47 47 86 84 88
83 1 -2 -9 -37 -22 -79z m-6729 -49 c-45 -175 -60 -300 -60 -499 1 -199 22
-361 69 -523 l23 -79 -62 59 c-280 272 -567 431 -966 534 l-45 11 75 19 c342
86 643 250 884 480 56 54 102 96 104 94 1 -1 -8 -45 -22 -96z m3986 -70 c207
-178 508 -332 788 -403 52 -13 88 -26 80 -29 -8 -2 -67 -19 -130 -36 -313 -87
-597 -249 -840 -480 -47 -44 -85 -81 -86 -81 -1 0 10 37 23 83 49 167 66 297
66 512 1 229 -18 368 -79 583 -5 17 8 9 49 -32 31 -30 89 -83 129 -117z m-632
87 c-42 -146 -70 -360 -70 -523 1 -160 34 -389 80 -543 5 -19 10 -36 10 -38 0
-2 -44 38 -99 89 -209 199 -457 347 -744 443 -59 19 -137 41 -172 48 -36 6
-63 13 -61 15 2 2 48 14 102 28 338 82 640 246 899 488 39 36 71 64 72 63 2
-1 -6 -33 -17 -70z m-1550 -621 c-37 -83 -107 -171 -232 -291 -267 -257 -598
-428 -963 -498 -65 -13 -258 -36 -296 -36 -26 0 77 151 181 266 272 301 656
519 1048 594 93 18 279 40 290 34 1 0 -11 -32 -28 -69z m365 54 c103 -12 287
-56 396 -95 280 -99 577 -300 776 -525 70 -79 170 -217 162 -223 -2 -2 -44 1
-94 6 -450 43 -861 241 -1181 569 -90 92 -224 259 -224 278 0 8 31 6 165 -10z
m-3685 6 c0 -19 -57 -112 -111 -180 -239 -303 -595 -541 -970 -649 -122 -35
-327 -67 -403 -64 l-65 3 71 100 c92 129 322 358 448 447 185 131 465 257 675
303 147 33 355 56 355 40z m347 -10 c484 -69 920 -318 1225 -698 43 -54 87
-116 98 -138 l21 -39 -58 5 c-393 38 -717 157 -1008 372 -151 112 -366 339
-458 486 l-17 27 47 0 c27 0 94 -7 150 -15z m6353 7 c0 -15 -124 -173 -194
-249 -236 -254 -578 -455 -921 -542 -132 -33 -395 -69 -395 -53 0 15 133 185
202 258 294 311 691 516 1118 578 112 16 190 19 190 8z m460 -28 c278 -55 543
-173 770 -343 111 -83 282 -253 366 -364 41 -54 74 -103 74 -109 0 -15 -127
-2 -278 28 -382 76 -731 267 -998 547 -91 94 -214 249 -214 269 0 15 128 2
280 -28z m-320 -69 c165 -346 217 -776 139 -1160 -26 -128 -88 -315 -143 -430
l-42 -90 -27 41 c-15 22 -45 84 -67 138 -171 417 -183 890 -34 1318 40 116
111 268 124 268 5 0 28 -38 50 -85z m-6624 -240 c148 -455 119 -946 -81 -1371
-23 -50 -47 -94 -52 -97 -14 -9 -51 64 -106 203 -53 134 -92 279 -112 423 -19
135 -19 392 0 526 31 208 111 455 185 571 l34 54 48 -100 c26 -54 64 -148 84
-209z m3269 193 c53 -116 108 -287 137 -432 20 -96 23 -142 23 -341 0 -198 -3
-245 -22 -340 -40 -193 -107 -392 -163 -475 l-29 -44 -44 94 c-185 397 -226
841 -118 1263 40 153 72 235 121 307 22 33 43 60 46 60 3 0 25 -42 49 -92z
m346 -313 c215 -181 478 -320 734 -390 55 -15 111 -30 124 -34 19 -6 3 -13
-76 -33 -335 -88 -626 -251 -887 -499 l-85 -80 19 67 c68 237 85 578 41 828
-19 110 -61 271 -87 341 -4 11 23 -14 61 -54 38 -40 108 -106 156 -146z m2725
74 c-53 -201 -60 -260 -61 -504 0 -149 5 -257 13 -305 14 -77 55 -249 68 -285
4 -11 -37 23 -92 75 -54 53 -139 126 -189 162 -190 141 -456 269 -678 325
l-108 27 103 27 c343 90 657 268 893 508 38 38 71 69 72 67 2 -2 -8 -45 -21
-97z m716 -145 c226 -170 505 -300 756 -352 45 -9 82 -19 82 -22 0 -3 -29 -11
-65 -18 -185 -35 -479 -160 -660 -280 -114 -76 -261 -199 -344 -288 -36 -38
-62 -60 -59 -49 3 11 18 60 32 110 55 185 70 301 70 535 0 230 -10 315 -59
503 -14 53 -25 98 -25 100 0 1 39 -36 87 -82 49 -46 132 -116 185 -157z
m-6728 -8 c213 -167 474 -293 754 -364 l73 -19 -58 -12 c-108 -24 -298 -92
-418 -151 -196 -95 -366 -215 -531 -375 -41 -40 -72 -65 -69 -55 56 176 86
382 86 589 0 191 -18 337 -61 498 -17 62 -30 113 -30 115 0 2 39 -34 86 -80
47 -45 123 -111 168 -146z m-705 129 c-93 -329 -87 -750 15 -1071 l24 -74
-100 95 c-169 161 -345 283 -538 373 -110 52 -276 111 -373 133 -32 7 -54 15
-50 19 4 4 48 17 97 29 285 70 612 254 840 472 56 54 102 96 103 95 1 -1 -7
-33 -18 -71z m3350 -20 c-36 -154 -51 -285 -51 -460 0 -222 28 -402 97 -623 5
-16 -16 0 -67 50 -251 248 -546 418 -890 512 l-118 32 77 19 c181 42 406 135
568 235 96 59 235 165 325 248 41 39 76 69 77 68 1 0 -7 -37 -18 -81z m2176
-516 c249 -30 534 -131 755 -268 232 -144 471 -377 574 -559 l35 -62 -57 0
c-124 1 -331 40 -507 97 -184 59 -437 200 -600 333 -84 69 -233 222 -296 305
-37 48 -99 153 -99 167 0 5 102 -2 195 -13z m-325 2 c0 -18 -101 -160 -173
-242 -267 -306 -635 -521 -1037 -607 -108 -24 -308 -47 -318 -38 -11 12 46
111 111 191 295 366 731 617 1192 689 105 16 225 20 225 7z m-3082 -26 c432
-30 910 -269 1216 -607 80 -88 186 -228 186 -245 0 -16 -14 -16 -138 -2 -540
58 -1045 355 -1351 793 -47 68 -50 78 -18 72 12 -3 59 -7 105 -11z m6417 -12
c-204 -316 -535 -582 -904 -727 -169 -67 -511 -139 -585 -125 -46 10 225 326
399 466 144 116 350 232 530 299 158 60 396 111 524 113 l53 1 -17 -27z
m-6705 9 c0 -16 -64 -108 -125 -182 -320 -383 -811 -639 -1299 -676 -104 -8
-103 -16 -8 112 163 221 407 426 655 550 205 104 379 158 637 197 48 8 140 7
140 -1z m-3013 -17 c342 -48 680 -195 943 -410 94 -77 255 -246 329 -345 74
-100 75 -98 -79 -80 -329 39 -644 165 -920 369 -140 104 -324 294 -419 434
l-32 47 38 0 c21 0 84 -7 140 -15z m-217 -88 c195 -415 223 -916 79 -1357 -39
-117 -110 -282 -125 -287 -12 -4 -94 163 -123 252 -64 196 -91 370 -91 589 0
236 26 400 95 605 30 91 113 281 122 281 2 0 22 -38 43 -83z m3359 7 c187
-379 232 -849 121 -1280 -35 -134 -85 -263 -133 -339 l-35 -56 -20 28 c-39 57
-109 236 -143 366 -39 153 -51 242 -56 422 -8 274 26 480 118 724 42 112 98
216 110 203 4 -4 21 -34 38 -68z m3330 37 c55 -77 135 -305 173 -491 20 -101
23 -144 23 -350 0 -267 -14 -364 -85 -580 -37 -114 -117 -300 -129 -300 -12 0
-60 87 -95 171 -84 204 -126 408 -133 646 -8 246 19 436 92 655 38 110 113
278 126 278 4 0 17 -13 28 -29z m3381 -55 c58 -125 107 -274 136 -410 35 -166
45 -469 20 -641 -25 -169 -78 -352 -141 -482 -29 -62 -57 -113 -60 -113 -11 0
-84 165 -119 271 -128 382 -126 800 3 1183 36 105 109 276 118 276 2 0 22 -38
43 -84z m-244 -203 c-28 -89 -56 -213 -71 -316 -19 -135 -19 -397 1 -538 14
-100 58 -290 79 -344 5 -11 -41 28 -101 86 -259 250 -545 411 -889 499 -60 16
-103 31 -95 33 8 3 38 10 65 16 323 73 676 272 925 521 52 53 97 95 99 94 1
-2 -4 -24 -13 -51z m-9431 -184 c213 -171 471 -302 725 -369 l105 -27 -45 -12
c-391 -102 -680 -263 -947 -527 -51 -51 -93 -89 -93 -84 0 4 9 33 20 66 33 96
69 289 80 434 16 214 -7 448 -64 653 l-24 88 86 -83 c48 -46 119 -109 157
-139z m3380 -21 c221 -167 435 -271 735 -356 l65 -18 -75 -19 c-327 -79 -647
-258 -909 -509 -35 -34 -61 -53 -58 -43 55 156 94 471 82 652 -11 176 -51 400
-91 510 -4 11 38 -23 92 -76 54 -52 126 -116 159 -141z m2665 161 c-60 -196
-89 -475 -71 -683 12 -138 38 -290 66 -381 8 -28 15 -54 15 -59 0 -5 -40 30
-89 77 -244 235 -567 414 -890 492 l-74 18 119 33 c328 89 629 263 869 501 39
38 71 69 72 68 1 -1 -6 -30 -17 -66z m-3364 -46 c-88 -335 -83 -724 13 -1032
l19 -61 -92 87 c-104 99 -255 214 -358 274 -166 97 -434 207 -549 225 -58 10
-55 19 8 33 307 69 661 265 898 498 44 43 82 77 84 76 2 -1 -8 -46 -23 -100z
m4069 -133 c160 -120 330 -212 515 -280 74 -27 128 -42 265 -75 26 -6 16 -11
-77 -36 -337 -89 -627 -253 -882 -499 -54 -52 -96 -86 -93 -75 68 225 90 372
91 605 0 205 -19 357 -64 516 -11 38 -20 70 -20 72 0 2 39 -33 88 -78 48 -45
128 -112 177 -150z m-2235 -400 c0 -61 -197 -297 -365 -438 -288 -241 -622
-389 -988 -437 -65 -8 -131 -15 -148 -15 l-29 0 29 59 c57 111 253 326 406
442 260 199 588 338 890 378 171 23 205 25 205 11z m360 -11 c385 -52 774
-247 1059 -530 96 -96 206 -230 235 -286 20 -40 26 -39 -138 -18 -421 55 -808
246 -1106 545 -96 96 -240 275 -240 299 0 13 28 12 190 -10z m-3704 -17 c-27
-52 -131 -186 -210 -270 -265 -280 -621 -478 -1004 -557 -136 -29 -337 -45
-331 -27 11 33 142 203 218 284 289 307 653 504 1067 577 60 11 146 20 192 20
l83 1 -15 -28z m454 -2 c277 -58 535 -174 760 -341 161 -119 367 -337 443
-470 l29 -49 -36 0 c-19 0 -88 7 -153 15 -540 71 -1008 355 -1328 809 l-49 69
115 -5 c63 -3 161 -16 219 -28z m6240 21 c0 -25 -136 -190 -249 -301 -239
-236 -495 -386 -821 -479 -148 -42 -430 -85 -430 -65 0 4 33 50 72 103 135
176 332 354 523 471 225 139 528 241 796 269 46 4 90 9 97 10 6 0 12 -3 12 -8z
m390 -17 c499 -76 949 -352 1251 -766 l49 -68 -62 0 c-130 0 -398 58 -553 120
-262 104 -497 261 -687 457 -93 97 -208 246 -208 269 0 16 40 14 210 -12z
m-3601 -106 c77 -164 133 -347 162 -533 21 -130 16 -438 -9 -575 -36 -196
-117 -440 -176 -527 l-25 -37 -50 105 c-132 276 -189 557 -178 869 9 225 46
411 123 609 29 73 92 191 102 191 2 0 25 -46 51 -102z m3356 12 c19 -37 52
-121 74 -186 150 -451 123 -950 -77 -1376 -25 -54 -48 -98 -52 -98 -9 0 -82
162 -111 247 -115 333 -131 736 -44 1076 43 165 147 423 167 411 4 -3 24 -36
43 -74z m-6724 -34 c226 -482 229 -1078 9 -1552 -20 -45 -42 -84 -47 -87 -22
-13 -125 250 -169 428 -29 119 -54 318 -54 431 0 189 36 413 96 591 36 108
108 273 119 273 3 0 24 -38 46 -84z m6478 -161 c-65 -193 -94 -383 -93 -610 0
-218 24 -373 91 -600 3 -11 -34 18 -83 66 -207 200 -422 338 -681 439 -105 41
-318 100 -363 100 -43 0 -7 16 65 29 99 19 318 93 427 145 211 102 396 233
552 390 56 56 102 102 103 101 1 0 -7 -27 -18 -60z m-2709 -202 c108 -84 218
-152 355 -218 167 -81 269 -115 515 -172 18 -4 3 -10 -60 -23 -355 -75 -702
-262 -973 -523 -43 -41 -76 -68 -72 -59 17 45 57 229 71 332 12 87 15 161 11
305 -5 198 -18 289 -63 453 -14 53 -28 106 -31 117 -4 11 35 -19 88 -70 52
-50 123 -114 159 -142z m3270 64 c237 -204 500 -344 792 -422 50 -13 92 -26
94 -28 2 -2 -42 -16 -99 -32 -210 -58 -407 -150 -592 -276 -106 -72 -281 -221
-333 -285 -18 -21 -32 -35 -32 -31 0 3 11 46 25 94 55 187 69 301 69 533 0
223 -10 310 -54 480 -36 137 -36 129 -5 93 14 -18 75 -75 135 -126z m-6732
-10 c167 -145 324 -246 511 -331 94 -42 255 -97 344 -116 31 -7 57 -16 57 -19
0 -3 -44 -17 -98 -29 -313 -75 -631 -257 -896 -511 -38 -36 -66 -58 -62 -48
15 45 47 181 63 272 12 74 17 154 17 305 0 219 -11 311 -58 490 -42 161 -42
150 -6 108 17 -20 75 -75 128 -121z m-567 66 c-55 -189 -75 -363 -68 -597 5
-187 18 -280 62 -443 14 -52 25 -97 25 -101 0 -3 -39 33 -87 81 -155 153 -301
257 -501 357 -117 59 -349 143 -429 156 -43 6 -60 24 -25 24 41 0 240 63 355
113 224 97 432 236 597 399 47 46 86 83 88 82 2 -1 -6 -33 -17 -71z m3334 -22
c-59 -225 -75 -529 -41 -760 15 -96 68 -314 91 -374 4 -10 -35 24 -86 76 -251
249 -563 431 -879 512 -58 15 -112 29 -120 32 -8 2 35 18 97 33 328 85 650
269 888 507 39 39 71 70 72 69 1 -1 -9 -44 -22 -95z m5195 -528 c0 -12 -68
-123 -103 -168 -289 -374 -744 -641 -1210 -709 -157 -23 -217 -26 -217 -13 1
25 139 205 234 304 302 317 672 509 1113 577 100 16 183 20 183 9z m-3359 -32
c-27 -50 -143 -195 -225 -279 -250 -259 -555 -437 -901 -526 -155 -40 -385
-69 -385 -48 0 32 170 241 281 346 301 284 677 460 1089 511 152 19 153 19
141 -4z m388 -7 c444 -64 887 -318 1181 -679 62 -76 131 -177 126 -182 -8 -8
-241 21 -349 43 -390 82 -743 288 -1026 599 -71 78 -171 217 -171 237 0 11 73
5 239 -18z m-6634 -19 c406 -82 785 -299 1051 -602 72 -83 174 -219 174 -232
0 -12 -200 8 -322 33 -362 73 -696 254 -962 521 -90 89 -201 227 -232 287
l-16 31 93 -7 c52 -4 148 -18 214 -31z m2861 -14 c-58 -114 -281 -347 -443
-464 -231 -165 -501 -280 -781 -333 -98 -18 -272 -33 -272 -23 0 12 69 111
126 180 66 80 218 229 299 290 261 200 573 335 875 378 41 6 86 13 100 15 14
2 46 4 73 5 l47 1 -24 -49z m432 24 c404 -71 764 -262 1047 -556 83 -87 225
-264 225 -281 0 -23 -239 8 -408 52 -338 88 -641 267 -887 521 -87 90 -188
217 -215 268 l-12 24 86 -7 c48 -4 122 -13 164 -21z m-279 -83 c108 -216 181
-537 181 -800 0 -260 -69 -564 -181 -799 -22 -46 -43 -83 -48 -83 -12 0 -96
184 -131 290 -78 230 -112 505 -92 734 19 211 62 397 131 563 34 83 88 166
102 157 5 -3 22 -31 38 -62z m3357 -14 c45 -90 109 -279 134 -399 65 -318 48
-646 -51 -954 -37 -118 -118 -305 -131 -305 -5 0 -29 42 -52 93 -164 350 -209
766 -126 1165 35 169 158 491 182 476 4 -3 24 -37 44 -76z m-244 -185 c-5 -10
-21 -63 -36 -119 -86 -331 -82 -696 12 -1027 l20 -68 -87 83 c-166 161 -320
270 -523 368 -123 59 -325 132 -405 145 -24 4 -43 10 -43 13 0 4 47 19 105 35
196 51 402 144 581 263 104 69 254 195 319 267 51 56 73 71 57 40z m-2742
-192 c208 -174 523 -331 785 -392 55 -13 82 -29 48 -29 -37 0 -254 -70 -358
-115 -238 -104 -416 -223 -597 -402 -49 -48 -88 -84 -88 -81 0 3 13 56 29 119
50 195 56 247 56 499 0 247 -12 339 -64 523 l-20 69 72 -69 c40 -37 101 -93
137 -122z m3375 -23 c212 -169 475 -300 736 -367 97 -25 110 -30 84 -36 -385
-88 -708 -262 -978 -526 -48 -48 -85 -79 -82 -70 19 48 66 250 79 343 21 138
21 407 0 545 -8 58 -27 154 -42 214 l-28 108 81 -77 c44 -43 112 -103 150
-134z m-4022 155 c-81 -266 -96 -631 -37 -923 13 -64 50 -197 71 -258 3 -9
-45 33 -108 94 -186 181 -368 305 -599 407 -104 45 -323 117 -360 117 -44 0
-24 17 33 29 109 22 279 81 402 140 206 99 371 211 527 361 46 43 84 79 85 80
0 0 -6 -21 -14 -47z m-2673 -157 c18 -22 175 -127 265 -178 254 -143 624 -247
882 -248 l61 0 33 -52 c89 -146 272 -352 414 -467 322 -261 688 -408 1100
-443 l132 -11 18 -31 c67 -114 229 -304 353 -413 203 -177 484 -337 710 -404
23 -7 40 -14 38 -16 -5 -5 -214 22 -375 48 -1348 219 -2611 946 -3488 2010
-117 142 -175 219 -165 219 5 0 15 -6 22 -14z m9128 -67 c-855 -1107 -2138
-1887 -3513 -2133 -140 -25 -433 -66 -464 -65 -9 0 31 17 89 38 206 74 358
156 529 284 179 134 359 326 471 503 l45 70 135 12 c611 54 1148 365 1484 860
l50 72 61 0 c33 0 99 5 145 10 351 44 682 174 950 374 41 31 76 56 78 56 1 0
-26 -37 -60 -81z m-4612 -376 c-15 -38 -100 -154 -178 -242 -242 -275 -579
-479 -948 -575 -112 -30 -285 -56 -364 -56 l-57 0 16 29 c32 62 144 201 245
302 199 200 401 332 664 434 177 69 418 122 565 124 55 1 62 -1 57 -16z m341
1 c518 -77 985 -361 1282 -779 41 -59 42 -60 19 -64 -44 -6 -234 21 -364 54
-352 88 -673 276 -922 539 -70 74 -202 243 -202 259 0 11 71 8 187 -9z m-3272
-29 c461 -93 873 -353 1154 -731 l81 -109 -31 -3 c-41 -4 -234 24 -334 49
-455 115 -844 383 -1115 770 l-43 62 84 -7 c46 -4 138 -18 204 -31z m6265 28
c0 -18 -149 -199 -232 -282 -307 -308 -686 -494 -1123 -551 -49 -7 -105 -10
-123 -8 l-34 3 63 84 c293 393 757 672 1229 740 41 6 86 13 100 15 46 6 120 6
120 -1z m-3223 -120 c116 -254 162 -456 170 -743 8 -265 -26 -474 -113 -708
-38 -100 -90 -212 -100 -212 -9 0 -89 179 -118 265 -69 202 -99 385 -99 610 0
266 46 495 147 733 24 57 66 132 74 132 2 0 19 -35 39 -77z m430 -395 c228
-171 460 -282 741 -352 l87 -22 -75 -18 c-204 -50 -441 -154 -621 -273 -122
-81 -294 -226 -358 -302 -24 -29 -45 -51 -47 -49 -2 2 8 44 22 93 106 384 90
833 -44 1184 -3 9 39 -29 94 -84 54 -55 145 -135 201 -177z m-707 87 c-58
-227 -74 -485 -45 -722 14 -112 57 -306 85 -377 8 -22 -15 -4 -97 75 -60 57
-146 132 -191 167 -208 156 -480 284 -717 337 -44 10 -83 21 -88 25 -4 4 29
14 74 24 324 70 699 276 933 515 39 39 71 69 72 68 1 -1 -10 -51 -26 -112z
m1836 -512 c-13 -32 -120 -174 -187 -248 -261 -286 -574 -477 -939 -573 -125
-33 -390 -72 -390 -57 0 13 90 136 161 222 179 214 442 407 712 521 191 82
379 126 636 151 8 1 11 -5 7 -16z m-2951 -54 c483 -81 913 -344 1210 -742 32
-43 55 -80 52 -83 -10 -10 -218 16 -336 42 -374 83 -694 263 -961 540 -80 83
-183 209 -214 262 -10 16 81 10 249 -19z"/>
</g>
</svg>
