<?xml version="1.0" standalone="no"?>
<!DOCTYPE svg PUBLIC "-//W3C//DTD SVG 20010904//EN"
 "http://www.w3.org/TR/2001/REC-SVG-20010904/DTD/svg10.dtd">
<svg version="1.0" xmlns="http://www.w3.org/2000/svg"
 width="1280.000000pt" height="1054.000000pt" viewBox="0 0 1280.000000 1054.000000"
 preserveAspectRatio="xMidYMid meet">
<metadata>
Created by potrace 1.15, written by Peter Selinger 2001-2017
</metadata>
<g transform="translate(0.000000,1054.000000) scale(0.100000,-0.100000)"
fill="#000000" stroke="none">
<path d="M6155 10534 c-1049 -65 -1959 -378 -2791 -961 -239 -167 -434 -331
-667 -561 -750 -740 -1257 -1682 -1461 -2713 -63 -314 -106 -736 -106 -1029 0
-293 43 -715 106 -1029 204 -1031 711 -1973 1461 -2713 233 -230 428 -394 667
-561 777 -544 1634 -857 2601 -949 168 -16 701 -16 875 1 778 71 1523 303
2175 677 1330 764 2253 2046 2554 3549 73 364 95 605 95 1025 0 420 -22 661
-95 1025 -301 1503 -1224 2785 -2554 3549 -278 159 -646 324 -955 426 -364
121 -819 216 -1210 250 -121 11 -593 20 -695 14z"/>
</g>
</svg>
