<?xml version="1.0" standalone="no"?>
<!DOCTYPE svg PUBLIC "-//W3C//DTD SVG 20010904//EN"
 "http://www.w3.org/TR/2001/REC-SVG-20010904/DTD/svg10.dtd">
<svg version="1.0" xmlns="http://www.w3.org/2000/svg"
 width="1280.000000pt" height="1015.000000pt" viewBox="0 0 1280.000000 1015.000000"
 preserveAspectRatio="xMidYMid meet">
<metadata>
Created by potrace 1.15, written by Peter Selinger 2001-2017
</metadata>
<g transform="translate(0.000000,1015.000000) scale(0.100000,-0.100000)"
fill="#000000" stroke="none">
<path d="M6160 10144 c-518 -35 -892 -104 -1325 -244 -1215 -393 -2236 -1230
-2865 -2348 -75 -134 -219 -436 -280 -586 -164 -409 -286 -893 -336 -1345 -34
-302 -34 -792 0 -1092 97 -868 408 -1685 911 -2394 745 -1049 1883 -1787 3140
-2034 360 -71 615 -95 995 -95 301 0 443 9 700 45 1576 222 2949 1159 3730
2547 75 134 219 436 280 586 164 409 286 893 336 1345 34 302 34 792 0 1092
-97 868 -408 1685 -911 2394 -272 383 -595 724 -967 1022 -781 624 -1712 997
-2728 1093 -119 11 -583 21 -680 14z"/>
</g>
</svg>
