<?xml version="1.0" standalone="no"?>
<!DOCTYPE svg PUBLIC "-//W3C//DTD SVG 20010904//EN"
 "http://www.w3.org/TR/2001/REC-SVG-20010904/DTD/svg10.dtd">
<svg version="1.0" xmlns="http://www.w3.org/2000/svg"
 width="982.000000pt" height="1280.000000pt" viewBox="0 0 982.000000 1280.000000"
 preserveAspectRatio="xMidYMid meet">
<metadata>
Created by potrace 1.15, written by Peter Selinger 2001-2017
</metadata>
<g transform="translate(0.000000,1280.000000) scale(0.100000,-0.100000)"
fill="#000000" stroke="none">
<path d="M9796 12765 c-5 -11 -41 -103 -82 -206 -526 -1332 -1380 -2655 -2598
-4024 -378 -425 -644 -703 -1416 -1480 -410 -412 -816 -828 -902 -923 -767
-842 -1170 -1546 -1342 -2347 -114 -526 -116 -1140 -5 -1760 24 -139 74 -369
98 -458 l19 -68 -117 -88 c-727 -547 -1469 -887 -2156 -990 -223 -34 -541 -41
-754 -17 l-113 12 -209 -204 c-115 -113 -208 -206 -206 -208 8 -9 458 49 712
92 1132 189 2102 592 2950 1227 l80 60 46 -16 c26 -10 49 -17 52 -17 3 0 0 20
-8 45 l-13 45 53 43 c52 43 53 43 111 36 107 -13 496 -10 645 6 574 60 1108
238 1618 538 544 320 1073 807 1521 1402 1121 1488 1786 3677 1980 6515 34
500 50 950 56 1560 5 599 -5 1261 -20 1225z m-236 -1845 c-18 -532 -43 -952
-81 -1380 -21 -241 -63 -643 -79 -750 -5 -36 -14 -101 -19 -145 -118 -891
-287 -1679 -528 -2460 -30 -99 -61 -196 -69 -215 -7 -19 -34 -96 -60 -170
-317 -914 -774 -1755 -1303 -2400 -782 -952 -1802 -1575 -2881 -1760 -150 -25
-407 -52 -470 -48 l-49 3 122 105 c157 135 648 624 808 805 718 810 1413 1806
2216 3175 239 407 690 1210 680 1210 -3 0 -49 -78 -103 -172 -254 -448 -602
-1009 -945 -1523 -793 -1190 -1564 -2149 -2350 -2920 -262 -257 -662 -616
-673 -604 -8 8 -63 268 -91 424 -94 535 -99 1085 -14 1540 142 766 516 1451
1228 2250 209 233 521 553 972 994 1396 1363 1952 1995 2548 2891 453 680 849
1456 1102 2157 l44 123 3 -408 c2 -224 -2 -549 -8 -722z"/>
</g>
</svg>
