<?xml version="1.0" standalone="no"?>
<!DOCTYPE svg PUBLIC "-//W3C//DTD SVG 20010904//EN"
 "http://www.w3.org/TR/2001/REC-SVG-20010904/DTD/svg10.dtd">
<svg version="1.0" xmlns="http://www.w3.org/2000/svg"
 width="1280.000000pt" height="958.000000pt" viewBox="0 0 1280.000000 958.000000"
 preserveAspectRatio="xMidYMid meet">
<metadata>
Created by potrace 1.15, written by Peter Selinger 2001-2017
</metadata>
<g transform="translate(0.000000,958.000000) scale(0.100000,-0.100000)"
fill="#000000" stroke="none">
<path d="M502 9504 c21 -192 102 -401 221 -564 163 -224 459 -404 749 -454
l86 -15 39 38 c42 42 108 67 151 56 23 -6 24 -9 19 -52 l-5 -46 72 7 c123 11
238 43 262 73 18 23 22 24 34 11 12 -12 21 -7 66 39 40 42 58 53 83 53 27 0
31 3 31 28 0 33 14 57 28 48 6 -3 16 -22 22 -41 l12 -35 31 22 c53 36 96 76
90 82 -13 13 -49 5 -61 -14 -17 -27 -41 -25 -52 5 -7 18 -17 25 -37 25 -37 0
-90 34 -105 65 -10 23 -17 25 -70 25 -57 0 -58 -1 -58 -28 0 -15 5 -33 11 -39
7 -7 8 -20 5 -30 -7 -17 -8 -17 -25 3 -9 11 -29 24 -44 28 -26 6 -27 5 -27
-37 0 -43 -21 -77 -47 -77 -6 0 -13 -18 -16 -41 -3 -22 -13 -49 -23 -60 -22
-25 -64 -26 -64 -1 0 35 -30 120 -45 125 -8 4 -12 1 -9 -7 3 -7 -4 -24 -15
-38 -18 -22 -31 -26 -100 -32 -69 -6 -87 -4 -127 13 -58 26 -58 26 -72 -4 -15
-33 -16 -32 8 -38 17 -4 20 -2 15 14 -5 14 -2 19 13 19 26 0 108 -35 117 -50
4 -6 -12 -2 -35 10 -55 28 -78 20 -76 -28 1 -30 -3 -38 -19 -40 -11 -1 -30 6
-43 18 -23 22 -79 29 -122 16 -19 -5 -35 -1 -61 17 -19 13 -48 27 -63 31 -37
9 -45 36 -18 54 15 10 22 25 22 46 1 42 28 100 79 164 24 30 41 55 39 57 -1 2
-31 14 -66 28 -146 60 -295 192 -365 324 -40 78 -77 203 -77 265 l0 38 -183 0
-183 0 8 -76z m357 -319 c-9 -9 -23 -13 -32 -9 -28 10 -19 24 15 24 29 0 31
-2 17 -15z m131 -185 c0 -5 -5 -10 -11 -10 -5 0 -7 5 -4 10 3 6 8 10 11 10 2
0 4 -4 4 -10z m242 -67 c25 -22 24 -63 -2 -63 -24 0 -53 41 -44 64 8 20 23 20
46 -1z m865 -226 c4 -8 16 -16 26 -20 24 -9 22 -59 -4 -83 -15 -14 -24 -16
-37 -7 -9 5 -17 16 -17 24 0 8 -11 16 -25 19 -34 7 -38 43 -8 64 27 19 54 21
65 3z m-239 -169 c-4 -29 -38 -38 -38 -10 0 22 8 32 27 32 9 0 13 -8 11 -22z"/>
<path d="M1224 9533 c7 -27 21 -63 30 -81 l17 -33 28 30 c17 18 43 32 66 37
35 6 41 4 72 -29 l33 -37 0 34 c0 19 8 40 19 50 18 16 18 18 -11 46 -29 30
-30 30 -148 30 l-118 0 12 -47z"/>
<path d="M1687 9558 c-19 -20 -37 -20 -92 -4 -11 4 -27 2 -35 -4 -13 -8 -12
-12 8 -25 30 -22 30 -80 -1 -126 -27 -40 -51 -47 -78 -23 -18 17 -19 16 -19
-22 0 -22 -7 -50 -16 -63 -14 -19 -14 -25 -3 -32 7 -4 18 -4 25 2 7 5 41 7 80
3 38 -3 94 -2 123 4 60 11 101 2 101 -22 0 -28 44 -1 52 31 4 17 15 36 23 43
14 12 64 10 96 -4 10 -4 37 9 77 39 55 39 62 48 56 70 -4 16 0 34 10 50 20 31
20 30 -6 31 -13 1 -45 7 -73 14 -27 7 -72 12 -99 11 l-49 -2 18 28 18 28 -25
-22 c-30 -28 -62 -29 -88 -3 -26 26 -79 25 -103 -2z"/>
<path d="M2145 9555 c0 -31 29 -34 45 -6 15 28 13 31 -17 31 -23 0 -28 -4 -28
-25z"/>
<path d="M9576 9568 c71 -121 177 -249 320 -388 145 -140 311 -268 594 -459
118 -79 206 -141 195 -136 -169 69 -231 72 -365 20 -50 -19 -109 -40 -133 -46
l-42 -13 65 -7 c36 -5 105 -18 154 -30 77 -19 102 -21 195 -14 58 5 142 9 186
9 l80 1 142 -89 142 -90 -27 -38 c-30 -41 -40 -45 -80 -24 -49 25 -225 84
-327 110 -479 123 -1010 67 -1473 -154 -613 -293 -1002 -797 -1067 -1382 -8
-73 -1 -98 29 -98 42 0 51 23 38 94 -18 95 -15 155 14 252 116 404 420 784
816 1022 536 322 1195 399 1785 208 62 -20 137 -48 168 -61 l55 -25 -16 -25
c-9 -14 -17 -25 -18 -25 -2 0 -35 11 -75 25 -100 34 -277 72 -393 84 -712 78
-1461 -254 -1833 -813 -115 -172 -182 -334 -218 -521 -33 -172 -28 -223 20
-213 16 3 18 17 18 143 0 128 3 147 29 220 225 638 822 1085 1558 1166 160 18
445 6 595 -26 140 -29 283 -72 283 -85 0 -5 -9 -24 -20 -43 l-20 -33 -72 18
c-157 40 -259 52 -448 52 -296 0 -496 -46 -755 -175 -300 -148 -514 -347 -673
-626 -267 -468 -261 -1019 15 -1448 87 -133 199 -244 348 -342 385 -254 865
-241 1192 34 l52 43 78 -29 c43 -16 105 -41 138 -55 33 -14 77 -26 99 -26 28
0 37 -4 33 -13 -3 -8 -1 -20 4 -28 11 -19 43 0 47 28 2 16 13 22 49 27 65 9
123 7 123 -3 0 -4 25 -33 54 -62 49 -48 55 -59 57 -99 1 -25 -1 -53 -6 -63 -5
-13 -4 -16 9 -11 9 3 16 17 16 30 0 26 27 33 48 12 20 -20 14 -38 -12 -38 -23
0 -24 -2 -14 -30 5 -17 8 -41 6 -54 -4 -20 0 -25 21 -29 15 -3 33 1 42 9 8 8
25 14 36 14 33 0 37 57 6 88 -13 13 -23 25 -21 26 84 60 89 58 94 -41 2 -37 5
-81 7 -98 l2 -30 -120 -1 c-121 -2 -187 -12 -253 -39 -24 -11 -39 -12 -46 -5
-11 11 -56 14 -56 4 0 -4 7 -12 16 -18 13 -10 10 -15 -18 -36 -18 -13 -27 -16
-19 -7 19 24 6 71 -17 61 -9 -4 -25 -7 -35 -8 -41 -1 -26 -66 16 -66 16 0 10
-11 -34 -58 -30 -32 -64 -69 -76 -82 -12 -14 -29 -31 -38 -39 -9 -7 -14 -19
-11 -27 3 -7 -3 -46 -13 -86 -16 -61 -20 -68 -26 -47 -13 39 -9 141 8 180 8
20 31 55 51 77 20 22 36 42 36 45 0 11 -86 -6 -122 -25 -61 -30 -92 -87 -97
-175 -4 -87 14 -145 63 -202 20 -23 9 -16 -31 21 -106 96 -173 106 -286 41
-44 -26 -189 -145 -183 -151 2 -1 20 5 41 14 54 22 172 29 247 15 35 -7 98
-27 141 -43 74 -30 77 -32 61 -50 -10 -10 -24 -16 -33 -13 -9 2 -35 5 -58 7
-26 1 -44 7 -48 16 -4 12 4 14 42 9 27 -3 59 -8 73 -11 14 -3 -9 6 -50 20
-107 37 -220 42 -328 15 -73 -18 -297 -100 -290 -106 2 -1 59 1 128 6 98 6
151 15 245 43 134 40 147 42 139 21 -6 -15 -220 -89 -292 -101 -49 -8 -47 -19
5 -27 21 -4 78 -26 126 -50 85 -42 87 -44 62 -55 -14 -7 -59 -12 -99 -12 -41
0 -120 -5 -177 -10 -440 -43 -815 -172 -1190 -410 l-105 -67 -63 54 c-425 364
-846 331 -1277 -102 -241 -241 -415 -563 -500 -923 -13 -57 -27 -137 -31 -178
-3 -41 -9 -71 -13 -67 -4 4 -15 39 -25 78 -57 218 -210 501 -380 706 -102 122
-258 264 -379 344 -349 232 -661 288 -925 165 -250 -117 -492 -427 -616 -789
-25 -74 -47 -137 -49 -139 -3 -2 -33 18 -68 45 -408 317 -1101 428 -1704 274
-102 -26 -258 -80 -349 -121 -49 -22 -79 -30 -99 -26 -20 4 -36 1 -50 -11 -20
-18 -20 -18 -3 10 10 16 15 36 12 47 -8 25 27 60 60 60 18 0 60 30 140 99 295
255 496 401 695 505 72 38 97 55 89 63 -6 6 -8 16 -4 23 5 8 11 6 19 -6 12
-16 18 -15 87 14 61 25 75 35 77 55 4 31 36 61 57 53 27 -10 13 -41 -18 -39
-15 1 -27 -2 -27 -7 0 -17 17 -19 49 -7 26 10 31 17 32 47 2 32 3 48 8 74 0 6
10 0 21 -12 12 -12 26 -22 31 -22 7 0 9 -10 5 -25 -4 -14 -3 -25 0 -25 8 0
148 41 152 44 1 2 -5 18 -15 36 -15 31 -17 32 -24 12 -18 -49 -89 -64 -89 -18
0 11 -3 31 -6 44 -5 17 -3 21 9 16 9 -3 24 -1 34 5 16 9 15 10 -10 11 -35 0
-218 -59 -345 -111 -118 -49 -352 -169 -352 -181 0 -5 9 -4 21 2 23 13 41 4
20 -9 -15 -10 -11 -53 6 -58 6 -2 13 6 16 19 4 21 4 20 6 -4 2 -39 -40 -66
-73 -48 -13 7 -30 23 -37 36 -7 13 -16 24 -21 24 -12 0 -139 -85 -258 -173
-164 -122 -260 -205 -433 -378 -178 -179 -185 -179 -35 -4 180 209 409 412
633 560 119 79 322 195 343 195 6 0 12 5 12 10 0 18 -20 11 -128 -45 -142 -73
-324 -188 -337 -212 -6 -11 -15 -18 -21 -16 -13 4 -123 -79 -256 -194 -111
-96 -229 -218 -336 -348 -41 -49 -78 -94 -83 -99 -5 -6 9 44 32 110 22 65 42
141 44 168 1 31 9 54 19 61 9 7 47 99 85 206 131 372 259 658 380 851 34 53
61 105 61 116 0 22 45 82 62 82 6 0 52 39 103 88 101 96 172 142 264 174 58
20 60 21 46 42 -20 27 -19 66 0 66 8 0 24 5 34 12 17 10 17 14 5 44 -17 40
-18 98 -3 126 10 19 8 20 -32 16 -39 -3 -44 -1 -49 22 -3 15 -14 26 -27 28
-11 2 -32 16 -47 31 l-27 29 -52 -26 -52 -26 35 -6 c33 -5 35 -7 34 -45 0 -22
-4 -66 -9 -97 -11 -80 -2 -104 46 -129 l41 -21 -58 -51 c-32 -29 -66 -53 -76
-53 -27 -2 -48 -24 -48 -50 0 -25 -34 -54 -63 -54 -10 0 -21 10 -26 22 -6 18
-9 19 -14 5 -4 -10 -16 -17 -27 -17 -18 0 -20 6 -20 55 0 44 3 53 15 49 8 -3
17 -15 21 -26 11 -37 16 -10 9 56 -7 62 -10 67 -50 101 l-43 35 -43 -68 c-25
-39 -43 -80 -43 -97 -1 -20 -6 -30 -16 -30 -8 0 -23 -17 -32 -39 -22 -46 -22
-46 -3 -46 17 0 20 -36 6 -59 -5 -7 -20 -14 -34 -14 -23 0 -29 -9 -65 -106
-63 -168 -192 -648 -192 -714 0 -9 -4 -18 -8 -21 -4 -2 -4 32 1 77 4 45 16
222 26 392 l19 310 -24 26 c-13 14 -24 33 -24 43 0 28 19 56 39 56 16 0 19 16
30 133 7 72 21 190 32 261 10 71 19 130 19 131 0 1 -19 5 -42 9 -23 4 -50 14
-60 23 -22 20 -23 61 -2 92 14 20 22 22 57 17 23 -4 47 -12 54 -18 14 -11 15
-10 33 59 10 38 8 46 -11 72 -12 16 -19 35 -16 43 2 7 -4 28 -15 46 -16 25
-17 32 -5 32 7 0 22 -9 31 -19 32 -35 54 -14 97 95 22 54 42 122 46 149 6 59
26 95 52 95 10 0 31 17 46 38 16 20 46 56 69 79 31 34 37 46 28 55 -7 7 -12
32 -12 58 l0 45 -20 -33 c-26 -43 -62 -59 -100 -45 l-29 11 -3 -46 c-2 -28 -9
-49 -19 -55 -20 -13 -88 0 -95 18 -9 21 37 135 53 135 11 0 13 7 9 25 -9 37
11 103 42 134 17 16 27 38 28 58 0 18 -3 30 -7 27 -19 -11 -104 -135 -134
-194 -81 -161 -152 -440 -139 -550 5 -50 4 -60 -15 -79 -32 -32 -68 -37 -99
-14 -21 15 -31 17 -44 10 -12 -8 -23 -6 -42 6 -14 10 -26 14 -26 10 1 -77 23
-290 31 -300 7 -7 9 -26 4 -45 -8 -42 -10 -73 -7 -179 2 -81 3 -86 27 -97 14
-7 25 -20 25 -31 0 -22 -25 -45 -40 -36 -18 11 -12 -91 6 -106 37 -31 39 -83
3 -94 -17 -6 -19 -17 -19 -128 0 -67 -5 -216 -10 -331 -8 -187 -7 -211 7 -221
16 -12 9 -40 -7 -30 -9 6 -13 -15 -30 -185 -16 -150 -46 -313 -86 -475 -35
-144 -135 -468 -141 -461 -2 2 12 64 31 137 87 329 146 684 161 960 3 63 8
124 11 137 4 19 0 22 -26 22 -18 0 -30 5 -30 13 0 19 21 37 44 37 19 0 19 6
13 218 -8 264 -15 326 -33 311 -19 -16 -70 15 -82 51 -9 24 -8 33 5 45 17 17
38 15 38 -3 0 -13 44 -47 51 -39 3 2 -2 12 -11 21 -13 12 -15 26 -9 63 6 44 6
47 -10 34 -25 -21 -31 -6 -19 42 14 50 -2 77 -41 70 -16 -3 -29 3 -44 21 -16
21 -21 23 -26 11 -15 -40 -77 -33 -119 13 -21 22 -22 37 -10 107 7 44 12 52
43 67 19 10 31 18 27 18 -4 0 -3 9 3 20 6 11 17 20 25 20 18 0 20 -37 3 -42
-9 -3 -2 -18 20 -42 17 -20 32 -41 32 -46 0 -5 7 -7 15 -4 8 4 27 -2 41 -11
l27 -17 -8 38 c-4 22 -11 44 -15 49 -5 6 -12 29 -16 52 -5 33 -12 43 -40 56
-41 20 -45 50 -8 73 22 15 25 22 19 53 -10 50 -10 51 -55 29 -38 -19 -42 -19
-65 -4 -17 11 -25 26 -25 45 0 36 18 51 70 58 40 6 41 7 34 37 -11 53 -23 76
-36 71 -20 -8 -77 32 -91 62 -6 16 -15 31 -20 34 -10 7 2 39 14 39 5 0 9 11 9
23 0 13 9 32 19 41 19 17 19 20 -16 122 l-36 104 -24 -22 c-65 -61 -183 6
-143 82 7 13 6 19 -6 24 -9 3 -14 16 -13 28 1 13 -1 35 -6 51 -9 33 6 54 53
74 17 7 32 17 32 22 0 5 -12 35 -27 67 l-26 59 -9 -42 c-5 -24 -15 -44 -21
-45 -39 -5 -63 -1 -72 13 -5 9 -40 53 -76 97 -60 74 -67 78 -78 60 -8 -12 -18
-17 -31 -13 -13 4 -20 0 -24 -13 -4 -11 -15 -27 -25 -36 -16 -15 -20 -15 -31
-1 -16 19 -5 62 18 69 12 4 18 16 17 34 0 23 4 27 28 27 15 -1 27 0 27 1 0 1
-7 18 -15 37 -18 44 -19 90 -2 138 16 47 32 66 62 73 l25 6 -49 98 c-27 53
-59 103 -71 110 -17 11 -20 19 -15 44 5 19 3 28 -3 24 -15 -9 -34 21 -27 43 3
11 -5 57 -19 103 -72 239 -54 380 63 496 31 30 49 53 41 50 -22 -8 -60 9 -60
27 0 8 11 21 25 27 l26 12 -28 22 c-24 19 -26 24 -14 38 7 9 21 16 30 16 14 1
14 2 -2 14 -24 19 -22 23 22 45 59 30 69 73 22 89 -25 9 -30 8 -34 -10 -5 -16
-11 -19 -30 -14 -25 6 -38 -5 -66 -54 -23 -41 -93 -120 -106 -120 -14 0 -46
-70 -65 -140 -16 -59 -17 -229 -1 -305 19 -92 20 -93 42 -88 22 6 45 -12 92
-71 41 -52 46 -110 11 -157 -13 -18 -24 -38 -24 -44 0 -7 22 -57 50 -113 27
-56 48 -102 47 -102 -2 0 -32 42 -67 94 -55 80 -67 92 -81 83 -46 -28 -103 40
-114 134 -7 55 -13 67 -98 177 -314 405 -527 755 -677 1110 l-51 121 21 21
c11 11 27 20 35 20 21 0 31 48 14 65 -19 20 -41 4 -41 -30 -1 -19 -4 -23 -11
-16 -6 6 -19 11 -28 11 -13 0 -24 23 -45 90 -15 51 -32 89 -38 87 -12 -4 -22
-437 -10 -437 3 0 12 7 21 15 21 21 33 10 33 -31 0 -34 -1 -35 -30 -29 l-30 7
1 -124 c1 -68 4 -112 8 -98 6 22 15 10 74 -100 37 -69 77 -142 89 -162 18 -31
19 -40 8 -52 -18 -23 -28 -20 -46 16 -18 35 -74 92 -82 84 -3 -3 1 -12 8 -21
7 -8 10 -25 6 -39 -5 -20 -1 -24 22 -29 46 -9 66 -76 40 -132 -21 -47 -92 -42
-116 9 -8 16 -11 4 -11 -57 -1 -69 1 -77 14 -64 24 25 84 31 106 11 22 -20 42
-84 33 -107 -9 -24 -40 -26 -74 -5 -33 20 -60 12 -60 -18 0 -8 -4 -14 -10 -14
-12 0 -14 -277 -2 -282 9 -4 52 -63 52 -73 0 -3 -13 3 -30 15 l-30 21 0 -70
c0 -68 15 -99 22 -45 3 25 4 24 68 -31 50 -43 65 -63 67 -86 1 -16 -3 -31 -8
-35 -5 -3 -9 0 -9 6 0 16 -48 77 -66 84 -8 3 -24 0 -35 -7 -16 -10 -21 -9 -29
3 -7 11 -10 1 -10 -34 0 -33 5 -53 16 -60 15 -12 10 -46 -7 -46 -5 0 -9 -34
-9 -76 0 -62 3 -75 14 -71 8 3 17 -1 20 -9 10 -25 7 -32 -14 -39 -18 -6 -20
-15 -20 -84 0 -58 4 -82 15 -91 8 -7 15 -19 15 -27 0 -7 -7 -16 -15 -19 -9 -4
-15 -19 -15 -35 0 -27 2 -29 21 -19 32 17 49 5 49 -34 0 -23 -6 -38 -17 -45
-10 -5 -14 -13 -10 -17 4 -4 13 -2 19 4 7 7 22 12 35 12 40 0 54 -60 17 -74
-8 -3 -14 -12 -14 -21 0 -26 -49 -19 -62 9 -39 87 -38 182 -38 -3144 l0 -3180
6400 0 6400 0 0 4106 c0 2849 -3 4103 -10 4099 -6 -4 -17 -1 -25 5 -11 9 -12
16 -2 31 6 10 17 19 24 19 10 0 13 136 13 660 l0 660 -148 0 -149 0 -11 -25
c-7 -14 -12 -36 -12 -49 0 -26 -23 -50 -59 -61 -21 -6 -23 -5 -18 16 7 26 -4
51 -19 48 -21 -4 -26 2 -14 16 7 8 8 15 3 15 -16 0 -34 -48 -20 -53 9 -3 9 -8
0 -18 -15 -16 -17 -95 -3 -104 13 -8 8 -62 -8 -92 -8 -13 -8 -24 -2 -28 13 -8
1 -35 -16 -35 -9 0 -14 -11 -14 -29 0 -26 -4 -30 -28 -29 -48 2 -72 -11 -72
-38 0 -21 -4 -24 -21 -19 -14 5 -27 0 -40 -14 -18 -19 -19 -23 -5 -37 20 -20
20 -24 -1 -40 -15 -10 -16 -15 -5 -25 21 -22 14 -37 -14 -31 -22 4 -25 2 -22
-19 5 -37 45 -38 59 -3 17 46 28 54 55 44 17 -7 24 -6 24 2 0 9 3 9 11 1 6 -6
13 -32 15 -58 l4 -48 -51 5 c-57 6 -66 -1 -40 -31 19 -22 19 -22 -15 -57 -19
-19 -32 -38 -29 -43 10 -17 -7 -42 -25 -36 -24 8 -38 -15 -16 -27 13 -7 14
-13 5 -30 -8 -16 -13 -18 -19 -8 -5 7 -6 18 -4 25 3 6 -2 18 -11 25 -21 17
-19 30 6 30 18 0 20 5 18 38 -2 21 0 43 5 50 4 7 3 12 -3 12 -5 0 -13 -5 -16
-10 -4 -6 -10 -8 -15 -5 -4 3 -13 -2 -20 -10 -16 -19 -35 -5 -45 33 -8 26 -8
26 -17 -12 -6 -31 -5 -43 7 -57 11 -11 13 -19 6 -24 -16 -9 -13 -61 4 -75 8
-7 15 -18 15 -25 0 -7 -7 -18 -15 -25 -8 -7 -15 -19 -15 -26 0 -17 46 -19 56
-3 4 8 -1 9 -17 5 -23 -7 -23 -7 -5 8 24 19 32 20 33 4 1 -7 4 -27 8 -45 7
-30 5 -33 -29 -47 -20 -8 -36 -20 -36 -26 0 -21 -21 2 -46 51 -15 31 -22 58
-19 70 5 14 -1 27 -19 44 -31 28 -43 71 -28 96 9 15 8 21 -7 31 -10 7 -21 31
-25 53 -6 36 -4 44 19 65 15 14 28 24 31 23 10 -7 24 -2 39 13 12 13 19 14 28
5 8 -8 14 -3 24 21 11 26 11 34 -2 55 -14 21 -14 23 1 23 20 0 14 34 -7 38
-13 2 -16 -4 -15 -25 1 -15 5 -33 9 -40 16 -26 -16 -24 -37 2 -20 25 -24 26
-44 14 -29 -18 -46 -62 -34 -86 7 -13 6 -22 -4 -31 -12 -11 -14 0 -14 75 0 48
5 119 10 157 14 97 72 265 126 364 l44 82 -123 0 -124 0 -40 -87 c-23 -49 -50
-113 -61 -143 -25 -69 -62 -239 -62 -284 0 -54 -11 -96 -26 -96 -7 0 -18 -9
-24 -19 -13 -26 -13 -31 4 -31 19 0 46 -60 46 -102 0 -33 16 -134 27 -171 4
-15 1 -18 -14 -13 -13 4 -28 -3 -49 -25 -16 -17 -97 -93 -180 -169 l-151 -138
-31 20 c-18 11 -32 23 -32 27 0 18 92 92 150 121 86 43 100 56 100 97 0 33
-24 57 -39 37 -3 -5 -28 -27 -56 -48 -27 -22 -82 -73 -122 -113 l-72 -74 -273
172 c-150 95 -281 179 -290 187 -29 24 -56 90 -88 217 -40 154 -56 189 -132
291 -35 46 -79 114 -98 152 l-36 69 4 -126 c6 -251 28 -315 151 -444 l76 -80
-90 64 c-336 238 -560 446 -683 636 -42 65 -50 72 -80 72 -24 1 -31 -2 -26
-11z m2933 -121 c15 -19 -35 -63 -75 -65 -28 -2 -31 0 -26 23 3 18 8 23 16 16
18 -15 56 -1 56 20 0 22 13 25 29 6z m-235 -702 c-4 -8 1 -17 10 -21 12 -5 13
-9 3 -19 -17 -19 -47 0 -47 30 0 18 5 25 20 25 13 0 18 -5 14 -15z m-26 -62
c5 -17 -26 -29 -40 -15 -6 6 -7 15 -3 22 9 14 37 9 43 -7z m-108 -32 c0 -20
-19 -41 -36 -41 -8 0 -6 10 5 34 16 35 31 38 31 7z m175 -41 c17 -19 17 -22 3
-37 -28 -27 -69 5 -54 42 8 21 30 19 51 -5z m-636 -97 c27 -76 87 -195 131
-257 20 -30 27 -50 23 -69 -5 -24 -2 -27 21 -27 30 0 32 -7 11 -57 -8 -19 -15
-46 -15 -60 0 -13 -10 -34 -23 -47 -13 -13 -22 -28 -21 -35 1 -6 0 -7 -3 -1
-2 5 -13 10 -23 10 -24 0 -58 44 -66 85 -7 39 8 71 37 80 16 5 18 10 8 21 -6
8 -9 25 -7 39 3 14 2 25 -1 25 -9 0 -50 -81 -53 -105 -5 -31 -40 -25 -56 9
l-14 28 -12 -23 c-8 -16 -23 -26 -50 -30 -36 -6 -44 -2 -139 70 -56 42 -113
84 -126 93 l-24 17 39 44 c57 62 305 253 334 256 3 1 16 -29 29 -66z m740 20
c15 -32 0 -53 -24 -33 -22 18 -19 60 5 60 4 0 12 -12 19 -27z m-324 -72 c3 -5
1 -13 -5 -16 -15 -9 -43 3 -35 15 8 13 32 13 40 1z m431 -67 c-7 -17 -57 -16
-63 2 -2 5 11 17 29 26 28 13 33 13 36 1 2 -8 1 -21 -2 -29z m-418 3 c7 -6 12
-22 10 -36 -1 -14 2 -33 6 -41 5 -8 -7 1 -27 19 -56 53 -46 102 11 58z m239
-3 c5 -15 -28 -27 -40 -15 -5 5 -6 14 -2 21 8 13 37 9 42 -6z m77 0 c24 -9 19
-26 -5 -19 -15 5 -22 2 -26 -14 -3 -11 -9 -18 -14 -16 -9 6 10 55 22 55 4 0
14 -3 23 -6z m226 -4 c0 -5 -5 -10 -11 -10 -5 0 -7 5 -4 10 3 6 8 10 11 10 2
0 4 -4 4 -10z m-366 -26 c19 -7 2 -27 -31 -36 -25 -7 -31 10 -11 30 14 14 20
14 42 6z m46 -37 c0 -12 -33 -67 -47 -78 -14 -12 -16 -12 -8 0 6 11 4 13 -8 8
-21 -8 -22 3 -2 29 11 14 14 15 9 3 -3 -10 -1 -20 5 -24 7 -4 11 3 11 17 0 24
16 48 32 48 4 0 8 -2 8 -3z m-1152 -47 l33 -20 -21 -30 c-30 -42 -34 -43 -74
-19 l-36 21 26 34 c15 19 29 34 33 34 3 0 21 -9 39 -20z m1202 -15 c-17 -20
-50 -19 -50 1 0 11 6 15 20 11 14 -4 20 0 20 11 0 12 3 13 12 4 8 -8 8 -15 -2
-27z m-153 0 c3 -9 3 -18 0 -21 -6 -7 -47 18 -47 28 0 15 41 8 47 -7z m-843
-131 c118 -89 127 -98 121 -123 -3 -14 -9 -29 -13 -33 -4 -4 -38 16 -75 44
-64 48 -67 52 -51 69 16 17 15 18 -12 7 -26 -9 -36 -6 -96 32 l-68 42 21 29
c11 16 26 29 32 29 7 0 70 -43 141 -96z m-270 60 c33 -16 34 -18 19 -40 -14
-22 -15 -23 -51 -6 -20 9 -38 17 -40 18 -6 3 22 44 30 44 4 0 23 -7 42 -16z
m1436 -49 c0 -8 -5 -17 -10 -20 -13 -8 -50 4 -50 16 0 6 9 7 20 4 14 -5 20 -2
20 10 0 9 5 13 10 10 6 -3 10 -12 10 -20z m-1262 -47 c29 -14 28 -24 -3 -32
-18 -4 -41 3 -80 25 -53 30 -55 32 -39 50 16 18 18 18 58 -7 22 -14 51 -30 64
-36z m-215 37 l36 -15 -20 -35 c-23 -39 -24 -39 -68 -24 -37 13 -37 14 -11 57
23 37 18 36 63 17z m1502 -23 c-22 -5 -27 1 -19 23 7 17 8 17 21 -1 12 -17 12
-19 -2 -22z m-1377 -34 l45 -21 -47 -24 c-44 -22 -66 -22 -95 3 -4 4 39 64 47
64 3 0 26 -10 50 -22z m771 -12 c10 -12 8 -13 -8 -9 -12 3 -18 9 -15 14 7 12
10 11 23 -5z m-11599 -11 c13 -16 7 -45 -9 -45 -14 0 -33 38 -26 50 9 14 21
12 35 -5z m11283 -9 c44 -8 55 -26 38 -63 l-12 -26 -50 49 c-50 49 -63 72 -31
56 9 -5 34 -12 55 -16z m-219 -55 c92 -71 289 -261 270 -261 -5 0 -26 16 -45
36 -65 69 -223 190 -337 259 -4 3 10 35 16 35 3 0 47 -31 96 -69z m544 45 c38
-13 26 -33 -20 -33 -37 -1 -95 16 -61 17 7 0 10 6 7 13 -5 15 32 16 74 3z
m-511 -125 c92 -68 313 -280 313 -300 0 -16 -37 4 -70 37 -78 77 -252 203
-375 272 -33 18 -62 34 -63 36 -2 1 4 16 14 33 l18 30 38 -21 c21 -12 77 -51
125 -87z m611 67 c14 -14 16 -28 2 -28 -5 0 -14 9 -20 20 -12 22 -1 27 18 8z
m-99 -25 c10 -6 -43 -47 -62 -48 -30 0 -36 -40 -8 -48 12 -3 23 -1 26 4 3 4
12 6 20 2 8 -3 22 -2 30 1 13 5 14 10 5 27 -17 31 1 45 38 30 17 -7 42 -14 57
-16 51 -5 82 -75 55 -126 -12 -22 -42 -25 -59 -6 -6 8 -23 12 -40 9 -22 -3
-32 1 -40 17 -13 24 -41 28 -41 6 0 -23 -47 -19 -60 5 -13 24 -38 26 -54 5
-10 -14 -17 -10 -50 24 -37 38 -38 41 -24 63 11 17 26 24 56 26 22 1 43 -2 47
-8 10 -16 23 -12 30 10 3 11 13 27 22 35 12 13 18 13 32 3 9 -7 18 -13 20 -15z
m-358 -15 c31 -25 39 -37 35 -54 -7 -27 2 -36 24 -24 23 12 50 -14 32 -32 -8
-8 -4 -21 14 -49 45 -72 24 -61 -74 38 -53 54 -111 108 -127 121 l-30 22 26
-6 c15 -3 30 -1 33 5 11 17 25 13 67 -21z m-942 -8 c51 -5 98 -13 103 -18 5
-5 -13 -5 -44 -1 -191 27 -496 -19 -578 -87 -54 -46 -32 -124 36 -124 12 0 87
34 168 76 147 76 296 125 370 123 21 -1 11 -5 -34 -15 -236 -51 -531 -216
-554 -310 -14 -55 35 -103 90 -90 18 5 84 64 179 160 125 127 162 159 223 190
41 21 75 36 77 34 3 -2 -24 -21 -59 -41 -128 -73 -263 -203 -360 -345 -81
-118 -73 -212 18 -212 54 0 86 46 134 193 43 135 81 203 157 282 26 28 40 39
31 25 -65 -101 -91 -194 -83 -295 8 -95 60 -199 126 -255 l48 -41 6 -132 c14
-284 86 -588 201 -849 22 -52 14 -48 -19 8 -15 26 -43 63 -61 84 -19 21 -43
64 -54 96 -53 154 -173 271 -331 324 -167 57 -345 -14 -415 -164 -30 -64 -31
-128 -3 -226 26 -91 28 -174 6 -216 -65 -125 -265 -170 -443 -100 -185 73
-324 237 -388 460 -30 103 -48 274 -37 366 l7 65 8 -42 c13 -69 70 -174 122
-226 28 -27 82 -65 123 -85 71 -35 81 -37 170 -37 85 0 103 3 153 28 116 57
197 182 205 317 4 67 2 80 -24 129 -34 66 -81 106 -145 123 -88 23 -194 -25
-218 -97 -28 -86 61 -164 120 -105 35 35 26 89 -14 90 -6 0 -2 -6 8 -13 39
-29 -2 -79 -50 -62 -53 19 -48 86 9 113 61 29 137 -30 137 -106 0 -80 -68
-143 -161 -150 -107 -8 -180 37 -233 144 -99 199 -29 463 178 669 91 91 152
133 281 198 159 79 355 131 555 147 137 10 155 10 259 0z m-10444 -20 c3 -11
3 -24 0 -30 -3 -5 1 -10 9 -10 8 0 52 -55 97 -122 83 -124 189 -269 383 -522
58 -76 106 -145 106 -152 0 -8 9 -19 21 -26 42 -27 358 -523 445 -700 25 -51
32 -58 57 -58 56 0 106 -71 98 -137 -1 -7 3 -13 9 -13 5 0 10 5 10 10 0 6 11
10 24 10 64 0 102 -114 54 -162 -13 -13 -17 -23 -10 -26 18 -6 54 -71 48 -87
-3 -9 -18 -15 -36 -15 -16 0 -30 -3 -30 -7 0 -5 20 -66 44 -138 25 -71 56
-168 71 -215 l26 -85 44 3 c36 3 45 0 55 -18 18 -34 -10 -69 -77 -95 -1 0 2
-18 7 -40 44 -188 80 -532 80 -763 0 -90 3 -107 22 -132 21 -30 18 -54 -4 -32
-22 22 -28 13 -28 -38 0 -152 -55 -524 -116 -785 -29 -125 -39 -153 -59 -168
-28 -21 -32 -37 -10 -37 20 0 20 -1 -16 -114 -23 -76 -34 -96 -45 -92 -9 3
-24 1 -35 -5 -28 -14 -21 -53 9 -57 26 -4 25 -7 -14 -108 -13 -33 -24 -65 -24
-70 0 -11 -79 -222 -126 -334 -27 -67 -40 -86 -56 -87 -30 -3 -33 -11 -14 -32
16 -17 15 -23 -18 -97 -28 -62 -39 -79 -55 -78 -15 0 -24 -9 -33 -35 -7 -20
-11 -42 -10 -49 4 -17 -27 -27 -41 -13 -8 8 -6 11 8 11 14 0 16 3 8 11 -9 9
-5 26 15 66 23 46 30 54 50 50 19 -4 27 3 43 34 18 37 18 41 3 64 -16 25 -15
29 21 121 26 63 42 91 49 84 17 -17 36 -11 48 16 10 21 9 27 -3 35 -8 5 -20 7
-26 4 -8 -2 0 29 18 78 319 854 379 1592 192 2340 -34 137 -39 150 -66 164
-26 13 -28 18 -22 46 9 47 8 68 -4 101 -11 27 -13 28 -30 12 -9 -9 -30 -16
-44 -16 -15 0 -27 -1 -27 -3 0 -2 7 -25 16 -51 16 -47 16 -47 -9 -70 l-26 -24
-17 51 c-65 201 -197 496 -304 682 -60 104 -192 303 -259 390 -25 33 -45 61
-43 62 1 2 2 21 2 43 0 26 -7 47 -19 59 -15 15 -16 21 -6 24 7 3 39 -30 79
-83 37 -49 74 -91 82 -94 8 -3 14 -12 14 -20 0 -9 29 -59 64 -113 36 -55 61
-103 58 -112 -3 -8 -1 -12 5 -8 16 10 131 -205 271 -505 l17 -37 37 34 37 35
-19 46 c-11 25 -17 50 -14 56 3 5 -3 19 -13 31 -11 12 -58 94 -105 182 -47 88
-112 205 -145 260 -51 84 -58 101 -47 113 16 15 16 15 8 36 -3 9 -16 16 -28
16 -32 0 -46 14 -119 122 -44 67 -64 104 -60 117 4 15 -2 24 -22 33 -21 9 -79
82 -147 181 -4 6 -13 4 -23 -6 -22 -22 -29 -22 -73 8 -20 14 -44 25 -53 25 -9
0 -19 6 -22 14 -7 17 27 51 42 42 15 -10 50 29 56 61 3 16 12 39 19 53 7 14
11 43 8 63 -4 31 -7 37 -21 30 -9 -4 -41 -8 -72 -7 -54 0 -55 0 -37 -18 10
-10 16 -23 13 -27 -2 -5 8 -11 23 -14 15 -3 30 0 34 6 11 17 42 -17 35 -37 -7
-18 -47 -22 -47 -5 0 6 -7 8 -16 5 -11 -4 -31 10 -62 46 -26 29 -99 106 -162
171 -63 65 -116 124 -118 131 -3 13 90 66 116 66 29 0 32 10 14 44 -16 30 -17
30 -20 8 -2 -13 -9 -22 -16 -19 -6 3 -20 -1 -30 -8 -10 -8 -24 -11 -32 -8 -8
3 -21 0 -29 -7 -23 -19 -34 -3 -29 47 5 54 20 78 39 63 17 -14 69 -2 83 21 10
15 9 19 -1 19 -7 0 -18 -5 -25 -12 -16 -16 -38 4 -26 24 5 7 14 27 20 44 10
28 8 32 -18 47 -41 23 -34 37 18 37 43 0 45 1 38 23 -4 12 -7 30 -6 39 0 9
-14 26 -32 36 -45 26 -51 56 -19 82 32 25 40 25 48 0z m10732 -57 c-3 -10 -26
-75 -51 -144 -48 -137 -70 -229 -85 -358 -5 -45 -12 -85 -15 -88 -3 -4 -17 0
-31 7 -23 12 -24 17 -19 69 17 171 66 395 109 497 13 31 18 34 56 34 35 0 40
-3 36 -17z m63 7 c0 -5 -20 -55 -45 -111 -25 -56 -44 -104 -42 -106 2 -2 18
19 35 46 40 66 156 145 196 135 39 -9 40 -21 2 -28 -49 -9 -148 -77 -182 -124
-24 -33 -60 -62 -78 -62 -5 0 46 143 74 208 20 47 40 68 40 42z m-200 -60
c-27 -74 -68 -253 -80 -355 -6 -49 -14 -101 -17 -115 l-5 -25 -29 34 c-66 79
-82 224 -36 324 14 31 38 72 52 92 25 31 108 95 126 95 4 0 -1 -22 -11 -50z
m-10745 -10 c3 -5 1 -10 -4 -10 -6 0 -11 5 -11 10 0 6 2 10 4 10 3 0 8 -4 11
-10z m12169 -12 c-8 -28 -12 -33 -20 -25 -9 8 6 47 17 47 6 0 7 -10 3 -22z
m-118 -70 c-1 -18 -5 -35 -11 -38 -11 -6 -19 34 -11 56 10 26 23 15 22 -18z
m474 22 c0 -5 -7 -10 -15 -10 -8 0 -15 5 -15 10 0 6 7 10 15 10 8 0 15 -4 15
-10z m-784 -32 c3 -13 11 -29 17 -36 17 -21 19 -52 4 -52 -8 0 -28 18 -46 40
-27 33 -30 44 -21 55 18 22 38 18 46 -7z m-577 -12 c16 -19 1 -47 -43 -81 -39
-30 -50 -31 -84 -7 -15 10 -35 22 -45 25 -26 10 -12 26 47 53 58 27 108 31
125 10z m511 -11 c13 -14 21 -25 18 -25 -2 0 -15 11 -28 25 -13 14 -21 25 -18
25 2 0 15 -11 28 -25z m-271 -42 c42 -31 126 -106 186 -165 109 -107 110 -108
86 -121 -33 -16 -41 -42 -12 -34 17 4 21 2 17 -10 -3 -8 -6 -19 -6 -24 0 -6
-8 -8 -17 -5 -24 7 -39 -4 -47 -36 -6 -25 -3 -28 28 -33 39 -8 78 9 70 29 -8
20 41 8 62 -15 9 -10 23 -19 31 -19 7 0 13 -5 13 -11 0 -6 -7 -9 -15 -5 -9 3
-15 0 -15 -10 0 -12 6 -15 25 -10 29 7 33 -7 6 -26 -10 -7 -18 -24 -17 -38 1
-19 -4 -24 -16 -22 -13 2 -18 -4 -18 -23 0 -17 -4 -24 -12 -19 -8 5 -9 -3 -5
-29 5 -30 2 -37 -14 -42 -10 -4 -32 -17 -48 -31 -29 -24 -30 -24 -36 -4 -6 20
-42 41 -68 39 -7 0 -22 -13 -34 -28 -18 -23 -21 -34 -13 -60 5 -17 7 -31 5
-31 -3 0 -165 99 -173 105 -2 2 2 12 9 23 12 20 7 52 -9 52 -5 0 -20 -10 -33
-22 l-24 -22 86 -88 c48 -49 105 -115 126 -146 35 -50 39 -61 31 -89 -4 -18
-12 -35 -17 -38 -12 -7 -41 34 -41 57 0 10 -4 18 -10 18 -13 0 -13 -67 0 -75
7 -4 7 -13 0 -25 -6 -11 -8 -37 -4 -59 7 -44 -10 -110 -34 -128 -9 -7 -11 -13
-5 -13 7 0 5 -26 -5 -75 -18 -90 -37 -99 -65 -31 -10 24 -31 55 -47 70 -17 14
-30 31 -30 37 0 7 -10 9 -26 5 -20 -5 -32 0 -60 28 -44 44 -45 66 -1 66 52 0
109 -56 158 -153 l41 -82 -7 55 c-9 78 -51 165 -98 205 -56 48 -118 67 -211
63 l-76 -3 40 -50 c22 -27 46 -64 55 -81 8 -17 34 -44 57 -60 24 -15 51 -37
62 -47 10 -10 24 -16 32 -13 17 6 108 -54 112 -74 2 -11 -14 -21 -52 -34 -30
-11 -73 -31 -94 -45 -55 -36 -162 -133 -162 -146 0 -14 -24 -65 -30 -65 -12 1
-150 326 -150 353 0 4 6 7 14 7 17 0 29 27 15 36 -5 3 -16 1 -24 -6 -16 -13
-18 -10 -40 65 -67 231 -66 266 7 434 44 98 51 124 56 197 l5 83 53 26 c118
58 185 197 151 317 -6 24 -3 29 42 53 29 16 71 53 102 91 29 35 55 64 57 64 3
0 39 -26 81 -57z m911 2 c0 -28 -21 -33 -40 -10 -15 18 -5 35 21 35 14 0 19
-7 19 -25z m124 0 c10 -38 -4 -51 -20 -20 -18 34 -18 45 0 45 8 0 17 -11 20
-25z m58 3 c-7 -7 -12 -8 -12 -2 0 14 12 26 19 19 2 -3 -1 -11 -7 -17z m-675
-28 c3 -17 14 -37 25 -44 19 -13 18 -14 -13 -21 -27 -6 -35 -3 -50 16 -15 21
-16 26 -3 51 19 36 33 35 41 -2z m383 -11 c0 -11 -4 -17 -10 -14 -5 3 -10 13
-10 21 0 8 5 14 10 14 6 0 10 -9 10 -21z m292 9 c-9 -9 -15 -9 -24 0 -9 9 -7
12 12 12 19 0 21 -3 12 -12z m178 -3 c0 -17 -47 -51 -57 -41 -4 4 6 18 22 31
36 29 35 29 35 10z m-622 -28 c2 -9 -4 -27 -12 -39 -9 -12 -16 -35 -16 -50 0
-48 -32 -35 -65 28 -29 53 -29 56 -11 69 27 20 100 14 104 -8z m122 -23 c0 -8
-4 -12 -10 -9 -5 3 -10 10 -10 16 0 5 5 9 10 9 6 0 10 -7 10 -16z m208 -12 c3
-19 -1 -23 -15 -20 -10 2 -19 14 -21 26 -3 19 1 23 15 20 10 -2 19 -14 21 -26z
m112 -2 c0 -26 -17 -34 -35 -16 -18 18 -19 33 -2 39 20 7 37 -4 37 -23z m-746
4 c9 -8 16 -23 16 -31 0 -9 -1 -14 -2 -12 -2 2 -14 16 -27 32 -26 28 -14 39
13 11z m336 -19 c0 -8 -4 -17 -10 -20 -6 -4 -10 5 -10 20 0 15 4 24 10 20 6
-3 10 -12 10 -20z m-172 -41 c10 -20 9 -28 -3 -40 -8 -9 -15 -23 -15 -32 0
-13 -2 -13 -14 3 -10 14 -11 28 -3 57 11 45 19 48 35 12z m217 -4 c3 -5 -3
-10 -14 -10 -12 0 -21 -7 -21 -15 0 -8 5 -15 10 -15 6 0 10 5 10 10 0 6 5 10
11 10 5 0 9 -10 7 -22 -2 -15 2 -23 12 -23 8 0 21 -4 28 -8 14 -9 14 -1 2 28
-5 11 -9 14 -9 8 -1 -7 -6 -13 -12 -13 -8 0 -8 4 1 15 10 12 15 12 36 -2 29
-19 30 -33 4 -63 -20 -23 -28 -76 -10 -65 17 11 11 -11 -8 -28 -17 -15 -20
-15 -41 -1 -19 14 -22 22 -16 51 3 19 2 33 -2 30 -19 -12 -35 12 -38 59 -2 27
-1 52 2 57 6 10 41 9 48 -3z m-1136 -41 c34 -97 -65 -199 -191 -199 -37 0 -38
1 -38 35 0 59 22 185 32 185 6 0 7 -11 4 -25 -3 -14 -8 -37 -11 -52 -4 -22 -1
-20 11 10 9 20 23 37 30 37 10 0 9 -8 -6 -32 -29 -48 -24 -54 10 -14 26 30
119 86 141 86 4 0 12 -14 18 -31z m-10974 -9 c9 -10 22 -18 29 -17 6 1 11 -5
11 -13 0 -26 -37 -16 -62 18 -19 23 -22 32 -11 32 8 0 23 -9 33 -20z m11915
-45 c0 -8 -7 -15 -15 -15 -16 0 -20 12 -8 23 11 12 23 8 23 -8z m20 -50 c0
-14 -4 -25 -8 -25 -5 0 -14 11 -20 25 -10 22 -9 25 8 25 15 0 20 -7 20 -25z
m17 3 c-3 -8 -6 -5 -6 6 -1 11 2 17 5 13 3 -3 4 -12 1 -19z m493 -20 c0 -16
-3 -19 -11 -11 -6 6 -8 16 -5 22 11 17 16 13 16 -11z m-340 -69 c0 -11 -4 -17
-10 -14 -5 3 -10 13 -10 21 0 8 5 14 10 14 6 0 10 -9 10 -21z m-70 -22 c0 -5
-4 -5 -10 -2 -5 3 -10 14 -10 23 0 15 2 15 10 2 5 -8 10 -19 10 -23z m-395 3
c-3 -5 -13 -10 -21 -10 -8 0 -14 5 -14 10 0 6 9 10 21 10 11 0 17 -4 14 -10z
m345 -11 c0 -11 -4 -17 -10 -14 -5 3 -10 13 -10 21 0 8 5 14 10 14 6 0 10 -9
10 -21z m-11930 -42 c0 -5 -7 -4 -15 3 -8 7 -15 20 -15 29 1 13 3 13 15 -3 8
-11 15 -24 15 -29z m11998 -2 c-9 -9 -30 14 -23 25 6 9 10 8 17 -4 6 -10 8
-19 6 -21z m-1365 -23 c15 -6 18 -25 22 -132 7 -161 29 -335 61 -480 39 -171
88 -307 181 -498 31 -62 53 -116 49 -119 -10 -11 -21 6 -85 132 -134 268 -213
526 -246 815 -16 133 -20 290 -7 289 4 0 15 -4 25 -7z m1384 -12 c3 -10 2 -11
-4 -4 -4 7 -17 14 -28 17 -16 5 -15 5 4 4 14 -1 26 -9 28 -17z m-1267 -21 c0
-4 -4 -10 -9 -13 -15 -10 -51 -94 -52 -123 -1 -16 -5 -1 -10 32 -4 33 -6 74
-3 90 5 28 8 30 40 27 19 -2 34 -8 34 -13z m1060 -49 c24 -47 24 -50 5 -50 -8
0 -15 5 -15 11 0 7 -9 9 -21 6 -18 -5 -20 -2 -13 26 12 59 17 60 44 7z m200
36 c0 -3 -4 -8 -10 -11 -5 -3 -10 -1 -10 4 0 6 5 11 10 11 6 0 10 -2 10 -4z
m-12080 -66 c0 -6 -9 -10 -19 -10 -11 0 -21 -6 -24 -12 -3 -10 -7 -10 -20 1
-9 7 -15 17 -12 20 7 12 75 12 75 1z m11820 -8 c0 -29 -23 -53 -39 -43 -12 8
-13 14 -3 35 13 30 42 35 42 8z m657 -35 c-5 -15 -19 -18 -36 -8 -8 5 -11 16
-8 25 5 14 11 15 27 6 12 -6 20 -16 17 -23z m-12327 -3 c19 -19 21 -27 11 -33
-9 -6 -6 -14 15 -30 17 -13 30 -18 32 -12 2 6 8 11 13 11 5 0 8 -3 7 -7 -2 -5
2 -9 7 -11 24 -7 102 -95 98 -110 -2 -10 3 -37 12 -61 18 -51 18 -54 6 -47 -5
3 -12 -1 -15 -10 -10 -27 -51 -13 -54 19 -4 32 -13 34 -29 8 -12 -19 -13 -19
-43 9 -16 15 -30 34 -30 41 0 20 31 48 46 42 19 -7 18 11 -1 27 -8 7 -15 24
-16 39 0 14 -3 20 -6 14 -8 -20 -23 -15 -23 8 0 12 -5 19 -12 17 -16 -6 -41
19 -34 31 3 5 -5 12 -19 15 -26 7 -50 40 -40 56 11 18 51 10 75 -16z m11742 1
c0 -5 -5 -11 -11 -13 -6 -2 -11 4 -11 13 0 9 5 15 11 13 6 -2 11 -8 11 -13z
m-11461 -22 c13 -15 12 -15 -8 -4 -24 12 -29 21 -14 21 5 0 15 -7 22 -17z
m11506 -35 c-3 -8 -6 -5 -6 6 -1 11 2 17 5 13 3 -3 4 -12 1 -19z m420 6 c3 -8
1 -20 -5 -26 -6 -6 -8 -17 -5 -24 6 -17 -9 -18 -25 -2 -13 13 -16 50 -5 61 12
12 33 7 40 -9z m-83 -15 c25 -20 36 -59 16 -59 -5 0 -10 7 -10 15 0 8 -9 15
-20 15 -20 0 -44 32 -33 44 10 10 19 7 47 -15z m-12244 -20 c0 -6 -9 -13 -20
-16 -11 -3 -20 -12 -20 -21 0 -13 -2 -14 -12 -3 -10 11 -10 14 0 18 6 3 12 11
12 19 0 8 9 14 20 14 11 0 20 -5 20 -11z m11742 -18 c-15 -26 -19 -28 -33 -15
-22 20 -32 18 -26 -7 4 -16 -2 -24 -29 -36 -53 -26 -54 -6 -2 43 34 32 55 44
77 44 l30 0 -17 -29z m-11670 -13 c10 -15 17 -29 14 -29 -3 -1 -10 -2 -14 -3
-5 0 -16 -9 -26 -18 -30 -31 -45 -23 -36 18 5 20 6 42 3 50 -9 25 38 10 59
-18z m72 -30 c15 -21 7 -48 -14 -48 -7 0 -30 45 -30 60 0 18 29 10 44 -12z
m11977 -3 c1 -17 -18 -17 -25 0 -4 11 -1 15 10 13 8 -2 15 -7 15 -13z m190
-29 c-11 -28 -28 -31 -36 -5 -5 16 -2 26 11 36 22 16 36 0 25 -31z m-511 9
c14 -16 10 -47 -6 -52 -7 -2 -13 11 -16 32 -4 37 2 44 22 20z m-30 -32 c0 -7
-7 -13 -15 -13 -16 0 -19 9 -9 35 5 13 8 14 15 3 5 -7 9 -19 9 -25z m-11706 1
c8 -22 8 -24 -8 -24 -18 0 -29 16 -21 30 9 15 22 12 29 -6z m12373 -16 c-3 -8
-6 -5 -6 6 -1 11 2 17 5 13 3 -3 4 -12 1 -19z m-257 2 c0 -5 -2 -10 -4 -10 -3
0 -8 5 -11 10 -3 6 -1 10 4 10 6 0 11 -4 11 -10z m-12189 -10 c29 -16 26 -67
-6 -82 -19 -9 -29 -7 -50 6 -33 21 -30 55 5 73 30 15 27 15 51 3z m12165 -19
c11 9 14 8 14 -4 0 -9 -5 -19 -10 -22 -6 -4 -8 -11 -5 -16 4 -5 1 -9 -5 -9 -7
0 -10 7 -6 15 3 8 1 15 -4 15 -6 0 -10 8 -9 18 0 11 2 12 6 4 4 -10 8 -10 19
-1z m114 -42 c0 -11 -4 -17 -10 -14 -5 3 -10 15 -10 26 0 11 5 17 10 14 6 -3
10 -15 10 -26z m-11847 -39 c-3 -11 0 -20 6 -20 6 0 14 0 19 0 18 -2 72 -66
72 -86 0 -32 -28 -58 -46 -43 -8 6 -14 20 -14 31 0 23 -23 48 -44 48 -23 0
-28 16 -20 65 5 35 9 43 19 35 7 -6 11 -20 8 -30z m-255 -45 c1 -19 -3 -35 -8
-35 -12 0 -24 46 -15 59 12 21 22 11 23 -24z m37 4 c8 -23 1 -34 -14 -24 -13
8 -15 45 -2 45 5 0 13 -9 16 -21z m11374 -29 c13 -25 40 -74 60 -110 20 -36
36 -69 37 -75 1 -22 16 -55 25 -55 5 0 9 -15 9 -34 0 -33 -1 -34 -33 -26 -48
10 -91 40 -78 53 6 6 11 19 11 30 0 14 -5 17 -22 12 -13 -4 -29 -13 -36 -20
-11 -10 -11 -15 2 -28 11 -10 13 -18 5 -22 -6 -4 -8 -13 -5 -21 3 -8 1 -14 -4
-14 -6 0 -10 5 -10 10 0 6 -11 10 -25 10 -14 0 -25 5 -25 10 0 6 -4 10 -9 10
-6 0 -11 -15 -13 -32 -2 -22 -9 -34 -20 -36 -22 -4 -23 8 -2 123 14 75 22 94
46 117 22 21 36 26 54 22 22 -6 24 -3 24 26 0 24 -4 31 -15 26 -17 -6 -45 41
-38 62 9 25 38 7 62 -38z m429 23 c-10 -12 -9 -18 7 -30 20 -15 20 -15 0 -11
-21 3 -31 29 -21 54 3 8 11 12 16 9 8 -5 7 -12 -2 -22z m-12007 -33 c27 -15
24 -26 -8 -24 -44 2 -46 3 -33 19 15 18 16 18 41 5z m11919 -30 c-16 -31 -23
-19 -9 16 6 16 13 24 16 17 2 -7 -1 -22 -7 -33z m-11810 -26 c0 -19 -28 -30
-41 -17 -7 7 -5 16 6 27 18 18 35 13 35 -10z m270 -14 c6 0 8 5 5 10 -3 6 -2
10 3 10 15 0 67 -73 55 -77 -18 -6 9 -64 28 -61 9 2 15 0 15 -4 -1 -4 8 -14
20 -22 11 -8 37 -41 57 -74 36 -59 40 -92 11 -92 -7 0 -19 -9 -27 -20 -14 -21
-14 -21 -22 2 -4 13 -7 34 -8 48 -2 20 -8 26 -34 28 -35 4 -45 -15 -19 -37 7
-6 11 -22 8 -36 -6 -32 25 -70 44 -54 9 7 14 5 19 -10 8 -26 41 -44 66 -38 14
4 19 1 17 -10 -2 -9 3 -18 11 -21 11 -3 12 0 6 14 -4 11 -7 38 -6 61 1 23 -3
44 -9 48 -5 3 -10 14 -10 23 1 53 260 -469 260 -525 0 -4 -5 -2 -12 5 -21 21
-37 13 -56 -25 -21 -42 -19 -57 11 -90 27 -31 53 -29 71 4 14 28 14 27 21 -30
14 -111 -13 -163 -86 -160 -22 1 -46 9 -55 17 -8 9 -26 16 -39 16 -30 0 -55
10 -55 21 0 5 13 9 29 9 39 0 56 24 57 81 1 42 -2 48 -20 51 -30 4 -27 33 4
33 16 0 26 6 28 18 3 15 -3 18 -42 16 -25 -2 -46 -7 -46 -11 0 -5 -17 2 -37
16 -42 29 -53 26 -53 -12 0 -57 -73 -128 -95 -92 -3 5 -16 15 -28 21 -19 10
-19 8 5 -17 21 -23 25 -36 21 -59 -6 -31 -19 -45 -42 -45 -11 0 -11 4 2 18 22
24 21 32 -3 32 -11 0 -20 -5 -20 -11 0 -8 -5 -7 -16 2 -8 7 -13 21 -11 30 3
12 -2 20 -14 24 -27 9 -60 55 -54 75 3 9 -1 30 -10 46 -19 37 -19 59 1 79 13
12 14 19 5 28 -18 18 -47 -5 -43 -37 2 -20 -2 -26 -16 -26 -30 0 -54 35 -56
79 -1 46 -1 46 38 55 26 7 28 5 24 -18 -6 -29 1 -33 21 -13 10 9 15 9 18 0 2
-6 15 -23 29 -38 13 -14 24 -30 24 -34 0 -15 33 -22 42 -9 6 10 8 9 8 -4 0 -9
5 -20 10 -23 6 -4 10 7 10 24 0 21 -5 31 -15 31 -8 0 -15 9 -15 19 0 28 -39
91 -56 91 -15 0 -44 61 -44 92 0 11 -5 18 -12 16 -10 -4 -78 56 -78 68 0 20
19 35 50 40 22 4 49 17 61 30 19 20 21 28 11 48 -9 20 -8 25 7 29 24 6 47 67
25 67 -8 0 -14 10 -14 23 -1 12 -7 33 -14 46 -7 13 -11 32 -9 42 6 23 -23 36
-46 22 -13 -8 -23 -6 -42 8 -13 10 -32 19 -41 19 -34 0 -18 43 20 54 15 5 22
15 22 33 0 21 3 23 14 13 8 -6 12 -19 10 -28 -3 -9 5 -4 18 13 13 16 22 32 20
35 -2 3 7 8 20 11 16 4 25 0 30 -13 4 -10 12 -18 18 -18z m11600 21 c0 -12
-20 -25 -27 -18 -7 7 6 27 18 27 5 0 9 -4 9 -9z m-11790 -36 c11 -13 10 -14
-4 -9 -9 3 -23 1 -31 -6 -18 -15 -30 -7 -22 15 8 19 41 19 57 0z m-82 -44 c2
-14 -2 -21 -12 -21 -9 0 -16 5 -16 10 0 6 -9 10 -20 10 -11 0 -20 6 -20 14 0
34 63 22 68 -13z m6 -104 c6 -26 5 -27 -14 -17 -19 10 -27 40 -13 53 9 10 19
-3 27 -36z m156 7 c7 -18 15 -24 29 -19 11 3 24 -1 32 -12 12 -15 12 -16 -3
-10 -14 5 -18 1 -18 -17 0 -13 -7 -29 -15 -36 -12 -10 -15 -9 -15 5 0 12 -5
15 -16 11 -9 -3 -20 -6 -25 -6 -6 0 -8 -3 -6 -7 3 -5 -5 -8 -18 -8 -18 0 -23
5 -22 20 2 15 -4 20 -20 19 -31 -1 -29 20 4 51 27 24 50 34 39 16 -8 -12 4
-41 16 -41 6 0 8 11 4 24 -10 42 19 51 34 10z m11804 4 c10 -41 7 -48 -23 -48
-16 0 -31 -6 -34 -12 -7 -20 -19 -2 -19 27 0 35 8 41 30 22 25 -23 30 -21 24
8 -5 31 13 33 22 3z m-12004 -58 c0 -5 -4 -10 -9 -10 -6 0 -13 5 -16 10 -3 6
1 10 9 10 9 0 16 -4 16 -10z m276 -37 c-11 -11 -17 4 -9 23 7 18 8 18 11 1 2
-10 1 -21 -2 -24z m11734 -31 c-9 -3 -9 -7 1 -13 20 -12 20 -71 0 -86 -24 -19
-29 -16 -39 21 -12 41 -4 86 13 86 8 0 17 10 21 23 l8 22 4 -25 c2 -13 -1 -26
-8 -28z m-456 31 c3 -4 17 -8 29 -10 12 -2 24 -8 25 -13 2 -6 10 -10 17 -10 7
0 15 -7 19 -15 6 -16 -5 -20 -18 -8 -4 4 -13 8 -19 8 -27 1 -117 28 -117 35 0
4 9 6 20 3 11 -3 20 0 20 6 0 12 13 15 24 4z m-11647 -66 c-5 -15 -20 -18 -37
-7 -13 9 -13 11 -1 19 17 11 43 3 38 -12z m217 -23 c4 -9 0 -22 -8 -28 -7 -6
-16 -18 -18 -26 -3 -11 -9 -7 -22 13 -10 15 -16 34 -12 42 7 20 52 19 60 -1z
m10575 -54 c56 -28 101 -69 101 -91 0 -10 6 -19 14 -19 15 0 86 -112 86 -137
0 -8 -42 24 -92 72 -51 48 -109 98 -129 111 -30 21 -35 29 -31 54 2 17 6 30 9
30 2 0 21 -9 42 -20z m-10749 -21 c0 -10 5 -19 10 -19 6 0 10 6 10 14 0 24 18
28 45 10 30 -20 37 -71 8 -59 -32 14 -81 17 -88 6 -9 -15 21 -61 39 -61 8 0
16 -9 19 -20 3 -12 14 -20 27 -20 18 0 74 -23 89 -36 6 -5 -69 -74 -79 -74 -4
0 -25 19 -45 43 -21 23 -58 59 -82 79 -24 20 -39 39 -33 43 5 3 10 15 10 26 0
10 5 19 10 19 6 0 10 -10 10 -22 1 -20 2 -21 11 -6 7 13 5 24 -7 43 -16 24
-15 26 7 44 27 22 39 19 39 -10z m12530 27 c0 -2 -7 -6 -15 -10 -8 -3 -15 -1
-15 4 0 6 7 10 15 10 8 0 15 -2 15 -4z m-12641 -89 c0 -21 -1 -21 -9 -2 -12
28 -12 37 0 30 6 -3 10 -16 9 -28z m41 -109 c0 -13 -5 -9 -31 19 l-24 26 27
-19 c15 -10 28 -22 28 -26z m340 -38 c0 -5 -4 -10 -10 -10 -5 0 -10 5 -10 10
0 6 5 10 10 10 6 0 10 -4 10 -10z m10494 -14 c149 -32 186 -49 186 -87 0 -16
-2 -29 -4 -29 -20 0 -36 17 -36 38 0 23 -1 24 -17 10 -13 -11 -46 -17 -113
-20 -81 -3 -105 -8 -162 -35 -38 -18 -68 -30 -68 -28 0 2 20 36 45 76 25 40
45 79 45 86 0 16 -10 17 124 -11z m712 9 c4 -8 12 -15 19 -15 18 0 23 -28 11
-67 -7 -24 -15 -33 -31 -33 -18 0 -25 9 -34 44 -16 67 -14 86 9 86 11 0 23 -7
26 -15z m541 9 c-3 -3 -12 -4 -19 -1 -8 3 -5 6 6 6 11 1 17 -2 13 -5z m-9772
-24 c8 -13 -13 -40 -31 -40 -17 0 -18 37 -1 43 19 8 25 8 32 -3z m9406 -30
c23 -19 23 -19 4 -20 -21 0 -45 17 -45 32 0 14 17 9 41 -12z m-262 -69 c1 -20
-1 -21 -14 -11 -16 13 -21 71 -7 84 7 8 19 -31 21 -73z m-62 -8 c0 -50 6 -92
16 -115 14 -34 20 -38 51 -38 37 0 66 -21 66 -47 0 -12 -7 -9 -25 11 -29 31
-61 33 -91 5 l-22 -20 -28 37 c-40 52 -40 129 -1 197 15 26 29 47 31 47 2 0 3
-35 3 -77z m324 18 c18 -19 18 -20 -3 -27 -12 -4 -24 -3 -25 2 -11 32 -23 39
-43 26 -18 -11 -20 -10 -20 9 0 19 4 21 36 16 20 -4 45 -15 55 -26z m99 -26
c0 -8 -7 -15 -15 -15 -16 0 -20 12 -8 23 11 12 23 8 23 -8z m-11617 -27 c-5
-10 -33 10 -33 23 0 5 9 4 19 -3 11 -7 17 -16 14 -20z m17 -28 c0 -5 -2 -10
-4 -10 -3 0 -8 5 -11 10 -3 6 -1 10 4 10 6 0 11 -4 11 -10z m10773 -13 c26 -7
43 -20 53 -40 9 -16 14 -30 12 -32 -2 -2 -51 -7 -108 -10 -95 -6 -108 -4 -137
14 -39 24 -42 43 -10 64 43 28 104 29 190 4z m564 1 c-3 -8 -6 -5 -6 6 -1 11
2 17 5 13 3 -3 4 -12 1 -19z m283 12 c0 -5 -5 -10 -11 -10 -5 0 -7 5 -4 10 3
6 8 10 11 10 2 0 4 -4 4 -10z m-11580 -14 c0 -3 -4 -8 -10 -11 -5 -3 -10 -1
-10 4 0 6 5 11 10 11 6 0 10 -2 10 -4z m11638 -34 c6 -39 -5 -55 -28 -42 -11
6 -20 16 -20 22 0 7 4 7 14 -1 23 -19 31 7 9 31 -18 20 -18 20 2 17 12 -3 21
-14 23 -27z m-11778 -11 c0 -6 14 -31 31 -56 20 -29 28 -52 24 -63 -6 -16 -8
-15 -21 2 -8 11 -14 27 -14 35 0 9 -9 30 -20 46 -22 34 -25 45 -10 45 6 0 10
-4 10 -9z m1996 -19 c18 -12 44 -69 44 -98 0 -30 -25 -64 -47 -64 -7 0 -29 6
-48 14 l-34 15 19 57 c27 77 41 93 66 76z m9594 -47 c11 -3 28 -17 39 -31 18
-23 20 -24 30 -7 18 32 27 2 23 -74 -2 -37 -17 -44 -27 -13 -6 19 -7 19 -28
-4 -28 -31 -67 -44 -67 -22 0 9 5 16 10 16 6 0 10 5 10 10 0 14 -27 12 -33 -2
-4 -10 -8 -9 -16 2 -16 22 -13 29 9 23 11 -3 31 2 45 11 14 9 31 14 38 10 8
-5 9 -4 2 3 -16 16 -72 32 -94 26 -16 -4 -19 -1 -14 16 5 21 23 30 23 11 0 -5
7 -10 15 -10 18 0 20 17 4 22 -8 3 -9 12 -3 28 6 19 9 21 12 8 2 -9 12 -20 22
-23z m-11035 -49 c-5 -23 -1 -39 15 -59 25 -32 24 -32 -19 -11 -46 23 -59 55
-35 87 25 33 46 24 39 -17z m-35 -116 c17 -22 27 -40 22 -40 -5 0 -12 -6 -15
-13 -3 -8 4 -13 22 -12 18 0 29 -7 36 -22 5 -13 13 -23 18 -23 4 0 5 -16 1
-35 -5 -27 -2 -41 12 -56 12 -13 14 -23 7 -30 -14 -14 -63 10 -63 32 0 9 -3
25 -6 34 -5 11 0 18 15 22 11 3 21 9 21 13 0 12 -38 0 -51 -16 -13 -16 -33
-19 -24 -3 4 6 -6 27 -23 48 -26 33 -29 42 -24 89 2 29 8 52 12 52 5 0 23 -18
40 -40z m-400 26 c0 -2 -7 -9 -15 -16 -12 -10 -15 -10 -15 4 0 9 7 16 15 16 8
0 15 -2 15 -4z m11346 -25 c-8 -13 -36 -15 -36 -3 0 4 5 13 12 20 14 14 34 0
24 -17z m307 -3 c-13 -12 -26 -19 -29 -15 -4 4 1 14 12 22 29 22 41 18 17 -7z
m-11481 -13 c0 -5 -5 -11 -11 -13 -6 -2 -11 4 -11 13 0 9 5 15 11 13 6 -2 11
-8 11 -13z m11126 -11 c0 -17 -5 -24 -14 -20 -8 3 -14 -1 -14 -8 0 -11 -5 -12
-25 -3 -14 7 -25 14 -25 17 0 3 17 12 38 22 20 9 38 17 38 17 1 1 2 -11 2 -25z
m369 -31 c-2 -21 -8 -38 -13 -39 -5 0 -22 -4 -37 -9 -21 -5 -33 -3 -45 8 -14
15 -14 17 4 23 45 15 84 36 84 44 0 6 2 10 5 10 3 0 4 -17 2 -37z m-551 17
c13 0 24 -4 24 -10 0 -16 -49 -23 -65 -10 -20 16 -19 34 1 26 9 -3 27 -6 40
-6z m-10868 -54 l29 -43 -23 -26 c-26 -30 -74 -37 -74 -11 0 8 5 12 11 8 6 -3
15 0 20 7 12 19 11 32 -1 24 -5 -3 -10 -2 -10 4 0 6 -7 8 -15 5 -9 -4 -15 -1
-15 7 0 8 -3 24 -6 37 -5 17 -3 21 9 17 8 -4 17 1 21 10 8 21 19 13 54 -39z
m-302 -14 c-15 -15 -16 -15 -16 5 0 12 6 23 13 26 19 6 21 -13 3 -31z m11419
-2 c3 -5 2 -10 -4 -10 -5 0 -13 5 -16 10 -3 6 -2 10 4 10 5 0 13 -4 16 -10z
m261 -40 c0 -20 -7 -25 -19 -14 -7 7 2 34 12 34 4 0 7 -9 7 -20z m-321 -19 c3
-5 -7 -22 -21 -36 -25 -25 -28 -26 -43 -10 -15 16 -14 17 9 10 14 -4 22 -4 18
0 -9 9 9 45 22 45 5 0 11 -4 15 -9z m425 -36 c0 -3 -9 -5 -20 -5 -15 0 -20 7
-20 25 l0 25 20 -20 c11 -11 20 -22 20 -25z m-11752 17 c3 -9 -2 -13 -14 -10
-9 1 -19 9 -22 16 -3 9 2 13 14 10 9 -1 19 -9 22 -16z m379 -22 c18 -16 44
-30 56 -30 24 -1 85 -45 75 -55 -9 -9 -45 3 -64 22 -13 14 -17 14 -25 2 -13
-20 -11 -29 4 -23 8 3 19 -7 28 -23 8 -15 19 -34 26 -40 24 -27 54 -83 48 -93
-11 -17 -39 -11 -53 11 -11 17 -20 20 -45 15 -40 -8 -77 -43 -77 -72 0 -13 -5
-26 -10 -29 -6 -4 -9 -1 -8 7 2 7 -4 12 -13 10 -21 -3 -43 40 -37 73 3 14 -1
42 -8 63 -18 50 -17 59 6 65 22 6 26 36 9 69 -13 23 -4 37 13 20 15 -15 58
-16 58 -1 0 6 -9 13 -20 16 -11 3 -20 9 -20 14 0 17 23 9 57 -21z m733 -65 c7
-25 19 -45 26 -45 15 0 54 -35 54 -48 0 -5 -6 -16 -13 -26 -11 -15 -17 -16
-40 -5 -21 9 -30 9 -41 0 -13 -11 -17 -4 -31 46 -9 32 -19 65 -21 73 -4 12 30
49 47 50 4 0 12 -20 19 -45z m-1042 6 c11 -7 11 -9 -1 -14 -16 -6 -27 0 -27
15 0 10 11 10 28 -1z m11280 -3 c15 -15 16 -41 0 -36 -13 5 -31 48 -20 48 5 0
13 -5 20 -12z m-10664 -117 c52 -93 145 -288 161 -339 4 -15 12 -21 22 -18 61
24 118 11 134 -30 18 -49 -17 -87 -73 -79 l-37 5 15 -52 c9 -28 20 -62 25 -75
5 -14 9 -25 9 -26 0 -1 -13 -2 -29 -3 -27 -1 -30 3 -47 60 -22 75 -61 171
-121 298 -35 73 -49 95 -61 90 -12 -4 -14 -1 -8 14 28 68 28 74 9 106 -13 23
-27 33 -44 33 -17 0 -32 12 -51 39 -26 38 -26 41 -11 67 24 41 43 25 107 -90z
m-473 93 c12 -14 11 -16 -5 -13 -11 2 -21 10 -24 17 -5 17 13 15 29 -4z
m11624 5 c11 -17 -1 -21 -15 -4 -8 9 -8 15 -2 15 6 0 14 -5 17 -11z m18 -86
c-6 -15 -23 -18 -23 -4 0 5 3 17 6 26 5 12 9 14 14 4 5 -7 6 -18 3 -26z m-193
9 c0 -20 24 -45 53 -55 10 -4 16 -11 12 -16 -3 -6 -12 -8 -20 -4 -11 4 -13 1
-9 -12 8 -19 11 -21 -64 41 -25 21 -25 21 -6 42 24 26 34 27 34 4z m-9690 -12
c0 -11 -7 -23 -15 -27 -21 -8 -28 1 -20 26 8 27 35 27 35 1z m9844 -5 c3 -8 1
-15 -4 -15 -6 0 -10 7 -10 15 0 8 2 15 4 15 2 0 6 -7 10 -15z m-11759 -24 c-7
-25 -25 -28 -25 -5 0 8 5 12 10 9 6 -3 10 2 10 11 0 10 3 15 6 11 3 -3 3 -15
-1 -26z m11572 -52 c-9 -15 -8 -25 6 -48 21 -36 21 -41 2 -41 -8 0 -15 5 -15
11 0 6 -11 24 -25 41 -23 27 -33 76 -19 91 4 3 19 -3 34 -15 24 -17 27 -24 17
-39z m-10448 -98 c27 -131 27 -151 2 -151 -11 0 -23 -6 -28 -12 -4 -8 -12 11
-20 47 -17 86 -16 108 8 123 14 9 19 21 17 40 -2 22 -8 27 -32 27 -16 1 -32 7
-34 14 -3 9 2 11 14 7 11 -3 26 -1 34 4 8 5 15 8 16 7 1 -1 11 -49 23 -106z
m-748 70 c-14 -25 11 -58 52 -66 44 -10 86 -41 93 -71 7 -28 38 -33 52 -8 7
12 13 4 30 -36 20 -47 20 -54 7 -73 -8 -12 -15 -29 -15 -39 0 -10 -7 -18 -15
-18 -30 0 -38 -64 -11 -82 6 -4 7 -10 4 -14 -6 -6 -43 31 -90 91 -19 25 -19
25 4 34 13 5 32 10 43 12 13 3 20 13 22 32 2 24 -4 31 -33 43 -44 19 -75 10
-73 -19 5 -60 1 -60 -66 0 -36 32 -65 63 -65 69 0 6 11 21 25 34 20 19 24 30
20 52 -8 34 3 90 16 82 5 -3 5 -12 0 -23z m-161 -16 c0 -24 32 -51 49 -41 5 3
11 -3 14 -14 4 -18 1 -19 -28 -16 -35 4 -84 34 -85 50 0 11 31 45 43 45 4 1 7
-10 7 -24z m11425 15 c3 -5 1 -10 -4 -10 -6 0 -11 5 -11 10 0 6 2 10 4 10 3 0
8 -4 11 -10z m-11510 -10 c3 -5 2 -10 -4 -10 -5 0 -13 5 -16 10 -3 6 -2 10 4
10 5 0 13 -4 16 -10z m11622 -95 c9 -25 -4 -29 -17 -6 -7 15 -7 21 0 21 6 0
13 -7 17 -15z m-9377 -73 c0 -26 -26 -40 -43 -23 -8 8 -7 11 6 11 12 0 17 9
17 33 0 24 3 28 10 17 5 -8 10 -25 10 -38z m8738 2 c26 -7 24 -30 -2 -28 -13
2 -15 -3 -10 -20 9 -29 24 -46 40 -46 8 0 14 -7 14 -15 0 -20 -6 -19 -30 5
-22 22 -69 27 -88 8 -9 -9 -15 -9 -23 -1 -8 8 -6 19 7 39 l18 27 -42 -5 c-23
-4 -42 -4 -42 -2 0 2 17 12 38 23 38 21 79 25 120 15z m-11018 -53 c0 -15 -27
-31 -43 -26 -12 5 -12 11 -3 30 8 18 14 21 28 14 10 -5 18 -13 18 -18z m11323
-79 l47 -47 -31 -14 c-16 -7 -31 -12 -33 -10 -1 2 -12 17 -24 33 -21 27 -31
86 -14 86 4 0 29 -21 55 -48z m467 44 c0 -3 -4 -8 -10 -11 -5 -3 -10 -1 -10 4
0 6 5 11 10 11 6 0 10 -2 10 -4z m-11817 -20 c6 -14 0 -26 -14 -26 -3 0 -9 9
-12 20 -6 23 18 28 26 6z m1105 -128 c29 -320 6 -684 -62 -1014 -20 -96 -25
-109 -42 -106 -10 2 -21 6 -23 8 -3 2 5 53 17 112 11 59 27 149 33 199 11 84
14 92 33 90 17 -2 21 4 21 28 0 22 -4 30 -17 29 -16 -2 -17 9 -11 125 5 103 9
130 24 147 24 26 24 41 -1 56 -17 11 -20 24 -20 93 -1 79 -14 244 -26 317 -5
34 -4 37 23 41 15 2 31 5 34 6 3 0 11 -59 17 -131z m9942 122 c13 -8 13 -10
-2 -10 -9 0 -20 5 -23 10 -8 13 5 13 25 0z m-163 -22 c-3 -8 -6 -5 -6 6 -1 11
2 17 5 13 3 -3 4 -12 1 -19z m-10189 -48 c12 -18 22 -37 22 -41 0 -19 -43 -51
-61 -46 -21 6 -20 -9 8 -87 13 -37 12 -39 -4 -23 -13 11 -23 13 -35 6 -13 -7
-20 -5 -27 10 -6 11 -8 27 -5 35 4 11 0 16 -14 16 -12 0 -28 10 -36 22 -15 20
-14 23 19 45 19 13 36 29 36 36 2 24 5 32 19 60 12 25 15 26 34 14 12 -8 31
-29 44 -47z m-718 30 c0 -5 -19 -9 -42 -9 l-43 2 35 7 c19 4 38 8 43 9 4 0 7
-3 7 -9z m11031 0 c16 -9 49 -58 49 -75 0 -12 -29 -4 -54 16 -15 12 -26 30
-26 45 0 27 3 28 31 14z m-61 -24 c0 -8 3 -21 6 -30 4 -12 0 -16 -15 -16 -12
0 -21 -6 -21 -16 0 -8 -4 -12 -10 -9 -15 10 -12 46 7 67 19 22 33 23 33 4z
m-9405 -41 c29 -28 31 -51 9 -83 -17 -24 -62 -30 -82 -10 -7 7 -12 30 -12 53
0 67 40 86 85 40z m9338 -27 c17 -28 17 -28 -7 -28 -26 0 -41 31 -23 49 6 6
11 10 12 8 1 -1 9 -14 18 -29z m-8715 0 c15 -15 16 -79 0 -113 -18 -40 -85
-32 -89 10 -4 42 2 63 26 89 26 28 44 33 63 14z m9242 -12 c0 -3 -4 -8 -10
-11 -5 -3 -10 -1 -10 4 0 6 5 11 10 11 6 0 10 -2 10 -4z m-370 -26 c12 -8 11
-10 -7 -10 -13 0 -23 5 -23 10 0 13 11 13 30 0z m143 -7 c-7 -3 -13 -12 -13
-20 0 -12 -3 -13 -13 -4 -8 6 -17 8 -20 4 -4 -3 -7 -2 -7 3 0 11 52 33 60 26
3 -3 -1 -7 -7 -9z m317 -13 c0 -4 -13 -5 -30 -2 -16 2 -30 10 -30 17 0 11 6
11 30 2 17 -6 30 -14 30 -17z m-543 -12 c7 -5 27 -7 45 -3 l33 7 -21 -21 c-27
-29 -94 -41 -94 -17 0 9 -11 21 -25 26 -14 5 -25 14 -25 19 0 12 70 2 87 -11z
m-542 -8 c3 -5 4 -10 1 -10 -2 0 -12 -3 -20 -6 -12 -5 -15 -2 -10 10 7 18 20
21 29 6z m1020 -21 c-7 -51 -32 -70 -65 -49 -12 7 -10 13 13 34 15 14 27 30
27 36 0 5 6 10 14 10 10 0 13 -9 11 -31z m-91 -31 c-6 -9 -64 11 -64 22 0 5 8
13 17 18 12 7 21 4 34 -12 9 -11 15 -24 13 -28z m-204 35 c0 -20 -22 -83 -29
-83 -4 0 -3 20 3 45 6 25 14 45 18 45 5 0 8 -3 8 -7z m-666 -19 c5 -12 2 -15
-10 -10 -8 3 -20 6 -25 6 -6 0 -7 5 -4 10 10 15 32 12 39 -6z m-9627 -90 c27
-107 27 -104 8 -104 -21 0 -19 -16 5 -33 24 -16 42 -102 63 -287 9 -81 10
-117 3 -122 -7 -6 -6 -11 3 -17 12 -8 15 -49 15 -225 1 -118 4 -208 7 -199 3
9 18 17 32 19 l28 3 -26 -30 c-26 -32 -33 -75 -14 -81 15 -5 -39 -184 -134
-447 -35 -98 -42 -111 -48 -88 -5 18 3 59 22 124 44 144 78 326 86 449 3 65
12 118 20 130 12 19 12 22 -2 27 -24 10 -20 91 7 127 17 24 19 32 8 45 -7 8
-19 15 -26 15 -8 0 -14 6 -14 13 0 6 -5 65 -10 130 -7 88 -7 122 2 136 9 15 9
23 -3 37 -15 19 -60 269 -52 291 3 7 0 20 -6 27 -8 10 -51 137 -51 151 0 0 12
0 27 -1 26 -1 28 -6 50 -90z m-553 70 c11 -28 6 -61 -10 -74 -12 -11 -18 -10
-31 3 -15 15 -14 18 8 37 16 15 20 23 12 26 -17 7 -16 24 1 24 8 0 17 -7 20
-16z m1556 1 c0 -16 -27 -32 -37 -22 -3 4 -3 13 0 22 8 20 37 20 37 0z m9330
-5 c0 -5 -2 -10 -4 -10 -3 0 -8 5 -11 10 -3 6 -1 10 4 10 6 0 11 -4 11 -10z
m185 -30 c3 -5 1 -10 -4 -10 -6 0 -11 5 -11 10 0 6 2 10 4 10 3 0 8 -4 11 -10z
m-11695 -21 c0 -8 4 -8 13 0 11 8 13 5 9 -19 -4 -28 -5 -29 -28 -13 -27 17
-32 43 -9 43 8 0 15 -5 15 -11z m11545 -37 c-11 -11 -34 8 -28 24 6 15 7 15
20 -1 7 -10 11 -21 8 -23z m-11055 8 c0 -5 -4 -10 -10 -10 -5 0 -10 5 -10 10
0 6 5 10 10 10 6 0 10 -4 10 -10z m-190 -40 c0 -5 -5 -10 -11 -10 -5 0 -7 5
-4 10 3 6 8 10 11 10 2 0 4 -4 4 -10z m390 -20 c6 -11 15 -18 19 -16 5 3 16
-3 25 -13 13 -14 14 -24 7 -45 -13 -34 -4 -59 20 -53 23 6 25 -6 3 -24 -13
-10 -17 -10 -24 2 -5 8 -17 14 -27 14 -22 0 -33 55 -11 55 8 1 7 4 -4 10 -16
10 -48 64 -48 82 0 16 30 8 40 -12z m369 -55 c0 -5 -8 6 -18 25 -11 19 -16 39
-13 44 5 9 30 -46 31 -69z m-689 46 c-13 -26 -5 -44 30 -65 31 -18 47 -54 36
-82 -6 -15 -9 -14 -31 6 -14 13 -25 34 -25 46 0 13 -9 28 -20 34 -24 13 -25
28 -4 58 19 27 28 29 14 3z m-182 -30 c-14 -5 -31 15 -23 29 5 8 11 6 20 -7 9
-11 10 -19 3 -22z m282 17 c0 -19 -32 -48 -52 -48 -26 0 -22 19 7 30 14 5 25
17 25 25 0 9 5 13 10 10 6 -3 10 -11 10 -17z m9800 -28 c-16 -12 -41 -20 -68
-20 -127 0 -371 -40 -528 -86 -264 -76 -529 -219 -701 -378 -39 -36 -75 -66
-79 -65 -5 0 -26 20 -47 44 l-38 43 78 49 c342 219 710 355 1098 407 135 18
176 22 255 24 l55 2 -25 -20z m1075 -26 c31 -3 85 20 85 36 0 16 46 12 60 -5
9 -11 9 -22 1 -46 -6 -18 -11 -56 -11 -85 0 -48 -2 -54 -21 -54 -13 0 -23 -8
-26 -20 -3 -12 -9 -20 -14 -18 -4 2 -36 31 -71 64 -35 34 -89 79 -121 101
l-57 41 57 14 c55 13 59 13 74 -5 9 -11 29 -21 44 -23z m201 24 c-18 -10 -39
-2 -31 12 3 4 15 6 26 3 19 -5 19 -7 5 -15z m-10958 -16 c2 -12 -1 -22 -6 -22
-15 0 -34 28 -27 40 10 17 30 6 33 -18z m11047 8 c16 13 55 1 55 -18 0 -8 8
-24 17 -34 16 -18 16 -18 -3 -12 -38 14 -104 56 -104 67 0 8 4 7 12 -1 7 -7
16 -8 23 -2z m-11315 -61 c0 -11 -4 -17 -10 -14 -5 3 -10 15 -10 26 0 11 5 17
10 14 6 -3 10 -15 10 -26z m11422 -39 c-2 -22 -8 -40 -13 -40 -6 0 -8 12 -5
28 2 15 5 33 5 40 1 6 4 12 9 12 4 0 6 -18 4 -40z m-11369 3 c19 -37 28 -101
16 -108 -8 -5 -14 23 -10 47 1 12 -51 48 -70 48 -26 0 -24 13 4 26 35 18 46
16 60 -13z m330 -40 c7 -34 -1 -41 -21 -21 -13 13 -16 50 -5 62 10 10 20 -5
26 -41z m31 28 c4 -5 3 -17 0 -26 -5 -13 -8 -14 -15 -3 -5 7 -9 19 -9 26 0 14
16 16 24 3z m146 -93 c0 -35 16 -62 41 -70 8 -3 -1 -25 -24 -60 -40 -63 -51
-72 -89 -74 -20 -1 -27 4 -31 23 -3 18 -1 23 9 19 8 -3 14 1 14 10 0 10 6 14
14 11 41 -16 47 50 11 121 -31 61 -31 65 -2 94 l22 23 17 -30 c9 -16 17 -47
18 -67z m9131 -4 c-48 -50 -113 -125 -144 -167 -50 -66 -64 -78 -112 -96 -131
-49 -316 -151 -414 -228 -25 -20 -83 -73 -128 -116 l-82 -80 -28 48 c-15 27
-52 84 -80 128 -29 44 -53 83 -53 87 0 4 28 34 63 67 230 220 545 369 907 427
82 14 151 23 157 21 1 0 -37 -41 -86 -91z m-8221 76 c27 -15 42 -76 29 -122
-17 -64 -89 -93 -95 -38 -1 14 -6 54 -10 89 -6 56 -5 64 9 58 9 -3 18 0 21 9
6 17 20 18 46 4z m9917 -22 c-3 -8 -6 -5 -6 6 -1 11 2 17 5 13 3 -3 4 -12 1
-19z m-11473 -13 c3 -8 1 -15 -4 -15 -6 0 -10 7 -10 15 0 8 2 15 4 15 2 0 6
-7 10 -15z m295 12 c-2 -1 -13 -9 -24 -17 -19 -14 -19 -14 -6 3 7 9 18 17 24
17 6 0 8 -1 6 -3z m-319 -47 c0 -11 -4 -20 -10 -20 -5 0 -10 9 -10 20 0 11 5
20 10 20 6 0 10 -9 10 -20z m580 -2 c0 -6 -7 -7 -16 -4 -8 3 -13 2 -10 -3 3
-5 0 -23 -7 -41 -11 -26 -16 -29 -26 -17 -9 12 -7 22 11 49 21 32 48 41 48 16z
m10760 -3 c0 -8 -4 -15 -9 -15 -5 0 -11 7 -15 15 -3 9 0 15 9 15 8 0 15 -7 15
-15z m-11310 -55 c13 -8 13 -10 -2 -10 -9 0 -20 5 -23 10 -8 13 5 13 25 0z
m11440 -5 c0 -9 -6 -12 -15 -9 -8 4 -15 10 -15 15 0 5 7 9 15 9 8 0 15 -7 15
-15z m-11550 -36 c0 -5 -4 -9 -10 -9 -5 0 -10 7 -10 16 0 8 5 12 10 9 6 -3 10
-10 10 -16z m829 -84 c21 -80 51 -250 51 -282 -1 -10 -10 1 -22 25 -25 51 -61
80 -81 64 -7 -6 -23 -9 -36 -5 -17 4 -23 1 -28 -16 -3 -11 -9 -18 -14 -15 -15
9 -10 34 6 34 8 0 15 5 15 10 0 6 -13 10 -30 10 -26 0 -30 3 -30 29 0 31 22
57 40 46 5 -3 10 -17 10 -31 0 -37 24 -57 60 -49 32 7 62 46 42 53 -6 2 -14
19 -18 37 -4 22 -11 32 -19 29 -8 -3 -15 6 -18 23 -6 34 -2 40 18 23 14 -12
15 -11 5 12 -10 20 -9 31 5 58 9 17 18 30 20 28 2 -2 13 -39 24 -83z m-591 53
c3 -15 -1 -16 -19 -9 -31 11 -35 29 -7 27 13 -1 24 -8 26 -18z m342 12 c0 -5
-4 -10 -10 -10 -5 0 -10 5 -10 10 0 6 5 10 10 10 6 0 10 -4 10 -10z m-255 -30
c0 -7 -5 -15 -10 -17 -6 -2 -11 6 -11 17 0 11 5 19 11 17 5 -2 10 -10 10 -17z
m2665 -20 c0 -21 -34 -45 -50 -35 -24 15 -1 55 32 55 11 0 18 -7 18 -20z
m8620 -6 c0 -12 -4 -12 -20 -4 -11 6 -18 15 -15 20 8 13 35 0 35 -16z m-11232
-26 c2 -12 -3 -18 -14 -18 -9 0 -30 -14 -46 -30 l-28 -30 2 32 c4 55 77 93 86
46z m272 -34 c0 -16 -26 -19 -35 -4 -4 6 -4 18 -1 27 5 12 9 13 21 3 8 -7 15
-19 15 -26z m-120 -25 c0 -5 -4 -9 -10 -9 -5 0 -10 -4 -10 -10 0 -5 7 -10 15
-10 8 0 15 7 15 15 0 8 3 15 8 16 4 0 19 3 33 5 15 2 31 -2 37 -9 9 -10 1 -16
-36 -27 -26 -7 -60 -24 -75 -37 l-29 -23 41 0 c23 0 50 5 61 10 11 6 29 15 40
20 21 11 28 -3 12 -26 -12 -19 -50 -35 -57 -24 -7 11 -35 2 -35 -12 0 -5 6 -8
13 -6 14 3 17 -3 17 -29 0 -11 -3 -14 -8 -7 -4 6 -20 14 -37 18 -16 4 -38 15
-47 23 -17 15 -18 14 -18 -7 0 -22 -1 -23 -20 -5 -14 13 -20 31 -20 63 0 44 0
45 20 27 17 -16 20 -16 20 -2 0 22 42 66 57 60 7 -3 13 -9 13 -14z m2215 -13
c0 -20 -9 -35 -27 -49 -26 -19 -26 -19 -48 1 -18 16 -20 24 -11 41 14 26 41
41 66 38 15 -1 20 -9 20 -31z m-842 18 c11 -11 -5 -34 -24 -34 -18 0 -26 20
-12 33 8 9 28 9 36 1z m-1553 -22 c0 -5 -9 -17 -20 -27 -23 -21 -26 -14 -8 15
13 20 28 27 28 12z m9270 -70 c-91 -149 -191 -401 -234 -592 l-23 -105 -15 35
c-9 19 -43 66 -76 103 -34 38 -63 78 -65 90 -2 12 -5 4 -6 -19 -1 -41 18 -79
75 -147 30 -36 32 -77 5 -77 -45 0 -91 100 -91 195 0 73 -20 43 -27 -42 -5
-61 -2 -77 19 -125 27 -58 68 -96 131 -123 l36 -15 0 -110 c-1 -64 -5 -110
-10 -110 -17 0 -116 100 -133 133 -8 18 -27 82 -42 144 -27 110 -28 112 -12
205 33 201 136 378 280 485 52 38 197 123 210 123 4 0 -5 -22 -22 -48z m-9530
9 c0 -12 -20 -25 -27 -18 -7 7 6 27 18 27 5 0 9 -4 9 -9z m9275 -114 c-82 -84
-145 -172 -185 -261 -31 -68 -60 -168 -61 -212 l0 -29 -11 25 c-6 14 -29 63
-50 109 -21 46 -38 90 -38 97 0 22 160 176 247 237 63 44 160 106 169 107 1 0
-31 -33 -71 -73z m-9085 12 c0 -6 -4 -7 -10 -4 -5 3 -10 11 -10 16 0 6 5 7 10
4 6 -3 10 -11 10 -16z m450 -26 c-1 -18 -18 -35 -24 -24 -4 6 -4 16 -1 21 7
12 25 13 25 3z m72 -31 c67 -32 77 -83 27 -145 -20 -26 -59 -37 -59 -17 0 6
-9 10 -20 10 -24 0 -27 7 -33 77 -3 45 -1 53 15 59 14 4 18 12 15 26 -3 10 -2
18 1 16 4 -2 28 -14 54 -26z m-386 7 c4 -8 -1 -9 -16 -4 -19 6 -22 4 -17 -10
4 -9 7 -19 7 -21 0 -2 8 -4 17 -4 13 0 14 -3 6 -11 -19 -19 -43 -2 -43 31 0
23 4 30 19 30 11 0 23 -5 27 -11z m190 -94 c8 -20 31 -19 43 3 9 16 10 16 17
-1 8 -21 5 -24 -21 -27 -42 -5 -76 0 -70 10 3 6 1 10 -5 10 -6 0 -8 5 -5 10 9
15 35 12 41 -5z m-106 -15 c-6 -11 -15 -18 -21 -14 -6 4 -6 11 2 20 17 21 31
17 19 -6z m389 -77 l0 -48 -16 32 c-16 31 -13 63 7 63 5 0 10 -21 9 -47z
m-259 18 c16 -31 12 -51 -10 -51 -11 0 -23 -7 -26 -15 -4 -8 -12 -15 -20 -15
-7 0 -19 -9 -27 -21 -9 -12 -18 -16 -21 -10 -4 5 -2 12 3 16 7 4 6 14 -1 30
-12 27 -31 24 -21 -3 3 -9 3 -14 -2 -10 -14 13 -35 -13 -29 -37 3 -13 1 -26
-5 -29 -6 -4 -11 -2 -11 3 0 6 -6 11 -14 11 -21 0 -46 40 -46 72 0 27 18 38
60 36 8 0 32 3 52 7 34 6 39 5 49 -19 16 -34 31 -34 18 1 -5 14 -8 32 -5 40 8
20 44 16 56 -6z m40 -51 c0 -5 -5 -10 -11 -10 -5 0 -7 5 -4 10 3 6 8 10 11 10
2 0 4 -4 4 -10z m217 -72 c-3 -8 -6 -5 -6 6 -1 11 2 17 5 13 3 -3 4 -12 1 -19z
m-484 -18 c3 -12 0 -20 -8 -20 -14 0 -27 25 -18 34 11 11 21 6 26 -14z m433 5
c10 -8 26 -15 34 -15 12 0 14 -11 12 -47 -5 -82 -9 -91 -36 -86 -28 6 -61 -33
-50 -61 4 -9 1 -16 -6 -16 -7 0 -18 -7 -24 -15 -8 -11 -19 -13 -41 -7 -41 11
-43 36 -5 52 16 7 30 16 30 20 0 4 14 10 31 14 18 3 28 10 24 17 -4 6 -16 9
-26 6 -34 -9 -31 13 6 48 34 33 35 36 21 57 -30 43 -11 64 30 33z m-556 -5 c0
-5 -4 -10 -10 -10 -5 0 -10 5 -10 10 0 6 5 10 10 10 6 0 10 -4 10 -10z m321
-10 c6 0 7 -4 4 -10 -10 -16 -45 -12 -45 6 0 11 5 14 16 10 9 -3 20 -6 25 -6z
m-211 -61 c0 -10 -4 -19 -9 -19 -10 0 -21 36 -14 44 10 10 23 -5 23 -25z m10
-131 c0 -16 -40 -78 -51 -78 -5 0 -9 -11 -9 -25 0 -14 -4 -25 -10 -25 -5 0
-10 -16 -10 -35 0 -27 4 -35 18 -35 23 0 37 10 51 38 l13 24 15 -21 c11 -17
12 -25 3 -36 -6 -8 -9 -19 -6 -24 11 -17 -10 -21 -30 -6 -23 17 -43 20 -26 3
7 -7 12 -19 12 -28 0 -13 -7 -15 -30 -12 -26 4 -30 9 -31 36 0 17 -4 40 -9 51
-7 18 -8 19 -15 3 -8 -20 -45 -25 -45 -6 0 9 -3 9 -12 0 -7 -7 -16 -12 -20
-12 -13 0 -9 28 7 43 8 8 11 17 8 21 -4 3 5 6 20 6 28 0 42 25 31 54 -4 11 5
27 27 49 27 26 39 32 66 29 18 -2 33 -9 33 -14z m194 14 c3 -5 8 -28 12 -50 6
-40 5 -42 -18 -42 -34 0 -76 22 -82 43 -9 34 70 78 88 49z m262 -79 c-3 -8 -6
-21 -6 -29 0 -11 -4 -12 -19 -2 -10 6 -18 21 -17 33 1 17 6 20 24 17 15 -3 21
-10 18 -19z m-91 -23 c20 -8 25 -15 20 -30 -10 -32 4 -43 31 -25 13 8 24 13
24 9 0 -19 -33 -131 -42 -141 -6 -7 -8 -13 -5 -13 3 0 -7 -30 -22 -67 -18 -45
-34 -69 -46 -72 -15 -3 -17 0 -8 10 6 8 11 27 11 42 0 15 7 36 16 46 9 10 13
21 9 25 -5 4 -11 44 -14 89 -3 45 -9 94 -14 110 -8 30 -1 33 40 17z m-895 -50
c0 -5 -7 -10 -16 -10 -8 0 -12 5 -9 10 3 6 10 10 16 10 5 0 9 -4 9 -10z m630
-65 c0 -19 -4 -35 -10 -35 -5 0 -10 16 -10 35 0 19 5 35 10 35 6 0 10 -16 10
-35z m-540 -25 c0 -5 -4 -10 -10 -10 -5 0 -10 5 -10 10 0 6 5 10 10 10 6 0 10
-4 10 -10z m668 -83 c3 -41 1 -47 -16 -47 -27 0 -48 26 -27 34 18 7 20 32 3
39 -10 4 -9 8 2 16 25 18 35 7 38 -42z m8697 -93 c20 -5 23 -16 34 -112 22
-209 73 -391 152 -556 21 -45 39 -86 39 -92 0 -24 -27 -21 -50 5 l-25 27 -28
-20 c-40 -29 -57 -9 -29 36 l21 33 -42 12 c-35 10 -45 10 -64 -2 -27 -18 -72
-20 -78 -2 -2 6 -6 37 -8 67 l-5 55 33 -37 c24 -29 34 -35 43 -26 7 7 12 18
12 24 0 7 9 19 21 28 17 11 20 20 14 46 -5 21 -11 30 -21 26 -7 -3 -37 -8 -64
-12 -46 -6 -52 -10 -65 -40 -18 -43 -26 -44 -18 -1 3 17 21 52 40 76 18 25 36
55 39 68 4 13 12 22 18 20 41 -15 54 -16 64 -4 15 17 -10 54 -44 67 -15 6 -24
18 -24 30 0 11 -6 36 -14 55 -11 25 -11 35 -3 38 9 3 9 8 -1 20 -8 9 -19 14
-26 11 -10 -4 -15 18 -20 88 -4 51 -10 109 -13 128 l-6 34 48 -42 c27 -23 58
-45 70 -48z m-8947 64 c-3 -7 -15 -15 -28 -16 -21 -3 -22 -2 -11 12 16 19 44
21 39 4z m591 -10 c0 -7 -7 -29 -14 -48 l-13 -35 -1 41 c-1 22 2 44 6 47 11
11 23 8 22 -5z m-469 -28 c0 -5 -4 -10 -10 -10 -5 0 -10 5 -10 10 0 6 5 10 10
10 6 0 10 -4 10 -10z m60 -4 c0 -8 3 -21 6 -30 4 -10 1 -16 -9 -16 -21 0 -27
12 -20 38 6 24 23 30 23 8z m-90 -56 c38 -18 17 -70 -29 -71 -24 0 -25 -1 -5
-9 28 -11 54 -48 47 -66 -3 -9 -20 -14 -43 -14 -28 0 -39 -5 -48 -22 -6 -13
-11 -18 -11 -11 -1 7 -7 10 -15 7 -17 -6 -31 12 -16 21 6 4 8 10 5 15 -3 5 -1
11 5 15 5 3 10 -1 10 -9 0 -9 5 -16 10 -16 6 0 10 5 10 10 0 6 7 10 15 10 9 0
15 9 15 23 0 27 -10 41 -32 50 -13 5 -15 12 -8 43 10 44 26 56 54 42 12 -6 28
-14 36 -18z m-140 -14 c0 -8 3 -23 6 -33 5 -12 4 -15 -3 -8 -16 15 -26 55 -14
55 6 0 11 -6 11 -14z m598 -11 c-7 -16 -15 -22 -21 -16 -13 13 -1 41 17 41 13
0 14 -4 4 -25z m-323 -25 c0 -30 -29 -50 -47 -32 -11 11 -10 15 5 23 9 6 17
17 17 25 0 9 6 14 13 12 6 -3 12 -15 12 -28z m81 -6 c-4 -9 -9 -15 -11 -12 -3
3 -3 13 1 22 4 9 9 15 11 12 3 -3 3 -13 -1 -22z m204 -24 c0 -5 -5 -10 -11
-10 -5 0 -7 5 -4 10 3 6 8 10 11 10 2 0 4 -4 4 -10z m-270 -25 c0 -8 -4 -15
-9 -15 -13 0 -22 16 -14 24 11 11 23 6 23 -9z m253 -50 c-18 -37 -33 -46 -33
-19 0 24 19 54 35 54 12 0 12 -5 -2 -35z m-563 -3 c0 -2 -10 -12 -22 -22 -17
-13 -27 -15 -35 -8 -23 19 -14 33 22 33 19 0 35 -2 35 -3z m273 -6 c8 -20 -21
-56 -38 -50 -23 9 -18 34 6 34 15 0 19 5 15 15 -3 8 -1 15 3 15 5 0 11 -6 14
-14z m267 -42 c0 -15 -36 -74 -45 -74 -23 0 -24 13 -5 40 11 16 20 33 20 39 0
6 7 8 15 5 8 -4 15 -8 15 -10z m-485 -13 c3 -5 1 -12 -4 -15 -5 -3 -11 1 -15
9 -6 16 9 21 19 6z m125 -16 c0 -26 -13 -38 -47 -42 -23 -4 -40 12 -23 22 5 3
10 14 10 24 0 13 8 18 30 19 25 1 30 -3 30 -23z m-210 -39 c0 -25 -12 -46 -26
-46 -9 0 -14 11 -14 30 0 23 4 30 20 30 11 0 20 -6 20 -14z m8960 -1 c0 -8 -4
-15 -10 -15 -5 0 -10 7 -10 15 0 8 5 15 10 15 6 0 10 -7 10 -15z m-9120 -20
c0 -8 -2 -15 -4 -15 -2 0 -6 7 -10 15 -3 8 -1 15 4 15 6 0 10 -7 10 -15z m484
-27 c-8 -53 -12 -58 -29 -34 -12 16 -12 23 1 47 22 43 35 36 28 -13z m187 -15
c-10 -17 -10 -16 -11 3 0 23 13 41 18 25 2 -6 -1 -18 -7 -28z m189 28 c0 -6
-4 -13 -10 -16 -5 -3 -10 1 -10 9 0 9 5 16 10 16 6 0 10 -4 10 -9z m-670 -31
c0 -6 6 -10 13 -8 17 3 57 -12 57 -22 0 -22 -43 -21 -66 1 -25 24 -31 39 -14
39 6 0 10 -5 10 -10z m-20 -30 c8 -14 8 -26 0 -41 -15 -26 -35 -19 -36 12 0
14 -3 30 -8 37 -5 8 0 12 13 12 11 0 25 -9 31 -20z m180 -42 c0 -5 -4 -8 -10
-8 -5 0 -10 7 -10 15 0 8 -4 15 -10 15 -5 0 -10 8 -10 18 0 14 4 12 20 -8 11
-14 20 -28 20 -32z m100 22 c26 0 27 -36 0 -45 -16 -5 -18 -10 -10 -31 12 -32
12 -34 0 -34 -6 0 -15 10 -19 23 -9 22 -9 21 -21 -8 -14 -37 -29 -46 -52 -34
-19 10 -25 59 -7 59 6 0 8 -9 4 -20 -3 -11 -4 -20 -1 -20 12 0 46 35 46 48 0
7 5 10 10 7 6 -4 10 5 10 19 0 16 -6 26 -14 26 -18 0 -29 17 -21 31 5 7 15 5
31 -5 13 -9 32 -16 44 -16z m190 -10 c-13 -32 -17 -34 -39 -21 -10 7 -11 13
-2 30 7 12 16 19 21 16 5 -3 12 0 15 6 14 21 17 -1 5 -31z m-30 -61 c-12 -21
-40 -23 -47 -2 -2 6 8 13 24 16 15 2 29 5 31 6 1 0 -2 -8 -8 -20z m168 13 c9
-6 10 -16 2 -38 -9 -26 -15 -29 -51 -29 -35 0 -38 1 -23 12 10 7 22 13 27 13
5 0 4 7 -3 15 -22 27 15 48 48 27z m-698 -48 c0 -16 -26 -19 -35 -4 -3 6 -4
14 0 20 8 13 35 1 35 -16z m360 -51 c0 -22 -2 -25 -10 -13 -13 20 -13 40 0 40
6 0 10 -12 10 -27z m260 2 c0 -8 4 -15 9 -15 22 0 18 -35 -12 -99 -31 -67 -47
-87 -47 -57 0 8 6 17 13 20 6 3 0 3 -14 0 -15 -3 -30 -1 -33 4 -9 15 4 42 21
42 25 0 42 32 43 78 0 23 5 42 10 42 6 0 10 -7 10 -15z m-440 -16 c0 -6 -4 -7
-10 -4 -5 3 -10 11 -10 16 0 6 5 7 10 4 6 -3 10 -11 10 -16z m-230 -4 c-7 -8
-17 -12 -22 -9 -6 4 -5 10 3 15 22 14 33 10 19 -6z m530 8 c0 -5 -5 -15 -10
-23 -8 -12 -10 -11 -10 8 0 12 5 22 10 22 6 0 10 -3 10 -7z m8524 -64 c-13
-21 -31 -8 -26 18 5 24 6 25 18 8 7 -10 11 -22 8 -26z m-8576 19 c16 -16 15
-48 -2 -48 -20 0 -37 25 -30 44 7 19 16 20 32 4z m6245 -202 c-3 -22 -10 -46
-14 -52 -9 -11 -2 -24 13 -24 5 0 6 5 3 10 -8 13 11 13 34 0 26 -13 33 -39 17
-56 -8 -7 -16 -18 -18 -22 -1 -5 -13 -13 -25 -16 -18 -6 -23 -3 -23 11 0 28
-20 43 -56 43 l-32 0 13 43 c11 37 22 98 42 227 5 33 6 30 28 -44 15 -51 21
-93 18 -120z m2385 126 c35 -23 46 -50 29 -70 -8 -9 -17 -25 -20 -34 -5 -14
-18 -18 -61 -18 -50 0 -87 18 -57 28 8 3 9 8 2 16 -13 16 9 94 28 99 22 4 52
-4 79 -21z m-8728 -7 c0 -8 -7 -15 -16 -15 -14 0 -14 3 -4 15 7 8 14 15 16 15
2 0 4 -7 4 -15z m730 -22 c0 -26 -11 -54 -33 -87 -17 -27 -43 -70 -57 -95 -18
-31 -32 -45 -48 -46 -16 -1 -21 3 -18 12 9 23 146 253 151 253 3 0 5 -17 5
-37z m-682 -16 c7 -34 -7 -69 -25 -63 -12 5 -14 1 -9 -19 7 -28 1 -32 -20 -11
-10 11 -12 21 -5 38 5 13 12 36 16 51 7 32 37 34 43 4z m-389 -6 c8 -14 7 -22
-4 -31 -21 -18 -45 -5 -45 25 0 31 34 35 49 6z m71 -65 c0 -13 -7 -30 -17 -37
-15 -13 -15 -12 -5 8 7 12 9 29 6 37 -3 9 -1 16 5 16 6 0 11 -11 11 -24z m-47
-2 c7 -7 -14 -44 -25 -44 -5 0 -8 8 -8 18 0 27 18 41 33 26z m9392 -34 c3 -5
1 -10 -4 -10 -6 0 -11 5 -11 10 0 6 2 10 4 10 3 0 8 -4 11 -10z m-8881 -25
c-4 -8 -8 -15 -10 -15 -2 0 -4 7 -4 15 0 8 4 15 10 15 5 0 7 -7 4 -15z m8513
-1 c-3 -3 -12 -4 -19 -1 -8 3 -5 6 6 6 11 1 17 -2 13 -5z m-8557 -25 c0 -11
-4 -17 -10 -14 -5 3 -10 13 -10 21 0 8 5 14 10 14 6 0 10 -9 10 -21z m8970 12
c0 -12 -30 -22 -43 -14 -7 4 -3 9 9 14 26 10 34 10 34 0z m2150 -6 c0 -8 -4
-15 -10 -15 -5 0 -10 7 -10 15 0 8 5 15 10 15 6 0 10 -7 10 -15z m-11560 -30
c0 -8 -4 -15 -10 -15 -5 0 -7 7 -4 15 4 8 8 15 10 15 2 0 4 -7 4 -15z m9437
-31 c-15 -8 -29 -9 -50 -1 -28 9 -29 11 -12 24 22 16 35 17 35 3 0 -5 5 -10
10 -10 6 0 10 8 10 17 0 15 2 14 14 -3 13 -17 12 -20 -7 -30z m-227 6 c0 -20
-5 -30 -15 -30 -8 0 -12 6 -10 15 3 8 7 22 10 30 7 25 15 17 15 -15z m-102 8
c19 -19 14 -29 -8 -16 -20 13 -27 28 -12 28 4 0 13 -5 20 -12z m352 -28 c0 -5
-5 -10 -11 -10 -5 0 -7 5 -4 10 3 6 8 10 11 10 2 0 4 -4 4 -10z m2155 -1 c10
-15 2 -19 -23 -12 -12 3 -19 9 -16 14 7 12 31 11 39 -2z m-11440 -9 c3 -5 1
-10 -4 -10 -6 0 -11 5 -11 10 0 6 2 10 4 10 3 0 8 -4 11 -10z m709 -15 c-4 -8
-10 -12 -15 -9 -11 6 -2 24 11 24 5 0 7 -7 4 -15z m8281 -6 c-7 -10 -35 -1
-35 11 0 5 9 6 20 3 11 -3 17 -9 15 -14z m-9285 7 c0 -3 -4 -8 -10 -11 -5 -3
-10 -1 -10 4 0 6 5 11 10 11 6 0 10 -2 10 -4z m178 -8 c-2 -6 -10 -14 -16 -16
-7 -2 -10 2 -6 12 7 18 28 22 22 4z m6686 -40 c35 -6 27 -23 -16 -39 -38 -14
-43 -20 -46 -50 l-4 -33 -18 24 -19 25 -10 -25 c-11 -28 -11 -28 -15 17 -4 39
16 62 38 44 11 -9 15 -6 21 16 10 42 25 57 39 39 6 -8 20 -16 30 -18z m2336
-3 c0 -8 -2 -15 -4 -15 -2 0 -6 7 -10 15 -3 8 -1 15 4 15 6 0 10 -7 10 -15z
m101 -28 c-6 -8 -8 -17 -4 -20 3 -4 0 -7 -9 -7 -8 0 -18 3 -21 7 -10 9 13 33
30 33 12 0 13 -3 4 -13z m-8357 -22 c-9 -14 -19 -24 -21 -21 -7 7 16 46 28 46
5 0 2 -11 -7 -25z m-744 5 c0 -5 -4 -10 -10 -10 -5 0 -10 5 -10 10 0 6 5 10
10 10 6 0 10 -4 10 -10z m1060 -21 c10 -17 8 -21 -9 -26 -12 -3 -21 -9 -21
-14 0 -16 -18 -9 -23 9 -3 17 19 52 34 52 5 0 13 -9 19 -21z m7995 11 c11 -17
-5 -32 -21 -19 -8 6 -14 15 -14 20 0 12 27 11 35 -1z m-45 -26 c0 -8 -4 -12
-10 -9 -5 3 -10 13 -10 21 0 8 5 12 10 9 6 -3 10 -13 10 -21z m511 -27 c-18
-18 -13 -25 15 -19 20 4 25 1 22 -9 -3 -8 -13 -16 -24 -18 -10 -2 -23 -9 -27
-17 -4 -8 -15 -14 -24 -14 -14 0 -14 2 2 14 16 12 17 18 8 39 -10 22 -9 27 10
40 23 16 37 3 18 -16z m-3071 -5 c0 -15 -2 -15 -10 -2 -13 20 -13 33 0 25 6
-3 10 -14 10 -23z m3194 -8 c16 -6 23 -34 8 -34 -10 0 -32 22 -32 32 0 10 3
10 24 2z m-9642 -46 c-6 -6 -15 -8 -19 -4 -4 4 -1 11 7 16 19 12 27 3 12 -12z
m9438 -9 c0 -5 -8 -6 -17 -3 -15 5 -15 3 1 -10 11 -9 29 -16 40 -16 20 0 20 0
-2 -15 -19 -14 -24 -14 -47 1 -27 17 -32 43 -13 62 12 12 38 -1 38 -19z m-825
11 c3 -5 2 -10 -4 -10 -5 0 -13 5 -16 10 -3 6 -2 10 4 10 5 0 13 -4 16 -10z
m-7942 -6 c9 -9 -4 -35 -14 -28 -5 3 -9 12 -9 20 0 14 12 19 23 8z m10132 -14
c3 -5 1 -10 -4 -10 -6 0 -11 5 -11 10 0 6 2 10 4 10 3 0 8 -4 11 -10z m-9911
-51 c-10 -17 -44 -10 -44 9 0 10 3 22 7 25 9 9 44 -23 37 -34z m9016 -3 c0 -3
-4 -8 -10 -11 -5 -3 -10 -1 -10 4 0 6 5 11 10 11 6 0 10 -2 10 -4z m660 -26
c0 -5 -4 -10 -10 -10 -5 0 -10 5 -10 10 0 6 5 10 10 10 6 0 10 -4 10 -10z m30
0 c0 -5 -5 -10 -11 -10 -5 0 -7 5 -4 10 3 6 8 10 11 10 2 0 4 -4 4 -10z
m-6206 -50 c6 -33 4 -35 -24 -37 -35 -3 -36 3 -13 52 19 40 28 36 37 -15z m56
6 c0 -5 -7 -3 -15 4 -8 7 -15 20 -15 28 0 13 3 12 15 -4 8 -10 15 -23 15 -28z
m6094 28 c23 -9 20 -24 -4 -24 -11 0 -20 7 -20 15 0 17 2 18 24 9z m-9297 -60
c-3 -3 -13 1 -22 9 -8 9 -15 21 -15 29 0 7 9 4 22 -9 12 -13 19 -25 15 -29z
m5053 28 c0 -5 -17 -9 -37 -10 -28 -1 -34 1 -23 8 19 12 60 13 60 2z m-5410
-6 c0 -3 -4 -8 -10 -11 -5 -3 -10 -1 -10 4 0 6 5 11 10 11 6 0 10 -2 10 -4z
m9912 -13 c26 -23 22 -30 -12 -25 -28 4 -39 20 -23 35 9 10 15 9 35 -10z
m-505 -18 c9 -25 -4 -29 -17 -6 -7 15 -7 21 0 21 6 0 13 -7 17 -15z m-9160
-38 c11 -25 -3 -57 -26 -57 -6 0 -11 -5 -11 -11 0 -10 -48 -5 -59 7 -5 5 70
84 79 84 4 0 11 -10 17 -23z m7248 -6 c-3 -6 -11 -11 -17 -11 -6 0 -6 6 2 15
14 17 26 13 15 -4z m2325 9 c0 -5 -4 -10 -10 -10 -5 0 -10 5 -10 10 0 6 5 10
10 10 6 0 10 -4 10 -10z m-6200 -19 c0 -5 -9 -19 -20 -32 l-19 -24 -1 27 c0
17 6 28 18 31 9 3 18 5 20 6 1 0 2 -3 2 -8z m-3176 -19 c3 -5 8 -29 12 -53 l7
-44 -32 28 c-18 15 -39 27 -47 27 -18 0 -18 9 3 32 17 19 48 24 57 10z m-827
-59 c-21 -22 -32 -11 -17 17 9 16 15 19 23 11 8 -8 7 -16 -6 -28z m477 -40
c-30 -22 -39 -15 -13 13 15 16 25 21 28 13 2 -7 -4 -18 -15 -26z m-499 7 c3
-5 1 -10 -4 -10 -6 0 -11 5 -11 10 0 6 2 10 4 10 3 0 8 -4 11 -10z m3848 3
c-7 -2 -19 -2 -25 0 -7 3 -2 5 12 5 14 0 19 -2 13 -5z m307 -7 c0 -3 -4 -8
-10 -11 -5 -3 -10 -1 -10 4 0 6 5 11 10 11 6 0 10 -2 10 -4z m-3273 -19 c3 -3
-11 -9 -31 -13 -38 -7 -52 -2 -43 13 6 10 64 9 74 0z m3017 -52 c-9 -14 -19
-23 -22 -20 -5 4 26 45 35 45 2 0 -4 -11 -13 -25z m136 -5 c16 -30 3 -58 -28
-62 -20 -2 -28 -9 -30 -28 -2 -14 -9 -31 -14 -37 -14 -18 -41 -16 -35 1 3 8
-1 17 -9 20 -19 7 -9 25 22 36 13 5 24 15 23 22 0 10 -2 10 -6 1 -2 -7 -19
-13 -36 -12 -31 0 -32 0 -7 10 14 6 29 17 33 25 5 8 12 12 17 9 5 -3 14 4 20
15 14 26 36 26 50 0z m-354 -4 c22 -22 17 -36 -18 -51 -24 -10 -37 -10 -46 -2
-10 8 -7 16 15 38 34 33 31 32 49 15z m94 -40 c0 -8 -4 -17 -9 -21 -12 -7 -24
12 -16 25 9 15 25 12 25 -4z m-4743 -42 c-3 -3 -12 -4 -19 -1 -8 3 -5 6 6 6
11 1 17 -2 13 -5z m6258 -4 c3 -5 -1 -10 -9 -10 -8 0 -18 5 -21 10 -3 6 1 10
9 10 8 0 18 -4 21 -10z m-1745 -20 c0 -5 -4 -10 -10 -10 -5 0 -10 5 -10 10 0
6 5 10 10 10 6 0 10 -4 10 -10z m143 3 c-7 -2 -21 -2 -30 0 -10 3 -4 5 12 5
17 0 24 -2 18 -5z m4179 -13 c12 -11 19 -22 16 -25 -7 -7 -68 25 -68 36 0 16
30 10 52 -11z m2738 11 c0 -12 -35 -20 -51 -11 -8 6 -3 10 17 13 16 2 30 5 32
6 1 0 2 -3 2 -8z m-2406 -17 c8 -21 8 -24 -3 -24 -5 0 -11 9 -14 20 -6 24 8
27 17 4z m-107 -17 c12 4 15 3 8 -4 -5 -6 -22 -13 -37 -17 -24 -5 -28 -3 -28
14 0 17 3 19 19 10 11 -5 28 -7 38 -3z m2160 -11 c-2 -6 -12 -11 -23 -11 -12
0 -18 -7 -18 -18 2 -20 -12 -23 -19 -4 -5 16 34 54 51 49 7 -3 11 -10 9 -16z
m-1808 5 c19 -12 6 -41 -19 -41 -13 0 -20 7 -20 18 0 31 14 39 39 23z m2486
-1 c3 -5 2 -10 -4 -10 -5 0 -13 5 -16 10 -3 6 -2 10 4 10 5 0 13 -4 16 -10z
m-7355 -42 c0 -10 -6 -18 -13 -18 -22 0 -25 9 -13 35 11 25 26 16 26 -17z
m-153 -4 c-3 -3 -12 -4 -19 -1 -8 3 -5 6 6 6 11 1 17 -2 13 -5z m66 -11 c11
-10 -13 -33 -34 -33 -22 0 -24 11 -7 28 13 13 31 16 41 5z m-73 -23 c0 -5 -2
-10 -4 -10 -3 0 -8 5 -11 10 -3 6 -1 10 4 10 6 0 11 -4 11 -10z m4480 -30 c8
-5 12 -12 9 -15 -8 -8 -39 5 -39 16 0 11 11 11 30 -1z m-200 -29 c0 -6 -4 -13
-10 -16 -5 -3 -10 1 -10 9 0 9 5 16 10 16 6 0 10 -4 10 -9z m1477 -16 c0 -8
-6 -15 -13 -15 -15 0 -26 15 -17 24 12 11 30 6 30 -9z m-6037 -105 c0 -5 -10
-10 -22 -10 -19 0 -20 2 -8 10 19 13 30 13 30 0z m915 -9 c3 -5 1 -12 -5 -16
-5 -3 -10 1 -10 9 0 18 6 21 15 7z m2885 -45 c6 -8 10 -25 8 -38 -2 -17 -10
-23 -28 -23 -20 0 -26 6 -28 29 -5 40 25 59 48 32z m-324 -60 c15 -12 17 -17
6 -28 -15 -15 -45 0 -50 26 -4 20 18 21 44 2z m1714 -31 c0 -8 -4 -15 -10 -15
-5 0 -10 7 -10 15 0 8 5 15 10 15 6 0 10 -7 10 -15z m-2462 -17 c10 -10 15
-10 22 2 8 13 10 13 10 -2 0 -9 -6 -18 -12 -21 -21 -6 -48 4 -48 19 0 17 12
18 28 2z m-202 -35 c-11 -11 -19 6 -11 24 8 17 8 17 12 0 3 -10 2 -21 -1 -24z
m2084 27 c0 -5 -4 -10 -9 -10 -6 0 -13 5 -16 10 -3 6 1 10 9 10 9 0 16 -4 16
-10z m-2200 -37 c0 -11 -4 -11 -20 -3 -11 6 -20 15 -20 19 0 5 9 7 20 4 11 -3
20 -12 20 -20z m1490 -48 c-7 -8 -17 -15 -22 -15 -11 0 14 29 26 30 5 0 3 -7
-4 -15z m-310 -9 c0 -18 -16 -29 -30 -21 -13 8 -1 35 16 35 8 0 14 -6 14 -14z
m-240 -20 c0 -8 -6 -19 -14 -25 -18 -15 -31 15 -15 35 13 16 29 10 29 -10z
m-390 -25 c14 -26 13 -31 -5 -25 -8 4 -15 1 -15 -5 0 -6 -4 -11 -10 -11 -5 0
-10 11 -10 23 0 40 22 50 40 18z m-6067 -21 c-3 -11 -9 -20 -14 -20 -11 0 -11
3 -3 24 9 23 23 20 17 -4z"/>
<path d="M11844 7859 c-9 -16 2 -22 21 -11 15 8 16 10 1 15 -8 3 -18 2 -22 -4z"/>
<path d="M340 7562 c0 -34 14 -43 24 -15 4 9 0 23 -9 32 -13 14 -15 12 -15
-17z"/>
<path d="M355 7470 c3 -5 8 -10 11 -10 2 0 4 5 4 10 0 6 -5 10 -11 10 -5 0 -7
-4 -4 -10z"/>
<path d="M342 7253 c-6 -2 -10 -9 -7 -13 7 -11 35 -2 35 11 0 10 -8 10 -28 2z"/>
<path d="M350 7170 c0 -19 3 -21 12 -12 9 9 9 15 0 24 -9 9 -12 7 -12 -12z"/>
<path d="M433 7145 c0 -9 4 -14 9 -13 5 2 10 8 10 13 0 5 -5 11 -10 13 -5 1
-9 -4 -9 -13z"/>
<path d="M690 7100 c0 -5 5 -10 10 -10 6 0 10 5 10 10 0 6 -4 10 -10 10 -5 0
-10 -4 -10 -10z"/>
<path d="M663 6955 c-6 -18 23 -55 44 -55 25 0 28 32 4 52 -28 22 -40 23 -48
3z"/>
<path d="M597 6909 c-27 -15 -4 -51 30 -47 24 3 54 32 43 41 -13 11 -57 15
-73 6z"/>
<path d="M756 6791 c-4 -7 -5 -15 -2 -18 9 -9 19 4 14 18 -4 11 -6 11 -12 0z"/>
<path d="M954 6785 c-5 -12 -10 -13 -20 -4 -11 9 -18 8 -29 -1 -19 -16 -19
-25 1 -44 21 -22 33 -20 43 6 5 14 10 17 15 10 9 -15 43 -16 51 -1 8 13 -23
49 -42 49 -7 0 -16 -7 -19 -15z"/>
<path d="M852 6663 c4 -37 53 -57 73 -30 23 31 8 54 -36 55 -38 2 -40 1 -37
-25z"/>
<path d="M1010 6462 c0 -23 19 -42 42 -42 24 0 34 26 18 45 -18 22 -60 19 -60
-3z"/>
<path d="M1131 6306 c-16 -20 3 -56 29 -56 26 0 53 39 38 57 -14 17 -53 17
-67 -1z"/>
<path d="M1362 6104 c2 -11 11 -20 22 -22 13 -3 17 1 14 14 -2 11 -11 20 -22
22 -13 3 -17 -1 -14 -14z"/>
<path d="M1435 6090 c-3 -11 -2 -28 4 -37 8 -15 10 -11 11 20 0 41 -5 47 -15
17z"/>
<path d="M1142 6087 c-10 -11 -7 -19 14 -41 33 -33 69 -34 78 -4 7 28 -10 46
-50 54 -20 4 -34 1 -42 -9z"/>
<path d="M1450 6025 c0 -18 19 -40 26 -32 4 4 0 15 -9 24 -9 10 -17 13 -17 8z"/>
<path d="M1196 5994 c-21 -20 -20 -27 5 -50 24 -22 52 -10 57 26 6 37 -34 53
-62 24z"/>
<path d="M1390 5872 c0 -14 23 -32 42 -32 26 0 22 27 -4 34 -31 8 -38 7 -38
-2z"/>
<path d="M1460 5575 c-24 -28 17 -72 43 -46 9 9 8 14 -3 22 -11 8 -12 12 -2
16 6 2 12 9 12 14 0 15 -36 10 -50 -6z"/>
<path d="M1480 5495 c-19 -23 -8 -50 23 -53 29 -4 37 15 11 25 -11 4 -12 8 -4
13 13 8 6 30 -9 30 -5 0 -14 -7 -21 -15z"/>
<path d="M1543 5183 c-14 -5 -18 -43 -5 -43 10 0 42 33 42 43 0 8 -19 8 -37 0z"/>
<path d="M1590 4935 c-16 -19 -3 -40 16 -24 15 13 19 39 5 39 -5 0 -14 -7 -21
-15z"/>
<path d="M1643 4615 c-3 -9 -3 -18 0 -22 10 -10 37 6 37 22 0 20 -29 20 -37 0z"/>
<path d="M11660 7380 c0 -4 9 -10 20 -13 11 -3 20 -2 20 3 0 4 -9 10 -20 13
-11 3 -20 2 -20 -3z"/>
<path d="M11686 7312 c-3 -6 -1 -14 5 -17 14 -9 20 -2 10 14 -6 8 -11 9 -15 3z"/>
<path d="M11610 7260 c-12 -7 -12 -10 3 -16 21 -8 29 -3 19 13 -5 8 -13 9 -22
3z"/>
<path d="M11620 7214 c-14 -7 -43 -14 -65 -14 l-41 0 4 -36 c2 -19 15 -47 28
-61 13 -14 24 -31 24 -37 0 -14 34 -44 52 -47 7 -1 21 1 30 5 9 4 26 2 38 -4
19 -10 26 -8 51 16 34 33 36 44 9 44 -11 0 -20 5 -20 10 0 6 -4 10 -8 10 -4 0
-6 -16 -4 -35 5 -41 -6 -44 -48 -13 -31 23 -39 55 -18 76 6 6 9 15 5 19 -4 3
-13 -2 -21 -12 -7 -10 -18 -15 -24 -11 -7 4 -12 1 -12 -8 0 -18 -35 -22 -45
-6 -10 16 13 49 32 44 24 -6 36 5 50 44 6 17 11 32 10 31 -1 -1 -13 -7 -27
-15z m-6 -129 c-4 -8 -11 -15 -16 -15 -6 0 -5 6 2 15 7 8 14 15 16 15 2 0 1
-7 -2 -15z"/>
<path d="M11380 7150 c0 -5 5 -10 10 -10 6 0 10 5 10 10 0 6 -4 10 -10 10 -5
0 -10 -4 -10 -10z"/>
<path d="M11720 7144 c0 -8 6 -14 14 -14 7 0 16 -10 19 -21 4 -15 11 -20 23
-15 9 3 22 2 29 -4 16 -14 42 -3 48 19 6 25 -29 45 -85 47 -36 2 -48 -1 -48
-12z"/>
<path d="M11224 7096 c-9 -24 4 -48 23 -44 12 2 18 12 18 28 0 29 -32 41 -41
16z"/>
<path d="M11780 7070 c0 -5 5 -10 10 -10 6 0 10 5 10 10 0 6 -4 10 -10 10 -5
0 -10 -4 -10 -10z"/>
<path d="M11493 6990 c-26 -10 -29 -20 -11 -38 28 -28 85 -3 72 32 -7 18 -27
20 -61 6z"/>
<path d="M11410 6840 c0 -5 5 -10 11 -10 5 0 7 5 4 10 -3 6 -8 10 -11 10 -2 0
-4 -4 -4 -10z"/>
<path d="M11195 6780 c-19 -21 -14 -50 9 -50 8 0 21 9 29 20 l14 21 6 -21 c5
-18 9 -20 26 -10 25 13 27 33 6 50 -12 10 -18 10 -29 1 -10 -8 -16 -9 -21 -1
-9 15 -20 12 -40 -10z"/>
<path d="M11316 6711 c-4 -6 -14 -7 -22 -4 -12 4 -15 0 -12 -23 2 -21 9 -30
26 -32 30 -5 54 16 50 42 -3 22 -32 34 -42 17z"/>
<path d="M11445 6700 c-19 -21 -14 -50 8 -50 8 0 22 9 32 20 15 16 15 22 5 35
-16 20 -23 19 -45 -5z"/>
<path d="M11129 6284 c-17 -21 0 -49 31 -49 27 0 46 25 37 49 -8 21 -51 21
-68 0z"/>
<path d="M192 7003 c-26 -5 -20 -23 9 -23 10 0 19 7 19 15 0 8 -1 14 -2 14 -2
-1 -13 -4 -26 -6z"/>
<path d="M320 6725 c0 -8 2 -15 4 -15 2 0 6 7 10 15 3 8 1 15 -4 15 -6 0 -10
-7 -10 -15z"/>
<path d="M11649 6498 c-10 -31 -7 -58 5 -58 23 0 31 22 13 35 -9 7 -14 15 -10
18 3 4 3 7 0 7 -4 0 -7 -1 -8 -2z"/>
<path d="M11630 6356 c0 -9 5 -16 10 -16 6 0 10 4 10 9 0 6 -4 13 -10 16 -5 3
-10 -1 -10 -9z"/>
<path d="M452 6508 c-7 -7 -12 -21 -12 -31 0 -15 5 -18 25 -15 14 3 30 -1 36
-8 6 -8 15 -14 20 -14 15 0 10 30 -5 36 -8 3 -16 14 -19 25 -6 21 -27 25 -45
7z"/>
<path d="M350 6451 c0 -26 17 -36 36 -20 14 12 14 14 -2 26 -25 18 -34 16 -34
-6z"/>
<path d="M455 6440 c-3 -5 -2 -10 4 -10 5 0 13 5 16 10 3 6 2 10 -4 10 -5 0
-13 -4 -16 -10z"/>
<path d="M605 6360 c-4 -6 -3 -14 0 -20 9 -15 35 -12 35 4 0 17 -27 29 -35 16z"/>
<path d="M645 6290 c-3 -5 -1 -10 4 -10 6 0 11 5 11 10 0 6 -2 10 -4 10 -3 0
-8 -4 -11 -10z"/>
<path d="M527 6073 c-9 -17 -5 -73 5 -73 6 0 8 3 5 7 -8 8 22 43 36 43 6 0 3
-6 -7 -13 -22 -16 -18 -50 6 -55 9 -2 31 10 48 26 30 26 31 30 19 50 -11 18
-23 22 -61 22 -26 0 -49 -3 -51 -7z"/>
<path d="M397 6053 c-7 -11 10 -40 18 -31 4 4 3 14 -3 24 -5 9 -12 12 -15 7z"/>
<path d="M657 5983 c-4 -3 -7 -14 -7 -24 0 -32 -32 -87 -57 -98 -27 -12 -48
-53 -40 -75 9 -22 71 -21 109 2 29 16 30 16 46 -4 14 -16 26 -20 55 -16 40 5
46 10 53 47 6 37 -17 75 -79 128 -55 47 -68 53 -80 40z"/>
<path d="M804 5956 c-8 -22 3 -33 18 -18 9 9 9 15 0 24 -9 9 -13 7 -18 -6z"/>
<path d="M675 5780 c-3 -5 -1 -10 4 -10 6 0 11 5 11 10 0 6 -2 10 -4 10 -3 0
-8 -4 -11 -10z"/>
<path d="M600 5680 c0 -5 5 -10 10 -10 6 0 10 5 10 10 0 6 -4 10 -10 10 -5 0
-10 -4 -10 -10z"/>
<path d="M560 5655 c0 -20 -5 -25 -25 -25 -19 0 -25 -5 -26 -22 0 -13 -3 -17
-6 -10 -6 15 -33 16 -33 2 0 -6 8 -14 18 -17 9 -4 22 -14 28 -22 10 -13 12
-12 18 7 4 12 14 22 22 22 9 0 14 7 13 18 -2 9 2 27 9 38 11 21 7 34 -10 34
-4 0 -8 -11 -8 -25z"/>
<path d="M635 5646 c-19 -14 -19 -15 8 -21 34 -9 46 0 26 20 -13 13 -17 13
-34 1z"/>
<path d="M620 5582 c0 -5 7 -13 16 -16 10 -4 14 -1 12 6 -5 15 -28 23 -28 10z"/>
<path d="M135 5980 c-3 -5 -1 -10 4 -10 6 0 11 5 11 10 0 6 -2 10 -4 10 -3 0
-8 -4 -11 -10z"/>
<path d="M627 5093 c-13 -12 -7 -43 8 -43 9 0 12 -6 9 -15 -8 -20 6 -19 22 3
13 16 13 16 14 0 0 -20 15 -24 26 -6 4 7 -2 18 -14 26 -12 8 -22 21 -22 28 0
14 -31 19 -43 7z"/>
<path d="M573 5075 c-3 -9 -3 -18 0 -21 9 -9 27 6 27 22 0 19 -19 18 -27 -1z"/>
<path d="M720 5040 c0 -5 7 -10 16 -10 8 0 12 5 9 10 -3 6 -10 10 -16 10 -5 0
-9 -4 -9 -10z"/>
<path d="M1000 4871 c0 -5 6 -14 14 -20 16 -13 32 2 21 19 -8 12 -35 13 -35 1z"/>
<path d="M1084 4699 c-8 -14 18 -31 30 -19 9 9 0 30 -14 30 -5 0 -12 -5 -16
-11z"/>
<path d="M1270 4066 c0 -9 5 -16 10 -16 6 0 10 4 10 9 0 6 -4 13 -10 16 -5 3
-10 -1 -10 -9z"/>
<path d="M11385 4120 c3 -5 11 -10 16 -10 6 0 7 5 4 10 -3 6 -11 10 -16 10 -6
0 -7 -4 -4 -10z"/>
<path d="M11420 4114 c0 -3 5 -15 12 -27 7 -12 12 -29 13 -37 0 -9 10 -15 25
-15 18 0 26 6 28 23 2 12 -2 22 -8 22 -7 0 -9 8 -4 23 7 22 6 22 -15 3 -19
-17 -21 -17 -21 -3 0 10 -7 17 -15 17 -8 0 -15 -3 -15 -6z"/>
<path d="M11522 4058 c-7 -7 -12 -16 -12 -20 0 -12 28 -10 36 3 10 17 -10 31
-24 17z"/>
<path d="M1045 3060 c-8 -13 -1 -24 14 -19 6 3 7 10 2 18 -6 10 -10 10 -16 1z"/>
<path d="M750 2933 c0 -12 5 -25 10 -28 13 -8 13 15 0 35 -8 12 -10 11 -10 -7z"/>
<path d="M9650 1860 c0 -5 5 -10 11 -10 5 0 7 5 4 10 -3 6 -8 10 -11 10 -2 0
-4 -4 -4 -10z"/>
<path d="M661 2521 c-8 -6 -11 -16 -7 -27 5 -12 10 -14 17 -7 16 16 7 45 -10
34z"/>
<path d="M11059 9526 c101 -103 223 -147 343 -126 81 15 149 50 200 105 33 35
45 42 59 34 29 -15 39 -11 39 16 l0 25 -347 0 -347 0 53 -54z"/>
<path d="M12080 9537 c0 -54 25 -141 47 -162 14 -15 18 -14 42 15 20 23 39 33
80 40 59 11 81 24 81 49 0 21 -53 51 -90 51 -21 0 -29 6 -34 25 -6 23 -11 25
-66 25 l-60 0 0 -43z"/>
<path d="M12220 9550 c0 -5 5 -10 11 -10 5 0 7 5 4 10 -3 6 -8 10 -11 10 -2 0
-4 -4 -4 -10z"/>
<path d="M2744 9493 c-17 -54 -35 -82 -64 -94 -20 -9 -52 -42 -88 -94 -59 -85
-142 -171 -205 -213 -31 -21 -35 -27 -23 -34 26 -15 18 -27 -11 -19 -16 4 -34
6 -40 4 -20 -7 -15 -33 5 -33 20 0 100 -48 120 -73 11 -12 19 -14 39 -6 15 5
34 8 44 7 11 -2 29 13 49 41 27 36 32 52 32 100 0 73 16 91 79 91 26 0 51 5
54 10 3 6 13 10 22 10 9 0 24 7 34 16 10 9 33 19 51 23 l33 7 -32 17 c-41 22
-57 50 -43 76 16 30 12 71 -12 128 -23 55 -35 65 -44 36z m24 -159 c4 -25 -32
-59 -53 -51 -20 8 -19 36 2 59 21 23 47 19 51 -8z"/>
<path d="M12015 9479 c-4 -6 -5 -12 -2 -15 7 -7 37 7 37 17 0 13 -27 11 -35
-2z"/>
<path d="M11536 9405 c-18 -18 -11 -41 14 -55 26 -14 50 -2 50 24 0 42 -36 59
-64 31z"/>
<path d="M11354 9369 c-7 -12 15 -41 27 -33 14 8 11 31 -6 37 -8 4 -17 2 -21
-4z"/>
<path d="M12015 9330 c-3 -5 -2 -10 4 -10 5 0 13 5 16 10 3 6 2 10 -4 10 -5 0
-13 -4 -16 -10z"/>
<path d="M12125 9315 c-3 -8 -7 -22 -10 -30 -3 -10 9 -22 35 -35 50 -25 70
-25 70 0 0 11 -5 20 -11 20 -8 0 -8 5 1 15 7 8 10 22 6 30 -8 21 -85 21 -91 0z
m60 -45 c3 -5 1 -10 -4 -10 -6 0 -11 5 -11 10 0 6 2 10 4 10 3 0 8 -4 11 -10z"/>
<path d="M122 9308 c-7 -7 -12 -18 -12 -25 0 -18 29 -16 37 3 8 21 -10 37 -25
22z"/>
<path d="M11987 9292 c-38 -41 -1 -115 44 -91 16 8 19 6 16 -13 -1 -13 -10
-29 -19 -36 -20 -15 -14 -38 13 -53 28 -14 40 -3 29 26 -7 19 -6 25 5 25 7 0
17 9 20 20 8 26 -3 60 -20 60 -8 0 -11 7 -8 19 13 50 -46 81 -80 43z"/>
<path d="M11554 9205 c-13 -33 25 -70 48 -47 8 8 8 18 0 37 -13 28 -39 33 -48
10z"/>
<path d="M12045 8960 c3 -5 8 -10 11 -10 2 0 4 5 4 10 0 6 -5 10 -11 10 -5 0
-7 -4 -4 -10z"/>
<path d="M3495 8930 c-3 -5 -2 -10 4 -10 5 0 13 5 16 10 3 6 2 10 -4 10 -5 0
-13 -4 -16 -10z"/>
<path d="M11442 8917 c-17 -20 9 -63 36 -60 12 2 22 -2 22 -7 0 -19 39 -10 45
10 12 38 -24 57 -44 23 -10 -16 -10 -16 -11 3 0 19 -17 44 -31 44 -4 0 -11 -6
-17 -13z"/>
<path d="M12003 8878 c3 -40 5 -43 32 -43 35 0 47 30 16 40 -11 3 -23 15 -26
26 -11 34 -25 20 -22 -23z"/>
<path d="M12196 8904 c-9 -22 3 -32 14 -14 12 19 12 30 1 30 -5 0 -12 -7 -15
-16z"/>
<path d="M1910 8893 c-50 -8 -55 -13 -31 -29 21 -15 24 -15 44 4 12 11 31 22
42 25 16 4 15 5 -5 4 -14 0 -36 -2 -50 -4z"/>
<path d="M1702 8871 c-66 -5 -72 -8 -60 -22 18 -22 82 -43 86 -29 4 12 15 22
47 45 11 8 16 14 10 13 -5 -1 -43 -4 -83 -7z"/>
<path d="M11909 8859 c-16 -10 -5 -35 24 -53 21 -14 31 -3 23 27 -7 28 -26 39
-47 26z"/>
<path d="M12116 8852 c-3 -5 1 -18 9 -28 13 -16 16 -17 25 -4 5 8 8 20 7 25
-5 13 -34 18 -41 7z"/>
<path d="M510 8840 c0 -5 5 -10 10 -10 6 0 10 5 10 10 0 6 -4 10 -10 10 -5 0
-10 -4 -10 -10z"/>
<path d="M11110 8829 c0 -5 5 -7 10 -4 6 3 10 8 10 11 0 2 -4 4 -10 4 -5 0
-10 -5 -10 -11z"/>
<path d="M281 8532 c-11 -21 3 -52 24 -52 19 0 27 16 20 39 -8 27 -33 34 -44
13z"/>
<path d="M2830 8515 c-21 -25 -1 -31 23 -7 17 18 18 22 5 22 -8 0 -21 -7 -28
-15z"/>
<path d="M3006 8291 c-17 -6 -15 -10 16 -28 l35 -21 -10 29 c-12 31 -12 31
-41 20z"/>
<path d="M1370 8280 c0 -5 5 -10 10 -10 6 0 10 5 10 10 0 6 -4 10 -10 10 -5 0
-10 -4 -10 -10z"/>
<path d="M1564 8274 c3 -9 6 -19 6 -24 0 -5 15 -18 34 -29 18 -12 36 -29 38
-39 3 -10 26 -24 55 -34 58 -20 123 -85 123 -121 0 -18 11 -28 52 -45 28 -12
53 -20 56 -18 8 9 -17 41 -54 65 -43 30 -46 41 -15 57 22 11 21 13 -34 73 -32
33 -62 61 -68 61 -6 0 -21 -10 -34 -22 -29 -28 -41 -17 -18 18 20 31 15 36
-59 59 -66 20 -90 20 -82 -1z"/>
<path d="M1515 8167 c-31 -23 -31 -32 1 -70 25 -30 26 -39 9 -97 -3 -10 17
-26 66 -50 63 -31 105 -59 65 -44 -12 4 -9 -7 10 -41 22 -38 26 -55 22 -101
-3 -36 -11 -62 -25 -77 -12 -12 -23 -31 -25 -42 -3 -18 -11 -20 -80 -18 -60 1
-78 -2 -82 -14 -9 -22 31 -71 71 -88 40 -17 83 -20 83 -6 0 5 22 17 49 26 48
16 48 16 49 59 1 24 12 69 26 99 l24 56 -24 58 c-13 32 -24 77 -24 99 0 40 -2
42 -44 58 -62 24 -72 38 -58 83 11 35 10 37 -38 82 l-49 46 -26 -18z"/>
<path d="M2462 8078 c-17 -17 -15 -23 13 -36 35 -16 37 -16 33 15 -3 30 -26
41 -46 21z"/>
<path d="M2571 7850 c24 -36 48 -48 59 -30 15 23 12 30 -11 30 -11 0 -30 5
-42 12 -21 11 -21 10 -6 -12z"/>
<path d="M1519 7809 c25 -11 51 -25 58 -31 23 -19 15 9 -9 32 -14 12 -35 20
-57 20 l-36 0 44 -21z"/>
<path d="M1578 7728 c-2 -18 -11 -24 -38 -28 -27 -4 -31 -7 -17 -13 29 -11 76
20 77 51 0 21 -18 13 -22 -10z"/>
<path d="M1405 7711 c-8 -14 18 -81 32 -81 33 0 27 74 -7 83 -11 3 -22 2 -25
-2z"/>
<path d="M0 7689 c0 -11 4 -18 10 -14 5 3 7 12 3 20 -7 21 -13 19 -13 -6z"/>
<path d="M40 7680 c-12 -8 -10 -10 8 -10 13 0 20 4 17 10 -7 12 -6 12 -25 0z"/>
<path d="M2430 7435 c0 -8 2 -15 4 -15 2 0 6 7 10 15 3 8 1 15 -4 15 -6 0 -10
-7 -10 -15z"/>
<path d="M2183 7361 l-23 -29 30 -4 c25 -4 31 -1 36 18 6 23 -1 44 -14 43 -4
0 -17 -13 -29 -28z"/>
<path d="M2070 7255 c0 -3 -12 -44 -26 -92 -14 -49 -36 -140 -49 -203 l-25
-114 26 -27 c21 -22 25 -35 22 -63 -2 -20 -1 -36 3 -36 4 0 9 18 11 40 3 30
-1 45 -15 57 -24 22 -18 57 9 61 19 3 23 12 30 70 4 37 8 96 9 132 1 36 4 91
7 123 3 31 4 57 2 57 -2 0 -4 -2 -4 -5z"/>
<path d="M2800 7251 c0 -5 -3 -17 -7 -27 -5 -14 -2 -16 20 -10 25 6 27 4 33
-34 6 -34 10 -41 28 -38 28 4 31 30 6 53 -11 11 -30 30 -42 43 -23 23 -38 28
-38 13z"/>
<path d="M2415 7230 c-3 -5 -1 -10 4 -10 6 0 11 5 11 10 0 6 -2 10 -4 10 -3 0
-8 -4 -11 -10z"/>
<path d="M2125 6989 c6 -25 4 -31 -14 -36 -26 -7 -26 -18 -1 -43 24 -24 26
-63 5 -80 -8 -7 -15 -9 -15 -4 0 19 -27 -33 -33 -63 -7 -37 -1 -42 19 -15 18
25 40 3 25 -26 -13 -25 -14 -72 -2 -72 6 0 12 19 15 43 2 23 10 86 16 139 11
99 6 188 -12 188 -6 0 -7 -13 -3 -31z"/>
<path d="M2305 6949 c-33 -15 -71 -30 -85 -32 -27 -4 -31 -16 -54 -169 l-13
-88 32 0 c24 0 34 5 38 19 5 22 63 61 89 61 20 0 23 4 32 45 7 29 7 29 -8 10
-14 -17 -17 -18 -26 -5 -16 22 -6 118 13 137 13 13 19 14 31 3 13 -10 16 -10
16 3 0 8 3 22 6 31 8 21 0 19 -71 -15z"/>
<path d="M1573 6622 c-8 -5 -1 -30 25 -89 35 -79 37 -81 70 -80 51 1 67 -39
38 -96 -14 -25 -14 -27 4 -17 31 17 38 12 45 -32 6 -32 4 -44 -9 -53 -9 -7
-16 -16 -16 -20 0 -29 87 -244 105 -260 56 -50 82 -124 59 -164 -14 -24 -14
-34 9 -126 14 -55 28 -112 31 -128 5 -23 10 -26 25 -18 12 7 25 6 42 -2 13 -7
32 -11 41 -9 16 3 17 17 11 165 -3 89 -7 164 -10 166 -2 3 -9 -1 -15 -7 -17
-17 -84 -15 -102 4 -9 8 -16 24 -16 34 0 10 -13 32 -30 50 -16 18 -30 37 -30
42 0 6 12 8 30 5 17 -4 30 -3 30 2 0 18 -24 77 -37 90 -8 7 -12 20 -9 28 12
29 -88 244 -191 416 -63 104 -75 115 -100 99z"/>
<path d="M1946 6622 c-13 -22 -21 -478 -7 -486 6 -4 11 -21 11 -38 0 -24 3
-28 14 -19 7 6 25 12 40 13 l27 2 -2 153 -1 152 -29 -6 c-34 -7 -37 8 -14 62
12 30 12 39 0 63 -8 15 -18 47 -22 72 -6 29 -11 41 -17 32z"/>
<path d="M2788 6593 c5 -21 7 -23 10 -9 2 10 0 22 -6 28 -6 6 -7 0 -4 -19z"/>
<path d="M2528 6581 c-23 -13 -33 -14 -60 -3 -30 11 -34 10 -64 -19 -25 -24
-35 -46 -49 -112 -10 -45 -20 -88 -23 -96 -4 -10 1 -12 17 -6 16 5 23 1 29
-16 8 -20 11 -18 37 27 15 27 53 82 84 122 79 104 77 100 66 110 -6 5 -21 3
-37 -7z"/>
<path d="M2062 6568 c-18 -18 -14 -38 8 -38 21 0 23 4 12 33 -6 14 -10 15 -20
5z"/>
<path d="M2282 6488 c-7 -7 -12 -21 -12 -32 0 -12 -9 -35 -19 -52 l-19 -32 25
-38 c23 -33 27 -35 33 -18 10 28 19 184 11 184 -4 0 -12 -5 -19 -12z"/>
<path d="M3308 6493 c-26 -7 -22 -19 17 -54 46 -42 47 -89 6 -176 -27 -56 -28
-64 -15 -78 22 -21 23 -20 17 23 -4 31 0 44 20 68 23 27 25 37 21 89 -3 32
-12 64 -20 72 -8 8 -14 25 -14 39 0 24 -2 25 -32 17z"/>
<path d="M2174 6451 c15 -16 22 -18 33 -10 16 14 16 14 -22 23 -29 7 -29 7
-11 -13z"/>
<path d="M0 6409 c1 -41 2 -43 15 -25 19 25 19 40 0 56 -13 11 -15 6 -15 -31z"/>
<path d="M82 6373 c4 -22 38 -30 38 -10 0 8 -7 18 -16 21 -23 9 -26 8 -22 -11z"/>
<path d="M2050 6225 c0 -83 4 -135 10 -135 6 0 10 7 10 15 0 8 9 24 20 35 11
11 20 26 20 33 0 6 9 37 21 67 14 36 18 65 14 87 -9 50 -25 39 -25 -17 0 -49
0 -49 -20 -33 -11 10 -20 29 -20 44 0 15 -7 29 -15 33 -13 5 -15 -14 -15 -129z"/>
<path d="M2727 6343 c-4 -3 -7 -19 -7 -35 0 -27 1 -28 16 -14 8 9 20 16 25 16
6 0 5 8 -1 20 -11 21 -22 25 -33 13z"/>
<path d="M1640 6320 c0 -5 5 -10 11 -10 5 0 7 5 4 10 -3 6 -8 10 -11 10 -2 0
-4 -4 -4 -10z"/>
<path d="M2820 6267 c0 -7 4 -18 9 -25 6 -11 9 -9 14 7 3 12 -1 22 -9 25 -8 3
-14 0 -14 -7z"/>
<path d="M3484 6273 l-42 -4 11 -30 c16 -41 54 -37 80 9 14 23 15 32 5 30 -7
-1 -32 -3 -54 -5z"/>
<path d="M2231 6232 c14 -42 -3 -81 -40 -88 -29 -6 -30 -7 -14 -30 22 -35 21
-104 -3 -121 -10 -8 -28 -12 -39 -11 -14 2 -24 -6 -32 -24 -7 -16 -20 -28 -29
-28 -13 0 -15 -6 -10 -31 3 -17 6 -60 6 -95 0 -57 2 -64 20 -64 14 0 20 7 20
23 0 12 9 37 20 55 16 26 26 32 52 32 18 0 48 -9 66 -20 l32 -20 0 61 c0 64
40 264 65 324 18 41 18 45 5 45 -5 0 -10 -9 -10 -19 0 -11 -8 -26 -19 -33 -11
-8 -22 -35 -29 -73 l-11 -60 4 63 c4 50 1 72 -15 103 -24 47 -55 56 -39 11z"/>
<path d="M3598 6198 c-16 -5 -28 -13 -28 -18 0 -4 12 -10 28 -13 15 -3 35 -9
45 -13 16 -6 18 -2 15 22 -3 32 -19 38 -60 22z"/>
<path d="M1932 6010 c0 -19 2 -27 5 -17 2 9 2 25 0 35 -3 9 -5 1 -5 -18z"/>
<path d="M3307 5872 c-22 -3 -27 -7 -22 -20 4 -9 13 -36 19 -60 l11 -43 29 30
c27 28 28 32 14 48 -9 10 -18 25 -19 33 -3 10 -13 14 -32 12z"/>
<path d="M3117 5853 c-11 -3 -16 -10 -13 -20 3 -8 6 -19 6 -24 0 -5 6 -9 14
-9 18 0 46 -38 40 -54 -4 -11 55 -51 63 -42 3 2 -2 17 -10 33 -8 15 -17 40
-21 56 -4 15 -13 27 -22 27 -9 0 -18 9 -21 20 -3 11 -8 19 -12 19 -3 -1 -14
-3 -24 -6z"/>
<path d="M2980 5836 c0 -9 7 -12 20 -9 11 3 17 9 14 14 -8 14 -34 10 -34 -5z"/>
<path d="M3255 5690 c4 -6 11 -8 16 -5 14 9 11 15 -7 15 -8 0 -12 -5 -9 -10z"/>
<path d="M11025 5521 c-3 -5 -1 -13 5 -16 8 -5 7 -11 -1 -21 -9 -11 -8 -15 6
-20 23 -9 49 19 40 45 -6 21 -39 29 -50 12z"/>
<path d="M2027 5480 c-26 -21 -29 -21 -52 -6 -27 18 -30 12 -18 -32 5 -19 11
-23 31 -19 14 3 36 1 49 -4 27 -10 30 -5 23 44 l-5 39 -28 -22z"/>
<path d="M11034 5439 c-3 -6 -1 -15 6 -19 9 -5 9 -9 1 -14 -19 -12 -12 -28 12
-24 14 2 23 11 25 27 5 32 -28 55 -44 30z"/>
<path d="M11149 5409 c-24 -24 -21 -43 8 -47 27 -4 57 36 41 55 -15 18 -25 16
-49 -8z"/>
<path d="M10585 5400 c3 -5 8 -10 11 -10 2 0 4 5 4 10 0 6 -5 10 -11 10 -5 0
-7 -4 -4 -10z"/>
<path d="M11200 5361 c0 -48 73 -56 78 -8 3 26 1 27 -37 27 -33 0 -41 -3 -41
-19z"/>
<path d="M3633 5304 c-3 -8 -1 -47 5 -87 22 -137 24 -192 12 -237 -15 -56 -32
-76 -79 -91 -20 -7 -40 -18 -44 -26 -5 -7 -13 -10 -19 -7 -6 4 -9 3 -6 -2 21
-47 33 -64 44 -64 33 0 58 -81 30 -97 -7 -4 -15 -29 -18 -55 -6 -52 -60 -148
-84 -148 -8 0 -14 -4 -14 -9 0 -17 -53 -72 -77 -82 -12 -5 -23 -15 -23 -23 0
-10 -14 -14 -50 -14 -40 0 -50 4 -50 17 0 20 53 71 74 71 22 0 20 19 -1 26
-77 23 -123 75 -123 136 0 20 -7 51 -15 71 -14 33 -13 35 8 41 12 3 37 6 54 6
31 0 32 1 21 25 -14 31 -16 31 -65 -4 -61 -44 -78 -88 -78 -201 0 -86 3 -100
29 -148 37 -66 92 -117 165 -150 71 -33 199 -37 272 -9 40 15 46 21 41 42 -2
14 1 32 8 40 11 14 17 13 48 -5 l35 -21 83 86 c84 85 97 105 70 105 -19 0 -26
22 -20 67 l4 38 -19 -43 -20 -42 -54 6 c-36 4 -57 3 -61 -5 -24 -38 -119 23
-130 85 -13 64 14 95 66 75 17 -6 29 -5 43 5 27 20 62 17 78 -6 21 -31 50 -16
42 21 -7 29 -6 29 39 29 26 0 46 -5 46 -11 0 -6 12 -9 26 -7 20 2 29 12 39 42
8 21 18 42 23 45 4 3 7 25 4 47 -3 36 -7 41 -24 36 -12 -3 -28 3 -41 16 -12
12 -35 32 -51 45 -34 28 -30 57 7 57 13 0 31 8 40 18 15 16 15 21 3 38 -11 14
-27 19 -62 19 l-47 0 -14 50 c-19 63 -29 75 -63 75 -36 0 -70 41 -70 85 0 35
-26 56 -37 29z"/>
<path d="M1993 5243 c5 -32 17 -111 26 -175 14 -101 19 -120 39 -134 l23 -16
-5 167 c-2 92 -6 168 -8 169 -9 7 -80 46 -82 46 -2 0 1 -26 7 -57z"/>
<path d="M11227 5244 c-14 -14 -6 -54 12 -64 30 -16 71 -13 71 6 0 37 -61 79
-83 58z"/>
<path d="M3274 5229 c-3 -6 2 -35 12 -65 15 -44 21 -53 37 -48 28 9 67 -22 68
-54 l1 -27 8 25 c15 47 12 80 -8 80 -10 0 -29 11 -41 24 -18 19 -21 28 -12 44
8 16 7 21 -5 26 -25 9 -52 7 -60 -5z"/>
<path d="M11110 5230 c0 -5 5 -10 10 -10 6 0 10 5 10 10 0 6 -4 10 -10 10 -5
0 -10 -4 -10 -10z"/>
<path d="M2817 5209 c-17 -10 -17 -13 -3 -34 20 -30 9 -39 -22 -19 -22 14 -24
14 -20 -1 3 -20 73 -63 84 -53 8 9 -5 118 -14 118 -4 0 -15 -5 -25 -11z"/>
<path d="M10870 5205 c-14 -17 -10 -47 7 -52 6 -2 21 5 31 15 20 20 20 20 25
1 6 -24 33 -25 46 -1 13 25 -2 46 -28 39 -12 -3 -24 -1 -27 4 -8 14 -40 11
-54 -6z"/>
<path d="M3260 5018 c20 -16 23 -16 46 -2 13 9 24 17 24 18 0 0 -20 1 -46 1
-44 0 -45 0 -24 -17z"/>
<path d="M2047 4843 c9 -100 13 -115 29 -103 21 18 20 136 -2 144 -29 11 -32
6 -27 -41z"/>
<path d="M10573 4795 c-3 -9 -3 -18 0 -22 10 -10 37 6 37 22 0 20 -29 20 -37
0z"/>
<path d="M3344 4751 c0 -14 9 -32 19 -40 30 -22 39 -58 22 -96 -11 -29 -19
-35 -43 -35 -16 0 -35 7 -42 15 -7 8 -18 15 -24 15 -20 -1 44 -50 65 -50 49 0
89 50 89 112 0 40 -20 72 -59 91 -28 14 -29 14 -27 -12z"/>
<path d="M2064 4663 c3 -21 6 -60 7 -88 1 -76 17 -25 18 58 1 56 -2 67 -15 67
-14 0 -15 -7 -10 -37z"/>
<path d="M3873 4634 c-16 -41 46 -73 67 -34 9 16 8 25 -1 36 -16 19 -58 18
-66 -2z"/>
<path d="M3947 4593 c-4 -3 -7 -11 -7 -17 0 -6 5 -5 12 2 6 6 9 14 7 17 -3 3
-9 2 -12 -2z"/>
<path d="M4061 4246 c-47 -7 -76 -16 -79 -25 -3 -10 0 -12 11 -8 9 3 50 9 92
13 53 5 75 11 75 20 0 16 3 16 -99 0z"/>
<path d="M3822 4203 c-39 -9 -60 -19 -55 -24 12 -12 113 9 133 28 18 17 9 16
-78 -4z"/>
<path d="M4022 4173 l-32 -4 20 -29 c26 -37 25 -50 -5 -50 -14 0 -25 -4 -25
-10 0 -11 40 -34 40 -23 0 4 4 3 8 -4 6 -9 29 -9 102 3 52 8 95 16 96 17 0 1
8 17 18 36 15 32 15 36 0 53 -12 12 -31 18 -59 18 -47 0 -69 -25 -63 -74 2
-19 -3 -32 -15 -40 -15 -9 -22 -7 -38 13 -28 34 -22 75 11 79 14 2 29 8 35 13
9 9 -27 10 -93 2z"/>
<path d="M3522 4115 c-85 -29 -159 -58 -165 -65 -17 -18 11 -10 178 47 161 55
148 49 144 61 -2 6 -73 -14 -157 -43z"/>
<path d="M4660 4090 c0 -5 5 -10 10 -10 6 0 10 5 10 10 0 6 -4 10 -10 10 -5 0
-10 -4 -10 -10z"/>
<path d="M4257 3803 c-16 -15 -3 -18 81 -19 49 -1 78 1 67 6 -11 4 -23 6 -27
4 -4 -3 -9 0 -13 6 -7 11 -98 14 -108 3z"/>
<path d="M4436 3801 c-3 -5 3 -11 14 -14 13 -3 20 0 20 9 0 15 -26 19 -34 5z"/>
<path d="M3960 3784 c-213 -29 -500 -102 -536 -135 -11 -11 -28 -17 -36 -14
-17 7 -142 -39 -275 -100 -63 -29 -83 -43 -83 -57 0 -12 5 -18 13 -15 64 27
283 134 285 140 2 4 14 7 27 7 13 0 54 11 92 24 149 54 315 94 492 121 82 12
125 27 110 38 -2 2 -42 -2 -89 -9z"/>
<path d="M2894 3425 c-117 -67 -247 -151 -351 -228 -70 -51 -83 -66 -83 -89 0
-15 2 -28 5 -28 3 0 44 31 93 69 100 79 263 189 372 251 92 53 87 48 69 64
-12 11 -28 5 -105 -39z"/>
</g>
</svg>
