<?xml version="1.0" standalone="no"?>
<!DOCTYPE svg PUBLIC "-//W3C//DTD SVG 20010904//EN"
 "http://www.w3.org/TR/2001/REC-SVG-20010904/DTD/svg10.dtd">
<svg version="1.0" xmlns="http://www.w3.org/2000/svg"
 width="1107.000000pt" height="1280.000000pt" viewBox="0 0 1107.000000 1280.000000"
 preserveAspectRatio="xMidYMid meet">
<metadata>
Created by potrace 1.15, written by Peter Selinger 2001-2017
</metadata>
<g transform="translate(0.000000,1280.000000) scale(0.100000,-0.100000)"
fill="#000000" stroke="none">
<path d="M6901 12763 c-2 -27 241 -1216 274 -1338 69 -265 190 -606 271 -767
l34 -67 -108 -64 c-219 -131 -324 -189 -331 -180 -4 4 -18 37 -31 73 -97 276
-415 786 -715 1145 -50 61 -214 263 -365 450 -150 187 -282 349 -293 360 -11
11 5 -27 36 -85 30 -58 120 -229 200 -380 79 -151 192 -365 249 -475 231 -442
512 -850 743 -1080 l81 -80 -82 -53 c-45 -29 -133 -89 -195 -133 -63 -45 -119
-83 -125 -86 -6 -2 -14 6 -17 19 -9 35 -109 180 -190 278 -274 327 -625 652
-1027 953 -162 121 -920 700 -965 736 -32 26 20 -34 429 -499 594 -675 616
-699 784 -859 348 -331 694 -600 857 -667 25 -11 45 -21 45 -24 0 -4 -39 -37
-87 -75 -122 -97 -236 -197 -386 -337 -70 -66 -129 -119 -131 -117 -1 2 -19
33 -39 68 -190 324 -868 1003 -1380 1381 -71 52 -389 294 -707 538 -319 243
-582 442 -585 442 -4 0 364 -420 855 -975 63 -72 173 -198 244 -280 409 -469
1074 -1046 1420 -1230 l93 -50 -118 -130 c-66 -72 -170 -192 -232 -267 -61
-75 -114 -137 -117 -137 -3 -1 -14 13 -24 29 -69 117 -287 380 -514 619 -325
341 -838 796 -1137 1007 -38 27 -378 285 -755 573 -377 288 -692 528 -700 534
-12 10 -12 8 1 -8 25 -32 1054 -1203 1347 -1533 435 -490 1155 -1116 1544
-1341 54 -31 96 -61 94 -66 -2 -6 -44 -67 -92 -135 -49 -69 -138 -200 -198
-292 l-109 -167 -62 93 c-285 427 -1038 1162 -1660 1621 -66 49 -461 344 -878
657 -416 312 -757 564 -757 559 0 -6 5 -13 10 -16 14 -9 1119 -1239 1244
-1385 258 -301 543 -589 881 -891 388 -346 797 -651 1017 -757 53 -26 97 -50
97 -55 1 -4 -37 -77 -84 -162 -97 -178 -212 -404 -280 -555 -26 -58 -51 -108
-54 -113 -4 -4 -34 32 -67 80 -152 226 -393 502 -739 849 -457 459 -728 695
-1274 1107 -154 117 -590 449 -968 738 -378 289 -706 538 -728 554 l-40 29 26
-29 c14 -17 316 -358 670 -760 355 -401 694 -788 754 -860 324 -385 790 -851
1220 -1220 381 -326 737 -584 962 -696 73 -36 82 -43 73 -60 -19 -35 -113
-284 -180 -477 l-67 -193 -70 93 c-356 472 -1247 1272 -1913 1718 -52 35 -219
150 -370 255 -1113 776 -1490 1033 -1454 992 22 -24 324 -338 673 -698 349
-360 712 -738 806 -840 382 -411 898 -867 1405 -1243 291 -216 625 -425 771
-482 39 -15 72 -30 74 -34 2 -3 -11 -57 -29 -120 -18 -63 -55 -205 -82 -315
-26 -110 -49 -201 -50 -203 0 -1 -75 71 -165 161 -190 189 -339 315 -639 540
-348 262 -693 487 -1035 677 -82 45 -391 219 -685 385 -294 166 -625 353 -735
415 -110 62 -203 114 -207 117 -37 21 74 -76 619 -543 346 -296 671 -576 723
-624 568 -516 1486 -1126 1958 -1299 46 -17 93 -31 104 -31 18 0 20 -4 14 -32
-18 -90 -56 -299 -61 -344 -11 -82 -16 -84 -77 -32 -267 227 -904 628 -1241
783 -64 29 -1270 616 -1340 651 -15 8 -27 13 -27 10 0 -2 222 -172 492 -377
271 -206 556 -423 633 -484 414 -326 994 -675 1412 -850 61 -26 93 -45 93 -55
0 -8 -7 -71 -15 -140 -88 -759 -103 -1560 -39 -2245 43 -476 131 -995 244
-1445 44 -173 107 -400 113 -406 4 -5 99 26 110 35 4 4 -17 97 -47 207 -138
501 -237 1018 -295 1524 -46 409 -62 704 -62 1160 0 461 12 678 62 1085 28
232 22 214 72 203 23 -5 64 -22 92 -38 346 -196 1285 -442 1988 -520 154 -17
596 -73 1337 -170 85 -11 173 -22 195 -25 54 -7 -75 38 -990 345 -965 325
-1086 360 -1560 455 -375 75 -636 106 -864 104 l-154 -1 -29 29 -28 29 35 184
c20 102 43 216 52 253 l15 68 31 -21 c18 -11 80 -45 139 -75 538 -274 1814
-601 2668 -685 122 -12 385 -45 1310 -166 316 -41 627 -81 690 -89 63 -8 129
-18 145 -21 17 -4 27 -4 24 0 -7 7 -87 35 -1209 413 -498 168 -963 325 -1035
349 -839 286 -2013 511 -2571 492 l-146 -5 7 34 c9 50 109 412 142 515 l28 87
60 -40 c148 -99 496 -247 870 -369 275 -89 292 -95 490 -149 722 -199 1433
-339 2035 -401 191 -19 2561 -324 2610 -336 14 -3 22 -3 19 0 -7 8 -112 43
-1399 477 -586 197 -1177 396 -1315 443 -642 219 -1455 415 -2157 521 -438 66
-837 96 -1023 77 -60 -6 -111 -9 -114 -7 -8 9 168 481 242 648 l26 57 68 -46
c161 -109 508 -259 913 -395 895 -300 1942 -532 2795 -620 61 -6 699 -91 1420
-190 720 -98 1310 -177 1312 -175 3 3 -145 55 -982 343 -524 180 -620 213
-1230 421 -225 77 -499 173 -609 212 -723 259 -1723 503 -2534 620 -362 52
-508 64 -788 64 l-261 1 54 115 c75 161 334 644 357 667 2 2 24 -10 49 -27 72
-48 280 -153 437 -220 845 -362 2147 -714 3081 -835 64 -8 685 -109 1379 -225
695 -116 1265 -209 1267 -207 2 2 -52 25 -119 50 -68 25 -274 103 -458 172
-184 70 -704 266 -1155 435 -451 170 -903 341 -1005 380 -383 150 -1003 343
-1485 464 -676 169 -1190 259 -1639 289 l-180 12 115 170 c63 94 142 207 175
252 l60 81 79 -55 c112 -76 401 -216 655 -316 725 -286 1731 -559 2435 -662
170 -25 1071 -179 2089 -356 252 -44 463 -78 468 -77 7 3 -822 324 -1672 648
-418 159 -442 169 -680 263 -1076 427 -2365 742 -3143 770 l-67 2 134 160 c74
88 163 191 198 229 l63 69 47 -32 c394 -266 1793 -650 2738 -751 184 -20 405
-48 1310 -165 487 -64 891 -114 899 -113 7 2 -173 66 -400 142 -228 77 -731
247 -1119 378 -388 131 -788 265 -890 297 -748 237 -1760 430 -2267 432 l-138
0 173 168 c95 93 184 174 197 181 20 11 27 9 57 -13 38 -28 183 -102 279 -142
556 -230 1542 -470 2204 -535 105 -11 152 -16 490 -60 83 -11 429 -56 770
-100 341 -44 634 -83 650 -86 17 -4 27 -4 24 0 -6 6 -233 84 -1224 416 -324
109 -648 219 -720 244 -646 225 -1532 412 -2128 449 l-189 12 88 71 c86 68
265 202 292 218 8 5 27 -6 52 -28 204 -185 1245 -483 1985 -570 271 -32 568
-69 1102 -139 304 -40 549 -70 545 -66 -4 3 -144 52 -312 109 -1610 542 -1547
521 -1840 595 -484 122 -942 195 -1237 198 -79 1 -143 3 -143 4 0 7 158 107
237 151 l91 51 54 -29 c192 -104 748 -220 1268 -264 96 -8 360 -20 585 -26
226 -7 559 -17 740 -24 182 -7 332 -11 334 -9 6 4 -5 7 -489 118 -256 59 -557
129 -670 157 -500 120 -904 178 -1368 196 l-183 7 121 49 c66 26 128 46 137
43 10 -3 37 -13 61 -21 102 -38 393 -66 676 -66 211 0 409 13 626 40 85 11
321 38 524 60 204 22 372 43 375 45 2 3 -2 5 -10 5 -8 0 -223 18 -479 40 -256
22 -517 45 -580 50 -139 12 -537 12 -675 1 -55 -5 -101 -7 -103 -6 -1 1 23 15
55 31 32 15 120 69 196 121 80 53 161 100 192 109 47 15 54 20 49 39 -4 17 7
31 52 69 32 26 139 123 238 215 100 92 229 212 289 266 59 54 107 100 107 101
0 2 -93 -53 -207 -123 -115 -69 -260 -157 -323 -196 -192 -116 -395 -260 -511
-362 -32 -28 -246 -121 -256 -111 -2 2 14 57 37 121 75 219 142 526 175 800 9
72 34 269 56 438 22 170 39 313 37 318 -5 13 -326 -954 -353 -1062 -54 -219
-105 -524 -105 -637 l-1 -47 -252 -125 c-139 -68 -254 -126 -257 -127 -3 -2
-14 45 -24 104 -40 243 -175 697 -279 943 -56 133 -422 1010 -430 1030 -3 9
-6 10 -6 3z m1453 -1848 c-4 -8 -11 -12 -16 -9 -6 4 -5 10 3 15 19 12 19 11
13 -6z"/>
</g>
</svg>
