<?xml version="1.0" standalone="no"?>
<!DOCTYPE svg PUBLIC "-//W3C//DTD SVG 20010904//EN"
 "http://www.w3.org/TR/2001/REC-SVG-20010904/DTD/svg10.dtd">
<svg version="1.0" xmlns="http://www.w3.org/2000/svg"
 width="993.000000pt" height="1280.000000pt" viewBox="0 0 993.000000 1280.000000"
 preserveAspectRatio="xMidYMid meet">
<metadata>
Created by potrace 1.15, written by Peter Selinger 2001-2017
</metadata>
<g transform="translate(0.000000,1280.000000) scale(0.100000,-0.100000)"
fill="#000000" stroke="none">
<path d="M26 12772 c-3 -5 4 -24 16 -43 34 -55 77 -132 135 -239 22 -41 152
-280 288 -530 304 -560 316 -582 352 -650 16 -30 40 -73 53 -95 12 -22 52 -96
88 -165 35 -69 77 -145 92 -170 15 -25 116 -209 225 -410 195 -359 224 -413
286 -527 75 -138 88 -161 122 -223 28 -52 269 -497 438 -808 31 -57 39 -98
624 -3031 107 -542 200 -991 206 -998 16 -19 22 -17 75 27 91 75 887 621 901
618 11 -2 238 -412 580 -1048 50 -94 88 -163 173 -320 31 -58 75 -139 97 -180
23 -41 112 -205 198 -365 87 -159 175 -324 198 -365 22 -41 80 -149 130 -240
49 -91 105 -194 125 -230 19 -36 47 -87 62 -115 15 -27 89 -165 165 -305 76
-140 179 -331 230 -425 51 -93 111 -206 135 -250 24 -44 69 -127 100 -185 31
-58 74 -136 95 -175 21 -38 50 -92 65 -120 15 -27 92 -169 170 -315 79 -146
192 -355 252 -464 59 -109 108 -209 108 -221 0 -22 99 -148 132 -169 26 -16
31 -2 13 33 -13 27 -14 34 -2 53 8 13 20 43 27 68 7 25 21 70 31 100 9 30 31
102 49 160 17 58 35 116 40 130 5 14 39 122 75 240 36 118 84 274 107 345 22
72 44 144 49 160 5 17 22 71 37 120 16 50 39 124 52 165 13 41 35 113 50 160
25 79 43 137 93 300 11 36 23 74 27 85 4 11 18 54 30 95 31 102 58 189 90 290
15 47 37 119 50 160 12 41 31 100 41 130 10 30 24 78 33 105 8 28 44 147 81
265 64 207 83 268 124 403 24 78 49 157 71 227 10 30 33 102 50 160 18 58 40
130 50 160 9 30 27 89 40 130 12 41 26 84 30 95 4 11 18 54 30 95 13 41 35
113 50 160 15 47 37 119 50 160 12 41 31 100 40 130 10 30 33 102 50 160 18
58 41 130 51 160 9 30 25 80 34 110 59 195 174 569 185 600 4 14 23 72 40 130
18 58 41 130 50 160 10 30 28 89 40 130 12 41 26 84 30 95 4 11 18 54 30 95
48 158 63 206 70 225 4 11 18 54 30 95 48 158 63 206 70 225 4 11 18 54 30 95
13 41 31 100 40 130 10 30 33 102 50 160 18 58 41 130 51 160 9 30 25 80 34
110 61 204 174 571 185 600 5 14 23 72 40 130 18 58 40 130 49 160 10 30 28
89 41 130 12 41 26 84 30 95 4 11 18 54 30 95 13 41 31 100 41 131 11 30 19
72 19 93 0 31 59 232 91 311 22 56 49 144 49 162 0 17 -11 25 -57 38 -233 70
-702 235 -1168 410 -302 114 -584 220 -625 235 -41 16 -113 43 -160 60 -47 17
-121 45 -165 62 -44 16 -116 43 -160 60 -44 16 -115 43 -157 59 -43 16 -113
42 -155 58 -43 16 -289 109 -548 206 -258 97 -506 190 -550 207 -44 16 -115
43 -157 59 -43 16 -115 43 -160 60 -46 17 -117 43 -158 59 -41 16 -111 42
-155 58 -44 17 -327 123 -630 237 -302 114 -586 221 -630 237 -44 16 -116 43
-160 60 -44 16 -116 43 -160 60 -44 16 -114 42 -155 58 -41 15 -208 78 -370
140 -162 62 -305 114 -317 117 -29 7 -35 -6 -82 -196 -21 -88 -43 -157 -51
-159 -11 -4 -112 24 -175 48 -11 4 -54 18 -95 30 -155 47 -206 63 -225 70 -19
7 -70 23 -225 70 -41 12 -84 26 -95 30 -11 4 -54 18 -95 30 -41 13 -100 31
-130 41 -30 9 -102 31 -160 49 -58 17 -116 35 -130 40 -14 5 -122 39 -240 75
-270 83 -459 142 -530 165 -30 9 -89 28 -130 40 -41 13 -104 32 -140 43 -36
11 -74 23 -85 27 -11 4 -54 18 -95 30 -154 47 -206 63 -225 70 -11 4 -38 13
-60 20 -22 7 -51 21 -64 31 -25 20 -47 24 -55 11z"/>
</g>
</svg>
