<?xml version="1.0" standalone="no"?>
<!DOCTYPE svg PUBLIC "-//W3C//DTD SVG 20010904//EN"
 "http://www.w3.org/TR/2001/REC-SVG-20010904/DTD/svg10.dtd">
<svg version="1.0" xmlns="http://www.w3.org/2000/svg"
 width="1280.000000pt" height="1280.000000pt" viewBox="0 0 1280.000000 1280.000000"
 preserveAspectRatio="xMidYMid meet">
<metadata>
Created by potrace 1.15, written by Peter Selinger 2001-2017
</metadata>
<g transform="translate(0.000000,1280.000000) scale(0.100000,-0.100000)"
fill="#000000" stroke="none">
<path d="M6035 12770 c-1982 -86 -3854 -1156 -4970 -2840 -253 -381 -486 -843
-646 -1277 -196 -531 -315 -1052 -371 -1618 -20 -201 -17 -1040 5 -1265 71
-750 266 -1452 592 -2134 120 -251 335 -622 477 -824 44 -63 94 -135 111 -160
59 -88 305 -389 444 -543 445 -493 1024 -952 1612 -1279 789 -438 1628 -695
2541 -780 196 -19 569 -27 807 -19 521 18 967 87 1493 231 800 219 1570 612
2242 1147 190 150 369 314 593 542 218 223 353 379 536 621 558 741 949 1607
1141 2528 17 85 58 325 73 435 38 283 47 411 52 761 7 487 -9 716 -82 1172
-144 891 -496 1774 -999 2510 -39 57 -78 114 -86 125 -37 55 -172 232 -249
327 -473 584 -1075 1101 -1736 1490 -183 107 -620 322 -813 399 -586 235
-1214 386 -1807 435 -227 19 -711 27 -960 16z"/>
</g>
</svg>
