<?xml version="1.0" standalone="no"?>
<!DOCTYPE svg PUBLIC "-//W3C//DTD SVG 20010904//EN"
 "http://www.w3.org/TR/2001/REC-SVG-20010904/DTD/svg10.dtd">
<svg version="1.0" xmlns="http://www.w3.org/2000/svg"
 width="1280.000000pt" height="1137.000000pt" viewBox="0 0 1280.000000 1137.000000"
 preserveAspectRatio="xMidYMid meet">
<metadata>
Created by potrace 1.15, written by Peter Selinger 2001-2017
</metadata>
<g transform="translate(0.000000,1137.000000) scale(0.100000,-0.100000)"
fill="#000000" stroke="none">
<path d="M5225 11364 c-11 -2 -57 -12 -103 -21 l-84 -16 -33 -53 c-19 -29 -75
-97 -125 -151 -50 -54 -110 -128 -133 -165 -36 -57 -45 -66 -65 -61 -12 3 -62
6 -110 7 -73 1 -97 -3 -139 -23 l-51 -23 14 -52 c8 -28 17 -124 21 -212 l6
-161 -69 -7 c-79 -8 -128 -22 -143 -40 -7 -9 -3 -51 14 -146 14 -73 23 -135
20 -138 -9 -10 -125 97 -380 350 -143 141 -287 278 -319 303 -66 51 -55 52
-129 -15 l-28 -25 13 30 c7 17 21 44 31 62 17 32 17 33 -6 47 -46 31 -240 97
-248 85 -4 -7 -12 -38 -19 -71 -7 -32 -16 -55 -20 -51 -4 4 -13 55 -19 113
-13 121 -15 124 -126 176 -103 47 -232 88 -480 149 -121 30 -229 57 -241 61
-18 5 -23 -1 -34 -43 -6 -26 -14 -56 -17 -65 -2 -10 -26 -24 -56 -34 -29 -9
-82 -32 -119 -50 -72 -36 -69 -31 -91 -167 -6 -38 8 -42 98 -28 60 10 79 10
107 -2 31 -13 36 -21 47 -73 7 -33 20 -89 28 -125 l14 -66 124 5 123 5 17 -59
c9 -33 33 -101 53 -153 l35 -93 46 6 c25 3 75 21 111 38 152 75 149 76 65 -10
-102 -103 -103 -105 -60 -132 19 -12 35 -24 35 -26 0 -3 -51 -2 -112 2 -371
21 -926 -87 -1273 -250 l-110 -51 80 -6 c87 -8 225 -29 225 -36 0 -2 -14 -16
-30 -30 -17 -14 -51 -53 -75 -88 l-45 -62 -162 -53 c-206 -66 -400 -137 -553
-202 -66 -28 -122 -52 -124 -54 -2 -2 16 -23 40 -47 24 -23 75 -75 112 -115
38 -39 77 -72 87 -72 9 0 62 16 116 36 l99 35 -25 -28 c-13 -15 -38 -43 -55
-61 l-30 -33 30 11 c46 17 155 74 229 119 36 22 93 54 127 71 l61 31 -63 -83
c-34 -46 -67 -89 -73 -97 -6 -8 45 23 112 68 68 45 126 81 128 78 2 -2 -22
-60 -55 -128 -32 -68 -55 -125 -51 -127 5 -2 62 12 129 31 67 19 121 32 121
29 0 -2 -35 -48 -77 -100 l-77 -96 70 39 c84 46 243 147 303 192 51 38 61 40
61 13 0 -42 31 -18 114 88 31 39 61 72 66 72 9 0 32 -57 65 -160 10 -30 22
-60 27 -67 11 -14 4 -19 -47 -27 -76 -13 -371 -97 -531 -151 -380 -128 -680
-285 -944 -495 -129 -103 -544 -516 -625 -624 l-60 -79 0 -86 c0 -106 9 -290
13 -286 2 2 14 53 27 113 21 97 62 218 71 209 2 -2 -3 -55 -11 -117 -8 -63
-15 -119 -15 -124 0 -29 45 63 87 179 26 71 49 123 50 115 1 -8 5 -64 9 -124
4 -66 9 -104 14 -95 5 8 23 91 41 184 17 94 35 174 39 178 15 17 60 -256 60
-364 0 -81 15 -63 45 54 39 156 80 295 97 337 14 34 15 32 10 -49 -3 -46 1
-123 8 -170 l13 -86 13 61 c7 34 25 88 40 120 l28 59 18 -60 c20 -69 48 -135
57 -135 4 0 14 69 24 153 21 179 36 257 47 236 4 -8 13 -68 20 -134 6 -66 13
-122 15 -124 2 -1 17 23 33 55 17 33 56 95 87 139 63 89 81 110 72 83 -14 -41
-28 -186 -22 -231 l7 -50 78 187 c42 102 79 189 83 192 3 3 1 -12 -3 -33 -5
-21 -12 -83 -15 -138 l-6 -100 21 37 c11 20 40 89 64 152 25 63 52 128 60 143
15 27 15 23 15 -67 -1 -108 9 -190 22 -190 5 0 9 4 9 9 0 16 113 162 182 236
l65 69 33 -134 c30 -124 50 -179 50 -138 0 50 109 228 203 332 l54 59 -4 -84
c-2 -46 0 -104 5 -129 l9 -45 13 30 c51 118 96 204 142 274 l53 80 5 -172 5
-171 89 189 c49 105 92 192 94 195 3 3 2 -6 -1 -20 -26 -127 -37 -191 -37
-225 l1 -40 15 34 c8 19 43 85 79 145 35 61 67 123 70 139 4 15 11 27 17 27 5
0 7 -4 3 -9 -10 -17 51 -341 68 -357 2 -2 14 30 27 72 22 74 123 289 154 329
14 18 15 13 16 -72 0 -55 4 -93 10 -93 6 0 10 6 10 13 0 17 112 165 157 206
l37 34 13 -37 c12 -35 11 -41 -8 -67 -23 -32 -22 -33 16 -19 22 8 29 6 54 -22
l28 -32 -38 -78 c-22 -43 -39 -82 -39 -86 0 -5 -48 -51 -107 -103 -198 -174
-554 -532 -685 -689 -171 -205 -372 -471 -504 -666 -204 -302 -371 -698 -448
-1062 -47 -223 -43 -323 18 -457 l23 -50 7 60 c13 103 8 102 83 6 10 -13 12
31 13 214 l0 230 47 -85 47 -85 18 41 c9 22 23 70 30 106 l12 65 79 -81 c70
-72 78 -78 72 -51 -3 17 -8 86 -11 155 l-6 125 86 -85 c47 -46 86 -82 86 -79
0 3 -23 66 -51 139 -27 72 -49 134 -47 135 2 2 36 -36 77 -83 70 -81 74 -85
67 -52 -3 19 -9 69 -13 110 -6 71 -5 74 11 60 20 -16 86 -110 123 -174 l23
-41 0 47 c0 26 -7 79 -15 119 -9 40 -14 74 -11 76 2 2 14 -22 27 -53 12 -32
24 -53 26 -48 1 5 -14 75 -35 156 l-38 147 71 -67 c38 -37 85 -78 103 -91 l34
-24 -22 43 c-24 46 -44 99 -65 170 l-14 45 35 -40 c20 -22 50 -64 67 -92 17
-29 35 -53 39 -53 11 0 20 121 17 224 -2 53 -3 96 -3 96 1 0 28 -32 60 -72 93
-114 86 -108 79 -63 -4 22 -18 71 -31 109 -13 38 -23 71 -21 72 1 1 30 -37 65
-86 l63 -89 -27 -43 c-58 -91 -150 -323 -168 -420 -6 -32 -4 -39 16 -49 13 -6
33 -21 46 -32 29 -27 29 -90 2 -313 -12 -91 -19 -206 -18 -257 l3 -92 39 75
38 74 19 -37 c18 -35 18 -38 3 -62 -14 -22 -15 -32 -5 -66 7 -23 29 -60 49
-82 21 -23 44 -55 52 -71 l15 -28 6 32 c9 41 17 48 72 65 51 15 49 16 66 -36
6 -20 20 -44 30 -53 17 -15 18 -14 17 26 -1 31 3 43 14 43 8 1 32 5 53 9 21 5
40 6 43 3 3 -2 -20 -30 -50 -60 -52 -54 -54 -58 -49 -99 7 -56 29 -155 43
-192 l11 -29 35 42 c56 64 67 67 121 32 26 -17 50 -31 55 -31 4 0 8 -4 8 -10
0 -5 -5 -10 -11 -10 -35 0 -340 -188 -504 -310 -265 -199 -511 -500 -621 -760
l-33 -80 37 0 c46 0 141 22 215 50 l57 21 0 60 0 60 22 -15 c13 -10 43 -16 73
-16 41 0 69 9 145 49 148 77 200 91 332 91 62 0 139 4 170 10 51 8 64 15 110
62 108 110 125 105 26 -7 -54 -61 -98 -113 -98 -117 0 -11 91 31 128 59 26 19
32 21 32 8 0 -9 12 -28 26 -42 l26 -26 41 41 c54 53 134 92 186 92 l41 0 -114
-167 c-249 -368 -383 -598 -425 -731 -66 -208 -134 -528 -155 -735 l-6 -57 52
-25 c29 -13 70 -35 91 -47 l38 -23 48 53 c27 29 61 75 76 103 l27 51 -17 53
c-9 29 -15 72 -13 96 3 42 3 42 46 46 23 2 61 11 84 19 58 20 61 18 39 -24
-27 -53 -66 -180 -58 -188 4 -4 23 -3 42 3 20 6 35 7 35 2 0 -16 -52 -203 -61
-221 -5 -9 -9 -29 -9 -45 0 -31 61 -281 73 -301 13 -20 79 -50 138 -60 l54
-10 82 54 c95 63 122 93 168 183 18 36 64 113 102 171 l70 106 -14 39 c-8 22
-17 71 -20 109 l-6 70 36 -41 37 -40 0 -107 c0 -58 2 -106 5 -106 2 0 34 18
70 40 36 22 67 40 69 40 3 0 0 -15 -4 -32 -17 -62 -50 -353 -57 -494 l-6 -141
36 -47 c33 -43 55 -97 71 -168 8 -33 28 -45 92 -53 l49 -6 77 153 c42 84 79
164 82 178 3 14 19 33 35 43 27 16 94 94 148 172 l21 30 -29 110 c-27 102 -50
268 -36 254 4 -3 14 -43 23 -90 25 -133 89 -318 159 -456 36 -70 64 -127 62
-128 -52 -27 -270 -236 -330 -316 -34 -45 -34 -49 3 -49 37 0 37 -8 5 -85 -13
-33 -25 -80 -25 -105 0 -44 32 -195 43 -207 10 -9 104 66 152 121 l45 53 54
-5 55 -4 30 49 c42 68 82 95 134 92 95 -6 99 -4 134 60 45 82 117 155 146 147
13 -3 69 3 127 13 l104 17 27 68 c15 37 30 70 32 72 3 3 17 -16 31 -42 l26
-47 -79 -82 c-64 -67 -139 -139 -239 -230 -11 -10 -6 -11 27 -5 23 4 41 3 41
-2 0 -18 -41 -88 -71 -123 -35 -39 -22 -47 33 -19 l31 16 -7 -35 c-11 -58 -46
-159 -71 -204 -13 -24 -22 -43 -19 -43 14 0 108 54 162 94 l63 46 -22 -42
c-12 -24 -42 -75 -66 -115 l-43 -72 29 -100 c17 -56 35 -111 42 -123 6 -12 15
-67 18 -122 l6 -101 47 90 c25 50 58 126 74 170 15 44 29 82 31 84 2 3 17 -9
34 -25 l31 -29 -6 57 c-7 55 -7 56 27 83 20 14 52 29 72 32 l38 6 -6 58 -5 59
55 17 c46 15 57 22 69 53 8 19 28 52 44 72 33 40 36 61 19 118 -11 35 -9 40
25 85 23 30 35 54 31 64 -13 33 -53 157 -59 183 -6 25 -4 28 19 28 33 0 95 26
95 40 0 6 -13 37 -30 69 l-29 59 19 58 c11 32 25 63 30 68 16 16 24 -2 9 -20
-11 -14 -11 -18 6 -30 27 -20 40 -17 59 11 20 30 38 24 61 -19 16 -29 16 -39
5 -87 -12 -50 -90 -312 -105 -351 -6 -14 -2 -18 14 -18 12 0 21 -3 21 -6 0 -4
-18 -34 -41 -68 -39 -58 -41 -64 -35 -117 4 -46 2 -60 -11 -70 -19 -16 -93
-128 -93 -141 0 -4 7 -8 15 -8 9 0 29 -7 44 -15 l28 -14 7 -203 c7 -203 7
-203 -23 -313 -32 -123 -47 -205 -36 -205 4 0 29 18 56 41 48 40 69 44 69 10
0 -9 13 -38 30 -64 29 -46 50 -60 50 -33 0 8 15 27 34 44 34 30 35 30 76 16
63 -22 80 -12 81 44 3 101 12 115 68 97 21 -6 23 -5 17 11 -4 10 -10 38 -13
61 l-6 44 41 -7 40 -6 -9 43 c-6 24 -26 94 -45 154 -20 61 -44 139 -55 175
l-19 64 29 -35 c16 -19 51 -47 78 -61 l49 -27 -4 72 c-2 40 -10 90 -19 112 -8
22 -24 61 -34 87 -10 27 -17 48 -16 48 2 0 28 -18 58 -40 29 -23 55 -36 57
-30 8 23 -31 178 -83 327 -29 87 -52 159 -50 161 2 2 26 -13 53 -33 190 -136
495 -256 916 -359 457 -113 669 -143 1276 -186 454 -31 556 -40 715 -61 370
-50 724 -142 1107 -290 122 -47 132 -49 225 -49 89 1 207 9 368 26 l61 6 83
-94 c45 -51 92 -109 104 -130 19 -33 27 -37 77 -43 30 -4 165 -11 300 -14
l244 -6 31 -79 c20 -52 37 -81 50 -86 11 -4 101 -13 200 -20 177 -12 508 -8
584 8 l35 8 -83 89 c-198 215 -455 532 -778 960 -535 709 -1128 1360 -1798
1975 -441 405 -1145 980 -2238 1829 -108 85 -196 156 -194 158 8 7 235 -18
316 -36 l83 -18 -6 50 c-4 27 -16 73 -27 101 -10 28 -19 54 -19 57 0 3 23 16
51 29 l50 24 -98 39 c-182 71 -570 179 -767 212 -38 6 -38 7 -32 43 37 214 51
555 27 677 -5 27 -8 51 -6 53 2 2 17 -41 35 -95 18 -54 35 -101 39 -105 27
-30 -53 512 -99 670 -8 30 -7 33 8 27 48 -20 154 -56 158 -53 11 11 35 135 41
208 6 73 8 80 15 50 4 -19 11 -88 16 -153 5 -65 13 -122 19 -128 15 -15 144
-23 174 -11 22 9 28 19 34 58 13 89 17 91 58 19 21 -36 42 -65 48 -65 18 0 87
39 92 52 3 9 14 4 35 -16 25 -23 36 -27 59 -22 32 8 95 45 137 80 l28 24 -71
88 c-39 49 -71 92 -71 95 0 3 44 9 97 12 77 5 100 4 113 -8 19 -17 81 -40 132
-48 l38 -6 19 67 c11 37 28 97 38 133 l17 66 -27 46 c-35 58 -37 107 -4 107
24 0 88 -29 126 -57 l23 -17 -7 54 c-13 106 -69 310 -102 375 -15 28 -13 27
36 -14 28 -24 51 -40 51 -36 0 4 -17 35 -37 69 -201 331 -563 725 -825 899
-44 29 -78 59 -78 68 0 20 76 139 89 139 5 0 11 -10 15 -22 12 -48 168 -259
182 -245 17 17 -66 293 -129 432 -122 266 -276 451 -542 650 -92 69 -283 185
-304 185 -6 0 -11 3 -11 8 0 4 15 7 33 8 17 0 91 4 162 8 120 8 133 11 165 36
42 33 123 81 166 99 30 12 35 10 80 -24 41 -31 154 -95 168 -95 3 0 -5 28 -18
63 -21 54 -49 187 -40 187 2 0 44 -26 93 -59 84 -55 411 -241 424 -241 3 0
-32 77 -78 172 -47 95 -85 176 -85 181 0 4 19 -7 43 -26 73 -60 188 -138 302
-207 134 -81 234 -137 220 -123 -5 6 -66 61 -135 123 -69 62 -134 122 -145
133 -34 34 64 -26 315 -193 129 -86 263 -173 298 -193 85 -50 91 -50 467 9 61
9 112 19 114 21 15 12 -199 187 -354 289 -235 154 -368 216 -680 319 -174 57
-460 129 -625 158 -167 28 -474 30 -665 4 -589 -82 -1150 -236 -1664 -457 -80
-34 -162 -70 -184 -81 -70 -36 -48 -15 48 46 67 43 94 66 94 80 1 30 -32 97
-67 136 l-31 35 68 16 c38 9 132 45 209 80 l141 63 11 70 c6 39 14 78 16 87 3
10 48 47 100 83 l94 66 -70 101 c-50 72 -67 105 -60 112 7 7 55 10 123 9 l112
-2 -48 44 c-92 85 -210 135 -361 155 -54 8 -101 8 -134 2 -48 -9 -51 -8 -56
14 -8 30 7 97 29 130 9 14 15 28 12 30 -2 3 -31 14 -63 25 -57 20 -213 34
-259 23z m-2107 -1171 c-3 -17 -7 -18 -37 -11 l-34 9 29 18 c32 20 48 14 42
-16z m2517 -792 c16 -31 16 -33 0 -27 -9 3 -50 6 -91 6 l-74 0 38 39 c21 22
47 55 57 75 l20 36 16 -48 c9 -26 24 -63 34 -81z m618 -56 l44 -85 -36 6 c-20
4 -39 9 -43 13 -5 5 -16 151 -11 151 1 0 22 -38 46 -85z m-2737 60 c-11 -8
-25 -15 -30 -15 -6 0 -2 7 8 15 11 8 25 15 30 15 6 0 2 -7 -8 -15z m-116 -64
c0 -19 -140 -58 -161 -45 -5 3 -9 18 -9 34 0 27 3 29 58 40 31 6 62 13 67 15
10 3 45 -31 45 -44z m-202 -23 c6 -17 11 -32 9 -33 -4 -3 -112 -23 -114 -22
-1 1 -3 15 -5 31 -3 27 0 31 42 42 25 7 47 12 50 13 3 1 11 -13 18 -31z m3506
-156 c7 -21 7 -21 -38 -6 -26 9 -46 18 -46 21 0 3 12 39 27 81 l27 77 12 -76
c6 -42 15 -85 18 -97z m-3639 98 c-3 -6 -17 -10 -31 -10 -20 0 -24 5 -24 29 0
38 30 46 48 14 7 -13 10 -28 7 -33z m-97 6 c11 -24 9 -25 -44 -36 -31 -7 -58
-10 -60 -7 -3 2 0 16 5 30 9 24 17 27 77 36 6 0 16 -10 22 -23z m-190 -49 c3
-12 -4 -17 -21 -17 -14 0 -33 -3 -42 -6 -13 -5 -16 -2 -13 12 1 10 14 21 28
25 33 9 44 6 48 -14z m-118 -21 c0 -8 -15 -16 -37 -19 -106 -17 -107 -17 -43
7 78 29 80 30 80 12z m3060 -52 c0 -19 -3 -33 -7 -31 -5 3 -28 10 -53 17 l-45
12 45 18 c61 24 60 25 60 -16z m-3430 -25 c0 -4 -11 -9 -25 -11 -29 -6 -29 -7
-13 26 10 24 12 24 24 8 7 -9 14 -20 14 -23z m4663 -49 c-3 -11 -9 -17 -14
-15 -10 7 -1 35 11 35 5 0 6 -9 3 -20z m-1318 -248 c300 -157 550 -303 835
-487 138 -89 146 -98 30 -36 -52 29 -252 131 -445 228 -192 96 -393 204 -445
238 -52 35 -172 104 -266 155 -141 74 -171 94 -167 109 4 17 20 12 136 -44 73
-35 218 -108 322 -163z m1728 93 c14 -44 24 -81 23 -82 -1 -1 -24 11 -52 28
l-51 29 18 52 c10 29 19 62 19 73 l1 20 9 -20 c4 -11 19 -56 33 -100z m-209
60 c-6 -16 -24 -21 -24 -7 0 11 11 22 21 22 5 0 6 -7 3 -15z m380 -155 c9 -41
16 -76 16 -78 0 -1 -13 4 -30 13 -16 9 -30 21 -30 27 0 16 24 118 27 115 1 -1
9 -36 17 -77z m-2156 -332 c-3 -22 -7 -19 -31 31 l-29 56 32 -31 c22 -22 31
-38 28 -56z m-1394 -116 c8 -16 11 -34 7 -41 -6 -9 -10 -5 -15 12 -3 14 -9 32
-12 41 -10 27 5 18 20 -12z m1189 -139 c-8 -49 -23 -40 -23 14 0 41 2 45 14
33 9 -10 12 -27 9 -47z m434 -260 c0 -60 2 -144 6 -188 3 -44 4 -71 1 -60 -3
11 -21 83 -40 159 l-34 140 32 27 c18 16 33 28 34 29 0 0 0 -48 1 -107z m-353
-53 c38 -17 46 -26 46 -47 0 -47 -22 -153 -30 -148 -8 5 -27 61 -55 168 -7 26
-12 47 -10 47 1 0 23 -9 49 -20z m622 -107 c0 -98 5 -142 20 -187 l19 -59 35
102 c19 55 37 101 40 101 3 0 28 -40 57 -88 43 -74 53 -99 62 -167 28 -196 41
-337 41 -431 0 -130 38 -269 151 -547 26 -65 53 -143 59 -175 24 -119 29 -132
54 -132 12 0 26 -3 30 -7 4 -4 23 -6 41 -4 19 1 59 -5 88 -13 l54 -16 7 -102
c3 -57 13 -132 20 -168 8 -36 13 -66 12 -67 -7 -7 -239 224 -343 340 -234 262
-432 524 -710 938 l-185 276 18 52 c10 28 21 51 24 51 3 0 22 -34 44 -75 43
-86 180 -240 172 -195 -3 14 -12 86 -21 160 -9 74 -23 167 -30 205 l-13 70 31
24 c48 37 133 128 174 188 20 29 39 53 42 53 3 0 6 -57 7 -127z m1451 43 c39
-41 82 -97 96 -128 25 -52 29 -56 83 -73 37 -12 72 -16 103 -12 l47 6 38 -114
37 -114 42 15 c53 19 127 62 127 74 0 6 5 10 10 10 7 0 6 -8 -1 -22 -20 -36
-23 -213 -6 -293 8 -38 14 -71 13 -72 -1 -1 -16 16 -33 38 -83 108 -520 559
-661 683 -24 20 -42 39 -40 40 7 7 63 35 69 36 4 0 38 -33 76 -74z m-4681
-697 c63 -110 69 -136 38 -146 -7 -2 -81 169 -113 261 -9 27 14 -9 75 -115z
m134 -29 c0 -4 -7 -13 -15 -20 -13 -11 -15 -8 -15 13 0 19 4 25 15 21 8 -4 15
-10 15 -14z m4385 -55 c8 -69 1 -98 -11 -49 -4 16 -15 48 -25 72 l-18 42 24 0
c22 0 24 -5 30 -65z m-4656 -173 c23 -39 41 -76 41 -82 0 -6 -12 -32 -27 -57
l-26 -45 -28 138 c-16 77 -33 152 -39 168 -18 52 -9 52 15 -1 13 -28 42 -83
64 -121z m-83 -74 l64 -127 -20 -33 -20 -33 -7 25 c-6 22 -86 258 -107 315
l-8 20 17 -20 c9 -11 45 -77 81 -147z m62 -248 c-9 -14 -14 -16 -20 -7 -13 20
-9 27 12 27 18 0 19 -3 8 -20z m2107 -272 c40 -61 46 -76 40 -106 -18 -96 -45
-103 -64 -15 -7 30 -23 86 -36 124 -23 66 -23 69 -5 69 13 0 35 -24 65 -72z
m1389 -205 c101 -115 335 -346 453 -444 58 -49 65 -62 28 -53 -13 3 -131 9
-261 12 l-237 7 -32 190 c-31 181 -81 419 -92 440 -10 18 32 -28 141 -152z
m1005 -380 c-1 -134 1 -134 -104 -52 -49 39 -91 73 -92 77 -3 7 150 59 180 61
15 1 17 -9 16 -86z m186 -184 c7 -27 6 -27 -42 -22 -46 5 -146 58 -140 75 1 4
36 32 77 62 l75 54 11 -72 c7 -39 15 -83 19 -97z m261 -691 c153 -124 202
-166 574 -488 118 -103 411 -352 650 -555 652 -553 1065 -921 1525 -1361 679
-651 1103 -1153 1430 -1699 83 -138 240 -443 232 -451 -6 -7 -359 258 -662
497 -779 615 -947 721 -1720 1094 -849 410 -1177 570 -1785 874 l-605 302 -55
116 c-52 112 -147 289 -186 348 l-18 28 49 -7 c33 -5 56 -15 68 -29 25 -31 75
-130 103 -205 14 -35 35 -85 49 -111 21 -42 29 -49 63 -54 44 -8 56 -26 67
-101 4 -25 11 -49 16 -52 5 -3 31 2 58 11 l48 16 7 61 c3 33 6 77 6 97 0 31 5
39 34 55 19 10 46 30 60 45 25 26 25 27 11 75 -8 27 -15 63 -15 80 l0 31 67 0
c66 0 68 1 66 25 -2 14 -6 72 -9 128 l-7 104 -84 101 c-215 259 -288 340 -355
395 -168 137 -487 355 -685 468 l-102 58 63 34 c35 18 89 56 120 83 l56 50
185 -56 184 -57 28 20 c81 57 269 151 304 152 8 0 82 -55 165 -122z m-1177
-14 c23 -37 41 -68 39 -69 -2 -1 -52 22 -112 51 -60 30 -107 54 -105 55 2 1
31 7 64 14 33 7 63 13 66 14 3 0 24 -29 48 -65z m-513 -248 c10 -8 17 -17 14
-19 -3 -3 -16 3 -30 13 -29 22 -14 27 16 6z m-888 -79 c9 -88 2 -89 -21 -3
-12 44 -14 63 -5 73 6 7 12 12 14 10 2 -2 7 -38 12 -80z m62 -1249 c0 -12 -1
-19 -3 -17 -1 2 -9 12 -16 22 -12 14 -11 17 3 17 10 0 16 -8 16 -22z m-1480
-38 c-12 -23 -23 -40 -26 -38 -6 7 18 72 30 80 19 12 18 1 -4 -42z m2992 -424
c14 -19 15 -27 5 -40 -11 -15 -14 -12 -23 23 -13 46 -7 51 18 17z m1208 -278
c331 -179 1347 -688 1770 -887 420 -198 489 -233 615 -314 270 -171 709 -510
920 -709 l60 -56 -230 79 c-960 332 -1142 367 -2010 389 -362 9 -501 20 -795
61 -339 48 -824 145 -1041 210 -225 67 -316 115 -479 254 -110 94 -167 163
-196 237 -26 67 -25 81 6 53 20 -18 21 -18 44 4 21 20 22 26 13 52 -13 33 -22
37 -31 13 -6 -15 -9 -14 -31 6 -20 19 -22 26 -12 47 9 21 8 27 -10 41 -33 25
-46 68 -27 87 9 8 20 15 25 15 5 0 9 6 9 13 0 20 -98 100 -111 91 -12 -7 -8
21 10 69 13 35 69 95 103 113 27 14 32 14 47 0 12 -11 28 -14 47 -11 23 5 39
-2 78 -32 48 -36 73 -74 119 -178 9 -22 31 -56 47 -75 28 -32 31 -33 43 -16
12 16 19 12 84 -53 40 -40 80 -71 91 -71 27 0 45 25 37 52 -6 23 -6 23 11 3
15 -19 16 -17 10 45 l-6 65 58 -3 59 -4 23 74 c33 106 86 228 130 300 l38 63
-19 48 c-23 58 -23 56 0 50 16 -4 101 13 101 21 0 2 -7 20 -15 39 -8 20 -15
39 -15 43 0 3 35 -13 78 -37 42 -24 201 -110 352 -191z m-1990 64 c49 -13 66
-22 69 -37 4 -24 21 -37 39 -30 6 2 12 0 12 -5 0 -6 -9 -10 -20 -10 -15 0 -20
-7 -20 -25 0 -20 5 -25 25 -25 16 0 25 -6 25 -16 0 -11 -5 -14 -17 -9 -50 20
-93 27 -156 23 l-69 -4 6 51 c3 27 6 67 6 88 0 33 2 36 18 27 9 -6 46 -19 82
-28z m440 -85 c0 -7 -3 -30 -7 -51 l-6 -39 -13 49 c-19 70 -18 77 6 64 11 -6
20 -16 20 -23z m-225 -118 c11 -17 -1 -21 -15 -4 -8 9 -8 15 -2 15 6 0 14 -5
17 -11z m-26 -496 c0 -17 -102 -107 -133 -119 -9 -3 -17 6 -24 25 -9 26 -8 31
13 45 15 10 26 12 30 6 10 -16 25 -11 25 9 0 12 13 24 38 34 49 20 52 20 51 0z"/>
</g>
</svg>
