<?xml version="1.0" standalone="no"?>
<!DOCTYPE svg PUBLIC "-//W3C//DTD SVG 20010904//EN"
 "http://www.w3.org/TR/2001/REC-SVG-20010904/DTD/svg10.dtd">
<svg version="1.0" xmlns="http://www.w3.org/2000/svg"
 width="1280.000000pt" height="640.000000pt" viewBox="0 0 1280.000000 640.000000"
 preserveAspectRatio="xMidYMid meet">
<metadata>
Created by potrace 1.15, written by Peter Selinger 2001-2017
</metadata>
<g transform="translate(0.000000,640.000000) scale(0.100000,-0.100000)"
fill="#000000" stroke="none">
<path d="M5865 5799 c-99 -4 -290 -13 -425 -18 -361 -16 -574 -28 -670 -40
-46 -6 -155 -11 -240 -11 -89 0 -160 -4 -166 -10 -12 -12 -96 -29 -204 -40
-218 -23 -494 -66 -1040 -161 -96 -16 -263 -51 -370 -76 -343 -80 -405 -93
-417 -89 -9 4 -13 45 -15 138 l-3 133 -120 3 c-182 4 -164 27 -167 -211 l-3
-202 -77 -3 -78 -3 0 -77 0 -77 -198 -198 c-108 -108 -202 -197 -209 -197 -19
0 -23 28 -23 160 0 145 3 140 -86 140 -41 0 -59 -5 -74 -20 -20 -20 -20 -33
-20 -695 0 -578 -2 -679 -15 -707 -13 -29 -120 -442 -189 -728 -13 -52 -37
-149 -54 -215 -17 -66 -59 -230 -92 -365 -33 -135 -76 -306 -95 -380 -20 -74
-69 -270 -110 -435 -42 -165 -86 -338 -99 -385 -14 -47 -28 -103 -32 -125 -4
-22 -12 -43 -18 -47 -6 -4 -126 -8 -267 -8 -185 0 -258 -3 -267 -12 -13 -13
-17 -192 -6 -222 6 -14 103 -16 1005 -16 l998 0 3 63 3 62 205 5 205 5 3 563
2 562 3980 0 3980 0 2 -563 3 -562 195 -5 195 -5 5 -60 5 -60 984 -3 c781 -2
986 0 993 10 9 15 11 199 2 222 -5 14 -36 16 -245 16 -183 0 -240 3 -243 13
-2 6 -13 50 -25 97 -12 47 -42 164 -67 260 -41 156 -420 1658 -479 1900 -74
302 -95 388 -100 413 -3 15 -12 27 -20 27 -13 0 -15 88 -15 694 0 623 -2 694
-16 700 -28 11 -140 6 -152 -6 -8 -8 -12 -56 -12 -150 0 -111 -3 -138 -14
-138 -7 0 -102 89 -209 197 l-196 197 -3 75 -3 76 -72 3 -73 3 0 198 c0 157
-3 201 -14 210 -9 8 -59 11 -152 9 l-139 -3 -3 -137 c-1 -76 -4 -138 -7 -138
-2 0 -69 16 -148 35 -166 40 -701 152 -797 166 -151 22 -189 28 -265 42 -44 8
-111 18 -150 22 -38 4 -86 11 -105 16 -44 11 -245 37 -413 53 -104 11 -131 17
-146 33 -17 18 -29 19 -147 16 -72 -2 -195 3 -279 11 -141 14 -231 20 -780 48
-271 14 -1185 18 -1430 7z m75 -159 c0 -5 -25 -10 -56 -10 -54 0 -59 -2 -98
-43 -23 -23 -77 -86 -121 -140 l-80 -97 -3 136 c-1 75 -1 139 2 141 16 16 356
28 356 13z m1318 -7 c21 -5 22 -9 22 -134 0 -71 -4 -129 -9 -129 -4 0 -59 59
-121 130 l-112 130 -59 0 c-37 0 -59 4 -59 11 0 9 43 10 158 5 86 -4 167 -10
180 -13z m-1358 -79 c0 -16 -228 -264 -243 -264 -8 0 29 43 180 209 23 25 42
49 43 54 0 8 20 10 20 1z m1121 -46 c24 -29 75 -88 112 -132 37 -43 65 -81 62
-84 -3 -3 -12 1 -19 9 -39 42 -216 249 -216 254 0 16 21 -1 61 -47z m-2514
-125 c-2 -32 -3 -8 -3 52 0 61 1 87 3 58 2 -29 2 -78 0 -110z m-147 52 c0 -47
-4 -85 -9 -85 -12 0 -137 138 -134 148 2 6 61 16 121 20 21 2 22 -1 22 -83z
m2254 76 l28 -6 -97 -110 c-54 -60 -101 -114 -104 -118 -8 -8 -221 217 -221
233 0 11 345 12 394 1z m1989 -1 c31 0 47 -4 47 -13 0 -7 -31 -44 -70 -82
l-70 -69 0 88 c0 87 0 88 23 82 12 -3 43 -6 70 -6z m-3185 -122 l3 -98 -29 0
c-23 0 -46 17 -113 88 -47 48 -88 93 -93 100 -6 10 17 12 111 10 l118 -3 3
-97z m2251 85 c-7 -10 -49 -55 -93 -100 -54 -56 -88 -83 -103 -83 -22 0 -23 3
-23 100 l0 100 116 0 c109 0 116 -1 103 -17z m-2929 -68 c-41 -41 -76 -72 -79
-69 -6 6 130 144 143 144 6 0 -23 -34 -64 -75z m321 58 c13 -16 12 -17 -3 -4
-10 7 -18 15 -18 17 0 8 8 3 21 -13z m2674 -73 c-49 -49 -91 -90 -93 -90 -2 0
34 40 80 90 46 49 87 90 93 90 5 0 -31 -40 -80 -90z m385 32 c88 -90 92 -105
7 -22 -42 41 -77 76 -77 77 0 12 23 -6 70 -55z m575 -30 c-89 -87 -83 -70 9
25 33 34 62 60 65 57 3 -2 -30 -39 -74 -82z m-4520 3 c40 -41 69 -75 66 -75
-4 0 -40 34 -81 75 -41 41 -70 75 -65 75 5 0 41 -34 80 -75z m-338 -12 c-36
-37 -69 -65 -71 -62 -3 3 23 36 59 74 35 38 68 66 72 62 4 -4 -23 -38 -60 -74z
m1152 7 l63 -70 -133 0 -133 0 69 70 c38 39 70 70 71 70 0 0 29 -31 63 -70z
m951 -20 l0 -80 -65 0 c-40 0 -65 4 -65 11 0 10 118 149 126 149 2 0 4 -36 4
-80z m1074 -20 c54 -60 55 -60 -23 -60 l-71 0 0 83 1 82 31 -35 c17 -19 45
-51 62 -70z m989 42 c31 -32 57 -61 57 -65 0 -4 -56 -7 -125 -7 -69 0 -125 3
-125 7 0 11 114 123 125 123 6 0 36 -26 68 -58z m1038 -2 c34 -34 60 -63 57
-65 -4 -5 -128 112 -128 120 0 12 14 1 71 -55z m-5366 -20 l-49 -50 -178 0
c-103 0 -178 4 -178 9 0 13 7 14 195 50 88 17 180 34 205 39 25 5 47 7 49 5 3
-2 -17 -26 -44 -53z m383 0 l44 -50 -103 0 -103 0 49 50 c27 28 54 50 60 50 5
-1 29 -23 53 -50z m4851 5 c22 -24 41 -47 41 -50 0 -3 -44 -5 -97 -5 l-97 0
49 50 c27 28 52 50 56 50 3 0 25 -20 48 -45z m421 15 c233 -44 270 -52 270
-61 0 -5 -82 -9 -182 -9 l-182 0 -43 42 c-44 44 -52 58 -30 58 6 0 82 -14 167
-30z m-2720 -74 c-67 -65 -63 -52 10 32 25 29 47 47 49 41 2 -6 -25 -39 -59
-73z m-300 -61 c0 -5 -27 17 -60 50 -33 33 -60 66 -60 75 1 16 120 -108 120
-125z m-1099 59 c23 -25 23 -26 2 -13 -13 7 -25 19 -27 26 -8 19 -2 16 25 -13z
m-2463 -163 c-1 -4 -61 -57 -133 -116 l-130 -107 -3 103 c-1 56 0 109 2 116 4
10 37 13 137 13 72 0 129 -4 127 -9z m3529 -18 c15 -19 9 -30 -46 -97 l-41
-48 0 79 c0 44 3 83 7 87 12 12 67 -2 80 -21z m393 -55 l0 -81 -21 19 c-12 10
-35 36 -51 57 l-31 38 23 25 c14 14 35 24 52 24 l28 0 0 -82z m3708 -35 c1
-62 -1 -113 -5 -112 -13 0 -246 203 -251 217 -3 10 24 12 125 10 l128 -3 3
-112z m-7338 -119 l0 -217 -40 -43 -40 -44 0 231 0 230 32 30 c18 16 36 29 40
29 5 0 8 -97 8 -216z m535 186 c-10 -11 -23 -20 -28 -20 -6 0 0 11 13 25 27
29 42 25 15 -5z m345 -150 c0 -99 -3 -180 -6 -180 -3 0 -49 37 -102 83 -53 45
-118 100 -144 121 l-48 38 32 40 c52 66 80 78 181 78 l87 0 0 -180z m370 165
c10 -12 -4 -31 -81 -115 -51 -55 -97 -100 -101 -100 -10 0 -11 214 -1 223 3 4
43 7 88 7 60 0 86 -4 95 -15z m550 -137 l0 -152 -76 74 c-90 90 -104 113 -104
180 l0 50 90 0 90 0 0 -152z m3360 93 l0 -60 -86 -90 c-48 -50 -91 -91 -95
-91 -10 0 -12 260 -3 284 5 13 23 16 95 16 l89 0 0 -59z m557 -66 l3 -120
-100 104 c-85 89 -98 106 -89 123 9 17 20 18 97 16 l87 -3 2 -120z m421 75
c29 -27 52 -55 51 -62 0 -12 -267 -239 -289 -246 -11 -4 -14 341 -3 351 3 4
47 7 97 7 l92 0 52 -50z m140 11 c3 -9 -5 -7 -22 4 -14 10 -26 22 -26 27 0 13
43 -15 48 -31z m352 -98 l0 -137 -70 69 c-38 38 -70 75 -70 82 0 7 16 25 36
40 20 15 51 40 68 55 17 15 32 28 34 28 1 0 2 -62 2 -137z m224 85 c13 -19 16
-60 16 -248 l0 -225 -47 48 -48 47 -3 201 c-2 111 -1 208 2 216 5 12 10 11 35
-2 16 -8 37 -25 45 -37z m-6625 -10 c34 -29 61 -57 61 -63 -1 -5 -32 -43 -70
-84 l-70 -75 0 137 c0 76 4 137 9 137 5 0 37 -24 70 -52z m2012 10 c16 -18 29
-36 29 -40 0 -11 -193 -236 -202 -237 -5 -1 -8 69 -8 154 l0 155 76 0 c72 0
76 -1 105 -32z m557 -126 c2 -121 0 -153 -10 -150 -17 6 -228 236 -228 249 0
5 12 21 27 35 25 23 33 25 117 22 l91 -3 3 -153z m1383 141 c55 -33 50 -46
-67 -168 -60 -62 -112 -113 -116 -114 -10 -1 -11 283 -1 292 14 15 155 7 184
-10z m537 -140 c1 -84 -1 -153 -5 -153 -5 1 -28 26 -53 56 -25 30 -69 83 -97
117 -29 34 -53 67 -53 74 0 6 14 23 31 38 29 23 38 26 103 23 l71 -3 3 -152z
m-1422 30 c-35 -54 -147 -172 -144 -151 3 19 158 201 165 194 3 -2 -7 -21 -21
-43z m287 -87 c27 -30 47 -60 45 -66 -2 -6 -37 28 -78 77 -41 48 -78 90 -82
91 -5 2 -8 11 -8 20 1 17 11 7 123 -122z m-2331 37 c-84 -93 -186 -193 -181
-177 6 16 232 254 243 254 4 0 -24 -35 -62 -77z m4462 -181 c5 -9 -48 41 -118
113 -69 71 -126 132 -126 136 0 10 233 -228 244 -249z m-3366 209 c-1 -5 -59
-73 -128 -151 -69 -78 -131 -149 -137 -158 -7 -8 -16 -13 -19 -9 -4 4 18 35
50 69 31 35 93 107 139 160 73 87 105 117 95 89z m2197 -108 c55 -64 118 -136
139 -160 21 -24 36 -47 31 -51 -4 -4 -23 13 -44 38 -20 24 -82 96 -138 158
-95 106 -115 133 -95 131 4 0 52 -52 107 -116z m-4196 60 c-13 -15 -52 -57
-85 -93 -34 -36 -73 -78 -88 -95 -14 -17 -26 -24 -26 -16 0 12 207 231 219
231 2 0 -6 -12 -20 -27z m3076 -5 c15 -18 55 -64 90 -103 118 -133 115 -127
115 -189 l0 -56 -240 0 -240 0 0 56 c0 56 1 58 77 148 90 107 154 176 164 176
4 0 19 -15 34 -32z m3103 -80 c56 -59 102 -111 102 -115 0 -10 -193 184 -210
210 -24 38 9 10 108 -95z m572 46 c41 -37 112 -95 158 -131 l82 -65 0 -59 0
-59 -162 2 -163 3 -3 188 c-1 103 1 187 5 187 5 0 42 -30 83 -66z m1159 -262
c-32 -5 -309 272 -309 308 0 21 26 -1 165 -140 138 -137 162 -166 144 -168z
m-9429 299 c0 -11 -12 -31 -27 -45 -16 -13 -82 -77 -148 -140 -66 -64 -126
-115 -133 -114 -10 2 293 318 306 318 1 0 2 -9 2 -19z m938 -163 l-3 -183
-162 -3 -163 -2 0 59 0 59 88 69 c48 37 116 94 151 125 34 32 69 58 77 58 12
0 14 -30 12 -182z m3008 -68 c9 -14 -34 25 -96 85 -61 61 -116 119 -122 130
-12 25 196 -181 218 -215z m1339 100 c-65 -66 -121 -117 -124 -114 -3 2 49 58
114 124 65 66 121 117 124 114 3 -2 -49 -58 -114 -124z m-3611 58 c28 -24 85
-72 127 -108 41 -36 93 -80 115 -97 l39 -32 -24 -21 c-22 -19 -36 -20 -313
-20 -202 0 -289 3 -286 11 3 10 279 307 287 308 2 1 26 -18 55 -41z m963 -160
c-1 -40 -3 -10 -3 67 0 77 1 110 3 73 2 -37 2 -100 0 -140z m4893 175 c12 -16
76 -83 141 -150 66 -66 119 -126 119 -132 0 -8 -87 -11 -288 -11 l-289 0 -22
24 -22 23 63 52 c35 28 108 89 163 135 55 47 103 85 106 85 3 1 16 -11 29 -26z
m-4562 -174 c-4 -11 -178 172 -178 186 0 4 41 -34 91 -84 50 -50 89 -96 87
-102z m3331 145 c-19 -19 -60 -62 -91 -95 -32 -33 -58 -55 -58 -49 0 14 171
192 178 185 3 -3 -10 -21 -29 -41z m-3809 -89 l0 -125 -126 0 -127 0 119 124
c65 68 122 125 127 125 4 1 7 -55 7 -124z m4255 20 c52 -52 102 -106 111 -120
l16 -25 -116 0 -116 0 0 120 c0 66 2 120 6 120 3 0 47 -43 99 -95z m-3197 -17
l-3 -103 -87 -3 c-49 -1 -88 0 -88 3 0 4 28 40 63 81 34 42 71 86 81 100 11
13 24 24 28 24 5 0 7 -46 6 -102z m2137 -19 l76 -89 -90 0 -91 0 0 101 c0 119
-7 119 105 -12z m2810 91 c10 -11 16 -20 13 -20 -3 0 -13 9 -23 20 -10 11 -16
20 -13 20 3 0 13 -9 23 -20z m-8495 -120 l0 -90 -62 0 c-121 0 -121 2 -27 96
46 46 85 83 87 84 1 0 2 -40 2 -90z m9273 -82 c-10 -3 -48 -7 -85 -7 l-68 -1
0 92 0 93 85 -85 c70 -70 82 -86 68 -92z m-5491 96 c92 -96 92 -94 3 -94 l-75
0 0 80 c0 44 2 80 4 80 2 0 33 -30 68 -66z m1628 -19 l0 -75 -75 0 c-41 0 -75
3 -75 7 0 10 132 143 142 143 5 0 8 -34 8 -75z m917 -52 c-3 -2 -22 -3 -42 -1
l-36 3 38 45 38 44 3 -43 c2 -24 1 -45 -1 -48z m-3483 38 l38 -39 -39 -4 c-21
-3 -41 -3 -45 -1 -11 6 -10 83 0 83 4 0 25 -17 46 -39z m6133 -13 c-2 -13 -4
-5 -4 17 -1 22 1 32 4 23 2 -10 2 -28 0 -40z m-2500 -15 c-3 -10 -5 -4 -5 12
0 17 2 24 5 18 2 -7 2 -21 0 -30z m2033 -252 c0 -17 5 -33 10 -36 6 -4 10
-208 10 -581 l0 -574 -603 0 -602 0 -116 30 c-63 16 -133 36 -156 44 -22 8
-146 33 -274 56 -129 23 -249 48 -268 56 -18 8 -61 14 -95 14 -33 0 -79 5
-101 11 -22 5 -76 14 -120 19 -201 22 -348 41 -445 55 -58 8 -181 20 -275 25
-93 5 -219 15 -280 21 -69 7 -345 12 -745 12 -768 1 -951 -11 -1650 -105 -47
-7 -89 -11 -93 -10 -5 2 -34 -2 -65 -8 -32 -6 -82 -13 -112 -15 -56 -5 -131
-18 -210 -37 -71 -16 -177 -38 -270 -53 -47 -8 -164 -36 -260 -62 l-175 -47
-522 -3 -523 -4 0 576 c0 395 3 575 11 575 5 0 17 16 25 35 l14 35 3945 0
3945 0 0 -29z m-8075 -601 c0 -549 -1 -585 -17 -588 -17 -3 -18 30 -18 588 0
558 1 591 18 588 16 -3 17 -39 17 -588z m8283 -3 c2 -582 2 -587 -18 -587 -20
0 -20 6 -20 583 0 321 3 587 7 591 26 25 28 -23 31 -587z m-8948 310 l0 -223
-51 -72 c-28 -40 -52 -72 -55 -72 -2 0 -4 133 -4 295 l0 295 55 0 55 0 0 -223z
m9700 -72 c0 -162 -3 -295 -7 -295 -5 1 -34 36 -65 79 l-58 78 0 210 c0 115 3
213 7 216 3 4 33 7 65 7 l58 0 0 -295z m-9472 203 c3 -40 -2 -54 -35 -102 -20
-31 -40 -56 -43 -56 -9 0 -13 166 -5 191 6 16 13 20 43 17 36 -4 37 -5 40 -50z
m9200 -53 c1 -55 1 -97 -2 -95 -59 63 -76 95 -76 139 0 57 5 63 44 58 l31 -3
3 -99z m-9041 -367 c-1 -62 -3 -14 -3 107 0 121 2 172 3 113 2 -59 2 -158 0
-220z m8820 -75 c-1 -49 -3 -9 -3 87 0 96 2 136 3 88 2 -49 2 -127 0 -175z
m-8977 -73 l0 -260 -39 0 c-32 0 -40 4 -45 23 -8 29 -8 245 0 340 6 68 11 81
41 117 19 22 36 40 39 40 2 0 4 -117 4 -260z m9164 210 l36 -50 0 -209 0 -209
-35 -4 c-20 -2 -38 -2 -40 1 -6 5 -7 521 -1 521 2 0 20 -23 40 -50z m-9394
-356 l0 -115 -52 3 -53 3 -3 38 c-3 32 5 49 50 112 29 41 54 75 56 75 1 0 2
-52 2 -116z m9644 26 c43 -59 57 -86 54 -107 -3 -27 -5 -28 -63 -28 l-60 0 -3
108 c-1 59 1 107 6 107 5 0 35 -36 66 -80z m-4369 -141 c121 -5 297 -17 390
-25 94 -8 224 -19 290 -25 202 -15 548 -66 910 -134 69 -13 68 -13 -114 -14
-119 -1 -215 4 -270 13 -47 8 -144 22 -216 31 -71 9 -161 20 -200 26 -45 7
-520 9 -1355 7 -1246 -4 -1290 -5 -1450 -25 -91 -12 -186 -27 -210 -33 -27 -7
-160 -14 -335 -16 l-290 -3 195 34 c248 44 444 75 540 85 397 42 455 47 765
65 154 8 350 19 435 24 173 10 582 6 915 -10z m-5047 -231 c2 -31 -1 -48 -8
-48 -14 0 -190 80 -205 92 -5 5 39 7 100 6 l110 -3 3 -47z m9342 47 c0 -6
-147 -77 -197 -96 -22 -8 -23 -7 -23 41 l0 49 53 4 c94 6 167 7 167 2z m-9523
-181 c152 -61 183 -78 183 -98 0 -22 -212 -258 -223 -247 -5 5 -26 83 -47 172
-21 90 -43 177 -49 192 -12 31 -13 37 -6 37 2 0 66 -25 142 -56z m9629 39
c-21 -74 -67 -252 -82 -315 -10 -43 -20 -78 -23 -78 -12 0 -29 17 -103 105
-41 50 -85 99 -97 109 -36 33 -27 54 37 83 139 62 258 113 265 113 5 0 6 -8 3
-17z m-8406 -21 c0 -4 -66 -32 -147 -62 -82 -29 -187 -71 -235 -91 l-88 -38 0
95 0 94 223 3 c122 1 228 3 235 5 6 1 12 -2 12 -6z m6350 -11 c257 -70 649
-202 761 -256 65 -31 69 -35 37 -31 -20 3 -50 15 -67 27 -28 20 -34 21 -69 10
-33 -11 -43 -11 -68 2 -44 23 -405 133 -614 188 -237 62 -231 60 -225 69 7 11
200 3 245 -9z m-6952 -113 c2 -109 1 -118 -18 -128 -20 -11 -20 -8 -20 120 0
120 2 131 18 128 15 -3 17 -18 20 -120z m1407 107 c-22 -8 -112 -32 -200 -55
-164 -41 -415 -118 -564 -172 -75 -27 -87 -29 -120 -18 -34 11 -40 10 -76 -14
-33 -23 -48 -26 -118 -26 -46 0 -77 4 -72 9 35 31 601 227 735 254 14 3 43 12
65 21 31 11 81 15 215 15 163 0 172 -1 135 -14z m6685 -121 c0 -105 -3 -135
-12 -131 -7 3 -56 24 -108 47 -52 23 -167 69 -255 102 -267 99 -295 110 -295
114 0 2 151 4 335 4 l335 0 0 -136z m190 -14 c0 -143 -1 -150 -20 -150 -19 0
-20 7 -20 143 0 79 3 147 7 150 3 4 12 7 20 7 10 0 13 -32 13 -150z m-5670 72
c0 -4 -49 -56 -108 -115 l-108 -107 -259 2 -260 3 -3 99 c-1 55 0 106 2 113 4
10 77 13 371 13 201 0 365 -3 365 -8z m170 4 c0 -8 -223 -226 -231 -226 -18 0
-8 13 61 82 102 101 170 159 170 144z m201 -49 c15 -25 19 -47 17 -102 l-3
-70 -147 -3 c-93 -2 -148 1 -148 7 0 11 17 29 138 144 91 86 103 88 143 24z
m2353 -65 c58 -57 106 -105 106 -108 0 -2 -65 -4 -145 -4 l-145 0 0 87 c0 80
2 89 27 115 15 16 31 24 39 20 7 -4 60 -53 118 -110z m156 5 c111 -108 142
-151 59 -81 -67 55 -189 176 -189 187 0 17 18 2 130 -106z m768 2 l3 -106 -68
-6 c-37 -4 -153 -7 -258 -7 l-190 0 -113 108 c-63 59 -110 110 -106 115 4 4
170 6 368 5 l361 -3 3 -106z m-4458 -14 l0 -105 -35 0 -35 0 0 99 c0 105 0
106 53 110 15 1 17 -10 17 -104z m4614 62 c9 -33 7 -140 -3 -155 -5 -8 -22
-12 -42 -10 l-34 3 4 95 c2 52 5 98 7 102 9 14 62 -14 68 -35z m-7444 -72 c0
-78 -1 -85 -50 -275 -166 -643 -156 -610 -181 -610 -10 0 -19 3 -19 8 -1 22
235 952 242 952 4 0 8 -34 8 -75z m2680 -10 l0 -85 -317 0 c-199 0 -313 4
-307 9 17 17 544 158 597 160 l27 1 0 -85z m4996 56 c182 -44 458 -122 469
-132 5 -5 -123 -9 -308 -9 l-317 0 0 85 c0 101 -12 97 156 56z m2701 -224 c35
-138 86 -340 114 -447 67 -255 68 -260 38 -260 -23 0 -26 10 -67 178 -64 267
-102 416 -133 527 -15 55 -31 121 -35 147 -6 46 2 108 14 108 4 0 35 -114 69
-253z m-325 -99 l-8 -33 -18 28 c-20 29 -20 30 21 172 11 42 17 -122 5 -167z
m-9776 89 c14 -62 15 -79 4 -92 -24 -29 -30 -14 -30 82 0 53 2 94 5 92 2 -3
12 -39 21 -82z m314 -182 l0 -215 -50 0 c-70 0 -82 15 -104 137 -17 91 -17
103 -3 123 19 28 147 170 153 170 2 0 4 -97 4 -215z m9213 117 l85 -99 -25
-94 c-38 -146 -34 -139 -98 -139 l-55 0 0 215 c0 118 2 215 4 215 2 0 42 -44
89 -98z m-8553 59 c0 -7 -70 -41 -85 -41 -11 0 -4 39 8 43 21 9 77 7 77 -2z
m1408 3 c20 -6 23 -12 20 -48 l-3 -41 -282 -3 -283 -2 3 22 c2 22 -2 23 -69
28 -66 5 -104 20 -104 41 0 10 682 12 718 3z m167 -44 c0 -43 -1 -45 -30 -45
-29 0 -30 2 -33 48 l-3 48 33 -3 c32 -3 33 -4 33 -48z m385 24 c44 -29 50 -48
21 -64 -21 -11 -278 -14 -305 -4 -16 6 -23 73 -9 87 3 4 62 7 130 7 117 0 126
-1 163 -26z m4064 20 c20 -8 21 -67 2 -84 -11 -8 -58 -11 -160 -8 -174 4 -191
11 -134 64 l38 34 119 0 c66 0 126 -3 135 -6z m168 -19 c22 -49 -15 -88 -66
-69 -19 7 -22 64 -4 82 21 21 57 14 70 -13z m818 19 c0 -22 -40 -39 -102 -42
-37 -3 -69 -8 -69 -13 -1 -5 -2 -15 -3 -21 -1 -10 -64 -13 -281 -13 l-280 0
-3 33 c-6 66 -28 62 373 62 201 0 365 -3 365 -6z m838 -20 c13 -9 22 -24 22
-39 0 -30 -19 -32 -43 -5 -9 11 -26 20 -37 20 -26 0 -100 30 -100 41 0 13 132
-2 158 -17z m-8068 -22 c0 -27 -15 -52 -32 -52 -4 0 -8 18 -8 40 0 33 3 40 20
40 15 0 20 -7 20 -28z m2988 -34 c-4 -10 -54 -14 -194 -16 -193 -3 -254 1
-254 18 0 6 89 10 226 10 176 0 225 -3 222 -12z m2622 3 c0 -5 -7 -12 -16 -15
-20 -8 -392 -8 -421 0 -63 17 -2 24 207 24 128 0 230 -4 230 -9z m-5219 -243
c23 -40 64 -109 90 -153 52 -86 58 -105 35 -124 -12 -10 -32 17 -115 158 -56
93 -101 175 -101 180 0 6 11 11 25 11 20 0 32 -14 66 -72z m319 64 c0 -4 -27
-55 -61 -111 -46 -77 -64 -100 -70 -90 -24 35 -119 198 -119 203 0 3 56 6 125
6 69 0 125 -4 125 -8z m160 -2 c0 -5 -22 -46 -48 -92 -26 -46 -70 -120 -96
-165 -47 -81 -68 -99 -80 -67 -5 13 82 181 161 312 13 22 63 32 63 12z m780
-115 l0 -125 -38 24 c-21 13 -85 54 -142 91 -58 37 -126 81 -152 98 -27 17
-48 32 -48 34 0 2 86 3 190 3 l190 0 0 -125z m152 23 c2 -57 -1 -112 -6 -123
-9 -20 -45 -54 -58 -55 -5 0 -8 63 -8 140 l0 140 34 0 35 0 3 -102z m173 41
c-92 -93 -95 -93 -95 -9 l0 70 77 0 77 0 -59 -61z m110 -49 c-116 -116 -206
-192 -130 -110 84 90 219 220 229 220 6 0 -38 -49 -99 -110z m512 -72 c101
-100 183 -188 183 -195 0 -10 -82 -13 -405 -13 -230 0 -405 4 -405 9 0 5 84
93 186 195 172 172 188 186 222 186 33 0 49 -14 219 -182z m155 3 c127 -124
180 -183 173 -190 -7 -7 -69 48 -200 179 -106 106 -183 190 -173 190 9 0 99
-81 200 -179z m404 30 c-116 -116 -153 -148 -165 -141 -9 5 -79 72 -156 149
l-140 141 305 0 305 0 -149 -149z m134 -27 c-170 -171 -206 -202 -217 -190
-13 13 353 366 379 366 7 0 -66 -79 -162 -176z m548 34 c81 -79 149 -146 150
-150 2 -5 -1 -8 -8 -8 -6 0 -74 62 -151 138 -77 75 -145 139 -150 140 -13 5
-11 22 2 22 6 0 77 -64 157 -142z m472 132 c0 -5 -3 -10 -8 -10 -4 0 -55 -47
-112 -105 -58 -58 -110 -105 -117 -105 -7 0 -65 52 -130 115 l-118 114 243 1
c155 0 242 -4 242 -10z m105 -48 c-212 -203 -255 -242 -267 -242 -18 0 293
299 312 299 8 1 -12 -25 -45 -57z m474 -126 c101 -101 179 -186 174 -189 -5
-3 -94 79 -199 184 -104 104 -182 189 -174 189 8 0 98 -83 199 -184z m541 175
c0 -5 -66 -72 -146 -150 l-146 -142 -142 138 c-77 75 -145 143 -149 150 -6 10
50 13 288 13 163 0 295 -4 295 -9z m-22 -178 c-103 -103 -190 -184 -194 -180
-10 10 346 367 366 367 8 0 -69 -84 -172 -187z m575 7 c97 -98 177 -186 177
-195 0 -13 -47 -15 -400 -15 -253 0 -400 4 -400 10 0 5 83 93 184 195 242 244
204 243 439 5z m117 43 c150 -153 125 -136 -45 29 -60 59 -105 108 -100 108 6
0 71 -62 145 -137z m150 65 l0 -72 -32 29 c-87 79 -107 99 -102 107 3 4 34 8
70 8 l64 0 0 -72z m150 -68 l0 -140 -25 16 c-40 26 -45 45 -45 158 l0 106 35
0 35 0 0 -140z m320 39 c-218 -143 -229 -150 -233 -141 -2 4 -2 60 1 125 l4
117 191 0 192 0 -155 -101z m600 84 c5 -10 46 -78 90 -152 78 -129 94 -178 65
-188 -6 -2 -39 48 -74 109 -36 62 -82 142 -103 177 -21 34 -38 65 -38 67 0 13
52 1 60 -13z m358 9 c-7 -17 -100 -178 -113 -196 -7 -10 -18 -15 -24 -12 -7 5
-103 171 -119 209 -2 4 56 7 128 7 72 0 130 -4 128 -8z m121 -69 c-86 -158
-156 -268 -170 -268 -31 0 -17 40 62 177 98 172 95 168 126 168 l25 0 -43 -77z
m1156 53 c13 -20 14 -30 3 -70 -8 -29 -19 -48 -31 -52 -28 -9 -30 -1 -17 63
20 97 20 97 45 59z m339 -85 c31 -123 30 -117 10 -100 -31 25 -44 68 -44 140
0 40 2 70 4 68 3 -2 16 -51 30 -108z m-9968 33 c17 -79 17 -76 -8 -72 -18 2
-26 13 -35 52 -9 34 -9 55 -2 68 17 31 32 15 45 -48z m944 -65 c36 -63 80
-139 99 -167 50 -79 45 -83 -106 -80 l-128 3 -3 159 c-2 153 -2 160 20 183 12
13 29 22 38 21 8 -2 44 -55 80 -119z m7750 76 l70 -45 0 -140 0 -140 -174 0
c-96 0 -177 4 -180 8 -3 5 36 78 86 163 108 185 117 199 123 199 3 0 36 -20
75 -45z m-9071 -126 c-11 -17 -23 -28 -25 -26 -3 2 6 46 18 98 l23 94 3 -68
c2 -56 -1 -73 -19 -98z m2193 59 c85 -57 202 -134 261 -173 59 -38 107 -73
107 -77 0 -5 -164 -8 -365 -8 -303 0 -367 2 -371 14 -3 8 26 65 64 127 38 63
77 130 87 149 19 38 44 70 55 70 4 0 77 -46 162 -102z m6072 32 c79 -130 155
-273 150 -282 -8 -12 -734 -10 -734 2 0 5 27 27 61 47 33 21 149 97 257 170
109 72 204 130 212 129 8 0 32 -30 54 -66z m-3470 -107 c96 -91 173 -170 170
-175 -7 -11 -681 -11 -688 1 -7 10 314 341 331 341 6 0 90 -75 187 -167z
m1008 0 c93 -92 168 -171 168 -175 0 -14 -678 -10 -686 4 -8 13 318 338 339
338 6 0 87 -75 179 -167z m-4752 -51 c0 -107 -8 -141 -29 -128 -15 10 -15 200
1 225 21 35 28 12 28 -97z m8278 -50 c3 -76 1 -83 -15 -80 -15 3 -18 16 -21
86 -3 76 -1 83 15 80 15 -3 18 -16 21 -86z m-8894 -4 c8 -13 18 -43 22 -68 l7
-45 -24 16 c-30 20 -49 55 -49 92 0 34 24 36 44 5z m174 -60 c3 -72 1 -78 -17
-78 -15 0 -24 15 -40 70 -12 39 -19 75 -15 81 3 6 20 9 37 7 l32 -3 3 -77z
m9197 71 c4 -5 2 -22 -3 -37 -5 -15 -15 -46 -21 -69 -9 -32 -17 -43 -31 -43
-18 0 -20 7 -20 80 l0 80 34 0 c19 0 38 -5 41 -11z m142 0 c22 -22 -20 -109
-53 -109 -9 0 -11 11 -7 38 12 76 32 99 60 71z m-9964 -79 c30 -11 37 -19 37
-42 0 -27 -1 -28 -55 -28 -30 0 -55 3 -55 6 0 17 24 84 29 82 3 -2 23 -10 44
-18z m10430 3 c3 -10 8 -30 11 -45 l6 -28 -60 0 c-51 0 -60 3 -60 18 0 26 12
38 50 55 46 20 48 20 53 0z m-10395 -336 l3 -117 -106 0 c-97 0 -106 2 -101
18 3 9 15 58 27 107 12 50 26 95 30 101 5 6 38 10 76 10 l68 -1 3 -118z m301
33 l22 -75 -33 -27 -33 -27 -3 96 c-4 151 9 161 47 33z m192 74 c14 -17 4 -44
-19 -52 -13 -4 -35 45 -26 59 8 14 30 11 45 -7z m539 -99 c0 -104 -11 -161
-30 -150 -11 7 -14 247 -4 258 3 3 12 3 20 0 11 -4 14 -29 14 -108z m9408 106
c13 -8 62 -177 62 -213 0 -17 -9 -18 -102 -16 l-103 3 -3 109 c-2 81 1 112 10
118 17 10 119 10 136 -1z m-1128 -131 c0 -123 -1 -130 -20 -130 -19 0 -20 7
-20 123 0 125 2 137 27 137 10 0 13 -28 13 -130z m540 111 c0 -27 -19 -36 -37
-18 -18 18 -9 37 18 37 12 0 19 -7 19 -19z m210 -86 c0 -58 -3 -105 -7 -105
-3 0 -21 11 -38 25 l-33 24 20 81 c17 64 24 80 39 80 17 0 19 -9 19 -105z
m-9313 -77 c-2 -24 -4 -5 -4 42 0 47 2 66 4 43 2 -24 2 -62 0 -85z m8820 -5
c-2 -21 -4 -6 -4 32 0 39 2 55 4 38 2 -18 2 -50 0 -70z m-9031 -40 c-3 -3 -13
-2 -23 1 -17 7 -17 8 2 22 18 13 20 13 23 -1 2 -9 1 -19 -2 -22z m9258 12 c4
-11 -1 -15 -19 -15 -24 0 -32 10 -18 23 11 12 31 8 37 -8z m-8766 -171 c3 -25
-13 -48 -27 -40 -12 8 -15 49 -4 60 11 11 28 1 31 -20z m8282 -10 c0 -28 -3
-35 -17 -32 -31 6 -29 68 2 68 11 0 15 -10 15 -36z m-9312 17 c-3 -9 -164
-131 -173 -131 -7 0 -6 105 1 124 5 13 23 16 91 16 47 0 83 -4 81 -9z m369 -3
c6 -7 17 -40 25 -73 9 -33 32 -123 53 -200 l36 -140 -68 -62 c-63 -58 -71 -63
-115 -63 l-48 0 0 269 c0 206 3 271 13 274 25 11 95 7 104 -5z m219 -1 c3 -8
4 -52 2 -98 l-3 -84 -18 75 c-9 41 -20 85 -23 98 -5 18 -2 22 15 22 12 0 24
-6 27 -13z m9174 10 c0 -14 -40 -180 -44 -185 -3 -3 -6 35 -6 85 0 49 3 93 7
96 6 7 43 10 43 4z m278 -13 c22 -15 22 -18 22 -275 l0 -259 -102 0 c-86 1
-107 4 -125 19 -29 24 -28 32 1 139 13 48 27 105 31 127 3 22 17 78 30 125 12
47 26 97 29 113 6 24 11 27 49 27 23 0 53 -7 65 -16z m432 -55 l0 -71 -32 24
c-18 13 -57 41 -86 62 -28 21 -50 42 -46 47 3 5 41 9 85 9 l79 0 0 -71z m-903
-82 c-2 -23 -3 -1 -3 48 0 50 1 68 3 42 2 -26 2 -67 0 -90z m-8820 -34 c-2
-16 -4 -5 -4 22 0 28 2 40 4 28 2 -13 2 -35 0 -50z m-747 -188 l0 -175 -90 0
-91 0 3 118 3 117 85 57 c47 32 86 58 88 58 1 0 2 -79 2 -175z m10328 158 c15
-10 53 -37 85 -61 l57 -43 0 -115 0 -114 -90 0 -90 0 0 175 c0 96 2 175 5 175
3 0 18 -8 33 -17z m-9298 -39 c0 -38 -15 -74 -30 -74 -14 0 -12 94 2 108 17
17 28 5 28 -34z m8278 -52 c4 -24 -7 -29 -26 -10 -18 18 -15 40 6 36 9 -2 18
-13 20 -26z m-9832 -289 c-10 -10 -19 5 -10 18 6 11 8 11 12 0 2 -7 1 -15 -2
-18z"/>
</g>
</svg>
