<?xml version="1.0" standalone="no"?>
<!DOCTYPE svg PUBLIC "-//W3C//DTD SVG 20010904//EN"
 "http://www.w3.org/TR/2001/REC-SVG-20010904/DTD/svg10.dtd">
<svg version="1.0" xmlns="http://www.w3.org/2000/svg"
 width="1280.000000pt" height="830.000000pt" viewBox="0 0 1280.000000 830.000000"
 preserveAspectRatio="xMidYMid meet">
<metadata>
Created by potrace 1.15, written by Peter Selinger 2001-2017
</metadata>
<g transform="translate(0.000000,830.000000) scale(0.100000,-0.100000)"
fill="#000000" stroke="none">
<path d="M7415 8294 c-557 -33 -807 -65 -1400 -179 -716 -138 -857 -163 -1140
-200 -360 -47 -633 -114 -962 -236 -392 -146 -680 -318 -898 -533 -117 -117
-162 -167 -190 -216 -12 -19 -50 -71 -86 -115 -90 -113 -144 -199 -184 -296
l-34 -83 -83 -21 c-234 -60 -478 -217 -840 -542 -168 -151 -287 -277 -400
-426 -50 -67 -130 -167 -177 -222 -117 -140 -580 -598 -736 -730 -242 -204
-268 -240 -282 -380 -4 -50 2 -87 35 -215 38 -148 44 -162 132 -314 50 -88
103 -176 116 -197 13 -21 24 -43 24 -47 0 -17 67 -93 121 -138 30 -25 110 -79
179 -120 132 -79 152 -94 545 -408 348 -278 463 -374 590 -495 137 -130 247
-218 303 -243 61 -28 166 -45 342 -58 207 -15 339 -37 433 -71 91 -34 140 -36
183 -10 36 22 78 73 93 115 7 17 17 26 25 23 47 -18 522 -340 952 -645 1025
-726 1024 -725 1369 -864 177 -71 428 -166 760 -289 l241 -88 179 -20 c277
-31 389 -34 686 -21 l274 11 405 75 c223 41 596 111 830 154 234 44 703 131
1044 195 562 104 633 120 780 169 176 59 326 121 478 197 151 76 317 229 637
588 129 144 195 229 315 404 263 386 458 766 579 1129 130 389 177 769 123
999 -75 316 -369 891 -549 1073 -40 40 -112 92 -202 148 -677 416 -928 548
-1184 625 -82 24 -103 26 -421 34 -436 10 -584 26 -1025 104 -111 20 -308 45
-475 60 -157 14 -312 29 -345 33 l-60 7 120 67 c66 36 245 131 397 211 152 80
312 168 355 196 43 28 118 65 167 82 l88 32 -5 366 c-4 375 -11 446 -51 559
-63 176 -202 308 -371 352 -27 7 -243 81 -480 165 -655 232 -712 245 -1035
250 -124 1 -252 1 -285 -1z"/>
</g>
</svg>
