<?xml version="1.0" standalone="no"?>
<!DOCTYPE svg PUBLIC "-//W3C//DTD SVG 20010904//EN"
 "http://www.w3.org/TR/2001/REC-SVG-20010904/DTD/svg10.dtd">
<svg version="1.0" xmlns="http://www.w3.org/2000/svg"
 width="1280.000000pt" height="830.000000pt" viewBox="0 0 1280.000000 830.000000"
 preserveAspectRatio="xMidYMid meet">
<metadata>
Created by potrace 1.15, written by Peter Selinger 2001-2017
</metadata>
<g transform="translate(0.000000,830.000000) scale(0.100000,-0.100000)"
fill="#000000" stroke="none">
<path d="M7400 8294 c-514 -26 -726 -53 -1380 -174 -687 -128 -746 -138 -945
-165 -753 -103 -1504 -346 -1825 -591 -73 -55 -124 -106 -249 -247 -74 -83
-117 -123 -146 -136 -52 -23 -70 -47 -177 -231 -103 -176 -122 -213 -139 -268
l-12 -42 -181 -90 c-609 -300 -1140 -722 -1486 -1180 -255 -338 -427 -540
-572 -671 -227 -206 -271 -264 -285 -378 -18 -152 93 -484 229 -688 110 -163
190 -238 358 -333 99 -56 230 -152 410 -300 58 -48 143 -115 190 -150 198
-149 465 -372 666 -555 60 -56 131 -114 156 -129 135 -79 300 -116 517 -116
123 0 175 -5 278 -26 70 -14 137 -23 149 -20 12 3 53 37 91 75 l69 70 239
-158 c132 -87 544 -371 915 -632 719 -506 768 -536 1066 -664 395 -170 1092
-441 1184 -461 245 -52 889 -41 1480 26 1062 119 2091 357 2953 680 221 84
229 88 386 223 119 103 518 536 633 687 35 47 119 155 187 240 259 328 377
533 482 836 80 233 126 465 148 753 15 189 14 315 -5 412 -59 311 -345 890
-546 1104 -52 56 -97 88 -282 198 -656 389 -943 535 -1177 598 -79 22 -103 23
-429 24 -407 2 -537 15 -990 105 -88 17 -259 39 -435 55 -159 14 -317 29 -350
33 l-60 7 70 40 c39 23 113 63 165 89 241 124 544 289 633 345 54 33 119 70
145 81 89 39 122 122 122 311 0 304 -60 584 -161 755 -47 79 -142 173 -214
210 -33 18 -127 53 -210 79 -82 26 -298 101 -480 167 -522 189 -565 199 -895
203 -124 1 -254 1 -290 -1z"/>
</g>
</svg>
