<?xml version="1.0" standalone="no"?>
<!DOCTYPE svg PUBLIC "-//W3C//DTD SVG 20010904//EN"
 "http://www.w3.org/TR/2001/REC-SVG-20010904/DTD/svg10.dtd">
<svg version="1.0" xmlns="http://www.w3.org/2000/svg"
 width="675.000000pt" height="1280.000000pt" viewBox="0 0 675.000000 1280.000000"
 preserveAspectRatio="xMidYMid meet">
<metadata>
Created by potrace 1.15, written by Peter Selinger 2001-2017
</metadata>
<g transform="translate(0.000000,1280.000000) scale(0.100000,-0.100000)"
fill="#000000" stroke="none">
<path d="M2131 12732 c-17 -38 -31 -78 -31 -90 0 -28 -8 -28 -32 3 -11 14 -23
25 -27 25 -13 0 -50 -135 -52 -190 -1 -32 -3 -30 -22 28 -11 34 -23 62 -27 62
-3 0 -14 -22 -25 -50 -20 -52 -24 -56 -40 -41 -6 5 -42 20 -81 34 l-72 26 -16
-42 c-9 -24 -16 -60 -16 -82 l0 -39 -27 26 c-46 43 -89 59 -146 56 -51 -3 -52
-4 -55 -36 -3 -27 -7 -32 -21 -27 -15 4 -22 -3 -35 -35 -9 -22 -16 -57 -16
-78 l-1 -37 -15 27 c-12 23 -58 61 -111 92 -9 5 -18 -11 -29 -54 -16 -56 -20
-61 -56 -72 -55 -16 -108 -77 -108 -125 0 -35 -1 -36 -17 -21 -15 16 -18 14
-39 -33 -21 -44 -26 -49 -43 -39 -29 15 -97 12 -131 -5 -16 -8 -36 -27 -44
-42 -11 -22 -28 -31 -92 -48 -76 -21 -79 -23 -77 -50 1 -16 -4 -36 -12 -45
-13 -14 -13 -19 0 -36 21 -28 18 -34 -17 -34 -18 0 -43 -3 -56 -6 l-23 -7 27
-17 27 -18 -59 -12 c-33 -6 -63 -13 -69 -14 -5 -2 25 -16 67 -31 l77 -29 -52
-17 c-29 -9 -70 -24 -92 -34 -37 -16 -38 -18 -20 -31 10 -8 17 -15 14 -17 -2
-2 -29 -18 -59 -35 -30 -17 -71 -44 -90 -60 l-35 -30 40 -16 c22 -10 75 -27
118 -39 42 -12 77 -24 77 -27 0 -7 -183 -84 -275 -115 -16 -5 -10 -11 34 -29
l53 -23 -93 -36 c-52 -21 -107 -47 -123 -60 l-29 -24 49 -12 c83 -22 79 -19
57 -44 -37 -41 -36 -45 22 -63 l56 -18 -67 -22 c-37 -13 -71 -27 -76 -32 -6
-6 28 -12 88 -17 l98 -7 -53 -23 -53 -22 86 -27 c47 -15 86 -28 86 -31 0 -2
-28 -19 -61 -38 l-62 -35 54 -11 c30 -5 65 -12 79 -13 19 -3 6 -10 -48 -28
-39 -13 -72 -27 -72 -31 0 -4 25 -11 55 -14 30 -4 55 -11 55 -14 0 -4 -49 -36
-110 -71 -60 -34 -110 -65 -110 -67 0 -3 11 -3 25 -1 14 3 25 1 25 -3 0 -5 -6
-9 -13 -9 -16 0 -127 -75 -145 -98 -6 -9 -12 -19 -12 -24 0 -17 189 -1 340 28
32 6 27 1 -45 -52 -90 -67 -89 -69 40 -62 l71 3 -56 -33 c-57 -33 -144 -118
-135 -132 2 -4 -5 -16 -16 -26 -12 -10 -28 -32 -36 -48 -15 -29 -15 -31 13
-52 15 -13 26 -24 24 -26 -3 -2 -27 -15 -55 -29 -47 -24 -95 -77 -95 -104 0
-6 24 -18 53 -25 l53 -12 -33 -64 -34 -64 65 0 c36 0 66 -2 66 -5 0 -2 -20
-38 -45 -80 l-44 -75 71 0 72 0 -25 -27 c-14 -16 -33 -41 -43 -57 l-18 -29 57
8 57 7 -40 -36 c-43 -39 -91 -120 -78 -133 4 -4 66 -7 137 -7 l130 2 -15 -22
c-36 -49 -96 -153 -96 -165 0 -10 12 -12 48 -7 26 4 55 10 66 13 16 4 15 0 -7
-39 -14 -23 -28 -53 -31 -65 -7 -21 -6 -21 36 -9 24 7 63 16 88 20 l44 7 -24
-26 c-21 -22 -22 -28 -10 -35 8 -5 21 -10 28 -10 11 0 17 -24 14 -62 -1 -11 5
-18 17 -18 23 0 110 16 132 25 14 5 13 -2 -7 -41 -13 -26 -24 -52 -24 -58 0
-6 -13 -20 -30 -31 -26 -17 -27 -21 -12 -29 9 -5 43 -12 76 -15 l60 -6 -37
-25 c-20 -14 -37 -28 -37 -32 0 -4 18 -18 40 -30 22 -13 38 -27 36 -33 -2 -5
-11 -27 -20 -47 l-16 -38 39 0 c61 0 91 -15 91 -45 0 -28 0 -28 34 -15 25 9
37 -2 16 -15 -18 -11 -10 -51 15 -75 13 -12 46 -28 72 -35 41 -10 49 -16 53
-41 5 -26 9 -29 50 -32 36 -2 54 3 84 23 31 21 41 24 47 13 5 -7 9 -16 9 -21
0 -8 92 54 127 86 18 16 25 18 37 8 12 -10 23 -7 55 14 l41 25 38 -19 c21 -11
63 -40 93 -64 l55 -45 29 25 c17 14 43 36 58 50 16 14 30 23 31 21 2 -2 9 -14
16 -28 7 -14 24 -40 38 -58 l26 -34 21 36 c30 49 28 48 61 31 74 -38 152 -12
314 106 l124 91 52 -26 c28 -14 58 -26 66 -26 26 0 25 -8 -8 -77 -30 -63 -31
-69 -14 -75 17 -6 17 -10 4 -45 -7 -21 -13 -64 -14 -97 0 -58 0 -58 28 -54 15
3 34 8 43 12 13 6 20 -1 29 -31 17 -53 18 -53 44 -42 18 9 30 6 61 -15 48 -33
118 -35 175 -6 l39 20 5 -53 c13 -144 39 -367 56 -497 18 -131 31 -237 60
-475 38 -313 52 -562 41 -732 -6 -82 -13 -294 -16 -473 -10 -508 -23 -843 -40
-985 -11 -95 -15 -240 -15 -540 0 -225 -5 -464 -11 -530 -10 -125 -50 -322
-125 -612 -50 -197 -57 -232 -124 -668 -82 -529 -106 -651 -145 -739 -13 -28
-35 -98 -50 -156 -15 -58 -37 -139 -51 -180 -13 -41 -28 -124 -34 -183 -16
-173 -14 -169 -167 -327 -75 -77 -133 -143 -130 -146 7 -7 121 -8 233 -3 69 4
87 9 122 32 22 16 49 38 59 49 39 44 59 43 167 -12 90 -46 106 -58 146 -113
32 -43 60 -69 95 -87 28 -14 63 -34 79 -45 17 -11 72 -26 135 -37 58 -10 123
-22 144 -27 31 -8 39 -6 44 7 7 17 -23 75 -67 132 -34 43 -47 90 -28 101 23
15 106 10 262 -15 111 -18 209 -26 369 -30 119 -3 217 -4 217 -2 0 2 -36 18
-80 36 -102 41 -429 219 -500 273 -106 79 -251 212 -281 257 -16 24 -36 66
-44 94 -22 75 -19 290 11 659 25 310 27 467 9 667 -2 25 -10 149 -16 276 -12
231 -7 374 21 699 17 189 20 217 30 345 26 311 31 386 39 550 5 99 5 247 0
340 -5 91 -6 399 -3 685 7 558 7 550 -52 1005 -8 63 -24 185 -34 270 -11 85
-22 166 -25 180 -6 33 -35 391 -35 437 0 30 8 43 43 76 70 65 149 114 311 192
184 89 253 142 312 241 23 39 44 80 48 92 9 28 19 27 83 -3 90 -41 119 -46
147 -24 24 19 46 83 47 141 0 33 0 33 27 -19 14 -29 29 -53 33 -53 3 0 9 14
12 30 6 29 9 30 57 30 49 0 50 -1 50 -30 0 -36 8 -37 83 -6 57 24 57 24 71 4
14 -19 15 -19 73 17 32 21 60 42 61 47 5 13 32 -11 32 -29 0 -10 8 -12 33 -8
29 6 35 3 45 -20 12 -25 16 -27 52 -21 39 6 39 6 51 -34 7 -22 16 -40 20 -40
19 0 85 70 124 130 23 36 54 78 69 93 l26 28 23 -27 23 -26 36 40 c22 25 43
63 54 99 21 69 29 80 46 66 7 -5 41 -22 76 -36 l63 -27 21 47 c17 38 20 60 16
121 -4 52 -2 69 5 57 9 -17 15 -6 53 114 4 11 7 11 22 -1 30 -27 80 -48 112
-48 l30 0 0 193 0 193 30 29 30 29 0 -42 c0 -50 26 -119 49 -132 18 -9 31 7
73 90 l17 35 1 -30 c0 -16 13 -57 28 -89 l28 -60 21 30 c30 42 46 103 42 162
-4 56 2 62 39 36 13 -9 26 -13 30 -9 4 3 7 40 7 81 0 40 2 74 5 73 3 0 25 -20
50 -44 58 -57 70 -58 66 -2 l-3 43 59 -4 c66 -5 88 7 88 45 0 43 -62 145 -128
211 -35 35 -62 65 -60 67 2 2 59 31 128 65 69 34 133 69 143 78 17 15 16 17
-18 37 l-35 22 21 19 c12 10 28 32 35 47 l15 28 -83 39 c-46 22 -74 40 -62 40
50 0 210 66 263 109 l24 19 -31 16 c-17 9 -81 25 -142 35 -61 10 -113 20 -115
23 -2 2 57 41 133 85 75 45 157 98 181 119 39 34 101 116 101 134 0 4 -31 12
-70 19 l-69 13 27 48 c23 41 25 51 14 74 -16 35 -69 66 -114 66 -21 0 -38 4
-38 9 0 5 16 44 36 87 55 120 84 212 91 289 5 66 4 72 -22 103 -22 26 -34 32
-66 32 -21 0 -39 1 -39 3 0 1 7 24 15 51 27 90 28 90 -75 84 l-89 -5 39 45
c22 25 40 49 40 53 0 15 -161 10 -220 -6 -71 -19 -70 -19 -70 8 0 22 -2 22
-100 19 -60 -2 -100 0 -100 6 0 5 10 41 23 80 l23 70 -43 6 c-23 3 -48 4 -55
2 -7 -3 -28 -7 -46 -10 l-33 -6 35 41 c43 51 76 119 76 159 0 27 -3 30 -34 30
l-34 0 -6 88 c-10 127 -7 122 -77 122 -33 0 -75 -6 -93 -14 l-34 -14 25 60
c13 33 23 62 21 64 -5 4 -69 -13 -198 -54 -52 -16 -109 -32 -126 -35 l-30 -6
4 60 c2 32 1 59 -2 59 -4 0 -48 -13 -98 -30 -50 -16 -98 -30 -108 -30 -11 0
-23 20 -38 68 -12 37 -22 73 -22 80 0 6 -6 12 -13 12 -27 0 -143 -42 -194 -71
-29 -16 -56 -29 -59 -29 -6 0 0 66 12 137 6 31 5 32 -22 24 -16 -5 -46 -16
-68 -25 -35 -15 -38 -15 -32 0 13 33 25 101 29 156 l4 57 -27 -19 c-15 -11
-33 -26 -40 -35 -20 -25 -25 -18 -27 41 -1 31 -4 58 -6 61 -18 17 -105 -47
-139 -102 l-18 -30 0 83 c0 54 -4 82 -11 82 -7 0 -43 -32 -81 -70 -40 -41 -70
-65 -73 -58 -2 7 -12 49 -21 93 -10 44 -19 82 -20 84 -6 7 -55 -56 -76 -99
l-23 -45 -6 60 c-4 33 -10 69 -14 80 -22 62 -28 75 -36 75 -4 0 -23 -21 -40
-47 l-33 -47 -9 27 c-5 15 -12 27 -16 27 -20 0 -85 -72 -114 -127 l-33 -62
-23 84 -23 84 -29 -14 c-34 -18 -75 -69 -90 -114 l-11 -32 -26 55 c-14 31 -28
56 -31 56 -10 -1 -73 -91 -85 -121 -11 -30 -21 -36 -31 -19 -4 6 -15 8 -24 5
-14 -4 -29 14 -69 79 -29 47 -56 87 -61 90 -5 3 -20 -4 -35 -15 -21 -16 -26
-17 -26 -5 0 32 -18 23 -56 -26 -21 -28 -42 -56 -46 -62 -5 -7 -22 4 -48 29
-24 23 -40 33 -40 24 0 -8 -12 -31 -26 -52 l-26 -38 -37 50 -38 51 -27 -60
-27 -60 -78 98 c-100 124 -183 204 -245 236 l-50 26 -19 -30 -19 -30 -42 47
c-22 26 -49 57 -60 70 l-18 24 -39 -53 c-21 -29 -39 -60 -39 -68 0 -9 -10 -4
-27 15 -30 32 -117 105 -125 105 -3 0 -19 -31 -37 -68z m1552 -4892 c12 -1
-42 -50 -55 -50 -3 0 -1 14 5 30 7 19 17 28 25 25 8 -3 19 -5 25 -5z m-223
-100 c17 -10 14 -15 -17 -24 -25 -8 -26 -6 -17 18 7 18 13 19 34 6z m-128 -61
c-12 -11 -142 -53 -147 -48 -3 3 -8 21 -12 40 -6 31 -5 33 11 20 15 -13 21
-11 48 16 l31 31 37 -27 c21 -14 35 -29 32 -32z"/>
</g>
</svg>
