<?xml version="1.0" standalone="no"?>
<!DOCTYPE svg PUBLIC "-//W3C//DTD SVG 20010904//EN"
 "http://www.w3.org/TR/2001/REC-SVG-20010904/DTD/svg10.dtd">
<svg version="1.0" xmlns="http://www.w3.org/2000/svg"
 width="744.000000pt" height="1280.000000pt" viewBox="0 0 744.000000 1280.000000"
 preserveAspectRatio="xMidYMid meet">
<metadata>
Created by potrace 1.15, written by Peter Selinger 2001-2017
</metadata>
<g transform="translate(0.000000,1280.000000) scale(0.100000,-0.100000)"
fill="#000000" stroke="none">
<path d="M3360 12794 c-14 -2 -65 -9 -114 -15 -271 -34 -578 -154 -847 -330
-178 -117 -297 -214 -467 -382 -148 -146 -242 -259 -352 -426 -118 -178 -226
-278 -387 -359 -101 -51 -96 -57 57 -68 55 -4 99 -10 98 -13 -33 -73 -140
-269 -168 -306 -78 -106 -216 -213 -375 -293 -110 -55 -196 -84 -402 -138
-191 -49 -216 -59 -210 -77 5 -18 124 -75 192 -92 66 -17 293 -45 368 -45 26
0 47 -2 47 -4 0 -3 -16 -35 -35 -73 -55 -108 -76 -180 -74 -247 2 -54 0 -61
-27 -83 -101 -85 -283 -185 -482 -267 -62 -25 -130 -55 -150 -65 l-37 -19 50
-24 c48 -22 60 -23 265 -22 269 0 479 27 704 90 48 14 91 23 93 20 9 -9 -112
-209 -246 -409 -177 -264 -183 -274 -185 -310 -1 -32 -1 -32 51 -35 70 -4 171
31 368 128 184 90 422 231 590 349 64 44 118 81 120 81 5 0 -110 -261 -160
-359 -26 -52 -75 -144 -109 -205 -93 -167 -93 -170 -3 -154 82 15 164 46 280
105 209 107 367 223 520 382 48 50 89 85 91 78 2 -6 12 -43 22 -82 9 -38 28
-97 41 -129 27 -70 29 -124 8 -256 -37 -234 -88 -398 -186 -595 -114 -231
-228 -373 -675 -841 -470 -491 -576 -614 -667 -777 -224 -400 -227 -863 -10
-1349 98 -220 167 -455 197 -673 17 -122 38 -411 61 -849 8 -159 17 -291 18
-293 5 -4 17 706 17 963 0 199 6 294 20 294 3 0 31 -37 62 -83 82 -121 128
-279 162 -552 24 -198 44 -559 66 -1200 15 -428 29 -565 28 -270 -1 423 13
1402 22 1484 6 47 14 89 19 94 14 14 400 -557 574 -851 440 -740 576 -1538
395 -2317 -35 -155 -114 -292 -206 -360 -64 -48 -164 -78 -436 -130 -338 -66
-409 -83 -531 -127 -60 -22 -118 -40 -127 -41 -9 -1 -15 -4 -13 -8 3 -3 -13
-14 -35 -24 -43 -19 -55 -42 -17 -31 251 70 626 104 958 87 304 -16 632 -14
765 4 175 24 183 25 307 62 65 19 120 33 123 30 11 -11 -22 -46 -71 -76 -28
-17 -103 -51 -166 -76 -196 -78 -239 -97 -239 -106 0 -4 19 -13 42 -19 53 -15
193 0 427 46 276 54 315 66 557 168 225 95 289 96 511 10 116 -44 196 -66 288
-78 l50 -7 -35 28 c-123 97 -134 156 -33 170 34 4 241 -25 303 -43 l24 -7 -23
29 c-22 28 -23 29 -3 32 11 2 42 -8 69 -21 88 -45 279 -95 528 -137 132 -23
215 -46 215 -61 0 -25 -142 -68 -360 -110 -160 -31 -164 -43 -10 -35 293 16
562 78 606 141 42 59 2 109 -150 186 -142 72 -171 96 -63 53 106 -43 248 -80
365 -95 123 -16 401 -14 577 5 83 9 188 16 235 16 73 0 91 -4 125 -25 22 -13
55 -25 73 -25 18 0 46 -7 62 -15 17 -9 30 -13 30 -10 0 2 -17 13 -37 24 -21
11 -69 44 -107 74 -91 74 -124 81 -319 72 -148 -7 -155 -6 -214 17 -74 30
-111 59 -152 118 -54 80 -67 137 -74 330 -18 501 -126 1036 -307 1525 -124
334 -211 507 -468 940 -247 415 -322 612 -322 850 1 203 48 416 174 772 193
550 247 760 262 1026 l7 118 43 -80 c77 -145 274 -416 311 -428 48 -16 97 178
97 387 0 74 -6 155 -12 180 -6 24 -8 47 -5 50 7 6 92 -86 149 -163 51 -68 79
-140 105 -261 10 -48 20 -91 23 -94 9 -9 47 30 66 68 57 112 79 262 57 385 -8
44 -13 81 -12 83 2 2 16 -3 32 -11 44 -23 203 -74 266 -86 72 -13 117 -5 117
20 0 10 -44 69 -98 131 -54 62 -117 137 -140 167 -41 52 -54 79 -31 65 60 -37
338 -68 373 -42 17 14 16 17 -30 59 -27 24 -89 82 -137 129 l-88 85 98 16 c54
9 116 25 139 37 41 21 71 48 62 57 -2 3 -51 16 -109 30 -133 33 -195 57 -267
107 -60 42 -142 117 -142 130 0 4 19 8 43 9 82 1 85 12 13 43 -140 60 -174 95
-271 281 -217 416 -510 698 -817 785 -94 27 -263 37 -365 21 -162 -26 -320
-92 -445 -187 -95 -72 -226 -208 -302 -314 -82 -114 -193 -338 -236 -475 -17
-55 -41 -122 -53 -148 -26 -60 -122 -152 -206 -198 -34 -19 -61 -37 -61 -41 0
-5 15 -8 33 -8 31 -1 31 -1 12 -16 -44 -35 -171 -88 -282 -118 -64 -17 -118
-36 -120 -43 -2 -6 9 -19 26 -27 58 -31 157 -47 318 -53 l162 -6 -24 -46 c-65
-130 -159 -219 -333 -316 -56 -31 -100 -61 -96 -66 9 -16 146 -10 267 11 129
22 271 66 362 110 l60 30 -40 -38 c-22 -20 -58 -52 -79 -69 l-39 -32 27 -7
c15 -3 66 1 113 9 48 9 88 15 90 13 5 -5 -53 -168 -101 -280 -25 -60 -46 -116
-46 -124 0 -23 101 -8 190 28 164 68 310 171 396 280 49 62 49 63 54 34 4 -19
8 -25 13 -16 16 25 22 10 25 -66 4 -120 36 -268 107 -497 120 -383 129 -426
130 -610 0 -201 -19 -357 -55 -450 -72 -184 -100 -331 -100 -530 0 -281 23
-362 278 -995 50 -124 103 -265 117 -315 104 -358 145 -780 115 -1190 -10
-130 -46 -414 -54 -422 -2 -2 -7 29 -10 69 -13 130 -57 369 -96 524 -195 768
-563 1421 -1100 1953 -291 288 -587 529 -1116 907 -1014 727 -1418 1217 -1391
1689 14 237 120 431 339 620 94 81 99 83 130 74 18 -5 38 -15 44 -23 5 -8 21
-84 35 -168 23 -148 24 -168 23 -648 l-2 -495 18 280 c33 518 45 889 31 1018
-6 64 -14 128 -17 144 -5 26 3 34 90 100 85 65 96 71 110 58 8 -9 18 -31 21
-50 3 -19 8 -52 11 -72 3 -21 6 -189 6 -373 0 -184 2 -328 4 -320 3 13 20 211
40 468 3 46 7 150 8 230 2 124 5 154 23 192 11 25 29 52 39 61 10 8 177 116
369 239 193 123 387 251 432 285 395 294 571 562 631 960 14 96 21 118 56 174
l40 64 20 -44 c56 -126 252 -515 296 -590 79 -131 92 -146 125 -134 41 15 61
48 101 165 72 213 111 416 123 652 l7 133 17 -71 c9 -39 21 -116 27 -170 13
-126 17 -144 34 -144 25 0 106 82 155 157 l49 74 40 -58 c98 -144 149 -282
181 -484 29 -181 28 -179 51 -179 56 0 161 171 216 355 26 83 28 103 28 270 0
149 -3 196 -21 270 -12 50 -20 91 -18 93 2 2 38 -15 82 -36 320 -161 728 -281
826 -243 66 26 44 71 -135 276 -183 210 -281 333 -360 454 -37 58 -68 108 -68
112 0 3 30 -5 68 -18 87 -32 348 -100 454 -118 105 -19 189 -19 213 -1 18 13
18 15 2 40 -10 14 -75 74 -146 133 l-129 108 56 3 c56 3 166 -18 232 -46 19
-8 72 -37 117 -64 90 -55 118 -58 107 -11 -33 137 -196 276 -538 459 -144 77
-144 66 -5 98 160 37 313 117 351 183 19 31 19 32 -1 42 -11 6 -96 18 -189 26
-242 21 -397 58 -533 126 -72 36 -221 137 -283 193 -55 48 -55 48 37 61 26 3
45 10 42 15 -3 5 -29 16 -58 25 -81 27 -221 102 -271 146 -25 22 -69 79 -97
127 -172 286 -324 474 -539 667 -375 336 -739 532 -1112 601 -80 15 -366 27
-418 18z m-25 -3481 c18 -345 -49 -727 -171 -980 -97 -202 -251 -372 -435
-479 -57 -33 -190 -111 -295 -172 -105 -62 -194 -112 -197 -112 -4 0 13 30 37
68 164 254 283 614 342 1035 l6 48 21 -33 c88 -145 221 -278 305 -303 22 -6
22 -5 22 78 0 309 64 585 196 849 35 70 51 91 77 102 17 8 41 21 52 30 11 8
23 16 26 16 4 0 10 -66 14 -147z m233 -288 c2 -44 -1 -114 -7 -154 -6 -41 -9
-76 -6 -79 8 -8 92 76 118 117 51 83 20 -59 -59 -270 -31 -82 -54 -152 -51
-156 12 -11 97 28 160 74 34 25 122 105 195 178 72 73 132 131 132 129 0 -1
-12 -40 -26 -86 -66 -212 -198 -406 -351 -515 -57 -41 -312 -203 -319 -203 -1
0 12 33 31 73 43 93 80 223 104 367 26 151 45 457 37 595 l-6 110 22 -50 c13
-31 23 -80 26 -130z m1899 -3077 c7 -166 12 -169 97 -77 65 70 65 68 14 -85
-39 -116 -227 -588 -239 -601 -6 -5 -9 -3 -9 7 0 34 -109 347 -159 458 -29 63
-55 122 -58 130 -4 8 12 -10 35 -40 38 -50 105 -110 122 -110 4 0 10 62 13
138 6 154 31 257 94 391 l36 76 24 -75 c20 -59 26 -103 30 -212z"/>
<path d="M7038 313 c29 -2 74 -2 100 0 26 2 2 3 -53 3 -55 0 -76 -1 -47 -3z"/>
<path d="M6943 303 c9 -2 23 -2 30 0 6 3 -1 5 -18 5 -16 0 -22 -2 -12 -5z"/>
<path d="M7218 303 c12 -2 32 -2 45 0 12 2 2 4 -23 4 -25 0 -35 -2 -22 -4z"/>
<path d="M7325 300 c-27 -6 -24 -7 20 -11 59 -6 63 -5 33 7 -13 6 -36 7 -53 4z"/>
<path d="M6898 293 c7 -3 16 -2 19 1 4 3 -2 6 -13 5 -11 0 -14 -3 -6 -6z"/>
<path d="M6843 283 c9 -2 23 -2 30 0 6 3 -1 5 -18 5 -16 0 -22 -2 -12 -5z"/>
<path d="M6788 273 c6 -2 18 -2 25 0 6 3 1 5 -13 5 -14 0 -19 -2 -12 -5z"/>
<path d="M4160 260 c47 -4 116 -17 154 -29 38 -11 72 -19 74 -16 2 2 -13 8
-34 14 -22 6 -61 17 -89 26 -27 8 -81 14 -120 13 l-70 -1 85 -7z"/>
<path d="M6733 263 c9 -2 23 -2 30 0 6 3 -1 5 -18 5 -16 0 -22 -2 -12 -5z"/>
<path d="M1240 250 c-8 -5 -10 -10 -5 -10 6 0 17 5 25 10 8 5 11 10 5 10 -5 0
-17 -5 -25 -10z"/>
<path d="M6658 253 c12 -2 30 -2 40 0 9 3 -1 5 -23 4 -22 0 -30 -2 -17 -4z"/>
<path d="M4000 240 c-18 -12 -2 -12 25 0 13 6 15 9 5 9 -8 0 -22 -4 -30 -9z"/>
<path d="M6328 243 c6 -2 18 -2 25 0 6 3 1 5 -13 5 -14 0 -19 -2 -12 -5z"/>
<path d="M6478 243 c29 -2 74 -2 100 0 26 2 2 3 -53 3 -55 0 -76 -1 -47 -3z"/>
<path d="M6220 190 c-41 -28 -90 -55 -108 -61 -18 -6 -31 -13 -29 -16 9 -8 71
23 151 76 43 28 75 51 70 51 -5 0 -43 -23 -84 -50z"/>
<path d="M1155 220 c-13 -6 -15 -9 -5 -9 8 0 22 4 30 9 18 12 2 12 -25 0z"/>
<path d="M3950 220 c-8 -5 -10 -10 -5 -10 6 0 17 5 25 10 8 5 11 10 5 10 -5 0
-17 -5 -25 -10z"/>
<path d="M1463 213 c15 -2 39 -2 55 0 15 2 2 4 -28 4 -30 0 -43 -2 -27 -4z"/>
<path d="M1648 213 c17 -2 47 -2 65 0 17 2 3 4 -33 4 -36 0 -50 -2 -32 -4z"/>
<path d="M1368 203 c12 -2 30 -2 40 0 9 3 -1 5 -23 4 -22 0 -30 -2 -17 -4z"/>
<path d="M1783 203 c15 -2 37 -2 50 0 12 2 0 4 -28 4 -27 0 -38 -2 -22 -4z"/>
<path d="M3900 200 c-8 -5 -10 -10 -5 -10 6 0 17 5 25 10 8 5 11 10 5 10 -5 0
-17 -5 -25 -10z"/>
<path d="M4408 203 c7 -3 16 -2 19 1 4 3 -2 6 -13 5 -11 0 -14 -3 -6 -6z"/>
<path d="M1298 193 c6 -2 18 -2 25 0 6 3 1 5 -13 5 -14 0 -19 -2 -12 -5z"/>
<path d="M1873 193 c9 -2 23 -2 30 0 6 3 -1 5 -18 5 -16 0 -22 -2 -12 -5z"/>
<path d="M1059 170 c-13 -10 -20 -19 -16 -20 4 0 17 9 29 20 28 26 17 26 -13
0z"/>
<path d="M1195 180 c-13 -6 -5 -7 25 -3 25 3 47 7 49 9 9 8 -55 2 -74 -6z"/>
<path d="M1938 183 c12 -2 30 -2 40 0 9 3 -1 5 -23 4 -22 0 -30 -2 -17 -4z"/>
<path d="M3830 170 c-19 -11 -30 -19 -25 -19 6 0 26 8 45 19 19 11 31 19 25
19 -5 0 -26 -8 -45 -19z"/>
<path d="M4485 180 c11 -5 27 -9 35 -9 9 0 8 4 -5 9 -11 5 -27 9 -35 9 -9 0
-8 -4 5 -9z"/>
<path d="M2013 173 c9 -2 23 -2 30 0 6 3 -1 5 -18 5 -16 0 -22 -2 -12 -5z"/>
<path d="M1138 163 c6 -2 18 -2 25 0 6 3 1 5 -13 5 -14 0 -19 -2 -12 -5z"/>
<path d="M2083 163 c15 -2 37 -2 50 0 12 2 0 4 -28 4 -27 0 -38 -2 -22 -4z"/>
<path d="M4555 160 c11 -5 27 -9 35 -9 9 0 8 4 -5 9 -11 5 -27 9 -35 9 -9 0
-8 -4 5 -9z"/>
<path d="M1088 153 c6 -2 18 -2 25 0 6 3 1 5 -13 5 -14 0 -19 -2 -12 -5z"/>
<path d="M2208 153 c18 -2 45 -2 60 0 15 2 0 4 -33 4 -33 0 -45 -2 -27 -4z"/>
<path d="M2668 153 c17 -2 47 -2 65 0 17 2 3 4 -33 4 -36 0 -50 -2 -32 -4z"/>
<path d="M2402 143 c37 -2 100 -2 140 0 40 1 10 3 -67 3 -77 0 -110 -1 -73 -3z"/>
<path d="M3760 140 c-8 -5 -10 -10 -5 -10 6 0 17 5 25 10 8 5 11 10 5 10 -5 0
-17 -5 -25 -10z"/>
<path d="M4618 143 c7 -3 16 -2 19 1 4 3 -2 6 -13 5 -11 0 -14 -3 -6 -6z"/>
<path d="M5153 143 c9 -2 25 -2 35 0 9 3 1 5 -18 5 -19 0 -27 -2 -17 -5z"/>
<path d="M4658 133 c7 -3 16 -2 19 1 4 3 -2 6 -13 5 -11 0 -14 -3 -6 -6z"/>
<path d="M5108 133 c7 -3 16 -2 19 1 4 3 -2 6 -13 5 -11 0 -14 -3 -6 -6z"/>
<path d="M4703 123 c9 -2 23 -2 30 0 6 3 -1 5 -18 5 -16 0 -22 -2 -12 -5z"/>
<path d="M5020 120 c-20 -6 -21 -8 -5 -8 11 0 34 4 50 8 27 7 27 8 5 8 -14 0
-36 -4 -50 -8z"/>
<path d="M4763 113 c9 -2 25 -2 35 0 9 3 1 5 -18 5 -19 0 -27 -2 -17 -5z"/>
<path d="M3625 100 c-25 -11 1 -11 35 0 20 6 21 8 5 8 -11 0 -29 -3 -40 -8z"/>
<path d="M4868 103 c23 -2 59 -2 80 0 20 2 1 4 -43 4 -44 0 -61 -2 -37 -4z"/>
<path d="M5195 95 c-25 -12 -26 -14 -5 -9 28 7 60 23 45 23 -5 0 -23 -6 -40
-14z"/>
<path d="M6048 103 c7 -3 16 -2 19 1 4 3 -2 6 -13 5 -11 0 -14 -3 -6 -6z"/>
<path d="M6008 93 c7 -3 16 -2 19 1 4 3 -2 6 -13 5 -11 0 -14 -3 -6 -6z"/>
<path d="M2665 75 c-25 -12 -26 -14 -5 -9 28 7 60 23 45 23 -5 0 -23 -6 -40
-14z"/>
<path d="M3530 80 c-20 -6 -21 -8 -5 -8 11 0 34 4 50 8 27 7 27 8 5 8 -14 0
-36 -4 -50 -8z"/>
<path d="M5953 83 c9 -2 23 -2 30 0 6 3 -1 5 -18 5 -16 0 -22 -2 -12 -5z"/>
<path d="M5130 70 c-8 -5 -10 -10 -5 -10 6 0 17 5 25 10 8 5 11 10 5 10 -5 0
-17 -5 -25 -10z"/>
<path d="M5893 73 c9 -2 23 -2 30 0 6 3 -1 5 -18 5 -16 0 -22 -2 -12 -5z"/>
<path d="M3468 63 c6 -2 18 -2 25 0 6 3 1 5 -13 5 -14 0 -19 -2 -12 -5z"/>
<path d="M5458 63 c12 -2 32 -2 45 0 12 2 2 4 -23 4 -25 0 -35 -2 -22 -4z"/>
<path d="M5783 63 c15 -2 39 -2 55 0 15 2 2 4 -28 4 -30 0 -43 -2 -27 -4z"/>
<path d="M5050 34 c-25 -14 -37 -23 -27 -20 10 3 33 7 50 7 21 1 25 3 13 6
-18 5 -18 6 5 19 13 7 20 13 14 13 -5 0 -30 -11 -55 -25z"/>
<path d="M5318 53 c12 -2 32 -2 45 0 12 2 2 4 -23 4 -25 0 -35 -2 -22 -4z"/>
<path d="M5653 53 c15 -2 39 -2 55 0 15 2 2 4 -28 4 -30 0 -43 -2 -27 -4z"/>
<path d="M2584 35 c-18 -14 -18 -14 11 -14 17 0 24 3 17 6 -6 2 -10 9 -6 14 8
13 1 11 -22 -6z"/>
<path d="M3383 43 c9 -2 23 -2 30 0 6 3 -1 5 -18 5 -16 0 -22 -2 -12 -5z"/>
<path d="M5198 43 c18 -2 45 -2 60 0 15 2 0 4 -33 4 -33 0 -45 -2 -27 -4z"/>
<path d="M3328 33 c6 -2 18 -2 25 0 6 3 1 5 -13 5 -14 0 -19 -2 -12 -5z"/>
<path d="M5123 33 c9 -2 23 -2 30 0 6 3 -1 5 -18 5 -16 0 -22 -2 -12 -5z"/>
<path d="M2723 23 c9 -2 25 -2 35 0 9 3 1 5 -18 5 -19 0 -27 -2 -17 -5z"/>
<path d="M3248 23 c12 -2 32 -2 45 0 12 2 2 4 -23 4 -25 0 -35 -2 -22 -4z"/>
<path d="M2843 13 c20 -2 54 -2 75 0 20 2 3 4 -38 4 -41 0 -58 -2 -37 -4z"/>
<path d="M3143 13 c15 -2 37 -2 50 0 12 2 0 4 -28 4 -27 0 -38 -2 -22 -4z"/>
</g>
</svg>
