<?xml version="1.0" standalone="no"?>
<!DOCTYPE svg PUBLIC "-//W3C//DTD SVG 20010904//EN"
 "http://www.w3.org/TR/2001/REC-SVG-20010904/DTD/svg10.dtd">
<svg version="1.0" xmlns="http://www.w3.org/2000/svg"
 width="756.000000pt" height="1280.000000pt" viewBox="0 0 756.000000 1280.000000"
 preserveAspectRatio="xMidYMid meet">
<metadata>
Created by potrace 1.15, written by Peter Selinger 2001-2017
</metadata>
<g transform="translate(0.000000,1280.000000) scale(0.100000,-0.100000)"
fill="#000000" stroke="none">
<path d="M4770 12714 c0 -48 5 -116 11 -151 l11 -63 -61 -98 c-50 -79 -61
-104 -61 -137 1 -34 -5 -86 -36 -315 -4 -28 -22 -51 -85 -112 -45 -43 -76 -78
-70 -78 6 0 1 -16 -10 -35 -20 -33 -20 -35 -2 -35 10 0 34 4 53 9 19 5 48 12
63 15 l29 7 -22 -31 c-12 -17 -43 -45 -69 -61 -35 -22 -41 -29 -26 -30 11 -1
25 -3 30 -4 6 -2 19 -3 31 -4 17 -1 20 -6 16 -30 -3 -26 0 -30 31 -40 20 -7
41 -19 47 -27 7 -7 24 -14 39 -14 39 0 105 -20 95 -29 -5 -4 -31 -16 -57 -25
l-48 -18 -63 27 c-53 24 -68 36 -99 85 -21 31 -55 73 -77 93 -22 19 -40 40
-40 45 0 6 -33 23 -72 38 -52 19 -89 42 -126 77 -29 28 -55 48 -57 45 -13 -13
10 -122 33 -156 13 -20 31 -54 38 -75 13 -37 13 -39 -6 -44 -17 -5 -11 -12 38
-49 33 -24 73 -47 91 -50 23 -5 31 -12 31 -29 0 -12 -3 -25 -7 -29 -16 -16
-10 -36 13 -41 82 -17 76 -11 68 -60 l-6 -45 31 0 c17 0 55 -10 85 -22 47 -19
54 -26 50 -44 -4 -16 6 -31 43 -64 26 -23 41 -40 33 -37 -8 3 -69 26 -135 52
-95 38 -131 58 -173 96 -30 27 -58 49 -63 49 -4 0 -39 37 -76 82 -39 46 -69
76 -71 67 -4 -24 57 -191 79 -215 l21 -22 -30 -16 c-17 -9 -33 -20 -37 -26 -7
-12 47 -40 79 -40 35 0 39 -14 11 -40 -24 -22 -35 -47 -16 -36 4 3 36 -24 70
-59 48 -50 61 -69 56 -85 -8 -25 -11 -25 69 5 88 33 103 31 41 -4 -62 -35 -81
-56 -64 -67 24 -14 106 -5 172 20 96 36 130 20 58 -27 -22 -14 -50 -45 -62
-67 -22 -39 -25 -41 -59 -35 -38 7 -88 37 -132 78 -15 14 -55 36 -88 48 -43
15 -85 43 -143 93 -98 85 -153 128 -187 146 -22 12 -20 7 13 -33 20 -25 37
-50 37 -55 0 -16 -27 -21 -62 -11 -48 13 -49 12 -15 -22 17 -17 49 -37 71 -44
l41 -13 -35 -2 c-19 -1 -46 -5 -60 -9 l-25 -8 27 -13 c35 -16 27 -30 -18 -30
-42 0 -44 -17 -4 -34 l30 -12 -66 -78 -66 -78 109 4 110 3 -41 -87 -41 -87
-97 -1 c-75 0 -109 5 -149 20 -51 20 -206 60 -234 60 -16 0 -75 -48 -75 -60 0
-5 21 -18 46 -29 46 -21 48 -26 17 -63 -13 -15 -11 -17 29 -22 23 -3 59 -7 78
-8 l35 -3 -25 -14 c-13 -8 -38 -18 -55 -22 -71 -18 -171 -61 -188 -81 -36 -42
-21 -51 83 -49 52 1 92 -1 88 -4 -3 -3 -30 -21 -59 -39 l-52 -34 29 -5 c16 -4
51 -9 78 -13 l49 -7 -30 -12 c-39 -16 -68 -56 -50 -67 6 -4 22 -8 35 -8 31 0
27 -14 -10 -33 l-33 -17 42 6 c35 5 41 3 40 -12 -2 -22 38 -44 82 -44 l33 0
-23 -19 c-19 -15 -21 -22 -12 -32 15 -15 89 -28 171 -28 56 -1 63 -3 58 -18
-17 -60 -18 -73 -2 -79 9 -4 45 1 81 10 81 20 119 20 136 0 23 -28 67 -44 124
-44 54 0 160 -28 218 -57 26 -13 28 -12 37 11 10 27 44 40 141 51 l56 6 7 -50
c4 -28 11 -51 15 -51 5 0 7 9 4 20 -10 36 5 70 31 70 13 0 26 -7 30 -15 8 -21
24 -19 31 6 7 20 8 20 26 3 11 -10 23 -31 27 -48 15 -55 38 -43 110 58 19 27
38 43 46 40 8 -3 15 3 18 14 4 14 23 24 74 36 38 9 73 17 78 17 11 0 56 -109
56 -137 0 -11 -12 -29 -27 -41 -33 -24 -93 -56 -93 -49 0 3 -28 -8 -62 -24
-58 -26 -75 -29 -223 -34 -88 -4 -206 -12 -261 -18 l-102 -10 -43 29 c-34 24
-60 32 -115 37 -63 6 -72 5 -89 -14 -22 -24 -55 -25 -162 -5 -43 8 -79 15 -80
15 -1 0 7 -21 17 -46 11 -25 20 -47 20 -49 0 -2 -28 -5 -62 -7 l-63 -3 63 -31
c57 -29 60 -32 37 -38 -41 -10 -29 -34 30 -61 30 -13 55 -28 55 -34 0 -5 12
-11 28 -13 17 -2 26 -8 24 -17 -3 -12 0 -12 12 -2 13 11 17 9 26 -14 16 -42
13 -45 -38 -45 -47 0 -51 3 -110 64 -41 42 -62 72 -62 88 0 22 -14 30 -112 73
-102 44 -120 57 -184 122 -41 41 -81 73 -91 73 -23 0 -49 -26 -55 -55 -6 -30
-40 -22 -125 30 -41 25 -79 43 -84 39 -20 -12 -79 8 -123 41 l-45 34 20 -45
c22 -52 25 -84 7 -84 -53 0 -265 182 -335 287 -19 29 -39 53 -44 53 -13 0 -11
-32 6 -81 9 -24 13 -55 10 -69 -3 -14 2 -38 10 -54 15 -29 15 -30 -17 -64 -19
-20 -26 -32 -16 -29 9 3 32 9 52 12 31 6 36 4 50 -24 l16 -30 -37 -6 c-21 -4
-55 -14 -77 -23 -32 -13 -35 -17 -20 -23 11 -4 46 -8 80 -8 36 -1 68 -7 80
-16 15 -12 16 -14 3 -15 -8 0 -40 -7 -70 -16 l-54 -17 54 -18 c50 -17 58 -18
111 -4 79 20 84 19 25 -8 -59 -28 -129 -53 -168 -62 -24 -5 -27 -8 -17 -20 10
-12 9 -15 -9 -15 -43 0 -19 -18 47 -34 37 -10 92 -24 122 -33 l55 -16 -39 -14
c-50 -17 -76 -40 -69 -60 5 -13 22 -15 98 -11 l91 4 30 -51 c29 -49 31 -50 77
-50 25 0 52 -6 59 -13 11 -11 -3 -13 -80 -10 -92 3 -93 3 -87 -19 4 -19 1 -23
-17 -24 -13 0 -32 -4 -43 -9 -19 -8 -19 -8 5 -18 23 -9 24 -11 6 -18 -19 -7
-19 -8 0 -15 10 -4 36 -8 57 -8 48 -1 47 -13 -3 -36 -63 -29 -57 -37 7 -11 55
22 133 41 133 33 0 -2 -26 -21 -57 -43 -55 -36 -57 -38 -33 -45 14 -4 49 -7
78 -8 28 -1 52 -4 52 -8 0 -5 -36 -28 -80 -53 -109 -61 -107 -68 18 -71 45 -1
82 -5 82 -8 0 -3 -11 -26 -25 -50 -14 -23 -25 -44 -25 -46 0 -1 27 -5 60 -7
33 -2 62 -7 66 -10 3 -3 -1 -19 -10 -36 -15 -28 -14 -30 10 -41 14 -6 53 -11
87 -11 39 -1 69 -6 81 -15 18 -13 22 -13 42 6 22 21 24 21 68 4 53 -20 60 -45
25 -89 -25 -32 -16 -33 69 -7 34 11 63 16 63 13 4 -22 -5 -48 -21 -59 -9 -7
-23 -26 -30 -43 l-13 -31 -19 31 c-11 19 -39 41 -71 55 -44 21 -67 25 -154 25
l-102 0 -63 41 c-35 22 -71 38 -80 36 -10 -3 -53 18 -100 49 -115 75 -156 94
-209 94 -52 0 -119 22 -232 75 -44 20 -81 34 -85 31 -3 -3 -16 1 -30 10 -52
34 -39 -29 18 -86 22 -22 40 -44 40 -50 0 -13 -48 -13 -125 0 -32 5 -63 6 -67
2 -5 -5 23 -30 62 -55 38 -26 70 -50 70 -53 0 -14 -108 11 -164 37 -34 16 -70
29 -82 29 -11 0 -39 16 -61 35 -23 19 -50 34 -60 33 -62 -5 -76 3 -162 85 -80
78 -201 159 -201 135 0 -6 13 -33 30 -59 33 -54 31 -82 -10 -102 -37 -19 -34
-31 15 -55 25 -12 44 -26 41 -31 -3 -5 -35 -17 -71 -27 -36 -10 -65 -22 -65
-26 0 -4 16 -10 35 -14 20 -3 43 -14 52 -22 8 -9 34 -19 57 -22 40 -6 40 -6
-43 -25 l-85 -20 92 -29 c51 -17 92 -32 92 -35 0 -16 -174 -96 -217 -100 l-48
-6 95 -24 c125 -32 135 -44 66 -85 -52 -31 -61 -48 -36 -71 11 -10 17 -21 15
-25 -7 -11 48 -20 116 -20 36 0 59 -4 59 -11 0 -8 21 -9 70 -4 39 4 70 5 70 2
0 -3 -48 -36 -107 -73 -160 -99 -147 -87 -126 -113 l18 -21 75 20 c41 11 80
20 87 20 7 0 -3 -25 -22 -57 -19 -32 -35 -61 -35 -64 0 -3 25 7 56 23 31 15
67 28 79 28 12 0 47 9 77 19 l56 19 4 -70 c3 -55 8 -73 23 -84 11 -8 26 -12
34 -9 44 17 172 17 241 0 69 -17 74 -17 132 1 76 23 94 14 90 -45 -3 -48 15
-61 53 -41 19 10 64 11 207 4 l183 -9 -75 -20 c-96 -25 -343 -26 -462 -1 -100
21 -155 22 -139 2 9 -11 -3 -18 -69 -35 -45 -12 -111 -34 -148 -48 -67 -25
-68 -25 -276 -18 l-208 8 44 -41 c40 -37 52 -42 148 -60 96 -17 102 -20 65
-26 -162 -26 -183 -36 -144 -68 20 -17 18 -18 -82 -19 -108 0 -158 -9 -126
-22 10 -4 55 -12 101 -19 69 -10 104 -9 200 3 64 9 116 12 116 8 0 -14 -144
-78 -235 -104 -62 -18 -128 -29 -215 -34 l-125 -7 55 -17 c36 -10 101 -17 187
-19 73 -2 133 -4 133 -6 0 -2 -17 -11 -38 -20 -64 -29 -115 -64 -103 -71 6 -4
-17 -20 -50 -37 -60 -28 -61 -29 -33 -35 79 -18 394 -6 469 18 11 3 -2 -14
-30 -39 l-50 -46 -155 4 c-86 1 -185 8 -220 13 -90 15 -91 15 -40 -20 l45 -30
-82 7 c-92 7 -185 -2 -162 -17 8 -5 30 -9 49 -10 l35 -1 -38 -10 c-21 -6 -36
-15 -34 -22 5 -14 148 -64 212 -73 42 -6 46 -8 25 -14 -14 -4 -43 -8 -65 -8
-26 -1 -35 -4 -26 -10 8 -6 -5 -11 -41 -15 -66 -8 -90 -21 -59 -31 28 -9 438
-9 474 0 14 4 36 3 49 -1 21 -6 19 -9 -22 -26 -25 -11 -88 -24 -145 -29 -300
-29 -337 -36 -287 -53 9 -3 48 -16 86 -29 l68 -23 -106 -45 c-58 -24 -106 -48
-106 -52 0 -4 63 -7 139 -5 77 2 137 0 135 -4 -2 -3 -28 -14 -57 -24 -75 -24
-187 -75 -187 -85 0 -13 178 -15 280 -2 52 6 97 10 99 7 8 -8 -32 -44 -41 -38
-6 4 -8 -2 -4 -13 9 -29 -10 -40 -76 -45 -103 -8 -89 -32 26 -43 90 -8 113
-20 71 -35 -141 -52 -179 -80 -106 -80 22 0 52 5 67 10 41 16 40 5 -3 -21 -49
-29 -123 -88 -123 -98 0 -4 38 -5 85 -3 l85 5 -18 -44 c-16 -37 -24 -45 -53
-49 -27 -4 2 -13 131 -42 91 -21 181 -39 200 -41 25 -3 19 -4 -20 -6 -70 -2
-52 -13 63 -36 72 -15 94 -24 122 -51 19 -18 35 -35 35 -38 0 -3 -68 -7 -151
-8 l-150 -3 65 -91 66 -92 120 -42 c67 -24 119 -44 118 -45 -2 -2 -30 -15 -63
-29 l-60 -27 144 5 c119 4 147 2 167 -11 15 -9 33 -13 49 -9 14 4 25 5 25 3 0
-2 -27 -23 -61 -47 -45 -31 -57 -45 -47 -51 20 -13 114 -11 208 6 47 8 96 15
109 15 l24 0 -21 -23 c-26 -28 -28 -47 -5 -47 9 0 27 -10 41 -22 34 -33 91
-27 208 21 54 22 100 38 102 36 3 -2 -1 -24 -7 -49 -6 -25 -11 -57 -10 -73 0
-27 1 -27 11 -5 9 19 19 22 64 22 29 0 59 3 68 6 12 5 16 -1 16 -22 l1 -29 14
33 c14 31 17 33 82 36 10 1 19 -9 23 -24 3 -14 12 -25 20 -25 8 0 16 -10 18
-22 2 -13 5 -23 8 -23 2 0 19 17 38 38 19 20 48 45 65 55 l30 18 7 -36 c3 -19
10 -35 14 -35 4 0 52 29 106 64 54 36 102 62 106 60 4 -3 5 -17 2 -30 -6 -24
-5 -25 27 -19 23 4 41 1 54 -8 17 -13 10 -16 -78 -22 -93 -7 -97 -8 -114 -37
-14 -22 -43 -41 -123 -75 l-105 -46 -174 7 c-157 7 -173 6 -162 -8 12 -14 0
-16 -105 -18 -83 -2 -119 -7 -121 -15 -8 -22 47 -36 100 -26 26 5 47 8 47 6 0
-2 -18 -28 -40 -56 l-40 -52 31 -26 30 -27 -153 -6 c-84 -3 -177 -9 -206 -12
-80 -9 -96 -1 -136 65 -20 32 -43 64 -51 71 -8 7 -15 26 -15 41 0 42 -33 52
-129 39 -42 -5 -108 -17 -147 -26 l-71 -17 -66 33 c-72 35 -66 35 -248 10 -89
-13 -99 -12 -135 5 -49 23 -151 34 -139 15 6 -9 4 -12 -6 -8 -51 19 -588 173
-663 190 -109 24 -162 20 -356 -24 -145 -34 -252 -45 -425 -47 -120 -2 -125
-13 -14 -31 35 -5 110 -18 167 -27 l103 -18 -153 -42 c-84 -23 -221 -60 -305
-82 -83 -23 -164 -46 -180 -52 l-28 -12 30 -8 c17 -5 127 -12 246 -16 l216 -6
-71 -47 c-39 -26 -99 -64 -134 -84 -34 -21 -62 -42 -62 -47 0 -5 30 -9 68 -9
48 0 76 -5 98 -19 26 -16 35 -17 60 -6 16 6 54 14 84 18 54 6 55 5 30 -11
-120 -82 -119 -124 4 -138 l55 -7 -20 -26 c-19 -24 -20 -26 -2 -39 13 -10 35
-12 78 -8 95 10 149 31 247 96 50 33 93 59 95 57 7 -7 -50 -99 -68 -110 -11
-7 -19 -15 -19 -18 0 -3 27 -14 61 -24 47 -15 64 -25 76 -48 8 -16 11 -33 6
-37 -9 -9 -110 -34 -206 -51 l-69 -13 24 -18 c19 -14 34 -16 86 -11 34 3 62 2
62 -2 0 -4 -7 -43 -16 -86 -9 -43 -14 -83 -12 -89 1 -5 30 8 62 30 33 21 63
37 67 34 4 -2 17 -29 30 -59 12 -30 26 -55 30 -55 3 0 61 56 128 125 121 126
121 126 121 91 0 -19 -9 -72 -20 -118 -11 -46 -20 -93 -20 -105 0 -22 1 -22
81 12 107 45 118 53 186 134 32 38 62 70 66 70 5 1 7 -24 5 -54 -1 -30 0 -55
3 -55 4 0 25 7 48 15 l41 14 0 -44 c0 -53 -1 -53 106 -22 67 20 91 22 149 16
39 -4 99 -8 134 -8 l63 -1 -61 -69 c-34 -38 -61 -71 -61 -74 0 -11 105 24 175
58 39 19 98 57 133 84 34 28 62 47 62 43 0 -4 -16 -54 -35 -111 -29 -86 -31
-101 -16 -90 10 8 52 38 92 67 43 31 81 67 92 87 9 19 26 39 38 45 44 24 109
9 109 -25 0 -7 -28 -44 -62 -82 -68 -76 -96 -119 -84 -130 11 -11 117 -10 141
1 19 9 19 9 3 -11 -10 -11 -18 -26 -18 -34 0 -8 -21 -63 -46 -123 -25 -59 -44
-110 -41 -112 2 -2 38 10 81 26 93 36 98 36 92 7 -3 -12 -7 -41 -10 -65 l-6
-42 44 0 44 0 49 -96 c31 -62 56 -100 71 -107 31 -14 36 -5 63 110 11 51 24
93 28 93 4 0 13 -30 21 -68 14 -74 52 -132 102 -158 42 -22 58 -5 58 61 0 77
17 86 76 41 66 -50 62 -51 132 42 17 22 17 22 62 -88 25 -60 47 -110 50 -109
10 0 61 74 67 98 3 13 -1 54 -10 91 -12 49 -13 77 -6 108 8 36 5 49 -17 95
-20 41 -25 62 -20 89 5 29 115 210 147 243 7 7 8 -29 3 -101 -7 -120 -2 -164
20 -164 26 0 67 89 81 175 6 37 11 25 60 -149 30 -103 56 -190 58 -192 2 -3
14 51 27 118 30 166 38 199 39 169 1 -15 18 -39 47 -65 51 -45 103 -81 108
-75 2 2 17 45 32 94 26 80 32 90 53 90 20 0 34 -20 95 -132 70 -131 94 -167
83 -128 -11 38 -20 340 -10 330 5 -5 19 -74 31 -153 21 -140 33 -182 52 -182
16 0 58 93 76 166 9 38 19 71 21 73 2 3 18 -10 37 -28 l33 -32 7 43 c10 64 38
158 46 158 4 0 15 -19 25 -42 22 -57 62 -108 84 -108 20 0 63 43 84 85 8 17
22 68 31 115 19 93 28 109 49 92 11 -9 21 -4 47 23 l33 34 -2 101 c-2 82 1
104 13 113 10 8 26 61 42 137 22 105 31 129 53 147 14 13 31 23 37 23 27 0 32
-100 9 -176 -51 -175 -88 -404 -105 -659 -11 -162 -29 -271 -106 -640 -22
-107 -22 -113 -8 -245 8 -74 19 -227 23 -340 8 -188 11 -213 40 -305 42 -136
41 -188 -4 -253 -47 -69 -53 -122 -65 -622 -11 -435 -17 -500 -54 -584 -32
-71 -65 -107 -140 -151 -35 -20 -92 -60 -126 -87 -33 -27 -80 -60 -103 -73
l-41 -24 28 -11 c77 -29 121 -33 270 -25 83 5 170 9 193 9 22 1 39 4 37 8 -4
7 98 40 104 34 2 -2 -16 -11 -40 -19 l-43 -15 58 -1 c53 -1 74 -12 45 -24 -10
-4 -10 -6 -1 -6 7 -1 20 11 30 27 10 15 25 32 33 39 18 15 100 17 100 3 0 -5
14 -10 31 -10 26 0 29 -3 24 -20 -7 -21 -9 -21 135 -24 14 -1 30 -5 37 -9 7
-4 92 -10 190 -12 l178 -5 -68 63 c-72 66 -88 106 -44 108 16 1 11 4 -16 13
-39 12 -40 26 -2 26 13 0 28 6 34 14 14 16 4 25 -59 54 -26 12 -80 56 -129
105 l-83 85 -55 163 -55 164 -1 305 c-1 213 2 338 12 414 11 86 13 195 8 523
-5 359 -4 423 10 485 15 66 15 83 -2 236 -17 159 -16 427 2 560 7 58 14 46 18
-31 2 -35 10 -79 18 -98 19 -44 73 -106 83 -96 4 4 10 35 12 70 2 34 7 65 11
70 4 4 22 -20 41 -52 18 -33 37 -58 41 -56 4 3 15 39 25 80 l18 74 31 -83 c36
-97 61 -139 78 -133 15 5 35 96 36 170 1 31 5 57 9 57 4 0 26 -18 47 -40 21
-22 48 -40 58 -40 21 0 21 11 0 143 l-6 37 77 -35 c43 -19 79 -35 82 -35 2 0
-10 27 -26 61 -25 48 -29 64 -19 75 16 20 23 19 128 -26 51 -23 95 -39 97 -37
2 2 -7 37 -21 77 -14 40 -24 74 -22 75 1 1 31 10 67 19 36 10 68 20 72 23 5 2
1 18 -8 35 -17 33 -12 42 34 54 12 4 22 14 22 24 0 21 5 19 -190 50 -104 17
-145 28 -177 49 -42 25 -54 41 -32 41 6 0 66 -14 132 -31 176 -46 169 -45 217
-10 28 20 56 31 79 32 69 2 85 11 93 54 8 48 34 111 48 120 6 4 35 1 65 -6 79
-17 88 -5 46 62 l-32 52 28 -6 c15 -4 78 -18 138 -32 61 -13 126 -25 145 -25
l35 0 -30 24 c-16 14 -60 42 -97 63 -37 21 -68 41 -68 44 0 3 42 12 93 19 50
7 96 16 100 20 4 4 -8 19 -28 34 -40 31 -39 41 5 50 59 11 140 37 140 45 0 4
-27 13 -59 20 -55 12 -66 11 -132 -9 -39 -11 -96 -32 -126 -46 -44 -19 -72
-24 -135 -24 -59 0 -79 3 -76 13 3 6 22 13 44 15 52 5 64 17 64 63 0 58 26 67
132 46 l83 -17 30 34 c17 19 42 40 57 48 l27 13 -29 44 c-35 52 -38 76 -9 92
20 10 42 9 152 -7 35 -6 37 -5 37 23 0 21 -12 40 -40 68 l-40 39 77 18 c42 10
79 20 81 23 2 2 -22 11 -54 21 -33 9 -63 19 -67 21 -4 3 6 20 23 39 46 52 41
63 -32 66 l-63 3 38 19 c20 10 37 22 37 26 0 4 -21 10 -47 12 -48 4 -48 4
-138 -78 -81 -73 -98 -84 -164 -104 -40 -12 -74 -20 -76 -18 -1 2 -5 43 -9 92
-5 75 -4 87 8 83 37 -14 89 -19 82 -8 -5 8 7 11 40 11 26 0 74 5 106 12 55 11
59 14 68 48 5 19 10 43 10 52 0 15 13 18 92 20 l92 3 54 90 c30 50 55 101 56
115 1 20 11 28 54 45 28 11 52 23 52 26 0 4 -40 22 -90 40 -81 30 -91 37 -101
66 -6 18 -22 42 -36 53 l-25 20 26 10 c68 26 126 53 126 60 0 6 -105 50 -158
65 l-23 7 31 34 c32 37 38 75 18 119 -7 15 -19 25 -32 25 -48 0 -66 11 -60 36
8 32 -7 31 -103 -7 -124 -49 -125 -50 -122 -123 l4 -63 -53 -61 c-83 -96 -124
-116 -363 -183 -172 -48 -226 -59 -287 -59 -41 0 -73 2 -70 5 2 3 65 14 138
25 135 21 212 48 234 82 15 25 -2 37 -60 44 l-50 6 9 67 c4 36 11 68 13 71 3
2 36 -30 74 -71 59 -65 122 -111 134 -98 2 2 -3 48 -12 101 -8 53 -12 104 -9
113 9 22 39 19 81 -10 20 -14 38 -25 40 -25 2 0 6 10 10 23 10 42 66 115 100
131 19 9 49 16 68 16 29 0 37 5 51 36 10 19 30 43 47 52 23 13 32 28 40 65 14
65 14 65 -15 91 l-24 23 24 33 c28 39 33 62 9 53 -8 -3 -25 3 -37 14 -52 45
-53 45 -87 17 -17 -15 -41 -28 -53 -29 -50 -6 -182 -75 -237 -124 l-59 -51
-172 0 -172 0 -143 -61 c-79 -33 -159 -73 -178 -89 -51 -40 -114 -54 -160 -35
-49 21 -72 19 -167 -11 -66 -21 -83 -23 -90 -12 -5 7 -9 54 -9 103 l1 90 20
-28 c18 -23 75 -57 98 -57 4 0 13 21 19 48 20 77 27 82 60 43 24 -30 32 -33
60 -26 18 3 38 16 46 27 14 19 14 19 54 -6 60 -38 86 -41 121 -17 25 18 44 21
131 21 l101 0 -15 22 c-22 31 -21 61 2 54 9 -3 46 -12 82 -20 36 -8 78 -19 94
-25 25 -10 28 -10 21 6 -29 69 -45 116 -41 120 2 2 32 -1 66 -7 34 -6 65 -9
68 -6 3 3 1 6 -5 6 -6 0 -23 10 -37 21 -39 31 -20 39 95 39 70 0 112 6 157 21
34 11 62 22 62 24 0 2 -24 11 -52 21 -72 22 -86 44 -73 111 l10 52 56 -49 c54
-47 57 -49 63 -27 3 12 6 42 7 67 0 25 4 56 8 70 7 24 7 24 20 -8 8 -18 23
-38 33 -43 21 -11 74 -5 115 14 24 11 24 12 18 92 l-7 81 41 -4 c50 -5 52 6
16 78 -14 27 -25 51 -25 52 0 2 19 2 43 0 37 -3 46 1 76 32 l34 35 -22 27
c-11 15 -21 37 -21 49 0 16 -8 25 -25 29 -14 4 -25 13 -25 21 0 18 27 35 103
66 97 39 74 54 -108 69 -76 6 -157 15 -180 20 -22 5 -89 19 -150 30 -60 11
-144 32 -185 45 -113 37 -160 45 -345 55 -188 10 -266 26 -336 71 -27 17 -59
29 -79 29 -66 0 -156 22 -217 53 l-63 31 0 53 0 53 45 -34 c24 -19 61 -40 81
-46 35 -12 38 -11 56 14 28 37 57 33 128 -21 35 -27 69 -52 77 -58 11 -8 21
-2 42 23 33 39 48 40 63 6 7 -14 26 -33 42 -41 36 -19 106 -34 106 -22 0 4 16
13 36 19 34 12 38 10 93 -33 87 -67 102 -73 118 -51 7 10 13 21 13 26 0 4 7 8
15 8 7 0 18 7 23 16 8 14 23 11 135 -25 69 -23 136 -41 149 -41 20 1 17 6 -26
46 l-49 45 17 54 c9 29 23 58 30 64 15 12 22 -2 65 -129 21 -63 37 -71 77 -37
l28 24 -12 65 c-18 100 -19 98 38 98 28 0 50 3 50 7 0 3 -10 20 -23 37 -39 52
-39 53 0 92 l38 37 -67 -8 c-40 -4 -68 -3 -68 3 0 5 -17 17 -39 26 -28 13 -68
18 -154 19 l-116 2 -85 65 c-47 36 -86 68 -86 73 -1 24 72 -7 136 -59 23 -19
48 -34 57 -34 18 0 47 48 47 77 0 13 10 8 39 -21 30 -30 45 -37 69 -34 l30 3
-23 58 c-43 105 -45 101 30 67 110 -49 161 -35 79 22 -92 64 -110 95 -49 85
32 -5 37 -3 48 20 10 22 8 28 -12 44 l-23 19 46 0 c25 0 46 4 46 10 0 5 -21
21 -47 34 l-48 25 38 1 c20 0 37 5 37 10 0 15 -40 28 -121 42 l-69 11 16 24
c8 14 13 27 10 31 -6 6 -56 -3 -205 -35 l-83 -18 -20 25 c-19 23 -19 24 -1 31
10 4 34 8 53 8 19 1 42 6 50 11 22 14 -1 27 -169 98 l-146 61 -60 -14 c-33 -8
-82 -15 -110 -15 -27 0 -66 -4 -85 -9 -19 -5 -56 -12 -82 -15 -39 -5 -48 -3
-48 10 0 13 10 15 55 12 65 -4 65 -2 30 87 -25 63 -26 64 -7 94 l18 30 44 -44
c49 -50 68 -55 95 -25 17 19 18 19 74 -16 31 -19 71 -52 88 -72 l33 -37 0 31
c0 17 -7 48 -16 69 l-15 38 37 -6 c20 -3 77 -29 127 -57 50 -27 94 -50 99 -50
4 0 8 27 8 60 l0 60 26 -10 c42 -16 53 -12 64 28 14 50 19 56 64 73 48 17 66
41 49 67 -10 16 -6 20 32 30 l43 11 7 59 6 58 79 42 c60 32 87 55 119 97 23
31 41 64 39 73 -5 28 -89 44 -199 38 -95 -6 -96 -6 -107 19 -8 17 -20 25 -37
25 -13 0 -44 5 -68 12 -38 10 -49 8 -102 -15 -61 -26 -215 -47 -215 -29 0 5
28 12 63 15 83 8 135 30 143 62 13 51 1 58 -82 50 l-76 -7 17 26 c16 24 16 26
-1 32 -11 3 -33 12 -51 21 -25 12 -50 14 -125 8 -51 -4 -99 -12 -107 -19 -15
-12 -166 -12 -280 -1 l-64 7 22 21 c16 17 36 22 93 25 76 5 88 11 88 50 0 31
7 28 51 -19 50 -54 62 -45 53 41 l-6 69 78 -34 c78 -35 104 -41 104 -28 0 4
-18 38 -41 76 -22 38 -38 71 -35 74 7 7 87 -47 134 -91 l32 -30 0 50 c0 27 -6
61 -14 76 -13 24 -12 27 8 32 11 3 38 6 60 6 36 0 38 1 33 27 -3 15 -1 55 5
89 11 72 9 78 -64 171 -53 67 -63 72 -94 48 -26 -20 -34 -19 -34 5 0 10 -16
32 -35 47 -33 26 -34 28 -13 33 12 3 23 11 25 17 6 17 -78 73 -109 73 -15 0
-28 5 -28 10 0 16 46 56 80 70 17 7 30 16 30 21 0 14 -74 59 -97 59 -35 0 -28
15 15 33 37 15 37 15 5 10 -19 -3 -33 -1 -33 4 0 6 25 34 55 62 30 29 55 56
55 62 0 5 -28 9 -62 9 -65 0 -74 3 -97 33 -12 15 -12 19 2 30 15 11 15 21 1
114 -15 102 -15 103 6 134 l22 31 -31 32 c-29 30 -30 34 -15 40 16 6 15 10
-11 31 l-30 24 28 1 c37 0 34 12 -15 54 -43 35 -43 36 -15 36 26 0 32 8 27 40
-3 25 -164 280 -176 280 -7 0 -16 -32 -23 -74 -15 -101 -24 -121 -71 -151
l-41 -26 -59 47 c-33 26 -59 49 -56 51 2 2 23 -1 47 -6 76 -18 91 -15 87 17
-2 23 -10 29 -45 37 -43 11 -67 25 -41 25 14 0 48 30 48 42 0 3 -26 11 -57 18
-32 7 -52 15 -45 17 10 4 10 8 1 19 -11 13 -10 29 5 65 6 14 -4 18 -70 24 -42
4 -93 13 -113 20 l-36 13 28 11 c16 6 35 11 43 11 35 0 -11 51 -60 67 -17 5
-39 22 -50 37 -20 28 -20 29 -2 40 68 41 68 41 -25 84 -74 34 -87 43 -92 68
-3 16 -25 57 -49 91 -24 34 -106 155 -183 269 -77 114 -146 209 -153 212 -9 3
-12 -19 -12 -84z m1025 -1901 c3 -32 8 -69 11 -83 3 -23 -4 -28 -73 -61 l-76
-36 -24 28 c-14 16 -51 43 -83 60 -62 33 -98 64 -86 76 4 4 62 -1 129 -10 211
-31 206 -31 166 2 -12 10 -23 31 -24 49 -2 29 0 32 25 32 27 0 29 -3 35 -57z
m-951 5 c-4 -18 -24 -64 -45 -101 -22 -38 -39 -71 -39 -73 0 -2 28 12 63 31
35 19 69 35 75 35 7 0 17 -20 23 -45 l11 -44 48 49 c38 39 56 50 79 50 17 0
31 -3 30 -7 -1 -15 -115 -91 -197 -132 -89 -45 -120 -48 -137 -16 -27 54 -57
93 -80 105 l-25 13 48 28 c27 15 71 52 98 83 27 30 50 55 51 55 1 1 0 -14 -3
-31z m721 -209 c11 -17 0 -20 -21 -4 -17 13 -17 14 -2 15 9 0 20 -5 23 -11z
m50 -9 c-3 -5 -12 -10 -18 -10 -7 0 -6 4 3 10 19 12 23 12 15 0z m425 -99
c-22 -32 -30 -38 -30 -22 0 12 41 63 47 57 3 -3 -5 -19 -17 -35z m-1854 -6 c9
-14 19 -47 23 -75 l6 -50 67 60 c76 69 98 71 98 9 0 -21 3 -39 6 -39 4 0 21 9
39 20 29 18 34 18 45 5 7 -8 23 -15 35 -15 69 0 72 -30 5 -67 -27 -15 -50 -31
-50 -34 0 -3 36 -16 80 -28 50 -15 80 -29 80 -37 0 -8 17 -17 43 -21 41 -7 41
-7 12 -14 -70 -16 -224 -9 -361 16 -76 14 -147 28 -157 31 -10 3 -39 48 -67
105 l-50 99 30 0 c23 0 33 7 45 30 19 37 49 39 71 5z m1829 -139 c5 -49 3 -81
-4 -95 -16 -28 -31 -27 -31 3 0 19 -7 26 -30 31 -16 4 -30 8 -30 10 0 1 11 27
23 56 13 30 27 62 30 73 14 37 35 -3 42 -78z m-382 -481 c18 -26 60 -135 54
-142 -2 -2 -20 3 -40 12 -42 17 -95 78 -72 83 8 2 17 19 21 38 7 40 13 42 37
9z m-378 -305 c-3 -5 -11 -10 -16 -10 -6 0 -7 5 -4 10 3 6 11 10 16 10 6 0 7
-4 4 -10z m2 -272 c6 -7 13 -68 16 -135 l6 -123 -42 -12 c-47 -13 -223 -17
-278 -5 l-36 7 33 36 c19 19 34 42 34 49 0 19 50 76 61 70 12 -8 51 14 44 26
-4 5 4 13 17 18 13 5 43 25 68 45 49 39 62 43 77 24z m-608 -202 c15 -8 33
-22 40 -30 12 -14 10 -16 -7 -16 -38 0 -72 19 -72 40 0 24 3 24 39 6z m904 4
c9 0 23 -12 29 -27 7 -16 18 -36 26 -45 16 -19 10 -22 -80 -32 l-47 -6 -6 38
c-3 20 -8 48 -11 61 -5 23 -3 23 33 18 21 -4 46 -7 56 -7z m-2198 -10 c-27
-12 -43 -12 -25 0 8 5 22 9 30 9 10 0 8 -3 -5 -9z m1520 -30 l16 -30 -51 0
c-49 0 -51 1 -44 23 10 32 11 32 33 6 l20 -24 1 28 c0 35 6 34 25 -3z m405
-90 c0 -13 -7 -20 -20 -20 -25 0 -26 16 -2 29 23 14 22 14 22 -9z m525 -80 c3
-5 2 -10 -4 -10 -5 0 -13 5 -16 10 -3 6 -2 10 4 10 5 0 13 -4 16 -10z m-563
-377 c17 -15 19 -15 33 3 13 17 14 4 12 -124 l-2 -144 -113 -60 c-62 -33 -115
-58 -117 -56 -3 3 14 46 37 96 30 64 48 92 60 92 25 0 35 26 49 123 7 48 14
87 17 87 3 0 14 -8 24 -17z m-223 -329 c13 -30 22 -57 20 -59 -6 -5 -129 -22
-129 -18 0 9 75 133 81 133 3 0 16 -25 28 -56z m-189 -54 c11 -11 25 -20 32
-20 7 0 8 -3 3 -9 -6 -5 -38 -12 -73 -15 l-63 -7 12 23 c28 54 54 63 89 28z
m456 -358 c-3 -3 -26 -8 -51 -12 l-46 -7 6 56 c6 50 11 60 48 93 l42 38 3 -81
c2 -45 0 -84 -2 -87z m-3106 -742 c0 -5 -5 -10 -11 -10 -5 0 -7 5 -4 10 3 6 8
10 11 10 2 0 4 -4 4 -10z m380 -152 c-1 -7 -11 -41 -23 -76 l-22 -63 -65 -4
c-58 -3 -117 5 -160 22 -9 3 35 30 115 69 135 66 155 72 155 52z m164 -134 c9
-22 2 -27 -24 -19 -17 5 -19 10 -9 21 15 18 25 18 33 -2z m2543 -421 c-10 -91
-17 -102 -46 -84 -12 8 -9 24 19 95 18 48 34 85 35 84 2 -2 -2 -45 -8 -95z
m-3049 -193 c-7 -11 -19 -20 -27 -20 -11 0 -10 5 4 20 10 11 22 20 27 20 4 0
3 -9 -4 -20z m4190 -227 c23 -15 42 -30 42 -33 0 -3 -29 -3 -65 -2 -66 4 -73
9 -59 46 9 23 34 20 82 -11z m-1792 -59 c49 -17 53 -17 78 -1 25 17 27 16 66
-8 l40 -25 124 31 124 32 57 -17 c31 -10 69 -16 85 -14 34 5 35 -1 24 -99 l-7
-52 -49 -10 c-27 -6 -94 -14 -149 -18 l-100 -6 -34 33 c-25 24 -48 36 -82 41
-106 17 -204 29 -323 40 -123 11 -199 27 -138 28 27 1 169 45 198 62 8 5 20 7
25 5 6 -2 33 -12 61 -22z m-2026 -114 c0 -17 -7 -20 -47 -20 -27 0 -88 -7
-138 -15 -72 -11 -109 -12 -192 -3 -57 6 -99 15 -92 18 6 4 70 5 142 3 112 -4
144 -2 207 15 98 27 120 27 120 2z m67 -16 c-3 -3 -12 -4 -19 -1 -8 3 -5 6 6
6 11 1 17 -2 13 -5z m2578 -440 c3 -25 5 -47 3 -49 -2 -2 -49 -13 -105 -25
-55 -11 -115 -25 -132 -30 -17 -5 -31 -7 -31 -4 0 3 11 27 25 54 34 68 89 100
171 100 l62 0 7 -46z m526 -74 c10 -6 19 -19 19 -30 0 -58 30 -65 62 -15 13
19 26 35 30 35 9 0 48 -55 48 -69 0 -6 9 -15 21 -22 18 -9 26 -6 53 20 18 17
37 31 43 31 6 0 29 -20 52 -45 l42 -45 15 35 c8 19 20 35 28 35 8 0 37 -21 65
-46 l51 -46 10 29 c6 15 18 48 27 73 9 25 20 49 24 54 4 4 33 -10 66 -32 113
-76 112 -76 213 -53 108 26 107 26 116 -1 3 -13 12 -30 20 -38 12 -14 -4 -19
-134 -44 -241 -47 -263 -53 -352 -85 -70 -25 -117 -33 -265 -47 -178 -16 -274
-19 -327 -8 -37 7 -35 -2 9 -42 l37 -34 -42 0 -41 0 0 75 c0 41 -3 126 -7 190
l-7 116 28 -13 c25 -11 29 -10 44 9 18 25 25 27 52 13z m-864 -46 c-6 -7 -87
-21 -87 -16 0 3 12 19 27 35 l28 28 18 -22 c9 -12 16 -23 14 -25z m-327 -43
c14 -27 13 -31 -10 -31 -11 0 -37 -7 -58 -16 l-37 -15 40 40 c45 47 50 48 65
22z m680 -156 c0 -53 -3 -65 -16 -65 -12 0 -15 6 -11 23 3 12 2 41 -2 65 -7
37 -6 42 10 42 17 0 19 -8 19 -65z m-94 -70 c18 -14 18 -14 -8 -15 -18 0 -28
5 -28 15 0 19 11 19 36 0z m1094 -172 c51 -34 240 -197 240 -206 0 -5 -10 -7
-22 -4 -13 3 -69 11 -125 18 -90 11 -114 11 -191 -4 -113 -22 -111 -22 -123
10 -13 36 4 49 77 58 31 4 71 13 90 21 28 12 34 20 34 43 0 16 3 36 6 45 4 12
0 16 -16 16 -11 0 -18 5 -15 10 9 14 17 13 45 -7z m-2787 -140 c-7 -2 -19 -2
-25 0 -7 3 -2 5 12 5 14 0 19 -2 13 -5z m147 -32 c-8 -5 -43 -15 -78 -22 -54
-11 -64 -11 -72 1 -8 12 -2 16 28 21 60 10 139 10 122 0z m-2424 -236 c-16
-30 -23 -34 -45 -28 -14 3 -27 7 -29 9 -2 1 14 18 35 37 46 43 67 34 39 -18z
m4374 -3990 c13 -14 21 -25 18 -25 -2 0 -15 11 -28 25 -13 14 -21 25 -18 25 2
0 15 -11 28 -25z"/>
</g>
</svg>
