<?xml version="1.0" standalone="no"?>
<!DOCTYPE svg PUBLIC "-//W3C//DTD SVG 20010904//EN"
 "http://www.w3.org/TR/2001/REC-SVG-20010904/DTD/svg10.dtd">
<svg version="1.0" xmlns="http://www.w3.org/2000/svg"
 width="1280.000000pt" height="1009.000000pt" viewBox="0 0 1280.000000 1009.000000"
 preserveAspectRatio="xMidYMid meet">
<metadata>
Created by potrace 1.15, written by Peter Selinger 2001-2017
</metadata>
<g transform="translate(0.000000,1009.000000) scale(0.100000,-0.100000)"
fill="#000000" stroke="none">
<path d="M5825 10080 c-102 -22 -218 -75 -343 -158 l-84 -57 -52 56 c-28 31
-59 59 -68 62 -31 11 -82 -12 -105 -46 -12 -18 -40 -50 -62 -71 l-39 -38 -58
40 c-137 92 -199 112 -280 86 -72 -22 -135 -91 -232 -252 -40 -67 -78 -124
-83 -127 -5 -4 -39 6 -75 20 -39 16 -76 24 -89 21 -13 -3 -37 -28 -55 -56 -18
-27 -37 -50 -43 -50 -5 0 -53 14 -106 32 -85 28 -109 32 -211 32 -109 1 -118
0 -169 -29 -62 -34 -107 -84 -123 -137 -9 -29 -23 -44 -69 -73 -112 -69 -213
-185 -233 -268 l-6 -27 -61 50 c-77 64 -102 77 -180 89 -142 23 -215 10 -286
-53 -63 -56 -93 -122 -93 -210 l0 -69 -42 8 c-168 28 -228 25 -296 -15 l-34
-20 -61 55 c-161 143 -327 161 -447 49 -32 -30 -65 -77 -95 -135 -25 -49 -48
-89 -51 -89 -3 0 -23 9 -45 21 -53 26 -130 39 -254 40 -159 2 -211 -31 -286
-178 -50 -99 -46 -178 18 -294 2 -4 -24 -10 -59 -13 -123 -14 -206 -73 -263
-185 -44 -88 -59 -164 -45 -235 17 -85 32 -111 117 -195 l75 -74 -48 -19 c-33
-12 -75 -18 -127 -18 -43 0 -92 -6 -110 -14 -74 -30 -164 -181 -155 -259 4
-34 23 -87 45 -128 2 -4 -22 -10 -54 -14 -158 -18 -271 -161 -261 -330 6 -89
25 -125 107 -202 61 -58 64 -62 39 -63 -36 0 -84 -43 -98 -86 -18 -53 -4 -97
51 -166 l50 -62 -56 -13 c-75 -17 -135 -60 -183 -133 -82 -122 -66 -201 60
-291 40 -28 90 -59 110 -68 37 -16 38 -17 38 -71 -1 -54 -1 -55 -41 -74 -47
-21 -83 -71 -100 -138 -22 -92 15 -163 109 -209 37 -18 65 -23 130 -23 45 -1
82 -4 82 -8 0 -24 67 -79 113 -93 58 -17 212 -20 253 -5 15 6 28 9 30 7 5 -5
-36 -126 -66 -194 -20 -48 -25 -52 -54 -51 -18 1 -46 -6 -62 -15 -16 -9 -46
-24 -67 -33 -77 -34 -137 -120 -137 -196 0 -79 69 -172 164 -220 47 -24 151
-35 194 -20 28 10 31 8 42 -18 7 -16 37 -53 68 -82 32 -29 64 -69 74 -90 23
-52 91 -116 152 -144 55 -25 114 -31 184 -20 34 6 42 5 42 -7 0 -23 85 -112
133 -140 92 -54 219 -72 302 -42 22 8 68 15 101 15 160 0 243 83 244 241 0 60
3 78 15 83 10 3 18 -1 21 -12 17 -57 48 -105 83 -130 l40 -29 -20 -32 c-10
-17 -35 -41 -54 -52 -21 -13 -38 -33 -45 -54 -6 -18 -18 -39 -26 -46 -26 -22
-53 -85 -60 -141 -18 -155 86 -251 275 -251 83 0 132 16 190 60 32 25 35 26
45 9 50 -83 71 -110 112 -140 27 -19 66 -40 89 -46 49 -15 136 -15 164 -1 18
10 22 8 34 -21 22 -50 94 -116 167 -150 83 -40 182 -49 263 -23 l55 17 34 -26
c66 -50 177 -71 242 -46 23 8 27 5 48 -32 48 -87 175 -162 297 -174 63 -7 160
20 213 59 80 59 111 200 70 322 l-20 59 24 29 c13 16 24 35 24 43 0 8 5 14 10
14 6 0 10 -16 10 -35 0 -96 103 -211 219 -246 l42 -13 -6 -50 c-4 -28 -16
-100 -26 -161 -39 -220 -49 -284 -79 -530 -47 -375 -69 -450 -181 -598 -34
-45 -88 -136 -121 -202 -90 -184 -110 -207 -213 -245 -47 -18 -88 -37 -92 -43
-5 -8 9 -7 82 9 l20 4 -20 -9 c-11 -5 -107 -40 -213 -78 -106 -37 -186 -69
-177 -71 8 -2 15 -10 15 -17 0 -10 10 -12 35 -9 19 2 51 6 72 9 21 2 33 1 27
-5 -29 -28 -338 -176 -430 -206 -109 -35 -157 -59 -99 -49 57 9 170 24 225 30
30 3 73 8 95 11 22 2 -66 -31 -195 -75 -129 -43 -223 -80 -208 -80 20 -1 26
-5 22 -16 -4 -9 -1 -15 7 -15 24 0 406 38 602 60 104 12 196 20 205 17 9 -2
-19 -7 -64 -11 -102 -10 -122 -21 -52 -30 29 -4 80 -12 114 -18 56 -10 60 -13
56 -34 -3 -17 0 -24 11 -24 9 0 20 -7 25 -16 8 -15 161 -68 266 -93 l49 -12
51 48 c48 46 48 45 -11 -22 -67 -76 -202 -209 -273 -267 l-45 -37 50 -2 c28
-1 56 -2 62 -2 7 1 11 -2 9 -6 -2 -3 64 -7 146 -9 233 -3 397 30 778 158 240
80 254 85 216 66 -28 -13 -26 -14 55 -16 138 -5 319 -4 579 2 181 5 276 3 365
-7 123 -14 378 -34 383 -30 2 2 -29 10 -68 20 -111 27 -76 28 46 0 132 -29
307 -52 509 -66 82 -6 182 -19 220 -29 121 -32 216 -44 340 -43 109 0 244 18
232 30 -3 2 -69 33 -146 68 -144 64 -229 111 -278 152 -16 13 1 5 37 -17 35
-23 66 -36 68 -31 2 6 16 11 32 11 49 0 315 59 365 81 11 5 52 22 90 38 39 17
67 30 64 31 -3 0 -50 -7 -105 -15 -54 -8 -117 -14 -139 -14 -22 1 8 7 66 14
58 7 150 24 205 38 173 45 377 106 383 114 3 5 36 16 73 26 81 21 122 36 116
42 -2 3 -44 16 -93 30 -192 56 -538 206 -519 225 5 5 32 14 59 21 100 24 132
42 80 47 -93 7 -381 138 -445 202 -51 52 -212 328 -258 445 -74 187 -92 290
-99 579 l-6 229 24 -7 c76 -21 133 -27 180 -17 107 23 179 76 205 153 11 32
12 33 65 30 43 -3 61 -10 88 -34 97 -86 235 -108 341 -56 30 15 63 40 74 56
17 26 24 28 75 28 31 -1 70 2 87 6 27 6 32 3 49 -28 43 -80 154 -153 266 -174
53 -10 130 -5 159 10 10 6 29 -8 66 -49 39 -42 71 -66 126 -91 65 -31 82 -35
158 -35 74 0 92 4 145 30 73 37 120 99 130 175 7 48 8 50 33 43 46 -12 135 -7
188 11 62 20 126 73 144 118 8 18 14 34 15 35 0 1 23 -4 50 -12 26 -8 61 -15
77 -15 31 0 36 -11 13 -30 -28 -23 -55 -78 -65 -131 -32 -166 75 -275 270
-273 98 0 165 29 224 95 63 70 69 132 24 239 -32 74 -64 107 -141 146 -40 20
-73 37 -75 38 -1 2 8 26 21 54 24 51 24 51 42 32 58 -64 202 -122 306 -122
128 -1 205 63 288 237 27 55 51 109 55 120 4 13 24 27 57 38 28 10 68 34 90
54 22 20 42 33 45 30 10 -10 -17 -133 -41 -182 -16 -34 -35 -56 -59 -69 -19
-10 -39 -31 -45 -46 -5 -15 -23 -46 -40 -70 -55 -77 -65 -196 -21 -268 44 -71
176 -122 282 -108 99 13 188 69 225 141 33 62 8 189 -53 270 -13 17 -58 49
-101 72 -87 46 -86 44 -96 181 -6 70 -5 72 16 67 12 -3 55 -7 95 -8 64 -2 72
-4 72 -22 1 -68 110 -189 196 -219 53 -18 113 -21 161 -7 31 9 34 8 49 -24 37
-79 155 -155 271 -177 116 -21 248 32 300 119 26 44 28 56 27 143 0 66 -6 106
-18 133 -20 45 -128 158 -173 181 -35 17 -41 33 -70 171 -8 39 -26 115 -40
170 -14 55 -24 114 -23 130 6 58 5 120 -3 151 -7 28 -5 32 15 37 43 11 106 67
129 113 30 63 23 153 -18 234 -26 49 -28 59 -16 75 7 11 13 39 13 64 -1 48
-22 94 -124 268 -26 45 -45 86 -42 91 3 5 28 12 55 15 101 12 212 97 263 202
54 110 61 263 18 376 -57 148 -230 299 -372 324 -30 6 -38 12 -38 29 0 13 12
33 26 47 48 43 64 94 64 201 0 147 -31 257 -93 328 -12 14 -31 42 -42 64 -18
36 -55 76 -115 125 l-25 20 30 1 c83 1 155 45 186 115 38 83 18 247 -39 311
-61 68 -215 174 -255 174 -9 0 -20 8 -26 17 -7 14 0 27 35 65 24 26 45 57 45
70 4 86 -3 93 -219 217 l-73 42 35 39 c84 93 50 270 -75 398 -62 63 -115 96
-212 129 -61 21 -85 24 -154 20 -51 -3 -85 -1 -92 6 -6 6 -11 30 -11 53 0 50
-42 118 -129 207 -159 164 -357 166 -591 7 l-61 -42 28 43 c23 34 28 54 28
100 0 50 -4 62 -30 89 -61 65 -162 111 -320 145 -44 10 -82 19 -83 21 -2 1 8
23 23 49 26 44 27 47 10 65 -15 17 -31 20 -105 20 -48 0 -89 2 -91 5 -3 2 -1
35 4 72 11 86 0 116 -52 143 -50 25 -132 26 -315 5 -71 -9 -130 -14 -131 -13
-1 2 -6 23 -11 48 l-9 45 -71 3 -70 3 -22 74 c-27 92 -72 146 -139 169 -98 34
-213 12 -344 -65 -69 -40 -89 -46 -89 -29 0 17 -83 58 -173 85 -120 37 -168
33 -292 -29 -64 -31 -103 -58 -121 -82 -21 -27 -33 -34 -53 -32 -21 2 -27 10
-34 43 -21 99 -28 115 -57 130 -38 20 -43 19 -114 -9 -34 -13 -75 -26 -92 -29
-30 -6 -32 -3 -60 56 -79 166 -140 220 -248 219 -68 0 -115 -18 -280 -109
-129 -70 -141 -75 -150 -58 -20 34 -98 115 -112 115 -8 0 -38 -12 -69 -27
l-55 -27 -102 104 c-112 114 -172 152 -269 170 -91 17 -178 -10 -238 -74 l-23
-24 -57 57 c-73 74 -133 102 -231 107 -41 2 -93 -1 -115 -6z m-4901 -5212 c20
-64 35 -93 56 -112 17 -14 30 -29 30 -34 0 -6 -16 -19 -35 -31 l-35 -20 -26
47 c-15 26 -33 57 -41 70 -12 20 -13 40 -2 135 11 94 14 105 19 72 4 -22 19
-79 34 -127z m574 -250 c-7 -36 -6 -76 1 -124 14 -85 6 -151 -20 -165 -23 -12
-21 -17 -23 101 -1 72 -7 106 -22 140 l-20 45 40 27 c23 14 44 27 47 27 4 1 2
-23 -3 -51z m928 -644 c-3 -9 -6 -20 -6 -25 0 -6 -4 -7 -10 -4 -16 10 -12 45
6 45 11 0 14 -5 10 -16z m10035 -181 c14 -59 18 -246 6 -294 -5 -19 -17 -29
-46 -38 -22 -6 -49 -23 -61 -38 -11 -15 -34 -35 -50 -44 l-29 -18 -20 35 c-12
19 -21 39 -21 43 0 5 -9 20 -20 33 -17 22 -19 35 -13 91 6 65 6 66 54 96 50
33 127 113 156 162 10 16 20 29 24 29 3 0 12 -26 20 -57z m-413 -200 c28 -3
52 -9 52 -12 -1 -17 -19 -31 -33 -25 -9 3 -49 -10 -92 -30 -42 -20 -77 -36
-79 -36 -2 0 -7 16 -11 36 -5 30 -2 41 17 61 19 20 29 24 58 18 19 -3 59 -8
88 -12z m-7880 -2820 c-10 -2 -28 -2 -40 0 -13 2 -5 4 17 4 22 1 32 -1 23 -4z
m3699 -149 c-3 -3 -12 -4 -19 -1 -8 3 -5 6 6 6 11 1 17 -2 13 -5z m121 -11
c-10 -2 -26 -2 -35 0 -10 3 -2 5 17 5 19 0 27 -2 18 -5z"/>
</g>
</svg>
