<?xml version="1.0" standalone="no"?>
<!DOCTYPE svg PUBLIC "-//W3C//DTD SVG 20010904//EN"
 "http://www.w3.org/TR/2001/REC-SVG-20010904/DTD/svg10.dtd">
<svg version="1.0" xmlns="http://www.w3.org/2000/svg"
 width="1280.000000pt" height="802.000000pt" viewBox="0 0 1280.000000 802.000000"
 preserveAspectRatio="xMidYMid meet">
<metadata>
Created by potrace 1.15, written by Peter Selinger 2001-2017
</metadata>
<g transform="translate(0.000000,802.000000) scale(0.100000,-0.100000)"
fill="#000000" stroke="none">
<path d="M5235 8013 c-16 -3 -34 -11 -38 -19 -21 -38 -178 -41 -327 -7 -42 9
-66 11 -68 4 -2 -5 -11 -7 -20 -5 -10 4 -7 -2 8 -15 14 -11 30 -21 35 -21 6 0
16 -4 24 -9 23 -15 -5 -41 -37 -36 -89 14 -121 14 -116 2 3 -8 -17 -24 -50
-40 l-55 -28 -41 21 c-50 26 -226 35 -248 13 -7 -7 -34 -14 -60 -15 -65 -2
-70 -2 -78 -11 -10 -10 -36 -9 -30 1 2 4 -4 8 -15 8 -10 0 -19 -3 -19 -6 0 -3
-4 -11 -9 -18 -7 -12 -14 -11 -41 3 -25 13 -34 14 -40 5 -4 -7 -13 -9 -19 -6
-6 4 -11 2 -11 -4 0 -6 -13 -5 -35 4 -19 8 -35 13 -35 10 0 -3 -9 0 -19 6 -14
7 -22 7 -26 0 -5 -8 -11 -7 -21 1 -7 6 -22 8 -31 4 -27 -11 -83 -13 -89 -4 -3
5 -13 4 -22 -1 -9 -5 -82 -14 -162 -19 -152 -12 -230 -27 -294 -60 -31 -16
-42 -18 -58 -8 -16 10 -22 9 -32 -5 -7 -10 -21 -18 -30 -18 -9 0 -16 -7 -16
-15 0 -14 -58 -31 -82 -23 -7 3 -19 -2 -27 -10 -9 -9 -29 -13 -58 -10 -33 2
-42 0 -38 -10 3 -9 -1 -11 -14 -7 -18 5 -21 -7 -11 -35 1 -3 2 -9 1 -14 -6
-30 74 -78 237 -140 67 -26 122 -51 122 -56 0 -4 -7 -10 -15 -14 -8 -3 -15
-12 -15 -21 0 -14 -3 -14 -25 1 -15 10 -25 12 -25 5 0 -6 -7 -11 -15 -11 -8 0
-15 5 -15 11 0 5 -4 7 -10 4 -5 -3 -10 -1 -10 6 0 7 -9 9 -22 6 -12 -4 -28 -1
-35 5 -9 7 -13 7 -13 -1 0 -20 -14 -12 -70 39 -30 27 -60 48 -67 45 -7 -2 -15
0 -18 5 -3 4 -39 25 -81 46 -42 20 -82 44 -90 52 -11 10 -48 16 -124 20 -60 2
-107 8 -105 13 9 13 -14 20 -33 10 -11 -6 -31 -12 -45 -15 -43 -8 -97 -37 -97
-53 0 -11 -7 -14 -26 -10 -19 3 -24 1 -20 -10 9 -22 -21 -73 -39 -67 -9 4 -16
-3 -21 -20 -7 -28 -19 -34 -28 -13 -3 8 -8 7 -16 -6 -11 -17 -13 -17 -24 -1
-10 12 -15 14 -20 5 -6 -9 -11 -9 -22 0 -9 8 -14 8 -14 1 0 -7 -13 -5 -36 4
-20 8 -43 13 -50 10 -9 -4 -14 2 -14 17 l-1 22 -18 -22 -19 -23 -8 28 c-5 20
-8 23 -11 10 -5 -22 -2 -21 -48 -2 -54 22 -65 12 -20 -19 l40 -27 -29 0 c-15
0 -42 -7 -60 -15 -48 -23 -123 -105 -138 -150 -12 -35 -17 -40 -43 -39 -46 3
-116 23 -151 45 -35 22 -48 24 -38 8 7 -12 -25 -9 -74 6 -17 6 -22 3 -22 -10
0 -18 -3 -18 -90 9 -26 8 -53 10 -65 5 -18 -7 -18 -8 -2 -8 10 -1 15 -5 12
-11 -3 -5 -31 -10 -61 -10 -54 0 -78 -19 -26 -21 23 -1 22 -3 -13 -12 -22 -7
-55 -27 -74 -44 l-33 -33 27 0 27 0 -25 -30 c-14 -16 -28 -39 -32 -50 -10 -32
-49 -37 -122 -14 -10 3 -2 -4 17 -16 31 -19 32 -20 8 -16 -14 3 -34 9 -44 13
-12 4 -15 3 -10 -5 5 -9 -6 -12 -36 -13 -29 0 -37 -3 -24 -8 15 -6 11 -10 -23
-26 -54 -24 -72 -45 -40 -45 23 0 23 -1 -6 -18 -40 -25 -63 -52 -44 -53 26 -1
-26 -18 -58 -18 -33 -1 -58 -21 -26 -21 17 -1 17 -1 0 -11 -24 -14 -21 -32 5
-24 18 6 20 4 13 -11 -4 -11 -9 -28 -12 -39 -4 -16 -3 -17 6 -5 9 12 11 12 16
-2 4 -10 4 -21 1 -27 -3 -5 0 -11 6 -14 9 -3 5 -12 -11 -31 -15 -16 -19 -26
-11 -26 9 0 7 -6 -6 -21 -10 -12 -14 -24 -9 -26 7 -2 8 -28 5 -68 -3 -36 -1
-66 4 -68 5 -2 4 -12 -3 -24 -15 -30 -14 -40 8 -62 10 -10 23 -27 29 -37 10
-18 11 -18 18 -1 6 16 9 15 41 -9 33 -25 35 -25 40 -6 4 17 9 18 45 10 35 -7
42 -6 55 11 8 12 25 20 41 20 15 0 47 2 72 3 35 2 45 0 45 -12 0 -9 8 -14 18
-12 9 2 17 -2 17 -8 0 -25 95 -3 117 27 12 16 13 15 13 -1 0 -13 5 -16 20 -11
11 4 20 2 20 -4 0 -6 5 -11 10 -11 6 0 10 7 10 17 0 15 2 15 18 0 12 -11 22
-13 34 -6 12 7 24 6 37 -1 26 -14 28 -13 34 11 6 22 44 23 40 1 -2 -7 7 -12
18 -12 18 0 19 -2 9 -15 -16 -20 5 -20 40 -1 21 12 26 12 37 -3 9 -13 16 -14
30 -5 15 9 23 8 38 -2 25 -18 54 -18 76 1 9 9 48 19 89 24 81 8 94 -1 66 -44
-18 -27 -41 -33 -49 -12 -3 8 -10 4 -22 -11 -9 -12 -21 -20 -26 -16 -6 3 -17
-3 -25 -15 -12 -17 -26 -21 -65 -21 -28 0 -60 -5 -71 -11 -13 -7 -18 -7 -14
-1 4 7 -6 9 -29 5 -22 -4 -35 -2 -35 5 0 6 -17 0 -37 -14 -23 -15 -43 -22 -52
-17 -9 4 -33 6 -53 5 -22 -1 -38 3 -38 9 0 7 -7 8 -17 4 -34 -14 -93 -22 -99
-14 -3 5 -18 -1 -34 -12 -17 -13 -35 -19 -45 -15 -11 4 -26 -3 -43 -19 -14
-14 -19 -25 -12 -25 9 0 7 -7 -6 -22 -17 -19 -17 -21 -1 -15 20 7 21 3 7 -23
-10 -18 -9 -18 25 -5 44 19 59 19 51 -1 -4 -10 0 -15 12 -13 32 3 41 -1 36
-15 -6 -16 48 -47 131 -76 l50 -17 -41 -7 c-29 -5 -53 -3 -79 8 -32 14 -36 14
-25 1 10 -12 9 -15 -4 -15 -9 0 -27 7 -41 16 -22 15 -23 14 -18 -5 6 -25 3
-25 -44 -6 -43 18 -51 19 -35 3 30 -30 -5 -38 -63 -14 -28 12 -33 12 -28 1 4
-11 -1 -12 -26 -5 -17 4 -35 12 -42 15 -8 5 -9 1 -4 -14 6 -18 2 -21 -27 -22
-30 -1 -31 -2 -8 -8 l25 -7 -29 -8 c-22 -5 -26 -10 -17 -19 21 -21 11 -30 -30
-24 l-41 5 21 -19 c12 -11 21 -25 21 -31 0 -9 -3 -9 -12 0 -20 20 -27 14 -30
-30 l-3 -41 -31 26 c-41 35 -52 34 -46 -4 l5 -31 -44 8 c-24 4 -60 8 -79 9
-33 0 -35 -2 -35 -32 0 -38 -11 -41 -75 -18 -55 19 -64 19 -55 -2 4 -10 9 -23
12 -29 2 -7 -14 -15 -43 -20 -51 -10 -68 -28 -34 -39 15 -5 18 -10 11 -19 -6
-7 -7 -16 -1 -22 15 -15 -26 -57 -50 -49 -14 4 -20 2 -20 -8 0 -8 -8 -14 -17
-13 -15 1 -19 -9 -21 -51 l-3 -53 -39 0 c-50 0 -61 -18 -21 -33 17 -6 31 -15
31 -19 0 -4 -17 -16 -37 -27 -31 -17 -34 -20 -15 -21 39 0 23 -19 -33 -36 -52
-17 -65 -34 -24 -34 18 0 19 -2 4 -30 -8 -16 -15 -36 -15 -45 0 -17 21 -20 37
-4 17 17 26 -24 14 -67 -9 -33 -9 -36 10 -31 20 5 20 5 3 -21 -10 -15 -37 -54
-61 -87 -45 -61 -51 -75 -32 -75 20 0 55 23 101 68 27 26 48 41 48 34 0 -7 12
-25 26 -41 19 -22 33 -28 53 -26 15 2 34 0 41 -5 10 -6 22 -2 39 13 l24 22 -5
-25 c-3 -14 -9 -33 -13 -44 -7 -16 -6 -17 13 -7 12 7 22 16 22 21 0 5 6 7 14
4 9 -3 16 6 20 28 l7 33 16 -35 17 -35 4 28 3 28 35 -31 c19 -16 44 -30 55
-30 22 0 19 10 -14 47 -11 13 -19 25 -16 27 2 2 35 -1 74 -6 69 -9 135 -4 135
11 0 4 -9 16 -20 26 -24 21 -26 40 -5 31 9 -3 18 1 21 9 4 8 16 15 29 15 12 0
30 10 41 21 18 21 52 38 102 53 17 6 22 3 22 -9 0 -17 17 -17 67 2 16 6 16 5
5 -9 -12 -15 -9 -17 20 -20 l32 -3 -34 -32 c-31 -30 -33 -33 -13 -33 16 0 20
-5 16 -20 -6 -22 7 -26 24 -9 9 9 14 5 19 -15 8 -33 22 -34 30 -1 l6 25 19
-23 c11 -13 18 -17 19 -9 0 9 7 11 20 7 13 -4 23 0 31 13 10 16 16 17 35 8 31
-14 30 -23 -7 -45 -18 -11 -26 -22 -20 -25 17 -11 14 -18 -29 -64 -40 -42 -53
-76 -26 -66 24 9 27 -12 6 -39 -11 -14 -16 -27 -10 -29 6 -2 -4 -21 -22 -42
l-32 -39 32 6 c30 6 32 5 22 -13 -13 -24 -13 -50 0 -50 5 0 25 -17 44 -37 34
-38 35 -38 43 -15 l9 23 18 -20 c22 -25 46 -27 46 -6 0 10 10 15 30 15 17 0
33 7 39 17 9 16 11 16 32 -2 22 -20 22 -20 15 0 -19 48 -18 53 13 69 39 21 38
21 33 -16 -2 -18 1 -44 6 -58 9 -24 10 -24 18 -5 4 11 20 38 36 59 21 29 28
34 28 20 1 -18 2 -18 19 2 13 17 22 20 35 12 14 -8 21 -5 32 11 9 12 24 21 34
21 12 0 21 10 25 30 4 17 10 28 15 25 5 -3 12 0 16 7 5 8 10 5 15 -9 4 -12 15
-19 28 -18 28 2 81 42 81 60 0 10 10 15 29 15 22 0 37 10 59 38 20 25 43 41
71 48 23 6 41 7 41 3 0 -5 16 -9 35 -9 29 0 37 -5 45 -26 9 -21 15 -25 35 -20
18 5 27 2 31 -9 4 -8 15 -15 25 -15 10 0 19 -4 19 -9 0 -4 11 -20 25 -35 14
-15 25 -22 25 -15 0 8 4 9 13 0 10 -8 17 -7 25 1 9 9 12 8 12 -6 0 -10 -13
-31 -29 -47 -31 -31 -31 -35 0 -19 16 9 19 7 19 -8 0 -26 11 -34 27 -21 10 9
13 5 13 -20 0 -21 5 -31 15 -31 8 0 15 9 15 20 0 25 5 25 31 -1 15 -15 24 -17
33 -10 9 7 16 7 24 -1 9 -9 12 -6 12 14 0 24 21 44 34 31 3 -4 6 -20 6 -37 0
-24 3 -28 10 -16 9 13 11 13 20 0 9 -13 12 -13 23 1 11 15 16 15 37 3 41 -22
70 -18 70 11 0 23 2 24 21 13 17 -11 22 -10 35 7 8 11 18 19 22 18 4 -1 15 12
24 30 17 31 17 31 18 7 1 -24 1 -24 15 -6 7 10 18 15 24 11 6 -3 11 1 11 9 0
19 11 21 28 4 9 -9 12 -8 12 5 0 19 15 23 25 7 3 -5 15 -10 26 -10 16 0 18 3
9 19 -14 27 -13 30 10 24 11 -3 20 -12 20 -19 0 -14 11 -18 43 -15 11 2 17 -5
17 -17 0 -24 17 -32 53 -25 16 3 27 1 27 -6 0 -6 3 -10 8 -9 4 0 15 -2 25 -7
10 -4 36 -5 59 -2 52 7 67 1 61 -24 -3 -11 2 -28 13 -40 18 -21 18 -21 -5 -40
-21 -18 -22 -21 -8 -32 10 -7 17 -30 19 -57 2 -28 7 -44 15 -43 6 1 14 -11 18
-27 7 -30 19 -38 30 -20 3 5 14 1 25 -10 22 -22 40 -26 40 -9 0 6 12 1 26 -10
32 -25 54 -27 54 -6 0 9 6 15 13 13 6 -2 31 3 54 11 37 12 45 12 68 -3 21 -14
32 -15 63 -6 20 5 49 10 64 10 21 0 34 10 55 42 19 27 29 36 31 26 2 -13 8
-11 28 9 17 17 28 43 34 77 13 77 16 81 81 98 l61 17 25 -25 c32 -32 26 -46
-23 -57 -50 -10 -65 -24 -41 -41 15 -12 15 -15 2 -26 -18 -15 -11 -30 15 -30
12 0 20 -8 22 -22 2 -16 11 -24 30 -26 14 -2 32 -10 38 -18 14 -16 60 -19 60
-4 0 7 13 8 36 4 30 -5 36 -3 40 13 3 10 19 24 35 30 16 6 29 19 29 28 0 13 5
15 23 8 12 -4 42 -8 67 -8 39 0 45 3 48 23 2 12 9 22 16 22 6 0 29 9 49 19 46
24 69 18 163 -38 38 -22 75 -44 83 -49 11 -6 6 -19 -23 -60 -37 -51 -51 -59
-136 -76 -29 -6 -98 -61 -89 -71 4 -3 28 8 55 24 57 37 104 41 104 11 0 -30
28 -24 49 10 24 40 113 109 118 93 3 -7 11 -13 19 -13 8 0 14 -9 14 -19 0 -24
16 -36 26 -20 4 8 13 0 23 -22 20 -43 62 -48 71 -9 6 23 7 24 16 6 16 -26 48
-17 52 16 3 26 3 26 33 10 28 -16 31 -16 43 1 11 14 24 16 81 12 75 -6 126
-26 200 -79 28 -20 86 -60 131 -90 85 -57 125 -106 209 -259 22 -39 55 -82 81
-103 52 -43 74 -103 74 -201 0 -55 3 -67 24 -86 209 -190 271 -293 295 -494
11 -89 -1 -228 -40 -472 -22 -143 -45 -204 -145 -396 -64 -124 -87 -174 -108
-238 -6 -17 -9 -17 -39 8 -40 34 -87 102 -87 127 0 23 -41 24 -90 0 -37 -18
-90 -105 -90 -148 0 -14 30 -55 82 -111 124 -134 167 -247 168 -443 0 -115 16
-183 71 -315 36 -87 42 -113 46 -196 9 -156 -21 -217 -162 -329 -58 -46 -115
-114 -115 -136 0 -12 31 -28 115 -59 49 -18 61 -27 63 -47 2 -17 15 -32 40
-45 77 -43 182 -53 395 -38 116 8 118 8 166 -19 42 -22 63 -27 133 -28 90 -1
142 14 188 56 14 12 44 28 68 35 24 7 58 21 75 32 23 14 50 19 100 19 37 0 67
3 67 8 0 15 -136 140 -198 181 -79 53 -126 117 -152 206 -11 39 -28 86 -36
105 -31 69 -135 229 -160 245 -14 9 -34 36 -44 61 -18 40 -50 61 -50 33 0 -28
64 -208 90 -254 15 -27 43 -86 60 -130 18 -44 38 -86 44 -94 8 -11 8 -13 -2
-7 -18 11 -79 109 -107 171 -12 29 -35 61 -50 71 -42 29 -65 53 -65 66 0 9 3
9 12 0 20 -20 28 -14 28 25 0 68 -32 166 -75 233 -28 42 -45 81 -49 110 l-6
45 23 -46 c22 -46 107 -143 107 -122 0 6 -11 63 -24 127 -19 91 -22 124 -14
152 13 49 5 52 -28 9 -20 -26 -29 -33 -35 -23 -13 20 -10 38 6 38 31 0 36 36
25 163 -6 67 -11 145 -13 172 -2 49 -3 50 -36 53 -23 2 -51 -6 -85 -24 l-51
-27 38 40 c21 23 64 53 95 69 71 34 68 32 54 46 -7 7 -12 21 -11 33 0 11 3 14
6 7 2 -7 14 -17 26 -23 18 -9 20 -9 10 2 -17 17 -16 32 1 26 7 -3 42 9 77 28
35 18 75 36 88 40 13 4 44 20 69 36 25 16 56 29 69 29 13 0 40 15 60 33 21 18
58 45 83 61 63 40 90 66 90 88 0 28 -14 22 -66 -27 -69 -66 -144 -100 -221
-100 -55 0 -66 3 -90 27 l-27 27 35 158 34 158 0 340 0 340 -44 85 c-24 47
-85 144 -136 215 -125 176 -129 184 -122 264 4 52 16 86 61 178 32 64 63 113
71 113 19 0 65 44 65 61 0 8 10 14 23 15 12 0 30 4 40 8 12 6 17 4 17 -8 0 -9
8 -16 19 -16 14 0 18 -5 14 -20 -4 -14 0 -20 11 -20 9 0 16 -6 16 -14 0 -22
17 -28 42 -15 12 7 48 11 80 10 34 -1 58 3 58 9 0 5 12 10 28 10 20 0 33 9 50
36 26 40 23 64 -8 64 -12 0 -28 13 -40 33 -27 43 -25 56 8 57 15 0 51 3 81 6
44 5 56 3 63 -10 5 -9 13 -14 17 -11 5 2 11 -4 14 -15 4 -16 14 -20 49 -21
157 -4 139 1 175 -54 18 -27 34 -53 36 -58 5 -15 80 -26 172 -25 86 1 88 1 40
10 -143 27 -156 30 -152 41 5 16 25 16 66 -1 24 -9 37 -10 44 -3 6 6 24 11 39
11 15 0 28 5 28 10 0 6 9 10 20 10 11 0 20 3 20 8 0 14 55 31 79 25 21 -5 23
-3 19 14 -5 17 0 22 22 25 15 2 36 -2 46 -9 10 -7 14 -13 9 -13 -5 0 -3 -6 3
-12 10 -10 15 -10 22 2 8 12 14 11 40 -9 23 -17 40 -22 61 -17 17 3 29 1 29
-5 0 -6 8 -9 18 -7 9 1 23 -1 30 -5 8 -5 12 -2 12 9 0 10 3 14 7 11 3 -4 12
-2 19 4 9 7 19 7 33 0 11 -6 46 -11 79 -11 33 0 76 -7 97 -16 25 -10 48 -13
69 -8 45 11 248 19 336 14 22 -2 46 3 55 10 12 10 15 10 15 0 0 -10 3 -10 14
-1 8 6 18 11 22 10 5 -1 16 1 24 4 8 4 51 18 95 32 44 15 99 38 122 51 52 30
53 30 53 -3 l0 -28 23 25 c13 14 39 39 58 55 19 17 46 45 62 64 17 21 27 27
27 17 0 -29 15 -17 32 27 48 120 51 142 45 303 -4 93 -2 156 4 159 5 4 9 -1 9
-9 0 -19 21 -21 39 -3 11 10 13 9 8 -5 -7 -21 -3 -22 25 -7 19 10 20 9 14 -16
-7 -28 -7 -28 18 -12 18 12 26 13 29 4 3 -9 8 -9 20 2 15 11 17 11 17 -2 0
-22 18 -31 35 -17 8 6 39 13 69 15 47 3 56 1 61 -16 8 -25 20 -24 33 4 7 14
11 17 11 7 1 -18 41 -25 41 -8 0 6 3 8 7 5 3 -4 15 0 25 10 17 15 18 15 18 -1
0 -16 3 -15 27 4 l27 21 18 -23 18 -23 0 23 c0 13 4 21 9 18 4 -3 17 4 27 15
23 25 94 63 102 54 3 -3 1 -15 -6 -25 -16 -27 -15 -35 3 -20 8 7 15 9 15 4 0
-4 6 0 13 9 12 17 32 18 55 4 8 -5 12 -2 12 8 0 9 5 13 10 10 19 -11 40 16 40
51 0 18 4 43 9 56 4 13 11 36 15 52 l7 29 -26 -32 c-34 -39 -43 -39 -47 2 l-3
32 -17 -30 c-14 -25 -17 -27 -23 -13 -10 26 -25 12 -25 -23 0 -18 -5 -29 -14
-29 -8 0 -16 -10 -18 -22 -2 -18 -11 -24 -36 -26 -23 -2 -36 -10 -44 -27 -14
-31 -38 -36 -101 -19 -28 7 -53 14 -53 14 -1 0 -5 -11 -8 -24 l-6 -25 -25 25
c-20 20 -34 24 -79 24 -35 0 -56 5 -59 13 -3 10 -13 10 -50 0 -61 -17 -77 -16
-77 2 0 18 -12 19 -27 4 -18 -18 -43 -2 -43 26 0 25 -23 35 -35 15 -11 -17
-35 -11 -35 9 0 29 -25 44 -60 36 l-30 -7 0 50 c0 66 -7 82 -36 82 -42 0 -40
28 5 69 32 29 41 44 41 69 0 37 -21 43 -43 12 -9 -13 -20 -18 -31 -14 -12 5
-16 0 -16 -22 l0 -28 -20 21 c-12 14 -23 47 -30 90 -14 90 -25 116 -60 137
-17 9 -30 21 -30 27 0 5 -18 9 -39 9 -36 0 -40 3 -43 28 -3 24 -8 27 -43 30
-22 2 -45 8 -52 14 -7 6 -26 7 -45 2 -18 -4 -47 -6 -64 -5 -18 1 -35 -3 -39
-9 -5 -8 -12 -5 -22 9 -18 26 -45 27 -67 2 -17 -19 -18 -19 -53 5 -19 13 -39
21 -44 18 -5 -3 -9 18 -9 45 0 60 12 65 59 25 17 -14 31 -21 31 -15 0 6 9 15
20 21 16 8 24 6 41 -11 l21 -21 22 21 c29 27 40 26 69 -5 16 -17 27 -22 31
-15 16 26 96 7 123 -28 11 -14 12 -13 13 6 0 12 4 24 9 28 11 6 41 -21 41 -38
0 -8 4 -7 12 1 35 35 78 -13 78 -88 0 -33 3 -40 19 -40 22 0 31 -19 31 -66 0
-31 3 -35 20 -29 15 5 23 0 32 -21 l13 -27 5 24 c4 15 14 25 28 27 14 2 22 10
22 23 0 28 30 36 46 14 13 -17 14 -15 14 18 0 30 4 37 20 37 11 0 29 -9 40
-20 16 -16 20 -17 20 -5 0 25 17 17 39 -19 22 -35 28 -72 11 -61 -5 3 -17 -10
-26 -29 -17 -35 -17 -35 -47 -20 -16 9 -31 13 -34 11 -7 -8 -22 -78 -23 -106
0 -19 3 -21 14 -12 8 6 18 11 22 9 5 -1 19 3 32 10 19 11 23 10 29 -5 4 -10 7
-33 7 -50 0 -36 7 -41 26 -18 21 25 30 17 30 -29 0 -54 17 -71 64 -62 24 5 37
2 46 -9 19 -22 89 -19 165 9 50 18 65 20 65 10 0 -22 14 -16 44 16 22 25 30
29 46 20 10 -5 22 -15 25 -20 13 -22 46 -10 56 20 6 17 16 30 22 30 7 0 23 21
36 46 25 47 81 99 138 128 45 23 47 20 19 -17 -22 -28 -36 -87 -22 -87 3 0 43
23 90 51 48 29 89 50 91 47 2 -2 -18 -40 -45 -84 -58 -93 -63 -115 -20 -84 17
12 30 20 30 18 0 -2 -9 -37 -20 -78 -32 -123 -23 -198 18 -146 27 35 32 33 32
-14 0 -48 11 -50 64 -10 43 33 56 28 56 -22 0 -36 17 -44 42 -21 15 13 22 15
25 5 3 -7 11 -19 20 -27 20 -20 45 -6 74 42 20 32 24 35 27 18 6 -32 22 -42
22 -14 0 47 16 52 35 10 26 -58 95 -80 95 -31 0 12 5 17 14 14 16 -6 26 23 26
81 l1 40 24 -30 c24 -28 25 -29 25 -7 0 36 23 26 84 -38 l58 -60 15 40 c11 26
21 39 30 36 13 -5 37 27 27 37 -3 2 -12 56 -20 118 -8 64 -23 132 -34 155 -23
46 -26 80 -8 86 17 6 -22 70 -53 85 -13 7 -61 13 -105 13 -65 0 -86 -4 -105
-19 -23 -18 -139 -35 -139 -20 0 4 25 17 55 30 35 16 55 30 55 41 0 10 10 22
21 29 17 9 19 13 8 20 -26 15 23 24 136 24 61 -1 138 -7 173 -15 57 -13 68
-20 111 -70 26 -30 60 -72 76 -93 15 -21 41 -45 57 -53 48 -25 35 8 -33 81
-91 97 -26 84 126 -25 46 -33 86 -60 89 -60 4 0 -5 20 -19 45 -15 24 -25 55
-23 67 3 21 11 16 73 -45 38 -38 71 -63 73 -57 3 7 14 3 28 -11 l24 -22 0 22
c0 12 -9 39 -20 61 -27 53 -25 68 5 40 14 -13 28 -21 31 -18 8 8 -12 44 -53
98 -31 40 -28 38 21 -13 31 -32 56 -55 56 -52 0 3 -11 28 -25 55 -23 45 -24
50 -8 50 10 0 47 -31 83 -68 36 -38 73 -71 82 -75 10 -3 24 -21 32 -39 8 -18
15 -27 15 -20 1 17 22 15 35 -4 9 -12 11 -6 8 28 l-5 43 42 -38 c22 -20 46
-37 51 -37 6 0 10 16 10 35 0 19 5 35 10 35 6 0 10 16 10 35 l0 36 31 -16 c17
-9 32 -15 34 -13 2 2 5 23 6 47 3 37 0 45 -18 52 -16 6 -23 19 -28 58 -8 57
-22 73 -41 47 -11 -16 -13 -16 -19 3 -4 14 -15 21 -31 21 -23 0 -42 15 -84 66
-8 10 -15 23 -15 28 0 6 -10 13 -23 16 -13 3 -22 7 -22 10 1 3 -14 22 -33 42
-22 24 -33 44 -31 56 6 20 -30 57 -61 65 -18 4 -18 5 3 6 30 1 28 21 -3 21
-14 0 -25 5 -25 10 0 6 -9 10 -21 10 -11 0 -17 5 -14 10 3 6 -3 10 -13 10 -15
0 -19 5 -15 20 4 13 -1 22 -13 27 -11 4 -25 13 -32 20 -7 7 -31 16 -53 19 -21
4 -39 10 -39 15 0 5 -13 9 -30 9 -16 0 -30 5 -30 11 0 6 -9 8 -20 4 -14 -4
-42 5 -83 27 -88 48 -148 65 -257 73 -52 4 -121 14 -152 22 -63 17 -146 13
-158 -7 -4 -7 -16 -9 -29 -5 -15 4 -19 3 -16 -7 4 -10 -15 -12 -95 -10 -85 3
-100 1 -100 -12 0 -18 -15 -21 -25 -6 -9 14 -45 12 -45 -2 0 -9 -4 -8 -10 2
-8 13 -10 12 -10 -3 0 -12 -4 -16 -12 -10 -14 8 -19 10 -44 12 -11 1 -14 10
-12 34 2 25 10 36 37 49 42 21 51 16 25 -13 -19 -22 -19 -22 3 -10 12 6 24 15
27 19 6 10 36 9 54 -2 6 -4 12 -3 12 2 0 9 37 25 52 23 4 0 19 4 33 9 17 6 25
6 25 -1 0 -7 24 -8 70 -4 60 5 70 4 70 -10 0 -12 4 -14 17 -7 11 7 24 6 37 -3
24 -15 77 -15 97 1 25 20 59 24 59 7 0 -13 3 -13 16 -2 13 10 17 10 24 0 5 -9
9 -9 11 -3 3 8 17 8 48 0 31 -8 46 -8 48 -1 3 7 22 4 53 -8 52 -20 56 -19 40
10 -6 13 -5 24 5 37 10 13 14 15 15 5 0 -11 3 -11 15 -1 12 10 15 10 15 -4 0
-16 25 -23 33 -8 3 4 8 29 12 57 6 52 15 69 22 48 7 -20 20 -15 26 8 3 12 10
18 16 14 7 -4 11 4 11 21 0 22 2 24 15 14 32 -27 46 14 20 64 -18 35 -19 39
-2 31 6 -4 0 5 -15 19 -27 25 -27 25 -5 29 l22 4 -23 8 c-18 6 -21 10 -10 17
8 6 -6 8 -40 6 -36 -2 -51 1 -48 8 3 8 -3 10 -16 6 -17 -4 -20 -2 -14 13 5 15
4 16 -9 5 -9 -8 -27 -10 -47 -6 -91 18 -112 24 -100 25 7 0 11 5 8 10 -3 5
-15 7 -26 4 -16 -4 -19 -2 -13 13 5 14 3 16 -13 10 -59 -23 -107 -31 -111 -18
-3 6 -20 12 -39 12 -32 0 -80 22 -95 44 -4 5 -12 6 -17 2 -15 -9 -63 4 -56 15
3 5 -2 9 -10 9 -9 0 -16 -8 -17 -17 0 -10 -3 -13 -5 -6 -3 7 -12 9 -20 6 -9
-3 -14 1 -14 12 0 10 -4 13 -12 8 -7 -4 -15 -8 -18 -9 -6 -1 -34 -11 -67 -24
-17 -7 -22 -4 -28 13 -7 21 -8 21 -12 2 -5 -24 -53 -51 -53 -29 0 8 -10 13
-27 12 -31 -2 -116 14 -240 44 -45 11 -87 17 -92 13 -6 -3 -11 -2 -11 3 0 16
-85 8 -114 -11 -15 -11 -35 -17 -45 -14 -9 2 -31 -11 -51 -30 -19 -18 -42 -33
-51 -33 -34 0 -109 -105 -109 -153 0 -15 7 -41 15 -57 9 -18 13 -40 9 -55 -5
-21 -3 -25 15 -25 12 0 21 -6 21 -15 0 -13 26 -40 105 -109 l30 -26 -32 6
c-26 5 -33 3 -33 -9 0 -18 -24 -29 -45 -21 -8 4 -15 1 -15 -5 0 -9 -5 -9 -21
0 -14 7 -24 8 -28 1 -3 -5 -23 -14 -43 -20 -32 -9 -39 -8 -48 6 -5 9 -10 12
-10 5 0 -6 -14 -11 -32 -10 -25 2 -33 7 -39 30 -5 20 -4 27 7 27 18 0 18 31 0
75 -11 25 -11 35 -3 39 7 2 3 5 -8 5 -16 1 -17 3 -6 10 11 7 7 12 -15 24 -56
29 -136 87 -119 87 28 0 6 19 -30 26 -19 3 -35 10 -35 15 0 5 -7 9 -15 9 -18
0 -20 17 -2 23 6 2 -6 8 -28 12 -43 9 -103 50 -82 58 8 3 3 12 -13 25 l-25 21
38 1 c26 0 37 4 37 15 0 8 -8 15 -18 15 -10 0 -27 6 -37 14 -11 8 -25 11 -33
8 -11 -4 -13 0 -7 17 3 12 3 21 -2 20 -23 -4 -43 3 -43 14 0 8 -9 22 -19 31
-11 10 -17 24 -14 32 3 10 0 12 -10 8 -11 -4 -16 2 -19 23 -2 16 -8 27 -15 26
-7 -2 -13 4 -13 12 0 8 -6 12 -14 9 -8 -3 -24 0 -36 6 -21 11 -22 21 -6 60 3
8 2 22 -4 30 -8 13 -11 12 -23 -4 -13 -18 -14 -18 -21 8 -4 15 -11 24 -16 21
-6 -3 -10 1 -10 10 0 9 -4 13 -10 10 -10 -6 -13 2 -14 44 -1 18 -9 27 -36 36
-19 6 -36 19 -38 28 -2 9 -21 24 -42 33 -22 10 -37 21 -34 25 3 5 -8 11 -23
15 -44 11 -125 50 -153 74 -17 15 -19 20 -7 16 9 -3 17 -1 17 4 0 5 -8 11 -18
14 -11 4 -25 18 -32 31 -7 14 -28 29 -45 34 -18 5 -59 35 -92 67 -78 77 -88
84 -117 84 -13 0 -26 3 -28 8 -1 4 -21 16 -42 27 -22 11 -46 26 -53 33 -7 8
-44 18 -81 23 -72 9 -237 70 -225 83 5 4 -17 6 -47 4 -48 -3 -55 -1 -52 15 2
14 -5 17 -45 18 -44 1 -74 1 -251 7 -42 1 -61 6 -60 14 2 7 -13 15 -34 18 -20
4 -43 11 -50 17 -8 6 -40 8 -83 4 -38 -3 -113 -2 -165 2 -103 8 -178 10 -225
3 -16 -2 -59 1 -94 7 -39 6 -66 7 -68 1 -2 -5 -46 -8 -100 -6 -54 2 -138 -2
-188 -8 -180 -23 -215 -23 -215 -6 0 14 -4 15 -20 6 -15 -8 -20 -8 -20 1 0 8
-5 8 -16 -2 -13 -10 -17 -10 -25 2 -5 8 -9 10 -9 4 0 -5 -12 -18 -25 -28 -19
-14 -29 -15 -44 -7 -13 7 -22 7 -26 0 -3 -5 -11 -10 -16 -10 -6 0 -7 5 -4 10
10 16 -33 12 -60 -6 -23 -15 -37 -15 -193 5 -92 11 -181 21 -199 21 -18 0 -44
5 -58 12 -19 9 -28 9 -37 0 -24 -24 -111 -6 -131 25 -4 7 -19 13 -32 13 -14 0
-25 5 -25 10 0 6 -3 9 -7 9 -5 -1 -21 -4 -38 -6z m2379 -2630 c5 -12 10 -13
18 -5 8 8 14 7 24 -5 9 -14 15 -15 27 -5 12 10 16 9 20 -8 4 -17 9 -19 30 -11
28 11 38 6 30 -16 -5 -12 0 -14 25 -8 28 6 32 4 32 -14 0 -12 3 -20 8 -18 4 1
9 -2 12 -8 3 -6 -20 -12 -55 -15 -33 -3 -70 -12 -82 -20 -19 -12 -24 -12 -41
3 -25 23 -49 21 -62 -4 -9 -16 -15 -18 -25 -9 -10 8 -15 7 -19 -8 -7 -22 -59
-35 -76 -18 -5 5 -10 6 -10 2 0 -5 -7 -3 -15 4 -12 10 -18 10 -30 0 -9 -7 -15
-8 -15 -2 0 5 -7 12 -15 16 -22 8 -55 -29 -55 -61 0 -21 -3 -24 -12 -15 -18
18 -69 14 -105 -8 -18 -11 -33 -15 -33 -10 0 6 -7 10 -15 10 -9 0 -15 9 -15
25 0 14 -4 25 -9 25 -5 0 13 22 42 50 39 38 54 47 64 38 9 -7 17 -7 28 2 8 7
34 14 57 15 34 3 48 11 77 44 30 34 43 41 81 44 101 8 108 7 114 -10z m-3599
-495 c19 -13 35 -30 35 -39 0 -9 11 -20 24 -23 14 -3 31 -12 38 -19 7 -7 21
-18 32 -24 16 -9 3 -19 -88 -71 l-106 -60 -21 40 c-15 30 -23 37 -29 28 -7
-11 -17 -8 -48 13 -25 16 -47 24 -61 20 -11 -3 -32 2 -46 11 -26 17 -61 74
-51 84 3 3 6 0 6 -6 0 -7 5 -12 10 -12 6 0 10 6 10 14 0 19 13 22 115 25 70 2
95 6 115 21 31 24 24 24 65 -2z m3297 -265 c41 -18 44 -24 28 -54 -7 -13 -7
-19 0 -19 5 0 10 -10 10 -21 0 -17 3 -19 14 -10 11 10 15 4 18 -29 4 -46 -10
-52 -61 -22 -31 17 -40 32 -21 32 6 0 10 11 10 25 0 21 -5 25 -29 25 -17 0
-33 5 -36 10 -3 6 -19 10 -34 10 -38 0 -43 8 -24 41 21 35 64 39 125 12z m143
-223 c8 -13 -25 -13 -45 0 -12 8 -9 10 12 10 15 0 30 -4 33 -10z"/>
<path d="M12320 5250 c0 -38 -2 -40 -20 -30 -16 9 -20 8 -20 -6 0 -12 -6 -15
-21 -11 -15 4 -27 -1 -39 -15 l-17 -22 -18 22 c-17 19 -20 20 -31 4 -10 -14
-14 -14 -28 -3 -9 7 -16 21 -17 30 0 10 -2 11 -6 4 -6 -17 -28 -16 -43 2 -7 8
-21 15 -32 15 -10 0 -30 7 -43 16 -20 13 -25 14 -25 2 0 -20 30 -59 40 -53 5
3 14 -4 20 -15 7 -13 21 -20 39 -20 21 0 30 -6 34 -21 4 -14 11 -20 21 -16 10
4 20 -1 26 -13 6 -12 21 -20 35 -20 14 0 25 -4 25 -9 0 -16 42 -24 50 -11 6
10 16 7 40 -10 30 -22 34 -22 45 -6 10 13 18 14 39 6 46 -17 66 -13 66 15 0
30 -1 29 38 9 36 -17 52 -12 52 17 0 15 7 19 38 19 l37 0 -40 19 c-43 19 -70
51 -81 95 -3 14 -13 26 -21 26 -9 0 -13 -6 -9 -15 7 -19 2 -19 -35 0 -16 9
-34 13 -40 10 -5 -4 -21 1 -34 9 l-25 16 0 -40z"/>
<path d="M12516 5215 c4 -8 8 -15 10 -15 2 0 4 7 4 15 0 8 -4 15 -10 15 -5 0
-7 -7 -4 -15z"/>
<path d="M11842 5172 c-10 -3 -6 -13 14 -33 33 -35 31 -35 -31 -8 -45 20 -215
41 -215 26 0 -3 26 -20 57 -38 53 -31 56 -34 33 -39 -21 -5 -13 -11 58 -44 45
-22 82 -43 82 -47 0 -4 -17 -5 -37 -2 -48 7 -43 3 37 -40 74 -39 90 -70 43
-82 -15 -3 -36 -14 -46 -23 -15 -14 -23 -14 -50 -3 -58 23 -67 24 -67 8 0 -9
11 -29 25 -45 34 -41 32 -45 -15 -26 -23 9 -43 14 -46 11 -9 -8 54 -95 80
-112 13 -9 28 -26 34 -40 11 -25 42 -35 42 -14 0 5 5 7 11 3 7 -4 19 3 28 15
13 16 30 23 64 25 26 2 56 11 66 20 9 9 22 16 28 16 11 0 37 47 38 69 0 8 17
24 37 37 26 17 36 19 32 9 -5 -11 -2 -13 12 -8 14 5 16 3 11 -10 -6 -15 -3
-16 14 -7 18 10 19 9 13 -14 -6 -26 8 -36 22 -15 5 8 10 7 16 -4 5 -9 15 -14
23 -11 8 4 15 1 15 -5 0 -14 31 -2 48 18 10 12 15 13 18 3 3 -6 11 -9 17 -5
21 13 37 12 37 -4 0 -11 6 -10 26 6 15 12 31 21 36 21 15 0 35 -24 31 -37 -3
-7 3 -9 16 -6 15 4 21 1 21 -12 0 -14 3 -15 15 -5 12 10 15 10 15 -1 0 -10 3
-10 12 -1 9 9 14 7 23 -5 11 -15 14 -14 30 10 13 21 21 25 31 16 7 -6 17 -8
22 -5 6 3 12 -4 15 -15 8 -29 38 -21 56 16 8 17 18 38 23 47 4 10 8 25 8 33 0
8 5 15 11 15 6 0 9 9 6 20 -3 11 -2 20 2 20 18 0 2 44 -20 56 -34 19 -40 17
-34 -9 5 -17 -2 -32 -25 -57 -29 -31 -33 -33 -44 -18 -7 9 -25 18 -41 20 -22
2 -31 10 -35 28 -4 17 -8 21 -14 12 -12 -20 -26 -3 -26 33 0 45 -15 52 -37 18
-9 -15 -19 -30 -21 -33 -1 -2 -7 2 -13 10 -8 13 -12 12 -24 -4 -13 -17 -18
-18 -41 -8 -24 12 -25 11 -22 -15 2 -21 8 -27 22 -25 17 3 18 2 7 -12 -19 -22
-52 -20 -58 4 -4 14 -9 17 -22 11 -22 -12 -120 -11 -127 1 -3 5 2 18 12 29 20
22 16 23 -22 9 -35 -14 -64 -4 -64 21 0 11 -4 17 -10 14 -5 -3 -10 3 -10 14 0
22 -14 28 -25 11 -12 -19 -24 -10 -31 25 -5 29 -34 72 -34 51 0 -4 -32 20 -71
53 -71 60 -93 71 -117 63z"/>
<path d="M11498 4910 c-20 -11 -40 -25 -43 -31 -4 -6 16 1 44 15 28 15 51 29
51 31 0 9 -14 5 -52 -15z"/>
</g>
</svg>
