<?xml version="1.0" standalone="no"?>
<!DOCTYPE svg PUBLIC "-//W3C//DTD SVG 20010904//EN"
 "http://www.w3.org/TR/2001/REC-SVG-20010904/DTD/svg10.dtd">
<svg version="1.0" xmlns="http://www.w3.org/2000/svg"
 width="1280.000000pt" height="1229.000000pt" viewBox="0 0 1280.000000 1229.000000"
 preserveAspectRatio="xMidYMid meet">
<metadata>
Created by potrace 1.15, written by Peter Selinger 2001-2017
</metadata>
<g transform="translate(0.000000,1229.000000) scale(0.100000,-0.100000)"
fill="#000000" stroke="none">
<path d="M6075 9883 c-175 -439 -321 -804 -325 -811 -4 -8 -246 237 -685 693
-373 388 -680 703 -682 701 -3 -2 0 -62 6 -133 6 -70 25 -288 41 -483 17 -195
35 -402 40 -459 5 -58 9 -105 7 -107 -1 -1 -168 114 -372 256 -203 142 -371
257 -373 255 -2 -1 58 -211 132 -465 75 -255 134 -465 132 -467 -2 -3 -273
109 -601 247 -328 138 -598 250 -600 248 -1 -2 139 -266 312 -588 470 -876
447 -830 426 -830 -16 0 -1395 120 -1613 140 -58 6 -113 10 -123 10 -10 0 180
-170 422 -378 242 -207 440 -379 440 -382 1 -3 -207 -18 -461 -34 -255 -16
-480 -32 -502 -35 -37 -6 -26 -13 495 -310 294 -167 540 -310 547 -316 11 -10
-2 -17 -65 -37 -803 -251 -1371 -434 -1365 -439 4 -3 412 -133 907 -288 495
-156 902 -285 904 -287 2 -2 -9 -14 -25 -26 -67 -53 -1171 -962 -1188 -978
-19 -18 -6 -19 462 -13 265 3 482 3 482 -1 0 -3 -101 -117 -225 -253 -124
-135 -224 -247 -223 -249 2 -1 239 35 528 80 289 45 526 79 528 76 2 -5 -591
-1119 -649 -1219 -11 -18 -19 -35 -17 -36 2 -1 425 175 941 393 515 217 940
392 943 390 3 -3 -2 -286 -10 -629 -9 -343 -18 -743 -22 -889 l-6 -265 149
150 c82 83 253 257 381 389 128 131 235 237 237 235 2 -2 28 -147 59 -323 30
-175 57 -320 59 -322 2 -2 102 133 223 300 120 167 221 303 224 301 3 -2 100
-240 215 -529 116 -289 212 -526 215 -526 3 0 149 360 325 800 175 440 320
800 321 800 0 0 257 -266 570 -592 313 -326 622 -648 687 -715 l119 -124 -7
88 c-4 49 -29 338 -55 643 -26 305 -46 556 -45 558 1 2 199 -135 440 -303 241
-168 439 -304 440 -303 1 2 -58 207 -131 457 -73 250 -132 457 -130 459 3 2
215 -85 473 -194 257 -108 499 -210 536 -225 l68 -28 -58 107 c-31 59 -198
370 -370 691 -172 321 -312 586 -309 588 2 2 390 -30 862 -72 473 -41 865 -75
872 -75 7 0 -185 170 -426 378 -242 207 -437 378 -433 379 3 2 253 19 555 38
303 20 552 37 554 39 5 5 -16 17 -656 381 -281 160 -511 293 -511 296 -1 3 45
20 102 37 320 99 1298 409 1302 413 2 3 -62 26 -143 51 -408 127 -1619 511
-1629 517 -8 4 219 197 587 500 330 271 600 495 600 497 0 2 -190 1 -422 -3
l-423 -6 20 24 c11 13 114 126 229 252 114 125 207 230 204 232 -2 2 -275 -39
-608 -90 -332 -52 -605 -93 -605 -92 -1 1 156 297 350 657 193 360 351 657
349 658 -1 2 -330 -134 -731 -303 -400 -169 -819 -346 -931 -393 -130 -55
-206 -82 -212 -76 -7 7 -5 222 5 600 8 324 17 713 20 864 l6 275 -328 -335
c-223 -227 -331 -330 -335 -320 -3 8 -25 131 -49 273 -24 141 -46 257 -49 257
-3 0 -120 -160 -260 -354 -231 -321 -256 -352 -266 -333 -6 12 -114 280 -240
594 -126 315 -231 573 -234 573 -3 0 -149 -359 -325 -797z"/>
</g>
</svg>
