<?xml version="1.0" standalone="no"?>
<!DOCTYPE svg PUBLIC "-//W3C//DTD SVG 20010904//EN"
 "http://www.w3.org/TR/2001/REC-SVG-20010904/DTD/svg10.dtd">
<svg version="1.0" xmlns="http://www.w3.org/2000/svg"
 width="1280.000000pt" height="791.000000pt" viewBox="0 0 1280.000000 791.000000"
 preserveAspectRatio="xMidYMid meet">
<metadata>
Created by potrace 1.15, written by Peter Selinger 2001-2017
</metadata>
<g transform="translate(0.000000,791.000000) scale(0.100000,-0.100000)"
fill="#000000" stroke="none">
<path d="M6140 7507 c-82 -35 -155 -74 -239 -126 -42 -26 -111 -66 -155 -90
-43 -24 -121 -74 -172 -113 -99 -73 -150 -99 -276 -141 -93 -31 -109 -32 -353
-22 -204 8 -301 1 -442 -35 -89 -23 -141 -56 -257 -162 -110 -101 -142 -155
-206 -349 -30 -90 -55 -166 -57 -168 -2 -2 -11 3 -21 12 -31 28 -224 114 -305
136 -96 26 -326 29 -456 6 -47 -8 -86 -13 -88 -11 -2 2 3 41 13 86 16 79 16
84 -6 178 -32 138 -59 205 -141 344 -97 165 -126 199 -239 273 -195 128 -296
167 -456 173 l-112 4 -93 -42 c-99 -45 -133 -68 -335 -236 -290 -241 -675
-529 -834 -624 -204 -121 -364 -270 -390 -361 -38 -132 179 -299 388 -299 122
0 368 68 517 142 66 33 189 117 274 185 65 53 179 209 294 403 57 97 95 151
115 162 l30 18 42 -68 c68 -108 149 -228 226 -337 62 -87 80 -105 132 -133 33
-17 95 -40 137 -50 l78 -19 -42 -33 c-53 -43 -110 -118 -151 -201 -18 -35 -48
-88 -66 -117 -53 -82 -93 -178 -120 -287 -30 -123 -47 -311 -34 -386 5 -30 16
-146 25 -259 8 -113 17 -217 20 -231 6 -26 5 -27 -37 -22 -24 3 -54 0 -68 -6
-24 -9 -23 -10 11 -10 54 -1 100 -12 104 -25 1 -6 11 -40 20 -76 10 -36 31
-89 46 -117 16 -29 29 -54 29 -57 0 -2 -10 -6 -23 -9 -12 -3 -56 -17 -97 -31
-49 -17 -96 -26 -137 -26 -35 0 -63 -4 -63 -10 0 -22 174 0 282 36 l47 15 30
-33 c17 -18 31 -36 31 -39 0 -3 -24 -11 -52 -18 -65 -16 -118 -46 -181 -101
-42 -37 -116 -130 -103 -130 2 0 42 37 88 83 69 69 94 87 147 106 96 35 132
37 155 12 l19 -21 -44 0 c-60 0 -127 -34 -229 -114 -110 -87 -315 -305 -377
-400 -26 -41 -70 -110 -98 -153 -27 -43 -69 -102 -92 -131 -95 -117 -129 -225
-119 -378 14 -213 52 -291 218 -447 101 -95 118 -115 118 -141 0 -26 -9 -38
-52 -70 l-52 -38 -92 4 c-74 3 -97 8 -115 23 -12 11 -48 73 -80 138 -32 65
-71 139 -87 165 -15 26 -64 108 -108 182 -64 108 -97 153 -174 231 -114 115
-167 144 -309 166 -224 34 -371 -14 -531 -176 -114 -115 -155 -251 -138 -463
9 -117 33 -160 223 -403 56 -71 126 -166 155 -209 65 -97 135 -245 145 -306
13 -78 56 -203 86 -246 43 -63 164 -170 227 -201 52 -25 67 -28 162 -27 172 1
209 15 328 128 l62 59 67 -12 c37 -7 115 -30 173 -51 58 -21 139 -49 180 -61
41 -12 79 -25 83 -29 15 -13 76 -233 107 -380 71 -346 150 -472 365 -579 64
-32 79 -35 177 -39 90 -4 117 -1 175 18 180 58 250 111 348 267 37 59 68 109
69 110 0 1 62 10 136 22 172 26 472 116 570 172 157 89 205 128 359 289 l154
161 46 -44 c81 -79 163 -104 284 -87 103 15 137 25 241 75 68 33 106 58 140
95 77 82 81 99 80 300 -1 160 -4 186 -33 303 -17 71 -36 138 -43 150 -23 44
-123 138 -166 157 -65 29 -163 27 -249 -6 -37 -14 -74 -26 -82 -27 -8 -1 -26
28 -46 74 -17 42 -44 92 -58 111 -32 42 -32 42 -7 78 32 45 128 314 146 408
13 71 15 121 10 267 -11 311 -39 427 -168 703 -51 110 -184 243 -298 302 -31
15 -95 40 -143 55 l-87 26 15 29 c9 18 21 27 32 25 10 -2 51 -11 91 -21 40 -9
75 -14 78 -12 2 3 -31 15 -73 28 -43 12 -81 25 -86 27 -4 2 4 19 18 37 44 58
117 226 152 350 60 216 73 446 43 766 -6 58 -10 142 -10 188 0 74 3 89 34 150
34 67 95 134 132 146 53 15 215 46 273 52 87 8 338 75 476 127 145 55 509 271
614 365 205 182 239 219 270 301 45 116 121 388 121 431 0 21 5 60 11 87 15
66 -1 124 -43 154 -47 34 -128 36 -198 6z"/>
<path d="M12295 7501 c-38 -15 -110 -52 -160 -81 -49 -29 -135 -78 -190 -108
-55 -31 -147 -91 -205 -134 -88 -65 -124 -85 -226 -122 -137 -51 -136 -51
-409 -41 -275 10 -457 -18 -557 -85 -62 -41 -198 -167 -238 -220 -34 -45 -102
-215 -136 -341 -10 -35 -19 -65 -20 -67 -1 -2 -25 11 -53 27 -90 54 -197 100
-280 121 -97 24 -331 28 -456 6 -44 -8 -82 -13 -84 -11 -2 3 1 30 8 61 17 87
13 147 -15 252 -34 123 -49 158 -133 300 -82 139 -115 182 -173 226 -82 62
-229 145 -316 177 -81 31 -95 33 -212 34 l-125 0 -86 -41 c-50 -25 -124 -73
-180 -118 -520 -422 -775 -614 -989 -746 -208 -128 -355 -268 -374 -357 -16
-72 26 -140 131 -214 107 -75 250 -98 400 -64 185 42 381 122 508 208 182 123
260 214 429 499 51 87 100 156 117 169 17 12 31 20 33 18 1 -2 24 -38 50 -79
73 -114 183 -277 244 -358 47 -65 62 -78 126 -108 40 -19 99 -39 132 -46 l59
-10 -70 -72 c-70 -71 -79 -86 -230 -371 -95 -179 -131 -432 -98 -680 7 -49 17
-158 22 -240 5 -83 11 -157 13 -165 2 -10 -7 -13 -37 -11 -22 1 -51 -2 -65 -8
-24 -9 -23 -10 11 -10 90 -2 94 -5 119 -94 12 -45 33 -100 46 -123 13 -22 24
-45 24 -51 0 -19 -184 -73 -249 -73 -34 0 -61 -4 -61 -10 0 -22 184 1 281 36
43 14 43 14 76 -18 18 -17 30 -35 26 -39 -5 -4 -33 -14 -63 -23 -74 -20 -137
-64 -210 -143 -84 -92 -75 -102 13 -14 88 87 114 104 196 131 74 23 90 24 114
6 25 -20 22 -23 -32 -28 -27 -3 -68 -15 -92 -28 -72 -37 -212 -154 -320 -268
-116 -122 -147 -163 -247 -322 -39 -63 -90 -137 -112 -164 -55 -67 -105 -160
-120 -225 -16 -70 -7 -266 15 -341 32 -103 60 -143 184 -262 116 -111 121
-118 121 -157 0 -23 -4 -41 -10 -41 -5 0 -25 -14 -45 -31 l-36 -32 -99 5 c-64
3 -105 10 -116 19 -10 8 -40 61 -67 119 -27 58 -103 195 -168 305 -100 167
-134 215 -207 291 -106 110 -173 148 -308 169 -214 35 -336 2 -506 -139 -57
-48 -73 -69 -113 -148 -63 -128 -80 -252 -54 -393 16 -87 55 -151 225 -365
189 -240 259 -367 308 -560 37 -148 66 -202 155 -288 102 -97 175 -134 282
-140 157 -9 294 48 376 155 26 34 28 35 80 29 29 -3 92 -20 140 -37 48 -17
142 -48 208 -69 l119 -38 38 -123 c20 -68 49 -182 63 -253 69 -346 154 -482
363 -583 70 -34 86 -38 178 -41 120 -5 175 8 310 73 104 50 135 82 229 233 31
50 59 92 60 92 2 0 64 9 137 20 89 13 192 37 311 74 197 62 203 64 338 147
100 61 145 101 321 285 l107 112 62 -54 c72 -62 115 -78 215 -77 126 1 323 72
414 150 67 58 91 109 100 220 5 54 6 139 3 188 -7 113 -57 327 -88 380 -33 58
-113 129 -168 150 -67 25 -183 18 -261 -18 -32 -15 -62 -27 -66 -27 -4 0 -19
31 -34 69 -15 38 -41 90 -58 116 l-32 48 26 46 c34 61 113 278 134 366 22 94
15 500 -11 614 -26 115 -68 237 -125 356 -48 101 -60 118 -151 207 -109 108
-155 136 -296 180 -51 16 -93 32 -93 36 0 4 7 17 15 29 14 20 17 20 77 7 115
-26 134 -24 48 5 -86 29 -94 38 -65 71 7 8 35 60 63 115 60 121 116 316 133
465 12 110 8 392 -11 650 l-9 135 35 72 c37 74 92 139 132 154 37 14 203 47
273 54 73 7 106 14 274 61 206 57 306 102 530 236 213 127 292 188 456 349 87
85 99 110 172 359 45 151 71 289 70 361 -1 55 -26 94 -73 113 -57 23 -104 20
-185 -13z"/>
</g>
</svg>
