<?xml version="1.0" standalone="no"?>
<!DOCTYPE svg PUBLIC "-//W3C//DTD SVG 20010904//EN"
 "http://www.w3.org/TR/2001/REC-SVG-20010904/DTD/svg10.dtd">
<svg version="1.0" xmlns="http://www.w3.org/2000/svg"
 width="1280.000000pt" height="1254.000000pt" viewBox="0 0 1280.000000 1254.000000"
 preserveAspectRatio="xMidYMid meet">
<metadata>
Created by potrace 1.15, written by Peter Selinger 2001-2017
</metadata>
<g transform="translate(0.000000,1254.000000) scale(0.100000,-0.100000)"
fill="#000000" stroke="none">
<path d="M1027 11997 c-70 -276 -235 -927 -367 -1447 -132 -520 -328 -1290
-435 -1712 -107 -422 -195 -770 -195 -773 0 -3 101 -5 225 -5 l225 0 -6 -27
c-13 -54 -127 -506 -285 -1131 l-161 -632 157 -618 c177 -697 280 -1104 289
-1145 l6 -27 -225 0 c-124 0 -225 -2 -225 -5 0 -4 40 -164 90 -358 85 -333
381 -1502 832 -3279 112 -439 205 -794 209 -790 3 4 84 313 179 687 95 374
205 808 245 965 40 157 75 278 79 270 3 -8 105 -406 227 -885 121 -478 231
-910 244 -960 13 -50 26 -83 29 -75 9 26 138 528 370 1445 124 490 229 903
234 918 9 33 -15 122 364 -1370 139 -546 255 -993 258 -993 3 0 15 37 27 83
99 395 465 1825 469 1837 4 8 8 11 9 5 7 -22 124 -479 300 -1175 102 -404 188
-742 192 -750 6 -16 109 380 429 1642 115 455 212 824 215 820 4 -4 107 -401
229 -882 122 -481 263 -1036 313 -1234 63 -247 93 -353 99 -340 7 18 112 425
384 1496 59 235 110 426 112 423 6 -5 81 -296 262 -1010 90 -352 179 -705 200
-785 l37 -145 16 55 c26 90 616 2409 618 2428 2 29 30 -80 519 -2008 61 -239
114 -444 117 -455 8 -26 -18 -122 259 965 129 509 238 934 243 944 6 15 12 1
28 -60 11 -43 120 -472 242 -953 123 -480 226 -882 230 -893 8 -21 67 201 301
1127 202 795 330 1300 337 1320 8 24 -26 153 328 -1240 158 -621 293 -1152
300 -1180 7 -29 15 -44 18 -35 9 23 147 561 327 1270 88 349 163 642 166 650
7 17 13 -5 290 -1100 114 -448 210 -818 213 -822 6 -7 53 174 441 1702 132
520 342 1345 466 1833 124 489 224 891 222 892 -2 2 -74 5 -161 6 l-157 2 6
26 c25 108 391 1552 406 1600 6 19 26 47 45 64 41 36 75 106 81 168 4 42 0 52
-74 165 -42 65 -83 124 -90 130 -7 6 -29 66 -48 135 -28 100 -298 1164 -320
1260 l-6 26 157 2 c87 1 159 4 161 6 2 1 -63 263 -144 581 -80 319 -232 914
-336 1324 -208 821 -550 2163 -608 2390 -21 80 -40 138 -43 130 -4 -8 -85
-328 -182 -710 -242 -957 -308 -1210 -315 -1210 -3 0 -77 282 -164 628 -179
703 -324 1269 -332 1292 -3 8 -14 -19 -25 -60 -11 -41 -146 -572 -300 -1180
-155 -608 -289 -1134 -299 -1170 l-17 -65 -16 55 c-8 30 -79 307 -157 615
-131 519 -339 1335 -427 1674 -26 102 -39 139 -45 125 -4 -10 -107 -413 -229
-894 -280 -1104 -261 -1031 -266 -1026 -2 2 -71 269 -154 592 -141 556 -307
1205 -334 1304 -9 35 -13 41 -18 25 -3 -11 -76 -297 -162 -635 -456 -1794
-472 -1857 -474 -1827 -3 27 -616 2430 -629 2460 -5 12 -18 -23 -40 -110 -18
-70 -120 -474 -228 -897 -193 -762 -230 -906 -237 -912 -2 -2 -74 277 -161
619 -231 910 -326 1280 -335 1301 -5 14 -27 -58 -74 -245 -69 -272 -215 -850
-433 -1704 -68 -269 -127 -497 -130 -505 -4 -8 -41 122 -84 290 -119 470 -489
1920 -525 2060 -18 69 -35 118 -38 110 -5 -11 -437 -1705 -487 -1905 -5 -21
-9 -25 -13 -15 -4 8 -83 319 -177 690 -175 691 -307 1203 -316 1230 -3 8 -16
-25 -29 -75 -12 -49 -127 -499 -254 -1000 -341 -1346 -334 -1321 -343 -1288
-5 15 -67 260 -139 543 -72 283 -194 763 -271 1065 -77 303 -152 595 -166 650
-13 55 -28 104 -32 108 -4 4 -12 -18 -20 -50 -19 -87 -469 -1856 -476 -1873
-4 -8 -35 95 -69 230 -111 438 -344 1351 -388 1522 -23 92 -45 169 -47 172 -3
2 -63 -221 -133 -497z"/>
</g>
</svg>
