<?xml version="1.0" standalone="no"?>
<!DOCTYPE svg PUBLIC "-//W3C//DTD SVG 20010904//EN"
 "http://www.w3.org/TR/2001/REC-SVG-20010904/DTD/svg10.dtd">
<svg version="1.0" xmlns="http://www.w3.org/2000/svg"
 width="1280.000000pt" height="1126.000000pt" viewBox="0 0 1280.000000 1126.000000"
 preserveAspectRatio="xMidYMid meet">
<metadata>
Created by potrace 1.15, written by Peter Selinger 2001-2017
</metadata>
<g transform="translate(0.000000,1126.000000) scale(0.100000,-0.100000)"
fill="#000000" stroke="none">
<path d="M3155 11249 c-783 -49 -1619 -263 -2495 -637 -204 -87 -476 -210
-581 -263 l-79 -39 0 -4500 0 -4499 108 51 c1223 575 2096 827 3082 889 223
14 669 6 890 -16 810 -81 1563 -298 2408 -693 297 -139 424 -211 622 -353
1030 -734 1864 -1109 2625 -1179 355 -33 720 14 1085 138 214 73 374 145 855
387 264 133 542 267 618 298 128 52 365 133 464 157 l43 11 0 4496 0 4496 -42
-6 c-50 -7 -194 -51 -328 -100 -168 -62 -308 -126 -645 -295 -607 -306 -733
-364 -970 -445 -579 -197 -1151 -194 -1790 10 -371 118 -847 346 -1285 616
-164 101 -501 327 -665 446 -106 77 -190 127 -345 205 -1240 626 -2418 898
-3575 825z"/>
</g>
</svg>
