<?xml version="1.0" standalone="no"?>
<!DOCTYPE svg PUBLIC "-//W3C//DTD SVG 20010904//EN"
 "http://www.w3.org/TR/2001/REC-SVG-20010904/DTD/svg10.dtd">
<svg version="1.0" xmlns="http://www.w3.org/2000/svg"
 width="1280.000000pt" height="746.000000pt" viewBox="0 0 1280.000000 746.000000"
 preserveAspectRatio="xMidYMid meet">
<metadata>
Created by potrace 1.15, written by Peter Selinger 2001-2017
</metadata>
<g transform="translate(0.000000,746.000000) scale(0.100000,-0.100000)"
fill="#000000" stroke="none">
<path d="M6260 7454 c-234 -13 -418 -27 -575 -45 -1557 -172 -2972 -782 -4070
-1752 -142 -126 -407 -390 -539 -537 -407 -455 -730 -930 -1001 -1469 l-76
-152 57 -107 c402 -753 959 -1394 1674 -1924 1454 -1078 3532 -1615 5545
-1432 1358 123 2548 572 3530 1333 441 341 847 757 1190 1216 259 348 441 650
707 1177 l94 186 -66 144 c-120 260 -229 459 -362 665 -508 788 -1188 1404
-2058 1863 -864 456 -1876 728 -3030 815 -191 15 -873 27 -1020 19z"/>
</g>
</svg>
