<?xml version="1.0" standalone="no"?>
<!DOCTYPE svg PUBLIC "-//W3C//DTD SVG 20010904//EN"
 "http://www.w3.org/TR/2001/REC-SVG-20010904/DTD/svg10.dtd">
<svg version="1.0" xmlns="http://www.w3.org/2000/svg"
 width="911.000000pt" height="1280.000000pt" viewBox="0 0 911.000000 1280.000000"
 preserveAspectRatio="xMidYMid meet">
<metadata>
Created by potrace 1.15, written by Peter Selinger 2001-2017
</metadata>
<g transform="translate(0.000000,1280.000000) scale(0.100000,-0.100000)"
fill="#000000" stroke="none">
<path d="M1175 12785 c-481 -78 -868 -385 -1046 -830 -175 -439 -172 -925 9
-1420 45 -123 175 -408 217 -476 50 -80 149 -209 160 -209 6 0 45 -39 86 -87
135 -157 349 -334 541 -447 179 -105 352 -173 563 -221 151 -35 397 -44 539
-21 54 9 101 15 103 13 11 -11 -180 -39 -299 -44 -76 -3 -138 -8 -138 -11 0
-19 152 -256 552 -860 252 -380 462 -700 465 -710 4 -9 12 -21 19 -27 7 -5
395 -588 864 -1295 468 -707 855 -1288 858 -1292 4 -4 37 15 73 42 l66 48 298
-108 c305 -111 314 -113 345 -76 19 24 27 20 41 -21 20 -61 92 -211 147 -307
150 -258 391 -523 663 -726 420 -315 925 -527 1589 -669 216 -47 294 -68 420
-113 492 -178 741 -537 691 -1000 -20 -181 -62 -320 -156 -513 -112 -227 -256
-425 -455 -625 -198 -197 -417 -354 -665 -475 -266 -130 -491 -191 -742 -202
l-143 -6 0 -50 0 -50 133 6 c216 10 422 56 632 139 623 248 1190 811 1410
1403 66 177 88 297 89 475 0 129 -3 170 -22 245 -46 184 -168 382 -304 496
-209 174 -425 267 -823 354 -469 102 -738 190 -1065 346 -325 157 -573 329
-806 563 -224 225 -371 435 -472 676 -61 144 -60 133 -3 177 l50 38 0 316 1
316 75 54 c41 29 75 55 75 57 0 1 -6 13 -14 25 -37 58 -1449 2583 -1450 2594
-1 6 -9 20 -18 30 -8 10 -206 358 -438 773 -492 879 -521 930 -525 930 -2 0
-30 -55 -63 -122 -33 -68 -68 -132 -77 -143 -8 -11 5 23 31 75 109 221 153
410 161 692 8 279 -18 466 -99 716 -24 74 -42 150 -43 182 -3 78 -41 148 -189
346 -34 44 -96 129 -140 188 -279 381 -721 693 -1128 796 -214 55 -470 73
-643 45z"/>
</g>
</svg>
