<?xml version="1.0" standalone="no"?>
<!DOCTYPE svg PUBLIC "-//W3C//DTD SVG 20010904//EN"
 "http://www.w3.org/TR/2001/REC-SVG-20010904/DTD/svg10.dtd">
<svg version="1.0" xmlns="http://www.w3.org/2000/svg"
 width="1280.000000pt" height="908.000000pt" viewBox="0 0 1280.000000 908.000000"
 preserveAspectRatio="xMidYMid meet">
<metadata>
Created by potrace 1.15, written by Peter Selinger 2001-2017
</metadata>
<g transform="translate(0.000000,908.000000) scale(0.100000,-0.100000)"
fill="#000000" stroke="none">
<path d="M10041 8882 c-216 -433 -454 -823 -696 -1137 -214 -279 -487 -561
-725 -751 -483 -386 -1017 -616 -1650 -709 -285 -42 -738 -65 -925 -46 -869
89 -1702 473 -2500 1155 -170 146 -528 502 -690 686 -132 151 -364 438 -452
560 -31 43 -59 78 -60 76 -4 -4 139 -523 206 -746 224 -749 433 -1214 777
-1729 46 -69 82 -126 80 -128 -1 -2 -40 2 -85 8 -264 36 -570 -97 -731 -316
-89 -122 -152 -280 -165 -412 l-7 -70 -127 -12 c-185 -16 -166 -21 -256 70
-149 151 -271 239 -440 320 -141 68 -244 93 -380 93 -130 0 -203 -17 -323 -74
-267 -127 -440 -378 -508 -735 -25 -131 -23 -393 4 -545 68 -375 235 -714 475
-967 164 -171 320 -275 512 -343 52 -18 128 -56 180 -89 164 -106 268 -164
514 -288 135 -68 239 -123 233 -123 -31 0 -6 -18 50 -37 35 -12 160 -56 278
-98 335 -119 573 -200 713 -241 70 -20 125 -39 123 -42 -3 -2 -60 12 -127 32
-67 21 -123 35 -126 32 -2 -2 9 -7 26 -11 27 -6 156 -95 173 -119 4 -6 8 -7 8
-3 0 5 7 2 15 -5 33 -30 45 -38 45 -33 0 4 23 -10 50 -30 28 -20 50 -34 50
-30 0 3 12 -2 28 -12 26 -19 132 -71 222 -111 25 -11 63 -28 85 -38 22 -9 42
-18 45 -18 30 -8 127 -41 135 -46 6 -3 30 -12 55 -20 25 -7 70 -21 100 -30 79
-26 328 -86 453 -109 208 -39 301 -52 607 -82 151 -15 786 -15 911 0 61 8 161
10 270 6 374 -13 1081 -3 1454 20 55 3 146 8 202 9 56 2 105 6 110 8 4 3 46 6
93 7 47 1 121 4 165 7 169 9 230 14 230 15 0 3 44 8 130 13 50 4 101 8 115 11
14 2 59 7 100 10 79 6 182 21 240 35 19 5 66 14 103 20 38 6 76 15 85 20 9 5
31 12 47 16 17 4 32 8 35 9 3 0 21 11 40 23 19 12 40 22 45 22 17 1 85 67 85
84 0 9 3 16 8 16 9 0 32 72 32 100 0 12 -5 18 -10 15 -6 -4 -9 3 -6 17 2 13
-1 34 -6 48 -5 14 -12 34 -14 45 -2 11 -12 27 -23 36 -11 9 -17 19 -14 23 3 3
0 14 -8 23 -16 21 -39 60 -39 68 0 4 6 3 13 -1 8 -5 9 -4 2 4 -5 6 -16 12 -24
14 -18 4 -62 41 -151 125 -42 40 -83 73 -91 73 -12 0 -12 2 0 9 10 7 27 -5 63
-45 319 -348 939 -407 1698 -159 138 45 428 159 443 174 4 5 -27 20 -70 36
-108 38 -402 166 -623 270 -102 48 -270 128 -375 177 -486 230 -677 293 -810
269 -83 -16 -168 -65 -234 -138 l-58 -62 -259 35 c-339 46 -461 65 -377 59 34
-3 81 -7 105 -10 l43 -5 -37 11 c-20 6 -49 22 -63 35 -14 13 -28 24 -31 24 -3
0 -17 12 -32 27 -15 16 -41 35 -57 43 -17 8 -41 25 -55 38 -14 12 -33 25 -42
28 -10 3 -18 10 -18 15 0 5 -7 9 -15 9 -7 0 -18 6 -22 13 -9 13 -37 32 -70 46
-11 6 -24 14 -27 20 -4 6 -24 18 -44 27 -20 10 -45 24 -55 32 -16 14 -19 13
-32 -4 -8 -10 -15 -24 -15 -31 0 -6 -4 -15 -10 -18 -14 -8 -6 10 95 225 329
702 371 825 439 1294 l24 170 154 150 c84 83 256 249 381 369 125 120 263 262
308 315 279 331 397 668 438 1244 16 210 13 707 -4 1033 -14 261 -54 817 -59
822 -1 1 -44 -82 -95 -185z m-1700 -5475 c-10 -9 -11 -8 -5 6 3 10 9 15 12 12
3 -3 0 -11 -7 -18z m332 -244 c-7 -2 -21 -2 -30 0 -10 3 -4 5 12 5 17 0 24 -2
18 -5z m85 -10 c-10 -2 -26 -2 -35 0 -10 3 -2 5 17 5 19 0 27 -2 18 -5z
m-5223 -953 c25 -11 -1 -11 -35 0 -20 6 -21 8 -5 8 11 0 29 -3 40 -8z m52 -16
c-3 -3 -12 -4 -19 -1 -8 3 -5 6 6 6 11 1 17 -2 13 -5z m40 -10 c-3 -3 -12 -4
-19 -1 -8 3 -5 6 6 6 11 1 17 -2 13 -5z m40 -10 c-3 -3 -12 -4 -19 -1 -8 3 -5
6 6 6 11 1 17 -2 13 -5z m80 -20 c-3 -3 -12 -4 -19 -1 -8 3 -5 6 6 6 11 1 17
-2 13 -5z"/>
</g>
</svg>
